<svg height="316.227766" viewBox="0 0 533 533" width="316.227766" xmlns="http://www.w3.org/2000/svg"><path d="m0 0h533v533h-533zm246.39 39.23c-68.93 4.08-134.51 41.89-173.38 98.82-40.84 57.97-51.83 135.57-28.96 202.66 23.8 74.5 88.61 134.4 165.02 151.51 20.44 5.67 41.81 6.72 62.91 6.15 60.72-1.94 119.96-29.7 160.61-74.79 37.69-40.91 59.46-95.92 60.12-151.52.73-30.68-5.4-61.4-16.77-89.84-22.83-57.28-70.09-103.85-127.09-127.07-32.41-12.7-67.69-18.53-102.46-15.92z" fill="#fdfffe"/><path d="m239.43 47.8c38.65-3.72 78.34 2.18 113.8 18.13 56.99 25.6 102.86 75.98 121.06 135.95 14.54 45.07 13.66 94.91-1.99 139.57-21.9 64.34-75.28 116.86-139.9 137.88-44.67 14.9-94.16 14.87-138.9.23-33.07-10.65-63.5-29.45-87.96-54.11-34.39-34.13-57-79.92-63.17-127.97-7.27-53.62 6.08-109.74 36.89-154.23 36.2-53.14 96.17-89.01 160.17-95.45m-42.66 25.26c2.36.79 4.72 1.59 7.08 2.39-1.32 7.72-2.95 15.74-.53 23.43-1.21.41-2.42.83-3.62 1.25 5.25 5.91 10.68-1.24 14.47-5.04.1 3.34-.66 6.77.12 10.05 1.69 1.87 4.33 2.38 6.59 3.26-4.09-11.99-6.02-24.47-7.48-37.02 1.72-2.03 3.38-4.12 4.91-6.3-8.34-1.85-13.31 7.58-21.54 7.98m25.73-2.9c3.83 1.01 7.73.33 11.38-.98-1.89 4-4.03 8.15-8.16 10.24-1.57-3.42-3.21-6.82-5.36-9.91-.31 5.44.43 12.49 5.99 15.14 8.93.04 15.94-9.02 13.6-17.5-4.99-5.35-12.96-.87-17.45 3.01m91.17-5.61c-1.41 7.55-2.85 15.21-6.04 22.25-1.08 2.74-4.26 3.31-6.65 4.4 1.69-7.43 5-14.57 4.9-22.33-.55-.2-1.64-.59-2.19-.79-1.11 7.97-3.4 15.76-6.29 23.25-.62 2.47-3.4 1.89-5.31 2.11 1.31-3.19 2.83-6.3 4.51-9.32-3.06-.51-6.09-1.12-9.12-1.79-.2 3.81.24 7.61 1.2 11.3-4.96 1.22-10.1 1.11-15.03-.18.27 2.57-.96 6.92 2.76 7.18 9.28 1.94 18.86-.29 28.23 1.05 8.85.91 16.76 5.55 25.56 6.69-3.5-8.48-12.91-10.62-21.03-11.94.77-1.99 1.55-3.97 2.34-5.95 4.7.22 9.4.48 14.11.51-.69-3.34-1.76-6.57-3.14-9.68-2.6 3.38-6.34 5.46-10.38 6.63 2.75-7.33 8.71-16.67 1.57-23.39m-75.29 18.2c.56 1.42 1.13 2.83 1.71 4.25-1.36 2.02-2.71 4.06-4.04 6.1 4.21.12 8.42 0 12.62-.32-.41-5.71-5.31-8.65-10.29-10.03m-18.24 6.8c.86 2.97 2.14 5.79 3.76 8.41.69-.1 2.05-.29 2.73-.38.69-2.62 1.39-5.24 2.18-7.82-2.83 1.14-5.86.86-8.67-.21m-70.68 12.97c-1.06-5.28-5.53-7.39-10.6-6.89 4.16 7.13 7.78 14.66 8.65 22.99 1.82-9.05 9.2-14.84 13.17-22.72-5.57-2.69-9.49 1.78-11.22 6.62m238.95-.7c-1.3 4.17-3.34 8.81-7.73 10.45-5.51.4-9.97-3.64-13.74-7.14-1.12 5.9 2.21 10.56 7.09 13.44-3.07 2-6.18 4.68-10.04 4.69-3.86-.45-6.98-3.04-10.25-4.9 2.59 4.67 5.44 10.73 11.36 11.53 7.18-.19 11.43-7.32 17.99-9.12 7.31.94 12.54 6.93 19.26 9.48 1.47-9.49-9.09-12.71-16.01-15.41 3.42-3.86 6.45-8.75 3.94-13.97-.47.24-1.4.71-1.87.95m-234.58 6.29c1.13 2.3 2.26 4.6 3.31 6.94-2.66 1.22-5.28 2.52-7.78 4.04 2.87.07 5.74.05 8.61.03.51 5.47-.27 10.93-1.35 16.29 5.13-3.31 5.77-9.61 6.72-15.1 6.92.23 13.85.68 20.79.57-5.74-4.58-13.02-6.56-20.29-5.55-.7-2.86-.49-6.55-3.17-8.41-2.33-.06-4.59.63-6.84 1.19m-28.3 10.43c2.18.78 4.48 1.13 6.79.82 3.22 3.7 5.87 7.85 8.21 12.15.67.06 2.01.17 2.68.23-.81-3.9-1.84-7.75-3.02-11.55.96.66 1.92 1.33 2.88 2 1.27-1.18 2.54-2.35 3.81-3.53-2.78-6.35-8.92 1.38-12.38-2.96-.09-2.73.73-5.38 1.19-8.04-5.43 1.22-8.35 6.02-10.16 10.88m118.87-8.3c-40.66 4.39-79.37 25.24-105.13 57.04-34.75 41.03-45.54 100.66-28.13 151.42 16.32 51.31 60.94 92.38 113.29 104.76 20.68 5.09 42.35 5.54 63.39 2.62 59.45-8.81 111.62-54.56 127.77-112.49 15.07-49.86 3.74-107.24-30.3-146.88-33.4-41.12-88.36-62.77-140.89-56.47m-101.8 12.37c1.34 2.27 2.74 4.5 4.16 6.72-1.32 3.28-2.71 6.53-4.19 9.74-3.28-4.3-5.99-9.01-9.32-13.28 1.95 7.01 3.85 15.72 11.36 18.77 3.45-6.43 7.08-13.01 7.76-20.43-3.24-.62-6.49-1.14-9.77-1.52m235.49 14.45c-1.05-.55-2.09-1.1-3.13-1.64.49 4.5 1.13 8.99 1.8 13.47 2.92-.63 7.27-.22 8.49-3.65 1.6-6.24-1.73-12.31-4.83-17.5-.9 3.07-1.63 6.19-2.33 9.32m-299.43 26.57c-1.63 5.79-1.77 11.86-2.93 17.75 6.71-1.89 6.7-8.99 7.05-14.74 3.22 5.82 5.77 14.66-1.25 18.78 4.52 1.31 8.96 3.3 12.25 6.77 4.73 4.2 7.68 11.29 14.75 11.86 1.04-6.87.32-15.29-5.95-19.54-.12 3.19-.13 6.39-.15 9.58-.85-.68-1.7-1.36-2.56-2.03.74-3.9 1.23-7.83 1.64-11.77 11.65-1.37 26.74-3.92 31.38-16.4-5.17-1.41-10.53-1.1-15.79-.61 1.64 1.65 3.82 3.05 4.49 5.4-5.51 4.75-12.95 6.08-19.92 7.19-.81-2.99-1.66-5.96-2.57-8.92-.62.22-1.84.66-2.45.88-.85 2.6-1.65 5.21-2.42 7.84-.76.02-1.53.04-2.29.07-1.09-6.15-2.77-12.45-6.4-17.61-3.48-.54-6.08 2.41-6.88 5.5m345.75 2.95c12.38 2.24 21.13 13.02 25.92 24-1.94-.39-3.88-.8-5.83-1.18 1.8 4.4 4.41 8.52 8.42 11.22 2.72-6.49.64-13.53-2.97-19.19 1.89 1.33 3.72 2.95 6.02 3.53 3.41-.03 5.05-4.49 3.49-7.19-1.84-3.08-4.69-5.37-7.18-7.9-1.14 2.31-2.26 4.64-3.34 6.99-5.56-2.57-9.82-7.02-14.31-11.03.71-1.61 1.41-3.22 2.1-4.84-4.8-.02-9.54 1.44-12.32 5.59m17.97 4.39c2.6-.25 5.21-.56 7.81-.95-.42-2.35-.77-4.7-1.08-7.06-3.16 1.78-5.89 4.34-6.73 8.01m-23.46-1.07c-3.92 7.65 2.73 13.42 7.3 18.65-3.77 1.12-7.71 3.01-11.7 2.05-2.74-1.63-4.61-4.29-6.75-6.56-.23 4.7.26 9.41 1.38 13.98 7.42 1.37 14.64-1.46 20.56-5.79 1.91 4.46 3.63 9.04 6.46 13.02 3.13-6.54-.94-13.12-4.11-18.72 3.38.85 6.82 1.42 10.29 1.78 1.36-7.22-5.23-11.18-9.91-15.16-3.15 4.8 1.71 7.77 5.33 10.11-8.81-.1-14.32-6.7-18.85-13.36m26.62 106.91c-.25 6.47 6.28 9.09 10.41 12.71-3.86 1.72-7.74 3.41-11.67 4.98-.19 1.66-.36 3.32-.52 4.98 4.46-1.55 8.68-3.69 12.97-5.65 4.81-2.28 10.23-.86 15.33-1.05-2.13-6.14-9.68-3.67-13.99-6.98-4.17-3.02-7.92-6.62-12.53-8.99m-390.95 16.21c-.94 7.23 5.75 12.99 12.77 11.97-2.02-4.08-7.27-5.3-9.02-9.36-1.99-10.64 17.49-13.62 19.35-3.35-.24 4.24-3.22 7.79-4.19 11.89 8.03-1.42 10.17-11.61 5.86-17.64-6.47-9.07-24.29-5.34-24.77 6.49m383.66 27.57c1.22.13 2.45.27 3.68.42.88-2.52 1.75-5.04 2.61-7.56 7.07 1.61 14.06 3.57 21.23 4.67.06-1.38.13-2.75.2-4.12-6.85-1.73-13.74-3.3-20.55-5.14.51-2.94.95-5.89 1.23-8.86-7.32 3.68-5.41 13.92-8.4 20.59m-379.79-8.78c-.05 1.41-.1 2.83-.15 4.26 4.13-.6 8.21-1.5 12.25-2.58.87 3.77 1.71 7.55 2.48 11.35-3.6 1-7.21 1.96-10.85 2.83.33 1.46.65 2.92.98 4.39 8.28-1.77 16.4-4.2 24.56-6.46-.12-1.41-.22-2.81-.33-4.21-3.46.72-6.91 1.5-10.36 2.29-1.07-3.7-2.08-7.42-2.97-11.17 3.24-.89 6.49-1.77 9.74-2.63-.35-1.35-.69-2.7-1.04-4.05-8.23 1.48-16.12 4.32-24.31 5.98m378.72 10.38c-.02 1.5-.04 3-.05 4.51 7.89 2.62 15.79 5.25 23.84 7.38.38-1.68.75-3.35 1.13-5.03-8.57-1.23-16.54-4.8-24.92-6.86m-371.24 16.1c.36 1.46.72 2.92 1.08 4.39 8.04-3.01 16.12-5.9 24.19-8.82-.47-1.4-.94-2.79-1.41-4.17-8.06 2.57-15.99 5.5-23.86 8.6m364.82 8.9c2.19 4.74 9.25 4.92 11.86.43 2.67-2.56 6.19-10.19 10.28-5.53 2.57 5.35-3.21 9.7-8.05 10.3-.26 1.24-.51 2.49-.75 3.75 7.98 1.2 14.09-6.39 13-13.94-.31-4.97-6.89-8.1-10.8-4.92-3.57 3.02-6.22 6.95-9.57 10.2-5.24-4.27-1.5-10.92 4.48-11.41.25-1.22.5-2.43.76-3.63-8.07-1.39-13.91 7.64-11.21 14.75m-361.42 1.52c.54 1.32 1.08 2.65 1.62 3.97 5.67-2.48 11.24-5.16 16.9-7.67-3.69 6.41-7.99 12.46-11.65 18.89.68 1.25 1.35 2.52 2.02 3.78 7.9-3.47 15.77-7.06 23.25-11.38-.58-1.11-1.16-2.21-1.74-3.31-5.7 2.4-11.27 5.09-16.87 7.73 3.19-7.74 12.35-13.81 10.46-22.91-8.2 3.17-15.96 7.35-23.99 10.9m347.56 19.89c7.33 4.16 14.58 8.45 22 12.44.72-1.16 1.45-2.33 2.18-3.49-2.93-1.9-5.93-3.7-8.97-5.4 1.68-3.08 2.89-7 6.3-8.57 3.06.21 5.88 1.59 8.75 2.56.88-1.23 1.77-2.47 2.66-3.7-6.93-1.44-13.31-4.2-18.29-9.28-8.72-1.69-11.34 9.51-14.63 15.44m-336.36 3.13c1.47 4.72 6.36 3.19 10.05 2.69 1.54 2.66 3.04 5.34 4.43 8.08-1.47 2.54-2.83 5.15-4.04 7.83 1.17.44 2.33.89 3.49 1.34 4.2-6.47 9.17-12.4 13.41-18.83 1.51-1.92.83-4.39.65-6.6-9.44 1.17-18.74 3.3-27.99 5.49m323.51 13.59c6.69 5.41 13.52 10.64 20.62 15.49 3.86-5.07 7.79-10.11 11.27-15.45-1.22-.41-2.44-.81-3.65-1.2-2.7 3.55-5.45 7.05-8.33 10.45-1.98-1.43-3.95-2.86-5.92-4.3 2.59-3.35 5.12-6.75 7.62-10.17-.89-.74-1.77-1.48-2.65-2.22-2.63 3.41-5.29 6.8-8.01 10.15-1.7-1.32-3.4-2.64-5.08-3.97 2.86-3.81 5.66-7.67 8.24-11.68-1.08-.49-2.16-.97-3.23-1.44-3.77 4.67-7.41 9.44-10.88 14.34m-2.93 6.59c2.69 5.76 6.35 11.03 9 16.82-6.58-3.08-12.98-6.54-19.64-9.46-.82 1.22-1.64 2.45-2.46 3.68 8.14 3.86 16.22 7.88 24.61 11.19.97-1.1 1.93-2.2 2.91-3.3-3.96-8.29-7.85-16.66-12.84-24.39-.87 1.69-2.89 3.45-1.58 5.46m-292.83 17.82c2.92 6.58 11.36 7.9 17.14 4.32-.77-1.1-1.54-2.19-2.31-3.28-3.47.59-8.3 2.44-10.66-1.28-5.45-8.16 7.6-19.74 14.9-12.95 2.18 3.76.97 8.87 4.22 12.24 3.61-6.1 1.41-14.43-5.22-17.28-10.47-4.94-23.39 7.77-18.07 18.23m16.17 11.82c-2.21 1.76.25 3.9 1.1 5.71 5.75-6.53 11.44-13.11 17.25-19.59-1.02-1.16-2.05-2.32-3.07-3.47-5.17 5.71-10.3 11.47-15.28 17.35m258.25-15.1c5.88 6.55 11.47 13.37 17.68 19.62.93-1.07 1.87-2.13 2.81-3.18-5.42-6.23-10.4-12.94-16.53-18.49-1.39.54-2.67 1.32-3.96 2.05m-238.24 2.12c-3.58 8.7-6.48 17.67-8.89 26.76 2.22.71 4.75 1.9 6.83.16 6.54-4.23 12.93-8.73 19.22-13.33-.99-1-1.98-1.99-2.96-2.98-6.01 4.06-11.79 8.45-17.78 12.55 1.72-6.13 4.4-11.97 5.88-18.17.62-2.02-1.4-3.43-2.3-4.99m232.14 3.51c3.32 5.07 7 9.89 10.29 14.99-7.96-1.59-15.69-9.82-23.88-5.47 4.85 7.41 10.09 14.56 15.68 21.42.88-1.04 1.77-2.07 2.66-3.1-3.33-5-6.95-9.8-10.5-14.64 6.99 2.44 13.79 5.42 20.8 7.82 1.05-.82 2.11-1.63 3.17-2.43-4.3-7.41-9.65-14.11-14.97-20.79-1.09.73-2.17 1.46-3.25 2.2m-213.26 10.97c-4.5 7.24-9.18 14.37-13.36 21.81 1.25.63 2.51 1.27 3.76 1.91 4.61-7.17 9.38-14.25 13.48-21.73-1.3-.67-2.59-1.34-3.88-1.99m192.8 3.09c2.58 5.52 6.32 10.49 8.32 16.28 1.98 5.42-6.66 9.96-10.01 5.24-3.69-4.83-5.94-10.57-9.32-15.62-1.26.69-2.5 1.38-3.75 2.07 3.14 5.39 5.61 11.18 9.24 16.28 5.71 8.27 21.32.45 18.32-9.07-2.13-6.16-5.96-11.54-9.06-17.23-1.25.68-2.5 1.36-3.74 2.05m-185.59 2.01c-3.68 7.49-7.54 14.89-11.19 22.39 5.24 2.72 10.48 5.45 15.74 8.13.35-1.2.69-2.4 1.04-3.59-3.61-2.12-7.26-4.18-10.92-6.21 3.2-6.62 6.98-12.95 9.78-19.75-1.48-.33-2.96-.66-4.45-.97m144.54 16.95c-2.59 2.75-2.38 7.83.85 10 5.06 2.45 11.22-.44 16.18 2.28 1.65 7.65-9.1 8.04-12.67 3.25-1.22.52-2.44 1.05-3.65 1.6 3.64 8.02 15.41 7.03 19.87.38 2.55-3.55.57-9.66-3.93-10.37-4.61-.7-9.3-.34-13.94-.67-.73-9.08 9.23-5.53 14.54-4.52-1.98-7.9-12.84-7.2-17.25-1.95m-128.15 18.74c1.33.31 2.66.62 4 .94 1.53-1.8 3.06-3.6 4.58-5.41 3.09.93 6.16 1.89 9.22 2.89.34 2.67.67 5.35 1.01 8.04 1.35.18 2.7.38 4.05.58-.35-9.12-.46-18.26-1.41-27.35-1.43-.49-2.86-.97-4.28-1.46-5.96 7.07-11.92 14.15-17.17 21.77m32.24-16.8c-1.79 8.24-3.54 16.5-4.69 24.86 1.4.3 2.81.61 4.22.92.61-3.55 1.24-7.1 1.84-10.65 4.09.37 8.16.9 12.23 1.48-.02-1.12-.03-2.23-.03-3.34-3.81-.85-7.63-1.68-11.44-2.49.54-2.15 1.08-4.3 1.61-6.45 4.3.9 8.6 1.74 12.92 2.54.15-1.27.31-2.55.47-3.81-5.67-1.27-11.37-2.37-17.13-3.06m69.84 3.17c.93 8.27 2.85 16.38 4.41 24.55 1.51.01 3.01.04 4.52.06-.54-3.58-1.15-7.15-1.8-10.72 3.36-.58 6.87-1.82 10.27-.83 1.87 2.57 2.76 5.68 3.91 8.61 1.51-.07 3.02-.14 4.54-.19-1.77-5.02-5.11-9.79-4.65-15.32.22-3.11.15-7.31-3.53-8.32-5.95-1.2-11.87 1.11-17.67 2.16m-50.52.06c-.75 8.51-1.62 17.01-2.29 25.52 1.53.06 3.07.12 4.61.19.28-3.59.53-7.17.73-10.75 4.05.16 8.1.35 12.14.5.01-1.14.03-2.27.05-3.39-3.82-.33-7.63-.64-11.45-.9.02-2.08.02-4.15.03-6.21 4.57-.03 9.14.06 13.72.08-.09-1.25-.17-2.49-.25-3.73-5.77-.36-11.52-.88-17.29-1.31m41.56.66c.65 8.72 1.42 17.44 2.82 26.07 1.33-.41 2.66-.8 3.99-1.19-.71-8.37-1.49-16.74-2.73-25.04-1.36.05-2.72.1-4.08.16m-15.96.21c-3.63 8.75-6.59 17.76-9.86 26.65 1.43-.07 2.86-.13 4.29-.18.97-2.21 1.93-4.42 2.88-6.63 5.39-1.11 11.29-.76 12.45 5.69 1.44.2 2.89.4 4.34.6-2.22-7.82-5.61-15.24-8.67-22.75-.72-2.42-3.41-2.64-5.43-3.38z" fill="#fdfffe"/><path d="m206.64 78.52c1.09-2.39 2.31-4.71 3.72-6.93.63 2.81 1.18 5.64 1.69 8.48-1.81-.51-3.61-1.03-5.41-1.55z" fill="#fdfffe"/><path d="m206.94 84.95c1.8-1.1 3.6-2.19 5.41-3.26 1.97 6.08-1.01 11.69-6.76 14.14 1.92-3 4.25-5.69 6.64-8.32-1.76-.85-3.53-1.71-5.29-2.56z" fill="#fdfffe"/><path d="m205.2 88.56c1.71-1.06 3.14 1.86 1.42 2.72-1.71 1.05-3.12-1.86-1.42-2.72z" fill="#fdfffe"/><path d="m300.37 92.36c1.78-.1 3.57-.2 5.35-.3-.44 1.18-.88 2.35-1.31 3.53-1.34.03-2.67.06-4 .09-.01-1.11-.02-2.21-.04-3.32z" fill="#fdfffe"/><path d="m258.55 114.75c47.08-1.4 94.37 20.05 123.65 57.06 39.43 46.74 45.11 117.68 15.47 170.86-20.5 36.33-55.52 64.79-96.3 74.76-51.02 13.8-108.71-1.28-146.17-38.63-14.7-14.93-27.58-32.13-35.07-51.83-15.44-37.14-15.49-80.47.24-117.52 22.1-55.14 78.84-93.71 138.18-94.7m-3.05 38.97c-15.88 2.91-28.28 18.15-27.87 34.29-.18 16.13 12.19 31.76 28.36 34.11 13.92 2.67 29.06-3.53 36.31-15.87 8.81-13.51 6.1-32.94-5.74-43.81-8.1-7.85-20.09-10.89-31.06-8.72m-103.95 38.97c-1.51 16.73-.3 33.59-.7 50.37-.52 13.28 9.21 26.29 22.42 28.73 14.16 2.21 28.49 3.2 42.71 5 11.46 1.18 22.6 7.48 28.91 17.2 6.06 11.64 11.17 23.77 17.54 35.25 7-11.4 11.58-24.08 18.14-35.72 6.8-10.39 19.07-16.14 31.22-17.09 13.57-1.69 27.26-2.62 40.76-4.77 12.93-2.6 22.23-15.65 21.73-28.62-.29-16.78.37-33.58-.47-50.34-6.95 2.71-13.21 6.81-19.72 10.38-29.35 16.38-58.88 32.43-88.23 48.8-5.13 3.24-9.91-2.43-14.4-4.37-33.37-18.14-66.27-37.18-99.91-54.82m-16.36 98.37c3.27 11.05 8.04 23.36 19.03 28.79 13.72 6.99 29.04 10 44.08 12.63 11.84 2.14 24 1.43 35.8 3.73-2.21 18.39-16.53 31.71-24.8 47.43 12.21.85 24.47.21 36.7.52 3.98-.11 8.22.44 11.97-1.19 3.11-7.24 2.58-15.46 4.49-23.05 2.06 7.56 1.98 15.61 4.63 23.01 3.72 1.66 7.94 1.11 11.91 1.21 12.4-.32 24.82.36 37.2-.45-8.87-15.46-22.74-29.26-25.21-47.52 26.7-2.78 54.55-3.93 79.12-15.98 8.63-3.95 14.04-12.34 17.15-20.99 9.57-25.95 4.9-55.56-8.01-79.5-1.01 8.73-.29 17.53-.47 26.29.07 15.1-11.59 29.3-26.39 32.23-15.18 2.68-30.75 2.39-45.87 5.34-14.89 3.67-24.34 16.83-31.48 29.45-5.52 8.49-8.15 18.35-12.59 27.36-4.64-11.81-9.3-23.72-16.66-34.18-6.46-10.79-16.18-20.84-29.05-23.11-14.5-2.29-29.26-2.5-43.74-4.9-14.68-2.71-26.23-16.46-26.65-31.32-.31-9.06.31-18.12-.1-27.18-12.29 21.23-16.77 47.42-11.06 71.38z" fill="#fdfffe"/><path d="m451.99 176.11c1.68.56 3.36 1.14 5.03 1.75-1.69-.56-3.37-1.14-5.03-1.75z" fill="#fdfffe"/><path d="m91.48 179.52c1.09-.11 2.17-.21 3.26-.32.04 2.62.07 5.24.09 7.86-1.49-.78-2.97-1.57-4.45-2.36.37-1.73.74-3.45 1.1-5.18z" fill="#fdfffe"/><path d="m422.06 366.57c2.02-3.31 3.43-9.98 8.38-9.04 5.7 2.51.63 8.79-1 12.5-2.48-1.12-4.93-2.29-7.38-3.46z" fill="#fdfffe"/><path d="m93.76 372.7c3.45-.67 6.91-1.27 10.39-1.74-1.97 2.94-4.12 5.77-6.39 8.49-1.39-2.22-2.72-4.47-4-6.75z" fill="#fdfffe"/><path d="m197.94 456.21c2.24-3.12 4.52-6.2 6.83-9.26.08 3.96.12 7.93.13 11.9-2.32-.88-4.64-1.75-6.96-2.64z" fill="#fdfffe"/><path d="m294.25 452.64c3.3-.53 6.65-1.55 10.02-1 1.9 1.41 1.57 4.13 2.2 6.19-3.68 1.29-7.45 2.31-11.27 3.08-.35-2.75-.67-5.51-.95-8.27z" fill="#fdfffe"/><path d="m262.29 467.8c1.19-3.98 2.51-7.92 3.99-11.8 1.26 3.62 2.48 7.26 3.63 10.92-2.54.29-5.08.58-7.62.88z" fill="#fdfffe"/><g fill="#1177ba"><path d="m246.39 39.23c34.77-2.61 70.05 3.22 102.46 15.92 57 23.22 104.26 69.79 127.09 127.07 11.37 28.44 17.5 59.16 16.77 89.84-.66 55.6-22.43 110.61-60.12 151.52-40.65 45.09-99.89 72.85-160.61 74.79-21.1.57-42.47-.48-62.91-6.15-76.41-17.11-141.22-77.01-165.02-151.51-22.87-67.09-11.88-144.69 28.96-202.66 38.87-56.93 104.45-94.74 173.38-98.82m-6.96 8.57c-64 6.44-123.97 42.31-160.17 95.45-30.81 44.49-44.16 100.61-36.89 154.23 6.17 48.05 28.78 93.84 63.17 127.97 24.46 24.66 54.89 43.46 87.96 54.11 44.74 14.64 94.23 14.67 138.9-.23 64.62-21.02 118-73.54 139.9-137.88 15.65-44.66 16.53-94.5 1.99-139.57-18.2-59.97-64.07-110.35-121.06-135.95-35.46-15.95-75.15-21.85-113.8-18.13z"/><path d="m196.77 73.06c8.23-.4 13.2-9.83 21.54-7.98-1.53 2.18-3.19 4.27-4.91 6.3 1.46 12.55 3.39 25.03 7.48 37.02-2.26-.88-4.9-1.39-6.59-3.26-.78-3.28-.02-6.71-.12-10.05-3.79 3.8-9.22 10.95-14.47 5.04 1.2-.42 2.41-.84 3.62-1.25-2.42-7.69-.79-15.71.53-23.43-2.36-.8-4.72-1.6-7.08-2.39m9.87 5.46c1.8.52 3.6 1.04 5.41 1.55-.51-2.84-1.06-5.67-1.69-8.48-1.41 2.22-2.63 4.54-3.72 6.93m-.38 3.8c.5.5.5.5 0 0m.68 2.63c1.76.85 3.53 1.71 5.29 2.56-2.39 2.63-4.72 5.32-6.64 8.32 5.75-2.45 8.73-8.06 6.76-14.14-1.81 1.07-3.61 2.16-5.41 3.26m-1.74 3.61c-1.7.86-.29 3.77 1.42 2.72 1.72-.86.29-3.78-1.42-2.72z"/><path d="m222.5 70.16c4.49-3.88 12.46-8.36 17.45-3.01 2.34 8.48-4.67 17.54-13.6 17.5-5.56-2.65-6.3-9.7-5.99-15.14 2.15 3.09 3.79 6.49 5.36 9.91 4.13-2.09 6.27-6.24 8.16-10.24-3.65 1.31-7.55 1.99-11.38.98z"/><path d="m313.67 64.55c7.14 6.72 1.18 16.06-1.57 23.39 4.04-1.17 7.78-3.25 10.38-6.63 1.38 3.11 2.45 6.34 3.14 9.68-4.71-.03-9.41-.29-14.11-.51-.79 1.98-1.57 3.96-2.34 5.95 8.12 1.32 17.53 3.46 21.03 11.94-8.8-1.14-16.71-5.78-25.56-6.69-9.37-1.34-18.95.89-28.23-1.05-3.72-.26-2.49-4.61-2.76-7.18 4.93 1.29 10.07 1.4 15.03.18-.96-3.69-1.4-7.49-1.2-11.3 3.03.67 6.06 1.28 9.12 1.79-1.68 3.02-3.2 6.13-4.51 9.32 1.91-.22 4.69.36 5.31-2.11 2.89-7.49 5.18-15.28 6.29-23.25.55.2 1.64.59 2.19.79.1 7.76-3.21 14.9-4.9 22.33 2.39-1.09 5.57-1.66 6.65-4.4 3.19-7.04 4.63-14.7 6.04-22.25m-13.3 27.81c.02 1.11.03 2.21.04 3.32 1.33-.03 2.66-.06 4-.09.43-1.18.87-2.35 1.31-3.53-1.78.1-3.57.2-5.35.3z"/><path d="m238.38 82.75c4.98 1.38 9.88 4.32 10.29 10.03-4.2.32-8.41.44-12.62.32 1.33-2.04 2.68-4.08 4.04-6.1-.58-1.42-1.15-2.83-1.71-4.25z"/><path d="m220.14 89.55c2.81 1.07 5.84 1.35 8.67.21-.79 2.58-1.49 5.2-2.18 7.82-.68.09-2.04.28-2.73.38-1.62-2.62-2.9-5.44-3.76-8.41z"/><path d="m149.46 102.52c1.73-4.84 5.65-9.31 11.22-6.62-3.97 7.88-11.35 13.67-13.17 22.72-.87-8.33-4.49-15.86-8.65-22.99 5.07-.5 9.54 1.61 10.6 6.89z"/><path d="m388.41 101.82c.47-.24 1.4-.71 1.87-.95 2.51 5.22-.52 10.11-3.94 13.97 6.92 2.7 17.48 5.92 16.01 15.41-6.72-2.55-11.95-8.54-19.26-9.48-6.56 1.8-10.81 8.93-17.99 9.12-5.92-.8-8.77-6.86-11.36-11.53 3.27 1.86 6.39 4.45 10.25 4.9 3.86-.01 6.97-2.69 10.04-4.69-4.88-2.88-8.21-7.54-7.09-13.44 3.77 3.5 8.23 7.54 13.74 7.14 4.39-1.64 6.43-6.28 7.73-10.45z"/><path d="m153.83 108.11c2.25-.56 4.51-1.25 6.84-1.19 2.68 1.86 2.47 5.55 3.17 8.41 7.27-1.01 14.55.97 20.29 5.55-6.94.11-13.87-.34-20.79-.57-.95 5.49-1.59 11.79-6.72 15.1 1.08-5.36 1.86-10.82 1.35-16.29-2.87.02-5.74.04-8.61-.03 2.5-1.52 5.12-2.82 7.78-4.04-1.05-2.34-2.18-4.64-3.31-6.94z"/><path d="m125.53 118.54c1.81-4.86 4.73-9.66 10.16-10.88-.46 2.66-1.28 5.31-1.19 8.04 3.46 4.34 9.6-3.39 12.38 2.96-1.27 1.18-2.54 2.35-3.81 3.53-.96-.67-1.92-1.34-2.88-2 1.18 3.8 2.21 7.65 3.02 11.55-.67-.06-2.01-.17-2.68-.23-2.34-4.3-4.99-8.45-8.21-12.15-2.31.31-4.61-.04-6.79-.82z"/><path d="m244.4 110.24c52.53-6.3 107.49 15.35 140.89 56.47 34.04 39.64 45.37 97.02 30.3 146.88-16.15 57.93-68.32 103.68-127.77 112.49-21.04 2.92-42.71 2.47-63.39-2.62-52.35-12.38-96.97-53.45-113.29-104.76-17.41-50.76-6.62-110.39 28.13-151.42 25.76-31.8 64.47-52.65 105.13-57.04m14.15 4.51c-59.34.99-116.08 39.56-138.18 94.7-15.73 37.05-15.68 80.38-.24 117.52 7.49 19.7 20.37 36.9 35.07 51.83 37.46 37.35 95.15 52.43 146.17 38.63 40.78-9.97 75.8-38.43 96.3-74.76 29.64-53.18 23.96-124.12-15.47-170.86-29.28-37.01-76.57-58.46-123.65-57.06z"/><path d="m142.6 122.61c3.28.38 6.53.9 9.77 1.52-.68 7.42-4.31 14-7.76 20.43-7.51-3.05-9.41-11.76-11.36-18.77 3.33 4.27 6.04 8.98 9.32 13.28 1.48-3.21 2.87-6.46 4.19-9.74-1.42-2.22-2.82-4.45-4.16-6.72z"/><path d="m378.09 137.06c.7-3.13 1.43-6.25 2.33-9.32 3.1 5.19 6.43 11.26 4.83 17.5-1.22 3.43-5.57 3.02-8.49 3.65-.67-4.48-1.31-8.97-1.8-13.47 1.04.54 2.08 1.09 3.13 1.64z"/><path d="m255.5 153.72c10.97-2.17 22.96.87 31.06 8.72 11.84 10.87 14.55 30.3 5.74 43.81-7.25 12.34-22.39 18.54-36.31 15.87-16.17-2.35-28.54-17.98-28.36-34.11-.41-16.14 11.99-31.38 27.87-34.29z"/><path d="m78.66 163.63c.8-3.09 3.4-6.04 6.88-5.5 3.63 5.16 5.31 11.46 6.4 17.61.76-.03 1.53-.05 2.29-.07.77-2.63 1.57-5.24 2.42-7.84.61-.22 1.83-.66 2.45-.88.91 2.96 1.76 5.93 2.57 8.92 6.97-1.11 14.41-2.44 19.92-7.19-.67-2.35-2.85-3.75-4.49-5.4 5.26-.49 10.62-.8 15.79.61-4.64 12.48-19.73 15.03-31.38 16.4-.41 3.94-.9 7.87-1.64 11.77.86.67 1.71 1.35 2.56 2.03.02-3.19.03-6.39.15-9.58 6.27 4.25 6.99 12.67 5.95 19.54-7.07-.57-10.02-7.66-14.75-11.86-3.29-3.47-7.73-5.46-12.25-6.77 7.02-4.12 4.47-12.96 1.25-18.78-.35 5.75-.34 12.85-7.05 14.74 1.16-5.89 1.3-11.96 2.93-17.75m12.82 15.89c-.36 1.73-.73 3.45-1.1 5.18 1.48.79 2.96 1.58 4.45 2.36-.02-2.62-.05-5.24-.09-7.86-1.09.11-2.17.21-3.26.32z"/><path d="m424.41 166.58c2.78-4.15 7.52-5.61 12.32-5.59-.69 1.62-1.39 3.23-2.1 4.84 4.49 4.01 8.75 8.46 14.31 11.03 1.08-2.35 2.2-4.68 3.34-6.99 2.49 2.53 5.34 4.82 7.18 7.9 1.56 2.7-.08 7.16-3.49 7.19-2.3-.58-4.13-2.2-6.02-3.53 3.61 5.66 5.69 12.7 2.97 19.19-4.01-2.7-6.62-6.82-8.42-11.22 1.95.38 3.89.79 5.83 1.18-4.79-10.98-13.54-21.76-25.92-24m27.58 9.53c1.66.61 3.34 1.19 5.03 1.75-1.67-.61-3.35-1.19-5.03-1.75z"/><path d="m442.38 170.97c.84-3.67 3.57-6.23 6.73-8.01.31 2.36.66 4.71 1.08 7.06-2.6.39-5.21.7-7.81.95z"/><path d="m418.92 169.9c4.53 6.66 10.04 13.26 18.85 13.36-3.62-2.34-8.48-5.31-5.33-10.11 4.68 3.98 11.27 7.94 9.91 15.16-3.47-.36-6.91-.93-10.29-1.78 3.17 5.6 7.24 12.18 4.11 18.72-2.83-3.98-4.55-8.56-6.46-13.02-5.92 4.33-13.14 7.16-20.56 5.79-1.12-4.57-1.61-9.28-1.38-13.98 2.14 2.27 4.01 4.93 6.75 6.56 3.99.96 7.93-.93 11.7-2.05-4.57-5.23-11.22-11-7.3-18.65z"/><path d="m151.55 192.69c33.64 17.64 66.54 36.68 99.91 54.82 4.49 1.94 9.27 7.61 14.4 4.37 29.35-16.37 58.88-32.42 88.23-48.8 6.51-3.57 12.77-7.67 19.72-10.38.84 16.76.18 33.56.47 50.34.5 12.97-8.8 26.02-21.73 28.62-13.5 2.15-27.19 3.08-40.76 4.77-12.15.95-24.42 6.7-31.22 17.09-6.56 11.64-11.14 24.32-18.14 35.72-6.37-11.48-11.48-23.61-17.54-35.25-6.31-9.72-17.45-16.02-28.91-17.2-14.22-1.8-28.55-2.79-42.71-5-13.21-2.44-22.94-15.45-22.42-28.73.4-16.78-.81-33.64.7-50.37z"/><path d="m135.19 291.06c-5.71-23.96-1.23-50.15 11.06-71.38.41 9.06-.21 18.12.1 27.18.42 14.86 11.97 28.61 26.65 31.32 14.48 2.4 29.24 2.61 43.74 4.9 12.87 2.27 22.59 12.32 29.05 23.11 7.36 10.46 12.02 22.37 16.66 34.18 4.44-9.01 7.07-18.87 12.59-27.36 7.14-12.62 16.59-25.78 31.48-29.45 15.12-2.95 30.69-2.66 45.87-5.34 14.8-2.93 26.46-17.13 26.39-32.23.18-8.76-.54-17.56.47-26.29 12.91 23.94 17.58 53.55 8.01 79.5-3.11 8.65-8.52 17.04-17.15 20.99-24.57 12.05-52.42 13.2-79.12 15.98 2.47 18.26 16.34 32.06 25.21 47.52-12.38.81-24.8.13-37.2.45-3.97-.1-8.19.45-11.91-1.21-2.65-7.4-2.57-15.45-4.63-23.01-1.91 7.59-1.38 15.81-4.49 23.05-3.75 1.63-7.99 1.08-11.97 1.19-12.23-.31-24.49.33-36.7-.52 8.27-15.72 22.59-29.04 24.8-47.43-11.8-2.3-23.96-1.59-35.8-3.73-15.04-2.63-30.36-5.64-44.08-12.63-10.99-5.43-15.76-17.74-19.03-28.79z"/><path d="m445.54 276.81c4.61 2.37 8.36 5.97 12.53 8.99 4.31 3.31 11.86.84 13.99 6.98-5.1.19-10.52-1.23-15.33 1.05-4.29 1.96-8.51 4.1-12.97 5.65.16-1.66.33-3.32.52-4.98 3.93-1.57 7.81-3.26 11.67-4.98-4.13-3.62-10.66-6.24-10.41-12.71z"/><path d="m54.59 293.02c.48-11.83 18.3-15.56 24.77-6.49 4.31 6.03 2.17 16.22-5.86 17.64.97-4.1 3.95-7.65 4.19-11.89-1.86-10.27-21.34-7.29-19.35 3.35 1.75 4.06 7 5.28 9.02 9.36-7.02 1.02-13.71-4.74-12.77-11.97z"/><path d="m438.25 320.59c2.99-6.67 1.08-16.91 8.4-20.59-.28 2.97-.72 5.92-1.23 8.86 6.81 1.84 13.7 3.41 20.55 5.14-.07 1.37-.14 2.74-.2 4.12-7.17-1.1-14.16-3.06-21.23-4.67-.86 2.52-1.73 5.04-2.61 7.56-1.23-.15-2.46-.29-3.68-.42z"/><path d="m58.46 311.81c8.19-1.66 16.08-4.5 24.31-5.98.35 1.35.69 2.7 1.04 4.05-3.25.86-6.5 1.74-9.74 2.63.89 3.75 1.9 7.47 2.97 11.17 3.45-.79 6.9-1.57 10.36-2.29.11 1.4.21 2.8.33 4.21-8.16 2.26-16.28 4.69-24.56 6.46-.33-1.47-.65-2.93-.98-4.39 3.64-.87 7.25-1.83 10.85-2.83-.77-3.8-1.61-7.58-2.48-11.35-4.04 1.08-8.12 1.98-12.25 2.58.05-1.43.1-2.85.15-4.26z"/><path d="m437.18 322.19c8.38 2.06 16.35 5.63 24.92 6.86-.38 1.68-.75 3.35-1.13 5.03-8.05-2.13-15.95-4.76-23.84-7.38.01-1.51.03-3.01.05-4.51z"/><path d="m65.94 338.29c7.87-3.1 15.8-6.03 23.86-8.6.47 1.38.94 2.77 1.41 4.17-8.07 2.92-16.15 5.81-24.19 8.82-.36-1.47-.72-2.93-1.08-4.39z"/><path d="m430.76 347.19c-2.7-7.11 3.14-16.14 11.21-14.75-.26 1.2-.51 2.41-.76 3.63-5.98.49-9.72 7.14-4.48 11.41 3.35-3.25 6-7.18 9.57-10.2 3.91-3.18 10.49-.05 10.8 4.92 1.09 7.55-5.02 15.14-13 13.94.24-1.26.49-2.51.75-3.75 4.84-.6 10.62-4.95 8.05-10.3-4.09-4.66-7.61 2.97-10.28 5.53-2.61 4.49-9.67 4.31-11.86-.43z"/><path d="m69.34 348.71c8.03-3.55 15.79-7.73 23.99-10.9 1.89 9.1-7.27 15.17-10.46 22.91 5.6-2.64 11.17-5.33 16.87-7.73.58 1.1 1.16 2.2 1.74 3.31-7.48 4.32-15.35 7.91-23.25 11.38-.67-1.26-1.34-2.53-2.02-3.78 3.66-6.43 7.96-12.48 11.65-18.89-5.66 2.51-11.23 5.19-16.9 7.67-.54-1.32-1.08-2.65-1.62-3.97z"/><path d="m416.9 368.6c3.29-5.93 5.91-17.13 14.63-15.44 4.98 5.08 11.36 7.84 18.29 9.28-.89 1.23-1.78 2.47-2.66 3.7-2.87-.97-5.69-2.35-8.75-2.56-3.41 1.57-4.62 5.49-6.3 8.57 3.04 1.7 6.04 3.5 8.97 5.4-.73 1.16-1.46 2.33-2.18 3.49-7.42-3.99-14.67-8.28-22-12.44m5.16-2.03c2.45 1.17 4.9 2.34 7.38 3.46 1.63-3.71 6.7-9.99 1-12.5-4.95-.94-6.36 5.73-8.38 9.04z"/><path d="m80.54 371.73c9.25-2.19 18.55-4.32 27.99-5.49.18 2.21.86 4.68-.65 6.6-4.24 6.43-9.21 12.36-13.41 18.83-1.16-.45-2.32-.9-3.49-1.34 1.21-2.68 2.57-5.29 4.04-7.83-1.39-2.74-2.89-5.42-4.43-8.08-3.69.5-8.58 2.03-10.05-2.69m13.22.97c1.28 2.28 2.61 4.53 4 6.75 2.27-2.72 4.42-5.55 6.39-8.49-3.48.47-6.94 1.07-10.39 1.74z"/><path d="m404.05 385.32c3.47-4.9 7.11-9.67 10.88-14.34 1.07.47 2.15.95 3.23 1.44-2.58 4.01-5.38 7.87-8.24 11.68 1.68 1.33 3.38 2.65 5.08 3.97 2.72-3.35 5.38-6.74 8.01-10.15.88.74 1.76 1.48 2.65 2.22-2.5 3.42-5.03 6.82-7.62 10.17 1.97 1.44 3.94 2.87 5.92 4.3 2.88-3.4 5.63-6.9 8.33-10.45 1.21.39 2.43.79 3.65 1.2-3.48 5.34-7.41 10.38-11.27 15.45-7.1-4.85-13.93-10.08-20.62-15.49z"/><path d="m401.12 391.91c-1.31-2.01.71-3.77 1.58-5.46 4.99 7.73 8.88 16.1 12.84 24.39-.98 1.1-1.94 2.2-2.91 3.3-8.39-3.31-16.47-7.33-24.61-11.19.82-1.23 1.64-2.46 2.46-3.68 6.66 2.92 13.06 6.38 19.64 9.46-2.65-5.79-6.31-11.06-9-16.82z"/><path d="m108.29 409.73c-5.32-10.46 7.6-23.17 18.07-18.23 6.63 2.85 8.83 11.18 5.22 17.28-3.25-3.37-2.04-8.48-4.22-12.24-7.3-6.79-20.35 4.79-14.9 12.95 2.36 3.72 7.19 1.87 10.66 1.28.77 1.09 1.54 2.18 2.31 3.28-5.78 3.58-14.22 2.26-17.14-4.32z"/><path d="m124.46 421.55c4.98-5.88 10.11-11.64 15.28-17.35 1.02 1.15 2.05 2.31 3.07 3.47-5.81 6.48-11.5 13.06-17.25 19.59-.85-1.81-3.31-3.95-1.1-5.71z"/><path d="m382.71 406.45c1.29-.73 2.57-1.51 3.96-2.05 6.13 5.55 11.11 12.26 16.53 18.49-.94 1.05-1.88 2.11-2.81 3.18-6.21-6.25-11.8-13.07-17.68-19.62z"/><path d="m144.47 408.57c.9 1.56 2.92 2.97 2.3 4.99-1.48 6.2-4.16 12.04-5.88 18.17 5.99-4.1 11.77-8.49 17.78-12.55.98.99 1.97 1.98 2.96 2.98-6.29 4.6-12.68 9.1-19.22 13.33-2.08 1.74-4.61.55-6.83-.16 2.41-9.09 5.31-18.06 8.89-26.76z"/><path d="m376.61 412.08c1.08-.74 2.16-1.47 3.25-2.2 5.32 6.68 10.67 13.38 14.97 20.79-1.06.8-2.12 1.61-3.17 2.43-7.01-2.4-13.81-5.38-20.8-7.82 3.55 4.84 7.17 9.64 10.5 14.64-.89 1.03-1.78 2.06-2.66 3.1-5.59-6.86-10.83-14.01-15.68-21.42 8.19-4.35 15.92 3.88 23.88 5.47-3.29-5.1-6.97-9.92-10.29-14.99z"/><path d="m163.35 423.05c1.29.65 2.58 1.32 3.88 1.99-4.1 7.48-8.87 14.56-13.48 21.73-1.25-.64-2.51-1.28-3.76-1.91 4.18-7.44 8.86-14.57 13.36-21.81z"/><path d="m356.15 426.14c1.24-.69 2.49-1.37 3.74-2.05 3.1 5.69 6.93 11.07 9.06 17.23 3 9.52-12.61 17.34-18.32 9.07-3.63-5.1-6.1-10.89-9.24-16.28 1.25-.69 2.49-1.38 3.75-2.07 3.38 5.05 5.63 10.79 9.32 15.62 3.35 4.72 11.99.18 10.01-5.24-2-5.79-5.74-10.76-8.32-16.28z"/><path d="m170.56 428.15c1.49.31 2.97.64 4.45.97-2.8 6.8-6.58 13.13-9.78 19.75 3.66 2.03 7.31 4.09 10.92 6.21-.35 1.19-.69 2.39-1.04 3.59-5.26-2.68-10.5-5.41-15.74-8.13 3.65-7.5 7.51-14.9 11.19-22.39z"/><path d="m315.1 445.1c4.41-5.25 15.27-5.95 17.25 1.95-5.31-1.01-15.27-4.56-14.54 4.52 4.64.33 9.33-.03 13.94.67 4.5.71 6.48 6.82 3.93 10.37-4.46 6.65-16.23 7.64-19.87-.38 1.21-.55 2.43-1.08 3.65-1.6 3.57 4.79 14.32 4.4 12.67-3.25-4.96-2.72-11.12.17-16.18-2.28-3.23-2.17-3.44-7.25-.85-10z"/><path d="m186.95 463.84c5.25-7.62 11.21-14.7 17.17-21.77 1.42.49 2.85.97 4.28 1.46.95 9.09 1.06 18.23 1.41 27.35-1.35-.2-2.7-.4-4.05-.58-.34-2.69-.67-5.37-1.01-8.04-3.06-1-6.13-1.96-9.22-2.89-1.52 1.81-3.05 3.61-4.58 5.41-1.34-.32-2.67-.63-4-.94m10.99-7.63c2.32.89 4.64 1.76 6.96 2.64-.01-3.97-.05-7.94-.13-11.9-2.31 3.06-4.59 6.14-6.83 9.26z"/><path d="m219.19 447.04c5.76.69 11.46 1.79 17.13 3.06-.16 1.26-.32 2.54-.47 3.81-4.32-.8-8.62-1.64-12.92-2.54-.53 2.15-1.07 4.3-1.61 6.45 3.81.81 7.63 1.64 11.44 2.49 0 1.11.01 2.22.03 3.34-4.07-.58-8.14-1.11-12.23-1.48-.6 3.55-1.23 7.1-1.84 10.65-1.41-.31-2.82-.62-4.22-.92 1.15-8.36 2.9-16.62 4.69-24.86z"/><path d="m289.03 450.21c5.8-1.05 11.72-3.36 17.67-2.16 3.68 1.01 3.75 5.21 3.53 8.32-.46 5.53 2.88 10.3 4.65 15.32-1.52.05-3.03.12-4.54.19-1.15-2.93-2.04-6.04-3.91-8.61-3.4-.99-6.91.25-10.27.83.65 3.57 1.26 7.14 1.8 10.72-1.51-.02-3.01-.05-4.52-.06-1.56-8.17-3.48-16.28-4.41-24.55m5.22 2.43c.28 2.76.6 5.52.95 8.27 3.82-.77 7.59-1.79 11.27-3.08-.63-2.06-.3-4.78-2.2-6.19-3.37-.55-6.72.47-10.02 1z"/><path d="m238.51 450.27c5.77.43 11.52.95 17.29 1.31.08 1.24.16 2.48.25 3.73-4.58-.02-9.15-.11-13.72-.08-.01 2.06-.01 4.13-.03 6.21 3.82.26 7.63.57 11.45.9-.02 1.12-.04 2.25-.05 3.39-4.04-.15-8.09-.34-12.14-.5-.2 3.58-.45 7.16-.73 10.75-1.54-.07-3.08-.13-4.61-.19.67-8.51 1.54-17.01 2.29-25.52z"/><path d="m280.07 450.93c1.36-.06 2.72-.11 4.08-.16 1.24 8.3 2.02 16.67 2.73 25.04-1.33.39-2.66.78-3.99 1.19-1.4-8.63-2.17-17.35-2.82-26.07z"/><path d="m264.11 451.14c2.02.74 4.71.96 5.43 3.38 3.06 7.51 6.45 14.93 8.67 22.75-1.45-.2-2.9-.4-4.34-.6-1.16-6.45-7.06-6.8-12.45-5.69-.95 2.21-1.91 4.42-2.88 6.63-1.43.05-2.86.11-4.29.18 3.27-8.89 6.23-17.9 9.86-26.65m-1.82 16.66c2.54-.3 5.08-.59 7.62-.88-1.15-3.66-2.37-7.3-3.63-10.92-1.48 3.88-2.8 7.82-3.99 11.8z"/></g><path d="m206.26 82.32c.5.5.5.5 0 0z" fill="#93c1cf"/></svg>