<?xml version="1.0" encoding="utf-8"?>
<!-- Generator: Adobe Illustrator 16.0.0, SVG Export Plug-In . SVG Version: 6.00 Build 0)  -->
<!DOCTYPE svg PUBLIC "-//W3C//DTD SVG 1.1//EN" "http://www.w3.org/Graphics/SVG/1.1/DTD/svg11.dtd">
<svg version="1.1" id="圖層_1" xmlns="http://www.w3.org/2000/svg" xmlns:xlink="http://www.w3.org/1999/xlink" x="0px" y="0px"
	 width="209.223px" height="200px" viewBox="0 0 209.223 200" enable-background="new 0 0 209.223 200" xml:space="preserve">
<path d="M10.37,166.334v-7.806H5.614l-3.376,0.087v-4.257l3.498,0.087h4.635v-3.584l-0.124-4.567h4.499l-0.119,4.602V172.9
	l0.119,4.53h-4.499l0.124-4.322v-2.587c-1.953,1.013-4.377,1.993-7.272,2.947c-0.102-0.507-0.23-1.054-0.379-1.639
	c-0.15-0.585-0.352-1.183-0.603-1.794l-0.466-1.153C4.753,168.416,7.657,167.565,10.37,166.334 M22.982,146.329l-0.119,4.567v7.702
	c2.698-1.794,4.849-3.943,6.459-6.462c1.114,1.217,2.246,2.275,3.394,3.172c-1.068,1.365-2.362,2.713-3.885,4.048
	c-1.521,1.331-3.513,2.722-5.968,4.17v7.377c0,0.836,0.136,1.404,0.411,1.694c0.275,0.294,1.155,0.424,2.638,0.39
	c0.516,0,0.927-0.057,1.231-0.164c0.303-0.113,0.569-0.305,0.802-0.576c0.228-0.278,0.446-0.838,0.646-1.675
	c0.199-0.84,0.323-1.499,0.371-1.979l0.121-1.274c0.505,0.194,0.948,0.351,1.335,0.473c0.386,0.121,1.345,0.32,2.886,0.594
	c-0.048,0.355-0.089,0.701-0.13,1.036c-0.039,0.329-0.162,0.939-0.37,1.824c-0.206,0.884-0.436,1.707-0.689,2.475
	c-0.253,0.764-0.637,1.439-1.155,2.024c-0.516,0.585-1.263,0.971-2.241,1.162c-0.975,0.189-2.267,0.255-3.875,0.198
	c-1.576-0.047-2.884-0.198-3.929-0.455c-1.049-0.26-1.708-0.719-1.983-1.378c-0.275-0.663-0.412-1.326-0.412-1.994v-22.328
	l-0.121-4.62H22.982z"/>
<path d="M45.142,159.486h13.68v3.584h-13.68V159.486z M58.84,166.816l4.291,0.116l-0.085-2.825v-6.186l0.085-2.259l-4.291,0.123
	H44.864l-4.185-0.123l0.053,2.034v7.03l-0.053,2.205l4.222-0.116h5.032v6.613c0,0.264-0.069,0.463-0.2,0.603
	c-0.13,0.139-0.359,0.22-0.678,0.242c-0.346,0.035-1.103-0.018-2.275-0.156l0.327,1.122c0.158,0.552,0.275,1.11,0.345,1.679
	c0.069,0.567,0.125,1.127,0.171,1.681l1.602,0.031c1.172,0.06,2.275-0.17,3.309-0.686c0.724-0.36,1.174-0.737,1.352-1.14
	c0.18-0.403,0.268-0.893,0.268-1.478v-8.512H58.84z M39.25,178.392c3.651-2.575,6.776-5.413,9.374-8.513
	c-1.185-0.803-1.956-1.356-2.318-1.655c-0.362-0.295-0.795-0.689-1.3-1.17l-0.672,1c-0.587,0.872-1.58,1.959-2.976,3.265
	c-1.395,1.305-2.966,2.439-4.71,3.402C37.658,175.986,38.526,177.208,39.25,178.392 M59.899,174.17
	c0.971,1.001,2.26,2.404,3.871,4.222l1.049-1.188l1.244-1.43c0.147-0.175,0.384-0.433,0.704-0.776
	c-1.655-1.712-3.218-3.264-4.687-4.654c-1.469-1.388-2.505-2.376-3.101-2.96l-0.843,0.758c-0.184,0.161-1.005,0.794-2.464,1.895
	C57.52,171.791,58.929,173.168,59.899,174.17 M49.76,148.833c0.206,0.408,0.424,0.871,0.654,1.388h-9.286l-4.206-0.122v4.117
	l4.206-0.139H62.58l4.462,0.139v-4.117l-4.514,0.122h-9.132c0.526-0.313,1.094-0.634,1.705-0.967l-0.411-0.794
	c-0.232-0.438-0.962-1.505-2.191-3.203c-0.838,0.364-2.204,0.858-4.098,1.466C49.1,147.719,49.554,148.425,49.76,148.833"/>
<path d="M76.904,154.273h6.375v3.943h-6.375V154.273z M72.787,153.325v13.178l-0.106,3.516h4.223v-0.516h6.375v4.98
	c0,0.779,0.077,1.408,0.232,1.876c0.156,0.472,0.55,0.897,1.182,1.278c0.632,0.378,1.599,0.567,2.897,0.576
	c1.293,0.005,2.971,0.031,5.03,0.079c2.137,0.068,3.72,0.073,4.757,0.016c1.033-0.055,1.807-0.19,2.325-0.396
	c0.515-0.205,0.992-0.561,1.436-1.059c0.444-0.503,1.003-1.92,1.68-4.265c-1.181-0.403-2.533-1.07-4.046-1.999l-0.188,1.34
	c-0.117,0.889-0.388,1.5-0.813,1.847c-0.425,0.346-0.977,0.555-1.656,0.629c-0.676,0.078-1.803,0.09-3.376,0.043l-3.671-0.087
	c-0.791-0.034-1.281-0.169-1.463-0.412c-0.184-0.242-0.277-0.511-0.277-0.811v-3.636h7.274v0.638h4.202l-0.104-3.377v-13.438
	l0.104-3.018l-2.703,0.121h-8.774V148.5l0.089-2.726h-4.224l0.086,2.726v1.929h-7.441l-3.157-0.121L72.787,153.325z M76.904,161.87
	h6.375v3.875h-6.375V161.87z M87.328,154.273H94.6v3.943h-7.272V154.273z M87.328,161.87H94.6v3.875h-7.272V161.87z"/>
<path d="M119.025,167.787h-7.409v-1.293h7.409V167.787z M105.086,174.556l0.757,0.828c0.447,0.48,0.955,1.252,1.52,2.31
	c1.546-1.301,2.638-2.275,3.271-2.93c0.631-0.654,1.302-1.399,2.015-2.242c-0.724-0.458-1.243-0.822-1.56-1.092
	c-0.314-0.272-0.661-0.606-1.04-1.009h3.532v3.034c0,0.537-0.042,0.849-0.122,0.94c-0.079,0.082-0.246,0.125-0.5,0.125
	c-0.149,0.013-0.672-0.086-1.569-0.289l0.434,1.152c0.229,0.597,0.384,1.126,0.464,1.585c0.08,0.461,0.145,0.898,0.19,1.311
	c2.894-0.188,4.442-0.499,4.642-0.942c0.202-0.44,0.304-0.927,0.304-1.455v-5.461h3.495l1.777,0.122l-0.087-1.896v-2.896
	l0.087-2.054l-1.862,0.086h-10.579l-2.308-0.086l0.068,1.777v3.086l-0.068,1.946l1.686-0.087l-0.773,1.117
	c-0.287,0.43-0.749,0.911-1.387,1.453C106.835,173.528,106.038,174.049,105.086,174.556 M105.706,162.702l3.532-0.121h13.062
	l2.929,0.121v-3.618l-2.964,0.121h-5.443c0.217-0.195,0.446-0.395,0.687-0.589c-0.355-0.286-0.675-0.586-0.964-0.893h3.964
	l2.274,0.086l-0.086-2.275v-6.323l0.086-2.496l-2.274,0.087h-10.458l-2.604-0.087l0.067,2.427v6.393l-0.067,2.275l2.604-0.086h3.168
	l-0.981,0.498c0.355,0.299,0.694,0.629,1.016,0.983h-4.014l-3.532-0.121V162.702z M111.152,153.761h8.046l0.018,1.066h-8.083
	L111.152,153.761z M111.132,150.016h8.083v1.192h-8.083V150.016z M117.837,172.592l1.188,1.02c0.184,0.168,0.562,0.585,1.13,1.239
	c0.566,0.653,1.111,1.368,1.628,2.153c0.849-1.023,1.672-1.95,2.462-2.772c-1.688-1.622-2.968-2.866-3.84-3.724l-0.482,0.532
	C119.647,171.353,118.951,171.87,117.837,172.592 M123.627,174.938l0.997,0.979c0.413,0.403,0.994,1.256,1.74,2.565l2.81-2.22
	c0.412-0.299,1.466-1.313,3.163-3.033c1.691-1.721,3.366-3.663,5.022-5.825l-0.657-0.446c-0.458-0.299-1.297-1.14-2.515-2.519
	c-0.783,1.301-2.111,3.077-3.987,5.336C128.319,172.033,126.13,173.75,123.627,174.938 M123.866,154.138l1.225,1.032
	c0.574,0.473,1.172,1.227,1.792,2.261c1.803-1.598,3.32-3.076,4.548-4.429c1.229-1.356,2.461-2.816,3.688-4.377l-1.05-0.642
	c-0.324-0.169-1.18-0.841-2.569-2.011c-0.438,0.835-0.813,1.49-1.128,1.962c-0.316,0.47-0.838,1.128-1.567,1.973
	c-0.73,0.846-1.448,1.582-2.156,2.215C125.945,152.755,125.017,153.427,123.866,154.138 M124.245,164.081l1.19,1.053
	c0.369,0.321,1.016,1.118,1.947,2.393c2.733-2.448,4.81-4.494,6.23-6.141c1.418-1.652,2.206-2.558,2.367-2.723
	c0.162-0.169,0.383-0.398,0.672-0.701c-0.896-0.655-1.546-1.166-1.948-1.539c-0.4-0.374-0.856-0.837-1.359-1.387l-1.154,1.789
	c-0.229,0.36-0.817,1.063-1.758,2.111c-0.942,1.053-1.889,1.993-2.835,2.826C126.648,162.594,125.533,163.371,124.245,164.081"/>
<path d="M158.246,163.837c-0.644,0.668-1.321,1.3-2.033,1.898c-0.747-0.716-1.492-1.348-2.24-1.898H158.246z M144.273,170.386
	h10.701l0.344,0.707c0.137,0.251,0.206,0.724,0.206,1.412c-0.011,0.46-0.114,0.915-0.312,1.361
	c-0.195,0.446-0.712,0.689-1.548,0.725c-0.231,0.013-0.596,0-1.097-0.035c-0.5-0.035-1.146-0.07-1.938-0.104l0.638,1.413
	c0.184,0.381,0.32,0.784,0.413,1.213c0.092,0.435,0.183,0.938,0.275,1.513c1.091,0.044,2.022,0.035,2.791-0.021
	c0.77-0.057,1.646-0.276,2.629-0.662c0.979-0.386,1.621-0.992,1.919-1.826c0.301-0.832,0.433-1.638,0.397-2.414
	c-0.032-0.775-0.077-1.356-0.128-1.746c-0.054-0.391-0.137-0.901-0.252-1.534h8.427l3.81,0.122v-4.083l-3.637,0.139h-7.029
	c1.941-1.564,3.115-2.584,3.523-3.06c0.405-0.478,0.721-0.858,0.938-1.148l-1.379-2.138h-13.592l-3.501-0.133v3.874l3.535-0.122
	h3.358c-0.756,0.677-1.659,1.321-2.704,1.933c0.331,0.252,0.624,0.517,0.878,0.794h-7.615l-3.724-0.139v4.083L144.273,170.386z
	 M141.308,162.632h4.309l-0.087-2.466v-1.568h21.28v1.365l-0.087,2.809h4.311l-0.069-2.397v-3.172l0.069-2.479l-4.018,0.122h-2.583
	l0.706-1.054c0.24-0.343,0.678-1.104,1.317-2.289c0.637-1.183,1.076-2.028,1.318-2.535c0.242-0.502,0.517-1.101,0.827-1.79
	c-1.551-0.416-3.056-0.949-4.517-1.603l-0.654,2.067c-0.136,0.424-0.41,1.065-0.817,1.924c-0.407,0.854-0.775,1.53-1.103,2.032
	c-0.327,0.498-0.767,1.106-1.317,1.816c1.047,0.507,1.896,0.983,2.551,1.431h-14.888c1.091-0.851,2.28-1.64,3.564-2.363
	l-0.877-1.547c-0.734-1.3-1.891-3.009-3.463-5.118l-0.88,0.793c-0.217,0.203-1.132,0.74-2.74,1.6l1.188,1.446
	c0.978,1.171,1.978,2.9,2.999,5.189h-2.551l-3.79-0.122l0.087,2.31v2.81L141.308,162.632z M152.027,146.524
	c0.769,1.442,1.317,2.587,1.645,3.428c0.327,0.837,0.566,1.533,0.717,2.084c0.147,0.551,0.314,1.201,0.498,1.946
	c1.146-0.537,2.568-1.062,4.257-1.564l-0.811-2.142c-0.299-0.759-1.058-2.561-2.273-5.409
	C154.783,145.557,153.439,146.107,152.027,146.524"/>
<path d="M186.736,178.512c-0.127-0.272-0.269-0.572-0.421-0.888c-0.155-0.315-0.693-1.244-1.612-2.782
	c2.458-0.469,4.161-1.332,5.107-2.583c0.95-1.253,1.45-2.822,1.509-4.707l0.087-2.012l-4.017,0.083v-3.792l4.017,0.086h11.439
	l3.12-0.086v3.792l-3.12-0.083h-2.224v7.39c0,0.391,0.028,0.638,0.079,0.75c0.051,0.108,0.168,0.194,0.354,0.252
	c0.123,0.044,0.366,0.039,0.724-0.018c0.355-0.061,0.598-0.135,0.73-0.226s0.249-0.313,0.354-0.654
	c0.103-0.348,0.189-0.797,0.257-1.361l0.086-0.81c1.174,0.563,2.51,1.027,4.019,1.396c-0.141,0.688-0.321,1.499-0.544,2.427
	c-0.226,0.931-0.552,1.646-0.984,2.149c-0.429,0.498-0.999,0.824-1.703,0.971c-0.709,0.151-1.591,0.23-2.647,0.243
	c-1.342,0.021-2.315-0.069-2.911-0.277c-0.599-0.205-1.018-0.498-1.267-0.871c-0.248-0.373-0.368-0.897-0.368-1.577v-9.783h-1.588
	c-0.021,1.032-0.071,2.185-0.146,3.455c-0.076,1.27-0.438,2.569-1.087,3.908s-1.606,2.445-2.877,3.315
	C189.834,177.091,188.377,177.859,186.736,178.512 M186.686,150.03l2.928,0.087h5.031c-0.587-0.871-1.179-1.743-1.776-2.618
	c1.335-0.737,2.39-1.396,3.173-1.98c1.26,1.643,1.941,2.518,2.031,2.635l0.846,1.205l-1.103,0.759h4.995l3.257-0.087l-0.103,2.223
	v3.051l0.103,2.688h-3.995l0.083-2.311v-1.979H190.63v1.824l0.084,2.379h-4.028l0.082-2.461v-2.809L186.686,150.03z
	 M191.406,155.854l2.791,0.069h4.878l2.393-0.069v3.672l-2.311-0.087h-4.84l-2.911,0.087V155.854z M179.758,168.088
	c0.631,0,1.228-0.072,1.79-0.216c0.563-0.144,1.101-0.646,1.608-1.509c0.513-0.861,0.378-2.001-0.402-3.428
	c-0.264-0.46-1.148-1.448-2.654-2.965v-1.858c0.598-1.934,0.945-3.095,1.036-3.498l0.809-3.671h-2.463v23.108l0.12,4.031h-3.809
	l0.104-3.982V151.03l-0.104-3.722l3.359,0.086h6.36l1.223,1.482l-3.171,9.525c1.171,1.21,1.964,2.168,2.38,2.879
	c0.411,0.715,0.802,1.659,1.17,2.844c0.366,1.188,0.286,2.587-0.241,4.208c-0.527,1.616-2.352,2.859-5.465,3.718
	c-0.146-0.438-0.303-0.888-0.464-1.352C180.786,170.235,180.389,169.364,179.758,168.088"/>
<path fill="#EB1C24" d="M7.752,185.994c0.162,0.052,0.295,0.177,0.394,0.368c0.104,0.199,0.152,0.542,0.152,1.04
	c0,0.919-0.063,1.478-0.184,1.673c-0.122,0.199-0.405,0.299-0.852,0.299c-0.108,0-0.26,0.004-0.456,0.009v-3.467
	C7.276,185.916,7.589,185.941,7.752,185.994 M2.331,198.887h5.192c1.802,0,2.997-0.091,3.577-0.277
	c0.585-0.186,1.008-0.533,1.274-1.044c0.266-0.512,0.399-1.292,0.399-2.35v-1.447c0-1.023-0.184-1.777-0.553-2.271
	s-1.07-0.845-2.107-1.057c0.928-0.196,1.547-0.473,1.864-0.833c0.314-0.363,0.472-1.001,0.472-1.92c0-1.356-0.226-2.345-0.669-2.952
	c-0.448-0.611-1.038-1.018-1.764-1.217c-0.728-0.194-1.798-0.3-3.211-0.3H2.331V198.887z M8.06,192.061
	c0.158,0.143,0.238,0.551,0.238,1.223v1.465c0,0.642-0.089,1.044-0.264,1.204c-0.178,0.162-0.585,0.252-1.227,0.273v-4.411
	C7.483,191.84,7.901,191.922,8.06,192.061"/>
<polygon points="14.608,183.219 22.1,183.219 22.1,186.367 19.084,186.367 19.084,189.318 21.905,189.318 21.905,192.304 
	19.084,192.304 19.084,195.741 22.393,195.741 22.393,198.887 14.608,198.887 "/>
<rect x="23.901" y="183.219" width="4.476" height="15.668"/>
<path d="M35.889,183.219v10.471c0,1.57-0.017,2.575-0.054,3.03c-0.037,0.45-0.2,0.854-0.49,1.214
	c-0.291,0.354-0.681,0.606-1.177,0.745c-0.492,0.139-1.235,0.208-2.228,0.208h-2.245v-2.727c0.271,0.021,0.468,0.035,0.589,0.035
	c0.323,0,0.577-0.074,0.763-0.217c0.186-0.139,0.294-0.313,0.323-0.52c0.025-0.204,0.043-0.607,0.043-1.205v-11.035H35.889z"/>
<rect x="37.856" y="183.219" width="4.475" height="15.668"/>
<polygon points="54.352,183.219 54.352,198.887 50.459,198.887 48.126,191.762 48.126,198.887 44.364,198.887 44.364,183.219 
	48.061,183.219 50.592,190.271 50.592,183.219 "/>
<path d="M66.687,188.962h-4.478v-1.422c0-0.893-0.041-1.452-0.128-1.678c-0.086-0.225-0.288-0.338-0.613-0.338
	c-0.277,0-0.468,0.096-0.567,0.286c-0.1,0.191-0.15,0.689-0.15,1.491v7.532c0,0.702,0.05,1.167,0.15,1.388
	c0.098,0.221,0.299,0.329,0.598,0.329c0.326,0,0.549-0.126,0.666-0.382c0.117-0.251,0.178-0.745,0.178-1.474v-1.876h-0.91v-2.366
	h5.255v8.434h-2.813l-0.414-1.118c-0.306,0.48-0.691,0.846-1.155,1.083c-0.468,0.238-1.014,0.355-1.647,0.355
	c-0.754,0-1.461-0.164-2.117-0.493c-0.657-0.33-1.157-0.741-1.498-1.231c-0.342-0.49-0.552-1.005-0.639-1.548
	c-0.084-0.537-0.128-1.348-0.128-2.426v-4.664c0-1.499,0.086-2.588,0.265-3.269c0.178-0.68,0.687-1.299,1.53-1.863
	c0.84-0.568,1.928-0.85,3.261-0.85c1.313,0,2.403,0.247,3.268,0.732c0.866,0.494,1.43,1.076,1.692,1.747
	c0.264,0.677,0.395,1.652,0.395,2.938V188.962z"/>
<polygon fill="#EB1C24" points="76.795,183.219 84.385,183.219 84.385,186.367 81.271,186.367 81.271,189.318 84.027,189.318 
	84.027,192.304 81.271,192.304 81.271,198.887 76.795,198.887 "/>
<rect x="85.7" y="183.219" width="4.478" height="15.668"/>
<polygon points="96.687,183.219 96.687,195.741 99.411,195.741 99.411,198.887 92.21,198.887 92.21,183.219 "/>
<path d="M114.552,183.219v15.668h-3.925l-0.018-10.575l-1.54,10.575h-2.757l-1.637-10.35l-0.019,10.35h-3.923v-15.668h5.797
	c0.171,0.932,0.345,2.038,0.526,3.316l0.633,4.004l1.03-7.32H114.552z"/>
<path fill="#EB1C24" d="M128.566,193.275c0.133-1.37,0.414-3.563,0.841-6.584c0.249,2.623,0.477,4.815,0.681,6.584H128.566z
	 M125.997,183.219l-2.296,15.668h4.646l0.247-2.821h1.63l0.247,2.821h4.563l-2.567-15.668H125.997z"/>
<path d="M146.52,189.998h-4.475v-2.709c0-0.788-0.05-1.281-0.148-1.473c-0.095-0.195-0.31-0.291-0.641-0.291
	c-0.375,0-0.615,0.118-0.716,0.355c-0.099,0.238-0.149,0.754-0.149,1.552v7.286c0,0.763,0.051,1.257,0.149,1.486
	c0.101,0.229,0.33,0.347,0.683,0.347c0.339,0,0.56-0.117,0.663-0.352c0.104-0.229,0.159-0.78,0.159-1.646v-1.988h4.475v0.618
	c0,1.63-0.126,2.787-0.378,3.468c-0.253,0.685-0.81,1.283-1.672,1.794c-0.867,0.513-1.929,0.768-3.194,0.768
	c-1.313,0-2.399-0.217-3.252-0.646c-0.851-0.43-1.416-1.032-1.693-1.8c-0.277-0.766-0.416-1.919-0.416-3.454v-4.584
	c0-1.133,0.043-1.977,0.128-2.541c0.087-0.567,0.338-1.113,0.763-1.638c0.422-0.524,1.009-0.941,1.76-1.234
	c0.748-0.3,1.607-0.452,2.583-0.452c1.321,0,2.412,0.234,3.271,0.698c0.86,0.459,1.427,1.035,1.696,1.725s0.404,1.769,0.404,3.229
	V189.998z"/>
<path d="M152.182,193.275c0.131-1.37,0.412-3.563,0.841-6.584c0.249,2.623,0.475,4.815,0.678,6.584H152.182z M149.611,183.219
	l-2.296,15.668h4.646l0.248-2.821h1.632l0.244,2.821h4.567l-2.57-15.668H149.611z"/>
<path d="M165.143,186.053c0.18,0.092,0.296,0.238,0.345,0.435c0.05,0.198,0.074,0.654,0.074,1.365v6.094
	c0,1.044-0.074,1.686-0.225,1.925c-0.15,0.237-0.552,0.354-1.201,0.354v-10.311C164.627,185.916,164.965,185.958,165.143,186.053
	 M159.661,198.887h5.651c1.071,0,1.873-0.052,2.405-0.156c0.531-0.104,0.979-0.289,1.342-0.559c0.361-0.27,0.615-0.642,0.761-1.118
	c0.146-0.478,0.219-1.413,0.219-2.822v-5.485c0-1.483-0.052-2.476-0.149-2.987c-0.101-0.502-0.349-0.962-0.745-1.378
	c-0.396-0.408-0.978-0.706-1.739-0.889c-0.764-0.177-2.229-0.27-4.393-0.27h-3.352V198.887z"/>
<polygon points="171.948,183.219 179.439,183.219 179.439,186.367 176.422,186.367 176.422,189.318 179.244,189.318 
	179.244,192.304 176.422,192.304 176.422,195.741 179.732,195.741 179.732,198.887 171.948,198.887 "/>
<path d="M195.055,183.219v15.668h-3.925l-0.018-10.575l-1.539,10.575h-2.756l-1.638-10.35l-0.018,10.35h-3.925v-15.668h5.797
	c0.171,0.932,0.346,2.038,0.527,3.316l0.635,4.004l1.028-7.32H195.055z"/>
<path d="M206.644,183.219l-3.276,10.003v5.665h-4.15v-5.665l-3.147-10.003h4.111c0.62,3.081,0.982,5.145,1.091,6.198
	c0.267-1.673,0.685-3.741,1.261-6.198H206.644z"/>
<path d="M104.411,0.788L104.411,0.788H44.105L0.824,137.536h57.61l40.719-28.345c1.292-0.793,2.166-2.215,2.166-3.837
	c0-1.7-0.938-3.165-2.317-3.937L35.655,57.125c-0.017-0.004-0.039-0.021-0.056-0.032l-0.106-0.067l0.006-0.018
	c-0.956-0.705-1.587-1.829-1.587-3.114c0-1.885,1.353-3.451,3.142-3.803c0.181-0.039,0.365-0.067,0.554-0.067h0.057h0.122H81.33
	c0,0,2.713,0.057,4.082-1.097c1.673-1.409,1.953-2.857,1.953-2.857l13.434-42.649l0.015-0.005
	C101.329,1.9,102.733,0.815,104.411,0.788 M20.672,125.411l-1.229,3.871c-0.202,0.637-0.89,1.15-1.527,1.15h-6.337
	c-0.631,0-0.989-0.514-0.788-1.15l1.23-3.871c0.201-0.639,0.89-1.152,1.521-1.152h6.331
	C20.516,124.258,20.874,124.772,20.672,125.411 M25.348,110.69l-1.229,3.871c-0.202,0.627-0.89,1.152-1.528,1.152h-6.325
	c-0.644,0-0.995-0.525-0.789-1.152l1.224-3.871c0.202-0.637,0.879-1.152,1.522-1.152h6.331
	C25.196,109.538,25.549,110.053,25.348,110.69 M30.023,95.97l-1.225,3.858c-0.207,0.65-0.89,1.153-1.532,1.153H20.94
	c-0.643,0-0.995-0.503-0.794-1.153l1.224-3.858c0.202-0.638,0.89-1.162,1.533-1.162h6.325C29.872,94.808,30.224,95.333,30.023,95.97
	 M34.698,81.25l-1.224,3.86c-0.202,0.638-0.89,1.15-1.527,1.15h-6.332c-0.643,0-0.995-0.513-0.789-1.15l1.226-3.86
	c0.206-0.649,0.883-1.163,1.526-1.163h6.332C34.542,80.087,34.905,80.601,34.698,81.25 M38.58,65.365
	c0.644,0,1.001,0.52,0.801,1.157l-1.226,3.853c-0.207,0.646-0.895,1.166-1.533,1.166h-6.331c-0.637,0-0.996-0.521-0.789-1.166
	l1.226-3.853c0.201-0.637,0.883-1.157,1.527-1.157H38.58z M48.731,37.078l-1.226,3.853c-0.201,0.644-0.888,1.164-1.532,1.164h-6.326
	c-0.642,0-0.995-0.52-0.788-1.164l1.225-3.853c0.196-0.649,0.878-1.164,1.521-1.164h6.331
	C48.574,35.914,48.938,36.429,48.731,37.078 M53.411,22.352l-1.23,3.854c-0.195,0.644-0.888,1.164-1.532,1.164h-6.326
	c-0.637,0-0.995-0.52-0.794-1.164l1.23-3.854c0.202-0.643,0.883-1.164,1.527-1.164h6.325C53.254,21.188,53.607,21.709,53.411,22.352
	 M58.082,7.626l-1.227,3.865c-0.2,0.638-0.888,1.152-1.526,1.152h-6.331c-0.648,0-0.995-0.514-0.788-1.152l1.229-3.865
	c0.202-0.632,0.884-1.157,1.521-1.157h6.331C57.93,6.469,58.289,6.995,58.082,7.626"/>
<path fill="#EB1C24" d="M164.862,0.788h-60.36c1.721,0.016,3.163,1.162,3.645,2.723h0.028l13.551,42.583
	c0,0,0.979,2.371,2.164,3.087c1.685,1.012,3.981,0.844,3.981,0.844h43.714h0.004c0.006,0,0.013,0.005,0.013,0.005
	c0.011,0,0.018-0.005,0.021-0.005c2.137,0,3.875,1.733,3.875,3.87c0,1.302-0.648,2.444-1.621,3.149l-0.011,0.004
	c-0.08,0.052-0.158,0.095-0.23,0.147l-35.512,24.782c0,0-1.824,1.086-2.534,3.099c-0.839,2.396-0.194,3.994-0.194,3.994
	l15.479,48.466h57.525L164.862,0.788z M151.886,11.491l-1.219-3.865c-0.208-0.632,0.145-1.157,0.782-1.157h6.33
	c0.649,0,1.326,0.525,1.533,1.157l1.225,3.865c0.202,0.638-0.15,1.152-0.788,1.152h-6.337
	C152.773,12.643,152.089,12.129,151.886,11.491 M156.558,26.206l-1.227-3.854c-0.202-0.643,0.155-1.164,0.792-1.164h6.333
	c0.644,0,1.325,0.521,1.524,1.164l1.227,3.854c0.2,0.644-0.154,1.164-0.792,1.164h-6.328
	C157.446,27.369,156.757,26.849,156.558,26.206 M169.083,42.094h-6.33c-0.639,0-1.326-0.52-1.527-1.158l-1.218-3.859
	c-0.209-0.649,0.15-1.157,0.792-1.157h6.333c0.631,0,1.313,0.508,1.521,1.157l1.218,3.859
	C170.084,41.574,169.727,42.094,169.083,42.094 M170.572,70.375l-1.23-3.847c-0.197-0.644,0.166-1.164,0.795-1.164h6.33
	c0.638,0,1.319,0.52,1.527,1.164l1.219,3.847c0.208,0.646-0.146,1.17-0.789,1.17h-6.331
	C171.455,71.545,170.766,71.021,170.572,70.375 M175.242,85.111l-1.23-3.86c-0.196-0.636,0.156-1.163,0.799-1.163h6.326
	c0.641,0,1.326,0.527,1.531,1.163l1.221,3.86c0.199,0.638-0.151,1.15-0.802,1.15h-6.32
	C176.126,86.261,175.432,85.749,175.242,85.111 M179.91,99.829l-1.223-3.858c-0.204-0.638,0.15-1.162,0.788-1.162h6.331
	c0.647,0,1.324,0.524,1.528,1.162l1.222,3.858c0.208,0.65-0.149,1.153-0.794,1.153h-6.325
	C180.8,100.982,180.113,100.479,179.91,99.829 M184.582,114.561l-1.231-3.871c-0.201-0.637,0.156-1.152,0.8-1.152h6.325
	c0.643,0,1.327,0.516,1.527,1.152l1.23,3.871c0.194,0.627-0.152,1.152-0.79,1.152h-6.336
	C185.465,115.713,184.781,115.188,184.582,114.561 M197.107,130.432h-6.329c-0.638,0-1.325-0.514-1.532-1.15l-1.225-3.86
	c-0.202-0.649,0.155-1.163,0.799-1.163h6.332c0.638,0,1.324,0.514,1.521,1.163l1.223,3.86
	C198.104,129.918,197.747,130.432,197.107,130.432"/>
</svg>
