<?xml version="1.0" encoding="UTF-8" standalone="no"?>
<svg
   xmlns:dc="http://purl.org/dc/elements/1.1/"
   xmlns:cc="http://creativecommons.org/ns#"
   xmlns:rdf="http://www.w3.org/1999/02/22-rdf-syntax-ns#"
   xmlns:svg="http://www.w3.org/2000/svg"
   xmlns="http://www.w3.org/2000/svg"
   viewBox="0 0 216 266.66666"
   height="266.66666"
   width="216"
   xml:space="preserve"
   id="svg2"
   version="1.1"><metadata
     id="metadata8"><rdf:RDF><cc:Work
         rdf:about=""><dc:format>image/svg+xml</dc:format><dc:type
           rdf:resource="http://purl.org/dc/dcmitype/StillImage" /></cc:Work></rdf:RDF></metadata><defs
     id="defs6"><clipPath
       id="clipPath18"
       clipPathUnits="userSpaceOnUse"><path
         id="path16"
         d="M 0,200 H 162 V 0 H 0 Z" /></clipPath></defs><g
     transform="matrix(1.3333333,0,0,-1.3333333,0,266.66667)"
     id="g10"><g
       id="g12"><g
         clip-path="url(#clipPath18)"
         id="g14"><g
           transform="translate(1.5348,176.0874)"
           id="g20"><path
             id="path22"
             style="fill:#ffffff;fill-opacity:1;fill-rule:nonzero;stroke:none"
             d="M 0,0 C 0,0 38.363,21.872 79.787,21.872 121.226,21.872 158.436,0 158.436,0 l -0.773,-81.336 c 0,0 -0.757,-37.598 -23.783,-60.624 -27.992,-28.015 -54.093,-31.847 -54.093,-31.847 0,0 -33.233,10.381 -53.317,31.075 -24.936,25.708 -25.313,61.008 -25.313,61.008 z" /></g><g
           transform="translate(134.5297,151.6697)"
           id="g24"><path
             id="path26"
             style="fill:#2b1b5d;fill-opacity:1;fill-rule:nonzero;stroke:none"
             d="M 0,0 C 0,0 -25.21,15.002 -53.724,15.002 -82.223,15.002 -107.056,0 -107.056,0 l 1.179,-56.008 c 0,0 -1.179,-25.849 14.496,-45.075 10.67,-13.058 38.437,-21.968 38.437,-21.968 0,0 19.951,1.626 38.437,21.58 14.899,16.084 14.374,45.718 14.374,45.718 z m -62.195,-10.737 h 18.871 v -6.944 h -10.987 v -9.957 h 9.398 v -6.815 h -9.398 v -17.648 h -7.884 z m 36.701,-87.6 c -20.49,-14.813 -42.736,-4.698 -42.736,-4.698 0,0 27.198,0.019 30.975,33.33 0.222,22.822 -0.787,59.205 -0.787,59.205 h 29.017 l 0.402,-52.892 c 0,0 0.603,-24.996 -16.871,-34.945" /></g><g
           transform="translate(0.0228,177.6437)"
           id="g28"><path
             id="path30"
             style="fill:#2b1b5d;fill-opacity:1;fill-rule:nonzero;stroke:none"
             d="m 0,0 1.172,-83.528 c 0,0 0.391,-36.075 25.886,-62.349 20.512,-21.152 54.503,-31.767 54.503,-31.767 0,0 26.67,3.933 55.298,32.55 23.536,23.539 24.312,61.958 24.312,61.958 L 161.954,0 c 0,0 -38.049,22.356 -80.393,22.356 C 39.217,22.356 0,0 0,0 m 1.563,-1.482 c 0,0 38.364,21.876 79.788,21.876 41.438,0 78.648,-21.876 78.648,-21.876 l -0.772,-81.336 c 0,0 -0.754,-37.598 -23.783,-60.62 -27.993,-28.019 -54.093,-31.852 -54.093,-31.852 0,0 -33.23,10.382 -53.314,31.076 C 3.097,-118.506 2.72,-83.202 2.72,-83.202 Z" /></g><g
           transform="translate(3.1698,174.2572)"
           id="g32"><path
             id="path34"
             style="fill:#2b1b5d;fill-opacity:1;fill-rule:nonzero;stroke:none"
             d="m 0,0 1.12,-80.087 c 0,0 0.373,-34.608 24.748,-59.788 19.625,-20.283 52.13,-30.451 52.13,-30.451 0,0 25.506,3.755 52.881,31.186 22.508,22.575 23.262,59.423 23.262,59.423 L 154.888,0 c 0,0 -36.383,21.432 -76.89,21.432 C 37.495,21.432 0,0 0,0 m 0.924,-0.88 c 0,0 37.059,21.185 77.074,21.185 40.012,0 75.959,-21.185 75.959,-21.185 l -0.747,-78.782 c 0,0 -0.728,-36.397 -22.966,-58.702 -27.043,-27.128 -52.246,-30.846 -52.246,-30.846 0,0 -32.114,10.064 -51.509,30.107 C 2.41,-114.218 2.044,-80.016 2.044,-80.016 Z" /></g><g
           transform="translate(36.4947,140.7818)"
           id="g36"><path
             id="path38"
             style="fill:#fbee11;fill-opacity:1;fill-rule:nonzero;stroke:none"
             d="m 0,0 h 30.195 l 0.392,-57.641 c 0,0 3.822,-25.783 24.571,-13.147 C 39.457,-105.345 2.443,-85.376 1.253,-59.804 Z" /></g><g
           transform="translate(60.5769,148.6241)"
           id="g40"><path
             id="path42"
             style="fill:#ffffff;fill-opacity:1;fill-rule:nonzero;stroke:none"
             d="M 0,0 H -0.965 V 6.157 C -1.201,5.935 -1.504,5.714 -1.889,5.485 -2.262,5.27 -2.598,5.1 -2.901,4.997 v 0.935 c 0.532,0.248 1.012,0.554 1.423,0.909 0.391,0.362 0.683,0.717 0.853,1.053 H 0 Z" /></g><g
           transform="translate(75.1498,153.9113)"
           id="g44"><path
             id="path46"
             style="fill:#ffffff;fill-opacity:1;fill-rule:nonzero;stroke:none"
             d="m 0,0 c 0,0.551 -0.137,1.005 -0.425,1.327 -0.303,0.325 -0.654,0.48 -1.068,0.48 -0.433,0 -0.81,-0.181 -1.117,-0.517 -0.325,-0.351 -0.48,-0.81 -0.48,-1.368 0,-0.495 0.155,-0.901 0.444,-1.208 0.299,-0.314 0.676,-0.481 1.119,-0.481 0.448,0 0.817,0.167 1.102,0.481 C -0.137,-0.979 0,-0.551 0,0 m -3.947,-3.459 0.935,0.077 c 0.077,-0.443 0.222,-0.761 0.458,-0.946 0.207,-0.196 0.495,-0.292 0.854,-0.292 0.277,0 0.547,0.059 0.78,0.196 0.21,0.144 0.406,0.318 0.539,0.551 0.144,0.218 0.259,0.543 0.363,0.916 0.092,0.388 0.144,0.78 0.144,1.183 l -0.004,0.192 c -0.2,-0.303 -0.458,-0.558 -0.795,-0.746 -0.34,-0.196 -0.691,-0.281 -1.083,-0.281 -0.654,0 -1.201,0.225 -1.655,0.706 -0.444,0.465 -0.666,1.082 -0.666,1.855 0,0.798 0.241,1.434 0.703,1.933 0.462,0.48 1.057,0.724 1.766,0.724 0.506,0 0.968,-0.129 1.393,-0.399 C 0.214,1.918 0.536,1.541 0.75,1.024 0.979,0.514 1.086,-0.222 1.086,-1.19 1.086,-2.184 0.979,-3.001 0.75,-3.6 0.536,-4.195 0.214,-4.627 -0.215,-4.956 c -0.432,-0.303 -0.938,-0.459 -1.507,-0.459 -0.625,0 -1.12,0.163 -1.512,0.514 -0.392,0.34 -0.621,0.821 -0.713,1.442" /></g><g
           transform="translate(88.6614,151.385)"
           id="g48"><path
             id="path50"
             style="fill:#ffffff;fill-opacity:1;fill-rule:nonzero;stroke:none"
             d="M 0,0 V 3.552 L -2.458,0 Z m 0,-2.761 v 1.892 H -3.415 V 0 L 0.181,5.093 H 0.983 V 0 H 2.029 V -0.869 H 0.983 v -1.892 z" /></g><g
           transform="translate(103.3311,148.6241)"
           id="g52"><path
             id="path54"
             style="fill:#ffffff;fill-opacity:1;fill-rule:nonzero;stroke:none"
             d="M 0,0 H -0.979 V 6.157 C -1.209,5.935 -1.512,5.714 -1.889,5.485 -2.269,5.27 -2.606,5.1 -2.916,4.997 v 0.935 c 0.551,0.248 1.02,0.554 1.419,0.909 0.41,0.362 0.699,0.717 0.872,1.053 H 0 Z" /></g><g
           transform="translate(49.9157,112.9775)"
           id="g56"><path
             id="path58"
             style="fill:#2b1b5d;fill-opacity:1;fill-rule:nonzero;stroke:none"
             d="M 0,0 H 3.378 C 4.527,0 5.326,0.262 5.784,0.78 6.246,1.301 6.49,1.992 6.49,2.872 6.49,3.681 6.261,4.343 5.802,4.83 5.326,5.337 4.527,5.573 3.371,5.573 H 0 Z m 0,10.799 h 2.89 c 1.028,0 1.752,0.233 2.151,0.688 0.41,0.454 0.61,1.108 0.61,1.992 0,0.787 -0.2,1.423 -0.61,1.874 -0.399,0.443 -1.105,0.676 -2.118,0.676 H 0 Z M -6.679,21.595 H 5.736 c 2.058,0 3.64,-0.654 4.742,-1.966 1.123,-1.32 1.67,-2.946 1.67,-4.89 0,-1.615 -0.388,-3.019 -1.19,-4.18 C 10.437,9.779 9.665,9.173 8.652,8.718 10.197,8.249 11.321,7.421 12.045,6.261 12.773,5.115 13.128,3.648 13.128,1.903 13.128,0.48 12.884,-0.798 12.355,-1.948 11.849,-3.083 11.136,-3.981 10.252,-4.65 9.69,-5.045 8.848,-5.352 7.724,-5.544 6.235,-5.795 5.244,-5.921 4.753,-5.921 H -6.679 Z" /></g><g
           transform="translate(101.683,116.1523)"
           id="g60"><path
             id="path62"
             style="fill:#2b1b5d;fill-opacity:1;fill-rule:nonzero;stroke:none"
             d="m 0,0 6.287,0.517 c 0.133,-1.308 0.41,-2.302 0.835,-2.99 0.676,-1.109 1.652,-1.663 2.912,-1.663 0.943,0 1.675,0.277 2.181,0.854 0.514,0.569 0.772,1.227 0.772,1.974 0,0.709 -0.24,1.36 -0.724,1.921 C 11.779,1.168 10.655,1.7 8.881,2.203 5.987,3.049 3.914,4.15 2.676,5.544 c -1.242,1.378 -1.87,3.149 -1.87,5.3 0,1.415 0.325,2.757 0.961,3.999 0.635,1.264 1.593,2.236 2.875,2.971 1.279,0.721 3.031,1.076 5.27,1.076 2.72,0 4.824,-0.658 6.25,-1.967 1.441,-1.304 2.292,-3.396 2.569,-6.246 l -6.228,-0.48 c -0.151,1.249 -0.51,2.158 -1.042,2.724 -0.525,0.573 -1.26,0.857 -2.192,0.857 -0.776,0 -1.345,-0.218 -1.737,-0.632 -0.392,-0.417 -0.591,-0.931 -0.591,-1.537 0,-0.425 0.155,-0.832 0.477,-1.183 0.306,-0.358 1.038,-0.691 2.213,-1.005 2.879,-0.791 4.957,-1.619 6.202,-2.432 1.253,-0.817 2.17,-1.844 2.739,-3.053 0.558,-1.209 0.85,-2.576 0.85,-4.08 0,-1.759 -0.381,-3.378 -1.142,-4.868 -0.758,-1.486 -1.826,-2.613 -3.179,-3.382 -1.367,-0.768 -3.089,-1.16 -5.152,-1.16 -3.648,0 -6.161,0.887 -7.576,2.702 C 0.979,-5.064 0.188,-2.761 0,0" /></g><g
           transform="translate(145.8529,155.8246)"
           id="g64"><path
             id="path66"
             style="fill:#2b1b5d;fill-opacity:1;fill-rule:nonzero;stroke:none"
             d="M 0,0 -0.843,-2.462 H -3.341 L -1.268,-3.966 -2.033,-6.413 0,-4.916 2.099,-6.413 1.33,-3.966 3.415,-2.443 H 0.854 Z" /></g><g
           transform="translate(16.8429,154.6385)"
           id="g68"><path
             id="path70"
             style="fill:#2b1b5d;fill-opacity:1;fill-rule:nonzero;stroke:none"
             d="M 0,0 -0.846,-2.447 H -3.341 L -1.275,-3.944 -2.048,-6.387 0,-4.894 2.092,-6.387 1.312,-3.944 3.411,-2.439 H 0.85 Z" /></g><g
           transform="translate(13.2855,138.4845)"
           id="g72"><path
             id="path74"
             style="fill:#2b1b5d;fill-opacity:1;fill-rule:nonzero;stroke:none"
             d="m 0,0 v -2.447 c 0,-0.425 0.018,-0.724 0.044,-0.887 0.059,-0.314 0.152,-0.562 0.274,-0.761 0.125,-0.211 0.303,-0.362 0.554,-0.484 0.229,-0.137 0.514,-0.207 0.817,-0.207 0.373,0 0.691,0.096 0.961,0.288 0.273,0.185 0.462,0.458 0.576,0.78 0.115,0.336 0.148,0.817 0.148,1.438 V 0 Z m 4.542,0 v -2.136 c 0,-0.57 0.045,-0.991 0.115,-1.235 0.089,-0.34 0.266,-0.587 0.48,-0.75 0.229,-0.166 0.521,-0.244 0.872,-0.244 0.322,0 0.621,0.059 0.862,0.229 0.244,0.163 0.417,0.392 0.506,0.662 0.1,0.295 0.144,0.791 0.144,1.508 L 7.521,0 Z M -1.157,1.301 H 8.674 V -2.388 C 8.674,-3.142 8.571,-3.737 8.371,-4.199 8.175,-4.653 7.872,-5.008 7.455,-5.256 7.041,-5.514 6.612,-5.647 6.161,-5.647 c -0.418,0 -0.828,0.125 -1.183,0.336 -0.38,0.229 -0.676,0.58 -0.909,1.035 C 3.899,-4.871 3.607,-5.33 3.182,-5.647 2.764,-5.969 2.277,-6.12 1.689,-6.12 c -0.458,0 -0.891,0.088 -1.283,0.277 -0.388,0.203 -0.691,0.443 -0.912,0.731 -0.215,0.27 -0.385,0.647 -0.488,1.083 -0.107,0.414 -0.163,0.95 -0.163,1.582 z" /></g><g
           transform="translate(12.0585,129.0422)"
           id="g76"><path
             id="path78"
             style="fill:#2b1b5d;fill-opacity:1;fill-rule:nonzero;stroke:none"
             d="M 0,0 9.831,0.162 9.953,-6.926 8.8,-6.952 8.693,-1.164 5.677,-1.22 5.777,-6.627 4.623,-6.656 4.531,-1.238 1.183,-1.294 1.279,-7.318 0.126,-7.333 Z" /></g><g
           transform="translate(12.2123,118.1859)"
           id="g80"><path
             id="path82"
             style="fill:#2b1b5d;fill-opacity:1;fill-rule:nonzero;stroke:none"
             d="M 0,0 0.022,-1.32 9.857,-1.15 9.82,0.151 Z" /></g><g
           transform="translate(15.0818,113.8309)"
           id="g84"><path
             id="path86"
             style="fill:#2b1b5d;fill-opacity:1;fill-rule:nonzero;stroke:none"
             d="m 0,0 0.196,-1.153 c -0.747,-0.063 -1.264,-0.222 -1.53,-0.477 -0.266,-0.273 -0.399,-0.617 -0.374,-1.053 0,-0.34 0.089,-0.603 0.252,-0.839 0.159,-0.226 0.362,-0.399 0.617,-0.47 0.266,-0.07 0.68,-0.107 1.238,-0.077 l 6.775,0.221 0.044,-1.304 -6.697,-0.226 c -0.817,-0.033 -1.445,0.034 -1.911,0.226 -0.462,0.192 -0.824,0.495 -1.064,0.905 -0.251,0.429 -0.392,0.921 -0.41,1.497 -0.034,0.876 0.195,1.541 0.68,2.011 C -1.708,-0.259 -0.979,-0.015 0,0" /></g><g
           transform="translate(12.628,104.4982)"
           id="g88"><path
             id="path90"
             style="fill:#2b1b5d;fill-opacity:1;fill-rule:nonzero;stroke:none"
             d="M 0,0 0.052,-1.312 9.864,-0.957 9.827,0.344 Z" /></g><g
           transform="translate(12.8587,99.4048)"
           id="g92"><path
             id="path94"
             style="fill:#2b1b5d;fill-opacity:1;fill-rule:nonzero;stroke:none"
             d="m 0,0 9.813,0.695 0.088,-1.353 -7.332,-5.681 7.687,0.54 0.1,-1.238 -9.805,-0.691 -0.1,1.338 7.344,5.669 -7.706,-0.528 z" /></g><g
           transform="translate(18.2084,84.043)"
           id="g96"><path
             id="path98"
             style="fill:#2b1b5d;fill-opacity:1;fill-rule:nonzero;stroke:none"
             d="m 0,0 1.138,0.188 0.64,-4.106 -3.593,-0.573 c -0.602,0.555 -1.083,1.15 -1.437,1.771 -0.355,0.643 -0.607,1.301 -0.714,2.006 -0.14,0.965 -0.081,1.856 0.207,2.71 0.285,0.842 0.784,1.511 1.482,2.029 0.725,0.524 1.541,0.853 2.491,1.009 C 1.157,5.185 2.081,5.122 2.96,4.864 3.84,4.59 4.535,4.128 5.049,3.437 5.566,2.768 5.902,1.948 6.043,0.972 6.172,0.27 6.154,-0.37 6.009,-0.987 5.876,-1.578 5.636,-2.077 5.281,-2.447 4.916,-2.853 4.428,-3.171 3.803,-3.459 l -0.517,1.123 c 0.484,0.222 0.835,0.462 1.097,0.732 0.24,0.248 0.418,0.591 0.525,1.02 C 5.034,-0.159 5.034,0.303 4.96,0.794 4.864,1.393 4.694,1.881 4.442,2.28 4.195,2.668 3.91,2.971 3.581,3.201 3.252,3.408 2.898,3.566 2.513,3.655 1.885,3.799 1.212,3.833 0.499,3.714 -0.362,3.577 -1.068,3.315 -1.6,2.916 -2.133,2.546 -2.506,2.029 -2.702,1.427 -2.89,0.809 -2.931,0.177 -2.835,-0.458 c 0.089,-0.555 0.277,-1.076 0.577,-1.575 0.303,-0.499 0.599,-0.865 0.883,-1.094 l 1.818,0.289 z" /></g><g
           transform="translate(18.2274,65.547)"
           id="g100"><path
             id="path102"
             style="fill:#2b1b5d;fill-opacity:1;fill-rule:nonzero;stroke:none"
             d="M 0,0 9.28,3.201 11.45,-3.053 10.348,-3.448 8.622,1.589 5.725,0.588 7.236,-3.77 6.132,-4.14 4.631,0.222 0.418,-1.235 Z" /></g><g
           transform="translate(26.1828,57.9366)"
           id="g104"><path
             id="path106"
             style="fill:#2b1b5d;fill-opacity:1;fill-rule:nonzero;stroke:none"
             d="m 0,0 c -1.013,-0.606 -1.645,-1.36 -1.892,-2.258 -0.266,-0.898 -0.145,-1.76 0.354,-2.573 0.496,-0.835 1.209,-1.349 2.126,-1.53 0.916,-0.199 1.91,0.03 2.993,0.68 0.684,0.403 1.209,0.887 1.582,1.423 0.359,0.536 0.562,1.12 0.569,1.737 0.019,0.621 -0.14,1.194 -0.48,1.748 C 4.771,0.011 4.099,0.543 3.226,0.783 2.339,1.016 1.271,0.765 0,0 m -0.673,1.168 c 1.401,0.846 2.717,1.12 3.955,0.85 1.242,-0.285 2.221,-1.013 2.927,-2.203 0.466,-0.772 0.717,-1.593 0.717,-2.436 0,-0.85 -0.229,-1.637 -0.695,-2.365 -0.465,-0.72 -1.12,-1.345 -1.966,-1.852 -0.843,-0.513 -1.722,-0.794 -2.602,-0.857 -0.891,-0.055 -1.674,0.118 -2.402,0.547 -0.728,0.432 -1.312,1.002 -1.748,1.737 -0.474,0.787 -0.725,1.623 -0.714,2.462 0.011,0.872 0.259,1.652 0.721,2.365 0.462,0.724 1.068,1.308 1.807,1.752" /></g><g
           transform="translate(33.1957,48.6209)"
           id="g108"><path
             id="path110"
             style="fill:#2b1b5d;fill-opacity:1;fill-rule:nonzero;stroke:none"
             d="m 0,0 1.833,-2.114 c 0.388,-0.433 0.736,-0.75 1.046,-0.913 0.303,-0.185 0.632,-0.244 0.954,-0.189 0.31,0.041 0.591,0.17 0.827,0.385 0.355,0.299 0.533,0.676 0.533,1.131 0.018,0.451 -0.233,0.95 -0.691,1.489 L 2.454,2.136 Z M -4.993,-2.621 2.417,3.825 5.281,0.532 C 5.851,-0.115 6.224,-0.684 6.383,-1.135 6.545,-1.586 6.56,-2.077 6.39,-2.573 6.235,-3.072 5.958,-3.5 5.547,-3.855 5.015,-4.306 4.424,-4.513 3.77,-4.498 3.108,-4.483 2.424,-4.147 1.707,-3.526 1.815,-3.892 1.859,-4.188 1.859,-4.432 1.841,-4.956 1.759,-5.514 1.574,-6.109 l -0.898,-3.035 -1.079,1.227 0.702,2.329 c 0.193,0.665 0.326,1.197 0.403,1.585 0.081,0.396 0.096,0.699 0.059,0.931 -0.026,0.241 -0.085,0.433 -0.181,0.633 -0.07,0.122 -0.225,0.306 -0.447,0.565 l -0.987,1.138 -3.289,-2.871 z" /></g><g
           transform="translate(35.879,37.5476)"
           id="g112"><path
             id="path114"
             style="fill:#2b1b5d;fill-opacity:1;fill-rule:nonzero;stroke:none"
             d="M 0,0 6.708,7.181 11.879,2.358 11.095,1.512 6.863,5.459 4.801,3.249 8.766,-0.444 7.983,-1.294 4.017,2.41 1.726,-0.052 6.135,-4.154 5.352,-4.997 Z" /></g><g
           transform="translate(43.9609,30.3139)"
           id="g116"><path
             id="path118"
             style="fill:#2b1b5d;fill-opacity:1;fill-rule:nonzero;stroke:none"
             d="M 0,0 6.309,7.529 7.318,6.69 1.005,-0.835 Z" /></g><g
           transform="translate(53.7813,27.7899)"
           id="g120"><path
             id="path122"
             style="fill:#2b1b5d;fill-opacity:1;fill-rule:nonzero;stroke:none"
             d="M 0,0 0.606,0.976 4.143,-1.231 2.206,-4.313 c -0.809,-0.1 -1.57,-0.07 -2.276,0.07 -0.717,0.151 -1.386,0.396 -1.992,0.78 -0.817,0.517 -1.457,1.153 -1.904,1.922 -0.443,0.776 -0.628,1.6 -0.558,2.469 0.081,0.876 0.366,1.718 0.88,2.535 0.506,0.817 1.142,1.467 1.929,1.959 0.773,0.488 1.593,0.71 2.436,0.654 C 1.574,6.017 2.421,5.732 3.238,5.208 3.84,4.838 4.332,4.398 4.694,3.892 5.048,3.4 5.263,2.875 5.326,2.365 5.388,1.844 5.304,1.256 5.104,0.599 L 3.936,0.961 C 4.084,1.456 4.136,1.903 4.099,2.254 4.073,2.613 3.929,2.968 3.666,3.33 3.419,3.696 3.078,3.999 2.65,4.272 2.155,4.587 1.67,4.771 1.208,4.849 0.75,4.926 0.321,4.904 -0.052,4.801 -0.444,4.679 -0.787,4.52 -1.094,4.298 -1.634,3.918 -2.085,3.419 -2.469,2.816 -2.935,2.077 -3.197,1.375 -3.252,0.717 c -0.052,-0.68 0.088,-1.283 0.417,-1.822 0.333,-0.536 0.773,-1.006 1.334,-1.327 0.47,-0.307 1.006,-0.503 1.571,-0.588 0.566,-0.111 1.035,-0.136 1.39,-0.077 l 0.987,1.559 z" /></g><g
           transform="translate(58.2611,20.6343)"
           id="g124"><path
             id="path126"
             style="fill:#2b1b5d;fill-opacity:1;fill-rule:nonzero;stroke:none"
             d="M 0,0 3.833,9.036 5.052,8.523 6.793,-0.591 9.809,6.505 10.955,6.024 7.122,-3.027 5.887,-2.506 4.154,6.601 1.138,-0.492 Z" /></g><g
           transform="translate(79.5069,14.0541)"
           id="g128"><path
             id="path130"
             style="fill:#2b1b5d;fill-opacity:1;fill-rule:nonzero;stroke:none"
             d="m 0,0 1.157,0.403 c 0.177,-0.477 0.406,-0.832 0.695,-1.087 0.28,-0.262 0.661,-0.432 1.134,-0.506 0.492,-0.078 0.994,-0.056 1.541,0.074 0.488,0.122 0.895,0.299 1.224,0.536 0.329,0.232 0.561,0.502 0.665,0.802 C 6.542,0.514 6.564,0.809 6.494,1.101 6.416,1.408 6.261,1.641 6.043,1.826 5.795,1.999 5.477,2.121 5.037,2.169 4.746,2.203 4.15,2.214 3.219,2.214 2.291,2.203 1.637,2.243 1.234,2.347 0.709,2.476 0.303,2.687 0,2.979 c -0.318,0.299 -0.525,0.672 -0.64,1.109 -0.114,0.48 -0.088,0.975 0.078,1.441 0.174,0.506 0.495,0.916 0.954,1.268 0.48,0.358 1.031,0.598 1.666,0.746 C 2.772,7.735 3.43,7.776 4.021,7.687 4.616,7.58 5.119,7.358 5.507,6.985 5.917,6.623 6.205,6.15 6.357,5.61 L 5.174,5.2 C 4.952,5.799 4.624,6.191 4.169,6.401 3.714,6.623 3.13,6.634 2.399,6.453 1.626,6.264 1.105,5.98 0.828,5.614 0.551,5.252 0.462,4.864 0.551,4.472 0.65,4.132 0.835,3.873 1.138,3.711 1.43,3.566 2.125,3.496 3.219,3.511 4.302,3.54 5.048,3.504 5.477,3.433 6.08,3.315 6.582,3.097 6.944,2.772 7.299,2.443 7.547,2.022 7.68,1.519 7.806,0.998 7.772,0.492 7.595,-0.03 7.41,-0.543 7.089,-1.005 6.616,-1.379 6.135,-1.767 5.547,-2.044 4.864,-2.203 4.002,-2.439 3.256,-2.484 2.609,-2.384 1.959,-2.266 1.404,-2.007 0.954,-1.593 0.499,-1.168 0.177,-0.64 0,0" /></g><g
           transform="translate(93.0257,14.7816)"
           id="g132"><path
             id="path134"
             style="fill:#2b1b5d;fill-opacity:1;fill-rule:nonzero;stroke:none"
             d="M 0,0 -3.12,8.101 -6.132,6.937 -6.549,8.009 0.721,10.803 1.134,9.724 -1.892,8.571 1.219,0.466 Z" /></g><g
           transform="translate(100.718,29.1371)"
           id="g136"><path
             id="path138"
             style="fill:#2b1b5d;fill-opacity:1;fill-rule:nonzero;stroke:none"
             d="M 0,0 1.146,0.617 3.81,-4.398 C 4.284,-5.282 4.549,-6.021 4.62,-6.627 4.69,-7.255 4.564,-7.869 4.221,-8.46 3.873,-9.048 3.289,-9.572 2.45,-10.009 c -0.806,-0.436 -1.545,-0.639 -2.21,-0.639 -0.665,0.007 -1.256,0.218 -1.752,0.628 -0.502,0.403 -0.994,1.083 -1.497,1.996 l -2.657,5.023 1.149,0.602 2.665,-5.015 c 0.396,-0.75 0.776,-1.268 1.105,-1.556 0.322,-0.281 0.706,-0.421 1.157,-0.44 0.444,-0.004 0.906,0.115 1.39,0.373 0.846,0.451 1.345,0.958 1.489,1.527 0.167,0.565 -0.044,1.415 -0.624,2.498 z" /></g><g
           transform="translate(109.9095,24.3904)"
           id="g140"><path
             id="path142"
             style="fill:#2b1b5d;fill-opacity:1;fill-rule:nonzero;stroke:none"
             d="M 0,0 1.741,1.175 C 2.277,1.541 2.657,1.863 2.898,2.169 3.13,2.48 3.282,2.783 3.341,3.101 3.419,3.529 3.382,3.999 3.234,4.535 3.093,5.063 2.809,5.629 2.388,6.25 1.811,7.104 1.234,7.673 0.636,7.942 0.052,8.201 -0.492,8.286 -0.998,8.172 -1.364,8.079 -1.87,7.82 -2.499,7.395 L -4.217,6.25 Z M -0.444,-1.682 -5.94,6.464 -3.127,8.356 C -2.491,8.785 -1.996,9.077 -1.6,9.221 -1.072,9.432 -0.536,9.502 0,9.45 0.676,9.369 1.297,9.129 1.892,8.696 2.487,8.286 3.027,7.706 3.522,6.989 3.936,6.368 4.232,5.766 4.409,5.193 4.586,4.616 4.675,4.091 4.657,3.618 4.642,3.167 4.549,2.75 4.409,2.395 4.265,2.04 4.036,1.681 3.714,1.323 3.393,0.983 2.982,0.639 2.506,0.303 Z" /></g><g
           transform="translate(118.7896,29.2192)"
           id="g144"><path
             id="path146"
             style="fill:#2b1b5d;fill-opacity:1;fill-rule:nonzero;stroke:none"
             d="M 0,0 -6.054,7.732 -5.023,8.538 1.02,0.802 Z" /></g><g
           transform="translate(122.6031,32.2232)"
           id="g148"><path
             id="path150"
             style="fill:#2b1b5d;fill-opacity:1;fill-rule:nonzero;stroke:none"
             d="m 0,0 -6.579,7.307 5.282,4.745 0.761,-0.854 L -4.838,7.314 -2.82,5.074 1.205,8.704 1.981,7.854 -2.044,4.232 0.192,1.733 4.675,5.754 5.448,4.908 Z" /></g><g
           transform="translate(127.5796,41.144)"
           id="g152"><path
             id="path154"
             style="fill:#2b1b5d;fill-opacity:1;fill-rule:nonzero;stroke:none"
             d="M 0,0 0.746,0.957 C 1.153,0.661 1.534,0.492 1.9,0.429 2.284,0.369 2.698,0.429 3.149,0.624 3.596,0.82 4.006,1.131 4.391,1.53 4.727,1.9 4.978,2.262 5.115,2.646 5.281,3.03 5.315,3.374 5.256,3.681 5.193,3.984 5.045,4.243 4.827,4.457 4.605,4.66 4.346,4.775 4.062,4.801 3.77,4.83 3.43,4.76 3.03,4.564 2.783,4.431 2.258,4.121 1.489,3.607 0.709,3.097 0.126,2.761 -0.248,2.631 -0.747,2.454 -1.209,2.413 -1.637,2.506 -2.062,2.572 -2.436,2.761 -2.768,3.078 -3.131,3.419 -3.378,3.833 -3.5,4.343 c -0.118,0.487 -0.085,1.009 0.122,1.57 0.203,0.551 0.532,1.054 0.976,1.549 0.51,0.517 1.034,0.924 1.585,1.157 0.551,0.247 1.09,0.336 1.634,0.24 C 1.353,8.759 1.84,8.538 2.273,8.153 L 1.489,7.177 C 0.994,7.551 0.495,7.702 0,7.65 -0.499,7.566 -1.005,7.259 -1.512,6.708 -2.055,6.139 -2.34,5.61 -2.376,5.159 -2.406,4.697 -2.277,4.328 -1.974,4.051 -1.726,3.81 -1.423,3.703 -1.083,3.729 -0.747,3.766 -0.126,4.084 0.761,4.697 1.67,5.304 2.31,5.684 2.72,5.85 3.289,6.083 3.818,6.18 4.302,6.098 4.779,6.009 5.215,5.806 5.603,5.444 5.98,5.085 6.239,4.646 6.379,4.121 6.516,3.585 6.49,3.016 6.287,2.432 6.087,1.844 5.758,1.301 5.281,0.794 4.668,0.137 4.069,-0.314 3.467,-0.577 2.872,-0.832 2.258,-0.924 1.652,-0.821 1.031,-0.706 0.477,-0.44 0,0" /></g><g
           transform="translate(133.6851,61.4922)"
           id="g156"><path
             id="path158"
             style="fill:#2b1b5d;fill-opacity:1;fill-rule:nonzero;stroke:none"
             d="M 0,0 0.569,1.186 5.67,-1.301 C 6.56,-1.748 7.207,-2.184 7.636,-2.643 8.064,-3.09 8.312,-3.659 8.382,-4.346 8.452,-5.038 8.279,-5.795 7.868,-6.642 7.462,-7.477 6.993,-8.072 6.453,-8.467 5.913,-8.852 5.311,-9.022 4.668,-8.988 4.01,-8.948 3.226,-8.7 2.284,-8.235 l -5.1,2.488 0.576,1.168 5.097,-2.495 c 0.769,-0.366 1.364,-0.573 1.8,-0.614 0.44,-0.022 0.839,0.082 1.201,0.329 0.366,0.252 0.665,0.614 0.909,1.131 0.418,0.85 0.525,1.545 0.3,2.096 -0.204,0.565 -0.862,1.12 -1.97,1.656 z" /></g><g
           transform="translate(144.3982,61.5028)"
           id="g160"><path
             id="path162"
             style="fill:#2b1b5d;fill-opacity:1;fill-rule:nonzero;stroke:none"
             d="M 0,0 -9.354,3.03 -8.948,4.309 0,6.826 -7.344,9.203 -6.96,10.4 2.391,7.362 1.97,6.091 -6.96,3.559 0.381,1.179 Z" /></g><g
           transform="translate(137.9601,74.4714)"
           id="g164"><path
             id="path166"
             style="fill:#2b1b5d;fill-opacity:1;fill-rule:nonzero;stroke:none"
             d="m 0,0 9.62,-2.048 0.274,1.272 -9.61,2.051 z" /></g><g
           transform="translate(148.8775,79.9289)"
           id="g168"><path
             id="path170"
             style="fill:#2b1b5d;fill-opacity:1;fill-rule:nonzero;stroke:none"
             d="m 0,0 -10.205,-2.569 0.171,1.397 7.395,1.671 c 0.595,0.122 1.146,0.225 1.66,0.31 -0.514,0.222 -1.032,0.451 -1.538,0.732 l -6.76,3.482 0.155,1.334 9.299,-5.008 z" /></g><g
           transform="translate(149.3842,87.528)"
           id="g172"><path
             id="path174"
             style="fill:#2b1b5d;fill-opacity:1;fill-rule:nonzero;stroke:none"
             d="M 0,0 -9.82,0.17 -9.698,7.262 -8.541,7.244 -8.652,1.449 -5.625,1.397 -5.54,6.815 -4.383,6.793 -4.476,1.379 -1.131,1.319 -1.024,7.34 0.133,7.325 Z" /></g><g
           transform="translate(144.1848,99.3175)"
           id="g176"><path
             id="path178"
             style="fill:#2b1b5d;fill-opacity:1;fill-rule:nonzero;stroke:none"
             d="M 0,0 0.044,2.783 C 0.052,3.385 0,3.836 -0.118,4.176 c -0.115,0.34 -0.307,0.595 -0.573,0.773 -0.27,0.181 -0.562,0.266 -0.876,0.288 -0.458,0 -0.865,-0.17 -1.164,-0.488 -0.304,-0.34 -0.451,-0.865 -0.473,-1.585 l -0.048,-3.12 z m 5.455,-1.404 -9.809,0.177 0.067,4.357 c 0.018,0.872 0.107,1.523 0.295,1.989 0.189,0.447 0.507,0.798 0.957,1.064 0.455,0.259 0.936,0.392 1.486,0.381 C -0.854,6.56 -0.27,6.327 0.207,5.858 0.672,5.403 0.961,4.694 1.072,3.759 1.238,4.099 1.423,4.354 1.578,4.535 1.94,4.904 2.38,5.252 2.905,5.577 L 5.618,7.24 5.577,5.61 3.522,4.354 C 2.912,3.991 2.461,3.688 2.14,3.452 1.826,3.189 1.6,2.982 1.475,2.798 1.349,2.591 1.26,2.399 1.205,2.203 1.171,2.051 1.153,1.811 1.153,1.486 L 1.116,-0.026 5.485,-0.1 Z" /></g><g
           transform="translate(146.7347,108.6592)"
           id="g180"><path
             id="path182"
             style="fill:#2b1b5d;fill-opacity:1;fill-rule:nonzero;stroke:none"
             d="M 0,0 -0.089,1.216 C 0.41,1.26 0.809,1.404 1.131,1.6 1.449,1.811 1.715,2.136 1.918,2.583 2.125,3.019 2.232,3.529 2.232,4.088 2.251,4.583 2.184,5.015 2.036,5.4 1.896,5.773 1.7,6.057 1.449,6.25 1.182,6.453 0.917,6.545 0.606,6.545 0.303,6.545 0.03,6.471 -0.203,6.294 -0.436,6.12 -0.628,5.828 -0.791,5.414 -0.902,5.156 -1.076,4.583 -1.308,3.681 -1.538,2.779 -1.752,2.147 -1.944,1.796 -2.203,1.323 -2.517,0.983 -2.89,0.765 -3.252,0.54 -3.67,0.421 -4.117,0.436 -4.616,0.455 -5.075,0.595 -5.5,0.876 c -0.428,0.295 -0.75,0.713 -0.964,1.26 -0.211,0.54 -0.318,1.146 -0.296,1.811 0.004,0.728 0.137,1.368 0.377,1.918 0.24,0.551 0.595,0.972 1.057,1.261 0.466,0.299 0.983,0.447 1.56,0.465 L -3.689,6.338 C -4.313,6.272 -4.794,6.057 -5.112,5.681 -5.433,5.289 -5.596,4.731 -5.61,3.969 c -0.015,-0.78 0.114,-1.352 0.391,-1.722 0.285,-0.362 0.632,-0.54 1.043,-0.554 0.343,-0.012 0.643,0.103 0.876,0.365 0.221,0.256 0.48,0.891 0.735,1.959 0.251,1.028 0.477,1.756 0.662,2.151 0.277,0.57 0.613,0.987 1.02,1.246 0.41,0.277 0.876,0.403 1.408,0.392 C 1.042,7.787 1.519,7.625 1.992,7.325 2.443,7.022 2.801,6.59 3.038,6.024 3.286,5.459 3.408,4.816 3.385,4.124 3.367,3.238 3.226,2.487 2.96,1.892 2.694,1.301 2.302,0.846 1.767,0.514 1.253,0.177 0.65,0 0,0" /></g><g
           transform="translate(140.2721,119.8058)"
           id="g184"><path
             id="path186"
             style="fill:#2b1b5d;fill-opacity:1;fill-rule:nonzero;stroke:none"
             d="M 0,0 9.82,-0.17 9.85,1.138 0.018,1.312 Z" /></g><g
           transform="translate(150.212,126.9678)"
           id="g188"><path
             id="path190"
             style="fill:#2b1b5d;fill-opacity:1;fill-rule:nonzero;stroke:none"
             d="M 0,0 -8.678,0.151 -8.73,-3.083 -9.887,-3.064 -9.754,4.705 -8.608,4.69 -8.66,1.456 0.015,1.308 Z" /></g><g
           transform="translate(150.2998,136.8479)"
           id="g192"><path
             id="path194"
             style="fill:#2b1b5d;fill-opacity:1;fill-rule:nonzero;stroke:none"
             d="m 0,0 h -4.162 l -5.673,-3.781 v 1.571 l 2.983,1.94 c 0.539,0.366 1.094,0.695 1.652,1.005 -0.529,0.303 -1.094,0.669 -1.734,1.087 l -2.901,1.9 V 5.241 L -4.162,1.312 H 0 Z" /></g><g
           transform="translate(24.4198,167.5284)"
           id="g196"><path
             id="path198"
             style="fill:#2b1b5d;fill-opacity:1;fill-rule:nonzero;stroke:none"
             d="m 0,0 c 0.536,-1.368 1.146,-2.783 1.804,-4.062 0.314,-0.621 0.524,-1.423 0.953,-2.047 0.473,-0.041 0.68,-0.019 0.998,0.314 0.27,0.281 0.377,0.51 0.358,0.883 C 4.08,-4.195 3.648,-3.67 3.245,-3.138 2.406,-2.037 1.866,-0.75 1.349,0.573 0.839,1.87 0.421,3.193 0.114,4.524 -0.033,5.156 0.096,5.732 -0.007,6.331 -0.141,7.129 -0.584,7.296 -1.179,7.625 -1.501,7.798 -1.8,7.783 -2.144,7.687 -2.569,7.569 -2.687,7.344 -2.506,6.893 -2.41,6.656 -2.288,6.542 -2.181,6.312 -1.963,5.847 -1.752,5.433 -1.582,4.926 -1.419,4.431 -1.283,3.966 -1.138,3.492 -0.75,2.236 -0.444,1.134 0,0" /></g><g
           transform="translate(22.1686,164.9245)"
           id="g200"><path
             id="path202"
             style="fill:#2b1b5d;fill-opacity:1;fill-rule:nonzero;stroke:none"
             d="M 0,0 C 0.329,-0.396 0.41,-1.205 0.65,-1.671 0.961,-2.28 0.939,-2.787 0.928,-3.426 0.905,-4.402 0.17,-5.718 0.843,-6.571 c 0.232,-0.03 0.232,-0.093 0.462,-0.078 0.218,0.015 0.672,-0.07 0.868,0.03 0.643,0.328 0.61,0.953 0.662,1.544 0.044,0.499 0.399,0.983 0.539,1.464 0.148,0.491 -0.077,0.802 0.137,1.26 C 3.204,-2.502 2.827,-2.388 2.502,-2.458 2.284,-2.173 2.254,-1.756 2.07,-1.46 1.907,-1.187 1.678,-0.906 1.475,-0.684 1.138,-0.322 0.477,0.499 -0.067,0.066" /></g><g
           transform="translate(30.7553,166.4835)"
           id="g204"><path
             id="path206"
             style="fill:#2b1b5d;fill-opacity:1;fill-rule:nonzero;stroke:none"
             d="m 0,0 c 0.218,-0.647 0.425,-1.224 0.576,-1.878 0.148,-0.654 0.433,-1.293 0.618,-1.947 0.155,-0.562 0.281,-1.479 0.972,-1.486 0.598,-0.122 1.182,0.647 1.456,0.839 0.536,0.377 0.857,0.746 1.319,1.216 0.226,0.233 0.584,0.466 0.865,0.628 0.27,0.152 0.717,0.244 0.913,0.466 0.425,0.484 -0.558,1.02 -1.027,0.942 C 4.446,-1.434 4.173,-2.676 3.079,-3.216 2.923,-3.097 2.62,-3.171 2.498,-2.998 2.369,-2.816 2.317,-2.484 2.221,-2.295 2.103,-2.074 2.07,-1.83 1.999,-1.567 1.929,-1.305 1.848,-1.139 1.744,-0.869 1.238,0.462 0.883,1.467 0.691,2.158 0.883,2.306 1.223,2.162 1.475,2.162 1.866,2.166 1.951,2.284 2.184,2.568 2.609,3.086 2.997,3.626 3.297,4.213 3.526,4.675 3.995,5.466 3.711,5.995 3.345,6.678 2.513,6.36 2.288,5.784 2.062,5.208 1.748,4.915 1.356,4.391 1.135,4.095 1.035,3.777 0.665,3.696 0.207,3.6 0.155,3.522 0.022,4.01 -0.288,5.115 -0.392,7.207 -1.97,6.959 -2.421,6.889 -2.602,6.715 -2.499,6.235 -2.447,6.009 -2.299,5.873 -2.158,5.718 -1.885,5.418 -1.667,5.045 -1.534,4.642 -1.382,4.187 -1.209,3.729 -1.109,3.267 -0.85,2.14 -0.37,1.101 0,0" /></g><g
           transform="translate(45.6439,183.6621)"
           id="g208"><path
             id="path210"
             style="fill:#2b1b5d;fill-opacity:1;fill-rule:nonzero;stroke:none"
             d="m 0,0 c -0.462,-0.562 -0.266,-1.386 0.414,-1.382 0.477,0.011 1.674,-0.2 1.526,-1.054 -0.192,-1.131 -1.548,-1.748 -2.343,-2.395 -0.732,-0.606 -1.349,-1.072 -2.04,-1.434 -0.721,-0.38 -2.055,-1.338 -2.055,-1.338 0,0 -0.565,-0.827 -0.772,-1.293 -0.167,-0.366 -0.429,-1.405 -0.008,-1.634 0.421,-0.229 1.183,0.555 1.456,0.858 0.425,0.473 1.32,1.105 1.32,1.105 0,0 0.532,0.495 0.739,0.691 0.255,0.24 0.514,0.536 0.758,0.769 0.709,0.683 1.227,1.005 1.818,1.581 0.924,0.906 1.722,1.586 2.835,2.377 0.584,0.418 1.131,0.883 1.733,1.279 0.27,0.181 0.499,0.429 0.821,0.536 0.454,0.155 0.643,0.155 1.164,0.41 C 8.135,-0.543 7.739,0.022 7.033,0.288 6.239,0.599 5.817,0.351 5.097,-0.011 4.435,-0.344 4.195,-0.821 3.781,-1.375 3.637,-1.564 3.319,-1.863 3.064,-1.645 2.853,-1.467 2.953,-1.016 2.89,-0.739 2.557,0.624 0.935,0.455 -0.081,-0.019" /></g><g
           transform="translate(46.9893,176.6976)"
           id="g212"><path
             id="path214"
             style="fill:#2b1b5d;fill-opacity:1;fill-rule:nonzero;stroke:none"
             d="m 0,0 c -0.292,-0.451 0.159,-0.828 0.406,-1.113 0.292,-0.321 0.381,-0.75 0.747,-0.964 0.336,-0.196 0.887,0.018 1.127,0.295 0.325,0.389 0.119,0.814 -0.051,1.172 -0.255,0.104 -0.47,0.318 -0.736,0.388 C 1.12,0.192 0.54,0.196 0.033,0.048" /></g><g
           transform="translate(49.2733,179.2493)"
           id="g216"><path
             id="path218"
             style="fill:#2b1b5d;fill-opacity:1;fill-rule:nonzero;stroke:none"
             d="m 0,0 c -0.451,-0.318 -0.558,-1.297 0.262,-1.183 0.621,0.085 1.19,0.684 1.686,0.961 0.617,-0.392 -0.499,-1.086 -0.647,-1.456 -0.2,-0.488 -0.325,-1.419 0.159,-1.741 0.554,-0.377 1.168,0.274 1.63,0.525 0.591,0.325 1.667,0.721 1.297,1.571 C 3.999,-0.436 3.3,-1.515 2.635,-1.582 2.284,-1.116 3.263,-0.055 3.267,0.48 3.836,0.854 4.261,0.902 4.084,1.741 3.91,2.587 3.367,2.206 2.938,1.815 2.458,1.375 1.985,1.134 1.46,0.813 1.016,0.551 0.259,0.344 -0.03,-0.092" /></g><g
           transform="translate(47.3732,171.2532)"
           id="g220"><path
             id="path222"
             style="fill:#2b1b5d;fill-opacity:1;fill-rule:nonzero;stroke:none"
             d="m 0,0 c -0.473,-0.277 -0.58,-1.013 -1.009,-1.393 -0.421,-0.37 -1.105,-0.588 -0.883,-1.301 0.162,-0.522 0.835,-1.172 1.33,-1.105 0.887,0.118 0.828,0.901 0.913,1.53 0.081,0.576 0.237,1.071 0.399,1.604 0.089,0.284 0.266,0.709 -0.026,0.883 -0.303,0.188 -0.554,-0.152 -0.75,-0.31" /></g><g
           transform="translate(49.281,173.9881)"
           id="g224"><path
             id="path226"
             style="fill:#2b1b5d;fill-opacity:1;fill-rule:nonzero;stroke:none"
             d="m 0,0 c -0.396,-0.355 -0.503,-0.832 -0.118,-1.224 0.177,-0.184 0.303,-0.228 0.432,-0.458 0.137,-0.255 0.24,-0.514 0.322,-0.791 0.085,-0.295 0.41,-1.36 0.247,-1.556 -0.314,-0.388 -0.987,0.303 -1.4,0.026 0.092,-0.466 0.824,-0.835 1.134,-1.149 0.362,-0.37 0.706,-1.142 1.261,-0.791 0.99,0.617 0.07,2.606 -0.182,3.459 C 1.53,-1.9 1.379,-1.283 1.227,-0.665 1.05,0.089 0.713,0.126 0,0" /></g><g
           transform="translate(51.6173,172.851)"
           id="g228"><path
             id="path230"
             style="fill:#2b1b5d;fill-opacity:1;fill-rule:nonzero;stroke:none"
             d="m 0,0 c 0.055,-0.643 0.739,-0.846 1.123,-1.279 0.311,-0.362 0.673,-1.26 1.364,-0.95 0.632,0.285 0.37,1.142 0.089,1.556 C 2.166,-0.063 1.752,0.059 1.042,0.111 0.721,0.133 0.395,0.185 0.066,0.1" /></g><g
           transform="translate(59.5523,183.5155)"
           id="g232"><path
             id="path234"
             style="fill:#2b1b5d;fill-opacity:1;fill-rule:nonzero;stroke:none"
             d="m 0,0 c 0.037,-0.37 -0.37,-0.954 -0.529,-1.294 -0.188,-0.41 -0.384,-0.809 -0.469,-1.249 -0.081,-0.395 -0.037,-1.039 0.211,-1.375 0.321,-0.458 0.861,-0.332 1.286,-0.222 -0.207,-0.554 -0.388,-1.02 -0.662,-1.555 -0.284,-0.551 -0.698,-1.072 -0.879,-1.645 -0.167,-0.536 -0.085,-1.316 0.284,-1.722 0.588,-0.651 0.891,-0.008 0.924,0.635 0.059,0.954 0.237,1.608 0.543,2.48 0.285,0.795 0.529,1.678 0.924,2.436 1.083,0.096 0.629,-0.592 0.363,-1.194 -0.207,-0.462 -0.536,-1.194 -0.233,-1.711 0.584,-0.185 1.035,0.831 1.138,1.22 0.159,0.58 0.444,1.071 0.566,1.648 0.066,0.307 -0.019,0.661 -0.174,0.913 -0.226,0.351 -0.392,0.307 -0.747,0.425 -0.351,0.114 -0.336,0.273 -0.303,0.613 0.026,0.2 0.252,0.562 0.252,0.562 0,0 0.997,1.098 1.345,1.567 C 4.158,0.954 5.06,1.445 5.562,1.286 6.841,0.88 6.29,-1.785 6.25,-2.846 6.228,-3.537 6.386,-4.11 6.386,-4.838 c 0,-0.754 0.108,-1.6 -0.04,-2.299 -0.137,-0.647 -0.477,-1.168 -0.544,-1.829 -0.025,-0.278 0.004,-0.677 0.3,-0.788 0.299,-0.11 0.624,0.241 0.824,0.462 0.717,0.773 0.514,2.332 0.462,3.36 -0.056,1.131 -0.318,2.513 0.421,3.382 0.484,0.233 0.913,0.672 1.497,0.757 0.728,0.107 1.294,-0.436 1.419,-1.082 0.145,-0.729 -0.114,-1.209 -0.473,-1.793 -0.214,-0.362 -0.831,-1.327 -0.61,-1.719 0.27,-0.462 1.157,0.536 1.294,0.839 0.274,0.599 0.536,1.25 0.761,1.822 0.459,1.183 0.049,2.784 -1.304,3.101 C 9.864,-0.495 9.546,-0.636 9.066,-0.839 8.87,-1.068 7.758,-2.07 7.588,-2.074 7.214,-2.092 7.155,-1.563 7.137,-1.294 7.092,-0.58 7.063,0.044 6.896,0.709 6.553,2.106 4.768,2.058 3.725,1.489 2.55,0.85 2.125,-0.218 1.67,-1.419 1.523,-1.807 1.282,-2.887 0.669,-2.754 c -0.625,0.137 0.063,1.276 0.125,1.671 0.045,0.277 0.152,0.621 -0.011,0.865 -0.17,0.266 -0.565,0.31 -0.739,0.048" /></g><g
           transform="translate(78.3844,181.0921)"
           id="g236"><path
             id="path238"
             style="fill:#2b1b5d;fill-opacity:1;fill-rule:nonzero;stroke:none"
             d="M 0,0 C 0.066,-0.64 0.288,-1.242 0.159,-1.907 0.041,-2.528 0.081,-3.197 0.048,-3.877 0.015,-4.546 -0.133,-5.189 -0.166,-5.88 c -0.019,-0.473 0.059,-1.586 -0.54,-1.667 -0.584,-0.081 -0.957,0.632 -1.168,1.042 -0.303,0.595 0.115,0.917 0.322,1.467 0.203,0.547 0.391,1.179 0.499,1.756 0.147,0.761 0.096,1.667 0.096,2.45 0,0.403 0.015,0.828 -0.041,1.209 -0.041,0.277 -0.141,0.558 -0.129,0.839 0.025,0.454 0.425,0.428 0.691,0.14 C -0.115,0.998 -0.044,0.462 0,0" /></g><g
           transform="translate(80.0117,184.8164)"
           id="g240"><path
             id="path242"
             style="fill:#2b1b5d;fill-opacity:1;fill-rule:nonzero;stroke:none"
             d="M 0,0 C 0.406,0.244 0.787,0.399 1.179,0.647 1.548,0.88 1.981,1.219 2.417,1.334 2.716,1.815 3.47,2.066 3.925,2.406 4.136,2.565 4.295,2.801 4.509,2.953 4.731,3.123 5.034,3.178 5.304,3.289 5.832,3.515 6.649,4.088 6.708,3.156 6.749,2.557 6.568,1.844 6.427,1.282 6.272,0.665 6.061,0.085 5.969,-0.551 5.869,-1.224 5.917,-2.029 5.887,-2.72 5.817,-4.176 6.028,-5.636 6.139,-7.059 6.187,-7.728 6.324,-8.382 6.52,-9.011 c 0.166,-0.528 0.587,-1.386 0.502,-1.958 -0.137,-0.921 -1.05,0.073 -1.412,-0.47 -0.325,-0.495 0.473,-1.005 0.754,-1.253 0.422,-0.37 0.784,-1.127 1.397,-1.168 0.758,-0.052 0.795,0.758 0.876,1.294 0.189,1.234 -0.706,2.269 -0.872,3.426 C 7.721,-8.83 7.621,-8.578 7.588,-8.249 7.551,-7.92 7.562,-7.547 7.458,-7.237 7.27,-6.634 7.225,-5.962 7.096,-5.348 6.793,-3.929 6.878,-2.443 7.055,-1.05 7.152,-0.266 7.514,0.547 7.669,1.327 7.824,2.106 8.061,2.742 8.016,3.581 7.983,4.187 8.064,5.048 7.27,5.115 6.708,5.167 5.98,4.697 5.507,4.468 4.871,4.162 4.239,3.814 3.633,3.426 3.008,3.019 2.229,2.85 1.678,2.365 1.216,1.951 0.769,1.552 0.218,1.201 -0.2,0.935 -0.691,0.876 -1.164,0.769 -1.523,0.684 -2.188,0.684 -2.328,0.236 -2.432,-0.096 -2.184,-0.362 -1.892,-0.436 -1.327,-0.573 -0.484,-0.285 0,0" /></g><g
           transform="translate(83.4356,184.7679)"
           id="g244"><path
             id="path246"
             style="fill:#2b1b5d;fill-opacity:1;fill-rule:nonzero;stroke:none"
             d="m 0,0 c -0.107,0.976 -1.807,-0.263 -2.184,-0.477 -0.185,-0.107 -0.403,-0.237 -0.636,-0.277 -0.373,-0.059 -0.821,-0.092 -0.979,-0.514 -0.134,-0.366 0.162,-0.617 0.502,-0.683 0.566,-0.115 1.371,0.214 1.889,0.354 0.029,-0.521 -0.059,-1.175 -0.292,-1.626 -0.259,-0.495 -0.847,-0.669 -1.316,-0.894 -0.166,-0.085 -0.647,-0.185 -0.71,-0.34 -0.11,-0.263 0.148,-0.407 0.359,-0.499 0.373,-0.163 1.29,-0.063 1.645,0.136 -0.462,-0.598 -0.876,-1.382 -0.958,-2.136 -0.04,-0.369 -0.14,-0.765 -0.158,-1.138 -0.019,-0.403 0.129,-0.632 0.217,-0.998 0.503,-0.122 1.261,0.196 1.778,0.296 0.418,0.081 1.183,0.358 1.479,0.695 0.399,0.436 0.018,0.716 -0.045,1.182 -0.077,0.595 0.104,1.235 -0.543,1.608 -0.229,-0.773 -0.1,-1.423 -0.329,-2.199 -0.244,-0.015 -1.22,-0.248 -1.43,-0.129 -0.292,0.169 -0.137,0.561 -0.011,0.838 0.284,0.644 0.45,1.401 0.813,1.981 0.284,0.455 0.868,0.958 0.743,1.564 -0.056,0.281 -0.27,0.562 -0.292,0.887 -0.026,0.347 0.055,0.746 0.133,1.075 C -0.218,-0.861 0.048,-0.477 0,0" /></g><g
           transform="translate(85.2804,180.1404)"
           id="g248"><path
             id="path250"
             style="fill:#2b1b5d;fill-opacity:1;fill-rule:nonzero;stroke:none"
             d="m 0,0 c -0.129,0.284 -0.894,1.112 -1.264,0.658 -0.277,-0.34 0.41,-0.939 0.506,-1.246 0.104,-0.336 0.362,-1.256 0.95,-0.876 C 0.658,-1.161 0.181,-0.388 0,0" /></g><g
           transform="translate(82.3111,175.0477)"
           id="g252"><path
             id="path254"
             style="fill:#2b1b5d;fill-opacity:1;fill-rule:nonzero;stroke:none"
             d="m 0,0 c -0.458,-0.081 -0.939,-0.078 -1.382,-0.2 -0.289,-0.081 -0.91,-0.074 -1.035,-0.391 -0.104,-0.248 0.07,-0.477 0.288,-0.577 0.495,-0.236 1.113,0.033 1.626,0.041 1.098,0.011 2.055,0.185 3.097,0.425 0.433,0.573 0.352,1.038 0.111,1.656 C 2.258,1.175 1.926,0.806 1.659,0.506 1.404,0.506 1.057,0.377 0.809,0.27 0.506,0.133 0.466,0.085 0,0" /></g><g
           transform="translate(98.3726,182.287)"
           id="g256"><path
             id="path258"
             style="fill:#2b1b5d;fill-opacity:1;fill-rule:nonzero;stroke:none"
             d="M 0,0 C 0.698,0.21 1.637,1.127 0.957,1.892 0.935,1.889 0.913,1.892 0.902,1.907 0.828,2.044 0.081,2.132 -0.185,2.217 -0.758,2.095 -0.61,1.419 -0.699,0.983 -0.968,0.299 -0.924,-0.281 0,0" /></g><g
           transform="translate(96.0063,179.0041)"
           id="g260"><path
             id="path262"
             style="fill:#2b1b5d;fill-opacity:1;fill-rule:nonzero;stroke:none"
             d="m 0,0 c -0.344,-0.089 -0.824,-0.174 -1.172,-0.203 -0.362,-0.03 -0.698,0.229 -1.075,0.133 -0.344,-0.089 -0.296,-0.226 -0.27,-0.466 0.078,-0.75 1.733,-1.33 2.321,-1.053 0.399,0.188 0.455,0.399 0.817,0.613 0.166,0.104 1.275,0.603 1.441,0.466 C 2.472,-0.846 1.312,-2.746 1.09,-3.06 0.835,-3.411 0.576,-3.726 0.31,-4.088 0.041,-4.465 -0.067,-4.975 -0.067,-5.441 c -0.007,-0.413 0.049,-0.89 0.314,-1.223 0.307,-0.392 0.695,-0.565 0.95,-0.029 0.204,0.425 0.111,0.99 0.215,1.46 0.1,0.469 0.325,0.924 0.473,1.371 0.151,0.473 0.388,0.842 0.532,1.33 0.144,0.484 0.299,0.913 0.529,1.323 0.206,0.366 0.391,0.791 0.58,1.172 C 3.759,0.451 3.744,0.965 3.363,1.33 2.927,1.741 2.657,1.297 2.288,1.031 1.937,0.776 1.489,0.65 1.094,0.429 0.713,0.214 0.414,0.111 0,0" /></g><g
           transform="translate(101.2248,175.5135)"
           id="g264"><path
             id="path266"
             style="fill:#2b1b5d;fill-opacity:1;fill-rule:nonzero;stroke:none"
             d="m 0,0 c -0.07,-0.229 -0.226,-0.44 -0.3,-0.673 -0.077,-0.244 -0.132,-0.517 -0.217,-0.757 -0.13,-0.37 -0.592,-1.131 0.029,-1.25 0.396,-0.077 0.939,0.211 1.164,0.529 0.285,0.403 0.163,0.905 0.074,1.293 C 0.68,-0.562 0.492,0.388 0,0" /></g><g
           transform="translate(103.7687,175.1519)"
           id="g268"><path
             id="path270"
             style="fill:#2b1b5d;fill-opacity:1;fill-rule:nonzero;stroke:none"
             d="m 0,0 c -0.296,-0.48 -0.181,-0.684 0.044,-1.164 0.174,-0.381 0.089,-0.895 0.252,-1.294 0.173,-0.44 0.838,-0.454 1.179,-0.218 0.395,0.281 0.31,0.854 0.247,1.268 -0.066,0.447 -0.266,0.898 -0.54,1.286 -0.251,0.347 -0.986,0.565 -1.189,0.089" /></g><g
           transform="translate(101.6534,176.1927)"
           id="g272"><path
             id="path274"
             style="fill:#2b1b5d;fill-opacity:1;fill-rule:nonzero;stroke:none"
             d="m 0,0 c 0.229,-0.196 0.558,-0.144 0.831,-0.148 0.326,0 0.658,-0.059 0.98,-0.022 0.247,0.018 0.591,0.133 0.835,-0.045 0.211,-0.158 0.167,-0.458 0.547,-0.369 0.296,0.244 0.629,0.65 0.865,0.939 C 4.298,0.654 4.247,1.364 3.785,1.493 3.515,1.567 3.441,1.356 3.226,1.26 3.027,1.168 2.783,1.179 2.561,1.131 2.129,1.042 1.726,0.957 1.327,0.839 0.902,0.702 -0.355,0.776 0.004,0.03" /></g><g
           transform="translate(106.5285,179.4404)"
           id="g276"><path
             id="path278"
             style="fill:#2b1b5d;fill-opacity:1;fill-rule:nonzero;stroke:none"
             d="M 0,0 C -0.059,0.573 -0.714,0.451 -0.64,1.057 -0.547,1.848 0.096,2.254 0.273,3.008 0.34,3.293 0.303,3.252 0.159,3.441 0.074,3.552 -0.059,3.74 -0.181,3.799 -0.48,3.947 -0.924,3.744 -1.235,3.74 c 0.204,0.418 0.366,0.847 0.681,1.127 0.288,0.248 0.465,0.699 0.384,1.242 -0.093,0.614 -0.536,0.68 -1.098,0.599 C -1.515,6.671 -1.734,6.619 -1.981,6.63 -2.192,6.638 -2.473,6.782 -2.602,6.601 -2.946,6.12 -2.543,5.865 -2.317,5.673 -2.151,5.54 -1.874,5.688 -1.796,5.518 -1.697,5.307 -1.859,4.83 -1.97,4.653 -2.395,3.958 -3.012,2.879 -3.973,3.016 -4.165,3.045 -5.422,3.363 -5.115,2.901 l -0.033,0.008 c 0.062,-0.244 0.169,-0.514 0.399,-0.666 0.288,-0.188 0.643,-0.103 0.95,-0.221 0.158,-0.991 -1.228,-1.39 -1.438,-2.196 -0.078,-0.303 -0.096,-0.421 0.029,-0.665 0.111,-0.218 0.215,-0.373 0.444,-0.455 0.495,-0.17 0.82,0.03 1.234,0.252 0.839,0.469 1.638,0.713 2.606,0.562 C -0.403,-0.562 0.066,-0.706 0,0 M -1.948,0.469 C -2.244,0.432 -2.476,0.318 -2.783,0.406 -3.641,0.661 -2.465,1.918 -2.033,2.04 -1.334,2.243 -1.682,1.633 -1.704,1.275 -1.722,0.954 -1.818,0.728 -1.948,0.469" /></g><g
           transform="translate(119.4867,172.5708)"
           id="g280"><path
             id="path282"
             style="fill:#2b1b5d;fill-opacity:1;fill-rule:nonzero;stroke:none"
             d="m 0,0 c -0.026,-0.115 -0.018,-0.215 -0.026,-0.329 0.096,-0.181 0.059,-0.455 0.233,-0.602 0.026,-0.348 0.362,-0.795 0.499,-1.12 0.174,-0.407 0.436,-0.817 0.473,-1.286 0.037,-0.396 -0.026,-0.995 0.44,-1.18 0.443,-0.173 0.842,0.377 0.894,0.791 0.026,0.23 0,0.873 -0.1,1.057 C 2.45,-2.462 2.254,-1.948 2.162,-1.748 2.018,-1.449 1.759,-1.212 1.541,-0.942 1.393,-0.747 0.17,0.621 0,0" /></g><g
           transform="translate(113.1718,172.2958)"
           id="g284"><path
             id="path286"
             style="fill:#2b1b5d;fill-opacity:1;fill-rule:nonzero;stroke:none"
             d="m 0,0 c -0.451,-0.044 -0.858,-0.007 -1.32,0.018 -0.343,0.023 -1.075,0.174 -1.086,-0.38 0.362,-0.229 0.392,-0.588 0.876,-0.606 0.443,-0.023 0.794,-0.222 1.234,-0.2 0.92,0.026 1.445,0.296 1.989,0.554 0.543,0.259 0.99,0.366 1.485,0.732 C 3.555,0.403 3.958,0.591 4.339,0.88 4.716,1.164 5.222,1.449 5.588,1.767 5.777,1.937 5.98,2.106 6.157,2.28 6.342,2.458 6.446,2.668 6.664,2.827 7.358,3.33 7.913,3.145 8.626,2.805 8.959,2.642 8.985,2.539 9.506,2.517 c 0.277,-0.015 0.562,0.196 0.813,0.129 0.107,0.174 0.344,0.111 0.521,0.185 0.137,0.059 0.262,0.185 0.381,0.277 0.329,0.252 0.447,0.473 0.306,0.869 C 11.354,4.45 11.058,5.714 10.463,5.54 10.212,5.244 10.611,3.622 9.979,3.844 9.546,3.67 8.84,3.836 8.475,4.161 8.009,4.575 8.659,4.974 8.892,5.396 9.155,5.898 9.428,6.283 9.764,6.701 10.127,7.14 10.363,7.51 10.385,8.068 10.411,8.763 10.559,9.724 9.798,10.134 8.988,10.566 9.018,9.188 8.966,8.77 8.911,8.293 8.803,7.92 8.611,7.466 8.216,6.512 7.517,5.902 6.904,5.156 6.63,4.827 6.438,4.605 6.054,4.439 5.281,4.572 4.479,4.842 3.725,5.111 3.36,5.241 2.905,5.377 2.517,5.448 1.914,5.555 1.933,5.089 1.792,4.668 2.388,4.387 2.491,3.522 3.26,3.448 3.888,3.382 4.575,3.385 5.2,3.352 4.945,2.909 4.35,2.539 3.94,2.258 3.529,1.962 3.115,1.711 2.705,1.416 2.269,1.101 1.785,0.935 1.297,0.72 0.843,0.517 0.528,0.059 0,0" /></g><g
           transform="translate(135.0693,175.4655)"
           id="g288"><path
             id="path290"
             style="fill:#2b1b5d;fill-opacity:1;fill-rule:nonzero;stroke:none"
             d="m 0,0 c -0.392,0.078 -0.725,0.477 -1.127,0.536 -0.525,0.074 -0.614,-0.34 -0.68,-0.747 0.107,-0.221 0.31,-0.358 0.484,-0.521 0.188,-0.177 0.292,-0.358 0.44,-0.551 0.258,-0.343 0.691,-0.646 1.171,-0.462 0.466,0.182 0.636,0.529 0.754,0.969 C 1.164,-0.322 1.005,0.103 0.44,0.07 0.24,0.063 0.07,0.011 -0.122,0.037" /></g><g
           transform="translate(138.2597,175.4576)"
           id="g292"><path
             id="path294"
             style="fill:#2b1b5d;fill-opacity:1;fill-rule:nonzero;stroke:none"
             d="m 0,0 c -0.348,-0.144 -0.27,-0.591 -0.366,-0.909 -0.114,-0.377 -0.185,-0.647 0.188,-0.884 0.44,-0.292 1.527,-0.817 2.044,-0.561 0.34,-0.13 0.813,0.203 0.924,0.502 0.167,0.448 -0.096,0.676 -0.499,0.861 -0.377,0.178 -0.761,0.226 -1.131,0.429 -0.362,0.2 -0.735,0.451 -1.116,0.573" /></g><g
           transform="translate(142.6984,173.4776)"
           id="g296"><path
             id="path298"
             style="fill:#2b1b5d;fill-opacity:1;fill-rule:nonzero;stroke:none"
             d="m 0,0 c -0.366,-0.37 -0.432,-0.887 -0.991,-1.002 -0.432,-0.085 -0.824,-0.066 -1.234,-0.251 -0.288,-0.129 -0.957,-0.687 -0.687,-1.064 0.162,-0.23 0.351,-0.071 0.565,-0.015 0.266,0.066 0.499,-0.059 0.78,-0.111 0.495,-0.093 0.898,-0.081 1.371,-0.336 0.403,-0.215 0.713,-0.61 1.142,-0.396 0.724,0.366 0.314,1.859 -0.1,2.332 0.022,0.374 -0.521,0.821 -0.831,0.869" /></g><g
           transform="translate(138.081,168.9299)"
           id="g300"><path
             id="path302"
             style="fill:#2b1b5d;fill-opacity:1;fill-rule:nonzero;stroke:none"
             d="M 0,0 C -0.384,-0.248 -0.78,-0.455 -1.224,-0.551 -1.486,-0.61 -1.73,-0.725 -1.988,-0.81 c -0.233,-0.077 -0.525,0 -0.621,-0.081 -0.414,-0.344 -0.477,-0.78 0.122,-0.676 0.99,0.163 1.792,0.074 2.775,0.251 0.462,0.085 1.164,0.277 1.608,0.159 0.462,-0.126 0.954,-0.185 1.519,-0.052 0.747,0.17 0.277,1.094 -0.048,1.434 C 2.994,0.606 2.535,0.772 2.099,1.098 1.685,1.404 1.234,1.833 0.713,1.837 0.155,1.844 -0.322,1.988 -0.861,2.07 -1.471,2.151 -1.988,2.262 -2.591,2.31 -3.204,2.362 -3.844,2.458 -4.457,2.583 -4.827,2.657 -5.163,2.827 -5.906,2.942 -6.409,3.016 -6.952,3.156 -7.444,3.3 -7.983,3.459 -9.517,4.317 -9.96,3.677 -10.171,3.367 -10.02,2.99 -9.816,2.705 -9.384,2.088 -8.571,1.73 -7.858,1.552 -7.366,1.427 -6.801,1.475 -6.298,1.46 -5.817,1.438 -5.341,1.46 -4.89,1.471 -4.358,1.486 -3.833,1.438 -3.308,1.36 -2.831,1.301 -2.369,1.142 -1.9,1.075 -1.434,1.016 -1.05,0.828 -0.599,0.698 -0.233,0.591 0.843,0.547 0,0" /></g><g
           transform="translate(134.5906,161.5792)"
           id="g304"><path
             id="path306"
             style="fill:#2b1b5d;fill-opacity:1;fill-rule:nonzero;stroke:none"
             d="m 0,0 c -0.015,0.432 -0.222,1.005 -0.606,1.253 -0.181,0.122 -0.473,0.199 -0.688,0.259 -0.255,0.073 -0.558,0.099 -0.817,0.099 -0.24,0.004 -0.417,0.022 -0.613,0.226 -0.285,0.281 -0.211,0.44 -0.111,0.654 0.096,0.229 0.351,0.469 0.484,0.673 0.144,0.21 0.3,0.432 0.466,0.613 0.344,0.373 0.632,0.843 0.329,1.32 C -1.7,5.322 -1.896,5.573 -2.077,5.769 -2.251,5.95 -2.55,6.065 -2.772,6.172 -3.009,6.29 -3.223,6.39 -3.485,6.401 -3.596,6.409 -3.718,6.405 -3.829,6.379 -4.084,6.309 -4.413,6.12 -4.369,5.799 -4.313,5.706 -4.28,5.61 -4.176,5.547 -4.062,5.473 -3.892,5.414 -3.766,5.352 -3.508,5.222 -3.249,5.178 -3.097,4.908 -2.824,4.416 -3.035,3.977 -3.267,3.504 -3.408,3.219 -3.607,2.968 -3.759,2.687 -3.873,2.48 -3.977,2.258 -4.128,2.077 -4.317,1.848 -4.45,1.918 -4.727,1.926 -4.901,1.929 -5.038,1.907 -5.215,1.878 -5.407,1.844 -5.618,1.829 -5.814,1.77 -5.98,1.718 -6.176,1.611 -6.346,1.604 -6.645,1.46 -6.937,1.297 -7.218,1.138 -7.688,0.868 -8.072,0.281 -7.78,-0.17 c 0.141,-0.229 0.392,-0.51 0.695,-0.536 0.27,-0.03 0.473,-0.041 0.698,-0.207 0.219,-0.163 0.459,-0.303 0.651,-0.491 0.203,-0.2 0.362,-0.289 0.643,-0.137 0.222,0.122 0.384,0.428 0.528,0.632 0.119,0.173 0.333,0.277 0.425,0.465 0.104,0.2 0.145,0.481 0.215,0.703 0.052,0.162 0.137,0.332 0.236,0.476 0.152,0.222 0.333,0.292 0.599,0.237 0.255,-0.055 0.529,-0.085 0.762,-0.17 0.254,-0.093 0.462,-0.292 0.642,-0.477 0.126,-0.133 0.444,-0.454 0.437,-0.639 0.203,-0.222 0.203,-0.514 0.506,-0.636 0.24,-0.1 0.462,0.081 0.614,0.262 C -0.004,-0.54 0.007,-0.178 0,0 m -5.071,-0.185 c -0.214,-0.163 -0.336,-0.199 -0.595,-0.092 -0.225,0.099 -0.477,0.136 -0.695,0.244 -0.377,0.188 -0.007,0.491 0.196,0.639 0.129,0.092 0.262,0.177 0.392,0.262 0.122,0.074 0.255,0.093 0.395,0.089 0.167,-0.003 0.218,0.011 0.37,0.063 0.292,0.103 0.388,-0.211 0.351,-0.447 -0.048,-0.307 -0.166,-0.558 -0.414,-0.758" /></g></g></g></g></svg>