<svg height="270.952271" viewBox="0 0 129.25034 94.905502" width="369.068692" xmlns="http://www.w3.org/2000/svg" xmlns:xlink="http://www.w3.org/1999/xlink"><clipPath id="a"><path d="m0 841.89h595.276v-841.89h-595.276z" transform="translate(-177.5347 -168.96231)"/></clipPath><clipPath id="b"><path d="m0 841.89h595.276v-841.89h-595.276z" transform="translate(-188.4219 -178.9369)"/></clipPath><clipPath id="c"><path d="m0 841.89h595.276v-841.89h-595.276z"/></clipPath><clipPath id="d"><path d="m0 841.89h595.276v-841.89h-595.276z" transform="translate(-213.40231 -164.2533)"/></clipPath><clipPath id="e"><path d="m0 841.89h595.276v-841.89h-595.276z"/></clipPath><clipPath id="f"><path d="m0 841.89h595.276v-841.89h-595.276z" transform="translate(-239.353 -178.9369)"/></clipPath><clipPath id="g"><path d="m0 841.89h595.276v-841.89h-595.276z" transform="translate(-258.92481 -170.39391)"/></clipPath><clipPath id="h"><path d="m0 841.89h595.276v-841.89h-595.276z"/></clipPath><clipPath id="i"><path d="m0 841.89h595.276v-841.89h-595.276z" transform="translate(-297.70171 -178.9369)"/></clipPath><clipPath id="j"><path d="m0 841.89h595.276v-841.89h-595.276z" transform="translate(-316.91461 -164.42421)"/></clipPath><clipPath id="k"><path d="m0 841.89h595.276v-841.89h-595.276z" transform="translate(-338.56591 -175.49061)"/></clipPath><clipPath id="l"><path d="m0 841.89h595.276v-841.89h-595.276z"/></clipPath><clipPath id="m"><path d="m0 841.89h595.276v-841.89h-595.276z" transform="translate(-363.89791 -175.49061)"/></clipPath><clipPath id="n"><path d="m0 841.89h595.276v-841.89h-595.276z" transform="translate(-376.37551 -169.2289)"/></clipPath><clipPath id="o"><path d="m0 841.89h595.276v-841.89h-595.276z" transform="translate(-399.92041 -175.49061)"/></clipPath><clipPath id="p"><path d="m0 841.89h595.276v-841.89h-595.276z" transform="translate(-412.52341 -178.9369)"/></clipPath><clipPath id="q"><path d="m0 841.89h595.276v-841.89h-595.276z" transform="translate(-128.5986 -135.8998)"/></clipPath><clipPath id="r"><path d="m0 841.89h595.276v-841.89h-595.276z" transform="translate(-136.9434 -144.44271)"/></clipPath><clipPath id="s"><path d="m0 841.89h595.276v-841.89h-595.276z" transform="translate(-162.5757 -144.44271)"/></clipPath><clipPath id="t"><path d="m0 841.89h595.276v-841.89h-595.276z" transform="translate(-187.9282 -134.5648)"/></clipPath><clipPath id="u"><path d="m0 841.89h595.276v-841.89h-595.276z" transform="translate(-197.292 -129.9291)"/></clipPath><clipPath id="v"><path d="m0 841.89h595.276v-841.89h-595.276z" transform="translate(-215.1787 -144.44271)"/></clipPath><clipPath id="w"><path d="m0 841.89h595.276v-841.89h-595.276z"/></clipPath><clipPath id="x"><path d="m0 841.89h595.276v-841.89h-595.276z" transform="translate(-257.35741 -135.8998)"/></clipPath><clipPath id="y"><path d="m0 841.89h595.276v-841.89h-595.276z" transform="translate(-265.70211 -144.44271)"/></clipPath><clipPath id="z"><path d="m0 841.89h595.276v-841.89h-595.276z" transform="translate(-298.54351 -140.9964)"/></clipPath><clipPath id="A"><path d="m0 841.89h595.276v-841.89h-595.276z" transform="translate(-311.14701 -144.44271)"/></clipPath><clipPath id="B"><path d="m0 841.89h595.276v-841.89h-595.276z" transform="translate(-327.64111 -135.8998)"/></clipPath><clipPath id="C"><path d="m0 841.89h595.276v-841.89h-595.276z" transform="translate(-347.21481 -144.44271)"/></clipPath><clipPath id="D"><path d="m0 841.89h595.276v-841.89h-595.276z" transform="translate(-366.92531 -144.44271)"/></clipPath><clipPath id="E"><path d="m0 841.89h595.276v-841.89h-595.276z" transform="translate(-400.64651 -135.8998)"/></clipPath><clipPath id="F"><path d="m0 841.89h595.276v-841.89h-595.276z" transform="translate(-408.99121 -144.44271)"/></clipPath><clipPath id="G"><path d="m0 841.89h595.276v-841.89h-595.276z" transform="translate(-437.99121 -135.8998)"/></clipPath><clipPath id="H"><path d="m0 841.89h595.276v-841.89h-595.276z" transform="translate(-445.46971 -135.8998)"/></clipPath><clipPath id="I"><path d="m0 841.89h595.276v-841.89h-595.276z" transform="translate(-470.56051 -134.15271)"/></clipPath><clipPath id="J"><path d="m0 841.89h595.276v-841.89h-595.276z" transform="translate(-329.07861 -239.7796)"/></clipPath><clipPath id="K"><path d="m0 841.89h595.276v-841.89h-595.276z" transform="translate(-344.20071 -299.46231)"/></clipPath><g fill="#4d504d"><path clip-path="url(#a)" d="m0 0h-4.32v-3.737h4.441c1.65 0 2.646.582 2.646 1.843v.049c0 1.141-.85 1.845-2.767 1.845m1.82 4.951c0 1.116-.874 1.747-2.451 1.747h-3.689v-3.592h3.446c1.65 0 2.694.535 2.694 1.796zm-9.781 5.024h7.888c1.942 0 3.471-.534 4.441-1.505.777-.777 1.165-1.723 1.165-2.888v-.049c0-1.917-1.019-2.985-2.233-3.665 1.966-.752 3.18-1.892 3.18-4.174v-.048c0-3.107-2.524-4.661-6.359-4.661h-8.082z" transform="matrix(.35277776 0 0 -.35277776 22.255372 80.15958)"/><path clip-path="url(#b)" d="m0 0h12.814v-3.325h-9.101v-3.446h8.01v-3.325h-8.01v-3.568h9.223v-3.325h-12.936z" transform="matrix(.35277776 0 0 -.35277776 26.096135 76.64076)"/><path clip-path="url(#c)" d="m206.159 178.937h3.737v-16.989h-3.737z" transform="matrix(.35277776 0 0 -.35277776 -40.374923 139.76572)"/><path clip-path="url(#d)" d="m0 0 2.354 2.622c.971-1.068 1.917-1.699 3.107-1.699 1.408 0 2.282.849 2.282 2.815v10.946h3.834v-11.116c0-2.014-.582-3.519-1.602-4.539-1.043-1.043-2.573-1.577-4.417-1.577-2.645 0-4.393 1.165-5.558 2.548" transform="matrix(.35277776 0 0 -.35277776 34.908665 81.82081)"/><path clip-path="url(#e)" d="m230.238 178.937h3.737v-16.989h-3.737z" transform="matrix(.35277776 0 0 -.35277776 -40.374923 139.76572)"/><path clip-path="url(#f)" d="m0 0h3.447l7.96-10.46v10.46h3.689v-16.989h-3.179l-8.228 10.801v-10.801h-3.689z" transform="matrix(.35277776 0 0 -.35277776 44.063494 76.64076)"/><path clip-path="url(#g)" d="m0 0v.049c0 4.83 3.762 8.786 8.907 8.786 3.058 0 4.903-.825 6.675-2.33l-2.354-2.84c-1.311 1.092-2.476 1.723-4.442 1.723-2.719 0-4.878-2.403-4.878-5.29v-.049c0-3.107 2.135-5.388 5.145-5.388 1.359 0 2.572.339 3.519 1.019v2.427h-3.762v3.228h7.378v-7.378c-1.747-1.48-4.15-2.694-7.256-2.694-5.291 0-8.932 3.714-8.932 8.737" transform="matrix(.35277776 0 0 -.35277776 50.967992 79.65454)"/><path clip-path="url(#h)" d="m288.587 178.937h3.738v-16.989h-3.738z" transform="matrix(.35277776 0 0 -.35277776 -40.374923 139.76572)"/><path clip-path="url(#i)" d="m0 0h3.446l7.961-10.46v10.46h3.689v-16.989h-3.179l-8.228 10.801v-10.801h-3.689z" transform="matrix(.35277776 0 0 -.35277776 64.647622 76.64076)"/><path clip-path="url(#j)" d="m0 0 2.208 2.645c1.529-1.262 3.131-2.063 5.073-2.063 1.529 0 2.451.606 2.451 1.602v.048c0 .947-.582 1.432-3.422 2.161-3.422.873-5.63 1.82-5.63 5.193v.049c0 3.082 2.475 5.121 5.945 5.121 2.476 0 4.588-.777 6.311-2.16l-1.942-2.816c-1.504 1.044-2.985 1.675-4.417 1.675-1.431 0-2.184-.655-2.184-1.48v-.049c0-1.116.728-1.481 3.665-2.233 3.446-.898 5.387-2.135 5.387-5.096v-.049c0-3.374-2.572-5.267-6.237-5.267-2.573 0-5.169.899-7.208 2.719" transform="matrix(.35277776 0 0 -.35277776 71.425502 81.76052)"/><path clip-path="url(#k)" d="m0 0h-5.169v3.446h14.076v-3.446h-5.169v-13.543h-3.738z" transform="matrix(.35277776 0 0 -.35277776 79.063602 77.85654)"/><path clip-path="url(#l)" d="m351.252 178.937h3.737v-16.989h-3.737z" transform="matrix(.35277776 0 0 -.35277776 -40.374923 139.76572)"/><path clip-path="url(#m)" d="m0 0h-5.169v3.446h14.076v-3.446h-5.169v-13.543h-3.738z" transform="matrix(.35277776 0 0 -.35277776 88.000172 77.85654)"/><path clip-path="url(#n)" d="m0 0v9.708h3.737v-9.61c0-2.768 1.384-4.2 3.665-4.2 2.282 0 3.665 1.384 3.665 4.078v9.732h3.738v-9.586c0-5.145-2.888-7.67-7.451-7.67s-7.354 2.549-7.354 7.548" transform="matrix(.35277776 0 0 -.35277776 92.401992 80.06553)"/><path clip-path="url(#o)" d="m0 0h-5.169v3.446h14.076v-3.446h-5.169v-13.543h-3.738z" transform="matrix(.35277776 0 0 -.35277776 100.708102 77.85654)"/><path clip-path="url(#p)" d="m0 0h12.814v-3.325h-9.1v-3.446h8.009v-3.325h-8.009v-3.568h9.223v-3.325h-12.937z" transform="matrix(.35277776 0 0 -.35277776 105.154162 76.64076)"/><path clip-path="url(#q)" d="m0 0v.049c0 2.912-2.136 5.339-5.146 5.339-3.009 0-5.096-2.378-5.096-5.291v-.048c0-2.913 2.136-5.34 5.145-5.34 3.01 0 5.097 2.379 5.097 5.291m-14.15 0v.049c0 4.829 3.811 8.786 9.053 8.786 5.243 0 9.005-3.908 9.005-8.738v-.048c0-4.83-3.811-8.786-9.054-8.786-5.242 0-9.004 3.907-9.004 8.737" transform="matrix(.35277776 0 0 -.35277776 4.991805 91.82329)"/><path clip-path="url(#r)" d="m0 0h12.936v-3.397h-9.199v-3.617h8.107v-3.398h-8.107v-6.577h-3.737z" transform="matrix(.35277776 0 0 -.35277776 7.935665 88.80955)"/><path clip-path="url(#s)" d="m0 0h12.936v-3.397h-9.198v-3.617h8.106v-3.398h-8.106v-6.577h-3.738z" transform="matrix(.35277776 0 0 -.35277776 16.97817 88.80955)"/><path clip-path="url(#t)" d="m0 0-2.257 5.51-2.257-5.51zm-3.932 10h3.447l7.28-17.111h-3.907l-1.553 3.81h-7.184l-1.553-3.81h-3.811z" transform="matrix(.35277776 0 0 -.35277776 25.921968 92.29425)"/><path clip-path="url(#u)" d="m0 0 2.208 2.646c1.529-1.262 3.131-2.063 5.073-2.063 1.529 0 2.451.606 2.451 1.602v.048c0 .947-.582 1.432-3.421 2.161-3.423.873-5.631 1.82-5.631 5.193v.049c0 3.082 2.475 5.121 5.945 5.121 2.476 0 4.588-.778 6.311-2.16l-1.942-2.816c-1.504 1.043-2.985 1.675-4.417 1.675s-2.184-.655-2.184-1.48v-.049c0-1.116.728-1.481 3.665-2.234 3.446-.897 5.387-2.134 5.387-5.095v-.049c0-3.374-2.572-5.267-6.237-5.267-2.573 0-5.169.898-7.208 2.718" transform="matrix(.35277776 0 0 -.35277776 29.225309 93.92962)"/><path clip-path="url(#v)" d="m0 0h3.738v-6.723h6.892v6.723h3.738v-16.989h-3.738v6.82h-6.892v-6.82h-3.738z" transform="matrix(.35277776 0 0 -.35277776 35.535339 88.80955)"/><path clip-path="url(#w)" d="m234.964 144.443h3.738v-16.989h-3.738z" transform="matrix(.35277776 0 0 -.35277776 -40.374923 139.76572)"/><path clip-path="url(#x)" d="m0 0v.049c0 2.912-2.136 5.339-5.145 5.339-3.01 0-5.097-2.378-5.097-5.291v-.048c0-2.913 2.136-5.34 5.145-5.34 3.01 0 5.097 2.379 5.097 5.291m-14.149 0v.049c0 4.829 3.81 8.786 9.052 8.786 5.243 0 9.005-3.908 9.005-8.738v-.048c0-4.83-3.811-8.786-9.053-8.786-5.243 0-9.004 3.907-9.004 8.737" transform="matrix(.35277776 0 0 -.35277776 50.415052 91.82329)"/><path clip-path="url(#y)" d="m0 0h3.447l7.96-10.46v10.46h3.689v-16.989h-3.179l-8.228 10.801v-10.801h-3.689z" transform="matrix(.35277776 0 0 -.35277776 53.358872 88.80955)"/><path clip-path="url(#z)" d="m0 0h-5.169v3.446h14.076v-3.446h-5.169v-13.543h-3.738z" transform="matrix(.35277776 0 0 -.35277776 64.944592 90.02533)"/><path clip-path="url(#A)" d="m0 0h12.814v-3.325h-9.101v-3.446h8.01v-3.325h-8.01v-3.568h9.223v-3.325h-12.936z" transform="matrix(.35277776 0 0 -.35277776 69.390822 88.80955)"/><path clip-path="url(#B)" d="m0 0v.049c0 4.829 3.641 8.786 8.859 8.786 3.204 0 5.12-1.068 6.698-2.622l-2.378-2.742c-1.311 1.189-2.645 1.917-4.345 1.917-2.863 0-4.926-2.378-4.926-5.291v-.048c0-2.913 2.014-5.34 4.926-5.34 1.942 0 3.131.777 4.466 1.99l2.379-2.402c-1.748-1.869-3.69-3.034-6.966-3.034-5 0-8.713 3.859-8.713 8.737" transform="matrix(.35277776 0 0 -.35277776 75.209572 91.82329)"/><path clip-path="url(#C)" d="m0 0h3.738v-6.723h6.892v6.723h3.738v-16.989h-3.738v6.82h-6.892v-6.82h-3.738z" transform="matrix(.35277776 0 0 -.35277776 82.114742 88.80955)"/><path clip-path="url(#D)" d="m0 0h3.446l7.961-10.46v10.46h3.689v-16.989h-3.179l-8.228 10.801v-10.801h-3.689z" transform="matrix(.35277776 0 0 -.35277776 89.068162 88.80955)"/><path clip-path="url(#E)" d="m0 0v.049c0 2.912-2.136 5.339-5.145 5.339-3.01 0-5.097-2.378-5.097-5.291v-.048c0-2.913 2.136-5.34 5.145-5.34 3.01 0 5.097 2.379 5.097 5.291m-14.149 0v.049c0 4.829 3.81 8.786 9.052 8.786 5.243 0 9.005-3.908 9.005-8.738v-.048c0-4.83-3.811-8.786-9.053-8.786-5.243 0-9.004 3.907-9.004 8.737" transform="matrix(.35277776 0 0 -.35277776 100.964252 91.82329)"/><path clip-path="url(#F)" d="m0 0h3.738v-13.591h8.47v-3.398h-12.208z" transform="matrix(.35277776 0 0 -.35277776 103.908082 88.80955)"/><path clip-path="url(#G)" d="m0 0v.049c0 2.912-2.136 5.339-5.146 5.339-3.008 0-5.096-2.378-5.096-5.291v-.048c0-2.913 2.136-5.34 5.145-5.34 3.01 0 5.097 2.379 5.097 5.291m-14.149 0v.049c0 4.829 3.81 8.786 9.052 8.786 5.243 0 9.005-3.908 9.005-8.738v-.048c0-4.83-3.81-8.786-9.054-8.786-5.242 0-9.003 3.907-9.003 8.737" transform="matrix(.35277776 0 0 -.35277776 114.138642 91.82329)"/><path clip-path="url(#H)" d="m0 0v.049c0 4.829 3.762 8.786 8.907 8.786 3.058 0 4.903-.826 6.674-2.33l-2.353-2.84c-1.311 1.092-2.476 1.723-4.442 1.723-2.719 0-4.879-2.403-4.879-5.291v-.048c0-3.108 2.136-5.389 5.146-5.389 1.359 0 2.572.34 3.519 1.02v2.426h-3.762v3.229h7.378v-7.378c-1.748-1.48-4.15-2.694-7.256-2.694-5.291 0-8.932 3.714-8.932 8.737" transform="matrix(.35277776 0 0 -.35277776 116.776882 91.82329)"/><path clip-path="url(#I)" d="m0 0-6.528 10.29h4.368l4.054-6.82 4.126 6.82h4.247l-6.53-10.218v-6.771h-3.737z" transform="matrix(.35277776 0 0 -.35277776 125.628362 92.43963)"/><path clip-path="url(#J)" d="m0 0c.675.062 1.224.709 2.133.994 1.731.544 5.165 1.061 6.404 1.194 3.293.353 8.578-.226 8.965 2.187.648 3.992-6.831 2.226-9.175 2.784-.167 1.48.508 2.177.641 3.379 1.17.763 2.84 1.065 3.626 2.188-.115 2.016-2.04 2.343-3.626 2.984-1.285 3.4 2.582 4.323 1.492 7.556-2.125 1.559-5.93 2.301-9.394 1.987-.168-4.098 2.725-6.704 1.496-11.533-.941-1.458-4.152-1.813-3.416-4.176.774-.671 2.628-.335 3.205-1.192-.184-1.028-.282-2.126-.218-3.381-1.916-1.129-4.25-1.871-5.763-3.38.559-.303 2.619-1.683 3.63-1.591m-14.088 7.755c.651.185 1.47 1.211 1.495 1.989.059 2.191-3.627 3.73-5.766 3.976-.715-3.182 1.055-6.87 4.271-5.965m23.056-22.273c.803.543 1.96 2.409 3.199 3.781.779.862 2.076.985 1.922 2.187-.153 1.206-2.236 1.929-4.695 1.791-.641-2.457-1.508-4.699-3.629-5.767-1.484 2.157-4.203 4.984-5.552.994-.46.498-1.429.522-1.704 1.196.676 1.812 1.094 3.553 3.199 4.172 3.15.929 7.962 0 10.459.995-.133.769-.177.819.213 1.392-2.122 2.324-7.564.872-10.886.994-1.129 2.11-4.41 4.184-7.898 2.385-1.389 3.77 1.286 4.854 1.495 8.153-.546.215-1.019-.604-1.283 0-.79 1.683 1.879 3.683 1.07 5.965 4.096 3.75-3.536 7.813-7.899 6.76-.07-2.62 2.349-4.72 2.561-7.754.175-2.5-.934-4.893-.854-7.755-2.266-1.206-4.448-3.314-8.109-2.584.067-2.722.869-4.756 3.843-4.775 1.631.866 2.409 2.527 4.482 2.983 1.141-1.782.74-5.008 2.983-5.764 1.362.858.366 3.905 2.138 4.374.702-1.138 2.313-1.426 2.347-3.183-2.831-1.769-5.885-3.804-9.178-4.97-1.758-.622-3.926-.332-5.551-1.59 1.219-.92 2.865-2.006 4.699-1.789.867.1 1.579 1.004 2.562 1.191 2.11.407 4.199.129 5.545.8-1.236-3.885-5.402-5.045-7.895-7.76-2.608-.883-5.119-1.858-6.616-3.777 3.959-1.818 7.675.012 10.245 1.393 2.637 1.417 3.426 3.255 5.549 4.573-.555-3.912-1.855-8.815-1.283-12.725.379-2.553 2.011-5.262 4.699-5.966 3.558 3.71 9.464 5.049 10.458 10.536-.586.182-1.131.407-.855 1.396 1.79-.524 3.129-1.462 5.126-1.791 1.114-2.613 6.01-2.151 8.538-.995 4.166-.488 7.862 1.155 9.607 3.579-6.224 3.816-18.915 1.605-23.052 7.355m-9.608-10.734c.485 3.902-.774 8.249 2.773 9.345.541-.496-.244-.781-.213-1.394.717-.643 1.572-.858 2.775-.594 1.136-1.393 2.443-2.63 3.415-4.175-2.801-1.045-5.307-4.006-8.75-3.182m-117.422 41.131c4.322 4.719-1.864 10.497-7.754 9.495-.198-4.859 4.112-5.41 4.796-9.431-4.116-1.592-6.988-3.674-11.261-5.212-2.91-1.047-6.875-2.535-9.828-2.058-1.007.164-1.466 1.306-2.711.971-2.217-2.019.721-4.703 1.681-6.409 1.711-.627 3.309-1.906 5.66-1.26 1.21 2.206 2.877 4.146 5.34 4.885 1.869.563 4.013.242 5.704.786 1.713.551 2.914 1.856 4.376 2.406 3.56 1.337 7.949 1.386 11.87 1.786 3.73.38 8.028-1.777 10.467.222.631 1.894.197 4.417-.788 5.481-6.034.306-11.121-3.5-17.552-1.662m-34.605-26.65c-3.666-3.908-5.981-13.307-14.157-8.846-.316 2.462-2.14 3.422-2.781 5.56.442 4.14-1.584 9.218 2.023 11.629 2.396 1.085 5.896 2.483 6.068 5.056.217 3.275-4.505 4.344-7.584 3.793.404 1.615.422 3.619 1.01 5.054 7.161 2.123.383 10.563-4.803 10.868-1.398-3.192-2.806-6.167-3.285-10.363-.46-3.999-2.873-8.125-3.035-11.881-.15-3.395 1.843-8.288-.252-10.364 1.455.079.555-1.363.758-2.022.564-1.83 2.107-4.775 3.287-7.582 1.128-2.685 2.557-5.504 3.792-7.078 3.307-4.23 10.243-5.018 16.683-3.034 1.142 1.473 2.861 2.366 4.551 3.287.183 4.757 1.671 13.303-2.275 15.923m-31.601 11.125c-.397 3.481-2.51 6.973-.505 9.35-1.384 3.632-6.925 6.135-10.87 4.806-1.223-6.108 6.197-10.172 3.288-17.949-2.527 1.149-6.283 4.733-9.103 1.767.125-4.171 3.221-5.37 3.793-9.099 2.388.48 4.336 1.392 6.067 2.529.076-2.535 1.036-4.189 1.262-6.572-1.281-1.472-3.293-3.251-6.32-4.803-2.406-1.236-7.87-2.218-8.087-4.551-.204-2.152 4.972-6.913 8.848-5.813 1.999 2.804 3.602 6.002 6.57 7.835.719-1.139 1.683-2.025 3.037-2.527.601 1.672 1.232 3.318 2.274 4.551.239 4.395 2.208 7.061 3.792 10.112-1.865-.326-2.796-1.589-4.802-1.77-1.431 3.773 1.265 7.683.756 12.134m68.163-19.55c.16 4.638-2.608 4.666-5.309 6.939 3.706 1.39 8.329.052 10.744 2.267.181 1.286-.705 1.551-.854 2.521 1.148 2.489 1.865 4.848 2.437 7.454 1.285.673 2.161 1.776 2.356 3.586-1.222 1.645-2.889 1.435-4.732 2.153-.697.271-1.017 1.005-1.566 1.171-7.603 2.317-12.5-6.023-18.958-3.451-2.132-2.594 1.169-4.568 2.353-6.874.706-1.379.426-3.291 1.026-5.028.828-2.422 2.418-4.151 3.517-5.535.783-.203.881.316 1.596.192 2.058-2.711 2.527-6.473 1.134-10.492-1.354-1.607-4.03-1.834-4.864-3.984 1.587-3.161 4.755-5.735 8.973-5.657 1.031 3.094 2.944 7.133 2.749 11.082-.058 1.168-.643 2.489-.602 3.656m-7.911 12.682c-.28 1.013-.988 1.509-1.086 2.299-.585 4.659 5.505 6.51 9.224 5.715.068-1.626-.041-2.367.371-3.877-.304.005-.607.014-.913.021-.292-.951.346-1.006.422-1.601-.453-.148-.618-.593-.707-1.123-2.798-.609-3.678-1.919-7.311-1.434m232.028 6.298c2.419-.12 1.992 1.355 3.093 2.746 1.169 1.483 2.737 1.77 2.603 3.803 1.418 2.024 4.351 1.157 6.577 2.065 1.59.653 2.46 2.736 5.062 2.208.616.332 1.596 1.326 2.126.54-.36-2.407-2.445-3.261-2.943-5.543 3.308-.984 6.746.836 10.049 1.602.622.466.295 1.786.285 2.819-1.698 1.145-2.71 3.059-4.525 4.077-2.597-1.368-6.425-1.646-9.044-.257-.08 2.198 1.502 2.419 1.507 4.177.02 4.737-7.592 4.529-10.502 2.9 1.39-3.743 5.783-5.082 4.185-9.917-1.159-.936-2.149-2.025-3.522-2.77-.429.17-2.205.462-3.02.058-.749-.368-3.553-4.049-3.648-4.502-.292-1.393.69-2.912 1.717-4.006m-1.246-5.026c.951 4.434-1.706 7.668-3.356 10.607-.555.255-.47-1.03-.85-.26-.685 1.745.284 3.678 1.27 4.594-1.285 3.644 3.158 3.391 2.946 5.544-.099.99-3.446 2.177-4.207 2.153-1.602-.054-2.394-1.668-4.024-1.502-2.682-2.154-6.403-3.892-7.561-7.944 5.423-.716 4.656 4.14 9.27 4.15.164-3.197-.668-6.542.495-9.461.372-.929 1.304-1.455 1.412-2.298.299-2.335-1.565-3.213-4.11-3.883-1.2 2.842-.629 7.643-3.878 8.208 1.351-4.37-.329-8.675-.369-13.603-.064-8.382-3.758-17.012 2.176-21.015 1.807 3.663 1.193 8.074.661 12.109-.477 3.634 1.179 7.242 2.044 10.454-.217.877.273 1.12.113 1.947 1.963-2.347 5.84-1.738 7.968.2m6.194 5.283c2.372-3.94 9.304-1.591 10.696 1.637.114.883-.735.702-.52 1.697-3.984 2.083-8.699.698-10.176-3.334m30.606-20.397c-.326 1.349.132 2.943-.43 4.075-.611 1.235-2.21 1.417-3.134 2.206-.733-2.618-1.423-5.274-2.176-7.872-1.775-2.411-7.166-4.099-9.634-1.367-3.004 4.2-4.972 14.458-.261 17.452.614.056 1.415-.045 1.705.303.466.403.357 1.322.548 1.971-.516.487-1.19.801-1.379 1.651-2.751 1.721-5.238-.213-7.462-1.681-7.042-1.319-11.887-4.775-18.192-6.77 1.787-3.947 8.528-4.265 11.081-1.579-.053-2.772-1.429-4.831-2.924-5.974-1.36-1.042-1.991-1.674-3.1-2.535-2.343-1.813-5.628-2.517-7.747-4.499-.379-.581.516-.618-.147-1.302 2.541-.386 5.068-.518 7.54.177 1.413.4 2.231 1.433 3.341 2.116 2.442 1.502 5.057 2.723 4.843 6.29 1.936 1.877 2.417 5.067 3.027 8.135 1.068.542 1.453 1.698 3.147 1.671.789-3.002-1.478-5.648-1.723-8.28-.569-6.111 3.47-12.102 6.559-14.106 4.983-.902 9.355-.75 14.657.119 1.216.881 2.076 2.09 3.066 3.177.73 2.228-.656 4.344-1.205 6.622m-254.792 5.829c.744-6.141 5.332-9.703 10.453-10.924 3.347 6.444-3.685 10.661-10.453 10.924m-24.711-6.51c-.242-1.369.464-3.743 2.41-4.145 1.364 2.483 6.234 5.626 3.839 9.014-1.178-1.812-5.765-2.114-6.249-4.869m179.398 24.279c.429-1.402.947-3.734 2.849-3.862 1.182 3.743-2.2 7.995-.814 11.589-.704 1.7-4.705 3.174-6.308 1.425 3.02-2.129 3.197-5.643 4.273-9.152m37.825-7.725c-1.509 2.18-1.833 5.901-4.474 6.708-.556.172-1.319-.245-1.829-.204-1.624.135-2.948 1.512-4.675 1.627.37 3.93 2.226 8.052 3.457 11.795.734.416 1.236 1.067 2.034 1.426v1.423c-2.104 2.331-9.54 4.648-11.188.408 1.952-.219 4.982-.484 5.288-2.646.165-1.17-.848-3.056-1.626-4.067-.797 1.087-2.411 3.115-4.275 1.828.241-1.387 1.151-2.105 2.035-2.846.965-.079 1.697.065 2.446.205-.036-1.189.088-2.534-.613-3.052-1.598.939-3.412 1.009-4.883-.202.645-2.059 2.82-2.76 4.883-1.831-.539-1.024-.433-2.684-1.425-3.253h-4.473c.34 1.822-1.314 2.531-1.221 3.864.076 1.105 1.409 1.472 1.623 2.847-.548 1.682-1.516 2.952-3.861 2.847-.304-1.12-.126-2.72-1.014-3.253-.99.637-1.981 1.27-3.662 1.219-.842-1.676.62-2.877 1.22-4.271-.379-1.318-2.024-1.365-2.236-2.847 1.642-.156 6.012 1.892 7.119-.813-3.153-.211-5.937-2.189-8.138-1.625.656.226.513 1.25.814 1.828-1.037 2.703-.56 6.34 0 9.762 2.005.845 4.105 1.59 5.694 2.848 1.132-.634 3.032-1.967 4.475-1.017.177.816-.884 1.781 0 1.017-.157 1.646-1.658 2.252-1.629 4.067.036 1.952 2.172 3.808 1.018 5.693-.449.735-1.457.978-3.049 1.221.282-2.095.295-4.64-1.223-5.492-1.133.355-1.601 1.38-3.049 1.423-.145-2.177.957-3.108 1.423-4.677-1.227-1.076-1.88-2.727-3.455-3.456-1.288.909-1.878 4.632 1.016 4.679-.446 3.357-3.03 5.635-6.304 5.488 2.721-7.096-.76-17.987 2.846-24.2-2.653-1.632-4.92-2.649-8.135-3.454-.808.139-.484 1.413-1.425 1.422-1.517-1.327-1.795-3.9-3.86-4.679-1.072-2.765-.713-5.6 1.014-7.523.839-.111 1.37-.529 1.832-1.017 2.072 2.53.761 6.293 3.256 8.135.693.513 1.797.914 3.253 1.219.386.361.48 1.01.811 1.426 4.12.401 8.033 2.994 12.406 3.457 2.906.304 6.137.672 9.151.812 1.404.066 3.112.8 4.273-.406-1.341-1.646-2.944-3.026-5.085-3.863-1.372 1.066-2.782 2.095-4.068 3.253-1.242-3.669-5.95-2.498-9.764-4.475-.699-.362-1.154-1.072-1.827-1.423-1.192-.617-2.3-1.061-3.664-1.017-1.961-1.45-.994-5.771 1.629-6.101.611.54.749 1.554 1.016 2.44.965 1.21 2.923.84 4.271 1.626 1.145.671 1.62 2.106 2.847 2.644 1.559.683 3.506.332 4.475 2.035 1.048-4.506-2.389-5.382-6.101-4.474-.281-2.072 1.883-2.694 1.829-3.864-1.592-.17-1.572-1.854-3.66-1.016-2.732-.996-5.677-1.781-8.539-2.644 1.051-2.146 4.545-1.7 6.302-2.645 2.212.92 4.635 2.673 7.324 2.441.05-3.015-.201-8.042-2.648-10.168-.122-.108-.827-.387-1.218-.609-2.092-1.191-4.536-1.484-7.321-2.035 1.216-4.443 5.437-5.113 10.168-5.694.858.621 1.827 1.073 2.363 1.405 2.246 1.39 2.75 4.661 3.534 7.34.297 1.007.47 2.212.61 2.846.476 2.126.762 5.389.762 7.326 2.591.135 6.823-.541 7.171 1.42.587 3.325-5.732 2.585-8.337 3.864.967 2.081 1.98 4.119 3.459 5.694 4.038-1.339 8.806 1.17 12.807 1.831m-111.104-11.471c-7.607 2.638-19.073 1.848-21.984 9.188 2.688 1.205 5.163 2.64 6.554 5.233 1.772 1.248 3.897 2.112 4.924 4.15-1.157 2.683-3.377 5.468-6.164 5.906-2.122-1.229-1.684-4.902-2.983-7.176-1.168-2.052-4.242-4.924-6.531-4.554-2.851.463-5.049 5.561-4.221 9.479.183.866 1.136 1.603 1.225 2.461.232 2.291-2.038 3.565-1.377 6.193 1.142 1.134 3.69 2.013 5.958 1.155-.381-2.486-.24-5.893-1.65-8.133-.61-.973-2.133-1.106-2.347-1.967-.45-1.835 1.678-4.046 3.239-5.12 1.668 1.668 2.072 4.697 4.954 5.063 1.078 3.952 2.097 7.97 3.806 11.244-1.624 1.986-4.015 3.737-6.677 4.33-4.908 1.095-8.781-2.333-11.765-4.596-.331-1.689-1.211-2.789-2.403-3.557-1.288 2.24-3.352 3.764-6.685 4.101-4.161-1.429-7.575-3.665-10.903-5.992.025-1.414 1.623-1.77 2.162-3.26 1.934-5.355-.896-14.471-2.052-19.726-1.68-2.406-3.791-5.239-5.94-7.075-.638-.548-2.093-.94-1.655-1.764 5.992.572 9.419 3.894 10.581 9.645 1.786.913 3.269 2.152 5.329 2.773.596-4.314-.327-8.796-.647-12.04-.466-1.465-2.405-2.087-2.644-4.003-.318-2.587 2.702-6.21 4.793-6.083 2.337.138 2.463 2.63 3.164 5.804.355 1.61 1.295 3.071 1.295 4.507 0 .892-.58 1.579-.594 2.523-.029 1.656.716 3.231.626 4.985-.133 2.683-.418 5.066-.645 7.532.846.745 1.287 1.922 1.265 3.599.091.6-1.281-.17-.885.713 1.321 3.302.043 10.6 3.153 12.18.544-.67 1.684-.78 1.991-1.663.272-2.881-.147-5.205-.724-7.713-2.063-.883-4.067-3.308-2.488-6.06 2.16-.456 2.059-1.303 2.172-3.033.134-2.122-.171-3.564-.167-4.773.022-9.058-.979-20.825 7.881-21.894 3.323 4.769 8.835 7.19 9.398 14.922 2.566-.617 2.89-3.935 5.752-4.755 1.076-.308 4.241-.361 5.911-.206 2.018.188 6.775 1.803 7.825 2.459.082.051.161.808.257.898.754.725 2.854 1.2 2.361 2.423-.564.783-1.489 1.345-2.445 1.677m-50.593 11.098c-.943 1.777.121 2.967-.046 5.235 1.363-.275 2.941-.936 3.874.093 1.145-.252-.204-2.829.561-3.433-1.072-1.05-2.763-1.436-4.389-1.895m4.158 8.274c-1.491.588-2.466 1.661-4.255 1.968-1.055 4.346 1.718 6.439 5.017 6.881.926-2.553-.319-5.873-.762-8.849m17.327-25.184c-2.576 2.775-.803 8.266-2.078 12.133 3.784-1.963 7.011-4.456 9.754-7.393-1.883-2.303-4.389-3.94-7.676-4.74" transform="matrix(.35277776 0 0 -.35277776 75.716692 55.17681)"/><path clip-path="url(#K)" d="m0 0h-19.987c-7.274 1.834-14.929 8.756-20.292 15.251 8.951 11.917 13.28 26.278 12.419 41.051 3.467-2.079 7.489-6.452 10.275-15.471.719-2.33 1.338-4.724 1.938-7.038 2.572-9.94 5.469-21.125 17.266-22.423v-9.751c0-.892-.726-1.619-1.619-1.619m-91.911 1.619v9.686c12.443.887 15.413 12.335 18.04 22.488.599 2.314 1.218 4.708 1.938 7.038 2.807 9.091 6.871 13.46 10.357 15.52-.744-12.544 2.244-24.789 8.763-35.676 4.609-7.698 10.847-15.615 18.156-20.675h-55.635c-.892 0-1.619.727-1.619 1.619m1.619 91.91h41.903l-.222-11.351c-14.918-.08-29.455-.674-43.3-1.77v11.502c0 .893.727 1.619 1.619 1.619m91.911-1.619v-11.501c-13.847 1.096-28.385 1.689-43.299 1.769l-.216 11.351h41.896c.893 0 1.619-.726 1.619-1.619m-33.192-27.648c-1.43.208-2.773-.577-3.336-1.832-.324-.765-.197-1.565-.061-2.17.262-1.161.695-2.965.711-5.631.328-12.089-3.543-23.816-10.614-33.76-6.932 9.69-10.729 21.503-10.319 33.838.039 1.179.482 4.433.703 6.004.19 1.353-.462 2.745-1.708 3.307-.529.238-1.131.334-1.748.244-8.427-1.215-16.59-8.697-20.477-21.808-4.632-15.621-6.79-23.107-13.489-24.072v55.008c6.993.631 31.475 2.363 46.765 2.363 15.641 0 39.12-1.488 46.765-2.339v-54.886c-6.099 1.425-8.266 7.61-12.715 22.613-3.888 13.111-12.05 21.906-20.477 23.121m31.573 32.462h-90.292c-2.653 0-4.812-2.16-4.812-4.814v-90.291c0-2.654 2.159-4.813 4.812-4.813h90.292c2.654 0 4.813 2.159 4.813 4.813v90.291c0 2.654-2.159 4.814-4.813 4.814" transform="matrix(.35277776 0 0 -.35277776 81.051432 34.12208)"/></g></svg>