<svg height="316.227766" viewBox="0 0 108.67566 108.66578" width="316.227766" xmlns="http://www.w3.org/2000/svg" xmlns:xlink="http://www.w3.org/1999/xlink"><clipPath id="a"><path d="m0 595.276h841.89v-595.276h-841.89z" transform="translate(-409.38131 -305.47891)"/></clipPath><clipPath id="b"><path d="m0 595.276h841.89v-595.276h-841.89z" transform="translate(-397.48051 -293.10671)"/></clipPath><clipPath id="c"><path d="m0 595.276h841.89v-595.276h-841.89z" transform="translate(-401.90851 -301.52101)"/></clipPath><clipPath id="d"><path d="m0 595.276h841.89v-595.276h-841.89z" transform="translate(-404.51951 -306.92511)"/></clipPath><clipPath id="e"><path d="m0 595.276h841.89v-595.276h-841.89z" transform="translate(-402.67171 -304.37821)"/></clipPath><clipPath id="f"><path d="m0 595.276h841.89v-595.276h-841.89z" transform="translate(-398.22091 -294.32521)"/></clipPath><clipPath id="g"><path d="m0 595.276h841.89v-595.276h-841.89z" transform="translate(-399.54931 -296.63641)"/></clipPath><clipPath id="h"><path d="m0 595.276h841.89v-595.276h-841.89z" transform="translate(-400.25091 -298.72771)"/></clipPath><clipPath id="i"><path d="m0 595.276h841.89v-595.276h-841.89z" transform="translate(-422.92371 -323.54981)"/></clipPath><clipPath id="j"><path d="m0 595.276h841.89v-595.276h-841.89z" transform="translate(-415.42951 -317.70101)"/></clipPath><clipPath id="k"><path d="m0 595.276h841.89v-595.276h-841.89z" transform="translate(-410.57701 -314.17151)"/></clipPath><clipPath id="l"><path d="m0 595.276h841.89v-595.276h-841.89z" transform="translate(-412.75291 -316.43981)"/></clipPath><clipPath id="m"><path d="m0 595.276h841.89v-595.276h-841.89z" transform="translate(-421.85521 -322.60981)"/></clipPath><clipPath id="n"><path d="m0 595.276h841.89v-595.276h-841.89z" transform="translate(-419.81591 -320.89051)"/></clipPath><clipPath id="o"><path d="m0 595.276h841.89v-595.276h-841.89z" transform="translate(-417.88391 -319.83011)"/></clipPath><clipPath id="p"><path d="m0 595.276h841.89v-595.276h-841.89z" transform="translate(-406.50261 -309.49321)"/></clipPath><clipPath id="q"><path d="m0 595.276h841.89v-595.276h-841.89z" transform="translate(-435.99481 -305.56461)"/></clipPath><clipPath id="r"><path d="m0 595.276h841.89v-595.276h-841.89z" transform="translate(-398.24111 -276.857)"/></clipPath><clipPath id="s"><path d="m0 595.276h841.89v-595.276h-841.89z" transform="translate(-363.79581 -240.84391)"/></clipPath><clipPath id="t"><path d="m0 595.276h841.89v-595.276h-841.89z" transform="translate(-428.92511 -209.75281)"/></clipPath><clipPath id="u"><path d="m0 595.276h841.89v-595.276h-841.89z" transform="translate(-417.24921 -217.5134)"/></clipPath><clipPath id="v"><path d="m0 595.276h841.89v-595.276h-841.89z" transform="translate(-404.20491 -222.87731)"/></clipPath><clipPath id="w"><path d="m0 595.276h841.89v-595.276h-841.89z" transform="translate(-396.07731 -210.1223)"/></clipPath><clipPath id="x"><path d="m0 595.276h841.89v-595.276h-841.89z" transform="translate(-536.20121 -324.95571)"/></clipPath><clipPath id="y"><path d="m0 595.276h841.89v-595.276h-841.89z" transform="translate(-543.12112 -312.14431)"/></clipPath><clipPath id="z"><path d="m0 595.276h841.89v-595.276h-841.89z" transform="translate(-541.41791 -306.93581)"/></clipPath><clipPath id="A"><path d="m0 595.276h841.89v-595.276h-841.89z" transform="translate(-541.09121 -296.0231)"/></clipPath><clipPath id="B"><path d="m0 595.276h841.89v-595.276h-841.89z" transform="translate(-532.78162 -287.94101)"/></clipPath><clipPath id="C"><path d="m0 595.276h841.89v-595.276h-841.89z" transform="translate(-531.38902 -283.56251)"/></clipPath><clipPath id="D"><path d="m0 595.276h841.89v-595.276h-841.89z" transform="translate(-532.43461 -272.05531)"/></clipPath><clipPath id="E"><path d="m0 595.276h841.89v-595.276h-841.89z" transform="translate(-536.89751 -261.3704)"/></clipPath><clipPath id="F"><path d="m0 595.276h841.89v-595.276h-841.89z" transform="translate(-526.32502 -259.88411)"/></clipPath><clipPath id="G"><path d="m0 595.276h841.89v-595.276h-841.89z" transform="translate(-523.49041 -246.64961)"/></clipPath><clipPath id="H"><path d="m0 595.276h841.89v-595.276h-841.89z" transform="translate(-521.00921 -230.87921)"/></clipPath><clipPath id="I"><path d="m0 595.276h841.89v-595.276h-841.89z" transform="translate(-511.49842 -229.01251)"/></clipPath><clipPath id="J"><path d="m0 595.276h841.89v-595.276h-841.89z" transform="translate(-505.34452 -212.36641)"/></clipPath><clipPath id="K"><path d="m0 595.276h841.89v-595.276h-841.89z" transform="translate(-496.25821 -211.38631)"/></clipPath><clipPath id="L"><path d="m0 595.276h841.89v-595.276h-841.89z" transform="translate(-490.70021 -198.6365)"/></clipPath><clipPath id="M"><path d="m0 595.276h841.89v-595.276h-841.89z" transform="translate(-484.13241 -200.86451)"/></clipPath><clipPath id="N"><path d="m0 595.276h841.89v-595.276h-841.89z" transform="translate(-479.29611 -185.90551)"/></clipPath><clipPath id="O"><path d="m0 595.276h841.89v-595.276h-841.89z" transform="translate(-465.53811 -189.23161)"/></clipPath><clipPath id="P"><path d="m0 595.276h841.89v-595.276h-841.89z" transform="translate(-457.38771 -185.86261)"/></clipPath><clipPath id="Q"><path d="m0 595.276h841.89v-595.276h-841.89z" transform="translate(-445.78551 -169.495)"/></clipPath><clipPath id="R"><path d="m0 595.276h841.89v-595.276h-841.89z" transform="translate(-430.92021 -174.0985)"/></clipPath><clipPath id="S"><path d="m0 595.276h841.89v-595.276h-841.89z" transform="translate(-421.03051 -177.4378)"/></clipPath><clipPath id="T"><path d="m0 595.276h841.89v-595.276h-841.89z" transform="translate(-412.08601 -176.86741)"/></clipPath><clipPath id="U"><path d="m0 595.276h841.89v-595.276h-841.89z" transform="translate(-403.19261 -177.478)"/></clipPath><clipPath id="V"><path d="m0 595.276h841.89v-595.276h-841.89z" transform="translate(-392.58251 -178.841)"/></clipPath><clipPath id="W"><path d="m0 595.276h841.89v-595.276h-841.89z" transform="translate(-380.34971 -171.533)"/></clipPath><clipPath id="X"><path d="m0 595.276h841.89v-595.276h-841.89z" transform="translate(-378.46561 -181.8619)"/></clipPath><clipPath id="Y"><path d="m0 595.276h841.89v-595.276h-841.89z" transform="translate(-361.18621 -178.9322)"/></clipPath><clipPath id="Z"><path d="m0 595.276h841.89v-595.276h-841.89z" transform="translate(-359.64371 -189.5128)"/></clipPath><clipPath id="aa"><path d="m0 595.276h841.89v-595.276h-841.89z" transform="translate(-341.05061 -193.7948)"/></clipPath><clipPath id="ab"><path d="m0 595.276h841.89v-595.276h-841.89z" transform="translate(-334.58741 -193.6555)"/></clipPath><clipPath id="ac"><path d="m0 595.276h841.89v-595.276h-841.89z" transform="translate(-324.06161 -199.5203)"/></clipPath><clipPath id="ad"><path d="m0 595.276h841.89v-595.276h-841.89z" transform="translate(-320.66061 -209.48501)"/></clipPath><clipPath id="ae"><path d="m0 595.276h841.89v-595.276h-841.89z" transform="translate(-322.83121 -216.76091)"/></clipPath><clipPath id="af"><path d="m0 595.276h841.89v-595.276h-841.89z" transform="translate(-310.99061 -231.92611)"/></clipPath><clipPath id="ag"><path d="m0 595.276h841.89v-595.276h-841.89z" transform="translate(-300.98571 -239.76191)"/></clipPath><clipPath id="ah"><path d="m0 595.276h841.89v-595.276h-841.89z" transform="translate(-294.00301 -245.4821)"/></clipPath><clipPath id="ai"><path d="m0 595.276h841.89v-595.276h-841.89z" transform="translate(-301.23881 -253.35791)"/></clipPath><clipPath id="aj"><path d="m0 595.276h841.89v-595.276h-841.89z" transform="translate(-288.1879 -261.9032)"/></clipPath><clipPath id="ak"><path d="m0 595.276h841.89v-595.276h-841.89z" transform="translate(-295.21741 -272.76781)"/></clipPath><clipPath id="al"><path d="m0 595.276h841.89v-595.276h-841.89z" transform="translate(-293.98821 -282.03611)"/></clipPath><clipPath id="am"><path d="m0 595.276h841.89v-595.276h-841.89z" transform="translate(-283.44241 -293.48971)"/></clipPath><clipPath id="an"><path d="m0 595.276h841.89v-595.276h-841.89z" transform="translate(-282.2053 -299.3438)"/></clipPath><clipPath id="ao"><path d="m0 595.276h841.89v-595.276h-841.89z" transform="translate(-283.6888 -305.14411)"/></clipPath><clipPath id="ap"><path d="m0 595.276h841.89v-595.276h-841.89z" transform="translate(-293.76331 -308.92541)"/></clipPath><clipPath id="aq"><path d="m0 595.276h841.89v-595.276h-841.89z" transform="translate(-290.90061 -323.54171)"/></clipPath><clipPath id="ar"><path d="m0 595.276h841.89v-595.276h-841.89z" transform="translate(-412.14241 -445.51181)"/></clipPath><clipPath id="as"><path d="m0 595.276h841.89v-595.276h-841.89z" transform="translate(-445.08791 -429.82181)"/></clipPath><clipPath id="at"><path d="m0 595.276h841.89v-595.276h-841.89z" transform="translate(-359.83391 -421.65941)"/></clipPath><clipPath id="au"><path d="m0 595.276h841.89v-595.276h-841.89z" transform="translate(-377.93411 -411.75091)"/></clipPath><clipPath id="av"><path d="m0 595.276h841.89v-595.276h-841.89z" transform="translate(-521.75902 -351.84771)"/></clipPath><clipPath id="aw"><path d="m0 595.276h841.89v-595.276h-841.89z" transform="translate(-511.01771 -388.34291)"/></clipPath><clipPath id="ax"><path d="m0 595.276h841.89v-595.276h-841.89z" transform="translate(-473.51971 -398.28341)"/></clipPath><clipPath id="ay"><path d="m0 595.276h841.89v-595.276h-841.89z" transform="translate(-390.25661 -413.72191)"/></clipPath><clipPath id="az"><path d="m0 595.276h841.89v-595.276h-841.89z" transform="translate(-339.65011 -380.72671)"/></clipPath><clipPath id="aA"><path d="m0 595.276h841.89v-595.276h-841.89z" transform="translate(-302.81751 -361.60621)"/></clipPath><clipPath id="aB"><path d="m0 595.276h841.89v-595.276h-841.89z" transform="translate(-412.61901 -445.85461)"/></clipPath><clipPath id="aC"><path d="m0 595.276h841.89v-595.276h-841.89z" transform="translate(-412.61501 -194.6197)"/></clipPath><path clip-path="url(#aC)" d="m0 0c-56.34 0-102.014 45.675-102.014 102.011 0 56.347 45.674 102.017 102.014 102.017 56.343 0 102.011-45.67 102.011-102.017 0-56.336-45.668-102.011-102.011-102.011m.004 244.505c-78.582 0-142.515-63.917-142.515-142.483 0-78.582 63.933-142.513 142.515-142.513 78.578 0 142.509 63.931 142.509 142.513 0 78.566-63.931 142.483-142.509 142.483" fill="#0054a7" transform="matrix(.35277776 0 0 -.35277776 54.337651 90.320247)"/><path clip-path="url(#aB)" d="m0 0c-82.291 0-149.237-66.938-149.237-149.213 0-82.288 66.946-149.234 149.237-149.234 82.286 0 149.234 66.946 149.234 149.234 0 82.275-66.948 149.213-149.234 149.213m0-303.238c-84.931 0-154.032 69.091-154.032 154.025 0 84.915 69.101 154.004 154.032 154.004 84.93 0 154.025-69.089 154.025-154.004 0-84.934-69.095-154.025-154.025-154.025" fill="#0054a7" transform="matrix(.35277776 0 0 -.35277776 54.339064 1.690158)"/><path clip-path="url(#aA)" d="m0 0c-.108-1.001-.074-3.618-.046-4.665.063-2.284.371-2.74-1.985-1.893-3.798 1.371-6.908 3.816-10.432-1.026.672-1.551 6.19-2.271 7.762-3.315-1.016-1.398-3.662-2.992-2.433-4.652 1.882.292 3.732.932 5.546.153 2.193-.948 4.131-3.064 6.538-3.431 1.125-.182 2.062.378 2.732 1.251 1.643 2.158-.14 3.583-1.274 5.672-1.831 3.385-3.796 9.022-6.408 11.906m11.751 5.806c-1.338-.777-1.385-2.817-2.912-3.506-.778 1.058-1.139 2.32-1.579 3.535-.639 1.773.139 2.105.892 3.76.822 1.797 2.479 5.233-.998 4.829-.857-.1-1.597-.595-2.204-1.176-1.028-.975-1.338-.161-2.671.048-1.938.311-4.466-.083-5.663-1.824 7.254 1.556 2.836-7.139 6.575-6.601 3.449.496 2.046-7.843 5.63-9.038 3.765-1.25 7.3 5.511 8.69 8.481 1.366 2.917-4.496 2.231-5.76 1.492" fill="#fff" fill-rule="evenodd" transform="matrix(.35277776 0 0 -.35277776 15.603535 31.411117)"/><path clip-path="url(#az)" d="m0 0c-1.78.793-2.126-.313-1.668 2.062.32.244 1.849-1.711 1.668-2.062m-5.467-1.55c-1.141-.584-1.19 1.494-.97 1.66.922-.233 2.116-1.074.97-1.66m-1.868 9.463c-1.826 1.463.096 4.427 1.382 4.73.798-1.784-1.149-3.152-1.382-4.73m15.051 1.626c-2.473 2.07-5.773-.142-7.912-1.617-.009 1.895.179 2.383-1.301 3.534-.023.964.171 1.92.171 2.884-.012 2.713-2.632 2.507-4.579 1.543-1.875-.927-3.333-2.611-4.444-4.349-1.597-2.485-2.27-.672-1.206 1.342 1.088 2.056 2.766 3.96 4.722 5.219 1.232.787 5.419.977 5.025 2.622-.8 3.345-6.02-.6-7.198-1.473-2.886-2.349-4.677-4.788-6.506-8.031-1.201-2.132-2.606-4.73-4.867-5.905-.99-.517-2.416-.014-3.142-.552-.142-.913 2.606-2.142 3.313-2.33 3.396-.929 4.879 4.411 6.779 6.384 1.341-1.534 3.166-2.131 5.084-2.573.227-1.347-.32-3.256 1.57-3.438 1.772-.172 3.699 1.893 2.546-.852-.996-2.362-1.882-.437-3.817-.388-1.43-1.875-.137-6.165 2.079-6.891 3.044-.996 3.559 2.892 3.863 4.957 2.338-.351 3.936-3.296 5.707-1.982 1.354 1.947-1.648 3.056-3.084 4.494-1.813 1.821-.502 3.037 1.201 4.063 2.167 1.304 1.457-1.589.552-2.668 2.736-.621 8.764 3.214 5.444 6.007m-9.384-7.477c-.109-.565.06.046 0 0m-10.361 16.542c-.622 3.286-5.008 1.459-7.089 1.068 1.729-1.071 2.121-2.311 4.313-2.962 1.268-.374 3.126.068 2.776 1.894" fill="#fff" fill-rule="evenodd" transform="matrix(.35277776 0 0 -.35277776 28.597257 24.665833)"/><path clip-path="url(#ay)" d="m0 0c-1.411-2.327-1.639-5.008-3.185-7.289.846-1.787 2.201-3.002 2.793-.788.332 1.256 2.729 7.44.392 8.077m9.987 4.986c-1.704-.147-3.245-.825-4.991-.704.211.533.06 2.574.444 2.731.816-1.384 2.258-1.365 3.626-1.446.065 1.658-1.765 2.89-3.255 2.949.004 1.419-.174 2.038-.857 3.283 1.483.498 2.982.969 4.294 1.848 1.832-.11 1.512-2.483 1.385-3.982-.525.501-4.887 3.936-4.008 1.384.552-1.593 2.427-2.991 4.071-1.96.114-1.612 1.109-3.945-.709-4.103m3.301-3.754c-.036 1.395-.057 2.788-.088 4.177-.055 2.686-.144 5.375-.474 8.042-.366 3.043-3.573 1.963-5.702 1.272-.092 1.511-.986 3.118-2.558 3.476.155-1.925.085-1.711-1.322-3.31-.831-.937-1.604-1.917-2.377-2.905-1.003-1.291-3.248-2.716-3.082-4.443.265-2.667 1.034-1.347 1.788-.088.708.688 3.534 4.268 4.426 4.215.887-.972-1.597-6.178-.841-8.05.596-1.47 2.318-2.295 3.84-2.274 1.274.024 2.547 1.16 3.7 1.093-.657-1.872-1.954-1.711-3.398-2.954-.808-.696-1.417-1.923-.245-2.63 1.562-.945 2.947-.393 4.611.217 1.983.731 3.006 2.046 4.345-.152 1.421-2.333.943-3.369-1.845-3.337-1.639.011-3.08.179-4.598.755-1.3.485-2.646 1.109-3.587 2.161-.927 1.026-1.727 2.89-3.253 2.973.553-3.578 2.373-5.943 5.769-7.233 3.77-1.444 8.944-1.002 10.375-.405 1.017.426 1.643 1.229 1.258 2.638-.289 1.042-2.378 4.234-3.556 4.301 1.531 1.165 4.28.661 5.284-.782 2.479 7.062-7.447 3.007-8.47 3.243" fill="#fff" fill-rule="evenodd" transform="matrix(.35277776 0 0 -.35277776 46.450104 13.02586)"/><path clip-path="url(#ax)" d="m0 0c-.324.702-.648 1.403-.968 2.105.876-.196 1.431-.262 2.292-.174.089-.721-.953-1.438-1.324-1.931m-5.346-.292c.137 1.262 1.068 1.995 1.976 2.777.296-1.317.597-2.627.896-3.942-1.129-.401-2.764.198-2.872 1.165m-7.393 1.995c-3.057 1.915 1.984 4.954 4.119 5.819.148-1.253-3.367-4.724-4.119-5.819m26.443 6.012c-1.902 1.867-5.663.568-8.019 1.385 1.207 1.36 5.617 3.286 4.214 5.005-1.355.843-4.716.072-5.774-1.109 3.123.182-.318-2.509-.875-2.999-2.53 1.502-4.833-1.053-3.472-1.586 2.368-.934-.153-2.546-1.078-3.963-1.279.804-.579 3.479-2.524 4.21.574.485 1.568.509 1.814 1.371.059.11-1.507-.12-1.534-.12 1.248 1.786 1.593 2.394 3.614 1.721 2.328-.629 2.067.723 1.514 2.416.779 1.058 1.56 2.113 2.341 3.171-.524 1.081-1.165.974-2.14.407-1.636-.943-3.206-2.108-4.494-3.525-1.967.15-3.932.649-5.739 1.396-.978.404-3.31 2.568-3.872 1.341-.448-.966-1.154-2.126-.178-2.675 2.007-1.13 7.123-1.109 8.149-1.543-1.15-.76-3.866-1.903-5.174-2.158-1.549-.297-3.176-.934-4.401-1.968-.994-.844-3.275-2.509-3.037-3.819.236-1.264.413-2.541.664-3.805.438-2.252 1.931-7.954 3.758-3.126 1.039 2.74 6.159 9.893 7.942 10.648-.731-1.205-.056-2.437.394-3.537.807-1.971-.482-1.921-2.149-2.63-3.04-1.296-3.502-4.306-1.557-6.583.95-1.124 2.293-1.732 3.784-1.438.869.172 2.574 1.023 3.407.493 1.362-.87 2.779-3.058 3.855-4.242.966-1.044 2.93-4.202 4.586-3.634 2.875.983-3.598 7.156-4.611 8.39-2.2 2.689 3.144 4.336 3.291 7.174.244 2.378-3.402 3.018-4.988 1.998-.257 3.163 6.188 1.387 7.782 1.237 1.045-.091 3.92-.953 4.288.236.317 1.042-.382 1.176.219 1.861" fill="#fff" fill-rule="evenodd" transform="matrix(.35277776 0 0 -.35277776 75.823472 18.472221)"/><path clip-path="url(#aw)" d="m0 0c1.379 1.176 1.059 3.294.453 4.764-3.317-2.718-6.588-4.919-8.307-5.64-1.003-.42-2.661-1.349-3.503-.123-.477.699-.682 3.297-1.568 3.559-.601-.712-2.195-3.254-2.238-4.223-.065-1.309 1.886-2.298.319-3.197-.829-.477-1.747-.622-2.667-.825-2.554-.573.246 2.986-1.926 3.243-1.537.184-3.122-.624-4.121-1.757-2.529-2.874.676-6.794 3.979-6.366 3.056.391 4.142 1.235 7.277 2.411.167-.804-.157-9.638 4.128-13.926 1.995-1.99 3.332.148 2.391 2.258-1.162 2.295-1.94 4.351-2.5 6.871-.282 1.254-2.111 6.631.18 6.061 1.945-.48 3.356-2.1 5.131-2.925 4.647 2.542-1.87 4.997-3.414 6.331 1.042.763 1.957 1.674 3.122 2.252 1.055.319 2.394.493 3.264 1.232" fill="#fff" fill-rule="evenodd" transform="matrix(.35277776 0 0 -.35277776 89.051932 21.979008)"/><path clip-path="url(#av)" d="m0 0c1.402.806 5.235 2.102 2.523 4.459-1.481.171-6.348 3.109-6.762 1.54-.572-2.129 2.516-2.421 3.798-2.911-.004-.016-2.375-1.441-2.514-1.42-.137.017-1.519 1.476-1.421 1.971-2.389-.016-3.104-3.237-1.572-4.785 1.567-1.58 2.846-1.438.331-3.074-1.036-.675-2.567-1.757-3.4-.442-.91 1.446.366 4.145 1.52 5.152-.375.429-3.548-2.014-3.977-2.365-1.333-1.103-1.69-2.549-1.191-4.193 1.3-4.253 3.951-3.058 6.806-.844 1.286.994 2.597 2.247 4.15 2.826 1.323-1.109 3.095-1.996 4.549-.544.045 2.097-2.653 2.672-2.84 4.63m12.345 10.457c-.04.005-.454.406-.322.342-1.92 1.279-4.359.797-5.355 2.794-.651 1.31-3.35-.048-4.243-.827-.271.313.746 2.97.866 3.43-1.822.049-2.595-3.261-2.553-4.611.092-2.927 3.62 1.336 4.275 1.853.111-1.628.134-3.776 2.353-3.401.845.145 3.722 1.599 3.671.12-2.206-1.087-5.394-.953-7.257-1.194-1.628-.214-7.123 1.422-7.068 3.216-1.148 1.01-6.995-3.039-8.637-3.66-1.463-.552-3.558-.86-4.132-2.518-.501-1.438 1.226-2.054 2.246-1.293 1.317.972 2.791 1.596 4.291 2.217 1.21.506 3.106 2.038 4.401 1.915 2.284-.214 3.844-1.023 5.774-2.18 2.312-1.384 4.618-3.101 6.215-5.3 2.558-3.524-1.162-2.876-3.144-1.936-.851-.704.251-2.172.626-2.463.772-.6 1.657-1.077 2.592-1.372 1.82-.567 4.009-.214 4.009 2.105.015 4.135-3.907 6.5-6.285 9.242.666.043 4.883.991 6.989.817 2.274-.186 1.391 1.757.688 2.704m0 0c.017-.002-.03.064-.227.282.07-.077.148-.175.227-.282" fill="#fff" fill-rule="evenodd" transform="matrix(.35277776 0 0 -.35277776 92.841232 34.853707)"/><path clip-path="url(#au)" d="m0 0c-2.057.873-4.413-.391-6.112-1.65-1.26-.934-2.404-2.043-3.423-3.253-.703-.836-.995-2.038-1.703-.619-.857 1.719.277 2.962 1.671 3.856 1.639 1.066 4.57 1.931 3.538 4.178-2.661-.102-4.878-2.764-6.721-4.504.146 2.088 2.318 3.518 3.494 5.015 1.995 2.528-3.925-.144-4.66.209.986 1.655 2.187 2.941 3.78 3.926 1.213.75 3.351 1.098 3.564 2.638.385 2.761-4.541-1.034-5.416-1.751-2.02-1.658-3.54-4.044-5.287-5.996-.62-.691-1.283-1.396-1.986-2.014l.001-.016c-.201-.153-.407-.308-.626-.45-.642-.402-1.671-.445-2.144-.945-1.204 1.85-1.15 2.383.009 4.215.82 1.293-.977 2.509-2.322 2.795-.826.177-2.004.531-2.114-.541 1.673-1.068.829-1.933.292-3.481-.708-2.038-.458-4.129-1.106-6.095-.688-1.358-1.512-2.624-.4-4.089.941-1.24 2.862-1.465 2.988.265.105 1.374-.101 2.772.504 4.057 1.412-2.884 2.162-5.993 3.288-8.974 1.034-2.729 2.024-6.108 5.413-3.915-2.279 3.765-4.554 7.897-5.77 12.07-.363 1.245 4.97 3.433 6.033 6.727.745-.319 2.417-.132 2.831-.458-1.887-2.405-5.475-6.8-5.162-10.067.19-2.003 2.113.964 2.377 1.31 1.146 1.451 1.005 2.113 2.218.53 1.538-2.014 3.181-5.337 5.944-3.487-.81 1.562-2.323 1.875-1.287 3.972.857 1.711 2.02 1.92 3.482 2.683.459-1.001-2.282-3.5-2.014-4.992.225-1.221 1.139-2.386 2.352-2.616 2.19-.407 6.47 3.505 4.572 4.389-1.697.782 2.229 6.09-.098 7.078" fill="#fff" transform="matrix(.35277776 0 0 -.35277776 42.103 13.721185)"/><path clip-path="url(#at)" d="m0 0c-.208-.121-.536-.287-.513-.214-.435-1.387 1.855-1.189 2.658-1.495-.66-.902-2.88-3.039-2.86-4.124 1.864 1.063 4.315 2.151 5.401 4.116 1.65 2.984-2.722 2.443-4.686 1.717" fill="#fff" transform="matrix(.35277776 0 0 -.35277776 35.717652 10.225688)"/><path clip-path="url(#as)" d="m0 0c.139-1.023-.449-6.382-2.122-5.723-.553.22-2.989 2.285-3.253.795 1.595-1.644 3.196-2.359 2.51-4.654-.686.504-2.806 2.646-3.598 1.811.704-1.468 1.343-3.265 2.905-4.042-1.261-5.462-5.576.142-8.566-.832.569 1.325.605 2.589 2.084 2.961.99.242 1.255.413 1.207 1.489-.07 1.524-.706.876.329 2.437 1.221 1.835 2.768 5.046-.262 6.036-1.537-3.32-8.09-3.663-8.09-3.663-.063-.75 3.101-2.201 6.421-1.336-1.365-3.934-5.753-4.687-10.363-4.371-.656.04-2.587.306-2.982-.115-.207-2.731 1.075-2.405 2.229-2.354 3.184.148 5.037.822 8.144.654-.384-1.942-1.006-2.804-2.941-3.444-.587 2.624-.99 2.22-2.903.581-1.039-.894-2.236-2.124-2.289-3.591-.146-4.328 4.919-1.334 6.586-.177-1.829-7.929.798-7.182 1.678-4.012.475 1.722-.674 3.707.412 5.308.521.771 1.629 1.053 2.408 1.435.588-3.122 2.102-2.851 5.637-2.468.163-3.535-.67-6.69-1.464-9.743-.325-1.901-.731-2.86 1.195-4.336 1.688-1.29 1.852 4.542 2.086 5.991.395 2.429.226 8.548 2.798 9.135 2.771.632 3.688.867 6.485.605 1.081-.099 1.43.201 1.484 1.218.06 1.286-1.039 1.618-2.191 1.832-2.656.49-3.936-.12-6.537-.094.563 1.894 1.125 3.787 1.69 5.683.486.867 1.366 1.438 1.612 2.455.308 1.283-.526 3.372-1.742 4.224" fill="#fff" transform="matrix(.35277776 0 0 -.35277776 65.793368 7.346174)"/><path clip-path="url(#ar)" d="m0 0c.324.008.632-.003.947-.008-.035.008-.28.021-.947.008" fill="#0054a7" transform="matrix(.35277776 0 0 -.35277776 54.170929 1.811091)"/><g fill="#fff"><path clip-path="url(#aq)" d="m0 0c-.114-.514-.121-.937-.019-1.267.101-.329.287-.602.56-.822.27-.219.676-.388 1.213-.506.474-.104.868-.107 1.181-.003.313.105.564.295.751.571.186.276.331.64.43 1.092.08.362.142.713.189 1.058l-4.079.903zm-5.318 2.249c-.084-.299-.169-.648-.258-1.041-.107-.49-.128-.908-.064-1.254.064-.345.244-.642.54-.891.296-.247.735-.437 1.317-.565.411-.091.776-.123 1.089-.094.315.027.584.112.803.26.221.144.402.334.541.573.14.241.252.551.336.937l.237 1.074zm4.343-4.549c-.411-.664-.897-1.133-1.457-1.406-.559-.273-1.174-.335-1.843-.188-.571.126-1.049.324-1.434.589-.383.266-.673.606-.865 1.015-.196.413-.303.871-.323 1.374-.02.504.049 1.122.213 1.859l1.047 4.75.566-.125c.015-.204.044-.367.085-.493s.115-.228.219-.306c.106-.083.247-.15.423-.203.177-.056.402-.112.677-.174l7.387-1.631c.267-.059.495-.102.68-.131.186-.027.343-.027.469.002.125.03.235.091.332.185.096.094.192.236.294.418l.565-.126-1.115-5.05c-.127-.576-.263-1.04-.406-1.39-.193-.464-.434-.852-.723-1.16-.26-.276-.582-.466-.972-.57-.387-.102-.821-.102-1.3.005-1.291.284-2.106 1.2-2.442 2.737z" transform="matrix(.35277776 0 0 -.35277776 11.399518 44.839427)"/><path clip-path="url(#ap)" d="m0 0-2.764.383.148 1.071c.573.097.966.19 1.178.284.209.094.383.214.519.367.137.15.231.426.287.83l.236 1.706-4.174.573-.142-1.031c-.032-.23-.02-.415.034-.554.054-.142.16-.265.317-.375.155-.11.406-.228.748-.354l-.123-.886-3.529.487.123.884c.345.027.613.072.803.137.188.064.33.152.421.265.091.112.155.292.19.535l.142 1.034-4.642.637-.235-1.695c-.025-.185-.033-.34-.024-.468.008-.129.038-.247.089-.357.049-.107.123-.211.22-.318.098-.107.205-.207.323-.292.118-.089.276-.185.474-.292s.473-.233.825-.378l-.147-1.073-3.152.589 1.059 7.688.574-.078c.031-.203.072-.364.123-.484.051-.121.132-.217.244-.287.11-.072.257-.128.438-.171.179-.04.408-.081.687-.118l7.493-1.031c.273-.038.503-.064.691-.075.187-.013.342 0 .466.037.123.041.227.11.316.212.088.104.175.249.259.439l.574-.08z" transform="matrix(.35277776 0 0 -.35277776 12.409414 49.995737)"/><path clip-path="url(#ao)" d="m0 0c-.203.016-.394.024-.57.027-.176.002-.319-.008-.434-.03-.113-.024-.209-.061-.289-.118-.081-.053-.153-.131-.217-.232-.063-.099-.121-.225-.174-.373l-.578.043.315 4.135.579-.046c.042-.198.093-.356.152-.474.059-.117.146-.208.261-.273.115-.064.264-.112.446-.142.185-.029.415-.053.695-.075l7.551-.578c.279-.022.511-.03.693-.032.181 0 .334.024.458.069.123.046.225.121.303.228.08.11.155.26.23.455l.576-.043-.315-4.134-.577.043c-.048.219-.104.385-.169.492s-.148.193-.249.252c-.101.062-.237.11-.404.142-.168.035-.415.064-.742.088z" transform="matrix(.35277776 0 0 -.35277776 8.855353 51.329697)"/><path clip-path="url(#an)" d="m0 0c-.632.019-1.143.08-1.532.179-.388.097-.731.255-1.031.469-.36.254-.675.589-.943 1.002-.318.487-.587 1.087-.806 1.794l1.092.361c.148-.326.29-.567.424-.728.137-.161.284-.279.442-.354s.359-.134.601-.171c.243-.04.593-.067 1.055-.08l9.562-.295c.273-.008.505-.008.692 0 .188.008.342.038.46.088.117.054.216.134.293.244.076.11.147.265.211.463l.58-.018-.128-4.143-.579.019c-.057.222-.123.385-.195.492-.073.102-.161.182-.266.236-.103.054-.238.094-.398.121-.164.024-.413.042-.745.053z" transform="matrix(.35277776 0 0 -.35277776 8.332007 53.375917)"/><path clip-path="url(#am)" d="m0 0c-.203-.003-.394-.011-.569-.024-.176-.013-.319-.038-.43-.07-.11-.032-.203-.08-.278-.142-.075-.061-.14-.144-.194-.251-.054-.105-.101-.236-.138-.389l-.58-.008-.06 4.143.578.011c.062-.196.126-.348.195-.461.069-.112.164-.193.284-.249.121-.053.273-.086.458-.099s.418-.016.699-.013l7.571.112c.281.003.513.014.693.03.182.016.332.053.45.109.119.059.213.142.281.255.07.115.132.273.188.474l.578.01.062-4.148-.579-.008c-.068.215-.139.375-.214.474-.075.102-.164.18-.27.231-.107.051-.245.085-.415.104-.169.019-.418.024-.746.022z" transform="matrix(.35277776 0 0 -.35277776 8.76843 55.441107)"/><path clip-path="url(#al)" d="m0 0-.578-.048c-.093.203-.169.345-.229.428-.061.083-.136.153-.228.204-.092.053-.229.088-.41.104-.179.016-.454.011-.821-.018l-9.742-.807-.166 1.998 6.511 4.106c.883.551 1.577.964 2.083 1.234l-.006.07c-1.25-.156-2.571-.292-3.964-.407l-2.816-.233c-.437-.035-.742-.081-.913-.137-.173-.051-.306-.134-.4-.244-.093-.112-.168-.313-.226-.602l-.577-.048-.246 2.975.577.048c.073-.19.151-.337.23-.444.079-.108.181-.185.304-.228.126-.046.279-.07.461-.07s.409.011.683.032l7.565.627c.436.038.738.078.901.126s.296.131.398.246c.101.118.182.316.241.603l.575.048.266-3.189-5.149-3.23c-.324-.201-.762-.463-1.316-.79s-1.079-.619-1.575-.876l.011-.126c1.387.174 2.907.33 4.558.464l1.625.136c.381.032.654.067.82.107.166.041.292.091.375.153s.15.142.201.238c.05.097.101.257.153.477l.578.048z" transform="matrix(.35277776 0 0 -.35277776 12.488754 59.481687)"/><path clip-path="url(#ak)" d="m0 0-2.456-.421-.182 1.066c.464.204.812.402 1.049.6s.397.429.487.694c.088.262.1.581.035.961-.089.514-.34.94-.757 1.275-.417.332-1.027.549-1.829.645-.803.099-1.791.046-2.962-.155-1.009-.171-1.87-.399-2.584-.68-.715-.281-1.25-.611-1.607-.997-.354-.385-.492-.805-.413-1.269.079-.455.288-.768.628-.934.34-.167.841-.193 1.505-.078l.329.056c.437.075.747.145.932.201.182.059.313.123.396.193.085.069.146.155.189.252.043.096.083.267.119.5l.571.099.684-3.984-.57-.097c-.132.241-.26.402-.386.477-.125.075-.283.112-.47.115-.188.003-.445-.024-.774-.08l-3.259-.56-.453 1.076.532.638c-.526.544-.858 1.216-.996 2.016-.259 1.513.037 2.729.893 3.642.855.914 2.28 1.54 4.275 1.883 1.05.179 1.997.206 2.838.078.84-.126 1.55-.383 2.128-.769.58-.383 1.034-.849 1.363-1.4.33-.549.552-1.163.667-1.838.196-1.135.221-2.204.078-3.205" transform="matrix(.35277776 0 0 -.35277776 12.922388 62.751337)"/><path clip-path="url(#aj)" d="m0 0c-.198-.053-.38-.107-.546-.163-.168-.057-.3-.115-.399-.174-.1-.059-.177-.129-.236-.207-.056-.077-.099-.174-.125-.291-.026-.118-.04-.252-.038-.413l-.56-.15-1.081 4.001.559.153c.107-.172.207-.306.302-.397.094-.091.206-.15.338-.171.13-.024.286-.016.468.016.181.032.407.086.678.161l7.312 1.973c.27.075.492.14.663.201.171.062.309.134.41.217.101.086.171.19.208.319.041.128.061.297.065.503l.559.153 1.082-4.004-.559-.15c-.118.19-.225.327-.324.407-.097.078-.204.132-.319.156-.115.021-.257.021-.426-.003-.17-.021-.412-.078-.728-.163z" transform="matrix(.35277776 0 0 -.35277776 10.442536 66.584127)"/><path clip-path="url(#ai)" d="m0 0-.548-.19c-.139.177-.249.297-.326.361-.081.065-.169.113-.272.14-.103.029-.244.029-.422 0-.179-.024-.443-.099-.793-.22l-9.245-3.176-.651 1.899 5.302 5.578c.719.752 1.29 1.323 1.716 1.706l-.025.067c-1.171-.458-2.419-.913-3.741-1.369l-2.672-.918c-.415-.14-.699-.26-.852-.354-.155-.093-.262-.206-.327-.335-.062-.131-.087-.345-.072-.64l-.547-.19-.97 2.826.548.187c.119-.166.23-.289.332-.375.104-.083.221-.134.353-.144.132-.014.284.002.461.045s.396.11.656.198l7.178 2.467c.414.141.695.257.842.342.146.089.255.201.326.338.069.139.098.353.084.643l.549.187 1.039-3.024-4.196-4.397c-.265-.273-.627-.637-1.083-1.09-.457-.45-.893-.862-1.311-1.234l.041-.121c1.303.509 2.739 1.034 4.304 1.572l1.544.531c.359.123.616.224.768.305.15.08.26.158.324.241.066.08.11.174.137.278.024.108.035.274.032.501l.548.188z" transform="matrix(.35277776 0 0 -.35277776 15.046603 69.598717)"/><path clip-path="url(#ah)" d="m0 0c-.285-.126-.498-.228-.64-.303-.141-.08-.248-.158-.323-.235-.075-.081-.128-.158-.161-.236-.032-.083-.048-.182-.05-.3-.006-.12.018-.27.064-.45l-.53-.23-1.693 3.899.533.228c.125-.156.244-.274.354-.349.107-.077.229-.115.361-.12.131-.003.287.027.465.086.178.061.395.144.652.259l6.933 3.005c.252.11.461.209.627.295.167.085.293.176.379.275.084.097.138.212.16.346s.02.303-.006.511l.533.228 3.038-7.005-2.562-1.109-.428.991c.439.383.726.666.857.854.134.19.217.386.254.584.038.201-.024.487-.185.859l-.606 1.398-4.099-1.778.404-.926c.097-.228.212-.386.343-.474.131-.091.306-.137.523-.137.216 0 .503.046.859.137l.356-.82-3.51-1.521-.355.817c.312.206.545.388.693.551.149.164.235.322.259.474.022.153-.014.341-.11.563l-.405.926z" transform="matrix(.35277776 0 0 -.35277776 12.493975 72.377127)"/><path clip-path="url(#ag)" d="m0 0c-1.56-.827-2.632-1.612-3.216-2.354s-.691-1.459-.321-2.15c.19-.359.457-.608.806-.745.346-.136.755-.182 1.222-.134.467.051.982.18 1.547.394.562.211 1.159.482 1.788.817 1.029.546 1.852 1.079 2.47 1.593.617.514 1.024 1.015 1.221 1.497.198.485.174.956-.07 1.417-.359.672-.983.985-1.872.934-.889-.053-2.081-.476-3.575-1.269m-4.531-4.826c-.726 1.369-.825 2.63-.3 3.787.525 1.16 1.672 2.207 3.447 3.147 1.162.618 2.242.977 3.244 1.081 1 .108 1.887-.05 2.658-.468.772-.421 1.395-1.074 1.869-1.969.738-1.389.849-2.669.332-3.837s-1.647-2.215-3.393-3.141c-.977-.52-1.872-.86-2.681-1.026-.81-.163-1.541-.174-2.193-.032-.651.142-1.225.423-1.719.843-.495.421-.916.959-1.264 1.615" transform="matrix(.35277776 0 0 -.35277776 14.957317 74.395087)"/><path clip-path="url(#af)" d="m0 0-4.089-2.659.426-.654c.228-.353.471-.61.725-.771.255-.161.52-.249.797-.26.277-.01.558.041.846.156s.585.27.889.468c.666.434 1.075.903 1.225 1.401s.043 1.028-.317 1.583c-.248.38-.414.626-.502.736m-8.701-6.673-2.26 3.476.485.316c.155-.134.292-.228.41-.287.117-.056.243-.078.375-.059.128.022.275.075.439.161.163.088.363.206.598.359l6.34 4.126c.232.15.422.282.572.394s.258.225.327.335c.068.11.1.23.1.367 0 .134-.031.302-.09.5l.485.316 2.511-3.858c.337-.52.585-.991.742-1.406.155-.418.238-.817.25-1.2.012-.319-.035-.627-.141-.919-.104-.294-.267-.576-.488-.841-.221-.267-.516-.519-.885-.757-.48-.314-.942-.507-1.384-.576-.441-.072-.861-.054-1.257.059-.396.107-.835.316-1.317.616l-.073-.048c.054-.429.022-.833-.102-1.219s-.332-.795-.621-1.229l-.73-1.066c-.325-.477-.539-.878-.644-1.205-.104-.33-.099-.635.016-.919l-.486-.316-1.656 2.55c.225.511.621 1.178 1.186 2.006l.922 1.333c.273.396.451.702.538.913.084.212.118.397.102.552-.019.155-.106.356-.264.597l-.249.383-2.369-1.54c-.368-.238-.616-.42-.743-.546-.127-.128-.206-.265-.237-.41-.031-.144-.003-.361.083-.642z" transform="matrix(.35277776 0 0 -.35277776 18.486822 77.159377)"/><path clip-path="url(#ae)" d="m0 0c-.242.161-.435.249-.578.262-.142.016-.294-.016-.453-.093-.159-.075-.41-.252-.753-.528l-5.919-4.751c-.279-.222-.49-.409-.632-.565-.142-.155-.225-.305-.249-.447-.023-.144.025-.359.144-.651l-.452-.361-2.534 3.16.45.364c.201-.139.35-.225.447-.262.097-.038.193-.049.292-.035.097.013.22.067.37.158.15.088.379.257.688.506l3.356 2.689c.369.297.811.64 1.323 1.033.511.389.877.665 1.096.817l-.103.131c-.222-.099-.444-.187-.664-.273-.22-.085-.619-.235-1.192-.444l-6.266-2.314-.869 1.082 4.157 6.191c.233.356.473.697.721 1.023l-.089.113c-.72-.646-1.593-1.382-2.619-2.204l-3.149-2.526c-.337-.273-.562-.474-.672-.608-.107-.136-.171-.281-.189-.436-.017-.155.03-.367.141-.627l-.45-.361-1.869 2.327.452.364c.166-.115.314-.195.439-.241.126-.045.252-.053.381-.024.126.027.265.094.415.196.15.104.335.243.553.417l5.921 4.751c.346.279.573.482.679.613.107.129.17.265.19.407.019.145-.027.362-.14.651l.452.362 2.457-3.061-4.25-6.216 7.102 2.662 2.316-2.889z" transform="matrix(.35277776 0 0 -.35277776 22.663923 82.509327)"/><path clip-path="url(#ad)" d="m0 0 1.988-2.03 2.648 4.357zm1.414-2.914-2.357 2.413-.779-.399c-.219-.11-.423-.227-.613-.345s-.372-.265-.548-.437c-.411-.402-.438-.811-.084-1.232l-.414-.404-2.358 2.41.414.405c.153-.124.327-.193.522-.207.194-.016.414.011.658.078.243.07.562.201.953.394l9.272 4.464 1.475-1.505-5.201-8.738c-.233-.389-.388-.675-.465-.86-.076-.188-.111-.364-.104-.536.007-.168.071-.353.191-.554l-.415-.404-3.047 3.117.415.404c.214-.171.418-.257.605-.257.189.003.37.086.546.26.129.126.26.281.394.46.133.185.292.424.477.721z" transform="matrix(.35277776 0 0 -.35277776 21.898184 85.076097)"/><path clip-path="url(#ac)" d="m0 0 .383.434c.193-.115.359-.19.501-.225s.276-.027.404.024c.129.051.263.142.399.273.139.131.3.305.485.514l5.782 6.567-.48.423c-.237.209-.446.337-.626.388s-.375.048-.584 0c-.209-.051-.445-.155-.707-.319-.263-.163-.502-.324-.721-.484l-.811.715 2.035 2.313 6.976-6.143-2.035-2.311-.811.712c.187.367.321.638.401.817.081.18.137.343.172.488.032.147.048.278.048.396-.001.115-.019.225-.051.324-.032.096-.091.203-.174.311-.083.107-.206.233-.367.377l-.427.375-5.782-6.566c-.205-.233-.355-.413-.448-.544-.095-.134-.161-.249-.193-.353-.035-.102-.05-.196-.046-.281.006-.086.033-.185.081-.292.048-.11.131-.236.249-.378l-.383-.437z" transform="matrix(.35277776 0 0 -.35277776 23.09798 88.591427)"/><path clip-path="url(#ab)" d="m0 0c-.124-.161-.237-.316-.336-.461-.098-.144-.17-.273-.212-.38-.043-.107-.064-.209-.061-.305 0-.096.025-.201.075-.308.049-.107.123-.225.218-.351l-.353-.46-3.282 2.533.352.458c.19-.073.351-.118.481-.131.131-.017.254.005.372.067.118.058.238.16.364.297.124.134.273.313.443.535l4.626 5.996c.172.223.308.41.407.563.099.152.166.292.196.42.029.129.02.257-.027.38-.047.126-.131.271-.254.44l.353.46 3.283-2.533-.353-.458c-.21.08-.378.123-.504.128-.125.003-.242-.018-.348-.069-.107-.051-.219-.139-.34-.26-.12-.123-.28-.313-.479-.57z" transform="matrix(.35277776 0 0 -.35277776 26.811248 90.660397)"/><path clip-path="url(#aa)" d="m0 0c-.983-1.467-1.553-2.667-1.715-3.596-.162-.932.081-1.615.735-2.049.337-.225.691-.316 1.063-.271.37.043.751.196 1.138.461.39.265.782.624 1.176 1.076.396.456.792.978 1.188 1.572.648.967 1.12 1.827 1.419 2.571.298.747.422 1.38.365 1.899-.056.52-.3.921-.733 1.213-.635.423-1.331.402-2.089-.067-.759-.466-1.608-1.403-2.547-2.809m-1.7-6.398c-1.288.86-1.974 1.923-2.062 3.192-.086 1.267.428 2.735 1.542 4.403.731 1.098 1.513 1.928 2.343 2.493.832.568 1.687.849 2.566.846.877-.002 1.736-.283 2.577-.846 1.308-.876 2.013-1.949 2.112-3.221.099-1.275-.399-2.732-1.499-4.376-.614-.919-1.238-1.644-1.873-2.172-.637-.53-1.274-.886-1.916-1.068-.641-.185-1.279-.209-1.913-.073-.636.137-1.262.41-1.877.822" transform="matrix(.35277776 0 0 -.35277776 29.091321 90.611257)"/><path clip-path="url(#Z)" d="m0 0-.278-.506c-.223.032-.383.048-.485.043-.099-.006-.2-.03-.295-.078-.094-.048-.199-.145-.312-.284-.114-.142-.258-.375-.435-.699l-4.678-8.583-1.762.962.148 7.696c.023 1.039.061 1.845.114 2.416l-.063.034c-.556-1.13-1.169-2.308-1.838-3.537l-1.353-2.48c-.211-.386-.34-.664-.389-.835-.05-.174-.054-.33-.012-.469.04-.139.167-.313.377-.522l-.278-.509-2.621 1.43.277.509c.201-.043.367-.059.499-.051.133.008.253.051.358.128.108.078.209.196.311.346.1.153.216.351.348.589l3.634 6.665c.209.386.34.659.39.823.049.163.052.318.012.468-.042.148-.165.324-.371.53l.277.509 2.808-1.532-.129-6.073c-.012-.383-.03-.895-.064-1.537-.031-.643-.076-1.24-.132-1.797l.109-.059c.619 1.256 1.325 2.608 2.117 4.062l.782 1.433c.181.335.302.581.36.742.057.163.084.294.078.399-.008.104-.037.203-.091.3-.051.094-.155.225-.312.388l.277.509z" transform="matrix(.35277776 0 0 -.35277776 35.650554 92.121847)"/><path clip-path="url(#Y)" d="m0 0c-.147-.691-.142-1.256.011-1.69.154-.434.506-.766 1.055-.993.286-.118.566-.172.838-.158.275.013.53.109.769.294.239.182.433.456.583.817.14.335.204.648.193.94-.008.294-.091.6-.248.924-.156.327-.404.704-.743 1.138-.291.367-.543.728-.756 1.082-.213.353-.37.712-.473 1.074-.103.364-.147.731-.131 1.106.015.372.107.763.274 1.167.278.667.659 1.168 1.148 1.511.49.342 1.066.514 1.727.522.662.008 1.362-.142 2.101-.45.433-.179.836-.375 1.209-.589.371-.214.783-.493 1.235-.833l-.975-2.349-.999.413c.084.466.107.854.068 1.165-.039.31-.14.57-.305.776-.165.209-.411.381-.736.515-.278.115-.548.163-.81.147-.266-.019-.504-.107-.72-.268-.215-.161-.384-.391-.51-.696-.131-.311-.188-.606-.174-.881.014-.276.105-.576.271-.9.168-.327.438-.731.813-1.219.453-.591.784-1.127.989-1.601.204-.474.308-.94.308-1.401 0-.46-.107-.948-.323-1.467-.276-.664-.654-1.184-1.134-1.559-.479-.372-1.039-.581-1.679-.621-.637-.046-1.305.08-2 .367-.496.206-.999.453-1.511.736-.511.287-.98.587-1.402.9l1.037 2.496z" transform="matrix(.35277776 0 0 -.35277776 36.194714 95.854447)"/><path clip-path="url(#X)" d="m0 0-.809-2.413-1.019.34c.091.667.055 1.192-.104 1.575-.161.385-.45.648-.87.787-.788.263-1.526.046-2.212-.661-.686-.705-1.305-1.886-1.856-3.538-.516-1.537-.721-2.763-.615-3.677.103-.913.513-1.491 1.228-1.73.364-.12.684-.152.959-.093s.527.201.755.428c.229.225.474.568.74 1.028l1.027-.342-.845-2.52c-.597.037-1.134.099-1.61.185-.477.085-.96.211-1.449.374-1.039.349-1.817.839-2.333 1.476-.519.635-.792 1.425-.822 2.37-.032.945.168 2.059.599 3.347.401 1.205.936 2.191 1.601 2.957.666.768 1.434 1.275 2.31 1.518.876.244 1.81.198 2.804-.131.505-.171.95-.356 1.34-.552.39-.198.782-.441 1.181-.728" transform="matrix(.35277776 0 0 -.35277776 42.290503 94.820917)"/><path clip-path="url(#W)" d="m0 0c-.054-.196-.097-.383-.134-.554-.035-.174-.051-.316-.049-.432.001-.115.021-.216.06-.308.039-.088.101-.173.19-.254.086-.08.198-.161.335-.241l-.15-.56-4.004 1.077.15.56c.204.005.368.026.495.061.126.038.233.105.317.206.085.102.16.239.222.413.063.174.131.396.203.667l1.966 7.313c.075.271.128.496.162.675.033.179.041.332.017.463-.021.131-.077.244-.168.343-.091.096-.227.198-.405.308l.15.56 4.004-1.077-.15-.559c-.225-.009-.397-.033-.514-.075-.12-.043-.217-.11-.295-.199-.079-.088-.15-.211-.214-.369s-.139-.397-.225-.713z" transform="matrix(.35277776 0 0 -.35277776 42.95517 98.464727)"/><path clip-path="url(#V)" d="m0 0-.56-2.734-1.06.217c-.058.578-.127.977-.206 1.194-.081.217-.191.397-.332.541-.142.145-.413.26-.809.34l-1.687.346-.845-4.124 1.02-.212c.228-.046.414-.046.556 0 .144.046.276.142.393.292.121.147.255.388.404.723l.874-.179-.715-3.493-.874.18c-.005.348-.033.619-.085.811-.051.193-.131.338-.235.44-.108.099-.282.171-.523.222l-1.023.209-.94-4.59 1.679-.346c.18-.035.335-.053.464-.053.13 0 .249.021.36.064s.224.11.336.201.217.19.312.302c.095.113.202.263.323.453.12.193.262.458.428.801l1.061-.217-.79-3.107-7.606 1.556.118.568c.202.019.364.048.49.091.125.046.225.121.304.225.078.107.143.249.197.426.051.179.107.404.162.68l1.52 7.41c.055.27.093.495.12.683.024.184.02.34-.011.466-.03.126-.093.238-.19.332-.096.093-.235.19-.42.286l.115.568z" transform="matrix(.35277776 0 0 -.35277776 47.27063 95.886627)"/><path clip-path="url(#U)" d="m0 0-.071-.573c-.218-.051-.374-.097-.465-.139-.093-.04-.175-.102-.245-.182-.071-.081-.132-.207-.186-.381-.052-.174-.102-.441-.144-.808l-1.172-9.705-1.991.241-2.71 7.203c-.366.975-.629 1.738-.79 2.287l-.071.008c-.098-1.256-.232-2.576-.398-3.963l-.34-2.804c-.052-.439-.069-.744-.051-.924.019-.179.073-.326.161-.439.091-.115.272-.23.544-.345l-.069-.573-2.964.358.069.573c.201.035.362.081.482.137.121.056.216.139.286.254.069.11.121.258.16.434.038.177.073.405.105.678l.909 7.536c.053.433.072.736.058.907-.014.169-.067.316-.161.44-.095.123-.273.241-.541.356l.069.576 3.174-.383 2.129-5.694c.132-.356.302-.841.51-1.451.208-.605.387-1.179.54-1.717l.126-.013c.109 1.392.263 2.913.463 4.558l.195 1.62c.046.375.065.651.059.822-.005.174-.031.305-.075.399-.045.094-.11.174-.194.244-.084.069-.229.152-.435.246l.07.576z" transform="matrix(.35277776 0 0 -.35277776 51.013638 96.367457)"/><path clip-path="url(#T)" d="m0 0-.095-2.544-1.073.04c-.101.667-.283 1.16-.545 1.484s-.614.492-1.056.508c-.831.033-1.476-.388-1.936-1.256-.459-.87-.723-2.174-.787-3.917-.062-1.62.087-2.855.444-3.701.359-.849.913-1.286 1.666-1.315.383-.014.699.048.948.179.246.134.447.343.602.624.157.281.298.68.422 1.197l1.081-.043-.101-2.656c-.584-.131-1.118-.22-1.597-.273-.482-.054-.98-.067-1.497-.051-1.094.043-1.978.297-2.654.76-.675.464-1.161 1.147-1.455 2.044-.296.9-.417 2.024-.366 3.382.047 1.269.281 2.365.704 3.289.422.923 1.019 1.625 1.791 2.104.771.482 1.68.702 2.727.662.532-.019 1.012-.07 1.441-.15.428-.08.874-.204 1.336-.367" transform="matrix(.35277776 0 0 -.35277776 54.151033 96.582867)"/><path clip-path="url(#S)" d="m0 0 .106-2.79-1.081-.041c-.195.549-.356.919-.485 1.109-.128.193-.278.343-.452.45-.172.107-.461.153-.866.139l-1.721-.067.161-4.207 1.041.038c.232.01.413.053.541.131.129.078.233.203.314.375.08.174.152.439.218.801l.892.032.135-3.559-.892-.035c-.086.337-.177.592-.273.768-.096.175-.209.298-.335.37-.127.07-.313.102-.561.091l-1.042-.04.179-4.684 1.712.067c.185.008.339.027.465.056.126.032.235.083.334.15.097.07.191.158.279.273.086.116.163.239.23.37.066.131.134.305.206.517.07.214.145.506.228.878l1.079.04-.026-3.205-7.758-.295-.022.579c.192.067.343.134.455.206.11.072.19.169.241.289.051.123.081.276.089.461s.008.418-.003.699l-.286 7.557c-.013.276-.027.506-.049.693-.018.185-.059.338-.118.45-.061.115-.148.209-.265.279-.115.067-.274.126-.476.179l-.022.576z" transform="matrix(.35277776 0 0 -.35277776 57.306453 96.381637)"/><path clip-path="url(#R)" d="m0 0c.461.428.785.86.972 1.296.188.439.251.862.186 1.272-.063.41-.21.723-.44.932-.231.209-.504.289-.82.241-.218-.035-.41-.123-.576-.262-.163-.142-.283-.338-.356-.59-.072-.251-.081-.546-.029-.886.056-.359.163-.688.325-.991.161-.3.407-.637.738-1.012m2.066-5.442c-.479.448-1.042.986-1.686 1.615-.642.632-1.138 1.13-1.481 1.489-.27-.319-.454-.659-.549-1.018-.096-.358-.112-.741-.048-1.154.097-.621.336-1.084.722-1.387.385-.3.863-.407 1.437-.319.342.054.634.142.873.266.239.123.483.291.732.508m.861-.701c-.482-.501-.967-.873-1.457-1.114-.49-.244-1.074-.415-1.751-.52-1.039-.163-1.885-.043-2.536.362-.651.401-1.047 1.052-1.187 1.955-.045.289-.052.562-.02.822.031.259.095.511.191.752.095.244.226.485.39.729.165.241.366.482.603.723s.57.538 1 .889c-.365.404-.633.734-.803.985-.17.252-.311.514-.422.79-.114.276-.194.576-.245.9-.088.568-.023 1.095.194 1.588.216.49.575.908 1.075 1.251.501.34 1.073.562 1.713.661.842.131 1.536.04 2.079-.268.544-.31.872-.825.983-1.548.042-.267.046-.519.011-.763-.034-.241-.118-.495-.249-.763-.131-.265-.319-.541-.56-.822-.241-.284-.656-.694-1.244-1.227.403-.431.889-.915 1.461-1.456s1.058-.991 1.458-1.342c.186.356.311.691.376 1.004.066.316.075.63.026.94-.047.303-.138.509-.276.624s-.336.161-.593.139l-.088.571 2.434.377.077-.5c.012-.075.014-.241.006-.498-.008-.161-.022-.325-.044-.488-.016-.166-.042-.329-.077-.49-.032-.163-.075-.324-.123-.479-.051-.164-.107-.324-.166-.48-.061-.158-.131-.313-.209-.468-.08-.161-.169-.319-.26-.474-.099-.158-.2-.311-.305-.456.273-.259.509-.463.706-.61.195-.147.365-.249.507-.303.141-.056.279-.072.415-.053.124.021.237.069.338.147.099.078.233.228.4.447l.617-.629c-.338-.528-.68-.924-1.02-1.189-.344-.268-.712-.431-1.107-.493-.433-.067-.821-.035-1.166.094-.345.131-.729.356-1.152.683" transform="matrix(.35277776 0 0 -.35277776 60.795321 97.559667)"/><path clip-path="url(#Q)" d="m0 0-.158.557c.202.099.356.198.462.3.106.099.173.217.201.351.028.136.022.297-.012.485-.038.187-.093.415-.169.685l-2.359 8.428-.616-.175c-.306-.085-.528-.19-.667-.313-.139-.126-.246-.289-.319-.492-.072-.201-.11-.458-.116-.766-.007-.308-.003-.598.012-.865l-1.042-.292-.83 2.964 8.95 2.509.83-2.967-1.041-.292c-.203.357-.358.616-.464.782-.107.164-.212.3-.316.407-.105.108-.206.193-.306.255-.099.067-.2.11-.299.136-.101.027-.22.035-.357.025-.135-.014-.308-.046-.515-.105l-.548-.153 2.36-8.425c.084-.297.155-.524.214-.672.059-.152.122-.27.189-.353.068-.086.138-.15.214-.19.073-.046.17-.075.288-.094.116-.019.269-.019.454.003l.156-.557z" transform="matrix(.35277776 0 0 -.35277776 66.039468 99.183687)"/><path clip-path="url(#P)" d="m0 0 .941-2.627-1.02-.364c-.349.463-.616.768-.795.913-.181.142-.37.241-.565.289-.199.051-.488.008-.869-.128l-1.622-.579 1.422-3.969.98.354c.218.078.378.174.477.287.099.112.161.265.185.452.025.19.013.466-.032.828l.84.299 1.202-3.352-.84-.3c-.185.294-.348.509-.493.648-.144.139-.288.222-.428.252-.144.029-.331.002-.564-.081l-.982-.351 1.581-4.413 1.613.579c.173.061.315.128.424.195.11.067.201.147.276.241.073.094.133.212.182.346.049.136.086.275.11.42.022.147.035.332.038.557.004.225-.011.525-.046.905l1.018.364.94-3.066-7.308-2.616-.196.543c.163.124.287.233.37.335.084.102.132.217.144.351.011.128-.006.286-.053.463-.047.18-.118.402-.214.667l-2.55 7.121c-.094.257-.177.471-.252.645-.075.171-.16.303-.251.396-.091.091-.203.15-.335.183-.131.029-.3.04-.509.026l-.194.544z" transform="matrix(.35277776 0 0 -.35277776 70.132466 93.409557)"/><path clip-path="url(#O)" d="m0 0 1.044-2.322-.978-.442c-.387.552-.77.914-1.148 1.088-.377.171-.768.168-1.171-.017-.76-.34-1.151-1.004-1.175-1.984-.027-.985.322-2.271 1.037-3.859.664-1.478 1.347-2.52 2.044-3.117.698-.6 1.389-.744 2.077-.436.348.158.606.35.767.581.162.23.251.506.265.827.015.322-.039.739-.156 1.259l.988.444 1.091-2.423c-.466-.378-.902-.697-1.309-.959-.409-.26-.848-.495-1.319-.707-.999-.45-1.903-.619-2.713-.501-.813.115-1.551.509-2.215 1.181s-1.274 1.629-1.832 2.866c-.522 1.157-.798 2.244-.831 3.259s.189 1.909.665 2.683c.479.774 1.195 1.374 2.151 1.805.485.217.937.388 1.356.506.419.118.875.206 1.362.268" transform="matrix(.35277776 0 0 -.35277776 73.007746 92.221047)"/><path clip-path="url(#N)" d="m0 0c.22-.396.384-.656.497-.787.11-.129.238-.215.385-.263.145-.045.359-.032.64.035l.282-.503-3.602-2.006-.283.506c.224.225.355.399.39.519.035.118.029.257-.016.418-.046.158-.19.453-.431.889l-1.712 3.075-3.119-1.736 1.711-3.074c.102-.179.197-.343.292-.493.094-.147.182-.262.265-.345.08-.081.166-.14.257-.177.088-.038.193-.054.313-.051.118.003.255.024.409.062l.281-.509-3.622-2.014-.283.506c.141.148.245.276.312.389.067.115.094.238.083.369-.008.131-.052.281-.127.45-.076.169-.182.378-.318.621l-3.679 6.609c-.134.242-.251.44-.353.598-.105.158-.206.273-.312.35-.106.075-.225.116-.359.124-.135.01-.304-.008-.507-.054l-.282.506 3.624 2.014.281-.503c-.201-.215-.322-.391-.36-.533s-.034-.3.013-.469c.047-.174.181-.455.399-.849l1.426-2.56 3.119 1.735-1.425 2.56c-.217.389-.382.651-.497.785-.112.134-.241.222-.383.268-.142.045-.359.037-.651-.024l-.281.503 3.602 2.006.281-.506c-.167-.174-.278-.321-.332-.442-.053-.12-.069-.246-.049-.372.02-.129.063-.265.124-.405.062-.139.172-.345.324-.621z" transform="matrix(.35277776 0 0 -.35277776 77.861262 93.394427)"/><path clip-path="url(#M)" d="m0 0 .325-.479c-.129-.182-.215-.319-.257-.413-.042-.091-.064-.19-.064-.297s.036-.244.111-.407c.074-.166.216-.402.425-.704l5.516-8.069-1.655-1.133-6.786 3.629c-.918.493-1.619.892-2.102 1.2l-.059-.041c.753-1.009 1.525-2.091 2.314-3.245l1.596-2.33c.246-.364.437-.605.568-.728.132-.121.269-.199.412-.223.142-.026.354.006.635.099l.327-.479-2.464-1.685-.327.477c.127.158.218.297.272.423.053.121.071.247.048.378-.023.128-.079.273-.167.431-.089.158-.212.351-.367.579l-4.285 6.266c-.249.361-.434.603-.556.72-.121.118-.259.193-.411.225-.152.03-.366 0-.642-.088l-.327.477 2.64 1.805 5.354-2.877c.334-.182.782-.433 1.339-.752.557-.322 1.071-.632 1.54-.937l.103.072c-.837 1.119-1.724 2.364-2.658 3.733l-.921 1.347c-.215.313-.381.533-.499.656-.117.126-.224.209-.318.252-.097.04-.197.059-.307.056-.11-.005-.273-.037-.491-.102l-.327.477z" transform="matrix(.35277776 0 0 -.35277776 79.567402 88.117217)"/><path clip-path="url(#L)" d="m0 0c1.125-1.363 2.11-2.255 2.954-2.678.843-.423 1.568-.383 2.172.118.313.257.5.57.566.94.064.369.025.776-.116 1.224-.142.45-.373.926-.694 1.435-.322.509-.71 1.039-1.165 1.588-.74.897-1.427 1.596-2.057 2.097-.629.503-1.199.801-1.711.894-.514.097-.972-.021-1.374-.35-.588-.488-.766-1.163-.535-2.025.229-.86.883-1.941 1.96-3.243m5.64-3.468c-1.192-.985-2.409-1.339-3.649-1.055-1.239.278-2.497 1.192-3.777 2.74-.838 1.014-1.409 2-1.714 2.959-.304.961-.328 1.858-.074 2.702.255.838.771 1.58 1.551 2.225 1.213 1.002 2.443 1.369 3.691 1.098 1.248-.27 2.502-1.168 3.761-2.691.706-.854 1.22-1.658 1.544-2.419.324-.76.482-1.472.474-2.142-.009-.667-.168-1.285-.48-1.853-.312-.57-.754-1.093-1.327-1.564" transform="matrix(.35277776 0 0 -.35277776 81.884372 88.903207)"/><path clip-path="url(#K)" d="m0 0 .406-.415c-.097-.177-.16-.324-.192-.45-.033-.126-.031-.252.01-.378.037-.126.113-.262.23-.404.115-.147.27-.319.466-.52l6.1-6.261 1.098 1.072c.219.211.356.42.415.624.059.203.059.433.003.683-.056.251-.174.538-.351.859-.179.321-.353.613-.53.876l.777.755 2.349-2.662-5.389-5.251-.404.415c.099.176.163.329.195.46.032.129.027.255-.019.381-.042.123-.123.257-.241.401-.117.142-.273.314-.471.517l-5.273 5.41c-.191.195-.357.358-.498.482-.139.125-.27.208-.391.254-.122.046-.249.056-.38.029-.133-.026-.291-.091-.474-.187l-.405.415z" transform="matrix(.35277776 0 0 -.35277776 83.845112 84.405367)"/><path clip-path="url(#J)" d="m0 0c1.33-1.162 2.445-1.885 3.346-2.164.9-.281 1.61-.126 2.125.464.267.305.403.645.407 1.017.004.375-.099.771-.312 1.192-.211.418-.517.854-.916 1.304s-.866.91-1.403 1.379c-.877.769-1.666 1.347-2.367 1.741-.702.393-1.312.597-1.835.608-.522.01-.953-.18-1.297-.571-.502-.575-.571-1.269-.205-2.081.365-.814 1.184-1.775 2.457-2.889m6.126-2.515c-1.02-1.165-2.164-1.708-3.433-1.628-1.27.078-2.657.777-4.168 2.097-.991.868-1.713 1.749-2.168 2.646-.456.897-.624 1.783-.506 2.654.115.87.506 1.684 1.171 2.445 1.037 1.186 2.192 1.746 3.467 1.679 1.276-.067 2.656-.75 4.145-2.052.833-.728 1.469-1.44 1.912-2.139.442-.699.714-1.377.812-2.038.099-.659.041-1.296-.177-1.907-.214-.613-.568-1.197-1.055-1.757" transform="matrix(.35277776 0 0 -.35277776 87.050562 84.059607)"/><path clip-path="url(#I)" d="m0 0 2.013-1.47-.639-.873c-.467.193-.856.305-1.161.335-.308.032-.587-.014-.837-.134-.25-.118-.489-.332-.716-.643-.307-.42-.437-.897-.386-1.43s.319-1.119.809-1.765c.49-.642 1.214-1.315 2.173-2.016.826-.606 1.589-1.063 2.288-1.382s1.31-.471 1.833-.458c.524.011.923.206 1.199.584.273.375.352.744.233 1.103-.117.359-.447.736-.991 1.133l-.269.198c-.358.262-.623.436-.792.528-.168.093-.308.142-.415.155-.109.008-.214-.006-.313-.043-.1-.038-.249-.126-.443-.262l-.468.34 2.384 3.264.468-.34c-.084-.265-.109-.466-.075-.608.034-.145.116-.284.244-.42.127-.134.327-.303.597-.498l2.672-1.953-.458-1.071-.828-.064c-.025-.755-.274-1.462-.754-2.116-.906-1.242-1.985-1.874-3.236-1.896-1.25-.024-2.693.563-4.329 1.757-.859.629-1.536 1.288-2.03 1.982-.492.693-.804 1.379-.932 2.064-.128.683-.109 1.334.057 1.953.166.618.451 1.202.854 1.756.68.932 1.43 1.696 2.248 2.29" transform="matrix(.35277776 0 0 -.35277776 89.221522 78.187227)"/><path clip-path="url(#H)" d="m0 0 2.046-1.264c.264-.163.469-.278.613-.351.145-.069.271-.115.379-.131.106-.016.202-.013.285.003.086.021.176.064.275.128.099.067.21.169.332.311l.491-.306-2.291-3.706-.491.303c.078.206.123.38.137.525.013.142-.017.273-.086.391-.073.12-.185.238-.338.353-.15.113-.349.249-.593.399l-2.044 1.261-5.396.82c-.46.067-.805.11-1.034.128-.268.025-.47.025-.605.009-.134-.022-.239-.051-.314-.092-.072-.04-.151-.112-.235-.216l-.493.305 2.212 3.58.493-.302c-.164-.378-.081-.667.247-.871.13-.077.302-.144.514-.201.215-.053.511-.112.886-.171l3.508-.6-1.979 2.925c-.199.289-.375.514-.528.672-.152.16-.319.294-.498.404-.179.113-.348.155-.506.123-.159-.026-.295-.12-.407-.281l-.493.303 1.664 2.696.493-.305c-.044-.139-.065-.265-.06-.375.003-.11.032-.249.086-.412.053-.164.152-.378.294-.646.145-.267.343-.597.597-.99z" transform="matrix(.35277776 0 0 -.35277776 92.576712 77.528697)"/><path clip-path="url(#G)" d="m0 0c-.398.187-.68.303-.85.346-.172.042-.326.042-.464-.003-.137-.046-.308-.182-.511-.405l-.525.247 1.486 3.141.525-.249c-.029-.193-.036-.356-.021-.487.012-.126.061-.244.144-.349.083-.101.207-.2.365-.294.16-.094.367-.201.621-.319l4.957-2.346c.656-.31 1.182-.616 1.58-.921.396-.302.696-.626.904-.969.207-.343.333-.707.376-1.093.045-.385.019-.779-.077-1.192-.096-.407-.252-.84-.472-1.304-.32-.675-.668-1.208-1.045-1.601-.377-.394-.791-.662-1.245-.806-.452-.142-.937-.18-1.453-.107-.515.072-1.127.275-1.835.61l-5.134 2.429c-.248.118-.461.212-.635.279-.175.069-.326.101-.455.101-.131.003-.252-.034-.367-.107-.114-.069-.241-.182-.38-.337l-.522.246 1.773 3.747.523-.247c-.033-.222-.041-.396-.019-.519.023-.123.071-.233.144-.324.072-.094.18-.188.325-.279.143-.091.364-.206.66-.345l5.235-2.477c.418-.198.809-.357 1.176-.472s.703-.166 1.008-.158c.307.011.578.097.816.26.238.158.44.415.606.769.229.484.294.897.189 1.24-.104.34-.328.648-.671.932-.341.281-.898.605-1.672.969z" transform="matrix(.35277776 0 0 -.35277776 93.452032 71.965257)"/><path clip-path="url(#F)" d="m0 0 .542-.201c-.001-.225.007-.386.026-.487.02-.099.06-.193.122-.279.06-.088.17-.176.326-.268.157-.091.409-.2.754-.329l9.169-3.385-.693-1.88-7.635-.972c-1.034-.128-1.836-.209-2.408-.238l-.025-.067c1.198-.386 2.453-.822 3.764-1.304l2.653-.981c.411-.149.705-.238.885-.262.176-.024.332-.005.463.056.132.062.286.212.46.447l.544-.2-1.034-2.799-.543.201c.013.201.005.37-.022.498-.025.131-.085.244-.179.338-.094.093-.222.179-.387.254-.165.08-.376.166-.633.26l-7.121 2.63c-.413.152-.702.24-.87.265-.169.026-.325.008-.465-.057-.142-.061-.299-.208-.473-.444l-.543.201 1.108 3.002 6.03.752c.379.046.888.102 1.528.161.64.061 1.238.104 1.796.128l.043.121c-1.331.428-2.774.929-4.327 1.502l-1.531.565c-.357.131-.62.214-.787.249s-.304.04-.406.019c-.102-.021-.195-.067-.281-.131-.088-.067-.201-.19-.341-.367l-.544.201z" transform="matrix(.35277776 0 0 -.35277776 94.452012 67.296417)"/><path clip-path="url(#E)" d="m0 0c.196-.059.38-.107.552-.145.17-.04.313-.061.43-.061.116-.003.218.016.309.053.088.035.175.097.258.182.083.086.168.196.248.33l.557-.164-1.173-3.976-.556.163c-.001.204-.017.37-.049.498-.034.126-.099.236-.198.321-.101.089-.236.164-.409.231-.172.067-.392.139-.662.219l-7.263 2.143c-.271.08-.493.136-.671.177-.178.04-.332.048-.463.029-.13-.019-.245-.072-.344-.161-.101-.091-.207-.222-.319-.396l-.554.163 1.17 3.977.557-.163c.001-.228.021-.399.061-.517.043-.121.105-.22.192-.3.086-.08.208-.153.366-.222.155-.07.39-.148.705-.244z" transform="matrix(.35277776 0 0 -.35277776 98.181752 66.772087)"/><path clip-path="url(#D)" d="m0 0c-.222.129-.434.241-.635.332-.202.091-.419.164-.653.217-.28.064-.507.046-.686-.051-.178-.096-.309-.278-.395-.546l-.563.128.751 3.318.565-.128c-.011-.201.021-.383.096-.544.075-.158.199-.316.37-.471.173-.155.464-.359.876-.608l8.821-5.391-.403-1.778-10.16-.372c-.454-.016-.78-.04-.977-.078-.198-.035-.366-.104-.504-.201-.138-.099-.259-.251-.36-.46l-.565.128.964 4.258.565-.128c-.027-.276.01-.49.112-.648.103-.158.273-.265.513-.319.189-.043.376-.07.564-.08.186-.008.487-.011.903 0l6.49.131z" transform="matrix(.35277776 0 0 -.35277776 96.607342 63.002687)"/><path clip-path="url(#C)" d="m0 0 2.761-.399-.155-1.068c-.573-.094-.967-.185-1.179-.279-.211-.091-.384-.212-.522-.362-.137-.152-.233-.425-.292-.827l-.246-1.706 4.169-.602.149 1.033c.034.228.023.413-.031.555-.053.139-.158.265-.313.377-.155.107-.405.23-.747.359l.128.884 3.527-.512-.128-.884c-.346-.024-.615-.066-.804-.131-.19-.061-.332-.15-.423-.262-.094-.11-.158-.289-.193-.533l-.15-1.031 4.639-.672.246 1.698c.025.182.035.337.027.466-.008.128-.038.249-.086.356-.051.109-.123.217-.22.324-.096.107-.204.203-.321.294-.118.086-.276.185-.471.292-.198.11-.472.239-.824.383l.154 1.071 3.149-.608-1.108-7.68-.575.083c-.029.201-.069.362-.12.485-.05.12-.13.217-.241.286-.111.075-.256.132-.437.172-.18.043-.409.085-.686.123l-7.487 1.082c-.271.04-.502.067-.689.08-.188.014-.343.003-.466-.037-.123-.038-.23-.107-.319-.209-.088-.102-.177-.247-.262-.437l-.574.083z" transform="matrix(.35277776 0 0 -.35277776 96.238482 58.943207)"/><path clip-path="url(#B)" d="m0 0 4.871-.3.048.779c.026.421-.016.772-.124 1.053-.109.281-.269.508-.486.683-.214.174-.472.299-.771.38-.3.08-.63.128-.993.153-.794.048-1.399-.084-1.818-.394-.419-.311-.648-.798-.69-1.46-.026-.452-.04-.749-.037-.894m10.966.174-.257-4.137-.578.037c-.046.196-.099.354-.16.471-.06.118-.148.207-.263.268-.117.064-.267.11-.45.137-.182.029-.415.051-.694.067l-7.551.468c-.274.016-.506.025-.693.025-.186-.003-.341-.027-.462-.075-.119-.049-.22-.126-.3-.234-.079-.109-.155-.262-.225-.457l-.578.034.285 4.596c.039.621.119 1.143.242 1.572.123.428.295.798.514 1.111.18.263.399.482.659.656s.558.303.895.383c.337.083.724.11 1.162.083.572-.037 1.056-.158 1.454-.364s.723-.471.975-.795c.252-.327.482-.753.689-1.283l.087-.006c.212.378.482.683.809.922.33.233.739.439 1.229.613l1.224.423c.545.187.956.383 1.236.584s.457.45.534.747l.579-.038-.19-3.034c-.485-.275-1.202-.578-2.148-.902l-1.536-.522c-.454-.156-.781-.292-.975-.413-.195-.12-.332-.249-.411-.383-.077-.133-.126-.348-.144-.637l-.03-.455 2.821-.177c.438-.027.746-.027.923 0 .177.024.321.088.434.185.111.099.217.289.316.568z" transform="matrix(.35277776 0 0 -.35277776 96.729762 57.398567)"/><path clip-path="url(#A)" d="m0 0c.694.142 1.21.37 1.548.683.337.31.503.766.495 1.36-.005.311-.067.589-.187.836-.121.243-.314.442-.575.586-.263.148-.59.217-.981.212-.363-.003-.678-.07-.94-.193-.266-.126-.517-.324-.753-.597-.235-.271-.484-.648-.747-1.13-.222-.415-.454-.79-.696-1.125-.241-.335-.506-.621-.798-.86-.293-.238-.613-.423-.963-.557-.349-.134-.743-.203-1.182-.211-.719-.008-1.332.142-1.84.458-.509.313-.897.771-1.165 1.376-.267.605-.409 1.307-.42 2.108-.006.468.016.916.064 1.344.051.426.142.916.273 1.465l2.547.035.013-1.082c-.46-.107-.824-.241-1.095-.399-.269-.158-.467-.354-.592-.587-.125-.235-.187-.53-.182-.881.006-.3.067-.567.188-.803.12-.236.297-.418.53-.554.233-.134.511-.196.841-.193.337.005.632.069.878.19.247.123.487.324.721.605.233.284.498.694.795 1.229.364.654.726 1.168 1.079 1.543.355.375.743.656 1.165.838s.913.278 1.474.284c.719.011 1.346-.131 1.879-.423.534-.292.948-.723 1.24-1.294.29-.57.441-1.232.452-1.984.007-.538-.018-1.095-.077-1.679-.061-.581-.15-1.13-.272-1.644l-2.702-.035z" transform="matrix(.35277776 0 0 -.35277776 99.661202 54.547387)"/><path clip-path="url(#z)" d="m0 0c.203.013.394.032.568.056.174.022.316.054.423.091.11.04.201.094.27.161.073.064.132.153.18.262.048.107.088.241.118.394l.578.04.292-4.135-.577-.04c-.074.19-.146.34-.221.447-.075.108-.174.185-.299.234-.123.048-.277.072-.462.075-.184.002-.417-.009-.697-.027l-7.553-.536c-.282-.019-.512-.043-.691-.07-.18-.024-.328-.069-.445-.133-.115-.062-.203-.153-.266-.271-.062-.12-.114-.278-.158-.482l-.58-.04-.292 4.135.578.04c.079-.212.158-.364.239-.463.08-.097.175-.169.284-.212.109-.046.249-.072.42-.083.17-.008.418 0 .745.021z" transform="matrix(.35277776 0 0 -.35277776 99.776452 50.697627)"/><path clip-path="url(#y)" d="m0 0-.573-.08c-.071.214-.147.383-.233.5-.083.118-.19.201-.32.247-.13.045-.291.064-.482.053-.19-.01-.425-.034-.703-.072l-8.669-1.184.087-.634c.043-.314.117-.546.22-.702.103-.158.25-.284.442-.383.191-.099.438-.171.743-.222.305-.048.592-.083.86-.105l.147-1.071-3.053-.417-1.256 9.209 3.05.418.148-1.074c-.381-.153-.661-.271-.839-.354-.176-.083-.326-.168-.447-.254-.12-.088-.22-.179-.294-.268-.077-.091-.134-.182-.176-.281-.039-.094-.063-.212-.071-.345-.008-.14.003-.314.031-.528l.076-.562 8.669 1.181c.308.045.541.083.697.12.157.038.283.083.375.139.093.057.165.118.219.185.053.07.096.161.131.273.035.116.053.263.059.45l.573.078z" transform="matrix(.35277776 0 0 -.35277776 100.377302 48.860177)"/><path clip-path="url(#x)" d="m0 0 2.346.52c.304.066.533.128.686.176.153.051.275.107.364.169.087.064.154.128.201.204.046.072.083.165.108.283.025.115.033.265.021.453l.565.126.942-4.258-.565-.123c-.087.2-.177.359-.267.468-.089.113-.202.188-.336.223-.134.034-.294.04-.485.016-.19-.022-.425-.065-.704-.126l-2.348-.52-4.438-3.173c-.377-.273-.655-.482-.833-.63-.207-.168-.353-.307-.437-.415-.085-.109-.138-.203-.163-.283-.024-.081-.029-.188-.018-.319l-.565-.126-.911 4.111.565.126c.146-.383.407-.536.785-.45.147.032.319.101.509.214.191.107.443.273.752.493l2.935 2.016-3.457.715c-.345.07-.627.107-.849.115-.22.008-.434-.01-.637-.056-.206-.046-.356-.134-.45-.265s-.126-.292-.095-.487l-.567-.124-.682 3.093.565.124c.065-.132.137-.236.218-.314.079-.075.195-.152.347-.233.154-.08.375-.163.664-.257.29-.091.662-.19 1.118-.294z" transform="matrix(.35277776 0 0 -.35277776 97.936112 44.340607)"/></g><path clip-path="url(#w)" d="m0 0c-.246-.246-.603-.37-1.058-.37h-.044c-.461 0-.81.124-1.057.37-.245.241-.369.597-.369 1.055v11.764h-.734c-.444 0-.784.121-1.025.359-.235.236-.357.573-.357 1.023v.04c0 .448.122.796.357 1.026.241.241.581.356 1.025.356h1.532c.679 0 1.194-.179 1.556-.535.359-.362.54-.881.54-1.559v-12.474c0-.458-.124-.814-.366-1.055" fill="#0054a7" transform="matrix(.35277776 0 0 -.35277776 48.50352 84.851277)"/><path clip-path="url(#v)" d="m0 0c-.387-.203-.679-.495-.878-.884-.201-.388-.306-.854-.306-1.406 0-.533.105-.99.306-1.381.199-.389.491-.683.878-.887.378-.201.836-.294 1.368-.294.519 0 .967.099 1.347.308.379.208.671.5.877.889.203.377.304.832.304 1.365 0 .552-.101 1.018-.304 1.406-.206.389-.491.681-.86.884-.381.204-.832.303-1.364.303s-.99-.099-1.368-.303m6.558-3.883c-.148-.506-.338-.951-.57-1.339l-4.081-6.906c-.198-.349-.44-.6-.722-.761-.283-.158-.623-.236-1.023-.236h-.108c-.594 0-.985.172-1.177.507-.197.34-.141.757.162 1.261l4.468 7.536c.124.2.222.428.289.677.066.257.1.538.1.854h2.889c0-.562-.074-1.09-.227-1.593m-2.47 6.266c.833-.479 1.493-1.138 1.97-1.96.485-.83.727-1.732.727-2.713 0-.961-.243-1.834-.732-2.597-.491-.769-1.148-1.374-1.974-1.808-.829-.428-1.732-.643-2.711-.643-.993 0-1.904.215-2.731.643-.828.434-1.485 1.039-1.974 1.808-.49.763-.735 1.636-.735 2.597 0 .981.245 1.883.735 2.713.489.822 1.152 1.481 1.987 1.96.833.485 1.741.726 2.718.726.979 0 1.886-.241 2.72-.726" fill="#0054a7" transform="matrix(.35277776 0 0 -.35277776 51.370756 80.351597)"/><path clip-path="url(#u)" d="m0 0c-.217.206-.321.514-.321.913v.113c0 .404.104.704.312.905.207.203.532.34.976.41.551.085.987.273 1.311.562.322.292.486.632.486 1.031 0 .364-.074.675-.217.935-.145.257-.357.455-.638.594-.28.137-.613.204-1.004.204-.26 0-.486-.024-.688-.078-.204-.048-.382-.123-.538-.225l-.39-.305c-.242-.199-.467-.354-.66-.45-.194-.105-.429-.15-.702-.15h-.103c-.552 0-.944.158-1.19.474-.245.316-.238.693.021 1.143.273.461.623.871 1.045 1.23.425.361.913.648 1.458.851.546.212 1.128.316 1.747.316.838 0 1.62-.193 2.354-.573.734-.383 1.315-.905 1.746-1.564.435-.664.652-1.39.652-2.185 0-.734-.25-1.387-.75-1.974-.491-.578-1.166-1.044-2.016-1.387l-.023.538c1.169-.286 2.067-.782 2.702-1.478.633-.699.947-1.609.947-2.731 0-.906-.253-1.752-.753-2.536-.505-.785-1.177-1.412-2.02-1.88-.841-.464-1.736-.699-2.684-.699-.778 0-1.523.158-2.238.463-.711.308-1.334.739-1.867 1.285-.53.547-.913 1.16-1.143 1.835-.157.444-.118.806.123 1.079.236.271.59.41 1.064.41h.221c.367 0 .655-.089.849-.263.193-.171.413-.471.655-.902.146-.231.333-.426.565-.597.229-.161.494-.287.785-.373.296-.088.628-.131.986-.131.499 0 .948.097 1.338.289.387.196.686.469.905.82.218.353.322.752.322 1.2 0 .704-.221 1.274-.666 1.703-.447.434-1.103.701-1.968.803-.445.04-.774.169-.991.375" fill="#0054a7" transform="matrix(.35277776 0 0 -.35277776 55.972496 82.243857)"/><path clip-path="url(#t)" d="m0 0h-.042c-.547 0-.925.158-1.134.477-.209.318-.206.728.014 1.226l4.982 11.486h-5.246c-.443 0-.786.12-1.02.359-.241.235-.359.573-.359 1.023v.04c0 .447.118.795.359 1.026.234.24.577.356 1.02.356h7.275c.462 0 .819-.099 1.08-.3.257-.204.387-.493.387-.862v-.046c0-.316-.024-.595-.075-.827-.048-.244-.139-.504-.265-.791l-5.27-12.045c-.319-.747-.884-1.122-1.706-1.122" fill="#0054a7" transform="matrix(.35277776 0 0 -.35277776 60.091492 84.981627)"/><path clip-path="url(#s)" d="m0 0c-12.482 10.543.437 45.734 27.954 78.341 26.974 31.948 57.834 49.341 69.793 39.077 8.012-6.877 3.548-26.772-4.926-44.829 17.035 26.621 20.153 51.266 9.651 60.291-14.383 12.364-52.061-7.838-84.832-45.956-33.576-39.064-49.102-81.815-33.954-94.591 10.163-8.569 33.967-2.536 54.246 16.635-14.536-10.106-30.56-15.194-37.932-8.968" fill="#0054a7" fill-rule="evenodd" transform="matrix(.35277776 0 0 -.35277776 37.115324 74.013377)"/><path clip-path="url(#r)" d="m0 0c-32.837 20.776-53.558 47.622-46.272 59.965 4.363 7.396 17.796 7.897 34.92 2.648-25.671 11.866-47.685 13.926-53.974 3.511-8.216-13.601 13.439-42.614 48.42-65.647 30.574-20.125 64.235-27.958 73.922-21.882-14.238.206-35.555 7.828-57.016 21.405" fill="#df0019" fill-rule="evenodd" transform="matrix(.35277776 0 0 -.35277776 49.266859 61.308757)"/><path clip-path="url(#q)" d="m0 0c23.932-17.841 37.692-38.07 32.148-49.684-6.934-14.512-41.336-10.099-76.842 9.852-4.752 2.673-9.271 5.485-13.539 8.393 7.746-6.625 16.702-13.157 26.954-18.931 35.483-20.001 70.221-24.155 77.281-9.38 6.691 14.002-11.796 39.955-46.002 59.75" fill="#ef7e00" fill-rule="evenodd" transform="matrix(.35277776 0 0 -.35277776 62.585526 51.181357)"/><path clip-path="url(#p)" d="m0 0c.621-.53 1.552-.455 2.083.166.531.624.453 1.556-.168 2.086-.623.528-1.554.455-2.081-.169-.533-.623-.454-1.553.166-2.083" fill="#0054a7" fill-rule="evenodd" transform="matrix(.35277776 0 0 -.35277776 52.181334 49.795427)"/><path clip-path="url(#o)" d="m0 0c.032-.364-.082-.718-.316-.993-.236-.284-.569-.456-.928-.491-.363-.029-.719.086-.995.322-.273.233-.451.562-.485.926-.026.359.089.718.325.991.449.557 1.352.638 1.912.172.283-.233.459-.557.487-.927" fill="#0054a7" fill-rule="evenodd" transform="matrix(.35277776 0 0 -.35277776 56.196402 46.148797)"/><path clip-path="url(#n)" d="m0 0c-.21-.257-.505-.415-.831-.439-.331-.032-.646.072-.898.286-.504.421-.57 1.184-.148 1.704.426.506 1.228.567 1.723.152.509-.436.578-1.189.154-1.703" fill="#0054a7" fill-rule="evenodd" transform="matrix(.35277776 0 0 -.35277776 56.877969 45.774717)"/><path clip-path="url(#m)" d="m0 0c-.171-.196-.398-.316-.636-.335-.245-.016-.483.057-.676.214-.193.159-.315.383-.331.633-.023.251.06.492.222.682.315.375.907.418 1.297.116.393-.333.441-.919.124-1.31" fill="#0054a7" fill-rule="evenodd" transform="matrix(.35277776 0 0 -.35277776 57.597389 45.168187)"/><path clip-path="url(#l)" d="m0 0c.301-.246.489-.608.52-1.002.032-.39-.092-.771-.346-1.068-.244-.297-.601-.485-.995-.517-.392-.035-.771.086-1.07.335-.62.53-.704 1.457-.182 2.075.501.6 1.476.686 2.073.177" fill="#0054a7" fill-rule="evenodd" transform="matrix(.35277776 0 0 -.35277776 54.3863 47.344827)"/><path clip-path="url(#k)" d="m0 0c.612-.522.692-1.443.189-2.067-.26-.306-.615-.485-1.003-.517-.396-.038-.778.083-1.075.337-.615.522-.697 1.444-.185 2.06.52.613 1.466.688 2.074.187" fill="#0054a7" fill-rule="evenodd" transform="matrix(.35277776 0 0 -.35277776 53.618691 48.145027)"/><path clip-path="url(#j)" d="m0 0c.035-.37-.079-.731-.317-1.012-.239-.281-.568-.45-.932-.482-.367-.032-.729.077-1.006.313-.282.241-.454.57-.483.937-.031.365.083.721.319 1.005.453.557 1.373.64 1.933.166.285-.233.455-.565.486-.927" fill="#0054a7" fill-rule="evenodd" transform="matrix(.35277776 0 0 -.35277776 55.330545 46.899897)"/><path clip-path="url(#i)" d="m0 0c-.158.126-.262.335-.281.554-.019.225.051.44.199.608.248.311.816.381 1.163.097.162-.134.273-.338.29-.557.024-.217-.051-.453-.191-.616-.144-.166-.34-.271-.559-.292-.229-.016-.455.053-.621.206" fill="#0054a7" fill-rule="evenodd" transform="matrix(.35277776 0 0 -.35277776 57.974333 44.836577)"/><path clip-path="url(#h)" d="m0 0c.363.032.687.206.918.487.238.282.346.64.321.999-.038.365-.216.691-.496.922-.278.227-.632.348-.996.31-.36-.032-.69-.211-.919-.49-.467-.538-.387-1.443.169-1.915.283-.235.635-.35 1.003-.313" fill="#0054a7" fill-rule="evenodd" transform="matrix(.35277776 0 0 -.35277776 49.975873 53.593257)"/><path clip-path="url(#g)" d="m0 0c.216.252.32.57.282.897-.028.335-.184.621-.439.833-.506.42-1.269.351-1.704-.155-.422-.509-.343-1.31.156-1.722.52-.426 1.273-.362 1.705.147" fill="#0054a7" fill-rule="evenodd" transform="matrix(.35277776 0 0 -.35277776 49.728363 54.331027)"/><path clip-path="url(#f)" d="m0 0c.159.201.236.447.213.683-.024.246-.139.471-.329.629-.191.161-.433.241-.683.212-.252-.022-.474-.145-.632-.335-.312-.378-.249-.972.116-1.299.403-.326.986-.273 1.315.11" fill="#0054a7" fill-rule="evenodd" transform="matrix(.35277776 0 0 -.35277776 49.259733 55.146367)"/><path clip-path="url(#e)" d="m0 0c.301-.252.688-.375 1.079-.335s.743.228.992.533c.249.292.367.675.333 1.069-.038.391-.22.744-.527.996-.625.517-1.554.434-2.068-.19-.504-.603-.416-1.575.191-2.073" fill="#0054a7" fill-rule="evenodd" transform="matrix(.35277776 0 0 -.35277776 50.829877 51.599887)"/><path clip-path="url(#d)" d="m0 0c.623-.514 1.546-.428 2.067.182.252.308.371.688.334 1.079-.035.394-.223.75-.524.994-.625.511-1.549.428-2.063-.182-.512-.622-.415-1.567.186-2.073" fill="#0054a7" fill-rule="evenodd" transform="matrix(.35277776 0 0 -.35277776 51.481739 50.701397)"/><path clip-path="url(#c)" d="m0 0c.368.032.7.206.937.49.236.284.343.64.31 1.01-.033.364-.208.693-.491.929-.282.235-.638.345-1.001.308-.37-.032-.698-.209-.933-.493-.468-.546-.39-1.465.18-1.931.275-.238.634-.351.998-.313" fill="#0054a7" fill-rule="evenodd" transform="matrix(.35277776 0 0 -.35277776 50.560637 52.607847)"/><path clip-path="url(#b)" d="m0 0c-.149.134-.374.196-.593.177-.225-.019-.425-.126-.565-.303-.255-.297-.229-.873.116-1.159.16-.14.379-.212.601-.19.216.016.43.128.569.299.134.172.207.381.188.6-.023.231-.134.439-.316.576" fill="#0054a7" fill-rule="evenodd" transform="matrix(.35277776 0 0 -.35277776 48.998537 55.576227)"/><path clip-path="url(#a)" d="m0 0c.261.57.159 1.256-.281 1.725.533-.33 1.2-.332 1.722-.025-.196-.463-.176-1.014.063-1.454-.512.161-1.072.073-1.504-.246m3.479 4.164c-.236-.482-.223-1.052.028-1.523-.476.155-1.025.077-1.448-.196.213.57.093 1.226-.326 1.69.539-.348 1.232-.33 1.746.029m7.114-9.635c.016.019.032.04.048.059.007.011.015.019.021.024.002.003.004.005.004.005v.003h.003c.003.005.004.005.007.011.004.005.012.013.02.021.017.019.031.043.049.059.007.011.012.021.02.024.006.005.011.014.015.016 8.209 9.919 11.736 20.495 7.871 23.746-.88.736-1.748.808-2.342.64-.314-.083-.608-.257-.83-.525-.412-.498-.477-1.168-.223-1.714-.425.086-.886.002-1.258-.236-.026.26-.15.493-.347.659-.412.337-1.067.281-1.407-.126-.172-.206-.256-.466-.233-.726.024-.27.151-.508.354-.68.204-.171.464-.252.73-.227.062.005.122.016.18.032-.074-.375-.018-.774.164-1.114-.391.131-.83.096-1.207-.075.085.455-.067.937-.448 1.253-.559.466-1.394.396-1.861-.166-.467-.56-.391-1.398.168-1.861.356-.3.823-.375 1.237-.249-.062-.196-.085-.407-.067-.619.018-.23.086-.455.193-.648-.432.142-.919.088-1.322-.128.189.535.048 1.156-.412 1.539-.591.49-1.468.413-1.959-.174-.49-.592-.411-1.467.176-1.96.426-.353.998-.407 1.471-.193-.203-.466-.181-1.004.057-1.451-.514.166-1.115.064-1.556-.279.369.605.251 1.409-.312 1.88-.618.517-1.545.434-2.063-.187-.516-.619-.435-1.54.186-2.062.534-.448 1.291-.448 1.824-.038-.2-.31-.295-.667-.26-1.036.016-.233.086-.453.193-.648-.587.193-1.292.024-1.722-.434.427.613.335 1.47-.249 1.966-.595.498-1.544.417-2.046-.18-.506-.613-.431-1.537.185-2.049.562-.465 1.454-.425 1.968.097-.236-.319-.35-.71-.315-1.12.02-.235.086-.452.194-.648-.495.164-1.064.073-1.495-.232.308.645.148 1.432-.43 1.898-.672.546-1.663.445-2.209-.23-.49-.613-.453-1.473.051-2.033-.675.439-1.579.324-2.12-.278h-.003-.002c-.493-.646-.445-1.551.107-2.14-.644.394-1.499.279-2.01-.311-.568-.656-.495-1.655.162-2.217.562-.485 1.366-.501 1.945-.086-.222-.479-.214-1.052.037-1.513-.213.073-.441.099-.674.078-.404-.04-.775-.22-1.047-.509.425.6.307 1.484-.252 1.952-.616.515-1.534.426-2.051-.182-.495-.599-.407-1.55.187-2.046.594-.482 1.455-.425 1.976.107-.371-.503-.41-1.226-.116-1.77-.213.073-.44.094-.672.073-.368-.035-.703-.188-.972-.442.301.597.169 1.344-.365 1.791-.62.517-1.543.434-2.061-.184-.518-.622-.435-1.546.186-2.065.56-.466 1.367-.445 1.903.029-.257-.495-.256-1.108 0-1.582-.482.155-1.014.08-1.44-.201.129.503-.024 1.058-.45 1.414-.588.49-1.463.412-1.956-.177s-.414-1.465.174-1.958c.461-.382 1.094-.415 1.585-.128-.139-.439-.104-.929.114-1.328-.213.069-.444.099-.673.075-.212-.019-.415-.078-.6-.177.054.428-.107.878-.459 1.176-.563.468-1.398.393-1.865-.167-.468-.559-.394-1.392.167-1.861.379-.313.884-.383 1.315-.217-.102-.401-.062-.841.138-1.205-.37.121-.769.105-1.125-.032.004.059.004.118 0 .182-.025.268-.149.506-.356.672-.202.174-.461.26-.727.236-.264-.027-.505-.153-.677-.361-.342-.405-.282-1.061.128-1.406.201-.164.45-.244.708-.228-.166-.404-.169-.876-.007-1.277-.587.15-1.234-.03-1.648-.523-.222-.27-.344-.589-.368-.91-.061-.616.165-1.457 1.044-2.191 3.889-3.229 13.667 2.119 21.969 11.96.004.008.009.011.013.019.006.013.01.013.022.024" fill="#0054a7" fill-rule="evenodd" transform="matrix(.35277776 0 0 -.35277776 53.196874 51.211587)"/></svg>