<?xml version="1.0" encoding="UTF-8" standalone="no"?>
<svg
   xmlns:dc="http://purl.org/dc/elements/1.1/"
   xmlns:cc="http://creativecommons.org/ns#"
   xmlns:rdf="http://www.w3.org/1999/02/22-rdf-syntax-ns#"
   xmlns:svg="http://www.w3.org/2000/svg"
   xmlns="http://www.w3.org/2000/svg"
   viewBox="0 0 266.66666 266.66666"
   height="266.66666"
   width="266.66666"
   xml:space="preserve"
   id="svg2"
   version="1.1"><metadata
     id="metadata8"><rdf:RDF><cc:Work
         rdf:about=""><dc:format>image/svg+xml</dc:format><dc:type
           rdf:resource="http://purl.org/dc/dcmitype/StillImage" /></cc:Work></rdf:RDF></metadata><defs
     id="defs6"><clipPath
       id="clipPath18"
       clipPathUnits="userSpaceOnUse"><path
         id="path16"
         d="M 0,200 H 200 V 0 H 0 Z" /></clipPath></defs><g
     transform="matrix(1.3333333,0,0,-1.3333333,0,266.66667)"
     id="g10"><g
       id="g12"><g
         clip-path="url(#clipPath18)"
         id="g14"><g
           transform="translate(100.0003,197.856)"
           id="g20"><path
             id="path22"
             style="fill:#984023;fill-opacity:1;fill-rule:nonzero;stroke:none"
             d="m 0,0 c -54.046,0 -97.862,-43.807 -97.862,-97.859 0,-54.043 43.816,-97.853 97.862,-97.853 54.046,0 97.859,43.81 97.859,97.853 C 97.859,-43.807 54.046,0 0,0" /></g><g
           transform="translate(100.1538,174.5099)"
           id="g24"><path
             id="path26"
             style="fill:#025a30;fill-opacity:1;fill-rule:nonzero;stroke:none"
             d="m 0,0 c -41.246,0 -74.682,-33.433 -74.682,-74.676 0,-41.246 33.436,-74.676 74.682,-74.676 41.24,0 74.667,33.43 74.667,74.676 C 74.667,-33.433 41.24,0 0,0" /></g><g
           transform="translate(100.1538,25.7217)"
           id="g28"><path
             id="path30"
             style="fill:#c69370;fill-opacity:1;fill-rule:nonzero;stroke:none"
             d="m 0,0 c -40.935,0 -74.113,33.18 -74.113,74.11 0,40.93 33.178,74.107 74.113,74.107 40.927,0 74.101,-33.177 74.101,-74.107 C 74.101,33.18 40.927,0 0,0 m 0,149.578 c -41.678,0 -75.468,-33.787 -75.468,-75.468 0,-41.681 33.79,-75.465 75.468,-75.465 41.675,0 75.456,33.784 75.456,75.465 0,41.681 -33.781,75.468 -75.456,75.468" /></g><g
           transform="translate(16.7287,101.8608)"
           id="g32"><path
             id="path34"
             style="fill:#ffffff;fill-opacity:1;fill-rule:nonzero;stroke:none"
             d="m 0,0 -2.335,-0.128 0.069,-1.302 c 0.038,-0.775 0.076,-1.259 0.105,-1.445 0.063,-0.337 0.197,-0.604 0.403,-0.78 0.212,-0.189 0.481,-0.267 0.801,-0.253 0.316,0.02 0.568,0.116 0.757,0.293 0.18,0.18 0.287,0.438 0.31,0.766 0.009,0.203 -0.003,0.772 -0.052,1.706 z M -4.018,-0.218 -6.713,-0.36 -6.62,-2.202 c 0.043,-0.72 0.084,-1.175 0.133,-1.366 0.073,-0.291 0.223,-0.526 0.441,-0.703 0.22,-0.174 0.516,-0.249 0.876,-0.232 0.299,0.018 0.554,0.108 0.757,0.256 0.201,0.159 0.348,0.374 0.43,0.647 0.081,0.278 0.095,0.87 0.052,1.775 z M 1.575,2.086 1.778,-1.857 C 1.819,-2.637 1.813,-3.22 1.77,-3.609 1.72,-3.995 1.607,-4.346 1.404,-4.662 1.213,-4.976 0.946,-5.24 0.601,-5.466 0.261,-5.68 -0.125,-5.805 -0.563,-5.831 c -0.47,-0.026 -0.914,0.078 -1.314,0.304 -0.412,0.232 -0.725,0.551 -0.946,0.963 -0.148,-0.612 -0.423,-1.088 -0.844,-1.439 -0.418,-0.339 -0.914,-0.53 -1.491,-0.562 -0.462,-0.026 -0.92,0.052 -1.358,0.237 -0.444,0.186 -0.807,0.453 -1.088,0.801 -0.278,0.348 -0.453,0.781 -0.548,1.312 -0.052,0.327 -0.113,1.125 -0.192,2.396 l -0.174,3.357 z" /></g><g
           transform="translate(9.0327,91.7428)"
           id="g36"><path
             id="path38"
             style="fill:#ffffff;fill-opacity:1;fill-rule:nonzero;stroke:none"
             d="M 0,0 9.992,1.575 11.08,-5.66 9.397,-5.924 8.596,-0.659 6.385,-1.01 7.128,-5.913 5.44,-6.171 4.703,-1.279 1.979,-1.703 2.803,-7.157 1.126,-7.421 Z" /></g><g
           transform="translate(10.8611,81.0502)"
           id="g40"><path
             id="path42"
             style="fill:#ffffff;fill-opacity:1;fill-rule:nonzero;stroke:none"
             d="M 0,0 9.864,2.269 10.29,0.328 0.432,-1.947 Z" /></g><g
           transform="translate(22.7973,75.0939)"
           id="g44"><path
             id="path46"
             style="fill:#ffffff;fill-opacity:1;fill-rule:nonzero;stroke:none"
             d="m 0,0 0.551,-1.906 -6.139,-1.845 c -0.8,-0.241 -1.436,-0.363 -1.909,-0.351 -0.615,0.011 -1.163,0.214 -1.645,0.597 -0.481,0.386 -0.832,0.972 -1.07,1.773 -0.264,0.937 -0.209,1.735 0.183,2.396 0.391,0.671 1.102,1.158 2.135,1.477 L -7.154,0.4 c -0.554,-0.185 -0.929,-0.386 -1.12,-0.591 -0.282,-0.311 -0.369,-0.679 -0.241,-1.106 0.119,-0.421 0.328,-0.69 0.63,-0.789 0.298,-0.104 0.847,-0.038 1.624,0.2 z" /></g><g
           transform="translate(14.8864,66.6774)"
           id="g48"><path
             id="path50"
             style="fill:#ffffff;fill-opacity:1;fill-rule:nonzero;stroke:none"
             d="M 0,0 9.478,3.586 10.148,1.715 0.67,-1.871 Z" /></g><g
           transform="translate(16.8215,61.4068)"
           id="g52"><path
             id="path54"
             style="fill:#ffffff;fill-opacity:1;fill-rule:nonzero;stroke:none"
             d="M 0,0 9.144,4.395 9.951,2.637 5.535,-3.957 11.637,-1.021 12.417,-2.698 3.273,-7.093 2.44,-5.286 6.742,1.189 0.778,-1.686 Z" /></g><g
           transform="translate(27.4325,49.103)"
           id="g56"><path
             id="path58"
             style="fill:#ffffff;fill-opacity:1;fill-rule:nonzero;stroke:none"
             d="m 0,0 1.433,0.937 2.269,-3.618 -3.38,-2.222 c -0.569,0.125 -1.204,0.435 -1.883,0.926 -0.684,0.493 -1.239,1.085 -1.665,1.769 -0.551,0.868 -0.839,1.75 -0.87,2.64 -0.035,0.891 0.191,1.729 0.684,2.507 0.482,0.783 1.143,1.436 1.956,1.973 0.89,0.58 1.787,0.916 2.703,1.003 C 2.164,6.005 3.026,5.82 3.832,5.358 4.453,5.01 5.007,4.442 5.503,3.652 6.156,2.617 6.438,1.665 6.362,0.792 6.29,-0.073 5.904,-0.853 5.228,-1.529 L 3.859,-0.073 C 4.21,0.322 4.401,0.757 4.436,1.239 4.476,1.717 4.346,2.202 4.036,2.686 3.58,3.417 2.974,3.847 2.228,3.966 1.48,4.088 0.635,3.844 -0.299,3.226 -1.308,2.567 -1.926,1.851 -2.156,1.082 c -0.235,-0.769 -0.119,-1.506 0.325,-2.219 0.224,-0.354 0.511,-0.659 0.877,-0.917 0.362,-0.261 0.728,-0.456 1.082,-0.577 l 1.079,0.705 z" /></g><g
           transform="translate(32.2252,36.4418)"
           id="g60"><path
             id="path62"
             style="fill:#ffffff;fill-opacity:1;fill-rule:nonzero;stroke:none"
             d="M 0,0 7.439,7 8.759,5.532 1.32,-1.465 Z" /></g><g
           transform="translate(35.9976,32.3175)"
           id="g64"><path
             id="path66"
             style="fill:#ffffff;fill-opacity:1;fill-rule:nonzero;stroke:none"
             d="M 0,0 6.649,7.772 8.077,6.496 6.62,-1.352 11.062,3.832 12.426,2.623 5.773,-5.158 4.294,-3.838 5.698,3.85 1.361,-1.221 Z" /></g><g
           transform="translate(46.158,27.9521)"
           id="g68"><path
             id="path70"
             style="fill:#ffffff;fill-opacity:1;fill-rule:nonzero;stroke:none"
             d="M 0,0 1.7,-0.894 C 1.433,-1.529 1.361,-2.077 1.485,-2.536 1.604,-3 1.915,-3.4 2.411,-3.728 2.942,-4.073 3.412,-4.224 3.83,-4.163 c 0.42,0.058 0.731,0.249 0.937,0.568 0.127,0.206 0.182,0.418 0.162,0.636 C 4.906,-2.742 4.793,-2.478 4.578,-2.19 4.43,-1.996 4.079,-1.575 3.51,-0.94 2.785,-0.128 2.347,0.569 2.211,1.14 2.01,1.944 2.132,2.695 2.568,3.377 c 0.284,0.441 0.664,0.777 1.143,1.004 0.475,0.226 1,0.293 1.569,0.2 C 5.843,4.488 6.446,4.241 7.064,3.827 8.086,3.151 8.695,2.402 8.907,1.584 9.121,0.766 8.979,-0.049 8.503,-0.859 L 6.821,0.151 C 7.032,0.641 7.082,1.059 6.977,1.407 6.873,1.755 6.589,2.08 6.133,2.388 5.651,2.707 5.213,2.843 4.813,2.82 4.555,2.8 4.355,2.681 4.21,2.454 4.082,2.251 4.05,2.022 4.12,1.767 4.21,1.445 4.584,0.92 5.254,0.186 5.921,-0.545 6.383,-1.14 6.623,-1.61 6.873,-2.077 6.977,-2.565 6.957,-3.081 6.937,-3.598 6.754,-4.128 6.409,-4.677 6.09,-5.173 5.666,-5.547 5.129,-5.814 4.595,-6.072 4.027,-6.159 3.42,-6.049 2.817,-5.947 2.158,-5.657 1.453,-5.193 0.435,-4.511 -0.197,-3.737 -0.418,-2.864 -0.647,-1.993 -0.508,-1.036 0,0" /></g><g
           transform="translate(55.8534,18.1508)"
           id="g72"><path
             id="path74"
             style="fill:#ffffff;fill-opacity:1;fill-rule:nonzero;stroke:none"
             d="M 0,0 3.655,7.726 1.079,8.999 1.825,10.569 8.735,7.151 7.993,5.582 5.414,6.855 1.761,-0.867 Z" /></g><g
           transform="translate(62.8983,14.9685)"
           id="g76"><path
             id="path78"
             style="fill:#ffffff;fill-opacity:1;fill-rule:nonzero;stroke:none"
             d="M 0,0 3.58,9.649 5.408,8.938 1.825,-0.711 Z" /></g><g
           transform="translate(70.1433,12.4109)"
           id="g80"><path
             id="path82"
             style="fill:#ffffff;fill-opacity:1;fill-rule:nonzero;stroke:none"
             d="M 0,0 2.335,8.242 -0.418,9.054 0.058,10.737 7.439,8.553 6.96,6.873 4.212,7.688 1.877,-0.551 Z" /></g><g
           transform="translate(79.4526,20.5193)"
           id="g84"><path
             id="path86"
             style="fill:#ffffff;fill-opacity:1;fill-rule:nonzero;stroke:none"
             d="m 0,0 1.923,-0.357 -0.986,-5.5 C 0.777,-6.731 0.702,-7.299 0.702,-7.569 0.714,-7.999 0.85,-8.367 1.114,-8.68 c 0.264,-0.311 0.664,-0.514 1.195,-0.612 0.552,-0.099 0.978,-0.064 1.3,0.127 0.319,0.18 0.534,0.444 0.659,0.781 0.119,0.333 0.246,0.902 0.397,1.708 l 0.998,5.62 1.921,-0.363 -0.952,-5.335 C 6.414,-7.97 6.211,-8.825 6.014,-9.307 5.823,-9.786 5.55,-10.177 5.208,-10.476 c -0.337,-0.29 -0.763,-0.499 -1.268,-0.612 -0.505,-0.125 -1.132,-0.113 -1.88,0.032 -0.908,0.168 -1.581,0.403 -2.011,0.722 -0.423,0.31 -0.745,0.67 -0.951,1.076 -0.212,0.409 -0.331,0.821 -0.337,1.228 -0.026,0.606 0.067,1.473 0.27,2.611 z" /></g><g
           transform="translate(91.11,8.2593)"
           id="g88"><path
             id="path90"
             style="fill:#ffffff;fill-opacity:1;fill-rule:nonzero;stroke:none"
             d="M 0,0 0.78,8.541 -2.074,8.814 -1.921,10.546 5.73,9.817 5.57,8.08 2.727,8.352 1.935,-0.189 Z" /></g><g
           transform="translate(98.8436,7.6402)"
           id="g92"><path
             id="path94"
             style="fill:#ffffff;fill-opacity:1;fill-rule:nonzero;stroke:none"
             d="M 0,0 0.139,10.322 7.305,10.221 7.288,8.48 2.069,8.553 2.04,6.258 6.893,6.194 6.867,4.45 2.016,4.523 1.979,1.714 7.375,1.636 7.354,-0.099 Z" /></g><g
           transform="translate(115.8334,13.3918)"
           id="g96"><path
             id="path98"
             style="fill:#ffffff;fill-opacity:1;fill-rule:nonzero;stroke:none"
             d="m 0,0 c 0.168,-1.152 0.54,-1.99 1.131,-2.512 0.589,-0.523 1.265,-0.726 2.034,-0.613 0.769,0.119 1.358,0.508 1.77,1.175 0.409,0.668 0.525,1.596 0.357,2.78 C 5.121,1.999 4.755,2.837 4.189,3.339 3.626,3.841 2.945,4.035 2.153,3.917 1.352,3.798 0.754,3.409 0.354,2.753 -0.049,2.095 -0.168,1.178 0,0 m -1.976,-0.366 c -0.153,1.039 -0.133,1.933 0.053,2.687 0.145,0.551 0.374,1.059 0.69,1.532 0.319,0.475 0.685,0.841 1.105,1.108 C 0.429,5.321 1.1,5.556 1.874,5.672 3.287,5.886 4.485,5.59 5.46,4.784 6.446,3.98 7.056,2.742 7.296,1.082 7.531,-0.566 7.296,-1.921 6.594,-2.98 5.889,-4.036 4.83,-4.674 3.423,-4.886 2.002,-5.097 0.807,-4.804 -0.168,-4.004 -1.14,-3.206 -1.749,-1.99 -1.976,-0.366" /></g><g
           transform="translate(127.0199,10.1526)"
           id="g100"><path
             id="path102"
             style="fill:#ffffff;fill-opacity:1;fill-rule:nonzero;stroke:none"
             d="M 0,0 -2.715,9.939 3.667,11.764 4.125,10.081 -0.374,8.796 0.264,6.446 4.154,7.552 4.61,5.872 0.725,4.758 1.877,0.534 Z" /></g><g
           transform="translate(143.5043,16.2268)"
           id="g104"><path
             id="path106"
             style="fill:#ffffff;fill-opacity:1;fill-rule:nonzero;stroke:none"
             d="M 0,0 -3.798,7.65 -6.359,6.322 -7.131,7.882 -0.279,11.43 0.493,9.878 -2.06,8.553 1.735,0.899 Z" /></g><g
           transform="translate(150.3136,20.0154)"
           id="g108"><path
             id="path110"
             style="fill:#ffffff;fill-opacity:1;fill-rule:nonzero;stroke:none"
             d="m 0,0 -5.785,8.463 5.878,4.195 0.98,-1.433 -4.282,-3.05 1.283,-1.874 3.98,2.838 L 3.032,7.714 -0.96,4.868 0.627,2.565 5.054,5.721 6.031,4.302 Z" /></g><g
           transform="translate(160.8869,33.5949)"
           id="g112"><path
             id="path114"
             style="fill:#ffffff;fill-opacity:1;fill-rule:nonzero;stroke:none"
             d="M 0,0 1.807,0.862 C 2.353,-0.16 2.568,-1.105 2.446,-1.982 2.321,-2.843 1.886,-3.65 1.137,-4.381 0.206,-5.28 -0.879,-5.68 -2.106,-5.579 c -1.242,0.093 -2.397,0.737 -3.493,1.915 -1.155,1.244 -1.744,2.509 -1.79,3.783 -0.029,1.274 0.438,2.388 1.418,3.336 0.859,0.827 1.805,1.236 2.849,1.216 0.618,-0.015 1.288,-0.241 1.996,-0.688 L -2.193,2.269 C -2.637,2.576 -3.096,2.715 -3.568,2.686 -4.041,2.654 -4.462,2.454 -4.842,2.095 -5.361,1.59 -5.599,0.983 -5.55,0.273 c 0.044,-0.717 0.479,-1.521 1.308,-2.414 0.877,-0.949 1.663,-1.471 2.356,-1.561 0.694,-0.09 1.297,0.107 1.802,0.603 0.38,0.363 0.592,0.807 0.615,1.323 C 0.566,-1.259 0.389,-0.667 0,0" /></g><g
           transform="translate(167.0745,34.7442)"
           id="g116"><path
             id="path118"
             style="fill:#ffffff;fill-opacity:1;fill-rule:nonzero;stroke:none"
             d="m 0,0 -7.935,6.4 1.216,1.567 3.124,-2.522 2.368,3.07 -3.125,2.518 1.21,1.564 L 4.79,6.197 3.58,4.633 0.11,7.436 -2.254,4.363 1.213,1.572 Z" /></g><g
           transform="translate(173.9656,44.0823)"
           id="g120"><path
             id="path122"
             style="fill:#ffffff;fill-opacity:1;fill-rule:nonzero;stroke:none"
             d="m 0,0 -8.677,5.283 0.969,1.668 7.83,-0.061 -5.802,3.537 0.934,1.59 L 3.922,6.728 2.924,5.007 -4.732,5.033 0.928,1.59 Z" /></g><g
           transform="translate(175.6683,57.8142)"
           id="g124"><path
             id="path126"
             style="fill:#ffffff;fill-opacity:1;fill-rule:nonzero;stroke:none"
             d="m 0,0 c 1.05,-0.473 1.944,-0.592 2.689,-0.371 0.743,0.223 1.277,0.702 1.59,1.433 0.319,0.722 0.314,1.445 -0.02,2.15 C 3.922,3.922 3.22,4.52 2.153,5.002 1.094,5.486 0.206,5.619 -0.514,5.402 -1.23,5.184 -1.752,4.7 -2.077,3.948 -2.405,3.194 -2.405,2.472 -2.077,1.776 -1.761,1.076 -1.062,0.482 0,0 m -0.754,-1.9 c -0.937,0.42 -1.666,0.919 -2.188,1.485 -0.38,0.421 -0.682,0.894 -0.899,1.413 -0.218,0.522 -0.328,1.041 -0.328,1.549 0.006,0.667 0.168,1.375 0.49,2.106 0.572,1.335 1.462,2.208 2.652,2.623 C 0.168,7.688 1.511,7.549 3.014,6.87 4.514,6.191 5.506,5.263 6,4.088 6.493,2.913 6.458,1.665 5.878,0.337 5.295,-1.004 4.413,-1.877 3.226,-2.292 2.042,-2.704 0.717,-2.573 -0.754,-1.9" /></g><g
           transform="translate(184.3819,65.7429)"
           id="g128"><path
             id="path130"
             style="fill:#ffffff;fill-opacity:1;fill-rule:nonzero;stroke:none"
             d="m 0,0 -9.519,3.209 0.615,1.894 7.9,-2.663 1.523,4.708 1.619,-0.545 z" /></g><g
           transform="translate(182.8037,78.147)"
           id="g132"><path
             id="path134"
             style="fill:#ffffff;fill-opacity:1;fill-rule:nonzero;stroke:none"
             d="M 0,0 C 1.114,-0.261 2.013,-0.206 2.704,0.162 3.389,0.531 3.83,1.102 3.995,1.877 4.175,2.649 4.03,3.354 3.571,3.986 3.113,4.622 2.312,5.068 1.169,5.335 0.038,5.599 -0.853,5.556 -1.514,5.202 -2.179,4.848 -2.611,4.27 -2.791,3.473 -2.971,2.672 -2.832,1.961 -2.376,1.337 -1.923,0.714 -1.137,0.27 0,0 m -0.383,-2.016 c -1.007,0.235 -1.813,0.58 -2.428,1.03 -0.45,0.339 -0.836,0.745 -1.149,1.212 -0.316,0.473 -0.514,0.963 -0.609,1.46 -0.128,0.655 -0.102,1.383 0.078,2.167 0.322,1.415 1.024,2.442 2.118,3.087 1.091,0.641 2.437,0.768 4.044,0.388 C 3.258,6.96 4.413,6.246 5.115,5.19 5.817,4.131 6.014,2.898 5.698,1.488 5.376,0.052 4.68,-0.986 3.592,-1.616 2.504,-2.248 1.184,-2.391 -0.383,-2.016" /></g><g
           transform="translate(186.7913,92.5986)"
           id="g136"><path
             id="path138"
             style="fill:#ffffff;fill-opacity:1;fill-rule:nonzero;stroke:none"
             d="M 0,0 -1.688,0.218 -1.166,4.476 2.826,3.975 C 3.185,3.51 3.473,2.861 3.696,2.039 3.911,1.213 3.963,0.392 3.87,-0.412 3.745,-1.439 3.42,-2.306 2.887,-3.011 2.35,-3.722 1.657,-4.213 0.795,-4.494 c -0.873,-0.276 -1.787,-0.354 -2.75,-0.235 -1.036,0.131 -1.941,0.464 -2.704,0.998 -0.757,0.528 -1.306,1.23 -1.642,2.112 -0.256,0.667 -0.325,1.477 -0.209,2.411 0.145,1.218 0.525,2.135 1.128,2.75 0.604,0.618 1.378,0.972 2.324,1.05 L -2.921,2.576 C -3.429,2.501 -3.847,2.292 -4.183,1.947 -4.511,1.601 -4.711,1.146 -4.784,0.574 c -0.104,-0.867 0.093,-1.589 0.592,-2.17 0.499,-0.58 1.3,-0.945 2.405,-1.085 1.189,-0.148 2.115,-0.006 2.77,0.441 0.662,0.444 1.042,1.082 1.141,1.918 C 2.173,0.093 2.147,0.522 2.025,0.957 1.915,1.395 1.755,1.778 1.549,2.103 L 0.276,2.269 Z" /></g><g
           transform="translate(191.2176,102.5394)"
           id="g140"><path
             id="path142"
             style="fill:#ffffff;fill-opacity:1;fill-rule:nonzero;stroke:none"
             d="m 0,0 -4.262,-0.006 -5.843,-3.629 V -1.3 l 3.986,2.333 -3.997,2.268 -0.009,2.301 5.875,-3.621 4.244,0.006 z" /></g><g
           transform="translate(99.9971,2.7677)"
           id="g144"><path
             id="path146"
             style="fill:#c69370;fill-opacity:1;fill-rule:nonzero;stroke:none"
             d="m 0,0 c -53.698,0 -97.229,43.532 -97.229,97.229 0,53.707 43.531,97.236 97.229,97.236 53.703,0 97.235,-43.529 97.235,-97.236 C 97.235,43.532 53.703,0 0,0 m 0,197.232 c -55.229,0 -99.997,-44.77 -99.997,-100.003 0,-55.226 44.768,-99.997 99.997,-99.997 55.226,0 100.003,44.771 100.003,99.997 0,55.233 -44.777,100.003 -100.003,100.003" /></g><g
           transform="translate(28.2375,156.8177)"
           id="g148"><path
             id="path150"
             style="fill:#ffffff;fill-opacity:1;fill-rule:nonzero;stroke:none"
             d="m 0,0 c 0,0 0.769,-0.882 1.358,-1.32 0.577,-0.438 0.838,-0.873 0.777,-1.111 0.061,-0.276 -0.557,-1.407 -0.557,-1.407 0,0 -0.499,-0.493 -0.368,-1.21 -0.021,-0.345 -0.041,-0.583 -0.041,-0.583 0,0 0.734,-0.955 0.987,-1.117 0.255,-0.163 0.403,-0.128 0.403,-0.128 l 0.229,0.084 0.276,0.198 0.252,0.02 c 0,0 0.49,-0.067 0.612,0.084 0.131,0.148 0.177,0.284 0.177,0.284 l 0.212,0.685 0.099,0.229 c 0,0 0.182,0.29 0.522,-0.174 0.336,-0.467 0.389,-0.522 0.389,-0.522 l 0.258,-0.163 c 0,0 0.278,-0.22 0.194,-0.557 -0.087,-0.339 -0.058,-0.42 -0.058,-0.42 L 5.695,-7.247 5.469,-7.5 c 0,0 -0.203,-0.472 -0.111,-0.58 C 5.37,-8.126 5.242,-8.173 5.242,-8.173 l -0.046,-0.301 -0.081,-0.102 -0.07,-0.2 c 0,0 -0.136,-0.377 -0.165,-0.421 C 4.857,-9.24 4.833,-9.443 4.833,-9.443 L 4.819,-9.533 4.706,-9.719 c 0,0 -0.125,-0.368 0.151,-0.6 0.269,-0.235 0.362,-0.146 0.362,-0.146 0,0 0.612,-0.394 0.743,-0.504 0.128,-0.108 0.557,-0.174 0.557,-0.174 0,0 0.592,-0.009 0.946,0.562 0.342,0.56 0.342,0.674 0.342,0.674 l -0.136,0.295 c 0,0 0.182,1.248 0.229,1.387 0.04,0.136 0.455,1.738 0.455,1.738 l 0.006,0.447 c 0,0 0.189,1.172 0.27,1.253 0.072,0.073 0.276,0.574 -0.038,1.001 C 8.271,-3.357 7.807,-2.689 7.787,-2.649 7.772,-2.617 7.343,-2.405 7.131,-2.414 6.916,-2.417 5.651,-0.943 5.62,-0.888 5.585,-0.833 3.992,1.05 3.83,1.216 3.664,1.378 3.769,1.459 3.769,1.459 L 3.624,1.697 3.304,2.074 c 0,0 -0.554,0.18 -0.818,-0.043 C 2.219,1.802 2.17,1.952 2.17,1.952 L 1.752,1.9 c 0,0 -0.29,-0.035 -0.394,-0.328 C 1.311,1.509 1.1,1.465 1.1,1.465 L 0.853,1.291 0.711,1.114 c 0,0 -0.546,-0.476 -0.604,-0.601 C 0.052,0.386 -0.038,0.165 -0.038,0.165 Z" /></g><g
           transform="translate(31.7952,161.6174)"
           id="g152"><path
             id="path154"
             style="fill:#ffffff;fill-opacity:1;fill-rule:nonzero;stroke:none"
             d="m 0,0 c 0,0 0.461,-0.067 0.601,-0.331 0.136,-0.264 0.464,-0.49 0.464,-0.49 0,0 0.13,-0.287 0.148,-0.342 0.017,-0.056 0.403,-0.511 0.484,-0.485 0.087,0.032 0.313,-0.473 0.218,-0.586 0.032,-0.154 0.235,-0.392 0.235,-0.392 0,0 0.296,-0.246 0.38,-0.513 0.078,-0.261 0.452,-0.482 0.452,-0.482 l 0.407,-0.542 0.269,-0.235 c 0,0 0.131,-0.528 0.488,-0.865 0.357,-0.339 0.534,-0.478 0.534,-0.478 0,0 0.774,-0.798 1.102,-1.016 0.331,-0.217 0.583,-0.426 0.583,-0.426 l 0.453,-0.244 c 0,0 0.406,-0.206 0.545,-0.16 0.145,0.044 0.525,0.006 0.525,0.006 L 8.28,-7.624 c 0,0 1.015,-0.264 2.028,0.583 0.522,0.322 0.49,0.293 0.49,0.293 0,0 0.406,0.275 0.415,0.45 l 0.014,0.174 0.354,0.281 0.291,0.241 0.278,0.264 c 0,0 0.455,0.229 0.682,0.734 0.017,0.345 -0.227,0.809 -0.122,0.882 -0.012,0.203 -0.264,0.757 -0.334,0.85 0,0 -0.502,0.566 -1.172,0.328 -0.661,-0.073 -0.856,-0.264 -0.856,-0.264 L 10.157,-3 9.992,-3.064 9.87,-3.29 9.173,-3.949 c 0,0 -0.902,-0.89 -1.247,-0.67 -0.348,0.221 -1.137,1.172 -1.219,1.381 -0.084,0.209 -0.258,0.346 -0.258,0.346 0,0 -0.04,0.469 0.131,0.879 0.174,0.414 0.281,0.739 0.281,0.739 0,0 0.264,1.199 0.29,1.442 C 7.18,0.421 7.305,0.6 7.305,0.6 l 0.044,0.653 c 0,0 -0.047,0.38 -0.694,0.505 C 6.008,1.871 5.582,1.671 5.518,1.604 5.454,1.543 5.254,1.485 5.254,1.485 L 4.932,1.123 c 0,0 -0.017,-0.302 -0.073,-0.354 C 4.804,0.708 4.488,0.357 4.459,0.386 4.43,0.409 4.247,0.409 4.082,0.777 3.919,1.137 3.841,1.398 3.841,1.398 L 3.815,1.99 c 0,0 0.029,0.212 -0.006,0.34 C 3.771,2.454 3.554,2.605 3.441,2.527 3.339,2.454 3.217,2.591 3.217,2.591 l -0.22,0.13 -0.09,0.076 c 0,0 -0.424,0.275 -1.079,-0.311 C 1.616,2.417 1.398,2.306 1.398,2.306 1.398,2.306 1.21,2.08 1.187,1.883 1.172,1.683 1.042,1.72 1.042,1.72 L 0.673,1.294 0.252,0.862 0,0.566 -0.073,0.455 -0.139,0.337 -0.049,0.136 Z" /></g><g
           transform="translate(113.9296,188.8698)"
           id="g156"><path
             id="path158"
             style="fill:#ffffff;fill-opacity:1;fill-rule:nonzero;stroke:none"
             d="m 0,0 c 0,0 1.007,-0.081 1.134,-0.47 0.314,-0.215 0.601,-0.247 0.601,-0.247 0,0 0.638,0.041 0.693,0.009 0.055,-0.038 1.973,0.183 1.973,0.183 l 1.297,0.304 0.632,0.186 c 0,0 0.459,0.151 0.578,0.119 0.116,-0.035 0.238,-0.041 0.238,-0.041 0,0 0.449,-0.571 0.554,-0.62 0.098,-0.044 0.203,-0.061 0.203,-0.061 0,0 0.185,-0.241 0.258,-0.583 0.075,-0.343 0.133,-0.392 0.133,-0.392 L 8.213,-1.958 c 0,0 -0.046,-0.456 -0.693,-0.778 C 6.867,-3.055 6.368,-3.119 6.368,-3.119 l -1.03,-0.296 -0.229,-0.11 c 0,0 -0.316,-0.061 -0.139,-0.766 0.049,-0.365 -0.183,-0.624 -0.183,-0.624 0,0 -0.316,-0.765 -0.377,-0.922 -0.061,-0.157 -0.293,-0.447 -0.293,-0.447 0,0 -0.337,-0.499 -0.276,-0.847 0.064,-0.351 0.824,-0.157 1.14,-0.067 0.346,-0.003 0.804,-0.011 0.804,-0.011 l 0.583,0.011 0.525,-0.136 c 0,0 0.015,0.067 0.209,-0.061 0.2,-0.125 0.322,-0.18 0.322,-0.18 l 0.192,-0.206 0.38,-0.415 c 0,0 0.362,-0.58 0.432,-0.745 0.075,-0.163 0.171,-0.81 0.133,-0.914 -0.037,-0.105 -0.22,-0.369 -0.22,-0.369 0,0 -0.302,-0.568 -0.725,-0.507 -0.421,0.055 -1.103,0.409 -1.103,0.409 l -1.958,0.496 c 0,0 -1.468,0.31 -1.747,0.319 -0.281,0.017 -1.572,-0.134 -1.749,0.006 -0.168,0.142 -0.56,0.261 -0.56,0.261 l -0.798,0.281 -0.441,0.076 c 0,0 -1.955,0.029 -2.498,-0.099 -0.534,-0.134 -1.453,-0.252 -1.552,-0.229 -0.098,0.029 -0.508,0.336 -0.508,0.336 0,0 -0.391,0.218 -0.47,0.282 -0.078,0.061 -0.417,0.281 -0.2,0.806 0.212,0.531 0.232,0.398 0.232,0.398 0,0 0.476,0.238 0.743,0.441 0.261,0.203 0.493,0.177 0.493,0.177 l 0.818,0.084 c 0,0 0.755,-0.047 0.784,-0.052 0.029,-0.006 0.258,0.037 0.258,0.037 l 0.531,-0.017 0.36,0.017 0.644,0.058 c 0,0 0.275,0.021 0.374,-0.017 0.096,-0.035 1.05,0.423 1.256,0.641 0.284,0.154 0.792,0.772 0.966,1.311 0.177,0.54 0.226,0.665 0.241,0.752 0.012,0.093 -0.247,0.36 -0.247,0.36 l -0.496,0.385 c 0,0 -0.49,0.241 -0.702,0.485 -0.203,0.244 -0.435,0.714 -0.525,1.491 -0.101,0.56 0,0.795 0,0.795 l 0.134,0.238 z" /></g><g
           transform="translate(144.8327,180.2307)"
           id="g160"><path
             id="path162"
             style="fill:#ffffff;fill-opacity:1;fill-rule:nonzero;stroke:none"
             d="m 0,0 c 0,0 -1.163,-2.356 -1.886,-2.864 -0.548,-0.174 -1.239,0.215 -1.239,0.215 0,0 -1.296,0.511 -1.633,0.461 -0.339,-0.049 -0.722,-0.049 -1.224,-0.368 -0.348,-0.476 0.203,-1.033 0.264,-1.082 0.061,-0.044 0.18,-0.078 0.18,-0.078 l 0.29,-0.308 0.188,-0.223 c 0,0 0.267,0.026 0.319,0 0.041,-0.021 0.311,-0.14 0.311,-0.14 l 0.334,-0.197 c 0,0 -0.038,-0.348 -0.459,-0.58 -0.421,-0.226 -1.41,-0.969 -2.109,-0.972 -1.082,-0.415 -2.817,-0.218 -2.817,-0.218 l -0.232,-0.075 -0.244,0.058 c 0,0 -0.977,0.087 -1.123,0.038 -0.147,-0.053 -0.063,-0.485 -0.063,-0.485 0,0 0.777,-1.015 1.227,-1.386 0.45,-0.366 0.6,-0.389 0.6,-0.389 l 1.114,-0.047 c 0,0 1.84,-0.113 2.527,0.058 0.682,0.177 0.975,0.299 0.975,0.299 0,0 1.297,0.447 1.779,0.789 0.101,-0.386 0.104,-0.435 0.104,-0.435 0,0 0.801,-2.805 0.824,-3.087 0.026,-0.281 0.113,-1.337 0.206,-1.569 0.093,-0.229 0.348,-0.711 0.348,-0.711 0,0 0.502,-0.36 0.838,-0.621 0.331,-0.255 1.338,-1.062 1.77,-1.166 0.432,-0.102 0.801,-0.055 0.801,-0.055 l 0.426,-0.041 c 0,0 0.319,-0.029 0.392,0.348 0.073,0.375 -0.508,1.419 -0.818,1.668 -0.305,0.244 -0.244,0.337 -0.244,0.337 l -0.333,0.232 -0.244,0.279 -0.224,0.269 c 0,0 -0.414,0.084 -1.476,3.38 -0.209,0.839 -0.227,1.033 -0.198,1.915 0,0 0.169,0.722 0.34,0.911 0.177,0.186 0.421,0.038 0.421,0.038 0,0 2.405,-0.436 2.796,-0.665 0.482,-0.22 0.691,-0.246 0.691,-0.246 0,0 0.493,-0.209 0.835,0.403 0.285,0.522 0.189,0.65 0.189,0.65 l 0.052,0.212 -0.072,0.179 -0.14,0.291 -0.197,0.179 c 0,0 -0.136,0.459 -0.191,0.488 -0.056,0.035 -0.427,0.267 -0.427,0.267 0,0 -0.386,0.049 -0.484,0.072 -0.093,0.021 -0.363,0.14 -0.363,0.14 L 2.362,-3.795 2.039,-3.763 1.648,-3.67 1.561,-3.624 c 0,0 0.194,0.584 0.464,0.732 0.276,0.145 0.342,1.082 0.206,1.427 -0.142,0.339 -0.4,0.603 -0.4,0.603 l -0.259,0.247 -0.165,0.09 -0.11,0.238 -0.261,0.113 -0.183,0.014 -0.299,0.148 C 0.554,-0.012 0.128,0.18 0,0" /></g><g
           transform="translate(52.0253,180.8033)"
           id="g164"><path
             id="path166"
             style="fill:#ffffff;fill-opacity:1;fill-rule:nonzero;stroke:none"
             d="m 0,0 c 0,0 0.136,-0.238 0.325,-0.302 0.188,-0.066 0.447,-0.2 0.447,-0.2 l 0.226,-0.229 c 0,0 0.168,-0.003 0.308,-0.244 0.139,-0.244 0.272,-0.368 0.24,-0.432 -0.026,-0.067 -0.055,-0.163 0.061,-0.299 0.119,-0.133 0.438,-0.084 0.644,0.081 0.2,0.157 0.331,-0.113 0.331,-0.113 l 0.073,-0.139 c 0,0 -0.621,-1.062 -1.071,-1.419 L 1.126,-3.65 1.041,-3.902 0.859,-4.021 c 0,0 -0.052,-0.305 -0.166,-0.383 -0.121,-0.078 -0.22,-0.119 -0.22,-0.119 0,0 -0.238,0.012 -0.287,-0.165 l -0.041,-0.18 -0.484,-0.415 -0.311,-0.168 -0.159,0.014 c 0,0 -0.526,-0.641 -0.607,-1.079 -0.09,-0.438 -0.026,-0.566 0.102,-0.647 0.127,-0.078 0.183,-0.232 0.183,-0.232 0,0 0.632,-0.722 1.613,0.258 0.751,0.934 0.884,1.166 0.884,1.166 l 0.172,0.169 0.055,0.313 0.217,0.058 c 0,0 0.816,0.455 1.065,0.865 0.25,0.406 0.467,0.461 0.467,0.461 l 0.308,0.296 c 0,0 0.725,1.015 0.879,1.166 0.156,0.16 0.519,0.641 0.519,0.641 l 0.592,0.543 c 0,0 1.001,0.963 1.123,1.236 0.124,0.275 0.824,0.507 0.824,0.507 l 0.475,0.418 c 0,0 0.781,0.197 1.007,0.702 0.223,0.514 -0.093,0.537 -0.093,0.537 l -0.04,0.307 0.089,0.227 c 0,0 -0.348,0.461 -1.143,0.371 C 7.082,2.759 6.89,2.585 6.89,2.585 L 6.522,2.315 6.203,2.051 6.078,1.845 5.892,1.668 5.66,1.482 5.309,1.184 5.213,0.975 4.999,0.586 4.508,0.255 c 0,0 -0.136,0.099 -0.063,0.337 C 4.517,0.838 4.581,1.807 3.214,2.272 2.373,2.202 2.132,2.138 2.132,2.138 L 1.691,1.813 1.427,1.659 c 0,0 -0.142,-0.31 -0.24,-0.377 C 1.088,1.218 0.725,1.018 0.725,1.018 L 0.545,0.896 0.45,0.74 0.374,0.586 0.18,0.505 0.052,0.351 -0.012,0.232 Z" /></g><g
           transform="translate(61.6862,174.0013)"
           id="g168"><path
             id="path170"
             style="fill:#ffffff;fill-opacity:1;fill-rule:nonzero;stroke:none"
             d="M 0,0 C 0,0 0.357,-0.885 0.258,-0.949 0.157,-1.018 0.615,-1.233 0.615,-1.233 l 0.337,-0.18 0.618,-0.392 c 0,0 0.945,-0.792 1.093,-0.696 0.375,-0.197 0.508,-0.11 0.508,-0.11 0,0 0.467,-0.061 0.595,0.452 0.127,0.517 0.249,0.529 0.249,0.529 l 0.186,0.217 c 0,0 0.65,0.659 -0.432,1.622 C 2.91,0.838 2.591,0.751 2.591,0.751 L 2.251,0.83 1.868,0.757 c 0,0 -0.722,-0.275 -0.786,-0.316 C 1.018,0.395 0.644,0.31 0.644,0.31 L 0.4,0.218 0.177,0.162 Z" /></g><g
           transform="translate(58.5355,169.0519)"
           id="g172"><path
             id="path174"
             style="fill:#ffffff;fill-opacity:1;fill-rule:nonzero;stroke:none"
             d="M 0,0 C 0,0 0.212,-0.308 -0.032,-1.117 -0.27,-1.924 0.003,-1.903 0.003,-1.903 l -0.055,-0.421 -0.163,-0.522 -0.151,-0.453 c 0,0 -0.24,-0.211 -0.423,-0.261 -0.171,-0.055 -0.264,-0.206 -0.264,-0.206 l -0.328,-0.006 -0.249,0.047 v 0.145 c 0,0 -0.714,0.136 -0.781,0.38 -0.067,0.235 -0.212,1.187 -0.212,1.187 l -0.078,0.185 c 0,0 -0.281,0.459 -0.02,0.778 0.264,0.316 0.293,0.409 0.293,0.409 l 0.328,0.299 c 0,0 0.371,0.153 0.525,-0.035 0.145,-0.18 0.267,-0.151 0.267,-0.151 l 0.417,0.238 0.595,0.281 z" /></g><g
           transform="translate(58.4838,175.6723)"
           id="g176"><path
             id="path178"
             style="fill:#ffffff;fill-opacity:1;fill-rule:nonzero;stroke:none"
             d="m 0,0 0.11,-0.377 c 0,0 -0.136,-0.401 -0.148,-0.525 -0.008,-0.131 -0.191,-0.711 -0.241,-0.737 -0.049,-0.038 -0.365,-0.412 -0.365,-0.412 0,0 -0.11,-0.34 -0.177,-0.412 -0.075,-0.076 -0.342,0.009 -0.342,0.009 0,0 -0.14,0.24 -0.218,0.403 -0.084,0.154 0.026,0.304 0.026,0.304 l 0.041,0.215 0.078,0.171 0.131,0.163 -0.024,0.278 0.111,0.404 0.203,0.374 0.299,0.13 c 0,0 0.31,0.14 0.374,0.186 C -0.075,0.215 0,0 0,0 m 1.05,3.165 c 0,0 -0.214,-0.04 -0.478,-0.107 C 0.061,3.145 -0.47,2.594 -0.47,2.594 L -0.754,2.35 -1.314,1.404 c 0,0 -0.221,-0.313 -0.749,-1.152 C -2.597,-0.58 -2.73,-0.531 -2.73,-0.531 l -0.2,-0.012 -0.369,0.056 -0.177,-0.027 -0.313,-0.42 c -0.307,-0.427 -0.276,-1.071 -0.276,-1.071 l 0.363,-0.542 0.493,-0.795 c 0,0 0.319,-0.615 0.433,-0.752 0.116,-0.13 0.237,-0.531 0.336,-0.531 0.099,-0.005 0.778,-0.197 0.778,-0.197 0,0 0.127,-0.081 0.269,-0.293 0.143,-0.214 0.523,-0.098 0.523,-0.098 l 0.684,0.435 0.511,0.328 0.203,0.017 c 0.206,0.02 0.191,-0.281 0.191,-0.281 0,0 -0.118,-0.029 -0.026,-0.235 0.235,-0.247 0.792,-1.178 0.998,-1.518 0.206,-0.339 0.215,-0.734 0.215,-0.734 L 1.712,-7.41 1.535,-7.647 1.372,-7.685 c 0,0 -0.093,-0.113 -0.171,-0.206 -0.072,-0.102 -0.319,-0.122 -0.319,-0.122 0,0 -0.371,-0.203 -0.319,-0.455 0.406,-0.418 1.297,-0.151 1.474,-0.244 0.182,-0.093 1.459,0.075 1.653,0.067 0.203,-0.009 0.54,0.368 0.54,0.368 0,0 0.017,0.174 0.246,0.661 0.221,0.488 0.163,0.92 0.163,0.92 l -0.377,0.769 c 0,0 -0.592,0.87 -0.717,1.024 -0.127,0.16 -1.262,1.941 -1.262,1.941 0,0 -0.2,0.508 -0.133,0.824 0.081,0.31 0.081,1.552 -0.079,1.775 C 1.918,-0.131 2.057,1.25 2.132,1.352 2.208,1.451 2.359,2.074 2.071,2.643 1.787,3.214 1.05,3.165 1.05,3.165" /></g><g
           transform="translate(77.7638,187.2045)"
           id="g180"><path
             id="path182"
             style="fill:#ffffff;fill-opacity:1;fill-rule:nonzero;stroke:none"
             d="m 0,0 c 0,0 0.218,0.734 1.34,0.969 0.177,0.032 0.383,0.075 0.383,0.075 0,0 0.369,0.201 0.462,0.218 0.101,0.017 0.345,0.206 0.42,0.371 0.067,0.166 0.467,0.314 0.467,0.314 l 0.305,0.159 0.249,0.29 0.166,0.108 c 0,0 0.638,0.093 0.743,0.095 0.089,0 0.586,-0.02 0.815,0.018 0.275,-0.052 0.33,-0.131 0.33,-0.131 0,0 0.424,-0.38 0.299,-0.818 C 5.852,1.233 5.57,0.792 5.57,0.792 L 5.3,0.223 c 0,0 -0.281,-0.351 -0.295,-0.679 C 4.984,-0.778 4.74,-0.789 4.778,-1.578 4.819,-2.364 4.944,-2.434 5.466,-3.203 5.782,-3.722 5.422,-4.392 5.321,-4.465 5.222,-4.54 4.946,-5.097 4.941,-5.309 5.045,-5.518 5.222,-5.503 5.222,-5.503 L 5.75,-5.776 c 0,0 0.519,-0.241 0.151,-0.917 -0.368,-0.676 -0.83,-0.83 -0.83,-0.83 0,0 -0.455,-0.563 -0.568,-0.647 C 4.389,-8.263 4.186,-8.474 4.186,-8.474 L 3.612,-8.875 c 0,0 -0.659,-0.594 -0.702,-0.612 C 2.875,-9.513 2.185,-10.105 2.042,-10.169 1.9,-10.235 1.805,-10.415 1.48,-10.496 1.158,-10.575 1.018,-10.554 1.018,-10.554 l -0.42,0.002 c 0,0 -0.644,0.157 -0.676,0.586 -0.113,0.43 -0.186,1.141 -0.186,1.141 l -0.081,0.507 c 0,0 0.42,0.415 0.621,0.491 0.194,0.069 0.223,0.159 0.223,0.159 l 0.447,0.392 c 0,0 0.51,0.609 0.67,0.838 0.16,0.221 -0.119,0.917 -0.247,0.99 -0.119,0.081 -0.87,0.774 -1.102,1.07 0.049,0.241 0.084,0.25 0.084,0.25 l 0.084,0.098 0.139,0.16 c 0,0 0.279,0.473 0.444,0.49 0.163,0.012 0.229,0.134 0.229,0.134 l 0.209,0.177 0.279,0.153 0.278,0.296 c 0,0 0.427,0.737 -0.153,1.126 -0.328,-0.07 -0.438,-0.16 -0.438,-0.16 0,0 -0.792,0.441 -1.106,0.83 -0.316,0.383 -0.38,0.54 -0.38,0.54 z" /></g><g
           transform="translate(89.7902,189.1284)"
           id="g184"><path
             id="path186"
             style="fill:#ffffff;fill-opacity:1;fill-rule:nonzero;stroke:none"
             d="m 0,0 c -0.052,-0.136 -0.16,-0.221 -0.165,-0.293 0,-0.07 -0.047,-0.328 -0.047,-0.328 l -0.18,-0.084 c 0,0 -0.171,-0.026 -0.327,0.09 -0.172,0.11 -0.482,-0.032 -0.482,-0.032 l -0.212,0.128 c 0,0 -0.011,0.235 -0.041,0.426 -0.031,0.192 0.143,0.316 0.143,0.316 l 0.191,0.102 0.229,0.162 c 0,0 0.328,0.076 0.453,0.093 0.116,0.029 0.241,-0.067 0.241,-0.067 L -0.029,0.334 C -0.029,0.334 0.052,0.133 0,0 M -0.606,-2.515 -0.705,-2.75 -0.809,-2.895 -0.943,-2.942 c 0,0 -0.151,-0.101 -0.212,-0.064 -0.061,0.029 -0.101,0.093 -0.101,0.093 l -0.055,0.177 -0.07,0.282 c 0,0 0.093,0.168 0.136,0.159 0.044,-0.006 0.16,0.136 0.16,0.136 l 0.226,0.151 c 0,0 0.253,-0.078 0.267,-0.151 0.015,-0.084 -0.014,-0.356 -0.014,-0.356 m -1.944,1.662 c 0,0 -0.015,-0.186 -0.029,-0.331 -0.02,-0.139 -0.206,-0.438 -0.319,-0.446 -0.108,-0.027 -0.29,-0.082 -0.29,-0.082 l -0.25,-0.119 c 0,0 -0.438,0.053 -0.476,0.047 -0.043,-0.009 -0.185,0.626 -0.185,0.626 l 0.023,0.084 c 0,0 0.252,0.221 0.377,0.369 0.128,0.151 0.464,0.412 0.464,0.412 0,0 0.314,0.229 0.432,0.244 0.125,0.029 0.23,-0.015 0.25,-0.061 0.023,-0.058 0.003,-0.743 0.003,-0.743 m -0.27,-3.113 c 0,-0.075 -0.084,-0.258 -0.084,-0.258 l -0.148,-0.119 -0.281,0.012 -0.146,0.214 -0.023,0.203 c 0,0 0.119,0.276 0.169,0.285 0.058,0.005 0.217,0.029 0.217,0.029 l 0.142,0.005 0.105,-0.043 c 0,0 0.055,-0.261 0.049,-0.328 m 5.628,5.71 c 0,0 -0.267,0.423 -0.342,0.406 C 2.376,2.135 2.132,2.295 2.132,2.295 L 1.955,2.504 1.599,2.547 1.149,2.681 1.036,2.762 0.142,2.521 c 0,0 -0.244,-0.151 -0.328,-0.177 -0.072,-0.026 -0.267,-0.058 -0.267,-0.058 0,0 -0.412,-0.218 -0.655,-0.258 C -1.349,1.99 -1.7,1.781 -1.7,1.781 L -2.109,1.587 -2.541,1.465 c 0,0 -0.993,-0.606 -1.158,-0.551 -0.043,-0.018 -0.136,-0.16 -0.136,-0.16 0,0 -0.795,-0.209 -0.914,-0.13 -0.131,0.075 -0.38,0.093 -0.38,0.093 l -0.137,0.005 c 0,0 -0.385,-0.145 -0.397,-0.467 0,0 -0.073,-0.876 -0.044,-1.093 0.044,-0.221 0.07,-0.523 0.154,-0.691 0.084,-0.168 0.145,-0.548 0.145,-0.548 0,0 0.061,-0.287 -0.011,-0.63 -0.073,-0.345 -0.061,-1.114 -0.061,-1.114 l 0.24,-0.537 c 0,0 0.244,-0.211 0.23,-0.284 -0.021,-0.072 0.27,-0.737 0.481,-0.853 0.215,-0.125 0.366,-0.281 0.366,-0.281 l 0.299,-0.203 0.351,-0.026 c 0,0 0.304,0.072 0.333,0.023 0.035,-0.05 0.453,-0.151 0.079,-0.508 -0.151,-0.006 -0.36,-0.012 -0.36,-0.012 0,0 -0.444,0.331 -0.699,-0.252 0.066,-0.397 -0.021,-0.687 -0.021,-0.687 0,0 0.169,-0.569 0.482,-0.729 0.319,-0.162 0.435,-0.003 0.435,-0.003 l 0.168,-0.005 c 0,0 0.256,-0.47 -0.211,-0.505 -0.424,-0.081 -0.615,-0.322 -0.615,-0.322 L -4.433,-9.13 -4.549,-9.287 c 0,0 -0.511,-0.124 -0.563,-0.034 -0.035,0.092 -0.194,0.052 -0.194,0.052 l -0.215,-0.148 c 0,0 -0.197,-0.464 -0.267,-0.435 -0.072,0.029 -0.18,-0.012 -0.18,-0.012 0,0 -0.238,-0.189 -0.197,-0.461 l 0.049,-0.273 c 0,0 -0.119,-0.493 0.113,-0.734 0.238,-0.244 0.381,-0.249 0.381,-0.249 l 0.316,0.008 0.679,0.11 0.696,0.279 c 0,0 1.111,0.412 1.224,0.403 0.113,-0.008 0.813,0.142 0.902,0.186 0.09,0.043 0.781,0.139 1.199,0.232 0.415,0.099 0.441,0.192 0.441,0.192 l 0.664,0.197 c 0,0 0.537,0.055 0.94,0.162 0.403,0.105 0.54,-0.069 0.54,-0.069 l 0.446,-0.006 c 0,0 0.679,0.035 0.778,0.148 0.09,0.116 0.406,0.232 0.406,0.232 0,0 0.339,0.226 0.351,0.418 0.015,0.2 0.017,0.536 0.017,0.536 0,0 -0.371,0.398 -0.78,0.7 -0.409,0.295 -0.49,0.084 -0.49,0.084 0,0 -0.081,0.31 -0.47,0.22 C 1.845,-7.639 1.642,-7.755 1.642,-7.755 L 1.369,-7.975 0.923,-8.01 c 0,0 -0.186,-0.012 -0.34,-0.221 C 0.438,-8.434 0.02,-8.332 0.02,-8.332 l -0.47,0.006 -0.13,0.243 c 0,0 0.528,0.351 0.737,0.61 0.206,0.258 0.281,0.159 0.415,0.194 0.139,0.032 0.266,0.183 0.266,0.183 0,0 0.273,0.246 0.224,0.603 -0.041,0.354 -0.139,0.273 -0.139,0.273 0,0 -0.061,0.116 -0.058,0.244 0.011,0.124 0.072,0.22 0.072,0.22 0,0 -0.241,0.508 -0.551,0.508 -0.305,0.006 -0.438,0.058 -0.438,0.058 0,0 -0.258,-0.015 -0.404,-0.177 -0.142,-0.163 -0.324,-0.174 -0.324,-0.174 0,0 -0.267,0.261 -0.111,0.4 0.172,0.136 0.244,0.16 0.244,0.16 0,0 0.403,0.136 0.47,0.217 0.073,0.087 0.624,0.534 0.708,0.644 0.078,0.108 0.281,0.198 0.281,0.198 0,0 1.03,1.996 1.051,2.39 0.13,0.395 0.295,0.754 0.295,0.754 0,0 0.45,0.819 0.462,0.972 0.017,0.16 0.151,0.554 0.151,0.554 0,0 0.133,0.552 0.104,0.685 C 2.834,1.567 2.808,1.744 2.808,1.744" /></g><g
           transform="translate(166.9146,158.1125)"
           id="g188"><path
             id="path190"
             style="fill:#ffffff;fill-opacity:1;fill-rule:nonzero;stroke:none"
             d="m 0,0 c 0,0 -0.136,0.107 -0.455,0.186 -0.314,0.081 -0.679,0.525 -0.679,0.525 0,0 0.081,0.275 0.18,0.22 0.087,-0.058 0.62,0.195 0.62,0.195 0,0 0.131,-0.021 0.076,-0.102 C -0.522,0.757 -0.426,0.545 -0.426,0.545 l 0.159,0.032 c 0,0 0.331,-0.09 0.412,-0.127 C 0.22,0.418 0.186,0.067 0.186,0.067 Z m 4.375,-4.163 -0.154,0.316 c 0,0 -0.064,0.139 -0.255,0.482 -0.192,0.342 -0.258,0.287 -0.403,0.371 -0.143,0.081 -0.737,0.719 -0.737,0.719 0,0 -0.102,0.035 -0.055,0.163 0.284,0.342 0.957,0.354 0.957,0.354 l 0.502,0.305 c 0,0 0.18,0.095 0.421,0.153 0.24,0.061 0.852,0.299 0.934,0.366 0.078,0.058 1.009,-0.003 1.009,-0.003 0,0 0.209,-0.012 0.978,0.235 0.778,0.249 0.525,0.708 0.525,0.708 0,0 -0.136,0.191 -0.139,0.391 C 7.949,0.592 7.482,0.978 7.482,0.978 L 7.325,1.076 6.884,1.12 c 0,0 -0.249,0 -0.853,0.299 C 5.431,1.723 5.15,1.256 5.15,1.256 5.048,0.934 5.271,0.725 5.094,0.418 4.848,0.142 4.45,0.235 4.45,0.235 c 0,0 -0.032,0.104 -0.18,0.116 -0.147,0.014 -0.377,0.302 -0.377,0.302 0,0 -0.185,0.09 -0.513,0.107 C 3.043,0.777 2.956,0.319 3.023,0.194 3.104,0.064 3.064,-0.084 3.008,-0.078 c -0.052,0.005 -0.237,0.09 -0.237,0.09 0,0 -0.157,0.171 -0.549,0.13 -0.719,-0.177 -0.426,-0.56 -0.386,-0.696 0.044,-0.134 -0.04,-0.36 -0.04,-0.36 0,0 -0.163,-0.177 -0.302,-0.191 C 1.352,-1.12 1.277,-1.001 1.158,-0.937 1.036,-0.879 0.914,-0.888 0.925,-0.537 1.314,-0.174 1.288,0.2 1.584,0.487 1.877,0.777 2.222,0.6 2.396,0.743 2.573,0.885 3.246,0.96 3.246,0.96 L 3.444,0.957 c 0,0 0.168,-0.09 0.455,0.058 0.29,0.148 0.264,0.491 0.264,0.491 L 4.152,1.729 c 0,0 -0.16,0.229 -0.067,0.456 C 4.172,2.408 4.688,2.248 4.761,2.222 4.836,2.199 5.48,1.863 5.878,2.434 6.272,3.011 5.646,3.301 5.646,3.301 c 0,0 -0.215,0.146 -0.351,0.204 C 5.161,3.565 4.671,3.423 4.517,3.296 4.363,3.171 4.178,3.206 4.094,3.171 4.007,3.13 3.847,3.345 3.847,3.345 c 0,0 -0.035,0.136 -0.131,0.334 C 3.624,3.873 3.38,3.742 3.38,3.742 3.38,3.742 3.261,3.734 3.035,3.563 2.892,3.278 2.646,3.061 2.533,3.043 2.414,3.029 1.973,2.91 1.973,2.91 1.973,2.91 1.752,2.846 1.424,2.64 1.158,2.269 1.688,2.115 1.755,2.042 1.828,1.976 2.289,2.06 2.289,2.06 h 0.197 c 0,0 -0.008,-0.076 0.055,-0.148 C 2.605,1.831 2.298,1.697 2.199,1.625 2.106,1.549 1.796,1.59 1.796,1.59 1.796,1.59 1.744,1.596 1.633,1.587 1.532,1.572 1.32,1.819 1.32,1.819 L 1.079,1.958 c 0,0 -0.362,-0.017 -0.4,0.026 C 0.65,2.028 1.181,2.501 1.497,2.913 1.802,3.33 2.588,4.082 2.588,4.082 l 0.249,0.2 -0.133,0.186 C 2.582,4.659 2.251,4.592 2.251,4.592 c 0,0 -0.139,-0.098 -0.278,-0.2 C 1.828,4.285 1.265,3.652 0.995,3.47 0.719,3.287 -0.226,2.469 -0.226,2.469 L -1.004,1.848 c 0,0 -0.51,-0.513 -0.609,-0.595 -0.099,-0.081 -0.363,0.221 -0.374,0.392 0,0.18 0.609,0.661 0.609,0.661 l 0.583,0.459 0.363,0.284 c 0,0 0.505,0.508 0.789,0.743 0.296,0.235 0.745,0.844 0.745,0.844 0,0 0.154,0.229 0.639,0.725 C 2.228,5.854 1.599,5.892 1.599,5.892 L 1.247,5.808 c 0,0 -0.2,-0.113 -0.342,-0.177 C 0.775,5.57 0.696,5.573 0.496,5.451 0.476,5.065 0.171,4.735 0.171,4.735 0.171,4.735 -0.061,4.592 -0.09,4.54 -0.125,4.491 -0.171,4.273 -0.281,4.247 -0.4,4.215 -1.149,3.542 -1.306,3.458 -1.462,3.365 -2.405,2.637 -2.53,2.434 -2.492,2.156 -2.736,1.979 -2.736,1.979 c 0,0 -0.188,0.121 -0.264,0.153 -0.075,0.026 -0.389,0.467 -0.389,0.467 0,0 -0.171,0.041 -0.107,0.363 0.604,0.603 0.479,0.711 0.479,0.711 L -3.339,3.679 -3.879,3.641 -4.082,3.609 -4.198,3.606 -4.427,3.612 c 0,0 -0.05,-0.189 -0.221,-0.09 C -4.813,3.624 -5.184,3.487 -5.228,3.505 -5.263,3.522 -5.414,3.304 -6.02,2.802 -6.618,2.306 -6.661,1.976 -6.655,1.796 c 0,-0.171 0.397,-0.679 0.946,-0.604 0.542,0.076 0.998,-0.04 1.45,-0.029 0.612,0.055 1.697,-0.722 1.799,-0.751 0.101,-0.029 1.439,-0.978 1.439,-0.978 0,0 0.638,-0.429 0.931,-0.742 C 0.139,-1.686 0.287,-1.77 1.03,-2.341 1.77,-2.91 1.828,-3.287 1.828,-3.287 L 1.532,-3.351 1.288,-3.339 0.983,-3.316 c 0,0 -0.127,0.075 -0.272,0.104 -0.151,0.035 -0.52,0.009 -0.502,-0.214 0.043,-0.288 0.853,-1.016 1.056,-1.271 0.206,-0.25 1.61,-1.279 1.61,-1.279 0,0 0.424,-0.218 0.911,0.246 0.572,0.897 0.589,1.567 0.589,1.567" /></g><g
           transform="translate(163.5113,158.355)"
           id="g192"><path
             id="path194"
             style="fill:#ffffff;fill-opacity:1;fill-rule:nonzero;stroke:none"
             d="m 0,0 c 0,0 0.783,-0.612 1.097,-0.815 0.316,-0.203 0.426,-0.314 0.426,-0.314 l 0.264,-0.264 c 0,0 0.586,-0.438 0.662,-0.516 0.061,-0.078 0.235,-0.087 0.235,-0.087 0,0 0.319,-0.131 0.333,-0.189 0.018,-0.055 0.113,-0.246 0.113,-0.246 0,0 0.189,-0.618 -0.072,-0.9 C 2.794,-3.618 2.634,-3.664 2.185,-3.586 1.732,-3.513 0.603,-3.023 0.429,-3.125 0.267,-3.232 -0.313,-3.261 0.206,-3.859 c 0.511,-0.597 0.76,-0.748 0.76,-0.748 l 0.267,-0.398 c 0,0 0.279,-0.67 -0.075,-1.427 -0.575,-0.479 -1.094,-0.128 -1.196,-0.023 -0.101,0.104 -1.297,1.111 -1.482,1.157 -0.197,0.05 -0.697,-0.362 -0.697,-0.362 0,0 -1.372,-1.486 -2.927,-1.468 -0.458,-0.195 -1.308,0.42 -1.381,0.473 -0.084,0.058 -0.484,0.861 -0.4,1.073 0.087,0.206 0.165,0.482 0.165,0.482 l 0.026,0.362 -0.069,0.25 c 0,0 -0.2,0.206 -0.232,0.267 -0.026,0.058 -0.015,0.391 0.156,0.328 0.174,-0.058 0.267,-0.056 0.267,-0.056 l 0.192,-0.177 c 0,0 0.499,-0.467 0.56,-0.475 0.066,-0.015 0.238,-0.082 0.238,-0.082 l 0.304,-0.377 c 0,0 0.685,0.044 0.876,-0.017 0.189,-0.07 0.256,0.107 0.256,0.107 0,0 0.252,0.102 0.278,0.07 0.02,-0.032 0.16,0.052 0.16,0.052 l 0.2,0.11 0.342,0.16 0.256,0.273 c 0,0 -0.024,0.272 -0.096,0.275 -0.073,0.009 -0.514,0.215 -0.514,0.215 0,0 -0.206,0.052 -0.496,0.49 -0.293,0.438 -0.621,0.345 -0.696,0.401 -0.078,0.055 -0.635,0.887 -0.635,0.887 l -0.047,0.264 c 0,0 -0.058,0.511 0.235,0.65 0.293,0.137 0.563,0.29 0.662,0.163 0.095,-0.122 0.374,-0.084 0.374,-0.084 l 0.624,-0.288 c 0,0 0.11,0.174 0.42,-0.435 0.203,-0.133 0.409,-0.241 0.409,-0.241 0,0 0.2,-0.058 0.29,-0.093 0.073,-0.04 0.203,-0.087 0.203,-0.087 l 0.276,-0.162 0.273,-0.104 c 0,0 0.537,0.235 0.919,0.185 0.27,0 0.296,0.113 0.296,0.113 0,0 0.499,0.096 0.566,0.035 0.067,-0.064 0.145,-0.035 0.145,-0.035 L 0.339,-2.19 c 0,0 0.233,0.223 -0.049,0.383 -0.275,0.162 -0.899,0.249 -0.899,0.249 l -0.314,0.125 -0.208,0.214 -0.224,0.273 c 0,0 -0.191,0.015 -0.29,0.087 -0.096,0.076 -0.194,0.314 0.302,0.586 0.357,0.064 0.505,0.2 0.505,0.2 l 0.243,0.111 0.238,0.063 0.163,-0.055 0.101,0.038 z" /></g><g
           transform="translate(160.7328,86.0318)"
           id="g196"><path
             id="path198"
             style="fill:#149044;fill-opacity:1;fill-rule:nonzero;stroke:none"
             d="m 0,0 c 0,0 -6.867,-1.604 -10.082,-1.604 -3.211,0 -97.133,-1.393 -101.633,-0.534 -4.502,0.853 -9.971,1.5 -9.971,1.5 0,0 6.536,-7.616 7.932,-8.361 1.395,-0.752 4.395,-1.289 5.146,-1.184 2.252,-0.963 34.846,-6.757 40.21,-6.647 -0.969,-5.79 -2.576,-11.9 -2.576,-11.9 l 10.29,-2.144 10.508,2.254 -2.889,12.005 c 0,0 34.947,3.754 45.992,8.361 C -3,-5.358 0,0 0,0" /></g><g
           transform="translate(155.3767,100.1738)"
           id="g200"><path
             id="path202"
             style="fill:#20a264;fill-opacity:1;fill-rule:nonzero;stroke:none"
             d="m 0,0 c 0,0 -36.993,-4.767 -110.966,-0.749 3.052,-7.879 15.756,-14.154 48.083,-17.531 l -2.416,-11.094 9.974,-1.718 9.437,1.718 -2.146,11.039 c 0,0 25.837,2.791 40.204,10.078 C -1.723,-3.537 0,0 0,0" /></g><g
           transform="translate(149.7789,114.7678)"
           id="g204"><path
             id="path206"
             style="fill:#83be90;fill-opacity:1;fill-rule:nonzero;stroke:none"
             d="m 0,0 c 0,0 -57.37,-5.855 -99.777,-0.426 0,0 11.39,-19.96 42.726,-20.068 -2.057,-10.305 -2.269,-10.633 -2.269,-10.633 l 19.087,0.111 -2.498,10.952 c 0,0 28.579,-1.193 42.731,20.064" /></g><g
           transform="translate(143.4872,130.9589)"
           id="g208"><path
             id="path210"
             style="fill:#c4dec7;fill-opacity:1;fill-rule:nonzero;stroke:none"
             d="m 0,0 c 0,0 -46.558,-11.103 -87.188,-0.432 0.319,-4.636 13.896,-23.387 36.528,-22.742 -1.082,-5.925 -1.616,-8.945 -1.616,-8.945 l 17.68,-0.214 -2.373,9.159 c 0,0 23.711,-2.481 36.969,23.174" /></g><g
           transform="translate(136.9477,146.6135)"
           id="g212"><path
             id="path214"
             style="fill:#ffffff;fill-opacity:1;fill-rule:nonzero;stroke:none"
             d="m 0,0 c 0,0 -11.726,-4.735 -33.015,-4.955 -0.54,5.599 -1.822,10.331 -2.046,11.294 -0.223,0.952 -2.927,3.528 -4.728,-1.178 -0.862,-4.845 -1.506,-9.896 -1.506,-9.896 0,0 -22.266,0.322 -32.803,4.407 -0.212,-3.438 2.257,-8.494 10.653,-11.929 2.254,-8.713 6.986,-8.069 10.322,-8.069 2.576,-5.811 7.308,-4.517 10.531,-3.98 -0.743,-4.088 -1.503,-8.062 -1.503,-8.062 l 14.628,0.104 -1.938,8.39 c 0,0 7.528,-2.152 10.54,3.763 9.678,-0.325 8.93,6.023 9.893,7.958 C -3.444,-9.571 -0.644,-4.842 0,0" /></g><g
           transform="translate(136.9477,146.6135)"
           id="g216"><path
             id="path218"
             style="fill:none;stroke:#025a30;stroke-width:2.17600012;stroke-linecap:butt;stroke-linejoin:miter;stroke-miterlimit:4;stroke-dasharray:none;stroke-opacity:1"
             d="m 0,0 c 0,0 -11.726,-4.735 -33.015,-4.955 -0.54,5.599 -1.822,10.331 -2.046,11.294 -0.223,0.952 -2.927,3.528 -4.728,-1.178 -0.862,-4.845 -1.506,-9.896 -1.506,-9.896 0,0 -22.266,0.322 -32.803,4.407 -0.212,-3.438 2.257,-8.494 10.653,-11.929 2.254,-8.713 6.986,-8.069 10.322,-8.069 2.576,-5.811 7.308,-4.517 10.531,-3.98 -0.743,-4.088 -1.503,-8.062 -1.503,-8.062 l 14.628,0.104 -1.938,8.39 c 0,0 7.528,-2.152 10.54,3.763 9.678,-0.325 8.93,6.023 9.893,7.958 C -3.444,-9.571 -0.644,-4.842 0,0 Z" /></g><g
           transform="translate(107.2395,155.0332)"
           id="g220"><path
             id="path222"
             style="fill:#ffffff;fill-opacity:1;fill-rule:nonzero;stroke:none"
             d="M 0,0 C 0.278,0.241 0.339,0.395 0.374,0.511 0.4,0.629 0.775,5.39 -0.261,6.644 -1.134,7.253 -2.335,4.079 -2.335,4.079 c 0,0 -0.386,-2.222 -0.334,-3.98 0.046,-1.323 0.606,-1.419 0.606,-1.419 l 0.198,-1.068 -3.775,-1.343 0.374,-0.737 3.456,1.262 c 0,0 2.091,-3.792 8.422,-3.298 -0.325,1.801 -4.047,3.356 -4.602,3.452 -0.557,0.104 -1.952,0.136 -1.952,0.136 l -0.328,0.395 4.192,2.396 c 0,0 2.008,-2.527 2.962,-2.889 0.412,-0.325 4.854,-0.543 5.289,-0.27 0.444,0.27 -0.209,0.818 -0.209,0.818 0,0 -2.518,1.981 -3.771,2.237 C 6.6,0.351 4.697,0.432 4.697,0.432 l 4.105,2.91 c 0,0 3.429,-1.987 4.14,-1.828 0.705,0.169 3.821,1.695 3.879,1.912 C 16.867,3.641 14.039,4.52 11.576,4.465 9.127,4.41 9.788,4.241 9.788,4.241 c 0,0 2.562,2.722 2.629,2.803 0.67,0.551 0.827,0.679 1.047,0.873 0.488,0.302 1.787,2.347 1.935,2.878 0.282,0.595 0.299,2.492 0.276,2.89 0.023,0.687 -0.221,0.551 -0.221,0.551 0,0 -3.281,-2.515 -3.49,-3.661 C 11.738,9.429 11.906,7.288 11.906,7.288 L 9.295,4.72 8.921,4.465 9.017,5.886 9.507,6.594 c 0,0 1.198,2.942 -0.165,5.237 C 7.813,10.85 7.439,10.18 7.166,8.761 6.716,6.38 7.729,5.228 7.729,5.228 L 7.978,4.688 8.184,3.856 4.32,0.966 4.105,2.008 c 0,0 1.146,1.148 1.471,2.019 C 5.904,4.9 4.92,8.883 4.387,9.374 3.83,9.867 2.681,8.405 2.469,6.374 2.509,5.35 2.312,3.107 2.846,2.449 3.119,1.9 3.284,1.569 3.284,1.569 l 0.197,-0.971 -4.169,-2.516 -0.15,1.045" /></g><g
           transform="translate(102.6418,28.3301)"
           id="g224"><path
             id="path226"
             style="fill:#149044;fill-opacity:1;fill-rule:nonzero;stroke:none"
             d="m 0,0 c 0,0 -1.552,-0.128 -3.626,-0.128 -0.778,4.726 -4.016,5.501 -4.016,5.501 0,0 9.711,0.148 12.168,0.133 C 1.422,5.675 0,0 0,0 M 21.248,6.754 C 18.01,7.703 9.208,12.838 7.262,14.088 5.025,15.295 1.529,16.891 1.529,16.891 l -2.112,0.13 -0.351,0.087 -0.343,6.516 c 0,0 -1.119,1.99 -2.671,-0.13 v -6.603 l -2.983,-0.122 c 0,0 -2.126,-1.17 -4.401,-2.49 -1.897,-1.34 -11.001,-7.954 -12.684,-8.213 -1.677,-0.261 -6.562,-0.432 -6.902,-0.432 -0.345,0 7.291,-1.726 7.639,-4.619 l 1.764,-0.348 c 0,0 -1.12,3.757 -4.915,4.535 1.207,0.214 13.334,-0.047 13.334,-0.047 0,0 -3.539,-0.557 -3.153,-4.743 l 0.951,0.046 c 0,0 0.647,4.787 4.834,4.007 4.183,-0.775 3.878,-2.971 4.435,-5.132 3.07,-0.047 6.737,0 6.737,0 0,0 1.465,6.124 5.735,5.175 4.277,-0.951 4.747,-4.398 4.924,-4.871 0.777,0.169 1.851,0.685 1.851,0.685 0,0 -0.43,4.703 -4.355,5.092 -3.925,0.391 11.782,-0.085 11.782,-0.085 0,0 -2.722,-1.291 -3.885,-4.186 1.337,0.476 1.593,0.516 1.593,0.516 0,0 1.685,2.159 1.9,2.202 0.215,0.044 3.455,0.264 3.455,0.264 l 2.327,1.074 c 0,0 -1.552,0.606 -4.787,1.555" /></g><g
           transform="translate(99.0296,32.3682)"
           id="g228"><path
             id="path230"
             style="fill:#149044;fill-opacity:1;fill-rule:nonzero;stroke:none"
             d="m 0,0 0.032,-2.309 0.664,0.148 0.067,2.071 z" /></g><g
           transform="translate(100.7642,32.9917)"
           id="g232"><path
             id="path234"
             style="fill:#149044;fill-opacity:1;fill-rule:nonzero;stroke:none"
             d="m 0,0 0.841,0.133 -0.2,-3.69 H 0.067 Z" /></g><g
           transform="translate(102.1884,32.22)"
           id="g236"><path
             id="path238"
             style="fill:#149044;fill-opacity:1;fill-rule:nonzero;stroke:none"
             d="M 0,0 0.516,0.058 0.255,-2.849 h -0.58 z" /></g><g
           transform="translate(85.5557,29.497)"
           id="g240"><path
             id="path242"
             style="fill:#149044;fill-opacity:1;fill-rule:nonzero;stroke:none"
             d="M 0,0 -0.133,2.849 -0.844,2.913 -1.042,-0.128 Z" /></g><g
           transform="translate(84.0648,33.0558)"
           id="g244"><path
             id="path246"
             style="fill:#149044;fill-opacity:1;fill-rule:nonzero;stroke:none"
             d="m 0,0 -0.456,-0.194 v -4.074 h 0.52 z" /></g><g
           transform="translate(82.3183,32.4744)"
           id="g248"><path
             id="path250"
             style="fill:#149044;fill-opacity:1;fill-rule:nonzero;stroke:none"
             d="m 0,0 0.064,-3.104 0.51,-0.131 0.067,3.038 z" /></g><g
           transform="translate(116.2636,32.4396)"
           id="g252"><path
             id="path254"
             style="fill:#149044;fill-opacity:1;fill-rule:nonzero;stroke:none"
             d="m 0,0 0.612,-0.061 0.032,-2.721 -0.516,0.098 -0.192,2.521 z" /></g><g
           transform="translate(117.5276,32.9278)"
           id="g256"><path
             id="path258"
             style="fill:#149044;fill-opacity:1;fill-rule:nonzero;stroke:none"
             d="M 0,0 H 1.059 L 0.998,-3.528 0.029,-3.464 Z" /></g><g
           transform="translate(119.3034,32.2783)"
           id="g260"><path
             id="path262"
             style="fill:#149044;fill-opacity:1;fill-rule:nonzero;stroke:none"
             d="M 0,0 0.453,0.067 0.545,-2.295 0.032,-2.234 Z" /></g><g
           transform="translate(91.7575,34.6587)"
           id="g264"><path
             id="path266"
             style="fill:#ffffff;fill-opacity:1;fill-rule:nonzero;stroke:none"
             d="M 0,0 H -0.844 V 5.387 C -1.047,5.196 -1.317,4.999 -1.648,4.804 -1.979,4.613 -2.272,4.465 -2.533,4.372 v 0.812 c 0.473,0.227 0.885,0.491 1.233,0.81 0.357,0.316 0.604,0.623 0.755,0.919 H 0 Z" /></g><g
           transform="translate(98.2825,39.288)"
           id="g268"><path
             id="path270"
             style="fill:#ffffff;fill-opacity:1;fill-rule:nonzero;stroke:none"
             d="m 0,0 c 0,0.487 -0.131,0.873 -0.386,1.155 -0.258,0.284 -0.58,0.432 -0.937,0.432 -0.374,0 -0.702,-0.154 -0.978,-0.464 -0.281,-0.305 -0.423,-0.702 -0.423,-1.193 0,-0.438 0.133,-0.795 0.4,-1.067 0.258,-0.279 0.586,-0.409 0.978,-0.409 0.386,0 0.719,0.13 0.963,0.409 C -0.131,-0.865 0,-0.485 0,0 m -3.464,-3.038 0.809,0.076 c 0.073,-0.38 0.201,-0.659 0.398,-0.827 0.191,-0.177 0.444,-0.264 0.748,-0.264 0.256,0 0.485,0.064 0.685,0.18 0.197,0.122 0.357,0.276 0.482,0.476 0.124,0.197 0.226,0.467 0.313,0.809 0.084,0.334 0.125,0.676 0.125,1.03 0,0.038 0,0.096 -0.009,0.168 -0.171,-0.264 -0.395,-0.484 -0.688,-0.65 -0.29,-0.168 -0.609,-0.255 -0.954,-0.255 -0.569,0 -1.05,0.206 -1.445,0.615 -0.391,0.421 -0.586,0.963 -0.586,1.636 0,0.703 0.2,1.265 0.612,1.686 0.412,0.426 0.932,0.644 1.55,0.644 0.446,0 0.858,-0.122 1.227,-0.363 C 0.174,1.68 0.455,1.337 0.65,0.894 0.841,0.447 0.937,-0.2 0.937,-1.047 0.937,-1.926 0.841,-2.623 0.65,-3.148 0.461,-3.667 0.174,-4.067 -0.197,-4.337 -0.58,-4.616 -1.024,-4.746 -1.529,-4.746 c -0.537,0 -0.981,0.148 -1.32,0.452 -0.339,0.296 -0.545,0.717 -0.615,1.256" /></g><g
           transform="translate(103.5168,37.0837)"
           id="g272"><path
             id="path274"
             style="fill:#ffffff;fill-opacity:1;fill-rule:nonzero;stroke:none"
             d="M 0,0 V 3.101 L -2.15,0 Z m 0,-2.425 v 1.65 H -2.979 V 0 L 0.16,4.459 H 0.853 V 0 H 1.778 V -0.775 H 0.853 v -1.65 z" /></g><g
           transform="translate(107.7974,38.0544)"
           id="g276"><path
             id="path278"
             style="fill:#ffffff;fill-opacity:1;fill-rule:nonzero;stroke:none"
             d="m 0,0 c 0,-1.129 0.128,-1.883 0.397,-2.254 0.264,-0.377 0.592,-0.566 0.978,-0.566 0.389,0 0.717,0.189 0.981,0.566 C 2.62,-1.877 2.75,-1.129 2.75,0 2.75,1.134 2.62,1.889 2.356,2.26 2.092,2.628 1.764,2.82 1.364,2.82 0.975,2.82 0.664,2.654 0.435,2.324 0.145,1.906 0,1.128 0,0 m -0.867,0 c 0,0.812 0.081,1.471 0.252,1.967 0.165,0.496 0.418,0.879 0.743,1.146 0.327,0.27 0.748,0.406 1.247,0.406 0.371,0 0.699,-0.075 0.972,-0.223 C 2.631,3.148 2.861,2.933 3.04,2.652 3.217,2.37 3.365,2.028 3.467,1.627 3.566,1.224 3.624,0.685 3.624,0 3.624,-0.807 3.542,-1.459 3.374,-1.952 3.209,-2.457 2.956,-2.834 2.631,-3.104 2.298,-3.383 1.88,-3.513 1.375,-3.513 c -0.661,0 -1.184,0.232 -1.558,0.716 -0.458,0.572 -0.684,1.503 -0.684,2.797" /></g></g></g></g></svg>