<?xml version="1.0" encoding="UTF-8" standalone="no"?>
<!-- Generator: Adobe Illustrator 24.0.1, SVG Export Plug-In . SVG Version: 6.00 Build 0)  -->

<svg
   version="1.1"
   id="图层_1"
   x="0px"
   y="0px"
   viewBox="0 0 249.99999 249.99998"
   xml:space="preserve"
   sodipodi:docname="北京工业大学VI基础系统.svg"
   width="250"
   height="250"
   inkscape:version="1.2 (dc2aedaf03, 2022-05-15)"
   xmlns:inkscape="http://www.inkscape.org/namespaces/inkscape"
   xmlns:sodipodi="http://sodipodi.sourceforge.net/DTD/sodipodi-0.dtd"
   xmlns="http://www.w3.org/2000/svg"
   xmlns:svg="http://www.w3.org/2000/svg"><defs
   id="defs924" /><sodipodi:namedview
   id="namedview922"
   pagecolor="#ffffff"
   bordercolor="#000000"
   borderopacity="0.25"
   inkscape:showpageshadow="2"
   inkscape:pageopacity="0.0"
   inkscape:pagecheckerboard="0"
   inkscape:deskcolor="#d1d1d1"
   showgrid="false"
   inkscape:zoom="1.5858083"
   inkscape:cx="205.8887"
   inkscape:cy="151.97297"
   inkscape:window-width="1440"
   inkscape:window-height="829"
   inkscape:window-x="-8"
   inkscape:window-y="-8"
   inkscape:window-maximized="1"
   inkscape:current-layer="图层_1" />
<style
   type="text/css"
   id="style485">
	.st0{fill:#717071;}
	.st1{font-family:'MicrosoftYaHei';}
	.st2{font-size:9px;}
	.st3{fill:#0096C2;}
	.st4{font-family:'MicrosoftYaHei-Bold';}
	.st5{font-size:12.29px;}
	.st6{font-size:8px;}
	.st7{fill:#1C385A;}
	.st8{fill-rule:evenodd;clip-rule:evenodd;fill:#0096C2;}
	.st9{fill:#FFFFFF;}
	.st10{font-size:27.043px;}
	.st11{font-size:7.1692px;}
	.st12{font-size:6.6571px;}
</style>



















































































































































































































<circle
   style="fill:#ffffff;stroke-width:0.377953"
   id="path1043"
   cx="125"
   cy="125"
   r="125" /><path
   class="st8"
   d="m 207.51139,160.75653 0.33473,0.14506 -0.0335,0.0781 c -0.24547,0.55791 -0.32358,1.00424 -0.22316,1.31667 0.10042,0.32359 0.41284,0.59138 0.91494,0.81455 l 3.0349,1.35014 6.62769,-1.3613 c 0.39052,-0.0893 0.71409,-0.23432 0.97072,-0.44633 0.25663,-0.20085 0.47978,-0.49096 0.66946,-0.85918 l 0.33473,0.14505 -2.25386,5.077 -0.32357,-0.14506 c 0.16737,-0.50212 0.25663,-0.85918 0.26778,-1.08235 0.0112,-0.22316 -0.0558,-0.36822 -0.20083,-0.42401 -0.15621,-0.0669 -0.424,-0.0781 -0.78105,-0.0112 -0.0223,0.0112 -0.0446,0.0112 -0.0558,0.0112 l -4.92056,0.94845 2.42123,3.74916 c 0.23431,0.36822 0.40167,0.6137 0.49094,0.72529 0.10042,0.11158 0.18968,0.18969 0.27894,0.23432 0.14505,0.0669 0.30126,0.0335 0.45747,-0.10042 0.1562,-0.1339 0.34588,-0.42402 0.59135,-0.85919 l 0.33474,0.14506 -1.52861,3.43673 -0.33473,-0.14506 c 0.12273,-0.33474 0.1562,-0.66949 0.0893,-0.99308 -0.067,-0.32359 -0.27894,-0.76991 -0.63599,-1.33898 l -3.10185,-4.88731 -3.325,-1.48404 c -0.46863,-0.21201 -0.83683,-0.23432 -1.11577,-0.0893 -0.27895,0.14506 -0.56905,0.5356 -0.87031,1.16046 l -0.33473,-0.14506 z m 3.34732,-4.57487 c -0.25663,-0.87034 -0.39052,-1.72952 -0.40168,-2.58871 -0.0112,-0.85918 0.10042,-1.71836 0.34589,-2.55523 0.54673,-1.8969 1.52861,-3.26936 2.93448,-4.11738 1.41703,-0.84803 3.01259,-1.02656 4.76435,-0.52444 1.81871,0.52444 3.13532,1.53983 3.94983,3.04619 0.81452,1.51752 0.94841,3.20241 0.41284,5.08815 -0.212,0.73645 -0.53557,1.42826 -0.99304,2.08659 -0.44631,0.65834 -0.68062,1.02656 -0.70294,1.09351 -0.0335,0.1339 -0.0223,0.2678 0.0669,0.40169 0.0781,0.1339 0.212,0.24549 0.40168,0.35707 l -0.0781,0.29011 -3.61511,-0.84802 0.10042,-0.34591 c 1.18272,-0.11158 2.0865,-0.40169 2.72249,-0.87034 0.63599,-0.46865 1.0823,-1.20509 1.3724,-2.18701 0.39052,-1.37246 0.22315,-2.61103 -0.52442,-3.71569 -0.73641,-1.10467 -1.91913,-1.8969 -3.54815,-2.36554 -1.64019,-0.46865 -3.06838,-0.42402 -4.29573,0.13389 -1.21619,0.56907 -2.0307,1.53984 -2.43238,2.94578 -0.14505,0.51327 -0.212,1.02655 -0.17853,1.53983 0.0223,0.51328 0.1339,0.97077 0.33474,1.3613 l 3.12416,0.89266 c 0.66946,0.18969 1.10461,0.21201 1.30545,0.0669 0.20084,-0.14506 0.43515,-0.60254 0.69178,-1.37246 l 0.36821,0.10042 -1.41703,4.9431 -0.36821,-0.10043 c 0.14505,-0.56907 0.15621,-0.9596 0.0558,-1.19393 -0.11158,-0.22316 -0.45747,-0.42401 -1.03767,-0.59138 z m 10.03079,-25.41843 c 1.8745,0.23432 3.31385,0.98192 4.30688,2.2428 0.99304,1.27204 1.38356,2.83419 1.14925,4.68645 -0.22315,1.86343 -0.98188,3.29168 -2.25386,4.2736 -1.27198,0.99309 -2.84522,1.36131 -4.73088,1.13814 -1.88565,-0.23432 -3.325,-0.98192 -4.32919,-2.2428 -1.0042,-1.27204 -1.38356,-2.83419 -1.16041,-4.69761 0.22316,-1.85227 0.98188,-3.28052 2.25386,-4.26244 1.2943,-0.99309 2.8787,-1.37247 4.76435,-1.13814 z m -0.24547,2.05311 c -1.71829,-0.21201 -3.12416,-0.0112 -4.21762,0.6137 -1.09346,0.6137 -1.71829,1.551 -1.8745,2.81188 -0.1562,1.26087 0.22316,2.32091 1.13809,3.19125 0.91493,0.87034 2.23155,1.40593 3.94984,1.61794 1.70713,0.21201 3.10184,0 4.1953,-0.6137 1.09346,-0.61371 1.71829,-1.56215 1.8745,-2.82303 0.15621,-1.26088 -0.22316,-2.32091 -1.13809,-3.1801 -0.91493,-0.87034 -2.22039,-1.40593 -3.92752,-1.61794 z m -5.82433,-15.15287 0.3682,-0.0112 v 0.0893 c 0.0112,0.63602 0.14505,1.07119 0.39052,1.30551 0.24547,0.23432 0.73641,0.33475 1.45051,0.32359 l 7.82156,-0.1339 c 0.70294,-0.0112 1.14925,-0.1339 1.33893,-0.36822 0.18968,-0.23432 0.27894,-0.69181 0.27894,-1.39478 l 0.36821,-0.0112 0.10042,5.46753 -0.36821,0.0112 v -0.0893 c -0.0112,-0.63602 -0.13389,-1.08235 -0.37936,-1.32783 -0.24547,-0.24548 -0.68062,-0.35707 -1.29429,-0.34591 l -8.0782,0.14506 c -0.53557,0.0112 -0.8703,0.0893 -1.00419,0.24548 -0.1339,0.15622 -0.18969,0.4798 -0.18969,0.98192 l 0.0335,2.07543 c 0.0112,0.89266 0.22315,1.61795 0.62483,2.18702 0.40168,0.56907 1.02651,1.02655 1.88566,1.3613 l 0.0111,0.36822 -3.17995,-0.92613 z m 3.62626,-15.43182 c 1.86334,-0.32359 3.45889,-0.0335 4.77551,0.8815 1.32777,0.92613 2.14228,2.29859 2.46585,4.1397 0.32358,1.85226 0.0223,3.42557 -0.90377,4.74224 -0.92609,1.31667 -2.32081,2.14238 -4.18415,2.46597 -1.8745,0.33475 -3.47005,0.0335 -4.79782,-0.8815 -1.32777,-0.92613 -2.15344,-2.29859 -2.47702,-4.15086 -0.32357,-1.8411 -0.0223,-3.42557 0.91494,-4.74224 0.92609,-1.30551 2.33196,-2.13122 4.20646,-2.45481 z m 0.35705,2.0308 c -1.70714,0.30127 -2.99027,0.90381 -3.86058,1.81879 -0.8703,0.91497 -1.19387,1.98616 -0.97072,3.23588 0.22316,1.24972 0.89262,2.15354 2.01955,2.72261 1.12693,0.55791 2.54396,0.69181 4.25109,0.39054 1.69598,-0.30128 2.96796,-0.90382 3.8271,-1.8188 0.87031,-0.91497 1.18272,-1.99732 0.97073,-3.24704 -0.22316,-1.24972 -0.89262,-2.15354 -2.01955,-2.71145 -1.11578,-0.55791 -2.52165,-0.68065 -4.21762,-0.39053 z m -8.08935,-13.166709 c -0.63599,0.200848 -1.01536,0.446329 -1.12693,0.714126 -0.11158,0.267797 -0.0781,0.758759 0.0893,1.450569 l -0.34589,0.111582 -1.33893,-4.117384 0.34589,-0.111582 c 0.26779,0.669493 0.53557,1.071189 0.78104,1.227404 0.24547,0.156215 0.69178,0.122741 1.32777,-0.08927 l 7.98893,-2.599866 c 0.31242,-0.345905 0.51326,-0.680651 0.61368,-0.993082 0.10042,-0.323588 0.10042,-0.669493 0.0223,-1.037715 l 0.34589,-0.111582 0.95957,2.945771 -5.92476,9.406383 6.21486,-2.019638 c 0.63599,-0.200848 1.01535,-0.446329 1.12693,-0.714127 0.11157,-0.267797 0.0781,-0.747601 -0.0893,-1.439411 l 0.34589,-0.111582 1.32776,4.095068 -0.34588,0.111583 c -0.26779,-0.658336 -0.52442,-1.07119 -0.76989,-1.227405 -0.24547,-0.145057 -0.69178,-0.122741 -1.32777,0.08927 l -9.51754,3.090828 -0.11158,-0.345905 6.7058,-10.711895 z m -10.2428,-15.007812 0.32358,-0.178531 c 0.3682,0.602544 0.69178,0.959607 0.99303,1.048873 0.30126,0.100424 0.72526,-0.01116 1.27199,-0.334747 l 6.98473,-4.028119 c 0.53557,-0.31243 0.83683,-0.62486 0.90378,-0.948449 0.0669,-0.323588 -0.0558,-0.792234 -0.39052,-1.405936 l 0.31241,-0.178532 2.71133,4.708771 -0.31242,0.178532 c -0.39052,-0.602544 -0.72525,-0.948449 -1.02651,-1.037715 -0.30125,-0.08927 -0.71409,0.02232 -1.24966,0.323588 l -2.58859,1.495202 c -0.18969,0.111583 -0.30126,0.212007 -0.32358,0.312431 -0.0223,0.100424 0.0112,0.24548 0.12274,0.424012 l 2.55512,4.429815 c 0.0893,0.156215 0.18968,0.245481 0.2901,0.267797 0.10042,0.01116 0.24547,-0.03347 0.45746,-0.156215 l 2.55512,-1.472885 c 0.52442,-0.301272 0.82568,-0.613703 0.90378,-0.926133 0.0669,-0.31243 -0.0558,-0.781076 -0.39052,-1.405936 l 0.31242,-0.18969 2.72248,4.719929 -0.31242,0.178531 c -0.3682,-0.602544 -0.70293,-0.948449 -1.00419,-1.048873 -0.30126,-0.100424 -0.72525,0.01116 -1.27198,0.323589 l -6.98474,4.028119 c -0.53557,0.31243 -0.83683,0.613702 -0.90377,0.937291 -0.0669,0.31243 0.0558,0.781075 0.39052,1.394778 l -0.31242,0.178531 -2.72249,-4.719929 0.32358,-0.178531 c 0.3682,0.602544 0.70294,0.948449 1.00419,1.037715 0.30126,0.100424 0.72526,-0.01116 1.24967,-0.312431 l 2.86753,-1.651417 c 0.18969,-0.111582 0.31242,-0.212006 0.33474,-0.301272 0.0335,-0.08927 0,-0.212006 -0.0893,-0.37938 l -2.56627,-4.440973 c -0.10042,-0.167373 -0.20084,-0.267797 -0.31242,-0.290113 -0.11158,-0.02232 -0.25663,0.01116 -0.43515,0.111582 l -2.84522,1.640259 c -0.53557,0.31243 -0.83683,0.62486 -0.91493,0.926132 -0.0781,0.312431 0.0558,0.781076 0.39052,1.394778 l -0.31242,0.178532 z m 1.47282,-3.302834 -0.0558,0.424013 c -1.13808,0.06695 -2.15344,-0.08927 -3.0349,-0.457488 -0.88146,-0.368221 -1.65134,-0.959607 -2.3208,-1.785315 -1.19388,-1.472886 -1.70714,-3.012721 -1.55093,-4.608347 0.16737,-1.606784 0.97072,-2.990404 2.42123,-4.162017 1.43935,-1.171614 3.00143,-1.662576 4.67509,-1.484044 1.67365,0.178531 3.10184,0.993082 4.2734,2.443651 0.44631,0.557911 0.82568,1.205088 1.11578,1.930373 0.30126,0.736442 0.47978,1.138138 0.53557,1.216246 0.11158,0.133899 0.24547,0.200848 0.39052,0.212006 0.15621,0.01116 0.30126,-0.03347 0.44631,-0.156215 l 0.21199,0.256639 -2.81174,2.722607 -0.23431,-0.278956 c 0.63599,-0.948449 0.95956,-1.874581 0.95956,-2.767239 0,-0.892658 -0.30126,-1.718367 -0.92609,-2.488284 -0.8703,-1.082348 -1.97492,-1.617943 -3.31385,-1.629101 -1.33892,-0.01116 -2.65554,0.513278 -3.97215,1.584468 -1.26082,1.026557 -2.0307,2.187012 -2.29849,3.492524 -0.27894,1.305512 0,2.477126 0.83683,3.503682 0.56905,0.702968 1.22735,1.216247 1.9526,1.539835 0.74757,0.312431 1.65135,0.479804 2.70017,0.490962 z m -18.67803,-16.257532 0.25663,-0.256639 c 0.52441,0.468645 0.9484,0.714126 1.26082,0.714126 0.31242,0.01116 0.68062,-0.212006 1.11577,-0.680652 l 5.51192,-5.913858 c 0.42399,-0.457488 0.62483,-0.836867 0.60252,-1.149297 -0.0223,-0.312431 -0.2901,-0.725285 -0.7922,-1.238563 l 0.24547,-0.25664 7.52031,7.007365 -1.69598,2.053113 -0.26778,-0.245481 c 0.43515,-0.647177 0.61367,-1.182771 0.54672,-1.606784 -0.0558,-0.424012 -0.40167,-0.937291 -1.03766,-1.517518 l -2.22039,-2.07543 c -0.26779,-0.256639 -0.46863,-0.37938 -0.61368,-0.390538 -0.14505,-0.01116 -0.34589,0.133899 -0.60251,0.412855 l -2.20923,2.365543 c -0.16737,0.178532 -0.25663,0.31243 -0.25663,0.412854 0,0.08927 0.0893,0.223165 0.27894,0.401696 l 1.75176,1.629101 c 0.68063,0.636019 1.2162,0.970766 1.5844,0.993082 0.36821,0.02232 0.7922,-0.18969 1.26082,-0.647177 l 0.26779,0.245481 -2.81175,3.023879 -0.26778,-0.245481 c 0.43515,-0.535595 0.63599,-0.981924 0.59136,-1.350145 -0.0335,-0.368222 -0.40168,-0.870342 -1.09346,-1.506361 l -1.76292,-1.640259 c -0.16737,-0.156215 -0.30126,-0.234322 -0.40168,-0.234322 -0.10042,0 -0.23431,0.08927 -0.40168,0.278955 l -2.4547,2.633341 c -0.30125,0.323589 -0.45746,0.56907 -0.45746,0.747601 -0.0112,0.178532 0.11157,0.37938 0.3682,0.613703 l 2.05302,1.919214 c 0.83683,0.781076 1.53977,1.216246 2.13113,1.327829 0.59136,0.111582 1.33893,-0.04463 2.25386,-0.468646 l 0.13389,0.345905 -2.70017,1.517519 z m -7.69883,-5.835751 0.212,-0.301272 c 0.62483,0.43517 1.09345,0.62486 1.40587,0.569069 0.31242,-0.05579 0.70294,-0.401696 1.14924,-1.037715 l 4.92056,-7.029681 c 0.14505,-0.212006 0.20084,-0.357063 0.17853,-0.435171 -0.0335,-0.07811 -0.18969,-0.223164 -0.47979,-0.424012 l -0.24547,-0.167374 c -0.9484,-0.669493 -1.68481,-0.981923 -2.22038,-0.948449 -0.52442,0.03348 -1.10462,0.401696 -1.71829,1.115823 l -0.30126,-0.212006 1.85218,-2.465968 8.91502,6.248605 -1.77408,2.521759 -0.31241,-0.223164 c 0.46862,-0.825709 0.63599,-1.484044 0.5021,-1.975006 -0.12274,-0.479804 -0.74757,-1.115822 -1.8745,-1.908056 -0.33473,-0.234323 -0.53557,-0.345905 -0.63599,-0.334747 -0.0893,0.01116 -0.212,0.111582 -0.34589,0.301272 l -4.88709,6.97389 c -0.49094,0.702968 -0.69177,1.205088 -0.61367,1.50636 0.0893,0.301272 0.42399,0.669494 1.02651,1.104664 l -0.20084,0.301272 z m -15.45345,-8.647624 0.16736,-0.323588 c 0.66947,0.31243 1.14925,0.424012 1.42819,0.345904 0.2901,-0.07811 0.5802,-0.401696 0.87031,-0.981923 l 3.65973,-7.174738 c 0.27894,-0.557911 0.3682,-0.993082 0.25663,-1.305512 -0.11158,-0.312431 -0.47978,-0.624861 -1.10462,-0.937291 l 0.17853,-0.334747 8.88155,4.530239 -1.11578,2.611024 -0.32357,-0.167373 c 0.24547,-0.781076 0.26778,-1.394778 0.0781,-1.829949 -0.18968,-0.43517 -0.68062,-0.859183 -1.4505,-1.249721 l -2.27618,-1.160455 c -0.31241,-0.156215 -0.56904,-0.212006 -0.74756,-0.167373 -0.17853,0.05579 -0.33474,0.223164 -0.49094,0.513278 l -1.47282,2.88998 c -0.12274,0.245481 -0.16737,0.412854 -0.14505,0.50212 0.0335,0.08927 0.14505,0.18969 0.35704,0.301272 l 1.41703,0.725285 c 0.81452,0.412854 1.40588,0.591385 1.78524,0.513278 0.3682,-0.07811 0.70294,-0.412854 1.0042,-1.00424 l 0.32357,0.167373 -1.93029,3.793796 -0.32357,-0.167373 c 0.2901,-0.69181 0.39052,-1.205088 0.26778,-1.528677 -0.12273,-0.323588 -0.60251,-0.702968 -1.4505,-1.138139 l -1.43935,-0.736442 c -0.18968,-0.100425 -0.32357,-0.122741 -0.42399,-0.100425 -0.10042,0.03348 -0.20084,0.133899 -0.2901,0.312431 l -1.51745,2.968087 c -0.2901,0.56907 -0.36821,1.004241 -0.23431,1.327829 0.13389,0.323588 0.52441,0.658335 1.19387,1.00424 l -0.15621,0.323589 z M 148.39776,31.577774 c 0.61367,-1.785316 1.65134,-3.046195 3.09069,-3.749163 1.4505,-0.714127 3.05721,-0.75876 4.82013,-0.156215 1.77408,0.613702 3.01259,1.640258 3.71553,3.090828 0.70293,1.450569 0.74756,3.068511 0.12273,4.853827 -0.61367,1.796474 -1.65134,3.057353 -3.10185,3.77148 -1.4505,0.714126 -3.05721,0.769917 -4.83129,0.156215 -1.77408,-0.613702 -3.00143,-1.640259 -3.70437,-3.101986 -0.69178,-1.45057 -0.72525,-3.068512 -0.11157,-4.864986 z m 1.9526,0.669493 c -0.55789,1.640259 -0.65831,3.057354 -0.27895,4.251284 0.37937,1.19393 1.16041,2.00848 2.36544,2.421334 1.20504,0.412855 2.32081,0.267798 3.35848,-0.446329 1.03767,-0.714126 1.84102,-1.88574 2.39891,-3.525998 0.55789,-1.629101 0.64715,-3.035037 0.26778,-4.228967 -0.37936,-1.19393 -1.17156,-2.008481 -2.36543,-2.421335 -1.19388,-0.412854 -2.30965,-0.267797 -3.34732,0.446329 -1.03767,0.714126 -1.82987,1.874582 -2.39891,3.503682 z m -18.06436,3.012721 0.0446,-0.357063 0.0893,0.01116 c 0.61368,0.07811 1.04883,0.01116 1.32777,-0.178532 0.27894,-0.189689 0.44631,-0.569069 0.51326,-1.115822 l 0.40168,-3.291676 -3.2469,-5.936175 c -0.20084,-0.345905 -0.43515,-0.613703 -0.70294,-0.803392 -0.26779,-0.18969 -0.61367,-0.312431 -1.01535,-0.37938 l 0.0446,-0.357063 5.51191,0.680651 -0.0446,0.357064 c -0.52441,-0.02232 -0.90377,0 -1.11577,0.05579 -0.212,0.05579 -0.33473,0.156215 -0.34589,0.31243 -0.0223,0.167373 0.0558,0.424012 0.22316,0.758759 0.0111,0.02232 0.0223,0.03347 0.0335,0.04463 l 2.34312,4.418657 2.86754,-3.414417 c 0.2901,-0.334746 0.46862,-0.557911 0.55788,-0.69181 0.0781,-0.133898 0.1339,-0.234322 0.14505,-0.334746 0.0223,-0.156215 -0.0558,-0.301272 -0.22315,-0.401696 -0.17852,-0.100424 -0.5021,-0.212007 -0.99304,-0.312431 l 0.0446,-0.357063 3.73784,0.457487 -0.0446,0.357064 c -0.35705,-0.02232 -0.69178,0.04463 -0.98188,0.200848 -0.2901,0.156215 -0.65831,0.490961 -1.09346,0.993081 l -3.76015,4.396341 -0.44631,3.615264 c -0.0669,0.50212 0.0223,0.870342 0.24547,1.093506 0.22315,0.223165 0.68062,0.390538 1.36124,0.490962 l -0.0446,0.357063 z m -13.5678,-0.178532 v -0.368221 c 0.75873,0 1.24967,-0.111582 1.48398,-0.334747 0.23431,-0.223164 0.34589,-0.725284 0.34589,-1.50636 v -8.580674 c 0,-0.25664 -0.0335,-0.412855 -0.11158,-0.457488 -0.0669,-0.04463 -0.2901,-0.07811 -0.63599,-0.07811 h -0.2901 c -1.1604,0 -1.9526,0.167373 -2.35428,0.490962 -0.41283,0.334746 -0.66946,0.959607 -0.76988,1.896898 h -0.36821 l 0.10042,-3.090828 h 10.88995 v 3.090828 h -0.37937 c -0.10042,-0.948449 -0.33473,-1.57331 -0.71409,-1.908056 -0.37936,-0.323589 -1.26083,-0.490962 -2.62207,-0.490962 -0.40168,0 -0.63599,0.03347 -0.70293,0.08927 -0.067,0.05579 -0.11158,0.212007 -0.11158,0.446329 v 8.513725 c 0,0.859184 0.12273,1.38362 0.35705,1.584468 0.24547,0.200848 0.72525,0.301272 1.47282,0.323589 l 0.0112,0.368221 h -5.60118 z m -9.8969,1.316671 -0.0446,-0.357063 c 0.69178,-0.100424 1.14925,-0.267798 1.35009,-0.513279 0.21199,-0.234322 0.27894,-0.669493 0.20083,-1.305512 l -0.98188,-8.000447 c -0.0781,-0.613702 -0.24547,-1.015398 -0.51325,-1.205088 -0.26779,-0.18969 -0.74757,-0.245481 -1.42819,-0.178531 l -0.0446,-0.357064 5.42265,-0.669493 0.0335,0.368221 c -0.70294,0.111583 -1.16041,0.290114 -1.36124,0.535595 -0.20084,0.245481 -0.26779,0.669494 -0.18969,1.283196 l 0.98188,8.000447 c 0.0781,0.613702 0.24547,1.015398 0.51326,1.205088 0.26778,0.18969 0.74757,0.245481 1.43935,0.178531 l 0.0558,0.357063 z m -9.272069,2.276277 -1.51745,-3.626422 0.357047,-0.07811 c 0.63599,0.914974 1.338927,1.584468 2.086492,1.997322 0.74757,0.412854 1.48398,0.546753 2.18692,0.37938 0.62483,-0.145057 1.09345,-0.457487 1.42819,-0.959608 0.32357,-0.490961 0.42399,-1.037714 0.2901,-1.6291 -0.10042,-0.435171 -0.33474,-0.814551 -0.70294,-1.126981 -0.3682,-0.31243 -0.88146,-0.569069 -1.55092,-0.781076 l -2.0865,-0.680651 c -0.892617,-0.278956 -1.573238,-0.624861 -2.030705,-1.037715 -0.457467,-0.412854 -0.758725,-0.926133 -0.903776,-1.562151 -0.200839,-0.892658 -0.05579,-1.69605 0.446309,-2.410177 0.502098,-0.714126 1.260823,-1.182772 2.287334,-1.417094 0.468628,-0.111582 0.993038,-0.133899 1.562078,-0.07811 0.56905,0.05579 0.91494,0.06695 1.0042,0.04463 0.12273,-0.03347 0.212,-0.100424 0.26778,-0.200848 0.0558,-0.111582 0.067,-0.245481 0.0558,-0.435171 l 0.30126,-0.06695 1.20504,3.447891 -0.35705,0.07811 c -0.55789,-0.8815 -1.1604,-1.50636 -1.80755,-1.88574 -0.64715,-0.37938 -1.31661,-0.490962 -1.99724,-0.334747 -0.580197,0.133899 -1.015349,0.401696 -1.305449,0.814551 -0.290101,0.412854 -0.379363,0.881499 -0.256628,1.394778 0.08926,0.401696 0.301258,0.736442 0.63599,1.015398 0.334732,0.267797 0.83683,0.524436 1.539767,0.747601 l 2.30965,0.725284 c 0.94841,0.312431 1.64018,0.669494 2.08649,1.082348 0.44631,0.412855 0.74757,0.948449 0.90378,1.617943 0.23431,1.00424 0.0781,1.896898 -0.46863,2.655657 -0.53557,0.758759 -1.38355,1.272038 -2.5328,1.539835 -0.53557,0.12274 -1.10461,0.178532 -1.70713,0.145057 -0.60252,-0.02232 -0.92609,-0.03347 -0.98188,-0.01116 -0.15621,0.03347 -0.27894,0.100424 -0.357048,0.200848 -0.0781,0.08926 -0.111577,0.212006 -0.111577,0.368221 z m -13.924842,5.199733 -0.133892,-0.334747 0.200839,-0.07811 c 0.557886,-0.223164 0.903775,-0.50212 1.02651,-0.81455 0.122735,-0.31243 0.06695,-0.769917 -0.178523,-1.372461 L 83.515579,33.7871 c -0.223154,-0.546753 -0.479782,-0.859183 -0.781041,-0.959607 -0.301258,-0.100424 -0.792198,-0.01116 -1.47282,0.245481 l -0.133892,-0.334747 5.656967,-2.287436 c 1.249665,-0.50212 2.309649,-0.647177 3.168794,-0.424012 0.859145,0.223164 1.47282,0.803392 1.852183,1.740683 0.2901,0.725284 0.301258,1.428252 0.03347,2.097746 -0.267786,0.669493 -0.814514,1.294354 -1.629028,1.863423 2.209229,1.283196 3.815942,2.142379 4.820137,2.599866 1.004196,0.457488 1.684817,0.636019 2.030706,0.535595 l 0.133893,0.334747 -2.521646,1.015398 c -0.993035,-0.468645 -2.008388,-0.981923 -3.034898,-1.539835 -1.037669,-0.569069 -2.097653,-1.182771 -3.179952,-1.841107 l -1.015353,0.412855 c -0.156209,0.06695 -0.256628,0.133898 -0.301259,0.223164 -0.04463,0.08927 -0.03347,0.200848 0.02232,0.345905 l 1.115772,2.756081 c 0.24547,0.602545 0.524413,0.970766 0.847987,1.104665 0.323574,0.133898 0.781041,0.07811 1.394716,-0.167374 l 0.14505,-0.05579 0.133893,0.334747 z m 0.959565,-7.442536 c 0.05579,0.145057 0.14505,0.245481 0.234312,0.278956 0.08926,0.03347 0.211997,0.02232 0.368205,-0.03348 1.338927,-0.546753 2.231545,-1.138139 2.666696,-1.785316 0.44631,-0.647177 0.479783,-1.417094 0.122735,-2.298594 -0.323574,-0.81455 -0.825671,-1.305512 -1.472819,-1.484043 -0.658306,-0.178532 -1.528609,-0.04463 -2.622066,0.401696 -0.49094,0.200848 -0.781041,0.379379 -0.859145,0.535594 -0.0781,0.156215 -0.04463,0.424013 0.111577,0.792234 z M 74.143089,50.357065 73.975723,50.033476 c 0.613675,-0.357063 0.970723,-0.680651 1.071142,-0.981923 0.111577,-0.290114 0.01116,-0.714127 -0.301259,-1.272038 l -3.916361,-7.063156 c -0.301259,-0.546753 -0.602518,-0.848025 -0.914934,-0.926132 -0.301258,-0.07811 -0.781041,0.05579 -1.428189,0.368221 l -0.167366,-0.31243 8.993127,-4.976568 1.428189,2.242803 -0.323574,0.178532 c -0.479782,-0.602544 -0.926091,-0.948449 -1.361242,-1.026557 -0.423994,-0.07811 -1.015353,0.08927 -1.762921,0.513278 l -2.655539,1.472886 c -0.323574,0.178531 -0.502097,0.334747 -0.557886,0.468645 -0.04463,0.133899 0.02232,0.368222 0.200839,0.702968 l 1.562082,2.823031 c 0.122735,0.223165 0.223154,0.334747 0.312416,0.368221 0.08926,0.02232 0.24547,-0.02232 0.468624,-0.145056 l 2.097653,-1.160456 c 0.814514,-0.457487 1.294296,-0.859183 1.428189,-1.19393 0.133893,-0.345905 0.06695,-0.803392 -0.223155,-1.394778 l 0.323574,-0.178531 1.997233,3.615264 -0.323574,0.178532 c -0.379362,-0.580228 -0.747567,-0.903816 -1.104615,-0.981924 -0.357047,-0.07811 -0.948406,0.111582 -1.774078,0.56907 l -2.10881,1.171613 c -0.200839,0.111582 -0.323574,0.212006 -0.34589,0.301272 -0.03347,0.08927 0.01116,0.245481 0.133893,0.468646 l 1.740605,3.146619 c 0.211997,0.390538 0.401678,0.602544 0.569044,0.669493 0.167366,0.05579 0.401678,0.01116 0.691779,-0.156215 l 2.4547,-1.361303 c 0.993038,-0.546753 1.629028,-1.093506 1.919129,-1.617943 0.278943,-0.535595 0.368205,-1.294354 0.256628,-2.287436 l 0.368205,-0.02232 0.602517,3.035037 z m -6.092118,5.27784 -9.305544,-5.233207 c -0.803356,-0.446329 -1.405873,-0.702968 -1.818709,-0.758759 -0.412836,-0.05579 -0.792198,0.04463 -1.138088,0.290113 l -0.223155,-0.290113 4.061413,-3.068512 0.211997,0.301272 c -0.44631,0.390538 -0.714095,0.669493 -0.803357,0.859183 -0.08926,0.18969 -0.06695,0.368222 0.0781,0.557911 0.145051,0.18969 0.781041,0.613703 1.919129,1.283196 1.138088,0.658335 3.079533,1.729525 5.813175,3.191252 l -1.695974,-7.542959 c -0.06695,-0.267798 -0.133893,-0.50212 -0.189681,-0.680652 -0.06695,-0.18969 -0.133893,-0.323588 -0.200839,-0.412854 -0.156208,-0.212006 -0.34589,-0.301272 -0.569044,-0.267797 -0.223155,0.02232 -0.546729,0.189689 -0.98188,0.479803 l -0.223155,-0.290114 2.901009,-2.187012 0.223155,0.290114 c -0.24547,0.212007 -0.390521,0.479804 -0.435152,0.803392 -0.04463,0.323589 0.02232,0.859184 0.211997,1.629101 l 2.488173,10.812319 z m -9.941534,9.250168 -0.256628,-0.25664 c 0.468625,-0.513278 0.714095,-0.93729 0.725252,-1.249721 0.01116,-0.31243 -0.211996,-0.69181 -0.669463,-1.138139 L 52.10658,56.639145 c -0.446309,-0.424012 -0.825671,-0.636019 -1.160403,-0.613702 -0.323574,0.02232 -0.73641,0.278955 -1.22735,0.758759 l -0.267785,-0.256639 3.793626,-3.927695 0.256628,0.256639 c -0.479782,0.535595 -0.714094,0.959607 -0.725252,1.272038 -0.01116,0.31243 0.211997,0.69181 0.658306,1.115822 l 5.802017,5.601428 c 0.446309,0.435171 0.83683,0.636019 1.149246,0.613703 0.323574,-0.02232 0.73641,-0.278956 1.22735,-0.769918 l 0.267785,0.245481 z m -9.138178,7.810756 c 0.513256,0.424013 0.926092,0.602544 1.205035,0.557912 0.290101,-0.05579 0.680621,-0.345905 1.171561,-0.870342 l 0.278943,0.234323 -2.722485,3.358625 -0.278943,-0.234322 c 0.412836,-0.591386 0.613675,-1.026557 0.602517,-1.327829 -0.01116,-0.290114 -0.278943,-0.647177 -0.792198,-1.07119 l -6.52727,-5.288998 c -0.457467,-0.07811 -0.847987,-0.06695 -1.171561,0.03348 -0.323574,0.08927 -0.613675,0.278955 -0.881461,0.546753 L 39.576454,68.399918 41.529056,65.989742 52.642151,65.833527 47.565386,61.7273 c -0.513255,-0.424012 -0.926091,-0.602544 -1.205034,-0.557911 -0.290101,0.04463 -0.669464,0.334747 -1.149246,0.859183 l -0.278943,-0.234322 2.711327,-3.347468 0.278943,0.234323 c -0.412836,0.580228 -0.613675,1.015398 -0.602517,1.31667 0.01116,0.290114 0.278943,0.647177 0.792199,1.07119 l 7.776935,6.293238 -0.234313,0.278956 -12.641703,0.212006 z m -17.149424,11.292123 -0.323575,-0.167373 2.510489,-4.719929 0.312416,0.167373 c -0.290101,0.602544 -0.39052,1.060032 -0.290101,1.361304 0.10042,0.301272 0.49094,0.636018 1.149246,0.981923 l 4.552352,2.421335 c 1.249666,0.658335 2.298492,0.903816 3.168794,0.725285 0.870303,-0.18969 1.57324,-0.792234 2.131126,-1.841107 0.569044,-1.060032 0.680621,-2.053114 0.357047,-2.979246 -0.323574,-0.926133 -1.059984,-1.69605 -2.220387,-2.309753 L 38.61689,75.20643 c -0.647148,-0.345905 -1.138088,-0.468646 -1.483978,-0.368222 -0.345889,0.08927 -0.680621,0.446329 -1.015353,1.037715 l -0.323574,-0.167373 1.986075,-3.749163 0.312417,0.167373 c -0.256628,0.535595 -0.323574,0.981924 -0.20084,1.305512 0.133893,0.334747 0.513256,0.669494 1.138089,1.00424 l 4.340355,2.309753 c 1.495135,0.792234 2.432384,1.774157 2.800589,2.934613 0.368205,1.160455 0.167366,2.465967 -0.613675,3.938853 -0.401678,0.747601 -0.847987,1.372461 -1.361242,1.863423 -0.513256,0.490962 -1.048827,0.825709 -1.617871,1.00424 -0.524413,0.156215 -1.071141,0.178532 -1.662501,0.06695 -0.580202,-0.111583 -1.283138,-0.390538 -2.10881,-0.825709 l -3.983308,-2.120063 c -0.948407,-0.50212 -1.606713,-0.725284 -1.986075,-0.647177 -0.334732,0.05579 -0.691779,0.401697 -1.015353,1.026557 z m 7.007051,11.191699 c 0.24547,0.870341 0.357048,1.740683 0.357048,2.599866 0,0.859183 -0.133893,1.707208 -0.390521,2.555233 -0.580201,1.88574 -1.584397,3.23589 -3.012586,4.06159 -1.428189,0.82571 -3.023743,0.97077 -4.775506,0.43517 -1.81871,-0.55791 -3.113006,-1.59562 -3.894047,-3.1243 -0.781041,-1.52867 -0.892618,-3.224725 -0.323574,-5.099307 0.223155,-0.736442 0.569044,-1.417094 1.026511,-2.075429 0.457467,-0.647177 0.702937,-1.015399 0.714094,-1.07119 0.04463,-0.133898 0.02232,-0.267797 -0.05579,-0.401696 -0.0781,-0.133899 -0.211997,-0.245481 -0.390521,-0.357063 l 0.0781,-0.290114 3.592788,0.903816 -0.111577,0.345905 c -1.182719,0.08927 -2.097653,0.357063 -2.733643,0.825709 -0.63599,0.457487 -1.104615,1.182772 -1.405873,2.153537 -0.412836,1.361303 -0.267786,2.599866 0.457466,3.726842 0.725253,1.12699 1.885656,1.93038 3.503526,2.42134 1.629028,0.50212 3.057217,0.4798 4.295725,-0.0669 1.22735,-0.54675 2.053021,-1.50636 2.477015,-2.901138 0.156208,-0.513278 0.223155,-1.026557 0.211997,-1.539835 -0.02232,-0.513278 -0.122735,-0.970765 -0.301259,-1.372462 l -3.101842,-0.948449 c -0.669463,-0.200848 -1.104615,-0.234322 -1.305454,-0.08926 -0.211996,0.145057 -0.446309,0.602544 -0.714094,1.361303 l -0.368205,-0.111582 1.506293,-4.909619 0.368205,0.111582 c -0.156208,0.557912 -0.178524,0.959608 -0.0781,1.182772 0.100419,0.223165 0.446309,0.435171 1.037668,0.613702 z m -5.768544,23.209109 c 0.658306,0.0893 1.104615,0.0446 1.316612,-0.14506 0.223154,-0.18969 0.401678,-0.64718 0.557886,-1.35015 l 0.357047,0.0558 -0.602517,4.28475 -0.357047,-0.0558 c 0.04463,-0.71412 -0.01116,-1.20509 -0.167366,-1.45057 -0.156208,-0.24548 -0.569044,-0.41285 -1.22735,-0.50212 L 24.613944,118.054 c -0.435152,0.16737 -0.758726,0.37938 -0.993038,0.62486 -0.223155,0.24548 -0.379363,0.55791 -0.468625,0.92613 l -0.357047,-0.0558 0.435152,-3.06851 9.450593,-5.85807 -6.471481,-0.90381 c -0.658305,-0.0893 -1.104615,-0.0446 -1.316611,0.14505 -0.223155,0.18969 -0.401678,0.63602 -0.546729,1.32783 l -0.357047,-0.0558 0.602517,-4.2736 0.357047,0.0558 c -0.05579,0.71413 0,1.19393 0.156208,1.43941 0.156209,0.24548 0.569045,0.41286 1.22735,0.50212 l 9.908061,1.39478 -0.05579,0.35706 -10.722574,6.68378 z m 1.919129,10.07587 h -0.368205 c -0.02231,-0.70297 -0.133893,-1.17161 -0.345889,-1.40593 -0.211997,-0.23433 -0.635991,-0.35707 -1.271981,-0.35707 h -8.055878 c -0.613675,0 -1.037669,0.12274 -1.260823,0.36822 -0.223155,0.24549 -0.334732,0.71413 -0.357048,1.39478 h -0.368205 v -5.46753 l 0.368205,0.0112 c 0.03347,0.71413 0.145051,1.18277 0.368205,1.4171 0.211997,0.23432 0.635991,0.3459 1.249666,0.3459 h 8.055878 c 0.624832,0 1.037668,-0.12274 1.260823,-0.35706 0.223154,-0.24548 0.334732,-0.71413 0.357047,-1.40594 l 0.368205,-0.0112 z m -11.782559,2.72261 0.357048,-0.0223 c 0.06695,0.68065 0.223154,1.13814 0.468624,1.35015 0.24547,0.22316 0.714095,0.30127 1.405874,0.25664 l 6.42685,-0.44633 c 1.216192,-0.0893 2.153441,0.12274 2.834062,0.6137 0.680621,0.49096 1.048826,1.24972 1.115773,2.26512 0.04463,0.63602 -0.0781,1.16046 -0.34589,1.58447 -0.278943,0.42401 -0.647148,0.65833 -1.115772,0.69181 -0.211997,0.0112 -0.390521,-0.0446 -0.546729,-0.18969 -0.14505,-0.1339 -0.223154,-0.32359 -0.24547,-0.55791 -0.01116,-0.22317 0.03347,-0.42402 0.145051,-0.60255 0.111577,-0.17853 0.301258,-0.32359 0.546728,-0.45748 0.02232,-0.0112 0.06695,-0.0335 0.111577,-0.0558 0.49094,-0.24548 0.725253,-0.51327 0.714095,-0.80339 -0.02232,-0.2678 -0.122735,-0.45748 -0.301259,-0.58023 -0.178523,-0.12274 -0.446309,-0.16737 -0.803356,-0.14505 l -8.412925,0.59138 c -0.714095,0.0446 -1.171562,0.20085 -1.383558,0.46865 -0.211997,0.25664 -0.290101,0.7476 -0.24547,1.46173 l -0.368205,0.0223 z m 13.779792,13.0886 -0.357047,0.0558 c -0.122735,-0.69181 -0.312417,-1.13814 -0.557887,-1.33899 -0.24547,-0.20085 -0.680621,-0.25664 -1.305454,-0.15621 L 26.7897,144.0973 c -0.613675,0.10043 -1.004195,0.27896 -1.182719,0.55792 -0.178523,0.27895 -0.223154,0.75876 -0.133893,1.43941 l -0.357047,0.0558 -0.859145,-5.40058 0.357048,-0.0446 c 0.14505,0.70297 0.334731,1.1493 0.580201,1.33899 0.24547,0.20085 0.680622,0.24548 1.283139,0.14506 l 7.966616,-1.26088 c 0.613675,-0.10042 1.015353,-0.27896 1.182719,-0.54675 0.178524,-0.2678 0.223155,-0.7476 0.133893,-1.43941 l 0.357047,-0.0669 z m 3.68205,12.70921 -0.357048,0.0893 c -0.211996,-0.66949 -0.446309,-1.09351 -0.714094,-1.26088 -0.267786,-0.16737 -0.702937,-0.16737 -1.305454,0.0112 l -7.765777,2.22048 c -0.602518,0.16738 -0.970723,0.4017 -1.104615,0.68066 -0.133893,0.27895 -0.122735,0.76991 0.04463,1.47288 l -0.34589,0.10043 -2.834062,-9.87503 2.510488,-0.89266 0.10042,0.3459 c -0.702937,0.33475 -1.138088,0.69181 -1.305454,1.09351 -0.167366,0.4017 -0.133893,1.00424 0.100419,1.82995 l 0.83683,2.92345 c 0.100419,0.35707 0.211996,0.56907 0.323574,0.64718 0.111577,0.0781 0.357047,0.0669 0.725252,-0.0446 l 3.101848,-0.89266 c 0.234312,-0.0669 0.379362,-0.14506 0.435151,-0.22316 0.04463,-0.0781 0.03347,-0.24549 -0.03347,-0.49097 l -0.658306,-2.29859 c -0.256628,-0.90382 -0.546729,-1.46173 -0.847987,-1.66258 -0.301259,-0.212 -0.769883,-0.24548 -1.417031,-0.0893 l -0.10042,-0.34591 3.972151,-1.13814 0.100419,0.34591 c -0.647148,0.23432 -1.048826,0.52444 -1.205034,0.85918 -0.156208,0.33475 -0.10042,0.94845 0.156208,1.85227 l 0.669463,2.32091 c 0.06695,0.22316 0.133893,0.35706 0.223155,0.40169 0.0781,0.0558 0.24547,0.0446 0.49094,-0.0335 l 3.458895,-0.99308 c 0.423994,-0.12274 0.680621,-0.25664 0.781041,-0.4017 0.100419,-0.14505 0.100419,-0.39054 0,-0.71412 l -0.769883,-2.70029 c -0.312417,-1.09351 -0.691779,-1.84111 -1.149246,-2.23165 -0.457467,-0.39054 -1.171561,-0.64718 -2.175757,-0.75876 l 0.06695,-0.35706 3.09069,0.0893 z m 5.266446,11.62687 -0.334732,0.14506 c -0.301258,-0.63602 -0.591359,-1.02656 -0.88146,-1.1493 -0.290101,-0.12274 -0.725252,-0.0669 -1.283138,0.18969 l -7.386415,3.29168 c -0.569044,0.25664 -0.914934,0.53559 -1.004195,0.83687 -0.08926,0.30127 -0.01116,0.78107 0.24547,1.43941 l -0.323574,0.14505 -2.343123,-5.26668 c -0.569044,-1.29435 -0.792198,-2.39902 -0.63599,-3.31399 0.156208,-0.91498 0.647148,-1.57331 1.495135,-1.94153 0.580202,-0.25664 1.171561,-0.29012 1.762921,-0.11158 0.602517,0.17853 1.160403,0.58022 1.673659,1.19393 -0.223155,-0.95961 -0.200839,-1.763 0.05579,-2.42134 0.256628,-0.65833 0.73641,-1.13814 1.450505,-1.45057 1.071141,-0.4798 2.030706,-0.43517 2.901008,0.1339 0.870303,0.55791 1.662502,1.67373 2.398911,3.32515 z m -2.923324,-2.7226 c 0.312416,-0.1339 0.49094,-0.30128 0.535571,-0.49097 0.04463,-0.18969 -0.05579,-0.56907 -0.312416,-1.14929 l -0.156209,-0.34591 c -0.423993,-0.9596 -0.959564,-1.59562 -1.606712,-1.91921 -0.635991,-0.31243 -1.350085,-0.30127 -2.131126,0.0446 -0.803356,0.35706 -1.283138,0.89266 -1.439347,1.61794 -0.156208,0.72529 0.01116,1.64026 0.502098,2.73377 l 0.278943,0.6137 c 0.133893,0.31243 0.256628,0.49096 0.357048,0.52444 0.100419,0.0446 0.267785,0.0112 0.524413,-0.10043 z m -5.232973,2.33207 c 0.312416,-0.14506 0.490939,-0.25664 0.53557,-0.33475 0.04463,-0.0893 0,-0.2678 -0.122735,-0.54675 l -0.111577,-0.25664 c -0.535571,-1.19393 -1.093457,-1.97501 -1.673659,-2.34323 -0.580202,-0.36822 -1.271981,-0.36822 -2.064179,-0.0223 -0.758725,0.33475 -1.216192,0.82571 -1.361243,1.43941 -0.14505,0.62486 0.02232,1.45057 0.479783,2.48829 0.267785,0.59138 0.468624,0.92613 0.624832,1.00424 0.156208,0.0781 0.423994,0.0335 0.792199,-0.1339 z m 96.949477,39.5559 v -3.23589 c 0,-0.70296 0.0558,-1.23856 0.15621,-1.59562 0.10042,-0.35707 0.26779,-0.69181 0.49094,-1.00424 0.35705,-0.46865 0.80336,-0.83687 1.32777,-1.09351 0.52441,-0.25664 1.09346,-0.37938 1.71829,-0.37938 1.14925,0 2.04186,0.35707 2.71133,1.06003 0.6583,0.71413 0.99304,1.69605 0.99304,2.94577 v 3.34747 c 0,0.59139 -0.0446,1.08235 -0.14505,1.46173 -0.10042,0.39054 -0.24547,0.72528 -0.45747,1.02656 -0.34589,0.49096 -0.7922,0.85918 -1.32777,1.12698 -0.53557,0.26779 -1.12693,0.40169 -1.77408,0.40169 -0.62483,0 -1.19388,-0.12274 -1.71829,-0.37938 -0.52441,-0.25664 -0.97072,-0.62486 -1.35008,-1.0935 -0.22316,-0.27896 -0.37937,-0.62486 -0.47979,-1.02656 -0.0893,-0.4017 -0.14505,-0.92613 -0.14505,-1.56215 z m 1.05999,0.23432 c 0,0.90382 0.23431,1.60679 0.70293,2.12006 0.46863,0.50212 1.10462,0.75876 1.93029,0.75876 0.82567,0 1.46166,-0.25664 1.93029,-0.7476 0.45746,-0.50212 0.69178,-1.19393 0.69178,-2.09774 v -3.77148 c 0,-0.89266 -0.23432,-1.58447 -0.70294,-2.08659 -0.46862,-0.50212 -1.10461,-0.7476 -1.93029,-0.7476 -0.82567,0 -1.47282,0.25664 -1.93028,0.75876 -0.46863,0.51328 -0.70294,1.21624 -0.70294,2.13122 v 3.68221 z m -6.59422,-7.31979 h 1.33893 l -2.54396,3.95001 c 0.23431,-0.0558 0.44631,-0.0893 0.64715,-0.12274 0.18968,-0.0335 0.3682,-0.0446 0.52441,-0.0446 0.99304,0 1.80755,0.34591 2.4547,1.03772 0.64715,0.69181 0.97072,1.56215 0.97072,2.59987 0,1.07119 -0.35705,1.96384 -1.05998,2.66681 -0.70294,0.70297 -1.59556,1.06003 -2.67786,1.06003 -1.05998,0 -1.94144,-0.3459 -2.63322,-1.03771 -0.70294,-0.69181 -1.04883,-1.551 -1.04883,-2.56639 0,-0.87035 0.44631,-1.99733 1.35009,-3.3921 0.0893,-0.1339 0.15621,-0.23433 0.20084,-0.31243 z m -0.25663,4.74224 c -0.74756,0 -1.3724,0.25664 -1.88565,0.78108 -0.5021,0.52443 -0.75873,1.16045 -0.75873,1.91921 0,0.76992 0.25663,1.4171 0.78104,1.95269 0.52442,0.5356 1.14925,0.80339 1.88566,0.80339 0.71409,0 1.31661,-0.25664 1.79639,-0.76991 0.47979,-0.51328 0.72526,-1.17162 0.72526,-1.96385 0,-0.79224 -0.23432,-1.43941 -0.7141,-1.95269 -0.49094,-0.51328 -1.09346,-0.76992 -1.82987,-0.76992 z m -9.91921,6.19282 h -1.33893 l 2.54396,-3.96117 c -0.23431,0.0558 -0.44631,0.0893 -0.64715,0.12274 -0.18968,0.0335 -0.3682,0.0446 -0.53557,0.0446 -0.99304,0 -1.80755,-0.3459 -2.4547,-1.03771 -0.64715,-0.69181 -0.97072,-1.56216 -0.97072,-2.59987 0,-1.07119 0.34589,-1.96385 1.04883,-2.66682 0.70293,-0.70296 1.58439,-1.06003 2.66669,-1.06003 1.05999,0 1.94145,0.34591 2.64438,1.03772 0.70294,0.69181 1.05999,1.53983 1.05999,2.55523 0,0.8815 -0.44631,2.00848 -1.35009,3.3921 -0.0893,0.1339 -0.14505,0.23432 -0.18968,0.31243 z m 0.25662,-4.75341 c 0.74757,0 1.3724,-0.25664 1.88566,-0.78107 0.5021,-0.52444 0.75872,-1.16046 0.75872,-1.91922 0,-0.76991 -0.25662,-1.41709 -0.78104,-1.94153 -0.51325,-0.52443 -1.14924,-0.79223 -1.88565,-0.79223 -0.7141,0 -1.31661,0.25664 -1.7964,0.76992 -0.47978,0.51327 -0.72525,1.16045 -0.72525,1.95268 0,0.79224 0.23431,1.43942 0.7141,1.95269 0.49094,0.50212 1.09345,0.75876 1.82986,0.75876 z m -8.75881,4.75341 h -1.13809 v -9.98661 h -1.90797 v -0.93729 h 3.04606 z M 204.39838,45.603661 C 184.08016,25.284536 156.00732,12.720375 125,12.720375 c -31.007316,0 -59.080155,12.564161 -79.398374,32.883286 -20.318219,20.319126 -32.881818,48.393218 -32.881818,79.401919 0,31.00871 12.563599,59.0828 32.881818,79.40193 20.318219,20.31912 48.391058,32.88328 79.398374,32.88328 31.00732,0 59.08016,-12.56416 79.39838,-32.88328 20.31822,-20.31913 32.88182,-48.39322 32.88182,-79.40193 0,-31.008701 -12.5636,-59.082793 -32.88182,-79.401919 z M 125,8.0450795 c 32.29046,0 61.53486,13.0885965 82.70107,34.2557475 21.16621,21.167151 34.25422,50.401698 34.25422,82.704753 0,32.2919 -13.08801,61.53761 -34.25422,82.70476 -21.16621,21.16715 -50.39945,34.25575 -82.70107,34.25575 -32.290455,0 -61.534855,-13.0886 -82.701061,-34.25575 C 21.132733,186.54319 8.0447204,157.30864 8.0447204,125.00558 8.0447204,92.713683 21.132733,63.467978 42.298939,42.300827 63.465145,21.133676 92.709545,8.0450795 125,8.0450795 Z M 77.37883,84.75787 157.93761,84.601654 c 12.34045,0.312431 17.99741,10.321358 16.6808,19.303726 -0.92609,6.28208 -6.43801,11.30328 -8.71418,11.83888 6.23717,1.81879 11.00152,6.97389 11.92761,13.13323 2.14228,14.19326 -10.76721,19.37067 -15.26377,19.22562 l -85.445868,0.0112 0.178524,-8.815 62.438634,0.0558 c 12.65286,-1.20509 10.3209,-15.85584 0,-16.17943 l -62.315899,0.15622 -0.04463,-8.32404 61.691069,0.22317 c 7.67651,-0.75876 11.89413,-9.98661 9.38364,-15.800046 l -48.536103,0.03348 v -3.313993 l 46.427293,0.100424 c -2.11996,-2.488284 -6.78389,-3.827271 -10.83415,-3.738005 l -58.209853,0.03348 z m 22.66134,48.73912 h 26.81202 l 0.0669,-4.20665 h -26.81201 z m 0,-24.34724 h 26.80086 l 0.0669,-4.20665 h -26.81202 z m 65.61859,64.39411 c -0.25663,-0.70297 -1.38356,-0.8815 -2.07534,-0.43517 -1.04883,0.66949 -1.52861,1.96384 -2.6667,2.58871 -0.30125,0.16737 -0.59136,0.71412 -1.07114,0.43517 -0.40168,-0.32359 -0.0781,-1.11583 -0.0781,-1.67374 0.0112,-1.35014 0.26778,-2.54407 0,-3.90538 -0.22316,-1.11582 -3.26922,-3.03503 -4.41846,-3.22472 -0.10042,0.0558 -0.212,0.11158 -0.32357,0.15621 -1.20504,2.06427 0.25662,2.85651 0.8703,4.29592 0.39052,0.91497 0.97072,6.05891 0.51325,6.96273 -0.31241,0.63602 -2.05302,1.43941 -2.71132,1.87458 -1.53977,1.02656 -3.1688,2.10891 -4.93172,2.86767 -0.72525,0.29011 -1.46166,0.58022 -2.18691,0.8815 -0.54673,0.14505 -0.92609,-0.0558 -1.31662,0.20084 -0.51325,2.47713 0.61368,3.47021 2.99028,2.66682 1.48397,-0.50212 2.67785,-1.70721 3.70436,-2.71145 0.88146,-0.85918 2.56628,-2.09775 3.65973,-2.71145 0.0893,0.0112 0.18969,0.0223 0.27895,0.0446 0.44631,0.72529 -0.14505,1.86343 -0.47978,2.54408 -0.97073,1.99732 -2.51049,3.57063 -4.69741,4.29592 -1.07114,0.35706 -2.68901,-0.0669 -3.14648,0.9596 0.0446,0.0893 0.0781,0.18969 0.12274,0.27896 0.93725,0.23432 2.37659,0.11158 3.34732,-0.0446 0.27894,0.0223 0.55788,0.0558 0.83683,0.0781 2.95679,-0.65833 4.32919,-1.6291 5.73507,-3.86074 0.31241,-0.49096 0.80335,-1.07119 0.95956,-1.67374 0.34589,-1.41709 0.46863,-2.71144 0.88146,-3.98348 0.14505,-0.44633 -0.0335,-1.03772 0.20084,-1.35015 0.44631,-0.60254 1.28314,-1.03771 1.98608,-1.39477 0.39052,-0.32359 0.76988,-0.63602 1.14924,-0.95961 0.56905,-0.41286 1.18272,-0.70297 1.70713,-1.11582 0.47979,-0.34591 1.53977,-1.06004 1.16041,-2.08659 z m -30.72838,5.30015 c -0.16737,-0.0781 -0.20084,-0.0669 -0.27894,-0.23432 -0.34589,-1.23856 1.67366,-2.48828 2.51049,-2.74492 0.47978,-0.14506 0.61367,0.14506 1.14924,-0.20085 0.26779,0.0112 0.30126,0.0223 0.35705,0.23432 0.13389,0.55791 -3.11301,2.66682 -3.73784,2.94577 z m 0.63599,-5.53447 c -0.0558,0.0781 -0.0446,0.0669 -0.12273,0.12274 -0.0781,-0.0558 -0.0669,-0.0335 -0.12274,-0.12274 -0.0223,-0.14506 -0.0558,-0.29012 -0.0781,-0.43518 l 0.12273,-0.15621 c 0.0781,0.0112 0.15621,0.0223 0.23431,0.0446 0.0446,0.17853 0.0558,0.4017 -0.0335,0.54676 z m -0.24547,-2.23165 c 0.16737,-0.35706 0.63599,-0.50212 0.95957,-0.71413 h 0.12273 c 0.2901,0.50212 -0.24547,1.03772 -0.60252,1.27204 h -0.40167 c -0.11158,-0.16737 -0.17853,-0.3459 -0.0781,-0.55791 z m 0.32357,20.46418 c -0.30125,0.31243 -0.71409,0.37938 -1.35008,0.35707 -0.0893,-0.12274 -0.18968,-0.23433 -0.27894,-0.35707 0.10042,-0.68065 0.64715,-0.89265 1.07114,-1.23856 h 0.27894 c 0.0223,0.0112 0.0558,0.0223 0.0781,0.0446 0.17852,0.29012 0.21199,0.6695 0.20083,1.19393 z m 4.69741,-24.48114 h 0.12273 c 0.32358,0.72528 -1.19387,1.77416 -1.55092,2.23164 h -0.23431 c -0.81452,-1.31667 1.02651,-1.77415 1.6625,-2.23164 z m 7.31947,2.7784 c -0.51326,-0.91498 -1.52861,-0.85919 -2.51049,-0.47981 -0.63599,0.24548 -1.01536,0.70297 -1.51745,1.03772 -1.07114,0.70297 -2.22039,1.27204 -3.30269,1.90806 -0.41284,0.24548 -1.99723,1.30551 -2.23155,0.88149 -0.21199,-0.52443 0.0893,-1.78531 0.40168,-1.98616 0.41284,-0.12274 0.82567,-0.23432 1.23851,-0.35706 1.5844,-0.65834 4.17299,-2.38786 4.77551,-3.98349 -0.27895,-0.76992 -1.65135,-1.84111 -2.78943,-1.6291 -0.91494,0.16737 -1.64019,0.82571 -2.30965,1.27204 -0.82568,-0.12274 -0.0112,-2.13122 -1.82987,-2.15354 -0.69178,0.70297 -0.73641,1.52868 -0.63599,2.71145 0.0223,0.22316 0.0558,0.44633 0.0781,0.68065 -0.15621,0.64718 -1.04882,1.35015 -1.47282,1.79648 -0.0893,-0.0112 -0.18968,-0.0223 -0.27894,-0.0446 -0.54673,-1.24972 -0.53557,-2.95693 -2.34312,-2.34322 -0.26779,0.46864 0.15621,0.85918 0,1.51751 -0.14505,0.39054 -0.2901,0.76992 -0.43515,1.1493 -0.10042,0.42401 0.0446,0.92613 -0.15621,1.23856 -0.68062,1.02656 -2.6667,0.94845 -3.70437,1.6291 -0.27894,1.07119 1.51745,2.23165 2.71133,2.0308 0.55789,-0.0893 0.73641,-0.40169 1.23851,-0.51328 0.45746,0.33475 0.91493,1.10467 1.82987,0.91498 0.39052,-0.0781 0.55788,-0.32359 1.03766,-0.35707 h 0.0446 c 0.0781,0.12274 0.15621,0.21201 0.0781,0.4017 -0.31242,0.5356 -2.94564,1.61794 -3.65974,2.0308 -1.60671,0.91497 -3.34731,1.79647 -4.89824,2.78955 -0.95956,0.61371 -1.84102,1.50636 -2.8229,2.10891 -0.82567,0.50212 -3.70437,1.70721 -3.38079,2.9904 0.0669,0.11158 0.13389,0.21201 0.20084,0.32359 0.62483,0.14506 1.0823,-0.0112 1.67366,-0.12274 0.72525,-0.12274 1.46166,-0.23432 2.18691,-0.35706 1.50629,-0.59139 2.33196,-1.96385 3.54816,-2.82303 0.60251,-0.43518 1.17156,-0.76992 1.79639,-1.19393 0.61368,-0.41286 1.14925,-1.27204 2.07534,-1.31667 l 0.12273,0.12274 c -0.2901,1.03771 -0.7922,1.57331 0,2.5887 1.2943,0.2678 1.47282,-1.14929 2.18692,-1.7072 0.49094,-0.37938 0.9484,-0.68066 1.55092,-0.95961 0.24547,-0.11158 0.40168,-0.27896 0.75873,-0.20085 0.0669,0.0446 0.13389,0.0781 0.20083,0.12274 -0.0893,0.33475 -0.51325,0.32359 -0.79219,0.43517 -0.212,1.16046 -0.52442,1.67373 -1.42819,2.07543 -0.43515,0.18969 -0.74757,0.18969 -0.95957,0.59139 l -0.0446,0.23432 c 0.68062,0.71413 0.93725,0.22316 1.62903,0.63602 0.12273,0.0669 0.13389,0.11158 0.20084,0.23432 -0.0223,0.12274 -0.0558,0.23432 -0.0781,0.35706 -0.17852,0.24549 -0.99303,0.27896 -1.27198,0.4017 -0.40167,1.13814 0.87031,1.12698 1.23851,1.82995 0.0112,0.0893 0.0223,0.18969 0.0446,0.27895 -0.23431,0.23433 -1.0823,0.54676 -1.19387,0.83687 -0.30126,0.76992 1.50629,1.39478 0.63599,2.35439 -0.24547,0.26779 -3.22459,1.24972 -3.78247,1.35014 -0.39052,0.0781 -0.70294,-0.212 -1.03767,0 -1.59556,0.99308 1.0823,2.97925 2.0307,3.06851 0.64715,-0.6137 0.39053,-1.64026 1.14925,-2.06427 0.80336,0.0781 1.93029,0.72529 2.51049,1.1493 0.212,0.23432 0.42399,0.4798 0.63599,0.71413 1.86334,0.36822 0.75872,-1.38362 1.19388,-2.26512 0.25662,-0.5356 2.901,-1.65142 3.65973,-1.82995 0.7922,-1.32783 -0.8703,-2.59987 -1.70713,-2.9123 -0.97072,0.4798 -0.60252,2.46597 -1.62903,2.9904 -0.0893,0.0112 -0.18968,0.0223 -0.27894,0.0446 l -0.12274,-0.12274 c -0.24547,-1.78532 0.39052,-3.34747 0.91494,-4.61951 0.26778,-0.64717 1.05998,-1.60678 0.91493,-2.54407 -0.0781,-0.4017 -0.15621,-0.79224 -0.23431,-1.19393 -0.16737,-0.24548 -0.54673,-0.18969 -0.7922,-0.35707 -0.22316,-0.37938 -0.44631,-0.76991 -0.68062,-1.14929 v -0.0446 c 0.22315,-0.0335 0.2901,0.067 0.51325,0.12274 0.0781,-0.0669 0.15621,-0.13389 0.23431,-0.20084 0.0893,-0.55791 -0.24547,-0.98193 0.0446,-1.42826 0.13389,-0.22316 0.39052,-0.27895 0.60251,-0.43517 0.89262,-0.65833 2.52165,-1.60678 3.02375,-2.5887 -0.0335,-0.8034 -1.36125,-1.74069 -2.38776,-1.23857 -0.31241,0.15622 -0.39052,0.4017 -0.83683,0.55791 h -0.12273 l 0.0446,-0.20084 c 0.90378,-0.56907 1.91913,-1.39478 3.02374,-1.70721 0.27895,0.0446 0.55789,0.0781 0.83683,0.12274 0.51326,-0.23432 1.03767,-0.47981 1.55093,-0.71413 0.83683,-0.25664 1.21619,0.10043 1.98607,-0.40169 0.43515,-0.35707 1.8745,-1.07119 1.30546,-2.08659 z m 25.43961,13.02164 c -0.23431,0.15622 -0.47978,0.32359 -0.71409,0.47981 -0.0669,0.33475 -0.1339,0.65833 -0.20084,0.99308 -0.32358,0.7476 -1.2943,1.87458 -0.99304,2.86766 0.22315,0.47981 1.40587,1.40594 2.15344,1.19393 1.38356,-0.59138 2.19807,-5.59027 -0.24547,-5.53448 z m 12.42971,-8.7592 c -0.13389,-0.0781 -0.26779,-0.15622 -0.40168,-0.23432 -0.20084,-0.7476 0.0781,-1.36131 0.55789,-1.67374 h 0.20084 c 0.43515,0.64718 0.25662,1.67374 -0.35705,1.90806 z m 5.05445,-0.35706 c -0.70294,0.37938 -0.60252,1.38362 -1.75177,1.42825 -0.0223,-0.0112 -0.0558,-0.0223 -0.0781,-0.0446 -0.23431,-1.08235 0.90378,-2.01964 1.39472,-2.71145 0.1562,-0.30127 0.32357,-0.61371 0.47978,-0.91498 0.14505,-0.12274 0.2901,-0.23432 0.43515,-0.35706 0.0446,-0.16737 0.0781,-0.34591 0.12274,-0.51328 0.4463,-0.71412 1.30545,-1.47288 1.55092,-2.35438 0.212,-0.76992 -0.12274,-1.27204 -0.23431,-1.82995 -0.74757,-0.44633 -1.75177,-0.24548 -2.6667,-0.0781 -0.14505,0.35706 -0.2901,0.71413 -0.43515,1.07119 0.15621,0.2678 0.32357,0.53559 0.47978,0.79223 0.14505,0.58023 -0.33473,1.0154 -0.47978,1.35015 -0.55789,1.26088 -1.09346,2.43249 -1.7964,3.50368 -0.0446,0.0223 -0.0781,0.0558 -0.12273,0.0781 -0.18968,-0.59139 -0.0669,-1.23856 0.0335,-1.82995 -0.23431,-0.44633 -1.13808,-0.58023 -1.19387,-0.83687 0.0558,-0.16737 0.10042,-0.3459 0.1562,-0.51328 0.24547,-1.03771 -0.17852,-1.59562 -1.07114,-1.79647 -0.0893,-0.1339 -0.12273,-0.18969 -0.12273,-0.43517 1.04882,-1.02656 1.33893,-2.20933 0.0781,-3.22473 -0.44631,-0.35706 -0.81451,-0.70297 -1.67366,-0.68065 -0.22315,0.1339 -0.43515,0.15622 -0.55788,0.4017 -0.24547,0.65833 0.50209,0.92613 0.35704,1.51752 -0.0781,0.29011 -0.8703,1.96384 -1.07114,2.23164 -0.44631,0.58023 -1.79639,0.41285 -2.35428,1.11582 -0.0112,0.067 -0.0223,0.1339 -0.0446,0.20085 0.2901,0.41286 0.97072,0.36822 1.19388,0.79223 v 0.12275 c -0.22316,0.56906 -0.80336,0.90381 -1.14925,1.35014 v 0.4017 c 0.0112,0.0446 0.0223,0.0781 0.0446,0.12274 0.12274,0.0112 0.23432,0.0223 0.35705,0.0446 0.41284,-0.25664 0.82567,-0.50212 1.23851,-0.75876 0.35705,-0.10042 0.71409,-0.21201 1.07114,-0.32359 0.26779,-0.18969 0.212,-0.46864 0.63599,-0.55791 h 0.0446 c 0.27894,0.6137 -0.49094,1.86342 -0.7922,2.26512 -0.5802,0.11158 -1.32777,-0.0112 -1.79639,0.20085 -0.0781,0.31243 -0.17853,0.62486 -0.12274,0.95961 0.33474,0.17853 0.74757,0.24548 0.91494,0.60254 0.27894,0.91497 -1.31661,2.36554 -1.42819,3.22473 0.0558,0.0223 0.10042,0.0558 0.15621,0.0781 0.78104,0.30128 2.84522,-1.61794 3.17995,-2.06427 1.24966,0.0223 1.40587,0.067 2.15344,-0.4798 h 0.20084 c 0.25663,0.23432 0.66946,0.6137 0.51325,1.11582 -0.30125,0.63602 -1.26082,0.76992 -1.90797,1.07119 -1.13809,0.52444 -4.51888,2.95693 -5.93591,2.58871 -0.16736,-0.33475 -0.0781,-0.95961 -0.20084,-1.35015 -0.41283,-1.35014 -1.59555,-3.53715 -3.22458,-3.54831 -0.54673,0.54675 0.212,1.19393 0.35705,1.79647 0.55788,2.35439 -0.17853,2.67798 2.26502,3.42558 0.0893,0.17853 0.0669,0.27895 0,0.4798 -0.23432,0.14506 -0.63599,0.24548 -0.7922,0.4798 -0.0112,0.0781 -0.0223,0.15622 -0.0446,0.23433 0.34589,0.3459 2.75595,0.66949 3.30268,0.27895 1.51745,-1.08234 2.93449,-2.20933 4.57467,-3.22472 0.35705,-0.23433 0.7141,-0.47981 1.07114,-0.71413 0.17853,-0.0112 0.34589,-0.0223 0.51326,-0.0446 0.5021,-0.21201 1.46166,-1.13814 2.07534,-0.95961 l 0.1562,0.12274 c -0.23431,1.84111 -4.1953,3.8719 -5.45612,5.17742 v 0.20084 l 0.0446,0.0446 c 1.30545,-0.15622 2.42122,-0.99308 3.45889,-1.42826 0.63599,-0.13389 1.27198,-0.26779 1.90797,-0.40169 1.97492,-0.82571 3.20227,-2.43249 4.38499,-4.0616 0.212,-0.29011 0.64715,-0.39053 0.7922,-0.75875 0.51325,-1.17162 -1.90797,-2.74493 -3.19111,-2.07543 z m -1.62903,11.47065 c -0.212,-0.10042 -0.43515,-0.39054 -0.83683,-0.27896 -0.99304,0.2678 -1.80755,1.94154 -3.14648,1.59563 -0.41283,-0.81455 0.90378,-1.2832 0.63599,-2.38786 -0.2901,-1.16045 -2.19807,-1.27204 -3.50352,-1.39478 l -0.20084,0.12274 c -0.78104,2.06427 0.74756,1.57331 1.2385,2.5106 0.14506,0.41286 -0.37936,0.98193 -0.47978,1.42826 -0.0669,0.3459 -0.0112,0.73644 -0.0781,0.99308 -0.75873,0.49096 -1.61787,0.81455 -2.43239,1.31667 -0.14505,0.1339 -0.2901,0.2678 -0.43515,0.40169 -0.72525,0.33475 -1.78523,0.16738 -2.30965,0.68066 v 0.15621 c 0.69178,0.59139 2.20923,1.24972 3.62626,0.83687 0.68063,-0.33475 1.35009,-0.65834 2.03071,-0.99308 0.12274,0.0669 0.13389,0.0669 0.20084,0.20084 0.11158,0.32359 -0.12274,0.75876 -0.20084,1.03772 -0.82567,2.84535 -3.2469,0.3459 -5.21066,1.19393 l -0.0446,0.12274 c 0.10042,1.33899 3.76016,2.45481 5.33339,1.82995 1.04883,-0.41286 2.9568,-1.75184 2.5886,-3.45905 -0.14505,-0.70297 -0.53557,-1.55099 -0.68062,-2.10891 0.16736,-0.26779 0.35704,-0.43517 0.68062,-0.55791 h 0.20084 c 0.0669,0.37938 -0.24547,0.47981 -0.32358,0.83687 0.5802,0.10042 0.83683,-0.46865 1.19388,-0.71413 0.44631,-0.31243 0.91493,-0.70296 1.42819,-0.91497 0.70293,-0.29011 1.47282,-0.39054 2.0307,-0.79223 0.22316,-1.02656 -0.60251,-1.35015 -1.30545,-1.66258 z m -20.38517,0.0781 c -0.31241,-0.46865 -2.30964,-1.32783 -2.99027,-1.59563 -0.62483,-0.24548 -0.78104,-0.69181 -1.79639,-0.68065 -0.25663,0.0669 -0.5021,0.1339 -0.75873,0.20085 -0.71409,1.13814 0.49094,1.81879 0.95957,2.5106 0.41283,0.6137 0.33473,1.26088 0.68062,1.95269 0.54673,1.11582 2.42123,1.11582 3.9052,0.83686 0.56905,-0.84802 0.56905,-0.94844 0.32358,-2.03079 -0.11158,-0.45749 -0.10042,-0.85919 -0.32358,-1.19393 z m -51.32554,-7.68802 c -0.21199,0.15622 -0.42399,0.32359 -0.63599,0.47981 -0.56904,0.33474 -1.21619,0.53559 -1.75176,0.83686 -1.32777,0.55791 -2.65554,1.11582 -3.98331,1.67374 l -0.12273,-0.0446 c -0.13389,-0.32359 0.66946,-1.95269 0.88146,-2.38786 0.37936,-0.76991 0.76988,-1.53983 1.14924,-2.30975 0.7141,-1.08235 1.70714,-2.13122 2.10881,-3.50368 0.39053,-1.32783 -1.89681,-2.62218 -3.17995,-2.58871 -1.1604,0.52444 -2.62206,0.52444 -4.26225,0.51328 h -1.70713 c -0.35705,0.18969 -0.7141,0.36822 -1.07114,0.55791 -0.5802,1.00424 2.22039,3.96117 3.70436,3.6599 0.87031,-0.17853 1.27198,-1.08235 1.9526,-1.42826 l 0.23432,-0.0446 c 0.25662,0.6137 -0.32358,1.33899 -0.51326,1.79648 -0.59136,1.42825 -0.80335,2.80071 -1.11577,4.6195 -0.10042,0.58023 -0.40168,1.35015 -0.0446,1.79647 -0.11158,0.79224 -2.28734,1.27204 -2.99027,1.6291 -1.75177,0.89266 -3.537,1.78532 -5.4896,2.51061 -1.126934,0.42401 -3.347322,0.91497 -3.860577,1.82994 0.145051,1.24973 2.253861,2.90114 3.827097,1.95269 2.6667,-1.61794 5.40034,-3.13546 8.04472,-4.82035 0.70294,-0.44633 2.34313,-1.85226 3.22459,-1.87458 l 0.0446,0.0446 v 0.12274 c -0.33473,0.29012 -0.60252,0.51328 -0.88146,0.87034 0.0781,0.15622 0.0781,0.15622 0.23431,0.23433 1.21619,-0.55791 2.55512,-1.27204 3.8271,-1.75184 0.40168,-0.0669 0.7922,-0.1339 1.19388,-0.20085 1.32777,-0.45749 3.0349,-1.07119 3.78246,-2.10891 0.12274,-0.87034 -1.43934,-2.34322 -2.59975,-2.06427 z m -25.952866,-0.63602 c 0.145051,-0.68065 1.483978,-2.33207 2.075337,-2.54407 0.546729,-0.8815 -0.401678,-1.91922 -1.271981,-1.90806 -0.691779,0.33475 -0.993037,0.81455 -1.595554,1.1493 -1.22735,0.71412 -2.443542,1.41709 -3.659735,2.1089 -0.457466,0.25664 -1.718289,0.68065 -1.952602,1.07119 l -0.04463,0.23432 c 1.394715,0.87035 2.25386,-0.66949 3.62626,-0.60254 0.278944,0.43517 -0.01116,1.00424 -0.357047,1.27204 -1.216192,0.94845 -2.265018,1.80763 -3.146479,3.10198 h -0.0781 c -0.223154,-0.3459 -0.446309,-0.69181 -0.680621,-1.03771 -0.323574,-0.4017 -0.702937,-0.55791 -0.959564,-1.07119 -0.792199,-0.0223 -1.528609,0 -1.796394,0.51328 0.100419,0.97076 0.792198,1.78531 1.037668,2.66681 0.0781,0.34591 0.156208,0.69181 0.234313,1.03772 0.435151,0.21201 0.88146,0.42401 1.316611,0.63602 0.914934,-0.0446 0.948407,-0.59139 1.316612,-1.19393 0.24547,-0.32359 0.825672,-0.0558 1.238507,-0.23432 0.468625,-0.33475 0.926092,-0.65834 1.394716,-0.99309 0.546729,-0.23432 1.093457,-0.4798 1.629028,-0.71412 0.647148,-0.47981 1.383558,-1.58447 1.673659,-2.38786 0.145051,-0.39054 -0.100419,-0.64718 0,-1.10467 z m 4.262251,-9.39522 c -1.774078,-0.73644 -2.912166,1.03771 -3.8271,0.63602 -0.423993,-0.22317 -0.468624,-0.81455 -0.993037,-0.99309 l -2.030706,-0.12274 c -0.513256,-0.12274 -1.093457,-0.27895 -1.751763,-0.27895 -0.278943,0.18969 -0.479783,0.27895 -0.635991,0.59138 0.167366,1.74069 1.428189,1.69605 1.986076,2.78956 0.01116,0.0781 0.02231,0.15622 0.04463,0.23432 -0.435151,0.43517 -1.02651,0.68066 -1.550923,1.03772 -0.647149,0.43517 -1.271981,1.08235 -1.952602,1.47288 -0.73641,0.43517 -1.684817,0.60255 -2.030707,1.39478 -0.01116,0.11158 -0.02231,0.21201 -0.04463,0.32359 0.278944,0.21201 0.580202,0.43517 0.993038,0.51328 0.423994,0.0893 3.079532,-0.62486 3.458895,-0.79224 0.569044,-0.24548 0.948407,-0.93729 1.394716,-1.31667 0.859145,-0.73644 1.740605,-1.12698 2.822905,-1.67373 0.870302,-0.44633 1.3724,-1.2832 2.510488,-1.55099 l 1.071142,0.20085 c 0.345889,-0.32359 1.495135,-1.21625 1.193876,-1.95269 -0.111577,-0.33475 -0.334731,-0.37938 -0.658307,-0.51328 z m -38.739624,17.67462 c 0.234312,1.71837 -1.595555,3.14662 -1.115773,4.46329 0.211997,0.0223 0.423994,0.0558 0.635991,0.0781 0.502097,-0.44633 1.071141,-1.06003 1.439346,-1.6291 0.189682,-0.29011 0.211997,-0.59138 0.479782,-0.79223 0.993038,-0.79224 2.186915,-1.2832 2.789432,-2.46597 0,-1.4952 -2.287334,-2.62218 -3.860573,-2.58871 -0.502098,0.14506 -1.004196,0.29012 -1.517451,0.43517 -0.993038,1.60679 0.98188,1.24972 1.149246,2.49944 z m 6.047487,-19.93974 c -1.171561,0.64718 -0.546728,1.90805 -0.278943,2.9904 -0.05579,0.63602 -0.100419,1.27204 -0.156208,1.90806 -0.435151,2.62218 -1.093457,5.85807 -0.88146,8.88195 0.01116,0.92613 0.02231,1.86342 0.04463,2.78955 0.133892,0.84803 0.423993,3.26936 0.200839,4.06159 -0.234313,0.82571 -1.160404,1.13814 -1.595555,1.75185 -0.914934,1.29435 -2.242703,2.56639 -3.548157,3.45905 -1.338927,0.92613 -2.70017,1.71836 -2.990271,3.70453 0.334732,0.50212 0.390521,0.4798 1.037669,0.71412 0.323574,0.11158 0.557886,0.47981 1.115772,0.35707 1.260823,-0.27896 3.325003,-3.22473 3.983309,-4.29592 0.290101,-0.4798 0.345889,-1.16046 0.63599,-1.59563 0.323574,-0.46864 0.903776,-1.82995 1.673659,-1.6291 0.423994,0.2678 0.825672,1.52868 1.707132,1.03772 0.524413,-0.25664 0.73641,-1.71837 0.557886,-2.5106 -0.200839,-0.90382 -0.49094,-1.95269 -0.680621,-3.02388 -0.111577,-0.65834 0.189681,-1.03772 0.0781,-1.67374 -0.05579,-0.42401 -0.100419,-0.84802 -0.156208,-1.27203 0.412836,-2.32091 0.479782,-4.57488 1.149246,-6.5722 0.524413,-1.56215 1.428189,-2.93461 1.796394,-4.54139 0.133892,-0.55792 -0.211997,-0.91498 -0.323574,-1.27204 -0.435152,-1.57331 -1.383558,-3.28052 -3.369634,-3.26936 z m 30.058914,18.71234 c -0.613675,-0.82571 -0.98188,-1.88574 -2.432384,-1.87458 -0.0781,0.0669 -0.156208,0.1339 -0.234312,0.20085 -0.111578,0.45748 -0.08926,1.12698 0,1.6291 0.08926,0.51328 -0.223155,0.89266 -0.122735,1.27203 0.122735,0.18969 0.234312,0.36823 0.357047,0.55792 0.513255,0.97076 0.758725,1.58446 1.673659,2.15353 1.104615,-0.0112 2.432384,-1.04887 1.907971,-2.35438 -0.256628,-0.64718 -0.769883,-1.08235 -1.149246,-1.58447 z m -9.193966,4.26244 c -0.446309,-0.37938 1.394716,-1.50636 1.707132,-1.70721 1.193877,0.0781 -0.914934,2.05312 -1.707132,1.70721 z m 4.340355,-4.58603 c -0.14505,-0.33475 -0.457466,-0.53559 -0.959564,-0.51328 -0.156208,0.0446 -0.323574,0.0781 -0.479782,0.12274 -0.702937,0.35707 -0.479783,1.72953 -1.160404,2.07543 -0.211997,0.0446 -0.423993,0.0781 -0.63599,0.12274 -0.535571,0.25664 -1.182719,0.54676 -1.751763,0.8815 -1.372401,0.79224 -2.644381,1.85227 -3.983308,2.66682 -0.468625,0.25664 -0.926092,0.50212 -1.394716,0.75876 -0.234312,0.212 -0.479782,0.42401 -0.714095,0.63602 -0.39052,0.22316 -0.903775,0.20085 -1.193876,0.51328 -0.189682,1.56215 1.138088,3.2582 3.179952,2.43249 0.435151,-0.17853 2.410068,-2.78956 2.588592,-3.30284 0.323574,-0.17853 0.714095,-0.0558 1.193877,-0.15621 0.959564,-0.21201 1.885655,-0.44633 2.99027,-0.27896 0.781041,0.11159 1.907971,0.39054 2.231546,-0.15621 0.602517,-1.06003 -0.0781,-2.62218 -0.0781,-3.70453 0.01116,-0.65834 0.423994,-1.59563 0.167366,-2.09775 z m -16.401857,1.79648 c -0.04463,-0.12274 -0.0781,-0.23433 -0.122735,-0.35707 0.49094,-1.20509 1.361243,-2.3767 1.796394,-3.54831 0.189681,-0.51328 0.167366,-0.98193 0.435151,-1.39478 0.647148,-0.95961 2.588593,-1.1493 2.990271,-2.30975 0.200839,-0.58023 -0.02232,-1.46173 -0.401678,-1.70721 -0.234313,-0.15622 -0.624833,-0.0669 -0.758726,-0.32359 -0.267785,-0.49096 0.435152,-1.39478 0.602518,-1.70721 0.970722,-1.90805 0.200839,-5.7688 -1.952602,-5.7688 -0.502098,0.27896 -1.305454,0.84803 -1.428189,1.47289 -0.01116,0.46864 -0.02232,0.92613 -0.04463,1.39477 -0.457467,1.47289 -1.059984,3.22473 -1.629028,4.65298 -0.334732,0.83687 -0.457467,1.74069 -0.914934,2.4325 -0.468624,0.71412 -1.193877,1.24972 -1.907971,1.7072 -0.167366,0.0781 -0.345889,0.15622 -0.513255,0.23433 -0.02232,0.14505 -0.05579,0.29011 -0.0781,0.43517 0.267785,0.17853 0.602517,0.23432 1.037668,0.27895 0.34589,0.59139 -0.189681,1.24972 -0.401678,1.79648 -0.557886,1.48404 -2.644381,4.78688 -0.792199,6.13702 0.368205,0.2678 0.926092,0.4017 1.428189,0.20085 0.691779,-0.2678 1.383558,-0.5356 2.075337,-0.79224 1.316612,-0.39053 3.548157,-0.41285 3.860574,-1.75184 0.08926,-0.36822 -0.122735,-0.64717 -0.234313,-0.83686 -0.993037,-1.48405 -1.841024,-0.1339 -3.046059,-0.24548 z m 106.176916,-9.0828 c 0.0112,0.0112 0.0223,0.0223 0.0446,0.0446 0.47978,-0.0446 2.58859,-0.12274 2.8229,-0.40169 0.0893,-0.46865 0.12274,-1.09351 -0.0446,-1.51752 -0.37936,-0.97077 -2.28733,-3.22473 -3.54816,-3.26936 -0.0669,0.0558 -0.13389,0.10042 -0.20084,0.15622 -0.33473,1.32782 0.58021,2.8565 1.23851,3.62642 -0.0893,0.51328 -0.31242,0.78107 -0.31242,1.3613 z M 125,0 c 69.03286,0 125.00001,55.958493 125.00001,124.99443 0,69.03593 -55.96715,125.00558 -125.00001,125.00558 C 55.967154,250.00001 0,194.03036 0,124.99443 0,55.969652 55.967154,0 125,0 Z"
   id="path909"
   style="stroke-width:1" />





</svg>
