<?xml version="1.0" encoding="UTF-8"?>
<svg xmlns="http://www.w3.org/2000/svg" xmlns:xlink="http://www.w3.org/1999/xlink" width="252pt" height="252pt" viewBox="0 0 252 252" version="1.1">
<g id="surface1">
<path style=" stroke:none;fill-rule:nonzero;fill:rgb(60%,60%,60%);fill-opacity:1;" d="M 249.007812 126.058594 C 249.007812 193.960938 193.960938 249.007812 126.058594 249.007812 C 58.15625 249.007812 3.109375 193.960938 3.109375 126.058594 C 3.109375 58.15625 58.15625 3.109375 126.058594 3.109375 C 193.960938 3.109375 249.007812 58.15625 249.007812 126.058594 "/>
<path style="fill:none;stroke-width:1;stroke-linecap:butt;stroke-linejoin:miter;stroke:rgb(100%,100%,100%);stroke-opacity:1;stroke-miterlimit:10;" d="M -0.000904961 -0.000973711 C -0.000904961 -137.422387 -111.405298 -248.82678 -248.826711 -248.82678 C -386.248124 -248.82678 -497.652517 -137.422387 -497.652517 -0.000973711 C -497.652517 137.42044 -386.248124 248.824832 -248.826711 248.824832 C -111.405298 248.824832 -0.000904961 137.42044 -0.000904961 -0.000973711 Z M -0.000904961 -0.000973711 " transform="matrix(0.494118,0,0,-0.494118,249.00826,126.058113)"/>
<path style=" stroke:none;fill-rule:nonzero;fill:rgb(92.54902%,92.54902%,92.54902%);fill-opacity:1;" d="M 242.628906 126.058594 C 242.628906 190.4375 190.4375 242.628906 126.058594 242.628906 C 61.679688 242.628906 9.488281 190.4375 9.488281 126.058594 C 9.488281 61.679688 61.679688 9.488281 126.058594 9.488281 C 190.4375 9.488281 242.628906 61.679688 242.628906 126.058594 "/>
<path style="fill:none;stroke-width:1;stroke-linecap:butt;stroke-linejoin:miter;stroke:rgb(100%,100%,100%);stroke-opacity:1;stroke-miterlimit:10;" d="M -0.0013965 -0.000973711 C -0.0013965 -130.291621 -105.626864 -235.917088 -235.917511 -235.917088 C -366.208158 -235.917088 -471.833626 -130.291621 -471.833626 -0.000973711 C -471.833626 130.289673 -366.208158 235.915141 -235.917511 235.915141 C -105.626864 235.915141 -0.0013965 130.289673 -0.0013965 -0.000973711 Z M -0.0013965 -0.000973711 " transform="matrix(0.494118,0,0,-0.494118,242.629596,126.058113)"/>
<path style=" stroke:none;fill-rule:evenodd;fill:rgb(90.196078%,0%,7.058824%);fill-opacity:1;" d="M 165.691406 117.605469 C 161.386719 135.066406 123.835938 162.082031 78.988281 139.777344 C 97.558594 152.058594 122.019531 154.480469 147.828125 143.007812 C 158.964844 137.523438 167.945312 130.019531 173.261719 119.015625 C 184.835938 90.855469 155.09375 69.996094 130.332031 73.863281 C 122.085938 74.90625 114.148438 78.507812 106.410156 85.136719 L 105.769531 85.875 C 126.394531 55.628906 181.707031 65.453125 187.328125 102.734375 C 187.527344 62.425781 133.929688 51.1875 99.914062 77.398438 C 117.578125 48.765625 175.449219 48.394531 189.546875 80.558594 C 178.714844 44.558594 120.945312 41.933594 92.882812 70.734375 C 105.195312 44.1875 159.769531 34.230469 181.976562 57.613281 C 166.601562 31.707031 106.441406 35.542969 86.019531 65.386719 C 90.023438 47.855469 127.066406 19.425781 172.320312 40.960938 C 153.546875 29.015625 129.019531 27.03125 103.449219 38.941406 C 92.410156 44.59375 83.53125 52.265625 78.414062 63.332031 C 67.515625 91.292969 95.675781 112.253906 120.574219 108.789062 C 126.328125 108.082031 131.945312 106.097656 137.363281 102.664062 C 140.523438 100.746094 143.417969 98.460938 146.078125 95.9375 C 145.808594 96.304688 146.683594 96.507812 146.414062 96.878906 C 125.621094 126.21875 70.070312 114.878906 65.058594 77.765625 C 64.753906 118.042969 117.984375 130.660156 152.167969 105.054688 C 133.996094 133.351562 75.960938 132.308594 62.433594 99.90625 C 72.660156 136.074219 130.667969 140.148438 159.230469 111.816406 C 146.480469 138.160156 91.402344 146.742188 69.632812 122.953125 C 84.539062 149.128906 144.765625 147.113281 165.691406 117.605469 "/>
<path style=" stroke:none;fill-rule:evenodd;fill:rgb(0%,0%,0%);fill-opacity:1;" d="M 71.148438 173.902344 L 71.050781 173.914062 L 70.542969 173.867188 L 70.695312 174.917969 L 70.367188 175.644531 L 69.824219 176.328125 L 69.316406 176.550781 L 68.984375 176.582031 L 69.316406 176.042969 L 69.746094 174.773438 L 69.824219 173.945312 L 69.570312 174.011719 L 69.097656 175.613281 L 68.921875 175.867188 L 68.589844 176.121094 L 67.972656 176.40625 L 67.871094 176.375 L 67.792969 176.21875 L 67.71875 175.867188 L 67.71875 175.3125 L 67.871094 173.007812 L 67.617188 171.847656 L 67.285156 170.46875 L 67.363281 169.898438 L 67.539062 169.277344 L 67.972656 168.40625 L 68.269531 167.546875 L 68.300781 166.929688 L 68.191406 166.277344 L 68.015625 165.878906 L 67.71875 165.59375 L 67.03125 165.085938 L 66.207031 164.722656 L 65.511719 164.578125 L 64.828125 164.578125 L 63.921875 164.722656 L 62.9375 164.898438 L 62.253906 165.226562 L 61.667969 165.625 L 61.382812 166.242188 L 61.492188 166.816406 L 61.824219 167.257812 L 62.398438 167.65625 L 62.476562 167.4375 L 62.542969 167.039062 L 62.617188 166.707031 L 63.050781 166.675781 L 63.335938 166.75 L 63.589844 167.003906 L 64.066406 167.613281 L 64.394531 168.628906 L 64.605469 169.644531 L 64.605469 171.308594 L 64.496094 172.789062 L 63.238281 174.234375 L 62.179688 175.136719 L 61.96875 175.171875 L 61.667969 175.136719 L 61.207031 174.917969 L 60.765625 174.996094 L 60.554688 175.136719 L 60.414062 177.277344 L 60.589844 177.996094 L 60.84375 178.328125 L 61.78125 178.359375 L 62.730469 178.28125 L 62.90625 177.777344 L 62.90625 177.234375 L 63.160156 177.023438 L 63.667969 176.441406 L 64.539062 175.679688 L 64.636719 175.679688 L 64.714844 175.722656 L 64.75 176.074219 L 64.683594 176.914062 L 63.777344 179.949219 L 63.304688 181.714844 L 62.828125 183.667969 L 62.875 184.175781 L 62.984375 184.605469 L 63.335938 185.078125 L 64.394531 185.324219 L 65.144531 185.433594 L 65.222656 184.925781 L 65.300781 184.605469 L 65.445312 184.386719 L 66.273438 183.84375 L 66.8125 183.480469 L 67.144531 183.128906 L 67.90625 181.714844 L 68.226562 181.273438 L 68.589844 181.0625 L 69.097656 180.535156 L 69.539062 179.882812 L 70.222656 177.777344 L 71.148438 175.765625 Z M 71.148438 171.847656 L 71.148438 172.347656 L 70.796875 172.214844 L 70.875 171.914062 Z M 71.148438 172.347656 L 71.160156 172.355469 L 71.347656 172.246094 L 71.492188 171.847656 L 71.269531 171.816406 L 71.148438 171.847656 Z M 71.148438 175.765625 L 71.148438 173.902344 L 71.445312 173.867188 L 71.667969 173.769531 L 71.632812 173.359375 L 71.601562 173.152344 L 71.667969 173.042969 L 72.109375 172.898438 L 72.253906 172.644531 L 72.394531 172.3125 L 72.140625 172.058594 L 72.066406 171.914062 L 72.109375 171.664062 L 72.683594 170.867188 L 72.828125 171.054688 L 72.96875 171.164062 L 73.191406 171.121094 L 73.589844 170.613281 L 73.730469 170.261719 L 73.523438 169.960938 L 73.410156 169.753906 L 73.445312 169.566406 L 73.917969 169.453125 L 74.238281 169.5 L 74.460938 168.660156 L 74.238281 168.59375 L 74.0625 168.5625 L 73.917969 168.660156 L 72 170.4375 L 71.921875 170.261719 L 72 169.863281 L 72.859375 168.957031 L 73.621094 168.230469 L 73.917969 168.007812 L 74.316406 167.613281 L 74.492188 167.105469 L 74.636719 166.640625 L 75.289062 165.988281 L 75.90625 165.515625 L 76.347656 165.007812 L 77.097656 164.179688 L 77.394531 163.78125 L 77.539062 163.386719 L 77.792969 161.863281 L 77.824219 161.101562 L 77.902344 160.703125 L 78.078125 160.496094 L 78.839844 160.417969 L 79.238281 160.449219 L 79.382812 160.59375 L 79.457031 161.464844 L 79.382812 162.480469 L 78.917969 163.53125 L 78.761719 164.101562 L 78.761719 164.433594 L 79.160156 164.863281 L 79.921875 165.195312 L 80.363281 165.339844 L 80.574219 165.515625 L 80.683594 165.957031 L 80.683594 167.832031 L 79.710938 168.195312 L 78.839844 168.484375 L 78.332031 168.703125 L 77.902344 168.957031 L 77.570312 169.390625 L 77.140625 170.039062 L 76.742188 170.910156 L 76.414062 171.960938 L 76.234375 173.117188 L 76.191406 174.054688 L 76.378906 175.425781 L 76.554688 176.042969 L 76.742188 176.261719 L 77.0625 176.296875 L 77.746094 176.40625 L 78.003906 176.40625 L 78.1875 176.296875 L 78.476562 175.867188 L 78.808594 175.503906 L 79.347656 175.3125 L 80.03125 175.390625 L 81.191406 175.820312 L 81.585938 176.074219 L 81.886719 176.328125 L 81.953125 176.550781 L 81.886719 177.089844 L 81.699219 177.523438 L 81.234375 178.074219 L 80.363281 178.789062 L 79.203125 179.550781 L 77.859375 180.347656 L 76.488281 180.886719 L 75.792969 181.207031 L 75.363281 181.492188 L 75.109375 181.605469 L 74.890625 181.570312 L 74.601562 181.175781 L 74.382812 180.632812 L 74.316406 180.058594 L 74.425781 179.472656 L 74.636719 179.078125 L 74.636719 178.824219 L 74.570312 178.648438 L 74.207031 177.996094 L 74.019531 177.125 L 73.984375 175.722656 L 74.019531 174.628906 L 74.128906 173.613281 L 74.570312 171.738281 L 74.78125 170.976562 L 75 170.4375 L 75.363281 169.785156 L 75.398438 169.53125 L 75.332031 169.421875 L 74.855469 169.644531 L 74.460938 170.039062 L 73.476562 171.519531 L 72.207031 173.515625 L 71.238281 175.566406 Z M 95.148438 180.390625 L 94.664062 180.566406 L 94.300781 180.535156 L 93.726562 180.125 L 93.871094 180.675781 L 94.265625 181.527344 L 94.839844 182.289062 L 95.148438 182.542969 Z M 95.148438 166.9375 L 95.148438 168.085938 L 95.0625 168.054688 L 94.773438 167.832031 L 94.300781 167.976562 L 93.902344 168.308594 L 92.820312 169.136719 L 92.601562 169.390625 L 92.523438 169.566406 L 92.601562 169.644531 L 92.746094 169.609375 L 92.886719 169.566406 L 93.03125 169.644531 L 93.1875 169.785156 L 92.425781 170.4375 L 92.347656 170.691406 L 92.425781 170.976562 L 92.566406 171.375 L 92.886719 171.628906 L 93.25 171.664062 L 93.363281 171.265625 L 93.363281 170.757812 L 93.394531 170.613281 L 93.539062 170.46875 L 93.902344 170.214844 L 94.519531 169.960938 L 95.148438 169.753906 L 95.148438 171.507812 L 94.808594 171.5625 L 94.445312 171.707031 L 94.191406 172.058594 L 94.125 172.3125 L 94.15625 172.535156 L 94.265625 172.789062 L 94.664062 173.328125 L 94.839844 173.40625 L 95.027344 173.328125 L 95.148438 173.261719 L 95.148438 176.582031 L 95.027344 176.582031 L 94.265625 176.695312 L 93.902344 176.949219 L 93.539062 177.3125 L 93.285156 177.886719 L 92.203125 179.230469 L 92.171875 179.519531 L 92.3125 179.773438 L 92.632812 179.695312 L 92.855469 179.585938 L 92.855469 180.203125 L 92.746094 180.886719 L 92.523438 182.066406 L 92.425781 182.253906 L 92.238281 182.367188 L 91.695312 182.507812 L 91.410156 182.507812 L 91.109375 182.320312 L 90.714844 181.78125 L 90.460938 181.207031 L 90.25 180.457031 L 90.207031 180.171875 L 90.316406 179.882812 L 90.679688 179.441406 L 91.109375 179.042969 L 91.410156 178.679688 L 92.855469 176.472656 L 93.109375 175.757812 L 93.03125 174.917969 L 92.492188 173.980469 L 91.773438 173.152344 L 91.410156 172.644531 L 91.078125 172.058594 L 90.648438 171.199219 L 90.425781 171.199219 L 90.140625 171.230469 L 89.523438 171.453125 L 88.472656 171.628906 L 87.238281 171.707031 L 86.695312 171.707031 L 86.300781 171.816406 L 85.902344 172.058594 L 85.503906 172.421875 L 84.964844 172.675781 L 84.601562 172.566406 L 84.3125 172.390625 L 84.125 171.816406 L 84.125 171.339844 L 84.203125 170.976562 L 84.378906 170.660156 L 84.601562 170.4375 L 84.964844 170.261719 L 86.265625 169.644531 L 89.34375 167.65625 L 94.046875 164.722656 L 94.410156 164.753906 L 94.34375 164.898438 L 94.046875 165.050781 L 93.683594 165.480469 L 91.585938 166.785156 L 87.710938 169.3125 L 87.382812 169.675781 L 86.882812 170.261719 L 86.882812 170.46875 L 87.027344 170.546875 L 87.425781 170.546875 L 87.710938 170.515625 L 88.285156 170.402344 L 89.15625 170.214844 L 89.597656 170.039062 L 90.359375 169.566406 L 90.679688 169.167969 L 90.824219 168.914062 L 91.265625 168.769531 L 92.3125 168.152344 L 92.632812 168.230469 L 92.746094 168.40625 L 93.109375 168.085938 L 93.835938 167.46875 L 93.648438 167.402344 L 93.25 167.359375 L 93.1875 167.292969 L 93.25 167.148438 L 93.757812 166.851562 L 94.046875 166.785156 L 94.234375 166.894531 L 94.34375 167.070312 L 94.410156 167.257812 L 94.664062 167.257812 L 94.886719 167.105469 L 95.0625 166.960938 Z M 95.148438 164.257812 L 95.148438 164.433594 L 94.953125 164.433594 L 94.996094 164.324219 Z M 95.148438 164.433594 L 95.148438 164.257812 L 95.347656 164.179688 L 95.316406 164.433594 Z M 96.164062 172.554688 L 96.164062 183.09375 L 95.757812 182.90625 L 95.25 182.621094 L 95.148438 182.542969 L 95.148438 180.390625 L 95.171875 180.378906 L 95.457031 180.28125 L 95.679688 180.09375 L 95.855469 179.773438 L 95.933594 177.523438 L 95.855469 177.023438 L 95.679688 176.726562 L 95.457031 176.582031 L 95.148438 176.582031 L 95.148438 173.261719 L 95.28125 173.183594 L 95.644531 172.753906 Z M 96.164062 169.433594 L 96.164062 171.339844 L 96.078125 171.375 L 95.601562 171.453125 L 95.148438 171.507812 L 95.148438 169.753906 L 95.28125 169.710938 Z M 96.164062 166.507812 L 96.164062 166.960938 L 95.757812 167.179688 L 95.644531 167.324219 L 95.644531 167.46875 L 95.710938 167.613281 L 95.316406 168.152344 L 95.148438 168.085938 L 95.148438 166.9375 L 95.316406 166.894531 L 95.457031 166.816406 L 95.503906 166.707031 L 95.457031 166.5625 L 95.28125 166.167969 L 95.457031 166.101562 L 95.757812 166.5625 L 96.109375 166.53125 Z M 96.164062 159.921875 L 96.164062 160.617188 L 96.011719 160.273438 L 95.964844 160.054688 Z M 102.199219 176.835938 L 101.804688 176.628906 L 101.042969 176.472656 L 100.601562 176.515625 L 100.3125 176.804688 L 100.425781 177.058594 L 100.492188 177.277344 L 100.746094 177.597656 L 101.042969 177.996094 L 101.550781 178.824219 L 101.582031 179.375 L 101.582031 180.3125 L 101.695312 180.820312 L 101.871094 181.128906 L 102.125 181.460938 L 102.199219 181.550781 Z M 102.199219 168.207031 L 102.199219 169.089844 L 102.15625 169.136719 L 101.757812 169.453125 L 101.296875 169.898438 L 100.710938 170.546875 L 100.535156 171.199219 L 100.390625 171.664062 L 100.136719 171.960938 L 99.738281 172.246094 L 99.234375 172.609375 L 99.15625 173.007812 L 99.300781 173.472656 L 99.234375 173.660156 L 98.824219 174.167969 L 98.539062 174.519531 L 98.394531 174.960938 L 98.171875 175.722656 L 98.074219 176.582031 L 98.25 177.742188 L 98.394531 179.265625 L 98.425781 180.28125 L 98.472656 181.78125 L 98.394531 183.414062 L 97.851562 183.445312 L 97.125 183.371094 L 96.550781 183.269531 L 96.164062 183.09375 L 96.164062 172.554688 L 96.332031 172.5 L 98.140625 170.757812 L 98.21875 170.613281 L 98.21875 170.4375 L 98.140625 170.261719 L 97.886719 170.183594 L 97.742188 170.214844 L 97.632812 170.402344 L 97.421875 170.660156 L 96.980469 170.800781 L 96.40625 171.265625 L 96.164062 171.339844 L 96.164062 169.433594 L 96.332031 169.390625 L 97.457031 168.957031 L 98.582031 168.375 L 99.773438 167.867188 L 100.3125 167.832031 L 100.933594 167.867188 L 101.648438 167.976562 L 102.058594 168.085938 Z M 102.199219 163.574219 L 102.199219 164.324219 L 102.058594 164.324219 L 101.363281 164.5 L 100.679688 164.6875 L 100.238281 164.898438 L 99.917969 165.261719 L 99.773438 165.085938 L 99.628906 164.941406 L 99.441406 164.898438 L 99.121094 164.976562 L 98.980469 165.226562 L 98.902344 165.449219 L 98.726562 165.625 L 98.285156 165.878906 L 96.695312 166.675781 L 96.164062 166.960938 L 96.164062 166.507812 L 96.839844 166.167969 L 97.089844 165.847656 L 97.167969 165.703125 L 97.058594 165.195312 L 97.089844 165.050781 L 97.203125 165.007812 L 97.34375 165.007812 L 97.996094 165.40625 L 98.285156 165.226562 L 98.394531 164.722656 L 98.679688 164.402344 L 98.074219 163.78125 L 97.710938 163.640625 L 97.234375 163.640625 L 96.660156 163.707031 L 97.457031 163.199219 L 97.820312 162.800781 L 97.964844 162.546875 L 97.820312 162.292969 L 97.566406 162.050781 L 97.203125 161.753906 L 96.871094 161.578125 L 96.660156 161.5 L 96.550781 161.640625 L 96.40625 161.101562 L 96.164062 160.617188 L 96.164062 159.921875 L 96.1875 159.910156 L 96.871094 159.625 L 97.234375 159.625 L 97.632812 159.734375 L 98.472656 160.195312 L 98.757812 160.59375 L 98.824219 161.035156 L 98.824219 161.578125 L 99.121094 162.292969 L 99.332031 162.910156 L 99.410156 163.351562 L 99.441406 164.433594 L 100.390625 164.433594 L 100.679688 164.148438 L 101.394531 163.960938 L 102.125 163.597656 Z M 102.199219 164.324219 L 102.199219 163.574219 L 103.46875 163.132812 L 104.472656 163.054688 L 104.792969 163.199219 L 105.046875 163.417969 L 105.335938 164.148438 L 105.367188 164.402344 L 105.300781 164.433594 L 104.792969 164.246094 Z M 102.199219 169.089844 L 102.199219 168.207031 L 102.265625 168.261719 L 102.453125 168.5625 L 102.410156 168.847656 Z M 102.199219 181.550781 L 102.199219 176.835938 L 103.027344 177.277344 L 103.46875 177.632812 L 103.824219 177.960938 L 104.011719 178.171875 L 104.078125 178.824219 L 104.078125 179.1875 L 103.976562 179.519531 L 103.722656 180.09375 L 103.535156 180.632812 L 103.394531 181.417969 L 103.28125 181.78125 L 103.0625 181.925781 L 102.453125 181.746094 L 102.234375 181.605469 Z M 116.160156 173.890625 L 115.839844 174.308594 L 115.761719 174.628906 L 115.839844 174.882812 L 116.128906 175.136719 L 116.160156 175.148438 Z M 116.160156 168.902344 L 115.300781 170.359375 L 115.476562 170.4375 L 115.695312 170.074219 L 116.09375 169.421875 L 116.160156 169.332031 Z M 116.160156 162.371094 L 116.160156 164.46875 L 115.808594 164.753906 L 115.113281 165.515625 L 114.285156 166.675781 L 114.0625 166.851562 L 113.953125 167.105469 L 113.886719 167.324219 L 114.03125 167.5 L 114.207031 167.578125 L 114.503906 167.753906 L 114.425781 168.660156 L 114.140625 169.898438 L 113.777344 171.453125 L 113.554688 172.820312 L 113.523438 175.171875 L 113.488281 175.757812 L 113.554688 176.152344 L 113.667969 176.261719 L 113.777344 176.21875 L 114.207031 175.898438 L 114.25 175.566406 L 114.097656 175.25 L 114.175781 174.960938 L 114.394531 174.597656 L 114.425781 174.011719 L 114.316406 173.835938 L 114.316406 173.472656 L 114.648438 173.007812 L 114.746094 172.964844 L 114.859375 173.042969 L 114.902344 173.183594 L 114.933594 174.628906 L 114.792969 177.597656 L 114.316406 179.882812 L 114.140625 180.027344 L 113.777344 180.058594 L 113.191406 179.585938 L 112.871094 179.1875 L 112.726562 178.679688 L 112.761719 176.472656 L 112.839844 174.882812 L 112.980469 172.421875 L 113.488281 170.292969 L 113.886719 169.023438 L 113.84375 168.738281 L 113.777344 168.59375 L 113.667969 168.628906 L 113.300781 169.277344 L 113.160156 169.785156 L 112.363281 171.816406 L 112.175781 172.789062 L 111.964844 173.691406 L 111.746094 174.488281 L 111.570312 175.3125 L 111.382812 175.964844 L 110.984375 176.804688 L 110.445312 177.597656 L 110.191406 177.851562 L 110.015625 177.960938 L 109.429688 177.707031 L 109.066406 177.523438 L 108.921875 177.3125 L 108.601562 176.804688 L 108.492188 176.441406 L 108.667969 175.933594 L 109.902344 174.167969 L 110.699219 173.117188 L 111.019531 172.5 L 111.238281 171.816406 L 111.425781 170.757812 L 111.636719 169.960938 L 112 167.613281 L 112.398438 165.59375 L 112.871094 164.609375 L 113.234375 164.101562 L 113.632812 163.640625 L 114.175781 163.242188 L 114.503906 163.023438 L 115.507812 162.625 L 115.730469 162.402344 L 115.949219 162.292969 Z M 116.160156 164.46875 L 116.710938 164.035156 L 116.964844 163.707031 L 117.03125 163.453125 L 116.964844 163.242188 L 116.160156 162.371094 Z M 116.160156 175.148438 L 116.160156 173.890625 L 116.238281 173.804688 L 116.855469 173.152344 L 117.429688 172.390625 L 117.761719 171.914062 L 118.523438 170.613281 L 119.207031 169.3125 L 119.714844 167.976562 L 119.96875 167.691406 L 119.96875 167.46875 L 119.679688 167.292969 L 119.0625 167.105469 L 118.554688 167.257812 L 117.539062 167.867188 L 116.710938 168.660156 L 116.160156 169.332031 L 116.160156 168.902344 L 116.667969 168.054688 L 117.253906 167.324219 L 117.726562 166.851562 L 118.078125 166.308594 L 118.777344 165.515625 L 119.679688 164.976562 L 120.441406 164.65625 L 120.695312 164.355469 L 120.90625 163.894531 L 121.203125 161.972656 L 121.160156 161.101562 L 121.203125 160.449219 L 121.300781 160.019531 L 121.667969 159.589844 L 122.285156 159.191406 L 123.628906 159.003906 L 123.839844 159.113281 L 123.984375 159.257812 L 124.0625 159.433594 L 124.027344 159.765625 L 123.730469 160.054688 L 123.1875 160.59375 L 122.679688 161.179688 L 122.460938 162.007812 L 122.429688 162.480469 L 122.140625 162.988281 L 122.25 163.199219 L 122.363281 163.417969 L 122.617188 163.597656 L 123.265625 163.847656 L 123.585938 163.894531 L 123.664062 163.75 L 123.808594 163.75 L 124.0625 163.925781 L 124.789062 164.433594 L 124.933594 164.609375 L 125 164.753906 L 124.964844 164.898438 L 123.773438 165.703125 L 123.222656 165.988281 L 122.679688 166.386719 L 122.460938 166.640625 L 122.316406 166.894531 L 122.363281 167.292969 L 122.503906 167.402344 L 122.792969 167.359375 L 124.347656 166.609375 L 125.285156 166.453125 L 126.089844 166.496094 L 126.808594 166.5625 L 127.140625 166.675781 L 127.359375 166.929688 L 127.425781 167.578125 L 127.207031 167.976562 L 126.410156 168.449219 L 125.871094 168.769531 L 125.394531 169.101562 L 124.570312 169.820312 L 124.238281 170.183594 L 124.0625 170.515625 L 123.984375 171.164062 L 123.808594 171.519531 L 123.585938 171.914062 L 123.554688 172.136719 L 123.585938 172.246094 L 124.378906 172.246094 L 126.015625 172.167969 L 126.125 172.3125 L 126.15625 172.535156 L 126.089844 173.007812 L 125.835938 173.660156 L 125.394531 173.980469 L 124.535156 174.5625 L 124.027344 174.960938 L 123.554688 175.503906 L 123.1875 175.933594 L 123.011719 176.296875 L 122.792969 177.203125 L 122.570312 181.859375 L 122.429688 185.941406 L 122.503906 186.59375 L 122.714844 187.464844 L 123.011719 188.179688 L 123.125 189.164062 L 123.011719 190.035156 L 122.648438 190.640625 L 122.109375 191.007812 L 121.777344 191.082031 L 121.523438 190.863281 L 121.203125 189.78125 L 120.980469 188.621094 L 121.09375 180.378906 L 121.269531 177.488281 L 121.269531 177.125 L 121.160156 176.980469 L 120.839844 177.023438 L 119.824219 177.597656 L 119.316406 177.777344 L 118.953125 177.742188 L 118.300781 177.167969 L 118.078125 176.835938 L 118.046875 176.472656 L 118.300781 175.679688 L 118.730469 175.136719 L 119.679688 174.054688 L 120.585938 172.929688 L 121.058594 172.246094 L 121.269531 171.882812 L 121.234375 171.664062 L 121.058594 171.59375 L 120.949219 171.664062 L 120.617188 172.136719 L 119.492188 173.472656 L 118.378906 174.628906 L 117.761719 175.171875 L 117.320312 175.359375 L 116.746094 175.3125 Z M 141.75 182.167969 L 141.519531 182.113281 L 141.75 182.554688 Z M 141.75 160.945312 L 141.75 166.367188 L 141.21875 166.785156 L 140.789062 167.359375 L 140.679688 167.65625 L 140.789062 167.832031 L 141.21875 167.832031 L 141.519531 167.753906 L 141.75 167.601562 L 141.75 174.664062 L 141.585938 174.882812 L 141.550781 175.027344 L 141.75 175.050781 L 141.75 180.5 L 141.695312 180.488281 L 141.1875 180.28125 L 140.757812 179.773438 L 140.613281 179.296875 L 140.503906 178.824219 L 140.394531 178.613281 L 140.25 178.582031 L 139.996094 178.933594 L 139.917969 179.410156 L 140.214844 180.742188 L 140.25 181.570312 L 140.214844 182.507812 L 139.996094 182.621094 L 139.773438 182.621094 L 139.519531 182.652344 L 139.011719 182.574219 L 138.441406 182.289062 L 138.21875 181.96875 L 138.074219 181.492188 L 137.964844 180.535156 L 138 179.773438 L 138.109375 178.867188 L 138.183594 177.632812 L 138.617188 174.742188 L 138.871094 173.152344 L 139.15625 172.136719 L 139.265625 171.484375 L 139.15625 171.164062 L 138.804688 171.054688 L 138.394531 171.121094 L 137.964844 171.308594 L 137.566406 171.59375 L 136.804688 172.421875 L 136.410156 172.710938 L 136.078125 172.753906 L 135.359375 172.46875 L 135.03125 172.246094 L 134.917969 171.882812 L 134.917969 171.199219 L 135.03125 170.867188 L 135.394531 170.546875 L 136.519531 169.863281 L 137.027344 169.5 L 137.3125 169.167969 L 138.394531 167.910156 L 138.691406 167.179688 L 138 167.800781 L 137.058594 168.628906 L 136.265625 169.101562 L 135.359375 169.53125 L 133.472656 170.074219 L 132.757812 170.148438 L 132.171875 170.105469 L 131.808594 169.898438 L 131.585938 169.566406 L 131.519531 169.246094 L 131.585938 168.957031 L 131.742188 168.738281 L 131.996094 168.5625 L 132.898438 168.152344 L 134.234375 167.910156 L 135.285156 167.691406 L 138.109375 166.242188 L 139.125 165.703125 L 139.664062 165.371094 L 140.0625 165.050781 L 140.25 164.5 L 140.359375 164.070312 L 140.613281 163.671875 L 140.824219 163.242188 L 140.867188 162.734375 L 140.722656 162.449219 L 140.425781 162.195312 L 140.105469 161.972656 L 139.882812 161.71875 L 139.773438 161.398438 L 139.808594 161.179688 L 140.027344 160.75 L 140.28125 160.636719 L 140.503906 160.59375 L 140.789062 160.636719 L 141.375 160.847656 Z M 142.941406 182.234375 L 142.941406 183.800781 L 142.457031 183.480469 L 141.804688 182.652344 L 141.75 182.554688 L 141.75 182.167969 L 141.804688 182.179688 L 142.234375 182.320312 L 142.566406 182.367188 Z M 142.941406 174.816406 L 142.941406 176.375 L 142.886719 176.40625 L 142.820312 176.515625 L 142.742188 176.660156 L 142.601562 176.835938 L 142.488281 176.980469 L 142.378906 177.203125 L 142.347656 177.597656 L 142.347656 177.960938 L 142.421875 178.074219 L 142.566406 178.105469 L 142.941406 178.207031 L 142.941406 180.335938 L 142.601562 180.421875 L 142.203125 180.535156 L 141.75 180.5 L 141.75 175.050781 L 141.914062 175.070312 L 142.378906 175.027344 L 142.929688 174.851562 Z M 142.941406 161.011719 L 142.941406 169.410156 L 142.851562 169.453125 L 142.941406 169.53125 L 142.941406 173.183594 L 142.820312 173.183594 L 142.675781 173.292969 L 142.566406 173.472656 L 142.488281 173.726562 L 142.347656 174.011719 L 141.882812 174.488281 L 141.75 174.664062 L 141.75 167.601562 L 142.421875 167.148438 L 142.710938 166.929688 L 142.820312 166.75 L 142.601562 166.277344 L 142.3125 166.101562 L 142.027344 166.132812 L 141.773438 166.355469 L 141.75 166.367188 L 141.75 160.945312 L 141.804688 160.957031 L 142.632812 160.957031 Z M 142.941406 169.410156 L 142.941406 161.011719 L 143.539062 161.101562 L 144.089844 161.6875 L 144.453125 162.117188 L 144.628906 162.402344 L 144.882812 162.625 L 145.203125 162.703125 L 146.40625 162.515625 L 146.945312 162.402344 L 147.597656 162.371094 L 148.28125 162.703125 L 148.789062 163.054688 L 149.042969 163.453125 L 149.085938 163.640625 L 149.011719 163.78125 L 147.820312 163.960938 L 146.472656 164.070312 L 145.964844 164.070312 L 145.425781 164.148438 L 145.203125 164.46875 L 145.136719 164.609375 L 145.027344 164.65625 L 144.488281 164.65625 L 143.980469 164.832031 L 143.757812 165.117188 L 143.835938 165.226562 L 144.089844 165.339844 L 145.753906 166.199219 L 146.328125 166.5625 L 146.769531 166.851562 L 146.980469 167.179688 L 147.058594 167.832031 L 146.914062 168.054688 L 146.550781 168.195312 L 145.28125 168.308594 L 144.628906 168.449219 L 144.15625 168.660156 L 143.328125 169.210938 Z M 142.941406 183.800781 L 142.941406 182.234375 L 142.996094 182.222656 L 143.394531 181.824219 L 143.503906 181.316406 L 143.472656 180.675781 L 143.292969 180.421875 L 143.074219 180.3125 L 142.941406 180.335938 L 142.941406 178.207031 L 142.964844 178.214844 L 143.105469 178.214844 L 143.25 178.105469 L 143.503906 177.851562 L 143.539062 177.3125 L 143.503906 176.769531 L 143.4375 176.582031 L 143.183594 176.375 L 142.996094 176.328125 L 142.941406 176.375 L 142.941406 174.816406 L 143.074219 174.628906 L 143.140625 174.234375 L 143.140625 173.546875 L 143.105469 173.328125 L 142.964844 173.183594 L 142.941406 173.183594 L 142.941406 169.53125 L 143.902344 170.261719 L 144.234375 170.613281 L 144.597656 171.089844 L 144.851562 171.628906 L 144.917969 172.246094 L 144.742188 173.292969 L 144.550781 174.011719 L 144.550781 175.757812 L 144.695312 177.929688 L 144.992188 180.125 L 145.171875 182.035156 L 145.171875 183.015625 L 145.203125 183.523438 L 145.171875 183.921875 L 145.027344 184.207031 L 144.742188 184.320312 L 143.613281 184.019531 L 142.964844 183.8125 Z M 165.507812 175.777344 L 163.023438 175.214844 L 163.675781 176.042969 L 164.40625 176.835938 L 165.308594 177.996094 L 165.507812 178.425781 Z M 165.507812 166.542969 L 165.507812 169.300781 L 164.722656 169.753906 L 162.992188 170.660156 L 162.738281 170.910156 L 162.296875 171.519531 L 161.070312 174.308594 L 160.308594 176.660156 L 159.691406 178.359375 L 159.515625 178.757812 L 159.21875 179.078125 L 158.789062 179.332031 L 156.867188 179.726562 L 155.421875 179.914062 L 153.578125 179.949219 L 153.28125 179.804688 L 153.105469 179.585938 L 152.996094 179.332031 L 152.996094 179.011719 L 152.773438 178.867188 L 152.628906 178.789062 L 152.628906 178.679688 L 152.816406 178.425781 L 153.136719 178.105469 L 153.535156 177.929688 L 154.007812 177.886719 L 154.230469 177.960938 L 154.1875 178.03125 L 154.296875 178.140625 L 154.769531 178.03125 L 156.105469 177.421875 L 156.691406 177.058594 L 157.121094 176.769531 L 157.484375 176.441406 L 157.960938 175.757812 L 158.167969 175.359375 L 158.3125 174.816406 L 158.3125 174.488281 L 158.058594 174.167969 L 157.738281 173.980469 L 157.519531 173.945312 L 157.121094 174.011719 L 156.25 174.011719 L 155.675781 173.945312 L 155.277344 173.769531 L 154.992188 173.4375 L 154.769531 173.042969 L 154.515625 172.421875 L 154.441406 171.882812 L 154.484375 171.484375 L 154.628906 171.265625 L 155.566406 171.164062 L 156.25 171.164062 L 156.4375 171.265625 L 156.867188 171.375 L 157.308594 171.308594 L 157.597656 171.164062 L 158.753906 170.007812 L 159.042969 169.644531 L 159.4375 169.101562 L 159.625 168.261719 L 159.726562 167.003906 L 159.835938 164.976562 L 159.769531 164.070312 L 159.472656 162.625 L 159.261719 161.796875 L 159.371094 161.144531 L 159.726562 160.925781 L 159.914062 160.847656 L 160.34375 160.75 L 160.882812 160.847656 L 161.4375 161.035156 L 162.042969 161.355469 L 162.449219 161.796875 L 162.738281 162.148438 L 162.914062 162.769531 L 162.738281 163.847656 L 162.769531 164.355469 L 162.738281 164.796875 L 162.484375 165.117188 L 162.261719 165.546875 L 162.152344 166.199219 L 162.042969 166.894531 L 162.152344 167.5 L 162.230469 167.753906 L 162.40625 167.832031 L 163.203125 167.613281 L 164.007812 167.214844 L 164.4375 166.785156 L 164.660156 166.640625 L 164.945312 166.5625 Z M 165.507812 169.300781 L 165.507812 166.542969 L 165.671875 166.53125 L 166.390625 166.5625 L 167.183594 166.929688 L 167.550781 167.105469 L 167.847656 167.292969 L 167.992188 167.46875 L 167.992188 168.230469 L 167.769531 168.59375 L 167.625 168.738281 L 167.484375 168.804688 L 166.832031 168.769531 L 166.433594 168.804688 L 166.105469 168.957031 Z M 165.507812 178.425781 L 165.507812 175.777344 L 165.882812 175.867188 L 167.230469 176.261719 L 168.058594 176.660156 L 168.386719 176.871094 L 168.5625 177.089844 L 168.785156 177.675781 L 168.851562 178.328125 L 168.816406 179.042969 L 168.675781 179.804688 L 168.101562 180.855469 L 167.804688 181.175781 L 167.4375 181.316406 L 167.085938 181.316406 L 166.722656 181.128906 L 166.390625 180.855469 L 166.136719 180.421875 L 165.738281 179.15625 L 165.53125 178.46875 Z M 178.398438 181.140625 L 178.398438 183.359375 L 178.164062 183.335938 L 177.261719 182.972656 L 176.464844 182.542969 L 175.8125 181.96875 L 175.484375 181.492188 L 175.375 181.0625 L 175.515625 180.777344 L 175.847656 180.675781 L 176.640625 180.742188 L 177.65625 180.984375 Z M 178.398438 174.1875 L 178.398438 176.515625 L 177.910156 176.472656 L 177.324219 176.296875 L 176.863281 175.964844 L 176.53125 175.679688 L 176.167969 175.136719 L 176.066406 174.628906 L 176.101562 174.234375 L 176.386719 173.867188 L 176.894531 173.472656 L 177.371094 173.980469 L 177.546875 174.167969 L 177.878906 174.308594 Z M 178.398438 168.230469 L 178.398438 169.929688 L 178.308594 170.007812 L 178.019531 170.4375 L 178.054688 170.945312 L 178.054688 171.164062 L 177.976562 171.265625 L 177.183594 171.664062 L 175.992188 172.167969 L 174.976562 172.675781 L 174.433594 172.964844 L 173.925781 173.074219 L 173.597656 173.074219 L 173.34375 172.964844 L 173.132812 172.753906 L 172.988281 172.535156 L 172.945312 172.246094 L 173.023438 171.960938 L 173.53125 171.265625 L 174.070312 170.722656 L 175.40625 169.453125 L 176.066406 168.59375 L 176.675781 167.800781 L 177.070312 167.402344 L 177.371094 167.257812 L 177.578125 167.257812 L 177.910156 167.546875 L 178.054688 167.867188 L 178.230469 168.121094 L 178.386719 168.230469 Z M 178.398438 164.542969 L 178.398438 166.664062 L 178.085938 166.53125 L 177.722656 166.355469 L 177.480469 166.167969 L 176.894531 165.480469 L 176.675781 165.304688 L 176.5 164.898438 L 176.5 164.433594 L 176.675781 164.148438 L 176.929688 163.960938 L 177.148438 163.894531 L 177.480469 163.960938 L 177.945312 164.324219 L 178.386719 164.542969 Z M 180.152344 180.929688 L 180.152344 183.371094 L 179.101562 183.414062 L 178.398438 183.359375 L 178.398438 181.140625 L 178.527344 181.175781 L 179.289062 181.097656 Z M 180.152344 173.527344 L 180.152344 176.152344 L 179.355469 176.441406 L 178.417969 176.515625 L 178.398438 176.515625 L 178.398438 174.1875 L 178.960938 174.054688 Z M 180.152344 169.210938 L 180.007812 169.277344 L 179.324219 169.753906 L 178.992188 170.039062 L 178.78125 170.292969 L 178.925781 171.375 L 179.035156 171.5625 L 179.246094 171.664062 L 179.898438 171.738281 L 180.152344 171.71875 Z M 180.152344 167.632812 L 180.152344 168.683594 L 179.5 169.101562 L 178.925781 169.53125 L 178.527344 169.820312 L 178.398438 169.929688 L 178.398438 168.230469 L 178.5625 168.230469 L 180.117188 167.65625 Z M 180.152344 165.890625 L 180.152344 166.761719 L 180.117188 166.785156 L 179.609375 166.929688 L 179.035156 166.929688 L 178.671875 166.785156 L 178.398438 166.664062 L 178.398438 164.542969 L 178.992188 164.609375 L 179.355469 164.753906 L 179.644531 164.976562 Z M 180.152344 163.03125 L 180.152344 163.652344 L 180.050781 163.453125 L 180.007812 163.199219 Z M 180.152344 166.761719 L 180.292969 166.675781 L 180.195312 165.957031 L 180.152344 165.890625 Z M 183.019531 168.648438 L 182.910156 168.660156 L 182.367188 168.914062 L 182.003906 169.136719 L 181.210938 169.421875 L 180.957031 169.355469 L 180.878906 169.246094 L 180.734375 168.957031 L 180.152344 169.210938 L 180.152344 171.71875 L 180.371094 171.707031 L 180.769531 171.628906 L 180.957031 171.664062 L 181.054688 171.816406 L 181.132812 172.027344 L 181.210938 172.964844 L 181.132812 173.117188 L 180.914062 173.21875 L 180.515625 173.359375 L 180.152344 173.527344 L 180.152344 176.152344 L 180.261719 176.121094 L 180.914062 175.789062 L 181.453125 175.613281 L 182.214844 175.46875 L 182.46875 175.613281 L 182.578125 175.867188 L 182.621094 176.296875 L 182.433594 179.375 L 182.324219 179.660156 L 182.070312 179.882812 L 181.609375 180.203125 L 180.152344 180.929688 L 180.152344 183.371094 L 182.832031 183.589844 L 183.019531 183.578125 L 183.019531 170.570312 L 182.511719 171.011719 L 182.257812 171.054688 L 181.960938 170.835938 L 181.894531 170.691406 L 181.960938 170.4375 L 182.113281 170.214844 L 182.46875 170.183594 L 182.976562 170.074219 L 183.019531 170.039062 Z M 183.019531 166.035156 L 183.019531 167.082031 L 182.832031 167.148438 L 182.070312 167.613281 L 181.167969 168.085938 L 180.292969 168.59375 L 180.152344 168.683594 L 180.152344 167.632812 L 181.75 166.707031 L 182.179688 166.386719 L 182.511719 166.101562 L 182.910156 166.101562 Z M 183.019531 164.621094 L 182.621094 164.898438 L 182.324219 165.195312 L 182.070312 165.515625 L 182.113281 165.660156 L 182.257812 165.734375 L 182.6875 165.40625 L 183.019531 165.183594 Z M 183.019531 161.578125 L 183.019531 163.351562 L 182.832031 164.003906 L 182.722656 164.246094 L 182.511719 164.578125 L 182.257812 164.753906 L 182.070312 164.832031 L 181.894531 164.796875 L 180.703125 164.214844 L 180.195312 163.707031 L 180.152344 163.652344 L 180.152344 163.03125 L 180.195312 162.988281 L 180.769531 162.734375 L 181.277344 162.589844 L 181.785156 162.449219 L 182.214844 162.226562 L 182.546875 162.082031 L 182.800781 161.894531 Z M 183.019531 163.351562 L 183.085938 163.097656 L 183.273438 162.117188 L 183.371094 161.101562 L 183.085938 161.464844 L 183.019531 161.578125 Z M 184.640625 161.839844 L 184.640625 165.042969 L 184.5 165.152344 L 184.578125 165.40625 L 184.640625 165.480469 L 184.640625 166.476562 L 183.019531 167.082031 L 183.019531 166.035156 L 183.371094 165.847656 L 183.628906 165.480469 L 183.738281 165.226562 L 183.738281 165.007812 L 183.527344 164.898438 L 183.164062 165.085938 L 183.019531 165.183594 L 183.019531 164.621094 L 183.371094 164.355469 L 183.59375 163.78125 L 183.878906 163.132812 L 184.277344 162.402344 Z M 184.640625 160.03125 L 184.640625 160.429688 L 184.5 160.496094 L 184.355469 160.382812 Z M 184.066406 168.515625 L 183.957031 168.882812 L 184.066406 168.914062 L 184.386719 168.957031 L 184.609375 168.957031 L 184.640625 168.925781 L 184.640625 171.023438 L 184.578125 171.054688 L 184.132812 171.308594 L 183.878906 171.519531 L 183.816406 171.847656 L 183.878906 172.136719 L 183.925781 172.246094 L 184.179688 172.28125 L 184.640625 172.257812 L 184.640625 176.417969 L 184.609375 176.804688 L 184.5 179.042969 L 184.5 180.535156 L 184.320312 181.351562 L 184.132812 182 L 183.957031 182.652344 L 183.78125 183.195312 L 183.738281 183.523438 L 183.019531 183.578125 L 183.019531 170.570312 L 183.085938 170.515625 L 183.371094 170.261719 L 183.59375 169.960938 L 183.703125 169.675781 L 183.957031 169.453125 L 184.132812 169.246094 L 184.066406 169.167969 L 183.957031 169.210938 L 183.449219 169.644531 L 183.230469 169.863281 L 183.019531 170.039062 L 183.019531 168.648438 L 183.671875 168.59375 L 183.925781 168.261719 L 184.5 167.832031 L 184.640625 167.765625 L 184.640625 168.152344 L 184.355469 168.375 Z M 184.640625 165.042969 L 184.863281 164.863281 L 185.335938 164.65625 L 185.769531 164.324219 L 186.277344 163.78125 L 187.6875 162.007812 L 189.277344 160.957031 L 189.355469 160.671875 L 189.277344 160.242188 L 189.066406 159.511719 L 188.558594 159.039062 L 187.65625 158.355469 L 187.101562 158.210938 L 186.640625 158.289062 L 185.800781 158.75 L 184.894531 159.734375 L 184.640625 160.03125 L 184.640625 160.429688 L 184.828125 160.339844 L 185.082031 160.128906 L 185.4375 159.941406 L 185.515625 159.941406 L 185.480469 160.085938 L 185.335938 160.449219 L 185.039062 161.210938 L 184.640625 161.839844 Z M 184.640625 176.417969 L 184.640625 172.257812 L 185.480469 172.214844 L 187.511719 172.101562 L 188.339844 172.101562 L 189.101562 172.28125 L 189.574219 172.609375 L 189.972656 172.964844 L 190.179688 173.472656 L 190.179688 173.980469 L 190.039062 174.375 L 189.574219 174.488281 L 187.832031 174.375 L 185.65625 174.488281 L 185.082031 174.816406 L 184.753906 175.28125 Z M 184.640625 168.925781 L 184.785156 168.804688 L 185.226562 168.230469 L 185.335938 167.941406 L 185.292969 167.910156 L 185.039062 167.941406 L 184.640625 168.152344 L 184.640625 167.765625 L 185.261719 167.5 L 186.097656 167.257812 L 187.179688 167.003906 L 187.941406 166.675781 L 188.371094 166.421875 L 188.515625 166.242188 L 188.371094 165.988281 L 188.226562 165.878906 L 188.007812 165.847656 L 186.925781 165.957031 L 184.785156 166.421875 L 184.640625 166.476562 L 184.640625 165.480469 L 184.6875 165.515625 L 184.894531 165.449219 L 186.097656 165.195312 L 187.214844 165.007812 L 189.277344 164.832031 L 190.800781 165.007812 L 191.273438 165.195312 L 191.527344 165.40625 L 191.636719 165.703125 L 191.703125 166.421875 L 191.59375 166.816406 L 191.242188 167.148438 L 190.765625 167.359375 L 189.175781 167.402344 L 187.910156 167.65625 L 187.214844 167.832031 L 187.101562 168.152344 L 187.070312 168.628906 L 186.894531 168.957031 L 186.417969 169.136719 L 186.132812 169.277344 L 185.945312 169.453125 L 185.589844 169.820312 L 185.335938 170.007812 L 185.226562 170.105469 L 185.082031 170.328125 L 185.039062 170.691406 L 184.972656 170.867188 L 184.640625 171.023438 Z M 184.640625 168.925781 "/>
<path style=" stroke:none;fill-rule:nonzero;fill:rgb(0%,0%,0%);fill-opacity:1;" d="M 73.554688 198.320312 L 75.019531 198.320312 C 76.84375 198.320312 77.628906 197.742188 77.628906 196.378906 C 77.628906 195.015625 76.84375 194.542969 75.316406 194.542969 L 73.554688 194.542969 L 73.554688 193.859375 L 75.746094 193.859375 C 77.777344 193.859375 78.964844 194.867188 78.964844 196.289062 C 78.964844 197.445312 78.164062 198.46875 76.191406 198.707031 L 76.191406 198.574219 C 78.503906 198.765625 79.453125 199.804688 79.453125 201.078125 C 79.453125 202.429688 78.339844 203.792969 75.539062 203.792969 L 73.554688 203.792969 L 73.554688 203.109375 L 75.183594 203.109375 C 77.113281 203.109375 78.046875 202.382812 78.046875 201.078125 C 78.046875 199.699219 77.140625 199.003906 75.066406 199.003906 L 73.554688 199.003906 Z M 72.886719 198.457031 C 72.886719 196.929688 72.886719 195.386719 72.84375 193.859375 L 74.265625 193.859375 C 74.222656 195.355469 74.222656 196.898438 74.222656 198.457031 L 74.222656 198.972656 C 74.222656 200.722656 74.222656 202.265625 74.265625 203.792969 L 72.84375 203.792969 C 72.886719 202.292969 72.886719 200.753906 72.886719 199.195312 Z M 73.554688 202.976562 L 73.554688 203.792969 L 71.476562 203.792969 L 71.476562 203.199219 L 73.40625 202.976562 Z M 71.476562 194.453125 L 71.476562 193.859375 L 73.554688 193.859375 L 73.554688 194.675781 L 73.40625 194.675781 Z M 71.476562 194.453125 "/>
<path style=" stroke:none;fill-rule:nonzero;fill:rgb(0%,0%,0%);fill-opacity:1;" d="M 86.019531 198.53125 L 86.242188 196.957031 L 86.910156 196.957031 L 86.910156 200.472656 L 86.242188 200.472656 L 86.019531 198.824219 Z M 88.835938 201.152344 L 88.734375 203.792969 L 83.144531 203.792969 L 83.144531 203.050781 L 88.214844 203.050781 L 87.546875 203.792969 L 88.007812 201.152344 Z M 86.496094 199.0625 L 83.144531 199.0625 L 83.144531 198.382812 L 86.496094 198.382812 Z M 87.25 193.859375 L 87.917969 194.601562 L 83.144531 194.601562 L 83.144531 193.859375 L 88.4375 193.859375 L 88.539062 196.5 L 87.710938 196.5 Z M 82.476562 198.457031 C 82.476562 196.929688 82.476562 195.386719 82.433594 193.859375 L 83.855469 193.859375 C 83.8125 195.355469 83.8125 196.898438 83.8125 198.457031 L 83.8125 199.019531 C 83.8125 200.722656 83.8125 202.265625 83.855469 203.792969 L 82.433594 203.792969 C 82.476562 202.292969 82.476562 200.753906 82.476562 199.195312 Z M 83.144531 202.976562 L 83.144531 203.792969 L 81.070312 203.792969 L 81.070312 203.199219 L 82.996094 202.976562 Z M 81.070312 194.453125 L 81.070312 193.859375 L 83.144531 193.859375 L 83.144531 194.675781 L 82.996094 194.675781 Z M 81.070312 194.453125 "/>
<path style=" stroke:none;fill-rule:nonzero;fill:rgb(0%,0%,0%);fill-opacity:1;" d="M 92.082031 198.453125 C 92.082031 196.929688 92.082031 195.386719 92.039062 193.859375 L 93.460938 193.859375 C 93.417969 195.355469 93.417969 196.898438 93.417969 198.453125 L 93.417969 199.195312 C 93.417969 200.722656 93.417969 202.265625 93.460938 203.792969 L 92.039062 203.792969 C 92.082031 202.292969 92.082031 200.753906 92.082031 199.195312 Z M 92.898438 202.976562 L 94.824219 203.199219 L 94.824219 203.792969 L 90.675781 203.792969 L 90.675781 203.199219 L 92.601562 202.976562 Z M 90.675781 194.453125 L 90.675781 193.859375 L 94.824219 193.859375 L 94.824219 194.453125 L 92.898438 194.675781 L 92.601562 194.675781 Z M 90.675781 194.453125 "/>
<path style=" stroke:none;fill-rule:nonzero;fill:rgb(0%,0%,0%);fill-opacity:1;" d="M 96.855469 193.859375 L 101.15625 193.859375 L 101.15625 194.453125 L 99.226562 194.675781 L 98.929688 194.675781 L 96.855469 194.453125 Z M 99.792969 193.859375 C 99.746094 195.355469 99.746094 196.898438 99.746094 198.457031 L 99.746094 200.8125 C 99.746094 202.472656 99.71875 203.226562 99.570312 203.984375 C 99.289062 205.464844 98.042969 206.191406 96.8125 206.191406 C 96.261719 206.191406 95.683594 206.042969 95.550781 205.480469 C 95.640625 204.949219 95.980469 204.769531 96.441406 204.769531 C 96.8125 204.769531 97.121094 204.886719 97.539062 205.199219 L 98.027344 205.570312 L 97.910156 205.734375 L 97.789062 205.75 L 97.761719 205.628906 C 98.324219 205.199219 98.515625 204.652344 98.515625 203.71875 C 98.515625 202.828125 98.441406 201.285156 98.367188 193.859375 Z M 99.792969 193.859375 "/>
<path style=" stroke:none;fill-rule:nonzero;fill:rgb(0%,0%,0%);fill-opacity:1;" d="M 104.402344 198.453125 C 104.402344 196.929688 104.402344 195.386719 104.355469 193.859375 L 105.78125 193.859375 C 105.734375 195.355469 105.734375 196.898438 105.734375 198.453125 L 105.734375 199.195312 C 105.734375 200.722656 105.734375 202.265625 105.78125 203.792969 L 104.355469 203.792969 C 104.402344 202.292969 104.402344 200.753906 104.402344 199.195312 Z M 105.214844 202.976562 L 107.144531 203.199219 L 107.144531 203.792969 L 102.992188 203.792969 L 102.992188 203.199219 L 104.917969 202.976562 Z M 102.992188 194.453125 L 102.992188 193.859375 L 107.144531 193.859375 L 107.144531 194.453125 L 105.214844 194.675781 L 104.917969 194.675781 Z M 102.992188 194.453125 "/>
<path style=" stroke:none;fill-rule:nonzero;fill:rgb(0%,0%,0%);fill-opacity:1;" d="M 116.761719 193.859375 L 117.503906 193.859375 L 117.503906 203.894531 L 116.761719 203.152344 Z M 115.207031 193.859375 L 118.765625 193.859375 L 118.765625 194.453125 L 117.28125 194.675781 L 116.984375 194.675781 L 115.207031 194.453125 Z M 110.316406 193.859375 L 111.058594 194.453125 L 111.058594 203.792969 L 110.316406 203.792969 Z M 109.988281 194.320312 L 110.910156 194.675781 L 109.128906 194.453125 L 109.128906 193.859375 L 111.351562 193.859375 L 117.503906 202.324219 L 117.503906 203.894531 L 117.03125 203.894531 Z M 109.054688 203.199219 L 110.613281 202.976562 L 110.910156 202.976562 L 112.613281 203.199219 L 112.613281 203.792969 L 109.054688 203.792969 Z M 109.054688 203.199219 "/>
<path style=" stroke:none;fill-rule:nonzero;fill:rgb(0%,0%,0%);fill-opacity:1;" d="M 125.746094 199.671875 L 125.746094 199.078125 L 129.601562 199.078125 L 129.601562 199.671875 L 127.96875 199.820312 L 127.671875 199.820312 Z M 128.667969 203.140625 C 127.644531 203.671875 126.636719 204.015625 125.40625 204.015625 C 122.441406 204.015625 120.425781 201.804688 120.425781 198.824219 C 120.425781 195.847656 122.457031 193.636719 125.464844 193.636719 C 126.695312 193.636719 127.613281 193.859375 128.445312 194.347656 L 128.503906 196.5 L 127.597656 196.5 L 127.230469 194.304688 L 128.148438 194.601562 L 128.148438 195.445312 C 127.347656 194.703125 126.53125 194.378906 125.582031 194.378906 C 123.507812 194.378906 121.980469 195.996094 121.980469 198.824219 C 121.980469 201.640625 123.375 203.257812 125.6875 203.257812 C 126.53125 203.257812 127.15625 203.066406 128 202.648438 L 127.332031 203.347656 L 127.332031 202.488281 C 127.332031 201.359375 127.316406 200.203125 127.289062 199.078125 L 128.710938 199.078125 C 128.679688 200.1875 128.667969 201.332031 128.667969 202.488281 Z M 128.667969 203.140625 "/>
<path style=" stroke:none;fill-rule:nonzero;fill:rgb(0%,0%,0%);fill-opacity:1;" d="M 140.363281 201.464844 C 140.363281 200.5 139.785156 200.070312 138.496094 199.566406 L 137.929688 199.34375 C 136.421875 198.75 135.382812 197.890625 135.382812 196.378906 C 135.382812 194.675781 136.820312 193.636719 138.703125 193.636719 C 139.695312 193.636719 140.480469 193.949219 141.117188 194.421875 L 141.03125 196.351562 L 140.140625 196.351562 L 139.726562 194.113281 L 140.675781 194.601562 L 140.675781 195.34375 C 139.949219 194.632812 139.398438 194.378906 138.613281 194.378906 C 137.457031 194.378906 136.582031 194.957031 136.582031 196.070312 C 136.582031 197.003906 137.191406 197.550781 138.273438 197.964844 L 138.851562 198.1875 C 140.808594 198.945312 141.5625 199.804688 141.5625 201.199219 C 141.5625 202.945312 140.097656 204.015625 138.066406 204.015625 C 136.953125 204.015625 135.871094 203.65625 135.1875 203.226562 L 135.277344 201.152344 L 136.167969 201.152344 L 136.554688 203.4375 L 135.589844 203.019531 L 135.589844 202.308594 C 136.507812 202.976562 137.011719 203.273438 138.019531 203.273438 C 139.429688 203.273438 140.363281 202.621094 140.363281 201.464844 "/>
<path style=" stroke:none;fill-rule:nonzero;fill:rgb(0%,0%,0%);fill-opacity:1;" d="M 146.871094 199.863281 L 145.402344 199.863281 L 145.402344 199.179688 L 147.09375 199.179688 C 148.914062 199.179688 149.628906 198.21875 149.628906 196.808594 C 149.628906 195.371094 148.828125 194.542969 147.03125 194.542969 L 145.402344 194.542969 L 145.402344 193.859375 L 147.3125 193.859375 C 149.777344 193.859375 151.035156 195.074219 151.035156 196.808594 C 151.035156 198.46875 149.894531 199.863281 146.871094 199.863281 M 144.734375 198.453125 C 144.734375 196.929688 144.734375 195.386719 144.691406 193.859375 L 146.113281 193.859375 C 146.070312 195.355469 146.070312 196.898438 146.070312 198.453125 L 146.070312 199.359375 C 146.070312 200.871094 146.070312 202.265625 146.113281 203.792969 L 144.691406 203.792969 C 144.734375 202.292969 144.734375 200.753906 144.734375 199.195312 Z M 145.550781 202.976562 L 147.476562 203.199219 L 147.476562 203.792969 L 143.328125 203.792969 L 143.328125 203.199219 L 145.253906 202.976562 Z M 143.328125 194.453125 L 143.328125 193.859375 L 145.402344 193.859375 L 145.402344 194.675781 L 145.253906 194.675781 Z M 143.328125 194.453125 "/>
<path style=" stroke:none;fill-rule:nonzero;fill:rgb(0%,0%,0%);fill-opacity:1;" d="M 157.277344 203.273438 C 159.367188 203.273438 160.242188 201.050781 160.242188 198.824219 C 160.242188 196.601562 159.367188 194.378906 157.277344 194.378906 C 155.1875 194.378906 154.296875 196.601562 154.296875 198.824219 C 154.296875 201.050781 155.1875 203.273438 157.277344 203.273438 M 161.796875 198.824219 C 161.796875 202.070312 159.574219 204.015625 157.277344 204.015625 C 154.980469 204.015625 152.742188 202.207031 152.742188 198.824219 C 152.742188 195.578125 154.992188 193.636719 157.277344 193.636719 C 159.558594 193.636719 161.796875 195.445312 161.796875 198.824219 "/>
<path style=" stroke:none;fill-rule:nonzero;fill:rgb(0%,0%,0%);fill-opacity:1;" d="M 165.535156 198.53125 L 167.386719 198.53125 C 168.988281 198.53125 169.757812 197.667969 169.757812 196.46875 C 169.757812 195.222656 169.089844 194.542969 167.546875 194.542969 L 165.535156 194.542969 L 165.535156 193.859375 L 167.5625 193.859375 C 169.832031 193.859375 171.164062 194.824219 171.164062 196.46875 C 171.164062 197.730469 170.171875 198.871094 168.230469 199.035156 L 168.277344 198.914062 C 169.34375 199.019531 169.996094 199.507812 170.394531 200.84375 L 171.121094 203.300781 L 170.660156 203.019531 L 172.1875 203.199219 L 172.1875 203.792969 C 171.921875 203.878906 171.566406 203.9375 171.121094 203.9375 C 170.203125 203.9375 169.800781 203.703125 169.625 203.019531 L 169.015625 200.605469 C 168.71875 199.402344 168.171875 199.195312 166.941406 199.195312 L 165.535156 199.195312 Z M 164.867188 198.457031 C 164.867188 196.929688 164.867188 195.386719 164.820312 193.859375 L 166.246094 193.859375 C 166.199219 195.402344 166.199219 196.855469 166.199219 198.601562 L 166.199219 199.046875 C 166.199219 200.722656 166.199219 202.265625 166.246094 203.792969 L 164.820312 203.792969 C 164.867188 202.292969 164.867188 200.753906 164.867188 199.195312 Z M 165.679688 202.976562 L 167.609375 203.199219 L 167.609375 203.792969 L 163.457031 203.792969 L 163.457031 203.199219 L 165.386719 202.976562 Z M 163.457031 194.453125 L 163.457031 193.859375 L 165.535156 193.859375 L 165.535156 194.675781 L 165.386719 194.675781 Z M 163.457031 194.453125 "/>
<path style=" stroke:none;fill-rule:nonzero;fill:rgb(0%,0%,0%);fill-opacity:1;" d="M 176.414062 198.453125 C 176.414062 196.929688 176.414062 195.386719 176.367188 193.859375 L 177.792969 193.859375 C 177.746094 195.355469 177.746094 196.898438 177.746094 198.453125 L 177.746094 199.195312 C 177.746094 200.722656 177.746094 202.265625 177.792969 203.792969 L 176.367188 203.792969 C 176.414062 202.292969 176.414062 200.753906 176.414062 199.195312 Z M 177.226562 202.976562 L 179.304688 203.199219 L 179.304688 203.792969 L 174.855469 203.792969 L 174.855469 203.199219 L 176.933594 202.976562 Z M 173.550781 194.601562 L 174.21875 193.859375 L 173.746094 196.5 L 172.914062 196.5 L 173.035156 193.859375 L 181.125 193.859375 L 181.246094 196.5 L 180.414062 196.5 L 179.941406 193.859375 L 180.609375 194.601562 Z M 173.550781 194.601562 "/>
<path style=" stroke:none;fill-rule:nonzero;fill:rgb(0%,0%,0%);fill-opacity:1;" d="M 90.191406 212.957031 L 88.5625 212.734375 L 88.5625 212.140625 L 92.121094 212.140625 L 92.121094 212.734375 L 90.488281 212.957031 Z M 87.523438 221.257812 C 89.230469 221.257812 90.089844 220.296875 90.089844 217.640625 L 90.089844 212.140625 L 90.832031 212.140625 L 90.832031 218.027344 C 90.832031 221.140625 89.320312 222.296875 87.316406 222.296875 C 85.167969 222.296875 83.714844 221.097656 83.714844 218.339844 L 83.714844 216.738281 C 83.714844 215.210938 83.714844 213.667969 83.671875 212.140625 L 85.09375 212.140625 C 85.050781 213.640625 85.050781 215.179688 85.050781 216.738281 L 85.050781 217.910156 C 85.050781 220.457031 86.011719 221.257812 87.523438 221.257812 M 82.457031 212.734375 L 82.457031 212.140625 L 86.605469 212.140625 L 86.605469 212.734375 L 84.679688 212.957031 L 84.382812 212.957031 Z M 82.457031 212.734375 "/>
<path style=" stroke:none;fill-rule:nonzero;fill:rgb(0%,0%,0%);fill-opacity:1;" d="M 101.027344 212.140625 L 101.769531 212.140625 L 101.769531 222.175781 L 101.027344 221.4375 Z M 99.472656 212.140625 L 103.03125 212.140625 L 103.03125 212.734375 L 101.546875 212.957031 L 101.25 212.957031 L 99.472656 212.734375 Z M 94.582031 212.140625 L 95.324219 212.734375 L 95.324219 222.074219 L 94.582031 222.074219 Z M 94.253906 212.601562 L 95.171875 212.957031 L 93.394531 212.734375 L 93.394531 212.140625 L 95.617188 212.140625 L 101.769531 220.605469 L 101.769531 222.175781 L 101.296875 222.175781 Z M 93.320312 221.480469 L 94.878906 221.257812 L 95.171875 221.257812 L 96.878906 221.480469 L 96.878906 222.074219 L 93.320312 222.074219 Z M 93.320312 221.480469 "/>
<path style=" stroke:none;fill-rule:nonzero;fill:rgb(0%,0%,0%);fill-opacity:1;" d="M 105.789062 216.738281 C 105.789062 215.210938 105.789062 213.667969 105.742188 212.140625 L 107.167969 212.140625 C 107.121094 213.640625 107.121094 215.179688 107.121094 216.738281 L 107.121094 217.480469 C 107.121094 219.003906 107.121094 220.546875 107.167969 222.074219 L 105.742188 222.074219 C 105.789062 220.578125 105.789062 219.035156 105.789062 217.480469 Z M 106.601562 221.257812 L 108.53125 221.480469 L 108.53125 222.074219 L 104.378906 222.074219 L 104.378906 221.480469 L 106.304688 221.257812 Z M 104.378906 212.734375 L 104.378906 212.140625 L 108.53125 212.140625 L 108.53125 212.734375 L 106.601562 212.957031 L 106.304688 212.957031 Z M 104.378906 212.734375 "/>
<path style=" stroke:none;fill-rule:nonzero;fill:rgb(0%,0%,0%);fill-opacity:1;" d="M 117.347656 212.957031 L 115.867188 212.808594 L 115.867188 212.140625 L 119.292969 212.140625 L 119.292969 212.734375 L 117.644531 212.957031 Z M 110.53125 212.140625 L 111.953125 212.140625 L 114.917969 220.5625 L 114.605469 220.5625 L 117.453125 212.140625 L 118.253906 212.140625 L 114.859375 222.175781 L 114.265625 222.175781 Z M 111.582031 212.957031 L 109.65625 212.734375 L 109.65625 212.140625 L 113.660156 212.140625 L 113.660156 212.808594 L 111.878906 212.957031 Z M 111.582031 212.957031 "/>
<path style=" stroke:none;fill-rule:nonzero;fill:rgb(0%,0%,0%);fill-opacity:1;" d="M 125.292969 216.8125 L 125.515625 215.242188 L 126.183594 215.242188 L 126.183594 218.753906 L 125.515625 218.753906 L 125.292969 217.109375 Z M 128.109375 219.433594 L 128.007812 222.074219 L 122.417969 222.074219 L 122.417969 221.332031 L 127.488281 221.332031 L 126.820312 222.074219 L 127.28125 219.433594 Z M 125.769531 217.34375 L 122.417969 217.34375 L 122.417969 216.664062 L 125.769531 216.664062 Z M 126.523438 212.140625 L 127.191406 212.882812 L 122.417969 212.882812 L 122.417969 212.140625 L 127.710938 212.140625 L 127.8125 214.78125 L 126.984375 214.78125 Z M 121.75 216.738281 C 121.75 215.210938 121.75 213.667969 121.707031 212.140625 L 123.128906 212.140625 C 123.085938 213.640625 123.085938 215.179688 123.085938 216.738281 L 123.085938 217.300781 C 123.085938 219.003906 123.085938 220.546875 123.128906 222.074219 L 121.707031 222.074219 C 121.75 220.578125 121.75 219.035156 121.75 217.480469 Z M 122.417969 221.257812 L 122.417969 222.074219 L 120.34375 222.074219 L 120.34375 221.480469 L 122.269531 221.257812 Z M 120.34375 212.734375 L 120.34375 212.140625 L 122.417969 212.140625 L 122.417969 212.957031 L 122.269531 212.957031 Z M 120.34375 212.734375 "/>
<path style=" stroke:none;fill-rule:nonzero;fill:rgb(0%,0%,0%);fill-opacity:1;" d="M 131.609375 216.8125 L 133.460938 216.8125 C 135.0625 216.8125 135.835938 215.953125 135.835938 214.75 C 135.835938 213.507812 135.167969 212.824219 133.625 212.824219 L 131.609375 212.824219 L 131.609375 212.140625 L 133.640625 212.140625 C 135.90625 212.140625 137.242188 213.105469 137.242188 214.75 C 137.242188 216.011719 136.25 217.152344 134.308594 217.316406 L 134.351562 217.195312 C 135.417969 217.300781 136.070312 217.789062 136.472656 219.125 L 137.199219 221.585938 L 136.738281 221.304688 L 138.265625 221.480469 L 138.265625 222.074219 C 137.996094 222.164062 137.640625 222.222656 137.199219 222.222656 C 136.277344 222.222656 135.878906 221.984375 135.699219 221.304688 L 135.09375 218.886719 C 134.796875 217.6875 134.25 217.480469 133.019531 217.480469 L 131.609375 217.480469 Z M 130.941406 216.738281 C 130.941406 215.210938 130.941406 213.667969 130.898438 212.140625 L 132.320312 212.140625 C 132.277344 213.683594 132.277344 215.136719 132.277344 216.886719 L 132.277344 217.332031 C 132.277344 219.003906 132.277344 220.546875 132.320312 222.074219 L 130.898438 222.074219 C 130.941406 220.578125 130.941406 219.035156 130.941406 217.480469 Z M 131.757812 221.257812 L 133.683594 221.480469 L 133.683594 222.074219 L 129.535156 222.074219 L 129.535156 221.480469 L 131.460938 221.257812 Z M 129.535156 212.734375 L 129.535156 212.140625 L 131.609375 212.140625 L 131.609375 212.957031 L 131.460938 212.957031 Z M 129.535156 212.734375 "/>
<path style=" stroke:none;fill-rule:nonzero;fill:rgb(0%,0%,0%);fill-opacity:1;" d="M 144.492188 219.746094 C 144.492188 218.78125 143.914062 218.355469 142.621094 217.847656 L 142.058594 217.625 C 140.546875 217.035156 139.511719 216.175781 139.511719 214.664062 C 139.511719 212.957031 140.949219 211.921875 142.832031 211.921875 C 143.824219 211.921875 144.609375 212.230469 145.246094 212.707031 L 145.15625 214.632812 L 144.269531 214.632812 L 143.851562 212.394531 L 144.800781 212.882812 L 144.800781 213.625 C 144.074219 212.914062 143.527344 212.660156 142.742188 212.660156 C 141.585938 212.660156 140.710938 213.238281 140.710938 214.351562 C 140.710938 215.285156 141.320312 215.832031 142.402344 216.25 L 142.980469 216.46875 C 144.933594 217.226562 145.691406 218.085938 145.691406 219.480469 C 145.691406 221.230469 144.222656 222.296875 142.191406 222.296875 C 141.082031 222.296875 140 221.941406 139.316406 221.511719 L 139.40625 219.433594 L 140.296875 219.433594 L 140.679688 221.71875 L 139.71875 221.304688 L 139.71875 220.589844 C 140.636719 221.257812 141.140625 221.554688 142.148438 221.554688 C 143.558594 221.554688 144.492188 220.902344 144.492188 219.746094 "/>
<path style=" stroke:none;fill-rule:nonzero;fill:rgb(0%,0%,0%);fill-opacity:1;" d="M 148.449219 216.738281 C 148.449219 215.210938 148.449219 213.667969 148.402344 212.140625 L 149.828125 212.140625 C 149.78125 213.640625 149.78125 215.179688 149.78125 216.738281 L 149.78125 217.480469 C 149.78125 219.003906 149.78125 220.546875 149.828125 222.074219 L 148.402344 222.074219 C 148.449219 220.578125 148.449219 219.035156 148.449219 217.480469 Z M 149.265625 221.257812 L 151.191406 221.480469 L 151.191406 222.074219 L 147.039062 222.074219 L 147.039062 221.480469 L 148.96875 221.257812 Z M 147.039062 212.734375 L 147.039062 212.140625 L 151.191406 212.140625 L 151.191406 212.734375 L 149.265625 212.957031 L 148.96875 212.957031 Z M 147.039062 212.734375 "/>
<path style=" stroke:none;fill-rule:nonzero;fill:rgb(0%,0%,0%);fill-opacity:1;" d="M 155.890625 216.738281 C 155.890625 215.210938 155.890625 213.667969 155.84375 212.140625 L 157.269531 212.140625 C 157.222656 213.640625 157.222656 215.179688 157.222656 216.738281 L 157.222656 217.480469 C 157.222656 219.003906 157.222656 220.546875 157.269531 222.074219 L 155.84375 222.074219 C 155.890625 220.578125 155.890625 219.035156 155.890625 217.480469 Z M 156.703125 221.257812 L 158.78125 221.480469 L 158.78125 222.074219 L 154.332031 222.074219 L 154.332031 221.480469 L 156.410156 221.257812 Z M 153.027344 212.882812 L 153.695312 212.140625 L 153.222656 214.78125 L 152.390625 214.78125 L 152.511719 212.140625 L 160.605469 212.140625 L 160.722656 214.78125 L 159.890625 214.78125 L 159.417969 212.140625 L 160.085938 212.882812 Z M 153.027344 212.882812 "/>
<path style=" stroke:none;fill-rule:nonzero;fill:rgb(0%,0%,0%);fill-opacity:1;" d="M 168.726562 212.957031 L 167.082031 212.734375 L 167.082031 212.140625 L 170.492188 212.140625 L 170.492188 212.734375 L 169.007812 212.957031 Z M 165.300781 217.625 L 166.636719 217.625 C 166.636719 219.316406 166.636719 220.753906 166.679688 222.074219 L 165.257812 222.074219 C 165.300781 220.785156 165.300781 219.332031 165.300781 217.625 M 166.117188 221.257812 L 168.191406 221.480469 L 168.191406 222.074219 L 163.746094 222.074219 L 163.746094 221.480469 L 165.820312 221.257812 Z M 165.554688 218.738281 L 162.308594 212.140625 L 163.851562 212.140625 L 166.546875 217.984375 L 166.027344 217.984375 L 168.800781 212.140625 L 169.558594 212.140625 L 166.371094 218.738281 Z M 161.476562 212.734375 L 161.476562 212.140625 L 165.628906 212.140625 L 165.628906 212.734375 L 163.703125 212.957031 L 163.40625 212.957031 Z M 161.476562 212.734375 "/>
</g>
</svg>
