<?xml version="1.0" encoding="UTF-8" standalone="no"?>
<!-- Created with Inkscape (http://www.inkscape.org/) -->

<svg
   xmlns:dc="http://purl.org/dc/elements/1.1/"
   xmlns:cc="http://creativecommons.org/ns#"
   xmlns:rdf="http://www.w3.org/1999/02/22-rdf-syntax-ns#"
   xmlns:svg="http://www.w3.org/2000/svg"
   xmlns="http://www.w3.org/2000/svg"
   xmlns:sodipodi="http://sodipodi.sourceforge.net/DTD/sodipodi-0.dtd"
   xmlns:inkscape="http://www.inkscape.org/namespaces/inkscape"
   version="1.1"
   id="svg10"
   xml:space="preserve"
   width="200"
   height="195.53734"
   viewBox="0 0 199.99999 195.53734"
   sodipodi:docname="2-1.svg"
   inkscape:version="0.92.4 (5da689c313, 2019-01-14)"><metadata
     id="metadata16"><rdf:RDF><cc:Work
         rdf:about=""><dc:format>image/svg+xml</dc:format><dc:type
           rdf:resource="http://purl.org/dc/dcmitype/StillImage" /><dc:title></dc:title></cc:Work></rdf:RDF></metadata><defs
     id="defs14"><clipPath
       clipPathUnits="userSpaceOnUse"
       id="clipPath26"><path
         d="M 0,600 H 800 V 0 H 0 Z"
         id="path24"
         inkscape:connector-curvature="0" /></clipPath><clipPath
       clipPathUnits="userSpaceOnUse"
       id="clipPath102"><path
         d="m 203.848,299.943 c 0,-114.966 93.218,-208.175 208.182,-208.175 v 0 c 114.975,0 208.182,93.209 208.182,208.175 v 0 c 0,114.976 -93.207,208.178 -208.182,208.178 v 0 c -114.964,0 -208.182,-93.202 -208.182,-208.178"
         id="path100"
         inkscape:connector-curvature="0" /></clipPath><clipPath
       clipPathUnits="userSpaceOnUse"
       id="clipPath122"><path
         d="M 0,600 H 800 V 0 H 0 Z"
         id="path120"
         inkscape:connector-curvature="0" /></clipPath></defs><sodipodi:namedview
     pagecolor="#ffffff"
     bordercolor="#666666"
     borderopacity="1"
     objecttolerance="10"
     gridtolerance="10"
     guidetolerance="10"
     inkscape:pageopacity="0"
     inkscape:pageshadow="2"
     inkscape:window-width="1078"
     inkscape:window-height="740"
     id="namedview12"
     showgrid="false"
     fit-margin-top="0"
     fit-margin-left="0"
     fit-margin-right="0"
     fit-margin-bottom="0"
     inkscape:zoom="0.417193"
     inkscape:cx="140.1492"
     inkscape:cy="-249.76157"
     inkscape:window-x="493"
     inkscape:window-y="115"
     inkscape:window-maximized="0"
     inkscape:current-layer="g18" /><g
     id="g18"
     inkscape:groupmode="layer"
     inkscape:label="2-1"
     transform="matrix(1.3333333,0,0,-1.3333333,-142.2724,201.75413)"><g
       id="g20"
       transform="matrix(0.24858885,0,0,0.24858885,80.178801,3.5035296)"><g
         id="g22"
         clip-path="url(#clipPath26)"><g
           id="g28"
           transform="translate(620.332,300.5508)"><path
             d="m 0,0 c 0,-115.048 -93.263,-208.303 -208.313,-208.303 -115.054,0 -208.295,93.255 -208.295,208.303 0,115.042 93.241,208.307 208.295,208.307 C -93.263,208.307 0,115.042 0,0"
             style="fill:#003670;fill-opacity:1;fill-rule:nonzero;stroke:none"
             id="path30"
             inkscape:connector-curvature="0" /></g><g
           id="g32"
           transform="translate(408.4023,582.7036)"><path
             d="m 0,0 c -159.784,0 -289.798,-126.972 -289.798,-283.069 0,-156.081 130.014,-283.069 289.798,-283.069 159.792,0 289.806,126.988 289.806,283.069 C 289.806,-126.972 159.792,0 0,0 m 0,-578.041 c -40.716,0 -80.212,7.808 -117.389,23.158 -35.928,14.867 -68.188,36.117 -95.896,63.192 -27.717,27.091 -49.485,58.638 -64.684,93.763 -15.753,36.387 -23.729,75.029 -23.729,114.859 0,39.83 7.976,78.49 23.729,114.87 15.199,35.134 36.967,66.672 64.684,93.76 27.708,27.081 59.968,48.339 95.896,63.193 C -80.212,4.112 -40.716,11.901 0,11.901 c 40.711,0 80.211,-7.789 117.383,-23.147 35.926,-14.854 68.189,-36.112 95.907,-63.193 27.706,-27.088 49.473,-58.626 64.675,-93.76 15.753,-36.38 23.743,-75.04 23.743,-114.87 0,-39.83 -7.99,-78.472 -23.743,-114.859 -15.202,-35.125 -36.969,-66.672 -64.675,-93.763 -27.718,-27.075 -59.981,-48.325 -95.907,-63.192 C 80.211,-570.233 40.711,-578.041 0,-578.041"
             style="fill:#003670;fill-opacity:1;fill-rule:nonzero;stroke:none"
             id="path34"
             inkscape:connector-curvature="0" /></g><g
           id="g36"
           transform="translate(443.8877,83.6904)"><path
             d="M 0,0 C 3.972,0.785 6.83,2.682 9.337,-1.679 7.913,-4.365 5.506,-8.071 2.311,-9.196 1.263,-7.036 3.644,-6.034 3.401,-4.153 2.23,-2.762 -0.08,-2.479 0,0"
             style="fill:#003670;fill-opacity:1;fill-rule:evenodd;stroke:none"
             id="path38"
             inkscape:connector-curvature="0" /></g><g
           id="g40"
           transform="translate(455.1621,69.0391)"><path
             d="m 0,0 c 1.359,1.357 4.646,1.526 6.284,0.863 1.01,-1.233 -0.233,-1.73 0,-2.7 5.779,0.908 5.618,-3.711 6.091,-8.682 0.712,-7.485 5.853,-19.927 1.738,-24.321 -4.5,0.342 -10.215,1.709 -12.754,4.931 3.466,1.582 6.787,-1.677 9.705,1.209 -0.742,7.464 -1.392,14.898 -3.175,22.701 -2.298,0.352 -5.574,-2.475 -7.556,-4.635 0.64,-0.736 2.197,1.163 2.875,0.532 0.325,-0.564 0.508,-1.467 1.08,-1.268 0.059,-2.026 -0.828,-3.716 -2.351,-5.215 1.211,-1.448 3.178,-0.664 4.312,-2.373 0.744,-1.359 -0.556,-2.013 -0.198,-3.227 -2.789,-2.289 -6.487,-8.294 -10.262,-7.33 0.371,3.59 6.322,5.253 5.777,9.152 -1.641,1.05 -3.049,-1.188 -4.304,-0.333 -1.102,2.385 1.552,3.471 1.802,5.384 -1.695,-0.027 -1.891,-3.135 -2.705,-4.462 -1.77,-0.543 -3.595,-1.197 -4.672,0.378 2.544,2.158 6.099,4.901 8.109,8.05 -4.13,-2.088 -6.758,-7.311 -13.126,-9.648 -0.68,0.631 -1.545,0.768 -1.98,2.176 6.865,5.51 14.146,11.309 18.547,16.82 -5.55,0.104 -7.128,-6.439 -13.141,-7.856 -1.225,2.028 0.374,4.739 2.187,6.48 C -4.015,0.196 1.961,4.802 4.336,8.432 4.21,9.826 3.041,8.136 2.904,9.52 c 1.502,1.593 3.501,3.023 4.847,4.665 1.521,-0.619 1.497,-0.331 2.515,-2.36 C 8.756,6.567 1.8,4.938 0,0"
             style="fill:#003670;fill-opacity:1;fill-rule:evenodd;stroke:none"
             id="path42"
             inkscape:connector-curvature="0" /></g><g
           id="g44"
           transform="translate(454.6455,76.4199)"><path
             d="m 0,0 c -2.571,-3.753 -6.149,-6.085 -9.903,-8.947 -3.308,-4.796 -8.727,-8.058 -13.147,-11.432 -1.835,-0.089 -3.939,1.665 -4.113,3.802 0.73,0.76 2.431,2.071 3.61,1.773 0.575,0.903 1.739,1.617 2.341,2.507 C -13.938,-9.876 -6.969,-2.593 0,0"
             style="fill:#003670;fill-opacity:1;fill-rule:evenodd;stroke:none"
             id="path46"
             inkscape:connector-curvature="0" /></g><g
           id="g48"
           transform="translate(441.4561,46.0615)"><path
             d="M 0,0 C 5.277,-2.864 4.159,-10.116 0.86,-13.504 -3.538,-10.594 0.572,-4.422 0,0"
             style="fill:#003670;fill-opacity:1;fill-rule:evenodd;stroke:none"
             id="path50"
             inkscape:connector-curvature="0" /></g><g
           id="g52"
           transform="translate(516.293,84.4805)"><path
             d="M 0,0 C 1.01,0.68 1.281,3.214 2.568,4.903 4.514,5.299 5.677,5.024 7.493,4.114 5.911,0.854 3.234,-2.837 0.749,-6.185 c 1.554,-8.963 0.855,-28.311 -12.568,-27.36 3.67,5.086 8.855,11.68 7.976,18.596 -1.781,-2.292 -2.444,-3.902 -4.382,-6.642 -2.074,-0.965 -6.504,1.107 -8.565,3.149 2.061,2.348 4.629,3.595 6.467,5.556 1.475,1.58 4.277,4.187 5.062,6.269 1.01,2.681 -1.87,11.558 -3.716,15.79 -0.972,2.255 -2.98,3.413 -2.526,6.25 0.215,0.604 0.648,0.419 0.893,0.851 C -0.078,13.066 -3.88,5.336 0,0"
             style="fill:#003670;fill-opacity:1;fill-rule:evenodd;stroke:none"
             id="path54"
             inkscape:connector-curvature="0" /></g><g
           id="g56"
           transform="translate(518.0313,75.0771)"><path
             d="m 0,0 c 0.368,0.405 0.913,0.244 1.255,0.69 2.243,-0.048 2.636,-2.276 3.992,-3.433 4.678,-3.987 9.461,-4.966 15.237,-4.861 -0.153,-3.327 -4.92,-6.338 -7.555,-7.647 C 7.381,-10.546 3.619,-5.296 0,0"
             style="fill:#003670;fill-opacity:1;fill-rule:evenodd;stroke:none"
             id="path58"
             inkscape:connector-curvature="0" /></g><g
           id="g60"
           transform="translate(568.3848,91.5098)"><path
             d="m 0,0 c -0.137,0.468 -0.016,0.747 0.304,0.889 2.735,4.737 4.468,11.863 8.267,16.384 1.835,2.174 5.071,5.726 8.601,5.014 0.811,-3.829 -2.654,-4.433 -4.63,-6.15 3.053,-3.67 9.423,-4.855 8.617,-10.21 C 20.484,1.37 13.652,0.629 8.703,-1.741 c 2.357,3.665 8.38,4.567 8.786,9.694 -1.583,2.318 -3.168,4.651 -6.21,5.048 C 6.589,8.977 8.746,-1.419 0,0"
             style="fill:#003670;fill-opacity:1;fill-rule:evenodd;stroke:none"
             id="path62"
             inkscape:connector-curvature="0" /></g><g
           id="g64"
           transform="translate(573.6299,126.5137)"><path
             d="M 0,0 C -1.209,0.183 -1.188,2.021 -2.077,2.674 -3.396,2.418 -5.299,2.628 -4.788,1.023 -9.547,4.294 -5.175,9.012 -2.053,11.556 0.919,8.455 0.502,4.664 0,0 m -15.065,-4.24 c -0.336,1.25 1.23,1.053 1.919,1.548 -0.203,-0.944 -0.697,-2.469 -1.919,-1.548 m 6.371,11.903 c 0.043,1.682 -0.836,2.163 -1.651,2.719 -6.241,-1.398 0.396,-10.629 -6.603,-13.187 -2.534,-0.927 -6.28,1.332 -8.117,-2.41 2.801,-1.427 9.605,-2.02 8.382,-5.589 1.475,0.296 2.529,0.073 3.093,-0.83 -0.296,-1.381 0.129,-3.307 -1.158,-3.979 -0.089,1.499 -1.443,1.341 -1.642,2.732 -1.443,-0.026 -3.858,0.425 -4.984,-0.69 3.482,-1.964 5.261,-6.161 9.114,-7.62 3.009,2.569 -2.005,8.262 1.86,10.838 -0.735,1.758 -1.207,4.324 1.493,4.439 0.635,-2.064 -0.487,-2.843 -0.183,-4.664 2.682,0.932 1.838,4.533 5.694,4.599 0.156,-7.42 -5.033,-10.787 -5.079,-18.052 -2.708,-2.136 -4.613,-6.542 -4.105,-9.888 1.551,-0.913 3.267,0.546 4.492,1.051 3.9,8.197 5.197,18.346 10.856,25.208 0.529,-4.532 -0.893,-7.231 -1.097,-10.293 1.867,0.072 2.106,1.356 1.655,3.186 1.903,2.897 3.856,5.766 3.652,10.235 -0.626,0.333 -0.999,0.985 -1.475,1.49 -0.973,-0.131 -1.945,-0.273 -2.91,-0.399 -1.292,-3.733 -3.765,-6.551 -5.833,-9.708 1.953,3.592 2.002,8.628 6.126,10.581 -1.32,5.814 3.226,18.423 -5.454,17.867 -1.699,-2.821 -5.589,-3.966 -6.126,-7.636"
             style="fill:#003670;fill-opacity:1;fill-rule:evenodd;stroke:none"
             id="path66"
             inkscape:connector-curvature="0" /></g><g
           id="g68"
           transform="translate(337.4731,88.7559)"><path
             d="M 0,0 C -3.826,-0.049 -3.074,-2.593 -6.639,-3.05 -5.974,0.059 -9.764,4.839 -9.368,8.041 -6.259,9.194 0.199,5.161 0,0"
             style="fill:#003670;fill-opacity:1;fill-rule:evenodd;stroke:none"
             id="path70"
             inkscape:connector-curvature="0" /></g><g
           id="g72"
           transform="translate(339.3374,80.6064)"><path
             d="m 0,0 c -12.023,1.139 -26.667,-4.825 -35.06,6.185 3.602,3.209 7.319,-0.591 11.392,0.964 C -16.147,4.065 -7.135,5.011 0.038,0.965 0.312,0.516 0.258,0.21 0,0"
             style="fill:#003670;fill-opacity:1;fill-rule:evenodd;stroke:none"
             id="path74"
             inkscape:connector-curvature="0" /></g><g
           id="g76"
           transform="translate(303.9683,58.6387)"><path
             d="M 0,0 C 1.355,0.473 1.726,1.806 2.799,3.187 2.418,4.487 1.308,3.832 0.516,4.03 3.861,5.718 6.257,9.114 8.035,10.342 7.691,8.176 3.702,6.795 6.505,4.401 4.998,2.373 4.53,-0.072 2.245,-1.819 1.628,-0.876 0.53,-1.185 0,0 m 10.148,3.705 c 1.765,-0.1 5.407,0.965 6.815,2.666 -0.149,2.568 -3.186,1.843 -2.802,2.987 2.75,0.395 6.206,2.744 8.752,2.61 C 23.852,19.92 12.605,16.46 8.209,16.129 7.034,16.721 7.762,18.214 6.382,19.063 1.603,15.138 -2.891,8.644 -0.457,4.065 -3.63,3.934 -7.311,2.496 -9.892,4.006 c -1.198,-2.52 -2.99,-5.924 -0.627,-7.902 3.244,0.774 5.515,2.058 8.17,2.813 2.938,-2.509 1.334,-7.359 4.531,-8.834 4.831,3.732 4.249,9.477 7.966,13.622"
             style="fill:#003670;fill-opacity:1;fill-rule:evenodd;stroke:none"
             id="path78"
             inkscape:connector-curvature="0" /></g><g
           id="g80"
           transform="translate(320.042,48.7783)"><path
             d="M 0,0 C -6.273,-1.661 -5.297,7.947 -2.902,11.261 2.839,11.824 2.814,2.743 0,0"
             style="fill:#003670;fill-opacity:1;fill-rule:evenodd;stroke:none"
             id="path82"
             inkscape:connector-curvature="0" /></g><g
           id="g84"
           transform="translate(381.5967,48.5176)"><path
             d="m 0,0 c 3.718,0.575 8.366,2.354 12.891,-0.436 -0.209,-0.69 0.013,-1.144 0.5,-1.466 -0.758,-3.334 -2.897,-4.31 -5.04,-5.258 -5.732,1.961 -9.19,0.714 -13.642,-0.675 -8.225,0.019 -10.646,-0.545 -18.891,4.734 2.27,4.407 8.592,1.757 12.854,2.684 4.632,3.947 9.699,7.137 12.752,13.792 -3.168,0.859 -12.519,-1.929 -13.223,4.073 6.715,1.921 15.114,0.976 20.952,4.431 C 13.3,20.938 14.696,18.496 15.54,15.691 10.115,10.897 3.952,5.473 0,0"
             style="fill:#003670;fill-opacity:1;fill-rule:evenodd;stroke:none"
             id="path86"
             inkscape:connector-curvature="0" /></g><g
           id="g88"
           transform="translate(250.5415,93.7314)"><path
             d="m 0,0 c 0.951,-3.915 7.089,-4.234 12.198,-5.279 0.594,-1.78 0.917,-2.277 0.088,-4.405 -6.212,-2.369 -15.223,2.981 -18.94,6.916 0.805,6.455 4.26,8.757 8.397,12.535 7.125,6.469 15.296,13.391 22.693,18.706 0.283,1.528 0.369,3.382 1.553,3.648 C 30.324,30.67 30.114,25.358 28.114,22.1 26.47,19.418 21.015,19.16 20.866,15.952 22.977,14.439 33.016,16.1 31.655,10.06 27.311,5.997 20.642,11.508 16.199,11.965 9.963,9.189 4.396,5.433 0,0"
             style="fill:#003670;fill-opacity:1;fill-rule:evenodd;stroke:none"
             id="path90"
             inkscape:connector-curvature="0" /></g><g
           id="g92"
           transform="translate(236.3325,109.8818)"><path
             d="M 0,0 C 2.802,0.075 6.926,1.086 6.444,4.101 4.033,3.45 -0.089,2.459 0,0 m -4.619,-11.005 c -0.777,2.593 1.606,3.719 2.691,5.21 -2.899,-0.207 -6.876,-1.704 -9.492,0.841 -0.878,4.788 2.862,4.978 5.702,7.313 4.064,3.319 5.864,8.085 10.568,9.925 1.025,1.663 -0.442,4.839 1.273,4.59 2.518,2.028 4.765,-4.208 6.308,-6.406 5.173,4.504 9.694,9.952 15.583,13.408 C 28.26,16.554 24.74,13.316 20.853,8.507 18.148,5.186 15.766,1.22 12.827,-1.875 11.258,-3.533 8.282,-4.962 6.233,-6.832 2.914,-9.817 1.173,-13.608 -4.619,-11.005"
             style="fill:#003670;fill-opacity:1;fill-rule:evenodd;stroke:none"
             id="path94"
             inkscape:connector-curvature="0" /></g></g></g><g
       id="g96"
       transform="matrix(0.24858885,0,0,0.24858885,80.178801,3.5035296)"><g
         id="g98"
         clip-path="url(#clipPath102)"><g
           id="g104"
           transform="translate(179.0073,128.792)"><path
             d="m 0,0 c 0,0 84.106,68.679 233.012,36.004 0,0 128.187,-30.952 194.747,34.636 l 1.005,-12.929 C 357.546,-7.652 225.25,24.533 225.25,24.533 l -0.172,0.041 C 91.855,52.232 8.443,-8.208 8.443,-8.208 Z"
             style="fill:#ffffff;fill-opacity:1;fill-rule:nonzero;stroke:none"
             id="path106"
             inkscape:connector-curvature="0" /></g><g
           id="g108"
           transform="translate(224.6621,134.8965)"><path
             d="m 0,0 c 0,0 86.91,26.457 179.691,9.493 0,0 148.255,-30.815 186.816,44.768 l 7.327,-18.257 C 324.146,-32.212 170.396,-2.361 170.396,-2.361 80.132,11.285 19.694,-17.08 19.694,-17.08 Z"
             style="fill:#ffffff;fill-opacity:1;fill-rule:nonzero;stroke:none"
             id="path110"
             inkscape:connector-curvature="0" /></g><g
           id="g112"
           transform="translate(238.1836,94.6934)"><path
             d="m 0,0 c 0,0 58.869,45.99 176.59,26.5 0,0 126.053,-21.94 172.339,55.913 l 0.535,-17.31 C 295.81,-10.218 175.048,14.461 175.048,14.461 62.857,34.585 22.68,-6.241 22.68,-6.241 Z"
             style="fill:#ffffff;fill-opacity:1;fill-rule:nonzero;stroke:none"
             id="path114"
             inkscape:connector-curvature="0" /></g></g></g><g
       id="g116"
       transform="matrix(0.24858885,0,0,0.24858885,80.178801,3.5035296)"><g
         id="g118"
         clip-path="url(#clipPath122)"><g
           id="g124"
           transform="translate(354.4004,411.7427)"><path
             d="M 0,0 50.389,50.016 113.945,-15.36 130.73,1.223 53.71,80.45 c -3.209,3.492 -6.1,0.064 -6.1,0.064 L -33.57,0.788 46.267,-81.768 96.454,-32.263 54.166,11.237 37.374,-5.322 63.216,-31.917 46.67,-48.25 Z"
             style="fill:#ffffff;fill-opacity:1;fill-rule:nonzero;stroke:none"
             id="path126"
             inkscape:connector-curvature="0" /></g><g
           id="g128"
           transform="translate(599.751,299.7129)"><path
             d="m 0,0 -100.007,97.067 -167.419,-165.888 -77.4,78.262 53.608,53.028 41.498,-42.767 -16.572,-15.989 -22.506,23.039 -17.395,-17.149 39.545,-40.585 51.352,50.337 -75.587,77.809 -79.682,-78.819 -5.559,-5.494 c -3.272,-3.284 -0.063,-6.137 -0.063,-6.137 l 5.53,-5.629 102.899,-104.628 167.571,166.022 68.708,-65.268 -58.72,-58.912 -32.796,33.006 20.718,20.47 15.831,-16.397 17.459,17.071 -32.881,34.08 -55.734,-55.069 67.365,-67.78 90.157,90.411 C 3.399,-2.722 0,0 0,0"
             style="fill:#ffffff;fill-opacity:1;fill-rule:nonzero;stroke:none"
             id="path130"
             inkscape:connector-curvature="0" /></g><g
           id="g132"
           transform="translate(197.7588,187.207)"><path
             d="M 0,0 C -1.257,2.915 -3.083,3.694 -5.48,2.358 -8.047,1.136 -8.529,-0.825 -6.888,-3.555 l 2.038,-3.964 6.9,3.542 z m -11.256,-5.804 c -1.137,2.211 -2.707,2.816 -4.681,1.806 -2.049,-1.059 -2.52,-2.706 -1.381,-4.915 l 2.047,-3.977 6.062,3.113 z m 20.309,-1.04 -26.054,-13.418 -4.617,8.963 c -2.801,5.474 -2.024,9.498 2.348,12.065 2.778,1.313 5.37,0.865 7.812,-1.333 l 0.138,0.078 c -0.814,3.898 0.542,6.813 4.051,8.721 C -2.9,10.161 0.989,8.125 4.445,2.125 Z"
             style="fill:#003670;fill-opacity:1;fill-rule:nonzero;stroke:none"
             id="path134"
             inkscape:connector-curvature="0" /></g><g
           id="g136"
           transform="translate(168.6968,191.2852)"><path
             d="M 0,0 -6.569,16.591 -2,18.392 2.446,7.142 8.78,9.665 l -4.125,10.43 4.555,1.813 4.135,-10.44 7.212,2.847 -4.605,11.656 4.569,1.805 6.729,-17.015 z"
             style="fill:#003670;fill-opacity:1;fill-rule:nonzero;stroke:none"
             id="path138"
             inkscape:connector-curvature="0" /></g><g
           id="g140"
           transform="translate(186.1543,228.9385)"><path
             d="m 0,0 1.744,-5.494 -27.945,-8.84 -1.739,5.483 z"
             style="fill:#003670;fill-opacity:1;fill-rule:nonzero;stroke:none"
             id="path142"
             inkscape:connector-curvature="0" /></g><g
           id="g144"
           transform="translate(152.4854,241.916)"><path
             d="m 0,0 19.077,4.664 c 6.283,1.433 10.21,-0.65 11.815,-6.306 1.443,-5.47 -0.962,-9.127 -7.261,-10.967 l -1.37,5.61 c 3.482,0.838 4.977,2.294 4.469,4.345 -0.444,1.861 -2.442,2.504 -6.01,1.936 -0.202,-0.048 -0.36,-0.086 -0.461,-0.109 L 1.333,-5.46 Z"
             style="fill:#003670;fill-opacity:1;fill-rule:nonzero;stroke:none"
             id="path146"
             inkscape:connector-curvature="0" /></g><g
           id="g148"
           transform="translate(179.1162,259.3701)"><path
             d="m 0,0 1.001,-5.688 -28.878,-5.039 -0.988,5.681 z"
             style="fill:#003670;fill-opacity:1;fill-rule:nonzero;stroke:none"
             id="path150"
             inkscape:connector-curvature="0" /></g><g
           id="g152"
           transform="translate(176.7222,279.8271)"><path
             d="m 0,0 -23.37,-12.499 0.157,-0.115 24.151,2.133 0.455,-5.309 -29.183,-2.591 -0.743,8.461 22.138,12.083 -0.171,0.14 -22.879,-2.039 -0.472,5.308 29.189,2.591 z"
             style="fill:#003670;fill-opacity:1;fill-rule:nonzero;stroke:none"
             id="path154"
             inkscape:connector-curvature="0" /></g><g
           id="g156"
           transform="translate(165.5488,305.5483)"><path
             d="m 0,0 -4.916,0.175 0.373,10.79 14.729,-0.492 c 0.556,-1.94 0.802,-3.914 0.739,-5.927 0.162,-1.561 0.198,-3.579 0.11,-6.067 -0.787,-8.146 -5.899,-12.145 -15.295,-12.023 -9.592,0.504 -14.567,4.852 -14.941,13.044 0.287,8.343 3.595,12.365 9.915,12.045 L -9.483,5.516 c -3.272,0.1 -4.964,-1.623 -5.086,-5.167 -0.061,-4.892 3.445,-7.51 10.52,-7.846 C 2.913,-7.644 6.53,-5.261 6.805,-0.371 6.853,1.075 6.69,2.749 6.334,4.691 6.446,4.583 6.446,4.681 6.348,4.962 L 0.173,5.18 Z"
             style="fill:#003670;fill-opacity:1;fill-rule:nonzero;stroke:none"
             id="path158"
             inkscape:connector-curvature="0" /></g><g
           id="g160"
           transform="translate(151.521,347.0225)"><path
             d="M 0,0 4.988,21.014 9.756,19.875 7.926,12.174 31.66,6.529 30.322,0.935 6.605,6.566 4.767,-1.134 Z"
             style="fill:#003670;fill-opacity:1;fill-rule:nonzero;stroke:none"
             id="path162"
             inkscape:connector-curvature="0" /></g><g
           id="g164"
           transform="translate(158.1157,373.2837)"><path
             d="M 0,0 5.752,16.887 10.394,15.31 6.493,3.853 12.954,1.663 16.567,12.297 21.224,10.693 17.595,0.075 24.938,-2.432 28.99,9.42 33.633,7.84 27.72,-9.469 Z"
             style="fill:#003670;fill-opacity:1;fill-rule:nonzero;stroke:none"
             id="path166"
             inkscape:connector-curvature="0" /></g><g
           id="g168"
           transform="translate(181.6753,407.3232)"><path
             d="m 0,0 c -3.348,1.308 -5.743,0.519 -7.202,-2.424 -1.122,-2.961 1.444,-5.986 7.694,-9.046 6.333,-2.682 10.247,-2.62 11.752,0.169 1.31,3.101 0.351,5.449 -2.875,7.018 l 2.506,5.505 c 5.741,-2.936 7.161,-7.703 4.26,-14.296 -3.174,-6.46 -9.223,-7.755 -18.15,-3.905 -8.904,4.394 -12.025,9.891 -9.36,16.471 3.051,6.422 7.67,8.421 13.88,6.013 z"
             style="fill:#003670;fill-opacity:1;fill-rule:nonzero;stroke:none"
             id="path170"
             inkscape:connector-curvature="0" /></g><g
           id="g172"
           transform="translate(203.8486,407.667)"><path
             d="m 0,0 -25.189,14.982 2.865,4.825 9.938,-5.913 5.162,8.662 -9.926,5.919 2.938,4.952 L 10.962,18.435 8.101,13.604 -2.927,20.175 -8.149,11.384 2.861,4.826 Z"
             style="fill:#003670;fill-opacity:1;fill-rule:nonzero;stroke:none"
             id="path174"
             inkscape:connector-curvature="0" /></g><g
           id="g176"
           transform="translate(227.0962,442.7168)"><path
             d="m 0,0 -25.656,6.607 0.036,-0.21 19.223,-14.74 -3.222,-4.226 -23.259,17.819 5.173,6.744 L -3.224,5.93 -3.271,6.126 -21.496,20.105 -18.261,24.34 5.001,6.51 Z"
             style="fill:#003670;fill-opacity:1;fill-rule:nonzero;stroke:none"
             id="path178"
             inkscape:connector-curvature="0" /></g><g
           id="g180"
           transform="translate(228.3296,466.5625)"><path
             d="M 0,0 C 5.041,-4.952 9.15,-5.814 12.313,-2.606 15.399,0.529 14.421,4.589 9.372,9.552 4.26,14.576 0.148,15.522 -2.95,12.37 -6.111,9.159 -5.124,5.035 0,0 m -4.247,-4.326 c -6.95,7.236 -7.617,13.872 -1.988,19.923 5.881,5.661 12.497,5.091 19.856,-1.736 C 20.338,6.852 20.928,0.368 15.362,-5.607 9.36,-11.424 2.829,-10.992 -4.247,-4.326"
             style="fill:#003670;fill-opacity:1;fill-rule:nonzero;stroke:none"
             id="path182"
             inkscape:connector-curvature="0" /></g><g
           id="g184"
           transform="translate(255.6035,472.855)"><path
             d="m 0,0 -18.63,22.61 4.334,3.566 15.506,-18.814 8.889,7.322 3.126,-3.794 z"
             style="fill:#003670;fill-opacity:1;fill-rule:nonzero;stroke:none"
             id="path186"
             inkscape:connector-curvature="0" /></g><g
           id="g188"
           transform="translate(267.6436,500.7871)"><path
             d="m 0,0 c 3.9,-5.914 7.727,-7.62 11.496,-5.124 3.69,2.435 3.577,6.606 -0.324,12.497 -3.95,5.996 -7.777,7.774 -11.458,5.341 C -4.064,10.221 -3.964,5.989 0,0 m -5.051,-3.345 c -5.284,8.543 -4.545,15.17 2.234,19.891 6.929,4.316 13.274,2.367 19.039,-5.829 C 21.334,2.444 20.557,-4.024 13.851,-8.708 6.78,-13.127 0.469,-11.349 -5.051,-3.345"
             style="fill:#003670;fill-opacity:1;fill-rule:nonzero;stroke:none"
             id="path190"
             inkscape:connector-curvature="0" /></g><g
           id="g192"
           transform="translate(301.9033,516.5645)"><path
             d="M 0,0 -2.185,4.395 7.484,9.212 14.052,-3.963 C 12.605,-5.38 10.99,-6.557 9.2,-7.447 7.903,-8.322 6.161,-9.309 3.916,-10.435 -3.628,-13.595 -9.58,-11.023 -13.937,-2.691 -18.049,6 -16.604,12.435 -9.58,16.645 -2.097,20.369 3,19.375 5.743,13.665 L 0.334,10.964 c -1.455,2.926 -3.777,3.607 -6.965,2.025 -4.33,-2.283 -4.975,-6.62 -1.887,-12.989 3.185,-6.197 7,-8.247 11.431,-6.16 1.296,0.655 2.691,1.577 4.223,2.828 -0.035,-0.149 0.052,-0.099 0.26,0.121 l -2.765,5.53 z"
             style="fill:#003670;fill-opacity:1;fill-rule:nonzero;stroke:none"
             id="path194"
             inkscape:connector-curvature="0" /></g><g
           id="g196"
           transform="translate(324.4863,525.0322)"><path
             d="M 0,0 -15.335,15.485 -8.977,17.804 0.802,7.053 1.433,21.622 6.851,23.6 5.27,1.93 8.542,-6.984 3.27,-8.911 Z"
             style="fill:#003670;fill-opacity:1;fill-rule:nonzero;stroke:none"
             id="path198"
             inkscape:connector-curvature="0" /></g><g
           id="g200"
           transform="translate(377.5879,540.2085)"><path
             d="m 0,0 -5.455,11.828 -0.14,-0.023 -1.961,-12.951 z m -14.694,-13.459 5.112,30.436 6.68,1.014 13.681,-27.559 -5.69,-0.866 -2.927,5.802 -10.397,-1.592 -1.051,-6.407 z"
             style="fill:#003670;fill-opacity:1;fill-rule:nonzero;stroke:none"
             id="path202"
             inkscape:connector-curvature="0" /></g><g
           id="g204"
           transform="translate(406.8984,531.3555)"><path
             d="m 0,0 -11.17,24.041 -0.137,-0.175 0.801,-24.223 -5.322,-0.176 -0.976,29.301 8.498,0.273 L 2.533,6.262 2.668,6.434 1.904,29.383 7.222,29.558 8.202,0.274 Z"
             style="fill:#003670;fill-opacity:1;fill-rule:nonzero;stroke:none"
             id="path206"
             inkscape:connector-curvature="0" /></g><g
           id="g208"
           transform="translate(425.6572,535.8628)"><path
             d="m 0,0 3.01,-0.274 c 5.233,-0.653 8.1,2.335 8.565,8.975 0.654,6.72 -1.641,10.217 -6.927,10.449 L 1.634,19.411 Z M -3.535,24.77 5.5,24.002 C 14.281,23.151 18.333,17.892 17.602,8.2 16.704,-1.372 11.85,-5.837 3.034,-5.199 l -9.044,0.767 z"
             style="fill:#003670;fill-opacity:1;fill-rule:nonzero;stroke:none"
             id="path210"
             inkscape:connector-curvature="0" /></g><g
           id="g212"
           transform="translate(481.6729,538.7388)"><path
             d="M 0,0 C 2.392,-0.703 3.898,0.011 4.514,2.148 5.161,4.37 4.307,5.825 1.899,6.533 L -2.389,7.791 -4.277,1.246 Z m -3.558,-12.165 c 2.986,-1.093 4.827,-0.303 5.496,2.364 0.888,2.702 -0.215,4.394 -3.322,5.086 l -4.272,1.235 -2.19,-7.435 z m -11.179,-1.872 8.194,28.151 9.673,-2.826 C 9.036,9.568 11.405,6.236 10.267,1.295 9.315,-1.617 7.211,-3.196 3.937,-3.47 L 3.898,-3.605 C 7.289,-5.704 8.466,-8.69 7.435,-12.555 5.83,-17.05 1.671,-18.468 -5.064,-16.838 Z"
             style="fill:#003670;fill-opacity:1;fill-rule:nonzero;stroke:none"
             id="path214"
             inkscape:connector-curvature="0" /></g><g
           id="g216"
           transform="translate(523.3291,535.7134)"><path
             d="m 0,0 -7.09,-16.951 c -3.071,-6.616 -8.058,-8.592 -14.958,-5.937 -6.919,3.121 -9.052,8.086 -6.424,14.877 l 7.077,16.953 5.32,-2.222 -6.177,-14.767 c -1.416,-3.174 -2.002,-5.507 -1.69,-7.027 0.32,-1.718 1.494,-3.011 3.544,-3.876 2.034,-0.84 3.738,-0.753 5.099,0.27 1.301,0.854 2.556,2.891 3.816,6.137 L -5.319,2.21 Z"
             style="fill:#003670;fill-opacity:1;fill-rule:nonzero;stroke:none"
             id="path218"
             inkscape:connector-curvature="0" /></g><g
           id="g220"
           transform="translate(539.2646,517.6523)"><path
             d="m 0,0 c 1.35,2.631 0.817,4.628 -1.606,5.962 -2.555,1.185 -4.42,0.78 -5.626,-1.213 -1.263,-1.839 -0.495,-3.822 2.273,-5.973 0.066,-0.049 0.273,-0.209 0.553,-0.482 4.772,-4.247 6.147,-8.083 4.094,-11.557 -3.043,-5.298 -7.893,-6.21 -14.535,-2.752 -6.043,3.36 -7.448,7.828 -4.237,13.408 l 5.032,-2.79 c -1.655,-2.963 -1.222,-5.26 1.28,-6.89 3.068,-1.593 5.236,-1.357 6.488,0.73 0.989,1.75 0.199,3.767 -2.378,6.051 -0.37,0.322 -0.615,0.58 -0.731,0.779 -4.401,4.133 -5.647,7.911 -3.74,11.33 3.171,5.101 7.975,6.111 14.383,3.027 C 6.129,6.567 7.316,2.456 4.783,-2.668 Z"
             style="fill:#003670;fill-opacity:1;fill-rule:nonzero;stroke:none"
             id="path222"
             inkscape:connector-curvature="0" /></g><g
           id="g224"
           transform="translate(542.6963,490.7949)"><path
             d="m 0,0 -4.796,3.187 16.121,24.46 4.821,-3.175 z"
             style="fill:#003670;fill-opacity:1;fill-rule:nonzero;stroke:none"
             id="path226"
             inkscape:connector-curvature="0" /></g><g
           id="g228"
           transform="translate(559.2314,478.5161)"><path
             d="M 0,0 6.95,25.576 6.728,25.542 -8.26,6.502 -12.446,9.799 5.68,32.812 12.346,27.568 5.978,3.154 6.195,3.192 20.377,21.245 24.584,17.945 6.456,-5.091 Z"
             style="fill:#003670;fill-opacity:1;fill-rule:nonzero;stroke:none"
             id="path230"
             inkscape:connector-curvature="0" /></g><g
           id="g232"
           transform="translate(589.3154,491.3916)"><path
             d="m 0,0 12.755,-12.51 -3.437,-3.496 -8.632,8.477 -4.775,-4.866 8.02,-7.867 -3.431,-3.506 -8.023,7.865 -5.433,-5.527 8.921,-8.797 -3.429,-3.496 -13.047,12.808 z"
             style="fill:#003670;fill-opacity:1;fill-rule:nonzero;stroke:none"
             id="path234"
             inkscape:connector-curvature="0" /></g><g
           id="g236"
           transform="translate(610.1494,456.7422)"><path
             d="M 0,0 C 2.219,1.978 2.435,4.017 0.645,6.164 -1.298,8.168 -3.187,8.458 -5.03,7.04 -6.862,5.785 -6.879,3.657 -5.081,0.655 -5.024,0.585 -4.903,0.36 -4.729,0 c 2.942,-5.677 2.83,-9.761 -0.301,-12.255 -4.798,-3.842 -9.646,-2.955 -14.603,2.663 -4.423,5.314 -4.122,10.003 0.89,14.055 l 3.694,-4.431 c -2.623,-2.163 -3.031,-4.463 -1.301,-6.881 2.295,-2.595 4.405,-3.135 6.323,-1.663 1.56,1.282 1.537,3.455 -0.036,6.502 -0.239,0.435 -0.373,0.763 -0.403,0.989 -2.605,5.43 -2.409,9.412 0.592,11.916 4.82,3.63 9.638,2.84 14.517,-2.348 C 8.085,3.915 7.692,-0.331 3.512,-4.208 Z"
             style="fill:#003670;fill-opacity:1;fill-rule:nonzero;stroke:none"
             id="path238"
             inkscape:connector-curvature="0" /></g><g
           id="g240"
           transform="translate(625.7275,435.1021)"><path
             d="M 0,0 C 2.399,1.714 2.829,3.729 1.284,6.048 -0.433,8.249 -2.295,8.743 -4.285,7.534 -6.23,6.457 -6.448,4.348 -4.984,1.172 c 0.062,-0.081 0.153,-0.307 0.282,-0.691 2.316,-5.951 1.77,-10.003 -1.612,-12.139 -5.14,-3.332 -9.882,-1.924 -14.21,4.173 -3.84,5.755 -3.067,10.384 2.336,13.872 l 3.225,-4.794 c -2.829,-1.875 -3.49,-4.1 -2.005,-6.703 2.005,-2.813 4.036,-3.582 6.108,-2.308 1.663,1.112 1.87,3.27 0.633,6.467 -0.173,0.457 -0.29,0.801 -0.302,1.013 -2.024,5.688 -1.425,9.632 1.853,11.803 5.159,3.098 9.888,1.817 14.19,-3.853 C 8.437,3.036 7.625,-1.145 3.025,-4.557 Z"
             style="fill:#003670;fill-opacity:1;fill-rule:nonzero;stroke:none"
             id="path242"
             inkscape:connector-curvature="0" /></g><g
           id="g244"
           transform="translate(659.7188,385.2827)"><path
             d="m 0,0 -17.011,-6.926 c -6.853,-2.467 -11.773,-0.331 -14.753,6.432 -2.66,7.115 -0.661,12.112 6.022,15.049 l 17.017,6.929 2.174,-5.331 -14.823,-6.045 c -3.267,-1.217 -5.319,-2.477 -6.172,-3.751 -1.01,-1.442 -1.091,-3.181 -0.255,-5.231 0.827,-2.053 2.096,-3.187 3.791,-3.434 1.489,-0.336 3.84,0.223 7.021,1.618 l 14.832,6.026 z"
             style="fill:#003670;fill-opacity:1;fill-rule:nonzero;stroke:none"
             id="path246"
             inkscape:connector-curvature="0" /></g><g
           id="g248"
           transform="translate(638.3828,354.1343)"><path
             d="m 0,0 20.833,16.406 -0.204,0.099 -23.37,-6.346 -1.407,5.134 28.281,7.687 2.224,-8.191 L 6.688,-1.016 6.881,-1.115 29.042,4.912 30.447,-0.226 2.168,-7.916 Z"
             style="fill:#003670;fill-opacity:1;fill-rule:nonzero;stroke:none"
             id="path250"
             inkscape:connector-curvature="0" /></g><g
           id="g252"
           transform="translate(642.2383,335.9473)"><path
             d="m 0,0 -1.043,5.667 28.822,5.285 1.042,-5.667 z"
             style="fill:#003670;fill-opacity:1;fill-rule:nonzero;stroke:none"
             id="path254"
             inkscape:connector-curvature="0" /></g><g
           id="g256"
           transform="translate(672.167,336.208)"><path
             d="m 0,0 0.647,-6.147 -22.317,-9.254 0.009,-0.119 23.722,-4.535 0.572,-5.591 -30.154,6.766 -0.616,6.163 z"
             style="fill:#003670;fill-opacity:1;fill-rule:nonzero;stroke:none"
             id="path258"
             inkscape:connector-curvature="0" /></g><g
           id="g260"
           transform="translate(674.875,305.0488)"><path
             d="m 0,0 -0.062,-17.87 -4.919,0.021 0.053,12.102 -6.816,0.013 -0.054,-11.226 -4.9,0.017 0.037,11.219 -7.768,0.041 -0.029,-12.534 -4.92,0.011 0.063,18.287 z"
             style="fill:#003670;fill-opacity:1;fill-rule:nonzero;stroke:none"
             id="path262"
             inkscape:connector-curvature="0" /></g><g
           id="g264"
           transform="translate(661.2686,275.1387)"><path
             d="m 0,0 -0.499,-4.742 c -0.282,-2.665 0.94,-4.159 3.676,-4.431 2.522,-0.261 3.871,0.936 4.046,3.63 l 0.492,4.731 z m -16.553,1.72 0.607,5.712 29.141,-3.039 -1.179,-11.309 c -0.736,-5.997 -3.571,-8.786 -8.517,-8.369 -3.78,0.478 -5.946,2.547 -6.532,6.172 l -0.158,0.026 c -0.407,-2.953 -2.73,-4.299 -6.946,-4.059 -0.44,-0.051 -0.753,-0.076 -0.959,-0.039 -3.504,0.076 -5.852,-0.161 -7.083,-0.716 l 0.643,6.163 c 2.593,0.303 5.247,0.379 7.976,0.17 2.553,-0.046 3.899,0.617 4.034,2.049 l 0.633,6.011 z"
             style="fill:#003670;fill-opacity:1;fill-rule:nonzero;stroke:none"
             id="path266"
             inkscape:connector-curvature="0" /></g><g
           id="g268"
           transform="translate(659.9932,239.6914)"><path
             d="M 0,0 C 2.926,-0.505 4.667,0.597 5.252,3.308 5.618,6.086 4.667,7.757 2.415,8.321 0.295,8.977 -1.397,7.652 -2.631,4.396 -2.646,4.296 -2.744,4.073 -2.927,3.716 -5.57,-2.099 -8.824,-4.552 -12.73,-3.625 c -5.973,1.354 -8.287,5.713 -6.949,13.083 1.424,6.768 5.283,9.433 11.57,8.015 l -1.217,-5.632 c -3.292,0.707 -5.358,-0.379 -6.18,-3.273 -0.594,-3.382 0.258,-5.387 2.614,-5.983 1.964,-0.414 3.657,0.945 5.094,4.073 0.181,0.456 0.363,0.766 0.5,0.924 2.652,5.422 5.901,7.731 9.713,6.927 5.847,-1.531 8.225,-5.798 7.174,-12.854 -1.502,-5.553 -5.068,-7.888 -10.715,-7 z"
             style="fill:#003670;fill-opacity:1;fill-rule:nonzero;stroke:none"
             id="path270"
             inkscape:connector-curvature="0" /></g><g
           id="g272"
           transform="translate(635.3896,228.5029)"><path
             d="M 0,0 1.596,5.538 29.74,-2.638 28.137,-8.184 Z"
             style="fill:#003670;fill-opacity:1;fill-rule:nonzero;stroke:none"
             id="path274"
             inkscape:connector-curvature="0" /></g><g
           id="g276"
           transform="translate(662.2412,215.542)"><path
             d="m 0,0 -7.469,-20.262 -4.624,1.704 2.746,7.421 -22.879,8.445 1.984,5.409 22.891,-8.443 2.744,7.429 z"
             style="fill:#003670;fill-opacity:1;fill-rule:nonzero;stroke:none"
             id="path278"
             inkscape:connector-curvature="0" /></g><g
           id="g280"
           transform="translate(631.5449,192.2578)"><path
             d="m 0,0 21.766,-0.519 -2.955,-6.077 -14.501,0.978 9.656,-10.941 -2.521,-5.185 -13.918,16.682 -8.538,4.172 2.469,5.036 z"
             style="fill:#003670;fill-opacity:1;fill-rule:nonzero;stroke:none"
             id="path282"
             inkscape:connector-curvature="0" /></g><g
           id="g284"
           transform="translate(374.8252,216.6172)"><path
             d="m 0,0 c -2.039,-1.604 -4.239,-3.007 -6.562,-4.173 l -0.577,-0.299 v -7.966 l 1.453,0.631 c 1.72,0.732 3.338,1.623 4.842,2.658 V -30.966 H 7.062 V 0.209 H 0.285 Z"
             style="fill:#ffffff;fill-opacity:1;fill-rule:nonzero;stroke:none"
             id="path286"
             inkscape:connector-curvature="0" /></g><g
           id="g288"
           transform="translate(403.0693,206.9492)"><path
             d="m 0,0 c -0.118,-3.828 -1.811,-3.917 -2.402,-3.928 -0.806,0 -2.698,0 -2.698,3.891 0,4.175 1.857,4.224 2.671,4.224 C -1.773,4.148 -0.135,4.025 0,0 m -2.467,10.546 -0.311,-0.014 c -6.355,-0.469 -9.947,-4.21 -10.366,-10.833 l -0.016,-0.08 0.016,-0.086 c 0.532,-5.814 3.589,-9.216 8.899,-9.802 1.558,-0.102 2.987,0.205 4.288,0.887 -0.051,-3.393 -0.755,-4.892 -1.387,-5.554 -0.429,-0.46 -0.948,-0.668 -1.652,-0.668 -0.336,0 -1.373,0 -1.818,2.743 l -0.146,0.876 h -7.765 l 0.011,-1.068 c 0.075,-3.912 1.789,-8.579 9.517,-8.579 h 0.349 c 3.864,0 6.717,1.497 8.517,4.447 1.604,2.711 2.335,7.199 2.233,13.679 C 7.964,1.766 6.838,5.616 4.557,7.927 2.843,9.668 0.489,10.546 -2.467,10.546"
             style="fill:#ffffff;fill-opacity:1;fill-rule:nonzero;stroke:none"
             id="path290"
             inkscape:connector-curvature="0" /></g><g
           id="g292"
           transform="translate(430.3701,207.124)"><path
             d="m 0,0 c -1.416,0 -2.692,-0.319 -3.817,-0.951 l 0.173,4.481 h 11.25 v 6.172 h -18.17 l -0.847,-19.133 7.548,-0.239 0.219,0.79 c 0.594,2.093 1.567,2.456 2.285,2.518 1.077,-0.108 2.482,-0.726 2.703,-4.221 -0.244,-4.952 -2.136,-5.162 -2.835,-5.196 -0.91,0.061 -1.978,0.443 -2.268,2.702 l -0.118,0.917 h -7.671 l 0.057,-1.078 c 0.137,-3.826 1.982,-8.42 9.823,-8.569 h 0.048 0.054 c 6.429,0.471 10.14,4.149 10.677,10.753 C 8.977,-2.214 4.111,-0.164 0,0"
             style="fill:#ffffff;fill-opacity:1;fill-rule:nonzero;stroke:none"
             id="path294"
             inkscape:connector-curvature="0" /></g><g
           id="g296"
           transform="translate(456.7793,201.1563)"><path
             d="m 0,0 c 0,-8.998 -1.875,-9.788 -2.354,-9.812 -0.585,0.024 -2.45,0.798 -2.45,9.812 0,8.904 1.779,9.904 2.397,9.979 C -1.776,9.904 0,8.904 0,0 m -2.577,16.339 c -6.513,-0.134 -9.917,-5.623 -10.132,-16.36 0.215,-10.369 3.619,-15.697 10.132,-15.818 h 0.024 0.025 C 4.388,-15.718 7.95,-10.39 8.05,0.017 7.835,10.716 4.285,16.205 -2.577,16.339"
             style="fill:#ffffff;fill-opacity:1;fill-rule:nonzero;stroke:none"
             id="path298"
             inkscape:connector-curvature="0" /></g></g></g></g></svg>