<?xml version="1.0" encoding="UTF-8" standalone="no"?>
<svg
   xmlns:dc="http://purl.org/dc/elements/1.1/"
   xmlns:cc="http://creativecommons.org/ns#"
   xmlns:rdf="http://www.w3.org/1999/02/22-rdf-syntax-ns#"
   xmlns:svg="http://www.w3.org/2000/svg"
   xmlns="http://www.w3.org/2000/svg"
   viewBox="0 0 250.66667 266.66666"
   height="266.66666"
   width="250.66667"
   xml:space="preserve"
   id="svg2"
   version="1.1"><metadata
     id="metadata8"><rdf:RDF><cc:Work
         rdf:about=""><dc:format>image/svg+xml</dc:format><dc:type
           rdf:resource="http://purl.org/dc/dcmitype/StillImage" /></cc:Work></rdf:RDF></metadata><defs
     id="defs6"><clipPath
       id="clipPath18"
       clipPathUnits="userSpaceOnUse"><path
         id="path16"
         d="M 0,200 H 188 V 0 H 0 Z" /></clipPath></defs><g
     transform="matrix(1.3333333,0,0,-1.3333333,0,266.66667)"
     id="g10"><g
       id="g12"><g
         clip-path="url(#clipPath18)"
         id="g14"><g
           transform="translate(132.0198,64.6837)"
           id="g20"><path
             id="path22"
             style="fill:#0e863e;fill-opacity:1;fill-rule:nonzero;stroke:none"
             d="M 0,0 C 0.058,-0.013 0.117,-0.027 0.175,-0.04 0.358,0.494 0.52,1.038 0.73,1.564 1.824,4.32 2.419,7.208 2.31,10.145 2.217,12.585 1.657,15.009 1.346,17.443 1.248,18.24 0.866,18.405 0.109,18.5 c -1.58,0.199 -3.162,0.497 -4.686,0.937 -1.009,0.29 -1.925,0.898 -2.926,1.386 0,-0.778 0.119,-1.518 -0.021,-2.214 -0.34,-1.665 0.515,-2.639 1.701,-3.595 C -1.744,11.725 0.353,7.479 0.117,2.18 0.088,1.452 0.04,0.727 0,0 m -9.247,8.249 c -0.991,-1.811 -1.907,-3.454 -2.783,-5.121 -0.119,-0.226 -0.117,-0.585 -0.04,-0.845 0.507,-1.675 1.046,-3.335 1.575,-4.999 1.157,-3.619 1.144,-7.211 -0.492,-10.681 -0.788,-1.681 -1.797,-3.263 -2.729,-4.936 5.435,3.927 9.548,8.913 12.46,15.043 -4.057,2.865 -6.717,6.688 -7.991,11.539 m -91.302,-7.216 c 2.116,-1.028 4.052,-2.231 6.157,-2.923 3.019,-0.994 6.141,-1.689 9.253,-2.363 4.134,-0.898 7.962,-2.385 11.18,-5.202 0.404,-0.355 0.699,-0.847 1.046,-1.269 0.093,0.082 0.192,0.17 0.285,0.252 -0.338,0.502 -0.672,1.004 -1.017,1.501 -3.054,4.378 -5.141,9.183 -6.327,14.377 -0.149,0.655 -0.396,1.064 -1.057,1.396 -4.065,2.039 -6.977,5.204 -8.974,9.277 -1.33,2.711 -2.682,5.419 -4.195,8.026 -0.828,1.418 -2.018,2.626 -3.021,4.105 1.598,-0.611 3.268,-1.081 4.776,-1.867 2.31,-1.202 4.559,-2.538 6.733,-3.969 2.719,-1.784 4.272,-4.455 5.196,-7.519 0.082,-0.263 0.146,-0.526 0.356,-0.813 0.191,0.877 0.297,1.779 0.587,2.618 1.117,3.277 2.28,6.534 3.464,9.787 0.165,0.454 0.125,0.687 -0.257,0.969 -3.632,2.689 -5.849,6.3 -6.972,10.647 -0.866,3.353 -1.692,6.73 -3.492,9.749 -0.345,0.576 -0.695,1.155 -1.043,1.731 0.045,0.053 0.096,0.111 0.143,0.167 0.924,-0.531 1.888,-1.006 2.767,-1.606 2.963,-2.031 5.682,-4.352 7.856,-7.24 1.407,-1.872 2.1,-4.06 2.212,-6.354 0.095,-1.97 -0.128,-3.953 -0.207,-5.894 -0.069,-0.048 0.039,-0.013 0.069,0.05 1.455,3.208 2.979,6.386 4.325,9.638 1.654,3.983 1.027,7.928 -0.579,11.78 -0.106,0.25 -0.356,0.489 -0.6,0.622 -2.995,1.622 -5.27,3.929 -6.821,6.972 -1.362,2.668 -2.527,5.456 -4.49,7.771 -0.565,0.669 -1.189,1.285 -1.691,2.116 0.733,-0.204 1.482,-0.358 2.191,-0.621 2.748,-1.022 5.344,-2.358 7.686,-4.118 2.751,-2.066 4.139,-4.954 4.476,-8.324 0.146,-1.42 0.016,-2.867 0.035,-4.303 0.005,-0.231 0.127,-0.468 0.228,-0.688 1.434,-3.25 2.201,-6.624 1.208,-10.11 -0.671,-2.361 -1.688,-4.633 -2.642,-6.903 -0.942,-2.255 -1.996,-4.456 -2.992,-6.686 -0.077,-0.167 -0.095,-0.358 -0.008,-0.619 0.491,0.574 0.919,1.224 1.484,1.702 1.655,1.394 3.309,2.799 5.069,4.049 2.514,1.79 4.752,3.824 6.494,6.38 0.045,0.064 0.122,0.107 0.375,0.322 -0.093,-0.871 -0.12,-1.567 -0.25,-2.241 -0.675,-3.449 -1.861,-6.739 -3.388,-9.893 -1.874,-3.884 -5.114,-6.024 -9.282,-6.831 -0.674,-0.133 -1.375,-0.21 -2.06,-0.197 -0.783,0.014 -1.168,-0.284 -1.277,-1.062 -0.266,-1.864 -0.606,-3.717 -0.839,-5.586 -0.507,-4.07 0.462,-7.909 1.959,-11.65 0.029,-0.077 0.082,-0.141 0.274,-0.197 -0.046,0.34 -0.109,0.68 -0.128,1.023 -0.183,3.271 0.175,6.433 1.837,9.34 0.98,1.71 2.302,3.12 3.765,4.407 1.187,1.044 2.419,2.039 3.646,3.038 1.614,1.314 3.411,2.312 5.453,3.22 -0.778,-1.288 -1.638,-2.347 -2.113,-3.558 -1.145,-2.936 -2.225,-5.904 -3.12,-8.918 -1.29,-4.357 -3.393,-8.127 -7.009,-10.965 -1.179,-0.929 -1.142,-0.945 -0.441,-2.262 1.468,-2.759 3.109,-5.424 5.257,-7.681 1.978,-2.082 4.219,-3.924 6.348,-5.873 0.051,-0.045 0.151,-0.043 0.443,-0.125 -0.453,0.629 -0.807,1.112 -1.157,1.598 -2.27,3.152 -3.47,6.664 -3.024,10.543 0.231,2.016 0.879,3.999 1.473,5.953 0.892,2.926 2.002,5.775 3.779,8.305 0.103,0.151 0.228,0.289 0.491,0.39 -0.056,-0.663 -0.149,-1.33 -0.17,-1.996 -0.106,-3.47 0.666,-6.81 1.42,-10.169 0.507,-2.278 0.852,-4.62 1.017,-6.948 0.194,-2.743 -0.558,-5.377 -1.5,-7.939 -0.122,-0.34 -0.26,-0.672 -0.388,-1.009 -0.005,-0.024 0.008,-0.05 0.051,-0.294 1.68,-0.906 3.443,-1.962 5.297,-2.825 4.444,-2.071 9.133,-3.399 13.901,-4.522 2.496,-0.589 4.822,-0.231 7.193,0.324 4.872,1.134 9.624,2.636 14.082,4.957 1.155,0.603 2.273,1.282 3.412,1.914 0.379,0.21 0.478,0.449 0.295,0.876 -1.309,3.054 -2.037,6.237 -1.758,9.561 0.157,1.864 0.592,3.709 0.911,5.562 0.087,0.513 0.212,1.02 0.371,1.753 -0.772,-0.622 -1.37,-1.137 -1.996,-1.607 -3.439,-2.567 -7.256,-4.171 -11.56,-4.534 -6.335,-0.537 -11.874,1.553 -16.892,5.219 -1.712,1.254 -3.279,2.709 -4.911,4.068 l 0.138,0.17 c 1.064,-0.672 2.113,-1.373 3.196,-2.013 3.566,-2.102 7.357,-3.488 11.531,-3.759 6.439,-0.412 11.982,1.649 16.618,6.061 2.14,2.037 3.733,4.474 4.864,7.273 1.224,3.026 1.808,6.101 1.604,9.324 -0.064,0.972 -0.64,1.943 -0.566,2.878 0.101,1.248 -0.334,2.307 -0.746,3.356 -1.174,3.008 -2.517,5.942 -5.045,8.122 -2.381,2.047 -5.203,2.764 -8.27,2.734 -3.316,-0.029 -6.47,-0.91 -9.617,-1.853 -2.498,-0.748 -4.988,-1.545 -7.527,-2.142 -2.4,-0.566 -4.611,0.711 -5.418,3.058 -1.009,2.937 -0.797,5.746 1.277,8.236 0.884,1.062 1.752,2.14 2.628,3.21 0.074,-0.016 0.151,-0.029 0.228,-0.045 l 0.534,-3.454 c 0.011,-0.083 0.011,-0.168 0.019,-0.25 0.228,-1.627 0.321,-1.824 1.978,-1.532 2.182,0.38 4.335,0.967 6.473,1.556 4.025,1.11 8.108,1.699 12.285,1.402 3.634,-0.263 6.865,-1.604 9.505,-4.15 1.189,-1.144 2.235,-2.445 3.297,-3.714 1.402,-1.681 3.077,-3.038 4.83,-4.328 1.667,-1.224 3.3,-2.501 4.89,-3.829 0.651,-0.541 1.144,-1.274 1.848,-1.847 -0.226,0.544 -0.441,1.096 -0.68,1.64 -1.481,3.409 -3.032,6.789 -4.436,10.227 -1.715,4.198 -1.368,8.353 0.563,12.413 0.101,0.21 0.159,0.475 0.143,0.706 -0.334,3.871 0.112,7.567 2.663,10.684 0.791,0.969 1.805,1.803 2.846,2.509 2.533,1.726 5.231,3.149 8.228,3.937 0.234,0.059 0.478,0.098 0.935,0.192 C 8.517,67.132 8.233,66.827 7.944,66.527 5.793,64.321 4.46,61.599 3.136,58.878 1.617,55.745 -0.308,52.907 -3.46,51.263 -5.103,50.406 -5.456,48.956 -5.804,47.498 -6.165,45.98 -6.255,44.387 -6.385,42.82 c -0.165,-1.943 0.512,-3.743 1.25,-5.469 1.229,-2.886 2.61,-5.706 3.93,-8.552 0.031,-0.074 0.069,-0.143 0.207,-0.143 -0.109,1.245 -0.245,2.487 -0.314,3.735 -0.143,2.602 0.29,5.095 1.546,7.408 0.963,1.784 2.363,3.212 3.852,4.548 2.026,1.816 4.081,3.605 6.521,4.872 0.326,0.172 0.672,0.305 1.2,0.536 C 11.164,48.661 10.506,47.817 10.132,46.864 9.226,44.546 8.347,42.204 7.644,39.823 6.768,36.868 6.069,33.841 4.081,31.39 3,30.063 1.739,28.879 0.496,27.695 -0.032,27.193 -0.271,26.882 0.061,26.064 1.176,23.292 2.169,20.465 3.13,17.632 c 0.335,-0.985 0.454,-2.047 0.677,-3.075 0.037,-0.17 0.114,-0.329 0.239,-0.69 0.728,2.828 1.782,5.3 3.823,7.094 1.633,1.437 3.502,2.629 5.358,3.787 2.451,1.526 5.066,2.732 8.008,3.358 -0.789,-0.913 -1.638,-1.704 -2.246,-2.65 C 17.701,23.455 16.506,21.391 15.33,19.318 14.005,16.982 12.874,14.523 11.419,12.271 9.776,9.725 7.28,8.066 4.625,6.659 4.306,6.489 3.953,6.136 3.882,5.809 2.586,-0.109 0.151,-5.493 -3.529,-10.312 c -0.045,-0.056 -0.045,-0.152 -0.09,-0.319 0.151,0.064 0.26,0.075 0.321,0.136 3.141,3.241 7.031,5.057 11.375,6.026 2.599,0.582 5.209,1.126 7.787,1.779 2.902,0.738 5.586,1.994 8.058,3.699 0.106,0.074 0.231,0.119 0.348,0.175 0.066,-0.05 0.132,-0.098 0.199,-0.149 -0.935,-1.513 -1.8,-3.082 -2.823,-4.534 -2.325,-3.303 -5.047,-6.266 -8.01,-9.004 -2.583,-2.389 -5.605,-3.786 -9.149,-4.112 -3.706,-0.337 -7.161,0.456 -10.482,2.002 -0.605,0.281 -0.977,0.231 -1.482,-0.263 -3.573,-3.521 -7.667,-6.325 -12.165,-8.515 -4.301,-2.092 -8.791,-3.69 -13.461,-4.752 -0.101,-0.024 -0.188,-0.096 -0.281,-0.144 v -0.239 c 3.409,-0.247 6.82,-0.491 10.219,-0.738 -0.3,-1.322 -0.919,-1.712 -2.265,-1.561 -1.896,0.215 -3.807,0.308 -5.706,0.534 -2.063,0.244 -4.104,0.645 -6.17,0.844 -0.996,0.095 -2.023,-0.085 -3.027,-0.199 -2.663,-0.305 -5.32,-0.651 -7.983,-0.972 -0.956,-0.117 -1.923,-0.191 -2.878,-0.313 -0.608,-0.08 -1.084,0.01 -1.346,0.656 -0.133,0.326 -0.362,0.618 -0.59,1.001 3.449,0.246 6.839,0.491 10.23,0.735 0.011,0.08 0.021,0.157 0.032,0.236 -0.29,0.104 -0.574,0.237 -0.868,0.308 -6.715,1.649 -13.063,4.182 -18.782,8.087 -2.214,1.508 -4.198,3.357 -6.242,5.103 -0.486,0.417 -0.844,0.473 -1.389,0.21 -2.344,-1.128 -4.803,-1.771 -7.41,-2.026 -5.177,-0.496 -9.454,1.291 -13.087,4.87 -3.109,3.064 -6.042,6.281 -8.381,9.993 -0.558,0.884 -1.007,1.838 -1.522,2.791" /></g><g
           transform="translate(91.8553,106.6822)"
           id="g24"><path
             id="path26"
             style="fill:#0e863e;fill-opacity:1;fill-rule:nonzero;stroke:none"
             d="m 0,0 c -0.98,-0.207 -1.989,-0.42 -2.995,-0.627 -0.109,-0.024 -0.223,-0.01 -0.332,-0.024 -1.545,-0.169 -1.606,-0.177 -1.85,1.339 -0.502,3.135 -0.927,6.287 -1.397,9.428 -0.446,3.005 -0.903,6.011 -1.357,9.016 -0.488,3.226 -0.993,6.449 -1.473,9.675 -0.244,1.667 -0.229,1.681 1.309,2.299 1.72,0.693 3.449,1.37 5.331,2.116 C -1.845,22.143 -0.929,11.154 0,0" /></g><g
           transform="translate(82.3572,153.4614)"
           id="g28"><path
             id="path30"
             style="fill:#0e863e;fill-opacity:1;fill-rule:nonzero;stroke:none"
             d="m 0,0 c -3.489,-0.019 -5.892,1.718 -6.624,4.737 -0.489,2.012 0.055,3.855 1.295,5.477 1.824,2.379 4.262,3.664 7.259,3.56 C 5.422,13.652 8.462,11.09 8.188,7.224 8.045,5.246 7.113,3.627 5.658,2.32 3.99,0.826 2.082,-0.098 0,0" /></g><g
           transform="translate(95.6677,60.9561)"
           id="g32"><path
             id="path34"
             style="fill:#0e863e;fill-opacity:1;fill-rule:nonzero;stroke:none"
             d="m 0,0 c -0.728,0.082 -1.304,0.151 -1.97,0.228 -0.244,1.596 -0.494,3.226 -0.746,4.859 -0.653,4.235 -1.314,8.469 -1.957,12.707 -0.518,3.414 -1.006,6.831 -1.513,10.248 -0.258,1.724 -0.502,3.449 -0.797,5.164 -0.087,0.494 -0.042,0.776 0.489,0.93 1.155,0.334 2.299,0.719 3.555,1.117 C -1.954,23.438 -0.982,11.775 0,0" /></g><g
           transform="translate(79.8923,152.3034)"
           id="g36"><path
             id="path38"
             style="fill:#0e863e;fill-opacity:1;fill-rule:nonzero;stroke:none"
             d="M 0,0 C 2.939,-0.621 5.528,-0.08 7.989,1.654 8.114,0.473 8.146,-0.574 8.347,-1.585 8.669,-3.199 8.252,-4.208 6.688,-5.053 4.949,-5.99 3.454,-7.378 1.853,-8.568 1.744,-8.647 1.612,-8.687 1.354,-8.81 0.905,-5.894 0.467,-3.048 0,0" /></g><g
           transform="translate(94.4939,55.8139)"
           id="g40"><path
             id="path42"
             style="fill:#0e863e;fill-opacity:1;fill-rule:nonzero;stroke:none"
             d="M 0,0 C 1.707,-0.327 1.651,-0.329 1.766,-2.013 1.922,-4.301 2.182,-6.582 2.384,-8.865 2.416,-9.216 2.392,-9.574 2.392,-9.972 2.082,-10.023 1.819,-10.065 1.535,-10.11 1.025,-6.741 0.518,-3.414 0,0" /></g><g
           transform="translate(180.825,176.6696)"
           id="g44"><path
             id="path46"
             style="fill:#414583;fill-opacity:1;fill-rule:nonzero;stroke:none"
             d="m 0,0 c -1.375,-1.636 -2.711,-3.221 -4.049,-4.803 -3.714,-4.389 -7.429,-8.772 -11.146,-13.158 -1.362,-1.609 -2.748,-3.2 -4.075,-4.84 -0.359,-0.444 -0.619,-0.447 -1.107,-0.261 -6.951,2.626 -13.876,5.332 -20.88,7.811 -8.79,3.112 -17.738,5.727 -26.953,7.259 -4.1,0.685 -8.247,1.129 -12.394,1.423 -3.513,0.247 -7.068,0.351 -10.575,0.104 -4.705,-0.335 -9.399,-0.916 -14.056,-1.657 -6.444,-1.022 -12.755,-2.703 -18.965,-4.699 -6.067,-1.952 -12.083,-4.062 -18.091,-6.194 -3.685,-1.309 -7.31,-2.78 -10.952,-4.201 -0.486,-0.191 -0.752,-0.138 -1.11,0.284 -4.283,5.103 -8.594,10.183 -12.896,15.269 -2.182,2.581 -4.356,5.164 -6.589,7.814 1.962,0.791 3.873,1.599 5.812,2.342 7.845,3.003 15.664,6.083 23.563,8.942 9.128,3.306 18.407,6.155 27.886,8.31 6.422,1.461 12.895,2.661 19.472,3.115 4.341,0.303 8.708,0.536 13.057,0.454 9.378,-0.183 18.612,-1.551 27.748,-3.699 8.215,-1.933 16.27,-4.38 24.23,-7.152 C -21.352,8.73 -10.809,4.54 -0.34,0.159 -0.247,0.119 -0.154,0.074 0,0" /></g><g
           transform="translate(2.5719,169.8372)"
           id="g48"><path
             id="path50"
             style="fill:#414583;fill-opacity:1;fill-rule:nonzero;stroke:none"
             d="m 0,0 c 4.243,-5.015 8.342,-9.861 12.447,-14.709 1.795,-2.113 3.603,-4.219 5.384,-6.348 0.141,-0.167 0.167,-0.489 0.144,-0.728 -0.526,-5.249 -1.185,-10.484 -1.567,-15.741 -0.334,-4.623 -0.515,-9.269 -0.502,-13.902 0.024,-11.616 1.291,-23.099 4.376,-34.335 1.625,-5.926 3.773,-11.658 6.457,-17.194 3.759,-7.75 8.514,-14.823 14.199,-21.275 6.707,-7.612 14.457,-14.005 22.908,-19.583 6.9,-4.554 14.175,-8.422 21.657,-11.919 0.324,-0.148 0.69,-0.515 0.762,-0.841 0.982,-4.371 1.911,-8.749 2.888,-13.262 -1.327,0.594 -2.583,1.144 -3.831,1.717 -7.07,3.256 -13.963,6.851 -20.64,10.857 -7.062,4.235 -13.838,8.894 -20.139,14.194 -3.608,3.032 -7.099,6.234 -10.421,9.579 -7.224,7.283 -13.431,15.381 -18.556,24.286 -4.672,8.114 -8.328,16.66 -11.084,25.613 -2.231,7.259 -3.879,14.648 -4.904,22.161 -0.653,4.782 -1.052,9.601 -1.431,14.415 -0.242,3.095 -0.3,6.212 -0.335,9.319 -0.042,4.057 -0.127,8.119 0.072,12.165 0.284,5.791 0.78,11.571 1.245,17.351 C -0.653,-5.504 -0.305,-2.838 0,0" /></g><g
           transform="translate(183.8682,167.9787)"
           id="g52"><path
             id="path54"
             style="fill:#414583;fill-opacity:1;fill-rule:nonzero;stroke:none"
             d="m 0,0 c 0.435,-2.278 0.921,-4.383 1.227,-6.518 0.711,-4.941 1.388,-9.89 1.972,-14.85 0.274,-2.336 0.337,-4.704 0.425,-7.06 0.104,-2.636 0.154,-5.278 0.175,-7.914 0.043,-5.528 -0.337,-11.035 -0.987,-16.525 -0.614,-5.161 -1.514,-10.27 -2.716,-15.325 -2.494,-10.53 -6.24,-20.595 -11.231,-30.19 -4.84,-9.306 -10.681,-17.943 -17.582,-25.839 -3.048,-3.486 -6.218,-6.882 -9.523,-10.124 -5.592,-5.488 -11.637,-10.455 -17.996,-15.041 -6.298,-4.537 -12.827,-8.703 -19.658,-12.383 -3.643,-1.962 -7.365,-3.772 -11.05,-5.652 -0.123,-0.059 -0.253,-0.106 -0.523,-0.218 0.09,0.374 0.156,0.645 0.22,0.913 0.94,4.023 1.896,8.045 2.798,12.075 0.117,0.51 0.345,0.747 0.77,0.951 6.51,3.157 12.768,6.741 18.766,10.787 5.65,3.813 10.995,8.005 16.015,12.62 8.263,7.585 15.333,16.132 21.017,25.809 4.822,8.21 8.43,16.918 10.809,26.139 1.474,5.711 2.565,11.491 2.937,17.372 0.289,4.545 0.517,9.112 0.432,13.66 -0.109,5.685 -0.677,11.356 -1.694,16.963 -0.57,3.162 -1.242,6.311 -1.837,9.468 -0.05,0.252 0.037,0.616 0.202,0.81 5.557,6.603 11.135,13.19 16.708,19.777 C -0.274,-0.234 -0.205,-0.186 0,0" /></g><g
           transform="translate(115.4456,62.3071)"
           id="g56"><path
             id="path58"
             style="fill:#c2311f;fill-opacity:1;fill-rule:nonzero;stroke:none"
             d="m 0,0 c -0.94,-0.836 -1.997,-1.609 -1.997,-1.609 -1.317,-0.961 -4.131,-2.971 -8.22,-3.985 -1.08,-0.268 -2.193,-0.454 -3.34,-0.55 -6.332,-0.533 -11.87,1.556 -16.888,5.223 -1.713,1.25 -3.279,2.708 -4.909,4.067 0.042,0.059 0.087,0.114 0.132,0.17 1.065,-0.674 2.116,-1.375 3.202,-2.012 3.563,-2.106 7.355,-3.489 11.526,-3.76 6.438,-0.417 11.982,1.646 16.62,6.059 2.138,2.039 3.731,4.476 4.862,7.272 1.226,3.029 1.808,6.104 1.603,9.327 -0.061,0.969 -0.252,1.662 -0.504,2.923 -0.247,1.264 -0.396,2.262 -0.805,3.311 -1.176,3.006 -2.517,5.939 -5.047,8.119 -2.379,2.05 -5.201,2.767 -8.27,2.735 -3.316,-0.029 -6.471,-0.913 -9.614,-1.853 -2.501,-0.746 -4.992,-1.543 -7.527,-2.143 -2.4,-0.565 -4.612,0.712 -5.422,3.061 -1.006,2.934 -0.796,5.743 1.277,8.236 0.887,1.062 1.755,2.138 2.631,3.208 0.075,-0.014 0.149,-0.03 0.229,-0.046 0.175,-1.152 0.353,-2.302 0.531,-3.451 0.013,-0.085 0.01,-0.167 0.021,-0.252 0.226,-1.628 0.319,-1.822 1.981,-1.532 2.179,0.379 4.33,0.966 6.467,1.558 4.028,1.107 8.111,1.699 12.285,1.399 3.638,-0.262 6.866,-1.603 9.505,-4.15 C 1.519,40.181 2.567,38.88 3.627,37.611 5.801,35.007 7.081,32.787 8.116,30.052 9.149,27.32 9.651,19.286 9.372,17.218 9.404,14.52 5.416,4.84 0,0" /></g><g
           transform="translate(75.7977,138.9783)"
           id="g60"><path
             id="path62"
             style="fill:#c2311f;fill-opacity:1;fill-rule:nonzero;stroke:none"
             d="m 0,0 c -0.088,-0.045 -0.17,-0.085 -0.26,-0.13 0.082,-0.279 0.138,-0.786 0.244,-0.797 C 0.388,-0.964 0.85,-0.932 1.2,-0.754 1.415,-0.645 1.532,-0.22 1.548,0.066 1.553,0.17 1.097,0.435 0.924,0.382 0.733,0.324 0.621,-0.013 0.457,-0.255 0.364,-0.204 0.181,-0.101 0,0 m 16.95,-30.897 c -0.292,3.385 -0.492,6.601 -0.884,9.792 -0.136,1.107 0.246,1.848 0.817,2.655 3.027,4.272 5.881,8.648 7.596,13.639 0.415,1.197 0.677,2.475 0.784,3.736 0.26,3.127 -1.37,4.882 -4.506,5.018 C 18.097,4.057 15.566,3.404 13.108,2.512 10.713,1.641 8.379,0.592 6.035,-0.417 5.735,-0.542 5.443,-0.85 5.305,-1.144 3.672,-4.668 0.767,-6.335 -2.931,-6.871 -3.175,-6.909 -3.43,-6.909 -3.68,-6.903 c -0.212,0.005 -0.425,0.04 -0.637,0.061 -0.043,0.072 -0.088,0.146 -0.13,0.218 1.054,0.78 2.111,1.561 3.165,2.339 -0.038,0.071 -0.08,0.14 -0.12,0.207 -1.611,-0.69 -3.223,-1.381 -4.922,-2.114 -0.255,1.081 0.09,1.933 0.472,2.738 1.267,2.671 3.417,4.367 6.2,5.177 1.364,0.398 2.83,0.449 4.242,0.688 0.303,0.053 0.624,0.21 0.858,0.411 3.614,3.077 7.434,5.839 11.812,7.729 3.091,1.336 6.277,2.23 9.71,1.776 4.72,-0.621 7.596,-3.889 8.342,-8.382 0.881,-5.289 -0.566,-10.195 -2.756,-14.926 -2.283,-4.928 -5.382,-9.322 -9.035,-13.318 -1.925,-2.111 -3.991,-4.091 -5.995,-6.125 -0.136,-0.135 -0.292,-0.244 -0.576,-0.473" /></g><g
           transform="translate(75.7977,138.9801)"
           id="g64"><path
             id="path66"
             style="fill:#c8c9ca;fill-opacity:1;fill-rule:nonzero;stroke:none"
             d="M 0,0 C 0.181,-0.104 0.364,-0.204 0.457,-0.258 0.621,-0.013 0.733,0.324 0.924,0.382 1.097,0.433 1.553,0.167 1.548,0.064 1.532,-0.223 1.415,-0.645 1.2,-0.754 0.85,-0.932 0.388,-0.966 -0.016,-0.927 -0.122,-0.916 -0.178,-0.409 -0.26,-0.13 -0.17,-0.088 -0.088,-0.045 0,0" /></g><g
           transform="translate(47.2611,174.7822)"
           id="g68"><path
             id="path70"
             style="fill:#c8c9ca;fill-opacity:1;fill-rule:nonzero;stroke:none"
             d="M 0,0 1.524,-4.848 C 1.829,-6.024 2.522,-6.409 3.6,-6.006 5.735,-5.334 6.526,-4.007 5.966,-2.023 5.183,0.263 3.712,1.104 1.558,0.488 Z m -1.636,5.196 1.339,-4.243 0.69,0.215 c 2.193,0.69 3,1.96 2.419,3.807 C 2.156,6.863 1.009,7.58 -0.624,7.131 -1.588,6.765 -1.922,6.117 -1.636,5.196 M -1.917,-6.314 -5.238,4.251 C -5.509,5.31 -6.356,5.581 -7.782,5.068 L -8.05,5.937 -0.173,8.414 C 3.385,9.404 5.631,8.716 6.569,6.345 7.11,4.423 6.3,2.963 4.139,1.967 7.131,2.339 8.974,1.519 9.667,-0.481 10.325,-3.383 8.9,-5.416 5.398,-6.582 l -8.661,-2.721 -0.268,0.865 c 1.479,0.337 2.015,1.046 1.614,2.124" /></g><g
           transform="translate(68.97,189.4523)"
           id="g72"><path
             id="path74"
             style="fill:#c8c9ca;fill-opacity:1;fill-rule:nonzero;stroke:none"
             d="M 0,0 8.045,1.418 8.204,0.523 C 6.523,0.287 5.836,-0.356 6.146,-1.407 L 7.8,-10.793 c 0.396,-1.898 1.649,-2.75 3.768,-2.562 2.562,0.449 3.643,1.991 3.242,4.625 l -1.466,8.313 C 13.286,0.616 12.346,1.067 10.527,0.932 L 10.37,1.824 16.182,2.849 16.336,1.957 C 14.828,1.444 14.22,0.72 14.507,-0.212 l 1.434,-8.136 c 0.587,-3.337 -1.115,-5.355 -5.106,-6.058 -3.887,-0.624 -6.112,0.491 -6.675,3.34 l -1.593,9.027 c -0.127,1.083 -0.932,1.466 -2.41,1.144 z" /></g><g
           transform="translate(117.821,189.5004)"
           id="g76"><path
             id="path78"
             style="fill:#c8c9ca;fill-opacity:1;fill-rule:nonzero;stroke:none"
             d="m 0,0 -0.892,-5.65 -0.898,0.143 c -0.716,3.606 -2.19,5.523 -4.423,5.754 -2.697,0.361 -4.415,-1.784 -5.153,-6.447 -0.805,-4.712 0.374,-7.32 3.542,-7.821 3.05,-0.481 4.978,1.054 5.785,4.598 l 1.075,-0.167 c -0.772,-4.105 -3.284,-5.852 -7.537,-5.241 -5.231,1.009 -7.591,4.107 -7.076,9.298 1.25,4.824 4.37,7.121 9.356,6.882 1.317,-0.207 2.74,-0.892 4.27,-2.053 l 1.054,0.845 z" /></g><g
           transform="translate(135.2635,168.4986)"
           id="g80"><path
             id="path82"
             style="fill:#c8c9ca;fill-opacity:1;fill-rule:nonzero;stroke:none"
             d="m 0,0 -5.692,1.869 0.284,0.866 c 1.38,-0.454 2.325,0 2.838,1.359 l 3.313,10.092 c 0.359,0.897 -0.159,1.548 -1.558,1.946 l 0.284,0.86 L 5.852,14.895 5.581,3.613 5.668,3.584 12.147,12.826 18.612,10.7 18.33,9.837 c -1.534,0.568 -2.413,0.316 -2.636,-0.754 L 12.237,-1.442 c -0.478,-1.054 0.08,-1.779 1.67,-2.172 L 13.626,-4.479 5.95,-1.957 6.234,-1.091 C 7.575,-1.662 8.395,-1.389 8.7,-0.276 L 12.383,10.933 3.706,-1.219 1.811,-0.597 2.206,14.276 -1.28,3.669 C -1.731,2.289 -1.211,1.354 0.281,0.863 Z" /></g></g></g></g></svg>