<?xml version="1.0" encoding="UTF-8" standalone="no"?>
<!-- Created with Inkscape (http://www.inkscape.org/) -->

<svg
   width="83.62957mm"
   height="83.630447mm"
   viewBox="0 0 83.62957 83.630448"
   version="1.1"
   id="svg1"
   xmlns="http://www.w3.org/2000/svg"
   xmlns:svg="http://www.w3.org/2000/svg">
  <defs
     id="defs1">
    <clipPath
       clipPathUnits="userSpaceOnUse"
       id="clipPath3">
      <path
         d="M 0,176 H 171.976 V 0 H 0 Z"
         transform="translate(-86.319302,-51.390599)"
         id="path3" />
    </clipPath>
    <clipPath
       clipPathUnits="userSpaceOnUse"
       id="clipPath5">
      <path
         d="M 0,176 H 171.976 V 0 H 0 Z"
         transform="translate(-86.319302,-37.589803)"
         id="path5" />
    </clipPath>
    <clipPath
       clipPathUnits="userSpaceOnUse"
       id="clipPath7">
      <path
         d="M 0,176 H 171.976 V 0 H 0 Z"
         transform="translate(-46.228501,-72.160199)"
         id="path7" />
    </clipPath>
    <clipPath
       clipPathUnits="userSpaceOnUse"
       id="clipPath9">
      <path
         d="M 0,176 H 171.976 V 0 H 0 Z"
         transform="translate(-52.195301,-69.576202)"
         id="path9" />
    </clipPath>
    <clipPath
       clipPathUnits="userSpaceOnUse"
       id="clipPath11">
      <path
         d="M 0,176 H 171.976 V 0 H 0 Z"
         transform="translate(-52.248001,-60.962902)"
         id="path11" />
    </clipPath>
    <clipPath
       clipPathUnits="userSpaceOnUse"
       id="clipPath13">
      <path
         d="M 0,176 H 171.976 V 0 H 0 Z"
         transform="translate(-58.199201,-60.832004)"
         id="path13" />
    </clipPath>
    <clipPath
       clipPathUnits="userSpaceOnUse"
       id="clipPath15">
      <path
         d="M 0,176 H 171.976 V 0 H 0 Z"
         transform="translate(-56.780302,-55.695299)"
         id="path15" />
    </clipPath>
    <clipPath
       clipPathUnits="userSpaceOnUse"
       id="clipPath17">
      <path
         d="M 0,176 H 171.976 V 0 H 0 Z"
         transform="translate(-57.119101,-55.066401)"
         id="path17" />
    </clipPath>
    <clipPath
       clipPathUnits="userSpaceOnUse"
       id="clipPath19">
      <path
         d="M 0,176 H 171.976 V 0 H 0 Z"
         transform="translate(-66.846701,-50.359401)"
         id="path19" />
    </clipPath>
    <clipPath
       clipPathUnits="userSpaceOnUse"
       id="clipPath21">
      <path
         d="M 0,176 H 171.976 V 0 H 0 Z"
         transform="translate(-76.388702,-49.337901)"
         id="path21" />
    </clipPath>
    <clipPath
       clipPathUnits="userSpaceOnUse"
       id="clipPath23">
      <path
         d="M 0,176 H 171.976 V 0 H 0 Z"
         transform="translate(-81.2236,-48.425804)"
         id="path23" />
    </clipPath>
    <clipPath
       clipPathUnits="userSpaceOnUse"
       id="clipPath25">
      <path
         d="M 0,176 H 171.976 V 0 H 0 Z"
         transform="translate(-85.4707,-45.072299)"
         id="path25" />
    </clipPath>
    <clipPath
       clipPathUnits="userSpaceOnUse"
       id="clipPath27">
      <path
         d="M 0,176 H 171.976 V 0 H 0 Z"
         transform="translate(-88.617205,-43.625001)"
         id="path27" />
    </clipPath>
    <clipPath
       clipPathUnits="userSpaceOnUse"
       id="clipPath29">
      <path
         d="M 0,176 H 171.976 V 0 H 0 Z"
         transform="translate(-95.2363,-49.150401)"
         id="path29" />
    </clipPath>
    <clipPath
       clipPathUnits="userSpaceOnUse"
       id="clipPath31">
      <path
         d="M 0,176 H 171.976 V 0 H 0 Z"
         transform="translate(-96.815402,-44.668004)"
         id="path31" />
    </clipPath>
    <clipPath
       clipPathUnits="userSpaceOnUse"
       id="clipPath33">
      <path
         d="M 0,176 H 171.976 V 0 H 0 Z"
         transform="translate(-104.2656,-47.584004)"
         id="path33" />
    </clipPath>
    <clipPath
       clipPathUnits="userSpaceOnUse"
       id="clipPath35">
      <path
         d="M 0,176 H 171.976 V 0 H 0 Z"
         transform="translate(-106.79391,-54.164099)"
         id="path35" />
    </clipPath>
    <clipPath
       clipPathUnits="userSpaceOnUse"
       id="clipPath37">
      <path
         d="M 0,176 H 171.976 V 0 H 0 Z"
         transform="translate(-107.0332,-54.138704)"
         id="path37" />
    </clipPath>
    <clipPath
       clipPathUnits="userSpaceOnUse"
       id="clipPath39">
      <path
         d="M 0,176 H 171.976 V 0 H 0 Z"
         transform="translate(-117.3145,-57.105501)"
         id="path39" />
    </clipPath>
    <clipPath
       clipPathUnits="userSpaceOnUse"
       id="clipPath41">
      <path
         d="M 0,176 H 171.976 V 0 H 0 Z"
         transform="translate(-117.32031,-62.146499)"
         id="path41" />
    </clipPath>
    <clipPath
       clipPathUnits="userSpaceOnUse"
       id="clipPath43">
      <path
         d="M 0,176 H 171.976 V 0 H 0 Z"
         transform="translate(-121.78131,-62.996099)"
         id="path43" />
    </clipPath>
    <clipPath
       clipPathUnits="userSpaceOnUse"
       id="clipPath45">
      <path
         d="M 0,176 H 171.976 V 0 H 0 Z"
         transform="translate(-123.8281,-66.556604)"
         id="path45" />
    </clipPath>
    <clipPath
       clipPathUnits="userSpaceOnUse"
       id="clipPath47">
      <path
         d="M 0,176 H 171.976 V 0 H 0 Z"
         transform="translate(-122.1094,-74.201204)"
         id="path47" />
    </clipPath>
    <clipPath
       clipPathUnits="userSpaceOnUse"
       id="clipPath49">
      <path
         d="M 0,176 H 171.976 V 0 H 0 Z"
         transform="translate(-87.939505,-115.1465)"
         id="path49" />
    </clipPath>
    <clipPath
       clipPathUnits="userSpaceOnUse"
       id="clipPath51">
      <path
         d="M 0,176 H 171.976 V 0 H 0 Z"
         transform="translate(-100.13871,-58.244099)"
         id="path51" />
    </clipPath>
    <clipPath
       clipPathUnits="userSpaceOnUse"
       id="clipPath53">
      <path
         d="M 0,176 H 171.976 V 0 H 0 Z"
         transform="translate(-72.621102,-109.3247)"
         id="path53" />
    </clipPath>
    <clipPath
       clipPathUnits="userSpaceOnUse"
       id="clipPath55">
      <path
         d="M 0,176 H 171.976 V 0 H 0 Z"
         transform="translate(-64.379902,-105.5063)"
         id="path55" />
    </clipPath>
    <clipPath
       clipPathUnits="userSpaceOnUse"
       id="clipPath57">
      <path
         d="M 0,176 H 171.976 V 0 H 0 Z"
         transform="translate(-71.410202,-66.066404)"
         id="path57" />
    </clipPath>
    <clipPath
       clipPathUnits="userSpaceOnUse"
       id="clipPath59">
      <path
         d="M 0,176 H 171.976 V 0 H 0 Z"
         transform="translate(-80.585905,-123.4956)"
         id="path59" />
    </clipPath>
    <clipPath
       clipPathUnits="userSpaceOnUse"
       id="clipPath61">
      <path
         d="M 0,176 H 171.976 V 0 H 0 Z"
         transform="translate(-107.3584,-115.2617)"
         id="path61" />
    </clipPath>
    <clipPath
       clipPathUnits="userSpaceOnUse"
       id="clipPath63">
      <path
         d="M 0,176 H 171.976 V 0 H 0 Z"
         transform="translate(-117.1816,-108.5269)"
         id="path63" />
    </clipPath>
    <clipPath
       clipPathUnits="userSpaceOnUse"
       id="clipPath65">
      <path
         d="M 0,176 H 171.976 V 0 H 0 Z"
         transform="translate(-53.436502,-101.8403)"
         id="path65" />
    </clipPath>
    <clipPath
       clipPathUnits="userSpaceOnUse"
       id="clipPath67">
      <path
         d="M 0,176 H 171.976 V 0 H 0 Z"
         transform="translate(-62.851601,-116.4839)"
         id="path67" />
    </clipPath>
    <clipPath
       clipPathUnits="userSpaceOnUse"
       id="clipPath69">
      <path
         d="M 0,176 H 171.976 V 0 H 0 Z"
         transform="translate(-98.2012,-127.104)"
         id="path69" />
    </clipPath>
  </defs>
  <g
     id="layer1"
     transform="translate(-11.43702,-81.55134)">
    <g
       id="group-MC0"
       transform="matrix(0.66092916,0,0,0.66092916,-22.816119,43.209341)">
      <path
         id="path2"
         d="M 0,0 C -18.554,0 -33.649,15.094 -33.649,33.648 -33.649,52.204 -18.554,67.3 0,67.3 18.554,67.3 33.65,52.204 33.65,33.648 33.65,15.094 18.554,0 0,0 m 0,66.339 c -18.024,0 -32.688,-14.667 -32.688,-32.691 0,-18.025 14.664,-32.689 32.688,-32.689 18.026,0 32.688,14.664 32.688,32.689 0,18.024 -14.662,32.691 -32.688,32.691"
         style="fill:#005bac;fill-opacity:1;fill-rule:nonzero;stroke:none"
         transform="matrix(1.3333333,0,0,-1.3333333,115.0924,166.14587)"
         clip-path="url(#clipPath3)" />
      <path
         id="path4"
         d="m 0,0 c -26.163,0 -47.45,21.283 -47.45,47.449 0,26.167 21.287,47.452 47.45,47.452 26.165,0 47.45,-21.285 47.45,-47.452 C 47.45,21.283 26.165,0 0,0 m 0,93.538 c -25.413,0 -46.087,-20.676 -46.087,-46.089 0,-25.412 20.674,-46.088 46.087,-46.088 25.413,0 46.089,20.676 46.089,46.088 0,25.413 -20.676,46.089 -46.089,46.089"
         style="fill:#005bac;fill-opacity:1;fill-rule:nonzero;stroke:none"
         transform="matrix(1.3333333,0,0,-1.3333333,115.0924,184.54693)"
         clip-path="url(#clipPath5)" />
      <path
         id="path6"
         d="M 0,0 0.151,0.061 C 0.336,-0.357 0.576,-0.488 0.865,-0.334 L 3.988,0.914 C 4.316,1.025 4.4,1.285 4.236,1.691 l 0.155,0.061 0.798,-2.01 C 5.615,-1.387 5.494,-2.096 4.824,-2.383 4.333,-2.578 3.877,-2.365 3.455,-1.748 L 3.43,-1.756 C 3.611,-2.611 3.392,-3.17 2.771,-3.438 1.973,-3.697 1.328,-3.256 0.836,-2.113 Z M 2.879,-0.74 1.255,-1.387 C 0.959,-1.486 0.875,-1.666 1,-1.932 1.209,-2.457 1.645,-2.59 2.301,-2.326 c 0.678,0.269 0.894,0.74 0.649,1.408 z m 1.648,0.66 -1.47,-0.59 C 3.302,-1.436 3.75,-1.65 4.4,-1.311 4.957,-1.09 5.146,-0.75 4.965,-0.289 4.869,-0.053 4.724,0.018 4.527,-0.08"
         style="fill:#005bac;fill-opacity:1;fill-rule:nonzero;stroke:none"
         transform="matrix(1.3333333,0,0,-1.3333333,61.638,138.45307)"
         clip-path="url(#clipPath7)" />
      <path
         id="path8"
         d="m 0,0 0.142,0.08 1.952,-3.56 -1.227,-0.672 -0.092,0.17 c 0.694,0.443 0.778,1.093 0.245,1.947 -0.153,0.355 -0.331,0.455 -0.539,0.299 l -1.418,-0.778 c 0.294,-0.65 0.783,-0.82 1.466,-0.509 l 0.08,-0.143 -2.07,-1.135 -0.076,0.147 c 0.645,0.416 0.775,0.924 0.383,1.521 l -1.491,-0.814 c -0.257,-0.104 -0.272,-0.338 -0.046,-0.715 0.406,-0.779 1.06,-1.117 1.964,-1.018 l 0.092,-0.168 -1.406,-0.457 -1.977,3.606 0.147,0.078 c 0.234,-0.391 0.488,-0.492 0.76,-0.301 l 2.957,1.619 C 0.158,-0.652 0.211,-0.383 0,0"
         style="fill:#005bac;fill-opacity:1;fill-rule:nonzero;stroke:none"
         transform="matrix(1.3333333,0,0,-1.3333333,69.593733,141.8984)"
         clip-path="url(#clipPath9)" />
      <path
         id="path10"
         d="m 0,0 -0.133,-0.092 -1.393,2.037 0.135,0.092 C -1.107,1.654 -0.84,1.572 -0.59,1.785 l 2.785,1.904 c 0.299,0.18 0.319,0.459 0.06,0.836 L 2.393,4.619 3.781,2.582 3.646,2.488 C 3.635,2.504 3.625,2.518 3.615,2.535 3.368,2.896 3.106,2.971 2.83,2.76 L 0.045,0.859 C -0.253,0.68 -0.268,0.391 0,0"
         style="fill:#005bac;fill-opacity:1;fill-rule:nonzero;stroke:none"
         transform="matrix(1.3333333,0,0,-1.3333333,69.664,153.3828)"
         clip-path="url(#clipPath11)" />
      <path
         id="path12"
         d="m 0,0 -0.128,-0.105 c -0.261,0.376 -0.561,0.404 -0.91,0.076 l -2.384,-1.936 c -0.752,-0.607 -1.458,-0.521 -2.117,0.26 -0.41,0.539 -0.438,1.023 -0.08,1.453 0.265,0.191 0.51,0.18 0.736,-0.039 0.165,-0.264 0.129,-0.506 -0.116,-0.729 -0.072,-0.058 -0.15,-0.076 -0.239,-0.052 -0.076,0.008 -0.137,-0.006 -0.178,-0.041 -0.104,-0.106 -0.092,-0.235 0.036,-0.393 0.194,-0.24 0.429,-0.238 0.701,0.004 l 3.023,2.453 c 0.307,0.201 0.299,0.488 -0.026,0.86 l 0.127,0.103 z"
         style="fill:#005bac;fill-opacity:1;fill-rule:nonzero;stroke:none"
         transform="matrix(1.3333333,0,0,-1.3333333,77.598933,153.55733)"
         clip-path="url(#clipPath13)" />
      <path
         id="path14"
         d="m 0,0 -0.118,-0.113 -1.705,1.783 0.118,0.113 c 0.341,-0.328 0.618,-0.367 0.832,-0.115 l 2.436,2.33 C 1.827,4.225 1.802,4.504 1.485,4.836 L 1.604,4.947 3.31,3.164 3.192,3.051 C 3.178,3.064 3.165,3.078 3.153,3.092 2.849,3.41 2.579,3.439 2.341,3.188 L -0.097,0.855 C -0.361,0.627 -0.327,0.344 0,0"
         style="fill:#005bac;fill-opacity:1;fill-rule:nonzero;stroke:none"
         transform="matrix(1.3333333,0,0,-1.3333333,75.707067,160.40627)"
         clip-path="url(#clipPath15)" />
      <path
         id="path16"
         d="M 0,0 0.105,0.125 C 0.465,-0.156 0.75,-0.148 0.957,0.156 L 3.11,2.682 C 3.111,3.158 3.07,3.424 2.989,3.469 L 3.098,3.594 4.223,2.633 4.142,-1.225 5.512,0.383 C 5.836,0.707 5.822,1.031 5.473,1.354 L 5.578,1.479 6.727,0.502 6.619,0.373 C 6.291,0.607 6.026,0.582 5.828,0.291 L 3.179,-2.818 3.035,-2.693 3.092,2.195 1.279,0.064 C 0.939,-0.273 0.954,-0.596 1.315,-0.902 L 1.209,-1.031 Z"
         style="fill:#005bac;fill-opacity:1;fill-rule:nonzero;stroke:none"
         transform="matrix(1.3333333,0,0,-1.3333333,76.1588,161.2448)"
         clip-path="url(#clipPath17)" />
      <path
         id="path18"
         d="m 0,0 -0.089,-0.139 c -0.374,0.262 -0.656,0.192 -0.848,-0.205 l -0.486,-0.763 c -0.459,0.035 -1.058,0.263 -1.803,0.699 -1.308,0.9 -1.589,2.039 -0.846,3.404 0.954,1.254 2.11,1.514 3.462,0.779 C -0.38,3.629 -0.131,3.369 0.134,3.006 0.249,2.846 0.321,2.756 0.353,2.738 0.46,2.668 0.603,2.705 0.782,2.852 L 0.946,2.746 0.059,1.363 -0.08,1.449 c 0.139,1 -0.069,1.694 -0.616,2.088 -0.725,0.465 -1.49,0.065 -2.299,-1.197 -0.797,-1.248 -0.817,-2.125 -0.057,-2.633 0.422,-0.291 0.711,-0.283 0.866,0.031 l 0.401,0.627 c 0.241,0.274 0.131,0.541 -0.335,0.797 l 0.088,0.139 z"
         style="fill:#005bac;fill-opacity:1;fill-rule:nonzero;stroke:none"
         transform="matrix(1.3333333,0,0,-1.3333333,89.128933,167.5208)"
         clip-path="url(#clipPath19)" />
      <path
         id="path20"
         d="m 0,0 -0.058,-0.156 c -0.212,0.058 -0.42,-0.031 -0.626,-0.266 l -2.767,-3.41 -0.182,0.066 0.029,3.444 -0.025,0.008 -2.34,-2.581 -0.179,0.071 0.072,4.42 C -6.054,1.92 -6.153,2.121 -6.375,2.205 L -6.316,2.359 -4.391,1.639 -4.45,1.484 C -4.748,1.578 -4.919,1.531 -4.965,1.357 -4.992,1.287 -5.002,1.205 -5.002,1.105 l -0.111,-2.648 0.025,-0.012 1.494,1.725 0.035,0.719 C -3.594,1.057 -3.728,1.195 -3.961,1.303 L -3.902,1.457 -1.85,0.687 -1.906,0.535 C -1.924,0.543 -1.942,0.549 -1.959,0.555 -2.25,0.662 -2.418,0.629 -2.464,0.451 -2.479,0.418 -2.486,0.342 -2.49,0.225 -2.498,0.15 -2.512,0.096 -2.522,0.061 l -0.123,-2.44 0.024,-0.012 1.557,1.967 c 0.052,0.037 0.103,0.115 0.146,0.237 0.064,0.171 -0.025,0.322 -0.269,0.451 -0.018,0.007 -0.034,0.015 -0.052,0.021 l 0.058,0.152 z"
         style="fill:#005bac;fill-opacity:1;fill-rule:nonzero;stroke:none"
         transform="matrix(1.3333333,0,0,-1.3333333,101.8516,168.8828)"
         clip-path="url(#clipPath21)" />
      <path
         id="path22"
         d="M 0,0 -0.032,-0.16 C -0.43,-0.098 -0.65,-0.258 -0.689,-0.643 l -0.447,-2.203 c -0.144,-0.623 -0.356,-1.037 -0.64,-1.24 -0.364,-0.226 -0.841,-0.289 -1.436,-0.185 -0.609,0.123 -1.049,0.343 -1.322,0.658 -0.289,0.318 -0.365,0.773 -0.228,1.359 l 0.46,2.285 c 0.125,0.44 -0.018,0.694 -0.433,0.76 l 0.033,0.156 2.337,-0.47 -0.032,-0.161 C -2.888,0.475 -3.156,0.303 -3.2,-0.193 l -0.461,-2.282 c -0.199,-0.894 0.042,-1.406 0.723,-1.546 0.842,-0.17 1.344,0.244 1.507,1.234 l 0.424,2.098 c 0.131,0.459 -0.047,0.736 -0.529,0.832 l 0.031,0.162 z"
         style="fill:#005bac;fill-opacity:1;fill-rule:nonzero;stroke:none"
         transform="matrix(1.3333333,0,0,-1.3333333,108.29813,170.09893)"
         clip-path="url(#clipPath23)" />
      <path
         id="path24"
         d="m 0,0 -0.287,-1.684 -4.072,0.293 0.004,0.112 2.998,4.179 C -1.979,2.928 -2.334,2.943 -2.426,2.949 -2.555,2.943 -2.676,2.924 -2.787,2.895 -3.124,2.809 -3.422,2.482 -3.684,1.912 -3.703,1.898 -3.713,1.879 -3.714,1.863 L -3.906,1.875 -3.663,3.316 0.026,3.049 0.02,2.938 -2.949,-1.244 c 0.98,-0.108 1.615,-0.08 1.901,0.082 0.38,0.154 0.673,0.545 0.883,1.172 z"
         style="fill:#005bac;fill-opacity:1;fill-rule:nonzero;stroke:none"
         transform="matrix(1.3333333,0,0,-1.3333333,113.96093,174.57027)"
         clip-path="url(#clipPath25)" />
      <path
         id="path26"
         d="m 0,0 0.004,-0.164 -2.465,-0.061 -0.006,0.164 c 0.475,0.03 0.691,0.209 0.647,0.538 l -0.086,3.371 c 0.01,0.343 -0.212,0.515 -0.668,0.504 L -2.579,4.516 -0.112,4.58 -0.109,4.412 H -0.163 C -0.602,4.4 -0.809,4.223 -0.781,3.875 L -0.697,0.504 C -0.707,0.154 -0.474,-0.012 0,0"
         style="fill:#005bac;fill-opacity:1;fill-rule:nonzero;stroke:none"
         transform="matrix(1.3333333,0,0,-1.3333333,118.15627,176.5)"
         clip-path="url(#clipPath27)" />
      <path
         id="path28"
         d="m 0,0 0.027,-0.16 c -0.39,-0.09 -0.537,-0.319 -0.432,-0.688 l 0.392,-2.215 c 0.095,-0.634 0.048,-1.095 -0.142,-1.39 -0.257,-0.342 -0.677,-0.572 -1.269,-0.697 -0.609,-0.11 -1.097,-0.065 -1.468,0.129 -0.387,0.189 -0.623,0.582 -0.71,1.181 l -0.406,2.295 C -4.054,-1.09 -4.279,-0.906 -4.689,-1 l -0.03,0.164 2.346,0.416 0.029,-0.162 c -0.511,-0.033 -0.699,-0.291 -0.558,-0.766 l 0.406,-2.293 c 0.141,-0.904 0.553,-1.295 1.236,-1.173 0.845,0.15 1.162,0.716 0.951,1.699 l -0.373,2.105 c -0.047,0.477 -0.313,0.668 -0.8,0.58 l -0.028,0.162 z"
         style="fill:#005bac;fill-opacity:1;fill-rule:nonzero;stroke:none"
         transform="matrix(1.3333333,0,0,-1.3333333,126.98173,169.1328)"
         clip-path="url(#clipPath29)" />
      <path
         id="path30"
         d="M 0,0 -0.049,0.154 C 0.382,0.309 0.523,0.557 0.376,0.896 L -0.631,4.053 C -1.036,4.309 -1.28,4.412 -1.363,4.367 L -1.412,4.523 -0.001,4.975 3.231,2.867 2.588,4.879 C 2.487,5.324 2.204,5.484 1.746,5.357 L 1.697,5.514 3.132,5.973 3.183,5.816 C 2.81,5.656 2.694,5.418 2.835,5.1 L 4.073,1.207 3.893,1.148 -0.228,3.781 0.623,1.117 C 0.732,0.65 1.013,0.492 1.465,0.635 L 1.516,0.48 Z"
         style="fill:#005bac;fill-opacity:1;fill-rule:nonzero;stroke:none"
         transform="matrix(1.3333333,0,0,-1.3333333,129.0872,175.10933)"
         clip-path="url(#clipPath31)" />
      <path
         id="path32"
         d="m 0,0 0.066,-0.15 -2.26,-0.991 -0.066,0.151 c 0.427,0.207 0.559,0.451 0.395,0.74 l -1.353,3.09 c -0.122,0.326 -0.391,0.398 -0.81,0.215 l -0.066,0.15 2.261,0.988 0.065,-0.15 C -1.785,4.035 -1.803,4.029 -1.816,4.02 -2.221,3.846 -2.344,3.602 -2.186,3.291 l 1.35,-3.088 C -0.713,-0.127 -0.436,-0.189 0,0"
         style="fill:#005bac;fill-opacity:1;fill-rule:nonzero;stroke:none"
         transform="matrix(1.3333333,0,0,-1.3333333,139.0208,171.22133)"
         clip-path="url(#clipPath33)" />
      <path
         id="path34"
         d="m 0,0 0.08,-0.143 c -0.253,-0.14 -0.342,-0.414 -0.265,-0.81 l 0.627,-4.338 -0.166,-0.096 -3.603,2.75 c -0.274,0.223 -0.529,0.266 -0.768,0.133 l -0.082,0.143 2.053,1.162 0.08,-0.145 c -0.396,-0.22 -0.522,-0.41 -0.375,-0.558 0.052,-0.096 0.215,-0.235 0.486,-0.414 l 1.881,-1.489 -0.345,2.45 c -0.008,0.013 -0.02,0.052 -0.03,0.107 -0.025,0.195 -0.058,0.326 -0.094,0.389 -0.078,0.209 -0.304,0.205 -0.687,-0.01 l -0.082,0.142 z"
         style="fill:#005bac;fill-opacity:1;fill-rule:nonzero;stroke:none"
         transform="matrix(1.3333333,0,0,-1.3333333,142.39187,162.44787)"
         clip-path="url(#clipPath35)" />
      <path
         id="path36"
         d="M 0,0 -0.101,0.133 3.15,2.563 3.988,1.443 3.834,1.328 C 3.299,1.953 2.645,1.941 1.871,1.297 1.544,1.098 1.469,0.904 1.652,0.723 l 0.967,-1.297 c 0.604,0.383 0.703,0.89 0.3,1.525 L 3.051,1.049 4.462,-0.84 4.33,-0.937 c -0.506,0.582 -1.025,0.634 -1.564,0.166 l 1.019,-1.36 c 0.135,-0.244 0.371,-0.224 0.711,0.051 0.715,0.512 0.96,1.207 0.734,2.088 L 5.385,0.123 6.033,-1.205 2.74,-3.668 2.643,-3.535 c 0.355,0.289 0.418,0.553 0.193,0.795 L 0.814,-0.037 C 0.622,0.248 0.352,0.266 0,0"
         style="fill:#005bac;fill-opacity:1;fill-rule:nonzero;stroke:none"
         transform="matrix(1.3333333,0,0,-1.3333333,142.71093,162.48173)"
         clip-path="url(#clipPath37)" />
      <path
         id="path38"
         d="m 0,0 0.115,-0.117 -1.025,-0.988 -2.57,0.57 -0.139,-0.135 0.953,-0.982 c 0.266,-0.352 0.561,-0.371 0.89,-0.055 l 0.114,-0.117 -1.695,-1.629 -0.116,0.119 c 0.343,0.301 0.334,0.596 -0.021,0.887 l -2.152,2.218 c -0.303,0.366 -0.602,0.385 -0.893,0.055 l -0.113,0.117 1.617,1.555 c 0.947,0.885 1.707,1.045 2.279,0.481 0.418,-0.407 0.434,-0.948 0.047,-1.624 l 2.415,-0.447 C -0.163,-0.094 -0.064,-0.064 0,0 m -5.027,0.783 1.257,-1.295 c 0.708,0.606 0.769,1.157 0.184,1.655 -0.469,0.486 -0.908,0.533 -1.316,0.14 -0.262,-0.203 -0.304,-0.367 -0.125,-0.5"
         style="fill:#005bac;fill-opacity:1;fill-rule:nonzero;stroke:none"
         transform="matrix(1.3333333,0,0,-1.3333333,156.41933,158.526)"
         clip-path="url(#clipPath39)" />
      <path
         id="path40"
         d="m 0,0 -0.121,-0.146 c -0.824,0.32 -1.445,0.24 -1.865,-0.245 -0.287,-0.402 -0.279,-0.74 0.021,-1.011 0.221,-0.248 0.593,-0.239 1.125,0.035 l 1.027,0.471 C 0.736,-0.686 1.23,-0.762 1.668,-1.119 2.33,-1.756 2.332,-2.502 1.675,-3.359 1.502,-3.57 1.276,-3.775 0.995,-3.973 0.874,-4.062 0.795,-4.129 0.762,-4.17 0.691,-4.256 0.695,-4.354 0.771,-4.463 l -0.123,-0.148 -1.291,1.062 0.122,0.149 c 0.913,-0.444 1.603,-0.381 2.066,0.183 0.333,0.436 0.32,0.824 -0.037,1.164 C 1.236,-1.807 0.85,-1.83 0.346,-2.127 L -0.14,-2.33 c -0.844,-0.397 -1.481,-0.395 -1.911,0.006 -0.672,0.623 -0.699,1.32 -0.088,2.094 0.139,0.169 0.348,0.339 0.629,0.509 0.138,0.08 0.223,0.141 0.256,0.182 0.081,0.1 0.065,0.209 -0.051,0.328 l 0.139,0.168 z"
         style="fill:#005bac;fill-opacity:1;fill-rule:nonzero;stroke:none"
         transform="matrix(1.3333333,0,0,-1.3333333,156.42707,151.80467)"
         clip-path="url(#clipPath41)" />
      <path
         id="path42"
         d="m 0,0 0.135,-0.092 -1.395,-2.037 -0.133,0.094 c 0.253,0.402 0.234,0.681 -0.059,0.834 l -2.784,1.904 c -0.276,0.211 -0.543,0.129 -0.803,-0.25 l -0.132,0.096 1.39,2.037 0.136,-0.094 C -3.654,2.477 -3.666,2.461 -3.676,2.447 -3.922,2.086 -3.897,1.812 -3.602,1.631 L -0.818,-0.27 C -0.541,-0.484 -0.269,-0.393 0,0"
         style="fill:#005bac;fill-opacity:1;fill-rule:nonzero;stroke:none"
         transform="matrix(1.3333333,0,0,-1.3333333,162.37507,150.67187)"
         clip-path="url(#clipPath43)" />
      <path
         id="path44"
         d="m 0,0 0.143,-0.078 -1.2,-2.188 -0.144,0.08 c 0.279,0.432 0.197,0.737 -0.246,0.916 L -4.69,0.514 c -0.413,-0.711 -0.289,-1.301 0.371,-1.768 l -0.092,-0.17 -1.213,0.699 2.02,3.676 1.24,-0.65 -0.105,-0.192 c -0.74,0.325 -1.3,0.121 -1.68,-0.609 l 3.243,-1.781 C -0.518,-0.561 -0.215,-0.465 0,0"
         style="fill:#005bac;fill-opacity:1;fill-rule:nonzero;stroke:none"
         transform="matrix(1.3333333,0,0,-1.3333333,165.10413,145.92453)"
         clip-path="url(#clipPath45)" />
      <path
         id="path46"
         d="M 0,0 0.154,-0.061 0.145,-0.084 C 0.104,-0.285 0.136,-0.455 0.24,-0.596 l 1.547,-2.05 1.199,-0.473 c 0.407,-0.219 0.688,-0.104 0.842,0.348 L 3.984,-2.834 3.09,-5.105 2.936,-5.043 c 0.199,0.453 0.076,0.736 -0.37,0.852 l -0.97,0.382 -2.641,-0.345 c -0.267,-0.033 -0.454,-0.158 -0.557,-0.371 l -0.152,0.06 0.861,2.195 0.155,-0.06 c -0.179,-0.402 -0.17,-0.611 0.017,-0.627 0.051,-0.02 0.157,-0.023 0.323,-0.008 0.046,0.022 0.08,0.027 0.095,0.022 l 1.842,0.187 -0.945,1.197 c -0.16,0.239 -0.323,0.403 -0.487,0.485 -0.179,0.09 -0.352,-0.047 -0.515,-0.414 l -0.153,0.06 z"
         style="fill:#005bac;fill-opacity:1;fill-rule:nonzero;stroke:none"
         transform="matrix(1.3333333,0,0,-1.3333333,162.81253,135.73173)"
         clip-path="url(#clipPath47)" />
      <path
         id="path48"
         d="M 0,0 C 0.057,-0.157 -0.029,-0.297 -0.048,-0.466 -0.125,-1.308 0,-2.452 0,-3.495 0,-4.279 -0.198,-5.064 0.141,-5.59 c -0.362,-1.07 0.044,-2.411 -0.189,-3.771 -0.098,-0.578 -0.702,-1.59 0.095,-1.955 0.298,-0.137 1.04,-0.035 1.443,0.14 0.246,0.104 0.368,0.307 0.606,0.371 0.67,0.189 1.353,-0.187 2.047,0 0.423,0.116 0.742,0.618 1.304,0.793 0.584,0.182 1.636,0.071 2.328,0 1.262,-0.131 2.074,0.065 2.561,-0.793 0.76,-0.202 1.631,-0.249 1.816,-1.024 0.131,-0.553 0.125,-1.628 -0.093,-2.046 -0.196,-0.378 -0.816,-0.62 -1.069,-0.933 -0.344,-0.424 -0.445,-0.813 -0.748,-1.025 -0.715,-0.02 -1.111,-0.471 -1.582,-0.885 -0.326,-0.285 -0.546,-0.714 -0.837,-0.93 -0.26,-0.193 -0.719,-0.24 -1.118,-0.375 -0.389,-0.125 -0.704,-0.4 -0.978,-0.51 -0.237,-0.094 -0.499,-0.053 -0.745,-0.14 -0.314,-0.112 -0.668,-0.327 -0.979,-0.512 -0.577,-0.342 -1.05,-0.626 -1.582,-1.025 -0.22,-0.163 -0.502,-0.258 -0.698,-0.42 -0.219,-0.176 -0.34,-0.472 -0.561,-0.649 -0.41,-0.34 -0.999,-0.474 -1.21,-1.025 0.085,-0.551 -0.073,-1.139 0,-1.584 0.068,-0.385 0.512,-0.996 0.747,-1.116 0.126,-0.068 0.487,-0.134 0.742,-0.095 0.488,0.076 0.666,0.536 1.075,0.887 0.193,0.166 0.485,0.216 0.65,0.324 0.354,0.237 0.402,0.58 0.652,0.931 0.356,0.499 0.932,0.903 1.536,1.165 0.207,0.088 0.356,0.268 0.513,0.326 0.287,0.105 0.585,0.017 0.838,0.138 0.408,0.198 0.44,0.584 0.742,0.84 0.49,-0.078 0.645,0.497 0.981,0.698 0.363,0.218 0.998,0.197 1.443,0.513 0.162,0.115 0.221,0.326 0.371,0.465 0.606,0.558 1.133,0.826 2.19,0.789 1.422,-0.045 3.091,0.057 4.516,0 0.259,-0.164 0.223,-0.442 0.417,-0.697 0.245,-0.313 0.703,-0.463 0.887,-0.744 0.547,-0.837 0.061,-1.026 -0.606,-1.63 -0.237,-0.214 -0.375,-0.556 -0.558,-0.698 -0.21,-0.163 -0.522,-0.203 -0.744,-0.374 -0.266,-0.199 -0.458,-0.563 -0.747,-0.791 -0.153,-0.121 -0.376,-0.16 -0.512,-0.279 -0.255,-0.228 -0.364,-0.616 -0.605,-0.838 -0.603,-0.56 -1.339,-0.804 -1.816,-1.302 -0.816,0.291 -0.947,-0.393 -1.396,-0.792 -0.163,-0.144 -0.454,-0.224 -0.698,-0.42 -0.365,-0.292 -0.591,-0.755 -0.84,-0.883 -0.31,-0.165 -0.713,-0.114 -1.024,-0.234 -0.343,-0.132 -0.745,-0.445 -1.021,-0.652 -0.642,-0.477 -1.105,-1.139 -1.818,-1.399 -0.338,-0.451 -0.541,-0.904 -1.025,-1.162 -0.383,-0.207 -0.797,-0.086 -1.258,-0.234 -0.256,-0.082 -0.362,-0.387 -0.743,-0.557 -0.378,-0.168 -0.695,-0.154 -0.98,-0.328 -0.246,-0.149 -0.364,-0.449 -0.699,-0.699 -0.543,-0.405 -2.057,-0.791 -1.814,-1.953 0.065,-0.313 0.531,-0.493 0.699,-0.653 0.406,-0.387 0.695,-0.76 1.488,-0.652 0.426,0.058 0.976,0.281 1.306,0.558 0.14,0.12 0.173,0.342 0.325,0.514 0.119,0.133 0.35,0.199 0.465,0.324 0.148,0.16 0.193,0.43 0.372,0.561 0.323,0.234 0.851,0.295 1.212,0.465 0.596,0.281 1.148,0.449 1.395,1.023 0.461,0.268 0.921,0.285 1.492,0.467 0.204,0.064 0.296,0.199 0.511,0.373 0.401,0.326 1.077,0.777 1.398,1.162 0.165,0.201 0.219,0.496 0.419,0.652 0.209,0.165 0.566,0.168 0.933,0.327 0.278,0.121 0.514,0.375 0.743,0.464 0.164,0.067 0.349,0.069 0.512,0.141 0.435,0.195 0.853,0.557 1.21,0.883 0.184,0.17 0.268,0.424 0.465,0.609 0.17,0.152 0.428,0.23 0.605,0.371 0.555,0.431 1.164,1.171 1.725,1.583 0.328,0.243 0.785,0.382 0.977,0.605 0.152,0.178 0.192,0.48 0.372,0.606 0.188,0.129 0.735,0.111 0.977,0.185 0.325,0.101 0.563,0.438 0.793,0.419 0.24,-0.016 0.328,-0.274 0.51,-0.559 0.103,-0.156 0.407,-0.428 0.467,-0.604 0.058,-0.168 -0.009,-0.301 0.049,-0.418 0.141,-0.301 0.511,-0.39 0.604,-0.701 0.138,-0.451 0.083,-1.119 0,-1.629 -0.04,-0.232 -0.06,-0.549 -0.092,-0.653 -0.149,-0.449 -0.678,-0.658 -0.793,-1.023 -0.16,-0.512 0.154,-1.047 -0.094,-1.629 -0.153,-0.365 -0.608,-0.494 -0.557,-1.023 -0.512,-0.297 -0.69,-0.881 -1.164,-1.166 -0.395,-0.237 -0.91,-0.25 -1.307,-0.608 -1.028,-0.076 -1.429,-0.685 -2.139,-1.301 -0.361,-0.312 -0.592,-0.824 -0.886,-0.978 -0.256,-0.133 -0.613,-0.092 -0.883,-0.186 -0.249,-0.086 -0.434,-0.3 -0.7,-0.422 -1.189,-0.541 -2.537,-0.494 -3.071,-1.533 -0.293,-0.103 -0.779,-0.205 -1.119,-0.42 -0.264,-0.168 -0.409,-0.466 -0.7,-0.607 -0.432,-0.207 -0.884,-0.027 -1.535,-0.184 -0.414,-0.101 -0.785,-0.502 -1.256,-0.701 -0.2,-0.082 -0.428,-0.07 -0.607,-0.139 -0.676,-0.253 -1.298,-0.937 -1.488,-1.349 -0.083,-0.176 -0.07,-0.387 -0.14,-0.606 -0.073,-0.222 -0.214,-0.339 -0.189,-0.558 0.043,-0.334 0.479,-0.692 0.84,-0.746 0.213,-0.03 0.426,0.105 0.651,0.093 0.383,-0.019 0.599,-0.234 0.885,-0.371 0.505,0 1.131,-0.054 1.492,0.139 0.345,0.189 0.48,0.619 0.791,0.932 0.738,0.744 1.929,0.752 2.652,1.584 1.094,0.275 2.083,1.107 3.121,1.535 0.781,0.322 1.777,0.176 1.953,1.164 0.756,0.428 1.959,0.402 2.236,1.303 0.499,0.568 0.985,1.043 1.582,1.63 0.344,0.336 0.668,0.676 1.073,0.653 1.054,-0.061 0.601,-1.594 1.303,-2.094 -0.227,-0.609 0.374,-1.045 0.373,-1.586 0,-0.152 -0.118,-0.473 -0.186,-0.744 -0.068,-0.277 -0.087,-0.65 -0.138,-0.789 -0.155,-0.422 -0.675,-0.567 -0.839,-0.885 -0.205,-0.4 -0.262,-0.875 -0.56,-1.213 -0.248,-0.285 -0.637,-0.453 -0.886,-0.746 -0.16,-0.191 -0.24,-0.473 -0.417,-0.648 -0.129,-0.135 -0.404,-0.254 -0.606,-0.422 -0.212,-0.178 -0.394,-0.387 -0.56,-0.465 -0.583,-0.281 -1.303,-0.174 -1.907,-0.605 -0.228,-0.165 -0.243,-0.487 -0.468,-0.7 -0.125,-0.121 -0.466,-0.281 -0.744,-0.465 -0.432,-0.287 -0.774,-0.357 -1.304,-0.558 -0.647,-0.25 -1.163,-0.797 -1.721,-0.885 -0.692,-0.109 -1.284,0.102 -1.864,-0.049 -0.636,-0.162 -1.052,-0.443 -1.629,-0.836 -0.277,-0.484 0.069,-1.023 0.092,-1.537 0.022,-0.414 -0.131,-0.744 0,-1.07 0.167,-0.414 0.615,-0.479 0.793,-0.887 -0.085,-0.721 -0.14,-1.283 -0.047,-1.957 0.108,-0.754 0.617,-1.412 0.606,-2.185 -10e-4,-0.213 -0.145,-0.475 -0.14,-0.702 0.007,-0.441 0.32,-0.886 0.371,-1.347 -5.132,-2.289 -14.209,-2.774 -20.022,-0.608 0.072,1.112 -0.086,2 -0.139,3.168 -0.016,0.34 0.135,0.727 0.095,1.024 -0.03,0.199 -0.168,0.369 -0.187,0.56 -0.029,0.338 0.166,0.684 0.138,1.024 -0.015,0.211 -0.211,0.4 -0.231,0.607 -0.039,0.391 0.246,1.053 0.185,1.676 -0.025,0.268 -0.26,0.592 -0.232,0.791 0.035,0.252 0.382,0.482 0.652,0.699 0.23,0.186 0.509,0.555 0.698,0.606 0.195,0.052 0.41,-0.082 0.653,-0.096 0.31,-0.014 0.669,0.137 0.93,0.141 0.174,0.005 0.391,-0.077 0.605,-0.094 0.725,-0.055 1.649,0.172 2.005,0.094 0.326,-0.073 0.549,-0.584 0.791,-0.651 0.222,-0.064 0.631,0.08 0.929,0.092 0.381,0.014 0.706,0.035 1.024,0.045 0.189,0.01 0.398,-0.096 0.605,-0.045 0.375,0.094 0.557,0.58 0.793,0.746 -0.041,0.682 0.559,0.752 0.516,1.209 -0.08,0.777 -1.213,1.045 -2.193,0.977 -0.211,-0.014 -0.431,-0.121 -0.652,-0.139 -0.403,-0.031 -0.871,0.09 -1.303,0 -0.45,-0.092 -0.832,-0.301 -1.164,-0.279 -0.35,0.023 -0.676,0.353 -1.118,0.418 -0.306,0.047 -0.777,0.082 -1.07,0.048 -0.298,-0.037 -0.563,-0.296 -0.793,-0.279 -0.277,0.02 -1.094,0.879 -1.303,1.119 -0.101,0.116 -0.191,0.36 -0.373,0.557 -0.286,0.316 -0.473,0.31 -0.605,0.744 -0.129,0.43 -0.222,1.481 -0.188,1.77 0.051,0.359 0.391,0.707 0.656,1.025 0.266,0.328 0.423,0.744 0.836,0.836 0.378,0.086 0.871,-0.172 1.305,-0.186 0.506,-0.017 1.158,0.061 1.768,0.049 0.648,-0.017 1.368,-0.168 1.769,-0.095 0.486,0.091 0.719,0.554 1.071,0.931 -0.179,0.406 0.183,0.906 0.141,1.26 -0.048,0.394 -0.429,0.832 -0.466,1.394 -0.01,0.168 0.07,0.383 0.046,0.559 -0.077,0.572 -0.599,0.949 -0.7,1.631 -0.057,0.398 0.086,0.783 0.048,1.258 -0.03,0.404 -0.332,0.789 -0.28,1.256 0.04,0.355 0.391,0.541 0.56,0.886 0.052,0.106 0.037,0.278 0.092,0.418 0.06,0.151 0.169,0.221 0.188,0.325 0.097,0.544 -0.046,1.326 -0.094,1.863 -0.056,0.613 0.154,1.222 0.046,1.629 -0.08,0.307 -0.441,0.52 -0.603,0.887 -0.289,0.641 -0.03,1.565 -0.049,2.373 -0.002,0.195 -0.123,0.4 -0.14,0.606 -0.077,0.912 0.248,1.996 0,2.979 -0.098,0.405 -0.403,1.081 -0.325,1.725 0.076,0.622 0.464,1.07 0.42,1.627 -0.043,0.524 -0.219,1.08 -0.281,1.539 -0.02,0.152 0.064,0.307 0.047,0.463 -0.024,0.233 -0.184,0.444 -0.186,0.7 -0.002,0.3 0.175,0.63 0.186,0.931 0.015,0.384 -0.194,0.782 -0.186,1.164 0.004,0.26 0.162,0.494 0.186,0.744 0.066,0.678 0.023,1.322 -0.186,1.956 0.162,0.337 0.438,0.873 0.373,1.398 -0.028,0.214 -0.217,0.455 -0.28,0.746 -0.163,0.743 -0.079,1.406 -0.652,1.676 -0.622,0.29 -1.546,0.069 -1.767,-0.465 -0.077,-0.184 -0.029,-0.445 -0.096,-0.7 -0.072,-0.294 -0.251,-0.566 -0.279,-0.745 -0.127,-0.883 0.156,-1.895 0.141,-2.84 -0.003,-0.207 -0.083,-0.387 -0.093,-0.605 -0.031,-0.704 0.329,-1.35 -0.048,-1.862 0.25,-0.68 0.129,-1.42 0.279,-2.098 0.096,-0.422 0.295,-0.903 0.373,-1.488 0.097,-0.697 0.061,-1.486 0,-2.236 -0.033,-0.406 -0.033,-1.555 0.096,-1.953 0.09,-0.291 0.551,-0.452 0.649,-0.701 0.177,-0.446 -0.028,-1.323 -0.046,-2.001 -0.009,-0.339 0.106,-0.585 0.046,-0.886 -0.051,-0.263 -0.287,-0.443 -0.325,-0.651 -0.138,-0.753 0.537,-1.293 0.512,-2.096 -0.01,-0.261 -0.172,-0.564 -0.233,-0.931 -0.062,-0.352 -0.005,-0.748 -0.093,-1.024 -0.068,-0.215 -0.319,-0.381 -0.371,-0.605 -0.045,-0.174 0.097,-0.481 0.092,-0.744 -0.008,-0.295 -0.147,-0.577 -0.141,-0.793 0.016,-0.518 0.202,-1.198 0.141,-1.909 -0.045,-0.527 -0.247,-1.011 0.045,-1.49 -0.448,-0.791 -0.489,-1.994 -0.745,-2.982 -0.455,-0.182 -0.67,-0.897 -1.209,-1.024 -0.412,-0.095 -0.783,0.104 -1.258,0 -0.206,0.526 -0.775,0.865 -0.884,1.444 -0.031,0.173 0.023,0.394 0,0.605 -0.029,0.262 -0.182,0.498 -0.186,0.748 -0.008,0.289 0.16,0.617 0.141,0.93 -0.016,0.217 -0.137,0.539 -0.188,0.838 -0.096,0.541 -0.134,0.992 -0.42,1.302 -0.156,0.68 0.125,1.305 0.141,1.911 0.008,0.384 -0.178,0.816 -0.187,1.255 -0.026,0.936 0.166,1.733 -0.325,2.609 -0.088,0.156 -0.28,0.34 -0.328,0.511 -0.142,0.521 0.07,1.513 0.048,2.283 -0.005,0.166 -0.093,0.36 -0.093,0.513 -0.007,0.294 0.105,0.613 0.093,0.885 -0.036,0.761 -0.222,1.552 -0.231,2.282 -0.006,0.166 0.093,0.367 0.091,0.557 -0.002,0.129 -0.1,0.255 -0.091,0.373 0.004,0.132 0.109,0.214 0.138,0.373 0.03,0.177 -0.072,0.39 -0.047,0.511 0.079,0.374 0.389,0.692 0.465,1.071 0.056,0.277 -0.017,0.562 0,0.884 0.063,0.986 0.307,1.849 -0.138,2.655 0.206,1.482 0.176,3.59 -0.187,4.703 0.396,0.989 0.091,2.547 -0.327,3.306 0.033,0.169 0.34,0.063 0.514,0.092 0.107,1.504 -0.631,2.204 -0.514,3.587 C -9.406,-0.838 -5.174,0.252 0,0"
         style="fill:#005bac;fill-opacity:1;fill-rule:nonzero;stroke:none"
         transform="matrix(1.3333333,0,0,-1.3333333,117.25267,81.138)"
         clip-path="url(#clipPath49)" />
      <path
         id="path50"
         d="m 0,0 c -0.265,0.816 -0.617,1.625 -0.605,2.469 -0.124,0.498 -0.799,0.814 -0.792,1.302 0.002,0.372 0.543,0.682 0.604,0.932 0.076,0.32 -0.01,0.703 0.094,0.981 C -0.541,6.1 0.186,6.725 0.649,7.127 0.88,7.32 1.176,7.523 1.441,7.732 1.951,8.127 2.463,8.615 3.121,8.801 3.415,8.885 3.771,8.82 4.004,8.895 4.33,9 4.533,9.303 4.889,9.547 5.24,9.789 5.635,9.924 5.913,10.15 c 0.378,0.313 0.696,0.75 1.072,0.932 0.493,0.238 1.155,0.246 1.023,1.072 0.453,-0.386 1.168,0 1.769,0.233 0.317,0.123 0.878,0.408 0.978,0.652 0.183,0.443 -0.083,0.945 0,1.397 0.082,0.435 0.523,0.523 0.604,0.931 -0.375,0.947 0.429,1.32 0.746,1.862 0.028,0.71 -0.037,1.33 -0.373,1.675 0.306,0.192 0.059,0.502 0.096,0.793 0.02,0.176 0.162,0.33 0.184,0.512 0.029,0.223 -0.096,0.459 -0.093,0.746 0.003,0.191 0.099,0.379 0.093,0.559 -0.004,0.175 -0.1,0.398 -0.093,0.558 0.009,0.162 0.147,0.319 0.141,0.467 -0.011,0.215 -0.231,0.398 -0.232,0.606 -0.006,0.173 0.162,0.351 0.184,0.558 0.025,0.215 -0.092,0.455 -0.093,0.746 -0.001,0.672 0.233,1.397 0.141,1.815 -0.07,0.295 -0.333,0.461 -0.419,0.744 0.595,0.773 0.178,1.924 0.324,2.84 0.035,0.215 0.26,0.399 0.281,0.607 0.044,0.458 -0.168,1.173 -0.234,1.583 -0.03,0.173 0.018,0.373 0,0.558 -0.033,0.338 -0.225,0.649 -0.28,0.978 -0.066,0.421 0.17,1.041 0.096,1.35 -0.105,0.413 -0.535,0.389 -0.7,0.7 -0.239,0.445 -0.072,1.008 -0.187,1.348 -0.101,0.298 -0.366,0.72 -0.558,0.98 -0.189,0.252 -0.81,0.787 -1.164,0.929 -0.231,0.092 -0.514,0.027 -0.746,0.094 -0.244,0.071 -0.44,0.272 -0.653,0.326 -0.182,0.046 -0.396,0.022 -0.604,0.092 -0.369,0.127 -0.56,0.478 -0.931,0.791 -0.777,0.66 -1.614,1.261 -2.281,2.051 0.176,0.687 -0.085,1.047 0,1.723 -0.158,0.275 -0.541,0.328 -0.652,0.65 0.133,0.521 0.041,0.936 0.184,1.351 0.169,0.468 0.569,0.538 0.422,1.303 -0.111,0.565 -0.606,0.751 -1.024,1.119 -0.377,0.327 -0.469,0.655 -0.977,0.744 -0.428,0.077 -0.978,-0.048 -1.538,0 -1.304,0.116 -3.049,0.012 -4.424,0.047 -1.015,0.024 -2.176,-0.343 -2.886,0.28 -0.423,-0.323 -0.865,-0.174 -1.351,0 -0.664,0.791 -0.512,2.345 -0.512,4.003 v 2.934 0.093 c 0.036,0.007 0.047,0.048 0.094,0.048 C -1.893,55.286 3.373,52.365 7.543,48.194 11.627,44.111 14.806,38.913 16.018,32.13 17.43,24.211 15.371,17.027 12.571,11.969 9.646,6.684 5.32,2.781 0,0"
         style="fill:#005bac;fill-opacity:1;fill-rule:nonzero;stroke:none"
         transform="matrix(1.3333333,0,0,-1.3333333,133.51827,157.00787)"
         clip-path="url(#clipPath51)" />
      <path
         id="path52"
         d="M 0,0 C 0.05,-0.137 0.414,0.043 0.465,-0.094 0.744,-0.787 0.442,-1.512 0.043,-1.815 0.139,-2.48 -0.121,-3.066 -0.094,-3.68 c 0.024,-0.5 0.129,-1.002 0.137,-1.534 0.017,-0.8 -0.154,-1.574 0,-2.377 0.043,-0.204 0.18,-0.395 0.188,-0.604 C 0.256,-8.77 -0.047,-9.318 0,-10.058 c 0.029,-0.483 0.146,-0.946 0.187,-1.443 0.065,-0.849 -0.125,-1.72 -0.048,-2.562 0.041,-0.446 0.187,-1.072 0.092,-1.721 -0.028,-0.193 -0.147,-0.36 -0.139,-0.56 0.009,-0.241 0.244,-0.531 0.28,-0.791 0.051,-0.388 -0.07,-0.888 -0.185,-1.256 -0.068,-0.213 -0.22,-0.399 -0.234,-0.605 -0.032,-0.427 0.213,-1.264 0.278,-1.678 0.085,-0.517 -0.034,-1.126 0.093,-1.536 0.11,-0.351 0.422,-0.47 0.512,-0.746 0.098,-0.3 0.156,-0.748 0.141,-1.117 -0.026,-0.674 -0.604,-1.26 -0.653,-1.957 -0.013,-0.205 0.092,-0.42 0.096,-0.65 0.004,-0.572 -0.184,-1.065 0,-1.535 0.131,-0.342 0.355,-0.409 0.604,-0.7 0.027,-0.746 -0.041,-1.502 0.091,-2.283 -0.262,-0.312 -0.372,-0.642 -0.743,-0.791 -0.628,-0.248 -1.983,-0.011 -2.794,-0.092 -0.228,-0.023 -0.463,-0.111 -0.606,-0.095 -0.54,0.068 -1.576,1.183 -1.675,1.912 -0.051,0.365 -0.03,0.814 -0.048,1.164 -0.022,0.502 0.171,1.012 0.139,1.441 -0.011,0.172 -0.134,0.342 -0.139,0.514 -0.012,0.51 0.212,1.016 0.139,1.584 -0.036,0.291 -0.179,0.584 -0.185,0.885 -0.008,0.295 0.121,0.582 0.094,0.883 -0.024,0.265 -0.164,0.529 -0.188,0.791 -0.039,0.451 0.058,0.91 0.094,1.398 0.041,0.532 -0.084,1.068 -0.047,1.538 0.016,0.171 0.123,0.303 0.141,0.463 0.037,0.357 -0.125,0.692 -0.141,1.072 -0.021,0.51 0.08,1.041 0.047,1.536 -0.017,0.263 -0.127,0.49 -0.139,0.743 -0.06,1.258 0.393,2.634 -0.513,3.075 -0.131,0.337 0.271,0.736 0.281,1.072 0.006,0.312 -0.439,0.704 -0.468,1.072 -0.014,0.191 0.092,0.398 0.093,0.603 0.012,1.008 -0.201,2.277 -0.232,3.493 -0.011,0.433 0.093,0.839 0.093,1.255 -0.002,0.221 -0.097,0.437 -0.093,0.653 0.035,1.273 0.27,2.292 -0.371,3.259 1.945,1.702 4.099,3.194 6.518,4.424 C 0.547,2.324 0.654,1.886 0.557,1.49 0.491,1.227 0.129,1.098 0.043,0.792 -0.047,0.449 0.2,0.322 0,0"
         style="fill:#005bac;fill-opacity:1;fill-rule:nonzero;stroke:none"
         transform="matrix(1.3333333,0,0,-1.3333333,96.828133,88.9004)"
         clip-path="url(#clipPath53)" />
      <path
         id="path54"
         d="m 0,0 c -0.089,-0.408 0.038,-0.774 0.091,-1.255 0.129,-1.142 0.017,-2.589 0.096,-3.82 0.029,-0.473 -0.073,-1.032 0.044,-1.444 0.081,-0.283 0.528,-0.561 0.652,-0.884 0.386,-0.992 -0.032,-2.423 0,-3.63 0.011,-0.36 0.167,-0.73 0.235,-1.119 0.051,-0.305 0.012,-0.639 0.044,-0.932 0.041,-0.345 0.208,-0.697 0.189,-1.025 -0.037,-0.561 -0.378,-1.198 -0.375,-1.721 0.005,-0.696 0.097,-1.678 0.279,-2.375 0.164,-0.618 0.783,-1.422 0.746,-1.911 -0.023,-0.301 -0.381,-0.656 -0.466,-1.023 -0.159,-0.682 0.098,-1.526 0,-2.141 -0.046,-0.297 -0.266,-0.572 -0.327,-0.887 -0.178,-0.97 -0.047,-2.347 0.047,-3.539 0.101,-1.257 -0.377,-2.669 0.328,-3.722 0.398,0.086 0.794,0.027 1.209,0.092 0.262,0.041 0.479,0.22 0.746,0.234 0.229,0.008 0.42,-0.139 0.699,-0.188 0.617,-0.107 1.465,0.016 2.047,0 0.183,-0.005 0.384,-0.132 0.561,-0.138 0.454,-0.022 0.924,0.117 1.349,0.232 0.41,-0.176 0.87,-0.105 1.256,-0.14 0.516,-0.153 0.677,-0.661 0.932,-1.071 0.097,-0.58 -0.32,-0.894 -0.465,-1.302 -0.145,-0.399 -0.055,-0.827 -0.14,-1.307 -0.1,-0.555 -0.532,-1.047 -0.652,-1.488 -0.415,-0.291 -0.892,0.072 -1.396,0 -0.279,-0.039 -0.515,-0.385 -0.792,-0.467 -0.38,-0.11 -0.965,0.121 -1.584,0.047 -0.295,-0.034 -0.543,-0.219 -0.791,-0.231 -0.666,-0.041 -1.139,0.174 -1.583,-0.328 -0.381,0.188 -0.804,0.018 -1.304,0 -0.914,-0.033 -1.918,0.199 -2.514,-0.139 -0.287,-0.164 -0.287,-0.337 -0.467,-0.605 -0.127,-0.191 -0.45,-0.369 -0.326,-0.699 -3.48,4.416 -5.937,10.236 -6.379,17.367 -0.04,0.674 -0.047,1.457 0,2.189 0.269,4.114 1.157,7.775 2.561,10.942 C -3.999,-5.164 -2.218,-2.397 0,0"
         style="fill:#005bac;fill-opacity:1;fill-rule:nonzero;stroke:none"
         transform="matrix(1.3333333,0,0,-1.3333333,85.839867,93.9916)"
         clip-path="url(#clipPath55)" />
      <path
         id="path56"
         d="M 0,0 C 0.295,-0.395 0.732,-0.715 1.07,-0.137 1.481,-0.162 1.474,-0.602 1.816,-0.697 2.313,-0.664 2.77,-0.725 2.979,-1.021 3.26,-1.424 2.866,-2.211 3.117,-2.791 3.244,-3.076 3.412,-3.102 3.586,-3.398 3.728,-4.543 3.537,-5.416 3.49,-6.607 3.006,-7.031 2.838,-7.836 3.026,-8.566 c -4.232,1.824 -7.64,4.464 -10.524,7.636 0.625,0.211 1.264,-0.072 1.863,0.141 0.238,0.082 0.373,0.416 0.559,0.512 0.122,0.062 0.519,0.146 0.792,0.187 0.239,0.033 0.589,0.084 0.792,0.09 0.201,0.01 0.391,-0.127 0.605,-0.137 0.169,-0.009 0.349,0.092 0.512,0.092 0.627,0 1.203,-0.092 1.814,-0.139 C -0.35,-0.146 -0.224,-0.021 0,0"
         style="fill:#005bac;fill-opacity:1;fill-rule:nonzero;stroke:none"
         transform="matrix(1.3333333,0,0,-1.3333333,95.2136,146.57813)"
         clip-path="url(#clipPath57)" />
      <path
         id="path58"
         d="m 0,0 c -0.028,-0.309 -0.074,-0.617 -0.132,-0.921 -0.033,-0.167 -0.105,-0.329 -0.164,-0.491 -0.037,-0.102 -0.091,-0.198 -0.122,-0.302 -0.041,-0.14 -0.141,-0.221 -0.259,-0.291 -0.188,-0.112 -0.395,-0.177 -0.602,-0.241 -0.033,-0.009 -0.068,-0.018 -0.101,-0.027 -0.141,-0.04 -0.28,-0.081 -0.423,-0.117 -0.152,-0.04 -0.295,-10e-4 -0.42,0.085 -0.113,0.078 -0.216,0.168 -0.256,0.309 -0.017,0.071 -0.006,0.14 0.041,0.197 0.122,0.15 0.251,0.294 0.372,0.447 0.095,0.123 0.187,0.252 0.267,0.387 0.082,0.136 0.15,0.281 0.218,0.425 0.046,0.097 0.058,0.202 0.029,0.31 -0.032,0.123 -0.05,0.251 -0.091,0.37 -0.054,0.167 -0.125,0.331 -0.189,0.495 -0.02,0.049 -0.043,0.097 -0.058,0.148 -0.042,0.139 -0.081,0.278 -0.114,0.418 -0.006,0.021 0.02,0.064 0.04,0.073 0.107,0.05 0.214,0.101 0.325,0.134 0.203,0.063 0.369,0.182 0.526,0.316 0.043,0.036 0.088,0.068 0.129,0.107 0.136,0.131 0.289,0.125 0.447,0.049 C -0.408,1.817 -0.29,1.731 -0.156,1.682 0.049,1.606 0.071,1.439 0.092,1.261 0.139,0.835 0.037,0.419 0,0 m -2.68,-1.259 c -0.008,-0.064 -0.046,-0.073 -0.091,-0.081 -0.056,-0.011 -0.071,0.023 -0.085,0.067 -0.072,0.202 -0.149,0.402 -0.224,0.602 -0.011,0.027 -0.025,0.054 -0.038,0.08 -0.049,0.106 -0.032,0.2 0.018,0.303 0.049,0.101 0.077,0.212 0.101,0.32 0.009,0.038 -0.013,0.085 -0.028,0.126 -0.032,0.086 -0.071,0.169 -0.104,0.255 -0.015,0.039 -0.01,0.067 0.037,0.076 0.026,0.004 0.051,0.01 0.073,0.019 0.025,0.007 0.048,0.013 0.074,0.018 0.008,0.001 0.013,0.002 0.021,0.003 0.014,0.001 0.03,0.003 0.044,0.003 0.046,0.004 0.091,0.008 0.138,0.01 0.025,0.002 0.05,0.003 0.076,0.005 0.025,0.001 0.055,-0.007 0.08,-0.017 0.07,-0.025 0.085,-0.053 0.057,-0.121 -0.037,-0.095 -0.076,-0.19 -0.121,-0.28 -0.061,-0.119 -0.071,-0.238 -0.02,-0.364 0.033,-0.087 0.059,-0.179 0.074,-0.269 0.014,-0.087 0.063,-0.125 0.14,-0.148 0.108,-0.034 0.136,-0.159 0.059,-0.238 -0.076,-0.076 -0.147,-0.152 -0.214,-0.234 -0.032,-0.038 -0.062,-0.088 -0.067,-0.135 m -2.656,-1.03 c -0.098,-0.018 -0.193,-0.042 -0.291,-0.063 -0.068,-0.014 -0.135,-0.038 -0.203,-0.05 -0.076,-0.016 -0.072,0.083 -0.088,0.136 -0.01,0.033 -0.019,0.066 -0.027,0.103 -0.002,0.019 0.021,0.051 0.04,0.067 0.093,0.075 0.153,0.169 0.192,0.282 0.027,0.082 0.074,0.158 0.111,0.236 0.02,0.04 0.047,0.055 0.09,0.032 0.057,-0.03 0.116,-0.056 0.17,-0.09 0.061,-0.037 0.07,-0.103 0.074,-0.166 0,-0.02 -0.005,-0.044 -0.024,-0.054 -0.019,-0.01 -0.046,-10e-4 -0.06,-0.019 -0.015,-0.016 -0.002,-0.047 0.006,-0.065 0.01,-0.028 0.02,-0.058 0.029,-0.087 0.016,-0.052 0.034,-0.104 0.049,-0.157 0.025,-0.09 0.024,-0.087 -0.068,-0.105 M 0.947,2.107 C 0.844,2.335 0.699,2.537 0.484,2.681 0.25,2.834 0.002,2.905 -0.272,2.814 -0.369,2.782 -0.461,2.731 -0.558,2.704 -1.071,2.557 -1.587,2.416 -2.102,2.272 -2.15,2.259 -2.188,2.249 -2.207,2.317 -2.219,2.357 -2.252,2.392 -2.271,2.43 -2.319,2.526 -2.354,2.615 -2.334,2.735 -2.305,2.913 -2.35,3.092 -2.486,3.218 -2.6,3.324 -2.735,3.41 -2.867,3.491 -3.01,3.578 -3.166,3.584 -3.322,3.524 -3.441,3.48 -3.557,3.423 -3.585,3.289 -3.606,3.19 -3.601,3.085 -3.599,2.982 -3.597,2.882 -3.57,2.78 -3.579,2.681 -3.619,2.248 -3.641,1.813 -3.637,1.379 -3.637,1.339 -3.643,1.293 -3.662,1.261 -3.866,0.933 -4.148,0.708 -4.533,0.627 -4.576,0.618 -4.59,0.634 -4.596,0.668 c -0.025,0.157 -0.062,0.313 -0.072,0.47 -0.017,0.267 -0.018,0.533 -0.021,0.799 0,0.108 0.011,0.211 0.063,0.313 0.094,0.183 0.204,0.357 0.255,0.562 0.056,0.229 0.057,0.441 -0.127,0.62 -0.14,0.137 -0.287,0.261 -0.469,0.341 C -5.076,3.821 -5.178,3.807 -5.273,3.736 -5.326,3.696 -5.379,3.655 -5.434,3.616 -5.644,3.468 -5.796,3.275 -5.877,3.029 -5.975,2.732 -6.012,2.428 -5.977,2.116 -5.973,2.085 -5.971,2.042 -5.988,2.02 -6.085,1.904 -6.228,1.896 -6.342,1.999 -6.384,2.037 -6.422,2.082 -6.45,2.131 -6.525,2.264 -6.617,2.381 -6.748,2.46 -6.806,2.493 -6.873,2.539 -6.929,2.532 -7.062,2.514 -7.187,2.458 -7.289,2.364 -7.495,2.171 -7.593,1.936 -7.57,1.65 -7.555,1.461 -7.552,1.27 -7.537,1.08 -7.521,0.902 -7.5,0.725 -7.477,0.547 c 0.016,-0.139 0.032,-0.279 0.061,-0.416 0.035,-0.156 0.08,-0.309 0.129,-0.462 0.03,-0.094 0.093,-0.161 0.199,-0.178 0.117,-0.019 0.228,0.009 0.332,0.051 0.125,0.05 0.244,0.107 0.332,0.226 0.112,0.15 0.252,0.276 0.418,0.368 0.072,0.041 0.156,0.034 0.213,-0.019 0.098,-0.091 0.123,-0.215 0.141,-0.338 0.004,-0.026 -0.016,-0.057 -0.032,-0.082 -0.052,-0.083 -0.103,-0.166 -0.161,-0.243 -0.249,-0.335 -0.514,-0.656 -0.805,-0.954 -0.139,-0.143 -0.229,-0.312 -0.254,-0.508 -0.031,-0.23 -0.055,-0.462 -0.075,-0.693 -0.005,-0.056 0.006,-0.12 0.028,-0.173 0.06,-0.145 0.189,-0.199 0.332,-0.191 0.156,0.01 0.31,0.044 0.465,0.068 0.332,0.052 0.644,-0.009 0.942,-0.161 0.025,-0.013 0.05,-0.034 0.066,-0.057 0.119,-0.166 0.234,-0.331 0.352,-0.494 0.017,-0.023 0.054,-0.042 0.083,-0.042 0.141,-0.007 0.281,0.002 0.422,-0.009 0.096,-0.008 0.154,0.035 0.195,0.11 0.033,0.059 0.062,0.12 0.074,0.185 0.059,0.279 0.041,0.558 -0.023,0.834 -0.033,0.153 -0.094,0.3 -0.138,0.452 -0.112,0.391 -0.219,0.784 -0.285,1.188 -0.038,0.238 0.02,0.439 0.167,0.626 0.153,0.194 0.336,0.355 0.526,0.511 0.068,0.056 0.144,0.104 0.222,0.161 0.035,-0.103 0.069,-0.196 0.102,-0.29 0.047,-0.132 0.095,-0.264 0.142,-0.398 0.006,-0.019 0.005,-0.045 -10e-4,-0.064 -0.04,-0.118 -0.083,-0.236 -0.122,-0.354 -0.008,-0.023 -0.009,-0.051 -0.004,-0.074 0.032,-0.142 0.069,-0.283 0.1,-0.426 0.023,-0.101 0.042,-0.204 0.061,-0.306 0.037,-0.183 0.067,-0.368 0.107,-0.55 0.034,-0.149 0.121,-0.268 0.232,-0.369 0.17,-0.155 0.377,-0.25 0.582,-0.349 0.157,-0.077 0.317,-0.136 0.495,-0.143 0.175,-0.007 0.349,-0.04 0.524,-0.046 0.169,-0.006 0.339,-0.008 0.503,0.016 0.214,0.032 0.414,0.121 0.602,0.225 0.257,0.143 0.425,0.357 0.499,0.644 0.043,0.16 0.081,0.323 0.121,0.484 0.105,0.428 0.213,0.855 0.315,1.285 0.078,0.321 0.147,0.643 0.217,0.966 C 0.99,0.867 1.052,1.177 1.059,1.494 1.063,1.708 1.033,1.916 0.947,2.107"
         style="fill:#005bac;fill-opacity:1;fill-rule:evenodd;stroke:none"
         transform="matrix(1.3333333,0,0,-1.3333333,107.44787,70.005867)"
         clip-path="url(#clipPath59)" />
      <path
         id="path60"
         d="m 0,0 c -0.137,-0.14 -0.272,-0.216 -0.435,-0.243 -0.198,-0.03 -0.3,0.134 -0.288,0.256 0.011,0.104 -0.005,0.196 -0.044,0.291 -0.064,0.156 -0.003,0.263 0.163,0.283 0.105,0.013 0.216,0 0.324,-0.004 C -0.196,0.579 -0.114,0.569 -0.032,0.565 0.112,0.557 0.146,0.483 0.145,0.36 0.141,0.212 0.089,0.081 0,0 M 5.485,3.359 C 5.55,3.358 5.616,3.342 5.679,3.329 5.722,3.319 5.761,3.295 5.804,3.288 5.976,3.259 6.146,3.229 6.319,3.211 6.385,3.204 6.457,3.22 6.521,3.239 6.599,3.261 6.669,3.305 6.745,3.327 6.858,3.358 6.945,3.411 7.003,3.518 7.05,3.601 7.083,3.672 7.025,3.764 6.99,3.82 6.974,3.888 6.942,3.946 6.886,4.045 6.886,4.144 6.907,4.252 6.966,4.545 6.724,4.795 6.429,4.752 6.349,4.741 6.271,4.714 6.194,4.689 6.021,4.635 5.851,4.641 5.687,4.713 5.495,4.8 5.306,4.893 5.114,4.98 5.094,4.99 5.067,4.994 5.044,4.993 4.915,4.987 4.782,4.949 4.661,5.01 4.562,5.062 4.464,5.126 4.384,5.203 4.164,5.41 3.954,5.627 3.74,5.839 3.725,5.855 3.696,5.87 3.678,5.868 3.483,5.845 3.292,5.81 3.151,5.651 3.14,5.637 3.099,5.629 3.08,5.639 2.852,5.754 2.603,5.834 2.429,6.044 2.335,6.159 2.216,6.252 2.108,6.355 1.999,6.46 1.892,6.566 1.781,6.667 1.667,6.771 1.532,6.784 1.392,6.741 1.353,6.73 1.31,6.702 1.286,6.668 1.208,6.554 1.149,6.43 1.13,6.289 1.11,6.156 1.085,6.024 1.06,5.894 1.036,5.772 1.029,5.654 1.091,5.542 1.257,5.242 1.454,4.964 1.673,4.701 1.746,4.611 1.862,4.595 1.956,4.661 2.081,4.748 2.204,4.836 2.325,4.928 2.456,5.028 2.589,5.127 2.716,5.232 2.765,5.273 2.788,5.254 2.817,5.219 2.853,5.173 2.888,5.126 2.923,5.082 2.989,5.002 3.048,4.926 3.011,4.809 2.993,4.752 3.003,4.684 3.011,4.623 3.033,4.439 3.145,4.327 3.327,4.295 3.464,4.271 3.602,4.249 3.739,4.23 3.772,4.225 3.812,4.224 3.839,4.238 3.905,4.27 3.97,4.308 4.03,4.351 4.093,4.396 4.158,4.413 4.234,4.414 4.329,4.416 4.414,4.44 4.463,4.541 4.503,4.628 4.613,4.655 4.7,4.612 4.855,4.537 5.011,4.462 5.166,4.387 5.222,4.361 5.233,4.297 5.183,4.259 5.104,4.204 5.026,4.142 4.921,4.152 4.894,4.155 4.866,4.162 4.84,4.158 4.72,4.141 4.601,4.125 4.483,4.099 4.372,4.073 4.247,4.09 4.153,3.998 4.134,3.98 4.097,3.977 4.067,3.975 3.999,3.97 3.932,3.964 3.865,3.972 3.632,4 3.397,4.034 3.164,4.065 2.586,4.146 2.007,4.225 1.431,4.31 1.253,4.337 1.078,4.386 0.903,4.433 0.732,4.479 0.567,4.517 0.387,4.458 0.233,4.408 0.069,4.402 -0.094,4.424 -0.271,4.449 -0.448,4.47 -0.626,4.493 -0.884,4.527 -1.144,4.562 -1.405,4.595 -1.435,4.599 -1.483,4.592 -1.497,4.572 -1.63,4.383 -1.648,4.171 -1.37,4.081 -1.237,4.036 -1.096,4.011 -0.956,3.997 -0.378,3.936 0.201,3.882 0.78,3.826 0.978,3.807 1.179,3.816 1.369,3.742 1.44,3.714 1.515,3.697 1.588,3.674 1.978,3.554 2.377,3.457 2.734,3.249 3.081,3.046 3.429,2.845 3.774,2.642 3.876,2.582 3.891,2.433 3.799,2.364 3.729,2.31 3.649,2.266 3.577,2.214 3.499,2.16 3.418,2.161 3.332,2.195 3.169,2.259 3.01,2.33 2.866,2.438 2.817,2.478 2.769,2.532 2.71,2.547 2.367,2.636 2.022,2.723 1.665,2.713 1.513,2.709 1.359,2.709 1.208,2.702 1.149,2.699 1.101,2.668 1.081,2.609 1.06,2.547 1.077,2.49 1.122,2.442 1.188,2.374 1.273,2.361 1.362,2.349 1.415,2.341 1.472,2.325 1.515,2.296 1.593,2.247 1.621,2.166 1.621,2.075 1.622,1.96 1.616,1.842 1.547,1.75 1.458,1.628 1.349,1.522 1.25,1.409 1.219,1.374 1.187,1.364 1.141,1.369 0.8,1.404 0.457,1.423 0.115,1.388 -0.034,1.372 -0.183,1.351 -0.319,1.279 -0.525,1.171 -0.698,1.017 -0.868,0.863 -1.072,0.677 -1.25,0.468 -1.334,0.195 -1.366,0.09 -1.419,-0.01 -1.45,-0.115 c -0.047,-0.157 -0.072,-0.318 0.023,-0.469 0.098,-0.158 0.228,-0.285 0.379,-0.39 0.197,-0.138 0.416,-0.226 0.656,-0.265 0.362,-0.06 0.689,-0.017 0.955,0.266 0.075,0.08 0.166,0.145 0.252,0.214 0.1,0.084 0.207,0.163 0.303,0.251 0.096,0.085 0.178,0.183 0.27,0.272 0.021,0.019 0.056,0.035 0.083,0.031 C 1.556,-0.215 1.639,-0.24 1.724,-0.25 1.862,-0.266 2.007,-0.305 2.143,-0.254 2.3,-0.196 2.454,-0.127 2.601,-0.045 2.72,0.019 2.719,0.121 2.626,0.213 2.515,0.322 2.406,0.433 2.295,0.542 2.247,0.59 2.246,0.634 2.286,0.688 2.334,0.753 2.376,0.821 2.419,0.889 2.448,0.932 2.479,0.964 2.534,0.98 2.735,1.04 2.933,1.111 3.109,1.23 3.146,1.256 3.159,1.275 3.149,1.319 3.138,1.381 3.13,1.444 3.128,1.506 3.123,1.651 3.217,1.743 3.364,1.735 3.569,1.725 3.772,1.7 3.976,1.703 4.189,1.706 4.404,1.728 4.618,1.751 4.733,1.764 4.854,1.779 4.962,1.826 5.116,1.893 5.255,1.996 5.409,2.067 5.495,2.107 5.523,2.167 5.536,2.245 5.56,2.375 5.558,2.503 5.507,2.628 5.466,2.736 5.404,2.818 5.286,2.873 5.11,2.953 5.051,3.107 5.126,3.294 5.136,3.316 5.169,3.341 5.194,3.343 5.291,3.354 5.388,3.361 5.485,3.359"
         style="fill:#005bac;fill-opacity:1;fill-rule:evenodd;stroke:none"
         transform="matrix(1.3333333,0,0,-1.3333333,143.14453,80.9844)"
         clip-path="url(#clipPath61)" />
      <path
         id="path62"
         d="M 0,0 C 0.197,0.045 0.395,0.097 0.596,0.11 0.756,0.122 0.921,0.083 1.084,0.066 1.227,0.052 1.367,0.037 1.51,0.032 1.59,0.029 1.671,0.054 1.75,0.058 2.252,0.073 2.753,0.067 3.248,-0.028 3.471,-0.071 3.694,-0.103 3.924,-0.087 4.1,-0.075 4.267,-0.038 4.414,0.058 4.581,0.167 4.711,0.314 4.814,0.481 4.977,0.743 5.07,1.024 5.048,1.338 5.043,1.41 5.021,1.469 4.968,1.515 4.924,1.554 4.885,1.596 4.838,1.628 4.715,1.717 4.584,1.764 4.436,1.692 4.419,1.686 4.395,1.69 4.376,1.696 4.18,1.754 3.981,1.809 3.792,1.879 3.543,1.972 3.29,2.056 3.07,2.213 2.895,2.339 2.813,2.524 2.872,2.711 2.895,2.783 2.871,2.816 2.82,2.853 2.699,2.945 2.566,2.956 2.441,2.874 2.367,2.824 2.3,2.764 2.23,2.706 2.193,2.675 2.154,2.645 2.127,2.607 2.032,2.476 1.942,2.342 1.854,2.209 1.839,2.187 1.827,2.149 1.836,2.126 1.916,1.901 2.003,1.678 2.175,1.504 2.225,1.453 2.291,1.398 2.357,1.385 2.484,1.359 2.541,1.265 2.6,1.175 2.67,1.067 2.627,0.993 2.503,0.962 2.248,0.897 1.989,0.841 1.738,0.761 1.533,0.697 1.367,0.739 1.211,0.874 1.137,0.938 1.107,1.015 1.143,1.108 1.17,1.181 1.205,1.251 1.244,1.32 1.305,1.428 1.374,1.532 1.433,1.641 1.508,1.785 1.424,2.022 1.223,2.044 1.075,2.06 0.927,2.071 0.779,2.063 0.666,2.055 0.544,2.032 0.44,1.982 0.299,1.916 0.209,1.786 0.156,1.64 0.087,1.451 0,1.278 -0.156,1.142 -0.295,1.02 -0.408,0.866 -0.574,0.774 -0.747,0.677 -0.928,0.591 -1.103,0.496 -1.291,0.392 -1.476,0.28 -1.664,0.175 -1.761,0.12 -1.858,0.067 -1.957,0.017 -2.18,-0.096 -2.402,-0.208 -2.626,-0.319 c 10e-4,-0.002 0.002,-0.004 0.005,-0.008 -0.015,-0.009 -0.028,-0.018 -0.043,-0.024 -0.067,-0.027 -0.096,-0.076 -0.106,-0.147 -0.013,-0.101 -0.041,-0.2 -0.066,-0.298 -0.043,-0.163 -0.09,-0.324 -0.134,-0.487 -0.014,-0.056 0.001,-0.11 0.057,-0.126 0.112,-0.035 0.231,-0.05 0.335,0.013 0.234,0.143 0.466,0.291 0.691,0.444 0.142,0.098 0.27,0.216 0.408,0.318 0.081,0.063 0.164,0.119 0.252,0.165 0.125,0.064 0.256,0.115 0.385,0.171 0.139,0.061 0.276,0.125 0.418,0.177 C -0.285,-0.072 -0.143,-0.032 0,0 m 8.441,-3.631 c -0.003,0.011 -0.021,0.025 -0.035,0.025 -0.088,0.004 -0.16,0.047 -0.22,0.105 -0.147,0.135 -0.288,0.273 -0.425,0.417 -0.081,0.083 -0.154,0.177 -0.226,0.269 -0.034,0.042 -0.021,0.072 0.027,0.098 0.145,0.075 0.288,0.15 0.425,0.234 0.058,0.035 0.107,0.087 0.154,0.135 0.07,0.069 0.084,0.156 0.048,0.244 -0.05,0.117 -0.107,0.23 -0.158,0.345 C 7.998,-1.683 7.955,-1.606 7.944,-1.526 7.9,-1.191 7.725,-0.915 7.548,-0.64 7.521,-0.599 7.481,-0.562 7.441,-0.53 7.303,-0.425 7.137,-0.399 6.97,-0.399 6.898,-0.398 6.818,-0.419 6.762,-0.458 6.67,-0.522 6.609,-0.622 6.584,-0.731 6.551,-0.867 6.524,-1.004 6.5,-1.141 6.486,-1.216 6.479,-1.288 6.413,-1.343 6.354,-1.396 6.307,-1.462 6.248,-1.518 6.227,-1.536 6.183,-1.55 6.158,-1.542 5.995,-1.487 5.833,-1.429 5.676,-1.365 5.598,-1.335 5.527,-1.288 5.452,-1.253 5.174,-1.12 4.896,-0.987 4.617,-0.855 4.525,-0.812 4.441,-0.747 4.346,-0.72 4.193,-0.679 4.039,-0.68 3.896,-0.783 3.734,-0.899 3.563,-1.001 3.396,-1.11 3.384,-1.118 3.375,-1.128 3.363,-1.138 3.261,-1.218 3.158,-1.3 3.053,-1.379 2.996,-1.421 2.986,-1.472 3.04,-1.521 3.068,-1.546 3.104,-1.571 3.139,-1.579 3.246,-1.601 3.353,-1.618 3.461,-1.63 3.677,-1.654 3.894,-1.671 4.109,-1.694 4.348,-1.72 4.588,-1.763 4.817,-1.651 4.885,-1.62 4.937,-1.647 4.994,-1.681 5.331,-1.878 5.668,-2.075 6.01,-2.268 6.285,-2.421 6.48,-2.647 6.635,-2.915 6.658,-2.956 6.651,-2.979 6.613,-3.001 6.516,-3.059 6.421,-3.122 6.32,-3.175 6.277,-3.197 6.223,-3.209 6.175,-3.204 6.102,-3.196 6.025,-3.184 5.961,-3.153 5.67,-3.021 5.381,-2.886 5.098,-2.741 4.719,-2.547 4.346,-2.337 3.968,-2.144 3.871,-2.093 3.761,-2.065 3.646,-2.114 3.561,-2.149 3.473,-2.183 3.384,-2.214 3.295,-2.243 3.279,-2.261 3.308,-2.347 3.348,-2.464 3.39,-2.582 3.439,-2.695 3.494,-2.818 3.416,-2.94 3.279,-2.933 3.252,-2.932 3.224,-2.932 3.196,-2.926 3.061,-2.9 2.928,-2.876 2.814,-2.781 2.679,-2.671 2.533,-2.571 2.385,-2.479 2.132,-2.324 1.861,-2.25 1.562,-2.313 1.503,-2.325 1.434,-2.314 1.374,-2.295 1.371,-2.294 1.368,-2.294 1.365,-2.294 1.342,-2.284 1.316,-2.275 1.295,-2.267 1.27,-2.259 1.246,-2.249 1.223,-2.239 1.199,-2.229 1.176,-2.221 1.152,-2.211 1.127,-2.2 1.104,-2.191 1.08,-2.181 1.066,-2.175 1.051,-2.171 1.039,-2.164 1.035,-2.161 1.029,-2.159 1.024,-2.161 1.019,-2.165 1.018,-2.173 1.017,-2.179 1.016,-2.185 1.014,-2.19 1.012,-2.196 1.01,-2.204 1.008,-2.213 1.006,-2.22 0.998,-2.249 0.992,-2.278 0.982,-2.306 0.973,-2.337 0.963,-2.368 0.948,-2.397 0.879,-2.534 0.929,-2.632 1.025,-2.729 1.124,-2.831 1.211,-2.943 1.35,-2.999 1.403,-3.021 1.451,-3.056 1.496,-3.092 1.611,-3.184 1.619,-3.267 1.525,-3.382 1.51,-3.401 1.49,-3.418 1.472,-3.435 1.434,-3.473 1.393,-3.489 1.336,-3.465 c -0.049,0.023 -0.101,0.039 -0.151,0.05 -0.236,0.053 -0.472,0.105 -0.706,0.154 -0.292,0.063 -0.583,0.123 -0.875,0.184 -0.159,0.032 -0.336,-0.084 -0.35,-0.236 -0.029,-0.303 0.101,-0.569 0.457,-0.596 0.039,-0.002 0.056,-0.018 0.077,-0.054 0.038,-0.065 0.052,-0.155 0.141,-0.181 0.07,-0.019 0.141,-0.044 0.214,-0.053 C 0.59,-4.256 1.037,-4.312 1.484,-4.368 1.539,-4.374 1.593,-4.382 1.646,-4.389 1.668,-4.392 1.689,-4.394 1.712,-4.396 1.73,-4.399 1.766,-4.392 1.777,-4.407 1.786,-4.421 1.775,-4.44 1.77,-4.451 1.763,-4.47 1.755,-4.485 1.748,-4.504 1.736,-4.532 1.725,-4.563 1.714,-4.593 1.695,-4.647 1.674,-4.698 1.654,-4.751 1.636,-4.796 1.621,-4.851 1.583,-4.884 1.482,-4.968 1.377,-5.048 1.268,-5.12 1.076,-5.243 0.881,-5.362 0.684,-5.474 0.559,-5.544 0.467,-5.636 0.407,-5.765 0.252,-6.097 0.246,-6.425 0.431,-6.747 0.504,-6.874 0.59,-6.993 0.668,-7.116 0.828,-7.368 0.985,-7.625 1.146,-7.878 1.211,-7.981 1.273,-8.088 1.352,-8.182 1.449,-8.298 1.56,-8.405 1.666,-8.515 1.8,-8.652 1.931,-8.797 2.075,-8.927 c 0.179,-0.158 0.398,-0.24 0.63,-0.287 0.148,-0.028 0.284,-0.017 0.41,0.074 0.166,0.125 0.334,0.247 0.506,0.364 0.126,0.085 0.223,0.191 0.309,0.314 0.06,0.087 0.136,0.154 0.23,0.211 0.203,0.121 0.399,0.261 0.597,0.393 0.055,0.037 0.114,0.07 0.173,0.105 0.04,0.025 0.054,0.061 0.025,0.101 C 4.892,-7.568 4.853,-7.524 4.747,-7.565 4.559,-7.64 4.375,-7.726 4.189,-7.802 4.068,-7.853 3.948,-7.907 3.822,-7.942 3.639,-7.993 3.451,-8.027 3.266,-8.074 3.068,-8.124 2.873,-8.183 2.677,-8.237 2.494,-8.288 2.356,-8.221 2.232,-8.089 c -0.236,0.248 -0.451,0.513 -0.647,0.793 -0.17,0.241 -0.321,0.492 -0.407,0.779 -0.065,0.219 -0.067,0.428 0.079,0.614 0.081,0.103 0.179,0.197 0.28,0.281 0.154,0.125 0.314,0.242 0.479,0.353 0.248,0.168 0.526,0.272 0.812,0.358 0.248,0.075 0.492,0.078 0.733,-0.02 0.138,-0.056 0.274,-0.123 0.409,-0.19 0.307,-0.151 0.61,-0.153 0.901,0.036 0.15,0.1 0.223,0.224 0.137,0.424 -0.043,0.103 -0.102,0.203 -0.174,0.289 -0.304,0.365 -0.693,0.605 -1.14,0.759 -0.075,0.026 -0.142,0.057 -0.195,0.124 -0.047,0.058 -0.065,0.117 -0.036,0.166 0.031,0.053 0.121,0.088 0.182,0.07 0.173,-0.047 0.347,-0.092 0.521,-0.146 0.352,-0.108 0.703,-0.221 1.055,-0.33 0.067,-0.02 0.138,-0.034 0.208,-0.042 0.059,-0.007 0.098,0.028 0.108,0.086 0.006,0.038 0,0.079 0.002,0.118 0,0.017 -0.002,0.039 0.008,0.05 0.041,0.055 0.137,0.079 0.205,0.059 0.162,-0.051 0.324,-0.102 0.486,-0.15 0.271,-0.083 0.543,-0.158 0.81,-0.251 0.378,-0.134 0.749,-0.29 1.128,-0.421 0.201,-0.071 0.406,0.014 0.373,0.271 -0.018,0.129 -0.07,0.253 -0.108,0.378"
         style="fill:#005bac;fill-opacity:1;fill-rule:evenodd;stroke:none"
         transform="matrix(1.3333333,0,0,-1.3333333,156.24213,89.964133)"
         clip-path="url(#clipPath63)" />
      <path
         id="path64"
         d="m 0,0 c 0.046,-0.098 0.028,-0.127 -0.067,-0.184 -0.057,-0.033 -0.112,-0.07 -0.17,-0.105 -0.03,-0.016 -0.061,-0.032 -0.094,-0.041 -0.094,-0.028 -0.195,0.023 -0.188,0.117 0.014,0.172 -0.105,0.265 -0.187,0.381 -0.01,0.016 -0.023,0.029 -0.03,0.045 -0.031,0.066 -0.012,0.118 0.059,0.119 0.073,0.001 0.143,-0.025 0.212,-0.039 0.019,-0.004 0.044,-0.014 0.058,-0.007 0.088,0.049 0.16,0.01 0.265,-0.055 C -0.104,0.174 -0.042,0.092 0,0 M 4.179,5.81 C 4.005,5.915 3.839,6.035 3.666,6.142 3.589,6.191 3.506,6.233 3.418,6.264 3.219,6.332 2.956,6.245 2.834,6.078 2.674,5.857 2.497,5.646 2.331,5.429 2.301,5.391 2.269,5.379 2.231,5.402 2.164,5.444 2.093,5.484 2.036,5.54 1.94,5.637 1.842,5.726 1.71,5.768 1.63,5.792 1.549,5.811 1.468,5.83 1.261,5.877 1.138,5.989 1.104,6.202 1.095,6.268 1.062,6.333 1.023,6.389 0.979,6.451 0.915,6.501 0.864,6.561 0.819,6.614 0.757,6.668 0.742,6.73 0.665,7.066 0.604,7.406 0.532,7.743 0.482,7.967 0.359,8.139 0.147,8.24 -0.049,8.332 -0.259,8.396 -0.472,8.358 -0.653,8.327 -0.827,8.248 -1.002,8.178 -1.078,8.149 -1.137,8.152 -1.202,8.196 -1.343,8.292 -1.487,8.386 -1.63,8.479 -1.646,8.49 -1.668,8.496 -1.688,8.498 -1.98,8.512 -2.276,8.53 -2.569,8.538 -2.877,8.546 -3.03,8.428 -3.108,8.128 -3.132,8.042 -3.143,7.95 -3.155,7.861 -3.196,7.585 -3.186,7.314 -3.058,7.061 -3.002,6.952 -2.95,6.839 -2.841,6.77 -2.679,6.668 -2.507,6.578 -2.354,6.463 -1.831,6.08 -1.315,5.687 -0.8,5.295 -0.774,5.277 -0.751,5.248 -0.744,5.219 -0.712,5.089 -0.677,4.959 -0.659,4.826 -0.608,4.457 -0.543,4.092 -0.427,3.736 -0.385,3.607 -0.37,3.475 -0.389,3.338 -0.421,3.109 -0.518,2.916 -0.683,2.754 -0.792,2.648 -0.852,2.649 -0.94,2.768 c -0.104,0.136 -0.173,0.291 -0.211,0.458 -0.048,0.206 -0.143,0.385 -0.311,0.518 -0.127,0.1 -0.262,0.19 -0.389,0.291 -0.222,0.177 -0.48,0.221 -0.753,0.19 C -2.772,4.205 -2.939,4.18 -3.106,4.154 -3.308,4.123 -3.511,4.104 -3.704,4.027 -3.896,3.95 -4.061,3.832 -4.158,3.648 -4.308,3.367 -4.336,3.055 -4.352,2.746 -4.36,2.539 -4.228,2.369 -4.052,2.328 -3.854,2.283 -3.68,2.189 -3.528,2.059 -3.425,1.974 -3.396,1.812 -3.487,1.705 -3.595,1.58 -3.698,1.453 -3.802,1.326 -3.815,1.309 -3.823,1.277 -3.817,1.256 -3.771,1.031 -3.724,0.807 -3.67,0.584 -3.64,0.451 -3.554,0.352 -3.444,0.27 c 0.134,-0.102 0.28,-0.182 0.437,-0.245 0.151,-0.06 0.297,-0.067 0.446,-0.007 0.179,0.068 0.316,0.189 0.428,0.341 0.029,0.039 0.058,0.047 0.104,0.041 0.14,-0.02 0.245,-0.077 0.276,-0.226 0.002,-0.011 0.01,-0.022 0.014,-0.031 0.145,-0.295 0.295,-0.586 0.433,-0.884 0.149,-0.323 0.323,-0.622 0.633,-0.816 0.055,-0.033 0.114,-0.081 0.176,-0.086 0.264,-0.019 0.529,-0.025 0.789,0.018 0.232,0.039 0.439,0.133 0.596,0.306 0.119,0.132 0.22,0.286 0.316,0.439 0.05,0.081 0.078,0.177 0.104,0.271 C 1.331,-0.516 1.306,-0.432 1.256,-0.34 1.197,-0.232 1.173,-0.105 1.134,0.014 0.962,0.572 0.788,1.131 0.618,1.692 0.47,2.184 0.307,2.672 0.218,3.18 0.155,3.543 0.126,3.906 0.199,4.271 0.216,4.348 0.239,4.369 0.319,4.361 0.439,4.352 0.547,4.316 0.645,4.231 0.793,4.098 0.956,3.975 1.116,3.854 1.298,3.717 1.488,3.592 1.667,3.451 1.809,3.344 1.969,3.305 2.14,3.296 2.366,3.283 2.587,3.313 2.806,3.375 2.986,3.426 3.102,3.353 3.165,3.23 3.21,3.147 3.233,3.054 3.269,2.966 3.325,2.819 3.384,2.674 3.448,2.516 3.538,2.589 3.616,2.654 3.692,2.721 3.909,2.908 4.1,3.119 4.206,3.393 4.235,3.467 4.279,3.547 4.274,3.621 4.253,3.925 4.319,4.215 4.403,4.502 4.444,4.641 4.489,4.777 4.526,4.915 4.575,5.101 4.516,5.273 4.447,5.441 4.39,5.586 4.321,5.723 4.179,5.81"
         style="fill:#005bac;fill-opacity:1;fill-rule:evenodd;stroke:none"
         transform="matrix(1.3333333,0,0,-1.3333333,71.248667,98.8796)"
         clip-path="url(#clipPath65)" />
      <path
         id="path66"
         d="m 0,0 c -0.061,-0.209 -0.203,-0.343 -0.373,-0.473 -0.199,-0.153 -0.559,-0.102 -0.733,0.078 -0.025,0.025 -0.035,0.064 -0.052,0.096 -0.016,0.03 -0.026,0.065 -0.047,0.089 -0.048,0.053 -0.041,0.128 0.021,0.187 0.04,0.037 0.122,0.028 0.163,-0.013 0.078,-0.076 0.154,-0.151 0.233,-0.225 0.044,-0.04 0.092,-0.027 0.142,-0.004 0.148,0.071 0.226,0.198 0.267,0.351 0.045,0.165 0.084,0.332 0.136,0.495 0.016,0.051 0.059,0.097 0.1,0.135 C -0.1,0.754 -0.049,0.783 0.002,0.812 0.068,0.85 0.148,0.841 0.188,0.786 0.205,0.765 0.217,0.729 0.209,0.706 0.142,0.47 0.068,0.236 0,0 M 2.674,-1.903 C 2.58,-1.733 2.464,-1.577 2.356,-1.415 2.348,-1.401 2.334,-1.391 2.324,-1.379 2.24,-1.281 2.146,-1.189 2.078,-1.081 2.011,-0.973 1.967,-0.85 1.919,-0.731 1.85,-0.56 1.783,-0.386 1.72,-0.212 1.665,-0.066 1.594,0.078 1.566,0.229 1.524,0.462 1.505,0.701 1.494,0.937 1.49,1.06 1.443,1.133 1.347,1.196 1.286,1.236 1.217,1.265 1.187,1.351 1.149,1.471 1.154,1.583 1.197,1.696 1.234,1.792 1.233,1.887 1.197,1.979 1.143,2.119 1.054,2.234 0.951,2.343 0.821,2.478 0.668,2.523 0.49,2.488 0.409,2.473 0.33,2.446 0.251,2.419 0.143,2.384 0.072,2.327 0.028,2.2 -0.086,1.865 -0.277,1.569 -0.51,1.301 -0.657,1.132 -0.806,0.964 -0.955,0.798 -1.035,0.709 -1.116,0.621 -1.203,0.539 -1.225,0.518 -1.286,0.505 -1.3,0.518 c -0.023,0.022 -0.034,0.07 -0.027,0.105 0.034,0.206 0.077,0.409 0.114,0.613 0.049,0.256 0.077,0.516 0.151,0.764 0.084,0.294 0.197,0.583 0.318,0.866 0.181,0.426 0.406,0.831 0.668,1.213 C 0.138,4.387 0.366,4.685 0.59,4.986 0.639,5.053 0.631,5.121 0.6,5.187 0.508,5.389 0.296,5.425 0.152,5.403 -0.019,5.377 -0.168,5.303 -0.28,5.175 -0.455,4.971 -0.617,4.753 -0.791,4.546 -0.85,4.475 -0.919,4.405 -0.996,4.354 -1.148,4.254 -1.348,4.245 -1.482,4.377 -1.52,4.416 -1.568,4.447 -1.617,4.469 -1.708,4.507 -1.802,4.544 -1.897,4.57 -2.041,4.609 -2.187,4.657 -2.335,4.669 -2.516,4.684 -2.687,4.611 -2.842,4.524 -3.002,4.436 -3.153,4.333 -3.301,4.225 -3.518,4.066 -3.585,3.841 -3.556,3.582 -3.545,3.499 -3.534,3.417 -3.529,3.335 -3.521,3.206 -3.492,3.083 -3.412,2.98 -3.309,2.845 -3.167,2.759 -3.004,2.708 -2.857,2.664 -2.727,2.597 -2.648,2.453 -2.604,2.367 -2.6,2.198 -2.652,2.134 -2.761,2.002 -2.866,1.868 -2.98,1.739 -3.293,1.391 -3.61,1.047 -3.925,0.699 -4.066,0.54 -4.217,0.383 -4.343,0.211 c -0.138,-0.19 -0.233,-0.405 -0.262,-0.644 -0.016,-0.14 -0.002,-0.279 0.088,-0.388 0.095,-0.114 0.23,-0.169 0.38,-0.175 0.362,-0.014 0.662,0.115 0.862,0.42 0.191,0.297 0.364,0.606 0.535,0.916 0.15,0.277 0.279,0.564 0.428,0.84 0.097,0.178 0.199,0.356 0.356,0.491 0.075,0.065 0.157,0.053 0.19,-0.039 0.034,-0.091 0.068,-0.189 0.074,-0.285 0.018,-0.323 0.026,-0.647 0.033,-0.971 0.008,-0.349 0.019,-0.697 0.116,-1.036 0.072,-0.257 0.219,-0.427 0.48,-0.504 0.229,-0.066 0.461,-0.085 0.694,-0.062 0.172,0.018 0.34,0.059 0.51,0.093 0.08,0.016 0.133,0.007 0.149,-0.047 0.02,-0.075 0.04,-0.152 -0.009,-0.228 -0.054,-0.085 -0.099,-0.179 -0.156,-0.263 -0.186,-0.267 -0.369,-0.536 -0.564,-0.797 -0.124,-0.167 -0.227,-0.194 -0.367,-0.124 -0.038,0.019 -0.072,0.05 -0.103,0.079 -0.099,0.096 -0.204,0.093 -0.277,-0.027 -0.039,-0.064 -0.075,-0.146 -0.072,-0.217 0.008,-0.209 0.036,-0.418 0.058,-0.628 0.013,-0.131 0.053,-0.236 0.184,-0.303 0.143,-0.073 0.283,-0.146 0.448,-0.092 0.082,0.028 0.162,0.065 0.238,0.107 0.141,0.075 0.26,0.172 0.346,0.313 0.154,0.256 0.23,0.539 0.31,0.822 0.065,0.225 0.119,0.454 0.194,0.675 0.011,0.034 0.027,0.069 0.044,0.101 0.017,0.033 0.038,0.063 0.061,0.092 0.023,0.029 0.047,0.056 0.074,0.083 0.027,0.025 0.055,0.05 0.084,0.073 0.032,0.025 0.067,0.048 0.1,0.071 0.01,0.006 0.012,0.009 0.019,-10e-4 0.005,-0.007 0.008,-0.014 0.013,-0.021 0.01,-0.014 0.021,-0.03 0.029,-0.046 C 1.117,-1.783 1.29,-2.055 1.461,-2.329 1.514,-2.411 1.489,-2.459 1.396,-2.475 1.324,-2.486 1.256,-2.501 1.185,-2.508 0.995,-2.523 0.806,-2.533 0.617,-2.547 0.598,-2.549 0.568,-2.559 0.562,-2.573 0.545,-2.61 0.594,-2.7 0.634,-2.721 1.15,-2.998 1.675,-3.254 2.222,-3.464 c 0.128,-0.048 0.26,-0.095 0.395,-0.031 0.044,0.021 0.071,0.078 0.115,0.092 0.15,0.05 0.192,0.17 0.214,0.305 0.028,0.162 10e-4,0.322 -0.027,0.482 -0.044,0.25 -0.124,0.49 -0.245,0.713 M 3.871,0.043 C 3.842,0.094 3.811,0.146 3.771,0.189 3.667,0.295 3.563,0.402 3.449,0.499 3.333,0.597 3.184,0.612 3.04,0.637 2.988,0.646 2.933,0.663 2.883,0.654 2.723,0.625 2.572,0.566 2.455,0.481 2.286,0.375 2.162,0.253 2.07,0.099 1.996,-0.027 1.99,-0.036 2.123,-0.102 2.254,-0.166 2.395,-0.208 2.527,-0.264 2.57,-0.282 2.609,-0.313 2.646,-0.343 c 0.069,-0.056 0.128,-0.133 0.206,-0.17 0.136,-0.065 0.283,-0.113 0.431,-0.154 0.264,-0.073 0.501,-0.006 0.59,0.269 0.049,0.147 0.088,0.296 -0.002,0.441"
         style="fill:#005bac;fill-opacity:1;fill-rule:evenodd;stroke:none"
         transform="matrix(1.3333333,0,0,-1.3333333,83.802133,79.3548)"
         clip-path="url(#clipPath67)" />
      <path
         id="path68"
         d="m 0,0 c 0,-0.045 -0.008,-0.089 -0.018,-0.133 -0.007,-0.04 -0.011,-0.079 -0.041,-0.11 -0.029,-0.03 -0.066,-0.049 -0.101,-0.069 -0.021,-0.012 -0.041,-0.023 -0.06,-0.036 -0.128,-0.09 -0.259,-0.176 -0.389,-0.262 -0.034,-0.021 -0.068,-0.044 -0.102,-0.066 -0.057,-0.036 -0.119,-0.048 -0.181,-0.003 -0.085,0.064 -0.167,0.133 -0.258,0.185 -0.075,0.042 -0.161,0.068 -0.245,0.094 -0.085,0.028 -0.177,0.04 -0.261,0.07 -0.033,0.013 -0.073,0.055 -0.081,0.089 -10e-4,0.003 0.001,0.007 0,0.01 0.004,0.024 0.036,0.06 0.061,0.076 0.22,0.145 0.471,0.217 0.719,0.288 0.186,0.052 0.376,0.096 0.564,0.135 0.086,0.018 0.175,0.019 0.262,0.018 C -0.055,0.285 0.002,0.212 0.001,0.135 0,0.09 0.001,0.045 0,0 M 1.506,1.284 C 1.378,1.292 1.24,1.228 1.124,1.184 0.992,1.134 0.862,1.079 0.733,1.021 0.535,0.935 0.333,0.859 0.132,0.776 -0.052,0.702 -0.217,0.61 -0.416,0.568 -0.523,0.546 -0.658,0.502 -0.767,0.54 c -0.101,0.036 -0.087,0.172 -0.02,0.234 0.051,0.049 0.107,0.097 0.17,0.13 0.156,0.083 0.265,0.199 0.33,0.366 0.058,0.158 0.134,0.306 0.139,0.483 C -0.145,1.917 -0.179,2.054 -0.295,2.17 -0.473,2.348 -0.685,2.403 -0.93,2.344 -1.125,2.297 -1.29,2.187 -1.459,2.086 -1.577,2.015 -1.684,1.919 -1.784,1.822 -1.881,1.729 -1.965,1.62 -2.05,1.516 -2.095,1.46 -2.136,1.401 -2.173,1.34 -2.238,1.236 -2.303,1.132 -2.361,1.025 -2.432,0.896 -2.498,0.759 -2.607,0.66 -2.764,0.519 -2.933,0.395 -3.092,0.257 -3.237,0.13 -3.382,0 -3.519,-0.135 c -0.104,-0.104 -0.196,-0.219 -0.294,-0.331 -0.142,-0.16 -0.279,-0.325 -0.422,-0.483 -0.123,-0.135 -0.247,-0.27 -0.38,-0.396 -0.177,-0.169 -0.366,-0.328 -0.547,-0.495 -0.16,-0.146 -0.315,-0.298 -0.473,-0.447 -0.217,-0.202 -0.463,-0.335 -0.771,-0.323 -0.137,0.006 -0.244,0.113 -0.235,0.218 0.008,0.091 0.046,0.184 0.087,0.268 0.058,0.118 0.126,0.231 0.196,0.342 0.047,0.074 0.1,0.143 0.16,0.206 0.061,0.065 0.132,0.122 0.2,0.179 0.117,0.098 0.244,0.175 0.39,0.225 0.155,0.053 0.31,0.109 0.46,0.176 0.154,0.069 0.269,0.183 0.312,0.356 0.024,0.092 0.061,0.182 0.075,0.276 0.021,0.127 0.038,0.258 0.038,0.385 0,0.133 -0.025,0.266 -0.037,0.399 C -4.773,0.604 -4.834,0.775 -4.906,0.942 -4.99,1.137 -5.105,1.313 -5.243,1.475 -5.379,1.634 -5.533,1.763 -5.749,1.791 -5.797,1.798 -5.846,1.789 -5.895,1.792 -6.104,1.805 -6.328,1.66 -6.379,1.459 -6.414,1.32 -6.411,1.174 -6.37,1.034 -6.348,0.952 -6.314,0.873 -6.293,0.79 c 0.036,-0.136 0.072,-0.271 0.099,-0.409 0.02,-0.11 0.031,-0.224 0.038,-0.337 0.005,-0.1 10e-4,-0.202 -0.005,-0.303 -0.009,-0.14 -0.016,-0.282 -0.04,-0.42 -0.031,-0.183 -0.083,-0.361 -0.176,-0.524 -0.066,-0.114 -0.115,-0.238 -0.188,-0.347 -0.072,-0.107 -0.158,-0.204 -0.247,-0.298 -0.092,-0.101 -0.192,-0.196 -0.295,-0.287 -0.222,-0.195 -0.484,-0.328 -0.735,-0.478 -0.189,-0.115 -0.343,-0.257 -0.407,-0.478 -0.013,-0.044 -0.032,-0.088 -0.055,-0.128 -0.13,-0.236 -0.21,-0.482 -0.134,-0.751 0.071,-0.25 0.256,-0.393 0.512,-0.41 0.059,-0.004 0.125,0.036 0.181,0.068 0.044,0.027 0.075,0.075 0.114,0.109 0.227,0.201 0.455,0.398 0.682,0.598 0.197,0.173 0.392,0.35 0.592,0.521 0.248,0.212 0.498,0.418 0.748,0.627 0.193,0.162 0.382,0.327 0.58,0.483 0.254,0.205 0.511,0.402 0.769,0.602 0.131,0.102 0.265,0.201 0.398,0.302 0.19,0.142 0.417,0.197 0.637,0.263 0.206,0.06 0.416,0.113 0.618,0.185 0.175,0.062 0.341,0.147 0.512,0.218 0.027,0.01 0.07,0.005 0.093,-0.011 0.018,-0.011 0.027,-0.058 0.018,-0.079 -0.037,-0.08 -0.073,-0.162 -0.123,-0.233 -0.147,-0.2 -0.323,-0.37 -0.557,-0.467 -0.157,-0.066 -0.315,-0.121 -0.461,0.032 -0.015,0.016 -0.082,0.009 -0.097,-0.009 -0.049,-0.065 -0.094,-0.136 -0.129,-0.211 -0.03,-0.064 -0.038,-0.138 -0.063,-0.206 -0.031,-0.084 -0.025,-0.166 0.041,-0.225 0.074,-0.066 0.17,-0.093 0.268,-0.067 0.099,0.026 0.186,0.073 0.282,0.111 0.087,0.035 0.18,0.04 0.272,0.021 0.11,-0.022 0.214,-0.03 0.324,-0.002 0.104,0.025 0.202,0.094 0.312,0.082 0.123,-0.015 0.231,-0.069 0.358,-0.067 0.065,0.002 0.133,0.018 0.198,0.023 0.065,0.004 0.13,0.005 0.195,-0.002 0.125,-0.014 0.236,-0.065 0.324,-0.157 0.049,-0.05 0.098,-0.11 0.133,-0.172 0.073,-0.13 0.141,-0.265 0.204,-0.403 0.093,-0.205 0.288,-0.255 0.489,-0.205 0.065,0.017 0.134,0.07 0.172,0.126 0.036,0.052 0.062,0.108 0.09,0.165 0.021,0.044 0.045,0.085 0.058,0.132 0.032,0.123 0.071,0.247 0.072,0.376 0,0.036 -0.003,0.072 -0.009,0.107 -0.012,0.078 -0.037,0.164 -0.088,0.219 -0.06,0.067 -0.15,0.111 -0.234,0.15 -0.08,0.036 -0.17,0.048 -0.254,0.077 -0.105,0.037 -0.292,0.122 -0.303,0.252 -0.01,0.115 0.102,0.214 0.184,0.277 0.049,0.039 0.101,0.073 0.156,0.105 0.238,0.142 0.491,0.262 0.735,0.393 0.074,0.039 0.146,0.078 0.22,0.117 0.182,0.097 0.34,0.208 0.49,0.351 C 1.336,0.252 1.391,0.317 1.426,0.394 1.451,0.449 1.465,0.508 1.477,0.568 1.482,0.597 1.488,0.627 1.494,0.656 1.533,0.829 1.617,0.983 1.625,1.164 1.629,1.23 1.563,1.281 1.506,1.284 M -2.002,-3.1 c -0.033,-0.123 -0.079,-0.242 -0.115,-0.363 -0.022,-0.07 -0.045,-0.139 -0.069,-0.206 -0.074,-0.228 -0.168,-0.437 -0.175,-0.681 -0.005,-0.13 -0.026,-0.257 -0.035,-0.386 -0.01,-0.138 -0.016,-0.274 -0.032,-0.41 -0.01,-0.097 -0.041,-0.189 -0.055,-0.284 -0.016,-0.095 -0.011,-0.192 -0.019,-0.288 -0.008,-0.088 0.029,-0.202 -0.027,-0.278 -0.012,-0.015 -0.027,-0.025 -0.043,-0.031 -0.042,-0.015 -0.095,-10e-4 -0.131,0.02 -0.042,0.023 -0.077,0.059 -0.108,0.095 -0.087,0.101 -0.157,0.212 -0.197,0.341 -0.011,0.035 -0.019,0.069 -0.026,0.105 -0.017,0.094 -0.025,0.193 -0.007,0.288 0.031,0.157 0.081,0.294 0.057,0.457 -0.022,0.144 -0.065,0.291 -0.032,0.438 0.03,0.128 0.117,0.288 0.034,0.413 -0.051,0.075 -0.145,0.15 -0.241,0.12 -0.05,-0.016 -0.111,-0.062 -0.144,-0.103 -0.141,-0.181 -0.258,-0.372 -0.34,-0.59 -0.045,-0.121 -0.147,-0.221 -0.228,-0.327 -0.045,-0.06 -0.094,-0.121 -0.151,-0.168 -0.067,-0.055 -0.14,-0.11 -0.219,-0.143 -0.088,-0.035 -0.168,0.069 -0.147,0.182 0.011,0.057 0.026,0.114 0.043,0.17 0.05,0.173 0.1,0.347 0.15,0.521 0.024,0.082 0.046,0.161 0.07,0.241 0.066,0.234 0.15,0.464 0.142,0.713 -0.003,0.081 0.027,0.154 0.079,0.218 0.013,0.016 0.021,0.042 0.02,0.063 -0.003,0.065 0.031,0.084 0.087,0.076 0.027,-0.004 0.053,-0.015 0.08,-0.024 0.058,-0.021 0.117,-0.042 0.176,-0.066 0.097,-0.041 0.187,-0.02 0.281,0.02 0.164,0.068 0.33,0.134 0.496,0.199 0.15,0.059 0.306,0.059 0.455,0.011 0.1,-0.032 0.199,-0.077 0.29,-0.128 0.091,-0.053 0.11,-0.114 0.081,-0.215 m 0.708,0.746 c -0.183,0.115 -0.383,0.176 -0.589,0.229 -0.107,0.027 -0.216,0.03 -0.322,-0.002 -0.162,-0.051 -0.324,-0.113 -0.484,-0.17 -0.082,-0.028 -0.16,-0.057 -0.21,-0.137 -0.019,-0.029 -0.063,-0.047 -0.099,-0.062 -0.105,-0.041 -0.213,-0.076 -0.318,-0.12 -0.122,-0.051 -0.241,-0.109 -0.363,-0.159 -0.037,-0.017 -0.091,-0.049 -0.116,0.004 -0.009,0.017 0.035,0.067 0.063,0.095 0.088,0.092 0.167,0.19 0.199,0.318 0.017,0.07 0.013,0.137 -0.029,0.199 -0.045,0.067 -0.116,0.103 -0.19,0.092 -0.04,-0.007 -0.08,-0.056 -0.104,-0.095 -0.035,-0.049 -0.04,-0.119 -0.08,-0.161 -0.111,-0.119 -0.232,-0.229 -0.349,-0.342 -0.092,-0.087 -0.196,-0.164 -0.276,-0.26 C -4.629,-3.01 -4.664,-3.12 -4.723,-3.213 -4.861,-3.429 -4.91,-3.68 -5.01,-3.912 c -0.078,-0.182 -0.143,-0.369 -0.272,-0.525 -0.054,-0.066 -0.105,-0.139 -0.136,-0.217 -0.091,-0.221 -0.186,-0.445 -0.15,-0.691 0.014,-0.098 0.037,-0.202 0.084,-0.288 0.088,-0.159 0.243,-0.25 0.404,-0.323 0.08,-0.036 0.101,-0.057 0.066,-0.136 -0.032,-0.068 -0.077,-0.132 -0.128,-0.186 -0.101,-0.107 -0.238,-0.162 -0.374,-0.204 -0.162,-0.051 -0.27,-0.139 -0.3,-0.31 -0.009,-0.041 -0.017,-0.082 -0.027,-0.123 -0.048,-0.201 0.14,-0.38 0.312,-0.387 0.18,-0.006 0.353,0.024 0.523,0.084 0.279,0.097 0.531,0.241 0.772,0.409 0.218,0.154 0.459,0.254 0.722,0.281 0.061,0.006 0.136,-0.03 0.188,-0.069 0.066,-0.049 0.064,-0.141 0.07,-0.217 0.007,-0.13 0,-0.262 0,-0.393 -0.002,-0.186 0.061,-0.354 0.149,-0.513 0.119,-0.211 0.179,-0.439 0.227,-0.672 0.044,-0.203 0.08,-0.407 0.138,-0.606 0.036,-0.124 0.101,-0.25 0.262,-0.251 0.099,0 0.204,0.014 0.299,0.043 0.211,0.065 0.337,0.238 0.458,0.406 0.122,0.175 0.217,0.367 0.243,0.586 0.003,0.029 0.01,0.059 0.007,0.089 -0.017,0.209 -0.107,0.385 -0.251,0.535 -0.129,0.137 -0.228,0.292 -0.206,0.488 0.024,0.207 0.03,0.421 0.155,0.605 0.06,0.086 0.118,0.181 0.145,0.281 0.064,0.236 0.107,0.478 0.165,0.716 0.045,0.184 0.097,0.368 0.156,0.548 0.069,0.208 0.149,0.413 0.225,0.62 0.066,0.18 0.137,0.357 0.196,0.54 0.06,0.184 0.115,0.371 0.161,0.559 0.016,0.063 0.016,0.139 -0.003,0.199 -0.099,0.299 -0.302,0.515 -0.564,0.68"
         style="fill:#005bac;fill-opacity:1;fill-rule:nonzero;stroke:none"
         transform="matrix(1.3333333,0,0,-1.3333333,130.93493,65.194667)"
         clip-path="url(#clipPath69)" />
    </g>
  </g>
</svg>
