<?xml version="1.0" encoding="UTF-8" standalone="no"?>
<svg
   xmlns:dc="http://purl.org/dc/elements/1.1/"
   xmlns:cc="http://creativecommons.org/ns#"
   xmlns:rdf="http://www.w3.org/1999/02/22-rdf-syntax-ns#"
   xmlns:svg="http://www.w3.org/2000/svg"
   xmlns="http://www.w3.org/2000/svg"
   viewBox="0 0 266.66666 88"
   height="88"
   width="266.66666"
   xml:space="preserve"
   id="svg2"
   version="1.1"><metadata
     id="metadata8"><rdf:RDF><cc:Work
         rdf:about=""><dc:format>image/svg+xml</dc:format><dc:type
           rdf:resource="http://purl.org/dc/dcmitype/StillImage" /></cc:Work></rdf:RDF></metadata><defs
     id="defs6"><clipPath
       id="clipPath18"
       clipPathUnits="userSpaceOnUse"><path
         id="path16"
         d="M 0,66 H 200 V 0 H 0 Z" /></clipPath></defs><g
     transform="matrix(1.3333333,0,0,-1.3333333,0,88)"
     id="g10"><g
       id="g12"><g
         clip-path="url(#clipPath18)"
         id="g14"><g
           transform="translate(172.2489,49.399)"
           id="g20"><path
             id="path22"
             style="fill:#000000;fill-opacity:1;fill-rule:nonzero;stroke:none"
             d="m 0,0 c 0.499,0.216 2.667,0.717 3.783,2.649 0.891,1.412 1.545,3.909 1.853,4.279 0.275,0.363 3.093,3.74 4.136,3.324 C 9.622,9.348 8.227,8.047 7.922,7.659 5.822,4.818 5.911,4.024 5.822,3.79 5.558,0.754 6.718,-1.74 6.678,-2.435 6.173,-2.913 5.95,-2.95 5.79,-2.997 c -0.154,-0.048 -0.889,0 -0.889,0 L 4.794,-3.491 c 0,0 0.386,-0.042 0.69,0.155 0.152,-0.099 -0.267,-0.428 -0.077,-0.48 0.229,0.052 0.652,0.04 1.125,0.283 0.07,-0.058 0.61,-0.383 0.965,-0.478 0.343,-0.058 0.689,0.154 0.805,0.42 0.086,0.29 0.041,0.742 -0.156,1.156 -0.108,0.812 -1.973,2.305 -1.999,6.109 0,1.782 2.663,3.35 3.475,4.544 0.194,0.14 1.352,2.012 1.071,2.418 0.091,0.363 -1.538,-0.242 -1.538,-0.242 0,0 -1.779,-1.009 -2.66,-1.732 C 4.597,7.578 2.744,6.321 2.122,5.859 1.549,5.359 0.608,4.488 0.03,3.934 -0.656,3.264 -1.129,3.02 -1.515,2.804 -2.247,2.385 -2.871,2.31 -3.053,1.881 -3.445,1.206 -2.398,-0.241 0,0" /></g><g
           transform="translate(186.7438,51.8196)"
           id="g24"><path
             id="path26"
             style="fill:#000000;fill-opacity:1;fill-rule:nonzero;stroke:none"
             d="m 0,0 c 0.223,0.121 0.617,-0.095 0.812,0 1.123,0.543 1.007,0.844 1.234,0.926 0.162,0.078 0.229,-0.019 0.464,0 1.616,0.934 1.426,2.106 1.426,2.106 0,0 0,1.663 -2.398,2.189 C 0.223,5.316 -0.163,4.72 -0.163,4.72 c 0,0 0.859,-0.429 1.008,-1.204 C 0.845,3.34 0.649,3.09 0.387,2.726 -0.111,2.007 -0.93,0.817 -1.782,0 c -0.777,-0.773 -1.509,-1.216 -1.509,-1.216 1.164,0.365 1.702,0.98 1.999,0.98 0.239,0 0.467,-0.149 1.292,0.236" /></g><g
           transform="translate(175.9553,47.7203)"
           id="g28"><path
             id="path30"
             style="fill:#000000;fill-opacity:1;fill-rule:nonzero;stroke:none"
             d="m 0,0 c -0.076,0.255 -0.151,0.274 -0.35,0.591 -0.504,0.335 -2.048,1.086 -2.048,1.086 0,0 -1.432,-5.775 -2.049,-9.209 0,-0.607 -0.809,-2.957 -1.382,-7.501 -0.241,-2.354 0.07,-5.164 -0.086,-6.066 0.188,-0.832 1.005,-1.935 1.779,-1.935 0.155,0.094 0.894,-0.545 2.121,3.793 0.391,1.93 -0.383,2.667 -0.028,3.245 -0.24,0.248 -0.314,1.044 -0.279,1.255 -0.232,0.424 -0.076,1.201 -0.076,1.201 0,0 -0.19,0.149 -0.263,0.46 -0.129,0.287 0,1.791 0.037,2.239 0,0.445 0.117,1.41 0.117,1.41 0,0 0.259,1.399 0.536,2.298 0.271,0.91 0.73,0.87 0.897,1.125 0.114,0.248 0.45,1.121 0.61,4.308 C -0.273,-1.044 0,-0.656 0,0" /></g><g
           transform="translate(176.9238,36.903)"
           id="g32"><path
             id="path34"
             style="fill:#000000;fill-opacity:1;fill-rule:nonzero;stroke:none"
             d="m 0,0 c 0,0 0.466,0.061 0.582,0.155 0.19,0.139 0.38,0.699 0.38,0.699 0,0 0.122,0.046 0.154,0.12 0.081,0.06 0.121,0.262 0.121,0.297 0,0.072 -0.193,0.749 -0.121,1.104 0.236,0.65 0.812,2.218 0.888,2.473 0.23,0.736 0.04,1.406 0.04,2.088 0,0.617 0.076,1.067 0.076,1.067 0,0 -1.267,-1.749 -2.357,-2.865 C -0.462,4.554 -1.47,3.607 -1.549,3.533 -1.705,2.679 -1.705,1.772 -1.705,1.737 -1.705,1.64 -1.47,1.656 -1.47,1.656 -1.433,1.605 -1.433,0.294 -0.237,-0.079 -0.114,-0.135 0,0 0,0" /></g><g
           transform="translate(185.7326,48.7614)"
           id="g36"><path
             id="path38"
             style="fill:#000000;fill-opacity:1;fill-rule:nonzero;stroke:none"
             d="m 0,0 c -3.56,-2.043 -3.748,-3.015 -4.562,-3.178 -0.801,-0.195 -1.51,-0.965 -1.546,-1.065 -0.074,-0.12 -0.187,-0.45 -0.074,-0.644 0,-0.06 0.223,-0.114 0.344,-0.234 0.543,-0.578 1.47,-1.408 1.974,-1.36 0.274,0.016 0.385,0.167 0.385,0.167 0,0 0.424,0.039 0.658,0.133 0.195,0.094 0.85,0.774 1.049,0.943 0.074,0.04 0.153,-0.03 0.35,0.065 0.223,0.093 1.538,0.988 1.693,1.075 0.114,0.058 0.232,0.12 0.465,0.12 0.429,0.095 0.844,0.666 0.971,0.698 0.147,0.063 0.147,-0.032 0.344,0 0.195,0.063 2.317,1.724 2.317,1.724 0,0 1.048,0.746 1.352,1.213 C 6.027,0.141 6.729,1.144 6.412,2.134 6.184,2.229 6.027,2.672 4.913,2.371 4.528,2.306 2.35,1.607 0,0 m 1.782,-1.433 c -0.812,-0.88 -2.708,-2.45 -3.056,-2.607 -0.424,0.062 0.929,1.147 1.39,1.667 -0.076,0.014 -0.967,-0.52 -1.192,-0.642 -0.198,-0.11 0.343,0.872 0.614,1.115 0.265,0.202 0.847,0.585 1.198,0.963 0.275,0.369 2.12,1.408 2.435,1.573 0.274,0.185 1.164,0.375 1.311,0.155 0.116,-0.2 -1.582,-1.324 -2.7,-2.224" /></g><g
           transform="translate(184.1488,42.1359)"
           id="g40"><path
             id="path42"
             style="fill:#000000;fill-opacity:1;fill-rule:nonzero;stroke:none"
             d="m 0,0 c -0.269,-0.188 -0.656,-0.385 -0.805,-0.506 -0.433,-0.415 -1.626,-0.881 -1.626,-0.881 0,0 -0.234,-0.359 -0.431,-0.599 -0.19,-0.134 -0.19,-0.387 -0.19,-0.547 0.034,-0.134 0.888,-1.097 2.273,-0.786 0.046,0 1.786,0.285 2.978,1.851 0.123,0.058 0.313,1.236 0,2.025 -0.311,0.705 -0.962,0.415 -0.962,0.415 0,0 0.15,-0.135 0.03,-0.181 C 0.851,0.642 0.508,0.294 0,0" /></g><g
           transform="translate(199.0688,30.9637)"
           id="g44"><path
             id="path46"
             style="fill:#000000;fill-opacity:1;fill-rule:nonzero;stroke:none"
             d="m 0,0 c 0,0 -2.974,2.558 -3.136,2.587 -1.547,0.719 -3.514,2.022 -3.514,2.022 0,0 1.471,-2.319 1.967,-3.031 0.513,-0.662 1.9,-2.207 1.855,-2.439 0,-0.102 -0.498,0 -0.958,-0.023 -1.129,-0.079 -2.556,-0.194 -2.864,-0.209 -0.309,-0.018 -1.846,-0.176 -2.35,-0.218 -0.478,-0.058 -1.357,-0.058 -1.784,-0.041 -0.426,0.041 -1.352,-0.031 -1.895,0.635 -0.155,0.411 -0.47,2.942 -0.47,3.097 -0.066,0.158 -0.302,1.011 -0.385,1.143 -0.117,0.154 -0.493,0.462 -0.729,0.562 -0.035,0.135 0.193,0.306 0.193,0.306 0,0 0.536,0.381 0.619,0.464 0.264,0.306 0.466,0.332 0.547,0.404 0.026,0.041 0.07,0.268 0.181,0.331 0.077,0.1 0.165,0.046 0.399,0.235 0.109,0.206 0.45,0.538 0.538,0.577 0.155,0.102 0.62,0.99 0.798,1.139 0.165,0.172 0.598,0.68 0.663,0.733 0.239,0.404 0.205,0.914 0.116,1.049 -0.614,0.417 -0.8,0.417 -1.001,0.38 -0.149,-0.019 -0.501,-0.274 -0.501,-0.38 -0.075,-0.1 0.08,-0.043 0.08,-0.196 0.035,-0.145 -0.542,-0.839 -1.273,-1.377 -0.311,-0.209 -0.777,-0.822 -1.319,-1.234 -0.733,-0.598 -1.239,-0.963 -1.353,-0.989 -0.15,-0.037 -0.271,-0.02 -0.271,0.109 0,0.026 0.121,0.189 0.385,0.458 0.083,0.076 0.31,0.195 0.431,0.269 0.075,0.107 0.144,0.264 0.225,0.308 0.195,0.242 0.394,0.381 0.543,0.504 0.156,0.122 0.464,0.403 0.812,0.754 0.074,0.074 0.236,0.333 0.302,0.428 0.47,0.495 0.897,0.866 0.897,0.866 0,0 -2.635,-1.561 -3.676,-2.199 -0.307,-0.184 -0.348,-0.313 -0.499,-0.397 -0.072,-0.032 -0.307,-0.079 -0.307,-0.079 l -0.658,-0.542 c 0,0 -0.46,-0.537 -1.353,-1.086 -0.232,-0.176 -0.617,-0.485 -0.971,-0.805 -0.156,-0.167 -0.195,-0.329 -0.339,-0.438 -0.621,-0.33 -0.896,-0.582 -1.007,-0.775 -0.201,-0.297 0,-0.612 0,-0.612 0,0 0.19,-0.566 0.889,-0.935 0.383,-0.056 0.849,-0.019 0.849,-0.019 0,0 -0.548,-0.6 -1.002,-1.115 -0.045,-0.084 -0.084,-0.297 -0.161,-0.392 -0.079,-0.16 -0.189,-0.196 -0.276,-0.211 -0.109,-0.077 -0.109,-0.283 -0.145,-0.425 -0.124,-0.156 -0.154,-0.137 -0.24,-0.209 -0.115,-0.095 -0.577,-1.13 -0.967,-1.47 -0.109,-0.161 -0.146,-0.346 -0.227,-0.492 -0.149,-0.209 -0.23,-0.209 -0.311,-0.327 -0.54,-1.193 -0.025,-1.598 0,-1.64 0.265,-0.095 0.7,-0.172 0.738,-0.172 0.19,0.06 0.311,0.468 0.311,0.468 0,0 0.152,-0.08 0.266,0 0.19,0.288 0.43,0.873 0.662,1.344 0.35,0.819 0.575,1.415 0.621,1.533 0.849,1.055 0.998,1.521 1.229,1.696 0.272,0.132 3.83,3.518 3.83,3.518 0,0 0.109,0.1 0.162,-0.009 0.26,-0.457 -0.515,-2.234 -0.318,-4.544 0.043,-0.701 0.699,-1.835 1.125,-2.15 0.072,-0.079 -0.043,-0.271 0.116,-0.374 0.295,-0.206 0.499,-0.141 0.615,-0.206 0.495,-0.346 1.893,-0.367 2.633,-0.322 0.381,-0.024 0.454,-0.1 0.577,-0.1 0.884,-0.098 1.662,0.171 2.388,0.239 1.897,0.201 3.948,0.556 4.335,0.63 1.93,0.112 3.092,0.29 3.442,0.595 0.146,0.101 0.07,0.217 0.19,0.268 0.072,0.045 0.121,0 0.239,0.081 0,0 0.033,0.23 0.114,0.304 0.081,0.114 0.225,0.114 0.271,0.158 C 1.153,-1.623 0,0 0,0" /></g><g
           transform="translate(160.0758,48.0122)"
           id="g48"><path
             id="path50"
             style="fill:#000000;fill-opacity:1;fill-rule:nonzero;stroke:none"
             d="m 0,0 c -0.162,0.237 -0.939,0.51 -0.939,0.51 0,0 -2.847,0.068 -5.324,-0.83 0,0.084 2.048,3.313 2.048,3.313 l 2.002,2.839 0.357,0.445 c 0,0 0.3,0.621 0.65,1.254 0.313,0.527 0.659,1.086 0.619,1.147 -0.042,0.151 -1.08,0.209 -1.306,0.194 -0.32,-0.072 -2.21,-0.559 -2.21,-0.559 0,0 -2.012,-0.87 -2.471,-1.071 C -6.764,7.184 -6.852,7.121 -7,7.121 -7.154,7.07 -9.313,5.971 -9.283,5.869 c 0.033,-0.109 2.011,0.039 3.711,0.723 0.819,0.365 2.823,1.638 3.359,1.562 0.281,-0.065 0,-0.319 -0.07,-0.55 C -2.904,6.683 -4.103,5.316 -4.258,5.059 -4.409,4.792 -4.375,4.774 -4.481,4.632 -4.606,4.518 -4.802,4.266 -4.913,4.134 -4.994,4.039 -5.017,3.728 -5.449,3.164 -6.304,2.088 -7.624,0.195 -8.082,-0.32 c -0.586,-0.278 -2.396,1.241 -2.359,1.387 0,0.1 0.119,0.151 0.272,0.174 0.118,0.023 0.083,-0.142 0.083,-0.142 0,0 0.068,-0.032 0.182,-0.02 0.046,0 0.125,0.12 0.204,0.139 0.343,0.111 0.883,0.202 0.914,0.364 0.243,-0.039 -0.184,-0.515 -0.184,-0.636 0.04,-0.078 0.153,0.021 0.153,0.021 0,0 0.58,0.742 0.58,0.868 0.044,0.144 0.079,0.31 0.079,0.31 0,0 0.116,0.061 0.199,0.293 0.107,0.209 -0.083,1.034 -0.083,1.034 0,0 -0.269,0.358 -0.589,0.646 -0.225,0.199 -0.536,0.431 -0.798,0.553 -0.162,0.121 -0.543,0.043 -0.7,-0.015 -0.112,-0.068 -0.272,-0.195 -0.312,-0.323 -0.037,-0.156 0.163,-0.246 0.163,-0.246 0,0 0.227,0.031 0.306,-0.222 0.193,-0.595 -0.197,-0.872 -0.236,-1.021 -0.033,-0.137 -0.27,-0.865 -0.27,-0.865 0,0 0.037,-0.339 -0.123,-0.297 -0.12,-0.063 -0.34,0.596 -0.496,0.733 -0.15,0.136 -1.006,0.779 -1.006,0.779 l 1.825,1.81 0.849,1.196 0.302,0.351 c 0,0 0.231,0.406 0.31,0.543 0.117,0.134 0.274,0.268 0.313,0.364 0.033,0.099 -0.196,0.234 -0.547,0.343 -0.346,0.114 -0.503,0.107 -0.967,0.107 -0.46,0 -0.619,0.166 -0.583,0.246 0,0.06 0.671,0.846 0.901,1.213 0.271,0.211 0.498,0.565 0.621,0.665 0.183,0.341 0.536,0.74 0.536,0.74 l 2.544,2.526 c 0,0 1.518,1.97 1.666,2.376 0.23,0.387 0.928,1.252 1.157,1.737 0.04,0.153 0.04,0.389 -0.188,0.468 -0.233,0.077 -0.544,-0.255 -0.544,-0.255 0,0 -0.114,-0.194 -0.161,-0.35 -0.146,-0.538 -2.011,-2.22 -2.011,-2.22 0,0 -2.971,-3.071 -3.087,-3.208 -0.083,-0.179 -3.001,-3.583 -3.438,-4.011 -3.407,-0.82 -3.75,-1.212 -3.75,-1.212 L -16.824,6.2 c 0,0 0.126,-0.267 0.202,-0.345 0.111,-0.118 0.069,-0.249 0.111,-0.29 0.079,-0.049 0.197,0.1 0.234,0.041 0.082,-0.025 0.043,-0.188 0.082,-0.252 0.037,-0.06 0.693,-0.369 0.812,-0.467 V 4.612 c 0,0 0.069,-0.203 0.306,-0.151 0.155,0.037 0.081,0.123 0.081,0.123 l 0.38,-0.066 c 0,0 0.77,0.409 0.97,0.451 0.193,0.035 0.462,0.422 0.74,0.449 0.151,0.147 0.77,0.943 1.072,1.205 0.311,0.234 0.893,0.375 1.083,0.429 0.202,0.069 0.51,0.271 0.7,0.329 0.147,0.062 0.272,0.121 0.304,0 0.121,-0.17 -0.225,-0.622 -0.422,-0.907 -0.195,-0.274 -0.701,-0.678 -0.974,-1.12 -0.26,-0.327 -1.302,-1.972 -1.462,-1.909 -0.15,0.148 -1.66,0.978 -1.816,0.964 -0.195,-0.023 -0.195,-0.544 -0.195,-0.544 0,0 1.313,-1.103 1.313,-1.409 -0.15,-0.136 -0.927,-1.036 -1.043,-1.185 -0.151,-0.192 -1.002,-1.405 -1.002,-1.405 0,0 0.08,-0.291 0.157,-0.16 0.541,0.679 1.462,1.762 1.462,1.762 0,0 0.67,0.715 0.739,0.715 0.121,0 0.729,-0.699 0.887,-0.965 0.234,-0.329 0.078,-0.441 0.078,-0.441 l 0.462,-0.086 0.316,-0.067 c 0,0 0.069,-0.162 0.15,-0.097 0.118,0.051 0.376,0.097 0.376,0.097 0,0 0.399,-0.162 0.817,-0.944 0.157,-0.239 0.392,-0.501 0.507,-0.821 0.147,-0.306 -5.72,-2.354 -6.798,-2.71 -1.044,-0.32 -8.23,-4.339 -8.652,-4.632 -0.432,-0.275 -1.172,-0.637 -1.172,-0.637 h -0.194 c 0,0 -1.928,-0.778 -2.165,-1.081 -0.19,-0.339 0.197,-1.302 0.197,-1.302 0,0 0.662,-1.152 1.241,-1.347 0.346,-0.049 0.457,0.058 0.617,0.02 0.191,-0.02 2.288,0.975 2.738,1.23 0.345,0.114 0.236,0.03 0.236,0 0.046,-0.016 0.193,0.26 0.302,0.346 0.199,0.062 0.199,0 0.318,0.023 0.037,0 0.306,0.306 0.654,0.557 1.124,0.776 3.405,2.287 4.135,2.576 0.935,0.365 6.261,3.554 6.925,3.902 0.614,0.376 5.212,2.823 6.183,3.134 1.007,0.292 2.464,0.487 2.659,0.378 0.155,-0.072 -1.04,-0.858 -1.896,-1.211 -0.844,-0.369 -1.848,-0.7 -2.816,-1.076 -0.925,-0.425 -4.638,-2.346 -4.638,-2.346 0,0 -3.515,-1.811 -4.06,-3.592 -0.267,-0.87 0.269,-2.345 0.269,-2.345 0,0 0.854,-2.522 0.777,-2.877 -1.313,-0.359 -1.895,-0.68 -2.287,-0.823 -0.378,-0.132 -1.572,-0.822 -1.883,-0.835 -0.311,0 -0.891,-0.063 -1.473,-0.102 -0.423,-0.165 -0.355,-0.958 -0.355,-0.958 0,0 0.2,-1.237 1.438,-2.188 0.229,-0.058 0.39,-0.016 0.497,-0.058 0.041,0 0.041,-0.062 0.157,-0.115 0.118,-0.036 0.698,0.115 0.889,0.157 0.116,0.016 0.276,0.105 0.461,0.255 0.234,0.128 2.788,1.144 2.976,1.162 0.199,0.049 0.116,0 0.163,-0.042 0.036,-0.062 0.651,-2.154 0.651,-2.154 l 0.967,-2.348 c 0,0 0.428,-1.568 0.037,-2.132 -1.818,0.29 -2.351,0.871 -3.168,1.211 -0.888,0.334 -3.551,2.076 -3.551,2.076 0,0 0.195,-0.289 0.311,-0.508 0.037,-0.092 0.148,-0.009 0.227,-0.092 0.112,-0.128 0.237,-0.451 0.237,-0.451 0,0.08 0.224,-0.138 0.264,-0.146 0.12,-0.174 0.081,-0.159 0.081,-0.255 l -0.042,-0.09 c 0,0 -0.039,-0.019 0.042,-0.151 0,-0.069 0.696,-0.394 0.924,-0.457 0.15,-0.032 0.352,-0.107 0.421,-0.186 0.121,-0.08 0.319,-0.47 1.436,-1.057 0.04,-0.026 0.235,-0.453 0.467,-0.267 0.229,-0.148 0.113,-0.383 0.19,-0.501 0.114,-0.121 0.195,0.142 0.309,0 0.197,-0.19 0.505,-0.512 0.848,-0.858 0.397,-0.357 0.901,-0.919 1.042,-0.754 0.506,0.297 1.282,2.486 1.282,2.486 0,0 0.228,2.453 0.258,2.552 0,0.077 -0.649,2.594 -0.649,2.594 l -0.193,0.287 v 0.357 c 0,0 -0.462,1.264 -0.506,1.527 0.161,0.185 0.355,0.415 1.014,0.881 0.076,0.058 0.304,-0.018 0.387,0.03 0.119,0.06 0.304,0.295 0.427,0.336 0.19,0.11 0.311,0.216 0.541,0.3 0.109,0.021 1.741,0.18 2.503,0.046 0.345,0.039 0.392,0.369 0.392,0.369 v 0.408 c 0,0.135 0.347,1.259 0.347,1.259 l -0.347,0.653 -0.548,0.538 c 0,0 -0.302,-0.154 -0.457,-0.218 -0.149,-0.031 -0.621,0.086 -0.733,0.086 -0.088,0 -1.665,-0.365 -1.665,-0.365 0,0 -1.7,-0.814 -2.237,-0.8 -0.396,0.195 -0.16,0.731 -0.663,2.032 -0.039,0.209 -1.009,1.74 -1.083,2.157 -0.074,0.453 0.619,0.715 1.586,1.999 0.16,0.052 1.626,0.762 2.004,0.805 0.323,0.065 0.697,0.082 0.901,0.121 0.188,0.067 0.498,0.497 1.269,0.779 0.776,0.262 2.208,0.745 3.825,1.292 1.512,0.734 2.588,1.123 4.333,3.107 0.048,0.074 0.111,0.394 0.157,0.487 0,0.118 0.151,0.227 0.264,0.32 C 0.236,-0.269 0.148,-0.236 0,0" /></g><g
           transform="translate(141.9502,53.0411)"
           id="g52"><path
             id="path54"
             style="fill:#000000;fill-opacity:1;fill-rule:nonzero;stroke:none"
             d="M 0,0 C 0.035,-0.083 0.068,-0.359 0.107,-0.443 0.149,-0.568 0.529,-1.051 0.529,-1.162 0.575,-1.352 0.773,-1.881 0.924,-2.403 1.15,-3.048 1.15,-3.56 1.121,-3.783 0.886,-4.01 0.617,-4.294 0.617,-4.294 c 0,0 0.156,-0.044 0.111,-0.461 0.123,-0.079 0.196,0.041 0.274,0.055 0.148,0.036 0.197,-0.09 0.394,-0.014 0.105,0.031 0.342,0.785 0.451,1.042 0.122,0.26 0.392,0.624 0.392,0.786 -0.126,0.775 0.152,0.843 0.19,0.965 0,0.759 -0.46,1.685 -0.46,1.685 0,0 -0.668,1.02 -1.315,1.814 C 0.068,2.35 -2.011,3.936 -2.011,3.936 -2.092,3.936 -2.092,3.858 -2.175,3.77 -2.289,3.586 -2.248,3.553 -2.248,3.553 -2.248,3.553 -0.853,1.447 0,0" /></g><g
           transform="translate(139.9729,45.866)"
           id="g56"><path
             id="path58"
             style="fill:#000000;fill-opacity:1;fill-rule:nonzero;stroke:none"
             d="m 0,0 c 0.042,-0.039 0.418,-0.32 0.418,-0.32 0,0 0.234,-0.241 0.355,-0.353 0.08,-0.104 0.234,0.226 0.582,0.45 0.234,0.184 0.304,1.548 0.304,1.548 0,0 -0.116,-0.068 -0.225,0 -0.154,0.067 -0.2,0.686 -0.23,0.8 C 1.123,2.22 1.084,2.09 1.039,2.243 1.007,2.419 0.921,2.897 0.773,3.037 c -0.08,0.231 -0.919,1.739 -0.919,1.739 0,0 -0.125,-0.404 -0.167,-0.624 0,-0.208 0.202,-1.206 0.083,-1.832 C -0.146,1.642 -0.111,1.375 -0.313,0.654 -0.23,0.272 -0.033,0.019 0,0" /></g><g
           transform="translate(99.7068,49.5946)"
           id="g60"><path
             id="path62"
             style="fill:#000000;fill-opacity:1;fill-rule:nonzero;stroke:none"
             d="m 0,0 c 0.23,0.158 2.512,3.146 2.665,3.363 0.118,0.212 1.011,1.195 1.011,1.195 0,0 0.69,0.817 0.85,0.984 0.19,0.197 0.577,0.369 0.577,0.369 0,0 1.517,2.015 1.517,2.259 0,0.28 -0.317,0.565 -0.317,0.565 0,0 -0.425,0.887 -0.622,1.139 C 5.497,10.13 4.486,10.904 4.298,10.846 4.138,10.804 4.022,10.651 3.878,10.61 3.676,10.568 3.676,10.738 3.48,10.61 3.324,10.492 2.821,9.568 2.821,9.568 2.821,9.568 2.783,9.336 2.742,9.081 2.709,8.854 2.014,7.926 1.821,7.782 1.589,7.653 1.281,7.601 1.162,7.437 1.044,7.305 1.116,6.863 1.004,6.572 0.81,6.219 -0.111,5.099 -0.111,5.099 c 0,0 -1.323,-2.622 -1.432,-2.816 C -1.619,2.072 -2.081,0.193 -1.693,-0.25 -1.343,-0.716 -0.188,-0.169 0,0" /></g><g
           transform="translate(100.7137,44.5199)"
           id="g64"><path
             id="path66"
             style="fill:#000000;fill-opacity:1;fill-rule:nonzero;stroke:none"
             d="M 0,0 C 0.311,0.36 1.619,1.712 1.854,2.445 2.471,2.723 2.398,2.957 2.398,3.029 2.355,3.299 1.854,3.554 1.738,3.686 1.619,3.804 1.549,4.199 1.315,4.177 0.847,4.129 0.503,3.953 0.311,3.878 -0.116,3.495 -1.278,1.677 -1.392,1.617 -1.543,1.536 -1.582,1.586 -1.74,1.447 -1.902,1.306 -1.902,0.979 -2.167,0.888 c -0.494,-0.563 -2.78,-2.175 -2.966,-2.437 -0.235,-0.274 -0.54,-0.886 -0.511,-1.185 0.276,0.025 0.857,0.621 1.272,0.698 0.427,0.074 1.51,0.013 2.714,0.946 C -0.779,-0.503 -0.541,-0.485 0,0" /></g><g
           transform="translate(126.1046,45.9254)"
           id="g68"><path
             id="path70"
             style="fill:#000000;fill-opacity:1;fill-rule:nonzero;stroke:none"
             d="M 0,0 C 0,0 -0.033,0.039 -0.109,0.121 -0.19,0.181 -0.157,0.378 -0.19,0.508 -0.276,0.656 -1.461,1.041 -1.702,0.981 -1.846,0.909 -1.702,0.812 -2.043,0.596 -3.352,0.121 -2.35,0.248 -3.857,-0.176 -4.526,-0.382 -5.678,-0.909 -7.03,-1.623 c -1.62,-0.812 -3.397,-1.803 -3.397,-1.803 0,0 -0.396,-0.313 -0.549,-0.529 -0.151,-0.222 -0.851,-0.413 -1.157,-0.39 -0.08,-0.09 0.036,-0.278 -0.193,-0.297 -0.198,-0.018 -0.076,0.08 -0.239,0.049 -0.151,-0.067 -0.501,-0.389 -0.726,-0.389 -0.195,0.032 -0.114,0.438 -0.114,0.438 0,0 0.186,1.025 0.768,1.872 0.582,0.874 1.48,1.835 1.48,1.835 l 0.73,0.853 c 0,0 0.112,-0.037 0.263,0 0.079,0.056 -0.111,0.214 0,0.309 0.079,0.123 0.157,0.053 0.318,0.081 0.145,0 0.069,0.344 0.496,0.54 0.427,0.193 0.571,0.079 0.842,0.095 0.508,0.291 0.666,0.643 1.318,1.237 0.229,0.209 0.544,0.385 0.886,0.673 0.514,0.401 0.976,0.842 1.328,1.066 0.652,0.527 0.996,0.815 1.46,0.951 0.508,0.114 0.396,-0.037 0.7,0.017 0.304,0.055 0.466,0.543 0.496,0.615 0.038,0.081 -0.111,0.018 0,0.155 0.386,0.394 0.701,0.694 0.618,0.921 -0.031,0.083 -0.465,0.281 -0.465,0.281 0,0 -0.115,0.044 -0.153,0.136 -0.225,0.211 -1.313,0.191 -1.612,0.153 -0.32,-0.041 -0.703,-0.213 -2.294,-1.066 -1.616,-0.849 -3.781,-2.003 -4.049,-2.181 -0.279,-0.176 -0.97,-0.791 -1.089,-0.714 -0.078,0.067 0.311,0.445 0,0.853 0.207,0.197 0.119,0.302 0.119,0.302 0,0 0,0.085 -0.306,0.334 -0.084,0.058 0,0.113 -0.149,0.211 -0.169,0.079 -0.318,0.037 -0.513,0 -0.189,-0.017 -0.269,0.055 -0.537,0.079 -0.316,0.018 -0.541,0.324 -0.541,0.324 0,0 -0.158,0.23 -0.158,0.53 0,0.285 0.158,1.039 0.383,1.366 0.202,0.341 0.429,1.377 0.429,1.377 v 0.444 c 0,0.269 0.113,0.814 0.155,0.95 0.08,0.105 0.119,0.065 0.156,0.167 0.049,0.116 0,0.267 0,0.469 -0.037,0.149 0.113,0.186 0.158,0.299 0.071,0.165 -0.084,0.545 -0.356,0.93 -0.269,0.39 -0.925,0.715 -1.122,0.754 -0.19,0.061 -0.262,0.061 -0.496,-0.014 -0.462,-0.134 -0.891,-1.772 -0.891,-1.772 l -0.228,-0.585 c 0,0 -0.967,-3.518 -1.043,-3.627 -0.121,-0.111 0,0.025 -0.239,-0.256 -0.151,-0.271 -0.274,-1.356 -0.346,-1.533 -0.083,-0.153 -0.146,-0.078 -0.192,-0.173 -0.033,-0.112 0.109,-0.485 0.109,-0.576 0,-0.07 -0.142,-0.121 -0.26,-0.186 -0.16,-0.222 -0.16,-2.087 -0.392,-2.138 -0.153,-0.069 0.12,-0.193 0,-0.264 -0.032,-0.059 0,-0.021 -0.186,-0.144 -0.115,-0.074 0.072,-0.037 -0.115,-0.207 -0.196,-0.19 -1.784,-0.985 -2.091,-1.183 -0.266,-0.167 -0.653,-0.299 -1.009,-0.554 -0.35,-0.248 -1.426,-0.956 -1.667,-0.991 -0.225,-0.034 -0.184,0 -0.381,-0.076 -0.146,-0.063 -0.109,-0.158 -0.269,-0.285 -0.155,-0.172 -0.805,-0.272 -1.315,-0.935 -0.155,-0.156 -0.232,-0.344 -0.262,-0.425 0,-0.074 0.03,-0.327 -0.049,-0.566 -0.072,-0.239 -0.269,-1.749 -0.313,-2.046 -0.07,-0.287 -0.485,-2.242 -0.729,-2.182 -0.345,0.833 -0.426,1.282 -0.697,1.424 0,0.04 0,0.033 -0.026,0.258 -0.128,0.213 -0.828,1.567 -1.174,1.493 -0.345,-0.099 -0.345,-0.443 -0.533,-0.603 -0.197,-0.172 -0.541,-3.576 -0.541,-3.576 0,0 -0.227,-3.556 -0.267,-3.807 0.109,-1.215 1.193,-1.677 1.272,-1.779 0.306,-0.088 0.415,0.162 0.572,0.162 0.195,0 0.163,-0.102 0.272,-0.102 0.12,-0.014 0.352,0.638 0.587,0.652 0.378,0.065 0.306,0 0.378,0.181 0,0.192 0.274,0.485 0.352,0.506 0.226,1.626 0.272,3.189 0.464,3.862 0.235,0.702 0.573,1.452 0.573,1.452 0,0 1.009,3.897 1.244,4.019 0.273,0.131 1.083,-0.032 1.695,0.07 0.195,0.016 1.902,0.909 2.014,1.069 0.153,0.253 0.273,0.226 0.343,0.307 0.044,0.046 0.127,0.336 0.19,0.41 0.051,0.074 0.362,0.156 0.436,0.225 0.072,0.144 0.072,0.397 0.144,0.471 0.126,0.042 0.547,0.209 0.708,0.209 0.104,-0.077 -0.314,-1.928 -0.314,-2.392 -0.042,-0.466 -0.227,-1.765 0,-2.206 -0.658,-0.658 -1.078,-0.881 -1.164,-1.023 -0.149,-0.18 -1.733,-2.674 -1.893,-2.783 -0.158,-0.134 -1,-2.011 0.281,-2.317 1.269,-0.336 2.194,0.364 2.194,0.364 l 0.464,0.383 c 0,0 0.118,0.485 0.197,0.603 0.04,0.095 0.04,0.315 0.197,0.225 0.142,-0.075 0.142,-2.027 1.225,-3.528 0.392,0.981 0.779,1.442 0.779,1.442 0,0 -0.542,1.787 -0.623,2.427 -0.033,0.615 -0.453,0.941 -0.453,0.941 l 0.263,0.981 c 0,0 -0.121,0.29 -0.038,0.45 0.038,0.152 0.116,0.042 0.195,0.17 0.033,0.134 0,0.193 0.114,0.524 0.037,0.332 0.037,0.337 0.236,0.383 0.161,0.589 0.183,0.52 0.348,0.735 0.116,0.234 -0.042,0.234 0,0.464 0.116,0.241 0.504,0.45 0.548,0.705 0.039,0.265 -0.044,0.165 0,0.225 0,0.04 0.069,0.074 0.069,0.074 0,0 0.736,1.355 0.967,1.413 0,0.283 0.156,0.543 0.386,0.928 0.38,0.374 0.54,0.793 0.698,1.116 0.109,0.329 0.535,0.71 0.654,0.837 0.15,0.121 0.348,0.192 0.461,0.23 0.316,0.412 0.736,0.795 1.237,0.909 0.549,0.128 0.854,-0.04 0.854,-0.04 0,0 -1.546,-1.542 -1.775,-2.145 -0.079,-0.114 -0.2,-0.158 -0.2,-0.158 0,0 -0.739,-1.099 -0.849,-1.231 -0.12,-0.163 -1.043,-1.893 -1.196,-2.622 -0.27,-1.226 0.656,-1.523 0.656,-1.523 0,0 0.232,-0.615 0.812,-0.768 1.039,0.317 2.048,0.914 2.048,0.914 0,0 0.351,0.479 0.462,0.479 0.113,0 0.463,0.159 0.814,0.527 0.271,0.346 0.842,0.884 0.967,0.835 -0.396,-1.123 -0.418,-2.169 -0.733,-6.429 0.037,-2.608 0.193,-4.73 0.315,-6.159 0.107,-1.245 0.225,-1.923 0.022,-1.965 -0.337,-0.079 -1.037,0.52 -1.306,0.612 -0.27,0.056 -0.19,-0.168 -0.738,0.094 -1.39,0.897 -3.277,1.667 -3.277,1.667 0,0 1.236,-1.041 1.264,-1.234 0.043,-0.186 -0.028,-0.104 0.086,-0.25 0.113,-0.169 1.505,-1.1 1.505,-1.1 0,0 -0.04,0.07 0.118,0 0.151,-0.095 0.235,-0.413 0.235,-0.413 0,0 1.191,-0.948 1.305,-1.101 0.082,-0.116 0.082,-0.154 0.116,-0.249 0.047,-0.072 0.434,-0.29 0.743,-0.487 0.19,-0.139 0.268,-0.294 0.345,-0.294 0.149,-0.017 0.225,0.336 0.768,0.027 0.116,0.075 0.155,0.344 0.155,0.344 l 0.499,0.12 c 0,0 0.049,0.228 0.13,0.385 0.257,0.191 0.455,0.286 0.605,0.717 0.316,0.641 0.074,3.24 0.074,3.24 l 0.047,2.42 -0.199,2.927 0.326,2.615 c 0,0 0,3.446 -0.127,3.599 -0.158,0.137 -0.158,0 -0.271,0.119 -0.114,0.076 0,0.055 -0.27,0.292 -0.231,0.248 -1.43,0.787 -1.43,0.787 l 2.008,0.994 0.353,0.277 0.739,0.099 1.191,0.656 0.533,0.221 0.276,0.049 c 0,0 0.656,0.45 0.849,0.466 0.163,0.018 0.854,0 1.12,0.139 0.276,0.204 0.075,0.392 0.123,0.635 C -0.772,-0.554 0,0 0,0 m -18.856,-8.599 c 0,0.103 0.184,0.756 0.657,0.771 0.422,0.016 -0.701,-0.866 -0.657,-0.771 m 5.282,13.739 c 0.404,-0.366 -0.492,-1.294 -0.568,-1.141 -0.154,0.156 0.153,1.083 0.568,1.141 m 1.677,-2.252 c -0.046,-0.118 -0.271,-0.144 -1.273,-1.879 -0.698,-1.529 -1.473,-2.677 -1.629,-2.962 -0.157,-0.33 -1.626,-3.328 -1.744,-3.328 -0.151,0 -0.037,0.039 -0.118,0.224 -0.033,0.228 0.162,1.218 0.236,1.422 0,0.181 -0.392,1.297 0.121,2.012 0.143,0.247 -0.121,0.607 0.037,0.651 0.229,0.046 0.346,0.104 0.387,0.295 0,0.169 0.114,1.106 0.114,1.106 l 0.967,0.638 c 0,0 0.033,0.77 0.306,0.844 0.309,0.098 0.045,0.098 0.309,0.019 0.236,-0.077 2.087,1.162 2.287,1.104 0.112,-0.083 0.07,-0.083 0,-0.146" /></g><g
           transform="translate(86.9641,37.4515)"
           id="g72"><path
             id="path74"
             style="fill:#000000;fill-opacity:1;fill-rule:nonzero;stroke:none"
             d="M 0,0 C 0,0 0,0.035 0.081,0.13 -0.076,0.462 -0.185,0.61 -0.387,0.71 -0.812,1 -1.508,0.861 -1.746,0.75 -2.132,0.65 -2.821,0.244 -2.821,0.244 c 0,0 -1.166,-0.476 -1.315,-0.52 -0.199,-0.016 -0.927,-0.209 -1.159,-0.276 -0.279,-0.072 -0.427,-0.188 -0.921,-0.316 -0.511,-0.185 -1.399,-0.305 -1.399,-0.305 0,0 -0.199,-0.145 -0.267,-0.228 -0.278,-0.397 -1.779,-0.647 -2.011,-0.71 -0.162,0.1 0.069,0.578 0.119,0.778 0,0.16 0,0.848 -0.05,0.976 -0.069,0.125 -0.15,0.378 -0.426,0.661 -0.225,0.306 -1,0.642 -1,0.642 l -0.271,0.153 -0.536,0.103 0.109,0.443 0.121,0.862 0.195,-0.037 c 0,0 0.192,0.676 0.266,0.743 0.116,0.106 0.779,0.376 0.779,0.376 0,0 0.149,0.225 0.263,0.264 0.122,0.07 0.55,0.085 0.55,0.085 0,0 0.264,0.112 0.349,0.231 0.145,0.118 0.189,0.639 0.189,0.639 0,0 0.236,0.246 0.155,0.309 -0.081,0.032 -0.344,0.325 -0.344,0.325 l 0.11,0.158 c 0,0 0.116,0.558 -0.195,0.677 -0.346,0.134 -0.613,0.058 -0.814,0.193 -0.151,0.136 -0.228,0.542 -0.228,0.542 l -0.389,0.517 0.691,0.532 0.195,0.322 0.63,0.636 0.189,0.352 0.264,0.402 0.392,0.192 0.578,0.459 c 0,0 -0.158,0 -0.263,0.051 -0.085,0.023 0,0.283 0,0.283 0,0 -0.171,0.17 -0.122,0.228 0,0.05 0.122,0.311 0.122,0.311 0,0 -0.085,0.21 0,0.301 0.019,0.1 0.691,0.227 0.691,0.227 0,0 -1.159,0.538 -1.426,0.555 -0.162,-0.017 -0.081,-0.091 -0.199,-0.132 -0.116,-0.036 -0.311,-0.036 -0.311,-0.036 0,0 0,-0.215 -0.119,-0.273 -0.032,-0.039 -0.535,-0.158 -0.535,-0.158 l -0.539,-0.345 c 0,0 -0.47,-0.365 -0.547,-0.191 0,0.158 0.237,0.506 0.237,0.506 l -0.042,0.204 0.083,0.202 c 0,0 -0.113,0.055 -0.041,0.186 0.041,0.118 0.267,-0.014 0.267,-0.014 l 0.116,0.582 0.38,0.459 -0.039,0.246 0.315,0.102 c 0,0 0.2,0.264 0.274,0.309 0.071,0.057 0.113,-0.045 0.275,0.074 0.07,0.141 0.724,0.645 0.882,0.693 0.107,0.04 0.278,0.084 0.383,0.142 0.158,0.055 0.313,0.378 0.313,0.378 0,0 0.617,0.464 0.812,0.564 0.195,0.101 0.308,0.041 0.308,0.041 l 0.539,0.474 0.347,0.686 -0.271,0.387 c 0,0 -0.274,0.488 -1.503,0.367 -0.151,-0.025 -0.267,-0.232 -0.453,-0.264 h -0.665 c 0,0 -1.091,-0.341 -1.322,-0.432 -0.269,0.197 -0.383,0.568 -0.383,0.568 l -1.234,0.62 c 0,0 1.848,0.535 3.129,1.514 1.076,0.741 1.93,1.141 2.192,1.38 0.322,0.168 0.824,0.281 1.132,0.58 0.322,0.29 0.844,0.388 0.844,0.388 0,0 1.895,2.037 1.671,2.776 -0.04,0.061 -0.161,0.617 -1.671,0.81 -0.615,0.077 -4.326,-1.549 -4.326,-1.549 0,0 -3.59,-1.613 -4.479,-1.912 -0.819,-0.422 -3.481,-1.424 -3.676,-1.542 -0.151,-0.1 -0.151,1.969 -0.151,1.969 l -0.501,-0.019 -0.661,-0.533 -0.849,-0.698 c 0,0 -0.16,-0.548 -0.16,-0.64 0,-0.096 -0.42,-0.369 -0.42,-0.369 l -0.388,-0.576 c 0,0 -0.08,-1.218 0.073,-1.644 0.085,-0.452 0.424,-1.482 1.131,-1.784 0.694,-0.33 0.842,-0.283 1.084,-0.241 0.225,0.032 1.391,1.099 1.579,1.264 0.162,0.244 2.12,1.515 2.12,1.515 0,0 -0.612,-0.139 -0.721,-0.081 -0.121,0.055 1.387,1.182 1.462,1.241 0.078,0.074 0.078,0.148 0.078,0.225 0.04,0.081 0.459,0.45 0.459,0.45 0,0 -1.278,-0.659 -1.584,-0.734 -0.306,-0.097 -0.394,-0.097 -0.461,0 -0.045,0.059 0.115,-0.048 0.271,0.133 0.19,0.169 0.772,0.422 0.772,0.422 0,0 0,0.158 0.27,0.302 0.225,0.131 0.7,0.276 0.814,0.456 0.269,0.634 1.354,1.061 1.514,1.183 0.153,0.16 2.424,1.313 2.656,1.445 0.223,0.116 1.821,0.72 2.44,0.87 0.615,0.118 0.652,0.053 0.734,0 0.155,-0.06 -0.62,-0.702 -0.852,-0.942 -0.239,-0.261 -1.32,-1.319 -1.32,-1.319 0,0 -2.307,-1.995 -2.357,-2.072 -0.069,-0.088 -0.15,-0.229 -0.269,-0.324 -0.071,-0.095 -0.231,-0.079 -0.459,-0.202 -0.109,-0.067 -0.42,-0.497 -0.733,-0.858 -0.347,-0.334 -0.663,-0.543 -0.89,-0.726 0.083,-0.32 -0.316,-0.223 -0.43,-0.65 -0.034,-0.401 -0.148,-1.992 -0.306,-2.224 -0.15,-0.207 -1.7,-0.752 -1.7,-0.752 0,0 -0.311,-0.211 -0.505,-0.346 -0.193,-0.136 -0.536,-0.248 -0.536,-0.248 0,0 -0.04,-0.141 -0.151,-0.281 -0.121,-0.115 -0.241,-0.211 -0.241,-0.338 0.164,-0.202 0.197,-0.392 0.241,-0.547 0.111,-0.186 0.223,-0.112 0.345,-0.483 0.028,-0.054 0.342,-0.285 0.422,-0.366 0.075,-0.091 0.316,-0.443 0.385,-0.467 0.117,-0.03 0.578,-0.25 0.578,-0.25 l 0.392,-0.286 v -0.584 l -0.121,-0.443 0.079,-0.557 -0.188,-0.155 -0.9,-0.619 -1.036,-0.808 c 0,0 -0.11,-0.368 -0.077,-0.643 0.156,-0.329 1.39,-0.994 1.39,-0.994 l 0.311,-0.204 0.15,-0.276 c 0.044,-0.235 -0.15,-0.444 -0.15,-0.52 0,-0.058 0.115,-0.248 0.115,-0.364 0.035,-0.137 -0.076,-0.29 -0.076,-0.344 -0.039,-0.081 0,-0.6 -0.039,-0.665 l -0.156,-0.146 -0.882,-0.485 -0.783,-0.39 -0.501,-0.336 -0.421,-0.128 -0.426,-0.171 -0.659,-0.065 c 0,0 -0.197,-0.196 -0.118,-0.518 0.081,-0.329 0.355,-0.501 0.355,-0.501 l 0.071,-0.281 0.27,-0.298 c 0,0 0.122,-0.351 0.542,-0.425 0.304,0 0.734,0.074 0.734,0.074 0,0 0.317,0.199 0.429,0.199 0.116,0 0.389,0.073 0.389,0.073 0,0 0.659,0.252 0.808,0.275 0.076,0 0.192,-0.122 0.192,-0.122 0,0 -0.03,-0.03 -0.03,-0.137 0,-0.056 -0.086,-0.109 -0.086,-0.167 0.039,-0.276 0,-0.538 -0.156,-0.68 0.117,-0.197 0.195,-0.197 0.388,-0.116 0.079,0.021 0.079,0.311 0.308,0.362 0.084,0.055 0.153,0.044 0.274,0.044 0.193,-0.044 0.112,-0.095 0.228,-0.095 0.16,0 0.421,0.151 0.7,0.074 0.302,-0.074 0.262,-0.241 0.348,-0.308 0.035,-0.056 -0.234,-2.065 -0.506,-3.032 -0.422,-0.065 -0.347,-0.095 -0.542,-0.07 -0.81,-0.276 -1.267,-0.41 -1.388,-0.55 -0.042,-0.132 -1.006,-0.257 -1.786,-0.674 -0.115,-0.077 -0.192,-0.158 -0.229,-0.175 -0.075,0 -0.151,0 -0.225,-0.044 -0.081,-0.011 -0.311,-0.169 -0.346,-0.169 -0.081,-0.037 -0.241,0 -0.316,-0.079 -0.071,-0.014 -1.384,-0.561 -1.384,-0.561 0,0 -0.202,-0.112 -0.276,-0.135 -0.346,-0.058 -2.051,-0.899 -2.162,-0.946 -0.125,-0.023 -0.395,-0.114 -0.501,-0.172 -0.2,-0.057 -0.315,-0.287 -0.385,-0.355 -0.121,-0.046 -0.237,-0.099 -0.35,-0.143 -0.086,-0.084 -0.125,-0.142 -0.32,-0.202 -0.189,-0.076 -0.573,-0.149 -0.919,-0.23 -0.313,-0.092 -1.005,-0.422 -1.315,-0.542 -0.309,-0.098 -0.736,-0.291 -1.278,-0.407 -0.543,-0.13 -0.652,-0.61 -0.778,-0.958 0,-0.96 0.9,-2.085 0.9,-2.085 0,0 0.309,-0.176 0.499,-0.239 0.227,-0.032 0.93,0.151 1.199,0.239 0.27,0.105 0.617,0.485 0.886,0.647 0.196,0.156 1.355,0.877 1.355,0.877 0,0 0.387,0.146 0.387,0.209 0,0.053 0.188,0.541 0.311,0.636 0.112,0.101 0.269,0.143 0.42,0.238 0.04,0.035 0.385,0.306 0.777,0.536 0.538,0.293 0.733,0.307 0.849,0.402 0.109,0.085 0.378,0.176 0.464,0.222 0.082,0.038 0.469,0.163 0.582,0.211 0.156,0.058 0.582,0.223 0.661,0.29 0.07,0.051 0.423,0.228 0.423,0.228 0,0 0.691,0.267 0.802,0.31 0.154,0.093 0.939,0.39 0.939,0.39 0,0 0.648,0.29 0.773,0.308 0.148,0.014 1.155,0.671 1.185,0.497 0.044,-0.167 -0.224,-0.93 -0.224,-0.93 0,0 -0.233,-0.483 -0.311,-0.647 -0.117,-0.202 -0.117,-0.51 -0.165,-0.657 -0.067,-0.137 -0.485,-0.608 -0.562,-0.795 -0.081,-0.198 -0.081,-0.274 -0.169,-0.387 -0.417,-0.369 -1.921,-2.538 -1.962,-2.552 -0.081,-0.082 -0.422,-0.33 -0.503,-0.373 -0.08,-0.057 -0.274,-0.33 -0.392,-0.458 -0.08,-0.12 -0.339,-0.352 -0.81,-0.626 -0.773,-0.441 -1.972,-0.694 -1.972,-0.694 0,0 0.738,-0.204 1.199,-0.234 0.381,-0.037 1.088,0.121 1.088,0.121 0,0 0.731,0.025 1.039,0.128 0.351,0.167 0.546,0.297 0.546,0.297 0,0 0.455,0.211 0.536,0.269 0.079,0.059 0.16,0.268 0.197,0.327 0.072,0.039 0.311,0.159 0.42,0.276 0.12,0.085 1.048,0.934 1.048,0.934 l 0.733,0.613 0.505,0.672 0.305,0.058 0.195,0.181 0.382,0.439 0.271,0.549 c 0,0 -0.074,0.073 -0.074,0.168 0,0.094 1.047,1.697 1.047,1.697 l -0.04,0.365 c 0,0 0.387,0.858 0.422,0.993 0.044,0.131 0.278,0.164 0.278,0.164 v 0.499 c 0,0 0.269,0.338 0.497,1.155 0.151,0.051 0.701,0.192 0.701,0.192 0,0 0.349,0.132 0.538,0.209 0.236,0.063 0.886,0.211 0.886,0.211 l 1.702,0.309 c 0,0 2.543,0.568 2.783,0.679 2.627,0.736 2.898,0.951 2.898,0.951 0,0 0.39,0.07 0.512,0.153 0.142,0.07 0.068,0.328 0.068,0.328 0,0 0.148,-0.037 0.225,0.09 0.086,0.109 0.048,0.299 0.048,0.299 0,0 -0.199,0.397 -0.048,0.634 C -0.076,-0.018 0,0 0,0 m -11.865,6.627 c 0.038,0.192 0.153,0.402 0.153,0.402 0,0 0.154,0.138 0.23,0.138 0.116,0.036 0.232,0.362 0.427,0.269 0.083,-0.081 0.083,-0.139 0.042,-0.359 0,-0.204 0.041,-0.318 0.041,-0.533 0,-0.209 -0.153,-0.582 -0.153,-0.582 0,0 0,-0.086 -0.125,-0.152 -0.158,-0.083 -0.19,-0.052 -0.271,-0.115 -0.075,-0.038 -0.151,-0.153 -0.191,-0.211 -0.076,-0.056 -0.153,-0.1 -0.236,0.034 -0.109,0.139 0.042,0.952 0.083,1.109" /></g><g
           transform="translate(83.5975,25.4114)"
           id="g76"><path
             id="path78"
             style="fill:#000000;fill-opacity:1;fill-rule:nonzero;stroke:none"
             d="m 0,0 c -0.148,0.188 -0.584,0.61 -0.738,0.796 -0.181,0.201 -0.378,0.436 -0.378,0.436 0,0 -0.116,-0.023 -0.155,0.064 C -1.387,1.343 -2.08,2.239 -2.08,2.239 L -3.945,4.126 -4.098,4.013 -4.247,4.152 h -0.118 l 0.046,-0.527 0.183,-0.361 0.163,-0.582 0.426,-1.158 c 0,0 0.42,-0.872 0.42,-1.039 0.04,-0.221 -0.155,-0.582 -0.072,-0.642 0.037,-0.105 0.269,-0.116 0.378,-0.634 0.16,-0.545 0.504,-1.412 0.504,-1.412 l 0.389,-0.221 c 0,0 0.397,-0.225 0.775,-0.209 0.738,0.054 0.953,0.309 1.234,0.594 0.311,0.297 0.047,0.603 0.121,0.812 0.076,0.223 0.266,0.116 0.266,0.116 0,0 0.08,0.107 0.114,0.174 0,0.1 -0.155,0.025 -0.227,0.197 C 0.278,-0.563 0.128,-0.222 0,0" /></g><g
           transform="translate(21.4836,59.606)"
           id="g80"><path
             id="path82"
             style="fill:#000000;fill-opacity:1;fill-rule:nonzero;stroke:none"
             d="m 0,0 -1.566,0.596 -2.5,-1.394 -0.367,-0.028 -0.32,-0.517 -0.818,-0.415 -0.69,-0.418 -0.443,-0.31 -1.219,-0.393 -0.432,-0.294 0.026,0.172 -0.734,-0.116 -0.151,2.025 0.059,1.892 0.069,1.084 -0.568,1.245 -0.462,0.601 -0.153,0.36 -0.572,0.366 c -0.135,0.318 -1.126,1.051 -1.126,1.051 0,0 -0.51,0.552 -0.709,0.652 -0.202,0.088 -0.659,-1.204 -0.699,-1.691 -0.016,-0.272 0.084,-1.118 0.26,-1.395 0.007,-0.095 0.149,-0.983 0.151,-2.062 l 0.086,-1.138 c 0.063,-0.845 0.285,-1.26 0.197,-2.65 -0.021,-0.769 -0.01,-2.91 -0.109,-3.277 -0.032,-0.113 -0.244,-0.344 -0.541,-0.561 -0.153,-0.107 -0.141,-0.263 -0.318,-0.357 -0.378,-0.247 -0.716,-0.502 -1.013,-0.718 -0.225,-0.155 -0.413,-0.169 -0.534,-0.275 -0.225,-0.422 -0.211,-1.153 -0.125,-1.337 0.249,-0.294 1.049,-0.466 1.213,-0.514 0.153,-0.047 1.638,0.549 1.552,0.079 0.33,-1.205 -0.12,-2.533 0.023,-3.909 -0.02,-0.278 -0.519,-0.315 -0.519,-0.315 0,0 -0.895,-0.147 -1.476,-0.636 -0.224,-0.211 -0.352,-0.636 -0.352,-0.636 -0.123,-0.359 -0.404,-0.206 -0.577,-0.048 -0.399,0.134 -0.69,0.874 -0.69,0.874 l -0.86,1.021 c -0.742,0.461 -0.575,0.942 -0.886,1.378 0,0 -0.583,1.018 -1.517,1.948 0,0 -0.035,0.452 -0.678,1.334 -0.213,0.259 -0.603,0.737 -0.816,0.925 l -0.51,-0.533 -0.067,-0.571 c -0.049,-1.345 0.505,-0.484 1.484,-3.616 l 0.283,-1.702 0.053,-1.343 -0.132,-3.433 c 0.051,-0.636 0.587,-1.555 0.707,-1.525 l 0.513,-0.12 c 0.109,-0.497 0.701,-1.004 0.81,-0.933 l 0.695,-0.401 c 0.051,-0.229 0.145,-0.355 0.225,-0.352 l 0.696,0.078 0.441,0.285 0.344,1.272 0.269,1.067 0.055,1.362 -0.058,0.756 c 0.163,0.44 0.028,0.705 0.278,1.039 0.49,-0.55 0.457,-0.337 1.251,-0.088 l 0.15,0.338 0.493,-0.09 c 1.029,0.688 0.426,-1.99 0.519,-4.822 l 0.104,-9.75 0.063,-1.361 -0.095,-2.485 0.023,-1.329 c -0.121,-0.865 -0.132,-1.384 -0.104,-1.784 0.03,-0.818 0.491,-1.769 0.747,-1.535 0.823,-0.088 0.769,2.86 0.769,2.86 l 0.131,0.766 0.34,2.78 c 0.116,0.504 0.137,1.747 0.022,2.25 l 0.197,0.451 -0.095,1.299 0.148,1.329 c 0.292,0.942 -0.035,2.131 0.262,2.219 l 0.267,1.218 -0.063,1.74 c 0,0 0.028,0.121 0.163,0.443 l 0.204,1.999 0.009,2.178 0.16,0.311 c 0.116,-0.065 -0.086,1.67 -0.086,1.67 l 0.186,0.617 0.362,0.427 1.022,0.78 0.372,-0.098 1.312,0.652 0.9,0.608 0.792,0.858 0.703,0.469 0.306,0.586 0.195,0.576 -0.149,0.956 -0.325,0.231 -0.341,0.358 -0.151,0.48 -0.42,0.362 0.172,0.607 0.532,0.416 1.667,1.771 0.823,0.965 0.45,0.747 0.439,0.369 0.181,0.74 0.861,0.995 -0.042,0.582 z m -5.439,-9.7 -0.423,-0.327 -0.333,-0.648 -0.237,-0.501 -0.71,-0.176 -0.865,-0.684 -0.464,-0.033 -0.119,0.515 0.852,1.236 1.095,0.444 0.25,0.475 0.453,0.46 0.552,0.099 0.19,-0.426 z m 1.561,5.724 -0.61,-0.768 -0.608,-0.735 -0.218,-0.716 -0.916,-0.864 -0.33,-0.081 -0.406,-0.484 -1.176,-0.45 -0.654,0.375 -0.088,1.162 0.135,0.807 0.417,0.191 0.541,0.455 0.965,0.28 1.045,0.705 1.153,0.708 0.75,0.373 z" /></g><g
           transform="translate(49.3884,26.9357)"
           id="g84"><path
             id="path86"
             style="fill:#000000;fill-opacity:1;fill-rule:nonzero;stroke:none"
             d="M 0,0 -0.163,0.601 -0.306,1.079 -0.772,2.088 -1.848,3.63 -2.871,4.665 C -4.205,5.977 -4.47,6.358 -4.853,7.493 l -0.461,0.124 c 0,0 -0.743,0.752 -0.758,0.875 C -6.086,8.515 -6.108,8.531 -6.108,8.487 -6.282,8.321 -6.362,7.775 -6.362,7.717 l 0.261,-0.461 0.23,-1.619 1.134,-3.533 0.416,-0.51 0.461,-1.39 1.044,-1.818 1.028,-0.592 0.73,-0.462 0.413,-0.157 0.021,0.22 0.337,-0.046 0.076,-0.033 c 0.063,0.098 0.199,0.279 0.199,0.279 l 0.031,0.522 c 0,0 -0.126,0.192 -0.102,0.473 0.009,0.246 0.162,0.6 0.162,0.6 l -0.139,0.328 z" /></g><g
           transform="translate(53.1354,44.4485)"
           id="g88"><path
             id="path90"
             style="fill:#000000;fill-opacity:1;fill-rule:nonzero;stroke:none"
             d="m 0,0 -1.387,0.812 -0.854,0.151 -0.536,0.364 -1.169,0.708 -1.166,0.326 -0.256,0.144 -0.05,0.077 c -0.045,0.102 -0.088,0.248 -0.088,0.415 0,0.23 0.081,0.487 0.252,0.629 l 0.928,0.682 0.206,-0.01 0.896,0.583 0.327,0.412 0.378,0.819 0.691,0.46 0.52,0.698 0.352,0.359 0.314,1.503 -0.163,1.116 c -0.109,0.063 -0.162,0.12 -0.313,0.223 -0.425,0.259 -1.03,0.405 -1.122,0.438 L -3.282,10.58 -4.066,10.471 -5.008,10.195 -5.528,9.742 -7.675,9.431 C -7.712,9.362 -7.949,9.037 -8.253,9.047 c -0.119,0 -0.269,0.05 -0.399,0.254 -0.113,0.165 -0.148,0.363 -0.148,0.555 0,0.316 0.115,0.615 0.115,0.615 l 0.283,1.296 0.116,0.817 0.142,0.55 -0.016,1.226 -0.344,1.327 -0.197,0.502 -0.642,0.403 -0.701,1.005 0.024,0.278 -0.065,0.092 -0.566,0.095 -0.054,0.493 0.054,0.254 -0.48,0.291 c -0.024,0.011 -0.156,0.046 -0.552,-0.437 -0.01,-0.025 -0.024,-0.108 -0.024,-0.292 l -0.048,-0.717 0.03,-1.885 c 0,0 -0.395,-7.94 -0.409,-8.003 l -0.097,-0.359 c 0,0 -0.478,-0.898 -0.584,-0.921 -0.766,0 -1.914,-0.274 -2.418,-0.429 l -0.355,0.176 -0.689,0.132 c -0.073,0 -0.326,-0.014 -0.392,-0.19 -0.094,-0.274 0,-1.093 0,-1.445 0,-0.589 0.163,-0.803 0.312,-0.928 0.136,-0.125 1.194,-0.462 1.936,-0.473 l 0.439,0.011 c 0.538,0.044 0.739,0.065 0.863,-0.118 0.29,-0.141 0.202,-0.466 0.025,-1.167 0,0 -0.464,-2.169 -0.478,-2.219 l -0.336,-2.36 c 0,-0.459 -0.286,-1.735 -0.761,-1.936 l -1.208,0.132 -0.007,0.169 c -0.045,1.091 -0.29,2.651 -0.587,2.986 l 0.018,0.454 -0.978,2.44 -0.23,0.174 C -17.805,1.849 -18.202,1.208 -18.345,0.52 l 0.021,-1.638 c 0,0 -0.427,-0.717 -0.522,-1.206 -0.504,-0.596 -0.409,-0.939 -0.427,-0.968 -0.211,-0.167 -0.557,-0.788 -0.48,-1.822 l 0.751,-0.541 c 0,0 0.309,-0.102 0.42,-0.243 l 0.058,-0.45 -0.155,-0.054 c -0.61,-0.204 -1.606,-0.612 -1.761,-0.782 0,0 -0.599,-0.216 -0.541,-0.187 l -0.649,-0.573 -1.278,-0.87 -1.158,-0.415 -1.05,-0.508 -2.431,-1.856 -0.418,-0.216 c -0.884,-0.383 -1.067,-0.742 -1.137,-1.329 l 0.126,-0.267 c 0.273,-0.222 0.981,-0.095 1.557,0 l 0.76,0.086 1.672,1.032 2.313,1.281 c 0,0 3.245,0.986 3.129,0.853 0.014,0.093 0.053,0.281 2.782,1.838 0.273,0.159 0.445,0.037 0.503,-0.024 0.109,-0.113 0.15,-0.315 0.15,-0.505 0,-0.226 -0.055,-0.465 -0.127,-0.592 l -0.316,-0.32 c 0.022,-0.023 0.033,-0.054 0.033,-0.102 0,-0.547 -0.703,-2.405 -0.735,-2.445 l -0.988,-1.624 -0.258,-0.712 -0.498,-0.622 c -0.485,-1.129 -0.936,-1.883 -1.743,-2.941 l -0.447,-0.614 -0.265,-0.71 -0.434,-0.216 -0.417,-0.861 -0.958,-0.783 -0.599,-0.705 -0.18,-0.086 -0.427,-0.525 c 0,0 -0.14,-0.311 -0.169,-0.369 0.043,0.029 0.997,0.471 0.997,0.471 l 1.856,0.785 1.155,0.981 0.746,0.742 0.854,1.505 0.561,0.633 c 0.21,0.367 0.731,1.226 0.98,1.267 l 0.67,0.967 0.951,1.409 0.411,0.946 0.788,1.422 0.687,1.684 c 0,0 0.788,1.565 0.826,1.623 l 0.392,0.467 0.273,1.799 0.364,0.207 0.485,0.021 1.273,0.499 0.952,0.449 1.11,0.149 1.262,0.749 0.701,0.29 1.675,0.761 1.062,0.51 0.779,0.176 1.469,0.209 0.775,-0.006 c 0.786,0.181 1.099,0.79 1.099,0.934 l -0.134,0.341 0.181,-0.079 0.116,0.063 c 0,0 -0.014,0.272 -0.014,0.487 0,0.127 0.35,0.276 0.371,0.287 z m -9.111,6.309 1.041,0.125 0.381,0.311 0.528,0.321 0.467,0.333 0.492,0.203 0.514,0.12 H -5.49 L -5.193,7.576 -5.228,7.349 -5.346,6.581 -5.808,6.057 -5.912,6.092 -6.281,5.556 -6.416,5.15 -7.175,4.702 -7.812,4.127 -8.531,4.224 -9.093,4.27 -9.455,4.554 -9.622,5.303 Z m 4.583,-7.033 -0.737,-0.436 -0.949,-0.348 -0.775,-0.085 -1.73,-0.525 -0.78,-0.61 -1.152,-0.153 -0.471,0.619 0.113,0.383 0.68,1.301 0.422,0.068 0.104,0.38 0.432,0.146 1.832,1.153 0.139,0.183 0.012,0.007 0.909,0.255 0.548,-0.336 0.468,-0.308 0.557,-0.237 0.322,-0.434 0.441,-0.364 z" /></g><g
           transform="translate(9.7948,6.9809)"
           id="g92"><path
             id="path94"
             style="fill:#000000;fill-opacity:1;fill-rule:nonzero;stroke:none"
             d="m 0,0 c -0.199,-0.735 -0.55,-1.849 -0.826,-2.459 -0.404,-0.109 -1.584,-0.383 -2.612,-0.383 -3.741,0 -5.307,2.895 -5.307,5.642 0,3.616 2.362,5.998 5.744,5.998 1.078,0 2.034,-0.257 2.451,-0.346 0.139,-0.944 0.205,-1.618 0.3,-2.493 L -0.752,5.839 C -1.192,7.564 -2.03,8.19 -3.37,8.19 c -2.318,0 -3.556,-2.403 -3.556,-5.058 0,-3.132 1.482,-5.364 3.595,-5.364 1.301,0 2.123,0.87 2.844,2.385 z" /></g><g
           transform="translate(16.9533,5.8116)"
           id="g96"><path
             id="path98"
             style="fill:#000000;fill-opacity:1;fill-rule:nonzero;stroke:none"
             d="m 0,0 c -0.94,-1.289 -2.072,-1.654 -2.667,-1.654 -2.033,0 -3.245,1.71 -3.245,3.693 0,1.373 0.544,2.545 1.277,3.296 0.632,0.638 1.462,1.065 2.23,1.065 h 0.02 c 1.409,0 2.448,-1.308 2.448,-2.621 0,-0.402 -0.082,-0.538 -0.39,-0.606 -0.25,-0.056 -2.234,-0.211 -4.155,-0.278 0,-2.352 1.239,-3.333 2.438,-3.333 0.627,0 1.186,0.243 1.764,0.802 z m -2.755,5.766 c -0.761,0 -1.457,-0.925 -1.638,-2.157 0.877,0.012 1.726,0.031 2.581,0.052 0.276,0 0.383,0.088 0.383,0.382 0,0.903 -0.473,1.723 -1.311,1.723 z" /></g><g
           transform="translate(22.571,4.3681)"
           id="g100"><path
             id="path102"
             style="fill:#000000;fill-opacity:1;fill-rule:nonzero;stroke:none"
             d="m 0,0 v 0.464 c 0.921,0.104 1.004,0.178 1.004,1.327 v 3.122 c 0,1.206 -0.362,1.869 -1.338,1.869 -0.594,0 -1.153,-0.336 -1.622,-0.755 V 1.742 c 0,-1.1 0.082,-1.174 0.94,-1.278 V 0 h -3.547 v 0.464 c 1.056,0.125 1.139,0.16 1.139,1.297 v 3.78 c 0,1.003 -0.051,1.075 -0.962,1.241 v 0.399 c 0.879,0.142 1.646,0.362 2.43,0.689 V 6.602 c 0.334,0.245 0.668,0.485 1.04,0.732 0.457,0.29 0.84,0.509 1.336,0.509 1.318,0 2.05,-0.977 2.05,-2.512 V 1.761 C 2.47,0.642 2.558,0.589 3.44,0.464 V 0 Z" /></g><g
           transform="translate(30.0617,4.3491)"
           id="g104"><path
             id="path106"
             style="fill:#000000;fill-opacity:1;fill-rule:nonzero;stroke:none"
             d="m 0,0 c -0.269,-0.146 -0.489,-0.195 -0.664,-0.195 -1.029,0 -1.637,0.68 -1.637,2.095 v 5.05 h -1.085 l -0.068,0.176 0.453,0.52 h 0.7 v 1.219 l 1.218,1.154 0.248,-0.031 V 7.646 H 0.939 C 1.102,7.479 1.041,7.075 0.849,6.95 H -0.835 V 2.436 c 0,-1.359 0.522,-1.622 0.935,-1.622 0.383,0 0.698,0.128 0.93,0.234 L 1.185,0.589 Z" /></g><g
           transform="translate(34.7154,10.4628)"
           id="g108"><path
             id="path110"
             style="fill:#000000;fill-opacity:1;fill-rule:nonzero;stroke:none"
             d="M 0,0 C 0.452,0.824 1.15,1.749 1.914,1.749 2.452,1.749 2.856,1.257 2.856,0.824 2.856,0.422 2.6,0.072 2.276,-0.081 2.071,-0.172 1.914,-0.137 1.823,-0.033 1.605,0.19 1.408,0.313 1.15,0.313 c -0.391,0 -0.834,-0.329 -1.189,-1.215 v -3.433 c 0,-1.098 0.092,-1.188 1.291,-1.295 v -0.464 h -3.836 v 0.464 c 0.954,0.107 1.088,0.197 1.088,1.276 v 3.746 c 0,1.06 -0.076,1.13 -0.967,1.274 v 0.422 c 0.872,0.139 1.603,0.359 2.424,0.689 l 0,-1.777 z" /></g><g
           transform="translate(43.5098,4.1568)"
           id="g112"><path
             id="path114"
             style="fill:#000000;fill-opacity:1;fill-rule:nonzero;stroke:none"
             d="M 0,0 C -0.237,0 -0.555,0.135 -0.744,0.353 -0.956,0.564 -1.058,0.817 -1.13,1.062 -1.774,0.628 -2.605,0 -3.031,0 -4.215,0 -5.05,1.044 -5.05,2.106 c 0,0.819 0.399,1.36 1.255,1.714 0.823,0.328 2.236,0.814 2.617,1.144 v 0.468 c 0,1.169 -0.508,1.851 -1.294,1.851 -0.311,0 -0.559,-0.138 -0.733,-0.364 C -3.393,6.678 -3.519,6.289 -3.637,5.82 -3.709,5.523 -3.88,5.403 -4.127,5.403 c -0.333,0 -0.8,0.313 -0.8,0.711 0,0.263 0.188,0.472 0.518,0.734 0.505,0.368 1.523,0.99 2.488,1.206 0.581,0 1.109,-0.216 1.452,-0.52 C 0.109,7.04 0.25,6.358 0.25,5.458 v -3.28 c 0,-0.754 0.242,-1.011 0.537,-1.011 0.196,0 0.384,0.086 0.563,0.174 L 1.503,0.889 Z M -1.178,4.372 C -1.51,4.182 -2.317,3.82 -2.66,3.621 -3.21,3.326 -3.495,3.029 -3.495,2.422 c 0,-0.87 0.637,-1.327 1.147,-1.327 0.384,0 0.87,0.225 1.17,0.524 z" /></g><g
           transform="translate(45.5541,4.3681)"
           id="g116"><path
             id="path118"
             style="fill:#000000;fill-opacity:1;fill-rule:nonzero;stroke:none"
             d="m 0,0 v 0.464 c 1.011,0.104 1.116,0.197 1.116,1.297 v 8.165 c 0,1.11 -0.06,1.152 -1.081,1.261 v 0.42 c 0.84,0.09 1.841,0.348 2.542,0.589 V 1.761 c 0,-1.119 0.109,-1.193 1.12,-1.297 V 0 Z" /></g><g
           transform="translate(61.9581,4.3681)"
           id="g120"><path
             id="path122"
             style="fill:#000000;fill-opacity:1;fill-rule:nonzero;stroke:none"
             d="M 0,0 V 0.485 C 0.993,0.608 1.109,0.765 0.909,1.427 0.731,2.002 0.432,2.974 0.12,3.937 H -3.055 C -3.238,3.4 -3.488,2.575 -3.695,1.793 -3.999,0.765 -3.874,0.608 -2.702,0.485 V 0 h -3.433 v 0.485 c 0.97,0.123 1.199,0.244 1.705,1.709 l 3.175,9.042 0.576,0.176 C 0.209,8.698 1.359,4.978 2.329,2.176 2.825,0.729 3.025,0.587 4.022,0.485 V 0 Z M -1.406,8.917 H -1.47 C -1.937,7.49 -2.377,6.075 -2.825,4.683 h 2.704 z" /></g><g
           transform="translate(72.5358,5.8674)"
           id="g124"><path
             id="path126"
             style="fill:#000000;fill-opacity:1;fill-rule:nonzero;stroke:none"
             d="m 0,0 c -0.696,-0.96 -1.705,-1.712 -2.695,-1.712 -2.03,0 -3.248,1.756 -3.248,3.64 0,1.343 0.596,2.512 1.599,3.37 0.876,0.726 1.887,1.044 2.495,1.044 h 0.021 c 0.55,0 1.098,-0.191 1.355,-0.436 0.225,-0.177 0.302,-0.334 0.302,-0.539 -0.019,-0.399 -0.404,-0.79 -0.609,-0.79 -0.095,0 -0.162,0.044 -0.298,0.181 -0.539,0.54 -1.063,0.747 -1.58,0.747 -1.002,0 -1.81,-0.993 -1.81,-2.772 -0.006,-2.424 1.381,-3.227 2.286,-3.227 0.7,0 1.192,0.192 1.885,0.875 z" /></g><g
           transform="translate(78.6897,4.1568)"
           id="g128"><path
             id="path130"
             style="fill:#000000;fill-opacity:1;fill-rule:nonzero;stroke:none"
             d="M 0,0 C -0.25,0 -0.557,0.135 -0.752,0.353 -0.963,0.564 -1.069,0.817 -1.139,1.062 -1.782,0.628 -2.619,0 -3.034,0 c -1.183,0 -2.018,1.044 -2.018,2.106 0,0.819 0.396,1.36 1.252,1.714 0.817,0.328 2.225,0.814 2.617,1.144 v 0.468 c 0,1.169 -0.505,1.851 -1.297,1.851 -0.311,0 -0.554,-0.138 -0.73,-0.364 C -3.4,6.678 -3.519,6.289 -3.649,5.82 -3.716,5.523 -3.887,5.403 -4.136,5.403 c -0.331,0 -0.798,0.313 -0.798,0.711 0,0.263 0.19,0.472 0.522,0.734 0.506,0.368 1.519,0.99 2.494,1.206 0.575,0 1.101,-0.216 1.442,-0.52 C 0.104,7.04 0.239,6.358 0.239,5.458 v -3.28 c 0,-0.754 0.243,-1.011 0.54,-1.011 0.19,0 0.393,0.086 0.564,0.174 L 1.498,0.889 Z M -1.183,4.372 C -1.512,4.182 -2.32,3.82 -2.668,3.621 -3.224,3.326 -3.505,3.029 -3.505,2.422 c 0,-0.87 0.643,-1.327 1.148,-1.327 0.385,0 0.88,0.225 1.174,0.524 z" /></g><g
           transform="translate(88.7093,4.8134)"
           id="g132"><path
             id="path134"
             style="fill:#000000;fill-opacity:1;fill-rule:nonzero;stroke:none"
             d="m 0,0 c -0.399,-0.065 -1.698,-0.274 -2.628,-0.659 v 1.044 l -1.107,-0.677 c -0.463,-0.299 -0.779,-0.367 -1.006,-0.367 -1.236,0 -2.997,1.294 -2.997,3.744 0,2.354 1.881,4.314 4.185,4.314 0.194,0 0.607,-0.041 0.925,-0.16 v 2.295 c 0,1.037 -0.058,1.104 -1.169,1.189 v 0.439 c 0.851,0.104 1.958,0.359 2.624,0.589 V 1.505 c 0,-0.818 0.092,-0.921 0.6,-0.981 L 0,0.476 Z m -2.628,5.929 c -0.332,0.575 -0.925,0.819 -1.433,0.819 -0.731,0 -2.019,-0.657 -2.019,-3.203 0,-2.04 1.098,-3.086 2.104,-3.086 0.453,0 0.956,0.202 1.348,0.49 z" /></g><g
           transform="translate(95.5591,5.8116)"
           id="g136"><path
             id="path138"
             style="fill:#000000;fill-opacity:1;fill-rule:nonzero;stroke:none"
             d="m 0,0 c -0.94,-1.289 -2.072,-1.654 -2.668,-1.654 -2.036,0 -3.237,1.71 -3.237,3.693 0,1.373 0.538,2.545 1.273,3.296 0.624,0.638 1.463,1.065 2.231,1.065 h 0.01 c 1.41,0 2.458,-1.308 2.458,-2.621 0,-0.402 -0.086,-0.538 -0.399,-0.606 -0.248,-0.056 -2.233,-0.211 -4.149,-0.278 0,-2.352 1.245,-3.333 2.438,-3.333 0.635,0 1.189,0.243 1.763,0.802 z m -2.755,5.766 c -0.771,0 -1.464,-0.925 -1.643,-2.157 0.872,0.012 1.73,0.031 2.589,0.052 0.274,0 0.382,0.088 0.382,0.382 0,0.903 -0.475,1.723 -1.306,1.723 z" /></g><g
           transform="translate(105.5832,4.3681)"
           id="g140"><path
             id="path142"
             style="fill:#000000;fill-opacity:1;fill-rule:nonzero;stroke:none"
             d="M 0,0 V 0.445 C 0.921,0.55 1.021,0.624 1.021,1.742 v 3.19 c 0,1.129 -0.378,1.85 -1.339,1.85 -0.561,0 -1.102,-0.283 -1.658,-0.805 0.039,-0.211 0.039,-0.421 0.039,-0.697 V 1.701 c 0,-1.077 0.1,-1.151 0.981,-1.256 V 0 h -3.456 v 0.445 c 0.921,0.105 1.007,0.179 1.007,1.256 v 3.247 c 0,1.171 -0.395,1.834 -1.322,1.834 -0.596,0 -1.163,-0.392 -1.638,-0.805 V 1.701 c 0,-1.059 0.109,-1.151 0.909,-1.256 V 0 h -3.519 v 0.445 c 1.042,0.105 1.147,0.197 1.147,1.276 v 3.763 c 0,1.06 -0.033,1.132 -0.937,1.298 v 0.399 c 0.8,0.142 1.618,0.362 2.4,0.689 V 6.565 c 0.315,0.241 0.629,0.493 1.065,0.769 0.454,0.29 0.853,0.509 1.375,0.509 0.833,0 1.513,-0.545 1.817,-1.364 0.427,0.35 0.853,0.645 1.248,0.906 0.371,0.239 0.82,0.458 1.298,0.458 1.302,0 2.055,-0.977 2.055,-2.55 V 1.721 C 2.493,0.624 2.58,0.568 3.465,0.445 V 0 Z" /></g><g
           transform="translate(116.8233,11.5479)"
           id="g144"><path
             id="path146"
             style="fill:#000000;fill-opacity:1;fill-rule:nonzero;stroke:none"
             d="m 0,0 c -0.821,-0.141 -0.96,-0.28 -1.348,-1.188 -0.431,-1.009 -0.914,-2.403 -1.929,-5.087 -1.03,-2.825 -1.381,-3.848 -1.562,-4.69 -0.116,-0.406 -0.32,-0.486 -0.584,-0.486 -0.455,0 -0.975,0.396 -0.975,0.836 0,0.242 0.14,0.414 0.451,0.641 0.477,0.334 0.823,0.733 1.138,1.376 0.246,0.493 0.36,0.807 0.457,1.108 0.045,0.218 0.045,0.45 -0.062,0.756 -0.675,2.113 -1.424,4.277 -1.861,5.458 -0.347,0.963 -0.489,1.155 -1.342,1.276 v 0.445 h 3.414 V 0 c -0.782,-0.121 -0.84,-0.262 -0.606,-0.967 l 1.355,-4.245 c 0.45,1.327 1.07,3.081 1.403,4.245 0.189,0.654 0.094,0.846 -0.827,0.967 v 0.445 l 2.878,0 z" /></g><g
           transform="translate(123.9961,12.2115)"
           id="g148"><path
             id="path150"
             style="fill:#000000;fill-opacity:1;fill-rule:nonzero;stroke:none"
             d="m 0,0 c 2.03,0 3.421,-1.749 3.421,-3.908 0,-2.774 -1.777,-4.146 -3.454,-4.146 -2.249,0 -3.488,1.972 -3.488,3.867 0,2.876 1.972,4.187 3.512,4.187 z m -0.216,-0.577 c -0.935,0 -1.628,-1.084 -1.628,-3.072 0,-2.159 0.712,-3.827 1.985,-3.827 0.924,0 1.608,0.812 1.608,3.162 0,2.076 -0.642,3.737 -1.953,3.737 z" /></g><g
           transform="translate(129.5755,11.9944)"
           id="g152"><path
             id="path154"
             style="fill:#000000;fill-opacity:1;fill-rule:nonzero;stroke:none"
             d="M 0,0 V 0.29 C 0,0.738 0.067,1.244 0.17,1.624 0.278,2.013 0.562,2.865 1.447,3.644 2.05,4.164 2.6,4.482 3.264,4.565 3.82,4.535 4.271,4.324 4.496,4.048 4.674,3.878 4.697,3.677 4.635,3.484 4.605,3.333 4.467,3.12 4.271,2.964 4.112,2.839 3.959,2.865 3.797,3.002 3.445,3.35 3.004,3.644 2.51,3.644 2.144,3.644 1.918,3.458 1.76,3.175 1.55,2.823 1.424,2.06 1.464,0.545 V 0 H 3.331 C 3.435,-0.167 3.35,-0.57 3.175,-0.696 H 1.464 v -5.168 c 0,-1.123 0.107,-1.192 1.359,-1.319 v -0.442 h -3.872 v 0.462 C -0.104,-7.037 0,-6.966 0,-5.885 v 5.189 H -1.076 L -1.164,-0.517 -0.719,0 Z" /></g><g
           transform="translate(145.4337,13.0651)"
           id="g156"><path
             id="path158"
             style="fill:#000000;fill-opacity:1;fill-rule:nonzero;stroke:none"
             d="m 0,0 c -0.134,0.642 -0.273,1.014 -0.487,1.341 -0.276,0.452 -0.661,0.552 -1.76,0.552 h -1.077 c -0.492,0 -0.536,-0.049 -0.536,-0.552 v -4.062 h 1.58 c 1.38,0 1.482,0.144 1.658,1.204 h 0.501 v -3.176 h -0.501 c -0.195,1.139 -0.278,1.288 -1.658,1.288 h -1.58 v -3.141 c 0,-1.456 0.123,-1.559 1.51,-1.668 V -8.7 h -4.414 v 0.486 c 1.211,0.109 1.343,0.212 1.343,1.661 v 6.934 c 0,1.412 -0.116,1.5 -1.301,1.621 V 2.489 H 0.353 C 0.353,2.104 0.436,0.87 0.506,0.07 Z" /></g><g
           transform="translate(146.4615,4.3668)"
           id="g160"><path
             id="path162"
             style="fill:#000000;fill-opacity:1;fill-rule:nonzero;stroke:none"
             d="M 0,0 V 0.466 C 0.986,0.571 1.088,0.642 1.088,1.793 V 5.527 C 1.088,6.565 1.03,6.592 0.093,6.76 V 7.181 C 0.912,7.325 1.765,7.545 2.545,7.859 V 1.793 c 0,-1.129 0.107,-1.222 1.097,-1.327 V 0 Z m 1.749,11.254 c 0.492,0 0.886,-0.396 0.886,-0.939 0,-0.485 -0.394,-0.923 -0.911,-0.923 -0.467,0 -0.884,0.438 -0.884,0.923 0,0.543 0.417,0.939 0.884,0.939 z" /></g><g
           transform="translate(155.5241,4.3681)"
           id="g164"><path
             id="path166"
             style="fill:#000000;fill-opacity:1;fill-rule:nonzero;stroke:none"
             d="m 0,0 v 0.464 c 0.926,0.104 1.016,0.178 1.016,1.327 v 3.122 c 0,1.206 -0.366,1.869 -1.343,1.869 -0.594,0 -1.151,-0.336 -1.619,-0.755 V 1.742 c 0,-1.1 0.088,-1.174 0.944,-1.278 V 0 h -3.56 v 0.464 c 1.06,0.125 1.152,0.16 1.152,1.297 v 3.78 c 0,1.003 -0.062,1.075 -0.964,1.241 v 0.399 c 0.872,0.142 1.641,0.362 2.428,0.689 V 6.602 c 0.332,0.245 0.661,0.485 1.05,0.732 0.448,0.29 0.827,0.509 1.323,0.509 1.325,0 2.048,-0.977 2.048,-2.512 V 1.761 C 2.475,0.642 2.57,0.589 3.461,0.464 V 0 Z" /></g><g
           transform="translate(165.9854,5.8116)"
           id="g168"><path
             id="path170"
             style="fill:#000000;fill-opacity:1;fill-rule:nonzero;stroke:none"
             d="m 0,0 c -0.947,-1.289 -2.072,-1.654 -2.661,-1.654 -2.039,0 -3.249,1.71 -3.249,3.693 0,1.373 0.54,2.545 1.264,3.296 0.633,0.638 1.47,1.065 2.241,1.065 h 0.018 c 1.411,0 2.459,-1.308 2.459,-2.621 0,-0.402 -0.086,-0.538 -0.399,-0.606 -0.253,-0.056 -2.234,-0.211 -4.156,-0.278 0,-2.352 1.24,-3.333 2.451,-3.333 0.622,0 1.181,0.243 1.752,0.802 z m -2.756,5.766 c -0.763,0 -1.461,-0.925 -1.63,-2.157 0.867,0.012 1.725,0.031 2.574,0.052 0.277,0 0.378,0.088 0.378,0.382 0,0.903 -0.466,1.723 -1.3,1.723 z" /></g><g
           transform="translate(176.456,4.3681)"
           id="g172"><path
             id="path174"
             style="fill:#000000;fill-opacity:1;fill-rule:nonzero;stroke:none"
             d="M 0,0 V 0.485 C 0.99,0.608 1.113,0.765 0.909,1.427 0.733,2.002 0.438,2.974 0.123,3.937 H -3.048 C -3.242,3.4 -3.488,2.575 -3.684,1.793 -3.985,0.765 -3.867,0.608 -2.697,0.485 V 0 h -3.438 v 0.485 c 0.983,0.123 1.201,0.244 1.705,1.709 l 3.177,9.042 0.576,0.176 C 0.209,8.698 1.368,4.978 2.334,2.176 2.825,0.729 3.027,0.587 4.024,0.485 V 0 Z M -1.41,8.917 H -1.463 C -1.937,7.49 -2.368,6.075 -2.828,4.683 h 2.707 z" /></g><g
           transform="translate(183.954,10.4628)"
           id="g176"><path
             id="path178"
             style="fill:#000000;fill-opacity:1;fill-rule:nonzero;stroke:none"
             d="M 0,0 C 0.452,0.824 1.151,1.749 1.914,1.749 2.456,1.749 2.862,1.257 2.862,0.824 2.862,0.422 2.593,0.072 2.28,-0.081 2.076,-0.172 1.914,-0.137 1.828,-0.033 1.598,0.19 1.41,0.313 1.151,0.313 c -0.388,0 -0.838,-0.329 -1.19,-1.215 v -3.433 c 0,-1.098 0.092,-1.188 1.292,-1.295 v -0.464 h -3.837 v 0.464 c 0.958,0.107 1.088,0.197 1.088,1.276 v 3.746 c 0,1.06 -0.07,1.13 -0.963,1.274 v 0.422 c 0.87,0.139 1.605,0.359 2.42,0.689 l 0,-1.777 z" /></g><g
           transform="translate(191.0296,4.3491)"
           id="g180"><path
             id="path182"
             style="fill:#000000;fill-opacity:1;fill-rule:nonzero;stroke:none"
             d="m 0,0 c -0.269,-0.146 -0.489,-0.195 -0.665,-0.195 -1.03,0 -1.634,0.68 -1.634,2.095 v 5.05 h -1.083 l -0.076,0.176 0.457,0.52 h 0.702 v 1.219 l 1.218,1.154 0.244,-0.031 V 7.646 H 0.944 C 1.095,7.479 1.049,7.075 0.849,6.95 H -0.837 V 2.436 c 0,-1.359 0.52,-1.622 0.934,-1.622 0.39,0 0.701,0.128 0.924,0.234 L 1.179,0.589 Z" /></g><g
           transform="translate(197.3948,9.9416)"
           id="g184"><path
             id="path186"
             style="fill:#000000;fill-opacity:1;fill-rule:nonzero;stroke:none"
             d="m 0,0 c -0.373,1.084 -0.912,1.705 -1.679,1.705 -0.576,0 -1.044,-0.471 -1.044,-1.146 0,-0.745 0.571,-1.151 1.355,-1.533 1.241,-0.596 2.101,-1.218 2.101,-2.406 0,-1.603 -1.471,-2.407 -2.744,-2.407 -0.858,0 -1.652,0.329 -1.972,0.591 -0.106,0.314 -0.257,1.431 -0.257,2.028 l 0.447,0.085 c 0.295,-1.066 1.049,-2.141 2.054,-2.141 0.593,0 1.117,0.446 1.117,1.178 0,0.718 -0.413,1.167 -1.322,1.641 -0.955,0.487 -2.016,1.102 -2.016,2.354 0,1.285 1.003,2.32 2.559,2.32 0.649,0 1.114,-0.158 1.464,-0.318 0.143,-0.388 0.334,-1.448 0.366,-1.81 z" /></g></g></g></g></svg>