<?xml version="1.0" encoding="UTF-8" standalone="no"?>
<svg
   xmlns:dc="http://purl.org/dc/elements/1.1/"
   xmlns:cc="http://creativecommons.org/ns#"
   xmlns:rdf="http://www.w3.org/1999/02/22-rdf-syntax-ns#"
   xmlns:svg="http://www.w3.org/2000/svg"
   xmlns="http://www.w3.org/2000/svg"
   viewBox="0 0 266.66666 86.666664"
   height="86.666664"
   width="266.66666"
   xml:space="preserve"
   id="svg2"
   version="1.1"><metadata
     id="metadata8"><rdf:RDF><cc:Work
         rdf:about=""><dc:format>image/svg+xml</dc:format><dc:type
           rdf:resource="http://purl.org/dc/dcmitype/StillImage" /></cc:Work></rdf:RDF></metadata><defs
     id="defs6"><clipPath
       id="clipPath18"
       clipPathUnits="userSpaceOnUse"><path
         id="path16"
         d="M 0,65 H 200 V 0 H 0 Z" /></clipPath></defs><g
     transform="matrix(1.3333333,0,0,-1.3333333,0,86.666667)"
     id="g10"><g
       id="g12"><g
         clip-path="url(#clipPath18)"
         id="g14"><g
           transform="translate(38.6655,64.5898)"
           id="g20"><path
             id="path22"
             style="fill:#8f002f;fill-opacity:1;fill-rule:nonzero;stroke:none"
             d="m 0,0 h -26.093 c -6.946,0 -12.573,-5.645 -12.573,-12.622 v -38.94 c 0,-6.973 5.627,-12.618 12.573,-12.618 H 0 c 6.938,0 12.568,5.645 12.568,12.618 v 38.94 C 12.568,-5.645 6.938,0 0,0 m -16.506,-36.002 c -0.925,0.866 -1.895,1.497 -4.536,1.497 h -1.35 v -0.904 c 0,-4.049 4.335,-2.248 5.584,-5.681 1.13,-3.093 -2.96,-10.514 -9.056,-14.373 -0.478,-0.309 -1.429,-0.769 -4.274,1.438 8.612,4.987 11.228,10.449 10.482,11.896 -0.91,1.806 -5.634,0.984 -5.634,5.766 v 1.858 h -0.783 c -3.619,0 -5.594,1.619 -5.594,5.302 v 6.139 c 0,6.027 6.013,7.636 6.013,12.36 0.646,0.01 2.344,-1.329 2.16,-3.323 -0.334,-3.825 -5.789,-4.649 -5.789,-10.086 0,-2.032 -0.012,-2.371 0,-4.399 0.013,-2.028 1.175,-3.262 2.961,-3.248 0.289,0.002 0.638,0.002 1.037,0.011 v 4.713 c -0.005,0.932 -1.17,0.639 -1.446,2.594 -0.225,1.746 0.808,3.076 2.688,3.076 1.99,0 2.921,-1.474 2.921,-3.076 0,-2.012 -1.27,-1.728 -1.27,-2.658 v -4.623 c 0.948,0.009 1.901,0.025 2.696,0.034 2.128,0.014 3.701,-1.362 3.19,-4.313 m 4.981,3.791 v -21.977 c 0,-0.797 -0.668,-1.076 -1.489,-1.076 -0.811,0 -1.479,0.316 -1.472,1.099 v 21.954 c 0,0.327 -0.144,0.513 -0.421,0.595 -1.065,0.323 -2.207,1.012 -3.255,2.747 -1.372,2.264 -2.035,9.724 -0.578,13.169 1.371,3.234 4.282,2.508 4.254,5.372 v 1.694 c -0.007,0.78 0.534,1.298 1.472,1.298 0.933,0 1.489,-0.481 1.489,-1.28 v -1.701 c 0.042,-2.852 2.721,-2.071 4.152,-5.269 1.524,-3.422 0.998,-10.877 -0.319,-13.175 -1.095,-1.891 -2.302,-2.571 -3.444,-2.887 -0.19,-0.05 -0.389,-0.236 -0.389,-0.563 m 17.184,3.008 c 0,-3.683 -1.97,-5.302 -5.584,-5.302 h -0.793 v -1.858 c 0,-4.782 -4.717,-3.96 -5.639,-5.766 -0.736,-1.447 1.885,-6.909 10.497,-11.896 -2.851,-2.207 -3.798,-1.747 -4.277,-1.438 -6.101,3.859 -10.186,11.28 -9.056,14.373 1.244,3.433 5.589,1.632 5.589,5.681 v 0.904 h -1.354 c -2.644,0 -3.604,-0.631 -4.537,-1.497 -0.509,2.951 1.055,4.327 3.185,4.313 0.803,-0.009 1.748,-0.025 2.706,-0.034 v 4.623 c 0,0.93 -1.262,0.646 -1.262,2.658 0,1.602 0.92,3.076 2.906,3.076 1.885,0 2.925,-1.33 2.686,-3.076 -0.265,-1.955 -1.444,-1.662 -1.452,-2.594 v -4.713 c 0.412,-0.009 0.753,-0.009 1.045,-0.011 1.788,-0.014 2.953,1.22 2.971,3.248 0.022,2.028 0,2.367 0,4.399 0,5.437 -5.46,6.261 -5.797,10.086 -0.172,1.994 1.514,3.333 2.163,3.323 0,-4.724 6.003,-6.333 6.003,-12.36 z" /></g><g
           transform="translate(25.6859,50.0397)"
           id="g24"><path
             id="path26"
             style="fill:#8f002f;fill-opacity:1;fill-rule:nonzero;stroke:none"
             d="m 0,0 -0.192,-0.009 c -2.098,-0.041 -2.926,-1.383 -3.352,-2.93 -0.624,-2.328 -0.444,-8.11 0.434,-9.676 0.838,-1.488 1.848,-1.955 3.122,-2.076 h 0.095 c 1.275,0.158 2.277,0.634 3.073,2.138 0.845,1.602 0.918,7.35 0.249,9.678 C 2.968,-1.342 2.11,0.007 0,0 m 0,-9.175 c -1.708,0 -2.412,0.923 -2.417,2.081 -0.017,1.17 0.756,2.134 2.375,2.134 1.643,0 2.406,-0.925 2.419,-2.081 C 2.392,-8.202 1.826,-9.175 0,-9.175" /></g><g
           transform="translate(59.2491,45.7793)"
           id="g28"><path
             id="path30"
             style="fill:#231815;fill-opacity:1;fill-rule:nonzero;stroke:none"
             d="M 0,0 H 0.076 V 0.259 H 0.03 Z" /></g><g
           transform="translate(74.3501,50.4777)"
           id="g32"><path
             id="path34"
             style="fill:#000000;fill-opacity:1;fill-rule:nonzero;stroke:none"
             d="m 0,0 c -0.018,-0.181 -0.049,-0.348 -0.13,-0.569 -0.069,-0.217 -0.655,-0.645 -0.823,-0.821 -0.367,-0.392 -0.744,-0.774 -1.103,-1.188 -0.138,-0.177 -0.372,-0.393 -0.561,-0.507 -0.168,-0.117 -0.37,-0.316 -0.504,-0.441 -0.113,-0.125 -0.322,-0.265 -0.2,-0.448 0.12,-0.179 0.141,-0.382 0.334,-0.354 0.161,0.039 0.581,0.051 0.724,0.051 0.148,0 0.451,-0.079 0.512,-0.289 0.054,-0.206 -0.033,-0.38 -0.115,-0.531 -0.099,-0.146 -0.099,-0.391 -0.363,-0.558 -0.268,-0.184 -0.467,-0.48 -0.531,-0.57 L -3.234,-6.317 -3.822,-6.49 c -0.284,-0.139 -0.558,-0.31 -0.842,-0.449 -0.288,-0.141 -0.339,-0.174 -0.58,-0.352 -0.242,-0.173 -0.628,-0.331 -0.689,-0.435 -0.402,-0.832 -0.318,-1.548 -0.384,-2.382 -0.043,-0.361 -0.196,-0.712 -0.258,-1.056 -0.064,-0.322 0.02,-0.986 -0.153,-1.254 0,0 -0.208,-0.322 -0.208,-0.477 0,-0.144 -0.149,-0.432 -0.149,-0.707 0,-0.268 -0.149,-0.742 -0.284,-0.852 -0.161,-0.122 -0.485,-0.272 -0.604,-0.475 -0.116,-0.213 -0.297,-0.363 -0.421,-0.363 l -0.219,0.271 c 0,0 0,0.35 -0.071,0.528 -0.046,0.181 -0.467,0.683 -0.375,0.862 0.081,0.173 0,0.623 -0.071,0.771 -0.059,0.149 -0.021,1.067 -0.088,1.184 -0.06,0.123 -0.264,0.29 -0.264,0.557 0,0.204 -0.062,2.164 -0.382,2.048 -0.327,-0.116 -0.505,-0.143 -0.681,-0.203 -0.174,-0.06 -0.622,-0.151 -0.69,0.033 -0.051,0.17 -0.199,0.232 -0.409,0.17 -0.205,-0.045 -0.555,0.083 -0.555,0.245 0,0.345 -0.466,0.79 -0.657,1.04 -0.373,0.48 -0.76,0.954 -1.091,1.449 -0.27,0.382 -0.364,0.552 -0.27,0.92 0.109,0.332 0.212,0.35 0.043,0.662 -0.089,0.2 -0.393,0.275 -0.37,0.544 0.037,0.205 -0.288,0.506 -0.236,0.619 0.161,0.33 0.733,0.626 1.07,0.745 0.173,0.06 0.673,-0.322 0.673,-0.415 l 0.476,-0.441 c 0.112,-0.157 0.184,-0.467 0.444,-0.303 0.239,0.146 0.338,0.215 0.418,0.242 0.292,0.097 0.575,0.443 0.877,0.575 0.494,0.218 0.848,0.534 1.317,0.813 l 0.354,0.353 c 0.173,0.19 0.021,0.971 0.013,1.203 -0.02,0.373 -0.085,0.718 -0.085,1.1 0,0.505 0.039,0.894 0.102,1.405 0.033,0.286 -0.157,0.756 -0.009,1.004 0.195,0.318 0.346,0.597 0.41,0.963 0.058,0.292 -0.064,0.971 0.326,1.081 l 0.718,0.061 0.352,-0.439 0.265,-0.239 0.123,-0.419 C -6.481,3.553 -6.58,2.812 -6.34,2.484 -6.202,2.296 -5.826,2.191 -5.933,1.899 -5.989,1.718 -5.989,0.68 -5.989,0.563 c 0,-0.127 -0.061,-0.659 0.117,-0.659 0.189,0 0.156,0 0.413,0.058 0.579,0.134 1.018,0.601 1.578,0.721 0.291,0.077 0.655,0.062 0.854,0.324 0.087,0.116 0.296,0.498 0.479,0.498 0.175,0 0.561,-0.029 0.703,-0.121 0.148,-0.088 0.499,-0.197 0.62,-0.197 0.122,0 0.654,0.035 0.777,-0.153 C -0.333,0.862 0.023,0.704 0.023,0.506 0.023,0.31 0.023,0.147 0,0 m -9.451,-5.693 c -0.031,0.184 0.02,0.626 0.043,0.757 l -0.326,0.123 c -0.24,0 -1.194,-0.999 -0.834,-1.233 0,0 0.36,-0.431 0.453,-0.717 0.084,-0.289 0.251,0.041 0.314,0.068 0.056,0.047 0.067,0.572 0.079,0.724 0.028,0.143 0.314,0.087 0.271,0.278 m 4.722,3.503 c 0.206,0.401 -0.161,0.319 -0.2,0.264 -0.042,-0.057 -0.148,-0.113 -0.366,-0.113 -0.225,0 -0.421,-0.45 -0.403,-0.245 l -0.038,-0.524 c 0.038,-0.209 0.301,-0.265 0.301,-0.265 0,0 0.506,0.495 0.706,0.883" /></g><g
           transform="translate(91.7159,47.5675)"
           id="g36"><path
             id="path38"
             style="fill:#000000;fill-opacity:1;fill-rule:nonzero;stroke:none"
             d="M 0,0 C 0.265,0 0.413,-0.293 0.413,-0.43 L 0.216,-0.88 c -0.096,-0.134 -0.85,-0.237 -1.004,-0.264 -0.167,-0.033 -1.21,-0.167 -1.661,-0.2 -0.476,-0.027 -2.892,-0.919 -3.01,-0.945 -0.134,-0.034 -1.343,-0.494 -1.835,-0.65 -0.488,-0.167 -0.588,-0.57 -0.588,-0.691 l -0.13,-0.582 C -8.108,-4.344 -8.344,-5.365 -8.437,-6.051 -8.532,-6.727 -9.258,-8.376 -9.416,-8.633 -9.585,-8.9 -9.878,-9.58 -10.03,-9.739 c -0.168,-0.16 -0.341,-0.495 -0.657,-0.888 -0.324,-0.381 -1.377,-0.777 -1.876,-0.617 -0.186,0.062 -0.546,0.253 -0.838,0.353 -0.301,0.116 -0.368,0.365 -0.423,0.59 -0.067,0.234 -0.268,0.527 -0.329,0.655 -0.069,0.138 0.127,0.399 0.196,0.495 0.066,0.098 0.456,0.226 0.627,0.288 0.153,0.067 0,0.301 0.153,0.301 0.16,0 0.614,-0.071 0.614,-0.267 0,-0.192 0.308,-0.359 0.464,-0.418 0.165,-0.068 0.458,0.253 0.624,0.418 0.156,0.161 0.515,0.747 0.584,0.914 0.071,0.161 0.595,1.342 0.693,1.467 0.101,0.138 0.224,0.662 0.264,0.886 0.028,0.232 0.322,1.218 0.386,1.406 0.063,0.197 -0.289,0 -0.426,0 -0.123,0 -0.263,-0.056 -0.614,-0.188 -0.372,-0.131 -0.436,-0.231 -0.624,-0.368 -0.205,-0.129 -0.332,-0.258 -0.5,-0.355 -0.151,-0.101 0.263,-0.948 0.263,-0.948 l -0.192,-0.496 c -0.137,0.033 -0.458,0.063 -0.555,0.201 l -0.367,0.686 c -0.123,0.062 -0.319,-0.036 -0.614,-0.096 -0.296,-0.066 -1.274,-0.487 -1.596,-0.659 -0.326,-0.151 -0.566,-0.259 -0.851,-0.259 -0.296,0 -1.042,-0.363 -1.537,-0.591 -0.491,-0.23 -0.787,-0.422 -0.879,-0.62 -0.106,-0.199 -0.306,-0.36 -0.43,-0.36 h -0.79 c -0.219,0 -0.314,0.071 -0.612,0.294 -0.303,0.228 -0.24,0.299 -0.24,0.493 0,0.193 0.202,0.421 0.307,0.525 0.096,0.091 0.496,0.231 0.749,0.259 0.264,0.033 0.683,0.227 0.85,0.227 0.381,0 0.859,0.372 1.229,0.483 0.507,0.142 1.045,0.18 1.509,0.431 0.369,0.204 2.16,0.757 2.16,0.757 l 0.426,0.287 c 0.067,0.109 -0.393,0.659 -0.448,0.859 -0.071,0.193 -0.171,0.751 -0.235,1.173 -0.066,0.432 -0.326,0.559 -0.461,0.751 -0.127,0.198 -0.161,1.148 -0.227,1.283 -0.073,0.128 -0.161,0.619 -0.231,0.807 -0.067,0.198 0,0.233 -0.156,0.396 -0.171,0.162 0.058,0.386 0.058,0.386 l 0.429,-0.048 0.196,-0.338 0.428,-0.685 0.328,-0.747 0.319,-0.695 h 0.357 l 0.662,0.521 0.612,0.308 c 0,0 0.749,0.452 1.154,0.55 0.39,0.091 1.229,0.585 1.272,0.684 l 0.028,0.813 c 0,0 -0.028,1.213 -0.028,1.797 0,0.602 -0.135,2.391 -0.105,2.496 0.227,0.673 0.372,1.376 0.586,2.056 l 0.1,0.453 h 0.298 L -7.653,8.159 -7.527,7.554 -7.294,6.838 C -7.247,6.693 -7.42,6.364 -7.373,6.156 -7.309,5.819 -7.021,5.568 -6.942,5.232 -6.83,4.854 -7.008,4.507 -7.052,4.143 -7.112,3.642 -7.002,3.144 -7.002,2.65 -7.008,2.25 -7.082,1.858 -7.1,1.464 c 0.982,0.441 2.102,0.733 3.196,0.859 0.304,0.034 0.729,-0.132 0.83,-0.164 0.088,-0.034 0.19,-0.292 0.19,-0.463 0,-0.157 -0.391,-0.394 -0.529,-0.542 -0.748,-0.939 -1.77,-1.601 -2.731,-2.28 -0.237,-0.167 -1.076,-0.6 -1.15,-0.863 l -0.099,-0.363 c 0.028,0.071 1,0.399 1.152,0.469 0.69,0.357 1.443,0.458 2.184,0.739 0,0 0.675,0.264 1.043,0.294 0.353,0.027 0.172,0.266 0.071,0.328 -0.099,0.058 -0.47,0.185 -0.622,0.185 -0.169,0 -0.3,0.131 -0.3,0.131 l 0.091,0.308 1.445,-0.132 c 0.102,0 1.119,-0.107 1.271,-0.107 C -0.887,-0.137 -0.272,0 0,0 m -9.047,-1.916 c 0.051,0.154 0,0.739 0,0.739 l 0.113,0.626 -0.126,0.244 c -0.094,0 -0.425,-0.215 -0.621,-0.277 -0.197,-0.074 -0.321,-0.224 -0.5,-0.244 -0.171,-0.022 -1.07,-0.59 -1.152,-0.686 -0.084,-0.075 -0.718,-0.615 -0.894,-0.712 -0.313,-0.153 -0.219,-0.713 -0.219,-0.788 l 0.148,-0.596 0.173,-0.403 0.439,0.03 0.483,0.126 0.674,0.263 0.372,0.079 0.26,0.289 0.651,0.669 c 0.062,0.113 0.161,0.486 0.199,0.641 m 1.504,0.739 c 0.016,-0.11 0.048,-0.54 0.209,-0.313 0.178,0.25 0.178,0.364 0.553,0.527 0.367,0.173 0.68,0.397 0.68,0.397 0,0 0.27,0.409 0.482,0.5 0.181,0.085 0.821,0.65 0.821,0.65 l 0.351,0.287 0.362,0.288 c 0,0 0.351,0.499 0,0.394 C -4.612,1.377 -5.133,1.193 -5.657,1.007 -5.942,0.916 -6.269,0.936 -6.559,0.823 -6.773,0.719 -6.87,0.534 -7.066,0.411 L -7.334,0.215 -7.436,-0.387 -7.495,-0.871 Z" /></g><g
           transform="translate(85.023,41.5088)"
           id="g40"><path
             id="path42"
             style="fill:#000000;fill-opacity:1;fill-rule:nonzero;stroke:none"
             d="m 0,0 c 0.076,0.06 0.216,0.322 0.395,0.366 0.176,0.045 0.188,0.156 0.344,0.179 0.151,0.018 0.244,0.088 0.436,0.088 0.188,0 0.611,0.08 0.7,-0.07 C 1.952,0.411 2.046,0.15 2.087,0.06 2.133,-0.032 2.286,-0.4 2.433,-0.545 2.596,-0.701 2.785,-0.81 2.939,-1.002 3.094,-1.202 3.593,-1.908 3.66,-1.986 L 3.789,-2.638 3.741,-3.205 3.399,-3.705 3.135,-4.149 C 3.06,-4.185 2.765,-4.384 2.609,-4.384 c -0.148,0 -0.196,-0.019 -0.543,0.133 -0.343,0.149 -0.631,0.283 -0.631,0.454 0,0.172 -0.089,0.634 -0.179,0.807 -0.221,0.436 -0.371,0.91 -0.565,1.371 -0.079,0.159 -0.582,0.817 -0.582,0.942 z" /></g><g
           transform="translate(108.6596,44.7521)"
           id="g44"><path
             id="path46"
             style="fill:#000000;fill-opacity:1;fill-rule:nonzero;stroke:none"
             d="M 0,0 C 0.01,-0.104 -0.023,-0.447 -0.194,-0.566 -0.52,-0.754 -0.328,-0.838 -0.701,-0.921 -1.034,-0.987 -1.434,-0.932 -1.784,-0.998 -2.469,-1.141 -3.175,-1.416 -3.856,-1.481 -4.722,-1.556 -5.568,-1.965 -6.391,-2.202 -6.61,-2.268 -7.253,-2.299 -7.39,-2.53 l -0.067,-0.319 c 0,-0.292 0.075,-0.314 0.179,-0.519 -0.021,0.05 0.383,-0.514 0.229,-0.463 0.439,-0.131 0.522,0.168 0.829,0.317 0.757,0.393 1.36,1.21 2.29,1.126 0.22,-0.032 0.329,-0.089 0.548,-0.089 0.227,0 0.61,0 0.651,-0.132 0.048,-0.137 0.328,-0.38 0.328,-0.554 0,-0.173 0,-0.519 -0.026,-0.87 -0.023,-0.349 -0.084,-1.476 -0.125,-1.61 -0.167,-0.495 -0.157,-1.081 -0.302,-1.552 -0.041,-0.124 -0.135,-0.693 -0.135,-0.889 0,-0.193 -0.11,-0.525 -0.217,-0.606 L -3.41,-9.021 c -0.129,-0.091 -0.102,-0.264 -0.446,-0.091 -0.357,0.172 -0.329,0.315 -0.357,0.435 -0.017,0.136 -0.33,0.4 -0.363,0.503 l -0.544,0.241 -0.807,0.457 -0.255,0.42 -0.196,0.257 -0.331,0.03 -0.065,-0.466 -0.15,-0.328 -0.229,-0.128 c 0,0 -0.217,-0.262 -0.372,-0.197 -0.153,0.063 -0.303,0.26 -0.431,0.374 -0.484,0.48 -0.612,0.641 -0.828,1.325 -0.086,0.267 -0.528,0.72 -0.528,0.943 l 0.289,0.409 c 0.427,0.283 0.432,1.174 0.443,1.674 l 0.086,0.229 c -0.698,0.057 -1.142,-0.36 -1.758,-0.59 -0.606,-0.223 -1.254,-0.389 -1.863,-0.595 l -0.94,-0.386 -0.331,-0.24 -0.319,-0.243 -0.415,-0.258 c -0.094,-0.053 -0.365,-0.332 -0.596,-0.332 -0.768,0 -0.971,1.064 -0.531,1.616 l 0.281,0.262 0.046,0.516 -0.064,0.438 c 0,0.153 0.064,0.316 0.15,0.411 0.089,0.118 0,0.398 0.168,0.37 0.181,-0.015 0.372,0.069 0.502,-0.06 0.143,-0.133 0.071,-0.235 0.39,-0.192 0.332,0.036 0.671,0.089 1.01,0.28 0.33,0.202 1.133,0.587 1.235,0.629 l 0.408,0.27 c 0.563,0.273 1.159,0.636 1.662,0.972 l 0.305,0.225 0.303,0.28 c 0,0.113 -0.035,0.763 0.052,0.941 0.094,0.165 0.203,0.608 0.203,0.736 0,0.14 0.156,0.322 0.225,0.347 l 0.354,0.216 c 0.084,0.136 0.24,0.523 0.431,0.638 0.196,0.118 0.356,0.477 0.456,0.54 l 0.397,0.289 0.418,0.328 0.034,0.287 L -6.733,4.651 -7.316,4.495 -7.714,4.293 C -7.828,4.229 -8.103,4.077 -8.303,3.943 -8.494,3.812 -8.825,3.685 -8.886,3.642 L -9.312,3.383 -9.498,3.11 C -9.523,3.052 -9.66,2.904 -9.846,2.922 c -0.202,0.024 -0.223,0.085 -0.307,0.13 l -0.395,0.331 c -0.041,0.107 -0.265,0.411 -0.18,0.591 0.18,0.348 -0.25,1.091 -0.059,1.281 0.314,0.274 1.093,-0.173 1.475,-0.173 0.201,0 0.563,-0.029 0.767,0 0.6,0.06 0.92,0.204 1.469,0.412 0.539,0.194 1.149,0.188 1.65,0.486 0.159,0.086 0.449,0.235 0.566,0.348 0.102,0.102 0.102,0.144 0.284,0.144 0.173,0 0.514,0.018 0.739,-0.013 0.221,-0.05 0.54,0.087 0.606,-0.05 L -2.916,6.003 -2.991,5.67 C -3.056,5.605 -3.68,5.279 -3.93,5.104 -4.167,4.931 -4.363,4.761 -4.508,4.651 L -4.977,4.229 C -5.096,4.146 -5.096,3.994 -5.372,3.857 -5.63,3.738 -5.716,3.435 -5.815,3.383 L -6.124,3.11 -6.281,2.797 c 0.051,-0.118 -0.056,-0.359 0.256,-0.118 0.339,0.243 0.21,0.204 0.418,0.316 0.223,0.105 0.413,0.164 0.487,0.115 -0.145,0.112 0.936,0.037 0.671,-0.058 0.455,0.15 1.254,-0.217 1.337,-0.738 C -3.101,2.158 -3.155,2.022 -3.181,1.944 -3.208,1.852 -3.249,1.771 -3.349,1.616 -3.42,1.461 -3.749,1.265 -3.881,1.243 L -4.403,1.226 -5.022,0.874 -5.652,0.524 C -5.716,0.488 -6.23,0.2 -6.452,0.092 -6.827,-0.098 -7.189,-0.321 -7.553,-0.533 -8.017,-0.784 -8.591,-1.475 -9.156,-1.437 l -0.429,-0.044 c -0.075,-0.081 -0.261,-0.352 -0.086,-0.352 0.173,0 0.133,-0.132 0.393,0.074 0.222,0.173 0.405,0.114 0.645,0.128 0.626,0.051 1.176,0.388 1.785,0.49 0.437,0.076 0.921,0.127 1.346,0.303 0.344,0.144 0.525,0.305 0.903,0.379 0.832,0.147 1.576,0.646 2.41,0.7 0.262,0.036 0.599,0.174 0.792,0.174 0.159,0 0.688,0.024 0.788,0 L -0.211,0.26 0,0 m -4.86,-5.336 -0.117,-0.44 0.35,-0.346 0.336,-0.152 c 0.124,-0.063 0,-0.245 0.124,-0.063 0.128,0.164 0.268,0.497 0.311,0.626 l 0.089,0.723 0.087,0.606 -0.069,0.42 c -0.045,0.117 -0.259,0.131 -0.436,0.08 l -0.086,-0.303 c -0.056,-0.11 -0.056,-0.238 -0.02,-0.435 0.02,-0.195 -0.036,-0.325 -0.201,-0.368 -0.161,-0.046 -0.266,-0.279 -0.368,-0.348 m -1.612,-0.461 c -0.138,-0.195 -0.065,-0.41 0.035,-0.41 l 0.217,0.279 0.135,0.262 0.246,0.214 -0.157,0.394 -0.224,-0.278 C -6.261,-5.42 -6.337,-5.602 -6.472,-5.797" /></g><g
           transform="translate(103.1127,56.5469)"
           id="g48"><path
             id="path50"
             style="fill:#000000;fill-opacity:1;fill-rule:nonzero;stroke:none"
             d="M 0,0 0.013,-0.242 C 0.395,-0.399 0.495,-0.614 0.754,-0.867 0.788,-0.915 0.892,-0.932 0.867,-1.172 0.836,-1.415 0.696,-1.705 0.625,-1.747 L 0.444,-1.989 C 0.304,-2.167 0.151,-2.34 0,-2.5 l -0.171,-0.269 0.151,-0.271 0.415,-0.051 0.37,0.084 0.206,0.097 0.362,0.141 c 0.115,0.297 0.296,0.53 0.446,0.736 0.13,0.185 0.278,0.409 0.13,0.722 -0.255,0.489 -0.495,1.273 -1.121,1.448 L 0.525,0.19 0.176,0.102 Z" /></g><g
           transform="translate(117.8207,56.0442)"
           id="g52"><path
             id="path54"
             style="fill:#000000;fill-opacity:1;fill-rule:nonzero;stroke:none"
             d="m 0,0 -0.109,-0.441 c 0.046,-0.099 0.065,-0.099 0.033,-0.319 -0.046,-0.251 -0.247,-0.77 -0.36,-0.987 l -0.461,-0.826 -0.232,-0.193 0.184,-0.339 0.303,-0.126 c 0.219,0.105 0.491,0.021 0.681,0.117 0.188,0.086 0.447,0.369 0.647,0.496 0.527,0.355 0.678,1.392 0.301,1.888 l -0.075,0.339 -0.196,0.162 -0.255,0.113 z" /></g><g
           transform="translate(125.836,49.776)"
           id="g56"><path
             id="path58"
             style="fill:#000000;fill-opacity:1;fill-rule:nonzero;stroke:none"
             d="m 0,0 0.374,-0.536 c 0,-0.098 0,-0.328 -0.121,-0.499 C 0.132,-1.225 -0.356,-1.321 -0.479,-1.33 -0.63,-1.345 -0.877,-1.422 -0.988,-1.434 -1.093,-1.449 -1.338,-1.573 -1.513,-1.673 -1.88,-1.911 -2.291,-2.03 -2.658,-2.265 -2.809,-2.346 -3.157,-2.671 -3.359,-2.728 -3.848,-2.876 -4.375,-3.235 -4.778,-3.532 -4.975,-3.691 -5.186,-3.735 -5.237,-3.854 L -5.402,-4.25 c -0.11,-0.087 -0.026,-0.477 -0.12,-0.726 -0.095,-0.259 0.183,-0.171 0.263,-0.259 l 1.288,0.347 1.162,0.252 0.322,0.165 0.821,-0.11 0.223,-0.156 0.605,0.042 c 0.148,0.042 0.203,0.009 0.28,0.009 l 0.286,-0.009 0.242,-0.281 0.093,-0.312 C 0.054,-5.41 0.084,-5.533 0,-5.789 c -0.069,-0.259 -0.838,-0.179 -0.945,-0.179 -0.098,0 -0.336,0.054 -0.515,0.089 -0.174,0.025 -0.411,0.012 -0.729,0.06 -0.324,0.045 -0.655,0.018 -0.754,-0.035 -0.658,-0.272 -1.387,-0.29 -2.051,-0.609 -0.181,-0.079 -0.434,-0.027 -0.539,-0.161 l -0.725,-0.519 c -0.093,-0.068 -0.102,-0.714 -0.123,-0.873 -0.012,-0.148 -0.087,-0.208 -0.11,-0.3 -0.027,-0.096 0.018,-0.588 -0.017,-0.734 -0.039,-0.148 -0.01,-0.623 -0.01,-0.73 0,-0.22 0.045,-0.442 0.094,-0.651 0,-0.029 0.15,-0.634 0.194,-0.47 -0.13,-0.53 -0.136,-0.898 -0.079,-1.461 0.019,-0.124 0.019,-0.504 -0.051,-0.704 -0.056,-0.202 -0.442,0.096 -0.442,0.096 l -0.385,0.236 -0.394,0.372 c -0.319,0.347 -0.536,1.166 -0.675,1.607 l -0.421,-0.146 -0.41,-0.324 -0.355,-0.448 -0.432,-0.275 c -0.077,-0.088 -0.636,-0.616 -0.739,-0.813 -0.111,-0.217 -0.281,-0.197 -0.487,-0.197 -0.217,0 -0.278,0.197 -0.278,0.26 l -0.378,0.552 -0.071,0.291 c 0,0.438 0,0.763 -0.191,1.157 -0.058,0.124 -0.151,0.205 -0.158,0.379 -0.018,0.19 0.133,0.2 0.235,0.25 l 0.257,0.069 0.306,0.402 -0.024,0.241 -0.282,-0.063 -0.485,-0.253 -0.511,-0.355 c -0.082,-0.091 -0.258,-0.134 -0.549,-0.091 -0.303,0.05 -0.264,0.313 -0.313,0.368 l 0.01,0.568 0.143,0.596 c 0,0.07 -0.092,0.301 -0.049,0.511 0.049,0.219 0.24,0.412 0.309,0.49 0.063,0.08 0.191,0.218 0.385,0.202 0.486,-0.075 0.841,0.283 1.19,0.527 0.509,0.37 0.9,0.576 1.378,1.038 0.074,0.069 0.074,0.161 0.074,0.359 0,0.207 -0.282,0.417 -0.31,0.572 -0.051,0.151 -0.051,0.315 -0.131,0.202 l -0.632,-0.372 c -0.57,-0.466 -1.763,0.118 -2.155,0.574 -0.489,0.57 -0.523,1.392 -0.396,2.09 0.032,0.168 0.194,0.287 0.194,0.417 0,0.112 0.084,0.308 0.202,0.445 0.101,0.146 0.132,0.157 0.186,0.256 l 0.343,0.105 0.444,-0.384 0.058,-0.31 0.373,-1.048 c 0.092,-0.104 0.815,-0.327 0.97,-0.322 l 0.358,0.326 c 0.088,0.071 0.186,-0.081 0.239,0.289 0.114,0.691 0.257,1.518 0.257,2.2 L -10,0.175 -9.933,0.849 c 0,0.614 0.445,0.108 0.519,0.078 0.166,-0.062 0.428,-0.84 0.21,-0.852 0.483,0.039 0.409,-1.146 0.971,-0.159 l 0.359,0.418 0.318,0.345 c 0.27,0.376 0.55,0.726 0.961,0.963 l 0.38,0.427 0.417,0.098 0.472,0.06 c 0.777,-0.51 0.685,-0.803 0.693,-1.658 0,-0.09 0.102,-0.548 0.081,-0.732 -0.007,-0.176 -0.071,-0.701 -0.186,-0.934 -0.096,-0.248 0.363,-0.233 0.431,-0.224 l 0.301,0.15 0.601,0.279 c 0.089,0.022 0.419,0.096 0.605,0.203 0.176,0.104 0.988,0.438 1.032,0.469 L -1.281,0.159 -0.808,0.087 0,0 m -8.451,-10.028 v 0.475 c -0.065,0.462 -0.716,0.533 -0.899,0.095 -0.035,-0.072 -0.064,-0.12 -0.161,-0.269 -0.124,-0.151 -0.152,-0.273 -0.193,-0.45 -0.033,-0.17 -0.079,-0.342 -0.102,-0.418 l -0.145,-0.204 0.413,-0.01 c 0.267,0 1.087,0.471 1.087,0.781 m 0.595,1.518 0.066,0.434 -0.084,0.263 -0.439,-0.411 -0.071,-0.262 0.079,-0.219 0.298,-0.021 0.151,0.216 m 0.515,2.786 -0.049,0.225 -0.362,-0.03 -0.425,-0.308 C -8.382,-5.968 -8.616,-6.144 -8.774,-6.329 L -8.978,-6.535 C -9.102,-6.624 -9.284,-6.591 -9.635,-6.921 -10,-7.244 -9.508,-7.134 -9.423,-7.115 l 0.211,0.093 0.204,0.073 0.303,0.134 c 0.63,0.21 1.36,0.206 1.364,1.091 m -0.154,1.753 c 0.179,0.165 0.276,0.35 0.115,0.439 -0.604,0.297 -0.537,-0.245 -1.098,-0.382 -0.071,-0.017 -0.117,-0.099 -0.199,-0.451 -0.137,-0.609 0.996,0.254 1.182,0.394 M -6.193,0.605 -6.215,0.832 -6.406,0.618 -6.567,0.504 C -6.768,0 -7.355,-0.251 -7.597,-0.725 l -0.16,-0.557 0.025,-0.25 c 0.387,-0.491 0.971,1.064 0.997,1.168 l 0.449,0.62 0.093,0.349 m 1.953,-2.581 0.005,0.178 -0.191,-0.08 h -0.156 l -0.041,-0.152 0.197,-0.11 z" /></g><g
           transform="translate(120.6903,41.5165)"
           id="g60"><path
             id="path62"
             style="fill:#000000;fill-opacity:1;fill-rule:nonzero;stroke:none"
             d="M 0,0 C 0.102,0.105 0.227,0.159 0.285,0.302 0.36,0.433 0.485,0.524 0.665,0.433 0.816,0.331 1.081,0.197 1.173,0.105 1.267,0 1.728,-0.457 1.996,-0.554 c 0.257,-0.099 0.585,-0.421 0.743,-0.593 0.168,-0.162 0.426,-0.684 0.559,-0.85 0.134,-0.152 0.134,-0.456 0.134,-0.555 0,-0.094 0.093,-0.446 0.093,-0.619 0,-0.167 -0.126,-0.429 -0.227,-0.454 L 2.933,-3.657 C 2.88,-3.753 2.683,-3.886 2.512,-3.886 c -0.16,0 -0.461,0.133 -0.583,0.198 l -0.461,0.392 -0.295,0.425 c 0,0.129 0,0.418 -0.169,0.548 C 0.848,-2.19 0.665,-1.928 0.619,-1.798 0.592,-1.669 0.564,-1.467 0.318,-1.237 0.102,-1.008 -0.235,-0.79 -0.196,-0.554 -0.176,-0.327 0,0 0,0" /></g><g
           transform="translate(132.4843,54.7606)"
           id="g64"><path
             id="path66"
             style="fill:#000000;fill-opacity:1;fill-rule:nonzero;stroke:none"
             d="M 0,0 -0.395,-0.321 -0.686,-0.653 -0.941,-0.91 c 0,0 -0.135,-0.195 -0.165,-0.333 l 0.135,-0.355 0.188,-0.787 v -0.691 c 0.067,-0.126 0.097,-0.421 0.294,-0.552 0.196,-0.131 0.395,-0.295 0.489,-0.393 0.097,-0.099 0.268,-0.065 0.423,0 0.168,0.066 0.331,0.19 0.497,0.262 0.161,0.06 0.392,0.393 0.583,0.415 0.205,0.036 0.474,0.268 0.597,0.366 l 0.425,0.364 0.284,0.36 0.461,0.484 c 0.102,0 0.397,-0.158 0.397,-0.326 0,-0.158 -0.044,-0.55 0.031,-0.683 l 0.293,-0.423 0.395,-0.367 0.486,-0.313 0.551,0.159 c 0.11,0.095 0.145,0.357 0.268,0.492 l 0.609,0.585 0.639,0.222 0.513,0.236 0.912,0.22 L 8.208,-2.354 7.647,-2.755 C 7.554,-2.819 7.452,-3.076 7.133,-3.202 6.796,-3.344 5.984,-3.6 5.886,-3.699 L 5.533,-4.086 C 4.98,-4.454 4.393,-4.811 3.823,-5.165 l 0.461,-0.037 0.779,0.332 c 0.136,0 0.235,0.033 0.47,0.238 0.407,0.349 0.988,0.428 1.505,0.518 0.414,0.099 0.969,0.391 1.409,0.391 0.156,0 0.441,0.154 0.704,0.154 0.262,0 0.553,-0.031 0.755,-0.031 0.657,0 1.519,-0.076 1.64,0.721 l 0.064,0.455 -0.295,0.496 -0.268,0.295 c 0,0 -0.222,0.06 -0.382,0.134 -0.171,0.059 -0.494,0.125 -0.494,0.223 0,0.095 -0.159,0.296 -0.329,0.423 -0.171,0.135 -0.653,0.2 -0.653,0.2 L 8.69,-0.752 8.338,-0.88 7.877,-1.147 7.49,-1.335 6.611,-1.573 5.759,-1.598 c -0.104,0 -0.535,0.137 -0.535,0.292 0,0.159 -0.089,0.52 -0.127,0.678 -0.034,0.169 -0.158,0.366 -0.255,0.47 L 4.416,0.196 C 4.314,0.196 3.889,0.29 3.756,0.101 3.623,-0.098 3.33,-0.426 3.27,-0.554 2.888,-1.357 2.365,-1.542 1.601,-1.928 1.249,-2.11 0.681,-1.837 0.54,-1.461 0.441,-1.243 0.716,-0.593 0.499,-0.459 0.332,-0.355 0.097,0 0,0" /></g><g
           transform="translate(143.8707,47.0145)"
           id="g68"><path
             id="path70"
             style="fill:#000000;fill-opacity:1;fill-rule:nonzero;stroke:none"
             d="M 0,0 C -0.02,-0.22 -0.123,-0.409 -0.372,-0.521 -0.563,-0.623 -0.89,-0.919 -1.078,-0.989 -1.279,-1.05 -1.577,-1.35 -2.067,-1.544 -2.556,-1.738 -2.783,-1.908 -3.149,-1.967 -3.511,-2.03 -4.299,-2.474 -4.482,-2.656 -4.681,-2.822 -4.941,-3.275 -5.01,-3.368 l -0.392,-0.751 c -0.098,-0.143 0.26,-0.791 0.427,-0.988 0.166,-0.193 0.455,-0.491 0.663,-0.425 0.191,0.069 1.233,-0.066 1.379,-0.066 0.435,0 1.063,-0.327 1.417,-0.548 0.39,-0.253 0.683,-0.621 0.142,-0.952 -0.17,-0.101 -0.654,-0.355 -0.825,-0.398 -0.166,-0.034 -1.18,0.297 -1.402,0.297 -0.229,0 -0.489,-0.254 -0.611,-0.331 l -0.235,-0.586 c 0,0 -0.035,-1.179 -0.105,-1.369 -0.056,-0.196 -0.109,-0.489 -0.129,-0.588 l -0.294,-1.212 c 0,-0.096 -0.471,-0.69 -0.621,-0.785 -0.171,-0.094 -0.321,-0.294 -0.592,-0.321 -0.261,-0.039 -0.746,0 -1.009,0.059 -0.255,0.069 -0.624,0.357 -0.759,0.56 -0.135,0.194 -0.886,0.46 -0.971,0.487 -0.094,0.035 -0.43,0.393 -0.464,0.554 -0.02,0.163 -0.583,0.885 -0.644,1.05 -0.066,0.166 -0.154,0.225 -0.268,0.363 -0.107,0.133 -0.553,0.226 -0.622,0.363 -0.068,0.12 -0.593,0.486 -0.856,0.712 -0.26,0.234 -0.39,0.561 -0.446,0.818 -0.077,0.265 -0.132,0.417 -0.077,0.555 h 0.625 l 0.495,-0.329 c 0.73,-0.181 2.175,0.212 2.8,0.524 0.267,0.135 1.132,0.331 1.246,0.359 0.136,0.035 0.95,0.092 1.15,0.142 0.191,0.024 0.392,0.088 0.293,0.249 -0.102,0.169 -0.63,0.029 -0.821,0.067 -0.196,0.033 -0.255,0.233 -0.352,0.326 -0.101,0.103 -0.236,0.425 -0.236,0.589 0,0.167 0,0.493 0.068,0.588 0.067,0.093 0.229,0.563 0.199,0.751 -0.031,0.199 -0.494,-0.361 -0.615,-0.515 -0.132,-0.168 -0.213,-0.069 -0.427,0.065 -0.238,0.131 -0.238,0.262 -0.238,0.394 l 0.205,0.583 0.247,0.492 0.594,0.459 0.172,0.552 0.355,0.265 c 0.095,0.046 0.499,-0.345 0.657,-0.382 0.261,-0.059 0.574,0.057 0.818,0.147 0.561,0.22 1.055,0.582 1.535,0.928 0.165,0.107 0.636,0.447 0.751,0.619 l 0.643,0.412 c 0.035,0.139 0.073,0.33 -0.097,0.559 C -2.395,1.205 -2.933,1.235 -3.251,1.27 -3.57,1.306 -4.584,0.885 -4.916,0.828 -5.237,0.745 -5.695,0.712 -5.965,0.712 c -0.25,0 -1.553,-0.525 -1.7,-0.622 -0.128,-0.09 -1.106,-0.778 -1.262,-0.882 -0.166,-0.094 -0.621,-0.325 -0.729,-0.517 -0.092,-0.2 -0.379,-0.599 -0.578,-0.721 -0.201,-0.131 -0.362,-0.26 -0.362,-0.26 0,0 -0.494,-0.325 -0.695,-0.559 -0.19,-0.228 -0.289,-0.456 -0.388,-0.489 l -0.323,-0.585 c -0.102,-0.131 -0.26,-0.59 -0.429,-0.727 -0.166,-0.126 -0.394,-0.229 -0.584,-0.161 -0.198,0.072 -0.387,0.129 -0.517,0.259 -0.198,0.192 -0.264,0.873 -0.3,1.147 -0.094,0.499 -0.069,1.083 -0.131,1.572 l -0.168,0.367 c -0.122,0.088 -0.033,0.282 0.102,0.477 l 0.627,0.498 0.42,0.125 c 0.623,0 1.165,0.34 1.607,0.724 0.496,0.409 0.907,0.45 1.483,0.706 l 1.645,0.995 c 0,-0.024 -0.04,-0.21 -0.2,-0.428 C -8.611,1.404 -8.091,1.43 -8.091,1.43 l 0.731,0.299 1.196,0.259 0.892,0.104 c 0.405,0 0.79,-0.097 1.208,-0.071 0.512,0.038 1.014,0.099 1.538,0.099 0.278,0 1.081,-0.164 1.321,-0.283 C -0.721,1.619 0.092,0.661 0,0 m -5.54,-8.501 -0.026,0.801 -0.54,-0.057 -0.377,-0.127 -0.151,-0.122 c -0.344,0 -0.637,-0.254 -0.935,-0.394 -0.499,-0.25 -1.029,-0.394 -1.524,-0.632 l -0.348,-0.051 c 0,0 -0.023,-0.193 0.07,-0.373 0.376,-0.759 3.031,-1.928 3.406,-0.711 0.055,0.172 0.127,0.428 0.127,0.428 l 0.091,0.35 c 0,0.056 0.095,0.393 0.159,0.532 0.048,0.147 0.048,0.356 0.048,0.356" /></g><g
           transform="translate(148.4232,49.0315)"
           id="g72"><path
             id="path74"
             style="fill:#000000;fill-opacity:1;fill-rule:nonzero;stroke:none"
             d="M 0,0 C -0.059,0.233 0.039,0.497 0.181,0.761 0.318,1.017 0.451,1.342 0.578,1.514 0.719,1.691 1.019,2.128 1.257,2.328 1.488,2.536 1.921,2.76 1.973,2.912 2.08,3.154 2.865,3.681 3.107,3.813 4.105,4.334 5.619,3.583 5.619,2.385 5.619,2.072 5.561,1.739 5.507,1.424 5.451,1.196 5.206,0.858 5.206,0.644 L 5.064,0.09 4.939,-0.491 c -0.12,-0.553 0.025,-0.994 0.319,-1.459 0.17,-0.279 0.265,-0.574 0.451,-0.837 0.132,-0.203 0.568,-0.537 0.568,-0.758 0,-0.142 0.799,0.311 0.877,0.394 0.412,0.424 0.391,1.094 0.733,1.55 l 0.169,0.245 C 8.397,-0.912 8.739,-0.387 9.042,0.09 9.116,0.174 9.334,0.674 9.45,0.525 9.569,0.381 9.803,0.552 9.847,0.292 9.92,0.029 9.999,0 9.969,-0.31 c -0.013,-0.325 0,-0.387 0,-0.569 0,-0.165 0,-0.518 0.049,-0.596 0.382,-0.567 1.233,0.069 1.616,0.375 0.303,0.247 0.608,0.396 0.96,0.572 0.26,0.141 0.719,0.343 0.978,0.531 0.252,0.185 0.437,0.641 0.829,0.522 0.287,-0.083 0.874,-0.351 1.014,-0.351 0.15,0 0.377,0.035 0.466,-0.084 0.076,-0.12 0.23,-0.209 0.286,-0.376 0.061,-0.182 0.061,-0.442 0.061,-0.442 0,0 -0.23,-0.488 -0.436,-0.488 -0.206,0 -0.489,-0.236 -0.574,-0.321 L 14.923,-1.8 c -0.1,-0.322 -0.769,-0.614 -1.048,-0.823 -0.326,-0.272 -0.557,-0.594 -0.899,-0.843 -0.204,-0.141 -0.298,-0.141 -0.382,-0.164 -0.436,-0.158 0.155,-1.497 -0.058,-1.807 l -0.294,-0.208 -0.813,0.03 -0.407,-0.171 -0.255,-0.155 c 0,0 -0.211,-0.205 -0.382,-0.284 -0.166,-0.088 0.204,-0.174 0.382,-0.062 0.166,0.12 0.323,0.17 0.426,0.263 l 0.553,0.149 c 0.119,0 0.178,-0.119 0.358,-0.173 0.342,-0.119 1.214,-0.244 0.926,-0.817 -0.089,-0.17 -0.352,-0.348 -0.352,-0.348 0,0 -0.173,-0.15 -0.232,-0.295 -0.097,-0.26 -0.431,-0.343 -0.601,-0.54 -0.224,-0.284 -0.612,-0.657 -0.642,-1.008 0.04,0.364 1.376,0.033 1.475,-0.379 0.03,-0.107 0.058,-0.75 0.03,-0.894 -0.03,-0.152 -0.282,-0.668 -0.331,-0.768 -0.004,-0.07 -0.076,-0.365 -0.101,-0.573 -0.034,-0.203 0.229,-0.555 0.348,-0.555 0.112,0 0.461,0.092 0.632,0.152 0.174,0.06 0.409,0.147 0.523,0.147 0.464,0 1.262,0.143 1.595,0.452 0.383,0.359 0.141,0.611 0.016,1.023 0,0 -0.087,0.292 -0.087,0.469 0,0.468 -0.158,0.926 -0.207,1.4 -0.043,0.256 0.034,0.692 -0.117,0.93 -0.074,0.144 0,0.674 -0.147,0.847 -0.144,0.173 -0.251,0.379 -0.039,0.379 0.248,0 0.425,-0.096 0.482,-0.24 0.051,-0.139 0.198,-0.462 0.349,-0.605 0.133,-0.151 0.403,-0.589 0.487,-0.79 0.091,-0.205 0.468,-0.902 0.56,-0.995 l 0.579,-0.783 c 0.257,-0.258 0.354,-0.63 0.586,-0.904 0.165,-0.226 0.579,-0.409 0.635,-0.695 0.015,-0.143 0.18,-0.608 0.18,-0.726 l -0.242,-0.457 -0.522,-0.236 c 0,0 -0.313,0.108 -0.579,0.141 -0.259,0.024 -0.896,0.122 -1.022,0.095 -0.729,-0.194 -1.493,-0.304 -2.216,-0.396 -0.301,-0.03 -0.595,-0.03 -0.841,-0.149 -0.184,-0.108 -0.293,-0.392 -0.551,-0.392 -0.232,0 -1.025,0.147 -1.025,0.147 0,0 -0.05,-0.086 -0.285,0.346 -0.224,0.432 -0.435,0.701 -0.346,0.868 0.208,0.414 0.112,0.975 0.407,1.337 0.122,0.149 0.174,0.266 0.205,0.409 0.019,0.152 0,0.677 0,0.677 L 11.05,-9.858 c -0.028,-0.124 0.06,-0.239 -0.268,-0.348 -0.309,-0.123 -0.862,-0.445 -0.862,-0.445 -0.389,-0.434 -1.664,-2.057 -2.328,-1.883 -0.112,0.018 -0.472,0.22 -0.358,0.521 0.115,0.277 0.189,0.781 0.311,0.989 0.098,0.198 0.653,0.809 0.661,0.818 0.349,0.376 1.118,0.948 1.269,1.455 0.264,0.772 -1.328,1.352 -0.461,2.005 0.127,0.08 0.236,0.224 0.588,0.405 0.354,0.174 0.617,0.674 0.617,0.674 0,0 0.13,0.23 0.166,0.373 0.03,0.149 -0.166,0.318 -0.263,0.318 l -0.166,0.445 0.314,0.376 c 0,0 -0.252,0.057 -0.423,0 C 9.689,-4.218 9.475,-4.308 9.39,-4.418 L 8.99,-4.715 8.478,-5.092 8.056,-5.615 C 7.805,-5.983 7.545,-6.57 7.108,-6.263 6.815,-6.072 6.873,-5.714 6.712,-5.448 6.605,-5.294 6.228,-5.092 6.19,-4.946 6.155,-4.84 6.155,-4.418 5.966,-4.375 5.759,-4.308 5.24,-4.329 5.24,-4.329 c 0,0 -0.702,-0.154 -0.702,-0.297 0,-0.149 -0.083,-0.233 -0.145,-0.4 C 4.25,-5.448 3.937,-5.746 3.784,-6.185 3.601,-6.707 3.267,-7.067 3.168,-7.624 3.107,-8.004 2.737,-8.632 2.814,-9.023 2.856,-9.169 2.796,-9.628 2.737,-9.839 c -0.059,-0.2 0.02,-0.668 0.059,-0.778 v -0.787 l -0.449,-0.409 -0.482,-0.113 c -0.122,-0.064 -0.501,-0.087 -0.728,0.081 -0.559,0.423 -0.377,1.379 -0.637,1.912 -0.182,0.386 -0.451,0.419 -0.396,0.91 0.044,0.208 -0.065,0.318 0.214,0.585 0.294,0.258 0.5,0.578 0.525,0.849 0.028,0.257 0.092,1.102 0.092,1.302 0,0.201 -0.064,1.311 0.015,1.512 0.102,0.205 0.176,0.959 0.332,1.081 l 0.206,0.525 0.255,0.405 c 0,0 0.332,0.31 0.49,0.236 0.172,-0.087 0.524,-0.406 0.563,-0.674 0.018,-0.264 0.226,-0.167 0.346,-0.199 l 0.406,-0.032 0.438,0.264 0.147,0.192 0.294,0.563 -0.2,0.471 c -0.173,-0.04 -0.736,1.156 -0.233,1.3 -0.067,0.435 0.246,0.321 0.353,0.583 0.066,0.227 0.158,0.918 0.158,1.172 0,0 -0.03,0.488 0.033,0.671 C 4.587,1.952 4.505,2.208 4.505,2.208 L 4.347,2.502 3.96,2.478 3.609,2.072 3.255,1.739 2.939,1.253 2.477,0.785 1.942,0.349 1.516,0.174 1.108,-0.089 0.612,-0.343 0.24,-0.146 Z" /></g><g
           transform="translate(159.4149,54.069)"
           id="g76"><path
             id="path78"
             style="fill:#000000;fill-opacity:1;fill-rule:nonzero;stroke:none"
             d="m 0,0 -0.109,-0.554 c 0.078,-0.092 0.26,-0.092 0.287,-0.233 0.173,-0.829 -0.018,-1.985 1.025,-2.242 l 0.598,-0.202 c 0.151,0 0.495,0 0.617,-0.122 0.123,-0.119 0.339,-0.119 0.498,0.038 0.14,0.143 0.285,0.373 0.285,0.56 0,0.766 -0.66,1.414 -1.183,1.884 l -0.3,0.317 C 1.61,-0.245 0.293,0.114 0,0" /></g><g
           transform="translate(65.6509,21.2542)"
           id="g80"><path
             id="path82"
             style="fill:#000000;fill-opacity:1;fill-rule:nonzero;stroke:none"
             d="m 0,0 c -1.475,0 -2.722,0.32 -3.697,1.183 -1.068,0.922 -1.345,2.131 -1.345,3.175 0,0.746 0.22,2.02 1.277,2.975 0.763,0.703 1.801,1.133 3.405,1.133 0.678,0 1.07,-0.035 1.563,-0.103 C 1.616,8.307 1.972,8.212 2.284,8.183 L 2.447,8.059 2.368,6.287 2.237,6.041 2.131,6.277 C 2.108,6.612 1.972,6.99 1.708,7.265 1.35,7.653 0.502,7.937 -0.487,7.937 -1.424,7.937 -2.044,7.707 -2.525,7.265 -3.311,6.552 -3.506,5.516 -3.506,4.48 c 0,-2.58 1.951,-3.856 3.389,-3.856 0.964,0 1.553,0.108 1.981,0.614 0.182,0.203 0.324,0.509 0.373,0.716 l 0.138,0.2 0.097,-0.159 C 2.472,1.867 2.341,0.93 2.237,0.554 2.184,0.372 2.138,0.32 1.957,0.248 1.525,0.068 0.695,0 0,0 M 3.799,6.884 3.428,6.915 3.271,7.006 3.479,7.103 h 1.372 c 0.308,0 2.409,-0.012 2.596,0 L 7.851,7.137 7.983,7.161 8.063,7.091 7.932,5.888 7.826,5.741 7.75,5.859 7.688,6.192 C 7.612,6.353 7.531,6.485 7.061,6.529 6.892,6.552 5.762,6.574 5.565,6.574 L 5.506,6.485 V 4.22 L 5.565,4.116 c 0.21,0 1.454,0 1.659,0.027 0.229,0.021 0.382,0.041 0.464,0.139 L 7.834,4.393 7.902,4.302 7.788,3.018 7.699,2.818 7.612,2.886 7.58,3.219 C 7.521,3.405 7.404,3.546 7.048,3.581 6.873,3.585 5.781,3.622 5.555,3.622 L 5.506,3.529 V 2.781 c 0,-0.31 -0.027,-1.079 0,-1.356 0.013,-0.625 0.32,-0.772 1.28,-0.772 0.25,0 0.648,0.019 0.902,0.12 0.235,0.12 0.341,0.304 0.413,0.685 L 8.203,1.602 8.286,1.377 C 8.286,1.183 8.209,0.554 8.156,0.362 8.101,0.126 8.012,0.126 7.642,0.126 L 3.595,0.147 3.417,0.248 3.565,0.345 3.896,0.372 c 0.205,0.048 0.25,0.215 0.286,0.494 0.042,0.391 0.042,1.104 0.042,1.96 v 1.617 c 0,1.397 0,1.654 -0.014,1.952 C 4.19,6.704 4.101,6.796 3.799,6.884 M 16.111,0.052 15.745,0.232 C 15.16,0.79 13.972,1.919 12.98,2.886 11.999,3.814 11.093,4.821 10.821,5.088 V 1.41 c 0.026,-0.721 0.147,-0.939 0.325,-0.999 l 0.5,-0.066 0.165,-0.097 -0.212,-0.101 H 9.334 l -0.21,0.101 0.142,0.097 0.431,0.04 c 0.194,0.049 0.269,0.239 0.29,0.719 v 5.902 c 0,0.116 0.027,0.259 0.254,0.259 l 0.409,-0.3 C 10.775,6.837 12.199,5.39 13.586,4.023 14.162,3.446 15.22,2.373 15.529,2.078 v 4.451 c -0.051,0.192 -0.132,0.279 -0.267,0.339 l -0.498,0.047 -0.157,0.091 0.244,0.097 h 2.142 L 17.203,7.006 17.037,6.915 16.753,6.884 C 16.495,6.808 16.408,6.645 16.387,6.128 L 16.374,4.914 V 0.3 L 16.186,0.075 16.15,0.052 h -0.03 z m 1.634,5.857 -0.108,-0.118 -0.085,0.155 0.214,1.11 0.1,0.169 c 0.072,0 0.165,-0.064 0.411,-0.094 0.283,-0.04 0.629,-0.048 0.944,-0.048 h 3.863 c 0.307,0 0.516,0.02 0.648,0.048 l 0.252,0.03 0.085,-0.196 c 0,-0.178 -0.028,-0.868 -0.028,-1.106 L 23.963,5.708 23.85,5.888 23.834,5.983 c -0.02,0.236 -0.259,0.536 -1.125,0.536 l -1.191,0.02 V 2.826 c 0,-0.856 0.006,-1.569 0.049,-1.978 0.036,-0.261 0.099,-0.428 0.381,-0.476 l 0.47,-0.027 0.168,-0.097 -0.202,-0.101 h -2.771 l -0.182,0.101 0.14,0.097 0.352,0.027 c 0.18,0.048 0.231,0.215 0.267,0.494 0.036,0.391 0.036,1.104 0.036,1.96 V 6.539 L 18.819,6.519 C 18.277,6.494 18.035,6.438 17.908,6.219 L 17.745,5.909 M 31.767,0.362 31.986,0.345 32.106,0.248 31.928,0.147 h -0.911 c -0.527,0 -0.792,0.054 -1.04,0.18 -0.404,0.219 -0.762,0.641 -1.284,1.358 -0.4,0.502 -0.786,1.114 -0.908,1.259 L 27.615,3.01 26.763,3.027 26.681,2.95 V 2.826 c 0,-0.864 0.008,-1.569 0.055,-1.96 C 26.77,0.587 26.812,0.42 27.105,0.372 L 27.562,0.345 27.683,0.248 27.496,0.147 h -2.652 l -0.176,0.101 0.151,0.097 0.337,0.027 c 0.192,0.048 0.243,0.215 0.271,0.494 0.042,0.391 0.042,1.104 0.042,1.96 v 1.617 c 0,1.397 0,1.654 -0.008,1.952 -0.022,0.309 -0.102,0.401 -0.414,0.489 l -0.368,0.031 -0.17,0.091 0.221,0.097 c 0.498,0 1.095,-0.02 1.284,-0.02 0.341,0 1.201,0.02 1.491,0.02 0.612,0 1.299,-0.055 1.809,-0.398 0.267,-0.176 0.663,-0.643 0.663,-1.259 0,-0.683 -0.387,-1.282 -1.311,-2.031 0.83,-1.042 1.504,-1.873 2.087,-2.447 0.525,-0.534 0.858,-0.569 1.014,-0.606 m -4.271,3.12 c 0.375,0 0.5,0.031 0.666,0.14 0.294,0.217 0.612,0.61 0.612,1.377 0,1.288 -0.873,1.631 -1.441,1.631 -0.241,0 -0.47,-0.018 -0.563,-0.035 L 26.681,6.469 V 3.73 L 26.77,3.566 c 0.207,-0.074 0.481,-0.084 0.726,-0.084 m 10.534,-3.335 -0.271,0.085 0.116,0.113 0.083,0.209 -0.729,1.84 -0.102,0.062 H 34.88 L 34.805,2.394 34.299,1.166 C 34.202,0.937 34.161,0.715 34.161,0.604 c 0,-0.17 0.077,-0.259 0.377,-0.259 h 0.128 L 34.814,0.248 34.659,0.147 h -2.154 l -0.17,0.101 0.106,0.097 0.271,0.013 c 0.435,0.062 0.606,0.337 0.795,0.808 l 2.487,5.782 c 0.106,0.259 0.176,0.366 0.286,0.366 0.133,0 0.18,-0.089 0.265,-0.281 0.237,-0.514 1.836,-4.273 2.428,-5.675 0.368,-0.835 0.637,-0.947 0.809,-0.986 l 0.356,-0.027 0.135,-0.097 c 0,-0.08 -0.055,-0.101 -0.419,-0.101 z m -1.11,2.824 0.048,0.056 -0.894,2.332 -0.04,0.087 -0.061,-0.087 -0.928,-2.326 0.044,-0.062 z m 3.963,3.913 -0.313,0.031 -0.174,0.091 0.212,0.097 h 2.604 0.091 L 43.498,7.006 43.326,6.915 42.955,6.884 C 42.699,6.837 42.633,6.705 42.61,6.395 42.585,6.097 42.585,5.84 42.585,4.443 V 2.826 c 0,-1.182 0,-1.772 0.199,-1.933 0.161,-0.149 0.536,-0.204 1.265,-0.204 0.517,0 0.887,0.006 1.114,0.258 0.119,0.118 0.218,0.382 0.244,0.564 l 0.108,0.133 0.076,-0.203 C 45.591,1.329 45.538,0.649 45.455,0.372 45.388,0.168 45.351,0.126 44.856,0.126 l -4.182,0.021 -0.187,0.101 0.159,0.097 0.333,0.027 c 0.197,0.048 0.254,0.215 0.288,0.494 0.04,0.391 0.04,1.104 0.04,1.96 v 1.617 1.952 c -0.04,0.309 -0.112,0.401 -0.424,0.489 m 15.945,-4.93 0.127,0.2 0.114,-0.159 C 57.069,1.867 56.929,0.93 56.828,0.554 56.766,0.372 56.73,0.32 56.546,0.248 56.112,0.068 55.287,0 54.593,0 53.116,0 51.874,0.32 50.889,1.183 49.836,2.105 49.55,3.314 49.55,4.358 c 0,0.746 0.225,2.02 1.265,2.975 0.778,0.703 1.801,1.133 3.403,1.133 0.673,0 1.078,-0.035 1.582,-0.103 0.417,-0.056 0.756,-0.151 1.072,-0.18 L 57.031,8.059 56.953,6.287 56.828,6.041 56.709,6.277 c 0,0.335 -0.146,0.713 -0.409,0.988 -0.36,0.388 -1.21,0.672 -2.203,0.672 -0.932,0 -1.551,-0.23 -2.034,-0.672 -0.784,-0.713 -0.989,-1.749 -0.989,-2.785 0,-2.58 1.964,-3.856 3.408,-3.856 0.956,0 1.547,0.108 1.975,0.614 0.186,0.203 0.324,0.509 0.371,0.716 m 5.277,5.271 c 2.396,0 3.894,-1.325 3.894,-3.429 0,-2.111 -1.532,-3.771 -4.002,-3.771 -2.75,0 -3.877,1.97 -3.877,3.597 0,1.575 1.097,3.603 3.985,3.603 m 0.296,-6.702 c 0.664,0 2.185,0.316 2.185,2.94 0,2.028 -1.221,3.283 -2.763,3.283 -1.055,0 -2.294,-0.564 -2.294,-2.841 0,-1.887 1.08,-3.382 2.872,-3.382 m 15.515,3.835 c 1.258,-0.695 1.633,-1.399 1.633,-2.224 0,-0.681 -0.254,-1.237 -0.941,-1.723 -0.451,-0.332 -1.076,-0.386 -1.589,-0.386 -0.548,0 -1.133,0.054 -1.548,0.238 -0.146,0.064 -0.178,0.109 -0.178,0.32 0,0.494 0.036,1.069 0.051,1.22 l 0.125,0.242 0.078,-0.16 0.1,-0.469 c 0.209,-0.684 0.913,-0.909 1.523,-0.909 0.803,0 1.307,0.512 1.307,1.178 0,0.395 -0.091,0.786 -0.934,1.286 l -0.56,0.32 c -1.122,0.67 -1.489,1.274 -1.489,2.099 0,1.129 1.072,1.835 2.396,1.835 0.61,0 1.104,-0.076 1.35,-0.142 L 79.371,6.965 79.335,5.859 c 0,-0.201 -0.04,-0.292 -0.119,-0.292 l -0.093,0.164 c 0,0.085 -0.036,0.366 -0.256,0.599 -0.138,0.189 -0.435,0.432 -1.047,0.432 -0.682,0 -1.288,-0.359 -1.288,-0.98 0,-0.411 0.148,-0.733 1,-1.217 z m 7.561,-2.9 0.114,0.144 0.085,-0.225 c 0,-0.194 -0.083,-0.823 -0.134,-1.015 -0.065,-0.236 -0.152,-0.236 -0.5,-0.236 l -4.069,0.021 -0.172,0.101 0.148,0.097 0.343,0.027 c 0.189,0.048 0.236,0.215 0.276,0.494 0.04,0.391 0.04,1.104 0.04,1.96 v 1.617 c 0,1.397 0,1.654 -0.004,1.952 -0.028,0.309 -0.114,0.401 -0.413,0.489 l -0.377,0.031 -0.168,0.091 0.212,0.097 h 1.379 c 0.303,0 2.409,-0.012 2.598,0 l 0.392,0.034 0.146,0.024 0.07,-0.07 -0.14,-1.203 -0.102,-0.147 -0.074,0.118 -0.053,0.333 C 84.989,6.353 84.93,6.485 84.441,6.529 84.282,6.552 83.153,6.574 82.958,6.574 L 82.883,6.485 V 4.22 l 0.075,-0.104 c 0.212,0 1.438,0 1.644,0.027 0.239,0.021 0.383,0.041 0.472,0.139 L 85.214,4.393 85.29,4.302 85.178,3.018 85.08,2.818 84.989,2.886 84.96,3.219 C 84.909,3.405 84.78,3.546 84.432,3.581 84.256,3.585 83.176,3.622 82.945,3.622 L 82.883,3.529 V 2.781 c 0,-0.31 -0.006,-1.079 0,-1.356 0.013,-0.625 0.32,-0.772 1.278,-0.772 0.263,0 0.638,0.019 0.913,0.12 0.229,0.12 0.335,0.304 0.403,0.685 M 93.906,0.362 94.137,0.345 94.258,0.248 94.063,0.147 h -0.907 c -0.525,0 -0.79,0.054 -1.036,0.18 -0.4,0.219 -0.769,0.641 -1.288,1.358 -0.383,0.502 -0.786,1.114 -0.909,1.259 L 89.752,3.01 88.909,3.027 88.839,2.95 V 2.826 c 0,-0.864 0,-1.569 0.044,-1.96 0.043,-0.279 0.072,-0.446 0.365,-0.494 L 89.716,0.345 89.832,0.248 89.627,0.147 h -2.631 l -0.183,0.101 0.144,0.097 0.337,0.027 c 0.185,0.048 0.246,0.215 0.288,0.494 0.045,0.391 0.045,1.104 0.045,1.96 v 1.617 c 0,1.397 0,1.654 -0.019,1.952 -0.026,0.309 -0.119,0.401 -0.403,0.489 l -0.392,0.031 -0.159,0.091 0.219,0.097 h 2.771 c 0.61,0 1.313,-0.055 1.809,-0.398 0.267,-0.176 0.667,-0.643 0.667,-1.259 0,-0.683 -0.383,-1.282 -1.315,-2.031 0.849,-1.042 1.519,-1.873 2.086,-2.447 0.528,-0.534 0.865,-0.569 1.015,-0.606 m -4.279,3.12 c 0.39,0 0.515,0.031 0.686,0.14 0.284,0.217 0.606,0.61 0.606,1.377 0,1.288 -0.883,1.631 -1.438,1.631 -0.24,0 -0.473,-0.018 -0.555,-0.035 L 88.839,6.469 V 3.73 l 0.087,-0.164 c 0.19,-0.074 0.466,-0.084 0.701,-0.084 m 10.374,3.326 C 99.893,6.721 99.756,6.58 99.508,6.006 99.148,5.137 98.885,4.635 98.378,3.513 97.762,2.173 97.328,1.166 97.101,0.695 96.864,0.168 96.783,0.025 96.654,0.025 c -0.127,0 -0.214,0.122 -0.405,0.558 l -2.387,5.609 c -0.227,0.513 -0.354,0.604 -0.706,0.692 l -0.36,0.031 -0.116,0.091 0.243,0.097 c 0.509,0 1.04,-0.02 1.384,-0.02 0.239,0 0.733,0.02 1.201,0.02 L 95.741,7.006 95.593,6.915 95.218,6.857 95.122,6.663 c 0,-0.111 0.089,-0.368 0.225,-0.682 l 1.595,-4.129 h 0.047 c 0.394,0.966 1.614,3.914 1.851,4.526 l 0.072,0.327 -0.123,0.163 -0.375,0.047 -0.161,0.091 0.27,0.097 c 0.483,0 0.896,-0.02 1.019,-0.02 0.154,0 0.595,0.02 0.887,0.02 l 0.202,-0.097 -0.153,-0.091 -0.477,-0.107 m 6.345,-6.436 0.373,-0.027 0.119,-0.097 c 0,-0.08 -0.062,-0.101 -0.411,-0.101 h -1.816 l -0.288,0.101 0.115,0.097 0.093,0.209 -0.735,1.84 -0.108,0.062 h -2.221 l -0.101,-0.062 -0.502,-1.228 c -0.089,-0.229 -0.138,-0.451 -0.138,-0.562 0,-0.17 0.08,-0.259 0.366,-0.259 h 0.149 l 0.139,-0.097 -0.15,-0.101 h -2.167 l -0.165,0.101 0.108,0.097 0.275,0.013 c 0.434,0.062 0.604,0.337 0.794,0.808 l 2.49,5.782 c 0.101,0.259 0.171,0.366 0.277,0.366 0.134,0 0.185,-0.089 0.276,-0.281 0.228,-0.514 1.826,-4.273 2.427,-5.675 0.371,-0.835 0.632,-0.947 0.801,-0.986 m -2.856,2.599 0.041,0.056 -0.899,2.332 -0.042,0.087 -0.051,-0.087 -0.919,-2.326 0.034,-0.062 z m 8.441,4.16 0.254,0.03 0.078,-0.196 c 0,-0.178 -0.017,-0.868 -0.017,-1.106 l -0.086,-0.151 -0.115,0.18 -0.006,0.095 c -0.026,0.236 -0.28,0.536 -1.129,0.536 l -1.204,0.02 V 2.826 c 0,-0.856 0.007,-1.569 0.055,-1.978 0.041,-0.261 0.089,-0.428 0.375,-0.476 l 0.479,-0.027 0.157,-0.097 -0.191,-0.101 c -0.618,0 -1.258,0.035 -1.525,0.035 -0.214,0 -0.862,-0.035 -1.242,-0.035 l -0.188,0.101 0.152,0.097 0.335,0.027 c 0.193,0.048 0.25,0.215 0.295,0.494 0.025,0.391 0.025,1.104 0.025,1.96 v 3.713 l -1.413,-0.02 c -0.549,-0.025 -0.769,-0.081 -0.913,-0.3 l -0.17,-0.31 -0.101,-0.118 -0.077,0.155 0.197,1.11 0.106,0.169 c 0.072,0 0.185,-0.064 0.409,-0.094 0.291,-0.04 0.632,-0.048 0.939,-0.048 h 3.868 c 0.314,0 0.513,0.02 0.653,0.048 m 4.555,0.094 c 2.391,0 3.881,-1.325 3.881,-3.429 0,-2.111 -1.536,-3.771 -3.998,-3.771 -2.75,0 -3.887,1.97 -3.887,3.597 0,1.575 1.108,3.603 4.004,3.603 m 0.288,-6.702 c 0.671,0 2.18,0.316 2.18,2.94 0,2.028 -1.231,3.283 -2.754,3.283 -1.049,0 -2.31,-0.564 -2.31,-2.841 0,-1.887 1.102,-3.382 2.884,-3.382 m 11.317,-0.161 0.229,-0.017 0.114,-0.097 -0.174,-0.101 h -0.913 c -0.527,0 -0.794,0.054 -1.036,0.18 -0.411,0.219 -0.773,0.641 -1.303,1.358 -0.372,0.502 -0.781,1.114 -0.894,1.259 L 123.932,3.01 123.078,3.027 123.011,2.95 V 2.826 c 0,-0.864 0.019,-1.569 0.057,-1.96 0.021,-0.279 0.07,-0.446 0.366,-0.494 l 0.462,-0.027 0.13,-0.097 -0.208,-0.101 h -2.653 l -0.178,0.101 0.157,0.097 0.35,0.027 c 0.182,0.048 0.231,0.215 0.263,0.494 0.052,0.391 0.052,1.104 0.052,1.96 v 1.617 c 0,1.397 0,1.654 -0.021,1.952 -0.025,0.309 -0.101,0.401 -0.415,0.489 l -0.377,0.031 -0.153,0.091 0.214,0.097 h 2.78 c 0.6,0 1.296,-0.055 1.803,-0.398 0.269,-0.176 0.671,-0.643 0.671,-1.259 0,-0.683 -0.389,-1.282 -1.334,-2.031 0.847,-1.042 1.523,-1.873 2.093,-2.447 0.54,-0.534 0.871,-0.569 1.021,-0.606 m -4.273,3.12 c 0.392,0 0.504,0.031 0.674,0.14 0.292,0.217 0.622,0.61 0.622,1.377 0,1.288 -0.887,1.631 -1.466,1.631 -0.22,0 -0.455,-0.018 -0.559,-0.035 L 123.011,6.469 V 3.73 l 0.078,-0.164 c 0.206,-0.074 0.504,-0.084 0.729,-0.084 m 10.362,3.621 0.169,-0.07 -0.176,-0.118 -0.411,-0.107 C 133.555,6.705 133.461,6.63 133.267,6.378 132.951,6.01 131.593,3.831 131.421,3.436 131.275,3.101 131.294,2.826 131.294,2.514 V 1.778 c 0,-0.143 0,-0.521 0.026,-0.912 0.012,-0.279 0.112,-0.446 0.389,-0.494 l 0.479,-0.027 0.165,-0.097 -0.209,-0.101 h -2.723 l -0.214,0.101 0.151,0.097 0.341,0.027 c 0.191,0.048 0.282,0.215 0.301,0.494 0.021,0.391 0.021,0.769 0.021,0.912 v 0.763 c 0,0.492 -0.076,0.692 -0.21,0.951 -0.068,0.149 -1.364,2.166 -1.701,2.659 -0.233,0.334 -0.426,0.553 -0.619,0.645 l -0.402,0.119 -0.138,0.091 0.197,0.097 h 2.252 l 0.159,-0.097 -0.233,-0.107 -0.127,-0.145 0.116,-0.308 c 0.183,-0.287 1.424,-2.441 1.585,-2.7 0.115,0.215 1.276,2.194 1.413,2.473 0.096,0.196 0.144,0.361 0.144,0.485 l -0.207,0.207 -0.176,0.095 0.165,0.097 h 1.9 0.011 z M -0.574,-4.257 c 2.682,0 4.366,-1.558 4.366,-4.037 0,-2.467 -1.731,-4.435 -4.481,-4.435 -3.101,0 -4.353,2.33 -4.353,4.249 0,1.842 1.231,4.223 4.468,4.223 m 0.337,-7.93 c 0.756,0 2.517,0.368 2.517,3.498 0,2.421 -1.397,3.922 -3.166,3.922 -1.245,0 -2.66,-0.691 -2.66,-3.397 0,-2.235 1.245,-4.023 3.309,-4.023 m 9.459,6.607 0.182,0.062 0.032,-0.099 V -5.621 L 9.319,-6.787 9.222,-6.973 9.11,-6.822 9.05,-6.477 C 8.985,-6.343 8.798,-6.212 8.447,-6.186 L 6.873,-6.169 6.786,-6.291 v -2.231 l 0.063,-0.093 1.322,0.017 0.441,0.01 0.392,0.166 0.133,0.103 0.057,-0.095 c 0,-0.05 -0.057,-0.3 -0.084,-0.604 L 9.08,-9.679 8.974,-9.888 8.894,-9.752 8.824,-9.469 C 8.777,-9.349 8.663,-9.16 8.375,-9.132 8.133,-9.119 7.002,-9.111 6.849,-9.111 L 6.786,-9.185 V -9.94 c 0,-0.887 0,-1.536 0.051,-1.927 0.036,-0.258 0.097,-0.424 0.372,-0.477 l 0.469,-0.037 0.173,-0.093 -0.224,-0.106 -0.407,0.01 H 5.084 l -0.182,-0.01 -0.197,0.106 0.146,0.093 0.342,0.037 c 0.186,0.053 0.239,0.219 0.26,0.477 0.059,0.391 0.059,1.075 0.059,1.964 v 1.615 c 0,1.396 0,1.66 -0.025,1.952 -0.021,0.306 -0.108,0.421 -0.396,0.494 l -0.386,0.031 -0.154,0.101 0.216,0.089 h 1.368 c 0.373,0 2.477,-0.014 2.699,0 l 0.388,0.041 m 14.573,-6.696 c 0.322,-0.095 0.541,-0.105 0.674,-0.105 l 0.163,-0.079 -0.267,-0.12 h -2.199 c -0.243,0 -0.322,0.106 -0.322,0.17 l 0.134,0.134 c 0.061,0.027 0.093,0.167 0.048,0.467 l -0.65,4.763 H 21.34 l -2.356,-4.91 c -0.243,-0.512 -0.305,-0.614 -0.402,-0.614 -0.104,0 -0.2,0.226 -0.384,0.542 -0.258,0.504 -1.112,2.158 -1.241,2.46 -0.098,0.219 -0.742,1.58 -1.121,2.396 h -0.049 l -0.555,-4.304 c -0.021,-0.198 -0.034,-0.333 -0.034,-0.498 0,-0.213 0.144,-0.304 0.316,-0.345 0.199,-0.052 0.36,-0.062 0.468,-0.062 l 0.155,-0.079 -0.263,-0.12 h -2.205 l -0.182,0.12 0.165,0.079 0.32,0.037 c 0.296,0.066 0.396,0.477 0.447,0.847 l 1.074,7.056 c 0.021,0.184 0.089,0.282 0.176,0.282 0.076,0 0.167,-0.062 0.298,-0.333 l 2.939,-6.099 2.938,6.167 0.246,0.265 c 0.1,0 0.161,-0.114 0.199,-0.333 l 0.981,-6.688 c 0.091,-0.687 0.203,-0.997 0.525,-1.096 m 11.496,3.907 c 1.254,-0.69 1.644,-1.393 1.644,-2.222 0,-0.693 -0.257,-1.236 -0.941,-1.724 -0.46,-0.325 -1.091,-0.381 -1.591,-0.381 -0.555,0 -1.148,0.056 -1.545,0.236 -0.158,0.072 -0.19,0.116 -0.19,0.325 0,0.49 0.044,1.068 0.057,1.217 l 0.117,0.236 0.095,-0.155 0.072,-0.476 c 0.208,-0.676 0.932,-0.907 1.529,-0.907 0.816,0 1.32,0.525 1.32,1.176 0,0.387 -0.103,0.794 -0.949,1.292 l -0.54,0.325 c -1.129,0.653 -1.494,1.263 -1.494,2.096 0,1.114 1.077,1.842 2.39,1.842 0.625,0 1.106,-0.091 1.352,-0.149 l 0.131,-0.13 -0.032,-0.951 v -0.153 -0.016 -0.065 l -0.006,0.019 -0.114,-0.231 -0.094,0.167 c 0,0.085 -0.042,0.37 -0.245,0.614 -0.144,0.167 -0.454,0.426 -1.06,0.426 -0.688,0 -1.3,-0.352 -1.3,-0.976 0,-0.42 0.158,-0.75 1.006,-1.23 z m 5.129,-3.975 0.478,-0.037 0.163,-0.093 -0.188,-0.106 h -2.784 l -0.178,0.106 0.136,0.093 0.343,0.037 c 0.195,0.053 0.252,0.167 0.282,0.446 0.036,0.374 0.036,1.106 0.036,1.995 v 1.615 1.952 c -0.03,0.306 -0.123,0.421 -0.327,0.487 l -0.351,0.038 -0.146,0.113 0.226,0.077 h 2.498 l 0.182,-0.077 -0.133,-0.113 -0.284,-0.031 c -0.256,-0.04 -0.328,-0.172 -0.358,-0.494 -0.03,-0.292 -0.03,-0.556 -0.03,-1.952 v -1.615 c 0,-0.889 0,-1.621 0.06,-2.015 0.027,-0.242 0.084,-0.373 0.375,-0.426 m 7.376,1.335 0.11,0.172 0.117,-0.161 c 0,-0.104 -0.117,-0.9 -0.22,-1.222 l -0.236,-0.267 c -0.379,-0.153 -1.105,-0.209 -1.718,-0.209 -1.303,0 -2.406,0.277 -3.264,1.001 -0.947,0.784 -1.206,1.825 -1.206,2.714 0,0.627 0.223,1.704 1.132,2.512 0.692,0.604 1.595,0.98 3.012,0.98 0.595,0 0.947,-0.045 1.392,-0.099 0.341,-0.05 0.663,-0.122 0.938,-0.151 l 0.14,-0.11 -0.08,-1.505 -0.117,-0.221 -0.101,0.192 c -0.011,0.292 -0.128,0.612 -0.373,0.854 -0.318,0.312 -0.968,0.53 -1.833,0.53 -0.828,0 -1.358,-0.143 -1.803,-0.513 -0.692,-0.602 -0.866,-1.491 -0.866,-2.388 0,-2.183 1.688,-3.219 2.97,-3.219 0.839,0 1.303,0.06 1.682,0.474 0.153,0.188 0.28,0.452 0.324,0.636 m -15.933,5.388 0.19,-0.089 -0.165,-0.101 -0.277,-0.031 C 31.35,-5.882 31.289,-6.014 31.27,-6.336 31.248,-6.628 31.244,-6.892 31.244,-8.288 v -0.98 c 0,-1.019 -0.106,-2.109 -0.904,-2.774 -0.672,-0.556 -1.401,-0.654 -2.017,-0.654 -0.488,0 -1.471,0.021 -2.17,0.629 -0.498,0.422 -0.864,1.11 -0.864,2.427 v 1.352 c 0,1.396 0.015,1.66 -0.006,1.952 -0.03,0.322 -0.115,0.411 -0.409,0.494 l -0.382,0.031 -0.156,0.101 0.201,0.089 h 2.65 l 0.21,-0.089 -0.155,-0.101 -0.273,-0.031 c -0.25,-0.04 -0.32,-0.172 -0.35,-0.494 -0.025,-0.292 -0.025,-0.556 -0.025,-1.952 v -1.28 c 0,-1.343 0.261,-1.862 0.729,-2.228 0.421,-0.329 0.875,-0.364 1.199,-0.364 0.404,0 0.9,0.118 1.277,0.486 0.534,0.494 0.551,1.29 0.551,2.241 v 1.145 c 0,1.396 -0.01,1.66 -0.017,1.952 -0.038,0.306 -0.108,0.411 -0.415,0.494 l -0.337,0.031 -0.159,0.101 0.189,0.089 z M 74.185,7.103 74.39,7.006 74.233,6.915 73.939,6.884 C 73.691,6.808 73.611,6.645 73.592,6.128 L 73.577,4.617 V 0.3 L 73.378,0.075 73.327,0.052 H 73.31 l -0.362,0.18 C 72.357,0.79 71.157,1.919 70.157,2.886 69.198,3.814 68.28,4.825 68.018,5.096 V 1.41 c 0.025,-0.721 0.14,-0.939 0.334,-0.999 L 68.84,0.345 69.001,0.248 68.785,0.147 h -2.259 l -0.216,0.101 0.151,0.097 0.44,0.04 c 0.182,0.045 0.233,0.206 0.265,0.622 v 5.999 c 0,0.116 0.038,0.259 0.265,0.259 l 0.413,-0.3 c 0.125,-0.128 1.549,-1.575 2.93,-2.942 0.585,-0.577 1.652,-1.664 1.953,-1.954 v 4.45 C 72.679,6.705 72.594,6.808 72.45,6.868 l -0.496,0.047 -0.153,0.091 0.244,0.097 z" /></g></g></g></g></svg>