<svg height="316.227766" viewBox="0 0 252 252" width="316.227766" xmlns="http://www.w3.org/2000/svg"><g fill="#203e6e"><path d="m97.8125 74.722656c-4.308594-1.332031-8.484375-2.960937-12.519531-4.863281-7.976563 5.765625-14.753907 13.234375-19.730469 22.074219 6.273438 3.507812 12.878906 6.484375 19.742188 8.867187 2.65625-9.472656 6.925781-18.273437 12.507812-26.078125zm0 0"/><path d="m153.472656 73.921875c4.210938-1.285156 8.308594-2.851563 12.246094-4.691406-6.136719-4.296875-13.074219-7.695313-20.679688-9.867188-2.371093-.679687-4.753906-1.222656-7.136718-1.640625 5.878906 4.679688 11.125 10.125 15.570312 16.199219zm0 0"/><path d="m99.367188 74.203125c8.296874 2.433594 17.050781 3.765625 26.113281 3.804687l-.035157-21.324218c-3.210937.027344-6.382812.273437-9.507812.730468-6.285156 4.789063-11.878906 10.433594-16.570312 16.789063zm0 0"/><path d="m152.507812 74.203125c-4.691406-6.355469-10.285156-12-16.570312-16.789063-3.195312-.46875-6.394531-.71875-9.554688-.742187l.035157 21.324219c9.050781-.039063 17.804687-1.359375 26.089843-3.792969zm0 0"/><path d="m97.625 161.289062-.492188-1.347656c-.050781-.109375-.050781-.097656-.109374-.246094l-1.136719-2.554687c-.085938-.199219-.160157-.324219-.261719-.507813l-.75-1.46875c-.605469-1.027343-1.136719-2.074218-1.753906-3.085937l-.953125-1.644531c-.085938-.160156-.183594-.308594-.28125-.492188l-.753907-1.46875c-.085937-.199218-.171874-.347656-.246093-.53125l-.667969-1.542968c-.765625-1.804688-1.308594-3.71875-1.765625-5.605469-.035156-.160157-.0625-.308594-.085937-.457031-1.222657-.296876-2.445313-.582032-3.65625-.902344 2.324218 11.753906 7.125 22.621094 13.855468 32.027344.074219-2.023438.28125-4.050782.074219-6.074219-.136719-1.382813-.53125-2.765625-1.015625-4.097657zm0 0"/><path d="m113.972656 57.710938c-10.035156 1.765624-19.53125 5.726562-27.804687 11.519531 3.941406 1.824219 8.027343 3.394531 12.238281 4.679687 4.441406-6.0625 9.691406-11.519531 15.566406-16.199218zm0 0"/><path d="m153.101562 75.019531c-8.46875 2.507813-17.421874 3.890625-26.683593 3.925781l.050781 28.683594c13.691406-.0625 26.878906-2.347656 39.191406-6.507812-2.644531-9.496094-6.941406-18.296875-12.558594-26.101563zm0 0"/><path d="m86.207031 101.109375c2.765625.9375 5.578125 1.765625 8.433594 2.503906 4.640625-7.8125 10.445313-14.988281 18.53125-19.875.851563-.484375 2.433594-1.308593 3.492187-.964843 1.691407.554687 4.296876-.457032 5.632813.542968l.0625.050782c.011719.011718.023437.011718.023437.023437.011719.011719.023438.011719.023438.023437.433594.398438.71875 1.027344.789062 1.632813.015626.121094.015626.578125 0 .703125-.011718.136719-.011718.074219-.035156.160156v.011719c.011719-.023437-.050781.148437 0 0 0 0-.011718.023437-.023437.0625-.199219.457031-.542969.753906-1.027344.949219l-.542969.1875c-.160156.046875-.394531.121094-.554687.171875-1.800781.554687-3.394531.949219-5.296875 1.566406l-1.125.410156c-.898438.34375-1.726563.765625-2.566406 1.207031-4.816407 3.074219-9.519532 9.261719-12.113282 14.101563l-.136718.273437c8.3125 1.789063 16.917968 2.765626 25.757812 2.789063l-.050781-28.683594c-9.273438-.046875-18.234375-1.417969-26.707031-3.9375-5.617188 7.792969-9.914063 16.59375-12.566407 26.089844zm0 0"/><path d="m169.644531 123.382812c0 5.039063-.441406 9.964844-1.292969 14.765626 9.320313-2.554688 18.308594-5.9375 26.878907-10.0625.394531-12.507813-2.644531-24.65625-8.460938-35.300782-6.332031 3.53125-13.011719 6.546875-19.964843 8.941406 1.855468 6.914063 2.839843 14.171876 2.839843 21.65625zm0 0"/><path d="m135.496094 144.804688c4.035156 4.53125 7.109375 9.878906 10.492187 14.867187l1.234375 1.765625c.679688.898438 1.484375 1.800781 2.433594 2.441406.085938.0625.125.085938.210938.148438.382812.273437.753906.507812 1.171874.703125.136719.0625.136719.074219.246094.125l1.0625.457031c1.308594.445312 2.828125.742188 4.410156.863281 4.898438-8.109375 8.46875-17.125 10.355469-26.71875-10.269531 2.71875-20.949219 4.421875-31.914062 5.050781.109375.097657.210937.199219.296875.296876zm0 0"/><path d="m165.90625 102.035156c-12.398438 4.183594-25.65625 6.480469-39.4375 6.542969l.050781 30.324219c1.0625.359375 1.988281.816406 2.988281 1.320312 1.703126 1.0625 3.34375 2.085938 4.789063 3.382813 11.359375-.589844 22.410156-2.34375 33.039063-5.171875.902343-4.878906 1.371093-9.902344 1.371093-15.039063-.011719-7.382812-.972656-14.542969-2.800781-21.359375zm0 0"/><path d="m82.21875 123.382812c0-7.496093.988281-14.753906 2.839844-21.667968-6.953125-2.410156-13.621094-5.410156-19.953125-8.953125-2.394531 4.394531-4.359375 9.101562-5.804688 14.113281-2.023437 7.074219-2.875 14.210938-2.664062 21.1875 8.566406 4.125 17.554687 7.507812 26.878906 10.074219-.851563-4.789063-1.296875-9.714844-1.296875-14.753907zm0 0"/><path d="m166.558594 100.8125c6.878906-2.382812 13.484375-5.359375 19.742187-8.851562-4.851562-8.605469-11.53125-16.1875-19.691406-22.101563-4.039063 1.902344-8.234375 3.542969-12.558594 4.875 5.582031 7.804687 9.855469 16.609375 12.507813 26.078125zm0 0"/><path d="m90.207031 113.839844c.480469-1.472656.9375-2.953125 1.554688-4.382813l2.382812-5.003906c-2.765625-.726563-5.492187-1.53125-8.171875-2.429687-1.816406 6.8125-2.792968 13.976562-2.792968 21.359374 0 5.136719.46875 10.148438 1.371093 15.027344 1.210938.320313 2.433594.617188 3.65625.914063-1.570312-8.742188-.804687-16.867188 2-25.484375zm0 0"/><path d="m99.144531 106.070312c-.480469 1.027344-.914062 2.101563-1.320312 3.136719-.359375.902344-.628907 1.804688-.914063 2.71875l-.171875.589844c-1.640625 6.582031-1.742187 11.496094-.691406 18.066406 1.679687 6.097657 3.640625 8.394531 10.421875 7.59375 2.800781-.335937 6.355469-.691406 9.183594-.765625l1.394531-.050781c2.101563-.039063 3.691406.183594 5.707031.480469.972656.199218 1.886719.46875 2.8125.753906l-.046875-30.027344c-8.988281-.023437-17.742187-1.023437-26.1875-2.863281zm0 0"/><path d="m115.726562 186.117188v-2.753907c-2.925781-.726562-6.183593-1.40625-9.605468-1.949219v2.8125c3.59375.507813 6.804687 1.1875 9.605468 1.890626zm0 0"/><path d="m159.375 183.253906v-3.074218c-3.890625.058593-7.839844.417968-11.644531.960937v2.839844c3.554687-.445313 7.457031-.726563 11.644531-.726563zm0 0"/><path d="m145.988281 184.226562v-2.8125c-3.417969.542969-6.664062 1.222657-9.605469 1.949219v2.753907c2.804688-.703126 6.027344-1.382813 9.605469-1.890626zm0 0"/><path d="m177.957031 184.820312 1.355469-1.257812c-1.355469-1.101562-5.269531-2.125-7.9375-2.617188-3.320312-.617187-6.878906-.753906-10.261719-.78125v3.101563c5.570313.171875 10.285157 1 15.1875 2.988281zm0 0"/><path d="m126.828125 186.449219v2.335937c0 .097656.109375.171875.210937.132813.429688-.144531 1.085938-.382813 1.863282-.628907 1.578125-.515624 3.519531-1.121093 5.765625-1.726562v-2.753906c-3.113281.839844-5.777344 1.714844-7.742188 2.507812-.074219.023438-.097656.070313-.097656.132813zm0 0"/><path d="m125.199219 186.316406c-1.976563-.804687-4.632813-1.679687-7.742188-2.507812v2.753906c2.257813.605469 4.195313 1.210938 5.765625 1.726562.777344.261719 1.417969.484376 1.863282.628907.097656.039062.210937-.035157.210937-.132813v-2.335937c0-.0625-.039063-.109375-.097656-.132813zm0 0"/><path d="m126.023438 196.464844h.074218c.039063 0 .074219 0 .113282-.011719.195312-.015625.394531-.050781.578124-.113281 3.015626-.851563 5.71875-1.765625 7.632813-2.246094 14.617187-3.644531 20.160156-3.914062 34.507813-2.308594 1.816406-1.199218 3.507812-2.359375 5.160156-3.742187-1.28125-.765625-4.308594-1.394531-5.902344-1.679688-1.527344-.269531-3.332031-.53125-5.246094-.691406-2.34375-.195313-11.953125-.789063-23.0625 1.457031-3.433594.691406-6.890625 1.644532-10.496094 2.914063-.433593.148437-2.320312.789062-3.308593 1.171875h-.023438c-.988281-.367188-2.878906-1.023438-3.308593-1.171875-3.605469-1.269531-7.078126-2.222657-10.496094-2.914063-11.113282-2.234375-20.71875-1.652344-23.066406-1.457031-1.910157.160156-3.714844.421875-5.246094.691406-1.59375.285157-4.617188.925781-5.902344 1.679688 1.65625 1.382812 3.359375 2.542969 5.160156 3.742187 14.347656-1.617187 19.894532-1.335937 34.511719 2.308594 1.914063.480469 4.617187 1.394531 7.628906 2.246094.199219.050781.382813.085937.582031.113281.035157.011719.074219.011719.109376.011719zm0 0"/><path d="m74.167969 184.820312 1.667969 1.445313c4.898437-2 9.617187-2.816406 15.183593-2.988281v-3.097656c-3.382812.023437-6.9375.160156-10.257812.777343-2.667969.492188-6.582031 1.519531-7.941407 2.617188zm0 0"/><path d="m104.394531 183.992188v-2.839844c-3.804687-.542969-7.769531-.898438-11.65625-.960938v3.074219c4.183594-.011719 8.085938.269531 11.65625.726563zm0 0"/><path d="m67.671875 175.671875c-.417969.125-.925781.269531-1.109375.679687-.113281.257813-.050781.578126.257812.960938 1.160157 1.410156 2.421876 2.792969 3.792969 4.125 15.035157-6.914062 37.65625-4.023438 52.953125 1.617188 1.1875.433593 1.707032.53125 2.347656.542968h.285157c.640625-.023437 1.160156-.109375 2.34375-.542968 15.296875-5.640626 37.917969-8.53125 52.957031-1.617188 1.359375-1.332031 2.628906-2.703125 3.789062-4.125.296876-.382812.371094-.691406.261719-.960938-.1875-.410156-.691406-.554687-1.113281-.679687-1.828125-.519531-3.582031-.976563-5.273438-1.371094 11.609376-12.765625 18.695313-29.707031 18.695313-48.3125 0-36.558593-27.3125-66.722656-62.636719-71.242187-.148437-.023438-.296875-.035156-.445312-.0625-.925782-.109375-1.839844-.210938-2.777344-.28125-.394531-.039063-.789062-.0625-1.183594-.089844-.703125-.046875-1.421875-.085938-2.125-.109375-.582031-.023437-1.160156-.039063-1.742187-.050781-.320313 0-.628907-.023438-.9375-.023438-.269531 0-.542969.011719-.800781.023438-.644532.011718-1.285157.027344-1.914063.050781-.582031.023437-1.160156.050781-1.742187.085937-.566407.039063-1.136719.085938-1.703126.125-.679687.058594-1.347656.121094-2.023437.195313-.421875.050781-.828125.101563-1.25.160156-.824219.113281-1.640625.222657-2.46875.359375-.222656.035156-.445313.074219-.667969.125-1 .171875-1.984375.367188-2.972656.578125-.027344 0-.039062.011719-.0625.011719-7.964844 1.765625-15.433594 4.839844-22.164062 9.015625-.234376.148437-.457032.296875-.691407.441406-.679687.433594-1.355469.867188-2.023437 1.324219-.640625.441406-1.285156.898438-1.914063 1.355469-.234375.175781-.46875.335937-.703125.507812-12.164062 9.074219-21.570312 22.027344-26.066406 37.695313-6.902344 24.050781-.789062 49.769531 15.917969 68.15625-1.632813.394531-3.324219.824218-5.089844 1.332031zm-12.011719-49.683594c0-38.78125 31.558594-70.339843 70.339844-70.339843s70.339844 31.558593 70.339844 70.339843c0 18.507813-7.199219 35.347657-18.925782 47.917969-.398437-.085938-.804687-.171875-1.199218-.246094 7.433594-7.828125 13.148437-17.496094 16.335937-28.585937 1.519531-5.296875 2.355469-10.628907 2.605469-15.914063-8.621094 4.113282-17.644531 7.484375-27.015625 10.027344-1.851563 9.714844-5.394531 18.828125-10.296875 27.050781 2.617188.0625 5.269531-.40625 7.183594-1.628906 3.890625-2.480469 4.1875-7.027344 2.496094-10.867187-.65625-1.492188-1.765626-2.898438-1.765626-2.886719 10.554688 8.960937 4 19.023437-7.199218 21.308593-.554688.113282-1.125.222657-1.703125.285157-1.679688.171875-2.285157.183593-4.148438.171875-.394531 0-1.027343-.035156-1.421875-.0625-3.492187-.246094-6.839844-1.058594-9.914062-2.863282l-.902344-.519531c-.121094-.074219-.195312-.097656-.308594-.160156l-.589844-.34375c-.199218-.125-.371093-.234375-.582031-.359375-2.457031-1.53125-3.148437-2.714844-3.171875.160156 0 .667969.210938 1.246094.457032 1.839844l.714843 1.59375c.40625.851562.839844 1.679688 1.113281 2.578125.046876.175781.046876.175781.085938.371094.011719.039062.011719.074219.023438.113281-2.148438.480469-4.285157 1.035156-6.40625 1.664062-.617188.027344-1.347657.0625-1.667969-.441406-.222657-.347656-.542969-2.148437-.667969-2.542968-.222656-.691407-.417969-1.398438-.703125-2.0625l-.050781-.113282c-.011719-.011718-.023438-.0625-.023438-.074218-.035156-.085938-.011718-.035157-.0625-.132813-.0625-.125-.085937-.199219-.148437-.324219-.074219-.148437-.222657-.441406-.320313-.605468l-.542968-.851563c-.417969-.652344-.914063-1.246094-1.40625-1.851563-.085938-.097656-.125-.160156-.210938-.257812l-1.53125-1.742188c-.148438-.183593-.308594-.285156-.46875-.46875-.183594-.199218-.257812-.296874-.457031-.480468-.800781-.765625-2.171875-1.878906-3.246094-2.382813.046875.160157.457031.417969.605469.542969.097656.074219.109375.074219.207031.148438.148437.121093.261719.246093.410156.371093.824219.691407 1.53125 1.480469 2.257813 2.246094.097656.109375.234375.269531.332031.394531.089844.109375.089844.136719.1875.234375 1.234375 1.308594 3.308594 4.628907 3.742187 6.308594l.144532.617187c.101562.484376.296875 1.496094-.097656 1.816407-.445313.371093-2 .222656-2.8125.222656-.867188 0-2.3125.085937-3.101563 0-.703125-.074219-1.417969-.828125-1.222656-1.753906.027343-.097657.160156-.667969.199219-.863281.429687-2.851563.257812-8.210938-1.691407-9.855469-1.125-.9375-2.394531.445312-2.914062 1.308593l-.382813.707032c-.347656.738281-.542968 1.46875-.714844 2.257812-.421874 1.902344-.222656 6.085938-.421874 8.210938-2.492188-.59375-5-1.085938-7.53125-1.492188.148437-2.753906.566406-4.679687-.914063-7.78125-.46875-.875-1.605469-2.136718-2.371094-2.851562l-1.40625-1.246094c-.011719-.011719-.023437-.011719-.023437-.027344l-2.0625-1.640625c-.25-.195312-.816406-.691406-1.074219-.753906l1.914063 1.878906c.074218.074219.109374.109375.183593.183594l.777344.777344c.011719.011719.011719.027343.023437.027343l.074219.085938c.015625.011719.015625.023438.027344.023438.480469.542968 1.011719 1.023437 1.480469 1.582031.457031.542969.964844 1.058593 1.320312 1.679687.394532.675782.617188 1.308594.851563 2.121094.308593 1.113281.433593 3.988281.25 5.777344-2.296875-.34375-4.621094-.628906-6.964844-.824219-.457031-.039063-.902344-.074219-1.347656-.101563-7.109375-9.777343-12.171875-21.136718-14.53125-33.445312-9.371094-2.542969-18.410157-5.925781-27.039063-10.039062.765625 16.765624 7.640625 32.582031 19 44.574218-.355468.070313-.714844.144532-1.074218.21875-11.714844-12.578125-18.925782-29.433594-18.925782-47.953125zm0 0"/><path d="m111.554688 230.8125c-.753907.828125-1.679688 1.519531-2.765626 2.0625l-.1875.085938-.269531 2.050781.617188-.273438c.59375-.257812 1.136719-.53125 1.605469-.828125l-1.074219 8.089844 2 .257812 1.519531-11.421874-1.324219-.171876zm0 0"/><path d="m123.445312 232.664062c-.359374-.382812-.765624-.679687-1.210937-.886718-.457031-.210938-.902344-.324219-1.347656-.335938-.429688-.023437-.925781.050782-1.480469.199219-.566406.160156-1.074219.457031-1.480469.886719-.40625.421875-.730469.964844-.9375 1.605468-.210937.65625-.261719 1.394532-.136719 2.199219.121094.863281.566407 1.566407 1.320313 2.097657.582031.410156 1.296875.617187 2.136719.628906-.582032 1.0625-1.285156 2.222656-2.097656 3.460937l-.371094.554688 2.257812.097656.125-.183594c1.753906-2.667969 2.863282-4.457031 3.332032-5.324219.496093-.914062.742187-1.664062.765624-2.28125.023438-.605468-.011718-1.113281-.136718-1.507812-.132813-.40625-.382813-.816406-.738282-1.210938zm-1.457031 3.421876c-.246093.429687-.484375.738281-.71875.898437-.21875.148437-.53125.238281-.910156.261719-.371094.011718-.667969-.125-.976563-.421875-.308593-.308594-.480468-.675781-.507812-1.121094-.035156-.46875.0625-.925781.285156-1.347656.210938-.40625.457032-.652344.777344-.777344.285156-.097656.480469-.136719.640625-.136719.074219 0 .136719.011719.1875.011719.332031.015625.617187.148437.902344.398437.269531.246094.429687.542969.480469.886719.046874.371094-.011719.851563-.160157 1.347657zm0 0"/><path d="m133.199219 236.53125c-.285157-.457031-.730469-.804688-1.308594-1.050781-.914063-.371094-1.867187-.480469-2.914063-.136719.109376-.480469.207032-1.050781.308594-1.691406l4.0625-.160156-.074218-1.890626-5.632813.222657-.046875.308593c-.71875 4.148438-.925781 5.210938-.964844 5.382813l-.136718.445313 1.753906.136718.125-.183594c.269531-.398437.605468-.65625 1.035156-.765624.445312-.125.851562-.148438 1.210938-.050782.347656.085938.617187.269532.851562.578125.234375.308594.371094.679688.410156 1.148438.035156.484375-.027344.925781-.175781 1.308593-.148437.371094-.394531.679688-.753906.914063-.34375.234375-.824219.308594-1.441407.222656-.542968-.074219-.976562-.589843-1.261718-1.542969l-.109375-.371093-1.828125.582031.085937.34375c.273438 1.089844.742188 1.855469 1.394531 2.296875.644532.433594 1.324219.667969 2.015626.679687h.160156c.617187 0 1.171875-.109374 1.652344-.320312.519531-.222656.953124-.519531 1.308593-.875.359375-.371094.628907-.828125.804688-1.371094.160156-.519531.234375-1.027344.246093-1.53125 0-.496094-.0625-.964844-.199218-1.382812-.121094-.410156-.320313-.839844-.578125-1.246094zm0 0"/><path d="m143.605469 236.046875c-.332031-.519531-.886719-.9375-1.664063-1.246094-.59375-.246093-1.296875-.273437-2.113281-.074219l2.011719-4.257812-2.320313.292969-2.136719 4.496093c-.296874.679688-.515624 1.246094-.652343 1.703126-.148438.480468-.199219 1.050781-.160157 1.691406.035157.65625.222657 1.320312.554688 1.976562.34375.691406.886719 1.195313 1.617188 1.507813.46875.195312.988281.292969 1.542968.292969.296875 0 .59375-.023438.914063-.085938.925781-.160156 1.640625-.53125 2.125-1.085938.457031-.542968.765625-1.136718.886719-1.753906.125-.605468.148437-1.207031.050781-1.8125-.125-.605468-.335938-1.148437-.65625-1.644531zm-1.753907 3.816406c-.28125.40625-.675781.628907-1.183593.652344-.53125.027344-.964844-.085937-1.308594-.382813-.359375-.292968-.582031-.675781-.679687-1.183593-.097657-.53125-.0625-1.023438.136718-1.542969.171875-.457031.507813-.742188 1.023438-.875.210937-.050781.410156-.089844.605468-.089844.320313 0 .617188.074219.914063.210938.433594.210937.691406.667968.789063 1.40625.101562.765625 0 1.371094-.296876 1.804687zm0 0"/><path d="m29.164062 133.0625c.074219 1.125.40625 1.988281 1.011719 2.617188.59375.628906 1.359375.914062 2.273438.851562.171875-.011719.382812-.035156.617187-.074219l.222656-1.195312c-.410156.085937-.707031.132812-.914062.148437-.65625.046875-1.210938-.101562-1.667969-.433594-.457031-.332031-.703125-.777343-.742187-1.320312-.085938-1.324219 1.136718-2.074219 3.679687-2.25 2.964844-.195312 4.484375.285156 4.570313 1.472656.074218 1.121094-.582032 1.726563-1.976563 1.8125-.148437.011719-.371093.011719-.640625.027344l.617188 1.132812c1.960937-.132812 2.875-1.222656 2.738281-3.269531-.085937-1.308593-.628906-2.347656-1.617187-3.101562-.988282-.75-2.222657-1.074219-3.726563-.972657-3.148437.246094-4.632813 1.75-4.445313 4.554688zm0 0"/><path d="m31.3125 147.148438 9.320312-1.691407-.480468-2.703125-3.753906.679688-.40625-2.210938 3.753906-.679687-.484375-2.703125-9.332031 1.691406.492187 2.703125 4.644531-.835937.394532 2.207031-4.644532.839843zm0 0"/><path d="m34.941406 156.632812-1.125-3.816406 3.605469-1.0625.804687 2.742188.914063-.269532-.804687-2.730468 2.753906-.816406.953125 3.261718.910156-.257812-1.726563-5.902344-9.085937 2.664062 1.886719 6.445313zm0 0"/><path d="m37.511719 165.769531 8.777343-3.582031-.347656-.851562-6 2.445312 4.371094-6.445312-.652344-1.617188-8.78125 3.582031.347656.851563 5.554688-2.261719-4.0625 5.929687zm0 0"/><path d="m42.558594 175.511719 4.507812-2.433594-1.851562-3.433594-.839844.457031.652344 1.199219-2.046875 1.109375c-.667969.359375-1.160157.25-1.484375-.355468-.269532-.507813-.21875-.988282.164062-1.421876.382813-.441406 1.234375-1.011718 2.554688-1.738281 1.417968-.765625 2.457031-1.1875 3.097656-1.234375.644531-.0625 1.125.21875 1.457031.824219.445313.828125.210938 1.558594-.738281 2.160156l-.445312.261719-.199219.109375 1.136719.851563c1.394531-1.183594 1.667968-2.542969.839843-4.085938-.628906-1.171875-1.542969-1.902344-2.742187-2.183594-1.195313-.285156-2.457032-.074218-3.765625.628906-1.34375.726563-2.195313 1.628907-2.566407 2.714844-.371093 1.085938-.222656 2.234375.441407 3.46875.410156.753906 1.027343 1.335938 1.867187 1.742188l-.433594.570312zm0 0"/><path d="m52.746094 182.140625c2.59375-1.8125 3.097656-3.863281 1.507812-6.148437l-2.25-3.222657-7.777344 5.421875 2.160157 3.097656c1.644531 2.371094 3.765625 2.65625 6.359375.851563zm.183594-6.667969.410156.59375c.382812.542969.40625 1.085938.085937 1.617188-.320312.53125-1.101562 1.222656-2.320312 2.085937-1.222657.851563-2.148438 1.347657-2.765625 1.457031-.617188.125-1.113282-.097656-1.496094-.640624l-.40625-.59375zm0 0"/><path d="m57.785156 190.488281 4.789063-4.1875-.605469-.691406-4.789062 4.1875c-1.125.988281-2.101563 1.011719-2.925782.074219-.421875-.480469-.605468-.914063-.53125-1.296875.074219-.382813.417969-.839844 1.046875-1.394531l4.855469-4.25-1.816406-2.074219-4.792969 4.1875c-1.640625 1.433593-1.664063 3.0625-.085937 4.863281 1.59375 1.828125 3.210937 2.027344 4.855468.582031zm0 0"/><path d="m64.539062 201.15625c1.863282 1.53125 3.492188 1.445312 4.875-.234375l4.023438-4.925781-.714844-.582032-4.023437 4.925782c-.953125 1.160156-1.902344 1.347656-2.878907.554687-.492187-.40625-.738281-.800781-.726562-1.195312.011719-.382813.269531-.902344.800781-1.542969l4.085938-4.988281-2.121094-1.742188-4.027344 4.925781c-1.382812 1.667969-1.148437 3.273438.707031 4.804688zm0 0"/><path d="m74.082031 200.699219.023438 7.183593 1.765625 1.164063 5.199218-7.929687-.777343-.515626-3.558594 5.417969-.058594-7.777343-1.457031-.964844-5.199219 7.941406.777344.503906zm0 0"/><path d="m78.683594 210.605469 4.519531-8.335938 2.421875 1.3125-4.519531 8.335938zm0 0"/><path d="m94.070312 207.527344-.9375-.421875-4.789062 5.742187 1.207031-7.332031-2.542969-1.125-1.554687 9.679687 2.257813 1zm0 0"/><path d="m101.023438 210.886719.308593-.914063-5.839843-1.941406-3 8.988281 6.382812 2.136719.296875-.898438-3.765625-1.261718 1.183594-3.566406 2.714844.898437.296874-.898437-2.703124-.902344.902343-2.714844zm0 0"/><path d="m108.972656 219.355469c.125-.890625.113282-1.507813-.023437-1.851563-.136719-.347656-.519531-.730468-1.136719-1.125 1.40625-.050781 2.234375-.628906 2.480469-1.753906.164062-.726562-.011719-1.382812-.542969-1.960938-.515625-.570312-1.296875-.976562-2.332031-1.199218l-3.976563-.875-2.046875 9.257812 2.675781.59375.988282-4.445312.457031.097656c.863281.1875 1.175781.816406.9375 1.890625l-.132813.691406-.113281.554688c-.148437.644531-.171875 1.199219-.074219 1.667969l2.914063.640624c-.195313-.394531-.210937-1.121093-.074219-2.183593zm-1.320312-5.273438c-.234375 1.0625-.863282 1.480469-1.875 1.261719l-.542969-.125.703125-3.1875.542969.125c1.011719.222656 1.40625.863281 1.171875 1.925781zm0 0"/><path d="m118.789062 219.910156c.171876-1.519531-.828124-2.800781-3-3.839844-1.125-.542968-1.65625-1.085937-1.59375-1.652343.085938-.753907.65625-1.074219 1.703126-.953125 1.335937.148437 1.941406.777344 1.816406 1.863281-.023438.175781-.074219.382813-.160156.632813l1.296874-.089844c.210938-1.863282-.714843-2.910156-2.789062-3.148438-1.015625-.109375-1.855469.050782-2.53125.507813-.679688.445312-1.0625 1.097656-1.164062 1.9375-.171876 1.496093.632812 2.691406 2.410156 3.582031 1.234375.617188 1.8125 1.246094 1.742187 1.863281-.101562.839844-.679687 1.199219-1.753906 1.085938-1.335937-.148438-1.941406-.8125-1.816406-1.972657.039062-.296874.125-.644531.273437-1.027343l-1.347656.136719c-.050781.210937-.074219.394531-.097656.542968-.210938 1.804688.863281 2.839844 3.195312 3.113282 1.050782.121093 1.925782-.050782 2.632813-.519532.691406-.480468 1.085937-1.171875 1.183593-2.0625zm0 0"/><path d="m121.269531 222.816406.320313-9.476562 2.753906.09375-.320312 9.476562zm0 0"/><path d="m128.640625 222.898438 2.914063-.125-.34375-8.519532 2.320312-.097656-.035156-.949219-7.582032.320313.035157.949218 2.347656-.097656zm0 0"/><path d="m137.804688 222.21875 2.714843-.359375-.457031-3.46875 1.496094-6.234375-1.089844.148438-1.109375 4.753906-2.53125-4.273438-2.828125.382813 3.335938 5.582031zm0 0"/><path d="m151.65625 209.453125c-2.742188.839844-3.640625 2.777344-2.703125 5.839844.976563 3.199219 2.816406 4.382812 5.492187 3.554687 2.695313-.828125 3.558594-2.789062 2.59375-5.925781-.949218-3.125-2.738281-4.285156-5.382812-3.46875zm2.570312 8.667969c-.496093.148437-.914062-.027344-1.261718-.507813-.34375-.492187-.753906-1.519531-1.222656-3.0625-.46875-1.554687-.703126-2.628906-.703126-3.222656.011719-.605469.257813-.972656.753907-1.121094.492187-.148437.914062.023438 1.257812.515625.347657.496094.753907 1.519532 1.222657 3.0625.46875 1.558594.703124 2.632813.703124 3.222656 0 .59375-.246093.964844-.75 1.113282zm0 0"/><path d="m164.3125 209.242188-2.691406 1.136718-1.234375-2.914062 3.171875-1.347656-.371094-.875-5.703125 2.40625 3.691406 8.742187 2.53125-1.074219-1.714843-4.074218 2.691406-1.121094zm0 0"/><path d="m169.027344 203.328125 2-1.222656 4.472656 7.261719 2.480469-1.53125-4.46875-7.261719 1.976562-1.222657-.496093-.800781-6.457032 3.976563zm0 0"/><path d="m187.289062 201.191406-.578124-.753906-3.175782 2.386719-2.257812-3.003907 2.285156-1.714843-.582031-.765625-2.269531 1.730468-1.730469-2.296874 2.703125-2.039063-.566406-.765625-4.902344 3.703125 5.703125 7.570313zm0 0"/><path d="m192.167969 197.054688c.828125-.765626 1.296875-1.566407 1.40625-2.429688.113281-.851562-.136719-1.628906-.765625-2.296875-.125-.125-.269532-.273437-.445313-.445313l-1.074219.566407c.324219.261719.558594.472656.691407.617187.445312.484375.679687 1.003906.703125 1.570313.027344.566406-.160156 1.035156-.554688 1.40625-.972656.902343-2.320312.410156-4.0625-1.457031-2.011718-2.171876-2.589844-3.664063-1.714844-4.480469.828126-.765625 1.703126-.628907 2.65625.394531.097657.109375.246094.273438.417969.492188l.492188-1.195313c-1.332031-1.445313-2.765625-1.480469-4.269531-.085937-.964844.886718-1.433594 1.960937-1.394532 3.195312.035156 1.25.554688 2.410156 1.578125 3.519531 2.160157 2.335938 4.273438 2.53125 6.335938.628907zm0 0"/><path d="m199.984375 188.636719 1.800781-2.074219-7.160156-6.210938-1.804688 2.074219 2.890626 2.492188-1.46875 1.691406-2.890626-2.492187-1.800781 2.074218 7.160157 6.210938 1.800781-2.074219-3.554688-3.085937 1.46875-1.691407zm0 0"/><path d="m207.796875 178.140625-7.789063-5.382813-.53125.753907 5.332032 3.691406-7.789063-.136719-.988281 1.433594 7.804688 5.394531.515624-.765625-4.9375-3.40625 7.1875.148438zm0 0"/><path d="m211.515625 172.015625c1.332031-2.46875.566406-4.480469-2.308594-6.035156-2.878906-1.558594-4.976562-1.113281-6.285156 1.320312-1.359375 2.519531-.628906 4.53125 2.183594 6.050781 2.941406 1.578126 5.074219 1.132813 6.410156-1.335937zm-7.707031-2.960937c-.417969-.433594-.503906-.878907-.257813-1.335938.246094-.457031.667969-.628906 1.257813-.515625.59375.109375 1.605468.554687 3.027344 1.320313 1.429687.765624 2.34375 1.371093 2.765624 1.800781.417969.433593.503907.878906.257813 1.335937-.246094.457032-.664063.628906-1.257813.515625-.59375-.109375-1.59375-.554687-3.027343-1.320312-1.429688-.777344-2.34375-1.371094-2.765625-1.800781zm0 0"/><path d="m217.121094 159.359375-.878906-.355469-1.492188 3.59375-7.878906-3.25-1.046875 2.542969 8.765625 3.621094zm0 0"/><path d="m219.121094 153.570312c.800781-2.691406-.371094-4.507812-3.507813-5.433593s-5.097656-.058594-5.875 2.582031c-.816406 2.742188.308594 4.566406 3.382813 5.46875 3.195312.953125 5.207031.085938 6-2.617188zm-5.074219-.109374c-1.558594-.457032-2.582031-.851563-3.074219-1.199219-.496094-.332031-.667968-.753907-.519531-1.246094.148437-.496094.519531-.753906 1.125-.765625.601563-.011719 1.675781.210938 3.21875.667969 1.558594.453125 2.582031.851562 3.078125 1.195312.492188.332031.664062.753907.515625 1.246094-.148437.496094-.515625.753906-1.121094.765625-.59375.011719-1.667969-.207031-3.222656-.664062zm0 0"/><path d="m222.144531 139.039062-5.035156-.890624-.679687 3.839843.9375.160157.234374-1.34375 2.296876.40625c.753906.136718 1.0625.53125.9375 1.199218-.097657.566406-.429688.914063-1 1.011719-.566407.109375-1.59375.035156-3.085938-.234375-1.59375-.285156-2.65625-.59375-3.199219-.953125-.542969-.355469-.753906-.875-.628906-1.554687.160156-.925782.804687-1.34375 1.914063-1.234376l.507812.074219.21875.039063-.355469-1.371094c-1.828125.0625-2.890625.960938-3.199219 2.679688-.234374 1.308593.039063 2.441406.804688 3.417968.765625.964844 1.875 1.582032 3.332031 1.839844 1.507813.257812 2.742188.085938 3.703125-.53125.964844-.617188 1.570313-1.617188 1.804688-3 .148437-.839844.023437-1.679688-.382813-2.53125l.691407-.183594zm0 0"/><path d="m222.789062 131.65625-3.496093-.25-5.789063-2.738281-.089844 1.085937 4.433594 2.0625-4.691406 1.589844-.210938 2.855469 6.148438-2.113281 3.496094.246093zm0 0"/><path d="m126 0c-69.585938 0-126 56.414062-126 126s56.414062 126 126 126 126-56.414062 126-126c0-69.597656-56.414062-126-126-126zm85.527344 211.527344c-22.84375 22.839844-53.214844 35.421875-85.527344 35.421875s-62.683594-12.582031-85.527344-35.421875c-22.839844-22.84375-35.421875-53.214844-35.421875-85.527344s12.582031-62.683594 35.421875-85.527344c22.84375-22.839844 53.214844-35.421875 85.527344-35.421875s62.683594 12.582031 85.527344 35.421875c22.839844 22.84375 35.421875 53.214844 35.421875 85.527344.011719 32.300781-12.566407 62.671875-35.421875 85.527344zm0 0"/><path d="m126 8.816406c-64.710938 0-117.171875 52.460938-117.171875 117.171875 0 57.265625 41.089844 104.9375 95.378906 115.144531v-1.527343c-22.59375-4.285157-43.375-15.214844-59.992187-31.832031-21.84375-21.839844-33.878906-50.894532-33.878906-81.785157s12.023437-59.945312 33.878906-81.785156c21.839844-21.84375 50.894531-33.882813 81.785156-33.882813s59.945312 12.027344 81.785156 33.882813c21.84375 21.839844 33.878906 50.894531 33.878906 81.785156s-12.023437 59.945313-33.878906 81.785157c-16.421875 16.421874-36.902344 27.300781-59.191406 31.683593v1.515625c53.90625-10.53125 94.589844-58.003906 94.589844-114.984375 0-64.710937-52.460938-117.171875-117.183594-117.171875zm0 0"/><path d="m214.539062 90.316406c.234376-.480468.480469-.960937.679688-1.46875.136719-.332031.183594-.679687.097656-1.050781-.035156 0-.074218 0-.097656.015625-.0625.023438-.136719.046875-.199219.074219-.765625.308593-1.367187.824219-1.925781 1.417969-.628906.667968-1.085938 1.433593-1.503906 2.246093-.113282.210938-.210938.410157-.320313.617188-.089843-.023438-.164062-.035157-.222656-.058594-.617187-.25-1.222656-.496094-1.839844-.742187-.816406-.347657-1.632812-.691407-2.484375-.9375-.726562-.210938-1.46875-.347657-2.222656-.320313-.320312.011719-.617188.109375-.863281.320313-.429688.355468-.628907.839843-.753907 1.355468-.074218.324219-.132812.65625-.058593 1.0625.109375-.011718.21875-.023437.332031-.023437.332031.011719.667969.035156 1 .050781.839844.035156 1.640625.234375 2.433594.527344 1.332031.496094 2.691406.941406 4.023437 1.433594.9375.359374 1.851563.804687 2.65625 1.40625.910157.691406 1.886719 1.3125 2.839844 1.953124.578125.382813 1.109375.8125 1.542969 1.371094.035156.046875.074218.121094.121094.207032-.085938-.011719-.109376 0-.136719-.023438-.394531-.222656-.800781-.445312-1.195313-.667969-.914062-.515625-1.828125-1.058593-2.753906-1.566406-.816406-.433594-1.703125-.742187-2.617188-.863281-.210937-.027344-.433593-.027344-.628906.011718-.296875.0625-.582031.171876-.878906.257813-.332031.101563-.664062.136719-.988281-.023437-.394531-.183594-.777344-.40625-1.171875-.582032-.480469-.21875-.960938-.429687-1.457032-.617187-.332031-.121094-.679687-.160157-1.011718-.121094-.035156.308594-.0625.578125-.097656.851563-.039063.445312.109374.789062.492187 1.035156.46875.296875.953125.59375 1.421875.890625.246094.160156.515625.269531.738281.480469-.046875.074218-.074219.148437-.121093.1875-.496094.480468-.976563.972656-1.507813 1.417968-.382813.320313-.816406.570313-1.246094.828125-.285156.171875-.371093.148438-.542969-.136719-.1875-.269531-.335937-.566406-.371093-.886718-.039063-.398438-.050781-.792969-.050781-1.1875 0-.492188.039062-1 .050781-1.492188 0-.148437-.039063-.296875-.0625-.457031-.46875.207031-.886719.429687-1.074219.898437-.148438.371094-.296875.742188-.394531 1.125-.308594 1.148438-.332031 2.285157.097656 3.421876.199219.53125.570313.824218 1.101563.960937.628906.160156 1.207031-.035156 1.75-.332031.964843-.53125 1.804687-1.246094 2.605468-2 .421875-.382813.851563-.753906 1.285156-1.136719.199219-.171875.222657-.171875.457032-.023437.492187.296874.914062.679687 1.246094 1.148437.433593.605469.839843 1.222656 1.261718 1.839844.296875.429687.628906.851562 1.035156 1.195312.335938.273438.730469.261719 1.050782-.046875.097656-.089844.183594-.199218.246094-.308594.273437-.457031.433593-.953124.273437-1.484374-.199219-.628907-.59375-1.136719-1.074219-1.566407-.445312-.410156-.941406-.753906-1.382812-1.148437-.371094-.320313-.707032-.679688-1.050782-1.011719-.050781-.050781-.074218-.125-.125-.210937.113282-.023438.1875-.039063.25-.039063.789063-.046875 1.566407.039063 2.308594.296875.824219.285156 1.554688.753906 2.269532 1.234375.496093.335937.964843.679687 1.46875.988281.507812.320313 1.039062.570313 1.617187.679688.335937.0625.679687.097656 1.027344.039062 0-.136718.011719-.261718.011719-.382812-.011719-.558594-.1875-1.050782-.605469-1.457032-.445313-.421874-.851563-.867187-1.296875-1.285156-.949219-.902344-2.023438-1.628906-3.136719-2.320312-.765625-.46875-1.542969-.902344-2.320313-1.347656-.9375-.542969-1.863281-1.074219-2.890624-1.445313-.394532-.148437-.75-.34375-1.085938-.617187-.222656-.183594-.429688-.394532-.554688-.753907.136719.015625.222657 0 .308594.027344.332032.097656.667969.195313.976563.332031.46875.210938.914062.457032 1.371093.679688.824219.40625 1.664063.800781 2.492188 1.222656 1.285156.652344 2.542969 1.371094 3.730469 2.183594.246093.175781.480469.347656.738281.496094 1.199219.640624 2.484375 1.074218 3.816406 1.332031 1.457032.285156 2.925782.371093 4.394532.40625.804687.015625 1.558593-.109375 2.296874-.382813.125-.046875.261719-.109375.394532-.160156-.097656-.382812-.171875-.726562-.269532-1.058594-.1875-.667968-.570312-1.210937-1.101562-1.65625-.453125-.382812-.984375-.640625-1.492188-.925781-.40625-.234375-.816406-.457031-1.210937-.703125-.109375-.074219-.207031-.199219-.257813-.320312-.199218-.382813-.210937-.816407-.261718-1.261719.1875 0 .335937-.011719.484375 0 .566406.0625 1.136719.125 1.691406.210937.679687.085938 1.34375.160156 2.035156.097656.371094-.035156.644531-.183593.839844-.503906.617187-.988281 1.25-1.976562 1.867187-2.964844.144532-.234374.121094-.53125-.050781-.703124-.199219-.210938-.496093-.246094-.753906-.085938-.136719.074219-.257813.160156-.394531.234375-.890625.503906-1.804688.960937-2.789063 1.296875-.816406.269531-1.65625.382812-2.507812.457031-.914063.085938-1.703125-.175781-2.445313-.65625-.503906-.332031-.925781-.765625-1.359375-1.171875-.246093-.222656-.308593-.457031-.257812-.777344.0625-.421874.085937-.851562.097656-1.273437.015625-.210937-.058594-.417969-.160156-.628906-.109375.050781-.207031.085937-.296875.136719-.628906.371093-1.195313.851562-1.691406 1.394531-.617188.679687-1.183594 1.394531-1.789063 2.074219-.542969.617187-1.125 1.171874-1.839844 1.59375-.109375.074218-.246093.121093-.40625.207031.023438-.121094.023438-.183594.046875-.234375.074219-.222656.1875-.417969.285156-.617188zm5.484376 4.371094c-.136719.113281-.457032.113281-.570313-.011719-.109375-.125-.097656-.433593.011719-.53125.136718-.121093.457031-.109375.570312.011719.109375.125.097656.445312-.011718.53125zm2.984374-.828125c.632813.867187 1.53125 1.410156 2.371094 2.039063.175782.136718.347656.269531.542969.417968-.085937.050782-.121094.089844-.171875.101563-.988281.207031-1.976562.355469-2.988281.207031-.519531-.074219-1-.246094-1.457031-.527344-.046876-.027344-.085938-.074218-.160157-.148437.433594-.421875.902344-.765625 1.371094-1.148438-.171875-.308593-.332031-.617187-.507813-.941406.296876-.035156.542969-.085937.792969-.109375.074219 0 .171875.050781.207031.109375zm-3.75-4.382813c.417969.359376.824219.742188 1.234376 1.234376-.445313.015624-.804688-.011719-1.210938-.035157-.039062-.421875-.0625-.789062-.085938-1.171875.011719 0 .035157-.011718.0625-.027344zm-.398437 2.101563c.617187.058594 1.234375.121094 1.839844.222656.398437.058594.792969.171875 1.1875.28125.136719.039063.246093.125.382812.1875-.011719.269531-.171875.417969-.371093.542969-.273438.160156-.582032.160156-.890626.148438-.875-.039063-1.839843-.582032-2.34375-1.347657.074219-.023437.136719-.035156.195313-.035156zm-2.296875.109375c.089844-.269531.324219-.457031.621094-.457031.183594 0 .308594.085937.34375.273437.0625.269532-.035156.492188-.183594.664063-.199219.175781-.46875.1875-.65625.050781-.136719-.109375-.183594-.332031-.125-.53125zm-2.109375 1.714844c.394531.335937.839844.472656 1.347656.496094.320313.011718.652344.035156.972657.035156.1875 0 .273437.074218.335937.25.085937.246094.183594.492187.269531.738281.023438.0625.023438.136719.039063.246094-.261719-.085938-.472657-.144531-.691407-.21875-.902343-.308594-1.804687-.617188-2.644531-1.089844-.457031-.257813-.886719-.554687-1.269531-.9375-.050781-.046875-.074219-.109375-.136719-.183594.257813-.074219.46875 0 .667969.0625.394531.132813.777344.320313 1.109375.601563zm0 0"/><path d="m149.695312 36.300781c-.828124.617188-1.65625 1.234375-2.496093 1.851563-.542969.40625-1.171875.640625-1.789063.886718-.457031.1875-.902344.398438-1.347656.605469-.371094.175781-.605469.46875-.800781.816407-.570313 1-.628907 2.074218-.496094 3.171874.027344.222657.050781.234376.273437.246094 1.136719.113282 2.285157.101563 3.417969.074219 1.238281-.023437 2.472657-.058594 3.707031-.097656.886719-.023438 1.777344.011719 2.664063.074219.765625.050781 1.546875.097656 2.308594.148437.359375.023437.667969-.085937.929687-.332031.480469-.46875.628906-1.039063.429688-1.667969-.109375-.382813-.355469-.65625-.738282-.800781-.679687-.273438-1.398437-.410156-2.125-.421875-.828124-.023438-1.667968.011719-2.496093 0-.652344-.011719-1.320313-.035157-1.960938-.195313-.097656-.027344-.1875-.0625-.308593-.101562.160156-.308594.394531-.503906.605468-.703125.578125-.542969 1.246094-.976563 1.914063-1.417969.578125-.382812 1.148437-.78125 1.652343-1.273438.617188-.605468 1.285157-1.148437 2-1.628906.988282-.65625 2.039063-1.199218 3.175782-1.53125.691406-.199218 1.417968-.296875 2.121094-.445312.46875-.097656.9375-.210938 1.445312-.320313-.011719-.40625-.0625-.765625-.148438-1.113281-.136718-.515625-.34375-1.011719-.742187-1.394531-.652344-.628907-1.457031-.851563-2.34375-.765625-.617187.0625-1.210937.234375-1.804687.421875-.332032.097656-.664063.195312-1 .28125-.875.199219-1.777344.222656-2.679688.25-.925781.023437-1.851562.058593-2.777344.097656-.503906.023437-.960937.199219-1.382812.480469-.480469.335937-.886719.753906-1.28125 1.171875-.113282.125-.175782.3125-.210938.472656-.074218.367187.074219.578125.445313.691406.605469.171875 1.222656.21875 1.839843.183594.714844-.035156 1.417969-.109375 2.132813-.160156.308594-.023438.632813-.050781 1.015625-.011719-.148438.121094-.234375.207031-.335938.28125-.898437.71875-1.851562 1.445312-2.8125 2.175781zm0 0"/><path d="m183.300781 56.90625c-1.371093.0625-2.738281.023438-4.109375-.109375-.644531-.0625-1.273437-.101563-1.914062-.136719-.199219-.011718-.382813.011719-.554688.109375-.308594.175781-.542968.421875-.792968.667969.011718.039062.027343.074219.039062.085938.035156.050781.085938.097656.136719.136718.628906.605469 1.355469 1.0625 2.171875 1.359375.519531.183594 1.050781.332031 1.617187.234375.183594-.039062.382813-.027344.578125-.039062 1.605469-.074219 3.222656-.136719 4.828125-.222656 1.1875-.058594 2.347657-.222657 3.507813-.480469.691406-.160157 1.371094-.332031 2.0625-.445313 1.171875-.195312 2.34375-.183594 3.519531.039063.839844.160156 1.652344.417969 2.457031.691406.617188.222656 1.246094.40625 1.898438.519531.828125.132813 1.433594-.222656 1.867187-.878906.355469-.53125.234375-.925781-.199219-1.246094-.0625-.050781-.136718-.097656-.195312-.148437-.308594-.285157-.679688-.445313-1.089844-.480469-.492187-.039062-.984375-.050781-1.480468-.085938-.40625-.027343-.800782-.101562-1.148438-.335937-.046875-.035156-.085938-.085937-.148438-.160156.335938-.183594.644532-.371094.964844-.53125 1.035156-.554688 2.097656-1.085938 3.121094-1.667969.914062-.515625 1.730469-1.160156 2.398438-1.984375.308593-.382813.589843-.792969.75-1.273437.175781-.492188.273437-.988282.199218-1.507813-.074218-.53125-.445312-.984375-.914062-1.023437-.035156.050781-.074219.109374-.109375.171874-.222657.410157-.433594.804688-.65625 1.210938-.246094.457031-.542969.902344-.902344 1.285156-.800781.851563-1.738281 1.53125-2.738281 2.136719-.839844.503906-1.691406.984375-2.542969 1.46875-.542969.308594-1.113281.554687-1.730469.703125-.851562.195312-1.691406.210938-2.507812-.148438-.308594-.136718-.578125-.347656-.851563-.542968-.417969-.308594-.8125-.65625-1.234375-.964844-.234375-.171875-.515625-.28125-.8125-.308594-.878906-.058594-1.46875 1.027344-1.125 1.707032.199219.394531.40625.777343.617188 1.160156.125.234375.257812.480468.40625.75-.234375.015625-.40625.027344-.589844.027344-1.59375.097656-3.199219.183593-4.792969.257812zm0 0"/><path d="m189.375 69.671875c-.148438.234375-.246094.507813-.257812.839844.359374.039062.691406.085937 1.011718.113281.828125.046875 1.628906-.050781 2.359375-.480469.46875-.285156.839844-.667969 1.011719-1.222656.160156-.507813.160156-1.027344.0625-1.542969-.234375-1.199218-.789062-2.238281-1.519531-3.199218-.554688-.742188-1.222657-1.394532-1.914063-2-.394531-.347657-.863281-.421876-1.355468-.359376-.074219.011719-.175782.074219-.210938.136719-.273438.480469-.308594 1.148438.148438 1.667969.394531.457031.777343.925781 1.148437 1.40625.503906.667969.777344 1.417969.714844 2.285156-.035157.417969-.136719.8125-.371094 1.160156-.285156.394532-.566406.789063-.828125 1.195313zm0 0"/><path d="m56.476562 55.695312c-.125.828126-.210937 1.667969-.382812 2.484376-.199219 1-.445312 1.988281-.679688 2.988281-.113281.457031-.210937.898437-.199218 1.367187.023437.53125.210937.976563.667968 1.3125.160157-.125.320313-.222656.457032-.347656.457031-.382812.9375-.753906 1.355468-1.183594.445313-.445312.644532-1 .472657-1.644531-.210938-.777344-.421875-1.554687-.59375-2.34375-.210938-.976563-.308594-1.964844-.171875-2.953125.074218-.578125.21875-1.148438.527344-1.703125.089843.011719.148437.023437.210937.035156.234375.015625.347656.136719.371094.371094.011719.148437.074219.285156.097656.421875.457031 2.0625.632813 4.160156.667969 6.269531.039062 2.472657-.109375 4.941407-.234375 7.398438-.011719.195312-.011719.40625-.023438.664062.246094-.121093.457031-.207031.652344-.308593.421875-.183594.628906-.515626.667969-.960938.046875-.605469.109375-1.210938.183594-1.816406.011718-.171875.050781-.332032.101562-.578125.097656.109375.160156.171875.195312.234375.371094.503906.570313 1.097656.804688 1.664062.171875.433594.382812.855469.589844 1.261719.1875.359375.507812.503906.902344.492187.382812-.011718.730468-.160156 1-.429687.234374-.222656.160156-.519531.183593-.792969 0-.023437 0-.058594 0-.085937-.023437-.394531-.046875-.789063-.097656-1.171875-.023437-.246094.050781-.417969.210937-.582032.210938-.21875.40625-.441406.617188-.652343.136719-.136719.183594-.285157.183594-.46875.015625-.65625-.148438-1.273438-.46875-1.839844-.503906-.925781-1.234375-1.644531-2.023438-2.320313-.554687-.46875-.925781-1.050781-1.097656-1.753906-.148438-.59375-.1875-1.199218-.148438-1.816406.046876-.753906.171876-1.492188.394532-2.222656.136718-.429688.46875-.519532.800781-.222656.136719.125.246094.273437.347656.433593.457031.753907.914063 1.492188 1.457031 2.183594.355469.457031.679688.941406.988282 1.421875.703125 1.085938 1.367187 2.183594 2.085937 3.257812.691407 1.027344 1.40625 2.039063 2.160157 3.027344 1.0625 1.394532 2.269531 2.679688 3.457031 3.976563.195312.21875.445312.394531.679687.589843.097656.085938.183594.074219.269532-.011718.136718-.125.273437-.246094.421874-.371094.097657-.085938.136719-.171875.085938-.296875-.136719-.332031-.222656-.691406-.394531-1-.628907-1.132813-1.410157-2.183594-2.210938-3.207031-.988281-1.261719-1.976562-2.519532-2.9375-3.804688-.421875-.554687-.792969-1.136718-1.136719-1.726562-.53125-.902344-.667968-1.867188-.359374-2.890625.234374-.789063.410156-1.605469.570312-2.40625.121094-.605469.109375-1.222657-.101562-1.804688-.121094-.34375-.308594-.667969-.46875-1-.28125-.566406-.714844-.976562-1.28125-1.257812-.496094-.25-.976563-.484375-1.484376-.71875-.210937-.097657-.394531-.222657-.503906-.429688-.175781-.335937-.335937-.65625-.496094-1-.183593-.421875-.371093-.851562-.542968-1.285156-.074219-.183594-.222656-.257813-.417969-.257813-.457031-.015624-.867187.109376-1.222656.367188-.925781.667969-1.382813 1.582031-1.359375 2.742188.011718.765624.148437 1.519531.320312 2.257812.1875.804688.261719 1.605469.1875 2.433594-.101562.925781-.125 1.851562-.085937 2.792968.023437.738282.035156 1.492188-.089844 2.21875-.023437.136719-.058594.273438-.085937.410157-.097657-.0625-.148438-.125-.183594-.1875-.285156-.554688-.371094-1.160157-.421875-1.765625-.097657-1.269532-.195313-2.554688-.257813-3.824219-.0625-1.164063-.035156-2.3125.171875-3.460937.074219-.429688-.011719-.835938-.207031-1.21875-.347656-.644532-.867188-1.148438-1.359375-1.679688-.050781-.0625-.171875-.085938-.246094-.074219-.347656.035157-.691406.085938-1.0625.136719 0 .171875 0 .332031.011719.480469.085938 1 .171875 2 .246094 3 .074218 1 .050781 1.988281-.234375 2.949219-.222657.71875-.382813 1.46875-.503907 2.234374zm5.605469-7.074218c.121094-.207032.144531-.234375.367188-.136719.160156.074219.324219.164063.433593.285156.210938.210938.40625.445313.566407.691407.308593.445312.707031.777343 1.148437 1.0625.148438.097656.296875.199218.433594.296874.816406.578126 1.125 1.417969 1.160156 2.382813.011719.320313-.0625.617187-.210937.886719-.097657.1875-.148438.210937-.34375.125-.359375-.171875-.691407-.382813-.878907-.753906-.246093-.480469-.46875-.960938-.703124-1.445313-.171876-.34375-.332032-.714844-.53125-1.046875-.207032-.359375-.578126-.519531-.9375-.667969-.285157-.109375-.578126-.210937-.902344-.320312.101562-.480469.148437-.9375.398437-1.359375zm-1.050781 13.347656c.160156-.160156.503906-.109375.691406.097656.160156.1875.171875.46875.035156.617188-.148437.148437-.429687.125-.617187-.035156-.011719-.011719-.011719-.011719-.023437-.023438-.210938-.199219-.246094-.496094-.085938-.65625zm0 0"/><path d="m55.609375 47.535156c.101563-.519531.074219-1-.28125-1.433594-.324219-.382812-.765625-.527343-1.25-.714843-.058594.113281-.121094.199219-.171875.296875-.222656.382812-.445312.765625-.652344 1.160156-.089844.160156-.210937.199219-.359375.171875-.347656-.058594-.691406-.121094-1.023437-.207031-.273438-.0625-.53125-.148438-.855469-.234375.0625.171875.101563.292969.164063.417969.171874.320312.355468.640624.542968.976562.171875.308594.332032.617188.492188.925781.148437.28125.199218.578125.136718.902344-.050781.269531-.085937.554687-.136718.824219-.136719.644531-.269532 1.273437-.40625 1.902344-.011719.085937-.011719.171874-.027344.308593.175781-.085937.308594-.148437.433594-.222656.507812-.308594 1.011718-.628906 1.519531-.949219.0625-.039062.136719-.0625.222656-.097656.234375 1.160156.234375 2.320312.554688 3.417969.023437.011719.0625.023437.085937.023437.199219-.269531.40625-.542968.582032-.824218.417968-.691407.605468-1.421876.394531-2.222657-.0625-.261719-.125-.519531-.160157-.792969-.148437-.789062-.199218-1.578124-.050781-2.371093.0625-.40625.160157-.835938.246094-1.257813zm0 0"/><path d="m109.714844 34.78125c.445312-.285156.839844-.628906 1.222656-.988281.9375-.851563 1.738281-1.839844 2.503906-2.839844.855469-1.121094 1.707032-2.234375 2.558594-3.34375.320312-.421875.566406-.890625.652344-1.421875.0625-.332031.039062-.652344-.148438-.960938-.097656-.164062-.222656-.222656-.40625-.199218-.457031.0625-.902344.148437-1.332031.308594-.667969.246093-1.335937.480468-2.015625.714843-.910156.320313-1.863281.507813-2.800781.703125-1 .210938-1.976563.472656-2.890625.929688-.566406.28125-1.011719.691406-1.308594 1.246094-.171875.320312-.296875.664062-.320312 1.0625h.160156c.582031-.136719 1.160156-.285157 1.730468-.421876.457032-.109374.898438-.234374 1.355469-.34375.113281-.027343.222657-.027343.335938-.027343-.011719.371093-.136719.679687-.382813.964843-.347656.40625-.816406.652344-1.273437.925782-.234375.136718-.46875.269531-.726563.417968.40625.398438.863282.644532 1.296875.925782-.0625.113281-.113281.199218-.164062.273437-.171875.273438-.355469.53125-.527344.800781-.296875.484376-.484375.976563-.296875 1.558594.023438.058594.035156.132813.0625.195313.160156.59375.269531 1.1875.132812 1.816406-.207031.960937-.640624 1.777344-1.371093 2.417969-.480469.421875-.777344.941406-.886719 1.570312-.136719.753906.011719 1.457032.40625 2.097656.113281.1875.160156.199219.359375.125.222656-.074218.429687-.171874.652344-.261718.101562-.035156.199219-.046875.324219-.085938 0 .199219.011718.359375.011718.507813 0 .371093-.011718.742187.097656 1.097656.109376.359375.320313.617187.667969.765625.417969.199219.863281.234375 1.308594.125.457031-.113281.875-.320312 1.28125-.554688.691406-.410156 1.410156-.753906 2.1875-.964843.371094-.097657.742187-.183594 1.097656-.320313.605469-.210937 1.027344-.582031 1.0625-1.296875-.222656-.136719-.46875-.199219-.714843-.234375-.878907-.148437-1.691407.0625-2.484376.382813-.664062.257812-1.292968.566406-1.960937.851562-.320313.136719-.644531.269531-1.027344.308594-.011719-.097656-.023437-.183594-.023437-.257813-.011719-.507812.148437-.976562.394531-1.421874.347656-.605469.828125-1.085938 1.273437-1.605469.285157-.320313.542969-.664063.800782-1 .101562-.121094.113281-.257813.0625-.40625-.074219-.273438-.210938-.507813-.40625-.691407-.285156-.246093-.582032-.480468-.878906-.714843-.515626-.410157-.554688-.472657-.53125-1.136719.027343-.667969.273437-1.210938.878906-1.59375zm.332031-3.507812c.285156-.34375.582031-.691407.878906-1.011719.195313-.210938.296875-.445313.246094-.742188-.0625-.332031-.113281-.664062-.160156-1.011719-.027344-.121093-.011719-.222656.109375-.308593.667968-.445313 1.335937-.875 2.136718-1.035157.257813-.0625.53125-.113281.828126-.027343-.050782.164062-.085938.296875-.136719.433593-.382813 1.050782-.902344 2.023438-1.652344 2.863282-.59375.667968-1.3125 1.160156-2.164063 1.445312-.109374.039063-.222656.0625-.34375.085938-.039062.011718-.074218 0-.1875-.011719.164063-.269531.285157-.492187.445313-.679687zm0 0"/><path d="m96.578125 47.117188c-.394531.800781-.777344 1.617187-1.027344 2.480468-.085937.296875-.144531.605469-.21875.902344.394531.234375.765625.417969 1.171875.515625.394532.101563.777344.050781 1.085938-.246094.183594-.171875.359375-.355469.507812-.566406.308594-.433594.492188-.925781.664063-1.433594.246093-.703125.46875-1.417969.730469-2.121093.40625-1.136719.839843-2.273438 1.257812-3.398438.246094-.652344.496094-1.308594.777344-1.949219.25-.554687.542968-1.074219.816406-1.617187.246094-.480469.457031-.976563.554688-1.507813.039062-.160156.039062-.332031.0625-.503906-.136719.035156-.234376.097656-.296876.171875-.195312.222656-.433593.429688-.59375.679688-.292968.441406-.542968.925781-.8125 1.382812-.261718.445312-.542968.875-.816406 1.308594-.050781.085937-.097656.195312-.285156.160156-.023438-.199219-.074219-.394531-.074219-.59375 0-.53125.210938-.988281.484375-1.417969.308594-.46875.628906-.914062.925782-1.382812.257812-.410157.46875-.851563.492187-1.359375.027344-.582032-.109375-1.085938-.640625-1.421875-.160156-.097657-.332031-.207031-.496094-.308594-.171875-.109375-.34375-.207031-.542968-.332031.308593-.753906.617187-1.457032 1.015624-2.125.320313-.527344.726563-.972656 1.234376-1.355469.234374-.175781.457031-.371094.675781-.554687.261719-.210938.296875-.507813.210937-.804688-.160156-.542969-.664062-.863281-1.222656-.851562-1.011719.035156-1.960938.296874-2.863281.765624-.554688.285157-1.0625.640626-1.53125 1.0625-.109375.097657-.148438.207032-.136719.355469.027344.410157.246094.707031.570312.914063.257813.175781.542969.296875.824219.445312.113281.050782.210938.097656.1875.257813-.113281.582031-.210937 1.175781-.332031 1.753906-.0625.296875-.222656.542969-.472656.71875-.492188.355469-1 .714844-1.480469 1.085937-.457031.355469-.902344.738282-1.359375 1.097657-.148438.113281-.171875.273437-.183594.445312-.023437.53125.136719 1.035157.222656 1.554688.023438.160156.097657.261719.246094.320312.257813.113281.519532.234375.765625.371094.285157.160156.542969.359375.65625.679687.183594.53125.367188 1.050782.503907 1.582032.1875.703125.1875 1.394531-.0625 2.097656-.332032.960938-.765626 1.851562-1.195313 2.742188zm0 0"/><path d="m104.332031 29.667969c-.027343.027343-.050781.039062-.0625.0625-.320312.59375-.480469 1.234375-.445312 1.914062.0625 1.46875.679687 2.691407 1.742187 3.703125.183594.175782.382813.324219.578125.484375 1-2.0625.027344-5.1875-1.8125-6.164062zm0 0"/><path d="m35.289062 80.898438c-.136718-.113282-.296874-.210938-.410156-.296876-.46875.234376-.898437.457032-1.34375.664063-.433594.210937-.867187.433594-1.296875.644531-.0625.035156-.148437.074219-.171875.136719-.125.308594-.222656.628906-.335937.960937 1.765625.851563 3.59375 1.445313 5.371093 2.222657-.011718.492187-.136718.949219-.269531 1.40625-.234375.742187-.59375 1.433593-.941406 2.125-.34375.679687-.675781 1.371093-1 2.0625-.183594.417969-.308594.851562-.320313 1.320312 0 .183594.011719.371094.125.53125.097657.148438.257813.210938.394532.136719.65625-.335938 1.320312-.644531 1.902344-1.113281.371093-.308594.617187-.679688.726562-1.160157.101562-.457031.199219-.914062.308594-1.359374.234375-.9375.542968-1.851563.964844-2.738282.0625-.125.121093-.234375.183593-.347656.074219.011719.125.011719.171875.039062.605469.257813 1.222656.480469 1.804688.800782 1.035156.570312 2.035156 1.1875 3.050781 1.792968.207031.121094.222656.160157.171875.40625-.0625.308594-.136719.605469-.210938.902344-.074218.320313-.109374.640625-.023437.972656.074219.234376.136719.285157.359375.175782.195312-.101563.394531-.199219.566406-.335938.285156-.234375.542969-.492187.828125-.738281.246094-.222656.257813-.222656.515625-.039063.679688.46875 1.335938.964844 2.015625 1.421876.566407.367187 1.148438.703124 1.726563 1.046874.097656.050782.222656.085938.335937.085938.28125-.023438.554688-.121094.824219-.257812-.183594-.542969-.46875-1.011719-.839844-1.433594-.675781-.789063-1.515625-1.394532-2.371094-2-.308593-.222656-.628906-.445313-.9375-.664063.148438-.570312.347657-1.0625.617188-1.546875.347656-.640625.71875-1.257812 1.074219-1.886718.199219-.359376.394531-.703126.59375-1.0625.136719-.257813.136719-.285157-.074219-.46875-.285156-.257813-.566406-.519532-.890625-.753907-.441406-.320312-.949219-.503906-1.527344-.566406-.261719.578125-.53125 1.148437-.78125 1.726563-.382812.867187-.738281 1.71875-1.121093 2.582031-.050782.109375-.125.210937-.210938.332031-.109375-.035156-.199219-.046875-.285156-.085938-.355469-.148437-.714844-.285156-1.074219-.445312-.851563-.382812-1.652344-.839844-2.417969-1.371094-.261718-.171875-.457031-.40625-.59375-.703125-.085937-.195312-.171875-.394531-.269531-.578125-.113281-.210937-.222656-.433594-.359375-.628906-.183594-.285156-.445312-.421875-.789062-.371094-.410157.046875-.816407.074219-1.210938.121094-.199219.027344-.382812.011719-.554688-.109375-.1875-.125-.371093-.234375-.558593-.382813-.480469-.382812-.960938-.777343-1.441407-1.171874zm0 0"/><path d="m41.140625 96.933594c.109375.089844.234375.175781.34375.261718.558594.417969 1.136719.777344 1.804687.960938.480469.136719.960938.175781 1.46875.050781.097657-.742187.050782-1.457031-.136718-2.160156-.234375-.878906-.503906-1.742187-.789063-2.605469-.261719-.816406-.53125-1.640625-.644531-2.496094-.011719-.109374-.035156-.21875-.046875-.34375-.890625-.136718-1.777344-.199218-2.667969-.183593-.0625.132812-.121094.246093-.171875.355469-.210937.570312-.40625 1.125-.617187 1.691406-.1875.496094-.382813.988281-.570313 1.496094-.058593.160156-.160156.246093-.332031.28125-.183594.039062-.371094.089843-.566406.136718-.25.0625-.496094.136719-.804688.222656.125.199219.210938.347657.296875.496094.257813.40625.445313.824219.421875 1.332032-.015625.269531-.015625.542968-.015625.8125.015625.410156.175781.605468.542969.730468.324219.109375.621094.050782.890625-.109375.222656-.136719.433594-.296875.640625-.445312.199219-.148438.398438-.308594.59375-.457031.148438-.113282.246094-.113282.359375-.027344zm.480469-3.222656c.011718.632812.011718 1.238281.023437 1.855468-.332031.023438-.601562-.074218-.898437-.113281-.074219-.617187.367187-1.519531.875-1.742187zm0 0"/><path d="m37.730469 99.75c-.34375-.257812-.714844-.445312-1.171875-.542969.050781.171875.085937.308594.125.445313.222656.703125.480468 1.394531.652344 2.097656.210937.863281.347656 1.742188.496093 2.617188.109375.628906.234375 1.25.480469 1.851562.148438.371094.394531.644531.789062.753906.335938.097656.679688.160156 1.011719.234375.027344-.0625.050781-.097656.0625-.121093.382813-.941407.371094-1.902344.148438-2.878907-.246094-1.0625-.703125-2.050781-1.285157-2.960937-.355468-.570313-.765624-1.089844-1.308593-1.496094zm0 0"/><path d="m41.101562 76.042969c.101563-.257813.160157-.53125.222657-.800781.050781-.257813.027343-.273438-.210938-.371094-.652343-.269532-1.34375-.359375-2.046875-.246094-.792968.109375-1.484375.417969-1.964844 1.097656-.210937.296875-.308593.628906-.320312 1.011719 1.125.335937 2.234375.65625 3.257812 1.296875.398438-.691406.804688-1.308594 1.0625-1.988281zm0 0"/></g></svg>