<?xml version="1.0" encoding="UTF-8" standalone="no"?>
<svg
   xmlns:dc="http://purl.org/dc/elements/1.1/"
   xmlns:cc="http://creativecommons.org/ns#"
   xmlns:rdf="http://www.w3.org/1999/02/22-rdf-syntax-ns#"
   xmlns:svg="http://www.w3.org/2000/svg"
   xmlns="http://www.w3.org/2000/svg"
   viewBox="0 0 266.66666 266.66666"
   height="266.66666"
   width="266.66666"
   xml:space="preserve"
   id="svg2"
   version="1.1"><metadata
     id="metadata8"><rdf:RDF><cc:Work
         rdf:about=""><dc:format>image/svg+xml</dc:format><dc:type
           rdf:resource="http://purl.org/dc/dcmitype/StillImage" /></cc:Work></rdf:RDF></metadata><defs
     id="defs6"><clipPath
       id="clipPath18"
       clipPathUnits="userSpaceOnUse"><path
         id="path16"
         d="M 0,200 H 200 V 0 H 0 Z" /></clipPath></defs><g
     transform="matrix(1.3333333,0,0,-1.3333333,0,266.66667)"
     id="g10"><g
       id="g12"><g
         clip-path="url(#clipPath18)"
         id="g14"><g
           transform="translate(200,100.0001)"
           id="g20"><path
             id="path22"
             style="fill:#ffffff;fill-opacity:1;fill-rule:nonzero;stroke:none"
             d="m 0,0 c 0,-55.23 -44.771,-100 -100,-100 -55.229,0 -100,44.77 -100,100 0,55.23 44.771,100 100,100 C -44.771,100 0,55.23 0,0" /></g><g
           transform="translate(99.9981)"
           id="g24"><path
             id="path26"
             style="fill:#052b8c;fill-opacity:1;fill-rule:nonzero;stroke:none"
             d="m 0,0 c -55.139,0 -99.998,44.858 -99.998,100 0,55.139 44.859,100 99.998,100 55.139,0 100.002,-44.861 100.002,-100 C 100.002,44.858 55.139,0 0,0 m 0,198.567 c -54.351,0 -98.573,-44.216 -98.573,-98.567 0,-54.351 44.222,-98.567 98.573,-98.567 54.355,0 98.577,44.216 98.577,98.567 0,54.351 -44.222,98.567 -98.577,98.567" /></g><g
           transform="translate(36.6964,98.7055)"
           id="g28"><path
             id="path30"
             style="fill:#052b8c;fill-opacity:1;fill-rule:nonzero;stroke:none"
             d="M 0,0 C -0.538,34.812 27.247,63.473 62.061,64.01 96.875,64.546 125.535,36.763 126.073,1.95 126.611,-32.862 98.826,-61.519 64.012,-62.059 29.198,-62.596 0.538,-34.813 0,0" /></g><g
           transform="translate(36.3588,161.6791)"
           id="g32"><path
             id="path34"
             style="fill:#052b8c;fill-opacity:1;fill-rule:nonzero;stroke:none"
             d="M 0,0 C 0,0 0.23,3.275 0.764,3.862 1.298,4.449 2.362,5.021 2.781,3.368 3.2,1.715 3.311,2.75 3.311,2.75 c 0,0 2.359,0.803 3.196,-0.699 0.841,-1.499 1.256,-3.754 0.538,-4.457 0,0 2.501,-0.429 2.919,-0.877 0.423,-0.448 -0.668,-2.595 -2.65,-2.56 -1.982,0.034 -0.707,-2.742 -1.348,-3.16 0,0 0.215,-1.544 -1.583,-1.386 -1.802,0.158 -0.826,0.668 -0.826,0.668 l 0.211,4.105 c 0,0 -1.851,1.449 -2.274,1.294 -0.422,-0.154 0.649,2.225 0.922,1.198 l 1.218,0.791 0.165,0.104 0.219,0.263 c 0,0 0.572,1.784 -0.042,2.738 C 3.357,1.726 2.689,0.031 2.401,-0.429 2.109,-0.888 0.426,-1.618 0.165,-1.066 -0.092,-0.51 0,0 0,0" /></g><g
           transform="translate(42.3217,175.105)"
           id="g36"><path
             id="path38"
             style="fill:#052b8c;fill-opacity:1;fill-rule:nonzero;stroke:none"
             d="m 0,0 c 0,0 -0.184,-2.738 -0.2,-3.468 -0.015,-0.734 3.857,-5.801 4.007,-6.334 0.15,-0.533 -1.068,-1.232 -1.037,-1.576 0.026,-0.343 1.444,-0.865 1.909,-1.286 0.468,-0.417 7.947,-12.71 7.947,-12.71 0,0 2.325,-0.568 2.152,1.665 -0.173,2.236 -6.377,10.752 -6.377,10.752 l 0.123,0.71 c 0,0 3.53,0.305 4.383,0.95 0.857,0.645 0.668,1.692 0.503,1.947 -0.165,0.255 -3.019,0.12 -4.99,-0.166 -1.97,-0.286 -1.237,0.096 -1.513,0.371 -0.273,0.274 -0.661,0.563 -1.264,1.344 l 0.334,0.849 c 0,0 -2.597,3.549 -2.389,3.685 0.207,0.135 0.334,2.201 0.334,2.201 0,0 -1.644,2.541 -3.922,1.066" /></g><g
           transform="translate(76.6089,184.6359)"
           id="g40"><path
             id="path42"
             style="fill:#052b8c;fill-opacity:1;fill-rule:nonzero;stroke:none"
             d="m 0,0 c 0,0 1.329,-0.475 2.42,-0.305 0,0 1.045,-0.02 1.763,1.019 0,0 0.43,1.143 -0.326,1.402 L 2.935,2.336 -0.158,1.788 c 0,0 -1.198,-0.452 0.016,-1.56 C 1.076,-0.881 0,0 0,0" /></g><g
           transform="translate(75.8491,180.805)"
           id="g44"><path
             id="path46"
             style="fill:#052b8c;fill-opacity:1;fill-rule:nonzero;stroke:none"
             d="M 0,0 C 0,0 2.52,0.761 2.885,0.672 3.257,0.583 5.251,-0.514 5.658,-2.248 6.062,-3.982 5.777,-3.522 5.75,-4.14 5.72,-4.754 5.889,-4.368 5.889,-4.368 c 0,0 1.229,-0.41 1.694,-0.911 0.461,-0.499 1.16,-3.121 0.837,-3.978 0,0 0.523,-0.746 0.957,-0.734 0,0 3.468,-0.325 2.804,-1.954 0,0 -0.012,-1.831 -3.031,-1.928 0,0 -1.463,1.051 -1.875,0.958 -0.414,-0.096 -2.393,-0.56 -3.434,-0.193 0,0 -0.833,-0.544 -1.06,1.927 0,0 -1.337,1.251 -1.675,1.958 l -0.007,0.78 c 0,0 2.512,0.414 2.777,0.387 0.273,-0.024 0.296,1.722 -1.056,1.927 0,0 -0.358,3.398 -0.788,3.383 0,0 -2.032,1.618 -2.501,1.769 C -0.937,-0.827 0,0 0,0" /></g><g
           transform="translate(83.7157,180.6391)"
           id="g48"><path
             id="path50"
             style="fill:#052b8c;fill-opacity:1;fill-rule:nonzero;stroke:none"
             d="m 0,0 0.461,-1.981 c 0,0 0.745,-0.958 1.49,-0.784 0.742,0.173 1.979,0.463 2.394,2.039 0,0 0.119,0.985 -2.079,1.081 0,0 -1.409,0.452 -1.947,0.155 C -0.223,0.208 0,0 0,0" /></g><g
           transform="translate(118.7116,181.0909)"
           id="g52"><path
             id="path54"
             style="fill:#052b8c;fill-opacity:1;fill-rule:nonzero;stroke:none"
             d="m 0,0 c 0,0 0.88,4.125 0.699,4.789 -0.18,0.664 1.279,1.498 1.756,0.56 0,0 0.088,0.073 0.253,-1.561 0,0 1.026,0.549 1.932,-0.104 L 5.101,3.398 c 0,0 3.542,3.225 4.041,3.337 0.496,0.116 2.42,-0.069 2.044,-1.49 0,0 -1.825,-2.171 -0.607,-3.828 0,0 0.48,-1.745 -1.221,-1.742 0,0 -1.748,-0.482 -2.597,-0.077 0,0 -0.304,1.082 0.538,1.406 l 0.722,-0.07 c 0,0 -0.35,1.41 -0.957,1.874 0,0 -0.63,0.139 -1.006,-0.39 C 5.685,1.885 4.817,0.429 4.487,0.382 c 0,0 -1.352,-0.602 -0.792,-0.656 0,0 -0.945,0.255 -1.44,0.139 C 1.759,-0.247 2.013,-0.112 1.648,-0.56 1.279,-1.012 0.419,-0.688 0.419,-0.688 Z" /></g><g
           transform="translate(112.2086,177.4212)"
           id="g56"><path
             id="path58"
             style="fill:#052b8c;fill-opacity:1;fill-rule:nonzero;stroke:none"
             d="m 0,0 1.994,1.348 c 0,0 0.86,0.564 1.529,-0.066 0,0 10.506,1.506 14.128,0.433 0,0 4.391,-1.472 1.464,-3.295 0,0 -1.487,-0.343 -2.205,-0.193 0,0 -1.464,0.784 -0.703,1.927 0,0 -6.462,1.02 -7.641,0.568 0,0 -2.078,-0.614 -2.627,-0.398 L 5.67,0.027 5.382,-0.433 4.775,-0.861 4.256,-1.217 3.822,-1.498 3.135,-1.919 2.631,-2.113 2.047,-2.302 1.706,-2.51 0.98,-2.441 0.415,-2.468 l -0.219,0.263 -0.281,0.432 -0.03,0.568 0.061,0.645 z" /></g><g
           transform="translate(122.6525,176.4036)"
           id="g60"><path
             id="path62"
             style="fill:#052b8c;fill-opacity:1;fill-rule:nonzero;stroke:none"
             d="m 0,0 c 0,0 -0.181,-2.734 -0.384,-3.202 l -0.054,-0.56 c 0,0 -2.816,0.213 -3.008,-0.119 0,0 -0.438,-1.225 1.007,-2.198 l 1.763,-0.17 c 0,0 0.28,-3.02 -2.121,-4.41 l -0.184,-0.792 c 0,0 0.718,-0.421 2.086,0.34 0,0 1.175,-0.383 2.432,5.163 0,0 1.624,-0.533 2.773,0.761 0,0 1.371,1.379 -1.179,1.784 l -0.934,0.116 c 0,0 -0.054,1.14 0.204,1.279 0.253,0.135 0.903,0.965 0.05,1.367 0,0 -1.014,1.232 -2.451,0.641" /></g><g
           transform="translate(156.6899,170.5139)"
           id="g64"><path
             id="path66"
             style="fill:#052b8c;fill-opacity:1;fill-rule:nonzero;stroke:none"
             d="m 0,0 c 0,0 2.047,-1.267 2.028,-2.279 l 0.181,-0.548 c 0,0 -2.27,-4.04 -3.784,-4.426 0,0 -1.321,-0.305 -2.243,0.939 0,0 -5.578,-6.848 -6.531,-7.369 0,0 -1.417,-2.14 -3.319,0.401 l 0.143,0.769 1.793,2.047 c 0,0 0.692,0.123 1.195,0.166 0.503,0.042 2.555,2.614 2.689,3.004 0.135,0.391 0.077,0.7 0.077,0.7 l 1.786,1.919 0.638,0.432 0.76,0.445 0.638,0.432 0.135,0.518 1.855,-1.352 0.369,-0.467 0.826,0.637 0.514,0.548 -0.303,0.665 -0.3,0.791 0.016,0.885 0.011,0.506 z" /></g><g
           transform="translate(161.6868,165.7234)"
           id="g68"><path
             id="path70"
             style="fill:#052b8c;fill-opacity:1;fill-rule:nonzero;stroke:none"
             d="m 0,0 c 0,0 -3.33,-0.228 -3.78,-0.962 l -0.96,-1.027 c 0,0 0.107,-0.745 1.283,-1.838 0,0 1.175,-0.842 4.425,-1.565 0,0 3.807,-1.116 4.103,-2.035 l 0.933,-0.486 c 0,0 0.23,-1.24 -0.154,-1.653 0,0 0.112,-0.746 1.61,-0.993 0,0 1.767,0.406 0.999,3.047 0,0 -5.889,4.082 -7.756,4.804 l -0.619,0.576 c 0,0 1.768,0.657 -0.084,2.132" /></g><g
           transform="translate(167.4995,164.5726)"
           id="g72"><path
             id="path74"
             style="fill:#052b8c;fill-opacity:1;fill-rule:nonzero;stroke:none"
             d="m 0,0 c 0,0 1.487,-1.047 0.618,-2.8 0,0 -0.103,-1.101 -1.263,-0.529 -1.16,0.571 -1.449,0.923 -1.606,1.328 -0.161,0.406 0.073,1.812 0.58,2.024 C -1.168,0.235 0,0 0,0" /></g><g
           transform="translate(160.9646,159.3021)"
           id="g76"><path
             id="path78"
             style="fill:#052b8c;fill-opacity:1;fill-rule:nonzero;stroke:none"
             d="m 0,0 c -0.35,0.038 -0.592,-0.22 -0.592,-0.22 0,0 -0.614,-1.734 -0.288,-2.039 0.327,-0.305 0.569,-0.958 1.99,-1.086 1.218,0.398 1.083,2.066 0.208,2.283 0,0 -1.111,1.039 -1.318,1.062" /></g><g
           transform="translate(154.4954,153.1135)"
           id="g80"><path
             id="path82"
             style="fill:#052b8c;fill-opacity:1;fill-rule:nonzero;stroke:none"
             d="m 0,0 -0.261,-0.444 -2.681,-2.708 c -1.203,-1.703 0.026,-2.939 0.026,-2.939 l 2.271,-1.857 c 3.372,-3.063 5.02,-2.209 5.02,-2.209 1.898,1.05 2.355,3.186 2.355,3.186 1.391,2.808 -0.849,1.479 -0.849,1.479 C 5.017,-7.079 3,-7.504 3,-7.504 c -3.987,1.664 -3.004,2.8 -3.004,2.8 0.611,1.398 2.217,2.209 2.217,2.209 0.929,0.587 1.24,1.579 1.24,1.579 l -0.076,0.414 c -0.035,0.374 1.19,1.193 1.19,1.193 1.706,-0.649 1.353,0.622 1.353,0.622 0,0 -0.047,-0.298 -0.358,0.935 -0.315,1.231 -2.716,2.699 -2.716,2.699 0,0 -0.952,0.463 -1.025,-1.348 0,0 0.015,-1.467 -1.241,-1.409 0,0 -4.099,-0.19 -5.028,-0.607 0,0 -1.352,-0.617 -0.281,-1.618 0,0 0.404,-0.973 1.448,-0.923 0,0 0.953,-0.548 3.281,0.958" /></g><g
           transform="translate(101.2907,35.4355)"
           id="g84"><path
             id="path86"
             style="fill:#052b8c;fill-opacity:1;fill-rule:nonzero;stroke:none"
             d="m 0,0 -0.361,126.683 c 0,0 -68.649,-62.036 -1.026,-126.038" /></g><g
           transform="translate(99.2517,35.3864)"
           id="g88"><path
             id="path90"
             style="fill:#ffffff;fill-opacity:1;fill-rule:nonzero;stroke:none"
             d="m 0,0 c -20.217,19.133 -30.339,40.011 -30.085,62.055 0.222,19.465 8.673,36.207 15.726,46.824 7.629,11.486 15.323,18.495 15.4,18.565 L 2.624,128.873 2.989,0.05 1.091,0.046 1.087,1.162 Z M 0.734,124.485 C -5.47,118.229 -27.834,93.5 -28.184,62.021 -28.426,40.613 -18.577,20.287 1.087,1.595 Z" /></g><g
           transform="translate(102.3071,162.4303)"
           id="g92"><path
             id="path94"
             style="fill:#052b8c;fill-opacity:1;fill-rule:nonzero;stroke:none"
             d="m 0,0 0.365,-127.301 c 16.318,15.379 60.083,69.907 0.415,126.652" /></g><g
           transform="translate(101.7275,32.9321)"
           id="g96"><path
             id="path98"
             style="fill:#ffffff;fill-opacity:1;fill-rule:nonzero;stroke:none"
             d="m 0,0 -0.369,129.494 1.898,0.008 0.004,-0.471 0.476,0.51 C 22.43,110.126 32.755,89.101 32.705,67.045 32.675,53.439 28.714,39.69 20.935,26.173 13.621,13.463 4.971,4.684 1.594,1.502 Z M 1.537,127.359 1.89,4.445 c 7.395,7.404 28.841,31.549 28.914,62.604 0.05,21.207 -9.799,41.494 -29.267,60.31" /></g><g
           transform="translate(96.8321,125.2569)"
           id="g100"><path
             id="path102"
             style="fill:#ffffff;fill-opacity:1;fill-rule:nonzero;stroke:none"
             d="m 0,0 c -6.008,0 -11.92,1.027 -17.663,3.078 -15,5.357 -23.512,15.695 -23.87,16.132 l 1.475,1.209 c 0.085,-0.105 8.586,-10.405 23.11,-15.568 19.18,-6.813 40.215,-1.591 60.835,15.1 l 1.191,-1.487 C 33.281,8.914 21.392,3.001 9.742,0.888 6.473,0.297 3.223,0 0,0" /></g><g
           transform="translate(137.4908,45.2634)"
           id="g104"><path
             id="path106"
             style="fill:#ffffff;fill-opacity:1;fill-rule:nonzero;stroke:none"
             d="m 0,0 c -0.115,0.162 -11.574,16.309 -30.408,18.26 -13.403,1.382 -27.285,-4.6 -41.256,-17.801 l -1.302,1.395 c 14.401,13.602 28.79,19.754 42.777,18.302 C -10.487,18.105 1.076,1.788 1.556,1.097 Z" /></g><path
           id="path108"
           style="fill:#ffffff;fill-opacity:1;fill-rule:nonzero;stroke:none"
           d="m 36.544,96.953 h 126.089 v 1.908 H 36.544 Z" /><g
           transform="translate(53.7951,134.2346)"
           id="g110"><path
             id="path112"
             style="fill:#ffffff;fill-opacity:1;fill-rule:nonzero;stroke:none"
             d="m 0,0 c 0,0 15.031,-9.732 20.04,-10.366 l 2.397,-1.904 c 0,0 -2.612,-11.849 0.653,-18.619 0,0 -22.218,13.116 -23.09,30.889" /></g><g
           transform="translate(72.9642,139.0999)"
           id="g114"><path
             id="path116"
             style="fill:#ffffff;fill-opacity:1;fill-rule:nonzero;stroke:none"
             d="m 0,0 c 0,0 4.794,2.962 6.1,4.866 0,0 8.712,5.291 13.94,-10.791 0,0 2.178,-5.924 2.178,-9.519 l 0.434,-0.846 0.876,-0.213 c 0,0 13.503,17.774 14.809,18.195 1.31,0.424 2.616,1.058 3.269,1.058 0.653,0 27.012,3.808 27.665,3.174 0.653,-0.633 3.05,-3.383 3.05,-3.383 0,0 -12.415,-9.099 -20.255,-9.099 0,0 -9.369,-13.961 -10.46,-13.961 0,0 -1.521,-2.117 -0.653,-2.329 0,0 4.794,-0.425 38.121,4.441 l 0.438,0.425 c 0,0 -1.744,-11.424 -1.963,-15.657 -0.219,-4.229 -0.872,-1.27 -0.872,-1.27 0,0 -12.853,7.407 -13.94,7.828 0,0 -2.397,0.634 -4.141,-0.846 l -10.89,-9.941 c 0,0 -11.328,-8.465 -18.297,-8.674 0,0 -12.419,-1.904 -18.953,5.075 0,0 -9.803,7.616 -4.137,26.023 0,0 2.612,11.848 -6.753,14.811 z" /></g><g
           transform="translate(129.5999,137.4081)"
           id="g118"><path
             id="path120"
             style="fill:#00469b;fill-opacity:1;fill-rule:nonzero;stroke:none"
             d="M 0,0 C 0,0 3.269,2.537 6.319,2.116 6.319,2.116 4.141,0.633 0,0" /></g><g
           transform="translate(82.984,138.9942)"
           id="g122"><path
             id="path124"
             style="fill:#052b8c;fill-opacity:1;fill-rule:nonzero;stroke:none"
             d="m 0,0 c 0,-0.877 -0.73,-1.587 -1.633,-1.587 -0.902,0 -1.636,0.71 -1.636,1.587 0,0.877 0.734,1.587 1.636,1.587 C -0.73,1.587 0,0.877 0,0" /></g><g
           transform="translate(94.6075,63.3903)"
           id="g126"><path
             id="path128"
             style="fill:#ffffff;fill-opacity:1;fill-rule:nonzero;stroke:none"
             d="M 0,0 V -3.047 L 12.995,-3.248 V 0.201 L 48.324,0.405 V 5.48 L 33.5,5.685 c 0,0 -11.37,2.842 -16.041,3.653 L 9.949,9.543 9.745,8.933 H 3.653 L 3.042,9.744 c 0,0 -9.134,1.015 -21.926,-3.449 L -35.533,5.685 V 0.61 L -0.611,0" /></g><g
           transform="translate(56.8413,60.1418)"
           id="g130"><path
             id="path132"
             style="fill:#ffffff;fill-opacity:1;fill-rule:nonzero;stroke:none"
             d="m 0,0 32.69,-0.811 0.407,-1.421 -0.814,-1.626 23.958,-0.406 -1.014,2.032 v 1.622 h 33.097 l 1.014,1.015 -0.814,0.811 H 53.806 L 52.991,1.421 52.792,-1.421 35.533,-1.827 V 0.811 L -0.204,1.216 Z" /></g><g
           transform="translate(32.8816,137.4967)"
           id="g134"><path
             id="path136"
             style="fill:#052b8c;fill-opacity:1;fill-rule:nonzero;stroke:none"
             d="m 0,0 c 0,-2.02 -1.636,-3.654 -3.653,-3.654 -2.021,0 -3.657,1.634 -3.657,3.654 0,2.02 1.636,3.653 3.657,3.653 C -1.636,3.653 0,2.02 0,0" /></g><g
           transform="translate(174.1992,136.8878)"
           id="g138"><path
             id="path140"
             style="fill:#052b8c;fill-opacity:1;fill-rule:nonzero;stroke:none"
             d="m 0,0 c 0,-2.016 -1.636,-3.654 -3.657,-3.654 -2.017,0 -3.653,1.638 -3.653,3.654 0,2.02 1.636,3.653 3.653,3.653 C -1.636,3.653 0,2.02 0,0" /></g><g
           transform="translate(26.2583,114.8281)"
           id="g142"><path
             id="path144"
             style="fill:#052b8c;fill-opacity:1;fill-rule:nonzero;stroke:none"
             d="m 0,0 c -0.246,-1.066 -0.688,-1.939 -1.325,-2.626 l -0.454,-0.491 c -0.096,-0.096 -0.153,-0.189 -0.172,-0.282 -0.027,-0.112 0,-0.208 0.076,-0.289 l 0.223,-0.24 c 0.039,-0.038 0.05,-0.096 0.035,-0.17 -0.042,-0.177 -0.246,-0.22 -0.619,-0.135 l -0.626,0.135 -0.776,0.182 -0.668,0.081 -0.4,0.015 c -0.196,0.008 -0.368,0.031 -0.514,0.066 -0.219,0.05 -0.308,0.155 -0.273,0.313 0.023,0.093 0.104,0.135 0.246,0.131 0.226,-0.004 0.595,0.077 1.102,0.247 0.511,0.166 0.926,0.34 1.241,0.525 1.298,0.746 2.086,1.723 2.366,2.939 0.25,1.078 0.008,2.055 -0.722,2.932 -0.73,0.88 -1.798,1.483 -3.211,1.811 -1.84,0.429 -3.438,0.22 -4.791,-0.625 -1.006,-0.638 -1.624,-1.441 -1.851,-2.418 -0.131,-0.576 -0.131,-1.217 -0.008,-1.927 0.131,-0.707 0.354,-1.294 0.676,-1.761 l 0.477,-0.695 c 0.073,-0.101 0.103,-0.19 0.092,-0.263 -0.019,-0.112 -0.096,-0.151 -0.227,-0.12 -0.23,0.054 -0.553,0.367 -0.964,0.935 -1.06,1.491 -1.391,3.101 -0.995,4.831 0.388,1.676 1.237,2.912 2.547,3.708 1.314,0.795 2.827,0.992 4.54,0.595 0.942,-0.221 1.817,-0.63 2.628,-1.233 C -1.54,5.569 -0.93,4.878 -0.515,4.09 0.161,2.8 0.33,1.436 0,0" /></g><g
           transform="translate(18.3321,102.7041)"
           id="g146"><path
             id="path148"
             style="fill:#052b8c;fill-opacity:1;fill-rule:nonzero;stroke:none"
             d="m 0,0 0.319,4.144 c 0.034,0.413 0,0.672 -0.104,0.776 -0.1,0.104 -0.376,0.178 -0.837,0.213 L -2.8,5.303 c -0.822,0.061 -1.429,-0.028 -1.813,-0.267 -0.385,-0.24 -0.6,-0.664 -0.65,-1.278 -0.015,-0.197 -0.1,-0.29 -0.253,-0.279 -0.185,0.016 -0.261,0.174 -0.242,0.476 0.011,0.104 0.046,0.308 0.1,0.618 0.138,0.679 0.226,1.309 0.269,1.888 0.026,0.359 0.034,0.842 0.019,1.448 -0.016,0.36 -0.019,0.587 -0.012,0.68 0.016,0.185 0.119,0.27 0.315,0.255 C -4.944,8.836 -4.879,8.759 -4.871,8.608 -4.836,8.207 -4.679,7.909 -4.395,7.716 -4.11,7.519 -3.665,7.4 -3.058,7.353 L -2.589,7.307 4.698,6.743 C 5.124,6.708 5.447,6.801 5.666,7.017 5.881,7.23 6.077,7.643 6.246,8.257 6.296,8.419 6.388,8.493 6.526,8.485 6.695,8.469 6.776,8.369 6.761,8.184 6.753,8.079 6.719,7.89 6.649,7.612 6.542,7.145 6.465,6.596 6.415,5.959 6.4,5.743 6.4,5.279 6.419,4.569 6.43,4.144 6.427,3.827 6.407,3.611 6.396,3.402 6.307,3.302 6.146,3.314 6.012,3.325 5.939,3.414 5.923,3.588 5.862,4.283 5.451,4.661 4.702,4.719 L 2.458,4.893 C 1.867,4.94 1.517,4.924 1.406,4.847 1.298,4.77 1.225,4.491 1.191,4.016 L 0.876,-0.07 C 0.849,-0.425 0.903,-0.645 1.041,-0.738 1.175,-0.827 1.567,-0.896 2.213,-0.946 L 4.095,-1.093 C 4.84,-1.151 5.32,-0.772 5.535,0.038 L 5.647,0.433 C 5.689,0.595 5.781,0.668 5.923,0.656 6.092,0.645 6.173,0.545 6.162,0.359 6.15,0.251 6.115,0.062 6.05,-0.213 5.939,-0.688 5.862,-1.24 5.812,-1.877 5.793,-2.097 5.797,-2.561 5.82,-3.267 5.827,-3.688 5.823,-4.009 5.808,-4.225 5.789,-4.434 5.701,-4.534 5.539,-4.519 5.409,-4.511 5.336,-4.418 5.32,-4.248 5.255,-3.549 4.852,-3.175 4.099,-3.117 L -3.4,-2.534 c -0.829,0.062 -1.432,-0.023 -1.817,-0.262 -0.384,-0.236 -0.599,-0.653 -0.645,-1.255 -0.015,-0.213 -0.104,-0.317 -0.257,-0.306 -0.185,0.016 -0.265,0.174 -0.242,0.479 0.011,0.105 0.042,0.305 0.103,0.607 0.131,0.687 0.223,1.317 0.265,1.888 0.031,0.367 0.035,0.854 0.016,1.46 -0.012,0.356 -0.016,0.583 -0.008,0.676 0.016,0.185 0.119,0.274 0.315,0.259 0.127,-0.012 0.188,-0.089 0.196,-0.236 0.031,-0.401 0.192,-0.699 0.476,-0.896 0.285,-0.193 0.73,-0.317 1.333,-0.363 l 0.469,-0.046 1.921,-0.147 c 0.572,-0.046 0.922,-0.035 1.045,0.035 C -0.104,-0.576 -0.027,-0.363 0,0" /></g><g
           transform="translate(15.1077,94.1514)"
           id="g150"><path
             id="path152"
             style="fill:#052b8c;fill-opacity:1;fill-rule:nonzero;stroke:none"
             d="m 0,0 -0.872,-0.104 c -0.449,-0.089 -0.787,-0.275 -1.014,-0.553 -0.231,-0.282 -0.338,-0.641 -0.319,-1.077 0.012,-0.29 -0.073,-0.437 -0.253,-0.441 -0.173,-0.007 -0.262,0.178 -0.277,0.557 -0.008,0.166 0,0.397 0.015,0.702 0.058,0.765 0.081,1.383 0.062,1.858 -0.023,0.583 -0.073,1.043 -0.142,1.379 -0.073,0.29 -0.104,0.498 -0.112,0.63 -0.004,0.127 0.054,0.212 0.181,0.251 l 0.069,0.019 0.215,-0.243 C -2.278,2.56 -2.082,2.29 -1.859,2.163 -1.636,2.031 -1.271,1.977 -0.761,1.997 L 0.015,2.02 6.991,2.29 C 7.525,2.313 7.906,2.421 8.124,2.614 8.347,2.811 8.486,3.159 8.543,3.661 8.578,3.958 8.616,4.152 8.658,4.24 8.701,4.325 8.774,4.372 8.881,4.376 9.046,4.383 9.127,4.314 9.127,4.175 9.127,4.067 9.108,3.912 9.077,3.7 9.039,3.487 9.027,3.132 9.046,2.634 9.058,2.309 9.096,1.904 9.15,1.421 L 9.227,0.78 C 9.292,0.182 9.334,-0.278 9.346,-0.599 9.354,-0.792 9.285,-0.892 9.142,-0.896 9.035,-0.904 8.966,-0.888 8.927,-0.861 8.889,-0.834 8.862,-0.761 8.839,-0.645 8.751,-0.228 8.628,0.038 8.459,0.15 8.29,0.263 7.955,0.313 7.452,0.289 Z" /></g><g
           transform="translate(22.931,88.2313)"
           id="g154"><path
             id="path156"
             style="fill:#052b8c;fill-opacity:1;fill-rule:nonzero;stroke:none"
             d="m 0,0 -4.448,-5.384 -0.285,-0.344 c -0.38,-0.459 -0.557,-0.756 -0.537,-0.888 0.019,-0.123 0.203,-0.162 0.557,-0.119 1.283,0.146 2.504,0.309 3.66,0.49 1.356,0.208 2.251,0.487 2.689,0.838 0.438,0.347 0.623,0.927 0.557,1.742 -0.015,0.189 0.039,0.297 0.162,0.317 0.15,0.023 0.242,-0.051 0.269,-0.217 0.03,-0.208 0.053,-0.548 0.065,-1.019 C 2.7,-4.893 2.72,-5.144 2.75,-5.341 2.812,-5.739 2.966,-6.365 3.208,-7.218 3.238,-7.33 3.257,-7.415 3.265,-7.466 3.292,-7.651 3.223,-7.759 3.058,-7.782 2.912,-7.805 2.808,-7.728 2.75,-7.547 2.501,-6.824 1.782,-6.554 0.599,-6.735 L 0.173,-6.801 -5.259,-7.519 -6.008,-7.601 -6.972,-7.74 -7.629,-7.848 -8.708,-8.052 c -0.162,-0.024 -0.25,0.023 -0.258,0.139 -0.011,0.104 0.035,0.22 0.139,0.351 L -1.268,1.68 C -1.141,1.842 -1.079,1.95 -1.087,2 -1.11,2.139 -1.248,2.19 -1.51,2.147 L -1.759,2.116 -5.121,1.595 C -6.914,1.317 -8.101,1.043 -8.681,0.768 -9.3,0.479 -9.58,-0.139 -9.523,-1.089 c 0.008,-0.178 -0.053,-0.274 -0.18,-0.298 -0.177,-0.027 -0.281,0.051 -0.308,0.228 -0.007,0.07 -0.015,0.186 -0.015,0.348 0.008,0.498 -0.038,1.043 -0.127,1.633 -0.092,0.584 -0.211,1.097 -0.365,1.542 -0.061,0.2 -0.103,0.343 -0.119,0.436 -0.019,0.158 0.039,0.247 0.181,0.266 0.115,0.02 0.211,-0.05 0.284,-0.212 0.184,-0.402 0.484,-0.672 0.887,-0.807 0.408,-0.135 0.968,-0.147 1.679,-0.035 l 2.067,0.255 3.753,0.583 c 1.774,0.274 2.608,1.078 2.5,2.402 C 0.699,5.434 0.757,5.534 0.891,5.554 1.06,5.58 1.156,5.496 1.187,5.299 L 1.252,4.692 1.318,4.329 C 1.387,3.877 1.487,3.398 1.617,2.893 1.663,2.703 1.698,2.545 1.717,2.418 1.744,2.24 1.725,2.093 1.663,1.973 1.602,1.861 1.394,1.603 1.049,1.205 L 0.438,0.502 C 0.196,0.22 0.05,0.054 0,0" /></g><g
           transform="translate(26.8326,75.3746)"
           id="g158"><path
             id="path160"
             style="fill:#052b8c;fill-opacity:1;fill-rule:nonzero;stroke:none"
             d="m 0,0 -7.56,-6.539 c -0.384,-0.328 -0.641,-0.656 -0.78,-0.98 -0.142,-0.325 -0.184,-0.703 -0.13,-1.132 0.015,-0.108 -0.05,-0.182 -0.192,-0.224 -0.15,-0.05 -0.246,-0.008 -0.281,0.123 -0.019,0.074 -0.03,0.186 -0.046,0.333 -0.038,0.459 -0.207,1.17 -0.499,2.124 -0.296,0.965 -0.542,1.603 -0.738,1.923 -0.05,0.077 -0.084,0.147 -0.1,0.209 -0.053,0.154 0.004,0.258 0.162,0.308 0.08,0.024 0.161,-0.019 0.238,-0.127 0.161,-0.243 0.369,-0.425 0.622,-0.537 0.258,-0.112 0.496,-0.135 0.719,-0.065 0.315,0.1 0.921,0.556 1.836,1.371 0.272,0.251 0.411,0.475 0.403,0.672 -0.008,0.193 -0.184,0.842 -0.522,1.946 l -0.35,1.136 -0.369,0.71 C -7.744,1.429 -8.182,1.545 -8.9,1.606 l -0.726,0.058 c -0.208,0.024 -0.404,0.004 -0.596,-0.058 -0.699,-0.216 -0.956,-0.834 -0.764,-1.853 0.038,-0.22 -0.012,-0.348 -0.15,-0.386 -0.15,-0.035 -0.257,0.042 -0.315,0.231 -0.031,0.101 -0.062,0.251 -0.081,0.444 -0.042,0.394 -0.107,0.734 -0.199,1.024 -0.081,0.263 -0.239,0.68 -0.473,1.251 -0.181,0.421 -0.288,0.688 -0.319,0.792 -0.05,0.158 -0.004,0.259 0.131,0.301 0.115,0.035 0.223,-0.015 0.33,-0.154 0.185,-0.275 0.434,-0.46 0.742,-0.564 0.311,-0.101 0.925,-0.205 1.851,-0.305 L -3.503,1.742 C -3.027,1.688 -2.7,1.649 -2.524,1.626 L -0.688,1.348 0.223,1.189 0.196,1.182 C 0.676,1.135 0.926,1.081 0.945,1.02 0.968,0.931 0.784,0.703 0.384,0.34 Z m -5.132,-1.95 2.216,1.892 c 0.531,0.456 0.78,0.738 0.746,0.846 -0.02,0.069 -0.258,0.127 -0.707,0.185 l -0.4,0.047 -2.527,0.281 -0.238,0.028 C -6.138,1.344 -6.215,1.34 -6.277,1.321 -6.465,1.263 -6.5,1.031 -6.377,0.629 l 0.765,-2.471 c 0.065,-0.213 0.153,-0.302 0.273,-0.263 0.026,0.008 0.069,0.039 0.13,0.085 z" /></g><g
           transform="translate(28.451,62.3916)"
           id="g162"><path
             id="path164"
             style="fill:#052b8c;fill-opacity:1;fill-rule:nonzero;stroke:none"
             d="m 0,0 c -0.288,-0.151 -0.465,-0.29 -0.526,-0.417 -0.058,-0.128 -0.031,-0.298 0.08,-0.518 L -0.284,-1.224 0.161,-2.07 C 0.361,-2.452 0.595,-2.7 0.86,-2.808 1.129,-2.92 1.556,-2.943 2.136,-2.885 2.278,-2.87 2.37,-2.893 2.405,-2.962 2.482,-3.117 2.455,-3.229 2.32,-3.298 2.286,-3.318 2.216,-3.348 2.113,-3.391 2.04,-3.418 1.959,-3.461 1.867,-3.507 1.567,-3.665 1.222,-3.862 0.834,-4.106 L -0.572,-4.99 c -0.15,-0.089 -0.258,-0.154 -0.327,-0.189 -0.107,-0.054 -0.203,-0.016 -0.288,0.119 -0.058,0.093 -0.015,0.194 0.115,0.294 0.492,0.39 0.769,0.753 0.83,1.093 0.058,0.344 -0.069,0.815 -0.38,1.421 -0.404,0.777 -0.684,1.201 -0.845,1.267 -0.162,0.069 -0.565,-0.066 -1.21,-0.406 l -0.619,-0.332 -0.918,-0.475 c -0.776,-0.405 -1.271,-0.838 -1.483,-1.289 -0.157,-0.333 -0.107,-0.808 0.154,-1.422 0.069,-0.174 0.038,-0.293 -0.088,-0.359 -0.143,-0.073 -0.242,-0.054 -0.3,0.058 -0.054,0.104 -0.119,0.263 -0.196,0.471 -0.077,0.197 -0.261,0.579 -0.553,1.143 l -0.446,0.865 c -0.199,0.387 -0.392,0.711 -0.572,0.974 -0.25,0.351 -0.403,0.591 -0.473,0.718 -0.088,0.174 -0.065,0.293 0.073,0.367 0.1,0.05 0.212,0.015 0.335,-0.104 0.265,-0.255 0.553,-0.371 0.864,-0.348 0.307,0.023 0.776,0.197 1.394,0.521 L 0.891,2.734 C 1.544,3.074 1.913,3.41 1.99,3.742 2.082,4.121 2.017,4.565 1.782,5.075 1.725,5.217 1.755,5.318 1.871,5.376 2.021,5.457 2.143,5.411 2.236,5.233 2.266,5.175 2.328,5.036 2.424,4.816 2.558,4.491 2.716,4.156 2.893,3.808 L 3.611,2.487 4.675,0.444 C 5.04,-0.255 5.439,-0.954 5.873,-1.653 6.035,-1.912 6.15,-2.105 6.219,-2.232 6.281,-2.36 6.181,-2.499 5.923,-2.653 5.605,-2.854 5.424,-2.966 5.374,-3.001 L 4.821,-3.387 C 4.709,-3.464 4.613,-3.526 4.529,-3.569 4.103,-3.793 3.841,-3.804 3.738,-3.607 3.68,-3.499 3.726,-3.406 3.868,-3.333 l 0.265,0.139 c 0.104,0.054 0.189,0.116 0.25,0.181 0.572,0.568 0.561,1.429 -0.038,2.584 L 3.83,0.587 3.657,0.9 C 3.507,1.197 3.342,1.375 3.169,1.433 3,1.491 2.773,1.444 2.493,1.301 Z" /></g><g
           transform="translate(38.1277,55.2645)"
           id="g166"><path
             id="path168"
             style="fill:#052b8c;fill-opacity:1;fill-rule:nonzero;stroke:none"
             d="m 0,0 c 1.041,-1.495 1.448,-3.005 1.218,-4.538 -0.231,-1.533 -1.049,-2.796 -2.463,-3.793 -1.54,-1.085 -3.173,-1.529 -4.901,-1.332 -1.69,0.185 -3.1,1.093 -4.229,2.715 -1.084,1.549 -1.495,3.109 -1.234,4.677 0.262,1.568 1.153,2.889 2.67,3.959 0.653,0.459 1.383,0.799 2.19,1.019 0.81,0.22 1.571,0.282 2.289,0.19 C -3.626,2.792 -2.812,2.483 -2.024,1.973 -1.237,1.464 -0.561,0.803 0,0 m -0.899,0.139 c -0.672,0.962 -1.552,1.46 -2.643,1.498 -1.091,0.039 -2.274,-0.39 -3.545,-1.29 -1.502,-1.058 -2.489,-2.259 -2.954,-3.603 -0.469,-1.34 -0.323,-2.556 0.434,-3.642 0.684,-0.985 1.617,-1.494 2.808,-1.533 1.191,-0.042 2.435,0.398 3.737,1.313 0.749,0.533 1.391,1.186 1.917,1.962 0.527,0.776 0.838,1.545 0.945,2.294 0.162,1.101 -0.073,2.101 -0.699,3.001" /></g><g
           transform="translate(37.3529,42.054)"
           id="g170"><path
             id="path172"
             style="fill:#052b8c;fill-opacity:1;fill-rule:nonzero;stroke:none"
             d="m 0,0 c -0.803,-0.769 -1.279,-1.363 -1.421,-1.784 -0.146,-0.421 -0.035,-0.873 0.334,-1.348 0.154,-0.193 0.169,-0.348 0.046,-0.464 -0.119,-0.116 -0.246,-0.1 -0.384,0.043 -0.042,0.046 -0.119,0.139 -0.227,0.278 -0.315,0.394 -0.634,0.757 -0.952,1.097 -0.269,0.285 -0.515,0.529 -0.742,0.733 l -0.553,0.487 -0.438,0.39 c -0.127,0.108 -0.207,0.185 -0.253,0.232 -0.143,0.15 -0.158,0.286 -0.043,0.398 0.096,0.088 0.196,0.104 0.304,0.042 0.361,-0.201 0.668,-0.286 0.922,-0.251 0.253,0.031 0.534,0.197 0.845,0.491 l 0.603,0.575 0.253,0.232 4.591,4.391 C 3.392,6.025 3.672,6.415 3.726,6.708 3.811,7.187 3.661,7.689 3.277,8.214 3.138,8.415 3.127,8.57 3.25,8.686 3.369,8.802 3.488,8.798 3.599,8.682 3.642,8.635 3.707,8.551 3.795,8.435 4.072,8.075 4.391,7.701 4.759,7.311 5.167,6.882 5.678,6.388 6.304,5.82 7.037,5.16 7.529,4.692 7.786,4.422 8.547,3.615 8.962,2.738 9.023,1.792 9.081,0.842 8.781,0.046 8.117,-0.591 7.698,-0.993 7.203,-1.24 6.638,-1.333 6.073,-1.425 5.505,-1.352 4.94,-1.112 4.825,-1.058 4.744,-1.058 4.698,-1.112 4.66,-1.155 4.629,-1.228 4.606,-1.321 4.583,-1.417 4.537,-1.568 4.467,-1.777 L 4.003,-3.302 3.457,-5.067 C 3.277,-5.67 3.192,-6.133 3.204,-6.454 3.219,-6.774 3.342,-7.052 3.565,-7.292 3.657,-7.388 3.753,-7.469 3.845,-7.539 3.91,-7.577 3.957,-7.62 3.999,-7.662 4.072,-7.736 4.06,-7.821 3.96,-7.913 3.837,-8.033 3.534,-7.994 3.05,-7.798 c -0.488,0.197 -0.853,0.429 -1.11,0.699 -0.411,0.437 -0.576,1.043 -0.496,1.82 0.081,0.776 0.438,2.027 1.072,3.753 0.257,0.68 0.373,1.151 0.361,1.418 C 2.862,0.162 2.693,0.463 2.378,0.796 L 2.005,1.189 1.682,1.429 C 1.59,1.46 1.46,1.394 1.287,1.232 Z M 4.963,4.742 2.762,2.641 C 2.489,2.383 2.351,2.182 2.347,2.043 2.339,1.904 2.462,1.703 2.712,1.44 3.426,0.683 3.884,0.232 4.08,0.077 4.279,-0.077 4.525,-0.162 4.817,-0.186 5.393,-0.224 5.923,-0.012 6.411,0.459 7.053,1.07 7.383,1.784 7.406,2.603 7.429,3.418 7.133,4.152 6.526,4.796 6.25,5.086 6,5.225 5.777,5.217 5.555,5.21 5.282,5.051 4.963,4.742" /></g><g
           transform="translate(50.0682,38.9291)"
           id="g174"><path
             id="path176"
             style="fill:#052b8c;fill-opacity:1;fill-rule:nonzero;stroke:none"
             d="m 0,0 -1.199,-1.487 c -0.341,-0.425 -0.526,-0.718 -0.56,-0.884 -0.027,-0.163 0.073,-0.34 0.307,-0.533 l 0.211,-0.159 0.304,-0.235 0.576,-0.468 C 0.084,-4.132 0.63,-4.163 1.275,-3.862 l 0.427,0.205 c 0.107,0.05 0.211,0.038 0.307,-0.035 0.104,-0.074 0.104,-0.178 0,-0.305 C 1.982,-4.036 1.894,-4.129 1.748,-4.283 1.64,-4.395 1.556,-4.492 1.49,-4.573 1.371,-4.72 1.114,-5.083 0.718,-5.654 0.465,-6.029 0.23,-6.345 0.019,-6.608 l -0.273,-0.355 c -0.053,-0.066 -0.096,-0.101 -0.126,-0.116 -0.043,-0.012 -0.092,0.004 -0.146,0.042 -0.123,0.081 -0.123,0.228 -0.004,0.433 0.257,0.436 0.357,0.842 0.307,1.212 -0.027,0.205 -0.115,0.394 -0.257,0.564 -0.146,0.17 -0.45,0.445 -0.914,0.823 l -0.461,0.375 c -0.219,0.177 -0.392,0.266 -0.527,0.262 -0.13,0 -0.292,-0.093 -0.48,-0.27 -0.211,-0.205 -0.515,-0.556 -0.91,-1.047 l -0.496,-0.614 c -0.518,-0.645 -0.841,-1.147 -0.972,-1.514 -0.088,-0.266 -0.111,-0.479 -0.065,-0.637 0.046,-0.158 0.177,-0.324 0.396,-0.502 1.832,-1.491 3.488,-1.904 4.963,-1.236 0.073,0.031 0.123,0.035 0.15,0.023 0.05,-0.027 0.084,-0.077 0.092,-0.146 0.004,-0.07 -0.016,-0.136 -0.062,-0.194 -0.365,-0.451 -0.833,-0.788 -1.413,-1.015 -0.488,-0.194 -0.941,-0.248 -1.364,-0.159 -0.419,0.089 -0.88,0.336 -1.371,0.734 -0.288,0.236 -0.592,0.518 -0.918,0.838 l -0.723,0.718 c -0.269,0.263 -0.649,0.595 -1.14,0.993 -0.331,0.27 -0.846,0.656 -1.552,1.166 -0.2,0.136 -0.338,0.24 -0.419,0.305 -0.108,0.089 -0.127,0.186 -0.054,0.298 0.065,0.085 0.165,0.108 0.304,0.066 0.338,-0.109 0.599,-0.147 0.779,-0.109 0.185,0.035 0.419,0.178 0.703,0.421 0.246,0.201 0.534,0.506 0.868,0.923 l 4.372,5.427 c 0.411,0.509 0.607,0.923 0.588,1.239 -0.016,0.317 -0.254,0.726 -0.719,1.221 -0.103,0.119 -0.111,0.235 -0.015,0.351 0.084,0.108 0.2,0.1 0.35,-0.023 0.034,-0.023 0.096,-0.085 0.192,-0.178 0.08,-0.069 0.188,-0.162 0.33,-0.278 L -0.307,2.85 2.239,0.73 C 3.715,-0.471 4.64,-1.193 5.021,-1.429 5.059,-1.456 5.094,-1.479 5.12,-1.502 5.251,-1.607 5.255,-1.738 5.132,-1.889 5.048,-1.993 4.909,-2.194 4.721,-2.483 4.437,-2.908 4.225,-3.21 4.083,-3.383 3.807,-3.731 3.576,-3.839 3.392,-3.704 c -0.088,0.066 -0.05,0.201 0.115,0.41 0.365,0.451 0.465,0.915 0.304,1.386 C 3.649,-1.437 3.2,-0.904 2.47,-0.309 L 1.64,0.367 1.137,0.687 C 0.849,0.799 0.545,0.664 0.234,0.274 Z" /></g><g
           transform="translate(53.7762,27.1607)"
           id="g178"><path
             id="path180"
             style="fill:#052b8c;fill-opacity:1;fill-rule:nonzero;stroke:none"
             d="m 0,0 -0.426,-0.772 c -0.192,-0.418 -0.239,-0.8 -0.143,-1.151 0.089,-0.352 0.319,-0.645 0.684,-0.889 0.235,-0.158 0.308,-0.312 0.208,-0.463 -0.096,-0.143 -0.304,-0.112 -0.619,0.1 -0.134,0.089 -0.319,0.232 -0.553,0.425 -0.584,0.491 -1.072,0.869 -1.464,1.128 -0.484,0.324 -0.883,0.552 -1.198,0.691 -0.273,0.116 -0.465,0.209 -0.569,0.278 -0.107,0.07 -0.142,0.17 -0.103,0.294 l 0.027,0.069 0.322,0.031 c 0.434,-0.104 0.769,-0.104 1.003,0.004 0.234,0.108 0.495,0.375 0.772,0.8 l 0.442,0.648 3.853,5.851 C 2.531,7.492 2.666,7.863 2.639,8.16 2.608,8.454 2.405,8.771 2.04,9.107 1.817,9.311 1.683,9.458 1.636,9.539 1.594,9.624 1.598,9.713 1.656,9.802 1.748,9.941 1.852,9.968 1.967,9.887 2.051,9.821 2.167,9.717 2.32,9.566 2.466,9.412 2.747,9.195 3.161,8.921 3.43,8.74 3.78,8.531 4.202,8.295 L 4.759,7.987 C 5.286,7.689 5.681,7.454 5.946,7.276 6.104,7.172 6.146,7.056 6.069,6.936 6.008,6.847 5.958,6.797 5.916,6.782 5.87,6.766 5.793,6.785 5.685,6.836 5.301,7.009 5.013,7.06 4.821,6.99 4.633,6.917 4.398,6.673 4.122,6.253 Z" /></g><g
           transform="translate(65.4709,31.3865)"
           id="g182"><path
             id="path184"
             style="fill:#052b8c;fill-opacity:1;fill-rule:nonzero;stroke:none"
             d="m 0,0 c 0.86,-0.444 1.74,-1.221 2.635,-2.329 0.231,-0.274 0.388,-0.436 0.469,-0.479 0.073,-0.039 0.15,-0.046 0.234,-0.023 l 0.123,0.035 C 3.538,-2.769 3.615,-2.773 3.692,-2.804 3.849,-2.877 3.88,-3.013 3.78,-3.206 L 3.492,-3.75 2.912,-4.812 2.651,-5.388 C 2.589,-5.534 2.528,-5.693 2.466,-5.867 2.439,-5.932 2.416,-5.979 2.401,-6.013 2.316,-6.179 2.197,-6.214 2.04,-6.121 c -0.104,0.058 -0.119,0.204 -0.046,0.44 0.215,0.679 0.199,1.46 -0.046,2.344 -0.346,1.248 -1.072,2.159 -2.175,2.73 -1.052,0.545 -2.105,0.561 -3.161,0.051 -1.056,-0.514 -1.94,-1.468 -2.651,-2.862 -0.76,-1.491 -1.075,-2.916 -0.945,-4.275 0.131,-1.356 0.673,-2.283 1.621,-2.777 0.285,-0.147 0.68,-0.267 1.18,-0.367 0.503,-0.097 0.906,-0.131 1.21,-0.097 0.273,0.031 0.515,0.155 0.73,0.375 0.211,0.216 0.457,0.599 0.733,1.147 0.319,0.626 0.431,1.116 0.331,1.475 -0.1,0.356 -0.442,0.707 -1.037,1.055 -0.154,0.092 -0.193,0.212 -0.12,0.355 0.073,0.143 0.2,0.166 0.388,0.069 0.054,-0.026 0.143,-0.081 0.262,-0.154 C -1.202,-6.921 -0.642,-7.241 0,-7.574 0.657,-7.917 1.152,-8.149 1.483,-8.273 1.732,-8.361 1.932,-8.446 2.086,-8.527 2.274,-8.624 2.328,-8.74 2.259,-8.879 2.197,-9.006 2.063,-9.041 1.855,-8.983 1.525,-8.89 1.237,-8.945 0.991,-9.145 0.745,-9.35 0.465,-9.76 0.146,-10.381 c -0.096,-0.193 -0.177,-0.371 -0.238,-0.529 -0.112,-0.271 -0.196,-0.46 -0.25,-0.564 -0.081,-0.162 -0.173,-0.263 -0.276,-0.305 -0.104,-0.043 -0.269,-0.051 -0.504,-0.024 -0.138,0.02 -0.637,0.058 -1.498,0.112 -1.506,0.101 -2.716,0.387 -3.634,0.862 -1.394,0.722 -2.289,1.792 -2.685,3.205 -0.395,1.414 -0.207,2.881 0.565,4.399 0.86,1.692 2.093,2.85 3.699,3.468 C -3.069,0.865 -1.514,0.78 0,0" /></g><g
           transform="translate(73.7598,25.3471)"
           id="g186"><path
             id="path188"
             style="fill:#052b8c;fill-opacity:1;fill-rule:nonzero;stroke:none"
             d="m 0,0 2.727,-6.434 0.177,-0.413 c 0.231,-0.549 0.415,-0.846 0.538,-0.889 0.119,-0.038 0.238,0.112 0.361,0.448 0.457,1.213 0.872,2.379 1.241,3.491 0.434,1.31 0.599,2.241 0.488,2.793 C 5.424,-0.456 4.994,-0.023 4.245,0.286 4.068,0.359 3.999,0.456 4.037,0.575 4.087,0.722 4.191,0.772 4.352,0.718 4.552,0.649 4.863,0.514 5.286,0.313 5.562,0.182 5.797,0.085 5.985,0.023 6.365,-0.104 6.987,-0.255 7.852,-0.425 7.967,-0.452 8.048,-0.475 8.098,-0.491 8.274,-0.549 8.336,-0.66 8.282,-0.819 8.236,-0.962 8.121,-1.016 7.932,-0.985 7.179,-0.881 6.611,-1.398 6.231,-2.541 L 6.096,-2.951 4.245,-8.138 3.976,-8.844 3.657,-9.767 3.453,-10.408 3.142,-11.463 c -0.05,-0.158 -0.13,-0.212 -0.242,-0.17 -0.1,0.039 -0.18,0.135 -0.246,0.286 l -4.724,10.98 c -0.081,0.189 -0.15,0.29 -0.196,0.309 -0.135,0.042 -0.242,-0.062 -0.327,-0.309 l -0.088,-0.24 -1.076,-3.244 c -0.572,-1.734 -0.872,-2.919 -0.895,-3.56 -0.027,-0.688 0.396,-1.221 1.264,-1.603 0.157,-0.074 0.215,-0.174 0.177,-0.297 -0.058,-0.17 -0.173,-0.228 -0.342,-0.17 -0.066,0.023 -0.173,0.069 -0.315,0.142 -0.438,0.232 -0.938,0.445 -1.502,0.634 -0.557,0.185 -1.068,0.313 -1.533,0.378 -0.204,0.035 -0.349,0.066 -0.438,0.097 -0.15,0.05 -0.2,0.143 -0.157,0.278 0.038,0.116 0.146,0.166 0.322,0.158 0.442,-0.015 0.815,0.124 1.118,0.429 0.307,0.301 0.573,0.795 0.799,1.479 l 0.718,1.966 1.199,3.623 c 0.572,1.714 0.242,2.827 -0.98,3.332 -0.165,0.07 -0.23,0.17 -0.184,0.302 0.05,0.158 0.173,0.204 0.361,0.142 L -3.584,3.263 -3.231,3.155 C -2.8,3.008 -2.328,2.881 -1.821,2.765 -1.633,2.723 -1.475,2.68 -1.356,2.638 -1.187,2.58 -1.06,2.499 -0.987,2.39 -0.914,2.282 -0.78,1.981 -0.588,1.491 L -0.242,0.622 C -0.108,0.278 -0.027,0.069 0,0" /></g><g
           transform="translate(90.9406,22.3713)"
           id="g190"><path
             id="path192"
             style="fill:#052b8c;fill-opacity:1;fill-rule:nonzero;stroke:none"
             d="m 0,0 2.812,-9.628 c 0.138,-0.483 0.326,-0.858 0.565,-1.116 0.238,-0.263 0.56,-0.456 0.971,-0.584 0.104,-0.03 0.146,-0.119 0.127,-0.27 -0.019,-0.158 -0.096,-0.228 -0.23,-0.208 -0.073,0.015 -0.181,0.05 -0.323,0.096 -0.43,0.155 -1.141,0.294 -2.128,0.417 -0.995,0.124 -1.679,0.163 -2.048,0.112 -0.088,-0.011 -0.165,-0.015 -0.23,-0.007 -0.161,0.019 -0.234,0.111 -0.211,0.281 0.007,0.082 0.08,0.136 0.215,0.163 0.284,0.046 0.534,0.162 0.741,0.351 0.208,0.189 0.323,0.398 0.354,0.63 0.038,0.328 -0.123,1.077 -0.484,2.247 -0.116,0.36 -0.262,0.572 -0.442,0.645 -0.181,0.074 -0.841,0.182 -1.982,0.325 L -3.465,-6.4 -4.26,-6.442 c -0.227,-0.073 -0.515,-0.429 -0.868,-1.062 l -0.35,-0.641 c -0.103,-0.182 -0.169,-0.371 -0.196,-0.572 -0.088,-0.73 0.365,-1.22 1.368,-1.464 0.215,-0.057 0.311,-0.154 0.288,-0.297 -0.031,-0.154 -0.142,-0.216 -0.342,-0.193 -0.104,0.012 -0.25,0.05 -0.434,0.108 -0.373,0.124 -0.711,0.205 -1.01,0.243 -0.273,0.032 -0.715,0.058 -1.329,0.074 -0.458,0.011 -0.742,0.023 -0.853,0.035 -0.162,0.019 -0.231,0.104 -0.215,0.247 0.015,0.116 0.107,0.197 0.276,0.235 0.323,0.058 0.596,0.213 0.815,0.452 0.222,0.243 0.568,0.765 1.041,1.572 l 3.046,5.206 c 0.242,0.413 0.415,0.699 0.511,0.854 l 1.01,1.568 0.519,0.768 -0.004,-0.027 c 0.238,0.421 0.388,0.63 0.453,0.622 C -0.442,1.274 -0.315,1.008 -0.15,0.49 Z M -0.35,-5.511 -1.152,-2.7 c -0.192,0.672 -0.346,1.02 -0.458,1.032 -0.069,0.007 -0.222,-0.182 -0.457,-0.572 l -0.211,-0.348 -1.294,-2.201 -0.123,-0.209 c -0.054,-0.081 -0.081,-0.154 -0.089,-0.22 -0.027,-0.197 0.169,-0.32 0.584,-0.374 l 2.558,-0.317 c 0.216,-0.027 0.335,0.019 0.346,0.143 0.008,0.027 -0.004,0.081 -0.023,0.154 z" /></g><g
           transform="translate(99.3005,18.4119)"
           id="g194"><path
             id="path196"
             style="fill:#052b8c;fill-opacity:1;fill-rule:nonzero;stroke:none"
             d="m 0,0 c 0,-0.328 0.046,-0.549 0.131,-0.66 0.08,-0.112 0.245,-0.167 0.491,-0.167 l 0.331,0.008 0.952,0.012 c 0.427,0 0.753,0.096 0.976,0.286 0.223,0.189 0.438,0.556 0.653,1.104 0.05,0.135 0.115,0.201 0.188,0.201 0.177,0 0.265,-0.074 0.265,-0.228 C 3.987,0.517 3.98,0.44 3.968,0.328 3.964,0.251 3.96,0.162 3.96,0.054 c 0,-0.34 0.02,-0.738 0.054,-1.193 L 4.152,-2.804 C 4.16,-2.978 4.168,-3.105 4.168,-3.182 4.168,-3.306 4.091,-3.372 3.934,-3.387 3.822,-3.391 3.753,-3.314 3.722,-3.148 3.607,-2.53 3.411,-2.117 3.135,-1.908 2.862,-1.696 2.385,-1.591 1.706,-1.591 0.834,-1.595 0.33,-1.649 0.196,-1.765 0.061,-1.873 0,-2.298 0,-3.032 l 0.008,-0.703 0.004,-1.039 c 0,-0.88 0.153,-1.521 0.457,-1.919 0.222,-0.294 0.664,-0.463 1.329,-0.514 0.184,-0.019 0.276,-0.1 0.28,-0.243 0,-0.162 -0.069,-0.243 -0.192,-0.243 -0.119,0 -0.288,0.015 -0.507,0.042 -0.211,0.023 -0.634,0.035 -1.268,0.031 h -0.968 c -0.434,-0.004 -0.81,-0.023 -1.125,-0.066 -0.423,-0.061 -0.707,-0.088 -0.853,-0.088 -0.192,-0.004 -0.288,0.077 -0.288,0.231 0,0.112 0.081,0.197 0.242,0.251 0.35,0.12 0.584,0.321 0.707,0.61 0.119,0.286 0.18,0.784 0.18,1.487 l -0.015,7.246 c -0.004,0.741 -0.131,1.22 -0.388,1.444 -0.292,0.259 -0.718,0.402 -1.275,0.429 -0.15,0.011 -0.227,0.081 -0.227,0.212 0,0.174 0.1,0.263 0.3,0.263 0.061,0 0.211,-0.008 0.449,-0.023 0.35,-0.031 0.718,-0.043 1.11,-0.043 l 1.498,0.031 2.297,0.015 C 2.539,4.383 3.342,4.418 4.16,4.488 4.464,4.515 4.686,4.526 4.832,4.526 4.971,4.526 5.051,4.372 5.067,4.067 5.097,3.696 5.117,3.479 5.12,3.422 L 5.209,2.75 C 5.228,2.614 5.236,2.499 5.24,2.406 5.24,1.919 5.128,1.68 4.909,1.68 4.786,1.68 4.725,1.761 4.725,1.923 L 4.721,2.22 C 4.721,2.34 4.709,2.441 4.679,2.53 4.441,3.302 3.672,3.684 2.374,3.684 L 1.241,3.688 0.88,3.68 C 0.553,3.677 0.319,3.615 0.192,3.487 0.061,3.36 -0.004,3.14 -0.004,2.823 Z" /></g><g
           transform="translate(108.1218,18.8157)"
           id="g198"><path
             id="path200"
             style="fill:#052b8c;fill-opacity:1;fill-rule:nonzero;stroke:none"
             d="m 0,0 c 0.035,-0.328 0.1,-0.541 0.196,-0.645 0.096,-0.101 0.265,-0.139 0.507,-0.112 l 0.334,0.042 0.941,0.112 c 0.427,0.047 0.742,0.178 0.941,0.387 0.2,0.212 0.377,0.602 0.531,1.166 C 3.492,1.093 3.546,1.166 3.622,1.174 3.795,1.193 3.891,1.128 3.907,0.973 3.91,0.934 3.914,0.857 3.914,0.745 3.914,0.668 3.922,0.579 3.934,0.475 3.968,0.135 4.03,-0.259 4.11,-0.711 L 4.421,-2.348 C 4.452,-2.522 4.471,-2.65 4.479,-2.723 4.491,-2.847 4.421,-2.924 4.264,-2.951 4.156,-2.97 4.079,-2.897 4.033,-2.738 3.849,-2.136 3.611,-1.746 3.319,-1.564 3.023,-1.383 2.539,-1.329 1.863,-1.402 0.995,-1.498 0.499,-1.607 0.38,-1.734 0.257,-1.858 0.238,-2.286 0.315,-3.016 L 0.399,-3.715 0.507,-4.746 C 0.603,-5.623 0.822,-6.241 1.168,-6.604 1.417,-6.875 1.875,-6.998 2.539,-6.979 2.724,-6.975 2.827,-7.048 2.843,-7.191 2.862,-7.35 2.804,-7.438 2.677,-7.45 2.562,-7.466 2.393,-7.469 2.17,-7.462 c -0.211,0 -0.63,-0.034 -1.26,-0.1 L -0.054,-7.67 c -0.434,-0.047 -0.803,-0.108 -1.114,-0.182 -0.415,-0.104 -0.695,-0.166 -0.837,-0.181 -0.192,-0.019 -0.296,0.046 -0.315,0.201 -0.008,0.115 0.061,0.204 0.219,0.278 0.334,0.154 0.549,0.378 0.637,0.679 0.093,0.298 0.1,0.8 0.023,1.499 l -0.772,7.203 c -0.08,0.737 -0.261,1.201 -0.537,1.394 -0.315,0.228 -0.753,0.324 -1.31,0.293 -0.154,-0.007 -0.235,0.058 -0.25,0.19 -0.019,0.173 0.069,0.27 0.269,0.289 0.061,0.008 0.211,0.016 0.449,0.023 0.354,0.008 0.723,0.035 1.11,0.078 l 1.487,0.189 2.282,0.259 c 0.78,0.085 1.575,0.204 2.381,0.359 0.3,0.058 0.519,0.096 0.661,0.112 C 4.471,5.028 4.564,4.882 4.617,4.58 4.683,4.213 4.725,4.001 4.736,3.943 L 4.894,3.286 C 4.928,3.151 4.948,3.039 4.959,2.943 5.009,2.464 4.925,2.213 4.706,2.186 4.583,2.174 4.514,2.248 4.498,2.414 L 4.467,2.711 C 4.452,2.827 4.425,2.927 4.391,3.008 4.068,3.75 3.265,4.051 1.974,3.912 L 0.849,3.8 0.492,3.75 C 0.161,3.715 -0.061,3.626 -0.177,3.487 -0.292,3.348 -0.334,3.12 -0.3,2.804 Z" /></g><g
           transform="translate(117.5788,23.8611)"
           id="g202"><path
             id="path204"
             style="fill:#052b8c;fill-opacity:1;fill-rule:nonzero;stroke:none"
             d="M 0,0 5.885,-8.103 C 6.177,-8.512 6.48,-8.798 6.795,-8.964 7.107,-9.126 7.475,-9.199 7.906,-9.18 8.009,-9.176 8.082,-9.246 8.113,-9.393 8.151,-9.551 8.101,-9.64 7.967,-9.663 7.894,-9.674 7.783,-9.682 7.633,-9.686 c -0.457,0 -1.176,-0.112 -2.148,-0.332 -0.975,-0.22 -1.632,-0.417 -1.962,-0.587 -0.081,-0.047 -0.154,-0.074 -0.216,-0.089 -0.157,-0.035 -0.257,0.027 -0.292,0.193 -0.019,0.081 0.027,0.158 0.146,0.224 0.254,0.143 0.446,0.34 0.58,0.587 0.131,0.247 0.173,0.483 0.12,0.714 -0.07,0.321 -0.477,0.97 -1.21,1.947 C 2.424,-6.732 2.213,-6.577 2.017,-6.57 1.825,-6.566 1.164,-6.689 0.046,-6.94 L -1.11,-7.203 -1.84,-7.516 c -0.188,-0.143 -0.342,-0.575 -0.461,-1.293 l -0.115,-0.719 c -0.039,-0.208 -0.035,-0.409 0.011,-0.602 0.162,-0.723 0.753,-1.024 1.775,-0.912 0.227,0.02 0.346,-0.042 0.376,-0.185 0.02,-0.155 -0.065,-0.251 -0.257,-0.297 -0.104,-0.024 -0.253,-0.039 -0.449,-0.047 -0.392,-0.011 -0.734,-0.05 -1.03,-0.116 -0.265,-0.062 -0.691,-0.189 -1.279,-0.382 -0.43,-0.143 -0.703,-0.232 -0.811,-0.255 -0.157,-0.035 -0.253,0.016 -0.284,0.155 -0.027,0.119 0.035,0.224 0.177,0.32 0.284,0.166 0.492,0.402 0.618,0.703 0.127,0.301 0.277,0.911 0.454,1.831 l 1.11,5.936 c 0.088,0.471 0.153,0.795 0.192,0.973 l 0.426,1.819 0.227,0.9 0.004,-0.024 c 0.084,0.476 0.157,0.723 0.219,0.738 0.092,0.02 0.299,-0.185 0.63,-0.618 z m 1.525,-5.307 -1.698,2.376 c -0.407,0.567 -0.668,0.838 -0.783,0.814 -0.066,-0.015 -0.146,-0.247 -0.239,-0.695 l -0.08,-0.398 -0.477,-2.514 -0.046,-0.235 c -0.023,-0.097 -0.023,-0.174 -0.011,-0.236 0.046,-0.197 0.272,-0.247 0.68,-0.154 l 2.508,0.567 c 0.219,0.051 0.311,0.136 0.284,0.255 -0.007,0.031 -0.03,0.074 -0.073,0.135 z" /></g><g
           transform="translate(128.4932,18.4056)"
           id="g206"><path
             id="path208"
             style="fill:#052b8c;fill-opacity:1;fill-rule:nonzero;stroke:none"
             d="m 0,0 0.346,-0.811 c 0.215,-0.406 0.488,-0.68 0.818,-0.819 0.334,-0.139 0.707,-0.139 1.118,0 0.272,0.093 0.438,0.054 0.491,-0.116 C 2.831,-1.908 2.681,-2.051 2.32,-2.175 2.167,-2.229 1.944,-2.29 1.644,-2.356 0.903,-2.522 0.307,-2.677 -0.138,-2.831 -0.688,-3.02 -1.114,-3.198 -1.414,-3.364 -1.671,-3.511 -1.859,-3.607 -1.982,-3.65 -2.101,-3.688 -2.201,-3.657 -2.274,-3.549 l -0.039,0.062 0.173,0.277 c 0.35,0.282 0.55,0.549 0.611,0.8 0.058,0.251 0.008,0.622 -0.157,1.105 l -0.242,0.745 -2.251,6.639 c -0.173,0.513 -0.381,0.846 -0.63,1.004 -0.254,0.154 -0.627,0.189 -1.114,0.1 -0.3,-0.05 -0.492,-0.069 -0.588,-0.054 -0.092,0.016 -0.158,0.074 -0.192,0.178 -0.054,0.154 -0.016,0.255 0.123,0.293 0.1,0.031 0.253,0.058 0.468,0.089 0.212,0.02 0.554,0.116 1.018,0.274 0.308,0.105 0.688,0.255 1.13,0.448 l 0.587,0.255 c 0.554,0.236 0.98,0.406 1.283,0.51 0.181,0.062 0.296,0.027 0.342,-0.108 C -1.717,8.964 -1.706,8.89 -1.725,8.848 -1.74,8.805 -1.802,8.755 -1.905,8.701 -2.278,8.496 -2.493,8.299 -2.555,8.106 -2.616,7.909 -2.562,7.573 -2.401,7.098 Z" /></g><g
           transform="translate(133.777,21.2182)"
           id="g210"><path
             id="path212"
             style="fill:#052b8c;fill-opacity:1;fill-rule:nonzero;stroke:none"
             d="m 0,0 c 0.465,-1.008 0.876,-1.649 1.222,-1.923 0.353,-0.271 0.81,-0.309 1.379,-0.108 0.23,0.081 0.38,0.046 0.449,-0.105 0.073,-0.15 0.015,-0.27 -0.161,-0.351 C 2.831,-2.514 2.72,-2.557 2.554,-2.615 2.082,-2.792 1.636,-2.978 1.214,-3.171 0.864,-3.337 0.553,-3.495 0.288,-3.642 l -0.634,-0.371 -0.511,-0.293 c -0.138,-0.081 -0.238,-0.139 -0.295,-0.166 -0.189,-0.089 -0.319,-0.058 -0.388,0.089 -0.054,0.119 -0.039,0.22 0.053,0.301 0.308,0.278 0.484,0.544 0.534,0.795 0.054,0.251 -0.011,0.572 -0.192,0.958 l -0.349,0.761 -0.135,0.313 -2.666,5.762 c -0.292,0.641 -0.568,1.031 -0.829,1.174 -0.423,0.236 -0.945,0.251 -1.56,0.054 -0.234,-0.069 -0.384,-0.027 -0.453,0.124 -0.069,0.154 -0.031,0.262 0.115,0.332 0.061,0.027 0.157,0.061 0.3,0.108 0.422,0.147 0.879,0.332 1.363,0.56 0.53,0.247 1.164,0.579 1.894,0.989 0.861,0.486 1.456,0.807 1.794,0.965 1.003,0.467 1.959,0.579 2.87,0.336 C 2.113,8.902 2.762,8.365 3.15,7.527 3.396,6.998 3.469,6.453 3.377,5.886 3.284,5.318 3.035,4.8 2.624,4.341 2.539,4.248 2.512,4.171 2.551,4.109 2.578,4.059 2.635,4.009 2.716,3.955 2.8,3.904 2.927,3.812 3.104,3.68 L 4.391,2.75 5.873,1.668 C 6.384,1.305 6.792,1.077 7.099,0.989 7.406,0.9 7.706,0.923 8.002,1.062 8.121,1.116 8.232,1.182 8.324,1.251 8.386,1.298 8.436,1.332 8.489,1.355 8.585,1.402 8.662,1.363 8.716,1.24 8.789,1.085 8.655,0.811 8.313,0.409 7.971,0.012 7.637,-0.263 7.302,-0.421 6.761,-0.672 6.135,-0.637 5.432,-0.313 4.725,0.012 3.661,0.749 2.239,1.904 1.683,2.364 1.279,2.63 1.018,2.699 0.764,2.769 0.426,2.707 0.008,2.514 L -0.48,2.286 -0.807,2.055 C -0.868,1.977 -0.845,1.831 -0.749,1.618 Z m -2.881,6.229 1.279,-2.761 c 0.158,-0.34 0.3,-0.533 0.427,-0.583 0.13,-0.05 0.357,0 0.687,0.154 0.937,0.437 1.514,0.726 1.721,0.865 0.208,0.14 0.369,0.344 0.48,0.618 C 1.936,5.051 1.905,5.627 1.617,6.245 1.248,7.048 0.684,7.589 -0.081,7.871 -0.841,8.153 -1.625,8.106 -2.428,7.732 -2.785,7.566 -2.996,7.373 -3.062,7.16 -3.127,6.944 -3.065,6.635 -2.881,6.229" /></g><g
           transform="translate(139.6067,34.2201)"
           id="g214"><path
             id="path216"
             style="fill:#052b8c;fill-opacity:1;fill-rule:nonzero;stroke:none"
             d="M 0,0 C 0.465,0.289 0.968,0.483 1.521,0.579 L 2.147,0.68 C 2.42,0.73 2.604,0.784 2.7,0.842 2.77,0.884 2.827,0.946 2.881,1.027 L 3.073,1.348 C 3.104,1.39 3.135,1.425 3.173,1.452 3.281,1.514 3.38,1.467 3.48,1.301 L 3.841,0.683 C 3.895,0.591 3.957,0.502 4.018,0.425 l 0.549,-0.676 0.488,-0.633 c 0.05,-0.055 0.085,-0.101 0.108,-0.144 0.13,-0.212 0.138,-0.359 0.015,-0.436 -0.088,-0.054 -0.211,0 -0.365,0.162 -0.572,0.611 -1.298,0.989 -2.189,1.136 -0.888,0.147 -1.656,0.015 -2.301,-0.386 -0.442,-0.278 -0.734,-0.672 -0.88,-1.182 -0.142,-0.514 -0.088,-0.973 0.165,-1.387 0.234,-0.382 0.584,-0.622 1.045,-0.722 0.3,-0.062 1.06,0.012 2.289,0.224 1.46,0.247 2.524,0.255 3.189,0.027 C 6.922,-3.87 7.564,-4.403 8.048,-5.195 8.578,-6.063 8.735,-7.014 8.509,-8.049 8.286,-9.08 7.76,-9.856 6.93,-10.377 6.588,-10.59 5.977,-10.81 5.097,-11.038 c -0.414,-0.1 -0.714,-0.185 -0.898,-0.251 -0.254,-0.097 -0.411,-0.135 -0.473,-0.116 -0.065,0.019 -0.173,0.128 -0.33,0.328 -0.169,0.217 -0.45,0.514 -0.845,0.881 -0.603,0.56 -0.965,0.939 -1.08,1.128 -0.146,0.239 -0.146,0.405 0.008,0.502 0.069,0.042 0.154,0.015 0.257,-0.085 0.765,-0.707 1.625,-1.167 2.582,-1.375 0.952,-0.212 1.747,-0.116 2.389,0.286 0.496,0.313 0.822,0.784 0.976,1.413 0.157,0.634 0.08,1.198 -0.227,1.696 -0.242,0.394 -0.542,0.652 -0.899,0.78 -0.361,0.127 -0.864,0.143 -1.502,0.054 L 3.619,-5.994 C 2.27,-6.176 1.271,-6.176 0.63,-5.982 c -0.642,0.189 -1.179,0.637 -1.613,1.347 -0.507,0.827 -0.665,1.68 -0.477,2.569 C -1.275,-1.182 -0.787,-0.495 0,0" /></g><g
           transform="translate(152.922,44.4697)"
           id="g218"><path
             id="path220"
             style="fill:#052b8c;fill-opacity:1;fill-rule:nonzero;stroke:none"
             d="M 0,0 C 0.027,0.031 0.081,0.069 0.165,0.116 0.25,0.17 0.43,0.313 0.711,0.545 l 0.714,0.594 0.607,0.603 c 0.2,0.212 0.369,0.409 0.515,0.579 0.069,0.077 0.134,0.147 0.2,0.209 0.119,0.104 0.226,0.1 0.33,-0.016 C 3.158,2.425 3.15,2.325 3.058,2.209 l -0.2,-0.27 C 2.574,1.576 2.731,1.058 3.334,0.39 L 3.849,-0.174 4.56,-0.989 C 5.689,-2.244 6.538,-3.314 7.11,-4.194 7.679,-5.079 8.017,-5.851 8.121,-6.515 8.382,-8.126 7.74,-9.636 6.192,-11.053 5.097,-12.057 4.06,-12.625 3.081,-12.76 c -1.333,-0.182 -2.735,0.548 -4.21,2.186 l -2.198,2.591 -1.087,1.17 c -0.265,0.294 -0.48,0.479 -0.649,0.545 -0.169,0.069 -0.38,0.065 -0.638,-0.012 -0.303,-0.092 -0.603,-0.239 -0.898,-0.44 -0.193,-0.127 -0.335,-0.135 -0.431,-0.031 -0.1,0.116 -0.08,0.239 0.066,0.375 0.046,0.042 0.138,0.115 0.28,0.22 0.592,0.448 1.033,0.803 1.329,1.073 0.419,0.387 0.864,0.835 1.329,1.352 0.188,0.205 0.331,0.348 0.423,0.429 0.219,0.205 0.392,0.243 0.507,0.116 0.061,-0.07 0.088,-0.136 0.077,-0.193 -0.012,-0.058 -0.069,-0.159 -0.173,-0.306 -0.215,-0.289 -0.3,-0.552 -0.261,-0.78 0.042,-0.228 0.242,-0.563 0.599,-1.004 l 1.375,-1.741 1.053,-1.144 c 0.948,-1.054 1.678,-1.753 2.185,-2.097 0.511,-0.347 1.08,-0.521 1.71,-0.525 0.952,-0.008 1.836,0.359 2.646,1.101 0.83,0.76 1.276,1.622 1.337,2.583 0.046,0.649 -0.153,1.364 -0.588,2.14 C 6.43,-4.376 5.67,-3.387 4.587,-2.178 L 4.11,-1.649 2.877,-0.344 C 2.485,0.038 2.082,0.239 1.656,0.259 1.229,0.278 0.826,0.116 0.446,-0.236 0.277,-0.386 0.138,-0.402 0.019,-0.27 -0.073,-0.17 -0.081,-0.081 0,0" /></g><g
           transform="translate(159.826,48.8928)"
           id="g222"><path
             id="path224"
             style="fill:#052b8c;fill-opacity:1;fill-rule:nonzero;stroke:none"
             d="M 0,0 6.953,0.344 7.395,0.367 C 7.99,0.398 8.328,0.463 8.413,0.568 8.486,0.664 8.393,0.83 8.121,1.062 7.145,1.915 6.204,2.707 5.29,3.441 4.222,4.306 3.411,4.781 2.858,4.87 2.309,4.955 1.759,4.704 1.202,4.105 1.076,3.962 0.96,3.928 0.864,4.009 0.745,4.105 0.738,4.221 0.841,4.352 0.972,4.519 1.206,4.766 1.544,5.094 1.759,5.31 1.932,5.496 2.055,5.65 2.309,5.967 2.662,6.5 3.123,7.257 3.188,7.357 3.234,7.423 3.269,7.465 3.384,7.612 3.507,7.635 3.638,7.527 3.753,7.434 3.765,7.307 3.672,7.141 3.311,6.465 3.599,5.75 4.533,4.997 L 4.871,4.727 9.066,1.185 9.63,0.687 l 0.753,-0.618 0.526,-0.413 0.876,-0.66 c 0.131,-0.105 0.154,-0.201 0.073,-0.286 -0.069,-0.081 -0.184,-0.124 -0.349,-0.135 L -0.373,-2.078 C -0.58,-2.089 -0.699,-2.117 -0.73,-2.159 -0.818,-2.267 -0.757,-2.406 -0.557,-2.568 l 0.196,-0.17 2.654,-2.136 c 1.414,-1.143 2.42,-1.835 3.012,-2.078 0.63,-0.262 1.271,-0.05 1.932,0.634 0.123,0.127 0.234,0.146 0.338,0.065 0.138,-0.112 0.15,-0.239 0.039,-0.382 C 7.571,-6.689 7.491,-6.77 7.372,-6.878 7.003,-7.21 6.634,-7.612 6.258,-8.076 5.893,-8.539 5.597,-8.976 5.374,-9.389 5.274,-9.57 5.193,-9.698 5.136,-9.771 5.036,-9.895 4.932,-9.91 4.817,-9.821 c -0.092,0.073 -0.104,0.193 -0.035,0.355 0.169,0.409 0.166,0.811 -0.011,1.205 -0.173,0.394 -0.542,0.815 -1.103,1.267 l -1.586,1.355 -2.962,2.387 c -1.402,1.132 -2.554,1.205 -3.449,0.228 -0.123,-0.131 -0.238,-0.158 -0.346,-0.07 -0.127,0.105 -0.131,0.236 -0.008,0.391 l 0.396,0.455 0.223,0.294 c 0.284,0.359 0.568,0.757 0.853,1.197 0.107,0.162 0.199,0.293 0.28,0.394 0.111,0.139 0.231,0.228 0.361,0.259 0.123,0.034 0.453,0.054 0.976,0.065 l 0.929,0.023 C -0.296,-0.004 -0.073,0 0,0" /></g><g
           transform="translate(172.6108,54.2983)"
           id="g226"><path
             id="path228"
             style="fill:#052b8c;fill-opacity:1;fill-rule:nonzero;stroke:none"
             d="m 0,0 0.78,-0.409 c 0.418,-0.182 0.799,-0.224 1.145,-0.12 0.345,0.1 0.637,0.336 0.871,0.711 C 2.946,0.421 3.1,0.494 3.25,0.401 3.396,0.309 3.365,0.1 3.165,-0.22 3.077,-0.359 2.942,-0.549 2.754,-0.792 2.278,-1.387 1.917,-1.885 1.663,-2.286 1.356,-2.781 1.133,-3.19 1.006,-3.511 0.899,-3.785 0.811,-3.978 0.741,-4.086 0.676,-4.198 0.58,-4.233 0.453,-4.194 l -0.069,0.023 -0.038,0.324 c 0.092,0.437 0.084,0.773 -0.027,1.008 -0.112,0.232 -0.384,0.487 -0.811,0.757 l -0.657,0.425 -5.904,3.738 C -7.51,2.371 -7.882,2.495 -8.174,2.46 -8.466,2.421 -8.774,2.213 -9.104,1.834 -9.3,1.606 -9.442,1.471 -9.523,1.421 -9.607,1.375 -9.692,1.379 -9.784,1.436 c -0.138,0.089 -0.169,0.19 -0.088,0.306 0.057,0.089 0.161,0.208 0.307,0.363 0.15,0.154 0.361,0.44 0.622,0.861 0.173,0.278 0.373,0.633 0.596,1.062 L -8.048,4.6 c 0.281,0.533 0.507,0.934 0.68,1.205 0.1,0.166 0.212,0.208 0.331,0.131 0.092,-0.058 0.146,-0.108 0.157,-0.151 0.015,-0.046 0,-0.119 -0.046,-0.228 C -7.091,5.163 -7.133,4.87 -7.06,4.681 -6.984,4.491 -6.734,4.263 -6.311,3.993 Z" /></g><g
           transform="translate(171.3539,62.1495)"
           id="g230"><path
             id="path232"
             style="fill:#052b8c;fill-opacity:1;fill-rule:nonzero;stroke:none"
             d="m 0,0 5.155,-0.359 c 0.227,-0.016 0.361,0.011 0.396,0.069 0.034,0.058 -0.008,0.155 -0.127,0.298 L 2.355,3.723 C 1.352,4.943 0.561,5.693 -0.008,5.975 -0.334,6.133 -0.653,6.148 -0.972,6.025 -1.291,5.897 -1.586,5.635 -1.855,5.241 -1.967,5.067 -2.082,5.013 -2.209,5.071 c -0.119,0.062 -0.15,0.158 -0.088,0.289 0.034,0.07 0.111,0.213 0.23,0.433 l 0.45,0.803 c 0.2,0.359 0.338,0.622 0.418,0.777 0.235,0.478 0.4,0.907 0.508,1.29 0.049,0.146 0.088,0.254 0.122,0.328 0.047,0.096 0.135,0.108 0.269,0.042 C -0.177,8.975 -0.138,8.856 -0.181,8.686 -0.273,8.35 -0.238,8.025 -0.077,7.709 0.084,7.392 0.48,6.859 1.11,6.106 L 3.254,3.599 5.562,0.792 C 6.323,-0.124 6.722,-0.614 6.776,-0.684 7.218,-1.255 7.475,-1.58 7.548,-1.661 7.736,-1.877 7.79,-2.059 7.721,-2.209 7.671,-2.31 7.567,-2.36 7.414,-2.356 L 6.926,-2.34 6.35,-2.302 1.206,-2.086 c -1.256,0.055 -2.374,0.132 -3.346,0.232 -1.141,0.112 -1.917,0.139 -2.331,0.081 -0.411,-0.062 -0.746,-0.258 -1.003,-0.587 -0.146,-0.189 -0.288,-0.251 -0.419,-0.185 -0.146,0.073 -0.18,0.181 -0.107,0.328 0.019,0.042 0.061,0.116 0.13,0.228 0.162,0.251 0.327,0.556 0.504,0.911 l 0.68,1.302 0.361,0.846 c 0.149,0.363 0.249,0.594 0.299,0.699 0.073,0.146 0.181,0.185 0.327,0.116 C -3.58,1.823 -3.549,1.672 -3.615,1.429 -3.734,1.008 -3.603,0.703 -3.219,0.514 -2.747,0.282 -1.675,0.112 0,0" /></g><g
           transform="translate(173.4248,72.8653)"
           id="g234"><path
             id="path236"
             style="fill:#052b8c;fill-opacity:1;fill-rule:nonzero;stroke:none"
             d="m 0,0 1.805,-0.607 c 0.515,-0.173 0.853,-0.247 1.018,-0.22 0.162,0.031 0.292,0.19 0.388,0.476 L 3.284,-0.097 3.4,0.27 3.638,0.977 c 0.18,0.548 0.023,1.074 -0.484,1.58 L 2.808,2.885 C 2.727,2.966 2.7,3.066 2.735,3.186 2.77,3.31 2.866,3.344 3.023,3.294 3.065,3.279 3.184,3.229 3.377,3.144 3.519,3.086 3.638,3.039 3.741,3.005 3.918,2.947 4.345,2.831 5.017,2.661 5.455,2.549 5.835,2.441 6.15,2.332 L 6.576,2.197 C 6.653,2.174 6.703,2.147 6.726,2.12 6.753,2.089 6.757,2.035 6.742,1.969 6.707,1.827 6.569,1.776 6.338,1.815 5.843,1.904 5.432,1.857 5.101,1.68 4.917,1.58 4.775,1.433 4.667,1.236 4.56,1.043 4.406,0.66 4.218,0.089 L 4.03,-0.479 C 3.941,-0.742 3.922,-0.939 3.968,-1.062 4.014,-1.186 4.156,-1.305 4.391,-1.421 4.656,-1.549 5.086,-1.711 5.685,-1.912 L 6.43,-2.163 c 0.78,-0.263 1.364,-0.39 1.748,-0.386 0.281,0.011 0.484,0.066 0.619,0.162 0.13,0.101 0.242,0.282 0.326,0.549 C 9.876,0.413 9.68,2.113 8.543,3.267 8.489,3.329 8.462,3.375 8.466,3.402 8.474,3.464 8.509,3.507 8.57,3.541 8.635,3.568 8.705,3.572 8.774,3.549 9.319,3.368 9.799,3.043 10.214,2.576 10.564,2.186 10.775,1.776 10.836,1.348 10.902,0.919 10.833,0.405 10.633,-0.201 10.514,-0.556 10.36,-0.942 10.172,-1.36 L 9.761,-2.294 C 9.607,-2.638 9.434,-3.113 9.231,-3.715 9.096,-4.121 8.916,-4.743 8.693,-5.588 8.635,-5.82 8.585,-5.986 8.555,-6.087 8.509,-6.218 8.42,-6.272 8.293,-6.241 8.19,-6.21 8.136,-6.125 8.128,-5.979 8.109,-5.623 8.051,-5.365 7.955,-5.206 7.856,-5.048 7.644,-4.874 7.318,-4.692 7.045,-4.53 6.657,-4.368 6.154,-4.198 l -6.588,2.217 c -0.619,0.208 -1.076,0.247 -1.36,0.119 C -2.082,-1.989 -2.378,-2.356 -2.681,-2.966 -2.75,-3.109 -2.858,-3.155 -3,-3.109 c -0.131,0.046 -0.165,0.158 -0.104,0.344 0.012,0.038 0.046,0.115 0.1,0.243 0.038,0.096 0.085,0.232 0.142,0.405 l 0.311,0.827 1.087,3.14 c 0.604,1.815 0.949,2.939 1.041,3.379 0.008,0.046 0.02,0.085 0.027,0.12 0.058,0.158 0.173,0.208 0.358,0.147 C 0.088,5.453 0.323,5.395 0.661,5.318 1.156,5.198 1.513,5.105 1.721,5.032 2.143,4.893 2.324,4.712 2.263,4.491 2.236,4.383 2.094,4.372 1.844,4.457 1.291,4.642 0.826,4.577 0.446,4.256 0.061,3.939 -0.28,3.329 -0.576,2.433 L -0.914,1.417 -1.037,0.83 C -1.041,0.517 -0.811,0.282 -0.338,0.124 Z" /></g><g
           transform="translate(182.4035,80.5166)"
           id="g238"><path
             id="path240"
             style="fill:#052b8c;fill-opacity:1;fill-rule:nonzero;stroke:none"
             d="M 0,0 C 1.087,-0.213 1.844,-0.255 2.27,-0.128 2.697,0 2.992,0.351 3.165,0.931 3.234,1.17 3.35,1.271 3.515,1.24 3.676,1.209 3.741,1.093 3.699,0.9 3.692,0.838 3.661,0.722 3.607,0.552 3.473,0.066 3.361,-0.406 3.273,-0.865 3.2,-1.251 3.146,-1.595 3.111,-1.896 L 3.038,-2.634 2.977,-3.221 C 2.962,-3.383 2.946,-3.499 2.935,-3.561 2.896,-3.766 2.8,-3.855 2.639,-3.824 2.512,-3.8 2.443,-3.727 2.428,-3.607 2.382,-3.19 2.27,-2.889 2.097,-2.703 1.921,-2.514 1.625,-2.379 1.21,-2.298 l -0.814,0.158 -0.335,0.074 -6.219,1.205 c -0.687,0.131 -1.164,0.135 -1.433,0.007 -0.437,-0.204 -0.756,-0.621 -0.96,-1.243 -0.077,-0.228 -0.2,-0.325 -0.365,-0.294 -0.161,0.031 -0.226,0.128 -0.2,0.29 0.016,0.062 0.043,0.162 0.089,0.305 0.13,0.433 0.246,0.912 0.346,1.441 0.115,0.579 0.215,1.289 0.311,2.128 0.111,0.984 0.203,1.66 0.272,2.027 0.212,1.093 0.68,1.939 1.414,2.541 0.73,0.603 1.548,0.815 2.447,0.642 0.572,-0.109 1.056,-0.371 1.46,-0.777 0.407,-0.409 0.676,-0.915 0.81,-1.522 0.023,-0.123 0.069,-0.189 0.138,-0.196 0.062,-0.004 0.135,0.011 0.227,0.046 0.088,0.039 0.238,0.089 0.446,0.154 L 0.35,5.191 2.094,5.774 C 2.685,5.975 3.108,6.175 3.361,6.372 3.611,6.573 3.768,6.832 3.83,7.152 3.853,7.284 3.868,7.411 3.868,7.531 3.861,7.604 3.864,7.666 3.876,7.724 3.899,7.828 3.972,7.867 4.103,7.844 4.272,7.809 4.414,7.539 4.537,7.029 4.66,6.515 4.686,6.079 4.617,5.716 4.502,5.125 4.11,4.638 3.434,4.252 2.758,3.866 1.537,3.429 -0.227,2.947 -0.926,2.757 -1.375,2.583 -1.583,2.414 -1.79,2.248 -1.936,1.935 -2.024,1.483 L -2.128,0.946 -2.132,0.545 c 0.031,-0.093 0.158,-0.163 0.388,-0.209 z m -6.719,1.301 2.977,-0.575 c 0.369,-0.074 0.611,-0.07 0.727,0.008 0.115,0.073 0.207,0.289 0.276,0.645 0.192,1.027 0.296,1.664 0.307,1.915 C -2.42,3.545 -2.493,3.796 -2.647,4.047 -2.946,4.542 -3.43,4.851 -4.095,4.982 -4.963,5.148 -5.731,5.005 -6.404,4.545 -7.08,4.09 -7.498,3.425 -7.667,2.549 -7.744,2.159 -7.713,1.873 -7.575,1.695 -7.441,1.518 -7.156,1.386 -6.719,1.301" /></g><g
           transform="translate(175.2928,92.809)"
           id="g242"><path
             id="path244"
             style="fill:#052b8c;fill-opacity:1;fill-rule:nonzero;stroke:none"
             d="M 0,0 C 0.038,0.548 0.181,1.077 0.426,1.587 L 0.711,2.155 C 0.834,2.41 0.899,2.591 0.907,2.703 0.91,2.784 0.899,2.873 0.864,2.962 L 0.718,3.306 C 0.699,3.356 0.691,3.402 0.695,3.449 0.703,3.572 0.803,3.626 0.995,3.611 L 1.706,3.545 C 1.817,3.537 1.921,3.537 2.021,3.541 L 2.885,3.595 3.688,3.63 C 3.761,3.634 3.818,3.638 3.864,3.634 4.114,3.619 4.237,3.534 4.225,3.391 4.218,3.283 4.103,3.217 3.88,3.186 3.05,3.07 2.32,2.696 1.679,2.051 1.037,1.41 0.691,0.707 0.638,-0.058 0.599,-0.583 0.749,-1.054 1.072,-1.472 c 0.33,-0.417 0.733,-0.641 1.217,-0.675 0.446,-0.028 0.846,0.116 1.195,0.44 0.227,0.205 0.611,0.873 1.164,2.004 C 5.313,1.641 5.927,2.518 6.503,2.931 7.195,3.418 8.002,3.626 8.92,3.565 9.938,3.495 10.798,3.066 11.497,2.278 12.2,1.491 12.519,0.602 12.45,-0.383 12.419,-0.784 12.242,-1.414 11.904,-2.267 11.743,-2.665 11.635,-2.962 11.582,-3.152 11.509,-3.414 11.447,-3.569 11.393,-3.607 11.344,-3.65 11.19,-3.673 10.936,-3.685 10.66,-3.696 10.256,-3.758 9.73,-3.866 8.92,-4.032 8.405,-4.109 8.182,-4.09 c -0.276,0.015 -0.411,0.116 -0.399,0.297 0.003,0.081 0.08,0.136 0.219,0.163 1.025,0.216 1.897,0.652 2.627,1.313 0.73,0.66 1.122,1.367 1.172,2.128 0.042,0.59 -0.146,1.131 -0.565,1.625 C 10.817,1.935 10.318,2.201 9.738,2.244 9.277,2.275 8.889,2.178 8.574,1.958 8.263,1.734 7.955,1.336 7.652,0.757 L 6.964,-0.533 C 6.319,-1.75 5.731,-2.564 5.201,-2.978 4.671,-3.395 3.991,-3.573 3.161,-3.515 2.197,-3.449 1.417,-3.078 0.811,-2.406 0.204,-1.734 -0.065,-0.935 0,0" /></g><g
           transform="translate(184.96,100.9197)"
           id="g246"><path
             id="path248"
             style="fill:#052b8c;fill-opacity:1;fill-rule:nonzero;stroke:none"
             d="M 0,0 0.876,0.085 C 1.321,0.162 1.667,0.34 1.901,0.614 2.136,0.892 2.247,1.247 2.239,1.688 2.236,1.973 2.324,2.116 2.501,2.12 2.674,2.124 2.766,1.935 2.77,1.556 2.773,1.39 2.762,1.159 2.735,0.853 2.662,0.093 2.627,-0.525 2.639,-1 2.647,-1.584 2.685,-2.047 2.75,-2.383 2.808,-2.677 2.843,-2.885 2.843,-3.013 2.846,-3.144 2.785,-3.225 2.658,-3.264 L 2.589,-3.279 2.378,-3.028 C 2.22,-2.611 2.032,-2.337 1.809,-2.201 1.59,-2.07 1.222,-2.005 0.718,-2.012 l -0.779,-0.008 -6.98,-0.116 c -0.538,-0.008 -0.918,-0.108 -1.141,-0.297 -0.227,-0.193 -0.373,-0.537 -0.442,-1.035 -0.042,-0.298 -0.084,-0.491 -0.127,-0.576 -0.046,-0.085 -0.119,-0.131 -0.222,-0.131 -0.166,-0.004 -0.25,0.066 -0.246,0.205 0.004,0.108 0.027,0.266 0.061,0.475 0.046,0.212 0.062,0.564 0.054,1.062 -0.008,0.328 -0.031,0.734 -0.077,1.22 l -0.061,0.637 c -0.054,0.603 -0.085,1.063 -0.089,1.383 -0.003,0.197 0.066,0.294 0.208,0.294 0.107,0.003 0.18,-0.012 0.215,-0.039 0.034,-0.027 0.065,-0.1 0.084,-0.216 0.077,-0.421 0.2,-0.692 0.361,-0.808 0.169,-0.115 0.504,-0.17 1.007,-0.162 z" /></g><g
           transform="translate(177.1778,108.7581)"
           id="g250"><path
             id="path252"
             style="fill:#052b8c;fill-opacity:1;fill-rule:nonzero;stroke:none"
             d="M 0,0 6.553,0.784 C 7.533,0.9 8.213,1.124 8.585,1.46 8.962,1.792 9.131,2.321 9.092,3.047 9.089,3.26 9.177,3.375 9.365,3.398 9.5,3.414 9.58,3.333 9.603,3.151 9.603,3.113 9.611,3.039 9.619,2.935 L 9.669,2.275 9.73,1.182 C 9.734,1.093 9.742,0.977 9.761,0.83 9.799,0.494 9.845,0.193 9.895,-0.074 l 0.338,-1.907 c 0.046,-0.201 0.073,-0.34 0.085,-0.414 0.019,-0.181 -0.046,-0.278 -0.2,-0.293 C 9.988,-2.696 9.899,-2.677 9.853,-2.63 9.811,-2.58 9.772,-2.472 9.742,-2.298 9.657,-1.85 9.45,-1.518 9.123,-1.309 8.797,-1.097 8.374,-1.024 7.859,-1.081 L 7.448,-1.143 -0.277,-2.066 c -0.461,-0.054 -0.66,-0.329 -0.603,-0.819 0.139,-1.163 0.319,-1.947 0.534,-2.348 0.165,-0.294 0.334,-0.479 0.507,-0.564 0.169,-0.081 0.584,-0.174 1.241,-0.27 L 1.656,-6.11 C 1.901,-6.145 2.032,-6.23 2.047,-6.361 2.07,-6.554 1.99,-6.654 1.809,-6.666 1.644,-6.678 1.414,-6.678 1.122,-6.658 L 0.35,-6.662 -0.434,-6.651 h -0.538 c -0.23,-0.003 -0.357,0.105 -0.384,0.325 -0.004,0.058 -0.012,0.158 -0.015,0.297 -0.012,0.228 -0.043,0.552 -0.089,0.969 l -0.192,1.781 -0.223,2.116 c -0.161,1.368 -0.368,2.808 -0.622,4.326 -0.05,0.301 -0.077,0.494 -0.088,0.579 -0.039,0.321 0.077,0.506 0.342,0.556 l 0.618,0.116 c 0.1,0.019 0.334,0.077 0.695,0.174 0.304,0.077 0.55,0.127 0.734,0.147 C -0.004,4.758 0.1,4.692 0.119,4.534 0.134,4.403 0.035,4.295 -0.181,4.217 -0.711,4.032 -1.072,3.75 -1.271,3.375 -1.467,3.001 -1.529,2.487 -1.452,1.831 -1.348,0.946 -1.214,0.405 -1.049,0.205 -0.887,0.004 -0.538,-0.066 0,0" /></g><g
           transform="translate(180.0815,120.4659)"
           id="g254"><path
             id="path256"
             style="fill:#052b8c;fill-opacity:1;fill-rule:nonzero;stroke:none"
             d="M 0,0 2.501,0.66 3.065,0.853 C 3.68,1.116 3.88,1.773 3.668,2.823 3.63,3.005 3.688,3.116 3.837,3.159 4.003,3.202 4.122,3.097 4.187,2.842 4.222,2.707 4.249,2.557 4.275,2.394 L 4.483,1.166 c 0.031,-0.228 0.107,-0.56 0.223,-1 0.272,-1.054 0.487,-1.746 0.641,-2.082 0.1,-0.22 0.165,-0.382 0.192,-0.49 C 5.574,-2.538 5.493,-2.626 5.305,-2.677 5.201,-2.703 5.12,-2.642 5.051,-2.491 4.786,-1.885 4.471,-1.51 4.11,-1.367 3.745,-1.224 3.184,-1.251 2.428,-1.452 L 0.811,-1.877 c -0.381,-0.1 -0.738,-0.328 -1.08,-0.684 -0.411,-0.421 -0.906,-0.9 -1.49,-1.433 l -2.086,-1.927 c -0.838,-0.768 -1.199,-1.506 -1.091,-2.213 0.038,-0.216 -0.012,-0.339 -0.158,-0.378 -0.18,-0.046 -0.288,0.008 -0.33,0.166 -0.035,0.139 -0.077,0.363 -0.119,0.672 -0.092,0.629 -0.204,1.19 -0.33,1.684 -0.123,0.46 -0.269,0.915 -0.442,1.375 -0.127,0.344 -0.204,0.571 -0.235,0.691 -0.061,0.236 -0.019,0.375 0.123,0.409 0.123,0.035 0.227,-0.042 0.319,-0.224 0.196,-0.409 0.442,-0.579 0.738,-0.502 0.238,0.062 0.703,0.406 1.394,1.031 l 1.114,1.001 c 0.45,0.405 0.734,0.66 0.857,0.757 0.342,0.297 0.491,0.536 0.442,0.714 -0.047,0.182 -0.396,0.344 -1.049,0.483 -0.165,0.035 -0.557,0.131 -1.179,0.293 -1.28,0.325 -2.059,0.449 -2.344,0.375 -0.238,-0.066 -0.422,-0.263 -0.56,-0.591 -0.135,-0.332 -0.177,-0.683 -0.116,-1.046 0.023,-0.186 -0.023,-0.294 -0.138,-0.325 -0.177,-0.046 -0.284,0 -0.327,0.151 -0.038,0.158 -0.069,0.305 -0.088,0.436 l -0.069,0.583 C -7.46,-0.151 -7.521,0.135 -7.61,0.479 -7.66,0.668 -7.721,0.873 -7.798,1.093 l -0.227,0.703 c -0.057,0.177 -0.123,0.398 -0.192,0.664 -0.038,0.154 0.004,0.247 0.139,0.282 0.119,0.031 0.23,-0.046 0.33,-0.24 0.211,-0.393 0.492,-0.687 0.837,-0.876 0.346,-0.193 0.957,-0.386 1.837,-0.583 1.571,-0.352 2.907,-0.703 4.006,-1.051 0.208,-0.073 0.365,-0.108 0.48,-0.104 0.116,0 0.311,0.038 0.588,0.112" /></g></g></g></g></svg>