<?xml version="1.0" encoding="UTF-8" standalone="no"?>
<!-- Created with Inkscape (http://www.inkscape.org/) -->

<svg
   width="83.479767mm"
   height="83.481003mm"
   viewBox="0 0 83.479766 83.481002"
   version="1.1"
   id="svg1"
   xmlns="http://www.w3.org/2000/svg"
   xmlns:svg="http://www.w3.org/2000/svg">
  <defs
     id="defs1" />
  <g
     id="layer1"
     transform="translate(-80.469145,-106.39799)">
    <path
       id="path2598"
       style="fill:#009ee0;fill-rule:evenodd;stroke-width:2.98599"
       d="m 80.469145,148.13793 c 0,23.01617 18.723095,41.74106 41.739265,41.74106 23.0156,0 41.7405,-18.72489 41.7405,-41.74106 0,-23.01617 -18.7249,-41.73994 -41.7405,-41.73994 -23.01617,0 -41.739265,18.72377 -41.739265,41.73994 z m 82.084165,0 c 0,22.28248 -18.06332,40.34479 -40.3449,40.34479 -22.281019,0 -40.343336,-18.06231 -40.343336,-40.34479 0,-22.28102 18.062317,-40.34424 40.343336,-40.34424 22.28158,0 40.3449,18.06322 40.3449,40.34424 z m -77.651819,-3.05414 1.911685,-0.0903 -0.0023,0.12753 c -0.575571,0.158 -0.992013,0.395 -1.24944,0.70649 -0.257314,0.31035 -0.390485,0.69181 -0.399514,1.1359 -0.009,0.3713 0.079,0.711 0.264086,1.01459 0.181699,0.30471 0.478513,0.54848 0.889313,0.72905 0.410799,0.18057 0.922041,0.27763 1.538692,0.2923 0.507857,0.009 0.950256,-0.0677 1.326408,-0.21894 0.374686,-0.15348 0.666985,-0.39613 0.871256,-0.71777 0.2054,-0.32277 0.312614,-0.69294 0.321643,-1.11503 0.0068,-0.3634 -0.06771,-0.68842 -0.214428,-0.96831 -0.1501,-0.28101 -0.453686,-0.59363 -0.910756,-0.93671 l 0.09029,-0.12753 c 0.493185,0.29117 0.853199,0.62861 1.076656,1.00894 0.223457,0.3792 0.330671,0.82498 0.320514,1.34492 -0.02257,0.92881 -0.3792,1.64026 -1.078913,2.13864 -0.521399,0.36904 -1.129924,0.54622 -1.825349,0.53381 -0.559771,-0.0113 -1.072142,-0.14784 -1.535758,-0.40967 -0.463843,-0.2607 -0.821599,-0.61169 -1.069885,-1.05973 -0.249414,-0.44353 -0.367913,-0.92655 -0.357756,-1.44976 0.009,-0.40516 0.117371,-0.80354 0.321642,-1.1929 0.06771,-0.11624 0.09029,-0.19975 0.101571,-0.24828 0.0023,-0.079 -0.02257,-0.13882 -0.079,-0.19637 -0.06772,-0.0677 -0.174929,-0.12527 -0.306972,-0.15575 z m 3.145776,-2.7791 0.533814,-2.55001 -1.572662,-0.32954 c -0.281014,-0.0564 -0.469486,-0.079 -0.565414,-0.0677 -0.06771,0.0113 -0.143328,0.0564 -0.209914,0.1343 -0.09029,0.10157 -0.147843,0.21668 -0.1738,0.34872 l -0.04514,0.19299 -0.148971,-0.0339 0.490928,-2.34821 0.1501,0.0339 -0.04514,0.19186 c -0.03386,0.13091 -0.02257,0.26183 0.01129,0.38936 0.02257,0.0903 0.079,0.16815 0.159128,0.21894 0.079,0.0451 0.257314,0.10157 0.525914,0.15574 l 3.546757,0.74373 c 0.276499,0.0564 0.463842,0.079 0.560899,0.0564 0.079,-0.0113 0.1422,-0.0564 0.208785,-0.12866 0.09029,-0.10157 0.147843,-0.22233 0.174929,-0.35098 l 0.04514,-0.1975 0.151228,0.0339 -0.493185,2.35172 -0.148971,-0.0339 0.04514,-0.19411 c 0.04514,-0.22572 0.01129,-0.40065 -0.09028,-0.53156 -0.06771,-0.0903 -0.274243,-0.16251 -0.601528,-0.23136 l -1.674346,-0.35211 -0.534943,2.55339 1.672767,0.34986 c 0.277628,0.0564 0.466099,0.079 0.562028,0.0564 0.079,-0.0113 0.144457,-0.0564 0.208785,-0.13091 0.09029,-0.10157 0.148971,-0.2212 0.174929,-0.34873 l 0.04514,-0.19863 0.148972,0.0339 -0.492057,2.35623 -0.1501,-0.0339 0.04514,-0.19411 c 0.04514,-0.22684 0.01129,-0.40516 -0.09029,-0.53607 -0.079,-0.079 -0.274242,-0.16026 -0.603785,-0.22572 l -3.545064,-0.7426 c -0.281014,-0.0564 -0.469485,-0.079 -0.566542,-0.0677 -0.06771,0.0113 -0.143328,0.0564 -0.209914,0.13091 -0.09028,0.10158 -0.147842,0.22233 -0.174928,0.35212 l -0.04514,0.19524 -0.151228,-0.0339 0.493185,-2.35386 0.1501,0.0339 -0.04514,0.19637 c -0.02257,0.13092 -0.02257,0.26183 0.01129,0.38936 0.02257,0.0903 0.079,0.16477 0.159129,0.21781 0.079,0.0451 0.255057,0.10158 0.525913,0.15913 l 1.573678,0.32729 z m 3.630158,-7.99615 -0.847556,2.00208 0.666985,0.69633 c 0.163643,0.17267 0.295686,0.27763 0.393871,0.31939 0.079,0.0339 0.164771,0.0226 0.257314,-0.0226 0.09029,-0.0451 0.1975,-0.19412 0.321643,-0.43563 l 0.139942,0.0564 -0.689556,1.62559 -0.141071,-0.0564 c 0.05643,-0.23136 0.06771,-0.39161 0.03386,-0.4819 -0.06771,-0.18283 -0.2528,-0.42998 -0.560899,-0.74598 l -3.48446,-3.62271 0.05643,-0.13317 5.064232,0.0226 c 0.408543,9e-4 0.687299,-0.0339 0.839656,-0.11286 0.154615,-0.079 0.283272,-0.21443 0.383714,-0.41983 l 0.141071,0.0564 -0.864484,2.04034 -0.141071,-0.0564 c 0.079,-0.21104 0.101571,-0.36452 0.079,-0.46158 -0.03386,-0.10157 -0.079,-0.16364 -0.168157,-0.19863 -0.112857,-0.0451 -0.310357,-0.0677 -0.594757,-0.0677 l -0.87577,-0.005 z m -0.327285,-0.0113 v 0 l -2.460508,-0.007 1.706849,1.7845 z m -1.767115,-4.38913 0.855456,-1.25971 5.409462,-0.47851 -2.678999,-1.81609 c -0.286657,-0.19412 -0.485286,-0.2844 -0.6004,-0.26973 -0.153485,0.0226 -0.291171,0.12301 -0.415313,0.30697 l -0.112857,0.15913 -0.1264,-0.0903 1.095841,-1.61814 0.1264,0.0903 -0.112857,0.16816 c -0.133171,0.19411 -0.168157,0.37581 -0.101571,0.53833 0.04514,0.10157 0.1896,0.23474 0.449171,0.41418 l 3.917949,2.65451 -0.079,0.12415 -5.819138,0.52704 2.862166,1.93888 c 0.285528,0.19412 0.484157,0.2844 0.597014,0.27199 0.153485,-0.0226 0.292299,-0.12415 0.414185,-0.30697 l 0.112857,-0.16365 0.127528,0.0903 -1.095841,1.6169 -0.1264,-0.0903 0.112857,-0.16026 c 0.135428,-0.1975 0.171543,-0.3792 0.112857,-0.54284 -0.03386,-0.10158 -0.188471,-0.23813 -0.449171,-0.41419 l -3.231773,-2.18909 c -0.249414,0.0226 -0.422085,0.0564 -0.519142,0.0903 -0.101572,0.0339 -0.214429,0.10157 -0.349857,0.21104 -0.06771,0.0564 -0.143328,0.14559 -0.233614,0.27989 z m 7.792556,-9.7663 1.353945,1.15261 -0.101571,0.10157 c -0.415314,-0.20879 -0.784356,-0.31036 -1.105998,-0.30697 -0.464977,0.007 -0.883676,0.19637 -1.25317,0.56541 -0.507857,0.50334 -0.692942,1.08907 -0.557514,1.75256 0.116243,0.55751 0.406285,1.07214 0.873513,1.53959 0.376943,0.37694 0.795648,0.65119 1.25317,0.81709 0.4582,0.16703 0.879156,0.2054 1.26129,0.11398 0.382585,-0.0903 0.699713,-0.2607 0.950254,-0.51124 0.14559,-0.14559 0.26973,-0.30471 0.36792,-0.47964 0.10157,-0.17042 0.17944,-0.36002 0.23248,-0.55752 l -1.144256,-1.15046 c -0.199757,-0.19863 -0.344214,-0.31374 -0.435628,-0.34647 -0.09029,-0.0339 -0.186214,-0.0339 -0.281014,0 -0.101571,0.0339 -0.224585,0.1264 -0.384842,0.28553 l -0.112857,-0.11286 1.540159,-1.53124 0.112857,0.11285 -0.079,0.079 c -0.152357,0.15123 -0.205399,0.30585 -0.161385,0.4661 0.03386,0.11286 0.155742,0.27312 0.369046,0.48529 l 1.21231,1.21558 c -0.10158,0.34534 -0.237,0.65683 -0.39839,0.92994 -0.16364,0.27424 -0.37807,0.54736 -0.64667,0.81257 -0.767439,0.76517 -1.597829,1.10036 -2.486804,1.00556 -0.66699,-0.0677 -1.241545,-0.3476 -1.722316,-0.83176 -0.348728,-0.34985 -0.597014,-0.76742 -0.749371,-1.25835 -0.180571,-0.57783 -0.198628,-1.14302 -0.05643,-1.69512 0.120757,-0.45819 0.380328,-0.88705 0.777585,-1.28521 0.143328,-0.1422 0.286656,-0.26183 0.428856,-0.3555 0.1422,-0.0903 0.361143,-0.21104 0.657957,-0.34534 0.150094,-0.0677 0.244894,-0.12189 0.282136,-0.158 0.03386,-0.0339 0.05643,-0.0903 0.04514,-0.14785 -0.009,-0.0564 -0.05643,-0.14219 -0.151228,-0.24941 z m 3.619439,-1.87456 c -0.11963,-0.34195 -0.2528,-0.67375 -0.40177,-0.99765 -0.14785,-0.32616 -0.17719,-0.52027 -0.0903,-0.58912 0.0903,-0.0677 0.20427,-0.10157 0.34759,-0.10157 0.14559,0.005 0.2528,0.16816 0.32728,0.49883 0.079,0.33067 0.13769,0.66586 0.19299,1.01007 0.0564,0.34196 0.10157,0.82386 0.15123,1.44378 l -0.15913,0.0564 c -0.1264,-0.5451 -0.25054,-0.99089 -0.37017,-1.32844 z m 9.21206,-1.33543 -2.00185,0.84191 -0.007,0.96267 c -0.002,0.237 0.0226,0.40629 0.0564,0.5056 0.0339,0.079 0.10157,0.13204 0.19863,0.16026 0.10157,0.0339 0.27989,0 0.53607,-0.0903 l 0.0564,0.14107 -1.62886,0.6873 -0.0564,-0.14333 c 0.19975,-0.12865 0.31825,-0.23587 0.35663,-0.3239 0.079,-0.17718 0.11737,-0.48415 0.11849,-0.92542 l 0.0226,-5.02101 0.13317,-0.0564 3.61165,3.54709 c 0.29117,0.28215 0.51688,0.45143 0.6794,0.50673 0.16025,0.0564 0.34985,0.0451 0.56766,-0.0339 l 0.0564,0.14107 -2.04034,0.85771 -0.0564,-0.1422 c 0.20202,-0.0903 0.32615,-0.1896 0.37468,-0.27763 0.0451,-0.0903 0.0564,-0.17493 0.0226,-0.26295 -0.0451,-0.11286 -0.17154,-0.26522 -0.37694,-0.46385 z m -0.22459,-0.23926 v 0 l -1.75808,-1.72231 -0.0226,2.47055 1.7775,-0.74824 z m 1.79285,-4.38404 1.49096,-0.31036 4.22096,3.42645 -0.66021,-3.17354 c -0.0677,-0.33631 -0.15349,-0.54058 -0.24603,-0.60717 -0.12188,-0.0903 -0.2923,-0.11737 -0.50898,-0.0677 l -0.1896,0.0451 -0.0339,-0.15349 1.91462,-0.39725 0.0339,0.1501 -0.19412,0.0451 c -0.23248,0.0451 -0.38258,0.15123 -0.45256,0.31149 -0.0339,0.10157 -0.0339,0.30471 0.0339,0.61168 l 0.9638,4.63605 -0.14446,0.0339 -4.54802,-3.67338 0.7031,3.38605 c 0.0677,0.33744 0.15123,0.54171 0.24038,0.6083 0.12753,0.0903 0.29682,0.11737 0.51012,0.0677 l 0.19524,-0.0451 0.0339,0.1501 -1.91473,0.39951 -0.0339,-0.1501 0.1896,-0.0339 c 0.23474,-0.0564 0.3871,-0.15574 0.45594,-0.31825 0.0451,-0.10157 0.0339,-0.29794 -0.0339,-0.60943 l -0.7979,-3.82292 c -0.1975,-0.15348 -0.34421,-0.25167 -0.43901,-0.29681 -0.0903,-0.0451 -0.22797,-0.0677 -0.39726,-0.0903 -0.079,-0.007 -0.2054,0.007 -0.36452,0.0339 z m 16.32838,-0.79565 0.0226,-0.15122 1.97161,0.26408 -0.0226,0.15123 -0.21105,-0.0339 c -0.21893,-0.0339 -0.39952,0.0339 -0.54059,0.20766 -0.0677,0.079 -0.12414,0.26973 -0.1659,0.57783 l -0.3002,2.25736 c -0.079,0.55865 -0.18958,0.98299 -0.33968,1.27687 -0.15236,0.29343 -0.40516,0.52817 -0.7584,0.70535 -0.35325,0.17719 -0.80806,0.2291 -1.36817,0.15349 -0.60717,-0.079 -1.05408,-0.24716 -1.3404,-0.49883 -0.28553,-0.25506 -0.47174,-0.5688 -0.55526,-0.9401 -0.0564,-0.25618 -0.0338,-0.71664 0.0564,-1.38791 l 0.29004,-2.17408 c 0.0451,-0.34196 0.0226,-0.57331 -0.0564,-0.69181 -0.079,-0.11963 -0.22571,-0.19525 -0.43562,-0.22233 l -0.20992,-0.0226 0.0226,-0.15236 2.40521,0.31826 -0.0226,0.15461 -0.21443,-0.0339 c -0.2291,-0.0339 -0.4029,0.0226 -0.5214,0.15123 -0.079,0.0903 -0.1422,0.29004 -0.18282,0.60153 l -0.3239,2.42699 c -0.0339,0.21443 -0.0452,0.4661 -0.0452,0.75163 0.002,0.28214 0.0452,0.51011 0.12866,0.68053 0.079,0.16928 0.21556,0.31825 0.39726,0.44578 0.18282,0.1264 0.41531,0.20879 0.70084,0.24829 0.3634,0.0451 0.69971,0.0113 1.00781,-0.11286 0.3081,-0.12076 0.53043,-0.29569 0.67037,-0.53043 0.13769,-0.23474 0.24716,-0.64667 0.32503,-1.2386 l 0.3002,-2.25263 c 0.0451,-0.34647 0.0339,-0.5688 -0.0226,-0.66699 -0.0903,-0.1343 -0.24039,-0.21555 -0.45143,-0.24377 l -0.20878,-0.0339 z m 3.0565,0.34309 1.44344,0.48867 1.89938,5.08669 1.03828,-3.06723 c 0.11286,-0.32502 0.1422,-0.54171 0.10158,-0.64779 -0.0564,-0.14446 -0.19299,-0.24942 -0.40178,-0.32278 l -0.18395,-0.0564 0.0451,-0.14672 1.84894,0.62749 -0.0451,0.14671 -0.18847,-0.0677 c -0.22458,-0.079 -0.40741,-0.0564 -0.54735,0.0451 -0.0903,0.0677 -0.17832,0.24377 -0.27876,0.54284 l -1.51815,4.4793 -0.1422,-0.0451 -2.05445,-5.46939 -1.10939,3.27647 c -0.11285,0.32503 -0.14332,0.54171 -0.10157,0.64554 0.0564,0.14333 0.19637,0.24941 0.40177,0.32051 l 0.1896,0.0564 -0.0451,0.14785 -1.84984,-0.62636 0.0451,-0.14672 0.18396,0.0677 c 0.22797,0.079 0.41193,0.0677 0.55074,-0.0339 0.0903,-0.0677 0.17945,-0.24828 0.27989,-0.54623 l 1.25328,-3.69572 c -0.0903,-0.23362 -0.16929,-0.39275 -0.23023,-0.47626 -0.0564,-0.079 -0.15913,-0.17944 -0.29682,-0.28101 -0.0677,-0.0451 -0.17831,-0.10158 -0.3318,-0.15123 z m 6.47123,8.47522 -0.0677,0.13656 -2.14597,-1.09133 0.0677,-0.1343 0.17718,0.0903 c 0.20652,0.10157 0.38597,0.12301 0.54172,0.0451 0.10157,-0.0451 0.22459,-0.22233 0.37694,-0.52027 l 1.63936,-3.23775 c 0.12866,-0.25168 0.19863,-0.42999 0.20766,-0.52366 0.007,-0.079 -0.0226,-0.15574 -0.0677,-0.23587 -0.079,-0.11624 -0.17719,-0.20202 -0.29456,-0.26522 l -0.17719,-0.0903 0.0677,-0.13656 2.14755,1.0902 -0.0677,0.13317 -0.18283,-0.0903 c -0.20314,-0.10158 -0.38371,-0.11738 -0.53833,-0.0452 -0.10157,0.0452 -0.22684,0.2212 -0.3792,0.52366 l -1.64082,3.23414 c -0.12753,0.25393 -0.1975,0.42999 -0.20653,0.52479 -0.007,0.079 0.0226,0.15574 0.079,0.23925 0.079,0.11286 0.1738,0.19976 0.2923,0.25958 z m 8.33844,-1.01007 -0.0903,0.1264 c -0.18283,-0.079 -0.34196,-0.1185 -0.47851,-0.10157 -0.1975,0.0226 -0.42096,0.12076 -0.67489,0.28327 l -4.3477,2.78926 -0.12527,-0.0903 1.05634,-5.17326 c 0.0564,-0.26295 0.079,-0.43224 0.0677,-0.50221 -0.007,-0.11286 -0.0339,-0.21443 -0.0903,-0.31261 -0.0564,-0.0903 -0.14784,-0.1975 -0.27989,-0.30697 l 0.0903,-0.12753 1.87974,1.31772 -0.0903,0.1264 c -0.22797,-0.13092 -0.39049,-0.19073 -0.49093,-0.18283 -0.10157,0.007 -0.17831,0.0564 -0.23474,0.13204 -0.079,0.11399 -0.1501,0.32841 -0.21556,0.63764 l -0.7189,3.5164 2.952,-1.90187 c 0.29005,-0.18847 0.46949,-0.33067 0.54059,-0.43224 0.0451,-0.0677 0.0564,-0.15235 0.0339,-0.25844 -0.0226,-0.10157 -0.10158,-0.22571 -0.2449,-0.35776 -0.009,-0.0113 -0.0226,-0.0339 -0.0452,-0.0564 l 0.0903,-0.12301 z m 1.85672,2.212 -1.57278,1.56679 0.87013,0.87464 c 0.22572,0.22685 0.4108,0.34422 0.55639,0.35212 0.19073,0.0113 0.40515,-0.0903 0.64441,-0.30359 l 0.11286,0.11286 -1.38397,1.37855 -0.11285,-0.10157 c 0.16477,-0.22007 0.26182,-0.37356 0.29004,-0.45256 0.0339,-0.10157 0.0339,-0.21556 -0.0113,-0.33518 -0.0451,-0.1185 -0.14333,-0.25958 -0.30923,-0.42773 l -0.86899,-0.87577 -1.31174,1.30677 c -0.17493,0.1738 -0.27424,0.28891 -0.29794,0.34421 -0.0226,0.0564 -0.0226,0.11286 -0.009,0.17267 0.0226,0.0677 0.079,0.14559 0.1896,0.25619 l 0.67037,0.67488 c 0.22458,0.22233 0.4029,0.37356 0.53494,0.44353 0.13317,0.0677 0.2923,0.10157 0.47738,0.11286 0.24152,0 0.54849,-0.0564 0.91866,-0.17154 l 0.11737,0.11624 -1.33984,0.64893 -3.05018,-3.06576 0.11285,-0.11286 0.13995,0.14107 c 0.0903,0.10157 0.20314,0.16251 0.33293,0.19976 0.0903,0.0339 0.1817,0.0339 0.2686,-0.0113 0.079,-0.0451 0.22458,-0.15574 0.41644,-0.34873 l 2.58521,-2.57449 c 0.25167,-0.24941 0.38372,-0.42773 0.39049,-0.53946 0.009,-0.1501 -0.0677,-0.30358 -0.23249,-0.46722 l -0.14107,-0.14333 0.11286,-0.10157 3.05222,3.06519 -0.82837,0.91189 -0.11399,-0.11286 c 0.16703,-0.25054 0.26747,-0.43789 0.29569,-0.5688 0.0339,-0.1264 0.0113,-0.25844 -0.0452,-0.40064 -0.0451,-0.10157 -0.17154,-0.25732 -0.36791,-0.45594 l -1.08681,-1.09133 z m 1.95401,10.84375 -0.85997,-1.22754 1.05859,-3.06069 c -0.0903,-0.11398 -0.15235,-0.2054 -0.20541,-0.27875 -0.0226,-0.0339 -0.0451,-0.0564 -0.0677,-0.10157 -0.0226,-0.0339 -0.0451,-0.0677 -0.0677,-0.11286 l -1.33566,0.93445 c -0.29004,0.20653 -0.44578,0.36002 -0.47174,0.47852 -0.0451,0.15348 0.002,0.316 0.12189,0.48528 l 0.12526,0.1817 -0.12415,0.0903 -1.38137,-1.96924 0.12528,-0.0903 0.12188,0.17267 c 0.13543,0.19525 0.29682,0.28892 0.48077,0.28553 0.10157,-0.002 0.28779,-0.0903 0.54962,-0.27763 l 2.9687,-2.08514 c 0.28891,-0.20202 0.44578,-0.35663 0.47287,-0.47062 0.0339,-0.158 -0.007,-0.32503 -0.12753,-0.49995 l -0.11963,-0.17042 0.12415,-0.0903 1.17619,1.67333 c 0.34083,0.48754 0.55864,0.87464 0.65006,1.15622 0.0903,0.28101 0.10157,0.5688 0.0226,0.86335 -0.079,0.29907 -0.24716,0.5372 -0.51124,0.72116 -0.28215,0.19863 -0.59249,0.27876 -0.92994,0.24151 -0.33632,-0.0339 -0.68279,-0.21781 -1.04055,-0.54622 l -0.65457,1.87162 c -0.1501,0.43111 -0.22007,0.75727 -0.20991,0.98298 0.009,0.22684 0.0903,0.47287 0.23814,0.74373 l -0.12641,0.0903 z m 0.0677,-4.92068 v 0 c 0.0339,0.0452 0.0564,0.079 0.079,0.11286 0.0226,0.0339 0.0339,0.0564 0.0564,0.079 0.3081,0.43789 0.63426,0.70084 0.9796,0.78887 0.34647,0.0903 0.66698,0.0339 0.96041,-0.17267 0.28553,-0.19976 0.45594,-0.45594 0.51123,-0.76291 0.0564,-0.30472 -0.0226,-0.60153 -0.23023,-0.9006 -0.0903,-0.12979 -0.23813,-0.29117 -0.43901,-0.48529 z m 6.71973,5.92454 -1.75097,0.83853 -0.0677,-0.13881 c 0.31374,-0.2054 0.54397,-0.41419 0.68617,-0.62636 0.14333,-0.20991 0.22346,-0.4503 0.237,-0.72003 0.0113,-0.27085 -0.0339,-0.52027 -0.1422,-0.74937 -0.12414,-0.2607 -0.30584,-0.4345 -0.54397,-0.5293 -0.24038,-0.0903 -0.46046,-0.0903 -0.66247,0.002 -0.15461,0.079 -0.2686,0.19524 -0.34647,0.36453 -0.11286,0.24377 -0.18509,0.72906 -0.21781,1.4589 -0.0339,0.59363 -0.0677,1.01233 -0.12076,1.24752 -0.0564,0.23813 -0.14784,0.44805 -0.28779,0.63087 -0.14107,0.18057 -0.31035,0.32165 -0.51124,0.41757 -0.38484,0.18283 -0.78661,0.19299 -1.20655,0.0339 -0.41983,-0.16477 -0.7426,-0.4819 -0.96719,-0.948 -0.0677,-0.1501 -0.12527,-0.29343 -0.16364,-0.43337 -0.0226,-0.079 -0.0564,-0.26521 -0.0903,-0.5451 -0.0339,-0.27875 -0.0677,-0.45255 -0.10157,-0.51688 -0.0339,-0.0677 -0.0677,-0.10157 -0.12753,-0.12189 -0.0564,-0.0226 -0.14445,-0.007 -0.2686,0.0339 l -0.0677,-0.13656 1.73687,-0.83401 0.0677,0.13768 c -0.3318,0.24039 -0.56202,0.4582 -0.69068,0.65345 -0.12753,0.19411 -0.1975,0.4345 -0.20879,0.71551 -0.0113,0.2844 0.0452,0.55977 0.17606,0.8295 0.14784,0.31036 0.34647,0.51801 0.59814,0.61958 0.25167,0.10157 0.48867,0.10157 0.71326,-0.009 0.12414,-0.0564 0.23361,-0.15462 0.32728,-0.28328 0.0903,-0.12978 0.16139,-0.2923 0.20202,-0.49092 0.0226,-0.13205 0.0564,-0.47287 0.0903,-1.02136 0.0339,-0.55187 0.079,-0.95251 0.13769,-1.20486 0.0564,-0.25167 0.1501,-0.46836 0.27876,-0.64554 0.12978,-0.17606 0.29794,-0.31826 0.50785,-0.4187 0.3634,-0.17267 0.74486,-0.18283 1.14042,-0.0339 0.39613,0.15461 0.69746,0.44466 0.90399,0.8769 0.12864,0.2686 0.1975,0.58573 0.20878,0.95026 0.007,0.17041 0.0226,0.28327 0.0451,0.33969 0.0339,0.0677 0.079,0.11286 0.1343,0.13092 0.0564,0.0226 0.15122,0.0226 0.28101,-0.0113 z m -3.89074,5.67603 -0.14672,0.0452 -0.77081,-2.27802 0.14558,-0.0451 0.0677,0.18621 c 0.079,0.22007 0.19298,0.36114 0.35437,0.41419 0.10157,0.0339 0.31826,-9.1e-4 0.63651,-0.11286 l 3.43481,-1.16672 c 0.27085,-0.0903 0.44014,-0.16477 0.51575,-0.23023 0.0564,-0.0451 0.0903,-0.1185 0.11399,-0.21555 0.0226,-0.13543 0.0113,-0.2686 -0.0226,-0.39387 l -0.0677,-0.18622 0.14446,-0.0564 0.77194,2.27723 -0.14446,0.0452 -0.0677,-0.18848 c -0.079,-0.21781 -0.19073,-0.35437 -0.35437,-0.4108 -0.10157,-0.0339 -0.31713,-0.002 -0.63651,0.11286 l -3.43571,1.16153 c -0.2686,0.0903 -0.44014,0.16815 -0.51463,0.23022 -0.0564,0.0452 -0.0903,0.12415 -0.11285,0.22346 -0.0226,0.13317 -0.0113,0.26183 0.0226,0.38823 l 0.0677,0.19186 z m 6.46919,3.92337 -1.27687,0.32051 -0.0339,-0.15236 c 0.22008,-0.0677 0.37469,-0.14671 0.46159,-0.21894 0.13881,-0.11737 0.23249,-0.24941 0.27876,-0.40516 0.0451,-0.15348 0.0451,-0.34647 0,-0.57218 l -0.15687,-0.77533 -4.20099,0.85433 c -0.33857,0.0677 -0.54172,0.14671 -0.61056,0.23474 -0.0903,0.1264 -0.11737,0.29794 -0.079,0.51124 l 0.0339,0.1896 -0.1501,0.0339 -0.47287,-2.32971 0.1501,-0.0339 0.0339,0.19411 c 0.0452,0.23136 0.15236,0.38258 0.31149,0.45256 0.10157,0.0451 0.30133,0.0339 0.60943,-0.0339 l 4.20132,-0.84981 -0.13317,-0.6636 c -0.0564,-0.25619 -0.11285,-0.43676 -0.16815,-0.5372 -0.079,-0.12866 -0.20202,-0.2291 -0.36792,-0.30133 -0.16815,-0.0677 -0.37581,-0.0903 -0.62861,-0.0564 l -0.0339,-0.15574 1.30158,-0.19412 z m 0.30132,5.30822 0.0451,1.95977 -0.15236,0.001 -0.002,-0.11285 c -0.001,-0.0677 -0.0339,-0.17719 -0.10157,-0.31149 -0.0677,-0.13655 -0.15913,-0.2607 -0.28101,-0.37017 -0.12076,-0.11286 -0.31713,-0.24603 -0.59024,-0.40516 l -2.16009,-1.30496 -1.40789,0.0339 c -0.34421,0.009 -0.55977,0.0451 -0.64216,0.13091 -0.11398,0.10157 -0.16815,0.27311 -0.16251,0.49883 l 0.002,0.18396 -0.1535,0.002 -0.0564,-2.38399 0.15462,-0.002 0.002,0.1975 c 0.007,0.237 0.079,0.4029 0.22686,0.49996 0.0903,0.0564 0.2923,0.0903 0.60491,0.079 l 1.32968,-0.0339 2.31627,-1.59636 c 0.27087,-0.18734 0.44014,-0.31487 0.50674,-0.3792 0.0677,-0.0677 0.14671,-0.20201 0.24038,-0.4108 0.0226,-0.0564 0.0339,-0.1343 0.0339,-0.23813 l 0.15349,-0.005 0.0564,2.39866 -0.15235,0.005 -0.002,-0.12528 c -0.002,-0.12752 -0.0339,-0.24828 -0.10157,-0.35549 -0.0677,-0.11286 -0.15462,-0.16026 -0.27537,-0.158 -0.10157,0.002 -0.2765,0.0903 -0.53269,0.26521 l -1.78359,1.21197 1.75549,1.06086 c 0.26296,0.16025 0.4582,0.237 0.58573,0.23474 0.079,-0.002 0.14558,-0.0226 0.20427,-0.0677 0.0564,-0.0451 0.10157,-0.10157 0.14107,-0.17379 0.0339,-0.079 0.0451,-0.18848 0.0451,-0.33745 l 0.15349,-0.005 z m -9.29151,-1.36613 c 0,15.64401 -12.51584,28.32496 -27.95355,28.32496 -15.4376,0 -27.952656,-12.68095 -27.952656,-28.32496 0,-15.13695 10.676276,-26.65784 25.421386,-27.44197 -0.12866,0.007 -0.26183,0.0451 -0.38823,0.0677 -0.73583,0.13995 -1.46443,0.316 -2.18785,0.51125 -1.09584,0.28891 -2.19145,0.61845 -3.26045,0.99878 -0.95025,0.34196 -1.87647,0.75276 -2.7782,1.21073 -0.89157,0.45256 -1.73008,0.98186 -2.56828,1.52831 -1.7617,1.14516 -3.44858,2.57506 -4.81369,4.34883 -0.0452,0.0452 -0.079,0.10157 -0.12302,0.14897 l -0.42998,-0.33631 -0.81257,1.00556 0.42095,0.37355 c -1.09358,1.47775 -2.02206,3.08777 -2.755514,4.7997 l -0.580085,-0.32164 c 0,0 -0.45707,1.10487 -0.511242,1.23025 -0.183957,0.43901 -0.453685,1.29086 -0.453685,1.29086 l 0.646671,0.25167 c -0.441271,1.44581 -0.749371,2.952 -0.909628,4.49904 l -0.747113,-0.0451 c 0,0 -0.112857,1.13771 -0.112857,1.24402 -0.02257,0.62523 -0.04514,1.46489 -0.04514,1.46489 l 0.774199,0.0564 0.0068,0.0677 c 0.01129,1.33984 0.141071,2.65304 0.366785,3.93194 l -0.775328,0.25054 c 0,0 0.215557,1.1139 0.303586,1.45721 0.09029,0.32503 0.05643,0.2607 0.217814,0.8532 l 0.802413,-0.18283 c 0.476256,1.66769 1.129244,3.261 1.935844,4.762 l -0.68955,0.48416 c 0,0 0.25505,0.46835 0.64667,1.1139 0.17267,0.28552 0.62748,0.98298 0.62748,0.98298 l 0.73357,-0.41644 c 0.95816,1.39841 2.05908,2.68983 3.28279,3.8526 l -0.54172,0.60717 2.03256,1.77422 0.6004,-0.85771 c 0,0 3.33718,1.76678 5.70627,1.86654 l 0.42096,-0.85771 2.25172,-0.12189 v -0.9006 c -0.2449,9.1e-4 -2.60767,0.0226 -2.46017,-0.0451 1.31501,-0.5609 1.95976,-3.01441 1.95976,-3.01441 l 0.48303,0.58573 h 6.25567 6.2578 l 0.47965,-0.58573 c 0,0 0.64667,2.45295 1.96032,3.01441 0.14897,0.0677 -2.21324,0.0451 -2.45983,0.0451 v 0.9006 l 2.25082,0.12189 0.42321,0.85771 c 2.3691,-0.10157 5.7056,-1.86654 5.7056,-1.86654 l 0.6004,0.85771 2.03222,-1.77422 -0.54059,-0.60717 c 1.22281,-1.16277 2.32429,-2.45419 3.28042,-3.8526 l 0.73357,0.41644 c 0,0 0.45594,-0.69746 0.62974,-0.98298 0.39161,-0.64555 0.64667,-1.1139 0.64667,-1.1139 l -0.68956,-0.48416 c 0.80806,-1.501 1.46105,-3.09431 1.93731,-4.762 l 0.80128,0.18283 c 0.16139,-0.59363 0.1343,-0.5293 0.21894,-0.8532 0.0903,-0.34309 0.30133,-1.45721 0.30133,-1.45721 l -0.77532,-0.25054 c 0.22684,-1.2789 0.35211,-2.5921 0.36452,-3.93194 l 0.009,-0.0677 0.77533,-0.0564 c 0,0 -0.0226,-0.83966 -0.0451,-1.46489 -0.002,-0.10157 -0.11287,-1.24402 -0.11287,-1.24402 l -0.74824,0.0451 c -0.15913,-1.54704 -0.46723,-3.05323 -0.90736,-4.49904 l 0.64554,-0.25167 c 0,0 -0.2686,-0.85207 -0.45369,-1.29086 -0.0564,-0.12527 -0.51237,-1.23025 -0.51237,-1.23025 l -0.57895,0.32164 c -0.73583,-1.71193 -1.66351,-3.32195 -2.75642,-4.7997 l 0.42095,-0.37355 -0.81144,-1.00556 -0.42885,0.33631 c -0.0452,-0.0564 -0.079,-0.10157 -0.12642,-0.14897 -1.36375,-1.77377 -3.05017,-3.20367 -4.81402,-4.34883 -0.83853,-0.54623 -1.67604,-1.07553 -2.56773,-1.52831 -0.89947,-0.4582 -1.82647,-0.869 -2.77696,-1.21073 -1.06988,-0.38033 -2.16516,-0.70987 -3.26134,-0.99878 -0.72341,-0.19525 -1.45235,-0.3713 -2.18694,-0.51125 -0.12527,-0.0226 -0.2607,-0.0564 -0.38823,-0.0677 14.74488,0.78436 25.42138,12.30502 25.42138,27.44197 z M 103.5519,128.2955 v 0 c 0.0451,-0.0564 0.079,-0.10157 0.12301,-0.14897 -0.0339,0.0564 -0.079,0.10157 -0.11737,0.15349 z m -3.580505,3.19442 v 0 l 0.484155,0.26296 0.2923,-0.55075 -0.48303,-0.26408 z M 97.0791,138.7454 v 0 l 0.689562,0.12979 0.1422,-0.78549 -0.689556,-0.12865 z m 0.306977,7.48558 v 0 l -0.079,-0.94913 -0.831762,0.0677 0.079,0.948 z m 1.760795,7.13245 v 0 l -0.4029,-1.15475 -1.222805,0.43901 0.404028,1.15374 z m 4.332128,6.72413 v 0 l -0.90286,-1.07891 -0.98637,0.85659 0.90286,1.07778 z m 40.66283,-29.14938 v 0 l -0.48303,0.26409 0.29117,0.55074 0.48415,-0.26296 z m 3.0433,7.02309 v 0 l -0.68843,0.12866 0.14219,0.78548 0.68956,-0.12978 z m 0.66699,8.33867 v 0 l 0.079,-0.948 -0.83063,-0.0677 -0.079,0.94913 z m -1.37325,7.50115 v 0 l 0.40403,-1.15374 -1.2219,-0.43901 -0.40403,1.15475 z m -4.56597,7.14261 v 0 l 0.90286,-1.07779 -0.98524,-0.85658 -0.90512,1.07891 z m -1.06537,-32.644 v 0 c -0.0339,-0.0564 -0.079,-0.10157 -0.11737,-0.15349 0.0451,0.0451 0.079,0.10157 0.1264,0.14897 z m -16.70848,41.73011 v 0 c 0,-1.08342 -0.86561,-1.95942 -1.93707,-1.95942 -1.06876,0 -1.9364,0.8769 -1.9364,1.95942 0,0.0226 0.001,0.0339 0.002,0.0564 0,0.0113 -0.002,0.0226 -0.002,0.0452 v 1.89825 h 3.87347 v -1.89825 c 0,-0.0226 -0.002,-0.0339 -0.002,-0.0452 0,-0.0113 0.002,-0.0339 0.002,-0.0451 z m -5.86032,0.56993 v 0 c 0,-0.77533 -0.61959,-1.3992 -1.38318,-1.3992 -0.76291,0 -1.38374,0.6241 -1.38374,1.3992 0,0.0113 0.002,0.0226 0.002,0.0339 0,0.0113 -0.002,0.0113 -0.002,0.0226 v 1.35744 h 2.76692 v -1.35744 c 0,-0.0113 -9e-4,-0.0226 -9e-4,-0.0339 0,-0.009 9e-4,-0.0226 9e-4,-0.0339 z m 7.84932,0.0339 v 0 c 0,0.0113 -6.8e-4,0.0226 -6.8e-4,0.0339 v 1.35744 h 2.76511 v -1.35744 c 0,-0.0113 -6.8e-4,-0.0113 -6.8e-4,-0.0226 0,-0.0113 6.8e-4,-0.0226 6.8e-4,-0.0339 0,-0.77533 -0.61959,-1.3992 -1.3825,-1.3992 -0.76404,0 -1.38261,0.6241 -1.38261,1.3992 0,0.0113 6.8e-4,0.0226 6.8e-4,0.0339 z M 113.7122,147.82057 c -0.25845,0.56316 -0.0113,1.23105 0.55074,1.48994 0.56315,0.25731 1.22935,0.0113 1.48915,-0.55187 0.79677,-1.73032 2.86453,-2.96712 5.32798,-3.2583 l -0.0113,1.70595 v 0 c -2.9362,0.53381 -5.16942,3.11045 -5.16942,6.1989 0,0.61845 0.50335,1.1218 1.12406,1.1218 0.61733,0 1.12067,-0.50222 1.12067,-1.1218 0,-2.23683 1.82027,-4.05653 4.05732,-4.05653 2.23717,0 4.0571,1.8197 4.0571,4.05653 0,0.61845 0.50334,1.1218 1.12293,1.1218 0.62071,0 1.12405,-0.50222 1.12405,-1.1218 0,-3.0863 -2.24608,-5.66475 -5.1807,-6.20138 -0.17606,-0.0339 -0.17944,-0.0339 0,0 v -1.70313 c 2.46378,0.29117 4.53223,1.5282 5.32742,3.25796 0.25957,0.56541 0.92655,0.81031 1.48903,0.55187 0.56429,-0.25844 0.81031,-0.92656 0.54961,-1.48994 -1.14775,-2.49899 -4.03644,-4.25663 -7.38378,-4.57703 l 0.0226,0.001 v -1.45958 h 2.09203 c 0.62072,0 1.12293,-0.50447 1.12293,-1.12405 0,-0.53833 -0.38258,-0.98976 -0.89157,-1.09697 v -1.82445 c 4.48595,2.20308 7.73804,8.58481 7.73804,16.09725 0,0.62071 0.50221,1.12518 1.1218,1.12518 0.61846,0 1.12293,-0.50447 1.12293,-1.12518 0,-5.04065 -1.34876,-9.79712 -3.80035,-13.39037 -2.25974,-3.31631 -5.21715,-5.3053 -8.42523,-5.70391 l 0.0903,0.0113 v -1.64411 h 4.77532 c 0.17944,0.27086 0.42547,0.43902 0.6952,0.43902 0.55187,0 0.99878,-0.69859 0.99878,-1.56014 0,-0.86222 -0.44691,-1.56228 -0.99878,-1.56228 -0.26973,0 -0.51463,0.16816 -0.6952,0.44015 h -4.77464 v -1.62379 h 3.91681 c 0.17944,0.27199 0.42547,0.43901 0.6952,0.43901 0.55074,0 0.99991,-0.69858 0.99991,-1.55957 0,-0.86222 -0.44917,-1.56013 -0.99991,-1.56013 -0.2686,0 -0.51463,0.16703 -0.69407,0.43788 h -3.91772 v -1.62288 h 3.08427 c 0.17944,0.26973 0.42434,0.43676 0.69407,0.43676 0.55187,0 0.99879,-0.69746 0.99879,-1.55924 0,-0.86448 -0.44692,-1.56171 -0.99879,-1.56171 -0.2844,0 -0.54171,0.18621 -0.72454,0.48303 l 0.0339,-0.0452 h -3.08337 v -1.51894 c 0.2844,-0.19976 0.45707,-0.46497 0.45707,-0.75727 0,-0.61958 -0.78548,-1.1218 -1.75368,-1.1218 -0.96832,0 -1.75166,0.50109 -1.75166,1.1218 0,0.2923 0.1738,0.55751 0.45707,0.7584 v 13.13971 l 0.0903,-0.0113 c -3.20965,0.39726 -6.16639,2.38613 -8.42771,5.70424 -2.44967,3.59326 -3.80057,8.34973 -3.80057,13.39037 0,0.62072 0.50334,1.12519 1.12293,1.12519 0.62071,0 1.12405,-0.50447 1.12405,-1.12519 0,-7.51311 3.25051,-13.89473 7.73578,-16.09758 v 1.6292 c 0,-0.0113 6.8e-4,-0.0226 6.8e-4,-0.0451 -0.007,0.16477 0,1.02136 0.66473,1.70832 0.29568,0.30697 0.81708,0.66585 1.65843,0.73582 v 1.47177 l 0.0226,-0.001 c -3.34733,0.32052 -6.23568,2.07736 -7.38525,4.57726 z m 9.14378,-2.36379 c 0.11286,0.007 0.21782,0.0113 0.32503,0.0226 -0.11286,-0.0113 -0.21668,-0.0226 -0.32503,-0.0226 z m 0.54849,-5.91585 h -1.85074 c -0.50222,-0.002 -0.55413,-0.38146 -0.55187,-0.59476 v -1.93166 c 0.39387,-0.0677 0.79564,-0.10157 1.20091,-0.10157 0.40628,0 0.80692,0.0339 1.20215,0.10157 z m 4.65614,-8.20764 c 0.009,-0.0339 0.0226,-0.0677 0.0339,-0.10157 -0.0113,0.0339 -0.0226,0.0677 -0.0339,0.10157 z m -0.81709,-2.43477 c -0.0113,-0.0451 -0.0226,-0.079 -0.0451,-0.12189 0.0113,0.0451 0.0226,0.079 0.0451,0.12189 z m -0.0451,-1.43148 c 0.0226,-0.0564 0.0339,-0.11512 0.0564,-0.16929 -0.0226,0.0564 -0.0451,0.11286 -0.0564,0.16929 z m -10.51816,50.48737 c 0.36114,-0.0113 0.63426,-0.1738 1.05409,-0.079 0.002,0.16477 0.11737,0.2607 0.14558,0.40177 0.0226,0.11963 0.009,0.27311 -0.0451,0.38597 -0.0564,0.11511 -0.1659,0.1738 -0.2686,0.23248 -0.11286,0.0677 -0.21669,0.13995 -0.32616,0.21218 -0.23587,0.15461 -0.47964,0.30132 -0.73582,0.41757 -0.0677,0.0339 -0.14446,0.0677 -0.21782,0.0903 -0.11963,0.0451 -0.23136,0.1185 -0.30923,-0.0339 -0.0564,-0.10157 -0.0451,-0.23022 -0.0226,-0.33744 0.10157,-0.079 0.19186,-0.007 0.30133,-0.0339 0.10157,-0.0339 0.1896,-0.22232 0.27763,-0.31825 0.11624,-0.12414 0.2765,-0.28779 0.37468,-0.41193 0.0677,-0.079 0.0903,-0.14333 0.11286,-0.26183 -0.30471,-0.0903 -0.5214,0.10157 -0.71213,0.14333 -0.3081,0.5293 -0.8058,1.04618 -1.07101,1.48847 -0.0451,0.079 -0.25844,0.39613 -0.26973,0.59476 0.009,0.0226 0.3002,-0.009 0.32503,-0.009 0.19186,-0.009 0.38146,-0.0677 0.57218,-0.0903 0.32842,-0.0339 0.66135,-0.0451 0.99089,-0.0564 0.21443,-0.009 0.42773,-0.009 0.64103,-0.005 0.17944,0.007 0.3555,0.0113 0.53268,0.0339 0.17719,0.0226 0.2686,0.23587 0.15913,0.40515 -0.0451,0.079 -0.10157,0.0451 -0.16251,0.0903 -0.0677,0.0564 -0.0452,0.13881 -0.12302,0.19073 -0.33744,0.0226 -0.74937,-0.0113 -1.027,-0.0113 -0.21668,-10e-4 -0.4345,-0.0564 -0.65005,-0.0677 -0.25619,-0.0226 -0.51802,-0.0226 -0.77646,-0.0113 -0.16816,0.007 -0.33744,0 -0.50447,0.0339 -0.15913,0.0226 -0.316,0.12753 -0.47738,0.12414 -0.25958,0.49996 -0.60605,0.71777 -0.7347,1.39176 0.0226,0.079 0.11737,0.11511 0.19637,0.11737 0.10157,0.007 0.1185,-0.0226 0.1738,-0.0903 0.0677,-0.0903 0.15461,-0.1501 0.21443,-0.25618 0.0564,-0.10158 0.10157,-0.21669 0.17041,-0.31149 0.13317,-0.18509 0.2528,-0.43337 0.34308,-0.60943 0.39839,0.0339 0.62298,0.35437 0.59589,0.632 -9e-4,0.0113 -0.21781,0.1501 -0.24603,0.17944 -0.0677,0.079 -0.12188,0.15575 -0.17154,0.24152 -0.0339,0.0564 -0.3476,0.57218 -0.33067,0.58911 0.12865,0.13092 0.28778,0.22346 0.43675,0.32616 0.0903,0.0677 0.2844,0.1422 0.28779,0.27311 0.007,0.15123 -0.10157,0.38146 -0.24264,0.44579 -0.49093,-0.11286 -0.65457,-0.28666 -1.06312,-0.38484 -0.32502,0.39725 -0.94574,0.78209 -1.38464,1.07778 -0.12978,0.0903 -0.29568,0.1185 -0.41418,0.21894 -0.42209,0.35437 -1.0428,0.51576 -1.58553,0.52479 -0.16703,0.005 -0.33519,-0.002 -0.50109,-0.0226 -0.10157,-0.0113 -0.20991,-0.0339 -0.31148,-0.0564 -0.0677,-0.0113 -0.28553,-0.0226 -0.32954,-0.0677 -0.21105,-0.22684 -0.27086,-0.62522 0.0564,-0.80918 0.5135,0.10157 0.94236,0.33293 1.36219,0.2923 0.14558,-0.0113 0.26973,-0.11737 0.41193,-0.17493 0.76178,-0.31149 1.65335,-0.75163 2.13615,-1.3623 -0.079,-0.079 -0.16138,-0.15348 -0.25392,-0.22233 -0.10158,-0.079 -0.14898,-0.25731 -0.18396,-0.37017 -0.0451,-0.1501 -0.0677,-0.31261 -0.007,-0.45932 0.11963,-0.30246 0.51575,-0.54962 0.54848,-0.91302 0,-0.0226 -0.0226,-0.0339 -0.0226,-0.0564 -0.24603,-0.0451 -0.49318,0.0677 -0.69858,0.0903 -0.46723,0.0677 -0.88367,0.17267 -1.33589,0.30584 -0.15236,0.0451 -0.30585,0.0113 -0.4503,0.0903 -0.001,-0.0113 0.0113,-0.0113 0.0113,-0.0226 0.002,0.0451 -0.29117,0.0564 -0.31261,0.0677 -0.13994,0.0564 -0.20089,0.17719 -0.38146,0.15574 -0.40967,-0.0451 -0.55525,-0.60265 -0.44804,-0.9164 1.46613,0.009 2.78565,-0.23925 4.15235,-0.4029 0.18734,-0.31599 0.34534,-0.62748 0.53268,-0.91527 0.079,-0.12865 0.24829,-0.31148 0.26973,-0.40628 0.0451,-0.11286 0.18622,-0.2528 0.1264,-0.395 -0.0564,-0.0226 -0.11737,-0.0339 -0.16364,-0.0339 -0.0564,0.007 -0.14333,0.0903 -0.19073,0.12415 -0.0677,0.0451 -0.12527,0.0903 -0.18396,0.13542 -0.1185,0.0903 -0.23248,0.19412 -0.34308,0.29569 -0.11512,0.10157 -0.22684,0.21217 -0.34083,0.31938 -0.0677,0.0564 -0.12414,0.15123 -0.20766,0.1896 -0.0451,0.0226 -0.0677,0.0226 -0.11963,0.005 -0.0226,-0.007 -0.16138,-0.0564 -0.16589,-0.079 -0.0339,-0.14446 -0.0339,-0.39274 0.0339,-0.6083 0.0226,-0.0564 0.079,-0.1343 0.0903,-0.1817 0.079,-0.39387 0.34985,-0.82047 0.43901,-1.20249 -0.079,-0.0677 0.0226,-0.17719 0.0677,-0.30472 0.0226,-0.0677 0.17041,0.10158 0.17944,0.11286 0.0451,0.10157 0.079,0.23362 0.10157,0.34422 0.0226,0.11624 0.0226,0.23587 0.0226,0.35211 -0.002,0.0339 -0.0451,0.34421 -0.0677,0.33857 0.60717,0.0903 0.94912,-0.3002 1.3843,-0.52366 0.13769,-0.40854 0.53156,-1.04167 0.62636,-1.56047 -0.0677,-0.11963 -0.13092,-0.15461 -0.0903,-0.3002 0.2291,-0.0226 0.44353,0.079 0.63426,0.19186 0.0903,0.0564 0.19073,0.0903 0.27763,0.14784 0.0339,0.0226 0.079,0.0677 0.10157,0.11286 0.009,0.0226 -0.0226,0.17041 -0.0113,0.17154 0.0113,0.0113 0.0113,-5.6e-4 0.0226,-0.009 0.0339,0.33744 -0.3792,0.6557 -0.48867,1.06537 z m 13.28948,2.08424 c -0.20992,0.44127 -0.27086,0.96718 -0.33519,1.36817 0.0452,0.0677 0.002,0.18169 0.0564,0.30019 0.87577,0.53946 1.91722,1.12869 3.13111,0.70649 0.0113,-0.005 0.002,0.14784 0.002,0.158 -0.009,0.079 -0.079,0.15123 -0.12301,0.21668 -0.0451,0.0677 -0.079,0.15688 -0.1264,0.22685 -0.14107,0.18395 -0.34873,0.30133 -0.49883,0.47625 -0.12301,0.14108 -0.33744,0.17606 -0.49996,0.14108 -0.39725,-0.0903 -0.68278,-0.3476 -0.97057,-0.61846 -0.0903,-0.0903 -0.96154,-1.06086 -1.10938,-0.96831 -0.0903,0.0564 -0.0451,0.0339 -0.079,0.12414 -0.0451,0.13204 -0.13543,0.24377 -0.17606,0.3713 -0.0677,0.19524 -0.11962,0.40628 -0.2054,0.59363 -0.079,0.1659 -0.17605,0.31938 -0.25505,0.48302 -0.0677,0.14446 -0.11286,0.30472 -0.20315,0.4345 -0.23248,0.33519 -0.39725,0.71665 -0.64554,1.04167 -0.10157,0.13317 -0.237,0.24265 -0.32277,0.39049 -0.0451,-0.0113 -0.079,0.0339 -0.079,0.10157 6.8e-4,-0.0226 -0.15913,0.13769 -0.16816,0.1501 -0.0564,0.0564 -0.1343,0.1185 -0.20878,0.16703 -0.18283,0.12865 -0.38597,0.22458 -0.5925,0.30584 -0.0226,-0.0564 -0.0451,-0.11286 -0.0903,-0.1264 0.31262,-0.45368 0.76292,-0.96606 0.9875,-1.48847 0.40855,-0.53946 0.75163,-1.22393 1.01459,-1.84837 0.16815,-0.40064 0.27198,-0.82612 0.35437,-1.2526 0.0226,-0.1343 0.0677,-0.27086 0.0677,-0.40854 0.002,-0.0564 0.009,-0.13205 -0.0226,-0.18283 -0.0226,-0.0339 -0.0564,-0.0677 -0.10157,-0.0677 -0.0564,-0.009 -0.10157,0.0452 -0.14333,0.0677 -0.0564,0.0226 -0.12414,0.0226 -0.18734,0.0226 -0.0903,0.0113 -0.18396,0.0564 -0.27988,0.0451 -0.15122,-0.0226 -0.29681,-0.0903 -0.43449,-0.15123 -0.0564,-0.0339 -0.15236,-0.0451 -0.19525,-0.0903 -0.0339,-0.0339 -0.0564,-0.13656 -0.0677,-0.1817 -0.007,-0.079 0.15913,-0.079 0.20653,-0.0903 0.11398,-0.0339 0.22797,-0.0677 0.34081,-0.11286 0.2246,-0.079 0.44467,-0.18057 0.64669,-0.31261 0.11285,-0.0677 0.21104,-0.15574 0.30018,-0.24941 0.20879,-0.21782 0.32842,-0.50899 0.37582,-0.80354 0.0564,-0.3081 -0.0339,-0.5688 -0.0452,-0.869 -0.007,-0.45707 0.0677,-0.90625 0.0452,-1.36399 0.20314,-0.29117 0.50673,-0.23023 0.70084,0.0226 0.24603,0.316 0.10157,0.5688 0.11399,0.91865 0.009,0.20879 -0.0452,0.40177 -0.0903,0.6004 -0.0113,0.0677 0.002,0.1264 -0.009,0.18622 -0.0113,0.079 -0.0451,0.1422 -0.0564,0.21668 -0.0226,0.13882 -0.0226,0.27989 0.007,0.41532 0.24265,-0.12753 0.45933,-0.34422 0.78775,-0.34873 0.1343,0.0564 0.35437,0.15687 0.26408,0.31713 0.0226,0.14332 -0.10157,0.35324 -0.17041,0.43788 -0.19525,0.23926 -0.62636,0.40967 -0.92656,0.53494 z m -27.36579,-7.45691 c -0.0564,0.0903 -0.11625,0.18057 -0.17832,0.27085 -0.12075,0.16816 -0.23925,0.3397 -0.35098,0.5135 -0.0564,0.0903 -0.079,0.1975 -0.14333,0.28214 -0.13091,0.18058 -0.30697,0.34196 -0.4503,0.51576 -0.12076,0.14672 -0.20879,0.31713 -0.3318,0.46497 -0.079,0.0903 -0.15461,0.18396 -0.23023,0.27537 -0.17041,0.20315 -0.33518,0.39613 -0.4582,0.62862 -0.0451,0.079 -0.11285,0.15461 -0.0451,0.22458 0.079,0.0903 0.23023,0.10157 0.3397,0.0903 0.13204,-0.0113 0.2607,-0.0564 0.38484,-0.0903 0.22346,-0.079 0.48416,-0.22458 0.72567,-0.19975 0.079,0.007 0.41306,0.079 0.4345,0.18508 0.0226,0.11963 -0.009,0.23361 -0.10157,0.316 -0.0677,0.0564 -0.158,0.0564 -0.23926,0.079 -0.0677,0.0226 -0.13655,0.0677 -0.20991,0.0903 -0.27311,0.10157 -0.5293,0.23474 -0.7742,0.39048 -0.13317,0.079 -0.26183,0.17606 -0.38936,0.26634 -0.11285,0.079 -0.20314,0.1896 -0.3081,0.27312 0.23023,0.10157 0.55526,0.10157 0.80693,0.14897 0.13994,0.0226 0.2844,0.0451 0.41983,0.0903 0.23474,0.0677 0.48867,0.10158 0.40177,0.40629 -0.0226,0.079 -0.0564,0.16251 -0.0903,0.24377 -0.0113,0.0339 -0.3002,0.0903 -0.34422,0.10157 -0.11624,0.0339 -0.22458,0.0451 -0.33857,0.079 -0.13204,0.0451 -0.31036,0 -0.42096,0.10157 -0.11285,0.11286 -0.009,0.27425 0.0339,0.39162 0.10157,0.25731 0.27537,0.52027 0.26296,0.80241 -0.009,0.20879 -0.12189,0.4345 -0.34986,0.42434 -0.0564,0 -0.41193,0.0113 -0.3871,-0.10157 0.0226,-0.10157 0.0451,-0.20991 0.0564,-0.31374 0.0113,-0.15687 -0.0339,-0.33519 -0.0677,-0.48529 -0.0339,-0.13768 -0.24378,-0.53494 -0.427732,-0.47964 0.009,0.007 0.01129,0.002 0.02257,-0.005 -0.142199,0.0226 -0.602656,0.0903 -0.808056,0.17041 -0.06771,-0.0226 -0.290042,0.0564 -0.402899,0.0903 -0.231357,0.0564 -0.477385,0.0903 -0.679399,0.23023 -0.170414,0.0113 -0.279886,0.16477 -0.4661,0.17267 -0.169285,-0.14333 -0.04514,-0.38485 -0.03386,-0.61056 0.09029,-0.19073 0.2133,-0.34647 0.380328,-0.52366 0.448042,-0.474 1.125184,-0.81934 1.652452,-1.15261 0.0068,-0.0677 0.06772,-0.15235 0.09029,-0.22232 -0.079,-0.079 -0.138814,0.002 -0.206528,0.0226 -0.01129,-0.0226 0.009,-0.009 0.02257,-0.0226 -0.460457,0.10157 -0.801285,0.23925 -1.224837,0.32502 -0.0068,0.0226 0.009,0.0226 0.01129,0.0113 -0.129786,0.0339 -0.349857,0.10157 -0.519142,0.11399 -0.0068,0.0226 0.009,0.0226 0.01129,0.009 -0.501085,0.1738 -1.10939,0.22233 -1.685638,0.25732 -0.337442,0.0226 -0.734699,-0.0113 -1.083427,-0.30923 -0.0023,-0.0451 0.05643,-0.10157 0.03386,-0.14784 0.04514,-0.0226 0.112857,-0.12414 0.09029,-0.16026 0.115114,-0.11624 0.243771,-0.33857 0.422085,-0.45256 0.370171,-0.23135 0.916399,-0.11285 1.314784,-0.11285 0.503348,-0.0564 1.013462,-0.0339 1.517142,-0.10157 0.253929,-0.0339 0.503343,-0.0903 0.739214,-0.18735 0.120757,-0.0564 0.237,-0.11398 0.345342,-0.18734 0.225714,-0.1501 0.488671,-0.40516 0.659081,-0.6162 0.10157,-0.11963 0.1817,-0.25844 0.26521,-0.39048 0.0677,-0.10158 0.23023,-0.2765 0.25619,-0.3871 0.0226,-0.11963 0.35098,-0.47626 0.49431,-0.553 0.079,-0.0903 0.13543,-0.17606 0.22459,-0.26296 0.0903,-0.079 0.12527,-0.21443 0.19073,-0.31487 0.0451,-0.0677 0.0903,-0.13994 0.13317,-0.20653 0.0564,-0.079 0.19524,-0.35098 0.31938,-0.3397 0.079,-0.12188 0.19299,-0.25393 0.24377,-0.38823 0.0564,-0.16815 0.11286,-0.31035 0.21782,-0.45594 0.10157,-0.14107 0.23248,-0.27537 0.29907,-0.4424 0.079,-0.0451 0.0451,-0.3002 0.0903,-0.38484 0.0677,-0.1264 0.079,-0.3002 0.12866,-0.43563 0.0564,-0.17944 0.10157,-0.35776 0.12189,-0.54397 0.0113,-0.12753 0.0226,-0.23023 0.10157,-0.33293 0.079,-0.10157 0.16928,-0.23587 0.29117,-0.14333 0.24151,0.19073 0.28891,0.59702 0.18734,0.86787 -0.0451,0.11286 -0.0339,0.25732 -0.0564,0.33519 -0.007,0.0226 -0.0339,-0.007 -0.0339,-0.005 -0.0113,0.0339 0.0113,0.0564 0.002,0.10157 -0.0339,0.12865 -0.16477,0.27988 -0.20765,0.41644 -0.0903,0.28666 -0.25393,0.53381 -0.4108,0.78323 -0.10157,0.1659 -0.20315,0.33518 -0.30585,0.50221 z m -2.07206,5.02067 v 0 c -0.079,0.0564 -0.15235,0.20314 -0.17267,0.28665 0.15574,0.079 0.3239,0.0452 0.41644,-0.0677 0.0226,-0.1264 -0.14332,-0.12979 -0.24264,-0.2133 z m -0.848682,-0.0903 v 0 c -0.319385,0.18283 -0.399514,0.34421 -0.734699,0.5688 0.132043,0.29343 0.546228,-0.0113 0.741471,0.0226 -0.02257,-0.0339 0.05643,0.002 0.06771,-0.0451 -0.03386,-0.17832 0.05643,-0.34083 -0.079,-0.55074 z m 4.481782,-5.43418 c -0.0339,-0.0677 -3.4e-4,-0.1659 -0.0113,-0.23925 -0.0113,-0.079 -0.0339,-0.1501 -0.0451,-0.2291 -0.0113,-0.079 -0.0226,-0.15123 0.002,-0.22798 0.009,-0.0339 0.12076,-0.26408 0.14785,-0.24602 0.48528,0.32841 0.71551,0.87802 0.72115,1.45359 5.7e-4,0.10158 -0.0113,0.27763 -0.11285,0.33519 -0.17268,0.10157 -0.50673,-0.10157 -0.65345,-0.1896 0.0339,0.0226 0.1422,-0.23474 0.14785,-0.26521 0.0113,-0.0903 -0.009,-0.22233 -0.0677,-0.29005 -0.0339,-0.0339 -0.0903,-0.0564 -0.12188,-0.10157 z m -0.86449,1.7134 c -0.0226,0 -0.0451,0 -0.0564,0.0113 -0.0451,0.0226 -0.0677,0.0903 -0.079,0.13317 -0.0451,0.10158 -0.0451,0.21556 -0.0677,0.3239 -0.0113,0.079 -0.0451,0.51237 -0.16929,0.51802 -0.0677,0.002 -0.14107,0.009 -0.2133,0.002 -0.079,-0.005 -0.1501,-0.0226 -0.22233,-0.0564 -0.0451,-0.0113 -0.079,-0.0226 -0.0903,-0.079 -0.0113,-0.079 -0.0339,-0.15462 -0.0451,-0.23362 -0.002,-0.0451 -0.002,-0.079 0.002,-0.11737 0.002,-0.0339 -0.0113,-0.0564 -0.0226,-0.0903 -0.0113,-0.0339 -0.0113,-0.0677 -0.009,-0.10158 0.002,-0.0339 0.0113,-0.0677 0.0226,-0.10157 0.002,-0.0339 -0.0113,-0.0677 -0.0113,-0.10157 0.009,-0.0451 0.0677,-0.10157 0.10157,-0.12753 0.0451,-0.0339 0.10157,-0.0677 0.15461,-0.0903 0.12866,-0.0564 0.26409,-0.10157 0.39613,-0.14785 0.0451,-0.0113 0.0903,-0.0226 0.13317,-0.0564 0.0339,-0.0226 0.0452,-0.0564 0.0564,-0.0903 0.0226,-0.0339 0.0452,-0.0564 0.0677,-0.0903 0.0564,-0.10158 0.079,-0.24603 0.17831,-0.32729 0.002,-0.002 0.0339,-0.0451 0.0451,-0.0677 0.0226,-0.0339 0.079,-0.12753 0.17267,-0.15688 0.42886,0.26973 0.9243,0.99202 0.24265,1.10713 -0.0113,0.0564 -0.0903,0.0451 -0.13092,0.0677 -0.0451,0.0339 -0.11285,-0.0226 -0.14671,-0.0452 -0.0564,-0.0339 -0.10157,-0.0903 -0.16816,-0.11737 -0.0451,-0.0226 -0.0903,0.005 -0.12978,0.002 z m 38.44722,1.53237 c 0.007,0.0677 -0.0451,0.12527 -0.079,0.1738 -0.0564,0.0903 -0.15236,0.16251 -0.23926,0.2291 -0.2765,-0.1896 -0.4424,-0.47626 -0.66247,-0.72003 -0.0564,-0.0564 -0.11737,-0.11286 -0.17267,-0.17041 -0.0564,-0.0564 -0.13655,-0.10157 -0.19524,-0.14559 -0.0677,-0.0564 -0.13656,-0.11285 -0.20089,-0.16815 -0.0339,-0.0339 -0.0677,-0.0677 -0.11285,-0.10158 -0.0113,-0.0113 -0.0903,-0.10157 -0.10157,-0.10157 0.0451,-0.009 0.079,-0.10157 0.12301,-0.12075 0.0564,-0.0226 0.13543,0.002 0.19411,0.0226 0.13092,0.0451 0.24265,0.12301 0.35663,0.1975 0.0677,0.0451 0.13204,0.079 0.2054,0.10157 0.17719,0.0677 0.38146,-0.005 0.52817,0.11286 0.10157,0.0903 0.1501,0.20652 0.19412,0.32841 0.0226,0.0677 0.0451,0.13994 0.079,0.20427 0.0226,0.0339 0.0339,0.0677 0.0564,0.10157 0.009,0.0113 0.0113,0.0226 0.0113,0.0451 z m -1.24605,-4.54532 c 0.0564,-0.0339 -0.0226,-0.079 -0.0452,-0.12752 -0.007,-0.0226 -0.0451,-0.002 -0.0564,-0.0113 -0.0903,-0.11286 -0.14672,-0.20991 -0.29681,-0.29343 -0.0226,-0.0113 -0.0451,0.0113 -0.0564,0.005 -0.10157,-0.0339 -0.11736,-0.19863 -0.2133,-0.26409 0.11625,-0.13543 0.21218,-0.1896 0.34986,-0.1817 0.1738,0.009 0.34647,0.0339 0.5214,0.0451 0.0903,0.009 0.16929,0.0113 0.25731,0.0226 0.0339,0.001 0.079,-0.005 0.11399,0.001 0.0564,0.007 0.0564,0.0677 0.079,0.10158 0.0339,0.0564 0.079,0.10157 0.0903,0.16589 0.0564,0.2133 -0.0226,0.42209 -0.0226,0.61169 0,0.0339 0.0339,0.0564 0.0339,0.0903 -0.002,0.0903 -0.0451,0.17041 -0.0564,0.24828 -0.0339,0.22007 0.0452,0.4661 0.0677,0.66699 0.0226,0.009 0.0564,-0.005 0.0903,-0.0339 0.16477,-0.61056 0.33857,-1.3061 0.8453,-1.83223 0.11286,-0.11625 0.237,-0.22798 0.37694,-0.31036 0.0677,-0.0339 0.14559,-0.0677 0.22233,-0.0903 0.16252,-0.0451 0.24152,0.1738 0.28779,0.28102 0.0677,0.16703 0.13881,0.33292 0.17944,0.51011 0.079,0.33519 0.11286,0.67489 0.13543,1.01684 0.0113,0.16364 0.0226,0.32954 0.0451,0.49093 0.0339,0.31261 0.1185,0.91188 0.38597,1.21592 0.20202,-0.39726 0.45707,-0.97057 0.90737,-1.28702 0.0564,-0.0451 0.11625,-0.0903 0.1896,-0.11286 0.079,-0.0226 0.14107,0.0452 0.19299,0.10157 0.0451,0.0564 0.079,0.12302 0.11285,0.19412 0.0564,0.13543 0.079,0.28666 0.079,0.4345 0,0.2923 -0.10157,0.57331 -0.22232,0.83514 -0.0451,0.0903 -0.0903,0.18396 -0.13092,0.27537 -0.0226,0.0451 -0.0451,0.0903 -0.0677,0.13994 -0.0226,0.0339 -0.0677,0.0564 -0.0903,0.0903 -0.0339,0.0564 -0.0564,0.11511 -0.0903,0.1659 -0.0226,0.0226 -0.0452,0.0451 -0.0677,0.0677 -0.0226,0.0226 -0.0226,0.0452 -0.0451,0.079 -0.0339,0.0564 -0.079,0.11963 -0.12527,0.17606 -0.0113,0.0226 -0.15236,0.16929 -0.14897,0.17606 0.26973,0.62184 0.0451,1.23714 0.002,1.90119 -0.079,-0.11286 -0.12978,-0.2765 -0.1896,-0.38372 -0.002,-0.005 -0.079,-0.10157 -0.0677,-0.10157 -0.0903,-0.0339 -0.34308,0.3792 -0.49318,0.47513 -0.0677,0.0451 -0.1501,0.0451 -0.20653,0.0903 -0.0226,0.0226 -0.11512,-0.11285 -0.12753,-0.12527 -0.0564,-0.0903 0.079,-0.20314 0.12301,-0.2607 0.079,-0.10157 0.14107,-0.2212 0.20992,-0.33292 0.12753,-0.20202 0.21894,-0.43563 0.25844,-0.67263 0.0226,-0.13995 0.0226,-0.27763 0.007,-0.41644 -0.007,-0.0339 0.0903,-0.13543 0.11399,-0.16478 0.0339,-0.0564 0.0677,-0.11285 0.10157,-0.16364 0.0677,-0.10157 0.12527,-0.20991 0.17944,-0.31938 0.10157,-0.20315 0.1817,-0.41645 0.23926,-0.63765 0.0113,-0.0564 0.0339,-0.12301 0.0451,-0.18282 0.0113,-0.0677 0.0564,-0.12189 0.0564,-0.18509 0.0113,-0.13204 -0.20314,0.0226 -0.23249,0.0451 -0.10157,0.10157 -0.15123,0.237 -0.21894,0.36227 -0.0451,0.079 -0.12301,0.15688 -0.17154,0.25619 -0.0226,0.0451 -0.0452,0.10157 -0.0677,0.15687 -0.0451,0.11286 -0.16025,0.3002 -0.24038,0.49206 -0.0226,0.0451 -0.0339,0.0903 -0.0564,0.14333 -0.009,0.0226 -0.007,0.0564 -0.0226,0.079 -0.0113,0.0339 -0.0226,0.0226 -0.0451,0.0339 -0.0451,0.0339 -0.079,0.0903 -0.0903,0.12979 -0.0226,0.0451 -0.0339,0.10157 -0.0564,0.15687 -0.0339,0.10157 -0.1343,0.16928 -0.17154,0.27086 -0.0113,0.0339 -0.0113,0.079 -0.0339,0.11285 -0.0226,0.0339 -0.0564,0.0564 -0.079,0.0903 -0.0451,0.0564 -0.079,0.11286 -0.11511,0.16138 -0.079,0.12189 -0.16703,0.24378 -0.2686,0.35212 -0.0451,0.0451 -0.079,0.10157 -0.12753,0.1343 -0.10157,0.0677 -0.079,-0.14333 -0.079,-0.19412 0.009,-0.079 0.0226,-0.16251 0.0451,-0.24377 0.0226,-0.0564 0.0564,-0.10157 0.0903,-0.14897 0.0339,-0.0564 0.0451,-0.12866 0.0903,-0.18396 0.0564,-0.0677 0.10157,-0.12188 0.15575,-0.18621 0.0903,-0.12414 0.18621,-0.25506 0.24264,-0.39726 0.11511,-0.29568 -0.0339,-0.61055 -0.21556,-0.76065 -0.0339,-0.0339 -0.079,-0.0452 -0.16026,-0.0339 -0.009,0.0451 -0.0226,0.0677 0.0339,0.0903 -0.0113,0.0903 -0.20427,0.28327 -0.29681,0.29907 -0.0564,0.009 -0.26522,-0.10157 -0.31036,-0.0903 -0.25393,0.0451 -0.0564,0.69746 0.0226,0.91414 0.0226,0.22685 0.11737,0.51012 -10e-4,0.72003 -0.0226,0.0451 -0.0564,0.079 -0.0903,0.11286 -0.10157,0.10157 -0.12527,-0.10157 -0.11963,-0.17267 0.002,-0.0677 -0.0339,-0.12753 -0.0339,-0.1975 -0.002,-0.079 10e-4,-0.16365 -0.009,-0.24716 -0.007,-0.0564 -0.0113,-0.11399 -0.0226,-0.17041 -0.0113,-0.0452 -0.0451,-0.11286 -0.0451,-0.15462 -0.007,-0.21104 -0.0339,-0.44465 -0.13317,-0.6083 -0.0451,-0.17493 -0.12189,-0.711 -0.45481,-0.46948 -0.002,0.0677 0.12075,0.23813 -0.0564,0.30471 -0.45482,-0.0903 -0.90286,-0.61281 -1.31716,-0.94235 -0.0226,-0.0113 -0.0451,-0.0452 -0.0564,-0.0564 -0.0677,-0.0226 -0.0339,-0.007 -0.079,-0.0564 -0.0451,-0.0451 -0.10157,-0.0677 -0.15235,-0.10157 -0.0564,-0.0226 -0.10157,-0.0226 -0.14107,-0.0677 -0.0339,-0.0339 -0.0564,-0.0451 -0.10158,-0.0677 -0.0451,-0.0226 -0.19862,-0.0451 -0.18959,-0.11624 0.0113,-0.0677 0.0677,-0.11399 0.11962,-0.15462 0.0452,-0.0339 0.0564,-0.079 0.11286,-0.10157 0.0564,-0.0226 0.11286,-0.009 0.1659,0.009 0.15687,0.0564 0.30246,0.13994 0.45143,0.20991 0.30697,0.14446 0.59814,0.30697 0.87577,0.50673 0.15913,0.11624 0.30246,0.24716 0.4424,0.3871 0.0339,0.0339 0.0677,-0.0226 0.10157,0 0.0113,-0.1738 0.11286,-0.44804 0.0226,-0.61394 -0.11511,-0.21782 -0.52253,-0.22684 -0.68166,-0.52592 0.14672,-0.59024 -0.0226,-1.1965 -0.30471,-1.65786 z m 1.92476,-0.42208 v 0 c -0.079,0.12301 -0.22344,0.4108 -0.31374,0.57331 -0.0226,0.0339 -0.079,0.0677 -0.10157,0.10157 -0.0564,0.11286 -0.13091,0.3555 -0.11511,0.45143 0.12189,0.0451 0.28891,0.079 0.46949,0.13882 0.15461,0.0564 0.42096,0.10157 0.50447,0.20765 0.0339,0.0451 0.0564,0.17267 0.079,0.25167 0.0451,0.158 0.0677,0.32729 -0.0451,0.41306 0.13543,0.3476 -0.25053,0.63877 -0.0339,0.99879 0.13656,0.0226 0.26634,0.10157 0.3871,0.28101 0.0451,-0.0226 0.0339,-0.0564 0.079,-0.079 -0.0226,-0.34873 0.0226,-0.74486 -0.079,-0.98637 0.0226,-0.26973 -0.0903,-0.4819 -0.079,-0.711 -0.0903,-0.1738 -0.0564,-0.3871 -0.14671,-0.56203 -0.0339,-0.0677 -0.0226,-0.11963 -0.0452,-0.18395 -0.0113,-0.0564 -0.0451,-0.10158 -0.0564,-0.16026 -0.007,-0.0339 0.007,-0.0677 -0.002,-0.0903 -0.0226,-0.0677 -0.0564,-0.12075 -0.079,-0.1817 -0.0226,-0.0564 -0.0452,-0.11963 -0.0677,-0.17944 -0.0226,-0.0564 -0.0564,-0.12301 -0.0903,-0.17831 -0.0113,-0.0226 -0.11399,-0.16816 -0.14107,-0.15913 -0.0677,0.0226 -0.0564,0.0677 -0.12753,0.0564 z m -0.65908,1.84442 v 0 c 0.18058,0.19073 0.22007,0.23926 0.22007,0.39726 0,0.20201 -0.0677,0.46158 0.0677,0.69971 0.19186,-0.0451 0.0451,-0.20314 0.16252,-0.29004 0.10157,0.0339 0.19637,0.15574 0.29342,0.23926 0.10158,-0.11963 0.0564,-0.31149 0.0903,-0.45143 0.0226,-0.0903 0.009,-0.0903 0.009,-0.18622 0,-0.13204 0.0113,-0.23361 -0.0564,-0.3476 -0.16929,-0.26521 -0.47964,-0.36678 -0.68053,-0.52365 -0.13881,0.0903 -0.21781,0.1975 -0.31035,0.23135 0.0903,0.0564 0.12978,0.14785 0.20652,0.23136 z m 2.81454,6.94421 c 0.38823,-0.21669 0.98074,-0.32052 1.32551,-0.77082 0.0113,-0.0226 -0.14559,-0.26521 -0.16364,-0.29568 -0.0564,-0.0903 -0.11286,-0.17832 -0.17041,-0.2686 -0.11287,-0.1659 -0.22007,-0.33632 -0.33857,-0.49432 -0.12077,-0.16703 -0.2607,-0.30697 -0.3984,-0.45255 -0.0451,-0.0451 -0.0677,-0.10157 -0.11286,-0.15575 0.002,0.007 -0.15235,0.27876 -0.16138,0.30697 -0.0564,0.1185 -0.10157,0.23475 -0.15349,0.3476 -0.11286,0.23362 -0.24038,0.45143 -0.45706,0.59589 -0.0677,0.0451 -0.14107,0.0903 -0.21895,0.11286 -0.0451,0.0113 -0.10157,0.0339 -0.14559,0.0226 -0.0564,-0.0226 -0.10157,-0.0903 -0.14333,-0.12753 -0.0451,-0.0339 -0.0903,-0.0564 -0.0564,-0.12414 0.0564,-0.079 0.12075,-0.15236 0.18621,-0.22459 0.0339,-0.0339 0.0677,-0.0677 0.0903,-0.11286 0.0226,-0.0451 0.0339,-0.0903 0.0677,-0.11624 0.0564,-0.0451 0.11286,-0.0903 0.15236,-0.14784 0.0451,-0.0677 0.079,-0.13656 0.1264,-0.20089 0.0903,-0.11285 0.20991,-0.20088 0.2765,-0.32277 0.0451,-0.079 0.0451,-0.17718 0.0903,-0.27537 0.11286,-0.23248 0.2449,-0.47287 0.35212,-0.72115 0.1422,-0.32842 0.44127,-0.72116 0.69858,-0.97735 0.12189,-0.0226 0.24716,-0.18734 0.37469,-0.10157 0.0903,0.0564 0.0903,0.22233 0.13431,0.28666 -0.13769,0.65344 -0.64667,0.9638 -0.99203,1.45619 0.3115,0.25167 0.59476,0.45369 0.87126,0.6873 0.14107,0.22572 0.39387,0.33519 0.52591,0.53043 0.0677,0.10157 0.11851,0.2054 0.16816,0.31036 0.0339,0.0677 0.0677,0.13542 0.0903,0.20427 0.0226,0.079 0.0113,0.1501 0.0339,0.21781 0.0226,0.0564 0.0677,0.10157 0.079,0.14333 0.007,0.0226 -0.0226,0.0451 -0.0226,0.0564 0.007,0.0226 0.0451,0.0339 0.0451,0.0226 0.0226,0.0903 0.0226,0.1817 0.0339,0.27086 0.007,0.0451 0.0226,0.079 0.0339,0.12301 0.007,0.0677 -0.0677,0.13543 -0.11963,0.1659 -0.10157,0.0677 -0.26183,0.0339 -0.37356,0.0451 -0.13881,0.0113 -0.27763,0.0226 -0.41644,0.0339 -0.2844,0.0226 -0.57444,0.0339 -0.8611,0.0113 -0.079,-0.007 -0.15687,-0.0113 -0.23474,-0.0226 -0.0339,-0.005 -0.079,-0.0113 -0.11512,-0.0226 -0.0226,-0.005 -0.0903,-0.0339 -0.11285,-0.0226 z m -2.93935,-2.9976 c 0.0339,0 0.0564,0.0564 0.079,0.0903 0.0226,0.0339 0.0451,0.0677 0.079,0.10157 0.0226,0.0339 0.0564,0.0677 0.079,0.10157 0.0451,0.0451 0.079,0.0564 0.0903,0.12301 0.009,0.0339 0.0226,0.079 0.0452,0.11286 0.0226,0.0451 0.0451,0.0677 0.0564,0.12076 0.009,0.0564 0.002,0.11285 0.0113,0.15912 0.0113,0.079 0.0339,0.16365 0.0677,0.24265 0.0339,0.079 0.0564,0.16251 0.10158,0.24264 0.0226,0.0451 0.0339,0.079 0.0564,0.12301 0.0113,0.0226 0.0339,0.11286 0.0564,0.12076 0.0339,0.0226 0.079,-0.0226 0.11626,-0.0564 0.0113,-0.0113 -0.0226,-0.19185 -0.0226,-0.21894 -0.009,-0.079 -0.0113,-0.14671 -0.0226,-0.22233 -0.007,-0.079 -0.0113,-0.1501 -0.0226,-0.2212 -0.007,-0.0451 -0.0339,-0.10157 -0.0113,-0.14333 0.007,-0.0113 0.079,-0.11398 0.0903,-0.10157 0.13543,0.0903 0.18283,0.27424 0.25957,0.34534 0.0677,0.2133 0.1896,0.59138 0.20315,0.869 0.009,0.16929 -0.0226,0.52592 -0.13092,0.72229 -0.079,0.12866 -0.25618,0.079 -0.42885,-0.0113 -0.24039,-0.12978 -0.40968,-0.40741 -0.52818,-0.60717 -0.0564,-0.23925 -0.0564,-0.42547 -0.11962,-0.61733 0.0226,-0.0339 -0.009,-0.0677 0.0226,-0.0903 -0.0903,-0.17944 -0.10157,-0.54736 -0.17267,-0.75614 -0.007,-0.0226 0.009,-0.079 0.007,-0.10157 -0.007,-0.0339 -0.0226,-0.079 -0.0226,-0.11286 -0.009,-0.0339 -0.0113,-0.079 -0.002,-0.11286 0.007,-0.0226 0.0226,-0.079 0.0564,-0.0903 0.002,0 0.007,0 0.009,0 z" />
  </g>
</svg>
