<?xml version="1.0" encoding="UTF-8" standalone="no"?>
<svg
   xmlns:dc="http://purl.org/dc/elements/1.1/"
   xmlns:cc="http://creativecommons.org/ns#"
   xmlns:rdf="http://www.w3.org/1999/02/22-rdf-syntax-ns#"
   xmlns:svg="http://www.w3.org/2000/svg"
   xmlns="http://www.w3.org/2000/svg"
   viewBox="0 0 266.66666 97.333336"
   height="97.333336"
   width="266.66666"
   xml:space="preserve"
   id="svg2"
   version="1.1"><metadata
     id="metadata8"><rdf:RDF><cc:Work
         rdf:about=""><dc:format>image/svg+xml</dc:format><dc:type
           rdf:resource="http://purl.org/dc/dcmitype/StillImage" /></cc:Work></rdf:RDF></metadata><defs
     id="defs6"><clipPath
       id="clipPath18"
       clipPathUnits="userSpaceOnUse"><path
         id="path16"
         d="M 0,73 H 200 V 0 H 0 Z" /></clipPath></defs><g
     transform="matrix(1.3333333,0,0,-1.3333333,0,97.333333)"
     id="g10"><g
       id="g12"><g
         clip-path="url(#clipPath18)"
         id="g14"><g
           transform="translate(6.3233,35.881)"
           id="g20"><path
             id="path22"
             style="fill:#af0032;fill-opacity:1;fill-rule:nonzero;stroke:none"
             d="M 0,0 C 3.361,0.2 2.384,4.255 2.384,4.255 -1.396,14.298 -5.282,14.4 -5.282,14.4 -7.318,14.864 -5.74,12.235 -5.74,12.235 -4.025,10.54 -3.602,2.924 -3.602,2.924 -3.078,-0.834 0,0 0,0" /></g><g
           transform="translate(19.7467,50.5942)"
           id="g24"><path
             id="path26"
             style="fill:#af0032;fill-opacity:1;fill-rule:nonzero;stroke:none"
             d="m 0,0 -0.261,-0.289 -0.201,-0.143 -0.304,-0.195 c 0,0 -0.204,-0.196 -0.361,-0.196 -0.15,0 -0.252,-0.386 -0.252,-0.386 h -0.562 l -0.048,0.197 -0.36,0.144 c 0,0 -0.104,0.241 -0.152,0.436 -0.052,0.191 -0.052,0.48 -0.052,0.48 l 0.258,0.293 0.306,0.341 0.254,0.288 0.408,0.241 0.357,0.148 0.403,-0.05 0.463,-0.241 0.301,-0.291 0.107,-0.245 z m 4.635,-5.089 c 0.371,1.231 -0.74,3.172 -0.74,3.172 C 1.761,-0.423 4.73,1.431 4.73,1.431 L 8.901,4.689 C 11.035,6.185 9.085,7.244 9.085,7.244 7.694,8.035 4.73,6.89 4.73,6.89 L -1.481,3.369 C -2.779,2.751 -2.592,3.981 -2.592,3.981 l 0.462,3.263 c 0.834,3.259 -2.598,3.965 -2.598,3.965 -3.519,0.525 -4.171,1.408 -4.171,1.408 -3.339,-0.091 -1.391,-2.027 -1.391,-2.027 2.043,-0.882 2.318,-10.043 2.318,-10.043 -0.927,-1.674 -4.081,-2.112 -4.081,-2.112 l -0.107,-0.183 c 0,0 -0.319,-0.13 -0.458,-0.232 -0.143,-0.098 -0.143,-0.397 -0.208,-0.499 -0.072,-0.096 0,-0.131 0.035,-0.23 0.03,-0.1 0.278,-0.298 0.453,-0.402 0.178,-0.1 0.487,-0.163 0.487,-0.163 h 1.018 c 0,0 0.386,0.033 0.558,0.063 0.178,0.037 0.317,0.1 0.317,0.1 l 0.458,0.302 0.312,0.1 0.352,0.032 0.28,-0.132 0.246,-0.302 0.034,-0.627 0.035,-1.568 c 0,0 -0.069,-0.527 -0.035,-0.729 0.035,-0.2 -0.034,-0.467 -0.034,-0.699 0,-0.233 -0.142,-0.398 -0.142,-0.398 l -0.525,-0.831 c 0,0 0,-0.497 0.039,-0.601 0.028,-0.098 0.133,-0.4 0.206,-0.597 0.07,-0.2 0.246,-0.363 0.35,-0.5 0.106,-0.132 0.141,-0.629 0.176,-0.829 0.035,-0.202 0.035,-0.769 0.035,-0.769 l 0.013,-0.879 v -0.792 l 0.371,-0.966 0.093,-2.295 c -0.093,-0.792 0.558,-14 0.558,-14 0.927,-2.032 2.223,-0.712 2.223,-0.712 1.67,1.589 3.152,11.456 3.152,11.456 0.094,1.142 0.187,10.216 0.187,10.216 0,1.676 1.669,1.765 1.669,1.765 l 3.062,1.231 c 0.738,0.265 1.478,1.146 1.478,1.146" /></g><g
           transform="translate(46.8848,50.447)"
           id="g28"><path
             id="path30"
             style="fill:#af0032;fill-opacity:1;fill-rule:nonzero;stroke:none"
             d="M 0,0 C 0.059,0.111 0.202,0.221 0.291,0.304 0.378,0.391 0.525,0.501 0.612,0.558 0.699,0.612 1.02,0.753 1.02,0.753 L 1.465,1.116 1.989,1.361 2.72,1.587 3.688,1.448 3.63,0.975 C 3.63,0.975 3.573,0.89 3.484,0.779 3.395,0.666 3.157,0.445 3.013,0.28 2.87,0.111 2.87,0.111 2.781,-0.03 2.696,-0.165 2.399,-0.586 2.314,-0.638 2.225,-0.695 2.169,-0.779 1.873,-0.975 1.578,-1.17 1.698,-1.116 1.435,-1.253 1.172,-1.394 1.085,-1.559 0.936,-1.643 0.79,-1.728 0.525,-1.865 0.406,-1.947 c -0.115,-0.085 -0.38,0.056 -0.38,0.056 0,0 -0.176,0.497 -0.176,0.664 0,0.17 -0.119,0.532 -0.147,0.641 C -0.326,-0.476 -0.061,-0.113 0,0 M 10.368,-4.064 C 9.02,-3.979 6.882,-3.478 5.245,-2.479 3.602,-1.474 3.395,-2.451 3.395,-2.451 3.452,-3.17 5.386,-4.064 5.386,-4.064 7.496,-4.926 6.324,-5.51 6.324,-5.51 4.891,-6.209 0.936,-7.544 0.936,-7.544 -1.583,-8.907 -1.557,-7.57 -1.557,-7.57 c 0,1.474 1.231,3.115 1.231,3.115 C 0.582,-3.17 7.496,1.587 7.496,1.587 9.695,3.45 9.02,3.701 9.02,3.701 8.612,4.563 6.882,4.759 6.882,4.759 5.77,4.563 1.637,3.146 1.637,3.146 -0.119,2.34 0.089,4.092 0.089,4.092 c 0.202,3.341 0.818,5.82 0.818,5.82 0.76,1.64 0.146,1.974 0.146,1.974 -0.882,0.668 -3.68,1.478 -3.68,1.478 -2.397,0.867 -3.204,-0.423 -3.061,-0.671 0.148,-0.251 1.613,-2.368 1.73,-3.117 0.115,-0.753 1.053,-6.35 0.176,-7.544 C -4.661,0.836 -6.654,0.753 -7.676,0.64 -8.701,0.532 -8.408,-0.558 -7.59,-1.363 c 0.821,-0.806 1.379,0.026 2.61,0.527 1.229,0.504 1.137,-0.669 1.17,-1.14 0.028,-0.475 -0.528,-4.233 -1.027,-5.373 -0.499,-1.137 -0.731,-0.386 -0.731,-0.386 -0.263,1.446 -1.616,4.337 -2.662,4.253 -1.049,-0.085 -0.999,-0.916 -1.177,-1.5 -0.173,-0.582 0.148,-2.532 -0.76,-3.398 -0.909,-0.862 -0.468,-2.058 -0.468,-2.058 0.818,-0.725 0.584,-1.446 0.436,-1.639 -0.148,-0.198 -1.376,-1.09 -2.019,-1.45 -0.645,-0.363 -4.924,-2.783 -7.266,-3.313 -2.345,-0.528 -0.732,-1.168 -0.732,-1.168 3.28,-1.557 5.011,-0.921 5.011,-0.921 0,0 2.637,2.006 4.159,3.233 1.524,1.22 3.4,1.695 4.099,1.75 0.703,0.056 0.349,-1.279 0.122,-1.809 -0.237,-0.527 -2.378,-4.005 -2.992,-5.01 -0.614,-1.001 -4.865,-6.012 -4.865,-6.012 -1.285,-2.058 0.677,-1.53 0.938,-1.476 0.265,0.059 5.069,4.203 5.069,4.203 0.968,0.584 5.214,6.515 5.568,9.298 0.352,2.784 2.286,4.26 4.279,4.564 1.985,0.306 11.391,3.037 12.129,4.732 0.728,1.7 -1.582,1.307 -2.933,1.392" /></g><g
           transform="translate(49.8557,32.6724)"
           id="g32"><path
             id="path34"
             style="fill:#af0032;fill-opacity:1;fill-rule:nonzero;stroke:none"
             d="M 0,0 C 0.139,-0.69 1.259,-3.786 1.793,-4.915 2.097,-5.555 3.758,-7.216 6.152,-5.681 8.718,-4.045 5.749,-0.447 5.749,-0.447 0.879,4.498 -2.065,4.626 -2.065,4.626 -3.144,4.948 -3.278,3.695 -2.84,3.439 -2.401,3.18 -0.237,1.224 0,0" /></g><g
           transform="translate(72.8802,48.7412)"
           id="g36"><path
             id="path38"
             style="fill:#af0032;fill-opacity:1;fill-rule:nonzero;stroke:none"
             d="m 0,0 -0.541,-0.871 c 0,0 -3.951,-2.826 -4.815,-2.724 0,0 -1.513,-0.308 0.274,1.335 1.782,1.643 4.376,4.06 4.376,4.06 L 0.05,0.825 Z m 2.269,-12.583 c -0.645,-0.31 -0.645,-0.31 -1.19,0 -0.538,0.306 -0.864,0.515 -0.595,1.233 0.269,0.719 0.538,0.925 0.057,1.542 -0.491,0.616 -0.541,1.335 0.373,2.207 0.918,0.873 1.246,4.162 1.3,5.239 0.055,1.081 0.376,1.593 1.192,2.058 0.806,0.458 1.027,0.868 -1.357,2.308 -2.377,1.437 0.649,2.928 0.649,2.928 l 4.273,2.877 c 0,0 1.891,1.385 0.916,2.106 C 6.921,10.631 5.134,9.552 5.134,9.552 5.134,9.552 3.838,8.936 3.406,8.684 2.97,8.425 2.97,8.115 0.647,7.757 -1.676,7.396 -1.574,6.78 -1.465,6.626 -1.35,6.469 -0.814,5.395 -0.488,4.88 -0.167,4.368 -0.597,3.801 -0.597,3.801 c 0,0 -4.107,-3.801 -6.272,-5.855 -2.164,-2.053 -1.784,-2.772 -1.407,-3.389 0.378,-0.618 1.841,-0.72 2.538,-0.618 0.708,0.104 3.519,1.439 4.006,1.851 0.488,0.409 1.244,1.692 1.458,0.771 0.215,-0.927 -0.214,-2.518 -0.214,-2.518 -0.595,-0.358 -2,-2.516 -1.785,-2.62 0.217,-0.1 0.923,-1.488 0.923,-1.488 0,0 0.05,-1.749 0.215,-2.157 0.156,-0.413 0.321,-0.721 0.262,-1.179 -0.052,-0.467 -0.536,-2.008 -1.78,-3.083 -1.246,-1.083 -0.812,-4.626 -0.161,-5.141 0.647,-0.512 2.273,-0.462 2.217,0.721 -0.057,1.181 0.323,2.002 0.864,3.489 0.543,1.493 2.542,2.622 3.083,3.651 0.538,1.027 -0.432,1.487 -1.081,1.181" /></g><g
           transform="translate(85.9052,52.0279)"
           id="g40"><path
             id="path42"
             style="fill:#af0032;fill-opacity:1;fill-rule:nonzero;stroke:none"
             d="m 0,0 -0.321,0.671 0.156,1.845 H 0.161 L 2.325,0.36 3.139,-0.664 c 0,0 0.484,-0.823 -0.165,-1.594 -0.649,-0.771 -1.079,-1.183 -1.079,-1.183 0,0 -0.92,-0.256 -1.087,0.412 -0.161,0.667 -0.482,1.592 -0.482,1.592 z m 1.787,-16.688 c 0.267,-1.033 1.454,-3.908 3.132,-4.318 1.676,-0.415 2.217,0.825 1.837,1.183 -0.382,0.358 -0.484,0.818 -1.782,3.235 -1.296,2.414 -0.163,2.366 -0.163,2.366 1.895,1.073 1.244,2 1.244,2 -0.482,1.541 -1.837,1.029 -1.837,1.029 -1.784,-0.105 -1.947,1.743 -2.379,3.849 -0.43,2.105 0.968,2.21 0.968,2.21 2.816,1.437 2.766,2.672 2.766,2.672 C 5.514,-0.1 4.433,0.154 2.807,2.108 1.192,4.06 -1.518,5.599 -1.518,5.599 -2.271,5.907 -2.538,5.086 -2.538,5.086 l 0.104,-4.109 0.27,-1.027 c -0.213,-1.027 0.597,-5.189 0.597,-5.189 l -0.163,-0.77 -2.11,-2.104 c 0,0 -3.296,-2.158 -4.433,-3.851 -1.14,-1.693 1.194,-0.823 1.352,-0.771 0.163,0.048 3.081,2.618 4.216,3.849 1.138,1.233 1.461,0.567 1.461,0.567 l 1.027,-1.902 c 0.864,-2.21 -0.374,-2.312 -0.374,-2.312 -1.843,-0.46 -1.083,-0.975 0.159,-1.077 1.24,-0.102 1.941,-2.056 2.219,-3.078" /></g><g
           transform="translate(93.8532,54.1864)"
           id="g44"><path
             id="path46"
             style="fill:#af0032;fill-opacity:1;fill-rule:nonzero;stroke:none"
             d="m 0,0 c 0.484,0 0.758,-0.771 0.161,-1.541 -0.595,-0.771 -1.136,-1.488 -1.136,-1.488 0,0 -0.812,-1.645 1.407,-0.566 2.214,1.079 3.567,2.006 3.621,2.156 0.059,0.154 0.484,2.006 -0.925,2.26 -1.402,0.258 -3.454,0.414 -3.454,0.414 0,0 -1.35,0.157 -1.083,-0.927 C -1.409,0.308 -0.488,0 0,0" /></g><g
           transform="translate(105.3121,54.9028)"
           id="g48"><path
             id="path50"
             style="fill:#af0032;fill-opacity:1;fill-rule:nonzero;stroke:none"
             d="m 0,0 c -0.211,-0.1 -1.029,-1.641 1.185,-0.458 2.221,1.179 5.037,2.722 5.897,3.595 0,0 0,0.564 -0.435,0.514 L 3.953,3.085 c 0,0 -1.897,-0.512 -2.114,-0.565 C 1.624,2.468 0.491,2.312 0.491,2.312 c 0,0 -1.407,-0.41 -0.38,-1.281 C 1.135,0.158 0.217,0.104 0,0" /></g><g
           transform="translate(110.8274,39.1359)"
           id="g52"><path
             id="path54"
             style="fill:#af0032;fill-opacity:1;fill-rule:nonzero;stroke:none"
             d="M 0,0 -0.326,0.358 -1.35,0.415 -1.945,0.106 -2.217,-0.716 c 0,0 0.276,-2.775 2.167,-2.725 1.882,0.05 1.615,1.952 1.615,2.208 C 1.565,-0.977 0,0 0,0" /></g><g
           transform="translate(117.909,39.7539)"
           id="g56"><path
             id="path58"
             style="fill:#af0032;fill-opacity:1;fill-rule:nonzero;stroke:none"
             d="M 0,0 C 0,0 0.145,3.334 0.219,3.697 0.491,5.082 1.079,6.678 1.461,7.344 1.841,8.015 1.135,7.961 1.135,7.961 H 0.491 c 0,0 -2.87,-6.213 -3.737,-6.83 0,0 -0.807,-2.675 1.681,-2.727 C 0.918,-1.646 0,0 0,0" /></g><g
           transform="translate(102.6095,27.1165)"
           id="g60"><path
             id="path62"
             style="fill:#af0032;fill-opacity:1;fill-rule:nonzero;stroke:none"
             d="M 0,0 C 0,0 -0.376,-0.252 -0.597,-0.252 H -1.135 L -1.62,-0.308 -2.271,0 -2.486,0.408 -1.999,0.564 h 0.434 c 0,0 0.321,0.055 0.486,0.107 0.158,0.05 0.373,0.102 0.536,0.102 h 0.437 c 0.219,0 0.264,-0.052 0.264,-0.052 0,0 0.165,-0.256 0.222,-0.411 C 0.434,0.154 0,0 0,0 m -2.377,18.286 c 0.321,0.054 1.671,1.029 2.535,2.158 0.869,1.131 1.086,0.412 1.086,0.104 0,-0.311 -0.971,-3.749 -1.405,-4.724 -0.436,-0.981 -0.436,-1.339 2.05,-1.648 C 4.379,13.87 2.214,11.918 1.787,11.61 1.35,11.302 0.864,9.967 1.027,9.76 1.194,9.556 1.567,8.477 1.459,8.167 1.35,7.861 1.083,7.242 2.214,6.576 3.35,5.907 3.73,3.958 3.408,3.289 3.083,2.62 1.194,1.852 1.194,1.852 c 0,0 -1.9,0.41 -5.141,-0.721 C -7.19,0 -6.378,-0.252 -6.111,-0.873 c 0.271,-0.614 4.112,-1.435 4.976,-1.435 0.864,0 2.27,0.563 3.024,0.925 0.762,0.358 2.596,0.664 2.596,0.664 0,0 0.762,-0.718 1.997,-0.87 C 7.729,-1.745 8.597,-0.202 7.785,0.36 6.977,0.929 6.109,2.468 6.109,2.468 L 5.623,5.241 c 0,0 -1.563,2.62 -1.674,3.082 -0.111,0.461 -1.353,1.746 1.025,4.264 2.375,2.516 0.601,3.237 0.601,3.237 -2.54,1.229 -2.275,1.693 -2.275,1.693 0,0 0.862,1.335 1.352,2.67 0.48,1.333 1.025,1.746 1.563,1.952 0.541,0.206 3.789,2.927 3.789,2.927 1.515,2.72 -0.81,2.106 -0.81,2.106 0,0 -1.409,-0.411 -3.356,-1.079 -1.943,-0.667 -2.755,-0.205 -2.755,-0.205 0,0 -0.328,-0.512 -1.023,-1.335 -0.71,-0.822 -5.948,-3.751 -5.948,-3.751 -1.572,-2.004 1.185,-2.566 1.511,-2.516" /></g><g
           transform="translate(125.587,25.7808)"
           id="g64"><path
             id="path66"
             style="fill:#af0032;fill-opacity:1;fill-rule:nonzero;stroke:none"
             d="M 0,0 C 2.108,0.721 0.649,4.316 0.649,4.316 0.106,6.578 -0.269,18.032 -0.269,18.032 -0.432,25.17 0.373,26.351 0.373,26.351 1.567,27.84 0,28.613 0,28.613 c -0.703,0.564 -3.73,1.491 -3.73,1.491 -0.866,0.252 -2.323,-0.775 -1.895,-1.337 0.436,-0.564 0.654,-2.004 0.654,-2.004 l 0.049,-2.876 0.053,-20.906 c 0,0 0.816,-1.646 -2.108,-0.513 -2.918,1.129 -3.185,0.207 -3.081,0 0.106,-0.204 3.947,-2.774 5.136,-3.749 C -3.73,-2.26 -2.106,-0.716 0,0" /></g><g
           transform="translate(135.0712,48.201)"
           id="g68"><path
             id="path70"
             style="fill:#af0032;fill-opacity:1;fill-rule:nonzero;stroke:none"
             d="m 0,0 c 0.067,-0.491 0.109,-1.012 0.109,-1.507 0,-0.551 -0.211,-1.076 -0.224,-1.611 -0.022,-0.586 0.358,-0.97 0.923,-0.762 0.471,0.174 0.987,0.535 1.465,0.762 0.758,0.356 1.103,0.695 1.005,1.561 C 3.224,-1.094 2.931,-0.512 2.729,-0.091 2.193,0.992 1.025,2.11 -0.102,2.635 -0.324,2.759 -0.816,2.766 -0.996,2.575 -1.257,2.279 -1.003,2.173 -0.773,1.871 -0.373,1.365 -0.087,0.651 0,0" /></g><g
           transform="translate(134.7881,50.9351)"
           id="g72"><path
             id="path74"
             style="fill:#af0032;fill-opacity:1;fill-rule:nonzero;stroke:none"
             d="M 0,0 C 0.063,-0.024 0.124,-0.072 0.182,-0.1 0.193,-0.104 0.213,-0.102 0.219,-0.109 Z" /></g><g
           transform="translate(136.951,57.4258)"
           id="g76"><path
             id="path78"
             style="fill:#af0032;fill-opacity:1;fill-rule:nonzero;stroke:none"
             d="M 0,0 C 0.232,-0.821 0.606,-1.643 1.027,-2.434 1.715,-3.736 1.715,-5.486 1.787,-6.893 1.852,-8 2.345,-9.509 3.773,-9.02 6.174,-8.204 4.733,-4.464 4.166,-2.948 3.764,-1.88 3.02,-0.74 2.219,0.095 1.858,0.471 1.422,0.923 0.849,0.886 0.617,0.873 0,0.74 -0.132,0.549 -0.419,0.119 -0.1,0.33 0,0" /></g><g
           transform="translate(154.1599,56.7503)"
           id="g80"><path
             id="path82"
             style="fill:#af0032;fill-opacity:1;fill-rule:nonzero;stroke:none"
             d="m 0,0 c -0.039,-0.143 -0.117,-0.428 -0.117,-0.428 0,0 -0.293,-0.503 -0.369,-0.61 -0.078,-0.108 -0.226,-0.393 -0.378,-0.573 -0.148,-0.178 -0.228,-0.321 -0.343,-0.538 -0.109,-0.213 -0.222,-0.287 -0.298,-0.391 -0.076,-0.109 -0.154,-0.215 -0.49,-0.571 -0.33,-0.36 0,0 -0.15,-0.217 -0.15,-0.215 -0.15,-0.573 -0.15,-0.714 0,-0.144 -0.301,-0.107 -0.41,-0.037 -0.117,0.074 -0.078,0.106 -0.191,0.358 -0.113,0.25 -0.15,0.323 -0.113,0.501 0.03,0.178 0.076,0.285 0.076,0.396 v 0.388 c 0,0.143 -0.152,0.36 -0.152,0.36 0,0 -0.108,0.179 -0.452,0.537 -0.338,0.358 -0.258,0.573 -0.258,0.573 v 0.321 c 0,0 0.107,0.072 0.258,0.217 0.148,0.144 0.224,0.176 0.224,0.176 l 0.417,0.18 c 0,0 0.226,0.144 0.447,0.285 0.23,0.145 0.124,0.073 0.124,0.073 0,0 0.558,0.179 0.708,0.213 0.154,0.035 0.301,0.213 0.453,0.322 0.152,0.11 0.187,0.145 0.187,0.145 L -0.486,1.001 -0.148,0.931 0,0.499 C 0,0.499 0.037,0.141 0,0 m 2.475,4.457 c 0,0 -3.417,-2.21 -3.947,-2.779 L -2.054,1.374 -2.649,1.153 c 0,0 -0.562,-0.536 -1.495,0.788 0,0 -0.528,0.632 -1.262,0.632 0,0 -2.023,-0.697 -1.126,1.133 0.896,1.83 4.122,7.945 4.122,7.945 l 1.127,2.115 c 0,0 0.527,0.473 0.263,1.042 -0.263,0.564 -0.786,1.22 -0.786,1.22 l -0.751,-0.145 c 0,0 -2.675,-5.43 -3.242,-6.583 0,0 -2.105,-6.009 -2.859,-6.584 -0.755,-0.569 -2.937,-3.074 -2.937,-3.074 0,0 -0.228,-1.29 1.428,-0.287 L -8.13,1.29 c 0,0 1.205,0.716 1.43,-1.648 0.228,-2.362 -0.903,-2.004 -0.903,-2.004 h -1.202 l -0.832,-0.143 -0.53,-0.215 -0.078,-0.5 0.228,-0.432 0.302,-0.21 0.773,-0.48 0.16,-0.569 -0.855,-0.692 -0.634,-0.886 c 0,0 -0.655,-1.478 1.329,-0.849 0.102,0.033 1.724,1.513 1.724,1.513 0,0 0.736,0.126 0.736,-0.032 0,-0.157 -0.072,-1.229 -0.072,-1.229 0,0 0.56,-0.063 0.864,-0.03 0.297,0.03 0.564,0.186 0.564,0.186 0,0 -0.102,0.098 0.168,0 0.262,-0.093 0.225,-0.03 0.429,-0.219 0.198,-0.189 0.231,-0.315 0.43,-0.473 0.198,-0.159 0.23,-0.159 0.332,-0.25 0.098,-0.098 0.63,-0.254 0.63,-0.254 l 1.296,0.569 2.72,3.215 c 0,0 2.987,4.605 3.619,6.78 0,0 0.53,2.364 -2.023,2.019" /></g><g
           transform="translate(156.9493,39.1485)"
           id="g84"><path
             id="path86"
             style="fill:#af0032;fill-opacity:1;fill-rule:nonzero;stroke:none"
             d="m 0,0 c -0.829,0.358 -5.573,-1.507 -6.326,-1.932 -0.751,-0.43 -3.311,-2.004 -4.744,-1.077 -1.435,0.931 0.072,2.649 0.602,3.508 0.527,0.86 4.845,4.331 6.328,4.722 1.88,0.504 4.06,2.508 4.06,2.508 C 1.352,9.658 -1.656,9.945 -1.656,9.945 -3.465,10.015 -9.04,7.941 -9.04,7.941 -11.595,7.153 -27.567,-2.362 -27.567,-2.362 l -0.749,-0.934 1.657,-1.213 3.988,0.145 c 1.209,2.432 8.061,6.65 8.061,6.65 0,0 8.06,5.299 9.495,5.725 1.427,0.432 1.272,-0.497 1.047,-0.858 -0.226,-0.356 -1.301,-1.244 -3.161,-2.145 -3.691,-1.793 -5.425,-4.151 -5.425,-4.151 -1.427,-0.931 -0.975,-2.722 -0.606,-4.007 0.38,-1.287 -0.293,-1.715 -0.293,-1.715 l -2.942,-1.505 c 0,0 -2.937,-1.569 -5.345,-1.569 -2.355,0 -0.451,-1.867 -0.451,-1.867 1.956,-2.575 3.99,-1.357 3.99,-1.357 0,0 3.009,1.932 4.518,2.79 1.502,0.855 1.66,0.286 1.884,-0.144 0.226,-0.43 1.055,-3.293 1.127,-4.509 0.078,-1.216 -0.45,-1.07 -0.45,-1.07 l -4.298,-0.074 -0.597,-0.43 0.977,-0.642 4.142,-1.576 c 0,0 1.659,-1.003 2.26,-0.856 0.601,0.139 1.583,2.143 1.886,3.287 0.302,1.149 -0.377,2.935 -1.658,6.014 -1.281,3.074 2.562,3.434 2.562,3.434 l 1.654,0.43 c 0,0 2.709,1.5 3.167,1.574 0.45,0.071 0.376,-0.215 1.952,0.499 C 2.408,-1.719 0.825,-0.36 0,0" /></g><g
           transform="translate(171.9338,42.1541)"
           id="g88"><path
             id="path90"
             style="fill:#af0032;fill-opacity:1;fill-rule:nonzero;stroke:none"
             d="M 0,0 C -0.675,0.358 -1.509,-0.862 -1.509,-0.862 -4.14,-4.579 -2.178,1.86 -2.178,1.86 c 0.597,5.152 3.609,8.085 3.609,8.085 0,0 2.264,3.074 -0.597,2.646 -2.868,-0.432 -8.966,-3.718 -8.966,-3.718 -3.014,-1.507 -0.15,-3.22 -0.15,-3.22 1.504,-1.578 2.407,-0.862 3.313,-0.432 0.903,0.432 1.281,1.144 1.357,-0.497 0.075,-1.648 -1.058,-4.01 -1.058,-4.01 -1.357,-3.004 -2.557,-10.876 -2.557,-10.876 0,0 0.299,-4.366 2.034,-4.509 1.728,-0.146 2.336,2.29 2.336,2.29 0,1.214 1.583,7.084 1.583,7.084 0,0 1.958,4.937 1.274,5.297" /></g><g
           transform="translate(180.2935,53.7426)"
           id="g92"><path
             id="path94"
             style="fill:#af0032;fill-opacity:1;fill-rule:nonzero;stroke:none"
             d="M 0,0 C 1.259,0.471 3.773,1.359 3.773,1.359 7.768,1.292 7.307,3.222 7.307,3.222 7.531,6.081 2.714,5.371 2.714,5.371 1.135,5.228 1.435,4.583 1.435,4.583 3.013,4.298 2.336,3.148 2.336,3.148 c 0,0 0,-0.569 -2.486,-1.93 C -2.633,-0.143 -1.257,-0.469 0,0" /></g><g
           transform="translate(173.5184,41.9362)"
           id="g96"><path
             id="path98"
             style="fill:#af0032;fill-opacity:1;fill-rule:nonzero;stroke:none"
             d="m 0,0 1.276,0.143 1.286,2.078 c 0,0 -0.526,-0.361 0,0.141 0.525,0.501 2.03,1.719 2.03,1.719 0,0 4.519,2.79 5.653,3.077 1.126,0.284 0.301,-1.003 0.301,-1.003 C 8.658,5.655 4.592,0.504 4.592,0.504 v -1.362 c 0,0 -0.152,0.356 -0.45,-0.642 -0.299,-1.005 1.377,-0.523 1.377,-0.523 l 2.24,1.597 c 2.332,1.001 1.426,2.286 1.426,2.286 -1.504,1.433 1.733,3.081 1.733,3.081 0,0 4.146,2.145 6.033,4.003 1.882,1.859 -0.528,2.718 -0.528,2.718 0,0 -2.116,0.217 -4.976,-1.426 C 9.654,9.205 6.326,7.301 6.326,7.301 L 5.801,7.086 5.119,6.799 4.218,6.728 3.843,7.229 c 0,0 -0.155,0.927 -0.155,1.146 0,0.213 -0.825,0.569 -0.825,0.569 L 1.656,8.156 1.58,7.229 -0.447,3.152 C -1.585,1.791 0,0 0,0" /></g><g
           transform="translate(198.2973,26.6225)"
           id="g100"><path
             id="path102"
             style="fill:#af0032;fill-opacity:1;fill-rule:nonzero;stroke:none"
             d="m 0,0 c 2.781,1.721 1.129,3.51 1.129,3.51 l -3.011,2 c -5.278,3.508 -4.522,1.645 -4.522,1.645 0,0 1.509,-2.218 2.787,-3.504 1.277,-1.287 0,-2.003 0,-2.003 0,0 -5.649,-0.788 -8.063,0.215 -2.407,1 -3.46,1.217 -3.61,4.294 -0.154,3.074 -0.454,2.36 -1.279,2.145 -0.831,-0.213 -0.299,0.575 -0.299,0.575 0,0 0.747,1.142 1.578,3.002 0.829,1.865 -1.578,1.72 -1.578,1.72 l -3.919,-1.932 -1.882,-0.146 c 0,0 -0.226,-1.287 0.224,-1.569 0.449,-0.289 1.435,-2.08 1.435,-2.08 -0.682,-0.927 -5.806,-6.439 -5.806,-6.439 0.452,-1.359 2.113,-0.213 2.716,-0.07 0.597,0.139 5.122,5.08 5.723,5.651 0.603,0.571 1.207,-1.357 1.207,-1.357 V 1.863 c 1.049,-3.936 4.516,-3.363 4.516,-3.363 l 5.197,0.215 c 0,0 4.665,-0.428 7.457,1.285" /></g><g
           transform="translate(0,12.7068)"
           id="g104"><path
             id="path106"
             style="fill:#af0032;fill-opacity:1;fill-rule:nonzero;stroke:none"
             d="M 0,0 H 7.865 V -2.379 H 5.228 V -9.643 H 2.64 v 7.264 H 0 Z" /></g><g
           transform="translate(9.1775,12.7068)"
           id="g108"><path
             id="path110"
             style="fill:#af0032;fill-opacity:1;fill-rule:nonzero;stroke:none"
             d="m 0,0 h 2.325 v -3.545 c 0.315,0.375 0.63,0.644 0.942,0.807 0.313,0.163 0.682,0.243 1.11,0.243 0.631,0 1.129,-0.223 1.493,-0.664 0.365,-0.445 0.545,-1.124 0.545,-2.04 V -9.643 H 4.081 v 3.849 c 0,0.436 -0.069,0.749 -0.21,0.931 -0.141,0.182 -0.339,0.274 -0.595,0.274 -0.284,0 -0.512,-0.124 -0.688,-0.372 C 2.412,-5.204 2.325,-5.647 2.325,-6.283 v -3.36 H 0 Z" /></g><g
           transform="translate(23.6995,5.8855)"
           id="g112"><path
             id="path114"
             style="fill:#af0032;fill-opacity:1;fill-rule:nonzero;stroke:none"
             d="m 0,0 h -4.659 c 0.041,-0.43 0.143,-0.749 0.302,-0.957 0.226,-0.302 0.519,-0.454 0.881,-0.454 0.226,0 0.443,0.065 0.649,0.195 0.126,0.083 0.261,0.228 0.406,0.437 L -0.13,-1.02 c -0.35,-0.7 -0.773,-1.201 -1.268,-1.505 -0.495,-0.302 -1.205,-0.454 -2.13,-0.454 -0.801,0 -1.433,0.131 -1.893,0.391 -0.46,0.261 -0.842,0.675 -1.144,1.244 -0.304,0.569 -0.454,1.238 -0.454,2.004 0,1.092 0.304,1.978 0.91,2.653 0.608,0.675 1.446,1.014 2.514,1.014 0.868,0 1.552,-0.152 2.054,-0.456 C -1.038,3.567 -0.656,3.128 -0.393,2.553 -0.13,1.975 0,1.226 0,0.304 Z m -2.36,1.285 c -0.045,0.519 -0.167,0.89 -0.362,1.116 -0.198,0.224 -0.456,0.337 -0.775,0.337 -0.372,0 -0.665,-0.172 -0.888,-0.511 -0.141,-0.21 -0.23,-0.525 -0.267,-0.942 z" /></g><g
           transform="translate(34.3826,7.0118)"
           id="g116"><path
             id="path118"
             style="fill:#af0032;fill-opacity:1;fill-rule:nonzero;stroke:none"
             d="M 0,0 2.264,-0.788 C 2.112,-1.522 1.873,-2.136 1.546,-2.627 1.218,-3.12 0.812,-3.491 0.326,-3.741 -0.159,-3.99 -0.775,-4.116 -1.526,-4.116 c -0.908,0 -1.652,0.152 -2.228,0.456 -0.575,0.306 -1.072,0.842 -1.493,1.611 -0.417,0.766 -0.628,1.747 -0.628,2.946 0,1.597 0.369,2.824 1.105,3.681 0.736,0.856 1.778,1.286 3.127,1.286 1.053,0 1.882,-0.246 2.485,-0.738 C 1.444,4.635 1.893,3.879 2.186,2.861 L -0.096,2.273 c -0.08,0.295 -0.165,0.51 -0.251,0.647 -0.146,0.228 -0.324,0.404 -0.532,0.527 -0.211,0.122 -0.445,0.185 -0.704,0.185 -0.588,0 -1.037,-0.274 -1.35,-0.814 -0.234,-0.404 -0.354,-1.038 -0.354,-1.9 0,-1.068 0.141,-1.802 0.424,-2.197 0.282,-0.397 0.677,-0.595 1.187,-0.595 0.495,0 0.871,0.159 1.125,0.48 C -0.297,-1.075 -0.115,-0.61 0,0" /></g><g
           transform="translate(44.4742,5.8855)"
           id="g120"><path
             id="path122"
             style="fill:#af0032;fill-opacity:1;fill-rule:nonzero;stroke:none"
             d="m 0,0 h -4.659 c 0.041,-0.43 0.143,-0.749 0.304,-0.957 0.224,-0.302 0.517,-0.454 0.877,-0.454 0.23,0 0.445,0.065 0.651,0.195 0.126,0.083 0.261,0.228 0.406,0.437 L -0.13,-1.02 c -0.352,-0.7 -0.773,-1.201 -1.268,-1.505 -0.495,-0.302 -1.203,-0.454 -2.128,-0.454 -0.803,0 -1.435,0.131 -1.895,0.391 -0.46,0.261 -0.842,0.675 -1.144,1.244 -0.302,0.569 -0.454,1.238 -0.454,2.004 0,1.092 0.302,1.978 0.91,2.653 0.608,0.675 1.446,1.014 2.514,1.014 0.866,0 1.552,-0.152 2.054,-0.456 C -1.04,3.567 -0.656,3.128 -0.395,2.553 -0.13,1.975 0,1.226 0,0.304 Z m -2.36,1.285 c -0.045,0.519 -0.167,0.89 -0.365,1.116 -0.195,0.224 -0.453,0.337 -0.772,0.337 -0.372,0 -0.667,-0.172 -0.888,-0.511 -0.139,-0.21 -0.23,-0.525 -0.267,-0.942 z" /></g><g
           transform="translate(45.5373,10.0539)"
           id="g124"><path
             id="path126"
             style="fill:#af0032;fill-opacity:1;fill-rule:nonzero;stroke:none"
             d="m 0,0 h 2.164 v -1.135 c 0.324,0.462 0.652,0.794 0.982,0.994 0.332,0.2 0.736,0.299 1.213,0.299 0.643,0 1.146,-0.219 1.509,-0.662 0.365,-0.44 0.547,-1.122 0.547,-2.043 V -6.991 H 4.081 v 3.85 c 0,0.436 -0.071,0.748 -0.21,0.931 -0.144,0.182 -0.341,0.273 -0.597,0.273 -0.282,0 -0.51,-0.123 -0.686,-0.371 C 2.412,-2.551 2.325,-2.994 2.325,-3.63 V -6.991 H 0 Z" /></g><g
           transform="translate(56.1263,12.7068)"
           id="g128"><path
             id="path130"
             style="fill:#af0032;fill-opacity:1;fill-rule:nonzero;stroke:none"
             d="M 0,0 V -2.653 H 1.276 V -4.611 H 0 V -7.09 c 0,-0.298 0.024,-0.495 0.074,-0.593 0.076,-0.148 0.208,-0.224 0.399,-0.224 0.172,0 0.411,0.057 0.719,0.172 L 1.363,-9.583 C 0.788,-9.728 0.254,-9.8 -0.245,-9.8 c -0.578,0 -1.003,0.085 -1.277,0.256 -0.273,0.172 -0.475,0.43 -0.606,0.78 -0.132,0.347 -0.197,0.912 -0.197,1.693 v 2.46 h -0.858 v 1.958 h 0.858 v 1.281 z" /></g><g
           transform="translate(58.5397,10.0539)"
           id="g132"><path
             id="path134"
             style="fill:#af0032;fill-opacity:1;fill-rule:nonzero;stroke:none"
             d="m 0,0 h 2.173 v -1.149 c 0.211,0.498 0.426,0.841 0.649,1.027 0.224,0.187 0.497,0.28 0.825,0.28 0.343,0 0.719,-0.123 1.125,-0.371 l -0.719,-1.91 c -0.273,0.13 -0.49,0.197 -0.651,0.197 -0.304,0 -0.541,-0.145 -0.708,-0.434 -0.241,-0.408 -0.36,-1.17 -0.36,-2.288 V -6.991 H 0 Z" /></g><g
           transform="translate(66.0215,7.7906)"
           id="g136"><path
             id="path138"
             style="fill:#af0032;fill-opacity:1;fill-rule:nonzero;stroke:none"
             d="m 0,0 -2.221,0.273 c 0.085,0.448 0.204,0.799 0.363,1.056 0.158,0.253 0.386,0.477 0.681,0.664 0.215,0.137 0.506,0.243 0.88,0.317 0.373,0.074 0.775,0.111 1.209,0.111 0.694,0 1.255,-0.044 1.676,-0.135 C 3.009,2.197 3.361,2.01 3.643,1.724 3.84,1.526 3.997,1.246 4.112,0.884 4.227,0.523 4.283,0.176 4.283,-0.152 v -3.087 c 0,-0.33 0.018,-0.586 0.052,-0.773 0.039,-0.187 0.118,-0.425 0.239,-0.714 H 2.392 c -0.086,0.18 -0.143,0.317 -0.171,0.41 -0.026,0.093 -0.052,0.241 -0.08,0.443 C 1.837,-4.21 1.535,-4.451 1.235,-4.596 0.825,-4.789 0.347,-4.885 -0.198,-4.885 c -0.72,0 -1.27,0.194 -1.645,0.58 -0.374,0.384 -0.56,0.862 -0.56,1.426 0,0.532 0.134,0.966 0.406,1.309 0.267,0.343 0.766,0.597 1.491,0.762 0.873,0.204 1.435,0.346 1.696,0.426 0.258,0.08 0.532,0.187 0.82,0.319 0,0.332 -0.058,0.562 -0.176,0.697 C 1.717,0.764 1.509,0.831 1.214,0.831 0.834,0.831 0.549,0.762 0.36,0.621 0.211,0.51 0.091,0.304 0,0 M 2.01,-1.411 C 1.691,-1.541 1.359,-1.659 1.012,-1.759 0.541,-1.904 0.241,-2.047 0.115,-2.188 c -0.13,-0.146 -0.193,-0.309 -0.193,-0.493 0,-0.213 0.063,-0.384 0.191,-0.517 0.126,-0.134 0.315,-0.202 0.56,-0.202 0.26,0 0.501,0.072 0.725,0.217 0.221,0.144 0.38,0.322 0.473,0.53 0.092,0.208 0.139,0.48 0.139,0.814 z" /></g><path
           id="path140"
           style="fill:#af0032;fill-opacity:1;fill-rule:nonzero;stroke:none"
           d="m 71.768,12.706 h 2.325 V 3.063 h -2.325 z" /><g
           transform="translate(84.7782,4.6537)"
           id="g142"><path
             id="path144"
             style="fill:#af0032;fill-opacity:1;fill-rule:nonzero;stroke:none"
             d="m 0,0 h -2.933 l -0.408,-1.589 h -2.642 l 3.135,9.641 H -0.02 L 3.124,-1.589 H 0.419 Z m -0.541,2.084 -0.92,3.467 -0.914,-3.467 z" /></g><g
           transform="translate(93.0816,5.8012)"
           id="g146"><path
             id="path148"
             style="fill:#af0032;fill-opacity:1;fill-rule:nonzero;stroke:none"
             d="M 0,0 2.212,-0.284 C 2.091,-0.816 1.889,-1.277 1.611,-1.665 1.335,-2.054 0.979,-2.358 0.547,-2.573 0.115,-2.788 -0.434,-2.896 -1.101,-2.896 c -0.642,0 -1.176,0.072 -1.606,0.208 -0.428,0.139 -0.795,0.361 -1.103,0.671 -0.31,0.308 -0.551,0.671 -0.727,1.088 -0.174,0.417 -0.261,0.97 -0.261,1.656 0,0.721 0.104,1.32 0.319,1.796 0.157,0.351 0.369,0.666 0.639,0.944 0.271,0.28 0.549,0.486 0.833,0.621 0.452,0.217 1.034,0.323 1.741,0.323 0.988,0 1.744,-0.204 2.262,-0.612 C 1.515,3.391 1.88,2.794 2.088,2.01 L -0.096,1.674 c -0.069,0.299 -0.193,0.525 -0.375,0.677 -0.18,0.152 -0.423,0.228 -0.727,0.228 -0.387,0 -0.697,-0.158 -0.936,-0.475 C -2.373,1.787 -2.49,1.307 -2.49,0.666 c 0,-0.573 0.117,-1.007 0.354,-1.304 0.236,-0.298 0.536,-0.445 0.903,-0.445 0.304,0 0.56,0.086 0.768,0.265 C -0.258,-0.641 -0.102,-0.367 0,0" /></g><g
           transform="translate(98.4789,7.7906)"
           id="g150"><path
             id="path152"
             style="fill:#af0032;fill-opacity:1;fill-rule:nonzero;stroke:none"
             d="m 0,0 -2.221,0.273 c 0.085,0.448 0.204,0.799 0.363,1.056 0.158,0.253 0.386,0.477 0.681,0.664 0.215,0.137 0.508,0.243 0.88,0.317 0.373,0.074 0.775,0.111 1.209,0.111 0.694,0 1.255,-0.044 1.676,-0.135 C 3.011,2.197 3.363,2.01 3.643,1.724 3.843,1.526 3.997,1.246 4.112,0.884 4.227,0.523 4.283,0.176 4.283,-0.152 v -3.087 c 0,-0.33 0.018,-0.586 0.052,-0.773 0.037,-0.187 0.118,-0.425 0.239,-0.714 H 2.392 c -0.086,0.18 -0.143,0.317 -0.171,0.41 -0.026,0.093 -0.052,0.241 -0.08,0.443 C 1.837,-4.21 1.535,-4.451 1.235,-4.596 0.825,-4.789 0.347,-4.885 -0.198,-4.885 c -0.72,0 -1.27,0.194 -1.645,0.58 -0.374,0.384 -0.56,0.862 -0.56,1.426 0,0.532 0.134,0.966 0.406,1.309 0.267,0.343 0.766,0.597 1.493,0.762 0.871,0.204 1.433,0.346 1.694,0.426 0.258,0.08 0.532,0.187 0.82,0.319 0,0.332 -0.058,0.562 -0.176,0.697 C 1.717,0.764 1.509,0.831 1.214,0.831 0.834,0.831 0.549,0.762 0.36,0.621 0.211,0.51 0.091,0.304 0,0 M 2.01,-1.411 C 1.691,-1.541 1.359,-1.659 1.012,-1.759 0.541,-1.904 0.241,-2.047 0.115,-2.188 c -0.13,-0.146 -0.193,-0.309 -0.193,-0.493 0,-0.213 0.063,-0.384 0.191,-0.517 0.126,-0.134 0.315,-0.202 0.56,-0.202 0.261,0 0.501,0.072 0.725,0.217 0.221,0.144 0.38,0.322 0.473,0.53 0.092,0.208 0.139,0.48 0.139,0.814 z" /></g><g
           transform="translate(110.5274,12.7068)"
           id="g154"><path
             id="path156"
             style="fill:#af0032;fill-opacity:1;fill-rule:nonzero;stroke:none"
             d="M 0,0 V -9.643 H -2.171 V -8.61 C -2.475,-9.049 -2.755,-9.346 -3.005,-9.498 -3.339,-9.7 -3.712,-9.8 -4.123,-9.8 c -0.827,0 -1.456,0.361 -1.893,1.086 -0.436,0.723 -0.653,1.602 -0.653,2.637 0,1.16 0.241,2.045 0.723,2.662 0.48,0.614 1.092,0.92 1.834,0.92 0.361,0 0.688,-0.069 0.984,-0.21 0.295,-0.141 0.558,-0.352 0.786,-0.632 V 0 Z m -2.325,-6.129 c 0,0.547 -0.102,0.958 -0.302,1.229 -0.202,0.269 -0.458,0.404 -0.766,0.404 -0.267,0 -0.495,-0.128 -0.678,-0.387 -0.182,-0.26 -0.273,-0.694 -0.273,-1.306 0,-0.571 0.093,-0.988 0.282,-1.255 0.189,-0.265 0.421,-0.398 0.699,-0.398 0.295,0 0.543,0.133 0.74,0.4 0.198,0.269 0.298,0.705 0.298,1.313" /></g><g
           transform="translate(118.6691,5.8855)"
           id="g158"><path
             id="path160"
             style="fill:#af0032;fill-opacity:1;fill-rule:nonzero;stroke:none"
             d="m 0,0 h -4.659 c 0.041,-0.43 0.143,-0.749 0.302,-0.957 0.226,-0.302 0.519,-0.454 0.879,-0.454 0.23,0 0.445,0.065 0.651,0.195 0.126,0.083 0.261,0.228 0.406,0.437 L -0.13,-1.02 c -0.352,-0.7 -0.773,-1.201 -1.268,-1.505 -0.495,-0.302 -1.203,-0.454 -2.128,-0.454 -0.803,0 -1.435,0.131 -1.895,0.391 -0.46,0.261 -0.842,0.675 -1.144,1.244 -0.302,0.569 -0.454,1.238 -0.454,2.004 0,1.092 0.302,1.978 0.91,2.653 0.608,0.675 1.446,1.014 2.514,1.014 0.866,0 1.552,-0.152 2.054,-0.456 C -1.04,3.567 -0.656,3.128 -0.395,2.553 -0.13,1.975 0,1.226 0,0.304 Z m -2.36,1.285 c -0.045,0.519 -0.167,0.89 -0.365,1.116 -0.195,0.224 -0.453,0.337 -0.772,0.337 -0.372,0 -0.667,-0.172 -0.888,-0.511 -0.139,-0.21 -0.23,-0.525 -0.267,-0.942 z" /></g><g
           transform="translate(119.7485,10.0539)"
           id="g162"><path
             id="path164"
             style="fill:#af0032;fill-opacity:1;fill-rule:nonzero;stroke:none"
             d="m 0,0 h 2.164 v -1.02 c 0.313,0.427 0.63,0.729 0.947,0.909 0.319,0.178 0.701,0.269 1.151,0.269 0.484,0 0.868,-0.099 1.15,-0.297 0.28,-0.198 0.51,-0.491 0.69,-0.881 0.365,0.458 0.697,0.766 0.997,0.931 0.302,0.165 0.671,0.247 1.111,0.247 0.65,0 1.155,-0.223 1.522,-0.668 0.365,-0.445 0.547,-1.142 0.547,-2.091 v -4.39 H 7.954 v 3.995 c 0,0.317 -0.054,0.554 -0.16,0.706 -0.157,0.243 -0.35,0.364 -0.58,0.364 -0.274,0 -0.495,-0.115 -0.662,-0.345 -0.165,-0.228 -0.25,-0.595 -0.25,-1.101 V -6.991 H 3.977 v 3.854 c 0,0.306 -0.015,0.514 -0.045,0.625 -0.05,0.176 -0.137,0.315 -0.259,0.423 -0.121,0.109 -0.265,0.163 -0.43,0.163 -0.269,0 -0.488,-0.117 -0.66,-0.349 C 2.412,-2.508 2.325,-2.89 2.325,-3.422 V -6.991 H 0 Z" /></g><g
           transform="translate(130.7406,10.0539)"
           id="g166"><path
             id="path168"
             style="fill:#af0032;fill-opacity:1;fill-rule:nonzero;stroke:none"
             d="M 0,0 H 2.453 L 3.701,-4.655 4.861,0 H 7.149 L 4.746,-7.472 C 4.472,-8.324 4.194,-8.899 3.908,-9.198 3.504,-9.62 2.892,-9.832 2.067,-9.832 c -0.337,0 -0.853,0.052 -1.552,0.158 l -0.183,1.869 c 0.334,-0.123 0.708,-0.184 1.116,-0.184 0.276,0 0.497,0.071 0.664,0.217 0.17,0.145 0.313,0.404 0.432,0.779 z" /></g><g
           transform="translate(142.1665,6.5394)"
           id="g170"><path
             id="path172"
             style="fill:#af0032;fill-opacity:1;fill-rule:nonzero;stroke:none"
             d="m 0,0 c 0,1.066 0.31,1.945 0.936,2.636 0.623,0.69 1.465,1.037 2.524,1.037 1.214,0 2.13,-0.408 2.751,-1.218 0.497,-0.653 0.747,-1.459 0.747,-2.416 0,-1.075 -0.311,-1.954 -0.929,-2.642 -0.617,-0.686 -1.47,-1.031 -2.562,-1.031 -0.975,0 -1.761,0.286 -2.362,0.857 C 0.369,-2.071 0,-1.144 0,0 m 2.325,0.009 c 0,-0.626 0.109,-1.086 0.328,-1.383 0.219,-0.3 0.493,-0.448 0.823,-0.448 0.334,0 0.61,0.146 0.825,0.441 0.215,0.293 0.323,0.764 0.323,1.416 C 4.624,0.64 4.513,1.09 4.298,1.387 4.081,1.682 3.812,1.83 3.493,1.83 3.154,1.83 2.876,1.68 2.655,1.378 2.434,1.079 2.325,0.621 2.325,0.009" /></g><g
           transform="translate(152.8254,10.0539)"
           id="g174"><path
             id="path176"
             style="fill:#af0032;fill-opacity:1;fill-rule:nonzero;stroke:none"
             d="M 0,0 H 1.109 V -1.958 H 0 v -5.033 h -2.325 v 5.033 H -3.189 V 0 h 0.864 v 0.317 c 0,0.284 0.026,0.597 0.078,0.94 0.054,0.343 0.154,0.621 0.3,0.838 0.147,0.217 0.351,0.393 0.616,0.525 0.263,0.135 0.649,0.202 1.159,0.202 0.406,0 0.995,-0.056 1.772,-0.165 L 1.346,1.038 C 1.068,1.09 0.844,1.116 0.673,1.116 0.462,1.116 0.313,1.075 0.221,0.994 0.13,0.914 0.065,0.786 0.028,0.61 0.009,0.515 0,0.31 0,0" /></g><g
           transform="translate(159.5499,12.7068)"
           id="g178"><path
             id="path180"
             style="fill:#af0032;fill-opacity:1;fill-rule:nonzero;stroke:none"
             d="M 0,0 H 3.84 C 4.598,0 5.21,-0.12 5.677,-0.356 6.144,-0.593 6.528,-0.931 6.832,-1.374 7.138,-1.817 7.357,-2.334 7.494,-2.92 7.631,-3.508 7.7,-4.131 7.7,-4.789 7.7,-5.818 7.598,-6.617 7.396,-7.186 7.19,-7.755 6.908,-8.23 6.548,-8.614 6.185,-8.996 5.799,-9.253 5.384,-9.379 4.815,-9.554 4.301,-9.643 3.84,-9.643 H 0 Z m 2.588,-2.191 v -5.262 h 0.634 c 0.54,0 0.922,0.07 1.152,0.206 0.228,0.139 0.406,0.38 0.537,0.723 0.128,0.345 0.193,0.901 0.193,1.672 0,1.022 -0.146,1.719 -0.434,2.097 -0.289,0.378 -0.769,0.564 -1.438,0.564 z" /></g><g
           transform="translate(168.4705,10.0539)"
           id="g182"><path
             id="path184"
             style="fill:#af0032;fill-opacity:1;fill-rule:nonzero;stroke:none"
             d="m 0,0 h 2.173 v -1.149 c 0.211,0.498 0.426,0.841 0.649,1.027 0.224,0.187 0.497,0.28 0.825,0.28 0.343,0 0.717,-0.123 1.125,-0.371 l -0.719,-1.91 c -0.276,0.13 -0.49,0.197 -0.651,0.197 -0.306,0 -0.541,-0.145 -0.708,-0.434 -0.241,-0.408 -0.36,-1.17 -0.36,-2.288 V -6.991 H 0 Z" /></g><g
           transform="translate(175.9523,7.7906)"
           id="g186"><path
             id="path188"
             style="fill:#af0032;fill-opacity:1;fill-rule:nonzero;stroke:none"
             d="m 0,0 -2.221,0.273 c 0.085,0.448 0.206,0.799 0.363,1.056 0.158,0.253 0.386,0.477 0.681,0.664 0.213,0.137 0.506,0.243 0.88,0.317 0.371,0.074 0.775,0.111 1.209,0.111 0.694,0 1.255,-0.044 1.676,-0.135 C 3.011,2.197 3.363,2.01 3.643,1.724 3.84,1.526 3.997,1.246 4.112,0.884 4.227,0.523 4.283,0.176 4.283,-0.152 v -3.087 c 0,-0.33 0.018,-0.586 0.055,-0.773 0.034,-0.187 0.115,-0.425 0.236,-0.714 H 2.392 C 2.305,-4.546 2.249,-4.409 2.223,-4.316 2.195,-4.223 2.169,-4.075 2.141,-3.873 1.837,-4.21 1.535,-4.451 1.235,-4.596 0.823,-4.789 0.347,-4.885 -0.198,-4.885 c -0.72,0 -1.27,0.194 -1.643,0.58 -0.376,0.384 -0.562,0.862 -0.562,1.426 0,0.532 0.134,0.966 0.404,1.309 0.271,0.343 0.768,0.597 1.495,0.762 0.871,0.204 1.435,0.346 1.694,0.426 0.258,0.08 0.532,0.187 0.82,0.319 0,0.332 -0.058,0.562 -0.178,0.697 C 1.715,0.764 1.509,0.831 1.214,0.831 0.834,0.831 0.549,0.762 0.358,0.621 0.211,0.51 0.091,0.304 0,0 M 2.01,-1.411 C 1.691,-1.541 1.357,-1.659 1.012,-1.759 0.541,-1.904 0.241,-2.047 0.115,-2.188 c -0.128,-0.146 -0.193,-0.309 -0.193,-0.493 0,-0.213 0.063,-0.384 0.191,-0.517 0.128,-0.134 0.315,-0.202 0.562,-0.202 0.258,0 0.499,0.072 0.721,0.217 0.223,0.144 0.38,0.322 0.475,0.53 0.092,0.208 0.139,0.48 0.139,0.814 z" /></g><g
           transform="translate(181.6379,10.0539)"
           id="g190"><path
             id="path192"
             style="fill:#af0032;fill-opacity:1;fill-rule:nonzero;stroke:none"
             d="m 0,0 h 2.164 v -1.02 c 0.313,0.427 0.628,0.729 0.947,0.909 0.317,0.178 0.701,0.269 1.153,0.269 0.482,0 0.864,-0.099 1.146,-0.297 0.282,-0.198 0.514,-0.491 0.692,-0.881 0.365,0.458 0.697,0.766 0.997,0.931 0.302,0.165 0.671,0.247 1.111,0.247 0.65,0 1.158,-0.223 1.522,-0.668 0.365,-0.445 0.547,-1.142 0.547,-2.091 v -4.39 H 7.954 v 3.995 c 0,0.317 -0.054,0.554 -0.16,0.706 -0.154,0.243 -0.35,0.364 -0.582,0.364 -0.272,0 -0.493,-0.115 -0.658,-0.345 C 6.385,-2.499 6.302,-2.866 6.302,-3.372 V -6.991 H 3.977 v 3.854 c 0,0.306 -0.015,0.514 -0.045,0.625 -0.05,0.176 -0.137,0.315 -0.259,0.423 -0.121,0.109 -0.267,0.163 -0.43,0.163 -0.269,0 -0.488,-0.117 -0.66,-0.349 C 2.412,-2.508 2.325,-2.89 2.325,-3.422 V -6.991 H 0 Z" /></g><g
           transform="translate(195.4258,7.7906)"
           id="g194"><path
             id="path196"
             style="fill:#af0032;fill-opacity:1;fill-rule:nonzero;stroke:none"
             d="m 0,0 -2.221,0.273 c 0.085,0.448 0.206,0.799 0.365,1.056 0.156,0.253 0.384,0.477 0.681,0.664 0.213,0.137 0.506,0.243 0.878,0.317 0.373,0.074 0.775,0.111 1.209,0.111 0.697,0 1.255,-0.044 1.678,-0.135 C 3.011,2.197 3.363,2.01 3.645,1.724 3.843,1.526 3.999,1.246 4.112,0.884 4.227,0.523 4.283,0.176 4.283,-0.152 v -3.087 c 0,-0.33 0.018,-0.586 0.055,-0.773 0.036,-0.187 0.115,-0.425 0.236,-0.714 H 2.392 c -0.086,0.18 -0.143,0.317 -0.169,0.41 -0.026,0.093 -0.054,0.241 -0.08,0.443 C 1.837,-4.21 1.537,-4.451 1.235,-4.596 0.825,-4.789 0.347,-4.885 -0.198,-4.885 c -0.72,0 -1.267,0.194 -1.643,0.58 -0.376,0.384 -0.562,0.862 -0.562,1.426 0,0.532 0.134,0.966 0.406,1.309 0.269,0.343 0.766,0.597 1.493,0.762 0.871,0.204 1.435,0.346 1.694,0.426 0.258,0.08 0.532,0.187 0.82,0.319 0,0.332 -0.058,0.562 -0.176,0.697 C 1.717,0.764 1.511,0.831 1.214,0.831 0.834,0.831 0.549,0.762 0.36,0.621 0.213,0.51 0.091,0.304 0,0 M 2.01,-1.411 C 1.691,-1.541 1.359,-1.659 1.012,-1.759 0.541,-1.904 0.241,-2.047 0.115,-2.188 c -0.128,-0.146 -0.193,-0.309 -0.193,-0.493 0,-0.213 0.063,-0.384 0.191,-0.517 0.128,-0.134 0.315,-0.202 0.562,-0.202 0.258,0 0.499,0.072 0.723,0.217 0.221,0.144 0.38,0.322 0.473,0.53 0.094,0.208 0.139,0.48 0.139,0.814 z" /></g></g></g></g></svg>