<?xml version="1.0" encoding="UTF-8" standalone="no"?>
<svg
   xmlns:dc="http://purl.org/dc/elements/1.1/"
   xmlns:cc="http://creativecommons.org/ns#"
   xmlns:rdf="http://www.w3.org/1999/02/22-rdf-syntax-ns#"
   xmlns:svg="http://www.w3.org/2000/svg"
   xmlns="http://www.w3.org/2000/svg"
   viewBox="0 0 220 266.66666"
   height="266.66666"
   width="220"
   xml:space="preserve"
   id="svg2"
   version="1.1"><metadata
     id="metadata8"><rdf:RDF><cc:Work
         rdf:about=""><dc:format>image/svg+xml</dc:format><dc:type
           rdf:resource="http://purl.org/dc/dcmitype/StillImage" /></cc:Work></rdf:RDF></metadata><defs
     id="defs6"><clipPath
       id="clipPath18"
       clipPathUnits="userSpaceOnUse"><path
         id="path16"
         d="M 0,200 H 165 V 0 H 0 Z" /></clipPath></defs><g
     transform="matrix(1.3333333,0,0,-1.3333333,0,266.66667)"
     id="g10"><g
       id="g12"><g
         clip-path="url(#clipPath18)"
         id="g14"><g
           transform="translate(158.8789,122.1252)"
           id="g20"><path
             id="path22"
             style="fill:#1f4889;fill-opacity:1;fill-rule:nonzero;stroke:none"
             d="M 0,0 C 0.851,0.891 0,2.391 0,3.404 H -0.203 L -5.146,1.702 c 0.078,-0.984 0.6,-1.879 1.418,-2.431 1.287,-0.556 2.782,-0.267 3.769,0.729 z m 1.459,-31.97 v 0 l -4.336,2.188 -0.365,-3.322 z m 4.052,12.359 c 0,-1.54 0.243,-3.08 0.405,-4.62 H 4.822 l -0.324,1.054 c -0.658,0.101 -1.328,0.101 -1.986,0 h -2.35 l -4.862,-0.486 -2.067,-0.243 c -0.075,-0.347 -0.075,-0.707 0,-1.054 0,-1.053 1.297,-1.58 2.026,-2.026 l 10.13,-5.267 v -1.783 L -4.7,-36.386 c -1.094,-0.284 -2.999,-0.324 -3.525,-1.135 -0.286,-0.748 -0.397,-1.552 -0.325,-2.35 1.268,-0.636 2.641,-1.035 4.052,-1.175 l 4.052,-1.013 c 0.956,-0.426 1.994,-0.633 3.039,-0.608 l 0.568,1.337 0.972,-0.202 -1.58,-5.957 H 1.54 v 1.459 c -1.037,0.5 -2.144,0.842 -3.282,1.013 l -8.104,2.067 c -0.188,-0.749 -0.337,-1.506 -0.446,-2.27 0,-1.742 0.567,-2.633 2.917,-3.606 0,-0.405 -0.283,-0.81 -0.405,-1.215 l -4.538,1.62 0.973,4.052 c 0.405,1.702 0.972,3.526 1.296,5.389 0.281,1.432 0.47,2.88 0.567,4.336 0,0.81 0.284,1.742 0.284,2.553 h 1.054 c -0.065,-0.484 -0.065,-0.975 0,-1.459 1.013,-0.486 2.309,0 3.282,0.324 0,1.418 0.364,2.837 0.526,4.255 -0.296,0.243 -0.623,0.448 -0.972,0.607 -0.566,0.311 -1.184,0.517 -1.823,0.608 l -0.325,-0.202 c -0.283,-0.417 -0.425,-0.915 -0.405,-1.418 h -1.094 c 0,1.377 0.405,2.512 0.446,4.051 0.04,1.54 0,1.945 -0.203,2.837 -0.024,0.842 -0.105,1.681 -0.243,2.512 v 0.648 c 0.348,0.074 0.706,0.074 1.054,0 0,-0.405 0,-0.851 0.202,-1.256 0.233,-0.137 0.5,-0.208 0.77,-0.202 h 2.067 c 2.431,0 5.429,0.567 6.847,0.567 l -10.737,3.322 v 1.338 l 9.805,4.943 c -0.98,0.144 -1.977,0.144 -2.957,0 -1.702,0 -4.052,-0.324 -5.268,-0.567 -0.39,-0.085 -0.752,-0.266 -1.053,-0.527 v -1.418 h -1.094 c -0.06,1.601 -0.209,3.197 -0.446,4.781 v 0.527 c -0.284,1.013 -0.729,1.985 -1.013,3.079 2.147,2.067 4.052,2.877 4.903,4.822 0,0.405 0,0.851 -0.284,1.418 C -7.835,1.135 -9.438,0.491 -10.9,-0.405 v -1.378 l -1.013,-0.324 c -0.648,1.945 -1.337,4.052 -1.985,5.875 l 0.972,0.324 0.608,-1.256 c 1.146,0.106 2.267,0.393 3.323,0.851 l 5.024,1.499 c 0.851,0.365 2.269,0.446 2.674,1.216 0.406,0.77 0,0.851 -0.202,1.256 l 0.972,0.365 C -0.243,7.01 0.405,5.349 1.013,3.606 1.813,1.873 2.122,-0.048 1.904,-1.945 1.201,-3.495 -0.48,-4.352 -2.148,-4.011 -3.296,-3.893 -4.281,-3.142 -4.7,-2.066 -4.847,-3.729 -5.761,-5.227 -7.172,-6.118 -7.75,-6.654 -8.266,-7.252 -8.712,-7.901 l 0.487,-1.783 c 0.377,-0.277 0.829,-0.432 1.296,-0.446 3.38,0.126 6.748,0.45 10.09,0.973 0.193,0.467 0.193,0.991 0,1.458 h 1.094 c 0,-1.58 0.243,-3.16 0.405,-4.74 l -9.117,-4.255 z" /></g><g
           transform="translate(157.096,62.4808)"
           id="g24"><path
             id="path26"
             style="fill:#1f4889;fill-opacity:1;fill-rule:nonzero;stroke:none"
             d="m 0,0 1.013,-0.405 c -0.891,-1.783 -1.742,-3.606 -2.634,-5.389 -0.324,0 -0.608,0 -0.972,0.324 -0.365,0.324 0.243,0.851 0.405,1.256 -0.527,0.891 -1.945,1.216 -2.877,1.702 -0.932,0.486 -2.147,1.134 -3.444,1.742 -2.229,1.094 -4.579,1.661 -5.713,-1.013 -1.135,-2.674 1.013,-4.052 4.052,-5.51 l 2.633,-1.297 c 0.714,-0.473 1.537,-0.752 2.391,-0.81 0.405,0 0.77,0.567 1.094,1.134 l 0.973,-0.405 -2.189,-4.538 -1.013,0.405 c 0,0.486 0.446,0.851 0.284,1.459 -0.162,0.607 -1.418,1.134 -2.228,1.539 l -2.513,1.256 c -2.431,1.135 -6.442,3.039 -4.619,7.497 0.34,0.764 0.791,1.474 1.337,2.107 0.446,0.638 1.045,1.154 1.743,1.499 0.408,0.165 0.828,0.3 1.256,0.405 C -10.482,3 -9.94,3 -9.4,2.958 -8.323,2.641 -7.289,2.191 -6.321,1.621 L -2.917,0 C -2.23,-0.474 -1.46,-0.817 -0.648,-1.013 -0.348,-0.737 -0.125,-0.388 0,0" /></g><g
           transform="translate(154.0166,133.7542)"
           id="g28"><path
             id="path30"
             style="fill:#1f4889;fill-opacity:1;fill-rule:nonzero;stroke:none"
             d="M 0,0 C 0.217,0.526 0.273,1.104 0.162,1.661 -0.281,3.077 -1.694,3.956 -3.161,3.728 L -4.903,3.404 C -7.201,2.79 -9.28,1.54 -10.9,-0.203 c -0.876,-1.274 -0.686,-2.998 0.446,-4.052 0.72,-0.461 1.588,-0.635 2.431,-0.486 h 0.73 C -4.286,-4.191 -1.612,-2.49 0.162,0 Z M 0.689,2.917 C 1.479,1.412 1.709,-0.326 1.337,-1.985 1.211,-2.623 0.933,-3.22 0.527,-3.728 -0.371,-5.016 -1.624,-6.015 -3.079,-6.605 -4.635,-7.416 -6.413,-7.7 -8.144,-7.415 c -3.618,1.102 -5.658,4.927 -4.557,8.545 0.129,0.422 0.298,0.831 0.505,1.22 1.209,1.789 3.021,3.083 5.105,3.647 l 1.905,0.365 c 1.181,0.034 2.352,-0.231 3.403,-0.77 1.064,-0.636 1.922,-1.564 2.472,-2.675" /></g><g
           transform="translate(150.694,49.7577)"
           id="g32"><path
             id="path34"
             style="fill:#1f4889;fill-opacity:1;fill-rule:nonzero;stroke:none"
             d="M 0,0 0.81,-0.608 -1.459,-3.89 c -1.195,-0.187 -2.411,-0.187 -3.606,0 h -8.509 c 0.891,-0.743 1.824,-1.433 2.796,-2.066 1.192,-0.938 2.467,-1.765 3.809,-2.472 0.972,0 0.972,0.648 1.62,0.932 l 0.608,-0.405 v -0.243 l -2.796,-4.052 h -0.202 l -0.608,0.607 c 0,0.365 0.365,0.811 0.446,1.459 -0.165,0.321 -0.369,0.621 -0.608,0.892 -0.744,0.732 -1.574,1.371 -2.472,1.904 l -3.646,2.593 -3.161,2.269 c -0.243,0.527 0.446,0.932 0.689,1.5 0.243,0.567 0.446,0.202 1.175,0.202 h 2.674 9.522 c -0.447,0.222 -0.869,0.494 -1.256,0.811 -0.41,0.256 -0.803,0.541 -1.175,0.85 l -2.147,1.621 c -0.916,0.757 -1.941,1.372 -3.039,1.824 -0.526,-0.159 -0.965,-0.525 -1.216,-1.013 l -0.729,0.445 2.917,4.052 0.932,-0.527 c 0,-0.364 -0.324,-0.729 -0.527,-1.094 0,-1.337 1.216,-1.742 2.026,-2.309 L -4.66,1.418 c 1.047,-0.9 2.204,-1.662 3.444,-2.269 0.649,0 0.649,0.446 1.216,0.851" /></g><g
           transform="translate(151.0181,143.5194)"
           id="g36"><path
             id="path38"
             style="fill:#1f4889;fill-opacity:1;fill-rule:nonzero;stroke:none"
             d="M 0,0 C -0.243,-0.243 -0.486,-0.527 -0.729,-0.729 L -1.661,0 c -1.175,0.446 -2.188,-1.135 -2.756,-1.661 l -6.847,-6.808 -1.175,1.135 2.309,13.088 -2.39,-2.431 c -1.054,-1.054 -2.189,-1.986 -3.201,-3.161 -0.267,-0.349 -0.51,-0.714 -0.73,-1.094 0,-0.77 0.486,-0.932 0.73,-1.459 l -0.73,-0.688 -3.606,3.687 0.77,0.729 1.013,-0.729 c 1.377,0 2.026,1.094 2.755,1.823 l 3.404,3.323 c 0.814,0.744 1.547,1.573 2.188,2.471 0,0.73 -0.405,0.973 -0.73,1.419 l 0.689,0.729 2.999,-2.877 c -0.689,-4.052 -1.337,-7.861 -2.026,-11.751 0.682,0.599 1.332,1.235 1.945,1.905 1.366,1.194 2.578,2.556 3.606,4.052 0,0.729 -0.486,1.134 -0.73,1.54 l 0.73,0.729 z" /></g><g
           transform="translate(142.0228,37.845)"
           id="g40"><path
             id="path42"
             style="fill:#1f4889;fill-opacity:1;fill-rule:nonzero;stroke:none"
             d="m 0,0 0.608,-0.648 c -0.634,-0.831 -1.324,-1.616 -2.067,-2.35 -1.065,-1.241 -2.216,-2.405 -3.444,-3.485 l -3.16,-2.917 -0.649,0.729 c 0,0.324 0.973,0.851 0.77,1.418 -0.202,0.567 -1.621,1.013 -2.188,1.337 l -6.078,3.242 c 0.568,-1.175 1.459,-3.485 2.35,-5.511 0.396,-1.121 0.986,-2.163 1.743,-3.079 0.729,0 1.013,0.445 1.458,0.81 l 0.73,-0.77 c -0.584,-0.658 -1.221,-1.268 -1.905,-1.823 -2.046,-1.792 -4.242,-3.406 -6.564,-4.822 l -4.052,-2.836 c -0.324,0.324 -0.851,1.053 -1.458,1.742 -0.509,0.53 -0.957,1.114 -1.338,1.742 l 1.013,0.689 c -0.011,-0.08 -0.011,-0.162 0,-0.243 0.652,-1.15 2.038,-1.664 3.283,-1.216 0.85,0.455 1.675,0.956 2.471,1.5 0,0.364 -0.283,0.729 -0.689,1.256 -0.745,0.884 -1.409,1.833 -1.985,2.836 h -0.203 c -0.486,-0.446 -1.013,-0.689 -1.458,-1.094 -0.248,-0.233 -0.454,-0.507 -0.608,-0.81 v -0.649 -0.243 l 0.365,-0.891 -0.892,-0.527 -3.039,4.052 0.932,0.648 c 0.486,-0.364 0.729,-0.729 1.013,-0.891 1.094,-0.527 1.175,0.243 2.877,1.013 -1.054,1.459 -2.067,2.917 -3.08,4.416 -1.458,-0.972 -2.674,-1.661 -2.957,-2.917 -0.111,-0.981 0.087,-1.973 0.567,-2.836 0.007,-0.135 0.007,-0.27 0,-0.405 l -1.054,-0.608 c -0.972,1.661 -1.701,3.079 -2.35,4.052 0.284,0.324 1.905,1.377 3.647,2.633 1.655,1.268 3.387,2.432 5.186,3.485 l 0.527,-0.81 c -0.41,-0.222 -0.758,-0.542 -1.013,-0.932 0,-0.811 1.135,-1.945 1.54,-2.553 0.851,-1.216 1.742,-2.512 2.593,-3.809 0.699,-1.122 1.514,-2.168 2.431,-3.12 0.925,0.042 1.715,0.684 1.945,1.58 0.07,0.779 -0.07,1.563 -0.405,2.27 l -4.498,10.575 0.608,0.527 c 0.204,0.282 0.467,0.517 0.77,0.689 0,0 0.689,-0.324 1.054,-0.527 0.364,-0.203 1.256,-0.608 1.742,-0.851 l 5.267,-2.715 c 0.608,-0.364 1.338,-0.81 2.067,-1.175 0.659,-0.392 1.389,-0.654 2.147,-0.77 0.792,0.197 1.404,0.825 1.581,1.621 -0.414,0.591 -0.92,1.111 -1.5,1.54 -0.688,0.648 -1.499,1.296 -2.147,1.864 -0.648,0.567 -1.864,1.702 -2.836,2.593 -0.604,0.63 -1.301,1.162 -2.067,1.58 l 0.243,0.77 -0.851,-0.851 -0.77,0.73 4.052,4.74 0.851,-0.729 C -9.248,7.901 -9.538,7.458 -9.725,6.969 c 0.753,-0.983 1.64,-1.855 2.634,-2.593 1.418,-1.175 2.918,-2.512 4.052,-3.404 1.135,-0.891 1.297,-1.418 2.067,-1.62 0.769,-0.203 0.283,0 0.445,0 l 0.73,0.729 z" /></g><g
           transform="translate(132.3387,82.4568)"
           id="g44"><path
             id="path46"
             style="fill:#1f4889;fill-opacity:1;fill-rule:nonzero;stroke:none"
             d="M 0,0 V -0.203 H -35.738 V -1.985 H -55.43 v 1.661 h -36.184 c 1.499,4.376 2.917,8.711 4.416,13.088 2.603,-0.906 5.351,-1.318 8.104,-1.216 5.57,0.268 11.091,1.179 16.451,2.715 1.266,0.281 2.511,0.646 3.728,1.094 0.67,0.303 1.361,0.56 2.066,0.77 5.633,0.972 7.496,0.283 10.454,-4.052 l 0.284,-0.203 c 1.321,1.706 3.011,3.092 4.943,4.052 2.544,0.813 5.277,0.813 7.821,0 1.539,-0.405 4.052,-1.297 5.753,-1.742 6.477,-1.97 13.276,-2.659 20.017,-2.026 1.29,0.122 2.565,0.366 3.809,0.729 C -2.472,8.387 -1.256,4.336 0,0" /></g><g
           transform="translate(129.8671,132.0524)"
           id="g48"><path
             id="path50"
             style="fill:#1f4889;fill-opacity:1;fill-rule:nonzero;stroke:none"
             d="m 0,0 v -5.632 -10.697 c -0.021,-1.355 -0.116,-2.708 -0.284,-4.052 -0.861,-2.439 -2.444,-4.559 -4.538,-6.078 -4.278,-3.156 -9.996,-3.551 -14.668,-1.013 -3.415,1.819 -5.805,5.105 -6.483,8.914 v 13.777 c 0.042,0.35 0.042,0.703 0,1.053 v 0.203 h -1.621 v 1.58 c 1.216,0 2.513,0 2.999,-0.567 0.142,-0.431 0.21,-0.883 0.202,-1.337 v -2.877 -11.102 c 0.747,-4.859 4.486,-8.712 9.32,-9.604 5.87,-0.807 11.468,2.736 13.25,8.388 v 4.579 7.009 9.158 c -0.018,0.514 -0.292,0.985 -0.73,1.256 -0.926,0.305 -1.903,0.428 -2.877,0.365 h -5.389 l 0.932,1.256 c 0.209,0.081 0.44,0.081 0.649,0 h 1.701 2.634 C -3.828,4.633 -2.751,4.537 -1.702,4.295 -1.093,4.055 -0.6,3.591 -0.324,2.998 -0.064,2.021 0.045,1.01 0,0" /></g><g
           transform="translate(112.1196,160.7806)"
           id="g52"><path
             id="path54"
             style="fill:#1f4889;fill-opacity:1;fill-rule:nonzero;stroke:none"
             d="m 0,0 h 0.203 c 0,0.608 0,1.985 -0.284,3.16 V 4.417 4.822 L -2.796,0.77 Z M 16.208,2.431 C 16.075,2.143 15.967,1.845 15.884,1.54 15.357,1.54 14.992,1.864 14.263,1.904 13.088,0.324 12.358,-1.58 11.305,-3.323 L 8.59,-8.266 10.9,-9.4 c 1.661,-0.38 3.359,0.469 4.052,2.025 l 1.013,-0.567 c -0.01,-0.067 -0.01,-0.135 0,-0.202 -0.892,-1.216 -1.743,-2.472 -2.634,-3.728 h -0.203 c -1.864,1.134 -3.565,2.026 -5.551,3.079 -0.891,0.446 -1.945,1.175 -2.998,1.581 -1.054,0.405 -1.824,0.567 -2.675,0.81 -0.85,0.243 -2.026,0.608 -3.201,0.851 v 1.013 c 0.512,-0.06 1.029,-0.06 1.54,0 0.446,0.851 0,2.309 0,3.363 l -4.052,1.013 c -0.324,0 -0.77,-0.648 -1.094,-1.216 -0.283,-0.399 -0.476,-0.855 -0.567,-1.337 0,-0.527 0.486,-0.851 1.459,-1.013 -0.071,-0.304 -0.165,-0.602 -0.284,-0.891 l -4.984,1.175 c -0.02,0.297 -0.02,0.594 0,0.891 v 0.203 c 1.864,-0.405 2.512,0.972 3.282,2.066 L 0.324,8.752 2.066,8.469 c 0.325,-3.201 0.649,-6.362 0.932,-9.563 0.244,-1.418 0,-3.323 0.689,-4.255 0.486,-0.477 1.11,-0.788 1.783,-0.891 1.17,1.501 2.137,3.149 2.877,4.903 0.648,1.094 1.378,2.309 1.985,3.525 0.305,0.516 0.563,1.059 0.77,1.621 -0.31,0.418 -0.731,0.74 -1.215,0.932 l 0.486,0.932 0.972,-0.487 z" /></g><g
           transform="translate(126.8686,129.5807)"
           id="g56"><path
             id="path58"
             style="fill:#1f4889;fill-opacity:1;fill-rule:nonzero;stroke:none"
             d="m 0,0 v -5.186 -10.535 c -0.278,-0.945 -0.63,-1.867 -1.053,-2.756 -1.36,-2.954 -4.213,-4.939 -7.456,-5.186 -0.849,-0.079 -1.704,-0.079 -2.553,0 -2.547,0.069 -4.958,1.165 -6.685,3.039 -1.422,1.65 -2.337,3.676 -2.634,5.834 v 13.777 c 0.049,0.562 -0.02,1.128 -0.203,1.661 -0.428,0.669 -1.152,1.091 -1.945,1.135 -0.715,0.041 -1.432,0.041 -2.147,0 v 3.079 h 4.7 c 0.943,0.087 1.893,0.087 2.836,0 0.75,-0.135 1.41,-0.575 1.824,-1.215 0.111,-0.453 0.111,-0.925 0,-1.378 v -3.647 -7.415 c -0.13,-1.969 -0.13,-3.946 0,-5.915 0.107,-0.793 0.414,-1.546 0.891,-2.189 0.962,-1.303 2.438,-2.13 4.052,-2.269 2.864,-0.384 5.599,1.314 6.524,4.052 v 10.495 1.418 l -6.524,5.592 c 0.527,0.688 1.013,1.418 1.54,2.147 0.186,0.117 0.392,0.2 0.608,0.243 h 3.16 c 1.578,0.158 3.172,0.02 4.7,-0.405 C 0.122,3.971 -0.041,2.674 0,0" /></g><g
           transform="translate(120.4261,115.399)"
           id="g60"><path
             id="path62"
             style="fill:#1f4889;fill-opacity:1;fill-rule:nonzero;stroke:none"
             d="m 0,0 v 9.482 l -5.794,4.862 V 4.457 1.621 c -0.09,-0.605 -0.09,-1.219 0,-1.824 0.261,-1.013 1.053,-1.804 2.066,-2.066 0.71,-0.216 1.48,-0.113 2.107,0.284 0.506,0.282 0.905,0.724 1.135,1.256 C -0.122,-0.243 0,-0.243 0,0 m 1.823,8.793 c 0.09,-1.268 0.09,-2.541 0,-3.809 v -5.673 c -0.961,-2.555 -3.812,-3.847 -6.367,-2.885 -0.295,0.111 -0.577,0.249 -0.845,0.413 -0.909,0.724 -1.539,1.741 -1.783,2.877 v 14.304 2.593 c 0.04,0.621 0.04,1.243 0,1.864 -0.42,0.765 -1.196,1.267 -2.066,1.337 -1.18,0.177 -2.374,0.244 -3.566,0.203 h -5.349 v 1.539 h 5.754 c 4.052,0 5.308,-0.486 6.2,-1.945 0.534,-1.701 0.699,-3.497 0.486,-5.267 0.288,0.409 0.599,0.801 0.932,1.175 L 1.54,10.251 C 1.723,9.787 1.82,9.292 1.823,8.793" /></g><g
           transform="translate(113.0921,65.155)"
           id="g64"><path
             id="path66"
             style="fill:#1f4889;fill-opacity:1;fill-rule:nonzero;stroke:none"
             d="M 0,0 C 0,2.917 0,5.835 0.203,8.752 -0.438,8.19 -1.022,7.566 -1.54,6.888 -2.755,5.349 -3.768,4.133 -4.619,2.836 L -6.362,0.203 C -6.365,0.135 -6.365,0.067 -6.362,0 Z m 7.901,-5.551 c 0.042,-0.323 0.042,-0.65 0,-0.973 H -4.255 v 0.527 c 0,0.527 0,0.446 0.203,0.567 0.391,0.028 0.784,0.028 1.175,0 0.761,0.027 1.52,0.108 2.269,0.244 h 0.243 C 0.162,-4.862 0,-4.214 0.162,-2.269 h -8.955 c -0.302,0.799 -0.147,1.698 0.406,2.35 l 1.62,2.391 c 1.581,2.269 3.566,4.416 4.538,5.591 l 2.27,2.472 c 1.597,0.348 3.227,0.525 4.862,0.527 0.051,-0.295 0.051,-0.597 0,-0.892 0.047,-0.607 0.047,-1.216 0,-1.823 v -8.428 h 3.201 c 0.283,-0.284 0,-1.499 0,-1.985 -1.1,-0.187 -2.223,-0.187 -3.323,0 0.002,-0.993 0.097,-1.983 0.284,-2.958 0.914,-0.315 1.87,-0.492 2.836,-0.527" /></g><g
           transform="translate(112.849,14.8301)"
           id="g68"><path
             id="path70"
             style="fill:#1f4889;fill-opacity:1;fill-rule:nonzero;stroke:none"
             d="M 0,0 -2.391,4.943 C -3.242,4.295 -4.255,4.092 -4.66,3.079 c -0.556,-1.654 0.334,-3.446 1.989,-4.003 0.052,-0.017 0.105,-0.034 0.159,-0.048 0.972,0 1.783,0.729 2.471,0.972 z M 4.052,1.945 C 4.308,1.661 4.477,1.309 4.538,0.932 3.944,0.707 3.362,0.45 2.796,0.162 0.709,-1.144 -1.576,-2.102 -3.971,-2.674 c -1.752,-0.147 -3.314,1.096 -3.566,2.836 -0.12,0.561 -0.12,1.141 0,1.702 0.244,0.891 1.013,1.418 1.54,2.066 -1.703,0.142 -3.279,0.959 -4.376,2.269 -0.442,0.494 -1.02,0.847 -1.661,1.013 h -0.77 c 0.405,-1.215 0.81,-2.471 1.256,-3.727 l -1.135,-0.446 c -0.293,0.366 -0.551,0.76 -0.769,1.175 -0.377,0.785 -1.069,1.374 -1.905,1.621 h -0.567 c -0.282,0.042 -0.569,0.042 -0.851,0 -1.183,-0.249 -1.94,-1.409 -1.692,-2.591 0.027,-0.126 0.064,-0.248 0.112,-0.367 0.263,-0.576 0.767,-1.006 1.377,-1.175 1.517,-0.366 3.063,-0.597 4.62,-0.689 0.787,-0.11 1.529,-0.432 2.147,-0.932 0.415,-0.429 0.709,-0.96 0.851,-1.54 0.284,-0.841 0.284,-1.752 0,-2.593 -0.496,-1.201 -1.441,-2.16 -2.634,-2.674 -0.933,-0.345 -1.896,-0.602 -2.877,-0.77 -0.539,-0.219 -1.033,-0.534 -1.458,-0.932 -0.165,0.283 -0.301,0.581 -0.405,0.891 l -0.365,1.094 c -0.1,0.209 -0.181,0.426 -0.243,0.649 -0.262,0.625 -0.452,1.277 -0.568,1.945 l 1.176,0.364 c 0.349,-1.185 1.257,-2.124 2.431,-2.512 1.377,-0.364 3.16,0.77 2.836,2.148 -0.689,2.836 -3.647,1.742 -6.321,2.39 -0.945,0.187 -1.792,0.704 -2.391,1.459 -0.802,1.113 -1.041,2.535 -0.648,3.849 0.153,0.39 0.358,0.758 0.608,1.094 0.651,0.858 1.538,1.506 2.553,1.864 l 3.079,0.73 c 0.405,0 0.77,0.486 1.135,0.688 l 3.606,1.783 c 1.621,-1.256 3.12,-3.687 5.227,-4.052 0.527,0 0.851,0 1.54,0.406 -0.73,1.418 -1.419,2.836 -2.107,4.051 -0.105,0.124 -0.247,0.21 -0.406,0.244 -0.487,-0.007 -0.964,-0.147 -1.377,-0.406 -0.153,0.317 -0.288,0.642 -0.405,0.973 l 5.47,2.755 0.526,-0.81 v -0.203 c -0.405,0 -1.296,-0.446 -1.134,-1.215 0.162,-0.77 1.053,-2.026 1.54,-3.08 C -0.486,7.618 0.284,6.159 0.891,4.619 1.288,3.544 1.863,2.544 2.593,1.661 Z" /></g><g
           transform="translate(9.9299,98.9481)"
           id="g72"><path
             id="path74"
             style="fill:#1f4889;fill-opacity:1;fill-rule:nonzero;stroke:none"
             d="m 0,0 c -0.689,3.417 -2.067,6.657 -4.052,9.522 -0.873,1.231 -1.941,2.312 -3.16,3.201 C -6.83,10.721 -6.133,8.793 -5.146,7.01 -3.888,4.369 -2.142,1.991 0,0 m 0.567,12.642 v 0 c -0.194,3.827 -1.306,7.552 -3.241,10.859 -0.595,1.066 -1.346,2.035 -2.229,2.877 0.442,-3.657 1.555,-7.201 3.282,-10.454 0.63,-1.176 1.391,-2.277 2.269,-3.282 z m 1.337,-25.203 c -0.23,0.729 -0.557,1.424 -0.972,2.066 l -0.77,1.297 c -1.974,3.206 -4.773,5.822 -8.104,7.577 0.827,-1.742 1.847,-3.387 3.039,-4.903 1.837,-2.47 4.135,-4.561 6.767,-6.159 z m -3.525,-8.104 c 2.143,-1.873 4.616,-3.33 7.294,-4.295 -2.745,4.177 -6.856,7.271 -11.629,8.752 1.173,-1.728 2.64,-3.237 4.335,-4.457 M 2.715,25 c 0.046,2.608 -0.254,5.211 -0.892,7.74 -0.554,2.305 -1.499,4.498 -2.795,6.483 -0.16,-3.465 0.335,-6.93 1.458,-10.211 0.126,-0.277 0.234,-0.561 0.324,-0.851 0.649,-1.256 1.094,-2.026 1.743,-3.12 z m 4.052,14.628 c 0.243,2.141 0.243,4.302 0,6.442 -0.173,2.017 -0.796,3.97 -1.824,5.714 0,-0.851 -0.324,-1.702 -0.364,-2.594 -0.137,-2.714 0.053,-5.435 0.567,-8.103 0.205,-1.287 0.615,-2.532 1.216,-3.688 0.233,0.72 0.356,1.472 0.364,2.229 z m 4.052,-74.758 c -1.002,1.06 -2.148,1.974 -3.404,2.715 -2.996,1.978 -6.464,3.125 -10.049,3.322 0.753,-0.796 1.629,-1.466 2.593,-1.985 3.309,-2.072 7.003,-3.45 10.86,-4.052 m 0,41.41 c 0,0.527 1.337,3.161 0.972,3.607 L 9.846,8.104 C 7.719,5.636 6.02,2.828 4.822,-0.203 4.544,-0.93 4.314,-1.674 4.133,-2.431 5.106,-1.7 6.014,-0.887 6.848,0 c 1.65,1.868 2.991,3.988 3.971,6.28 m 1.296,-8.711 c 0.079,0.496 0.079,1.002 0,1.499 -0.526,-0.77 -1.215,-1.297 -1.783,-2.188 -2.311,-3.313 -3.835,-7.111 -4.457,-11.102 0.718,0.734 1.382,1.519 1.986,2.35 1.537,2.142 2.739,4.506 3.565,7.01 0.286,0.793 0.517,1.605 0.689,2.431 m 0.487,22.042 c 0.275,0.441 0.441,0.941 0.486,1.459 L 10.94,19.53 C 10.535,19.206 10.13,18.72 9.644,18.234 9.157,17.747 8.225,16.856 7.537,16.086 6.586,14.953 5.745,13.732 5.024,12.439 4.478,11.608 4.042,10.709 3.728,9.765 c 3.142,1.948 5.791,4.597 7.739,7.739 0.43,0.674 0.809,1.378 1.135,2.107 m 0.243,30.714 c 0.909,3.189 1.062,6.547 0.445,9.806 -0.082,0.793 -0.316,1.563 -0.688,2.269 -0.786,-2.398 -1.236,-4.894 -1.338,-7.415 -0.04,-0.783 -0.04,-1.568 0,-2.35 0.107,-1.171 0.283,-2.335 0.527,-3.485 0,-0.486 0.243,-0.973 0.284,-1.459 0.243,0.932 0.567,1.743 0.77,2.634 M 13.858,-15.6 c 0.09,0.754 0.09,1.516 0,2.269 0.118,0.697 0.118,1.41 0,2.107 l -1.419,-2.634 c -1.497,-3.688 -2.201,-7.65 -2.066,-11.629 1.196,1.776 2.099,3.732 2.674,5.795 0.359,1.345 0.63,2.712 0.811,4.092 m 2.836,47.205 v 0 L 13.817,30.187 C 11.716,28.939 9.782,27.427 8.063,25.689 7.481,25.106 6.939,24.483 6.443,23.825 6.069,23.403 5.743,22.941 5.47,22.448 c 1.183,0.416 2.322,0.945 3.404,1.58 3.259,1.751 5.967,4.375 7.82,7.577 m 1.54,-75.812 v 0 l -2.837,1.621 c -2.212,1.107 -4.573,1.885 -7.01,2.31 -1.339,0.21 -2.697,0.278 -4.051,0.202 0.701,-0.565 1.478,-1.029 2.309,-1.377 3.627,-1.722 7.575,-2.66 11.589,-2.756 m -1.013,11.184 c 1.142,3.107 1.463,6.457 0.932,9.724 0,0.689 0,1.54 -0.487,2.026 -0.243,-0.77 -0.526,-1.377 -0.769,-2.269 -0.75,-2.4 -1.133,-4.9 -1.135,-7.415 -0.061,-0.782 -0.061,-1.568 0,-2.35 0,-0.81 0,-1.621 0.324,-2.391 0.486,0.73 0.851,1.702 1.135,2.675 M 21.03,40.965 H 20.624 L 18.396,40.519 16.37,39.668 13.736,38.453 c -0.82,-0.485 -1.606,-1.026 -2.35,-1.621 L 9.4,35.373 8.185,34.117 c 1.722,0.247 3.4,0.738 4.984,1.459 3.043,1.085 5.752,2.942 7.861,5.389 m 0.769,26.419 v 2.066 1.945 c 0.019,0.08 0.019,0.163 0,0.243 l -1.458,-3.201 c -1.351,-3.563 -1.783,-7.409 -1.256,-11.183 0.782,1.26 1.382,2.624 1.782,4.052 0.56,1.98 0.873,4.021 0.932,6.078 m 2.634,-107.295 c 0.542,3.103 0.376,6.289 -0.486,9.319 -0.203,0.689 -0.243,1.54 -0.729,1.945 -0.56,-2.254 -0.846,-4.566 -0.851,-6.888 -0.041,-0.702 -0.041,-1.406 0,-2.107 0,-0.932 0.283,-2.026 0.486,-2.877 0.202,-0.851 0.486,-1.743 0.648,-2.675 z m 2.31,89.628 H 26.419 L 24.068,49.352 C 23.232,49.139 22.407,48.882 21.597,48.583 20.786,48.34 19.895,47.975 19.085,47.691 L 15.033,45.544 13.29,44.288 13.007,43.963 c 1.285,0.087 2.56,0.29 3.809,0.608 2.222,0.514 4.362,1.332 6.361,2.431 l 2.796,1.986 z m 0.77,-101.744 v 0 c -1.175,0.324 -2.148,0.811 -3.282,1.135 -2.635,0.742 -5.369,1.07 -8.104,0.972 -1.097,0.016 -2.186,-0.19 -3.201,-0.608 1.422,-0.624 2.901,-1.113 4.416,-1.458 l 4.619,-0.568 h 1.216 c 1.54,0.122 2.917,0.446 4.336,0.527 m 3.808,128.163 c 0.193,1.344 0.193,2.708 0,4.052 -0.526,-0.811 -1.053,-1.662 -1.539,-2.513 -0.487,-0.85 -0.487,-0.972 -0.73,-1.499 -1.435,-3.136 -2.128,-6.561 -2.026,-10.008 0.891,1.075 1.59,2.294 2.067,3.606 0.889,2.067 1.634,4.192 2.228,6.362 m 1.378,-127.798 c 0.302,3.633 -0.153,7.289 -1.337,10.738 -0.391,1.27 -0.95,2.483 -1.661,3.606 -0.424,-3.692 -0.009,-7.432 1.215,-10.94 0.527,-1.135 1.094,-2.229 1.662,-3.364 z m 1.013,110.131 v 0 H 31.97 l -3.363,-0.526 c -3.126,-0.722 -6.102,-1.983 -8.793,-3.728 0.483,-0.084 0.976,-0.084 1.459,0 0.993,0.056 1.981,0.178 2.958,0.364 2.411,0.331 4.752,1.057 6.928,2.148 z m 5.146,-117.992 v 0 c -1.053,0.203 -1.904,0.608 -2.917,0.851 -2.261,0.503 -4.573,0.734 -6.889,0.689 l -2.309,-0.284 -2.715,-0.77 c 1.777,-0.74 3.669,-1.165 5.592,-1.256 1.682,-0.2 3.382,-0.2 5.065,0 z m 2.796,125.61 h 0.202 c -0.426,0.102 -0.87,0.102 -1.296,0 h -2.391 l -2.715,-0.324 c -2.729,-0.46 -5.368,-1.349 -7.82,-2.634 0.563,-0.094 1.139,-0.094 1.702,0 0.918,-0.046 1.837,-0.046 2.755,0 1.135,0 2.229,0.203 3.201,0.365 2.269,0.42 4.432,1.288 6.362,2.552 z m 0,19.004 c 0.097,0.481 0.097,0.977 0,1.458 -0.446,-0.648 -0.932,-1.094 -1.378,-1.702 -1.809,-2.297 -3.182,-4.906 -4.052,-7.698 -0.4,-1.316 -0.632,-2.678 -0.689,-4.052 0.759,0.685 1.414,1.476 1.945,2.35 1.384,2.181 2.5,4.521 3.323,6.969 0.346,0.871 0.63,1.764 0.851,2.675 m 2.431,-142.669 c -0.156,1.669 -0.594,3.3 -1.297,4.822 -1.245,2.991 -3.015,5.735 -5.227,8.104 0.55,-4.912 2.716,-9.502 6.159,-13.047 z m 6.969,-6.24 v 0 h -4.578 -2.067 c -0.976,-0.091 -1.939,-0.281 -2.877,-0.567 -1.117,-0.334 -2.202,-0.768 -3.241,-1.297 -0.608,-0.324 -1.094,-0.648 -1.783,-0.972 0.729,-0.04 1.459,-0.04 2.188,0 2.957,0.054 5.885,0.588 8.671,1.58 z m 0,135.537 v 0 c -0.77,0 -1.094,0.243 -1.864,0.324 -1.344,0.162 -2.697,0.243 -4.052,0.243 l -3.606,-0.364 c -0.793,-0.146 -1.577,-0.336 -2.35,-0.568 l -1.418,-0.405 -1.216,-0.405 c 0.805,-0.301 1.654,-0.465 2.513,-0.486 3.039,-0.483 6.146,-0.318 9.116,0.486 0.892,0.284 1.621,0.729 2.634,1.054 z m 0,-129.662 c 1.266,-1.543 2.821,-2.823 4.579,-3.768 -1.79,4.68 -5.008,8.678 -9.198,11.427 0.989,-2.848 2.562,-5.456 4.619,-7.659 m 1.5,146.64 c 0.202,0.486 1.539,3.12 1.256,3.484 l -2.188,-2.026 c -0.73,-0.85 -1.54,-1.701 -2.27,-2.633 -0.976,-1.332 -1.766,-2.791 -2.35,-4.336 -0.47,-1.006 -0.81,-2.068 -1.013,-3.16 0.685,0.381 1.29,0.89 1.783,1.499 1.91,2.164 3.518,4.577 4.782,7.172 m 7.536,-11.71 v 0 c -0.729,0 -1.256,0.405 -2.026,0.567 -2.193,0.383 -4.419,0.546 -6.645,0.486 l -2.674,-0.243 -3.404,-0.81 c 0.82,-0.34 1.677,-0.585 2.553,-0.73 1.094,0 2.026,-0.364 3.201,-0.486 1.175,-0.121 2.228,0 3.16,0 h 1.743 l 2.714,0.608 c 0.446,0.324 0.851,0.608 1.378,0.608 m 4.538,-143.682 v 0.284 H 64.345 L 60.009,-67.1 c -3.336,-0.688 -6.427,-2.255 -8.955,-4.538 3.565,0.236 7.049,1.172 10.252,2.755 z M 66.33,95.382 c 0,0.365 0.405,0.811 0.365,1.054 l -2.35,-1.661 -0.608,-0.527 c -1.4,-1.21 -2.663,-2.569 -3.768,-4.052 -1.118,-1.452 -1.981,-3.082 -2.553,-4.822 1.749,0.923 3.283,2.207 4.497,3.768 1.214,1.25 2.312,2.606 3.283,4.052 0.429,0.702 0.808,1.433 1.134,2.188 m 1.986,-159.281 v 0 c -1.333,2.286 -3.062,4.317 -5.106,5.997 -1.729,1.562 -3.735,2.785 -5.916,3.606 1.294,-2.196 2.952,-4.155 4.903,-5.794 1.755,-1.649 3.841,-2.906 6.119,-3.687 z M 71.03,81.039 v 0 l -1.823,0.607 C 66.645,82.341 64,82.681 61.346,82.659 h -1.945 l -2.998,-0.526 c 0.761,-0.367 1.564,-0.639 2.391,-0.811 2.395,-0.759 4.903,-1.102 7.415,-1.013 0.869,0.035 1.736,0.129 2.593,0.284 0.81,0.202 1.418,0.446 2.228,0.446 m 7.942,-146.68 h -0.243 l -3.566,-1.337 c -3.306,-1.433 -6.122,-3.798 -8.104,-6.808 2.501,0.797 4.865,1.972 7.01,3.485 1.861,1.296 3.514,2.867 4.903,4.66 m 1.823,2.633 c -1.023,1.242 -2.241,2.309 -3.606,3.161 -2.788,1.883 -5.888,3.255 -9.157,4.052 1.191,-1.358 2.553,-2.557 4.052,-3.566 2.567,-1.9 5.556,-3.151 8.711,-3.647 M 80.39,99.434 77.594,97.976 c -2.322,-1.527 -4.433,-3.353 -6.28,-5.43 -0.786,-0.828 -1.442,-1.771 -1.945,-2.796 3.525,1.457 6.64,3.752 9.076,6.686 0.492,0.582 0.952,1.191 1.378,1.823 v 0.203 c 0.289,0.254 0.488,0.595 0.567,0.972 m 2.391,-14.789 v 0 c -0.892,0.283 -1.58,0.689 -2.472,0.972 -3.046,0.921 -6.218,1.359 -9.4,1.297 l -2.553,-0.324 2.067,-0.892 c 2.571,-1.057 5.323,-1.607 8.103,-1.62 1.433,0.06 2.857,0.25 4.255,0.567 m 6.037,-151.137 c 1.054,1.063 1.942,2.279 2.634,3.606 l -2.998,-1.54 c -2.47,-1.441 -4.632,-3.355 -6.362,-5.632 -0.61,-0.669 -1.103,-1.436 -1.459,-2.269 3.109,1.389 5.917,3.371 8.266,5.835 z m 4.052,7.455 v 0 l -2.269,1.256 c -3.595,1.771 -7.541,2.713 -11.548,2.756 1.159,-0.876 2.443,-1.573 3.809,-2.067 3.133,-1.436 6.565,-2.103 10.008,-1.945 m 1.743,150.732 v 0 c -1.796,0.396 -3.633,0.572 -5.471,0.527 l -4.051,-0.324 c -1.297,-0.284 -2.472,-0.608 -3.647,-0.932 -0.514,-0.212 -1.042,-0.388 -1.58,-0.527 0.827,-0.32 1.706,-0.485 2.593,-0.486 2.9,-0.472 5.867,-0.334 8.711,0.405 1.125,0.255 2.204,0.678 3.201,1.256 z M 53.526,-62.278 c -0.362,0.316 -0.741,0.614 -1.135,0.891 -0.991,0.739 -1.901,1.582 -2.714,2.512 -1.632,1.824 -2.996,3.871 -4.052,6.078 -0.85,1.764 -1.516,3.611 -1.986,5.511 1.189,-0.457 2.318,-1.056 3.363,-1.783 3.297,-2.254 6.062,-5.199 8.104,-8.63 0.654,-0.934 1.198,-1.94 1.621,-2.999 0.304,-0.791 0.482,-1.625 0.527,-2.472 2.269,-0.283 4.416,-0.81 6.766,-1.134 0.752,-0.124 1.509,-0.205 2.27,-0.243 -1.608,0.62 -3.091,1.526 -4.377,2.674 -3.27,2.72 -5.888,6.14 -7.658,10.008 2.051,-0.551 4.035,-1.325 5.916,-2.309 2.419,-1.381 4.618,-3.115 6.524,-5.146 1.653,-1.506 2.906,-3.4 3.646,-5.511 1.905,0 3.769,0 5.511,0.365 0.892,0 1.621,0.283 2.512,0.324 -4.385,1.419 -8.314,3.978 -11.386,7.415 -0.841,0.814 -1.564,1.741 -2.147,2.755 0.682,0.137 1.384,0.137 2.066,0 1.169,-0.191 2.321,-0.476 3.444,-0.851 3.311,-1.039 6.393,-2.703 9.077,-4.902 1.345,-0.855 2.447,-2.041 3.201,-3.445 1.825,0.319 3.626,0.766 5.389,1.338 1.215,0.255 2.407,0.607 3.566,1.053 l -2.594,0.203 c -1.749,0.283 -3.471,0.717 -5.146,1.296 -2.045,0.77 -4.012,1.734 -5.875,2.877 l -2.593,2.31 v 0.202 c 1.101,0.337 2.256,0.46 3.404,0.365 4.362,-0.011 8.666,-0.994 12.601,-2.877 1.029,-0.415 2.007,-0.945 2.917,-1.58 0.386,-0.271 0.727,-0.599 1.013,-0.973 0.079,-0.027 0.165,-0.027 0.243,0 1.378,0.446 4.822,2.432 5.673,2.796 l 0.851,-1.418 c -1.016,-0.646 -2.072,-1.228 -3.16,-1.742 l -3.282,-1.459 -1.621,-0.608 c -0.173,-0.368 -0.322,-0.747 -0.446,-1.134 l -2.026,-3.039 c -1.052,-1.392 -2.262,-2.656 -3.606,-3.769 -1.046,-0.94 -2.156,-1.806 -3.323,-2.593 -1.508,-1.029 -3.179,-1.796 -4.943,-2.269 h -1.337 c 1.039,3.125 2.884,5.92 5.348,8.104 l 2.594,1.985 -5.268,-1.134 -2.35,-2.917 c -1.376,-1.558 -2.957,-2.921 -4.7,-4.052 -2.712,-2.163 -6.095,-3.31 -9.563,-3.242 1.291,2.822 3.286,5.264 5.794,7.091 l 2.472,1.499 0.689,0.365 h -6.443 c -1.361,-1.212 -2.841,-2.285 -4.416,-3.201 -3.705,-2.121 -7.888,-3.264 -12.156,-3.323 -0.682,0.038 -1.353,0.189 -1.985,0.446 2.484,3.164 5.946,5.415 9.846,6.402 0.691,0.227 1.395,0.416 2.107,0.567 l -7.172,1.459 -1.135,-0.81 -3.484,-1.743 c -2.803,-1.132 -5.775,-1.789 -8.793,-1.945 -1.546,-0.095 -3.097,0 -4.619,0.284 l -1.581,0.729 c 0.325,0.973 1.824,1.621 2.675,2.148 3.364,2.022 7.217,3.086 11.143,3.079 -1.28,0.385 -2.527,0.873 -3.728,1.459 -0.536,0.321 -1.107,0.58 -1.702,0.77 l -2.998,-1.094 -3.728,-0.648 c -1.547,-0.203 -3.113,-0.203 -4.66,0 -3.009,0.073 -5.962,0.835 -8.631,2.228 l -0.729,0.81 c 1.216,0.577 2.46,1.09 3.728,1.54 3.36,0.77 6.851,0.77 10.211,0 0.851,0 1.539,-0.364 2.269,-0.527 l -7.739,4.903 c -5.264,-1.363 -10.817,-1.094 -15.924,0.77 -1.072,0.299 -2.067,0.824 -2.918,1.54 -0.272,0.236 -0.493,0.526 -0.648,0.851 0.324,0 0.851,0.364 1.175,0.486 0.959,0.282 1.933,0.512 2.917,0.689 3.643,0.534 7.361,0.215 10.859,-0.932 l -4.376,4.052 c -2.279,-0.185 -4.569,-0.185 -6.847,0 -2.92,0.457 -5.742,1.402 -8.347,2.796 -1.54,0.77 -3.647,1.742 -4.052,3.525 1.17,0.283 2.363,0.459 3.565,0.527 2.762,0.066 5.511,-0.388 8.104,-1.338 l 4.052,-1.904 c -0.77,1.054 -1.742,2.107 -2.634,3.201 -0.489,0.517 -0.899,1.104 -1.215,1.742 0,0.284 -1.013,0 -1.945,0.244 -0.932,0.243 -3.039,0.364 -3.768,0.526 -3.002,0.807 -5.86,2.079 -8.469,3.769 -1.879,1.005 -3.406,2.56 -4.376,4.457 0.577,0.091 1.165,0.091 1.742,0 1.085,-0.005 2.168,-0.086 3.242,-0.243 1.003,-0.128 1.993,-0.345 2.958,-0.649 1.911,-0.633 3.736,-1.504 5.429,-2.593 l 2.472,-1.742 c -0.527,1.013 -1.134,1.945 -1.661,2.917 l -1.54,3.039 c -5.47,1.459 -14.83,7.537 -15.559,13.088 1.207,-0.075 2.396,-0.335 3.525,-0.77 l 0.932,-0.324 h 0.405 l 0.648,-0.284 c 1.838,-0.993 3.541,-2.218 5.065,-3.647 l 2.634,-2.674 c -0.405,1.175 -0.77,2.229 -1.135,3.404 l -1.013,3.363 c -0.442,0.374 -0.933,0.688 -1.458,0.932 -0.864,0.47 -1.702,0.984 -2.512,1.539 -1.979,1.552 -3.737,3.365 -5.228,5.39 -2.047,2.093 -3.27,4.856 -3.444,7.779 1.008,-0.364 1.996,-0.784 2.958,-1.256 2.675,-1.452 4.987,-3.488 6.767,-5.956 0.595,-0.697 1.112,-1.458 1.54,-2.269 -0.284,2.107 -0.527,4.052 -0.811,6.321 -1.225,0.86 -2.341,1.867 -3.322,2.998 L -3.444,1.459 C -4.103,2.22 -4.699,3.033 -5.227,3.89 -6.253,5.455 -7.109,7.126 -7.78,8.874 c -0.35,0.841 -0.634,1.708 -0.851,2.593 -0.299,1.334 -0.299,2.718 0,4.052 4.466,-2.604 7.738,-6.85 9.117,-11.832 0,2.229 0,4.457 0.203,6.686 -1.616,1.88 -2.978,3.965 -4.052,6.199 -0.992,1.864 -1.766,3.836 -2.31,5.876 -0.668,2.04 -0.668,4.24 0,6.28 v 0.203 c 1.416,-1.062 2.648,-2.349 3.647,-3.809 0.884,-1.275 1.644,-2.632 2.269,-4.052 0.365,-1.216 0.729,-2.472 1.135,-3.687 l 1.053,5.591 -1.215,1.621 c -1.257,1.719 -2.216,3.636 -2.837,5.673 -0.403,1.664 -0.674,3.358 -0.81,5.065 0.02,0.378 0.02,0.756 0,1.134 v 2.553 c 0,1.297 0.283,2.593 0.446,4.052 0.283,0 0.486,-0.365 0.729,-0.689 0.243,-0.324 1.013,-1.418 1.337,-1.864 0.772,-1.131 1.424,-2.34 1.945,-3.606 0.451,-1.026 0.83,-2.082 1.135,-3.16 0.39,-1.32 0.634,-2.679 0.729,-4.052 0.441,1.83 1.038,3.619 1.783,5.348 -1.856,3.783 -2.813,7.943 -2.796,12.156 -0.028,1.748 0.177,3.492 0.608,5.186 0.151,0.538 0.369,1.056 0.648,1.54 0.148,0.239 0.311,0.469 0.486,0.689 0.632,-0.684 1.152,-1.463 1.54,-2.31 0.993,-2.039 1.637,-4.23 1.904,-6.483 0.101,-1.835 0.101,-3.675 0,-5.51 l 2.472,4.254 c 0.243,0.365 0.486,0.77 0.77,1.135 0.284,0.364 -0.77,1.58 -0.77,2.39 0,0.811 -0.365,2.634 -0.608,4.052 -0.081,0.863 -0.081,1.731 0,2.594 0.05,2.755 0.515,5.487 1.378,8.103 0.257,0.629 0.583,1.227 0.972,1.783 l 0.73,0.689 c 0.697,-1.278 1.228,-2.639 1.58,-4.052 0.767,-3.309 0.44,-6.826 0,-10.211 l 3.201,4.538 c -1.298,5.492 -0.504,11.271 2.229,16.208 0.576,1.272 1.326,2.459 2.228,3.525 0.35,-1.235 0.607,-2.494 0.77,-3.768 0.304,-3.777 -0.136,-7.576 -1.297,-11.183 0.973,1.053 1.986,2.107 2.958,3.201 l 1.216,1.256 v 2.309 c -0.048,1.62 0.102,3.239 0.446,4.822 0.819,3.198 2.19,6.229 4.051,8.955 l 2.27,2.836 c 0,-0.972 0.324,-1.904 0.364,-2.917 0.113,-2.667 -0.201,-5.334 -0.932,-7.901 -0.445,-1.256 -0.932,-2.553 -1.377,-4.052 l 3.444,2.796 c 0.012,2.78 0.563,5.532 1.621,8.103 1.099,2.574 2.604,4.954 4.457,7.051 0.927,1.136 1.989,2.156 3.16,3.039 0.02,-1.726 -0.129,-3.45 -0.446,-5.146 v -1.054 c -0.226,-1.081 -0.552,-2.139 -0.972,-3.16 -0.608,-1.58 -1.459,-2.918 -2.229,-4.498 l 4.458,2.756 c 0.202,0.769 0.324,1.499 0.486,2.269 0.141,0.679 0.344,1.343 0.608,1.985 2.177,5.213 5.988,9.578 10.859,12.439 -0.071,-1.383 -0.344,-2.748 -0.811,-4.051 -0.625,-2.05 -1.51,-4.011 -2.633,-5.835 -0.73,-1.013 -1.419,-2.026 -2.148,-2.999 l -0.284,-0.364 5.552,2.552 c 0.354,1.673 1.013,3.266 1.945,4.701 1.634,2.64 3.751,4.949 6.239,6.807 l 0.77,0.527 c 0.811,0.567 2.026,1.377 3.039,1.945 0.49,0.316 1.022,0.561 1.581,0.729 -0.192,-0.953 -0.463,-1.888 -0.811,-2.796 -0.934,-2.578 -2.305,-4.977 -4.052,-7.091 -0.648,-0.81 -1.337,-1.418 -2.026,-2.269 l 4.741,1.459 c 1.124,2.237 2.586,4.287 4.336,6.078 2.435,2.654 5.423,4.742 8.752,6.118 h 0.81 c 0.522,0.104 1.059,0.104 1.58,0 -0.349,-0.962 -0.768,-1.896 -1.256,-2.796 -0.459,-0.856 -0.974,-1.681 -1.539,-2.471 -1.042,-1.339 -2.239,-2.55 -3.566,-3.607 -0.741,-0.679 -1.573,-1.252 -2.472,-1.701 0.689,0 1.621,0.324 2.35,0.445 0.636,-0.002 1.267,0.108 1.864,0.324 1.709,0.858 3.501,1.537 5.349,2.026 2.092,0.433 4.225,0.637 6.361,0.608 1.199,0.12 2.407,0.12 3.607,0 0.35,0.036 0.703,0.036 1.053,0 0.574,-0.102 1.133,-0.279 1.661,-0.527 h 0.405 c 0.406,-0.202 0.568,-0.445 1.013,-0.648 -0.881,-0.754 -1.899,-1.332 -2.998,-1.702 -3.677,-1.567 -7.708,-2.113 -11.67,-1.58 -1.013,0 -1.904,0.243 -2.957,0.446 l -1.54,-0.649 c -0.442,0.082 -0.895,0.082 -1.337,0 -1.378,0 -2.958,-0.648 -4.052,-0.769 l 2.998,-0.284 c 3.636,-0.135 7.102,-1.573 9.765,-4.052 -1.349,-0.741 -2.841,-1.183 -4.376,-1.297 -4.726,-0.428 -9.479,0.456 -13.736,2.553 -0.67,0.299 -1.308,0.666 -1.904,1.094 -1.385,-0.28 -2.742,-0.686 -4.052,-1.215 -0.974,-0.304 -1.922,-0.684 -2.836,-1.135 h 2.309 2.31 c 1.134,0 2.593,-0.284 4.052,-0.527 1.493,-0.25 2.95,-0.685 4.335,-1.296 l 0.932,-0.568 c 0.445,-0.229 0.801,-0.6 1.013,-1.053 -0.729,-0.365 -1.459,-0.648 -2.269,-0.973 -0.943,-0.3 -1.904,-0.543 -2.877,-0.729 -1.453,-0.181 -2.923,-0.181 -4.376,0 -3.788,0.178 -7.492,1.173 -10.859,2.917 l -4.984,-2.512 h 2.107 4.619 c 1.931,-0.192 3.833,-0.6 5.673,-1.215 0.606,-0.313 1.165,-0.708 1.661,-1.175 l -1.134,-0.649 c -0.793,-0.342 -1.605,-0.64 -2.431,-0.891 -0.852,-0.264 -1.718,-0.48 -2.594,-0.648 -3.145,-0.439 -6.344,-0.302 -9.441,0.405 l -4.052,1.215 -3.282,-2.147 c -0.708,-0.42 -1.373,-0.909 -1.985,-1.459 4.088,1.134 8.373,1.369 12.561,0.689 1.251,-0.146 2.419,-0.702 3.322,-1.58 C 52.632,71.1 51.64,70.536 50.568,70.179 48.013,69.06 45.254,68.481 42.464,68.478 h -1.54 c -2.372,0.161 -4.721,0.568 -7.009,1.215 L 31.727,67.87 29.498,65.884 c 0.77,0.243 1.985,0.689 3.404,1.054 2.645,0.677 5.375,0.963 8.104,0.851 0.971,-0.018 1.932,-0.21 2.836,-0.567 0.294,-0.101 0.568,-0.252 0.81,-0.446 -2.218,-2.018 -4.93,-3.416 -7.86,-4.052 -3.666,-0.968 -7.504,-1.093 -11.224,-0.365 -0.811,-0.81 -1.743,-1.742 -2.553,-2.674 -0.81,-0.932 -1.499,-1.742 -2.148,-2.593 1.175,0.445 2.229,1.053 3.566,1.58 3.318,1.256 6.895,1.673 10.414,1.216 0.638,-0.071 1.257,-0.264 1.823,-0.568 C 36.097,58.524 35.399,57.826 34.603,57.254 29.771,53.801 23.869,52.178 17.95,52.675 16.491,50.487 14.79,48.623 13.533,46.07 l 2.877,1.783 c 1.404,0.811 2.901,1.451 4.457,1.905 2.68,1.169 5.67,1.426 8.509,0.729 -1.004,-1.446 -2.251,-2.708 -3.687,-3.728 -1.657,-1.245 -3.504,-2.217 -5.47,-2.877 -1.424,-0.511 -2.888,-0.904 -4.376,-1.175 -1.468,-0.29 -2.961,-0.44 -4.457,-0.445 C 10.66,41.138 10.024,39.959 9.482,38.736 8.914,37.521 8.347,36.427 8.185,35.9 c 0.729,0.527 1.499,1.256 2.35,1.864 2.231,1.577 4.672,2.832 7.253,3.728 1.843,0.772 3.877,0.97 5.835,0.567 C 21.162,38.051 17.356,35.05 12.885,33.59 L 8.59,32.415 6.483,32.213 c 0,-0.284 -0.486,-1.378 -0.81,-2.593 -0.608,-2.269 -1.337,-5.187 -1.54,-6.038 l 2.35,2.796 c 0.961,1.083 2.034,2.061 3.201,2.917 2.291,1.843 4.92,3.22 7.739,4.052 h 1.581 C 18.905,32.748 18.7,32.171 18.396,31.646 17.869,30.673 17.18,29.782 16.694,29.012 14.132,25.687 10.735,23.1 6.848,21.516 5.802,21.035 4.717,20.642 3.606,20.341 3.247,18.808 3.003,17.25 2.877,15.681 c 0,-1.945 -0.446,-4.052 -0.486,-5.187 h 0.04 c 0.341,1.025 0.803,2.004 1.378,2.918 1.795,2.973 4.132,5.585 6.888,7.699 1.174,1.146 2.703,1.86 4.336,2.026 C 14.978,22.298 14.829,21.469 14.587,20.665 13.621,17.861 12.075,15.293 10.049,13.128 8.635,11.61 7.059,10.251 5.349,9.076 4.435,8.391 3.458,7.794 2.431,7.293 V 1.58 C 2.415,0.226 2.497,-1.129 2.674,-2.472 2.88,-1.31 3.234,-0.18 3.728,0.891 5.32,4.9 7.881,8.45 11.183,11.224 c 0.44,0.378 0.931,0.691 1.459,0.932 h 0.891 C 13.301,7.236 11.285,2.569 7.861,-0.972 7.196,-1.763 6.479,-2.508 5.713,-3.201 L 2.917,-5.43 v -0.972 -1.499 c 0.406,-2.067 0.851,-4.052 1.256,-6.2 l 0.851,4.052 c 0.485,1.526 1.109,3.005 1.864,4.417 0.405,0.81 0.851,1.621 1.337,2.431 0.151,0.199 0.313,0.388 0.487,0.567 1.04,1.801 2.631,3.222 4.538,4.052 0.087,-0.604 0.087,-1.219 0,-1.823 0.021,-1.367 -0.142,-2.73 -0.486,-4.052 -0.844,-2.927 -2.217,-5.673 -4.052,-8.104 -0.649,-0.891 -1.175,-1.499 -2.026,-2.512 -0.324,-0.405 -0.73,-0.77 -1.135,-1.216 -0.241,-0.25 -0.513,-0.468 -0.81,-0.648 0.406,-1.471 0.893,-2.918 1.458,-4.336 0.509,-1.646 1.188,-3.235 2.026,-4.74 v 2.998 1.945 c 0.548,2.299 1.322,4.539 2.31,6.686 0.598,2.394 2.036,4.493 4.052,5.915 0.466,-1.414 0.725,-2.887 0.77,-4.376 0.042,-4.255 -1.034,-8.446 -3.12,-12.155 l -2.148,-3.364 c 0.772,-1.529 1.624,-3.017 2.553,-4.457 0.605,-1.019 1.282,-1.994 2.026,-2.917 h -0.081 c -0.299,1.671 -0.435,3.367 -0.405,5.065 -0.041,0.539 -0.041,1.081 0,1.621 0,1.215 0.364,2.917 0.648,4.376 0.349,1.541 0.908,3.027 1.661,4.416 0.349,0.753 0.895,1.398 1.581,1.864 1.473,-3.403 1.965,-7.151 1.418,-10.818 -0.457,-3.223 -1.486,-6.338 -3.039,-9.198 1.909,-2.344 3.995,-4.539 6.24,-6.564 -2.14,5.563 -2.354,11.683 -0.608,17.382 0.256,0.588 0.597,1.134 1.013,1.621 l 0.324,0.284 c 2.641,-4.465 3.495,-9.762 2.391,-14.83 -0.211,-1.289 -0.509,-2.561 -0.892,-3.809 -0.283,-0.851 -0.526,-1.378 -0.769,-2.188 1.016,-1.048 2.128,-1.997 3.322,-2.837 1.256,-0.972 2.512,-1.944 3.444,-2.512 -0.364,0.811 -0.729,1.459 -1.053,2.188 -0.565,1.305 -0.999,2.662 -1.297,4.052 -0.659,3.009 -0.755,6.114 -0.284,9.158 0,0.972 0.365,1.945 0.568,2.877 0.648,-0.973 1.337,-1.945 1.985,-2.958 2.186,-4.147 3.326,-8.765 3.323,-13.453 -0.014,-1.204 -0.177,-2.402 -0.486,-3.566 l 8.103,-4.416 -2.431,3.079 c -1.135,1.799 -2.008,3.75 -2.593,5.795 -0.836,2.522 -1.261,5.163 -1.256,7.82 3.124,-2.241 5.609,-5.258 7.212,-8.752 0.487,-1.013 0.851,-2.026 1.297,-3.12 0.446,-1.094 0.527,-1.337 0.81,-2.35 0.419,-1.308 0.53,-2.695 0.324,-4.052 l 3.283,-1.256 4.902,-1.459 z" /></g><g
           transform="translate(106.8926,170.7483)"
           id="g76"><path
             id="path78"
             style="fill:#1f4889;fill-opacity:1;fill-rule:nonzero;stroke:none"
             d="m 0,0 v -5.186 h -1.337 c -0.042,0.975 -0.206,1.941 -0.486,2.876 -0.159,0.425 -0.442,0.791 -0.811,1.054 -0.517,0.26 -1.06,0.464 -1.621,0.608 h -0.202 c -0.446,-3.809 -0.851,-7.618 -1.297,-11.427 0.475,-0.425 1.108,-0.631 1.743,-0.567 v -1.094 c -0.829,0.047 -1.654,0.142 -2.472,0.284 -1.661,0.202 -3.566,0.445 -4.052,0.445 v 1.094 h 1.094 c 0.77,0.406 0.527,2.067 0.729,3.12 l 0.973,8.55 c -0.693,0.083 -1.394,-0.029 -2.026,-0.324 -1.105,-0.805 -1.813,-2.044 -1.945,-3.404 l -1.216,0.203 c 0.284,1.661 0.608,3.363 0.932,5.065 z" /></g><g
           transform="translate(102.8812,65.5602)"
           id="g80"><path
             id="path82"
             style="fill:#1f4889;fill-opacity:1;fill-rule:nonzero;stroke:none"
             d="m 0,0 c 0.082,-0.415 0.082,-0.841 0,-1.256 -0.689,-4.376 -6.24,-6.119 -10.332,-6.159 -1.528,0.046 -3.047,0.236 -4.539,0.567 l -1.215,3.647 1.094,0.405 c 0.468,-0.397 0.889,-0.845 1.256,-1.337 0.369,-0.355 0.777,-0.667 1.216,-0.932 2.795,-1.621 7.455,-0.81 8.103,2.188 0.12,0.75 -0.008,1.518 -0.364,2.188 -1.352,1.799 -3.667,2.587 -5.835,1.986 -0.941,-0.256 -1.862,-0.581 -2.755,-0.973 h -0.811 V 3.93 c 0.079,2.056 0.011,4.114 -0.202,6.159 l 0.202,0.203 h 6.564 6.443 c 0.12,-0.616 0.12,-1.249 0,-1.864 -0.042,-0.391 -0.042,-0.784 0,-1.175 H -11.913 V 3.201 l 1.986,0.527 1.661,0.283 c 0.621,0.041 1.243,0.041 1.864,0 C -3.404,4.052 -0.405,2.755 0,0" /></g><g
           transform="translate(101.2604,133.5111)"
           id="g84"><path
             id="path86"
             style="fill:#1f4889;fill-opacity:1;fill-rule:nonzero;stroke:none"
             d="m 0,0 v -4.619 -16.208 c 0.358,-2.314 0.135,-4.681 -0.648,-6.888 -0.499,-0.659 -1.173,-1.164 -1.945,-1.459 -1.173,-0.241 -2.37,-0.336 -3.566,-0.284 -1.357,-0.104 -2.722,-0.008 -4.052,0.284 -1.702,0.689 -2.512,2.553 -3.485,4.052 -1.539,2.188 -2.998,4.498 -4.457,6.767 l -2.431,3.687 v -3.809 c 0,-0.324 0.527,-0.648 0.932,-1.053 1.013,-1.054 2.553,-2.269 3.201,-3.08 -0.283,-0.405 -0.567,-0.851 -0.891,-1.256 -0.73,0.851 -2.715,2.512 -3.85,3.728 -0.364,0.365 -0.729,0.608 -0.81,0.891 v 9.198 h 0.405 l 8.104,-12.156 c 0.648,-0.972 1.54,-2.309 2.35,-3.403 0.428,-0.771 1.023,-1.436 1.743,-1.945 0.864,-0.331 1.793,-0.456 2.714,-0.365 0.903,-0.084 1.812,-0.084 2.715,0 0.567,0.102 1.106,0.323 1.58,0.649 1.338,1.012 0.932,4.051 0.932,6.483 v 15.518 4.296 c 0.038,0.659 -0.102,1.317 -0.405,1.904 -0.405,0.516 -1.007,0.839 -1.661,0.891 -0.769,0.064 -1.541,0.064 -2.31,0 h -3.687 c 0.365,0.527 0.729,1.013 1.053,1.54 h 5.795 C -1.829,3.325 -1.03,2.963 -0.446,2.35 -0.175,2.071 0.008,1.719 0.081,1.337 0.083,0.89 0.056,0.443 0,0" /></g><g
           transform="translate(98.4646,132.4576)"
           id="g88"><path
             id="path90"
             style="fill:#1f4889;fill-opacity:1;fill-rule:nonzero;stroke:none"
             d="m 0,0 v -3.849 -15.438 c 0,-1.743 0.446,-5.146 -0.608,-5.916 -0.873,-0.353 -1.815,-0.506 -2.755,-0.446 -0.955,-0.085 -1.917,0.011 -2.836,0.284 -0.605,0.502 -1.102,1.123 -1.459,1.823 l -7.901,11.427 -1.905,2.917 c -0.608,0.892 -1.053,1.661 -1.58,1.905 -0.527,0.243 -0.527,0 -0.81,0 -0.239,-0.331 -0.418,-0.702 -0.527,-1.094 v -5.633 -4.619 c 0.491,-0.624 1.033,-1.207 1.621,-1.742 1.337,-1.337 3.039,-3.039 3.484,-3.363 l -0.972,-1.54 c -2.577,-0.178 -5.163,-0.178 -7.739,0 -0.356,0.026 -0.689,0.185 -0.932,0.446 -0.118,1.348 -0.118,2.704 0,4.052 -0.071,1.201 -0.071,2.405 0,3.606 v 8.874 c 0.115,1.983 0.115,3.972 0,5.956 -0.09,0.415 -0.319,0.786 -0.649,1.053 -0.526,0.608 -1.499,0.608 -3.039,0.608 v 3.08 h 6.929 c 1.258,0.03 2.513,-0.12 3.728,-0.446 1.175,-0.486 1.742,-1.904 2.431,-2.877 1.661,-2.431 3.363,-4.822 5.065,-7.212 l 4.052,-5.957 c 0.405,-0.607 0.891,-2.066 2.147,-1.62 0.365,0 0.73,0.324 0.77,0.81 0.096,1.498 0.096,3 0,4.498 v 4.943 c -0.627,0.945 -1.376,1.804 -2.228,2.553 -0.949,1.024 -1.964,1.985 -3.039,2.876 l 0.567,0.892 0.811,1.256 h 1.944 4.052 C -1.13,2.089 -0.892,2.005 -0.689,1.864 -0.548,1.763 -0.413,1.655 -0.284,1.54 0.001,1.08 0.103,0.531 0,0" /></g><g
           transform="translate(95.6283,6.8478)"
           id="g92"><path
             id="path94"
             style="fill:#1f4889;fill-opacity:1;fill-rule:nonzero;stroke:none"
             d="m 0,0 0.243,-0.891 -5.956,-1.824 c 0,0.324 0,0.649 -0.284,1.013 0.527,0 1.094,0.284 1.297,0.73 0.061,0.442 -0.009,0.893 -0.203,1.296 -0.243,0.608 -0.486,1.297 -0.608,1.702 -0.81,2.553 -1.661,5.105 -2.471,7.699 -0.527,0.242 -1.134,0.242 -1.662,0 l -0.243,1.053 5.876,1.905 h 0.202 c 0.045,-0.298 0.141,-0.586 0.284,-0.851 h -0.243 c -0.446,-0.069 -0.85,-0.3 -1.135,-0.649 0.138,-1.109 0.41,-2.197 0.811,-3.241 0.688,-2.107 1.499,-4.619 1.742,-5.268 0.243,-0.648 0.324,-2.026 1.013,-2.39 0.443,-0.076 0.898,-0.004 1.296,0.202 z" /></g><g
           transform="translate(94.8584,157.9442)"
           id="g96"><path
             id="path98"
             style="fill:#1f4889;fill-opacity:1;fill-rule:nonzero;stroke:none"
             d="m 0,0 h -1.094 -3.728 -0.527 -1.053 v 1.094 h 0.891 c 0.266,0.029 0.525,0.098 0.77,0.203 0.26,1.06 0.328,2.157 0.203,3.241 V 9.4 c 0.033,1.154 -0.048,2.307 -0.243,3.445 -0.483,0.088 -0.977,0.088 -1.459,0 v 1.094 h 6.199 v -1.054 h -0.931 c -0.187,0.045 -0.381,0.045 -0.568,0 V 12.075 10.049 6.402 C -1.748,4.664 -1.721,2.906 -1.459,1.175 H -0.932 0 C -0.041,0.689 -0.041,0.324 0,0" /></g><g
           transform="translate(93.7238,121.4769)"
           id="g100"><path
             id="path102"
             style="fill:#1f4889;fill-opacity:1;fill-rule:nonzero;stroke:none"
             d="m 0,0 v -3.079 h -0.486 c -0.73,0.85 -2.148,3.201 -2.634,3.849 -2.755,4.052 -5.349,7.78 -8.104,11.71 l -0.689,0.851 c -1.215,0.932 -2.431,0.932 -5.065,0.932 h -4.335 -2.674 c -0.203,0 0,1.013 0,1.458 h 7.05 c 1.76,0.146 3.532,-0.032 5.227,-0.526 1.58,-0.77 2.31,-2.512 3.282,-4.052 l 2.229,-3.161 4.7,-6.847 c 0.087,0.794 0.087,1.596 0,2.39 -0.099,0.377 -0.235,0.744 -0.405,1.094 l -3.728,3.647 0.729,1.094 0.324,0.243 4.255,-4.417 c 0.086,-0.577 0.086,-1.164 0,-1.742 C 0,2.229 0,0.689 0,0" /></g><g
           transform="translate(89.3478,3.8899)"
           id="g104"><path
             id="path106"
             style="fill:#1f4889;fill-opacity:1;fill-rule:nonzero;stroke:none"
             d="m 0,0 v 0 l -11.345,-2.553 h -0.325 c -0.565,1.593 -1.038,3.216 -1.418,4.863 l 1.135,0.324 c 0.324,-0.73 0.567,-1.135 0.77,-1.58 0.202,-0.446 0.851,-1.662 2.512,-1.783 0.351,-0.019 0.702,-0.019 1.053,0 -0.648,2.795 -1.256,5.591 -1.863,8.387 -0.244,0.932 -0.244,2.512 -0.973,2.958 -0.514,0.162 -1.066,0.162 -1.58,0 v 1.094 l 6.604,1.378 c 0,-0.324 0,-0.649 0.203,-0.973 -0.598,-0.059 -1.163,-0.3 -1.621,-0.689 0.008,-1.025 0.2,-2.041 0.568,-2.998 0.607,-2.796 1.175,-5.551 1.782,-8.347 3.039,0.324 2.715,3.08 2.675,4.822 h 1.134 C -0.486,3.363 -0.243,1.661 0,0" /></g><g
           transform="translate(72.5323,160.2943)"
           id="g108"><path
             id="path110"
             style="fill:#1f4889;fill-opacity:1;fill-rule:nonzero;stroke:none"
             d="M 0,0 C -0.36,0.609 -0.781,1.179 -1.256,1.702 -1.904,2.593 -2.593,3.606 -2.917,3.93 l -0.325,-4.902 z m 13.331,5.186 c 0.593,1.569 0.158,3.342 -1.094,4.458 -0.502,0.293 -1.083,0.421 -1.661,0.364 L 9.238,9.725 c 0.406,-1.945 0.851,-4.052 1.256,-5.876 1.459,0.081 2.27,0.446 2.837,1.337 m 3.201,2.715 C 16.689,6.95 16.548,5.973 16.127,5.105 15.253,4.039 14.035,3.308 12.683,3.039 12.075,2.836 11.548,2.755 10.9,2.593 c 0.324,-1.377 0.607,-2.715 0.932,-4.052 0.486,-0.324 1.053,0 1.742,0 V -2.512 L 8.712,-3.768 7.05,-3.971 1.702,-5.632 c 0,0.324 0,0.608 -0.284,0.932 l 1.297,0.648 v 0.365 l -1.58,2.471 c -0.574,0.05 -1.149,-0.063 -1.662,-0.324 -0.932,-0.283 -1.945,-0.648 -2.633,-0.81 -0.127,-1.023 -0.127,-2.057 0,-3.08 h 0.283 c 0.486,-0.243 1.094,0 1.54,0 0.075,-0.369 0.17,-0.734 0.284,-1.094 -1.216,0 -4.296,-1.661 -5.146,-1.337 -0.68,-0.827 -1.558,-1.469 -2.553,-1.864 -3.282,-1.541 -7.191,-0.13 -8.732,3.152 -0.137,0.291 -0.252,0.592 -0.344,0.9 -0.676,1.339 -0.931,2.85 -0.73,4.336 0.644,3.134 3.328,5.435 6.524,5.592 l 0.486,0.405 c 0.446,0.202 0.567,0.608 0.972,0.891 L -8.266,0.972 -9.36,0.446 c -0.729,0.689 -1.216,1.58 -2.188,2.066 -0.862,0.323 -1.812,0.323 -2.674,0 -0.808,-0.267 -1.46,-0.874 -1.783,-1.661 -0.357,-2.086 0.092,-4.229 1.256,-5.997 0.74,-1.532 2.026,-2.732 3.606,-3.363 2.512,-0.77 4.579,1.58 4.579,4.052 v 0.324 c 0.02,0.189 0.02,0.379 0,0.567 h 1.215 c 0.04,-0.674 0.04,-1.351 0,-2.026 -0.01,-0.39 -0.092,-0.774 -0.243,-1.134 0.755,1.532 1.063,3.244 0.892,4.943 0,3.282 0.486,7.253 0.608,8.914 L -2.512,7.78 3.525,-0.324 4.7,-2.026 C 5.019,-2.52 5.432,-2.947 5.916,-3.282 h 1.053 c 0.459,0.018 0.911,0.114 1.337,0.284 0.487,0.81 0,2.228 -0.324,3.201 L 6.159,8.306 H 5.916 c -0.417,0.059 -0.84,0.059 -1.256,0 0,0.365 0,0.73 -0.203,1.054 l 7.01,1.459 c 1.024,0.109 2.06,-0.002 3.039,-0.324 1.049,-0.494 1.801,-1.456 2.026,-2.594" /></g><g
           transform="translate(79.5016,67.5052)"
           id="g112"><path
             id="path114"
             style="fill:#1f4889;fill-opacity:1;fill-rule:nonzero;stroke:none"
             d="M 0,0 C 1.418,0.446 1.783,2.877 1.216,4.741 0.739,6.519 -1.026,7.631 -2.836,7.293 L -3.647,7.05 C -4.1,6.884 -4.494,6.588 -4.781,6.199 -5.273,5.472 -5.514,4.605 -5.47,3.728 -5.494,2.716 -5.196,1.723 -4.619,0.891 -3.427,-0.361 -1.572,-0.719 0,0 M 6.199,2.593 C 6.38,0.864 6.158,-0.883 5.551,-2.512 4.856,-4.154 3.702,-5.561 2.229,-6.564 L 1.661,-6.969 c -1.124,-0.816 -2.387,-1.42 -3.727,-1.783 -1.577,-0.539 -3.238,-0.786 -4.903,-0.73 -0.568,0 -1.013,0.527 -1.581,0.73 l 0.284,0.324 c 0.537,0.084 1.084,0.084 1.621,0 0.659,-0.085 1.326,-0.085 1.985,0 2.289,0.397 4.224,1.92 5.146,4.052 0.343,0.899 0.628,1.819 0.851,2.755 v 0.365 l -2.755,-1.702 c -0.832,-0.224 -1.691,-0.334 -2.553,-0.324 -2.791,-0.402 -5.379,1.535 -5.781,4.326 -0.11,0.764 -0.045,1.543 0.189,2.279 0.653,2.168 2.415,3.822 4.62,4.335 l 2.309,0.405 C -1.176,8.176 0.29,8.039 1.702,7.658 2.407,7.414 3.075,7.073 3.687,6.645 4.481,6.043 5.143,5.285 5.632,4.417 5.919,3.844 6.11,3.228 6.199,2.593" /></g><g
           transform="translate(81.2439,105.7554)"
           id="g116"><path
             id="path118"
             style="fill:#1f4889;fill-opacity:1;fill-rule:nonzero;stroke:none"
             d="m 0,0 v 0 l -0.81,-1.499 h -3.809 c -1.254,-0.103 -2.515,-0.103 -3.769,0 -0.619,0.085 -1.176,0.422 -1.539,0.932 -0.893,2.292 -1.173,4.778 -0.811,7.212 v 16.208 h -1.013 v 1.661 c 1.135,0 1.621,0 2.026,-0.202 0.406,-0.203 0.325,-0.284 0.325,-0.325 0.316,-0.697 0.428,-1.47 0.324,-2.228 V 18.315 4.66 1.418 c 0.148,-0.517 0.479,-0.964 0.932,-1.256 0.999,-0.291 2.039,-0.414 3.079,-0.365 z" /></g><g
           transform="translate(76.8273,0.932)"
           id="g120"><path
             id="path122"
             style="fill:#1f4889;fill-opacity:1;fill-rule:nonzero;stroke:none"
             d="m 0,0 -6.28,-0.324 c 0.018,0.351 0.018,0.702 0,1.053 l 1.175,0.284 h 0.202 C -5.037,1.619 -5.331,2.179 -5.754,2.634 L -6.969,4.376 C -7.268,4.79 -7.539,5.223 -7.78,5.673 -8.232,4.628 -8.774,3.625 -9.4,2.674 -9.765,2.111 -10,1.475 -10.089,0.81 -9.615,0.451 -9.014,0.304 -8.428,0.405 v -1.094 l -5.308,-0.243 c -0.021,0.337 -0.021,0.676 0,1.013 l 1.459,0.527 c 1.046,1.359 1.968,2.81 2.755,4.335 0.324,0.649 0.648,1.094 0.851,1.459 0.084,0.126 0.152,0.262 0.202,0.405 0.079,0.646 0.079,1.299 0,1.945 -0.057,1.1 -0.179,2.196 -0.364,3.282 -0.546,0.247 -1.15,0.331 -1.743,0.243 v 1.054 l 6.605,0.365 c -0.02,-0.365 -0.02,-0.73 0,-1.095 H -5.47 c -0.113,-0.173 -0.195,-0.365 -0.243,-0.567 v -1.621 c -0.068,-0.7 -0.068,-1.406 0,-2.107 -0.036,-0.214 -0.036,-0.433 0,-0.648 L -5.146,6.929 -3.687,4.822 C -2.87,3.54 -1.977,2.309 -1.013,1.135 h 0.527 0.608 C 0.104,0.754 0.064,0.375 0,0" /></g><g
           transform="translate(68.1562,133.7947)"
           id="g124"><path
             id="path126"
             style="fill:#1f4889;fill-opacity:1;fill-rule:nonzero;stroke:none"
             d="M 0,0 V -3.161 -6.726 L -1.661,-7.78 c -0.148,0.886 -0.148,1.789 0,2.675 0.295,2.189 0.101,4.417 -0.568,6.523 -0.445,0.567 -2.269,0.689 -4.051,0.689 -1.35,0.075 -2.703,0.075 -4.052,0 h -1.216 c -0.989,-0.036 -1.97,-0.2 -2.917,-0.486 -6.006,-1.77 -10.304,-7.051 -10.819,-13.291 -0.17,-1.448 -0.088,-2.915 0.243,-4.335 0.854,-5.808 5.045,-10.571 10.697,-12.156 1.823,-0.483 3.725,-0.593 5.592,-0.324 l 1.621,0.284 c 2.206,0.446 4.267,1.435 5.996,2.876 0.568,-0.243 0.811,-0.932 1.135,-1.337 -0.775,-0.79 -1.716,-1.399 -2.755,-1.783 -2.948,-1.376 -6.195,-1.989 -9.441,-1.782 -0.752,0.058 -1.498,0.18 -2.229,0.364 -3.969,1.041 -7.443,3.452 -9.806,6.808 -5.017,7.855 -3.086,18.254 4.417,23.784 0.803,0.588 1.674,1.078 2.593,1.459 0.77,0.284 1.581,0.689 2.35,0.891 0.77,0.203 2.148,0.325 3.485,0.568 h 2.796 c 3.485,0 7.496,0.283 8.387,-2.269 C -0.069,0.931 -0.001,0.467 0,0" /></g><g
           transform="translate(67.8725,59.5634)"
           id="g128"><path
             id="path130"
             style="fill:#1f4889;fill-opacity:1;fill-rule:nonzero;stroke:none"
             d="m 0,0 c 0.243,0 0.243,-0.486 0.203,-0.932 h -14.101 v 0.851 c 1.134,0.527 4.052,0 4.538,0.891 0.268,0.655 0.379,1.362 0.324,2.067 v 8.59 2.431 c -1.134,0.486 -4.335,-1.378 -5.754,-1.54 0,0.568 -0.283,1.094 -0.405,1.621 v 0.203 c 1.109,0.151 2.206,0.382 3.282,0.689 l 4.255,1.053 3.606,0.932 0.567,-0.203 C -3.768,13.898 -3.768,10.94 -3.849,7.82 V 4.295 C -3.647,3.12 -4.173,1.418 -3.647,0.567 -3.12,-0.284 -0.972,0.365 0,0" /></g><g
           transform="translate(66.6164,109.4021)"
           id="g132"><path
             id="path134"
             style="fill:#1f4889;fill-opacity:1;fill-rule:nonzero;stroke:none"
             d="m 0,0 c -0.848,-0.716 -1.805,-1.291 -2.836,-1.702 -1.108,-0.652 -2.334,-1.079 -3.607,-1.256 -2.324,-0.376 -4.705,-0.167 -6.928,0.608 -1.759,0.629 -3.372,1.607 -4.741,2.877 -1.684,1.614 -2.889,3.661 -3.485,5.916 -0.295,1.241 -0.512,2.499 -0.648,3.768 -0.224,1.671 -0.086,3.371 0.405,4.984 1.327,4.242 4.521,7.645 8.671,9.238 l 1.662,0.446 1.823,0.324 h 3.768 c 1.364,0.111 2.737,-0.026 4.052,-0.405 0.283,-0.231 0.458,-0.568 0.486,-0.932 0.163,-2.699 0.163,-5.405 0,-8.104 l -2.917,-1.864 c -1.054,1.297 -1.904,2.836 -2.917,4.295 -0.528,0.935 -1.214,1.771 -2.026,2.472 -0.584,0.438 -1.297,0.666 -2.026,0.648 -1.303,0.002 -2.575,-0.394 -3.647,-1.134 -0.971,-0.653 -1.72,-1.586 -2.148,-2.675 -0.413,-1.273 -0.17,-2.668 0.649,-3.727 0.607,-1.054 1.418,-2.27 1.904,-2.958 0.486,-0.689 1.58,-2.715 2.755,-4.295 0.873,-1.44 1.877,-2.797 2.999,-4.052 0.554,-0.517 1.242,-0.868 1.985,-1.013 1.55,-0.109 3.08,0.401 4.255,1.418 z" /></g><g
           transform="translate(62.605,114.7912)"
           id="g136"><path
             id="path138"
             style="fill:#1f4889;fill-opacity:1;fill-rule:nonzero;stroke:none"
             d="m 0,0 0.932,-1.216 c -1.11,-1.286 -2.966,-1.623 -4.457,-0.81 -0.834,0.8 -1.532,1.731 -2.067,2.755 -1.58,2.229 -3.079,4.539 -4.578,6.889 -0.527,0.851 -1.783,2.107 -1.662,3.484 0,2.188 1.945,2.837 3.607,3.606 0.805,0.086 1.619,-0.055 2.35,-0.405 0.75,-0.774 1.428,-1.615 2.026,-2.512 0.977,-1.3 1.884,-2.653 2.714,-4.052 L -2.35,7.01 -6.767,13.088 c -1.134,0.851 -2.917,-0.527 -3.282,-1.378 -0.364,-0.851 1.418,-3.201 1.905,-4.052 L -4.092,1.499 C -3.606,0.77 -3.12,-0.527 -2.229,-0.891 -1.337,-1.256 -0.527,-0.365 0,0" /></g></g></g></g></svg>