<svg height="315.288008" viewBox="0 0 253 251" width="317.170325" xmlns="http://www.w3.org/2000/svg"><g fill="#004b9c" fill-rule="evenodd"><path d="m121.714844 69.230469c3.601562-.355469 7.207031-.355469 10.808594 0l2.472656-6.976563h.113281c5.800781.714844 11.464844 2.261719 16.828125 4.523438l.109375.027344-1.347656 7.308593c3.273437 1.519531 6.410156 3.3125 9.351562 5.40625l5.609375-4.828125.082032.058594c4.539062 3.445312 8.609374 7.5 12.074218 12.023438l.082032.140624h-5.035157l.140625-.167968c-2.117187-2.480469-4.402344-4.796875-6.875-6.894532l-5.554687 4.769532-.085938-.082032c-4.316406-3.5-9.183593-6.316406-14.351562-8.328124l-.113281-.027344 1.347656-7.226563c-3.050782-1.105469-6.214844-1.933593-9.402344-2.511719l-2.449219 6.925782-.109375-.03125c-2.75-.441406-5.527344-.660156-8.304687-.660156-2.777344 0-5.554688.21875-8.304688.660156l-.109375.03125-2.449218-6.925782c-3.191407.578126-6.351563 1.433594-9.40625 2.511719l1.347656 7.226563-.109375.027344c-5.195313 2.011718-10.035157 4.828124-14.355469 8.328124l-.082031.082032-5.554688-4.769532c-2.472656 2.125-4.785156 4.414063-6.875 6.894532l.164063.167968h-5.03125l.082031-.140624c3.464844-4.523438 7.535156-8.578126 12.074219-12.023438l.082031-.058594 5.609375 4.800782c2.941406-2.097657 6.078125-3.917969 9.351562-5.40625l-1.347656-7.308594.109375-.027344c5.390625-2.261719 11.054688-3.808594 16.855469-4.523438h.109375zm0 0"/><path d="m127.105469 76.402344c11.441406 0 21.945312 3.890625 30.304687 10.453125h-3.136718c-7.699219-5.40625-17.074219-8.578125-27.195313-8.578125s-19.5 3.171875-27.199219 8.578125h-3.078125c8.359375-6.5625 18.890625-10.453125 30.304688-10.453125zm0 0"/><path d="m190.21875 102.027344c3.738281 4.191406 6.1875 9.183594 6.078125 16.355468 1.894531-1.488281 2.609375-7.75 5.910156-10.09375.796875 8.851563-2.640625 15.199219-7.972656 20.851563-.386719-5.683594-4.8125-2.125-6.050781-16.082031 2.226562 1.296875 2.308594 4.828125 5.746094 6.730468-3.960938-7.171874-3.574219-10.507812-3.710938-17.761718zm-10.589844 68.707031c.054688.773437.167969 1.546875.25 1.960937-2.007812.578126-3.960937 1.320313-5.804687 2.589844 2.859375-3.722656 3.988281-9.433594 3.355469-13.488281-4.703126 6.675781-11.246094 11.835937-10.613282 19.144531-.054687.46875-.027344 1.296875-.027344 1.957032-2.3125.691406-4.484374 1.710937-6.601562 3.421874-.386719.300782-.90625.9375-.988281.796876-.085938-.136719.464843-.714844.796875-1.15625 2.667968-3.421876 4.371094-8.082032 5.882812-11.695313-10.007812 7.722656-12.648437 7.417969-17.875 14.09375-1.484375 1.902344-8.140625 3.253906-10.285156 3.695313-.519531.113281-.519531.800781-.027344.773437 2.449219-.21875 6.847656.082031 8.527344.71875 8.742188 3.363281 15.5625 1.597656 24.695312-3.285156-4.8125.414062-9.625.140625-14.4375-1.210938.796876-.277343 1.539063-.992187 2.390626-.800781 10.449218 2.398438 17.710937-1.515625 24.859374-9.046875-6.214843 1.601563-11.027343 2.152344-15.839843 3.363281v-.027344c.304687-.910156 1.761719-1.625 1.761719-1.625 7.148437-3.117187 14.988281-.359374 22.382812-12.359374-3.738281 2.347656-7.5625 2.871093-11.355469 3.917968 0-.605468-.054687-1.351562.355469-2.097656 5.445312-5.320312 12.347656-3.003906 19.113281-17.980469-3.464843.496094-6.984375 3.445313-9.953125 5.679688.21875-.773438.605469-1.765625 1.097656-2.675781 5.886719-5.210938 11.605469-9.128907 12.511719-17.515626-1.867187 1.878907-5.03125 3.753907-7.394531 5.105469 4.207031-6.34375 8.25-13.65625 7.394531-22.894531-1.648437 7.613281-6.324219 8.496094-9.019531 14.316406-1.511719-4.46875-3.242188-6.925781-5.664062-9.820312-.6875 13.046875 4.316406 12.578125 4.730468 21.984375l-1.871094 1.488281c0-4.523438-1.566406-9.183594-3.847656-12.964844-.332031 6.839844-2.945312 15.035156 1.125 20.824219.359375 1.160156.304688 2.070313.195313 2.648437-1.570313 1.132813-2.972657 2.015626-4.070313 2.097657.6875-3.972657.6875-8.496094-.855468-12.523438-1.042969 7.363281-6.046876 13.269531-4.894532 22.589844zm0 0"/><path d="m63.992188 102.027344c-3.738282 4.191406-6.1875 9.183594-6.078126 16.355468-1.898437-1.488281-2.613281-7.75-5.910156-10.09375-.800781 8.851563 2.609375 15.199219 7.972656 20.851563.386719-5.683594 4.8125-2.125 6.050782-16.082031-2.253906 1.296875-2.308594 4.828125-5.746094 6.730468 3.984375-7.171874 3.601562-10.507812 3.710938-17.761718zm10.617187 68.707031c-.058594.773437-.167969 1.546875-.25 1.960937 2.007813.578126 3.933594 1.320313 5.804687 2.589844-2.890624-3.722656-3.988281-9.433594-3.355468-13.488281 4.703125 6.675781 11.246094 11.835937 10.613281 19.144531.054687.46875.027344 1.296875.027344 1.957032 2.3125.691406 4.484375 1.710937 6.601562 3.421874.382813.300782.90625.9375.988281.796876.082032-.136719-.464843-.714844-.796874-1.15625-2.667969-3.421876-4.398438-8.082032-5.882813-11.695313 9.980469 7.722656 12.648437 7.417969 17.875 14.09375 1.484375 1.902344 8.136719 3.253906 10.28125 3.695313.523437.113281.523437.800781.03125.773437-2.449219-.21875-6.847656.082031-8.527344.71875-8.746093 3.363281-15.566406 1.597656-24.695312-3.285156 4.8125.414062 9.625.140625 14.4375-1.210938-.796875-.277343-1.539063-.992187-2.390625-.800781-10.449219 2.398438-17.710938-1.515625-24.886719-9.046875 6.214844 1.601563 11.027344 2.152344 15.839844 3.363281v-.027344c-.304688-.910156-1.761719-1.625-1.761719-1.625-7.148438-3.117187-14.988281-.359374-22.386719-12.359374 3.714844 2.347656 7.5625 2.871093 11.359375 3.917968 0-.605468.054688-1.351562-.359375-2.097656-5.441406-5.320312-12.347656-3.003906-19.109375-17.980469 3.464844.496094 6.957032 3.445313 9.953125 5.679688-.21875-.773438-.605469-1.765625-1.097656-2.675781-5.886719-5.210938-11.605469-9.128907-12.515625-17.515626 1.871094 1.878907 5.035156 3.753907 7.398438 5.105469-4.207032-6.34375-8.25-13.65625-7.398438-22.894531 1.652344 7.613281 6.328125 8.496094 9.019531 14.316406 1.515625-4.46875 3.246094-6.925781 5.667969-9.820312.6875 13.046875-4.320312 12.578125-4.730469 21.984375l1.871094 1.488281c0-4.523438 1.566406-9.183594 3.847656-12.964844.332031 6.839844 2.941407 15.035156-1.128906 20.824219-.355469 1.160156-.300781 2.070313-.191406 2.648437 1.566406 1.132813 2.972656 2.015626 4.070312 2.097657-.6875-3.972657-.6875-8.496094.851563-12.523438 1.074218 7.363281 6.050781 13.269531 4.925781 22.589844zm0 0"/><path d="m127.105469 193.296875 3.464843-6.039063h-6.957031zm67.703125-106.46875-67.703125 117.640625-67.707031-117.640625zm-67.730469 83.6875-3.21875-5.574219h-9.597656l-1.730469 3.007813 1.484375 2.566406zm-4.289063-7.421875-3.742187-6.480469-3.738281 6.480469zm-11.742187 0 3.214844-5.570312h-7.753907l3.21875 5.570312zm4.289063-7.445312 1.59375-2.757813-1.621094-2.816406h-8.609375l-2.226563 3.890625.960938 1.683594zm-1.128907-7.449219-3.21875-5.570313h-.027343l-3.214844 5.570313zm-10.695312 0 3.214843-5.570313h-8.773437l3.21875 5.570313zm4.261719-7.417969 3.214843-5.570312h-17.324219l3.21875 5.570312zm3.242187-5.601562 3.21875 5.574218h9.679687l3.21875-5.574218zm4.265625 7.449218 3.765625 6.535156 3.769531-6.535156zm11.851562-7.449218 3.21875 5.574218h9.679688l3.214844-5.574218zm4.261719 7.449218 3.769531 6.535156 3.765626-6.535156zm11.851563-7.449218 3.21875 5.574218h10.917968l3.21875-5.574218zm4.265625 7.449218 3.214843 5.570313h2.339844l3.214844-5.570313zm2.253906 11.335938-2.253906-3.890625h-8.582031l-1.621094 2.816406 1.59375 2.757813h9.898437zm-3.328125-5.765625-3.21875-5.570313h-.027344l-3.214844 5.570313zm-6.460938 9.324219 3.214844 5.570312h1.347656l3.21875-5.570312zm1.730469 10.453124-1.730469-3.035156h-9.597656l-3.21875 5.574219h13.0625zm-2.804687-4.882812-3.738282-6.480469-3.742187 6.480469zm-17.710938-10.203125 1.597656 2.757813h8.660157l1.597656-2.757813-1.625-2.816406h-8.578125zm2.667969 4.632813 3.21875 5.570312h.082031l3.21875-5.570312zm6.464844-9.324219-3.21875-5.570313h-.027344l-3.21875 5.570313zm-61.273438-55.769531h116.160157l-12.839844 22.3125h-90.476563zm16.035157 27.886718h84.039062l-3.21875 5.570313h-77.605469zm46.585937 65.09375 3.214844-5.574218h-15.535157l3.214844 5.574218zm4.289063-7.449218 3.214843-5.570313h-24.089843l3.21875 5.570313zm25.683593-44.628907h-69.050781l-3.21875-5.570312h75.488281zm0 0"/><path d="m127.105469 1.242188c68.640625 0 124.273437 55.796874 124.273437 124.644531 0 68.84375-55.632812 124.644531-124.273437 124.644531s-124.273438-55.800781-124.273438-124.644531c0-68.847657 55.632813-124.644531 124.273438-124.644531zm0 7.417968c-64.542969 0-116.875 52.460938-116.875 117.226563 0 64.761719 52.304687 117.226562 116.875 117.226562 64.542969 0 116.847656-52.492187 116.847656-117.226562 0-64.738281-52.304687-117.226563-116.847656-117.226563zm0 0"/><path d="m150.976562 37.097656c-.386718 1.324219-.773437 2.234375-.9375 3.28125-.054687.414063 2.640626-.273437 2.914063-.300781h.085937c.027344 0 .082032-.027344.109376-.027344.492187-.113281 1.015624-.167969 1.511718-.304687l1.265625-.414063.21875-.082031.246094-.082031c.085937-.027344.195313-.109375.195313-.195313 0-.082031 0-.191406 0-.273437s-.109376-.113281 0-.167969c.082031-.027344-.109376-.21875.164062-.164062l.191406.082031.167969.082031c.136719.085938.273437.25.382813.359375.191406.195313.332031.386719.441406.605469.082031.167968.191406.636718.21875.800781h-.027344v.113281c0 .027344-.164062.46875-.191406.46875 0 .082032-.054688.21875-.136719.273438v.027344c-.113281.082031-.167969.054687-.332031.140624-.054688.21875-.714844.382813-.90625.382813-.027344-.027344-1.046875.167969-2.007813.332031-1.375.304688-2.777343.496094-3.574219.636719l-.085937.027344-.027344-.027344c-.109375.027344-.21875.027344-.300781.054687-.21875.054688-.660156.054688-.605469.246094.136719.46875.027344.992188.550781 2.015625.164063.300781.328126 1.433594.46875 1.847657.164063.496093.464844 1.40625.660157 1.875.136719.414062.4375.964843.628906 1.378906.140625.304687.222656.632812.359375.9375.386719.800781.6875 1.269531 1.183594 1.902344.164062.195312.4375.582031.605468.746093.164063.164063.410157.386719.601563.523438.414063.332031.910156.578125 1.320313.800781.714843.386719 1.320312.660156 1.789062.800781.246094.082031.523438.136719.660156.191407.355469.136718.21875.191406-.523437.359374-.4375.109376-1.183594.359376-2.171875.414063-.355469.027344-.851563.027344-1.265625.109375-.496094.082031-1.152344-.191406-1.621094-.46875-.496094-.304688-.796875-.46875-1.210937-1.046875-.191407-.25-.328126-.636719-.496094-.910156-.546875-.910157-.988282-1.710938-1.179688-2.429688-.222656-.660156-.359375-1.460937-.523437-1.984375-.496094-1.628906-.796875-2.703125-1.128907-3.503906-.109374-.277344-.136718-.359375-.328124-.386719-.164063-.027343-.222657.140625-.277344.222657-.464844.714843-.824219 1.597656-1.320313 2.316406-.4375.632812-1.042969 1.128906-1.59375 1.625-.6875.636718-1.457031 1.214844-2.53125 1.378906-.328125.058594-.824219.058594-1.207031.03125-.6875-.03125-1.429688-.277344-2.476562-.527344-1.070313-.21875-2.886719-.382812-4.015626-.769531-1.125-.386719-1.179687-.582031-.605468-.828125 1.320312-.027344 4.457031.027344 5.667968-.167969 1.179688-.164062 2.0625-.632812 3.050782-1.378906.496094-.382813.851562-.851563 1.292968-1.378906.355469-.414063.851563-1.046875 1.042969-1.597657.113281-.054687.523438-.800781.910157-1.601562-.304688.027344-.550782 0-.796876.027344-.441406.054687-.773437.054687-1.046874.113281-.550782.109375-.851563.273437-1.015626.300781-.277343.027344-.332031.027344-.6875.082032-.277343.03125-.304687.167968-.605468.222656-.277344.027344-.277344.054687-.496094.136718-.136719.054688-.359375.054688-.414062.140626-.300782.246093-.660157.164062-.90625.300781-.246094.027343-.742188-.164063-.90625-.523438 0 0-.195313-.441406-.222657-.496093-.136719-.332032-.273437-.550782-.300781-.550782.027344-.828125.6875-1.105468 1.183594-1.1875l.878906-.136718c.496094.054687 1.128906-.195313 1.980469-.332032 1.097656-.191406 2.445312-.191406 3.628906-.496094.25-.054687.441406-.109374.632813-.164062.21875-.554688.46875-1.160156.742187-1.792969.46875-1.792969 2.035156-5.960937 2.558594-8.441406l.46875-2.925781h-.027344c.054687-.382813-.386719-.9375-.332031-1.292969l.027344.054687c0-.082031.027343-.140624 0-.195312l.027343.027344c.027344-.21875.164063-.414063.359375-.523438l.246094.027344c.6875.109375 1.402344.441406 2.035156.71875v.027344l.136719.082031c.054687 0 .136719.164063.136719.25.113281.054687.25.164063.25.328125.054687.027344.191406.195312.191406.332031h.027344c.027344.222657.164062.277344.164062.523438.25.25-.273437 1.078125-.410156 1.296875h-.054688c-.054687.359375-.222656.855468-.441406 1.132812l-.164062.414063s-.027344.054687-.027344.082031c-.6875 1.324219-1.597656 4.328125-2.117188 6.066406zm0 0"/><path d="m181.828125 50.28125c.496094.277344.386719.582031.441406.996094.027344.21875.164063.382812.136719.660156-.082031.414062-.933594 1.296875-1.207031 1.351562-.332031.054688-.605469.027344-.964844.027344-.21875.082032-.46875.164063-.6875.25-.796875.273438-1.675781-1.492187-1.429687-2.179687.550781-.359375 1.128906-.332031 1.761718-.46875.300782-.082031.546875-.332031.851563-.441407.300781-.082031.769531-.109374 1.097656-.195312zm20.902344-1.679688c-1.566407.386719-3.601563.6875-4.429688.964844-.164062.054688-.246093.414063-.21875.523438.082031.277344.246094.605468.246094.855468-.109375.109376-.769531.027344-1.015625.082032-.414062.082031-.605469.027344-1.128906.054687-.742188 0-1.015625-.054687-1.320313.222657-.191406.164062.113281 1.597656-.191406 2.066406-.300781.523437-1.292969.386718-1.375.964844.25.277343.332031.527343.191406.855468.277344.113282.828125-.027344 1.347657-.054687.332031-.027344.550781.082031.773437-.109375.054687-.027344.109375-.082032.136719-.136719-.082032-.609375-.195313-1.132813.136718-1.738281.054688-.113282.246094-.746094.796876-.9375.359374-.140625.46875-.71875.796874-.773438.46875-.082031.851563.027344 1.15625.164063.660157.609375-.027343 1.40625.300782 2.152343.441406.277344 2.558594-.632812 3.054687-.828124 0-.027344 0-.054688.027344-.054688-.824219-.660156-1.816406-1.242188-1.761719-2.066406.742188-.800782 2.3125.300781 3.191406.660156.660157.277344 1.042969-.082031 1.566407.164062.769531.332032 1.15625 3.972657.164062 4.359376-2.003906-.632813-6.542969.304687-8.851562.855468-.027344.027344-.027344.082032-.058594.109375.113281.195313.058594.277344.03125.46875.960937.773438 2.144531 1.378907 3.214844 2.179688.332031.25.714843.855469 1.101562 2.070312.246094.742188-.714843.992188-.910156 1.210938-.410156.277343-.796875.054687-1.621094.027343-.46875 0-1.128906-.246093-1.703125-.382812-.550781-.140625-1.019531-.167969-1.652344-.386719-.492187-.167969-1.429687-.304687-1.953124-.46875-1.070313-.359375-2.171876-.636719-3.214844-.9375-.195313-.03125-.386719-.058593-.441406-.085937-.109376 0-.246094-.082032-.328126-.136719l-.027343.027344-.332031-.164063s-.027344-.027344-.054688-.027344c-.082031-.027343-.191406-.082031-.273438-.113281-.167968-.054687-.332031-.136719-.496093-.21875-.164063-.054687-.304688-.054687-.386719-.027343l-.164062-.136719-.191407.21875.4375.359375c.058594.273437.855469.332031 1.074219.523437l.027344-.027343.578125.21875c.054687.113281.523437.359374.632812.441406 0 .085937.027344.167968.082031.222656l.027344.246094c.082032.058594.054688.222656.109375.304687l-.082031.082031c.136719.113282.109375.113282.109375.25 0 .054688-.054687.109376-.082031.136719l.027344.027344v.386719l-.164063.222656.109375-.027344-.191406.21875-.027344-.027344-.027344.027344h-.386718v.027344l-.382813.027344-.085937.054687-.21875.082031-.109376-.082031c-.109374.167969-.136718.082031-.332031.113281l-.082031-.085937-.027344.054687c-.605468-.054687-.6875-.136718-1.265625-.136718-.109375 0-.328125 0-.464843.082031-.136719.054687-.136719.140625-.222657.222656-.109375.082031-.246093.21875-.191406.359375.054687.136719.386719.246094.46875.300782-.027344-.027344.054687.027343.109375.054687h-.027344c.109375.085937.300782.085937.386719.167969 0 0 .90625.328125 1.703125.6875.851562.386718 1.953125.964844 1.980469.964844h-.027344c.769531.609374.496094.5.824219 1.351562l-.054688.058594c.136719.109375.109375.136718.136719.273437l-.082031.109375.109375.085938c0 .273437.277343.851562.082031 1.074218-.519531.578126-.300781.46875-1.042969.191407-.304687-.109375-.742187-.46875-1.019531-.578125-.578125-.273438-1.070312-.578125-1.621094-.828125-.660156-.300781-1.210937-.714844-1.789062-.964844-.632813-.273437-.90625-.660156-1.402344-.828125.027344-.027344-.355469-.027344-.410156-.054688-1.101563 1.214844-2.722656 3.945313-3.6875 5.160157-.246094.742187-.824219 1.046875-1.375 1.460937l-.027344-.027344-.492188.578126h.027344c-.027344.027343-.054687.027343-.082031.054687l-.550781.332031-.054688-.027344c-.167968.191407-.359375.386719-.46875.273438-.300781-.273438-1.183594-1.128906-2.089844-1.929688v-.027343l-.164062-.46875.027344-.054688-.109375-.082031c0-.082031-.195313-.414062-.140625-.496094 0-.113281-.164063-.496094-.246094-.582031l-.136719-.246094s-.304687-.359375-.304687-.496093c-.054688-.550782-.246094-2.207032-.660156-2.539063 0-.082031-.027344-.136719-.082032-.191406l-.109375-.554688.082031-.164062-.164062-.164063c0-.027344.027344-.054687.027344-.082031.246094-.058594.632812.441406 1.238281 1.074219.382813.414062.796875.660156 1.210937 1.101562.300782.359375.492188.800782.742188 1.105469.191406.21875.328125.414063.492188.550781.113281.082032.25.109375.277343.136719.054688-.054687.082031-.109375.136719-.164063.605469-.800781 1.375-2.042968 1.871094-2.703124.4375-.578126 1.097656-1.40625 1.730468-2.070313-.578124-.496094-4.675781-2.121094-4.867187-2.039063l.054687-.027343c-.523437-.441407-1.867187-.71875-1.953124-1.574219-.027344.027344-.027344-.082031-.027344-.109375l.027344-.027344c-.164063-.136719-.191407-.359375-.300782-.523437l.054688-.054688c-.136719-.109375-.414063-.855468-.300782-.992187l-.054687-.386719.027344-.027344-.085938-.167968c-.054687.054687 0-.164063.058594-.21875l-.058594-.054688c0-.082031 0-.113281-.027343-.195312.085937-.054688.277343-.46875.441406-.441407.359375-.441406 1.074218.441407 1.375.441407 1.511718.746093 1.347656 1.023437 2.613281 1.65625 1.402344.71875 3.246094 1.738281 3.464844 1.902343l.109375.054688c.273437.222656 1.265625.46875 1.84375.46875.6875.027343 1.042968-.441407 1.429687-.714844l.273438-.027344c.191406-.027343.386719-.140625.550781-.277343l.441406-.386719c-.414062-.332031-.578125-.773438-.964844-1.074219l-.191406-.195312.027344-.027344c-.441406-.386719-.824219-.550782-.933594-1.128906v-.027344l-.027344-.027344.109376-.359375c.109374.027344.4375 0 .523437-.082031.109375.054687.601563.164062.742187.136718.082032 0 .191407.109376.246094.164063l.082032-.109375c.246093.195312 1.375.109375 1.679687.082031l.082031.054688.054688-.054688c.191406.054688.355468.054688.519531.140625h.113281l.027344-.027344h.082031c.191407-.027343.382813-.027343.578125-.027343.191406 0 .410156.082031.605469.109375 2.554687.605468 5.25.855468 7.589844.910156.027343-.027344.027343-.054688.054687-.082031 0-.027344 0-.027344 0-.058594-1.652344-1.433594-4.457031-1.984375-6.519531-2.703125-1.347656-.46875-3.023437-1.074219-4.179687-1.488281-.164063-.027344-.382813-.164063-.578126-.332031-.027343-.027344-.054687-.027344-.082031-.027344-.027343-.027344-.082031-.054688-.136719-.054688-.027343 0-.027343 0-.054687 0-.027344-.027344-.082031-.054687-.109375-.054687-.082031.027343-.109375.027343-.109375.027343-.03125-.027343-.058594-.027343-.085937-.054687l-.519532-.441406-.027344.027343c-.085937-.054687-.140624-.136718-.222656-.164062l-.273437-.222656s-.027344-.027344-.054688-.054688c-.027343-.054687-.054687-.109375-.109375-.164062l-.992187-.828125c0-.027344-.027344-.054688-.054688-.054688 0-.027343-.027343-.054687-.054687-.082031-.027344-.054688-.054688-.113281-.082032-.140625 0-.054687-.027343-.109375-.082031-.136719l.054688.027344c0-.027344 0-.054688 0-.082031l.027343-.054688.246094-.304687c.027344-.027344.027344-.054688.027344-.082032.027344-.027343.027344-.054687.027344-.054687l.140625-.167969h-.085938c.058594 0 .085938-.027344.113281-.054687.027344 0 .027344 0 .054688-.027344.027344-.054687.164062-.054687.21875-.054687h.082031c.027344 0 .082031.027343.136719.027343l.222656.167969.082032-.113281h.082031c.027343 0 .054687.027343.109375.027343.027344.027344.054687.027344.082031.027344.027344.03125.054687.03125.082031.058594.054688.027344.109375.082031.167969.109375.027344 0 .027344.027344.054687.027344l.21875.191406.054688-.054687c.027344 0 .027344.027343.054688.027343.027343.027344.136718.054688.191406.082031.027344.03125.054687.03125.113281.03125.027344 0 .082031.027344.109375.027344.054688.027344.082031.027344.109375.054688l.027344-.027344h.054687c.027344 0 .054688.027344.082032.027344.027343.027344.082031.027344.109374.027344.027344 0 .054688.027343.109376.027343.027343.027344.085937.027344.113281.027344.027343 0 .054687 0 .082031.027344.027344.027343.054688.027343.082031.054687h.082031c.027344 0 .054688.027344.082032.027344s.054687.027344.082031.027344c.054687 0 .109375.054687.164063.054687.027343 0 .054687.027344.054687.027344.167969.027344.304687.054687.441406.085937 1.898438.273438 4.015625 2.289063 5.390625-.332031-.054687-.195312.082032-.855469-.191406-.9375-.414062.027344-1.046875.109375-1.457031.136719-.386719-.027344-1.238281.082031-1.84375-.082031-.246094-.054688-.46875-.136719-.605469-.222657 0-.027343 0-.027343 0-.054687.164062-.191406.328125-.441406.550781-.578125.90625-.605469 2.199219-.691406 3.1875-.9375-.054687-.304688-.191406-.71875-.191406-1.132812-.054687-.796876-.578125-.21875-.988281-.300782-.414063-.082031.136718.136719 0 .605469-.136719.496094-1.347656.550781-1.679688.632813-.328125.085937-.605468-.109376-.878906.167968-.578125.578125-1.101562 2.011719-2.144531 1.351563-.191407-.109375-1.375-1.65625-1.183594-1.765625.109375-.277344.523437-.800782.605469-.9375.414062-.496094 1.046875-1.433594 1.238281-2.207032.082031-.304687-.027344-.605468-.054687-.855468-.027344-.136719.109374-.164063.191406-.191406.605468.414062 1.15625 1.515624 1.183594 2.148437.410156.855469 1.59375-1.488281 2.089843-1.875.410157-.300781.878907.082031.988281.332031.109376.25 0 1.160156-.273437 1.488282-.277344.332031.410156.496093.410156.496093l.6875-.882812s.140625-.550781-.21875-.9375c-.246093-.273438-.410156-1.238281-.300781-1.652344.164062-.523437.878906.328125 1.015625.273437.496094.054688.824219.195313 1.292969.441407.332031.167969.496094.332031.769531.496093.660156.414063.027344 1.878907.796875 1.933594 1.871094-.582031 3.933594-1.132812 5.804688-1.847656l.191406-.085938c.164062-.027343.660156-.082031.714844-.191406.027343 0 .054687-.027344.082031-.027344.027343-.027343.109375-.054687.164062-.082031.195313-.113281.414063-.140625.578125-.304687.027344 0 .082032-.027344.109375-.054688.058594-.027344.113281-.054687.140625-.082031.21875-.140625.660156-.46875.632813-.71875 0-.082031.027343-.082031.054687-.164063.273438-.441406.191406-.140624.300782-.582031.027343-.027343.054687-.082031.082031-.136719l.054687-.082031h.027344c.332031.21875.109375 0 .386719.191407.027343.027343.027343.058593.054687.058593 0 .027344.027344.027344.054688.054688.054687.109375.496094.496093.523437.523437 0 .027344.027344.027344.027344.027344.027344.054688.054687.082031.082031.109375.164063.109375.054688.027344.164063.195313.054687.109374.164062.191406.25.246093.027343.027344.027343.054688.082031.082031 0 .027344.027344.054688.054688.054688 0 .027344.027343.027344.027343.058594 0 .054687.054688.109375.082031.164062 0 .027344.027344.054688.054688.082032.027344.054687.027344.082031.082031.109374.027344.027344.054688.085938.082031.113282 0 .027344.027344.027344.054688.054687.027344.027344.027344.054688.054688.054688 0 0 .027343.027343.027343.027343 0 .027344 0 .027344.027344.054688 0 .054688.03125.082031.058594.164062 0 0 0 .054688.027343.085938.027344.054688.054688.109375.054688.164062 0 .054688.027344.109376.054688.164063.027343.082031.027343.054687.027343.140625v.109375c0 .054687 0 .109375.027344.164063v.140624.027344.109375.109375c0 .027344-.027344.054688 0 .082032-.027344.054687-.027344.109374 0 .167968 0 .027344-.027344.082032 0 .136719v.109375.082031c0 .027344-.027344.085938-.027344.140625v.082032l-.164062.246093c-.058594.027344-.085938.054688-.113281.113281-.027344.027344-.054688.054688-.082032.082032-.054687.027344-.109375.136718-.21875.21875-.054687.027344-.109375.113281-.164062.113281-.027344 0-.082032.027344-.109375.027344h-.027344c-.167969 0-.523437.027343-.660156.082031-.027344 0-.140625 0-.167969.027344-.082031 0-.082031 0-.136719.027344-.027343 0-.082031 0-.109375 0s-.082031 0-.109375 0c-.027343 0-.054687 0-.109375 0-.414062-.082032-.800781-.054688-1.210937 0-.054688 0-.109375-.027344-.136719-.027344s-.054688 0-.082031 0c-.027344 0-.058594-.027344-.085938 0zm0 0"/><path d="m111.210938 45.207031c.660156-.109375 1.210937-.46875 1.757812-.773437.332031-.191406.6875-.410156 1.074219-.496094 1.265625-.246094 2.117187.882812 1.648437 2.152344-.300781.828125-.632812 1.628906-.933594 2.425781-.109374.277344-.191406.582031-.304687.96875.359375.136719.660156.246094.992187.355469.328126.113281.660157.167968.988282.277344.964844.25 1.15625.441406 1.183594 1.074218.027343.71875-.523438 1.492188-1.210938 1.710938-.769531.25-1.457031.109375-2.089844-.414063-.355468-.300781-.6875-.578125-1.042968-.882812-.742188.882812-1.457032 1.683593-2.144532 2.539062-.632812.746094-1.816406.964844-2.640625.441407-.054687-.027344-.109375-.082032-.136719-.109376-1.074218-.800781-1.046874-1.078124.082032-1.765624.796875-.496094 1.566406-1.023438 2.308594-1.574219.304687-.21875.496093-.523438.769531-.796875-.164063-.359375-.300781-.664063-.410157-.996094-.195312-.605469-.027343-.828125.574219-.828125h1.046875c.164063-.632813.328125-1.238281.46875-1.761719-.441406-.386718-.855468-.414062-1.292968-.222656-.195313.082031-.414063.25-.605469.195312-.878907-.167968-1.15625.4375-1.566407.992188-1.265624 1.707031-2.257812 3.558594-3.21875 5.433594-.414062.800781-.90625 1.542968-1.375 2.316406-.164062.246094-.414062.441406-.660156.632812-.300781.25-.632812.25-.90625-.054687-.359375-.386719-.714844-.773437-.992187-1.214844-.246094-.382812-.300781-.851562-.109375-1.351562.414062-1.019531.960937-1.957031 1.789062-2.671875 1.484375-1.296875 2.582032-2.816406 3.464844-4.582032.21875-.414062.492188-.769531.796875-1.238281-.164063-.25-.359375-.554687-.550781-.800781-.136719-.195312-.328125-.359375-.441406-.578125-.355469-.664063-.082032-1.242187.660156-1.378906.414062-.085938.855468-.085938 1.292968-.140625.910157-.136719 1.511719-.742188 1.734376-1.625.082031-.304688.054687-.554688-.25-.71875-.273438-.136719-.4375.027344-.632813.222656-1.042969 1.128906-1.839844 1.210938-3.078125.382812.191406-.46875.414062-.964843.605469-1.433593-.660157-.496094-.6875-.523438-1.15625-.027344-.328125.332031-.660157.550781-1.183594.25.058594-.332031.113281-.664063.140625-.996094.027344-.328125.027344-.660156.054688-.992187-.46875-.136719-.632813.167968-.824219.386718-.140625.167969-.25.359376-.332031.550782-.933594 2.730468-2.585938 5.078125-3.90625 7.613281-.960938 1.820313-1.894532 3.640625-2.804688 5.460937-.714844 1.4375-1.375 2.925782-2.117188 4.359376-.632812 1.214843-1.347656 2.371093-2.035156 3.558593-.082031.164063-.21875.304688-.328125.441407-.824219.910156-1.183593.828124-1.679687-.304688-.082032-.164062-.164063-.359375-.273438-.496094-.632812-.746094-.550781-1.542968-.21875-2.371094.328125-.800781.714844-1.601562.988282-2.429687.136718-.410156.523437-.21875.714843-.441406.46875-.578125 1.046875-1.074219 1.429688-1.707031 3.273437-5.433594 6.519531-10.867188 9.761719-16.300782.222656-.386718.414062-.71875.359374-1.214844-.027343-.664062.46875-1.105468.933594-1.40625.359375-.222656.605469-.496093.796875-.855468.660157-.992188 1.320313-1.957032 1.953125-2.953125.109375-.191407.167969-.414063.332032-.824219-.632813.246094-1.046876.410156-1.457032.578125-1.210937.523437-2.449218 1.046875-3.660156 1.597656-.300781.140625-.605469.332031-.90625.496094-1.292969.691406-2.613281.96875-4.015625.386719-.851563-.359375-1.125-.769532-1.070313-1.570313 1.675782-.414062 3.382813-.746093 5.003907-1.296875 1.621093-.550781 3.273437-1.105468 4.894531-2.097656-1.101562-.714844-2.0625-1.351562-3.050781-1.957031-.496094-.304688-.800781-.691407-.800781-1.269531 0-.46875.25-.714844.6875-.578126 1.101562.304688 2.203124.273438 3.328124.304688.660157.027344 1.347657.21875 1.953126.496094.851562.414062.992187.910156.660156 1.957031.300781-.109375.550781-.164063.769531-.277344.742187-.355469 1.484375-.769531 2.253906-1.101562 1.210938-.496094 1.625-.109375 1.980469.773437.054688.164063.167969.328125.222656.523438.328125.9375-.054687 1.683594-.992187 1.957031-.878907.25-1.785157.46875-2.667969.746094-.300781.082031-.660156.273437-.824219.523437-1.320312 1.792969-2.613281 3.613282-3.90625 5.433594-.082031.109375-.109375.21875-.164062.359375.136719.164063.222656.359375.386719.496094.4375.441406.660156.414062 1.015624-.109375.222657-.332032.441407-.664063.714844-.96875.992188-1.183594 1.84375-2.398438 1.898438-4.023438.578125-.359375 1.128906-.167968 1.59375.109375.195312.109375.332031.46875.304687.6875-.082031.636719-.277343 1.242188-.441406 1.90625.632813.441407.714844.46875 1.210937-.03125.382813-.355469.742188-.769531.988282-1.210937.222656-.386719.46875-.441406.828125-.441406.660156.054687 1.207031.523437 1.484375 1.242187.246094.660156-.027344 1.128906-.550782 1.542969-.496093.359375-.960937.800781-1.511718 1.074218-1.074219.609376-1.761719 1.546876-2.394532 2.539063-.054687.109375-.082031.21875-.136718.359375.386718.359375.714844.332031 1.046875-.027344.273437-.332031.519531-.691406.851562-.992187.273438-.277344.632813-.527344.988281-.664063.550782-.191406.910157.054688 1.128907.632813.136719.332031.300781.664062.523437.96875.355469.523437.355469.9375-.140625 1.378906-.355469.328125-.796875.605469-1.179687.910156-.605469.46875-.632813.605469-.414063 1.351563.21875.742187.109375 1.074218-.578125 1.460937-.605468.332031-1.207031.632813-1.8125.964844-.800781.441406-1.183594 1.046875-1.292968 1.847656zm-1.292969-8.246093c.355469-.664063.714843-1.214844.988281-1.792969.082031-.164063 0-.523438-.136719-.636719-.109375-.082031-.46875-.027344-.632812.113281-.605469.414063-.851563 1.101563-1.183594 1.792969.304687.164062.550781.300781.964844.523438zm-3.769531 5.433593c-.136719.46875-.21875.800781-.273438.992188.21875.578125.605469 1.105469.550781 1.601562-.054687.523438-.441406 1.074219-.796875 1.515625-.6875.773438-1.625.9375-3.027344-.191406.441407-1.792969 1.457032-2.980469 3.546876-3.917969zm0 0"/><path d="m59.675781 35.527344c.082031 0 .054688-.082032.464844-.027344.332031.164062.332031.136719.660156.21875.332031.082031.9375.523438 1.488281.9375.546876.386719 1.347657 1.40625 1.566407 2.289062.21875.882813.164062 1.960938-.027344 2.730469-.054687.195313-.332031.882813-.550781 1.792969-.246094 1.050781-.414063 2.34375-.769532 3.753906-.164062.6875-.46875 1.488282-.632812 2.121094-.164062.71875-.273438 1.40625-.414062 1.933594-.164063.632812-.355469 1.101562-.4375 1.351562-.414063 1.210938-.910157 2.894532-1.238282 3.113282 0 0 .109375-2.175782.191406-3.832032.027344-.71875.054688-1.324218.054688-1.601562-.027344-.824219.167969-1.707032.167969-2.535156.027343-2.234376-.027344-4.414063-.058594-6.8125.03125-.882813-.082031-1.683594-.246094-2.511719-.136719-.882813-.632812-2.59375-.21875-2.921875zm12.429688 25.707031.878906.910156.082031.027344c.332032.523437.632813 1.128906.824219 1.597656.113281.25.25.414063.359375.523438.136719.167969.328125.085937.714844-.082031.21875-.082032.414062.027343.605468 0 .246094-.027344.414063.082031.523438.167968.109375.082032.4375.355469.519531.605469.113281.332031.140625.6875.167969.910156.082031.386719.054688.660157.054688.660157 0 .527343 0 .773437.054687 1.242187.109375.636719.082031 1.105469.082031 1.105469.246094.082031.386719-.085938.578125-.25.464844-.441406.824219-1.378906.824219-1.378906.273438-.855469.632812-.910157.878906-1.074219.25-.167969 1.183594 0 1.679688.414062.550781.441407.550781 1.210938.355468 1.460938-.492187.714843-.960937 1.242187-1.484374 1.929687-.382813.523438-.769532 1.214844-1.128907 1.738282-.027343.109374-.601562.578124-.742187 1.296874-.136719.605469-1.125 1.101563-1.429688 1.046876-.578125-.109376-2.0625-.496094-2.253906-1.128907-.164062-.496093-.414062-1.351562-.46875-1.492187-.082031-.164063-.027344-1.625-.410156-2.453125-.25-.550781-.46875-.882813-.578125-1.242188-.082031-.246093-.164063-.304687-.359375-.359375 0 0-.328125.027344-.714844.054688-.246094.03125-.519531.25-.769531.25-.164063 0-.578125 0-.714844-.027344-.164063-.054688-.21875-.25-.054687-.523438.054687-.082031.082031-.359374.191406-.46875.082031-.082031.167968-.195312.25-.277343.027344-.054688.136718-.164063.191406-.191407.386719-.414062.960938-.691406.960938-.691406l-.054688-.109375c-.082031-.164062-.109375-.277343-.273438-.441406-.136718-.136719-.441406-.359375-.660156-.632813-.191406-.222656-.824218-1.351562-1.15625-2.097656l-.4375-.636718-.195312.222656c-.164063.277344-.164063.71875-.4375.910156.027344.054688-.359375.523438-.277344.660156l-.082031.304688-.027344.027344c.082031.140624-.027344.222656 0 .359374-.082031.054688-.742187 2.425782-.851563 2.289063v.109375c-.273437.25-.550781.277344-.90625.386719-.085937-.109375-.359374.082031-.496093.136719l-.191407-.109376c-.800781-.550781-.992187-1.460937-.910156-2.34375.027344-.027343.136719-.71875.109375-.800781.058594-.191406-.136719-.246093-.027343-.6875.085937-.222656.140624-.550781.085937-.773437v-.164063c.082031-.222656.082031-.414062 0-.71875.027344-.082031 0-.164062.054687-.246093-.027343-.058594.136719-.691407.136719-.828126.027344-.222656.109375-.582031.136719-.828124.082031-.054688.136719-.691407.164062-.828126 0 0 .027344-1.296874.027344-1.460937v-.054687l.109375-.359376c-.082031-.167968.140625-.828124.140625-.855468-.140625-.027344-.027344-.800782-.027344-.800782l.054688-.300781c-.054688-.085937-.027344-.195312-.082031-.277343-.058594-.082032-.140625-.164063-.195313-.277344l-.246094.167968c.082032.109376-.191406.496094-.304687.578126 0 .027343-.464844 1.046874-.628906 1.160156.027343.054687-.304688.910156-.386719.992187.027344.054688-.660156 1.128907-.550781 1.296875-.027344.164063-.4375.910156-.4375.910156-.167969.136719-.441407.910157-.386719.992188-.054688.082031-.054688.273438-.136719.332031v.027344c-.054687.136719-.332031.550781-.277343.632813-.054688.082031-.027344.277343-.136719.332031-.109375.359375-.300781.578125-.355469.964843l-.027344.027344.027344.027344-.082031.25c-.058594.273438-.222657.742188-.332031 1.074219l-.027344.109375c-.027344.136718-.191406.746094-.164063.828125-.054687.082031-.027343.277343-.109375.359375-.113281.660156-.742187 1.738281-.828125 2.234375-.054687.359375-1.207031 1.242187-1.566406 1.296875-.027344-.027344-.550781.082031-.632813.109375 0-.027344-.769531.21875-.878906.246093 0 0-1.59375.46875-1.789062.5-.027344-.058593-.605469.191407-.6875-.167968l-.191406-.828125c.109374-.164063.109374-1.074219.273437-1.15625v-.027344c.03125-.140625.359375-1.023437.359375-1.050781.054688-.082032.359375-.523438.328125-.550782l.113281-.136718c.464844-.441406 4.125-6.675782 4.125-6.675782.382813-.496093.6875-1.542968 1.179688-1.902343v-.027344c.082031-.167969.882812-1.324219.882812-1.324219.082032-.195312.851563-1.324218.851563-1.351562.082031-.109375.578125-.691406.550781-.746094.355469-.246094.382812-.910156.660156-1.101562v-.027344c.082032-.167969.136719-.441406.328125-.554688.082031-.109375.164063-.246094.054688-.382812h.027343l-1.015624-1.492188c.054687-.082031.410156-.964844.382812-.992187.027344-.136719 1.238281-2.207031 1.292969-2.234375-.164063-.027344.25-.109375.359375-.21875l.246094.136718c.054687.082032.136718.136719.191406.21875.054687-.027343.25.277344.277344.304688v-.054688c0 .082032.605468 1.046876.714843 1.214844l.191407-.25c.246093-.082031 1.648437-1.324218 1.566406-1.460937.605468-.414063.46875-.304688 1.046875-.386719l.355469.25c.855468.441406.113281 1.292969.195312 1.40625-.054688.191406-.082031.660156-.195312.742188.085937.113281-.164063 1.1875-.21875 1.214843l.027343.027344-.714843 1.296875c.027343.027344-.136719 1.160156-.21875 1.214844.027343.027344.246093 1.707031.632812 2.261718 0 0 .273438.496094.300781.523438l.441407-.9375c.328124-.25.328124-1.242188.6875-1.492188-.082032-.109374 1.042968-.910156.988281-.910156.796875-.300781 2.035156-.46875 2.585937.359375.027344-.109375.386719.664063.136719.828125.054687.082032 0 .195313-.027344.386719v1.875s0 .304687.027344.359375c-.082031.054688-.136719 1.046875-.136719 1.242188v.355468c-.054687.058594 0 .855469-.027344 1.050782-.136718.359374-.164062.578124-.332031.855468-.136719.246094-.4375.496094-.6875.828125-.382812.550781-.546875.605469-1.070312.964844zm.027343-5.050781c-.054687.636718.082032.882812-.109374 1.382812.109374.136719-.25.878906-.359376 1.046875v.027344l-.464843.332031-.882813-1.269531c.054688-.027344.027344-.222656.222656-.496094v.027344l.4375-1.160156.277344-.441407.191406-.414062.246094-.164062.304688.136718c0 .304688.109375.636719.136718.992188zm-5.773437 6.566406c-.222656-.46875-.085937-1.683594-.113281-2.152344 0-.328125.195312-1.019531.222656-1.210937.027344-.195313.273438-1.160157.21875-1.214844l.109375-.136719.136719-.03125.167968.222656.492188.773438c.140625.300781.441406.550781.082031 1.15625-.054687.140625-.027343.332031-.21875.746094 0 0-.164062.304687-.300781.632812-.082031.222656-.167969.46875-.304688.71875-.109374.21875-.246093.441406-.382812.578125-.054688 0-.054688 0-.109375-.082031zm0 0"/><path d="m85.441406 111.296875v-1.710937c.964844-.027344 1.625-.140626 1.980469-.386719.359375-.25.523437-.664063.523437-1.296875v-7.417969c0-.691406-.136718-1.132813-.441406-1.324219-.273437-.222656-.960937-.332031-2.0625-.359375v-1.601562c.992188-.027344 1.84375-.082031 2.613282-.21875.769531-.136719 1.429687-.828125 2.035156-1.105469h1.898437v12.027344c0 .632812.164063 1.074218.523438 1.296875.355469.246093 1.042969.359375 2.0625.386719v1.710937zm0 0"/><path d="m115.5 104.839844c-.660156.414062-1.347656.71875-2.035156.910156-.6875.195312-1.429688.304688-2.226563.304688-1.761719 0-3.191406-.441407-4.289062-1.351563-1.101563-.882813-1.652344-2.042969-1.652344-3.449219 0-1.542968.660156-2.785156 1.953125-3.722656 1.292969-.964844 3.023438-1.433594 5.113281-1.433594 2.339844 0 4.125.632813 5.390625 1.902344s1.898438 3.0625 1.898438 5.378906c0 2.511719-.6875 4.441406-2.089844 5.820313-1.402344 1.378906-3.355469 2.066406-5.886719 2.066406-1.621093 0-2.96875-.273437-4.039062-.824219-1.046875-.554687-1.570313-1.242187-1.570313-2.042968 0-.496094.167969-.882813.523438-1.1875.359375-.300782.796875-.4375 1.375-.4375.90625 0 1.539062.550781 1.898437 1.652343.054688.136719.082031.25.109375.304688.082032.304687.246094.496093.46875.605469.21875.109374.574219.167968 1.070313.167968 1.238281 0 2.199219-.414062 2.914062-1.242187.714844-.828125 1.074219-1.960938 1.074219-3.421875zm-.21875-3.75c0-.9375-.25-1.683594-.714844-2.179688-.496094-.523437-1.183594-.773437-2.0625-.773437-.9375 0-1.625.25-2.144531.773437-.523437.496094-.773437 1.242188-.773437 2.152344s.25 1.625.742187 2.125c.496094.523438 1.15625.769531 1.980469.769531.964844 0 1.707031-.246093 2.203125-.742187.492187-.496094.769531-1.1875.769531-2.125zm0 0"/><path d="m166.539062 104.839844c-.660156.414062-1.347656.71875-2.035156.910156-.6875.195312-1.429687.304688-2.226562.304688-1.761719 0-3.191406-.441407-4.289063-1.351563-1.101562-.882813-1.652343-2.042969-1.652343-3.449219 0-1.542968.660156-2.785156 1.953124-3.722656 1.292969-.964844 3.027344-1.433594 5.117188-1.433594 2.335938 0 4.125.632813 5.390625 1.902344 1.261719 1.269531 1.894531 3.0625 1.894531 5.378906 0 2.511719-.6875 4.441406-2.089844 5.820313-1.402343 1.378906-3.355468 2.066406-5.882812 2.066406-1.652344 0-2.972656-.273437-4.042969-.824219-1.046875-.554687-1.566406-1.242187-1.566406-2.042968 0-.496094.164063-.882813.519531-1.1875.359375-.300782.796875-.4375 1.375-.4375.910156 0 1.542969.550781 1.898438 1.652343.054687.136719.082031.25.109375.304688.082031.304687.25.496093.46875.605469.21875.109374.578125.167968 1.070312.167968 1.238281 0 2.203125-.414062 2.917969-1.242187s1.070312-1.960938 1.070312-3.421875zm-.21875-3.75c0-.9375-.246093-1.683594-.714843-2.179688-.496094-.523437-1.183594-.773437-2.0625-.773437-.933594 0-1.621094.25-2.144531.773437-.523438.496094-.769532 1.242188-.769532 2.152344s.246094 1.625.742188 2.125c.492187.523438 1.152344.769531 2.007812.769531.960938 0 1.703125-.246093 2.199219-.742187s.742187-1.1875.742187-2.125zm0 0"/><path d="m130.378906 111.296875c1.207032-4.910156 2.886719-5.4375 7.175782-7.144531 2.089843-.855469 2.75-2.457032 2.75-3.753906 0-.769532-.46875-1.378907-.933594-1.792969-.46875-.410157-1.101563-.632813-1.953125-.632813-.660157 0-1.210938.136719-1.707031.414063-.464844.277343-.714844.578125-.714844.910156 0 .054687.113281.25.304687.605469.21875.359375.300781.691406.300781 1.050781 0 .496094-.191406.882813-.578124 1.183594-.382813.304687-.90625.441406-1.539063.441406s-1.125-.191406-1.484375-.550781c-.359375-.386719-.550781-.882813-.550781-1.515625 0-3.144531 4.097656-4.578125 6.574219-4.578125 2.035156 0 3.902343.496094 5.140624 1.347656 2.367188 1.628906 2.449219 5.792969-.191406 7.285156-2.144531 1.210938-8.222656 1.183594-8.304687 3.28125-.027344.496094.164062 1.101563 1.375 1.074219 1.070312-.054687 5.71875-.082031 6.488281-.6875.496094-.386719.828125-1.023437 1.210938-1.847656h1.511718l.332032 4.964843h-15.207032zm0 0"/><path d="m208.230469 89.558594c.109375.25.246093.441406.355469.636718.140624.191407.277343.359376.46875.496094.273437.246094.578124.441406.90625.578125.332031.136719.714843.277344 1.101562.386719.796875.222656 1.675781.441406 2.613281.691406.933594.21875 1.980469.46875 3.078125.742188.714844.167968 1.238282.25 1.597656.222656.355469-.027344.90625-.167969 1.675782-.414062l2.089844-.71875c.246093-.082032.441406-.191407.605468-.359376.164063-.164062.246094-.382812.273438-.6875 0-.136718 0-.414062-.054688-.800781-.054687-.414062-.082031-.6875-.136718-.882812l.796874-.273438 2.804688 8.136719-.796875.273438c-.082031-.191407-.191406-.441407-.355469-.800782-.167968-.355468-.304687-.578125-.414062-.714844-.191406-.222656-.414063-.332031-.605469-.359374-.21875-.027344-.46875 0-.714844.082031l-2.585937.882812c-.21875.082031-.410156.136719-.605469.222657-.164063.054687-.300781.136718-.410156.21875-.109375.082031-.246094.222656-.414063.414062-.164062.191406-.382812.441406-.632812.71875-.742188.855469-1.457032 1.652344-2.117188 2.453125-.660156.773437-1.292968 1.515625-1.867187 2.234375-.304688.359375-.523438.71875-.6875 1.019531-.140625.332031-.25.636719-.304688.910157-.027343.222656-.027343.46875 0 .773437.027344.277344.082031.523437.136719.746094l-.796875.273437-2.886719-8.382812.796875-.277344c.277344.773438.523438 1.269531.6875 1.515625.191407.25.359375.332031.496094.277344.082031-.027344.21875-.136719.410156-.304688.195313-.164062.496094-.46875.882813-.882812.355468-.382813.851562-.9375 1.484375-1.652344.632812-.71875 1.375-1.574219 2.199219-2.566406-2.53125-.605469-4.289063-.992188-5.28125-1.214844-.988282-.21875-1.566407-.273437-1.757813-.21875-.25.082031-.359375.277344-.386719.605469-.027344.332031.054688.828125.25 1.492187l-.800781.273438-1.867187-5.433594zm-55.136719 121.914062c-.195312.058594-.496094.167969-.882812.332032-.382813.167968-.6875.359374-.90625.578124-.246094.222657-.382813.582032-.382813 1.078126-.03125.496093.054687 1.183593.246094 2.125l1.097656 5.652343c.332031 1.65625.03125 3.117188-.90625 4.332031-.933594 1.210938-2.335937 2.039063-4.207031 2.398438-2.171875.414062-3.960938.277344-5.335938-.496094-1.375-.746094-2.226562-1.988281-2.582031-3.75l-1.515625-7.753906c-.054688-.246094-.136719-.46875-.273438-.605469-.136718-.164062-.359374-.277343-.660156-.359375-.191406-.054687-.441406-.082031-.742187-.082031-.277344 0-.523438 0-.6875 0l-.164063-.828125 7.945313-1.542969.164062.828125c-.21875.054688-.464843.136719-.6875.21875-.21875.082032-.464843.195313-.6875.304688-.246093.136718-.410156.332031-.464843.523437-.054688.21875-.054688.441407 0 .71875l1.539062 7.636719c.300781 1.492188.851562 2.539062 1.648438 3.089844.800781.554687 1.84375.71875 3.109374.46875 1.238282-.246094 2.144532-.796875 2.722657-1.707032.578125-.910156.6875-2.070312.410156-3.558593l-1.015625-5.160157c-.164062-.910156-.386719-1.597656-.578125-2.011718-.21875-.414063-.46875-.71875-.769531-.855469-.21875-.109375-.578125-.191406-1.042969-.25-.496094-.027344-.828125-.054687-1.019531-.054687l-.164063-.855469 6.625-1.296875zm19.578125-8.660156c-.164063.113281-.410156.277344-.742187.46875-.328126.222656-.578126.496094-.742188.828125-.164062.304687-.191406.664063-.082031 1.160156.109375.46875.355469 1.128907.742187 1.984375l4.675782 10.066406-1.789063.828126-13.75-6.839844 3 6.59375c.382813.828125.714844 1.40625 1.015625 1.792968.300781.386719.632812.605469.960938.6875.25.054688.605468.054688 1.046874 0 .441407-.082031.796876-.136718 1.042969-.191406l.359375.769532-6.078125 2.816406-.355469-.773438c.246094-.136718.519532-.332031.824219-.550781.300781-.222656.523438-.46875.660157-.746094.164062-.304687.21875-.6875.136718-1.101562-.082031-.441407-.332031-1.105469-.769531-2.015625l-3.109375-6.675782c-.164062-.328124-.355469-.632812-.578125-.882812-.246094-.246094-.519531-.410156-.824219-.523438-.328125-.109374-.6875-.164062-1.042968-.164062-.359376 0-.742188.054688-1.15625.164062l-.355469-.769531 5.304687-2.457031 12.046875 5.984375-2.476562-5.320313c-.382813-.855468-.742188-1.464843-1.042969-1.820312-.304688-.359375-.632812-.582031-.964844-.664062-.273437-.054688-.605468-.054688-1.042968 0-.441407.054687-.769532.136718-1.019532.195312l-.355468-.746094 6.078124-2.8125zm17.683594 5.65625-7.066407 4.855469-.46875-.691407c.164063-.109374.382813-.304687.6875-.550781.300782-.222656.496094-.414062.578126-.550781.164062-.25.21875-.46875.21875-.664062-.027344-.191407-.109376-.414063-.273438-.632813l-6.214844-9.046875c-.140625-.195312-.304687-.359375-.496094-.46875-.191406-.113281-.414062-.113281-.714843-.058594-.191407.03125-.441407.113282-.769531.25-.332032.136719-.605469.25-.824219.359375l-.46875-.691406 7.066406-4.851563.46875.6875c-.164063.136719-.386719.332032-.632813.550782-.246093.222656-.441406.414062-.578124.609375-.191407.246093-.246094.46875-.21875.6875.027343.222656.136718.441406.273437.636719l6.214844 9.046874c.136719.21875.304687.382813.496093.46875.191407.109376.441407.109376.714844.054688.164063-.027344.414063-.109375.742188-.277344.332031-.136718.605468-.273437.796875-.414062zm6.597656-26.425781c-.164063.195312-.300781.386719-.382813.582031-.109374.191406-.191406.441406-.273437.6875-.113281.359375-.140625.664062-.113281.9375.027344.277344.113281.578125.25.964844.191406.496094.492187 1.269531.878906 2.234375.386719.964843.824219 2.070312 1.320312 3.3125.441407 1.101562.933594 2.34375 1.484376 3.640625.550781 1.324218 1.074218 2.589844 1.566406 3.777344l-1.566406 1.542968c-2.476563-1.074218-5.003907-2.148437-7.5625-3.226562-2.558594-1.101563-4.34375-1.847656-5.363282-2.261719-.382812-.136719-.6875-.21875-.933594-.246094-.246093-.027343-.550781.027344-.933593.109375-.277344.082032-.496094.164063-.660157.25-.167968.082032-.386718.21875-.632812.410156l-.605469-.605468 5.996094-5.875.574219.578125c-.492188.609375-.796875 1.078125-.90625 1.324219-.109375.277343-.136719.46875-.027344.582031.054688.054687.136719.109375.21875.164062.082031.054688.195312.109375.332031.164063.605469.304687 1.648438.746094 3.105469 1.351562 1.457031.609375 3.660156 1.546875 6.628906 2.816406-.742187-1.792968-1.402344-3.339843-1.925781-4.554687-.523437-1.238281-.988281-2.316406-1.402344-3.253906-.191406-.46875-.382812-.882813-.605469-1.242188-.191406-.355469-.382812-.632812-.523437-.769531-.164063-.167969-.410156-.195312-.769531-.054688-.355469.136719-.878906.496094-1.566406 1.074219l-.605469-.605469 4.484375-4.414062zm10.808594-11.667969-.4375.71875c-.605469-.109375-1.320313-.136719-2.089844 0-.800781.109375-1.375.359375-1.734375.746094-.164062.164062-.359375.414062-.550781.714844-.21875.332031-.382813.609374-.523438.828124l-1.179687 1.902344 5.113281 3.117188.824219-1.351563c.222656-.359375.359375-.6875.46875-1.019531.082031-.332031.082031-.691406 0-1.046875-.054688-.222656-.21875-.527344-.496094-.910156-.273438-.359375-.519531-.664063-.769531-.855469l.441406-.71875 5.527344 3.367188-.441407.714843c-.273437-.109375-.660156-.21875-1.152343-.332031-.496094-.082031-.855469-.109375-1.074219-.054688-.359375.054688-.660156.222657-.90625.441407-.25.222656-.496094.523437-.714844.882812l-.828125 1.351563 3.824219 2.34375c.414062.25.742188.414062.988281.5.277344.082031.523438.082031.746094 0 .21875-.085938.410156-.25.628906-.5.195313-.246094.441407-.605469.746094-1.074219.136719-.21875.273437-.46875.464844-.800781.191406-.328125.332031-.578125.441406-.828125.136719-.273438.246094-.550781.300781-.824219.082032-.25.082032-.5.027344-.664062-.136719-.496094-.382812-1.101563-.769531-1.847657-.382813-.773437-.714844-1.296875-.960938-1.601562l.410157-.6875 3.960937 2.785156-7.617187 12.414063-.714844-.441407c.082031-.195312.21875-.441406.359375-.746093.136719-.332032.21875-.550782.246093-.71875.054688-.300782.027344-.523438-.082031-.714844-.109375-.167969-.277343-.332032-.523437-.46875l-9.324219-5.710938c-.21875-.136718-.4375-.21875-.628906-.246094-.195313-.027343-.414063.054688-.6875.246094-.167969.109375-.386719.304688-.632813.550782-.25.25-.414062.441406-.523437.582031l-.714844-.441407 7.203125-11.722656zm6.132812-13.957031c-.960937-.382813-1.785156-.382813-2.445312 0-.660157.359375-1.183594 1.050781-1.570313 2.042969l-.300781.800781 6.078125 2.371093.300781-.773437c.386719-.992187.441407-1.875.136719-2.648437-.328125-.742188-1.070312-1.320313-2.199219-1.792969zm13.449219-2.699219-2.171875 5.542969c-1.84375.386719-3.328125.714843-4.429687 1.019531-1.128907.304688-2.417969.691406-3.933594 1.1875l-.21875.578125 4.398437 1.710937c.25.082032.46875.136719.6875.109376.195313-.027344.414063-.136719.632813-.359376.113281-.109374.25-.273437.414062-.550781.164063-.25.300782-.46875.386719-.660156l.796875.300781-3.027344 7.695313-.796875-.300781c.054688-.222657.136719-.46875.21875-.828126.085938-.332031.140625-.582031.140625-.746093 0-.304688-.082031-.523438-.195312-.6875-.136719-.167969-.328125-.277344-.574219-.386719l-10.203125-3.972656c-.25-.082032-.46875-.136719-.660156-.136719-.195313 0-.414063.136719-.632813.355469-.164062.195312-.359375.414062-.523437.691406-.164063.277344-.300782.496094-.414063.660156l-.796875-.300781 3.164063-8.109375c.714843-1.820312 1.539062-3.089844 2.472656-3.808594.9375-.714844 1.980469-.855468 3.136719-.414062 1.019531.386718 1.707031.996094 2.089844 1.820312.386718.828125.523437 1.90625.414062 3.230469.769531-.222656 1.675781-.5 2.695312-.800781 1.015626-.304688 2.089844-.636719 3.160157-.964844.359375-.113281.769531-.277344 1.292969-.496094.523437-.222656.878906-.441406 1.074218-.691406.109375-.136719.21875-.332031.355469-.550781.136719-.222657.21875-.386719.277344-.496094zm2.144531-9.214844c-.136719.9375-.359375 1.792969-.714843 2.566406-.359376.769532-.714844 1.433594-1.101563 1.957032l.660156.855468-.136719.9375-5.554687-.632812.109375-.9375c.550781-.140625 1.15625-.332031 1.761719-.582031.628906-.246094 1.207031-.550781 1.730469-.910157.550781-.386718 1.019531-.796874 1.375-1.324218.386718-.496094.605468-1.101563.714843-1.847656.136719-.964844 0-1.765626-.410156-2.34375-.414063-.578126-.992187-.9375-1.707031-1.019532-.605469-.082031-1.128906.082032-1.59375.46875-.46875.386719-.910156 1.019532-1.347656 1.902344-.277344.578125-.523438 1.105469-.769532 1.601562-.25.496094-.46875.9375-.714844 1.378907-.550781.964843-1.238281 1.652343-2.089843 2.039062-.828125.386719-1.734375.523438-2.667969.414063-.605469-.082032-1.15625-.273438-1.679688-.632813-.523437-.332031-.960937-.773437-1.347656-1.351562-.355468-.523438-.605468-1.1875-.769531-1.960938-.164063-.769531-.164063-1.597656-.054687-2.480469.109374-.855468.359374-1.628906.6875-2.34375.332031-.71875.660156-1.269531.960937-1.65625l-.546875-.746093.136719-.9375 5.253906.636719-.140625.9375c-.605469.136718-1.207031.300781-1.839844.523437-.632812.21875-1.15625.441406-1.597656.71875-.464844.300781-.851562.660156-1.179688 1.074219-.304687.414062-.523437.9375-.605468 1.570312-.109375.773438.027344 1.4375.410156 1.988282.386719.550781.882812.882812 1.542969.964843.601562.082031 1.152343-.054687 1.59375-.441406.441406-.386719.878906-.992187 1.320312-1.875.246094-.496094.523438-1.019531.769531-1.574219.246094-.523437.496094-.992187.714844-1.40625.550782-.992187 1.210938-1.710937 2.007813-2.152344.796875-.441406 1.703125-.605468 2.75-.441406.660156.085938 1.292969.332032 1.871093.71875.574219.386719 1.042969.882813 1.375 1.460938.382813.636718.632813 1.351562.769532 2.152344.191406.828124.191406 1.738281.054687 2.730468zm1.015625-19.140625-.246094 8.550781-.851562-.027343c0-.195313-.027344-.5-.054688-.855469-.027343-.386719-.054687-.636719-.113281-.800781-.109375-.277344-.246093-.46875-.410156-.550781-.164063-.113282-.414063-.167969-.6875-.167969l-11-.300781c-.25 0-.46875.027343-.660156.109374-.191407.082032-.359375.277344-.46875.550782-.082031.164062-.164063.414062-.246094.773437-.082031.332031-.136719.632813-.191406.882813l-.855469-.027344.25-8.550781.851562.027343c.027344.21875.027344.496094.082032.828126.027344.328124.082031.605468.136718.828124.082032.273438.222657.46875.441407.578126.191406.109374.410156.164062.6875.164062l11 .304688c.246093 0 .496093-.027344.6875-.136719.191406-.085938.355469-.277344.46875-.554688.082031-.136719.136719-.414062.21875-.742187.082031-.359375.109375-.636719.136719-.882813zm-12.757812-17.625.109375.855469c-.632813.300781-1.292969.742188-1.980469 1.351562-.6875.578126-1.046875 1.101563-1.046875 1.515626 0 .21875 0 .523437.03125.855468.027344.332032.054687.632813.082031.882813l.054688.496093 12.070312-1.519531c.277344-.027343.496094-.109375.6875-.21875.195313-.109375.332032-.332031.414063-.605469.054687-.167968.082031-.441406.109375-.800781s.027344-.664062.027344-.910156l.851562-.109375 1.074219 8.550781-.851563.109375c-.054687-.195312-.113281-.496094-.195312-.855468-.082032-.359376-.164063-.632813-.246094-.746094-.164062-.273438-.328125-.441406-.523438-.496094-.21875-.082031-.4375-.082031-.714843-.054688l-12.183594 1.515626.058594.5c.027343.246093.082031.523437.136719.878906.054687.332031.109374.609375.191406.855468.109375.414063.578125.828126 1.375 1.214844.796875.414063 1.566406.664063 2.226562.800782l.109375.855468-4.398437.550782-1.871094-14.867188zm0 0"/><path d="m28.105469 95.269531c.355469-1.074219.878906-2.011719 1.539062-2.839843.660157-.828126 1.457031-1.460938 2.339844-1.933594.878906-.46875 1.867187-.742188 2.96875-.796875 1.097656-.082031 2.199219.082031 3.355469.46875 1.152344.386719 2.144531.9375 2.96875 1.652343.824218.71875 1.484375 1.574219 1.953125 2.511719s.714843 1.957031.769531 3.089844c.054688 1.128906-.109375 2.234375-.496094 3.363281-.273437.800782-.632812 1.519532-1.042968 2.125-.414063.605469-.851563 1.101563-1.238282 1.460938l.355469.828125-.300781.882812-5.390625-1.710937.304687-.910156c1.8125.027343 3.242188-.191407 4.261719-.632813 1.015625-.46875 1.703125-1.214844 2.035156-2.261719.4375-1.296875.191407-2.484375-.714843-3.53125-.910157-1.046875-2.421876-1.929687-4.484376-2.648437-1.179687-.386719-2.226562-.605469-3.105468-.660157-.910156-.058593-1.679688.027344-2.3125.21875-.660156.222657-1.207032.550782-1.648438 1.019532-.414062.46875-.742187 1.023437-.960937 1.683594-.332031.964843-.359375 1.902343-.085938 2.839843.277344.9375.828125 1.90625 1.707031 2.871094l-.851562.714844c-.496094-.496094-.9375-1.019531-1.292969-1.570313-.359375-.523437-.632812-1.105468-.796875-1.738281-.195312-.660156-.277344-1.378906-.277344-2.097656-.027343-.714844.136719-1.515625.441407-2.398438zm-.277344 48.105469c.71875.246094 1.488281.382812 2.339844.414062.851562.027344 1.816406 0 2.859375-.140624.878906-.109376 1.761718-.273438 2.585937-.523438.824219-.21875 1.539063-.550781 2.171875-.9375.632813-.386719 1.101563-.882812 1.429688-1.433594.332031-.550781.46875-1.214844.359375-1.988281-.167969-1.292969-.910157-2.234375-2.257813-2.757813-1.320312-.523437-3.132812-.632812-5.390625-.359374-.960937.113281-1.867187.304687-2.691406.554687-.828125.246094-1.542969.578125-2.148437.964844-.601563.414062-1.042969.882812-1.347657 1.40625-.300781.550781-.410156 1.1875-.300781 1.902343.082031.71875.359375 1.296876.769531 1.765626.414063.550781.964844.910156 1.621094 1.132812zm11.386719 1.40625c-.605469.855469-1.375 1.542969-2.28125 2.121094-.9375.582031-2.007813.9375-3.273438 1.078125-1.128906.136719-2.226562.082031-3.273437-.167969-1.070313-.246094-2.007813-.6875-2.832031-1.292969-.851563-.664062-1.539063-1.464843-2.117188-2.402343-.550781-.9375-.90625-2.121094-1.074219-3.503907-.136719-1.128906-.082031-2.203125.167969-3.226562.246094-1.046875.660156-1.984375 1.292969-2.839844.601562-.828125 1.347656-1.542969 2.28125-2.097656.933593-.550781 2.007812-.910157 3.21875-1.074219 1.261719-.164062 2.417969-.082031 3.492187.222656 1.070313.300782 2.035156.769532 2.859375 1.433594.824219.660156 1.484375 1.460938 1.980469 2.453125.519531.964844.851562 2.042969.988281 3.199219.136719 1.160156.082031 2.234375-.164062 3.28125-.277344 1.050781-.6875 1.988281-1.265625 2.816406zm8.359375 21.320312c-.082031-.191406-.246094-.441406-.4375-.773437-.195313-.332031-.441407-.605469-.773438-.800781-.273437-.164063-.660156-.21875-1.152343-.164063-.496094.082031-1.15625.277344-2.035157.605469l-10.339843 4.054688-.714844-1.847657 7.671875-13.292969-6.792969 2.675782c-.851562.332031-1.457031.632812-1.84375.910156-.382812.273438-.632812.578125-.742188.910156-.082031.246094-.082031.578125-.054687 1.019532.054687.441406.082031.800781.136719 1.046874l-.796875.304688-2.445313-6.234375.796875-.300781c.136719.246094.300781.523437.496094.851562.21875.304688.4375.554688.6875.71875.300781.195313.65625.25 1.097656.195313.441407-.058594 1.128907-.277344 2.0625-.636719l6.847657-2.675781c.332031-.136719.632812-.300781.90625-.523438.25-.21875.46875-.496093.578124-.800781.136719-.328125.222657-.660156.222657-1.019531.027343-.359375-.027344-.746094-.085938-1.160157l.800781-.300781 2.144532 5.433594-6.710938 11.640625 5.5-2.152344c.878906-.332031 1.511719-.664062 1.871094-.9375.382812-.277344.632812-.582031.742188-.910156.082031-.277344.109374-.609375.054687-1.050781-.027344-.441407-.082031-.769531-.136719-1.019531l.769532-.304688 2.445312 6.234375zm3.601562 21.347657c-.136719-.191407-.273437-.332031-.382812-.46875s-.277344-.273438-.496094-.46875c-.246094-.191407-.46875-.273438-.714844-.246094-.246093.027344-.46875.109375-.660156.246094l-1.511719.964843c-.300781.195313-.550781.359376-.742187.496094-.191407.140625-.414063.277344-.6875.46875-.769531-.382812-1.679688-1.074218-2.777344-2.039062-1.101563-.992188-1.953125-1.984375-2.613281-2.980469-.605469-.9375-1.015625-1.929687-1.265625-2.921875-.246094-1.019531-.273438-2.015625-.109375-3.007812.164062-.992188.578125-1.929688 1.183594-2.839844.605468-.910156 1.484374-1.710938 2.554687-2.398438 1.019531-.664062 2.0625-1.078125 3.164063-1.296875 1.074218-.222656 2.144531-.195312 3.164062.027344 1.015625.21875 1.980469.6875 2.914062 1.351563.90625.6875 1.730469 1.570312 2.417969 2.675781.46875.742187.828125 1.488281 1.046875 2.234375.21875.742187.355469 1.40625.414063 1.929687l.878906.246094.496094.800781-4.730469 3.117188-.523438-.800782c1.15625-1.378906 1.84375-2.617187 2.144532-3.722656.273437-1.074218.109375-2.125-.523438-3.117187-.742187-1.183594-1.839844-1.765625-3.300781-1.738281-1.457031.027343-3.078125.609374-4.894531 1.765624-1.921875 1.242188-3.214844 2.511719-3.902344 3.835938s-.660156 2.5625.082031 3.695312c.355469.550782.742188.964844 1.152344 1.296876.441406.300781.828125.523437 1.183594.605468l2.640625-1.683594c.21875-.136718.386718-.300781.46875-.46875.109375-.164062.136718-.414062.082031-.714843-.027344-.25-.109375-.523438-.21875-.828125-.113281-.304688-.222656-.578125-.332031-.773438l.714844-.46875 4.34375 6.785156zm8.5 13.433593c.714844-.25 1.402344-.632812 2.089844-1.132812.6875-.496094 1.402344-1.15625 2.144531-1.902344.632813-.660156 1.183594-1.324218 1.675782-2.039062.496093-.71875.855468-1.40625 1.101562-2.097656.21875-.6875.300781-1.378907.191406-2.011719-.082031-.636719-.410156-1.242188-.988281-1.765625-.964844-.910156-2.117187-1.160156-3.492187-.71875s-2.832032 1.460937-4.429688 3.117187c-.660156.71875-1.234375 1.40625-1.730469 2.152344-.496093.714844-.851562 1.433594-1.046875 2.125-.21875.6875-.246094 1.351563-.136718 1.957031.109374.605469.441406 1.15625.960937 1.683594.523437.496094 1.101563.796875 1.734375.882812.632812.082032 1.265625 0 1.925781-.25zm9.734375-6.097656c.054688 1.023438-.082031 2.070313-.441406 3.089844-.355469 1.023438-.988281 1.988281-1.867188 2.925781-1.238281 1.296875-2.667968 2.125-4.265624 2.480469-1.59375.359375-3.1875.195312-4.785157-.523438-.574219.636719-.90625 1.378907-.988281 2.179688s.136719 1.460938.632812 1.929688c.300782.304687.605469.523437.851563.71875.277344.191406.523437.332031.742187.46875l-.660156.6875c-.410156-.164063-.988281-.46875-1.703125-.882813-.714843-.441406-1.402343-.964844-2.035156-1.570313-.878906-.855468-1.375-1.792968-1.429687-2.867187-.054688-1.078125.328124-2.125 1.152343-3.117187-.6875-.773438-1.179687-1.628907-1.539062-2.539063-.355469-.910156-.550781-1.847656-.550781-2.8125s.167968-1.902344.550781-2.839844c.359375-.941406.9375-1.820312 1.734375-2.648437.878906-.910156 1.839844-1.601563 2.859375-2.042969 1.015625-.441406 2.0625-.660156 3.132812-.6875 1.046875 0 2.0625.21875 3.082031.632813 1.015626.414062 1.953126 1.046874 2.777344 1.847656.824219.800781 1.484375 1.683594 1.980469 2.648437.4375.9375.6875 1.929688.769531 2.921875zm4.398438 19.832032-7.230469-4.605469.46875-.714844c.164063.082031.4375.21875.769531.414063.328125.191406.574219.273437.742188.300781.273437.054687.519531.027343.6875-.054688.164062-.082031.355468-.277343.492187-.496093l5.941407-9.238282c.136718-.222656.21875-.414062.21875-.636718.027343-.21875-.054688-.441407-.21875-.6875-.109376-.167969-.273438-.359376-.523438-.609376-.246094-.246093-.464844-.441406-.660156-.605468l.46875-.71875 7.234375 4.609375-.46875.714843c-.191407-.082031-.441407-.21875-.742188-.359374-.304687-.136719-.550781-.246094-.769531-.300782-.304688-.085937-.523438-.054687-.714844.082032-.195312.109374-.359375.273437-.496094.496093l-5.941406 9.238281c-.136718.222657-.21875.441407-.246094.636719-.027343.21875.054688.441407.21875.6875.082032.140625.277344.332031.523438.582031.273438.246094.496094.441407.6875.578126zm27.472656-2.976563c-.191406-.054687-.464844-.136719-.851562-.25-.355469-.109375-.742188-.109375-1.101563-.027344-.328125.082031-.628906.304688-.933594.691407-.300781.386718-.632812.992187-1.015625 1.847656l-4.566406 10.09375-1.789062-.800782-3.820313-14.867187-3 6.621094c-.382813.828125-.601563 1.460937-.6875 1.957031-.082031.472656-.054687.882812.113281 1.1875.109375.222656.355469.496094.6875.773438.328125.273437.632813.496093.824219.660156l-.359375.773437-6.105469-2.757812.359375-.773438c.273438.109375.578125.195313.960938.25.359375.082031.714844.082031.992187.027344.355469-.082031.660157-.277344.933594-.636719.277344-.328125.605469-.964844 1.019531-1.902344l3.023438-6.703124c.136718-.328126.246094-.660157.273437-1.019532.027344-.359375-.027343-.660156-.136719-.964844-.136718-.332031-.300781-.632812-.550781-.882812-.246093-.277344-.519531-.523438-.878906-.773438l.359375-.769531 5.332031 2.398438 3.355469 13.019531 2.421875-5.351562c.382813-.855469.605469-1.519532.6875-1.988282s.027344-.851562-.109375-1.15625c-.140625-.25-.359375-.496094-.6875-.800781-.332031-.277344-.605469-.496094-.828125-.632813l.332031-.746093 6.105469 2.730469zm17.601562 11.5c-.21875-.027344-.441406-.027344-.632812-.054687-.164062 0-.414062.027343-.6875.054687-.300781.027344-.523438.167969-.660156.359375-.136719.195312-.21875.414062-.246094.664062l-.332031 1.761719c-.054688.359375-.109375.636719-.136719.855469-.027344.222656-.082031.496094-.109375.828125-.796875.304687-1.925781.523437-3.410156.636719-1.457031.109375-2.777344.082031-3.960938-.140625-1.097656-.191407-2.117187-.550781-3.023437-1.074219-.910156-.523438-1.679688-1.160156-2.285156-1.984375-.601563-.800781-1.042969-1.738281-1.261719-2.789063-.25-1.074218-.25-2.234374-.027344-3.5.21875-1.1875.601563-2.261718 1.179687-3.203124.578126-.9375 1.320313-1.707032 2.199219-2.289063.855469-.578125 1.84375-.992187 2.972657-1.183594 1.125-.195312 2.308593-.195312 3.601562.027344.878906.164063 1.648438.414063 2.335938.773437.6875.355469 1.265624.6875 1.707031 1.019532l.769531-.46875.933594.164062-.90625 5.570313-.960938-.164063c-.25-1.765625-.660156-3.144531-1.292968-4.082031-.605469-.9375-1.511719-1.515625-2.667969-1.738281-1.375-.246094-2.558594.167968-3.519531 1.214844-.964844 1.074218-1.652344 2.648437-2.035157 4.769531-.414062 2.234375-.359375 4.054687.136719 5.464843.496094 1.40625 1.429688 2.234376 2.777344 2.453126.632812.109374 1.210937.109374 1.734375.027343.519531-.109375.933593-.246093 1.261719-.441406l.550781-3.089844c.054687-.246093.027343-.46875-.027344-.660156-.054687-.195313-.21875-.386719-.46875-.550781-.191406-.140625-.4375-.277344-.769531-.386719-.300782-.113281-.574219-.222656-.769532-.277344l.164063-.828125 7.8125 1.433594zm-95.371093-96.921875.632812-8.359375.851563.054687v.800782c0 .359375.027344.605468.082031.71875.085937.273437.222656.46875.386719.578125.164062.109375.386718.191406.660156.191406l5.335938.414063.492187-6.617188-5.222656-.386719c-.246094-.027343-.46875.027344-.6875.109375-.191407.082032-.386719.246094-.496094.496094-.054687.136719-.136719.359375-.246094.691406-.082031.328125-.164062.605469-.191406.796875l-.855469-.054687.632813-8.355469.851562.054687v.800782c.027344.355468.058594.605468.085938.769531.082031.277344.21875.46875.382812.582031.191407.109375.414063.191406.660157.191406l10.945312.828126c.246094.027343.46875 0 .660156-.082032.191406-.085937.355469-.25.496094-.527344.109375-.191406.21875-.46875.328125-.824218.109375-.332032.164063-.582032.191406-.71875l.855469.054687-.632812 8.359375-.851563-.054687c0-.222657-.03125-.5-.058594-.828125-.027343-.332032-.082031-.550782-.109375-.746094-.082031-.277344-.21875-.496094-.410156-.605469-.195312-.113281-.414062-.167969-.660156-.195312l-4.621094-.355469-.496094 6.617188 4.511719.332031c.246094.027343.46875-.027344.660156-.082031.164063-.082032.355469-.25.496094-.523438.109375-.195312.191406-.441406.300781-.746094.109375-.304687.164063-.550781.21875-.746094l.855469.054688-.632813 8.359375-.855468-.054687c0-.222657 0-.496094-.027344-.800782-.027344-.304687-.054688-.550781-.109375-.800781-.082031-.273437-.21875-.46875-.410156-.578125-.195313-.109375-.414063-.164062-.660157-.191406l-10.890624-.71875c-.25-.027344-.496094 0-.6875.082031-.195313.082031-.359376.25-.496094.523437-.082032.167969-.164063.414063-.246094.746094-.082031.332032-.140625.605469-.167969.800782zm0 0"/></g></svg>