<?xml version="1.0" encoding="UTF-8" standalone="no"?>
<svg
   xmlns:dc="http://purl.org/dc/elements/1.1/"
   xmlns:cc="http://creativecommons.org/ns#"
   xmlns:rdf="http://www.w3.org/1999/02/22-rdf-syntax-ns#"
   xmlns:svg="http://www.w3.org/2000/svg"
   xmlns="http://www.w3.org/2000/svg"
   viewBox="0 0 266.66666 266.66666"
   height="266.66666"
   width="266.66666"
   xml:space="preserve"
   id="svg2"
   version="1.1"><metadata
     id="metadata8"><rdf:RDF><cc:Work
         rdf:about=""><dc:format>image/svg+xml</dc:format><dc:type
           rdf:resource="http://purl.org/dc/dcmitype/StillImage" /></cc:Work></rdf:RDF></metadata><defs
     id="defs6"><clipPath
       id="clipPath18"
       clipPathUnits="userSpaceOnUse"><path
         id="path16"
         d="M 0,200 H 200 V 0 H 0 Z" /></clipPath></defs><g
     transform="matrix(1.3333333,0,0,-1.3333333,0,266.66667)"
     id="g10"><g
       id="g12"><g
         clip-path="url(#clipPath18)"
         id="g14"><g
           transform="translate(96.0059,93.4422)"
           id="g20"><path
             id="path22"
             style="fill:#0068b6;fill-opacity:1;fill-rule:evenodd;stroke:none"
             d="m 0,0 v 5.5 h -42.5 l 21.251,-2.75 z m 7.988,5.5 h 42.5 L 29.237,8.25 7.988,11 Z M -5.16,-59.087 h -1.39 c -0.194,-0.517 -0.554,-0.97 -1.078,-1.357 -0.525,-0.388 -1.01,-0.652 -1.457,-0.791 v -1.477 c 0.848,0.267 1.585,0.678 2.21,1.234 v -6.141 h 1.715 z m 6.134,-4.089 c 0.225,0.246 0.337,0.607 0.337,1.086 0,0.523 -0.126,0.93 -0.38,1.218 -0.253,0.289 -0.546,0.433 -0.877,0.433 -0.317,0 -0.579,-0.12 -0.786,-0.355 -0.21,-0.237 -0.315,-0.625 -0.315,-1.164 0,-0.547 0.114,-0.948 0.342,-1.203 0.226,-0.256 0.51,-0.384 0.85,-0.384 0.328,0 0.604,0.122 0.829,0.369 m -2.704,-4.066 v 0 c 0.43,-0.353 0.994,-0.531 1.692,-0.531 0.969,0 1.755,0.344 2.361,1.032 0.604,0.689 0.905,1.81 0.905,3.364 0,1.527 -0.29,2.624 -0.869,3.29 -0.58,0.667 -1.322,1 -2.228,1 -0.832,0 -1.515,-0.263 -2.053,-0.791 -0.537,-0.526 -0.807,-1.219 -0.807,-2.08 0,-0.826 0.255,-1.497 0.764,-2.013 0.509,-0.515 1.113,-0.773 1.816,-0.773 0.645,0 1.183,0.238 1.613,0.713 -0.07,-0.974 -0.227,-1.615 -0.474,-1.925 -0.248,-0.311 -0.547,-0.464 -0.899,-0.464 -0.28,0 -0.505,0.076 -0.675,0.231 -0.17,0.154 -0.275,0.391 -0.315,0.71 l -1.659,-0.172 c 0.122,-0.706 0.398,-1.236 0.828,-1.591 m 7.03,0.11 v 0 c 0.52,-0.422 1.193,-0.633 2.017,-0.633 1.031,0 1.836,0.374 2.418,1.124 0.427,0.551 0.639,1.173 0.639,1.874 0,0.84 -0.263,1.521 -0.791,2.048 -0.528,0.526 -1.17,0.788 -1.928,0.788 -0.398,0 -0.788,-0.091 -1.169,-0.271 l 0.27,1.446 h 3.221 v 1.522 h -4.52 l -0.878,-4.422 1.389,-0.19 c 0.389,0.412 0.828,0.617 1.319,0.617 0.392,10e-4 0.711,-0.131 0.956,-0.391 0.245,-0.262 0.368,-0.653 0.368,-1.175 0,-0.556 -0.123,-0.974 -0.371,-1.25 -0.247,-0.275 -0.55,-0.415 -0.907,-0.415 -0.311,0 -0.587,0.108 -0.826,0.323 -0.239,0.216 -0.384,0.508 -0.431,0.876 l -1.708,-0.17 c 0.102,-0.712 0.412,-1.28 0.932,-1.701 m 8.366,1.029 v 0 c 0.088,0.145 0.206,0.296 0.35,0.452 0.144,0.153 0.489,0.466 1.029,0.938 0.542,0.471 0.918,0.833 1.126,1.084 0.312,0.378 0.54,0.74 0.685,1.085 0.144,0.346 0.217,0.711 0.217,1.093 0,0.672 -0.252,1.234 -0.756,1.685 -0.505,0.452 -1.198,0.679 -2.079,0.679 -0.804,0 -1.475,-0.195 -2.011,-0.587 -0.537,-0.389 -0.856,-1.035 -0.957,-1.932 l 1.706,-0.162 c 0.033,0.476 0.155,0.817 0.366,1.021 0.211,0.204 0.494,0.308 0.851,0.308 0.362,0 0.645,-0.097 0.849,-0.294 0.206,-0.195 0.308,-0.474 0.308,-0.837 0,-0.328 -0.118,-0.659 -0.354,-0.996 -0.175,-0.244 -0.647,-0.707 -1.419,-1.39 -0.959,-0.847 -1.6,-1.526 -1.925,-2.038 -0.325,-0.51 -0.52,-1.052 -0.585,-1.625 h 6.006 v 1.516 z m 58.368,32.37 0.002,-0.001 c -0.464,-0.782 -0.936,-1.559 -1.427,-2.324 l -0.006,0.005 C 63.461,-47.194 53.601,-56.428 41.958,-62.814 l 0.003,-10e-4 c -0.217,-0.119 -0.434,-0.237 -0.651,-0.354 -0.199,-0.106 -0.399,-0.211 -0.599,-0.316 -0.271,-0.142 -0.543,-0.282 -0.816,-0.421 -10.774,-5.502 -22.975,-8.608 -35.903,-8.608 -12.927,0 -25.126,3.106 -35.9,8.606 -0.275,0.14 -0.55,0.282 -0.823,0.425 -0.198,0.104 -0.396,0.208 -0.592,0.313 -0.219,0.117 -0.436,0.235 -0.654,0.355 l 0.003,10e-4 c -11.643,6.386 -21.503,15.62 -28.645,26.761 l -0.006,-0.005 c -0.49,0.765 -0.963,1.542 -1.427,2.324 l 0.002,0.001 c -6.53,11.001 -10.469,23.719 -10.972,37.317 -0.044,1.229 -0.063,2.437 -0.051,3.701 0.121,13.464 3.609,26.122 9.66,37.177 l -0.003,0.002 c 0.332,0.605 0.672,1.205 1.02,1.8 0.068,0.118 0.137,0.234 0.206,0.351 l 0.131,0.223 h 10e-4 c 7.226,12.181 17.629,22.258 30.069,29.084 l -0.001,0.001 0.127,0.07 c 0.172,0.094 0.345,0.187 0.518,0.28 0.327,0.175 0.655,0.347 0.984,0.518 0.345,0.178 0.691,0.354 1.038,0.527 l 0.215,0.107 h 0.001 c 10.576,5.249 22.491,8.204 35.099,8.204 12.608,0 24.523,-2.955 35.1,-8.204 l 0.045,-0.022 0.046,-0.023 0.045,-0.023 c 0.415,-0.206 0.828,-0.416 1.238,-0.629 0.296,-0.154 0.591,-0.309 0.885,-0.467 13.275,-7.13 24.277,-17.941 31.643,-31.068 0.137,-0.242 0.272,-0.485 0.406,-0.729 5.465,-9.985 8.84,-21.278 9.532,-33.29 0.193,-3.367 0.173,-6.587 -0.046,-9.912 -0.842,-12.723 -4.695,-24.623 -10.852,-34.995" /></g><g
           transform="translate(99.9998,196.9998)"
           id="g24"><path
             id="path26"
             style="fill:#9ba4a9;fill-opacity:1;fill-rule:evenodd;stroke:none"
             d="m 0,0 c -53.571,0 -97,-43.429 -97,-97 0,-53.572 43.429,-97 97,-97 53.572,0 97,43.428 97,97 C 97,-43.429 53.572,0 0,0 m 68.841,-137.764 c 6.228,10.495 10.127,22.534 10.979,35.407 0.222,3.364 0.242,6.621 0.046,10.027 -0.7,12.154 -4.114,23.579 -9.643,33.681 -0.136,0.247 -0.272,0.493 -0.411,0.738 -7.452,13.281 -18.584,24.219 -32.015,31.433 -0.297,0.159 -0.595,0.316 -0.895,0.472 -0.415,0.216 -0.833,0.428 -1.252,0.637 l -0.046,0.023 -0.046,0.023 -0.046,0.023 C 24.811,-19.99 12.756,-17 0,-17 c -12.756,0 -24.811,-2.99 -35.511,-8.301 v 10e-4 l -0.218,-0.109 c -0.352,-0.175 -0.702,-0.353 -1.05,-0.534 -0.334,-0.172 -0.666,-0.347 -0.996,-0.524 -0.175,-0.093 -0.35,-0.188 -0.524,-0.283 l -0.129,-0.071 h 10e-4 c -12.586,-6.907 -23.11,-17.101 -30.422,-29.426 v 0 l -0.134,-0.225 c -0.07,-0.119 -0.139,-0.236 -0.208,-0.355 -0.352,-0.602 -0.696,-1.209 -1.031,-1.822 l 0.003,-0.002 c -6.122,-11.185 -9.652,-23.991 -9.774,-37.613 -0.012,-1.279 0.007,-2.501 0.052,-3.744 0.509,-13.758 4.494,-26.626 11.1,-37.756 l -0.002,-10e-4 c 0.47,-0.791 0.948,-1.577 1.444,-2.35 l 0.006,0.004 c 7.226,-11.272 17.202,-20.613 28.982,-27.074 l -0.003,-0.002 c 0.22,-0.121 0.44,-0.24 0.661,-0.358 0.199,-0.107 0.399,-0.212 0.599,-0.318 0.277,-0.145 0.554,-0.288 0.833,-0.43 10.9,-5.565 23.242,-8.707 36.321,-8.707 13.08,0 25.424,3.142 36.325,8.709 0.276,0.141 0.551,0.283 0.825,0.427 0.202,0.106 0.404,0.212 0.606,0.32 0.22,0.118 0.439,0.236 0.658,0.357 l -0.003,0.002 c 11.78,6.461 21.756,15.802 28.982,27.074 l 0.006,-0.004 c 0.496,0.773 0.974,1.559 1.444,2.35 z m -127.805,38.311 c 0.285,-10.304 2.354,-20.058 5.848,-28.816 2.427,1.219 4.901,2.358 7.42,3.411 -4.334,7.499 -6.878,16.161 -7.042,25.405 z m 4.864,31.121 c -3.12,-8.695 -4.864,-18.287 -4.898,-28.371 h 6.282 c 0.299,8.93 2.819,17.296 7.023,24.567 -2.859,1.164 -5.663,2.433 -8.407,3.804 m -7.648,-28.371 c 0.034,10.539 1.882,20.56 5.187,29.635 -3.928,2.075 -7.728,4.359 -11.386,6.839 -5.885,-10.852 -9.249,-23.272 -9.299,-36.474 z m 6.183,-32.832 c -3.683,9.138 -5.862,19.322 -6.15,30.082 h -15.492 c 0.417,-13.382 4.24,-25.904 10.628,-36.733 3.539,2.409 7.215,4.63 11.014,6.651 m 26.394,-33.138 c -10.735,6.956 -19.568,17.63 -25.316,30.594 -3.673,-1.964 -7.228,-4.12 -10.652,-6.455 7.301,-11.424 17.524,-20.801 29.615,-27.075 2.065,1.071 4.184,2.051 6.353,2.936 m 88.169,65.97 c -0.034,10.084 -1.777,19.676 -4.898,28.371 -2.744,-1.371 -5.548,-2.64 -8.406,-3.804 4.203,-7.271 6.723,-15.637 7.023,-24.567 z m -5.882,-31.566 c 3.494,8.758 5.564,18.512 5.848,28.816 h -6.226 c -0.164,-9.244 -2.708,-17.906 -7.042,-25.405 2.518,-1.053 4.993,-2.192 7.42,-3.411 m 1.371,-3.81 c -5.748,-12.964 -14.581,-23.638 -25.316,-30.594 2.169,-0.885 4.288,-1.865 6.352,-2.936 12.093,6.274 22.315,15.651 29.616,27.075 -3.424,2.335 -6.979,4.491 -10.652,6.455 m 7.228,32.626 c -0.288,-10.76 -2.467,-20.944 -6.151,-30.082 3.8,-2.021 7.476,-4.242 11.015,-6.651 6.388,10.829 10.211,23.351 10.628,36.733 z m -5.153,32.385 c 3.304,-9.075 5.152,-19.096 5.186,-29.635 h 15.498 c -0.049,13.202 -3.413,25.622 -9.3,36.474 -3.657,-2.48 -7.457,-4.763 -11.384,-6.839 m -85.749,35.731 c -2.168,0.886 -4.288,1.867 -6.353,2.939 -12.907,-6.701 -23.683,-16.938 -31.046,-29.427 3.539,-2.409 7.217,-4.631 11.017,-6.652 5.686,14.111 14.956,25.732 26.382,33.14 m 84.757,-33.14 c 3.8,2.021 7.477,4.243 11.016,6.652 -7.363,12.489 -18.139,22.726 -31.046,29.427 -2.065,-1.072 -4.185,-2.053 -6.353,-2.939 11.426,-7.408 20.697,-19.029 26.383,-33.14 m -73.973,-94.703 c -5.96,4.677 -11.145,11.554 -15.156,19.984 -4.137,3.416 -7.744,7.451 -10.68,11.963 -2.654,-1.099 -5.259,-2.294 -7.809,-3.58 5.83,-13.242 14.977,-23.998 26.091,-30.631 2.462,0.878 4.983,1.635 7.554,2.264 M 0,-159.723 c -11.233,0 -22.291,-2.502 -32.424,-7.408 9.86,-4.566 20.843,-7.119 32.424,-7.119 11.581,0 22.565,2.552 32.424,7.119 -10.092,4.886 -21.18,7.408 -32.424,7.408 m 33.559,20.526 c -4.011,-8.429 -9.196,-15.306 -15.155,-19.983 2.57,-0.629 5.091,-1.386 7.554,-2.264 11.113,6.633 20.26,17.389 26.09,30.631 -2.55,1.286 -5.154,2.481 -7.808,3.58 -2.936,-4.512 -6.544,-8.547 -10.681,-11.964 m -1.119,112.32 c -9.864,4.572 -20.853,7.127 -32.44,7.127 -11.587,0 -22.576,-2.555 -32.44,-7.127 10.136,-4.911 21.202,-7.416 32.44,-7.416 11.249,0 22.345,2.525 32.44,7.416 m -50.859,-7.955 c -2.571,0.63 -5.092,1.387 -7.555,2.266 -11.813,-7.055 -21.403,-18.771 -27.147,-33.177 2.897,-1.456 5.862,-2.796 8.889,-4.015 2.426,3.725 5.309,7.124 8.569,10.118 4.22,10.637 10.188,19.265 17.244,24.808 M 35.663,-59.64 c 3.26,-2.994 6.144,-6.393 8.569,-10.118 3.027,1.219 5.992,2.559 8.889,4.015 -5.743,14.407 -15.334,26.122 -27.147,33.177 -2.463,-0.879 -4.984,-1.636 -7.555,-2.266 7.056,-5.542 13.025,-14.17 17.244,-24.808 m -39.657,-43.917 v 5.5 h -42.5 l 21.251,-2.75 z m 7.988,5.5 h 42.5 l -21.251,2.75 -21.249,2.75 z m 45.098,-1.396 -17.598,-2.48 -27.5,-3.874 v -38.888 c 0,-0.824 -0.675,-1.5 -1.5,-1.5 h -4.988 c -0.825,0 -1.5,0.676 -1.5,1.5 v 38.888 l -27.499,3.874 -17.599,2.48 h -0.896 c 0.166,-8.88 2.648,-17.194 6.866,-24.364 0.036,-0.061 0.073,-0.123 0.109,-0.184 0.168,-0.283 0.339,-0.564 0.512,-0.844 l 0.096,-0.152 c 0.184,-0.295 0.371,-0.588 0.561,-0.878 l 0.066,-0.1 c 2.363,-3.588 5.177,-6.852 8.36,-9.715 l 0.103,-0.092 c 0.131,-0.116 0.261,-0.232 0.392,-0.346 0.099,-0.087 0.198,-0.173 0.298,-0.258 0.055,-0.048 0.109,-0.095 0.164,-0.142 0.334,-0.284 0.671,-0.564 1.011,-0.84 l 10e-4,-0.001 c 8.589,-6.96 19.532,-11.131 31.449,-11.131 11.917,0 22.86,4.171 31.45,11.131 v 0.001 c 0.348,0.282 0.692,0.568 1.032,0.858 0.045,0.039 0.09,0.077 0.134,0.116 0.104,0.089 0.208,0.179 0.311,0.269 0.126,0.111 0.253,0.222 0.378,0.334 l 0.118,0.106 c 3.181,2.86 5.992,6.123 8.354,9.708 l 0.067,0.102 c 0.19,0.29 0.377,0.583 0.562,0.878 l 0.095,0.152 c 0.174,0.28 0.345,0.562 0.513,0.846 0.036,0.06 0.072,0.122 0.109,0.182 4.217,7.17 6.699,15.484 6.865,24.364 z m -143.26,6.858 c 3.736,-0.397 7.472,-0.794 11.208,-1.189 l 0.161,1.545 c -1.531,0.164 -3.063,0.326 -4.594,0.488 l 0.618,5.935 c 1.531,-0.163 3.063,-0.327 4.595,-0.489 l 0.159,1.546 c -3.735,0.396 -7.471,0.793 -11.207,1.189 l -0.162,-1.546 5.206,-0.551 -0.617,-5.935 -5.208,0.551 z m 11.385,-3.908 h -11.27 v -1.554 h 11.27 z m -10.207,-14.31 c 3.736,0.396 7.472,0.792 11.208,1.189 l -0.154,1.483 c -3.022,-0.321 -6.044,-0.642 -9.066,-0.962 2.825,2.216 5.65,4.433 8.473,6.651 l -0.192,1.853 c -3.737,-0.397 -7.473,-0.792 -11.21,-1.188 l 0.155,-1.488 c 3.021,0.322 6.045,0.66 9.067,0.964 l 0.006,-0.06 c -2.813,-2.248 -5.646,-4.476 -8.468,-6.713 z m 10.801,-5.161 -0.014,0.061 c -1.757,0.177 -3.514,0.353 -5.272,0.528 l 0.849,-3.434 c 1.48,0.948 2.959,1.896 4.437,2.845 m -8.114,-7.23 c 3.317,2.245 6.635,4.489 9.953,6.733 l -0.418,1.687 c -3.988,0.47 -7.976,0.939 -11.964,1.408 l 0.373,-1.507 3.45,-0.348 1.102,-4.46 -2.899,-1.884 z m 13.068,-20.08 c 2.139,1.148 4.279,2.297 6.418,3.444 l -0.722,1.374 c -2.085,-1.12 -4.169,-2.238 -6.255,-3.356 -1.812,-0.974 -3.209,-0.574 -4.19,1.199 -0.831,1.664 -0.349,3.005 1.445,4.014 2.084,1.118 4.171,2.232 6.253,3.355 -0.241,0.456 -0.483,0.913 -0.722,1.37 l -6.634,-3.56 c -2.19,-1.315 -2.675,-3.217 -1.457,-5.706 1.459,-2.595 3.414,-3.307 5.864,-2.134 m 3.646,-12.276 c 3,2.28 6.007,4.555 9,6.847 -0.296,0.396 -0.592,0.792 -0.888,1.189 -2.426,-1.847 -4.853,-3.691 -7.281,-5.536 l 3.869,10.103 -1.112,1.49 c -3,-2.282 -6,-4.564 -9,-6.845 l 0.891,-1.192 c 2.427,1.844 4.853,3.689 7.279,5.535 l 0.036,-0.048 -3.832,-10.153 z m 11.963,3.612 -1.03,1.155 c -2.791,-2.537 -5.583,-5.075 -8.375,-7.612 l 1.03,-1.154 c 2.792,2.536 5.583,5.074 8.375,7.611 m -2.415,-13.854 c 3.628,1.699 7.258,3.398 10.886,5.098 l -1.22,1.232 c -3.033,-1.511 -6.067,-3.018 -9.101,-4.527 l 4.528,9.142 -1.219,1.229 c -1.683,-3.663 -3.368,-7.325 -5.05,-10.988 0.392,-0.395 0.784,-0.791 1.176,-1.186 m 17.831,-1.546 0.777,1.042 c -2.18,1.659 -4.36,3.317 -6.54,4.976 -2.261,-3.028 -4.522,-6.056 -6.783,-9.084 2.214,-1.684 4.427,-3.367 6.641,-5.05 l 0.814,1.094 c -1.803,1.371 -3.606,2.742 -5.41,4.114 0.754,1.008 1.507,2.017 2.26,3.025 l 4.918,-3.738 0.815,1.092 -4.917,3.739 2.114,2.83 c 1.77,-1.346 3.541,-2.692 5.311,-4.04 m 4.386,-2.56 v 0 l -1.313,0.734 -1.88,-3.422 3.123,-1.749 0.07,-0.038 c 1.293,-0.696 2.251,-0.476 2.877,0.665 0.617,1.122 0.332,2.015 -0.852,2.678 z m 35.606,-16.561 4.927,6.291 -1.777,0.188 -3.811,-5.094 -2.62,5.777 -1.774,0.187 3.523,-7.186 -0.475,-4.573 1.531,-0.163 z m -14.727,7.93 3.734,-0.8 -2.074,-9.85 1.445,-0.31 2.074,9.849 3.738,-0.801 0.268,1.275 -8.915,1.914 z m -1.555,1.771 v 0 l -1.472,0.454 -3.296,-10.877 1.473,-0.453 z m -14.922,2.493 v 0 c 0.516,1.007 0.516,1.923 0,2.751 -0.367,0.589 -0.996,1.132 -1.886,1.631 l -2.516,1.407 -2.063,1.154 c -1.821,-3.316 -3.642,-6.632 -5.464,-9.948 l 1.346,-0.755 c 0.788,1.432 1.574,2.865 2.36,4.297 l 3.233,-1.807 c 0.229,-0.13 0.426,-0.268 0.588,-0.414 0.698,-0.63 0.764,-1.422 0.202,-2.375 -0.071,-0.138 -0.137,-0.271 -0.202,-0.4 -0.503,-1.009 -0.823,-1.75 -0.956,-2.222 l 0.956,-0.534 0.715,-0.4 0.119,0.218 c -0.28,0.346 -0.262,0.763 0.053,1.25 l 0.877,1.853 c 0.577,1.052 0.531,1.908 -0.142,2.565 1.212,-0.013 2.119,0.522 2.717,1.61 0.023,0.04 0.043,0.079 0.063,0.119 m 0,-5.139 c -1.129,-2.529 0.457,-4.325 2.726,-5.297 2.714,-1.074 4.502,-0.647 5.356,1.283 0.642,1.527 0.27,2.812 -1.121,3.857 l -2.661,1.949 c -0.781,0.469 -1.013,1.087 -0.693,1.849 0.499,1.181 1.529,1.46 3.095,0.835 1.631,-0.788 2.205,-1.866 1.718,-3.233 l 1.305,-0.559 c 0.854,2.245 -0.022,3.925 -2.63,5.042 -2.338,0.911 -3.996,0.363 -4.976,-1.649 -0.53,-1.259 -0.146,-2.415 1.152,-3.463 l 1.962,-1.383 c 1.535,-1.016 2.026,-1.971 1.473,-2.857 -0.52,-1.129 -1.692,-1.324 -3.523,-0.585 -1.836,0.832 -2.437,2.058 -1.799,3.675 l -1.363,0.582 z m 62.794,-3.007 v 0 l 5.27,1.727 -0.419,1.302 -5.268,-1.728 -1.088,3.369 5.974,1.958 -0.4,1.242 -7.437,-2.438 3.483,-10.816 1.464,0.477 z m -9.065,-6.243 c 0.231,-0.003 0.472,0.006 0.723,0.035 2.407,0.553 3.466,2.273 3.179,5.166 -0.562,2.622 -1.86,3.977 -3.902,4.061 -0.232,0.01 -0.471,0.004 -0.721,-0.018 -2.454,-0.519 -3.509,-2.282 -3.162,-5.288 0.52,-2.598 1.815,-3.915 3.883,-3.956 m 0,-1.256 c 0.295,0.005 0.599,0.026 0.915,0.064 3.347,0.661 4.85,2.872 4.508,6.635 -0.766,3.451 -2.574,5.164 -5.423,5.15 -0.296,-0.001 -0.604,-0.022 -0.924,-0.061 -3.435,-0.632 -4.947,-2.908 -4.543,-6.828 0.753,-3.346 2.575,-4.998 5.467,-4.96 m 36.527,15.535 v 0 c 0.151,0.351 0.254,0.719 0.306,1.107 l 1.066,-1.014 0.835,0.528 -2.207,3.564 -0.991,1.601 -4.179,-2.634 0.684,-1.108 2.924,1.844 c 0.757,-1.138 0.958,-2.208 0.609,-3.209 -0.296,-0.772 -0.828,-1.4 -1.595,-1.884 -2.123,-1.339 -4.011,-0.671 -5.663,1.997 -1.442,2.562 -1.215,4.538 0.685,5.929 1.588,0.952 2.971,0.873 4.144,-0.244 l 1.253,0.79 c -1.566,1.749 -3.575,1.947 -6.031,0.593 -2.699,-1.897 -3.18,-4.518 -1.445,-7.871 1.033,-1.744 2.374,-2.777 4.029,-3.104 1.11,-0.23 2.309,0.065 3.597,0.877 0.95,0.633 1.61,1.377 1.979,2.238 m 9.852,7.154 1.556,1.317 -0.872,1.047 -0.684,-0.578 -4.504,-3.814 -2.416,2.901 4.717,3.994 -0.872,1.048 -4.719,-3.993 -2.058,2.479 -0.195,0.234 0.195,0.167 4.898,4.147 -0.829,1 -4.069,-3.445 -2.207,-1.867 2.207,-2.655 5.037,-6.059 z m 5.835,13.588 c -0.094,0.104 -0.198,0.208 -0.303,0.314 -2.081,1.628 -3.926,1.833 -5.532,0.616 -0.201,-0.151 -0.396,-0.325 -0.588,-0.52 -1.462,-1.874 -1.264,-3.79 0.588,-5.742 v 0.001 c 0.116,-0.121 0.233,-0.24 0.359,-0.36 2.045,-1.646 3.869,-1.821 5.476,-0.527 0.187,0.151 0.37,0.32 0.552,0.51 1.411,1.883 1.229,3.785 -0.552,5.708 m 0,-7.776 c 0.504,0.317 0.999,0.736 1.481,1.253 2.14,2.679 1.882,5.347 -0.775,8.009 -0.238,0.183 -0.473,0.351 -0.706,0.504 -2.131,1.407 -4.076,1.594 -5.835,0.566 -0.537,-0.317 -1.059,-0.746 -1.563,-1.29 -2.227,-2.713 -1.936,-5.439 0.871,-8.178 0.231,-0.178 0.464,-0.343 0.692,-0.492 2.107,-1.369 4.052,-1.495 5.835,-0.372 m 7.532,9.166 c 0.605,0.385 1.203,1.037 1.794,1.954 1.517,2.511 1.411,4.361 -0.323,5.546 -0.499,0.325 -0.99,0.515 -1.471,0.567 -0.853,0.089 -1.681,-0.246 -2.486,-1.012 l -2.363,-2.305 c -0.598,-0.697 -1.24,-0.817 -1.927,-0.369 -0.367,0.242 -0.619,0.527 -0.756,0.857 v 0 c -0.16,0.388 -0.16,0.84 0,1.352 0.1,0.312 0.259,0.653 0.478,1.014 1.052,1.483 2.205,1.866 3.456,1.145 l 0.769,1.199 c -1.752,1.064 -3.319,0.787 -4.703,-0.827 -0.228,-0.266 -0.453,-0.571 -0.675,-0.911 -1.275,-2.136 -1.053,-3.861 0.675,-5.179 l 0.072,-0.052 c 1.136,-0.745 2.332,-0.564 3.58,0.543 l 1.688,1.71 c 0.839,0.898 1.57,1.339 2.192,1.329 0.312,-0.005 0.596,-0.128 0.853,-0.362 1.011,-0.712 0.999,-1.912 -0.04,-3.603 -0.262,-0.39 -0.533,-0.707 -0.813,-0.958 -0.93,-0.83 -1.957,-0.894 -3.086,-0.192 l -0.805,-1.253 c 1.046,-0.733 2.05,-0.922 3.014,-0.565 0.293,0.064 0.587,0.188 0.877,0.372 m 15.939,69.755 0.823,-6.785 -3.724,-0.461 -0.753,6.166 -1.345,-0.166 0.751,-6.166 -3.485,-0.433 -0.81,6.662 -1.283,-0.159 0.996,-8.205 11.188,1.386 -1.015,8.329 z m -5.519,-11.178 h -0.001 c -2.353,-0.329 -3.618,-1.841 -3.792,-4.53 0.045,-3.401 1.953,-5.251 5.724,-5.55 3.777,-0.051 5.784,1.58 6.022,4.889 0.018,2.899 -1.382,4.628 -4.196,5.185 l -0.053,-1.491 c 2.036,-0.488 3.048,-1.601 3.03,-3.341 -0.085,-2.526 -1.691,-3.735 -4.81,-3.624 -2.909,0.183 -4.385,1.481 -4.425,3.885 0.101,1.741 0.915,2.767 2.45,3.088 z m 4.91,-14.443 -9.814,-4.384 -0.257,-1.846 11.16,-1.584 0.203,1.479 -9.025,1.281 0.008,0.059 9.824,4.445 0.241,1.724 -11.161,1.582 -0.204,-1.477 z m -10.542,29.977 c 0.653,-2.147 2.01,-3.06 4.071,-2.737 1.327,0.286 2.046,1.264 2.152,2.94 l -0.003,2.414 c -0.054,1.85 0.437,2.805 1.474,2.858 1.215,0.217 2.046,-0.641 2.496,-2.577 0.378,-1.997 -0.273,-3.196 -1.95,-3.597 l 0.308,-1.459 c 1.254,0.229 2.095,0.81 2.526,1.751 0.506,0.787 0.594,1.966 0.259,3.549 -0.685,2.861 -2.057,4.092 -4.113,3.691 -1.606,-0.344 -2.437,-1.389 -2.488,-3.137 l -0.057,-3.316 c 0.067,-0.917 -0.301,-1.464 -1.102,-1.634 -1.245,-0.268 -2.062,0.424 -2.452,2.078 -0.297,1.798 0.248,2.892 1.637,3.274 l -0.294,1.398 c -1.239,-0.311 -2.06,-0.939 -2.464,-1.887 -0.354,-0.818 -0.393,-1.879 -0.119,-3.179 0.036,-0.148 0.074,-0.292 0.119,-0.43 m 0,-46.446 8.53,-2.47 2.291,8.065 -1.302,0.377 -1.869,-6.569 -3.61,1.042 1.698,5.973 -1.304,0.378 -1.697,-5.974 -2.737,0.793 -0.637,0.185 0.637,2.237 1.197,4.214 -1.197,0.347 -0.048,0.013 -2.256,-7.945 z m 0,-4.938 6.481,-2.641 0.575,1.441 -7.056,2.877 -3.395,1.383 -0.576,-1.44 z m -154.396,80.093 c 1.254,1.518 2.508,3.035 3.762,4.552 l -2.914,2.345 c -0.149,-0.183 -0.3,-0.368 -0.451,-0.552 -1.123,-1.363 -2.276,-2.733 -3.367,-4.119 z m 54.519,41.475 v 0 l -0.084,-0.013 0.084,-0.581 z m -10.702,-2.039 v 0 l 0.37,-1.35 2.609,0.555 1.218,-6.039 -1.865,-0.387 0.284,-1.369 c 2.678,0.509 5.419,1.13 8.086,1.602 v 0.497 c -0.057,0.304 -0.117,0.581 -0.172,0.935 l -2.17,-0.433 -1.216,6.156 1.953,0.357 -0.27,1.347 -1.99,-0.38 -0.52,3.145 -4.374,-0.716 0.705,-3.282 z m 10.702,1.445 0.152,-1.03 0.842,0.138 c 0.438,-3.715 0.273,-2.97 0.739,-6.69 4.064,0.502 14.871,1.49 17.081,1.611 l -0.227,2.964 -4.393,-0.384 0.101,-1.328 -8.711,-0.859 c -0.147,1.219 -0.467,4.472 -0.559,5.319 l 2.6,0.398 0.317,-2.892 3.982,0.374 -0.299,3.159 2.671,0.404 c 0.031,-0.402 0.11,-1.277 0.095,-1.279 l -0.869,-0.148 0.192,-1.735 c 2.278,0.198 2.982,0.231 4.661,0.348 -0.068,2.026 -0.29,4.361 -0.368,5.033 l -6.577,-1.047 -0.258,3.78 -4.127,-0.191 0.441,-4.207 -2.614,-0.39 -0.161,1.496 -4.069,-0.394 0.192,-1.73 -0.834,-0.126 z m 44.19,-53.197 c 2.296,-0.804 4.44,-1.725 6.446,-2.752 1.306,-0.668 2.553,-1.381 3.744,-2.136 0.473,-0.302 0.938,-0.608 1.392,-0.921 0.841,-0.536 0.066,-1.356 -1.355,-1.244 l -0.037,0.003 c -1.23,0.097 -2.484,0.187 -3.744,0.271 -2.146,0.141 -4.315,0.26 -6.446,0.34 -3.151,0.119 -6.218,0.157 -8.993,0.062 -7.168,-0.239 -12.397,-1.348 -12.127,-4.138 l -0.04,-9.739 v -8.304 l 27.5,-3.876 17.885,-2.52 h 0.585 c -0.309,8.769 -2.877,16.962 -7.139,24.018 -0.214,0.355 -0.432,0.707 -0.655,1.057 -2.076,3.25 -4.517,6.245 -7.266,8.926 l -0.041,0.04 c -0.16,0.156 -0.32,0.309 -0.482,0.463 l -0.116,0.109 c -0.139,0.131 -0.28,0.262 -0.421,0.391 -0.056,0.053 -0.113,0.105 -0.17,0.157 C 24.789,-53.441 12.972,-48.5 0,-48.5 c -12.972,0 -24.788,-4.941 -33.673,-13.042 -0.058,-0.052 -0.114,-0.104 -0.171,-0.157 -0.141,-0.129 -0.281,-0.26 -0.42,-0.391 -0.201,-0.189 -0.401,-0.379 -0.599,-0.572 -2.771,-2.698 -5.225,-5.707 -7.306,-8.966 -0.204,-0.32 -0.404,-0.642 -0.601,-0.966 -4.433,-7.326 -6.892,-15.549 -7.194,-24.109 h 0.585 l 17.886,2.52 27.499,3.876 v 1.901 l -0.084,16.369 c 0.1,3.822 -7.874,4.191 -20.385,4.007 -0.477,-0.007 -5.549,-0.103 -5.549,-0.103 l -0.251,-0.004 -0.438,7.136 c 2.071,0.401 4.157,0.761 6.238,1.094 16.499,2.634 29.857,2.622 40.624,0.553 3.225,-0.618 6.218,-1.423 8.993,-2.395 m -78.085,38.198 4.346,2.649 0.574,-0.918 -4.282,-2.633 0.913,-1.303 4.384,2.686 0.683,-1.017 -4.368,-2.687 0.832,-1.181 c 3.867,2.393 9.402,5.76 13.032,8.005 l -0.788,1.217 c -0.535,-0.33 -1.323,-0.819 -1.768,-1.085 -0.068,-0.044 0.005,1.592 -0.063,1.556 -0.507,-0.256 -0.477,-0.155 -1.137,-0.464 0.03,-0.192 0.196,-1.704 0.1,-1.764 -0.432,-0.27 -0.576,-0.358 -0.966,-0.604 l -0.661,1.02 4.03,2.448 -0.81,1.398 -3.916,-2.393 -0.631,0.887 4.039,2.478 -0.753,1.356 -13.674,-8.384 z m 16.992,3.062 c 0.524,0.321 0.502,0.278 0.302,0.645 -1.301,2.394 -2.601,4.79 -3.901,7.184 -5.357,-2.969 -10.731,-5.97 -15.771,-9.456 l 5.048,-7.171 c 4.774,2.932 9.548,5.865 14.322,8.798 m -0.831,11.811 c -8.146,-4.397 -16.084,-9.008 -23.755,-14.217 2.579,-3.349 5.554,-7.27 8.133,-10.619 2.918,1.834 5.838,3.664 8.763,5.486 4.565,2.845 8.893,5.522 12.745,7.888 z m 17.734,-7.81 v -0.497 l 0.086,0.017 c -0.027,0.173 -0.056,0.33 -0.086,0.48 m -50.904,-22.673 2.759,-2.218 c 1.51,1.726 3.023,3.451 4.535,5.176 0.173,0.199 0.1,0.225 -0.072,0.368 l -2.664,2.224 c -1.52,-1.85 -3.039,-3.7 -4.558,-5.55 m 6.227,10.024 c -2.594,-2.924 -5.188,-5.849 -7.781,-8.773 l -1.883,1.51 -2.82,-3.335 1.9,-1.523 c -2.33,-2.848 -4.653,-5.671 -6.931,-8.573 2.097,-1.624 4.22,-3.251 6.317,-4.874 2.258,2.834 4.514,5.669 6.771,8.503 0.757,-0.609 1.513,-1.218 2.269,-1.827 l 2.81,3.332 -2.273,1.831 6.212,7.164 c 1.274,1.469 1.241,1.511 0.474,2.176 z m 99.369,16.11 -0.81,-1.454 9.382,-5.036 c -3.264,-1.112 -5.246,-0.423 -12.689,-0.591 -0.14,-0.003 -0.05,-0.59 0.202,-0.68 8.037,-2.442 9.065,-1.809 13.183,-2.048 1.77,-3.544 5.898,-8.438 9.148,-11.266 l 1.48,1.221 c -3.367,2.951 -6.288,7.611 -6.934,10.723 l 8.051,-5.835 1.072,1.303 -8.56,6.012 1.874,2.742 -3.782,2.435 -2.106,-2.692 z m 29.98,-22.133 -1.129,-0.861 4.812,-5.808 -1.587,-0.23 -0.9,-0.115 -7.231,8.206 -1.051,-0.798 7.304,-8.056 c -0.342,-0.298 -1.309,-0.476 -1.603,-0.14 l -3.427,3.931 -1.192,-0.927 6.282,-7.423 c 0.534,-0.629 1.13,-0.721 1.634,-0.425 l 1.509,0.887 5.749,-7.262 1.139,0.685 -5.634,7.016 0.45,0.524 1.759,-0.503 1.869,0.319 z M 5.886,-2.849 5.072,-11.857 c -0.1,-1.157 -1.04,-1.574 -2.036,-1.766 l 0.088,-0.931 c 1.978,0.251 3.233,0.253 4.981,2.03 0.601,2.569 0.574,4.33 0.835,7.59 l 8.258,-1.26 c -0.027,-0.48 -0.116,-0.723 -0.177,-1.194 L 9.743,-6.222 9.64,-7.371 16.873,-8.489 c -0.051,-0.422 -0.13,-0.697 -0.216,-1.186 l -6.564,0.869 -0.36,-3.167 3.462,-0.407 0.206,1.753 2.824,-0.392 C 14.22,-13.754 11.289,-14.314 7.666,-14.7 l -0.124,-1.028 c 2.951,-0.249 6.064,-0.907 10.138,1.587 2.784,-3.127 5.96,-4.132 9.913,-5.051 l 0.24,1.448 c -3.923,0.684 -7.277,2.219 -8.023,6.083 l 3.921,-0.595 -0.348,-2.334 3.751,-0.6 0.589,3.548 -7.814,1.436 c 0.073,0.486 0.077,0.726 0.156,1.182 l 9.295,-1.725 0.254,1.088 -9.38,1.801 c 0.059,0.376 0.1,0.753 0.181,1.127 1.931,-0.366 5.723,-1.096 9.822,-2.088 0.26,1.134 0.21,0.885 0.325,1.394 -8.03,2.067 -15.977,3.405 -24.676,4.578 m 55.46,-28.239 3.091,-3.084 1.095,1.058 11.446,-14.094 -1.039,-0.712 2.363,-3.909 2.699,1.854 -1.714,2.433 0.944,0.945 -2.749,4.028 -1.186,-1.38 -2.16,2.562 0.232,2.559 -3.347,3.843 -0.304,-2.137 -1.403,1.598 0.15,2.274 -3.148,3.16 -0.247,-1.829 -2.512,2.77 z m 19.495,-111.354 c 1.329,0.251 2.421,1.123 3.282,2.618 1.276,2.596 0.77,4.771 -1.519,6.515 l -0.694,-1.316 c 1.618,-1.339 2.043,-2.786 1.271,-4.343 -0.585,-1.11 -1.364,-1.762 -2.34,-1.952 -0.988,-0.194 -2.172,0.08 -3.56,0.823 -0.469,0.27 -0.88,0.553 -1.228,0.849 -1.527,1.293 -1.879,2.827 -1.06,4.6 0.31,0.555 0.663,0.98 1.06,1.281 v -0.001 c 0.693,0.524 1.518,0.661 2.484,0.412 l 0.693,1.316 c -1.189,0.392 -2.249,0.355 -3.177,-0.106 -0.839,-0.417 -1.572,-1.178 -2.199,-2.289 -1.356,-2.9 -0.624,-5.294 2.199,-7.182 0.17,-0.114 0.348,-0.225 0.533,-0.337 1.617,-0.82 3.032,-1.118 4.255,-0.888 m -165.927,70.478 c -0.083,0.023 -0.168,0.046 -0.254,0.068 -3.71,0.712 -5.969,-0.542 -6.771,-3.76 -0.519,-2.85 0.562,-4.798 3.238,-5.839 l 0.308,1.458 c -1.922,0.839 -2.725,2.112 -2.409,3.821 0.503,2.38 2.178,3.312 5.029,2.793 0.874,-0.159 1.458,-0.343 2.23,-0.783 1.47,-0.837 2.068,-2.132 1.791,-3.885 -0.394,-1.675 -1.353,-2.543 -2.883,-2.609 -0.024,-0.002 -0.041,-0.003 -0.059,-0.003 l -0.308,-1.458 c 0.111,-0.004 0.223,-0.004 0.33,-0.002 0.009,0 0.018,0 0.027,10e-4 2.171,0.048 3.556,1.315 4.159,3.798 0.482,2.991 -0.705,5.03 -3.557,6.111 -0.328,0.125 -0.558,0.2 -0.871,0.289 m 83.711,-79.268 v 0 c -10.048,0.257 -19.395,3.325 -27.289,8.446 3.845,-6.711 8.525,-12.075 13.762,-15.624 4.388,0.857 8.908,1.344 13.527,1.425 v 4.273 z m 2.75,0 v 0 -1.48 -4.273 c 4.619,-0.081 9.14,-0.568 13.527,-1.425 5.237,3.549 9.917,8.913 13.762,15.624 -7.893,-5.121 -17.241,-8.189 -27.289,-8.446 m -2.75,105.464 v 0 2.111 6.627 c -4.625,0.081 -9.151,0.568 -13.544,1.428 -6.399,-4.342 -11.966,-11.392 -16.191,-20.299 8.376,6.13 18.628,9.848 29.735,10.133 m 2.75,0 v 0 c 11.107,-0.285 21.359,-4.003 29.735,-10.133 -4.225,8.907 -9.792,15.957 -16.191,20.299 C 10.526,-36.462 6,-36.949 1.375,-37.03 v -6.627 z M 0,3 c 55.228,0 100,-44.772 100,-100 0,-55.229 -44.772,-100 -100,-100 -55.228,0 -100,44.771 -100,100 0,55.228 44.772,100 100,100" /></g></g></g></g></svg>