<svg height="316.227766" viewBox="0 0 252 252" width="316.227766" xmlns="http://www.w3.org/2000/svg"><g fill="#a72638"><path d="m126 252c-69.476562 0-126-56.523438-126-126s56.523438-126 126-126c69.480469 0 126 56.523438 126 126s-56.523438 126-126 126zm0-248.199219c-67.378906 0-122.195312 54.820313-122.195312 122.199219s54.816406 122.199219 122.195312 122.199219c67.382812 0 122.195312-54.820313 122.195312-122.199219s-54.816406-122.199219-122.195312-122.199219zm0 0"/><path d="m21.363281 130.28125c3.765625-.257812 6.035157 1.277344 6.164063 3.191406.066406.980469-.5625 1.816406-1.316406 2.386719l-1.796876-.832031c.492188-.410156.828126-.832032.792969-1.363282-.066406-.972656-1.425781-1.683593-3.625-1.535156-2.246093.152344-3.503906.925782-3.433593 1.988282.039062.597656.527343 1.054687 1.132812 1.367187l-1.636719 1.066406c-1.148437-.5625-1.769531-1.363281-1.835937-2.347656-.128906-1.910156 1.730468-3.664063 5.554687-3.921875zm0 0"/><path d="m27.644531 137.425781.261719 1.796875-4.261719.621094.363281 2.457031 4.257813-.621093.261719 1.777343-11.199219 1.636719-.261719-1.777344 4.605469-.671875-.359375-2.460937-4.605469.671875-.261719-1.792969zm0 0"/><path d="m28.988281 145.667969.375 1.777343-11.074219 2.335938-.375-1.777344zm0 0"/><path d="m29.832031 149.640625.492188 1.78125-4.71875 3.253906-2.222657 1.382813.015626.050781c1.128906-.421875 2.660156-.992187 3.964843-1.355469l3.605469-1 .460938 1.664063-10.90625 3.023437-.492188-1.78125 4.765625-3.257812 2.191406-1.375-.011719-.050782c-1.195312.417969-2.648437.976563-3.96875 1.34375l-3.621093 1.003907-.464844-1.660157zm0 0"/><path d="m25.144531 163.824219-.765625-2.097657-2.589844.476563-.628906-1.734375 11.4375-1.664062.742188 2.039062-9.839844 6.066406-.648438-1.792968zm1.855469-1.042969.84375-.480469c.992188-.574219 2.195312-1.21875 3.214844-1.800781l-.015625-.039062c-1.175781.230468-2.492188.496093-3.613281.699218l-.957032.171875zm0 0"/><path d="m30.410156 169.515625 5.378906-2.644531.796876 1.621094-5.640626 2.769531c-1.925781.945312-2.417968 1.664062-2.050781 2.40625.363281.738281 1.246094.8125 3.171875-.132813l5.640625-2.769531.769531 1.566406-5.378906 2.644531c-3.425781 1.683594-5.417968 1.53125-6.300781-.269531-.894531-1.8125.1875-3.507812 3.613281-5.191406zm0 0"/><path d="m39.484375 174.191406.945313 1.582032-3.683594 4.390624-1.773438 1.925782.027344.042968c.980469-.707031 2.304688-1.664062 3.464844-2.359374l3.210937-1.921876.886719 1.476563-9.714844 5.816406-.945312-1.582031 3.726562-4.40625 1.746094-1.90625-.023438-.042969c-1.042968.714844-2.296874 1.644531-3.472656 2.347657l-3.226562 1.929687-.882813-1.476563zm0 0"/><path d="m43.839844 181.199219 1.023437 1.5-9.324219 6.40625-1.03125-1.496094zm0 0"/><path d="m45.582031 183.796875 1.175781 1.515625-3.554687 3.835938c-.824219.921874-1.664063 1.75-2.503906 2.679687l.03125.039063c1.101562-.585938 2.128906-1.175782 3.222656-1.746094l4.601563-2.480469 1.128906 1.460937-10.34375 5.125-1.328125-1.71875zm0 0"/><path d="m50.511719 190.042969 3.183593 3.578125-1.683593 1.496094-1.972657-2.21875-1.570312 1.398437 1.679688 1.882813-1.703126 1.515624-1.679687-1.882812-1.796875 1.597656 2.054688 2.300782-1.707032 1.519531-3.257812-3.65625zm0 0"/><path d="m50.160156 206.078125 1.78125-3.828125-.625-.605469-2.777344 2.859375-1.300781-1.265625 7.882813-8.121093 1.984375 1.925781c1.160156 1.125 1.546875 2.648437-.359375 4.613281-1.152344 1.191406-2.269532 1.59375-3.207032 1.441406l-1.917968 4.394532zm2.648438-5.976563.585937.566407c.617188.597656 1.335938.511719 2.082031-.25.738282-.765625.65625-1.335938.039063-1.933594l-.585937-.5625zm0 0"/><path d="m53.8125 207.542969 1.988281-.773438c-.027343.867188.203125 1.679688.664063 2.066407.511718.425781.996094.339843 1.390625-.125.417969-.503907.238281-.933594.003906-1.664063l-.347656-1.082031c-.300781-.871094-.230469-2.105469.824219-3.359375 1.222656-1.457031 3.070312-1.894531 4.296874-.859375.667969.558594 1.050782 1.539062.921876 2.71875l-1.785157.726562c-.023437-.753906-.183593-1.285156-.632812-1.664062-.425781-.359375-.90625-.324219-1.296875.140625-.398438.480469-.191406.972656.066406 1.707031l.359375 1.039062c.351563 1.03125.175781 2.109376-.855469 3.332032-1.210937 1.445312-3.085937 2.035156-4.484375.863281-.753906-.640625-1.207031-1.738281-1.113281-3.066406zm0 0"/><path d="m65.988281 204.703125 1.453125 1.085937-6.789062 9.054688-1.449219-1.085938zm0 0"/><path d="m69.242188 209.816406-1.699219-1.128906 1.25-1.875 4.910156 3.269531-1.246094 1.875-1.707031-1.132812-5.019531 7.546875-1.511719-1.003906zm0 0"/><path d="m72.4375 217.816406 1.667969-7.476562 1.671875.957031-.707032 2.488281c-.25.839844-.472656 1.625-.726562 2.496094l.035156.019531c.625-.660156 1.195313-1.246093 1.804688-1.878906l1.792968-1.863281 1.644532.941406-5.621094 5.214844-1.988281 3.46875-1.566407-.898438zm0 0"/><path d="m80.796875 220.375c1.496094-3.398438 3.621094-4.757812 5.507813-3.925781 1.882812.828125 2.3125 3.324219.824218 6.710937-1.492187 3.398438-3.671875 4.867188-5.554687 4.039063-1.886719-.828125-2.273438-3.425781-.777344-6.824219zm4.640625 2.042969c.882812-2.007813.835938-3.441407-.070312-3.839844-.914063-.398437-1.988282.539063-2.867188 2.542969-.890625 2.019531-.890625 3.53125.019531 3.933594.910157.398437 2.03125-.617188 2.917969-2.636719zm0 0"/><path d="m91.117188 218.671875 4.542968 1.597656-.746094 2.125-2.832031-.996093-.824219 2.339843 2.429688.855469-.75 2.136719-2.429688-.855469-1.429687 4.078125-1.710937-.605469zm0 0"/><path d="m100.171875 221.628906 1.90625.441406.070313 5.027344c0 .671875-.042969 1.394532-.058594 2.109375l.046875.015625c.304687-.652344.585937-1.320312.871093-1.925781l2.226563-4.496094 1.917969.441407-2.546875 11.03125-1.609375-.371094.871094-3.78125c.253906-1.097656.769531-2.710938 1.113281-3.769532l-.039063-.011718-1.222656 2.496094-1.921875 3.808593-.96875-.226562-.066406-4.257813.015625-2.777344-.039063-.011718c-.160156 1.101562-.402343 2.78125-.65625 3.878906l-.871093 3.78125-1.578126-.367188zm0 0"/><path d="m109.34375 223.578125 1.792969.289063-1.789063 11.175781-1.792968-.289063zm0 0"/><path d="m113.351562 224.210938 1.835938.179687 1.347656 5.570313.496094 2.570312.046875.003906c.015625-1.207031.03125-2.839844.164063-4.1875l.359374-3.730468 1.71875.167968-1.089843 11.265625-1.839844-.175781-1.328125-5.613281-.5-2.542969-.046875-.003906c-.042969 1.261718-.042969 2.824218-.171875 4.183594l-.359375 3.738281-1.71875-.164063zm0 0"/><path d="m121.582031 224.875 1.8125.0625-.386719 11.308594-1.8125-.058594zm0 0"/><path d="m125.75 224.96875 1.84375-.023438 1.953125 5.386719.777344 2.496094h.050781c-.117188-1.199219-.285156-2.824219-.300781-4.175781l-.054688-3.746094 1.722657-.023438.164062 11.320313-1.847656.023437-1.941406-5.433593-.777344-2.46875h-.050782c.097657 1.265625.273438 2.8125.292969 4.179687l.050781 3.757813-1.722656.027343zm0 0"/><path d="m134.042969 230.421875c-.402344-3.75 1.054687-6.078125 3.058593-6.292969 1.097657-.117187 1.960938.496094 2.558594 1.214844l-.773437 1.824219c-.417969-.457031-.851563-.796875-1.476563-.730469-1.105468.117188-1.765625 1.503906-1.53125 3.699219.238282 2.238281 1.039063 3.464843 2.433594 3.320312.273438-.03125.542969-.164062.683594-.367187l-.191406-1.8125-1.191407.125-.234375-2.207032 2.792969-.300781.558594 5.265625c-.441407.8125-1.304688 1.53125-2.351563 1.640625-2.089844.226563-3.933594-1.566406-4.335937-5.378906zm0 0"/><path d="m153.164062 233.175781c-.648437-.023437-1.402343-.28125-2.164062-.675781-.472656.820312-1.164062 1.410156-2.085938 1.613281-1.652343.363281-2.828124-.945312-3.199218-2.628906-.339844-1.542969.085937-2.570313.652344-3.398437-.464844-.738282-.792969-1.472657-.945313-2.171876-.347656-1.574218.136719-3.085937 1.40625-3.367187 1.125-.25 2.082031.585937 2.421875 2.128906.320312 1.453125-.234375 2.511719-.835938 3.457031.558594.59375 1.191407 1.125 1.832032 1.574219.199218-.792969.292968-1.71875.257812-2.769531l1.605469-.355469c.027344 1.398438-.097656 2.71875-.410156 3.96875.53125.238281 1.019531.398438 1.40625.390625zm-5.796874-6.382812c.40625-.558594.691406-1.105469.535156-1.816407-.113282-.503906-.335938-.765624-.660156-.695312-.347657.074219-.539063.570312-.375 1.316406.085937.386719.257812.796875.5 1.195313zm1.320312 5.257812c.277344-.0625.542969-.261719.777344-.5625-.6875-.535156-1.347656-1.167969-1.941406-1.84375-.175782.429688-.269532.855469-.167969 1.3125.171875.789063.699219 1.234375 1.332031 1.09375zm0 0"/><path d="m157.527344 222.214844-1.933594.652344-.71875-2.132813 5.589844-1.882813.722656 2.132813-1.941406.65625 2.898437 8.589844-1.722656.578125zm0 0"/><path d="m161.992188 218.246094 4.417968-1.84375.871094 2.078125-2.746094 1.144531.8125 1.9375 2.328125-.976562.878907 2.105468-2.332032.972656.929688 2.21875 2.84375-1.1875.878906 2.101563-4.519531 1.890625zm0 0"/><path d="m170.558594 220.800781c-1.699219-3.371093-1.167969-6.058593.542968-6.917969.878907-.445312 1.894532-.1875 2.710938.285157l-.070312 1.976562c-.566407-.292969-1.085938-.441406-1.566407-.199219-.867187.441407-.996093 1.96875 0 3.9375 1.011719 2.007813 2.21875 2.867188 3.167969 2.390626.535156-.269532.765625-.894532.820312-1.574219l1.621094 1.089843c-.070312 1.28125-.566406 2.160157-1.445312 2.605469-1.714844.863281-4.050782-.171875-5.78125-3.59375zm0 0"/><path d="m174.691406 212.238281 1.550782-.945312 2.234374 3.679687 2.121094-1.289062-2.234375-3.683594 1.535157-.929688 5.875 9.671876-1.53125.929687-2.417969-3.976563-2.121094 1.289063 2.414063 3.980469-1.550782.945312zm0 0"/><path d="m181.707031 207.867188 1.492188-1.085938 4.703125 3.277344 2.074218 1.597656.042969-.03125c-.789062-.910156-1.863281-2.144531-2.660156-3.238281l-2.199219-3.027344 1.390625-1.011719 6.65625 9.152344-1.488281 1.085938-4.722656-3.320313-2.058594-1.570313-.042969.03125c.8125.972657 1.847657 2.140626 2.648438 3.242188l2.210937 3.039062-1.394531 1.015626zm0 0"/><path d="m191.65625 207.460938c-2.425781-2.808594-2.738281-5.3125-1.179688-6.660157 1.558594-1.34375 3.996094-.660156 6.414063 2.140625 2.425781 2.808594 2.8125 5.40625 1.257813 6.75-1.558594 1.34375-4.066407.578125-6.492188-2.230468zm3.835938-3.3125c-1.429688-1.660157-2.742188-2.234376-3.496094-1.585938-.753906.652344-.367188 2.027344 1.0625 3.6875 1.441406 1.667969 2.804687 2.320312 3.558594 1.667969.753906-.648438.316406-2.097657-1.125-3.769531zm0 0"/><path d="m194.554688 197.40625 1.28125-1.285156 6.402343 6.378906 2.066407-2.074219 1.617187 1.609375-3.347656 3.363282zm0 0"/><path d="m202.84375 196.996094c-2.808594-2.429688-3.480469-4.859375-2.132812-6.417969 1.347656-1.558594 3.859374-1.230469 6.65625 1.1875 2.808593 2.425781 3.574218 4.9375 2.226562 6.496094-1.347656 1.554687-3.945312 1.164062-6.75-1.265625zm3.316406-3.835938c-1.652344-1.429687-3.035156-1.808594-3.6875-1.058594s-.070312 2.058594 1.585938 3.492188c1.667968 1.441406 3.113281 1.886719 3.761718 1.136719.652344-.753907.007813-2.128907-1.660156-3.570313zm0 0"/><path d="m208.664062 190.3125c-3.046874-2.230469-3.789062-4.871094-2.601562-6.5.652344-.890625 1.683594-1.117188 2.617188-1.078125l.832031 1.804687c-.621094 0-1.160157.089844-1.535157.597657-.65625.902343-.074218 2.320312 1.703126 3.621093 1.816406 1.332032 3.269531 1.5625 4.09375.433594.164062-.21875.246093-.515625.191406-.75l-1.472656-1.078125-.707032.964844-1.792968-1.308594 1.660156-2.269531 4.273437 3.125c.300781.875.253907 1.996094-.367187 2.847656-1.234375 1.695313-3.800782 1.855469-6.894532-.410156zm0 0"/><path d="m215.726562 182.992188-7.410156-1.949219 1.019532-1.636719 2.460937.796875c.828125.28125 1.601563.535156 2.464844.824219l.023437-.03125c-.636718-.652344-1.203125-1.242188-1.8125-1.875l-1.792968-1.863282 1.003906-1.609374 5 5.8125 3.390625 2.121093-.957031 1.527344zm0 0"/><path d="m216.890625 178.476562 1.40625-2.503906 1.65625.929688-1.402344 2.503906zm0 0"/><path d="m214 171.394531 1.148438-2.371093c.679687-1.40625 1.78125-2.261719 3.742187-1.3125.90625.433593 1.726563 1.25 1.777344 1.949218l.054687.027344c.605469-.554688 1.625-.703125 2.980469-.046875 2.082031 1.007813 2.445313 2.636719 1.726563 4.113281l-1.238282 2.566406zm5.160156-.355469c.335938-.695312.03125-1.222656-.664062-1.5625-.726563-.351562-1.183594-.175781-1.515625.507813l-.328125.675781 2.175781 1.050782zm4.335938 1.929688c.378906-.789062.152344-1.394531-.726563-1.816406-.835937-.402344-1.355469-.171875-1.738281.621094l-.394531.8125 2.464843 1.195312zm0 0"/><path d="m217.1875 164.59375 1.761719-4.453125 2.09375.832031-1.09375 2.761719 1.949219.773437.933593-2.347656 2.121094.84375-.933594 2.347656 2.238281.882813 1.136719-2.863281 2.121094.84375-1.808594 4.550781zm0 0"/><path d="m219.640625 158.121094.574219-1.726563 10.738281 3.578125-.574219 1.722656zm0 0"/><path d="m229.828125 157.414062-1.007813-1.558593c.820313-.050781 1.257813-.328125 1.351563-.683594.15625-.566406-.1875-.984375-1.609375-1.375l-7.011719-1.921875.476563-1.75 7.21875 1.980469c2.144531.585937 3.695312 1.824219 3.246094 3.453125-.304688 1.136718-1.167969 1.699218-2.664063 1.855468zm0 0"/><path d="m222.53125 147.941406.386719-1.773437 11.058593 2.398437-.382812 1.773438zm0 0"/><path d="m223.386719 143.972656.28125-1.824218 5.636719-1.042969 2.59375-.351563.003906-.050781c-1.203125-.078125-2.832032-.183594-4.171875-.386719l-3.699219-.5625.257812-1.707031 11.191407 1.703125-.28125 1.824219-5.679688 1.023437-2.5625.359375-.007812.050781c1.265625.109376 2.820312.191407 4.175781.394532l3.710938.566406-.257813 1.703125zm0 0"/><path d="m230.207031 136.625c-3.765625-.261719-5.800781-2.101562-5.660156-4.117188.078125-1.101562.828125-1.839843 1.640625-2.300781l1.660156 1.078125c-.527344.328125-.933594.699219-.976562 1.324219-.078125 1.113281 1.171875 2.003906 3.375 2.15625 2.242187.160156 3.597656-.417969 3.691406-1.8125.019531-.273437-.066406-.566406-.238281-.738281l-1.820313-.128906-.082031 1.195312-2.21875-.15625.199219-2.800781 5.277344.371093c.722656.578126 1.28125 1.550782 1.207031 2.605469-.148438 2.09375-2.230469 3.59375-6.054688 3.324219zm0 0"/><path d="m38.546875 99.457031c-.628906-.363281-1.28125-.71875-1.96875-.957031-1.585937-.546875-3.199219-1.035156-4.804687-1.523438-.511719-.15625-.945313-.390624-1.304688-.796874-.328125-.371094-.714844-.621094-1.246094-.695313-.46875-.0625-.933594-.238281-1.375-.417969-.421875-.171875-.796875-.480468-1.230468-.605468-.902344-.261719-1.324219-.882813-1.578126-1.730469-.453124-1.519531-.945312-3.027344-1.4375-4.53125-.332031-1.011719-.964843-1.34375-1.902343-.875-.640625.316406-1.226563.792969-1.753907 1.289062-.648437.609375-1.121093 1.351563-1.398437 2.226563-.257813.792968-.503906.941406-1.292969.734375-.964844-.261719-1.902344-.632813-2.863281-.925781-.394531-.121094-.859375-.320313-1.207031-.210938-.53125.167969-1.023438.53125-1.46875.890625-.453125.359375-.503906.902344-.332032 1.425781.183594.558594.644532.835938 1.207032.8125 1.605468-.058594 3.050781.550782 4.535156 1.015625.414062.128907.644531.378907.8125.785157.25.617187.542969 1.230468.886719 1.796874.824219 1.351563 1.691406 2.683594 2.570312 4.070313-.15625.1875-.226562.285156-.3125.367187-.085937.085938-.199219.148438-.28125.234376-.339843.367187-.324219.632812.085938.898437.476562.304687 1.03125.503906 1.570312.3125.886719-.3125 1.757813-.695313 2.59375-1.128906.609375-.316407.875-.894531.851563-1.609375-.015625-.390625.027344-.789063.085937-1.175782.058594-.386718.191407-.757812.246094-1.144531.082031-.574219.179687-.675781.765625-.621093.886719.082031 1.726562.324218 2.550781.6875 2.496094 1.097656 5.113281 1.832031 7.742188 2.527343.320312.082031.683593.136719.988281.0625.25-.0625.554688-.300781.636719-.535156.054687-.164063-.175781-.535156-.371094-.652344zm-17.523437-8.53125c.328124.566407.625 1.074219.914062 1.578125-.628906.457032-1.417969.429688-1.710938-.015625-.269531-.414062-.019531-.957031.796876-1.5625zm1.539062 8.214844c-1.015625-.796875-1.421875-1.992187-2.210938-3.167969.457032-.003906.664063-.042968.855469 0 .417969.089844.820313.242188 1.234375.335938.773438.171875 1.332032.476562 1.378906 1.410156.019532.425781.332032.835938.535157 1.304688-.753907.507812-1.226563.5625-1.792969.117187zm0 0"/><path d="m50.277344 64.46875c-.246094-.757812-.722656-1.214844-1.5-1.347656-.671875-.121094-1.34375-.210938-2.019532-.300782-1.277343-.167968-1.425781-.308593-1.648437-1.589843-.089844-.515625-.132813-1.050781-.277344-1.550781-.15625-.550782-.539062-.628907-.984375-.265626-.191406.160157-.367187.335938-.550781.503907-.246094.222656-.59375.40625-.703125.683593-.09375.242188.078125.59375.136719.90625-.097657-.015624-.164063-.015624-.21875-.035156-.835938-.265625-1.433594-.792968-1.914063-1.53125-.945312-1.46875-2.527344-1.429687-3.433594.050782-.128906.210937-.234374.441406-.339843.664062-.199219.429688-.125.820312.296875 1.039062.753906.402344.882812 1.019532.816406 1.800782-.074219.796875.164062.933594 1.183594.671875.171875.503906.335937.957031.484375 1.417969.230469.714843.515625.988281 1.191406.878906.667969-.105469.953125.175781 1.191406.738281.402344.964844 1.117188 1.710937 1.867188 2.410156.53125.496094 1.011719.359375 1.144531-.351562.09375-.53125.078125-1.117188-.042969-1.644531-.195312-.84375-.511719-1.65625-.792969-2.480469-.089843-.261719-.1875-.546875-.371093-.738281-.140625-.148438-.457031-.265626-.625-.203126-.152344.054688-.269531.375-.273438.582032-.003906.234375.160157.464844.214844.707031.136719.605469.390625 1.195313.25 1.855469-.292969-.375-.523437-.773438-.6875-1.195313-.199219-.519531-.316406-1.070312-.515625-1.589843-.332031-.867188-.792969-1.027344-1.652344-.632813-.101562.046875-.226562.046875-.390625.074219-.195312-.503906-.375-.976563-.59375-1.546875 1.027344.125 1.808594.464843 2.535157.953125.410156.277344.800781.527344 1.328124.597656.3125.042969.660157.347656.847657.628906.246093.382813.371093.847656.515625 1.285156.203125.617188.359375 1.253907.566406 1.871094.121094.363282.339844.679688.78125.683594.328125.003906.621094-.375.621094-.910156 0-.488282-.109375-.976563-.179688-1.464844-.042968-.289062-.105468-.574219-.183594-1 .996094.167969 1.75.496094 2.464844 1.050781-.445312 1.113281-.871094 2.144531-1.265625 3.1875-.15625.402344-.292969.820313-.347656 1.246094-.066406.476563.171875.683594.660156.648437 1.066407-.078124 1.773438-.652343 2.214844-1.605468.519531-1.121094.960937-2.269532 1.03125-3.523438.011719-.238281-.125-.507812-.25-.730468-.171875-.308594-.476563-.570313-.582031-.898438zm0 0"/><path d="m42.109375 59.664062c.730469-.289062 1.511719-1.796874 1.363281-2.539062-.15625-.765625-.820312-1.152344-1.523437-.804688-.484375.246094-.933594.597657-1.335938.96875-.167969.152344-.316406.554688-.230469.71875.285157.5625.65625 1.09375 1.058594 1.585938.105469.128906.476563.148438.667969.070312zm0 0"/><path d="m56.066406 62.664062c-2.972656-1.511718-5.6875-3.421874-8.371094-5.375-2.789062-2.027343-5.011718-4.503906-6.238281-7.800781-.554687-1.488281-2.3125-2.183593-3.78125-1.570312-.683593.285156-1.3125.699219-1.980469 1.015625-1.070312.503906-1.648437 1.375-1.9375 2.476562-.550781 2.113282-.703124 4.277344-.730468 6.449219-.011719.847656.429687 1.542969.90625 2.195313.113281.15625.4375.238281.644531.207031.109375-.015625.246094-.335938.25-.523438.015625-.496093-.007813-.996093-.050781-1.484375-.183594-2.023437.261718-3.949218.9375-5.828125.253906-.710937.832031-.90625 1.492187-.546875.296875.164063.550781.40625.816407.613282 1.089843.816406 2.125 1.722656 3.277343 2.441406 2.207031 1.375 4.125 3.0625 5.859375 4.988281.453125.503906.941406 1 1.484375 1.398437 1.996094 1.476563 3.984375 2.953126 5.691407 4.78125.277343.300782.707031.523438 1.105468.644532 1.050782.3125 1.941406-.292969 2.085938-1.378906.042968-.332032.007812-.675782.011718-1.015626-.109374-.914062-.769531-1.332031-1.472656-1.6875zm0 0"/><path d="m45.15625 73c-1.285156-.96875-2.605469-1.890625-3.859375-2.894531-1.542969-1.242188-3.011719-2.582031-4.558594-3.816407-1.335937-1.066406-2.632812-2.148437-3.566406-3.613281-.261719-.40625-.660156-.753906-1.070313-1.015625-.378906-.234375-.84375-.371094-1.292968-.449218-.394532-.0625-.816406.335937-.863282.699218-.050781.40625.238282.542969.546876.621094.484374.121094.667968.507812.875.894531.191406.34375.382812.707031.664062.976563 1.675781 1.640625 3.382812 3.257812 5.070312 4.890625.152344.148437.308594.316406.40625.503906.570313 1.117187 1.503907 1.863281 2.523438 2.53125.3125.203125.589844.449219.886719.675781 1.117187.839844 2.195312 1.726563 3.355469 2.492188.605468.394531 1.335937.652344 2.042968.816406.683594.15625 1.183594-.402344 1.03125-1.214844-.148437-.203125-.363281-.585937-.671875-.875-.476562-.441406-1-.832031-1.519531-1.222656zm0 0"/><path d="m73.742188 23.546875c.734374-.464844 1.460937-.941406 2.160156-1.457031.488281-.355469.511718-.738282.101562-1.179688-.5-.542968-1.160156-.820312-1.875-.953125-1.34375-.253906-2.097656.445313-1.941406 2.046875.082031.25.175781.746094.394531 1.179688.265625.523437.714844.644531 1.160157.363281zm0 0"/><path d="m77.128906 33.722656c.007813-1.128906-.160156-1.488281-1.195312-1.933594-.316406-.132812-.636719-.253906-.96875-.339843-.621094-.164063-.808594-.015625-.796875.617187.015625.847656.214843 1.648438.539062 2.441406.730469 1.796876 1.226563 3.648438 1.066407 5.621094-.097657 1.144532-.117188 2.296875-.191407 3.441406-.140625 2.183594-.429687 4.335938-1.71875 6.210938-.105469.152344-.105469.382812-.152343.5625.4375.261719.671874.035156.847656-.226562.445312-.671876.941406-1.328126 1.265625-2.058594.71875-1.621094 1.257812-3.304688 1.519531-5.078125.308594-2.128907.539062-4.234375-.003906-6.378907-.234375-.921874-.214844-1.917968-.210938-2.878906zm0 0"/><path d="m78.621094 23.257812c-.394532-.433593-.96875-.5625-1.523438-.277343-.355468.183593-.691406.429687-.980468.703125-.382813.363281-.710938.785156-1.058594 1.179687-.953125 1.085938-1.679688 2.417969-3.148438 2.960938-.109375.039062-.199218.148437-.285156.242187-.242188.257813-.253906.550782-.113281.863282.339843.753906 1.546875 1.480468 2.480469 1.40625.636718.011718 1.015624-.457032 1.21875-1.097657.242187-.773437.734374-1.316406 1.3125-1.875.800781-.773437 1.484374-1.671875 2.164062-2.5625.410156-.550781.335938-1.101562-.066406-1.542969zm0 0"/><path d="m65.40625 43.0625c.445312-2.292969.8125-4.601562 1.351562-6.867188.421876-1.753906 1.027344-3.460937 1.609376-5.171874.285156-.851563.691406-1.660157 1.078124-2.472657.40625-.855469.292969-1.394531-.59375-1.714843-1.421874-.511719-2.242187-.488282-3.011718.804687-1.140625 1.925781-2.199219 4.023437-4.617188 4.78125-.410156.128906-.667968.558594-.664062 1.046875.003906.523438.382812.757812.785156.949219.917969.433593 2.011719.164062 2.699219-.65625.433593-.515625.636719-1.125.714843-1.792969.121094-.996094.828126-1.660156 1.308594-2.449219.066406.019531.136719.039063.203125.058594.015625.230469.070313.464844.042969.691406-.164062 1.421875-.289062 2.847657-.53125 4.257813-.523438 3.066406-1.054688 6.132812-1.683594 9.183594-.320312 1.550781-.824218 3.0625-1.3125 4.570312-.339844 1.054688.144532 2.355469 1.15625 2.792969.367188.160156.730469.171875 1.0625-.082031.320313-.246094.46875-.59375.390625-.988282-.039062-.199218-.164062-.402344-.300781-.5625-.523438-.609375-.703125-1.285156-.535156-2.082031.296875-1.425781.570312-2.863281.847656-4.296875zm0 0"/><path d="m72.546875 36.316406c-.421875-.789062-1.125-1.027344-1.980469-.746094-.855468.285157-1.578125.765626-1.960937 1.605469-.367188.808594-.828125 1.488281-1.570313 2.019531-.621094.445313-.632812.875-.246094 1.546876.261719.457031.578126.882812.839844 1.339843.167969.292969.417969.363281.710938.300781.664062-.136718 1.339844-.253906 1.980468-.464843.296876-.097657.53125-.398438.777344-.621094.273438-.25.488282-.578125.796875-.761719.988281-.589844 1.207031-1.507812 1.199219-2.777344-.125-.355468-.269531-.929687-.546875-1.441406zm-1.652344 3.441406c-.089843.222657-1.722656-.015624-1.761719-.398437 0 0-.183593-.746094.246094-1.101563.429688-.359374 1.273438-.933593 1.378906-.265624.109376.660156.230469 1.542968.136719 1.765624zm0 0"/><path d="m110.710938 9.21875c-.578126-.332031-1.234376-.59375-1.890626-.726562-1.730468-.347657-2.796874 1.070312-2.738281 2.46875.023438.617187.164063 1.234374.15625 1.851562-.011719.496094-.15625.992188-.25 1.492188 0 .011718 0 .023437-.003906.035156 0 0 .003906.003906.007813.003906.148437.105469.292968.21875.445312.308594.074219.042968.175781.042968.308594.070312.164062-.207031.335937-.417968.527344-.664062.054687.070312.140624.132812.140624.195312.050782 1.953125.101563 3.902344.117188 5.855469.003906.429687-.128906.855469-.214844 1.285156-.035156.179688-.09375.363281-.175781.527344-.171875.367187-.875.824219-1.199219.769531-.488281-.085937-.464844-.5625-.546875-.882812-.199219-.78125-.335937-1.574219-.453125-2.371094-.164062-1.113281-.007812-2.144531.683594-3.09375.414062-.570312.714844-1.246094.367188-1.996094-.003907 0-.003907-.003906-.007813-.003906l-.003906-.003906c.003906-.011719.003906-.019532.007812-.035156.132813-.996094-.496093-1.511719-1.269531-1.890626-.738281-.367187-1.546875-.421874-2.367188-.351562-.882812.070312-1.550781.457031-1.839843 1.328125-.273438.820313-.074219 1.558594.601562 2.089844.617188.480469.917969 1.0625.851563 1.839843-.015625.148438.015625.308594.046875.460938.371093 1.726562.710937 3.464844 1.136719 5.175781.195312.765625.03125 1.375-.507813 1.855469-.40625.359375-.925781.605469-1.410156.867188-.300781.160156-.625.269531-.945313.390624-.589844.230469-.75.683594-.699218 1.269532.128906 1.65625 1.855468 2.953125 3.535156 2.648437.289062-.050781.578125-.09375.816406-.128906.257812.964844.484375 1.816406.746094 2.792969-.410156.117187-.871094.25-1.332032.386718-.933593.273438-1.40625 1.011719-1.179687 2.007813.234375 1.046875.890625 1.945313 1.863281 1.886719.214844-.011719.445313-.042969.632813-.140625.4375-.226563.90625-.441407 1.261719-.769531.914062-.835938 1.875-1.511719 3.164062-1.625.28125-.027344.601562-.207032.800781-.417969.359375-.371094.773438-.472657 1.253907-.511719.96875-.078125 1.898437-.320312 2.742187-.816406 1.027344-.609375 1.226563-1.902344.445313-2.792969-.621094-.710937-1.390626-1.035156-2.328126-.828125-.628906.136719-1.25.324219-1.933593.507812-.175781-.304687-.410157-.601562-.519531-.9375-.101563-.308593-.140626-.679687-.070313-.996093.125-.589844.609375-.851563 1.164063-.910157.6875-.070312 1.117187-.449218 1.457031-1.007812.417969-.6875.851562-1.375 1.324219-2.027344.617187-.859375.515624-1.65625-.039063-2.496094-.546875-.824218-1.316406-.980468-2.199219-.820312-.335937.058594-.652344.199219-.980468.292969-.191407.050781-.382813.082031-.683594.144531.105468-.660156.203125-1.203125.273437-1.75.234375-1.800781.109375-3.601562-.09375-5.390625-.09375-.808594.09375-1.460937.652344-2.035156.238281-.242188.464844-.503907.652344-.789063.417969-.640625.351562-1.222656-.300781-1.597656zm-3.628907 22.179688c-.125-.566407-.242187-1.132813-.363281-1.695313.535156.609375.578125.773437.363281 1.695313zm-.632812-3.746094c-.054688-.246094-.121094-.429688-.132813-.617188-.035156-.648437-.050781-1.296875-.074218-1.945312-.035157-.996094.054687-1.113282 1.191406-1.476563.503906 1.148438.117187 2.75-.984375 4.039063zm0 0"/><path d="m105.988281 14.339844s-.003906-.003906-.003906-.003906 0 0 .003906.003906zm0 0"/><path d="m134.054688 32.207031c-.199219-.730469-.195313-1.46875.324218-2.089843.113282-.132813.371094-.195313.5625-.199219.167969-.003907.378906.082031.503906.199219.765626.710937 1.453126.382812 2.132813-.128907 1.601563-1.210937 3.007813-2.605469 4.070313-4.328125.539062-.871094.542968-.960937-.257813-1.566406-.816406-.617188-1.296875-1.371094-1.222656-2.421875.070312-1.050781.652343-1.5625 1.691406-1.453125.453125.050781.898437.199219 1.351563.257812.359374.046876.730468.050782 1.089843.027344.410157-.027344.667969-.261718.777344-.667968.183594-.691407.496094-1.308594.960937-1.863282.15625-.183594.203126-.503906.203126-.761718.011718-.800782.230468-1.515626.773437-2.109376.464844-.511718.578125-1.054687.265625-1.6875-.132812-.269531-.265625-.5625-.304688-.859374-.066406-.476563-.144531-.980469-.050781-1.441407.140625-.71875.632813-1 1.363281-.90625.273438.03125.539063.128907.8125.144531 1.4375.058594 2.171876.964844 2.65625 2.179688.414063 1.042969-.019531 2.164062-1.140624 2.90625-.203126.132812-.421876.253906-.644532.355469-1.234375.550781-1.5 1.597656-1.464844 2.8125.015626.417969.195313.65625.582032.832031.636718.296875 1.273437.613281 1.859375.992188.6875.445312.816406.9375.546875 1.558593-.289063.65625-.683594.832031-1.5.707031-.636719-.101562-1.269532-.1875-1.910156-.273437-.5625-.074219-.992188.128906-1.371094.566406-1.082032 1.261719-1.1875 2.84375-.1875 4.335938.648437.96875 1.285156 1.957031 2.046875 2.828125 1.136719 1.300781 2.449219 2.40625 4.089843 3.054687.351563.136719.878907.164063.847657.691407-.03125.570312-.574219.589843-.980469.617187-1.070312.082031-2.144531.15625-3.214844.121094-.421875-.011719-.894531-.230469-1.246094-.484375-.855468-.621094-1.496093-1.433594-1.90625-2.429688-.511718-1.246094-1.042968-2.480468-1.582031-3.714844-.109375-.246093-.289062-.460937-.546875-.867187-.394531.492187-.6875.871094-.992187 1.238281-.917969 1.105469-1.78125 2.269532-2.789063 3.289063-.816406.835937-1.847656 1.410156-3.097656 1.402343-.582031-.003906-1.164062.070313-1.746094.042969-.621094-.019531-1.175781-.242187-1.355468-.90625zm0 0"/><path d="m190.929688 25.335938c-.371094.261718-.710938.578124-1.070313.863281-.238281.183593-.460937.40625-.730469.53125-1.359375.609375-2.734375 1.195312-4.132812 1.800781.859375-.636719 1.695312-1.238281 2.511718-1.875.28125-.21875.5625-.488281.734376-.792969.390624-.683593.136718-1.515625-.554688-2.027343-.511719-.371094-1.140625-.269532-1.730469.277343-.167969.152344-.351562.292969-.503906.417969-.378906-.433594-.660156-.839844-1.023437-1.144531-.816407-.683594-1.679688-.511719-2.238282.40625-.222656.363281-.398437.753906-.601562 1.128906-.851563 1.589844-1.691406 3.183594-2.558594 4.761719-.285156.507812-.21875.996094-.058594 1.503906.234375.714844.6875.9375 1.328125.558594.371094-.21875.644531-.605469.960938-.921875.003906.089843-.003907.207031.011719.324219.066406.476562.03125 1.078124.546874 1.273437.550782.207031.828126-.363281 1.160157-.699219.023437-.023437.042969-.046875.0625-.066406.507812-.566406 1.160156-.710938 1.996093-.699219-.199218.699219-.429687 1.25-1.117187 1.507813-.734375.273437-1.480469.316406-2.253906.273437-2.65625-.164062-5.296875-.578125-7.96875-.3125-.320313.03125-.554688-.03125-.765625-.351562-.296875-.457031-.707032-.488281-1.175782-.207031-.714843.433593-.96875 1.492187-.539062 2.28125.480469.890624 1.664062 1.40625 2.375.960937.601562-.378906 1.242188-.46875 1.921875-.5.550781-.023437 1.097656-.039063 1.644531-.085937 1.648438-.140626 3.289063-.347657 4.933594-.421876 1.476562-.066406 2.136719.691407 2.105469 2.28125-.300781.078126-.625.136719-.9375.238282-.371094.121094-.472657.378906-.261719.707031.125.199219.308594.382813.503906.519531.699219.496094 1.394532.996094 2.121094 1.445313.878906.542969 1.53125.320312 2.003906-.625.261719-.523438.316406-1.058594.0625-1.589844-.207031-.4375-.460937-.859375-.683594-1.292969-.191406-.371094-.371093-.75-.535156-1.089844 1.035156-1.136718.957032-.851562 1-2.511718.003906-.0625-.003906-.121094 0-.183594.050782-1.0625.859375-1.636719 1.894532-1.34375.292968.082031.574218.210938.863281.300781 1.296875.390625 2.0625-.179687 1.96875-1.53125-.039063-.570312.027343-1.066406.285156-1.582031.40625-.8125.277344-1.609375-.296875-2.316406-.410156-.507813-.726562-.566406-1.257812-.191406zm-8.273438 2.726562c-.0625-.046875-.121094-.089844-.179688-.132812.070313-.121094.117188-.261719.214844-.355469.070313-.070313.203125-.078125.414063.019531-.148438.152344-.300781.3125-.449219.46875zm0 0"/><path d="m178.625 35.601562c-.449219.007813-.824219.246094-.882812.765626-.050782.433593.226562.910156.660156 1.105468.203125.089844.429687.136719.648437.203125.046875.058594.09375.121094.144531.179688-1.488281.421875-2.464843 1.199219-2.113281 2.925781-2.039062-.484375-3.574219.183594-4.898437 1.445312-.316406.304688-.535156.75-.6875 1.167969-.179688.515625-.261719 1.066407-.347656 1.609375-.121094.769532.207031 1.339844.960937 1.539063.933594.25 1.871094.332031 2.6875-.386719.523437-.464844 1.074219-.898438 1.585937-1.371094.835938-.761718 1.144532-.800781 2.089844-.214844.335938.203126.671875.429688 1.035156.578126.550782.226562.949219.011718 1.140626-.558594.234374-.691406.03125-1.339844-.492188-1.746094-.953125-.742188-1.335938-1.621094-1.1875-2.820312.078125-.648438.054688-.769532.695312-.996094.371094-.136719.761719-.226563 1.121094-.386719.648438-.289063 1.070313-1.035156 1.011719-1.707031-.0625-.734375-.5625-1.09375-1.191406-1.207032-.640625-.117187-1.320313-.140624-1.980469-.125zm-3.238281 7.871094c-.386719.457032-.839844.851563-1.265625 1.269532-.078125-.039063-.15625-.074219-.234375-.113282.003906-.421875-.042969-.847656.03125-1.253906.046875-.273438.222656-.558594.417969-.765625.261718-.28125.597656-.25.90625-.015625.328124.253906.378906.597656.144531.878906zm0 0"/><path d="m237.582031 88.128906.703125 1.652344s.074219 1.8125-.371094 2.054688c-.441406.246093-1.464843.789062-1.753906.4375-.289062-.351563-1.984375-1.394532-1.59375-2.386719.390625-.996094 2.265625-2.320313 3.015625-1.757813zm0 0" fill-rule="evenodd"/><path d="m235.125 93.886719c-.160156-.195313-3.449219-2.621094-3.449219-2.621094s-5.542969-4.542969-5.882812-4.757813c-.335938-.210937-.878907-1.304687-1.25-1.84375-.375-.539062-1.296875-1.558593-1.296875-1.558593-.296875-.246094-2.691406-.289063-3.226563.316406-.613281.695313.335938 1.882813.519531 2.472656.183594.589844 3.203126 1.640625 3.757813 2.007813.554687.367187 1.644531 1.230468 1.644531 1.230468l3.121094 2.992188s1.089844.371094.832031.675781c-.253906.304688-2.921875-.625-4.191406-.925781-1.273437-.300781-2.042969-.054688-3.578125.574219-1.539062.625-.539062 1.523437-.238281 1.988281s-.9375 1.015625-.9375 1.015625-3.738281 1.460937-4.28125 1.542969c-.550781.082031-.308594-.378906-.414063-.542969-.105468-.167969.222656-.828125.222656-.828125.933594-.476562.796876-1.167969.820313-1.425781.027344-.257813-.542969-1.648438-1.675781-1.261719-1.132813.390625-1.296875 1.15625-1.050782 2.011719.242188.859375 1.238282.765625 1.425782.820312.183594.050781-.246094.667969-.246094.667969s-1.78125 1.5-1.539062 2.359375c.242187.859375 1.125.894531 1.125.894531s3.609374-1.371094 3.921874-1.40625c.316407-.035156.0625.597656.0625.597656-1.878906 1.578126-1.433593 3.183594-1.089843 3.757813.339843.574219 1.210937.695313 1.980469.320313.765624-.371094.628906-2.140626.65625-2.726563.027343-.585937-.84375-1.25-1-1.433594-.152344-.191406.003906-.539062.28125-.683593.273437-.144532 1.621093-.078126 2.160156-.074219.535156.003906.382812-.519531.816406-.558594.441406-.042969 1.699219.882813 1.976562.859375.28125-.023438.699219-.554688 1.078126-.535156.382812.019531 1 .570312 1.480468.636718.476563.066407.539063-.136718 1.40625-.550781.863282-.414062.136719-.988281.074219-1.820312-.058594-.828125-.761719-1.328125-1.152344-1.691407-.394531-.359374-1.953125-.875-2.242187-1.191406-.292969-.316406.640625-.328125 1.085937-.5.445313-.167968 3.253907 1.15625 3.738281 1.3125.484376.15625 3.246094 2.945313 3.976563 3.515625.730469.578125 1.078125-.066406 1.078125-.066406 1.082031-1.867187-.339844-3.375-.5-3.566406zm-9.386719.871093c.015625.414063-.132812.746094-.402343.523438-.273438-.222656-1.078126-1.121094-1.078126-1.121094s1.464844.1875 1.480469.597656zm0 0" fill-rule="evenodd"/><path d="m199.058594 46.726562c0 1.136719-.917969 2.058594-2.054688 2.058594-1.136718 0-2.054687-.921875-2.054687-2.058594 0-1.132812.917969-2.054687 2.054687-2.054687 1.136719 0 2.054688.921875 2.054688 2.054687zm0 0"/><path d="m209.183594 58.144531s3.375-2.148437 3.441406-2.28125c.066406-.132812.078125-1.949219.90625-2.691406.730469-.609375 1.6875-1.65625 3.15625-.207031 1.46875 1.453125-.34375 4.9375-.472656 5.058594-.132813.121093-.828125.535156-1.742188.386718 0 0-5.542968 3.113282-5.792968 3.273438-.257813.160156-.960938 1.542968-.128907 2.335937s4.011719 1.117188 4.6875.730469c.675781-.390625 6.15625-3.851562 6.15625-3.851562s2.214844-.972657 2.585938.777343c0 0 .007812 1.757813-.183594 1.933594-.195313.171875-.570313.460937-1.25.347656 0 0-.578125.4375-.890625.570313-.316406.128906-.285156.277344-1.117188.160156-.832031-.121094-2.097656-.296875-2.351562.40625-.253906.699219.152344.878906.234375.941406.082031.058594 1.464844 1.34375 1.027344 2.917969 0 0-.042969.089844-.191407.0625-.15625-.027344-.382812.324219-.382812.324219s-.085938.421875-.628906.054687c-.542969-.367187-3.152344-2.265625-3.320313-2.328125s-.96875.261719-1.402343.378906c-.628907.335938-3.101563.867188-2.40625 2.601563 0 0 .535156.960937.664062 1.730469.132812.765625.363281 1.460937-.679688 1.414062-1.042968-.046875-1.695312-.605468-2.46875-1.59375 0 0-.304687-.664062-.453124-.820312-.144532-.160156-.132813-.21875.285156-.230469 0 0 .101562-.054687.09375-.347656-.003906-.292969-.15625-1.761719.292968-2.085938.449219-.320312 2.910157-1.640625 2.945313-1.957031.03125-.320312-.15625-.441406-.46875-.632812-.316406-.195313-2.445313-1.382813-3.496094-1.003907-1.894531.550781-1.960937 1.1875-2.136719 1.757813-.179687.570312-2.015624 2.214844-2.550781 2.09375-.542969-.121094-1.953125-.347656-1.828125-.75.128906-.40625.832032-2.777344.667969-3.042969-.167969-.265625-.332031-.433594-.640625-.492187-.308594-.058594-.867188.015624-1.097656-.308594-.230469-.320313-1.117188-1.46875-.84375-1.980469.277344-.507813 2.042968-1.820313 2.265625-1.332031.222656.488281 1.5625 2.109375 2.082031 2.035156s2.640625-1.078125 2.792969-1.523438c.148437-.445312.300781-.488281-.3125-1.09375-.617188-.597656-.097657-3.144531.46875-3.695312.566406-.550781 4.253906 1.996094 4.464843 1.945312zm0 0"/><path d="m126.339844 196.261719v16.464843c8.148437-.101562 15.816406-3.972656 22.515625-10.714843-6.726563-3.621094-14.386719-5.691407-22.515625-5.75zm0 0"/><path d="m150.773438 172.34375-.007813-13.394531c-.796875-.152344-1.59375-.296875-2.390625-.4375v13.832031h-7.652344v-14.921875c-.789062-.089844-1.574218-.171875-2.363281-.242187l-.003906 15.164062h-7.621094l-.003906-15.660156c-1.457031-.050782-2.921875-.085938-4.394531-.089844v38.996094c8.316406.054687 16.144531 2.191406 23.007812 5.917968 8.375-8.660156 15.1875-21.832031 19.464844-37.707031-3.410156-1.1875-6.882813-2.234375-10.410156-3.136719v11.675782h-7.625zm-16.816407 16.757812c-.15625.5-.367187.910157-.632812 1.226563-.265625.320313-.566407.570313-.90625.761719-.335938.1875-.703125.28125-1.101563.28125-.449218 0-.859375-.113282-1.222656-.347656-.367188-.230469-.691406-.558594-.972656-.988282-.203125-.316406-.378906-.730468-.535156-1.257812-.199219-.707032-.296876-1.433594-.296876-2.1875 0-1.023438.144532-1.960938.429688-2.816406.234375-.707032.59375-1.25 1.074219-1.625.484375-.378907.992187-.5625 1.523437-.5625.546875 0 1.058594.183593 1.527344.554687.472656.375.824219.871094 1.042969 1.503906.308593.863281.464843 1.808594.464843 2.832031 0 .9375-.128906 1.8125-.394531 2.625zm10.34375-.800781c-.476562.902344-1.179687 1.632813-2.117187 2.179688s-2.050782.84375-3.328125.890625v-.191406c.769531-.179688 1.417969-.4375 1.949219-.777344.535156-.34375.957031-.765625 1.269531-1.269532.3125-.503906.53125-1.085937.65625-1.742187-.285157.148437-.53125.25-.730469.308594-.199219.058593-.414062.085937-.632812.085937-.710938 0-1.304688-.253906-1.777344-.769531-.472656-.511719-.710938-1.214844-.710938-2.109375 0-.617188.128906-1.183594.382813-1.699219.257812-.515625.625-.914062 1.097656-1.199219.476563-.285156.972656-.425781 1.484375-.425781.550781 0 1.070312.15625 1.5625.472657.488281.3125.882812.769531 1.167969 1.363281.292969.597656.4375 1.277343.4375 2.039062 0 .988281-.234375 1.933594-.710938 2.84375zm0 0"/><path d="m142.121094 182.207031c-.113282-.101562-.265625-.152343-.449219-.152343-.234375 0-.410156.097656-.539063.296874-.183593.273438-.269531.792969-.269531 1.558594 0 1.28125.152344 2.164063.457031 2.648438.199219.316406.464844.472656.804688.472656.179688 0 .417969-.074219.714844-.222656.042968-.515625.066406-.972656.066406-1.367188 0-.839844-.097656-1.625-.289062-2.347656-.113282-.402344-.277344-.695312-.496094-.886719zm0 0"/><path d="m131.859375 182.28125c-.117187-.144531-.300781-.222656-.5625-.222656-.199219 0-.355469.058594-.46875.167968-.171875.160157-.285156.445313-.347656.855469-.0625.410157-.09375 1.835938-.09375 4.28125 0 1.332031.046875 2.222657.136719 2.675781.070312.324219.167968.546876.300781.65625.125.113282.300781.167969.511719.167969.226562 0 .402343-.074219.519531-.222656.191406-.257813.304687-.660156.332031-1.199219l.023438-2.980468c0-1.644532-.007813-2.601563-.023438-2.878907-.042969-.636719-.15625-1.074219-.328125-1.300781zm0 0"/><path d="m130.050781 213.109375c9.472657-.429687 18.550781-2.355469 27.011719-5.539063-2.359375-1.976562-4.910156-3.726562-7.609375-5.230468-5.839844 5.921875-12.414063 9.707031-19.402344 10.769531zm0 0"/><path d="m125.664062 212.730469v-16.46875c-8.128906.054687-15.792968 2.128906-22.515624 5.75 6.699218 6.742187 14.363281 10.613281 22.515624 10.71875zm0 0"/><path d="m91.5 153.257812-11.75-6.640624c.792969 5.75 1.886719 11.289062 3.265625 16.527343 3.464844-1.203125 7-2.265625 10.585937-3.179687v-3.148438c0-1.480468-.804687-2.84375-2.101562-3.558594zm0 0"/><path d="m101.238281 154.007812-.003906 4.253907c.796875-.152344 1.589844-.296875 2.390625-.4375v-4.152344c0-2.902344-1.550781-5.585937-4.0625-7.035156l-20.992188-11.929688c.058594.917969.128907 1.832031.199219 2.738281l19.414063 11.273438c1.890625 1.09375 3.054687 3.109375 3.054687 5.289062zm0 0"/><path d="m78.277344 125.398438 27.929687 16.707031c3.140625 1.816406 5.074219 5.167969 5.074219 8.792969v5.84375c.789062-.089844 1.574219-.167969 2.363281-.246094l-.003906-5.964844c0-4.355469-2.324219-8.375-6.09375-10.550781l-9.519531-5.476563v-9.105468l16.144531 9.289062c4.394531 2.539062 7.101563 7.226562 7.101563 12.300781v9.011719c1.457031-.054688 2.921874-.089844 4.394531-.09375v-30.515625h-47.390625zm0 0"/><path d="m194 134.324219-21.003906 11.878906c-.808594 5.980469-1.9375 11.734375-3.375 17.167969 9.777344 3.453125 19.042968 8.03125 27.625 13.585937 10.5625-14.472656 16.820312-32.289062 16.894531-51.558593h-20.140625zm0 0"/><path d="m174.410156 125.398438c-.007812 3.949218-.175781 7.828124-.460937 11.640624l20.050781-11.640624zm0 0"/><path d="m125.664062 102.488281v-7.816406c-6.597656 8.09375-13.066406 16.859375-5.769531 30.050781h5.769531v-.761718c-5.941406-8.996094-4-15.675782 0-21.472657zm0 0"/><path d="m102.3125 91.164062c-6.535156-1.199218-12.910156-2.875-19.074219-5.003906-3.148437 11.636719-4.933593 24.726563-4.960937 38.566406h41.445312c-19.273437-15.820312-21.132812-25.609374-17.410156-33.5625zm0 0"/><path d="m117.433594 54.96875c3.265625 2.269531 5.976562 4.40625 8.226562 6.4375v-7.527344c-8.144531-.054687-15.824218-2.109375-22.585937-5.699218-8.421875 8.507812-15.300781 21.550781-19.660157 37.324218 6.207032 2.148438 12.621094 3.832032 19.207032 5.03125 5.753906-11.277344 22.324218-19.011718 14.8125-35.566406zm0 0"/><path d="m137.832031 134.699219 16.144531-9.289063v9.109375l-9.519531 5.476563c-3.773437 2.171875-6.09375 6.195312-6.09375 10.546875l-.003906 5.957031c.789063.078125 1.574219.15625 2.363281.242188v-5.832032c0-3.625 1.933594-6.980468 5.074219-8.792968l27.925781-16.703126c0-.003906 0-.007812 0-.011718h-47.382812v30.519531c1.472656.003906 2.9375.039063 4.394531.089844v-9.003907c-.003906-5.082031 2.703125-9.773437 7.097656-12.308593zm0 0"/><path d="m158.402344 156.824219v3.144531c3.585937.914062 7.117187 1.972656 10.585937 3.179688 1.378907-5.238282 2.46875-10.773438 3.261719-16.523438l-11.746094 6.644531c-1.300781.714844-2.101562 2.078125-2.101562 3.554688zm0 0"/><path d="m148.375 153.683594v4.144531c.800781.136719 1.59375.28125 2.390625.4375l-.003906-4.25c0-2.179687 1.164062-4.195313 3.050781-5.28125l19.414062-11.277344c.070313-.910156.144532-1.816406.199219-2.734375l-20.992187 11.925782c-2.507813 1.449218-4.058594 4.128906-4.058594 7.035156zm0 0"/><path d="m82.5625 164.027344c-9.703125 3.429687-18.894531 7.96875-27.410156 13.476562 9.863281 13.300782 23.382812 23.726563 39.074218 29.792969 2.425782-2.0625 5.050782-3.890625 7.839844-5.457031-8.390625-8.746094-15.214844-21.941406-19.503906-37.8125zm0 0"/><path d="m156.507812 42.34375c-8.304687-3.066406-17.195312-4.910156-26.460937-5.328125 6.824219 1.035156 13.253906 4.660156 18.984375 10.34375 2.652344-1.4375 5.152344-3.125 7.476562-5.015625zm0 0"/><path d="m126.339844 37.394531v15.808594c7.953125-.054687 15.460937-2.046875 22.082031-5.523437-6.597656-6.472657-14.113281-10.183594-22.082031-10.285157zm0 0"/><path d="m121.949219 37.015625c-9.265625.417969-18.15625 2.261719-26.460938 5.328125 2.324219 1.890625 4.828125 3.574219 7.476563 5.015625 5.734375-5.683594 12.160156-9.308594 18.984375-10.34375zm0 0"/><path d="m125.664062 53.203125v-15.808594c-7.972656.101563-15.488281 3.8125-22.082031 10.289063 6.621094 3.472656 14.125 5.464844 22.082031 5.519531zm0 0"/><path d="m94.941406 207.570312c8.460938 3.1875 17.539063 5.109376 27.011719 5.539063-6.992187-1.0625-13.566406-4.847656-19.398437-10.769531-2.707032 1.503906-5.253907 3.253906-7.613282 5.230468zm0 0"/><path d="m133.5 93.09375c-2.226562.125-4.464844.199219-6.71875.210938-.148438.183593-.292969.363281-.441406.546874v7.695313c2.1875-2.96875 4.847656-5.71875 7.160156-8.453125zm0 0"/><path d="m126.339844 124.722656h6.605468c-5.460937-11.875 10.644532-19.203125 11.363282-26.308594 3.320312 13.832032-10.976563 16.628907-11.3125 26.308594h40.730468c-.03125-13.839844-1.8125-26.929687-4.960937-38.566406-8.535156 2.949219-17.460937 5.035156-26.675781 6.167969-.941406 8.152343-13.15625 13.570312-15.75 24.253906zm0 0"/><path d="m119.839844 182.351562c-.179688.273438-.269532.792969-.269532 1.558594 0 1.28125.15625 2.164063.460938 2.648438.199219.316406.464844.472656.800781.472656.179688 0 .421875-.074219.714844-.222656.046875-.515625.070313-.972656.070313-1.367188 0-.839844-.097657-1.625-.292969-2.347656-.109375-.40625-.273438-.699219-.492188-.890625-.113281-.101563-.265625-.152344-.449219-.152344-.234374.003907-.414062.105469-.542968.300781zm0 0"/><path d="m113.644531 172.335938-.003906-15.160157c-.789063.074219-1.574219.15625-2.363281.242188v14.917969h-7.652344v-13.824219c-.800781.140625-1.59375.285156-2.390625.4375l-.007813 13.386719h-7.625v-11.671876c-3.527343.902344-7 1.949219-10.410156 3.136719 4.277344 15.871094 11.089844 29.042969 19.464844 37.703125 6.863281-3.726562 14.691406-5.863281 23.007812-5.917968v-38.996094c-1.472656.003906-2.933593.039062-4.394531.089844l-.003906 15.65625zm-1.152343 18.839843h-4.949219v-.257812h.25c.402343 0 .6875-.042969.855469-.136719.171874-.089844.285156-.21875.347656-.378906.058594-.160156.09375-.539063.09375-1.132813v-4.871093c0-.4375-.019532-.707032-.0625-.816407-.042969-.105469-.117188-.199219-.234375-.277343-.113281-.074219-.242188-.113282-.386719-.113282-.238281 0-.523438.074219-.859375.222656l-.125-.25 3.457031-1.578124h.230469v7.683593c0 .578125.023437.949219.074219 1.105469.050781.160156.15625.289062.316406.390625.164062.101563.421875.152344.777344.152344h.21875v.257812zm10.792968-7.757812c.292969.597656.433594 1.277343.433594 2.039062 0 .992188-.234375 1.9375-.710938 2.84375-.46875.902344-1.179687 1.632813-2.117187 2.179688s-2.046875.84375-3.324219.890625v-.191406c.765625-.179688 1.414063-.4375 1.949219-.777344.535156-.34375.957031-.765625 1.269531-1.269532.308594-.503906.53125-1.085937.652344-1.742187-.285156.148437-.527344.25-.730469.308594-.199219.058593-.410156.085937-.632812.085937-.710938 0-1.304688-.253906-1.773438-.769531-.472656-.515625-.710937-1.214844-.710937-2.109375 0-.617188.125-1.183594.382812-1.699219.253906-.515625.621094-.914062 1.097656-1.199219.472657-.285156.96875-.425781 1.484376-.425781.550781 0 1.066406.15625 1.558593.472657.488281.3125.878907.769531 1.171875 1.363281zm0 0"/><path d="m127.339844 92.621094c2.265625-.023438 4.515625-.101563 6.75-.238282 2.390625-2.90625 4.308594-5.820312 4.761718-8.976562 2.453126 3.128906 3.375 5.804688 3.289063 8.230469 9.132813-1.128907 17.980469-3.203125 26.441406-6.132813-4.355469-15.773437-11.238281-28.816406-19.660156-37.324218-6.761719 3.589843-14.441406 5.648437-22.585937 5.699218v8.136719c14.226562 13.21875 8.261718 21.691406 1.003906 30.605469zm0 0"/><path d="m149.9375 201.839844c2.789062 1.566406 5.414062 3.394531 7.839844 5.457031 15.691406-6.066406 29.210937-16.492187 39.074218-29.792969-8.519531-5.507812-17.707031-10.046875-27.410156-13.476562-4.292968 15.871094-11.117187 29.066406-19.503906 37.8125zm0 0"/><path d="m77.59375 125.398438h-19.578125l20.035156 11.632812c-.28125-3.808594-.449219-7.683594-.457031-11.632812zm0 0"/><path d="m58 125.398438h-20.140625c.074219 19.269531 6.332031 37.085937 16.894531 51.558593 8.582032-5.554687 17.847656-10.132812 27.625-13.585937-1.4375-5.4375-2.566406-11.191406-3.378906-17.179688l-21-11.875zm0 0"/><path d="m169.214844 85.28125c9.613281-3.382812 18.71875-7.851562 27.175781-13.273438-9.933594-13.160156-23.46875-23.441406-39.148437-29.386718-2.394532 1.980468-4.976563 3.742187-7.714844 5.246094 8.429687 8.59375 15.316406 21.648437 19.6875 37.414062zm0 0"/><path d="m102.472656 47.867188c-2.742187-1.503907-5.320312-3.265626-7.714844-5.242188-15.675781 5.945312-29.214843 16.226562-39.148437 29.386719 8.457031 5.421875 17.5625 9.890625 27.175781 13.269531 4.371094-15.765625 11.257813-28.820312 19.6875-37.414062zm0 0"/><path d="m82.605469 85.929688c-9.695313-3.402344-18.878907-7.910157-27.402344-13.378907-10.832031 14.582031-17.265625 32.625-17.34375 52.171875h39.730469c.03125-13.917968 1.835937-27.082031 5.015625-38.792968zm0 0"/><path d="m174.410156 124.722656h39.730469c-.074219-19.546875-6.503906-37.589844-17.339844-52.171875-8.523437 5.46875-17.707031 9.976563-27.402343 13.378907 3.175781 11.710937 4.980468 24.875 5.011718 38.792968zm0 0"/></g></svg>