<?xml version="1.0" encoding="UTF-8"?>
<svg xmlns="http://www.w3.org/2000/svg" xmlns:xlink="http://www.w3.org/1999/xlink" width="252px" height="252px" viewBox="0 0 252 252" version="1.1">
<defs>
<clipPath id="clip1">
  <path d="M 0 0 L 251.96875 0 L 251.96875 251.96875 L 0 251.96875 Z M 0 0 "/>
</clipPath>
</defs>
<g id="surface1">
<path style=" stroke:none;fill-rule:nonzero;fill:rgb(65.098041%,12.54902%,13.725491%);fill-opacity:1;" d="M 48.15625 192.628906 C 48.070312 192.59375 47.941406 192.5 48 192.339844 C 48.101562 192.066406 47.550781 192.539062 47.457031 192.578125 C 47.105469 192.722656 47.351562 192.371094 47.351562 192.371094 C 47.601562 192.191406 47.761719 191.933594 47.90625 192.03125 C 48.046875 192.121094 48.203125 192.175781 48.304688 192.257812 C 48.390625 192.328125 48.558594 192.574219 48.628906 192.65625 C 48.480469 192.742188 48.285156 192.695312 48.15625 192.628906 M 50.953125 192.890625 C 50.292969 192.386719 49.628906 191.933594 48.972656 191.390625 C 48.890625 191.316406 48.636719 191.214844 48.722656 191.128906 C 49.453125 190.382812 50.136719 189.871094 50.929688 189.214844 C 51.257812 188.945312 51.492188 188.652344 51.6875 188.359375 C 52.171875 187.648438 52.128906 186.730469 51.398438 185.9375 C 51.398438 185.9375 51.292969 185.917969 51.269531 185.921875 C 50.808594 185.972656 50.488281 186.339844 50.382812 186.761719 C 50.367188 186.824219 50.476562 186.929688 50.453125 187.066406 C 50.539062 187.113281 50.714844 187.015625 50.800781 187.160156 C 50.203125 187.941406 49.269531 188.71875 48.359375 189.390625 C 47.941406 189.695312 47.503906 190.125 47.132812 190.296875 C 45.898438 189.714844 44.765625 189.121094 43.605469 188.636719 C 43.316406 188.515625 42.925781 188.441406 42.664062 188.597656 C 42.460938 188.878906 42.53125 189.261719 42.929688 189.550781 C 43.972656 189.910156 45.105469 190.582031 46.269531 191.214844 C 45.859375 191.648438 45.285156 192.121094 44.738281 192.457031 C 44.09375 192.171875 43.414062 192.058594 42.839844 192.136719 C 41.988281 192.519531 41.851562 193.226562 41.855469 193.796875 C 41.859375 193.949219 41.980469 194.40625 42.007812 194.558594 C 42.027344 194.648438 41.980469 194.746094 41.894531 194.8125 C 40.558594 195.796875 39.21875 196.816406 37.816406 197.808594 C 37.125 198.296875 36.484375 199 35.796875 199.585938 C 35.273438 200.03125 34.914062 200.460938 34.5625 200.921875 C 34.464844 201.050781 34.136719 201.25 34.289062 201.324219 C 34.71875 201.53125 35.074219 201.390625 35.441406 201.253906 C 36.960938 200.703125 38.542969 199 40.070312 198.011719 C 41.316406 197.210938 42.539062 196.203125 43.585938 195.730469 C 44.152344 195.761719 44.542969 195.664062 44.945312 195.753906 C 45.316406 195.574219 45.757812 195.574219 46.257812 195.503906 C 46.96875 195.039062 47.90625 195.09375 48.671875 195.671875 C 48.800781 195.769531 48.882812 196.035156 49.015625 196.242188 C 49.257812 196.609375 49.714844 196.679688 50.046875 196.5625 C 51.242188 195.503906 51.433594 194.175781 50.953125 192.890625 "/>
<path style=" stroke:none;fill-rule:nonzero;fill:rgb(65.098041%,12.54902%,13.725491%);fill-opacity:1;" d="M 40.519531 190.589844 C 40.539062 190.476562 40.628906 190.394531 40.722656 190.296875 C 40.523438 190.230469 40.441406 190.011719 40.441406 189.976562 C 40.539062 188.691406 40.613281 187.542969 39.941406 186.417969 C 39.855469 186.277344 39.683594 186.214844 39.617188 186.25 C 39.011719 186.574219 39.085938 187.097656 39.300781 187.488281 C 39.578125 188.011719 39.847656 188.472656 39.867188 188.941406 C 39.882812 189.425781 39.835938 189.898438 39.75 190.46875 C 39.605469 190.789062 39.390625 191.210938 39.578125 191.65625 C 39.636719 191.796875 39.796875 191.78125 39.90625 191.746094 C 39.992188 191.722656 40.28125 191.511719 40.367188 191.40625 C 40.523438 191.1875 40.476562 190.863281 40.519531 190.589844 "/>
<path style=" stroke:none;fill-rule:nonzero;fill:rgb(65.098041%,12.54902%,13.725491%);fill-opacity:1;" d="M 196.582031 212.339844 L 196.691406 212.296875 L 197.265625 211.015625 C 197.453125 210.589844 197.542969 210.339844 197.523438 210.269531 C 197.503906 210.195312 197.476562 210.128906 197.445312 210.074219 L 197.15625 209.722656 L 197.113281 209.347656 C 197.105469 209.3125 197.09375 209.28125 197.082031 209.253906 C 197.066406 209.226562 196.96875 209.082031 196.785156 208.820312 L 196.414062 208.214844 L 196.378906 208.164062 C 196.292969 208.050781 196.214844 207.984375 196.136719 207.964844 C 196.0625 207.945312 196.015625 207.980469 195.996094 208.058594 L 195.746094 209.136719 C 195.6875 209.398438 195.667969 209.652344 195.675781 209.898438 L 195.777344 210.613281 L 195.804688 210.875 L 196.273438 211.992188 C 196.34375 212.175781 196.417969 212.277344 196.488281 212.300781 Z M 192.714844 204.277344 L 193.152344 204.242188 L 193.75 203.886719 L 193.96875 203.835938 L 194.058594 203.773438 C 194.121094 203.738281 194.242188 203.71875 194.433594 203.714844 C 194.617188 203.714844 194.738281 203.714844 194.777344 203.71875 C 194.816406 203.71875 194.929688 203.75 195.109375 203.816406 C 195.285156 203.878906 195.402344 203.929688 195.464844 203.960938 L 195.929688 204.335938 C 196.027344 204.414062 196.089844 204.46875 196.117188 204.492188 C 196.144531 204.515625 196.179688 204.554688 196.226562 204.609375 C 196.265625 204.664062 196.300781 204.710938 196.328125 204.746094 L 196.609375 205.207031 C 196.722656 205.375 196.785156 205.46875 196.796875 205.496094 L 197.324219 206.722656 C 197.339844 206.75 197.394531 206.855469 197.496094 207.035156 L 197.742188 207.484375 C 197.75 207.503906 197.753906 207.507812 197.753906 207.507812 L 197.867188 207.578125 L 198.191406 206.125 L 198.464844 204.761719 C 198.59375 204.335938 198.652344 204.074219 198.640625 203.972656 C 198.632812 203.871094 198.609375 203.796875 198.582031 203.746094 L 197.902344 202.628906 L 197.425781 201.855469 L 196.96875 201.355469 L 196.859375 201.1875 C 196.835938 201.164062 196.742188 201.074219 196.582031 200.910156 C 196.417969 200.746094 196.328125 200.65625 196.308594 200.644531 L 195.839844 200.382812 L 195.503906 200.132812 C 195.210938 199.960938 195.0625 199.867188 195.058594 199.835938 L 194.996094 199.632812 C 195.417969 199.5 195.664062 199.433594 195.734375 199.4375 L 196.078125 199.617188 C 196.207031 199.667969 196.359375 199.65625 196.535156 199.574219 C 196.710938 199.492188 196.828125 199.449219 196.882812 199.4375 C 196.9375 199.429688 196.988281 199.425781 197.046875 199.425781 L 197.277344 199.46875 L 197.40625 199.464844 C 197.425781 199.46875 197.546875 199.546875 197.761719 199.691406 C 197.972656 199.839844 198.09375 199.941406 198.117188 200 L 198.804688 201.160156 L 198.921875 201.320312 L 199.089844 201.671875 C 199.203125 201.910156 199.289062 202.019531 199.347656 202.007812 C 199.410156 201.992188 199.480469 201.902344 199.566406 201.738281 L 199.785156 201.351562 L 199.964844 200.824219 C 200.058594 200.628906 200.1875 200.457031 200.355469 200.316406 C 200.527344 200.175781 200.652344 200.105469 200.726562 200.109375 L 200.992188 200.234375 L 201.269531 200.253906 C 201.304688 200.261719 201.390625 200.300781 201.527344 200.367188 C 201.664062 200.433594 201.75 200.488281 201.789062 200.519531 C 201.832031 200.554688 201.871094 200.617188 201.902344 200.703125 C 201.9375 200.789062 201.953125 200.894531 201.957031 201.023438 C 201.964844 201.148438 201.886719 201.335938 201.734375 201.578125 C 201.578125 201.824219 201.492188 201.964844 201.476562 201.984375 L 201.277344 202.457031 L 201.160156 202.636719 C 201.105469 202.738281 201.070312 202.875 201.050781 203.054688 C 201.03125 203.234375 201.007812 203.34375 200.984375 203.382812 C 200.957031 203.421875 200.933594 203.449219 200.914062 203.464844 L 200.800781 203.570312 L 200.660156 203.734375 L 200.355469 203.867188 C 200.25 203.96875 200.28125 204.15625 200.441406 204.429688 L 201.242188 205.800781 L 201.339844 206.011719 L 201.566406 206.253906 L 201.695312 206.410156 C 201.714844 206.4375 201.796875 206.484375 201.949219 206.558594 C 202.101562 206.632812 202.199219 206.667969 202.25 206.679688 C 202.300781 206.6875 202.414062 206.65625 202.59375 206.585938 C 202.769531 206.511719 202.882812 206.460938 202.933594 206.425781 C 202.972656 206.402344 203.011719 206.363281 203.050781 206.316406 L 203.234375 206.09375 L 203.410156 205.96875 L 203.574219 205.742188 L 203.832031 205.453125 L 203.941406 205.308594 L 204.253906 205.019531 C 204.351562 204.910156 204.402344 204.847656 204.402344 204.847656 L 204.621094 204.730469 C 204.742188 204.652344 204.804688 204.609375 204.804688 204.609375 L 204.90625 204.609375 L 205.132812 204.585938 L 205.496094 204.652344 L 205.75 204.632812 L 206.011719 204.777344 L 206.328125 204.875 C 206.488281 204.933594 206.609375 205.039062 206.695312 205.183594 C 206.757812 205.304688 206.785156 205.40625 206.769531 205.488281 C 206.753906 205.566406 206.714844 205.652344 206.664062 205.742188 C 206.601562 205.835938 206.558594 205.894531 206.53125 205.914062 L 205.304688 206.847656 L 205.058594 207.140625 L 204.039062 207.757812 L 203.082031 208.355469 L 202.78125 208.351562 C 202.652344 208.359375 202.589844 208.367188 202.582031 208.359375 L 202.375 208.304688 L 202.164062 208.28125 C 202.128906 208.28125 201.964844 208.1875 201.667969 208.007812 L 201.308594 207.832031 C 201.164062 207.757812 201.046875 207.671875 200.957031 207.5625 L 200.707031 207.261719 C 200.695312 207.261719 200.652344 207.222656 200.582031 207.15625 C 200.507812 207.085938 200.449219 207.019531 200.402344 206.960938 C 200.359375 206.910156 200.308594 206.816406 200.257812 206.691406 L 199.703125 205.554688 C 199.539062 205.210938 199.425781 205.011719 199.375 204.957031 C 199.328125 204.902344 199.242188 204.84375 199.121094 204.785156 C 199.003906 204.726562 198.898438 204.835938 198.808594 205.121094 C 198.617188 205.746094 198.515625 206.113281 198.507812 206.214844 L 198.496094 206.617188 L 198.316406 207.777344 C 198.28125 208 198.273438 208.171875 198.300781 208.300781 C 198.320312 208.425781 198.421875 208.648438 198.605469 208.96875 L 199.183594 210.015625 L 199.359375 210.699219 C 199.503906 211.054688 199.574219 211.246094 199.566406 211.277344 C 199.558594 211.308594 199.546875 211.335938 199.535156 211.359375 L 198.679688 210.875 C 198.59375 210.851562 198.535156 210.867188 198.507812 210.925781 C 198.488281 210.980469 198.480469 211.140625 198.496094 211.390625 L 198.554688 212.410156 C 198.566406 212.605469 198.511719 212.820312 198.394531 213.050781 C 198.273438 213.285156 198.179688 213.4375 198.113281 213.503906 C 198.042969 213.570312 197.871094 213.589844 197.589844 213.570312 C 197.398438 213.558594 197.253906 213.527344 197.148438 213.472656 L 196.820312 213.261719 L 196.5 213.078125 C 196.441406 213.027344 196.378906 212.960938 196.324219 212.878906 C 196.324219 212.878906 196.296875 212.839844 196.265625 212.792969 C 196.238281 212.746094 196.214844 212.707031 196.214844 212.683594 L 196.136719 212.320312 L 195.679688 211.097656 L 195.40625 209.984375 C 195.328125 209.667969 195.277344 209.496094 195.246094 209.46875 C 195.210938 209.441406 195.160156 209.421875 195.101562 209.40625 L 194.644531 209.472656 C 194.617188 209.472656 194.5625 209.460938 194.476562 209.429688 C 194.394531 209.40625 194.242188 209.355469 194.015625 209.292969 C 193.789062 209.226562 193.609375 209.148438 193.476562 209.058594 C 193.347656 208.964844 193.242188 208.859375 193.160156 208.746094 C 193.082031 208.625 193.070312 208.523438 193.136719 208.421875 C 193.386719 208.304688 193.527344 208.242188 193.550781 208.222656 C 193.597656 208.195312 193.644531 208.152344 193.691406 208.097656 L 194.441406 207.09375 C 194.832031 206.785156 195.027344 206.621094 195.039062 206.601562 C 195.042969 206.585938 195.050781 206.558594 195.058594 206.527344 C 195.0625 206.492188 195.050781 206.457031 195.027344 206.417969 C 195.003906 206.375 194.96875 206.332031 194.921875 206.277344 C 194.886719 206.238281 194.832031 206.171875 194.753906 206.066406 C 194.671875 205.960938 194.609375 205.878906 194.566406 205.832031 L 193.464844 205.261719 C 193.382812 205.222656 193.320312 205.175781 193.277344 205.125 L 193.015625 204.769531 L 192.738281 204.46875 L 192.640625 204.308594 C 192.679688 204.296875 192.699219 204.285156 192.714844 204.277344 "/>
<path style=" stroke:none;fill-rule:nonzero;fill:rgb(65.098041%,12.54902%,13.725491%);fill-opacity:1;" d="M 212.378906 191.480469 C 212.394531 191.503906 212.421875 191.515625 212.453125 191.519531 L 212.605469 191.332031 C 212.613281 191.324219 212.679688 191.285156 212.804688 191.222656 L 213.175781 190.933594 L 213.558594 190.835938 C 213.601562 190.804688 213.636719 190.753906 213.65625 190.6875 C 213.675781 190.617188 213.675781 190.535156 213.652344 190.441406 L 213.589844 190.179688 L 213.621094 189.8125 L 213.433594 189.3125 C 213.363281 189.050781 213.285156 188.894531 213.1875 188.84375 C 213.089844 188.792969 213.003906 188.898438 212.925781 189.167969 L 212.746094 189.703125 L 212.632812 190.210938 L 212.320312 191.214844 C 212.335938 191.359375 212.351562 191.445312 212.378906 191.480469 M 212.640625 192.859375 C 212.667969 192.867188 212.738281 192.835938 212.835938 192.773438 C 212.941406 192.710938 212.996094 192.65625 213.007812 192.609375 L 213.023438 192.574219 L 213.226562 192.371094 C 213.308594 192.285156 213.328125 192.222656 213.296875 192.175781 C 213.265625 192.136719 213.210938 192.117188 213.144531 192.117188 C 213.074219 192.113281 213 192.15625 212.941406 192.242188 C 212.921875 192.273438 212.898438 192.300781 212.875 192.328125 C 212.851562 192.355469 212.832031 192.390625 212.804688 192.433594 C 212.78125 192.496094 212.722656 192.550781 212.636719 192.613281 C 212.546875 192.667969 212.503906 192.707031 212.507812 192.726562 L 212.515625 192.808594 C 212.570312 192.839844 212.609375 192.859375 212.640625 192.859375 M 214.226562 195.796875 C 214.363281 195.773438 214.46875 195.746094 214.550781 195.71875 C 214.632812 195.699219 214.820312 195.601562 215.121094 195.441406 C 215.410156 195.277344 215.601562 195.152344 215.675781 195.058594 C 215.792969 194.925781 215.824219 194.8125 215.769531 194.722656 C 215.707031 194.628906 215.527344 194.417969 215.226562 194.085938 L 215.074219 193.921875 L 215.023438 193.863281 C 214.875 193.710938 214.78125 193.753906 214.746094 193.996094 L 214.535156 194.601562 L 214.339844 195.367188 C 214.148438 195.679688 214.117188 195.824219 214.226562 195.796875 M 208.007812 190.300781 L 207.917969 190.207031 C 207.90625 190.1875 207.898438 190.160156 207.902344 190.125 L 208.023438 189.9375 C 208.050781 189.90625 208.0625 189.863281 208.0625 189.804688 C 208.066406 189.753906 208.070312 189.714844 208.078125 189.703125 L 208.242188 189.5625 L 208.238281 189.371094 L 208.359375 189.226562 L 208.398438 189.140625 L 208.605469 189.136719 C 208.648438 189.125 208.667969 189.09375 208.664062 189.046875 L 208.628906 188.949219 L 208.859375 188.777344 L 208.894531 188.496094 L 208.976562 188.339844 L 208.976562 188.199219 C 208.976562 188.167969 209.015625 188.089844 209.09375 187.964844 C 209.167969 187.839844 209.222656 187.757812 209.246094 187.71875 C 209.273438 187.675781 209.289062 187.652344 209.296875 187.636719 C 209.300781 187.628906 209.265625 187.5625 209.203125 187.453125 C 209.140625 187.339844 209.140625 187.25 209.21875 187.191406 C 209.320312 187.125 209.367188 187.117188 209.34375 187.171875 L 209.332031 187.394531 L 209.441406 187.460938 C 209.472656 187.359375 209.519531 187.269531 209.570312 187.191406 C 209.628906 187.117188 209.644531 187.066406 209.628906 187.042969 L 209.445312 186.929688 L 209.476562 186.867188 L 209.53125 186.726562 L 209.644531 186.652344 C 209.660156 186.644531 209.714844 186.5625 209.796875 186.402344 L 209.910156 186.21875 L 209.96875 186.0625 C 209.984375 186.027344 210.011719 185.992188 210.046875 185.964844 C 210.113281 185.902344 210.207031 185.871094 210.335938 185.863281 C 210.296875 185.757812 210.285156 185.6875 210.296875 185.640625 C 210.304688 185.597656 210.371094 185.496094 210.492188 185.335938 C 210.617188 185.175781 210.679688 185.089844 210.695312 185.078125 C 210.835938 184.964844 210.957031 184.882812 211.042969 184.84375 L 211.441406 184.816406 L 211.691406 184.765625 C 211.882812 184.753906 212.035156 184.800781 212.152344 184.914062 C 212.265625 185.023438 212.335938 185.121094 212.351562 185.199219 C 212.375 185.300781 212.355469 185.421875 212.304688 185.570312 L 212.203125 185.859375 C 212.175781 185.953125 212.148438 186.144531 212.121094 186.417969 C 212.09375 186.695312 212.09375 186.90625 212.105469 187.058594 C 212.128906 187.210938 212.136719 187.300781 212.136719 187.320312 L 212.097656 187.574219 C 212.085938 187.683594 212.085938 187.8125 212.09375 187.949219 C 212.105469 188.089844 212.101562 188.21875 212.09375 188.347656 C 212.082031 188.476562 212.09375 188.550781 212.132812 188.578125 C 212.167969 188.601562 212.242188 188.585938 212.34375 188.535156 C 212.351562 188.535156 212.4375 188.453125 212.589844 188.292969 C 212.75 188.132812 212.964844 188.019531 213.25 187.953125 C 213.53125 187.882812 213.734375 187.871094 213.859375 187.90625 C 213.980469 187.945312 214.105469 188.003906 214.230469 188.085938 C 214.351562 188.164062 214.445312 188.234375 214.507812 188.292969 C 214.570312 188.355469 214.644531 188.503906 214.734375 188.746094 C 214.78125 188.875 214.800781 188.972656 214.800781 189.027344 L 214.78125 189.273438 L 214.796875 189.546875 L 214.757812 189.804688 L 214.8125 190.152344 L 214.757812 190.523438 L 214.773438 190.835938 L 214.617188 191.382812 C 214.613281 191.492188 214.652344 191.601562 214.730469 191.710938 C 214.8125 191.816406 214.894531 191.929688 214.992188 192.027344 C 215.09375 192.132812 215.152344 192.195312 215.183594 192.214844 C 215.285156 192.316406 215.382812 192.351562 215.484375 192.320312 L 215.875 191.894531 C 215.96875 191.808594 216.070312 191.71875 216.191406 191.636719 L 216.367188 191.539062 L 216.496094 191.390625 C 216.496094 191.390625 216.539062 191.359375 216.605469 191.308594 C 216.675781 191.253906 216.765625 191.179688 216.875 191.070312 C 216.960938 190.992188 217.023438 190.925781 217.082031 190.859375 C 217.132812 190.792969 217.164062 190.761719 217.164062 190.761719 C 217.183594 190.75 217.199219 190.738281 217.21875 190.71875 L 217.414062 190.601562 L 217.601562 190.445312 C 217.617188 190.433594 217.726562 190.398438 217.929688 190.332031 L 218.394531 190.171875 C 218.609375 190.148438 218.828125 190.179688 219.0625 190.28125 C 219.296875 190.378906 219.496094 190.507812 219.664062 190.671875 C 219.832031 190.835938 219.9375 191.089844 219.984375 191.445312 C 220.007812 191.621094 220.03125 191.761719 220.054688 191.867188 C 220.074219 191.972656 220.082031 192.042969 220.078125 192.082031 C 220.070312 192.117188 220.054688 192.144531 220.035156 192.164062 C 220.019531 192.1875 219.992188 192.207031 219.964844 192.21875 C 219.929688 192.226562 219.855469 192.222656 219.730469 192.210938 L 219.398438 192.1875 L 219.039062 192.109375 L 218.488281 192.332031 L 218.121094 192.402344 L 217.984375 192.488281 C 217.894531 192.542969 217.75 192.566406 217.542969 192.566406 C 217.34375 192.566406 217.222656 192.574219 217.199219 192.574219 L 216.972656 192.699219 L 216.738281 192.789062 C 216.8125 192.730469 216.894531 192.667969 216.984375 192.597656 C 217.074219 192.527344 217.179688 192.457031 217.304688 192.375 C 217.433594 192.296875 217.5 192.253906 217.507812 192.246094 C 217.542969 192.21875 217.574219 192.171875 217.59375 192.109375 L 217.65625 191.886719 L 217.859375 191.515625 C 217.863281 191.460938 217.84375 191.410156 217.804688 191.371094 C 217.792969 191.367188 217.777344 191.359375 217.777344 191.359375 L 217.546875 191.300781 L 217.359375 191.246094 C 217.085938 191.214844 216.742188 191.390625 216.335938 191.78125 L 215.980469 192.132812 C 215.941406 192.171875 215.890625 192.210938 215.824219 192.261719 C 215.761719 192.3125 215.71875 192.351562 215.699219 192.363281 C 215.671875 192.410156 215.652344 192.457031 215.644531 192.496094 C 215.632812 192.539062 215.636719 192.574219 215.648438 192.601562 L 215.953125 192.875 L 217.011719 194.066406 C 217.328125 194.425781 217.5 194.636719 217.53125 194.714844 L 217.707031 195.1875 L 217.796875 195.335938 C 217.832031 195.425781 217.835938 195.566406 217.8125 195.757812 C 217.785156 195.953125 217.71875 196.085938 217.605469 196.167969 C 217.550781 196.210938 217.488281 196.238281 217.414062 196.234375 L 217.105469 196.210938 L 216.851562 196.238281 L 216.582031 196.195312 L 215.964844 196.238281 L 215.683594 196.21875 L 215.121094 196.324219 L 214.78125 196.285156 L 214.425781 196.394531 L 214.246094 196.375 L 214.140625 196.394531 C 214.148438 196.671875 214.160156 196.976562 214.171875 197.304688 C 214.183594 197.636719 214.242188 197.910156 214.347656 198.125 C 214.441406 198.339844 214.496094 198.519531 214.5 198.652344 C 214.5 198.785156 214.46875 198.878906 214.394531 198.933594 C 214.359375 198.96875 214.265625 198.984375 214.125 198.984375 C 213.980469 198.980469 213.890625 198.972656 213.855469 198.957031 C 213.824219 198.941406 213.726562 198.886719 213.5625 198.785156 L 213.191406 198.601562 C 213.136719 198.570312 213.039062 198.492188 212.90625 198.367188 C 212.769531 198.246094 212.6875 198.144531 212.652344 198.078125 L 212.152344 197.148438 L 212.085938 197.003906 L 211.691406 196.667969 C 211.667969 196.574219 211.699219 196.488281 211.78125 196.40625 C 211.867188 196.332031 211.964844 196.304688 212.066406 196.316406 L 212.425781 196.441406 L 212.808594 196.503906 C 213.007812 196.566406 213.121094 196.578125 213.148438 196.546875 C 213.160156 196.53125 213.171875 196.496094 213.195312 196.441406 C 213.207031 196.378906 213.203125 196.351562 213.171875 196.34375 L 213.003906 196.300781 C 212.996094 196.253906 212.992188 196.21875 212.996094 196.195312 L 213.371094 196.054688 L 213.976562 194.84375 L 213.984375 194.742188 L 214.578125 193.53125 C 214.613281 193.453125 214.582031 193.351562 214.472656 193.226562 L 214.332031 193.078125 C 214.183594 192.929688 214.105469 192.847656 214.089844 192.832031 C 214.015625 192.785156 213.960938 192.773438 213.910156 192.796875 C 213.875 192.820312 213.789062 192.886719 213.667969 193 C 213.546875 193.113281 213.386719 193.175781 213.171875 193.191406 C 212.964844 193.207031 212.785156 193.207031 212.632812 193.183594 C 212.480469 193.160156 212.390625 193.152344 212.359375 193.160156 L 212.253906 193.972656 C 212.242188 194.027344 212.1875 194.125 212.09375 194.269531 C 212.003906 194.414062 211.949219 194.492188 211.925781 194.5 C 211.835938 194.59375 211.699219 194.628906 211.519531 194.613281 C 211.347656 194.597656 211.210938 194.578125 211.113281 194.550781 C 211.023438 194.53125 210.914062 194.460938 210.792969 194.34375 C 210.667969 194.226562 210.589844 194.148438 210.566406 194.113281 C 210.53125 194.074219 210.5 194.039062 210.484375 194.003906 L 210.417969 193.746094 L 210.328125 193.515625 L 210.492188 192.824219 L 210.398438 192.589844 C 210.382812 192.527344 210.410156 192.375 210.484375 192.125 C 210.550781 191.871094 210.546875 191.6875 210.464844 191.585938 C 210.382812 191.480469 210.34375 191.425781 210.34375 191.417969 L 210.507812 191.054688 L 210.402344 190.808594 L 210.488281 190.492188 L 210.472656 190.222656 L 210.570312 190.003906 L 210.464844 189.730469 L 210.53125 189.40625 L 210.453125 189.121094 L 210.472656 188.867188 L 210.453125 188.582031 L 210.503906 188.289062 C 210.515625 188.046875 210.523438 187.917969 210.53125 187.902344 L 210.679688 187.757812 C 210.679688 187.757812 210.683594 187.738281 210.683594 187.699219 C 210.679688 187.664062 210.6875 187.597656 210.703125 187.496094 C 210.71875 187.390625 210.667969 187.28125 210.546875 187.164062 C 210.421875 187.050781 210.355469 187.179688 210.34375 187.570312 C 210.335938 187.609375 210.335938 187.632812 210.328125 187.652344 C 210.316406 187.671875 210.289062 187.707031 210.242188 187.75 C 210.195312 187.792969 210.160156 187.820312 210.160156 187.820312 L 210.109375 188.011719 L 209.910156 188.125 L 209.902344 188.261719 L 209.777344 188.460938 L 209.796875 188.707031 L 209.710938 188.832031 L 209.703125 188.980469 L 209.59375 189.109375 L 209.574219 189.242188 L 209.339844 189.457031 L 209.351562 189.570312 L 209.34375 189.726562 L 209.421875 189.832031 L 209.316406 189.976562 L 209.351562 190.21875 L 209.203125 190.410156 L 209.175781 190.695312 L 208.917969 191.753906 L 208.882812 192.039062 L 208.804688 192.203125 L 208.753906 192.527344 C 208.746094 192.574219 208.703125 192.6875 208.628906 192.871094 L 208.398438 193.523438 C 208.28125 193.75 208.164062 193.921875 208.050781 194.03125 C 208.007812 194.078125 207.886719 194.164062 207.675781 194.285156 C 207.464844 194.402344 207.292969 194.441406 207.160156 194.398438 C 207.027344 194.355469 206.914062 194.289062 206.820312 194.207031 L 206.414062 193.777344 C 206.265625 193.632812 206.183594 193.527344 206.152344 193.460938 C 206.125 193.386719 206.125 193.160156 206.152344 192.785156 C 206.183594 192.402344 206.21875 192.15625 206.257812 192.046875 L 206.90625 190.355469 L 207.019531 189.980469 L 207.335938 188.71875 L 207.453125 188.265625 L 207.476562 187.917969 L 207.558594 187.691406 L 207.574219 187.476562 L 207.585938 187.332031 L 207.535156 187.058594 C 207.511719 186.917969 207.488281 186.835938 207.464844 186.8125 C 207.421875 186.78125 207.261719 186.75 206.992188 186.710938 C 206.710938 186.675781 206.515625 186.667969 206.386719 186.695312 C 206.253906 186.722656 206.183594 186.726562 206.164062 186.699219 C 206.125 186.660156 206.136719 186.570312 206.199219 186.441406 L 206.785156 185.953125 C 206.824219 185.902344 206.855469 185.835938 206.875 185.757812 C 206.890625 185.679688 206.90625 185.628906 206.914062 185.605469 L 207.355469 185.382812 L 207.539062 185.214844 C 207.585938 185.175781 207.738281 185.117188 207.992188 185.027344 C 208.253906 184.941406 208.402344 184.894531 208.441406 184.886719 L 208.933594 184.925781 C 209.148438 184.9375 209.277344 184.960938 209.3125 184.992188 C 209.347656 185.023438 209.394531 185.105469 209.449219 185.242188 C 209.53125 185.453125 209.574219 185.578125 209.582031 185.625 C 209.582031 185.671875 209.574219 185.71875 209.5625 185.773438 L 209.480469 186.058594 L 209.414062 186.34375 C 209.402344 186.375 209.34375 186.46875 209.222656 186.621094 C 209.101562 186.769531 209 186.929688 208.917969 187.105469 C 208.839844 187.273438 208.792969 187.414062 208.777344 187.523438 C 208.769531 187.632812 208.761719 187.691406 208.761719 187.691406 L 208.53125 188.027344 L 208.417969 188.328125 L 208.335938 188.457031 L 208.308594 188.644531 L 208.191406 188.882812 L 208.132812 189.113281 L 207.988281 189.355469 L 207.992188 189.511719 C 207.992188 189.539062 207.992188 189.558594 207.992188 189.558594 L 207.757812 189.714844 C 207.75 189.734375 207.734375 189.792969 207.71875 189.890625 C 207.695312 189.988281 207.671875 190.054688 207.636719 190.097656 L 207.457031 190.269531 L 207.21875 190.59375 L 207.085938 190.6875 L 207.011719 190.90625 L 206.578125 191.777344 C 206.433594 192.070312 206.375 192.292969 206.40625 192.445312 C 206.4375 192.597656 206.460938 192.683594 206.496094 192.707031 C 206.582031 192.796875 206.675781 192.789062 206.773438 192.691406 C 206.796875 192.675781 206.816406 192.65625 206.832031 192.621094 L 207.078125 192.109375 L 207.230469 192 L 207.296875 191.816406 L 207.421875 191.589844 L 207.433594 191.414062 L 207.476562 191.214844 C 207.492188 191.070312 207.503906 190.988281 207.511719 190.972656 L 207.722656 190.84375 L 207.894531 190.476562 L 208.035156 190.402344 C 208.027344 190.355469 208.019531 190.324219 208.007812 190.300781 "/>
<path style=" stroke:none;fill-rule:nonzero;fill:rgb(65.098041%,12.54902%,13.725491%);fill-opacity:1;" d="M 113.796875 200.714844 L 113.796875 208.203125 C 113.796875 208.765625 113.820312 209.121094 113.871094 209.28125 C 113.917969 209.4375 114.023438 209.5625 114.179688 209.660156 C 114.339844 209.761719 114.59375 209.808594 114.9375 209.808594 L 115.148438 209.808594 L 115.148438 210.058594 L 110.328125 210.058594 L 110.328125 209.808594 L 110.566406 209.808594 C 110.964844 209.808594 111.242188 209.769531 111.40625 209.675781 C 111.574219 209.582031 111.683594 209.460938 111.746094 209.304688 C 111.800781 209.144531 111.832031 208.78125 111.832031 208.203125 L 111.832031 203.453125 C 111.832031 203.03125 111.808594 202.769531 111.773438 202.660156 C 111.730469 202.558594 111.65625 202.464844 111.542969 202.390625 C 111.433594 202.316406 111.304688 202.28125 111.164062 202.28125 C 110.933594 202.28125 110.65625 202.351562 110.328125 202.496094 L 110.203125 202.253906 L 113.574219 200.714844 Z M 113.796875 200.714844 "/>
<path style=" stroke:none;fill-rule:nonzero;fill:rgb(65.098041%,12.54902%,13.725491%);fill-opacity:1;" d="M 121.890625 205.804688 C 121.9375 205.300781 121.960938 204.855469 121.960938 204.472656 C 121.960938 203.65625 121.863281 202.890625 121.675781 202.183594 C 121.570312 201.796875 121.410156 201.503906 121.195312 201.320312 C 121.085938 201.226562 120.941406 201.175781 120.757812 201.175781 C 120.535156 201.175781 120.355469 201.269531 120.230469 201.464844 C 120.054688 201.730469 119.964844 202.234375 119.964844 202.980469 C 119.964844 204.230469 120.121094 205.089844 120.414062 205.5625 C 120.609375 205.867188 120.867188 206.019531 121.195312 206.019531 C 121.371094 206.019531 121.605469 205.949219 121.890625 205.804688 M 118.011719 210.25 L 118.011719 210.058594 C 118.761719 209.890625 119.398438 209.636719 119.917969 209.304688 C 120.4375 208.964844 120.847656 208.558594 121.152344 208.066406 C 121.457031 207.578125 121.671875 207.011719 121.792969 206.371094 C 121.507812 206.519531 121.277344 206.617188 121.078125 206.675781 C 120.882812 206.726562 120.675781 206.757812 120.460938 206.757812 C 119.769531 206.757812 119.1875 206.507812 118.726562 206.007812 C 118.269531 205.511719 118.035156 204.824219 118.035156 203.957031 C 118.035156 203.351562 118.164062 202.800781 118.410156 202.296875 C 118.660156 201.796875 119.019531 201.40625 119.480469 201.128906 C 119.945312 200.851562 120.425781 200.714844 120.925781 200.714844 C 121.460938 200.714844 121.972656 200.867188 122.445312 201.175781 C 122.925781 201.480469 123.304688 201.921875 123.585938 202.503906 C 123.871094 203.085938 124.011719 203.746094 124.011719 204.488281 C 124.011719 205.453125 123.78125 206.375 123.320312 207.253906 C 122.859375 208.140625 122.171875 208.847656 121.257812 209.378906 C 120.34375 209.914062 119.265625 210.203125 118.011719 210.25 "/>
<path style=" stroke:none;fill-rule:nonzero;fill:rgb(65.098041%,12.54902%,13.725491%);fill-opacity:1;" d="M 127.996094 200.902344 L 132.28125 200.902344 L 131.601562 202.648438 L 127.996094 202.648438 L 127.652344 203.558594 C 129.203125 203.613281 130.398438 204.003906 131.234375 204.71875 C 131.929688 205.308594 132.269531 206.042969 132.269531 206.921875 C 132.269531 207.484375 132.109375 208.035156 131.792969 208.570312 C 131.472656 209.105469 131.019531 209.523438 130.441406 209.8125 C 129.859375 210.101562 129.222656 210.25 128.527344 210.25 C 127.78125 210.25 127.210938 210.109375 126.804688 209.828125 C 126.527344 209.632812 126.390625 209.40625 126.390625 209.152344 C 126.390625 208.960938 126.460938 208.789062 126.605469 208.640625 C 126.753906 208.492188 126.925781 208.417969 127.117188 208.417969 C 127.296875 208.417969 127.472656 208.453125 127.652344 208.527344 C 127.832031 208.601562 128.140625 208.789062 128.578125 209.09375 C 128.851562 209.285156 129.085938 209.414062 129.285156 209.484375 C 129.425781 209.539062 129.585938 209.566406 129.757812 209.566406 C 130.128906 209.566406 130.441406 209.429688 130.703125 209.160156 C 130.960938 208.890625 131.089844 208.566406 131.089844 208.191406 C 131.089844 207.398438 130.691406 206.753906 129.902344 206.257812 C 129.105469 205.761719 128.109375 205.515625 126.902344 205.515625 C 126.78125 205.515625 126.597656 205.515625 126.355469 205.519531 Z M 127.996094 200.902344 "/>
<path style=" stroke:none;fill-rule:nonzero;fill:rgb(65.098041%,12.54902%,13.725491%);fill-opacity:1;" d="M 136.234375 205.46875 L 136.234375 205.230469 C 136.742188 205.082031 137.101562 204.945312 137.300781 204.8125 C 137.5 204.6875 137.667969 204.492188 137.8125 204.230469 C 137.957031 203.964844 138.027344 203.699219 138.027344 203.425781 C 138.027344 203.054688 137.894531 202.734375 137.621094 202.464844 C 137.347656 202.195312 137.011719 202.066406 136.601562 202.066406 C 135.976562 202.066406 135.4375 202.398438 134.996094 203.0625 L 134.746094 202.976562 C 135.070312 202.222656 135.488281 201.660156 135.992188 201.28125 C 136.496094 200.902344 137.0625 200.714844 137.683594 200.714844 C 138.320312 200.714844 138.84375 200.90625 139.257812 201.292969 C 139.664062 201.683594 139.875 202.136719 139.875 202.648438 C 139.875 202.988281 139.773438 203.316406 139.585938 203.625 C 139.394531 203.941406 139.09375 204.214844 138.683594 204.457031 C 139.214844 204.714844 139.609375 205.027344 139.890625 205.402344 C 140.167969 205.777344 140.300781 206.25 140.300781 206.820312 C 140.300781 207.773438 139.957031 208.585938 139.269531 209.253906 C 138.574219 209.921875 137.652344 210.257812 136.488281 210.257812 C 135.714844 210.257812 135.152344 210.128906 134.792969 209.871094 C 134.539062 209.6875 134.410156 209.457031 134.410156 209.171875 C 134.410156 208.964844 134.480469 208.789062 134.632812 208.644531 C 134.78125 208.5 134.953125 208.421875 135.140625 208.421875 C 135.292969 208.421875 135.433594 208.457031 135.5625 208.519531 C 135.636719 208.554688 135.890625 208.753906 136.332031 209.109375 C 136.769531 209.472656 137.179688 209.648438 137.5625 209.648438 C 137.898438 209.648438 138.179688 209.515625 138.421875 209.253906 C 138.660156 208.992188 138.777344 208.65625 138.777344 208.25 C 138.777344 207.632812 138.5625 207.0625 138.128906 206.542969 C 137.699219 206.027344 137.066406 205.667969 136.234375 205.46875 "/>
<path style=" stroke:none;fill-rule:nonzero;fill:rgb(65.098041%,12.54902%,13.725491%);fill-opacity:1;" d="M 62.25 212.542969 C 62.507812 212.191406 62.539062 211.761719 62.636719 211.421875 C 62.519531 211.140625 62.285156 210.933594 61.976562 210.664062 C 62.359375 209.902344 62.421875 209.03125 61.941406 208.335938 C 62.28125 208.058594 62.542969 207.8125 62.828125 207.628906 C 63.261719 207.347656 63.832031 207.542969 64.171875 207.96875 C 64.753906 208.265625 65.445312 208.199219 65.789062 207.59375 C 66.132812 206.976562 66.085938 206.285156 65.617188 205.742188 C 65.578125 205.703125 65.417969 205.679688 65.375 205.679688 L 63.207031 205.605469 C 62.125 205.683594 60.921875 205.125 59.785156 204.300781 C 59.707031 204.652344 59.632812 204.9375 59.71875 205.210938 C 59.78125 205.417969 59.875 205.703125 60.066406 205.777344 C 60.757812 206.039062 61.460938 206.324219 62.195312 206.519531 C 61.65625 206.820312 61.15625 207.402344 60.664062 207.875 C 60.398438 207.695312 60.257812 207.492188 60.089844 207.320312 C 60.023438 207.253906 59.851562 207.164062 59.8125 207.277344 C 59.601562 207.882812 59.308594 208.558594 59.320312 209.128906 C 59.007812 209.378906 58.679688 209.328125 58.394531 209.34375 C 57.664062 209.386719 56.851562 209.09375 56.230469 210.046875 C 55.90625 210.546875 55.773438 211.121094 56.4375 211.648438 C 56.945312 211.6875 57.660156 212.117188 58.378906 212.539062 C 58.59375 212.664062 58.738281 212.953125 58.910156 213 C 59.207031 213.074219 59.5 212.945312 59.71875 212.648438 C 59.992188 212.273438 60.152344 211.859375 60.238281 211.457031 C 60.671875 211.09375 61.1875 211.035156 61.742188 211.015625 C 61.832031 211.015625 61.695312 211.535156 61.554688 211.730469 C 61.480469 211.828125 61.210938 211.746094 61.046875 211.863281 C 61.390625 212.121094 61.660156 212.40625 61.898438 212.644531 C 61.972656 212.71875 62.164062 212.664062 62.25 212.542969 "/>
<path style=" stroke:none;fill-rule:nonzero;fill:rgb(65.098041%,12.54902%,13.725491%);fill-opacity:1;" d="M 59.347656 202.886719 C 59.308594 202.925781 59.171875 203.0625 59.121094 203.105469 C 59.101562 203.128906 59.019531 203.179688 59.011719 203.195312 C 58.804688 203.574219 58.480469 203.964844 58.144531 204.300781 L 53.660156 208.542969 C 53.101562 209 52.605469 209.679688 52.761719 210.1875 C 52.789062 210.28125 52.988281 210.375 53.039062 210.421875 C 53.277344 210.328125 53.542969 210.214844 53.726562 210.019531 C 55.121094 208.511719 56.511719 206.78125 57.890625 205.355469 C 58.601562 204.625 59.183594 203.863281 59.492188 203.082031 C 59.527344 202.988281 59.410156 202.929688 59.347656 202.886719 "/>
<path style=" stroke:none;fill-rule:nonzero;fill:rgb(65.098041%,12.54902%,13.725491%);fill-opacity:1;" d="M 57.746094 212.816406 C 57.738281 212.808594 57.625 212.863281 57.457031 212.8125 C 56.628906 212.582031 55.636719 211.964844 54.664062 211.261719 C 54.328125 211.015625 53.976562 210.808594 53.785156 210.480469 C 53.621094 210.597656 53.507812 210.839844 53.609375 211.054688 C 53.820312 211.5 54.226562 211.964844 54.734375 212.398438 C 55.804688 213.316406 56.910156 213.683594 58.035156 214.527344 C 58.117188 214.59375 58.363281 214.453125 58.355469 214.375 C 58.304688 213.84375 58.097656 213.324219 57.746094 212.816406 "/>
<path style=" stroke:none;fill-rule:nonzero;fill:rgb(65.098041%,12.54902%,13.725491%);fill-opacity:1;" d="M 68.75 209.890625 C 69.210938 209.632812 69.71875 209.777344 70.125 209.441406 C 70.449219 209.183594 70.648438 208.867188 70.699219 208.550781 C 70.914062 207.183594 70.140625 205.761719 68.570312 204.640625 C 66.664062 203.671875 64.78125 203.3125 62.941406 202.933594 C 62.59375 202.863281 62.214844 202.71875 61.902344 202.894531 C 61.765625 202.972656 61.816406 203.140625 61.875 203.238281 C 61.941406 203.351562 62.292969 203.660156 62.429688 203.734375 C 62.574219 203.8125 62.757812 203.863281 62.925781 203.875 C 64.449219 203.960938 65.992188 203.816406 67.597656 204.816406 C 68.132812 205.148438 68.683594 205.515625 68.589844 206.03125 C 68.453125 206.757812 67.734375 207.449219 67.171875 208.171875 L 61.316406 216.125 C 60.941406 216.609375 60.523438 217.105469 60.097656 217.335938 C 60.011719 217.382812 59.84375 217.527344 59.78125 217.359375 C 59.554688 216.6875 59.328125 216.019531 58.996094 215.355469 C 58.886719 215.367188 58.792969 215.308594 58.710938 215.277344 C 58.621094 215.398438 58.253906 215.761719 58.25 215.953125 C 58.234375 216.621094 58.0625 217.390625 57.898438 218.160156 C 57.75 218.925781 57.558594 219.742188 58.011719 220.417969 C 58.386719 220.96875 58.976562 221.039062 59.382812 220.863281 C 59.925781 220.28125 60.476562 219.839844 61.046875 219.589844 C 63.160156 216.75 65.402344 213.867188 67.496094 210.988281 C 67.875 210.476562 68.300781 210.140625 68.75 209.890625 "/>
<path style=" stroke:none;fill-rule:nonzero;fill:rgb(65.098041%,12.54902%,13.725491%);fill-opacity:1;" d="M 158.371094 220.933594 C 158.902344 221.390625 159.484375 221.8125 160.167969 221.957031 C 160.539062 222.027344 161.066406 221.960938 161.230469 221.535156 C 161.574219 221.117188 160.945312 220.550781 160.671875 220.238281 C 160.488281 220.03125 160.398438 219.746094 160.261719 219.472656 C 160.296875 219.425781 160.210938 219.171875 160.125 219.363281 C 160.003906 219.613281 159.800781 219.851562 159.535156 220.027344 C 159.378906 220.132812 159.082031 220.054688 158.863281 219.96875 C 158.503906 219.835938 158.007812 219.773438 157.613281 220.015625 C 157.5625 220.046875 157.5625 220.203125 157.625 220.265625 C 157.863281 220.492188 158.117188 220.714844 158.371094 220.933594 "/>
<path style=" stroke:none;fill-rule:nonzero;fill:rgb(65.098041%,12.54902%,13.725491%);fill-opacity:1;" d="M 162.5625 220.589844 C 162.359375 220.945312 161.925781 221.382812 161.75 221.714844 C 162.292969 221.289062 162.742188 220.800781 163.132812 220.207031 C 163.84375 219.605469 164.691406 218.949219 165.300781 218.246094 C 165.746094 217.726562 166.113281 217.207031 166.621094 216.820312 C 167.113281 216.769531 167.265625 216.363281 167.199219 216.097656 C 167.015625 215.34375 166.460938 214.921875 165.777344 214.683594 C 165.160156 214.71875 164.203125 214.875 163.390625 215.246094 C 163.300781 215.289062 163.054688 215.457031 162.976562 215.519531 C 162.597656 215.855469 162.316406 216.269531 161.976562 216.644531 C 161.726562 216.917969 161.371094 217.132812 160.96875 217.132812 C 161.421875 218.011719 162.042969 218.632812 162.789062 218.859375 C 162.964844 218.910156 163.167969 218.804688 163.335938 218.714844 C 163.585938 218.585938 163.625 218.269531 163.5625 218.050781 C 163.46875 217.683594 163.207031 217.382812 163.277344 217.019531 C 163.214844 217.003906 163.132812 216.953125 163.121094 216.871094 C 163.054688 216.425781 163.160156 215.992188 163.550781 215.71875 C 163.742188 215.367188 164.351562 215.222656 164.667969 215.449219 C 165.089844 215.753906 164.914062 216.253906 164.835938 216.585938 C 164.488281 218.09375 163.324219 219.253906 162.5625 220.589844 "/>
<path style=" stroke:none;fill-rule:nonzero;fill:rgb(65.098041%,12.54902%,13.725491%);fill-opacity:1;" d="M 168.871094 225.019531 C 168.632812 225.109375 168.371094 225.351562 167.996094 225.390625 C 167.507812 224.84375 167.039062 224.25 166.578125 223.824219 C 166.402344 223.664062 166.617188 223.242188 166.925781 223 C 167.164062 222.804688 167.457031 222.398438 167.386719 221.84375 C 167.066406 221.113281 166.515625 220.699219 165.878906 220.679688 C 165.40625 220.667969 164.898438 220.765625 164.378906 220.964844 C 164.328125 220.984375 164.25 221.109375 164.226562 221.148438 C 163.539062 222.234375 162.617188 223.257812 161.1875 224.019531 C 161.660156 224.589844 162.304688 224.730469 162.972656 224.492188 C 163.367188 224.355469 163.707031 224.179688 163.882812 223.859375 C 163.925781 223.777344 164.117188 223.675781 164.105469 223.738281 C 164.054688 224.074219 163.917969 224.390625 163.980469 224.71875 C 164.074219 225.234375 164.425781 225.535156 164.683594 225.816406 C 165.058594 226.222656 165.5625 226.503906 166.171875 226.417969 C 166.304688 226.398438 166.148438 226.609375 166.082031 226.640625 C 165.601562 226.855469 165.226562 227.132812 164.980469 227.445312 C 164.117188 228.558594 162.832031 229.460938 161.808594 230.445312 C 161.707031 230.542969 161.910156 230.640625 161.988281 230.660156 C 162.558594 230.773438 163.234375 230.660156 163.910156 230.445312 C 164.746094 230.191406 165.382812 229.761719 166.042969 229.359375 C 166.625 228.996094 167.265625 228.707031 167.800781 228.976562 C 167.824219 228.988281 167.882812 229.195312 167.902344 229.261719 C 168.261719 230.222656 168.28125 231.085938 168.113281 231.84375 C 167.953125 232.59375 167.785156 233.464844 166.890625 233.882812 C 165.617188 234.476562 164.382812 234.875 163.144531 235.601562 C 163.089844 235.628906 163.089844 235.851562 163.136719 235.871094 C 164.074219 236.175781 165.097656 236.28125 166.269531 236.351562 C 166.453125 236.460938 166.828125 236.371094 167.132812 236.269531 C 168.175781 236.386719 169.359375 235.726562 169.777344 235.027344 C 170.230469 234.269531 170.1875 233.285156 170.417969 232.425781 C 170.730469 231.21875 170.019531 229.484375 169.386719 228 C 169.320312 227.855469 169.351562 227.714844 169.421875 227.621094 C 169.761719 227.207031 170.296875 227.078125 170.859375 226.976562 C 170.949219 226.957031 171.027344 226.871094 170.992188 226.785156 C 170.882812 226.503906 170.988281 226.21875 170.894531 225.835938 C 170.480469 225.132812 169.726562 225.058594 168.871094 225.019531 "/>
<path style=" stroke:none;fill-rule:nonzero;fill:rgb(65.098041%,12.54902%,13.725491%);fill-opacity:1;" d="M 171.476562 217.195312 C 171.070312 216.714844 170.417969 216.785156 169.847656 216.847656 C 168.859375 216.949219 167.640625 217.464844 166.773438 218 C 164.207031 219.574219 162.304688 221.507812 160.449219 223.378906 C 159.871094 223.964844 159.589844 224.691406 158.796875 225.117188 C 158.476562 224.988281 158.203125 224.9375 157.945312 224.804688 C 157.785156 224.71875 157.4375 224.609375 157.414062 224.695312 L 156.8125 226.785156 C 156.582031 227.417969 157.128906 228.617188 157.800781 228.59375 C 158.171875 228.757812 158.589844 228.535156 158.855469 228.054688 C 158.820312 227.433594 158.734375 226.644531 158.976562 225.941406 C 159.773438 225.152344 160.570312 224.3125 161.074219 223.378906 C 162.441406 221.914062 163.816406 220.441406 165.84375 219.257812 C 166.628906 218.613281 167.496094 218.015625 168.714844 217.613281 C 168.804688 217.582031 168.71875 217.785156 168.6875 217.808594 C 168.292969 218.132812 168.035156 218.394531 167.59375 218.675781 C 167.53125 218.71875 167.5 218.882812 167.378906 218.984375 C 166.875 219.390625 166.347656 219.820312 166.160156 220.382812 L 166.457031 220.265625 L 166.71875 220.726562 C 167.222656 220.355469 167.921875 220.074219 168.550781 219.859375 C 168.78125 219.785156 169.003906 219.65625 169.152344 219.566406 C 169.917969 219.097656 170.617188 218.667969 171.359375 218.242188 C 171.671875 218.066406 171.78125 217.550781 171.476562 217.195312 "/>
<path style=" stroke:none;fill-rule:nonzero;fill:rgb(65.098041%,12.54902%,13.725491%);fill-opacity:1;" d="M 149.265625 239.707031 C 147.964844 239.105469 146.546875 238.601562 145.167969 238.125 C 144.449219 237.878906 143.726562 237.695312 143.199219 237.253906 C 141.550781 235.894531 140.195312 234.164062 138.664062 232.664062 C 139.503906 231.519531 140.421875 230.523438 141.535156 229.761719 C 141.75 229.617188 141.886719 229.460938 141.871094 229.265625 C 141.859375 229.089844 141.886719 228.859375 141.65625 228.777344 C 141.90625 228.566406 141.679688 228.207031 141.558594 228.101562 L 140.890625 227.539062 C 140.773438 227.441406 140.25 227.3125 140.101562 227.238281 C 139.738281 227.042969 139.085938 227.195312 138.667969 227.078125 C 138.484375 227.023438 138.476562 226.8125 138.425781 226.675781 C 137.84375 225.070312 136.789062 224.070312 134.992188 223.847656 L 134.132812 223.984375 C 134.03125 223.996094 134.015625 224.148438 134.082031 224.199219 C 134.289062 224.363281 134.550781 224.542969 134.695312 224.828125 C 135.144531 225.71875 135.402344 227.011719 135.367188 228.324219 C 135.347656 228.9375 135.375 229.667969 135.179688 230.207031 C 135.066406 230.527344 134.664062 230.621094 134.386719 230.867188 C 133.929688 231.28125 133.34375 231.574219 132.617188 231.75 C 132.492188 231.785156 132.226562 231.9375 132.328125 232 C 132.929688 232.382812 133.605469 232.746094 134.265625 233.058594 C 134.507812 233.171875 134.9375 233.214844 134.945312 233.535156 C 134.78125 234.132812 134.421875 234.527344 134.03125 234.902344 C 132.777344 236.121094 131.253906 237.078125 129.925781 238.382812 C 129.886719 238.421875 129.714844 238.566406 129.777344 238.734375 C 129.796875 238.792969 129.894531 238.808594 129.972656 238.808594 C 131.054688 238.832031 132.160156 238.71875 133.074219 238.726562 C 133.191406 238.730469 133.339844 238.75 133.339844 238.75 C 134.980469 238.328125 135.976562 237.453125 136.941406 236.5625 C 137.25 236.285156 137.480469 235.929688 137.65625 235.410156 C 137.703125 235.261719 137.734375 234.960938 137.726562 234.683594 C 137.859375 234.640625 138.003906 234.675781 138.109375 234.746094 C 138.976562 235.378906 139.757812 236.136719 140.53125 236.878906 C 141.035156 237.367188 141.546875 237.878906 141.964844 238.449219 C 142.773438 239.550781 143.644531 240.570312 144.824219 241.09375 C 145.660156 241.121094 146.445312 241.183594 147.285156 241.171875 C 147.5 240.777344 147.761719 240.402344 148.371094 240.410156 C 148.578125 240.414062 148.839844 240.160156 149.023438 239.949219 C 149.054688 239.917969 149.285156 239.925781 149.347656 239.917969 C 149.34375 239.847656 149.355469 239.75 149.265625 239.707031 "/>
<path style=" stroke:none;fill-rule:nonzero;fill:rgb(65.098041%,12.54902%,13.725491%);fill-opacity:1;" d="M 114.601562 231.375 C 114.070312 232.445312 113.726562 234.035156 113.179688 235.355469 C 112.976562 235.851562 112.652344 236.175781 112.351562 236.671875 C 112.25 236.839844 112.027344 236.441406 111.925781 236.277344 C 111.757812 236.015625 111.414062 235.742188 110.929688 235.800781 C 110.792969 235.453125 110.910156 234.84375 111.148438 234.597656 C 111.226562 234.511719 111.546875 234.792969 111.671875 234.707031 C 111.953125 234.511719 112.167969 234.246094 112.300781 233.835938 C 112.074219 233.5 111.824219 233.152344 111.695312 232.738281 C 111.621094 232.511719 111.539062 232.25 111.574219 232.027344 L 111.859375 230.277344 C 112.433594 230.132812 113.070312 230.101562 113.75 230.082031 C 114.285156 230.066406 114.738281 230.277344 114.90625 230.628906 C 115 230.820312 114.765625 231.039062 114.601562 231.375 M 110.820312 237.527344 C 110.808594 237.488281 110.867188 237.460938 110.902344 237.4375 C 111.085938 237.335938 111.289062 237.449219 111.515625 237.476562 C 111.472656 237.765625 111.039062 237.554688 110.820312 237.527344 M 116.402344 230.386719 C 115.109375 229.554688 113.191406 229.757812 111.847656 229.9375 L 112.148438 228.082031 C 112.191406 227.828125 112.304688 227.597656 112.4375 227.367188 C 113.007812 226.382812 112.625 225.285156 112.140625 224.65625 C 111.875 224.320312 111.671875 223.914062 111.164062 223.746094 C 110.953125 223.679688 110.371094 223.523438 110.328125 223.652344 C 110.273438 223.839844 110.4375 224.300781 110.453125 224.445312 C 110.644531 226.089844 110.320312 228.074219 110.101562 230.003906 L 107.734375 230.707031 C 107.472656 230.789062 107.105469 230.875 106.960938 231.089844 C 107.074219 231.21875 107.226562 231.261719 107.359375 231.34375 C 107.570312 231.175781 107.875 231.136719 108.136719 231.039062 C 108.753906 230.8125 109.324219 230.46875 110.046875 230.363281 L 109.777344 232.027344 C 109.691406 232.363281 109.582031 232.683594 109.40625 232.902344 C 108.902344 233.03125 108.429688 233.171875 107.871094 233.15625 C 107.839844 233.492188 108.011719 233.75 108.074219 234.019531 C 108.15625 234.371094 108.460938 234.765625 108.84375 234.941406 C 108.253906 235.269531 107.726562 235.4375 107.1875 235.585938 C 107.070312 235.613281 106.898438 235.511719 106.835938 235.367188 L 105.429688 232.179688 C 105.269531 231.871094 104.902344 231.65625 104.375 231.578125 C 104.628906 232.171875 105.039062 232.65625 105.277344 233.230469 C 105.824219 234.570312 106.464844 235.910156 106.703125 237.488281 C 106.875 237.847656 107.617188 237.90625 107.953125 237.773438 C 108.816406 237.90625 109.511719 237.792969 110.097656 237.652344 C 110.6875 237.746094 110.992188 238.128906 110.996094 238.578125 C 111.222656 239.371094 111.546875 240.15625 112.339844 240.492188 C 112.78125 240.46875 113.046875 240.175781 113.253906 239.871094 C 113.925781 238.890625 114.53125 237.917969 115.214844 236.980469 C 115.636719 235.851562 116.089844 234.800781 116.640625 233.894531 C 117.066406 234.105469 117.453125 234 117.714844 233.835938 C 118.046875 233.628906 118.246094 233.042969 118.09375 232.597656 C 117.785156 231.679688 117.210938 230.90625 116.402344 230.386719 "/>
<path style=" stroke:none;fill-rule:nonzero;fill:rgb(65.098041%,12.54902%,13.725491%);fill-opacity:1;" d="M 103.21875 234.046875 C 102.40625 234.871094 101.671875 235.785156 100.785156 236.414062 C 100.671875 236.496094 100.5625 236.382812 100.554688 236.257812 C 100.542969 236.144531 100.6875 235.84375 100.5 235.792969 C 100.445312 236.171875 100.140625 236.3125 100.003906 236.476562 C 99.855469 237.128906 100.140625 237.5625 100.425781 237.894531 C 100.707031 238.226562 101.164062 238.1875 101.488281 238.007812 C 101.726562 237.875 101.960938 237.703125 102.09375 237.429688 C 102.546875 236.492188 102.8125 235.21875 103.3125 234.191406 C 103.332031 234.15625 103.355469 233.914062 103.21875 234.046875 "/>
<path style=" stroke:none;fill-rule:nonzero;fill:rgb(65.098041%,12.54902%,13.725491%);fill-opacity:1;" d="M 102.121094 229.335938 C 102.191406 229.214844 102.214844 228.738281 101.996094 229.058594 C 101.984375 229.078125 101.941406 229.105469 101.925781 229.117188 C 101.820312 229.234375 101.710938 229.394531 101.714844 229.542969 C 101.746094 230.4375 102.027344 231.199219 102.515625 231.820312 C 102.609375 231.933594 102.273438 232.054688 102.265625 232.273438 C 102.378906 232.238281 102.464844 232.164062 102.605469 232.066406 C 102.835938 232.402344 103.613281 232.566406 103.949219 232.296875 C 104.015625 232.242188 104.089844 232.164062 104.117188 232.042969 C 104.144531 231.894531 104.058594 231.679688 103.972656 231.496094 C 103.570312 230.648438 102.808594 230.027344 102.121094 229.335938 "/>
<path style=" stroke:none;fill-rule:nonzero;fill:rgb(65.098041%,12.54902%,13.725491%);fill-opacity:1;" d="M 105.429688 228.816406 C 105.542969 228.789062 105.707031 228.699219 105.703125 228.621094 C 105.667969 228.152344 105.582031 227.753906 105.386719 227.441406 C 104.957031 226.753906 104.394531 226.101562 103.761719 225.566406 C 103.726562 225.535156 103.597656 225.492188 103.613281 225.628906 C 103.6875 226.40625 103.984375 227.054688 104.238281 227.703125 C 104.285156 227.832031 103.90625 227.902344 103.976562 228.039062 C 104.121094 228.007812 104.265625 227.9375 104.371094 228.015625 C 104.480469 228.101562 104.707031 228.480469 104.8125 228.578125 C 104.972656 228.738281 105.195312 228.871094 105.429688 228.816406 "/>
<path style=" stroke:none;fill-rule:nonzero;fill:rgb(65.098041%,12.54902%,13.725491%);fill-opacity:1;" d="M 86.800781 225.535156 C 86.480469 225.339844 86.117188 225.148438 85.75 224.792969 C 85.15625 225.046875 84.433594 225.058594 83.75 224.992188 L 82.59375 224.742188 C 82.496094 224.730469 82.328125 224.824219 82.371094 224.960938 C 82.558594 225.628906 82.695312 226.3125 83.117188 226.894531 C 83.167969 226.96875 83.167969 227.054688 83.109375 227.125 C 82.6875 227.640625 82.019531 227.582031 81.421875 227.453125 C 81.347656 227.535156 81.308594 227.652344 81.390625 227.746094 C 81.429688 227.789062 81.792969 227.839844 81.542969 227.957031 C 81.421875 228.007812 81.253906 227.925781 81.222656 227.773438 C 81.203125 227.632812 81.101562 227.734375 81.082031 227.777344 C 81.019531 227.90625 80.902344 227.804688 80.882812 227.746094 C 80.378906 226.503906 80.03125 225.183594 78.640625 224.207031 C 78.726562 224.070312 78.96875 224.03125 79.183594 223.890625 C 80.355469 223.078125 81.578125 222.199219 83.101562 221.992188 C 83.738281 221.53125 84.382812 220.839844 85.222656 220.398438 C 85.832031 220.28125 86.664062 219.953125 86.992188 218.933594 C 87.941406 218.894531 88.757812 218.757812 89.585938 218.761719 L 90.582031 219.265625 C 90.746094 219.339844 91.121094 219.332031 91.152344 219.164062 C 91.316406 218.300781 91.023438 217.539062 90.433594 217.035156 C 90.359375 216.972656 90.085938 217.035156 90.015625 217.03125 C 88.292969 216.972656 86.65625 217.351562 84.851562 216.835938 L 83.785156 216.183594 C 83.675781 216.121094 83.597656 216.367188 83.601562 216.472656 C 83.65625 217.335938 84.136719 218.1875 85.167969 218.746094 C 84.675781 219.261719 84.210938 219.542969 83.757812 219.875 C 81.488281 221.539062 79.035156 222.78125 76.570312 223.890625 C 73.75 224.746094 70.933594 225.5625 68.179688 226.667969 C 68.335938 226.859375 68.546875 226.664062 68.621094 226.722656 C 69.003906 227.007812 69.414062 226.828125 69.710938 226.867188 C 70.121094 226.921875 70.511719 226.703125 70.890625 226.597656 C 71.902344 226.3125 72.949219 226.152344 73.933594 225.835938 C 75.40625 225.371094 76.941406 225.058594 78.347656 224.261719 C 78.40625 224.589844 78.445312 224.957031 78.648438 225.203125 C 78.847656 225.453125 79.128906 225.671875 79.511719 225.832031 C 79.917969 226.304688 80.089844 226.871094 80.21875 227.433594 C 80.332031 227.921875 80.140625 228.488281 80.195312 228.992188 C 80.253906 229.515625 80.339844 230.121094 80.9375 230.382812 C 82.078125 230.894531 83.09375 231.453125 84.183594 231.980469 C 84.601562 232.183594 85.03125 231.871094 85.082031 231.332031 C 85.136719 230.628906 85.207031 229.875 85.164062 229.230469 C 85.15625 229.050781 85.527344 228.824219 85.882812 228.832031 C 86.339844 228.839844 86.984375 228.878906 87.449219 228.304688 C 87.542969 228.183594 87.75 227.964844 87.742188 227.746094 C 87.714844 226.996094 87.460938 226.226562 86.800781 225.535156 "/>
<path style=" stroke:none;fill-rule:nonzero;fill:rgb(65.098041%,12.54902%,13.725491%);fill-opacity:1;" d="M 62.296875 62.296875 C 45.992188 78.601562 35.917969 101.109375 35.914062 125.984375 C 35.917969 150.859375 45.992188 173.367188 62.296875 189.667969 C 78.597656 205.972656 101.109375 216.050781 125.984375 216.050781 C 150.855469 216.050781 173.367188 205.972656 189.667969 189.667969 C 205.96875 173.367188 216.046875 150.859375 216.050781 125.984375 C 216.046875 101.109375 205.96875 78.601562 189.667969 62.296875 C 173.367188 45.996094 150.855469 35.917969 125.984375 35.917969 C 101.109375 35.917969 78.597656 45.996094 62.296875 62.296875 M 33.402344 125.984375 C 33.40625 74.851562 74.851562 33.402344 125.984375 33.402344 C 177.117188 33.402344 218.5625 74.851562 218.5625 125.984375 C 218.5625 177.113281 177.117188 218.5625 125.984375 218.566406 C 74.851562 218.5625 33.40625 177.113281 33.402344 125.984375 "/>
<g clip-path="url(#clip1)" clip-rule="nonzero">
<path style=" stroke:none;fill-rule:nonzero;fill:rgb(65.098041%,12.54902%,13.725491%);fill-opacity:1;" d="M 39.859375 39.863281 C 17.816406 61.910156 4.1875 92.34375 4.1875 125.984375 C 4.1875 159.625 17.816406 190.058594 39.859375 212.105469 C 61.90625 234.148438 92.34375 247.773438 125.984375 247.773438 C 159.621094 247.773438 190.054688 234.148438 212.101562 212.105469 C 234.144531 190.058594 247.773438 159.625 247.773438 125.984375 C 247.773438 92.34375 234.144531 61.910156 212.101562 39.863281 C 190.054688 17.816406 159.621094 4.191406 125.984375 4.1875 C 92.34375 4.191406 61.90625 17.816406 39.859375 39.863281 M 0 125.984375 C 0 56.40625 56.402344 0 125.984375 0 C 195.5625 0 251.96875 56.40625 251.96875 125.984375 C 251.96875 195.566406 195.5625 251.964844 125.984375 251.96875 C 56.402344 251.964844 0 195.566406 0 125.984375 "/>
</g>
<path style=" stroke:none;fill-rule:nonzero;fill:rgb(65.098041%,12.54902%,13.725491%);fill-opacity:1;" d="M 15.296875 157.78125 C 15.335938 156.71875 15.335938 156.136719 15.300781 156.027344 C 15.210938 155.742188 15.03125 155.554688 14.757812 155.453125 C 14.484375 155.351562 14.222656 155.320312 13.96875 155.351562 L 13.769531 154.734375 L 18.980469 153.058594 L 19.164062 153.628906 C 18.203125 154.523438 17.488281 155.359375 17.015625 156.128906 C 16.140625 157.554688 15.917969 158.929688 16.34375 160.246094 C 16.820312 161.738281 17.804688 162.589844 19.296875 162.804688 C 20.78125 163.023438 22.613281 162.78125 24.777344 162.082031 C 26.375 161.570312 27.628906 160.964844 28.539062 160.265625 C 30.25 158.957031 30.800781 157.367188 30.203125 155.5 C 29.835938 154.355469 29.175781 153.394531 28.222656 152.613281 C 27.667969 152.167969 26.867188 151.691406 25.804688 151.183594 L 26.136719 150.34375 C 27.386719 150.902344 28.335938 151.441406 28.984375 151.960938 C 30.136719 152.890625 30.945312 154.070312 31.402344 155.503906 C 32.109375 157.703125 32.050781 159.753906 31.21875 161.660156 C 30.304688 163.773438 28.625 165.214844 26.179688 166 C 23.757812 166.777344 21.546875 166.625 19.539062 165.53125 C 17.65625 164.5 16.371094 162.914062 15.679688 160.769531 C 15.386719 159.835938 15.253906 158.84375 15.296875 157.78125 "/>
<path style=" stroke:none;fill-rule:nonzero;fill:rgb(65.098041%,12.54902%,13.725491%);fill-opacity:1;" d="M 28.179688 149.144531 C 28.0625 148.53125 27.90625 148.109375 27.726562 147.871094 C 27.421875 147.476562 26.9375 147.328125 26.265625 147.425781 L 15.050781 149.0625 C 14.398438 149.15625 13.984375 149.414062 13.808594 149.832031 C 13.710938 150.085938 13.671875 150.5625 13.707031 151.257812 L 13.117188 151.34375 L 11.976562 143.507812 L 12.5625 143.421875 C 12.699219 144.09375 12.859375 144.550781 13.039062 144.796875 C 13.339844 145.195312 13.828125 145.347656 14.492188 145.253906 L 19.296875 144.550781 L 18.496094 139.035156 L 13.691406 139.734375 C 13.023438 139.832031 12.605469 140.109375 12.429688 140.554688 C 12.324219 140.832031 12.300781 141.324219 12.359375 142.03125 L 11.769531 142.117188 L 10.621094 134.234375 L 11.207031 134.152344 C 11.363281 134.820312 11.527344 135.273438 11.703125 135.5 C 11.996094 135.882812 12.476562 136.023438 13.132812 135.925781 L 24.351562 134.289062 C 25.027344 134.1875 25.449219 133.894531 25.628906 133.398438 C 25.730469 133.117188 25.75 132.664062 25.683594 132.042969 L 26.273438 131.953125 L 27.417969 139.835938 L 26.835938 139.917969 C 26.710938 139.261719 26.554688 138.800781 26.355469 138.546875 C 26.050781 138.152344 25.566406 138.003906 24.902344 138.101562 L 19.566406 138.878906 L 20.371094 144.394531 L 25.710938 143.617188 C 26.394531 143.515625 26.828125 143.214844 26.996094 142.714844 C 27.09375 142.421875 27.105469 141.953125 27.035156 141.3125 L 27.625 141.222656 L 28.765625 149.0625 Z M 28.179688 149.144531 "/>
<path style=" stroke:none;fill-rule:nonzero;fill:rgb(65.098041%,12.54902%,13.725491%);fill-opacity:1;" d="M 25.976562 132.21875 C 25.949219 131.554688 25.859375 131.082031 25.710938 130.796875 C 25.453125 130.332031 24.984375 130.101562 24.289062 130.117188 L 12.957031 130.347656 C 12.265625 130.359375 11.816406 130.589844 11.585938 131.046875 C 11.449219 131.324219 11.371094 131.8125 11.351562 132.511719 L 10.761719 132.527344 L 10.59375 124.347656 L 11.1875 124.335938 C 11.234375 125.066406 11.328125 125.570312 11.46875 125.839844 C 11.714844 126.289062 12.183594 126.511719 12.878906 126.496094 L 24.214844 126.265625 C 24.867188 126.253906 25.300781 126.0625 25.515625 125.695312 C 25.730469 125.324219 25.828125 124.769531 25.8125 124.042969 L 26.40625 124.027344 L 26.574219 132.207031 Z M 25.976562 132.21875 "/>
<path style=" stroke:none;fill-rule:nonzero;fill:rgb(65.098041%,12.54902%,13.725491%);fill-opacity:1;" d="M 25.566406 124.199219 C 25.628906 123.332031 25.515625 122.757812 25.234375 122.480469 C 24.949219 122.199219 24.507812 122.027344 23.914062 121.96875 L 12.878906 120.898438 C 12.011719 121.535156 11.503906 121.925781 11.347656 122.078125 C 11.191406 122.230469 11.082031 122.449219 11.011719 122.734375 L 10.421875 122.679688 L 10.902344 117.742188 L 21.414062 110.683594 L 21.421875 110.570312 L 14.582031 109.902344 C 13.792969 109.828125 13.21875 109.914062 12.851562 110.171875 C 12.488281 110.425781 12.226562 110.976562 12.078125 111.828125 L 11.484375 111.773438 L 11.972656 106.769531 L 12.5625 106.824219 C 12.609375 107.5625 12.726562 108.070312 12.90625 108.335938 C 13.085938 108.601562 13.527344 108.769531 14.238281 108.835938 L 27.964844 110.171875 L 27.902344 110.820312 L 14.453125 119.851562 L 14.4375 120.015625 L 23.566406 120.902344 C 24.285156 120.972656 24.800781 120.925781 25.117188 120.757812 C 25.628906 120.492188 25.945312 119.882812 26.078125 118.921875 L 26.671875 118.976562 L 26.15625 124.253906 Z M 25.566406 124.199219 "/>
<path style=" stroke:none;fill-rule:nonzero;fill:rgb(65.098041%,12.54902%,13.725491%);fill-opacity:1;" d="M 24.542969 98.621094 L 18.738281 99.429688 L 18.6875 99.617188 L 23.390625 103.03125 Z M 27.085938 108.367188 C 27.195312 107.8125 27.058594 107.308594 26.695312 106.859375 C 26.460938 106.570312 25.910156 106.097656 25.03125 105.441406 L 13.953125 97.175781 L 14.117188 96.542969 L 27.332031 94.601562 C 28.816406 94.378906 29.785156 94.183594 30.246094 94.003906 C 30.707031 93.828125 30.996094 93.476562 31.113281 92.957031 L 31.691406 93.105469 L 29.777344 100.4375 L 29.203125 100.289062 C 29.363281 99.539062 29.429688 99.039062 29.394531 98.785156 C 29.359375 98.523438 29.144531 98.347656 28.753906 98.242188 C 28.578125 98.195312 28.289062 98.183594 27.902344 98.210938 C 27.667969 98.226562 27.382812 98.257812 27.046875 98.304688 L 25.527344 98.523438 L 24.199219 103.605469 C 25.011719 104.171875 25.539062 104.539062 25.789062 104.707031 C 26.316406 105.058594 26.71875 105.269531 26.984375 105.339844 C 27.308594 105.421875 27.601562 105.269531 27.859375 104.871094 C 28.007812 104.632812 28.15625 104.261719 28.296875 103.746094 L 28.871094 103.898438 L 27.664062 108.515625 Z M 27.085938 108.367188 "/>
<path style=" stroke:none;fill-rule:nonzero;fill:rgb(65.098041%,12.54902%,13.725491%);fill-opacity:1;" d="M 21.972656 76.105469 L 22.507812 76.363281 C 22.140625 77.191406 22.003906 77.800781 22.097656 78.183594 C 22.191406 78.566406 22.636719 78.949219 23.445312 79.335938 L 30.503906 82.746094 C 31.578125 83.257812 32.46875 83.535156 33.175781 83.5625 C 34.484375 83.621094 35.449219 83.003906 36.082031 81.699219 C 36.859375 80.082031 36.789062 78.699219 35.863281 77.546875 C 35.351562 76.917969 34.503906 76.3125 33.316406 75.738281 L 26.867188 72.632812 C 26.113281 72.265625 25.527344 72.15625 25.105469 72.296875 C 24.6875 72.433594 24.253906 72.894531 23.800781 73.675781 L 23.269531 73.417969 L 25.5 68.789062 L 26.035156 69.046875 C 25.839844 69.78125 25.785156 70.300781 25.871094 70.609375 C 25.953125 70.917969 26.335938 71.234375 27.015625 71.558594 L 33.753906 74.8125 C 35.546875 75.675781 36.726562 76.773438 37.28125 78.109375 C 37.839844 79.441406 37.671875 81.035156 36.777344 82.886719 C 35.613281 85.308594 34.085938 86.617188 32.207031 86.808594 C 31.207031 86.914062 30.101562 86.671875 28.886719 86.085938 L 21.832031 82.683594 C 21.039062 82.300781 20.492188 82.167969 20.1875 82.277344 C 19.882812 82.390625 19.507812 82.789062 19.070312 83.484375 L 18.539062 83.226562 Z M 21.972656 76.105469 "/>
<path style=" stroke:none;fill-rule:nonzero;fill:rgb(65.098041%,12.54902%,13.725491%);fill-opacity:1;" d="M 39.113281 75.542969 C 39.589844 74.820312 39.773438 74.265625 39.664062 73.882812 C 39.554688 73.5 39.253906 73.136719 38.757812 72.792969 L 29.65625 66.464844 C 28.59375 66.601562 27.953125 66.691406 27.742188 66.75 C 27.535156 66.808594 27.328125 66.941406 27.128906 67.160156 L 26.640625 66.820312 L 29.472656 62.75 L 42.089844 61.722656 L 42.152344 61.628906 L 36.511719 57.707031 C 35.859375 57.253906 35.3125 57.050781 34.871094 57.09375 C 34.429688 57.136719 33.933594 57.496094 33.382812 58.160156 L 32.894531 57.824219 L 35.761719 53.695312 L 36.253906 54.035156 C 35.933594 54.707031 35.789062 55.199219 35.816406 55.519531 C 35.84375 55.835938 36.148438 56.203125 36.730469 56.609375 L 48.058594 64.480469 L 47.6875 65.011719 L 31.535156 66.328125 L 31.445312 66.457031 L 38.980469 71.691406 C 39.570312 72.105469 40.042969 72.3125 40.402344 72.320312 C 40.976562 72.34375 41.558594 71.964844 42.140625 71.191406 L 42.625 71.53125 L 39.601562 75.882812 Z M 39.113281 75.542969 "/>
<path style=" stroke:none;fill-rule:nonzero;fill:rgb(65.098041%,12.54902%,13.725491%);fill-opacity:1;" d="M 48.304688 62.6875 C 48.734375 62.183594 48.992188 61.773438 49.074219 61.460938 C 49.203125 60.945312 49.011719 60.460938 48.492188 60 L 40.015625 52.476562 C 39.496094 52.019531 39.007812 51.882812 38.53125 52.0625 C 38.242188 52.171875 37.851562 52.480469 37.363281 52.984375 L 36.921875 52.585938 L 42.347656 46.46875 L 42.796875 46.867188 C 42.332031 47.429688 42.0625 47.859375 41.980469 48.15625 C 41.851562 48.65625 42.050781 49.132812 42.570312 49.597656 L 51.050781 57.117188 C 51.539062 57.554688 51.988281 57.710938 52.394531 57.582031 C 52.804688 57.453125 53.25 57.117188 53.734375 56.574219 L 54.179688 56.960938 L 48.75 63.085938 Z M 48.304688 62.6875 "/>
<path style=" stroke:none;fill-rule:nonzero;fill:rgb(65.098041%,12.54902%,13.725491%);fill-opacity:1;" d="M 49.199219 39.929688 L 49.578125 40.355469 C 48.988281 40.949219 48.625 41.363281 48.503906 41.597656 C 48.382812 41.832031 48.449219 42.09375 48.703125 42.378906 C 48.785156 42.46875 48.863281 42.546875 48.949219 42.613281 C 49.03125 42.675781 49.132812 42.734375 49.253906 42.792969 L 57.777344 46.792969 L 57.753906 46.820312 L 54.777344 38.859375 C 54.710938 38.683594 54.640625 38.507812 54.554688 38.332031 C 54.425781 38.050781 54.300781 37.839844 54.179688 37.703125 C 53.882812 37.375 53.601562 37.257812 53.332031 37.347656 C 53.0625 37.4375 52.609375 37.734375 51.96875 38.226562 L 51.589844 37.800781 L 55.3125 34.488281 L 55.691406 34.917969 C 55.304688 35.34375 55.097656 35.753906 55.0625 36.144531 C 55.027344 36.535156 55.140625 37.074219 55.390625 37.757812 L 60.542969 51.582031 L 60.082031 51.992188 L 46.265625 45.519531 C 45.707031 45.257812 45.253906 45.125 44.898438 45.105469 C 44.542969 45.089844 44.148438 45.246094 43.710938 45.570312 L 43.332031 45.144531 Z M 49.199219 39.929688 "/>
<path style=" stroke:none;fill-rule:nonzero;fill:rgb(65.098041%,12.54902%,13.725491%);fill-opacity:1;" d="M 65.636719 46.5 L 65.308594 46 C 65.863281 45.617188 66.207031 45.28125 66.363281 44.992188 C 66.59375 44.554688 66.523438 44.054688 66.160156 43.488281 L 59.988281 33.984375 C 59.617188 33.410156 59.179688 33.148438 58.671875 33.195312 C 58.378906 33.21875 57.9375 33.398438 57.351562 33.734375 L 57.023438 33.238281 L 68.332031 25.890625 L 70.902344 29.851562 L 70.421875 30.164062 C 69.351562 29.0625 68.367188 28.46875 67.464844 28.390625 C 66.566406 28.308594 65.328125 28.785156 63.75 29.8125 C 63.148438 30.199219 62.808594 30.507812 62.722656 30.742188 C 62.640625 30.96875 62.722656 31.269531 62.964844 31.640625 L 65.914062 36.183594 C 67.039062 35.472656 67.664062 34.777344 67.789062 34.101562 C 67.914062 33.425781 67.722656 32.464844 67.207031 31.214844 L 67.710938 30.890625 L 72.015625 37.523438 L 71.515625 37.847656 C 70.648438 36.820312 69.851562 36.21875 69.121094 36.042969 C 68.394531 35.867188 67.472656 36.136719 66.355469 36.867188 L 69.441406 41.617188 C 69.710938 42.03125 70 42.246094 70.308594 42.257812 C 70.625 42.269531 71.113281 42.058594 71.777344 41.628906 C 73.027344 40.8125 73.890625 39.90625 74.371094 38.90625 C 74.847656 37.90625 74.957031 36.539062 74.703125 34.808594 L 75.25 34.453125 L 77.109375 39.050781 Z M 65.636719 46.5 "/>
<path style=" stroke:none;fill-rule:nonzero;fill:rgb(65.098041%,12.54902%,13.725491%);fill-opacity:1;" d="M 82.472656 26.855469 C 82.902344 26.210938 82.816406 25.214844 82.210938 23.867188 C 81.835938 23.042969 81.429688 22.441406 80.984375 22.066406 C 80.222656 21.433594 79.3125 21.355469 78.265625 21.828125 C 77.699219 22.082031 77.355469 22.320312 77.242188 22.542969 C 77.128906 22.769531 77.148438 23.039062 77.296875 23.367188 L 79.746094 28.792969 C 81.132812 28.140625 82.039062 27.496094 82.472656 26.855469 M 77.484375 38.011719 C 78.195312 37.652344 78.625 37.292969 78.78125 36.9375 C 78.941406 36.582031 78.839844 36.011719 78.484375 35.214844 L 74.226562 25.78125 C 73.851562 24.964844 73.457031 24.496094 73.03125 24.386719 C 72.746094 24.316406 72.226562 24.414062 71.46875 24.679688 L 71.226562 24.140625 L 78.089844 21.042969 C 79.511719 20.402344 80.730469 20.027344 81.746094 19.929688 C 83.730469 19.761719 85.070312 20.460938 85.78125 22.027344 C 86.304688 23.191406 86.265625 24.304688 85.675781 25.378906 C 85.21875 26.183594 84.636719 26.832031 83.9375 27.316406 L 91.210938 31.339844 C 91.402344 31.453125 91.578125 31.503906 91.734375 31.5 C 91.890625 31.492188 92.066406 31.449219 92.265625 31.375 L 92.496094 31.886719 L 88.046875 33.898438 L 80.0625 29.480469 L 80.050781 29.480469 L 81.9375 33.65625 C 82.277344 34.40625 82.632812 34.855469 83 35.003906 C 83.367188 35.152344 83.929688 35.066406 84.691406 34.757812 L 84.933594 35.300781 L 77.730469 38.550781 Z M 77.484375 38.011719 "/>
<path style=" stroke:none;fill-rule:nonzero;fill:rgb(65.098041%,12.54902%,13.725491%);fill-opacity:1;" d="M 91.460938 26.621094 L 92.097656 26.402344 C 93.019531 27.917969 94.007812 28.910156 95.050781 29.382812 C 96.097656 29.855469 97.125 29.917969 98.140625 29.566406 C 99.125 29.230469 99.738281 28.734375 99.972656 28.082031 C 100.207031 27.429688 100.226562 26.820312 100.027344 26.253906 C 99.800781 25.601562 99.394531 25.140625 98.816406 24.875 C 98.433594 24.703125 97.734375 24.550781 96.707031 24.417969 L 95.046875 24.195312 C 93.40625 23.980469 92.179688 23.625 91.367188 23.140625 C 90.554688 22.652344 89.96875 21.90625 89.613281 20.898438 C 89.238281 19.832031 89.269531 18.703125 89.707031 17.515625 C 90.140625 16.328125 91.144531 15.460938 92.71875 14.917969 C 93.515625 14.644531 94.332031 14.5 95.164062 14.480469 C 95.996094 14.46875 96.464844 14.445312 96.570312 14.40625 C 96.8125 14.324219 96.957031 14.199219 96.996094 14.023438 C 97.039062 13.855469 97.050781 13.644531 97.027344 13.398438 L 97.6875 13.171875 L 99.359375 17.9375 L 98.738281 18.148438 C 98.0625 17.144531 97.222656 16.371094 96.21875 15.824219 C 95.207031 15.273438 94.183594 15.179688 93.144531 15.539062 C 92.410156 15.789062 91.902344 16.191406 91.621094 16.742188 C 91.332031 17.292969 91.296875 17.851562 91.492188 18.429688 C 91.738281 19.121094 92.117188 19.570312 92.636719 19.777344 C 93.148438 19.988281 94.207031 20.199219 95.804688 20.410156 L 97.726562 20.660156 C 98.582031 20.773438 99.300781 20.976562 99.890625 21.269531 C 100.988281 21.820312 101.742188 22.679688 102.15625 23.863281 C 102.542969 24.96875 102.476562 26.15625 101.949219 27.4375 C 101.425781 28.714844 100.207031 29.6875 98.292969 30.34375 C 97.859375 30.492188 97.402344 30.605469 96.917969 30.675781 C 96.445312 30.75 95.953125 30.777344 95.453125 30.757812 L 94.972656 30.742188 C 94.867188 30.75 94.761719 30.757812 94.664062 30.769531 C 94.566406 30.785156 94.484375 30.804688 94.417969 30.824219 C 94.191406 30.902344 94.058594 31.023438 94.023438 31.183594 C 93.984375 31.347656 93.972656 31.558594 93.996094 31.824219 L 93.359375 32.039062 Z M 91.460938 26.621094 "/>
<path style=" stroke:none;fill-rule:nonzero;fill:rgb(65.098041%,12.54902%,13.725491%);fill-opacity:1;" d="M 103.40625 28.339844 C 104.058594 28.207031 104.507812 28.039062 104.765625 27.84375 C 105.1875 27.515625 105.332031 27.011719 105.207031 26.332031 L 103.128906 15.1875 C 103 14.511719 102.699219 14.101562 102.214844 13.953125 C 101.917969 13.859375 101.421875 13.867188 100.726562 13.964844 L 100.617188 13.378906 L 108.660156 11.878906 L 108.769531 12.464844 C 108.054688 12.628906 107.578125 12.800781 107.332031 12.984375 C 106.925781 13.296875 106.785156 13.796875 106.914062 14.480469 L 108.988281 25.625 C 109.109375 26.269531 109.371094 26.664062 109.769531 26.816406 C 110.171875 26.964844 110.734375 26.972656 111.449219 26.839844 L 111.558594 27.425781 L 103.515625 28.921875 Z M 103.40625 28.339844 "/>
<path style=" stroke:none;fill-rule:nonzero;fill:rgb(65.098041%,12.54902%,13.725491%);fill-opacity:1;" d="M 110.402344 11.472656 L 124.457031 10.457031 L 124.816406 15.167969 L 124.148438 15.210938 C 123.804688 13.546875 123.089844 12.453125 122.007812 11.933594 C 121.398438 11.648438 120.515625 11.53125 119.347656 11.585938 L 120.234375 23.878906 C 120.296875 24.738281 120.488281 25.296875 120.808594 25.558594 C 121.128906 25.816406 121.765625 25.914062 122.714844 25.847656 L 122.753906 26.4375 L 114.4375 27.039062 L 114.394531 26.445312 C 115.304688 26.378906 115.902344 26.191406 116.179688 25.886719 C 116.464844 25.578125 116.566406 25 116.511719 24.148438 L 115.621094 11.851562 C 114.484375 11.964844 113.625 12.207031 113.039062 12.578125 C 111.964844 13.269531 111.417969 14.453125 111.394531 16.132812 L 110.722656 16.183594 Z M 110.402344 11.472656 "/>
<path style=" stroke:none;fill-rule:nonzero;fill:rgb(65.098041%,12.54902%,13.725491%);fill-opacity:1;" d="M 134.722656 10.980469 L 134.671875 11.574219 C 133.863281 11.554688 133.34375 11.578125 133.109375 11.636719 C 132.875 11.695312 132.753906 11.84375 132.730469 12.085938 C 132.722656 12.191406 132.738281 12.3125 132.769531 12.441406 C 132.796875 12.566406 132.878906 12.800781 133.007812 13.140625 L 135.65625 18.984375 L 135.683594 18.984375 L 138.507812 15.078125 C 138.6875 14.839844 138.875 14.546875 139.078125 14.195312 C 139.386719 13.660156 139.554688 13.265625 139.574219 12.992188 C 139.605469 12.582031 139.464844 12.296875 139.148438 12.136719 C 138.933594 12.03125 138.453125 11.917969 137.707031 11.808594 L 137.753906 11.21875 L 142.875 11.609375 L 142.832031 12.203125 C 142.453125 12.246094 142.152344 12.300781 141.925781 12.375 C 141.628906 12.5 141.378906 12.699219 141.164062 12.984375 L 136.148438 19.894531 L 135.820312 24.1875 C 135.746094 25.078125 135.855469 25.65625 136.136719 25.9375 C 136.417969 26.214844 136.976562 26.398438 137.800781 26.484375 L 137.757812 27.074219 L 129.671875 26.449219 L 129.71875 25.859375 C 130.582031 25.902344 131.171875 25.796875 131.476562 25.546875 C 131.785156 25.296875 131.96875 24.746094 132.039062 23.894531 L 132.304688 20.464844 L 128.640625 12.390625 C 128.402344 11.855469 128.082031 11.472656 127.6875 11.238281 C 127.421875 11.089844 127.148438 11 126.871094 10.96875 L 126.917969 10.375 Z M 134.722656 10.980469 "/>
<path style=" stroke:none;fill-rule:nonzero;fill:rgb(65.098041%,12.54902%,13.725491%);fill-opacity:1;" d="M 158.027344 28.050781 C 158.675781 27.066406 159.253906 25.699219 159.757812 23.957031 C 160.449219 21.5625 160.609375 19.65625 160.246094 18.234375 C 159.882812 16.816406 159.089844 15.925781 157.863281 15.574219 C 156.164062 15.085938 154.707031 15.761719 153.492188 17.605469 C 152.851562 18.585938 152.285156 19.933594 151.785156 21.65625 C 151.28125 23.40625 151.042969 24.867188 151.066406 26.039062 C 151.117188 28.21875 151.988281 29.554688 153.6875 30.042969 C 155.375 30.53125 156.820312 29.863281 158.027344 28.050781 M 163.109375 18.644531 C 164.222656 20.59375 164.433594 22.746094 163.753906 25.109375 C 163.066406 27.472656 161.738281 29.183594 159.765625 30.238281 C 157.828125 31.265625 155.734375 31.453125 153.476562 30.800781 C 151.074219 30.109375 149.347656 28.742188 148.296875 26.703125 C 147.316406 24.789062 147.136719 22.761719 147.753906 20.625 C 148.433594 18.265625 149.734375 16.546875 151.648438 15.457031 C 153.585938 14.351562 155.734375 14.136719 158.085938 14.816406 C 160.359375 15.472656 162.03125 16.746094 163.109375 18.644531 "/>
<path style=" stroke:none;fill-rule:nonzero;fill:rgb(65.098041%,12.54902%,13.725491%);fill-opacity:1;" d="M 161.851562 32.246094 C 162.46875 32.507812 162.9375 32.621094 163.261719 32.59375 C 163.761719 32.558594 164.144531 32.234375 164.429688 31.625 L 169.1875 21.351562 C 169.472656 20.734375 169.46875 20.230469 169.183594 19.835938 C 169.007812 19.597656 168.609375 19.308594 167.996094 18.972656 L 168.246094 18.433594 L 180.28125 24.007812 L 178.296875 28.289062 L 177.785156 28.050781 C 178.128906 26.609375 178.121094 25.480469 177.738281 24.660156 C 177.363281 23.84375 176.335938 23.046875 174.664062 22.273438 C 174.039062 21.988281 173.613281 21.875 173.375 21.9375 C 173.144531 22 172.9375 22.226562 172.757812 22.613281 L 170.480469 27.527344 C 171.617188 28.078125 172.507812 28.195312 173.144531 27.878906 C 173.785156 27.558594 174.464844 26.898438 175.183594 25.890625 L 175.71875 26.136719 L 172.402344 33.3125 L 171.859375 33.0625 C 172.246094 31.851562 172.339844 30.875 172.144531 30.148438 C 171.949219 29.417969 171.28125 28.792969 170.140625 28.265625 L 167.851562 33.207031 C 167.550781 33.867188 167.546875 34.375 167.847656 34.722656 C 168.152344 35.078125 168.699219 35.429688 169.492188 35.78125 L 169.242188 36.324219 L 161.601562 32.785156 Z M 161.851562 32.246094 "/>
<path style=" stroke:none;fill-rule:nonzero;fill:rgb(65.098041%,12.54902%,13.725491%);fill-opacity:1;" d="M 188.648438 38.117188 C 189.527344 38.148438 190.410156 37.519531 191.292969 36.238281 C 191.902344 35.359375 192.242188 34.546875 192.320312 33.804688 C 192.398438 33.0625 192.019531 32.40625 191.183594 31.828125 C 190.804688 31.566406 190.496094 31.421875 190.269531 31.394531 C 190.039062 31.371094 189.832031 31.492188 189.652344 31.757812 L 186.082031 36.925781 C 187.242188 37.703125 188.097656 38.097656 188.648438 38.117188 M 177.207031 39.6875 C 177.875 40.082031 178.386719 40.242188 178.761719 40.167969 C 179.128906 40.09375 179.546875 39.714844 180.019531 39.03125 L 185.902344 30.515625 C 186.398438 29.789062 186.601562 29.257812 186.519531 28.914062 C 186.429688 28.574219 186.097656 28.152344 185.511719 27.652344 L 185.855469 27.164062 L 192.050781 31.4375 C 193.691406 32.570312 194.757812 33.699219 195.246094 34.828125 C 195.734375 35.949219 195.53125 37.160156 194.636719 38.457031 C 194.195312 39.089844 193.617188 39.566406 192.902344 39.894531 C 192.183594 40.214844 191.320312 40.28125 190.316406 40.085938 C 189.570312 39.921875 188.886719 39.664062 188.269531 39.308594 C 187.652344 38.960938 186.769531 38.386719 185.621094 37.59375 L 183.140625 41.191406 C 182.652344 41.894531 182.453125 42.441406 182.539062 42.828125 C 182.625 43.210938 182.988281 43.640625 183.621094 44.117188 L 183.285156 44.605469 L 176.871094 40.175781 Z M 177.207031 39.6875 "/>
<path style=" stroke:none;fill-rule:nonzero;fill:rgb(65.098041%,12.54902%,13.725491%);fill-opacity:1;" d="M 187.730469 47.585938 L 188.132812 47.144531 C 188.640625 47.585938 189.054688 47.835938 189.371094 47.910156 C 189.851562 48.023438 190.324219 47.832031 190.777344 47.339844 L 198.433594 38.984375 C 198.894531 38.480469 199.039062 37.992188 198.863281 37.515625 C 198.773438 37.238281 198.488281 36.851562 198.015625 36.367188 L 198.414062 35.925781 L 208.355469 45.039062 L 205.164062 48.519531 L 204.746094 48.128906 C 205.542969 46.820312 205.867188 45.714844 205.722656 44.824219 C 205.570312 43.933594 204.804688 42.851562 203.417969 41.582031 C 202.890625 41.097656 202.503906 40.84375 202.257812 40.824219 C 202.015625 40.800781 201.742188 40.953125 201.445312 41.277344 L 197.789062 45.273438 C 198.757812 46.183594 199.585938 46.613281 200.273438 46.566406 C 200.960938 46.515625 201.839844 46.089844 202.921875 45.28125 L 203.363281 45.683594 L 198.019531 51.511719 L 197.582031 51.113281 C 198.359375 50.011719 198.738281 49.097656 198.730469 48.34375 C 198.71875 47.59375 198.222656 46.769531 197.238281 45.867188 L 193.410156 50.046875 C 193.074219 50.414062 192.9375 50.746094 193.007812 51.050781 C 193.074219 51.355469 193.402344 51.773438 193.984375 52.3125 C 195.082031 53.320312 196.179688 53.929688 197.269531 54.140625 C 198.355469 54.351562 199.703125 54.117188 201.320312 53.441406 L 201.800781 53.878906 L 197.816406 56.828125 Z M 187.730469 47.585938 "/>
<path style=" stroke:none;fill-rule:nonzero;fill:rgb(65.098041%,12.54902%,13.725491%);fill-opacity:1;" d="M 210.816406 47.527344 L 219.726562 58.4375 L 216.085938 61.441406 L 215.65625 60.921875 C 216.828125 59.679688 217.308594 58.46875 217.113281 57.28125 C 216.996094 56.621094 216.585938 55.828125 215.871094 54.90625 L 206.316406 62.703125 C 205.652344 63.246094 205.304688 63.726562 205.277344 64.136719 C 205.25 64.550781 205.535156 65.121094 206.136719 65.859375 L 205.675781 66.234375 L 200.402344 59.773438 L 200.863281 59.398438 C 201.4375 60.105469 201.933594 60.484375 202.347656 60.539062 C 202.757812 60.589844 203.292969 60.347656 203.957031 59.808594 L 213.503906 52.015625 C 212.757812 51.148438 212.070312 50.582031 211.425781 50.316406 C 210.246094 49.835938 208.960938 50.070312 207.574219 51.015625 L 207.148438 50.492188 Z M 210.816406 47.527344 "/>
<path style=" stroke:none;fill-rule:nonzero;fill:rgb(65.098041%,12.54902%,13.725491%);fill-opacity:1;" d="M 219.777344 71.933594 C 220.460938 72.296875 221.441406 72.101562 222.710938 71.351562 C 223.496094 70.890625 224.046875 70.417969 224.371094 69.929688 C 224.914062 69.105469 224.898438 68.195312 224.316406 67.207031 C 223.996094 66.667969 223.71875 66.355469 223.488281 66.269531 C 223.257812 66.179688 222.980469 66.230469 222.675781 66.40625 L 217.546875 69.433594 C 218.347656 70.746094 219.089844 71.578125 219.777344 71.933594 M 208.140625 68.199219 C 208.574219 68.859375 208.980469 69.253906 209.347656 69.367188 C 209.722656 69.488281 210.277344 69.320312 211.027344 68.882812 L 219.9375 63.617188 C 220.714844 63.160156 221.132812 62.714844 221.195312 62.28125 C 221.234375 61.992188 221.078125 61.484375 220.730469 60.761719 L 221.246094 60.460938 L 225.070312 66.941406 C 225.867188 68.289062 226.371094 69.457031 226.578125 70.460938 C 226.960938 72.40625 226.410156 73.824219 224.925781 74.699219 C 223.835938 75.34375 222.71875 75.429688 221.589844 74.960938 C 220.738281 74.589844 220.035156 74.085938 219.476562 73.445312 L 216.269531 81.113281 C 216.179688 81.316406 216.144531 81.496094 216.167969 81.648438 C 216.195312 81.804688 216.253906 81.972656 216.347656 82.167969 L 215.867188 82.449219 L 213.386719 78.246094 L 216.90625 69.824219 L 216.898438 69.816406 L 212.953125 72.148438 C 212.246094 72.566406 211.839844 72.96875 211.734375 73.347656 C 211.625 73.730469 211.769531 74.28125 212.160156 75.007812 L 211.648438 75.308594 L 207.628906 68.5 Z M 208.140625 68.199219 "/>
<path style=" stroke:none;fill-rule:nonzero;fill:rgb(65.098041%,12.54902%,13.725491%);fill-opacity:1;" d="M 223.359375 92.277344 C 224.535156 92.199219 225.972656 91.832031 227.664062 91.183594 C 229.988281 90.28125 231.605469 89.261719 232.519531 88.113281 C 233.429688 86.960938 233.65625 85.796875 233.199219 84.605469 C 232.558594 82.957031 231.136719 82.203125 228.9375 82.351562 C 227.765625 82.433594 226.347656 82.796875 224.675781 83.441406 C 222.980469 84.097656 221.671875 84.792969 220.753906 85.523438 C 219.046875 86.875 218.507812 88.375 219.144531 90.027344 C 219.777344 91.664062 221.183594 92.414062 223.359375 92.277344 M 233.921875 90.640625 C 233.042969 92.703125 231.457031 94.175781 229.160156 95.0625 C 226.863281 95.949219 224.703125 95.921875 222.664062 94.984375 C 220.679688 94.070312 219.261719 92.511719 218.414062 90.316406 C 217.511719 87.984375 217.5625 85.785156 218.546875 83.710938 C 219.480469 81.777344 220.984375 80.40625 223.066406 79.605469 C 225.351562 78.722656 227.503906 78.714844 229.535156 79.582031 C 231.585938 80.460938 233.054688 82.039062 233.9375 84.328125 C 234.785156 86.53125 234.785156 88.636719 233.921875 90.640625 "/>
<path style=" stroke:none;fill-rule:nonzero;fill:rgb(65.098041%,12.54902%,13.725491%);fill-opacity:1;" d="M 222.386719 97.902344 C 222.539062 98.523438 222.71875 98.953125 222.917969 99.191406 C 223.25 99.59375 223.753906 99.726562 224.425781 99.585938 L 235.511719 97.230469 C 236.179688 97.09375 236.582031 96.78125 236.71875 96.300781 C 236.800781 96.015625 236.792969 95.542969 236.695312 94.867188 L 237.273438 94.746094 L 238.972656 102.746094 L 238.390625 102.871094 C 238.164062 101.949219 237.898438 101.351562 237.605469 101.09375 C 237.308594 100.832031 236.710938 100.796875 235.804688 100.988281 L 224.984375 103.285156 C 224.480469 103.394531 224.171875 103.59375 224.066406 103.894531 C 223.960938 104.195312 223.984375 104.726562 224.148438 105.496094 C 224.433594 106.875 224.984375 107.964844 225.792969 108.769531 C 226.601562 109.578125 227.953125 110.132812 229.855469 110.441406 L 229.996094 111.109375 L 224.617188 111.28125 L 221.800781 98.027344 Z M 222.386719 97.902344 "/>
<path style=" stroke:none;fill-rule:nonzero;fill:rgb(65.098041%,12.54902%,13.725491%);fill-opacity:1;" d="M 224.820312 112.121094 L 225.414062 112.082031 C 225.476562 112.75 225.597656 113.21875 225.777344 113.492188 C 226.050781 113.910156 226.519531 114.097656 227.1875 114.054688 L 238.496094 113.332031 C 239.179688 113.285156 239.621094 113.035156 239.824219 112.570312 C 239.949219 112.300781 240.015625 111.828125 240.011719 111.148438 L 240.601562 111.109375 L 241.460938 124.566406 L 236.75 124.871094 L 236.71875 124.300781 C 238.203125 123.90625 239.199219 123.335938 239.707031 122.589844 C 240.214844 121.84375 240.410156 120.53125 240.292969 118.65625 C 240.246094 117.941406 240.148438 117.488281 239.984375 117.304688 C 239.824219 117.125 239.523438 117.042969 239.082031 117.070312 L 233.675781 117.417969 C 233.746094 118.75 234.046875 119.636719 234.574219 120.074219 C 235.101562 120.515625 236.035156 120.816406 237.375 120.980469 L 237.410156 121.574219 L 229.523438 122.078125 L 229.480469 121.484375 C 230.804688 121.234375 231.71875 120.832031 232.230469 120.285156 C 232.734375 119.738281 232.953125 118.800781 232.867188 117.46875 L 227.210938 117.832031 C 226.71875 117.863281 226.390625 118.011719 226.226562 118.277344 C 226.066406 118.542969 226.007812 119.070312 226.054688 119.859375 C 226.15625 121.351562 226.523438 122.550781 227.160156 123.453125 C 227.796875 124.363281 228.9375 125.128906 230.570312 125.757812 L 230.609375 126.40625 L 225.691406 125.773438 Z M 224.820312 112.121094 "/>
<path style=" stroke:none;fill-rule:nonzero;fill:rgb(65.098041%,12.54902%,13.725491%);fill-opacity:1;" d="M 240.898438 135.796875 L 240.308594 135.746094 C 240.355469 134.839844 240.269531 134.222656 240.042969 133.898438 C 239.824219 133.574219 239.265625 133.371094 238.375 133.292969 L 230.5625 132.625 C 229.375 132.523438 228.449219 132.585938 227.777344 132.808594 C 226.535156 133.21875 225.851562 134.140625 225.722656 135.585938 C 225.570312 137.371094 226.128906 138.640625 227.40625 139.382812 C 228.105469 139.796875 229.113281 140.058594 230.425781 140.171875 L 237.558594 140.785156 C 238.394531 140.855469 238.980469 140.75 239.324219 140.46875 C 239.664062 140.1875 239.90625 139.605469 240.054688 138.714844 L 240.640625 138.765625 L 240.207031 143.890625 L 239.613281 143.835938 C 239.535156 143.082031 239.398438 142.574219 239.214844 142.316406 C 239.019531 142.058594 238.554688 141.898438 237.800781 141.832031 L 230.347656 141.195312 C 228.363281 141.027344 226.875 140.414062 225.878906 139.367188 C 224.882812 138.320312 224.472656 136.773438 224.648438 134.722656 C 224.878906 132.039062 225.839844 130.277344 227.523438 129.425781 C 228.421875 128.980469 229.542969 128.8125 230.886719 128.925781 L 238.691406 129.597656 C 239.566406 129.667969 240.128906 129.601562 240.375 129.390625 C 240.621094 129.179688 240.824219 128.667969 240.984375 127.867188 L 241.578125 127.917969 Z M 240.898438 135.796875 "/>
<path style=" stroke:none;fill-rule:nonzero;fill:rgb(65.098041%,12.54902%,13.725491%);fill-opacity:1;" d="M 225.328125 142.445312 C 225.097656 143.304688 225.097656 143.90625 225.324219 144.242188 C 225.550781 144.582031 225.957031 144.835938 226.554688 145 L 237.269531 147.964844 C 237.882812 148.136719 238.324219 148.101562 238.601562 147.859375 C 238.875 147.621094 239.144531 147.132812 239.410156 146.40625 L 239.984375 146.5625 L 238.410156 152.242188 L 226.742188 153.789062 L 226.6875 153.976562 L 235.902344 161.277344 L 234.328125 166.964844 L 233.753906 166.808594 C 233.910156 166.027344 233.914062 165.464844 233.765625 165.125 C 233.625 164.785156 233.113281 164.496094 232.25 164.253906 L 222.269531 161.492188 C 221.441406 161.257812 220.855469 161.25 220.527344 161.457031 C 220.191406 161.664062 219.898438 162.148438 219.660156 162.902344 L 219.089844 162.742188 L 221.164062 155.257812 L 221.738281 155.410156 C 221.574219 156.089844 221.542969 156.621094 221.65625 157.015625 C 221.765625 157.410156 222.160156 157.699219 222.839844 157.890625 L 233.863281 160.945312 L 233.910156 160.777344 L 222.183594 151.578125 L 222.351562 150.972656 L 236.890625 148.992188 L 236.917969 148.890625 L 226.722656 146.066406 C 225.972656 145.855469 225.378906 145.84375 224.957031 146.027344 C 224.535156 146.210938 224.171875 146.773438 223.867188 147.71875 L 223.296875 147.558594 L 224.757812 142.285156 Z M 225.328125 142.445312 "/>
<path style=" stroke:none;fill-rule:nonzero;fill:rgb(65.098041%,12.54902%,13.725491%);fill-opacity:1;" d="M 185.589844 216.03125 C 185.546875 215.109375 184.761719 214.390625 183.835938 214.433594 C 182.910156 214.480469 182.191406 215.265625 182.238281 216.191406 C 182.28125 217.117188 183.066406 217.832031 183.992188 217.785156 C 184.917969 217.742188 185.632812 216.957031 185.589844 216.03125 "/>
<path style=" stroke:none;fill-rule:nonzero;fill:rgb(65.098041%,12.54902%,13.725491%);fill-opacity:1;" d="M 149.589844 150.832031 C 150.753906 150.589844 151.917969 150.28125 153.070312 149.902344 C 152.003906 150.246094 150.839844 150.558594 149.589844 150.820312 Z M 149.589844 150.832031 "/>
<path style=" stroke:none;fill-rule:nonzero;fill:rgb(65.098041%,12.54902%,13.725491%);fill-opacity:1;" d="M 102.511719 95.496094 C 102.636719 95.488281 102.769531 95.476562 102.914062 95.46875 L 102.914062 95.460938 C 102.777344 95.472656 102.644531 95.484375 102.511719 95.496094 "/>
<path style=" stroke:none;fill-rule:nonzero;fill:rgb(65.098041%,12.54902%,13.725491%);fill-opacity:1;" d="M 102.34375 122.554688 C 102.316406 123.050781 102.355469 123.5 102.4375 123.914062 C 102.738281 128.910156 106.882812 132.867188 111.953125 132.867188 C 117.222656 132.867188 121.492188 128.597656 121.492188 123.332031 C 121.492188 123.167969 121.488281 123 121.480469 122.835938 C 123.507812 103.0625 135.644531 91.933594 151.320312 89.820312 C 153.152344 89.574219 155.03125 89.4375 156.949219 89.4375 C 168.097656 89.4375 180.492188 94.902344 187.191406 103.402344 C 183.394531 95.074219 171.882812 80.820312 149.589844 80.601562 L 149.589844 54.261719 L 131.125 54.261719 L 131.125 84.191406 C 130.625 84.398438 130.125 84.613281 129.625 84.835938 C 115.691406 91.046875 102.65625 103.984375 102.34375 122.554688 "/>
<path style=" stroke:none;fill-rule:nonzero;fill:rgb(65.098041%,12.54902%,13.725491%);fill-opacity:1;" d="M 159.867188 93.296875 C 155.316406 93.066406 151.035156 93.792969 147.695312 95.421875 C 154.03125 95.480469 160.101562 97.507812 164.898438 101.261719 C 167.535156 103.324219 169.792969 105.910156 171.496094 108.980469 C 178.597656 121.796875 173.453125 138.335938 160.042969 146.640625 C 159.585938 146.929688 159.121094 147.203125 158.644531 147.46875 C 156.828125 148.476562 154.957031 149.28125 153.066406 149.902344 C 151.917969 150.28125 150.753906 150.589844 149.589844 150.832031 L 149.589844 150.820312 C 147.640625 151.222656 145.476562 151.484375 143.152344 151.480469 C 141.035156 154.007812 138.929688 156.015625 137.214844 157.347656 C 134.980469 159.085938 132.847656 160.417969 131.125 161.375 L 131.125 184.300781 C 131.050781 186.507812 130.042969 187.167969 127.738281 187.167969 L 124.9375 187.167969 C 122.660156 187.167969 121.648438 186.523438 121.554688 184.375 L 121.554688 162.585938 C 123.082031 161.96875 124.605469 161.261719 126.105469 160.460938 C 138.722656 153.753906 149.761719 140.871094 150.054688 123.789062 C 150.082031 123.1875 150.023438 122.648438 149.890625 122.167969 C 149.273438 117.5 145.28125 113.894531 140.441406 113.894531 C 135.175781 113.894531 130.90625 118.164062 130.90625 123.433594 C 130.90625 123.488281 130.910156 123.546875 130.910156 123.609375 C 128.792969 144.191406 116.433594 153.964844 99.8125 155.101562 C 98.710938 155.175781 97.59375 155.210938 96.457031 155.210938 C 85.304688 155.210938 76.277344 151.570312 70.621094 146.109375 C 74.578125 152.074219 86.101562 163.679688 102.914062 165.417969 L 102.914062 183.21875 C 102.914062 193.671875 113.597656 193.515625 113.597656 193.515625 L 138.90625 193.515625 C 138.90625 193.515625 149.589844 193.671875 149.589844 183.21875 L 149.589844 165.847656 C 161.433594 164.402344 186.964844 153.75 189.445312 126.1875 C 191.410156 104.351562 174.308594 94.011719 159.867188 93.296875 "/>
<path style=" stroke:none;fill-rule:nonzero;fill:rgb(65.098041%,12.54902%,13.725491%);fill-opacity:1;" d="M 99.800781 149.902344 C 97.851562 149.269531 95.921875 148.449219 94.054688 147.414062 C 79.605469 139.414062 73.851562 122.183594 81.203125 108.925781 C 85.371094 101.394531 92.875 96.769531 101.222656 95.640625 C 101.648438 95.582031 102.082031 95.539062 102.507812 95.496094 C 102.644531 95.484375 102.777344 95.472656 102.914062 95.464844 L 102.914062 95.46875 C 104.230469 95.386719 106.222656 95.355469 108.496094 95.625 C 111.265625 92.292969 115.386719 88.1875 121.554688 84.621094 L 121.554688 54.261719 L 102.914062 54.261719 L 102.914062 80.566406 C 82.304688 80.738281 61.960938 95.773438 62.125 120.152344 C 62.28125 142.742188 81.542969 153.199219 99.808594 151.132812 C 100.777344 151.019531 101.742188 150.878906 102.703125 150.695312 C 101.730469 150.480469 100.761719 150.210938 99.800781 149.902344 "/>
</g>
</svg>
