<?xml version="1.0" encoding="UTF-8"?>
<svg xmlns="http://www.w3.org/2000/svg" xmlns:xlink="http://www.w3.org/1999/xlink" width="252pt" height="252pt" viewBox="0 0 252 252" version="1.1">
<defs>
<clipPath id="clip1">
  <path d="M 0 0 L 251.90625 0 L 251.90625 251.90625 L 0 251.90625 Z M 0 0 "/>
</clipPath>
<linearGradient id="linear0" gradientUnits="userSpaceOnUse" x1="0" y1="0" x2="1" y2="0" gradientTransform="matrix(41.634942,-41.635233,41.635233,41.634942,114.527171,114.776277)">
<stop offset="0" style="stop-color:rgb(14.901961%,39.215686%,64.705882%);stop-opacity:1;"/>
<stop offset="1" style="stop-color:rgb(18.431373%,58.431373%,80%);stop-opacity:1;"/>
</linearGradient>
<linearGradient id="linear1" gradientUnits="userSpaceOnUse" x1="0" y1="0" x2="1" y2="0" gradientTransform="matrix(65.790004,0,0,65.790004,92.145729,130.464176)">
<stop offset="0" style="stop-color:rgb(93.333333%,74.901961%,18.039216%);stop-opacity:1;"/>
<stop offset="1" style="stop-color:rgb(94.117647%,85.098039%,20.784314%);stop-opacity:1;"/>
</linearGradient>
<linearGradient id="linear2" gradientUnits="userSpaceOnUse" x1="0" y1="0" x2="1" y2="0" gradientTransform="matrix(65.790004,0,0,65.790004,92.145729,143.747533)">
<stop offset="0" style="stop-color:rgb(23.529412%,63.529412%,28.627451%);stop-opacity:1;"/>
<stop offset="1" style="stop-color:rgb(87.843137%,81.176471%,19.607843%);stop-opacity:1;"/>
</linearGradient>
<linearGradient id="linear3" gradientUnits="userSpaceOnUse" x1="0" y1="0" x2="1" y2="0" gradientTransform="matrix(65.790004,0,0,65.790004,92.145729,156.619888)">
<stop offset="0" style="stop-color:rgb(18.431373%,58.431373%,80%);stop-opacity:1;"/>
<stop offset="1" style="stop-color:rgb(92.156863%,93.72549%,95.294118%);stop-opacity:1;"/>
</linearGradient>
<linearGradient id="linear4" gradientUnits="userSpaceOnUse" x1="0" y1="0" x2="1" y2="0" gradientTransform="matrix(65.790004,0,0,65.790004,92.145729,168.824113)">
<stop offset="0" style="stop-color:rgb(25.490196%,21.176471%,20.392157%);stop-opacity:1;"/>
<stop offset="1" style="stop-color:rgb(94.509804%,94.509804%,94.509804%);stop-opacity:1;"/>
</linearGradient>
<linearGradient id="linear5" gradientUnits="userSpaceOnUse" x1="0" y1="0" x2="1" y2="0" gradientTransform="matrix(65.699294,0,0,65.699294,92.190975,116.075243)">
<stop offset="0" style="stop-color:rgb(83.921569%,18.431373%,19.215686%);stop-opacity:1;"/>
<stop offset="1" style="stop-color:rgb(92.54902%,72.54902%,18.039216%);stop-opacity:1;"/>
</linearGradient>
</defs>
<g id="surface1">
<path style="fill:none;stroke-width:3;stroke-linecap:butt;stroke-linejoin:miter;stroke:rgb(13.72549%,28.235294%,54.117647%);stroke-opacity:1;stroke-miterlimit:10;" d="M -0.00106799 -0.000761036 C -0.00106799 -50.719617 -41.115234 -91.833783 -91.83409 -91.833783 C -142.54833 -91.833783 -183.662496 -50.719617 -183.662496 -0.000761036 C -183.662496 50.718095 -142.54833 91.832261 -91.83409 91.832261 C -41.115234 91.832261 -0.00106799 50.718095 -0.00106799 -0.000761036 Z M -0.00106799 -0.000761036 " transform="matrix(0.846348,0,0,-0.846348,202.762623,128.296231)"/>
<g clip-path="url(#clip1)" clip-rule="nonzero">
<path style="fill:none;stroke-width:3;stroke-linecap:butt;stroke-linejoin:miter;stroke:rgb(13.72549%,28.235294%,54.117647%);stroke-opacity:1;stroke-miterlimit:10;" d="M -0.000349498 -0.000508735 C -0.000349498 -79.298048 -64.283926 -143.586241 -143.586081 -143.586241 C -222.888236 -143.586241 -287.171813 -79.298048 -287.171813 -0.000508735 C -287.171813 79.301646 -222.888236 143.585223 -143.586081 143.585223 C -64.283926 143.585223 -0.000349498 79.301646 -0.000349498 -0.000508735 Z M -0.000349498 -0.000508735 " transform="matrix(0.846348,0,0,-0.846348,247.476858,125.952694)"/>
</g>
<path style=" stroke:none;fill-rule:nonzero;fill:url(#linear0);" d="M 92.191406 74.867188 L 92.191406 92.441406 L 157.890625 133.65625 L 157.890625 74.867188 Z M 92.191406 74.867188 "/>
<path style=" stroke:none;fill-rule:nonzero;fill:url(#linear1);" d="M 92.144531 124.132812 L 99.566406 128.070312 L 99.460938 124.277344 L 157.9375 150.789062 L 157.9375 150.105469 L 92.144531 110.136719 Z M 92.144531 124.132812 "/>
<path style=" stroke:none;fill-rule:nonzero;fill:url(#linear2);" d="M 92.144531 141.972656 L 99.4375 144.695312 L 99.339844 139.648438 L 157.9375 160.113281 L 157.9375 159.382812 L 92.144531 127.382812 Z M 92.144531 141.972656 "/>
<path style=" stroke:none;fill-rule:nonzero;fill:url(#linear3);" d="M 92.144531 160.132812 L 99.535156 161.414062 L 99.570312 157.136719 L 157.9375 168.207031 L 157.9375 167.460938 L 92.144531 145.03125 Z M 92.144531 160.132812 "/>
<path style=" stroke:none;fill-rule:nonzero;fill:url(#linear4);" d="M 92.144531 174.769531 L 157.9375 174.769531 L 157.9375 173.941406 L 92.144531 162.878906 Z M 92.144531 174.769531 "/>
<path style=" stroke:none;fill-rule:nonzero;fill:url(#linear5);" d="M 92.191406 101.546875 C 92.191406 101.570312 92.191406 101.59375 92.21875 101.601562 C 113.890625 114.289062 135.558594 126.976562 157.226562 139.664062 C 157.445312 139.792969 157.664062 139.929688 157.890625 140.050781 C 157.890625 137.804688 157.890625 135.5625 157.890625 133.316406 C 157.535156 133.101562 157.183594 132.875 156.828125 132.65625 C 153.160156 130.351562 149.492188 128.050781 145.820312 125.746094 C 145.792969 123.789062 145.769531 121.832031 145.742188 119.875 L 145.71875 119.835938 L 137.332031 113.890625 L 137.328125 114.667969 L 137.328125 120.417969 L 125.238281 112.832031 L 117.730469 108.121094 L 117.695312 104.257812 L 117.667969 101.867188 L 109.257812 95.90625 L 109.261719 102.808594 L 92.191406 92.101562 C 92.191406 95.25 92.191406 98.398438 92.191406 101.546875 "/>
<path style=" stroke:none;fill-rule:nonzero;fill:rgb(13.333333%,27.45098%,50.980392%);fill-opacity:1;" d="M 211.894531 91.542969 C 211.921875 91.847656 212.230469 92.003906 212.324219 92.28125 C 212.40625 92.5 212.59375 92.652344 212.699219 92.855469 C 212.75 93.5 213.011719 94.117188 213.402344 94.632812 C 213.714844 94.898438 214.003906 95.210938 214.390625 95.371094 C 214.855469 95.585938 215.398438 95.542969 215.847656 95.796875 C 216.59375 96.425781 217.578125 96.628906 218.445312 97.027344 C 218.894531 97.277344 219.324219 97.566406 219.804688 97.761719 C 220.058594 97.871094 220.363281 97.847656 220.582031 98.046875 C 220.820312 98.234375 221.101562 98.375 221.308594 98.605469 C 221.539062 98.960938 221.945312 99.152344 222.175781 99.507812 C 222.332031 99.792969 222.363281 100.132812 222.539062 100.410156 C 222.679688 100.628906 222.773438 100.875 222.839844 101.128906 C 223.003906 101.171875 223.167969 101.207031 223.332031 101.242188 C 223.421875 101.183594 223.515625 101.125 223.605469 101.074219 C 223.757812 101.148438 223.914062 101.308594 224.09375 101.246094 C 224.269531 101.125 224.300781 100.894531 224.414062 100.726562 C 224.722656 100.285156 224.757812 99.699219 224.660156 99.1875 C 224.46875 98.785156 224.535156 98.300781 224.234375 97.941406 C 224.578125 98.027344 224.730469 98.375 224.929688 98.632812 C 225.195312 99.039062 225.601562 99.398438 225.632812 99.914062 C 225.664062 100.140625 225.929688 100.042969 226.074219 100.027344 C 226.277344 99.96875 226.371094 100.207031 226.46875 100.335938 C 226.621094 100.179688 226.796875 100.042969 226.964844 99.902344 C 227.238281 99.648438 227.324219 99.273438 227.429688 98.933594 C 227.554688 98.8125 227.550781 98.648438 227.542969 98.492188 C 227.707031 98.4375 227.71875 98.671875 227.808594 98.757812 C 227.953125 98.9375 228.191406 99.046875 228.21875 99.308594 C 228.152344 99.320312 228.019531 99.34375 227.957031 99.355469 C 228.226562 99.335938 228.441406 99.503906 228.492188 99.773438 C 228.351562 99.695312 228.203125 99.535156 228.03125 99.683594 C 228 99.648438 227.933594 99.578125 227.898438 99.546875 C 227.960938 99.859375 228.171875 100.117188 228.328125 100.390625 C 228.386719 100.386719 228.503906 100.378906 228.5625 100.375 C 228.425781 100.808594 228.730469 101.210938 228.863281 101.609375 C 229.105469 102.097656 228.992188 102.65625 229.128906 103.171875 C 229.242188 103.519531 229.664062 103.652344 230 103.617188 C 230.515625 103.617188 230.820312 103.136719 231.171875 102.832031 C 231.539062 102.488281 231.476562 101.953125 231.382812 101.511719 C 231.375 100.804688 231.367188 100.089844 231.175781 99.402344 C 231.078125 98.941406 230.898438 98.503906 230.808594 98.039062 C 231.230469 98.046875 231.5 98.425781 231.890625 98.53125 C 232.238281 98.675781 232.609375 98.492188 232.894531 98.296875 C 233.347656 98.015625 233.5625 97.507812 233.78125 97.050781 C 234.035156 96.433594 234.28125 95.789062 234.285156 95.113281 C 234.28125 94.9375 234.203125 94.652344 233.972656 94.707031 C 233.84375 94.875 233.769531 95.101562 233.570312 95.207031 C 232.898438 95.636719 232.144531 96.050781 231.328125 96.042969 C 230.808594 95.96875 230.332031 95.714844 229.886719 95.453125 C 229.640625 95.3125 229.683594 94.785156 229.304688 94.925781 C 229.378906 95.128906 229.480469 95.347656 229.378906 95.5625 C 228.960938 95.074219 228.574219 94.558594 228.128906 94.097656 C 228.308594 93.726562 228.597656 93.417969 228.734375 93.027344 C 228.804688 92.84375 228.710938 92.652344 228.570312 92.539062 C 228.121094 92.148438 227.566406 91.910156 227.011719 91.71875 C 226.441406 91.539062 226.007812 91.101562 225.460938 90.871094 C 224.960938 90.722656 224.492188 90.488281 224.007812 90.292969 C 223.714844 90.242188 223.476562 90.492188 223.300781 90.695312 C 223.0625 91.011719 222.800781 91.402344 222.929688 91.816406 C 223.117188 92.351562 223.550781 92.757812 224 93.082031 C 224.523438 93.464844 224.789062 94.101562 225.339844 94.460938 C 225.917969 94.859375 226.542969 95.191406 227.191406 95.464844 C 227.585938 95.652344 227.886719 95.980469 228.160156 96.3125 C 228.433594 96.644531 228.835938 96.894531 228.980469 97.320312 C 229.140625 97.96875 229.578125 98.507812 229.710938 99.167969 C 229.925781 99.636719 229.933594 100.164062 230.132812 100.636719 C 229.808594 100.449219 229.617188 100.117188 229.382812 99.832031 C 229.136719 99.53125 228.898438 99.21875 228.695312 98.886719 C 228.523438 98.578125 228.191406 98.40625 228.011719 98.105469 C 227.800781 97.777344 227.542969 97.472656 227.210938 97.265625 C 226.6875 96.921875 226.328125 96.398438 225.976562 95.898438 C 225.722656 95.527344 225.585938 95.027344 225.15625 94.816406 C 224.765625 94.8125 224.386719 94.589844 223.992188 94.714844 C 223.527344 94.824219 223.210938 95.304688 223.21875 95.773438 C 223.28125 96.195312 223.347656 96.644531 223.613281 96.996094 C 223.3125 96.695312 223.023438 96.390625 222.742188 96.074219 C 221.964844 95.523438 221.332031 94.777344 220.910156 93.921875 C 220.839844 93.871094 220.769531 93.816406 220.699219 93.765625 C 220.867188 93.734375 221.035156 93.769531 221.199219 93.800781 C 221.050781 93.398438 220.507812 93.25 220.464844 92.78125 C 220.21875 92.617188 219.96875 92.410156 219.664062 92.367188 C 219.179688 92.394531 218.71875 92.605469 218.324219 92.878906 C 218.097656 93.050781 217.824219 93.273438 217.84375 93.59375 C 218.042969 93.941406 218.386719 94.167969 218.671875 94.4375 C 218.796875 94.679688 218.933594 94.921875 219.066406 95.164062 C 218.546875 94.964844 218.101562 94.609375 217.613281 94.347656 C 217.460938 94.289062 217.292969 94.277344 217.164062 94.175781 C 216.429688 93.636719 215.769531 93.007812 215.09375 92.402344 C 214.761719 92.089844 214.328125 91.898438 214.035156 91.542969 C 213.726562 91.160156 213.355469 90.832031 213.070312 90.425781 C 212.886719 90.34375 212.703125 90.492188 212.546875 90.574219 C 212.207031 90.777344 211.824219 91.097656 211.894531 91.542969 "/>
<path style=" stroke:none;fill-rule:nonzero;fill:rgb(13.333333%,27.45098%,50.980392%);fill-opacity:1;" d="M 225.894531 84.554688 C 225.945312 85.023438 226.378906 85.292969 226.710938 85.570312 C 227.136719 85.933594 227.695312 86.066406 228.195312 86.292969 C 228.460938 86.40625 228.273438 86.8125 228.011719 86.734375 C 226.984375 86.5625 225.945312 86.4375 224.90625 86.375 C 224.347656 86.433594 223.757812 86.628906 223.390625 87.074219 C 222.765625 87.761719 221.824219 87.992188 220.957031 88.195312 C 220.542969 88.363281 220.101562 88.457031 219.671875 88.589844 C 219.265625 88.367188 219.589844 87.871094 219.554688 87.523438 C 219.507812 87.078125 219.746094 86.5 220.253906 86.476562 C 221.410156 86.3125 222.570312 86.199219 223.730469 86.082031 C 224.304688 85.867188 224.957031 85.964844 225.515625 85.703125 C 225.800781 85.445312 225.722656 85.019531 225.707031 84.679688 C 225.449219 84.511719 225.164062 84.296875 224.835938 84.367188 C 223.773438 84.6875 222.65625 84.761719 221.550781 84.828125 C 219.363281 84.890625 217.183594 85.421875 214.992188 85.121094 C 214.003906 85.011719 213.089844 84.351562 212.066406 84.558594 C 211.339844 84.707031 210.609375 84.992188 210.050781 85.496094 C 209.765625 85.738281 209.726562 86.144531 209.773438 86.492188 C 209.902344 86.808594 210.28125 86.902344 210.574219 87.019531 C 211.722656 87.386719 212.933594 87.429688 214.121094 87.554688 C 214.414062 87.601562 214.691406 87.460938 214.980469 87.464844 C 215.757812 87.613281 216.558594 87.542969 217.335938 87.71875 C 217.523438 87.792969 217.507812 87.546875 217.53125 87.4375 C 217.066406 87.261719 216.507812 87.207031 216.183594 86.789062 C 217.121094 86.617188 218.085938 86.621094 219.039062 86.582031 C 218.851562 86.855469 218.554688 87.058594 218.472656 87.394531 C 218.347656 87.695312 218.3125 88.070312 218.023438 88.273438 C 217.796875 88.476562 217.582031 88.710938 217.445312 88.984375 C 217.335938 89.542969 217.832031 90.132812 218.402344 90.125 C 219.355469 90.195312 220.183594 89.640625 221.0625 89.371094 C 221.957031 89.0625 222.9375 88.816406 223.621094 88.117188 C 223.9375 87.933594 224.269531 87.769531 224.605469 87.621094 C 225.425781 87.410156 226.292969 87.476562 227.121094 87.578125 C 227.871094 87.726562 228.660156 87.796875 229.335938 88.179688 C 229.703125 88.375 230.015625 88.660156 230.398438 88.828125 C 230.808594 89.023438 231.261719 88.847656 231.6875 88.832031 C 232.027344 88.53125 232.234375 88.019531 232.140625 87.570312 C 231.996094 87.128906 231.492188 87.035156 231.199219 86.738281 C 230.21875 85.746094 228.933594 85.089844 228.082031 83.96875 C 227.804688 83.574219 227.484375 83.210938 227.136719 82.878906 C 226.898438 82.683594 226.546875 82.800781 226.347656 83 C 225.929688 83.394531 225.871094 84.007812 225.894531 84.554688 "/>
<path style=" stroke:none;fill-rule:nonzero;fill:rgb(13.333333%,27.45098%,50.980392%);fill-opacity:1;" d="M 215.558594 106.328125 C 214.566406 105.523438 214.253906 104.164062 214.277344 102.941406 C 214.28125 102.257812 213.960938 101.46875 214.390625 100.863281 C 214.398438 100.753906 214.402344 100.644531 214.40625 100.535156 C 214.777344 100.355469 215.109375 100.078125 215.527344 100 C 216.246094 99.855469 217.007812 99.867188 217.722656 100.046875 C 218.207031 100.199219 218.707031 100.289062 219.210938 100.332031 C 219.449219 100.496094 219.734375 100.578125 220.023438 100.597656 C 220.414062 100.628906 220.863281 100.710938 221.195312 100.445312 C 221.460938 100.1875 221.449219 99.777344 221.441406 99.4375 C 221.414062 99.214844 221.363281 98.890625 221.089844 98.863281 C 220.894531 98.835938 220.722656 98.746094 220.554688 98.652344 C 220.136719 98.421875 219.628906 98.507812 219.203125 98.296875 C 218.28125 97.914062 217.292969 97.746094 216.308594 97.625 C 215.792969 97.578125 215.269531 97.472656 214.757812 97.582031 C 213.902344 97.75 213.175781 98.332031 212.6875 99.039062 C 212.136719 99.84375 211.757812 100.800781 211.769531 101.785156 C 211.78125 102.714844 211.960938 103.632812 212.164062 104.539062 C 212.503906 105.953125 212.9375 107.34375 213.503906 108.683594 C 213.773438 109.304688 214.054688 109.929688 214.445312 110.492188 C 214.6875 110.820312 215.136719 110.894531 215.515625 110.839844 C 216.113281 110.757812 216.589844 110.335938 216.945312 109.878906 C 217.414062 108.972656 217.554688 107.941406 217.933594 107 C 217.992188 106.789062 217.949219 106.570312 217.949219 106.363281 C 218.089844 106.152344 218.25 105.929688 218.207031 105.664062 C 217.378906 105.5625 216.957031 106.449219 216.21875 106.617188 C 215.953125 106.683594 215.738281 106.492188 215.558594 106.328125 "/>
<path style=" stroke:none;fill-rule:nonzero;fill:rgb(13.333333%,27.45098%,50.980392%);fill-opacity:1;" d="M 20.878906 96.886719 C 20.636719 96.730469 20.464844 96.460938 20.171875 96.40625 C 20.191406 96.347656 20.234375 96.230469 20.253906 96.175781 C 20.085938 95.875 19.820312 95.644531 19.648438 95.355469 C 19.554688 95.214844 19.628906 95.054688 19.660156 94.914062 C 19.492188 94.621094 19.242188 94.339844 19.257812 93.976562 C 19.203125 93.882812 19.144531 93.785156 19.191406 93.671875 C 19.996094 93.800781 20.398438 94.578125 21.015625 95.011719 C 21.476562 95.542969 21.992188 96.050781 22.3125 96.683594 C 22.398438 96.910156 22.519531 97.121094 22.625 97.339844 C 22.589844 97.480469 22.410156 97.398438 22.308594 97.402344 C 21.8125 97.300781 21.300781 97.179688 20.878906 96.886719 M 29.664062 97.082031 C 29.789062 96.789062 29.726562 96.394531 30 96.179688 C 30.363281 96.199219 30.796875 96.183594 31.089844 96.429688 C 31.097656 96.804688 30.808594 97.152344 30.90625 97.535156 C 30.964844 97.824219 30.996094 98.121094 30.996094 98.417969 C 30.496094 98.582031 29.941406 98.476562 29.503906 98.199219 C 29.183594 97.847656 29.550781 97.433594 29.664062 97.082031 M 33.390625 96.660156 C 33.707031 96.828125 34.023438 96.988281 34.367188 97.097656 C 34.589844 97.113281 34.820312 97.082031 35.042969 97.148438 C 34.859375 97.605469 34.417969 97.921875 34.320312 98.414062 C 34.300781 98.789062 34.453125 99.160156 34.335938 99.53125 C 34.054688 99.480469 33.640625 99.421875 33.578125 99.078125 C 33.386719 98.308594 32.972656 97.585938 32.984375 96.769531 C 33.117188 96.730469 33.246094 96.664062 33.390625 96.660156 M 37.984375 98.085938 C 37.941406 98.707031 37.683594 99.296875 37.535156 99.898438 C 37.511719 100.144531 37.183594 100.003906 37.109375 99.859375 C 36.945312 99.5625 36.914062 99.207031 36.730469 98.914062 C 36.464844 98.464844 36.273438 97.96875 36.175781 97.457031 C 36.78125 97.640625 37.480469 97.664062 37.984375 98.085938 M 29.75 108.257812 C 29.859375 107.945312 29.640625 107.679688 29.53125 107.410156 C 29.390625 106.652344 29.03125 105.960938 28.710938 105.269531 C 28.335938 104.445312 27.824219 103.6875 27.472656 102.847656 C 27 101.84375 26.109375 101.035156 25.898438 99.914062 C 25.816406 99.363281 25.5 98.84375 25.585938 98.273438 C 25.925781 98.367188 26.207031 98.582031 26.511719 98.75 C 28.121094 99.707031 29.792969 100.550781 31.46875 101.386719 C 31.808594 101.546875 32.082031 101.820312 32.429688 101.96875 C 33.535156 102.5 34.6875 102.941406 35.882812 103.21875 C 36.589844 103.402344 37.285156 103.765625 38.035156 103.683594 C 38.378906 103.636719 38.722656 103.585938 39.066406 103.523438 C 39.46875 103.480469 39.671875 103.082031 39.875 102.78125 C 39.859375 102.355469 39.976562 101.941406 40.085938 101.535156 C 40.03125 101.273438 39.921875 101.019531 39.921875 100.75 C 40 100.339844 40.164062 99.929688 40.457031 99.621094 C 40.816406 99.214844 41.355469 98.992188 41.667969 98.539062 C 41.804688 98.25 41.925781 97.945312 42.0625 97.652344 C 42.207031 97.285156 42.410156 96.835938 42.164062 96.464844 C 41.851562 96.019531 41.285156 95.882812 40.808594 95.679688 C 39.777344 95.199219 38.652344 94.96875 37.546875 94.714844 C 35.867188 94.226562 34.074219 94.066406 32.496094 93.253906 C 31.628906 92.914062 30.710938 92.703125 29.789062 92.59375 C 29.378906 92.515625 29.011719 92.246094 28.578125 92.273438 C 27.84375 92.3125 27.234375 92.882812 26.9375 93.523438 C 26.703125 94.285156 26.835938 95.089844 26.902344 95.867188 C 26.941406 96.273438 27.292969 96.636719 27.167969 97.054688 C 26.945312 96.925781 26.730469 96.757812 26.699219 96.480469 C 26.480469 96.113281 26.296875 95.722656 26.238281 95.292969 C 26.121094 94.820312 26.1875 94.300781 25.941406 93.863281 C 25.84375 93.679688 25.75 93.484375 25.621094 93.324219 C 25.34375 93.027344 24.921875 92.886719 24.714844 92.53125 C 24.585938 92.21875 24.636719 91.871094 24.554688 91.546875 C 24.4375 91.0625 24.371094 90.566406 24.332031 90.066406 C 24.21875 88.414062 24.277344 86.753906 24.359375 85.101562 C 24.449219 84.714844 24.335938 84.265625 23.964844 84.070312 C 23.492188 84.035156 23.007812 84.101562 22.570312 84.285156 C 22.289062 84.386719 22.34375 84.722656 22.328125 84.960938 C 22.339844 85.332031 22.136719 85.664062 22.097656 86.023438 C 22.0625 86.421875 22.257812 86.792969 22.25 87.191406 C 22.253906 88.097656 21.980469 88.984375 22.011719 89.890625 C 22 90.613281 22.027344 91.332031 22.070312 92.054688 C 22.101562 92.390625 22.21875 92.714844 22.210938 93.058594 C 22.171875 93.070312 22.089844 93.097656 22.054688 93.113281 C 21.722656 92.953125 21.695312 92.558594 21.539062 92.269531 C 21.054688 91.492188 20.300781 90.902344 19.886719 90.074219 C 19.648438 89.679688 19.339844 89.332031 19.101562 88.9375 C 18.839844 88.316406 18.691406 87.613281 18.210938 87.109375 C 17.996094 86.878906 17.660156 86.757812 17.351562 86.851562 C 16.75 87.054688 16.179688 87.476562 15.976562 88.101562 C 15.699219 88.921875 15.726562 89.875 16.171875 90.632812 C 16.5 91.195312 16.9375 91.691406 17.199219 92.292969 C 17.730469 93.199219 18.34375 94.078125 18.667969 95.085938 C 18.695312 95.496094 19.054688 95.742188 19.242188 96.078125 C 19.386719 96.332031 19.582031 96.566406 19.648438 96.855469 C 18.828125 96.726562 18.132812 96.199219 17.308594 96.085938 C 17.078125 96.257812 16.835938 96.5 16.902344 96.816406 C 17.0625 97.824219 17.304688 98.820312 17.660156 99.773438 C 17.953125 100.398438 18.582031 100.773438 19.152344 101.117188 C 19.691406 101.488281 20.351562 101.617188 20.980469 101.757812 C 21.632812 101.863281 22.359375 101.910156 22.929688 101.519531 C 23.234375 101.3125 23.570312 101.136719 23.792969 100.839844 C 23.863281 100.820312 23.933594 100.800781 24.003906 100.785156 C 24.207031 101.171875 24.246094 101.617188 24.441406 102.011719 C 24.503906 102.484375 24.78125 102.890625 24.867188 103.359375 C 24.964844 103.566406 25.03125 103.855469 25.285156 103.921875 C 25.410156 103.679688 25.207031 103.5 25.125 103.300781 C 25.074219 103.113281 25.046875 102.921875 25.019531 102.730469 C 25.148438 102.839844 25.15625 103.019531 25.1875 103.171875 C 25.257812 103.199219 25.371094 103.21875 25.355469 103.324219 C 25.316406 103.601562 25.636719 103.824219 25.496094 104.09375 C 25.371094 104.070312 25.257812 104.023438 25.148438 103.957031 C 25.113281 104.304688 25.34375 104.582031 25.488281 104.875 C 25.539062 104.835938 25.589844 104.792969 25.636719 104.746094 C 25.535156 104.582031 25.492188 104.386719 25.507812 104.191406 C 25.648438 104.300781 25.695312 104.46875 25.648438 104.640625 C 25.683594 104.691406 25.753906 104.796875 25.789062 104.847656 C 25.695312 104.886719 25.601562 104.917969 25.503906 104.945312 C 25.492188 105.113281 25.453125 105.292969 25.523438 105.449219 C 25.699219 105.789062 25.808594 106.15625 25.964844 106.503906 C 26.042969 106.910156 26.234375 107.304688 26.207031 107.714844 C 26.019531 107.9375 25.765625 108.117188 25.671875 108.402344 C 25.625 108.519531 25.730469 108.621094 25.792969 108.710938 C 26.171875 109.109375 26.800781 109.050781 27.183594 109.4375 C 27.476562 109.699219 27.867188 109.515625 28.191406 109.4375 C 28.824219 109.261719 29.523438 108.925781 29.75 108.257812 "/>
<path style=" stroke:none;fill-rule:nonzero;fill:rgb(13.333333%,27.45098%,50.980392%);fill-opacity:1;" d="M 194.605469 54.015625 C 194.886719 53.957031 195.167969 54.09375 195.441406 54.011719 C 195.714844 53.929688 196 54.027344 196.277344 54.015625 C 196.578125 54.039062 196.871094 53.960938 197.167969 53.949219 C 197.824219 54 198.445312 54.25 199.097656 54.328125 C 200.367188 54.523438 201.535156 55.132812 202.558594 55.890625 C 202.757812 56.074219 203.019531 56.226562 203.121094 56.492188 C 202.632812 56.441406 202.203125 56.203125 201.75 56.050781 C 201.007812 55.785156 200.21875 55.671875 199.488281 55.386719 C 198.875 55.167969 198.230469 55.105469 197.613281 54.914062 C 196.777344 54.789062 195.953125 54.542969 195.101562 54.554688 C 194.707031 54.375 194.261719 54.34375 193.890625 54.117188 C 194.105469 53.976562 194.367188 54.066406 194.605469 54.015625 M 197.566406 57.210938 C 197.085938 57.3125 196.589844 57.269531 196.105469 57.355469 C 195.894531 57.003906 195.652344 56.664062 195.308594 56.425781 C 195.539062 56.238281 195.847656 56.375 196.117188 56.34375 C 196.898438 56.308594 197.621094 56.664062 198.390625 56.746094 C 198.449219 56.796875 198.507812 56.851562 198.570312 56.910156 C 198.242188 57.03125 197.910156 57.148438 197.566406 57.210938 M 185.425781 54.570312 C 185.648438 54.746094 185.914062 54.9375 186.214844 54.898438 C 187.011719 54.847656 187.808594 54.757812 188.605469 54.714844 C 189.082031 54.761719 189.542969 54.628906 190.011719 54.578125 C 190.523438 54.5 191.039062 54.261719 191.292969 53.785156 C 191.414062 53.894531 191.585938 53.992188 191.605469 54.171875 C 191.597656 54.339844 191.40625 54.375 191.308594 54.476562 C 191.132812 54.640625 190.996094 54.90625 190.710938 54.839844 C 190.355469 55.039062 189.96875 55.375 190.023438 55.824219 C 190.070312 56.363281 190.542969 56.695312 190.882812 57.058594 C 191.542969 57.167969 192.230469 57.226562 192.875 57.03125 C 193.253906 57.214844 193.445312 57.675781 193.429688 58.085938 C 192.953125 58.175781 192.472656 58.082031 191.996094 58.058594 C 191.464844 57.988281 190.910156 58.019531 190.410156 57.808594 C 190.15625 57.800781 189.890625 57.835938 189.65625 57.714844 C 189.304688 57.601562 189.136719 57.234375 188.816406 57.082031 C 188.496094 57.152344 188.214844 57.378906 188.0625 57.664062 C 187.933594 57.976562 188.03125 58.316406 188.082031 58.632812 C 188.171875 59.226562 188.382812 59.816406 188.773438 60.28125 C 189.203125 60.714844 189.859375 60.726562 190.429688 60.699219 C 191.078125 60.648438 191.734375 60.617188 192.378906 60.71875 C 192.519531 60.726562 192.582031 60.90625 192.527344 61.023438 C 192.332031 61.507812 192.101562 61.984375 191.808594 62.421875 C 191.296875 63.210938 190.761719 64.027344 189.988281 64.589844 C 189.359375 65.046875 188.5625 65.253906 187.789062 65.191406 C 187.582031 65.148438 187.390625 65.046875 187.179688 65.03125 C 186.003906 64.878906 184.945312 64.277344 183.785156 64.0625 C 183.972656 63.761719 184.367188 63.75 184.6875 63.738281 C 184.828125 63.734375 184.789062 63.554688 184.828125 63.476562 C 184.941406 63.433594 185.0625 63.429688 185.183594 63.410156 C 185.164062 63.363281 185.121094 63.265625 185.101562 63.21875 C 184.921875 63.203125 184.761719 63.28125 184.769531 63.488281 C 184.625 63.542969 184.414062 63.613281 184.414062 63.382812 C 184.625 63.375 184.855469 63.304688 184.816406 63.042969 C 184.238281 62.996094 183.65625 63.027344 183.097656 63.191406 C 182.621094 63.257812 182.121094 63.265625 181.679688 63.480469 C 181.628906 64.0625 182.191406 64.488281 182.714844 64.578125 C 183.34375 64.683594 184.058594 64.675781 184.539062 65.160156 C 184.933594 65.308594 185.371094 65.402344 185.675781 65.722656 C 185.90625 65.96875 186.488281 66.011719 186.367188 66.453125 C 186.957031 67.140625 187.746094 67.601562 188.386719 68.234375 C 188.675781 68.371094 188.992188 68.234375 189.296875 68.25 C 190.144531 68.351562 191.042969 67.941406 191.496094 67.210938 C 192.011719 66.4375 192.527344 65.660156 192.96875 64.839844 C 193.398438 63.992188 193.929688 63.199219 194.460938 62.410156 C 194.660156 62.125 194.769531 61.753906 195.089844 61.574219 C 195.347656 61.4375 195.644531 61.503906 195.910156 61.585938 C 196.589844 61.800781 197.304688 61.941406 197.933594 62.292969 C 198.246094 62.445312 198.542969 62.664062 198.894531 62.714844 C 199.132812 62.746094 199.320312 62.539062 199.417969 62.34375 C 199.546875 62.03125 199.433594 61.699219 199.414062 61.378906 C 199.390625 61.105469 199.492188 60.8125 199.339844 60.5625 C 199.179688 60.261719 199.023438 59.929688 198.71875 59.753906 C 198.128906 59.433594 197.464844 59.265625 196.871094 58.953125 C 196.558594 58.796875 196.589844 58.421875 196.488281 58.140625 C 196.5625 58.152344 196.636719 58.164062 196.710938 58.175781 C 196.773438 58.285156 196.8125 58.449219 196.96875 58.460938 C 197.265625 58.5 197.554688 58.34375 197.855469 58.378906 C 198.726562 58.449219 199.59375 58.1875 200.464844 58.28125 C 200.726562 58.300781 200.957031 58.445312 201.21875 58.472656 C 201.53125 58.269531 201.566406 57.84375 201.605469 57.503906 C 201.640625 57.320312 201.46875 57.183594 201.449219 57.011719 C 201.75 57.09375 202.066406 57.171875 202.300781 57.390625 C 202.648438 57.71875 203.199219 57.738281 203.503906 58.121094 C 203.945312 58.679688 204.5 59.128906 204.996094 59.632812 C 205.445312 60.054688 206.257812 60.011719 206.609375 59.488281 C 206.796875 59.191406 206.6875 58.832031 206.613281 58.519531 C 206.402344 57.652344 205.875 56.886719 205.207031 56.304688 C 204.707031 55.707031 204.097656 55.203125 203.445312 54.773438 C 203.074219 54.527344 202.726562 54.230469 202.304688 54.078125 C 201.800781 53.890625 201.34375 53.59375 200.835938 53.414062 C 201.238281 53.226562 201.628906 53.011719 202.058594 52.898438 C 202.71875 52.75 203.355469 52.5 204.035156 52.449219 C 204.441406 52.414062 204.847656 52.503906 205.253906 52.464844 C 205.679688 52.425781 206.113281 52.40625 206.539062 52.464844 C 206.707031 52.371094 206.894531 52.304688 207.023438 52.160156 C 207.207031 51.882812 207.183594 51.53125 207.152344 51.214844 C 207.066406 50.550781 206.84375 49.886719 206.433594 49.351562 C 206.207031 49.042969 205.828125 48.839844 205.441406 48.898438 C 204.625 49.007812 203.78125 49.113281 202.960938 48.957031 C 202.582031 48.816406 202.171875 48.828125 201.777344 48.839844 C 201.210938 48.878906 200.65625 48.722656 200.128906 48.53125 C 199.597656 48.34375 199.15625 47.925781 198.582031 47.859375 C 198.382812 48.066406 198.042969 48.164062 197.976562 48.472656 C 197.816406 49.136719 198.0625 49.882812 198.5625 50.339844 C 198.988281 50.667969 199.460938 50.976562 199.988281 51.101562 C 200.441406 51.070312 200.886719 50.894531 201.253906 50.625 C 201.433594 50.507812 201.371094 50.269531 201.382812 50.089844 C 201.589844 50.007812 201.804688 49.921875 202.03125 49.9375 C 202.351562 49.949219 202.699219 49.921875 202.980469 50.109375 C 202.726562 50.425781 202.375 50.644531 202.128906 50.96875 C 201.675781 51.550781 200.96875 51.839844 200.320312 52.15625 C 199.835938 52.417969 199.253906 52.34375 198.777344 52.613281 C 198.609375 52.554688 198.441406 52.484375 198.261719 52.515625 C 197.441406 52.492188 196.621094 52.527344 195.808594 52.421875 C 195.769531 52.402344 195.695312 52.359375 195.660156 52.339844 C 195.875 52.257812 196.132812 52.234375 196.285156 52.042969 C 196.789062 51.511719 196.863281 50.726562 196.835938 50.027344 C 196.878906 50.007812 196.96875 49.972656 197.011719 49.949219 C 197.105469 49.8125 197.160156 49.613281 197.34375 49.566406 C 197.5 49.496094 197.804688 49.421875 197.660156 49.1875 C 197.445312 49.101562 197.28125 49.277344 197.097656 49.34375 C 196.910156 49.382812 196.710938 49.375 196.519531 49.371094 C 196.199219 49.378906 196.023438 49.050781 195.84375 48.835938 C 195.570312 48.335938 195.03125 48.082031 194.546875 47.835938 C 194.21875 47.679688 193.855469 47.476562 193.484375 47.585938 C 193.164062 47.710938 193.046875 48.066406 192.925781 48.359375 C 192.742188 48.773438 192.890625 49.222656 193.003906 49.636719 C 193.125 50.082031 193.15625 50.550781 193.285156 50.996094 C 193.488281 51.394531 193.78125 51.753906 194.125 52.042969 C 194.394531 52.273438 194.800781 52.144531 195.070312 52.378906 C 194.671875 52.496094 194.257812 52.394531 193.851562 52.386719 C 193.386719 52.371094 192.890625 52.320312 192.507812 52.03125 C 192.15625 51.824219 192.058594 51.363281 191.683594 51.191406 C 191.058594 50.890625 190.289062 50.738281 189.628906 51.015625 C 189.300781 51.128906 188.964844 51.222656 188.652344 51.375 C 188.429688 51.476562 188.269531 51.667969 188.070312 51.808594 C 187.507812 52.21875 186.78125 52.292969 186.195312 52.660156 C 185.894531 52.851562 185.5625 53.011719 185.316406 53.273438 C 185.109375 53.675781 185.195312 54.191406 185.425781 54.570312 "/>
<path style=" stroke:none;fill-rule:nonzero;fill:rgb(13.333333%,27.45098%,50.980392%);fill-opacity:1;" d="M 102.65625 28.445312 C 103.070312 28.054688 103.554688 27.746094 104.035156 27.4375 C 104.199219 27.335938 104.390625 27.273438 104.578125 27.226562 C 104.234375 27.519531 104.066406 27.953125 103.75 28.269531 C 103.53125 28.570312 103.378906 28.921875 103.09375 29.175781 C 103.042969 29.433594 102.882812 29.667969 102.652344 29.789062 C 102.277344 29.8125 102.023438 29.46875 101.855469 29.183594 C 102.164062 28.988281 102.359375 28.664062 102.65625 28.445312 M 102.871094 30.007812 C 103.007812 29.824219 103.15625 29.640625 103.277344 29.441406 C 103.320312 29.484375 103.363281 29.523438 103.40625 29.566406 C 103.226562 29.703125 103.140625 30.03125 102.871094 30.007812 M 89.675781 39.515625 C 90.261719 38.90625 90.675781 38.152344 90.992188 37.378906 C 91.03125 37.285156 91.089844 37.199219 91.15625 37.121094 C 91.183594 37.351562 91.03125 37.5625 91.082031 37.792969 C 91.1875 38.429688 91.3125 39.070312 91.5625 39.664062 C 91.691406 39.976562 91.796875 40.335938 92.121094 40.5 C 92.605469 40.773438 93.183594 40.816406 93.730469 40.84375 C 94.242188 40.820312 94.488281 40.285156 94.644531 39.871094 C 94.878906 39.136719 95.011719 38.359375 94.964844 37.589844 C 95.0625 37.285156 94.976562 36.941406 95.167969 36.667969 C 95.335938 36.398438 95.371094 36.074219 95.457031 35.773438 C 95.753906 35.957031 95.949219 36.265625 96.257812 36.4375 C 96.550781 36.621094 96.945312 36.851562 97.273438 36.601562 C 97.644531 36.269531 97.40625 35.695312 97.683594 35.3125 C 98.042969 34.757812 98.476562 34.253906 98.894531 33.738281 C 99.25 33.339844 99.40625 32.8125 99.753906 32.402344 C 99.980469 31.835938 100.289062 31.308594 100.628906 30.800781 C 101.089844 31.101562 101.148438 31.667969 101.21875 32.164062 C 101.132812 32.480469 101.011719 32.792969 100.785156 33.039062 C 100.441406 33.429688 100.230469 33.925781 100.109375 34.425781 C 99.882812 34.636719 99.816406 35.007812 99.507812 35.125 C 99.246094 35.496094 98.863281 35.773438 98.648438 36.175781 C 98.605469 36.886719 99.222656 37.585938 99.933594 37.65625 C 100.304688 37.574219 100.570312 37.230469 100.972656 37.210938 C 101.496094 37.160156 101.902344 36.761719 102.074219 36.28125 C 102.21875 36.519531 102.246094 36.800781 102.300781 37.066406 C 102.382812 37.539062 102.511719 38.023438 102.386719 38.5 C 102.46875 38.957031 102.636719 39.398438 102.707031 39.863281 C 102.820312 40.394531 102.757812 40.941406 102.84375 41.476562 C 103.039062 42.804688 103.230469 44.160156 103.78125 45.398438 C 104.03125 45.851562 104.167969 46.351562 104.390625 46.816406 C 104.53125 47.136719 104.511719 47.546875 104.839844 47.753906 C 105.023438 47.636719 105.210938 47.519531 105.382812 47.382812 C 105.355469 47.214844 105.410156 47.0625 105.492188 46.917969 C 105.539062 46.230469 105.414062 45.550781 105.453125 44.863281 C 105.46875 44.484375 105.632812 44.128906 105.617188 43.75 C 105.601562 43.25 105.496094 42.757812 105.492188 42.257812 C 105.496094 41.980469 105.359375 41.730469 105.300781 41.464844 C 105.101562 40.648438 105.085938 39.75 104.582031 39.042969 C 104.523438 38.488281 104.078125 38.070312 104.066406 37.507812 C 103.863281 37.042969 103.835938 36.535156 103.875 36.035156 C 103.917969 35.671875 103.757812 35.335938 103.710938 34.984375 C 103.773438 34.816406 103.894531 34.6875 103.96875 34.527344 C 104.265625 33.5625 105.132812 32.949219 105.796875 32.238281 C 106.21875 31.734375 106.808594 31.429688 107.375 31.117188 C 107.597656 31.019531 107.667969 30.734375 107.5625 30.527344 C 107.386719 30.097656 107.128906 29.65625 106.71875 29.421875 C 106.167969 29.332031 105.59375 29.40625 105.054688 29.542969 C 104.71875 29.683594 104.542969 30.03125 104.253906 30.242188 C 103.910156 30.492188 103.707031 30.882812 103.359375 31.128906 C 103.339844 31.09375 103.292969 31.019531 103.269531 30.984375 C 103.390625 30.726562 103.433594 30.394531 103.695312 30.242188 C 104.359375 29.832031 104.734375 29.125 105.203125 28.527344 C 105.535156 28.179688 105.746094 27.734375 106.082031 27.386719 C 106.648438 26.839844 107.382812 26.46875 107.867188 25.835938 C 107.964844 25.507812 107.824219 25.144531 107.824219 24.800781 C 107.597656 24.632812 107.410156 24.414062 107.375 24.121094 C 106.328125 24.191406 105.355469 24.644531 104.464844 25.171875 C 104.058594 25.328125 103.714844 25.625 103.28125 25.703125 C 103.289062 25.765625 103.304688 25.886719 103.308594 25.945312 C 102.671875 26.472656 101.921875 26.835938 101.230469 27.28125 C 100.996094 27.496094 100.859375 27.8125 100.554688 27.953125 C 100.5625 27.058594 100.859375 26.179688 101.339844 25.425781 C 101.597656 25.066406 101.996094 24.851562 102.289062 24.527344 C 102.4375 24.371094 102.554688 24.1875 102.726562 24.054688 C 103.003906 23.941406 103.359375 23.949219 103.550781 23.683594 C 103.699219 23.523438 103.539062 23.328125 103.484375 23.167969 C 103.789062 22.917969 103.484375 22.621094 103.304688 22.40625 C 102.976562 22.355469 102.898438 21.992188 102.648438 21.839844 C 102.371094 21.820312 102.09375 21.902344 101.820312 21.914062 C 101.699219 21.699219 101.597656 21.472656 101.617188 21.21875 C 101.640625 20.683594 101.382812 20.175781 101.425781 19.636719 C 101.480469 19.128906 101.351562 18.613281 101.460938 18.109375 C 101.53125 17.882812 101.707031 17.6875 101.707031 17.4375 C 101.707031 17.273438 101.5625 17.179688 101.4375 17.101562 C 100.882812 16.75 100.273438 16.484375 99.644531 16.296875 C 99.347656 16.246094 99.050781 16.183594 98.757812 16.109375 C 98.464844 16.324219 98.042969 16.605469 98.183594 17.03125 C 98.230469 17.257812 98.464844 17.328125 98.660156 17.390625 C 99.050781 18.351562 98.648438 19.398438 98.84375 20.390625 C 98.929688 21.046875 99.144531 21.714844 99.003906 22.382812 C 98.9375 22.753906 99.136719 23.140625 98.980469 23.507812 C 98.824219 23.957031 98.671875 24.445312 98.316406 24.78125 C 97.910156 25.179688 97.359375 25.34375 96.855469 25.570312 C 96.621094 25.90625 96.402344 26.257812 96.210938 26.621094 C 96.25 26.910156 96.535156 27.082031 96.796875 27.144531 C 97.214844 27.238281 97.5625 27.539062 98 27.570312 C 98.246094 27.625 98.527344 27.558594 98.75 27.703125 C 98.691406 27.746094 98.570312 27.835938 98.511719 27.882812 C 98.652344 28.332031 98.230469 28.695312 98.296875 29.152344 C 98.265625 29.191406 98.207031 29.269531 98.175781 29.304688 C 98.238281 29.628906 98.125 29.945312 98.027344 30.25 C 97.765625 31.105469 97.214844 31.828125 96.824219 32.625 C 96.46875 33.382812 96.027344 34.101562 95.738281 34.886719 C 95.375 35.148438 95.085938 35.492188 94.746094 35.777344 C 94.445312 36.015625 94.261719 36.382812 93.910156 36.554688 C 93.445312 36.570312 93.363281 36.019531 93.261719 35.683594 C 92.816406 35.09375 92.820312 34.3125 92.46875 33.675781 C 92.289062 33.34375 92.148438 32.972656 92.203125 32.589844 C 92.316406 31.46875 92.5 30.355469 92.585938 29.234375 C 92.648438 28.480469 92.617188 27.714844 92.769531 26.96875 C 92.820312 26.628906 93.109375 26.390625 93.207031 26.066406 C 93.308594 25.777344 93.398438 25.4375 93.695312 25.285156 C 93.980469 25.179688 94.296875 25.214844 94.578125 25.105469 C 94.773438 25.035156 94.8125 24.808594 94.90625 24.648438 C 94.972656 24.480469 95.167969 24.378906 95.183594 24.191406 C 95.261719 22.828125 94.019531 21.550781 92.65625 21.585938 C 92.210938 21.574219 91.753906 21.492188 91.316406 21.59375 C 90.960938 21.664062 90.691406 21.976562 90.636719 22.328125 C 90.484375 22.859375 90.511719 23.414062 90.527344 23.960938 C 90.640625 25.183594 90.667969 26.40625 90.710938 27.628906 C 90.738281 27.878906 90.652344 28.117188 90.628906 28.363281 C 90.707031 29.226562 90.484375 30.078125 90.417969 30.933594 C 90.34375 32.167969 89.996094 33.367188 89.917969 34.601562 C 89.738281 35.445312 89.511719 36.285156 89.203125 37.089844 C 89.003906 37.640625 88.601562 38.078125 88.347656 38.597656 C 88.078125 39.03125 87.730469 39.4375 87.28125 39.691406 C 87.730469 39.855469 88.210938 39.828125 88.671875 39.945312 C 89.0625 40.058594 89.414062 39.765625 89.675781 39.515625 "/>
<path style=" stroke:none;fill-rule:nonzero;fill:rgb(13.333333%,27.45098%,50.980392%);fill-opacity:1;" d="M 47.492188 54.550781 C 47.609375 53.921875 47.53125 53.265625 47.679688 52.640625 C 47.804688 52.484375 48.03125 52.460938 48.203125 52.382812 C 48.257812 53.722656 47.839844 55.011719 47.550781 56.300781 C 47.320312 56.972656 47.171875 57.675781 46.882812 58.324219 C 46.820312 57.039062 47.292969 55.808594 47.492188 54.550781 M 51.464844 55.121094 C 51.699219 55.011719 51.835938 54.609375 52.148438 54.742188 C 52.390625 54.976562 52.507812 55.316406 52.75 55.558594 C 52.617188 55.925781 52.21875 56.152344 52.183594 56.558594 C 52.023438 57.082031 51.910156 57.648438 51.546875 58.074219 C 51.003906 57.742188 50.929688 57.070312 51 56.496094 C 51.054688 56.023438 50.921875 55.347656 51.464844 55.121094 M 54.378906 58.726562 C 54.566406 59.316406 54.304688 59.898438 54.222656 60.484375 C 53.773438 60.511719 53.359375 60.234375 53.113281 59.871094 C 53.015625 59.746094 53 59.585938 53.054688 59.4375 C 53.121094 59.527344 53.253906 59.710938 53.320312 59.800781 C 53.382812 59.664062 53.414062 59.507812 53.347656 59.363281 C 53.21875 59.023438 53.300781 58.65625 53.226562 58.304688 C 53.132812 57.78125 53.226562 57.207031 53.578125 56.789062 C 54.074219 57.304688 54.445312 57.992188 54.378906 58.726562 M 51.695312 46.789062 C 51.386719 46.394531 51.617188 45.882812 51.550781 45.429688 C 51.566406 45.277344 51.441406 45.027344 51.65625 44.972656 C 52.269531 45.574219 52.519531 46.472656 53.203125 47.011719 C 53.421875 47.097656 53.65625 47.144531 53.886719 47.148438 C 54.082031 47.109375 54.226562 46.949219 54.390625 46.84375 C 55.113281 47.066406 55.542969 47.742188 56.171875 48.121094 C 56.980469 48.625 57.601562 49.355469 58.179688 50.097656 C 58.140625 50.464844 58.339844 50.796875 58.347656 51.15625 C 58.28125 51.394531 58.257812 51.675781 58.113281 51.878906 C 57.738281 51.972656 57.398438 51.691406 57.046875 51.597656 C 56.421875 51.457031 55.996094 50.9375 55.5625 50.511719 C 55.332031 50.261719 55.007812 50.128906 54.777344 49.878906 C 54.316406 49.359375 53.796875 48.890625 53.320312 48.386719 C 52.753906 47.878906 52.148438 47.402344 51.695312 46.789062 M 46.734375 66.242188 C 47.136719 65.914062 47.507812 65.417969 47.425781 64.867188 C 47.511719 64.5625 47.4375 64.242188 47.539062 63.941406 C 47.6875 63.453125 47.5625 62.910156 47.796875 62.445312 C 47.972656 62.042969 48.09375 61.621094 48.1875 61.195312 C 48.269531 60.882812 48.167969 60.566406 48.148438 60.25 C 48.140625 60.054688 47.976562 59.898438 48.003906 59.699219 C 48.035156 59.234375 48.125 58.769531 48.316406 58.34375 C 48.445312 59.070312 48.800781 59.730469 48.917969 60.460938 C 49.125 61.140625 49.304688 61.828125 49.460938 62.519531 C 49.554688 62.980469 49.800781 63.402344 49.808594 63.878906 C 49.949219 64.480469 50.023438 65.09375 50.066406 65.710938 C 50.066406 66.246094 50.21875 66.769531 50.199219 67.304688 C 49.90625 66.96875 49.90625 66.511719 49.769531 66.113281 C 49.714844 65.984375 49.625 65.714844 49.4375 65.84375 C 49.226562 66.1875 49.371094 66.609375 49.453125 66.972656 C 49.714844 67.835938 49.703125 68.742188 49.738281 69.632812 C 49.84375 70.1875 50.21875 70.636719 50.609375 71.027344 C 51.011719 70.832031 51.160156 70.363281 51.492188 70.074219 C 51.625 69.496094 51.558594 68.902344 51.558594 68.320312 C 52.046875 67.152344 51.765625 65.871094 51.570312 64.675781 C 51.382812 63.488281 51.054688 62.328125 50.734375 61.171875 C 50.648438 60.835938 50.511719 60.464844 50.683594 60.128906 C 51.558594 60.761719 52.339844 61.523438 52.972656 62.394531 C 53.351562 62.847656 53.761719 63.320312 54.324219 63.539062 C 54.585938 63.648438 54.90625 63.617188 55.113281 63.402344 C 55.445312 63.027344 55.597656 62.523438 55.652344 62.03125 C 55.707031 61.730469 55.394531 61.535156 55.386719 61.246094 C 55.351562 60.914062 55.242188 60.566406 55.367188 60.242188 C 55.558594 60.195312 55.714844 60.40625 55.914062 60.371094 C 56.148438 60.347656 56.460938 60.410156 56.613281 60.183594 C 56.726562 59.914062 56.832031 59.644531 56.945312 59.375 C 57.042969 58.820312 56.636719 58.339844 56.332031 57.921875 C 55.363281 56.96875 54.589844 55.851562 53.753906 54.792969 C 53.542969 54.398438 53.339844 54.003906 53.082031 53.636719 C 52.808594 53.308594 53.035156 52.8125 52.738281 52.496094 C 52.570312 52.300781 52.292969 52.359375 52.070312 52.375 C 51.496094 52.433594 51.117188 52.964844 50.957031 53.476562 C 50.703125 53.804688 50.464844 54.15625 50.367188 54.566406 C 50.320312 54.773438 50.199219 54.945312 50.058594 55.089844 C 49.773438 54.847656 50.078125 54.542969 50.097656 54.265625 C 50.046875 53.542969 50.542969 52.945312 50.671875 52.257812 C 50.832031 51.660156 50.65625 51.039062 50.34375 50.523438 C 50.171875 50.28125 50.246094 49.980469 50.210938 49.703125 C 50.191406 49.445312 50.066406 49.144531 50.277344 48.929688 C 51.332031 49.570312 52.351562 50.277344 53.300781 51.074219 C 53.683594 51.394531 54.132812 51.640625 54.488281 51.996094 C 56.527344 54.273438 58.765625 56.40625 60.429688 58.992188 C 60.578125 59.230469 60.765625 59.445312 60.953125 59.660156 C 62.453125 61.421875 64.027344 63.121094 65.582031 64.832031 C 66.039062 65.3125 66.324219 65.953125 66.90625 66.308594 C 67.214844 66.546875 67.613281 66.582031 67.964844 66.71875 C 68.421875 66.300781 68.75 65.558594 68.382812 64.980469 C 67.765625 64.238281 67.019531 63.621094 66.289062 62.992188 C 66.035156 62.757812 65.675781 62.691406 65.429688 62.449219 C 64.933594 61.976562 64.550781 61.398438 64.015625 60.96875 C 63.429688 60.460938 62.941406 59.851562 62.4375 59.261719 C 61.691406 58.375 60.804688 57.601562 60.1875 56.617188 C 59.503906 55.71875 58.671875 54.921875 58.121094 53.925781 C 58.335938 53.714844 58.636719 53.65625 58.90625 53.554688 C 59.265625 53.734375 59.730469 53.53125 59.847656 53.148438 C 59.917969 52.910156 60.109375 52.699219 60.078125 52.4375 C 60.0625 51.980469 59.582031 51.644531 59.691406 51.167969 C 59.710938 50.789062 59.9375 50.476562 60.050781 50.125 C 60.011719 49.828125 59.863281 49.554688 59.792969 49.261719 C 59.4375 48.734375 58.855469 48.339844 58.21875 48.253906 C 57.550781 47.925781 56.972656 47.4375 56.308594 47.101562 C 55.15625 46.46875 54.164062 45.585938 53.023438 44.933594 C 52.808594 44.628906 52.636719 44.289062 52.421875 43.980469 C 52.203125 43.648438 52.15625 43.238281 52.195312 42.847656 C 51.984375 42.46875 51.515625 42.054688 51.0625 42.300781 C 50.636719 42.667969 50.496094 43.28125 50.558594 43.824219 C 50.574219 44.714844 50.664062 45.609375 50.59375 46.5 C 50.578125 46.804688 50.257812 46.976562 49.984375 47.003906 C 49.378906 47.351562 48.757812 47.707031 48.332031 48.273438 C 48.042969 48.84375 48.351562 49.460938 48.378906 50.050781 C 48.027344 49.96875 47.667969 49.921875 47.304688 49.898438 C 47.011719 49.875 46.789062 49.648438 46.667969 49.394531 C 46.390625 48.820312 45.738281 48.480469 45.597656 47.832031 C 45.519531 47.371094 45.25 46.976562 45.117188 46.53125 C 44.941406 45.925781 44.230469 45.488281 43.613281 45.691406 C 43.132812 45.839844 42.78125 46.25 42.507812 46.65625 C 42.359375 47.042969 42.636719 47.449219 42.855469 47.753906 C 43.210938 48.183594 43.375 48.726562 43.511719 49.257812 C 43.570312 49.503906 43.84375 49.6875 43.792969 49.957031 C 43.761719 50.328125 43.445312 50.570312 43.167969 50.773438 C 42.464844 51.210938 41.734375 51.625 41.125 52.195312 C 40.863281 52.4375 40.617188 52.796875 40.714844 53.171875 C 40.851562 53.585938 41.246094 53.832031 41.609375 54.035156 C 42.03125 54.300781 42.542969 54.144531 43 54.09375 C 43.46875 53.847656 43.816406 53.3125 44.382812 53.289062 C 44.707031 53.261719 44.910156 52.863281 45.253906 52.933594 C 45.4375 53.066406 45.417969 53.328125 45.46875 53.527344 C 45.507812 53.871094 45.8125 54.109375 45.871094 54.453125 C 46.035156 55.167969 45.917969 55.910156 45.933594 56.636719 C 45.945312 57.40625 45.753906 58.15625 45.730469 58.921875 C 45.5 59.417969 45.675781 59.964844 45.605469 60.480469 C 45.414062 61.308594 45.300781 62.148438 45.121094 62.976562 C 45.023438 63.550781 44.917969 64.128906 44.964844 64.710938 C 44.988281 65.082031 45.230469 65.378906 45.328125 65.722656 C 45.402344 66.042969 45.707031 66.222656 45.945312 66.414062 C 46.195312 66.609375 46.535156 66.425781 46.734375 66.242188 "/>
<path style=" stroke:none;fill-rule:nonzero;fill:rgb(13.333333%,27.45098%,50.980392%);fill-opacity:1;" d="M 156.273438 26.3125 C 156.683594 26.414062 157.238281 26.433594 157.429688 26.878906 C 157.121094 27.019531 156.808594 26.859375 156.5 26.847656 C 155.929688 26.949219 155.375 27.132812 154.816406 27.273438 C 155.113281 26.742188 155.652344 26.335938 156.273438 26.3125 M 155.644531 33.476562 C 155.640625 34.039062 155.195312 34.535156 155.339844 35.105469 C 155.339844 35.421875 155.167969 35.710938 155.089844 36.015625 C 154.882812 36.554688 154.875 37.136719 154.710938 37.6875 C 154.609375 37.980469 154.683594 38.300781 154.574219 38.59375 C 154.414062 39.0625 154.28125 39.539062 154.160156 40.019531 C 154.011719 39.992188 153.84375 40.011719 153.742188 39.882812 C 153.523438 39.652344 153.242188 39.507812 152.96875 39.351562 C 152.730469 39.066406 152.757812 38.621094 152.90625 38.300781 C 153.082031 37.871094 153.613281 37.976562 153.96875 37.820312 C 154.234375 37.722656 154.199219 37.390625 154.246094 37.164062 C 154.285156 36.628906 154.511719 36.132812 154.539062 35.597656 C 154.574219 35.074219 154.710938 34.523438 154.503906 34.019531 C 154.402344 33.792969 154.355469 33.550781 154.273438 33.320312 C 154.175781 33.101562 153.921875 33.042969 153.734375 32.941406 C 154 32.488281 154.226562 31.945312 154.722656 31.695312 C 155.050781 31.453125 155.488281 31.515625 155.859375 31.601562 C 155.984375 32.21875 155.664062 32.847656 155.644531 33.476562 M 152.957031 44.15625 C 152.804688 44.511719 152.371094 44.28125 152.105469 44.222656 C 151.566406 44.101562 151.195312 43.644531 151.007812 43.152344 C 150.871094 42.851562 150.867188 42.496094 150.625 42.253906 C 150.667969 42.070312 150.691406 41.882812 150.652344 41.695312 C 150.804688 41.390625 150.996094 41.066406 150.976562 40.714844 C 151.691406 41.449219 152.953125 41.367188 153.554688 42.234375 C 153.433594 42.886719 153.152344 43.511719 152.957031 44.15625 M 140.304688 29.902344 C 140.40625 29.804688 140.488281 29.652344 140.644531 29.636719 C 141.683594 29.4375 142.777344 29.238281 143.65625 28.609375 C 144.875 27.882812 146.210938 27.390625 147.5625 26.976562 C 147.835938 26.882812 148.140625 26.996094 148.398438 26.84375 C 148.738281 26.667969 149.128906 26.671875 149.484375 26.539062 C 149.800781 26.449219 150.113281 26.25 150.453125 26.375 C 150.25 26.617188 149.949219 26.734375 149.699219 26.917969 C 149.527344 27.117188 149.410156 27.367188 149.203125 27.539062 C 148.980469 27.703125 148.980469 28.003906 148.820312 28.207031 C 148.566406 28.410156 148.285156 28.585938 148.015625 28.765625 C 147.457031 29.183594 146.710938 29.09375 146.101562 29.402344 C 145.878906 29.667969 145.8125 30.03125 145.894531 30.367188 C 146.144531 30.515625 146.285156 30.765625 146.457031 30.988281 C 146.792969 31.210938 147.222656 31.253906 147.617188 31.277344 C 148.03125 31.300781 148.359375 30.972656 148.773438 30.957031 C 149.261719 30.941406 149.742188 30.824219 150.234375 30.785156 C 150.871094 30.757812 151.4375 30.386719 152.082031 30.375 C 152.003906 30.605469 151.960938 30.847656 151.941406 31.089844 C 151.824219 31.632812 151.339844 31.972656 151.144531 32.476562 C 150.863281 33.109375 150.519531 33.710938 150.191406 34.320312 C 149.65625 35.511719 148.898438 36.582031 148.34375 37.765625 C 148.007812 38.359375 147.839844 39.039062 147.449219 39.601562 C 146.839844 40.609375 146.347656 41.699219 146.082031 42.84375 C 145.953125 43.300781 146.136719 43.765625 146.289062 44.191406 C 146.507812 44.6875 147.121094 44.753906 147.597656 44.726562 C 147.96875 44.714844 147.957031 44.238281 148.03125 43.972656 C 148.085938 43.292969 148.71875 42.871094 148.851562 42.214844 C 149.121094 40.976562 149.875 39.933594 150.300781 38.753906 C 150.460938 38.316406 150.765625 37.957031 150.921875 37.519531 C 151.117188 37.015625 151.441406 36.578125 151.726562 36.125 C 151.851562 35.8125 152.015625 35.515625 152.246094 35.265625 C 152.464844 35.035156 152.507812 34.640625 152.832031 34.53125 C 152.800781 35.371094 152.273438 36.046875 151.984375 36.804688 C 152.003906 36.871094 152.050781 37.007812 152.074219 37.078125 C 151.945312 37.308594 151.8125 37.539062 151.726562 37.792969 C 152.058594 37.605469 152.28125 37.265625 152.425781 36.921875 C 152.449219 37.699219 151.640625 38.019531 151.328125 38.632812 C 150.738281 39.699219 150.601562 40.929688 150.222656 42.070312 C 150.152344 42.21875 150.277344 42.339844 150.34375 42.460938 C 149.902344 42.855469 149.96875 43.484375 149.972656 44.023438 C 149.988281 44.789062 150.035156 45.664062 150.640625 46.222656 C 151.289062 46.714844 152.085938 46.9375 152.757812 47.398438 C 153.195312 47.738281 153.808594 47.734375 154.289062 47.488281 C 154.59375 47.332031 155.027344 47.28125 155.144531 46.90625 C 155.347656 46.363281 155.507812 45.800781 155.601562 45.230469 C 155.613281 44.609375 155.640625 43.992188 155.71875 43.375 C 155.824219 42 156.25 40.679688 156.441406 39.316406 C 156.609375 38.050781 156.941406 36.820312 157.105469 35.554688 C 157.292969 34.535156 157.433594 33.355469 158.308594 32.675781 C 158.460938 32.1875 158.605469 31.628906 158.394531 31.136719 C 158.109375 30.449219 157.449219 30.027344 156.828125 29.679688 C 157.65625 29.097656 158.75 29.417969 159.671875 29.097656 C 159.9375 29.242188 160.183594 29.425781 160.460938 29.554688 C 160.75 29.644531 161.0625 29.621094 161.363281 29.589844 C 161.511719 29.398438 161.75 29.320312 161.957031 29.203125 C 162.09375 29.066406 161.972656 28.867188 161.90625 28.730469 C 161.464844 27.894531 160.902344 27.125 160.433594 26.320312 C 160.890625 26.109375 161.417969 26.199219 161.90625 26.230469 C 162.980469 26.316406 163.960938 26.789062 164.972656 27.113281 C 165.882812 27.734375 166.992188 28.210938 168.113281 27.980469 C 168.472656 27.902344 168.589844 27.433594 168.425781 27.136719 C 168.199219 26.703125 167.933594 26.28125 167.628906 25.898438 C 167.421875 25.628906 167.085938 25.527344 166.832031 25.320312 C 166.585938 25.132812 166.371094 24.886719 166.070312 24.796875 C 165.582031 24.664062 165.066406 24.679688 164.566406 24.6875 C 163.828125 24.453125 163.046875 24.5625 162.285156 24.480469 C 161.730469 24.496094 161.195312 24.300781 160.640625 24.332031 C 160.28125 24.261719 159.726562 24.207031 159.691406 23.742188 C 159.507812 22.777344 159.074219 21.863281 158.386719 21.152344 C 158.050781 20.628906 157.542969 20.261719 157.058594 19.878906 C 156.457031 19.589844 155.714844 19.320312 155.09375 19.71875 C 154.851562 20.007812 154.804688 20.40625 154.734375 20.765625 C 154.589844 21.371094 155.078125 21.867188 155.132812 22.453125 C 155.175781 22.847656 155.300781 23.351562 154.964844 23.660156 C 154.574219 23.933594 154.066406 23.886719 153.640625 24.066406 C 153.410156 24.1875 153.148438 24.132812 152.910156 24.207031 C 151.367188 24.792969 149.703125 24.875 148.097656 25.175781 C 147.21875 25.308594 146.386719 25.65625 145.5 25.746094 C 144.632812 25.835938 143.746094 25.808594 142.894531 25.625 C 142.351562 25.515625 141.804688 25.628906 141.265625 25.707031 C 140.949219 25.769531 140.644531 25.59375 140.332031 25.617188 C 140.066406 25.699219 139.832031 25.847656 139.59375 25.984375 C 139.425781 26.375 139.089844 26.667969 138.953125 27.078125 C 138.835938 27.402344 138.578125 27.648438 138.449219 27.964844 C 138.445312 28.46875 138.644531 28.945312 138.828125 29.40625 C 139.132812 29.898438 139.773438 29.96875 140.304688 29.902344 "/>
<path style=" stroke:none;fill-rule:nonzero;fill:rgb(13.72549%,28.235294%,54.117647%);fill-opacity:1;" d="M 110.582031 195.066406 L 110.582031 185.328125 C 110.015625 185.742188 108.84375 186.226562 108.210938 186.339844 L 108.210938 185.089844 C 109.09375 184.851562 110.203125 184.191406 110.988281 183.433594 L 112.144531 183.433594 L 112.144531 195.066406 Z M 110.582031 195.066406 "/>
<path style=" stroke:none;fill-rule:nonzero;fill:rgb(13.72549%,28.235294%,54.117647%);fill-opacity:1;" d="M 116.253906 187.105469 C 116.253906 188.589844 117.085938 189.550781 118.445312 189.550781 C 120.035156 189.550781 120.757812 188.710938 120.757812 187.167969 C 120.757812 186.457031 120.492188 184.578125 118.496094 184.578125 C 116.9375 184.578125 116.253906 185.695312 116.253906 187.105469 M 116.414062 192.523438 C 116.742188 193.472656 117.332031 193.972656 118.457031 193.972656 C 120.679688 193.972656 120.867188 190.925781 120.925781 189.472656 C 120.386719 190.445312 119.386719 190.851562 118.179688 190.851562 C 116.027344 190.851562 114.675781 189.289062 114.675781 187.167969 C 114.675781 185.042969 116.074219 183.285156 118.527344 183.285156 C 121.382812 183.285156 122.453125 185.554688 122.453125 188.617188 C 122.453125 191.652344 121.820312 195.253906 118.390625 195.253906 C 116.089844 195.253906 115.121094 193.886719 114.839844 192.523438 Z M 116.414062 192.523438 "/>
<path style=" stroke:none;fill-rule:nonzero;fill:rgb(13.72549%,28.235294%,54.117647%);fill-opacity:1;" d="M 131.535156 184.832031 L 126.742188 184.832031 C 126.636719 185.765625 126.351562 187.515625 126.238281 188.136719 C 126.722656 187.59375 127.472656 187.207031 128.640625 187.207031 C 130.738281 187.207031 132.089844 188.679688 132.089844 191.046875 C 132.089844 193.304688 130.917969 195.277344 128.140625 195.277344 C 126.09375 195.277344 124.613281 194.132812 124.3125 192.164062 L 125.863281 192.164062 C 126.128906 193.21875 126.882812 193.996094 128.191406 193.996094 C 129.753906 193.996094 130.523438 192.875 130.523438 191.160156 C 130.523438 189.667969 129.90625 188.523438 128.316406 188.523438 C 126.929688 188.523438 126.359375 189.109375 125.953125 190.039062 L 124.527344 189.773438 C 124.867188 188.257812 125.304688 184.949219 125.476562 183.492188 L 131.75 183.492188 Z M 131.535156 184.832031 "/>
<path style=" stroke:none;fill-rule:nonzero;fill:rgb(13.72549%,28.235294%,54.117647%);fill-opacity:1;" d="M 140.242188 191.179688 C 140.242188 189.882812 139.746094 188.5 137.984375 188.5 C 136.566406 188.5 135.566406 189.414062 135.566406 191.164062 C 135.566406 192.117188 136.046875 193.976562 137.933594 193.976562 C 139.589844 193.976562 140.242188 192.628906 140.242188 191.179688 M 139.941406 186.011719 C 139.71875 185.171875 139.183594 184.542969 138.011719 184.542969 C 136.082031 184.542969 135.453125 186.367188 135.394531 188.8125 C 135.859375 187.996094 136.714844 187.207031 138.300781 187.207031 C 140.519531 187.207031 141.816406 188.832031 141.816406 191.0625 C 141.816406 193.339844 140.488281 195.277344 137.949219 195.277344 C 134.789062 195.277344 133.863281 192.691406 133.863281 189.429688 C 133.863281 186.242188 134.894531 183.28125 138.078125 183.28125 C 140.410156 183.28125 141.316406 184.816406 141.464844 186.011719 Z M 139.941406 186.011719 "/>
<path style=" stroke:none;fill-rule:nonzero;fill:rgb(13.72549%,28.235294%,54.117647%);fill-opacity:1;" d="M 25.019531 120.722656 C 27.734375 120.886719 29.242188 122.683594 29.113281 124.78125 C 29.050781 125.820312 28.503906 126.617188 27.917969 127.105469 L 27.019531 126.261719 C 27.46875 125.863281 27.792969 125.382812 27.835938 124.734375 C 27.914062 123.386719 26.835938 122.351562 24.972656 122.234375 C 23.082031 122.121094 21.882812 122.945312 21.800781 124.332031 C 21.753906 125.066406 22.058594 125.65625 22.542969 126.152344 L 21.570312 126.882812 C 20.832031 126.164062 20.460938 125.273438 20.523438 124.199219 C 20.652344 122.117188 22.277344 120.554688 25.019531 120.722656 "/>
<path style=" stroke:none;fill-rule:nonzero;fill:rgb(13.72549%,28.235294%,54.117647%);fill-opacity:1;" d="M 23.996094 128.933594 L 24.09375 132.84375 L 22.9375 132.871094 L 22.839844 128.960938 Z M 28.921875 129.917969 L 28.964844 131.644531 L 20.726562 134.558594 L 20.691406 133 L 25.078125 131.625 C 25.949219 131.339844 26.890625 131.070312 27.796875 130.804688 L 27.792969 130.753906 C 26.871094 130.546875 25.925781 130.328125 25.039062 130.085938 L 20.589844 128.921875 L 20.550781 127.417969 Z M 28.921875 129.917969 "/>
<path style=" stroke:none;fill-rule:nonzero;fill:rgb(13.72549%,28.235294%,54.117647%);fill-opacity:1;" d="M 25.296875 137.988281 C 25.414062 139.222656 25.960938 139.761719 26.976562 139.664062 C 28.003906 139.5625 28.289062 138.886719 28.171875 137.660156 L 28.070312 136.644531 L 25.191406 136.921875 Z M 29.105469 135.066406 L 29.355469 137.667969 C 29.53125 139.503906 29.027344 140.921875 27.117188 141.109375 C 25.273438 141.285156 24.304688 140.003906 24.132812 138.222656 L 24.019531 137.035156 L 20.984375 137.328125 L 20.839844 135.863281 Z M 29.105469 135.066406 "/>
<path style=" stroke:none;fill-rule:nonzero;fill:rgb(13.72549%,28.235294%,54.117647%);fill-opacity:1;" d="M 29.902344 142.222656 L 30.128906 143.679688 L 21.921875 144.9375 L 21.699219 143.480469 Z M 29.902344 142.222656 "/>
<path style=" stroke:none;fill-rule:nonzero;fill:rgb(13.72549%,28.235294%,54.117647%);fill-opacity:1;" d="M 29.5625 147.496094 L 29.070312 145.148438 L 30.285156 144.894531 L 31.5625 151.03125 L 30.347656 151.285156 L 29.859375 148.9375 L 22.941406 150.378906 L 22.640625 148.933594 Z M 29.5625 147.496094 "/>
<path style=" stroke:none;fill-rule:nonzero;fill:rgb(13.72549%,28.235294%,54.117647%);fill-opacity:1;" d="M 27.15625 153.488281 L 28.203125 157.253906 L 27.089844 157.5625 L 26.042969 153.796875 Z M 32.167969 153.242188 L 32.628906 154.90625 L 25.359375 159.734375 L 24.941406 158.230469 L 28.859375 155.832031 C 29.632812 155.34375 30.480469 154.855469 31.292969 154.375 L 31.28125 154.328125 C 30.332031 154.351562 29.363281 154.371094 28.449219 154.351562 L 23.851562 154.304688 L 23.449219 152.859375 Z M 32.167969 153.242188 "/>
<path style=" stroke:none;fill-rule:nonzero;fill:rgb(13.72549%,28.235294%,54.117647%);fill-opacity:1;" d="M 33.632812 158.207031 L 34.125 159.597656 L 27.460938 161.949219 L 28.605469 165.199219 L 27.4375 165.613281 L 25.800781 160.972656 Z M 33.632812 158.207031 "/>
<path style=" stroke:none;fill-rule:nonzero;fill:rgb(13.72549%,28.235294%,54.117647%);fill-opacity:1;" d="M 32.402344 168.195312 L 36.621094 166.210938 L 37.246094 167.542969 L 32.929688 169.574219 C 31.292969 170.339844 31.042969 171.203125 31.46875 172.117188 C 31.902344 173.035156 32.734375 173.417969 34.371094 172.648438 L 38.691406 170.617188 L 39.292969 171.902344 L 35.074219 173.882812 C 32.605469 175.042969 31.128906 174.402344 30.3125 172.660156 C 29.492188 170.917969 29.933594 169.351562 32.402344 168.195312 "/>
<path style=" stroke:none;fill-rule:nonzero;fill:rgb(13.72549%,28.235294%,54.117647%);fill-opacity:1;" d="M 40.128906 173.503906 L 40.886719 174.816406 L 38.128906 179.378906 L 37.023438 181.007812 L 37.046875 181.050781 C 37.757812 180.5625 38.609375 179.9375 39.410156 179.476562 L 42.53125 177.675781 L 43.234375 178.890625 L 36.039062 183.03125 L 35.28125 181.722656 L 38.046875 177.152344 L 39.148438 175.53125 L 39.121094 175.488281 C 38.394531 175.984375 37.585938 176.585938 36.785156 177.046875 L 33.636719 178.863281 L 32.9375 177.648438 Z M 40.128906 173.503906 "/>
<path style=" stroke:none;fill-rule:nonzero;fill:rgb(13.72549%,28.235294%,54.117647%);fill-opacity:1;" d="M 44.304688 180.492188 L 45.117188 181.71875 L 38.183594 186.292969 L 37.371094 185.0625 Z M 44.304688 180.492188 "/>
<path style=" stroke:none;fill-rule:nonzero;fill:rgb(13.72549%,28.235294%,54.117647%);fill-opacity:1;" d="M 45.542969 182.464844 L 46.46875 183.722656 L 43.796875 187.136719 C 43.199219 187.910156 42.652344 188.539062 42.054688 189.324219 L 42.085938 189.363281 C 43.011719 189.03125 43.78125 188.699219 44.695312 188.355469 L 48.738281 186.808594 L 49.628906 188.019531 L 41.421875 190.871094 L 40.386719 189.464844 Z M 45.542969 182.464844 "/>
<path style=" stroke:none;fill-rule:nonzero;fill:rgb(13.72549%,28.235294%,54.117647%);fill-opacity:1;" d="M 50.117188 188.558594 L 53.34375 192.378906 L 52.398438 193.175781 L 50.121094 190.484375 L 48.496094 191.859375 L 50.425781 194.140625 L 49.476562 194.941406 L 47.546875 192.660156 L 45.671875 194.25 L 48.03125 197.039062 L 47.082031 197.839844 L 43.773438 193.925781 Z M 50.117188 188.558594 "/>
<path style=" stroke:none;fill-rule:nonzero;fill:rgb(13.72549%,28.235294%,54.117647%);fill-opacity:1;" d="M 53.492188 198.167969 C 54.289062 198.980469 55.058594 199.09375 55.734375 198.433594 C 56.417969 197.765625 56.21875 197.089844 55.425781 196.277344 L 54.605469 195.4375 L 52.671875 197.328125 Z M 52.84375 198.625 L 54.21875 198.773438 L 52.796875 203.789062 L 51.640625 202.605469 Z M 54.417969 193.5625 L 56.375 195.5625 C 57.582031 196.796875 58.074219 198.175781 56.75 199.472656 C 55.472656 200.71875 53.964844 200.335938 52.753906 199.101562 L 51.828125 198.152344 L 49.507812 200.421875 L 48.476562 199.367188 Z M 54.417969 193.5625 "/>
<path style=" stroke:none;fill-rule:nonzero;fill:rgb(13.72549%,28.235294%,54.117647%);fill-opacity:1;" d="M 54.191406 203.625 L 55.503906 203.441406 C 55.574219 204.257812 55.914062 205.074219 56.492188 205.585938 C 57.191406 206.207031 57.855469 206.230469 58.285156 205.746094 C 58.742188 205.238281 58.484375 204.71875 58.132812 203.976562 L 57.613281 202.855469 C 57.226562 202.058594 57.015625 201 57.820312 200.09375 C 58.699219 199.105469 60.25 199.121094 61.460938 200.199219 C 62.1875 200.84375 62.621094 201.765625 62.671875 202.691406 L 61.484375 202.886719 C 61.386719 202.199219 61.140625 201.628906 60.609375 201.152344 C 60.023438 200.632812 59.394531 200.566406 58.992188 201.019531 C 58.558594 201.507812 58.871094 202.105469 59.195312 202.773438 L 59.722656 203.871094 C 60.1875 204.835938 60.289062 205.761719 59.488281 206.660156 C 58.59375 207.664062 57.011719 207.761719 55.621094 206.523438 C 54.78125 205.777344 54.265625 204.726562 54.191406 203.625 "/>
<path style=" stroke:none;fill-rule:nonzero;fill:rgb(13.72549%,28.235294%,54.117647%);fill-opacity:1;" d="M 64.546875 203.007812 L 65.695312 203.929688 L 60.511719 210.417969 L 59.359375 209.5 Z M 64.546875 203.007812 "/>
<path style=" stroke:none;fill-rule:nonzero;fill:rgb(13.72549%,28.235294%,54.117647%);fill-opacity:1;" d="M 67.863281 207.125 L 65.914062 205.730469 L 66.636719 204.722656 L 71.730469 208.371094 L 71.011719 209.378906 L 69.0625 207.984375 L 64.949219 213.726562 L 63.753906 212.867188 Z M 67.863281 207.125 "/>
<path style=" stroke:none;fill-rule:nonzero;fill:rgb(13.72549%,28.235294%,54.117647%);fill-opacity:1;" d="M 70.984375 214.042969 L 71.613281 208.296875 L 72.949219 209.128906 L 72.597656 211.40625 C 72.480469 212.058594 72.375 212.671875 72.261719 213.347656 L 72.304688 213.375 C 72.863281 212.972656 73.386719 212.625 73.917969 212.226562 L 75.804688 210.902344 L 77.105469 211.710938 L 72.234375 214.820312 L 70.605469 217.441406 L 69.355469 216.664062 Z M 70.984375 214.042969 "/>
<path style=" stroke:none;fill-rule:nonzero;fill:rgb(13.72549%,28.235294%,54.117647%);fill-opacity:1;" d="M 82.742188 219.242188 C 83.566406 217.570312 83.308594 216.1875 82.136719 215.613281 C 80.964844 215.035156 79.714844 215.675781 78.890625 217.347656 C 78.070312 219.019531 78.296875 220.457031 79.46875 221.035156 C 80.640625 221.609375 81.921875 220.914062 82.742188 219.242188 M 77.535156 216.679688 C 78.71875 214.269531 80.761719 213.507812 82.703125 214.464844 C 84.640625 215.417969 85.28125 217.507812 84.101562 219.910156 C 82.914062 222.316406 80.84375 223.136719 78.90625 222.183594 C 76.964844 221.230469 76.347656 219.085938 77.535156 216.679688 "/>
<path style=" stroke:none;fill-rule:nonzero;fill:rgb(13.72549%,28.235294%,54.117647%);fill-opacity:1;" d="M 87.238281 216.738281 L 91.898438 218.605469 L 91.4375 219.753906 L 88.144531 218.4375 L 87.269531 220.621094 L 90.070312 221.746094 L 89.609375 222.894531 L 86.808594 221.773438 L 85.515625 224.992188 L 84.148438 224.441406 Z M 87.238281 216.738281 "/>
<path style=" stroke:none;fill-rule:nonzero;fill:rgb(13.72549%,28.235294%,54.117647%);fill-opacity:1;" d="M 96.691406 224.425781 C 97.878906 224.777344 98.582031 224.46875 98.871094 223.488281 C 99.160156 222.5 98.640625 221.980469 97.453125 221.632812 L 96.476562 221.347656 L 95.660156 224.125 Z M 95.390625 219.800781 L 97.902344 220.539062 C 99.671875 221.054688 100.804688 222.054688 100.265625 223.894531 C 99.742188 225.671875 98.191406 226.09375 96.476562 225.59375 L 95.332031 225.257812 L 94.472656 228.1875 L 93.058594 227.773438 Z M 95.390625 219.800781 "/>
<path style=" stroke:none;fill-rule:nonzero;fill:rgb(13.72549%,28.235294%,54.117647%);fill-opacity:1;" d="M 102.261719 221.765625 L 103.703125 222.0625 L 103.023438 225.328125 L 106.308594 226.011719 L 106.984375 222.746094 L 108.425781 223.046875 L 106.738281 231.171875 L 105.296875 230.871094 L 106.046875 227.269531 L 102.761719 226.585938 L 102.011719 230.1875 L 100.570312 229.890625 Z M 102.261719 221.765625 "/>
<path style=" stroke:none;fill-rule:nonzero;fill:rgb(13.72549%,28.235294%,54.117647%);fill-opacity:1;" d="M 110.980469 228.671875 L 109.1875 223.175781 L 110.746094 223.382812 L 111.367188 225.605469 C 111.527344 226.25 111.683594 226.851562 111.859375 227.511719 L 111.910156 227.515625 C 112.25 226.925781 112.585938 226.386719 112.90625 225.808594 L 114.078125 223.824219 L 115.597656 224.023438 L 112.441406 228.863281 L 112.039062 231.925781 L 110.578125 231.730469 Z M 110.980469 228.671875 "/>
<path style=" stroke:none;fill-rule:nonzero;fill:rgb(13.72549%,28.235294%,54.117647%);fill-opacity:1;" d="M 115.125 231.230469 L 116.046875 230.28125 C 116.601562 230.882812 117.375 231.316406 118.144531 231.371094 C 119.074219 231.429688 119.617188 231.042969 119.660156 230.398438 C 119.707031 229.714844 119.183594 229.460938 118.453125 229.09375 L 117.355469 228.523438 C 116.5625 228.128906 115.746094 227.425781 115.828125 226.214844 C 115.914062 224.894531 117.148438 223.957031 118.765625 224.066406 C 119.734375 224.128906 120.644531 224.59375 121.25 225.292969 L 120.429688 226.175781 C 119.933594 225.691406 119.386719 225.390625 118.679688 225.34375 C 117.894531 225.289062 117.359375 225.625 117.316406 226.230469 C 117.273438 226.878906 117.890625 227.164062 118.554688 227.492188 L 119.640625 228.035156 C 120.601562 228.511719 121.25 229.179688 121.167969 230.378906 C 121.078125 231.722656 119.886719 232.769531 118.027344 232.644531 C 116.90625 232.570312 115.859375 232.058594 115.125 231.230469 "/>
<path style=" stroke:none;fill-rule:nonzero;fill:rgb(13.72549%,28.235294%,54.117647%);fill-opacity:1;" d="M 122.921875 224.398438 L 124.394531 224.421875 L 124.269531 232.730469 L 122.796875 232.703125 Z M 122.921875 224.398438 "/>
<path style=" stroke:none;fill-rule:nonzero;fill:rgb(13.72549%,28.235294%,54.117647%);fill-opacity:1;" d="M 126.070312 228.644531 C 125.964844 225.929688 127.601562 224.25 129.703125 224.164062 C 130.746094 224.125 131.589844 224.589844 132.136719 225.125 L 131.386719 226.105469 C 130.941406 225.695312 130.433594 225.417969 129.785156 225.445312 C 128.433594 225.496094 127.507812 226.675781 127.582031 228.539062 C 127.65625 230.433594 128.59375 231.546875 129.984375 231.492188 C 130.71875 231.460938 131.277344 231.101562 131.722656 230.570312 L 132.546875 231.464844 C 131.90625 232.269531 131.054688 232.730469 129.980469 232.773438 C 127.890625 232.855469 126.175781 231.390625 126.070312 228.644531 "/>
<path style=" stroke:none;fill-rule:nonzero;fill:rgb(13.72549%,28.235294%,54.117647%);fill-opacity:1;" d="M 134.46875 228.914062 L 138.355469 228.476562 L 138.484375 229.625 L 134.597656 230.0625 Z M 135.023438 223.925781 L 136.738281 223.730469 L 140.355469 231.679688 L 138.804688 231.851562 L 137.054688 227.605469 C 136.695312 226.761719 136.347656 225.847656 136.003906 224.96875 L 135.953125 224.972656 C 135.828125 225.914062 135.691406 226.875 135.527344 227.777344 L 134.753906 232.308594 L 133.261719 232.476562 Z M 135.023438 223.925781 "/>
<path style=" stroke:none;fill-rule:nonzero;fill:rgb(13.72549%,28.235294%,54.117647%);fill-opacity:1;" d="M 140.140625 223.273438 L 141.589844 223.011719 L 142.847656 229.964844 L 146.242188 229.351562 L 146.464844 230.570312 L 141.621094 231.445312 Z M 140.140625 223.273438 "/>
<path style=" stroke:none;fill-rule:nonzero;fill:rgb(13.72549%,28.235294%,54.117647%);fill-opacity:1;" d="M 148.59375 221.554688 L 153.40625 220.210938 L 153.742188 221.402344 L 150.347656 222.351562 L 150.917969 224.402344 L 153.792969 223.597656 L 154.125 224.792969 L 151.253906 225.59375 L 151.910156 227.960938 L 155.425781 226.980469 L 155.761719 228.171875 L 150.828125 229.550781 Z M 148.59375 221.554688 "/>
<path style=" stroke:none;fill-rule:nonzero;fill:rgb(13.72549%,28.235294%,54.117647%);fill-opacity:1;" d="M 159.339844 225.703125 C 160.914062 225.132812 161.492188 223.914062 160.796875 221.992188 C 160.105469 220.074219 158.902344 219.566406 157.332031 220.136719 L 156.722656 220.355469 L 158.734375 225.921875 Z M 154.933594 219.734375 L 157.015625 218.980469 C 159.40625 218.117188 161.289062 218.894531 162.222656 221.476562 C 163.15625 224.0625 162.230469 225.925781 159.910156 226.765625 L 157.753906 227.542969 Z M 154.933594 219.734375 "/>
<path style=" stroke:none;fill-rule:nonzero;fill:rgb(13.72549%,28.235294%,54.117647%);fill-opacity:1;" d="M 164.027344 221.320312 L 162.089844 217.082031 L 163.429688 216.46875 L 165.414062 220.808594 C 166.164062 222.453125 167.027344 222.714844 167.941406 222.296875 C 168.863281 221.871094 169.253906 221.042969 168.503906 219.398438 L 166.519531 215.054688 L 167.808594 214.46875 L 169.746094 218.707031 C 170.878906 221.1875 170.222656 222.660156 168.472656 223.457031 C 166.722656 224.257812 165.164062 223.800781 164.027344 221.320312 "/>
<path style=" stroke:none;fill-rule:nonzero;fill:rgb(13.72549%,28.235294%,54.117647%);fill-opacity:1;" d="M 171.074219 217.488281 C 169.75 215.113281 170.453125 212.875 172.289062 211.851562 C 173.199219 211.34375 174.164062 211.375 174.890625 211.605469 L 174.667969 212.820312 C 174.085938 212.652344 173.507812 212.640625 172.9375 212.957031 C 171.757812 213.613281 171.46875 215.082031 172.375 216.710938 C 173.296875 218.367188 174.636719 218.9375 175.851562 218.257812 C 176.496094 217.898438 176.824219 217.328125 176.984375 216.652344 L 178.121094 217.074219 C 177.914062 218.085938 177.363281 218.878906 176.425781 219.402344 C 174.601562 220.417969 172.410156 219.886719 171.074219 217.488281 "/>
<path style=" stroke:none;fill-rule:nonzero;fill:rgb(13.72549%,28.235294%,54.117647%);fill-opacity:1;" d="M 178.691406 213.933594 L 181.960938 211.789062 L 182.59375 212.753906 L 179.324219 214.898438 Z M 176.933594 209.230469 L 178.375 208.285156 L 185.191406 213.742188 L 183.886719 214.597656 L 180.40625 211.597656 C 179.703125 211.007812 178.984375 210.347656 178.277344 209.722656 L 178.234375 209.75 C 178.550781 210.640625 178.859375 211.5625 179.121094 212.441406 L 180.476562 216.832031 L 179.222656 217.65625 Z M 176.933594 209.230469 "/>
<path style=" stroke:none;fill-rule:nonzero;fill:rgb(13.72549%,28.235294%,54.117647%);fill-opacity:1;" d="M 182.71875 206.753906 L 180.800781 208.1875 L 180.058594 207.195312 L 185.074219 203.445312 L 185.816406 204.4375 L 183.898438 205.871094 L 188.128906 211.523438 L 186.945312 212.40625 Z M 182.71875 206.753906 "/>
<path style=" stroke:none;fill-rule:nonzero;fill:rgb(13.72549%,28.235294%,54.117647%);fill-opacity:1;" d="M 186.007812 202.628906 L 187.136719 201.6875 L 192.449219 208.0625 L 191.320312 209.003906 Z M 186.007812 202.628906 "/>
<path style=" stroke:none;fill-rule:nonzero;fill:rgb(13.72549%,28.235294%,54.117647%);fill-opacity:1;" d="M 195.355469 199.78125 C 194.078125 198.421875 192.695312 198.179688 191.742188 199.074219 C 190.792969 199.96875 190.953125 201.367188 192.230469 202.726562 C 193.507812 204.082031 194.941406 204.371094 195.890625 203.476562 C 196.839844 202.585938 196.636719 201.136719 195.355469 199.78125 M 191.128906 203.761719 C 189.285156 201.808594 189.292969 199.625 190.867188 198.144531 C 192.441406 196.660156 194.625 196.792969 196.460938 198.742188 C 198.300781 200.699219 198.339844 202.925781 196.765625 204.410156 C 195.191406 205.894531 192.96875 205.71875 191.128906 203.761719 "/>
<path style=" stroke:none;fill-rule:nonzero;fill:rgb(13.72549%,28.235294%,54.117647%);fill-opacity:1;" d="M 194.589844 194.722656 L 195.601562 193.59375 L 200.800781 194.789062 L 202.695312 195.332031 L 202.726562 195.296875 C 202.042969 194.773438 201.179688 194.160156 200.492188 193.542969 L 197.804688 191.136719 L 198.742188 190.089844 L 204.925781 195.632812 L 203.917969 196.761719 L 198.710938 195.5625 L 196.824219 195.023438 L 196.792969 195.0625 C 197.492188 195.597656 198.316406 196.175781 199.003906 196.792969 L 201.714844 199.222656 L 200.777344 200.265625 Z M 194.589844 194.722656 "/>
<path style=" stroke:none;fill-rule:nonzero;fill:rgb(13.72549%,28.235294%,54.117647%);fill-opacity:1;" d="M 205.707031 189.167969 L 208.007812 186.003906 L 208.941406 186.683594 L 206.640625 189.847656 Z M 202.398438 185.390625 L 203.410156 183.996094 L 211.71875 186.6875 L 210.800781 187.949219 L 206.484375 186.375 C 205.621094 186.070312 204.710938 185.710938 203.828125 185.371094 L 203.800781 185.414062 C 204.410156 186.140625 205.023438 186.890625 205.582031 187.621094 L 208.40625 191.246094 L 207.519531 192.464844 Z M 202.398438 185.390625 "/>
<path style=" stroke:none;fill-rule:nonzero;fill:rgb(13.72549%,28.235294%,54.117647%);fill-opacity:1;" d="M 205.367188 181.21875 L 206.15625 179.929688 L 211.484375 180.171875 L 213.445312 180.367188 L 213.472656 180.328125 C 212.703125 179.9375 211.746094 179.484375 210.957031 179.003906 L 207.886719 177.113281 L 208.621094 175.917969 L 215.695312 180.265625 L 214.90625 181.558594 L 209.570312 181.308594 L 207.613281 181.117188 L 207.589844 181.160156 C 208.375 181.558594 209.289062 181.984375 210.074219 182.46875 L 213.175781 184.371094 L 212.441406 185.566406 Z M 205.367188 181.21875 "/>
<path style=" stroke:none;fill-rule:nonzero;fill:rgb(13.72549%,28.235294%,54.117647%);fill-opacity:1;" d="M 216.828125 175.617188 C 217.582031 174.125 217.167969 172.839844 215.347656 171.914062 C 213.527344 170.992188 212.304688 171.449219 211.546875 172.941406 L 211.257812 173.515625 L 216.535156 176.191406 Z M 209.527344 174.292969 L 210.527344 172.316406 C 211.675781 170.042969 213.582031 169.324219 216.03125 170.566406 C 218.484375 171.808594 219.085938 173.800781 217.96875 176 L 216.933594 178.042969 Z M 209.527344 174.292969 "/>
<path style=" stroke:none;fill-rule:nonzero;fill:rgb(13.72549%,28.235294%,54.117647%);fill-opacity:1;" d="M 220.453125 168.25 L 219.816406 167.085938 C 220.558594 166.738281 221.199219 166.128906 221.476562 165.410156 C 221.8125 164.535156 221.601562 163.90625 220.996094 163.671875 C 220.359375 163.429688 219.964844 163.847656 219.394531 164.4375 L 218.527344 165.320312 C 217.917969 165.960938 217.003906 166.53125 215.871094 166.09375 C 214.636719 165.621094 214.105469 164.164062 214.6875 162.652344 C 215.039062 161.746094 215.75 161.015625 216.59375 160.644531 L 217.195312 161.6875 C 216.585938 162.019531 216.136719 162.449219 215.882812 163.113281 C 215.597656 163.847656 215.757812 164.457031 216.324219 164.675781 C 216.933594 164.910156 217.386719 164.40625 217.894531 163.867188 L 218.738281 162.992188 C 219.476562 162.21875 220.304688 161.796875 221.429688 162.230469 C 222.683594 162.714844 223.328125 164.160156 222.660156 165.898438 C 222.257812 166.945312 221.457031 167.792969 220.453125 168.25 "/>
<path style=" stroke:none;fill-rule:nonzero;fill:rgb(13.72549%,28.235294%,54.117647%);fill-opacity:1;" d="M 220.886719 157.613281 C 221.246094 156.425781 220.949219 155.71875 219.972656 155.421875 C 218.984375 155.121094 218.464844 155.636719 218.105469 156.816406 L 217.808594 157.792969 L 220.574219 158.636719 Z M 216.25 158.859375 L 217.011719 156.359375 C 217.550781 154.59375 218.558594 153.476562 220.394531 154.035156 C 222.164062 154.570312 222.570312 156.128906 222.050781 157.835938 L 221.703125 158.980469 L 224.621094 159.867188 L 224.191406 161.273438 Z M 216.25 158.859375 "/>
<path style=" stroke:none;fill-rule:nonzero;fill:rgb(13.72549%,28.235294%,54.117647%);fill-opacity:1;" d="M 223.4375 147.648438 C 221.617188 147.25 220.335938 147.835938 220.058594 149.109375 C 219.78125 150.382812 220.703125 151.449219 222.523438 151.84375 C 224.347656 152.242188 225.691406 151.671875 225.96875 150.394531 C 226.246094 149.121094 225.257812 148.042969 223.4375 147.648438 M 222.203125 153.324219 C 219.578125 152.75 218.347656 150.949219 218.808594 148.835938 C 219.269531 146.722656 221.140625 145.597656 223.757812 146.167969 C 226.386719 146.738281 227.679688 148.554688 227.21875 150.667969 C 226.757812 152.78125 224.828125 153.894531 222.203125 153.324219 "/>
<path style=" stroke:none;fill-rule:nonzero;fill:rgb(13.72549%,28.235294%,54.117647%);fill-opacity:1;" d="M 224.902344 142.007812 L 224.175781 140.835938 L 228.992188 138.863281 L 228.773438 140.503906 Z M 224.140625 141.78125 C 224.292969 140.652344 223.90625 139.976562 222.972656 139.851562 C 222.027344 139.726562 221.617188 140.296875 221.464844 141.421875 L 221.308594 142.585938 L 223.984375 142.941406 Z M 219.945312 143.886719 L 220.316406 141.113281 C 220.546875 139.402344 221.328125 138.167969 223.164062 138.410156 C 224.933594 138.648438 225.558594 140.074219 225.328125 141.785156 L 225.15625 143.097656 L 228.371094 143.53125 L 228.171875 144.988281 Z M 219.945312 143.886719 "/>
<path style=" stroke:none;fill-rule:nonzero;fill:rgb(13.72549%,28.235294%,54.117647%);fill-opacity:1;" d="M 222.164062 135.242188 L 222.011719 137.636719 L 220.773438 137.554688 L 221.171875 131.300781 L 222.410156 131.382812 L 222.257812 133.773438 L 229.308594 134.222656 L 229.214844 135.695312 Z M 222.164062 135.242188 "/>
<path style=" stroke:none;fill-rule:nonzero;fill:rgb(13.72549%,28.235294%,54.117647%);fill-opacity:1;" d="M 228.410156 131.144531 L 227.402344 130.285156 C 227.96875 129.691406 228.347656 128.894531 228.347656 128.125 C 228.347656 127.1875 227.921875 126.675781 227.277344 126.675781 C 226.59375 126.679688 226.375 127.214844 226.054688 127.964844 L 225.5625 129.101562 C 225.222656 129.917969 224.574219 130.78125 223.363281 130.78125 C 222.039062 130.78125 221.019531 129.613281 221.019531 127.992188 C 221.019531 127.023438 221.421875 126.085938 222.078125 125.433594 L 223.011719 126.191406 C 222.5625 126.71875 222.300781 127.28125 222.300781 127.992188 C 222.300781 128.78125 222.667969 129.292969 223.273438 129.292969 C 223.929688 129.292969 224.167969 128.660156 224.449219 127.972656 L 224.921875 126.851562 C 225.332031 125.867188 225.957031 125.175781 227.160156 125.171875 C 228.503906 125.171875 229.628906 126.289062 229.628906 128.152344 C 229.628906 129.277344 229.183594 130.355469 228.410156 131.144531 "/>
</g>
</svg>
