<svg height="316.227766" viewBox="0 0 252 252" width="316.227766" xmlns="http://www.w3.org/2000/svg"><g fill="#9c1d22"><path d="m175.636719 216.585938c1.707031.019531 3.085937-1.339844 3.085937-3.03125.03125-1.675782-1.328125-3.019532-3.019531-3.019532-1.707031-.050781-3 1.261719-3.050781 2.953125 0 1.671875 1.261718 3.082031 2.984375 3.097657"/><path d="m74.902344 215.261719c1.707031.03125 3.101562-1.328125 3.101562-3.050781.050782-1.660157-1.34375-3-3.015625-3.035157-1.691406-.015625-3.019531 1.308594-3.035156 2.953125-.035156 1.722656 1.242187 3.132813 2.949219 3.132813"/><path d="m128.023438.28125-6.25.132812c-12.832032.695313-24.488282 2.902344-36.738282 6.8125-.019531.066407-.066406.085938-.066406.085938-5.636719 2.121094-11.210938 4.542969-16.648438 7.292969-12.25 6.75-23.160156 15.019531-33.355468 25.398437-8.273438 9.1875-14.804688 18.585938-20.625 29.742188-4.410156 9.167968-7.660156 18.304687-10.226563 28.832031-.019531.015625-.019531.050781-.019531.132813-2.019531 10.097656-2.917969 20.390624-2.765625 31.351562v.082031c.726563 12.484375 2.882813 24.039063 6.878906 36.425781 0 .066407.015625.113282.015625.113282 1.988282 5.171875 4.292969 10.445312 7.296875 16.679687 0 .050781.015625.082031.066407.117188 6.777343 12.265625 14.917968 22.878906 25.511718 33.222656 9.136719 8.257813 18.503906 14.804687 29.578125 20.609375.035157.03125.066407.066406.101563.066406 9.664062 4.542969 18.847656 7.722656 28.863281 10.0625 10.113281 2.105469 20.324219 3.066406 31.367187 2.917969 8.140626-.515625 15.980469-1.558594 24.882813-3.367187.035156-.066407.085937-.066407.152344-.066407 14.039062-3.777343 26.34375-9.152343 38.710937-16.925781 8.289063-5.671875 15.75-11.988281 22.960938-19.414062 8.339844-9.152344 14.871094-18.550782 20.640625-29.660157 4.558593-9.597656 7.757812-18.75 10.097656-28.78125 2.136719-10.230469 3.066406-20.175781 2.917969-31.449219-.546875-9.832031-2.140625-19.582031-5.058594-30.855468-.03125-.046875-.03125-.113282-.03125-.113282-3.746094-11.820312-8.769531-22.546874-15.269531-32.777343-9.25-13.546875-20.128907-24.753907-33.441407-34.386719-10.195312-6.863281-20.753906-12.152344-32.394531-16.179688 0 0-.082031-.050781-.082031-.050781-11.242188-3.214843-20.691406-5.003906-30.6875-5.734375-.015625 0-6.25-.316406-6.25-.316406zm.015624 5.074219c.183594 0 5.902344.25 6.019532.25 9.566406.710937 18.734375 2.46875 29.574218 5.570312 11.140626 3.894531 21.320313 8.917969 31.085938 15.5 12.71875 9.21875 23.210938 20.058594 32.113281 33.058594 6.25 9.8125 11.042969 20.042969 14.640625 31.433594 2.867188 10.925781 4.394532 20.375 4.855469 29.726562.085937 1.507813.085937 3.015625.050781 4.507813-.148437 8.988281-1.027344 17.292968-2.785156 25.699218-2.289062 9.613282-5.335938 18.367188-9.730469 27.554688-5.539062 10.660156-11.820312 19.675781-19.78125 28.496094-6.910156 7.148437-14.15625 13.214844-22.046875 18.703125-11.839844 7.425781-23.691406 12.597656-37.238281 16.214843-8.605469 1.789063-16.214844 2.867188-23.921875 3.296876-10.578125.167968-20.441406-.777344-30.140625-2.785157-9.582031-2.253906-18.4375-5.320312-27.753906-9.699219-10.628907-5.585937-19.695313-11.886718-28.449219-19.792968-10.164062-9.964844-17.957031-20.128906-24.503906-31.964844-2.917969-6.035156-5.15625-11.125-7.0625-16.113281-3.828125-11.90625-5.933594-23.046875-6.613282-35.050781-.019531-1.441407-.035156-2.949219-.019531-4.390626.117188-8.9375 1.027344-17.410156 2.703125-25.832031 2.46875-10.113281 5.605469-18.949219 9.816406-27.703125 5.535157-10.660156 11.851563-19.730468 19.777344-28.433594 9.898438-10.144531 20.109375-17.9375 32.03125-24.519531 5.1875-2.667969 10.578125-5.007812 15.980469-7.046875 11.839844-3.796875 23.0625-5.917968 35.3125-6.613281.050781.015625 5.6875-.066406 6.085937-.066406"/><path d="m86.558594 37.585938c-.148438-.152344-.265625-.265626-.449219-.285157-.066406 0-.132813 0-.214844 0-.746093.019531-.761719.152344-1.425781.53125 0 0-1.292969.464844-1.605469.566407-.050781.015624-.101562.03125-.132812.066406-.265625.179687-.582031.3125-.78125.429687-.363281.214844-.84375.546875-1.242188.679688-.117187.082031-.25.148437-.347656.230469-.019531 0-.265625.21875-.265625.21875l-.015625.015624c-.035156.015626-.066406.050782-.101563.082032-.332031.214844-.679687.429687-1.011718.648437-.03125.015625-.066406.0625-.066406.097657 0 .03125-.015626.066406-.03125.066406-.167969.214844-.546876-.398438-.582032-.8125-.117187-.464844.730469-1.394532.878906-1.824219.066407-.199219-.097656-.613281-.148437-.761719-.015625-.035156-.035156-.050781-.050781-.082031-.28125-.382813-1.042969-.765625-1.042969-.78125.230469-.179687.480469-.695313.496094-.960937-.015625-.132813-.050781-.28125-.066407-.414063.050782-.347656.117188-.679687.199219-1.042969-.015625-.664062-.230469-1.359375-.382812-2.039062-.082031-.398438-.113281-.847656-.3125-1.210938-.234375-.480468-.78125-1.160156-1.195313-1.378906-.199218-.097656-.464844-.082031-.710937-.097656-.398438-.015625-.699219-.035156-1.0625.117187-.28125.148438-.597657-.035156-.878907.28125-.25.179688-.5625.347657-.730468.578125-.179688.132813-.347656.449219-.394532.664063-.019531.015625-.035156.035156-.050781.050781-.167969-.214844-.695312-.796875-.730469-1.027344-.082031-.894531 1.277344-1.957031.546876-2.851562-.230469-.28125-.628907-.398438-.960938-.433594-.296875 0-.746094.035156-.960938.265625-.582031.464844-.8125-.511719-1.160156-.859375-.25-.316406-.863281-.234375-1.210937-.035156-.066407.035156-.117188.101562-.148438.167968-.199219.578126.046875 1.273438.082031 1.871094v.78125c0 .066406-.035156.132813-.082031.179688-.085937.082031-.167969.199218-.199219.234375-.199218.148437-.300781.546875-.398437.761719-.167969.164062-.316406.316406-.480469.480468-.433594.332032-.863281.679688-1.308594 1.027344-.066406.035156-.332031.300781-.351562.300781-.164062.132813-.445312.480469-.480469.527344 0 0-.347656.632813-.429687.863281-.015625.066406-.296875.910156-.382813 1.160156-.015625.035157-.03125.050782-.046875.082032-.234375.300781-.132812.878906-.019531 1.144531 0 .015625 0 .015625-.015625.035156-.117188.132813.300781.660157.414062.679688.167969.03125.632813-.050781.695313-.066407.132813-.050781.300781-.183593.449219-.300781.148437-.113281.316406-.246093.464844-.378906.015624-.019531.03125-.035156.050781-.050781.214843-.363282.199219-.8125.398437-1.195313.179688-.246093.363282-.511719.527344-.792969.199219-.214843.515625-.414062.582031-.699218 0-.015625 0-.066406.015625-.097656.101563-.25.53125-.296876.730469.117187 0 0-.167969 1.125-.183594 1.242187-.015625.015626-.398437 1.042969-.398437 1.078126-.894532.695312-.378906 2.089843.117187 2.867187.050781.101563.25.398437.296875.464844.382813.480469.746094.960937 1.144532 1.457031.082031.117188.183593.234375.28125.351562.152343.230469.300781.445313.480468.679688.117188.296875.167969.613281.316406.925781.332032.679688.761719 1.210938 1.226563 1.839844.265625.351563.582031.796875.980469.980469.429687.179687.945312.097656 1.359375.066406.164062.015625.296875.066406.445312.066406.265625.015625 1.0625-.167968 1.292969-.28125.414062-.152344.980469 2.238282.980469 2.238282.015625.097656.03125.195312.046875.296874.234375.796876-.015625 1.476563-.132813 2.253907 0 .234375 0 .433593.019531.648437-.132812 1.042969-.316406 2.070313.03125 3.03125-.03125.035156.382813.796875.679688.929688.050781.035156.148438.082031.183594.082031.398437 0 1.078125.25 1.609375-.214844.460937-.429687.179687-2.554687.132812-3.167969.015625-.195312.015625-.394531.046875-.59375 0-.21875.066406-.78125.050782-.8125 0-.019531-.050782-.597656-.082032-.894531-.015625-.085937-.035156-.152343-.050781-.234375-.117187-.398437-.097656-2.15625.082031-2.289062.183594-.113282.8125.664062.960938.964844.035156.046874.050781.097656.085937.148437.363281.480469.679688.960937 1.175781 1.277344.03125.015625.082032.046875.097657.066406.316406.164063.597656.261719.945312.261719.398438-.046875.714844-.414063.746094-.445313 1.277344-.929687-.746094-2.503906-1.425781-3.332031-.460938-.546875-.828125-1.261719-1.242188-1.859375.066406-.097656.101563-.199219.167969-.28125.246094-.214844.859375-.613281 1.175781-.710937.132813 0 .265625 0 .414063.015624.265625-.015624.578125-.183593.796875-.332031.347656-.28125.726562-.414062 1.09375-.695312.199218-.199219.398437-.382813.597656-.597657.363281-.28125.746094-.578124 1.109375-.863281.28125-.214843.613281-.3125.8125-.613281.25-.398438.230469-1.160156-.132813-1.507812-.101562.035156-.148437.015624-.199218-.03125m-11.855469-3.78125c-.097656-.117188-.199219-.265626-.28125-.363282-.082031-.417968.101563-.664062.398437-.929687.015626 0 .363282-.265625.382813-.265625.332031-.117188.644531.050781.878906.316406.179688.214844.28125.429688.347657.644531.015624.167969.015624.332031.015624.480469.066407.265625.164063.515625.230469.78125.019531.132812.019531.265625.035157.398438.066406.28125.230468.59375.164062.894531-.03125.132812-.265625.28125-.265625.28125-.644531-.78125-1.359375-1.410157-1.90625-2.238281m.152344 8.191406c-.101563.132812-.21875.261718-.316407.414062-.449218.347656-1.65625-.714844-2.238281-1.625 0 0-.082031-.132812-.082031-.167968.164062-.132813.398438-.332032.496094-.578126 0-.015624.015625-.050781.035156-.066406.046875-.132812.347656-.25.363281-.464844.097657-.066406.214844-.101562.316407-.164062.015624.015625.03125.046875.046874.0625-.097656.085938-.332031.234375-.066406.285156.152344.046875.285156-.101562.433594-.117187.265625-.214844.710938.066406.992188.164062.050781.019531.101562.050781.117187.101563.515625.796875-.015625 1.988281-.097656 2.15625m-1.261719-4.195313c-.132812.097657-.164062.246094-.230469.378907-.035156.019531-.117187.085937-.117187.101562-.050782.03125-.066406.097656-.082032.164062-.019531.117188-.050781.214844-.117187.316407-.164063.25-.28125.679687-.265625.695312-.117188.035157-.230469.082031-.347656.132813-.066406-.015625-.214844-.050782-.230469-.03125-.117187.082031-.316406.148437-.449219.199218-.066406.015626-.148437 0-.183594-.066406-.265624-.53125-.164062-1.773437.117188-2.421875.066406-.132812.164062-.25.265625-.316406.066406-.046875.132813-.097656.183594-.164063.097656-.117187.195312-.234374.296875-.347656.03125-.035156.066406-.050781.097656-.066406.050781-.015625.101562-.035156.152344-.050781.082031-.03125.164062 0 .214844.066406.117187.148437.230468.28125.347656.429687.28125.316407.429687.597657.347656.980469m-2.519531-4.359375c.03125.132813 0 .246094 0 .363282.03125.082031.066406.164062.097656.265624.019531.183594-.164063.347657-.265625.496094-.082031.132813-.195312.25-.28125.382813-.199219.164062-.296875.429687-.429688.628906-.050781.050781-.097656.117187-.132812.148437-.214844.167969-.414062.265626-.628906-.015624-.066406-.117188-.132813-.230469-.132813-.265626-.101562-.480468 0-1.457031.28125-1.988281.082031-.148437.117188-.332031.117188-.5.015625-.378906.199219-.992187.199219-1.007812.113281.082031.28125.230469.296874.394531 0 0 .03125.050781.050782.066406.265625.300782.710937.648438.828125 1.03125"/><path d="m117.5625 24.222656c-.332031-.117187-.863281-.015625-1.179688.179688-.3125.085937-.945312.582031-.976562.617187-.265625.195313-.546875.414063-.8125.628907-.035156.015624-.066406.03125-.097656.03125-.019532 0-.050782.019531-.066406.035156-.332032.113281-.53125.53125-.847657.664062-.148437.066406-.511719.148438-.644531.082032-.199219-.082032-.367188-.8125-.351562-1.011719.066406-.082031.117187-.183594.167968-.265625.183594-.164063.644532-.480469.828125-.695313.332031-.347656.878907-.699219 1.226563-1.128906.265625-.363281.28125-.777344.546875-1.175781.101562-.132813.265625-.183594.382812-.316406.214844-.199219.363281-.546876.429688-.828126v-.015624c-.082031-.347657-1.027344-1.578126-1.34375-1.660157-.230469-.066406-.546875.050781-.8125.117188-.113281.03125-.363281.117187-.445313.148437-.015625 0-.035156.015625-.066406.015625-.132812.035157-.316406.035157-.414062.085938-.050782.015625-.082032.046875-.117188.082031-.015625.015625-.050781.03125-.066406.050781-.148438.097657-.28125.195313-.429688.296875-.214844.214844-.382812.496094-.632812.679688-.296875.082031-.328125.03125-.429688-.25-.015625-.03125-.03125-.046875-.050781-.066406-.03125-.082032-.082031-.148438-.097656-.230469-.035157-.082031-.066407-.296875-.066407-.429688 0-.085937-.015624-.167969-.050781-.25-.03125-.066406-.050781-.132812-.050781-.132812-.066406-.28125.484375-.929688.714844-1.011719.28125-.148438.878906-.097656.996094-.414062.03125-.082032.097656-.148438.164062-.214844.265625-.25.429688-.914063.332031-1.144532-.214843-.480468-.960937-.496093-1.394531-.296874-.066406.03125-.132812.066406-.199219.097656-.0625.03125-.113281.082031-.179687.117187-.265625.097657-.515625.164063-.761719.246094-.019531.019531-.066406.035156-.101563.050781-.03125.015625-.066406.015625-.082031.050782-.132812.03125-.234375.03125-.332031-.066407-.050781-.035156-.066406-.082031-.117188-.132812-.046874-.183594-.164062-.382813-.246093-.582031-.101563-.363282.03125-.859376.296875-1.109376 0 0 .449218-.132812.515625-.132812v.035156c-.066407.097656-.117188.195313-.183594.296875v.015625c.5625-.148437.8125-.53125 1.175781-.894531.234375-.214844.613282-.28125.464844-.695313-.066406-.199218-.25-.214843-.414062-.28125-.597657-.25-1.042969-.367187-1.742188-.234374-.066406.035156-.246094.117187-.265625.132812-.113281.082031-.246094.148438-.378906.234375-.066407.03125-.117188.082031-.167969.148437-.015625.015626-.015625.03125-.03125.03125-.082031.101563-.183594.183594-.28125.265626-.066406.035156-.117188.082031-.183594.132812-.03125.035156-.082031.066406-.117187.101562-.414063.429688-.660157.792969-1.207031 1.109376-.050782.015624-.101563.03125-.152344.066406-.097656.050781-.214844.082031-.3125.132812-.117188.03125-.21875.050782-.332032.097656-.050781.019532-.265624.101563-.28125.101563-.085937.015625-.183593.03125-.285156.066406 0 0-.015625.015625-.015625.015625-.199219.015625-.363281-.097656-.414062-.214844-.015625-.050781.035156-.066406.035156-.082031.015625-.066406-.035156-.085937-.066406-.132812-.234375-.199219-1.128907-.199219-1.410157-.035157-.183593.050782-.300781.132813-.429687.214844-.285156.066406-.433594.515625-.632813.730469 0 0-.046874.117187-.03125.167969.015626.414062.148438.445312.265626.445312.132812 0 .265624.050782.378906.117188.234375.164062.945312.347656 1.078125.347656.015625 0 .050781-.015625.050781-.015625.25-.066406.53125-.085937.761719-.199219.414062-.101562.695312-.433594 1.046875-.613281.164062-.066406.347656-.132813.527344-.199219.132812-.117187.28125-.234375.414062-.347656.101562-.085938.21875-.152344.351562-.183594l.132813-.035156c.046875-.015625.082031-.03125.113281-.046875.101563-.066406.199219-.148437.316406-.148437.03125 0 .082032.015624.097657.046874.085937.101563.300781.347657.347656.664063 0 .015625-.015625.035156-.015625.035156-.050781.28125-.199219.695313-.296875.960938-.035156.097656-.066406.199219-.066406.296875-.015625.117187-.035157.214844-.035157.332031-.046874.050781-.082031.117187-.148437.148437-.097656.035157-.347656.132813-.445313.167969-.117187 0-.152343.015625-.183593.03125-.148438.066407-.28125.132813-.414063.183594-.015625 0-.082031.03125-.132812.066406-.066406.03125-.132813.082031-.199219.097657-.101563.035156-.214844.066406-.316406.117187 0 0-.230469.148437-.347657.199219-.03125.015625-.082031.03125-.117187.066406-.066406.050781-.132813.097656-.199219.132812-.230468.066407-.347656 0-.5625.015626-.613281.035156-1.09375.265624-1.507812.597656-.164063.132812-.53125.695312-.84375.828125-.035156.015625-.066406.082031-.101563.117187-.214843.246094-.148437.496094-.015625.710938.066406.101562.164063.167968.265625.183594.398438.050781.859375.695312 1.523438.496093.414062-.097656.628906-.480469.960937-.660156.414063-.21875.8125-.433594 1.210938-.648437.53125-.316407 1.046875-.695313 1.625-.910157.148437.578125-.429688.992188-.796875 1.375-.03125.03125-.066407.066407-.097657.097657-.132812.085937-.429687.316406-.464843.367187-.148438.164063-.28125.363281-.414063.5625-.199218.316406-.429687.597656-.714844.828125-.148437.132812-.28125.25-.429687.382812-.066406.066407-.132813.132813-.199219.214844-.183594.25-.414062.597656-.429687.613282-.050781.082031-.183594.265624-.234375.332031-.113282.066406-.230469.117187-.363282.164062-1.0625.265625-.976562.765625-1.441406 1.511719-.101562.113281-.199218.230469-.28125.347656-.050781.066406-.066406.164063-.050781.246094.316406.980469 1.042969.898438 1.9375.515625.035156-.015625.050781-.035156.085937-.050781.097657-.066406.3125-.214844.445313-.28125.234375-.164063.480469-.316406.730469-.464844.648437-.28125 1.328125-.378906 1.875-.746094.628906-.398437 1.027344-1.09375 1.707031-1.425781.03125-.03125.398437-.148437.414063-.164063.117187.414063.066406.878907.117187 1.277344.03125.496094.378906.910156-.019531 1.308594-.113282.117188-.246094.214844-.363282.332031-.449218.511719-1.144531 1.058594-1.742187 1.410157-.429687.230468-.878906.394531-1.226563.695312-.066406.046875-.132812.097656-.214843.148438-.25.132812-.597657.429687-.628907.449218-.066406.03125-.132812.066406-.199218.113282-.132813.082031-.265625.167968-.398438.234374-.03125.015626-.050781.03125-.066406.03125-.097656.050782-.429688.234376-.613281.300782-.03125.015625-.066407.03125-.097657.046875-.117187.066406-.433593.214843-.464843.25 0 0-.632813.296875-.699219.316406-.066406.03125-.128906.046875-.195312.066406-.050782.03125-.101563.03125-.167969.066407-.183594.132812-.347657.261718-.53125.394531-.03125.035156-.066407.066406-.097657.101562-.066406.097657-.167968.230469-.25.332031-.066406.097657-.097656.214844-.066406.332032.035156.132812 0 .164062-.050781.296875-.015625.066406-.03125.132812-.03125.199219v.183593c0 .082031.015625.179688.066406.265625.214844.296875.710938.460938 1.027344.496094.296875.015625.664063.117188.976563.03125.398437-.097656.632812-.394531.929687-.613281.148437-.113281.28125-.230469.429687-.363281.050782-.035157.085938-.066407.132813-.097657.152344-.066406.300781-.152343.449219-.21875.363281-.28125 1.292968-.828125 1.375-.859375.066406-.035156 1.277344-.78125 1.328125-.832031.015625-.015625.445312-.328125.664062-.445313.199219-.101562.394531-.050781.613281-.117187.28125-.097656 1.027344-.664063 1.242188-.347656.066406.082031.117188.230469.066406.347656-.117187.316406-.546875.5625-.796875.761719-.199219.21875-.398437.433594-.613281.632812-.132812.132813-.265625.246094-.378906.363282-.167969.148437-.351563.25-.546875.347656-.019531 0-.035157.015625-.050781.035156-.066407.046875-.148438.082031-.234376.097656-.445312.101563-.992187.214844-1.292968.464844h-.015625c-.316407.117188-.199219.496094-.316407.710938-.199218.367187-.710937.632812-.695312 1.144531.035156.433593.433594.746093.78125.929687.265625.132813.445312.449219.777344.53125.382812.097656.628906-.101562.929687-.300781.296875-.148437.597657-.296875.894531-.445313.164063-.132812.296876-.25.449219-.382812.394531-.246094 1.457031-.8125 1.953125-.746094v.132813c.019532.035156.019532.082031.035156.132812.082032.28125 0 .761719-.015624.761719-.085938.117188-.199219.234375-.21875.367188-.03125.246093-.113282.644531-.164063 1.078124 0 .164063-.015625.230469-.015625.480469 0 .164063.082031 1.027344.097656 1.257813 0 .082031.015625.117187.035156.199218v.101563c-.082031.230469 0 .792969.214844.910156.050782.035157.132813.082031.214844.148438.015625.015625.050781.015625.082031.035156.183594.015625.316407-.019531.53125-.019531.035157 0 .117188 0 .183594.019531.230469.03125.429687.03125.679687-.167969.148438-.113281.199219-.296875.265626-.445312.082031-.132813.164062-.28125.246093-.433594.167969-.445312.132813-.945312.199219-1.425781.050781-.296875.183594-.613281.152344-.925781-.019532-.132813-.019532-.25 0-.382813.03125-.316406.082031-.628906.113281-.945313.050781-.679687-.332031-1.890624.082031-2.421874.367188-.480469 1.460938-.578126 2.039063-.859376.464843-.234374.765625-.582031 1.164062-.8125.246094-.132812 1.007813-.433593 1.027344-.730468-.050781-.164063-.117187-.347656-.183594-.53125-.132812-.414063-.382812-.710938-.8125-.878906-.132812-.046876-.28125-.082032-.414062-.015626-.015625 0-.015625.015626-.035157.035157-.03125.03125-.066406.066406-.097656.097656-.082031.066406-.28125.230469-.53125.347656-.015625 0-.015625 0-.03125.015625l-.199218.050782c-.015626 0-.015626 0-.035157 0-.097656.015624-.199219.035156-.296875.050781-.148437.015625-.28125.015625-.414062-.015625-.132813-.035156-.265625-.085938-.382813-.117188-.332031-.082031-.695312-.148437-1.027343-.214844-.230469-.035156-.414063-.085937-.644532-.117187-.019531 0-.21875-.03125-.199218-.148437 0-.082032.746093-.648438.992187-.8125.035156-.035157.066406-.066407.101563-.101563.082031-.148437.199218-.265625.347656-.347656.132812-.082031.28125-.164063.414062-.230469.695313-.332031 2.585938-1.261719 2.867188-1.921875.015625-.25.050781-.5.066406-.746094-.050781-.183593-.664062-.765625-.84375-.796875m-5.15625-.746094c.015625-.082031.066406-.132812.113281-.25.101563-.25.117188-.332031.265625-.429687.050782-.035156.117188-.050781.183594-.066406.296875-.015625.449219-.082031.5625.246093.019531.035157-.03125.085938-.015625.132813v.117187c-.03125.199219-.230469.679688-.347656.796876-.117188.117187-.265625.378906-.382813.511718-.015625.035156-.066406.019532-.082031-.015625-.03125-.082031-.082031-.164062-.117187-.246093 0-.019532-.015626-.035157-.015626-.050782-.050781-.183594-.097656-.367187-.132812-.53125.015625-.035156-.046875-.132812-.03125-.214844m-3.21875-1.34375c-.046875.164063-.164062.28125-.265625.363282-.03125.035156-.066406.050781-.097656.050781-.347657.082031-.714844.101563-.53125-.363281.117187-.265625.367187-.449219.648437-.664063.015625-.015625.046875-.066406.082032-.066406.082031-.015625.183593-.050781.214843.015625 0 .015625.066407.25-.050781.664062m4.890625 8.6875c-.164063-.347656.464844-.546874.464844-.546874.515625.050781.132812.578124-.148438.679687.035157.082031-.296875-.101563-.316406-.132813"/><path d="m190.292969 42.292969c-.015625-.230469.015625-.582031-.097657-.8125-.167968-.347657-.664062-.796875-1.0625-.910157-.164062-.066406-.316406-.152343-.464843-.199218-.082031-.035156-.796875-.316406-.863281-.347656-.03125-.035157-.347657-.085938-.460938-.101563-.085938-.015625-.898438-.28125-1.210938-.316406-.082031-.015625-.167968-.046875-.234374-.082031-.265626-.164063-.5625-.347657-.746094-.480469-.066406-.050781-.113282-.097657-.179688-.132813-.316406-.132812-.632812-.265625-.945312-.398437-.019532 0-.132813-.082031-.148438-.097657-.050781-.035156-.351562-.234374-.464844-.265624-.183593-.050782-.382812-.132813-.546874-.199219 0 0-.648438-.230469-.699219-.25-.179688-.113281-.992188-.363281-.992188-.378907-.019531 0-.546875-.132812-.765625-.199218-.261718-.117188-.429687-.265625-.695312-.28125-.015625 0-.496094-.085938-.496094-.085938-.628906-.414062.796875-1.074218.960938-1.640625.117187-.132812.230468-.28125.347656-.445312.382812-.566407.828125-.847657 1.226562-1.261719.183594-.183594.28125-.429688.515625-.496094.082031-.015625.199219-.082031.265625 0 0 .046875.015625.082032.015625.132813-.117187.414062-.496093.546875-.761719.84375-.101562.167969-.214843.332031-.316406.496093-.199218.21875-.378906.417969-.578125.632813-.152343.214844-.398437.347656-.546875.628906-.085937.164063.046875.8125.296875.878907.429688.117187.777344-.347657 1.160157-.429688.25-.265625.496093-.515625.746093-.765625.097657-.113281.199219-.246094.296875-.363281.132813-.183594.351563-.265625.53125-.398438.53125-.429687 1.773438-1.625 2.503906-1.410156.214844.152344-.464843.464844-.546874.515625-.015626.015625-.097657.050781-.132813.082031-1.09375.648438-1.425781.945313-2.089844 1.925782-.097656.148437-.296875.347656-.347656.527343-.015625.050781-.015625.101563.015625.152344.019531.046875.035156.082031.066406.132813.035156.0625.050782.148437.050782.230468 0 .066406 0 .132813.066406.199219.265625.265625.429687.164063.679687.183594.050781 0 .101563.015625.148438.03125.085937.035156.152343.050781.234375.082031.132812.015625.265625.035156.414062.050781.050782 0 .097656-.015625.148438-.035156.101562-.046875.296875-.015625.429687 0 .066407.019531.152344.019531.21875-.015625.046875-.015625.082031-.03125.132813-.03125.082031-.035156.164062-.066406.246094-.117188.101562-.066406.199218-.148437.265624-.199218.035157-.03125.082032-.050782.132813-.066406.015625 0 .035156 0 .035156-.015626.097657-.035156.195313-.082031.28125-.167968.246094-.230469.695313-.679688.828125-.429688.164063.300782-.914062.894532-1.078125 1.027344-.214843.101562-.429687.234375-.648437.332031-.03125.015625-.0625.035157-.082032.066407-.046874.082031-.046874.183593-.03125.265624.015626.066407.066407.132813.132813.148438.082031.035156.148437.066406.214844.101562.015625.015626.03125.015626.066406.015626.546875.097656 1.042969.265624 1.609375.25.394531-.066407.8125-.152344 1.191406-.199219.695313-.050781 1.425782-.050781 2.105469-.21875.878906-.246094 1.640625-.976563 2.222656-1.707031.363281-.464844.679688-.910157.695313-1.457032 0-.25-.117188-.414062-.164063-.648437-.117187-.378907.066407-.726563-.332031-1.078125-.167969-.113282-.28125-.3125-.496094-.429688-.085937-.066406-.183594-.148437-.265625-.214844 0 0-.199219-.132812-.285156-.183593-.015625-.015625-.046875-.015625-.082031-.015625-.230469.015625-1.191406.117187-1.476563.230468-.046875.019532-.195312.085938-.261719.101563-.035156.015625-.066406.03125-.101562.050781-.265625.214844-.929688.28125-.929688.296875-.097656 0-.28125 0-.28125 0-.066406-.050781-.082031-.214843-.066406-.28125-.066406-.035156.183594-.367187.234375-.449219.429688-.695312.511719-1.226562-.132812-1.789062 0 0-.332031-.183594-.332031-.183594-.101563.015625-.199219.035156-.300782.066406 0 .015626-.230468.167969-.328125.214844-.398437.265625-.632812.515625-1.113281.433594-.046875-.019531-.097656-.066406-.097656-.117188 0-.035156 0-.082031 0-.117187 0-.046875 0-.097656.03125-.148437.035156-.082032.066406-.148438.066406-.214844 0-.035156.035156-.117188.015625-.148438 0-.035156 0-.066406.019531-.101562.113282-.28125-.183594-.464844-.398437-.613282-.035157-.03125-.082031-.050781-.132813-.066406-.101562-.015625-.230468-.050781-.265625-.050781-.050781 0-.097656 0-.148437.019531-.316406-.035156-.332032.164063-.597656.3125-.097657.035156-.214844.066406-.332032.132813h-.015625c-.199219-.132813-.050781-.464844.050781-.660157.03125-.066406.015626-.132812-.035156-.183593-.132812-.117188-.296875-.265625-.378906-.347657-.035156-.035156-.066406-.050781-.117188-.050781-.132812-.015625-.28125-.066406-.480468-.050781-.730469.066406-2.15625 1.210938-2.472656 1.445312-.082032.066407-.164063.128907-.246094.214844 0 0-.214844.164063-.398438.296875-.082031.066407-.167968.132813-.234375.214844-.214843.265625-.960937 1.078125-1.226562 1.328125-.046875.050781-.097657.097656-.148438.164062-.214843.300782-.414062.398438-.644531.699219-.265625.3125-.5.792969-.863281.992188-.101563.132812-.132813.234375-.28125.300781-.035157.015625-.050781.097656-.050781.132812-.050782.230469-.132813.910157-.03125 1.140626-.316407.480468-1.144532-.3125-1.164063-.3125-.3125-.214844-.679687-.632813-1.058594-.796876-.382812-.132812-.878906-.382812-1.160156-.265624-.148437.066406-.367187.117187-.53125.167968-.363281.179688-1.011719.480469-1.277344.777344-.578125.679688-.910156 1.625-1.558593 2.203125-.03125.050781-.066407.101563-.117188.167969-.148438.28125-.066406.613281.050781.894531.101563.148437.199219.300781.300781.449219.066407.046875.132813.113281.195313.164062.730469.316406 1.511719-.164062 2.007813-.644531.199218-.183594.332031-.433594.5625-.5.132812-.03125 2.289062.5 2.539062.632813.082031.03125.546875.097656.925781.164062.234375.035156.449219.082031.664063.183594.5625.230468 1.128906.496094 1.707031.726562.332031.21875.679687.367188 1.011719.53125.398437.199219.746094.449219 1.144531.679688.363281.167968.730469.332031 1.109375.515625.066406.03125.152344.066406.234375.117187.613281.261719 1.292969.378906 1.921875.578125.082031.035157.167969.066407.25.101563.480469.3125 1.144531.296875 1.625.546875-.066406.082031-.101562.164062-.148438.230469-.085937.117187-.300781.316406-.332031.347656-.035156.035156-.183593.066406-.265625.117187-.035156.015625-.066406.03125-.082031.066407-.019531.03125-.035156.066406-.050781.082031-.035156.050781-.015625.117187.015625.167969.050781.066406.117187.148437.167969.214843 0 .015625.015624.015625.03125.03125.28125.25.695312.546875.996093.746094.046875.035156 1.011719.382813 1.625.382813.132813 0 .261719.015624.378907.015624.28125 0 .480468-.164062.664062-.363281.628906-.832031.515625-1.410156.480469-2.289062m-1.128907-8.074219c.515626-.03125.980469-.117188 1.492188-.097656.050781 0 .117188.03125.167969.046875.414062.167969.316406.699219.265625.847656-.015625.050781-.035156.113281-.035156.179687v.085938c-.082032.246094-.378907.613281-.546876.746094-.246093.164062-.894531.546875-1.058593.214844-.199219-.398438 0-.796876.046875-1.242188.019531-.117188-.113282-.234375-.199219-.300781-.066406-.050781-.082031-.132813-.164063-.183594-.199218-.148437-.628906 0-.8125.167969-.015624.015625-.066406.066406-.082031.082031-.066406.050781-.167969.167969-.199219.234375-.015624.046875-.082031.097656-.132812.097656-.066406 0-.265625-.148437-.101562-.347656.449218-.546875.796874-.382812 1.359374-.53125m-4.242187 1.128906c.214844-.316406.578125-.332031.8125-.613281.050781-.050781.117187-.066406.164063-.066406h.066406c.050781 0 .085937.015625.117187.046875.050781.035156.097657.085937.148438.117187.035156.035157.035156.066407.015625.101563-.113282.179687-.230469.394531-.394532.546875-.101562.097656-.183593.230469-.316406.28125-.035156.015625-.164062.113281-.183594.148437 0 0-.53125.132813-.511718.097656-.316406-.199218-.085938-.414062.082031-.660156"/><path d="m182.734375 46.386719c-.101563-.113281-.332031-.230469-.546875-.3125-.199219-.085938-.398438-.199219-.53125-.367188-.101562-.113281-.332031-.214843-.433594-.246093-.046875-.050782-.082031-.101563-.128906-.117188.015625-.015625.015625-.015625.015625-.015625.214844-.050781.398437-.117187.597656-.152344 1.492188-.445312 1.953125-.992187 1.292969-2.46875-.152344-.296875-.285156-.730469-.679688-.878906-.066406-.03125-.132812-.082031-.183593-.132813-.066407-.03125-.117188-.082031-.183594-.132812-.03125-.015625-.3125-.097656-.332031-.113281-.066406-.035157-.132813-.050781-.199219-.066407-.132813-.101562-.28125-.183593-.414063-.285156-.03125-.015625-.066406-.03125-.082031-.046875-.429687-.300781-2.1875-.714843-2.816406-.746093-.066406 0-.152344-.019532-.199219-.050782-.101562-.050781-.21875-.101562-.25-.117187-.5625-.265625-1.839844.050781-1.972656.761719-.015625.152343.296875 1.179687.414062 1.246093.679688.050781 1.375.097657 2.039063.148438.347656.050781.664063.316406.976563.480469.183593.082031.515624.167968.613281.363281.101562.234375-.128907.433593-.28125.597656-.378907.449219-.726563 1.09375-1.359375.695313-.179688-.128907-.746094-.378907-.746094-.378907-.199219-.132812-.910156-.148437-1.175781-.214843-.230469-.152344-2.320313-.132813-2.554688.03125-.199219.132812-.230469.433593-.265625.648437-.082031.578125-.148437 1.125.515625 1.457031.015625 0 .035157.015625.050781.035156.3125.214844.730469.3125 1.078126.414063.332031.214844 1.472656.164063 1.921874.230469.214844.132812.398438.234375.613282.347656.148437.085938.382812.085938.332031.300781-.035156.015625-.730469.480469-1.042969.710938-.832031.515625-1.261718.664062-2.089844-.132813-.265624-.199218-.515624-.414062-.730468-.613281-.414063-.28125-1.308594-.730469-1.292969.050781 0 0 .148437.464844.097656.582032-.113281.113281-.246093.261718-.378906.378906 0-.015625-.167969.167968-.234375.265625-.246094.316406 0 .546875.050781.847656-.015625.097656-.015625.195313-.03125.296875.015625.183594.230469.511719.328125.664062.035156.046876.085938.097657.132813.148438.234375.183594.417969.414062.699219.5625.828124.414062 1.824218.449219 2.734374.199219.117188-.050781.230469-.082031.347657-.132813.082031-.03125.183593-.066406.28125-.082031.101562-.015625.214843-.035156.316406-.050781.097656-.015625.183594-.03125.28125-.015625.296875.03125 1.210937-.347657 1.359375-.449219.234375-.164062.464844-.3125.695312-.460938.300782-.199218.546876-.433593.746094-.796874.132813-.25.316406-.746094.582032-.929688.164062-.097656.464843.035156.644531.066406.996093.183594 1.726562-.132812 1.59375-1.257812-.035157-.285156-.015625-.566406-.214844-.765625"/><path d="m152.027344 26.574219s.332031-.460938.515625-.679688c.332031-.511719-.714844-1.257812-1.0625-1.324219-.03125 0-.082031.015626-.132813.03125-.113281 0-.246094.066407-.378906.066407-.082031 0-.332031-.03125-.382812-.03125-.066407 0-.265626 0-.296876 0-.234374-.035157-.464843.066406-.695312.097656-.132812-.015625-.5-.097656-.515625-.113281-.066406-.085938 0-.199219 0-.300782.066406-.3125.28125-.761718.515625-.992187.3125-.285156.679688-.417969.941406-.746094.714844-.964843 1.328125-1.925781 1.859375-3.019531-.015625-.132812-.035156-.28125-.050781-.378906-.066406-.132813-.117188-.265625-.199219-.367188-.164062-.664062-.03125-.960937-.730469-1.175781-.066406-.015625-.132812-.015625-.199218 0s-.132813.050781-.195313.050781c-.550781.03125-2.125 1.507813-2.6875 2.1875-.101562.117188-.164062.246094-.214843.398438-.050782.132812-.082032.246094-.132813.378906-.167969.300781-.332031.613281-.5.929688-.046875.082031-.082031.164062-.097656.265624-.183594.695313-.746094 1.257813-1.027344 1.855469-.015625.035157-.050781.082031-.066406.101563-.597657.910156-1.195313 1.109375-1.609375 1.226562-.03125.015625-.113282 0-.164063-.015625-.566406-.085937-.945312-.316406-1.476562-.265625-.015625 0-.480469.066406-.53125.082032-.246094.066406-.414063.230468-.546875.414062-.3125.382812-.578125.8125-.414063 1.359375.066407.164063-.03125.382813.066407.53125.148437.265625 1.425781.511719 1.773437.679687.167969.066407.347656.214844.316406.429688v.050781c-.015625.03125-.066406.066407-.101562.097657-.214844.28125-.546875.664062-.695313.914062-.050781.097656-.132812.179688-.230468.246094-.019532.019531-.035157.019531-.035157.035156-.148437.148438-.28125.296875-.429687.429688-.300782.347656-.628906.761718-.960938 1.078124-.347656.300782-.796875.464844-1.195312.695313-.28125.199219-.53125.398437-.796875.597656-.394531.214844-.828125.433594-1.242188.679688-.214843.183593-.449219.382812-.679687.566406-.132813.082031-.265625.113281-.398438.246094 0 0-.015625.132812-.03125.132812-.019531.050781-.019531.117188-.050781.148438-.015625.035156 0 .199219-.015625.25-.019531.082031 0 .148437-.035156.214843-.03125.117188 0 .25.050781.367188.03125.097656.117187.179688.230469.195312.929687.117188 1.644531-.214843 2.472656-.511718.347656-.117188.679688-.183594 1.011719-.398438.214843-.183594.429687-.347656.644531-.515625.414062-.28125.8125-.546875 1.210938-.828125.546874-.464844.996093-1.027344 1.523437-1.492187.25-.179688.5-.347657.746094-.53125.382812-.363281.78125-.746094 1.164062-1.109375.628907-.664063 1.058594-1.65625 1.855469-2.136719.613281-.367187 1.175781-.613281 1.875-.699219.808594-.132812 1.773438.28125 2.433594-.398437"/><path d="m153.207031 35.894531c-.214843-.085937-.414062-.167969-.632812-.265625-.066407-.066406-.128907-.132812-.214844-.199218 0 0-.296875-.25-.480469-.347657-.214844-.101562-.496094-.117187-.710937-.214843-.464844-.234376-.632813-.5-1.027344-.832032-.132813-.082031-.265625-.164062-.398437-.265625-.148438-.214843-.28125-.460937-.433594-.695312-.28125-.378907-.578125-.761719-.894532-1.109375-.117187-.148438-.199218-.332032-.363281-.414063-.199219-.117187-.5-.132812-.730469-.199219-.796874.378907-1.0625 1.191407-.960937 2.089844.015625.132813-.101563.246094-.015625.363282.265625.363281 1.042969.894531 1.140625 1.375 0 0 .648437 1.210937.78125 1.375.265625.316406 1.589844 1.078124 1.65625 1.128906.449219.296875 1.046875.332031 1.59375.515625.132813.03125.25-.035157.363281.015625.101563.050781.214844.050781.316406.050781.214844 0 .546876-.019531.828126-.019531.296874 0 .613281-.066406.878906-.199219.066406-.03125.117187-.066406.183594-.082031.046874-.015625.082031-.046875.132812-.082032.066406-.050781.246094-.117187.296875-.183593.066406-.082031.347656-.148438.414063-.28125.117187-.183594.015624-.28125-.050782-.445313-.261718-.863281-.910156-.765625-1.671875-1.078125"/><path d="m188.351562 102.671875c-.082031-.777344.132813-2.019531.085938-2.386719-.085938-.378906-.101562-1.042968-.085938-1.789062 0-.730469.25-.382813.117188-1.210938-.183594-.996094.050781-3.613281-1.523438-4.726562-.597656-.460938-1.195312-.695313-1.808593-.941406-.628907-.21875-1.65625-.53125-2.121094-.21875-.480469.300781-.78125.300781-1.09375.679687-.332031.367187 0 .449219-.480469.746094-.5.265625-1.128906.945312-1.226562 1.675781-.101563.679688-.167969 1.691406-.183594 2.074219 0 .394531 0 .808593-.066406 1.292969-.101563.511718.25.679687.316406 1.359374.046875.628907.113281.628907.164062.878907.066407.261719.214844.660156.214844.660156s.148438.464844.066406.960937c-.03125.515626-.28125 2.9375-.613281 3.683594-.296875.726563-.445312.992188-.5625 1.242188-.101562.296875-.300781.183594-.449219.828125-.164062.714843-.082031 1.0625-.398437 1.210937-.066406.035156-.199219.066406-.429687.199219-.449219.265625-.515626.316406-.976563.316406-.449219 0-.730469-.035156-1.292969.066407-.566406.097656-.648437-.019532-1.261718.097656-.628907.148437-1.128907.148437-1.328126.148437-.214843 0-.628906-.28125-1.191406-.332031-.582031-.03125-.847656-.066406-1.34375-.066406s-.597656-.03125-1.160156-.082032c-.582031-.015624-.597656-.097656-1.210938-.066406-.613281.050782-3.050781.628906-3.582031.628906-.511719 0-1.640625-.164062-1.839843-.128906-.179688.046875-.347657.046875-1.191407.046875-.8125 0-.960937 0-1.492187.082031-.597656 0-1.0625-.082031-1.59375-.082031h-1.839844c-.347656 0-.644531 0-.878906-.097656-.214844-.050781-.5625-.714844-.644532-1.027344-.101562-.316406-.214843-.515625-.398437-.847656-.234375-.296875-1.425781-1.640625-1.625-2.519531-.214844-.828125-1.808594-2.867188-2.023437-3.496094-.214844-.597656-.929688-1.925781-.996094-2.355469-.082032-.480469-.347656-2.089843-.445313-2.636719-.082031-.5625-.316406-2.023437-.28125-3.117187.03125-1.011719.113281-1.988281.066407-2.503906 0-.480469.046874-.363281.046874-1.109375 0-.714844.085938-.628906.117188-1.175782 0-.550781 0-.199218.082031-.929687.117188-.679687.21875-.429687.265625-.847656.035156-.496094.398438-2.21875.566406-2.550781.164063-.382813.445313-1.046876.628907-1.609376.230469-.546874.316406-.828124.398437-1.242187.132813-.398437 1.507813-2.304687 1.605469-3.066406.117187-.746094.597656-1.328125.613281-1.972657 0-.613281 0-.25.101563-.863281.117187-.597656.746093-2.355469.746093-2.933593.015626-.546876.164063-.699219.199219-1.359376.015625-.679687.296875-1.210937.332031-1.808593.046876-.582031-.214843-2.835938-.183593-3.863281.015625-1.042969.082031-.316407-.03125-1.359376-.085938-1.027343.066406-.828124-.152344-1.375-.199219-.546874-.546875-2.488281-.660156-3.152343-.167969-.695313-.316407-.792969-.515625-1.472657-.265625-.679687-.214844-.679687-.332032-1.226562-.117187-.546875-.398437-.714844-.613281-1.261719-.164062-.496093-.097656-.28125-.464843-.828125-.378907-.546875-2.898438-2.867187-3.796876-2.800781-.910156.066406-1.441406-.167969-1.921874.230469-.480469.414062-1.589844 1.109375-1.640626 1.722656-.035156.582031-.167968 1.3125-.148437 1.890625.046875.515625.148437.679687.230469 1.09375.082031.464844 1.175781 2.421875 1.425781 3.132813.265625.714843.148437.980468.296875 1.460937.152344.382813.5.679687.5 1.261719 0 .628906.03125.230468 0 1.125 0 .894531.113281 1.824218.113281 2.554687v1.605469c-.03125.878906 0 .914062-.046875 1.542969-.066406.597656-.382812 1.460937-.347656 2.039062.015625.597657-.132812.960938-.183594 1.292969-.066406.648438-.066406.347656-.449218 1.128906-.398438.828125-.429688.894532-.59375 1.542969-.199219.875-.980469 2.933594-1.0625 3.179687-.082032.285157-.382813.367188-.464844 1.210938-.097656.746094-.214844.796875-.398438 1.160156-.179687.367188-.761718 1.808594-.910156 2.519532-.132812.8125-.132812.679687-.25 1.277343-.117188.597657-.230469 2.191407-.332031 2.472657-.132813.296874-.148438.445312-.230469 1.242187-.050781.84375-.132812.796875-.28125 1.308594-.433594 1.773437-.300781 5.554687-.265625 4.859375 0-.367188.113281 1.011718.132813 1.773437 0 .730469.097656 1.410157.296874 1.890625.167969.464844.714844 2.269532.929688 2.71875.230469.378906.3125.414063.53125.960938.179688.546875.527344.894531.660156 1.308594.132813.433593.199219.414062.582032.929687.382812.496094.429687.464844.628906.894531.167968.480469.464844.746094.613281 1.308594.148437.597656.148437.332031.316406.929688.132813.597656.199219.714843.132813.796874-.035156.050782-.132813.050782-.53125.050782-.414063 0-.464844.164062-.730469.164062-.3125.035156-.496094.050782-.777344.035156-.300781-.035156-.863281-.035156-1.210937-.035156-.347656.035156-1.527344 0-1.527344 0s-.628906-.097656-1.359375-.214844c-.710937-.117187-.941406-.148437-1.671875-.148437-.746094-.019531-1.675781-.132813-1.941406-.132813-.230469 0-.910156-.050781-1.523438-.050781-.597656.050781-1.210937.050781-1.660156.050781-.445312 0-.464844.015626-.59375 0-.152344-.050781-1.378906-1.675781-1.511719-2.453124-.148437-.730469-.59375-1.046876-.710937-1.210938-.101563-.183594-.480469-.929688-.480469-.929688s-1.527344-1.574218-1.808594-2.121093c-.25-.5625-.398437-.214844-.730469-.847657-.296874-.628906-.347656-.726562-.644531-1.242187-.316406-.597656-.796875-1.195313-.828125-1.722656-.035156-.546875-.285156-1.726563-.285156-2.371094.035156-.632813.484375-1.609375.53125-2.140625.066406-.464844.117188-.8125.117188-.8125s.25-.746094.296874-1.078125c.066407-.296875.152344-.480469.152344-.480469l.761719-1.292968s.613281-2.304688.679687-2.652344c.082032-.363282.429688-1.609375.695313-2.289063.28125-.746093.496094-.992187.515625-1.40625.046875-.433593 1.011719-3.167969 1.027344-3.679687.03125-.484375.511718-2.238282.628906-2.835938.132812-.632812.214844-.332031.214844-1.046875.050781-.746093.382812-1.789062.398437-2.800781.035157-.996094.050781-.628906 0-1.457031-.066406-.8125-.148437-.632813-.132812-1.246094 0-.613281-.148438-1.324219-.050781-2.003906.066406-.597657-.195313-2.089844-.148438-2.804688.101562-.726562.101562-.246093.050781-1.472656-.035156-1.261719.050781-.996094-.132812-1.640625-.214844-.714844-.582031-1.675781-.664063-2.355469-.113281-.714843.050782-.761719-.347656-1.359375-.429688-.628906-.429688-1.726562-.644531-1.988281-.167969-.285156-.582031-.746094-.832031-1.675781-.296876-.996094-.179688-.582032-.726563-1.492188-.546875-.914062-.21875-.496094-.898437-1.242187-.679688-.730469-.992188-1.078125-1.191407-1.210938-.234375-.101562-.148437-.167969-.546875-.167969-.414062-.046874-.582031-.28125-.847656-.28125-.296875 0-.296875-.066406-.660156 0-.351563 0-.117188-.132812-.914063-.066406-.796875.148438-1.125.347656-1.175781.414063-.082031.050781-1.09375 1.378906-1.210938 1.527343-.066406.164063-.414062.246094-.363281 1.09375.03125.960938-.066406 1.042969.03125 1.625.167969.613282.117188.398438.398438.992188.25.632812.679687 1.0625.910156 1.691406.167969.679688.167969.699219.5 1.226563.296875.515625.859375 1.230469 1.027344 1.910156.164062.644531.480469 1.507813.578125 1.988281.167968.464844.367187.496094.464844 1.34375.101562.777344.449218 3.097656.433593 3.730469-.050781.628906.066407 2.550781 0 2.949219-.050781.363281-.433593 1.988281-.53125 2.570312-.117187.613282-.082031.5625-.300781 1.144532-.230469.511718-.328125 2.535156-.480469 2.949218-.199219.414063-.414062.929688-.628906 1.394532-.214844.511718-.265625.578124-.414063.992187-.132812.480469-1.460937 2.769531-1.542968 3.351563-.066406.628906-1.441406 3.710937-1.589844 4.691406-.132812.960937-.8125 2.785156-.894531 3.066406-.085938.449219-.183594.164062-.199219.996094 0 .777344-.347656 2.402344-.265625 3.28125.113281.960937.332031 3 .480469 3.878906.164062.847656.679687 1.609375.863281 2.171875.164063.496094 1.257813 2.835937 1.90625 3.914063.347656.5625 1.441406 1.855468 1.539063 2.371093.085937.511719-.199219.414063-.3125.511719-.167969 0-.199219.214844-1.011719.167969-.761719 0-1.078125-.117188-1.726563-.019531-.695312.019531-.878906.050781-1.308594.019531-.429687-.019531-.597656-.035157-1.175781-.117188-.582031-.015625-.761719-.117187-1.144531-.050781-.363281.082031.03125.167969-.996094.050781-1.042968-.117187-5.121094-.398437-5.421875-.316406-.3125 0 .367188.066406-.480469 0-.84375 0-.296874-.082031-1.109374-.082031-.828126 0-2.15625-.265625-2.554688-.265625-.398438.082031-.613281 0-1.011719 0-.394531 0-1.6875.234375-1.988281-.265625-.25-.496094-.296875-1.523438-.511719-1.988282-.234375-.496093-1.097656-2.320312-1.277343-2.867187-.167969-.449219-.546876-1.640625-.664063-1.941406-.097656-.246094-.148437-.8125-.214844-1.523438-.066406-.679687 0-3.050781.082031-3.351562.132813-.363281.230469-1.058594.296876-1.390625.066406-.28125.832031-2.054688 1.0625-2.652344.214843-.53125 1.226562-2.40625 1.359374-2.785156.132813-.347656 1.011719-3.546875 1.292969-4.128906.25-.5625 2.007813-4.0625 2.140625-4.773438.132813-.699219.230469-.382812.363282-.996094.097656-.628906.863281-4.375.863281-4.375s.132812-.898437.132812-1.425781c0-.515625-.019531-.132813.03125-.898437.015625-.828126.148438-1.722657.101563-2.617188-.085938-.863281-.796875-2.289062-.8125-3.316406-.050782-1.0625-.613282-2.820313-.699219-3.546875-.082031-.679688-.199219-.515625-.214844-1.03125-.082031-.480469-1.65625-4.425781-2.039062-5.039063-.398438-.628906-.695313-1.125-1.011719-1.226562-.296875-.097656-1.359375-.628906-1.359375-.628906-.597656-.066407-1.226563-.53125-1.640625-.515626-.398438.035157-.480469.132813-.695312.167969-.265626.066407-.597657.347657-1.09375.464844-.5.097656-.464844 0-.746094.378906-.265625.367188-.894532.828125-.894532.828125-.332031.664063-.945312 1.261719-.796874 1.941406.164062.84375.183593 1.308594.398437 1.722657.214844.566406 1.257813 2.324219 1.574219 2.671875.296875.332031.511718 1.125.746094 1.757812.363281.945313.730468 3.496094.746093 3.796875.097657.828125.363281 1.589844.316407 2.566407 0 .21875-.035157 2.371093-.117188 3.085937-.050781.777344-.332031 3.613281-.613281 3.996094-.117188.148437-.980469 4.257812-1.261719 5.070312-.148438.316407-1.042969 2.058594-1.625 2.917969-.398438.597656-2.570312 4.644531-2.851562 5.242188-.347657.828124-1.175782 4.839843-1.175782 5.816406.066406 1.277344 0 3.582031.199219 4.261718.066406.199219.597656 1.394532 1.011719 2.503907.214844.546875 1.390625 3.582031 1.175781 3.828125-.050781.300781-1.175781.433594-1.824219.433594-.792968-.050782-3.53125.082031-3.894531.214843-.382813.117188-5.15625-.117187-5.953125-.265625-.828125-.199218-.878906-.148437-1.277344-.148437-.378906-.019531-3.164062.046875-3.710937-.183594-.5-.183594-1.144531 0-1.144531 0-.628907.183594-1.160157.332031-1.476563.25-.296875-.085937-.730469-1.3125-.910156-1.460937-.199219-.230469-.152344-.628907-.347657-1.042969-.050781-.082031-.167968-1.210938-.117187-1.859375.082031-.644532-.066406-.941406-.066406-1.273438 0-.382812 0-.679687-.050781-1.046875-.050782-.347656-.28125-2.171875-.28125-2.351562-.082032-.582031-.214844-1.046875-.199219-1.792969.015625-.53125-.03125-1.640625-.214844-2.039062-.167969-.429688-.367187-1.078126-.496094-1.257813-.167969-.132813-.699219-1.527344-1.128906-1.710937-.496094-.164063-1.277344-.679688-1.507813-.613282-.234374 0-1.378906.066406-2.007812.21875-.398438.097656-1.757812.925782-2.023438 1.027344-.28125 0-.527343.496094-.679687.695312-.296875.414063-.761719 1.90625-.792969 2.105469-.167968.714844-.300781.863281-.300781 1.375 0 .265625-.082031.929688.050781 1.511719.164063.496094.382813 5.105469.449219 5.386719.046875.332031.296875 1.160156.394531 1.921875.050782.367187.132813.28125.351563 1.394531.113281.679687.113281 1.226563.230469 1.425781.296874.378906.347656.945313.332031 1.390625 0 .464844-.082031.464844.03125 1.128907.101562.613281 0 .679687.085937 1.210937.128906.710937 0 0 .148438.925781.199218.929688.792968 3.417969.792968 3.417969s.449219.945313.597657 1.207031c.117187.265625.148437.730469.167969 1.097656.148437.761719.578124 2.386719.578124 2.453126 0 .097656.433594.578124.679688 1.359374.414062 1.324219 1.144531 2.601563 1.359375 2.917969.300781.445313.78125 2.601563.914063 2.867188.164062.363281 1.027343 2.488281 1.292968 2.96875.246094.578125 1.441406 2.453125 1.558594 2.917969.132812.429687.5625 1.308593.679688 1.523437.132812.234375.761718 1.507813 1.144531 2.007813.148437.214843 1.359375 1.390624 1.40625 1.523437.066406.066406 2.984375 2.835937 3.234375 3.183594.214844.398437 2.800781 2.339843 3.5625 3.019531.183594.164062 2.324218 2.105469 2.6875 2.1875.414062.113281.664062.332031.929687.53125.28125.214844.925781.328125 1.042969.414062.332031.179688 3.300781 1.789063 3.480469 1.855469.167969.066407 1.179687 1.144531 1.527343 1.144531.332032.050782.777344.347657.960938.480469.398438.230469.28125 1.160157.28125 1.160157s.316406 2.171874.628906 2.753906c.167969.199218.265625 1.042968.367188 1.207031.214844.316406 1.058594 3.898437 1.308594 4.3125.199218.429687.015624.382813.316406.894531.28125.496094.015625.316406.429687.929688.414063.644531 1.957031 3.496094 2.207031 4.011718.261719.53125 1.042969 3.914063 1.042969 3.914063 0 .3125.117188.480469.097657.941406 0 .464844.019531 1.128907.101562 1.492188.097656.5.097656.878906.097656 1.226562 0 .316407-.03125 1.0625-.097656 1.378907-.015625.265624-.300781 2.519531-.382812 3.25-.066407.777343-.199219 1.839843-.246094 2.039062-.019532.214844-.316406 1.558594-.316406 1.558594s-.035157.148437-.183594.644531c-.164063.480469-.015625.730469-.230469 1.359375-.214844.582031-.648437 2.320312-.796875 2.503906-.132812.25-.296875 1.042969-.296875 1.042969s-.597656 1.359375-.648437 1.59375c-.050782.183594-.53125 1.34375-.664063 2.039063-.097656.628906-.230469 1.042968-.261719 1.160156 0 .265625 0 1.394531.148438 1.65625.164062.316406.246094 1.359375.246094 1.460937.019531.050781.664062.996094.765624 1.226563.113282.214844.644532.265625.746094.347656.113282.117188.644532.148438.859375.148438.28125 0 .199219-.046876.832031-.046876.644532-.035156 1.972657-.480468 2.105469-.582031.378907-.28125 1.65625-1.109375 1.9375-1.589843.316407-.5.847657-1.59375 1.011719-2.304688.164062-.664062.730469-2.421875.730469-2.421875s.164062-.199219.246093-.878906c.085938-.578125.132813-1.109375.183594-1.390625.066406-.316406.316406-1.710938.515625-2.140625.066407-.148438.066407-.25.066407-.515625.03125-.28125.03125-1.042969.3125-1.621094.050781-.199219.183593-1.394531.300781-1.710938.113281-.378906 1.058593-5.136718.878906-7.277343-.066406-.730469-.050781-1.90625-.050781-2.1875 0-.25-.148438-2.785157-.132813-2.96875 0-.148438-.28125-1.125-.296875-1.292969-.085937-1.625-1.578125-4.789062-1.609375-5.054688-.015625-.300781-.464843-1.660156-.679687-1.992187-.117188-.214844-.414063-.925781-.847656-1.691406-.414063-.792969-.179688-.578125-.363282-1.226563-.230468-.628906-.199218-.792968-.414062-1.207031-.230469-.367187-.8125-2.15625-.8125-2.472656 0-.3125.015625.082031 0-.230469l.082031-.828125s.78125.195313 1.0625.261719c.28125.085937.976563.382812 1.292969.53125.398437.199218 2.304687.582031 2.835937.746094.578125.332031 2.238281.679687 2.652344.746093.660156.035157 1.160156.101563 1.457031.265625.199219.050782 3.300782.101563 3.863282.132813.53125.015625 1.675781.347656 1.789062.347656.085938 0 1.742188.167969 1.742188.167969s.167968.445312.234374.828125c.03125.332031.230469.894531.296876 1.507812.03125.382813.777343 2.4375.777343 2.4375s.332031.761719.449219.976563c.097656.183594.25 1.011718.546875 1.476562.296875.480469.347656.398438.5625 1.011719.167969.546875.648437 1.921875.730469 2.355469.082031.429687.25.628906.382812 1.160156.097656.496094.859375 2.054688.992188 3.449219.050781.59375.066406 1.09375.234375 1.65625.148437.53125.03125.5625.148437 1.09375.132813.53125.132813.101562.132813.945312-.015625.828125-.066407 1.292969-.132813 1.890625-.015625.578125-.050781.679688-.050781 1.308594 0 .582031.117187.25-.046875.929688-.167969.710937-.132812.5625-.167969 1.175781-.03125.613281-.148437 1.476562-.199219 2.105469-.066406.613281.101563.699218-.082031 1.277343-.25.582031 0 .382813-.25 1.042969-.214843.648438-.878906 2.339844-.925781 2.96875-.085938.582031-.332031.828125-.398438 1.09375-.035156.132812-.863281 2.96875-.996093 3.550781-.132813.578125-.03125.480469-.265625.941407-.199219.53125-.132813.78125-.183594 1.261718-.046875.480469-.046875.53125-.03125 1.144532.03125.597656.066406.53125.132812.894531.117188.414062.945313 1.210937 1.042969 1.441406.117188.234375.347657.449219.714844.480469.378906.066406.746094.152344 1.027344.101562.296875-.015625.363281.132813.84375.117188.53125-.066406.285156 0 .730469-.152344.433593-.148438 1.394531-.660156 1.558593-.84375.148438-.183594.101563-.148438.332031-.496094.199219-.382812.628907-.980468.730469-1.59375.097657-.597656.332031-1.191406.578125-1.707031.167969-.449219.167969-.449219.347656-.894531.234376-.449219 1.394532-2.4375 1.476563-2.902344.082031-.53125.117187-.578125.214844-1.0625.101562-.5625.714843-2.765625.8125-3.265625.132812-.429687.050781-.59375.148437-.859375.101563-.316406.234375-.21875.285156-.566406.046876-.378906.082032-.59375.179688-.925782.132812-.300781.167969-.265624.199219-.796874.050781-.464844.035156-.960938.101562-1.574219.046875-.613281.082031-.613281.097657-1.210938.015624-.597656.015624-.8125-.066407-1.0625-.066406-.265625-.03125-.84375-.066406-1.390625-.046875-.566406.167969-1.460937.167969-1.839844.015625-.300781-.066406-.300781-.066406-.929687 0-.648437-.050782-.464844-.050782-1.027344.03125-.5-.015625-1.34375-.066406-1.988281-.097656-.664062.050781-.597656-.117188-.863281-.113281-.332031-.082031-.332031-.148437-.847657-.117187-.511718-.148437-.511718-.183594-.726562-.066406-.183594-.097656-1.03125-.179687-1.476562-.101563-.414063-.035156-.414063-.148438-.714844-.085937-.296875-.582031-2.351563-.664062-2.734375-.066406-.363281-1.144532-2.949219-1.195313-3.132813-.015625-.148437-.53125-1.789062-.679687-2.074218-.164063-.296876-1.390625-3.015626-1.292969-3.097657.101563-.101562.347656-.148437.714844-.101562.394531.035156.363281.035156.792969.066406.414062.035156.78125-.046875 1.328124-.148437.546876-.082032 1.457032-.464844 1.804688-.464844.316406.066406 3.019531-.164063 3.597656-.246094.515625-.101562 1.425782.148438 2.171875.148438.765625 0 1.558594-.25 1.976563-.332032.363281-.082031 1.339844-.183594 1.605468-.300781.234376-.113281.566407-.28125.980469-.066406.445313.234375.644531.8125.878907 1.3125.199218.511719.527343.976562.761718 1.625.246094.660156.066406.414062.445313 1.042969.382812.664062.53125.929687.746093 1.410156.234376.429687.316407.480468.382813.960937.082031.464844 1.09375 5.089844 1.175781 5.785157.117188.746093.199219 1.046874.265625 1.476562.101563.480469 0 1.242188 0 1.492188-.015625.316406.035157.414062-.066406.710937-.046875.25-.148437 1.179687-.246094 1.726563-.035156.578124 0 2.003906-.035156 2.570312-.015625.5625-.050781.511719-.199219 1.242188-.132812.714843-.132812.910156-.132812 1.34375-.015625.464843.234375 1.191406.050781 1.921874-.164063.746094-.117187 1.808594-.214844 2.503907-.066406.648437-.234375 2.4375-.433593 3.015625-.214844.515625-.214844.730468-.28125 1.144531-.113282.414063-.03125.25-.214844.929687-.148438.695313-.265625 1.808594-.347656 2.269532-.117188.449218-.050782.597656-.230469 1.230468-.132813.613282-.332031 1.175782-.398438 1.707032-.101562.5625-.132812 1.292968.066407 2.003906.230468.746094.28125.746094.445312 1.046875.183594.265625.265625 1.09375.796875 1.242187.53125.117188.648437.347657 1.0625.414063.378906.050781 0 .015625.578125.183594.597656.113281 1.410156-.183594 1.691406-.347657.347656-.199218.5625-.234374.78125-.546874.3125-.464844.910156-.898438 1.191406-1.492188.199219-.417969.332032-.582031.433594-.730469.296875-.449219.445313-1.359375.628906-1.925781.113282-.378906.113282-.347656.132813-.726562.015625-.664063-.050781-.582032.113281-.929688.167969-.347656.382813-.679688.484375-1.34375.066407-.628906-.085937-.511719.113281-1.242188.183594-.761718.28125-.496093.28125-1.394531-.03125-.84375-.113281-.578125.085938-1.292969.179688-.710937.445312-1.722656.480469-2.800781.015625-1.09375-.035157-1.972656-.035157-3.066406.035157-1.144531.082032-1.410156.082032-1.957031.050781-.546875.183594-2.15625.234375-2.683594.082031-.566406.082031-.101562.097656-1.277344.035156-1.128906.214844-1.226562.132813-2.207031-.046876-1.027344.066406-1.789063 0-2.652344-.046876-.859375 0-1.257812-.113282-1.824219-.085937-.414062-.085937-.199218-.132812-.761718-.066406-.929688-.265625-1.226563-.285156-1.476563-.015626-.246093-.394532-2.054687-.394532-2.285156 0-.167969-.167968-.398437-.265625-.765625-.234375-.894531-.101562-.296875-.398437-1.125-.367188-.863281-.546875-2.15625-.863282-2.933594-.316406-.746094.035157-.53125-.398437-1.179687-.414063-.597657-.199219-.695313-.199219-1.078125 0-.378906.265625-.679688.265625-.878906 0-.195313.25-.28125.398438-.480469.167969-.230469.796875-.378907 1.425781-.378907.582031 0 .53125-.28125.945312-.464843.414063-.25 1.972657-.847657 2.335938-.996094.417969-.097656 1.0625-.082031 1.425781-.3125.382813-.25 2.871094-1.660156 3.316407-1.824219.433593-.132812 5.523437-3.234375 5.804687-3.484375.332031-.261719 1.507813-.628906 1.871094-1.109375.382812-.480468.316406-.363281.679687-.628906.414063-.316406.382813-.066406.898438-.730469.496094-.597656.496094-.414062.8125-.828125.097656-.117187.378906-.363281.378906-.363281s.265625-.382813.480469-.53125c.300781-.199219.382812-.332031.746093-.664063.316407-.316406.5-.496093.648438-.695312.378906-.53125 1.457031-1.277344 1.789062-1.609375.363282-.347656 2.207032-2.652344 2.40625-2.96875.230469-.347656 1.855469-1.625 2.253907-2.949219.132812-.480468.644531-.847656.925781-1.375.25-.515625.382812-1.445312.613281-1.808594.21875-.398437.664063-1.492187.730469-1.789062.015625-.351562.132812-.632812.300781-1.164062.179688-.527344.3125-.414063.363281-.695313.050782-.296875.414063-1.109375.546876-1.609375.148437-.679688 1.109374-3.511719 1.109374-4.027344 0-.796875.199219-2.238281.265626-2.734375.132812-.449219.765624-2.539062.960937-3.21875.234375-.628906.332031-.5625.417969-.925781.097656-.367188.296875-.300781.394531-.78125.066406-.5625.332031-.398438.316406-1.125 0-.699219.050781-1.691406.082031-2.40625.050782-.761719-.265624-1.738281-.398437-2.285156-.164063-.582032-.496094-.582032-.460937-1.292969v-1.164063c0-.480468.179687-1.492187.179687-2.039062.035156-.527344.050781-.460938.117187-.792969.03125-.398437.066407-.300781.03125-.566406m-86.671874 28.417969c-.414063 1.078125-.414063 1.425781-.746094 2.253906-.28125.714844-2.570313 5.585938-3.21875 6.332031-.628906.730469-.710938.53125-1.011719 1.394531-.3125.863282-.179687.664063-.777344.628907-.546875 0-.28125.367187-1.34375-.214844-1.011719-.53125-1.09375-.164063-1.625-.5625-.511719-.398437-.429687-.28125-.925781-.414063-.546875-.167968.164062.046876-.796875-.515624-.894531-.628907-1.640625-1.042969-2.074219-1.242188-4.011718-2.023438-7.109375-6.566406-7.640625-7.644531-.367187-.84375-2.207031-3.164063-2.519531-4.175781-.316406-1.046876-1.660156-4.261719-2.023438-5.390626-.382812-1.109374-1.410156-5.054687-1.410156-5.570312 0-.546875.25-.859375.25-.859375s.597656-.035156 1.027344-.167969c.429688-.199218 2.171875.015625 2.570312-.082031.378907-.066406 7.078126.097656 7.691407.148437.628906 0 6.847656.035157 7.890625.050782 1.0625 0 3.300781-.332032 3.832031-.183594l1.65625 2.289062c.167969.730469 1.027344 3.679688.980469 4.527344-.019532.875.363281 1.007813.429687 1.671875.066407.648438.03125 1.195313.03125 2.039063.035157.847656.78125 2.867187-.246093 5.6875m24.984374-7.925782c-.035156.960938-.082031.996094-.199218 2.140626-.117188 1.175781-.167969 2.253906-.597656 3.695312-.449219 1.460938-3.878907 7.910156-4.09375 8.6875-.265626.796875-.546876.894531-.78125 1.773438-.179688.878906-.828126 2.488281-.859376 3.050781 0 .546875 0 .78125-.167968 1.226562-.148438.464844-.03125-.082031-.082032 1.179688-.015624 1.242187.066407 1.273437-.082031 1.671875-.132812.347656.046875-.179688-.132812.546875-.214844.746093-.214844.996093-.214844 1.492187l-.035156.566406-.644531.3125s-1.511719-.097656-1.726563-.097656c-.28125-.015625-2.023437-.214844-3.148437-.597656-1.128907-.382812-2.984376-.382812-3.582032-.582031-.597656-.195313-1.542968-.179688-1.890625-.296875-.414062-.082032-1.160156-.480469-2.636719-.761719-1.457031-.28125-2.285156-.582031-2.601562-.8125-.296875-.167969.929688-1.441406 1.242188-2.621094.316406-1.226562.464843-1.191406.796874-1.605469.347657-.433593 1.144532-2.523437 1.507813-3.050781.398437-.53125.730469-2.089843 1.011719-2.652343.214844-.582032.796875-2.140626 1.277344-3.316407.613281-1.492187.910156-3.597656 1.292968-6.035156.363282-2.320313.117188-3.25 0-4.09375-.117187-.832031 0-1.925781-.117187-2.703125-.097657-.597656-.761719-2.320312-.894531-2.585938-.132813-.316406-.347657-1.011718-.746094-1.625-.347656-.664062-.25-.945312-.25-.945312.316406-.214844.285156-.082031 1.179687-.082031.910157-.035157.613281 0 1.476563-.019531.859375 0 .941406 0 1.738281.234374.796875.230469 4.808594.148438 5.96875.082032 1.128906-.082032 2.207031-.082032 2.601563-.035156.449218 0 1.246093.183593 2.324218.183593 1.074219-.03125 2.335938-.097656 2.433594.730469.132812.8125.25.730469.21875 1.191406 0 .484375.214844 2.125.179688 2.671875 0 .53125.265624.992188.265624 1.609375-.03125.679688-.03125.59375-.03125 1.472656m22.679688-3.148437c-.28125.644531-.148438 2.335937-.316406 2.703125-.117188.398438-.28125.859375-.378906 1.375-.117188.53125-.417969 3.25-1.492188 4.957031-1.0625 1.691407-1.160156 2.335938-1.660156 2.933594-.496094.613281-.363282.8125-.710938 1.839844-.367187.996093-1.328125 2.835937-1.359375 3.515625 0 .664062-.25 2.007812-.347656 2.785156-.050781.847656-.464844 1.34375-.464844 1.675781 0 .347657.066407.378907-.234375 1.472657-.28125 1.195312-.097656 1.34375.035156 2.238281.179688 1.359375.5625 2.671875.511719 2.871093-.082031.265626-1.207031.496094-2.71875.496094-1.507812-.03125-2.851562.296875-3.214843.265625-.382813-.035156-.730469-.234375-1.527344-.234375-.792969-.03125-3.164063.464844-3.496094.433594-.363281-.050781-.746094-.117188-1.476562-.300781-.679688-.148438-.730469-.148438-1.738282-.148438-.980468-.03125-1.144531-.546875-1.144531-.546875s-.132813-1.839844.113281-2.652344c.285156-.828124.285156-.777343.398438-1.308593.167968-.582031.265625-.929688.613281-1.773438.347656-.863281.53125-.996093.746094-1.640625.214843-.699218 1.410156-3.136718 1.542969-3.714844.132812-.515624.996093-2.007812 1.261718-3.101562.246094-1.109375.925782-2.105469 1.292969-3.265625.347656-1.144531 1.292969-3.332031 1.207031-5.503906-.113281-2.140625-.347656-4.839844-.132812-5.488281.183594-.695313.25-.183594.183594-1.65625-.132813-1.492188-.117188-1.875-.117188-1.875v-.117188c.382812-.046875 1.476562-.046875 1.660156-.046875.214844.046875.996094-.234375 1.675782-.332031.660156-.101563 1.804687-.148438 2.21875-.214844.414062-.117188 2.238281 0 2.851562-.117188.597656-.101562.214844-.101562.878906-.101562.664063.066406 4.644532-.214844 4.792969.167969.132813.316406.429687.84375.429687 1.441406.015626.515625.367188 2.273437.117188 2.96875m29.875-2.917969c-.199219.628906-.546875 3.464844-.894531 3.960938-.183594.265625-.117188.960937-.367188 1.460937-.347656.726563-.777343 2.570313-1.078125 3.199219-.28125.628906-.148437.363281-.378906.84375-.25.480469-.382812 1.277344-.53125 1.757812-.183594.464844-.316406.945313-.5625 1.542969-.234375.578125-.382812 1.359375-.828125 2.070313-.417969.746094-.285156.847656-.664063 1.394531-.367187.496094-.265624.265625-.597656.929687-.316406.613282-.316406.394532-.796875 1.058594-.597656.730469-.644531.878906-1.058593 1.195313-.367188.347656-.5.445312-.664063.578125-1.59375 1.277344-3.664063 3.300781-3.996094 3.417968-.332031.148438-1.09375.792969-1.441406 1.078126-.332031.296874-.648437.378906-.929687.628906-.296876.230468-.960938.628906-.960938.628906s-.546875.515625-.976562.613281c-.449219.117188-1.644532.847657-1.925782.945313-.296875.066406-.496094.25-.910156.5625-.464844.265625-.664062.546875-1.144531.78125-.496094.148437-2.867188.644531-3.597657.960937-.714843.347657-1.476562.347657-2.121093.746094-.679688.363281-.679688.296875-.964844.28125-.296875-.066406-.578125-.066406-.710937-.066406-.183594 0-.050782-.117188-.199219-.746094-.132813-.597656-.363281-2.734375-.332031-3.429687 0-.746094-.097657-1.046876-.097657-1.046876s.015625-3.695312 1.324219-5.835937c1.277344-2.105469 1.507812-2.933594 1.773438-3.5625.234374-.597656.5-.714844.863281-1.625.332031-.980469 1.527343-3.597656 1.542969-4.675781.03125-1.011719.113281-2.535156.265624-2.949219.164063-.449219.511719-.832031.511719-1.625.035157-.863281.035157-1.378906.066407-2.304687 0-.914063.066406-3.714844.066406-3.714844.082031-.429688.515625-.597656.828125-.597656.265625.050781.648437.050781 1.03125.265624.347656.214844 1.820312.582032 2.367187.582032.5 0 2.15625-.035156 2.820313-.234375.679687-.230469 6.019531-.332031 6.433593-.546875.378907-.148438 2.835938-.214844 3.515626-.214844.660156.066406 3.296874.5625 3.945312.480469.679688-.066407.746094-.265625.925781-.066407.199219.164063.632813.664063.449219 1.277344"/><path d="m57.761719 188.238281c-2.519531-.101562-4.859375.960938-6.945313 3.117188-1.03125 1.058593-1.792968 2.238281-2.257812 3.496093-.464844 1.277344-.578125 2.605469-.332032 3.964844.25 1.339844.714844 2.550782 1.410157 3.5625.433593.664063 1.160156 1.476563 2.140625 2.421875l4.988281 4.855469.730469-.746094-.082032-.082031c-.679687-.644531-.960937-1.226563-.878906-1.707031.097656-.496094.628906-1.242188 1.574219-2.222656l6.832031-7.011719c.960938-.996094 1.707032-1.558594 2.1875-1.660157.464844-.097656 1.042969.183594 1.722656.847657l.082032.082031.730468-.746094-4.988281-4.839844c-2.15625-2.140624-4.496093-3.25-6.914062-3.332031m5.289062 7.742188-7.03125 7.210937c-.910156.945313-1.609375 1.460938-2.054687 1.542969-.414063.066406-1.011719-.25-1.742188-.945313-1.691406-1.640624-2.386718-3.414062-2.089844-5.289062.25-1.59375 1.261719-3.300781 2.96875-5.074219 1.726563-1.773437 3.433594-2.835937 5.105469-3.199219.417969-.082031.8125-.132812 1.195313-.132812 1.523437 0 2.949218.648438 4.261718 1.90625.695313.679688 1.011719 1.261719.925782 1.757812-.082032.515626-.613282 1.261719-1.539063 2.222657"/><path d="m50.132812 179.269531c.878907-2.339843.664063-4.59375-.628906-6.714843-1.308594-2.140626-3.199218-3.382813-5.636718-3.714844-2.269532-.296875-4.523438.214844-6.695313 1.542968-2.191406 1.34375-3.714844 3.117188-4.5625 5.269532-.910156 2.371094-.710937 4.660156.582031 6.78125 1.308594 2.140625 3.234375 3.367187 5.71875 3.664062.382813.050782.761719.066406 1.144532.066406 1.890624 0 3.761718-.5625 5.570312-1.65625 2.1875-1.34375 3.699219-3.101562 4.507812-5.238281m-6.199218 2.632813c-1.773438 1.097656-3.53125 1.742187-5.1875 1.925781-2.15625.246094-3.714844-.414063-4.660156-1.957031-.945313-1.523438-.796876-3.234375.449218-5.039063.925782-1.378906 2.304688-2.621093 4.078125-3.714843 1.824219-1.109376 3.597657-1.789063 5.253907-2.007813.316406-.046875.628906-.0625.929687-.0625 1.691406 0 2.96875.679687 3.796875 2.019531.925781 1.511719.746094 3.234375-.566406 5.089844-.960938 1.425781-2.335938 2.6875-4.09375 3.746094"/><path d="m40.285156 158.910156c.464844.132813.832032.664063 1.113282 1.574219l.03125.097656.996093-.3125-1.773437-5.769531-1.011719.28125.03125.117188c.285156.910156.265625 1.558593-.03125 1.921874-.316406.382813-1.144531.777344-2.488281 1.175782l-10.160156 3.101562 11.171874-14.523437.035157-.050781-.300781-.976563-13.542969 4.144531c-1.3125.398438-2.222657.53125-2.703125.382813-.464844-.132813-.847656-.664063-1.109375-1.542969l-.035157-.101562-.996093.300781 1.757812 5.753906.996094-.300781-.035156-.097656c-.28125-.914063-.261719-1.558594.050781-1.90625.316406-.367188 1.160156-.765626 2.488281-1.179688l8.652344-2.636719-10.011719 12.964844-.035156.050781 1.328125 4.328125.996094-.316406-.035157-.097656c-.28125-.894531-.25-1.542969.050782-1.925781.3125-.378907 1.144531-.792969 2.453125-1.191407l9.367187-2.867187c1.359375-.398438 2.269532-.53125 2.75-.398438"/><path d="m26.925781 138.351562c.214844 0 .429688 0 .644531-.015624 2.585938-.132813 4.726563-.945313 6.316407-2.4375 1.707031-1.59375 2.503906-3.699219 2.386719-6.25-.03125-.632813-.296876-1.757813-.828126-3.433594-.214843-.695313-.332031-1.308594-.363281-1.824219 0-.132813.015625-.296875.046875-.496094.035156-.214843.066406-.398437.101563-.53125l.03125-.132812-3.828125.183593c-1.128906.050782-1.890625 0-2.253906-.148437-.5625-.234375-.878907-.8125-.914063-1.726563v-.113281l-1.042969.046875.347656 7.230469v.117187l1.046876-.050781v-.117187c-.050782-1.0625.046874-1.789063.296874-2.15625.25-.347656.863282-.5625 1.855469-.613282 1.394531-.066406 2.4375.132813 3.132813.582032.8125.511718 1.246094 1.441406 1.3125 2.75.082031 1.777344-.746094 3.265625-2.453125 4.429687-1.476563.992188-3.183594 1.539063-5.089844 1.640625-2.222656.113282-4.210937-.183594-5.9375-.878906-2.203125-.878906-3.382813-2.289062-3.464844-4.179688-.050781-1.144531.316407-2.285156 1.109375-3.363281.632813-.847656 1.527344-1.675781 2.636719-2.453125l.085937-.050781-.449218-.878906-4.824219 1.988281.066406.117188c.28125.496093.464844.84375.53125 1.0625.066407.214843.097657.460937.113281.746093 0 .03125-.03125.347657-.230468 1.921875-.066406.480469-.082032.960938-.050782 1.476563.117188 2.433593 1.3125 4.410156 3.53125 5.851562 1.808594 1.109375 3.878907 1.707031 6.136719 1.707031"/><path d="m18.800781 112.71875c.183594-.910156.496094-1.472656.945313-1.65625.464844-.183594 1.375-.132812 2.734375.132812l9.617187 1.90625c1.359375.265626 2.222656.582032 2.585938.929688.347656.332031.414062.960938.230468 1.890625l-.015624.113281 1.027343.199219 1.425781-7.195313-1.027343-.199218-.015625.117187c-.183594.929688-.5 1.476563-.929688 1.65625-.445312.183594-1.375.152344-2.75-.132812l-4.378906-.859375 1.476562-7.410156 4.375.878906c1.359376.261718 2.222657.578125 2.585938.925781.332031.332031.417969.960937.234375 1.859375l-.015625.113281 1.027344.199219 1.441406-7.226562-1.027344-.199219-.015625.113281c-.183593.945312-.515625 1.527344-.945312 1.710938-.449219.179687-1.378907.132812-2.753907-.132813l-9.613281-1.90625c-1.34375-.265625-2.207031-.582031-2.570312-.929687-.347657-.347657-.433594-.996094-.25-1.921876l.015625-.117187-1.027344-.199219-1.441406 7.226563 1.027344.199219.015624-.097657c.183594-.914062.5-1.476562.945313-1.640625.449219-.183594 1.375-.132812 2.734375.132813l3.882812.777343-1.476562 7.394532-3.878906-.777344c-1.34375-.265625-2.207032-.582031-2.570313-.929688-.347656-.347656-.429687-.980468-.25-1.875l.015625-.113281-1.027344-.199219-1.441406 7.195313 1.027344.199219zm0 0"/><path d="m25.25 86.527344c.382812-.8125.8125-1.246094 1.277344-1.296875.480468-.046875 1.359375.234375 2.617187.832031l7.628907 3.644531c.992187.484375 1.953124.714844 2.867187.714844.679687 0 1.324219-.132813 1.957031-.398437 1.390625-.597657 2.519532-1.789063 3.363282-3.546876.960937-2.023437 1.179687-3.765624.648437-5.207031-.53125-1.441406-1.839844-2.652343-3.863281-3.628906l-6.964844-3.332031c-1.242188-.597656-1.988281-1.113282-2.253906-1.542969-.25-.414063-.183594-1.046875.214844-1.890625l.050781-.097656-.945313-.449219-2.570312 5.371094.945312.449219.050782-.101563c.398437-.8125.828124-1.257813 1.308593-1.308594.5-.050781 1.375.214844 2.605469.8125l6.148438 2.933594c1.824218.863281 3.066406 1.742187 3.699218 2.585937.859375 1.160157.894532 2.570313.113282 4.210938-.746094 1.574219-1.839844 2.421875-3.25 2.519531-1.058594.066407-2.484376-.3125-4.242188-1.144531l-6.332031-3.03125c-1.246094-.597656-1.992188-1.113281-2.257813-1.542969-.246094-.414062-.164062-1.078125.25-1.957031l.050782-.097656-.945313-.449219-3.101563 6.484375-.046874.097656.941406.449219zm0 0"/><path d="m49.9375 72.382812c.28125.929688.132812 1.742188-.433594 2.453126l-.066406.085937.8125.660156 4.097656-5.054687.0625-.082032-.808594-.664062-.066406.082031c-.417968.515625-.8125.863281-1.144531 1.042969-.464844.234375-.894531.183594-1.292969-.128906-.183594-.152344-.449218-.464844-.765625-.929688-.394531-.648437-.8125-1.292968-1.226562-1.957031l-.496094-.777344 3.914063-4.84375 2.964843 1.113281c.265625.097657.546875.199219.847657.3125.28125.117188.496093.234376.628906.347657.382812.316406.449218.714843.214844 1.195312l-.945313 1.328125.8125.644532 4.691406-5.800782.066407-.085937-.8125-.644531-.066407.066406c-.230469.230468-.460937.414062-.726562.5625-.25.132812-.515625.214844-.78125.214844-.511719.035156-1.359375-.148438-2.519531-.5625-.480469-.164063-.960938-.347657-1.410157-.53125l-13.445312-5.007813-.097657-.03125-1.046874 2.371094 7.792968 12.152343c.648438 1.078126 1.078125 1.90625 1.246094 2.46875m-6.601562-13.578124 7.828124 2.933593-3.332031 4.128907zm0 0"/><path d="m200.605469 70.824219c.117187.019531.230469.019531.363281.019531 1.425781 0 2.953125-.664062 4.558594-1.992188l5.96875-4.90625c1.0625-.878906 1.859375-1.34375 2.355468-1.394531.496094-.046875 1.027344.285157 1.609376.996094l.066406.082031.8125-.660156-3.714844-4.511719-.066406-.082031-.8125.664062.066406.082032c.582031.695312.796875 1.277344.628906 1.722656-.164062.464844-.777344 1.160156-1.839844 2.023438l-5.269531 4.34375c-1.558593 1.277343-2.871093 2.039062-3.898437 2.253906-1.410156.28125-2.703125-.28125-3.863282-1.671875-1.109374-1.34375-1.425781-2.703125-.910156-4.015625.378906-.992188 1.34375-2.121094 2.835938-3.347656l5.417968-4.460938c1.0625-.875 1.859376-1.339844 2.355469-1.390625.480469-.050781 1.046875.296875 1.660157 1.0625l.066406.082031.808594-.664062-4.574219-5.539063-.066407-.082031-.8125.664062.066407.082032c.582031.695312.796875 1.277344.628906 1.707031-.164063.449219-.792969 1.128906-1.855469 2.007813l-6.515625 5.371093c-1.492187 1.226563-2.269531 2.652344-2.320312 4.226563-.050781 1.511718.546875 3.035156 1.789062 4.542968 1.425781 1.726563 2.917969 2.671876 4.460938 2.785157"/><path d="m216.554688 71.652344-8.703126 4.496094c-1.226562.628906-2.105468.925781-2.605468.878906-.480469-.050782-.925782-.5-1.375-1.34375l-.050782-.101563-.925781.480469 2.765625 5.375.945313-.449219-.046875-.097656c-.433594-.847656-.546875-1.492187-.316406-1.910156.230468-.414063.996093-.960938 2.238281-1.605469l9.449219-4.875-8.40625 16.28125-.03125.046875.464843.898437 12.582031-6.484374c1.226563-.628907 2.089844-.925782 2.585938-.863282.480469.050782.945312.5 1.359375 1.3125l.050781.097656.929688-.480468-2.769532-5.355469-.929687.480469.050781.101562c.429688.84375.53125 1.492188.296875 1.890625-.246093.414063-.992187.960938-2.238281 1.589844l-8.039062 4.144531 7.527343-14.539062.03125-.050782-2.070312-4.011718-.929688.480468.050781.101563c.429688.828125.53125 1.472656.28125 1.890625-.214843.445312-.960937.992188-2.171874 1.621094"/><path d="m228.058594 90.503906c-.3125.398438-1.125.8125-2.4375 1.226563l-9.316406 3.035156c-1.324219.429687-2.238282.578125-2.703126.449219-.460937-.132813-.84375-.648438-1.125-1.558594l-.035156-.101562-.992187.332031 2.253906 6.945312.03125.101563.996094-.332032-.03125-.101562c-.300781-.910156-.300781-1.558594.015625-1.9375.3125-.398438 1.144531-.8125 2.4375-1.226562l9.316406-3.035157c1.308594-.429687 2.203125-.5625 2.703125-.429687.464844.132812.859375.660156 1.144531 1.558594l.03125.097656.996094-.332032-2.273438-6.945312-.03125-.101562-.996093.332031.035156.101562c.296875.910157.28125 1.542969-.019531 1.921875"/><path d="m231.65625 100.019531c0 .28125-.046875.566407-.164062.832031-.117188.261719-.347657.527344-.714844.761719-.246094.179688-.679688.414063-1.257813.710938l-13.792969 7.527343-.066406.035157.164063.960937 13.976562 2.484375c.84375.132813 1.542969.25 2.054688.382813.878906.214844 1.476562.464844 1.757812.730468.300781.265626.480469.511719.5625.710938.085938.214844.167969.566406.25 1.011719l.015625.117187 1.03125-.183594-1.0625-6.347656-1.027344.164063v.101562c.015626.363281.03125.726563.046876 1.058594 0 .648437-.261719 1.011719-.792969 1.113281-.316407.046875-.863281.03125-1.625-.050781-.53125-.066406-1.09375-.148437-1.660157-.265625l-9.082031-1.574219 9.214844-4.976562c.480469-.261719.8125-.445313.996094-.546875.429687-.214844.777343-.347656 1.011719-.394532.332031-.050781.578124.015626.746093.214844.183594.214844.347657.746094.480469 1.558594l.015625.113281 1.027344-.179687-1.308594-7.742188-1.027344.164063.066407.382812c.117187.480469.148437.828125.164062 1.125"/><path d="m234.574219 120.046875v.117187c-.015625.945313-.230469 1.542969-.628907 1.789063-.414062.265625-1.324218.382813-2.71875.351563l-9.796874-.199219c-1.394532-.035157-2.304688-.183594-2.703126-.464844-.398437-.265625-.582031-.878906-.5625-1.824219v-.117187l-1.046874-.015625-.265626 13.496094v.082031l4.777344 1.972656.097656.035156.332032-.765625-.066406-.046875c-1.394532-1.164062-2.289063-1.957031-2.667969-2.390625-.929688-1.058594-1.359375-2.699218-1.328125-4.90625.015625-1.09375.183594-1.773437.464844-2.039062.296874-.265625.976562-.382813 1.988281-.347656l5.671875.117187-.015625.910156c-.035157 1.308594-.183594 2.238281-.464844 2.753907-.449219.8125-1.359375 1.226562-2.71875 1.191406h-.117187l-.015626.929687 7.277344.148438h.117188l.015625-.929688h-.117188c-1.210937-.015625-2.023437-.414062-2.453125-1.175781-.347656-.597656-.496094-1.574219-.480468-2.902344l.015624-.910156 4.558594.097656c1.226563.019532 2.007813.183594 2.289063.449219.199219.183594.429687.710937.398437 2.203125-.035156 1.691406-.332031 2.96875-.878906 3.816406-.429688.660156-1.460938 1.574219-3.035156 2.699219l-.082032.066406.464844.796875 4.476563-1.722656.265625-13.132812v-.113282zm0 0"/><path d="m233.613281 140.472656c-.214843 1.046875-.644531 1.640625-1.292969 1.773438-.332031.066406-1.160156-.015625-2.453124-.28125l-9.550782-1.988282c-1.359375-.28125-2.21875-.597656-2.570312-.945312-.328125-.332031-.414063-.976562-.214844-1.890625l.019531-.117187-1.03125-.214844-1.492187 7.195312 1.03125.214844.015625-.113281c.179687-.914063.511719-1.476563.945312-1.640625.445313-.183594 1.375-.132813 2.75.148437l4.476563.925781-.332032 1.558594-9.714843 3.183594-.066407.015625-.878906 4.230469 1.027344.214844.019531-.117188c.214844-1.011719.644531-1.671875 1.292969-1.988281.148438-.066407.679688-.25 1.589844-.5625l6.382812-2.007813c-.066406 1.226563.199219 2.355469.78125 3.367188.660156 1.140625 1.625 1.855468 2.832032 2.105468.332031.066407.648437.097657.964843.097657 1.226563 0 2.285157-.53125 3.179688-1.589844.847656-1.011719 1.460937-2.421875 1.824219-4.195313l1.527343-7.296874-1.027343-.214844zm-1.410156 6.816406c-.230469 1.160157-.746094 2.085938-1.523437 2.75-.847657.730469-1.824219.980469-2.933594.746094-1.261719-.265625-2.125-1.011718-2.585938-2.222656-.382812-1.042969-.433594-2.269531-.152344-3.644531l.25-1.160157 4.792969.992188c1.011719.214844 1.65625.449219 1.921875.695312.347656.316407.414063.929688.230469 1.84375"/><path d="m225.40625 158.261719c-1.773438-.695313-3.449219-.378907-4.988281.980469-1.144531 1.257812-2.320313 2.550781-3.5 3.878906-1.34375 1.308594-2.734375 1.691406-4.160157 1.125-.910156-.347656-1.527343-.976563-1.808593-1.839844-.296875-.878906-.265625-1.773438.101562-2.683594.414063-1.0625 1.308594-1.992187 2.617188-2.753906.980469-.5625 2.238281-1.058594 3.75-1.476562l.082031-.03125-.066406-1.011719-5.488282-.097657.066407.164063c.097656.25.183593.53125.199219.828125.03125.300781 0 .566406-.082032.78125-.019531.046875-.21875.363281-1.277344 1.890625-.382812.546875-.664062 1.042969-.847656 1.492187-.59375 1.492188-.613281 2.949219-.082031 4.324219.53125 1.394531 1.558594 2.386719 3.035156 2.96875 1.175781.464844 2.289063.546875 3.28125.25.8125-.25 1.640625-.78125 2.472657-1.625.414062-.414062 1.125-1.246093 2.105468-2.453125.777344-.964844 1.457032-1.660156 2.054688-2.058594.878906-.578124 1.773437-.695312 2.621094-.363281.84375.332031 1.457031.910157 1.789062 1.691407.347656.796874.347656 1.625.015625 2.46875-.414063 1.027343-1.210937 1.875-2.421875 2.519531-.910156.480469-2.070312.863281-3.429688 1.113281l-.101562.015625.066406 1.011719 4.992188.082031-.082032-.164063c-.101562-.183593-.148437-.382812-.132812-.597656 0-.214844.046875-.433594.132812-.628906.097657-.265625.214844-.484375.332032-.597656l.429687-.515625c.363281-.414063.597657-.695313.730469-.878907.132812-.199218.28125-.480468.414062-.859374.597657-1.492188.628907-2.886719.117188-4.164063-.484375-1.277344-1.476562-2.21875-2.9375-2.785156"/><path d="m222.40625 175.023438c-.464844.8125-.945312 1.261718-1.425781 1.292968-.03125 0-.050781 0-.082031 0-.515626 0-1.34375-.3125-2.488282-.960937l-8.554687-4.792969c-1.210938-.679688-1.9375-1.242188-2.171875-1.671875-.214844-.414063-.097656-1.0625.382812-1.890625l.050782-.101562-.914063-.511719-3.628906 6.464843.910156.515626.050781-.101563c.464844-.828125.945313-1.277344 1.441406-1.308594.515626-.050781 1.359376.28125 2.554688.945313l8.554688 4.789062c1.191406.664063 1.921874 1.230469 2.152343 1.675782.21875.429687.101563 1.078124-.363281 1.90625l-.050781.101562.914062.511719 3.628907-6.464844-.910157-.515625zm0 0"/><path d="m213.886719 182.019531.03125.082031c.546875 1.179688.828125 2.355469.847656 3.515626.015625 1.292968-.351563 2.4375-1.078125 3.382812-.316406.414062-.664062.597656-1.03125.5625-.261719-.03125-.613281-.214844-1.027344-.53125l-9.117187-6.996094c-1.109375-.859375-1.757813-1.523437-1.890625-2.003906-.132813-.464844.117187-1.128906.78125-1.988281l.066406-.085938-.832031-.644531-4.722657 6.148438-.066406.085937.828125.628906.066407-.082031c.648437-.847656 1.226562-1.277344 1.707031-1.277344h.035156c.496094.015625 1.308594.464844 2.417969 1.308594l9.101562 6.980469c.433594.332031.699219.628906.796875.878906.132813.347656.035157.730469-.28125 1.144531-.714843.925782-1.722656 1.574219-3 1.921875-1.144531.316407-2.371093.347657-3.632812.117188l-.097657-.015625-.214843.878906 4.839843 1.457031.066407.015625 8.820312-11.503906.050781-.066406-2.671874-4.394532zm0 0"/><path d="m205.164062 199.710938c-.597656.546874-1.375.761718-2.320312.628906-.414062-.066406-1.242188-.296875-2.4375-.695313l-7.742188-2.570312-1.855468-2.054688c-.945313-1.046875-1.460938-1.808593-1.527344-2.289062-.066406-.464844.265625-1.042969.996094-1.707031l.082031-.066407-.695313-.78125-5.539062 5.007813.695312.78125.085938-.066406c.726562-.648438 1.324219-.929688 1.773438-.8125.464843.113281 1.191406.710937 2.136718 1.738281l2.421875 2.671875 1.742188 7.226562c.296875 1.175782.429687 1.988282.429687 2.421875-.015625.828125-.347656 1.558594-.996094 2.136719l-.082031.066406.695313.78125 4.757812-4.3125-.695312-.761718-.082032.066406c-.164062.117187-.429687.332031-.828124.644531-.53125.382813-.960938.367187-1.3125-.015625-.164063-.179688-.328126-.511719-.460938-.976562-.152344-.480469-.25-.894532-.316406-1.226563l-1.410156-5.621094 6.5 2.054688c.132812.050781.429687.148437.828124.316406.515626.199219.695313.332031.761719.398437.25.28125.234375.613282-.082031 1.042969-.066406.082031-.28125.316407-.929688.914063l-.082031.066406.699219.777344 5.484375-4.972656.085937-.066407-.699218-.78125zm0 0"/><path d="m93.40625 213.769531c-.597656.363281-1.308594.5625-2.121094.578125h-.050781c-.695313 0-1.410156-.132812-2.105469-.394531l-.082031-.035156-.300781.78125.082031.03125c.765625.296875 1.328125.546875 1.644531.746093.296875.199219.480469.414063.511719.628907.035156.234375 0 .515625-.082031.828125-.082032.316406-.214844.699218-.382813 1.144531l-2.105469 5.523437c-.246093.628907-.460937 1.125-.679687 1.492188-.199219.347656-.460937.578125-.792969.679688-.199218.082031-.464844.082031-.765625.015624-.3125-.066406-.660156-.183593-1.042969-.316406l-.332031-.113281-.296875.777344 6.847656 2.601562.296876-.777343-.082032-.035157c-.464844-.179687-.828125-.347656-1.0625-.496093-.378906-.230469-.644531-.511719-.761718-.84375-.117188-.316407-.101563-.746094.066406-1.277344l4.277344-11.242188.03125-.082031-.695313-.265625zm0 0"/><path d="m113.515625 218.777344c-1.257813-.167969-2.402344.230468-3.414063 1.207031-.945312.914063-1.507812 2.023437-1.691406 3.300781-.148437 1.09375.050782 2.121094.597656 3.050782.546876.945312 1.359376 1.492187 2.4375 1.640624.726563.101563 1.441407-.015624 2.105469-.332031.460938-.214843.976563-.597656 1.539063-1.109375l-.015625.183594c-.183594 1.292969-.613281 2.601562-1.308594 3.894531-.828125 1.523438-1.707031 2.238281-2.621094 2.105469-.378906-.050781-.644531-.230469-.777343-.546875-.101563-.214844-.167969-.53125-.183594-.914063-.015625-.414062-.082032-.710937-.214844-.894531-.132812-.199219-.347656-.332031-.648438-.363281-.347656-.050781-.660156.015625-.910156.199219-.25.183593-.398437.445312-.449218.796875-.082032.644531.214843 1.226562.878906 1.738281.546875.414063 1.160156.679687 1.824218.761719.183594.019531.347657.035156.515626.035156.726562 0 1.457031-.214844 2.171874-.628906.761719-.449219 1.425782-1.078125 2.003907-1.90625.464843-.679688.878906-1.476563 1.210937-2.355469.332032-.894531.546875-1.757813.664063-2.621094.230469-1.722656.097656-3.230469-.398438-4.523437-.597656-1.59375-1.722656-2.503906-3.316406-2.71875m1.773437 6.347656c-.480468.582031-.925781 1.011719-1.308593 1.292969-.582031.433593-1.144531.613281-1.65625.546875-.796875-.113282-1.34375-.546875-1.644531-1.359375-.230469-.628907-.28125-1.390625-.164063-2.285157.148437-1.046874.414063-1.910156.828125-2.570312.480469-.765625 1.0625-1.144531 1.808594-1.144531.097656 0 .214844.015625.3125.015625 1.046875.148437 1.675781.863281 1.90625 2.207031.132812.777344.101562 1.886719-.082032 3.296875"/><path d="m135.796875 224.546875c-.546875.046875-1.042969.179687-1.492187.378906-.398438.183594-.792969.433594-1.175782.761719l-.082031-4.410156 5.4375-.480469h.066406l.199219-1.625-6.796875.613281h-.085937l.199218 7.179688v.066406l.832032.28125.03125-.066406c.25-.460938.5625-.828125.945312-1.09375.382812-.28125.828125-.429688 1.328125-.480469.910156-.082031 1.65625.234375 2.21875.960937.480469.632813.78125 1.425782.863281 2.40625.097656 1.058594-.050781 2.003907-.449218 2.816407-.460938.960937-1.191407 1.492187-2.171876 1.59375-.414062.03125-.792968-.050781-1.09375-.234375-.3125-.199219-.480468-.480469-.511718-.859375-.019532-.132813 0-.332031.015625-.582031.015625-.28125.03125-.464844.015625-.546876-.03125-.332031-.164063-.597656-.398438-.8125-.230468-.214843-.53125-.296874-.84375-.265624-.382812.035156-.679687.214843-.847656.53125-.164062.296874-.230469.664062-.199219 1.042968.085938.863282.617188 1.542969 1.578125 2.039063.695313.367187 1.441406.546875 2.1875.546875.132813 0 .28125 0 .414063-.015625 1.34375-.117188 2.453125-.730469 3.300781-1.789063.84375-1.0625 1.207031-2.289062 1.09375-3.648437-.101562-1.210938-.582031-2.253907-1.410156-3.082031-.894532-.945313-1.941406-1.328126-3.167969-1.226563"/><path d="m163.964844 226.964844-.082032.035156c-.464843.148438-.863281.246094-1.144531.296875-.464843.050781-.828125 0-1.125-.183594-.285156-.179687-.546875-.511719-.746093-1.027343l-3.75-11.421876-.03125-.082031-.714844.230469-.015625.050781c-.230469.664063-.664063 1.277344-1.277344 1.789063-.546875.464844-1.207031.8125-1.9375 1.046875l-.082031.03125.261718.796875.085938-.035156c.777344-.246094 1.375-.414063 1.757812-.445313.363282-.050781.628907.015625.792969.164063.183594.167968.332031.398437.464844.699218.132813.3125.28125.679688.414063 1.125l1.839843 5.621094c.21875.644531.347657 1.175781.414063 1.589844.066406.398437 0 .730468-.179688 1.03125-.101562.195312-.300781.347656-.582031.496094-.296875.148437-.628906.28125-1.011719.398437l-.332031.113281.265625.796875 6.882812-2.253906.082032-.035156zm0 0"/><path d="m126.363281 42.808594c-45.574219 0-82.527343 36.953125-82.527343 82.542968 0 45.578126 36.9375 82.515626 82.527343 82.515626 45.578125 0 82.546875-36.9375 82.546875-82.515626-.015625-45.589843-36.96875-82.542968-82.546875-82.542968m0 163.003906c-44.445312 0-80.472656-36.027344-80.472656-80.476562 0-44.445313 36.027344-80.488282 80.472656-80.488282 44.464844 0 80.492188 36.042969 80.492188 80.488282-.015625 44.449218-36.042969 80.476562-80.492188 80.476562"/></g></svg>