<?xml version="1.0" encoding="UTF-8" standalone="no"?>
<svg
   xmlns:dc="http://purl.org/dc/elements/1.1/"
   xmlns:cc="http://creativecommons.org/ns#"
   xmlns:rdf="http://www.w3.org/1999/02/22-rdf-syntax-ns#"
   xmlns:svg="http://www.w3.org/2000/svg"
   xmlns="http://www.w3.org/2000/svg"
   viewBox="0 0 266.66666 266.66666"
   height="266.66666"
   width="266.66666"
   xml:space="preserve"
   id="svg2"
   version="1.1"><metadata
     id="metadata8"><rdf:RDF><cc:Work
         rdf:about=""><dc:format>image/svg+xml</dc:format><dc:type
           rdf:resource="http://purl.org/dc/dcmitype/StillImage" /></cc:Work></rdf:RDF></metadata><defs
     id="defs6"><clipPath
       id="clipPath18"
       clipPathUnits="userSpaceOnUse"><path
         id="path16"
         d="M 0,200 H 200 V 0 H 0 Z" /></clipPath></defs><g
     transform="matrix(1.3333333,0,0,-1.3333333,0,266.66667)"
     id="g10"><g
       id="g12"><g
         clip-path="url(#clipPath18)"
         id="g14"><g
           transform="translate(18.4093,101.4525)"
           id="g20"><path
             id="path22"
             style="fill:#004ea2;fill-opacity:1;fill-rule:nonzero;stroke:none"
             d="M 0,0 C 0.534,22.962 10.459,43.549 26.087,58.114 L 13.063,71.175 C -5.891,53.269 -17.878,28.071 -18.409,0 Z" /></g><g
           transform="translate(18.4093,97.6228)"
           id="g24"><path
             id="path26"
             style="fill:#004ea2;fill-opacity:1;fill-rule:nonzero;stroke:none"
             d="m 0,0 h -18.409 c 0.531,-28.074 12.515,-53.266 31.468,-71.182 l 13.019,13.064 C 10.456,-43.545 0.528,-22.971 0,0" /></g><g
           transform="translate(34.2968,23.8547)"
           id="g28"><path
             id="path30"
             style="fill:#004ea2;fill-opacity:1;fill-rule:nonzero;stroke:none"
             d="M 0,0 C 11.028,-9.65 24.151,-16.894 38.637,-20.974 V -1.686 C 29.096,1.651 20.579,6.662 13.021,13.077 Z" /></g><g
           transform="translate(199.9986,97.6228)"
           id="g32"><path
             id="path34"
             style="fill:#004ea2;fill-opacity:1;fill-rule:nonzero;stroke:none"
             d="m 0,0 h -18.412 c -0.447,-19.405 -7.568,-37.144 -19.213,-50.967 L -24.604,-64.03 C -9.659,-46.826 -0.459,-24.512 0,0" /></g><g
           transform="translate(159.8013,43.8145)"
           id="g36"><path
             id="path38"
             style="fill:#004ea2;fill-opacity:1;fill-rule:nonzero;stroke:none"
             d="m 0,0 c -9.111,-9.847 -20.583,-17.437 -33.551,-21.86 v -19.282 c 18.077,4.929 34.101,14.779 46.572,28.078 z" /></g><g
           transform="translate(162.3717,152.4059)"
           id="g40"><path
             id="path42"
             style="fill:#004ea2;fill-opacity:1;fill-rule:nonzero;stroke:none"
             d="M 0,0 C 11.642,-13.813 18.763,-31.552 19.216,-50.954 H 37.628 C 37.169,-26.449 27.963,-4.138 13.018,13.07 Z" /></g><g
           transform="translate(47.3221,162.1388)"
           id="g44"><path
             id="path46"
             style="fill:#004ea2;fill-opacity:1;fill-rule:nonzero;stroke:none"
             d="m 0,0 c 14.227,12.076 32.592,19.38 52.674,19.38 0.102,0 0.197,-0.013 0.298,-0.013 v 18.478 c -0.101,0 -0.196,0.016 -0.298,0.016 -25.169,0 -48.103,-9.396 -65.696,-24.797 z" /></g><g
           transform="translate(104.118,181.3047)"
           id="g48"><path
             id="path50"
             style="fill:#004ea2;fill-opacity:1;fill-rule:nonzero;stroke:none"
             d="m 0,0 c 21.984,-1.093 41.646,-10.876 55.683,-26.055 l 13.018,13.061 C 51.327,5.532 27.071,17.379 0,18.484 Z" /></g><g
           transform="translate(103.3053,175.974)"
           id="g52"><path
             id="path54"
             style="fill:#004ea2;fill-opacity:1;fill-rule:nonzero;stroke:none"
             d="m 0,0 c 1.088,-0.092 2.177,-0.264 3.262,-0.407 0.733,-2.931 1.474,-5.862 2.249,-8.777 1.474,2.614 2.79,5.316 4.242,7.946 1.06,-0.15 2.12,-0.27 3.183,-0.42 -0.022,-0.158 -0.073,-0.457 -0.092,-0.616 -0.484,0.029 -0.977,0.051 -1.461,0.042 -0.339,-3.106 -0.731,-6.208 -1.073,-9.314 0.49,-0.111 0.99,-0.226 1.481,-0.33 -0.016,-0.159 -0.038,-0.474 -0.051,-0.623 -1.487,0.188 -2.977,0.378 -4.464,0.572 0.016,0.155 0.051,0.457 0.063,0.613 0.535,-0.013 1.07,-0.042 1.604,-0.058 0.311,2.954 0.719,5.897 0.997,8.847 C 8.238,-5.611 6.701,-8.79 4.97,-11.864 4.749,-11.711 4.641,-11.48 4.593,-11.219 3.771,-7.983 2.91,-4.76 2.11,-1.518 1.711,-4.459 1.411,-7.412 1.069,-10.362 c 0.446,-0.095 0.905,-0.193 1.36,-0.292 -0.009,-0.168 -0.022,-0.479 -0.031,-0.638 -1.231,0.152 -2.455,0.314 -3.67,0.479 0.013,0.207 0.032,0.416 0.054,0.623 0.506,-0.022 1.012,-0.051 1.525,-0.057 0.319,3.121 0.753,6.22 1.047,9.345 C 0.889,-0.81 0.443,-0.708 -0.019,-0.607 -0.013,-0.4 -0.006,-0.2 0,0" /></g><g
           transform="translate(95.6387,175.8019)"
           id="g56"><path
             id="path58"
             style="fill:#004ea2;fill-opacity:1;fill-rule:nonzero;stroke:none"
             d="m 0,0 c 1.436,0.035 2.876,0.044 4.306,-0.006 -0.007,-0.2 -0.007,-0.407 -0.013,-0.601 -0.471,-0.05 -0.94,-0.108 -1.402,-0.149 -0.031,-3.14 0,-6.268 -0.015,-9.399 0.462,-0.057 0.933,-0.105 1.407,-0.137 0,-0.213 0.01,-0.425 0.01,-0.641 -1.433,-0.01 -2.87,0 -4.299,0 0.006,0.216 0.012,0.419 0.019,0.635 0.477,0.044 0.955,0.092 1.43,0.136 C 1.452,-7.024 1.487,-3.89 1.43,-0.749 0.946,-0.715 0.468,-0.657 -0.006,-0.6 -0.006,-0.397 0,-0.2 0,0" /></g><g
           transform="translate(84.161,174.3025)"
           id="g60"><path
             id="path62"
             style="fill:#004ea2;fill-opacity:1;fill-rule:nonzero;stroke:none"
             d="M 0,0 C 2.863,0.378 5.71,0.87 8.57,1.229 8.671,0.321 8.842,-0.588 8.905,-1.502 8.649,-1.508 8.399,-1.521 8.153,-1.527 7.994,-0.902 7.786,-0.295 7.596,0.314 6.757,0.194 5.922,0.057 5.084,-0.045 c 0.37,-3.102 0.819,-6.195 1.208,-9.297 0.551,0.038 1.098,0.073 1.652,0.073 0.009,-0.153 0.032,-0.445 0.038,-0.594 -1.525,-0.222 -3.047,-0.48 -4.578,-0.658 v 0.629 c 0.497,0.115 1.003,0.191 1.487,0.359 0.006,0.121 0.006,0.241 -0.007,0.362 C 4.47,-6.211 4.1,-3.239 3.689,-0.279 2.847,-0.381 2.009,-0.515 1.167,-0.645 1.123,-1.308 1.12,-1.982 1.076,-2.645 0.832,-2.667 0.585,-2.686 0.342,-2.709 0.228,-1.807 0.079,-0.912 0,0" /></g><g
           transform="translate(76.921,172.2)"
           id="g64"><path
             id="path66"
             style="fill:#004ea2;fill-opacity:1;fill-rule:nonzero;stroke:none"
             d="M 0,0 C 1.401,0.365 2.774,0.845 4.192,1.137 4.201,0.991 4.201,0.699 4.208,0.559 3.787,0.349 3.353,0.197 2.926,0.022 3.682,-2.995 4.464,-6.002 5.21,-9.025 c 0.5,0.076 0.997,0.156 1.503,0.222 0.013,-0.206 0.029,-0.406 0.044,-0.615 -1.388,-0.35 -2.749,-0.791 -4.128,-1.137 -0.044,0.2 -0.079,0.406 -0.117,0.606 0.443,0.165 0.892,0.343 1.341,0.515 C 3.097,-6.402 2.312,-3.385 1.56,-0.365 1.066,-0.442 0.569,-0.521 0.07,-0.594 0.051,-0.442 0.022,-0.149 0,0" /></g><g
           transform="translate(119.7659,173.3084)"
           id="g68"><path
             id="path70"
             style="fill:#004ea2;fill-opacity:1;fill-rule:nonzero;stroke:none"
             d="M 0,0 C 2.382,-0.813 4.767,-1.607 7.14,-2.467 6.868,-3.331 6.599,-4.201 6.337,-5.065 6.093,-4.973 5.853,-4.881 5.615,-4.789 5.717,-4.144 5.796,-3.496 5.872,-2.845 4.749,-2.448 3.61,-2.08 2.483,-1.674 2.044,-2.953 1.667,-4.268 1.265,-5.567 1.974,-5.811 2.664,-6.084 3.388,-6.275 3.553,-5.84 3.739,-5.411 3.935,-4.982 4.081,-5.027 4.356,-5.116 4.499,-5.16 4.185,-6.354 3.78,-7.526 3.432,-8.72 c -0.18,0.057 -0.357,0.124 -0.528,0.184 -0.028,0.511 0.171,1.02 0.222,1.525 -0.69,0.193 -1.348,0.495 -2.044,0.673 C 0.933,-6.497 0.911,-6.732 0.832,-6.926 0.49,-8.155 0.063,-9.349 -0.25,-10.578 c 1.218,-0.387 2.398,-0.851 3.622,-1.206 0.263,0.565 0.551,1.121 0.836,1.68 0.24,-0.061 0.474,-0.115 0.718,-0.172 -0.206,-0.889 -0.525,-1.737 -0.769,-2.61 -2.461,0.759 -4.875,1.683 -7.33,2.477 0.054,0.212 0.117,0.419 0.19,0.632 0.455,-0.143 0.927,-0.258 1.401,-0.321 0.892,2.966 1.81,5.925 2.733,8.882 -0.446,0.222 -0.889,0.428 -1.338,0.644 C -0.13,-0.387 -0.063,-0.194 0,0" /></g><g
           transform="translate(68.6333,168.1331)"
           id="g72"><path
             id="path74"
             style="fill:#004ea2;fill-opacity:1;fill-rule:nonzero;stroke:none"
             d="M 0,0 C 0.598,-1.293 1.053,-2.636 1.629,-3.934 2.414,-3.538 3.372,-3.28 3.86,-2.493 4.48,-1.499 3.973,-0.134 3.056,0.473 2.056,1.003 0.905,0.508 0,0 M 0.832,1.27 C 1.778,1.658 2.863,1.997 3.872,1.623 5.248,1.15 5.903,-0.651 5.283,-1.944 5.027,-2.518 4.594,-3.001 4.116,-3.414 4.761,-3.401 5.327,-3.785 5.824,-4.166 6.691,-4.874 7.517,-5.637 8.371,-6.373 8.792,-6.246 9.206,-6.116 9.62,-5.98 9.684,-6.186 9.747,-6.396 9.814,-6.602 9.007,-6.894 8.244,-7.294 7.453,-7.624 6.387,-6.716 5.46,-5.637 4.315,-4.817 3.61,-4.306 2.702,-4.214 1.901,-4.56 2.271,-5.716 2.8,-6.815 3.227,-7.961 3.334,-8.145 3.334,-8.431 3.54,-8.539 4.052,-8.396 4.543,-8.174 5.062,-8.072 5.112,-8.259 5.163,-8.453 5.21,-8.637 3.853,-9.241 2.493,-9.86 1.123,-10.46 c -0.076,0.184 -0.161,0.371 -0.24,0.556 0.414,0.266 0.841,0.501 1.274,0.724 -1.126,2.899 -2.322,5.766 -3.461,8.653 -0.461,-0.137 -0.923,-0.286 -1.379,-0.451 -0.079,0.194 -0.158,0.384 -0.234,0.571 1.247,0.566 2.49,1.137 3.749,1.677" /></g><g
           transform="translate(59.2088,161.2889)"
           id="g76"><path
             id="path78"
             style="fill:#004ea2;fill-opacity:1;fill-rule:nonzero;stroke:none"
             d="m 0,0 c 0.171,-1.423 0.399,-2.833 0.582,-4.252 0.841,0.521 1.686,1.013 2.515,1.543 C 2.075,-1.794 1.047,-0.886 0,0 m -1.006,1.943 c -0.127,0.308 0.357,0.623 0.554,0.366 2.651,-2.315 5.27,-4.659 7.918,-6.977 0.405,0.2 0.826,0.403 1.269,0.543 0.079,-0.172 0.164,-0.343 0.25,-0.511 -1.19,-0.74 -2.379,-1.496 -3.604,-2.175 -0.063,0.13 -0.199,0.387 -0.262,0.508 0.348,0.301 0.711,0.587 1.079,0.857 -0.845,0.73 -1.655,1.499 -2.547,2.182 -0.997,-0.531 -1.924,-1.182 -2.905,-1.731 0.114,-1.181 0.307,-2.35 0.462,-3.525 0.415,0.2 0.82,0.394 1.241,0.581 0.079,-0.194 0.148,-0.394 0.221,-0.587 -1.022,-0.566 -1.99,-1.194 -2.986,-1.794 -0.092,0.174 -0.247,0.33 -0.276,0.53 0.332,0.327 0.725,0.578 1.098,0.857 C 0,-5.31 -0.506,-1.68 -1.006,1.943" /></g><g
           transform="translate(140.7978,163.2102)"
           id="g80"><path
             id="path82"
             style="fill:#004ea2;fill-opacity:1;fill-rule:nonzero;stroke:none"
             d="M 0,0 C 0.076,0.121 0.234,0.381 0.313,0.508 1.515,-0.356 2.683,-1.27 3.844,-2.201 3.714,-2.36 3.594,-2.515 3.474,-2.68 3.046,-2.401 2.619,-2.131 2.183,-1.864 1.009,-3.515 -0.114,-5.205 -1.269,-6.869 c -0.534,-0.806 -1.173,-1.756 -0.832,-2.762 0.456,-1.388 1.936,-2.582 3.439,-2.258 0.981,0.213 1.56,1.102 2.107,1.857 1.069,1.569 2.186,3.109 3.211,4.7 -0.3,0.394 -0.721,0.68 -1.053,1.032 0.114,0.162 0.234,0.327 0.364,0.492 C 6.969,-4.56 7.95,-5.332 8.947,-6.081 8.861,-6.259 8.782,-6.437 8.7,-6.615 8.257,-6.402 7.836,-6.138 7.409,-5.881 6.321,-7.488 5.217,-9.092 4.106,-10.689 c -0.711,-0.994 -1.657,-2.023 -2.955,-2.146 -1.287,-0.07 -2.458,0.673 -3.331,1.559 -0.724,0.686 -1.275,1.635 -1.259,2.667 -0.057,0.962 0.512,1.807 1.025,2.579 1.155,1.67 2.3,3.35 3.455,5.023 C 0.712,-0.657 0.364,-0.324 0,0" /></g><g
           transform="translate(58.8876,112.3649)"
           id="g84"><path
             id="path86"
             style="fill:#004ea2;fill-opacity:1;fill-rule:nonzero;stroke:none"
             d="m 0,0 c 0.006,-1.727 -0.013,-3.458 0.006,-5.186 2.3,0.007 4.606,0.007 6.907,0 0.218,-2.245 0.591,-4.49 1.319,-6.64 2.028,-6.011 5.792,-11.349 10.528,-15.528 5.227,-4.661 11.51,-8.011 18.09,-10.304 1.275,-0.432 2.569,-0.902 3.929,-0.915 1.133,-0.022 2.224,0.331 3.29,0.677 3.281,1.124 6.521,2.423 9.612,4.017 5.555,2.845 10.708,6.659 14.508,11.663 3.809,4.938 5.995,10.946 7.106,17.043 2.306,-0.022 4.606,0 6.912,-0.013 0.022,1.737 0.016,3.465 0,5.192 -3.239,-0.032 -6.485,0.023 -9.725,-0.025 -1.528,-5.44 -4.328,-10.533 -8.222,-14.63 -4.572,-4.861 -10.757,-8.11 -17.302,-9.301 -6.549,-1.219 -13.468,-0.403 -19.536,2.392 -5.517,2.502 -10.25,6.681 -13.483,11.819 -1.971,3.016 -3.36,6.36 -4.534,9.752 C 6.27,-0.026 3.132,0.006 0,0 M 60.109,26.95 C 51.403,20.86 42.693,14.772 33.987,8.682 32.658,7.72 31.26,6.846 29.979,5.833 29.931,2.251 29.966,-1.337 29.96,-4.916 44.468,5.198 58.948,15.35 73.444,25.493 c -0.563,0.555 -1.218,1.006 -1.908,1.384 -2.442,1.343 -5.277,1.972 -8.045,1.759 -1.316,-0.073 -2.335,-0.994 -3.382,-1.686 m -5.501,5.742 C 46.113,26.941 37.647,21.146 29.153,15.395 29.128,13.219 29.14,11.047 29.146,8.875 c 0.564,0.274 1.041,0.68 1.544,1.039 10.475,7.405 20.934,14.82 31.396,22.222 -2.154,1.407 -5.217,2.143 -7.478,0.556 m -10.725,1.444 c -2.99,-2.172 -6.014,-4.312 -8.998,-6.5 -1.996,2.544 -4.793,4.36 -7.776,5.529 -5.074,1.972 -10.684,2.13 -16.017,1.314 1.316,-1.721 2.632,-3.445 3.957,-5.16 0.114,-0.155 0.228,-0.317 0.228,-0.527 0.557,-5.525 1.12,-11.057 1.68,-16.579 0.351,-3.344 0.607,-6.697 1.139,-10.019 0.528,-3.143 1.348,-6.268 2.778,-9.133 1.502,-2.972 3.638,-5.623 6.229,-7.71 2.635,-2.181 5.938,-3.68 9.393,-3.693 3.185,-0.085 6.292,0.956 9.089,2.414 2.755,1.391 5.22,3.264 7.725,5.046 10.852,7.703 21.681,15.442 32.535,23.146 -0.284,1.413 -1.18,2.623 -2.176,3.629 -2.167,2.096 -5.056,3.201 -7.913,3.95 C 74.934,20.075 74.064,19.85 73.38,19.361 62.352,11.505 51.301,3.68 40.267,-4.173 c -1.892,-1.384 -3.695,-3.045 -5.999,-3.715 -2.486,-0.702 -5.349,-0.343 -7.415,1.273 -1.8,1.401 -2.854,3.535 -3.496,5.688 -1.215,4.252 -1.493,8.697 -1.787,13.098 -0.282,4.97 -0.861,9.924 -1.266,14.89 -0.041,0.75 -0.206,1.49 -0.275,2.239 -0.016,0.2 -0.01,0.565 0.291,0.543 0.747,0.061 1.481,-0.2 2.183,-0.451 1.889,-0.714 3.268,-2.385 4.03,-4.223 1.025,-2.43 1.269,-5.094 1.377,-7.71 6.76,4.68 13.531,9.345 20.288,14.029 1.639,1.156 3.325,2.236 4.919,3.442 -1.385,0.937 -3.09,1.401 -4.754,1.286 -1.69,-0.143 -3.132,-1.121 -4.48,-2.08 M 21.171,44.793 c 9.896,3.436 20.69,4.201 30.985,2.293 13.334,-2.423 25.73,-9.517 34.702,-19.694 4.663,-5.272 8.437,-11.35 11.063,-17.888 6.008,-14.82 5.881,-32.021 -0.364,-46.74 -7.26,1.728 -14.758,2.391 -22.221,2.293 -7.188,-0.13 -14.401,-1.108 -21.273,-3.296 -4.539,-1.451 -8.924,-3.436 -12.93,-6.043 -0.433,0.584 -1.094,0.914 -1.698,1.279 -2.398,1.312 -4.936,2.363 -7.492,3.322 -7.387,2.731 -15.135,4.531 -22.981,5.224 -8.241,0.708 -16.688,0.092 -24.578,-2.553 -3.17,7.637 -4.78,15.921 -4.669,24.2 0.066,12.197 3.932,24.321 10.873,34.327 7.397,10.749 18.261,19.059 30.583,23.276" /></g><g
           transform="translate(49.9805,157.3504)"
           id="g88"><path
             id="path90"
             style="fill:#004ea2;fill-opacity:1;fill-rule:nonzero;stroke:none"
             d="M 0,0 C 0.136,0.098 0.234,0.356 0.44,0.302 0.563,0.171 0.674,0.038 0.791,-0.108 0.462,-0.47 0.158,-0.857 -0.133,-1.258 c 2.085,-2.222 4.192,-4.417 6.27,-6.64 0.38,0.318 0.712,0.674 1.111,0.956 0.272,0.061 0.329,-0.247 0.455,-0.409 -1.053,-1.102 -2.085,-2.217 -3.148,-3.303 -0.135,0.133 -0.275,0.267 -0.411,0.4 0.314,0.464 0.69,0.886 1.009,1.344 -2.012,2.095 -3.986,4.22 -6.001,6.309 1.269,-3.229 2.601,-6.44 3.869,-9.676 0.162,-0.422 -0.323,-0.387 -0.544,-0.215 -2.939,1.279 -5.843,2.635 -8.804,3.867 1.948,-2.08 3.913,-4.153 5.878,-6.227 0.357,0.302 0.705,0.61 1.047,0.931 0.158,-0.127 0.313,-0.248 0.478,-0.378 -0.82,-0.981 -1.737,-1.88 -2.62,-2.801 -0.136,0.165 -0.272,0.327 -0.408,0.486 0.335,0.378 0.648,0.778 0.949,1.187 -2.079,2.214 -4.189,4.398 -6.258,6.624 -0.386,-0.308 -0.762,-0.638 -1.139,-0.959 -0.107,0.159 -0.512,0.321 -0.294,0.553 0.706,0.775 1.44,1.527 2.167,2.293 2.683,-1.147 5.318,-2.388 7.992,-3.544 -1.123,2.801 -2.221,5.608 -3.36,8.405 C -1.304,-1.337 -0.627,-0.692 0,0" /></g><g
           transform="translate(152.1808,154.0634)"
           id="g92"><path
             id="path94"
             style="fill:#004ea2;fill-opacity:1;fill-rule:nonzero;stroke:none"
             d="M 0,0 C 0.196,0.121 0.433,0.578 0.655,0.229 1.253,-0.397 1.794,-1.093 2.392,-1.727 1.914,-4.989 1.316,-8.24 0.813,-11.499 2.439,-9.92 4.081,-8.333 5.669,-6.694 5.432,-6.345 5.188,-5.995 4.948,-5.646 5.096,-5.49 5.255,-5.332 5.41,-5.173 6.194,-6.024 6.947,-6.9 7.716,-7.761 7.567,-7.917 7.409,-8.072 7.254,-8.225 6.913,-7.932 6.571,-7.631 6.207,-7.361 4.514,-9.104 2.755,-10.768 1.031,-12.483 c -0.62,-0.629 -1.246,-1.267 -1.914,-1.835 -0.164,0.219 -0.3,0.454 -0.193,0.733 0.611,3.658 1.218,7.316 1.816,10.984 -1.917,-1.858 -3.818,-3.731 -5.701,-5.624 0.26,-0.343 0.503,-0.701 0.731,-1.073 -0.164,-0.143 -0.319,-0.286 -0.478,-0.429 -0.765,0.864 -1.556,1.709 -2.277,2.608 0.142,0.152 0.284,0.295 0.436,0.444 0.355,-0.286 0.69,-0.584 1.038,-0.876 2.129,2.108 4.284,4.185 6.387,6.306 C 0.56,-0.842 0.262,-0.429 0,0" /></g><g
           transform="translate(161.4435,143.202)"
           id="g96"><path
             id="path98"
             style="fill:#004ea2;fill-opacity:1;fill-rule:nonzero;stroke:none"
             d="M 0,0 C 0.12,0.076 0.364,0.225 0.478,0.308 1.294,-0.943 2.1,-2.201 2.891,-3.474 2.727,-3.582 2.563,-3.69 2.404,-3.795 c -0.31,0.384 -0.62,0.769 -0.924,1.166 -2.455,-1.737 -4.89,-3.503 -7.352,-5.224 0.218,-0.48 0.462,-0.937 0.68,-1.413 -0.177,-0.096 -0.348,-0.188 -0.519,-0.283 -0.79,1.251 -1.588,2.496 -2.378,3.731 0.158,0.127 0.313,0.258 0.477,0.388 0.307,-0.381 0.598,-0.769 0.883,-1.159 0.266,0.136 0.522,0.286 0.762,0.463 2.208,1.601 4.445,3.151 6.65,4.754 C 0.449,-0.915 0.221,-0.464 0,0" /></g><g
           transform="translate(164.298,138.386)"
           id="g100"><path
             id="path102"
             style="fill:#004ea2;fill-opacity:1;fill-rule:nonzero;stroke:none"
             d="m 0,0 c 0.171,0.114 0.348,0.219 0.528,0.327 0.674,-1.27 1.386,-2.521 2.057,-3.795 -0.13,-0.07 -0.386,-0.222 -0.513,-0.292 -0.266,0.384 -0.528,0.762 -0.797,1.143 -1.696,-2.194 -3.433,-4.356 -5.113,-6.57 2.671,0.41 5.325,0.896 7.989,1.318 -0.159,0.435 -0.348,0.851 -0.535,1.273 0.114,0.077 0.342,0.242 0.456,0.327 C 4.749,-7.304 5.29,-8.425 5.887,-9.504 5.71,-9.596 5.533,-9.692 5.353,-9.793 c -0.25,0.375 -0.497,0.74 -0.747,1.111 l -0.114,0.054 c -3.461,-0.559 -6.922,-1.105 -10.38,-1.67 -0.057,0.2 -0.326,0.419 -0.136,0.629 2.164,2.788 4.372,5.544 6.524,8.338 C 0.456,-0.867 0.164,-0.445 0,0" /></g><g
           transform="translate(32.5883,134.733)"
           id="g104"><path
             id="path106"
             style="fill:#004ea2;fill-opacity:1;fill-rule:nonzero;stroke:none"
             d="M 0,0 C 0.193,-0.092 0.541,-0.07 0.576,-0.334 0.474,-0.743 0.291,-1.127 0.212,-1.543 0.569,-1.845 1.025,-1.988 1.433,-2.207 3.901,-3.503 6.4,-4.754 8.871,-6.059 8.763,-6.24 8.713,-6.51 8.463,-6.526 4.97,-7.269 1.468,-7.974 -2.038,-8.698 c 2.323,-1.241 4.673,-2.435 7.021,-3.623 0.199,0.372 0.404,0.737 0.62,1.108 0.186,-0.108 0.449,-0.133 0.585,-0.314 -0.456,-1.08 -0.965,-2.137 -1.468,-3.185 -0.183,0.092 -0.376,0.184 -0.569,0.276 0.148,0.451 0.297,0.896 0.442,1.343 -2.628,1.337 -5.242,2.696 -7.861,4.046 -0.263,-0.413 -0.506,-0.835 -0.728,-1.28 -0.205,0.067 -0.405,0.137 -0.61,0.203 0.326,0.95 0.825,1.836 1.218,2.763 3.053,0.645 6.121,1.258 9.177,1.909 -1.961,1.079 -3.973,2.045 -5.944,3.099 -0.25,-0.356 -0.478,-0.727 -0.693,-1.105 -0.193,0.079 -0.392,0.155 -0.585,0.235 C -1.025,-2.121 -0.449,-1.086 0,0" /></g><g
           transform="translate(170.392,126.3447)"
           id="g108"><path
             id="path110"
             style="fill:#004ea2;fill-opacity:1;fill-rule:nonzero;stroke:none"
             d="M 0,0 C 0.187,0.041 0.38,0.086 0.569,0.127 1.354,-2.366 2.202,-4.84 2.974,-7.342 2.173,-7.647 1.354,-7.913 0.547,-8.24 c -0.091,0.247 -0.183,0.498 -0.278,0.752 0.544,0.337 1.098,0.654 1.651,0.985 -0.389,1.193 -0.788,2.388 -1.158,3.578 -1.224,-0.444 -2.458,-0.876 -3.673,-1.333 0.241,-0.724 0.472,-1.455 0.703,-2.179 0.455,0.07 0.911,0.175 1.36,0.286 0.051,-0.216 0.101,-0.422 0.149,-0.638 -1.108,-0.381 -2.193,-0.807 -3.303,-1.188 -0.057,0.21 -0.12,0.416 -0.177,0.622 0.44,0.216 0.876,0.429 1.303,0.667 -0.262,0.708 -0.478,1.436 -0.699,2.157 -1.36,-0.417 -2.683,-0.953 -4.027,-1.429 0.398,-1.271 0.832,-2.528 1.23,-3.808 0.62,0.092 1.237,0.191 1.857,0.286 0.073,-0.251 0.136,-0.502 0.216,-0.753 -0.82,-0.279 -1.617,-0.6 -2.436,-0.863 -0.81,2.588 -1.731,5.144 -2.484,7.754 0.177,0.048 0.358,0.099 0.532,0.149 0.215,-0.45 0.408,-0.908 0.591,-1.368 2.822,0.952 5.584,2.048 8.393,3.013 C 0.215,-1.032 0.098,-0.515 0,0" /></g><g
           transform="translate(27.6189,114.9095)"
           id="g112"><path
             id="path114"
             style="fill:#004ea2;fill-opacity:1;fill-rule:nonzero;stroke:none"
             d="M 0,0 C 0.968,-0.762 1.971,-1.486 2.948,-2.245 3.046,-2.334 3.382,-2.537 3.382,-2.258 3.575,-1.34 3.837,-0.445 3.992,0.479 2.664,0.308 1.322,0.194 0,0 M 8.814,3.709 C 8.956,3.696 9.247,3.658 9.39,3.642 9.149,2.21 8.719,0.822 8.437,-0.607 8.295,-0.584 7.994,-0.549 7.846,-0.53 7.903,-0.041 7.966,0.441 8.023,0.93 6.928,0.794 5.821,0.673 4.736,0.508 4.514,-0.651 4.144,-1.772 3.973,-2.934 c 0.861,-0.731 1.778,-1.388 2.696,-2.061 0.136,0.432 0.272,0.867 0.392,1.299 0.209,-0.07 0.405,-0.134 0.608,-0.2 -0.307,-1.169 -0.586,-2.357 -0.848,-3.544 -0.2,0.06 -0.393,0.12 -0.592,0.171 0.073,0.473 0.143,0.937 0.212,1.41 -2.803,2.163 -5.65,4.274 -8.45,6.44 -0.269,0.127 -0.092,0.425 -0.085,0.648 3.347,0.359 6.688,0.765 10.031,1.124 0.706,-0.032 0.627,0.889 0.877,1.356" /></g><g
           transform="translate(169.8452,111.6301)"
           id="g116"><path
             id="path118"
             style="fill:#004ea2;fill-opacity:1;fill-rule:nonzero;stroke:none"
             d="M 0,0 C 0.171,-0.934 0.177,-2.007 0.873,-2.737 1.828,-3.703 3.692,-3.16 4.072,-1.88 4.363,-1.051 4.186,-0.159 4.065,0.686 2.705,0.47 1.351,0.244 0,0 M 3.815,3.737 C 3.992,3.744 4.179,3.75 4.369,3.76 4.555,2.264 4.834,0.787 5.011,-0.708 5.081,-1.75 5.141,-2.928 4.476,-3.817 3.866,-4.703 2.648,-5.001 1.658,-4.684 c -0.832,0.34 -1.339,1.134 -1.759,1.883 -0.228,-0.552 -0.605,-1.029 -1.07,-1.407 -0.873,-0.746 -1.812,-1.416 -2.705,-2.153 0.032,-0.454 0.051,-0.917 0.057,-1.365 -0.199,-0.006 -0.389,-0.022 -0.582,-0.022 -0.098,0.873 -0.291,1.727 -0.357,2.6 1.12,1.121 2.72,1.769 3.698,3.074 0.418,0.556 0.481,1.28 0.411,1.96 -1.36,-0.223 -2.72,-0.416 -4.074,-0.699 0.066,-0.553 0.11,-1.108 0.136,-1.667 -0.149,-0.022 -0.446,-0.048 -0.598,-0.07 -0.184,1.569 -0.513,3.122 -0.655,4.687 0.136,0.006 0.402,0.006 0.535,0.006 0.192,-0.447 0.249,-0.952 0.363,-1.429 2.933,0.445 5.859,0.982 8.786,1.445 C 3.828,2.686 3.803,3.217 3.815,3.737" /></g><g
           transform="translate(24.0368,103.1844)"
           id="g120"><path
             id="path122"
             style="fill:#004ea2;fill-opacity:1;fill-rule:nonzero;stroke:none"
             d="M 0,0 C 0.13,1.515 0.199,3.042 0.405,4.55 0.541,4.544 0.807,4.531 0.933,4.522 0.94,4.017 0.94,3.515 0.946,3.007 3.894,2.642 6.862,2.448 9.82,2.143 c 0.092,0.505 0.177,1.013 0.269,1.521 0.152,-0.012 0.443,-0.047 0.585,-0.073 -0.13,-1.498 -0.243,-3.007 -0.38,-4.515 -0.148,0.009 -0.439,0.032 -0.588,0.044 0,0.508 0,1.013 0.013,1.515 C 6.764,0.949 3.803,1.207 0.835,1.464 0.75,0.978 0.671,0.492 0.598,0.006 0.399,0.006 0.199,0 0,0" /></g><g
           transform="translate(171.4811,102.3688)"
           id="g124"><path
             id="path126"
             style="fill:#004ea2;fill-opacity:1;fill-rule:nonzero;stroke:none"
             d="M 0,0 C 0.803,0.857 2.243,0.87 3.157,0.181 4.024,-0.407 4.48,-1.458 4.555,-2.48 4.622,-3.496 4.514,-4.522 4.223,-5.494 3.398,-5.49 2.563,-5.503 1.737,-5.49 c 0,0.266 -0.007,0.53 0,0.793 0.614,0.131 1.23,0.254 1.844,0.394 C 3.894,-3.36 4.03,-2.21 3.398,-1.366 2.999,-0.8 2.199,-0.581 1.575,-0.886 0.883,-1.172 0.585,-1.902 0.3,-2.537 c -0.477,-1.042 -0.8,-2.211 -1.622,-3.036 -0.706,-0.715 -1.832,-0.8 -2.737,-0.508 -0.974,0.333 -1.629,1.251 -1.92,2.2 -0.421,1.401 -0.25,2.903 0.114,4.287 0.838,0.093 1.679,0.038 2.518,0.051 0,-0.276 0,-0.555 -0.007,-0.838 -0.626,-0.111 -1.252,-0.242 -1.879,-0.4 -0.3,-1.026 -0.37,-2.23 0.206,-3.173 0.364,-0.619 1.155,-0.965 1.844,-0.736 0.693,0.187 1.133,0.809 1.44,1.416 C -1.202,-2.166 -0.895,-0.892 0,0" /></g><g
           transform="translate(31.7343,101.3534)"
           id="g128"><path
             id="path130"
             style="fill:#004ea2;fill-opacity:1;fill-rule:nonzero;stroke:none"
             d="m 0,0 c 0.86,0.006 1.715,0.028 2.575,-0.013 -0.019,-2.651 0,-5.309 -0.012,-7.964 h -0.58 c -0.047,0.496 -0.088,0.988 -0.12,1.489 -2.967,0.061 -5.935,0.013 -8.912,0.023 -0.044,-0.518 -0.091,-1.023 -0.158,-1.537 -0.212,0.057 -0.674,-0.067 -0.576,0.327 -0.019,1.406 0.007,2.816 -0.012,4.233 0.189,0.022 0.392,0.041 0.582,0.063 0.073,-0.53 0.13,-1.067 0.164,-1.61 2.961,-0.022 5.916,0 8.877,-0.006 0.029,1.28 -0.006,2.559 0.023,3.833 C 1.24,-1.029 0.611,-0.912 0,-0.791 -0.006,-0.527 0,-0.264 0,0" /></g><g
           transform="translate(165.4504,94.165)"
           id="g132"><path
             id="path134"
             style="fill:#004ea2;fill-opacity:1;fill-rule:nonzero;stroke:none"
             d="M 0,0 C 0.199,-0.029 0.399,-0.07 0.598,-0.108 0.579,-0.6 0.541,-1.093 0.516,-1.594 3.439,-2.109 6.394,-2.486 9.333,-2.928 9.447,-2.445 9.557,-1.966 9.655,-1.48 9.804,-1.486 10.101,-1.499 10.247,-1.518 10.07,-3.007 9.848,-4.503 9.662,-6.002 9.529,-5.995 9.241,-5.989 9.099,-5.989 9.092,-5.459 9.114,-4.932 9.127,-4.411 6.194,-3.989 3.268,-3.544 0.335,-3.109 0.215,-3.601 0.101,-4.096 0,-4.595 -0.199,-4.566 -0.392,-4.544 -0.582,-4.525 -0.405,-3.014 -0.177,-1.508 0,0" /></g><g
           transform="translate(27.8676,84.8463)"
           id="g136"><path
             id="path138"
             style="fill:#004ea2;fill-opacity:1;fill-rule:nonzero;stroke:none"
             d="M 0,0 C -0.171,-0.092 -0.32,-0.226 -0.44,-0.378 0.854,-0.67 2.145,-0.988 3.445,-1.27 3.303,-0.264 3.132,0.737 2.999,1.743 1.987,1.188 1.003,0.575 0,0 M 6.216,6.776 C 6.365,6.795 6.662,6.834 6.814,6.843 6.992,5.411 7.254,3.979 7.434,2.543 7.248,2.515 7.055,2.486 6.862,2.458 6.748,2.915 6.637,3.366 6.536,3.817 5.552,3.274 4.6,2.674 3.638,2.102 3.822,0.927 3.986,-0.251 4.173,-1.423 c 1.082,-0.279 2.176,-0.492 3.252,-0.8 0,0.48 -0.025,0.943 -0.07,1.416 0.2,0.026 0.39,0.051 0.582,0.08 C 8.108,-1.95 8.33,-3.16 8.472,-4.373 8.279,-4.395 8.08,-4.423 7.89,-4.446 7.782,-3.979 7.669,-3.515 7.548,-3.052 4.157,-2.239 0.762,-1.445 -2.619,-0.629 -2.92,-0.584 -3.025,-0.013 -2.683,0.07 0.177,1.756 3.031,3.439 5.903,5.116 6.571,5.373 6.144,6.24 6.216,6.776" /></g><g
           transform="translate(172.0789,85.9611)"
           id="g140"><path
             id="path142"
             style="fill:#004ea2;fill-opacity:1;fill-rule:nonzero;stroke:none"
             d="M 0,0 C 0.848,-0.187 1.696,-0.4 2.543,-0.616 1.914,-3.585 1.253,-6.551 0.598,-9.52 c -0.848,0.187 -1.696,0.381 -2.525,0.638 0.041,0.241 0.089,0.483 0.14,0.727 0.632,-0.006 1.268,-0.054 1.901,-0.085 0.177,0.879 0.408,1.752 0.563,2.645 -2.876,0.698 -5.745,1.4 -8.615,2.102 -0.177,-0.524 -0.306,-1.061 -0.496,-1.581 -0.143,0.015 -0.415,0.031 -0.551,0.034 0.228,1.617 0.684,3.189 0.99,4.783 0.143,-0.029 0.434,-0.083 0.576,-0.115 -0.063,-0.565 -0.142,-1.127 -0.221,-1.692 2.891,-0.696 5.761,-1.445 8.659,-2.09 0.17,0.874 0.37,1.741 0.563,2.604 -0.576,0.264 -1.149,0.527 -1.725,0.785 C -0.092,-0.508 -0.051,-0.251 0,0" /></g><g
           transform="translate(33.4704,75.7274)"
           id="g144"><path
             id="path146"
             style="fill:#004ea2;fill-opacity:1;fill-rule:nonzero;stroke:none"
             d="m 0,0 c -1.465,-0.623 -2.968,-1.696 -3.309,-3.353 -0.329,-1.464 0.398,-2.843 0.901,-4.173 2.724,1.175 5.407,2.439 8.125,3.611 C 5.233,-2.493 4.663,-0.978 3.461,-0.006 2.442,0.759 1.069,0.486 0,0 M -2.069,0.727 C -0.74,1.55 0.911,2.08 2.464,1.613 4.1,1.08 5.119,-0.48 5.796,-1.978 6.394,-3.433 6.963,-4.897 7.555,-6.348 7.346,-6.424 7.134,-6.51 6.928,-6.586 6.713,-6.138 6.492,-5.697 6.251,-5.259 3.559,-6.465 0.854,-7.653 -1.822,-8.898 c 0.158,-0.47 0.307,-0.949 0.439,-1.435 -0.177,-0.092 -0.36,-0.188 -0.547,-0.28 -0.525,1.029 -0.883,2.144 -1.338,3.208 -0.646,1.518 -1.231,3.159 -0.981,4.833 0.171,1.365 1.009,2.594 2.18,3.299" /></g><g
           transform="translate(159.642,71.7569)"
           id="g148"><path
             id="path150"
             style="fill:#004ea2;fill-opacity:1;fill-rule:nonzero;stroke:none"
             d="M 0,0 C 0.5,1.305 0.996,2.613 1.509,3.922 1.645,3.855 1.92,3.744 2.056,3.677 1.914,3.191 1.775,2.705 1.645,2.213 2.768,1.75 3.872,1.219 5.011,0.797 7.01,1.054 9.007,1.365 11,1.619 c 0.218,0.435 0.44,0.874 0.633,1.321 0.199,-0.057 0.392,-0.111 0.591,-0.161 -0.512,-1.395 -1.075,-2.766 -1.575,-4.167 -0.19,0.057 -0.383,0.105 -0.576,0.165 0.114,0.442 0.234,0.877 0.364,1.312 -1.686,-0.2 -3.37,-0.429 -5.056,-0.635 1.032,-1.436 2.123,-2.83 3.142,-4.274 0.228,0.365 0.427,0.743 0.61,1.12 0.13,-0.041 0.393,-0.127 0.519,-0.168 -0.341,-1.121 -0.844,-2.194 -1.215,-3.309 -0.193,0.08 -0.386,0.153 -0.579,0.223 0.13,0.428 0.25,0.863 0.364,1.298 -1.189,1.604 -2.357,3.208 -3.54,4.811 C 4.499,-0.553 4.157,-0.448 3.86,-0.318 2.942,0.067 2.037,0.476 1.117,0.848 0.889,0.406 0.674,-0.038 0.474,-0.495 0.25,-0.41 -0.228,-0.359 0,0" /></g><g
           transform="translate(45.9365,69.7459)"
           id="g152"><path
             id="path154"
             style="fill:#004ea2;fill-opacity:1;fill-rule:nonzero;stroke:none"
             d="m 0,0 c 8.267,2.067 16.887,2.769 25.36,1.851 10.294,-1.114 20.354,-4.706 28.906,-10.596 1.098,1.057 2.448,1.765 3.774,2.48 6.264,3.251 13.019,5.471 19.912,6.922 7.242,1.474 14.701,1.966 22.047,1.15 2.727,-0.286 5.417,-0.813 8.084,-1.436 -0.386,-1.108 -1.076,-2.092 -1.668,-3.105 -15.109,3.051 -31.105,0.698 -44.974,-5.919 -2.376,-1.194 -4.79,-2.401 -6.862,-4.09 -5.505,3.769 -11.506,6.849 -17.884,8.815 -6.928,2.156 -14.24,3.029 -21.481,2.664 C 10.709,-1.477 6.229,-2.14 1.838,-3.16 1.196,-2.121 0.585,-1.064 0,0" /></g><g
           transform="translate(148.3425,55.1831)"
           id="g156"><path
             id="path158"
             style="fill:#004ea2;fill-opacity:1;fill-rule:nonzero;stroke:none"
             d="m 0,0 c -0.282,0.937 1.259,1.515 1.718,0.721 0.281,-0.651 0.354,-1.372 0.474,-2.064 0.431,0.32 0.779,0.736 1.218,1.028 0.336,0.229 0.807,0.121 1.063,-0.184 0.51,-0.581 0.975,-1.219 1.373,-1.883 0.228,-0.362 0.329,-0.905 -0.028,-1.229 -0.285,-0.32 -0.889,-0.578 -1.224,-0.2 -0.279,0.473 -0.491,0.988 -0.877,1.378 -2.641,-2.318 -5.239,-4.709 -7.852,-7.065 0.155,-0.645 0.838,-0.956 1.11,-1.537 0.298,-0.737 -0.654,-1.492 -1.303,-1.086 -0.547,0.502 -0.997,1.092 -1.503,1.639 -0.37,0.371 -0.62,0.968 -0.313,1.464 0.313,0.473 0.797,0.79 1.174,1.209 -0.525,0.07 -1.044,0.134 -1.573,0.204 -0.319,0.324 -0.844,0.768 -0.547,1.257 0.355,0.638 1.155,0.524 1.765,0.473 0.611,-0.076 1.396,-0.101 1.674,-0.778 0.649,0.591 1.304,1.166 1.943,1.756 -0.791,0.124 -1.595,0.33 -2.272,0.769 -0.709,0.463 -0.161,1.835 0.683,1.642 0.728,-0.137 1.453,-0.372 2.101,-0.759 0.313,-0.178 0.348,-0.55 0.392,-0.877 0.434,0.47 0.934,0.87 1.389,1.321 C 0.399,-1.864 0.164,-0.943 0,0" /></g><g
           transform="translate(45.8946,53.6975)"
           id="g160"><path
             id="path162"
             style="fill:#004ea2;fill-opacity:1;fill-rule:nonzero;stroke:none"
             d="M 0,0 C -0.649,0.683 0.348,1.892 1.161,1.515 1.585,1.264 1.892,0.87 2.249,0.533 3.252,-0.438 4.255,-1.41 5.267,-2.388 c 0.7,0.67 1.348,1.394 2.079,2.029 0.718,0.715 2.037,-0.502 1.439,-1.292 -0.632,-0.753 -1.366,-1.423 -2.078,-2.102 1.053,-1.087 2.17,-2.115 3.246,-3.189 0.354,-0.362 0.876,-0.67 0.946,-1.213 -0.029,-0.578 -0.525,-1.143 -1.133,-1.086 -0.411,0.035 -0.652,0.413 -0.94,0.664 -1.066,0.988 -2.056,2.058 -3.154,3.01 -1.363,-2.896 -1.607,-6.198 -1.173,-9.342 0.148,-0.715 -0.611,-1.359 -1.288,-1.127 -0.513,0.12 -0.772,0.657 -0.835,1.133 -0.491,3.074 0.038,6.259 1.262,9.108 -2.67,-1.302 -5.704,-1.96 -8.656,-1.502 -0.566,0.114 -1.256,0.098 -1.588,0.651 -0.43,0.552 -0.05,1.606 0.725,1.486 2.221,-0.378 4.533,-0.423 6.7,0.257 1.003,0.273 1.914,0.772 2.819,1.264 C 2.512,-2.347 1.174,-1.251 0,0" /></g><g
           transform="translate(57.5482,53.8557)"
           id="g164"><path
             id="path166"
             style="fill:#004ea2;fill-opacity:1;fill-rule:nonzero;stroke:none"
             d="m 0,0 c 4.075,0.013 8.153,-0.181 12.218,-0.461 5.09,-0.371 10.18,-0.955 15.157,-2.108 2.834,-0.689 5.666,-1.543 8.216,-2.988 1.503,-0.877 2.967,-2.02 3.717,-3.642 0.37,-0.75 0.475,-1.595 0.462,-2.423 1.724,-0.048 3.455,0.006 5.176,-0.035 -0.143,1.749 0.626,3.464 1.917,4.617 2.173,1.962 5.002,2.972 7.773,3.795 5.381,1.492 10.971,2.086 16.54,2.413 4.027,0.244 8.07,0.264 12.11,0.222 C 82.549,-1.483 81.581,-2.124 80.727,-2.874 71.913,-9.993 61.064,-14.464 49.843,-15.811 37.755,-17.287 25.246,-15.236 14.309,-9.828 9.114,-7.256 4.236,-3.982 0,0" /></g><g
           transform="translate(151.3332,51.1814)"
           id="g168"><path
             id="path170"
             style="fill:#004ea2;fill-opacity:1;fill-rule:nonzero;stroke:none"
             d="M 0,0 C 0.291,0.276 0.728,0.2 1.053,0.038 1.446,-1.188 0.642,-2.366 0.534,-3.566 0.528,-3.979 0.92,-3.623 1.053,-3.522 2.082,-2.585 3.11,-1.658 4.129,-0.727 4.401,-0.492 4.714,-0.222 5.1,-0.292 5.761,-0.356 6.172,-1.264 5.688,-1.775 4.663,-2.794 3.546,-3.722 2.493,-4.709 3.176,-5.179 3.822,-5.76 4.249,-6.481 4.793,-7.497 4.23,-8.669 3.512,-9.425 c -0.798,-0.822 -1.69,-1.616 -2.75,-2.061 -0.813,-0.305 -1.531,0.861 -0.949,1.451 0.778,0.61 1.655,1.096 2.297,1.852 0.31,0.352 0.269,0.898 -0.01,1.257 -0.284,0.388 -0.718,0.607 -1.123,0.838 -1.461,-1.279 -2.869,-2.594 -4.315,-3.88 -0.37,-0.308 -0.689,-0.695 -1.12,-0.94 -0.759,-0.321 -1.642,0.762 -1.072,1.41 1.43,1.41 3.012,2.661 4.413,4.087 -0.085,0.063 -0.266,0.194 -0.348,0.257 0.006,0.457 0.019,0.902 0.041,1.359 -1.151,-0.965 -2.198,-2.042 -3.366,-2.978 -0.67,-0.321 -1.218,0.393 -1.367,0.971 0.225,0.55 0.725,0.902 1.158,1.293 C -3.331,-3.007 -1.674,-1.493 0,0" /></g><g
           transform="translate(64.8239,44.086)"
           id="g172"><path
             id="path174"
             style="fill:#004ea2;fill-opacity:1;fill-rule:nonzero;stroke:none"
             d="M 0,0 C 0.342,0.206 0.813,0.127 1.034,-0.222 1.525,-0.988 1.923,-1.826 2.186,-2.686 2.502,-3.439 1.439,-4.246 0.813,-3.747 0.285,-2.966 -0.041,-2.074 -0.427,-1.223 -0.661,-0.781 -0.49,-0.172 0,0" /></g><g
           transform="translate(128.429,41.0611)"
           id="g176"><path
             id="path178"
             style="fill:#004ea2;fill-opacity:1;fill-rule:nonzero;stroke:none"
             d="M 0,0 C -0.313,0.927 1.297,1.648 1.765,0.781 2.214,-0.086 2.6,-0.988 2.964,-1.893 4.673,-1.134 6.33,-0.283 8.045,0.451 9.007,0.816 9.741,-0.813 8.842,-1.315 7.339,-2.064 5.796,-2.728 4.287,-3.464 c 1.844,-1.985 4.286,-3.338 6.871,-4.094 0.563,-0.181 1.161,-0.257 1.699,-0.514 0.664,-0.346 0.629,-1.445 -0.035,-1.775 -0.718,-0.299 -1.474,0.022 -2.176,0.2 -2.604,0.759 -4.942,2.273 -6.891,4.153 0.275,-3.058 -0.243,-6.246 -1.844,-8.897 -0.279,-0.464 -0.636,-1.067 -1.263,-1.023 -0.683,-0.051 -1.287,0.794 -0.819,1.382 1.667,2.778 2.585,6.131 1.911,9.358 -1.588,-0.677 -3.126,-1.483 -4.723,-2.163 -0.946,-0.337 -1.645,1.274 -0.788,1.766 1.635,0.806 3.296,1.549 4.948,2.337 C 0.762,-1.835 0.357,-0.927 0,0" /></g><g
           transform="translate(67.2525,39.7476)"
           id="g180"><path
             id="path182"
             style="fill:#004ea2;fill-opacity:1;fill-rule:nonzero;stroke:none"
             d="M 0,0 C -0.592,0.536 0.006,1.743 0.803,1.508 1.474,1.248 2.072,0.857 2.705,0.536 3.284,0.857 3.888,1.565 4.606,1.206 5.255,0.851 5.169,-0.079 4.635,-0.502 5.818,-1.108 6.985,-1.759 8.165,-2.375 8.444,-2.521 8.779,-2.696 8.864,-3.023 9.057,-3.509 8.681,-4.046 8.21,-4.173 7.782,-4.243 7.403,-3.985 7.042,-3.801 5.739,-3.087 4.407,-2.423 3.126,-1.68 2.385,-2.185 1.674,-2.737 0.946,-3.268 1.411,-3.56 1.889,-3.817 2.392,-4.033 c 0.177,0.352 0.329,0.759 0.692,0.959 0.383,0.2 0.953,0.178 1.168,-0.27 C 4.584,-3.846 4.217,-4.417 4.043,-4.903 4.872,-5.497 5.872,-5.795 6.672,-6.43 7.042,-7.075 6.387,-8.11 5.641,-7.802 4.783,-7.405 3.986,-6.913 3.138,-6.488 2.948,-6.869 2.755,-7.247 2.55,-7.628 3.41,-8.082 4.274,-8.539 5.125,-9.006 5.299,-9.114 5.524,-9.19 5.609,-9.403 c 0.335,-0.638 -0.418,-1.641 -1.126,-1.257 -0.937,0.463 -1.841,1 -2.781,1.457 -0.222,-0.425 -0.405,-0.882 -0.725,-1.238 -0.272,-0.286 -0.692,-0.178 -1.04,-0.21 -0.143,0.197 -0.301,0.381 -0.427,0.591 -0.13,0.641 0.313,1.184 0.591,1.721 -1.117,0.619 -2.259,1.184 -3.36,1.804 -0.813,0.483 0.007,2.026 0.855,1.537 1.129,-0.556 2.22,-1.182 3.337,-1.769 0.199,0.378 0.392,0.762 0.576,1.159 -0.952,0.499 -1.908,1.007 -2.847,1.521 -0.314,0.191 -0.706,0.486 -0.611,0.902 0.171,0.419 0.566,0.689 0.917,0.94 0.782,0.502 1.544,1.022 2.329,1.518 C 0.867,-0.486 0.399,-0.292 0,0" /></g><g
           transform="translate(61.4212,38.8188)"
           id="g184"><path
             id="path186"
             style="fill:#004ea2;fill-opacity:1;fill-rule:nonzero;stroke:none"
             d="M 0,0 C -0.07,0.613 0.626,1.276 1.224,0.943 1.86,0.619 2.499,0.289 3.11,-0.073 3.54,-0.308 3.654,-0.864 3.398,-1.273 2.771,-2.486 2.123,-3.681 1.48,-4.887 1.161,-5.462 1.332,-6.183 1.674,-6.71 2.199,-7.555 3.04,-8.148 3.866,-8.666 c 1.936,-1.13 3.973,-2.08 5.903,-3.214 0.69,-0.463 0.244,-1.692 -0.579,-1.641 -0.439,0.073 -0.819,0.336 -1.202,0.536 -1.73,0.921 -3.451,1.836 -5.176,2.757 -1.474,0.787 -2.784,2.029 -3.296,3.661 -0.797,-0.073 -1.566,-0.308 -2.351,-0.438 -0.765,-0.006 -0.895,1.029 -0.601,1.559 0.234,0.422 0.737,0.441 1.145,0.559 0.668,0.171 1.351,0.321 1.987,0.606 0.576,0.991 1.146,2.007 1.601,3.058 C 0.876,-0.81 -0.035,-0.743 0,0" /></g><g
           transform="translate(83.7194,36.3457)"
           id="g188"><path
             id="path190"
             style="fill:#004ea2;fill-opacity:1;fill-rule:nonzero;stroke:none"
             d="M 0,0 C 0.237,0.117 0.547,0.159 0.756,-0.041 1.281,-0.419 1.674,-0.943 2.082,-1.429 2.335,-1.75 2.619,-2.109 2.591,-2.55 2.436,-2.979 2.031,-3.423 1.531,-3.353 1.06,-3.245 0.819,-2.794 0.534,-2.458 0.193,-2.007 -0.221,-1.61 -0.525,-1.137 -0.763,-0.696 -0.421,-0.178 0,0" /></g><g
           transform="translate(90.924,25.9991)"
           id="g192"><path
             id="path194"
             style="fill:#004ea2;fill-opacity:1;fill-rule:nonzero;stroke:none"
             d="m 0,0 c 0.335,-0.829 0.99,-1.708 0.69,-2.639 0.563,-0.098 1.126,-0.206 1.689,-0.298 0.142,0.793 0.285,1.578 0.462,2.356 C 1.901,-0.359 0.946,-0.2 0,0 m -3.36,0.651 c -0.205,-0.775 -0.399,-1.553 -0.585,-2.331 0.955,-0.273 1.952,-0.406 2.92,-0.603 -0.193,0.86 -0.959,1.711 -0.57,2.604 -0.591,0.092 -1.18,0.209 -1.765,0.33 m 4.3,3.191 C 1.246,3.179 1.515,2.499 1.604,1.762 1.553,1.699 1.462,1.562 1.411,1.499 1.996,1.423 2.569,1.314 3.141,1.178 3.303,1.892 3.524,2.607 3.489,3.34 2.635,3.515 1.787,3.68 0.94,3.842 M -2.892,2.372 C -2.044,2.207 -1.186,2.023 -0.335,1.877 -0.661,2.623 -1.224,3.385 -0.975,4.236 -1.408,4.274 -1.838,4.458 -2.272,4.385 -2.541,3.737 -2.683,3.042 -2.892,2.372 M -4.505,7.475 C -3.724,8.161 -3.218,9.11 -2.42,9.784 -2.11,9.688 -1.743,9.682 -1.515,9.425 -1.351,9.241 -1.316,8.974 -1.202,8.752 1.246,8.224 3.708,7.802 6.156,7.288 6.843,7.189 7.115,6.265 6.615,5.811 6.28,5.436 5.761,5.573 5.334,5.652 2.784,6.167 0.228,6.614 -2.313,7.167 -2.575,6.887 -2.841,6.611 -3.11,6.325 -2.404,6.36 -1.721,6.157 -1.038,6.04 0.848,5.665 2.733,5.3 4.622,4.928 5.084,4.865 5.596,4.55 5.552,4.007 5.426,2.943 5.128,1.902 4.992,0.835 5.625,0.702 5.802,-0.102 5.441,-0.581 5.248,-0.88 4.862,-0.88 4.549,-0.953 4.416,-1.696 4.264,-2.439 4.116,-3.179 4.919,-3.338 4.809,-4.338 4.521,-4.897 4.337,-5.17 3.967,-5.059 3.695,-5.059 3.531,-5.624 3.347,-6.259 2.8,-6.577 2.351,-6.862 1.794,-6.704 1.319,-6.589 c -0.813,0.222 -1.674,0.311 -2.407,0.727 -0.184,0.403 -0.273,1.032 0.193,1.267 0.87,0.492 1.819,-0.635 2.682,-0.079 -2.284,0.508 -4.59,0.905 -6.884,1.365 -0.436,0.092 -0.87,0.451 -0.813,0.934 0.108,1.146 0.535,2.222 0.813,3.331 -0.313,0.12 -0.768,0.108 -0.917,0.473 -0.222,0.413 -0.114,0.978 0.246,1.276 0.345,0.232 0.772,0.051 1.149,0.016 0.263,1.001 0.519,1.995 0.826,2.973 -0.272,-0.15 -0.535,-0.369 -0.864,-0.385 -0.503,-0.063 -1.009,0.448 -0.879,0.956 0.126,0.55 0.654,0.835 1.031,1.21" /></g><g
           transform="translate(82.7094,32.3516)"
           id="g196"><path
             id="path198"
             style="fill:#004ea2;fill-opacity:1;fill-rule:nonzero;stroke:none"
             d="m 0,0 c 0.348,0.171 0.753,0.013 0.977,-0.279 0.526,-0.623 1.06,-1.258 1.465,-1.966 0.108,-0.445 -0.05,-1.178 -0.61,-1.213 -0.386,-0.038 -0.848,0.035 -1.057,0.4 -0.433,0.6 -0.842,1.229 -1.281,1.82 C -0.848,-0.794 -0.456,-0.165 0,0" /></g><g
           transform="translate(83.5851,27.1635)"
           id="g200"><path
             id="path202"
             style="fill:#004ea2;fill-opacity:1;fill-rule:nonzero;stroke:none"
             d="M 0,0 C 0.718,0.286 1.553,-0.524 1.208,-1.235 0.762,-2.064 0.149,-2.794 -0.37,-3.572 c -0.386,-0.531 -0.696,-1.125 -1.168,-1.604 -0.398,-0.419 -1.218,-0.242 -1.439,0.295 -0.149,0.365 -0.076,0.797 0.177,1.092 0.785,1.036 1.49,2.122 2.186,3.208 C -0.456,-0.343 -0.285,-0.089 0,0" /></g><g
           transform="translate(112.4098,24.9819)"
           id="g204"><path
             id="path206"
             style="fill:#004ea2;fill-opacity:1;fill-rule:nonzero;stroke:none"
             d="m 0,0 c 0.044,-0.175 0.088,-0.356 0.142,-0.534 1.063,0.08 2.123,0.305 3.186,0.407 C 3.312,0.022 3.274,0.317 3.262,0.464 2.173,0.324 1.085,0.181 0,0 M -0.256,1.994 C -0.234,1.873 -0.206,1.629 -0.184,1.518 0.889,1.689 1.974,1.826 3.046,1.972 3.018,2.153 2.983,2.324 2.958,2.496 1.889,2.312 0.797,2.258 -0.256,1.994 m -6.138,3.058 c 0.029,-0.219 0.067,-0.441 0.108,-0.664 1.224,0.194 2.458,0.366 3.689,0.515 C -2.613,5.125 -2.62,5.341 -2.632,5.554 -3.891,5.427 -5.138,5.198 -6.394,5.052 m 5.578,0.753 C -0.781,5.646 -0.718,5.347 -0.68,5.189 0.392,5.341 1.468,5.497 2.543,5.639 2.499,5.846 2.474,6.052 2.42,6.262 1.341,6.151 0.259,5.998 -0.816,5.805 m -2.373,3.086 c -0.25,1.207 1.879,1.579 1.952,0.305 1.851,0.187 3.679,0.53 5.53,0.743 C 4.692,9.987 5.09,9.72 5.214,9.336 5.34,8.847 4.916,8.421 4.451,8.383 2.629,8.113 0.797,7.869 -1.032,7.605 -1.016,7.481 -0.997,7.23 -0.99,7.11 0.493,7.224 1.952,7.57 3.432,7.662 4.223,7.621 4.242,6.675 4.331,6.09 4.381,5.595 4.622,4.846 4.018,4.595 2.515,4.335 0.984,4.176 -0.532,3.938 -0.49,3.769 -0.456,3.588 -0.411,3.41 0.835,3.601 2.088,3.772 3.334,3.953 3.733,4.004 4.223,4.068 4.524,3.731 4.786,3.296 4.764,2.766 4.843,2.283 5.22,2.264 5.704,2.401 5.982,2.058 6.232,1.794 6.204,1.365 6.008,1.064 5.796,0.775 5.397,0.794 5.084,0.724 5.128,0.21 5.283,-0.315 5.214,-0.835 5.106,-1.34 4.549,-1.54 4.103,-1.607 2.85,-1.772 1.597,-1.956 0.345,-2.128 0.386,-2.779 0.607,-3.442 0.443,-4.093 0.221,-4.728 -0.475,-4.97 -1.082,-5.037 c -0.911,-0.107 -1.863,-0.238 -2.768,0 -0.649,0.156 -1.019,1.344 -0.257,1.579 0.861,0.206 1.807,-0.064 2.655,0.308 -0.019,0.187 -0.063,0.559 -0.076,0.743 -1.737,-0.184 -3.461,-0.537 -5.198,-0.686 -0.598,-0.048 -0.984,0.68 -0.677,1.172 0.266,0.384 0.762,0.4 1.174,0.463 1.484,0.188 2.948,0.435 4.438,0.607 -0.009,0.152 -0.016,0.454 -0.022,0.603 -1.98,-0.251 -3.951,-0.594 -5.932,-0.813 -0.534,-0.117 -1.037,0.391 -0.889,0.927 0.057,0.372 0.462,0.505 0.782,0.572 1.93,0.264 3.859,0.549 5.789,0.813 -0.016,0.13 -0.035,0.372 -0.05,0.495 C -3.515,1.616 -4.904,1.365 -6.299,1.191 -6.827,1.137 -7.375,0.937 -7.887,1.111 -8.472,1.343 -8.371,2.337 -7.71,2.382 -5.922,2.651 -4.135,2.918 -2.351,3.137 -2.357,3.268 -2.37,3.521 -2.376,3.661 -3.945,3.474 -5.495,3.239 -7.055,3.01 -7.403,2.959 -7.881,2.988 -8.001,3.394 c -0.142,0.652 -0.193,1.325 -0.278,1.982 -0.086,0.422 0.278,0.762 0.677,0.772 1.604,0.228 3.204,0.444 4.799,0.679 -0.029,0.121 -0.085,0.372 -0.114,0.492 -1.965,-0.222 -3.917,-0.552 -5.875,-0.809 -0.414,-0.061 -0.94,0.124 -1.012,0.581 -0.155,0.53 0.345,0.949 0.819,0.984 1.93,0.28 3.866,0.553 5.796,0.816" /></g><g
           transform="translate(77.5899,1.7333)"
           id="g208"><path
             id="path210"
             style="fill:#004ea2;fill-opacity:1;fill-rule:nonzero;stroke:none"
             d="M 0,0 -2.661,0.619 V 19.847 L 0,19.189 Z" /></g><g
           transform="translate(83.9465,15.7251)"
           id="g212"><path
             id="path214"
             style="fill:#004ea2;fill-opacity:1;fill-rule:nonzero;stroke:none"
             d="M 0,0 0.044,-4.265 6.947,-4.96 v 4.16 z m -2.104,-14.534 v 3.432 l 9.051,-0.895 v 3.712 l -9.051,1.019 V 3.89 L 9.393,2.49 v -18.215 z" /></g><path
           id="path216"
           style="fill:#004ea2;fill-opacity:1;fill-rule:nonzero;stroke:none"
           d="m 98.823,3.631 h 7.273 v 10.952 h -7.273 z m -2.088,14.633 h 11.25 V 0.011 h -11.25 z" /><g
           transform="translate(114.3859,15.6433)"
           id="g218"><path
             id="path220"
             style="fill:#004ea2;fill-opacity:1;fill-rule:nonzero;stroke:none"
             d="m 0,0 v -4.182 l 6.612,1.114 v 4.405 z m -2.186,-15.217 v 3.509 l 8.798,1.353 v 3.75 L -2.186,-8.006 V 3.252 L 9.285,5.465 v -18.948 z" /></g></g></g></g></svg>