<svg height="316.227766" viewBox="0 0 252 252" width="316.227766" xmlns="http://www.w3.org/2000/svg"><path d="m252 126c0 69.585938-56.414062 126-126 126s-126-56.414062-126-126 56.414062-126 126-126 126 56.414062 126 126zm0 0" fill="#791b1d"/><path d="m126 6.289062c-66.113281 0-119.710938 53.597657-119.710938 119.710938s53.597657 119.710938 119.710938 119.710938 119.710938-53.597657 119.710938-119.710938-53.597657-119.710938-119.710938-119.710938zm0 205.347657c-47.308594 0-85.636719-38.328125-85.636719-85.636719s38.328125-85.636719 85.636719-85.636719 85.636719 38.328125 85.636719 85.636719c0 47.25-38.328125 85.636719-85.636719 85.636719zm0 0" fill="#fff"/><path d="m110.730469 178.699219v-1.617188c1.015625-.359375 1.914062-.71875 2.753906-1.195312h2.214844v8.203125h-2.335938v-6.46875c-.835937.417968-1.675781.777344-2.632812 1.078125zm0 0" fill="#fff"/><path d="m118.335938 182.054688h2.394531c.179687.65625.539062 1.015624 1.199219 1.015624 1.253906 0 1.792968-.835937 1.675781-2.574218-.539063.359375-1.257813.539062-2.15625.539062-1.976563-.179687-3.054688-1.019531-3.292969-2.515625.179688-1.734375 1.496094-2.632812 3.890625-2.753906 2.695313-.058594 4.011719 1.199219 3.953125 3.652344.179688 3.292969-1.199219 4.910156-4.011719 4.851562-2.394531-.058593-3.59375-.777343-3.652343-2.214843zm2.273437-3.65625c0 .898437.539063 1.378906 1.558594 1.378906.898437-.058594 1.375-.480469 1.4375-1.378906-.0625-.957032-.539063-1.433594-1.4375-1.496094-1.019531 0-1.558594.480468-1.558594 1.496094zm0 0" fill="#fff"/><path d="m134.863281 180.015625c-.058593 2.757813-1.316406 4.132813-3.894531 4.195313-2.453125-.0625-3.710938-1.4375-3.769531-4.195313.058593-2.871094 1.316406-4.308594 3.769531-4.308594 2.515625 0 3.835938 1.4375 3.894531 4.308594zm-2.394531 0c0-2.035156-.480469-3.050781-1.4375-3.113281-.960938.0625-1.4375 1.078125-1.4375 3.113281 0 2.039063.476562 3.054687 1.4375 3.054687.957031-.058593 1.4375-1.078124 1.4375-3.054687zm0 0" fill="#fff"/><path d="m136.359375 175.886719h7.066406v1.554687l-3.351562 6.707032h-2.335938l3.472657-6.886719h-4.851563zm0 0" fill="#fff"/><path d="m28.207031 151.453125-3.414062 1.316406.777343 2.09375c.300782 1.019531.839844 1.320313 1.617188.960938l.242188.597656-3.054688 1.199219-.242188-.601563c.78125-.238281 1.019532-.777343.660157-1.496093l-.898438-2.394532-2.457031.957032c-1.015625.300781-1.316406.777343-.898438 1.496093l.121094.300781-.597656.238282-1.738281-4.609375.601562-.238281.117188.238281c.179687.597656.601562.777343 1.257812.539062l6.167969-2.394531c.898438-.359375 1.257812-.839844.960938-1.378906l-.0625-.238282.539062-.179687 2.996094 7.785156-2.15625.835938-.242188-.597657c.960938-.359374 1.257813-.839843.960938-1.4375zm0 0" fill="#791b1d"/><path d="m34.015625 164.027344.597656-.300782 1.855469 3.835938-.597656.296875-.058594-.117187c-.480469-.960938-1.078125-1.199219-1.855469-.78125l-3.714843 1.796874c-2.457032 1.136719-4.429688.359376-5.808594-2.335937-1.316406-2.875-.898438-4.851563 1.257812-5.925781l4.371094-2.097656c.71875-.300782.898438-.839844.539062-1.496094l-.121093-.300782.601562-.300781 2.273438 4.671875-.597657.300782-.121093-.300782c-.359375-.65625-.835938-.835937-1.496094-.539062l-4.371094 2.097656c-1.558593.777344-1.976562 2.035156-1.136719 3.832031.957032 1.855469 2.332032 2.394531 4.128907 1.617188l3.59375-1.738281c1.019531-.476563 1.320312-1.136719.898437-1.914063zm0 0" fill="#791b1d"/><path d="m37.789062 171.09375.539063-.300781 2.632813 4.492187-.539063.300782-.179687-.238282c-.417969-.71875-.957032-.839844-1.617188-.359375l-6.167969 3.589844c-1.375.71875-2.695312.960937-3.953125.601563-.957031-.242188-1.675781-.839844-2.214844-1.738282-.597656-1.015625-.65625-1.734375-.058593-2.035156.539062-.238281 1.019531-.058594 1.496093.480469.179688.238281.179688.65625.058594 1.136719-.117187.359374-.179687.65625-.058594.777343.238282.417969.839844.417969 1.796876-.121093l8.023437-4.667969c.71875-.359375.839844-.898438.421875-1.679688zm0 0" fill="#791b1d"/><path d="m43.117188 179.71875.539062-.359375 2.996094 4.3125-.539063.359375-.179687-.242188c-.480469-.71875-1.078125-.777343-1.679688-.296874l-5.269531 3.710937c-.777344.417969-.835937 1.019531-.238281 1.738281l.179687.238282-.539062.359374-2.992188-4.3125.535157-.359374.121093.179687c.480469.660156 1.019531.777344 1.617188.359375l5.332031-3.773438c.65625-.476562.777344-1.015624.296875-1.675781zm0 0" fill="#791b1d"/><path d="m47.910156 195.527344-2.335937-2.753906-1.917969.71875c-.539062.179687-.777344.359374-.777344.597656-.058594.238281.179688.660156.65625 1.199218l.121094.117188-.417969.421875-2.753906-3.292969.476563-.421875.121093.121094c.417969.597656 1.136719.71875 2.273438.300781l7.726562-2.9375.238281-.417968 1.5 1.796874-4.191406 7.964844c-.601562.839844-.660156 1.558594-.0625 2.15625l-.476562.417969-3.414063-4.070313.476563-.421874.359375.421874c.539062.71875 1.019531.65625 1.5-.179687zm.476563-.898438 1.917969-3.652344-3.832032 1.4375zm0 0" fill="#791b1d"/><path d="m55.273438 197.203125-4.25 4.433594c-.777344.597656-.71875 1.316406.238281 2.09375l-.417969.480469-2.875-2.753907.417969-.480469.121093.058594c.597657.601563 1.136719.660156 1.558594.121094l5.269532-5.449219c-.121094-.359375-.359376-.71875-.71875-1.136719l.417968-.480468 2.457032 2.335937-.0625 9.640625 3.414062-3.53125c.839844-.660156.777344-1.378906-.121094-2.097656l-.117187-.117188.417969-.480468 3.054687 2.933594-.417969.480468-.121094-.0625c-.71875-.65625-1.257812-.777344-1.558593-.359375l-6.046875 6.289063-.660156-.597656zm0 0" fill="#791b1d"/><path d="m72.523438 211.636719-3.175782 5.269531c-.597656.777344-.417968 1.4375.660156 1.976562l-.300781.539063-3.414062-2.035156.359375-.539063.121094.058594c.71875.480469 1.257812.417969 1.554687-.238281l3.894531-6.46875c-.179687-.300781-.539062-.660157-.957031-.957031l.359375-.539063 2.933594 1.734375 2.09375 9.402344 2.578125-4.25c.65625-.839844.476562-1.496094-.601563-1.976563l-.179687-.121093.359375-.539063 3.59375 2.21875-.296875.539063-.121094-.0625c-.839844-.476563-1.378906-.476563-1.617187 0l-4.492188 7.488281-.777344-.480469zm0 0" fill="#791b1d"/><path d="m81.144531 220.441406c1.558594-3.117187 4.253907-4.011718 7.964844-2.695312 3.292969 1.617187 4.433594 3.953125 3.414063 7.066406-1.617188 3.113281-4.25 4.011719-7.84375 2.632812-3.355469-1.554687-4.550782-3.890624-3.535157-7.003906zm2.515625.238282c-1.195312 3.113281-.660156 5.269531 1.558594 6.347656 1.976562.777344 3.59375-.121094 4.789062-2.574219 1.078126-3.054687.539063-5.152344-1.554687-6.230469-2.097656-.71875-3.714844.121094-4.792969 2.457032zm0 0" fill="#791b1d"/><path d="m97.554688 227.207031-.597657 2.394531c-.242187.839844.058594 1.320313 1.015625 1.5l.421875.117188-.179687.601562-5.511719-1.4375.179687-.601562.238282.0625c.960937.296875 1.5.058594 1.679687-.839844l1.617188-6.289062c.238281-.777344-.0625-1.257813-.960938-1.496094l-.359375-.121094.179688-.597656c.0625 0 .242187.058594.421875.121094.71875.117187 1.257812.179687 1.617187.296875 1.195313.242187 2.09375.421875 2.632813.539062 2.214843.601563 3.59375 1.320313 4.132812 2.277344.359375.597656.480469 1.257813.300781 1.976563-.421874 1.257812-1.378906 1.914062-2.9375 1.976562.359376.597656.601563 1.195312.839844 1.855469.238282.660156.597656 1.378906 1.078125 2.035156.300781.71875.898438 1.257813 1.796875 1.496094l-.121094.480469c-.238281-.058594-.597656-.179688-1.015624-.238282-1.738282-.421875-2.816407-1.019531-3.234376-1.855468-.300781-.480469-.539062-1.019532-.839843-1.679688-.300781-.898438-.660157-1.675781-1.019531-2.394531zm1.316406-5.210937-1.195313 4.613281.597657.179687c2.035156.539063 3.234374.058594 3.652343-1.5.359375-1.496093-.417969-2.511718-2.214843-2.992187zm0 0" fill="#791b1d"/><path d="m112.464844 234.632812-2.8125-8.445312-1.019532 5.75c-.417968 1.136719 0 1.738281 1.136719 1.738281l-.058593.65625-3.652344-.417969.058594-.660156c1.019531.300782 1.558593-.238281 1.617187-1.554687l1.078125-5.871094c.238281-.777344-.121094-1.257813-.957031-1.316406l.058593-.65625 3.414063.417969 2.394531 7.1875 3.773438-6.46875 3.535156.417968-.0625.660156c-1.015625-.242187-1.4375.117188-1.316406 1.078126l-.300782 6.105468c-.296874 1.140625.121094 1.738282 1.257813 1.738282l-.058594.660156-5.152343-.601563.0625-.65625h.238281c.898437.238281 1.378906-.0625 1.378906-.960937 0-.238282.058594-.539063.117187-.777344l.300782-5.808594h-.058594l-4.613281 7.84375zm0 0" fill="#791b1d"/><path d="m129.234375 231.640625-3.59375.117187-.660156 1.917969c-.179688.539063-.238281.835938-.058594.957031.179687.238282.597656.300782 1.378906.238282h.179688v.660156l-4.3125.121094v-.660156h.179687c.71875.058593 1.257813-.480469 1.617188-1.558594l2.574218-7.902344-.179687-.421875 2.457031-.058594 3.53125 8.265625c.300782 1.015625.839844 1.496094 1.617188 1.4375v.65625l-5.328125.121094v-.660156h.597656c.898437 0 1.136719-.417969.777344-1.257813zm-.417969-.839844-1.617187-3.773437-1.257813 3.894531zm0 0" fill="#791b1d"/><path d="m147.257812 230.679688-.777343 3.054687-8.683594 1.316406-.117187-.65625.238281-.0625c.957031-.117187 1.316406-.539062 1.195312-1.375l-1.015625-6.527343c-.121094-.78125-.597656-1.078126-1.496094-.960938l-.300781.0625-.121093-.660156 5.511718-.835938.117188.65625-.417969.058594c-.839844.121094-1.199219.601562-1.019531 1.320312l1.019531 6.644532c0 .601562.300781.839844.957031.660156l2.039063-.300781c.65625-.117188 1.257812-.71875 1.914062-1.792969.121094-.242188.179688-.421875.300781-.539062zm0 0" fill="#791b1d"/><path d="m166.304688 217.027344-.242188-.597656 3.832031-1.796876.300781.597657-.121093.058593c-.957031.480469-1.253907 1.078126-.777344 1.855469l1.738281 3.714844c1.136719 2.515625.296875 4.429687-2.394531 5.75-2.875 1.316406-4.851563.835937-5.929687-1.378906l-2.097657-4.371094c-.296875-.71875-.777343-.898437-1.496093-.480469l-.300782.121094-.296875-.597656 4.730469-2.15625.238281.597656-.300781.121094c-.65625.359375-.898438.835937-.597656 1.496094l2.035156 4.433593c.71875 1.613281 1.976562 1.972657 3.835938 1.195313 1.855468-.898438 2.453124-2.273438 1.675781-4.132813l-1.675781-3.59375c-.480469-1.015625-1.140626-1.316406-1.917969-.957031zm0 0" fill="#791b1d"/><path d="m170.433594 216.546875 3.175781 5.269531c.417969.898438 1.078125 1.019532 2.035156.300782l.359375.539062-3.414062 2.09375-.359375-.535156.121093-.0625c.777344-.417969.957032-.898438.539063-1.496094l-3.890625-6.46875c-.359375 0-.78125.179688-1.257812.359375l-.359376-.539063 2.933594-1.734374 9.339844 2.574218-2.574219-4.253906c-.417969-.957031-1.136719-1.136719-2.035156-.417969l-.179687.121094-.300782-.539063 3.59375-2.15625.359375.539063-.121093.058594c-.835938.480469-1.078126.957031-.71875 1.378906l4.492187 7.484375-.777344.480469zm0 0" fill="#791b1d"/><path d="m179.117188 209.421875-.359376-.539063 4.195313-3.175781.359375.539063-.242188.179687c-.65625.539063-.777343 1.078125-.238281 1.679688l3.890625 5.148437c.480469.71875 1.019532.777344 1.738282.179688l.179687-.179688.359375.539063-4.191406 3.171875-.359375-.535156.179687-.179688c.65625-.480469.71875-1.019531.300782-1.679688l-3.953126-5.210937c-.480468-.65625-1.078124-.714844-1.738281-.238281zm0 0" fill="#791b1d"/><path d="m195.109375 208.882812-8.445313-3.535156c-1.019531-.476562-1.734374-.417968-2.15625.179688l-.117187.0625-.421875-.480469 4.191406-3.832031.421875.476562-.179687.179688c-.480469.480468-.71875.839844-.660156 1.140625 0 .238281.238281.476562.777343.65625l5.628907 2.335937-2.214844-6.105468c-.238282-.539063-.65625-.539063-1.375 0l-.300782.238281-.417968-.480469 3.054687-2.8125.417969.476562-.0625.0625c-.65625.476563-.714844 1.316407-.238281 2.574219l2.875 8.144531zm0 0" fill="#791b1d"/><path d="m197.984375 192.535156-2.457031 2.632813 2.695312 2.457031 1.796875-1.976562c.660157-.601563.660157-1.140626 0-1.679688l.417969-.476562 2.394531 2.214843-.417969.480469c-.539062-.601562-1.136718-.539062-1.855468.296875l-1.617188 1.796875 2.15625 1.976562c.417969.480469.777344.539063 1.015625.121094l1.796875-1.976562c.78125-.660156.839844-1.496094.0625-2.574219l.417969-.480469 1.738281 1.855469-6.707031 7.308594-.480469-.421875.480469-.539063c.597656-.597656.597656-1.195312 0-1.734375l-4.851563-4.492187c-.539062-.597657-1.199218-.480469-1.796874.238281l-.121094.121094-.476563-.417969 6.105469-6.648437 1.859375 1.4375-.421875.480468c-.71875-.480468-1.375-.539062-1.734375 0zm0 0" fill="#791b1d"/><path d="m205.050781 191.816406 1.976563 1.554688c.65625.539062 1.257812.480468 1.792968-.300782l.300782-.355468.480468.417968-3.535156 4.492188-.476562-.421875.179687-.179687c.65625-.71875.65625-1.316407-.121093-1.855469l-5.089844-4.011719c-.597656-.539062-1.199219-.417969-1.738282.238281l-.238281.300781-.480469-.359374c.0625-.058594.121094-.179688.300782-.359376.359375-.597656.71875-1.078124.898437-1.378906.71875-1.015625 1.257813-1.734375 1.554688-2.214844 1.4375-1.796874 2.636719-2.753906 3.714843-2.875.660157-.117187 1.316407.0625 1.917969.539063 1.015625.898437 1.195313 2.035156.597657 3.472656.660156-.058593 1.316406-.058593 2.035156 0 .71875.0625 1.496094 0 2.335937-.117187.777344 0 1.496094-.300782 2.097657-1.019532l.417968.300782c-.179687.179687-.359375.476562-.660156.835937-1.078125 1.4375-2.09375 2.21875-2.992188 2.21875-.539062.058594-1.140624.117188-1.855468.058594-.960938-.121094-1.796875-.121094-2.578125 0zm-4.253906-3.296875 3.714844 2.9375.417969-.480469c1.316406-1.617187 1.316406-2.933593.058593-3.953124-1.257812-.898438-2.453125-.660157-3.652343.839843zm0 0" fill="#791b1d"/><path d="m214.453125 186.484375-2.636719-1.316406.359375-.539063c1.617188.476563 2.816407.179688 3.535157-.957031.65625-1.019531.539062-1.859375-.242188-2.457031-.597656-.417969-1.675781-.179688-3.234375.660156-1.914063 1.015625-3.351563 1.195312-4.308594.597656-1.320312-1.019531-1.4375-2.394531-.359375-4.253906.296875-.476562.777344-.957031 1.433594-1.496094.179688-.179687.242188-.238281.300781-.359375.058594-.058593.058594-.179687 0-.359375l.238281-.296875 2.335938 1.195313-.417969.597656c-1.316406-.355469-2.457031-.058594-3.292969.960938-.480468.898437-.480468 1.554687.058594 1.976562.480469.359375 1.378906.117188 2.695313-.601562 1.199219-.597657 2.097656-1.015626 2.816406-1.195313.957031-.0625 1.734375.058594 2.335937.476563 1.433594 1.199218 1.613282 2.757812.535157 4.492187-.597657.71875-1.074219 1.320313-1.496094 1.796875-.238281.179688-.417969.300781-.417969.300781-.058594.179688-.058594.296875.058594.417969zm0 0" fill="#791b1d"/><path d="m212.476562 172.171875-.539062-.300781 2.632812-4.550782.539063.300782-.179687.300781c-.417969.71875-.296876 1.316406.421874 1.675781l5.628907 3.234375c.71875.476563 1.257812.359375 1.675781-.480469l.121094-.238281.539062.296875-2.636718 4.554688-.539063-.300782.121094-.238281c.417969-.71875.296875-1.257812-.421875-1.617187l-5.628906-3.296875c-.71875-.417969-1.257813-.238281-1.675782.421875zm0 0" fill="#791b1d"/><path d="m219.300781 159.835938 6.707031 3.351562c.78125.480469 1.320313.242188 1.738282-.71875l.179687-.359375.597657.300781-2.632813 5.269532-.601563-.296876.242188-.539062c.417969-.71875.238281-1.257812-.539062-1.617188l-6.707032-3.355468-.839844 1.738281c-.660156.898437-.359374 1.734375.898438 2.453125l-.300781.601562-2.632813-1.679687.238282-.476563c.121093 0 .300781-.0625.359374-.179687.121094 0 .179688-.121094.242188-.359375l3.472656-7.007812c.179688-.238282.179688-.539063.058594-.839844l.238281-.476563 2.875 1.078125-.296875.597656c-1.378906-.539062-2.21875-.300781-2.515625.777344zm0 0" fill="#791b1d"/><path d="m228.40625 152.410156 2.09375.839844c.78125.417969 1.320312.117188 1.679688-.839844l.117187-.238281.597656.238281-2.152343 5.210938-.601563-.242188.179687-.417968c.359376-.71875.179688-1.257813-.597656-1.558594l-2.15625-.898438-5.6875 1.4375c-.660156.121094-1.078125.480469-1.257812 1.078125l-.121094.179688-.597656-.238281 2.09375-4.96875.601562.238281-.121094.238281c-.121093.421875-.179687.71875-.058593.898438.117187.179687.296875.238281.597656.121093l4.191406-1.078125-2.035156-2.933594c-.300781-.421874-.539063-.601562-.839844-.539062-.179687 0-.417969.238281-.597656.65625l-.058594.179688-.601562-.238282 1.496093-3.59375.601563.238282c-.300781.78125-.179687 1.5.359375 2.15625zm0 0" fill="#791b1d"/><g fill="#fff"><path d="m81.503906 118.632812h8.863282v35.152344h-8.863282zm0 0"/><path d="m81.503906 110.128906h1.257813c.300781-1.195312 1.199219-2.09375 2.394531-2.394531v-1.617187h-3.652344zm5.152344-4.011718v1.617187c1.195312.300781 2.09375 1.199219 2.394531 2.394531h1.316407v1.5h-1.316407c-.300781 1.195313-1.199219 2.09375-2.394531 2.394532v1.617187h3.710938v-9.460937h-3.710938zm-3.894531 5.449218h-1.257813v4.011719h3.652344v-1.613281c-1.195312-.300782-2.09375-1.199219-2.394531-2.398438zm0 0"/><path d="m59.585938 118.632812h8.863281v35.152344h-8.863281zm0 0"/><path d="m71.265625 118.632812h1.496094v28.566407h-1.496094zm0 0"/><path d="m76.175781 118.632812h1.496094v28.566407h-1.496094zm0 0"/><path d="m60.84375 111.566406h-1.257812v4.011719h3.652343v-1.613281c-1.195312-.300782-2.09375-1.199219-2.394531-2.398438zm-1.257812-1.4375h1.257812c.300781-1.195312 1.199219-2.09375 2.394531-2.394531v-1.617187h-3.652343zm5.089843-4.011718v1.617187c1.199219.300781 2.097657 1.199219 2.394531 2.394531h1.320313v1.5h-1.320313c-.296874 1.195313-1.195312 2.09375-2.394531 2.394532v1.617187h3.714844v-9.460937h-3.714844zm0 0"/><path d="m68.328125 146.839844h13.175781v.480468h-13.175781zm0 0"/><path d="m68.328125 123.785156h13.175781v2.09375h-13.175781zm0 0"/><path d="m184.988281 118.632812h8.863281v35.152344h-8.863281zm0 0"/><path d="m184.988281 110.128906h1.257813c.296875-1.195312 1.195312-2.09375 2.394531-2.394531v-1.617187h-3.652344zm1.257813 1.4375h-1.257813v4.011719h3.652344v-1.613281c-1.199219-.300782-2.097656-1.199219-2.394531-2.398438zm3.890625 2.398438v1.613281h3.714843v-4.011719h-1.316406c-.300781 1.199219-1.257812 2.097656-2.398437 2.398438zm0-7.847656v1.617187c1.199219.300781 2.097656 1.199219 2.398437 2.394531h1.316406v-4.011718zm0 0"/><path d="m163.070312 118.632812h8.863282v35.152344h-8.863282zm0 0"/><path d="m174.746094 118.632812h1.5v28.566407h-1.5zm0 0"/><path d="m179.65625 118.632812h1.5v28.566407h-1.5zm0 0"/><path d="m163.070312 110.128906h1.257813c.296875-1.195312 1.195313-2.09375 2.394531-2.394531v-1.617187h-3.652344zm1.257813 1.4375h-1.257813v4.011719h3.652344v-1.613281c-1.199218-.300782-2.097656-1.199219-2.394531-2.398438zm3.890625-5.449218v1.617187c1.199219.300781 2.097656 1.199219 2.394531 2.394531h1.320313v1.5h-1.320313c-.296875 1.195313-1.195312 2.09375-2.394531 2.394532v1.617187h3.714844v-9.460937h-3.714844zm0 0"/><path d="m171.871094 146.839844h13.175781v.480468h-13.175781zm0 0"/><path d="m171.871094 123.785156h13.175781v2.09375h-13.175781zm0 0"/><path d="m90.308594 152.53125h72.761718v1.253906h-72.761718zm0 0"/><path d="m90.308594 156.480469h72.761718v1.257812h-72.761718zm0 0"/><path d="m92.222656 77.613281s-1.914062 9.28125-12.15625 6.285157c0 0 1.917969 7.425781 11.738282 7.425781h70.367187s12.15625-.957031 10.238281-7.605469c0 0-9.28125 3.054688-10.660156-6.046875zm0 0"/><path d="m91.683594 94.679688v10.0625h6.050781v-10.0625zm0 21.4375h6.050781v-8.921876h-6.050781zm0 11.199218h6.050781v-8.742187h-6.050781zm0 13.894532h6.050781v-11.378907h-6.050781zm0 0"/><path d="m154.683594 94.679688v10.0625h6.050781v-10.0625zm0 21.4375h6.050781v-8.921876h-6.050781zm0 11.199218h6.050781v-8.742187h-6.050781zm0 13.894532h6.050781v-11.378907h-6.050781zm0 0"/><path d="m91.683594 92.105469h69.050781v1.375h-69.050781zm0 0"/><path d="m98.992188 94.679688v46.472656h13.472656v-15.691406h-.417969v-5.988282h2.097656c.957031-4.074218 4.128907-9.820312 11.4375-10.300781h1.375c7.246094.539063 10.601563 6.289063 11.738281 10.300781h2.15625v5.988282h-.417968v15.691406h12.816406v-46.472656zm42.21875 12.574218h-30.183594v-8.382812h30.183594zm0 0"/><path d="m114.382812 124.863281h3.890626v16.289063h-3.890626zm0 0"/><path d="m125.820312 141.210938h-6.289062v-12.335938h.960938v3.113281s1.613281.539063 3.230468-.480469c1.140625-.71875 1.617188-2.574218 1.617188-2.574218h.480468zm0 0"/><path d="m127.019531 141.210938h6.285157v-12.335938h-.957032v3.113281s-1.617187.539063-3.234375-.480469c-1.136719-.71875-1.675781-2.574218-1.675781-2.574218h-.480469v12.277344zm0 0"/><path d="m134.683594 124.863281h3.890625v16.289063h-3.890625zm0 0"/><path d="m126.898438 111.089844c8.921874.65625 10.300781 10.300781 10.300781 10.300781h1.796875v2.214844h-4.132813s-.839843-9.941407-8.382812-9.941407c-7.605469 0-8.445313 9.941407-8.445313 9.941407h-4.132812v-2.214844h1.796875s.898437-9.703125 9.882812-10.300781zm0 0"/><path d="m112.167969 99.769531h27.90625v6.347657h-27.90625zm0 0"/></g><path d="m18.144531 103.125s1.199219-1.078125 1.976563-1.859375c.777344-.777344 2.277344-3.171875.417968-3.949219-1.914062-.78125-3.171874.296875-3.949218 3.171875-.839844 2.875.957031 3.292969 1.554687 2.636719zm0 0" fill="#791b1d"/><path d="m24.195312 109.113281s.777344-.121093 1.375-1.078125c.601563-.960937.539063-2.035156 1.257813-.300781.660156 1.738281 3.535156 4.433594 4.191406 3.054687.660157-1.378906-.296875-1.617187-.71875-2.933593-.476562-1.378907 2.757813.898437 4.613281 1.796875 1.855469.835937 3.414063-1.199219.898438-2.398438-2.515625-1.195312-6.46875-2.8125-5.871094-3.171875.601563-.417969 1.320313-3.292969-.058594-3.234375-1.378906.058594-3.710937 2.457032-3.652343.660156.058593-1.796874-1.316407-2.9375-2.394531-1.796874-1.078126 1.136718-1.019532 2.335937-.898438 4.3125 0 1.796874.476562 5.449218 1.257812 5.089843zm0 0" fill="#791b1d"/><path d="m20.300781 94.5s1.316407.597656 1.917969-.898438c.597656-1.496093 1.136719-6.40625-.601562-8.683593-1.734376-2.273438-2.933594.660156-2.273438 3.355469.597656 2.753906-.300781 5.6875.957031 6.226562zm0 0" fill="#791b1d"/><path d="m30.902344 88.03125c-.960938 3.292969-.300782 4.851562-1.140625 4.671875-.835938-.179687-1.914063-2.875-2.753907-4.492187-.835937-1.617188-2.574218-1.316407-2.515624 1.019531.0625 2.335937.359374 3.171875 0 4.132812-.359376.957031-.597657 1.257813-.65625 1.914063 0 0 .835937 1.796875 2.15625 1.917968 1.316406.058594 2.332031-.777343 3.410156 0 1.078125.777344.78125 2.8125 2.875 3.652344 2.039062.839844 5.269531 2.15625 5.808594-.660156.480468-2.8125.359374-4.308594 1.558593-5.867188 1.199219-1.558593-.957031-3.054687-2.636719-5.570312-1.734374-2.632812-5.148437-4.011719-6.105468-.71875zm4.789062 11.320312c-.476562.71875-1.136718-.359374-1.136718-.359374-.300782-.480469.238281-1.976563.898437-1.617188.65625.359375.71875 1.257812.238281 1.976562zm-8.5625-7.007812c.476563.660156 1.4375 1.019531 1.078125 1.738281-.359375.65625-1.496093-.601562-1.496093-.601562-.480469-.296875-.0625-1.734375.417968-1.136719zm9.101563.238281c.179687 2.21875.058593 2.996094-.480469 2.757813-.535156-.242188-.714844-.660156-.355469-1.558594.355469-.898438-.71875-2.097656-.839843-1.738281-.179688.421875-1.078126 1.5-1.078126 1.5-.898437.179687-.300781-1.5.179688-2.695313.417969-1.136718 2.335938-.480468 2.574219 1.734375zm0 0" fill="#791b1d"/><path d="m65.695312 53.359375c-1.675781.296875-2.636718 1.914063-4.671874 3.414063-1.976563 1.496093-4.191407 2.332031-4.851563 1.675781-.65625-.597657-1.078125-1.496094.601563-3.355469 1.675781-1.796875 1.015624-2.8125.058593-2.933594-.898437-.121094-1.199219-.179687-1.738281.839844-.476562 1.015625-1.855469 2.394531-1.554688 1.375.359376-1.078125.476563-2.632812 0-2.632812-.480468 0-1.078124.898437-1.4375 1.136718-.359374.238282-.480468-.480468.238282-1.734375.660156-1.320312-.121094-2.335937-.898438-1.199219-.71875 1.136719-1.617187 1.734376-2.035156 1.496094-.417969-.296875 1.257812-2.8125 2.8125-4.371094 1.558594-1.617187.71875-2.515624-.417969-2.394531-1.136719.117188-2.875 1.4375-2.753906.476563.121094-.957032-.539063-2.332032-1.558594-1.496094-1.015625.839844-.777343 1.976562-1.554687 2.636719-.71875.65625-1.4375.777343-2.039063.179687-.597656-.601562-2.332031.296875-1.972656 1.195313.359375.898437 1.136719.960937 1.554687 1.078125.480469.121094 1.855469.660156 1.4375 1.257812-.480468.601563-1.4375 1.738282-.898437 2.335938.539063.660156 1.738281.121094 2.277344-.417969.539062-.539063 1.375.539063.957031 1.015625-.480469.480469-1.257812 1.4375-1.4375 2.515625-.179688 1.140625-.777344 1.320313-1.378906 1.320313-.597656 0-3.710938 2.035156-2.871094 2.933593 0 0 .359375 1.136719 1.496094.777344 1.136718-.359375 1.976562-.238281 2.15625.71875.179687 1.019531 1.796875 1.976563 3.171875 2.035156 1.378906.121094 2.335937 1.019531 1.859375 1.320313-.539063.296875-2.15625 1.257812-2.15625 2.214844 0 .957031 1.257812 1.316406 1.734375.777343.480469-.539062.898437-.957031 1.558593.058594.65625.960937.238282 1.859375.71875 3.234375.476563 1.378906 2.515626-.898438 1.375-3.171875-1.136718-2.277344-.957031-2.695313.78125-2.933594 1.734376-.242187 6.707032-1.738281 9.941407-4.914062 3.292969-3.113281 3.171875-6.765625 1.496093-6.464844zm-16.347656 1.796875c-.539062.539062-1.257812 1.316406-.71875 1.796875.539063.539063.957032.238281 1.4375-.300781.539063-.539063 1.253906.179687.898438.71875-.359375.597656-.660156 1.558594-.242188 1.914062.421875.421875.421875.601563 1.019532 0 .65625-.65625 1.257812 0 1.015624.421875-.296874.417969-.65625 1.078125-.359374 1.316407.359374.238281 2.695312-.597657 2.515624.238281-.179687.898437-2.394531 2.15625-3.414062 1.378906-1.015625-.71875-2.273438-1.976563-2.933594-1.378906-.71875.601562-2.632812-1.4375-2.214844-2.574219.417969-1.195312 1.617188-2.8125 1.257813-3.234375-.300781-.417969.71875-2.515625 1.4375-1.855469.058594.058594.777344 1.019532.300781 1.558594zm0 0" fill="#791b1d"/><path d="m90.726562 26.890625c-.71875.117187-2.394531.359375-1.976562-.121094.421875-.480469.898438-1.136719.71875-2.097656-.179688-.957031 0-2.214844.660156-3.710937.71875-1.496094-.71875-2.15625-.71875-2.15625-.359375-.597657-1.4375.121093-1.855468.839843-.421876.714844-1.140626 1.375-2.695313 1.914063-1.558594.539062-1.859375 1.738281-1.738281 2.515625.179687.777343.898437 2.097656 1.558594 2.875.65625.777343.238281 2.394531.359374 3.652343.179688 1.257813-.960937 1.796876-1.078124 2.816407-.121094 1.015625 1.375.898437 1.675781 2.394531s1.796875 1.675781 2.636719.238281c.835937-1.496093 1.796874-1.554687 2.394531-1.855469.597656-.300781.65625-2.394531.476562-3.355468-.179687-.957032-.058593-1.195313.660157-2.574219.839843-1.375-.359376-1.554687-1.078126-1.375zm-4.730468-3.414063c.539062-.121093 1.316406-.359374 1.378906-.121093 0 0 .71875 1.738281.117188 1.855469-.65625.121093-1.375.421874-1.617188-.417969-.296875-.839844-.417969-1.257813.121094-1.316407zm2.816406 9.460938c-.898438.238281-1.859375.058594-1.976562-.359375-.0625-.417969.597656-.777344.835937-.839844.242187-.058593-.058594-.65625 1.257813-.777343 0 0 .78125 1.738281-.117188 1.976562zm0 0" fill="#791b1d"/><path d="m99.949219 18.324219c1.796875-.359375 2.933593-1.734375 2.816406-2.695313-.121094-.957031-.359375-1.496094-1.976563-.539062-1.617187.960937-3.894531 1.796875-5.152343 3.054687-1.257813 1.199219-4.429688 1.617188-3.832031 2.996094 0 0 0 .898437.898437.835937.898437-.117187 1.796875-.835937 2.277344-.359374.476562.480468 1.136719 1.320312.898437 1.976562-.300781.660156-3.535156.660156-3.355468 2.9375.179687 2.273438.480468 6.046875 1.4375 6.105469.898437.0625 1.796874-1.015625 1.496093-2.394531-.296875-1.4375-.296875-3.53125.0625-3.59375.296875-.058594.539063-1.976563 1.015625.539062.480469 2.515625.601563 2.816406.78125 4.851562.117188 2.035157.835938 4.25 1.253906 6.109376.421876 1.855468 2.757813 2.515624 2.515626-.242188-.359376-2.753906-.898438-6.167969-1.078126-7.003906-.179687-.898438.421876-1.617188.71875-1.019532.300782.597657.421876 1.855469 1.796876 1.796876 1.378906-.121094 2.335937-3.292969 2.039062-5.148438-.242188-1.859375-1.078125-2.335938-.839844-3.414062.300782-1.078126.179688-2.757813-.597656-2.578126-.78125.121094-1.257812.0625-2.875.898438-1.558594.78125-2.15625-.179688-2.277344-.71875-.058594-.597656.179688-2.035156 1.976563-2.394531zm.777343 5.332031c1.019532.238281.660157 1.976562.898438 3.351562.242188 1.316407-1.796875 1.316407-1.914062.777344-.121094-.535156-.960938-3.410156-.960938-3.410156-.476562-1.257812.960938-.960938 1.976562-.71875zm0 0" fill="#791b1d"/><path d="m160.496094 15.269531s-.660156 2.515625-1.320313 2.695313c-.597656.121094-1.257812 1.199218-1.195312 1.738281.058593.597656-1.257813 2.273437-.121094 2.992187 1.199219.71875 1.738281-1.4375 4.132813-2.15625 2.335937-.71875 2.515624-2.273437 2.035156-2.8125-.480469-.539062-1.019532-1.617187-1.4375-2.277343-.480469-.539063-1.734375-1.195313-2.09375-.179688zm0 0" fill="#791b1d"/><path d="m166.0625 34.433594c-2.394531 0-2.992188.78125-6.347656.601562-3.292969-.179687-5.628906-1.4375-5.269532-2.636718.300782-1.199219 1.257813-.777344 2.636719-.957032 1.4375-.179687 2.335938-1.257812 3.113281-2.277344.777344-1.019531 1.976563-4.429687.417969-4.191406-1.554687.179688-2.753906.417969-4.070312 1.136719-1.320313.660156-3.535157 1.855469-4.132813 1.140625-.597656-.71875-.480468-2.398438-.058594-3.234375.417969-.839844.058594-2.398437.957032-2.875.835937-.480469 2.394531.359375 2.8125-.601563.421875-.894531.242187-2.09375-.835938-2.8125s-2.515625-2.816406-3.355468-1.738281c0 0-.777344.601563-1.136719 1.617188-.359375 1.019531-1.738281 1.5-2.457031 2.277343-.65625.777344-.476563 2.09375.480468 2.335938.957032.296875 1.855469-.898438 1.917969-.121094.117187.839844.597656 1.675782.117187 2.035156-.476562.359376-2.09375.660157-2.8125 1.558594-.71875.898438-1.140624 2.035156-1.617187 2.035156-.480469 0-.839844.359376-1.257813 1.976563-.417968 1.617187.777344 2.753906 1.375 2.695313.601563-.058594.242188.839843-.417968.957031-.65625.0625-4.3125.839843-5.269532 1.976562-.957031 1.199219.71875 2.574219 2.394532 1.675781 1.679687-.898437 2.875-2.035156 2.515625-1.015624-.359375 1.015624-1.195313 2.394531-.476563 3.292968.714844.898438 2.332032.300782 2.574219-.597656l1.078125-3.953125c.117188-.539063.777344-1.136719 1.675781-.777344.839844.359375 2.15625.359375 1.917969 1.792969-.242188 1.4375.179688 1.917969 4.070312 3.296875 3.894532 1.375 7.1875 1.015625 8.144532-.179687.839844-1.019532 3.714844-4.371094 1.316406-4.433594zm-9.699219-6.046875c.359375-.0625.777344-.78125 1.316407-.601563.539062.121094.179687.71875-.839844 1.378906-1.078125.660157-.957032.539063-1.078125-.058593-.179688-.601563.601562-.71875.601562-.71875zm-7.308593-.0625c-.71875.0625.242187-1.316407.242187-1.316407.417969-.117187.296875-.058593.539063.300782.296874.417968-.0625.957031-.78125 1.015625zm2.9375 4.074219c-.601563.480468-1.976563-.480469-1.796876-.957032.117188-.539062.898438-1.019531 1.4375-.898437.539063.117187.65625-.839844.65625-.839844.421876-.957031.78125.121094.71875.839844-.058593.65625-.417968 1.375-1.015624 1.855469zm0 0" fill="#791b1d"/><path d="m208.582031 48.386719s-1.015625.421875-.898437 1.257812c.121094.839844-4.132813 3.714844-4.851563 4.132813-.71875.417968-1.257812.238281-2.273437-.660156-.957032-.898438-2.875-3.890626-3.714844-3.292969-.777344.601562-1.554688 1.917969-.898438 3.234375.660157 1.316406 1.859376 2.933594 1.019532 3.175781-.839844.238281-5.929688-1.199219-7.546875-.960937-1.554688.242187-1.078125 2.757812 2.515625 3.296874 3.59375.535157 5.390625 1.015626 6.589844.535157 1.195312-.476563 2.214843.0625 2.09375.898437-.117188.839844-3.351563 7.425782-.898438 11.378906 2.394531 3.953126 7.066406 4.730469 5.390625.898438-1.675781-3.773438-1.976563-8.503906-1.617187-10.238281.359374-1.738281.058593-2.9375 1.796874-1.859375 1.738282 1.078125 4.96875 4.015625 5.988282 3.234375 1.078125-.777344 1.078125-3.652344-1.136719-4.429688-2.214844-.71875-3.832031-1.558593-3.652344-2.335937.179688-.71875 2.15625-2.394532 3.171875-1.976563 1.078125.480469 2.457032-1.019531 2.097656-2.394531-.179687-1.378906-2.335937-4.433594-3.175781-3.894531zm0 0" fill="#791b1d"/><path d="m235.949219 111.925781c-.65625-1.734375-1.078125-2.933593-.777344-2.992187.300781-.121094.898437-.78125 1.496094-.0625.601562.71875 2.335937-.296875 3.894531 0 1.554688.300781 2.632812.660156 4.191406-.179688 1.617188-.835937 0-3.230468-.898437-2.992187-.898438.238281-.957031.179687-1.378907-.957031-.417968-1.140626-.539062-1.558594 0-1.679688.539063-.179688.839844-1.257812.121094-2.394531-.71875-1.078125-2.394531-.660157-3.234375-1.078125-.835937-.417969-1.4375 1.199218-2.214843 1.558594-.777344.296874-.597657-.960938.300781-2.21875.957031-1.253907-.242188-2.453126-.960938-1.554688-.71875.839844-2.632812 2.574219-3.472656 2.214844-.835937-.300782-.539063-.957032.777344-1.675782 1.320312-.71875.601562-1.796874.601562-1.796874-.300781-.539063-.539062-.238282-1.4375 0-.898437.238281-1.257812 1.558593-2.394531 2.574218-1.140625.957032-2.9375.71875-2.9375-.058594 0-.71875.539062-1.796874-.957031-2.636718-1.4375-.898438-6.40625 1.617187-3.351563 3.113281 2.992188 1.558594 6.945313 6.648437 7.964844 7.785156 1.074219 1.140625.835938 3.054688.296875 3.234375-.539063.179688-1.675781 1.5-.957031 2.039063.71875.539062.777344 1.554687 2.214844 2.332031 1.617187.839844 3.773437-.835938 3.113281-2.574219zm-2.8125-4.730469c-.421875-.839843.597656-1.617187.597656-1.617187.839844.300781 1.136719 1.199219.597656 2.097656-.597656.898438-.835937.359375-1.195312-.480469zm5.390625-2.753906c-.300782-.957031 1.617187-.777344 1.617187-.777344.296875 0 .417969.898438.65625 1.734376.238281.839843 0 1.136718-.71875 1.316406-.777343.179687-1.257812-1.316406-1.554687-2.273438zm0 0" fill="#791b1d"/><path d="m224.871094 102.34375s-1.257813.300781-1.316406 1.5c-.058594 1.195312-.957032 1.675781-1.316407.957031s-1.078125-3.472656-2.039062-3.714843c-.957031-.179688-3.769531 1.4375-2.035157 2.457031 1.738282 1.019531 2.15625 1.855469 2.097657 2.277343-.0625.417969-2.398438 1.554688-3.476563 1.375-1.074218-.179687-1.675781-1.855468-3.113281-1.617187-1.4375.242187-2.335937 1.558594-.898437 3.234375s4.191406 1.976562 7.007812 1.078125 3.292969-1.4375 3.714844.058594c.417968 1.5.71875 4.074219 1.613281 3.835937.898437-.242187 2.277344-2.277344 1.679687-3.355468-.539062-1.136719-1.859374-1.378907-1.320312-1.976563.539062-.539063 1.257812-.121094 1.976562.777344.78125.898437 1.4375.242187 1.738282-.417969.300781-.660156.417968-1.316406-.359375-2.394531-.777344-.957031-2.515625-4.851563-3.953125-4.074219zm0 0" fill="#791b1d"/></svg>