<?xml version="1.0" encoding="UTF-8" standalone="no"?>
<!-- Created with Inkscape (http://www.inkscape.org/) -->

<svg
   width="83.540619mm"
   height="83.540482mm"
   viewBox="0 0 83.540619 83.540482"
   version="1.1"
   id="svg1"
   xmlns="http://www.w3.org/2000/svg"
   xmlns:svg="http://www.w3.org/2000/svg">
  <defs
     id="defs1" />
  <g
     id="layer1"
     transform="translate(-63.508384,-100.81464)">
    <path
       id="path1"
       d="m 71.554526,140.18486 -0.121501,1.38635 c -0.02361,-0.003 -0.05709,-0.004 -0.100469,-0.007 -0.113773,-0.005 -0.190074,-0.009 -0.229981,-0.0133 -0.492891,-0.0432 -0.862313,-0.21753 -1.110234,-0.52362 -0.247733,-0.30558 -0.349282,-0.71486 -0.304456,-1.22809 0.02505,-0.28726 0.08983,-0.53883 0.193587,-0.75654 0.104452,-0.2172 0.248998,-0.40272 0.434342,-0.55659 0.183517,-0.15078 0.392842,-0.2609 0.628866,-0.329 0.235648,-0.0689 0.483381,-0.0916 0.742825,-0.0689 0.264595,0.0231 0.504647,0.0892 0.719266,0.19944 0.215882,0.10927 0.40071,0.25945 0.555842,0.45135 0.152415,0.18533 0.262207,0.3963 0.330265,0.63416 0.06717,0.23696 0.08983,0.48632 0.06698,0.74741 -0.02417,0.27574 -0.09626,0.51781 -0.21593,0.72694 -0.119111,0.20839 -0.289608,0.38901 -0.51158,0.54137 l -0.277196,-0.44348 c 0.147498,-0.10635 0.26113,-0.23034 0.341085,-0.37217 0.07977,-0.14268 0.127688,-0.30554 0.143797,-0.48906 0.03311,-0.37855 -0.0615,-0.69856 -0.283612,-0.95983 -0.222112,-0.2609 -0.527458,-0.40858 -0.915898,-0.44258 -0.395792,-0.0348 -0.726946,0.0572 -0.99351,0.2755 -0.267124,0.21847 -0.417713,0.51856 -0.451015,0.9004 -0.02857,0.32548 0.02487,0.58769 0.159535,0.78695 0.1356,0.20014 0.332981,0.311 0.594812,0.33392 l 0.04998,0.004 0.07354,-0.84142 z m 13.101487,-21.6523 c 0.08342,-0.0309 0.280474,-0.10157 0.458698,-0.0623 0.201971,0.045 0.546147,-0.059 0.743199,0.0183 0.180753,0.0712 0.308485,0.34942 0.301881,0.49463 -0.0044,0.0927 -0.165577,0.28151 -0.246984,0.3054 -0.01738,0.005 -0.155742,0.0941 -0.231294,0.0698 -0.257241,-0.0828 -0.397384,-0.3007 -0.610175,-0.42904 -0.142908,-0.0862 -0.431438,-0.0402 -0.540481,-0.13251 -0.0088,-0.007 -0.184077,-0.0947 -0.09387,-0.17423 0.02431,-0.0215 0.148574,-0.0637 0.219021,-0.0899 z m -4.029873,-4.15325 c 0.01573,0.0119 0.04816,0.0674 0.07429,0.11007 0.11218,0.34989 0.211901,0.63093 0.379867,0.95646 0.08783,0.17049 0.210965,0.40516 0.265298,0.61453 0.03368,0.12972 0.106471,0.2192 0.152603,0.252 0.08525,-0.0389 0.04684,-0.0932 0.08487,-0.16675 0.06076,-0.11804 0.116349,-0.30446 0.161222,-0.42811 0.03274,-0.0908 0.190823,-0.47074 0.193352,-0.56629 0.0037,-0.13211 0.04501,-0.14474 -0.02909,-0.2534 -0.02248,-0.0328 -0.109604,-0.0323 -0.146373,-0.0319 -0.07153,0 -0.165016,0.0782 -0.227031,0.0491 -0.03569,-0.0163 -0.08857,-0.0739 -0.109976,-0.1175 -0.01662,-0.0337 -0.01076,-0.0797 0.01195,-0.12547 0.0077,-0.0163 0.06384,-0.0487 0.07686,-0.0614 0.129892,0.0254 0.579778,-0.15551 0.661419,-0.20095 0.0044,-0.003 0.03345,-0.0234 0.04464,-0.0285 0.01573,-0.008 0.10043,-0.001 0.125856,-0.004 0.109976,-0.0106 0.10651,0.19579 0.118221,0.23092 0.04281,0.12786 -0.0547,0.30165 -0.06773,0.41874 -0.04534,0.40984 -0.255602,0.84639 -0.402678,1.23516 -0.07851,0.20843 -0.342724,0.62811 -0.188857,0.84919 0.09354,0.13443 0.346191,0.79767 0.347455,0.79908 0.105063,0.14989 0.292746,0.49228 0.269889,0.67356 -0.06126,0.48525 0.267873,0.80001 0.340334,1.22156 0.0084,0.0491 0.03513,0.0426 0.05691,0.0647 0.06769,-0.0445 0.08909,-0.10728 0.114716,-0.19343 0.05251,-0.17753 0.129188,-0.35318 0.18389,-0.53023 0.144172,-0.46558 -0.0875,-0.49369 -0.310685,-0.77894 -0.107772,-0.25901 -0.414996,-0.49836 -0.590644,-0.70868 -0.04755,-0.0567 -0.208904,-0.31335 -0.143235,-0.39392 0.109605,-0.13442 0.203798,-0.1175 0.247359,-0.11804 0.02342,-4.6e-4 0.23621,-0.10117 0.336868,-0.10263 0.108675,-0.001 0.43214,0.001 0.507364,-0.0459 0.0148,-0.009 0.0274,-0.0323 0.04464,-0.0285 0.04571,0.009 0.137755,0.0393 0.142345,0.10117 0.0011,0.0155 0.01373,0.1021 0.01662,0.10542 0.08801,0.10263 0.104121,0.62016 0.09513,0.69416 -0.01182,0.0979 -0.01155,0.47917 0.02177,0.53163 -0.02979,0.0304 0.297336,0.39251 0.681559,0.74568 0.24647,0.22671 0.539777,0.489 0.710085,0.66792 0.0719,0.0754 0.104121,0.14428 0.143282,0.19112 0.103563,0.12361 0.426472,0.42763 0.201081,0.64028 -0.09349,0.10303 -0.170729,0.18456 -0.254338,0.20188 -0.250637,0.051 -0.468394,-0.24263 -0.631581,-0.39954 -0.05855,-0.0562 -0.27045,-0.0323 -0.308485,0.0224 -0.122244,0.17566 -0.143282,0.56629 0.0024,0.73679 0.08286,0.0975 0.37762,0.27166 0.386425,0.41125 0.0035,0.053 -0.0098,0.19532 -0.05218,0.22343 -0.410922,0.27307 -0.472936,0.11471 -0.674206,-0.0469 -0.106138,-0.0852 -0.182439,-0.17846 -0.159394,-0.34475 5.62e-4,-0.003 0.08839,-0.27541 0.09278,-0.28853 0.105196,-0.32038 0.104824,-0.65386 0.378556,-0.89369 0.358977,-0.25761 -0.296962,-0.86418 -0.518699,-1.10072 -0.0013,-9.4e-4 -0.07208,-0.0426 -0.10501,-0.0637 -0.06862,0.0689 -0.06773,0.19766 -0.07227,0.29274 -0.01102,0.21828 -0.127913,0.41407 -0.148575,0.62953 -0.02361,0.24497 -0.206421,0.70821 -0.522587,0.43607 -0.14122,-0.12136 -0.172509,-0.32272 -0.216631,-0.47448 -0.094,-0.32366 -0.235649,-0.64404 -0.369001,-0.94522 -0.03588,-0.081 -0.08014,-0.23092 -0.159769,-0.36534 -0.05031,-0.0848 -0.08965,-0.18877 -0.115977,-0.304 -0.04721,-0.20655 -0.107586,-0.38174 -0.157896,-0.47869 -0.06333,-0.12228 -0.07466,-0.10263 -0.116907,-0.0689 -0.01958,0.0159 -0.06459,0.13158 -0.07668,0.15082 -0.03714,0.0582 -0.05855,0.17237 -0.123519,0.20844 -0.117478,0.0656 -0.193587,0.17893 -0.342302,0.21078 -0.04923,0.0106 -0.104307,0.0632 -0.233682,-0.0328 -0.02763,-0.0206 -0.103005,-0.11617 -0.0845,-0.14894 0.04262,-0.0745 0.06586,-0.13958 0.106272,-0.21639 0.138505,-0.26278 0.275556,-0.63421 0.4031,-0.81595 0.05963,-0.0848 0.0719,-0.16628 0.07462,-0.19158 0.0326,-0.1021 -0.08248,-0.33302 -0.200893,-0.56394 -0.164125,-0.31991 -0.209653,-0.52975 -0.352186,-0.82672 -0.148574,-0.3096 -0.300802,-0.61358 -0.525116,-0.82484 -0.05527,-0.004 -0.0527,0.045 -0.176584,-0.0159 -0.03734,-0.0183 -0.03584,-0.023 -0.02468,-0.0595 0.01518,-0.0502 0.06076,-0.2075 0.04445,-0.25575 0.05325,-0.0534 0.110547,-0.0773 0.166326,-0.1021 0.08637,-0.0589 0.375793,-0.0365 0.473312,0.037 z m 1.886223,3.04691 c -0.0089,0.0708 0.497106,0.68151 0.631253,0.69275 0.108104,0.008 0.06052,-0.38783 0.04755,-0.43888 -0.0386,-0.1527 -0.124594,-0.39672 -0.309562,-0.41359 -0.113627,-0.009 -0.348765,-10e-4 -0.369233,0.15972 z m 57.747277,9.41705 c -0.0135,0.0159 -0.12136,0.10768 -0.12136,0.11472 -9.4e-4,0.0206 -0.1911,0.0947 -0.28197,0.10821 -0.15317,0.0224 -0.34895,0.0313 -0.489,0.007 -0.10675,-0.0187 -0.26605,-0.0501 -0.37566,-0.0665 -0.0637,-0.009 -0.20703,-0.0412 -0.26418,-0.0135 -0.0441,0.022 0.005,0.0478 0.0243,0.0721 0.0183,0.023 0.3438,0.23466 0.46418,0.31851 0.20047,0.13911 0.47682,0.31475 0.67682,0.46182 0.14989,0.10954 0.34287,0.17238 0.45388,0.3232 0.0412,0.0562 0.0558,0.14099 0.0576,0.20844 0.005,0.16394 -0.16395,0.49088 -0.18736,0.52179 -0.0234,0.0309 -0.0285,0.0684 -0.0417,0.0937 -0.0689,0.13025 -0.023,0.15879 -0.1808,0.1972 -0.163,0.0398 -0.35832,-0.0763 -0.5232,-0.11711 -0.29181,-0.0712 -0.62905,-0.1658 -0.92366,-0.19812 -0.14896,-0.0163 -0.30915,-0.0482 -0.44592,-0.0684 -0.0847,-0.0119 -0.17049,-0.0389 -0.25949,-0.0463 -0.28384,-0.0239 -0.49744,-0.0562 -0.72413,-0.0567 -0.11711,0 -0.25903,-0.0463 -0.3602,-0.10449 -0.10582,-0.061 -0.1199,-0.27495 -0.14613,-0.38548 -0.003,-0.0141 -0.0389,-0.13025 -0.0432,-0.14568 -0.0347,-0.11432 -0.074,-0.16347 -0.18877,-0.19064 -0.48103,-0.11339 -0.99581,-0.42717 -1.34756,-0.76161 -0.215,-0.20422 -0.44779,-0.42248 -0.67777,-0.61219 -0.0769,-0.0632 -0.16581,-0.18501 -0.24357,-0.22998 -0.0726,-0.0421 -0.15363,-0.13723 -0.22811,-0.14894 -0.0389,-0.007 -0.0478,-0.0281 -0.073,-0.0384 -0.008,-0.004 -0.0852,0.0346 -0.088,0.0441 -0.007,0.022 -0.0291,0.0769 -0.0267,0.0997 0.008,0.0871 0.0708,0.17565 0.12322,0.24404 0.16627,0.21921 0.42529,0.36956 0.6239,0.55973 0.17143,0.16393 0.34801,0.30258 0.52037,0.46512 0.19392,0.1822 0.41361,0.40797 0.63094,0.57565 0.1911,0.14755 0.40844,0.38173 0.61875,0.47354 0.19156,0.0839 0.17845,0.30399 0.31569,0.41406 0.009,0.008 0.0432,0.0478 0.0754,0.0876 0.0956,0.11856 -0.0159,0.33678 -0.16957,0.31663 -0.0487,-0.007 -0.0923,0.007 -0.14286,0 -0.15878,-0.0215 -0.32646,-0.10821 -0.48806,-0.13817 -0.17612,-0.0328 -0.32553,-0.10582 -0.50118,-0.13959 -0.21359,-0.0402 -0.4431,-0.2178 -0.61687,-0.33535 -0.12229,-0.0829 -0.23655,-0.21313 -0.34381,-0.28855 -0.0993,-0.0693 -0.17003,-0.10263 -0.25949,-0.17892 -0.0365,-0.0313 -0.18642,-0.0435 -0.23138,-0.023 -0.0361,0.0163 -0.0862,0.0717 -0.0947,0.0867 -0.005,0.009 -0.0539,0.0435 -0.0632,0.0585 -0.0276,0.0422 0.0502,0.15784 0.0773,0.18126 0.16674,0.1452 0.33255,0.53444 0.46324,0.68527 0.0848,0.0975 0.16112,0.26932 0.25199,0.3527 0.0525,0.0487 0.015,0.16253 -0.0178,0.20983 -0.0267,0.038 -0.0806,0.0473 -0.12507,0.0469 -0.11565,-4.6e-4 -0.38455,-0.0197 -0.42671,-0.17096 -0.005,-0.0183 -0.0211,-0.10396 -0.0263,-0.12135 -0.0473,-0.15363 -0.20375,-0.41312 -0.28057,-0.52367 -0.0599,-0.0862 -0.11379,-0.14941 -0.15738,-0.23513 -0.0154,-0.03 -0.0978,-0.0876 -0.13771,-0.0422 -0.0192,0.0215 -0.10357,0.10635 -0.11897,0.12043 -0.0815,0.0721 -0.53116,0.43326 -0.70774,0.52928 -0.13959,0.0763 -0.33912,0.14192 -0.4876,0.20188 -0.26418,0.10914 -0.52367,0.14333 -0.77847,0.0679 -0.0417,-0.012 -0.1897,-0.0628 -0.22155,-0.0754 -0.14661,-0.0595 -0.21359,-0.30914 -0.20844,-0.38408 0.005,-0.0717 0.0239,-0.1466 0.0285,-0.18689 0.0192,-0.15598 -0.0285,-0.33724 -0.03,-0.51383 -0.001,-0.28525 0.0304,-0.55786 0.0239,-0.72226 -0.001,-0.0413 0.015,-0.0843 0.0856,-0.12507 0.06,-0.0343 0.10821,0.0295 0.12746,0.0469 0.0417,0.0384 0.0712,0.0361 0.11843,0.10077 0.009,0.0133 0.005,0.0313 0.0133,0.045 0.0106,0.0206 0.0402,0.11711 0.0459,0.13818 0.0328,0.11525 0.0782,0.20281 0.11897,0.32131 0.0459,0.13536 0.10582,0.28901 0.15175,0.41453 0.0665,0.18267 0.20376,0.33069 0.37987,0.38642 0.17518,0.0558 0.58362,-0.19906 0.7588,-0.30539 0.0304,-0.0183 0.2459,-0.15035 0.28104,-0.18314 0.0787,-0.0736 0.11246,-0.0684 0.13958,-0.16066 0.022,-0.0749 -0.007,-0.10303 -0.0585,-0.15176 -0.16066,-0.14989 -0.38783,-0.31288 -0.51055,-0.41266 -0.0965,-0.0782 -0.33725,-0.23138 -0.42765,-0.27775 -0.0778,-0.0393 -0.36206,-0.13025 -0.42108,-0.21733 -0.0272,-0.0402 -0.0497,-0.10582 -0.0801,-0.1424 -0.0843,-0.1021 -0.03,-0.35129 0.008,-0.43888 0.0515,-0.11897 0.10821,-0.18315 0.19813,-0.27401 0.0521,-0.0524 0.1377,-0.089 0.18126,0.0106 0.0224,0.0524 0.0604,0.12746 0.14848,0.2356 0.15271,0.18782 0.33445,0.34568 0.48667,0.52788 0.15457,0.18408 0.39954,0.4548 0.62483,0.63467 0.012,0.009 0.10489,0.1171 0.1195,0.13211 0.009,0.009 0.0141,0.0435 0.0463,0.0497 0.0215,0.004 0.0689,-0.0197 0.0876,-0.0313 0.0187,-0.0106 0.15551,-0.10768 0.16863,-0.16675 9.2e-4,-0.005 0.0197,-0.0698 0.0197,-0.0712 0.03,-0.10117 0.0581,-0.11803 0.0862,-0.13817 0.0346,-0.0239 0.12507,-0.004 0.12839,0.0337 9.3e-4,0.0154 0.0454,0.0698 0.0524,0.0787 0.0224,0.0291 0.19157,0.11949 0.21312,0.12932 0.22015,0.10635 0.77284,0.48852 1.00565,0.56722 0.0342,0.012 0.126,-0.0192 0.19484,-0.0454 0.0769,-0.03 0.0904,-0.0548 0.068,-0.13631 -0.0267,-0.0969 -0.41592,-0.43139 -0.51991,-0.52506 -0.0975,-0.088 -0.68807,-0.54849 -0.71665,-0.5677 -0.0267,-0.0178 -0.20703,-0.14707 -0.21687,-0.15316 -0.148,-0.0932 -0.23794,-0.17846 -0.38127,-0.2726 -0.22997,-0.14989 -0.42998,-0.31851 -0.68384,-0.43327 -0.10397,-0.0469 -0.22109,-0.0829 -0.33397,-0.19157 -0.0548,-0.0525 -0.0819,-0.0932 -0.11379,-0.15317 -0.0604,-0.11339 -0.0224,-0.41828 0.0323,-0.61312 0.0463,-0.16534 0.38643,-0.1106 0.50212,-0.0947 0.045,0.007 0.45387,0.15411 0.63515,0.2239 0.20609,0.0791 0.40515,0.27074 0.58267,0.3972 0.27402,0.19532 0.50306,0.48478 0.74522,0.71009 0.27073,0.25246 0.58455,0.46465 0.89978,0.65013 0.11525,0.0675 0.2801,0.18267 0.4506,0.23607 0.13157,0.0417 0.1822,0.14379 0.32881,0.0613 0.0726,-0.0408 0.12042,-0.26418 0.15504,-0.33115 0.009,-0.0178 10e-4,-0.0591 -0.009,-0.0656 -0.0524,-0.0309 -0.0778,-0.0243 -0.10953,-0.0352 -0.25575,-0.0862 -0.35084,-0.18736 -0.41829,-0.38877 -0.0295,-0.088 0.007,-0.0975 0.0665,-0.15456 0.0234,-0.0224 0.10157,-0.0412 0.11617,-0.037 0.0136,0.003 0.0258,0.0313 0.0337,0.0487 0.0491,0.10582 0.15081,0.13677 0.23748,0.20094 0.0435,0.0328 0.0539,-0.0408 -0.0183,-0.0867 -0.0361,-0.023 -0.0543,-0.12415 -0.0684,-0.15972 -0.009,-0.0244 -0.0106,-0.12042 0.0412,-0.081 0.0352,0.0267 0.0548,0.0412 0.0815,0.0726 0.0389,0.0454 0.11989,0.13301 0.18127,0.0988 0.0941,-0.052 0.16019,-0.0548 0.22248,0.0187 0.1175,0.14005 0.0192,0.23467 0.23327,0.31008 0.0754,0.0267 0.2918,-0.27026 0.22341,-0.34754 -0.0524,-0.06 -0.23279,-0.0248 -0.29696,-0.0309 -0.19906,-0.0192 -0.29086,-0.19064 -0.44777,-0.29462 -0.058,-0.0384 -0.12694,-0.12508 -0.20235,-0.13396 -0.12136,-0.0145 -0.3424,0.12268 -0.38034,0.14333 -0.0848,0.0463 -0.1808,0.16158 -0.28947,0.14894 -0.051,-0.005 -0.13118,0.0281 -0.18642,0.0361 -0.05,0.007 -0.17471,-0.0651 -0.15411,-0.12361 0.015,-0.0412 0.0141,-0.0932 0.03,-0.15176 0.0252,-0.0908 0.11286,-0.16206 0.13211,-0.20796 0.0106,-0.0243 -0.0234,-0.0721 -0.0389,-0.0904 -0.0543,-0.0647 -0.24311,-0.012 -0.3068,0.005 -0.11193,0.0285 -0.29322,0.14707 -0.41922,0.14099 -0.13065,-0.007 -0.29742,0.0417 -0.34427,-0.0675 -0.0154,-0.037 -0.0323,-0.16582 -0.0183,-0.20235 0.0192,-0.05 0.0829,-0.2061 0.12082,-0.25153 0.0721,-0.0852 0.28994,-0.18454 0.39627,-0.23888 0.088,-0.0445 0.12971,-0.14052 0.1953,-0.17799 0.10768,-0.0619 0.23702,-0.14661 0.32086,-0.23794 0.14052,-0.15364 0.5602,-0.39954 0.65996,-0.52179 0.0215,-0.0258 0.0937,-0.0665 0.1349,-0.0389 0.0187,0.0133 0.0941,0.11193 0.088,0.17705 -0.004,0.0417 -0.008,0.11565 -0.009,0.15551 -0.001,0.10117 0.008,0.29649 -0.0745,0.4164 -0.0834,0.12135 -0.15737,0.1616 -0.27917,0.23279 -0.0393,0.023 -0.40515,0.39064 -0.18688,0.38876 0.13396,-9.3e-4 0.0791,0.007 0.20515,-0.081 0.0267,-0.0187 0.096,-0.0365 0.13536,-0.0521 0.0641,-0.0243 0.35974,-0.17238 0.4389,-0.21266 0.0426,-0.0215 0.27728,-0.0923 0.45761,-0.25246 0.15271,-0.13489 0.32648,-0.24872 0.43842,-0.33865 0.0969,-0.0782 0.15926,-0.12786 0.25293,-0.2342 0.0539,-0.0609 0.0736,-0.14707 0.11246,-0.22436 0.023,-0.0463 0.023,-0.0867 0.068,-0.1363 0.0469,-0.0524 0.007,-0.0674 0.11472,-0.0558 0.0282,0.003 0.03,0.0258 0.0412,0.052 0.0323,0.0745 0.111,0.0764 0.12321,0.19953 0.003,0.0343 -0.0562,0.28807 -0.0684,0.3129 -0.0632,0.13536 -0.0899,0.31943 -0.22717,0.45668 -0.19625,0.19625 -0.36628,0.45106 -0.61453,0.58503 -0.0919,0.0496 -0.23138,0.11617 -0.31241,0.18359 -0.0352,0.0295 -0.007,0.17706 0.0173,0.1883 0.0548,0.0252 0.12839,0.0623 0.18502,0.0787 0.0402,0.0106 0.22388,0.0567 0.25152,0.0567 0.12175,-0.001 0.10821,0.0656 0.20843,-0.0135 0.0426,-0.0337 0.0328,-0.12228 0.0389,-0.1747 0.012,-0.10171 -0.0295,-0.25388 -0.009,-0.37425 0.003,-0.0135 0.0496,-0.0285 0.0515,-0.0285 0.0571,0.0135 0.11525,0.0501 0.16955,0.0726 0.0417,0.0173 0.058,0.0913 0.076,0.11989 0.0576,0.0928 0.1106,0.47589 0.31054,0.54849 0.0619,0.0224 0.13351,0.03 0.19017,0.0313 0.40189,0.0119 0.79955,0.0319 1.25859,-0.19391 0.0815,-0.0402 0.26464,-0.0487 0.363,-0.0576 0.13443,-0.0119 0.14801,0.12228 0.15972,0.15268 0.0309,0.0801 -0.12547,0.36348 -0.17331,0.42109 z m -3.12279,0.54615 c -0.0684,-0.005 -0.20188,0.126 -0.24263,0.18549 -0.0441,0.0641 -0.0183,0.0889 -0.0192,0.14707 -4.8e-4,0.0192 -0.004,0.0506 0.0169,0.0689 0.0169,0.0141 0.0361,0.0169 0.0571,0.0243 0.0534,0.0193 0.25855,0.0155 0.30913,-0.0234 0.0567,-0.0435 0.0917,-0.15271 0.1045,-0.18361 0.0365,-0.088 -0.15739,-0.21265 -0.22577,-0.21875 z m 1.79208,0.14895 c -0.11564,-0.0698 -0.48292,-0.2801 -0.5883,-0.41734 -0.007,-0.009 -0.12879,-0.0665 -0.14192,-0.0656 -0.0193,9.3e-4 -0.0361,0.0135 -0.0534,0.023 -0.001,9.5e-4 0.004,0.004 0.003,0.005 -0.10157,0.0534 -0.17658,0.24589 -0.2637,0.3274 -0.0754,0.0702 -0.17611,0.14754 -0.14099,0.27495 0.0323,0.11896 -0.005,0.17236 -0.0332,0.2473 -0.0398,0.10449 -0.30352,0.19299 -0.41499,0.16488 -0.0133,-0.003 -0.0932,-0.03 -0.0947,-0.0291 -0.0412,0.0206 -0.1106,0.004 -0.13957,0.0282 -0.0721,0.0595 0.0491,0.0736 0.089,0.0754 0.11564,0.005 0.22202,0.0393 0.33537,0.0459 0.21031,0.0133 0.43186,0.0604 0.65575,0.073 0.0988,0.005 0.16488,0.0343 0.24965,0.0384 0.27776,0.0135 0.47262,0.0417 0.70775,0.0759 0.15878,0.0234 0.31804,-0.0421 0.42483,-0.0239 0.0904,0.0159 0.10861,-0.0393 0.19813,-0.0975 0.004,-10e-4 -0.003,-0.0106 9.4e-4,-0.0133 0.0258,-0.015 0.0159,-0.0309 0.0119,-0.0619 -0.001,-0.008 -0.0543,-0.0988 -0.0641,-0.10489 -0.25434,-0.16347 -0.48151,-0.41031 -0.74053,-0.56675 z m -65.080211,-3.3523 c 0.129002,-0.0478 0.111808,-0.10953 0.142907,-0.25621 0.03091,-0.14661 -0.03424,-0.23981 -0.02983,-0.24122 0.0044,-0.001 -0.04571,-0.12175 -0.05653,-0.1264 0.02544,-0.25012 0.33612,-0.25012 0.515421,-0.21921 0.0615,0.0552 0.07888,0.1616 0.349656,0.51991 0.06843,0.0858 0.532236,0.7457 0.668538,0.53633 0.06037,-0.20939 -0.02361,-0.27261 -0.08872,-0.48057 -0.02689,-0.0867 0.185906,-0.33773 0.269327,-0.18784 0.02122,0.0604 0.133023,0.35318 0.125484,0.43983 -0.01301,0.15129 -0.04389,0.62062 -0.01738,0.70165 0.01301,0.0402 0.171479,0.489 0.188481,0.5082 0.164126,0.18409 0.183143,0.23796 0.215883,0.43234 0.0194,0.11378 0.09406,0.18641 0.09884,0.19391 0.09237,0.11339 0.177661,0.17611 0.218271,0.0736 0.02652,-0.0665 -0.0033,-0.26044 -0.0289,-0.41033 0.01386,-0.10449 -0.0068,-0.21077 0.0845,-0.25995 0.0214,-0.0106 0.05766,-0.0309 0.108861,0.008 0.04703,0.0619 0.163235,0.23982 0.227076,0.42109 0.199817,0.28057 0.353872,0.2342 0.457808,0.37518 0.004,0.005 0.177288,0.53444 0.301131,0.33537 0.0615,-0.0763 -0.0068,-0.14894 -0.0214,-0.22154 -0.112884,-0.2403 -0.03167,-0.65483 -0.02946,-0.97754 0.002,-0.32226 0.615143,-0.60704 0.867092,-0.38596 0.108156,0.0947 0.189184,0.27074 0.254852,0.39907 0.107772,0.12879 0.245906,0.32647 0.331577,0.45575 0.07846,0.11949 0.155506,0.80892 0.08928,0.90728 -0.03129,0.0459 -0.05068,0.29649 -0.02305,0.35972 0.02594,0.0589 0.284503,0.13118 0.371952,0.0843 0.0902,-0.11751 0.154616,-0.24215 0.276821,-0.36956 0.119867,-0.12547 0.374153,-0.37846 0.545069,-0.42436 0.0408,-0.0106 0.185906,-0.0834 0.250825,-0.0473 0.184828,0.1045 0.276868,0.2787 0.297523,0.52366 0.01573,0.18736 -0.05049,0.2979 -0.228342,0.35646 -0.0092,0.003 -0.168714,0.009 -0.178598,0.008 -0.154945,-0.0159 -0.409845,0.10357 -0.543571,0.18597 -0.08744,0.0543 -0.131578,0.21826 -0.151478,0.31615 -0.06258,0.3068 0.0889,0.68902 0.120757,0.87589 0.01235,0.0717 0.08361,0.12362 0.06895,0.1972 -0.01536,0.0769 -0.04281,0.16395 -0.101173,0.215 -0.0792,0.0693 -0.116163,-0.12083 -0.133726,-0.1616 -0.02763,-0.0641 -0.451204,-0.79627 -0.522728,-0.87261 -0.175507,-0.18783 -0.400336,-0.68996 -0.672988,-0.69042 -0.02815,0 -0.173634,0.0313 -0.196116,0.0506 -0.04173,0.0352 -0.09041,0.12228 -0.06754,0.17846 0.02731,0.0674 0.09204,0.19673 0.135039,0.24965 0.05105,0.0637 -0.02103,0.13677 -0.06623,0.16066 -0.03148,0.0169 -0.09734,0.0272 -0.152228,-0.0252 -0.09822,-0.0936 -0.351295,-0.19157 -0.427221,-0.33397 -0.161174,-0.30257 -0.420618,-0.65527 -0.609099,-0.94756 -0.04571,-0.0708 -0.09569,-0.15081 -0.199583,-0.15409 -0.04905,-0.001 -0.05785,0 -0.05855,0.0511 -0.0019,0.14943 0.133352,0.46746 0.213868,0.62016 0.0072,0.178 -0.101358,0.19673 -0.244455,0.14474 0.0037,-0.009 -0.368484,-0.51711 -0.388625,-0.56255 -0.04351,-0.0978 -0.219349,-0.1747 -0.309187,-0.22717 -0.02417,0.0192 -0.04558,0.0224 -0.06295,0.0619 0.0019,4.6e-4 0.0037,0.001 0.0053,0.001 -0.0031,0.0154 0.02474,0.18361 0.04192,0.21733 0.05635,0.17144 0.141781,0.46325 0.319818,0.54521 0.07447,0.0343 0.3705,0.21453 0.336635,0.32601 -0.01662,0.0548 -0.08614,0.0917 -0.08689,0.14613 -9.36e-4,0.0819 0.0096,0.1106 0.03274,0.16395 0.152227,0.35175 0.414621,0.62014 0.598139,0.94756 0.197428,0.35175 1.058803,1.23187 1.404619,1.33024 0.172555,0.0487 0.381318,0.24543 0.520713,0.34567 0.04577,0.0332 0.138691,0.14144 0.151665,0.19438 0.0068,0.0272 -0.03912,0.13025 -0.06384,0.15504 -0.120571,0.12082 -0.348157,0.16675 -0.648586,0.14567 -0.300286,-0.0206 -1.376655,-0.81875 -1.667948,-1.082 -0.434717,-0.32131 -0.771024,-0.80188 -1.200635,-1.14428 -0.09311,-0.0745 -0.377618,-0.33022 -0.488488,-0.21218 -0.04866,0.0515 -0.225062,-0.0852 -0.175318,-0.10675 0.086,-0.037 0.196537,-0.0867 0.278693,-0.12932 0.337009,-0.17518 1.327241,0.91852 1.702845,0.92508 0.02857,4.7e-4 0.07008,-0.005 0.06183,-0.0285 -0.01644,-0.0478 -0.04666,-0.0721 -0.05869,-0.13065 -0.0046,-0.0224 -0.157194,-0.2726 -0.306471,-0.4356 -0.128484,-0.22436 -0.215928,-0.49229 -0.251761,-0.53304 -0.03204,-0.0473 -0.08492,-0.15363 -0.0807,-0.21499 -0.05214,-0.0571 -0.180239,-0.0988 -0.529895,-0.1264 -0.381085,-0.03 -0.640529,-0.2534 -0.782873,-0.44826 -0.04979,-0.068 -0.107971,-0.11803 -0.159207,-0.15082 1.87e-4,-0.0243 0.0025,-0.0309 0.01447,-0.0506 0.01462,-0.004 0.0267,-0.0141 0.0355,-0.0133 0.150729,0.037 0.466707,0.0159 0.334059,-0.15035 -0.05433,-0.0384 -0.143984,-0.1452 -0.201082,-0.18267 -0.01757,-0.0106 -0.01607,-0.0497 -0.01353,-0.0702 0.0019,9.4e-4 0,-0.005 0.0064,-0.009 0.0148,-0.023 0.08216,-0.0356 0.106656,-0.0272 0.152041,0.0511 0.232933,0.1808 0.369048,0.25573 0.08216,0.0337 0.216257,0.0908 0.282675,0 -0.116906,-0.27354 -0.200706,-0.57798 -0.300755,-0.85856 -0.0474,-0.13251 -0.08567,-0.44029 -0.123518,-0.62671 -0.01221,-0.0595 -0.01248,-0.11047 -0.02839,-0.13442 -0.121461,-0.18269 -0.324925,-0.31383 -0.459213,-0.48058 -0.10651,-0.19439 -0.699125,-0.71571 -0.779267,-0.82016 -0.109976,-0.0539 -0.196491,0.13065 -0.201457,0.21218 -0.0068,0.10675 -0.0044,0.19299 0.04703,0.30727 0.213354,0.47308 0.331013,0.83795 0.462164,0.91665 0.05068,0.0417 0.114902,0.16113 0.153353,0.24919 0.05817,0.13349 0.149651,0.12547 0.201455,0.24263 0.04881,0.0787 0.103895,0.35925 -0.07138,0.31428 5.62e-4,-0.001 -0.07831,-0.0192 -0.09167,-0.0543 -0.02431,-0.0721 -0.223938,-0.32507 -0.336493,-0.63843 -0.02211,-0.0619 -0.07573,-0.0408 -0.114716,0.0119 -0.139956,0.15598 0.246844,1.11759 0.263847,1.15037 0.09897,0.26137 0.185156,0.70401 0.122204,0.87404 -0.08652,0.23372 -0.242206,0.53536 -0.491251,0.64637 -0.08839,0.0422 -0.167029,0.0469 -0.185531,0.0106 -0.06862,-0.1452 0.0637,-0.20374 0.0933,-0.27542 0.07593,-0.18266 0.07831,-0.22154 0.06478,-0.45199 -0.02998,-0.50633 -0.334808,-1.11947 -0.443662,-1.65999 -0.08164,-0.18314 -0.257289,-0.81735 -0.285627,-1.0122 -0.0046,-0.0487 -0.01314,-0.10821 -0.01334,-0.22014 -0.0141,-0.0951 -0.200567,-0.26511 -0.0933,-0.34334 0.143423,-0.22436 0.408533,-0.12879 0.537529,-0.17705 z m 4.12608,2.24362 c 0.15916,0.23419 0.02361,0.44121 0.280099,0.64076 0.156255,-0.03 0.259818,-0.2431 0.393591,-0.22577 0.07227,0.009 0.155881,0.0478 0.228716,0.007 0.134477,-0.0754 -0.01049,-0.47449 -0.0763,-0.55084 -0.0622,-0.0726 -0.09461,-0.35316 -0.507365,-0.65949 -0.05307,-0.0398 -0.154616,-0.066 -0.217755,-0.0337 -0.06604,0.0347 -0.09495,0.0886 -0.142346,0.14802 -0.09626,0.12228 -0.04464,0.541 0.04136,0.67449 z m -6.279426,-2.07733 c 0.154241,-0.14848 0.309608,-0.22249 0.509237,-0.20844 0.120943,-0.0262 0.284315,0.0506 0.30188,0.18455 0.0086,0.163 -0.03443,0.26511 0.0037,0.4342 0.03456,0.20468 0.01831,0.34006 0.111437,0.526 0.04427,0.19064 -0.145999,0.48104 -0.193589,0.36864 -0.0355,-0.0145 -0.04829,-0.39721 -0.06567,-0.44546 -0.03752,-0.0408 -0.0474,-0.22247 -0.191199,-0.16908 -0.07995,0.0295 -0.137052,0.0459 -0.199255,0.051 -0.257053,0.076 -0.391904,0.24732 -0.601792,0.44077 -0.08324,0.0763 -0.148387,0.14192 -0.249747,0.0159 -0.08178,-0.1021 0.02618,-0.30398 0.08707,-0.4089 0.143657,-0.24685 0.227452,-0.53772 0.487973,-0.78924 z M 93.073,110.68978 c 0.111808,0.0323 0.392093,0.12879 0.456497,0.22484 0.100283,0.14848 0.299163,0.27681 0.172697,0.4829 -0.09752,0.15925 -0.479916,-0.0815 -0.602682,-0.0591 -0.150402,0.0276 -0.208202,0.1719 -0.316542,0.23045 -0.03747,0.0206 -0.402678,0.21218 -0.375604,0.0441 0.0078,-0.0478 0.153679,-0.20798 0.156959,-0.2342 0.01049,-0.081 -0.0086,-0.12269 -0.08047,-0.19112 -0.09884,-0.0106 -0.21813,-0.0234 -0.271902,-0.0656 -0.09311,-0.0726 -0.176912,-0.0913 -0.171245,-0.11803 0.0089,-0.0426 0.103563,-0.10582 0.140519,-0.11286 0.09072,-0.0163 0.220987,-0.0825 0.307922,-0.11856 0.134101,-0.0567 0.43509,-0.1264 0.583852,-0.0829 z m -1.813199,-0.1106 c 0.0194,0.0183 0.06899,0.0506 0.08637,0.10861 0.07977,0.26698 0.214805,0.57613 0.321834,0.83186 0.268577,0.64076 0.544133,1.3012 0.83285,1.93963 0.09696,0.21405 0.13045,0.27307 0.189184,0.43232 0.04557,0.12361 0.04408,0.22249 -0.0016,0.34006 -0.0688,0.17751 -0.234384,-0.0169 -0.317991,-0.0408 -0.05344,-0.0154 -0.179115,-0.0908 -0.231481,-0.12229 -0.09715,-0.0586 -0.127302,-0.19391 -0.138316,-0.30024 -0.0064,-0.0628 -0.0439,-0.11803 -0.0668,-0.17705 -0.219348,-0.56066 -0.481554,-1.41642 -0.773926,-1.91619 -0.06441,-0.11007 0.002,-0.14943 -0.104824,-0.18409 -0.03167,0.0155 -0.05583,0.10821 -0.05987,0.1363 -0.0048,0.0361 -0.06384,0.25809 -0.07864,0.27776 -0.04647,0.0628 -0.05911,0.12229 -0.113255,0.18174 -0.06019,0.066 -0.140331,-0.0276 -0.110866,-0.0721 0.0386,-0.0586 0.04243,-0.12786 0.05359,-0.15973 0.07503,-0.21171 0.09078,-0.45106 0.125338,-0.67214 0.02085,-0.13157 -0.01668,-0.3274 0.0035,-0.43654 0.0072,-0.0393 0.0058,-0.0441 0.02361,-0.0806 0.01429,-0.0304 0.06899,-0.141 0.09789,-0.1616 0.05251,-0.037 0.114145,-0.0145 0.159535,0.004 0.0282,0.0119 0.05981,0.03 0.103934,0.0708 z m -2.045756,-0.67543 c 0.229091,0.1264 0.376542,0.5691 0.410594,0.80189 0.135741,0.9307 0.09035,1.25201 -0.0474,1.84921 -0.01208,0.0524 -0.04004,0.0951 -0.01373,0.14192 0.01481,0.0263 0.133212,0.0365 0.165203,0.0337 0.0615,-0.005 0.371062,-0.10954 0.406004,-0.19157 0.0097,-0.0224 0.05564,-0.0234 0.07705,-0.022 0.05837,0.004 0.158082,0.11711 0.2386,0.14146 0.08085,0.0243 0.371764,1.08854 0.406894,1.1677 0.0527,0.11803 0.02379,0.24404 0.115831,0.35364 0.02946,0 0.05963,-0.0141 0.08853,4.6e-4 0.02909,0.015 0.04468,0.0867 0.03682,0.12747 -0.01944,0.10024 -0.0401,0.21967 -0.09443,0.31054 -0.04464,0.015 -0.03771,0.30211 -0.03424,0.33678 0.02235,0.22482 -0.08872,0.78127 -0.273495,0.98081 -0.14033,0.15176 -0.203095,0.30914 -0.344175,0.30633 -0.06641,-0.001 -0.176584,-0.17939 -0.187545,-0.23935 -0.01391,-0.0763 -0.230168,-0.28056 -0.314151,-0.2979 -0.01681,-0.004 -0.03072,0.0106 -0.04319,10e-4 -0.04558,-0.0309 -0.03072,-0.0534 -0.01168,-0.0889 0.01354,-0.0258 0.09148,-0.0352 0.10412,-0.0319 0.0845,0.0239 0.161549,0.0215 0.247921,0.043 0.06604,0.0163 0.11194,-0.12043 0.138692,-0.16862 0.07738,-0.13911 0.287593,-0.63749 0.228716,-0.83655 -0.0086,-0.22108 -0.555516,0.21874 -0.70409,0.18548 -0.02229,-0.005 -0.126798,-0.0248 -0.166841,-0.0445 -0.133773,-0.066 -0.288016,-0.0984 -0.411297,-0.18407 -0.03915,-0.0272 -0.0423,-0.0628 -0.02435,-0.11432 0.01592,-0.045 0.03129,-0.0787 0.05729,-0.14146 0.105581,-0.25434 0.373403,-0.12228 0.564789,-0.19906 0.03695,-0.015 0.103934,0.004 0.11672,-0.0323 0.02272,-0.0656 0.0207,-0.14005 0.0187,-0.20797 -5.62e-4,-0.0276 -0.0049,-0.0791 0.02248,-0.10861 0.06132,-0.066 0.03461,-0.13118 0.112552,-0.10542 0.06239,0.0211 0.04151,0.37284 0.03382,0.41874 -0.0057,0.0346 0.0086,0.0997 0.05709,0.1171 0.07484,0.0361 0.224688,0.0674 0.298975,0.0309 0.151666,-0.0745 -0.263472,-1.17989 -0.324409,-1.29839 -0.02581,-0.0497 -0.09934,-0.0689 -0.150402,-0.053 -0.109418,0.0337 -0.655189,0.62953 -0.662308,0.7396 -0.0053,0.0778 -0.213916,0.22857 -0.272465,0.19861 -0.05874,-0.03 -0.08235,-0.0511 -0.113256,-0.16207 -0.0093,-0.0333 -0.05086,-0.12547 -0.04389,-0.18033 0.01864,-0.14521 0.197053,-0.40376 0.152228,-0.541 -0.04614,-0.14192 0.157333,-0.93305 0.121447,-1.26373 -0.05705,-0.5171 -0.03526,-0.77846 -0.306984,-1.26279 -0.08511,-0.15128 -0.08051,-0.32459 -0.157568,-0.4904 -0.02487,-0.0539 0.06042,-0.14193 0.113122,-0.14333 0.1608,-0.005 0.22703,0.045 0.367736,0.12229 z m 10.537026,-2.86985 c 0.132109,0.10077 0.332799,0.33396 0.180425,0.5054 -0.02031,0.023 -0.13503,0.16909 -0.152781,0.19204 -0.07834,0.10264 -0.126268,0.29322 -0.185909,0.41078 -0.02363,0.0473 -0.03054,0.0609 -0.03572,0.0978 -0.0066,0.0469 -0.08033,0.12972 -0.109405,0.0702 -0.02828,-0.0586 -0.03439,-0.0867 -0.05377,-0.11804 -0.03187,-0.051 -0.06015,-0.14238 -0.05045,-0.20422 0.01726,-0.10768 0.0802,-0.19017 0.03372,-0.28244 -0.04262,-0.0849 -0.06386,-0.326 -0.206754,-0.31148 -0.09002,0.009 -0.334481,0.14052 -0.422497,0.12693 -0.107015,-0.0165 -0.208201,-0.0502 -0.22412,-0.17049 -0.0066,-0.0506 0.06599,-0.11949 0.08816,-0.16393 0.0644,-0.13025 0.272795,-0.30493 0.413681,-0.32179 0.225023,-0.0263 0.549799,0.0352 0.725445,0.16908 z m 3.232479,-0.26744 c -0.0555,0.0767 -0.13012,0.12321 -0.18169,0.1911 -0.0311,0.0412 -0.0285,0.081 -0.0507,0.11192 -0.0203,0.0285 -0.0989,0.14615 -0.0985,0.1719 1.8e-4,0.0119 -0.0397,0.022 -0.0459,0.0365 -0.0716,0.16065 -0.13396,0.31851 -0.20272,0.48244 -0.0438,0.10396 -0.0434,0.1883 -0.11644,0.27261 -0.0266,0.0304 -0.075,0.22764 -0.0445,0.25481 0.0372,0.0332 0.0766,0.0591 0.12401,0.0543 0.024,-0.003 0.16141,-0.11246 0.21996,-0.13396 0.12773,-0.0469 0.14324,-0.12653 0.28979,-0.0937 0.0453,0.009 0.0846,0.12786 0.10051,0.15597 0.0345,0.0623 -0.0165,0.0889 -0.0357,0.1325 -0.0169,0.0384 -0.0527,0.0647 -0.0757,0.0988 -0.0914,0.13677 -0.10795,0.26651 -0.17476,0.4089 -0.0895,0.19111 -0.0673,0.47167 -0.15368,0.6417 -0.0146,0.0286 -0.0373,0.0669 -0.0291,0.10264 0.003,0.0106 0.0499,0.015 0.0599,0.0133 10e-4,0 -0.003,-0.005 -8.9e-4,-0.005 0.0335,-0.0183 0.11525,-0.0978 0.1394,-0.13211 0.008,-0.0106 0.19999,-0.18596 0.20492,-0.18924 0.0451,-0.03 0.0343,-0.0441 0.0535,-0.0951 0.008,-0.0224 0.0454,-0.053 0.0489,-0.0543 0.0571,-0.0248 0.047,-0.008 0.0924,0.003 0.044,0.009 0.16173,0.20094 0.14234,0.2356 -0.0331,0.0595 -0.085,0.17706 -0.13485,0.22951 -0.1122,0.11711 -0.26328,0.24451 -0.37031,0.35973 -0.27594,0.29743 -0.62377,0.56441 -0.86363,0.89135 -0.0559,0.0763 -0.15021,0.15786 -0.17161,0.25294 -0.0106,0.0502 -0.009,0.081 -0.001,0.1325 0.005,0.0304 0.10224,-4.7e-4 0.11392,-0.008 0.23494,-0.14848 0.49345,-0.3232 0.70076,-0.5349 0.0507,-0.0515 0.40071,-0.28058 0.48727,-0.25903 0.0915,0.0234 0.20291,0.0773 0.27733,0.14473 0.004,0.003 0.0264,0.0224 0.0271,0.0243 0.0335,0.0988 0.0809,0.22951 -0.0167,0.31945 -0.0186,0.0173 -0.0413,0.0656 -0.0543,0.0895 -0.0183,0.0337 -0.12176,0.22155 -0.1284,0.2342 -0.0726,0.13396 -0.12281,0.30726 -0.16613,0.39017 -0.0226,0.0431 -0.0543,0.13025 -0.003,0.12746 0.11033,-0.007 0.14561,-0.0534 0.22725,-0.0895 0.0432,-0.0192 0.092,-0.0412 0.13373,-0.0276 0.0774,0.0248 0.0412,0.18174 10e-4,0.21828 -0.0965,0.0895 -0.0907,0.37144 -0.18786,0.50352 -0.0106,0.0145 -0.001,0.0487 -0.0264,0.0506 -0.0645,0.004 -0.0558,-0.0754 -0.13521,-0.0871 -0.17233,-0.0285 -0.46236,0.2117 -0.65609,0.24824 -0.032,0.005 -0.12334,0.0106 -0.14511,-0.008 -0.11564,-0.0979 -0.0969,-0.17798 -0.0498,-0.30257 0.0687,-0.18128 0.22034,-0.35505 0.26844,-0.53959 0.0283,-0.10861 0.10516,-0.23982 0.0977,-0.3499 -1.9e-4,-0.004 -0.0133,-0.0285 -0.0222,-0.0309 -0.0668,-0.0174 -0.25725,0.12547 -0.31339,0.16065 -0.11698,0.073 -0.21702,0.10303 -0.38991,0.0815 -0.1325,-0.0163 -0.0862,0.13677 -0.062,0.21781 0.0357,0.11843 0.13415,0.37611 0.16065,0.48618 0.019,0.0791 0.0369,0.10821 0.0499,0.19907 0.008,0.0478 -0.0173,0.0969 -0.0227,0.14192 -0.009,0.0782 -0.0186,0.19017 -0.1171,0.19767 -0.17363,0.0136 -0.27537,-0.0947 -0.3489,-0.23045 -0.0389,-0.0721 -0.3654,-0.87871 -0.4225,-0.93211 -0.13316,-0.12454 9.4e-4,-0.23092 0.0793,-0.34754 0.0539,-0.0801 0.28414,0.0389 0.38146,-0.0281 0.12096,-0.0834 0.0479,-0.42904 -0.0413,-0.35644 -0.0192,0.0159 -0.0984,0.0469 -0.11512,0.0712 -0.0196,0.0276 -0.0224,0.038 -0.043,0.053 -0.0384,0.0286 -0.10184,0.0641 -0.15054,0.0651 -0.074,10e-4 -0.10224,-9.3e-4 -0.14857,-0.0619 -0.0571,-0.0745 0.0522,-0.22812 0.0605,-0.30775 0.0119,-0.11192 0.1195,-0.28712 0.0745,-0.41171 -0.0295,-0.0819 -0.003,-0.15082 0.008,-0.23139 0.009,-0.0721 0.086,-0.45527 -0.0159,-0.44684 -0.0986,0.008 -0.12029,0.081 -0.20109,0.10821 -0.25176,0.0848 -0.38699,0.0669 -0.57561,0.003 -0.0106,-0.003 -0.0223,-0.0248 -0.0327,-0.0234 -0.0716,0.0119 -0.0701,0.0769 -0.0826,0.12879 -0.0855,0.35504 -0.185859,0.72601 -0.247877,1.08339 -0.0066,0.0374 -0.0093,0.0923 -0.01434,0.12322 -0.02031,0.11657 -0.03758,0.19298 -0.04554,0.3185 -0.0013,0.0286 0.01062,0.0641 0.02602,0.088 0.04833,0.0778 0.08617,0.0224 0.123477,0.0145 0.12322,-0.0286 0.18315,-0.23374 0.20235,-0.34474 0.0119,-0.0674 0.0328,-0.11192 0.0508,-0.18127 0.0165,-0.0623 0.0149,-0.18502 0.0441,-0.25621 0.0234,-0.0571 0.0856,-0.11193 0.15367,-0.0815 0.0785,0.0352 0.0741,0.15597 0.0556,0.2328 -0.0243,0.10064 -0.0566,0.25106 -0.0867,0.34848 -0.0133,0.0422 -0.0386,0.0876 -0.0742,0.21358 -0.0636,0.22484 -0.14015,0.42952 -0.24039,0.63889 -0.0167,0.0347 -0.07,0.0712 -0.076,0.0984 -0.0458,0.21125 -0.0179,0.30446 -0.05417,0.44123 -0.02695,0.10157 -0.0316,0.2548 -0.07542,0.34662 -0.03718,0.0769 -0.08325,0.21733 -0.147312,0.25995 -0.08086,0.0539 -0.188432,0.0267 -0.267126,-0.0135 -0.102368,-0.0524 -0.12494,-0.0978 -0.180186,-0.18595 -0.03279,-0.0524 -0.01461,-0.17705 -0.01062,-0.3068 0.008,-0.23655 -0.008,-0.79346 -0.01633,-1.04311 0.0401,-0.4314 0.265665,-1.02578 0.295128,-1.49653 0.0013,-0.0258 0.0027,-0.14098 0.04156,-0.237 0.04355,-0.10914 0.06918,-0.31148 -0.03001,-0.39252 -0.0778,-0.0641 -0.308857,0.21219 -0.355513,0.25434 -0.100111,0.0899 -0.103696,0.20516 -0.28432,0.19673 -0.232366,-0.0106 -0.70221,-0.14332 -0.84404,-0.3335 -0.0058,-0.008 -0.09878,-0.10356 -0.103191,-0.1733 -0.0033,-0.0515 0.08694,-0.10489 0.09734,-0.10821 0.01686,-0.005 0.06791,-0.0215 0.07668,-0.0239 0.04614,-0.0141 0.161918,0.0398 0.214615,0.045 0.395929,0.0393 0.672057,0.11803 1.010004,-0.40797 0.05669,-0.088 0.327684,-0.25948 0.443475,-0.2801 0.103032,-0.0183 0.232036,0.0543 0.312696,0.11524 0.11578,0.0886 0.22543,0.3157 0.15607,0.45856 -0.0119,0.0254 -0.0281,0.13211 -0.0266,0.15363 7e-4,0.008 -0.005,0.0398 0.0149,0.0552 0.0242,0.0192 0.0916,0.005 0.12056,-0.003 0.24848,-0.0632 0.63931,-0.3096 0.82118,-0.46932 0.0394,-0.0347 0.16319,-0.14989 0.20216,-0.17144 0.0939,-0.052 0.0683,-0.34942 0.11127,-0.40984 0.0313,-0.0441 0.0227,-0.11286 0.0479,-0.16347 0.0584,-0.11711 0.0465,-0.29087 0.0941,-0.40703 0.004,-0.0119 -0.008,-0.10542 -0.0239,-0.11153 -0.0231,-0.008 -0.0502,-0.009 -0.0637,-9.5e-4 -0.0538,0.0328 -0.14801,0.0669 -0.18993,0.10583 -0.0988,0.0932 -0.35327,0.18922 -0.49182,0.19625 -0.13091,0.007 -0.27681,0.009 -0.39499,-0.0558 -0.0548,-0.0304 -0.0489,-0.0276 -0.11658,-0.0787 -0.0223,-0.0169 -0.0876,-0.12972 -0.0548,-0.15832 0.0418,-0.0365 0.0763,-0.0858 0.13391,-0.0965 0.20932,-0.0408 0.5319,-0.17516 0.68062,-0.30819 0.16394,-0.14614 0.32553,-0.24685 0.47355,-0.41173 0.0693,-0.0773 0.15241,-0.1349 0.22557,-0.20422 0.0992,-0.0941 0.1645,-0.24824 0.2624,-0.33115 0.0406,-0.0343 0.163,-0.18782 0.20417,-0.19485 0.0969,-0.0159 0.13026,-0.0328 0.24736,-4.7e-4 0.028,0.008 0.0697,0.0482 0.14201,0.0917 0.0717,0.0436 0.13757,0.0337 0.22868,0.0258 0.0295,-0.003 0.0819,0.0567 0.099,0.0758 0.009,0.0106 0.015,0.0552 0.0106,0.0674 -0.004,0.0133 -0.003,0.0402 -0.008,0.0585 -0.008,0.0323 -0.0802,0.126 -0.10117,0.15504 z m -1.48223,3.34807 c -0.0162,0.0604 -0.0688,0.17705 -0.009,0.22061 0.15241,0.11246 0.24389,-0.0119 0.38314,-0.0515 0.11976,-0.0337 0.0805,-0.10158 0.12176,-0.17002 0.0834,-0.13818 0.0653,-0.40751 0.10953,-0.55927 0.0163,-0.0558 0.0991,-0.33068 0.0149,-0.36535 -0.0536,-0.0215 -0.034,-0.12693 -0.0669,-0.12693 -0.0159,0 -0.0836,0.009 -0.0872,0.0239 -0.004,0.0187 -0.0765,0.0408 -0.13725,0.11657 -0.005,0.005 -0.0392,0.0773 -0.0431,0.0876 -0.0459,0.11658 -0.22981,0.62157 -0.28488,0.82438 z m 9.4912,1.55039 c -0.0445,0.0319 -0.10861,0.12879 -0.14614,0.14894 -0.0843,0.0454 -0.15128,0.03 -0.16955,0.0267 -0.038,-0.007 -0.0647,-0.0323 -0.0843,-0.0511 -0.0562,-0.053 -0.10821,-0.0758 -0.10542,-0.16112 0.003,-0.0604 -0.0141,-0.19579 0.0178,-0.24919 0.0609,-0.10263 0.0693,-0.17892 0.0778,-0.25621 0.005,-0.0478 0.0947,-0.33443 0.096,-0.35223 9.4e-4,-0.0234 0.0899,-0.38127 0.0974,-0.39345 0.0389,-0.0623 0.0975,-0.28666 0.12083,-0.33022 0.0174,-0.0319 0.0323,-0.0834 0.0454,-0.11525 0.10675,-0.25762 0.13251,-0.526 0.17754,-0.75458 0.0141,-0.0708 0.0758,-0.22717 0.10024,-0.28103 0.0651,-0.14333 0.1106,-0.30634 0.11618,-0.43093 0.005,-0.0969 0.004,-0.19251 0.001,-0.28806 -0.003,-0.14941 0.096,-0.28525 0.0871,-0.43045 -9.3e-4,-0.0119 0.007,-0.0791 0.0567,-0.16253 0.0459,-0.0769 0.17423,-0.11711 0.24263,-0.14568 0.0571,-0.0243 0.20703,0.0993 0.22717,0.13677 0.0459,0.0843 0.0463,0.15176 0.005,0.26043 -0.0333,0.0867 -0.0632,0.2103 -0.10303,0.29181 -0.0343,0.0684 -0.0374,0.15082 -0.0543,0.22483 -0.0337,0.14942 -0.0825,0.28291 -0.12933,0.40515 -0.045,0.11751 -0.0291,0.16254 -0.0309,0.28853 -4.7e-4,0.0263 0.001,0.0815 -0.001,0.10396 -0.008,0.0534 -0.0211,0.16675 -0.0402,0.21124 -0.0585,0.13538 -0.0862,0.27121 -0.11896,0.41313 -0.0389,0.16628 -0.0815,0.56629 -0.13065,0.72227 -0.0914,0.29227 -0.0347,0.50118 -0.0988,0.77566 -0.0272,0.11525 -0.16206,0.32459 -0.25621,0.39252 z m -0.72507,-2.73636 c 0.0119,0.009 0.0343,0.0778 0.0463,0.0969 0.0496,0.0778 -0.13118,0.67074 -0.16067,0.75787 -0.007,0.0196 -0.009,0.0525 -0.03,0.0651 -0.0743,0.045 -0.06,0.096 -0.0955,0.16441 -0.0968,0.18502 -0.17855,0.47027 -0.29785,0.64357 -0.089,0.12879 -0.33154,0.59206 -0.47388,0.73491 -0.005,0.005 -0.0773,0.0769 -0.0815,0.0899 -0.0193,0.0558 -0.004,0.11246 -0.0279,0.14754 -0.0208,0.03 -0.0335,0.052 -0.066,0.0698 -0.088,0.0482 -0.21682,0.03 -0.29608,0.10303 -0.005,0.005 -0.0584,0.0417 -0.0684,0.052 -0.12056,0.12268 -0.28029,0.25293 -0.40414,0.36489 -0.012,0.0106 -0.14603,0.0997 -0.1621,0.11046 -0.0369,0.0248 -0.12096,0.073 -0.1475,0.096 -0.0635,0.0548 -0.19026,0.0815 -0.23729,0.0726 -0.0269,-0.005 -0.072,-0.0133 -0.0829,-0.0272 -0.0216,-0.0285 -0.0694,-0.1264 -0.0854,-0.13957 -0.0331,-0.0276 -0.0199,-0.15973 -0.004,-0.19533 0.005,-0.0119 0.0272,-0.0562 0.025,-0.10117 -0.003,-0.0534 0.0712,-0.16956 0.12361,-0.1883 0.0309,-0.0106 0.069,0 0.0847,0.0806 0.008,0.0365 0.15003,0.0445 0.18188,0.0341 0.0175,-0.005 0.0717,-0.0224 0.11963,-0.0417 0.0473,-0.0187 0.11126,-0.0665 0.15991,-0.0997 0.0704,-0.0473 0.16744,-0.16019 0.24243,-0.22482 0.0179,-0.015 0.0551,-0.0979 0.0536,-0.12879 -10e-4,-0.0304 -0.0255,-0.13911 -0.0668,-0.14379 -0.0155,-0.001 -0.13996,0.003 -0.16797,-0.0141 -0.0837,-0.0524 -0.23181,-0.0671 -0.32202,-0.1021 -0.13906,-0.0543 -0.13447,-0.19251 -0.17766,-0.27447 -0.0175,-0.0333 -0.004,-0.0628 -0.0295,-0.0937 -0.0247,-0.0304 0.0466,-0.1021 0.0692,-0.11657 0.02,-0.0133 0.0775,-0.0196 0.10754,-0.009 0.0299,0.0106 0.11552,0.0332 0.14329,0.05 0.0732,0.0454 0.13251,0.053 0.15916,0.0304 0.0329,-0.0282 0.10648,-0.0693 0.13397,-0.0867 0.0481,-0.0304 0.20781,-0.10729 0.25195,-0.088 0.0133,0.007 0.0185,0.0145 0.0239,0.0281 0.0158,0.0389 0.023,0.0712 -0.0175,0.15552 -0.0119,0.0263 -0.0487,0.0941 -0.0461,0.12083 0.003,0.0239 0.0769,0.14427 0.10489,0.16113 0.0311,0.0183 0.0427,0.0291 0.0774,0.0263 0.0142,-9.3e-4 0.0181,-0.009 0.0325,-0.0174 0.0613,-0.0346 0.0973,-0.18689 0.15533,-0.26698 0.0178,-0.0248 0.0781,-0.12786 0.094,-0.1555 0.0809,-0.14193 0.30192,-0.3143 0.36394,-0.52085 0.0316,-0.10636 0.0925,-0.27028 0.0989,-0.36958 0.004,-0.053 0.0445,-0.17657 0.0712,-0.22154 0.0571,-0.0975 0.0451,-0.23607 0.1041,-0.3335 0.0187,-0.0313 -0.0256,-0.0534 -0.0675,-0.0482 -0.24704,0.0309 -0.43584,0.1195 -0.57359,0.23092 -0.0867,0.0702 -0.17987,0.14472 -0.26385,0.21734 -0.0414,0.0356 -0.20952,0.0487 -0.27153,0.037 -0.0706,-0.0133 -0.13794,-0.0106 -0.16301,-0.0721 -0.0502,-0.12042 -0.0165,-0.17564 0.041,-0.28009 0.004,-0.007 0.0393,-0.038 0.0552,-0.0426 0.1098,-0.0347 0.18332,-0.11844 0.27574,-0.18362 0.10211,-0.0712 0.23767,-0.18548 0.29823,-0.30257 0.0135,-0.0263 0.0353,-0.0562 0.0556,-0.0778 0.25743,-0.26838 0.40324,-0.44029 0.41916,-0.75598 0.005,-0.10675 -0.0358,-0.26746 0.0382,-0.42203 0.005,-0.0106 0.0688,-0.0459 0.0811,-0.0558 0.0449,-0.0346 0.089,-0.0295 0.13336,-0.051 0.0315,-0.0154 0.25836,10e-4 0.25836,10e-4 0.0457,0.0281 0.15392,0.0356 0.1914,0.0773 0.0337,0.038 0.0717,0.20796 0.0374,0.23653 -0.008,0.008 -0.0843,0.15458 -0.0975,0.17565 -0.058,0.0937 -0.10582,0.17472 -0.17297,0.26136 -0.0461,0.06 -0.0779,0.13772 -0.10768,0.19766 -0.0758,0.15176 -0.0451,0.14848 -0.0797,0.17331 -0.0889,0.0632 -0.0997,0.17144 -0.13298,0.26885 -0.005,0.015 -0.0295,0.0272 -0.0247,0.0365 0.007,0.0119 0.0137,0.0243 0.0299,0.0291 0.16469,0.0487 0.42919,-0.05 0.5608,0.053 z m 2.91575,0.34942 c -0.0133,-0.0248 -0.0548,-0.0319 -0.0862,-0.0106 -0.0328,0.0224 -0.12653,0.0534 -0.16112,0.1049 -0.0178,0.0272 -0.0286,0.0389 -0.0613,0.0473 -0.0169,0.004 -0.0365,-4.6e-4 -0.0487,0.008 -0.0119,0.008 -0.0133,-0.001 -0.0248,0.007 -0.0337,0.0234 -0.22671,-0.081 -0.18502,-0.17611 0.0135,-0.03 0.12786,-0.10025 0.16347,-0.11618 0.18221,-0.0797 0.0984,-0.37706 -0.003,-0.48291 -0.0347,-0.0365 -0.12747,-0.0435 -0.17098,-0.0908 -0.0491,-0.0534 0.0133,-0.11007 0.0552,-0.13677 0.066,-0.0422 0.29275,-0.1349 0.37191,-0.10078 0.22529,0.0978 0.52553,0.24591 0.62905,0.50118 0.0276,0.0675 0.005,0.0619 0.015,0.13818 0.009,0.0754 -0.0647,0.51242 -0.10635,0.53256 -0.0183,0.009 -0.0196,0.008 -0.0337,0.0234 -0.0582,0.0609 -0.33584,-0.21641 -0.35318,-0.24919 z m 7.51022,3.00474 c -0.0224,0.0858 -0.0619,0.14942 -0.0749,0.2506 -0.003,0.0215 -0.20703,0.44918 -0.23982,0.50211 -0.0571,0.0937 -0.13489,0.2876 -0.17893,0.44217 -0.007,0.0224 -0.0206,0.0988 -0.0478,0.15643 -0.0876,0.18456 -0.16675,0.43936 -0.24966,0.53444 -0.081,0.0923 -0.18735,0.39159 -0.28337,0.4876 -0.0702,0.0702 -0.0567,0.0941 -0.12547,0.14332 -0.0398,0.0285 -0.089,0.0163 -0.12747,0.0539 -0.0562,0.0552 0.003,0.22436 0.0441,0.28151 0.0656,0.0923 0.11152,0.27261 0.12228,0.38267 0.007,0.0609 0.0361,0.11897 0.0422,0.17893 0.003,0.0295 0.0141,0.0834 -0.0106,0.10263 -0.0282,0.022 -0.059,0.0454 -0.0886,0.0708 -0.0852,0.0736 -0.12547,0.20329 -0.21545,0.2609 -0.0726,0.0463 -0.1719,0.11047 -0.20798,0.14286 -0.0332,0.03 -0.0843,0.0506 -0.10953,0.0665 -0.0211,0.0133 -0.0365,0.0133 -0.068,0.0393 -0.0463,0.0393 -0.0773,-0.19015 -0.0801,-0.20749 -0.0183,-0.10543 -0.0773,-0.23607 -0.0904,-0.26137 -0.0745,-0.14426 -0.0248,-0.24263 -0.0224,-0.3794 0.003,-0.19999 -0.0224,-0.29321 -0.0133,-0.42576 0.005,-0.0702 0.0389,-0.1264 0.03,-0.18315 -0.0106,-0.066 -0.0628,-0.24591 -0.11751,-0.24637 -0.10077,-10e-4 -0.14568,0.0773 -0.2417,0.11989 -0.11949,0.0534 -0.22669,0.12747 -0.34567,0.17846 -0.12547,0.0539 -0.27026,0.0417 -0.3986,0.0895 -0.14192,0.0525 -0.30211,0.10396 -0.44918,0.12932 -0.0163,0.003 -0.0352,-0.001 -0.0515,9.3e-4 -0.0215,0.003 -0.12972,-0.0133 -0.20656,-0.0735 -0.0106,-0.008 -0.015,-0.0426 -0.0244,-0.0684 -0.0141,-0.0393 -0.001,-0.074 0.0343,-0.0984 0.10635,-0.0735 0.19017,0.023 0.2773,0.005 0.12082,-0.0248 0.24309,-0.14707 0.36066,-0.19673 0.17846,-0.0758 0.34521,-0.18735 0.51055,-0.2712 0.18454,-0.0941 0.42484,-0.35925 0.46839,-0.43794 0.0435,-0.0791 0.12042,-0.0951 0.0978,-0.163 -0.015,-0.0454 -0.19672,0.0135 -0.22575,0.0196 -0.0895,0.0196 -0.34896,0.0346 -0.4225,0.0332 -0.074,-9.3e-4 -0.24497,0.0159 -0.27917,0.0258 -0.0978,0.0291 -0.25714,0.081 -0.35083,0.0426 -0.0402,-0.0163 -0.10489,-0.0524 -0.12228,-0.0773 -0.038,-0.0539 -0.0647,-0.27541 -0.0595,-0.30165 0.0145,-0.0736 0.0309,-0.15597 0.0782,-0.21686 0.0515,-0.0669 0.13443,-0.15176 0.17424,-0.19626 0.052,-0.0595 0.2548,-0.25996 0.31523,-0.32835 0.0281,-0.0319 0.0693,-0.11565 0.0932,-0.13816 0.068,-0.0651 0.21873,-0.31336 0.26229,-0.39018 0.0534,-0.0951 0.12414,-0.14941 0.17564,-0.20843 0.0422,-0.0482 0.16863,-0.20611 0.215,-0.25106 0.0571,-0.0558 0.0426,-0.19814 0.12229,-0.24311 0.0211,-0.0119 0.12321,0.0159 0.14427,0.0309 0.0571,0.0398 0.0712,0.0904 0.0791,0.12693 0.015,0.0651 0.0154,0.14051 0.045,0.19906 0.081,0.16019 0.30587,0.17003 0.4431,0.23046 0.0539,0.0239 0.26185,-0.008 0.33912,-0.0337 0.0567,-0.0183 0.1452,-4.6e-4 0.21781,0.0389 0.0445,0.0239 0.11379,0.12746 0.0908,0.18313 -0.0319,0.0769 -0.10675,0.14193 -0.17611,0.18268 -0.0797,0.0473 -0.19486,0.12361 -0.28712,0.16207 -0.0393,0.0163 -0.21265,0.0656 -0.20235,0.14473 0.003,0.0211 0.007,0.0234 0.0313,0.0408 0.0272,0.0192 0.0623,0.0323 0.0932,0.0445 0.0328,0.0119 0.21781,0.12547 0.22389,0.17003 0.0106,0.0717 -0.0665,0.0932 -0.10582,0.11472 -0.0441,0.0243 -0.0984,0.0352 -0.13959,0.0543 -0.0585,0.0263 -0.12693,0.0637 -0.1808,0.0858 -0.0778,0.0309 -0.12082,0.0895 -0.18501,0.13397 -0.0408,0.0281 -0.0459,0.0224 -0.0398,0.0698 0.003,0.0192 0.0187,0.0843 0.0384,0.10728 0.0211,0.0252 0.0773,0.0478 0.11153,0.0852 0.0641,0.0693 0.1045,0.13725 0.0712,0.22436 -0.009,0.0248 -0.15269,0.20047 -0.15269,0.20047 -0.0408,-0.003 -0.12454,0.16019 -0.0919,0.19158 0.0347,0.0328 0.12654,0.18689 0.178,0.18689 0.0984,0 0.0337,-0.16347 0.0862,-0.20703 0.0904,-0.0754 0.27026,-0.54428 0.32647,-0.64499 0.051,-0.0908 0.13537,-0.25714 0.1808,-0.35269 0.10356,-0.2164 0.22108,-0.50728 0.38502,-0.68713 0.068,-0.0749 0.13912,-0.35318 0.19017,-0.39861 0.06,-0.0534 0.052,-0.10914 0.0313,-0.18221 -0.0133,-0.0435 -0.12175,-0.12547 -0.163,-0.12879 -0.19814,-0.0133 -0.63515,-0.19345 -0.83281,-0.2 -0.0243,-4.7e-4 -0.0769,0.0135 -0.0975,0.005 -0.0558,-0.0248 -0.0421,-0.0473 -0.0552,-0.0839 -0.0141,-0.0389 -0.0454,-0.12361 -0.0491,-0.16347 -0.005,-0.0469 0.0838,-0.0806 0.12175,-0.0689 0.0313,0.0106 0.11246,0.0178 0.15364,0.0248 0.28666,0.0482 0.61171,0.0858 0.88386,0.14568 0.0867,0.0192 0.38596,0.19438 0.40234,0.24918 0.0459,0.15364 0.0352,0.19157 -0.004,0.34146 z m -2.61223,1.26513 c 0.053,-0.03 0.28244,0.0454 0.34286,0.0684 0.0224,0.008 0.12879,0.009 0.17144,-0.0135 0.10157,-0.0534 0.15691,-0.1195 0.2534,-0.17191 0.0721,-0.0384 0.0848,-0.11617 0.0534,-0.19063 -0.004,-0.008 -0.0445,-0.037 -0.0524,-0.0374 -0.0343,-0.003 -0.068,0.005 -0.0975,0.004 -0.0708,-4.7e-4 -0.18267,-0.0754 -0.28619,-0.0791 -0.11193,-0.004 -0.0515,-0.14943 -0.10861,-0.18549 -0.0263,-0.0165 -0.023,-0.008 -0.0436,0.0106 -0.0159,0.015 -0.0291,0.0319 -0.05,0.0524 -0.0956,0.0904 -0.12879,0.23607 -0.22483,0.32459 -0.023,0.0211 -0.0497,0.038 -0.0735,0.0478 -0.0239,0.009 -0.0726,0.0899 -0.0749,0.11657 -0.007,0.0759 0.15223,0.0754 0.19064,0.053 z m 0.88714,-1.14053 c -0.0417,-0.0196 -0.12839,-0.0773 -0.17331,-0.089 -0.0361,-0.009 -0.11339,0.0589 -0.11949,0.0637 -0.0539,0.0445 -0.0778,0.16299 -0.10861,0.2281 -0.015,0.0304 -0.0309,0.0754 0.004,0.0969 0.001,0.001 -0.004,0.005 -0.003,0.005 0.0769,0.0365 0.13444,0.0276 0.18784,0.0323 0.15597,0.0141 0.26183,-0.0304 0.3794,-0.0356 0.0932,-0.004 0.14144,-0.11193 0.12228,-0.17659 -0.004,-0.0141 -0.0133,-0.0291 -0.0159,-0.0459 -0.007,-0.0328 -0.1106,-0.0619 -0.13211,-0.0436 -0.0389,0.0323 -0.11896,-0.0252 -0.14192,-0.0361 z m 1.36115,-1.73447 c -0.008,-0.0862 -0.1911,-0.16112 -0.22577,-0.25996 -0.008,-0.0243 -0.0637,-0.0478 -0.0932,-0.0445 -0.18454,0.0169 -0.47822,0.237 -0.64637,0.289 -0.22764,0.0708 -0.48854,0.17236 -0.72695,0.23186 -0.0843,0.0211 -0.22812,0.0384 -0.26605,0.051 -0.0309,0.0106 -0.0908,-0.0145 -0.14707,0.0133 -0.066,0.0328 -0.11007,0.0585 -0.15458,0.0595 -0.15457,0.003 -0.24919,-0.0628 -0.32412,-0.18642 -0.0665,-0.10954 -0.0426,-0.16909 -0.0286,-0.28712 0.0282,-0.22718 0.28151,-0.38128 0.35879,-0.57893 0.003,-0.008 0.0459,-0.0473 0.0632,-0.0524 0.12269,-0.0361 0.27964,-0.3794 0.3143,-0.48572 0.003,-0.008 0.0491,-0.0773 0.0623,-0.0908 0.0304,-0.0319 0.22764,0.0224 0.25247,0.0567 0.0174,0.0234 0.0365,0.0361 0.045,0.053 0.0145,0.0291 0.0119,0.0928 0.0133,0.12043 0,0.0285 -0.0454,0.0763 -0.059,0.1106 -0.0304,0.0745 -0.11711,0.24168 -0.17752,0.27915 -0.0562,0.0337 -0.30961,0.34803 -0.23841,0.42015 0.15879,0.16067 0.3068,0.16956 0.52788,0.11856 0.26324,-0.0609 0.6136,-0.22764 0.79533,-0.29462 0.0187,-0.007 0.18174,-0.0337 0.12879,-0.0975 -0.0106,-0.0135 -0.0543,-0.0469 -0.10675,-0.0956 -0.0422,-0.0393 -0.17051,-0.17002 -0.14007,-0.22576 0.005,-0.009 0.052,-0.0343 0.0632,-0.0398 0.13211,-0.0698 0.68105,0.11472 0.79909,0.17752 0.0552,0.0295 0.16393,0.0839 0.18501,0.13677 0.0426,0.10914 0.0562,0.21126 0.0313,0.32881 -0.0215,0.10171 -0.11246,0.32741 -0.20563,0.39111 -0.0689,0.0478 -0.0951,-0.053 -0.0993,-0.0979 z m 0.80564,-2.05063 c 0.0106,0.2075 -0.0469,0.31898 -0.21171,0.43561 -0.17518,0.12321 -0.36348,0.13958 -0.51805,0.20188 -0.0506,0.0206 -0.38455,0.15035 -0.41265,0.15926 -0.14286,0.0463 -0.31007,-0.0754 -0.39158,-0.0852 -0.0656,-0.008 -0.10728,-0.0133 -0.16112,0.0313 -0.0281,0.0234 -0.14005,0.0323 -0.17144,0.0263 -0.0408,-0.008 -0.0604,-0.003 -0.10489,0.008 -0.0239,0.005 -0.0656,-9.5e-4 -0.0628,-0.0426 9.3e-4,-0.009 0.0135,-0.0163 0.0133,-0.0258 -0.001,-0.015 0.14708,-0.13771 0.1869,-0.15269 0.12042,-0.0454 0.37519,-0.0754 0.46465,-0.13397 0.11803,-0.0778 0.19719,-0.163 0.32694,-0.2445 0.0346,-0.0224 0.0769,-0.0459 0.11378,-0.0669 0.23139,-0.13157 0.21172,-0.27166 0.0895,-0.42763 -0.0159,-0.0206 -0.0267,-0.0717 0.003,-0.0876 0.11564,-0.06 0.3363,-0.0984 0.44123,-0.11153 0.14661,-0.0178 0.1541,0.0106 0.24356,0.0886 0.0196,0.0169 0.0487,0.0647 0.0478,0.0735 -0.0119,0.0914 0.0997,0.26745 0.10396,0.35457 z m 2.78882,1.04359 c -0.005,0.038 0.0534,0.14005 0.065,0.18361 0.0206,0.0797 0.005,0.15737 -0.0441,0.25247 -0.0454,0.0871 -0.10449,0.16065 -0.14988,0.25386 -0.0721,0.14894 -0.21828,0.44451 -0.33772,0.55598 -0.0918,0.0858 -0.16535,0.19346 -0.25387,0.27916 -0.21405,0.20657 -0.47636,0.3232 -0.70213,0.49838 -0.15269,0.11896 -0.39437,0.20562 -0.52225,0.33583 -0.0595,0.061 -0.15691,0.0708 -0.22155,0.0787 -0.11525,0.0133 -0.25809,-0.0206 -0.33677,-0.0675 -0.10396,-0.0619 -0.28104,-0.36817 -0.34428,-0.46465 -0.053,-0.0815 -0.037,-0.22952 -0.12972,-0.28713 -0.0263,-0.0159 -0.0801,-0.0272 -0.111,-0.0211 -0.0647,0.0136 -0.29977,0.0988 -0.36816,0.0787 -0.13065,-0.0374 -0.50072,-0.0708 -0.56582,-0.21219 -0.0215,-0.0473 -0.0858,-0.0908 -0.0234,-0.15081 0.0333,-0.0328 0.0623,-0.0521 0.10914,-0.0689 0.0791,-0.0291 0.20327,-0.003 0.29508,-0.005 0.11286,-0.005 0.27401,-0.001 0.41218,-0.0515 0.11432,-0.0417 0.2342,-0.1541 0.32648,-0.23185 0.0815,-0.0689 0.14894,-0.17143 0.22436,-0.22999 0.0838,-0.066 0.19719,-0.12135 0.29368,-0.20327 0.0365,-0.0309 0.0871,-0.0801 0.0923,-0.12746 0.005,-0.043 0.0637,-0.19018 0.007,-0.21312 -0.0862,-0.0352 -0.27495,-0.0234 -0.34568,-0.0886 -0.0585,-0.0539 -0.18688,-0.17236 -0.17189,-0.26605 0.008,-0.0487 0.0834,-0.2075 0.14567,-0.17236 0.0754,0.0426 0.12879,0.10874 0.19812,0.1452 0.0632,0.0337 0.27027,0.0941 0.34006,0.0858 0.33678,-0.0389 0.67636,0.0665 1.00658,0.0276 0.15176,-0.0183 0.22154,0.0215 0.35879,0.0285 0.11286,0.005 0.42156,-0.003 0.5082,-0.0524 0.0169,-0.009 0.14192,-0.0717 0.17098,-0.0519 0.0343,0.023 0.0763,0.15269 0.0749,0.16253 z m -1.17146,0.20421 c -0.088,-0.0119 -0.7972,-0.0698 -0.81874,0.0106 -0.005,0.0187 -0.0276,0.0408 -0.0193,0.0674 0.0352,0.10543 -0.009,0.23608 0.0576,0.3321 0.0623,0.0886 0.12454,0.0647 0.0759,0.20141 -0.009,0.0239 -0.0726,0.0988 -0.13443,0.0951 -0.0285,-10e-4 -0.2417,0.18735 -0.26792,0.21546 -0.0684,0.0726 -0.17706,0.19438 -0.28292,0.23372 -0.0337,0.0119 -0.17938,0.13351 -0.16347,0.18269 0.0193,0.0585 0.0852,0.1466 0.13677,0.17939 0.23279,0.14942 0.27028,0.11524 0.44544,0.066 0.22812,-0.0641 0.51196,-0.29181 0.7101,-0.4192 0.0285,-0.0178 0.18221,-0.10675 0.24918,-0.1527 0.0763,-0.053 0.27261,-0.29556 0.2815,-0.31101 0.0923,-0.16395 0.21687,-0.30352 0.29557,-0.51337 9.3e-4,-10e-4 -0.005,-9.3e-4 -0.005,-0.003 0.0106,-0.0267 -0.0319,-0.11193 -0.0539,-0.14007 -0.0521,-0.0669 -0.44873,-0.0365 -0.50634,-0.0445 z m 5.31674,9.60816 c -0.009,0.0482 -0.0106,0.11525 -0.012,0.15411 -0.001,0.0422 0.007,0.14005 0.005,0.17096 -0.007,0.13864 -0.0754,0.47916 -0.0782,0.62577 -0.003,0.1195 -0.0119,0.23748 0.0267,0.34381 0.081,0.22389 0.20235,0.41546 0.42437,0.52787 0.0858,0.0435 0.16862,0.12694 0.3007,0.16768 0.003,4.8e-4 0.14615,0.0623 0.14989,0.073 0.0323,0.0871 -0.0585,0.15597 -0.12786,0.19156 -0.0361,0.0193 -0.0871,0.004 -0.13677,-0.0182 -0.14566,-0.0637 -0.48524,-0.21687 -0.61593,-0.23045 -0.17003,-0.0173 -0.49416,-0.0647 -0.61266,-0.19673 -0.0932,-0.10356 -0.11856,-0.22201 -0.11989,-0.35598 -4.8e-4,-0.0441 -0.0135,-0.12879 -0.001,-0.17236 0.0641,-0.23935 0.14285,-0.52039 0.29368,-0.72226 0.111,-0.14896 0.14005,-0.2417 0.18033,-0.31805 0.0319,-0.0604 0.11246,-0.14614 0.10211,-0.22951 -0.005,-0.0422 0.0552,-0.15598 0.0941,-0.17987 0.0119,-0.008 0.0313,-0.0206 0.0469,-0.0141 0.0239,0.009 0.0459,-0.0119 0.0539,0.0234 0.009,0.0412 0.0384,0.10635 0.0276,0.15925 z m 2.68156,-2.45672 c -0.0106,0.11803 0.0183,0.26043 0.0469,0.38314 0.007,0.0258 -0.001,0.0417 -0.0169,0.0628 -0.0291,0.0402 -0.0838,0.10954 -0.13302,0.10914 -0.0595,-4.6e-4 -0.43187,0.2061 -0.49556,0.24076 -0.10914,0.0589 -0.31243,0.18174 -0.3246,0.1897 -0.1021,0.0684 -0.27916,0.1452 -0.41687,0.23888 -0.0159,0.0106 -0.0609,0.0469 -0.081,0.0543 -0.0313,0.0119 -0.28994,0.13957 -0.30211,0.14379 -0.045,0.0159 -0.0323,0.0843 4.6e-4,0.0993 0.0408,0.0183 0.15973,0.043 0.18969,0.0543 0.0473,0.0173 0.11897,0.0656 0.21595,0.0852 0.0332,0.007 0.0187,0.0163 0.052,0.0106 0.0589,-0.009 0.0908,-0.11192 0.0951,-0.13064 0.0135,-0.0595 0.0374,-0.1049 0.0806,-0.14053 0.0106,-0.009 0.16674,-0.11525 0.18736,-0.11432 0.0267,0.001 0.03,-0.0628 0.0651,9.3e-4 0.009,0.0163 0.0272,0.18971 0.008,0.30398 -0.0135,0.0825 0.0539,0.24591 0.0876,0.29416 0.0224,0.0328 0.0595,0.11339 0.053,0.15458 -0.009,0.0613 -0.0106,0.11285 -0.0106,0.1747 -4.7e-4,0.0106 -0.0328,0.1106 -0.0828,0.12786 -0.06,0.0215 -0.089,0.003 -0.1424,-0.0352 -0.0497,-0.0352 -0.10303,-0.11897 -0.16206,-0.13631 -0.0702,-0.0215 -0.10582,-0.0947 -0.16768,-0.12507 -0.15036,-0.0745 -0.3157,-0.10025 -0.47496,-0.14989 -0.10861,-0.0343 -0.20562,-0.0923 -0.32131,-0.10914 -0.16067,-0.0234 -0.30728,-0.0619 -0.46652,-0.005 -0.14568,0.0521 -0.26887,0.12175 -0.3855,0.15693 -0.31663,0.096 -0.60468,0.17377 -0.92273,0.22013 -0.18267,0.0267 -0.41968,0.0834 -0.59627,0.0506 -0.30586,-0.0567 -0.4918,-0.11007 -0.67073,-0.20422 -0.20329,-0.10635 -0.42952,-0.25949 -0.57003,-0.43747 -0.0478,-0.061 -0.16114,-0.1944 -0.18689,-0.25482 -0.0202,-0.0469 -0.0478,-0.0791 -0.0412,-0.12043 0.004,-0.0224 0.003,-0.16393 0.0426,-0.16206 0.0454,0.003 0.058,-0.0319 0.10767,0.0187 0.0506,0.0515 0.0862,0.0984 0.14756,0.21219 0.0343,0.0641 0.29603,0.27822 0.34286,0.31663 0.0352,0.0295 0.11657,0.0702 0.15551,0.0904 0.29789,0.15551 0.91946,0.0524 1.18925,-0.0119 0.089,-0.0196 0.39252,-0.12414 0.47214,-0.12879 0.0309,-10e-4 0.066,-0.0402 0.074,-0.0637 0.005,-0.0169 -0.0333,-0.0669 -0.0473,-0.0721 -0.13725,-0.0469 -0.32038,-0.13118 -0.48854,-0.14754 -0.11379,-0.0106 -0.14942,-0.0106 -0.25012,-0.0609 -0.12879,-0.0651 -0.16207,-0.12229 -0.16488,-0.14192 -0.007,-0.0501 -0.0787,-0.14567 -0.11378,-0.18783 -0.0501,-0.0604 -0.10914,-0.24731 -0.0843,-0.3185 0.0637,-0.18221 0.10024,-0.37707 0.25293,-0.41641 0.0393,-0.009 0.0843,0.0258 0.13303,0.0647 0.0609,0.0487 0.22904,0.31523 0.26182,0.37753 0.0482,0.0919 0.0839,0.0717 0.17098,0.10077 0.15503,0.053 0.32881,0.13349 0.48478,0.20094 0.10953,0.0463 0.47777,0.25996 0.57753,0.24497 0.074,-0.0106 0.26465,-0.10675 0.33022,-0.14379 0.26089,-0.1452 0.51148,-0.29509 0.75083,-0.48058 0.11565,-0.0899 0.29275,-0.18313 0.42202,-0.29134 0.27027,-0.22529 0.51852,-0.40234 0.77098,-0.61686 0.0562,-0.0473 0.1794,-0.0684 0.24918,-0.0524 0.0997,0.022 0.10874,0.0431 0.12508,0.13538 0.003,0.0154 0.0206,0.0858 0.0224,0.10542 0.005,0.0632 -0.0389,0.17799 -0.0441,0.23607 z m -57.567133,25.17138 0.0098,0.56353 -2.132643,0.0372 c -0.316915,0.005 -0.553125,0.0827 -0.710271,0.23199 -0.156257,0.14952 -0.232044,0.36943 -0.226891,0.65998 0.0049,0.29002 0.0882,0.50666 0.249747,0.65045 0.1623,0.14379 0.400851,0.21242 0.717955,0.20713 l 2.132643,-0.0373 0.0098,0.57069 -2.185711,0.0382 c -0.475139,0.008 -0.832476,-0.10502 -1.072529,-0.34084 -0.240051,-0.23603 -0.364503,-0.59575 -0.372887,-1.07825 -0.0084,-0.483 0.103377,-0.84639 0.334058,-1.08882 0.230917,-0.24225 0.584228,-0.36741 1.061053,-0.37561 z m -1.90196,4.42412 0.119296,0.9714 0.751256,-0.45453 c 0.04885,-0.0266 0.104493,-0.0556 0.167779,-0.0858 0.06313,-0.0297 0.133773,-0.0616 0.212089,-0.0936 -0.07888,-0.0106 -0.152603,-0.0208 -0.221222,-0.0345 -0.06843,-0.0133 -0.131379,-0.0276 -0.190122,-0.0426 z m -1.177354,1.73563 0.849853,-0.50629 -0.169793,-1.38025 -0.947935,-0.29477 -0.07321,-0.59574 3.832443,1.24325 -3.418008,2.13137 z m 0.231058,1.13108 3.572439,-0.75946 -1.636662,2.62901 c -0.04666,0.0726 -0.09715,0.14623 -0.151478,0.2214 -0.05433,0.0754 -0.116907,0.1557 -0.187544,0.241 l 2.382765,-0.50648 0.109976,0.51669 -3.570237,0.75874 1.664812,-2.68168 c 0.0452,-0.0717 0.09387,-0.14221 0.146185,-0.21116 0.05307,-0.0697 0.108343,-0.13686 0.168153,-0.20164 l -2.389182,0.50792 z m 3.386159,5.22774 0.476075,1.30767 c -0.02229,0.008 -0.05359,0.0204 -0.09387,0.0369 -0.105382,0.0434 -0.175976,0.0718 -0.213869,0.0854 -0.46474,0.16923 -0.873461,0.16722 -1.22752,-0.005 -0.353683,-0.17199 -0.618606,-0.50006 -0.794816,-0.98419 -0.0986,-0.27097 -0.146373,-0.52638 -0.144359,-0.76774 0.0032,-0.24057 0.05546,-0.47004 0.158457,-0.68775 0.10262,-0.21442 0.245907,-0.40254 0.430876,-0.5639 0.184454,-0.1621 0.399446,-0.28745 0.644041,-0.37654 0.249373,-0.0909 0.495139,-0.13224 0.736268,-0.12335 0.241691,0.008 0.472797,0.0659 0.694346,0.17439 0.216445,0.10343 0.405114,0.24806 0.567225,0.43508 0.161174,0.18624 0.287033,0.40287 0.376869,0.64915 0.09462,0.26 0.131393,0.50995 0.111623,0.75 -0.02029,0.23911 -0.09841,0.47513 -0.235087,0.70694 l -0.438603,-0.28501 c 0.08876,-0.15865 0.139253,-0.31912 0.151713,-0.48124 0.01208,-0.16318 -0.01334,-0.33096 -0.07631,-0.50409 -0.129932,-0.35714 -0.35092,-0.60707 -0.662543,-0.74975 -0.311763,-0.14291 -0.650598,-0.14769 -1.017116,-0.0145 -0.373403,0.13593 -0.634674,0.35916 -0.783997,0.66985 -0.150027,0.31101 -0.159536,0.64656 -0.02833,1.00667 0.111755,0.30704 0.270966,0.52198 0.477153,0.64568 0.207312,0.12427 0.433265,0.14127 0.680296,0.0512 l 0.04716,-0.017 -0.288905,-0.79374 z m -0.136678,2.98873 0.210403,0.43144 c 0.115645,0.23714 0.218131,0.40764 0.307406,0.51068 0.08965,0.10317 0.193587,0.18001 0.311061,0.23219 0.160612,0.0693 0.330592,0.0965 0.511205,0.0823 0.180941,-0.0145 0.372139,-0.0704 0.57397,-0.16886 0.200894,-0.0979 0.363004,-0.21424 0.485583,-0.34801 0.12239,-0.13354 0.205625,-0.28432 0.249747,-0.45355 0.03111,-0.12534 0.03237,-0.25911 0.0037,-0.39795 -0.02891,-0.13999 -0.108848,-0.34253 -0.237663,-0.60689 l -0.09041,-0.18572 -0.09059,-0.18534 z m -0.713926,-0.28689 3.157443,-1.54004 0.337572,0.69202 c 0.219769,0.45044 0.351294,0.77832 0.395792,0.98343 0.04369,0.20581 0.04627,0.40305 0.0077,0.59318 -0.05087,0.25082 -0.162111,0.47644 -0.334855,0.67734 -0.172884,0.20089 -0.399399,0.36975 -0.67917,0.50609 -0.280475,0.13688 -0.55219,0.21111 -0.814537,0.22249 -0.262581,0.0119 -0.508113,-0.0402 -0.738469,-0.15391 -0.173634,-0.0867 -0.325675,-0.20637 -0.457433,-0.36024 -0.131193,-0.1548 -0.287407,-0.41753 -0.469097,-0.78985 l -0.06754,-0.13851 z m 4.878602,4.92638 c 0.14656,-0.0989 0.268062,-0.22048 0.36502,-0.3639 0.09626,-0.14291 0.162485,-0.29917 0.197615,-0.47007 0.03658,-0.16705 0.03789,-0.33374 0.0054,-0.49983 -0.03237,-0.16689 -0.09588,-0.32132 -0.19265,-0.46474 -0.09677,-0.14329 -0.215884,-0.26146 -0.357151,-0.35368 -0.141454,-0.0924 -0.298039,-0.15482 -0.469658,-0.18517 -0.169793,-0.0319 -0.339586,-0.03 -0.507552,0.007 -0.168903,0.0369 -0.327172,0.10516 -0.475372,0.20505 -0.147263,0.0994 -0.268577,0.21978 -0.364832,0.36156 -0.09513,0.14146 -0.160284,0.29809 -0.19593,0.46821 -0.03587,0.17053 -0.03733,0.33832 -0.0048,0.50427 0.03237,0.16483 0.09734,0.31963 0.194852,0.46418 0.09588,0.14197 0.214102,0.25888 0.354433,0.34984 0.140331,0.091 0.297103,0.15331 0.469658,0.18535 0.17162,0.0315 0.340663,0.0289 0.509379,-0.007 0.167966,-0.0352 0.325299,-0.10184 0.471485,-0.20033 z m 0.333028,0.49382 c -0.207123,0.13963 -0.428909,0.23274 -0.665072,0.27958 -0.23771,0.0465 -0.477762,0.0446 -0.72292,-0.007 -0.245531,-0.0526 -0.470406,-0.14694 -0.674064,-0.28324 -0.203612,-0.13629 -0.375606,-0.30791 -0.515234,-0.51504 -0.141594,-0.20985 -0.237475,-0.43565 -0.28853,-0.67786 -0.05031,-0.24357 -0.05359,-0.48544 -0.0088,-0.72802 0.04427,-0.24628 0.131896,-0.46934 0.263472,-0.66985 0.130821,-0.20001 0.30113,-0.37106 0.511017,-0.51252 0.208388,-0.14066 0.430689,-0.23434 0.666524,-0.28156 0.236398,-0.0479 0.477574,-0.0465 0.723997,0.004 0.244829,0.0512 0.468394,0.14543 0.670412,0.28268 0.202346,0.13723 0.375089,0.31124 0.51762,0.52235 0.141409,0.20989 0.23729,0.43364 0.288156,0.67223 0.05157,0.2388 0.0547,0.48067 0.01049,0.72691 -0.04721,0.2483 -0.137426,0.47298 -0.269513,0.67589 -0.133024,0.2022 -0.301927,0.37251 -0.507551,0.51139 z m -0.917396,1.7014 2.797715,-2.34764 -0.210964,3.08957 c -0.0069,0.0862 -0.01701,0.17476 -0.02961,0.26661 -0.01288,0.0919 -0.03041,0.19208 -0.0527,0.30076 l 1.86622,-1.56598 0.339586,0.40469 -2.795889,2.34618 0.210966,-3.14957 c 0.0062,-0.0843 0.01592,-0.16942 0.02983,-0.25485 0.01386,-0.0866 0.03111,-0.17162 0.05377,-0.2571 l -1.870999,1.57005 z m 5.38634,3.12029 1.034307,0.93113 c -0.01592,0.0175 -0.03789,0.0431 -0.06567,0.0765 -0.07265,0.088 -0.121686,0.14636 -0.148574,0.17601 -0.331014,0.36778 -0.692707,0.55786 -1.086673,0.57139 -0.392982,0.0143 -0.780859,-0.15091 -1.163817,-0.49584 -0.214057,-0.19284 -0.376167,-0.39593 -0.487598,-0.60999 -0.110547,-0.21405 -0.17162,-0.44113 -0.183142,-0.68174 -0.01009,-0.2371 0.02796,-0.47079 0.115791,-0.7004 0.08656,-0.22941 0.217569,-0.44093 0.391718,-0.63472 0.177661,-0.19723 0.375089,-0.3489 0.592283,-0.45409 0.217007,-0.10662 0.448253,-0.16395 0.695096,-0.17238 0.23949,-0.0106 0.474249,0.0291 0.704979,0.11803 0.229607,0.0887 0.442586,0.22086 0.637438,0.39632 0.205671,0.18496 0.35551,0.38844 0.450641,0.6098 0.09461,0.22047 0.136302,0.46548 0.124222,0.73444 l -0.5209,-0.0455 c 0.0038,-0.18187 -0.0267,-0.34727 -0.09204,-0.49617 -0.06586,-0.14989 -0.16703,-0.28599 -0.303894,-0.40951 -0.282489,-0.2541 -0.594814,-0.37121 -0.937162,-0.35111 -0.342302,0.0203 -0.643855,0.17546 -0.90475,0.46512 -0.265861,0.29531 -0.391717,0.61495 -0.377666,0.95946 0.0134,0.34473 0.162673,0.64553 0.447363,0.90202 0.242815,0.21865 0.48432,0.33374 0.724558,0.34619 0.241317,0.012 0.448815,-0.0787 0.62465,-0.2741 l 0.03349,-0.0373 -0.627414,-0.56497 z m 3.508924,0.64114 0.455934,0.33135 -1.253843,1.72555 c -0.186279,0.25655 -0.266938,0.49144 -0.242065,0.70699 0.02505,0.21463 0.155319,0.40746 0.390452,0.57834 0.234712,0.17053 0.457574,0.2342 0.669663,0.19195 0.212417,-0.0431 0.411109,-0.19229 0.59739,-0.44883 l 1.253656,-1.72574 0.461835,0.33574 -1.284804,1.76856 c -0.279396,0.38422 -0.58493,0.60161 -0.917958,0.65153 -0.332607,0.0498 -0.694908,-0.0677 -1.085175,-0.35129 -0.390967,-0.28393 -0.613829,-0.59171 -0.668724,-0.92212 -0.05452,-0.33009 0.05837,-0.6876 0.338648,-1.07328 z m 1.11904,5.01438 1.714554,-3.22479 0.961659,2.94377 c 0.026,0.0823 0.04979,0.16829 0.07245,0.25812 0.02253,0.09 0.04393,0.18956 0.06384,0.29861 l 1.143583,-2.15091 0.466708,0.24787 -1.713666,3.22279 -0.984141,-2.99919 c -0.026,-0.0805 -0.04866,-0.16336 -0.06773,-0.24772 -0.01958,-0.0852 -0.03545,-0.17092 -0.04646,-0.25837 l -1.146627,2.15662 z m 3.745838,1.90174 1.48462,-3.18395 0.517387,0.2415 -1.484761,3.1838 z m 2.494008,1.13749 -0.293261,-3.96102 0.560761,0.19303 0.135037,2.0258 c 0.0077,0.1179 0.01155,0.22487 0.01009,0.3224 -0.0011,0.0965 -0.0064,0.18754 -0.01738,0.27203 0.04885,-0.0769 0.103191,-0.15419 0.164125,-0.23288 0.06108,-0.0794 0.128245,-0.15845 0.201597,-0.23804 l 1.350473,-1.51459 0.558419,0.19245 z m 2.109411,0.51926 0.968263,-3.37697 1.884952,0.54048 -0.13358,0.46619 -1.336187,-0.38316 -0.242628,0.84639 1.335999,0.38296 -0.138129,0.48194 -1.336187,-0.38311 -0.312887,1.09136 1.336046,0.38314 -0.140892,0.49126 z m 3.661524,-1.18982 0.101571,0.0179 c 0.297717,0.0524 0.50151,0.0527 0.611313,3.8e-4 0.109941,-0.052 0.180741,-0.16595 0.211891,-0.34272 0.0335,-0.19027 0.005,-0.33356 -0.0863,-0.43014 -0.09095,-0.0968 -0.278505,-0.16979 -0.561697,-0.21976 l -0.101571,-0.0179 z m -0.112326,0.43088 -0.272982,1.54791 -0.526949,-0.0928 0.610185,-3.45975 0.783998,0.13818 c 0.230016,0.0406 0.406179,0.0875 0.527489,0.13958 0.12149,0.0523 0.22086,0.12056 0.29917,0.20585 0.0924,0.10277 0.15552,0.2254 0.19121,0.36812 0.0345,0.14234 0.0382,0.29181 0.0106,0.45007 -0.0487,0.27669 -0.15391,0.48194 -0.31546,0.61571 -0.16156,0.13284 -0.37673,0.19208 -0.643483,0.17766 l 0.913933,1.78374 -0.63584,-0.11219 -0.878054,-1.751 z m 1.991241,1.19314 0.47184,-0.16998 c 0.0295,0.15954 0.0983,0.28562 0.2055,0.37729 0.10768,0.0924 0.25119,0.14618 0.42885,0.16174 0.16905,0.0147 0.30774,-0.0208 0.4157,-0.10595 0.10755,-0.0851 0.16835,-0.20638 0.18207,-0.36389 0.0181,-0.20549 -0.13654,-0.404 -0.46348,-0.59486 -0.0459,-0.0277 -0.0803,-0.0489 -0.10555,-0.0619 -0.36849,-0.22211 -0.61093,-0.41425 -0.72565,-0.57818 -0.11471,-0.163 -0.16286,-0.35552 -0.14361,-0.57486 0.0251,-0.28563 0.14216,-0.50792 0.35129,-0.66822 0.20878,-0.16008 0.47023,-0.22595 0.78439,-0.19849 0.25794,0.0224 0.46966,0.0911 0.63467,0.20581 0.16525,0.11498 0.27246,0.26918 0.32314,0.46089 l -0.46473,0.19032 c -0.0606,-0.11618 -0.13012,-0.20292 -0.20989,-0.26077 -0.0786,-0.0587 -0.1727,-0.0925 -0.28119,-0.1021 -0.15259,-0.0134 -0.27775,0.0161 -0.37438,0.0872 -0.0977,0.0721 -0.15166,0.17508 -0.16356,0.30886 -0.0185,0.21059 0.16192,0.42376 0.54198,0.63963 0.0287,0.017 0.0514,0.0307 0.0679,0.0396 0.3319,0.19007 0.55585,0.36684 0.67238,0.52984 0.11552,0.16394 0.16324,0.35973 0.14347,0.58733 -0.0291,0.33133 -0.15644,0.58567 -0.38239,0.76244 -0.22601,0.17673 -0.51598,0.25008 -0.87188,0.21897 -0.29785,-0.0262 -0.5357,-0.11591 -0.71462,-0.26983 -0.17823,-0.15374 -0.286,-0.36067 -0.3222,-0.62101 z m 3.0703,0.94353 0.12282,-3.51094 0.57046,0.0199 -0.12255,3.51094 z m 2.64353,-3.04508 0.10555,3.02626 -0.5707,0.0198 -0.10555,-3.02624 -0.93314,0.0325 -0.017,-0.4845 2.43199,-0.0851 0.0169,0.48465 z m 2.4393,2.82026 -0.22375,-1.59236 -1.43628,-1.72191 0.59368,-0.0836 0.8951,1.07856 c 0.0222,0.0276 0.0498,0.0644 0.0826,0.10994 0.0328,0.045 0.0669,0.0943 0.10183,0.14783 0.014,-0.0591 0.0303,-0.11418 0.0475,-0.16708 0.0183,-0.0522 0.0369,-0.10117 0.059,-0.14652 l 0.58474,-1.27163 0.56507,-0.0794 -0.93266,2.05509 0.2238,1.59216 z m 5.92157,-3.00087 c -0.0487,-0.17035 -0.12653,-0.32327 -0.23325,-0.45977 -0.10582,-0.13578 -0.2342,-0.24722 -0.38596,-0.33335 -0.14707,-0.0864 -0.30539,-0.13888 -0.47355,-0.15978 -0.16862,-0.0208 -0.33537,-0.008 -0.50165,0.0397 -0.16628,0.0475 -0.31522,0.12454 -0.44685,0.23055 -0.13118,0.10595 -0.23887,0.23546 -0.32085,0.38951 -0.0828,0.15153 -0.13395,0.31344 -0.15081,0.48451 -0.0174,0.17199 -0.001,0.3438 0.0478,0.51542 0.0491,0.17072 0.126,0.32346 0.23139,0.45851 0.10489,0.13428 0.23373,0.24483 0.38455,0.33115 0.15129,0.087 0.31008,0.14019 0.47823,0.16028 0.16675,0.0203 0.33397,0.007 0.50165,-0.0417 0.16487,-0.0473 0.31242,-0.12375 0.44217,-0.22892 0.13025,-0.10555 0.23748,-0.23527 0.32131,-0.38951 0.0829,-0.15335 0.13251,-0.31509 0.15083,-0.48632 0.0183,-0.17092 0.004,-0.34123 -0.045,-0.51033 z m 0.57285,-0.16431 c 0.0684,0.24024 0.0886,0.47978 0.0599,0.71908 -0.0291,0.24005 -0.10489,0.46802 -0.22951,0.68521 -0.126,0.21734 -0.28478,0.40217 -0.47776,0.55345 -0.1925,0.15172 -0.40843,0.26222 -0.64872,0.3312 -0.2431,0.0697 -0.4876,0.0914 -0.73397,0.0645 -0.24732,-0.0271 -0.47824,-0.0988 -0.6951,-0.21644 -0.22061,-0.1183 -0.40563,-0.27041 -0.55552,-0.45758 -0.14989,-0.18628 -0.25996,-0.40089 -0.32974,-0.64441 -0.0693,-0.2415 -0.0895,-0.48194 -0.0619,-0.72091 0.0276,-0.23968 0.10356,-0.46839 0.22717,-0.68718 0.12454,-0.217 0.28338,-0.40052 0.47635,-0.55055 0.19299,-0.15002 0.41172,-0.26039 0.6567,-0.33064 0.24309,-0.0698 0.48572,-0.0916 0.72835,-0.0664 0.24309,0.0247 0.47401,0.0964 0.69463,0.21463 0.22154,0.12175 0.40703,0.277 0.55925,0.4651 0.1513,0.18919 0.2609,0.40254 0.32976,0.64091 z m 1.34054,1.41272 -1.25904,-3.27969 1.83049,-0.70258 0.17377,0.45246 -1.29746,0.49823 0.31336,0.81749 1.29792,-0.49823 0.17986,0.46802 -1.29791,0.49823 0.59205,1.54148 z m 3.67689,-1.51276 -1.59535,-3.13019 1.74711,-0.89014 0.22015,0.43197 -1.23844,0.63105 0.39767,0.78016 1.23844,-0.63101 0.22764,0.44661 -1.23844,0.63101 0.74943,1.47142 z m 4.1125,-4.38553 c -0.0941,-0.15002 -0.21125,-0.27574 -0.35083,-0.37766 -0.13959,-0.10117 -0.29368,-0.17289 -0.46325,-0.21387 -0.1658,-0.0422 -0.33207,-0.0494 -0.4993,-0.0231 -0.16768,0.0266 -0.32459,0.0848 -0.4712,0.17634 -0.14661,0.0916 -0.26887,0.20676 -0.36582,0.34475 -0.0974,0.13812 -0.16534,0.29255 -0.2014,0.46286 -0.038,0.16871 -0.0422,0.33813 -0.0119,0.50755 0.0309,0.16999 0.0936,0.33065 0.18829,0.48194 0.0947,0.15078 0.21031,0.27649 0.34895,0.37729 0.13771,0.10024 0.29229,0.17092 0.46091,0.21222 0.16908,0.042 0.33676,0.0493 0.50351,0.0222 0.16629,-0.0263 0.3232,-0.0858 0.47121,-0.17823 0.14521,-0.0907 0.26604,-0.20492 0.3616,-0.34193 0.096,-0.13723 0.16393,-0.29167 0.2014,-0.4631 0.0374,-0.17017 0.0413,-0.3394 0.0106,-0.50919 -0.0295,-0.16909 -0.0904,-0.32863 -0.18361,-0.47809 z m 0.50493,-0.31564 c 0.13211,0.21189 0.2178,0.43677 0.25621,0.67462 0.038,0.23874 0.0281,0.47879 -0.0319,0.72198 -0.061,0.2437 -0.16301,0.46511 -0.3068,0.66362 -0.14333,0.19888 -0.32038,0.36484 -0.53257,0.4971 -0.21452,0.13429 -0.44356,0.22212 -0.6876,0.26461 -0.24497,0.0418 -0.48665,0.0369 -0.72788,-0.0165 -0.2445,-0.0531 -0.46418,-0.1482 -0.65997,-0.28689 -0.19532,-0.13757 -0.36019,-0.31359 -0.49462,-0.5284 -0.13303,-0.21317 -0.21921,-0.4386 -0.25808,-0.67589 -0.0398,-0.23804 -0.03,-0.47898 0.0291,-0.72343 0.06,-0.24282 0.1616,-0.4631 0.30586,-0.66035 0.14427,-0.19742 0.32414,-0.36389 0.54007,-0.49873 0.21452,-0.13434 0.44169,-0.22217 0.68197,-0.26479 0.24029,-0.043 0.48245,-0.0378 0.72648,0.015 0.24684,0.0558 0.4684,0.15387 0.66606,0.29275 0.19812,0.14033 0.36207,0.31486 0.49369,0.52527 z m 0.73443,-0.96204 0.0778,-0.0677 c 0.22858,-0.19832 0.35692,-0.3564 0.38549,-0.47462 0.0286,-0.11844 -0.0154,-0.24497 -0.13302,-0.38039 -0.12693,-0.14581 -0.25668,-0.21349 -0.38876,-0.2038 -0.13251,0.009 -0.30728,0.1098 -0.52461,0.29842 l -0.0778,0.0677 z m 0.26418,0.35865 1.03093,1.18634 -0.40328,0.35073 -2.30497,-2.65134 0.60096,-0.52221 c 0.17611,-0.15311 0.32366,-0.2607 0.44029,-0.3222 0.1171,-0.0615 0.23279,-0.0957 0.34801,-0.10277 0.13818,-0.007 0.27354,0.0208 0.40656,0.0831 0.13251,0.0625 0.25106,0.15406 0.35646,0.27518 0.18408,0.2119 0.27775,0.42286 0.27962,0.63252 10e-4,0.20913 -0.0876,0.41368 -0.26698,0.61205 l 1.96163,0.41219 -0.48712,0.42343 -1.91339,-0.41941 z m 2.8558,-0.38994 -2.39583,-2.56937 1.43375,-1.33732 0.33115,0.35477 -1.01688,0.94797 0.60047,0.64386 1.01689,-0.94793 0.34193,0.36665 -1.01689,0.94795 0.77426,0.83027 1.01641,-0.94794 0.34849,0.37383 z m 2.07685,-1.95334 -2.6511,-2.30464 0.37471,-0.43087 2.6511,2.30482 z m 0.89042,-3.82692 0.85669,-1.09669 c 0.0187,0.0146 0.0454,0.0348 0.081,0.06 0.0927,0.0664 0.15458,0.1114 0.18596,0.13616 0.38971,0.30446 0.60469,0.65223 0.64592,1.04401 0.0412,0.39096 -0.0965,0.78965 -0.4136,1.19547 -0.17752,0.22727 -0.36909,0.4031 -0.57471,0.52933 -0.20563,0.12494 -0.42765,0.20184 -0.66746,0.23017 -0.23561,0.0266 -0.47122,0.005 -0.70634,-0.0667 -0.23515,-0.0706 -0.45528,-0.18641 -0.66044,-0.3467 -0.20937,-0.16343 -0.37472,-0.34965 -0.49462,-0.55917 -0.12136,-0.20913 -0.19486,-0.43565 -0.22015,-0.68118 -0.0272,-0.23842 -0.004,-0.47514 0.0684,-0.71173 0.0726,-0.23527 0.1897,-0.45687 0.35083,-0.66324 0.17049,-0.21828 0.363,-0.38188 0.57706,-0.49219 0.21359,-0.1098 0.45481,-0.16834 0.72366,-0.17527 l -0.009,0.52291 c -0.18174,0.009 -0.34473,0.0508 -0.48854,0.1264 -0.14472,0.0763 -0.27354,0.1866 -0.38735,0.33171 -0.23373,0.29935 -0.32881,0.61917 -0.28478,0.95932 0.0441,0.33992 0.21967,0.62994 0.52693,0.87 0.31336,0.24459 0.64076,0.34801 0.98364,0.30993 0.34286,-0.0376 0.63279,-0.20713 0.8684,-0.50938 0.2014,-0.25742 0.2993,-0.50643 0.29461,-0.74685 -0.004,-0.24169 -0.10954,-0.44225 -0.31662,-0.604 l -0.0398,-0.0309 -0.51944,0.66544 z m 2.77055,-0.68264 -3.16259,-1.82617 2.97523,-0.85833 c 0.0834,-0.0231 0.17003,-0.0439 0.26043,-0.0633 0.0908,-0.0196 0.1911,-0.0373 0.30071,-0.0536 l -2.10964,-1.21782 0.26417,-0.45758 3.16072,1.82492 -3.03145,0.87894 c -0.0815,0.0231 -0.16488,0.043 -0.25012,0.059 -0.0858,0.0165 -0.1719,0.0296 -0.25995,0.0373 l 2.11526,1.22149 z m 1.84266,-4.79008 -0.007,-0.50169 c 0.16019,0.024 0.30165,2e-4 0.42343,-0.0713 0.12268,-0.072 0.22015,-0.18995 0.29227,-0.35294 0.0689,-0.155 0.0806,-0.29772 0.0352,-0.42741 -0.045,-0.12959 -0.14052,-0.22652 -0.28431,-0.29092 -0.18876,-0.0838 -0.42671,-0.003 -0.71336,0.24478 -0.0412,0.0344 -0.0726,0.06 -0.0928,0.0797 -0.3307,0.27626 -0.59066,0.44258 -0.78316,0.49785 -0.19157,0.0552 -0.38924,0.0382 -0.59064,-0.0513 -0.26137,-0.1167 -0.43373,-0.30005 -0.51712,-0.54966 -0.0834,-0.24975 -0.0609,-0.51851 0.0675,-0.80648 0.10542,-0.2364 0.23935,-0.41425 0.40142,-0.53318 0.16254,-0.11856 0.34287,-0.16997 0.54099,-0.1555 l 0.0285,0.50151 c -0.12972,0.0194 -0.2342,0.0571 -0.31477,0.11352 -0.0815,0.0552 -0.14379,0.13321 -0.18828,0.23274 -0.0623,0.13996 -0.0749,0.26768 -0.0389,0.38221 0.0361,0.11578 0.11564,0.20057 0.2384,0.25527 0.19298,0.0859 0.45341,-0.0153 0.78128,-0.30413 0.0258,-0.0216 0.0459,-0.0388 0.0595,-0.0514 0.28759,-0.25195 0.52788,-0.40618 0.71992,-0.46329 0.19251,-0.0558 0.39298,-0.0373 0.60189,0.0556 0.30398,0.13536 0.50305,0.33865 0.59672,0.6098 0.0932,0.27116 0.068,0.56919 -0.0769,0.89562 -0.12176,0.27316 -0.28432,0.46876 -0.48808,0.58788 -0.20327,0.11843 -0.43373,0.15298 -0.69181,0.10263 z m -0.59486,-4.58238 2.87968,0.93589 -0.17611,0.54306 -2.88015,-0.93589 -0.28853,0.88811 -0.46137,-0.14983 0.75224,-2.31434 0.46137,0.14985 z m -0.0323,-1.44177 0.14615,-0.54431 2.06046,0.552 c 0.30586,0.0822 0.5541,0.0732 0.74662,-0.0271 0.1911,-0.10064 0.32459,-0.29129 0.40001,-0.57214 0.0745,-0.2801 0.0543,-0.51102 -0.0609,-0.69378 -0.11658,-0.183 -0.32694,-0.31491 -0.63328,-0.39706 l -2.06046,-0.55182 0.14801,-0.55148 2.11152,0.56577 c 0.45902,0.12295 0.77145,0.33059 0.93726,0.62333 0.1658,0.29294 0.18594,0.67313 0.0609,1.13899 -0.12507,0.4669 -0.33256,0.78528 -0.62109,0.95469 -0.289,0.16928 -0.66277,0.19214 -1.1232,0.0686 z m 3.9111,-3.52171 0.05,-0.4772 c 0.0276,-0.26234 0.0313,-0.46126 0.009,-0.59607 -0.0211,-0.13486 -0.0689,-0.2551 -0.14052,-0.36155 -0.0997,-0.14385 -0.22951,-0.25725 -0.39018,-0.3409 -0.16112,-0.0836 -0.35316,-0.13738 -0.57611,-0.16099 -0.22203,-0.0234 -0.42156,-0.0106 -0.59581,0.038 -0.1747,0.0482 -0.32505,0.13211 -0.45246,0.25213 -0.0928,0.0899 -0.16488,0.20254 -0.21406,0.33575 -0.0497,0.13396 -0.0895,0.34802 -0.11989,0.64057 l -0.0215,0.20511 -0.0215,0.20531 z m 0.4534,0.6217 -3.49375,-0.36721 0.0806,-0.76555 c 0.0524,-0.49856 0.11432,-0.8462 0.18548,-1.04382 0.0717,-0.19756 0.17425,-0.36628 0.30774,-0.50718 0.17611,-0.18552 0.38971,-0.31799 0.64264,-0.39685 0.2534,-0.0786 0.5349,-0.10184 0.84405,-0.0693 0.31054,0.0324 0.58034,0.11365 0.80891,0.24301 0.22858,0.12946 0.40984,0.30332 0.54474,0.52179 0.1017,0.16558 0.16675,0.34782 0.19673,0.54778 0.0295,0.20075 0.0224,0.50647 -0.0206,0.91852 l -0.0159,0.1533 z m 0.40703,-3.8441 -3.50451,-0.2452 0.0398,-0.56939 3.50453,0.24502 z m 0.0791,-1.61306 -3.51295,-0.0612 0.0341,-1.96051 0.48526,0.008 -0.0243,1.38981 0.88011,0.0154 0.0244,-1.38981 0.50118,0.009 -0.0243,1.38982 1.1354,0.0198 0.0239,-1.38981 0.51102,0.009 z m -0.7382,-2.58693 -0.24918,-0.4351 c 0.15176,-0.0571 0.26417,-0.14656 0.33583,-0.26787 0.0726,-0.12215 0.10025,-0.2728 0.0848,-0.45065 -0.0145,-0.1689 -0.0739,-0.29935 -0.17612,-0.39081 -0.10303,-0.0915 -0.23326,-0.13012 -0.39063,-0.11618 -0.20563,0.0179 -0.37378,0.20435 -0.50494,0.55968 -0.0197,0.0502 -0.0346,0.0876 -0.0426,0.11458 -0.15504,0.40161 -0.30211,0.67351 -0.44357,0.81511 -0.14051,0.14127 -0.32178,0.22215 -0.54099,0.24155 -0.28572,0.0247 -0.52507,-0.052 -0.71898,-0.22999 -0.19439,-0.17785 -0.30446,-0.42394 -0.33209,-0.7381 -0.0224,-0.25799 0.009,-0.47846 0.0927,-0.66109 0.0843,-0.18239 0.21734,-0.31484 0.39767,-0.39794 l 0.26839,0.42451 c -0.10449,0.0798 -0.17753,0.16357 -0.22062,0.25195 -0.0441,0.0878 -0.0609,0.18623 -0.0515,0.29476 0.0133,0.15259 0.0641,0.27078 0.15083,0.35349 0.088,0.0837 0.1986,0.1191 0.33255,0.10742 0.21078,-0.0183 0.38924,-0.23313 0.53585,-0.6446 0.0119,-0.0315 0.0215,-0.0562 0.0272,-0.074 0.12972,-0.35991 0.26464,-0.61093 0.40515,-0.7542 0.14146,-0.14216 0.32554,-0.22319 0.55318,-0.24315 0.33162,-0.0289 0.60423,0.0525 0.81735,0.24408 0.21311,0.19209 0.33583,0.46493 0.36722,0.82059 0.0258,0.29789 -0.0211,0.54782 -0.14192,0.75092 -0.12043,0.20198 -0.30493,0.34394 -0.55552,0.42502"
       style="fill:#ed1c24;fill-opacity:1;fill-rule:evenodd;stroke:none;stroke-width:0.0468394" />
    <path
       id="path2"
       d="m 105.27868,100.81464 c 23.06502,0 41.77032,18.7053 41.77032,41.77036 0,23.06511 -18.7053,41.77012 -41.77032,41.77012 -23.065293,0 -41.770296,-18.70501 -41.770296,-41.77012 0,-23.06506 18.705003,-41.77036 41.770296,-41.77036 z m 0,14.48976 c 3.57587,0 6.99116,0.68901 10.12002,1.94055 -2.7668,2.23658 -6.28668,3.57619 -10.12002,3.57619 -3.83352,0 -7.353589,-1.34008 -10.120064,-3.57619 3.129483,-1.25154 6.544164,-1.94055 10.120064,-1.94055 z m 12.32569,2.9387 c 2.6113,1.32555 4.98184,3.05908 7.02591,5.11626 -0.65904,0.79814 -1.36584,1.5546 -2.11715,2.26561 -1.71103,-2.54009 -3.79773,-4.69422 -6.15844,-6.33923 0.43233,-0.32928 0.84873,-0.6773 1.24968,-1.04264 z m 8.52149,6.74954 c 3.67173,4.34718 6.00902,9.85783 6.37951,15.89921 h -5.05022 c -0.25386,-4.93176 -1.60846,-9.50328 -3.76962,-13.36004 0.86699,-0.79299 1.68153,-1.64171 2.44033,-2.53917 z m 6.42682,18.09443 c -0.26792,14.83216 -12.37776,26.7784 -27.274,26.7784 -14.896227,0 -27.00603,-11.94624 -27.274232,-26.7784 h 5.057902 c 0.174758,10.27432 5.50784,19.08011 13.11062,23.0587 2.997392,-2.88245 5.99493,-5.7649 8.99227,-8.64716 3.02371,2.90731 6.04743,5.8152 9.07091,8.72271 7.68165,-3.94093 13.0827,-12.79319 13.25836,-23.13425 z m -54.500878,-2.19522 c 0.37036,-6.04138 2.707738,-11.55157 6.379522,-15.89873 0.758377,0.89744 1.572959,1.7457 2.439488,2.53822 -2.161028,3.85723 -3.515341,8.42875 -3.768929,13.36051 z m 7.875056,-17.53249 c 2.043556,-2.05718 4.414095,-3.79071 7.025577,-5.11626 0.400852,0.36534 0.817487,0.71336 1.249628,1.04264 -2.360236,1.64501 -4.446977,3.79961 -6.158065,6.33923 -0.751117,-0.71054 -1.45825,-1.46747 -2.11714,-2.26561 z m 27.072262,19.72771 H 97.55787 c 0.07097,4.55349 1.070327,8.62392 2.61987,11.43555 l 4.9875,-4.79588 5.13547,4.93809 c 1.5944,-2.8157 2.62628,-6.94671 2.69841,-11.57776 z m -3.23355,-20.62375 c 1.66959,1.92932 3.0668,4.90174 4.02654,8.53929 2.57289,-0.92882 4.9514,-2.26655 7.05542,-3.93451 -1.75789,-2.67546 -3.96074,-4.88862 -6.46945,-6.46945 -1.42767,0.81969 -2.97664,1.45202 -4.61251,1.86467 z m 4.52679,10.69156 c 0.48338,2.38366 0.78877,4.99209 0.87824,7.73697 h 10.08639 c -0.2417,-4.38842 -1.41503,-8.46158 -3.27736,-11.923 -2.2984,1.78224 -4.88862,3.20615 -7.68727,4.18603 z m -18.905964,7.73697 c 0.08952,-2.74488 0.395044,-5.35285 0.878097,-7.73697 -2.798651,-0.97988 -5.389103,-2.40333 -7.687369,-4.18603 -1.862193,3.46142 -3.035379,7.53458 -3.276742,11.923 z m 1.378109,-9.88924 c 0.959129,-3.63707 2.356439,-6.60997 4.025465,-8.53976 -1.635913,-0.41218 -3.183809,-1.04499 -4.611333,-1.8642 -2.50881,1.58036 -4.711337,3.79399 -6.4695,6.46898 2.104118,1.66843 4.481965,3.00616 7.055368,3.93498 z m 10.511405,-8.09337 c 1.8866,1.32883 3.48897,4.49236 4.51523,8.72148 -2.07681,0.5574 -4.25981,0.85436 -6.51246,0.85436 -2.25268,0 -4.4362,-0.29696 -6.513063,-0.85389 1.025884,-4.22959 2.628683,-7.39312 4.515223,-8.72149 0.65613,0.0712 1.3227,0.10728 1.99784,0.10728 0.67496,0 1.3413,-0.0365 1.99723,-0.10768 z m 4.97003,10.87235 c 0.39767,2.18271 0.65154,4.58112 0.7307,7.11026 H 97.580352 c 0.07907,-2.52914 0.333215,-4.92755 0.730783,-7.11026 2.224125,0.58643 4.559345,0.89885 6.967545,0.89885 2.40821,0 4.74319,-0.31242 6.96726,-0.89885 z m -6.96726,-30.85731 c 21.90012,0 39.66067,17.76056 39.66067,39.66072 0,21.90016 -17.76055,39.66052 -39.66067,39.66052 -21.900165,0 -39.660696,-17.76036 -39.660696,-39.66052 0,-21.90016 17.760531,-39.66072 39.660696,-39.66072"
       style="fill:#1b4a96;fill-opacity:1;fill-rule:evenodd;stroke:none;stroke-width:0.0468394" />
  </g>
</svg>
