<?xml version="1.0" encoding="UTF-8" standalone="no"?>
<!-- Created with Inkscape (http://www.inkscape.org/) -->

<svg
   width="83.596077mm"
   height="83.594574mm"
   viewBox="0 0 83.596077 83.594573"
   version="1.1"
   id="svg1"
   xmlns="http://www.w3.org/2000/svg"
   xmlns:svg="http://www.w3.org/2000/svg">
  <defs
     id="defs1">
    <clipPath
       clipPathUnits="userSpaceOnUse"
       id="clipPath2">
      <path
         d="M 0,595.28 H 841.89 V 0 H 0 Z"
         transform="translate(-214.48731,-257.93651)"
         id="path2" />
    </clipPath>
    <clipPath
       clipPathUnits="userSpaceOnUse"
       id="clipPath8">
      <path
         d="M 0,595.28 H 841.89 V 0 H 0 Z"
         transform="translate(-189.00831,-346.09671)"
         id="path8" />
    </clipPath>
    <clipPath
       clipPathUnits="userSpaceOnUse"
       id="clipPath10">
      <path
         d="M 0,595.28 H 841.89 V 0 H 0 Z"
         transform="translate(-183.4624,-349.29791)"
         id="path10" />
    </clipPath>
    <clipPath
       clipPathUnits="userSpaceOnUse"
       id="clipPath16">
      <path
         d="M 0,595.28 H 841.89 V 0 H 0 Z"
         transform="translate(-202.6162,-360.63181)"
         id="path16" />
    </clipPath>
    <clipPath
       clipPathUnits="userSpaceOnUse"
       id="clipPath18">
      <path
         d="M 0,595.28 H 841.89 V 0 H 0 Z"
         transform="translate(-205.68121,-357.72361)"
         id="path18" />
    </clipPath>
    <clipPath
       clipPathUnits="userSpaceOnUse"
       id="clipPath24">
      <path
         d="M 0,595.28 H 841.89 V 0 H 0 Z"
         transform="translate(-168.6294,-332.21391)"
         id="path24" />
    </clipPath>
    <clipPath
       clipPathUnits="userSpaceOnUse"
       id="clipPath26">
      <path
         d="M 0,595.28 H 841.89 V 0 H 0 Z"
         transform="translate(-172.02591,-330.66501)"
         id="path26" />
    </clipPath>
    <clipPath
       clipPathUnits="userSpaceOnUse"
       id="clipPath28">
      <path
         d="M 0,595.28 H 841.89 V 0 H 0 Z"
         transform="translate(-228.73191,-356.90921)"
         id="path28" />
    </clipPath>
    <clipPath
       clipPathUnits="userSpaceOnUse"
       id="clipPath30">
      <path
         d="M 0,595.28 H 841.89 V 0 H 0 Z"
         transform="translate(-182.17191,-348.98931)"
         id="path30" />
    </clipPath>
    <clipPath
       clipPathUnits="userSpaceOnUse"
       id="clipPath38">
      <path
         d="M 0,595.28 H 841.89 V 0 H 0 Z"
         transform="translate(-227.13571,-358.36041)"
         id="path38" />
    </clipPath>
    <clipPath
       clipPathUnits="userSpaceOnUse"
       id="clipPath40">
      <path
         d="M 0,595.28 H 841.89 V 0 H 0 Z"
         transform="translate(-230.22511,-356.34081)"
         id="path40" />
    </clipPath>
    <clipPath
       clipPathUnits="userSpaceOnUse"
       id="clipPath50">
      <path
         d="M 0,595.28 H 841.89 V 0 H 0 Z"
         transform="translate(-246.43261,-345.97561)"
         id="path50" />
    </clipPath>
    <clipPath
       clipPathUnits="userSpaceOnUse"
       id="clipPath52">
      <path
         d="M 0,595.28 H 841.89 V 0 H 0 Z"
         transform="translate(-245.6479,-347.82711)"
         id="path52" />
    </clipPath>
    <clipPath
       clipPathUnits="userSpaceOnUse"
       id="clipPath54">
      <path
         d="M 0,595.28 H 841.89 V 0 H 0 Z"
         transform="translate(-244.40191,-344.32321)"
         id="path54" />
    </clipPath>
    <clipPath
       clipPathUnits="userSpaceOnUse"
       id="clipPath56">
      <path
         d="M 0,595.28 H 841.89 V 0 H 0 Z"
         transform="translate(-244.56981,-344.27251)"
         id="path56" />
    </clipPath>
    <clipPath
       clipPathUnits="userSpaceOnUse"
       id="clipPath58">
      <path
         d="M 0,595.28 H 841.89 V 0 H 0 Z"
         transform="translate(-262.95211,-304.62991)"
         id="path58" />
    </clipPath>
    <clipPath
       clipPathUnits="userSpaceOnUse"
       id="clipPath62">
      <path
         d="M 0,595.28 H 841.89 V 0 H 0 Z"
         transform="translate(-249.47221,-310.19821)"
         id="path62" />
    </clipPath>
    <clipPath
       clipPathUnits="userSpaceOnUse"
       id="clipPath64">
      <path
         d="M 0,595.28 H 841.89 V 0 H 0 Z"
         transform="translate(-220.58301,-330.67681)"
         id="path64" />
    </clipPath>
    <clipPath
       clipPathUnits="userSpaceOnUse"
       id="clipPath66">
      <path
         d="M 0,595.28 H 841.89 V 0 H 0 Z"
         transform="translate(-213.5137,-337.62401)"
         id="path66" />
    </clipPath>
    <clipPath
       clipPathUnits="userSpaceOnUse"
       id="clipPath78">
      <path
         d="M 0,595.28 H 841.89 V 0 H 0 Z"
         transform="translate(-257.812,-331.70021)"
         id="path78" />
    </clipPath>
    <clipPath
       clipPathUnits="userSpaceOnUse"
       id="clipPath80">
      <path
         d="M 0,595.28 H 841.89 V 0 H 0 Z"
         transform="translate(-259.88961,-328.22751)"
         id="path80" />
    </clipPath>
    <clipPath
       clipPathUnits="userSpaceOnUse"
       id="clipPath82">
      <path
         d="M 0,595.28 H 841.89 V 0 H 0 Z"
         transform="translate(-260.45311,-330.02441)"
         id="path82" />
    </clipPath>
    <clipPath
       clipPathUnits="userSpaceOnUse"
       id="clipPath84">
      <path
         d="M 0,595.28 H 841.89 V 0 H 0 Z"
         transform="translate(-255.5557,-332.56741)"
         id="path84" />
    </clipPath>
    <clipPath
       clipPathUnits="userSpaceOnUse"
       id="clipPath86">
      <path
         d="M 0,595.28 H 841.89 V 0 H 0 Z"
         transform="translate(-256.7368,-330.24321)"
         id="path86" />
    </clipPath>
  </defs>
  <g
     id="layer1"
     transform="translate(-113.04654,-175.4886)">
    <path
       id="path1"
       d="m 0,0 c -28.962,0 -52.441,23.479 -52.441,52.439 0,28.963 23.479,52.442 52.441,52.442 28.961,0 52.441,-23.479 52.441,-52.442 C 52.441,23.479 28.961,0 0,0 m 0,108.119 c -30.751,0 -55.68,-24.93 -55.68,-55.68 0,-30.75 24.929,-55.677 55.68,-55.677 30.75,0 55.679,24.927 55.679,55.677 0,30.75 -24.929,55.68 -55.679,55.68"
       style="fill:#ff0000;fill-opacity:1;fill-rule:evenodd;stroke:none"
       transform="matrix(0.75068991,0,0,-0.75068991,154.84495,256.65244)"
       clip-path="url(#clipPath2)" />
    <path
       id="path7"
       d="m 0,0 c -0.271,0.338 -0.593,0.201 -0.943,0.275 -0.098,0.02 -0.135,0.092 -0.192,0.096 -0.152,0.01 -0.518,-0.058 -0.571,-0.139 -0.196,-0.293 0.246,-0.418 0.366,-0.527 0.235,-0.211 0.165,-0.418 0.469,-0.701 0.416,0.07 0.788,0.08 1.098,0.504 C 0.126,-0.348 0.129,-0.16 0,0"
       style="fill:#ff0000;fill-opacity:1;fill-rule:evenodd;stroke:none"
       transform="matrix(0.75068991,0,0,-0.75068991,135.71811,190.47146)"
       clip-path="url(#clipPath8)" />
    <path
       id="path9"
       d="m 0,0 c -0.155,-0.211 -0.047,-0.66 -0.347,-0.686 -0.074,0.342 -0.035,0.678 -0.171,1.024 0.041,0.035 0.08,0.07 0.119,0.105 C -0.26,0.291 -0.054,0.197 0,0 m 0.204,0.666 c -0.238,0.115 -0.349,0.297 -0.599,0.369 -0.085,0.137 0.143,0.256 0.021,0.393 -0.492,0.127 -0.598,-0.989 -0.545,-1.237 0.132,-0.623 0.396,-1.482 0.35,-1.927 -0.012,-0.118 -0.132,-0.151 -0.159,-0.252 -0.02,-0.078 0.013,-0.119 -0.009,-0.17 -0.131,-0.307 -0.375,-0.617 -0.559,-0.985 -0.126,0.151 -0.177,0.293 -0.347,0.387 -0.221,-0.185 -0.046,-0.392 -0.003,-0.592 -0.042,-0.195 -0.047,-0.392 0.108,-0.597 0.102,-0.024 0.207,0.011 0.305,-0.102 0.553,0.106 0.848,0.936 1.122,1.199 0.07,-0.556 0.458,-1.322 0.447,-1.875 0.213,-0.191 0.555,-0.279 0.845,-0.525 0.315,0.158 0.377,0.527 0.465,0.791 0.097,0.289 0.168,0.588 0.188,0.863 0.419,-0.011 0.445,-0.789 0.91,-0.892 C 2.742,-4.547 2.847,-4.748 2.834,-4.887 2.832,-4.994 2.836,-5.133 2.758,-5.186 2.733,-5.488 2.536,-5.676 2.291,-6.029 2.236,-6.104 2.147,-6.551 2.014,-6.527 2.012,-5.889 2.145,-5.008 2.271,-4.377 1.979,-4.633 1.898,-4.953 1.805,-5.17 1.458,-5.977 1.09,-6.709 0.892,-7.486 0.835,-7.709 0.821,-7.949 0.686,-8.152 0.588,-8.223 0.498,-8.156 0.396,-8.305 c 0.212,-0.304 0.657,-0.658 0.975,-0.728 0.398,0.295 0.452,0.67 0.473,0.961 0.01,0.103 0.028,0.209 0.046,0.306 0.048,0.26 0.086,0.59 0.185,0.809 0.025,0.055 0.115,0.08 0.147,0.131 0.192,0.306 0.337,0.689 0.635,0.783 0.002,0.529 0.578,0.777 0.879,1.164 -0.045,0.162 -0.049,0.322 -0.113,0.486 -0.468,0.137 -0.645,0.834 -1.017,1.012 -0.016,0.324 -0.438,0.477 -0.602,0.85 0.015,0.224 0.117,0.445 -0.075,0.679 C 1.681,-1.994 1.282,-2.318 1.185,-2.57 1.121,-2.736 1.25,-2.912 1.24,-3.109 1.224,-3.467 1.051,-3.771 0.964,-4.053 0.619,-3.621 0.527,-2.865 0.215,-2.266 0.168,-2.008 0.357,-1.807 0.421,-1.6 0.456,-1.484 0.399,-1.363 0.413,-1.234 0.411,-1.242 0.568,-1.02 0.454,-0.982 0.656,-0.607 0.685,-0.225 0.713,0.16 0.771,0.213 0.832,0.266 0.891,0.318 0.662,0.67 0.436,0.553 0.204,0.666"
       style="fill:#ff0000;fill-opacity:1;fill-rule:evenodd;stroke:none"
       transform="matrix(0.75068991,0,0,-0.75068991,131.55486,188.06836)"
       clip-path="url(#clipPath10)" />
    <path
       id="path15"
       d="m 0,0 c -0.092,-0.08 -0.009,-0.238 -0.036,-0.281 -0.036,-0.057 -0.049,-0.157 -0.067,-0.321 -0.195,-0.294 -0.293,-0.718 -0.429,-1.158 -0.155,-0.498 -0.559,-1.201 -0.131,-1.713 0.414,-0.045 0.654,0.328 0.942,0.489 0.414,0.232 0.656,0.367 0.994,0.613 0.308,0.225 0.586,0.441 0.796,0.652 0.176,0.176 0.478,0.324 0.381,0.61 C 2.188,-0.873 1.808,-1.078 1.592,-1.236 1.268,-1.475 1.112,-1.732 0.811,-1.961 0.571,-2.145 0.306,-2.27 0.003,-2.348 c 0.08,0.381 0.229,0.764 0.275,1.166 0.011,0.096 -0.055,0.159 -0.05,0.26 0.002,0.051 0.059,0.129 0.075,0.205 0.054,0.256 -0.038,0.666 -0.074,0.699 C 0.194,0.016 0.099,0.051 0,0"
       style="fill:#ff0000;fill-opacity:1;fill-rule:evenodd;stroke:none"
       transform="matrix(0.75068991,0,0,-0.75068991,145.93344,179.56011)"
       clip-path="url(#clipPath16)" />
    <path
       id="path17"
       d="m 0,0 c -0.436,0.027 -0.678,-0.49 -1.118,-0.369 -0.053,-0.35 0.255,-0.945 0.079,-1.213 0.197,-0.205 0.056,-0.629 0.118,-1.012 0.767,-0.498 -0.169,-1.474 0.036,-2.179 0.208,-0.223 1.397,0.478 1.508,0.136 0.124,-0.384 -0.949,-0.793 -1.241,-0.929 -0.202,-0.094 -0.403,-0.245 -0.658,-0.166 -0.358,0.316 -0.269,0.964 -0.182,1.347 -0.192,0.129 -0.438,0.176 -0.664,0.256 -0.297,0.541 0.141,1.035 0.557,1.295 -0.032,0.387 -0.032,0.771 -0.065,1.139 -0.034,0.357 -0.058,0.726 -0.2,1.035 -0.261,-0.08 -0.346,-0.332 -0.521,-0.483 -0.102,-0.087 -0.24,-0.115 -0.341,-0.218 -0.084,-0.088 -0.094,-0.19 -0.172,-0.303 -0.06,-0.086 -0.175,-0.152 -0.224,-0.234 -0.068,-0.118 -0.076,-0.264 -0.157,-0.375 -0.077,-0.108 -0.22,-0.151 -0.297,-0.25 -0.118,-0.149 -0.137,-0.434 -0.396,-0.538 -0.129,0.051 -0.296,0.018 -0.398,0.079 -0.241,0.14 -0.252,0.447 -0.394,0.652 0.046,0.34 0.416,0.848 0.614,0.195 0.387,0.199 0.824,0.365 0.928,0.754 0.244,0.039 0.457,0.235 0.654,0.395 0.233,0.189 0.474,0.41 0.647,0.623 -0.059,0.172 -0.202,0.342 -0.143,0.547 0.253,0.144 0.479,0.064 0.641,-0.145 0.241,0.115 0.379,0.289 0.595,0.498 0.052,0.051 0.109,0.154 0.157,0.184 0.37,0.236 1.08,0.205 1.166,-0.082 C 0.628,0.303 0.208,0.199 0,0"
       style="fill:#ff0000;fill-opacity:1;fill-rule:evenodd;stroke:none"
       transform="matrix(0.75068991,0,0,-0.75068991,148.23429,181.74327)"
       clip-path="url(#clipPath18)" />
    <path
       id="path23"
       d="M 0,0 C 0.02,0.393 0.044,0.887 -0.412,1.082 -0.62,0.984 -0.816,0.842 -0.969,0.514 -1.07,0.506 -1.216,0.688 -1.284,0.541 -1.252,0.098 -0.479,-0.318 -0.373,0.271 -0.212,0.131 -0.168,-0.049 0,0"
       style="fill:#ff0000;fill-opacity:1;fill-rule:evenodd;stroke:none"
       transform="matrix(0.75068991,0,0,-0.75068991,120.41988,200.89313)"
       clip-path="url(#clipPath24)" />
    <path
       id="path25"
       d="M 0,0 C 0.021,-0.115 0.044,-0.229 0.034,-0.352 -0.138,-0.264 -0.241,0.063 -0.488,0.217 -0.315,0.324 -0.104,-0.063 0,0 M 0.248,3.369 C 0.112,3.291 -0.077,3.117 -0.107,2.924 0.115,2.84 0.036,2.549 -0.003,2.488 -0.118,2.707 -0.198,3.02 -0.535,3.105 -0.759,2.967 -0.986,2.623 -0.9,2.377 -0.796,2.297 -0.747,2.451 -0.634,2.338 -0.018,1.844 0.143,1.104 0.031,0.52 0.003,0.666 -0.058,0.918 -0.298,0.93 -0.459,0.842 -0.325,0.711 -0.393,0.574 -0.557,0.617 -0.68,0.486 -0.841,0.518 c -0.4,0.388 -0.697,0.921 -1.21,1.199 -0.565,-0.221 -0.39,-0.637 -0.321,-1.129 0.044,-0.313 0.069,-0.609 0.07,-0.83 -0.104,0.004 -0.219,0.056 -0.292,-0.069 0.092,-0.255 0.348,-0.457 0.667,-0.533 0.214,0.229 0.137,0.52 0.105,0.846 -0.008,0.094 0.052,0.207 -0.038,0.271 0.024,0.04 0.064,0.02 0.085,0.073 -0.054,0.119 -0.075,0.566 -0.035,0.656 -0.011,0 -0.012,0.002 0.002,0.006 C -1.8,1.02 -1.792,1.023 -1.78,1.012 -1.793,1.01 -1.801,1.008 -1.808,1.008 c 0,-0.002 -0.002,-0.004 -0.002,-0.006 0.023,0 0.086,0.004 0.108,0.004 0.035,-0.08 0.073,-0.141 0.126,-0.203 0.57,-0.662 1.083,-1.338 1.612,-2.026 -0.02,-0.338 0.123,-0.636 -0.041,-1.009 l 0.12,-0.075 c -0.017,-0.56 0.069,-1.095 0.013,-1.664 -0.079,0.041 -0.144,0.028 -0.194,-0.047 0.016,-0.193 0.12,-0.365 0.302,-0.517 0.48,-0.016 0.424,0.414 0.548,0.824 -0.119,0.568 -0.118,1.168 -0.065,1.779 0.28,-0.472 0.67,-1.004 0.983,-1.433 0.2,-0.274 0.482,-0.573 0.511,-0.852 -0.176,-0.156 -0.475,0.201 -0.658,0.072 0.505,-0.406 1.019,-0.562 1.523,-0.687 0.035,0.105 0.119,0.008 0.153,0.113 -0.012,0.143 -0.037,0.28 -0.088,0.414 -10e-4,0.002 -0.002,0.002 -0.003,0.004 -0.017,0.031 -0.031,0.067 -0.045,0.102 -0.017,0.031 -0.036,0.062 -0.056,0.094 -0.043,0.064 -0.122,0.113 -0.173,0.175 -0.065,0.078 -0.107,0.172 -0.17,0.252 -0.023,0.03 -0.08,0.041 -0.097,0.074 -0.016,0.03 0.006,0.057 -0.005,0.086 -0.023,0.057 -0.119,0.098 -0.162,0.143 -0.059,0.057 -0.106,0.121 -0.157,0.184 -0.052,0.068 -0.105,0.138 -0.165,0.199 -0.021,0.023 -0.204,0.158 -0.203,0.164 0.031,0.199 -0.251,0.326 -0.268,0.515 -0.014,0.014 -0.028,0.03 -0.042,0.043 -0.019,0.02 -0.04,0.038 -0.06,0.057 -0.034,0.029 -0.06,0.068 -0.136,0.109 l 0.03,0.047 C 1.408,-2.014 1.383,-1.973 1.343,-1.949 1.327,-1.938 1.318,-1.926 1.313,-1.912 1.072,-1.697 0.98,-1.35 0.63,-1.131 0.667,-1.08 0.644,-1.043 0.577,-1.016 0.635,-0.797 0.52,-0.619 0.632,-0.387 0.457,-0.139 0.547,0.174 0.581,0.473 0.667,0.203 1.108,0.047 1.304,0.234 1.518,-0.133 1.732,-0.502 1.953,-0.867 2.173,-0.898 2.435,-1.098 2.623,-0.99 2.76,-0.701 2.518,-0.365 2.681,-0.154 2.672,-0.182 2.645,-0.215 2.673,-0.234 2.707,-0.055 2.626,0.096 2.703,0.285 2.733,0.268 2.754,0.289 2.781,0.279 2.932,0.068 2.598,-0.26 2.73,-0.477 3.074,-0.83 3.2,-1.236 3.293,-1.652 3.52,-1.775 3.803,-2.023 4.068,-1.67 c -0.011,0.065 -0.02,0.131 -0.028,0.197 -0.01,0.01 -0.019,0.02 -0.023,0.034 -0.026,0.074 -0.054,0.148 -0.08,0.222 -0.01,0.028 -0.003,0.051 0.011,0.069 -0.012,0.019 -0.013,0.046 0.006,0.074 0.026,0.037 0.057,0.06 0.093,0.072 0.057,0.041 0.118,0.076 0.173,0.121 0.022,0.018 0.046,0.02 0.069,0.014 0.215,0.17 0.436,0.318 0.664,0.433 C 5.025,-0.482 5.012,-0.547 5.104,-0.525 5.173,-0.287 5.08,-0.086 5,0.117 4.25,0.383 4.131,-0.439 3.749,-0.977 3.571,-0.9 3.688,-0.754 3.717,-0.627 3.625,-0.439 3.381,-0.223 3.237,-0.125 3.293,-0.031 3.39,-0.119 3.438,0 3.495,0.359 3.395,1.174 2.869,1.096 2.395,1.025 2.202,0.215 1.895,-0.086 1.852,0.193 1.906,0.498 1.697,0.738 1.738,0.791 1.704,0.826 1.741,0.877 1.6,1.152 1.335,1.115 1.125,1.09 1.006,0.986 0.983,0.789 0.904,0.729 0.902,0.736 0.898,0.744 0.896,0.752 0.891,0.738 0.889,0.725 0.883,0.713 0.839,0.619 0.701,0.703 0.745,0.797 0.765,0.838 0.771,0.883 0.773,0.932 0.768,0.941 0.765,0.953 0.764,0.967 0.761,1.039 0.717,1.098 0.688,1.16 0.658,1.221 0.639,1.279 0.637,1.348 0.636,1.365 0.642,1.379 0.649,1.391 0.608,1.398 0.576,1.438 0.586,1.482 0.565,1.561 0.573,1.637 0.581,1.723 0.574,1.744 0.577,1.762 0.584,1.775 0.579,1.785 0.577,1.795 0.571,1.805 0.622,2.047 0.589,2.678 0.516,2.996 0.468,3.209 0.48,3.275 0.248,3.369"
       style="fill:#ff0000;fill-opacity:1;fill-rule:evenodd;stroke:none"
       transform="matrix(0.75068991,0,0,-0.75068991,122.9696,202.05588)"
       clip-path="url(#clipPath26)" />
    <path
       id="path27"
       d="M 0,0 C 0.651,-0.219 -0.245,-0.842 -0.24,-1.199 -0.892,-0.982 0.004,-0.359 0,0"
       style="fill:#ffffff;fill-opacity:1;fill-rule:evenodd;stroke:none"
       transform="matrix(0.75068991,0,0,-0.75068991,165.53823,182.35463)"
       clip-path="url(#clipPath28)" />
    <path
       id="path29"
       d="M 0,0 C 0.698,-0.209 0.27,-0.359 0.24,-0.961 -0.086,-0.887 0.041,-0.359 0,0"
       style="fill:#ffffff;fill-opacity:1;fill-rule:evenodd;stroke:none"
       transform="matrix(0.75068991,0,0,-0.75068991,130.5861,188.30001)"
       clip-path="url(#clipPath30)" />
    <path
       id="path37"
       d="M 0,0 C -0.037,-0.043 -0.083,-0.063 -0.15,-0.031 -0.136,0.059 -0.064,0.021 0,0"
       style="fill:#ff0000;fill-opacity:1;fill-rule:evenodd;stroke:none"
       transform="matrix(0.75068991,0,0,-0.75068991,164.33997,181.26523)"
       clip-path="url(#clipPath38)" />
    <path
       id="path39"
       d="M 0,0 C 0.048,-0.012 0.108,0.037 0.104,0.004 -0.004,-0.553 -0.344,-1.188 -0.84,-1.09 -0.636,-0.584 -0.277,-0.518 0,0 m -0.053,-3.486 c -0.001,0.006 -0.003,0.013 -0.005,0.019 -0.548,0.772 -1.315,0.108 -1.979,0.135 -0.062,-0.022 -0.122,-0.027 -0.184,-0.023 -0.08,-0.032 -0.111,-0.018 -0.303,0.105 -0.13,0.082 0.732,1.021 0.811,1.123 0.087,0.111 0.192,0.229 0.277,0.34 0.098,0.125 0.169,0.174 0.294,0.262 0.093,0.068 0.064,0.16 0.163,0.218 0.789,-0.271 1.891,0.959 1.694,1.571 C 0.439,0.422 0.246,0.389 0.057,0.344 0.149,0.568 0.058,0.717 0.105,0.922 -0.141,1.053 -0.649,1.229 -0.862,1.035 -0.975,0.865 -0.646,0.887 -0.76,0.717 -0.81,0.418 -0.975,0.359 -1.069,0.061 -1.538,0.002 -1.855,-0.443 -2.362,-0.297 -2.861,-0.611 -3.391,-0.857 -3.9,-1.152 c -0.763,0.318 -1.384,-0.272 -2.007,-0.53 -0.001,0.01 -0.002,0.016 -0.004,0.026 -0.015,-0.004 -0.031,-0.004 -0.049,0.002 -0.034,0.013 -0.048,0.039 -0.053,0.066 -0.054,-0.014 -0.113,-0.051 -0.131,0.002 0.175,0.078 0.29,0.293 0.444,0.42 0.599,0.217 1.165,0.541 1.745,0.68 0.392,0.093 0.81,0.185 1.094,0.435 0.032,0.766 -0.823,0.203 -1.078,0.295 0.053,-0.019 -0.041,0.084 -0.096,0.067 0.293,0.261 0.767,0.39 1.056,0.449 0.013,0.015 0.025,0.029 0.038,0.045 0.041,0.127 0.326,0.338 0.272,0.539 -0.272,0.261 -0.747,0.183 -0.952,0.152 0.06,-0.115 -0.211,-0.098 -0.333,-0.142 -0.128,-0.047 -0.267,-0.25 -0.317,-0.104 0.214,0.066 0.342,0.291 0.468,0.365 0.146,0.086 0.442,0.155 0.69,0.229 0.258,0.078 0.541,0.211 0.73,0.215 0.253,0.004 0.472,-0.174 0.696,-0.096 0.102,0.035 0.13,0.166 0.215,0.189 -0.065,0.536 -0.563,0.594 -1.006,0.567 -0.52,-0.035 -1.044,0.029 -1.554,-0.01 -0.586,-0.045 -1.248,0.127 -1.816,0.002 -0.422,0.168 -0.125,0.326 -0.324,0.268 -0.62,-0.59 -0.161,-0.987 0.604,-1.26 0.36,0.084 0.672,-0.016 1.004,0.062 0.111,0.028 0.276,-0.004 0.381,0.033 0.124,0.043 0.2,0.106 0.336,0.133 0.172,0.035 0.307,-0.015 0.483,0.008 C -3.863,1.66 -4.325,1.529 -4.874,1.354 -5.086,1.037 -5.558,0.984 -5.587,0.49 c 0.233,-0.371 0.585,-0.029 0.919,0 0.244,0.174 0.543,0.621 0.753,0.617 -0.376,-0.474 -1.034,-0.902 -1.039,-1.56 0,-0.074 -1.216,-0.777 -1.354,-0.889 -0.449,-0.367 -0.872,-0.705 -1.344,-1.037 -0.143,-0.1 -0.819,-0.6 -0.658,-0.822 0.268,-0.373 0.689,-0.27 0.92,-0.002 0.043,0.051 0.033,0.152 0.08,0.199 0.519,0.506 1.011,0.871 1.677,1.092 0.226,0.074 0.544,0.082 0.797,0.031 -0.384,-0.111 -1.362,-1.555 -0.77,-1.807 0.248,-0.105 0.284,0.129 0.46,0.231 0.112,0.062 0.224,0.037 0.317,0.102 0.601,0.427 0.623,1.08 1.055,1.601 0.143,0.172 0.427,0.307 0.58,0.412 0.043,-0.072 0.024,-0.17 0.067,-0.24 0.168,-0.072 0.327,-0.066 0.48,0.061 0.017,0.015 0.034,0.019 0.05,0.021 0.183,0.199 0.429,0.348 0.616,0.545 0.173,0.182 0.246,0.494 0.531,0.523 -0.372,-1.105 -1.498,-2.015 -1.571,-3.234 0.607,-0.602 1.334,0.031 2.037,-0.08 0.03,-0.451 -0.569,-0.949 -0.662,-1.307 0.035,-0.019 0.069,-0.035 0.103,-0.049 0.012,0.008 0.026,0.014 0.044,0.014 0.121,0.002 0.221,0.072 0.319,0.135 0.017,0.012 0.034,0.015 0.052,0.017 0.136,0.082 0.274,0.147 0.432,0.186 0.013,0.016 0.026,0.035 0.04,0.055 0.013,0.027 0.028,0.054 0.047,0.08 0.006,0.008 0.013,0.013 0.021,0.019 0.226,0.348 0.435,0.852 0.535,1.11"
       style="fill:#ff0000;fill-opacity:1;fill-rule:evenodd;stroke:none"
       transform="matrix(0.75068991,0,0,-0.75068991,166.65915,182.78132)"
       clip-path="url(#clipPath40)" />
    <path
       id="path49"
       d="m 0,0 c -0.745,0.184 -1.522,0.232 -2.264,0.434 -1.011,0.271 -2.051,0.574 -3.051,1.07 -0.114,0.057 -0.158,0.187 -0.27,0.25 -0.182,-0.367 -0.221,-0.733 0.169,-1.016 0.65,-0.47 1.47,-0.314 2.319,-0.431 C -2.094,0.168 -1.135,0.033 -0.441,-0.23 -0.6,-0.326 -0.794,-0.354 -0.987,-0.373 -0.991,-0.375 -0.995,-0.379 -1,-0.381 -1.025,-0.393 -1.048,-0.393 -1.069,-0.387 -1.088,-0.395 -1.108,-0.4 -1.128,-0.4 c 0,0 -0.001,0 -0.001,0.002 -0.004,-0.002 -0.006,-0.004 -0.009,-0.004 -0.03,-0.01 -0.058,-0.01 -0.087,-0.008 -0.05,-0.014 -0.1,-0.026 -0.152,-0.024 -0.011,-0.004 -0.02,-0.005 -0.032,-0.009 -0.006,-0.002 -0.01,-0.002 -0.016,-0.002 -0.019,-0.006 -0.039,-0.012 -0.057,-0.02 0.136,-0.162 0.439,-0.215 0.632,-0.246 0.397,-0.064 0.806,-0.127 1.139,0.16 C 0.332,-0.365 0.228,-0.182 0,0"
       style="fill:#ff0000;fill-opacity:1;fill-rule:evenodd;stroke:none"
       transform="matrix(0.75068991,0,0,-0.75068991,178.82596,190.56237)"
       clip-path="url(#clipPath50)" />
    <path
       id="path51"
       d="M 0,0 C 0.032,0.094 0.146,0.189 0.162,0.281 0.12,0.59 0.167,1.041 -0.051,1.252 -0.248,1.148 -0.2,0.775 -0.373,0.578 -0.458,0.482 -0.537,0.514 -0.593,0.408 -0.642,0.277 -0.422,0.15 -0.474,0.02 -0.708,0.135 -0.939,0.102 -1.172,0.146 -1.137,0.436 -1.002,0.725 -1.216,1.01 -1.398,0.957 -1.33,0.799 -1.433,0.67 c -0.654,-0.422 -0.592,-1.274 0.1,-0.916 0.418,-0.016 0.983,0.041 1.311,-0.115 -0.203,-0.262 -0.645,-0.135 -0.94,-0.352 0.349,-0.318 0.686,0.065 1.032,-0.121 0.072,-0.193 0.031,-0.389 0.15,-0.582 0.121,-0.027 0.242,-0.082 0.362,0.035 0.084,0.233 -0.031,0.463 0.014,0.695 C 1.454,-0.334 2.318,-0.4 3.19,-0.889 2.794,-1.061 2.398,-1.234 1.998,-1.217 2.034,-1.135 1.989,-0.994 1.883,-0.996 1.724,-1.115 1.534,-1.434 1.303,-1.256 1.086,-1.602 0.857,-1.266 0.638,-1.436 1.254,-2.227 2.08,-1.738 2.785,-1.537 c 0.146,0.043 0.338,0.021 0.444,0.064 0.174,0.073 0.32,0.231 0.467,0.315 -0.015,0.027 -0.01,0.054 0.027,0.084 C 3.466,-0.393 2.583,-0.453 2.064,-0.24 2.186,-0.072 2.013,0.094 2,0.26 2.412,0.285 3.986,0.291 3.489,1.066 2.854,0.744 2.216,0.674 1.577,0.559 1.392,0.68 1.154,0.744 0.959,0.824 0.889,0.855 0.801,1.002 0.708,0.904 0.646,0.736 0.93,0.574 0.939,0.406 0.759,0.311 0.445,0.459 0.357,0.258 0.722,0.09 1.08,0.271 1.446,0.082 0.967,-0.148 0.484,-0.084 0,0"
       style="fill:#ff0000;fill-opacity:1;fill-rule:evenodd;stroke:none"
       transform="matrix(0.75068991,0,0,-0.75068991,178.23689,189.17246)"
       clip-path="url(#clipPath52)" />
    <path
       id="path53"
       d="M 0,0 C -0.467,0.033 0.271,-0.139 0.168,-0.051 0.103,-0.063 0.032,0 0,0 m -0.223,-0.004 c -0.159,0.09 -0.316,0.029 -0.473,0.02 -0.138,-0.401 -0.716,-1.004 -1.116,-1.496 -0.124,-0.155 -0.201,-0.36 -0.326,-0.452 -0.154,-0.111 -0.497,-0.205 -0.638,-0.093 -0.185,0.142 -0.06,0.293 -0.092,0.47 -0.043,0.235 -0.189,0.383 -0.15,0.582 -0.155,0.241 -0.292,0.512 -0.404,0.774 -0.099,0.232 -0.259,0.531 -0.125,0.777 0.326,-0.408 0.669,-1.053 1.308,-1.48 0.319,0.336 0.852,0.66 1.261,1.08 -0.447,0.088 -1.018,0.611 -0.993,1.068 0.105,0.104 0.146,-0.103 0.193,0.088 C -1.272,1.207 -0.592,1.051 0.069,0.809 0.345,0.709 0.644,0.568 0.938,0.463 1.353,0.316 1.84,0.383 2.117,-0.072 2.183,-0.182 2.166,-0.469 2.098,-0.545 1.923,-0.744 1.02,-0.527 0.788,-0.486 c -0.513,0.091 -0.856,0.209 -1.287,0.367 0.089,0.15 0.184,0.074 0.276,0.115"
       style="fill:#ff0000;fill-opacity:1;fill-rule:evenodd;stroke:none"
       transform="matrix(0.75068991,0,0,-0.75068991,177.30153,191.80281)"
       clip-path="url(#clipPath54)" />
    <path
       id="path55"
       d="M 0,0 C 0.104,-0.088 -0.635,0.084 -0.168,0.051 -0.136,0.051 -0.065,-0.012 0,0"
       style="fill:#ff0000;fill-opacity:1;fill-rule:evenodd;stroke:none"
       transform="matrix(0.75068991,0,0,-0.75068991,177.42759,191.84088)"
       clip-path="url(#clipPath56)" />
    <path
       id="path57"
       d="m 0,0 -0.253,0.018 0.018,0.253 c 0.042,0.354 -0.098,0.534 -0.421,0.54 L -3.265,0.99 C -3.584,1.029 -3.749,0.854 -3.759,0.465 L -3.765,0.389 -4.018,0.408 -3.77,3.979 -2.827,3.988 -2.845,3.736 C -3.271,3.715 -3.476,3.576 -3.459,3.32 L -3.558,1.902 -2.114,1.803 -2.04,2.865 C -2,3.201 -2.14,3.373 -2.462,3.379 L -2.444,3.631 -1.153,3.541 -1.17,3.289 C -1.504,3.363 -1.67,3.18 -1.667,2.738 l -0.067,-0.963 1.165,-0.08 c 0.253,-0.035 0.368,0.041 0.347,0.229 l 0.076,1.09 c 0.062,0.402 -0.141,0.662 -0.607,0.781 L -0.736,4.047 0.272,3.9 Z m -0.26,-1.619 c -0.015,-0.086 -0.032,-0.229 -0.05,-0.432 -0.014,-0.271 -0.037,-0.5 -0.069,-0.683 -0.354,-1.416 -1.166,-2.073 -2.437,-1.967 -1.26,0.361 -1.815,1.301 -1.667,2.822 0.056,0.316 0.183,0.647 0.381,0.99 0.052,0.094 0.08,0.157 0.086,0.19 0.009,0.051 0,0.095 -0.028,0.135 l 0.031,0.175 1.134,-0.15 -0.044,-0.25 c -0.688,-0.102 -1.097,-0.467 -1.226,-1.098 -0.104,-0.978 0.371,-1.595 1.426,-1.851 1.148,-0.117 1.852,0.318 2.113,1.302 0.089,0.604 -0.141,1.1 -0.691,1.489 l 0.049,0.275 c 0.404,-0.139 0.766,-0.332 1.083,-0.578 -0.034,-0.096 -0.064,-0.221 -0.091,-0.369 M -1.352,-7.066 -5.334,-9.102 -3,-9.805 c 0.363,-0.144 0.595,0.006 0.694,0.455 l 0.243,-0.074 -0.455,-1.508 -0.242,0.075 0.014,0.048 c 0.098,0.325 0.015,0.516 -0.249,0.579 l -2.869,0.865 c -0.12,-0.106 -0.209,-0.256 -0.268,-0.449 l -0.243,0.072 0.381,1.265 3.419,1.754 -1.872,0.565 C -4.674,-6.09 -4.83,-6.08 -4.914,-6.125 -4.998,-6.17 -5.079,-6.322 -5.157,-6.582 l -0.022,-0.072 -0.244,0.074 0.485,1.603 0.242,-0.074 -0.022,-0.072 c -0.123,-0.352 -0.069,-0.553 0.162,-0.606 l 3.307,-0.996 z m -5.609,-5.719 1.174,-1.119 0.466,1.07 z m 3.298,-0.881 -0.232,0.102 0.091,0.209 c 0.074,0.169 0.083,0.296 0.025,0.376 -0.057,0.081 -0.173,0.112 -0.346,0.094 l -0.82,0.026 -0.567,-1.303 0.597,-0.537 c 0.151,-0.16 0.265,-0.217 0.339,-0.176 0.088,0.035 0.191,0.184 0.305,0.449 l 0.031,0.069 0.233,-0.102 -0.69,-1.582 -0.232,0.102 0.041,0.093 c 0.13,0.256 0.028,0.532 -0.306,0.825 l -2.394,2.261 h -0.194 l 0.386,0.885 3.543,-0.131 c 0.411,-0.031 0.678,0.094 0.799,0.373 l 0.233,-0.101 z m -4.69,-1.906 2.983,-1.739 -0.179,-0.308 -4.347,-1.051 2.106,-1.228 c 0.319,-0.225 0.58,-0.131 0.781,0.279 l 0.219,-0.127 -0.793,-1.359 -0.219,0.126 0.025,0.045 c 0.171,0.291 0.134,0.498 -0.108,0.621 l -2.588,1.51 c -0.142,-0.076 -0.263,-0.199 -0.365,-0.375 l -0.22,0.127 0.666,1.141 3.733,0.91 -1.689,0.984 c -0.204,0.12 -0.353,0.166 -0.446,0.143 -0.092,-0.025 -0.206,-0.154 -0.343,-0.387 l -0.039,-0.066 -0.219,0.127 0.845,1.447 0.219,-0.127 -0.039,-0.066 c -0.201,-0.313 -0.196,-0.522 0.017,-0.627 m -1.002,-7.977 -0.207,0.147 0.044,0.062 c 0.197,0.276 0.166,0.496 -0.091,0.658 l -2.108,1.506 c -0.266,0.209 -0.491,0.172 -0.673,-0.113 l -0.045,-0.063 -0.206,0.149 1.195,1.674 0.207,-0.149 -0.059,-0.082 c -0.198,-0.275 -0.164,-0.508 0.097,-0.693 l 2.087,-1.49 c 0.266,-0.211 0.495,-0.166 0.688,0.132 l 0.059,0.082 0.206,-0.146 z m -2.779,-3.424 -0.195,0.164 0.065,0.077 c 0.187,0.197 0.17,0.377 -0.048,0.537 l -2.005,1.679 c -0.288,0.262 -0.517,0.278 -0.689,0.047 l -0.049,-0.058 -0.175,0.146 2.102,2.512 0.7,-0.588 -0.146,-0.174 c -0.312,0.26 -0.541,0.276 -0.689,0.047 l -0.815,-0.975 1.11,-0.927 0.587,0.701 c 0.287,0.289 0.289,0.529 0.008,0.721 l 0.163,0.195 0.993,-0.832 -0.163,-0.194 c -0.236,0.219 -0.45,0.2 -0.644,-0.058 l -0.652,-0.777 0.799,-0.668 c 0.289,-0.29 0.524,-0.297 0.705,-0.028 l 0.081,0.096 0.195,-0.162 z m -4.716,-2.093 -0.761,-0.672 0.69,-0.782 c 0.244,-0.326 0.476,-0.369 0.694,-0.13 l 0.095,0.084 0.168,-0.19 -1.445,-1.279 -0.168,0.189 0.076,0.069 c 0.214,0.166 0.225,0.345 0.032,0.537 l -1.732,1.959 c -0.246,0.302 -0.471,0.351 -0.675,0.148 l -0.057,-0.051 -0.151,0.172 2.452,2.17 0.606,-0.683 -0.171,-0.153 c -0.269,0.305 -0.494,0.354 -0.675,0.149 l -0.95,-0.84 0.959,-1.084 0.684,0.605 c 0.327,0.244 0.366,0.481 0.116,0.713 l 0.19,0.168 0.858,-0.971 -0.19,-0.167 c -0.2,0.251 -0.416,0.265 -0.645,0.039 m -3.362,-2.813 c -0.799,1.01 -1.604,1.27 -2.417,0.777 -0.676,-0.539 -0.736,-1.246 -0.182,-2.117 0.795,-1.035 1.617,-1.304 2.467,-0.806 0.672,0.517 0.715,1.232 0.132,2.146 m -0.124,-2.42 c -1.228,-0.785 -2.257,-0.693 -3.087,0.274 -0.718,1.191 -0.466,2.271 0.757,3.24 1.251,0.781 2.283,0.672 3.095,-0.33 0.718,-1.192 0.463,-2.254 -0.765,-3.184 m -8.365,-4.697 -0.108,0.23 0.162,0.075 c 0.306,0.144 0.387,0.349 0.242,0.619 l -0.387,0.828 -2.05,1.086 c -0.135,0.088 -0.24,0.131 -0.316,0.133 -0.075,0.002 -0.19,-0.034 -0.343,-0.104 l -0.045,-0.021 -0.108,0.228 1.931,0.906 0.108,-0.23 -0.092,-0.045 c -0.138,-0.063 -0.219,-0.129 -0.243,-0.197 -0.018,-0.084 0.026,-0.157 0.13,-0.219 l 1.524,-0.801 0.184,1.404 c 0.02,0.196 -0.003,0.325 -0.07,0.387 -0.081,0.055 -0.207,0.043 -0.375,-0.035 l -0.069,-0.031 -0.108,0.228 1.402,0.657 0.108,-0.229 c -0.161,-0.096 -0.277,-0.186 -0.347,-0.275 -0.056,-0.082 -0.097,-0.233 -0.126,-0.452 l -0.267,-2.003 0.377,-0.805 c 0.112,-0.32 0.349,-0.389 0.71,-0.199 l 0.092,0.043 0.107,-0.231 z m -3.245,1.81 c -0.178,0.315 -0.31,0.495 -0.396,0.538 -0.091,0.058 -0.265,0.044 -0.521,-0.041 l -0.722,-0.245 0.949,-2.814 c 0.075,-0.332 0.303,-0.426 0.682,-0.279 l 0.145,0.048 0.081,-0.24 -2.213,-0.746 -0.081,0.24 0.216,0.073 c 0.337,0.113 0.446,0.32 0.327,0.619 l -0.948,2.816 -0.746,-0.252 c -0.241,-0.082 -0.38,-0.172 -0.417,-0.275 -0.043,-0.084 -0.039,-0.307 0.01,-0.666 l -0.264,-0.088 -0.27,1.195 0.193,0.065 c 0.065,-0.032 0.115,-0.051 0.153,-0.055 0.054,0 0.113,0.01 0.176,0.031 l 2.936,0.991 c 0.134,0.027 0.216,0.099 0.248,0.216 l 0.217,0.073 0.485,-1.122 z M -37.86,-42 l -0.06,0.246 0.074,0.02 c 0.329,0.08 0.449,0.265 0.361,0.556 l -0.611,2.518 c -0.064,0.332 -0.258,0.451 -0.583,0.355 l -0.073,-0.019 -0.061,0.248 1.999,0.484 0.06,-0.246 -0.099,-0.023 c -0.33,-0.08 -0.455,-0.278 -0.379,-0.59 l 0.605,-2.492 c 0.063,-0.334 0.265,-0.45 0.607,-0.35 l 0.098,0.025 0.061,-0.246 z m -2.45,-0.514 c -0.217,-0.037 -0.516,-0.043 -0.898,-0.019 -0.122,0.013 -0.2,0.017 -0.233,0.013 -0.05,-0.007 -0.086,-0.048 -0.109,-0.121 l -0.175,-0.029 -0.339,1.129 0.25,0.041 c 0.305,-0.602 0.724,-0.859 1.259,-0.771 0.448,0.089 0.655,0.339 0.624,0.746 -0.133,0.388 -0.493,0.646 -1.08,0.773 -0.687,0.111 -1.131,0.467 -1.333,1.068 -0.056,0.661 0.32,1.082 1.13,1.266 0.235,0.039 0.509,0.041 0.823,0.006 0.105,-0.016 0.167,-0.024 0.183,-0.02 0.034,0.004 0.073,0.028 0.117,0.071 -0.016,-0.002 -0.009,0.006 0.022,0.029 l 0.125,0.019 0.294,-1.005 -0.251,-0.041 c -0.274,0.521 -0.671,0.746 -1.192,0.677 -0.382,-0.078 -0.565,-0.263 -0.553,-0.552 0.037,-0.217 0.336,-0.426 0.901,-0.625 0.506,-0.157 0.875,-0.319 1.109,-0.487 0.294,-0.226 0.466,-0.488 0.515,-0.791 0.054,-0.746 -0.342,-1.205 -1.189,-1.377 m -5.833,3.297 -0.355,-0.023 0.114,-1.875 0.254,0.015 c 0.843,0.051 1.239,0.389 1.185,1.014 -0.055,0.607 -0.454,0.897 -1.198,0.869 m 2.947,-3.715 c -0.389,-0.023 -0.685,-0.023 -0.89,-0.002 -0.207,0.055 -0.391,0.155 -0.552,0.297 -0.091,0.078 -0.245,0.256 -0.466,0.532 -0.328,0.386 -0.581,0.642 -0.758,0.767 l -0.507,-0.031 0.06,-0.988 c 0.02,-0.321 0.198,-0.471 0.536,-0.45 l 0.203,0.012 0.015,-0.254 -2.256,-0.137 -0.015,0.254 0.102,0.006 c 0.389,0.006 0.565,0.178 0.528,0.516 l -0.155,2.558 c 0.013,0.342 -0.174,0.491 -0.562,0.45 l -0.126,-0.008 -0.016,0.254 c 0.051,0.004 0.109,0.015 0.176,0.037 0.303,0.035 0.522,0.056 0.658,0.064 0.471,0.063 0.824,0.102 1.061,0.116 0.911,0.072 1.52,-0.043 1.827,-0.346 0.215,-0.192 0.332,-0.43 0.349,-0.717 0.014,-0.525 -0.286,-0.893 -0.9,-1.098 0.16,-0.127 0.367,-0.343 0.624,-0.65 0.237,-0.273 0.427,-0.473 0.571,-0.602 0.234,-0.238 0.53,-0.357 0.886,-0.351 l 0.012,-0.203 c -0.101,-0.006 -0.236,-0.016 -0.405,-0.026 m -6.293,3.487 -1.421,0.066 -0.066,-1.447 1.066,-0.049 c 0.337,-0.031 0.504,0.113 0.503,0.436 l 0.253,-0.012 -0.059,-1.293 -0.253,0.012 c 0.066,0.336 -0.122,0.496 -0.563,0.482 l -0.964,0.045 -0.053,-1.168 c -0.029,-0.252 0.05,-0.367 0.238,-0.34 l 1.091,-0.051 c 0.404,-0.052 0.659,0.157 0.765,0.627 l 0.254,-0.013 -0.122,-1.01 -3.906,0.178 0.011,0.253 0.254,-0.011 c 0.355,-0.033 0.53,0.111 0.528,0.433 l 0.12,2.614 c 0.031,0.32 -0.148,0.48 -0.538,0.48 l -0.076,0.004 0.011,0.254 3.577,-0.164 0.034,-0.942 -0.254,0.012 c -0.032,0.426 -0.175,0.627 -0.43,0.604 m -3.366,0.256 -0.025,0.003 c -0.313,0.082 -0.599,-0.105 -0.857,-0.562 l -1.806,-2.908 -0.401,0.06 -1.008,3.492 c -0.082,0.252 -0.152,0.411 -0.211,0.471 -0.073,0.078 -0.202,0.133 -0.386,0.16 l -0.051,0.008 0.039,0.252 2.234,-0.342 -0.038,-0.252 -0.101,0.016 c -0.268,0.041 -0.442,0.025 -0.521,-0.047 -0.08,-0.074 -0.085,-0.219 -0.015,-0.435 l 0.674,-2.313 1.339,2.211 c 0.117,0.203 0.002,0.342 -0.347,0.412 l -0.151,0.024 0.039,0.25 1.631,-0.249 z m -5.221,0.882 -0.099,0.024 c -0.329,0.08 -0.531,-0.037 -0.608,-0.348 l -0.609,-2.492 c -0.097,-0.324 0.03,-0.522 0.379,-0.588 l 0.099,-0.025 -0.061,-0.246 -1.997,0.488 0.059,0.246 0.075,-0.018 c 0.329,-0.08 0.521,0.03 0.577,0.33 l 0.615,2.516 c 0.097,0.324 -0.021,0.52 -0.354,0.582 l -0.074,0.02 0.06,0.246 1.998,-0.489 z m -2.575,0.586 -0.072,0.026 c -0.347,0.136 -0.55,0.09 -0.611,-0.139 l -1.127,-3.264 -0.337,0.116 -1.875,4.058 -0.796,-2.303 c -0.159,-0.357 -0.017,-0.593 0.426,-0.711 l -0.083,-0.24 -1.488,0.514 0.083,0.24 0.048,-0.017 c 0.32,-0.11 0.516,-0.036 0.588,0.226 l 0.979,2.832 c -0.101,0.125 -0.247,0.221 -0.438,0.285 l 0.082,0.241 1.248,-0.43 1.617,-3.486 0.638,1.847 c 0.077,0.225 0.094,0.379 0.053,0.465 -0.042,0.086 -0.191,0.174 -0.447,0.262 l -0.072,0.025 0.083,0.24 1.584,-0.546 z m -5.077,1.778 -0.045,0.021 c -0.359,0.193 -0.612,0.119 -0.759,-0.223 l -0.71,-1.462 c -0.497,-0.983 -1.288,-1.217 -2.377,-0.709 -1.119,0.564 -1.476,1.283 -1.069,2.158 l 0.843,1.736 c 0.148,0.266 0.074,0.461 -0.222,0.588 l -0.114,0.055 0.111,0.228 1.827,-0.887 -0.111,-0.228 -0.092,0.043 c -0.274,0.133 -0.474,0.07 -0.6,-0.188 l -0.843,-1.736 c -0.288,-0.631 -0.093,-1.121 0.585,-1.469 0.753,-0.347 1.307,-0.175 1.663,0.518 l 0.688,1.416 c 0.214,0.404 0.151,0.68 -0.191,0.828 l -0.091,0.043 0.11,0.229 1.508,-0.733 z m -7.924,3.177 -0.206,0.149 c 0.233,0.668 0.072,1.211 -0.479,1.633 -0.836,0.521 -1.608,0.349 -2.318,-0.516 -0.62,-0.973 -0.558,-1.781 0.188,-2.426 0.233,-0.168 0.454,-0.265 0.665,-0.293 l 0.536,0.74 c 0.089,0.124 0.108,0.237 0.056,0.336 -0.053,0.102 -0.212,0.258 -0.476,0.469 l 0.149,0.207 1.748,-1.265 -0.149,-0.207 c -0.25,0.203 -0.453,0.181 -0.607,-0.061 l -0.567,-0.781 c -0.605,0.144 -1.139,0.375 -1.601,0.689 -1.255,0.951 -1.496,2.002 -0.724,3.156 0.837,0.983 1.877,1.077 3.119,0.282 0.234,-0.168 0.491,-0.418 0.775,-0.75 0.121,-0.149 0.202,-0.241 0.243,-0.27 0.082,-0.058 0.145,-0.072 0.189,-0.043 l 0.143,-0.103 z m -3.315,3.618 -0.055,0.05 c -0.263,0.266 -0.468,0.305 -0.617,0.119 l -2.343,-2.535 -0.261,0.243 -0.087,4.47 -1.654,-1.791 c -0.289,-0.263 -0.254,-0.537 0.104,-0.822 l -0.172,-0.188 -1.156,1.069 0.172,0.187 0.037,-0.035 c 0.249,-0.23 0.459,-0.238 0.63,-0.029 l 2.034,2.201 c -0.042,0.154 -0.138,0.301 -0.288,0.438 l 0.173,0.187 0.97,-0.896 0.08,-3.842 1.327,1.435 c 0.16,0.174 0.239,0.309 0.236,0.405 -0.004,0.095 -0.106,0.236 -0.305,0.419 l -0.055,0.051 0.172,0.188 1.23,-1.137 z m -5.66,5.845 c -0.597,0.627 -1.305,0.625 -2.126,-0.002 -0.963,-0.881 -1.16,-1.722 -0.591,-2.527 0.573,-0.623 1.288,-0.606 2.149,0.055 0.938,0.882 1.128,1.707 0.568,2.474 m 0.248,-3.047 c -1.125,-0.818 -2.204,-0.656 -3.237,0.487 -0.889,1.156 -0.886,2.189 0.007,3.099 1.125,0.819 2.223,0.66 3.293,-0.474 0.886,-1.18 0.865,-2.217 -0.063,-3.112 m -4.165,8.254 -2.531,-1.648 c -0.199,-0.131 -0.301,-0.236 -0.307,-0.322 -0.015,-0.071 0.047,-0.211 0.186,-0.424 0.652,-0.969 1.481,-1.156 2.488,-0.561 0.472,0.328 0.753,0.703 0.842,1.125 0.112,0.416 -0.012,0.903 -0.373,1.455 -0.046,0.071 -0.134,0.174 -0.263,0.311 0.092,-0.08 0.078,-0.059 -0.042,0.064 m 1.284,-2.527 c -0.104,-0.492 -0.39,-0.891 -0.858,-1.195 -0.454,-0.295 -0.965,-0.397 -1.531,-0.301 -0.601,0.113 -1.187,0.611 -1.76,1.49 l -1.137,1.744 0.213,0.139 c 0.211,-0.387 0.451,-0.475 0.716,-0.262 l 2.105,1.373 c 0.199,0.131 0.304,0.248 0.314,0.358 0.02,0.091 -0.039,0.246 -0.177,0.459 l 0.211,0.138 c 0.288,-0.379 0.496,-0.668 0.625,-0.865 0.07,-0.076 0.088,-0.105 0.056,-0.086 0.204,-0.25 0.361,-0.461 0.472,-0.633 0.661,-0.982 0.912,-1.769 0.751,-2.359 m -3.401,4.185 -0.112,0.229 c 0.518,0.48 0.631,1.037 0.34,1.666 -0.495,0.852 -1.258,1.061 -2.29,0.629 -1.003,-0.57 -1.325,-1.315 -0.967,-2.232 0.127,-0.258 0.277,-0.448 0.45,-0.571 l 0.82,0.404 c 0.137,0.067 0.206,0.157 0.207,0.272 0,0.113 -0.067,0.324 -0.201,0.637 l 0.227,0.111 0.954,-1.936 -0.228,-0.113 c -0.127,0.297 -0.315,0.373 -0.566,0.233 l -0.866,-0.426 c -0.467,0.41 -0.831,0.863 -1.093,1.357 -0.665,1.426 -0.386,2.469 0.838,3.129 1.198,0.477 2.161,0.072 2.887,-1.211 0.127,-0.258 0.239,-0.599 0.334,-1.023 0.037,-0.19 0.067,-0.309 0.089,-0.354 0.045,-0.092 0.094,-0.133 0.147,-0.125 l 0.079,-0.16 z m -1.236,4.745 -0.025,0.072 c -0.107,0.357 -0.27,0.488 -0.488,0.394 l -3.259,-1.142 -0.118,0.336 2.019,3.988 -2.3,-0.805 c -0.378,-0.095 -0.477,-0.355 -0.293,-0.775 l -0.24,-0.084 -0.521,1.486 0.24,0.084 0.017,-0.049 c 0.112,-0.32 0.293,-0.425 0.543,-0.32 l 2.828,0.99 c 0.035,0.157 0.019,0.33 -0.048,0.522 l 0.24,0.084 0.436,-1.246 -1.731,-3.432 1.846,0.647 c 0.223,0.078 0.355,0.16 0.397,0.246 0.041,0.086 0.017,0.258 -0.072,0.513 l -0.025,0.073 0.239,0.084 0.554,-1.582 z m -4.331,7.793 0.254,-1.139 1.354,0.926 z m -0.445,-2.674 c -0.351,-0.217 -0.493,-0.473 -0.427,-0.772 l -0.248,-0.054 -0.458,2.056 0.248,0.055 0.05,-0.223 c 0.041,-0.181 0.108,-0.287 0.201,-0.318 0.094,-0.031 0.206,0.01 0.336,0.127 l 0.677,0.463 -0.309,1.386 -0.798,0.083 c -0.217,0.039 -0.343,0.019 -0.377,-0.057 -0.052,-0.08 -0.047,-0.262 0.016,-0.543 l 0.016,-0.074 -0.247,-0.055 -0.376,1.686 0.248,0.054 0.022,-0.099 c 0.046,-0.286 0.29,-0.446 0.733,-0.487 l 3.267,-0.418 0.156,0.114 0.21,-0.942 z m 1.767,6.543 0.253,0.025 0.175,-1.666 -0.253,-0.027 -0.005,0.051 c -0.027,0.406 -0.223,0.582 -0.592,0.525 l -1.616,-0.17 c -1.096,-0.098 -1.715,0.449 -1.858,1.643 -0.114,1.248 0.308,1.931 1.266,2.048 l 1.919,0.202 c 0.305,0.015 0.432,0.181 0.382,0.5 l -0.014,0.127 0.253,0.025 0.212,-2.02 -0.252,-0.027 -0.011,0.102 c -0.031,0.302 -0.191,0.439 -0.477,0.408 L -95.443,1.514 C -96.132,1.426 -96.445,1 -96.381,0.24 c 0.103,-0.822 0.543,-1.201 1.319,-1.136 l 1.565,0.164 c 0.457,0.031 0.657,0.23 0.601,0.599 z m -0.146,4.769 c -0.054,-0.185 -0.081,-0.302 -0.082,-0.353 -0.003,-0.102 0.023,-0.162 0.073,-0.18 l -0.003,-0.178 -1.168,0.02 0.004,0.254 c 0.681,0.191 1.035,0.635 1.063,1.328 -0.052,0.982 -0.636,1.517 -1.752,1.601 -1.152,-0.046 -1.778,-0.562 -1.878,-1.542 -0.005,-0.288 0.042,-0.526 0.14,-0.713 l 0.914,-0.016 c 0.153,-0.002 0.255,0.047 0.307,0.148 0.052,0.1 0.09,0.321 0.113,0.659 l 0.254,-0.004 -0.036,-2.158 -0.253,0.003 c 0.022,0.323 -0.111,0.477 -0.399,0.465 l -0.965,0.016 c -0.228,0.578 -0.345,1.146 -0.353,1.705 0.059,1.574 0.783,2.375 2.172,2.404 1.284,-0.123 1.957,-0.922 2.018,-2.394 -0.004,-0.289 -0.061,-0.643 -0.169,-1.065"
       style="fill:#ff0000;fill-opacity:1;fill-rule:nonzero;stroke:none"
       transform="matrix(0.75068991,0,0,-0.75068991,191.22698,221.60018)"
       clip-path="url(#clipPath58)" />
    <path
       id="path61"
       d="m 0,0 c -1.097,1.096 -6.316,4.891 -11.458,5.24 -9.641,0.658 -16.892,-4.674 -20.6,-10.97 -0.615,-1.045 -1.434,-2.168 -1.585,-2.924 v -6.826 -20.358 h -2.315 v 20.234 6.706 c -0.169,1.037 -1.016,2.246 -1.707,3.412 -3.595,6.068 -11.034,11.306 -20.356,10.726 -5.91,-0.367 -9.621,-3.347 -12.921,-6.703 -0.461,11.27 3.774,19.537 9.386,25.842 5.536,6.219 13.703,11.164 24.013,11.822 12.301,0.789 21.678,-4.125 27.792,-10.238 C -3.39,19.602 1.168,11.186 1.097,-1.098 0.703,-1.201 1.097,-1.098 0,0 m -11.093,-26.695 c -4.904,-4.211 -10.949,-7.815 -19.014,-8.778 3.798,1.909 5.325,6.102 5.972,11.336 0.466,3.768 0.768,8.065 0.61,11.824 -0.033,0.764 -0.193,1.456 -0.122,2.196 0.306,3.236 2.08,6.349 4.388,7.922 4.174,2.847 11.866,2.443 15.724,-0.975 -2.355,-2.59 -1.037,-6.9 3.17,-6.461 -1.941,-7.139 -5.797,-12.832 -10.728,-17.064 m -29.619,-8.655 c -7.174,1.073 -13.523,4.389 -18.041,8.411 -4.962,4.416 -8.882,10.298 -10.849,17.431 4.162,-0.965 6.11,3.461 3.536,6.338 3.618,3.375 12.025,4 16.212,0.609 2.057,-1.666 3.632,-4.599 3.9,-7.556 0.102,-1.131 -0.122,-2.344 -0.122,-3.535 0,-3.397 0.188,-6.952 0.61,-10.241 0.649,-5.066 1.784,-9.668 6.094,-11.457 -0.377,-0.363 -0.947,-0.058 -1.34,0 M 6.339,2.438 C 5.535,14.91 0.108,24.039 -6.947,30.596 -13.816,36.977 -24.138,42.236 -37.543,41.443 -50.23,40.693 -59.106,35.01 -65.457,28.035 -71.72,21.158 -77.185,11.098 -76.306,-2.561 c 0.783,-12.15 6.651,-21.648 13.53,-27.914 6.937,-6.316 17.654,-11.425 30.108,-10.603 12.398,0.816 21.387,5.933 28.036,13.285 6.298,6.963 11.838,16.758 10.971,30.231"
       style="fill:#ff0000;fill-opacity:1;fill-rule:evenodd;stroke:none"
       transform="matrix(0.75068991,0,0,-0.75068991,181.10775,217.4201)"
       clip-path="url(#clipPath62)" />
    <path
       id="path63"
       d="M 0,0 V 6.947 H -4.754 V -6.705 c 3.117,0 3.17,-1.856 3.17,-1.856 v -12.406 c 2.312,1.426 6.582,4.633 6.582,4.633 V -2.926 C 4.686,-0.881 2.656,0.184 0,0"
       style="fill:#ff0000;fill-opacity:1;fill-rule:evenodd;stroke:none"
       transform="matrix(0.75068991,0,0,-0.75068991,159.42094,202.04703)"
       clip-path="url(#clipPath64)" />
    <path
       id="path65"
       d="m 0,0 h -4.754 v -6.947 c -2.656,0.183 -4.685,-0.881 -4.998,-2.926 v -13.408 c 0,0 4.27,-3.207 6.583,-4.633 v 12.406 c 0,0 0.052,1.856 3.169,1.856 z"
       style="fill:#ff0000;fill-opacity:1;fill-rule:evenodd;stroke:none"
       transform="matrix(0.75068991,0,0,-0.75068991,154.11407,196.83183)"
       clip-path="url(#clipPath66)" />
    <path
       id="path77"
       d="m 0,0 c -0.331,0.074 -0.781,0.039 -1.098,0.174 -0.073,-0.121 -0.271,-0.162 -0.39,-0.256 0.079,-0.184 0.041,-0.256 0.12,-0.373 0.267,0 0.411,0.129 0.638,0.129 0.259,0 0.465,-0.192 0.697,-0.168 0.194,0.019 0.312,0.15 0.535,0.199 C 0.494,-0.254 0.485,-0.211 0.477,-0.17 0.28,-0.148 0.173,-0.039 0,0"
       style="fill:#ff0000;fill-opacity:1;fill-rule:evenodd;stroke:none"
       transform="matrix(0.75068991,0,0,-0.75068991,187.36837,201.27876)"
       clip-path="url(#clipPath78)" />
    <path
       id="path79"
       d="M 0,0 C 0.055,-0.027 0.105,-0.115 0.162,-0.143 0.702,-0.402 0.94,-0.201 0.84,0.438 0.743,0.531 0.618,0.584 0.525,0.684 0.209,1.014 -0.015,1.498 -0.287,1.846 -0.335,1.908 -0.436,1.947 -0.5,2.023 -0.735,2.299 -0.856,2.752 -1.243,2.846 -1.318,2.627 -1.451,2.443 -1.513,2.217 -1.016,1.764 -0.25,1.42 -0.02,0.75 -0.546,1.156 -1.106,1.516 -1.665,1.875 -1.688,1.713 -1.452,1.635 -1.357,1.451 -1.259,1.26 -1.255,1.02 -1.176,0.779 -0.923,0.428 -0.351,0.178 0,0"
       style="fill:#ff0000;fill-opacity:1;fill-rule:evenodd;stroke:none"
       transform="matrix(0.75068991,0,0,-0.75068991,188.928,203.8857)"
       clip-path="url(#clipPath80)" />
    <path
       id="path81"
       d="M 0,0 C 0.116,-0.178 0.133,-0.395 0.24,-0.525 0.904,-1.338 1.468,0.258 0.755,0.641 0.677,0.545 0.766,0.34 0.603,0.301 0.393,0.316 0.355,0.326 0.186,0.393 0.111,0.422 0.009,0.412 -0.044,0.434 -0.345,0.563 -0.623,0.863 -0.878,0.84 -0.728,0.607 -0.271,0.416 0,0"
       style="fill:#ff0000;fill-opacity:1;fill-rule:evenodd;stroke:none"
       transform="matrix(0.75068991,0,0,-0.75068991,189.35101,202.53678)"
       clip-path="url(#clipPath82)" />
    <path
       id="path83"
       d="M 0,0 C 1.443,0.07 2.544,-0.377 3.93,-0.395 4.235,0.031 3.935,0.246 3.604,0.557 3.436,0.715 3.227,0.865 3.075,0.98 3.064,0.988 3.051,0.998 3.04,1.006 2.962,0.982 2.87,1.01 2.842,1.107 2.815,1.115 2.791,1.131 2.773,1.156 2.73,1.168 2.694,1.199 2.676,1.25 2.656,1.264 2.636,1.277 2.614,1.291 2.56,1.297 2.521,1.328 2.499,1.371 2.457,1.402 2.416,1.432 2.377,1.465 H 2.376 C 2.083,1.623 1.99,1.891 1.976,2.209 1.973,2.264 1.994,2.301 2.025,2.324 2.018,2.377 2.01,2.428 2.005,2.479 1.967,2.541 1.895,2.594 1.771,2.633 1.763,2.631 1.757,2.627 1.749,2.625 1.715,2.619 1.683,2.609 1.652,2.6 1.453,2.441 1.255,2.254 1.127,2.031 1.035,1.805 0.997,1.547 1.013,1.324 1.052,1.174 1.132,1.057 1.227,0.957 1.245,0.955 1.264,0.949 1.28,0.934 1.359,0.865 1.446,0.824 1.539,0.777 1.602,0.746 1.669,0.691 1.739,0.678 1.852,0.656 1.841,0.475 1.727,0.498 1.715,0.5 1.707,0.504 1.697,0.508 1.703,0.498 1.71,0.492 1.716,0.482 0.325,0.932 -1.769,0.273 -3.216,0.365 -3.34,0.238 -3.509,0.143 -3.58,-0.02 c -0.002,-0.074 0.085,-0.117 0.132,-0.156 l 0.186,-0.074 c 0.688,0.244 1.041,0.027 1.775,-0.053 0.17,-0.015 0.362,0.035 0.527,0.02 0.183,-0.016 0.347,-0.102 0.511,-0.117 0.493,-0.047 0.906,0.019 1.326,0.004 0.334,-0.01 0.839,-0.17 1.012,0.029 C 1.313,-0.162 0.591,-0.182 0,0"
       style="fill:#ff0000;fill-opacity:1;fill-rule:evenodd;stroke:none"
       transform="matrix(0.75068991,0,0,-0.75068991,185.67459,200.62778)"
       clip-path="url(#clipPath84)" />
    <path
       id="path85"
       d="M 0,0 C 0.256,0.307 0.517,-0.275 0.605,-0.586 0.361,-0.455 0.208,-0.186 0,0 m -1.083,-4.246 0.022,0.012 c 0.02,0.076 0.091,0.117 0.165,0.123 0.005,0.006 0.014,0.007 0.02,0.013 0.01,0.059 0.052,0.096 0.103,0.116 0.018,0.021 0.042,0.037 0.068,0.046 0.019,0.03 0.047,0.047 0.078,0.061 0.013,0.02 0.029,0.033 0.049,0.047 0.007,0.008 0.014,0.014 0.021,0.019 l 0.064,0.116 c 0.021,0.021 0.046,0.027 0.069,0.023 0.006,0.006 0.011,0.012 0.018,0.018 -0.003,0.002 -0.007,0.002 -0.011,0.004 0.024,0.015 0.049,0.029 0.073,0.043 0.014,0.009 0.031,0.019 0.047,0.029 0.012,0.043 0.055,0.064 0.096,0.062 0.035,0.02 0.069,0.039 0.103,0.061 0.003,0 0.006,0.002 0.007,0.004 0.083,0.078 0.174,0.148 0.27,0.211 0.095,0.099 0.192,0.195 0.309,0.258 0.01,0.005 0.02,0.011 0.029,0.015 0.013,0.018 0.029,0.033 0.051,0.047 0.041,0.025 0.081,0.053 0.121,0.08 0.012,0.014 0.028,0.024 0.046,0.029 0.002,0.002 0.004,0.002 0.005,0.004 0.008,0.016 0.018,0.03 0.032,0.037 0.01,0.016 0.024,0.028 0.041,0.036 0.009,0.035 0.041,0.058 0.077,0.062 0.011,0.012 0.025,0.022 0.04,0.024 -0.001,10e-4 -0.002,0.003 -0.002,0.005 -0.011,0.057 0.027,0.09 0.071,0.1 0.004,0.027 0.022,0.045 0.043,0.057 0.002,0.011 0.01,0.019 0.016,0.029 0.004,0.039 0.036,0.064 0.072,0.07 0.007,0.033 0.035,0.055 0.066,0.063 l 0.001,0.002 c 0.006,0.017 0.017,0.029 0.031,0.039 0.008,0.017 0.021,0.027 0.036,0.035 0.006,0.014 0.016,0.023 0.027,0.033 0.008,0.016 0.02,0.027 0.036,0.037 0.005,0.01 0.012,0.022 0.023,0.03 10e-4,0.003 0.003,0.007 0.005,0.011 l -0.018,0.012 c 0.005,0.01 0.005,0.019 0.008,0.029 -0.002,0 -0.006,0.002 -0.008,0.002 C 1.283,-2.143 1.203,-2.152 1.145,-2.197 1.124,-2.213 1.106,-2.225 1.088,-2.24 1.074,-2.26 1.054,-2.279 1.029,-2.295 0.989,-2.318 0.953,-2.342 0.918,-2.363 0.903,-2.389 0.876,-2.404 0.848,-2.406 0.819,-2.424 0.789,-2.439 0.756,-2.451 0.744,-2.479 0.719,-2.494 0.691,-2.5 0.681,-2.537 0.646,-2.559 0.608,-2.563 0.6,-2.572 0.589,-2.578 0.578,-2.584 0.56,-2.598 0.541,-2.611 0.523,-2.625 0.479,-2.664 0.431,-2.674 0.385,-2.666 0.372,-2.672 0.355,-2.674 0.341,-2.672 0.335,-2.68 0.327,-2.686 0.319,-2.689 0.31,-2.746 0.25,-2.773 0.201,-2.756 0.191,-2.764 0.182,-2.77 0.172,-2.775 0.16,-2.809 0.134,-2.83 0.093,-2.828 0.081,-2.836 0.07,-2.844 0.059,-2.85 0.054,-2.857 0.048,-2.863 0.045,-2.871 0.022,-2.916 -0.021,-2.92 -0.055,-2.904 -0.079,-2.916 -0.099,-2.93 -0.121,-2.943 -0.135,-2.955 -0.151,-2.967 -0.169,-2.979 -0.177,-2.982 -0.185,-2.984 -0.192,-2.986 -0.199,-2.992 -0.209,-2.998 -0.219,-3 -0.256,-3.023 -0.292,-3.045 -0.333,-3.064 -0.34,-3.068 -0.348,-3.068 -0.355,-3.072 -0.362,-3.113 -0.4,-3.137 -0.439,-3.141 c 0,0 0,0 0,-0.002 -0.001,-0.005 -0.003,-0.011 -0.003,-0.015 -0.08,-0.053 -0.162,-0.102 -0.251,-0.145 -0.005,-0.01 -0.013,-0.017 -0.021,-0.023 -0.001,-0.006 -0.002,-0.012 -0.003,-0.016 -0.006,0 -0.011,0.002 -0.016,0.004 -0.004,-0.002 -0.009,-0.004 -0.013,-0.004 -0.28,-0.207 -0.827,-0.654 -1.18,-0.457 0.014,0.004 0.029,0.008 0.043,0.012 -0.022,0.023 -0.031,0.058 -0.024,0.09 -0.002,0.021 0.004,0.041 0.014,0.06 -0.007,0.008 -0.014,0.016 -0.019,0.028 -0.013,0.035 -0.019,0.06 -0.02,0.097 0,0.008 0.002,0.014 0.004,0.022 -0.108,0.246 -0.162,0.541 -0.419,0.668 0.029,0.006 0.057,0.013 0.079,0.025 -0.002,0.008 -0.006,0.016 -0.007,0.026 -0.01,0.013 -0.017,0.029 -0.024,0.046 -0.01,0.028 -0.006,0.053 0.004,0.075 -0.204,0.22 -0.198,0.392 -0.38,0.701 -0.018,0.011 -0.033,0.029 -0.038,0.056 -10e-4,0.004 0,0.006 -10e-4,0.01 l -10e-4,0.002 c 10e-4,0 10e-4,0 0.002,0.002 -0.003,0.033 0.011,0.059 0.034,0.074 -0.008,0.037 -0.014,0.075 -0.015,0.114 0,0.033 0.014,0.054 0.034,0.066 0.078,0.17 0.335,0.25 0.546,0.266 0.323,0.021 0.926,-0.366 1.412,0.021 0.081,0.168 0.197,0.313 0.254,0.494 0.322,-0.267 1.316,-0.394 1.104,0.225 C 0.798,-0.762 0.897,-0.898 1.1,-0.84 1.685,-0.67 1.075,0.258 0.678,0.359 0.575,0.305 0.564,0.189 0.458,0.137 0.058,0.297 -0.455,0.369 -0.748,-0.02 -2.021,0.629 -3.356,1.188 -4.504,2.025 l -0.12,0.041 c -0.061,0.213 -0.34,0.039 -0.484,-0.009 0.087,-0.211 0.071,-0.272 0.103,-0.51 0.692,-0.219 1.167,-0.746 1.763,-1.057 0.326,-0.17 0.68,-0.252 1.013,-0.414 0.33,-0.158 0.638,-0.394 1.023,-0.455 0.183,-0.205 0.472,-0.25 0.664,-0.439 -1.029,-0.27 -2.287,0.414 -2.94,-0.555 0.073,-1.121 0.879,-1.969 1.2,-3.074 0.179,-0.061 0.349,-0.139 0.494,-0.252 0.33,0.088 0.349,0.381 0.705,0.453"
       style="fill:#ff0000;fill-opacity:1;fill-rule:evenodd;stroke:none"
       transform="matrix(0.75068991,0,0,-0.75068991,186.56122,202.37252)"
       clip-path="url(#clipPath86)" />
  </g>
</svg>
