<?xml version="1.0" encoding="UTF-8" standalone="no"?>
<svg
   width="237.11081pt"
   height="237.11081pt"
   viewBox="0 0 274.74744 274.74744"
   version="1.1"
   id="svg16"
   xmlns="http://www.w3.org/2000/svg"
   xmlns:svg="http://www.w3.org/2000/svg">
  <defs
     id="defs16" />
  <style
     type="text/css"
     id="style1">
	.st0{fill-rule:evenodd;clip-rule:evenodd;fill:#C30D23;}
</style>
  <g
     id="g1"
     transform="matrix(1.8922,0,0,1.8922,-0.75688,-0.75688)">
    <path
       class="st0"
       d="m 74.5,50.8 c 0,0.3 0,0.6 0,0.9 v 9.8 14.5 10.7 4.5 h 8.9 v -2.8 c 10.4,-0.5 18.8,-9.1 18.8,-19.6 0,-9.6 -7,-17.7 -16.1,-19.3 v 9.1 c 4.2,1.4 7.3,5.5 7.3,10.2 0,5.6 -4.4,10.3 -9.9,10.7 V 58 51.7 c 0,-1 0.2,-1.8 0.6,-2.5 1.3,-2.3 4.1,-2.8 5.3,-2.8 v -8.9 c -7.2,0 -14.4,4.9 -14.9,13.3 z m -3,0 c 0,0.3 0,0.6 0,0.9 V 61.5 76 86.7 91.2 H 62.6 V 88.4 C 52.2,87.9 43.8,79.3 43.8,68.8 c 0,-9.6 7,-17.7 16.1,-19.3 v 9.1 c -4.2,1.4 -7.3,5.5 -7.3,10.2 0,5.6 4.4,10.3 9.9,10.7 V 58 51.7 c 0,-1 -0.2,-1.8 -0.6,-2.5 -1.3,-2.3 -4.1,-2.8 -5.3,-2.8 v -8.9 c 7.2,0 14.4,4.9 14.9,13.3 z M 98.7,95 v 0.2 c -2.2,0.5 -2.2,4.3 0,4.8 v 0.2 H 76.1 c -0.8,0 -1.7,-1.3 -1.7,-2.7 0,-1.3 0.9,-2.5 1.7,-2.5 z m -51.4,0 v 0.2 c 2.2,0.5 2.2,4.3 0,4.8 v 0.2 h 22.6 c 0.8,0 1.7,-1.3 1.7,-2.7 0,-1.3 -0.9,-2.5 -1.7,-2.5 z m -3.1,9.1 h 57.3 v 5 H 44.2 Z m 66.5,25 h 0.2 0.1 l 0.1,-0.7 0.1,-0.7 V 127 l 0.1,-0.7 v -0.7 -0.7 l -0.1,-0.7 -0.1,-0.7 0.8,-0.9 h 0.1 0.2 l 0.2,0.1 0.1,0.3 -0.1,0.1 -0.1,0.1 -0.2,0.3 -0.1,0.1 v 0.2 l 0.1,0.1 h 0.2 l 0.2,-0.1 0.1,-0.1 0.2,-0.2 0.1,-0.2 0.2,-0.1 0.4,-0.3 0.1,-0.2 0.1,-0.2 v -0.2 l -0.1,-0.2 h -0.1 l -0.1,-0.1 -0.3,-0.1 -0.2,-0.1 h -0.3 -0.1 l -0.3,0.1 -1.3,0.5 -0.1,-0.1 2.3,-2 1.3,-0.9 v -0.2 l -0.1,-0.1 V 119 l -0.1,-0.3 -0.1,-0.3 h -0.1 -0.1 -0.1 -0.1 l -0.2,0.1 -0.2,-0.1 0.8,-1.1 1.5,-2.2 0.2,-0.1 0.2,-0.2 0.1,-0.2 0.2,-0.1 0.3,-0.3 v -0.3 l 0.1,-0.2 v -0.2 l 0.1,-0.3 v -0.2 -0.2 h -0.3 l -0.2,-0.1 -0.2,-0.1 -0.1,-0.1 h -0.2 l -0.2,-0.1 h -0.2 l -1.6,0.9 -0.1,0.1 -0.1,0.2 -1.1,0.9 -0.3,0.2 h -0.3 -0.3 l -0.2,-0.1 -0.3,-0.1 -0.2,-0.1 -0.2,-0.1 -0.1,-0.1 0.7,-1.3 0.2,-0.1 0.2,-0.2 0.1,-0.3 0.2,-0.3 0.1,-0.2 0.1,-0.3 0.2,-0.2 0.3,-0.2 0.1,-0.1 0.1,-0.1 0.1,-0.3 v -0.2 l -0.1,-0.2 0.1,-0.2 -0.2,-0.1 -0.1,-0.2 -0.1,-0.2 -0.1,-0.2 h -0.3 l -0.2,-0.1 h -0.1 -0.1 l -0.2,0.3 v 0.3 0.2 0.3 l 0.1,0.2 -0.1,0.2 v 0.2 0.3 0.2 l -1.4,2.4 -0.2,0.2 -0.1,0.2 -0.2,0.1 h -0.1 l -0.2,0.1 h -0.2 l -0.2,0.1 h -0.2 l -0.3,0.1 -0.1,0.1 v 0.1 0.2 l 0.2,0.1 h 0.2 l 0.3,-0.1 h 0.2 l -0.1,0.2 v 0.2 l -0.1,0.2 -0.1,0.1 h -0.1 -0.1 l -0.2,-0.2 -0.1,-0.2 -0.1,-0.1 -0.1,-0.2 H 108 v -0.2 -0.1 -0.2 l -0.1,-0.1 v -0.1 l -0.1,-0.1 -0.2,-0.2 -0.2,-0.2 -0.2,-0.1 -0.3,-0.1 h -0.4 l -0.1,0.2 v 0.1 l 0.1,0.2 0.2,0.2 0.1,0.2 0.1,0.2 v 0.2 l 1,1.7 0.5,1.3 -0.1,0.1 -0.2,0.1 H 108 l -1.1,-1.2 h -0.2 -0.2 -0.1 -0.1 l -0.1,0.1 0.2,0.3 0.2,0.3 0.2,0.3 0.2,0.3 0.2,0.4 0.1,0.3 0.1,0.4 0.1,0.3 h 0.1 0.1 l 0.1,-0.1 0.2,-0.1 v -0.1 -0.2 -0.2 l 0.1,-0.2 0.2,-0.2 0.3,-0.2 0.2,-0.2 0.3,-0.2 0.2,-0.1 0.3,-0.2 0.3,-0.1 0.3,-0.1 0.1,0.1 0.1,0.3 -0.1,0.2 -0.2,0.2 -0.1,0.3 -0.1,0.2 -0.1,0.2 v 0.2 l 0.3,0.1 1.1,-1.4 h 0.2 0.2 0.2 0.2 l -0.6,1 0.2,0.1 0.1,-0.1 1.3,-1.4 v -0.2 l 0.1,-0.2 0.1,-0.2 0.1,-0.2 v -0.1 -0.2 l -0.1,-0.2 -0.1,-0.2 H 113 l -0.1,-0.1 v -0.2 l 0.8,-0.6 0.3,-0.1 0.2,-0.1 0.2,-0.2 0.2,-0.1 h 0.1 l 0.2,-0.1 h 0.2 0.3 v 0.1 l 0.1,0.1 -0.5,1.1 -0.3,0.4 -0.3,0.4 -0.3,0.5 -0.2,0.4 -0.3,0.5 -0.3,0.4 -0.3,0.4 -0.3,0.3 -4.1,2 -0.1,0.3 v 0.2 h 0.1 l 4,-1.6 v 0.2 l -0.1,0.2 -1,1.4 -0.1,0.1 h -0.1 l -0.9,1 v 0.2 0.2 0.2 0.1 l -0.2,0.1 -0.3,0.2 -0.2,0.2 -0.2,0.2 -0.1,0.2 -0.2,0.1 -0.2,0.1 -0.1,0.1 -0.2,0.2 -0.1,0.1 h -0.2 -0.2 l -0.1,0.1 -0.1,0.1 -2.3,0.7 -0.1,0.3 0.2,0.1 0.2,0.1 h 0.1 0.1 0.1 l 0.2,0.1 h 0.3 0.2 l 0.2,-0.1 0.2,-0.1 0.2,-0.1 0.2,-0.1 0.2,-0.1 0.3,-0.1 0.4,-0.2 0.3,-0.2 0.4,-0.2 0.3,-0.2 0.3,-0.2 0.3,-0.1 0.3,-0.2 v 0.4 0.4 0.5 0.4 0.4 0.4 0.4 0.4 l -0.3,0.3 -0.3,0.1 h -0.3 -0.3 -0.4 -0.3 -0.3 l -0.2,0.1 v 0.2 0.1 l 0.3,0.1 h 0.2 0.2 0.2 0.2 z m -78,-0.8 1.8,-3.4 1.3,-2.2 1,-1.8 c 0.1,0 0.1,0 0.1,0 0,-0.1 0,-0.1 0.1,-0.2 0,-0.1 0.1,-0.2 0.1,-0.2 0.1,-0.1 0.2,-0.1 0.2,-0.1 0.1,0.1 0.1,0.1 0.1,0.1 0.1,0 0.1,0 0.1,0.1 0.1,0.1 0.2,0.2 0.3,0.2 0.1,0.1 0.1,0.2 0.2,0.2 l 0.2,0.1 c 0.3,0.1 0.4,0.1 0.6,0 0.5,-0.3 1.1,-0.7 1.6,-1 l -0.3,0.4 c -0.1,0.1 -0.2,0.3 -0.3,0.4 -0.1,0.1 -0.1,0.3 -0.3,0.4 0,0.1 -0.1,0.3 -0.2,0.4 0,0.1 -0.1,0.3 -0.1,0.5 0,0.3 0,0.6 0,0.9 l 0.1,0.5 c 0,0 0,0.1 0,0.1 0,0 0,0.1 0,0.2 l 0.1,0.2 0.2,0.2 0.3,0.1 v 0.2 0.2 l -0.1,0.1 -0.1,0.1 -2.4,1.5 -0.1,0.3 0.1,0.2 0.2,0.2 0.1,0.1 0.1,0.1 h 0.3 0.1 l 0.3,-0.3 0.4,-0.2 0.3,-0.2 0.3,-0.3 0.3,-0.2 0.3,-0.3 0.3,-0.3 0.3,-0.3 -1.1,0.6 -0.1,0.1 -0.3,0.2 -0.3,0.1 h -0.1 -0.3 v -0.2 l 0.1,-0.2 1.1,-0.7 0.2,-0.1 0.8,-0.6 1.9,-1.4 -0.2,-0.1 -0.1,-0.1 -0.1,-0.5 0.1,-0.3 0.2,-0.2 0.3,-0.2 0.3,-0.2 0.3,-0.1 0.3,-0.2 0.1,-0.3 -0.2,-0.1 -0.2,-0.1 v -0.3 l 1.2,-0.5 0.1,0.2 -1.6,3.5 1.6,-1.8 0.1,-0.1 0.1,-0.2 0.1,-0.2 0.1,-0.2 0.1,-0.2 0.1,-0.2 0.1,-0.1 0.3,-0.2 0.1,-0.2 -0.1,-0.1 -0.1,-0.2 -0.1,-0.2 -0.1,-0.1 -2.3,0.4 v -0.1 -0.1 -0.1 -0.2 l -0.2,-0.3 -0.1,-0.1 -0.1,-0.1 0.1,-0.1 1.1,-0.4 0.2,-0.1 0.2,-0.1 h 0.2 l 0.3,-0.1 2.1,-1 h -0.1 l -0.1,-0.1 -0.1,-0.1 h -0.1 l -1.9,0.6 -0.9,0.3 0.6,-1.3 0.9,-1.2 h 0.2 l 0.2,-0.1 0.2,-0.2 -0.1,-0.2 -0.3,-0.2 -0.1,-0.1 H 45 l -0.1,-0.1 -0.2,-0.1 -0.6,1.3 -0.3,0.2 -0.3,0.1 H 43 l -0.3,0.1 -0.3,0.1 -0.3,0.1 -0.3,0.1 h -0.3 l -0.1,-0.2 0.1,-0.2 0.1,-0.2 v -0.2 l -0.2,-0.1 h -0.2 l -0.1,-0.1 -0.2,0.2 v 1 0.3 l -2,1.2 h -0.2 -0.1 l 0.5,-0.7 0.5,-0.7 0.4,-0.7 0.5,-0.7 0.5,-0.6 0.6,-0.6 0.6,-0.5 0.8,-0.3 0.1,-0.1 0.1,-0.1 0.1,-0.1 0.1,-0.1 -0.1,-0.1 v -0.1 -0.2 -0.1 -0.1 h -0.1 l -0.1,-0.1 H 43 42.8 l -0.6,0.2 -0.5,0.2 -0.5,0.2 -0.4,0.1 -0.5,0.2 -0.5,0.1 -0.5,0.1 h -0.5 l -1.9,0.5 v 0.3 l 0.1,0.1 h 0.1 0.1 0.2 l 0.1,0.2 h 0.2 0.2 l 0.2,0.1 h 0.2 0.2 l 0.5,-0.3 0.4,-0.2 0.4,-0.3 0.4,-0.2 0.3,-0.2 0.4,-0.2 0.4,-0.1 0.4,-0.1 v 0.1 0.1 l -2.6,3.2 -0.3,0.4 -0.2,0.4 -0.3,0.4 -0.3,0.4 -0.3,0.4 -0.3,0.4 -0.3,0.3 -0.4,0.2 0.1,0.1 v 0.1 c 0,0.4 -0.2,0.7 -0.4,1 -0.1,0.1 -0.1,0.2 -0.1,0.2 -0.1,0.1 -0.1,0.1 -0.2,0.2 -0.1,0.1 -0.1,0.1 -0.2,0.1 l -0.6,0.8 -0.5,0.8 -0.5,0.8 -0.5,0.7 -0.5,0.8 -0.5,0.7 -0.5,0.7 -0.5,0.7 -0.1,0.2 v 0.3 l 0.1,0.2 0.1,0.2 0.1,0.2 h 0.2 0.1 0.4 z m 45,-0.2 0.2,-0.1 0.2,-0.2 0.2,-0.3 0.2,-0.3 0.1,-0.2 0.1,-0.3 0.2,-0.3 0.3,-0.2 1,-0.8 h 0.3 l 0.2,0.1 0.2,0.1 0.2,0.1 h 0.3 l 0.2,0.1 h 0.2 l 0.1,0.2 0.1,0.1 h 0.3 l 0.1,-3.5 0.2,-0.1 0.2,-0.1 H 83 l 0.2,-0.1 v -0.2 L 83.1,122 83,121.8 v -0.1 l 0.3,-0.1 v -0.2 -0.2 l -0.1,-0.1 -0.1,-0.1 -0.2,-0.1 v -0.1 l 0.1,-0.2 0.2,-0.1 0.2,-0.1 0.2,-0.1 0.1,-0.3 -0.2,-0.1 -0.1,-0.1 v -0.1 -0.2 l 0.2,-0.2 0.1,-0.1 c 0,-0.1 0.3,-0.3 0.9,-1.2 h -0.2 l -0.3,-0.1 H 84 83.8 83.6 83.5 83 l -1.6,1.1 h -0.1 l -0.1,-0.2 v -0.2 -0.1 -0.2 l 2.7,-1.4 0.3,-0.2 0.4,-0.1 0.4,-0.1 h 0.4 l 0.4,0.1 h 0.4 l 0.4,0.1 0.4,0.1 -0.7,-1 -1.7,0.4 -0.1,-0.1 0.1,-0.6 0.1,-0.6 0.1,-0.6 0.2,-0.6 0.1,-0.6 0.2,-0.6 0.1,-0.6 v -0.7 h -0.3 -0.2 l -0.3,0.1 h -0.2 l -0.1,0.2 v 0.1 0.1 0.3 l 0.1,0.2 0.1,0.1 -0.7,4.3 -1.7,0.8 -0.1,-0.3 v -0.2 -0.3 -0.2 -0.2 l 0.1,-0.1 0.1,-0.2 h 0.1 0.1 0.2 l 1,-2 -0.5,0.6 -0.2,0.1 H 83 l -0.2,-0.2 h -0.1 l -0.1,0.2 v 0.1 0.2 l 0.1,0.1 -0.1,0.2 -0.1,0.3 -0.3,0.2 -0.2,-0.2 v -0.3 -0.3 l 0.1,-0.4 v -0.3 l 0.1,-0.3 -0.1,-0.3 -0.1,-0.3 -0.1,-0.1 -0.3,-0.2 -0.1,-0.1 h -0.1 l -0.2,-0.1 -0.1,1 v 1.4 L 81,115 l -0.2,0.2 -0.3,0.1 -0.3,0.1 h -0.1 -0.2 -0.1 l -0.2,-0.1 -0.1,-0.2 -0.2,0.1 v 0.3 l 0.1,0.1 v 0.2 l 0.1,0.3 0.2,0.2 h 0.2 0.1 l 0.2,-0.1 0.2,-0.1 0.2,-0.1 0.3,-0.3 h 0.2 v 0.2 0.1 0.3 0.2 h 0.1 l 0.2,0.1 0.1,0.1 0.1,0.1 -2.2,1.1 -0.3,0.1 -0.3,0.1 -0.3,0.1 h -0.3 l -0.3,0.1 H 78 77.7 77.4 l -0.3,0.1 H 77 76.8 76.6 76.4 76.2 76 l -0.1,0.2 v 0.2 l 0.2,0.1 0.2,0.2 0.2,0.1 0.3,0.1 0.2,0.1 0.3,0.1 h 0.2 0.3 l 0.3,-0.1 1.3,-0.9 1.1,-0.4 v 0.1 0.1 0.2 l -0.1,0.3 v 0.1 l -0.1,0.3 0.4,0.1 H 81 l 0.3,-0.2 0.3,-0.2 0.2,-0.2 0.3,-0.3 0.2,-0.3 0.3,-0.2 h 0.2 c 0.1,0.1 0.2,0.2 0.3,0.3 v 0.4 0.2 l -0.1,0.2 -0.1,0.1 -0.2,0.2 -0.2,0.1 -0.2,0.1 -0.2,0.1 -0.3,0.3 -0.3,0.2 -0.3,0.1 -0.3,0.1 -0.3,0.2 -0.3,0.2 -0.2,0.2 -0.1,0.2 0.2,-0.1 0.2,-0.1 h 0.1 0.1 0.2 0.2 v 0.2 0.2 l -0.1,0.1 -0.1,0.1 -0.1,0.2 v 0.2 l -1.1,0.9 v 0.2 0.2 l 0.1,0.1 h 0.1 0.2 0.1 0.2 l 0.2,-0.1 0.2,-0.1 0.1,-0.1 v -0.1 l 0.4,-0.1 v 0.3 0.2 l -0.1,0.2 -0.1,0.2 -0.1,0.3 -0.1,0.1 -0.1,0.1 -1.2,0.9 -0.3,0.2 -0.3,0.1 -0.3,0.2 -0.3,0.2 -0.3,0.2 -0.3,0.2 -0.3,0.2 -0.3,0.1 -0.1,0.2 v 0.1 0.2 0.3 l 0.2,0.2 z m -28,-1.3 h 0.2 l 0.2,-0.1 0.2,-0.1 0.1,-0.3 0.3,-0.3 0.3,-0.3 0.3,-0.3 0.3,-0.3 0.3,-0.3 0.2,-0.3 0.2,-0.3 -0.3,-0.2 -0.2,0.3 -0.1,0.2 -0.2,0.2 -0.2,0.2 -0.2,0.2 -0.2,0.1 -0.2,0.1 -0.2,0.1 -0.2,0.1 -0.2,0.1 -0.2,0.1 h -0.2 l -0.2,0.1 h -0.2 l -0.3,-0.1 -0.1,-0.1 -0.1,0.3 v 0.1 l 0.1,0.1 0.2,0.1 0.1,0.2 0.2,0.2 h 0.1 0.2 z m 52.6,-0.2 0.2,-0.1 0.1,-0.1 v -0.3 -0.3 l -0.1,-0.4 -0.2,-0.3 -0.2,-0.4 -0.2,-0.3 -0.2,-0.4 -0.1,-0.4 h -0.2 -0.2 l 0.1,2.6 0.3,0.1 0.2,0.1 0.1,0.1 z m -46.5,-0.3 h 0.1 l 0.1,-0.1 0.1,-0.7 -0.1,-0.7 -0.1,-0.7 -0.1,-0.8 -0.1,-0.7 v -0.7 -0.7 l 0.1,-0.7 0.6,-0.6 0.1,-0.3 0.1,-0.3 v -0.2 -0.1 -0.1 -0.2 h -0.2 v 0.1 l 0.1,0.2 -0.1,0.1 -0.2,0.2 v 0.1 l -0.2,0.2 -0.2,0.1 v -1.3 l 0.9,-0.9 1.1,-0.9 1.2,-1.1 -0.1,-0.2 V 115 l -0.2,-0.2 -0.1,-0.1 h -0.4 -0.3 l -0.3,0.2 -0.3,0.1 -0.3,0.2 -0.2,0.2 -0.3,0.2 -0.3,0.1 h -0.1 v -0.1 -0.2 -0.1 l 0.1,-0.2 1.7,-1.4 h 0.2 0.2 0.2 0.2 l 0.1,-0.1 h -0.1 l -0.2,-0.1 -0.1,-0.1 -1.8,0.7 -0.2,-0.1 0.1,-0.1 v -0.1 -0.2 -0.2 -0.3 l 0.1,-0.3 0.1,-0.2 0.1,-0.3 v -0.3 -0.3 -0.2 -0.3 l -1.1,-0.8 h -0.2 l 0.1,0.6 0.1,0.5 v 0.5 l 0.1,0.5 v 0.6 0.5 l -0.1,0.6 v 0.5 l -2.6,1.1 -1.5,0.6 v 0.1 l 0.1,0.1 0.1,0.1 h 0.1 0.1 0.2 0.3 0.3 0.3 l 0.3,-0.1 0.3,-0.1 0.1,-0.1 0.2,-0.1 0.2,-0.2 0.2,-0.2 1,-0.7 0.1,0.2 v 0.2 0.2 0.1 l -1.1,0.9 1,-0.3 0.1,0.2 v 0.3 l -0.1,0.2 -0.2,0.1 -0.7,0.7 -0.2,0.1 -0.1,0.1 -0.2,0.1 -0.1,0.2 -0.2,0.1 -0.1,0.1 -0.1,0.1 h -0.1 l -0.1,-0.1 0.1,-0.1 v -0.2 -0.2 l -0.1,0.2 v 0.1 l -0.1,0.1 -0.2,0.3 -0.1,0.2 -0.1,0.3 -0.1,0.1 -0.1,0.2 v 0.2 0.2 l 0.1,0.2 0.2,0.1 H 53 l 0.4,-0.3 0.3,-0.4 0.2,-0.3 0.3,-0.4 0.2,-0.3 0.3,-0.4 0.3,-0.3 0.4,-0.3 h 0.2 l 0.1,0.3 0.1,0.2 -0.1,0.2 v 0.2 l -0.2,0.1 -0.1,0.1 v 0.1 0.1 l 0.4,0.1 -0.2,1.7 h -0.1 l -0.1,0.1 -0.2,0.1 -0.1,0.1 -0.2,0.1 v 0.1 l 0.1,0.1 0.1,0.1 0.2,0.1 h 0.1 v 3.6 l -0.1,0.1 H 55.1 55 54.8 54.6 54.4 54.3 54.1 53.9 v 0.1 l 0.3,0.1 0.4,0.1 0.3,0.2 0.4,0.1 0.3,0.2 0.3,0.2 0.3,0.2 z m 36.4,-0.2 1,-0.3 0.1,-0.1 h 0.1 0.2 l 1.2,-0.7 h 0.3 l 0.3,-0.1 0.2,-0.1 0.2,-0.2 0.2,-0.2 0.2,-0.2 0.1,-0.2 0.2,-0.2 0.7,-1.5 0.6,-1.8 0.1,-0.1 0.2,-0.1 0.2,-0.1 h 0.2 l 0.1,-0.1 0.1,-0.1 h 0.2 0.2 l 3.3,-1.5 -0.1,-0.1 -0.3,-0.1 -0.1,-0.1 -0.3,-0.1 -0.2,-0.1 -0.4,0.4 -0.4,0.3 -0.4,0.3 -0.4,0.3 -0.5,0.2 -0.4,0.2 -0.5,0.1 -0.5,0.1 -0.2,-0.1 0.8,-4.5 c 0,-0.2 0,-0.3 0,-0.4 -0.1,-0.3 -0.1,-0.4 -0.3,-0.7 L 98,113.9 97.7,113.6 97.3,113.3 97,113 96.7,112.7 H 97 l -0.1,-0.1 c -0.1,0.1 -0.1,0 -0.2,0 l 0.2,0.4 0.2,0.4 0.1,0.3 0.1,0.3 c 0,0.2 0,0.4 0.1,0.7 0.1,0.6 0.3,0.6 0.2,1.3 v 0.6 0.6 l 0.1,0.6 -0.1,0.6 -0.1,0.6 -0.2,0.6 -0.3,0.5 -2,0.4 -1.7,0.6 -0.6,0.1 -0.5,0.2 -0.6,0.2 -0.5,0.2 -0.6,0.3 -0.6,0.2 -0.6,0.2 -0.6,0.1 1.3,0.9 0.1,0.1 h 0.2 0.3 l 0.3,-0.1 0.2,-0.2 1.2,-0.6 0.6,-0.2 0.5,-0.2 0.6,-0.3 0.6,-0.3 0.5,-0.2 0.5,-0.3 0.6,-0.1 0.5,-0.1 v 0.2 l 0.1,0.2 -0.2,0.6 -0.2,0.6 -0.3,0.6 -0.3,0.4 -0.4,0.5 -0.4,0.4 -0.5,0.4 -0.5,0.3 -0.3,0.2 -0.3,0.1 -0.3,0.1 -0.3,0.1 -0.3,0.2 -0.3,0.1 -0.2,0.1 -0.1,0.2 h 0.3 z m -47.3,-0.2 0.2,-0.1 0.1,-0.1 0.1,-0.1 0.2,-0.1 -0.1,-0.1 v -0.1 l -0.2,-0.3 -0.2,-0.2 -0.2,-0.1 -0.3,-0.2 -0.3,-0.1 -0.3,-0.1 -0.3,-0.1 -0.2,-0.1 -0.2,0.1 0.1,0.3 0.2,0.1 0.1,0.2 0.1,0.2 v 0.2 l 0.1,0.2 v 0.2 l 0.1,0.2 v 0.1 L 44,126 h 0.1 0.8 z m 40.4,-0.4 0.2,-0.1 0.1,-0.1 0.1,-0.2 v -0.1 -0.2 -0.2 l -0.2,-0.2 -0.1,-0.2 -0.2,-0.1 L 85,124 84.7,123.9 H 84.5 84.3 84.1 83.9 84 83.8 l -0.1,0.3 0.2,0.1 0.3,0.1 0.2,0.1 0.3,0.1 0.1,0.2 0.2,0.2 0.2,0.2 z m -4.2,-0.2 h 0.2 l 0.2,-0.1 -0.1,-0.2 v -0.1 -0.2 -0.1 l -0.2,0.1 -0.1,0.2 -0.2,0.1 -0.1,0.2 0.1,0.1 z m -16.6,-0.2 h 0.1 0.2 l 0.2,-0.1 0.2,-0.1 0.2,-0.1 0.1,-0.1 0.1,-0.1 0.2,-0.1 h 0.1 c 0.1,0 0.2,0 0.4,0 0.1,0 0.1,-0.1 0.2,-0.1 h 0.3 l 0.3,-0.1 c 0.1,0 0.1,-0.1 0.2,-0.1 l 0.2,-0.1 c 0.1,-0.1 0.2,-0.1 0.3,-0.1 l 0.2,-0.1 h 0.1 0.1 l 0.2,-0.1 0.1,-0.1 3,-0.9 0.1,-0.1 h 0.1 0.1 v -0.1 -0.2 l -0.1,-0.2 -0.1,-0.2 h -0.3 l -0.3,0.1 -0.3,0.1 -0.3,0.1 -0.3,0.1 -0.3,0.1 h -0.3 l -0.3,-0.1 -0.1,-0.2 1,-1.6 0.3,-0.1 0.3,-0.2 0.2,-0.2 0.3,-0.3 0.2,-0.2 0.3,-0.3 0.2,-0.3 0.3,-0.3 0.1,-0.1 0.2,-0.2 0.2,-0.2 0.1,-0.2 v -0.1 -0.2 -0.2 -0.2 l -0.1,-0.1 -0.1,-0.1 -0.1,-0.1 -0.1,-0.1 -1.5,0.1 -2.8,0.1 H 67.9 67.7 67.5 67.4 67.3 67.1 67 66.8 l -0.1,0.2 -0.1,0.3 0.1,0.2 0.1,0.1 0.2,0.2 0.2,0.1 0.1,0.1 h 0.2 0.5 0.4 0.4 0.3 l 0.4,-0.1 h 0.4 l 0.3,-0.1 0.4,-0.1 0.4,-0.2 h 0.1 0.1 0.3 l 0.3,0.1 0.2,0.1 -0.2,0.3 -0.2,0.3 -0.2,0.3 -0.2,0.2 -0.3,0.3 -0.3,0.3 -0.3,0.2 -0.2,0.3 -0.2,0.1 -0.2,0.1 -0.1,0.2 -0.2,0.2 -1.4,1.2 -0.4,0.4 -0.5,0.3 -0.6,0.3 -0.5,0.1 -0.6,0.2 -0.5,0.1 -0.6,0.1 h -0.5 -0.2 -0.2 l -0.1,0.1 h -0.2 -0.2 -0.2 -0.2 l -0.2,0.1 -0.1,0.1 v 0.1 0.1 l 2.1,1 h 0.2 z m -24.1,-0.9 h 0.2 l 0.3,-0.2 0.2,-0.2 0.1,-0.1 0.1,-0.2 v -0.1 c 0.1,-0.2 0.1,-0.2 0.1,-0.2 0,-0.1 0,-0.2 0,-0.2 v -0.3 c -0.1,0 -0.1,0 -0.1,0 -0.1,0 -0.2,0 -0.2,0 -0.1,0 -0.2,0 -0.2,0.1 h -0.2 c 0,-0.1 0,-0.1 -0.1,-0.2 0.1,-0.1 0.1,-0.1 0.1,-0.2 l 0.1,-0.1 H 41 c 0.2,-0.2 0.2,-0.2 0.3,-0.2 0.1,-0.1 0.1,-0.1 0.2,-0.1 0,-0.1 0,-0.1 0,-0.1 l 0.1,-0.2 0.1,-0.1 0.1,-0.2 -1.1,0.4 c -0.1,0 -0.1,0 -0.1,0 v -0.1 c 0,-0.1 0.1,-0.2 0.1,-0.3 h 0.2 l 0.3,-0.1 0.2,-0.1 0.3,-0.1 0.2,-0.1 0.2,-0.1 0.2,-0.2 0.2,-0.2 v -0.1 l -0.1,-0.3 V 120 l -0.1,-0.2 -0.1,-0.1 -0.3,-0.1 -0.9,1 v 0.3 0.2 l -0.2,0.2 -0.3,0.3 c 0,0 -0.1,0.1 -0.1,0.1 l -0.2,0.1 c 0,0 -0.1,0.1 -0.1,0.1 0,0.1 0,0.3 -0.1,0.4 0,0.1 0,0.2 0,0.3 0,0.1 0,0.2 0,0.3 0,0.1 0,0.2 0,0.3 v 0.3 c 0,0.1 0.1,0.2 0.1,0.3 0,0.1 0.1,0.2 0.1,0.3 l 0.2,0.3 z m 18,-0.6 0.1,-0.2 0.2,-0.1 0.3,-0.1 0.2,-0.1 0.2,-0.1 v -0.3 l -0.3,-0.2 -0.3,-0.1 -0.3,-0.1 -0.3,-0.2 -0.3,-0.1 -0.3,-0.1 -0.3,-0.1 -0.3,-0.1 0.1,0.1 0.1,0.1 h 0.1 l 0.2,0.2 0.2,0.3 0.1,0.2 v 0.2 0.3 0.2 z m -19,-3.8 c 0.2,-0.1 0.4,-0.1 0.6,-0.2 l 0.6,-0.3 0.6,-0.3 0.6,-0.4 0.5,-0.4 0.4,-0.5 0.4,-0.5 0.3,-0.6 -1.8,0.8 v 0.2 0.1 0.2 0.1 h -0.3 l -0.1,-0.1 -0.2,-0.1 h -0.1 l -0.2,0.1 -1.8,1 -0.2,0.2 -0.3,0.1 -0.2,0.1 -0.2,0.1 -0.3,0.2 -0.1,0.1 c 0,0.1 -0.1,0.1 -0.1,0.2 0,0.1 0,0.1 0,0.2 0.1,0 0.2,0.1 0.3,0.1 z m 16.6,-2 h 0.1 l 0.2,-0.2 0.2,-0.1 0.2,-0.2 0.1,-0.2 0.3,-0.3 0.2,-0.2 0.3,-0.3 0.1,-0.2 0.2,-0.3 0.1,-0.3 0.1,-0.3 -0.2,-0.1 -1.9,1.2 -0.2,1.7 H 56 Z m 52.9,-0.6 0.2,-0.1 0.2,-0.2 0.1,-0.1 -0.1,-0.1 -0.1,-0.1 -0.1,-0.1 -0.2,-0.1 -0.1,0.1 v 0.1 0.2 0.2 0.2 z m 3,0 0.2,-0.3 v -0.1 -0.2 -0.2 -0.2 l -0.1,-0.1 v -0.2 l -0.3,-0.1 h -0.3 v 0.1 0.2 0.3 0.2 0.2 l 0.1,0.1 0.1,0.1 z m -1.6,-1 h 0.1 l 0.2,-0.1 0.2,-0.1 v -0.2 l -0.1,-0.1 -0.1,-0.2 -0.1,-0.1 -0.1,-0.1 h -0.1 -0.2 l -0.1,0.1 -0.1,0.1 -0.1,0.1 v 0.2 l 0.1,0.1 0.2,0.1 0.2,0.1 z m -54,-1.5 h 0.2 l 0.1,-0.1 0.3,-0.2 0.2,-0.3 0.2,-0.3 -1,0.4 v 0.1 0.2 z m 53,-0.4 m -69,-2.3 h 0.3 0.4 0.3 0.3 0.3 l 0.3,-0.1 0.2,-0.3 v -0.2 l -0.1,-0.2 -0.1,-0.2 -0.1,-0.2 -0.4,-0.2 -0.4,-0.3 -0.4,-0.2 -0.4,-0.2 -0.4,-0.1 -0.4,-0.1 h -0.4 -0.4 l -0.1,0.2 v 0.1 l 1,0.7 v 0.2 0.1 l 0.1,0.1 0.2,0.1 v 0.2 l -0.1,0.2 v 0.1 0.1 h 0.3 z m -8.1,-11.6 1.2,-0.9 0.9,1.3 c 0.3,0.4 0.4,0.9 0.3,1.2 -0.1,0.4 -0.5,0.7 -1.1,1.1 -0.6,0.4 -1.1,0.6 -1.5,0.6 -0.4,0 -0.8,-0.2 -1.1,-0.7 l -1.6,-2.4 -0.9,0.6 1.6,2.4 c 0.6,0.9 1.2,1.3 2,1.4 0.7,0.1 1.5,-0.1 2.4,-0.8 0.5,-0.3 0.9,-0.7 1.1,-1 0.3,-0.4 0.4,-0.8 0.4,-1.2 0,-0.3 0,-0.6 -0.1,-0.9 -0.1,-0.3 -0.3,-0.7 -0.6,-1.1 l -1.6,-2.4 -3.1,2.1 1.8,2.6 0.9,-0.6 z M 27.3,99.7 30.7,98 c 0.4,-0.2 0.7,-0.4 0.9,-0.6 0.2,-0.2 0.4,-0.4 0.4,-0.5 0.1,-0.4 0.2,-0.8 0.1,-1.2 0,-0.4 -0.2,-0.9 -0.5,-1.4 -0.3,-0.5 -0.5,-0.9 -0.8,-1.1 -0.3,-0.3 -0.7,-0.5 -1,-0.6 -0.2,-0.1 -0.4,0 -0.7,0 -0.3,0 -0.6,0.2 -1,0.4 l -3.4,1.7 0.6,1.2 3.4,-1.7 c 0.5,-0.3 1,-0.4 1.3,-0.3 0.3,0.1 0.6,0.3 0.8,0.8 0.2,0.4 0.3,0.8 0.2,1.1 -0.1,0.3 -0.4,0.6 -1,0.9 l -3.4,1.7 z m -2.8,-9.5 2.6,0.1 -0.6,-1.8 z m 5.8,1.5 -0.4,-1.3 h -1.6 l -0.9,-2.6 1.2,-1 -0.5,-1.4 -5.1,4.5 0.4,1.4 z M 27.9,84.9 27.7,83.6 23,84.5 27.3,81 27,79.5 l -6.2,1.1 0.3,1.3 4.5,-0.8 -4.1,3.3 0.3,1.7 z M 23.9,74 h 1.5 v 1.5 c 0,0.5 -0.2,0.9 -0.4,1.1 -0.3,0.3 -0.8,0.4 -1.5,0.4 -0.7,0 -1.3,-0.1 -1.6,-0.3 -0.3,-0.3 -0.5,-0.6 -0.6,-1.1 v -2.8 h -1.1 v 2.9 c 0,1 0.3,1.7 0.8,2.2 0.5,0.5 1.4,0.7 2.5,0.7 0.6,0 1.1,-0.1 1.5,-0.3 0.4,-0.1 0.7,-0.4 1,-0.7 0.2,-0.2 0.3,-0.5 0.4,-0.8 0.1,-0.3 0.1,-0.7 0.1,-1.2 l -0.1,-2.9 -3.8,0.1 0.1,3.1 h 1.1 z m -2.3,-5.7 -0.1,1.5 4.1,0.3 0.1,-1.5 c 0,-0.6 -0.1,-1 -0.4,-1.2 C 25,67.1 24.5,67 23.7,67 c -0.8,-0.1 -1.3,0 -1.6,0.2 -0.3,0.1 -0.4,0.6 -0.5,1.1 z m 5,3.3 0.2,-2.9 c 0,-0.5 0,-0.9 0,-1.2 -0.1,-0.3 -0.2,-0.6 -0.4,-0.8 -0.3,-0.4 -0.6,-0.6 -1,-0.8 -0.4,-0.2 -0.9,-0.3 -1.5,-0.3 -1.1,-0.1 -2,0.1 -2.5,0.5 -0.6,0.4 -0.9,1.1 -1,2.2 l -0.2,2.9 z m 0.2,-7.4 c 0.6,-0.4 1.1,-1.1 1.3,-2.1 0.2,-1 0.1,-1.9 -0.3,-2.5 -0.4,-0.6 -1.2,-1.1 -2.3,-1.3 -1.1,-0.3 -2,-0.2 -2.6,0.2 -0.6,0.4 -1.1,1.1 -1.3,2.1 -0.2,1 -0.1,1.8 0.3,2.5 0.4,0.6 1.1,1.1 2.2,1.3 1.1,0.2 2,0.2 2.7,-0.2 z m -4.1,-3.4 c -0.1,0.6 0,1 0.2,1.4 0.3,0.4 0.8,0.6 1.5,0.8 0.7,0.2 1.3,0.2 1.7,0 0.4,-0.2 0.7,-0.6 0.9,-1.1 0.1,-0.6 0,-1 -0.3,-1.4 -0.3,-0.4 -0.8,-0.6 -1.5,-0.8 -0.7,-0.2 -1.3,-0.2 -1.7,0 -0.4,0.2 -0.6,0.6 -0.8,1.1 z m 6.5,-2.7 0.5,-1.3 -4.5,-1.7 5.5,-0.7 0.6,-1.4 -5.9,-2.4 -0.5,1.3 4.3,1.6 -5.2,0.7 -0.6,1.6 z M 31.7,47 33,47.7 32.2,49 c -0.3,0.4 -0.6,0.7 -1,0.7 -0.4,0 -0.9,-0.1 -1.5,-0.5 -0.7,-0.4 -1,-0.7 -1.2,-1.1 -0.2,-0.4 -0.1,-0.8 0.1,-1.3 l 1.5,-2.4 -0.9,-0.6 -1.5,2.5 c -0.5,0.8 -0.7,1.7 -0.5,2.3 0.2,0.7 0.8,1.3 1.7,1.9 0.5,0.3 1,0.5 1.4,0.6 0.4,0.1 0.8,0 1.3,-0.1 0.3,-0.1 0.6,-0.3 0.8,-0.5 0.2,-0.2 0.5,-0.5 0.7,-1 l 1.5,-2.4 -3.2,-2 -1.6,2.7 1,0.6 z m 3.7,-10.6 2.6,2.8 c 0.3,0.3 0.6,0.6 0.8,0.7 0.2,0.1 0.4,0.3 0.6,0.3 0.4,0 0.8,0 1.2,-0.1 0.4,-0.2 0.8,-0.4 1.2,-0.9 0.4,-0.4 0.7,-0.7 0.9,-1.1 0.2,-0.4 0.3,-0.7 0.3,-1.1 0,-0.2 -0.1,-0.4 -0.2,-0.7 -0.1,-0.2 -0.4,-0.5 -0.7,-0.8 l -2.6,-2.8 -1,0.9 2.6,2.8 c 0.4,0.4 0.6,0.8 0.6,1.1 0,0.3 -0.2,0.6 -0.6,1 -0.4,0.4 -0.7,0.5 -1,0.5 -0.3,0 -0.7,-0.3 -1.1,-0.7 l -2.6,-2.8 z m 9.3,0.1 1.1,-0.8 -2.8,-3.9 5,2.4 1.3,-0.9 -3.7,-5.2 -1.1,0.8 2.7,3.7 -4.7,-2.2 -1.4,1 z m 3.7,-9.8 -1.2,0.7 3.3,5.4 1.2,-0.7 z m 7.3,3.4 -0.3,-6.8 -1.3,0.6 0.2,5.1 -3.7,-3.5 -1.4,0.6 5.2,4.6 z m 6,-7.3 -0.3,-1.1 -2.1,0.6 c -1,0.3 -1.6,0.7 -2,1.4 -0.3,0.7 -0.3,1.5 0,2.6 0.1,0.6 0.4,1 0.6,1.4 0.3,0.3 0.6,0.6 1,0.8 0.3,0.1 0.6,0.2 0.9,0.2 0.3,0 0.7,-0.1 1.1,-0.2 l 2.2,-0.6 -0.3,-1.1 -2.1,0.6 c -0.5,0.1 -0.9,0.1 -1.2,0 -0.3,-0.2 -0.5,-0.5 -0.7,-1 l 3.6,-1 -0.3,-1.1 -3.6,1 c -0.1,-0.5 -0.1,-0.9 0.1,-1.1 0.2,-0.3 0.5,-0.5 1,-0.7 z m 4.9,-0.8 -1.6,0.2 0.2,1.6 1.6,-0.2 c 0.4,-0.1 0.7,-0.2 0.9,-0.3 0.1,-0.1 0.2,-0.3 0.1,-0.6 0,-0.3 -0.1,-0.5 -0.3,-0.6 C 67.3,21.9 67,21.9 66.6,22 Z m -2.2,5.5 1.3,-0.2 -0.3,-2.4 1.6,-0.2 1.7,2.3 1.5,-0.2 -1.9,-2.4 C 68.7,24.3 69,24 69.2,23.7 69.4,23.4 69.4,23 69.3,22.5 69.2,21.9 69,21.4 68.6,21.2 68.2,20.9 67.6,20.9 66.9,21 l -3.3,0.4 z M 76.5,20.6 73,20.5 c -0.8,0 -1.4,0.1 -1.7,0.4 -0.4,0.3 -0.6,0.8 -0.6,1.5 0,0.6 0.1,1.1 0.5,1.4 0.3,0.3 0.9,0.5 1.6,0.5 h 1.5 c 0.4,0 0.6,0 0.7,0.2 0.1,0.1 0.2,0.3 0.2,0.6 0,0.3 -0.1,0.4 -0.3,0.6 -0.1,0.1 -0.4,0.1 -0.8,0.1 l -3.3,-0.1 v 1.1 h 3.6 c 0.7,0 1.3,-0.1 1.7,-0.4 0.4,-0.3 0.6,-0.8 0.6,-1.4 0,-0.6 -0.1,-1.1 -0.4,-1.4 C 76,23.3 75.5,23.2 74.8,23.2 H 73 c -0.3,0 -0.5,-0.1 -0.6,-0.2 -0.1,-0.1 -0.2,-0.3 -0.2,-0.5 0,-0.3 0.1,-0.5 0.3,-0.6 0.2,-0.1 0.4,-0.2 0.8,-0.2 l 3.3,0.1 v -1.2 z m 3.4,0.3 -1.4,-0.2 -0.8,6.3 1.4,0.2 z m 1.9,6.8 1.4,0.3 0.9,-5.1 2,0.3 0.2,-1.1 -5.4,-1 -0.2,1.1 2,0.3 z m 6.2,-1.3 -0.9,2.6 1.3,0.4 0.9,-2.7 3.4,-2.6 -1.4,-0.5 -2.3,1.9 -0.7,-2.8 -1.4,-0.5 z m 9.7,6.7 c 0.1,0.7 0.6,1.4 1.5,2 0.9,0.6 1.7,0.8 2.4,0.7 0.7,-0.1 1.4,-0.7 2,-1.6 0.6,-0.9 0.9,-1.8 0.7,-2.5 -0.1,-0.7 -0.6,-1.4 -1.5,-2 -0.9,-0.6 -1.7,-0.8 -2.4,-0.7 -0.7,0.1 -1.4,0.7 -2,1.6 -0.6,0.9 -0.8,1.7 -0.7,2.5 z m 4.6,-2.6 c -0.5,-0.3 -0.9,-0.4 -1.4,-0.3 -0.4,0.1 -0.8,0.5 -1.3,1.1 -0.4,0.7 -0.6,1.3 -0.5,1.7 0,0.4 0.3,0.8 0.8,1.2 0.5,0.3 0.9,0.4 1.4,0.3 0.4,-0.1 0.8,-0.5 1.3,-1.1 0.4,-0.6 0.6,-1.1 0.6,-1.6 -0.2,-0.6 -0.4,-0.9 -0.9,-1.3 z m 0.2,6.9 1,0.9 1.7,-2 2.9,2.5 0.7,-0.8 -2.8,-2.5 c 0.3,-0.4 0.7,-0.6 1.1,-0.6 0.3,0 0.7,0.2 1.2,0.6 l 1.6,1.4 0.7,-0.8 -1.5,-1.3 c -0.4,-0.4 -0.9,-0.7 -1.3,-0.9 -0.4,-0.2 -0.7,-0.3 -1.1,-0.2 -0.3,0 -0.7,0.1 -1,0.4 -0.3,0.2 -0.7,0.6 -1.3,1.2 z m 9.5,10.5 0.7,1.1 4.4,-2.7 1.1,1.7 0.9,-0.6 -2.9,-4.7 -0.9,0.6 1.1,1.7 z m 9.1,5.6 1,-0.5 -1,-2 c -0.4,-0.9 -1,-1.5 -1.7,-1.7 -0.7,-0.2 -1.6,-0.1 -2.5,0.4 -0.6,0.3 -1,0.6 -1.3,0.8 -0.3,0.3 -0.5,0.7 -0.6,1.1 -0.1,0.3 -0.1,0.6 0,0.9 0,0.3 0.2,0.7 0.4,1.1 l 1,2.1 1,-0.5 -0.9,-2 c -0.2,-0.5 -0.3,-0.9 -0.2,-1.2 0.1,-0.3 0.4,-0.6 0.9,-0.8 l 1.6,3.3 1,-0.4 -1.6,-3.4 c 0.5,-0.2 0.8,-0.2 1.2,-0.1 0.3,0.1 0.6,0.4 0.8,0.8 z m 2.1,6.3 1,-0.3 -0.7,-2.1 c -0.3,-1 -0.8,-1.6 -1.4,-1.9 -0.7,-0.3 -1.5,-0.3 -2.6,0.1 -0.6,0.2 -1,0.4 -1.4,0.7 -0.3,0.3 -0.6,0.6 -0.7,1 -0.2,0.3 -0.2,0.6 -0.2,0.9 0,0.3 0.1,0.7 0.3,1.2 l 0.7,2.1 1,-0.3 -0.7,-2.1 c -0.2,-0.6 -0.2,-1 0,-1.3 0.2,-0.3 0.6,-0.6 1.3,-0.8 0.7,-0.3 1.3,-0.3 1.7,-0.2 0.4,0.1 0.7,0.4 0.9,1 z m 1.6,1.4 -6.2,1.1 0.3,1.3 2.6,-0.4 0.4,2.4 -2.6,0.4 0.2,1.3 6.3,-1.1 -0.3,-1.3 -2.5,0.4 -0.4,-2.4 2.5,-0.4 z m -5,7.5 v 1.4 l 4.8,-0.1 -4.7,2.8 v 1.6 l 6.4,-0.1 v -1.4 l -4.5,0.1 4.5,-2.7 v -1.7 z m 0.5,7.1 c -0.6,0.4 -1,1.2 -1.1,2.3 -0.1,1.1 0,1.9 0.5,2.4 0.5,0.6 1.3,1 2.4,1.1 1.1,0.2 2,0 2.6,-0.4 0.6,-0.4 1,-1.2 1.1,-2.3 0.1,-1 0,-1.8 -0.5,-2.4 -0.4,-0.6 -1.2,-0.9 -2.3,-1.1 -1.2,-0.1 -2,0 -2.7,0.4 z m 4.4,3 c 0.1,-0.6 -0.1,-1 -0.4,-1.3 -0.3,-0.3 -0.9,-0.6 -1.6,-0.6 -0.8,-0.1 -1.3,0 -1.7,0.2 -0.4,0.3 -0.6,0.7 -0.7,1.2 -0.1,0.6 0,1 0.4,1.4 0.3,0.3 0.9,0.5 1.6,0.6 0.7,0.1 1.3,0 1.7,-0.2 0.4,-0.3 0.7,-0.7 0.7,-1.3 z m -6.8,7.6 1,0.2 0.3,-1.5 c 0.1,-0.3 0.2,-0.6 0.3,-0.7 0.1,-0.1 0.3,-0.3 0.4,-0.4 0.1,-0.1 0.2,-0.1 0.4,-0.1 0.2,0 0.4,0 0.8,0.1 l 3.7,0.9 0.3,-1.3 -3.7,-0.9 c -0.5,-0.1 -0.8,-0.2 -1.1,-0.1 -0.3,0 -0.6,0.1 -0.8,0.3 -0.3,0.2 -0.5,0.4 -0.7,0.6 -0.1,0.3 -0.3,0.7 -0.4,1.3 z m 0.5,0.9 c -0.7,0.3 -1.3,0.9 -1.7,1.9 -0.4,1 -0.4,1.8 -0.1,2.5 0.3,0.7 1,1.3 2,1.7 1,0.4 1.9,0.5 2.6,0.2 0.7,-0.3 1.3,-0.9 1.7,-1.9 0.4,-1 0.5,-1.8 0.2,-2.5 -0.3,-0.7 -1,-1.2 -2,-1.6 -1.1,-0.4 -2,-0.6 -2.7,-0.3 z m 3.5,4 c 0.2,-0.5 0.2,-1 0,-1.4 -0.2,-0.4 -0.7,-0.7 -1.4,-1 -0.7,-0.3 -1.3,-0.4 -1.7,-0.3 -0.4,0.1 -0.8,0.4 -1,1 -0.2,0.5 -0.2,1 0,1.4 0.2,0.4 0.7,0.7 1.4,1 0.7,0.3 1.3,0.3 1.7,0.2 0.4,0 0.7,-0.3 1,-0.9 z m -6.4,6.7 -1.3,-0.8 0.8,-1.3 c 0.3,-0.4 0.6,-0.7 1,-0.7 0.4,0 0.9,0.1 1.5,0.5 0.6,0.4 1,0.8 1.2,1.1 0.2,0.4 0.1,0.8 -0.1,1.3 l -1.5,2.4 0.9,0.6 1.5,-2.4 c 0.6,-0.9 0.7,-1.7 0.5,-2.4 -0.2,-0.7 -0.8,-1.3 -1.7,-1.9 -0.5,-0.3 -1,-0.5 -1.4,-0.6 -0.4,-0.1 -0.8,0 -1.3,0.1 -0.3,0.1 -0.6,0.3 -0.8,0.4 -0.2,0.2 -0.4,0.5 -0.7,1 l -1.5,2.4 3.3,1.9 1.6,-2.7 -1,-0.6 z m 2.1,3.7 -0.9,1.2 -2.9,-0.1 1,2.7 -0.9,1.3 -1.4,-4.1 -2.3,-1.6 0.8,-1.1 2.3,1.7 z M 73,128.2 c -2.3,13.3 -27.6,4.1 -42.4,3.1 C 25.1,117.5 8.5,96.3 20.5,90 7.1,92 8.1,65.1 4.4,50.7 15.8,41.2 30.8,19 40.5,28.4 34.5,16.3 60.5,8.8 73,0.8 c 12.5,7.9 38.5,15.4 32.5,27.5 9.6,-9.4 24.7,12.9 36.2,22.4 -3.7,14.4 -2.7,41.3 -16.1,39.4 11.9,6.3 -4.7,27.5 -10.1,41.3 -14.9,0.9 -40.2,10.1 -42.5,-3.2 z M 145.6,73 c 0,40.1 -32.5,72.6 -72.6,72.6 C 32.9,145.6 0.4,113.1 0.4,73 0.4,32.9 32.9,0.4 73,0.4 c 40.1,0 72.6,32.5 72.6,72.6 z"
       id="path1" />
  </g>
  <g
     id="g2"
     transform="matrix(1.8922,0,0,1.8922,-0.75688,-0.75688)" />
  <g
     id="g3"
     transform="matrix(1.8922,0,0,1.8922,-0.75688,-0.75688)" />
  <g
     id="g4"
     transform="matrix(1.8922,0,0,1.8922,-0.75688,-0.75688)" />
  <g
     id="g5"
     transform="matrix(1.8922,0,0,1.8922,-0.75688,-0.75688)" />
  <g
     id="g6"
     transform="matrix(1.8922,0,0,1.8922,-0.75688,-0.75688)" />
  <g
     id="g7"
     transform="matrix(1.8922,0,0,1.8922,-0.75688,-0.75688)" />
  <g
     id="g8"
     transform="matrix(1.8922,0,0,1.8922,-0.75688,-0.75688)" />
  <g
     id="g9"
     transform="matrix(1.8922,0,0,1.8922,-0.75688,-0.75688)" />
  <g
     id="g10"
     transform="matrix(1.8922,0,0,1.8922,-0.75688,-0.75688)" />
  <g
     id="g11"
     transform="matrix(1.8922,0,0,1.8922,-0.75688,-0.75688)" />
  <g
     id="g12"
     transform="matrix(1.8922,0,0,1.8922,-0.75688,-0.75688)" />
  <g
     id="g13"
     transform="matrix(1.8922,0,0,1.8922,-0.75688,-0.75688)" />
  <g
     id="g14"
     transform="matrix(1.8922,0,0,1.8922,-0.75688,-0.75688)" />
  <g
     id="g15"
     transform="matrix(1.8922,0,0,1.8922,-0.75688,-0.75688)" />
  <g
     id="g16"
     transform="matrix(1.8922,0,0,1.8922,-0.75688,-0.75688)" />
</svg>
