<?xml version="1.0" encoding="UTF-8" standalone="no"?>
<!-- Created with Inkscape (http://www.inkscape.org/) -->

<svg
   width="85.511917mm"
   height="85.511917mm"
   viewBox="0 0 85.511917 85.511917"
   version="1.1"
   id="svg1"
   inkscape:version="1.4 (e7c3feb1, 2024-10-09)"
   sodipodi:docname="Shanghai Jian Qiao University Emblem.svg"
   xmlns:inkscape="http://www.inkscape.org/namespaces/inkscape"
   xmlns:sodipodi="http://sodipodi.sourceforge.net/DTD/sodipodi-0.dtd"
   xmlns="http://www.w3.org/2000/svg"
   xmlns:svg="http://www.w3.org/2000/svg">
  <sodipodi:namedview
     id="namedview1"
     pagecolor="#ffffff"
     bordercolor="#000000"
     borderopacity="0.25"
     inkscape:showpageshadow="2"
     inkscape:pageopacity="0.0"
     inkscape:pagecheckerboard="0"
     inkscape:deskcolor="#d1d1d1"
     inkscape:document-units="mm"
     inkscape:zoom="1"
     inkscape:cx="206.5"
     inkscape:cy="286"
     inkscape:current-layer="layer1" />
  <defs
     id="defs1">
    <clipPath
       clipPathUnits="userSpaceOnUse"
       id="clipPath2">
      <path
         d="M 0,1052 H 764.065 V 0 H 0 Z"
         transform="translate(-150.7432,-877.13872)"
         id="path2" />
    </clipPath>
    <clipPath
       clipPathUnits="userSpaceOnUse"
       id="clipPath4">
      <path
         d="M 0,1052 H 764.065 V 0 H 0 Z"
         transform="translate(-142.0957,-857.98732)"
         id="path4" />
    </clipPath>
    <clipPath
       clipPathUnits="userSpaceOnUse"
       id="clipPath6">
      <path
         d="M 0,1052 H 764.065 V 0 H 0 Z"
         transform="translate(-154.7686,-853.05422)"
         id="path6" />
    </clipPath>
    <clipPath
       clipPathUnits="userSpaceOnUse"
       id="clipPath8">
      <path
         d="M 0,1052 H 764.065 V 0 H 0 Z"
         transform="translate(-160.2036,-854.00682)"
         id="path8" />
    </clipPath>
    <clipPath
       clipPathUnits="userSpaceOnUse"
       id="clipPath10">
      <path
         d="M 0,1052 H 764.065 V 0 H 0 Z"
         transform="translate(-141.07281,-849.57912)"
         id="path10" />
    </clipPath>
    <clipPath
       clipPathUnits="userSpaceOnUse"
       id="clipPath12">
      <path
         d="M 0,1052 H 764.065 V 0 H 0 Z"
         transform="translate(-151.72461,-852.32572)"
         id="path12" />
    </clipPath>
    <clipPath
       clipPathUnits="userSpaceOnUse"
       id="clipPath14">
      <path
         d="M 0,1052 H 764.065 V 0 H 0 Z"
         transform="translate(-137.46921,-880.37452)"
         id="path14" />
    </clipPath>
    <clipPath
       clipPathUnits="userSpaceOnUse"
       id="clipPath16">
      <path
         d="M 0,1052 H 764.065 V 0 H 0 Z"
         transform="translate(-138.0327,-878.18412)"
         id="path16" />
    </clipPath>
    <clipPath
       clipPathUnits="userSpaceOnUse"
       id="clipPath18">
      <path
         d="M 0,1052 H 764.065 V 0 H 0 Z"
         transform="translate(-138.51951,-876.97662)"
         id="path18" />
    </clipPath>
    <clipPath
       clipPathUnits="userSpaceOnUse"
       id="clipPath20">
      <path
         d="M 0,1052 H 764.065 V 0 H 0 Z"
         transform="translate(-137.25291,-876.54592)"
         id="path20" />
    </clipPath>
    <clipPath
       clipPathUnits="userSpaceOnUse"
       id="clipPath22">
      <path
         d="M 0,1052 H 764.065 V 0 H 0 Z"
         transform="translate(-175.2529,-859.62742)"
         id="path22" />
    </clipPath>
    <clipPath
       clipPathUnits="userSpaceOnUse"
       id="clipPath24">
      <path
         d="M 0,1052 H 764.065 V 0 H 0 Z"
         transform="translate(-147.1216,-884.61672)"
         id="path24" />
    </clipPath>
    <clipPath
       clipPathUnits="userSpaceOnUse"
       id="clipPath26">
      <path
         d="M 0,1052 H 764.065 V 0 H 0 Z"
         transform="translate(-146.8408,-881.19342)"
         id="path26" />
    </clipPath>
    <clipPath
       clipPathUnits="userSpaceOnUse"
       id="clipPath28">
      <path
         d="M 0,1052 H 764.065 V 0 H 0 Z"
         transform="translate(-146.7603,-885.36332)"
         id="path28" />
    </clipPath>
    <clipPath
       clipPathUnits="userSpaceOnUse"
       id="clipPath30">
      <path
         d="M 0,1052 H 764.065 V 0 H 0 Z"
         transform="translate(-147.16851,-882.18412)"
         id="path30" />
    </clipPath>
    <clipPath
       clipPathUnits="userSpaceOnUse"
       id="clipPath32">
      <path
         d="M 0,1052 H 764.065 V 0 H 0 Z"
         transform="translate(-137.2129,-878.63132)"
         id="path32" />
    </clipPath>
    <clipPath
       clipPathUnits="userSpaceOnUse"
       id="clipPath34">
      <path
         d="M 0,1052 H 764.065 V 0 H 0 Z"
         transform="translate(-172.5547,-849.96482)"
         id="path34" />
    </clipPath>
    <clipPath
       clipPathUnits="userSpaceOnUse"
       id="clipPath36">
      <path
         d="M 0,1052 H 764.065 V 0 H 0 Z"
         transform="translate(-126.99021,-852.72362)"
         id="path36" />
    </clipPath>
    <clipPath
       clipPathUnits="userSpaceOnUse"
       id="clipPath38">
      <path
         d="M 0,1052 H 764.065 V 0 H 0 Z"
         transform="translate(-134.3569,-840.81692)"
         id="path38" />
    </clipPath>
    <clipPath
       clipPathUnits="userSpaceOnUse"
       id="clipPath40">
      <path
         d="M 0,1052 H 764.065 V 0 H 0 Z"
         transform="translate(-143.1216,-835.77782)"
         id="path40" />
    </clipPath>
    <clipPath
       clipPathUnits="userSpaceOnUse"
       id="clipPath42">
      <path
         d="M 0,1052 H 764.065 V 0 H 0 Z"
         transform="translate(-151.8511,-834.40432)"
         id="path42" />
    </clipPath>
    <clipPath
       clipPathUnits="userSpaceOnUse"
       id="clipPath44">
      <path
         d="M 0,1052 H 764.065 V 0 H 0 Z"
         transform="translate(-155.4814,-835.02392)"
         id="path44" />
    </clipPath>
    <clipPath
       clipPathUnits="userSpaceOnUse"
       id="clipPath46">
      <path
         d="M 0,1052 H 764.065 V 0 H 0 Z"
         transform="translate(-159.90141,-835.67142)"
         id="path46" />
    </clipPath>
  </defs>
  <g
     inkscape:label="图层 1"
     inkscape:groupmode="layer"
     id="layer1"
     transform="translate(-21.908032,-143.0872)">
    <path
       id="path1"
       d="m 0,0 c 9.88,0 17.918,-8.038 17.918,-17.918 0,-9.88 -8.038,-17.918 -17.918,-17.918 -9.879,0 -17.917,8.038 -17.917,17.918 C -17.917,-8.038 -9.879,0 0,0 m -0.154,-36.428 c 0.052,-0.001 0.102,-0.008 0.154,-0.008 10.208,0 18.513,8.302 18.518,18.508 0,0.004 10e-4,0.007 10e-4,0.01 C 18.519,-7.707 10.21,0.6 0,0.6 -0.052,0.6 -0.102,0.593 -0.154,0.593 -10.293,0.508 -18.517,-7.759 -18.517,-17.918 c 0,-0.006 0,-0.012 0,-0.018 0.01,-10.15 8.23,-18.408 18.363,-18.492"
       style="fill:#bc1a21;fill-opacity:1;fill-rule:nonzero;stroke:none"
       transform="matrix(1.411111,0,0,-1.411111,64.662296,160.55914)"
       clip-path="url(#clipPath2)" />
    <path
       id="path3"
       d="m 0,0 c 0.37,-0.583 1.161,-1.171 2.173,-1.197 h 7.897 c 0.037,0.003 1.511,0.164 1.943,1.424 0,0 0.625,1.988 0.749,2.416 0.114,0.393 0.491,0.424 0.507,0.425 h 10e-4 0.853 c 1.06,0 1.387,0.926 1.387,0.926 l 1.476,3.774 c 0.321,0.722 0.722,0.627 0.834,0.639 h 0.004 c 0,0 0.187,0.002 0.209,0.002 0.391,0 0.717,0.264 0.817,0.622 0.032,0.07 0.06,0.146 0.081,0.229 0.114,0.412 0.574,0.703 0.765,0.808 0.013,0.003 0.015,0.015 0.012,0.026 l -10e-4,0.001 c -0.003,0.009 -0.011,0.016 -0.022,0.016 l -1.651,0.002 h -10e-4 -1.239 c -0.986,0 -1.482,-1.252 -1.492,-1.279 0,0 -10e-4,-10e-4 -10e-4,-10e-4 L 13.952,6.029 c 0,0 -10e-4,-0.001 -10e-4,-0.002 -0.082,-0.225 -0.383,-0.404 -0.68,-0.4 H 13.268 10.71 c -0.588,0 -0.699,-0.583 -0.705,-0.615 0,-10e-4 -0.001,-0.002 -0.001,-0.003 C 9.985,4.956 9.441,3.424 9.129,2.724 8.811,2.01 8.151,2.002 8.151,2.002 H 5.372 c -0.713,0 -0.771,0.621 -0.745,0.938 0,10e-4 0,0.003 0,0.004 0.006,0.067 0.015,0.12 0.02,0.152 0.347,2.52 2.256,4.863 2.439,5.083 0,0 0.509,0.632 1.491,0.655 l 3.413,0.009 c 0,0 1.6,0.024 1.919,1.484 0.214,0.976 0.936,1.341 1.329,1.451 0.023,0.006 0.018,0.04 -0.006,0.04 H 6.343 c 0,0 -0.126,-10e-4 -0.335,0.002 H 6.007 C 4.774,11.745 3.531,11.006 2.413,9.682 1.511,8.613 0.709,7.178 0.157,5.643 -0.219,4.598 -0.489,3.58 -0.578,2.659 -0.598,2.396 -0.635,1.913 -0.588,1.555 -0.517,1.007 -0.289,0.431 0,0"
       style="fill:#bc1a21;fill-opacity:1;fill-rule:nonzero;stroke:none"
       transform="matrix(1.411111,0,0,-1.411111,52.459712,187.5839)"
       clip-path="url(#clipPath4)" />
    <path
       id="path5"
       d="m 0,0 c 0.326,0.281 0.652,0.505 1.196,0.505 0.543,0 0.87,-0.113 1.141,-0.392 C 2.501,0 2.555,-0.111 2.718,-0.504 H 3.859 C 3.859,-0.224 3.75,0 3.587,0.225 3.479,0.392 3.316,0.617 3.044,0.785 c -1.686,1.065 -4.13,0.28 -4.458,-1.514 -0.815,-3.979 5.328,-4.484 5.273,-1.009 -0.38,0 -0.652,0.057 -1.032,0.057 -0.272,-2.243 -2.664,-1.906 -3.153,-0.505 -0.054,0.056 -0.109,0.336 -0.163,0.841 0,0.224 0.054,0.505 0.109,0.729 C -0.271,-0.392 -0.108,-0.111 0,0"
       style="fill:#bc1a21;fill-opacity:1;fill-rule:nonzero;stroke:none"
       transform="matrix(1.411111,0,0,-1.411111,70.34258,194.54506)"
       clip-path="url(#clipPath6)" />
    <path
       id="path7"
       d="M 0,0 H -1.087 V -4.708 H 0 v 2.187 l 2.717,-0.057 v -2.13 h 0.816 c 0.381,0 0.435,0.28 0.435,0.504 0,1.458 0.054,2.804 0,4.204 C 3.587,0.057 3.152,0 2.717,0 V -1.961 H 0 Z"
       style="fill:#bc1a21;fill-opacity:1;fill-rule:nonzero;stroke:none"
       transform="matrix(1.411111,0,0,-1.411111,78.011972,193.20082)"
       clip-path="url(#clipPath8)" />
    <path
       id="path9"
       d="m 0,0 v -0.336 h 0.652 c 0.217,0 0.38,0.111 0.38,0.504 V 2.186 H -0.381 V 1.514 H 0 c 0,-0.953 -0.761,-1.29 -1.414,-1.29 -0.434,0 -0.815,0.112 -1.195,0.392 -0.163,0.113 -0.272,0.337 -0.38,0.561 -0.055,0.225 -0.163,0.56 -0.163,0.897 -0.055,0.392 0,0.673 0.108,0.897 0.055,0.28 0.218,0.56 0.326,0.673 0.598,0.729 2.555,0.561 2.609,-0.729 H 1.032 C 0.761,5.157 -2.718,4.933 -3.587,4.036 -3.805,3.811 -4.022,3.531 -4.131,3.195 -4.294,2.859 -4.348,2.466 -4.348,2.018 c 0,-0.393 0.108,-0.785 0.217,-1.065 0.163,-0.28 0.381,-0.561 0.652,-0.729 0.598,-0.391 1.25,-0.56 1.957,-0.56 0.435,0 1.195,0.055 1.522,0.336"
       style="fill:#bc1a21;fill-opacity:1;fill-rule:nonzero;stroke:none"
       transform="matrix(1.411111,0,0,-1.411111,51.016292,199.44878)"
       clip-path="url(#clipPath10)" />
    <path
       id="path11"
       d="M 0,0 C 0,-0.561 0,-1.177 0.055,-1.738 H 0 C -0.489,-1.177 -0.923,-0.561 -1.358,0 -1.847,0.561 -2.282,1.121 -2.717,1.681 h -1.25 v -2.354 -1.794 h -0.119 -3.849 v 0.841 0.729 h 3.37 v 0.617 h -3.37 v 0.728 0.673 h 3.642 v 0.617 h -4.783 v -2.411 -2.354 h 4.99 0.119 0.109 0.268 0.765 v 1.737 1.683 h 0.053 c 0.436,-0.561 0.87,-1.122 1.359,-1.683 0.435,-0.616 0.924,-1.177 1.359,-1.737 h 0.816 c 0.053,0 0.38,0.056 0.38,0.448 v 1.906 2.354 L 0,1.681 Z"
       style="fill:#bc1a21;fill-opacity:1;fill-rule:nonzero;stroke:none"
       transform="matrix(1.411111,0,0,-1.411111,66.047164,195.57302)"
       clip-path="url(#clipPath12)" />
    <path
       id="path13"
       d="m 0,0 c 0.007,-0.347 0.029,-1.505 0.257,-1.328 0.058,0.002 0.173,0.062 0.286,0.18 0.115,0.061 0.229,0.178 0.342,0.296 0.057,0.059 0.114,0.119 0.171,0.177 C 1.11,-0.5 0.99,-0.27 0.871,-0.099 0.81,0.074 0.633,0.244 0.514,0.358 0.28,0.469 0.106,0.466 -0.064,0.289 -0.121,0.23 0.055,0.117 0,0"
       style="fill:#bc1a21;fill-opacity:1;fill-rule:nonzero;stroke:none"
       transform="matrix(1.411111,0,0,-1.411111,45.931212,155.99306)"
       clip-path="url(#clipPath14)" />
    <path
       id="path15"
       d="m 0,0 c -0.114,-0.119 -0.113,-0.176 -0.113,-0.176 0.002,-0.058 0.008,-0.406 0.129,-0.635 0.002,-0.116 0.061,-0.172 0.12,-0.23 0.057,10e-4 0.174,0.003 0.232,0.005 0.174,0.003 0.289,0.005 0.404,0.066 0.288,0.063 0.401,0.239 0.399,0.355 C 1.105,-0.211 0.909,0.944 0.682,0.708 0.683,0.65 0.511,0.531 0.34,0.412 0.228,0.236 0.056,0.116 0,0"
       style="fill:#bc1a21;fill-opacity:1;fill-rule:nonzero;stroke:none"
       transform="matrix(1.411111,0,0,-1.411111,46.726372,159.08398)"
       clip-path="url(#clipPath16)" />
    <path
       id="path17"
       d="m 0,0 c 0,0 -0.058,-0.001 -0.116,-0.002 -0.117,0.055 -0.29,0.052 -0.288,-0.064 0.001,-0.058 0.003,-0.174 0.064,-0.288 0.06,-0.173 0.117,-0.114 0.232,-0.054 0.057,0.059 0.057,0.059 0.115,0.06 l 0.115,0.06 C 0.235,-0.17 0.291,-0.052 0,0"
       style="fill:#bc1a21;fill-opacity:1;fill-rule:nonzero;stroke:none"
       transform="matrix(1.411111,0,0,-1.411111,47.413304,160.78786)"
       clip-path="url(#clipPath18)" />
    <path
       id="path19"
       d="M 0,0 C -0.055,-0.174 0.062,-0.172 0.176,-0.112 0.347,0.007 0.46,0.184 0.399,0.356 0.396,0.472 0.394,0.646 0.331,0.875 0.327,1.05 0.269,1.106 0.154,1.046 0.154,1.046 0.098,0.987 0.041,0.928 -0.016,0.812 -0.072,0.752 -0.069,0.579 -0.064,0.347 -0.059,0.057 0,0"
       style="fill:#bc1a21;fill-opacity:1;fill-rule:nonzero;stroke:none"
       transform="matrix(1.411111,0,0,-1.411111,45.625988,161.39566)"
       clip-path="url(#clipPath20)" />
    <path
       id="path21"
       d="m 0,0 -2.276,-1.24 -0.023,0.756 1.556,0.799 -1.601,0.688 -0.023,0.743 2.353,-1.103 1.675,0.051 0.019,-0.643 z m 1.488,-3.622 -3.298,0.364 -0.104,-0.942 -0.671,0.075 0.278,2.522 0.672,-0.073 -0.104,-0.941 3.298,-0.363 z m -0.373,-2.244 -3.918,0.777 0.126,0.632 3.917,-0.776 z M 0.663,-7.933 C 0.548,-8.32 0.349,-8.584 0.063,-8.725 -0.222,-8.867 -0.585,-8.894 -1.025,-8.808 l 0.105,0.624 c 0.263,-0.039 0.47,-0.02 0.622,0.056 0.151,0.075 0.254,0.207 0.31,0.395 0.059,0.199 0.05,0.365 -0.025,0.497 -0.075,0.132 -0.184,0.219 -0.325,0.261 -0.09,0.027 -0.174,0.028 -0.25,0.005 -0.076,-0.024 -0.153,-0.082 -0.231,-0.174 -0.054,-0.063 -0.158,-0.211 -0.314,-0.445 -0.201,-0.302 -0.396,-0.497 -0.586,-0.586 -0.266,-0.126 -0.551,-0.144 -0.854,-0.054 -0.195,0.058 -0.364,0.156 -0.508,0.294 -0.143,0.139 -0.235,0.305 -0.274,0.498 -0.04,0.192 -0.025,0.406 0.045,0.642 0.114,0.384 0.305,0.643 0.573,0.774 0.268,0.133 0.58,0.151 0.934,0.057 l -0.149,-0.628 c -0.204,0.031 -0.363,0.016 -0.475,-0.045 -0.112,-0.062 -0.194,-0.18 -0.245,-0.354 -0.053,-0.18 -0.049,-0.334 0.013,-0.463 0.04,-0.083 0.11,-0.139 0.209,-0.169 0.091,-0.026 0.178,-0.019 0.26,0.024 0.105,0.054 0.246,0.218 0.424,0.493 0.178,0.274 0.336,0.469 0.473,0.585 0.138,0.117 0.301,0.191 0.489,0.224 0.189,0.032 0.405,0.013 0.647,-0.058 C 0.062,-6.42 0.253,-6.53 0.416,-6.685 0.579,-6.838 0.68,-7.019 0.72,-7.225 0.761,-7.43 0.742,-7.667 0.663,-7.933 m -0.973,-2.57 -0.984,-0.067 c -0.351,-0.023 -0.576,-0.046 -0.675,-0.068 -0.098,-0.023 -0.176,-0.059 -0.231,-0.109 -0.009,-0.008 -0.019,-0.019 -0.029,-0.03 -0.039,-0.116 -0.105,-0.258 -0.165,-0.382 l 1.484,-0.671 -0.266,-0.588 -3.638,1.646 0.559,1.236 c 0.141,0.311 0.276,0.523 0.404,0.634 0.13,0.112 0.297,0.172 0.502,0.181 0.206,0.01 0.416,-0.034 0.631,-0.132 0.273,-0.124 0.47,-0.29 0.59,-0.498 0.119,-0.209 0.145,-0.452 0.075,-0.728 0.151,0.085 0.3,0.144 0.448,0.177 0.148,0.032 0.396,0.055 0.742,0.067 l 0.871,0.034 z m -2.64,-4.864 -3.381,2.127 1.262,2.005 0.571,-0.36 -0.918,-1.459 0.75,-0.471 0.854,1.357 0.569,-0.358 -0.853,-1.358 0.92,-0.578 0.95,1.51 0.569,-0.358 z m -1.612,-2.055 -3.803,1.671 0.447,0.538 2.791,-1.265 -1.775,2.489 0.437,0.527 2.342,-3.431 z m -1.628,-1.742 -2.825,2.822 0.455,0.456 2.826,-2.822 z m -1.209,-1.117 -2.649,1.194 1.654,-2.012 -0.462,-0.38 -2.537,3.084 0.484,0.398 2.704,-1.229 -1.693,2.06 0.462,0.381 2.537,-3.085 z m -2.969,-2.153 c -0.092,-0.15 -0.246,-0.292 -0.462,-0.423 -0.26,-0.159 -0.481,-0.242 -0.661,-0.248 -0.181,-0.008 -0.346,0.025 -0.498,0.098 -0.152,0.072 -0.28,0.167 -0.385,0.283 -0.155,0.174 -0.349,0.451 -0.582,0.833 l -1.108,1.818 0.55,0.336 1.126,-1.846 c 0.179,-0.293 0.302,-0.479 0.368,-0.558 0.109,-0.125 0.233,-0.203 0.374,-0.233 0.14,-0.03 0.287,10e-4 0.44,0.095 0.157,0.095 0.25,0.207 0.281,0.336 0.03,0.128 0.019,0.255 -0.036,0.381 -0.055,0.126 -0.164,0.324 -0.329,0.594 l -1.15,1.886 0.55,0.336 1.093,-1.791 c 0.249,-0.409 0.411,-0.708 0.484,-0.895 0.073,-0.187 0.105,-0.363 0.096,-0.528 -0.009,-0.165 -0.059,-0.323 -0.151,-0.474 m -4.353,-1.816 c -0.14,-0.437 -0.43,-0.736 -0.872,-0.896 -0.447,-0.161 -0.864,-0.119 -1.25,0.127 -0.387,0.245 -0.688,0.666 -0.905,1.265 -0.137,0.382 -0.208,0.72 -0.21,1.012 0,0.217 0.03,0.422 0.094,0.617 0.063,0.194 0.152,0.354 0.266,0.478 0.151,0.167 0.349,0.294 0.594,0.382 0.442,0.161 0.859,0.117 1.249,-0.131 0.39,-0.247 0.695,-0.676 0.916,-1.288 0.219,-0.606 0.258,-1.128 0.118,-1.566 m -3.39,-1.611 -0.464,0.828 -1.248,-0.27 -0.067,-0.942 -0.669,-0.145 0.374,4.166 0.667,0.144 2.093,-3.633 z m -3.717,-0.641 -0.455,3.967 0.641,0.074 0.455,-3.968 z m -0.944,-0.518 c -0.098,0.035 -0.194,0.084 -0.287,0.146 -0.021,0.013 -0.165,0.13 -0.433,0.351 -0.208,-0.117 -0.44,-0.177 -0.694,-0.179 -0.491,-0.006 -0.877,0.172 -1.159,0.53 -0.282,0.359 -0.426,0.865 -0.433,1.518 -0.007,0.653 0.128,1.161 0.403,1.526 0.275,0.365 0.652,0.55 1.13,0.555 0.474,0.005 0.851,-0.173 1.132,-0.532 0.281,-0.359 0.425,-0.865 0.432,-1.517 0.003,-0.345 -0.032,-0.649 -0.107,-0.911 -0.056,-0.2 -0.147,-0.395 -0.273,-0.583 0.16,-0.14 0.333,-0.251 0.52,-0.332 z m -5.447,0.621 -0.636,0.122 -0.775,2.8 -0.49,-2.558 -0.588,0.113 0.75,3.922 0.617,-0.118 0.782,-2.865 0.502,2.619 0.589,-0.113 z m -3.301,0.67 -0.664,0.227 0.03,0.949 -1.208,0.414 -0.543,-0.773 -0.648,0.223 2.473,3.373 0.645,-0.221 z m -4.178,1.598 1.661,3.632 0.587,-0.268 -1.661,-3.632 z m -0.573,1.056 c -0.168,-0.172 -0.358,-0.279 -0.57,-0.322 -0.212,-0.042 -0.435,0.002 -0.67,0.134 -0.275,0.154 -0.432,0.369 -0.472,0.644 -0.041,0.276 0.043,0.6 0.25,0.973 l 0.573,-0.221 c -0.105,-0.203 -0.161,-0.358 -0.167,-0.463 -0.009,-0.159 0.048,-0.273 0.173,-0.343 0.125,-0.07 0.238,-0.076 0.341,-0.015 0.102,0.061 0.232,0.231 0.39,0.514 l 1.262,2.249 0.561,-0.314 -1.236,-2.205 c -0.163,-0.288 -0.307,-0.498 -0.435,-0.631 m -4.279,1.923 2.409,3.184 0.515,-0.389 -2.41,-3.184 z m -1.061,0.851 0.41,0.856 -0.938,0.866 -0.809,-0.487 -0.502,0.464 3.623,2.089 0.502,-0.463 -1.771,-3.801 z m -2.796,2.818 1.354,1.104 -0.799,0.979 -1.354,-1.103 -0.407,0.5 3.095,2.524 0.408,-0.5 -1.219,-0.994 0.799,-0.98 1.218,0.994 0.408,-0.5 -3.095,-2.524 z m -2.046,2.937 c -0.238,0.156 -0.425,0.348 -0.56,0.574 -0.171,0.286 -0.245,0.581 -0.221,0.885 0.023,0.303 0.142,0.591 0.358,0.866 0.216,0.274 0.488,0.51 0.817,0.706 0.358,0.213 0.711,0.343 1.06,0.388 0.349,0.046 0.666,-0.002 0.952,-0.145 0.219,-0.108 0.407,-0.292 0.563,-0.555 0.203,-0.34 0.273,-0.66 0.209,-0.958 -0.065,-0.298 -0.238,-0.568 -0.52,-0.811 l -0.457,0.473 c 0.145,0.14 0.234,0.291 0.268,0.456 0.034,0.165 0.004,0.328 -0.092,0.487 -0.144,0.242 -0.355,0.377 -0.632,0.406 -0.277,0.028 -0.605,-0.07 -0.982,-0.295 -0.407,-0.243 -0.669,-0.497 -0.786,-0.764 -0.117,-0.266 -0.106,-0.516 0.034,-0.75 0.069,-0.117 0.167,-0.216 0.294,-0.299 0.126,-0.083 0.255,-0.141 0.386,-0.177 l 0.435,0.26 -0.379,0.634 0.578,0.345 0.712,-1.194 -1.366,-0.815 c -0.209,0.032 -0.433,0.126 -0.671,0.283 m -2.044,3.57 1.916,2.184 -2.407,-0.994 -0.228,0.555 3.692,1.523 0.239,-0.581 -1.967,-2.226 2.465,1.017 0.229,-0.554 -3.692,-1.522 z m -1.177,3.211 0.81,0.494 -0.315,1.238 -0.944,0.032 -0.169,0.663 4.177,-0.221 0.168,-0.661 -3.554,-2.225 z m -0.809,3.887 1.735,0.187 -0.134,1.256 -1.737,-0.187 -0.069,0.642 3.971,0.427 0.069,-0.642 -1.563,-0.168 0.135,-1.257 1.563,0.168 0.069,-0.641 -3.971,-0.427 z m 0.102,5.116 c 0.24,0.21 0.584,0.329 1.031,0.358 l 0.058,-0.63 c -0.264,-0.03 -0.46,-0.101 -0.587,-0.213 -0.126,-0.111 -0.193,-0.265 -0.199,-0.461 -0.006,-0.208 0.044,-0.366 0.151,-0.475 0.107,-0.108 0.234,-0.165 0.381,-0.169 0.094,-0.003 0.175,0.017 0.243,0.059 0.067,0.043 0.127,0.118 0.179,0.227 0.035,0.075 0.098,0.245 0.19,0.511 0.118,0.343 0.256,0.581 0.416,0.716 0.226,0.19 0.497,0.279 0.812,0.27 0.204,-0.006 0.393,-0.058 0.567,-0.155 0.174,-0.098 0.305,-0.234 0.392,-0.411 0.088,-0.176 0.128,-0.387 0.121,-0.633 -0.013,-0.4 -0.131,-0.699 -0.357,-0.895 -0.226,-0.196 -0.522,-0.294 -0.889,-0.293 l -0.016,0.646 c 0.206,0.022 0.355,0.077 0.448,0.164 0.092,0.089 0.141,0.223 0.147,0.405 0.005,0.187 -0.039,0.335 -0.132,0.444 -0.059,0.07 -0.141,0.107 -0.244,0.11 -0.095,0.003 -0.177,-0.026 -0.246,-0.089 -0.087,-0.078 -0.182,-0.273 -0.284,-0.584 -0.102,-0.311 -0.205,-0.54 -0.308,-0.687 -0.103,-0.148 -0.243,-0.262 -0.416,-0.341 -0.175,-0.08 -0.388,-0.116 -0.64,-0.109 -0.229,0.007 -0.441,0.064 -0.638,0.172 -0.197,0.107 -0.341,0.255 -0.432,0.444 -0.092,0.189 -0.134,0.422 -0.125,0.699 0.012,0.404 0.137,0.711 0.377,0.92 m 0.609,10.946 c 0.052,0.291 0.387,0.992 1.258,0.835 0.641,-0.161 1.119,-0.905 1.412,-1.073 0.166,0.409 0.336,0.586 0.509,0.704 0.113,0.119 0.815,-0.215 0.939,-0.676 0.004,-0.175 -0.51,-0.589 -0.329,-0.933 0.532,-0.569 1.173,-0.789 1.524,-0.898 0.395,0.528 0.387,0.934 0.498,1.168 0.222,0.525 0.907,1.06 1.256,0.952 0.117,0.002 0.593,-0.626 0.483,-0.976 -0.057,-0.06 -0.507,-0.706 -1.029,-0.716 -0.343,-0.238 -1.059,-2.222 -1.112,-2.455 -0.099,-0.812 -0.14,-1.741 -0.309,-1.976 -0.17,-0.177 -0.911,-0.887 -1.324,-0.489 -0.238,0.343 0.716,1.983 1.039,3.207 -0.174,0.055 -1.054,0.617 -1.582,0.955 -0.941,0.735 -1.59,1.301 -2.349,1.577 -0.464,0.048 -0.933,0.329 -0.884,0.794 m 6.251,8.35 c 0.17,0.027 0.396,0.046 0.608,0.049 0.206,0.004 0.549,-0.002 0.569,-0.09 0.177,-0.117 0.181,-0.354 0.186,-0.583 V 19.904 L -42.162,19.9 c -0.119,-0.123 -0.213,-0.192 -0.331,-0.279 -0.053,-0.039 -0.113,-0.083 -0.184,-0.138 l -0.005,-0.003 c -0.039,-0.01 -0.073,-0.021 -0.104,-0.03 -0.074,-0.023 -0.133,-0.041 -0.203,-0.042 -0.076,-0.002 -0.16,0.017 -0.28,0.062 -0.169,0.107 -0.299,0.375 -0.371,0.756 0,0.025 -0.003,0.049 -0.006,0.071 -0.011,0.091 -0.022,0.184 0.125,0.237 m 2.116,1.708 c 0.287,0.122 0.577,0.128 0.698,-0.16 0.062,-0.231 0.082,-1.216 0.533,-0.569 0.339,0.411 0.507,0.705 0.845,1.233 0.393,0.644 0.919,0.364 0.929,-0.098 -0.047,-0.581 -0.1,-0.814 -0.148,-1.336 0.057,0.059 0.115,0.061 0.172,0.062 0.172,0.119 0.345,0.18 0.459,0.24 0.231,0.062 0.403,0.123 0.636,0.07 0.116,0.003 0.232,0.004 0.349,-0.051 0.293,-0.169 0.588,-0.452 0.771,-0.913 0.917,0.54 1.738,0.034 0.944,-0.85 -0.231,-0.063 -0.461,-0.183 -0.749,-0.246 0.247,-0.807 0.613,-1.727 -0.068,-2.493 -0.343,-0.239 -0.516,-0.3 -0.8,-0.538 -0.059,0 -0.115,-0.059 -0.172,-0.118 -0.056,-0.118 -0.113,-0.176 -0.17,-0.236 -0.114,-0.059 -0.172,-0.061 -0.347,-0.007 -0.057,-0.058 -0.171,-0.118 -0.286,-0.179 10e-4,-0.057 -0.056,-0.059 -0.055,-0.116 -0.174,-0.062 -0.288,-0.122 -0.406,-0.067 -0.406,0.05 -0.65,0.683 -0.657,1.031 -0.343,-0.238 -1.032,-0.542 -1.446,-0.144 -0.01,0.521 1.087,0.716 1.306,1.416 -0.198,1.271 -0.277,2.312 -0.243,3.588 l -0.733,-1.058 c -0.228,-0.235 -0.634,-0.185 -0.872,0.1 -0.487,1.265 -0.889,1.083 -0.49,1.439 m 9.468,-1.208 c 0.349,-0.051 0.754,-0.044 0.751,0.131 -0.007,0.347 -0.189,0.749 -0.606,1.32 -0.413,0.398 -0.531,0.511 -0.422,0.861 0.169,0.293 0.392,0.704 0.045,0.697 -0.174,-0.003 -0.413,0.339 -0.242,0.517 0.227,0.236 0.4,0.297 0.747,0.361 0.173,0.004 0.757,-0.217 0.705,-0.507 0.007,-0.406 -0.281,-0.469 -0.625,-0.65 -0.229,-0.178 -0.283,-0.353 -0.047,-0.523 0.235,-0.169 0.411,-0.339 0.469,-0.338 0.06,-0.114 0.303,-0.69 0.425,-0.976 0.059,-0.115 0.121,-0.288 0.182,-0.461 0.071,-0.694 -0.281,-0.469 0.128,-0.635 0.639,-0.103 1.804,-0.371 2.033,-0.25 0.058,0.001 0.116,0.002 0.057,0.059 0,0 -0.001,0.058 -0.059,0.057 -0.181,0.344 -0.365,0.862 -0.595,0.8 -0.173,-0.062 -0.404,-0.124 -0.634,-0.186 -0.583,0.22 -0.586,0.335 -0.241,0.459 l 0.979,0.365 c 0.114,0.061 0.229,0.121 0.285,0.18 0.056,0.175 -0.065,0.404 -0.18,0.345 -0.231,-0.062 -0.459,-0.241 -0.634,-0.187 -0.351,0.167 -0.527,0.338 -0.355,0.399 0.171,0.119 0.343,0.238 0.514,0.357 0.459,0.241 0.285,0.296 -0.295,0.342 -0.12,0.172 -0.123,0.346 0.106,0.466 0.287,0.179 0.455,0.473 0.167,0.351 -0.229,-0.12 -0.629,-0.417 -0.918,-0.423 -0.349,0.051 -0.584,0.22 -0.358,0.456 0.4,0.356 0.686,0.535 1.202,0.835 0.287,0.121 0.281,0.411 0.165,0.466 -0.06,0.057 -0.977,-0.424 -1.105,0.211 -0.132,0.809 0.859,0.481 0.966,0.946 -0.005,0.231 0.047,0.58 0.451,0.646 0.174,0.003 0.292,-0.11 0.354,-0.283 0.116,-0.055 0.176,-0.113 0.293,-0.168 0.117,-0.056 0.174,-0.055 0.233,-0.112 0.117,0.002 0.233,-0.053 0.351,-0.167 0.238,-0.342 0.303,-0.689 0.311,-1.095 -0.045,-0.696 -0.684,-0.592 -0.563,-0.821 0.175,-0.113 0.348,-0.052 0.298,-0.459 -0.112,-0.176 -0.285,-0.237 -0.342,-0.295 0.002,-0.059 0.06,-0.058 0.061,-0.115 0.232,-0.054 0.348,-0.052 0.53,-0.512 0.178,-0.171 0.355,-0.341 0.59,-0.51 0.062,-0.231 0.066,-0.404 -0.221,-0.526 -0.348,-0.064 -0.692,-0.187 -0.922,-0.307 -0.171,-0.12 -0.227,-0.237 -0.167,-0.351 0.059,-0.056 0.124,-0.404 0.187,-0.692 0.123,-0.345 0.245,-0.691 0.36,-0.573 1.327,0.258 2.134,0.506 3.112,0.815 0.576,0.184 0.526,-0.223 0.241,-0.459 -0.284,-0.297 -0.742,-0.595 -1.085,-0.833 -0.288,-0.122 -1.094,-0.369 -1.558,-0.32 -0.291,0.052 -0.698,0.161 -1.047,0.212 -0.058,-0.002 -0.116,-0.003 -0.117,0.056 -0.173,-0.004 -0.29,-0.006 -0.406,0.05 -0.523,0.047 -1.045,0.095 -1.683,0.141 -0.35,0.051 -0.468,0.165 -0.925,-0.134 -0.166,-0.409 -0.227,-0.294 -0.461,-0.183 -0.351,0.225 -0.701,0.334 -0.936,0.446 -0.528,0.337 -0.13,0.751 0.451,0.704 m 8.776,1.618 c 0.744,0.42 1.43,0.954 2.23,1.549 0.223,0.411 0.108,0.408 -0.47,0.339 -0.522,0.048 -0.761,0.391 -0.884,0.794 -0.181,0.286 -0.124,0.404 0.106,0.466 0.059,10e-4 0.173,0.061 0.757,-0.217 0.291,0.005 0.695,0.013 1.044,0.02 0.169,0.235 0.215,0.815 0.433,1.515 0.167,0.409 0.641,-0.162 0.594,-0.742 -0.448,-0.762 -0.278,-0.584 0.011,-0.522 0.518,0.127 0.306,-0.862 0.016,-0.868 l -0.231,-0.005 c -0.116,-0.002 -0.226,-0.294 -0.334,-0.759 -0.226,-0.294 -0.34,-0.355 -0.569,-0.533 -0.112,-0.176 -0.281,-0.469 -0.106,-0.466 0.877,-0.388 0.761,-0.448 1.102,-0.094 l 1.201,0.835 c 0.34,0.411 -0.35,0.108 -0.584,0.22 -0.175,0.054 -0.295,0.284 -0.357,0.515 -0.005,0.231 -0.007,0.347 0.223,0.41 0,0.057 0.236,-0.17 0.351,-0.168 0.291,0.006 0.695,0.014 0.985,0.019 0.289,0.006 0.402,0.183 0.509,0.648 0.053,0.233 -0.348,0.051 -0.698,0.16 -0.412,0.34 -0.531,0.511 -0.127,0.577 0.753,0.014 1.213,0.139 1.791,0.266 0.347,0.007 0.525,-0.221 0.646,-0.451 0.004,-0.232 -0.111,-0.291 -0.342,-0.296 -0.347,-0.007 -0.637,-0.012 -0.809,-0.074 -0.292,0.11 0.066,-0.462 0.301,-0.631 0.06,-0.115 0.175,-0.055 0.233,-0.054 0.116,0.003 0.174,0.004 0.229,0.121 -0.064,0.346 0.638,0.012 0.695,0.013 0,0 0.301,-0.573 -0.045,-0.638 -0.29,-0.006 -0.521,-0.068 -0.808,-0.19 -0.23,-0.061 -0.348,-0.006 -0.521,-0.01 -0.922,-0.307 -1.425,-1.244 -2.001,-1.429 -0.173,-0.061 -0.69,-0.245 -0.803,-0.421 -0.17,-0.177 0.354,-0.283 0.012,-0.637 -0.113,-0.119 -0.286,-0.122 -0.462,-0.067 -0.357,0.456 -0.477,0.744 -0.831,1.027 -0.117,0.056 -0.338,-0.471 -0.377,-1.456 0.005,-0.232 0.062,-0.231 -0.165,-0.467 -0.46,-0.182 -0.303,0.69 -0.034,1.797 0.103,0.638 0.444,0.992 -0.013,0.636 -0.628,-0.475 -1.256,-0.951 -1.889,-1.195 -0.232,-0.004 -0.525,0.163 -0.009,0.463 m 8.374,-1.577 c -0.582,0.163 -0.995,0.56 -1.178,1.021 -0.654,0.856 -0.833,1.142 -0.894,1.257 -0.528,0.396 0.111,0.292 0.463,0.067 0.82,-0.506 1.349,-0.843 2.054,-1.351 0.528,-0.338 0.482,-0.976 -0.445,-0.994 m 2.415,0.028 c 0.171,0.349 0.809,0.179 1.392,-0.165 0.173,-0.057 0.348,-0.113 0.464,-0.229 0.058,0 0.117,-0.057 0.175,-0.057 0.638,-0.285 1.103,-0.34 1.915,-0.567 0.116,-0.057 0.29,-0.171 0.407,-0.229 0,0 -10e-4,0.059 -10e-4,0.116 0.058,0.058 0.058,0.116 -0.001,0.174 0,0.058 0.058,0.116 0.057,0.232 -0.059,0.057 -0.118,0.115 -0.233,0.115 -0.058,-10e-4 -0.116,-10e-4 -0.174,-10e-4 -0.058,-0.001 -0.115,-0.001 -0.173,-0.06 -0.058,-0.116 -0.114,-0.233 -0.231,-0.175 -0.115,-0.001 -0.349,0.171 -0.465,0.229 -0.116,0.115 -0.296,0.983 -0.239,1.157 0.057,0.174 0.345,0.465 0.575,0.699 0.057,0.173 0.231,0.233 0.289,0.175 0.116,-0.115 0.231,0.06 0.346,0.118 0.116,0.059 0.232,-0.056 0.175,-0.172 10e-4,-0.174 0.004,-0.522 0.179,-0.81 0.059,-0.058 0.06,-0.29 0.003,-0.464 -0.057,-0.116 -0.056,-0.174 -0.056,-0.232 0.001,-0.058 0.001,-0.115 0.001,-0.174 l 10e-4,-0.057 c 0,-0.058 0,-0.117 0,-0.117 0.058,-0.057 0.116,10e-4 0.174,0.002 0.114,0.174 -0.116,-0.001 0.402,0.639 0.057,0.117 0.114,0.117 0.23,0.176 0.057,0.058 0.115,0.059 0.231,0.117 0.057,0 0.116,-0.057 0.175,-0.115 0.058,-0.115 0.174,-0.23 0.233,-0.345 -0.057,-0.06 -0.057,-0.175 0.06,-0.29 0.004,-0.002 0.007,-0.007 0.012,-0.009 L -6.61,20.623 c -0.064,-0.064 -0.064,-0.128 -0.064,-0.128 -0.065,-0.064 -0.065,-0.064 -0.065,-0.129 -0.064,-0.063 -0.127,-0.063 -0.127,-0.127 v 0.064 l -0.065,-0.064 -0.064,-0.064 c 0,0 -0.001,-0.193 0.064,-0.257 l 0.128,0.064 0.064,0.064 c -0.064,0.064 0,0.064 0.065,0.128 0,0.065 0.064,0.129 0.064,0.129 -0.064,-0.064 -0.064,0 -0.064,0 0,0.063 0,0.063 0.064,0.128 0.064,0.064 0.064,0.128 0.064,0.128 0.084,0.084 0.136,0.139 0.147,0.187 0.081,-0.076 0.148,-0.194 0.288,-0.24 0.29,-0.114 0.64,-0.402 0.874,-0.864 0.059,-0.289 0.061,-0.521 0.005,-0.637 -0.058,-0.116 -0.116,-0.174 -0.173,-0.233 -0.057,-0.058 -0.173,-0.116 -0.288,-0.175 -0.174,-0.001 -0.291,0.056 -0.407,0.113 -0.116,0.057 -0.174,0.115 -0.233,0.172 -0.058,0 -0.116,0.057 -0.174,0.057 -0.058,0.057 -0.174,0.057 -0.232,0.115 -0.058,-10e-4 -0.116,-10e-4 -0.116,-10e-4 h -0.058 c 0,0.057 0,0.057 -0.058,-0.001 -0.058,-0.059 -0.291,0.056 -0.348,0.114 -0.058,0 -0.117,0.057 -0.175,0.057 -0.115,-10e-4 -0.232,0.056 -0.29,0.056 -0.057,-0.001 -0.116,-0.001 -0.173,-0.06 -0.058,0 0.117,-0.115 0.757,-0.574 0.116,-0.057 0.291,-0.172 0.466,-0.345 0.349,-0.287 0.757,-0.69 0.99,-0.978 0.294,-0.52 0.24,-1.273 -0.459,-0.64 -0.118,0.346 -0.351,0.576 -0.525,0.692 -0.233,0.171 -0.35,0.229 -0.001,0.115 h 0.058 c 0.057,10e-4 -10e-4,0.116 -0.059,0.232 -0.293,0.288 -0.992,0.921 -2.096,1.551 -0.466,0.287 -1.103,0.34 -1.684,0.51 0,0 -0.057,0 -0.116,0.057 -0.116,0.058 -0.232,0.115 -0.349,0.172 -0.174,0.115 -0.349,0.229 -0.465,0.344 -0.059,0.058 -0.117,0.058 -0.117,0.116 -0.175,0.114 -0.349,0.172 -0.464,0.171 -0.117,0.057 -0.232,0.113 -0.291,0.113 -0.059,0.058 -0.059,0.058 -0.117,0.116 l -10e-4,0.173 z m 8.024,-7.516 c 0.248,0.113 0.502,0.207 0.765,0.277 0.115,0.031 0.23,0.056 0.346,0.078 0.083,0.016 0.205,0.019 0.31,0.041 0.044,0.022 0.087,0.044 0.131,0.067 0.012,0.007 0.024,0.008 0.035,0.007 0.02,0.012 0.039,0.007 0.053,-0.006 0.008,0.003 0.017,0.002 0.022,-0.007 0.002,-0.002 0.003,-0.006 0.003,-0.009 0.003,0 0.005,0 0.007,-10e-4 0.008,0.006 0.019,0.008 0.026,-0.003 0.005,-0.008 0.004,-0.016 -10e-4,-0.021 l 10e-4,-0.002 c 0.004,-0.006 0.004,-0.012 0.002,-0.018 v -0.002 c 0.007,-0.014 0.011,-0.03 0.004,-0.049 -10e-4,-10e-4 -10e-4,-0.002 -0.002,-0.004 -0.09,-0.069 -0.169,-0.149 -0.27,-0.205 -0.072,-0.04 -0.148,-0.073 -0.223,-0.109 -0.016,-0.004 -0.031,-0.009 -0.047,-0.013 l -0.339,-0.18 c -0.088,-0.047 -0.179,-0.09 -0.263,-0.144 -0.023,-0.015 -0.044,-0.032 -0.065,-0.049 -10e-4,-0.009 0,-0.019 0,-0.028 0.005,-0.008 0.011,-0.015 0.017,-0.021 10e-4,0 10e-4,-10e-4 10e-4,-10e-4 0.046,0.007 0.091,0.018 0.136,0.032 0.111,0.065 0.231,0.124 0.355,0.165 0.002,0.006 0.007,0.01 0.014,0.011 0.011,10e-4 0.022,0.003 0.033,0.004 0.036,0.011 0.071,0.02 0.107,0.027 0.137,0.056 0.272,0.118 0.392,0.209 0.013,0.01 0.027,0.013 0.039,0.011 l 0.012,0.012 c 0.039,0.019 0.08,0.034 0.121,0.047 0.071,-0.002 0.136,0.011 0.206,0.05 0.167,-0.008 0.335,0.054 0.436,0.262 0.038,0.066 0.082,0.154 0.116,0.198 0.019,0.033 0.038,0.066 0.067,0.085 -0.009,0.015 -0.018,0.028 -0.047,0.008 -0.172,-0.116 -0.261,0.264 -0.205,0.302 0.015,0.01 0.081,0.035 0.143,0.036 0.061,0.002 0.14,-0.024 0.155,-0.015 0.005,-0.037 0.052,-0.045 0.09,-0.039 0.023,-0.004 0.116,-0.141 0.125,-0.155 l 0.102,-0.151 c 0.052,-0.046 0.107,-0.128 0.126,-0.216 0.046,-0.068 0.059,-0.119 0.058,-0.18 0.009,-0.013 -0.009,0.013 -0.033,0.018 0.005,-0.037 0,-0.06 -0.005,-0.084 -0.046,-0.271 -0.482,-0.426 -0.786,-0.592 -0.081,-0.033 -0.293,0.003 -0.416,0 -0.166,-0.032 -0.337,-0.147 -0.588,-0.238 -0.024,0.004 -0.038,-0.006 -0.061,-0.001 -0.086,-0.058 -0.176,-0.139 -0.229,-0.155 -0.071,-0.048 -0.19,-0.087 -0.262,-0.136 l -0.142,-0.096 c -0.138,-0.074 -0.256,-0.114 -0.398,-0.149 -0.07,-0.011 -0.397,0.143 -0.366,0.41 -0.001,0.003 -0.002,0.007 -0.001,0.01 0.002,0.013 0.005,0.026 0.008,0.038 0.004,0.034 0.012,0.068 0.026,0.098 -0.01,0.009 -0.022,0.012 -0.036,0.009 -0.007,0.003 -0.016,0.002 -0.022,-0.002 -0.006,10e-4 -0.013,0 -0.02,-0.003 -0.019,-0.008 -0.039,-0.016 -0.059,-0.024 -10e-4,0 -0.003,-10e-4 -0.004,-10e-4 -0.01,-0.004 -0.019,-0.008 -0.028,-0.011 -10e-4,-10e-4 -0.003,-0.003 -0.005,-0.004 -0.015,-0.007 -0.031,-0.014 -0.047,-0.021 -0.017,-0.008 -0.035,-0.016 -0.052,-0.025 -10e-4,-10e-4 -0.003,-10e-4 -0.004,-0.002 -0.13,-0.042 -0.25,-0.121 -0.37,-0.185 -0.077,-0.041 -0.152,-0.085 -0.217,-0.14 -0.215,-0.129 -0.275,-0.288 -0.167,-0.346 l 0.239,-0.138 c -0.23,0.064 -0.416,-10e-4 -0.592,-0.079 -0.421,-0.206 -0.778,-0.448 -0.999,-0.676 -0.149,-0.181 -0.346,-0.134 -0.464,-0.114 -0.188,0.033 -0.376,0.465 -0.379,0.624 0.002,0.181 0.22,0.349 0.326,0.44 0.812,0.549 1.993,0.889 3.034,1.253 0.006,0.009 0.014,0.016 0.025,0.021 m 2.211,-4.349 c -0.12,0.122 -0.266,0.25 -0.318,0.371 -0.035,0.022 -0.087,0.403 -0.046,0.558 0.076,0.243 0.252,0.437 0.372,0.315 0.53,-0.459 0.761,-0.578 0.744,-1.067 -0.016,-0.162 -0.134,-0.3 -0.221,-0.417 -0.048,-0.182 -0.323,0.085 -0.531,0.24 M -12,17.282 c -10e-4,0.231 -0.002,0.405 0.053,0.637 0.057,0.174 0.522,0.003 0.987,-0.167 0.174,-0.058 0.348,-0.172 0.464,-0.171 0.058,0 0.058,0 0.117,-0.058 0.289,0.176 0.691,0.527 0.4,0.756 -0.174,0.116 -0.235,0.521 -0.003,0.522 0.174,-0.057 0.291,-0.114 0.407,-0.171 0.174,-0.057 0.232,-0.057 0.406,-0.114 0.465,-0.286 0.468,-0.749 0.123,-1.042 -0.174,-0.001 -0.233,0.056 -0.349,0.056 -0.115,-0.059 -0.173,-0.059 -0.114,-0.175 0.174,-0.056 0.523,-0.286 0.466,-0.287 0.177,-0.635 -0.521,-0.118 -0.928,-0.063 -0.173,-10e-4 -0.346,-0.118 -0.519,-0.235 0,-0.058 -0.057,-0.174 -0.115,-0.233 l -0.345,-0.408 -0.172,-0.233 c -0.23,-0.233 -0.404,-0.292 -0.521,-0.176 -0.233,0.288 -0.467,0.634 -0.469,0.982 0.171,0.348 0.23,0.233 0.112,0.58 m -6.224,4.77 c -0.22,-0.583 -0.45,-0.704 -0.501,-1.111 0.001,-0.057 0.003,-0.115 0.003,-0.115 -0.111,-0.235 -0.227,-0.237 -0.345,-0.124 -0.063,0.231 -0.065,0.347 0.045,0.697 0.112,0.176 0.226,0.295 0.279,0.469 0,0 0.109,0.408 0.164,0.525 0.114,0.118 0.464,0.009 0.355,-0.341 m 0.573,0.301 c -0.178,0.228 -0.12,0.287 0.227,0.294 0.407,-0.108 0.526,-0.221 0.473,-0.513 -0.218,-0.699 -0.439,-1.282 -0.608,-1.518 -0.112,-0.176 -0.168,-0.293 -0.221,-0.526 -0.056,-0.116 -0.442,-1.167 -0.607,-1.575 0.001,-0.058 0.001,-0.058 -0.054,-0.233 0.12,-0.172 0.005,-0.29 -0.052,-0.349 -0.055,-0.118 -0.287,-0.064 -0.239,0.459 0.275,0.7 0.437,1.341 0.653,2.098 -0.007,0.406 0.614,1.229 0.428,1.863 m -24.342,-6.216 c -0.335,0.258 -0.543,0.476 -0.653,0.686 -0.234,0.449 -0.26,1.107 -0.132,1.175 0.02,0.005 0.041,0.008 0.064,0.008 0.343,0.007 1.122,-0.472 1.352,-0.62 l 0.003,-0.002 c 0.053,-0.064 0.08,-0.138 0.114,-0.209 0.006,-0.012 0.014,-0.024 0.019,-0.036 0.067,-0.151 0.116,-0.313 0.155,-0.496 0.024,-0.114 0.049,-0.23 0.084,-0.358 0.061,-0.145 0.3,-0.276 0.553,-0.415 0.234,-0.129 0.477,-0.262 0.619,-0.426 l 0.002,-0.005 c 0.023,-0.063 -0.003,-0.181 -0.069,-0.314 -0.129,-0.259 -0.404,-0.581 -0.789,-0.705 -0.029,-0.012 -0.063,-0.019 -0.1,-0.02 -0.045,-0.001 -0.1,0.028 -0.152,0.046 -0.007,0.003 -0.013,0.004 -0.019,0.006 -0.293,0.117 -0.653,0.512 -0.755,1.177 -0.059,0.167 -0.179,0.34 -0.296,0.508 m 17.484,2.566 c 9.692,0 17.723,-7.242 18.969,-16.599 h 0.003 c 0.121,-0.87 0.188,-1.758 0.188,-2.662 0,-10.581 -8.578,-19.159 -19.16,-19.159 -10.581,0 -19.159,8.578 -19.159,19.159 0,0.904 0.067,1.792 0.188,2.662 h 0.002 c 1.246,9.357 9.277,16.599 18.969,16.599 M -4.173,8.046 C -3.993,7.555 -3.778,7.082 -3.521,6.609 -3.447,6.418 -3.071,6.398 -2.477,6.591 -2.521,6.548 -2.598,6.531 -2.65,6.505 -2.676,6.471 -2.753,6.453 -2.78,6.419 -2.789,6.394 -2.797,6.369 -2.936,6.258 -3.014,6.199 -3.025,6.089 -3.018,5.99 -2.752,5.542 -3.596,5.204 -3.9,5.424 -4.405,5.961 -4.719,6.634 -4.895,7.375 l -0.546,1.138 -0.287,0.748 c -0.003,0.309 0.553,0.794 0.885,0.69 0.384,-0.078 0.605,-0.175 0.995,-0.395 0.18,-0.014 0.24,-0.005 -0.004,0.268 l -0.537,0.644 c -0.024,0.092 -0.106,0.3 0.243,0.12 C -2.861,9.696 -2.145,8.996 -2.067,8.537 -2.055,8.253 -2.283,7.974 -2.671,8.236 -3.019,8.498 -3.264,8.645 -3.917,9.087 -4.406,9.464 -4.4,8.762 -4.173,8.046 m 4.327,4.226 c 0.019,0.148 0.186,0.245 0.273,0.259 0.179,0.023 0.39,-0.153 0.511,-0.406 0.081,-0.169 0.122,-0.373 0.086,-0.576 -0.045,-0.228 -0.269,-0.415 -0.496,-0.498 -0.34,0.175 -0.43,0.371 -0.639,0.542 -0.099,0.07 -0.197,0.087 -0.251,0.084 -0.4,-0.111 -0.573,-0.191 -0.925,-0.233 -0.074,-0.005 -0.109,-0.02 -0.117,-0.043 0.012,-0.026 0.059,-0.054 0.123,-0.08 C -0.609,10.916 0.224,10.28 0.583,9.625 0.716,9.376 0.67,8.921 0.498,8.875 0.421,8.866 0.34,8.933 0.255,8.939 L 0.212,8.956 -0.383,9.19 c 0.12,0.035 0.281,0.036 0.292,0.218 -0.025,0.237 -0.111,0.378 -0.234,0.613 -0.265,0.5 -0.489,0.867 -1.244,1.144 -0.007,0.001 -0.014,0.002 -0.02,0.003 -0.008,0.006 -0.016,0.011 -0.024,0.016 -0.466,0.218 -0.849,-0.187 -0.968,0.034 -0.102,0.3 -0.195,0.502 -0.22,0.642 -0.042,0.234 0.102,0.298 0.698,0.362 0.125,0.01 0.263,0.025 0.409,0.043 0.144,0.018 0.296,0.039 0.452,0.061 0.401,0.058 1.008,0.104 1.396,-0.054 m 0.38,0.644 c 0.012,10e-4 0.026,-0.01 0.038,-0.011 -0.027,0.002 -0.054,0.008 -0.079,0.003 0.014,0.002 0.027,0.008 0.041,0.008 M 5.685,2.104 H 5.686 C 5.682,2.152 5.676,2.2 5.672,2.248 5.665,2.339 5.658,2.43 5.649,2.521 H 5.646 C 4.174,17.88 -8.763,29.893 -24.509,29.893 -40.255,29.893 -53.192,17.88 -54.665,2.521 h -0.002 C -54.672,2.464 -54.676,2.407 -54.681,2.35 -54.688,2.268 -54.697,2.186 -54.704,2.104 h 0.002 c -0.068,-0.828 -0.106,-1.665 -0.106,-2.511 0,-16.734 13.565,-30.299 30.299,-30.299 16.734,0 30.3,13.565 30.3,30.299 0,0.846 -0.039,1.683 -0.106,2.511"
       style="fill:#bc1a21;fill-opacity:1;fill-rule:nonzero;stroke:none"
       transform="matrix(1.411111,0,0,-1.411111,99.248204,185.26954)"
       clip-path="url(#clipPath22)" />
    <path
       id="path23"
       d="m 0,0 c 0.056,0.118 -0.06,0.115 -0.176,0.113 -0.058,-0.001 -0.115,-0.06 -0.172,-0.061 -0.286,-0.238 -0.567,-0.706 0.006,-0.29 0.113,0.06 0.171,0.119 0.285,0.18 z"
       style="fill:#bc1a21;fill-opacity:1;fill-rule:nonzero;stroke:none"
       transform="matrix(1.411111,0,0,-1.411111,59.551816,150.00686)"
       clip-path="url(#clipPath24)" />
    <path
       id="path25"
       d="M 0,0 -0.002,0.115 C -0.006,0.29 -0.408,0.108 -0.407,0.049 c 0.06,-0.173 0.357,-0.514 0.413,-0.397 0.057,0.001 0.056,0.117 0.052,0.291 0,0 -0.057,-0.001 -0.058,0.057"
       style="fill:#bc1a21;fill-opacity:1;fill-rule:nonzero;stroke:none"
       transform="matrix(1.411111,0,0,-1.411111,59.155576,154.8375)"
       clip-path="url(#clipPath26)" />
    <path
       id="path27"
       d="M 0,0 C 0.115,0.002 0.229,0.12 0.286,0.18 0.45,0.646 0.221,0.526 -0.007,0.348 -0.12,0.171 -0.175,-0.004 -0.115,-0.06 -0.058,-0.059 -0.058,-0.059 0,0"
       style="fill:#bc1a21;fill-opacity:1;fill-rule:nonzero;stroke:none"
       transform="matrix(1.411111,0,0,-1.411111,59.041984,148.9533)"
       clip-path="url(#clipPath28)" />
    <path
       id="path29"
       d="M 0,0 0.171,0.119 0.516,0.3 C 0.631,0.36 0.565,0.707 0.335,0.645 0.278,0.644 0.221,0.584 0.164,0.524 0.049,0.465 -0.066,0.405 -0.122,0.345 -0.293,0.168 -0.171,-0.119 0,0"
       style="fill:#bc1a21;fill-opacity:1;fill-rule:nonzero;stroke:none"
       transform="matrix(1.411111,0,0,-1.411111,59.618004,153.43954)"
       clip-path="url(#clipPath30)" />
    <path
       id="path31"
       d="M 0,0 C -0.069,0.578 -0.194,1.04 -0.315,1.326 -0.375,1.442 -0.494,1.555 -0.552,1.612 -0.784,1.607 -0.52,-0.068 -0.285,-0.295 -0.111,-0.234 0.058,0.001 0,0"
       style="fill:#bc1a21;fill-opacity:1;fill-rule:nonzero;stroke:none"
       transform="matrix(1.411111,0,0,-1.411111,45.569536,158.4529)"
       clip-path="url(#clipPath32)" />
    <path
       id="path33"
       d="M 0,0 C -0.055,0.072 -0.137,0.133 -0.246,0.183 -0.369,0.238 -0.479,0.257 -0.578,0.238 -0.677,0.22 -0.758,0.168 -0.821,0.082 -0.851,0.038 -0.919,-0.104 -1.027,-0.342 l -0.208,-0.458 0.654,-0.296 0.269,-0.122 0.197,0.435 c 0.053,0.118 0.095,0.218 0.127,0.302 0.043,0.115 0.066,0.198 0.067,0.246 C 0.082,-0.151 0.055,-0.073 0,0"
       style="fill:#bc1a21;fill-opacity:1;fill-rule:nonzero;stroke:none"
       transform="matrix(1.411111,0,0,-1.411111,95.440744,198.90454)"
       clip-path="url(#clipPath34)" />
    <path
       id="path35"
       d="M 0,0 -0.215,0.844 1.327,0.792 Z"
       style="fill:#bc1a21;fill-opacity:1;fill-rule:nonzero;stroke:none"
       transform="matrix(1.411111,0,0,-1.411111,31.14418,195.01158)"
       clip-path="url(#clipPath36)" />
    <path
       id="path37"
       d="M 0,0 -0.64,0.591 0.682,1.387 Z"
       style="fill:#bc1a21;fill-opacity:1;fill-rule:nonzero;stroke:none"
       transform="matrix(1.411111,0,0,-1.411111,41.539404,211.81322)"
       clip-path="url(#clipPath38)" />
    <path
       id="path39"
       d="M 0,0 -0.825,0.283 0.064,1.544 Z"
       style="fill:#bc1a21;fill-opacity:1;fill-rule:nonzero;stroke:none"
       transform="matrix(1.411111,0,0,-1.411111,53.907372,218.92398)"
       clip-path="url(#clipPath40)" />
    <path
       id="path41"
       d="m 0,0 c -0.04,-0.173 -0.101,-0.321 -0.182,-0.443 -0.195,0.179 -0.399,0.314 -0.612,0.402 L -0.97,-0.503 c 0.136,-0.059 0.269,-0.141 0.401,-0.247 -0.082,-0.039 -0.17,-0.059 -0.263,-0.06 -0.25,-0.002 -0.458,0.112 -0.624,0.342 -0.165,0.229 -0.251,0.578 -0.255,1.044 -0.005,0.46 0.073,0.805 0.234,1.035 0.162,0.231 0.373,0.347 0.636,0.35 0.263,0.003 0.477,-0.109 0.642,-0.336 C -0.034,1.399 0.051,1.056 0.056,0.594 0.058,0.371 0.04,0.173 0,0"
       style="fill:#bc1a21;fill-opacity:1;fill-rule:nonzero;stroke:none"
       transform="matrix(1.411111,0,0,-1.411111,66.225664,220.86214)"
       clip-path="url(#clipPath42)" />
    <path
       id="path43"
       d="M 0,0 0.109,1.54 0.852,0.184 Z"
       style="fill:#bc1a21;fill-opacity:1;fill-rule:nonzero;stroke:none"
       transform="matrix(1.411111,0,0,-1.411111,71.34842,219.98782)"
       clip-path="url(#clipPath44)" />
    <path
       id="path45"
       d="m 0,0 c -0.077,-0.274 -0.235,-0.455 -0.477,-0.542 -0.242,-0.087 -0.481,-0.05 -0.718,0.113 -0.236,0.163 -0.431,0.457 -0.585,0.882 -0.156,0.432 -0.197,0.783 -0.121,1.053 0.076,0.269 0.238,0.45 0.489,0.54 0.25,0.09 0.489,0.057 0.716,-0.101 C -0.468,1.788 -0.277,1.494 -0.122,1.064 0.036,0.628 0.077,0.273 0,0"
       style="fill:#bc1a21;fill-opacity:1;fill-rule:nonzero;stroke:none"
       transform="matrix(1.411111,0,0,-1.411111,77.58554,219.0741)"
       clip-path="url(#clipPath46)" />
  </g>
</svg>
