<svg height="315.756838" viewBox="0 0 252 251" width="316.699396" xmlns="http://www.w3.org/2000/svg"><g fill-rule="evenodd"><path d="m104.472656 129.054688c-1.929687.234374-5.15625 2.589843-6.828125.210937-1.011719-7.988281 5.886719-17.125 9.445313-21.980469.128906-.398437.117187-.75.246094-1.148437 2.144531-2.488281 5.027343-4.820313 7.796874-7.097657 2.929688-2.050781 5.851563-4.117187 8.78125-6.167968 2.226563-1.28125 3.933594-2.453125 7.066407-3.519532.671875-1.066406 1.023437-2.054687 1.671875-3.121093.507812-.832031 1.332031-1.722657 1.851562-2.554688 2.753906-3.71875 5.519532-7.4375 8.277344-11.15625.363281-1.066406.976562-2.003906 2.152344-2.648437.898437-.058594 1.589844-1.421875 2.488281-1.925782.65625-.714843 1.503906.292969 2.164063-.011718 1.097656.175781 1.992187.65625 2.675781 1.441406-.015625 1.351562-.109375 2.699219-.027344 4.046875.039063.515625.027344.46875-.316406.90625-.519531.667969-.730469 1.828125-1.210938 2.53125-.578125.855469-.636719-.082031-.945312.398437-1.140625 1.714844-2.671875 4.644532-3.8125 6.359376-1.050781 5.371093 5.957031 4.457031 5.449219 9.40625 2.191406 10.683593-10.277344 24.652343-20.027344 29.566406-1.4375.730468-1.355469.988281-1.875 2.558594-.304688.9375-.550782 1.921874-.929688 2.804687-.164062.375-.503906.703125-.636718 1.101563-.65625 1.605468-1.070313 3.332031-1.71875 4.9375-.257813 1.347656-.503907 2.707031-.765626 4.058593-.128906 1.359375-.597656 2.589844-.730468 3.964844-.128906.105469-.011719.117187-.140625.210937-.503907.398438-.585938.738282-.527344-.011718.023437-.304688.128906-.597656.164063-.761719-.09375.082031-.261719.046875-.355469.128906-.5625.492188-1.28125 1.523438-1.847657 1.96875 0 1.007813-.128906 2.039063-.140624 3.050781-.199219.222657-.269532.433594-.472657.65625-.28125.328126-.421875.292969-.597656.304688-.542969.035156-.777344-.070312-1.320313-.28125-.058593.46875-.128906.949219-.1875 1.417969-.167968.070312-.742187.058593-1.273437.28125-.683594.28125-1.367187.820312-1.332031.949219.050781.238281-.011719.859374-.1875 1.269531-.164063.363281-.375.550781-1.316406.140625-.097657-.855469.8125-5.535156 2.164062-3.367188.203125-.445312.566406-.667968.765625-1.113281.226563-.503906.285156-1.222656.507813-1.726563-.484376.410157-.953126.824219-1.4375 1.234376-1.683594-.023438-1.105469-.585938-.929688-1.914063.070312-.539063.117188-1.195313.246094-1.816406.671875-2.324219 1.484375-4.46875 2.144531-6.792969.140625-.480469.128906-.996094.269531-1.488281.175782-.621094.566406-1.253907.753906-1.886719.234376-.765625.246094-1.691406.460938-2.441406-3.203125 1.289062-5.335938 3.261718-8.761719 1.371094-2.78125-3.164063-4.78125-4.292969-3.003906-6.414063 1.203125-1.832031 2.402344-3.660156 3.605469-5.488281.777344-1.363282 1.339844-2.664063 2.117187-4.023438.847657-1.808594 2.015625-3.742187 3.5-5.171875.09375-.09375.035157-.457031.140625-.554687 1.082032-.972656 2.09375-2.296875 2.882813-4.609375.601562-.644531 1.203125-1.300781 1.804687-1.945313.28125-.398437 4.992188-7.0625 3.589844-3.542968-.484375.585937-.953125 1.183593-1.4375 1.773437-.90625 1.417969-1.800781 2.835937-2.695312 4.257813-.835938 1.183593-1.683594 2.355468-2.519532 3.539062-.835937 1.363281-1.683594 2.722656-2.519531 4.070312-.777344 1.480469-1.566406 2.957032-2.34375 4.433594-.964844 1.832032-1.695313 3.742188-2.664063 5.574219-1.457031 6.671875 3.085938 4.996094 8.953126 3.703125.703124-.539062.433593-1.417969.691406-2.132812.097656-.234376.191406-.46875.296875-.714844 1.269531-4.140625 2.542969-8.28125 3.8125-12.433594l3.277343-9.757812c.609376-2.019532 1.210938-4.023438 1.824219-6.042969.292969-.46875.601563-.949219.894531-1.417969 0-.527344-.542968-.527344-1.601562-.011719-12.707031 7.027344-24.777344 16.503907-29.816406 30.25.035156 1.113281-.363282 2.601563.695312 2.847657 1.070313 0 2.367188.296874 3.4375.296874.683594.257813.425782 1.160157.1875 1.171876zm38.109375-37.050782c-2.476562 4.867188-4.792969 11.257813-7.328125 17.015625-1.539062 3.496094-2.269531 6.980469-3.824218 10.113281 2.128906-2.265624 4.992187-4.585937 7.125-6.253906 1.601562-1.839844 3.203124-3.578125 4.800781-5.417968 1.640625-4.339844 4.570312-9.277344 3.0625-12.421876-.695313-1.417968-1.929688-2.144531-3.835938-3.035156zm0 0" fill="#e7380d"/><path d="m118.945312 149.390625c.191407-.339844.566407.152344 1.144532.257813.070312.316406.128906.636718-.167969 1.023437-.105469.269531-.421875.363281-.527344.632813-.09375.234374.023438.632812-.070312.867187-1.601563.878906.871093 1.066406-1.542969 1.675781-.355469-.878906-.320312-.808594.304688-1.523437.058593-.175781.105468-.351563.164062-.539063-.8125-.046875-.199219-.257812-.339844-.996094-.09375-.023437-.175781-.035156-.269531-.058593.117187-2.160157.621094-.070313 1.304687-1.339844zm0 0" fill="#e7380d"/><path d="m115.296875 152.464844c-.835937.738281-.542969 1.3125-.449219 2.382812h.613282c.175781-.402344-.011719-.953125.339843-1.210937.496094-.363281.519531-2.074219-.503906-1.171875zm0 0" fill="#e7380d"/><path d="m121.5625 149.355469c-.191406.117187-.425781.164062-.660156.023437-.519532-.984375.964844-.878906.660156-.023437zm0 0" fill="#e7380d"/><path d="m124.234375 144.464844c.1875-.527344.246094-.984375-.34375-1.3125-1.28125 1.710937-.046875 2.402344.34375 1.3125zm0 0" fill="#e7380d"/><path d="m125.742188 249.757812c69.121093 0 125.175781-55.832031 125.175781-124.679687s-56.054688-124.679687-125.175781-124.679687c-69.125 0-125.175782 55.832031-125.175782 124.679687s56.050782 124.679687 125.175782 124.679687zm0-5.703124c-65.96875 0-119.453126-53.28125-119.453126-118.976563s53.484376-118.980469 119.453126-118.980469c65.953124 0 119.453124 53.285156 119.453124 118.980469s-53.5 118.976563-119.453124 118.976563zm0 0" fill="#365e8e"/><path d="m125.742188 212.726562c48.597656 0 88-39.253906 88-87.648437 0-48.40625-39.414063-87.652344-88-87.652344-48.597657 0-88 39.257813-88 87.652344s39.402343 87.648437 88 87.648437zm0-1.933593c-47.527344 0-86.058594-38.390625-86.058594-85.714844 0-47.339844 38.542968-85.714844 86.058594-85.714844 47.527343 0 86.054687 38.386719 86.054687 85.714844 0 47.335937-38.539063 85.714844-86.054687 85.714844zm0 0" fill="#365e8e"/><path d="m18.003906 85.128906c.058594-.234375.058594-.234375.484375-.972656.011719.011719.023438.011719.035157.023438-.082032.175781-.339844.878906-.519532.949218zm7.21875 6.625c-.257812.214844-1.023437-.035156-1.328125-.117187-.144531.046875-.273437.082031-.390625.128906-.070312-.046875-.140625-.09375-.199218-.140625 0-.070312.011718-.128906.023437-.199219-.210937-.433593.011719-.832031-.1875-1.207031-.046875-.714844-.046875-.714844 0-.902344-.273437-.128906-.226563-1.054687-.203125-1.265625-.023438-.011719-.046875-.035156-.070312-.070312.082031-.175781.09375-.589844-.046876-.71875.449219-1.300781.425782-1.382813.554688-1.757813 0-.410156.023438-.808594.105469-1.21875-.035157-.035156-.070313-.070312-.105469-.09375.011719-.058594.046875-.128906.070312-.199218.789063.375 1.894532 1.019531 1.683594 2.015624.164063.480469-.292968 1.101563-.105468 1.621094-.070313.152344-.140626.292969-.199219.433594-.25.046875-.496094.09375-.730469.140625-.964844.703125-.660156 1.464844.292969 1.921875.164062.292969.070312.679688.199219 1.019531.449218.339844.449218.339844.636718.609375zm2.414063-3.105468c-.386719.117187-.765625-.164063-1.105469-.316407-.234375-.515625-.285156-1.339843.035156-1.84375.269532.257813.566406.527344.847656.796875.257813.496094.257813.496094.363282.554688-.070313.457031-.046875.539062-.140625.808594zm-.445313 4.445312c-.449218-.058594-.929687-.410156-.945312-.902344-.105469-.070312-.1875-.117187-.28125-.175781.1875-.261719.589844-.472656.824218-.71875 0-.457031.035157-.65625.34375-.996094.304688.023438.398438.023438.597657.222657-.175781.925781-.222657 1.65625-.539063 2.570312zm8.535156-3.671875c-.082031.023437-.269531.363281-.46875.550781-.25-.128906-.625-.363281-.578124-.667968-.058594-.023438-.082032-.058594-.117188-.09375.09375-.585938-.71875-.996094-1.238281-.878907-.210938.328125-.351563.410157-.695313.175781 0-.351562.046875-.65625.144532-.972656.023437.011719.058593.011719.105468.011719.09375-.203125.140625-.308594.339844-.414063.707031.246094 2.285156.589844 2.367188 1.632813.070312.082031.164062.175781.257812.257813-.046875.140624-.09375.269531-.117188.398437zm-.304687 5.054687c-.023437-.023437-.023437-.046874-.023437-.082031.164062-.351562.328124-.703125.503906-1.066406.023437.011719.074218.035156.109375.046875-.203125.375-.402344.738281-.589844 1.101562zm-17.417969-9.347656c-.128906.996094.496094 1.464844 1.390625 1.628906.011719-.023437.023438-.058593.035157-.082031.023437.011719.058593.023438.082031.023438.355469-.246094.554687-.316407.953125-.199219.046875.679688-.246094 1.152344-.046875 1.84375-.070313.199219-.363281.984375-.140625 1.089844-.46875.914062-.554688.960937-.882813 1.59375-.046875 0-.082031 0-.105469-.011719-.1875.222656-.28125.328125-.367187.585937.074219.082032.15625.164063.097656.296876.75 1.171874 2.105469 1.160156 3.238281.632812.386719.164062.539063.503906.738282.832031.648437.386719 1.367187.84375 1.863281 1.382813.695313.492187 1.140625 1.347656 1.824219 1.785156.554687.691406 1.09375 1.324219 1.8125 1.816406.203125.550782 1.804687 1.570313 2.273437 1.898438.023438.082031.789063.789062 1.011719.929687.261719.398438.589844.714844.980469 1.019531.410156.632813 1.140625 1.183594 1.835937 1.5 1.082032-.75-.046875-1.605468-.742187-2.273437-.1875-.539063-1.238281-1.128906-1.117188-1.644531-.25-.28125-.472656-.574219-.695312-.855469.046875-.199219-.835938-.984375-1.050781-1.253906-.257813-.925781-1.519532-1.890625-2.140626-2.582031-.191406-.117188-.671874-.316407-.519531-.644532-.269531-.246094.140625-.855468.425781-.949218.175782-.328126.339844-.65625.515626-.984376-.09375-.527343.199218-1.632812-.070313-1.984374.046875-.351563.046875-.351563.1875-.714844-.035156-.023438-.082031-.035156-.105469-.046875.105469-.410157.09375-.691407.296875-1.113281 1.328125.234374.09375 1.476562.339844 2.167968-.035156.082032-.058594.164063-.082031.246094.152344.304688.601562.480469.894531.65625.175781-.035156.367187-.070312.566406-.117188.257813-.363281.71875-.785156 1.09375-.914062.105469.164062 0 .363281.011719.5625.730469.410156.976562.269531 1.4375-.410156.351562 0 .613281.257812.90625.421875-.023438.316406-.035156.625-.035156.941406.023437.011719.070312.035156.105468.046875-.035156.105469.023438.164062.035157.292969-.105469.199219-.199219.398437-.292969.585937-.355469-.09375-1.542969-1.101562-1.863281-.855468-.128907-.046876-.246094-.082032-.351563-.117188-.1875.046875-.953125.410156-.964844.398438-.695312.410156-2.273437.5625-1.191406 1.675781.578125.304687 1.050782.691406 1.601563 1.054687.082031-.023437.507812.070313.789062.070313.011719-.023438.023438-.058594.035157-.082031.355468.046874.355468.046874 1.179687.023437.199219-.140625.421875-.152344.683594-.140625.011719-.023438.035156-.070312.046875-.105469.363281-.011719.625-.363281.90625-.574219-.023438-.023437-.023438-.046874-.023438-.082031.164063-.351562.328125-.703125.503906-1.066406.023438.011719.074219.035156.109376.046875.117187-.257812.246093-.515625.363281-.761719.082031-.621093.152343-1.433593.402343-2.019531.339844-.234375.679688-.46875 1.035157-.691406.234375-.445313.457031-.902344.707031-1.347656.824219-.644532 1.398438.1875 2.273438.164062.246093-.175781.609374-.257812.917968-.199219.742188-.257812 1.046875-1.433593.375-1.867187-.246094-.363282-1.34375-1.21875-1.707031-.75-.035156.152344-.070313.28125-.082031.421875-.140625-.246094-.140625-.246094-.304688-.375-.039062.035156-.0625.058593-.074218.082031-.539063-.105469-.976563.527344-1.199219.925781-.1875.128907-.425781.246094-.554688.449219-.222656-.050781-.339843-.085938-.539062-.214844.011719-.023437.023437-.058594.046875-.09375-.179688-.1875-.167969-.351562-.367188-.527344-.894531-1.394531-2.777344-2.414062-4.226562-3.09375-.375.269532-.542969.351563-.988282.421876-1.109374 1.183593-1.109374 1.183593-1.191406 1.21875-.316406.65625-.433594 1.042968-.410156 1.78125-.117188.1875-.238281.386718-.34375.578124-.117188-.023437-.234375.023438-.421875-.035156 0-.121094 0-.121094-.140625-.332031.082031-.65625.152344-1.3125.234375-1.957031-.023437-.011719-.046875-.035156-.070313-.070313.035157-.667969.351563-2.910156 1.292969-2.804687.519531-.644532 1.132813-1.898438.296875-2.578125-.414062-.128907-.519531-.09375-.636718-.128907-.046876.09375-.09375.1875-.128907.269532-.046875 0-.082031 0-.105469-.011719-.214843.199219-.472656.503906-.753906.550781-.355468.421875-.824218.679688-1.074218 1.207032-.28125 1.324218-.09375 2.804687-.574219 4.09375-.566407-.410157-.847657-1.054688-.929688-1.734376-.121093-.105468-.167969-.175781-.121093-.339843-.035157-.023438-.082032-.035157-.105469-.046875 0-.480469.34375-1.128906.507812-1.597656-.070312-.046876-.070312-.128907-.304687-.457032-.15625-.035156-.296875-.082031-.414063-.128906-1.023437-.117188-.859375.1875-1.199219.878906-.035156-.023437-.074218-.035156-.097656-.046875-.035156.035157-.070312.070313-.082031.09375-.941406-.046875-1.660156.671875-1.976563 1.527344-.082031 0-.082031 0-.164062-.09375.175781-.894531.421875-1.5625.8125-2.382813-.164062-.457031-.046875-.832031-.070312-1.300781.234374-1.125-.578126-1.394531-1.566407-1.371093-.117187.058593-.355469.46875-.566406.691406-.035156-.023438-.082031-.035156-.105469-.046875-.789062.621093-.929687 1.722656-.90625 2.648437-.191406.351563-.378906.714844-.542968 1.082032-.210938.175781-.496094.175781-.742188.375-.035156-.023438-.082031-.035157-.105469-.046876-.023437.035157-.035156.070313-.046875.09375-.035156-.023437-.070312-.035156-.09375-.046874-.355468.199218-.484375.421874-.695312.761718-.117188.164063-.375.867188-.554688.9375zm20.101563 12.339844c-.398438.832031-2.058594.480469-2.730469.210938-.070312-.234376-.140625-.46875-.199219-.703126.105469-.503906.375-2.40625 1.023438-2.5.433593.199219.433593.199219.683593.421876 0 .410156.515626.65625.777344.9375.847656.554687.800782.777343.445313 1.632812zm0 0" fill="#365e8e"/><path d="m231.910156 88.777344c.472656-.292969 1.191406-.445313 1.730469-.550782.140625.082032.140625.082032.367187.09375.035157.046876.058594.105469.082032.152344-.390625.304688-1.414063.632813-1.921875.585938-.152344-.117188-.152344-.117188-.257813-.28125zm-2.742187.492187c.128906-.023437.269531-.046875.398437-.046875.152344.140625.296875.292969.449219.445313.503906.28125.777344-.164063 1.140625.46875-.363281.316406-.742188.269531-1.164062.140625-.25-.433594-.4375-.691406-.824219-1.007813zm1.363281 4.621094c.15625-.410156.824219-.316406 1.050781-.035156-.25.210937-.789062.199219-1.050781.035156zm-2.953125-.644531c.152344.011718.152344.011718.660156.199218.257813-.070312.515625-.128906.765625-.1875.140625.316407.140625.738282.257813 1.089844-.199219.035156-.390625.082032-.589844.140625-.363281-.269531-.882813-.761719-1.128906-1.160156.011719-.035156.023437-.058594.035156-.082031zm-1.332031-1.113282c.070312-.035156.140625-.058593.199218-.070312.023438.023438.046876.046875.082032.082031.34375-.105469.648437-.234375.886718.058594-.179687.082031.105469.925781.140626.996094-.4375-.070313-1.085938-.726563-1.308594-1.066407zm2.53125-2.652343c-.09375.023437-.175782.046875-.257813.070312-.449219.703125-1.765625.902344-2.554687.84375-.261719.082031-.519532.164063-.789063.257813-.023437.058594-.046875.140625-.082031.210937.164062.328125.660156.925781 1.023438 1.09375.234374-.613281-.671876-.730469.234374-1.105469.648438.082032 1.121094.316407 1.707032.046876.070312-.492188.367187-.902344.742187-1.21875-.046875-.09375-.046875-.09375-.023437-.199219zm-4.875 3.191406c.199218.445313.402344.890625.613281 1.359375-.023437.011719-.058594.023438-.09375.046875-.210937-.457031-.414063-.914063-.613281-1.359375.035156-.023438.070312-.035156.09375-.046875zm-6.757813-4.1875c.363281.585937.613281.75 1.304688.503906.179687 0 .910156-.09375 1.027343.175781.117188-.023437.246094-.046874.363282-.046874.246094.234374.449218.269531.777344.375.046874.058593.976562.820312 1.097656.761718.035156.046875.070312.09375.117187.140625.292969.070313.800781.46875.929688.738281.210937-.035156.316406.152344.410156.328126.070313-.011719.152344-.035157.226563-.035157.023437.035157.046874.09375.070312.152344.023438-.011719.058594-.023437.082031-.023437.058594.058593.117188.128906.199219.09375.082031.09375.304688.484374.4375.425781.1875.222656.363281.457031.5625.691406.035156-.023437.070312-.035156.105469-.023437.132812.175781.132812.175781 1.203125 1.019531.304687.398437.625.761719.859375 1.21875.023437-.011719.058593-.011719.082031 0 .199219.339843.28125.363281.519531.832031.035157-.023438.070313-.011719.105469-.011719.09375.234375.058594.316407.140625.660157-.257813.117187-.542969.058593-.824219.058593-.023437-.035156-.035156-.082031-.046875-.105469-.105469.023438-.105469.023438-.269531-.011718-.144531.058594-.273438.140625-.402344.210937.011719.023438.023438.058594.035156.082031-.023437.011719-.070312.035157-.105468.046876.09375.679687.929687 1.21875.304687 1.804687.070313.234375.011719.527344-.140625.714844.082032.351562.472656 1.359375.929688 1.3125.011718.023437.035156.070312.046875.105469 1.015625.023437 2.261719.035156 3.027343-.738282-.011718-.105468.117188-.398437.199219-.46875-.023437-.046875-.035156-.070312-.046875-.09375.25-.339844.273438-.703125.25-1.125.035156-.023437.082032-.035156.105469-.046875-.023437-.035156-.035156-.082031-.046875-.105469.199219-.234374.175781-.597656.058594-.855468-.589844-.386719-1.011719-.609375-1.296875-1.234375 1.15625-.597657 2.390625-.726563 3.6875-.949219.09375.023438.5625-.105469.683593-.082031.90625-.175781 1.90625-.140625 2.753907-.515625 0-.046875-.011719-.09375-.023438-.117188.351563-.351562.234375-.820312.257813-1.3125-.398438-.890625-1.507813-1.375-2.210938-.503906.011719.023438.035156.070312.046875.105469-.121093.105469-.121093.105469-.273437.410156-.304688.152344-.585938.292969-.90625.292969-.046875-.09375-.082032-.175782-.128906-.246094.035156-.035156.058593-.058594.082031-.070312-.070313-.832032-.707031-2.265626-1.613281-1.175782.035156.15625.070312.296875.105468.449219-.117187.164063-.128906.269531-.222656.328125-.695312-.09375-1.4375.023438-2.132812-.023438-.035157-.070312-.058594-.140624-.082032-.1875.023438-.046874.058594-.09375.082032-.140624.507812.152343 1.050781.105468 1.554687-.128907.09375-.140625.09375-.140625.4375-.449219-.011719-.28125.070313-.375.152344-.644531.246093-.128906.507812-.246093.765625-.363281.316406.234375.730468.667969 1.128906.761719.035156.035156.070312.082031.09375.140625.332031 0 .8125-.105469 1.039062-.363282.046876-.28125-.070312-.339843-.320312-.363281-.023438-.082031-.058594-.164062-.09375-.234375.296875-.128906.625.210938.953125.128906.238281-.433593.378906-.492187.835937-.703124 0-.046876 0-.082032-.011718-.105469.226562-.292969.402344-.703125.226562-1.101563-.023437.011719-.058594.023438-.09375.046875-.332031-.375-1.296875-.480469-1.816406-.597656-.105469-.246094 0-.609375.167969-.796875-.039063-.121094-.144531-.507812 0-.578125-.191407-.375-.378907-1.136719-.824219-1.195313-1.109375.644532-2.238281 1.359376-3.394531 1.972657-.234375.058593-.492188.070312-.707031-.011719-.269532-.613281-.070313-1.035156.203124-1.585938 0-.152343 0-.28125 0-.410156.035157-.035156.058594-.058594.082032-.070312-.589844-.972656-1.484375-.105469-2.308594.246094-1.320312.199218-2.566406 1.21875-3.132812 2.382812.246093.316406.589843.503906.765624.878906-.398437.351563-.589843.773438-1.226562.855469-.800781-.457031-1.234375-.925781-1.550781-1.769531.28125-.140625.539062-.28125.824219-.398438.046874-.140625 0-.410156.117187-.460937-.070313-.164063-.140625-.328125-.226563-.46875-.433593-.375-.835937-.515625-1.328124-.808594-.023438.011719-.070313.035156-.105469.046875-.191407-.246094-.824219-.410156-1.144531-.269531-.351563-.445313-1.460938-.257813-1.941407-.222657-.246093.128907-1.378906.691407-1.167969 1.148438-.023437.011719-.058593.023438-.09375.046875.011719.023437.023438.058594.046876.09375-.222657.164063-.292969.210937-.386719.46875 0 .121094.058593.601563-.082031.660156.058593.140625.058593.292969.058593.433594zm6.757813 4.1875c-.023438.011719-.058594.023437-.09375.046875.199218.445312.402344.890625.613281 1.359375.035156-.023437.070313-.035156.09375-.046875.058594.058594.105469.128906.152344.210938.707031.152343 1.023437.914062 1.308593 1.488281-.070312.058593-.070312.058593-.09375.292969-.554687.316406-1.039062.789062-1.707031.765624-.023437-.035156-.035156-.082031-.050781-.105468-.105469 0-.199219-.011719-.316406-.011719-.433594-.269531-1.082032-.292969-1.578125-.378906-.117188-.269531-.398438-.152344-.566407-.339844-.023437.011719-.070312.035156-.105468.046875-.175782-.164062-.175782-.164062-.386719-.234375-.320313.316406.636719 1.1875.871094 1.375.363281.691406 1.035156 1.21875.976562 2.039063-.152343.269531-.625.714843-.601562.996093-.210938.175781-.421875.351563-.632813.550781-.8125-.023437-.980468-1.570312-1.238281-2.203124-.269531-.304688-.472656-.609376-.671875-.949219-.140625-.035157-1.894531 1.207031-1.964844 1.265625-.210937.035156-.449218.070312-.671875.117187-.011719.023438-.011719.035157-.035156.082031-.730469.082032-1.566406-.011718-2.296875-.011718-.375-.140625-.519531-.269532-.964844-.1875-.023437-.046875-.046875-.058594-.070312-.082032-.390625.058594-1.132813-.328124-1.308594-.644531-.035156 0-.070312 0-.105469.011719-.128906-.28125-.164062-.761719.023438-.996094 0-.046875-.011719-.09375-.023438-.128906.035157-.035156.058594-.058594.082031-.070312-.011718-.058594-.035156-.105469-.046874-.140626.648437-.671874-1.332032-1.714843.035156-2.382812.671875-.152344 1.296875.867188 1.601562 1.324219.355469.234375.355469.234375.613282.492187.035156-.023437.082031-.035156.105468-.046875.152344.128907.386719.507813.472656.542969.222657.503906 2.683594.246094 2.824219-.105469 1.203125-.046875-.070312-1.585937-.566406-1.773437-.234375-.386719-.5625-.65625-.871094-.996094-.023437.011719-.070312.035156-.105469.046875-.210937-.480469-.539062-.585937-.789062-.902344-.433594.117188-1.152344-.960937-1.328125-1.351562.046875-.269531-.035156-.550781.140625-.75-.09375-.199219.375-.761719.480469-.914063.320312-.140625.636719-.269531.957031-.398437.257812.597656.726562 2.417969 1.5625 2.734375.273438.339844.660156.65625.957031.972656.269531.46875.269531.46875.433594.65625.035156-.023438.082031-.035156.105469-.046875.332031.339844.671875.679687 1.003906 1.019531.316406-.011718.222656-.457031.210938-.632812.128906-.046875.257812-.082032.386718-.105469.046875.046875.09375.105469.140625.164063.15625-.070313.261719.175781.332031.257812.222657-.09375 1.105469.550781 1.28125.082031-.257812-.503906-.257812-.503906-.398437-.667969-.1875.023438-.71875-.28125-.859375-.410156-.023438.011719-.058594.023438-.082031.035156-.152344-.304687-1.011719-1.078124-.507813-1.40625 0-.046874-.011718-.09375-.023437-.128906.707031-.355468 1.554687-.011718 2.320312-.082031.011719.023437.023438.058594.046875.09375.660156-.011719.707032-.070313.929688.5625zm0 0" fill="#365e8e"/><path d="m81.898438 22.191406c-.023438-.035156-.046876-.082031-.058594-.105468.402344-.222657.800781-.457032 1.214844-.679688.011718.023438.035156.070312.058593.105469-.402343.222656-.8125.457031-1.214843.679687zm-2.941407 3.847656c-.261719-.457031-.507812-.914062-.742187-1.359374.011718-.011719.035156-.023438.070312-.039063.246094.4375.507813.894531.765625 1.351563-.046875.011718-.070312.035156-.09375.046874zm-.046875.09375c.011719-.035156.035156-.070312.046875-.09375-.261719-.457031-.507812-.914062-.742187-1.359374-.320313-.34375-.320313-.34375-.367188-.332032.34375.601563.695313 1.1875 1.0625 1.785156zm5.0625 2.71875c-.292968-.152343-.484375-.632812-.660156-.914062.058594-.199219-.566406-1.207031-.695312-1.453125.011718-.304687.179687-.597656.402343-.773437-.023437-.035157-.046875-.082032-.058593-.105469.023437-.011719.070312-.035157.105468-.058594 0-.445313.28125-.5625.625-.808594.328125.09375.421875.5625.421875.867188.222657.574219.402344 1.242187.554688 1.839843-.140625.492188-.296875 1.113282-.695313 1.40625zm-2.074218 1.960938c-.363282-.714844-.363282-.714844-.90625-1.640625.023437-.011719.070312-.035156.105468-.0625.308594.542969.625 1.09375.933594 1.632813-.046875.023437-.085938.046874-.132812.070312zm2.546874 4.621094c.210938.375.421876.75.644532 1.136718-.035156.023438-.070313.035157-.09375.046876-.222656-.386719-.433594-.761719-.648438-1.136719.035156-.011719.0625-.023438.097656-.046875zm.644532 1.136718c1.074218 1.960938 2.402344 3.765626 3.582031 5.640626.46875.28125.742187.011718 1.117187-.234376-.011718-.386718-.011718-.574218-.210937-.902343.023437-.023438.035156-.058594.058594-.070313-.046875-.082031-.09375-.152344-.117188-.222656-.058593-1.066406-.695312-2.039062-1.085937-3.003906-1.011719-1.863282-2.058594-3.75-2.988282-5.652344.28125-.65625 1.257813-1.007812 1.625-1.710938.445313-.328124.445313-.328124.578126-.480468-.0625-.105469-.0625-.105469-.011719-.199219-.085938-.257813-.695313-.457031-.910157-.835937.046876-.316407.046876-.316407.011719-.433594.023438-.011719.070313-.035156.109375-.058594-.027344-.035156-.039062-.070312-.050781-.09375.039063-.023438.097656-.046875.144531-.082031-.011718-.082031-.023437-.164063-.035156-.234375.058594-.046875.128906-.105469.199219-.164063-.046875-.609375.058593-1.195312.328125-1.734375-.070313-.164062.035156-.9375.203125-1.03125-.027344-.035156-.039063-.070312-.050781-.09375.023437-.011718.074218-.035156.109374-.058594-.011718-.023437-.035156-.046874-.035156-.082031.046875-.058593.046875-.191406.234375-.460937-.296875-.808594-.625-1.59375-1.046875-2.34375-.144531-.175782-1.109375-1.007813-1.273437-.925782-.425781-.292968-1.214844.128907-1.636719.269532-.035156-.035156-.058594-.046875-.082031-.070313-.472657.175781-.472657.175781-.777344.234375-.402344.222656-.800781.457032-1.214844.679688-.363281.691406-.269531 1.21875-.964843 1.605468-.164063-.292968-.339844-.597656-.503907-.890624.011719-.035157.035157-.070313.058594-.105469-.296875-.515625.082031-1.089844.128906-1.605469-.261719-.363281-.53125-.363281-.859375-.632812-.035156.023437-.070312.035156-.09375.046874-.777344-.707031-2.296875.105469-2.96875.65625-.070312.140626-.542968.984376-.449218 1.148438-.035157.023438-.082032.046875-.105469.058594.070312.339844.285156.585937.460937.890625.339844.023437.589844.363281.742188.644531.035156 0 .082031-.011719.128906-.011719.117188.105469.234375.222657.363281.339844.046875-.011719.046875-.011719.367188.332031.011719-.011718.035156-.023437.070312-.035156.246094.433594.503907.890625.765625 1.347656-.035156.023438-.070312.035156-.09375.046875-.023437.023438-.035156.058594-.046875.09375-.035156.09375-.035156.09375-.882812.714844-.214844.386719-.355469.46875-.378907.960937.328126.480469.566407.738282 1.179688.667969.011719.023438.046875.046875.082031.070313.175781-.046875.800781-.234375.929688 0 .023437-.011719.070312-.035156.105469-.046875.046874.046875.09375.105469.152343.152343.035157-.023437.082031-.046874.128907-.058593.011718.023437.046874.046875.082031.070312.046875-.035156.109375-.058593.167969-.070312.164062.09375.421874.46875.527343.542969.023438-.011719.070313-.039063.105469-.0625.308594.542968.625 1.09375.933594 1.632812-.050782.023438-.097656.046875-.132813.070312.105469.246094.238281.503907.367188.75 0 .445313-.566407.832032-.894531 1.078126-.378907-.210938-.425782-.890626-.8125-1.148438-.765626-1.007812-.882813-1.054688-1.097657-1.371094-.222656-.1875-.480469-.269531-.683593-.421875-.128907-.164062-.644532-.695312-.917969-.539062-.035157-.039063-.058594-.050781-.082031-.074219-.117188.011719-.421876.121094-.492188.011719-.035156.023437-.082031.046875-.105469.0625-.027343-.039063-.050781-.085938-.0625-.109375-.140625.023437-.140625.023437-.339843-.023438-.882813-.855468-1.238282-.328125-1.953126.414063.011719.023437.035157.070312.058594.105469-.09375.105468-.09375.164062-.082031.304687-.023437.011719-.046875.023437-.085937.046875.132812.714844.519531 1.394531.671874 2.121094.023438 0 .035157.011718.082032.023437.25.445313.507812.890625.765625 1.347657.035156-.023438.082031-.035157.144531-.046876.1875.128907.410156.269532.621094.402344.023437-.011718.046875-.035156.09375-.046875.214844.1875.566406.117188.835937.105469.285157.046875.285157.046875.957031.339844.023438-.011719.070313-.035156.105469-.058594.011719.023438.023438.046875.046875.09375.105469.011719.292969-.058594.363282.070312.484374-.175781.941406.164063 1.4375.164063.222656-.09375.269531-.1875.542968-.316406.539063.398437.492188.867187 1.128906 1.125.472657-.269531.765626-.726563 1.273438-.902344.527344.867187.527344.867187.644531 1.171875.261719.339844.472657.714844.695313 1.101562zm0 0" fill="#365e8e"/><path d="m127.472656 14.472656c.070313-.867187.648438-1.488281 1.496094-.890625 0 .316407-.214844.644531-.460938.832031-.375 0-.707031-.128906-1.035156.058594zm-1.800781.070313c-.011719-.445313-.035156-.878907-.035156-1.3125.011719-.011719.035156-.035157.058593-.035157 0 .222657.105469 1.207032-.023437 1.347657zm-6.867187 1.457031c-.011719-.4375-.035157-.871094-.035157-1.292969h.09375c-.035156.421875-.046875.855469-.058593 1.292969zm-.035157 1.734375c.070313-1.476563.070313-1.476563.035157-1.746094-.011719-.4375-.035157-.871093-.035157-1.292969h.09375c0-.070312.011719-.152343.035157-.222656-.046876 0-.09375 0-.117188 0-.011719.433594-.234375 3.039063-.011719 3.261719zm8.902344 3.460937c-.011719-.058593-.011719-.105468-.011719-.152343.234375-.152344.707032-.457031.789063-.726563.316406.046875.648437.09375.964843.128906-.023437.515626-1.339843.679688-1.742187.75zm-5.992187.117188c.292968-.433594.8125-1.042969 1.222656-1.328125.257812.011719.613281.128906.777344.296875-.542969.175781-.964844.65625-1.4375.996094-.199219.011718-.386719.023437-.5625.035156zm-.980469-.128906c.238281.070312.484375.152344.730469.222656-.035157.035156-.058594.070312-.09375.117188-.199219-.011719-.375-.035157-.550782-.035157-.097656-.1875-.097656-.1875-.085937-.304687zm9.328125 1.101562c-.4375-.011718-.847656-.035156-1.273438-.046875.777344-.011719 1.566406-.035156 2.367188-.035156v.105469c-.375-.011719-.730469-.023438-1.09375-.023438zm-1.695313-.023437c.566407 0 1.128907 0 1.707031.011719-.4375-.011719-.847656-.035157-1.273437-.046876-.339844-.011718-.339844-.011718-.433594.035157zm-4.34375-1.851563c.164063.457032.292969.679688.070313 1.125-.238282.164063-.980469.492188-1.121094.785156.625.011719 1.226562-.175781 1.824219-.292968.589843-.339844.589843-.339844 1.015625-.503906-.046875-.152344-.09375-.28125-.128906-.421876.070312-.492187.847656-.621093.847656-1.011718-.273438-.175782-.945313 0-1.261719.011718-.449219.273438-.695313.308594-1.246094.308594zm-8.007812 3.222656c.539062-.011718 1.070312-.035156 1.613281-.035156-.097656.140625-1.578125.070313-1.613281.035156zm8.441406.339844c-.117187-.175781-.234375-.339844-.351563-.503906.011719-.058594.035157-.117188.046876-.164062.90625-.316407 1.234374-.351563 1.554687-.503907 0-.035156.011719-.058593.035156-.09375h.398438c.332031.820313.046875.878907-.683594.925781-.304687.152344-.683594.292969-1 .339844zm-.128906 2.347656c-.046875-.046874-.09375-.070312-.117188-.105468.222657-.398438.492188-.925782 1.011719-.925782.105469.515626-.449219.902344-.894531 1.03125zm4.0625.339844c0-.421875 0-.832031 0-1.253906h.117187v1.253906c-.046875 0-.082031 0-.117187 0zm-.046875 2.0625c-.011719-.503906-.035156-1.007812.011718-1.523437-.011718.515625-.011718 1.019531-.011718 1.523437zm-8.042969.695313c-.152344-.152344-.058594-.871094-.058594-1.09375h.117188c0 .90625 0 .90625-.058594 1.09375zm2.753906.246093c-.175781-.269531-.058593-.625-.058593-.941406.105468-.328125-.035157-.890625-.035157-1.265625h.117188c.261719.515625.460937.539063 1.0625.679688.433593.433593-.660157.9375-.660157 1.210937-.046874 0-.09375 0-.117187 0-.09375.105469-.179687.210938-.261719.316406-.023437 0-.035156 0-.046875 0zm-.117187.375c.046875-.234374.046875-.234374.117187-.375-.175781-.269531-.058593-.625-.058593-.941406-.046876 0-.070313 0-.105469 0 .011719.4375.023437.871094.046875 1.316406zm7.9375-1.492187v2.453125c-.035156 0-.046875 0-.058594 0 0-.351562-.140625-2.265625.058594-2.453125zm-7.9375 1.492187c-.070313 1.945313-.070313 1.945313-.035156 2.085938.390624 0 1.132812-1.113281 1.132812-1.382812-.179688-.128907-.378906-.28125-.4375-.480469-.046875 0-.09375 0-.117188 0 0-.152344-.296874-.480469-.378906-.597657-.035156 0-.046875 0-.058594 0-.058593.140626-.058593.140626-.105468.375zm5.453125-4.632812c-.117188-.738281-.929688-1.210938-1.203125-.28125-.339844.128906-.375.609375-.269532.902344h.117188c.449219.890625-.5625 1.511718-1.339844 1.617187-.226562.257813-.460937.773438-.460937 1.113281.460937-.035156.554687-.070312.964843-.058593.777344.589843.765626 1.398437.09375 1.984375-.433593.164062-1.28125.375-1.28125.949218.339844-.011718.953126-.117187 1.28125 0v.105469h.117188v.117188c.039062 0 .074219.011719.121094.035156.234375.714844.550781.832031 1.292968.457031.046876-.269531.09375-.515625.152344-.773437.035156-.011719.058594-.011719.097656-.011719.351563-.84375.058594-1.921875.269532-2.839844-.011719-.503906-.035156-1.007812.011718-1.523437 0-.1875.011719-.375.035157-.550781 0-.410157 0-.820313 0-1.242188zm-8.089844 4.011719c0 .175781.058594.621093-.058594.738281-.011719.808594.011719 1.476562.128907 2.25.460937.503906.882812 1.234375 1.449218 1.609375.550782 0 .550782-.660156.976563-.871094.058593.046875.117187.09375.1875.152344.175781.449219.4375.625.871093.835937.953126-.070312 1.851563-.613281 2.828126-.730468.847656.425781.953124.648437 1 1.609375.058593.070312.117187.152343.1875.222656.660156 0 .835937-.597656 1.320312-.679687.035156-.058594.058594-.105469.09375-.152344.425781-.128906.460938-.738282.824219-.871094.035156-.117188.058593-.234375.09375-.339844.554687-.550781.613281-1.429687.671875-2.191406-.035156 0-.046875 0-.058594 0 0-.351562-.128906-2.265625.058594-2.453125.011718-1.3125.035156-2.613281.058594-3.929687-.070313-.375-.339844-1.007813-.777344-1.007813-.894532-.480469-1.648438-.65625-2.648438-.65625-.402344-.679687.457032-.679687.847656-.679687.105469-.046876.105469-.046876.433594-.035157.777344-.011719 1.566406-.035156 2.367188-.035156v.105469c.046875.152344 1.875.832031 2.214844.832031.28125-.175781.28125-.175781.449218-.199219.28125-.621094.152344-.785156-.105468-1.488281-.050782 0-.097657 0-.121094 0 0-.046875 0-.09375 0-.117187-.046875 0-.09375 0-.117188 0 0-.046876 0-.09375 0-.117188-.058594 0-.117187 0-.164062 0-.234375-.421875-.976563-.550781-1.425782-.609375-.316406-.542969-.941406-.046875-1.058593-.8125-.316407-.621094-.449219-.621094-1.09375-.832031 0-.09375 0-.175782.011719-.269532h.105468c0-.046874 0-.070312 0-.105468.222656-.117188.597656-.375.621094-.667969.613281-.234375.671875-1.195313.460938-1.746094-.046876 0-.070313 0-.105469 0-.234375-.398437-.578125-.339843-1.011719-.339843-.011719-.320313-.011719-.625-.011719-.929688.222657-.210938.515625-.621094.683594-.878906 1.375-.679688 1.671875-1.453125 1.292969-2.863282-.070313-.035156-.070313-.035156-.105469-.128906-.046875 0-.070313 0-.105469 0-.011718-.046875-.035156-.070312-.035156-.105468-.128906-.046876-.261719-.09375-.378906-.128907-.011719-.046875-.035156-.070312-.035156-.105469-.660157-.175781-.8125-.035156-1.292969.421876-.320313.15625-.992188.203124-1.273438 0-.046875-.222657-.128906-.375-.164062-.621094-.117188-.210938-.292969-.234375-.402344-.457032-.445313.035157-.65625 0-1.046875.234376-.105469.539062-.1875 1.222656-.386719 1.714843-.261719.375-.402343.503907-.449219.65625-.234374.070313-.316406.199219-.316406.457031-.035156 0-.058594 0-.09375 0v.09375c0 .222657.105469 1.207032-.035156 1.335938.058594.199219.117188.398438.1875.609375.117188.035156.117188.035156.28125.222656.269531-.011719.566406-.035156.648438-.328125.222656 0 .375-.445312.683593-.503906-.058593.28125-.058593.28125-.070312.714844.234375.566406.398437.953125-.34375 1.070312-.824219.292969-1.117188 1.113282-.847657 1.921875.34375.105469.730469.035157 1.097657.011719 0-.046875.011719-.070312.035156-.105469.046875-.011719.09375-.011719.152344-.011719.058593-.105468.070312-.222656.222656-.222656 0-.046875.011719-.070312.035156-.105468.210938-.105469.210938-.105469.777344-.222657.058594.375-.046875.679688-.28125.984375-.988281.222656-1.789063-.128906-2.652344.5625-.199219 0-1.316406-.046875-1.316406-.316406-.152344-.035156-.175781-.117188-.273437-.117188 0-.046874 0-.09375.011718-.128906.449219-.398437 1.15625-.667968 1.15625-1.382812-.316406-.679688-.390625-.808594-1.214844-.75-.257812.152344-.503906.328125-.8125.328125.035157-.316407.035157-.316407.109376-.480469.328124-.1875.75-.894531 1.117187-.894531.011719-.09375.09375-.117188.152344-.222657.070312-.011718.164062-.011718.257812-.011718.121094-.421875.296875-.492188.179688-.996094-.132813-.046875-.179688-.105469-.238281-.234375-.445313 0-1.070313.199219-1.492188.058594-.039062-.105469-.050781-.1875-.0625-.28125.378906-.292969.519531-.375.992188-.480469 0-.046875.011718-.070312.035156-.105469.058594-.011719.117187-.011719.1875-.011719 0-.046874 0-.09375 0-.117187.375-.070313.789062-.316406 1.035156-.585937.105469-.84375-.210938-1.03125-.976562-1.257813-.011719-.046875-.035157-.070313-.035157-.105469-.222656-.09375-.222656-.09375-.601562-.152344-.457031-.316406-.90625.390626-1.152344.683594-.402344.117188-1.097656.457032-1.507813.515625-.035156.117188-.046874.257813-.058593.386719.046875 0 .09375.011719.128906.035156.058594.210938.257813.457032.339844.703125h.15625c0 .035157.011719.058594.035156.105469.28125.035156.5625.070312.847656.117188.070313.515624-.835937.84375-1.015625 1.382812.050782.492188.226563.953125.4375 1.386719.683594.339843-.425781 1.160156-.730468 1.335937-.035157.070313-.046876.152344-.058594.234375-.046875 0-.09375 0-.117188 0-.234375.820313.035156.996094.71875 1.382813.1875.386718-.484375.832031-.707031 1.046875-.117187.164062-.257813.421875-.460937.457031-.046876-.117188-.070313-.222656-.105469-.328125.09375-1.28125.164062-2.652344.390625-3.917969.222656-.621094.28125-1.222656.058594-1.84375-.046876 0-.09375 0-.117188 0-.214844-.539062-.4375-1.066406-.707031-1.582031-.105469-.070313-.390625-.222656-.390625-.375-.1875 0-.375 0-.550782.011719-.355468.574218-.285156 1.195312-.332031 1.816406-.011719.070312-.035156.152344-.035156.222656-.035156.433594-.046875.867188-.058594 1.292969.046875.269531.046875.269531-.035156 1.746094-.046875.152343-.09375.292969-.117187.457031.210937.492188.234374.996094.257812 1.511719.222656.421875.34375.71875.34375 1.199219.269531.269531.339844.621093.445312.984374.210938.316407.496094.503907.707032.820313.175781 0 .351562 0 .460937.164063-.191406.199218-.824219.316406-1.0625.386718-1.128906.210938-2.164062.292969-2.210937.339844-.097656.128906-1.589844.058594-1.613282.035156-.378906.046875-.742187.09375-1.109374.128906-.199219.117188-.375.257813-.554688.386719-.070312.386719.496094.683594.8125.730469.015625.070312.039062.152344.0625.234375.164062.011719.621094.105469.621094.339844.332031.105469.589844.316406.882812.457031.179688.5625 1.957032.117188 2.109375-.351562.316407-.046876 1.683594-.492188 1.683594-.785157.117187-.058593.496094-.214843.496094-.355469.613281-.339843 1.152343-.539062 1.835937-.539062.011719.046875.035156.09375.058594.128906.257812.105469.355469.175782.566406.398438-.09375.128906-.273437.1875-.4375.257812-.011718.039063-.035156.0625-.035156.109375-.046875 0-.070312 0-.105469 0-.105469.210938-.117187.328125-.117187.5625h.117187c.058594.574219.71875 1.054688 1.285157.867188.222656-.398438.492187-.925781 1.011718-.925781.105469.515624-.449218.902343-.894531 1.03125-.210937.210937-.601563.316406-.871094.421874-.214843.292969-.214843.292969-.378906.726563.261719.515625.460937.539063 1.0625.679687.433594.433594-.660156.9375-.660156 1.210938-.046875 0-.09375 0-.117188 0-.09375.105469-.179687.210938-.261719.316406.070313.117188.378907.445313.378907.597656h.117187c.058594.1875.257813.339844.433594.480469 0 .269531-.738281 1.382813-1.128906 1.382813-.046875-.128906-.046875-.128906.035156-2.085938-.011719-.445312-.035156-.882812-.046875-1.316406h.105469c.105468-.328125-.035156-.890625-.035156-1.265625-.070313-.292969-.152344-.550781-.164063-.867187-.117187-.257813-.234375-.503907-.34375-.761719-.046875-.011719-.09375-.035157-.117187-.035157-.210938-.621093-.742188-.585937-1.316407-.585937v.117187c-.730469.234376-.648437 2.496094-.660156 2.976563.058594.964844.058594.964844 0 1.152344zm0 0" fill="#365e8e"/><path d="m169.746094 25.734375c-.023438-.128906-.023438-.128906.035156-.328125.046875 0 .09375.011719.128906.023438.035156-.070313.058594-.140626.09375-.199219.191406-.011719.191406-.011719.367188.023437.023437-.046875.046875-.058594.070312-.082031.105469.023437.210938.058594.328125.105469.566407-.128906 1.191407-.023438 1.746094.152344-.214844.292968-.824219.679687-1.167969.855468-.515625-.09375-1.105468-.386718-1.601562-.550781zm-1.976563.257813c.398438.28125.777344.503906 1.28125.445312.191407-.199219.332031-.070312.414063.140625-.308594.691406-.777344.609375-1.449219.46875-.28125-.972656-.28125-.972656-.246094-1.054687zm4.734375 4.503906c.058594-.164063.058594-.164063.210938-.339844.070312.035156.128906.070312.210937.117188-.070312.082031-.128906.1875-.1875.292968-.09375-.046875-.164062-.058594-.234375-.070312zm-2.546875.011718c.15625-.386718.308594-.773437.472657-1.160156.035156.011719.082031.035156.140624.058594-.164062.386719-.339843.761719-.503906 1.148438-.035156-.023438-.074218-.035157-.109375-.046876zm-5.519531-2.21875c-.074219-.433593.46875-.515624.765625-.574218.09375-.140625.1875-.164063.351563-.1875-.199219.457031-.589844.914062-1.117188.761718zm8.867188 5.230469c-.023438-.023437-.046876-.046875-.0625-.082031.050781-.105469.097656-.222656.15625-.304688.269531-.011718.269531-.011718.492187.058594.105469.164063.058594.386719-.09375.519532-.164063-.082032-.339844-.132813-.492187-.191407zm-2.863282-4.171875c.011719-.140625.023438-.285156.046875-.414062-.269531-.316406-.894531-.445313-1.257812-.246094.035156.082031.1875.164062.515625.542969.046875.375-.140625.621093-.292969.960937-.460937.527344-1.085937.339844-1.214844 1.230469.273438.117187.542969.257813.8125.386719.332031-.128906.753907-1.019532.90625-1.289063.15625-.398437.308594-.785156.484375-1.171875zm1 3.621094c.25-.492188.261719-.785156.8125-.761719.023438-.046875.035156-.082031.046875-.105469.214844.011719.214844.011719.34375.070313-.152343.328125-.859375.785156-1.203125.796875zm-4.96875-1.417969c.070313-.410156.257813-.667969.367188-1.007812-.296875-.75.421875-1.679688.679687-2.371094-.070312-.035156-.117187-.058594-.1875-.058594-.117187.082031-.515625.585938-.601562.621094-.046875.105469-.644531.554687-.859375.765625-.304688.011719-.503906.199219-.707032.410156.15625.070313.308594.152344.472657.234375.023437-.023437.046875-.023437.082031-.035156.09375.070313.1875.164063.296875.257813-.011719.023437-.011719.058593-.011719.105468.28125.128906.140625.9375.328125 1.265625.035157-.070312.082031-.128906.140625-.1875zm-2.425781-.503906c.09375-.140625.1875-.28125.28125-.398437.191406.082031.25.175781.449219.292968-.011719.011719 0 .046875 0 .082032-.210938.082031-.210938.082031-.28125.164062-.167969-.046875-.308594-.09375-.449219-.140625zm2.074219 1.476563c.128906-.328126.128906-.328126.199218-.785157.046876-.058593.082032-.128906.140626-.175781-.023438.375-.011719.691406-.128907 1.066406-.09375-.105468-.09375-.105468-.210937-.105468zm1.519531-6.800782c-.296875-.164062-.542969-.28125-.753906 0-.046875-.023437-.082031-.035156-.121094-.035156-.046875.070312-.128906.070312-.328125.1875-.105469.164062-.199219.339844-.292969.515625-.367187-.304687-.730469-.609375-1.097656-.902344-.304687 0-.304687 0-.621094.070313-.25.527344-.261719.703125-.472656 1.195312-.210937.269532-.425781.527344-.648437.808594-.847657-.257812-1.316407 1.476562-1.328126 2.03125.375.328125.539063-.011719.824219.117188.023438-.046876.035157-.082032.046875-.105469.023438.011719.058594.023437.09375.046875.128906-.140625.269532-.128906.433594-.070313-.351562.644531-1.046875.75-1.328125 1.382813.222656.339844-.226563.808594 0 1.078125 0 .1875.011719.386719.011719.597656.410156.128906.871094.363281 1.234375.046875.058593.023438.105469.046875.164062.070312.214844-.199218.53125-.210937.8125-.152343.023438-.046875.046875-.058594.070313-.082031.285156.140624.578125.292968.863281.457031.011719-.023438.035156-.046875.058594-.070313.023437.011719.070312.035156.105469.046875.175781-.105469.304687-.210937.515624-.175781.058594-.09375.132813-.175781.191407-.257812.128906-.328126.128906-.328126.199219-.785157-.1875-.328125-.035157-1.136719-.332032-1.265625 0-.046875 0-.082031.011719-.105468-.105469-.09375-.199219-.1875-.292969-.257813-.035156 0-.058594.011719-.082031.035156-.152344-.082031-.316406-.175781-.472656-.234375.191406-.210937.402343-.398437.707031-.410156.214844-.222656.8125-.660156.859375-.765625.082031-.035156.484375-.539063.601563-.621094.058593.011719.117187.035157.1875.058594-.246094.691406-.976563 1.621094-.683594 2.371094-.105469.339843-.292969.597656-.363282 1.007812-.023437.375-.011718.691407-.128906 1.066407 0 .117187-.011718.234374-.011718.363281.152343.082031.304687.1875.457031.28125.132812-.058594.132812-.058594.285156-.304688.71875-.082031.730469-.09375 1.199219.375-.011719.023438-.011719.058594-.011719.105469.1875.117188.226563.203125.660156.578125.378907.210937 1.058594.222656 1.320313-.175781.058594.011718.128906.035156.199218.070312.105469 1.195313.707032.644532 1.601563.925782.023437-.035157.035156-.082032.046875-.105469.105469.023437.199219.058593.292969.09375.414062-.09375.554687.070312.945312.234375.046875.164062.023438.46875.1875.539062-.011719.023438-.023437.058594-.023437.082032.058594.058593.128906.105468.09375.199218.128906.023438.257812.070313.410156.117188.34375-.1875.777344-.550782 1.074219-.808594.105469-.234375.199219-.46875.304687-.691406-.070312-.257813-.070312-.257813-.035156-.46875-.035156-.023438-.070312-.035156-.09375-.046875.058594-.402344-.269531-1.175781-.554688-1.457031.238282-.539063.871094-.574219 1.191407-1.007813.023437.011719.058593.023437.09375.046875.601562-.539062 1.1875-1.042969 1.566406-1.734375-.117187-.492187-.636719-1.820313-1.308594-1.761719-.140625.199219-.140625.199219-.398437.398438-.273438.632812-.011719 1.328125-.648438 1.785156-.257812.410156-.367187.386719-.777344.609375-.09375-.046875-.1875-.082031-.269531-.117187.410157-.726563.800781-1.417969 1.105469-2.195313-.035156-.117187-.246094-.433594-.222656-.503906-.566406-.304688-.542969-.550781-1.191406-.480469-.128907.363281-.128907.445312-.046876.84375-.398437.953125-.398437.953125-.554687 1.140625-.46875-.410156-.117187-1.398437-.621094-1.902344-.683593-.328125-.683593-.328125-.894531-.492187.140625-.210938.1875-.175782.457031-.222656.023438-.046876.035157-.082032.046875-.105469.117188.058593.402344-.070313.496094-.175781.164062 0 .28125-.035157.410156-.152344.472656-.023438 1.050782-.46875 1.554688-.574219.402344.175781.460937.257813.871094.503906.671874.84375 1.15625.726563 2.191406.644531.1875-.421874.410156-.832031.4375-1.289062-.039063-.023438-.074219-.035156-.097656-.046875.023437-.035156.035156-.070313.046874-.09375-.046874-.035156-.082031-.070313-.128906-.082031 0-.035156 0-.070313.011719-.09375-.046875-.035156-.082031-.070313-.128906-.082032-.09375-.445312-.8125-.515624-1.199219-.632812.035156-.070312.058594-.144531.09375-.191406.023438.011718.070312.035156.105469.046875.046875-.070313.152343-.09375.589843-.421875-.035156-.082032-.035156-.082032.105469-.503906.011719-.386719.011719-.761719.011719-1.136719-.035156-.023438-.070312-.035157-.09375-.046875.023438-.035156.035156-.082032.046875-.105469-.035156-.023437-.082031-.035156-.105469-.046875-.011718-.082031-.023437-.175781-.023437-.257812-.046875-.023438-.074219-.035157-.097657-.046876.023438-.152343-.070312-.246093-.175781-.351562.011719-.058594.023438-.117188.035157-.175781-.105469-.09375-.105469-.09375-.46875-.222657-.046876.023438-.09375.070313-.152344.117188-.625 0-1.179688.070312-1.484375.632812-.023438.28125.046875.820313.035156.972657-.035156 0-.046875.011719-.082031.035156-.203125.445313-.496094.75-.730469 1.171875-.402344-.058594-.402344-.058594-.882813-.210938-.238281.023438-.484374.070313-.730468.105469-.367188-.105469-.367188-.105469-.4375-.082031-.492188-.070312-1.449219-.503906-1.894532-.328125-.058593-.058594-.117187-.117187-.164062-.175781.046875-.480469.269531-.9375.445312-1.394532-.105468-.082031-.398437-.257812-.328124-.386718-.058594-.082032-.128907-.105469-.09375-.199219-.25-.140625-.25-.140625-.285157-.222656-.210937-.117188-.210937-.117188-1.351562-.492188-.214844.1875-.753907.515625-1.0625.5625-.234375.527344.226562.925781-.011719 1.476563-.046875-.023438-.082031-.035156-.105469-.046875-.28125.234375-.929687.070312-1.28125.058593-.53125.503907-.824219 1.476563-.320312 2.066407.246093.070312.496093.152343.742187.246093.023438-.035156.046875-.058593.070313-.082031.4375.046875 1.203125.058594 1.097656.609375zm6.839844 13.699219c.449219.175781.882812.351563 1.332031.550781-.414062-.152344-.992188-.292968-1.332031-.550781zm-7.773438.339844c.871094-2.089844.871094-2.089844.945313-2.148438.09375.234375-.730469 1.808594-.859375 2.113281-.039063.011719-.0625.023438-.085938.035157zm2.757813 4.210937c-.308594-.445312-.554688-.714844-.484375-1.253906-.210938-.742188-.683594-.742188-.398438-1.585938.351563-.328124.882813-.902343.859375-1.40625-.222656-.257812-.222656-.902343-.046875-1.207031.492188-.023437 1.222657.351563 1.472657.820313.316406.152344.597656.304687.847656.550781.492187.878906.644531 1.980469.222656 2.945313-.601562.515624-1.332031 1.042968-2.085938 1.289062-.117187-.070312-.257812-.117188-.386718-.152344zm-9.785156-4.152344c-.578126-.445312-.742188-.597656-.742188-1.347656-.222656-.941406.433594-1.714844.90625-2.429687.210938-.035157.421875-.058594.625-.082031.433594.1875.683594.375 1 .480468.292969-.046875.601562-.128906.894531-.09375.011719-.023437.023438-.058594.035157-.082031.234374-.011719.484374-.011719.730468-.023437.4375.597656-1.175781 1.757812-1.589844 2.300781-.199218.445312-.4375 1.535156-1.082031 1.417969-.011719.023437-.023437.058593-.035156.082031-.226563-.046875-.226563-.046875-.742187-.222657zm1.589843.949219c.023438-.023437.046875-.023437.082031-.035156.433594.1875.894532.386719 1.339844.585937-.011718.023438-.023437.058594-.035156.082032-1.304688-.550782-1.304688-.550782-1.386719-.632813zm1.386719.644531c.082031.082032.226562.164063.167969.28125.023437.011719.058593.023438.09375.046876.011719.117187.023437.234374.035156.375.09375.105468.445313.386718.375.554687 1.011719.375 1.601563.386719 2.144531-.648437.8125-.785157 1.011719-1.183594 1.234375-2.25.871094-2.089844.871094-2.089844.945313-2.148438.140625-.328125.28125-.65625.433594-.960938.625-.1875 1.859374.222657 2.542968.375.308594.152344.613282.304688.941406.457032.847657.1875 1.367188.269531 1.945313.964844.128906.117187.90625.714843.835937.867187.035157.023437.070313.046875.128907.082031.449219.175782.882812.351563 1.332031.550782.304688-.257813.421875-.222657.632812-.714844-.035156-.257813-.046874-.515625-.082031-.75-.199219-.613282-.328125-.777344-.316406-.882813-.835937-.925781-.789063-1.089843-2.003906-1.160156-.988281-.410156-2.035157-.667969-3.011719-1.136719-.472656.1875-1.496094-.503906-2.003906-.304687-.386719-.164063-.480469-.539063-.707032-.878907-.632812-.542968-.742187-.566406-1.542968-.695312-.328125.496094-.328125.496094-.515625.671875-.882813.234375-1.980469-.507813-2.945313-.339844-.46875-.15625-.707031-.167969-1.222656-.15625-.320312-.140625-1.828125-.796875-2.15625-.667969-.082031-.035156-2.636719-1.195312-2.824219-.761718-.039062-.023438-.085937-.023438-.132812-.023438-.328125.527344.058593.644532.046875 1.148438.023437.011718.074218.035156.109375.046875-.011719.023437-.035157.070312-.050781.105469.132812.082031.132812.082031.4375.566406-.011719.023437-.023438.058594-.046876.09375.257813.269531.28125.503906.460938.878906.691406.304688 1.433594.527344 2.09375-.023438.554688-.082031.835938-.023437.917969-.058593 1.460937.234375 2.945312.058593 4.347656.585937.011719-.023437.023437-.058594.035156-.082031.105469.046875.210938.105469.328125.175781 0 .105469 0 .105469-.398437 1.21875-.179688 1.089844-.910157 2.078125-1.4375 3.0625-.378907.386719-1.355469.023438-1.789063-.128906-.601562.058594-.96875.117188-.933594.808594.0625.058594.109376.128906.15625.199218.023438-.023437.046876-.023437.082032-.035156.433594.1875.894531.386719 1.339844.585938 0 .046875-.011719.070312-.023438.105468zm0 0" fill="#365e8e"/><path d="m42.617188 54.984375c.363281.292969.363281.375.882812.832031-.320312-.246094-.625-.503906-.941406-.75.011718-.023437.023437-.046875.058594-.082031zm6.144531-1.394531c-.28125-.222656-.539063-.433594-.8125-.65625-.375-.398438-.375-.398438-.457031-.574219.023437-.023437.046874-.058594.070312-.09375.421875.375.859375.761719 1.292969 1.148437-.035157.070313-.070313.117188-.09375.175782zm-.8125-.65625c.226562.234375.484375.480468.730469.714844.023437-.023438.046874-.035157.09375-.058594-.292969-.222656-.550782-.433594-.824219-.65625zm9.539062.609375c-.410156-.316407-.835937-.632813-1.234375-.9375.023438-.023438.035156-.046875.070313-.082031.199219.175781 1.140625.820312 1.164062 1.019531zm2.214844-.644531c-.390625-.328126-.835937-.632813-1.140625-1.03125.398438.316406.796875.621093 1.210938.9375-.023438.035156-.046876.070312-.070313.09375zm-2.214844.644531c.296875.199219.390625.421875.566407.703125.375.316406.753906.632812 1.128906.960937.695312.773438 1.25 1.480469 1.765625 2.371094.886719.738281 2.921875 2.25 3.945312.984375-.011719-.082031-.011719-.082031.191407-.609375-.085938-.175781-.625-.984375-.402344-1.253906-.421875-.515625-.953125-.953125-1.484375-1.375-.871094-.832031-.871094-.832031-.894531-.925781-.105469-.011719-.105469-.011719-.953126-.609376-.339843-.105468-.671874-.1875-.988281-.292968-.226562-.199219-.449219-.398438-.660156-.585938-.390625-.328125-.835937-.632812-1.140625-1.03125-.378906-.316406-.554688-.449218-.992188-.601562-1.410156-1.078125-2.964843-2.144532-4.214843-3.398438.011719-.035156.011719-.070312.046875-.105468-.398438-.457032-.789063-.90625-1.164063-1.363282-.203125-.164062-.929687-.632812-.957031-.855468-.515625-.246094-.835938-.914063-1.175781-1.347657-.234375-.726562-.835938-1.3125-1.261719-1.949219-.503906-.152343-1-.304687-1.492188-.457031-.613281.28125-1.144531.964844-1.601562 1.445313-.402344.1875-.34375.714844-.367188 1.066406.4375.539062 1.390626 1.089844 1.578126 1.757812.765624.785157 1.144531.914063 1.671874 1.949219.484376.480469.777344.890625 1.074219 1.5-.132812.164063-.25.328125-.367187.492188-.128906.714843 1.011718 1.691406.554687 2.066406-.226562-.140625-.484375-.386719-.742187-.410156-.175782-.308594-.496094-.578125-.765625-.8125-.140625-.515625-.648438-1.171875-1.023438-1.535157-.261719-.84375-1.238281-.527343-1.816406-.269531-.742187.914063-.835937 1.007813-.222656 2.050781.140625.613282.117187.800782.625 1.210938.210937-.175781.71875-.398438.988281-.5625.292969.046875.484375.304688.660156.515625.421875.375.859375.761719 1.296875 1.148437-.050781.058594-.074219.117188-.097656.164063-.035156.023437-.070313.035156-.09375.058594-.246094-.234375-.492187-.480469-.730469-.714844-.375-.398437-.375-.398437-.457031-.574219-.199219-.105468-.402344-.210937-.601563-.304687-.269531.164062-.386718.292969-.457031.585937.234375.304688 1.457031 1.78125.621094 2.074219-.222656-.175781-.445313-.351563-.660156-.527344.011719-.035156.011719-.070312.050781-.09375-.765625-.667969-.613281-1.558593-1.839844-1.429687-.246094.070312-1.777344.714844-1.824218.679687-.140626.175781-.28125.351563-.398438.515625.011719.035156.023438.058594.058594.09375-.214844.398438-.058594.714844.164062 1.054688.363282.292968.363282.375.882813.832031.601562.484375 1.414062.730469 1.753906 1.480469-.246094.902344-.742187.550781-1.402344.902344-.082031-.023438-.140625-.058594-.210937-.09375-.175782.105468-.351563.199218-.519532.292968-.128906.28125-.246093.5625-.363281.855469.222657.410156.246094.5625.410157.773437.226562.753907.308593 1.257813 1.097656 1.609376.445312.445312 1.472656 1.40625 2.152344 1.089843.027343.023438.0625.023438.097656.046875.09375-.058594.527344-.351562.621094-.28125.285156-.28125.578124-.574218.882812-.855468.011719.011718.050781.011718.085938.023437.539062-.667969-.378907-1.28125-.613282-1.773437.023438-.023438.035156-.046876.058594-.070313-.09375-.117187-.164062-.09375-.105469-.269531-.117187-.210938-.046875-.421875-.1875-.597656.035157-.105469.035157-.105469.128907-.140626.941406.808594 1.421874 1.925782 2.320312 2.757813.164062.339844.515625.550781.738281.84375.109375.375.367188.972656.648438 1.242187-.023438.035157-.046875.082032-.046875.105469.683594.820313-.292969 1.679688.625 2.417969.4375-.210938 1.210937-1.339844.941406-1.75.023438-.023438.035156-.046875.058594-.070312-.058594-.09375-.128906-.175782-.175782-.257813.023438-.023437.035157-.046875.070313-.082031-.035156-.023438-.058594-.046875-.082031-.070313.023437-.023437.046875-.058593.070312-.09375-.035156-.023437-.070312-.058593-.09375-.070312.082032-.164063.046875-.339844-.011718-.527344.023437-.023437.046874-.058594.070312-.09375-.046875-.058594-.09375-.117187-.140625-.1875.011719-.035156.011719-.070313.046875-.105469-.164062-.316406-.484375-.691406-.367188-1.066406-.210937-.304688-.410156-.609375-.351562-1.007812-.292969-.234376-.449219-.742188-.601562-1.058594-.292969-.292969-.585938-.585938-.859376-.878906-.222656-.339844-.351562-.75-.660156-1.007813.011719-.035156.011719-.070313.035156-.09375-.117187-.117187-.269531-.210937-.234374-.375-.433594-.339844-.707032-.855469-1.09375-1.253906-.023438-.070313-.023438-.070313.199218-.367188.472656.378907.824219.765625 1.226563 1.199219.140625-.011719.292969-.035156.445312-.058594.199219-.246094.402344-.503906.625-.738281.707031.011719 1.378907.855469 1.660157 1.429687.316406.351563.636718.679688.964843 1.019532.71875.480468 1.425781.773437 2.285157.972656.730468-.433594.660156-1.101562.613281-1.804688-.953125-.761718-.953125-.761718-1.671875-1.417968-.425782-.566406-.847656-1.164063-1.519532-1.46875-.695312-.703125-1.378906-1.40625-2.0625-2.109375-.011718-.128907-.011718-.128907.128907-.410157.214843-.023437.707031.105469.800781-.023437.425781.09375.765625-.480469.921875-.808594-.039063-.027343-.050781-.0625-.0625-.097656.050781-.105469.109375-.199219.167969-.304687-.023438-.058594-.058594-.117188-.070313-.175782.210938-.550781-.660156-1.417968-1.027343-1.757812-.269532-.082032-.269532-.082032-.46875-.246094-.035157.023438-.082032.046875-.105469.082031-.109375-.082031-.496094-.28125-.625-.234375-.367188-.421875-.824219-.902344-1.023438-1.441406-.320312-.320312-.636719-.625-.945312-.929688.023437-.035156.058593-.070312.109375-.105468.691406.1875 1.246094.882812 1.800781 1.328125 1.398437 1.441406 2.929687 2.683593 4.578125 3.796875.34375.355468.695312.707031 1.050781 1.058594.222657.175781 1.164063.820312 1.1875 1.019531zm0 0" fill="#365e8e"/><path d="m205.507812 57.15625c.097657.035156.097657.035156.449219.398438.292969.292968.601563.585937.90625.890624l.035157.035157c-.023438.023437-.046876.046875-.058594.058593-.445313-.433593-.882813-.867187-1.320313-1.289062-.011719-.046875-.011719-.070312-.011719-.09375zm1.390626 1.3125c.070312-.011719.730468.234375 1.109374.292969.386719-.117188.574219-.246094.894532-.527344.246094-.984375-.707032-2.21875-1.109375-2.992187-.316407-.421876-1.246094-.574219-1.707031-.714844-.199219-.035156-.433594-.011719-.589844-.164063.144531-.152343.296875-.292969.4375-.421875.023437.023438.046875.046875.058594.058594.035156-.035156.058593-.058594.105468-.082031.035156.011719.058594.023437.09375.046875.683594-.691406 1.519532-1.265625 2.414063-1.640625.238281-.246094.484375-.492188.71875-.726563.09375-.285156.082031-.742187.285156-.941406-.027344-.023438-.050781-.046875-.0625-.058594.109375-.1875.203125-.375.308594-.539062-.117188-.492188-.683594-1.171875-1.144531-1.324219-.5625.09375-1.363282.316406-1.882813.550781-.199219-.199218-.917969-.070312-1.070313.199219.140626.46875.257813.984375.515626 1.429687-.152344.175782-.152344.175782-.703126.621094-.886718.132813-1.414062 1.492188-2.273437 1.785156-.261719-.035156-.484375-.035156-.695313-.210937-.554687-.035156-.917968-.492187-1.472656-.585937-.554687-.375-.953125-.773438-1.636718-.960938-.375-.367188-.742188-.730469-1.128907-1.09375-.53125-.082031-.871093.820312-.71875 1.246094-.226562 1.007812-.191406 1.089844-.296875 1.546875.058594.117187.117188.433593.011719.539062.117187.152344.226563.328125.332031.492188.164063-.070313.292969-.023438.46875-.164063.695313-.105468 1.671875.386719 2.179688.878906-.742188.667969-1.636719.960938-2.507813 1.480469-.695312-.105469-1.4375.363281-2.121093.234375-.585938.175782-.800782.175782-.929688.257813-.023438-.023438-.046875-.046875-.058594-.058594-.398437.210937-.824218-.09375-1.210937.035156-.273438-.023437-.542969-.023437-.8125-.023437-.414063.1875-1.933594-.140625-2.285157-.492188-.035156.011719-.046874.035156-.070312.058594-.058594-.023438-.128906-.035156-.191406-.058594-1.246094.257813.109375 1.476563.742187 1.476563.367188.164062.800781.246093 1.132813.398437.835937-.105468 1.507812.222656 2.273437.457032.28125-.09375.917969.128906 1.210938.234374.402343-.046874 1.765625-.398437 2.0625-.210937 1.011719-.363281 1.363281-.433594 1.90625-.609375.988281-.539062 1.542969-.949219 1.554687.351562-.128906.515626.09375 1.21875-.210937 1.710938.105469.378906.011719 1.410156-.179688 1.714844.214844.339844-.222656.785156-.035156 1.160156-.070313.410156-.058594 1.359375-.316406 1.722656.175781.285156-.105469.742188.082031.917969-.210938.269531.082031 1.066406-.070312 1.21875.023437.023437.058593.046875.082031.082031-.046875.082032-.082031.1875-.128907.292969.046876.152344.257813.550781.128907.667969.152343.316406.4375.597656.695312.84375.035157-.035156.046875-.058594.082031-.058594.199219.117188.402344.234375.601563.351562.976563.1875 1.023437 1.808594 2.058594 1.796876.613281-.609376.132812-1.65625.121093-2.453126-.121093-.257812-.144531-.539062-.179687-.820312.035156-.175781-.339844-1.839844-.269531-1.910156-.046875-.128906-.234375-.503906-.128906-.609375-.128907-.34375-.152344-.660157-.058594-1-.332032-.539063-.695313-2.355469-.484375-3.046875-.09375-.257813-.09375-.257813-.117188-.492188.246094-.578125-.128906-1.257812.152344-1.808594-.035156-.140624-.1875-.515624-.070313-.632812-.035156-.046875-.058593-.09375-.082031-.128906.105469-.398438.070313-2.464844.929688-1.617188.035156-.035156.058593-.046875.09375-.058594.214843.058594.4375.09375.589843.246094.035157-.035156.058594-.046875.09375-.058594.140626.09375.28125.199219.425782.316407.257812-.046875.46875.105469.667968.257812.097657.035157.097657.035157.449219.398438.292969.292969.601563.585937.90625.890625.011719.011718.023438.023437.035157.035156zm0 0" fill="#365e8e"/><path d="m22.796875 119.179688c1.332031 0 2.425781-1.082032 2.425781-2.417969 0-1.324219-1.082031-2.414063-2.425781-2.414063-1.328125 0-2.425781 1.078125-2.425781 2.414063 0 1.324219 1.085937 2.417969 2.425781 2.417969zm0 0" fill="#365e8e"/><path d="m231.320312 119.179688c1.332032 0 2.425782-1.082032 2.425782-2.417969 0-1.324219-1.082032-2.414063-2.425782-2.414063-1.328124 0-2.425781 1.078125-2.425781 2.414063 0 1.324219 1.097657 2.417969 2.425781 2.417969zm0 0" fill="#365e8e"/><path d="m15.308594 135.667969-.09375-1.113281.90625-.28125c-.28125-.152344-.53125-.410157-.730469-.761719-.210937-.363281-.328125-.761719-.375-1.195313-.085937-.929687.269531-1.785156 1.070313-2.59375.800781-.796875 2.144531-1.277344 4.039062-1.453125 2.070312-.175781 3.648438.011719 4.722656.585938 1.070313.574219 1.660156 1.429687 1.753906 2.566406.09375 1.011719-.210937 1.832031-.917968 2.476563-.707032.632812-1.648438 1.007812-2.839844 1.113281l-.128906-1.453125c.929687-.082032 1.613281-.292969 2.050781-.644532.433594-.351562.621094-.8125.574219-1.375-.058594-.703124-.46875-1.195312-1.234375-1.488281s-2.003907-.351562-3.722657-.210937c-1.636718.140625-2.742187.457031-3.320312.949218-.578125.492188-.847656 1.03125-.789062 1.597657.046874.574219.296874 1.007812.753906 1.289062.449218.292969 1.117187.398438 2.003906.328125l.726562-.058594-.175781-2.042968 1.261719-.105469.292969 3.367187zm4.320312 8.597656c-1.058594.128906-1.929687-.046875-2.613281-.515625s-1.09375-1.300781-1.246094-2.484375c-.144531-1.1875.058594-2.089844.597657-2.710937.554687-.621094 1.355468-.996094 2.402343-1.125l7.984375-.976563.1875 1.515625-7.984375.972656c-.75.09375-1.269531.339844-1.585937.726563-.308594.398437-.425782.878906-.367188 1.441406.070313.578125.304688 1.011719.695313 1.316406.398437.304688.964843.421875 1.71875.328125l7.984375-.972656.1875 1.511719zm-1.398437 9.769531-.332031-1.546875 3.261718-1.582031-.636718-2.957031-3.625-.128907-.328126-1.546874 11.9375.855468.273438 1.300782zm4.085937-3.75 3.730469-1.914062-.023437-.09375-4.191407-.234375zm-1.601562 11.960938 10.867187-3.308594-.445312-1.453125-7.878907 2.394531-.023437-.058594 6.804687-5.878906-.480468-1.582031-10.871094 3.308594.449219 1.453125 7.875-2.402344.023437.058594-6.804687 5.875zm3.226562 8.339844-.460937-1.03125.765625-.5625c-.316406-.046876-.636719-.210938-.941406-.492188-.320313-.269531-.566407-.613281-.742188-1.011719-.378906-.84375-.328125-1.78125.164062-2.789062.496094-1.019531 1.613282-1.914063 3.34375-2.6875 1.910157-.84375 3.453126-1.171875 4.652344-.972657 1.203125.1875 2.039063.808594 2.507813 1.863282.414062.929687.390625 1.808594-.058594 2.628906-.457031.832031-1.222656 1.488281-2.320313 1.96875l-.601562-1.335938c.851562-.375 1.425781-.796874 1.722656-1.265624.292969-.46875.328125-.960938.09375-1.492188-.285156-.644531-.835937-.984375-1.648437-1.007812-.8125-.023438-2.003907.316406-3.59375 1.007812-1.496094.671875-2.4375 1.328125-2.824219 1.984375-.390625.65625-.460938 1.242187-.226562 1.769531.238281.527344.613281.855469 1.132812.988282.515625.128906 1.1875.023437 1.988281-.34375l.671875-.292969-.835937-1.875 1.15625-.515625 1.375 3.085937zm4.167969 8.292968 1.117187-.585937-2.625-4.914063 10.339844.597656 1.117188-.585937-3.0625-5.726563-1.117188.589844 2.34375 4.386719-10.339844-.601563-1.117187.589844zm4.6875 7.660156-.835937-1.28125 4.460937-2.882812-2.058594-3.167969-4.464843 2.886719-.835938-1.28125 9.539062-6.167969.835938 1.277344-4.015625 2.59375 2.058594 3.167969 4.015625-2.59375.835937 1.277344zm10.066406 3.925782c1.636719-1.277344 2.613281-2.4375 2.921875-3.480469.304688-1.046875.09375-2.03125-.613281-2.933594-.707031-.902343-1.613281-1.347656-2.730469-1.324219-1.109375.023438-2.488281.667969-4.125 1.945313-1.648437 1.277344-2.613281 2.453125-2.917968 3.53125-.308594 1.078125-.105469 2.0625.601562 2.980469.703125.902344 1.625 1.335937 2.730469 1.277344 1.117187-.046876 2.496093-.714844 4.132812-1.996094zm-.976562-1.253906c1.460937-1.136719 2.308593-2.039063 2.507812-2.707032.210938-.671875.140625-1.222656-.222656-1.679687-.355469-.457031-.894531-.667969-1.601563-.644531-.71875.023437-1.804687.609374-3.273437 1.746093-1.472656 1.140625-2.308594 2.066407-2.519531 2.757813-.214844.691406-.144532 1.265625.210937 1.722656.351563.460938.894531.648438 1.613281.601562.730469-.046874 1.8125-.648437 3.285157-1.796874zm4.664062 9.347656c-.777343.726562-1.578125 1.09375-2.414062 1.117187-.835938.023438-1.660157-.414062-2.472657-1.28125-.8125-.867187-1.191406-1.722656-1.109374-2.542969.082031-.820312.507812-1.597656 1.285156-2.324218l5.886718-5.464844 1.046876 1.113281-5.886719 5.464844c-.554688.519531-.835938 1.023437-.847657 1.515625-.011718.503906.164063.960938.566407 1.382812.386719.421876.835937.632813 1.339843.65625.507813.011719 1.027344-.234374 1.578126-.738281l5.890624-5.464843 1.046876 1.113281zm9.488281 9.136718 5.382813-5.957031-1.128906-1.019531-5.382813 5.957031c-.507812.5625-1.011718.84375-1.507812.878907-.507813.023437-.964844-.152344-1.390625-.539063-.421875-.386719-.65625-.820313-.679688-1.324219-.023437-.503906.210938-1.03125.714844-1.582031l5.382813-5.960937-1.128907-1.019532-5.382812 5.957032c-.707031.785156-1.070313 1.597656-1.070313 2.429687s.433594 1.640625 1.328125 2.4375c.894531.800781 1.746094 1.152344 2.582031 1.070313.800782-.09375 1.578126-.539063 2.28125-1.328126zm5.054688 7.988282-1.332031-.996094 2.039062-8.75-.050781-.035156-4.957031 6.554687-1.222657-.914062 6.839844-9.042969 1.332032.996094-2.039063 8.738281.046875.035156 4.960938-6.554687 1.222656.914062zm5.34375 3.636718 6.03125-9.605468-1.296875-.808594-6.027344 9.605469zm15.96875-4.292968-8.183594 8.703125-1.191406-.597657 2.261719-11.707031 1.425781.714844-1.835938 8.808594.023438.011719 6.074219-6.648438zm2.898438 13.394531.445312-1.171875-4.898438-1.878906 1.449219-3.777344 4.214844 1.621094.449219-1.171875-4.21875-1.621094 1.261718-3.285156 4.59375 1.761719.445313-1.171876-6.015625-2.300781-4.074219 10.566407zm8.808593 3.085937-1.519531-.492187-.71875-5.386719-1.683594-.539062-1.519531 4.65625-1.449219-.46875 3.507813-10.765625 3.15625 1.019531c1.011719.328125 1.753906.832031 2.226562 1.523438.472657.691406.53125 1.585937.175781 2.675781-.269531.84375-.695312 1.417969-1.269531 1.746093-.578125.328126-1.15625.457032-1.746093.410157zm.738281-8.257812c.191407-.585938.167969-1.101562-.082031-1.5625-.246093-.457031-.777343-.808594-1.578125-1.066406l-1.386718-.445313-1.214844 3.71875 1.777344.574219c.507812.164062.992187.164062 1.460937.023438.460937-.152344.800781-.574219 1.023437-1.242188zm8.503907 7.304688c.164062-.691407.035156-1.359376-.351563-2.015626-.402344-.65625-1.027344-1.289062-1.886718-1.886718-.90625-.625-1.4375-1.09375-1.613282-1.433594-.175781-.328125-.210937-.691406-.128906-1.078125.105469-.46875.351562-.808594.71875-1.019531.363281-.210938.8125-.257813 1.332031-.140625.5625.128906.941407.421875 1.152344.878906s.246094.914063.09375 1.382813l1.484375.339843c.175781-.773437.09375-1.546875-.246094-2.332031-.34375-.773438-1.074218-1.300781-2.191406-1.5625-.859375-.199219-1.671875-.09375-2.425781.332031-.753907.410157-1.238281 1.066407-1.449219 1.96875-.152344.644531-.046875 1.253907.296875 1.828125.339844.578125.988281 1.1875 1.941406 1.808594.660157.46875 1.140625.9375 1.449219 1.382812.304688.457032.398438.890626.304688 1.324219-.117188.519531-.386719.929688-.789063 1.210938-.410156.292969-.953125.351562-1.648437.199219-.519532-.117188-.929688-.398438-1.234376-.832032-.308593-.4375-.390624-.976562-.238281-1.621094l.09375-.386718-1.480469-.339844-.109374.445312c-.210938.902344-.082032 1.722657.378906 2.464844.46875.738282 1.234375 1.230469 2.320312 1.476563 1.082032.246093 2 .152343 2.753906-.28125.742188-.410157 1.238282-1.125 1.472657-2.113281zm5.558593 4.246093-1.507812-.269531 1.976562-11.152344 1.507813.269532zm12.515626-8.703125-2.648438-.234375-.882812 10.03125-1.519532-.128906.882813-10.03125-2.648438-.234375.105469-1.253906 6.816406.597656zm8.714843-1.113281-3.121093 6.230469v5.101562h-1.53125v-5.101562l-3.117188-6.230469h1.527344l2.320312 4.820313h.070313l2.332031-4.820313zm12.683594 4.199219c.257813 2.066406.117187 3.578125-.414063 4.550781-.527343.972656-1.363281 1.535156-2.507812 1.679687-1.140625.140626-2.105469-.203124-2.871094-1.023437-.777344-.820313-1.285156-2.25-1.542968-4.316406-.261719-2.050781-.105469-3.5625.445312-4.527344.554688-.960937 1.402344-1.5 2.542969-1.640625 1.144531-.140625 2.085937.1875 2.839843.984375.753907.808594 1.261719 2.242187 1.507813 4.292969zm-1.578125.199218c-.222656-1.839843-.578125-3.023437-1.035156-3.542968-.460938-.515625-.992188-.75-1.554688-.679688-.578125.070313-1.039062.421875-1.378906 1.03125-.351562.625-.414062 1.855469-.175781 3.695313.222656 1.84375.585937 3.027343 1.070312 3.566406.496094.539063 1.023438.773437 1.589844.703125.578125-.070312 1.023437-.421875 1.34375-1.066406.316406-.632813.363281-1.863282.140625-3.707032zm8.925781-6.0625-5.335937 1.125.777344 3.625 4.027343-.855468.261719 1.230468-4.027344.855469 1.058594 4.984375-1.496094.316406-2.367187-11.070312 6.832031-1.441406zm14.035157 1.628907c.449218 1.621093.460937 2.863281.035156 3.730469-.421875.867187-1.082032 1.441406-1.976563 1.710937-1.011719.304687-2.015625.164063-2.992187-.445313-.976563-.609374-1.742188-1.816406-2.296875-3.625-.609375-1.980468-.71875-3.5625-.304688-4.75.398438-1.183593 1.152344-1.945312 2.25-2.273437.929688-.28125 1.8125-.175781 2.636719.339844s1.414062 1.40625 1.765625 2.6875l-1.402344.421875c-.28125-.929688-.644531-1.585938-1.082031-1.960938-.433594-.375-.953125-.46875-1.542969-.292968-.683593.210937-1.105469.714843-1.292969 1.539062-.191406.820312-.035156 2.050781.46875 3.691406.472657 1.527344.988282 2.523438 1.589844 3.015625.589844.492188 1.203125.632813 1.835938.445313.460937-.140625.824218-.492188 1.0625-1.054688.246094-.5625.175781-1.476562-.210938-2.746094zm9.375.726562-4.261719-10.496093-1.414063.574218 1.789063 4.421875-3.507813 1.417969-1.789062-4.421875-1.414063.578125 4.261719 10.496094 1.414062-.574219-1.992187-4.914063 3.511719-1.421874 1.988281 4.914062zm5.78125-2.953125-1.367188.691406-5.15625-10.085937 1.367188-.695313zm9.949218-6.007812-6.027344-9.605469-1.296874.808594 4.371093 6.957031-.058593.035156-7.46875-5.03125-1.410157.878906 6.027344 9.605469 1.296875-.808593-4.371094-6.957032.058594-.035156 7.46875 5.035156zm7.398438-5.628906-5.347656 4.164062-6.996094-8.925781 5.089844-3.953125.777343.984375-3.875 3.015625 2.164063 2.769531 3.570312-2.769531.777344.984375-3.570312 2.769531 2.496093 3.179688 4.148438-3.226563zm4.613281-8.421876c-.480469-.515624-1.105469-.796874-1.871094-.84375-.765625-.035156-1.636719.117188-2.625.492188-1.015625.398438-1.71875.574219-2.085937.539062-.375-.046874-.695313-.210937-.964844-.503906-.328125-.351562-.484375-.738281-.449219-1.160156.035157-.421875.25-.808594.636719-1.171875.425781-.386719.882812-.550781 1.378906-.46875.503906.082031.894532.316406 1.199219.691406l1.121094-1.046875c-.542969-.585937-1.238281-.949218-2.085938-1.101562-.835937-.152344-1.683593.164062-2.519531.9375-.648438.601562-1.011719 1.339844-1.082031 2.195312-.082031.855469.199219 1.617188.835937 2.296875.457032.484375 1.011719.753907 1.695313.789063.671875.035156 1.53125-.152344 2.578125-.589844.765625-.28125 1.414062-.421875 1.964844-.421875.554687 0 .980468.164063 1.273437.492187.363281.390626.554687.835938.566406 1.339844s-.238281.996094-.753906 1.476563c-.390625.363281-.847656.550781-1.390625.5625-.53125.011719-1.023438-.222657-1.484375-.703125l-.269531-.292969-1.117188 1.042969.316406.339844c.636719.679687 1.390626 1.035156 2.273438 1.070312s1.71875-.332031 2.53125-1.082031 1.246094-1.558594 1.304688-2.4375c.039062-.878907-.28125-1.691407-.976563-2.441407zm8.457031-4.222656-4.710937 4.855469-8.171875-7.867187 4.472656-4.621094.90625.867187-3.414062 3.53125 2.53125 2.4375 3.144531-3.238281.90625.871094-3.144531 3.234375 2.921874 2.804687 3.652344-3.765625zm8.253906-10.882812-9.195312-6.652344-1.214844 1.667969 5.21875 5.570312-.085937.105469-6.933594-3.214844-1.214844 1.667969 9.199219 6.648437.777344-1.066406-6.558594-4.75.082031-.105468 7.5 3.460937.625-.859375-5.628906-6.027344.082031-.105468 6.558594 4.75zm4.652344-7.835938-3.390625 5.851563-9.847656-5.664063 3.226563-5.558594 1.097656.632813-2.460938 4.246094 3.046875 1.757812 2.261719-3.902343 1.097656.632812-2.261718 3.90625 3.507812 2.015625 2.625-4.527344zm-1.015625-10.578125c-1.8125-.925781-3.296875-1.246093-4.4375-.949219-1.140625.28125-2.085937 1.160157-2.828125 2.613282l-1.023437 2.007812 10.128906 5.136719 1.023437-2.007813c.660157-1.300781.8125-2.519531.425782-3.683593-.378906-1.160157-1.472656-2.203125-3.289063-3.117188zm-.726562 1.40625c-1.460938-.738281-2.617188-1.03125-3.441407-.855469-.835937.164063-1.496093.726563-1.976562 1.664063l-.332031.644531 7.878906 4 .332031-.644531c.480469-.9375.550782-1.792969.222656-2.554687-.332031-.753907-1.226562-1.503907-2.683593-2.253907zm8.160156-4.644531-.554687 1.417969-10.609376-4.058594.554688-1.417969zm-.449219-12.773438c1.589844.5625 2.613282 1.265626 3.085938 2.113282.472656.84375.554687 1.710937.269531 2.589844-.328125 1.007812-1.023437 1.738281-2.070313 2.183593-1.0625.445313-2.484374.375-4.300781-.210937-1.976562-.644532-3.34375-1.46875-4.085937-2.476563-.742188-1.007812-.941406-2.050781-.574219-3.144531.304687-.925781.894531-1.570312 1.789063-1.957031.894531-.386719 1.964843-.351563 3.214843.105469l-.449219 1.382812c-.929687-.304688-1.671874-.375-2.238281-.234375-.550781.140625-.929687.503906-1.128906 1.089844-.222656.671875-.046875 1.316406.519531 1.949219.5625.621093 1.671875 1.207031 3.308594 1.734374 1.519531.492188 2.648438.632813 3.390625.433594.742187-.199218 1.214844-.609375 1.425781-1.242187.152344-.457031.070313-.949219-.261718-1.476563-.316407-.527344-1.105469-.984375-2.375-1.398437zm5.769532-4.679687-.339844 1.476563-11.082032-2.542969.34375-1.476563zm2.179687-11.457031-.292969 1.628906-8.75 2.15625-.011718.058594 8.113281 1.433594-.273438 1.5-11.195312-1.96875.292969-1.632813 8.75-2.15625.011718-.058594-8.113281-1.421875.269531-1.5zm.71875-9.195313-.355469 6.742188-11.351562-.597657.34375-6.417968 1.257812.070312-.257812 4.894532 3.519531.1875.238281-4.492188 1.257813.070312-.234375 4.492188 4.050781.210938.269531-5.222657zm0 0" fill="#365e8e"/><path d="m143.285156 128.9375 34.339844-.035156c-5.382812 24.921875-25.929688 41.625-42.285156 46.140625-81.996094 22.671875-85.777344-68.765625-34-103.683594 8.339844-5.628906 18.75-10.554687 29.160156-12.035156 2.4375-.351563 5.15625-.5625 7.582031-.867188 2.765625-.351562 11.363281.386719 14.835938 1.03125 5.878906 1.09375 13.367187 3.671875 17.652343 7.414063 7.644532 6.671875 8.242188 16.621094 3.96875 25.21875-1.414062 2.835937-4.414062 8.078125-7.722656 9.476562-.671875.28125-.789062.960938-1.332031 1.394532-3.214844 2.628906-6.855469 5.078124-10.117187 7.625-.742188.574218-2.234376-.140626-.777344-.761719.789062-.34375 2.898437-2.089844 3.582031-2.640625.753906-.609375 1.578125-1.453125 2.402344-2.371094.636719 0 .800781-.269531 1.222656-.632812.496094-.082032 1.320313-1.007813.730469-1.359376.105468-.082031 1.945312-2.734374 2.167968-1.277343.140626-.046875.28125-.09375.410157-.128907.011719 0 .285156-.492187.34375-.550781.070312-.074219.386719-.285156.339843-.355469-.210937-.328124-1.765624.449219-1.496093.082032.023437-.023438 2.746093-3.210938 3.191406-3.246094.671875.164062-.09375.832031.742187.222656.929688-.679687 1.589844-1.246094 1.320313-1.457031-.71875-.5625-1.496094.367187-.847656-.796875 1.070312-1.898438 2.519531-3.753906 2.980469-5.839844 1.257812-5.839844.882812-12.339844-3.324219-17.347656-3.800781-4.527344-11.113281-6.90625-17.097657-7.472656-11.152343-1.066406-23.375.90625-32.605468 6.628906-21.445313 13.3125-43.347656 42.105469-32.230469 69.796875 8.230469 20.515625 36.082031 20.667969 54.097656 7.660156 11.742188-8.46875 10.269531-13.699219.683594-18.003906zm7.351563-16.234375c-.296875.175781-.71875.597656-.933594.808594 0 0-.421875.421875-.234375.503906.175781.070313 1.53125.023437 1.613281-.234375.472657-1.453125 2.828125-1.476562 2.542969-2.332031-.515625-1.5-1.554688.316406-2.988281 1.253906zm0 0" fill="#365e8e"/></g><path d="m96.84375 198.3125h1.648438l1.953124-11.515625-1.835937 1.277344zm56.558594-9.558594c-.777344-.808594-1.789063-1.21875-3.003906-1.21875-1 0-1.929688.269532-2.765626.796875-.238281.140625-.460937.316407-.683593.503907.410156-.726563.894531-1.371094 1.449219-1.933594 1.058593-1.058594 2.4375-1.867188 4.121093-2.40625l.316407-.105469-.234376-1.042969-.378906.117188c-2.484375.796875-4.507812 2.109375-6.003906 3.90625-1.507812 1.804687-2.273438 3.8125-2.273438 5.980468 0 1.511719.4375 2.769532 1.285157 3.730469.859375.960938 1.988281 1.453125 3.355469 1.453125.871093 0 1.695312-.199218 2.449218-.609375.742188-.398437 1.414063-.984375 1.988282-1.746093.496093-.644532.886718-1.351563 1.144531-2.089844.269531-.75.398437-1.488282.398437-2.214844 0-1.253906-.386718-2.3125-1.164062-3.121094zm-1.636719 7.296875c-.765625.878907-1.695313 1.300781-2.863281 1.300781-.988282 0-1.742188-.316406-2.308594-.960937-.5625-.65625-.859375-1.574219-.859375-2.734375 0-.796875.15625-1.535156.460937-2.179688.304688-.65625.765626-1.222656 1.355469-1.703124.328125-.269532.695313-.480469 1.070313-.621094.386718-.140625.777344-.210938 1.1875-.210938.933594 0 1.664062.328125 2.226562.984375.578125.671875.871094 1.574219.871094 2.675781.011719 1.40625-.375 2.570313-1.140625 3.449219zm-36.824219-8.808593c-.8125 0-1.601562.1875-2.320312.539062-.714844.363281-1.375.890625-1.953125 1.570312-.578125.65625-1.011719 1.398438-1.320313 2.183594-.304687.785156-.445312 1.605469-.445312 2.4375 0 1.28125.375 2.324219 1.105468 3.109375.742188.785157 1.71875 1.183594 2.921876 1.183594.988281 0 1.929687-.28125 2.824218-.820313.261719-.164062.507813-.339843.742188-.527343-.386719.738281-.871094 1.394531-1.4375 1.957031-1.035156 1.011719-2.4375 1.785156-4.167969 2.289062l-.375.105469.363281.914063.320313-.082032c1.269531-.339843 2.414062-.832031 3.402343-1.453124 1-.621094 1.871094-1.398438 2.589844-2.3125.765625-.972657 1.367188-1.992188 1.765625-3.046876.402344-1.058593.601563-2.125.601563-3.179687 0-1.464844-.421875-2.652344-1.25-3.53125-.847656-.890625-1.976563-1.335937-3.367188-1.335937zm2.507813 6.367187c-.164063.527344-.398438 1.019531-.726563 1.480469-.414062.574218-.898437 1.03125-1.449218 1.359375-.542969.316406-1.097657.480469-1.660157.480469-.90625 0-1.625-.316407-2.191406-.960938-.566406-.65625-.859375-1.539062-.859375-2.640625 0-.84375.152344-1.640625.457031-2.378906.308594-.71875.707031-1.292969 1.203125-1.691407.386719-.304687.789063-.539062 1.1875-.691406.378906-.140625.777344-.210937 1.203125-.210937.917969 0 1.636719.316406 2.203125.960937.574219.644532.859375 1.515625.859375 2.582032.023438.597656-.058593 1.183593-.226562 1.710937zm18.21875-4.574219.507812-1.640625h-6.867187l-1.332032 5.183594.625-.1875c.496094-.152344.953126-.257813 1.402344-.328125.433594-.070312.871094-.105469 1.296875-.105469.917969 0 1.648438.234375 2.210938.726563.554687.46875.824219 1.066406.824219 1.828125 0 .859375-.28125 1.527343-.847657 2.066406-.574219.539063-1.316406.808594-2.261719.808594-.609374 0-1.1875-.140625-1.695312-.398438-.515625-.269531-.988281-.691406-1.398438-1.230469l-.238281-.304687-.824219.714844.214844.269531c.539063.703125 1.152344 1.230469 1.8125 1.558594.671875.339844 1.4375.515625 2.273438.515625 1.351562 0 2.496094-.375 3.402344-1.125.917968-.761719 1.390624-1.722657 1.390624-2.863281 0-1.089844-.4375-1.980469-1.296874-2.671876-.835938-.667968-1.929688-1.007812-3.261719-1.007812-.496094 0-.953125.023438-1.402344.082031-.234375.023438-.480469.070313-.707031.117188l.519531-1.996094h5.652344zm0 0" fill="#365e8e"/></svg>