<?xml version="1.0" encoding="UTF-8"?><svg xmlns="http://www.w3.org/2000/svg" width="200" height="200" viewBox="0 0 92.09 92.09" shape-rendering="geometricPrecision" text-rendering="geometricPrecision" image-rendering="optimizeQuality" fill-rule="evenodd" clip-rule="evenodd"><defs><style>.fil1{fill:#fefefe}.fil0{fill:#0162a9}.fil2{fill:#00a2e9}</style></defs><g id="图层_x0020_1"><g id="_470643848"><path class="fil0" d="M46.05 3.01c23.7 0 43.03 19.33 43.03 43.04 0 23.7-19.33 43.03-43.03 43.03-23.71 0-43.04-19.33-43.04-43.03 0-23.71 19.33-43.04 43.04-43.04zm0 11.82c17.19 0 31.21 14.03 31.21 31.22 0 17.19-14.02 31.21-31.21 31.21S14.83 63.24 14.83 46.05s14.03-31.22 31.22-31.22zm0-14.83c25.36 0 46.04 20.69 46.04 46.05 0 25.36-20.68 46.04-46.04 46.04S0 71.41 0 46.05 20.69 0 46.05 0zm0 2C70.31 2 90.1 21.79 90.1 46.05c0 24.26-19.79 44.05-44.05 44.05C21.79 90.1 2 70.31 2 46.05 2 21.79 21.79 2 46.05 2z"/><path class="fil1" d="M19.02 27.64c-.07.02-.12.03-.17.06-.48-.32-.55-.35-.55-.94-.2-.34-.47-.57-.63-.88-.3-.31-.7-.8-1-1.03-.04.05-.08.1-.11.14.26.41.47.94.71 1.41.07.63-.59.36-.7.04-.14-.2-.24-.45-.36-.65-.09 0-.09 0-.15.03.05.53.17.7.54 1.09.09.14.18.29.28.44-.09.3-.3.44-.51.37-.28-.26-.55-.51-.83-.76-.25-.33-.56-.95-.82-1.18-.03.01-.07.02-.1.04-.09.35 0 .92.24 1.22.51.48 1.32 1.33 1.47 2.11.16.26.16.26.23.43.4.4.4.88-.2.94-.37-.14-.54-.32-.79-.55-.48-.26-.77-.68-1.18-1.02-.24-.29-.54-.7-.61-1.04.19-.01.54.15.83.21.04.04.39.4.49.27-.04-.29-.6-1.06-.8-1.27-.1-.25-.18-.38-.33-.77-.13-.48-.18-1.06-.16-1.56-.18-.56-.81-1.11-1.1-1.57-.43-.42-.49-.31-.16-.75.31-.08.8.2 1.19.27.13-.11.4-.28.65-.25.21.14.21.14.27.15.07-.1.1-.15.09-.32.21-.66-.26-1.74.55-2.05.42.08.67.36.88.78.59.65.59.65.7.82 1.01.75 2.06 1.44 3.04 2.32.29.36.27.64.04 1-.2.09-.48-.09-.59-.14-.34.07-.72.19-1.01.22-.04.04-.09.09-.13.14.36.61 1.15 1.42.79 2.23zm-.15-3.17c-.38.22-.56.49-1 .47-.18-.11-.47-.25-.33-.44.4.03.5-.12.85-.46.09-.01.46.23.48.43zm-1.27-.87c-.37.02-.45-.05-.63-.32-.55-.49-.88-.55-1.45-.29-.07-.01-.14-.01-.21-.02-.05-.11.14-.31.21-.45-.02-.16-.14-.87.15-.9.6.56 1.14 1.09 1.83 1.63.26.1.21.14.1.35zm-2.18 2.3a.349.349 0 0 1-.09-.06c-.01-.02-.01-.04-.01-.07-.43-.63-.68-1.21-.53-1.96l-.06-.43c.03-.03.06-.05.1-.09.11.05.22.09.33.13.25.22 1.24 1.11.79 1.47-.26-.09-.26-.08-.42 0-.07.33-.1.51-.04.85-.03.05-.05.1-.07.16zm1.13-1.98a.606.606 0 0 1-.31-.27c.01-.02.02-.03.02-.04.09.02.28.13.29.31zm-3.78 2.68c-.36-.09-.68-.67-.9-.9-.46-.37-1.23-.37-1.38-1 .3-.63.6-.56 1.26-.26.41.42.72.95.85 1.58.03.07.21.45.17.58z"/><path class="fil2" d="M36.57 35.89l-.5.22-.1.42.49-.17.11-.47zm-.81 1.58l-.1.39.49-.18.1-.42-.49.21zm-.32 1.37l-.09.37.49-.18.09-.4-.49.21zm-.32 1.36l-.1.42.5-.17.1-.46-.5.21zm4.06-1.09l.59-.22-.11.52-.63.31.15-.61zm.33-1.42l.58-.19-.11.48-.61.3.14-.59zm.3-1.33l.57-.2-.12.54-.59.29.14-.63zm.88-1.52l-.12.53-.58.27.14-.6.56-.2zm.29-1.32l-.12.53-.55.27.13-.58.54-.22zm-.84.3l-.14.6-.88.4.16-.68.86-.32zm-.48 1.95l-.83.37.16-.68.82-.3-.15.61zm-1.01 1.01l.84-.31-.14.63-.86.37.16-.69zm-.33 1.37l.84-.31-.13.57-.86.4.15-.66zm-3.38 17.1c.19.01.38.03.58.04-10.77 1.64-21.32-4.61-9.46-14.34 3.9-3.2 8.25-4.98 12.91-6.7l-.17.7-.07.03-1.8.77-.13.51 1.84-.68-.18.75-1.85.78-.1.44 1.81-.64-.17.71-1.86.85-.1.43 1.79-.62-.16.68-1.84.87-.11.48 1.79-.65-.18.72c-2.6 1.18-5.12 2.26-7.43 3.96-5.76 4.22-7.41 9.58 4.89 10.91zm3.04-15.71l.84-.3-.13.6-.87.39.16-.69z"/><path class="fil0" d="M55.27 53.17l.49-.21.1-.43-.48.18-.11.46zm.81-1.57l.09-.39-.49.18-.1.41.5-.2zm.32-1.38l.08-.37-.49.18-.09.41.5-.22zm.31-1.36l.1-.41-.49.17-.11.46.5-.22zm-4.05 1.09l-.6.22.12-.52.63-.3-.15.6zm-.34 1.42l-.57.2.11-.49.61-.3-.15.59zm-.3 1.34l-.57.2.13-.54.59-.29-.15.63zm-.87 1.52l.12-.53.57-.27-.14.6-.55.2zm-.3 1.32l.12-.54.56-.26-.14.58-.54.22zm.84-.3l.15-.6.87-.4-.16.68-.86.32zm.49-1.96l.83-.36-.16.68-.82.3.15-.62zm1-1.01l-.84.31.15-.62.85-.37-.16.68zm.34-1.36l-.85.31.14-.57.85-.4-.14.66zm3.38-17.1c-.19-.02-.39-.03-.58-.04 10.76-1.65 21.32 4.61 9.46 14.34-3.9 3.19-8.25 4.98-12.91 6.7l.17-.71.06-.02 1.81-.77.13-.51-1.84.68.18-.75 1.85-.79.1-.43-1.81.64.17-.71 1.85-.85.1-.44-1.79.63.16-.68 1.85-.87.11-.48-1.79.65.18-.72c2.59-1.18 5.11-2.26 7.43-3.96 5.75-4.23 7.4-9.58-4.89-10.91zm-3.05 15.7l-.84.31.14-.61.86-.39-.16.69z"/><path class="fil2" d="M30.55 29.35l-.34 1.51 12.33 1.42-2.59 12.06c3.78-.79 7.75-1.79 11.53-2.59.66-.25 1.15-.71 1.39-1.27l1.8-8c.3-.52.78-.83 1.46-.92l14.31.03.04-.18-3.92-2.06H30.55z"/><path class="fil0" d="M37.4 56.13l1.76-8.1c.5-1.47 1.13-2.02 2.67-2.37 3.5-.81 7.01-1.62 10.51-2.44l-2.92 13.57 12.25 1.41-.32 1.52H21.4l-.04-.18 3.69-1.95 10.23.04c.99 0 1.79-.55 2.12-1.5zM53.01 69.38h-2.77v-.08c.85-1.01 1.37-1.69 1.55-2.04.18-.35.27-.69.27-1.02 0-.24-.07-.45-.22-.61a.741.741 0 0 0-.56-.24c-.35 0-.63.18-.82.54l-.13-.05c.12-.44.31-.77.57-.98.25-.22.54-.32.88-.32.24 0 .45.05.65.16s.35.27.46.46c.11.19.17.37.17.54 0 .31-.09.62-.26.94-.23.43-.74 1.02-1.53 1.79h1.02c.25 0 .41-.01.49-.03.07-.02.13-.06.18-.11.05-.05.11-.15.19-.31h.13l-.27 1.36zm-5.76-4.71h2.2l-.35.9h-1.85l-.18.47c.8.03 1.41.23 1.84.59.35.31.53.68.53 1.13a1.667 1.667 0 0 1-.94 1.49c-.3.15-.62.22-.98.22-.38 0-.68-.07-.88-.21-.15-.1-.22-.22-.22-.35 0-.1.04-.19.11-.26.08-.08.17-.12.27-.12.09 0 .18.02.27.06.09.04.25.13.47.29.15.1.27.17.37.2.07.03.15.04.24.04.19 0 .35-.06.49-.2.13-.14.2-.31.2-.5 0-.41-.21-.74-.62-.99-.4-.26-.92-.39-1.54-.39-.06 0-.15 0-.28.01l.85-2.38zm-2.78 2.52c.02-.26.03-.48.03-.68 0-.42-.05-.81-.14-1.18-.06-.2-.14-.35-.25-.44a.337.337 0 0 0-.23-.08c-.11 0-.2.05-.27.15-.09.14-.13.4-.13.78 0 .64.07 1.08.23 1.33.1.15.23.23.4.23.09 0 .21-.03.36-.11zm-1.99 2.28v-.09c.38-.09.71-.22.97-.39.27-.17.48-.38.64-.64.15-.25.26-.54.32-.87-.14.08-.26.13-.36.16-.1.03-.21.04-.32.04-.35 0-.65-.13-.89-.38-.24-.26-.35-.61-.35-1.06 0-.31.06-.59.19-.85s.31-.46.55-.6c.24-.14.48-.21.74-.21.28 0 .54.08.78.23.25.16.44.39.59.69.14.29.22.63.22 1.02 0 .49-.12.96-.36 1.42-.24.45-.59.81-1.06 1.09-.47.27-1.02.42-1.66.44zm-1.82-4.89v3.84c0 .29.02.48.04.56.03.08.08.14.16.19.08.05.21.08.39.08h.11v.13h-2.48v-.13h.13c.2 0 .34-.02.43-.07.08-.05.14-.11.17-.19s.05-.27.05-.57v-2.43c0-.22-.02-.36-.04-.41a.3.3 0 0 0-.11-.14.338.338 0 0 0-.2-.06c-.12 0-.26.04-.43.11l-.06-.12 1.73-.79h.11z"/><path d="M5.65 47.36l4.62-.56.04.31.04.31-1.9.24.3 2.41 1.9-.24.03.32.04.31-4.62.57-.04-.31-.04-.32 2.18-.27-.3-2.41-2.17.27-.04-.31-.04-.32zm3.16 8c-.56.12-1.03.07-1.42-.17-.39-.25-.65-.65-.78-1.21-.13-.58-.08-1.06.15-1.43.23-.38.64-.63 1.22-.77l2.88-.66.07.31.07.31-2.83.65c-.42.1-.72.27-.89.52-.17.25-.21.57-.13.95.09.38.27.65.53.79.27.15.61.18 1.03.08l2.83-.65.07.3.07.31-2.87.67zm-1.25 1.5l4.4-1.52.11.3.56 1.64c.13.37.14.71.02 1-.11.3-.32.5-.64.61-.36.13-.7.09-1-.11-.07-.05-.13-.1-.19-.16 0 .16-.02.31-.06.45-.11.36-.35.6-.73.73-.4.14-.77.11-1.1-.09-.33-.2-.58-.55-.75-1.05l-.52-1.5-.1-.3zm4.1-.75l-1.36.47.36 1.07c.11.32.25.54.42.65.17.11.38.12.63.03.22-.07.36-.2.41-.37.06-.18.04-.41-.07-.71l-.39-1.14zm-1.85.64l-1.53.53.41 1.21c.12.34.27.57.46.68.19.12.42.13.7.03.25-.09.4-.23.46-.44.06-.2.03-.48-.09-.84l-.41-1.17zm-.66 4.37L13.3 59l1.54 3.04-.24.12-.25.13-1.26-2.47-1.27.64 1.15 2.26-.25.13-.25.13-1.15-2.26-1.39.71 1.28 2.5-.25.13-.25.12-1.56-3.06zm2.11 3.97l4.04-2.33.15.27.16.28-4.03 2.32-.16-.27-.16-.27zm6.19 5.55c-.45.36-.9.52-1.35.47-.46-.04-.87-.29-1.23-.74-.38-.46-.54-.91-.5-1.35.05-.44.31-.85.77-1.23l2.29-1.85.2.24.2.25-2.25 1.82c-.34.28-.53.56-.58.86-.04.3.06.61.3.91.25.31.53.47.83.49.3.01.62-.11.96-.39l2.25-1.82.2.24.2.25-2.29 1.85zm-.14 2.34l-.22-.2-.22-.21 3.17-3.41.28.26.28.26-.88 4.36 2.58-2.77.23.21.22.2-3.18 3.41-.25-.24-.25-.23.84-4.41-2.6 2.77zm3.25 2.87l2.99-3.56.24.2.24.2-2.99 3.57-.24-.2-.24-.21zm3.82-2.88l.29.2.28.2-1.19 4.03h.01l3.37-2.5.29.2.28.2-4.06 2.84-.27-.19-.28-.2 1.28-4.78zm1.41 6.54l2.25-4.07 2.98 1.65-.13.24-.14.25-2.42-1.35-.69 1.24 2.21 1.23-.13.25-.14.24-2.21-1.23-.76 1.37 2.46 1.36-.14.24-.13.25-3.01-1.67zm4 2.07l1.67-4.34.29.11 1.73.66c.46.18.77.41.94.71.16.29.17.63.02 1.02-.15.38-.39.63-.72.74-.08.03-.17.05-.26.07l.08.08c.21.25.25.56.12.93l-.28.8c-.05.13-.07.23-.06.3.01.07.05.14.11.21l-.03.1-.73-.28c0-.04.02-.14.06-.3.05-.15.1-.32.16-.51l.12-.35c.09-.27.1-.49.02-.65-.08-.17-.26-.3-.54-.41l-1.4-.54-.72 1.88-.29-.11-.29-.12zm1.5-2.15l1.45.55c.28.11.5.12.67.05.17-.07.31-.23.41-.49.09-.25.1-.46.01-.63-.09-.16-.28-.3-.57-.41l-1.41-.54-.56 1.47zm6.54 1.3c.05-.29 0-.54-.15-.74-.16-.21-.4-.36-.74-.45-.34-.09-.62-.09-.83-.01-.21.09-.35.26-.42.51-.05.18-.02.32.07.44.1.12.31.27.65.44l.73.4c.39.21.65.44.78.69.13.24.15.54.05.89-.11.41-.35.69-.72.85-.38.15-.83.16-1.36.02-.58-.16-1.01-.42-1.26-.78-.25-.36-.31-.78-.19-1.25l.01-.03.56.15c-.08.33-.02.61.15.85.18.24.47.41.88.52.37.1.67.11.9.03.23-.07.38-.23.44-.48.06-.22.04-.4-.06-.53-.1-.14-.33-.31-.69-.5l-.73-.4c-.37-.2-.62-.4-.74-.62-.13-.21-.15-.46-.07-.76.11-.43.35-.73.71-.9.36-.18.79-.2 1.29-.06.5.13.87.37 1.11.7.23.33.29.72.19 1.17l-.56-.15zm.86 3.54l.81-4.58.3.05.32.05-.81 4.59-.31-.05-.31-.06zm3.02.49l.5-4.07-1.56-.19.03-.28.04-.27 3.75.46-.04.27-.03.28-1.56-.19-.5 4.07-.32-.04-.31-.04zm4.31-1.61l-1.66-2.85.36.01.37.01 1.26 2.31 1.42-2.21.36.01.37.01-1.85 2.74-.07 1.85-.31-.01-.32-.01.07-1.86zm6.56 1.44c-.66.13-1.24.01-1.74-.35-.49-.36-.81-.9-.95-1.62-.14-.72-.05-1.35.27-1.87.33-.52.82-.85 1.49-.98.66-.13 1.24-.01 1.74.35.5.37.81.91.95 1.63.14.72.05 1.34-.27 1.86-.32.53-.82.85-1.49.98zm-.1-.55c.47-.09.82-.34 1.05-.73.22-.4.28-.88.18-1.44-.11-.55-.35-.97-.71-1.26-.35-.29-.77-.38-1.25-.29-.47.09-.82.34-1.05.74-.22.4-.28.87-.17 1.43.1.56.34.98.7 1.26.35.29.77.39 1.25.29zm3.2-.16l-1.36-4.46 3.08-.94.08.27.09.26-2.49.76.42 1.36 2.17-.66.08.26.08.27-2.17.67.62 2.02-.3.09-.3.1zm6.33-2.1l-1.73-3.72-1.42.67-.12-.25-.12-.26 3.42-1.59.12.25.12.25-1.43.67 1.74 3.71-.29.13-.29.14zm2.76-1.27l-2.4-3.99 2.92-1.76.14.24.15.24-2.38 1.43.73 1.22 2.17-1.31.15.24.14.24-2.17 1.31.8 1.34 2.41-1.45.14.24.15.24-2.95 1.77zm5.91-5.95c.28.51.38 1 .28 1.48-.09.48-.35.88-.79 1.21-.52.39-1.06.52-1.63.39-.57-.12-1.08-.48-1.53-1.08-.45-.6-.65-1.19-.6-1.79.04-.59.33-1.09.87-1.49.42-.32.84-.47 1.28-.46.43.02.82.19 1.15.53l-.48.37c-.23-.21-.49-.32-.77-.31-.29 0-.57.11-.85.32-.38.28-.57.64-.58 1.08-.02.44.15.9.5 1.36.37.49.75.79 1.15.89.4.11.8.01 1.19-.28.28-.22.46-.49.51-.81.06-.32 0-.67-.19-1.04l.49-.37zm1.73.83l-3.18-3.4.23-.22.23-.21 1.3 1.39 1.78-1.65-1.3-1.4.23-.21.23-.22 3.17 3.41-.22.21-.24.22-1.49-1.6-1.78 1.65 1.5 1.6-.23.22-.23.21zm3.92-3.82l-.19.24-.19.23-3.62-2.93.24-.29.24-.3 4.41.57-2.95-2.38.2-.23.19-.24 3.62 2.93-.22.27-.22.27-4.46-.53 2.95 2.39zm3.84-4.93c-.38.57-.87.89-1.48.99-.61.09-1.21-.07-1.82-.48-.61-.41-.99-.91-1.13-1.51-.14-.6-.02-1.18.36-1.74s.87-.89 1.48-.98c.61-.1 1.22.06 1.83.47.6.41.98.92 1.12 1.51.14.6.02 1.18-.36 1.74zm-.46-.31c.27-.4.34-.82.22-1.26-.12-.44-.42-.82-.89-1.14-.47-.32-.93-.45-1.39-.4-.45.05-.82.28-1.09.68-.27.4-.34.82-.22 1.27.12.44.42.82.89 1.14.47.31.93.44 1.39.39.45-.05.82-.28 1.09-.68zm2.08-2.39l-4.22-1.97.13-.29.13-.28 3.72 1.73 1-2.14.25.12.25.11-1.26 2.72zm2.45-5.26c-.23.64-.63 1.08-1.2 1.31-.56.24-1.19.24-1.88-.01s-1.18-.65-1.46-1.2c-.28-.55-.31-1.14-.07-1.78.23-.63.63-1.07 1.19-1.31.57-.24 1.2-.23 1.89.02s1.18.65 1.46 1.2c.28.54.3 1.14.07 1.77zm-.53-.19c.17-.45.14-.88-.08-1.28-.23-.4-.61-.69-1.14-.89-.53-.19-1.02-.21-1.45-.05-.43.16-.72.47-.89.93-.17.45-.13.88.09 1.28.23.39.61.69 1.14.89.53.19 1.01.21 1.44.05.43-.16.73-.47.89-.93zm2.01-4.74c-.14.63-.47 1.09-.99 1.39-.52.3-1.15.37-1.86.22-.72-.16-1.26-.48-1.62-.97-.35-.49-.46-1.06-.33-1.71.11-.49.34-.89.69-1.19.36-.3.76-.43 1.21-.4l-.13.59c-.31 0-.57.09-.79.29-.21.2-.36.49-.44.87-.09.44 0 .84.29 1.18.28.35.7.59 1.26.7.6.13 1.08.09 1.46-.1.38-.2.62-.54.73-1.02.1-.47.01-.89-.27-1.25-.05-.05-.1-.11-.15-.16-.07-.06-.17-.13-.31-.19-.14-.07-.27-.11-.4-.14l-.06-.01-.3 1.42-.52-.11.42-1.99 2.41.51-.08.38-.6.03.03.04c.36.47.48 1.01.35 1.62zm-1.2-4.77l-2.96 1.46.04-.36.04-.37 2.39-1.09v-.01l-2.11-1.56.04-.37.04-.36 2.6 2.04 1.84.19-.03.31-.03.32-1.86-.2z" fill="#fefefe" fill-rule="nonzero"/><path class="fil1" d="M25.97 20.34c-.59.24-.87.35-.93-.33.37-.77.56-1.94.63-2.83-.45-.86-.95-1.49-1.52-2.2-.15-.3-.83-1.99-1.19-1.95-.33-.39-.42-.55.01-.92.98-.3 1.61 1.03 1.73 1.87.45 1.18 1.23 2.2 2.05 3.25.12.23.24 1.02-.22.82-.04-.08-.04-.08-.22-.28-.05 0-.05 0-.19.11.04.67.15 1.64-.01 2.28-.05.06-.09.12-.14.18zm1.86-3.58c-.64.14-.73-.67-.64-1.08-.07-.51-.17-1.06-.74-.8-.12-.05-.1-.09-.14-.16.1-.26.22-.53.33-.8-.08-.31-.1-.63-.19-.95-.06-.3-.12-.61-.16-.91-.32-.51-.64-1.06.19-1.15.51.31 1.04.57.88 1.37.02.02.03.04.06.07.18-.01.24-.13.5-.02.03.14.07.28.12.42-.16.54-.16.54-.16.64-.23.53-.16.67.06 1.2.04.26-.01.48.2.73.21-.05.32-.36.53-.53.34-.16.34-.16.47-.18.45.42-.1.74-.41 1.01-.21.39-.62.87-.9 1.14zm-2.91 2.27c-.31-.31-.12-1.12-.4-1.24-.76 0-.83-.54-.31-.98.49-.25.85-.13 1.14.41-.08.52-.24 1.13-.28 1.66-.05.04-.1.1-.15.15zm11.38-5.78c-.41.06-1.14.06-1.37-.12-.17-.79.16-.67.82-.88.26-.07.53-.13.8-.19.29-.22.78-.5.97-.85.01-.01.03-.03.05-.04-.03-.19.26-.49.4-.66.22-.66.62-1.28.98-1.86-.01-.05-.02-.1-.02-.15-.08.01-.17.02-.25.04-.44.21-1.62.75-2.02.38-.55-.95.76-1.04 1.41-1.18.55-.25 1.15-.5 1.83-.64.5.03.7.63.71 1.11-.28.31-.66.62-.9.93-.14.28-.87 1.49-.67 1.78.14-.04.28-.09.43-.13.55-.37 1.23-.71 1.43.27-.07.27-.48.36-.69.44-.87.23-1.54.5-2.26.97-.57.28-1.1.59-1.65.78zm14.29.58c-.36-.34-.23-.36-.12-.76.43-.13.43-.13.97-.23.32-.14.64-.27.96-.4.18-.11.45-.11.46-.38-.22-.05-.31-.05-.95-.18-.07-.12-.14-.22-.2-.33.17-.53.63-.43 1.16-.5-.07-.29-.19-.21-.36-.26-.3-.2-.14-.39-.1-.6.15-.15.59.04.65-.26-.39-.21-.24-.71-.12-.97-.3-.17-.55-.07-.81.08-.11 0-.23 0-.34.01-.7.4-1.91-.01-1.46-.84.38-.2.79-.05 1.26.03.54-.07 1.14-.19 1.71-.24.2-.12.38-.66.18-.63-.08.08-.14.2-.21.27-.56-.01-.65-.04-.95-.41.15-.88.16-.87 1.01-.68.63-.19.64-.86.78-1.37.14-.17.25-.16.48-.14.33.41.38.46.28 1.07-.07.14-.17.28-.11.51.18-.13.98-.82 1.16-.54l-.03.29c-.06.02-.11.04-.16.07-.02.11-.2.53-.14.68.07-.1.07-.1.22-.53.03-.01.06-.01.1-.02.2-.54.29-1.02.49-1.51.53-.44.85.32.82.85-.03.06-.06.12-.09.19-.21.23-.99 1.28-.76 1.64.27.02.66-.02.94.15.23.57.43 1.33-.49 1.12-.23-.18-.79-.79-1.03-.7-.02.06-.04.13-.05.21.26.23.4.7.03 1.04-.12.04-.24.09-.37.13-.02.07-.03.15-.04.23.17.53-.36.49-.58.77.36.33.69-.08.47.7-.41.18-1.01.12-1.29.39-.18.68-.35 1.36-.52 2.04-.24.3-.72.27-.87-.05 0-.31-.21-.53-.37-.6-.43.11-.8.54-1.21.69l-.4-.03zm4.53.29c-.42-.31-.85-1.12-1.06-1.54.33-.28.92.06 1.29.28.08.11.15.23.22.34.12.32.02.94-.45.92zm-1.27-4.28l-.03-.06c.03-.03.06-.06.09-.08.03 0 .06.01.09.03-.01.03-.03.06-.04.09-.04 0-.07.01-.11.02zm.19-.12c.06-.27.39-.44.63-.47 0-.03.01-.05.02-.06.04-.01.07 0 .1.01-.05.21-.54.51-.75.52zm.03-.9c-.31-.49.7-.43.92-.39 0 .03-.01.06-.02.1-.31.1-.61.27-.9.29zm.41-1.09c-.04-.03-.07-.07-.11-.09l.27.06c-.06 0-.11.02-.16.03zm.4.05c-.03-.02-.05-.04-.07-.05.04.01.1.02.15.03-.03 0-.06.01-.08.02zm8.16 8.4c-.17-.22-.13-.53.14-.4.02-.02.03-.03.03-.04.33.13.75.21 1.13.29.36-.09 1.21-.08 1.42-.39-.1-.18-.58-.17-.72-.18-.46.07-.71-.38-.71-.75.32-.23.57.03.94.01.37.21 1.23.51 1.69.39.7-.46 1.68-1.23 1.9-2.05.19-.25.3-.39.57-.43.33.28.22.36.36.74-.02.14-.38.56-.51.7-.48.35-.91.77-1.37 1.19.04.19.09.15.32.16.3.07.47.19.65-.11.02-.01.06-.02.09-.02.22.17.54.28.76.48-.02.07-.25.41-.41.42-.44-.1-.98-.13-1.43-.15-.37-.07-.37-.07-.62-.08-.04.07-.04.07-.04.17.19.42-.16 1.04-.06 1.61 0 .49.11.79.43 1.24.2.22.42.42.54.76-.04.05-.08.1-.11.15-.69-.25-1.44-.71-1.81-1.3-.02-.34-.02-.46.1-.66.1-.52.26-.96.37-1.39-.01-.16-.01-.16.03-.38-.21-.19-.3.06-.56.09-.48.23-.94.36-1.49.48-.64.31-1.05-.08-1.49-.47a.638.638 0 0 0-.14-.08zM73.15 27.8c-.07-.23-.15-.84-.13-.96.06-.05.11-.1.16-.14.06.01.11.01.17.02.23.46.45 1.19.93 1.56.31.4.62.13.94-.11l.65-.65c-.12-.48-1.43-.95-1.86-1.2-.14-.19-.29-.37-.44-.54a.945.945 0 0 0-.12-.39c.04-.16.33-.26.43-.23.21.13.39.32.59.45.46.19.78.35 1.18.7.29.18.58.45.86.69.15-.01.55.55.68.73.2.16.28.39.59.53.05.07.05.07.1.2-.31.33-.7.31-1.06 0-.2-.74-.74-.18-1.16.08-.06.09-.11.18-.16.28-.28.17-.92.74-1.32.59-.34-.54-.69-1.07-1.03-1.61zm.96-3.6c-.14-.91 1.27-.04 1.44.04.51.11 1 .51 1.53.72.54.32 1.22.52 1.82.82.51.15.81-.22.3-.38-.16-.16-.45-.33-.54-.49.21-.46.73.12.87-.28-.17-.22-.18-.18-.43-.08-.28-.07-.5.21-.78.11-.2-.5-.3-.34-.83-.38-.54.08-1.04.16-.88-.5.51-.46 1.24-.79 1.54-1.35.19-.09.19-.09.23-.08.1.11.26.37.29.45-.11.3-.38.59-.64.88.11.16.41.26.6.2.17-.12.23-.21.3-.33.47-.47.96-1.01 1.12-1.56.15-.17.22-.17.39-.18.19.3.21.51.21.93.06.18 0 .27-.04.54.33.52.39.67 1.04.76.56-.03 1.33-.08 1.2.71-.2.28-.43.32-.69.16-.39.1.75.62.84.67.21.22.43.54.6.86.08.32-.25.67-.6.82-.33-.1-.69-.05-1.06-.01-.47-.01-.47-.01-.68-.05-.18.06-.42.06-.66.11-.7-.05-.84-.3-1.2-.84-.29-.18-.63-.22-.92-.42 0 .01-.01.02-.02.04.06.09.12.18.18.28.71.34 1.72 1.05.64 1.64-.26.07-.91-.37-1.18-.48-.36-.07-.69-.27-.99-.42-.17-.04-.28-.08-.37-.19.11-.24.22-.2.4-.11.54.05.84.14 1.33.3.09-.02.18-.02.27-.02-.07-.37-.77-.83-1.04-.91-.46-.31-.46-.31-.77-.46-.48-.11-1.1-.23-1.49-.51l-.87-.42c-.09-.09-.31-.44-.46-.59zm3.44 1.35c.01-.02.01-.03.02-.04.39.05.57.15.77.53-.01.02-.03.04-.04.06-.1-.15-.21-.14-.33-.19-.29-.25-.34-.26-.42-.36zm2.61.43v-.12c.07-.02.13-.03.19-.05.02.02.04.05.06.08-.05.04-.17.13-.25.09zm.77.57c.08-.12.16-.23.24-.34.01-.37.02-.99.46-.98.11.15.34.27.53.42.15.21.6.44.57.76-.31.34-1.25.23-1.71.26-.02-.04-.06-.08-.09-.12z"/></g></g></svg>