<svg height="316.227766" viewBox="0 0 252 252" width="316.227766" xmlns="http://www.w3.org/2000/svg"><g fill-rule="evenodd"><path d="m140.667969 227.109375c.4375.390625.804687.878906 1.082031 1.460937.285156.582032.453125 1.238282.515625 1.96875.0625.738282 0 1.414063-.1875 2.03125-.183594.621094-.46875 1.160157-.847656 1.617188-.371094.453125-.816407.8125-1.332031 1.082031-.511719.273438-1.074219.433594-1.675782.484375-.644531.054688-1.25-.019531-1.816406-.214844-.566406-.199218-1.0625-.492187-1.492188-.894531-.425781-.390625-.773437-.871093-1.050781-1.460937-.273437-.582032-.441406-1.21875-.496093-1.90625-.0625-.75 0-1.429688.1875-2.042969.183593-.605469.46875-1.144531.847656-1.609375.371094-.457031.816406-.824219 1.34375-1.097656.519531-.269532 1.078125-.433594 1.664062-.480469.621094-.050781 1.207032.019531 1.765625.203125.5625.191406 1.058594.476562 1.492188.859375zm79.210937-63.535156c-.03125.070312-.050781.1875-.066406.359375-.011719.167968-.011719.296875.003906.378906.027344.199219.050782.332031.082032.414062.023437.082032.109374.246094.253906.5.296875.507813.613281.992188.941406 1.449219.328125.464844.75 1.046875 1.261719 1.746094.1875.261719.347656.445313.476562.566406.136719.117188.347657.238281.644531.371094l1.601563.722656c.144531.0625.28125.09375.410156.082031.128907-.011718.261719-.070312.382813-.179687.074218-.070313.179687-.199219.316406-.398437.144531-.191407.25-.351563.308594-.480469l.421875.191406-1.777344 3.941406-.417969-.191406c.042969-.117187.105469-.285156.183594-.519531.074219-.226563.117188-.394532.117188-.5.007812-.167969-.03125-.304688-.109376-.402344-.074218-.101562-.191406-.1875-.339843-.253906l-2.050781-.921875c-.0625-.027344-.191407-.042969-.398438-.042969-.203125.003906-.429688.011719-.683594.023438-.570312.03125-1.183594.066406-1.847656.117187-.660156.050781-1.238281.09375-1.707031.136719-.285157.03125-.507813.066406-.667969.117187-.164062.050781-.316406.117188-.460938.210938-.105468.066406-.195312.160156-.289062.277343-.09375.117188-.160156.230469-.222656.335938l-.421875-.191406 1.621093-3.59375.421876.191406c-.179688.410156-.277344.707031-.304688.894531-.03125.183594 0 .296875.089844.339844.023437.011719.074218.019531.140625.023437h.273437c.121094-.003906.269532-.011718.433594-.023437s.320312-.019531.476562-.03125c.433594-.03125.871094-.0625 1.304688-.097656.441406-.039063 1.007812-.082031 1.710938-.144531-.71875-1.070313-1.289063-1.894532-1.699219-2.476563-.414063-.574219-.671875-.890625-.785157-.941406-.09375-.035157-.179687-.035157-.265624.007812-.085938.042969-.167969.109375-.25.210938-.085938.097656-.160157.214843-.234376.34375-.066406.132812-.136718.25-.195312.359375l-.421875-.191406 1.316406-2.925782zm.964844 10.210937c-.035156.097656-.085938.234375-.140625.402344-.0625.167969-.09375.316406-.097656.433594-.007813.148437.035156.273437.109375.378906.082031.105469.191406.191406.335937.269531l.636719.339844c.457031.25.765625.417969.933594.496094.160156.082031.296875.148437.410156.191406-.042969.640625-.144531 1.238281-.292969 1.808594-.148437.570312-.351562 1.101562-.617187 1.59375-.277344.519531-.644532.96875-1.101563 1.347656-.460937.378906-.960937.652344-1.519531.816406-.554688.175781-1.15625.222657-1.792969.15625-.636719-.070312-1.28125-.273437-1.925781-.621093-.621094-.332032-1.140625-.746094-1.5625-1.238282-.417969-.492187-.730469-1.03125-.914062-1.613281-.191407-.570313-.253907-1.164063-.199219-1.785156.0625-.617188.242187-1.210938.550781-1.789063.25-.464844.519531-.835937.816406-1.113281.292969-.285156.589844-.515625.886719-.6875l-.265625-.445313.246094-.457031 2.886718 1.476563-.253906.472656c-.359375-.085938-.726562-.15625-1.089844-.199219-.371093-.042969-.722656-.035156-1.070312.019531-.339844.054688-.65625.183594-.949219.378907-.285156.191406-.53125.476562-.734375.851562-.21875.410157-.335937.824219-.34375 1.234375-.003906.414063.09375.824219.300782 1.238282.191406.40625.492187.796874.894531 1.179687.410156.386719.910156.730469 1.492187 1.046875.523438.28125 1.042969.476562 1.566406.59375.527344.125 1.023438.15625 1.488282.09375.464844-.054688.898437-.203125 1.28125-.457031.390625-.246094.707031-.601563.945312-1.058594.179688-.339844.296875-.675781.34375-1.007813.042969-.335937.042969-.589843-.015625-.769531-.179687-.140625-.371093-.261719-.574219-.378906-.203124-.109375-.378906-.203125-.515624-.277344l-.449219-.242187c-.164063-.085938-.316407-.140625-.464844-.160156-.148437-.023438-.292969.019531-.421875.128906-.125.09375-.261719.242187-.410156.445312-.140625.207032-.253906.359375-.328125.484375l-.417969-.230469 1.925781-3.582031zm-9.421875 7.492188c.582031-.101563 1.1875-.074219 1.820313.078125.632812.148437 1.246093.429687 1.851562.84375.613281.414062 1.101562.886719 1.460938 1.421875.371093.535156.605468 1.097656.722656 1.679687.113281.570313.121094 1.144531 0 1.714844-.109375.570313-.339844 1.109375-.679688 1.609375-.363281.53125-.796875.960938-1.304687 1.277344-.507813.3125-1.054688.511718-1.628907.59375-.578124.085937-1.171874.054687-1.800781-.101563-.621093-.152343-1.222656-.425781-1.792969-.808593-.625-.429688-1.113281-.898438-1.464843-1.429688-.359375-.527344-.601563-1.085938-.726563-1.667969-.117187-.582031-.121094-1.15625-.003906-1.734375.117188-.574218.347656-1.105468.679688-1.59375.347656-.507812.769531-.925781 1.265624-1.246094.5-.335937 1.03125-.542968 1.601563-.636718zm4.890625 4.511718c-.191406-.425781-.464844-.824218-.808594-1.199218-.355468-.378906-.789062-.738282-1.300781-1.085938-.527344-.359375-1.042969-.636718-1.554687-.828125-.507813-.199219-.984376-.304687-1.429688-.316406s-.847656.074219-1.226562.261719c-.378907.179687-.695313.46875-.960938.851562-.289062.433594-.4375.867188-.449219 1.308594-.007812.4375.089844.867188.289063 1.28125.199218.394531.476562.78125.84375 1.15625.363281.378906.777344.730469 1.25 1.046875.519531.355469 1.019531.625 1.496094.816406.484374.195313.960937.296875 1.417968.316407.453125.027343.867188-.054688 1.246094-.226563.382812-.175781.710938-.472656.988281-.878906.261719-.386719.410157-.800781.441407-1.234375.03125-.425782-.050782-.855469-.242188-1.269532zm-5.175781 5.515626 1.96875 1.921874-4.660157 5.507813-.355468-.296875c.0625-.085938.148437-.210938.261718-.375.109376-.167969.179688-.285156.203126-.371094.039062-.136718.039062-.261718-.003907-.375-.050781-.117187-.136719-.226562-.261719-.332031l-5.046874-4.273437c-.117188-.09375-.226563-.160157-.351563-.199219-.117187-.035157-.246094-.015625-.398437.050781-.101563.042969-.234376.117188-.386719.222656-.15625.105469-.273438.199219-.355469.285156l-.351562-.296874 2.519531-2.972657.351562.296875c-.078125.09375-.160156.230469-.253906.402344-.097656.175781-.160156.304688-.191406.390625-.0625.148437-.054688.28125.007812.402344.0625.125.140625.230469.253907.324219l4.734374 4.003906c.21875.1875.398438.316406.535157.398437.140625.078125.269531.109375.40625.085938.125-.027344.261719-.105469.402343-.242188.148438-.136719.335938-.339843.5625-.605469.105469-.125.210938-.253906.316407-.390624.105469-.136719.199219-.273438.28125-.414063.078125-.132813.140625-.261719.191406-.390625.042969-.132812.0625-.238281.046875-.328125-.035156-.265625-.132812-.621094-.289062-1.058594-.15625-.441406-.304688-.78125-.433594-1.011719zm-10.351563 3.910156c.589844.011718 1.183594.152344 1.769532.417968.589843.265626 1.148437.664063 1.660156 1.183594.519531.527344.910156 1.082032 1.164062 1.671875.261719.59375.382813 1.1875.382813 1.78125.007812.582031-.097657 1.148438-.320313 1.6875-.21875.535157-.546875 1.019531-.980468 1.445313-.457032.453125-.964844.789062-1.519532 1.003906-.558594.21875-1.132812.304688-1.714844.273438-.578124-.023438-1.160156-.171876-1.746093-.441407-.582031-.269531-1.121094-.648437-1.605469-1.136719-.53125-.539062-.917969-1.097656-1.167969-1.683593-.25-.589844-.378906-1.175781-.386719-1.777344-.011718-.59375.09375-1.160156.324219-1.703125.222657-.546875.550781-1.023438.972657-1.441406.429687-.433594.925781-.761719 1.476562-.980469.550781-.222656 1.117188-.320313 1.691406-.300781zm3.945313 5.359375c-.113281-.453125-.296875-.898438-.570313-1.332031-.277344-.433594-.632812-.871094-1.070312-1.3125-.445313-.449219-.90625-.820313-1.363282-1.113282-.464843-.289062-.917968-.484375-1.351562-.582031-.433594-.09375-.847656-.085937-1.25.019531-.402344.105469-.773438.328125-1.101562.65625-.371094.371094-.601563.765625-.691407 1.195313-.09375.425781-.082031.867187.035157 1.316406.117187.429687.316406.863281.605468 1.300781.285156.441406.628906.859375 1.03125 1.269532.4375.445312.878906.804687 1.316406 1.082031.433594.28125.878907.480469 1.332032.582031.433594.105469.859375.113281 1.261718.015625.410157-.101563.789063-.324219 1.140626-.675781.332031-.328125.558593-.707032.667968-1.128906.113282-.414063.113282-.847657.007813-1.292969zm-10.054688-.105469c-.09375.082031-.210937.222656-.359375.433594-.144531.210937-.242187.371094-.28125.496094-.046875.179687.007813.402343.167969.667968.148437.265625.378906.578125.683594.933594l4.308593 5.085938-.429687.359374-9.011719-2.113281 3.03125 3.578125c.339844.402344.625.6875.863282.863282.226562.171874.4375.257812.617187.257812.136719.007812.347656-.054688.632813-.191406.289062-.136719.46875-.234375.550781-.296875l.289062.347656-2.839843 2.414063-.296876-.347657c.078126-.082031.203126-.234375.363282-.46875.160156-.238281.25-.398437.261718-.492187.035157-.183594 0-.394532-.117187-.617188s-.371094-.5625-.757813-1.015625l-2.898437-3.417969c-.121094-.148437-.277344-.277343-.457031-.382812-.179688-.105469-.347656-.160156-.5-.167969-.210938-.007812-.445313.039063-.710938.125-.269531.089844-.464844.191407-.597656.289063l-.289062-.347656 1.980468-1.675782 8.382813 1.980469-2.796875-3.300781c-.339844-.402344-.632813-.691406-.867188-.867188-.234375-.171875-.433594-.253906-.59375-.238281-.144531.015625-.339844.078125-.601562.195313-.253906.117187-.441406.21875-.550782.304687l-.296874-.347656 2.824218-2.394531zm-2.953125 14.019531-3.191406 2.214844-.265625-.382813c.082031-.070312.199219-.167968.355469-.296874.152344-.132813.253906-.230469.289062-.296876.082032-.121093.117188-.242187.105469-.367187s-.066406-.253906-.167969-.394531l-1.894531-2.738282-3.609375 2.507813 1.851562 2.675781c.09375.121094.1875.214844.285157.277344.105469.054688.234375.074219.410156.054688.078125-.003907.207031-.054688.394531-.128907.171875-.082031.308594-.140625.402344-.203125l.273438.382813-3.195313 2.214843-.265625-.382812c.078125-.066406.195312-.167969.351562-.296875s.253907-.230469.296876-.296875c.074218-.117188.113281-.242188.101562-.367188-.015625-.121093-.0625-.253906-.164062-.394531l-3.851563-5.546875c-.078125-.117187-.171875-.203125-.28125-.265625-.121094-.0625-.25-.082031-.402344-.058593-.132812.027343-.28125.0625-.441406.125-.167969.0625-.304687.125-.410156.1875l-.265625-.386719 3.1875-2.214844.269531.382813c-.101563.074218-.210937.179687-.335937.304687-.125.128906-.214844.234375-.273438.308594-.089844.128906-.121094.261719-.097656.390625.03125.128906.085937.253906.171875.371094l1.65625 2.382812 3.609375-2.507812-1.617188-2.328126c-.082031-.109374-.179687-.203124-.292968-.265624-.109376-.0625-.246094-.078126-.394532-.054688-.128906.019531-.277344.0625-.445312.125-.160156.0625-.296875.121094-.402344.183594l-.265625-.382813 3.1875-2.214843.265625.382812c-.097656.074219-.210938.179688-.335938.304688-.128906.128906-.214843.234374-.269531.308593-.09375.128907-.125.257813-.101562.390625.03125.128906.089843.253906.167969.371094l3.84375 5.539062c.089843.125.1875.21875.285156.28125.101562.058594.238281.078126.402344.054688.089843-.011719.21875-.054688.398437-.128906.179687-.082032.316406-.144532.40625-.207032zm-18.351562 7.863281.976562 2.535157-6.945312 3.207031-.199219-.417969c.117187-.0625.265625-.148437.453125-.269531.183594-.117188.296875-.203125.347656-.253906.097656-.117188.148438-.234375.152344-.351563.007812-.117187-.023438-.246093-.085938-.390625l-2.78125-6.023437c-.054687-.128907-.136718-.234375-.222656-.316407-.09375-.078124-.214844-.117187-.382812-.117187-.128906 0-.296875.019531-.496094.0625s-.347656.085937-.457031.125l-.191407-.421875 6.480469-2.992188.929688 2.019532-.445313.203125c-.21875-.265625-.53125-.5-.949218-.71875-.414063-.214844-.746094-.28125-1-.203125-.132813.042968-.28125.09375-.453126.167968-.171874.074219-.367187.15625-.582031.253907l-1.320312.605469 1.535156 3.332031.949219-.433594c.304687-.136719.507812-.273437.625-.390625.109375-.117188.1875-.273438.234375-.457031.03125-.15625.039062-.339844.007812-.558594-.027343-.214844-.070312-.414063-.125-.59375l.441407-.203125 1.507812 3.273438-.4375.207031c-.105469-.179688-.242188-.359375-.410156-.546875-.160156-.179688-.300782-.296875-.421875-.359375-.191407-.097657-.375-.136719-.554688-.109375-.175781.023437-.398437.097656-.652343.214844l-.941407.433593 1.160157 2.515625c.117187.253906.226562.4375.328124.566406.105469.132813.222657.207032.359376.238282.136718.03125.296874.011718.488281-.050782.1875-.0625.441406-.167968.769531-.316406.128906-.0625.296875-.136718.511719-.234375.210937-.097656.382812-.191406.527343-.273437.136719-.085938.277344-.183594.421876-.296875.140624-.117188.226562-.222657.265624-.328125.085938-.273438.148438-.644532.167969-1.121094.023438-.476562.015625-.816406-.007812-1.019531zm-9.324219-.136718-.429687.152344c-.089844-.136719-.214844-.285157-.386719-.457032-.167969-.167968-.347657-.320312-.535157-.457031-.191406-.144531-.382812-.261719-.582031-.355469-.199219-.085937-.363281-.117187-.511719-.089844-.132812.027344-.296874.074219-.492187.132813-.195313.0625-.375.125-.542969.179687l-.359375.132813 2.519531 7.007813c.050782.136718.125.246093.222657.347656.09375.089844.230469.140625.398437.152344.078125.007812.246094-.011719.507813-.046876.253906-.039062.445312-.074218.582031-.121093l.152344.441406-4.136719 1.484375-.160156-.4375c.117187-.050781.285156-.128906.515625-.242188.226562-.109374.375-.199218.457031-.265624.117187-.105469.1875-.21875.21875-.339844.023437-.125.003906-.273438-.050781-.441406l-2.539063-7.070313-.359375.128906c-.128906.046875-.285156.105469-.476562.179688-.1875.074219-.359375.148437-.527344.238281-.128906.066406-.238281.195312-.332031.394531s-.167969.414063-.230469.644531c-.054688.230469-.09375.464844-.109375.707032-.019531.238281-.027344.4375-.015625.585937l-.433594.15625-.851562-2.378906 7.632812-2.742187zm-14.0625 4.386718-.480469.089844c-.148437-.324218-.398437-.652344-.75-.980468-.355468-.332032-.664062-.496094-.929687-.480469-.136719.003906-.296875.015625-.476563.042969-.1875.023437-.390625.054687-.617187.097656l-1.519531.273437.65625 3.640625 1.039062-.1875c.316406-.054687.554688-.128906.714844-.226562.167968-.101563.296875-.230469.394531-.386719.070313-.109375.117187-.265625.148437-.476563.039063-.210937.042969-.433593.027344-.660156l.488282-.089844.636718 3.554688-.484375.085938c-.046875-.183594-.128906-.386719-.246093-.613282-.117188-.222656-.230469-.382812-.335938-.46875-.152344-.136718-.332031-.214844-.535156-.234375-.207032-.027343-.441406-.011719-.714844.035157l-1.039062.1875.5625 3.121093c.027343.140625.074218.257813.148437.359375.074219.097656.191406.171875.347656.214844.066407.019531.210938.03125.433594.03125.214844.007812.382813 0 .496094-.019531l.078125.453125-3.925782.707031-.078124-.453125c.128906-.03125.296874-.074219.5-.128906.210937-.058594.347656-.105469.402343-.148438.117188-.074218.199219-.179687.238281-.296875.035157-.121093.042969-.253906.011719-.410156l-1.175781-6.53125c-.027344-.144531-.074219-.261719-.136719-.359375-.070312-.101562-.1875-.167969-.339843-.210938-.132813-.03125-.292969-.054687-.496094-.0625-.199219-.003906-.359375-.003906-.476563.007813l-.082031-.453125 7.109375-1.28125zm-39.058594 8.675782-4.132812-.527344.0625-.457031c.117187.007812.285156.011719.507812.023437.222657.011719.382813.007813.476563-.015625.148437-.039062.261718-.101562.339844-.195312.074218-.085938.125-.222657.144531-.386719l.847656-6.640625c.019531-.148437.011719-.277344-.023437-.382813-.03125-.105468-.136719-.203124-.304688-.296874-.125-.066407-.277344-.136719-.464844-.210938-.191406-.066406-.351562-.117188-.476562-.140625l.0625-.460937 4.125.527343-.058594.457031c-.136719-.011718-.296875-.015624-.480469-.011718-.191406.007812-.359375.019531-.503906.042968-.167969.03125-.289063.101563-.359375.210938-.074219.113281-.117188.238281-.136719.378906l-.839843 6.628906c-.019532.144532 0 .273438.042968.390626.050782.117187.148438.222656.289063.304687.089843.050781.230469.105469.429687.167969.199219.066406.363282.109375.507813.136718zm-21.386719-8.097656-1.152343 2.46875-7.125-2.785157.167969-.425781c.121093.035156.289062.085938.5.132812.210937.050782.351562.074219.425781.074219.148437-.011719.273437-.054687.359375-.128906.09375-.074219.164062-.183594.222656-.332031l2.410156-6.179688c.054688-.128906.074219-.261718.074219-.378906-.007813-.125-.066406-.242188-.179687-.359375-.09375-.09375-.214844-.199219-.382813-.308594-.175781-.113281-.308594-.191406-.414063-.242187l.164063-.425782 6.652344 2.59375-.8125 2.074219-.453125-.179687c.039062-.339844-.011719-.730469-.140625-1.183594-.128907-.453125-.316407-.734375-.546875-.867188-.117188-.066406-.257813-.136718-.433594-.210937-.164062-.074219-.363281-.152344-.585938-.238281l-1.351562-.527344-1.328125 3.417969.964844.375c.308593.125.550781.179687.71875.179687.160156 0 .328125-.046875.488281-.140625.136719-.082031.273438-.210937.410156-.378906.140625-.171875.25-.339844.339844-.507813l.457031.179688-1.3125 3.363281-.457031-.179687c.0625-.199219.097656-.421875.109375-.667969.011719-.242187 0-.429687-.035156-.558594-.0625-.203125-.164063-.363281-.304688-.476562-.140625-.109375-.347656-.214844-.605469-.316407l-.96875-.375-1.007812 2.574219c-.097656.257813-.160156.46875-.183594.632813-.019531.160156.003906.300781.078125.417968.074219.117188.199219.222657.371094.316407.175781.09375.429687.203125.761719.335937.136718.046875.308594.117188.527344.203125.214843.085938.410156.148438.5625.191407.15625.042968.328124.074218.507812.101562.179688.015625.316406.003906.414062-.039062.261719-.125.570313-.339844.929688-.648438.359375-.316406.601562-.550781.730469-.71875zm-18.148437-5.175782-3.601563-2.082031.234376-.402344c.105468.050781.261718.125.460937.21875.195313.097657.34375.152344.445313.164063.148437.027344.277343.007812.382812-.042969.105469-.046875.203125-.152344.289062-.300781l3.34375-5.796875c.074219-.128907.117188-.253907.125-.363281.011719-.113282-.042968-.242188-.160156-.390626-.085937-.113281-.207031-.234374-.355468-.371093-.148438-.136719-.269532-.242188-.375-.3125l.226562-.402344 3.605469 2.082031-.230469.402344c-.125-.0625-.265625-.128906-.445312-.199219-.171876-.066406-.335938-.117187-.476563-.152343-.167969-.039063-.304687-.019532-.414063.054687-.105468.074219-.191406.171875-.265624.296875l-3.339844 5.789062c-.074219.125-.109375.246094-.109375.378907 0 .128906.050781.257812.148437.386719.0625.074218.167969.1875.328125.324218.15625.136719.296875.246094.421875.320313zm-26.3125-24.902344-2.210937 1.589844-4.859376-5.910156.355469-.292969c.089844.09375.214844.21875.375.367188.15625.148437.265625.238281.335938.269531.136719.0625.265625.089844.378906.0625.117187-.023438.234375-.085938.355469-.183594l5.121094-4.210937c.113281-.09375.191406-.191407.25-.296875.054687-.105469.058593-.242188.015624-.402344-.03125-.125-.089843-.28125-.183593-.457031-.085938-.179688-.167969-.316407-.234375-.417969l.351562-.289062 4.53125 5.507812-1.714844 1.414062-.308593-.378906c.199219-.277344.347656-.644531.453125-1.101562.105468-.457032.085937-.796875-.050782-1.019532-.074218-.121093-.167968-.25-.277343-.398437-.113281-.148437-.242188-.316406-.390625-.5l-.921875-1.121094-2.832031 2.328125.65625.804688c.210937.253906.398437.425781.539062.5.148438.082031.316406.117187.5.113281.15625-.007813.34375-.050781.546875-.132813.203125-.078124.382813-.171874.542969-.269531l.3125.375-2.789063 2.292969-.308593-.378906c.148437-.148438.285156-.320313.421874-.527344.128907-.203125.210938-.371094.234376-.5.050781-.210938.039062-.394531-.03125-.5625-.074219-.167969-.195313-.359375-.371094-.578125l-.660156-.804687-2.136719 1.757812c-.21875.175781-.371094.328125-.472657.460938-.097656.128906-.148437.265624-.136718.40625.007812.136718.0625.292968.167968.460937.105469.164063.273438.390625.503907.660156.089843.113281.210937.253907.359375.441407.148437.179687.277344.328124.394531.4375.117187.117187.246094.230468.394531.335937.148438.105469.273438.160156.386719.171875.285156.019531.660156-.015625 1.125-.117188.464844-.097656.792969-.183593.984375-.265624zm134.171875 25.398438c-.480469.253906-.996094.402344-1.539062.445312-.546876.042969-1.085938-.027343-1.621094-.207031-.527344-.179687-1.03125-.476562-1.507813-.882812-.476562-.410157-.878906-.941407-1.222656-1.59375-.34375-.648438-.554687-1.285157-.632813-1.925781-.082031-.628907-.042968-1.230469.105469-1.800782.148438-.554687.40625-1.0625.773438-1.523437.363281-.449219.816406-.820313 1.355469-1.105469.402343-.210938.785156-.355469 1.164062-.421875.378906-.074219.761719-.09375 1.152344-.070313l.03125-.511718.457031-.242188 1.574219 2.871094-.464844.25c-.210938-.25-.464844-.507812-.761719-.773438-.296875-.265624-.589843-.472656-.875-.613281-.316406-.160156-.644531-.253906-.972656-.265625-.328125-.015625-.65625.0625-.984375.234375-.363281.199219-.667969.457031-.902344.792969-.230468.332031-.378906.71875-.445312 1.164062-.054688.425782-.023438.910157.097656 1.453126.132812.546874.347656 1.109374.65625 1.695312.273438.523438.589844.960938.949219 1.328125.359375.363281.75.644531 1.164062.839844.414063.199219.839844.296875 1.269531.304687.433594.003906.851563-.097656 1.269532-.316406.308594-.160156.566406-.359375.773437-.59375.210938-.234375.371094-.484375.476563-.742188.097656-.265624.167968-.546874.199218-.84375.035157-.289062.027344-.582031-.007812-.882812l.53125-.019531c.101562.976562-.035156 1.78125-.394531 2.414062-.359375.632813-.917969 1.144531-1.667969 1.542969zm-151.785156-46.121094-1.589844-3.542968.425781-.191407c.054688.09375.128907.230469.230469.402344.089844.175781.171875.292969.234375.339844.105469.101562.214844.15625.339844.167969.125.011718.265625-.015626.421875-.085938l3.03125-1.363281-1.792969-4.011719-2.972656 1.332031c-.140625.0625-.246094.136719-.328125.230469-.074219.089844-.117188.214844-.125.390625-.011719.078125.015625.222656.050781.414063.042969.191406.085937.332031.128906.4375l-.425781.191406-1.589844-3.539063.425782-.191406c.050781.089844.125.226563.222656.402344.097656.171875.179687.289062.242187.34375.097657.101562.214844.15625.339844.167969.125.011718.261719-.015626.414063-.085938l6.160156-2.761719c.132812-.054687.234375-.136719.316406-.234375.085938-.097656.125-.230468.128906-.382812 0-.132813-.011718-.285156-.035156-.460938-.03125-.171875-.070312-.3125-.113281-.433594l.429687-.191406 1.589844 3.542969-.425781.191406c-.058594-.109375-.136719-.242187-.242188-.390625-.105469-.148437-.1875-.253906-.25-.320312-.109375-.117188-.234375-.167969-.363281-.167969-.136719.007813-.265625.035156-.394531.097656l-2.652344 1.191407 1.800781 4.011718 2.589844-1.160156c.125-.054688.230469-.136719.316406-.234375.078125-.097656.121094-.230469.121094-.382813.007812-.128906-.003906-.285156-.035156-.457031-.023438-.175781-.0625-.316406-.105469-.433593l.425781-.195313 1.585938 3.542969-.425782.191406c-.050781-.109375-.132812-.242188-.234374-.390625-.105469-.148437-.1875-.253906-.253907-.320313-.113281-.117187-.230469-.167968-.367187-.167968-.128906.007812-.265625.039062-.394532.09375l-6.15625 2.761718c-.136718.0625-.246093.136719-.320312.226563s-.117188.21875-.132812.386719c-.003907.085937.015624.222656.058593.414062s.078125.335938.121094.4375zm7.324218 6.984375-2.425781 1.226563-3.875-6.605469.394531-.238281c.074219.113281.179688.25.316407.421875.128906.171875.226562.277343.285156.320312.128906.089844.246094.125.363281.121094.117188-.007813.25-.050781.382813-.132813l5.722656-3.355468c.125-.074219.214844-.152344.289063-.253906.070312-.097657.09375-.226563.082031-.394532-.011719-.128906-.050781-.292968-.109375-.484375-.0625-.191406-.121094-.339843-.167969-.445312l.394531-.234375 3.609375 6.152344-1.917969 1.128906-.246093-.421875c.238281-.242188.445312-.582031.625-1.015625.171875-.433594.207031-.773438.105469-1.015625-.050782-.125-.125-.273438-.210938-.433594-.089844-.167969-.1875-.351563-.3125-.554687l-.730469-1.253907-3.164062 1.859375.527343.898438c.167969.285156.324219.480468.453126.582031.128906.097656.289062.160156.476562.191406.15625.019531.339844.003907.558594-.042969.214844-.050781.40625-.113281.582031-.1875l.246094.421876-3.113281 1.828124-.25-.421874c.175781-.117188.339843-.273438.503906-.453126.160156-.179687.265625-.335937.316406-.457031.074219-.199219.089844-.390625.046875-.5625-.042969-.175781-.128906-.386719-.273437-.628906l-.523438-.894531-2.390625 1.398437c-.242187.140625-.421875.265625-.539063.382813-.117187.117187-.1875.242187-.199218.378906-.011719.136719.019531.296875.101562.476562.078125.179688.203125.425782.390625.734376.066407.125.164063.285156.28125.492187.121094.195313.226563.363281.324219.492187.097656.132813.210938.269532.339844.390626.125.132812.242187.207031.347656.230468.277344.0625.65625.085938 1.132812.0625.476563-.027344.816407-.0625 1.015626-.113281zm8.160157 4.421875-.277344-.402344c.226563-.269531.425781-.632812.582031-1.089843.152344-.460938.179688-.804688.0625-1.046875-.0625-.117188-.144531-.261719-.242187-.414063-.09375-.15625-.210938-.328125-.339844-.527343l-.875-1.269532-3.046875 2.097656.59375.867188c.1875.265625.355469.453125.507812.558594.15625.105468.328126.171875.507813.195312.132813.019532.296875 0 .503906-.054687.210938-.054688.40625-.136719.613281-.246094l.277344.40625-2.976562 2.050781-.28125-.410156c.148437-.117188.304687-.277344.460937-.476562.160157-.195313.253907-.363282.296875-.492188.054688-.199219.054688-.398438-.007812-.589844-.066406-.199218-.171875-.410156-.335938-.636718l-.59375-.867188-2.613281 1.792969c-.117187.082031-.207031.175781-.269531.285156-.0625.113281-.074219.242187-.050782.402344.007813.070312.054688.207031.140626.410156.09375.203125.164062.351563.226562.445313l-.378906.261718-2.261719-3.289062.378906-.257813c.082031.101563.191407.234375.328125.402344.136719.164063.234375.265625.304688.300781.117187.074219.242187.105469.363281.085938.125-.011719.25-.058594.378906-.152344l5.464844-3.765625c.121094-.078125.210937-.171875.273437-.273437.070313-.105469.082032-.234376.054688-.394532-.015625-.128906-.066406-.285156-.140625-.472656-.082031-.183594-.148437-.328125-.203125-.429688l.375-.261718 4.09375 5.949218zm3.660156 14.980469-2.835937-3.046875.332031-.3125c.089843.078125.21875.191406.378906.34375.160156.15625.292969.25.378906.292969.136719.066406.265625.09375.382813.074219.113281-.019532.234375-.09375.359375-.210938l4.898437-4.5625c.109375-.105469.183594-.203125.226563-.308594.042969-.105468.027343-.242187-.042969-.421875-.046875-.128906-.121094-.285156-.226562-.460937-.101563-.171875-.195313-.308594-.273438-.40625l.339844-.316406 2.835937 3.046874-.339843.316407c-.09375-.101563-.210938-.207031-.359376-.324219-.148437-.117188-.285156-.210938-.414062-.285156-.148438-.085938-.285156-.105469-.410156-.066406-.125.035156-.242188.109374-.347656.203124l-4.882813 4.558594c-.105469.097656-.179687.203125-.21875.328125-.035156.121094-.03125.257813.027344.414063.035156.09375.109375.230468.222656.402344.109375.179687.210937.320312.308594.433593zm17.21875 3.746094c-.09375-.074219-.25-.171875-.453125-.285157-.210938-.117187-.402344-.183593-.582031-.210937-.171875-.015625-.382813.070313-.632813.273437-.246094.203126-.511718.472657-.808594.816407l-2.613281 3.058593c-.335937.390626-.707031.664063-1.117187.8125-.40625.148438-.816406.203126-1.242188.160157-.410156-.042969-.800781-.148438-1.152344-.320313-.359374-.167968-.664062-.367187-.929687-.59375-.425781-.359375-.753906-.738281-.988281-1.136718-.238282-.386719-.386719-.777344-.445313-1.15625-.0625-.378907-.046875-.730469.046875-1.070313.101563-.339844.253906-.636719.484375-.90625l3.554688-4.160156c.097656-.117188.160156-.226563.191406-.339844.03125-.109375.011719-.246094-.042969-.414063-.042968-.117187-.117187-.246093-.230468-.382812-.097657-.136719-.191407-.25-.265626-.324219l.296876-.351562 2.929687 2.5-.296875.355469c-.101562-.074219-.230469-.164063-.390625-.253907-.160156-.09375-.285156-.164062-.371094-.191406-.148437-.058594-.28125-.058594-.398437.003906-.117188.0625-.222656.148438-.316406.253907l-3.316407 3.882812c-.160156.183594-.308593.402344-.445312.644531-.136719.242188-.21875.507813-.25.785157-.03125.292968.019531.59375.144531.898437.121094.300781.375.617187.761719.953125.363281.308594.71875.511719 1.0625.605469.347656.09375.671875.113281.972656.042969.292969-.0625.546875-.164063.769531-.3125.222656-.152344.414063-.324219.582032-.523438l2.46875-2.882812c.308593-.367188.546874-.6875.6875-.964844.148437-.28125.199218-.496094.160156-.65625-.042969-.1875-.148438-.386719-.308594-.601563-.15625-.21875-.289062-.371093-.390625-.472656l.304687-.351563 2.871094 2.457032h-.003906l2.085938 1.46875.183593 8.617187 2.496094-3.535156c.304687-.433594.507813-.785156.621094-1.058594.105469-.273437.132812-.484375.078125-.632812-.046875-.132813-.160156-.3125-.339844-.53125-.179688-.214844-.320312-.371094-.433594-.457031l.265625-.371094 3.023438 2.128906-.261719.371094c-.105469-.066406-.273438-.140625-.511719-.234375s-.421875-.144531-.546875-.148438c-.191406 0-.394531.105469-.613281.328125-.214844.214844-.457031.511719-.730469.898438l-3.839844 5.441406-.449218-.324219-.21875-9.253906-2.703125 3.832031c-.304688.425782-.507813.78125-.621094 1.046875-.105469.265625-.140625.488281-.097656.667969.03125.136719.140625.320312.347656.5625.203125.25.34375.398438.425781.460938l-.265625.371093-3.046875-2.148437.261719-.371094c.097656.054688.28125.132812.550781.234375.265625.097656.445313.140625.53125.128906.191406-.011719.382813-.105469.570313-.273437.183593-.167969.449219-.496094.792969-.984375l2.582031-3.65625c.109375-.164063.195312-.34375.257812-.546875.054688-.199219.070313-.378906.039063-.53125-.050782-.207032-.148438-.421875-.304688-.65625-.15625-.21875-.296875-.386719-.425781-.484375zm20.40625 12.085937c-.101563-.042968-.230469-.082031-.390625-.113281-.167969-.027344-.308594-.035156-.429688-.023437-.171874.011718-.328124.070312-.46875.15625-.140624.085937-.296874.195312-.457031.332031-.5625.484375-1.425781 1.246093-2.582031 2.292969-1.160156 1.039062-2.359375 2.128906-3.605469 3.261718l-.476562-.234375c.179687-1.765625.359375-3.46875.527343-5.109375.171876-1.640625.285157-2.746094.339844-3.324218.011719-.140626 0-.277344-.03125-.40625-.03125-.132813-.09375-.269532-.179687-.410157-.074219-.117187-.160157-.222656-.269531-.316406-.113282-.097656-.222657-.171875-.324219-.234375l.203125-.410156 3.386718 1.679687-.203124.40625c-.289063-.121093-.550782-.222656-.765626-.269531-.222656-.058594-.359374-.03125-.410156.078125-.023437.042969-.042968.101563-.054687.160156-.011719.0625-.019531.121094-.027344.164063-.046875.449218-.117187 1.175781-.222656 2.191406s-.253907 2.449219-.4375 4.320312c.644531-.570312 1.398437-1.246093 2.257812-2.023437.863281-.78125 1.449219-1.324219 1.757813-1.617187.304687-.285157.496094-.496094.582031-.617188.09375-.125.15625-.230469.199219-.316406.042968-.085938.039062-.1875-.011719-.28125-.050781-.089844-.125-.195313-.234375-.308594-.113281-.097656-.222656-.191406-.347656-.277344-.117188-.085937-.242188-.160156-.371094-.242187l.199219-.410157 3.050781 1.511719zm14.277344 14.339844-2.421875-.6875c-.296875-.992188-.574219-1.859375-.835938-2.59375-.261718-.738281-.550781-1.5-.875-2.292969l-.921875-.257812-.804687 2.851562c-.042969.148438-.054688.285157-.042969.410157s.09375.234374.230469.339843c.066406.050781.191406.117188.371094.199219.183593.082031.339843.140625.46875.179688l-.128907.453124-3.800781-1.078124.128906-.453126c.105469.019532.253906.042969.453125.082032.199219.035156.339844.042968.425781.03125.144532-.019532.253907-.074219.339844-.164063.09375-.085937.15625-.214843.207032-.375l1.835937-6.5c.046875-.148437.0625-.285156.050781-.417969-.011718-.121093-.085937-.238281-.222656-.339843-.09375-.066407-.222656-.140625-.382812-.222657-.160157-.078124-.296876-.140624-.414063-.183593l.128906-.453125 4.148438 1.175781c.382812.105469.730469.246094 1.039062.421875.308594.171875.578125.382812.800781.628906.210938.242188.359376.523438.4375.84375.082032.316406.070313.667969-.042968 1.050782-.097656.347656-.242188.640624-.421875.875-.179688.234374-.402344.421874-.660157.558593-.242187.128907-.515624.222657-.820312.277344-.300781.0625-.628906.085937-.976562.09375.277343.710937.5 1.3125.6875 1.792969.179687.484375.394531 1.078125.664062 1.773437.117188.308594.226562.539063.34375.703125.117188.164063.238281.304688.359375.421875.101563.085938.222656.167969.378906.242188.160157.074219.289063.128906.402344.167969zm-1.4375-7.652344c.15625-.546875.125-1.023437-.097657-1.429687-.222656-.410157-.621093-.695313-1.191406-.855469l-1.078125-.304688-1.09375 3.859376.828125.234374c.582032.167969 1.128906.117188 1.617188-.148437.496094-.261719.835937-.710937 1.015625-1.355469zm8.613281 4.6875c.148438.246094.246094.507813.289062.777344.042969.273438.039063.570312-.023437.90625-.148437.796875-.570313 1.398438-1.257813 1.8125-.6875.410156-1.46875.53125-2.339843.367188-.410157-.074219-.800781-.21875-1.175781-.417969-.378907-.203125-.699219-.414063-.960938-.648438l-.359375.414063-.511719-.09375.488282-3.113282.519531.101563c.03125.402344.09375.773437.171875 1.101563.089844.332031.222656.65625.402344.964843.179687.289063.398437.539063.664062.742188.273438.203125.601562.339843.992188.414062.289062.058594.554687.0625.785156.027344.234375-.039063.433594-.113281.59375-.222656.160156-.117188.296875-.261719.394531-.441407.101563-.179687.175781-.390624.226563-.632812.058593-.359375.023437-.714844-.125-1.0625-.144532-.355469-.402344-.644531-.773438-.878906-.261719-.160156-.550781-.339844-.878906-.546875-.335938-.195313-.621094-.382813-.855469-.550781-.472656-.328126-.8125-.699219-1.023437-1.125-.207032-.421876-.265626-.9375-.148438-1.535157.0625-.34375.191406-.652343.386719-.925781.195312-.265625.445312-.492188.746093-.679688.292969-.171874.613282-.289062.972657-.359374.359375-.0625.71875-.0625 1.085937.011718.414063.082032.777344.210938 1.082032.402344.304687.1875.574218.398438.816406.613281l.339844-.382812.515624.09375-.515624 3.007812-.511719-.097656c-.027344-.367187-.074219-.710937-.128907-1.046875-.058593-.335938-.15625-.652344-.300781-.941406-.132812-.277344-.320312-.519532-.554687-.710938-.234375-.199218-.546875-.328125-.929688-.402344-.402344-.074218-.765625-.011718-1.101562.195313-.335938.207031-.539063.496094-.605469.867187-.074219.390626-.042969.730469.089844 1.023438.136719.289062.359375.550781.683593.78125.277344.203125.554688.386719.839844.554688.28125.160156.546875.335937.804688.507812.230468.160156.453125.328125.664062.515625.210938.191406.382813.394531.527344.613281zm14.753906-.523437-.453125-.027344c-.03125-.164063-.085937-.355469-.171875-.578125-.089844-.222656-.1875-.433594-.304687-.636719-.117188-.210937-.246094-.398437-.390625-.558593-.140625-.160157-.285156-.257813-.433594-.289063-.128906-.027344-.296875-.054687-.5-.074219-.210938-.027344-.398438-.042968-.570312-.058594l-.382813-.023437-.527344 7.429687c-.007812.148438.011719.277344.066407.402344.050781.125.148437.222656.296874.296875.082032.039063.242188.085938.492188.160157.246094.070312.4375.113281.574219.132812l-.03125.464844-4.382813-.3125.03125-.464844c.125 0 .308594-.003906.5625-.011719.253906-.003906.425782-.03125.527344-.0625.148438-.046875.257812-.121093.332031-.222656.074219-.105469.121094-.238281.132813-.417969l.53125-7.492187-.378906-.027344c-.136719-.011719-.300782-.015625-.507813-.023437-.195313-.003907-.386719-.003907-.574219 0-.148437.007812-.304687.082031-.46875.222656-.164062.144531-.316406.308594-.464844.496094-.148437.1875-.273437.390624-.390624.601562-.117188.214844-.199219.390625-.25.53125l-.457032-.03125.171875-2.519531 7.816407.550781 3.9375.074219-.007813.464843c-.445313 0-.753906.023438-.941406.074219-.183594.050781-.269531.117188-.277344.214844 0 .027344.011719.074219.035156.144531.027344.066406.0625.148438.105469.246094.058594.113281.121094.242188.199219.390625.074219.148437.144531.285156.210937.421875.199219.390625.394532.78125.601563 1.164062.203125.382813.476562.890626.804687 1.515626.699219-1.082032 1.238282-1.929688 1.609375-2.539063.363281-.605469.550781-.96875.558594-1.09375 0-.101563-.039063-.179687-.105469-.242187-.074218-.0625-.175781-.109376-.292968-.148438-.125-.039062-.257813-.0625-.40625-.082031-.152344-.011719-.285157-.023438-.410157-.042969l.003907-.464844 3.214843.0625-.011719.464844c-.074218.007812-.191406.03125-.351562.082031-.164062.046875-.28125.105469-.347656.152344-.175782.101563-.292969.179687-.355469.238281-.058594.054688-.175781.195313-.355469.433594-.347656.46875-.671875.945312-.96875 1.429688-.289062.480468-.660156 1.101562-1.105468 1.84375-.167969.273437-.273438.496093-.328126.664062-.058593.164062-.089843.40625-.09375.730469l-.03125 1.761719c-.007812.15625.023438.292968.078126.410156.0625.109375.167968.210937.316406.285156.09375.035156.253906.078125.492187.136719.234375.054687.417969.085937.5625.09375l-.007812.460937-4.320313-.078125.003906-.464843c.125-.007813.304688-.019532.554688-.039063.238281-.015625.40625-.046875.503906-.085937.15625-.0625.269532-.148438.328125-.257813.058594-.113281.09375-.25.09375-.417969l.042969-2.246094c.007812-.066406-.035156-.199218-.117188-.382812-.078124-.1875-.179687-.398438-.289062-.621094-.253906-.507812-.535156-1.058594-.835938-1.644531-.304687-.59375-.570312-1.101563-.800781-1.519531-.136719-.253906-.257812-.4375-.371093-.566406-.105469-.132813-.226563-.242188-.371094-.34375-.105469-.066407-.230469-.117188-.371094-.152344-.050781-.011719-.09375-.027344-.136719-.03125zm19.796875 4.304687c.210938-.414062.355469-.878906.421875-1.386718.070313-.507813.074219-1.070313.027344-1.691407-.058594-.628906-.164062-1.210937-.328125-1.730469-.175781-.523437-.390625-.960937-.664063-1.3125-.265624-.355468-.59375-.613281-.972656-.789062-.378906-.179688-.796875-.246094-1.261718-.203125-.519532.042969-.953126.199219-1.300782.46875-.347656.273437-.613281.613281-.8125 1.035156-.183594.402344-.308594.859375-.375 1.382813-.0625.523437-.074218 1.0625-.027344 1.632812.050782.625.15625 1.1875.316407 1.675782.148437.496093.367187.929687.644531 1.300781.265625.367187.589844.640625.960938.824219.371093.1875.808593.261718 1.304687.21875.464844-.039063.875-.1875 1.230469-.433594.355468-.253906.640625-.582032.835937-.992188zm0 0"/><path d="m31.761719 89.824219c-.167969-1.578125-.230469-3.152344-1.097657-4.613281-.117187-.199219-.183593-.308594-.234374-.527344l-.339844-1.601563c-.351563-2.023437-.992188-3.820312-1.589844-5.648437-.578125-1.925782-1.640625-2.519532-2.558594-3.496094-.996094-1.890625-2.191406-3.554688-2.613281-5.976562.007813-.550782.855469-1.390626 1.289063-1.582032 2.023437.539063 3.378906 1.527344 4.625 2.722656.253906.242188 1.316406.457032 1.609374.644532 1.417969-.683594 3.113282-1.257813 5.167969-1.726563.6875-.15625 1.375-.441406 2.136719-.570312 1.976562-1.996094 4.855469-5.503907 5.976562-5.269531.953126.15625 1.355469.910156 1.199219 2.265624-.628906 1.628907-1.484375 3.484376-2.628906 5.027344-.371094.507813-.484375.53125-1.109375.710938-1.617188.476562-3.214844 1.011718-4.773438 1.699218l-.488281.195313-.410156-.128906-.511719.097656-.398437.34375-.898438.066406c-2.382812-.050781-3.566406.8125-3.300781 2.769531l.019531 1.28125c.007813.363282.402344.648438.59375.988282l.386719.773437-.019531.597657.457031.710937.308594 1.164063-.105469.605468c.21875.484375.386719.933594.40625 1.289063l.085937 1.75c.195313.570312.332032 1.175781.523438 1.757812l.15625.238281c.09375.121094.128906.246094.117188.363282l-.019532.367187c-.003906.210938.15625.277344.324219.382813.140625.09375.140625.117187.160156.273437l.066407.5625.082031.515625-.414063.660156-.367187.425782-.3125.238281-.410157.078125-.285156-.046875c-.445312-.050781-.753906.089844-.804687-.378906zm4.347656-12.210938-.539063.378907-.972656-.359376-.371094-.785156-.148437-.558594-.144531-.402343.125-.257813.0625-.523437.128906-.257813c.367188-.773437.761719-1.398437 1.160156-2.0625l.65625.070313.636719.460937.421875.390625.097656.371094.273438.417969.015625.503906.105469.410156-.066407.328125-.128906.261719-.199219.308594-.171875.382812.148438.558594.097656.371094.125.445312-.25.125-.40625-.355468zm.851563 2.460938.484374-.132813 1.429688-1.917968.222656-.515626.070313-.636718.117187-.296875.210938-.390625.671875-.601563.582031-.074219.695312.21875.679688.179688.644531.464844.878907.613281.1875.394531.539062.519532.3125.445312.210938.355469.085937.449219c-.246094.582031-.59375 1.132812-1.15625 1.628906l-.210937-.191406-.273438.601562.226562.390625.023438.382813-.179688.382812-.335937.222656c-1.089844.355469-2.417969.324219-3.863281.125l-.722656-.328125-.742188-.679687-.253906-.070313-.261719-.808593zm3.003906-.664063.042968-.285156.128907-.257812.207031-.273438.183594-.191406.296875-.09375.539062.246094.273438.261718-.054688.402344.097657.371094.039062.265625-.199219.308593-.136719-.210937-.171874.230469-.269532.050781-.40625-.191406-.335937-.210938zm0 0"/><path d="m64.816406 53.414062-.480468-.515624-.496094-.636719-.507813-.769531-.519531-.585938-.804688-.953125-.402343-.898437-.386719-.953126.042969-.949218.046875-.285156-.253906-.46875.191406-.519532-.207032-.453125.148438-.234375-.246094-.652344-.042968-.554687-.335938-.570313-.289062-.546874-.199219-.46875-.371094-.644532-.476563-.691406-.476562-.695312-.316406-.316407.097656-.257812-.597656-.6875-.410156-.71875-.265626-.601563-.246093-.648437s-.253907-2.644531-.050781-3.039063c.203124-.398437 1.453124-1.171875 1.453124-1.171875l.058594-.644531c.535156-.753906 1.089844-1.273438 1.671875-1.257812l.476563-.148438.609375.328125.582031.738281.25.648438-.082031.390625.019531.613281.546875.84375.550781.660156.234375.527344.003907.304688.566406.792968.5625.789063.078125.460937 1.796875 2.234375.042968.558594.472657.871094.585937.558593.726563.320313c.480469.105469.890625.507813 1.144531.875.675781.945313.824219 2.550781 0 2.34375l-.679688-.296875-.683593-.296875-.871094-.265625-.355469-.210938.039063-.765624-.421875-.671876-.359375-.519531-.625-.457031-.617188.03125-.582031.105469-.328125.222656-.1875.519531-.09375.742188.175781.863281.023438.609375.296875.675781.898437.875.078125.457031.125.65625.128907.476563.0625.328125.632812.761719-.023438.410156.203126.269531-.402344.609375-.09375.257813-.136719.367187-.042969.464844.070313.808594-.222657.445312zm2.179688-15.621093-.785156-.039063-.273438-.117187-.484375-.390625-.371094-.691406c-.03125-1.160157.113281-2.160157.503907-2.960938l.445312-1.21875.632812-1.132812c.46875-.601563.996094-.953126 1.535157-1.269532l1-.308594.9375-.390624c1.121093-.273438 1.253906.644531 1.242187 1.613281l.21875 1.109375.152344 1.171875.136719.851562.101562.707031-.378906 1.027344-.007813.878906-.238281.910157-.3125.835937.074219.78125c.652344 1.226563 1.511719 1.722656 2.578125 1.484375l1.0625-.722656 1.4375-1.132813c.59375-.445312 1.132813-1.023437 1.722656-1.46875l.933594-.808593.425781-.433594c.050782-.3125.03125-.578125-.140625-.757813l-.148437-.648437-.890625-1.097656-.304688-.265625-.390625-.035156-.171875-.125-.417969-.574219.105469-.527344.417969-.039063.671875.34375.292969.171876.507812.4375.421875.1875.492188.351562.539062.238281.609375.179688c.910156-.046875 1.484375.691406 1.378906 1.578125l.082032.519531-.550782.902344-.355468.59375-.40625.75-.359375.503906-.910157.789063-.515624.175781-.480469.226562-.746094.335938-.371094.410156-.46875.0625-.546875.152344-.539062.382812-.488282.359375-.75.464844-.609374.347656-.539063.382813-.476563.324219-.703124-.042969-.609376-.136719-.539062-.238281-.410156-.222657-.488282-.480468-.621093-.625-.339844-.546875-.285156-.433594-.507813-.445313-.285156-.433593-.164062-.648438-.167969-.515625-.371094-.203125-.339844-.285156zm-.09375-4.636719.3125.617188.269531.339843.371094.074219.503906.21875.273437-.144531.402344.132812.46875-.324219.328125-.167968.148438-.285156-.234375-.457032-.296875-.394531-.292969-.304687-.476562-.160157-.4375.117188-.367188.148437-.40625.128906-.378906.1875zm.601562 3 .574219-.492188.386719.164063.53125.15625.222656.214844.582031.132812.308594.359375.074219.296875-.109375.300781-.125.210938-.359375-.109375-.289063-.175781-.261719.105468-.347656-.148437-.164062-.160156-.28125-.082031-.265625-.246094zm-4.859375 3.847656-.339843.03125-.09375.25.128906.347656.335937.1875.257813-.21875.164062.253907.3125.136719.242188-.148438.355468-.171875.152344-.328125.148438-.304688-.019532-.257812-.328124-.292969-.269532.136719-.347656-.15625-.292969.199219zm-2.292969-4.71875-.519531.253906-.179687.339844-.152344.414063.0625.507812.214844.398438.0625.328125.570312.433594.382813.28125.613281.148437.339844-.089844.351562.03125.292969-.472656.117187-.308594-.082031-.453125-.109375-.351562-.433594-.488282-.203124-.273437-.261719-.296875-.347657-.210938-.332031-.085937zm0 0"/><path d="m104.238281 19.378906.808594-.5625.523437-.253906.65625-.429688.511719-.253906.652344-.207031.679687-.355469.476563-.242187.828125-.265625.207031-.234375c1.621094-.484375 3.070313-.898438 4.671875-1.015625.609375-.042969 1.085938.632812.878906 1.585937l-.078124.792969-.15625.941406-.296876.308594-.601562.363281-.277344.390625-.46875.410156-.199218.53125-.230469.546876-.148438.554687-.246093.761719-.507813.675781-.398437.128906-.328126.359375-.679687.222656-.347656.285157-.375.464843-.132813.339844-.339844.324219.09375.5625v.550781l.457032-.0625.890625-.160156.78125-.167969.5625-.222656.570312-.1875.589844-.402344.371094-.203125.792969-.257812.566406-.1875.503906-.160156.394531-.128907.453125-.0625c1.578125-.03125 3.554688.023438 3.542969 2.117188l-.460937.445312-.382813.167969-.71875.234375-.570313.0625-.5625.097656-.4375-.042969-.671874.007813-.402344-.039063-.773438-.214843-.519531-.042969h-.511719l-.707031.015625-.179687.0625-.476563-.011719-.8125.179688-.488281.074218-.390625-.128906-.148438.300782-.65625.175781-.273437.003906-.847656.191406-.691407.1875-.503906.160157-.285156.09375-.109375.289062-.632813-.003906-.332031.191406-.433594.394531-.578125.1875c-.023437.515625-.289062.992188-1.074219 1.410157l-.480468.242187-.429688.144531-.476562.109375-.546875.007813-.617188-.09375-.410156-.039063-.425781-.117187-.429688-.117188-.300781-.363281-.105469-.476563-.113281-.644531.316406-.527343.328125-.359376.8125-.308593.46875-.15625.644532-.210938.359374-.117187.59375-.109375.5-.160157.328126-.105468.800781-.21875.550781-.136719.371094-.332031.382812-.296875.265625-.558594.042969-.394531.101562-.460938.203126-.363281.246093-.378906.28125-.390625.011719-.46875.199219-.28125.097656-.328125-.371094-.179688-.261719-.085937-.234374-.136719-.285157-.035156-.296875.054687-.539062-.078125-.53125-.082031-.425782-.242188-.296874-.203124-.292969-.328126-.09375-.308593-.042969-.410157-.105469-.347656.042969-.265625.011719-.46875-.027344-.25zm0 0"/><path d="m145.625 20.269531.136719-.402343.222656-.480469.355469-.269531.296875-.507813-.316407-.226563.054688-.273437.027344-.382813.265625-.472656.089843-.417968.714844-.535157c.496094-.179687.984375-.128906 1.472656.144531l.605469-.402343.199219-1.175781.042969-.894532c.867187-1.34375 1.628906-1.972656 2.277343-1.886718.792969-.160157 1.554688-.039063 2.285157.378906l.265625.605468-.035156 1.007813.148437.335937.042969.636719.476562.285157.308594-.285157.742188-.632812.84375-.765625c.917968-1.007813 2.03125-1.054688 2.308593-.859375.367188.238281.550781 1.207031.234375 2.734375l.285156.265625.6875.296875.757813.167968c.203125.414063.339844.816407.265625 1.089844-.128906.457032-.644531 1.054688-1.566406.78125l-1.769532-.191406c-.84375.449219-.949218 1.015625-.324218 1.695312l.953125.125.527343.300782.558594.207031.628906.003906.609376.222657c.40625.453124-.238282 2.007812-.960938 1.996093l-.582031-.117187-.398438.078125-2.585937-.257813c-.171875.890625.105468 1.910156-.785156 1.855469-1.773438-.105469-3.203126 1.230469-2.414063 2.859375-.125 1.296875-.675781 1.863281-1.703125 2.367188-.222656.109374-.367188.4375-.613281.550781-.207031.085937-.582031.871093-.769531.996093-.773438 3.25.570312 5.609376-2.09375 5.066407-.394532-.082031-.523438-.144531-.804688-.433594l-1.058594-1.089844-.4375-.84375-.515625-.183593-.882812-.324219c-.238281-.152344-.453125-.519531-.632813-1.363281l.359375-.882813.722657-.582031c.886718-.03125 1.617187.148437 1.710937.679687l-.273437.128907-.140626.453124-.117187.804688.46875.457031.742187.441407.578126.097656.328124-.445313.375-.480469c.25-.550781.011719-.941406.019532-1.414062l-.738282-.152344-.363281-.304687c-.328125-.382813-.324219-.71875.011719-1.003907l.953125-.734374c.285156-.375.453125-1.003907.503906-1.914063l-.328125-.570313-.125-.550781-.347656-.351562-.390625-.539063.070313-.65625.183593-.550781.441407-.355469.359374-.433594.585938-.179687.726562.039063c.109376.183593.402344.171874.457032.351562.371094 1.160156.351562 1.789062 1.90625.847656l.507812-.097656 1.066406-.347656.671876-.433594.664062-.097656.496094-.21875.023437-.382813-.507812-.183593-.4375-.105469-.347657.097656-.5625-.203125-.464843-.167969-.652344.050781-.371094-.136718-.394531.078125-.367188.148437-2.363281-.296875-2.488281-.394531-.640625.332031-.820313.101563-.339843.128906c-.15625.007812-.316407.136719-.464844.023438l-.453125-.164063-.707031-.089844-.796875.335938c-.15625.148437-.296875.1875-.445313.171875l-.546875-.195313-.296875.117188c-3.429687.660156-4.402343.644531-3.851562-.398438.230469-.425781 1.375-.808593 2.496093-.910156.667969-.058594 1.046876-.121094 1.753907.148437l.597656-.058593.695313-.03125.734374-.011719.726563.035156.457031-.117187zm8.167969 11.460938-.359375-.0625-.230469.125-.179687.242187-.253907-.09375-.523437-.125-.28125-.105468-.257813.113281-.117187.332031-.074219.316406-.09375.347656-.054687.351563-.03125.265625-.074219.210938-.210938.0625.171875.507812.390625.519531.425781.328125.429688.050782.222656-.09375.316406-.09375.136719-.117188.238281-.148438.230469-.015624.179688-.347657.296875-.304687.117187-.160156.125-.367188-.007812-.34375.09375-.273438-.191407-.347656-.246093-.296875-.03125-.285156zm-7.003907-11.683594.390626-.191406.507812-.082031.316406-.148438.878906.070312-.125.753907-.511718-.011719h-.625l-.378906.03125-.351563-.097656zm5.871094-1.285156-.082031-.375.136719-.402344.234375-.53125.3125-.285156.382812-.199219.410157.039062.371093.136719.164063.285157-.101563.300781-.144531.402343-.265625.015626-.128906.234374-.144531.402344-.394532.296875-.402344.035157zm0 0"/><path d="m182.378906 33.992188 1.855469.671874.800781.089844.480469.355469.9375-.140625.941406-.148438.730469-.742187c.957031-.824219 2.011719-1.488281 3.164062-1.988281.835938-.371094 1.496094-.402344 1.71875.753906.160157.832031-.246093 1.902344-1.101562 3.550781-.003906.414063.160156.703125.515625.878907.46875.359374.996094.625.835937 1.230468-.175781.636719-.855468 1.566406-2.917968 1.503906l-1.214844-.265624c-.414062-.246094-.742188-.203126-1.058594-.011719-.488281.296875-.550781.75-.683594 1.257812.425782 2.796875 1.167969 5.234375 1.996094 7.773438.226563.578125.558594 1.066406.9375 1.519531.160156.195312.328125.269531.554688.382812.515625.257813.835937.457032.886718.890626.070313.503906-.265624.757812-.601562.78125-.394531.03125-.511719-.007813-.871094-.136719-.824218-.367188-1.636718-.824219-2.453125-1.289063l-.464843-.566406-.625-1.078125-.160157-.640625-.484375-1.773438-.027344-1.121093-.199218-.820313-.085938-.617187-.089844-.621094-.035156-1.125-.21875-.730469-.339844-.589844-.914062-.40625-.285156.453126-.421875.207031-3.492188 1.269531-1.230469.464844-.980468.304687-1.230469-.007812-.519531-.195313-.867188-.789062-.1875-1.15625c.570313-.730469.570313-.78125 1.3125-.324219l.433594-.078125.519531.199219.503907-.195313.445312.179688.480469-.109375.242187-.160157.367188.035157h.613281l.433594-.078125.488281-.324219.632812-.210937.5-.191407c.691407-.410156.914063-.976562.296876-1.609375l-1.269532-.785156-.527344-.667969.101563-.539062.109375-.75.148438-.570313.402343-.601562.324219-.269532zm0 0"/><path d="m218.484375 68.457031c.242187-.285156.28125-.585937.980469-.816406l1.4375-1.058594.363281-.074219.316406-.082031.601563-.394531.46875.050781.347656.035157.351562.039062.25.257812.566407-.171874.335937.4375.253906.261718.09375.46875-.085937.507813-.238281.667969-.34375.253906-.503906.179687-.433594.417969-.148438.5c.472656.613281.921875.601562 1.375-.023438l.429688-.070312.34375.039062.441406-.125.582031.0625.253907.257813.71875.65625.171874.714844.011719.582031-.078125.449219-.070312.398437.292968.378906.457032.101563c.699218.628906 2.390625.136719 3.289062.03125 1.386719.230469 1.429688 1.433594.445313 2.386719l-.503907.117187-.160156.269531-.371094.421876-.113281.625-1.1875.683593c-1.554687.195313-1.324219-.589843-3.050781-.90625l-.78125.378907-.082031.453124-.402344.246094-.375.476563-.316406.425781.003906.640625.417969.679687-.132813.738282.050781.753906c-1.238281 1.574219-2.542968 2.125-4 .441406l-.078124-.515625-.441407-.582031-.328125-.496094-.359375-.328125-.230469-.71875c.164063-1.460937 1.414063-.015625 1.5625.222657l.542969.292968.433594-.414062-.011719-.640625c-.285156-1.75-1.15625-3.09375-2.976562-3.316407l-.867188.542969-.570312.867188-1.132813.730469-.582031.582031-.191406.730469-.117188.683593-.074218.394531.179687.367188-.28125.890625.074219.585937.210937.746094c-.234375.972656-.734375 1.304688-1.253906 1.566406-1.269531.628907-1.394531.078126-1.839844-.621093-.699219-.507813-1.703125-1.027344-2.71875-.933594-.761719-.179687-1.480469-.589844-2.1875-1.070313l-.671875-.90625c-.296875-.550781-.835937-1.019531-.949218-1.789062-.066407-.476562.242187-.933594.550781-1.347656.757812-1.042969 1.371093-1.234375 1.640625.464844-.035156.480468-.066406.9375.433594 1.398437l.230468.574219c.828125.636718 1.492188.832031 1.777344.019531.214844-1.367187-.367188-2.457031-1.171875-3.472656-.433594-.355469-.628906-.625-.285156-.898438.296875-.335937.90625-.234375 1.503906.390625l.726563.941406c.433593.351563.933593.332032 1.496093-.074218l1.339844-.84375.605469-.050782.515625-.234374.0625-.339844-.144531-.53125.085937-.507813.316406-.429687.453125.105468c.476563.011719.601563-.359374.496094-.753906l-.738281-.539062-.46875-.050782-.496094-.222656-.378906-.554687-.378907-.21875-.648437-.359375-.382813-.152344-.539062-.347656-.621094-.179688-.226562-.371094-.589844-.0625-.277344-.433593c-.632812.042969-.699218-.042969-1.046875-.414063-.71875-.78125-1.4375-1.691406-1.308593-2.085937-.222657-.582031.34375-.800781 1.6875-.644531.753906.085937 1.058593.921874 1.496093 1.472656l.570313.496094.328125.496093.5.164063.464843.398437.539063.347657.605469.234374.449218.507813.609376.242187.726562-.386718.582031-.285156.433594-.414063.445313-.523437.304687-.375zm2.582031 3.789063-.550781-.914063-.375.089844-.253906.027344h-.519531l-.34375.5.09375.246093-.125.253907-.066407.398437-.191406.140625.097656.199219-.042969.265625.335938.464844.210938.1875.371093-.207031.332031-.179688.207032-.246094.195312.15625.199219-.0625.265625-.242187.074219-.261719.234375-.238281-.054688-.304688zm2.027344.726562.203125-.0625.292969-.074218.238281.023437.191406.019531.25.136719.230469.265625.109375.308594v.324218l-.054687.3125-.261719.371094-.074219.125-.320312.261719-.167969.171875-.21875-.023438-.25.023438-.175781-.097656-.179688-.421875-.277344-.273438-.113281-.148437.058594-.179688.046875-.289062.070312-.371094.140625-.175781zm0 0"/><g fill="#b31a25"><path d="m126 35.664062c44.167969 0 80.933594 31.710938 88.785156 73.601563h-.867187c-7.839844-41.414063-44.226563-72.753906-87.917969-72.753906s-80.074219 31.339843-87.910156 72.757812h-.867188c7.84375-41.890625 44.613282-73.605469 88.777344-73.605469zm84.164062 123.199219c-13.144531 33.636719-45.875 57.46875-84.164062 57.46875s-71.015625-23.835937-84.164062-57.46875h.914062c13.109375 33.15625 45.445312 56.621094 83.25 56.621094 37.808594 0 70.148438-23.460937 83.25-56.621094zm0 0"/><path d="m208.140625 113.152344h-4.378906v3.039062h4.378906zm-5.320313 4.507812h45.578126v30.734375h-45.578126v6.511719h42.128907v.949219h-237.019531v-.949219h41.15625v-6.511719h-45.558594v-30.734375h45.558594v-7.1875h-43.457032v-2.054687h43.457032l-.113282-11.070313h-1.359375v-2.695312h46.09375v-2.882813h14.832031v2.890625h34.882813v-2.886718h14.835937v2.890624h46.039063v2.695313h-1.476563v11.070313h44.070313v2.054687h-44.070313zm-159.214843 25.167969h4.382812v3.039063h-4.382812zm-7.664063 0h4.375v3.039063h-4.375zm-7.671875 0h4.378907v3.039063h-4.378907zm-7.671875 0h4.378906v3.039063h-4.378906zm-7.671875 0h4.378907v3.039063h-4.378907zm-7.667969 0h4.382813v3.039063h-4.382813zm38.347657-7.417969h4.382812v3.035156h-4.382812zm-7.664063 0h4.375v3.035156h-4.375zm-7.671875 0h4.378907v3.035156h-4.378907zm-7.671875 0h4.378906v3.035156h-4.378906zm-7.671875 0h4.378907v3.035156h-4.378907zm-7.667969 0h4.382813v3.035156h-4.382813zm38.347657-7.421875h4.382812v3.039063h-4.382812zm-7.664063 0h4.375v3.039063h-4.375zm-7.671875 0h4.378907v3.039063h-4.378907zm-7.671875 0h4.378906v3.039063h-4.378906zm-7.671875 0h4.378907v3.039063h-4.378907zm-7.667969 0h4.382813v3.039063h-4.382813zm38.347657-7.417969h4.382812v3.039063h-4.382812zm-7.664063 0h4.375v3.039063h-4.375zm-7.671875 0h4.378907v3.039063h-4.378907zm-7.671875 0h4.378906v3.039063h-4.378906zm-7.671875 0h4.378907v3.039063h-4.378907zm-7.667969 0h4.382813v3.039063h-4.382813zm44.773438-15.738281h44.746094v-7.492187h-44.851563zm45.699219 0h10.792969v-7.492187h-10.792969zm11.738281 0h37.03125v-7.492187h-37.03125zm37.976562 0h10.792969v-7.492187h-10.792969zm11.742188 0h44.6875v-7.492187h-44.6875zm44.6875 34.949219h-44.6875v15.125h44.6875zm-45.636719 0h-10.804687v15.125h10.804687zm-12.328125 0h-10.9375v15.125h1.421875v-5.695312h7.769531v5.695312h1.746094zm-12.460937 0h-10.941407v15.125h1.664063v-5.695312h7.773437v5.695312h1.503907zm-12.464844 0h-10.9375v15.125h1.90625v-5.695312h7.769531v5.695312h1.261719zm-12.460937 0h-10.792969v15.125h10.792969zm-11.746094 0h-44.746094v15.125h44.746094zm67.652344 2.339844h-4.382813v3.746094h4.382813zm-154.5 17.800781v-1.566406h237.019531v1.566406zm35.675781-9.671875h4.382812v3.042969h-4.382812zm-7.664063 0h4.375v3.042969h-4.375zm-7.671875 0h4.378907v3.042969h-4.378907zm-7.671875 0h4.378906v3.042969h-4.378906zm-7.671875 0h4.378907v3.042969h-4.378907zm-7.667969 0h4.382813v3.042969h-4.382813zm147.773438-1.039062h-4.378906v3.746093h4.378906zm-49.714844 0h-4.386718v3.746093h4.386718zm-9.25 0h-4.378906v3.746093h4.378906zm-7.671875 0h-4.378906v3.746093h4.378906zm-7.671875 0h-4.378906v3.746093h4.378906zm-7.671875 0h-4.375v3.746093h4.375zm-7.664062 0h-4.382813v3.746093h4.382813zm-7.671875 0h-4.382813v3.746093h4.382813zm106.714844 0h-4.382813v3.746093h4.382813zm7.671874 0h-4.382812v3.746093h4.382812zm7.664063 0h-4.378906v3.746093h4.378906zm7.671875 0h-4.378906v3.746093h4.378906zm7.671875 0h-4.378906v3.746093h4.378906zm7.667969 0h-4.375v3.746093h4.375zm7.363281 1.039062h-4.378906v3.042969h4.378906zm7.671875 0h-4.378906v3.042969h4.378906zm7.671875 0h-4.378906v3.042969h4.378906zm7.667969 0h-4.375v3.042969h4.375zm7.671875 0h-4.382813v3.042969h4.382813zm7.671875 0h-4.382813v3.042969h4.382813zm-190.78125-8.128906h-4.382813v3.746094h4.382813zm7.671875 0h-4.382813v3.746094h4.382813zm7.664062 0h-4.375v3.746094h4.375zm7.671875 0h-4.378906v3.746094h4.378906zm7.671875 0h-4.378906v3.746094h4.378906zm7.671875 0h-4.378906v3.746094h4.378906zm9.25 0h-4.386718v3.746094h4.386718zm6.636719 0h7.769531v3.546875h-7.769531zm12.21875 0h7.773437v3.546875h-7.773437zm12.222656 0h7.769531v3.546875h-7.769531zm35.707031 0h-4.382812v3.746094h4.382812zm7.664063 0h-4.378906v3.746094h4.378906zm7.671875 0h-4.378906v3.746094h4.378906zm7.671875 0h-4.378906v3.746094h4.378906zm7.667969 0h-4.375v3.746094h4.375zm-47.746094 0h-4.378906v3.746094h4.378906zm-109.425781-28.96875h4.382812v3.039062h-4.382812zm-7.664063 0h4.375v3.039062h-4.375zm-7.671875 0h4.378907v3.039062h-4.378907zm-7.671875 0h4.378906v3.039062h-4.378906zm-7.671875 0h4.378907v3.039062h-4.378907zm-7.667969 0h4.382813v3.039062h-4.382813zm152.082032-18.503906v-1.96875h-12.996094v1.96875zm-49.714844 0v-1.96875h-13.003906v1.96875zm45.40625 5.164062h-4.378906v3.039062h4.378906zm9.464844 0h-4.382813v3.039062h4.382813zm7.628906 0h-4.375v3.039062h4.375zm7.628906 0h-4.378906v3.039062h4.378906zm7.628906 0h-4.378906v3.039062h4.378906zm7.625 0h-4.375v3.039062h4.375zm7.628907 0h-4.378907v3.039062h4.378907zm-66.242188 0h7.769531v3.039062h-7.769531zm-12.222656 0h7.773437v3.039062h-7.773437zm-12.21875 0h7.769531v3.039062h-7.769531zm-11.023437 0h4.386718v3.039062h-4.386718zm-9.457032 0h4.375v3.039062h-4.375zm-7.628906 0h4.375v3.039062h-4.375zm-7.632812 0h4.382812v3.039062h-4.382812zm-7.628907 0h4.382813v3.039062h-4.382813zm-7.628906 0h4.378906v3.039062h-4.378906zm-7.625 0h4.375v3.039062h-4.375zm164.484375 13.339844h-4.378906v3.039062h4.378906zm7.671875 0h-4.378906v3.039062h4.378906zm7.667969 0h-4.375v3.039062h4.375zm7.671875 0h-4.382813v3.039062h4.382813zm7.671875 0h-4.382813v3.039062h4.382813zm-195.167969 20.003906h4.375v3.039062h-4.375zm7.625 0h4.378906v3.039062h-4.378906zm7.628906 0h4.382813v3.039062h-4.382813zm7.628907 0h4.382812v3.039062h-4.382812zm7.632812 0h4.375v3.039062h-4.375zm7.628906 0h4.375v3.039062h-4.375zm9.457032 0h4.386718v3.039062h-4.386718zm11.023437 0h7.769531v3.039062h-7.769531zm12.21875 0h7.773437v3.039062h-7.773437zm12.222656 0h7.769531v3.039062h-7.769531zm66.242188 0h-4.378907v3.039062h4.378907zm-7.628907 0h-4.375v3.039062h4.375zm-7.625 0h-4.378906v3.039062h4.378906zm-7.628906 0h-4.378906v3.039062h4.378906zm-7.628906 0h-4.375v3.039062h4.375zm-7.628906 0h-4.382813v3.039062h4.382813zm-9.464844 0h-4.378906v3.039062h4.378906zm0-8.195312h-4.378906v3.03125h4.378906zm9.464844 0h-4.382813v3.03125h4.382813zm7.628906 0h-4.375v3.03125h4.375zm7.628906 0h-4.378906v3.03125h4.378906zm7.628906 0h-4.378906v3.03125h4.378906zm7.625 0h-4.375v3.03125h4.375zm7.628907 0h-4.378907v3.03125h4.378907zm-66.242188 0h7.769531v3.03125h-7.769531zm-12.222656 0h7.773437v3.03125h-7.773437zm-12.21875 0h7.769531v3.03125h-7.769531zm-11.023437 0h4.386718v3.03125h-4.386718zm-9.457032 0h4.375v3.03125h-4.375zm-7.628906 0h4.375v3.03125h-4.375zm-7.632812 0h4.382812v3.03125h-4.382812zm-7.628907 0h4.382813v3.03125h-4.382813zm-7.628906 0h4.378906v3.03125h-4.378906zm-7.625 0h4.375v3.03125h-4.375zm0-8.199219h4.375v3.035156h-4.375zm7.625 0h4.378906v3.035156h-4.378906zm7.628906 0h4.382813v3.035156h-4.382813zm7.628907 0h4.382812v3.035156h-4.382812zm7.632812 0h4.375v3.035156h-4.375zm7.628906 0h4.375v3.035156h-4.375zm9.457032 0h4.386718v3.035156h-4.386718zm11.023437 0h7.769531v3.035156h-7.769531zm12.21875 0h7.773437v3.035156h-7.773437zm12.222656 0h7.769531v3.035156h-7.769531zm66.242188 0h-4.378907v3.035156h4.378907zm-7.628907 0h-4.375v3.035156h4.375zm-7.625 0h-4.378906v3.035156h4.378906zm-7.628906 0h-4.378906v3.035156h4.378906zm-7.628906 0h-4.375v3.035156h4.375zm-7.628906 0h-4.382813v3.035156h4.382813zm-9.464844 0h-4.378906v3.035156h4.378906zm-101.703125-8.195313h4.375v3.039063h-4.375zm7.625 0h4.378906v3.039063h-4.378906zm7.628906 0h4.382813v3.039063h-4.382813zm7.628907 0h4.382812v3.039063h-4.382812zm7.632812 0h4.375v3.039063h-4.375zm7.628906 0h4.375v3.039063h-4.375zm9.457032 0h4.386718v3.039063h-4.386718zm11.023437 0h7.769531v3.039063h-7.769531zm12.21875 0h7.773437v3.039063h-7.773437zm12.222656 0h7.769531v3.039063h-7.769531zm66.242188 0h-4.378907v3.039063h4.378907zm-7.628907 0h-4.375v3.039063h4.375zm-7.625 0h-4.378906v3.039063h4.378906zm-7.628906 0h-4.378906v3.039063h4.378906zm-7.628906 0h-4.375v3.039063h4.375zm-7.628906 0h-4.382813v3.039063h4.382813zm-9.464844 0h-4.378906v3.039063h4.378906zm55.109375 34.261719h-4.378906v3.039063h4.378906zm7.671875 0h-4.378906v3.039063h4.378906zm7.671875 0h-4.378906v3.039063h4.378906zm7.667969 0h-4.375v3.039063h4.375zm7.671875 0h-4.382813v3.039063h4.382813zm7.671875 0h-4.382813v3.039063h4.382813zm-38.355469-7.417969h-4.378906v3.035156h4.378906zm7.671875 0h-4.378906v3.035156h4.378906zm7.671875 0h-4.378906v3.035156h4.378906zm7.667969 0h-4.375v3.035156h4.375zm7.671875 0h-4.382813v3.035156h4.382813zm7.671875 0h-4.382813v3.035156h4.382813zm-38.355469-7.421875h-4.378906v3.039063h4.378906zm7.671875 0h-4.378906v3.039063h4.378906zm7.671875 0h-4.378906v3.039063h4.378906zm7.667969 0h-4.375v3.039063h4.375zm7.671875 0h-4.382813v3.039063h4.382813zm7.671875 0h-4.382813v3.039063h4.382813zm-38.355469-7.417969h-4.378906v3.039063h4.378906zm7.671875 0h-4.378906v3.039063h4.378906zm7.671875 0h-4.378906v3.039063h4.378906zm7.667969 0h-4.375v3.039063h4.375zm7.671875 0h-4.382813v3.039063h4.382813zm7.671875 0h-4.382813v3.039063h4.382813zm0 0"/><path d="m126 0c69.578125 0 126 56.421875 126 126s-56.421875 126-126 126c-69.570312 0-126-56.421875-126-126s56.429688-126 126-126zm0 5.621094c66.476562 0 120.382812 53.910156 120.382812 120.378906s-53.90625 120.378906-120.382812 120.378906c-66.46875 0-120.378906-53.910156-120.378906-120.378906s53.910156-120.378906 120.378906-120.378906zm0 0"/><path d="m108.386719 174.433594h-9.097657v-.945313h9.097657zm4.777343 4.75h-1.832031v-7.898438h-2.394531v-.714844c.957031 0 1.703125-.140624 2.234375-.414062.53125-.277344.878906-.691406 1.039063-1.242188h.953124zm9.574219-5.226563c0 1.625-.390625 2.921875-1.160156 3.890625-.773437.96875-1.875 1.453125-3.316406 1.453125-1.003907 0-1.820313-.277343-2.429688-.828125-.609375-.558594-.921875-1.171875-.921875-1.839844h1.839844c0 .394532.140625.753907.441406 1.070313.289063.316406.671875.476563 1.15625.476563.792969 0 1.394532-.332032 1.796875-1.007813.394531-.675781.648438-1.660156.753907-2.972656-.265626.433593-.636719.773437-1.113282 1.007812-.484375.238281-1.015625.359375-1.597656.359375-1.015625 0-1.839844-.277344-2.476562-.828125-.636719-.550781-.960938-1.34375-.960938-2.378906 0-1.027344.324219-1.863281.960938-2.492187.636718-.632813 1.597656-.949219 2.871093-.949219 1.277344 0 2.292969.398437 3.035157 1.1875.75.789062 1.121093 2.070312 1.121093 3.851562zm-2-1.367187c0-.871094-.199219-1.523438-.59375-1.957032-.402343-.433593-.949219-.65625-1.640625-.65625-.476562 0-.90625.167969-1.277344.503907-.371093.332031-.558593.957031-.558593 1.867187 0 .675782.148437 1.195313.441406 1.574219.289063.375.753906.5625 1.394531.5625.691406 0 1.238282-.179687 1.640625-.53125.394531-.355469.59375-.804687.59375-1.363281zm11.832031 3.980468h-1.679687v2.613282h-1.832031v-2.613282h-5.347656v-1.125l5.347656-6.53125h1.832031v6.53125h1.679687zm-3.511718-1.125v-4.390624l-3.597656 4.390624zm12.390625.0625c0 1.1875-.390625 2.117188-1.160157 2.785157-.773437.675781-1.796874 1.007812-3.078124 1.007812-1.113282 0-2.027344-.273437-2.746094-.828125-.726563-.558594-1.109375-1.308594-1.160156-2.261718h1.832031c0 .59375.1875 1.070312.558593 1.425781.371094.359375.902344.53125 1.597657.53125.695312 0 1.238281-.214844 1.632812-.65625.402344-.433594.601563-1.109375.601563-2.019531 0-.792969-.171875-1.378907-.519532-1.75-.347656-.378907-.8125-.5625-1.394531-.5625-.480469 0-.890625.078124-1.238281.234374-.34375.152344-.671875.433594-.996094.828126h-1.597656l.484375-5.226563h6.859375v1.128906h-5.34375l-.320312 2.730469c.316406-.242188.660156-.414062 1.035156-.53125.371094-.121094.878906-.179688 1.515625-.179688 1.015625 0 1.839843.285157 2.476562.859376.636719.589843.960938 1.410156.960938 2.484374zm11.128906-1.074218h-9.101563v-.945313h9.101563zm0 0"/></g></g></svg>