<svg height="315.756838" viewBox="0 0 252 251" width="316.699396" xmlns="http://www.w3.org/2000/svg" xmlns:xlink="http://www.w3.org/1999/xlink"><clipPath id="a"><path d="m131 203h4v16h-4zm0 0"/></clipPath><clipPath id="b"><path d="m-285.445312-394.949219 738.609374-54.335937 74.164063 1010.007812-738.609375 54.335938zm0 0"/></clipPath><g fill="#0079c0"><path d="m189.289062 125.855469c0 35.050781-28.386718 63.460937-63.40625 63.460937-35.019531 0-63.402343-28.410156-63.402343-63.460937s28.382812-63.460938 63.402343-63.460938c35.019532-.011719 63.40625 28.410157 63.40625 63.460938"/><path d="m63.707031 29.332031c-5.398437 13.011719-20.925781 28.554688-33.929687 33.945313-14.890625 6.164062-21.992188 23.316406-15.835938 38.234375 5.386719 13.011719 5.375 35-.011718 48.003906-2.96875 7.195313-2.96875 15.136719.023437 22.378906 2.992187 7.246094 8.601563 12.882813 15.789063 15.863281 13 5.390626 28.53125 20.945313 33.914062 33.960938 6.160156 14.917969 23.292969 22.023438 38.183594 15.851562 13.003906-5.390624 34.972656-5.390624 47.976562.011719 14.890625 6.160157 32.039063-.933593 38.207032-15.828125 5.386718-13.011718 20.925781-28.554687 33.929687-33.945312 14.890625-6.164063 21.992187-23.328125 15.835937-38.246094v.011719c-5.386718-13.023438-5.386718-35.011719.011719-48.015625 6.167969-14.90625-.921875-32.066406-15.824219-38.242188-12.988281-5.390625-28.53125-20.945312-33.902343-33.960937-2.980469-7.195313-8.597657-12.804688-15.835938-15.8125-7.238281-2.996094-15.175781-3.007813-22.363281-.039063-13 5.390625-34.980469 5.390625-47.972656-.011718-14.890625-6.175782-32.027344.933593-38.195313 15.839843m17.550781 203.925781c-6.082031-2.515624-10.816406-7.242187-13.332031-13.296874-5.875-14.214844-22.214843-30.582032-36.40625-36.472657-6.046875-2.519531-10.769531-7.246093-13.285156-13.347656-2.527344-6.101563-2.527344-12.792969-.011719-18.847656 5.875-14.203125 5.886719-37.347657.011719-51.550781-5.210937-12.558594.773437-27 13.308594-32.191407 14.207031-5.882812 30.554687-22.234375 36.445312-36.441406 5.1875-12.558594 19.613281-18.539063 32.148438-13.332031 14.203125 5.894531 37.3125 5.894531 51.519531.011718 6.035156-2.503906 12.730469-2.492187 18.816406.039063 6.09375 2.527344 10.828125 7.253906 13.320313 13.308594 5.875 14.214843 22.226562 30.570312 36.417969 36.460937 12.535156 5.207032 18.496093 19.644532 13.320312 32.179688-5.886719 14.21875-5.898438 37.347656-.023438 51.566406 5.1875 12.546875-.785156 26.984375-13.320312 32.191406-14.207031 5.882813-30.542969 22.234375-36.445312 36.453125-2.5 6.050781-7.234376 10.777344-13.332032 13.296875-6.097656 2.527344-12.78125 2.527344-18.828125.023438-14.207031-5.894532-37.316406-5.894532-51.519531-.011719-6.035156 2.503906-12.71875 2.503906-18.804688-.039063"/><path d="m57.621094 19.988281c-5.910156 14.253907-22.9375 31.28125-37.179688 37.1875-16.363281 6.789063-24.164062 25.636719-17.390625 42.027344 5.886719 14.265625 5.886719 38.351563-.027343 52.609375-6.769532 16.386719 1.019531 35.246094 17.394531 42.046875 14.242187 5.90625 31.265625 22.949219 37.15625 37.214844 6.78125 16.378906 25.609375 24.199219 41.972656 17.410156 14.265625-5.894531 38.332031-5.894531 52.585937.011719 16.363282 6.789062 35.203126-1.019532 41.976563-17.398438 5.910156-14.253906 22.9375-31.292968 37.191406-37.1875 16.375-6.777344 24.164063-25.636718 17.390625-42.027344-5.898437-14.253906-5.898437-38.351562.015625-52.609374 3.273438-7.90625 3.261719-16.644532-.027343-24.601563-3.285157-7.957031-9.445313-14.144531-17.34375-17.421875-14.253907-5.90625-31.265626-22.960938-37.152344-37.226562-6.796875-16.378907-25.625-24.199219-42-17.421876-14.242188 5.90625-38.320313 5.894532-52.574219-.011718-16.363281-6.789063-35.191406 1.007812-41.988281 17.398437m4.761718 209.085938c-6.453124-15.617188-24.398437-33.566407-39.976562-40.039063-13.714844-5.695312-20.253906-21.496094-14.574219-35.222656 6.464844-15.605469 6.476563-40.996094.027344-56.613281-5.679687-13.726563.855469-29.527344 14.582031-35.199219 15.589844-6.46875 33.535156-24.417969 40-40.023438 5.679688-13.714843 21.453125-20.257812 35.179688-14.574218 15.589844 6.472656 40.957031 6.472656 56.5625.011718 13.710937-5.683593 29.484375.859376 35.175781 14.585938 6.453125 15.617188 24.386719 33.578125 39.976563 40.039062 6.613281 2.75 11.777343 7.929688 14.535156 14.609376 2.761718 6.679687 2.773437 13.996093.027344 20.613281-6.464844 15.59375-6.464844 40.996093-.027344 56.597656 5.691406 13.726563-.859375 29.542969-14.570313 35.226563-15.589843 6.46875-33.535156 24.40625-40 40.011718-5.691406 13.738282-21.46875 20.257813-35.179687 14.574219-15.601563-6.472656-40.96875-6.472656-56.558594-.015625-13.726562 5.699219-29.503906-.84375-35.179688-14.582031"/><path d="m36.757812 80.910156s-.355468.527344-2.6875-1.390625c-.859374-.785156-.539062-1.851562-.539062-1.851562 1.71875-2.089844 3.054688-1.867188 3.054688-1.867188.332031.160157.660156.207031 1.003906.34375.601562.503907.910156 1.140625 1.042968 1.730469 0 0-.195312 1.558594-1.875 3.035156" fill-rule="evenodd"/><path d="m51.527344 70.152344c.785156-1.152344 2.339844.296875 2.339844.296875l5.007812 4.835937 1.753906 1.878906c.90625.992188 1.984375 1.570313 2.808594 2.257813.96875.8125 2.097656 1.832031 3.015625 2.800781.652344.675782 1.507813 1.214844 1.914063 2.097656-.785157.566407-1.71875.503907-2.441407.800782.050781.035156.039063.035156.160157.011718-.0625.246094-.429688.183594-.492188.390626.199219.011718.382812-.046876.578125-.097657.035156.085938 0 .148438.109375.234375.417969.011719.835938-.171875 1.265625.011719-.136719.109375-.210937.160156-.199219.308594.417969.183593.8125-.0625 1.214844.058593-.304688.136719-.820312-.046874-.96875.246094.492188.296875 1.042969-.28125 1.472656.257813.539063 0 .96875.183593 1.484375.148437 0 0 .734375.859375 1.484375-.234375.390625-1.191406-.320312-2.183593-.320312-2.183593s-1.117188-1.289063-4.820313-4.101563c-1.628906-2.296875-4.355469-3.792969-4.355469-3.792969s-.980468-.871094-1.445312-1.574218c-4.132812-4.394532-5.789062-5.523438-5.789062-5.523438-1.621094-2.613281-2.796876-2.160156-2.796876-2.160156-.980468.417968-1.105468 1.042968-1.4375 1.546875-.699218-1.105469-.121093-5.351563-.121093-5.351563 1.730469-5.121094-.992188-4.152344-.992188-4.152344s-2.097656.46875-1.816406 4.875c0 0-1.238281 8.335938-1.238281 11.601563 0 0-.027344 4.445313 1.214844 9.957031 0 0 .871093 3.792969 1.875 5.132813.480468.652343 1.707031 2.6875 2.660156 4.308593-.539063-.121093-.980469-.441406-1.421875-.882812 0 0-5.015625-5.414062-5.433594-6.644531 0 0 .796875-3.546875-2.046875-4.234375 0 0-.308594-.035156-.699219.136718-.710937.292969-2.210937 1.128907-2.378906 1.324219-.371094.308594-.1875.773438-.234375 1.265625 0 0 .304688 1.179688 2.734375 2.320313.023437.011719.0625.023437.085937.035156.320313.148437 5.679688 6.460937 5.679688 6.460937 5.742188 6.921876 6.757812 2.527344 6.757812 2.527344-.058593-1.511718-.074218-2.984375-.785156-4.210937-1.371094-1.4375-3.027344-3.070313-3.238281-3.375-2.15625-2.222657-4.695313-12.5625-1.984375-20.257813 1.054688 3.523438 2.378906 7.070313 3.726562 10.582032 0 0 .183594 2.011718 1.742188 3.203124 0 0 .734375.332032 1.277344-.441406.414062-1.484375-.394532-2.269531-.394532-2.269531-1.238281-1.363281-.980468-1.902344-.980468-1.902344 1.777344 1.175781 3.066406.257813 3.066406.257813 1.679688-1.402344-.441406-3.070313-.441406-3.070313-.492188-.183593-.882813-.554687-1.300782-.773437-.785156-.417969-1.25-.933594-1.25-.933594-.75-.503906-.554687-.109375-.808593-.222656-.371094-.160156-.578125-.601563-.910157-.699219-.195312.109375.074219.320313-.097656.355469-.28125-.144532-.367187-.539063-.601562-.6875.453125.785156 1.066406 1.511718 1.300781 2.308594-.40625.183593-.492187.554687-.648437.835937-.429688-1.054687-.613282-2.027344-1.117188-3.203125-.28125-1.046875-.921875-2.003906-.945312-2.921875-.035157-.015625-.011719-.210937.222656.230469"/><path d="m159.429688 57.359375c-.011719-.160156-.082032-.269531-.121094-.429687-.429688-.515626-.21875-.945313-.734375-1.164063 0-.210937.171875-.445313.046875-.617187.039062-.132813.195312-.058594.222656-.195313.046875-.171875 0-.269531-.011719-.40625.269531-.390625.476563-.882813.992188-.894531.246093.195312.613281.195312.894531.183594.222656.183593.566406.320312.761719.480468 0 0 .171875.035156 3.496093 5.058594.304688.515625.761719 1.175781.675782 2.011719-.257813 2.886719-2.882813 2.1875-2.882813 2.1875-.269531-.136719-.441406-.457031-.773437-.445313 0 0-1.253906-.671875-2.566406-5.769531"/><path d="m147.765625 58.023438s-1.445313.785156-4.328125.773437c-1.214844-.183594-1.632812-.429687-1.914062-.75.109374-.097656.234374-.183594.355468-.28125 0-.566406.417969-1.128906.355469-1.769531.148437-.171875.40625-.171875.613281-.257813.207032.171875.648438.210938.722656.480469 1.828126.921875 5.816407-2.40625 5.816407-2.40625s3.347656-2.886719 4.464843-6.125l-.980468.035156s-5.621094.480469-6.109375-1.804687c-.011719-.050781.109375-.234375.058593-.515625-.035156-.222656-.304687-.429688-.257812-.699219.027344-.160156.210938-.308594.285156-.441406.316406-.53125 1.101563-.960938 1.101563-.960938.183593-.046875.355469-.195312.527343-.230469.050782 0 1.597657-.222656 2.234376.402344.011718.113282.035156.136719-.023438.273438 0 0 3.996094 1.324218 4.976562-.492188 1.804688-4.125 1.558594-4.960937 2.527344-8.9375.246094-.933594.371094-1.070312.566406-1.917968 0 0 .230469-.84375.539063-1.789063.332031-.578125.882813-.996094 1.617187-.921875.074219-.011719.457032.023438.492188-.0625.503906.246094.773438.773438 1.347656.699219.085938.222656-.097656.269531-.023437.417969.011719.050781.148437.023437.171875.085937.039062.050781-.035156.136719-.023438.195313.046875.113281.207032.101562.246094.160156.035156.085937-.011719.234375.023438.382812.023437.109375.160156.074219.171874.292969.0625.160156.023438.355469.023438.46875.074219 1.226563-.230469 1.59375-.230469 1.59375l-1.546875 2.429687c-.292968.492188-.441406.910157-.589844 1.511719-.699218 2.875-1.816406 4.996094-1.816406 4.996094 1.140625.027344 3.007813-.574219 3.007813-.574219s1.691406-.457031 2.808593 1.273438c1.605469 2.234375-.417968 3.046875-.417968 3.046875-.28125.132812-.417969.28125-.785156.195312-.160157.023438-.21875.210938-.378907.195313-.222656-.011719-.28125-.328125-.503906-.328125-.160156 0-.257813.132812-.390625.15625 0 0-1.816406-.15625-2.011719-.636719-.074219 0-.246093-.011719-.296875.011719-.871094-.246094-2.328125.195312-2.710937.539062 0 0-.5625 1.550781-1.902344 4.359375-.011719.027344-2.425781 4.753906-7.8125 6.925782"/><path d="m212.386719 69.503906c-.210938-.027344-.429688-.039062-.601563-.222656-.394531.109375-.785156.394531-1.082031.367188 0 0-.820313 1.007812-1.582031 1.757812-.660156.355469-1.472656.820312-2.132813 1.203125-2.0625 1.214844-4.402343 2.210937-5.914062 3.730469-.5.675781.050781 1.019531.578125 1.316406.0625.046875.171875-.113281.234375-.050781.402343.355469.953125.207031 1.347656.589843 1.128906.367188 2.28125-.28125 3.519531-.910156 2.074219-1.042968 3.960938-2.183594 5.816406-2.234375-5.433593 2.445313-6.746093 3.574219-6.746093 3.574219s-.554688.367188-1.730469.808594c0 0-.96875.113281-1.609375.652344-.980469-.28125-1.542969-1.007813-2.230469-1.644532-1.742187-1.609375-3.949218-2.347656-5.65625-3.929687-.5625-.515625-1.261718-.945313-1.59375-1.632813.292969.0625.601563-.050781.882813 0 .183593-.195312.503906-.121094.761719-.246094-.34375-.097656-.636719-.292968-.96875-.503906-.417969-.257812-.96875-.355468-1.277344-.859375-.292969-.058593-.574219.148438-.84375-.011719-.738282.195313-1.546875.503907-2.136719 1.007813-.332031.515625.367187.847656.578125 1.226563 2.957031 3.304687 4.648438 4.039062 4.648438 4.039062 2.160156.957031 3.445312 2.160156 3.445312 2.160156 2.207031 2.148438 3.351562 2.664063 3.351562 2.664063 1.382813.875 2.425782 1.648437 3.296876 2.285156 3.203124 2.085937 3.496093 3.191406 3.496093 3.191406-.109375.492188-.441406.75-.929687.8125-1.214844.144531-2.761719-1.144531-4.074219-2.222656-.246094-.199219-.515625-.371094-.675781-.613281-.085938-.125-.109375-.222656-.171875-.320313-.671875-.933593-1.789063-1.191406-2.5-1.5-.308594-.144531-.539063-.414062-.824219-.574219-.097656-.0625-.292969-.097656-.367188-.136718-.109374-.0625-.257812-.21875-.453124-.34375-.257813-.160156-.785157-.503906-1.042969-.355469-.28125.171875-.109375.835937-.011719 1.117187.160156.464844.574219.835938.722656 1.191407.257813.234375.589844.40625.824219.6875-.945313.183593-2.269531.292969-3.019531 1.066406-.207032.664063-.320313 1.179687-.832032 1.917969-.171874.476562-.429687 1.019531-.664062 1.472656-.539062-.28125-.835938-.835938-1.214844-1.253906-.269531-.269532-.675781-.578125-1.019531-.785156-.671875-.417969-1.3125-.835938-1.984375-1.042969-.234375-.0625-.453125-.160157-.675781-.234375-.292969-.085938-.578125-.171875-.820313-.207032-.160156-.011718-.34375-.011718-.492187-.027343-.148438-.011719-.332031-.070313-.464844-.085938-.199219 0-.367187.039063-.503906.027344 0 0-.957031-.183594-1.679688.316406-.148437.074219-.332031-.035156-.492187-.058593-.246094.074218-.132813.378906-.476563.292968-.085937.308594-.34375.40625-.382812.664063-.328125.476562-.613281 1.140625-.613281 1.140625-1.140626 2.640625-.023438 3.535156-.023438 3.535156 1.09375 2.003906 3.949219 2.628906 3.949219 2.628906s2.097656.566406 5.089843-1.066406c.457032.882812.984376 1.644531 1.683594 2.257812.132813.035157.328125.195313.550782.246094.097656.023438.332031.046875.453124.058594.183594.039062.332032.148438.464844.136719.394532-.050781.714844-.378907 1.179688-.480469.183594-.207031.28125-.441406.488281-.636719-.097656-.171875.015625-.355469-.035156-.566406-.035157-.195313-.21875-.390625-.292969-.613281-.085938-.183594-.0625-.355469-.097656-.527344-.0625-.257812-.222656-.453125-.234375-.6875-.183594-.269531-.480469-.464844-.578125-.761719-.035156-.109375-.144532.050781-.171875-.046875-.011719-.320312-.453125-.578125-.390625-.957031.023437-.199219.402344-.566406.5625-.789063.34375-.539062.441406-1.042968.640625-1.570312.085937-.234375.242187-.429688.328125-.675781.171875-.355469.394531-1.265625.738281-1.398438.109375-.039062.527344.109375.722656.097657.539063-.0625.894531.136718.894531.136718.417969-.0625.871094-.0625 1.339844-.050781.242188.085937.722656.367187.96875.355469.5625-.035156 1.3125-.675782 1.226563-1.042969.453125.613281.550781.894531.992187 1.289063.332032.292968.625.636718.761719.761718.34375.109375.515625.515625.515625.515625-.199219.613281.476562.578125.585938 1.117188.210937.109375.46875.171875.710937.246093.257813.0625.46875.207032.6875.246094.257813.046875.503906-.0625.710937.171875.480469.046875.75.046875 1.15625-.085937.085938-.027344.355469-.039063.527344-.160156.183594-.136719.785156-.480469.992188-.664063.367187-.332031.5625-.933594.589844-1.375.023437-.539063-.136719-1.140625-.515626-1.71875-1.253906-1.914063-3.828124-3.5-5.1875-4.75.367188-.085937 1.164063-.148437 1.1875.429687-.074218.160157-.207031-.011718-.34375.109376.417969.269531.824219.320312 1.300782.613281.246094-.035157.394531.136719.648437.183593.125-.011718.234375-.011718.332031 0 .171876.234376.40625.171876.566407.394532.074219-.050782.160156-.097656.242187-.136719.101563.074219.148438.183594.246094.210937.984375.21875 2.0625.894532 2.0625.894532.929688.171875 1.617188-.183594 1.617188-.183594.640624-.332031 1.019531-1.082031 1.179687-1.742188.023437-.097656.0625-.285156.074219-.40625.023437-.148437.097656-.257812.109375-.355468.023437-.257813-.121094-.453125 0-.664063.132812-.21875.550781-.0625.796875-.023437.761718.097656 1.484375.195312 2.121094.441406.527343.40625 1.140624.996094 2.222656.453125.109375-.058594.304687-.246094.441406-.390625.058594-.085938.144531-.246094.230469-.320312.160156-.160157.269531-.320313.296875-.492188.058594-.417969-.183594-.820312-.148438-1.140625.035156-.515625.648438-.859375 1.277344-.933594.195312-.023437.402344-.046875.585938-.085937.34375-.0625.726562-.0625 1.042968-.132813.429688-.113281.921875-.53125.996094-.863281.144531-.785156-1.277344-1.386719-1.707031-1.300781-.808594-.046875-1.410157.601562-2.207031.921875 0 0-2.183594.625-4.183594 1.117187-.304688-.085937-.601563-.074219-.894532-.109375-.257812-.039062-.515624-.050781-.75-.085937-.242187-.039063-.5-.0625-.710937-.210938-.28125.0625-.515625-.011719-.761719-.097656-.097656.023437-.207031.050781-.292968.050781-.96875-.210937-1.988282.121094-3.101563.269532.734375-.320313 1.507813-.578126 2.269531-.96875.722656-.371094 1.570313-.921876 2.316406-1.21875.722657-.292969 1.546876-.488282 2.195313-.796876.75-.503906 1.105469-1.140624.464844-1.765624-.402344-.394532-.917969-.800782-1.410157-.738282.027344-.085937-.058593-.074218-.085937-.171875-.917969-.308593-1.898437-.441406-2.917969-.417969-.011718-.21875.183594-.40625.28125-.601562-.035156.023438.824219-1.695312-.585937-2.183594m-.332031 10.851563c.074218.160156-.171876.222656-.222657.34375-.160156.332031.085938.796875.011719 1.167969-.378906.246093-.855469.144531-1.273438.160156-1.253906.023437-2.699218.070312-3.792968-.332032.210937-.210937.859375-.34375 1.128906-.589843 3.679688-1.632813 4.148438-.75 4.148438-.75m-21.429688 12.535156c-1.582031.441406-4.316406.308594-5.101562-1.496094-.332032-1.105469.035156-1.460937.871093-1.902343 2.195313-1.277344 4.597657.734374 4.597657.734374.378906.664063.945312 1.386719.882812 1.890626 0 0-.023438.417968-1.25.773437"/><path d="m89.699219 39.792969c.21875 1.507812-.503907 2.046875-.503907 2.046875-.601562.554687-1.300781.566406-2.207031.761718-.160156-.058593-.160156-.34375-.40625-.476562-.933593-.097656-1.71875-.957031-1.730469-.972656.0625-.085938.085938-.085938.039063-.121094-.027344-.050781-.738281-.796875-1.066406-1.410156-.503907-.910156-.050781-1.523438.035156-1.683594 0 0 .222656-.355469 1.570313-.453125.085937-.011719.453124-.039063.734374-.027344.296876.015625.785157.101563 1.609376.210938 0 0 1.53125.441406 1.898437 2.085937" fill-rule="evenodd"/><path d="m89.859375 49.417969s-.984375 1.089843-.640625 4.296875c.148438.96875.195312 1.238281.257812 1.816406.171876.933594.589844 1.667969.589844 1.667969 1.59375-2.34375 1.914063-5.683594 2.304688-8.875.28125.710937-.28125 1.839843.394531 2.296875.074219.144531-.113281.390625.121094.378906-.257813.234375.050781.8125-.234375 1.070312.015625.109376.074218.121094.136718.144532-.234374.578125.148438 1.472656-.050781 1.816406.027344.1875.050781.222656.027344.445312 0 0 .488281 3.695313-.0625 4.8125-.90625 3.363282-1.816406 3.730469-1.816406 3.730469-.28125.039063-.453125.148438-.722657.246094 0 0-1.851562 0-2.316406-2.785156 0 0 .316406-9.503907.316406-9.640625-.023437-.761719.171876-1.570313.039063-2.320313 0 0-.480469-1.175781-.957031-1.816406-.199219-.320313-.039063-.894531.132812-1.324219.050782-.015625.097656-.027344.160156-.039062.097657-.0625.011719-.234375.109376-.292969 2.429687-.984375 3.496093 1.191406 3.496093 1.191406s.074219.980469-.046875 1.59375c-.011718-.023437-.199218.46875-1.238281 1.585938" fill-rule="evenodd"/><path d="m105.410156 36.722656s1.191406-.847656.957032-1.757812c-.011719-.023438-.023438-.035156-.035157-.046875-1.203125-2.332031-5.398437 1.816406-5.398437 1.816406s-2.257813 2.601563-3.078125 2.800781c0 0-.613281-.257812 1.175781-5.34375 0 0 .761719-1.753906 1.867188-6.664062-.183594-.785156.15625-1.5-.871094-2.136719-2.011719-.171875-2.933594 3.941406-2.933594 3.941406.085938-.027343.125-.085937.210938-.113281.011718.125-.183594.246094-.050782.359375.074219-.160156.097656-.34375.234375-.46875.34375-.074219.34375-.476563.722657-.441406 0 0-.320313 2.113281-.539063 3.449219 0 0-2.464844 8.277343-.589844 10.054687.992188.613281 3.203125-2.207031 3.203125-2.207031s2.5-3.425782 3.101563-3.070313c.097656.0625-1.800781 4.789063-1.800781 4.789063-.75 2.441406-1.671876 7.550781-1.671876 7.550781-.808593.488281-1.46875.464844-2.351562.378906-2.945312.441407-.6875 2.199219-.6875 2.199219.96875.390625 2.144531-.113281 2.980469-.074219-.074219 4.074219 2.796875 3.941407 2.796875 3.941407 1.410156-.101563 2.402344-1.414063 3.726562-1.648438.40625 2.800781-.671875 5.121094-.671875 5.121094-.101562-.097656-.527343-.109375-.542969-.074219-.035156.160156.273438.296875.210938.457031-.367188 1.632813.773438 2.882813.773438 2.882813 0-.011719.183593.332031.464843.308593.527344-.0625 1.277344-.957031 1.460938-1.769531.636719-2.933593.832031-4.492187.832031-4.492187.269531-.898438-.035156-2.175782.246094-3.070313.332031-.183593.664062-.492187.945312-.796875-.074218-1.683594-1.828125-2.027344-1.828125-2.027344-.136719-1.128906-.207031-2.085937 0-3.019531.699219-.160156 2.097657-1.042969 2.246094-1.117187.832031-.453125 1.582031.171875 1.582031.171875.5625.207031 1.042969.527343 1.863282-.136719.578124-3.925781-3.546876-1.730469-3.546876-1.730469s-1.960937 1.03125-2.183593.738281c0 0 .515625-2.800781-.636719-4.789062 0 0-.796875-.910156-2.269531-.121094-1.457031.785156-1.285157 1.667969-1.285157 1.667969.453126-.023437.769532.183594 1.101563.355469.332031.640625.578125 1.570312.503906 2.160156-.332031-.109375-.835937-.171875-1.140625-.34375 0 0-1.890625-.527344-1.519531 1.707031.011719.710938.15625 1.425781.132813 1.976563-.160157.394531-1.078126.578125-1.570313.566406.40625-9.464844 3.863281-11.933594 3.863281-11.933594m-2.5625 15.605469c-.648437.011719-1.164062-.542969-1.191406-1.289063.40625-.222656.898438-.773437 1.570312-.703124.113282.6875.113282 1.339843-.414062 1.648437-.039062.085937.058594.242187.035156.34375m2.527344-.835937c-.738281.171874-1.472656.75-2.207031.785156.070312-.378906.5-.515625.597656-.871094 0 0 .320313.246094.835937-.957031.183594-.074219.527344-.382813.734376-.714844.578124-1.324219.8125-1.003906.8125-1.003906.207031 1.277343-.171876 1.667969-.085938 2 .011719 0 .28125.539062-.6875.761719"/><path d="m52.175781 156.453125-14.402343 5.242187-.660157-1.84375 6.609375-2.40625-2.5-6.886718-6.613281 2.40625-.671875-1.828125 14.398438-5.257813.664062 1.84375-6.046875 2.195313 2.5 6.902343 6.058594-2.210937zm0 0"/><path d="m47.148438 164.015625c4.5-2.445313 7.957031-1.878906 10.351562 1.667969 2.132812 3.707031 1.128906 7.058594-3.03125 10.042968-4.414062 2.382813-7.824219 1.792969-10.21875-1.753906-2.144531-3.722656-1.164062-7.035156 2.898438-9.957031m1.039062 1.65625c-3.1875 2.210937-4.046875 4.691406-2.5625 7.441406 1.792969 2.503907 4.390625 2.796875 7.789062.894531 3.214844-2.183593 4.0625-4.628906 2.539063-7.355468-1.828125-2.539063-4.425781-2.859375-7.765625-.980469"/><path d="m71.296875 182.625-11.039063 10.671875-1.347656-1.425781 5.078125-4.898438-5.089843-5.277344-5.066407 4.910157-1.363281-1.414063 11.027344-10.65625 1.363281 1.414063-4.636719 4.46875 5.089844 5.277343 4.636719-4.46875zm0 0"/><path d="m66.882812 198.773438-1.59375-1.132813 13.113282-9.539063 1.777344 1.242188-4.601563 15.492188-1.714844-1.203126 1.359375-4.382812-4.636718-3.242188zm11.003907-8.214844-5.789063 4.273437 3.605469 2.515625zm0 0"/><path d="m81.625 207.980469 6.871094-13.714844 1.667968.847656-6.855468 13.726563zm0 0"/><path d="m108.917969 211.761719c-1.078125 3.523437-3.394531 4.910156-6.953125 4.175781-3.3125-.945312-4.601563-3.144531-3.863282-6.59375l2.476563-9.824219 1.828125.46875-2.332031 9.21875c-.636719 2.738281.160156 4.421875 2.394531 5.035157 2.367188.492187 3.910156-.566407 4.621094-3.179688l2.355468-9.296875 1.890626.480469zm0 0"/><path d="m126.421875 203.585938-.980469 15.308593-2.160156-.148437-6.375-12.792969-.800781 12.328125-1.875-.109375.992187-15.3125 2.296875.148437 6.21875 12.929688.820313-12.476562zm0 0"/></g><g clip-path="url(#a)"><g clip-path="url(#b)"><path d="m131.304688 203.234375 1.882812-.140625 1.125 15.292969-1.886719.140625zm0 0" fill="#0079c0"/></g></g><path d="m149.714844 200.246094-1.800782 16.058594-2.035156.441406-8.183594-13.949219 2.050782-.429687 6.695312 12.058593 1.226563-13.75zm0 0" fill="#0079c0"/><path d="m158.585938 213.40625-5.703126-14.242188 9.515626-3.816406.675781 1.707032-7.765625 3.117187 1.769531 4.417969 7.1875-2.882813.6875 1.707031-7.191406 2.882813 1.953125 4.839844 7.898437-3.167969.625 1.570312zm0 0" fill="#0079c0"/><path d="m173.96875 206.667969-8.144531-12.992188 5.542969-3.5c2.625-1.582031 4.660156-1.226562 6.097656 1.058594.929687 1.398437 1.039062 2.8125.328125 4.222656 1.117187-.332031 2.109375.195313 2.96875 1.582031l1.582031 2.261719c.40625.648438.859375.933594 1.363281.859375l.160157.257813-1.953126 1.226562c-.476562-.417969-1.226562-1.398437-2.242187-2.921875-.96875-1.632812-2.171875-1.988281-3.632813-1.066406l-3.960937 2.492188 3.460937 5.523437zm.980469-10.386719c1.644531-.984375 1.960937-2.25.992187-3.796875-.917968-1.472656-2.097656-1.753906-3.507812-.871094l-4.070313 2.566407 2.808594 4.480468zm0 0" fill="#0079c0"/><path d="m183.839844 182.601562c-1.496094 1.460938-1.703125 2.824219-.585938 4.101563.722656.785156 1.570313.871094 2.527344.269531l3.640625-2.011718c1.964844-1.03125 3.644531-.785157 5.054687.746093 1.804688 2.101563 1.433594 4.421875-1.09375 6.949219-1.433593 1.328125-2.78125 1.992188-4.058593 1.976562-1.335938-.011718-2.527344-.613281-3.570313-1.816406l1.289063-1.179687c1.546875 1.621093 3.300781 1.609375 5.261719-.058594 1.742187-1.671875 2.074218-3.132813 1.007812-4.359375-.761719-1.167969-2.097656-1.152344-4.023438.0625l-2.578124 1.421875c-1.816407.984375-3.347657.800781-4.585938-.550781-1.9375-2.308594-1.816406-4.542969.367188-6.703125 2.625-2.433594 5.078124-2.492188 7.324218-.183594l-1.339844 1.238281c-1.382812-1.386718-2.929687-1.351562-4.636718.097656" fill="#0079c0"/><path d="m201.578125 183.878906-11.800781-9.796875 1.203125-1.449219 11.800781 9.785157zm0 0" fill="#0079c0"/><path d="m199.761719 159.730469 1.558593.96875-2.527343 4.027343 11.433593 7.167969-1.03125 1.660157-11.433593-7.171876-2.511719 4.015626-1.558594-.96875zm0 0" fill="#0079c0"/><path d="m217.167969 158.195312-5.617188-2.246093-10.574219 1.496093.824219-2.085937 8.402344-.996094-5.398437-6.519531.820312-2.074219 6.625 8.433594 5.617188 2.25zm0 0" fill="#0079c0"/><path d="m77.898438 111.8125s2.402343.84375 3.828124-3.328125c.109376-.371094.242188-.664063.355469-.945313 2.636719-6.777343 6.992188-12.414062 6.992188-12.414062 9.628906-11.894531 16.519531-14.816406 16.519531-14.816406 1.300781-.789063 2.492188-1.082032 1.753906-2.457032-.476562-.882812-2.035156-.257812-2.035156-.257812-9.433594 2.800781-15.355469 9.097656-15.355469 9.097656-6.046875 5.597656-11.1875 16.195313-11.324219 16.550782-2.058593 4.40625-2.058593 7.109374-2.058593 7.109374.085937.90625.699219 1.300782 1.324219 1.460938" fill="#fff"/><path d="m95.941406 149.992188c-9.371094-12.644532-8.917968-25.832032-8.917968-25.832032-.304688-6.789062 1.324218-8.238281 2.664062-9.660156 1.542969-1.644531 6.757812-3.511719 6.757812-3.511719 4.464844-1.609375 9.246094-9.121093 9.246094-9.121093 3.953125-5.464844 7.816406-10.3125 13.371094-14.894532 2.75-1.9375 4.746094-2.613281 4.746094-2.613281.910156-.355469 1.707031-2.074219.125-2.578125-3.324219-.492188-7.65625 2.894531-7.65625 2.894531-10.449219 7.492188-18.59375 19.398438-18.886719 19.976563-.296875.578125-1.414063 2.371094-3.496094 3.167968-2.125.824219-2.957031-.550781-2.957031-1.570312.171875-1.375 3.042969-6.015625 3.042969-6.015625 2.390625-4.457031 11.699219-12.5625 11.699219-12.5625 3.496093-3.523437 13.875-9.109375 13.875-9.109375s1.863281-.835938 1.558593-1.914062c-.601562-1.214844-2.136719-.625-2.136719-.625-23.402343 8.222656-32.355468 29.808593-32.355468 29.808593-12.796875 27.671875 8.671875 48.644531 8.671875 48.644531 7.886719 9.339844 16.546875 12.191407 16.546875 12.191407.601562.171875.671875.097656-.160156-.761719-9.421876-6.59375-15.738282-15.914062-15.738282-15.914062" fill="#fff"/><path d="m112.476562 99.25c-1.484374 2.578125 4 2.875 4 2.875l41.925782-.285156c2.476562-1.472656-2.292969-7.046875-2.292969-7.046875-6.601563-8.445313-14.609375-9.046875-14.609375-9.046875-2.125-.183594-2.429688.601562-2.429688.601562-1.042968 2.933594-2.847656 3.792969-5.617187 3.351563-2.675781-.429688-2.652344-1.792969-2.652344-1.792969 0-.699219-.085937-1.742188-.808593-2.160156-1.582032-.921875-6.414063 1.902344-6.414063 1.902344-4.476563 2.296874-8.15625 6.496093-11.101563 11.601562" fill="#fff"/><path d="m123.257812 93.886719 25.992188.035156c2.601562 2.886719.039062 3.15625.039062 3.15625l-28.117187.023437.308594-2.710937c.195312-.675781 1.777343-.503906 1.777343-.503906" fill="#0079c0"/><path d="m140.210938 119.949219 36.527343-.269531c.96875-2.738282-.21875-5.746094-.21875-5.746094-.796875-2.050782-2.417969-.871094-2.417969-.871094-2.585937 1.84375-4.5 1.632812-4.5 1.632812l-30.238281-.109374s-2.171875-.0625-2.132812-2.457032c.035156-2.503906 2.832031-2.480468 2.832031-2.480468h34.945312c-.671874-2.710938-1.382812-4.945313-1.382812-4.945313-5.25-16.734375-23.160156-25.339844-23.160156-25.339844-8.523438-3.992187-14.621094-4.542969-16.328125-4.753906-3.800781-.464844-3.921875 1.757813-3.921875 1.757813s-.355469 2.652343 4.453125 3.890624c5.320312 1.09375 8.867187 2.480469 8.867187 2.480469 8.867188 3.621094 14.839844 9.464844 14.839844 9.464844 7.679688 6.839844 8.589844 12.695313 8.589844 12.695313h-57.996094c-3.59375 0-4.675781 1.203124-4.917969 1.582031l-1.398437 2.359375c-.625 1.546875 1.53125 1.570312 1.53125 1.570312l23.992187.011719s2.085938-.011719 2.125 2.015625c.023438 2.085938-1.667969 2.171875-1.667969 2.171875l-17.1875-.023437c-4.195312 0-5.421874-1.398438-5.421874-1.398438l-2.023438-1.425781c-1.988281-1.410157-5.164062-.320313-5.886719 2.503906-.367187 1.226563 1.140625 2.726563 2.515625 3.78125.511719.332031 2.328125 1.363281 5.617188 1.363281h.144531l21.46875-.011718s2.144531.601562 2.464844 2.480468c.21875 2.613282-1.621094 3.242188-1.621094 3.242188h-5.542969c-.859375-1.390625-1.582031-1.265625-1.582031-1.265625l-10.953125-.097657c-2.109375-.074218-3.535156 0-4.675781.183594-.046875.023438-.058594.035156-.109375.046875-1.164063.382813-3.839844 1.265625-3.839844 1.265625s-.378906 7.332032 3.621094 10.570313c1.898437 1.535156-.050782 3.597656-.050782 3.597656-.933593 1.375-3.972656 1.964844-3.984374 1.953125-.445313-.492188-4.503907-5.035156-5.082032-21.066406 0 0-.625-3.414063-3.335937-3.292969-2.710938.125-2.96875 3.292969-2.96875 3.292969-.734375 18.597656 15.578125 33.332031 15.578125 33.332031 11.101562 8.753906 17.457031 10.546875 17.457031 10.546875s1.914063.722656 2.429687.390625c1.300782-.992187-.125-1.742187-.125-1.742187-1.644531-.898438-7.027343-4.457032-7.027343-4.457032-1.535157-1.105468-5.214844-3.253906-6.636719-5.878906 1.582031-2.238281 3.777344-2.972656 6.527344-2.824219 3.457031.183594 3.382812 2.894531 3.382812 2.894531-2.78125 3.980469 9.828125 10.867188 9.828125 10.867188 3.382813 1.019531 11.835938.085938 11.835938.085938s4.207031-.308594 4.367187-2.085938c-.027344-1.78125-1.570312-1.78125-1.570312-1.78125h-11.738282s-3.71875-.125-3.902343-2c-.183594-2.003906 3.203125-1.71875 3.203125-1.71875l18.089844.96875c6.332031.625 9.335937-1.71875 9.335937-1.71875 1.140625-.710938 2.40625-1.828125 1.03125-4.949219-1.386719-2.480469-3.363281-2.910156-6.035156-3.558593-2.664063-.652344-9.519531-.269532-10.746094-.46875-1.226563-.195313-2.585937-.917969-2.515625-2.035157.101562-2.199219 4.023438-1.09375 4.023438-1.09375 4.035156.5625 5.632812-1.386719 5.632812-1.386719s1.359375-1.597656 4.574219-1.597656c4.269531.136719 6.597656 4.492188 6.597656 4.492188s3.117187 2.777344 5.582031.578125c1.925782-2.429688.136719-4.089844.136719-4.089844s-2.527344-1.617187-2.824219-3.042969c-.550781-2.492187 4.710938-4.738281 4.710938-4.738281s4.527344-1.71875 4.699218-3.378906c.074219-.757813.023438-1.375-.097656-1.914063-1.914062-2.910156-5.347656-2.625-5.347656-2.625l.035156-.027344-30.160156.113282s-2.652344.207031-2.8125-2.605469c.015625-2.773437 2.492188-2.910156 2.492188-2.910156" fill="#fff"/><path d="m147.902344 131.296875 16.363281.011719s2.917969 2.980468-3.964844 3.667968c-7.480469.761719-11.652343-.515624-12.65625-1.976562zm0 0" fill="#0079c0"/><path d="m107.851562 131.527344c.109376-2.492188 5.164063-2.183594 5.164063-2.183594s4.820313.058594 6.34375.144531c.550781.074219 1.324219.445313 1.570313 1.476563-.027344 1.398437-.46875 1.621094-.824219 1.9375-5.652344 3.855468-8.671875 2.777344-8.671875 2.777344-3.324219-.875-3.703125-1.414063-3.582032-4.152344" fill="#0079c0"/><path d="m113.554688 145.929688s0 1.117187-4.523438 5.046874c0 0-2.882812-1.917968-5.226562-5.144531 0 0 2.785156-3.929687 6.316406-3.019531 4.011718 1.226562 3.433594 3.117188 3.433594 3.117188" fill="#0079c0"/><path d="m120.019531 141.890625s-2.269531.527344-3.089843-1.203125c-.492188-2.285156 1.226562-2.972656 1.226562-2.972656l4.699219-2.074219s1.273437-1.632813 1.324219-4.101563c.183593-2.589843 2.769531-2.28125 2.769531-2.28125 2.835937-.34375 2.636719 3.328126 2.636719 3.328126l-.425782 5.855468c-2.859375 2.550782-9.140625 3.449219-9.140625 3.449219" fill="#0079c0"/><path d="m149.25 149.601562s3.066406-.125 3.449219 2.417969c-.382813 2.515625-5.582031 1.953125-5.582031 1.953125s-16.03125-1.449218-17.320313-1.4375c-3.472656-.136718-6.367187-2.492187-5.324219-5.636718 1.105469-3.3125 6.625-.832032 6.625-.832032 1.851563 2.636719 6.746094 2.246094 10.230469 2.699219 2.757813.28125 7.921875.835937 7.921875.835937" fill="#0079c0"/><path d="m139.386719 129.847656s4.453125.328125 4.246093 3.535156c-.710937 4.675782-3.816406 5.953126-5.925781 5.660157-2.109375-.296875-4.808593-.675781-3.886719-5.339844 1.152344-4.359375 5.566407-3.855469 5.566407-3.855469" fill="#0079c0"/><path d="m82.179688 143.289062s-5.789063-10.667968-2.945313-24.738281c0 0 .109375-1.289062-1.472656-1.484375-1.519531-.113281-1.875.808594-1.972657 1.089844-3.140624 13.800781 3.089844 25.90625 3.089844 25.90625s6.785156 14.378906 16.179688 20.113281c1.191406.453125 1.089844 0 .933594-.148437.011718-.011719-9.3125-10.351563-13.8125-20.738282" fill="#fff"/><path d="m155.421875 178.328125-2.011719-3.65625c17.871094-9.847656 28.972656-28.644531 28.972656-49.050781 0-30.863282-25.085937-55.957032-55.910156-55.957032-30.824218 0-55.910156 25.105469-55.910156 55.957032 0 20.1875 10.929688 38.882812 28.519531 48.792968l-2.046875 3.632813c-18.902344-10.65625-30.644531-30.742187-30.644531-52.425781 0-33.160156 26.949219-60.132813 60.082031-60.132813 33.128906 0 60.078125 26.972657 60.078125 60.132813 0 21.929687-11.921875 42.113281-31.128906 52.707031" fill="#fff"/><path d="m113.714844 170.582031-2.871094 12.460938h-3.640625l1.863281-8.066407c-1.105468.640626-2.402344 1.144532-3.925781 1.476563l.664063-2.898437c1.9375-.796876 3.542968-1.78125 4.820312-2.972657zm0 0" fill="#fff"/><path d="m122.082031 178.046875c-.796875.625-1.707031.945313-2.699219.945313-1.019531 0-1.890624-.34375-2.601562-1.019532-.710938-.675781-1.078125-1.546875-1.078125-2.578125 0-1.238281.488281-2.355469 1.472656-3.328125.96875-.992187 2.304688-1.472656 3.984375-1.472656 1.535156 0 2.75.441406 3.644532 1.328125.882812.882813 1.335937 2.074219 1.335937 3.570313 0 1.21875-.257813 2.457031-.761719 3.722656-.5 1.25-1.261718 2.246094-2.269531 2.96875-1.003906.726562-2.21875 1.082031-3.652344 1.082031-1.226562 0-2.222656-.246094-2.992187-.738281-.773438-.488282-1.253906-1.238282-1.425782-2.222656l3.496094-.304688c.148438.808594.566406 1.214844 1.265625 1.214844.515625 0 .957031-.246094 1.324219-.738282.367188-.488281.699219-1.273437 1.015625-2.355468zm-1.398437-1.105469c.515625 0 .980468-.230468 1.386718-.699218.390626-.476563.597657-1.105469.597657-1.890626 0-.539062-.121094-.957031-.378907-1.265624-.246093-.292969-.613281-.453126-1.105468-.453126-.453125 0-.90625.234376-1.347656.6875-.441407.453126-.660157 1.226563-.660157 2.308594 0 .257813.121094.550782.367188.859375.246093.292969.625.453125 1.140625.453125" fill="#fff"/><path d="m136.113281 170.582031-2.871093 12.460938h-3.640626l1.863282-8.066407c-1.09375.640626-2.40625 1.144532-3.925782 1.476563l.664063-2.898437c1.9375-.796876 3.542969-1.78125 4.820313-2.972657zm0 0" fill="#fff"/><path d="m148.6875 170.777344-.601562 2.605468h-5.605469l-.613281 1.976563c.671874-.234375 1.175781-.394531 1.507812-.480469.34375-.085937.699219-.132812 1.066406-.132812 1.042969 0 1.890625.28125 2.566406.859375.671876.5625 1.003907 1.421875 1.003907 2.550781 0 .886719-.207031 1.695312-.613281 2.40625-.40625.726562-1.066407 1.351562-1.960938 1.867188-.898438.527343-2.136719.800781-3.71875.800781-1.484375 0-2.585938-.285157-3.335938-.835938-.734374-.554687-1.191406-1.449219-1.347656-2.675781l3.59375-.394531v.050781c0 .5625.132813.992188.429688 1.289062.292968.292969.683594.453126 1.1875.453126.625 0 1.152344-.269532 1.582031-.796876.429687-.53125.652344-1.15625.652344-1.890624v-.039063c0-1.03125-.480469-1.546875-1.425781-1.546875-.671876 0-1.25.269531-1.753907.796875l-3.335937-.476563 1.953125-6.398437h8.769531zm0 0" fill="#fff"/></svg>