<svg height="315.756838" viewBox="0 0 252 251" width="316.699396" xmlns="http://www.w3.org/2000/svg"><g fill="#007750"><path d="m216.71875 178.648438c-.089844.0625-.160156.136718-.238281.207031l-.019531.09375c0-.007813.089843-.113281.257812-.300781"/><g fill-rule="evenodd"><path d="m38.09375 63.289062c-.28125-1.074218-2.722656-1.265624-3.65625.105469-.898438 1.46875 2.546875 6.050781 2.546875 6.050781s8.417969 8.132813 7.941406 9.339844c-1.296875 5.078125 5.636719 3.34375 2.492188-2.3125-2.808594-1.714844-1.164063-1.832031.652343-1.042968.28125-.558594.445313-.480469.65625-1.285157-.234374-.566406-1.558593-2.308593-1.628906-3.097656.335938.125.308594-.617187.617188-.433594.484375.292969 1.410156 1.339844 2.050781 1.46875.238281-.722656.476563-1.433593.707031-2.148437-.042968-.292969-6.007812-8.847656-6.164062-4.335938-.238282 4.085938-1.089844-5.320312-1.089844-5.320312 2.390625 2.152344 11.320312 10.089844 10.007812 13.738281 1.015626.855469 1.839844-.640625 2.667969-1.941406-1.820312-3.925781-4.347656-6.582031-2.832031-7.21875 1.890625-1.25 2.832031-2.011719 6.496094.929687 1.9375-1.320312 2.289062-2.320312 2.289062-2.320312-4.824218-3.882813-9.78125-6.914063-13.332031-11.910156-1.308594-2.371094-3.300781-4.664063-3.386719-4.117188-.695312.875-.777344 1.34375-1.261718 2.203125.917968 1.859375-.746094 2.347656-1.558594 3.902344.132812.71875.511718 2.035156 1.289062 2.3125.976563-.964844 1.476563-1.957031 2.445313-2.914063.476562.941406 1.851562 1.65625 2.332031 2.613282-1.1875 1.714843-3.042969 2.699218-4.914062.980468-.554688.34375-1.203126.539063-1.539063 1.285156-.828125-1.003906-1.558594-1.703124-2.582031-1.691406-1.011719.257813-1.152344 1.929688-1.203125 2.65625.6875 1.203125.828125 1.398438 1.523437 2.597656 2.246094 2.460938 2.484375 5.242188 1.25 8.035157-.175781-.085938-3.039062-2.707031-2.816406-6.128907m11.304688-6.453124c1.855468 1.847656 4.277343 3.25 6.242187 5.222656-3.75-.53125-5.257813.722656-6.242187-.59375-.636719-1.886719-1.46875-3.382813 0-4.628906m-8.558594 12.984374c1.890625.839844 2.351562.9375 2.65625-.039062.539062.335938.839844.929688 1.246094 1.125-.378907.558594-.855469 1.097656-1.246094 1.65625-.703125-1.046875-2.113282-2.097656-2.65625-2.742188"/><path d="m210.851562 53.851562c-.035156.347657 7.441407 2.1875 7.511719 2.761719 1.03125.328125 2.90625 2.238281 2.582031 2.207031.078126 1.46875.035157 2.546876-1.191406 2.6875 0 0-1.867187.328126-3.316406.019532-1.4375-.3125-8.359375-.804688-8.359375-.804688.089844.175782-1.761719 1.769532-2.175781 1.769532-.308594.222656-1.679688.820312-1.679688.820312s-1.226562 1.125-1.488281 1.46875c-.273437.339844 2.035156 2.203125 2.378906 2.320312.519531 1.609376 1.546875.957032-.46875 2.949219-.148437 1.035157-4.339843-.894531-5.113281.960938-.34375.117187-1.78125.628906-2.625.40625-1.664062-.335938-4.332031-2.246094-3.957031-5.597657 0 0 1.773437-3.320312 3.507812-1.957031 1.742188 1.378907 2.929688.519531 3.273438.175781.34375-.335937 3.128906-2.789062 3.128906-2.789062s-.714844-.722656-1.09375-.804688c-2.175781-1.792968.738281-3.832031 1.664063-3.210937.675781 1.753906 5.398437.847656 6.183593.683594 2.25.261719 4.03125.5 6.277344.75.070313-.265625.183594-.285157.269531-.558594-.066406-.503906-7.023437-2.238281-8.25-2.203125-1.382812-4.980469 2.148438-3.191406 2.941406-2.054688m-14.640624 12.976563c-.53125 0-.660157.753906.148437 1.363281 1.222656.625 2.667969.007813 2.703125-.398437-.019531-.921875-2.121094-1.398438-2.851562-.964844"/><path d="m82.550781 37.765625c-2.191406-3.238281.507813-6.070313 3.414063-4.867187 1.703125 2.21875-.308594 4.335937-3.414063 4.867187"/><path d="m85.105469 23.011719c-.230469-.175781 2.226562-1.726563 3.265625-.328125.710937 2.117187 4.128906 14.417968 6.179687 14.488281 1.152344 1.84375.496094 1.746094-.113281 2.347656-2.148438.253907-1.367188.335938-2.148438.078125-1.398437 1.285156-2.785156 2.582032-4.183593 3.867188-2.148438.929687-3.160157-.515625-2.941407-1.53125 2.511719-1.265625 3.992188-2.148438 5.285157-4.476563-1.523438-4.542969-3.847657-9.347656-5.34375-14.445312"/><path d="m94.269531 18.75c-.316406.128906-.617187.246094-.933593.371094-.265626.839844-.308594 1.46875-.273438 2.210937 1.796875 4.972657 3.039062 10.382813 5.601562 15.050781.828126 1.25 2.023438 1.640626 3.0625 1.496094 1.839844-.503906 3.277344-1.230468 4.34375-1.996094.113282-1.496093.863282-2.558593-.777343-3.285156-.949219.484375-1.257813.519532-2.015625 1.28125-.617188 1.003906-1.054688.734375-2.035156.859375-.710938-1.246093-1.652344-3.238281-1.953126-4.785156 1.488282-3.300781 4.277344-6.136719 3.582032-9.402344-.480469-.925781-1.054688-1.660156-1.742188-1.679687-.441406.042968-1.371094.636718-2.121094.753906.5 2.867188 1.269532 3.917969-.457031 4.890625-.734375.097656-1.425781.726563-1.84375-.324219-.828125-1.808594-1.625-3.621094-2.4375-5.441406"/><path d="m153.265625 28.773438c1.171875-3.699219 2.386719-5.460938 4.570313-10.230469.21875-.628907.617187-1.167969 1.230468-1.558594.847656.066406 1.710938.101563 2.257813.71875-.574219 2.644531-2.113281 4.867187-2.5625 6.945313.199219.453124.757812.816406 1.238281.738281 1.101562-.585938 2.292969-1.515625 3.226562-3.214844.730469-.210937.816407 0 1.019532.707031-1.136719 4.039063-4.71875 7.914063-7.890625 9.929688-1.328125 3.207031-3.757813 5.839844-7.15625 6.433594-1.496094-.742188-1.78125-1.726563-.503907-3.902344.671876-.378906.785157-.726563 1.46875-1.113282.6875-.53125 1.28125-1.214843.769532-1.726562-1.121094-.378906-2.605469-.292969-3.832032.363281-1.171874-.539062-1.910156-1.335937-2.183593-2.40625-1.71875-2.53125 6.648437-.699219 8.347656-1.683593"/><path d="m156.777344 35.675781c.175781-.132812 3.621094.320313 5.242187 1.285157 1.257813 1.363281-2.828125 4.050781-4.332031 3.972656-.828125-.398438-.625-1.195313-.28125-2.054688.277344-.34375.550781-.699218.824219-1.042968-.472657-.132813-2.199219-1.574219-1.453125-2.160157"/><path d="m202.082031 48.792969c-.886719 1.421875.167969 2.574219 1.425781 3.175781-2.5 1.210938-4.535156.789062-5.152343-2.132812.25-2.511719 2.125-1.910157 3.726562-1.042969"/><path d="m126.003906 250.996094c69.394532 0 125.996094-56.378906 125.996094-125.496094s-56.601562-125.49609375-125.996094-125.49609375c-69.394531 0-126.003906 56.37890575-126.003906 125.49609375s56.609375 125.496094 126.003906 125.496094m-.097656-6.179688c-65.871094 0-119.609375-53.527344-119.609375-119.132812 0-65.625 53.738281-119.132813 119.609375-119.132813 65.882812 0 119.605469 53.507813 119.605469 119.132813 0 65.605468-53.722657 119.132812-119.605469 119.132812"/></g><path d="m126.472656 210.269531c23.136719 0 44.132813-9.390625 59.355469-24.554687 15.214844-15.152344 24.644531-36.0625 24.644531-59.101563 0-46.085937-37.730468-83.664062-84-83.664062-46.257812-.007813-83.988281 37.570312-83.988281 83.65625 0 23.042969 9.421875 43.949219 24.640625 59.105469 15.222656 15.160156 36.222656 24.558593 59.347656 24.558593m0 2.355469c-23.777344 0-45.367187-9.65625-61.003906-25.238281-15.648438-15.578125-25.351562-37.089844-25.351562-60.773438 0-47.371093 38.796874-86.015625 86.355468-86.015625 47.5625 0 86.359375 38.644532 86.359375 86.015625 0 23.683594-9.710937 45.195313-25.347656 60.773438-15.632813 15.574219-37.230469 25.238281-61.011719 25.238281"/><path d="m126.472656 213.261719c-23.167968 0-45.003906-9.035157-61.464844-25.425781-16.480468-16.398438-25.53125-38.148438-25.53125-61.230469 0-47.785157 39.023438-86.65625 86.996094-86.65625 47.980469 0 87.003906 38.867187 87.003906 86.65625 0 23.082031-9.070312 44.832031-25.527343 61.230469-16.464844 16.398437-38.300781 25.425781-61.476563 25.425781m0-172.027344c-47.257812 0-85.710937 38.300781-85.710937 85.371094 0 22.742187 8.9375 44.160156 25.15625 60.320312 16.21875 16.15625 37.730469 25.050781 60.554687 25.050781 22.832032 0 44.34375-8.894531 60.5625-25.050781 16.21875-16.152343 25.15625-37.578125 25.15625-60.320312 0-47.070313-38.453125-85.371094-85.71875-85.371094m0 169.679687c-22.542968 0-43.78125-8.785156-59.800781-24.742187-16.023437-15.953125-24.839844-37.097656-24.839844-59.558594 0-46.484375 37.972657-84.308593 84.640625-84.308593 46.675782 0 84.644532 37.824218 84.644532 84.308593 0 22.460938-8.824219 43.605469-24.839844 59.558594-16.019532 15.957031-37.253906 24.742187-59.804688 24.742187m0-167.332031c-45.957031 0-83.351562 37.253907-83.351562 83.023438 0 22.117187 8.699218 42.945312 24.460937 58.664062 15.785157 15.707031 36.699219 24.355469 58.890625 24.355469 22.207032 0 43.125-8.65625 58.898438-24.355469 15.761718-15.71875 24.453125-36.546875 24.453125-58.664062 0-45.769531-37.390625-83.023438-83.351563-83.023438"/><path d="m111.28125 176.578125v13.410156h-3.714844v-8.789062c-.601562.460937-1.1875.824219-1.746094 1.105469-.570312.292968-1.273437.558593-2.121093.816406v-3.011719c1.242187-.40625 2.226562-.882813 2.917969-1.441406.683593-.566407 1.230468-1.257813 1.625-2.085938zm5.40625 10.445313 3.648438-.453126c.09375.496094.253906.867188.492187 1.078126.226563.207031.511719.304687.84375.304687.582031 0 1.046875-.300781 1.375-.886719.238281-.441406.414063-1.363281.546875-2.78125-.441406.453125-.898438.773438-1.351562.992188-.472657.207031-1 .304687-1.617188.304687-1.1875 0-2.175781-.410156-2.996094-1.25-.816406-.847656-1.214844-1.902343-1.214844-3.183593 0-.878907.195313-1.675782.609376-2.398438.414062-.71875.992187-1.265625 1.726562-1.632812.71875-.367188 1.644531-.546876 2.738281-.546876 1.328125 0 2.386719.230469 3.1875.679688.800781.4375 1.445313 1.167969 1.925781 2.152344.46875.980468.714844 2.285156.714844 3.910156 0 2.371094-.5 4.125-1.507812 5.230469-1 1.089843-2.394532 1.648437-4.179688 1.648437-1.050781 0-1.886718-.117187-2.492187-.363281-.609375-.238281-1.117188-.59375-1.515625-1.0625-.414063-.453125-.730469-1.035156-.933594-1.742187m6.761719-5.875c0-.710938-.175781-1.269532-.542969-1.675782-.363281-.414062-.800781-.617187-1.320312-.617187-.484376 0-.882813.183593-1.207032.554687-.328125.363282-.496094.90625-.496094 1.640625 0 .742188.179688 1.308594.511719 1.695313.335938.390625.75.585937 1.257813.585937.511718 0 .9375-.195312 1.28125-.566406.347656-.378906.515625-.914063.515625-1.617187m10.199219-.53125-3.480469-.621094c.292969-1.097656.839843-1.945313 1.65625-2.53125.828125-.585938 1.992187-.882813 3.496093-.882813 1.726563 0 2.96875.316407 3.742188.96875.765625.640625 1.152344 1.4375 1.152344 2.410157 0 .582031-.148438 1.085937-.464844 1.546874-.324219.460938-.792969.867188-1.425781 1.207032.519531.136718.90625.28125 1.171875.449218.445312.265626.78125.621094 1.027344 1.0625.246093.441407.378906.964844.378906 1.582032 0 .769531-.21875 1.496094-.613282 2.207031-.40625.699219-.980468 1.238281-1.746093 1.625-.75.375-1.742188.566406-2.976563.566406-1.207031 0-2.164062-.148437-2.859375-.421875-.6875-.277344-1.261719-.691406-1.71875-1.230468-.441406-.550782-.792969-1.238282-1.023437-2.046876l3.675781-.484374c.140625.734374.367187 1.238281.660156 1.53125.308594.28125.695313.421874 1.175781.421874.484376 0 .902344-.175781 1.226563-.539062.332031-.355469.5-.839844.5-1.433594 0-.617187-.164063-1.089844-.484375-1.425781-.308594-.335937-.738281-.511719-1.285156-.511719-.296875 0-.6875.078125-1.1875.222656l.191406-2.613281c.195312.027344.363281.046875.46875.046875.484375 0 .882812-.152344 1.207031-.460937.332031-.308594.484375-.671875.484375-1.082031 0-.40625-.113281-.722657-.359375-.964844-.238281-.238282-.566406-.359375-.988281-.359375-.433594 0-.78125.128906-1.054688.386719-.273437.257812-.449218.726562-.546874 1.375m18.332031-4.039063v13.410156h-3.714844v-8.789062c-.597656.460937-1.183594.824219-1.738281 1.105469-.570313.292968-1.265625.558593-2.121094.816406v-3.011719c1.261719-.40625 2.222656-.882813 2.917969-1.441406.683593-.566407 1.238281-1.257813 1.625-2.085938zm0 0" fill-rule="evenodd"/><path d="m144.160156 127.5625s-2.007812.328125-2.929687 1.183594c0 0-1.03125.671875-.503907 1.214844 0 0 2.464844.140624 3.789063-.910157.007813 0 1.695313-1.179687-.355469-1.488281"/><path d="m144.160156 127.5625s-2.007812.328125-2.929687 1.183594c0 0-1.03125.671875-.503907 1.214844 0 0 2.464844.140624 3.789063-.910157.007813 0 1.695313-1.179687-.355469-1.488281"/><path d="m144.160156 127.5625s-2.007812.328125-2.929687 1.183594c0 0-1.03125.671875-.503907 1.214844 0 0 2.464844.140624 3.789063-.910157.007813 0 1.695313-1.179687-.355469-1.488281"/><path d="m81.890625 148.324219c-.035156-.105469-.105469-.207031-.183594-.300781.078125.097656.148438.195312.183594.300781"/><path d="m81.996094 148.640625c-.019532-.097656-.054688-.210937-.105469-.300781.058594.089844.09375.203125.105469.300781"/><path d="m82.03125 148.914062c-.019531-.085937-.019531-.175781-.035156-.273437.023437.097656.023437.1875.035156.273437"/><path d="m81.050781 146.820312c-.066406.042969-.113281.0625-.113281.0625-.296875 0-.441406.09375-.542969.199219.101563-.105469.246094-.199219.542969-.199219 0-.003906.054688-.019531.113281-.0625"/><path d="m81.308594 146.578125c-.105469.109375-.195313.195313-.257813.242187.0625-.046874.152344-.132812.257813-.242187"/><path d="m133.710938 134.851562s2.734374-.269531 3.757812-1.300781c0 0 .925781-.882812 1.261719 0 0 0 .105469.886719 1.582031 1.0625v1.835938s-4.234375-1.117188-6.605469.820312zm0 0"/><path d="m136.375 93.914062s-3.476562 1.648438-1.035156 5.613282c0 0 1.972656 1.34375 3.6875-.371094 0 0 .511718-.621094 0-1.574219 0 0-.574219-.832031-1.03125.332031 0 0 .335937.621094-.625.621094 0 0-1.566406.105469-1.566406-1.558594 0 0 .5-1.707031 1.9375-1.527343 0 0 2.105468-.257813 2.582031 1.101562v-2.644531c-.003907.007812-2.476563-1.097656-3.949219.007812"/><path d="m140.320312 125.828125v-16.761719c-2.074218-2.609375-6.609374-3.132812-6.609374-3.132812v1.382812c6.476562 2.863282 4.570312 9.722656 4.570312 9.722656-.652344 2.089844-4.570312 7.460938-4.570312 7.460938v7.160156c1.195312-.542968 3.246093-1.777344 3.246093-1.777344 1.914063-.515624 3.355469 1.246094 3.355469 1.246094v-5.300781zm0 0"/><path d="m132.828125 47.351562h-8.011719s-.945312.058594-.945312.9375v3.027344s-.105469.890625-.886719.890625h-6.304687s-.777344.160157-.777344.769531v2.203126s.230468.902343.917968.902343h6.214844s.828125-.078125.828125.824219v1.40625s-.105469.683594-.6875.683594h-6.335937s-.945313.078125-.945313.9375v1.726562s-.058593.777344.777344.777344h6.585937s.605469 0 .605469.601562v3.964844s.054688.65625-.660156.65625h-28.191406s-1.402344-.371094-1.84375 1.839844c-.445313 2.195312-9.765625 39.125-9.765625 39.125s-1.320313 9.910156 4.871094 13.652344c0 0 1.769531 2.648437-1.328126 1.320312l-2.324218-1.210937s-1.269532-1.160157-2.21875.996093c0 0-2.421875 4.628907-.757813 8.585938l1.539063 4.746094s.554687 2.414062-.886719.980468c0 0-2.441406-2.644531-2.546875-3.742187 0 0-.773438-1.535156-1.214844 0-.441406 1.539063 0 2.644531-.996094 3.855469 0 0 .21875 2.859375-.652343 4.507812 0 0-.554688 1.875.757812 1.433594 0 0 2.105469-2.417969 2.210938-.550781 0 0-1.320313 1.875-1.539063 2.644531 0 0 .339844 1.214844-1.21875 1.097656 0 0-1.882812-.113281-1.882812 3.089844 0 0-.332032 1.425781 1.226562.875 0 0 2.320313-1.867188 1.765625.109375 0 0-1.105469 1.113281-.445312 2.316406 0 0 1.777343 1.539063-.769531 1.328125 0 0-2.761719-2.3125-2.445313.433594 0 0 4.324219 3.308594 5.976563 4.195312 0 0 .996093-.117187.996093.875 0 0-.554687 4.734376-.113281 5.953126 0 0 0 1.3125-1.101562 1.535156l-1.101563-.222656-.105469-6.71875s.105469-1.203126-.996094-1.203126l-3.316406-2.089843s-1.984375.101562-.988281 1.3125c0 0 2.421875 1.113281.988281 1.980469 0 0-1.324218 1.214843.210938 1.433593 0 0 3.210937 1.328125-.210938 1.097657 0 0-3.433594-.21875-2.765625 1.875l-2.96875 16.535156c.078125-.0625.167969-.136719.238281-.195313 15.398438-12.9375 35.28125-20.742187 57.003907-20.742187 2.496093 0 4.976562.128906 7.425781.335937v-23.796875c-1.429688.554688-6.289062.769532-6.289062.769532-11.726563 1.210937-19.914063-9.578126-19.914063-9.578126-5.195313-9.027343.105469-17.289062.105469-17.289062 4.875-3.628906 4.433594 1.867188 4.433594 1.867188-.71875.722656-1.546876 6.503906-1.546876 6.503906 0 14.867187 12.597657 16.519531 12.597657 16.519531h7.308593c.769532 0 3.304688-1.210937 3.304688-1.210937v-3.195313c-5.523438 2.964844-12.933594.550781-12.933594.550781-9.070312-1.539062-8.835937-12.222656-8.835937-12.222656.546875-2.089844 1.761719.886719 1.761719.886719 7.960937 10.351562 20.015624 3.628906 20.015624 3.628906v-17.179687c0-.078126-1.761718.441406-1.761718.441406-1.230469 0-1.777344 3.304687-1.777344 3.304687 0 1.097657 1.648438.554688 1.648438.554688 2.039062 0 .164062 1.609375.164062 1.609375-2.183594.800781-3.214844-.960938-3.214844-.960938-.992187-3.628906 2.113282-5.871094 2.113282-5.871094.925781-.933593 2.828124-.46875 2.828124-.46875v-57.679687c-.015624 0 .097657-.882813-.898437-.882813m-49.203125 101.820313s-.882812 1.433594-1.59375 0c0 0 0-.113281 0-.265625 0-.078125-.019531-.175781-.042969-.265625-.019531-.097656-.039062-.210937-.089843-.308594-.042969-.105469-.113282-.214843-.183594-.316406-.246094-.292969-.671875-.53125-1.375-.53125 0 0-.070313-.230469.0625-.402344.09375-.113281.238281-.199219.554687-.199219 0 0 .035157-.019531.09375-.0625.066407-.039062.160157-.125.265625-.242187.195313-.230469.441406-.625.601563-1.265625 0 0 .78125-1.757812 1.714843 0zm10.726562-47.582031-.125 4.414062s-.652343 2.644532-1.875-.121094c0 0-.441406-2.964843.449219-4.179687 0 0 .105469-5.390625-2.878906-2.53125 0 0-2.316406 5.511719-2.316406 9.25 0 0-1.4375 3.421875-2.21875.226563 0 0 1.777343-7.933594 2.105469-8.933594 0 0 .113281-2.304688.992187-3.402344 0 0 2.441406-2.09375 3.433594-4.183594 0 0 2-1.761718 1.664062.875 0 0-2.316406 3.082032-.210937 4.515625-.007813 0 1.867187 1.875.980468 4.070313m3.644532-15.304688s-1.664063 2.207032-2.535156 2.863282c0 0-1.984376.769531-.890626-1.097657 0 0 2.878907-.773437.890626-2.976562 0 0-1.648438-1.761719-2.546876.550781 0 0-.105468.992188.113282 2.203125 0 0-.78125 1.433594-1.222656-.65625 0 0-1.542969-5.28125-.335938-7.496094 0 0 1.332031.109375 1.332031 1.539063 0 0 .554688 2.867187 1.761719.773437 0 0 .675781-2.976562.675781-4.40625 0 0 0-1.097656 1.09375-1.867187 0 0 1.222657-2.207032 1.664063-3.304688 0 0 1.328125-1.652344 1.222656.441406 0 0-1.4375 1.765626-.773438 4.1875 0 0 .105469.992188-.777343 1.539063 0 0-1.988281 2.753906-1.441407 4.40625 0 0 .78125 2.425781 2.109376-.226563 0 0 2.425781-3.515624 2.546874-.992187 0 0-2.332031 3.417969-2.886718 4.519531m23.886718 7.046875-1.546874-1.433593c-.996094-.65625-1.207032 1.21875-1.207032 1.21875-.335937 6.054687-5.089844 15.632812-5.089844 15.632812-.777343 1.875-2.324218.554688-2.324218.554688-1.984375-.449219-.546875-2.859376-.546875-2.859376 7.296875-9.589843 5.742187-15.308593 5.742187-15.308593-.214844-1.433594.113282-2.980469.113282-2.980469.4375-3.417969-1.328126-5.070312-1.328126-5.070312-.449218-2.535157 1.097657-.886719 1.097657-.886719.890625 1.433593 2.210937 3.308593 2.210937 3.308593 0 .65625.125 2.746094.125 2.746094.445313.777344 1.425782 2.644532 1.425782 2.644532 2.65625 2.21875 1.328124 2.433593 1.328124 2.433593"/><path d="m144.160156 127.5625s-2.007812.328125-2.929687 1.183594c0 0-1.03125.671875-.503907 1.214844 0 0 2.464844.140624 3.789063-.910157.007813 0 1.695313-1.179687-.355469-1.488281"/><path d="m144.523438 129.050781c-1.332032 1.050781-3.78125.910157-3.78125.910157-.542969-.539063.496093-1.214844.496093-1.214844.921875-.863282 2.929688-1.183594 2.929688-1.183594 2.035156.308594.355469 1.488281.355469 1.488281"/><path d="m179.785156 164.800781c0-2.019531-.816406-.816406-.816406-.816406-1.363281 2.464844-2.722656 2.726563-2.722656 2.726563-2.550782 1.277343-.851563-.855469-.851563-.855469.808594 0 .957031-.957031.957031-.957031 0-1.46875.589844-1.46875.589844-1.46875 1.253906-1.246094 0-2.34375 0-2.34375-1.882812-.921876-.886718-1.835938-.886718-1.835938 1.839843-.839844 1.804687.84375 1.804687.84375 0 1.503906.921875.921875.921875.921875v-2.570313c.371094-1.988281-1.839844-1.253906-1.839844-1.253906-.445312.449219-3.316406 2.359375-3.316406 2.359375-1.03125.285157-1.03125 1.027344-1.03125 1.027344v2.503906c-.371094 2.339844-1.613281.433594-1.613281.433594 0-1.394531-.589844-3-.589844-3-1.546875-.742187 0-1.46875 0-1.46875 6.113281-3.015625 6.480469-3.964844 6.480469-3.964844 2.289062-2.273437-.550782-1.367187-.550782-1.367187-1.359374.742187-.726562-.726563-.726562-.726563 0-1.132812-1.140625-1.132812-1.140625-1.132812-1.113281-1.109375 0-1.46875 0-1.46875.695313.695312 2.058594.519531 2.058594.519531 1.769531.726562.292969-2.054688.292969-2.054688 0-2.359374-.960938-2.136718-.960938-2.136718-1.761719-.507813-2.019531-2.011719-2.019531-2.011719-1.070313-1.503906 1.078125-1.0625 1.078125-1.0625 1.398437-.371094.4375-2.644531.4375-2.644531-.914063-.921875-.878906-4.636719-.878906-4.636719-.441407-1.609375-1.847657 0-1.847657 0-1.246093.519531-3.171875 3.894531-3.171875 3.894531-2.128906 1.097656 0-2.496094 0-2.496094 3.027344-4.914062.589844-12.335937.589844-12.335937-.140625-1.539063-2.210938-.804687-2.210938-.804687-.746093.730468-2.65625 1.246093-2.65625 1.246093-1.542968-.441406.367188-1.609375.367188-1.609375 1.742188-.992187 3.097656-3.816406 3.097656-3.816406 1.914063-1.910156.441406-7.859375.441406-7.859375-.886718-5.140625-3.46875-20.414063-3.46875-20.414063 0-1.832031-1.390624-2.574218-1.390624-2.574218-2.878907-2.203125-4.207032-6.601563-4.207032-6.601563 0-2.054687 1.628906 0 1.628906 0 0 1.316407 2.65625 5.058594 2.65625 5.058594 1.394532.59375.292969-1.464844.292969-1.464844-1.253906-2.648437-3.011719-15.496093-3.011719-15.496093-.601562-1.3125-2.363281-2.347657-2.363281-2.347657-8.554687-2.644531-17.027343.292969-17.027343.292969-2.023438 1.363281-1.847657 2.496094-1.847657 2.496094v22.398437c.660157.230469 1.761719 1.027344 1.761719 1.027344 2.65625 1.929687 4.8125 8.757813 4.8125 8.757813 2.089844 6.769531-1.695312 11.972656-1.695312 11.972656-.804688 1.460937-1.128907-1.128906-1.128907-1.128906-.335937-2.089844-1.882812-4.628907-1.882812-4.628907-.882813-2.035156 0-3.628906 0-3.628906 2.445312-6.222656-1.867188-9.726563-1.867188-9.726563v13.699219s3.582031 2.246094 2.039063 10.566407c0 0-.410156 2.117187.855468.859374 0 0 3.894532-4.488281 5.382813-12.910156 0 0 .316406-5.71875-3.964844-13.375 0 0-2.992187-6.28125-2.992187-7.210937 0 0-1.101563-3.417969.335937-6.113281 0 0 2.207031-4.132813 5.960938-1.320313 0 0 2.804687 2.398437.949219 4.238281 0 0-.195313.804688.386718 1.378906 0 0 .660156 1.375-.554687 1.433594 0 0-1.328125.4375-1.375-.996094 0 0-.386719-.773437-1.441407-.824218 0 0-1.328124.222656-1.648437-1.152344 0 0-.28125-1.316406.652344-1.601562 0 0 .671875-.160157.84375.550781 0 0-.660157 2.253906 1.320312 1.273437 0 0 1.726563-.824218.617188-2.59375 0 0-1.054688-2.203125-3.320313-1.210937 0 0-2.320312 1.488281-1.265625 6.007812 0 0 1.320313 5.777344 3.691407 9.300781 0 0 4.09375 6.609376 4.09375 11.179688 0 0-.054688 8.8125-6.351563 15.132812 0 0-2.21875 2.980469-2.605469 2.980469 0 0-1.125 1.539063-1.582031 0v8.796875s.964844.183594 2.621094 0c0 0 1.09375.386719-.472657 1.210938 0 0-1.507812.636718-2.148437.636718v25.390626c1.273437.210937 2.53125.414062 3.765625.664062 14.527344 2.957031 27.738281 9.453125 38.726562 18.53125zm-20.929687-91.203125c.035156-.152344.074219-.292968.105469-.414062.070312-.230469.132812-.375.132812-.375.34375-.34375.566406-.433594.695312-.40625.039063.007812.074219.035156.109376.0625.113281.117187.136718.34375.136718.34375.34375.347656 1.15625 2.859375 1.15625 2.859375-.089844.28125-.183594.460937-.292968.585937-.484376.53125-1.203126-.144531-1.203126-.144531-.8125-.46875-.953124-1.289063-.910156-2 .011719-.191406.039063-.359375.070313-.511719m-5.84375 3.714844c-.335938.992188-.496094 3.203125-.496094 3.203125-1.945313 1.914063-2.050781-.601563-2.050781-.601563.386718-2.324218 1.332031-3.476562 1.332031-3.476562 1.875-1.378906 1.214844.875 1.214844.875m1.441406 8.871094s-1.160156 1.539062-1.160156-.4375c0 0 .035156-1.53125.4375-1.875 0 0 1.21875-1.316406 1.21875.441406-.003907 0 .128906 1.242188-.496094 1.871094m1.496094-.171875c-.78125-2.804688 0-5.230469 0-5.230469 1.402343-1.398438 0-3.527344 0-3.527344-.675781-1.703125-2.910157-3.664062-2.910157-3.664062-1.675781-2.558594 1.25-1.230469 1.25-1.230469.378907 1.433594 3.421876 4.34375 3.421876 4.34375 1.226562 2.867187-.269532 4.355469-.269532 4.355469-.945312 2.589844 0 3.902344 0 3.902344.605469 1.65625.445313 1.875.445313 1.875.273437 2.089843-.949219.9375-.949219.9375-.609375-.59375-.988281-1.761719-.988281-1.761719m5.574219 14.542969c-2.664063 2.644531-2.09375 5.832031-2.09375 5.832031-.570313 2.03125-1.816407.335937-1.816407.335937-.753906-1.71875 0-4.726562 0-4.726562 1.226563-1.964844 2.839844-2.824219 2.839844-2.824219.957031-1.707031 0-1.539063 0-2.007813s-1.800781-1.789062-1.800781-1.789062c-1.546875-2.980469 1.542968-1.539062 1.542968-1.539062 5.25 3.140624 5.589844 8.089843 5.589844 8.089843.933594 2.097657 1.703125 10.132813 1.703125 10.132813-.382812 3.085937-1.4375 0-1.4375 0-1.371093-3.902344-2.09375-10.84375-2.09375-10.84375-1.109375-1.980469-2.433593-.660156-2.433593-.660156m6.914062 50.554687c-.238281-.308594-.335938-.558594-.335938-.558594-.773437-1.433593 0-3.902343 0-3.902343.113282-.121094.210938-.246094.300782-.378907.167968-.257812.265625-.554687.332031-.820312.144531-.675781.039063-1.277344.039063-1.277344.773437-1.652344 1.265624.378906 1.265624.378906 0 .496094.089844.773438.210938.933594.113281.15625.257812.183594.351562.183594.0625 0 .097657-.007813.097657-.007813.316406.300782.46875.589844.519531.839844.019531.0625.027344.125.027344.183594.007812.117187-.007813.222656-.035156.328125-.035157.144531-.105469.265625-.175782.371093-.089844.101563-.167968.1875-.230468.242188-.023438.023438-.035157.027344-.058594.042969-.027344.019531-.054688.042969-.054688.042969 0 .472656-.34375.851562-.605468 1.0625-.160157.125-.277344.195312-.277344.195312-.332032.480469-.332032.921875-.207032 1.28125.042969.125.101563.230469.164063.332031.035156.058594.070313.113281.105469.15625.238281.328125.519531.515625.519531.515625.398437.8125.203125 1.015625-.097656 1-.304688 0-.710938-.207031-.710938-.207031-.546875-.246094-.917969-.628906-1.144531-.9375"/><path d="m69.289062 181.472656c-.089843.0625-.160156.132813-.238281.210938l-.023437.089844s.101562-.105469.261718-.300782"/><path d="m37.054688 160.96875c.378906-.125.621093-.257812.71875-.398438.105468-.140624.132812-.316406.097656-.539062l-.28125-1.34375.695312-.230469c.078125.351563.238282.890625.46875 1.609375.234375.726563.480469 1.484375.746094 2.246094.265625.769531.53125 1.515625.792969 2.230469.273437.710937.476562 1.230469.625 1.53125l-.710938.242187-.875-1.675781c-.105469-.21875-.246093-.34375-.402343-.371094-.144532-.027343-.386719.015625-.722657.132813l-12.867187 4.40625c-.386719.132812-.648438.257812-.761719.398437-.109375.125-.144531.363281-.109375.710938l.28125 2.058593-.691406.230469c-.125-.460937-.300782-1.0625-.546875-1.824219-.230469-.75-.492188-1.503906-.742188-2.253906-.128906-.363281-.246093-.71875-.378906-1.113281-.132813-.382813-.273437-.753906-.410156-1.117187-.132813-.363282-.265625-.699219-.382813-1.015626-.136718-.3125-.246094-.585937-.34375-.808593l.691406-.238281.796876 1.433593c.105468.195313.273437.308594.46875.3125.195312.007813.511718-.0625.953124-.207031l5.746094-1.964844-2.84375-8.265625-5.757812 1.964844c-.441406.152344-.746094.300781-.886719.425781-.144531.140625-.203125.320313-.144531.566406l.246094 1.609376-.695313.238281c-.0625-.238281-.132813-.519531-.238281-.855469-.09375-.328125-.183594-.671875-.304688-1.035156-.125-.371094-.246094-.746094-.378906-1.144532-.132812-.386718-.265625-.769531-.398438-1.128906-.238281-.710937-.5-1.445312-.78125-2.195312-.28125-.753906-.519531-1.339844-.707031-1.789063l.707031-.230469 1.046876 1.796876c.140624.265624.308593.414062.492187.449218.203125.035156.484375-.007812.855469-.140625l12.898437-4.414062c.371094-.125.617188-.265625.714844-.382813.097656-.132812.132813-.316406.097656-.554687l-.28125-1.335938.710938-.242187c.070312.347656.230469.902344.457031 1.636718.246094.738282.492188 1.515626.777344 2.3125.269531.789063.535156 1.539063.816406 2.265626.265625.722656.46875 1.246093.617188 1.554687l-.710938.230469-.917969-1.804688c-.113281-.21875-.246093-.335937-.40625-.371094-.164062-.027343-.402343.011719-.722656.125l-5.890625 2.015626 2.855469 8.265624zm0 0"/><path d="m45.542969 173.261719-.679688.421875-1.089843-1.332032c-.207032-.265624-.449219-.402343-.707032-.410156-.265625 0-.605468.117188-.992187.371094l-8.324219 5.144531c-1.300781.8125-2.085938 1.757813-2.351562 2.8125-.28125 1.0625-.023438 2.230469.757812 3.476563.476562.773437.980469 1.363281 1.507812 1.773437.519532.429688 1.125.660157 1.785157.730469.660156.0625 1.425781-.066406 2.28125-.378906.84375-.316406 1.839843-.820313 2.960937-1.519532l6.390625-3.957031c.644531-.40625.820313-.972656.539063-1.707031l-.617188-1.585938.675782-.417968c.195312.417968.679687 1.242187 1.460937 2.5.179687.296875.378906.617187.589844.9375.195312.316406.378906.617187.566406.875.175781.273437.332031.503906.476563.714844.136718.195312.238281.339843.316406.433593l-.6875.417969-1.164063-1.203125c-.304687-.3125-.78125-.257813-1.445312.160156l-7.007813 4.34375c-2.113281 1.300781-3.988281 1.847657-5.617187 1.644531-1.636719-.210937-3.074219-1.308593-4.3125-3.292968-1.355469-2.164063-1.945313-4.070313-1.78125-5.75.160156-1.679688 1.066406-3.027344 2.722656-4.046875l8.433594-5.234375c.386719-.242188.636719-.445313.757812-.632813.125-.183593.125-.402343.019531-.636719l-.679687-1.519531.679687-.410156c.304688.550781.652344 1.160156 1.082032 1.84375.40625.6875.828125 1.371094 1.25 2.035156.203125.335938.421875.679688.644531 1.015625.203125.347656.410156.675782.621094.984375.195312.300781.378906.574219.546875.820313.152344.25.28125.4375.390625.578125"/><path d="m50.226562 182.515625.625-.574219 1.199219 1.160156c1.285157 1.238282 2.324219 2.25 3.140625 3.046876.792969.792968 1.304688 1.308593 1.523438 1.527343.546875.601563 1.058594 1.238281 1.539062 1.921875.46875.6875.8125 1.355469 1.042969 2.050782.21875.683593.273437 1.347656.175781 2-.105468.648437-.457031 1.242187-1.03125 1.773437-.328125.316406-.714844.53125-1.152344.664063-.433593.128906-.882812.183593-1.355468.148437-.453125-.027344-.945313-.132813-1.429688-.308594-.5-.179687-.960937-.417969-1.40625-.734375.449219.644532.816406 1.28125 1.117188 1.917969.296875.628906.457031 1.242187.519531 1.851563.035156.609374-.054687 1.210937-.28125 1.796874-.21875.574219-.636719 1.15625-1.222656 1.707032-.589844.539062-1.269531.875-2.054688 1.007812-.78125.125-1.601562.082032-2.449219-.140625-.867187-.230469-1.730468-.609375-2.585937-1.148437-.878906-.53125-1.675781-1.207032-2.421875-2.011719-.707031-.753906-1.410156-1.519531-2.105469-2.265625-.679687-.75-1.375-1.503906-2.09375-2.265625l-1.558593-1.6875.648437-.59375 1.214844.8125c.292969.179687.574219.257813.820312.25.246094-.003906.566407-.195313.976563-.566406l9.476562-8.789063c.105469-.078125.183594-.167968.265625-.246094.070313-.074218.09375-.179687.09375-.285156 0-.117187-.035156-.257812-.128906-.40625-.074219-.152344-.210937-.371094-.40625-.621094zm-1.570312 9.605469-4.328125 4c-.519531.492187-.742187 1.050781-.652344 1.671875.09375.625.457031 1.289062 1.125 1.992187.777344.828125 1.640625 1.246094 2.597657 1.246094.953124 0 1.875-.398438 2.738281-1.210938 2.105469-1.9375 2.125-4 .089843-6.1875-.21875-.230468-.46875-.476562-.742187-.75-.269531-.25-.542969-.507812-.828125-.761718m.917969-.84375c.070312.132812.210937.320312.433593.566406.207032.242188.519532.585938.949219 1.039062.738281.785157 1.523438 1.164063 2.332031 1.121094.8125-.035156 1.671876-.453125 2.535157-1.265625.707031-.65625 1.03125-1.398437.988281-2.203125-.0625-.8125-.371094-1.53125-.949219-2.160156-.519531-.554688-1.078125-1.015625-1.664062-1.398438zm0 0"/><path d="m69.210938 214.667969c-.351563.28125-.707032.59375-1.058594.945312-.371094.363281-.722656.710938-1.0625 1.074219-.347656.351562-.671875.707031-.980469 1.050781s-.578125.648438-.792969.910157c-.929687-.75-1.902344-1.503907-2.921875-2.28125-1.019531-.777344-2.164062-1.644532-3.449219-2.609376-1.28125-.964843-2.554687-1.902343-3.796874-2.832031-1.25-.921875-2.359376-1.71875-3.335938-2.40625l.464844-.605469 1.644531 1.054688c.277344.160156.503906.246094.671875.246094.148438 0 .351562-.183594.617188-.527344l8.25-10.914062c.273437-.363282.421874-.636719.449218-.855469.027344-.214844-.042968-.410157-.230468-.605469l-1.46875-1.351562.472656-.628907c.609375.503907 1.496094 1.195313 2.632812 2.0625 1.148438.867188 2.449219 1.847657 3.894532 2.945313 1.453124 1.082031 2.640624 1.972656 3.574218 2.671875.949219.683593 1.734375 1.242187 2.351563 1.671875-.195313.195312-.421875.453125-.6875.773437-.265625.300781-.511719.636719-.773438.972657-.257812.34375-.503906.679687-.730469 1.007812-.230468.335938-.417968.636719-.601562.886719l-.28125-.214844c.265625-.679687.449219-1.246094.546875-1.691406.089844-.464844.125-.863281.070313-1.183594-.035157-.335937-.148438-.617187-.316407-.851563-.167969-.234374-.386719-.449218-.652343-.660156l-4.09375-3.054687c-.257813-.1875-.484376-.25-.679688-.183594-.195312.085937-.4375.296875-.6875.636719l-3.492188 4.617187 3.492188 2.613281c.328125.246094.636719.40625.933594.492188.300781.089844.601562.027344.890625-.183594l1.671875-1.117187.636718.472656c-1.453124 1.730469-2.808593 3.539063-4.097656 5.421875l-.449218-.335938.433593-2.085937c.089844-.433594.023438-.835937-.210937-1.222656-.230469-.375-.546875-.71875-.933594-1.011719l-2.96875-2.230469-3.714844 4.898438c-.238281.335937-.351562.601562-.328125.820312.027344.222657.214844.480469.625.777344l3.851563 2.894531c.339844.242188.6875.441406 1.0625.585938.386718.140625.8125.195312 1.289062.183594.472656-.023438 1.027344-.140626 1.644532-.351563.625-.214844 1.363281-.558594 2.183593-1.027344zm0 0"/><path d="m71.28125 219.773438 6.929688-12.246094c.164062-.277344.234374-.503906.207031-.671875-.03125-.160157-.148438-.320313-.375-.46875l-1.425781-1.097657.351562-.636718c.140625.140625 1.855469 1.148437 5.15625 2.988281.980469.550781 1.761719.964844 2.363281 1.238281l-.378906.671875-1.675781-.660156c-.246094-.109375-.445313-.144531-.585938-.097656-.140625.058593-.300781.222656-.46875.511719l-6.9375 12.246093c-.167968.300781-.230468.515625-.195312.640625s.175781.265625.40625.421875l1.496094 1-.476563.835938c-.308594-.214844-.773437-.515625-1.378906-.871094-.609375-.363281-1.386719-.8125-2.320313-1.34375-.933594-.523437-1.714844-.957031-2.355468-1.28125-.625-.335937-1.113282-.570313-1.457032-.726563l.46875-.839843 1.628906.757812c.265626.097657.457032.140625.589844.097657.132813-.035157.273438-.191407.433594-.46875"/><path d="m105.101562 216.625-.203124.769531-1.707032-.195312c-.335937-.050781-.601562.019531-.792968.183593-.179688.179688-.335938.496094-.457032.949219l-2.421875 9.453125c-.371093 1.484375-.292969 2.707032.269531 3.652344.539063.957031 1.523438 1.621094 2.960938 1.984375.886719.226563 1.664062.308594 2.324219.230469.675781-.0625 1.269531-.292969 1.796875-.710938.535156-.40625.992187-1.015625 1.375-1.839844.386718-.8125.753906-1.859374 1.082031-3.140624l1.855469-7.265626c.179687-.726562-.078125-1.265624-.789063-1.59375l-1.558593-.714843.207031-.769531c.417969.164062 1.351562.421874 2.769531.792968.351562.074219.710938.171875 1.082031.265625.367188.089844.710938.175781 1.027344.242188.316406.070312.582031.128906.828125.183593.246094.054688.414062.078126.539062.089844l-.203124.769532-1.683594-.042969c-.421875-.027344-.722656.34375-.929688 1.113281l-2.035156 7.964844c-.609375 2.398437-1.578125 4.085937-2.90625 5.054687-1.328125.980469-3.117188 1.183594-5.390625.601563-2.488281-.628906-4.242187-1.59375-5.289063-2.914063-1.050781-1.316406-1.339843-2.917969-.863281-4.796875l2.457031-9.59375c.105469-.433594.140626-.769531.097657-.972656-.03125-.21875-.179688-.378906-.433594-.476562l-1.539063-.621094.199219-.769532c.601563.1875 1.285157.382813 2.070313.585938.773437.210938 1.542968.414062 2.316406.609375.378906.097656.78125.195313 1.164062.292969.402344.097656.773438.195312 1.132813.28125.363281.074218.6875.144531.96875.207031.28125.070313.503906.121094.679687.140625"/><path d="m118.300781 234.941406c-.027343.46875.015625.796875.128907.957032.105468.160156.328124.28125.6875.335937l2.222656.40625-.039063.851563c-1.132812-.117188-2.277343-.207032-3.40625-.273438-1.128906-.0625-2.449219-.097656-3.945312-.125l.042969-.851562 1.570312-.195313c.652344-.078125 1.066406-.191406 1.257812-.335937.183594-.132813.292969-.414063.316407-.828126l.609375-11.375c.042968-.859374-.007813-1.519531-.183594-1.957031-.160156-.433593-.503906-.707031-1.023438-.828125l-1.664062-.339844.054688-1.023437 5.097656.273437c.21875.015626.414062.035157.570312.0625.148438.027344.292969.070313.414063.140626.132812.0625.257812.148437.371093.246093.128907.097657.246094.230469.386719.382813l9.933594 11.628906.5-9.230469c.027344-.503906-.035156-.875-.175781-1.097656-.160156-.222656-.40625-.371094-.773438-.417969l-2.113281-.398437.058594-.902344c.53125.074219 1.535156.171875 3.046875.242187.757812.050782 1.472656.085938 2.148437.113282.671875.027344 1.136719.027344 1.410157 0l-.054688.902344-1.679688.027343c-.328124.019531-.519531.160157-.605468.433594-.089844.265625-.136719.65625-.167969 1.167969l-.828125 15.449218-.679688-.042968-12.863281-15.183594zm0 0"/><path d="m140.496094 235.78125-2.058594-13.902344c-.042969-.328125-.125-.539062-.261719-.652344-.109375-.109374-.308593-.175781-.574219-.140624l-1.804687.007812-.105469-.726562c.183594.027343 2.15625-.238282 5.90625-.789063 1.101563-.160156 1.984375-.316406 2.625-.46875l.113282.746094-1.734376.519531c-.265624.0625-.4375.144531-.511718.277344-.101563.128906-.113282.363281-.058594.695312l2.050781 13.902344c.054688.339844.132813.550781.238281.621094.105469.082031.300782.113281.582032.089844l1.796875-.117188.140625.941406c-.382813.015625-.917969.078125-1.628906.15625-.707032.074219-1.59375.207032-2.660157.363282-1.066406.160156-1.945312.292968-2.652343.417968-.695313.121094-1.230469.226563-1.601563.316406l-.140625-.945312 1.75-.410156c.273438-.070313.449219-.167969.53125-.28125.097656-.089844.105469-.308594.058594-.621094"/><path d="m162.644531 213.890625-1.367187.707031c-.269532.125-.464844.300782-.589844.523438-.140625.226562-.21875.46875-.238281.730468l-1.097657 17.578126-.898437.285156-11.472656-12.992188c-.351563-.410156-.636719-.675781-.828125-.769531-.203125-.089844-.449219-.136719-.742188-.117187l-1.355468.082031-.265626-.800781c.625-.148438 1.878907-.527344 3.746094-1.140626.949219-.292968 1.839844-.59375 2.699219-.882812.863281-.300781 1.507813-.53125 1.941406-.710938l.273438.808594-.609375.316406c-.652344.328126-.976563.664063-.953125 1.011719.019531.351563.28125.832031.792969 1.449219l6.949218 8.328125.464844-10.914063c.007812-.398437 0-.722656-.027344-.972656-.015625-.253906-.105468-.433594-.246094-.539062-.148437-.105469-.375-.160156-.652343-.160156-.28125.003906-.695313.0625-1.210938.171874l-1.121093.21875-.273438-.804687c.273438-.054687.695312-.160156 1.304688-.347656.605468-.191407 1.375-.433594 2.289062-.730469 1.769531-.566406 2.835938-.941406 3.242188-1.132812zm0 0"/><path d="m182.992188 215.667969c.105468.433593.246093.894531.421874 1.363281.167969.484375.351563.945312.539063 1.398438.183594.453124.371094.894531.570313 1.320312.179687.429688.351562.792969.503906 1.09375-1.066406.539062-2.167969 1.109375-3.285156 1.710938-1.128907.601562-2.394532 1.289062-3.8125 2.050781-1.410157.777343-2.789063 1.539062-4.15625 2.285156-1.339844.742187-2.546876 1.421875-3.574219 2.027344l-.363281-.664063 1.640624-1.0625c.269532-.179687.421876-.347656.484376-.480468.070312-.148438-.003907-.414063-.210938-.792969l-6.585938-11.976563c-.214843-.414062-.417968-.65625-.601562-.777344-.183594-.117187-.402344-.125-.652344-.027343l-1.839844.777343-.378906-.695312c.714844-.347656 1.710938-.867188 2.976563-1.535156 1.261719-.6875 2.695312-1.457032 4.289062-2.332032 1.601563-.867187 2.898438-1.585937 3.925781-2.144531 1.011719-.566406 1.84375-1.050781 2.484376-1.449219.105468.273438.246093.589844.433593.945313.175781.363281.375.726563.570313 1.113281.210937.367188.414062.726563.625 1.074219.210937.351563.398437.652344.554687.902344l-.316406.175781c-.503906-.519531-.949219-.917969-1.320313-1.195312-.378906-.28125-.730468-.460938-1.058593-.558594-.316407-.09375-.617188-.113282-.898438-.058594-.273437.0625-.578125.175781-.878906.335938l-4.480469 2.441406c-.273437.148437-.417968.328125-.441406.546875-.007812.207031.078125.503906.300781.886719l2.769531 5.054687 3.847657-2.082031c.347656-.191406.617187-.40625.828125-.652344.195312-.238281.273437-.53125.203125-.886719l-.34375-1.980469.695312-.375c.988281 2.019532 2.078125 4.003907 3.269531 5.949219l-.484374.273438-1.734376-1.25c-.351562-.253907-.757812-.367188-1.199218-.308594-.449219.046875-.886719.1875-1.328125.425781l-3.25 1.777344 2.957031 5.390625c.203125.363281.40625.574219.609375.648437.21875.066407.539063-.019531.976563-.25l4.234374-2.308593c.363282-.203125.6875-.445313.980469-.734375.273438-.277344.511719-.648438.6875-1.082032.175781-.441406.296875-.992187.351563-1.652343.070312-.65625.058594-1.453125-.035156-2.398438zm0 0"/><path d="m187.519531 218.339844.613281-.691406c.398438-.386719.617188-.695313.660157-.9375.035156-.230469-.136719-.589844-.515625-1.0625l-7.820313-9.867188c-.183593-.21875-.34375-.40625-.492187-.566406-.144532-.164063-.308594-.261719-.476563-.308594-.167969-.042969-.363281-.042969-.574219.019531-.21875.0625-.5.195313-.816406.40625l-.503906.320313c-.09375-.109375-.183594-.230469-.28125-.335938-.097656-.097656-.183594-.214844-.273438-.332031l.679688-.539063c.265625-.210937.441406-.371093.519531-.460937.078125-.101563.230469-.234375.449219-.414063l3.273438-2.824218c.140624-.121094.28125-.230469.421874-.351563.132813-.109375.25-.222656.398438-.328125.78125-.617187 1.558594-1.132812 2.351562-1.582031.785157-.4375 1.558594-.738281 2.296876-.886719.75-.132812 1.460937-.097656 2.140624.113282.675782.214843 1.285157.65625 1.820313 1.339843.347656.441407.589844.875.722656 1.289063.109375.410156.167969.851562.132813 1.300781-.035156.441406-.132813.910156-.332032 1.382813-.175781.492187-.40625 1.015624-.679687 1.589843l5.53125 2.125c.828125.335938 1.511719.550781 2.015625.671875.507812.125.949219.171875 1.320312.132813.371094-.027344.722657-.125 1.03125-.289063.308594-.160156.6875-.371094 1.132813-.613281l.503906.644531c-.175781.117188-.34375.230469-.503906.363282-.171875.136718-.34375.265624-.542969.417968l-2.828125 2.230469c-.300781.230469-.570312.449219-.792969.636719-.234374.195312-.386718.328125-.464843.378906l-8.015625-3.527344c-.316406-.109375-.621094-.152344-.878906-.132812-.265626.015625-.535157.128906-.78125.332031l-.6875.535156 3.765624 4.757813c.273438.347656.554688.558594.820313.601562.273437.054688.625-.023437 1.054687-.210937l1.296876-.59375.511718.648437c-.554687.386719-1.148437.8125-1.761718 1.273438-.617188.460937-1.207032.921875-1.804688 1.378906-.574219.460938-1.152344.921875-1.683594 1.371094-.546875.460937-1.03125.871094-1.460937 1.25zm-.917969-10.699219c.777344-.566406 1.375-1.121094 1.796876-1.644531.40625-.53125.671874-1.035156.8125-1.503906.128906-.476563.128906-.9375-.003907-1.371094-.136719-.4375-.351562-.859375-.675781-1.265625-.730469-.929688-1.53125-1.46875-2.367188-1.621094-.839843-.148437-1.839843.230469-2.976562 1.125-.125.089844-.28125.21875-.457031.378906-.195313.152344-.34375.300781-.46875.417969zm0 0"/><path d="m201.75 188.988281c-1.09375-.671875-2.054688-.957031-2.890625-.867187-.828125.085937-1.628906.527344-2.378906 1.316406-.554688.574219-.886719 1.230469-.992188 1.945312-.113281.71875.09375 1.332032.640625 1.835938.328125.316406.679688.503906 1.050782.589844.375.074218.757812.0625 1.175781-.035156.417969-.097657.875-.253907 1.359375-.46875.5-.21875 1.027344-.453126 1.601562-.707032.863282-.382812 1.636719-.683594 2.316406-.894531.675782-.195313 1.304688-.292969 1.910157-.28125.589843.023437 1.171875.15625 1.726562.421875.570313.257812 1.132813.671875 1.734375 1.230469.640625.59375 1.089844 1.242187 1.371094 1.957031.273438.707031.398438 1.433594.328125 2.203125-.054687.753906-.265625 1.53125-.640625 2.308594-.378906.773437-.910156 1.523437-1.578125 2.238281-1.261719 1.328125-2.730469 2.234375-4.421875 2.71875l-3.070312-3.308594.4375-.453125c.476562.398438.996093.683594 1.570312.875.554688.179688 1.140625.257813 1.714844.230469.582031-.015625 1.152344-.148438 1.671875-.371094.519531-.230468 1.007812-.566406 1.425781-1 .328125-.34375.582031-.722656.804688-1.125.210937-.40625.351562-.8125.40625-1.210937.058593-.40625.03125-.804688-.089844-1.183594-.125-.382813-.34375-.726563-.671875-1.039063-.445313-.414062-.878907-.671874-1.300781-.777343-.414063-.105469-.855469-.113281-1.332032-.007813-.480468.113282-1.019531.300782-1.601562.558594-.589844.265625-1.265625.5625-2.023438.890625-.84375.371094-1.601562.621094-2.261718.746094-.660157.125-1.261719.15625-1.796876.078125-.53125-.070313-1.015624-.222656-1.453124-.46875-.433594-.246094-.828126-.53125-1.222657-.886719-.636719-.617187-1.058593-1.261719-1.269531-1.945313-.203125-.683593-.257812-1.378906-.132812-2.070312.105468-.707031.351562-1.371094.722656-2.027344.367187-.652344.792968-1.238281 1.292968-1.75 1.117188-1.179687 2.359376-1.894531 3.726563-2.132812l2.492187 2.492187zm0 0"/><path d="m214.535156 191.394531-11.246094-8.488281c-.265624-.195312-.476562-.292969-.644531-.289062-.164062 0-.339843.097656-.507812.296874l-1.289063 1.269532-.585937-.445313c.148437-.113281 1.371093-1.671875 3.660156-4.679687.679687-.886719 1.199219-1.609375 1.558594-2.167969l.609375.460937-.882813 1.566407c-.140625.226562-.203125.414062-.175781.5625.027344.152343.183594.335937.449219.535156l11.246093 8.492187c.273438.207032.476563.300782.605469.277344.132813-.019531.300781-.136718.484375-.339844l1.183594-1.335937.773438.574219c-.246094.277344-.601563.691406-1.046876 1.242187-.449218.554688-.996093 1.253907-1.65625 2.113281-.644531.851563-1.1875 1.574219-1.601562 2.144532-.40625.574218-.714844 1.03125-.910156 1.351562l-.773438-.585937.960938-1.503907c.140625-.246093.203125-.433593.183594-.566406-.007813-.121094-.148438-.289062-.394532-.484375"/><path d="m205.710938 176.046875c-.378907-.371094-.53125-.601563-.457032-.714844.070313-.105469.332032-.160156.757813-.160156.207031.007813.378906.007813.507812 0 .125-.023437.238281-.0625.328125-.125.097656-.078125.175782-.164063.269532-.28125.070312-.113281.160156-.265625.265624-.449219l5.390626-9.535156c.167968-.308594.304687-.5625.386718-.75.089844-.1875.132813-.363281.132813-.496094 0-.140625-.019531-.265625-.070313-.386718-.054687-.101563-.140625-.242188-.246094-.398438-.230468-.328125-.316406-.550781-.230468-.683594.113281-.210937.335937-.222656.660156-.035156l4.402344 2.539062c.132812.070313.230468.152344.273437.246094.042969.089844.035157.171875-.027343.222656-.078126.0625-.203126.089844-.378907.082032-.183593 0-.457031-.0625-.816406-.179688-.363281-.089844-.6875-.160156-.980469-.210937-.296875-.046875-.570312-.042969-.808594.035156-.246093.070313-.476562.210937-.714843.417969-.234375.21875-.472657.554687-.722657.996094l-1.414062 2.515624 11.972656 6.722657c.433594.242187.75.347656.980469.328125.210937-.023438.464844-.183594.722656-.476563l1.511719-1.6875.644531.367188c-.210937.300781-.496093.753906-.839843 1.339843-.34375.589844-.71875 1.230469-1.117188 1.9375l-1.617188 2.859376c-.382812.695312-.714843 1.289062-.996093 1.796874-.273438.503907-.433594.847657-.484375 1.007813l-.644532-.363281.714844-2.0625c.175782-.515625.21875-.914063.097656-1.179688-.125-.261718-.386718-.503906-.777343-.734375l-11.964844-6.699219-1.4375 2.558594c-.164063.242188-.269531.480469-.339844.710938-.0625.226562-.070312.496094-.019531.792968.042969.300782.140625.640626.308594 1.039063.148437.386719.371094.863281.652344 1.441406.199218.414063.296874.6875.308593.847657.023438.160156-.011719.242187-.109375.230468-.09375-.007812-.234375-.078125-.402344-.21875-.175781-.125-.371093-.277344-.574218-.460937zm0 0"/><path d="m233.5 156.589844.773438-1.390625.75.230469c-.363282 1.027343-.6875 1.988281-.96875 2.855468-.28125.871094-.511719 1.585938-.6875 2.144532-.167969.539062-.351563 1.132812-.546876 1.796874-.203124.664063-.375 1.292969-.535156 1.902344l-.695312-.230468.195312-1.742188c.042969-.320312.007813-.613281-.089844-.859375-.097656-.246094-.265624-.414063-.503906-.480469l-4.257812-1.332031c-.195313-.074219-.414063-.109375-.679688-.074219-.246094.027344-.53125.070313-.828125.140625l-8.222656 1.992188c-.671875.160156-1.199219.347656-1.558594.550781-.351562.210938-.574219.421875-.6875.652344l-.539062 1.132812-.75-.230468c.144531-.335938.53125-1.433594 1.128906-3.332032.132813-.445312.292969-.921875.441406-1.398437.160157-.488281.296875-.941407.414063-1.382813.132812-.433594.246094-.824218.335937-1.167968.101563-.351563.175781-.617188.210938-.804688l.757812.246094-.035156.972656c-.0625.507812.035156.808594.277344.886719.140625.042969.242187.027343.335937-.015625l7.917969-1.816406c-.792969-.910157-1.601563-1.8125-2.394531-2.714844-.792969-.894532-1.597656-1.808594-2.394532-2.734375-.167968-.179688-.308593-.320313-.453124-.417969-.136719-.089844-.269532-.148438-.402344-.195312-.28125-.089844-.546875.078124-.808594.496093l-.671875 1.179688-.757813-.230469c.113282-.152344.40625-1.011719.917969-2.621094.246094-.8125.449219-1.46875.589844-1.992187.148437-.511719.234375-.882813.261719-1.089844l.757812.234375-.070312.996094c-.007813.292968.070312.691406.265625 1.207031.175781.503906.582031 1.097656 1.207031 1.761719l4.675781 5.34375c.164063.210937.367188.378906.621094.519531.257813.144531.671875.300781 1.246094.480469l4.171875 1.308594c.535156.140624.957031-.113282 1.285156-.777344"/></g></svg>