<svg height="316.697993" viewBox="0 0 252 253" width="315.758237" xmlns="http://www.w3.org/2000/svg"><g fill="#007c36"><path d="m223.320312 93.734375c.359376-.28125.660157-.296875 1.054688-.359375.804688.171875 1.464844.40625 1.796875.488281.25.0625.375-.050781.375-.050781l-.863281-.59375.894531-.207031.882813.222656.660156.046875-.15625-.722656c-.203125-.113282-3.226563-1.996094-4.882813-.597656-.707031.453124-.503906 1.050781-.472656 1.492187.015625.203125-.109375.394531-.171875.488281-.015625.03125.566406.0625.882812-.207031zm0 0"/><path d="m232.453125 95.464844c.238281.21875 2.300781-1.132813 2.425781-2.167969.238282-.125.144532-.929687.09375-1.148437 0 0-.457031 0-.738281.28125-.472656.488281-.757813 1.210937-.992187 1.273437-.363282.269531-.945313.394531-.945313.394531.09375.441406.0625.941406.15625 1.367188zm0 0"/><path d="m231.429688 94.710938c.046874-.378907-.203126-.898438-.15625-1.273438.613281-.457031 1.449218-.644531 1.527343-2.074219-.929687.660157-1.765625 1.066407-2.425781 1.082031-.332031.535157-.597656 1.558594-1.324219 1.808594-.234375.078125-.140625.457032-.25.628906.363281.015626 1.007813-.328124 1.417969-.28125.410156.0625.847656.234376 1.210938.109376zm0 0"/><path d="m236.691406 100.054688c.347656.609374 1.085938.972656 1.433594 1.585937-1.574219-.046875-2.914062-1.210937-5.214844-1.621094.253906-.25.457032-.65625.710938-.910156.234375.1875.34375.769531.582031.960937.535156.109376 1.070313-.191406 1.273437-1.039062.347657-.265625.757813-.722656 1.007813-1.085938.742187.394532 1.59375.773438 2.332031 1.164063.757813-1.210937 1.039063-1.871094 1.386719-2.578125-.472656-.015625-1.054687.015625-1.433594.410156-.820312.03125-1.417969-.125-1.890625-.394531-.09375-1.035156-.28125-1.726563-.628906-2.089844l-.675781.316407c.0625.457031.140625.910156.203125 1.367187l-1.449219-1.070313c-.363281-.375-.078125.753907.0625 1.574219l.726563.578125-.664063.410156c-.203125-.140624-.441406-.28125-.644531-.425781.140625-.546875.1875-1.585937-.140625-1.398437-.347657.0625-.597657.835937-.945313.898437-.679687-.347656-1.386718-.835937-2.046875-1.164062.441407.535156.878907 1.070312 1.320313 1.617187-.015625.175782-.03125.347656-.046875.519532.0625.753906.804687.691406 1.308593.613281-.203124.410156-.742187.785156-.945312 1.195312-.757812-.882812-1.261719-1.746093-2-2.625-.09375-.644531-.1875-1.257812-.300781-1.902343-.078125-.046876-.753907.0625-.535157.457031-.125.738281-.046874.878906-.28125 1.335937-.191406.046875 4.519532 4.367188 4.550782 6.613282.046875.613281-1.070313-.328126-1.070313-.328126-1.308593-1.554687-2-2.4375-3.308593-3.992187-.503907-1.210937-1.828126-2.671875-3.195313-2.402344-.441406.421875-.851563 1.019531-.664063 2.152344.644532.675781 1.292969.738281 1.9375 1.429687-.378906.4375-.835937.078126-2.691406.25 0-.015624-2.066406-2.277343-2.441406-3.472656-.160156-.800781-.046875-.988281-.046875-.988281l-.710937-.078125c-.203126-.015625-1.023438 1.160156-1.023438 1.789062 0 .269532.332031.550782.742188.707032 1.117187.457031 2.25 2.246094 2.171874 2.359375 0 0-1.261718.863281-3.085937 1.238281-1.199219.347656-1.609375.566406-1.953125-.894531-.804688-1.351563 1.289062-4.714844 1.023438-4.636719l-.679688.222656c-.769531 1.523438-1.542969 2.890625-1.480469 4.007813.316407 1.035156.050781 1.222656.050781 1.523437 0 .5 0 .582032.375.925782.804688.28125 1.433594.347656 2.128907.140624 1.496093-.203124 2.832031-.972656 4.25-1.523437.191406.425781.378906.863281.566406 1.289063-.078125-.265626-.375-.394532-.925781-.457032.234375.394532.359375.503906.597656.882813.046875.09375.394531.453125.296875.816406-.25 1.003906.160156.816406.300781.941406.425782.03125.597656.140625 1.179688-.078125.046875-.25.316406-.675781.222656-1.101562-.222656-1.035156-.519531-1.914063-.960938-2.574219.976563.234375 1.90625.21875 2.882813.453125.882813-.515625.832031-.738281 1.242187-1.144531-.976562-1.683594-1.371093-1.808594-1.90625-2.121094.222657 0 .316407-.082031.535157-.082031 1.578125 1.808594 3.074219 3.554687 4.601562 5.359375.28125.332031.503907.722656.800781 1.054687.503907-.125 1.214844-.222656 1.71875-.332031-.1875-1.019531-.425781-1.851563-.726562-1.585937-.109375-.613282-.359375-1.335938-.847656-1.871094 1.386718.597656 2.914062 1.117187 3.339844 1.714844 1.242187.613281 1.933593.09375 2.40625-1.179688-1.335938-1.523438-2.738282-2.292969-2.707032-1.726562zm0 0"/><path d="m126.234375 219.449219c51.550781 0 93.367187-41.71875 93.367187-93.152344s-41.816406-93.15625-93.367187-93.15625c-51.546875 0-93.363281 41.722656-93.363281 93.15625s41.800781 93.152344 93.363281 93.152344zm-.046875-182.773438c49.582031 0 89.777344 40.105469 89.777344 89.574219 0 49.453125-40.195313 89.570312-89.777344 89.570312-49.5625 0-89.773438-40.101562-89.773438-89.570312s40.195313-89.574219 89.773438-89.574219zm0 0"/><path d="m151.910156 197.292969c.628906-.363281 1.101563-.753907 1.382813-1.132813.394531-.515625.601562-1.097656.601562-1.695312 0-1.039063-.488281-1.902344-1.480469-2.59375-.992187-.691406-2.519531-1.019532-4.585937-1.019532-1.558594 0-2.816406.28125-3.761719.816407-1.214844.722656-1.828125 1.632812-1.828125 2.765625 0 .691406.21875 1.289062.628907 1.820312.316406.394532.804687.742188 1.480468 1.054688-.882812.296875-1.527344.722656-1.953125 1.273437s-.628906 1.210938-.628906 2.011719.21875 1.539062.675781 2.183594c.457032.660156 1.105469 1.148437 1.96875 1.492187.867188.332031 2.128906.503907 3.75.503907.882813 0 1.699219-.078126 2.472656-.21875.773438-.144532 1.417969-.378907 1.9375-.707032.519532-.316406.945313-.773437 1.308594-1.351562.359375-.582032.535156-1.210938.535156-1.886719 0-.707031-.207031-1.335937-.617187-1.902344-.4375-.597656-1.054687-1.070312-1.886719-1.414062zm-5.152344-3.738281c.332032-.285157.757813-.425782 1.277344-.425782.519532 0 .929688.140625 1.257813.441406.332031.28125.503906.675782.503906 1.128907 0 .457031-.15625.816406-.472656 1.101562-.3125.28125-.722657.421875-1.210938.421875-.550781 0-.992187-.140625-1.339843-.421875-.328126-.285156-.503907-.660156-.503907-1.132812 0-.472657.160157-.832031.488281-1.113281zm2.710938 8.328124c-.410156.390626-.867188.578126-1.386719.578126-.535156 0-1.007812-.1875-1.433593-.5625-.410157-.378907-.613282-.867188-.613282-1.460938 0-.628906.203125-1.117188.597656-1.496094.394532-.359375.867188-.546875 1.402344-.546875s1.023438.1875 1.433594.5625c.410156.378907.613281.867188.613281 1.464844 0 .59375-.203125 1.082031-.613281 1.460937zm0 0"/><path d="m102.816406 192.972656c-.804687.566406-1.9375 1.066406-3.402344 1.476563v3.0625c.992188-.265625 1.8125-.53125 2.472657-.832031.660156-.28125 1.339843-.660157 2.046875-1.132813v8.957031h4.347656v-13.683594h-3.558594c-.457031.863282-1.085937 1.585938-1.90625 2.152344zm0 0"/><path d="m136.882812 191.542969c-.945312-.457031-2.171874-.691407-3.730468-.691407-1.292969 0-2.363282.1875-3.199219.5625-.851563.378907-1.511719.929688-2 1.667969s-.726563 1.539063-.726563 2.433594c0 1.304687.472657 2.390625 1.433594 3.253906.945313.847657 2.128906 1.289063 3.515625 1.289063.707031 0 1.335938-.109375 1.871094-.3125.535156-.222656 1.074219-.550782 1.578125-1.007813-.144531 1.445313-.363281 2.390625-.632812 2.84375-.375.597657-.929688.914063-1.605469.914063-.378907 0-.707031-.113282-.976563-.332032-.269531-.203124-.457031-.582031-.566406-1.101562l-4.269531.472656c.253906.722656.613281 1.320313 1.085937 1.792969.472656.484375 1.058594.832031 1.765625 1.082031.707031.253906 1.683594.363282 2.914063.363282 2.078125 0 3.714844-.566407 4.882812-1.699219 1.179688-1.128907 1.761719-2.90625 1.761719-5.339844 0-1.652344-.28125-2.988281-.832031-3.992187-.597656-1.007813-1.339844-1.746094-2.269532-2.199219zm-2.03125 5.609375c-.394531.390625-.898437.582031-1.511718.582031-.582032 0-1.070313-.207031-1.464844-.597656-.394531-.394531-.582031-.976563-.582031-1.730469s.1875-1.304688.566406-1.679688c.378906-.378906.851563-.566406 1.417969-.566406.597656 0 1.117187.203125 1.542968.628906.425782.40625.628907.988282.628907 1.710938s-.203125 1.273438-.597657 1.652344zm0 0"/><path d="m123.085938 197.292969c.628906-.363281 1.101562-.753907 1.386718-1.132813.394532-.515625.582032-1.097656.582032-1.695312 0-1.039063-.488282-1.902344-1.480469-2.59375-.992188-.691406-2.519531-1.019532-4.582031-1.019532-1.558594 0-2.820313.28125-3.765626.816407-1.210937.722656-1.828124 1.632812-1.828124 2.765625 0 .691406.222656 1.289062.632812 1.820312.3125.394532.800781.742188 1.480469 1.054688-.882813.296875-1.527344.722656-1.953125 1.273437-.425782.550781-.632813 1.210938-.632813 2.011719s.222657 1.539062.679688 2.183594c.457031.660156 1.101562 1.148437 1.96875 1.492187.867187.332031 2.109375.503907 3.746093.503907.882813 0 1.703126-.078126 2.472657-.21875.773437-.144532 1.417969-.378907 1.9375-.707032.519531-.316406.945312-.773437 1.308593-1.351562.363282-.582032.535157-1.210938.535157-1.886719 0-.707031-.203125-1.335937-.613281-1.902344-.410157-.597656-1.039063-1.070312-1.875-1.414062zm-5.132813-3.738281c.328125-.285157.753906-.425782 1.273437-.425782.519532 0 .929688.140625 1.277344.441406.332032.28125.488282.675782.488282 1.128907 0 .457031-.15625.816406-.472657 1.101562-.316406.28125-.726562.421875-1.214843.421875-.550782 0-1.007813-.140625-1.335938-.421875-.332031-.285156-.503906-.660156-.503906-1.132812 0-.472657.15625-.832031.488281-1.113281zm2.707031 8.328124c-.410156.390626-.867187.578126-1.386718.578126-.535157 0-1.007813-.1875-1.433594-.5625-.40625-.378907-.613282-.867188-.613282-1.460938 0-.628906.207032-1.117188.597657-1.496094.394531-.359375.867187-.546875 1.402343-.546875.535157 0 1.023438.1875 1.433594.5625.410156.378907.613282.867188.613282 1.464844-.015626.59375-.21875 1.082031-.613282 1.460937zm0 0"/><path d="m190.292969 57.515625c.359375.09375 1.257812 1.128906 3.402343.28125.769532-.296875 1.824219-1.035156 3.652344-2.152344 1.371094-.800781.566406 1.035157.347656 2.089844-.332031 1.398437-.992187 2.859375-1.324218 4.257813.0625 1.007812.378906 1.949218 1.386718 3.457031 2.851563.269531 4.363282-.09375 5.179688-.769531-.28125-.816407-1.683594-.628907-3.007812-1.902344-1.195313-1.257813-.550782-5.984375-1.511719-7.007813-.457031-.738281.644531-1.066406.835937-1.257812 0 0 .945313-.910157 1.117188-.769531.0625.046874.269531-.0625.332031-.046876 1.273437-.234374 4.582031 1.195313 4.660156 1.117188.820313-.285156 1.640625-1.558594 1.859375-2.59375-.472656-.582031-.15625-2.199219-.316406-3.066406.347656-.15625.820312-.691406 1.546875-1.097656.328125-.1875.566406-.285157.894531-.457032.332032-.1875 1.039063.125 1.984375-.941406-.328125-.847656-.519531-1.824219-.863281-2.640625-.113281-.265625-.410156-.363281-.519531-.644531.015625.203125-2.285157 2.59375-5.183594 4.996094-.644531.550781-2.789063 2.011718-4.441406 3.082031-1.101563-.347657-2.773438-1.289063-3.054688-1.570313-.160156-.410156-.535156-.929687-.679687-1.335937-.28125-.113281-.3125.03125-.597656.359375-.078126 1.304687.363281 2.515625.835937 3.378906.15625-.03125.25-.171875.394531-.125.410156.15625 1.085938.390625 1.480469.675781-.128906-.125-4.472656 3.878907-7.859375 3.488281-1.542969-.332031-2.503906-.941406-3.089844-1.445312-.078125-.015625-.0625.234375-.125.25-.3125.140625 1.449219 1.714844 2.664063 2.390625zm16.285156-8.203125c.25.597656-.0625 1.632812-.425781 2.402344-.191406.410156-.851563.976562-1.101563 1.210937-.945312.1875-1.890625-.363281-2.820312-.613281 1.339843-1.035156 3.605469-2.355469 4.347656-3zm0 0"/><path d="m19.890625 99.832031s-.707031.363281-.519531.898438c.601562.15625 1.625.484375 1.625.484375l.40625.691406s.300781-.3125.585937-.453125c.472657.046875.691407.15625.691407.15625l.597656-1.589844s-.25-.046875-.613282-.21875c-.347656-.171875-.332031-.628906-.332031-.628906l1.167969.285156s.691406 3.738281-.109375 5.828125c-.632813 1.070313.015625.800782.109375.976563.457031-.207031 1.921875-1.039063 1.921875-1.039063s.472656-.375-.097656-1.179687c-.375-.09375-1.117188-3.628907-.785157-4.289063.347657-.078125 1.085938.285156 1.117188.171875.03125-.109375 1.464844 3.617188 1.511719 4.542969s1.703125.785156 2.109375-.394531c.394531-1.160157-.171875-.738281-.296875-1.414063-.140625-.675781-.253907-1.273437-.03125-1.898437.03125-.113281 4.960937 1.066406 6.707031 1.066406.238281-.457031.503906-.613281-1.164062-1.414063-.945313-.488281-5.324219-1.539062-5.652344-1.617187 0 0-.394532-.410156.34375-2.234375.09375-.925781-1.148438-.722656-1.148438-.722656l-1.875 1.195312c-.265625.550782-1.480468-1.871094-1.574218-5.375-.378907-1.019531-2.109376.929688-1.84375 1.414063.503906.503906.742187 2.121093.742187 2.121093v2.074219l-2.898437-.769531c-.191407-.40625-.125-.125-.710938-.328125l-.753906.457031-.285156-.347656-.140626-.472656s.644532-.722656 1.449219-.4375c.109375.046875-.140625.234375-.03125.359375.425781.347656.566407.191406 1.070313-.21875.675781-.09375 1.070312 1.382812 1.621094 1.117187-.441407-1.574218-.28125-.914062-.945313-2.027344l-.847656-1.023437-.207031-.691406c-.09375-.296875-.109376-.597657-1.070313-.707031-.046875.25-.675781.441406-.28125.847656l.203125.597656c-.394531.140625-1.324219.410156-1.433594 1.320312-.410156-.15625-1.085937-.613281-.820312-2.417968-.171875-1.164063-.910156-.898438-.910156-.898438s-1.640626-.4375-1.78125.078125c-.140626.519531.425781 1.382813.425781 1.382813l1.527343 2.011718-.316406 1.429688c-.425781-.09375-.410156-.5-.675781-.738281-1.230469-.203125-1.921875-.894531-3.90625 1.164062.234375.046875-.207031.441407 1.179687.613281.992188-.1875 2.710938.34375 3.230469.628907-.046875 1.226562-1.214843 1.710937-.15625 1.679687 1.054688-.03125 1.621094-.832031 1.621094-.832031l-.316406-1.507813.332031-1.636718.929688 1.007812s-.613282.785156-.441407 1.320313c.03125.28125 1.324219.09375 1.890625.488281-.160156-.015625-.160156.800781-.144531 1.113281zm7.355469-1.851562c.175781.078125.300781.359375.316406.546875-.171875-.09375-.722656-.140625-.851562-.25.238281-.078125.363281-.363282.535156-.296875zm.550781 2.558593c.082031 1.304688.128906 1.902344.082031 2.359376-.046875.453124-.144531.515624-.144531.515624-.390625-.675781-.691406-1.367187-.976563-2.371093l-.140624-.660157c-.171876-.234374.804687.078126 1.179687.15625zm-3.179687-4.382812.582031 1.679688c-.3125-.03125-.613281-.109376-.800781-.234376.046874-.613281.109374-1.761718.21875-1.445312zm0 0"/><path d="m146.269531 33.347656c-.046875-.050781.742188-.144531 1.183594-.613281.25-.410156 1.273437-.867187 2.628906-1.273437-.222656.707031-.488281 1.476562-.757812 2.042968-.34375.25-.25.421875-.328125.738282.21875.613281.21875.644531.644531 1.210937.03125.078125 1.132813.546875 1.324219.546875.234375 0 .234375-.375.25-.578125-.046875-.175781-.296875.15625.03125-1.179687.253906-1.007813.488281-2.261719.835937-3.207032 1.324219-.644531 2.644531-.0625 2.394531.15625-.125 1.226563-.550781 1.460938-.914062 2.042969.628906.285156 1.449219.457031 2.15625.347656 0 0 1.105469-.644531.285156-2.3125-.691406-1.617187-3.621094-1.128906-3.621094-1.128906.140626-.597656.566407-1.871094.832032-2.4375.773437-.375 1.496094-.597656 2.269531-.972656.03125-.378907.300781-.847657.078125-1.117188.078125-1.097656.269531-1.789062.300781-2.371093-.046875-.378907-.269531-.613282-.394531-.863282-.285156-.410156-1.023438.203125-1.542969.660156-.582031 1.507813-.867187 2.230469-1.449219 3.722657-.757812.328125-1.574218.535156-2.394531.769531-.0625-.09375.410157-.644531 1.78125-.925781.421875-.109375.550781-.800781.597657-1.039063-.253907-.234375-.332032-.21875-.789063-.28125-.109375-.140625.441406-.253906.550781-.300781.550782-.234375.566406-.546875.535156-.925781-.328124-.410156-.800781-.785156-1.464843-1.679688-.234375-.015625-.597657.328125-.613281.722656-.015626.515626.300781 1.128907.597656 1.351563-.203125.359375-.457032.46875-1.007813.546875-.644531 1.730469.300781.929688.457031 1.335938-.25.285156-.738281.613281-1.195312.816406-.269531-.046875-.773438-.359375-1.101562-.21875-.097657.832031.0625.894531.265624 1.699218.171876.140626.945313.4375 1.148438.375.632812-.15625.929688-.675781 1.625-.816406-.285156.785156-.617188 1.460938-.898438 2.246094-1.085937.269531-2.140624.519531-3.386718 1.039062-.457032.078126-1.148438-.378906-2.316406-1.148437 0 .488281-.21875.878906-.015626 1.304687.222657.171876 1.023438 1.746094 1.417969 1.714844zm8.347657-9.980468c.125-.0625.207031-.15625.332031-.203126.0625.015626.15625.0625.21875.078126.191406.421874.128906.894531.046875 1.445312-.171875.472656-.1875.972656-.359375 1.460938-.300781.109374-.710938.363281-.992188.378906-.128906-.066406-.144531-.097656-.269531-.160156.269531-1.035157.613281-2.027344 1.023438-3zm0 0"/><path d="m147.355469 21.78125c.191406.078125.425781-.09375.882812-.128906.835938-.0625 2.300781-.078125 3.890625-.078125 1.71875-.109375 3.511719-.25 5.101563 0 .144531.222656-.390625.222656-.1875.613281.566406-.296875 1.636719-.171875 2.976562.207031.253907.0625.550781-.269531.914063-.644531.140625-.566406.203125-.769531-.457032-1.558594-.425781-.09375-.550781-.09375-.976562-.1875-.316406.09375-.171875.316406-.457031.347656-1.464844.203126-2.707031.296876-4.125.1875.675781-.347656 1.589843-.863281 2.472656-1.085937 1.355469-.359375 2.660156-.691406 4.015625-1.050781.300781-.691406.488281-1.257813.628906-1.996094-.488281-.234375-.976562-.472656-1.464844-.707031-1.117187.472656-1.859374.550781-2.867187.878906-.582031-.203125-1.148437-.472656-1.714844-.675781-.015625.691406-.0625 1.460937.300781 1.933594.957032.34375 1.007813.046874 1.667969-.488282.566407-.453125 1.464844-.738281 2.0625-1.175781.695313.09375.300781.640625.171875.800781-.769531.847656-2.328125 1.398438-3.886718 1.964844-.585938.53125-1.277344.847656-1.953126 1.066406 0-.359375.457032-1.367187.457032-1.726562.09375.09375.925781-3.222656 2.125-3.539063.660156-.988281-.472656-1.882812-.472656-1.882812.332031-.488281-1.101563.878906-2.175782 4.085937-.140625.675782-1.511718-.160156-1.382812.03125l-.269532-.503906c-.378906-.25-.820312-.296875-.804687.394531l.050781.832031c.0625 1.382813.722656 1.382813 1.351563 1.113282.175781-.078125.160156-.644532.332031-.707032.125-.046874.332031-.03125.363281-.015624-.0625.425781-.550781 1.148437-.617187 1.589843-.125.09375-.25.1875-.359375.296875.046875.25.109375.488282.15625.738282-1.621094.078124-2.203125.472656-5.496094.09375-.457031-.171876-1.117187-.484376-1.574219-.660157-.316406-.0625-.09375.769531 1.320313 1.636719zm0 0"/><path d="m94.640625 19.578125c.503906-.09375.695313 0 1.070313.144531.097656.234375-.015626.296875.082031.53125 1.007812-.203125 1.085937-.375.976562-1.570312.328125-.09375.503907-.472656.832031-.582032.207032-.203124-.628906 4.148438-.800781 4.953126-.144531.769531.234375 1.144531.960938.832031l-1.007813 4.445312s-4.050781 6.617188-2.789062 8.753907c.519531.265624 1.007812-.488282 1.007812-.488282.410156-.675781.914063-2.042968 1.292969-3.441406.628906-2.324219 1.242187-3.644531 1.652344-5.578125 1.039062-1.226563 2.332031-2.65625 3.386719-3.15625.03125 1.144531-.628907 1.960937-1.101563 2.652344-.570313-.140625-1.261719-.046875-1.78125.160156-.140625 1.398437-.21875 2.921875-.0625 4.585937.046875.519532.015625 1.382813-.125 1.507813-.207031.160156.09375.773437.125 1.226563.140625.644531.535156 1.054687 1.179687 1.195312.488282-.265625.914063-.472656.851563-1.886719.25-.988281.582031-1.789062.960937-2.292969.960938.644532 1.417969 1.226563 1.652344 1.808594.078125.1875 2.082032-.535156 1.828125-1.808594-.960937-.125-2.394531-.171874-2.820312-.691406.820312-.1875 1.496093-.722656 1.984375-1.273437-.234375-.425781-1.070313-.972657-1.464844-1.085938-.535156.960938-1.101562 1.320313-2.816406 1.558594.09375.328125.28125.800781.234375 1.144531.238281.113282.503906.191406.742187.300782-.160156.503906-.585937.894531-.820312 1.398437-.535156-1.523437-.410156-2.703125-.597656-4.824219.472656-.203125.722656 0 .992187.40625.488281-.515625 1.132813-.957031 1.386719-1.207031.3125-.738281 1.210937-1.964844 1.242187-2.71875-.394531-.597656-.835937-1.101563-1.667969-1.335937-.410156.40625-.710937.503906-1.121093.910156l-1.289063 1.523437c.25-1.367187.644532-2.84375 1.335938-4.335937-.28125-.1875-.738282-.472656-.957032-.3125-.175781.1875-.207031.421875-.378906.609375-.300781-.390625-.285156-.816407.015625-1.207031.472657.234374.960938.40625 1.449219.203124.929688-1.777343 2.140625-3.550781 3.257812-5.5-.40625-.566406-.707031-.847656-1.683593-.832031-.675781.25-1.230469.550781-1.84375 1.210938-.03125-.222657-.078125-.394531-.03125-.582031.078125-.410157.363281-.707032.300781-1.460938-.773438-1.304688-1.480469-1.730469-1.921875-1.902344-.710937.832032-1.054687 1.820313-1.230469 2.875.664063.988282.394532 1.554688.566406 2.261719-.15625.253906-.785156.613281-1.226562.992187-.722656.03125-.757812-.882812-1.652344-1.070312-.441406.628906.109375 1.445312.09375 2.089844-.503906.140625-.425781.488281-.269531.863281zm-.21875 15.777344c-.125-.988281 1.683594-4.164063 1.683594-4.164063s-.992188 5.785156-1.683594 4.164063zm4.898437-18.117188c.34375-.359375 1.621094-.925781 1.621094-.925781-.394531.894531-.628906 1.757812-1.683594 2.75-.097656 0 .078126-1.039062.0625-1.824219zm0 0"/><path d="m93.726562 22.410156c.554688.421875 1.402344 1.128906 1.480469 1.285156.082031.160157 1.5625-.390624.539063-2.152343-1.027344-1.757813-1.875-2.105469-1.875-2.105469l-1.277344.140625c.441406 1.667969 1.246094 1.351563 1.132812 2.832031zm0 0"/><path d="m49.597656 53.726562c-.613281.613282-2.253906.300782-2 .675782.234375.378906.832032.753906 1.683594.832031.472656.0625 1.480469.332031 2.078125-.03125.316406-.359375.425781-.722656.316406-1.066406-.140625-.425781-.171875-1.507813.203125-1.792969 1.71875 2.136719 3.480469 3.582031 5.167969 5.609375l.109375.628906c1.765625 1.351563 3.132812 2.28125 3.070312 1.636719.316407-.851562-1.070312-3.472656-1.761718-3.632812-.710938-.925782-2.09375-2.449219-3.640625-4.195313-.3125-.46875.773437-2.90625.976562-3.316406l-.550781-.816407c.238281-2.402343.457031-3.332031.882812-4.777343l-.347656-.5c-.457031-.144531-.863281-.253907-1.210937-.191407l-.535157.644532c-.789062 1.054687-2.238281 3.457031-2.695312 4.621094-3.101562-3.773438-2.691406-3.992188-3.304688-5.546876-.472656-.785156-3.765624-.976562-3.765624-.394531 0 .785157 1.9375 3.410157 6.171874 8.550781-.453124 2.542969-.894531 2.984376-.847656 3.0625zm4.660156-8.832031c.441407-.09375-.21875 1.460938-.140624 3.648438l-.660157.453125c.28125.613281.328125 1.429687.21875 2.105468-.457031-.53125-.882812-1.035156-1.292969-1.601562.394532-1.617188.945313-3.128906 1.875-4.605469zm0 0"/><path d="m126.234375 6.269531c-66.429687 0-120.296875 53.742188-120.296875 120.027344 0 66.28125 53.867188 120.023437 120.296875 120.023437 66.433594 0 120.300781-53.742187 120.300781-120.023437 0-66.285156-53.882812-120.027344-120.300781-120.027344zm-.046875 238.214844c-65.441406 0-118.5-52.941406-118.5-118.234375s53.058594-118.234375 118.5-118.234375 118.503906 52.941406 118.503906 118.234375c0 65.277344-53.0625 118.234375-118.503906 118.234375zm0 0"/><path d="m126.1875.847656c-69.394531 0-125.683594 56.148438-125.683594 125.402344 0 69.234375 56.273438 125.398438 125.683594 125.398438 69.394531 0 125.6875-56.164063 125.6875-125.398438 0-69.253906-56.292969-125.402344-125.6875-125.402344zm.046875 247.25c-67.40625 0-122.09375-54.542968-122.09375-121.816406s54.667969-121.800781 122.09375-121.800781 122.097656 54.542969 122.097656 121.816406-54.6875 121.800781-122.097656 121.800781zm0 0"/><path d="m82.402344 161.417969c.03125-.0625.066406-.125.097656-.1875.457031-.898438.945312-1.761719 1.351562-2.671875.082032-.160156.144532-.332032.222657-.503906 3.132812-7.039063 7.875-21.90625 10.09375-27.925782 4.015625-9.679687 9.484375-13.292968 11.292969-14.441406.363281-.234375.710937-.484375 1.070312-.738281 6.285156-4.382813 14.351562-5.058594 16.980469-5.246094h.0625c.316406-.03125.644531-.097656.945312-.222656 2.628907-1.128907-.820312-1.964844-2.15625-2.121094-11.089843-1.257813-22.746093-2.765625-24.066406-16.71875-.207031-2.246094-.0625-4.527344-.160156-6.773437-.125-3.113282-.40625-6.554688-.582031-7.148438-2.550782-9.335938-11.417969-5.894531-11.71875-5.234375.03125-.15625-2.171876 1.445313-1.367188 5.074219.910156 9.902344-1.734375 36.945312-3.230469 47.191406-.378906 2.5625-.835937 5.136719-1.324219 7.855469-2.125 11.929687-5.96875 26.101562-6.441406 27.628906-4.628906 15.476563-9.386718 24.136719-11.449218 25.660156 8.144531.910157 17.371093-17.585937 20.378906-23.476562zm0 0"/><path d="m105.746094 78.179688c-.191406 1.964843-.660156 3.847656-.867188 5.796874-.535156 5.234376 1.230469 7.9375 1.386719 8.707032 5.417969 11.878906 17.859375 11.957031 19.890625 11.894531 2.03125.0625 14.476562 0 19.894531-11.894531.15625-.769532 1.921875-3.472656 1.386719-8.707032-.207031-1.949218-.679688-3.832031-.867188-5.796874-2.835937-28.789063 14.300782-31.003907 14.300782-31.003907s-5.921875-5.109375-17.324219 2.90625c-6.804687 5.074219-7.449219 14.332031-7.609375 17.222657-.03125.566406-.03125 1.050781-.03125 1.617187.078125 3.175781.550781 14.285156-9.734375 14.960937-10.300781-.675781-9.8125-11.769531-9.746094-14.960937.015625-.566406 0-1.066406-.035156-1.617187-.15625-2.890626-.800781-12.148438-7.605469-17.222657-11.402344-8.015625-17.324218-2.90625-17.324218-2.90625s17.121093 2.230469 14.285156 31.003907zm0 0"/><path d="m161.941406 172.558594c-.234375-.328125-.472656-.644532-.691406-.957032-.914062-1.242187-1.71875-2.5-2.425781-3.867187-1.277344-2.453125-2.960938-6.113281-4.238281-10.027344-.15625-.628906-2.03125-6.675781-3.148438-11.4375-.238281-1.039062-.441406-2.089843-.695312-3.144531-.644532-2.765625-2.046876-8.265625-3.859376-13.214844-.0625-.25-1.605468-4.117187-3.320312-6.539062-.535156-.753906-1.183594-1.476563-1.8125-2.167969-2.203125-2.417969-7.417969-7.242187-15.386719-7.195313 0-.046874 0-.046874 0 0-.078125 0-.175781 0-.253906 0-.09375 0-.171875 0-.25 0 0-.046874 0-.046874 0 0-7.96875-.0625-13.183594 4.761719-15.390625 7.195313-.628906.691406-1.273438 1.414063-1.808594 2.167969-1.71875 2.4375-3.261718 6.304687-3.324218 6.539062-1.796876 4.949219-3.214844 10.449219-3.859376 13.214844-.25 1.039062-.441406 2.089844-.691406 3.144531-1.121094 4.761719-2.976562 10.808594-3.136718 11.4375-1.273438 3.914063-2.945313 7.574219-4.234376 10.027344-.710937 1.367187-1.511718 2.625-2.425781 3.867187-.238281.3125-.472656.644532-.695312.957032-3.039063 4.273437-11.667969 15.023437-27.546875 13.386718.394531.175782 4.964844 5.375 13.484375 6.019532 7.386719.363281 12.363281-1.835938 12.835937-1.867188 6.125-1.699218 11.449219-7.277344 11.6875-7.527344 4.785156-4.589843 8.753906-6.476562 8.851563-6.585937 2.15625-1.632813 7.449219-3.175781 7.777343-3.207031 3.8125-1.097656 7.214844-1.082032 8.460938-1.035156v.03125s.09375 0 .25-.015626c.160156.015626.253906.015626.253906.015626v-.03125c1.242188-.0625 4.644532-.0625 8.457032 1.035156.332031.03125 5.636718 1.574218 7.78125 3.207031.09375.125 4.0625 1.996094 8.851562 6.585937.234375.234376 5.574219 5.828126 11.683594 7.527344.488281.03125 5.449218 2.230469 12.855468 1.867188 8.503907-.628906 13.085938-5.828125 13.480469-6.019532-15.84375 1.621094-24.476562-9.113281-27.515625-13.386718zm-35.546875-19.453125c0-.015625 0-.046875 0-.046875-.078125.015625-.175781.015625-.253906.015625s-.171875-.015625-.25-.015625v.046875c-10.003906 1.003906-15.453125 6.992187-15.371094 6.597656 1.382813-13.058594 5.117188-18.433594 5.117188-18.433594s3.589843-6.992187 10.503906-7.621093c6.898437.628906 10.507813 7.621093 10.507813 7.621093s3.730468 5.375 5.117187 18.433594c.078125.378906-5.371094-5.609375-15.371094-6.597656zm0 0"/><path d="m154.742188 76.703125c-.171876.609375-.457032 4.035156-.582032 7.148437-.09375 2.246094.046875 4.527344-.15625 6.773438-1.324218 13.953125-12.996094 15.460938-24.066406 16.71875-1.339844.15625-4.789062.992188-2.15625 2.121094.296875.125.613281.207031.945312.222656h.0625c2.613282.203125 10.675782.863281 16.976563 5.246094.363281.253906.695313.503906 1.070313.738281 1.8125 1.148437 7.292968 4.761719 11.292968 14.441406 2.222656 6.019531 6.960938 20.886719 10.097656 27.925781.078126.171876.140626.328126.21875.503907.425782.910156.914063 1.773437 1.371094 2.667969.03125.066406.0625.128906.09375.191406 2.992188 5.890625 12.222656 24.386718 20.382813 23.460937-2.066407-1.507812-6.820313-10.183593-11.453125-25.660156-.457032-1.527344-4.3125-15.714844-6.441406-27.628906-.488282-2.71875-.945313-5.292969-1.320313-7.855469-1.511719-10.261719-4.144531-37.289062-3.230469-47.191406.820313-3.628906-1.386718-5.230469-1.371094-5.074219-.3125-.644531-9.179687-4.085937-11.734374 5.25zm0 0"/><path d="m162.019531 222.214844-.109375 10.308594-2-2.277344c-.09375-.125-.285156-.285156-.550781-.472656-.269531-.203126-.457031-.3125-.582031-.359376-.191406-.078124-.457032-.125-.820313-.144531.394531-.203125.691407-.421875.898438-.640625.3125-.347656.535156-.726562.644531-1.164062.109375-.441406.109375-.925782-.03125-1.445313-.15625-.597656-.425781-1.070312-.820312-1.398437-.390626-.347656-.832032-.519532-1.335938-.550782s-1.183594.078126-2.066406.3125l-4.691406 1.304688 2.441406 9.414062 2.835937-.785156-.992187-3.820312.25-.0625c.253906-.078125.503906-.0625.742187.03125.171875.0625.40625.269531.691407.582031l2.253906 2.453125 3.117187-.867188.046875-.015624h.015625l2.726563-1.019532-.097656-1.683594 3.121093-1.175781.976563 1.351563 2.867187-1.070313-6.570312-7.902343zm-5.339843 5.390625c-.078126.1875-.203126.332031-.375.425781-.347657.1875-.585938.296875-.710938.328125l-1.179688.332031-.503906-1.917968 1.226563-.347657c.519531-.140625.882812-.15625 1.117187-.046875.238282.109375.378906.316406.457032.628906.046874.222657.046874.410157-.03125.597657zm7.828124.078125-.1875-3.660156 2.140626 2.921874zm0 0"/><path d="m149.625 225.878906-2.882812.46875.898437 5.878906c.078125.535157 0 .972657-.238281 1.304688-.234375.34375-.597656.546875-1.101563.628906-.503906.078125-.914062 0-1.242187-.253906-.332032-.25-.535156-.628906-.617188-1.160156l-.894531-5.878906-2.867187.472656.882812 5.734375c.078125.472656.25 1.003906.519531 1.585937.171875.363282.425781.691406.785157 1.007813.363281.296875.726562.535156 1.121093.660156.390625.140625.847657.203125 1.398438.171875.554687-.015625 1.042969-.078125 1.496093-.140625.789063-.125 1.433594-.347656 1.96875-.644531.378907-.21875.726563-.550782 1.042969-.992188.3125-.4375.503907-.925781.597657-1.460937.09375-.53125.09375-1.082031.015624-1.648438zm0 0"/><path d="m174.179688 225.21875-3.007813-6.648438-2.648437 1.273438 3.984374 8.816406 6.773438-3.253906-.992188-2.167969zm0 0"/><path d="m193.378906 211.9375-3.308594-4.699219-2.363281 1.761719 3.386719 4.808594c.300781.441406.425781.863281.363281 1.273437-.0625.40625-.300781.769531-.707031 1.066407-.410156.316406-.820312.425781-1.214844.363281-.394531-.0625-.753906-.316407-1.054687-.753907l-3.386719-4.808593-2.363281 1.757812 3.308593 4.699219c.269532.394531.660157.769531 1.148438 1.164062.316406.234376.695312.425782 1.152344.535157.457031.109375.878906.140625 1.289062.078125s.851563-.238282 1.324219-.503906c.472656-.265626.898437-.550782 1.277344-.832032.644531-.488281 1.132812-.992187 1.464843-1.507812.234376-.378906.40625-.835938.488282-1.367188.078125-.535156.046875-1.070312-.113282-1.589844-.125-.484374-.359374-.972656-.691406-1.445312zm0 0"/><path d="m140.160156 227.417969-8.835937.644531.15625 2.386719 2.976562-.203125.488281 7.308594 2.914063-.207032-.503906-7.320312 2.976562-.207032zm0 0"/><path d="m127.355469 235.527344-.253907-7.339844-2.914062.109375.332031 9.726563 7.464844-.265626-.078125-2.390624zm0 0"/><path d="m195.804688 202.527344 3.417968 4.070312-6.097656-1.667968-2.0625 1.855468 6.191406 7.351563 2.078125-1.851563-3.402343-4.039062 6.0625 1.632812 2.082031-1.851562-6.191407-7.355469zm0 0"/><path d="m226.152344 142.8125-.390625 3.300781 2.929687 2.339844-3.386718 1.554687-.394532 3.222657-.109375-.03125-2.144531 8.878906 2.253906.582031.722656-2.988281 6.898438 1.777344.695312-2.921875-6.898437-1.777344.722656-2.96875-2.015625-.519531 5.765625-3.015625 3.921875.5.347656-3-3.921874-.488282zm0 0"/><path d="m199.078125 199.539062 6.554687 7.007813 2.109376-2.105469-6.550782-7.007812zm0 0"/><path d="m221.398438 165.25 8.867187 3.332031 1.007813-2.828125-8.867188-3.332031zm0 0"/><path d="m119.921875 233.84375c-.03125.535156-.207031.945312-.503906 1.226562-.300781.265626-.710938.390626-1.214844.359376s-.898437-.21875-1.148437-.53125c-.269532-.316407-.378907-.738282-.347657-1.273438l.410157-5.925781-2.898438-.203125-.394531 5.78125c-.03125.472656.015625 1.039062.160156 1.667968.09375.390626.265625.785157.550781 1.160157.28125.378906.597656.691406.945313.914062.34375.21875.785156.390625 1.320312.484375.535157.113282 1.039063.175782 1.496094.207032.789063.046874 1.480469 0 2.066406-.171876.421875-.128906.816407-.363281 1.226563-.726562.394531-.359375.691406-.785156.898437-1.269531.203125-.503907.332031-1.039063.378907-1.605469l.390624-5.796875-2.894531-.203125zm0 0"/><path d="m226.878906 168.804688c-.472656-.207032-.960937-.285157-1.433594-.207032-.488281.078125-.960937.316406-1.433593.722656-.472657.410157-1.085938 1.164063-1.84375 2.265626-.296875.453124-.535157.707031-.707031.785156-.171876.09375-.316407.09375-.457032.03125-.1875-.078125-.316406-.238282-.378906-.457032s-.03125-.488281.109375-.816406c.160156-.394531.378906-.660156.648437-.800781.265626-.140625.613282-.175781 1.039063-.0625l.929687-2.671875c-.945312-.285156-1.75-.207031-2.410156.203125-.660156.425781-1.230468 1.210937-1.703125 2.355469-.375.929687-.566406 1.714844-.566406 2.359375.015625.644531.160156 1.179687.441406 1.617187.285157.441406.644531.753906 1.101563.960938.679687.296875 1.339844.28125 2-.046875.648437-.332031 1.355468-1.039063 2.128906-2.140625.472656-.671875.816406-1.066406 1.085938-1.191406.253906-.125.503906-.140626.722656-.046876.238281.109376.394531.296876.488281.597657.097656.296875.066406.640625-.109375 1.035156-.21875.535156-.566406.863281-1.023438.992187-.28125.078126-.644531.0625-1.085937-.066406l-.929687 2.703125c.914062.316407 1.765624.300781 2.582031-.046875.804687-.328125 1.527343-1.273437 2.160156-2.796875.359375-.863281.535156-1.648437.519531-2.324219 0-.675781-.191406-1.273437-.519531-1.808593-.347656-.519531-.804687-.910157-1.355469-1.144531zm0 0"/><path d="m215.839844 191.335938-1.515625-1.097657 2.601562-3.835937-1.574219-1.132813-2.601562 3.835938-1.226562-.894531 2.800781-4.132813-1.652344-1.195313-4.488281 6.601563.015625.015625-1.859375 2.199219 3.75 6.238281-6.519532-2.953125-2 2.371094 9.464844 3.613281 2.078125-2.449219-4.695312-8.863281 7.5 5.421875 4.566406-6.726563-1.75-1.273437zm0 0"/><path d="m222.265625 178.5625c-.332031.0625-.539063.109375-.664063.171875-.171874.09375-.410156.25-.675781.503906.125-.441406.171875-.800781.171875-1.117187-.015625-.472656-.140625-.894532-.363281-1.289063-.21875-.390625-.566406-.722656-1.023437-.972656-.519532-.300781-1.039063-.425781-1.542969-.363281-.503907.046875-.945313.253906-1.304688.613281-.363281.347656-.773437.929687-1.199219 1.746094l-2.363281 4.382812 8.253907 4.714844 1.417968-2.640625-3.355468-1.917969.125-.234375c.144531-.234375.316406-.425781.539062-.535156.171875-.078125.472656-.125.894531-.109375l3.277344.03125 1.589844-2.96875-3.070313-.09375c-.15625-.015625-.378906.015625-.707031.078125zm-3.609375 1.820312-.597656 1.117188-1.683594-.957031.628906-1.164063c.25-.488281.503906-.769531.738282-.863281.238281-.09375.488281-.0625.757812.09375.1875.09375.316406.25.394531.4375.078125.191406.09375.378906.03125.582031-.109375.394532-.207031.644532-.269531.753906zm0 0"/><path d="m97.980469 228.5c.332031-.3125.566406-.722656.710937-1.238281.171875-.597657.1875-1.148438.03125-1.636719-.160156-.503906-.441406-.894531-.851562-1.195312-.410156-.296876-1.039063-.578126-1.90625-.847657l-4.644532-1.460937-2.757812 9.320312 2.804688.878906 1.117187-3.789062.25.082031c.253906.078125.457031.21875.617187.421875.109376.15625.21875.457032.296876.878906l.648437 3.316407 3.148437.992187-.550781-3.128906c-.03125-.15625-.09375-.390625-.222656-.707031-.125-.3125-.21875-.519531-.296875-.628907-.125-.15625-.332031-.359374-.628906-.582031.4375.03125.800781.015625 1.085937-.0625.441407-.09375.816407-.296875 1.148438-.613281zm-2.15625-1.882812c-.0625.203124-.175781.359374-.332031.484374-.15625.128907-.347657.175782-.535157.160157-.394531-.03125-.644531-.066407-.773437-.113281l-1.179688-.375.566406-1.886719 1.230469.378906c.503907.15625.832031.34375.960938.5625.125.222656.15625.488281.0625.789063zm0 0"/><path d="m29.71875 177.917969 7.324219 2.277343 1.6875-.878906-3.75-7.589844-1.796875.941407 2.144531 4.351562-7.246094-2.261719-1.746093.929688 4.0625 8.234375 1.808593-.960937zm0 0"/><path d="m42.667969 185.398438-2.710938 1.964843-1.828125-2.703125 2.710938-1.949218-1.667969-2.46875-7.734375 5.578124 1.667969 2.46875 3.136719-2.261718 1.824218 2.703125-3.132812 2.261719 1.683594 2.464843 7.734374-5.578125zm0 0"/><path d="m47.535156 199.101562c1.148438-1.023437 1.761719-2.171874 1.839844-3.394531.078125-1.242187-.390625-2.46875-1.433594-3.695312-1.007812-1.191407-2.109375-1.835938-3.320312-1.914063-1.214844-.097656-2.394532.390625-3.5625 1.429688-.832032.738281-1.382813 1.539062-1.652344 2.371094-.265625.832031-.300781 1.632812-.09375 2.40625.203125.769531.644531 1.570312 1.355469 2.402343.691406.816407 1.398437 1.367188 2.15625 1.648438.757812.285156 1.527343.332031 2.300781.144531.769531-.191406 1.574219-.660156 2.410156-1.398438zm-3.875-1.226562c-.535156.015625-1.007812-.238281-1.417968-.722656-.394532-.472656-.566407-.992188-.472657-1.554688.078125-.566406.488281-1.164062 1.195313-1.808594.726562-.644531 1.355468-.976562 1.90625-.992187.550781 0 1.007812.222656 1.402344.675781.410156.488282.566406.992188.488281 1.558594-.078125.546875-.441407 1.128906-1.117188 1.742188-.789062.738281-1.449219 1.101562-1.984375 1.101562zm0 0"/><path d="m24.207031 164.417969c.519531.046875 1.054688 0 1.589844-.125l5.46875-1.398438-.710937-2.90625-5.589844 1.445313c-.503906.125-.929688.09375-1.277344-.125-.347656-.222656-.582031-.566406-.707031-1.070313-.128907-.503906-.078125-.941406.140625-1.304687.203125-.359375.566406-.597656 1.070312-.722656l5.59375-1.429688-.710937-2.90625-5.449219 1.351562c-.457031.109376-.945312.34375-1.480469.675782-.332031.203125-.628906.5-.898437.894531-.265625.394531-.457032.785156-.550782 1.210937-.09375.40625-.109374.894532-.046874 1.460938s.15625 1.070312.265624 1.523438c.191407.800781.457032 1.445312.804688 1.964843.253906.378907.597656.691407 1.039062.972657.441407.269531.929688.441406 1.449219.488281zm0 0"/><path d="m107.382812 229.367188c.425782-.488282.976563-.675782 1.621094-.566407.285156.046875.539063.15625.757813.3125.203125.15625.378906.363281.503906.628907.078125.15625.140625.378906.171875.691406l2.632812-.171875c-.175781-1.070313-.550781-1.902344-1.152343-2.5-.597657-.597657-1.480469-.988281-2.660157-1.191407-1.496093-.253906-2.726562 0-3.6875.707032-.941406.722656-1.542968 1.867187-1.792968 3.472656-.191406 1.191406-.09375 2.214844.25 3.046875.347656.847656.820312 1.476563 1.417968 1.886719.597657.40625 1.402344.691406 2.410157.863281.835937.140625 1.542969.125 2.125-.03125.585937-.15625 1.089843-.457031 1.53125-.878906.4375-.425781.800781-.992188 1.085937-1.699219l-2.410156-1.191406c-.222656.578125-.488281 1.019531-.835938 1.285156-.328124.269531-.769531.363281-1.324218.269531-.566406-.09375-.972656-.363281-1.226563-.816406-.253906-.441406-.300781-1.210937-.140625-2.265625.171875-.878906.394532-1.492188.722656-1.851562zm0 0"/><path d="m56.054688 201.03125-3.621094 3.867188 1.070312-6.410157-1.96875-1.964843-6.554687 7.007812 1.96875 1.964844 3.609375-3.851563-1.054688 6.398438 1.96875 1.960937 6.550782-7.007812zm0 0"/><path d="m32.523438 165.800781-10.078126-.109375 1.023438 2.890625 1.621094-.109375 1.132812 3.222656-1.304687 1.003907 1.039062 2.953125 7.652344-6.769532zm-4.597657 4.589844-.710937-2.011719 3.542968-.1875zm0 0"/><path d="m98.515625 234.488281 2.851563.628907 1.96875-9.523438-2.867188-.628906zm0 0"/><path d="m28.398438 149.929688-3.277344.472656-.441406-3.253906 3.277343-.472657-.410156-2.984375-9.339844 1.351563.394531 2.984375 3.777344-.546875.457032 3.25-3.777344.550781.410156 3 9.339844-1.351562zm0 0"/><path d="m68.589844 222.152344 2.632812 1.445312 1.132813-1.195312 2.929687 1.605468-.332031 1.648438 2.695313 1.476562 1.289062-10.324218-2.800781-1.539063zm7.105468-.296875-1.84375-1.007813 2.503907-2.59375zm0 0"/><path d="m62.746094 206.390625c-.847656-.691406-1.621094-1.113281-2.3125-1.273437-.882813-.203126-1.734375-.125-2.535156.222656-.804688.34375-1.527344.941406-2.160157 1.789062-.597656.800782-.976562 1.621094-1.132812 2.484375s-.078125 1.664063.25 2.433594c.316406.757813.929687 1.496094 1.8125 2.203125.710937.578125 1.402343.988281 2.0625 1.238281.648437.253907 1.496093.410157 2.535156.472657l2.476563-3.269532-3.546876-2.859375-1.210937 1.589844 1.527344 1.238281-.550781.722656c-.441407-.0625-.804688-.140624-1.101563-.25-.285156-.109374-.570313-.265624-.820313-.472656-.535156-.4375-.835937-.957031-.867187-1.554687-.03125-.597657.269531-1.320313.898437-2.152344.597657-.785156 1.179688-1.226563 1.75-1.351563.566407-.125 1.117188.015626 1.621094.425782.332032.265625.550782.5625.660156.894531.09375.328125.09375.675781-.03125 1.035156l2.519532 1.382813c.238281-.609375.347656-1.175782.332031-1.710938-.03125-.535156-.1875-1.054687-.472656-1.523437-.332031-.472657-.882813-1.054688-1.703125-1.714844zm0 0"/><path d="m84.71875 224.101562-.738281 1.871094 1.808593.753906-.328124.847657c-.441407.0625-.820313.09375-1.121094.0625-.3125-.015625-.613282-.09375-.910156-.21875-.632813-.269531-1.058594-.691407-1.246094-1.257813s-.09375-1.335937.285156-2.324218c.359375-.929688.800781-1.527344 1.320312-1.792969.519532-.28125 1.070313-.296875 1.671876-.046875.390624.15625.691406.390625.863281.675781.191406.28125.269531.628906.238281 1.003906l2.789062.613281c.0625-.644531.015626-1.226562-.144531-1.742187-.171875-.519531-.457031-.960937-.867187-1.335937-.40625-.378907-1.101563-.769532-2.0625-1.179688-1.007813-.425781-1.855469-.597656-2.566406-.566406-.914063.0625-1.699219.378906-2.378907.945312-.675781.5625-1.210937 1.335938-1.589843 2.324219-.363282.925781-.503907 1.839844-.425782 2.71875s.363282 1.632813.882813 2.261719c.503906.644531 1.292969 1.179687 2.332031 1.605468.832031.34375 1.605469.546876 2.296875.59375.695313.066407 1.542969-.03125 2.570313-.265624l1.511718-3.851563zm0 0"/></g></svg>