<svg height="316.227766" viewBox="0 0 252 252" width="316.227766" xmlns="http://www.w3.org/2000/svg"><g fill="#005d8b"><path d="m161.210938 47.855469c.566406.097656 1.429687.195312 1.691406.15625.265625-.039063 1.410156-.351563 1.761718-.429688.351563-.089843 1.769532-.585937 2.179688-.847656.421875-.253906 1.351562-.828125 1.871094-1.277344.519531-.449219 1.183594-1.101562 1.4375-1.011719.253906.097657.175781.523438.226562 1.003907.058594.464843-.128906.945312-.246094 2.101562-.117187 1.160157.097657 3.003907.429688 3.644531.332031.644532 1.417969.75 1.898438.703126.488281-.050782 1.9375-.554688 2.40625-.761719.46875-.203125 1.476562-.542969 1.527343-.875.046875-.332031-.570312-.515625-1.28125-.664063-.707031-.144531-1.742187-.582031-2.359375-1.296875-.617187-.710937-.664062-1.792969-.898437-2.792969-.226563-.996093-.746094-1.289062-1.039063-1.660156-.28125-.378906.175782-.808594.558594-1.011718.382812-.203126 1.3125-.097657 2.335938-.027344 1.019531.066406 3.132812.105468 4.238281.144531s1.457031-.429687 1.730469-.984375c.285156-.554688-.097657-1.355469-.605469-2.066406-.519531-.710938-.765625-.300782-1.125.28125-.363281.585937-.792969 1.035156-1.398438 1.101562-1.105469.128906-1.871093.117188-2.582031-.019531-.550781-.097656-.960938-.582031-.832031-.847656.117187-.261719.625-.484375 1.09375-.894531.46875-.410157 1-1.199219 1.320312-1.414063.324219-.203125 1.261719-1.296875 2.046875-2.339844.773438-1.050781 1.269532-1.945312.773438-2.851562-.597656-1.09375-1.292969-2.253907-1.578125-1.84375-.253907.371093-.117188.828125-.710938 1.832031-.421875.703125-2.269531 3.828125-3.796875 6.023438-1.527344 2.191406-2.347656 1.859374-2.867187 1.957031-.519531.097656-2.347657.410156-3.597657.351562-1.066406-.050781-1.957031-.613281-2.398437-.78125-.488281-.175781-1.035156.15625-1.820313.652344-.78125.488281-.878906 1.0625-.183593 1.660156.691406.582031 1.691406.40625 2.191406.261719.496094-.148438 2.171875-.097656 2.796875-.195312.625-.097657 1.535156-.261719 1.761719-.066407.222656.203125-.257813.875-.394531.953125-.136719.085938-.800782.632813-1.660157 1.265625-.863281.632813-3.023437 1.152344-4.363281 1.082031-1.339844-.066406-1.917969-.75-2.4375-.699218-.527344.039062-.398438.210937-.144531.933594.253906.691406 1.476562 1.453124 2.042969 1.550781"/><path d="m41.125 54.722656c.878906.070313 1.125.558594 1.789062 1.492188.65625.925781 3.921876 5.410156 5.234376 7.046875 1.300781 1.644531 2.015624 3 1.976562 3.515625-.070312 1.042968.332031 4.582031.683594 5.71875.292968.984375-.460938.996094-1.007813.722656-.539062-.253906-2.632812-.625-3.128906-.769531-.527344-.175781-1.242187-.105469-1.292969.214843-.097656.59375 1.195313 1.421876 2.535156 2.503907 1.308594 1.050781 3.894532 2.863281 6.25 3.585937 1.90625.574219 2.671876.664063 3.070313.117188.402344-.546875-.253906-1.082032-.554687-1.355469-.292969-.261719-.707032-.796875-.550782-1.179687.136719-.367188.316406-1.546876-.136718-3.742188-.4375-2.199219-2.140626-5.726562-2.355469-6.3125-.234375-.625 1.132812-.585938 1.59375-.585938.480469 0 1.605469-.105468 2.003906-.886718.402344-.828125.136719-2.230469-.535156-2.269532-.695313-.066406-1.96875.417969-2.964844 1.207032-.703125.558594-1.085937-.078125-1.058594-.652344.03125-.574219.316407-5.339844-.261719-8.3125-.167968-.886719.820313.488281 1.230469 1.09375.441407.59375 2.066407 2.550781 2.789063 3.488281 1.066406 1.375 3.089844 3.925781 4.175781 5.074219 1.097656 1.152344.785156 1.601562.441406 1.921875-.34375.339844-1.351562.945313-2.230469 1.363281-.851562.4375-.597656.886719-.027343.867188.429687-.007813 1.035156-.378906 3.039062-.417969 2.074219-.039063 2.523438-.761719 2.359375-2.191406-.148437-1.269531-2.523437-3.664063-4.109375-5.273438-1.574219-1.628906-6.015625-6.695312-6.4375-7.179687-.4375-.488282-1.015625-1.179688-1.789062-1.082032-.773438.105469-1.261719 1.285157-1.3125 1.957032-.039063.671875-.300781 2.796875-.3125 3.964844-.007813 1.160156-.546875 1.210937-.96875.644531-.410157-.566407-1.855469-2.25-3.589844-4.40625-1.964844-2.425781-2.738281-2.191407-4.175781-1.957031-1.222656.203124-3.03125.730468-2.933594 1.304687s1.464844.671875 2.5625.769531m10.789062 16.460938c.117188-.441406.480469-1.0625.703126-.742188.570312.78125.667968 2.347656 1.773437 3.886719.371094.527344.261719 1.25-.6875.597656-.96875-.652343-2.191406-1.308593-2.179687-1.636719.019531-.734374.285156-1.660156.390624-2.105468"/><path d="m80.390625 33.996094c-.382813.15625-1.292969.5-1.378906 1.023437-.109375.519531.46875.917969 1.027343.984375.558594.078125 1.640626-.292968 2.375-.71875-.398437-.1875-.773437-.351562-.878906-.886718-.128906-.683594.085938-1.464844.085938-1.464844-.652344.324218-.761719.851562-1.230469 1.0625"/><path d="m77.003906 25.140625c1.449219-.652344 2.328125-1.171875 2.847656.273437.480469 1.332032 1.9375 5.71875 2.730469 7.53125.363281.808594.722657 2.09375.546875 2.308594-.136718.175782-.046875.3125.292969.398438.460937.117187.648437.925781.707031 1.0625.195313.449218-.078125 1.042968-.636718 1.472656-.558594.417969-3.726563 3.886719-4.335938 4.765625-.605469.90625-1.269531 2.84375.089844 2.746094 1.359375-.097657 2.375.246093 2.738281-1.253907.363281-1.472656 4.078125-7.554687 4.921875-8.792968.839844-1.234375 3.246094-4.089844 3.628906-3.964844.183594.050781-.625 1.871094-1.449218 3.265625-.820313 1.414063-3.101563 4.988281-3.402344 5.4375-.097656.136719-.15625.351563-.695313.507813-.226562.066406.539063.476562 1.035157-.058594.824218-.898438 3.140624-3.441406 3.933593-4.570313.8125-1.152343 1.574219-2.476562 2.164063-3.761719.320312-.722656.605468-2.339843-.226563-2.484374-.734375-.128907-2.269531.992187-3.660156 2.570312-1.367187 1.589844-2.71875 3.109375-2.941406 3.421875-.097657.136719-.226563-.304687-.070313-.574219.175782-.304687-.351562-.925781-.148437-1.367187.519531-1.167969 1.597656-2.375 2.320312-3.378907.714844-.996093 3.640625-5.320312 3.707031-6.285156.078126-1.140625-.207031-2.078125-.851562-1.871094-1.582031.496094-1.847656.875-1.761719 1.355469.078125.40625-.066406.816407-.164062 1.019531-.605469 1.355469-1.175781 2.332032-1.449219 3.148438-.136719.390625-.851562.324219-.664062-.332031.195312-.671875.207031-1.003907.207031-1.003907s-1.027344.625-1.382813.839844c-.351562.203125-1.289062.515625-1.40625-.011718-.34375-1.546876-1.097656-3.730469-2.144531-4.355469-1.046875-.621094-2.296875-.679688-3.296875-.039063-.984375.644532-2.316406 2.496094-1.183594 1.980469m7.710938 4.636719c.234375.039062.417968.03125 1.152344.226562.667968.175782.050781.816406-.105469 1.089844-.148438.273438-.332031.769531-.6875 1.257812-.339844.476563-.507813-.019531-.605469-.339843-.136719-.429688-.261719-1.113281-.28125-1.679688-.039062-.71875.292969-.601562.527344-.554687"/><path d="m91.140625 39.492188c-.007813.519531-.390625 2.300781-.507813 3.050781-.117187.742187.039063 1.871093 0 2.210937-.019531.332032-.578124.488282-1.292968.527344-.691406.050781-1.484375.070312-1.328125-.496094.164062-.574218.851562-2.652344 1.007812-3.226562.175781-.574219.574219-1.714844-.207031-2.066406-.742188-.320313-1.820312.632812-2.671875 1.949218-.867187 1.308594-2.355469 1.851563-2.433594 2.808594-.019531.183594.351563.542969.703125.203125.363282-.351563 1.164063-1.148437 1.664063-1.722656.429687-.5 1.25-1.425781 1.535156-1.609375.207031-.136719.246094.242187-.078125 1.238281-.207031.59375-.402344 1.296875-.519531 2.902344-.027344.429687.453125 1.65625 1.773437 1.21875 1.457032-.488281 2.140625-.722657 2.511719.488281.214844.71875-.878906 3.761719-1.632813 4.859375-.753906 1.113281-1.027343 1.425781-1.144531 1.550781-.128906.136719.402344.457032.890625.300782.78125-.242188 1.90625-.992188 2.855469-2.960938.960937-1.96875 1.117187-2.84375.753906-3.761719-.304687-.757812-.910156-1.179687-1.085937-1.414062-.175782-.242188.058594-.4375.675781-.171875.617187.28125 1.925781.867187 2.308594.984375.46875.144531 1.367187-.285157.859375-1.269531-.507813-.953126-1.417969-1.296876-2.503906-1.421876-.664063-.085937-1.164063.585938-1.292969.789063-.136719.195313-.507813.292969-.632813.039063-.117187-.253907.183594-.644532.515625-1.355469.382813-.808594 1.136719-2.628907 1.28125-2.941407.140625-.3125-.410156-.925781-.917969-1.101562-.539062-.183594-1.066406-.117188-1.085937.398438"/><path d="m87.523438 49.746094c.378906-.117188 1.457031.476562 2.101562.484375.207031.011719.507812-.289063.34375-.808594-.195312-.652344-.53125-1.023437-1.117188-1.1875-.558593-.175781-1.917968.066406-2.101562.644531-.195312.554688-.324219 1.527344-.539062 1.851563-.566407.867187-1.867188 1.03125-1.898438 1.234375-.066406.480468.832031 1.210937 1.46875 1.316406.546875.097656.96875.078125 1.015625.019531.039063-.046875-.320313-.546875-.410156-1.011719-.066407-.371093.15625-1.074218.390625-1.421874.214844-.332032.363281-.996094.746094-1.121094"/><path d="m119.1875 32.3125c.417969.28125.820312.457031 2.054688 1.089844.820312.421875 1.917968-.855469 2.6875-1.480469.765624-.644531 2.613281-1.460937 3.269531-1.773437.644531-.332032 1.191406-.78125 1.152343-.339844-.039062.4375-.800781 1.714844-1.738281 3.097656-.921875 1.402344-2.664062 3.117188-3.257812 3.769531-.597657.664063-.832031.957031-.570313 1.289063.167969.203125.234375.046875.375 1.695312.144532 1.65625.839844 2.367188 1.535156 2.261719.691407-.117187.890626-.90625.878907-1.335937-.007813-.410157-.046875-1.851563-.078125-2.59375.480468-.273438 1.964844-1.207032 2.777344-2.054688.824218-.839844 2.542968-1.824219 2.535156-1.6875-.011719.136719-.617188 1.132812-1.105469 1.636719-.5.507812-1.046875 1.570312-1.847656 3.101562-.804688 1.539063-.570313 2.503907.28125 2.640625.863281.125 2.425781-.050781 2.933593-.332031.773438-.417969 1.976563-.828125 2.683594-1.363281.417969-.3125 1.464844-1.199219 1.25-1.375-.3125-.242188-.664062-.527344-.957031-.742188-.714844-.535156-.871094-.816406-1.488281-.40625-.625.398438-2.777344 1.136719-2.796875 1.019532-.050781-.222657.949219-1.539063 1.859375-2.707032.917968-1.148437 2.648437-3.285156 2.09375-3.859375-.570313-.574219-1.8125.476563-2.75.9375-.941406.4375-3.433594 2.296875-4.089844 2.960938-.644531.664062-1.652344 1.957031-2.082031 1.761719-.402344-.191407-.382813-.4375-.070313-.808594.324219-.398438 2.515625-2.296875 3.746094-3.816406 1.214844-1.511719 2.40625-4.53125 2.898438-5.109376.46875-.601562 1.503906-1.234374 2.355468-1.890624.851563-.621094 2.261719-1.625 1.945313-2.464844-.203125-.554688-1.652344-1.050782-1.652344-1.050782s-.027344.449219.117187 1.324219c.097657.574219-2.191406 1.539063-1.859374.976563.34375-.578125.363281-1.171875.441406-1.988282.089844-.808593.03125-3.703124-.183594-4.816406-.089844-.4375-.871094-1.121094-1.15625-1.128906-.253906 0-1.035156.683594-1.054688.984375-.019531.488281-.375 2.398437-.382812 4.453125-.019531 2.054688-.097656 3.957031-.695312 4.367188-.597657.398437-3.648438 1.839843-4.683594 2.238281-1.046875.410156-3.316406 1.734375-4.296875 2.078125-1.457031.535156-1.417969 1.207031-1.074219 1.441406"/><path d="m192.574219 78.335938c.339843.15625 1.710937.164062 2.484375.175781.773437.007812 1.574218-.886719 2.074218-1.367188.488282-.476562 1.40625-1.351562 1.828126-1.722656.421874-.378906.96875-.050781 1.390624.222656.984376.644531 1.484376 1.53125 2.503907 2.144531.476562.292969 1.425781-.15625 1.632812-.527343.203125-.367188-.050781-.71875-.265625-1.101563-.214844-.367187-1.191406-.796875-1.945312-1.117187-.742188-.332031-1.234375-.9375-1.183594-1.296875.046875-.359375.480469-.371094.742188-.390625.253906-.019531 1.703124.15625 2.183593.15625.46875.007812.929688-.300781 1.054688-.527344.117187-.234375.578125-.5625.851562-.488281.285157.078125.558594.410156.929688.617187.371093.203125 1.449219.632813 1.886719.738281.441406.109376 1.574218.148438 2.445312.363282.871094.210937 1.644531-.097656 1.800781-.371094s.214844-.878906-.066406-1.363281c-.296875-.480469-1.292969-.90625-1.898437-1.09375-.609376-.175781-.96875-.507813-.929688-.828125.046875-.332032.5-.398438.851562-.429688.351563-.039062 1.191407.011719 1.847657-.007812.65625-.011719 1.742187-.214844 2.316406-.148438.578125.078125.949219.011719 1.695313 0 .742187 0 2.230468-.347656 2.277343-.671875.039063-.320312-.234375-.90625-.832031-1.421875-.59375-.527344-.632812-.605468-1.378906-.789062-.753906-.195313-1.289063-.390625-1.75-.664063-.460938-.269531-1.203125-.214843-1.644532-.195312-.4375.019531-.675781-.359375-.59375-.738281.066407-.390626.4375-.59375.761719-.566407.320313.03125 1.066407.128907 1.417969.265625.351562.132813 1.703125.4375 2.296875.601563.597656.167969 1.214844-.488281 1.351563-.789063.148437-.300781.683593-1.082031.898437-1.703125.226563-.636719-.203125-.839843-.546875-.808593-.351562.027343-1.925781.945312-2.394531 1.050781-.480469.105469-1.507813.058593-2.007813.125-.496094.070312-1.378906.109375-1.898437.128906-.515625.019531-.886719-.527344-.957031-.9375-.066407-.417969-.460938-.789063-.78125-.945313-.324219-.144531-.5.03125-.550782.292969-.039062.265625-.058594.371094-.117187.605469-.097657.398438-.546875.457031-.691407.429688-.148437-.03125-.695312-.078126-1.234374-.136719-.539063-.050781-.859376-.273438-.695313-.574219.167969-.304688.773437-.585938 1.058594-.65625.28125-.058594.636719-.269531.917969-.40625.273437-.136719.578124-.265625 1.222656-.402344.644531-.144531.929687-.730468.921875-1.402344 0-.671874-.179688-1.238281-.382813-1.957031-.089844-.292969-.285156-.574219-.441406-.984375-.097656-.246094-.546875.621094-.988281 1.363282-.371094.644531-.78125 1.179687-1.367188 1.6875-.578125.515624-1.214843 1.1875-1.605469 1.449218-.402343.265625-1.183593.285156-1.984374.867188-.792969.574218-1.3125.460937-1.410157.332031-.109375-.136719-.078125-.3125.15625-.496094.246094-.1875 1.078125-.671875 1.554688-.828125.480469-.15625 1.039062-.886718 1.242187-1.597656.195313-.710938-.3125-1.140625-.753906-1.023438-.4375.117188-.789062.601563-1.054688 1.148438-.265624.554688-.851562.957031-1.300781 1.257812-.449219.300782-1.527343.253907-2.191406.320313-.664063.078125-.800781.789063-.734375 1.367187.058594.574219 1.039062.679688 1.457031.757813.410157.070313 1.851563-.066406 2.09375-.234375.246094-.15625 1.253907-.078125 1.871094.039062.605469.128907.664063.574219.613281 1.132813-.046875.554687-.527344.4375-1.125.328125-.59375-.105469-.996094-.078125-1.152344.273438-.15625.351562.136719.925781.480469.996093.351563.058594 1.398438.253907 1.601563.640625.207031.390625.128906.945313-.007813 1.367188-.148437.417968-.8125.132812-1.476562-.148438-.667969-.28125-1.332031-1.167968-2.085938-1.820312-.761719-.644532-1.359375-.925782-1.722656-.90625-.359375.007812-.546875.855468-.566406 1.46875-.019531.617187.488281 1.121094.882812 1.347656.390625.230469 1.730469.679688 2.101563.90625.371094.230469 1.222656.457031 1.664062.582031.449219.136719.742188.625.742188.964844.011718.34375.539062.59375.8125.664063.273437.066406 1.546875.15625 1.984375.261718.441406.109375.585937.566406.546875 1.023438-.039063.457031-.703125.273437-1.347656.128906-.644532-.148438-1.703126-.527344-2.261719-.769531-.546875-.246094-1.007813-.460938-1.59375-.636719-.578125-.183594-1.445313-.730469-2.003907-1.304688-.566406-.585937-1.203124-.664062-1.300781-.332031-.109375.332031.164063.917969.339844 1.121094.167969.207031.597656.652344.402344 1.015625-.195313.359375-.480469.445312-1.105469.328125-.617188-.105469-.890625.128906-1.183594.351563-.285156.214843-.949218-.398438-1.410156-.75-.449219-.351563-.917969-.828126-1.261719-1.140626-.339843-.300781-1.289062-.828124-1.808593-1.21875-.695313-.535156-1.007813-1.292968-1.007813-1.292968s-.371094.855468-.371094 1.140625c0 .28125-.285156 1.050781-.15625 1.683593.128907.625.402344.957032.753907 1.160157.351562.195312 1.535156.613281 2.199218.808593.667969.195313.921875.488282 1.007813.742188.078125.25.15625.777344-.144531.953125-.296876.164063-.648438.515625-.980469.976563-.332031.457031-1.007813.542968-1.425781.476562-.421876-.070312-1.242188-1.25-1.382813-1.667969-.136719-.417969-.097656-.679687-.429687-.808593-.339844-.125-.515626.039062-.496094.820312.019531.789062 0 1.859375-.1875 2.746094-.148438.925781.089844 1.421875.421875 1.589844m20.1875-10.984376c.050781-.300781.441406-.632812.65625-.496093.226562.167969.65625.398437 1.175781.574219.515625.167968.390625.585937.222656.839843-.15625.253907-.671875.410157-.832031.417969-.15625 0-.664063.175781-1.164063.1875-.507812.007812-1.113281.359375-1.621093.378906-.519531.027344-.648438-.390625-.527344-.632812.105469-.246094.410156-.3125.625-.351563.214844-.039062.519531-.148437.792969-.265625.273437-.113281.625-.347656.671875-.652344m-5.125-3.722656c.1875-.117187.566406-.117187.929687-.019531.488282.128906 1.125.292969 1.164063.664063.050781.378906-.066407.730468-.5 1.023437-.429688.292969-.703125.332031-.945313.117187-.246094-.222656-.550781-.535156-.734375-.886718-.175781-.339844-.089843-.789063.085938-.898438m.804687 5.78125c-.285156-.089844-.863281-.1875-1.046875-.285156-.1875-.097656-.285156-.347656-.207031-.574219.078125-.234375.460938-.332031.917969-.3125.316406.011719.558593.128907.832031.265625.273438.136719.371094.183594.34375.613282-.011719.410156-.558594.378906-.839844.292968m.019532-1.882812c-.03125-.195313.097656-.554688.292968-.808594.203125-.253906.527344-.59375.703125-.523438.175781.054688.566407.308594.898438.367188.324219.058594.714843-.183594 1.046875-.367188.460937-.253906.578125.242188.441406.535157-.128906.292969-.703125.613281-1.046875.796875-.34375.1875-.566406.273437-1.144531.304687-.585938.027344-1.171875-.109375-1.191406-.304687"/><path d="m194.195312 65.550781c.988282-.128906 1.507813-.59375 2.40625-.613281.890626-.011719 1.800782-.195312 1.742188-.460938-.058594-.261718-.507812-.425781-.917969-.542968-.410156-.109375-.410156-.496094-.265625-.691406.148438-.195313.46875-.285157 1.046875-.253907.578125.027344 1.507813.058594 1.605469-.488281s.398438-.867188-.34375-.933594c-1.28125-.128906-2.238281-.089844-2.945312-.175781-.703126-.089844-1.945313-.304687-2.296876.066406-.351562.378907-1.476562 1.5-1.574218 2.464844-.109375.976563.546875 1.765625 1.542968 1.628906"/><path d="m114.890625 206.367188c-.125.136718-.273437.222656-.417969.222656v.195312h2.875v-.195312c-.15625 0-.292968-.078125-.421875-.210938-.117187-.15625-.195312-.3125-.195312-.488281v-7.777344h-1.40625c-.117188.246094-.324219.527344-.648438.839844-.320312.300781-.566406.523437-.722656.652344-.167969.136719-.304687.222656-.402344.300781l.304688.46875c.410156-.15625.820312-.371094 1.222656-.613281v6.136719c.011719.15625-.050781.3125-.1875.46875"/><path d="m121.757812 206.542969c.492188-.214844.910157-.507813 1.222657-.878907.316406-.347656.578125-.757812.792969-1.234374.214843-.46875.363281-.9375.449218-1.40625.101563-.457032.140625-.925782.140625-1.382813 0-1.042969-.335937-1.910156-1.007812-2.601563-.675781-.679687-1.402344-1.023437-2.171875-1.023437-.960938 0-1.742188.273437-2.359375.828125-.617188.566406-.917969 1.308594-.917969 2.214844 0 .4375.097656.835937.300781 1.195312.195313.371094.460938.652344.785157.859375.320312.214844.644531.371094.996093.488281.332031.117188.675781.164063.988281.164063.800782 0 1.339844-.097656 1.585938-.3125l-.011719.136719c-.007812.089844-.039062.203125-.078125.339844-.039062.136718-.097656.304687-.15625.46875-.066406.167968-.164062.332031-.3125.496093-.136718.175781-.3125.324219-.488281.480469-.1875.136719-.429687.261719-.726563.339844-.28125.078125-.613281.136718-.976562.136718-.175781 0-.34375-.011718-.5-.050781-.164062-.027343-.292969-.066406-.378906-.097656-.089844-.039063-.1875-.085937-.265625-.132813-.085938-.058593-.125-.109374-.15625-.109374-.019531-.019532-.039063-.039063-.039063-.039063h-.273437l.027343 1.460937h1.898438c.585938.011719 1.136719-.105468 1.632812-.339843m-.683593-3.710938c-.421875 0-.78125-.1875-1.066407-.566406-.28125-.359375-.429687-.820313-.429687-1.34375 0-.546875.128906-1.015625.390625-1.386719.265625-.359375.636719-.535156 1.105469-.535156.429687 0 .78125.1875 1.066406.566406.292969.371094.441406.828125.441406 1.363282 0 1.277343-.5 1.902343-1.507812 1.902343"/><path d="m130.25 201.894531c-.253906-.183593-.539062-.359375-.851562-.476562-.320313-.117188-.605469-.214844-.839844-.253907-.246094-.050781-.46875-.070312-.644532-.070312-.34375 0-.695312.019531-1.058593.070312v-2.035156h2.269531c.175781 0 .332031.019532.488281.066406.136719.039063.246094.097657.304688.144532.066406.050781.136719.117187.1875.1875.058593.066406.085937.125.085937.144531l.019532.078125h.265624l-.03125-1.636719h-4.722656v4.152344l.242188-.070313c.148437-.039062.332031-.078124.558594-.136718.234374-.039063.441406-.066406.617187-.066406.183594 0 .378906.039062.605469.066406.214844.050781.460937.136718.734375.246094.273437.117187.507812.3125.675781.574218.183594.273438.28125.605469.28125.984375 0 .398438-.066406.742188-.203125 1.03125-.136719.292969-.292969.5-.453125.636719-.164062.132812-.359375.242188-.605469.320312-.234375.078126-.417969.105469-.527343.117188-.117188.027344-.226563.027344-.34375.027344-.28125 0-.585938-.066406-.890626-.183594-.3125-.117188-.515624-.214844-.625-.292969-.097656-.078125-.183593-.125-.242187-.183593l-.648437.476562.117187.097656c.058594.078125.1875.164063.332031.273438.160156.117187.335938.222656.539063.320312.207031.105469.449219.203125.765625.273438.3125.078125.632812.117187.964844.117187.558593 0 1.078124-.097656 1.539062-.292969.46875-.183593.839844-.429687 1.125-.730468.28125-.292969.507812-.632813.664062-.957032.15625-.347656.222657-.679687.222657-1.011718 0-.4375-.097657-.828125-.261719-1.1875-.195312-.351563-.402344-.625-.65625-.820313"/><path d="m131.699219 199.75h.261719l.050781-.15625c.046875-.097656.15625-.203125.34375-.300781.175781-.117188.410156-.15625.683593-.15625h3.082032l-3.667969 7.660156h2.621094c0-.46875.097656-1.074219.292969-1.824219.183593-.769531.410156-1.480468.636718-2.140625.242188-.664062.515625-1.375.828125-2.125.316407-.761719.53125-1.269531.648438-1.550781.105469-.261719.214843-.476562.292969-.644531v-.386719h-6.09375v1.625zm0 0"/><path d="m142.300781 200.09375c0 .691406.558594 1.246094 1.242188 1.246094.695312 0 1.242187-.554688 1.242187-1.246094 0-.675781-.546875-1.230469-1.242187-1.230469-.691407-.007812-1.242188.554688-1.242188 1.230469"/><path d="m106.558594 200.09375c0 .691406.558594 1.246094 1.242187 1.246094.695313 0 1.242188-.554688 1.242188-1.246094 0-.675781-.546875-1.230469-1.242188-1.230469-.683593-.007812-1.242187.554688-1.242187 1.230469"/><path d="m21.5 124.464844c.214844-.195313.460938-.273438.746094-.261719l10.5625.136719c.226562 0 .460937.105468.695312.300781.226563.183594.351563.390625.34375.613281h.300782l.050781-4.21875-.285157-.007812c0 .222656-.136718.425781-.390624.613281-.253907.195313-.480469.292969-.683594.292969l-10.574219-.136719c-.265625-.011719-.511719-.109375-.726563-.304687-.234374-.183594-.332031-.398438-.320312-.632813h-.304688l-.066406 4.210937.300782.007813c0-.242187.128906-.4375.351562-.613281"/><path d="m28.523438 139.167969c3.355468-.300781 5.097656-.476563 5.246093-.484375.222657-.011719.457031.058594.710938.222656.265625.164062.402343.351562.421875.566406l.292968-.03125-.339843-3.605468-.285157.03125c.019532.214843-.097656.4375-.324218.652343-.234375.214844-.457032.339844-.652344.351563l-6.175781.582031 6.839843-7.863281-.292968-3.136719-.292969.027344c.039063.371093-.070313.703125-.335937.984375-.253907.292968-.515626.441406-.789063.460937l-10.332031.984375c-.261719.019532-.507813-.050781-.761719-.226562-.246094-.183594-.382813-.371094-.402344-.601563l-.292969.039063.34375 3.613281.292969-.027344c-.03125-.234375.066407-.449219.273438-.664062.207031-.203125.441406-.320313.714843-.351563l8.578126-.796875-6.828126 7.851563-1.074218.117187c-.265625.03125-.511719-.046875-.753906-.222656-.253907-.175781-.382813-.382813-.402344-.605469l-.292969.03125.34375 3.613282.28125-.027344c-.027344-.234375.070313-.441406.285156-.65625.203125-.210938.429688-.328125.714844-.359375.175781.011719 1.933594-.144531 5.289063-.46875"/><path d="m31.878906 153.726562c3.269532-.808593 4.960938-1.226562 5.097656-1.265624.226563-.046876.46875-.007813.753907.105468.273437.128906.441406.304688.5.507813l.28125-.066407-.871094-3.519531-.28125.078125c.046875.214844-.019531.4375-.214844.691406-.195312.246094-.394531.402344-.597656.441407l-6.015625 1.507812 5.585938-8.789062-.765626-3.058594-.28125.066406c.085938.382813.027344.710938-.175781 1.035157-.214843.320312-.453125.515624-.726562.5625l-10.074219 2.515624c-.246094.058594-.507812.019532-.78125-.117187-.265625-.125-.433594-.300781-.480469-.527344l-.292969.070313.878907 3.515625.285156-.066407c-.050781-.226562.007813-.457031.175781-.683593.164063-.242188.382813-.398438.65625-.46875l8.351563-2.074219-5.566407 8.808594-1.046874.265625c-.242188.046875-.507813.019531-.78125-.109375-.273438-.136719-.429688-.3125-.488282-.535156l-.285156.066406.882812 3.519531.28125-.070313c-.046874-.210937 0-.4375.175782-.679687.175781-.234375.390625-.371094.65625-.449219.1875-.058594 1.90625-.476562 5.164062-1.277344"/><path d="m46.847656 173.390625c.058594-.476563.039063-.984375-.039062-1.519531-.078125-.523438-.195313-1.011719-.351563-1.449219-.167969-.460937-.34375-.859375-.558593-1.238281l-2.574219-4.464844-.253907.148438c.117188.183593.109376.417968-.027343.71875-.117188.292968-.273438.496093-.449219.59375l-9.148438 5.242187c-.234374.128906-.480468.175781-.773437.117187-.292969-.046874-.488281-.183593-.617187-.359374l-.253907.148437 2.113281 3.644531.265626-.136718c-.117188-.207032-.128907-.429688-.019532-.703126.085938-.261718.261719-.46875.5-.59375l3.695313-2.125.792969 1.363282-3.140626 5.847656 1.800782 3.109375.285156-.167969c-.117188-.347656-.148438-.769531-.097656-1.234375.039062-.460937.175781-.996093.378906-1.570312.214844-.59375.410156-1.082031.597656-1.492188.175782-.417969.421875-.914062.742188-1.546875.3125-.625.507812-1.003906.589844-1.171875.117187.1875.332031.410157.664062.671875.320312.246094.714844.480469 1.164062.691406.449219.214844.96875.324219 1.554688.332032.578125.011718 1.113281-.136719 1.613281-.417969.460938-.261719.824219-.605469 1.085938-1.050781.246093-.441406.402343-.917969.460937-1.386719m-2.054687-.621094c-.175781.359375-.460938.640625-.851563.867188-.382812.214843-.773437.320312-1.164062.292969-.390625-.019532-.742188-.148438-1.046875-.34375-.300781-.214844-.558594-.4375-.78125-.691407-.207031-.234375-.390625-.496093-.546875-.75l-.832032-1.453125 4.214844-2.40625c.449219.828125.742188 1.414063.878906 1.773438.078126.207031.167969.429687.21875.683594.058594.234374.097657.546874.125.933593.039063.363281-.039062.722657-.214843 1.09375"/><path d="m64.613281 194.351562c.164063-.164062.371094-.261718.644531-.300781.273438-.03125.488282.019531.636719.175781l.203125-.207031-2.550781-2.523437-8.433594 3.910156 3.894531-8.371094-2.554687-2.503906-.207031.214844c.148437.136718.199218.359375.160156.660156-.050781.292969-.160156.527344-.304688.664062-.382812.390626-3.070312 2.6875-8.0625 6.878907-.195312.175781-.449218.261719-.75.273437-.316406.007813-.539062-.050781-.714843-.214844l-.207031.214844 2.574218 2.53125.203125-.210937c-.15625-.15625-.214843-.34375-.195312-.597657.03125-.242187.136719-.457031.324219-.640624.097656-.109376.488281-.449219 1.183593-1.042969.683594-.585938 1.574219-1.355469 2.691407-2.300781 1.113281-.953126 1.953124-1.675782 2.523437-2.152344l-4.324219 9.316406.664063.652344 9.207031-4.191406c-3.453125 4.082031-5.234375 6.1875-5.3125 6.257812-.167969.164062-.382812.269531-.636719.308594-.253906.03125-.460937-.027344-.605469-.191406l-.214843.210937 3.011719 2.953125.207031-.195312c-.167969-.164063-.246094-.386719-.238281-.699219 0-.3125.089843-.554688.277343-.761719.078125-.105469.671875-.816406 1.796875-2.144531 1.125-1.332031 2.230469-2.628907 3.316406-3.925781 1.097657-1.265626 1.695313-1.957032 1.792969-2.046876"/><path d="m75.097656 208.570312c1.046875-1.5 1.398438-3.1875 1.046875-5.039062-.351562-1.851562-1.308593-3.324219-2.867187-4.414062-1.554688-1.089844-3.277344-1.480469-5.152344-1.179688-1.871094.304688-3.335938 1.199219-4.394531 2.699219-1.054688 1.5-1.40625 3.1875-1.046875 5.039062.351562 1.859375 1.320312 3.332031 2.875 4.421875 1.546875 1.082032 3.257812 1.472656 5.136718 1.179688 1.878907-.320313 3.347657-1.214844 4.402344-2.707032m-5.242187 1.109376c-1.300781.324218-2.496094.117187-3.5625-.613282-1.066407-.742187-1.671875-1.78125-1.816407-3.109375-.160156-1.3125.234376-2.640625 1.164063-3.972656 1.003906-1.433594 2.140625-2.273437 3.390625-2.554687 1.253906-.28125 2.429688-.039063 3.523438.730468 1.097656.75 1.730468 1.773438 1.898437 3.019532.175781 1.257812-.234375 2.601562-1.253906 4.027343-.917969 1.324219-2.042969 2.152344-3.34375 2.472657"/><path d="m87.648438 214.796875c1.496093-3.011719 2.269531-4.570313 2.328124-4.699219.097657-.203125.285157-.378906.558594-.503906.28125-.128906.519532-.148438.703125-.050781l.136719-.261719-3.257812-1.578125-.136719.253906c.195312.097657.332031.292969.390625.601563.058594.3125.050781.558594-.027344.742187l-2.738281 5.554688-3.152344-9.921875-2.84375-1.382813-.128906.261719c.34375.167969.558593.441406.675781.800781.097656.371094.097656.683594-.019531.917969l-4.578125 9.285156c-.117188.234375-.3125.410156-.585938.527344-.277344.117188-.519531.132812-.726562.027344l-.125.261718 3.265625 1.589844.136719-.253906c-.195313-.097656-.339844-.28125-.417969-.566406-.0625-.28125-.050781-.542969.078125-.789063l3.785156-7.707031 3.167969 9.902344-.46875.964844c-.117188.234374-.3125.40625-.597657.515624-.273437.125-.519531.136719-.714843.046876l-.136719.253906 3.277344 1.597656.128906-.273438c-.195312-.085937-.34375-.28125-.402344-.5625-.078125-.285156-.058594-.535156.070313-.789062.097656-.1875.878906-1.765625 2.355469-4.765625"/><path d="m112.300781 214.628906c-1.859375-.269531-3.550781.148438-5.078125 1.25-1.535156 1.101563-2.425781 2.5625-2.699218 4.363282-.265626 1.824218.164062 3.46875 1.308593 4.980468 1.136719 1.492188 2.644531 2.386719 4.5 2.660156 1.859375.273438 3.542969-.15625 5.070313-1.257812 1.523437-1.101562 2.414062-2.5625 2.6875-4.382812.265625-1.804688-.164063-3.460938-1.300782-4.953126-1.132812-1.507812-2.628906-2.386718-4.488281-2.660156m3.519531 7.25c-.242187 1.601563-.871093 2.835938-1.875 3.722656-1.007812.878907-2.152343 1.21875-3.425781 1.035157-1.28125-.195313-2.269531-.847657-2.992187-1.96875-.726563-1.109375-.960938-2.464844-.726563-4.082031.257813-1.714844.882813-2.984376 1.871094-3.792969.988281-.796875 2.140625-1.109375 3.441406-.925781 1.320313.195312 2.320313.808593 3.023438 1.851562.714843 1.042969.9375 2.4375.683593 4.160156"/><path d="m136.570312 227.726562c-.195312-.195312-.3125-.429687-.332031-.691406l-.960937-10.503906c-.019532-.234375.050781-.46875.226562-.710938.175782-.253906.351563-.398437.566406-.417968l-.019531-.292969-4.214843.378906.027343.28125c.214844-.007812.429688.097657.648438.324219.222656.234375.339843.445312.359375.652344l.960937 10.484375c.027344.253906-.050781.507812-.214843.75-.167969.234375-.375.359375-.597657.390625l.027344.300781 4.21875-.390625-.039063-.300781c-.234374.039062-.453124-.046875-.65625-.253907"/><path d="m151.847656 225.136719c-.339844-.175781-.566406-.382813-.691406-.605469-.070312-.136719-1.097656-1.949219-3.0625-5.449219-1.96875-3.496093-2.992188-5.308593-3.070312-5.445312l-3.355469.664062.058593.289063c.300782-.054688.488282.03125.535157.253906.011719.019531-.007813.253906-.039063.710938l-1.289062 11.003906c-.019532.28125-.148438.554687-.402344.828125-.246094.28125-.488281.449219-.722656.496093l.058594.28125 4.167968-.828124-.058594-.289063c-.1875.039063-.355468 0-.511718-.109375-.15625-.125-.253906-.300781-.292969-.496094-.019531-.109375-.019531-.214844 0-.320312.078125-.625.175781-1.296875.253906-2.019532l4.453125-.886718c.253906.46875.457032.828125.625 1.101562.167969.253906.265625.429688.3125.515625l.109375.148438c.066407.097656.097657.195312.117188.292969.039062.210937.007812.398437-.078125.582031-.097656.167969-.234375.265625-.421875.304687l.050781.28125 4.175781-.828125-.058593-.292969c-.246094.046876-.527344-.019531-.863282-.183593m-8.195312-2.730469c.039062-.359375.136718-1.304688.292968-2.816406.136719-1.507813.246094-2.503906.304688-3 .222656.398437.683594 1.257812 1.40625 2.570312.707031 1.308594 1.175781 2.175782 1.410156 2.585938zm0 0"/><path d="m177.195312 214.960938c-.265624-.117188-.460937-.28125-.578124-.542969l-4.675782-9.445313c-.097656-.203125-.117187-.445312-.039062-.738281.070312-.304687.195312-.488281.382812-.59375l-.128906-.273437-3.792969 1.859374.125.285157c.195313-.109375.429688-.078125.714844.046875.285156.136718.480469.292968.566406.476562l3.765625 7.582032c-.625 1.734374-1.476562 2.875-2.550781 3.410156-.402344.195312-.773437.3125-1.125.371094-.351563.046874-.65625.046874-.882813-.011719-.234374-.066407-.449218-.164063-.652343-.308594-.207031-.167969-.363281-.3125-.472657-.460937-.105468-.136719-.203124-.308594-.292968-.496094l-3.578125-7.230469c-.109375-.203125-.117188-.449219-.050781-.75.078124-.292969.207031-.488281.402343-.574219l-.136719-.28125-3.796874 1.871094.136718.28125c.195313-.089844.429688-.078125.714844.039062.285156.136719.46875.300782.558594.476563l3.597656 7.261719c.148438.28125.335938.542968.570312.816406.234376.253906.527344.496094.890626.730469.359374.214843.761718.378906 1.183593.476562.429688.109375.898438.117188 1.4375.039063.535157-.066406 1.085938-.230469 1.640625-.503906 1.5-.742188 2.601563-1.84375 3.296875-3.351563l.636719 1.285156 2.984375-1.472656-.136719-.261719c-.214844.097656-.449218.097656-.714844-.011718"/><path d="m190.449219 206.066406c-.28125-.070312-.496094-.214844-.65625-.441406-.105469-.152344-1.125-1.597656-3.050781-4.335938-1.925782-2.746093-2.933594-4.179687-3.011719-4.296874-.128907-.183594-.1875-.4375-.175781-.730469.019531-.300781.117187-.527344.292968-.640625l-.167968-.246094-2.960938 2.085938.164062.242187c.1875-.125.429688-.136719.722657-.046875.304687.097656.519531.222656.636719.378906l3.5625 5.058594-10.234376-2.035156-2.589843 1.820312.175781.234375c.300781-.214843.644531-.28125 1.027344-.207031.371094.078125.632812.246094.792968.460938l5.964844 8.449218c.15625.222656.214844.476563.1875.769532-.03125.308593-.136718.515624-.324218.640624l.15625.246094 2.984374-2.105468-.167968-.226563c-.175782.128906-.429688.167969-.703125.089844-.285157-.070313-.5-.214844-.664063-.449219l-4.949218-7.015625 10.242187 1.996094.625.878906c.144531.214844.214844.476563.175781.777344-.03125.304687-.136718.507812-.3125.636719l.164063.242187 2.976562-2.074219-.167969-.246094c-.1875.128907-.429687.15625-.714843.089844"/><path d="m195.507812 201.59375c-.273437-.039062-.507812-.167969-.695312-.382812l-6.972656-7.910157c-.148438-.175781-.234375-.398437-.253906-.710937-.011719-.292969.066406-.527344.222656-.671875l-.195313-.214844-3.179687 2.777344.195312.222656c.167969-.136719.402344-.175781.707032-.117187.3125.050781.546874.15625.671874.320312l6.976563 7.914062c.175781.195313.261719.429688.261719.742188.011718.28125-.078125.496094-.242188.652344l.203125.234375 3.179688-2.789063-.203125-.234375c-.167969.15625-.390625.207031-.675782.167969"/><path d="m196.898438 183.050781c.066406-.410156.195312-.714843.390624-.917969l-.214843-.195312-3.054688 3.292969.214844.207031c.148437-.15625.324219-.246094.519531-.253906.207032-.011719.371094.046875.539063.195312.125.105469.597656.914063 1.40625 2.375.804687 1.464844 1.597656 2.953125 2.359375 4.445313-1.527344-.644531-3.082032-1.304688-4.628906-1.996094-1.554688-.703125-2.394532-1.09375-2.503907-1.199219-.144531-.148437-.222656-.304687-.222656-.515625-.011719-.207031.058594-.390625.203125-.546875l-.203125-.195312-3.054687 3.273437.207031.195313c.195312-.195313.488281-.351563.890625-.449219.390625-.105469.722656-.105469.976562.011719 4.824219 2.113281 8.679688 3.828125 11.523438 5.125l.746094-.808594c-.988282-1.785156-2.996094-5.46875-5.996094-11.0625-.148438-.261719-.167969-.582031-.097656-.980469"/><path d="m220.421875 167.546875c-.417969.214844-.949219.378906-1.542969.515625-.617187.144531-1.136718.234375-1.578125.3125-.4375.066406-1.007812.136719-1.699219.203125-.707031.078125-1.144531.128906-1.3125.15625.109376-.195313.1875-.515625.207032-.917969.046875-.40625.019531-.855468-.039063-1.351562-.070312-.496094-.253906-.984375-.558593-1.472656-.304688-.488282-.703126-.867188-1.222657-1.128907-.480469-.246093-.980469-.351562-1.488281-.332031-.507812.027344-.976562.144531-1.417969.351562-.441406.203126-.851562.496094-1.261719.847657-.402343.371093-.742187.730469-1.035156 1.089843-.292968.378907-.539062.75-.734375 1.140626l-2.367187 4.570312.261718.144531c.109376-.214843.316407-.320312.628907-.378906s.554687-.039063.742187.058594l9.390625 4.8125c.226563.117187.410157.3125.519531.585937.105469.261719.117188.507813.007813.710938l.273437.148437 1.949219-3.761719-.273437-.136718c-.097656.203125-.292969.339844-.578125.40625-.273438.050781-.527344.019531-.773438-.09375l-3.804687-1.949219.734375-1.414063 6.621093-.535156 1.652344-3.199218-.292968-.132813c-.253907.28125-.585938.535156-1.007813.75m-7.894531 1.527344c-.085938.3125-.195313.605469-.332032.867187l-.773437 1.472656-4.324219-2.222656c.460938-.816406.792969-1.382812 1.007813-1.683594.136719-.1875.285156-.371093.460937-.558593.1875-.171875.421875-.378907.714844-.601563.304688-.226562.65625-.359375 1.054688-.398437.402343-.050781.792968.039062 1.195312.242187s.695312.476563.878906.808594c.195313.351562.285156.691406.265625 1.070312-.011719.363282-.058593.703126-.148437 1.003907"/><path d="m227.210938 148.25c-.253907.128906-.507813.15625-.78125.078125l-10.261719-2.550781c-.214844-.050782-.421875-.195313-.617188-.441406-.175781-.230469-.242187-.464844-.195312-.671876l-.285157-.066406-1.023437 4.09375.28125.066406c.050781-.203124.226563-.378906.507813-.496093.304687-.136719.539062-.175781.746093-.128907l10.261719 2.554688c.242188.058594.457031.214844.632812.449219.15625.234375.226563.46875.175782.691406l.296875.066406 1.027343-4.082031-.296874-.066406c-.058594.203125-.214844.378906-.46875.503906"/><path d="m125.664062 3.011719c-68.035156 0-123.394531 55.132812-123.394531 122.90625 0 67.78125 55.359375 122.925781 123.394531 122.925781 68.042969 0 123.390626-55.144531 123.390626-122.925781.011718-67.773438-55.347657-122.90625-123.390626-122.90625m0 240.941406c-65.328124 0-118.484374-52.941406-118.484374-118.035156 0-65.074219 53.15625-118.015625 118.484374-118.015625 65.332032 0 118.492188 52.941406 118.492188 118.015625 0 65.09375-53.148438 118.035156-118.492188 118.035156"/><path d="m99.328125 198.378906.507813-1.40625c-29.902344-10.796875-50.003907-39.335937-50.003907-71.054687 0-41.648438 34.019531-75.539063 75.832031-75.539063 41.816407 0 75.839844 33.890625 75.839844 75.539063 0 31.71875-20.101562 60.269531-50.007812 71.054687l.511718 1.40625c30.488282-11.003906 50.992188-40.121094 50.992188-72.460937 0-42.476563-34.695312-77.019531-77.335938-77.019531-42.640624 0-77.328124 34.542968-77.328124 77.019531 0 32.339843 20.492187 61.457031 50.992187 72.460937"/><path d="m94.171875 159.664062c0-.644531-.632813-.675781-.632813-.675781-2.601562 0-5.117187-.058593-5.117187 2.554688v.007812c0 2.632813 2.503906 2.566407 5.085937 2.554688v-.007813c.644532 0 .664063-.683594.664063-.683594zm0 0"/><path d="m93.5 128.742188c-2.574219-.007813-5.078125-.066407-5.078125 2.542968v.039063c0 2.613281 2.503906 2.5625 5.085937 2.5625.644532 0 .664063-.679688.664063-.679688v-3.78125c0-.652343-.671875-.683593-.671875-.683593"/><path d="m93.5 95.457031c-2.574219-.019531-5.070312-.078125-5.089844 2.210938v.039062c.070313 1.734375 2.222656 1.851563 5.089844 1.871094.574219 0 .644531-.496094.664062-.625v-2.835937c.007813-.640626-.664062-.660157-.664062-.660157"/><path d="m94.152344 75.050781-.007813-1.820312v1.820312zm0 0"/><path d="m100.425781 105.335938c1.816407-.496094 3.355469-1.441407 3.753907-3.109376.226562-.925781 1.242187-4.003906-2.367188-5.757812-.390625-.203125-.878906-.359375-1.40625-.476562-.636719 0-.65625.632812-.65625.632812v8.03125h.007812c-.007812.660156.667969.679688.667969.679688"/><path d="m93.5 101.683594v-.011719c-2.574219-.007813-5.070312-.078125-5.089844 2.234375v.019531c.070313 1.742188 2.222656 1.859375 5.089844 1.867188v-.007813c.574219 0 .644531-.476562.664062-.605468v-2.835938c.007813-.640625-.664062-.660156-.664062-.660156"/><path d="m94.171875 80.332031c0-.476562-.359375-.613281-.554687-.640625-2.613282-.011718-5.195313-.109375-5.195313 2.550782v.019531c0 2.621093 2.503906 2.5625 5.085937 2.5625.578126 0 .644532-.496094.664063-.613281zm0 0"/><path d="m157.152344 140.328125v-.007813c-2.574219 0-5.085938-.050781-5.085938 2.609376v.011718c0 2.667969 2.511719 2.601563 5.09375 2.601563v-.011719c.628906 0 .667969-.613281.667969-.671875v-3.847656c0-.664063-.675781-.683594-.675781-.683594"/><path d="m157.160156 91.140625c-2.582031-.011719-5.085937-.070313-5.085937 2.589844v.019531c0 2.671875 2.515625 2.613281 5.097656 2.601562.507813 0 .625-.410156.65625-.582031v-3.976562c-.03125-.625-.667969-.652344-.667969-.652344"/><path d="m194.960938 125.136719c0-38.121094-31.011719-69.019531-69.289063-69.019531-38.257813 0-69.285156 30.898437-69.285156 69.019531 0 38.132812 31.015625 69.019531 69.285156 69.019531 38.277344 0 69.289063-30.886719 69.289063-69.019531m-116.761719-27.3125c3.148437-.925781 3.914062-4.5625 8.421875-7.679688 1.710937-1.179687 4.460937-1.199219 6.898437-1.199219.574219 0 .644531-.496093.664063-.621093v-.761719c0-.652344-.664063-.664062-.664063-.664062v-.007813c-4.550781-.007813-7.523437-.300781-7.542969-4.65625.027344-4.355469 3.011719-4.640625 7.550782-4.660156v.011719c.578125 0 .644531-.488282.664062-.613282v-.984375c0-.65625-.664062-.675781-.664062-.675781h-5.488282c-.566406 0-1.035156-.484375-1.035156-1.03125 0-.585938.46875-1.050781 1.035156-1.050781h6.132813c4.011719 0 5.839844 1.519531 8.824219.90625 2.144531-.441407 2.996094-1.367188 3.777344-2.410157.996093-1.324218 2.964843-.300781 2.09375 1.257813-.824219 1.5-3.042969 4.121094-8.148438 3.597656-.109375-.011719-.195312-.019531-.292969-.050781-.570312 0-.65625.488281-.65625.625v15.855469h.007813c0 .417969.253906.574219.460937.621093 1.605469.273438 3.121094.78125 4.578125 1.792969 3.003906 2.078125 2.699219 6.761719 1.292969 8.984375-1.085937 1.726563-2.457031 2.984375-5.675781 3.34375v.019532c-.636719 0-.65625.644531-.65625.644531v1.332031h.011718c0 .613281.597657.652344.65625.652344h.058594c2.171875 0 4.3125.753906 5.203125 2.886718.558594 1.335938.722657 1.929688.871094 2.375 1.152344 3.511719-2.496094 4.503907-5.332031 3.492188-1.027344-.382812-1.085938-.480469-2.554688-.996094-1.164062-.398437-2.367187-.164062-3.1875.128906-1.496094.554688-1.59375.601563-3.121094 1.292969-.957031.429688-1.78125-1.011719-.917968-1.65625.800781-.582031 1.878906-.945312 3.238281-1.527343 1.984375-.847657 3.324219-.625 4.144531-.332032 1.683594.59375 1.046875.359375 2.59375.894532 2.132813.75 2.867188-.398438 2.425782-1.675782 0 0 0-.027344-.222657-.621094-.910156-2.378906-4.65625-2.136718-8.785156-2.136718-2.125 0-3.445313 1.570312-4.792969 3.050781-1.007812 1.101563-2.445312 2.40625-3.40625 3.214844-.96875.808593-1.957031.90625-2.433594.59375-.902343-.574219-.53125-1.597657.203126-1.78125.785156-.203125 1.300781-.820313 1.996093-1.460938.976563-.898437.714844-.496093 1.644531-1.480469.910157-.976562.910157-2.222656 0-2.640624-1.332031-.625-1.390624-.65625-2.230468-.996094-1.535156-.613282-.585938-2.582032.761718-2.027344 1.632813.664062 3.121094 1.363281 4.019532 1.414062.667968.039063 1.585937.039063 2.925781.027344v-.027344c.578125 0 .644531-.476562.664063-.605468v-1.246094c0-.652344-.664063-.664062-.664063-.664062-4.597656 0-7.542969 0-7.542969-3.964844 0-1.628906.433594-2.621094 1.175782-3.265625-.742188-.574219-1.175782-1.480469-1.175782-2.953125 0-4.363282 3.003906-4.375 7.554688-4.355469.574218 0 .644531-.484375.664062-.621094v-1.074219c0-.484374-.382812-.613281-.566406-.652343-1.175781-.019531-3.964844 0-5.390625.710937-1.925781.957032-3.375 2.828125-4.960937 5.097656-1.484376 2.113282-2.640626 2.601563-4.253907 3.15625-1.566406.476563-2.28125-1.742187-.851562-2.152343m1.320312 60.113281c-.558593.925781-2.09375.242188-1.625-.972656.558594-1.511719.589844-2.417969.109375-4.289063-.3125-1.257812-.097656-2.640625.46875-3.820312.558594-1.207031 2.210938-.585938 1.730469.691406-.671875 1.753906-.066406 2.796875.097656 5.007813.078125 1.054687-.214843 2.429687-.78125 3.382812m2.476563-.984375c.566406-1.511719.59375-2.417969.117187-4.289063-.324219-1.253906-.097656-2.640624.457031-3.816406.578126-1.210937 2.222657-.585937 1.742188.691406-.675781 1.753907-.078125 2.796876.089844 5.007813.085937 1.0625-.195313 2.4375-.773438 3.378906-.566406.9375-2.105468.253907-1.632812-.972656m27.457031 1.707031c-1.28125.484375-1.761719 2.023438-1.605469 4.089844.136719 1.96875.324219 9.636719.6875 13.253906.3125 3.058594-2.015625 3.605469-4.6875 2.574219-2.054687-.800781-4.265625-1.648437-7.296875-2.972656-3.140625-1.375-8.042969-.847657-11.257812-.847657-1.242188 0-2.28125-1.492187-1.449219-2.855468.734375-1.210938.234375-.515625 1.113281-1.804688.597657-.90625 1.214844-1.617187 3.152344-1.617187 1.554687 0 3.53125.011719 5.410156.011719v-.011719c.644531 0 .664063-.664063.664063-.664063v-.941406c0-.644531-.675782-.675781-.675782-.675781-4.539062-.007813-7.511718-.28125-7.550781-4.648438.039063-4.363281 3.011719-4.644531 7.5625-4.65625v-.007812c.644531 0 .664063-.675781.664063-.675781v-.933594c0-.457032-.34375-.59375-.539063-.632813h-5.605469c-.574218 0-1.035156-.46875-1.035156-1.054687 0-.574219.460938-1.042969 1.035156-1.042969h5.480469c.632813-.007813.652344-.660156.652344-.660156v-.9375c0-.652344-.671875-.679688-.671875-.679688h-5.460938c-.574218 0-1.035156-.476562-1.035156-1.054687 0-.574219.460938-1.03125 1.035156-1.03125h6.132813s1.898437 0 2.445313.027344c3.003906.195312 5.921874 2.332031 7.40625 1.425781.832031-.507813 1.703124-2.203125-1.898438-3.9375-1.769531-.859375-4.9375-1.042969-7.953125-1.042969h-6.132813c-.574218 0-1.035156-.488281-1.035156-1.042969 0-.574219.460938-1.042969 1.035156-1.042969h5.46875c.644532 0 .664063-.664062.664063-.664062v-.933594c0-.59375-.546875-.664062-.632813-.664062h-4.707031c-.578125 0-1.035156-.476563-1.035156-1.050782 0-.585937.457031-1.042968 1.035156-1.042968h4.675781c.644532 0 .664063-.671875.664063-.671875v-.925781c0-.644532-.671875-.652344-.671875-.652344v-.011719c-4.539062-.019531-7.515625-.292969-7.554688-4.65625.039063-4.355469 3.015626-4.640625 7.5625-4.660156v-.007813c.644532 0 .664063-.671875.664063-.671875v-.925781c0-.554688-.46875-.632812-.613281-.652344h-5.519532c-.574218 0-1.035156-.46875-1.035156-1.042968 0-.585938.460938-1.054688 1.035156-1.054688h6.132813c4.003906.011719 5.839844 1.519531 8.824219.90625 2.144531-.4375 3.6875-1.351562 5.773437-.117188 2.464844 1.484376.675781 6.636719.675781 11.507813v2.300781c0 1.472656-2.289062 1.460938-2.289062.011719v-2.40625c0-1.367187.867188-7.359375.371094-8.695313-.332032-.945312-1.496094-1.292968-2.5625-.847656-1.222656.507813-1.859375.585938-3.777344.480469-.273438-.011719-.546875-.039063-.820312-.089844-.597657.03125-.628907.652344-.628907.652344h-.007812v16.324219c.066406.542968.644531.5625.644531.5625v.039062c1.632812.285156 3.199219.78125 4.707031 1.753906 2.84375 1.832032 2.640625 5.242188.996094 6.617188-1.585937 1.355469-3.492187.945312-5.722656.246094-.507813.019531-.605469.4375-.625.59375v17.546875c0 .578125-.273438.878906-.734375.878906h-10.800782c-1.144531 0-2.433593 2.171875-1.203124 2.171875 1.253906 0 6.410156-.476562 9.726562.710938 2.667969.976562 4.292969 1.746093 6.824219 2.757812 2.703125 1.0625 2.886719-.59375 2.78125-1.9375-.109375-1.363281-.765625-8.820312-.726563-12.542969.039063-3.730469 1.910156-4.792969 3.121094-5.191406 1.398438-.449219 2.105469 1.625.734375 2.144531m28.308594-29.691406c-1.601563 1.34375-3.492188.945312-5.710938.230469-.527343.019531-.617187.46875-.636719.597656v44.511719c0 3.917968-2.035156 5.136718-4.832031 4.746094-.878906-.117188-2.671875-.382813-5.730469-1.277344-1.839843-.527344-3.042968-1.460938-3.042968-4.84375 0-.984375 0-10.484375.007812-17.890625l-.007812-.007813c0-1.949218.007812-13.117187.007812-14.257812 0-1.726563-.558594-2.242188-1.203125-2.582032-.566406-.28125-.714843-.371093-.714843-.371093-1.367188-.632813-.566407-2.589844.890624-1.96875 0 0 .65625.3125 1.527344.78125 1.800782.972656 1.632813 2.921875 1.632813 3.78125v31.101562c0 2.417969.3125 3.199219 1.730469 3.851563.421874.203125.253906.105468.253906.105468.929687.332032 3.925781.226563 3.925781-2.335937v-44.574219c-.019531-.613281-.65625-.640625-.65625-.640625v-.011719h-5.46875c-.578125 0-1.046875-.46875-1.046875-1.050781 0-.566406.46875-1.035156 1.046875-1.035156h6.125s1.898437 0 2.445313.039063c3.003906.1875 6.160156 2.332031 7.660156 1.425781.820312-.5 1.699218-3.441407-1.910156-5.175781-1.769532-.867188-5.183594-1.0625-8.195313-1.0625h-6.125c-.578125 0-1.046875-.476563-1.046875-1.042969 0-.585938.46875-1.042969 1.046875-1.042969h5.488281c.488282-.019531.617188-.398438.636719-.574219v-1.5c-.019531-.605469-.65625-.625-.65625-.625v-.019531h-5.46875c-.578125 0-1.046875-.476562-1.046875-1.050781 0-.566407.46875-1.054688 1.046875-1.054688h5.46875c.625 0 .65625-.59375.65625-.59375v-9.683593c-.019531-.625-.65625-.644532-.65625-.644532v-.050781c-.402344.304687-.96875.742187-1.710937 1.328125-1.007813.816406-1.449219 1.148438-1.449219 2.6875v1.015625c0 .835937.039062 2.046875-1.171875 2.902344-.726563.515625-1.207032.820312-1.917969 1.277343-1.476563.933594-4.050781.652344-4.050781-2.769531 0-1.402343.019531-6.148437.019531-7.824219 0-1.703124-.566406-2.230468-1.214844-2.5625-.566406-.300781-.710937-.378906-.710937-.378906-1.371094-.703125-.53125-2.554687.859375-1.910156 0 0 .664062.3125 1.527343.769531 1.808594.972657 1.660157 2.882813 1.660157 3.730469v7.503906c0 .984375.609375 1.734375 1.507812 1.179688.351563-.214844 0 0 .527344-.339844.648437-.4375.941406-1.648438.941406-2.308594 0-.773437-.011719.652344-.011719-1.277344 0-.878906.167969-2.019531 1.632813-3.003906.753906-.515625 2.398437-1.839844 3.257813-2.386718.3125-.195313.636718-.417969.960937-.351563v-.019531c2.101563.421875 2.980469.695312 4.507813 1.132812.761718.214844 1.066406.835938 1.066406 1.558594v15.492188c.011718.644531.675781.664062.675781.664062v.027344c1.625.285156 3.179687.773437 4.675781 1.753906 2.816406 1.851562 2.621094 6.511719.976563 7.90625m2.113281-40.324219c-.046875-4.191406.03125-9.898437-.507812-11.207031-.527344-1.285156-2.132813-.933594-2.308594.097656-.304688 1.929688-.027344 7.210938-.027344 12.054688 0 2.992187-1.636719 4.113281-4.875 2.632812-2.589844-1.210937-3.421875-1.628906-4.664062-1.863281-3.601563-.664063-7.738282-.457031-10.496094-.457031-1.242188 0-2.289063-1.492188-1.449219-2.855469.734375-1.207031.234375-.515625 1.117187-1.8125.59375-.886719 1.210938-1.597656 3.140626-1.597656h5.367187c.636719-.03125.648437-.671875.648437-.671875v-.925782c0-.644531-.675781-.664062-.675781-.664062v-.007812c-4.539062-.011719-7.511719-.304688-7.542969-4.660157.03125-4.570312 3.289063-4.65625 8.21875-4.65625 2.6875 0 5.574219.640625 5.574219 2.230469v10.535156c0 .574219-.273437.875-.734375.875h-10.757812c-1.144532 0-2.425782 2.164063-1.195313 2.164063 1.027344 0 5.636719-.03125 7.765625.242187 2.125.273438 3.289063.539063 5.265625 1.472656 2.640625 1.21875 2.964844-.066406 2.964844-2.027343 0-1.5-.039063-3.011719-.101563-7.980469-.046874-3.710938.832032-5.242188 3.433594-5.339844 2.800782-.105468 3.464844 1.570313 3.699219 3.984375.265625 2.757813.617187 11.421875.664063 13.886719.039062 1.824219.078124 2.71875-1.066407 2.691406-1.09375-.039062-1.386719-1.464844-1.457031-6.140625m2.691406 48.273438c-.558594.957031-2.082031.265625-1.625-.992188.566406-1.53125.597656-2.457031.117188-4.355469-.320313-1.269531-.097656-2.671874.449218-3.871093.570313-1.238281 2.222657-.59375 1.742188.703125-.675781 1.792968-.066406 2.84375.089844 5.078125.078125 1.089843-.195313 2.484375-.773438 3.4375m0-13.097657c-.558594.9375-2.082031.253907-1.625-1 .566406-1.542968.597656-2.449218.117188-4.359374-.320313-1.273438-.097656-2.679688.449218-3.875.570313-1.230469 2.222657-.597657 1.742188.691406-.675781 1.792968-.066406 2.855468.089844 5.09375.078125 1.082031-.195313 2.484375-.773438 3.449218m2.484375 12.105469c.566407-1.53125.597657-2.457031.109375-4.355469-.324218-1.269531-.089844-2.671874.457032-3.871093.558593-1.238281 2.222656-.59375 1.734374.703125-.675781 1.792968-.070312 2.84375.085938 5.078125.089844 1.097656-.195312 2.492187-.773438 3.449219-.539062.933593-2.082031.253906-1.613281-1.003907m.097657-17.453125c-.324219-1.277344-.085938-2.679687.460937-3.878906.558594-1.226562 2.21875-.59375 1.730469.691406-.675782 1.792969-.070313 2.855469.089844 5.097656.085937 1.070313-.199219 2.484376-.773438 3.449219-.550781.933594-2.09375.253907-1.625-1.003906.585938-1.550781.605469-2.457031.117188-4.355469m28.035156-20.53125s-.320313.183594-.890625.488282c-.644531.339843-1.203125.875-1.203125 2.621093 0 1.15625.011718 24.699219.019531 26.6875l-.019531.011719c.011718 6.78125.019531 15.09375.019531 20.890625 0 2.582031-1.464844 4.210937-3.382813 4.210937h-3.679687c-.632813.027344-.644531.679688-.644531.679688h-.019532v1.707031h.019532s.011718.664063.644531.671875h.019531c3.375 0 6.398438 1.460938 7.375 5.613282.695313 2.894531.402344 1.5.753906 3.527343.726563 4.160157-3.011718 5.164063-5.886718 3.957031-1.097656-.46875-3.53125-1.21875-4.765625-1.636718-1.378907-.46875-2.347657.136718-2.746094.601562-.863281 1.035156-2.75 2.933594-4.394531 4.628906-1.683594 1.734376-4.097656 4.550782-5.59375 6.042969-1.398438 1.402344-2.964844-.339843-1.8125-1.734375 1.410156-1.667968 7.652344-8.117187 10.15625-11.070312.359375-.417969 1.144531-1.238282 2.375-1.296875 2.269531-.066407 2.996094.519531 6.742187 1.941406 1.976563.75 3.6875.390625 3.316407-1.570313-.167969-.964843-.078126-.964843-.5-2.640624-.675782-2.71875-3.023438-4.25-5.027344-4.25h-12.386719c-.574219 0-1.035156-.496094-1.035156-1.070313s.460937-1.0625 1.035156-1.0625h5.488281c.609375-.007813.648438-.613281.648438-.613281v-1.773438c0-.554687-.453125-.644531-.609375-.671875h-5.527344c-.574219 0-1.035156-.488281-1.035156-1.0625 0-.585937.460937-1.0625 1.035156-1.0625h5.46875v-.007812c.628906 0 .667969-.617188.667969-.664063v-1.734375c0-.488281-.375-.625-.558594-.664062-4.617188 0-7.648438-.28125-7.660156-4.734375.019531-4.425782 3.011718-4.707032 7.550781-4.726563.628906 0 .667969-.613281.667969-.664062v-1.703125c0-.664063-.675782-.671875-.675782-.671875h-5.460937c-.574219 0-1.035156-.5-1.035156-1.0625 0-.59375.460937-1.074219 1.035156-1.074219h5.507813c.480468 0 .609374-.386719.628906-.5625v-1.832031c-.03125-.59375-.597656-.632813-.597656-.632813h-5.527344c-.578125 0-1.039063-.488281-1.039063-1.074218 0-.59375.460938-1.070313 1.039063-1.070313h5.476562c.511719 0 .628906-.402344.65625-.585937v-1.8125c-.027344-.574219-.539062-.644532-.625-.644532h-5.507812c-.578125 0-1.039063-.476562-1.039063-1.070312 0-.574219.460938-1.050782 1.039063-1.050782h5.476562v-.011718c.511719 0 .628906-.410156.65625-.574219v-1.824219c-.027344-.632812-.664062-.652344-.664062-.652344h-5.46875c-.578125 0-1.039063-.476562-1.039063-1.050781 0-.585937.460938-1.0625 1.039063-1.0625h5.476562c.511719 0 .628906-.410156.65625-.585937v-1.820313c-.027344-.605469-.585937-.644531-.644531-.644531h-5.488281c-.578125 0-1.039063-.488281-1.039063-1.070312 0-.574219.460938-1.0625 1.039063-1.0625h5.476562c.511719 0 .628906-.398438.65625-.59375v-7.386719c-.027344-.613281-.664062-.644531-.664062-.644531h-1.066406c-2.125 0-3.445313 1.589843-4.792969 3.109374-1.007813 1.121094-4.121094 4.335938-5.078125 5.144532-.957032.820312-1.957032.925781-2.4375.605468-.898438-.585937-.527344-1.609374.21875-1.824218.78125-.203125 1.300781-.816406 1.984375-1.449219.988281-.9375 2.394531-2.398437 3.304687-3.394531.910156-1.003906.910156-2.269532 0-2.699219-1.328125-.632813-1.386718-.652344-2.230468-1-1.523438-.617187-.574219-2.625.765624-2.058594 1.632813.671875 3.128907 1.382813 4.007813 1.441407 1.007813.050781 2.585937.011718 5.363281 0 .46875-.019532.597656-.398438.625-.582032v-1.824218c-.027344-.632813-.664062-.652344-.664062-.652344v-.007813c-4.539063-.019531-7.53125-.292969-7.550782-4.726562.019532-4.433594 3.011719-4.71875 7.558594-4.738281.511719 0 .628906-.40625.65625-.582032v-1.792968c-.027344-.578126-.566406-.625-.636718-.636719h-5.488282c-.574218 0-1.035156-.484375-1.035156-1.070313 0-.585937.460938-1.0625 1.035156-1.0625h14.136719c1.410156 0 1.59375-1.089844 1.125-1.78125-.449219-.664062-.832031-1.152344-1.230469-1.570312-.433594-.449219-1.125-.808594-1.832031-.914063-2.679687-.371093-8.488281-1.230469-9.027344-1.308593-.695312-.097657-1.988281-.3125-2.652343-1.761719-.34375-.742188-1.464844-3.324219-1.464844-3.324219-.238282-.535156.007812-1.160156.535156-1.394531.527344-.242188 1.144531 0 1.378906.527343 0 0 .929688 2.105469 1.105469 2.515626.433594.925781 1.125 1.3125 2.171875 1.480468.667969.097656 7.132812.984375 8.53125 1.207032 1.105469.15625 2.160156.691406 2.632812 1.210937.398438.4375 1.28125 1.566406 2.40625 2.980469 1.425782 1.8125-.011718 4.246094-2.203124 4.246094h-3.265626c-.648437 0-.667968.683593-.667968.683593v63.339844h.019531c0 .664063.667969.671875.667969.671875v.011719h2.277344c1.664062 0 2.613281-.695313 2.613281-2.953125v-47.085938c0-.867187-.089844-3.011718 1.722656-4.003906.859375-.460938 1.523437-.78125 1.523437-.78125 1.410157-.652344 2.496094 1.226562.988282 2.066406"/><path d="m125.820312 74.816406c0-.652344-.675781-.671875-.675781-.671875v-.007812c-2.582031-.011719-5.078125-.058594-5.078125 2.550781v.019531c0 2.621094 2.503906 2.5625 5.085938 2.554688.65625 0 .667968-.671875.667968-.671875zm0 0"/><path d="m100.6875 216.558594.207031.265625 2.523438-1.140625s-.539063-1.21875-1.398438-2.152344c-.324219-.351562-.765625-.703125-1.332031-1.074219-.554688-.359375-1.191406-.640625-1.867188-.847656-1.261718-.390625-2.515624-.4375-3.746093-.144531-1.222657.28125-2.289063.828125-3.171875 1.636718-.878906.796876-1.484375 1.761719-1.828125 2.882813-.3125 1.015625-.332031 2.097656-.046875 3.234375.28125 1.140625.847656 2.183594 1.71875 3.148438.863281.957031 1.910156 1.628906 3.152344 2.007812 2.082031.632812 3.84375.652344 5.273437.058594 0 0 .957031-.46875 1.125-1.011719l.90625-2.964844-3.765625-1.148437-.136719.449218c1.351563.40625 1.359375 1.441407 1.261719 1.742188l-.292969.964844c-1.027343.800781-2.257812.976562-3.675781.546875l-.070312-.019531c-1.203126-.378907-2.140626-1.210938-2.796876-2.496094-.664062-1.277344-.8125-2.5625-.421874-3.820313.460937-1.488281 1.273437-2.582031 2.457031-3.3125 1.183593-.71875 2.40625-.894531 3.6875-.507812 1.046875.324219 1.808593.820312 2.289062 1.511719.476563.691406.515625 1.09375.4375 1.589843-.066406.410157-.417969.5625-.488281.601563"/><path d="m230.273438 124.054688c0 .226562-.105469.441406-.332032.644531-.207031.175781-.449218.261719-.722656.261719l-3.621094-.058594-6.90625-3.417969c-.890625-.535156-1.035156-.90625-1.027344-1.402344l-.292968-.011719-.070313 4.042969.296875.011719c0-.285156.273438-.527344.605469-.410156.117187.039062 3.480469 1.636718 4.9375 2.320312-1.476563.640625-4.898437 2.125-5.015625 2.152344-.34375.097656-.597656-.15625-.597656-.429688l-.304688-.007812-.066406 4.054688.292969.007812c.007812-.496094.167969-.859375 1.074219-1.363281l7.035156-3.195313 3.609375.058594c.265625 0 .5.105469.703125.300781.214844.195313.316406.410157.316406.632813l.300781.007812.070313-4.179687zm0 0"/><path d="m222.839844 153.503906c-.644532-.253906-1.292969-.234375-1.90625-.078125-.597656.15625-1.125.429688-1.585938.828125-.46875.390625-.910156.847656-1.332031 1.375-.417969.523438-.820313 1.0625-1.203125 1.585938-.261719.382812-.519531.761718-.773438 1.082031-.351562.429687-.710937.78125-1.085937.996094-.878906.503906-1.503906.039062-1.738281-.292969-.667969-.90625-.433594-2.300781.058594-3.34375.800781-1.714844 2.316406-3.203125 3.734374-2.953125l.109376-.339844-1.664063-.515625-.800781-.253906-1.664063-.515625-.105469.339844c.761719.234375.527344.886719.359376 1.09375-1.125 1.507812-1.730469 3.175781-1.925782 4.402343-.488281 2.941407 1.066406 4.425782 2.003906 4.785157.644532.253906 1.292969.234375 1.898438.078125.597656-.15625 1.136719-.417969 1.585938-.828125.46875-.390625.910156-.847657 1.328124-1.375.421876-.527344.824219-1.0625 1.195313-1.589844.261719-.378906.519531-.757813.78125-1.078125.34375-.429688.703125-.78125 1.085937-.996094.878907-.507812 1.507813-.027344 1.742188.292969.664062.90625.429688 2.300781-.058594 3.34375-.804687 1.722656-2.496094 3.777344-3.921875 3.527344l-.109375.339843 1.664063.515626.800781.246093 1.664062.515625.105469-.34375c-.761719-.230468-.527343-.886718-.359375-1.089844 1.125-1.5 1.90625-3.75 2.113282-4.980468.488281-2.921875-1.066407-4.402344-1.996094-4.773438"/><path d="m128.683594 227.621094h-5.398438v-10.601563c0-.234375.097656-.460937.304688-.703125.203125-.234375.417968-.339844.625-.339844v-.304687h-4.285156v.304687c.214843 0 .421874.117188.617187.359376.195313.253906.292969.476562.292969.683593v10.570313c0 .265625-.097656.507812-.285156.722656-.183594.222656-.398438.332031-.625.332031v.3125h10.378906v-2.738281h-.351563c0 .757812-.636719 1.402344-1.273437 1.402344"/><path d="m33.0625 167.546875-.125-.324219c-.703125.285156-1.535156-.058594-1.769531-.652344l-2.054688-5.019531 5.085938-2.0625 1.328125 3.242188c.109375.253906.128906.539062.078125.859375-.039063.332031-.144531.515625-.3125.585937l.128906.300781 2.652344-1.082031-.121094-.300781c-.175781.066406-.398437 0-.664063-.207031-.261718-.214844-.4375-.417969-.539062-.652344l-1.328125-3.246094 3.519531-1.429687 1.714844 4.1875.339844.828125c.234375.585937-.117188 1.414062-.8125 1.695312l.128906.324219 2.535156-1.035156-.667968-1.625-3.285157-8.03125-.273437.117187c.085937.214844.058594.449219-.089844.722657-.164062.28125-.332031.449218-.527344.535156l-9.792968 3.976562c-.242188.097656-.507813.105469-.78125.007813-.285157-.097657-.460938-.253907-.558594-.476563l-.292969.117188 3.414063 8.339844.539062 1.316406zm0 0"/><path d="m212.128906 178.859375c.613282.429687.78125 1.316406.410156 1.832031l-3.121093 4.433594-4.5-3.136719 2.015625-2.875c.15625-.226562.382812-.402343.683594-.527343.292968-.144532.507812-.15625.667968-.046876l.183594-.265624-2.347656-1.636719-.1875.261719c.160156.109374.21875.332031.1875.675781-.039063.328125-.117188.59375-.265625.796875l-2.011719 2.875-3.113281-2.171875 2.601562-3.703125.519531-.730469c.363282-.519531 1.261719-.671875 1.878907-.246094l.195312-.28125-2.238281-1.558593-1.019531 1.441406-4.988281 7.105468.246093.175782c.136719-.1875.351563-.292969.652344-.324219.324219-.007813.570313.03125.734375.15625l8.65625 6.042969c.214844.144531.363281.359375.433594.640625.066406.285156.039062.527343-.097656.722656l.253906.175781 4.566406-6.492187 1.449219-2.054688-2.242188-1.558593zm0 0"/><path d="m229.023438 138.488281c-.238282.15625-.480469.214844-.753907.164063l-10.515625-1.566406.398438-2.632813c.097656-.625.84375-1.160156 1.59375-1.042969l.050781-.339844-2.710937-.398437-.371094 2.484375-.890625 5.914062-.371094 2.472657 2.710937.410156.046876-.339844c-.742188-.117187-1.308594-.839843-1.210938-1.472656v-.027344l.390625-2.59375 10.515625 1.570313c.265625.039062.480469.164062.664062.390625.195313.214843.265626.425781.226563.652343l.304687.046876.632813-4.207032-.300781-.050781c-.039063.214844-.175782.410156-.410156.566406"/></g></svg>