<svg xmlns:inkscape="http://www.inkscape.org/namespaces/inkscape" xmlns:sodipodi="http://sodipodi.sourceforge.net/DTD/sodipodi-0.dtd" xmlns="http://www.w3.org/2000/svg" xmlns:svg="http://www.w3.org/2000/svg" width="316.22776601683796" height="316.22776601683796" viewBox="0 0 86.285561 86.285912" version="1.1" id="svg1" inkscape:version="1.4 (e7c3feb1, 2024-10-09)" sodipodi:docname="Jianghan University Emblem.svg">
  <sodipodi:namedview id="namedview1" pagecolor="#ffffff" bordercolor="#000000" borderopacity="0.25" inkscape:showpageshadow="2" inkscape:pageopacity="0.0" inkscape:pagecheckerboard="0" inkscape:deskcolor="#d1d1d1" inkscape:document-units="mm" inkscape:zoom="1" inkscape:cx="203.5" inkscape:cy="-29" inkscape:current-layer="layer1"/>
  <defs id="defs1">
    <clipPath clipPathUnits="userSpaceOnUse" id="clipPath2">
      <path d="M 0,473 H 841 V 0 H 0 Z" transform="translate(-514.98442,-298.33761)" id="path2"/>
    </clipPath>
  </defs>
  <g inkscape:label="图层 1" inkscape:groupmode="layer" id="layer1" transform="translate(-51.32917,-156.10416)">
    <path id="path1" d="M 0,0 -0.14,0.109 -0.217,0.123 -0.296,0.138 -0.374,0.153 -0.451,0.168 -0.559,0.231 -0.637,0.247 -0.715,0.26 -0.793,0.276 -0.916,0.26 -0.994,0.276 -1.073,0.29 -1.195,0.276 -1.274,0.29 -1.444,0.244 -1.522,0.259 -1.598,0.273 -1.722,0.259 -1.893,0.21 -2.064,0.163 -2.327,0.055 -2.591,-0.057 -3.333,-0.553 -3.859,-0.975 -4.016,-1.146 -4.077,-1.255 -4.138,-1.364 -4.202,-1.474 -4.26,-1.582 -4.462,-1.785 -4.571,-1.925 -4.586,-2.001 -4.647,-2.112 -4.664,-2.188 -4.678,-2.267 -4.695,-2.344 -4.756,-2.452 -4.785,-2.608 -4.817,-2.763 -4.832,-2.84 -4.893,-2.95 -4.908,-3.027 -4.924,-3.105 -4.94,-3.182 l -0.015,-0.079 0.047,-0.169 -0.015,-0.078 0.047,-0.17 0.017,-0.125 0.015,-0.124 0.015,-0.124 0.047,-0.171 0.079,-0.215 -0.015,-0.079 0.374,-0.557 0.14,-0.109 0.11,-0.061 0.075,-0.016 0.08,-0.014 0.154,-0.031 0.079,-0.015 0.17,0.047 0.31,0.142 0.96,0.577 0.672,-0.898 0.107,-0.063 0.11,-0.061 0.109,-0.061 0.078,-0.016 0.076,-0.015 0.078,-0.015 0.078,-0.016 0.077,-0.014 0.077,-0.016 0.171,0.047 0.171,0.048 0.078,-0.018 0.216,0.081 0.217,0.078 0.217,0.078 0.123,0.016 0.17,0.047 0.171,0.047 0.124,0.016 0.125,0.015 0.124,0.018 0.124,0.014 0.125,0.018 0.216,0.078 0.079,-0.016 0.076,-0.015 0.094,0.061 -0.125,0.187 -0.141,0.108 -0.108,0.062 -0.109,0.061 -0.078,0.015 -0.076,0.017 -0.078,0.013 -0.11,0.063 -0.107,0.061 -0.11,0.062 -0.125,0.186 0.016,0.078 0.014,0.077 0.033,0.155 0.013,0.078 -0.015,0.124 0.014,0.078 -0.016,0.124 0.016,0.078 -0.016,0.123 -0.047,0.171 -0.015,0.123 -0.531,0.79 -0.17,0.154 -0.032,0.048 0.015,0.078 0.154,0.171 0.109,0.139 0.014,0.078 0.11,0.14 0.014,0.078 0.015,0.078 0.017,0.077 0.015,0.077 0.014,0.078 0.015,0.077 -0.017,0.125 -0.013,0.125 0.013,0.077 -0.14,0.309 -0.046,0.171 -0.125,0.185 z m -4.622,-14.492 0.062,-0.093 0.092,0.064 -0.061,0.092 z m 3.088,4.432 0.203,-0.2 1.028,-1.533 -0.015,-0.077 0.235,-0.449 0.171,-0.356 -0.014,-0.078 0.139,-0.312 0.047,-0.168 0.017,-0.125 0.046,-0.17 0.048,-0.171 v -0.202 l -0.013,-0.077 0.045,-0.17 -0.016,-0.078 0.016,-0.124 -0.015,-0.078 0.015,-0.124 -0.014,-0.079 -0.015,-0.077 -0.015,-0.077 -0.015,-0.078 0.001,-0.202 -0.017,-0.076 -0.061,-0.11 -0.014,-0.079 -0.062,-0.108 -0.015,-0.076 -0.063,-0.109 -0.014,-0.079 -0.016,-0.078 -0.06,-0.108 -0.062,-0.109 -0.015,-0.077 -0.064,-0.11 -0.061,-0.106 -0.062,-0.112 -0.2,-0.201 -0.976,-0.654 -0.124,-0.016 -0.078,0.016 -0.124,-0.017 -0.079,0.015 -0.123,-0.016 -0.078,0.015 -0.123,-0.015 -0.078,0.015 -0.077,0.014 -0.079,0.015 -0.124,-0.015 -0.076,0.015 -0.078,0.016 -0.078,0.014 -0.188,0.077 -0.075,0.017 -0.125,-0.017 -0.109,0.061 -0.078,0.016 -0.077,0.015 -0.077,0.017 -0.109,0.061 -0.108,0.059 -0.111,0.063 -0.171,0.155 -0.14,0.108 -0.623,0.93 -0.296,0.541 0.014,0.077 0.095,0.063 0.076,-0.015 0.078,-0.015 0.203,-0.201 0.076,-0.017 0.078,-0.014 0.078,-0.016 0.076,-0.014 0.079,-0.015 -0.28,0.417 -0.063,0.093 -0.016,0.124 0.185,0.124 0.171,0.047 0.14,-0.108 0.077,-0.014 0.11,-0.063 0.108,-0.061 0.11,-0.061 0.109,-0.061 0.076,-0.016 0.11,-0.062 0.11,-0.062 0.075,-0.015 0.079,-0.015 0.079,-0.016 0.122,0.017 0.078,-0.015 0.079,-0.015 0.107,-0.063 0.125,0.017 0.077,-0.017 0.077,-0.015 0.079,-0.016 0.093,-0.137 0.14,0.093 0.124,0.017 0.372,0.248 0.107,0.14 0.015,0.078 0.017,0.077 -0.017,0.124 0.017,0.078 0.014,0.078 0.015,0.076 -0.048,0.171 0.016,0.079 -0.017,0.123 -0.046,0.17 -0.018,0.125 -0.044,0.17 -0.048,0.171 -0.079,0.217 -0.141,0.309 -1.091,1.626 -0.172,0.154 -0.233,0.248 -0.171,0.156 -0.171,0.154 -0.172,0.153 -0.108,0.063 -0.234,0.248 -0.14,0.107 -0.202,0.201 -0.108,0.062 -0.141,0.108 -0.171,0.155 -0.11,0.062 -0.107,0.061 -0.109,0.061 -0.109,0.062 -0.141,0.108 -0.076,0.016 -0.078,0.015 -0.17,0.154 -0.173,0.156 -0.108,0.061 -0.078,0.015 -0.108,0.062 -0.08,0.015 -0.108,0.061 -0.139,0.109 -0.124,-0.017 -0.078,0.017 -0.078,0.015 -0.139,0.107 -0.205,0.202 -0.076,0.015 -0.109,0.061 -0.155,0.031 -0.109,0.062 -0.078,0.014 -0.171,0.155 -0.077,0.015 -0.079,0.017 -0.107,0.061 -0.078,0.014 -0.11,0.062 -0.108,0.063 -0.171,0.153 -0.109,0.063 -0.125,-0.017 -0.076,0.015 -0.078,0.015 -0.078,0.016 -0.078,0.015 -0.078,0.016 -0.077,0.015 -0.079,0.015 -0.108,0.063 -0.155,0.029 -0.078,0.017 -0.076,0.014 -0.078,0.015 -0.08,0.015 -0.075,0.015 -0.077,0.016 -0.078,0.015 -0.11,0.061 -0.077,0.017 -0.11,0.061 -0.076,0.015 -0.125,-0.015 -0.077,0.014 -0.076,0.016 -0.079,0.015 -0.109,0.062 -0.109,0.061 -0.078,0.015 -0.077,0.015 -0.077,0.016 -0.079,0.016 -0.078,0.015 -0.077,0.015 -0.108,0.061 -0.124,-0.016 -0.079,0.016 -0.139,0.108 -0.078,0.015 -0.078,0.015 -0.078,0.016 -0.078,0.016 -0.077,0.014 -0.079,0.014 -0.076,0.017 -0.078,0.015 -0.109,0.061 -0.077,0.017 -0.078,0.014 -0.077,0.015 -0.079,0.014 -0.154,0.032 -0.078,0.015 -0.077,0.015 -0.078,0.015 -0.078,0.016 -0.155,0.031 -0.078,0.015 -0.077,0.015 -0.078,0.014 -0.078,0.017 -0.108,0.061 -0.077,0.016 -0.078,0.015 -0.11,0.062 -0.078,0.014 -0.076,0.017 -0.078,0.014 -0.156,0.031 -0.076,0.015 -0.08,0.015 -0.106,0.063 -0.156,0.029 -0.156,0.031 -0.11,0.062 -0.109,0.062 -0.076,0.015 -0.078,0.015 -0.109,0.061 -0.108,0.062 -0.079,0.016 -0.109,0.06 -0.14,0.108 -0.107,0.063 -0.202,0.201 -0.172,0.155 -0.25,0.372 -0.016,0.124 -0.047,0.169 v 0.202 l 0.015,0.078 0.015,0.078 0.061,0.108 0.062,0.109 0.06,0.11 0.158,0.171 0.23,0.155 0.218,0.078 0.125,0.017 0.123,0.015 0.123,0.017 0.219,0.078 0.108,-0.061 0.17,0.046 0.171,0.047 0.124,0.017 0.125,0.015 0.076,-0.014 0.077,-0.017 0.079,-0.015 0.077,-0.015 0.078,-0.014 0.078,-0.017 0.032,-0.047 -0.016,-0.077 -0.015,-0.078 -0.016,-0.077 -0.372,-0.25 -0.216,-0.078 -0.093,-0.062 -0.063,-0.108 -0.061,-0.109 0.063,-0.095 0.077,-0.013 0.141,-0.109 0.109,-0.061 0.078,-0.016 0.108,-0.062 0.078,-0.014 0.076,-0.017 0.078,-0.013 0.078,-0.017 0.172,-0.154 0.076,-0.016 0.079,-0.014 0.077,-0.017 0.078,-0.015 0.077,-0.015 0.078,-0.014 0.077,-0.017 0.079,-0.014 0.077,-0.015 0.076,-0.016 0.11,-0.062 0.078,-0.014 0.078,-0.015 0.108,-0.063 0.124,0.015 0.077,-0.014 0.079,-0.015 0.107,-0.061 0.079,-0.017 0.077,-0.013 0.11,-0.063 0.078,-0.015 0.123,0.015 0.078,-0.014 0.078,-0.017 0.122,0.018 0.08,-0.016 0.078,-0.016 0.108,-0.061 0.077,-0.015 0.108,-0.063 0.078,-0.015 0.078,-0.015 0.078,-0.014 0.11,-0.062 0.077,-0.015 0.107,-0.063 0.125,0.016 0.11,-0.061 0.076,-0.016 0.08,-0.015 0.076,-0.015 0.078,-0.014 0.078,-0.015 0.076,-0.017 0.109,-0.061 0.155,-0.031 0.077,-0.015 0.079,-0.015 0.078,-0.014 0.077,-0.017 0.078,-0.015 0.078,-0.014 0.108,-0.063 0.078,-0.017 0.124,0.017 0.14,-0.107 0.078,-0.015 0.078,-0.016 0.078,-0.015 0.078,-0.015 0.076,-0.015 0.078,-0.016 0.109,-0.061 0.078,-0.015 0.139,-0.109 0.109,-0.061 0.108,-0.062 0.079,-0.016 0.107,-0.061 0.08,-0.015 0.077,-0.016 0.077,-0.015 0.079,-0.016 0.076,-0.015 0.079,-0.015 0.107,-0.063 0.079,-0.013 0.078,-0.016 0.108,-0.062 0.109,-0.062 0.124,0.016 0.078,-0.014 0.108,-0.062 0.078,-0.016 0.109,-0.061 0.14,-0.109 0.079,-0.014 0.077,-0.015 0.171,-0.156 0.078,-0.015 0.078,-0.014 0.108,-0.062 0.077,-0.016 0.11,-0.062 0.108,-0.06 0.108,-0.062 0.141,-0.11 0.123,0.017 0.172,-0.155 0.107,-0.062 0.079,-0.014 0.141,-0.108 0.109,-0.063 0.139,-0.108 0.079,-0.016 0.108,-0.061 0.108,-0.061 0.14,-0.108 0.203,-0.202 0.108,-0.061 0.141,-0.108 0.141,-0.108 0.108,-0.061 0.139,-0.11 0.141,-0.107 0.2,-0.202 0.142,-0.107 0.141,-0.109 0.139,-0.108 0.171,-0.155 0.357,-0.432 z m -2.216,-5.329 h -0.202 m -1.215,1.408 -0.092,-0.065 -0.063,0.095 -0.079,0.014 -0.124,-0.014 -0.077,0.014 -0.139,-0.093 -0.016,-0.078 0.08,-0.217 -0.017,-0.076 0.078,-0.217 0.219,-0.326 0.078,-0.017 0.078,-0.014 0.078,-0.015 0.046,0.031 0.014,0.078 0.016,0.078 0.015,0.077 -0.016,0.124 0.295,0.265 -0.047,0.17 -0.156,0.233 z m -4.149,2.064 0.17,-0.154 0.655,-0.976 0.017,-0.124 -0.017,-0.077 -0.014,-0.078 0.047,-0.171 0.017,-0.123 0.014,-0.123 -0.014,-0.078 -0.017,-0.08 0.019,-0.124 -0.063,-0.108 -0.061,-0.109 -0.063,-0.108 -0.373,-0.25 -0.215,-0.078 -0.124,-0.016 -0.217,-0.077 -0.171,-0.048 -0.124,-0.016 -0.078,0.015 -0.078,0.015 -0.078,0.015 -0.076,0.016 -0.078,0.015 -0.078,0.015 -0.078,0.016 -0.076,0.014 -0.171,-0.046 -0.079,0.015 -0.108,0.061 -0.171,-0.047 -0.078,0.015 -0.078,0.016 -0.076,0.015 -0.109,0.062 -0.078,0.016 -0.079,0.015 -0.075,0.015 -0.126,-0.017 -0.077,0.016 -0.078,0.015 -0.123,-0.016 -0.079,0.016 -0.078,0.015 -0.155,0.03 -0.124,-0.016 -0.077,0.014 -0.078,0.015 -0.169,-0.045 -0.124,-0.017 -0.08,0.017 -0.076,0.014 -0.078,0.015 -0.078,0.015 -0.125,-0.015 -0.217,-0.079 -0.122,-0.016 -0.078,0.016 -0.124,-0.016 -0.078,0.016 -0.263,-0.112 -0.095,-0.061 -0.075,-0.186 0.016,-0.124 0.016,-0.125 0.016,-0.123 0.343,-0.512 0.139,-0.108 0.11,-0.061 0.171,-0.155 0.171,-0.153 0.201,-0.201 0.142,-0.11 0.139,-0.109 0.172,-0.155 0.107,-0.059 0.234,-0.248 0.171,-0.155 0.203,-0.201 0.203,-0.2 0.265,-0.295 0.216,-0.324 0.08,-0.218 0.016,-0.124 -0.015,-0.077 0.017,-0.125 -0.017,-0.077 -0.015,-0.078 -0.015,-0.078 -0.109,-0.14 -0.061,-0.108 -0.015,-0.077 -0.015,-0.079 -0.062,-0.107 -0.278,-0.188 -0.078,0.016 -0.171,-0.048 -0.17,-0.049 -0.125,-0.013 -0.078,0.013 -0.124,-0.015 -0.076,0.015 -0.109,0.061 -0.108,0.062 -0.111,0.062 -0.109,0.062 -0.077,0.015 -0.312,0.465 -0.249,0.371 -0.217,-0.078 -0.016,-0.078 -0.013,-0.076 -0.062,-0.11 -0.033,-0.156 -0.014,-0.078 -0.062,-0.108 -0.061,-0.108 -0.061,-0.11 -0.016,-0.078 -0.155,-0.169 -0.061,-0.11 -0.837,-0.562 -0.124,-0.015 -0.124,-0.017 -0.123,-0.015 -0.125,-0.016 -0.124,-0.016 -0.171,-0.046 -0.156,0.029 -0.122,-0.015 -0.171,-0.047 -0.078,0.015 -0.078,0.015 -0.108,0.061 -0.078,0.015 -0.078,0.016 -0.077,0.015 -0.125,-0.016 -0.076,0.016 -0.08,0.014 -0.076,0.015 -0.14,0.109 -0.078,0.015 -0.079,0.015 -0.201,0.201 -0.171,0.156 -0.234,0.246 -0.108,0.062 -0.234,0.248 -0.171,0.154 -0.234,0.248 -0.124,0.185 -0.142,0.31 -0.047,0.17 -0.015,0.125 -0.015,0.124 0.062,0.108 0.138,0.094 0.078,-0.014 0.076,-0.017 0.047,0.032 0.233,0.156 0.076,-0.015 0.078,-0.016 0.08,-0.015 0.108,-0.061 0.076,-0.016 0.11,-0.061 0.109,-0.064 0.078,-0.014 0.139,-0.107 0.078,-0.015 0.076,-0.017 0.125,0.017 0.109,-0.063 0.077,-0.014 0.079,-0.015 0.076,-0.015 0.078,-0.016 0.079,-0.015 0.076,-0.017 0.171,0.048 0.327,0.218 0.107,0.14 0.062,0.11 0.063,0.109 0.013,0.078 0.015,0.076 0.015,0.078 -0.015,0.125 -0.017,0.123 -0.015,0.125 0.015,0.078 0.015,0.076 -0.015,0.124 -0.016,0.124 -0.062,0.095 -0.374,0.556 -0.157,0.232 -0.078,0.016 -0.077,0.015 -0.094,0.139 -0.093,0.139 -0.078,0.017 -0.077,0.014 -0.11,0.061 -0.076,0.015 -0.078,0.017 -0.078,0.014 -0.076,0.015 -0.111,0.063 -0.076,0.015 -0.079,0.016 -0.077,0.015 -0.078,0.015 -0.154,0.03 -0.125,-0.016 -0.109,0.061 -0.078,0.016 -0.078,0.015 -0.076,0.015 -0.186,0.078 -0.078,0.014 -0.078,0.017 -0.078,0.014 -0.078,0.016 -0.108,0.062 -0.109,-0.14 0.017,-0.125 0.014,-0.124 -0.061,-0.109 -0.109,-0.14 -0.014,-0.078 0.015,-0.124 -0.014,-0.077 -0.015,-0.078 -0.017,-0.078 0.188,-0.278 0.155,-0.233 0.111,-0.263 0.015,-0.125 -0.015,-0.076 -0.278,-0.187 -0.202,0.201 -0.171,0.154 -0.14,0.109 -0.422,0.525 -0.592,0.882 -0.047,0.172 -0.111,0.262 0.015,0.077 0.017,0.078 0.014,0.079 0.016,0.076 0.155,0.172 0.185,0.125 0.403,0.203 0.123,0.015 0.079,-0.014 0.124,0.016 0.078,-0.016 0.17,-0.154 0.141,-0.109 0.141,-0.108 0.108,-0.061 0.077,-0.016 0.156,-0.03 0.125,0.017 0.075,-0.017 0.11,-0.06 0.078,-0.017 0.078,-0.014 0.076,-0.016 0.126,0.018 0.077,-0.017 0.078,-0.015 0.109,-0.062 0.109,-0.061 0.154,-0.032 0.171,0.048 0.124,0.015 0.078,-0.014 0.14,-0.109 0.122,0.017 0.08,-0.015 0.124,0.015 0.122,0.017 0.125,0.015 0.512,0.344 0.014,0.076 -0.015,0.126 0.015,0.076 0.015,0.078 -0.016,0.125 0.016,0.077 0.015,0.078 0.015,0.078 0.108,0.139 0.015,0.077 0.063,0.11 0.014,0.077 0.062,0.108 0.015,0.078 0.108,0.141 0.063,0.108 0.154,0.171 0.558,0.374 0.215,0.079 0.219,0.079 0.078,-0.017 0.123,0.018 0.124,0.014 0.078,-0.014 0.078,-0.015 0.263,0.109 0.124,0.016 0.169,0.047 0.079,-0.015 0.171,0.047 0.123,0.016 0.125,0.016 0.17,0.046 0.077,-0.014 0.125,0.015 0.078,-0.015 0.124,0.017 0.171,0.048 0.124,0.015 0.137,0.093 0.017,0.078 -0.048,0.171 -0.015,0.124 -0.047,0.169 -0.017,0.125 -0.016,0.124 0.015,0.077 0.032,0.157 -0.017,0.122 0.015,0.079 0.016,0.077 0.063,0.108 0.015,0.079 0.061,0.108 0.015,0.078 0.199,0.202 0.373,0.25 0.218,0.078 0.124,0.017 0.078,-0.016 0.077,-0.016 0.077,-0.014 0.451,-0.572 0.266,-0.295 0.123,-0.186 0.049,-0.171 -0.015,-0.077 0.249,-0.371 0.234,-0.248 0.11,-0.062 0.137,-0.108 z m -125.395,37.752 -0.011,-0.125 0.031,-0.23 0.083,-0.208 0.155,0.062 0.012,0.127 0.031,0.071 0.03,0.073 -0.04,0.103 -0.021,0.053 -0.083,0.208 -0.156,-0.062 z m 3.614,19.376 0.136,0.114 0.727,0.29 0.125,-0.01 0.073,-0.032 0.072,-0.032 0.073,-0.031 0.094,-0.083 0.093,-0.083 0.227,-0.572 -0.01,-0.124 -0.011,-0.126 -0.032,-0.072 -0.011,-0.126 0.051,-0.28 -0.031,-0.072 0.031,-0.228 0.031,-0.23 -0.01,-0.124 0.061,-0.157 0.209,0.084 0.448,0.239 0.186,0.133 0.602,0.3 0.135,0.115 0.397,0.217 0.551,0.278 0.187,0.135 0.136,0.114 0.29,0.177 0.78,0.309 0.124,-0.01 0.125,-0.011 0.073,-0.032 0.125,-0.01 0.073,-0.032 0.072,-0.03 0.073,-0.033 0.092,-0.083 0.093,-0.084 0.074,-0.03 0.155,-0.239 0.02,-0.052 0.114,-0.437 -0.011,-0.123 0.011,-0.178 -0.084,-0.094 -0.084,-0.093 -0.082,-0.092 -0.083,-0.094 -0.084,-0.094 -0.135,-0.113 -0.083,-0.095 -0.137,-0.113 -0.237,-0.156 -0.293,-0.175 -0.186,-0.135 -0.292,-0.175 -0.291,-0.177 -0.186,-0.134 -0.292,-0.176 -0.447,-0.238 -0.241,-0.156 -0.29,-0.175 -0.084,-0.093 -0.292,-0.177 -0.133,-0.114 -0.032,-0.072 -0.135,-0.114 -0.084,-0.093 -0.135,-0.115 -0.188,-0.135 -0.083,-0.093 -0.083,-0.093 -0.031,-0.072 -0.032,-0.074 -0.031,-0.072 -0.083,-0.093 -0.01,-0.124 0.061,-0.157 0.198,-0.042 0.073,-0.032 0.125,-0.01 0.093,-0.084 0.072,-0.03 0.114,-0.135 0.227,-0.573 -0.01,-0.124 -0.031,-0.072 -0.033,-0.074 -0.031,-0.072 -0.03,-0.072 -0.085,-0.094 -0.083,-0.093 -0.031,-0.072 -0.032,-0.074 -0.03,-0.073 -0.033,-0.072 -0.083,-0.094 -0.031,-0.073 -0.03,-0.072 -0.032,-0.073 -0.084,-0.094 -0.082,-0.092 -0.032,-0.072 -0.084,-0.095 -0.01,-0.123 -0.031,-0.073 -0.083,-0.093 -0.012,-0.125 -0.032,-0.072 -0.03,-0.074 -0.031,-0.073 -0.084,-0.093 -0.031,-0.072 -0.031,-0.072 -0.03,-0.073 -0.012,-0.125 -0.083,-0.093 -0.032,-0.073 -0.186,-0.135 -0.032,-0.072 -0.084,-0.094 -0.03,-0.071 -0.084,-0.095 -0.032,-0.072 -0.031,-0.073 -0.009,-0.124 -0.032,-0.073 -0.011,-0.125 -0.032,-0.073 -0.031,-0.072 -0.031,-0.073 0.072,-0.031 0.084,0.093 0.135,0.114 0.084,0.093 0.081,0.093 0.084,0.094 0.032,0.073 0.135,0.113 0.084,0.094 0.084,0.092 0.03,0.074 0.084,0.094 0.187,0.134 0.239,0.155 0.083,0.094 0.084,0.092 0.083,0.095 0.084,0.093 0.135,0.112 0.239,0.156 0.134,0.116 0.189,0.134 0.082,0.092 0.188,0.135 1.508,0.6 0.123,-0.011 0.126,-0.01 0.176,0.01 0.072,-0.032 0.126,-0.011 0.124,-0.01 0.072,-0.032 0.074,-0.03 0.072,-0.033 0.072,-0.032 0.073,-0.03 0.073,-0.031 0.073,-0.032 0.135,-0.188 0.072,-0.03 0.114,-0.135 0.114,-0.137 0.145,-0.362 0.051,-0.281 0.01,-0.177 0.031,-0.229 0.011,-0.176 -0.011,-0.124 -0.032,-0.074 -0.011,-0.123 -0.031,-0.074 -0.011,-0.124 -0.084,-0.094 -0.082,-0.094 -0.031,-0.072 -0.031,-0.072 -0.063,-0.146 -0.085,-0.094 -0.03,-0.072 -0.084,-0.093 -0.135,-0.114 -0.032,-0.072 -0.135,-0.115 -0.03,-0.073 -0.085,-0.092 -0.134,-0.114 -0.136,-0.115 -0.291,-0.174 -0.085,-0.095 -0.082,-0.092 -0.26,-0.104 -0.093,0.082 -0.312,-0.124 0.073,-0.031 0.176,0.01 0.072,-0.031 0.126,-0.011 0.072,-0.03 0.073,-0.032 0.094,-0.082 0.228,-0.573 0.008,-0.177 -0.009,-0.125 0.009,-0.175 -0.011,-0.127 -0.03,-0.071 -0.032,-0.072 -0.083,-0.094 -0.031,-0.073 -0.084,-0.093 -0.187,-0.134 -0.135,-0.115 -0.031,-0.073 -0.085,-0.093 -0.031,-0.072 -0.083,-0.094 -0.114,-0.165 -0.011,-0.126 -0.032,-0.073 -0.01,-0.124 0.021,-0.051 0.093,-0.084 0.177,0.01 0.125,-0.01 0.071,-0.032 0.074,-0.032 0.125,-0.011 0.071,-0.03 0.073,-0.031 0.094,-0.085 0.269,-0.673 0.041,-0.106 0.093,-0.083 0.093,-0.084 0.094,-0.082 0.072,-0.032 0.156,-0.239 0.021,-0.053 0.05,-0.28 -0.031,-0.072 -0.135,-0.114 -0.083,-0.095 -0.084,-0.093 -0.218,-0.206 -0.084,-0.093 -0.135,-0.115 -0.083,-0.092 -0.186,-0.137 -0.084,-0.093 -0.136,-0.112 -0.135,-0.116 -0.083,-0.093 -0.033,-0.071 -0.03,-0.074 -0.01,-0.124 -0.032,-0.073 -0.083,-0.094 -0.084,-0.093 0.073,-0.032 0.26,0.103 0.187,0.135 0.291,0.177 0.085,0.093 0.133,0.114 0.291,0.175 0.241,0.156 0.187,0.135 0.134,0.114 0.032,0.073 0.188,0.135 0.187,0.133 0.03,0.074 0.032,0.072 -0.01,0.177 0.01,0.125 0.034,0.072 0.03,0.074 0.031,0.072 0.083,0.092 0.52,0.208 0.333,0.072 0.437,0.114 0.332,0.071 0.124,-0.012 0.125,-0.009 0.072,-0.032 0.074,-0.031 0.092,-0.083 0.136,-0.188 0.04,-0.103 0.052,-0.281 -0.011,-0.125 -0.032,-0.073 -0.01,-0.123 -0.032,-0.074 -0.01,-0.125 -0.011,-0.124 -0.03,-0.072 -0.084,-0.095 -0.032,-0.072 -0.03,-0.073 -0.135,-0.114 -0.344,-0.197 -0.602,-0.299 -0.345,-0.197 -0.342,-0.196 -0.239,-0.155 -0.084,-0.094 -0.135,-0.114 -0.343,-0.197 -0.084,-0.092 -0.186,-0.136 -0.188,-0.134 -0.083,-0.093 -0.345,-0.197 -0.237,-0.155 -0.084,-0.094 -0.083,-0.092 -0.032,-0.074 -0.011,-0.125 -0.01,-0.124 -0.033,-0.074 -0.01,-0.122 -0.063,-0.146 0.012,-0.177 -0.012,-0.124 -0.011,-0.126 -0.03,-0.071 -0.01,-0.125 -0.013,-0.126 -0.03,-0.072 0.009,-0.177 -0.03,-0.072 -0.012,-0.125 -0.031,-0.073 -0.031,-0.072 -0.01,-0.125 -0.012,-0.124 -0.082,-0.094 -0.011,-0.124 -0.032,-0.073 -0.031,-0.073 -0.032,-0.072 -0.029,-0.073 -0.032,-0.072 -0.032,-0.074 -0.011,-0.125 0.011,-0.177 -0.011,-0.124 -0.01,-0.125 -0.032,-0.071 -0.083,-0.093 -0.085,-0.095 -0.166,-0.186 -0.446,-0.237 -0.188,-0.136 -0.032,-0.072 -0.261,-0.103 -0.174,-0.01 -0.063,0.154 0.011,0.126 0.03,0.072 -0.009,0.177 0.011,0.125 0.031,0.073 0.033,0.073 0.03,0.072 0.033,0.073 0.009,0.125 0.01,0.124 0.032,0.072 0.031,0.072 0.011,0.126 0.031,0.074 0.032,0.072 0.03,0.072 0.032,0.072 0.031,0.074 0.032,0.072 0.031,0.073 0.01,0.123 0.032,0.075 0.063,0.144 0.011,0.125 0.01,0.124 0.032,0.074 0.032,0.072 0.01,0.124 0.031,0.072 0.01,0.126 0.012,0.124 0.01,0.124 -0.157,-0.061 -0.135,-0.114 -0.239,-0.154 -0.135,-0.115 -0.083,-0.094 -0.135,-0.114 -0.137,-0.113 -0.188,-0.135 -0.133,-0.114 -0.292,-0.176 -0.395,-0.218 -0.416,-0.164 -0.28,-0.051 -0.436,-0.116 -0.333,-0.071 -0.229,-0.03 -0.125,0.011 -0.176,-0.01 -0.177,-0.009 -0.073,0.03 -0.185,0.467 0.031,0.074 0.084,0.092 0.031,0.074 0.083,0.093 0.291,0.177 0.291,0.175 0.085,0.092 0.446,0.239 0.291,0.177 0.239,0.155 0.187,0.134 0.136,0.114 0.239,0.156 0.238,0.155 0.084,0.091 0.032,0.075 0.135,0.113 0.187,0.135 0.188,0.135 0.238,0.156 0.136,0.112 0.135,0.116 0.083,0.093 0.136,0.114 0.083,0.092 0.135,0.115 0.032,0.071 0.082,0.095 0.083,0.093 0.085,0.093 0.029,0.073 -0.05,-0.02 -0.032,-0.073 -0.395,-0.218 -0.083,-0.093 -0.291,-0.177 -0.031,-0.072 -0.031,-0.074 -0.084,-0.091 -0.083,-0.094 -0.188,-0.136 -0.187,-0.133 -0.083,-0.094 -0.084,-0.093 -0.082,-0.093 -0.345,-0.196 -0.082,-0.094 -0.364,-0.145 -0.124,0.011 -0.177,-0.009 -0.073,0.031 -0.073,0.029 -0.114,0.138 -0.186,0.467 0.032,0.072 0.03,0.073 0.135,0.114 0.137,0.114 0.156,0.063 0.155,0.061 0.032,0.072 0.031,0.072 0.188,0.135 0.082,0.094 0.136,0.115 0.032,0.072 0.01,0.126 0.032,0.07 0.082,0.094 0.083,0.095 0.188,0.134 0.084,0.092 0.03,0.074 0.012,0.124 0.03,0.073 -0.177,-0.011 -0.124,0.011 -0.125,0.012 -0.072,0.03 -0.074,0.031 -0.071,0.032 -0.073,0.032 -0.073,0.03 -0.072,0.031 -0.114,0.136 -0.135,0.188 -0.061,0.154 -0.031,0.23 0.01,0.124 0.032,0.073 0.032,0.073 0.031,0.072 0.03,0.074 0.032,0.072 0.084,0.093 0.03,0.073 0.011,0.125 0.084,0.092 0.03,0.074 0.084,0.092 0.032,0.073 0.207,0.082 0.072,-0.031 0.126,-0.018 -0.134,0.195 -0.074,0.032 -0.072,0.031 -0.114,0.136 -0.074,0.029 -0.093,0.085 -0.072,0.031 -0.094,0.083 -0.093,0.084 -0.154,0.239 -0.238,0.448 -0.032,-0.074 -0.031,-0.072 -0.187,-0.135 -0.032,-0.073 -0.031,-0.072 -0.137,-0.114 -0.082,-0.093 -0.085,-0.095 -0.26,-0.101 -0.279,-0.052 -0.175,-0.009 -0.127,0.009 -0.071,0.032 -0.095,0.083 -0.072,0.032 -0.093,0.083 -0.074,0.03 -0.092,0.085 -0.093,0.082 -0.073,0.032 -0.094,0.084 -0.093,0.082 -0.135,0.188 -0.175,0.292 -0.042,0.104 -0.072,0.331 -0.01,0.178 0.01,0.124 0.032,0.072 -0.01,0.177 0.032,0.072 0.031,0.073 -0.01,0.178 0.011,0.124 0.01,0.125 0.011,0.123 0.011,0.127 0.063,0.145 0.01,0.123 -0.03,0.23 0.01,0.123 0.032,0.073 0.031,0.072 0.082,0.095 0.062,0.145 -0.01,0.177 0.032,0.072 0.031,0.073 0.032,0.073 0.011,0.124 0.031,0.074 0.083,0.092 -0.03,0.229 0.032,0.072 0.031,0.073 0.031,0.073 0.031,0.071 0.032,0.074 0.009,0.125 0.032,0.072 0.012,0.126 0.009,0.123 0.033,0.073 0.03,0.073 0.084,0.092 -0.062,0.158 -0.073,0.03 -0.073,0.032 -0.074,0.032 -0.072,0.032 -0.072,0.029 -0.071,0.031 -0.093,0.085 -0.074,0.03 -0.072,0.032 -0.073,0.031 -0.094,0.083 -0.072,0.033 -0.073,0.03 -0.093,0.084 -0.125,0.011 -0.073,0.032 -0.092,0.082 -0.168,0.115 -0.072,0.031 -0.072,0.031 -0.126,0.012 -0.123,0.01 -0.074,0.031 -0.124,0.01 -0.124,0.01 -0.072,0.032 -0.075,0.032 -0.071,0.031 -0.125,0.011 -0.073,0.032 -0.093,0.083 -0.072,0.031 -0.073,0.032 -0.073,0.03 -0.145,0.063 -0.154,0.239 -0.249,0.625 0.009,0.123 -0.009,0.177 -0.01,0.177 0.01,0.125 0.031,0.071 0.032,0.074 0.012,0.125 0.03,0.073 0.031,0.073 0.032,0.071 0.032,0.074 0.031,0.072 0.032,0.073 0.03,0.074 0.083,0.092 0.031,0.072 0.24,0.157 0.083,0.093 0.239,0.154 0.085,0.094 0.082,0.093 0.031,0.072 -0.029,0.23 -0.011,0.175 -0.01,0.176 -0.072,0.334 0.03,0.073 -0.008,0.176 0.009,0.126 -0.029,0.227 0.01,0.126 0.011,0.123 0.021,0.249 -0.01,0.179 0.032,0.071 0.061,0.146 0.084,0.093 0.032,0.074 0.03,0.072 0.032,0.072 0.031,0.073 0.083,0.093 0.032,0.072 0.031,0.072 0.03,0.074 0.085,0.093 0.135,0.115 0.365,0.144 0.176,0.01 0.073,-0.03 0.093,-0.086 0.122,-0.311 -0.009,-0.124 0.032,-0.23 -0.013,-0.125 -0.01,-0.123 -0.032,-0.073 -0.03,-0.072 0.03,-0.229 0.073,-0.333 -0.011,-0.124 0.144,-0.363 0.124,-0.313 0.292,0.175 0.291,0.177 0.342,0.196 0.188,0.135 0.084,0.093 0.239,0.156 0.083,0.093 0.135,0.113 0.085,0.094 0.03,0.073 0.031,0.072 0.084,0.093 0.083,0.093 -0.011,0.179 0.011,0.123 0.032,0.072 0.011,0.126 -0.062,0.156 -0.125,0.01 -0.197,0.043 -0.165,0.416 -0.012,0.175 0.012,0.125 0.011,0.124 0.03,0.074 0.012,0.125 -0.073,0.332 0.011,0.124 0.031,0.074 0.011,0.123 0.032,0.073 0.031,0.072 0.03,0.076 z m 4.467,-9.724 0.083,0.095 -0.001,0.178 -0.352,-0.199 -0.134,-0.114 -0.136,-0.114 -0.239,-0.154 -0.083,-0.093 -0.031,-0.074 -0.085,-0.092 -0.03,-0.074 -0.031,-0.072 -0.084,-0.093 -0.083,-0.095 -0.135,-0.112 -0.083,-0.094 -0.137,-0.115 -0.082,-0.092 -0.032,-0.072 -0.083,-0.093 -0.032,-0.074 -0.031,-0.073 -0.032,-0.072 -0.03,-0.072 -0.084,-0.094 -0.03,-0.073 -0.032,-0.072 -0.02,-0.126 0.32,0.124 0.074,-0.03 0.072,-0.031 0.146,-0.064 0.28,0.051 0.133,-0.186 0.074,-0.032 0.095,-0.083 0.154,0.062 0.083,0.093 0.084,0.094 0.239,0.155 0.084,0.094 -0.177,0.29 -0.073,0.032 -0.072,0.031 -0.073,0.032 -0.092,0.083 -0.02,0.051 0.029,0.074 0.032,0.071 0.032,0.074 0.082,0.093 0.032,0.073 0.033,0.072 0.029,0.073 0.085,0.093 0.03,0.072 0.084,0.094 0.062,0.145 0.032,0.073 0.031,0.073 0.032,0.073 0.03,0.072 0.033,0.072 z m -2.341,-2.435 -0.021,-0.125 0.198,0.135 -0.045,0.284 -0.092,-0.097 -0.009,-0.125 z m -0.076,-0.872 0.031,0.072 -0.093,0.384 -0.124,0.013 -0.03,-0.074 -0.032,-0.073 -0.082,-0.093 -0.032,-0.072 -0.032,-0.074 -0.063,-0.145 -0.031,-0.072 -0.031,-0.073 -0.031,-0.071 -0.034,-0.074 -0.008,-0.124 -0.083,-0.095 -0.032,-0.072 -0.031,-0.072 -0.032,-0.072 -0.031,-0.073 -0.019,-0.127 0.246,0.156 0.012,0.126 0.031,0.072 0.032,0.073 0.135,0.115 0.187,0.133 0.03,0.073 0.033,0.073 0.083,0.093 z m 0.389,-3.097 0.072,-0.03 0.045,0.147 -0.049,0.042 z m -8.484,-3.794 0.019,0.124 0.198,0.084 0.115,-0.136 0.135,-0.187 0.134,-0.188 0.021,-0.051 0.062,-0.157 0.113,-0.135 0.165,-0.415 -0.009,-0.125 -0.031,-0.074 0.03,-0.228 0.031,-0.228 0.195,-0.645 0.042,-0.103 0.021,-0.053 0.175,-0.291 0.074,-0.032 0.091,-0.082 0.127,-0.011 0.03,0.073 0.033,0.073 0.061,0.145 0.03,0.072 0.032,0.072 0.084,0.094 0.011,0.125 0.032,0.072 -0.074,0.334 0.011,0.124 0.012,0.123 0.032,0.073 0.03,0.074 0.011,0.124 0.01,0.125 0.032,0.072 0.032,0.072 0.259,0.103 0.124,-0.31 0.052,-0.282 -0.032,-0.071 -0.011,-0.125 -0.011,-0.124 -0.01,-0.126 -0.031,-0.072 0.031,-0.229 0.082,-0.208 0.051,-0.281 0.031,-0.228 -0.022,-0.25 0.053,-0.281 0.01,-0.176 -0.011,-0.125 -0.01,-0.123 0.01,-0.177 -0.032,-0.074 0.072,-0.332 0.052,-0.28 0.072,-0.334 0.267,-0.676 0.124,-0.311 0.011,-0.177 -0.011,-0.124 -0.031,-0.074 -0.032,-0.072 -0.032,-0.072 -0.082,-0.093 -0.083,-0.094 -0.135,-0.114 -0.084,-0.093 -0.135,-0.114 -0.311,-0.124 -0.23,-0.03 -0.124,0.01 -0.073,0.03 -0.073,0.032 -0.125,0.011 -0.093,0.084 -0.133,0.187 -0.291,0.728 -0.01,0.176 0.011,0.126 -0.01,0.175 -0.051,0.281 -0.155,0.541 -0.112,0.437 -0.053,0.28 -0.071,0.332 0.009,0.125 -0.072,0.334 -0.029,0.228 0.01,0.124 -0.051,0.281 -0.052,0.281 -0.032,0.228 -0.132,0.488 -0.074,0.333 -0.071,0.332 -0.072,0.334 -0.113,0.436 -0.01,0.178 z m 0.072,0.271 0.074,-0.032 0.228,0.032 0.083,0.093 0.033,0.072 0.03,0.071 0.01,0.125 0.032,0.074 -0.072,0.333 -0.05,0.279 0.009,0.125 -0.032,0.228 0.013,0.124 0.03,0.074 0.114,0.167 0.032,0.071 0.011,0.125 -0.031,0.229 0.012,0.124 0.01,0.125 0.009,0.124 0.032,0.074 -0.009,0.175 -0.053,0.281 -0.009,0.179 -0.093,0.382 -0.196,0.645 -0.144,0.365 -0.218,0.395 -0.217,0.394 -0.134,0.189 -0.155,0.239 -0.135,0.187 -0.074,0.03 -0.093,0.085 -0.093,0.083 -0.072,0.031 -0.135,0.188 -0.115,0.135 -0.093,0.083 -0.072,0.032 -0.156,0.238 -0.072,0.031 -0.072,0.032 -0.074,0.031 -0.072,0.031 -0.094,0.084 -0.072,0.032 -0.114,0.135 -0.124,0.311 0.063,0.145 0.416,0.165 0.072,-0.029 0.073,-0.033 0.177,0.011 0.072,-0.032 0.199,-0.042 0.123,-0.011 0.125,-0.01 0.125,-0.011 0.071,-0.03 0.126,-0.012 0.332,0.071 0.156,0.063 0.052,0.021 0.677,0.268 0.238,0.156 0.136,0.114 0.082,0.094 0.085,0.093 0.135,0.113 0.031,0.073 0.032,0.072 0.03,0.074 0.011,0.124 -0.01,0.175 -0.269,0.678 -0.217,0.394 -0.092,0.083 -0.095,0.085 -0.093,0.083 -0.093,0.084 -0.074,0.03 -0.113,0.135 -0.094,0.084 -0.073,0.032 -0.113,0.135 -0.073,0.03 -0.093,0.084 -0.073,0.03 -0.094,0.085 -0.092,0.084 -0.073,0.03 -0.073,0.032 -0.093,0.083 -0.093,0.084 -0.093,0.082 -0.114,0.136 -0.073,0.031 -0.074,0.031 -0.112,0.136 -0.095,0.083 -0.092,0.084 -0.114,0.135 -0.073,0.032 -0.094,0.082 -0.091,0.083 -0.074,0.031 -0.073,0.033 -0.114,0.135 -0.093,0.082 -0.093,0.084 -0.135,0.188 -0.114,0.135 -0.093,0.083 -0.072,0.031 -0.095,0.084 -0.092,0.083 -0.074,0.032 -0.072,0.03 -0.073,0.032 -0.072,0.031 -0.114,0.136 -0.072,0.032 -0.074,0.03 -0.072,0.031 -0.073,0.032 -0.074,0.031 -0.07,0.032 -0.074,0.032 -0.072,0.03 -0.073,0.032 -0.072,0.031 -0.074,0.032 -0.072,0.03 -0.072,0.033 -0.126,0.009 -0.073,0.032 -0.092,0.082 -0.073,0.032 -0.124,0.012 -0.147,0.062 -0.093,0.084 -0.072,0.032 -0.073,0.032 -0.072,0.03 -0.072,0.029 -0.073,0.032 -0.093,0.084 -0.072,0.032 -0.074,0.031 -0.125,0.011 -0.093,0.083 -0.125,0.01 -0.073,0.032 -0.071,0.032 -0.177,-0.01 -0.073,0.031 -0.072,0.03 -0.177,-0.008 -0.125,0.009 -0.675,-0.268 -0.136,-0.114 -0.031,-0.072 -0.032,-0.074 -0.031,-0.072 -0.031,-0.073 -0.031,-0.073 -0.032,-0.071 -0.032,-0.074 -0.03,-0.072 -0.012,-0.126 0.032,-0.227 0.01,-0.177 0.248,-0.624 0.114,-0.136 0.135,-0.186 0.093,-0.085 0.072,-0.031 0.095,-0.083 0.164,-0.113 0.074,-0.032 0.072,-0.032 0.073,-0.032 0.092,-0.084 0.074,-0.031 0.071,-0.031 0.116,-0.135 0.091,-0.082 0.075,-0.032 0.072,-0.032 0.092,-0.084 0.115,-0.134 0.072,-0.032 0.095,-0.083 0.071,-0.031 0.073,-0.032 0.073,-0.031 0.094,-0.084 0.092,-0.083 0.093,-0.082 0.094,-0.085 0.094,-0.082 0.071,-0.032 0.127,-0.011 0.133,-0.186 0.094,-0.084 0.073,-0.031 0.072,-0.031 0.113,-0.137 0.095,-0.082 0.072,-0.032 0.093,-0.083 0.094,-0.084 0.072,-0.03 0.073,-0.032 0.094,-0.082 0.091,-0.085 0.116,-0.135 0.092,-0.082 0.073,-0.032 0.073,-0.031 0.093,-0.083 0.093,-0.084 0.011,-0.176 -0.084,-0.094 -0.082,-0.093 -0.344,-0.197 -0.5,-0.258 -0.239,-0.157 -0.344,-0.196 -0.03,-0.071 -0.188,-0.136 -0.135,-0.113 -0.083,-0.095 -0.031,-0.072 -0.031,-0.072 -0.031,-0.074 -0.032,-0.073 -0.032,-0.07 -0.062,-0.146 -0.032,-0.073 -0.011,-0.125 -0.009,-0.125 0.009,-0.177 -0.009,-0.125 0.091,-0.384 0.145,-0.364 0.154,-0.239 0.114,-0.134 0.095,-0.085 0.134,-0.186 0.093,-0.084 0.095,-0.083 0.091,-0.082 0.095,-0.085 0.114,-0.135 0.113,-0.135 0.115,-0.136 0.072,-0.031 0.073,-0.032 0.072,-0.031 0.146,-0.062 0.073,-0.033 0.093,-0.082 0.093,-0.084 0.072,-0.031 0.073,-0.032 0.072,-0.03 0.072,-0.033 0.095,-0.083 0.072,-0.03 0.074,-0.031 0.093,-0.085 0.072,-0.03 0.092,-0.084 0.095,-0.084 0.093,-0.083 0.093,-0.083 0.114,-0.136 0.074,-0.03 0.072,-0.032 0.135,-0.187 0.134,-0.186 0.135,-0.188 0.093,-0.083 0.093,-0.083 0.217,-0.396 0.569,-1.279 0.021,-0.052 0.164,-0.416 0.064,-0.157 0.051,-0.281 0.06,-0.154 0.074,-0.032 z m 14.201,0.467 -0.135,-0.114 -0.083,-0.093 -0.396,-0.217 -0.134,-0.114 -0.032,-0.074 -0.083,-0.093 -0.084,-0.093 -0.031,-0.074 -0.03,-0.071 -0.032,-0.074 0.01,-0.175 0.165,-0.416 0.093,-0.084 0.094,-0.083 0.072,-0.03 0.073,-0.032 0.073,-0.033 0.092,-0.083 0.115,-0.135 0.073,-0.031 0.093,-0.084 0.095,-0.082 0.07,-0.032 0.074,-0.031 0.093,-0.085 0.094,-0.082 0.114,-0.135 0.135,-0.188 0.155,-0.239 0.197,-0.344 0.114,-0.135 0.112,-0.134 0.125,-0.012 0.073,-0.03 0.073,-0.034 0.073,-0.03 0.124,-0.01 2.184,0.868 0.393,0.217 0.085,0.093 0.084,0.095 0.133,0.113 0.032,0.072 0.032,0.072 0.031,0.074 0.083,0.093 0.032,0.073 0.031,0.072 -0.029,0.23 -0.095,0.384 -0.145,0.362 -0.112,0.137 -0.156,0.239 -0.093,0.083 -0.073,0.033 -0.074,0.03 -0.072,0.031 -0.114,0.135 -0.093,0.083 -0.093,0.085 -0.124,0.01 -0.072,0.032 -0.095,0.082 -0.093,0.084 -0.093,0.084 -0.073,0.03 -0.124,0.01 -0.073,0.032 -0.072,0.031 -0.073,0.032 -0.074,0.032 -0.177,-0.011 -0.093,0.085 -0.072,0.03 -0.125,0.01 -0.071,0.032 -0.127,0.011 -0.123,0.01 -0.177,-0.01 -0.177,-0.01 -0.125,0.011 -0.436,-0.112 -0.28,-0.053 -0.519,-0.206 z m -9.23,13.072 c 0.326,0.15 0.413,-1.045 0.575,-1.195 0,0 0.381,0.101 0.434,0.131 0.163,0.065 0.213,0.24 0.3,0.404 0.033,0.059 0.143,0.123 0.198,0.221 0.11,0.216 0.258,0.877 0.203,1.061 -0.122,0.403 -0.825,-0.299 -0.998,-0.355 -0.214,-0.066 -0.464,-0.19 -0.712,-0.267 m -2.105,-9.691 -0.01,-0.126 -0.033,-0.072 0.011,-0.177 -0.031,-0.072 0.143,-0.364 -0.103,-0.042 -0.084,-0.093 -0.01,-0.126 0.051,-0.279 0.031,-0.228 -0.083,-0.095 -0.012,-0.124 -0.03,-0.072 -0.032,-0.074 -0.031,-0.072 -0.032,-0.073 -0.031,-0.074 -0.009,-0.123 -0.011,-0.124 -0.011,-0.127 0.009,-0.175 0.166,-0.414 0.207,0.082 0.032,0.072 -0.01,0.175 0.01,0.125 0.012,0.126 0.009,0.124 0.083,0.093 0.033,0.073 0.031,0.073 -0.009,0.176 -0.052,0.28 -0.063,0.157 0.156,0.063 0.031,0.072 -0.072,0.333 -0.071,0.332 0.135,0.113 0.03,0.073 0.034,0.073 0.029,0.074 -0.05,0.279 -0.124,0.312 -0.157,-0.062 z m -60.915,-36.267 -0.031,-0.121 0.006,-0.081 -0.068,-0.163 0.006,-0.079 0.006,-0.079 0.006,-0.078 0.005,-0.078 0.006,-0.08 0.007,-0.078 0.091,-0.152 0.175,-0.226 0.09,-0.153 0.091,-0.15 0.26,-0.297 0.127,-0.11 0.333,-0.215 0.164,-0.066 0.165,-0.067 0.205,-0.104 0.121,-0.031 0.121,-0.03 0.078,0.005 0.121,-0.032 0.123,-0.029 0.162,-0.065 0.121,-0.034 0.123,-0.031 0.079,0.007 0.08,0.005 0.077,0.006 0.248,-0.14 0.122,-0.031 0.078,0.007 0.123,-0.031 0.079,0.007 0.121,-0.033 0.079,0.006 0.12,-0.03 0.165,-0.066 0.078,0.005 0.078,0.006 0.123,-0.031 0.249,-0.14 0.162,-0.067 0.163,-0.068 0.081,0.005 0.2,-0.023 0.12,-0.032 0.121,-0.029 0.12,-0.031 0.08,0.006 0.164,-0.067 0.123,-0.032 0.161,-0.067 0.122,-0.031 0.121,-0.032 0.08,0.009 0.079,0.004 0.121,-0.031 0.078,0.007 0.165,-0.066 0.078,0.004 0.123,-0.029 0.12,-0.031 0.115,0.047 0.206,-0.103 0.079,0.006 0.08,0.005 0.077,0.007 0.079,0.005 0.081,0.006 0.078,0.006 0.122,-0.032 0.163,-0.067 0.083,-0.072 0.05,-0.116 0.005,-0.079 0.007,-0.079 0.004,-0.078 0.007,-0.079 0.049,-0.116 0.085,-0.072 0.078,0.006 0.079,0.005 0.079,0.006 0.116,0.048 0.261,0.219 0.114,0.047 0.117,0.047 0.224,0.177 0.079,0.005 0.152,0.091 0.115,0.049 0.08,0.007 0.079,0.004 0.079,0.006 0.115,0.048 0.078,0.005 0.08,0.006 0.115,0.049 0.08,0.006 0.151,0.09 0.114,0.049 0.33,0.381 0.104,0.205 -0.007,0.081 -0.005,0.078 0.068,0.164 -0.007,0.08 -0.006,0.077 0.031,0.121 0.031,0.121 0.03,0.122 -0.007,0.079 -0.004,0.079 0.031,0.123 -0.006,0.076 -0.007,0.081 0.031,0.119 -0.006,0.081 -0.007,0.078 -0.004,0.079 -0.09,0.152 -0.213,0.182 -0.206,0.104 -0.121,0.031 -0.079,-0.006 -0.08,-0.006 -0.077,-0.006 -0.121,0.031 -0.123,0.03 -0.115,-0.048 -0.199,0.026 -0.123,0.03 -0.078,-0.006 -0.079,-0.006 -0.078,-0.006 -0.121,0.031 -0.081,-0.006 -0.115,-0.05 -0.121,0.032 -0.121,0.031 -0.079,-0.005 -0.078,-0.006 -0.08,-0.006 -0.12,0.03 -0.121,0.031 -0.159,-0.011 -0.164,0.067 -0.078,-0.007 -0.165,0.067 -0.121,0.032 -0.079,-0.006 -0.078,-0.005 -0.164,0.067 -0.12,0.031 -0.08,-0.007 -0.121,0.03 -0.121,0.032 -0.123,0.029 -0.121,0.032 -0.077,-0.007 -0.123,0.032 -0.163,0.067 -0.121,0.029 -0.079,-0.006 -0.249,0.142 -0.121,0.029 -0.248,0.142 -0.207,0.102 -0.121,0.032 -0.249,0.139 -0.247,0.142 -0.206,0.103 -0.164,0.068 -0.079,-0.006 -0.162,0.068 -0.123,0.029 -0.079,-0.006 -0.078,-0.004 -0.122,0.029 -0.08,-0.005 -0.077,-0.006 -0.116,-0.049 -0.079,-0.006 -0.079,-0.005 -0.121,0.031 -0.08,-0.006 -0.077,-0.007 -0.08,-0.005 -0.114,-0.05 -0.081,-0.003 -0.079,-0.007 -0.078,-0.006 -0.079,-0.006 -0.2,0.024 -0.08,-0.005 -0.079,-0.006 -0.078,-0.005 -0.079,-0.006 -0.078,-0.006 -0.079,-0.005 -0.079,-0.006 -0.079,-0.007 -0.079,-0.005 -0.079,-0.007 -0.079,-0.004 -0.12,0.03 -0.08,-0.007 -0.079,-0.005 -0.079,-0.007 -0.121,0.032 -0.078,-0.007 -0.117,-0.048 -0.121,0.031 -0.079,-0.005 -0.079,-0.006 -0.152,-0.092 -0.078,-0.006 -0.117,-0.048 -0.254,-0.296 z m 17.8,5.999 0.214,0.335 0.109,0.126 0.225,0.177 0.37,0.343 0.299,0.261 0.224,0.174 0.079,0.006 0.116,0.049 0.079,0.007 0.078,0.004 0.116,0.049 0.079,0.005 0.081,0.006 0.076,0.005 0.115,0.049 0.117,0.049 0.078,0.005 0.08,0.007 0.12,-0.031 0.08,0.005 0.121,-0.029 0.121,-0.031 0.121,-0.032 0.122,-0.031 0.206,-0.102 0.291,-0.177 0.466,-0.402 0.302,-0.336 0.049,-0.115 0.047,-0.115 0.092,-0.151 0.09,-0.152 0.43,-0.446 0.048,-0.114 0.05,-0.115 0.003,-0.079 -0.103,-0.206 0.048,-0.116 0.007,-0.079 0.005,-0.079 0.049,-0.116 0.09,-0.152 0.049,-0.115 0.089,-0.152 0.007,-0.079 0.006,-0.078 0.005,-0.079 0.006,-0.078 0.005,-0.079 0.051,-0.116 0.047,-0.115 -0.031,-0.122 0.047,-0.116 0.05,-0.115 0.005,-0.08 0.007,-0.078 0.005,-0.077 0.006,-0.08 0.048,-0.115 -0.03,-0.123 0.006,-0.078 0.006,-0.079 0.005,-0.078 0.012,-0.159 0.006,-0.079 0.005,-0.079 -0.03,-0.121 0.007,-0.078 0.047,-0.117 -0.031,-0.119 0.007,-0.08 -0.03,-0.122 -0.032,-0.12 0.005,-0.079 0.007,-0.079 -0.068,-0.165 0.121,-0.029 0.036,0.041 0.068,0.165 0.177,0.291 0.141,0.248 0.102,0.205 0.105,0.206 0.14,0.249 0.067,0.164 0.068,0.163 0.175,0.291 -0.004,0.079 -0.007,0.078 0.031,0.123 0.256,0.296 0.187,0.133 0.08,0.005 0.079,0.005 0.15,0.092 0.148,0.17 0.256,0.296 0.297,0.26 0.08,0.005 0.115,0.048 0.078,0.007 0.079,0.007 0.078,0.004 0.081,0.005 0.078,0.008 0.079,0.005 0.08,0.007 0.163,-0.068 0.079,0.006 0.121,-0.031 0.164,-0.067 0.29,-0.177 0.212,-0.182 0.049,-0.115 0.005,-0.079 0.049,-0.116 0.047,-0.116 0.049,-0.115 0.049,-0.116 0.005,-0.079 0.006,-0.079 0.048,-0.114 0.049,-0.116 -0.032,-0.122 0.006,-0.079 -0.03,-0.121 -0.03,-0.12 0.004,-0.081 -0.139,-0.247 -0.067,-0.165 -0.03,-0.121 -0.069,-0.162 -0.175,-0.291 -0.104,-0.206 -0.032,-0.122 -0.067,-0.163 -0.213,-0.335 -0.395,-0.543 -0.214,-0.335 -0.213,-0.332 -0.579,-0.756 -0.066,-0.164 -0.029,-0.121 -0.033,-0.122 -0.104,-0.206 -0.031,-0.122 -0.029,-0.12 0.005,-0.08 -0.069,-0.164 -0.065,-0.163 0.005,-0.079 0.006,-0.079 -0.03,-0.121 0.006,-0.079 -0.032,-0.121 -0.029,-0.122 0.006,-0.079 -0.031,-0.121 0.006,-0.079 0.005,-0.078 -0.067,-0.164 -0.032,-0.121 -0.029,-0.121 -0.068,-0.164 0.006,-0.078 0.007,-0.079 -0.069,-0.164 0.006,-0.08 0.005,-0.078 -0.029,-0.121 -0.03,-0.122 -0.031,-0.121 -0.14,-0.248 -0.031,-0.122 -0.14,-0.248 -0.03,-0.121 -0.104,-0.206 -0.214,-0.333 -0.182,-0.212 -0.224,-0.175 -0.153,-0.091 -0.188,-0.133 -0.123,0.03 -0.15,-0.09 -0.117,-0.047 -0.079,-0.007 -0.078,-0.006 -0.121,0.031 -0.081,-0.004 -0.078,-0.009 -0.12,0.031 -0.08,-0.006 -0.121,0.031 -0.079,-0.006 -0.079,-0.006 -0.12,0.031 -0.122,0.031 -0.078,-0.006 -0.079,-0.005 -0.08,-0.007 -0.163,0.066 -0.164,0.069 -0.467,0.402 -0.047,0.115 -0.134,0.188 -0.006,0.079 -0.048,0.114 -0.004,0.081 0.029,0.121 -0.006,0.079 -0.005,0.078 -0.006,0.079 -0.007,0.08 -0.004,0.079 -0.007,0.079 -0.049,0.115 0.032,0.122 -0.005,0.078 0.029,0.122 -0.005,0.078 -0.012,0.157 0.025,0.201 -0.005,0.079 -0.006,0.079 0.03,0.121 -0.008,0.079 0.032,0.122 -0.007,0.079 0.031,0.121 -0.006,0.079 -0.011,0.156 0.031,0.122 0.032,0.121 0.029,0.122 -0.005,0.079 -0.013,0.157 0.032,0.121 -0.007,0.079 0.031,0.123 -0.004,0.077 0.065,0.165 -0.006,0.079 0.031,0.121 -0.011,0.157 -0.006,0.079 -0.007,0.078 0.031,0.122 -0.006,0.08 0.031,0.121 -0.047,0.114 -0.008,0.081 -0.005,0.078 -0.006,0.079 0.032,0.121 0.03,0.122 -0.049,0.116 -0.005,0.078 -0.006,0.079 -0.006,0.08 0.031,0.121 0.031,0.119 0.03,0.124 0.031,0.12 0.177,0.291 -0.012,0.156 -0.005,0.08 -0.007,0.079 0.03,0.122 -0.005,0.079 0.03,0.122 -0.005,0.078 0.031,0.122 -0.049,0.114 -0.006,0.079 -0.005,0.079 -0.049,0.116 -0.006,0.078 -0.005,0.079 -0.007,0.078 -0.049,0.116 -0.047,0.115 -0.091,0.152 -0.005,0.079 -0.007,0.08 -0.295,0.255 -0.29,0.177 -0.08,-0.005 -0.037,-0.044 -0.105,-0.204 0.006,-0.079 -0.029,-0.123 0.005,-0.079 -0.031,-0.12 0.007,-0.079 -0.032,-0.122 0.013,-0.157 -0.031,-0.121 0.006,-0.079 0.005,-0.08 0.006,-0.079 -0.031,-0.12 -0.03,-0.122 0.007,-0.08 -0.032,-0.121 0.005,-0.078 -0.029,-0.122 0.006,-0.078 0.005,-0.08 0.006,-0.079 -0.031,-0.121 -0.067,-0.164 -0.03,-0.121 -0.031,-0.119 -0.032,-0.123 -0.066,-0.164 -0.067,-0.163 -0.067,-0.164 -0.068,-0.164 0.007,-0.078 -0.031,-0.123 -0.176,-0.289 -0.103,-0.207 -0.216,-0.333 -0.285,-0.418 -0.475,-0.551 -0.225,-0.175 -0.151,-0.089 -0.08,-0.007 -0.079,-0.006 -0.078,-0.007 -0.116,-0.047 -0.079,-0.006 -0.079,-0.005 -0.121,0.03 -0.115,-0.049 -0.08,-0.005 -0.078,-0.006 -0.121,0.031 -0.079,-0.007 -0.079,-0.005 -0.121,0.031 -0.122,0.03 -0.122,0.032 -0.164,0.067 -0.162,0.066 -0.079,-0.007 -0.164,0.07 -0.041,0.035 -0.091,0.152 -0.092,0.154 -0.09,0.15 -0.006,0.079 -0.049,0.116 -0.006,0.078 -0.006,0.079 -0.005,0.079 0.03,0.121 -0.004,0.08 0.067,0.162 -0.049,0.116 -0.007,0.08 0.031,0.12 -0.005,0.081 -0.006,0.078 0.219,0.254 0.037,0.042 0.03,0.121 0.068,0.164 0.03,0.122 0.14,0.248 -0.006,0.078 0.067,0.164 0.031,0.121 0.03,0.121 0.105,0.207 0.066,0.163 0.031,0.121 0.031,0.121 0.03,0.123 0.068,0.163 -0.006,0.079 0.068,0.164 0.066,0.163 0.067,0.164 -0.047,0.115 0.067,0.163 0.03,0.122 0.031,0.122 0.031,0.121 -0.006,0.079 0.03,0.121 -0.005,0.077 0.067,0.165 -0.007,0.079 -0.004,0.078 0.03,0.122 -0.005,0.08 0.029,0.121 -0.006,0.079 -0.005,0.078 0.03,0.123 0.031,0.12 0.067,0.163 0.03,0.122 -0.005,0.078 -0.006,0.08 0.031,0.12 0.067,0.165 0.03,0.122 0.067,0.162 -0.006,0.079 0.068,0.164 0.067,0.162 0.031,0.121 0.066,0.165 z m -11.491,-13.504 0.066,0.163 0.401,0.466 0.117,0.049 0.079,0.005 0.078,0.007 0.079,0.006 0.08,0.005 0.115,0.047 0.157,0.013 0.078,0.005 0.116,0.05 0.08,0.005 0.116,0.048 0.115,0.048 0.114,0.047 0.116,0.05 0.116,0.047 0.078,0.006 0.116,0.049 0.079,0.007 0.079,0.005 0.114,0.047 0.152,0.091 0.153,0.092 0.159,0.011 0.157,0.013 0.079,0.004 0.116,0.05 0.115,0.047 0.079,0.005 0.114,0.049 0.116,0.048 0.079,0.006 0.188,0.133 0.117,0.048 0.078,0.006 0.079,0.007 0.114,0.047 0.116,0.048 0.08,0.006 0.116,0.048 0.15,0.09 0.081,0.006 0.077,0.007 0.08,0.005 0.152,0.092 0.078,0.004 0.079,0.007 0.115,0.047 0.08,0.006 0.079,0.007 0.115,0.047 0.121,-0.03 0.116,0.048 0.078,0.006 0.079,0.005 0.079,0.006 0.116,0.05 0.079,0.006 0.079,0.005 0.078,0.005 0.121,-0.03 0.121,-0.03 0.121,-0.031 0.079,0.006 0.165,-0.068 0.339,-0.291 0.217,-0.263 0.049,-0.114 0.09,-0.152 0.049,-0.116 -0.031,-0.121 -0.062,-0.243 0.006,-0.079 0.006,-0.08 -0.029,-0.12 0.005,-0.078 0.048,-0.117 0.005,-0.078 0.006,-0.078 -0.03,-0.121 -0.031,-0.122 0.047,-0.116 0.049,-0.117 0.006,-0.077 -0.03,-0.122 0.09,-0.151 0.048,-0.115 -0.031,-0.122 0.049,-0.115 0.007,-0.079 0.047,-0.116 0.049,-0.115 0.005,-0.08 0.091,-0.151 0.012,-0.157 0.005,-0.08 0.091,-0.151 0.047,-0.116 0.092,-0.152 0.049,-0.115 0.175,-0.225 0.091,-0.152 0.048,-0.117 0.005,-0.078 0.006,-0.079 0.174,-0.224 0.22,-0.262 0.089,-0.153 0.176,-0.224 0.092,-0.153 0.047,-0.115 0.303,-0.334 0.004,-0.079 0.347,-0.372 0.259,-0.297 0.006,-0.08 0.346,-0.371 0.514,-0.516 0.296,-0.256 0.248,-0.14 0.115,0.048 0.079,0.006 0.165,-0.068 0.157,0.014 0.074,0.084 -0.006,0.078 0.03,0.121 -0.005,0.078 -0.013,0.16 -0.005,0.078 -0.006,0.079 -0.005,0.078 0.03,0.121 -0.048,0.116 -0.006,0.079 -0.048,0.115 -0.006,0.08 -0.049,0.115 -0.005,0.078 -0.049,0.117 -0.006,0.078 -0.005,0.079 -0.006,0.078 -0.007,0.079 -0.011,0.159 -0.133,0.187 0.032,0.121 -0.049,0.118 -0.049,0.115 -0.09,0.152 -0.007,0.078 -0.005,0.079 -0.006,0.079 -0.047,0.116 -0.006,0.079 -0.007,0.078 -0.134,0.189 -0.004,0.078 -0.05,0.117 0.03,0.121 -0.047,0.114 -0.005,0.079 -0.049,0.116 -0.09,0.153 -0.007,0.078 -0.005,0.079 -0.048,0.115 -0.09,0.152 -0.134,0.188 -0.09,0.153 -0.006,0.078 -0.007,0.079 -0.005,0.079 -0.006,0.079 -0.006,0.08 -0.005,0.078 0.11,0.128 -0.127,0.108 -0.007,0.08 -0.006,0.079 -0.005,0.078 -0.007,0.081 -0.006,0.077 -0.005,0.079 -0.006,0.078 -0.005,0.079 0.029,0.122 -0.011,0.158 -0.047,0.116 -0.092,0.15 0.03,0.122 -0.005,0.079 -0.213,0.266 -0.036,-0.125 -0.031,-0.122 -0.03,-0.122 -0.111,-0.127 -0.076,-0.004 -0.08,-0.007 -0.085,0.074 -0.049,0.115 -0.005,0.078 -0.006,0.079 -0.006,0.079 -0.005,0.08 -0.048,0.115 -0.007,0.079 -0.005,0.079 -0.049,0.115 -0.09,0.151 -0.132,0.19 -0.007,0.079 0.03,0.121 -0.004,0.078 -0.05,0.115 -0.09,0.153 -0.176,0.224 -0.09,0.153 -0.049,0.116 -0.005,0.078 -0.007,0.079 -0.006,0.078 0.476,0.552 0.079,0.006 0.253,-0.219 0.006,-0.081 0.049,-0.115 0.048,-0.114 0.006,-0.081 -0.031,-0.119 0.091,-0.152 0.005,-0.079 0.007,-0.078 0.006,-0.081 0.005,-0.079 0.007,-0.078 0.047,-0.117 0.049,-0.114 0.006,-0.079 0.006,-0.078 0.048,-0.115 0.047,-0.116 0.08,0.005 -0.006,0.08 0.11,0.126 0.163,-0.066 0.212,-0.184 0.09,-0.152 0.007,-0.078 0.005,-0.079 0.006,-0.079 0.09,-0.152 -0.029,-0.121 0.09,-0.151 0.006,-0.08 0.006,-0.079 0.005,-0.079 -0.031,-0.121 0.006,-0.079 0.012,-0.158 0.091,-0.151 0.047,-0.117 0.092,-0.151 0.049,-0.117 0.132,-0.187 0.048,-0.117 0.091,-0.15 0.345,-0.372 0.175,-0.225 0.048,-0.116 0.049,-0.114 0.012,-0.158 0.048,-0.116 0.174,-0.225 0.007,-0.079 0.09,-0.152 0.006,-0.078 0.092,-0.153 0.004,-0.079 0.049,-0.114 0.047,-0.115 0.049,-0.116 0.09,-0.151 0.007,-0.08 0.091,-0.151 0.133,-0.188 0.048,-0.117 0.005,-0.08 0.007,-0.077 0.004,-0.08 0.05,-0.115 0.047,-0.116 0.093,-0.151 0.045,-0.116 0.049,-0.115 0.048,-0.116 0.05,-0.115 0.133,-0.188 0.004,-0.079 0.05,-0.117 0.048,-0.115 0.005,-0.079 0.006,-0.079 0.005,-0.079 0.05,-0.116 -0.032,-0.119 0.006,-0.081 0.05,-0.114 0.047,-0.115 0.013,-0.157 0.005,-0.081 0.091,-0.151 0.005,-0.08 0.006,-0.078 0.005,-0.078 0.047,-0.117 0.008,-0.079 0.007,-0.078 0.005,-0.078 0.006,-0.079 0.005,-0.081 0.006,-0.077 0.007,-0.08 0.005,-0.08 0.049,-0.115 -0.032,-0.12 0.007,-0.079 0.011,-0.157 0.006,-0.079 0.005,-0.081 0.056,-0.193 -0.032,-0.121 0.007,-0.08 -0.032,-0.121 -0.067,-0.162 0.007,-0.081 -0.068,-0.163 -0.067,-0.162 -0.694,-0.807 -0.152,-0.089 -0.079,-0.007 -0.116,-0.047 -0.079,-0.007 -0.078,-0.004 -0.079,-0.008 -0.08,-0.005 -0.079,-0.007 -0.079,-0.006 -0.078,-0.004 -0.079,-0.007 -0.116,-0.048 -0.079,-0.005 -0.078,-0.006 -0.121,0.03 -0.121,0.031 -0.079,-0.006 -0.164,0.067 -0.121,0.03 -0.679,0.586 -0.555,0.552 -0.176,0.227 -0.174,0.224 -0.177,0.224 -0.175,0.227 -0.261,0.296 -0.048,0.116 -0.181,0.306 -0.132,0.187 -0.133,0.188 -0.176,0.226 -0.219,0.261 -0.132,0.188 -0.09,0.152 -0.092,0.153 -0.175,0.223 -0.047,0.117 -0.049,0.114 -0.091,0.152 -0.133,0.189 -0.134,0.188 -0.09,0.153 -0.175,0.224 -0.048,0.117 -0.133,0.187 -0.091,0.152 -0.133,0.189 -0.047,0.116 -0.049,0.114 -0.049,0.117 -0.047,0.115 -0.049,0.116 -0.09,0.15 -0.133,0.189 -0.092,0.152 -0.09,0.152 -0.048,0.116 -0.091,0.151 -0.047,0.116 -0.134,0.188 -0.005,0.079 -0.006,0.079 -0.133,0.189 -0.049,0.115 -0.09,0.151 -0.091,0.153 -0.429,0.444 -0.129,0.11 -0.119,0.029 -0.116,-0.047 -0.079,-0.006 -0.079,-0.007 -0.116,-0.047 -0.115,-0.047 -0.08,-0.007 -0.077,-0.006 -0.079,-0.007 -0.08,-0.004 -0.078,-0.007 -0.115,-0.047 -0.152,-0.092 -0.117,-0.047 -0.077,-0.006 -0.08,-0.006 -0.115,-0.05 -0.116,-0.045 -0.121,0.029 -0.079,-0.007 -0.079,-0.006 -0.116,-0.047 -0.078,-0.006 -0.115,-0.048 -0.079,-0.006 -0.08,-0.006 -0.115,-0.048 -0.078,-0.005 -0.08,-0.008 -0.121,0.031 -0.115,-0.047 -0.08,-0.005 -0.121,0.03 -0.08,-0.006 -0.078,-0.005 -0.157,-0.013 -0.079,-0.005 -0.121,0.03 -0.121,0.031 -0.121,0.03 -0.08,-0.005 -0.079,-0.007 -0.121,0.032 -0.079,-0.007 -0.121,0.032 -0.721,0.621 -0.047,0.115 -0.049,0.115 -0.09,0.152 -0.006,0.078 -0.005,0.079 -0.006,0.08 -0.007,0.079 z m 130.904,40.974 0.125,-10e-4 0.298,-0.156 0.124,-0.126 0.022,-0.076 0.074,-0.102 0.047,-0.151 0.024,-0.076 0.023,-0.074 0.123,-0.129 0.175,-0.027 0.076,0.023 0.125,-0.001 0.324,-0.107 0.644,-0.335 0.123,-0.128 0.023,-0.076 0.025,-0.074 0.023,-0.076 0.073,-0.101 0.074,-0.102 0.025,-0.076 0.022,-0.075 0.023,-0.076 0.025,-0.074 0.023,-0.076 0.025,-0.076 0.022,-0.075 0.025,-0.075 0.024,-0.076 0.023,-0.075 0.074,-0.101 0.022,-0.077 0.025,-0.075 -0.002,-0.125 0.023,-0.075 0.024,-0.075 0.024,-0.077 0.023,-0.075 0.025,-0.075 0.024,-0.076 0.022,-0.076 0.024,-0.075 0.022,-0.076 0.025,-0.075 0.025,-0.075 0.023,-0.076 0.024,-0.075 -0.002,-0.125 -0.002,-0.125 0.023,-0.077 0.024,-0.075 0.024,-0.075 0.023,-0.075 -0.002,-0.125 0.023,-0.077 -0.001,-0.123 0.023,-0.076 0.025,-0.075 -0.003,-0.126 0.024,-0.075 -0.002,-0.125 -0.003,-0.124 0.024,-0.077 -0.003,-0.125 0.025,-0.077 0.023,-0.075 0.024,-0.075 0.024,-0.075 0.047,-0.152 0.023,-0.075 -0.055,-0.224 0.076,-0.101 0.024,-0.075 0.023,-0.076 0.025,-0.074 -0.004,-0.127 0.025,-0.075 -0.003,-0.125 0.024,-0.076 0.073,-0.101 -0.029,-0.174 0.025,-0.077 0.024,-0.075 -0.001,-0.125 0.022,-0.075 0.023,-0.077 0.024,-0.075 -0.003,-0.123 0.025,-0.077 0.024,-0.075 0.022,-0.075 -10e-4,-0.126 0.024,-0.075 -0.004,-0.125 0.024,-0.075 0.024,-0.077 0.075,-0.101 0.019,-0.2 0.026,-0.077 0.023,-0.073 0.024,-0.077 -0.026,-0.174 -0.055,-0.224 0.023,-0.076 -0.078,-0.149 -0.202,-0.146 -0.128,-0.122 -0.075,-0.024 -0.283,-0.422 -0.126,-0.122 -0.077,-0.024 -0.075,-0.025 -0.076,-0.023 -0.074,-0.024 -0.077,-0.022 -0.125,10e-4 -0.075,-0.024 -0.125,0.002 -0.124,0.003 -0.498,0.258 -0.419,0.283 -0.272,0.204 -0.174,0.155 -0.121,0.126 -0.174,0.153 -0.172,0.153 -0.071,0.102 -0.076,0.1 -0.023,0.078 0.181,0.346 0.101,0.073 0.075,0.025 0.077,0.022 0.078,0.15 10e-4,0.125 0.129,0.248 -0.174,0.026 -0.075,-0.023 -0.075,-0.023 -0.05,0.026 0.002,0.125 -0.024,0.075 0.003,0.126 -0.025,0.075 0.079,0.15 0.075,0.023 0.075,0.024 0.1,0.073 0.106,0.198 10e-4,0.125 0.003,0.125 -0.075,0.102 0.003,0.123 10e-4,0.127 -0.023,0.075 -0.072,0.102 10e-4,0.124 -0.022,0.2 -0.023,0.076 -0.024,0.075 0.003,0.127 -0.025,0.074 -0.023,0.076 -0.024,0.076 0.029,0.173 -0.074,0.102 -0.073,0.101 -0.074,0.102 -0.022,0.075 10e-4,0.125 -0.025,0.077 0.003,0.124 0.003,0.125 -0.024,0.076 -0.072,0.102 -0.025,0.075 -0.024,0.075 -0.024,0.075 -0.073,0.102 -0.022,0.075 -0.074,0.101 -0.124,0.128 -0.024,0.076 0.002,0.125 -0.073,0.101 -0.072,0.101 -0.025,0.076 -0.022,0.075 -0.025,0.075 -0.096,0.178 -0.074,0.1 -0.124,0.128 -0.022,0.075 -0.025,0.077 -0.024,0.075 -0.072,0.1 -0.074,0.102 -0.074,0.101 -0.022,0.077 -0.075,0.1 -0.024,0.075 -0.023,0.075 -0.096,0.179 -0.024,0.074 -0.025,0.077 -0.022,0.075 10e-4,0.125 0.002,0.126 -0.023,0.075 -0.025,0.075 -0.022,0.075 -0.025,0.075 0.003,0.125 0.079,0.274 0.234,0.447 0.126,0.123 0.075,0.024 0.077,0.022 0.075,0.026 0.125,-0.003 0.075,0.023 0.102,0.074 0.075,0.024 z m 8.398,16.821 -0.522,0.21 -0.125,0.001 -0.073,-0.024 -0.077,-0.023 -0.077,-0.024 -0.073,-0.023 -0.077,-0.024 -0.075,-0.024 -0.101,-0.074 -0.102,-0.072 -0.075,-0.024 -0.153,-0.173 -0.103,-0.073 -0.125,-0.124 -0.128,-0.122 -0.128,-0.124 -0.101,-0.072 -0.154,-0.173 -0.203,-0.272 -0.231,-0.32 -0.282,-0.421 -0.128,-0.123 -0.076,-0.024 -0.204,-0.272 -0.156,-0.173 -0.232,-0.445 -0.051,-0.1 -0.412,-0.668 -0.101,-0.074 -0.203,-0.271 -0.129,-0.124 -0.333,-0.52 -0.206,-0.27 -0.334,-0.52 -0.178,-0.223 -0.153,-0.172 -0.206,-0.27 -0.153,-0.174 -0.179,-0.223 -0.23,-0.321 -0.18,-0.221 -0.204,-0.273 -0.233,-0.319 -0.229,-0.322 -0.155,-0.172 -0.127,-0.124 -0.255,-0.372 -0.127,-0.122 -0.128,-0.122 -0.101,-0.074 -0.206,-0.273 -0.126,-0.122 -0.076,-0.024 -0.101,-0.074 -0.075,-0.023 -0.078,-0.024 -0.124,0.003 -0.074,-0.024 -0.076,-0.023 -0.175,0.027 -0.224,0.055 -0.224,0.052 -0.622,0.262 -0.224,0.053 -0.124,0.002 -0.225,0.054 -0.124,0.003 -0.127,0.002 -0.124,0.001 -0.125,0.003 -0.125,0.002 -0.076,-0.023 -0.074,-0.023 -0.202,-0.022 -0.1,-0.073 -0.076,-0.025 -0.102,-0.074 -0.102,-0.072 -0.154,-0.172 -0.074,-0.024 -0.103,-0.199 -0.107,-0.323 -10e-4,-0.126 -0.028,-0.174 -0.104,-0.323 0.022,-0.076 0.024,-0.075 0.022,-0.076 0.124,-0.128 0.025,-0.075 0.023,-0.075 0.022,-0.076 0.026,-0.075 0.072,-0.102 0.074,-0.1 0.073,-0.102 0.073,-0.101 0.023,-0.075 0.025,-0.075 0.272,-0.206 0.072,-0.102 0.075,-0.1 0.221,-0.18 -0.078,-0.148 -0.127,-0.124 -0.102,-0.073 -0.127,-0.123 -0.1,-0.073 -0.204,-0.271 -0.077,-0.025 -0.102,-0.074 -0.126,-0.122 -0.156,-0.172 -0.072,-0.024 -0.128,-0.123 -0.206,-0.272 -0.178,-0.222 -0.103,-0.073 -0.203,-0.271 -0.154,-0.173 -0.102,-0.075 -0.074,-0.024 -0.076,-0.022 -0.075,-0.024 -0.077,-0.023 -0.074,-0.025 -0.078,-0.148 0.026,-0.075 -0.028,-0.05 -0.077,-0.023 -0.074,-0.026 -0.102,-0.072 -0.102,-0.074 -0.1,-0.074 -0.1,-0.073 -0.077,-0.024 -0.076,-0.022 -0.074,-0.025 -0.077,-0.024 -0.1,-0.072 -0.076,-0.024 -0.153,-0.172 -0.075,-0.024 -0.076,-0.023 -0.075,-0.024 -0.076,-0.024 -0.076,-0.025 -0.15,-0.046 -0.125,0.003 -0.076,-0.025 -0.153,-0.172 -0.076,-0.024 -0.077,-0.024 -0.074,-0.025 -0.128,-0.121 -0.1,-0.074 -0.101,-0.073 -0.152,-0.048 -0.075,-0.024 -0.126,0.002 -0.075,-0.023 -0.076,-0.024 -0.1,-0.073 -0.206,-0.272 -0.174,0.028 -0.075,-0.024 -0.127,-0.123 -0.101,-0.072 -0.103,-0.075 -0.126,-0.122 -0.076,-0.024 -0.152,-0.047 -0.075,-0.024 -0.075,-0.024 -0.101,-0.073 -0.203,-0.146 -0.126,10e-4 -0.101,-0.072 -0.126,0.003 -0.074,-0.026 -0.074,-0.021 -0.181,-0.225 -0.075,-0.023 -0.075,-0.023 -0.102,-0.074 -0.177,-0.097 -0.075,-0.023 -0.076,-0.024 -0.1,-0.074 -0.152,-0.047 -0.124,0.001 -0.126,0.003 -0.127,-0.124 -0.1,-0.072 -0.104,-0.074 -0.074,-0.023 -0.075,-0.024 -0.127,0.003 -0.124,0.003 -0.075,-0.024 -0.103,-0.075 -0.074,-0.024 -0.203,-0.02 -0.049,-0.101 -0.053,-0.099 -0.124,0.003 -0.126,0.002 -0.075,-0.024 -0.077,-0.149 0.023,-0.075 -0.156,-0.298 -0.074,-0.023 -0.073,0.101 0.002,0.124 -0.024,0.076 -0.051,0.027 -0.075,-0.024 -0.125,0.002 -0.075,-0.024 -0.076,-0.024 -0.076,-0.024 -0.123,0.003 -0.077,-0.023 -0.102,-0.074 -0.126,-0.122 -0.075,-0.025 -0.103,-0.073 -0.103,-0.199 0.199,-0.103 0.149,-0.077 0.346,-0.181 0.177,-0.029 0.122,-0.002 0.176,-0.028 0.174,-0.028 0.076,0.024 0.151,0.047 0.124,-10e-4 0.077,0.024 0.176,0.097 0.077,0.022 0.074,0.026 0.176,0.096 0.077,0.023 0.125,-0.003 0.126,-0.001 0.074,0.023 0.175,-0.027 0.124,-0.003 0.127,-0.002 0.075,0.024 0.075,0.024 0.124,-0.003 0.077,0.025 0.076,0.022 0.199,0.022 0.077,0.024 0.128,0.123 0.1,0.075 0.076,0.022 0.101,0.072 0.076,0.026 0.074,0.023 0.075,0.022 0.076,0.024 0.077,0.025 0.073,0.024 0.102,0.072 0.077,0.023 0.101,0.076 0.127,0.122 0.076,0.024 0.075,0.023 0.127,0.124 0.127,0.123 0.127,0.122 0.102,0.072 0.1,0.076 0.077,0.023 0.126,0.122 0.077,0.024 0.1,0.074 0.076,0.024 0.101,0.072 0.076,0.023 0.076,0.026 0.076,0.023 0.126,0.122 0.128,0.123 0.1,0.074 0.102,0.074 0.102,0.073 0.075,0.024 0.076,0.024 0.074,0.023 0.128,0.122 0.153,0.173 0.102,0.072 0.101,0.074 0.102,0.074 0.075,0.025 0.076,0.022 0.127,0.124 0.073,0.024 0.104,0.072 0.073,0.024 0.13,0.123 0.075,0.024 0.101,0.074 0.077,0.023 0.1,0.074 0.075,0.024 0.127,0.121 0.101,0.075 0.077,0.022 0.075,0.025 0.101,0.073 0.127,0.122 0.1,0.075 0.103,0.072 0.074,0.024 0.076,0.024 0.077,0.023 0.075,0.024 0.102,0.074 0.074,0.023 0.076,0.024 0.101,0.074 0.126,0.122 0.102,0.074 0.18,0.223 0.101,0.072 0.075,0.023 0.077,0.026 0.075,0.023 0.075,0.024 0.077,0.022 0.126,0.124 0.077,0.023 0.1,0.074 0.075,0.024 0.101,0.073 0.127,-0.003 0.15,0.048 0.101,0.072 0.076,0.025 0.1,0.074 0.078,0.022 0.15,0.173 0.077,0.025 0.101,0.074 0.1,0.071 0.129,0.124 0.074,0.023 0.102,0.074 0.077,0.024 0.075,0.023 0.101,0.075 0.1,0.072 0.129,0.123 0.128,0.124 0.073,0.022 0.077,0.025 0.101,0.073 0.075,0.024 0.077,0.024 0.074,0.023 0.125,-0.002 0.127,-0.003 0.125,-10e-4 0.123,-0.003 0.176,-0.028 0.174,-0.028 0.125,-0.002 0.175,-0.028 0.274,-0.08 0.125,-0.001 0.125,-0.003 0.124,-0.002 0.075,0.023 0.078,0.025 0.124,-0.002 0.175,-0.028 0.174,-0.028 0.124,-0.003 0.076,0.023 0.077,0.024 0.125,-0.003 0.125,-10e-4 0.124,-0.001 0.076,0.023 0.076,0.024 0.075,0.024 0.075,0.023 0.124,-0.002 0.128,-0.003 0.124,-0.002 0.075,0.024 0.076,0.024 0.075,0.023 0.126,-0.003 0.124,-0.001 0.074,0.024 0.077,0.024 0.076,0.023 0.074,0.024 0.174,-0.027 0.077,0.023 0.126,-0.001 0.074,0.021 0.075,0.025 0.077,0.024 0.075,0.023 0.075,0.024 0.077,0.024 0.076,0.024 0.124,-0.003 0.175,-0.028 0.075,0.024 0.075,0.024 0.126,-0.002 0.124,-0.003 0.124,-0.003 0.127,-10e-4 0.124,-0.001 0.076,0.024 0.126,-0.003 0.075,0.023 0.075,0.024 0.224,-0.054 0.126,-0.002 0.075,0.024 0.076,0.024 0.124,-0.003 0.124,-0.002 0.077,0.023 0.125,-0.002 0.075,0.024 0.124,-0.002 0.076,0.024 0.077,0.024 0.075,0.023 0.075,0.024 0.102,0.073 0.127,0.123 0.126,0.122 0.128,0.124 0.207,0.397 0.053,0.224 -0.021,0.077 v 0.125 l 0.028,0.173 0.003,0.126 0.003,0.125 10e-4,0.125 -0.023,0.075 -0.024,0.075 -0.024,0.077 -0.124,0.127 -0.072,0.101 -0.074,0.102 -0.023,0.075 -0.024,0.075 -0.072,0.103 -0.025,0.073 -0.073,0.103 -0.123,0.125 -0.171,0.153 -0.074,0.103 -0.223,0.178 -0.172,0.153 -0.322,0.233 -0.222,0.178 -0.27,0.204 -0.027,0.076 -0.072,0.103 -0.022,0.073 -0.075,0.103 -0.198,0.101 -0.076,-0.022 -0.074,-0.023 -0.102,-0.074 -0.103,-0.074 -0.127,-0.247 -0.028,-0.175 -0.003,-0.124 -0.155,-0.298 -0.128,-0.124 -0.152,-0.173 -0.13,-0.247 -0.025,-0.049 -0.078,-0.025 -0.099,-0.072 -0.076,-0.025 -0.075,-0.024 -0.075,-0.022 -0.127,10e-4 -0.075,-0.023 -0.125,0.003 -0.125,0.002 -0.176,0.027 -0.124,0.003 -0.123,0.002 -0.077,-0.025 -0.125,0.002 -0.125,0.002 -0.075,-0.023 -0.076,-0.024 -0.076,-0.023 -0.127,10e-4 -0.123,0.004 -0.075,-0.025 -0.126,0.001 -0.174,0.028 -0.172,0.155 0.025,0.048 0.075,0.025 0.075,0.024 0.284,0.42 0.178,0.223 0.153,0.171 0.18,0.222 0.126,0.124 0.233,0.321 0.1,0.073 0.232,0.322 0.101,0.071 0.1,0.076 0.152,0.17 0.311,0.472 0.153,0.173 0.206,0.271 0.695,1.214 0.153,0.171 0.179,0.224 0.025,0.049 0.181,0.348 0.231,0.321 0.335,0.519 0.178,0.223 0.233,0.321 0.669,1.165 0.204,0.271 0.231,0.321 0.127,0.124 0.101,0.073 0.129,0.123 0.102,0.074 0.1,0.072 0.076,0.025 0.229,0.195 0.102,0.074 0.1,0.073 0.076,0.024 0.101,0.074 0.074,0.022 0.077,0.025 0.248,-0.13 0.023,-0.074 -0.001,-0.127 0.022,-0.076 0.025,-0.074 -0.002,-0.126 0.024,-0.074 0.023,-0.076 0.024,-0.075 0.025,-0.076 0.197,-0.104 0.258,0.497 0.002,0.124 -0.022,0.075 0.001,0.127 0.028,0.175 -0.072,0.099 -0.024,0.076 -0.025,0.077 -0.024,0.074 -0.023,0.076 -0.024,0.075 -0.022,0.075 -0.647,0.337 z m -44.976,12.964 c 65.287,0 118.231,-52.945 118.231,-118.232 0,-65.287 -52.944,-118.232 -118.231,-118.232 -65.287,0 -118.232,52.945 -118.232,118.232 0,65.287 52.945,118.232 118.232,118.232 m 0,4.062 c 67.53,0 122.294,-54.764 122.294,-122.294 0,-67.53 -54.764,-122.296 -122.294,-122.296 -67.531,0 -122.295,54.766 -122.295,122.296 0,67.53 54.764,122.294 122.295,122.294 m 0,-41.631 c -44.542,0 -80.664,-36.122 -80.664,-80.663 0,-44.542 36.122,-80.662 80.664,-80.662 44.541,0 80.661,36.12 80.661,80.662 0,44.541 -36.12,80.663 -80.661,80.663 m 0,2.772 c -46.072,0 -83.434,-37.363 -83.434,-83.435 0,-46.072 37.362,-83.435 83.434,-83.435 46.071,0 83.435,37.363 83.435,83.435 0,46.072 -37.364,83.435 -83.435,83.435 m -0.001,-7.901 c -41.383,0 -74.944,-33.826 -74.944,-75.534 0,-41.71 33.561,-75.533 74.944,-75.533 41.383,0 74.943,33.823 74.943,75.533 0,41.708 -33.56,75.534 -74.943,75.534 m 93.027,-92.483 c 0.885,0.575 0.474,1.011 1.362,1.011 h 0.254 c 0.809,0 4.381,-3.877 4.875,-4.616 -1.739,-0.145 -4.172,-1.797 -6.156,-1.797 h -0.255 c -0.927,0 -0.771,0.648 -0.979,1.588 l -1.331,-5.692 c 0.889,0.323 0.782,1.005 1.827,1.508 0.786,0.377 1.517,0.594 2.437,0.897 1.169,0.387 4.234,1.699 5.226,1.699 1.553,0 3.477,-0.7 4.905,-1.022 l 0.402,-1.84 1.105,5.427 c -0.343,-0.394 -0.646,-1.281 -1.026,-1.281 -3.943,0 -4.856,0.624 -6.862,2.627 -0.843,0.843 -4.422,4.007 -4.422,5.068 v 1.025 l -0.435,-0.015 z m -184.335,-5.402 c -1.099,-0.58 -10.322,-3.335 -11.799,-3.335 -0.843,0 -0.736,0.654 -1.283,1.282 0.032,-1.449 0.68,-4.982 1.708,-5.398 l -0.168,1.551 c 1.254,0.842 9.614,3.592 11.542,3.592 h 0.255 c 0.904,0 1.022,-0.944 1.662,-1.505 l -1.917,5.866 z M -9,-101.562 l 3.261,-1.094 c -0.508,0.694 -1.539,0.891 -1.539,1.795 v 1.026 c 0,0.59 0.553,1.857 0.807,2.405 l 11.504,-4.457 v -1.283 c 0,-0.98 0.079,-0.093 -0.256,-0.77 1.098,0.398 1.992,4.195 2.564,5.388 -0.84,-0.305 -1.045,-1.283 -1.539,-1.283 -1.793,0 -8.961,3.504 -11.541,4.104 0.538,2.31 0.893,3.591 3.898,3.723 l -3.075,1.13 z m -178.738,-0.794 -1.781,4.26 6.034,0.055 z m -6.943,2.046 0.476,-0.025 -0.31,1.269 c 0.268,0.4 0.341,0.769 1.027,0.769 h 2.564 c 0.815,0 2.565,-4.155 2.565,-4.617 0,-0.913 -2.101,-2.439 -2.898,-2.902 l -1.365,1.037 2.468,-5.061 c 0,3.043 2.899,5.081 4.553,6.733 1.118,1.12 5.113,4.835 5.447,6.149 l -9.487,-0.312 h -5.13 c -0.892,0 -0.361,0.455 -1.545,0.766 z m 181.502,-9.272 c 0.095,1.12 2.215,4.899 3.078,5.13 -0.265,-0.505 -0.511,-0.757 -0.511,-1.54 0,-0.493 9.99,-6.413 11.028,-6.413 0.412,0 0.756,0.898 1.283,1.284 l -2.813,-5.287 -0.264,0.155 c 0.265,0.506 0.511,0.757 0.511,1.541 0,0.648 -9.782,6.413 -11.028,6.413 -0.33,0 -1.06,-1.026 -1.284,-1.283 m -163.382,2.052 c 0,0.883 -0.189,0.993 -0.256,1.795 0.453,-0.52 2.052,-2.566 2.052,-3.334 0,-2.134 -3.865,-9.69 -4.103,-12.569 1.224,0.819 7.951,4.786 7.951,5.899 0,0.434 -0.343,0.958 -0.513,1.282 l 0.275,0.178 2.696,-4.186 c -0.945,0.436 -0.967,1.187 -1.946,1.187 -0.326,0 -9.896,-6.447 -11.285,-7.183 l 4.309,13.869 c -1.156,-0.34 -8.412,-4.959 -8.412,-5.917 v -0.255 c 0,-0.835 0.221,-0.195 0.512,-1.284 l -2.928,4.034 c 1.141,-0.305 0.627,-0.954 1.645,-0.954 h 0.258 c 0.633,0 4.383,2.713 5.231,3.231 1.306,0.794 4.514,2.201 4.514,3.95 z m 160.305,-7.182 c 0,-0.524 -3.334,-1.528 -3.334,-4.619 v -0.512 c 0,-1.573 1.762,-3.335 3.334,-3.335 2.436,0 5.584,2.564 7.182,2.564 h 0.513 c 1.24,0 2.052,-0.811 2.052,-2.051 v -0.513 c 0,-1.449 -1.889,-3.079 -3.334,-3.079 h -1.025 c -1.113,0 -0.793,0.409 -2.138,0.392 l 4.188,-2.7 c -0.164,0.687 -0.256,0.484 -0.256,1.026 0,0.579 3.592,2.044 3.592,4.618 v 1.283 c 0,1.845 -1.865,3.334 -3.848,3.334 -1.818,0 -5.354,-2.821 -7.439,-2.821 -1.003,0 -1.796,0.954 -1.796,2.051 v 0.256 c 0,1.627 1.634,2.823 3.336,2.823 h 0.768 c 1.112,0 0.792,-0.409 2.12,-0.417 l -4.171,2.725 c 0.164,-0.688 0.256,-0.483 0.256,-1.025 m -158.509,-16.418 c 0,-4.044 3.818,-6.071 6.601,-7.363 l 4.681,4.019 1.348,-0.441 -3.909,3.785 c 0.29,-1.089 0.513,-0.449 0.513,-1.282 v -0.514 c 0,-0.723 -3.512,-3.847 -3.848,-3.847 -1.922,0 -3.846,2.481 -3.846,4.618 0,3.205 3.728,7.438 6.925,7.438 h 1.538 c 1.515,0 3.591,-2.077 3.591,-3.592 v -1.282 c 0,-1.297 -0.414,-1.362 -0.44,-2.628 l 2.76,3.609 -1.038,-0.211 c -1.392,2.632 -2.853,5.643 -6.925,5.643 -4.522,0 -7.951,-3.334 -7.951,-7.952 m 146.198,0.769 4.104,-3.847 c 0.716,0.479 2.053,2.04 2.053,3.078 0,1.506 -1.339,3.079 -2.822,3.079 h -0.514 c -1.295,0 -2.547,-1.284 -2.821,-2.31 m -3.336,-2.051 c 0.345,1.29 5.511,6.155 7.182,6.155 h 0.771 c 1.541,0 3.077,-1.537 3.077,-3.077 v -0.257 c 0,-1.132 -0.378,-1.827 -0.769,-2.564 0.829,-0.195 5.414,-1.284 5.901,-1.284 h 0.767 c 1.243,0 1.15,0.652 2.566,0.769 -0.374,-0.559 -2.07,-2.563 -2.821,-2.563 h -0.512 c -1.316,0 -4.973,1.282 -7.182,1.282 l -0.986,-0.814 c 0.409,-0.629 3.275,-3.804 4.061,-3.804 h 0.515 c 0.833,0 0.194,0.223 1.281,0.513 l -4.191,-4.275 c 0.097,0.568 0.601,1.105 0.601,1.71 0,0.822 -7.569,8.978 -8.977,8.978 -0.616,0 -0.753,-0.416 -1.284,-0.769 m -124.651,0.257 4.872,-3.592 c -0.703,0.164 -1.042,0.514 -1.538,0.514 -0.885,0 -3.303,-3.805 -3.789,-4.538 l 5.18,-3.748 3.272,4.724 -1.046,1.8 4.59,-3.626 c -0.703,0.164 -1.042,0.513 -1.538,0.513 -0.569,0 -7.438,-9.551 -7.438,-9.747 0,-1.258 0.709,-1.178 0.935,-2.177 l -4.783,3.715 c 0.705,-0.164 1.043,-0.513 1.54,-0.513 0.896,0 3.418,3.808 3.935,4.741 l -5.218,3.725 c -0.67,-1.267 -3.078,-3.793 -3.078,-5.13 0,-0.891 0.455,-0.362 0.744,-1.575 l -4.592,3.627 c 0.415,-0.097 1.276,-0.514 1.282,-0.514 1.173,0 3.466,3.692 4.109,4.614 0.539,0.775 3.587,4.712 3.587,5.391 0,0.608 -0.67,1.331 -1.026,1.796 m 116.702,-6.926 c 1.669,0.445 2.761,2.564 4.616,2.564 h 0.257 c 0.599,0 0.76,-0.529 1.795,-0.768 l -1.648,2.224 -0.06,0.316 -8.754,-6.366 0.203,-0.279 c 0.398,0.265 0.934,0.769 1.539,0.769 0.517,0 7.438,-9.251 7.438,-10.516 0,-0.172 -0.807,-0.958 -1.027,-1.283 l 8.643,6.008 -0.991,3.551 -0.212,-2.891 -4.243,-3.736 -0.287,0.017 -3.747,4.95 c 0.748,0.507 3.163,2.361 3.915,2.361 0.761,0 1.279,-0.682 1.796,-1.026 l -2.876,4.251 c -0.036,-0.852 0.311,-1.19 0.311,-1.686 0,-1.105 -2.767,-2.782 -3.592,-3.335 z m -6.413,-4.618 1.026,-14.878 c -1.909,0.51 -10.847,9.491 -12.054,9.491 -0.694,0 -0.707,-0.122 -1.282,-0.257 l -0.126,0.24 5.255,2.582 c -0.374,-1.036 -1.027,-0.52 -1.027,-1.54 0,-0.795 6.946,-6.507 8.124,-7.162 l -1.147,10.786 -0.316,0.025 -1.671,-0.035 3.988,1.774 c -0.18,-0.27 -0.781,-0.881 -0.77,-1.026 m -96.592,-8.074 4.453,3.785 -0.266,-5.968 z m 6.8,6.536 c -1.865,-0.158 -10.305,-9.236 -11.777,-9.236 h -1.282 l -0.129,-0.231 3.922,-2.174 c -0.32,1.133 -0.971,0.617 -0.971,1.635 0,0.975 2.121,2.354 2.819,2.823 l 4.58,-2.38 -0.421,-4.04 -1.853,0.231 -0.134,-0.234 5.001,-2.578 c -0.305,1.201 -0.76,0.67 -0.76,1.562 l -0.053,2.568 z m 67.222,-22.318 c 0,2.603 -1.084,5.64 -1.276,7.96 -0.128,1.551 -0.405,2.405 -0.684,3.946 -0.431,2.397 0.957,1.501 1.447,2.716 l -4.605,-0.848 -0.013,-0.435 h 1.283 c 1.178,0 2.309,-7.74 2.309,-9.491 -1.281,0.857 -9.641,8.72 -10.003,8.72 -1.497,0 -2.21,-0.481 -3.59,-0.512 v -0.513 h 1.025 c 1.139,0 1.595,-0.604 2.052,-1.283 l 1.772,-11.248 -1.761,-0.356 -0.011,-0.452 4.659,0.812 -1.844,0.439 -1.858,10.024 z m 6.155,16.16 c 0,0.458 1.153,0.948 1.539,1.283 l -5.735,-1.789 0.092,-0.263 c 0.575,0.133 0.59,0.256 1.283,0.256 1.33,0 2.14,-4.129 2.596,-5.355 0.293,-0.785 2.02,-5.262 2.02,-5.931 v -0.513 c 0,-1.227 -0.822,-0.271 -1.282,-1.54 1.283,0.616 4.897,0.957 5.387,2.309 l -1.789,-0.312 c -0.568,1.116 -4.111,10.797 -4.111,11.855 m -23.093,-4.346 -4.863,-0.015 v -0.512 h 1.025 c 0.788,0 1.025,-0.752 1.025,-1.54 v -7.951 c 0,-1.881 -1.545,-3.592 -3.334,-3.592 h -1.026 c -3.844,0 -3.59,4.58 -3.59,8.465 v 3.336 c 0,0.616 0.415,0.754 0.769,1.282 h 1.283 v 0.256 h -5.899 c 1.926,-1.222 2.067,0.206 2.051,-3.59 -0.006,-1.799 -0.004,-3.596 -0.006,-5.395 -0.004,-3.518 1.904,-5.379 5.392,-5.379 6.782,0 5.387,6.712 5.274,13.532 z m -43.337,6.142 c 0.571,-0.781 2.052,-1.279 2.052,-2.565 0,-1.322 -2.741,-10.142 -3.334,-11.03 l -1.552,0.17 c 0.434,-0.96 3.2,-1.453 4.63,-1.453 l -1.543,1.021 2.383,9.991 5.903,-13.287 0.437,-0.034 3.456,13.119 1.93,-0.036 0.074,0.249 -4.663,1.384 -0.027,-0.607 c 0.804,-0.067 1.54,-0.176 1.54,-1.026 0,-2.88 -2.052,-6.037 -2.052,-8.979 h -0.513 l -5.168,12.297 z m -58.432,74.127 c -1.917,-0.43 -11.462,-2.466 -12.872,-1.791 0.437,1.637 1.539,0.911 1.539,2.054 v 0.256 c 0,0.495 -0.456,1.025 -0.769,1.025 -0.981,0 -1.539,-0.758 -1.539,-1.796 v -0.512 c 0,-1.439 1.696,-2.822 3.077,-2.822 l 1.549,-0.051 8.71,1.334 1.04,0.002 0.243,-1.541 0.578,0.011 -1.28,5.88 z m 49.945,48.943 c -1.166,0.267 -2.173,0.994 -3.154,1.315 h -2.892 c -0.695,-0.79 -1.501,-0.543 -1.84,-1.84 h -0.262 c -0.137,-0.352 0.622,-1.19 0.788,-1.315 -0.153,-1.206 -0.249,-0.653 -0.788,-1.315 0.941,-0.84 0.387,-1.886 2.102,-2.103 v -0.526 c 0.672,-0.052 0.916,-0.017 1.315,-0.263 v -0.261 h 0.789 c 0.175,-0.265 0.35,-0.527 0.525,-0.789 h 0.526 c 0.176,-0.264 0.351,-0.527 0.526,-0.789 h 0.789 v -0.264 l 1.051,-0.263 v -0.261 c 0.525,-0.089 1.052,-0.177 1.577,-0.265 v -0.263 h 0.526 v -0.263 c 2.453,-0.699 4.907,-1.4 7.361,-2.102 h 3.416 v -0.262 l 1.052,-0.263 v -0.263 c 0.755,-0.164 0.537,0.391 0.789,0.526 0.348,-0.024 0.385,-0.249 1.051,-0.263 0.088,-0.263 0.176,-0.526 0.263,-0.789 h 0.789 v -0.526 c 0.964,-0.088 1.928,-0.175 2.892,-0.263 0.074,0.025 0.084,0.491 0.526,0.526 l 0.263,-0.526 h 0.788 l 0.263,-0.526 h 1.314 c 0.591,-0.184 3.182,-0.972 4.206,-0.525 0.088,0.175 0.175,0.35 0.263,0.525 0.526,0.088 1.052,0.176 1.578,0.263 v 0.263 h 0.526 v 0.263 l 0.788,0.263 v 0.526 c 0.525,0.087 1.052,0.175 1.577,0.263 l -0.262,1.314 h 0.262 l 0.263,1.315 h -0.263 c -0.251,0.965 -0.545,0.878 -1.314,1.313 v 0.263 h -0.526 v 0.264 h -3.681 v 0.262 h -1.05 v 0.263 h -1.316 v 0.264 h -0.788 v 0.262 h -1.577 v 0.262 h -0.788 v 0.265 c -0.789,0.087 -1.578,0.174 -2.367,0.261 v 0.263 h -1.314 v 0.263 h -1.315 v 0.263 h -1.051 v 0.263 h -2.629 v 0.263 h -0.789 v 0.263 h -0.525 v 0.263 h -0.788 v 0.262 h -0.526 v 0.264 h -0.789 v 0.262 c -0.789,0.088 -1.577,0.176 -2.366,0.263 v 0.263 h -0.526 c -0.087,0.175 -0.175,0.351 -0.263,0.526 h -0.526 l -0.526,0.789 c -0.701,-0.088 -1.402,-0.176 -2.103,-0.263 -0.763,0.231 -1.192,0.96 -1.84,1.315 z m 49.421,13.932 v 0.526 l 0.525,0.262 c -0.086,1.14 -0.175,2.279 -0.261,3.418 h -0.264 v 2.102 c -0.438,0.614 -0.877,1.228 -1.314,1.842 l -1.577,0.526 v 0.263 c -1.561,0.555 -3.178,-0.797 -3.943,-0.263 -1.595,-0.195 -1.424,-0.955 -2.366,-1.579 -0.058,-0.713 0.283,-1.284 0.146,-2.212 -0.081,-0.558 -0.681,-1.505 -0.669,-1.96 0.016,-0.636 0.561,-0.663 0.519,-1.298 -0.125,-1.844 -0.64,-3.658 -0.174,-4.183 0.536,-0.604 -0.808,-2.423 -0.874,-3.227 h -0.262 v -0.526 c -0.176,-0.087 -0.351,-0.175 -0.526,-0.263 -0.088,-0.262 -0.175,-0.526 -0.263,-0.788 -0.351,-0.088 -0.701,-0.176 -1.052,-0.263 v -0.263 c -1.167,-0.406 -6.012,0.26 -6.834,0.526 v 0.262 h -1.578 v 0.264 h -1.84 v 0.262 c -1.751,0.088 -3.505,0.176 -5.257,0.263 v 0.263 h -1.051 v 0.263 c -0.351,0.088 -0.702,0.175 -1.052,0.263 v 0.263 c -0.964,0.175 -1.928,0.35 -2.892,0.524 v 0.263 h -0.789 v 0.264 c -0.613,0.088 -1.227,0.176 -1.84,0.262 v 0.265 c -0.876,0.086 -1.753,0.174 -2.629,0.263 -0.087,0.174 -0.176,0.35 -0.263,0.525 h -0.525 v 0.263 l -2.892,0.789 v 0.263 c -0.352,0.008 -0.438,-0.457 -1.051,-0.263 v 0.263 h -0.789 l -0.263,0.524 h -0.789 c -0.175,0.263 -0.35,0.526 -0.525,0.789 h -1.577 v 0.263 c -0.525,0.175 -1.052,0.35 -1.578,0.526 v 0.262 h -1.315 v 0.263 h -0.525 v 0.263 l -1.84,-0.263 -1.84,-1.314 -0.263,-1.313 h -0.263 c -0.314,-1.043 0.365,-2.087 0.526,-2.894 h 0.526 c 0.146,-0.582 0.218,-0.669 0.525,-1.05 h 0.263 c 0.088,-0.263 0.176,-0.526 0.263,-0.789 l 0.789,-0.263 0.526,-0.788 c 0.35,-0.088 0.701,-0.176 1.051,-0.263 0.088,-0.176 0.174,-0.351 0.262,-0.526 h 0.526 v -0.263 h 1.315 c 0.087,-0.175 0.176,-0.351 0.262,-0.526 h 1.053 v -0.263 c 0.349,-0.087 0.7,-0.175 1.05,-0.263 l 0.789,-1.051 c 0.439,-0.088 -0.21,0.98 0.23,0.893 0,-0.088 -0.334,1.78 -0.334,1.692 0.992,-0.253 2.045,-2.665 2.725,-0.689 0,-0.088 1.354,-1.394 1.354,-1.482 0.35,-0.087 -0.382,-0.852 -0.031,-0.94 l 0.263,-0.526 1.577,-0.263 v -0.263 h 0.788 l 0.263,-0.524 c 0.613,-0.176 1.228,-0.351 1.84,-0.526 v 0.263 h 0.526 v 0.526 c 1.398,-0.149 3.756,-1.243 4.469,-2.103 1.004,0.024 1.098,-0.053 1.315,0.788 0.263,-0.087 0.526,-0.176 0.789,-0.263 v -0.264 h 0.525 c 0.088,-0.174 0.176,-0.349 0.263,-0.525 h 0.526 l 0.262,-0.525 c 1.139,-0.176 2.278,-0.351 3.419,-0.526 0.157,0.524 -0.038,0.227 0.261,0.526 0.322,0.329 0.048,0.208 0.526,0 v -0.263 h 0.789 v -0.526 h 1.841 v 0.263 h 0.262 v -0.263 h 1.315 1.578 v -0.263 c 1.286,-0.36 2.637,0.194 3.68,-0.263 v -0.263 h 0.526 v -0.263 h 0.524 c 0.526,-0.613 1.052,-1.226 1.578,-1.84 0.34,-0.717 -0.07,-0.774 0.526,-1.313 -0.078,-1.364 -0.487,-1.714 -0.789,-2.631 -0.088,-1.401 -0.175,-2.804 -0.263,-4.205 h -0.263 v -0.789 h -0.263 v -0.526 h -0.263 c -0.087,-0.613 -0.175,-1.226 -0.263,-1.84 h -0.261 v -1.839 h -0.263 v -0.527 h -0.264 c -0.088,-0.438 -0.176,-0.876 -0.262,-1.315 h -0.264 v -0.525 h -0.263 c -0.175,-0.525 -0.351,-1.05 -0.526,-1.577 h -0.263 c -0.46,-1.066 0.217,-1.502 0,-2.366 h -0.263 v -1.314 h -0.263 v -1.315 h -0.263 v -1.576 h -0.262 v -0.79 h -0.263 l -0.262,-1.052 h -0.263 v -0.525 l -0.789,-0.526 -0.263,-1.577 h -0.263 v -0.788 h -0.262 v -1.052 h -0.263 v -1.051 h -0.263 v -1.052 h -0.263 v -3.416 c 0.068,-0.366 0.314,0.104 0.263,-0.264 h -0.263 v -0.788 l -0.789,-0.526 -0.263,-1.315 h -0.262 l -0.264,-1.051 h -0.262 v -1.052 h -0.263 v -2.103 h -0.263 v -1.315 h -0.263 v -2.627 h -0.263 v -1.052 h -0.263 v -2.629 h -0.263 v -0.789 h -0.263 c -0.087,-0.351 -0.175,-0.701 -0.263,-1.052 h -0.263 v -0.525 h -0.263 v -0.787 h -0.261 c -0.263,-2.192 -0.527,-4.383 -0.789,-6.574 -0.156,-0.513 -0.748,-2.638 -0.527,-3.417 h 0.263 c 0.402,-1.45 -0.235,-4.272 -0.525,-5.257 v -4.207 h -0.264 v -1.84 h -0.263 v -0.524 h -0.263 v -4.207 h 0.263 v -0.526 h 0.263 c 0.415,-1.199 -0.471,-3.124 0.264,-3.943 -0.013,-0.752 -0.092,-1.125 -0.264,-1.577 h -0.526 v -2.891 h 0.263 v -0.527 c 0.176,-0.087 0.351,-0.175 0.527,-0.263 -0.089,-0.438 -0.176,-0.876 -0.264,-1.314 l 1.315,-1.841 c 0.729,-0.176 2.555,-1.083 3.418,-0.262 h 1.051 l 1.578,1.84 v 0.789 h 0.262 v 0.788 h 0.263 l -0.263,2.63 c 0.156,0.501 0.807,1.125 0.526,2.103 h -0.263 c -0.087,0.612 -0.175,1.227 -0.263,1.839 0.263,0.175 0.526,0.35 0.79,0.526 v 1.314 c 0.037,0 -3.185,2.578 -1.906,2.313 0.339,-0.069 0.533,0.253 0.477,0.85 -0.094,0.997 -0.642,2.523 -0.611,2.523 -0.088,2.454 2.803,-6.869 2.04,1.674 l 0.525,0.263 c 0.471,0.96 0.177,2.236 0,3.155 h -0.525 c 0.087,0.263 0.174,0.526 0.262,0.789 h 0.263 v 0.526 c 0.176,0.087 0.351,0.175 0.525,0.263 v 2.629 0.263 h 0.263 v 2.89 h 0.262 v 2.629 c -0.102,0.261 -0.766,0.129 -0.525,1.052 h 0.263 v 0.526 h 0.262 c 0.088,1.49 0.176,2.978 0.263,4.469 h 0.263 v 0.527 h 0.263 l 0.263,2.627 h 0.264 v 4.207 h 0.262 v 1.576 c 0.104,0.357 0.202,-0.103 0.263,0.262 v 2.631 h 0.264 v 0.787 h 0.262 v 0.526 h 0.264 v 2.104 h 0.263 v 0.525 h 0.261 v 0.789 h 0.263 v 0.526 h 0.263 c 0.088,0.526 0.176,1.051 0.263,1.577 h 0.263 c -0.088,0.701 -0.175,1.401 -0.263,2.102 h 0.263 v 1.316 h 0.263 c 0.088,0.349 0.175,0.7 0.263,1.05 h 0.263 v 0.526 c 0.175,0.088 0.35,0.176 0.525,0.263 0.088,0.964 0.176,1.928 0.263,2.892 h 0.263 v 0.788 c 0.263,0.175 0.526,0.35 0.788,0.525 v 0.526 c 0.176,0.088 0.352,0.177 0.527,0.264 v 1.051 c 0.526,0.438 1.052,0.876 1.577,1.314 0.731,1.031 0.674,1.958 2.102,2.366 v 0.263 c 0.451,0.28 2.677,0.031 3.155,-0.263 v -0.262 c 0.407,-0.305 0.463,-0.354 1.051,-0.526 0.224,-1.024 0.729,-1.706 1.315,-2.365 0.176,-0.089 0.351,-0.177 0.526,-0.263 v -1.315 h 0.263 c 0.201,-0.714 0.061,-0.599 0.787,-0.79 0.219,-0.826 0.731,-1.202 1.052,-1.839 v -0.526 h 0.265 c 0.086,-1.139 0.175,-2.278 0.261,-3.417 h 0.264 v -1.05 h 0.262 v -1.054 h 0.264 v -1.576 h 0.262 v -0.789 h 0.264 v -0.788 h 0.261 v -1.052 h 0.265 c 0.198,-0.676 -0.274,-1.395 -0.265,-1.577 h 0.265 c 0.086,-0.964 0.174,-1.928 0.261,-2.891 h 0.263 v -1.053 h 0.263 v -0.526 h 0.263 c -0.088,-0.438 -0.175,-0.876 -0.263,-1.313 0.175,-0.089 0.351,-0.177 0.526,-0.263 v -0.526 h 0.263 v -0.525 h 0.263 v -3.681 h 0.263 v -0.789 h 0.263 v -0.789 h 0.262 v -1.051 h 0.263 v -7.098 h 0.263 v -4.731 h 0.263 v -1.84 h 0.263 v -0.79 h 0.262 v -1.576 h 0.264 v -1.315 h 0.262 c 0.094,-0.798 -0.682,-0.794 -0.788,-1.051 0.088,-0.526 0.175,-1.052 0.262,-1.578 0.089,-1.665 0.175,-3.329 0.264,-4.994 h 0.262 v -0.526 h 0.264 c -0.089,-2.015 -0.176,-4.031 -0.264,-6.045 h 0.264 v -2.103 h 0.261 v -0.526 h 0.264 v -1.052 h 0.263 v -0.526 h 0.263 v -0.526 h 0.262 v -0.525 h 0.264 v -0.789 h 0.262 c 0.2,-0.624 -0.183,-0.985 -0.262,-1.315 h 0.262 c 0.311,-0.492 0.721,-0.623 1.053,-1.051 h 2.365 v 0.263 c 0.264,0.175 0.525,0.35 0.79,0.525 v 0.526 c 0.698,0.438 1.401,0.877 2.102,1.315 0.087,0.526 0.175,1.051 0.263,1.577 h 0.262 v 7.623 c -0.087,1.228 -0.175,2.454 -0.262,3.681 h 0.262 v 4.468 h -0.262 v 2.892 c -0.176,0.088 -0.351,0.176 -0.526,0.263 v 1.052 h -0.263 c 0,0.263 -0.747,-0.359 -0.747,-0.095 -0.043,0 -0.5,0.946 -0.64,1.63 -0.096,0.471 0.634,0.843 0.86,0.569 0.626,-0.759 -0.192,1.403 -0.211,1.403 -0.432,1.453 1.386,-0.77 1.001,0.699 h -0.263 v 2.102 H -70.3 v 1.315 h -0.263 c -0.088,0.35 -0.175,0.701 -0.263,1.051 h -0.263 v 1.841 h -0.263 v 0.526 h -0.261 v 3.417 c -0.494,1.63 -1.739,2.785 -2.103,4.469 0.261,0.087 0.525,0.175 0.787,0.262 0.073,0.764 0.315,2.678 0,3.681 h -0.262 v 1.05 h -0.264 v 1.315 c -0.175,0.088 -0.351,0.175 -0.526,0.264 v 0.525 h -0.263 v 1.314 h -0.263 v 0.789 h -0.261 v 0.789 h -0.263 c -0.089,0.964 -0.175,1.928 -0.263,2.892 h -0.263 v 0.526 h -0.264 v 0.789 h -0.262 l -0.526,1.576 h -0.263 v 2.366 h -0.263 c -0.089,0.438 -0.175,0.876 -0.264,1.314 h 0.264 v 1.315 c -0.375,1.225 -1.191,2.407 -1.315,3.943 h -0.525 c -0.175,0.525 -0.35,1.052 -0.526,1.578 h -0.263 v 0.524 c -0.175,0.088 -0.35,0.176 -0.525,0.263 v 2.104 h -0.263 v 0.525 l -0.526,0.263 v 0.526 h -0.263 v 0.789 h -0.263 v 0.526 h -0.263 v 2.103 c -0.253,0.79 -0.52,0.787 -0.524,2.102 -0.265,0.088 -0.526,0.175 -0.79,0.263 -0.437,1.84 -0.877,3.681 -1.313,5.521 -0.265,0.175 -0.527,0.35 -0.791,0.526 v 0.526 h -0.261 c -0.089,1.665 -0.177,3.328 -0.265,4.994 -0.636,0.161 -0.578,0.278 -1.05,0.527 v 0.787 h 0.526 c 0.088,0.438 0.175,0.876 0.262,1.315 0.176,0.087 0.35,0.175 0.527,0.262 -0.089,0.264 -0.177,0.526 -0.265,0.789 0.405,0.238 0.557,0.381 0.79,0.789 0.963,-0.088 1.929,-0.175 2.891,-0.263 0.37,0.042 -0.096,0.168 0.263,0.263 h 1.315 l 0.526,-0.263 v 0.263 h 1.314 v 0.263 h 0.788 v 0.263 h 1.315 v 0.263 h 1.315 v 0.263 h 1.313 v 0.262 h 0.526 v 0.263 h 3.418 c 0.349,0.087 0.701,0.176 1.051,0.264 0.785,-0.16 1.707,-0.949 2.365,-1.315 0.089,-0.526 0.175,-1.052 0.264,-1.578 h -0.264 v -2.103 h 0.264 v -1.052 h 0.262 v -0.524 h 0.264 v -4.207 h -0.264 c -0.233,-0.875 0.338,-1.647 0.264,-2.103 h -0.264 c -0.26,-1.136 0.242,-1.422 -0.526,-2.103 -0.313,-1.07 -0.098,-0.303 -0.787,-0.789 -0.088,-0.175 -0.175,-0.35 -0.263,-0.526 h -0.789 c -0.175,-0.263 -0.35,-0.524 -0.526,-0.787 -0.35,-0.089 -0.702,-0.177 -1.051,-0.264 v -0.262 c -1.139,-0.089 -2.277,-0.177 -3.418,-0.264 -0.086,-0.175 -0.175,-0.351 -0.261,-0.525 h -0.528 v -0.264 h -1.313 v -0.263 c -0.995,-0.46 -1.511,-0.444 -1.842,-1.576 h -0.261 l 0.525,-2.629 h 0.263 c 0.592,-1.013 0.831,-0.806 1.841,-1.315 v -0.263 h 0.787 c 0.088,-0.175 0.177,-0.35 0.263,-0.525 h 2.103 v -0.263 h 0.526 v -0.263 c 1.124,-0.376 3.418,0.818 4.205,1.051 h 3.418 c 1.604,0.472 3.425,1.084 4.995,1.578 1.051,0.088 2.104,0.175 3.155,0.263 v 0.263 h 0.526 v 0.263 c 0.437,0.087 0.877,0.175 1.314,0.263 0.088,0.175 0.175,0.35 0.264,0.525 h 0.787 v 0.263 h 1.315 v 0.264 c 0.92,0.311 0.897,-0.204 1.577,0.525 0.524,0.157 0.227,-0.036 0.526,0.263 h -0.526 c -0.086,0.262 -1.8,1.067 -1.886,1.329 0.261,0.089 0.694,-0.182 0.957,-0.092 0,0.173 -0.17,0.706 -0.17,0.88 0.528,0.025 0.888,-0.366 1.592,-0.4 0.582,-0.03 1.492,0.303 2.113,0.261 0.298,-0.019 0.599,-0.039 0.894,-0.059 0.462,-0.027 -1.732,-0.529 -1.309,-0.546 0.547,-0.021 3.696,0.448 4.118,0.467 0.281,0.332 0.464,0.274 0.79,0.525 v 0.264 h 0.525 c 0.262,0.349 0.527,0.7 0.788,1.05 0.175,0.088 0.351,0.176 0.526,0.263 v 0.526 c 0.263,0.176 0.526,0.351 0.789,0.526 0.088,0.438 0.175,0.876 0.262,1.314 h 0.263 l 0.526,1.578 h -0.263 v 0.789 h -0.263 v 0.525 h -0.263 c -0.236,0.366 -0.179,0.46 -0.262,1.052 -2.852,-0.05 -4.127,-1.013 -6.046,-1.84 -0.614,-0.088 -1.227,-0.176 -1.842,-0.263 v -0.263 h -0.525 v -0.263 h -1.051 v -0.263 h -1.052 v -0.263 c -1.26,-0.384 -1.782,0.379 -2.629,-0.526 -0.755,0.047 -2.106,0.413 -2.365,0.789 v 0.789 h -0.264 c -0.406,0.484 -0.556,0.618 -1.313,0.789 -0.231,1.214 -0.534,3.394 -0.263,4.994 0.057,0.341 0.538,1.163 0.263,1.84 -0.175,0.087 -0.351,0.175 -0.526,0.263 v 1.577 c -0.012,1.426 -0.238,3.268 0.526,3.944 v 1.313 h 0.263 c 0.349,0.491 0.783,1.028 1.314,1.315 h 0.526 v 0.263 h 0.788 v 0.263 h 1.051 c 0.089,0.175 0.176,0.35 0.265,0.525 h 0.524 v 0.263 c 0.614,0.088 1.227,0.176 1.84,0.263 v 0.263 h 0.526 v 0.263 h 0.526 c 0.088,0.175 0.177,0.35 0.263,0.526 h 0.526 c 0.087,0.175 0.175,0.35 0.262,0.526 0.525,0.175 1.052,0.35 1.578,0.526 l 0.526,0.788 h 0.526 v 0.263 c 0.263,0.175 0.526,0.351 0.787,0.526 v 0.524 h 0.264 c 0.086,0.44 0.176,0.878 0.262,1.317 h 0.264 v 1.84 l -0.526,0.263 c -0.088,0.349 -0.175,0.699 -0.264,1.05 l -0.524,0.263 c -0.088,0.35 -0.176,0.701 -0.263,1.051 -1.753,-0.175 -3.506,-0.35 -5.258,-0.525 v -0.263 c -0.35,-0.088 -0.7,-0.176 -1.052,-0.263 -0.088,-0.176 -0.175,-0.351 -0.263,-0.526 h -0.524 v -0.263 c -1.141,-0.263 -2.279,-0.524 -3.418,-0.787 v -0.263 l -1.052,-0.263 v -0.263 c -0.789,-0.263 -1.577,-0.526 -2.367,-0.79 v -0.261 c -1.094,-0.478 -2.616,0.161 -3.943,-0.263 v -0.265 c -0.787,-0.174 -1.576,-0.349 -2.366,-0.526 v -0.263 h -0.526 v -0.261 c -0.35,-0.088 -0.701,-0.175 -1.05,-0.263 v -0.263 c -0.613,-0.088 -1.227,-0.175 -1.84,-0.263 v -0.263 H -70.3 v -0.263 c -1.545,-0.496 -3.68,0.305 -4.731,0 v -0.263 h -1.052 v -0.262 c -0.526,-0.176 -1.052,-0.351 -1.577,-0.526 v -0.263 h -2.629 v -0.263 h -1.315 v -0.263 h -0.263 v 0.263 h -2.102 v 0.263 h -1.842 v 0.263 c -0.524,0.175 -1.05,0.35 -1.576,0.526 -0.087,0.35 -0.175,0.7 -0.264,1.051 h -0.261 v 3.681 h -0.264 c -0.348,0.753 -0.506,0.972 -0.526,2.102 z m -24.447,-33.912 c -0.15,-0.527 0.032,-0.226 -0.262,-0.525 0.15,-0.528 -0.032,-0.227 0.262,-0.525 0.533,-0.894 1.715,-1.109 2.892,-1.315 -0.17,-0.72 -0.344,-0.598 -0.526,-1.314 h -0.526 c 0.099,-0.882 0.519,-1.481 0.263,-1.84 -0.596,-1.012 -0.37,-0.382 -1.315,-0.789 v -0.263 h -0.788 c -0.088,-0.175 -0.176,-0.351 -0.262,-0.526 h -0.527 v -0.263 c -1.303,-0.473 -3.433,0.553 -4.205,0.789 h -1.841 v 0.263 h -1.577 v 0.263 h -0.789 v 0.263 h -0.789 v 0.263 h -1.84 v 0.262 h -3.153 v 0.263 h -1.315 v 0.263 h -1.315 v 0.263 h -1.051 v 0.263 h -0.789 l -0.263,0.526 h -0.526 l -0.263,0.526 c -0.438,0.087 -0.876,0.175 -1.314,0.263 v 0.263 h -2.892 v 0.262 h -0.788 v 0.263 h -0.788 v 0.263 l -1.052,0.264 v 0.262 c -0.477,0.362 -0.517,0.403 -1.314,0.526 v 0.525 c -1.521,-0.599 -2.119,0.192 -3.155,0.788 h -0.526 c -0.176,0.263 -0.351,0.527 -0.526,0.789 h -0.525 c -0.087,0.175 -0.176,0.35 -0.264,0.527 h -0.526 c -0.086,0.174 -0.175,0.349 -0.262,0.526 h -0.789 c -0.573,0.282 -1.133,0.847 -1.313,1.576 0.506,0.574 0.082,1.337 -0.263,1.84 h -0.263 v 0.526 h -0.263 v 0.789 c 0.413,0.333 0.638,0.698 0.789,1.314 l 0.787,0.263 v 0.263 h 0.526 v 0.263 c 0.861,0.308 1.509,-0.297 2.104,-0.263 0.319,0.019 0.486,0.5 1.051,0.263 l 0.526,-0.789 h 0.525 l 0.263,-0.525 c 0.351,-0.088 0.701,-0.175 1.052,-0.263 v -0.263 l 2.629,-0.263 v -0.263 l 1.052,-0.263 v -0.263 h 0.787 v -0.263 h 0.79 v -0.263 h 0.525 v -0.263 h 0.526 c 0.087,-0.175 0.176,-0.35 0.262,-0.525 h 0.526 v -0.263 h 0.527 v -0.263 h 0.788 v -0.263 h 3.155 v -0.263 c 0.701,-0.087 1.402,-0.175 2.103,-0.263 v -0.263 c 0.964,-0.175 1.927,-0.35 2.89,-0.526 v -0.261 h 0.789 v -0.263 h 0.789 v -0.264 h 0.789 v -0.262 h 1.051 v -0.264 h 0.789 v -0.263 h 0.789 v -0.262 h 4.469 c 1.226,-0.351 2.453,-0.702 3.68,-1.053 M 6.662,-6.308 6.584,-6.293 6.443,-6.184 6.303,-6.078 6.227,-6.061 6.149,-6.044 6.008,-6.14 5.916,-6 5.837,-5.986 5.761,-5.969 5.651,-5.907 5.542,-5.847 5.42,-5.862 5.342,-5.848 5.295,-5.877 5.233,-5.987 5.326,-6.126 5.496,-6.282 5.654,-6.514 5.623,-6.669 5.39,-6.825 5.221,-6.871 5.004,-6.949 4.88,-6.966 4.663,-7.043 4.46,-7.044 4.336,-7.061 4.165,-7.108 4.042,-7.125 3.918,-7.139 3.763,-7.108 3.637,-7.125 3.561,-7.109 3.483,-7.096 3.405,-7.079 3.28,-7.096 3.158,-7.111 3.001,-7.08 2.8,-7.082 2.677,-7.098 2.599,-7.082 2.521,-7.066 2.445,-7.051 2.365,-7.036 2.289,-7.02 2.179,-6.958 2.102,-6.944 1.884,-7.022 1.776,-6.961 1.699,-6.946 1.621,-6.93 1.543,-6.915 1.434,-6.854 1.357,-6.838 1.28,-6.822 1.155,-6.838 1.078,-6.823 0.875,-6.825 0.797,-6.809 0.689,-6.748 0.565,-6.763 0.49,-6.748 0.379,-6.687 0.302,-6.67 0.224,-6.656 0.053,-6.703 l -0.109,0.062 -0.079,0.016 -0.075,0.015 -0.186,-0.125 0.125,-0.187 0.325,-0.385 0.11,-0.063 0.107,-0.062 0.08,-0.014 0.078,-0.015 0.139,-0.109 0.078,-0.015 0.03,-0.048 0.219,-0.324 0.14,-0.108 0.108,-0.061 0.079,-0.016 0.139,0.094 0.155,-0.233 0.172,0.048 0.265,-0.294 0.139,-0.108 0.078,-0.016 0.077,-0.014 0.079,-0.015 0.078,-0.016 0.107,-0.062 0.11,-0.061 0.076,-0.016 0.11,-0.062 0.17,0.049 0.077,-0.017 0.077,-0.014 0.079,-0.017 0.109,-0.061 0.125,0.016 0.077,-0.015 0.078,-0.016 0.108,-0.061 0.17,0.047 0.124,0.015 0.079,-0.014 h 0.2 L 4.359,-9 l 0.125,0.015 0.169,0.047 0.078,-0.014 0.123,0.016 0.125,0.015 0.125,0.017 0.216,0.079 0.449,0.234 0.171,0.046 0.881,0.592 0.108,0.141 0.11,0.141 0.061,0.108 0.061,0.108 0.016,0.078 0.015,0.078 -0.015,0.124 -0.017,0.124 -0.047,0.171 -0.28,0.417 z" style="fill:#006993;fill-opacity:1;fill-rule:evenodd;stroke:none" transform="matrix(0.35277776,0,0,-0.35277776,127.80398,177.43205)" clip-path="url(#clipPath2)"/>
  </g>
</svg>