<svg height="316.227766" viewBox="0 0 252 252" width="316.227766" xmlns="http://www.w3.org/2000/svg"><g fill="#005d7f"><path d="m30.628906 146.640625c-.421875-1.566406-.601562-1.746094-2.46875-1.386719l-7.582031 1.386719c-2.648437.480469-4.574219.480469-6.378906-1.023437-.902344-.664063-1.441407-1.445313-1.742188-2.167969l.660157-.421875c.78125 1.085937 1.683593 1.566406 3.128906 1.566406 1.144531 0 2.527344-.242188 4.273437-.542969l7.21875-1.324219c1.867188-.359374 1.988281-.539062 1.804688-2.285156l.722656-.121094 1.144531 6.199219zm0 0"/><path d="m18.472656 154.824219.660156-.183594c.605469 1.625.84375 1.746094 2.648438 1.203125l8.304688-2.464844c1.804687-.542968 1.925781-.78125 1.566406-2.46875l.660156-.179687 1.804688 6.078125-.660157.238281c-.601562-1.621094-.785156-1.742187-2.648437-1.203125l-8.304688 2.46875c-1.804687.542969-1.925781.722656-1.5625 2.40625l-.664062.179688zm0 0"/><path d="m25.332031 173.597656.664063-.300781c.71875 1.203125.960937 1.203125 1.742187.539063.542969-.539063 1.386719-1.324219 2.167969-2.105469l-1.804688-4.03125c-.84375.058593-1.746093.121093-2.710937.242187-1.261719.117188-1.441406.359375-.960937 1.925782l-.660157.300781-1.988281-4.453125.664062-.300782c.78125 1.261719 1.082032 1.441407 3.128907 1.324219l12.335937-.542969.660156.78125c-2.949218 2.890626-6.015624 5.777344-8.90625 8.664063-1.503906 1.445313-1.625 1.867187-1.140624 3.191406l-.664063.300781zm9.328125-6.378906c-1.867187.058594-3.671875.238281-5.417968.359375l1.503906 3.371094zm0 0"/><path d="m50.542969 188.757812c-.71875-.960937-1.261719-1.203124-2.105469-.71875-.601562.300782-1.503906.839844-3.128906 1.984376l-7.28125 5.054687-.539063-.78125 3.910157-14.082031v-.058594l-4.273438 3.007812c-1.625 1.140626-2.40625 1.746094-2.886719 2.164063-.78125.722656-.84375 1.265625 0 2.589844l-.601562.421875-3.070313-4.394532.601563-.421874c.785156.964843 1.386719 1.203124 2.226562.722656.664063-.359375 1.566407-.84375 3.128907-1.925782l3.910156-2.707031c1.265625-.84375 1.445312-1.082031 1.6875-1.683593.179687-.664063.058594-1.203126-.421875-2.046876l.601562-.421874 2.167969 3.128906-3.429688 13.058594.058594.058593 3.671875-2.527343c1.621094-1.140626 2.40625-1.804688 2.945313-2.226563.722656-.660156.722656-1.261719-.117188-2.585937l.539063-.421876 3.007812 4.394532zm0 0"/><path d="m57.644531 206.8125c-1.023437-.722656-1.144531-.722656-2.167969.300781l-1.261718 1.261719c-.542969.601562-1.023438 1.082031-1.382813 1.625-1.203125-.722656-2.890625-1.746094-4.152343-3.007812-3.609376-3.550782-3.851563-7.945313-.722657-11.132813 3.609375-3.609375 8.304688-2.585937 11.554688.664063 1.261719 1.261718 2.164062 2.765624 2.585937 3.488281-.480468.601562-1.265625 1.503906-2.285156 2.769531l-.664062-.421875c1.445312-2.226563.902343-4.03125-.601563-5.535156-2.046875-2.046875-5.476563-1.988281-8.304687.839843-2.34375 2.347657-3.609376 6.078126-.839844 8.847657.421875.417969.839844.71875 1.261718.839843.421876.121094.78125 0 1.324219-.539062l1.445313-1.445312c1.082031-1.082032 1.140625-1.324219-.363282-3.070313l.484376-.480469 4.449218 4.394532zm0 0"/><path d="m78.164062 212.046875c-1.023437-.601563-1.625-.664063-2.226562.121094-.480469.539062-1.144531 1.320312-2.226562 2.945312l-4.996094 7.34375-.78125-.542969-1.382813-14.5625h-.0625l-2.945312 4.332032c-1.085938 1.625-1.625 2.527344-1.925781 3.128906-.484376.902344-.300782 1.445312.902343 2.40625l-.421875.605469-4.394531-3.011719.421875-.601562c1.085938.601562 1.6875.664062 2.347656-.121094.480469-.539063 1.144532-1.320313 2.226563-2.945313l2.648437-3.914062c.839844-1.261719.960938-1.503907.960938-2.164063-.058594-.722656-.359375-1.144531-1.082032-1.746094l.421876-.601562 3.128906 2.105469 1.503906 13.417969.058594.0625 2.527344-3.730469c1.144531-1.625 1.625-2.527344 1.925781-3.128907.480469-.84375.242187-1.445312-1.023438-2.40625l.421875-.605468 4.394532 3.011718zm0 0"/><path d="m82.253906 229.074219.300782-.660157c1.265624.359376 1.503906.238282 1.625-.785156.0625-.78125.179687-1.863281.242187-3.007812l-4.03125-1.804688c-.601563.601563-1.203125 1.265625-1.867187 1.984375-.839844.964844-.839844 1.265625.542968 2.109375l-.300781.660156-4.453125-2.046874.300781-.660157c1.382813.421875 1.746094.359375 3.1875-1.082031l8.90625-8.546875 1.023438.179687c-.300781 4.09375-.722657 8.304688-.960938 12.398438-.121093 2.105469 0 2.464844 1.261719 3.1875l-.300781.660156zm2.769532-10.949219c-1.324219 1.261719-2.589844 2.585938-3.851563 3.847656l3.371094 1.503906zm0 0"/><path d="m111.199219 223.839844c-1.203125-.242188-1.746094-.058594-2.046875.902344-.242188.660156-.601563 1.625-1.082032 3.550781l-2.109374 8.605469-.902344-.242188-6.316406-13.179688h-.058594l-1.265625 5.054688c-.480469 1.925781-.601563 2.890625-.722657 3.550781-.121093 1.023438.179688 1.503907 1.6875 1.988281l-.183593.660157-5.171875-1.261719.179687-.664062c1.203125.179687 1.804688 0 2.164063-.960938.242187-.664062.601562-1.625 1.085937-3.550781l1.140625-4.574219c.363282-1.503906.421875-1.746094.121094-2.347656-.300781-.660156-.722656-.960938-1.683594-1.261719l.179688-.722656 3.671875.902343 6.015625 12.035157h.058594l1.085937-4.332031c.480469-1.925782.601563-2.949219.722656-3.609376.117188-.964843-.242187-1.386718-1.808593-1.867187l.183593-.722656 5.171875 1.265625zm0 0"/><path d="m150.789062 222.273438c-1.203124.300781-1.683593.722656-1.621093 1.625 0 .664062.058593 1.503906.359375 3.25l.359375 2.167968c.421875 2.40625.300781 4.332032-.71875 5.894532-.84375 1.203124-2.226563 1.988281-3.734375 2.226562-1.382813.242188-2.765625.121094-3.910156-.480469-1.441407-.78125-2.285157-2.285156-2.707032-4.875l-.84375-5.292969c-.300781-1.988281-.539062-2.105468-2.226562-1.988281l-.117188-.71875 6.257813-1.023437.117187.722656c-1.621094.417969-1.804687.539062-1.441406 2.585938l.78125 4.8125c.542969 3.371093 2.105469 5.117187 4.632812 4.695312 2.828126-.484375 3.492188-2.828125 2.949219-6.5l-.359375-2.105469c-.304687-1.683593-.484375-2.585937-.722656-3.1875-.242188-.785156-.785156-1.085937-2.347656-.90625l-.121094-.71875 5.355469-.84375zm0 0"/><path d="m166.253906 217.160156c-1.140625.421875-1.503906.84375-1.261718 1.867188.121093.660156.359374 1.683594 1.023437 3.546875l2.828125 8.425781-.902344.300781-12.398437-7.761719h-.058594l1.683594 4.933594c.601562 1.867188 1.023437 2.769532 1.324219 3.429688.421874.964844.964843 1.144531 2.46875.722656l.238281.660156-5.054688 1.6875-.238281-.664062c1.140625-.480469 1.5625-.960938 1.324219-1.925782-.121094-.722656-.363281-1.683593-1.023438-3.550781l-1.503906-4.449219c-.484375-1.445312-.601563-1.6875-1.144531-2.046874-.601563-.363282-1.144532-.421876-2.046875-.179688l-.238281-.664062 3.609374-1.203126 11.550782 6.921876h.0625l-1.445313-4.273438c-.601562-1.867188-1.082031-2.828125-1.324219-3.429688-.421874-.902343-.960937-1.023437-2.527343-.601562l-.238281-.664062 5.054687-1.683594zm0 0"/><path d="m173.714844 228.59375-.300782-.664062c1.503907-.839844 1.566407-1.082032.785157-2.765626l-3.792969-7.761718c-.839844-1.6875-1.082031-1.746094-2.648438-1.144532l-.300781-.660156 5.71875-2.769531.300781.660156c-1.503906.902344-1.566406 1.085938-.722656 2.769531l3.789063 7.761719c.84375 1.683594 1.023437 1.746094 2.648437 1.144531l.300782.660157zm0 0"/><path d="m187.738281 204.644531c-1.144531.902344-1.324219 1.324219-.90625 3.550781.363281 1.746094 1.386719 7.28125 2.46875 12.09375l-.78125.542969c-3.492187-2.589843-7.945312-5.835937-10.289062-7.460937-1.503907-1.023438-1.925781-1.085938-3.128907-.421875l-.421874-.601563 5.175781-3.371094.417969.601563c-1.203126 1.023437-1.140626 1.265625-.300782 1.867187 1.445313 1.082032 5.296875 3.851563 7.644532 5.535157l.058593-.0625c-.660156-3.1875-1.382812-6.558594-1.984375-8.601563-.421875-1.445312-.601562-1.6875-2.226562-.84375l-.421875-.601562 4.273437-2.769532zm0 0"/><path d="m204.101562 203.5625c.484376.78125 1.507813 2.585938 1.808594 3.25l-8.304687 7.339844-.480469-.542969c1.320312-1.382813 1.382812-1.625.179688-3.007813l-5.71875-6.5c-1.324219-1.441406-1.503907-1.382812-2.828126-.417968l-.480468-.542969 7.703125-6.800781c.300781.300781 1.382812 1.386718 2.347656 2.289062l-.484375.601563c-.71875-.484375-1.320312-.785157-1.863281-.902344-.542969-.121094-1.082031.179687-2.105469 1.082031l-.964844.84375c-.601562.539063-.601562.601563-.121094 1.140625l3.191407 3.671875 1.261719-1.144531c1.445312-1.261719 1.566406-1.5625.722656-2.886719l.542968-.480468 2.886719 3.308593-.539062.480469c-1.265625-.960938-1.507813-.902344-2.949219.359375l-1.324219 1.144531 2.648438 2.949219c.722656.78125 1.140625 1.144531 1.625 1.023437.480469-.121093 1.082031-.601562 1.742187-1.203124 1.023438-.902344 1.445313-1.503907 1.445313-2.226563 0-.601563-.179688-1.445313-.542969-2.40625zm0 0"/><path d="m217.761719 193.753906c-.121094.121094-.300781.300782-.480469.480469-1.625 1.746094-2.648438 2.046875-4.332031 1.867187-1.144531-.121093-2.527344-.484374-3.851563-.722656-.722656-.121094-1.203125 0-1.804687.660156l-.300781.363282 2.527343 2.164062c1.382813 1.203125 1.683594 1.144532 2.886719-.058594l.542969.480469-4.152344 4.8125-.542969-.480469c1.023438-1.382812 1.023438-1.683593-.421875-2.886718l-6.617187-5.597656c-1.382813-1.203126-1.625-1.140626-2.828125 0l-.542969-.480469 3.851562-4.511719c1.203126-1.386719 2.046876-2.105469 3.070313-2.410156 1.023437-.300782 2.164063-.117188 3.1875.785156 1.445313 1.261719 1.503906 2.886719 1.023437 4.511719.722657.179687 2.40625.480469 3.609376.601562 1.386718.179688 2.226562.242188 2.949218.242188.78125-.0625 1.203125-.183594 1.683594-.484375zm-10.890625 1.5625c.660156-.78125 1.023437-1.382812 1.023437-2.105468 0-1.023438-.421875-1.804688-1.324219-2.585938-1.804687-1.566406-3.429687-1.023438-4.332031.058594-.363281.484375-.542969.785156-.542969.964844 0 .238281.179688.421874.542969.722656l4.152344 3.546875zm0 0"/><path d="m214.511719 178.410156c-1.382813-.421875-3.128907-.664062-4.152344.902344-.78125 1.203125-.359375 2.46875.664063 3.1875 1.144531.722656 2.226562.363281 4.089843-.71875 2.046875-1.207031 3.972657-2.046875 5.898438-.785156 2.046875 1.324218 2.527343 4.152344.84375 6.800781-.484375.722656-.964844 1.261719-1.445313 1.683594-.480468.421875-.84375.664062-1.082031.78125-.542969-.117188-2.289063-.902344-3.429687-1.441407l.238281-.78125c1.386719.417969 4.03125.71875 5.234375-1.085937.785156-1.261719.484375-2.527344-.78125-3.367187-1.203125-.785157-2.464844-.300782-4.089844.601562-1.925781 1.082031-3.914062 1.984375-5.777344.78125-1.984375-1.265625-2.527344-3.792969-.84375-6.378906.664063-1.082032 1.625-1.804688 2.105469-2.164063.722656.359375 1.566406.78125 2.828125 1.320313zm0 0"/><path d="m226.125 180.09375-.601562-.300781c.664062-1.5625.601562-1.863281-1.082032-2.707031l-7.703125-3.910157c-1.683593-.84375-1.925781-.785156-2.828125.722657l-.601562-.300782 2.890625-5.65625.660156.300782c-.660156 1.5625-.601563 1.804687 1.082031 2.644531l7.703125 3.972656c1.683594.84375 1.925781.78125 2.769531-.722656l.601563.300781zm0 0"/><path d="m224.800781 155.964844c-1.140625-.121094-1.863281-.121094-2.34375.0625-.542969.179687-.84375.601562-1.324219 1.984375l-.421874 1.144531 9.988281 3.730469c1.746093.660156 1.984375.539062 2.769531-1.324219l.660156.238281-2.40625 6.5-.664062-.242187c.542968-1.863282.421875-2.105469-1.261719-2.765625l-9.988281-3.730469-.363282.902344c-.660156 1.746094-.601562 2.164062-.300781 2.648437.242188.417969.84375.902344 1.6875 1.503907l-.242187.722656c-1.382813-.601563-2.765625-1.265625-3.851563-1.746094l.179688-.480469c.605469-.121093.722656-.363281.964843-.964843l3.070313-8.304688c.179687-.539062.179687-.839844-.0625-1.320312l.179687-.484376c.902344.363282 2.648438.902344 3.972657 1.265626zm0 0"/><path d="m225.585938 139.238281c-.121094 1.445313.117187 1.863281 1.261718 3.007813 1.203125 1.144531 2.105469 1.984375 3.910156 3.492187.484376.417969.785157.539063 1.386719.660157l2.886719.601562c1.925781.421875 2.105469.242188 2.648438-1.683594l.722656.117188-1.386719 6.742187-.71875-.179687c.238281-1.867188.117187-2.109375-1.746094-2.527344l-2.589843-.542969c-.480469-.121093-.71875-.058593-1.261719.121094-1.382813.421875-3.007813.902344-5.414063 1.683594-1.625.542969-1.925781.78125-2.347656 1.984375l-.722656-.117188 1.203125-5.839844.664062.121094c-.121093 1.503906.179688 1.503906 1.019531 1.324219 1.746094-.480469 3.613282-1.082031 5.417969-1.625-1.144531-.960937-3.007812-2.527344-4.214843-3.367187-.902344-.601563-1.140626-.601563-1.683594 1.019531l-.722656-.117188 1.023437-4.996093zm0 0"/><path d="m113.785156 162.945312c42.242188 12.9375 71.183594-3.789062 81.292969-11.25l-4.875-6.5c-16.667969 13.117188-49.941406 18.53125-77.921875 9.386719-27.800781-9.085937-55.359375-3.191406-55.597656-3.128906l-13 3.371094 8.664062-13.300781 11.554688-17.691407 1.203125-1.683593 2.046875-.480469c20.878906-5.234375 50.183594 4.574219 51.324218 4.992187 27.863282 8.90625 47.117188-.539062 55.058594-5.894531l-49.101562-64.445313-39.832032 57.824219s-1.023437-.238281-7.339843.121094c-5.054688.300781-7.34375 1.023437-7.34375 1.023437l49.644531-72.027343 3.910156-5.652344c-48.738281.960937-87.910156 40.675781-87.910156 89.535156 0 12.753907 2.707031 24.851563 7.460938 35.859375 33.335937-11.007812 69.195312-.539062 70.761718-.058594zm12.214844-158.914062c-67.390625 0-121.96875 54.636719-121.96875 121.96875 0 67.390625 54.636719 121.96875 121.96875 121.96875s121.96875-54.636719 121.96875-121.96875c0-67.390625-54.578125-121.96875-121.96875-121.96875zm0 240.929688c-65.585938 0-118.960938-53.375-118.960938-118.960938s53.375-118.960938 118.960938-118.960938 118.960938 53.375 118.960938 118.960938-53.375 118.960938-118.960938 118.960938zm89.113281-208.074219c-23.828125-23.769531-55.476562-36.886719-89.113281-36.886719s-65.285156 13.117188-89.113281 36.886719c-23.769531 23.828125-36.886719 55.476562-36.886719 89.113281s13.117188 65.285156 36.886719 89.113281c23.765625 23.769531 55.417969 36.886719 89.113281 36.886719 33.636719 0 65.285156-13.117188 89.113281-36.886719 23.828125-23.828125 36.886719-55.417969 36.886719-89.113281 0-33.636719-13.117188-65.285156-36.886719-89.113281zm-.839843 177.386719c-23.589844 23.585937-54.9375 36.582031-88.273438 36.582031s-64.683594-12.996094-88.273438-36.582031c-23.585937-23.589844-36.582031-54.9375-36.582031-88.273438s12.996094-64.683594 36.582031-88.273438c23.589844-23.585937 54.9375-36.582031 88.273438-36.582031s64.683594 12.996094 88.273438 36.582031c23.585937 23.589844 36.582031 54.9375 36.582031 88.273438s-12.996094 64.683594-36.582031 88.273438zm-89.175782-176.664063c-.179687 0-.359375 0-.542968 0l4.152343 5.472656 57.34375 75.09375 3.128907 4.09375-3.730469 3.550781c-1.082031 1.023438-27.195313 25.269532-70.21875 11.734376-.0625 0-.183594-.0625-.183594-.0625l-.238281-.058594c-.242188-.121094-25.394532-8.484375-42.964844-5.175782l-4.332031 6.015626c11.792969-.71875 29.964843-.359376 48.921875 5.597656 28.21875 8.90625 60.53125 0 70.582031-10.710938l4.871094-4.933594 3.613281 4.933594 12.03125 16.066406 3.070312 4.089844-3.730468 3.492188c-1.503906 1.445312-37.789063 35.078125-96.394532 17.148437-.300781-.121093-31.710937-9.929687-62.160156-.601562 15.707032 25.992187 44.167969 43.324219 76.722656 43.324219 49.460938 0 89.535157-40.074219 89.535157-89.535157.058593-49.460937-40.015625-89.535156-89.476563-89.535156zm0 0"/><path d="m38.75 61.375c0-.058594.121094-.722656.179688-.78125.0625-.121094.183593-.242188.242187-.421875 0 0 0 0 0-.058594v-.0625c.058594-.121093.058594-.300781.058594-.421875 0 0 .0625-.238281.0625-.300781 0 0 .058593-.601563.058593-.660156 0-.121094 0-.300781 0-.421875v-.058594c0-.183594.0625-.363281.0625-.542969v-.058593c.117188-.484376.058594-1.203126-.0625-1.6875 0-.058594-.058593-.238282-.121093-.421876 0-.117187-.058594-.300781 0-.359374-.058594-.121094-.117188-.242188-.117188-.300782 0-.179687-.0625-.300781-.121093-.421875-.0625-.238281-.179688-.480469-.300782-.660156 0-.0625-.0625-.179687-.0625-.242187-.058594 0-.058594-.179688-.058594-.179688s-.058593-.058594-.058593-.058594c-.121094-.121094-.183594-.242187-.242188-.363281 0 0 0 0 0-.058594-.179687-.121093-.242187-.363281-.421875-.421875-.058594-.121094-.300781-.363281-.421875-.363281-.121093-.058594-.480469-.117187-.539062-.058594-.0625 0-.0625.058594-.121094.058594-.0625 0-.121094.0625-.179687.0625-.0625 0-.0625.058594-.121094.058594-.0625.0625-.121094.121093-.242188.179687h-.058594c0 .0625 0 .0625-.0625.0625 0 0-.058593.058594-.058593.121094-.121094.058594-.121094.179688-.121094.300781.0625.238281.0625.480469.179687.660157.0625.121093.0625.242187.121094.363281v.058593c.0625.121094.0625.242188.0625.359376.117188.183593.058594.484374.238282.664062-.058594 0 .0625.421875.121093.480469v.058593c0 .0625.058594.121094.058594.242188.0625.242188.183594.601562.300781.902344.0625.242187.121094.542968.183594.78125 0 .121094 0 .183594.058594.300781.058594.121094.058594.300781.121094.421875.058593.300781.121093.722656.300781 1.085938v.179687s.058593.058594.058593.058594v.121093s0 .058594.0625.179688c0 0 .058594.0625 0 .121094v.300781c0 .121094.058594.179687.058594.300781v.058594c0 .0625.0625.183594.121094.300781v.0625.058594c.058594.242187.058594.421875.121094.601563 0 .121093 0 .242187.058594.363281v.058593c0 .0625.0625.300782.0625.363282v.058594.058593c0 .0625.117187.242188.238281.183594.242187-.121094.179687-.964844.300781-1.265625zm.300781 1.925781c-.058593 0-.058593-.058593-.121093-.121093-.117188-.179688-.117188-.238282-.359376-.179688 0 .121094-.058593.242188 0 .359375 0 .121094.058594.242187.058594.300781v.0625c.0625.121094.121094.238282.121094.359375v.0625c.0625.058594.0625.179688.121094.238281.058594.121094.121094.300782.179687.421876 0 0 0 .0625.0625.121093.117188.179688.238281.421875.300781.660157-.0625 0 0 .242187.058594.242187 0 .058594.058594.121094.058594.179687-.058594 0 .0625.300782.121094.300782v.0625c0 .058594.0625.058594.0625.117187h.058594c.058593.183594.179687.363281.242187.601563 0 .121094.058594.300781.179687.363281 0 .121094.058594.242187.121094.359375 0 0 .058594.0625.058594.121094v.0625c-.058594 0 .121094.300781.179688.359375v.058593c.121093.242188.242187.484376.363281.722657.480469.84375.902343 1.6875 1.382812 2.527343.242188.480469.601563.902344.78125 1.382813 0 0 .0625.0625.0625.121094.117188.121093.179688.300781.300781.484375v.058594h.058594v.058593s.121094.183594.121094.183594c.058594.058594.121094.179687.179688.238281.179687.300782.363281.542969.601562.84375.121094.121094.179688.238282.300781.300782 0 0 .0625 0 .0625.058593.117188.0625.179688.121094.238281.242188h.242188c.179688-.0625.300781-.0625.480469-.0625.058593 0 .058593-.058594.121093-.058594h.121094c.300782-.121094.601563-.300781.722656-.660156l.058594-.121094c.121094-.179687.121094-.480469.121094-.664063 0-.058593 0-.117187 0-.179687 0-.179687 0-.359375-.0625-.542969 0-.117187-.058594-.179687-.058594-.300781 0-.117187 0-.238281 0-.359375 0 0 0-.058594.058594-.058594 0 0 0-.0625-.058594 0 0-.0625 0-.121094-.058594-.121094h.058594c-.058594-.0625-.058594-.121093-.121094-.179687-.058593-.242187-.179687-.484375-.242187-.722656-.058594-.0625-.117187-.179688-.179687-.242188-.121094-.179687-.300782-.421875-.421876-.601562-.117187-.121094-.238281-.238281-.300781-.300781-.179687-.242188-.238281-.480469-.300781-.660157-.058594-.121093-.117188-.183593-.117188-.300781 0 0-.0625 0-.0625-.0625 0 0-.058593-.058594-.058593-.121094-.0625-.117187-.179688-.179687-.300781-.359375-.121094-.300781-.121094-.601562-.179688-.84375-.0625-.179687-.183594-.300781-.242188-.480469-.058593-.058593-.058593-.179687-.121093-.300781-.058594-.058593-.058594-.121093-.058594-.121093-.0625 0-.0625 0-.121094.0625v.058593.058594.242187.0625.359376.179687c0 .121094 0 .179687.058594.300781 0 .179688.0625.363282.0625.542969 0 .058594.058594.179687.058594.300781 0 .058594 0 .121094.0625.238282v.0625c0 .179687 0 .300781.058593.421874.058594.179688.058594.300782.121094.421876h.058594c0 .117187 0 .179687.0625.300781v.300781c.058594.238281.058594.417969.058594.660156.058594.179688.058594.359375.121094.542969v.417969c-.179688.0625-.722657-.660156-.722657-.78125-.058593 0-.242187-.300782-.300781-.359375-.179688-.363281-.421875-.664063-.601562-.964844-.0625-.117187-.121094-.238281-.179688-.300781-.0625-.058594-.0625-.179688-.121094-.238282-.179687-.300781-.363281-.542968-.542968-.785156 0-.238281-.058594-.300781-.121094-.417968 0-.0625 0-.121094-.058594-.183594-.242188-.480469-.480469-.960938-.722656-1.441406 0 0 0-.0625-.058594-.121094-.121094-.300782-.300781-.601563-.480469-.902344-.121093-.242188-.242187-.480469-.421875-.722656-.183594-.359375-.363281-.902344-.664062-1.144532 0 0-.058594 0-.058594-.058593-.179688-.179688-.300781-.480469-.480469-.722657 0 0-.121093-.179687-.0625-.300781zm10.710938-13.898437c-.121094 0-.359375 0-.480469.058594 0 0-.0625.0625-.121094.0625-.179687.058593-.359375.179687-.542968.238281h-.058594c-.058594.121093-.121094.121093-.121094.179687h-.058594c-.0625 0-.121094.0625-.121094.0625-.058593.179688-.121093.179688-.179687.238282-.0625.0625-.121094.183593-.179687.242187-.121094.058594-.484376.480469-.542969.601563 0 .058593 0 .058593-.121094.121093 0 .058594-.058594.058594-.058594.121094-.121093.117187-.242187.300781-.363281.417969-.058594.121094-.179688.242187-.238281.300781-.0625.0625-.121094.121094-.183594.183594-.179687.238281-.359375.421875-.480469.660156h-.058594c0 .0625-.0625.0625-.0625.121094-.058593.058593-.117187.121093-.179687.242187-.058594 0-.058594.117188-.121094.117188-.058593.0625-.417969.664062-.480469.785156-.058593.117188-.058593.179688-.121093.238281-.058594.0625-.117188.179688-.179688.300781v.0625c-.179687 0-.238281.238282-.300781.300782 0 .058594-.058594.117187-.121094.117187 0 .121094 0 .183594-.058594.242188 0 .058593-.058593.058593-.058593.058593v.0625c-.121094.179688-.183594.359376-.300781.480469-.121094.242188-.242188.480469-.363282.78125-.121094.242188-.242187.484375-.359375.722657v.0625c-.0625.117187-.121093.238281-.183593.417968v.0625c.0625.058594-.117188.300782-.117188.359375-.121094 0-.242188.664063-.242188.722657-.058593.300781-.121093.480468-.179687.78125v.0625c0 .179687-.0625.421874-.0625.660156v.0625.058594c.0625.242187.0625.421874.0625.601562v.058594.0625c0 .121094 0 .300781.058594.421875v.058593c0 .0625.0625.0625.0625.121094.058593.242188.058593.601563.238281.84375-.058594 0 .179688.480469.363281.300782.058594 0 .058594-.121094.058594-.183594.058594-.179688.058594-.480469.058594-.539063 0 0 0 0 0-.0625v-.058593c.0625 0 0-.300782 0-.359376.0625-.183593.183593-.363281.242187-.542968 0-.121094.0625-.242188.121094-.363282.058594-.117187.058594-.179687.121094-.300781.179687-.238281.359375-.417969.480468-.660156.058594-.058594.121094-.121094.121094-.242187.359375-.539063.722656-1.082032 1.023438-1.5625 0-.0625.058594-.0625.058594-.121094.179687-.300782.300781-.660156.480468-.960938 0-.0625 0-.0625 0-.0625.121094-.238281.242188-.480468.363282-.660156.058593-.121094.117187-.179688.117187-.242188 0 0 0 0-.058594 0 .121094-.179687.121094-.480468.179688-.601562.121093-.359375.363281-1.144531.542969-1.261719-.058594-.121093.058593-.300781.058593-.421875 0 0 0-.0625.0625-.0625 0 0 0 0 0-.058594.058594-.179687.179688-.421874.238281-.601562.0625-.121094.121094-.179688.183594-.300781.058594-.058594.179688-.78125.417969-.722657.0625 0 .0625.058594.0625.058594v.0625.300782c0 .359374-.0625.660156-.0625.960937-.058594.183594-.117187.363281-.117187.542969v.058594l-.0625.183593c-.058594 0-.058594.300781-.058594.359375v.058594c0 .183594-.0625.421875 0 .664062v.121094.539063c0 .183593 0 .300781-.0625.484375-.058594.179687-.117188.359375-.058594.480468-.058594.179688-.058594.359376-.058594.480469v.179688c-.0625.179687-.0625.363281-.0625.542969 0 .058593 0 .121093-.058594.242187 0 .117187 0 .179687.058594.300781v.117188.121094.0625.238281.0625.179687c-.121094.179688-.121094.238282-.121094.359375 0 .0625 0 .121094-.058593.179688-.058594 0-.121094.84375-.121094.964843v.058594c0 .179688 0 .484375.0625.601563 0 .183593.058594.300781 0 .484375v.179687c0 .058594 0 .179688-.0625.238281 0 .121094-.058594.242188-.058594.363282v.238281c-.0625.121094-.0625.183594-.0625.242187v.058594c0 .0625-.058593.183594-.058593.242188v.058594s-.058594.121093 0 .183593c.058593.058594 0 .660157-.058594.78125 0 .058594 0 .179688-.0625.242188v.058593c0 .058594 0 .121094-.058594.179688l-.0625.242188c0 .121093-.058594.300781-.058594.421874.121094.179688.542969.601563.722656.601563.058594.058594.421876.058594.480469 0h.058594.363281c.121094 0 .359375-.121094.480469-.0625.242187-.179687.480469-.300781.664063-.480469.058593-.121094.117187-.179687.179687-.300781.058594-.058594.300781-.660156.238281-.722656 0-.058594.0625-.121094.0625-.179688 0-.121093.058594-.242187.121094-.359375.058594-.0625.117188-.121094.117188-.183594 0 0 .363281-.539062.363281-.660156.058593-.0625.121093-.179687.121093-.242187 0-.058594.058594-.058594 0-.058594.058594-.242187.359376-.542969.359376-.722656.121093-.058594.300781-.78125.421874-.902344.058594-.058594.058594-.121094.121094-.121094.359375-.421875.660156-.84375 1.023438-1.261719.058594-.0625.117187-.183593.238281-.242187 0 0 .0625.058594.121094.121094v.121093c0 .117188.058593.417969.242187.480469.179688 0 .359375-.300781.300782-.421875.058593-.058594.058593-.179687.117187-.242187.183594-.058594.183594-.058594.242187-.117188.179688-.183593.359376-.363281.601563-.542969.058594-.121093.121094-.121093.179687-.242187 0-.058594 0-.058594 0-.058594 0-.058593.0625-.179687.0625-.242187.179688-.480469.058594-1.023438-.542968-1.082032-.121094 0-.242188 0-.359375-.058593 0-.0625-.183594 0-.242188 0 0 0-.480469 0-.601562 0-.058594 0-.058594 0-.121094 0-.179687 0-.359375.058593-.421875.238281-.058594 0-.121094.121094-.179688.179688-.058593.0625-.121093.121093-.121093.121093-.058594.121094-.121094.183594-.179688.242188-.058593.121093-.121093.121093-.179687.179687h-.0625c-.058594 0-.179688.121094-.179688.179688v.0625c-.121094.058594-.179687.238281-.179687.359375 0 0 0 0-.058594 0 0 .0625-.0625.121093-.121094.179687-.0625 0-.0625.0625-.0625.121094h-.058593v.0625c-.058594 0-.058594.058594-.058594.117188-.121094.0625-.242188.300781-.242188.421874v.0625c-.058594.058594-.179687.179688-.179687.300782v.058594s0 .058593-.0625.058593c-.058594 0-.300781.421875-.300781.484375-.058594 0-.058594.058594-.058594.058594s-.058594 0-.121094.058594c-.058594 0-.121094-.238282-.121094-.238282 0-.179687 0-.300781.0625-.480468 0-.183594 0-.300782-.0625-.484375 0-.300781 0-.539063.0625-.78125 0-.179688 0-.359375.121094-.539063-.0625-.0625 0-.722656.117188-.84375 0-.0625.121093-1.566406.183593-1.683594 0 0 .117188-.722656.058594-.785156 0 0 .058594-.300781.058594-.359375.0625 0 .0625-.300781 0-.363281.0625 0 .0625-.238281.0625-.300781h.058593v-.117188s.0625-.785156.0625-.84375c0-.121093 0-.242187 0-.359375 0-.121094 0-.242187 0-.421875.058594-.300781.058594-.542969.058594-.84375l.058594-.660156c-.417969-.484375-.238281-2.109375-1.082031-1.925781zm0 0"/><path d="m98.261719 23.828125c-.242188-.179687-.121094-.359375-.542969-.242187 0 0 0 0-.058594 0 0 0-.0625 0-.121094 0 0 0 0 0-.0625 0-.058593 0-.117187 0-.179687.0625h-.058594c-.0625 0-.0625.058593-.121093.058593 0 0-.058594 0-.121094-.058593 0-.0625-.421875-.0625-.539063-.0625-.0625 0-.121093.0625-.183593.0625 0 0-.058594 0-.058594.058593-.121094 0-.722656.421875-.84375.480469-.058594 0-.117188.0625-.179688.0625-.058594 0-.121094.058594-.179687.121094-.242188.117187-.480469.300781-.722657.417968 0 0-.058593 0-.121093.0625 0 0-.058594.058594-.058594.058594-.0625 0-.0625 0-.0625 0h-.058594c-.058593.0625-.179687.121094-.242187.179688-.058594 0-.117188.0625-.179688.121094-.179687.121093-.300781.179687-.480468.300781-.121094.121093-.242188.183593-.300782.242187s-.121094.121094-.179687.242188c-.121094 0-.480469.417968-.601563.480468-.0625.058594-.121094.121094-.179687.121094 0 0 0 0-.0625 0-.238281.238282-.421875.417969-.660157.660156-.183593 0 0-.359374 0-.359374 0-.242188.238282-.664063.359376-.84375.0625-.179688.179687-.300782.242187-.542969.058594-.121094.179687-.121094.238281-.238281 0 0 0 0 0-.0625.121094 0 .542969-.359376.664063-.480469.179687-.121094.359375-.300781.601562-.421875.121094-.121094.300781-.238282.421875-.300782 0 0 .601563-.601562.660156-.660156v-.0625c.121094-.117187.179688-.238281.242188-.359375 0 0 .238281-.300781.238281-.421875.0625-.121094.0625-.242187.0625-.359375.058594-.183593.058594-.363281 0-.542969 0-.242187-.179687-.359374-.242187-.542968 0-.601563 0-1.019532-.480469-1.441406-.0625-.0625-.0625-.121094-.121094-.183594-.058593-.117188-.179687-.238282-.242187-.359375-.058594 0-.058594 0-.058594 0-.058594 0-.359375-.300781-.359375-.359375v-.0625c0-.121094.058594-.421875-.0625-.480469 0-.058594-.058594-.121094-.058594-.179687 0-.0625-.0625-.179688-.121093-.242188 0 0-.058594-.058594-.058594-.058594-.121094-.179687-.300782-.300781-.421875-.480468-.0625-.121094-.121094-.183594-.179688-.300782 0 0-.0625-.0625-.0625-.0625-.058593 0-.300781-.238281-.359375-.300781 0 0-.121094-.121094-.179687-.121094h-.121094c-.242187 0-.421875 0-.664063 0-.058593 0-.121093 0-.179687.0625h-.058594c-.0625 0-.0625 0-.121093 0 0 0 0 0-.0625 0 0 .058594-.058594.058594-.117188.121094-.183594.238281-.421875.660156-.242188.960937 0 .058594 0 .179688.058594.242188 0 .058594 0 .058594.0625.117188.238282.664062.300782 1.445312.179688 2.167968 0 .058594 0 .121094-.058594.179688-.0625.421875-.121094.84375-.183594 1.324218 0 .121094 0 .300782-.058594.421876 0 .058593-.058593.058593-.058593.121093.058593.421875.058593.601563.058593.660157 0 .121093-.058593.242187-.058593.363281v.058593c0 .058594-.0625.121094-.0625.179688-.058594.121094-.121094.242188-.179688.363281v.058594c0 .058594-.058593.121094-.058593.121094-.0625 0-.0625 0-.0625.058593 0 0 0 .0625-.058594.0625-.0625.058594-.0625.117188-.121094.179688 0 .121094-.601562.539062-.660156.601562h-.0625s-.058594.058594-.058594.121094c-.0625.058594-.121094.117188-.179688.238282 0 0-.0625 0-.121093.0625-.0625 0-.183594 0-.242188.058593h-.058593c-.121094.058594-.183594.121094-.242188.242188 0 0 0 0-.058594 0v.058593.121094c-.0625 0-.0625.058594-.0625.121094-.121094.300781.179688.480469.421875.539062.179688.300782.601563.363282.902344.421876h.0625c.179687 0 .417969.242187.359375.421874-.058594.242188-.058594.542969-.121094.78125 0 .242188-.058594.421876-.058594.601563v.121094s0 0-.0625.0625c-.117187.179687-.179687.359375-.359374.539062-.058594.0625-.179688.121094-.242188.242188 0 0-.058594.058593-.058594.058593-.121094.121094-.179687.179688-.300781.300782 0 0 0 0-.0625 0 0 .0625-.058594.0625-.117187.121094-.0625.121093-.121094.179687-.242188.242187-.058594.058594-.121094.117187-.179688.179687-.121093.121094-.242187.238282-.363281.359376v.0625c-.117187.117187-.238281.238281-.359375.359374-.058594.121094-.179687.179688-.242187.300782 0 0-.480469.480468-.71875.78125-.121094.121094-.183594.183594-.183594.242187-.058594.121094-.238281.300781-.238281.421875 0 .058594 0 .058594-.0625.121094 0 .058594-.058594.058594-.058594.117188-.058594 0-.058594.363281 0 .484374.058594.058594.121094.117188.179688.179688.0625 0 .0625.058594.121093.058594.058594 0 .121094 0 .242188.0625h.058593c.242188.058594.480469.058594.660157-.0625.121093-.058594.183593-.058594.300781-.058594.183594 0 .300781-.121094.421875-.242188h.0625c.300781-.300781.660156-.539062.960937-.839843 0 0 0 0 0-.0625.121094-.121094.242188-.179688.421876-.300781l.058593-.058594s.363281-.0625.421875-.0625c.0625 0 .121094.0625.121094.0625.058594.058594.242188 0 .300781-.0625.121094 0 .300781-.179688.359375-.238282 0 0 .183594-.242187.183594-.300781 0 0 .117188-.121093.117188-.121093 0-.179688.601562-.722657.664062-.902344.179688-.242188.359375-.480469.542969-.664063 0-.058593 1.019531-1.320312 1.140625-1.320312 0 .117187-.300782.539062-.421875.660156-.058594.058594-.117188.121094-.117188.179687-.0625.0625-.121093.179688-.183593.242188-.058594.058594-.117188.179688-.117188.238281-.0625.0625-.0625.121094-.121094.242188-.0625.058593-.0625.121093-.121094.179687-.058593.0625-.121093.121094-.121093.242188 0 0-.058594 0-.058594.058594v.0625c-.0625.058593-.179687.238281-.242187.359374 0 0-.058594.058594-.121094.121094 0 .058594-.058594.121094-.121094.121094h-.058594s0 .058594-.058594.058594c-.0625.0625-.121093.179687-.183593.242187-.058594.058594-.117188.121094-.179688.179688v.058593s-.058593 0-.058593.0625c-.179688.300782-.300782.480469-.421876.660157v.542969.058593.0625c.058594.238281 0 .480469.179688.601563h.179688c.121093 0 .183593-.0625.300781-.0625 0-.058594.242187-.058594.242187-.121094 0 .0625.058594.183594 0 .242188-.121094.179687-.242187.421874-.359375.601562-.0625.121094-.121093.179688-.183593.300781v.0625c0 .117188-.117188.179688-.117188.238281 0 .0625 0 .0625-.0625.121094 0 0-.058594.058594-.058594.058594s0 .0625-.0625.121094c-.058594 0-.117187.242187-.117187.242187.058593.300781 0 .480469-.0625.601563 0 .058594-.058594.121094-.121094.238281 0 .0625-.058594.121094-.058594.183594v.058593c-.058593.300782-.058593.601563 0 .902344 0 .0625.058594.121094.121094.179688.179687.242187.179687.300781.539063.183594h.0625.058593c.179688-.0625.179688-.242188.363281-.300782.058594-.0625.179688 0 .238282 0 0 0 .0625.179688.121094.179688 0 .179687 0 .359375-.058594.539062v.0625c0 .300782.058594.722656-.0625.960938v.0625c0 .117187-.058594.300781-.058594.417968 0 .300782-.121094.664063.179688.84375.121093.0625.242187.121094.300781.179688h.121093c.121094 0 .242188-.117188.300782-.179688 0 0 .058594-.058593.058594-.121093l.121093-.117188h.121094c0-.0625.058594-.0625.121094-.121093 0 0 .121093-.242188.121093-.300782.058594-.121094.058594-.183594.117188-.300781 0-.242187 0-.484375 0-.722656 0-.121094.0625-.300781.0625-.421875 0-.242188 0-.480469 0-.722656 0-.238282.058594-.601563.058594-.84375v-.117188c.0625-.421875.121094-.84375.300781-1.203125 0 0 0 0 0-.0625 0 0 0-.058594 0-.121094 0 0 0-.058593.0625-.058593.058594-.242188.238281-.359376.359375-.601563h.058594s.242187-.359375.242187-.359375c0-.242188.359375-.421875.242188-.785156.058593 0 .058593-.480469.058593-.539063-.058593 0-.359374-.421875-.480468-.484375 0 0-.0625-.058594-.0625-.117187 0 0 0 0 0-.0625-.058594-.121094-.058594-.300781-.238282-.359375v-.0625s0 0 0-.058594c-.0625-.179688.238282-.359375.121094-.480469-.0625-.0625-.0625-.0625-.121094-.121093-.0625 0-.121093 0-.121093 0-.058594 0-.121094-.058594-.179688-.058594 0 0 0 0-.0625 0 0-.0625-.117187-.0625-.117187-.0625h-.0625c-.058594 0-.121094 0-.121094 0-.058594.0625-.117188.0625-.117188.0625h-.0625c0 .058594-.300781.117187-.359374 0 0-.0625.121093-.242188.179687-.242188 0-.0625 0-.0625 0-.121094h.058594c.121093-.121093.183593-.300781.300781-.421874.0625-.058594.0625-.058594.121094-.121094 0 0 0 0 0-.058594 0 0 0 0 .0625-.058594v-.0625c.058594-.058594.058594-.058594.117187-.121094h.0625.058594c.121094 0 1.023437-1.019531 1.144531-1.203124.058594-.117188.058594-.238282.179688-.300782 0 0 0 0 0-.058594.179687-.058593.902344-.902343.902344-1.023437 0-.058594.0625-.058594.0625-.121094 0-.121093 0-.359375-.183594-.421875 0 0-.359375-.359375-.359375-.359375s-.058594-.058593-.058594-.058593c-.121094-.0625-.664063 0-.542969-.242188 0-.058594.058594-.121094.121094-.121094.058594-.058594.058594-.179687.121094-.238281 0 0 .117187-.121094.117187-.121094s0 0 .0625-.0625c.058594-.058593.121094-.117187.179688-.179687.179687-.121094.421875-.300782.601562-.480469.242188-.179687.480469-.300781.722657-.480469.058593-.0625.121093-.121094.238281-.121094 0-.121093.363281-.300781.484375-.300781.117187 0 .179687-.0625.300781-.0625.421875-.058593.238281.722657.238281 1.023438 0 .121093 0 .242187-.058594.363281v.121094c-.0625.238281-.121093.539062-.121093.78125v.058594c-.058594.480468-.179688.964843-.242188 1.503906 0 .121094 0 .242187-.058593.363281 0 .179687-.058594.300781-.058594.480469-.0625.722656-.0625 1.503906-.183594 2.226562-.058594.542969-.117188 1.082032-.179688 1.683594 0 .0625 0 .0625-.058593.121094 0 .179687-.0625.359375-.121094.542968 0 .117188 0 .238282-.058594.417969 0 .0625-.0625.121094-.0625.121094v.0625s0 .058594-.058593.117187v.0625c-.0625.359376-.121094.542969-.242188.722657-.058594 0-.121094.058593-.121094.121093-.058594 0-.117187.058594-.179687.117188-.058594 0-.121094.0625-.179688.0625-.242187.121094-.542969.238281-.722656.359375 0 .121094-.121094.242187-.058594.363281 0 .117188.179688.179688.238281.179688.722657.421875 1.023438-.0625 1.503907-.480469.121093-.121094.363281-.242187.421875-.421875.0625 0 .121094-.121094.121094-.179688.179687-.421874.359374-.84375.480468-1.324218.0625-.183594.121094-.421875.121094-.664063 0-.179687.0625-.300781.0625-.539062 0-.300781.058594-.664063.058594-.964844 0-.121094.058594-.300781 0-.480469 0-.480468.058594-1.023437.058594-1.503906 0-.300781 0-.542969.0625-.84375-.0625 0-.0625 0-.0625 0v-.058594c0-.121094.0625-.242187.0625-.363281 0-.058594.058593-.179687.058593-.238281.0625-.183594.0625-.363282.121094-.542969.179687-.78125.300781-1.503906.421875-2.226563.058594-.242187 0-.660156.121094-.84375 0-.179687 0-.359374.058594-.601562 0-.480469-.300782-.179688-.480469-.359375zm-12.277344 10.953125v-.0625c-.058594 0-.058594-.058594-.117187-.058594-.121094 0-.242188-.0625-.363282-.0625-.058594 0-.179687 0-.242187-.058594v.058594c-.058594.0625-.058594.0625-.058594.121094h-.058594v.0625.058594s-.242187.359375-.242187.359375 0 .0625-.058594.0625c-.0625.121093-.121094.359375-.121094.480469 0 .121093-.0625.179687-.0625.300781v.058593c-.117187.242188-.058594.484376-.117187.785157v.117187.0625c-.183594.179688-.300781.359375-.242188.542969 0 .058594 0 .058594-.058593.117187 0 0 0 .0625-.0625.121094v.121094.121094c0 .121094 0 .539062.0625.601562v.121094.058594c0 .058594.058593.300781.058593.300781 0 .058594.058594.121094.058594.179687 0 .121094.121094.242188.242187.242188 0 .058594.058594.058594.058594.058594h.121094c.179688.121094.300781.242187.480469.363281.0625.058594.121093.117187.183593.179687.058594 0 .121094 0 .121094.058594.117188 0 .179688 0 .300782.0625h.117187c.0625 0 .121094-.0625.121094-.121094 0 0 0-.121093.0625-.121093h.058593c.601563-.300781.359376-1.203125.421876-1.746094v-.300781-.058594h.058593c0-.242188 0-.421875.0625-.601562-.0625-.179688 0-.300782-.0625-.480469 0-.121094-.058593-.242188-.121093-.363281v-.238282c-.058594-.242187-.179688-.484375-.238282-.785156-.0625-.117188-.0625-.179688-.121094-.300781-.058593-.058594-.058593-.238281-.242187-.417969.0625.058594.0625 0 0 0zm0 0"/><path d="m158.792969 32.070312c-.058594-.238281-.179688-.417968-.179688-.660156 0-.0625-.058593-.0625-.058593-.121094 0-.058593-.363282-.300781-.421876-.359374-.0625-.0625-.0625-.0625-.121093-.0625-.179688-.121094-.300781-.179688-.480469-.238282-.242188-.121094-.421875-.242187-.664062-.300781-.058594-.0625-.121094-.0625-.238282-.121094h-.0625c-.058594 0-.179687-.0625-.300781-.0625-.300781 0-.601563-.117187-.902344-.058593h-.058593c-.0625 0-.121094 0-.179688 0 0 0 0 0-.0625 0h-.121094c-.058594 0-.117187.058593-.179687.121093-.058594 0-.121094.058594-.121094.179688 0 .242187.664063.902343.902344.960937.0625.0625.183593.121094.242187.183594h.058594c.183594.121094.363281.421875.363281.601562 0 .058594-.0625.121094-.0625.179688-.058593.058594-.117187.121094-.238281.179688-.0625.179687.058594.480468.179688.542968.058593 0 .058593.058594.058593.058594s.0625.121094.0625.0625c.121094.117188.300781.117188.421875.117188.117188 0 .238282 0 .359375-.058594.242188 0 .421875-.121094.601563-.179688.121094-.0625.242187-.0625.421875-.121094.058593-.058593.121093-.058593.179687-.058593.242188-.0625.722656-.363281.601563-.785157zm-1.503907-8s.058594-.0625 0 0c.058594-.0625.058594-.0625 0 0 .058594-.0625.058594-.0625.058594-.0625.242188-.121093.484375-.238281.664063-.300781.058593 0 .058593-.058593.121093-.058593.300782-.121094.539063-.300782.78125-.480469.179688 0 .601563-.363281.78125-.484375 0-.117188.242188-.238282.242188-.359375 0 0 .179688-.363281.179688-.421875s0-.179688 0-.242188c0 0-.058594-.058594-.058594-.117187 0 0-.0625-.121094-.0625-.121094 0-.0625-.121094-.121094-.121094-.121094s-.058594 0-.117188 0c-.242187 0-.421874-.121093-.664062-.179687h-.058594c-.0625.058594-.0625.058594-.121094.121094-.058593.117187-.121093.179687-.179687.300781-.0625.117187-.121094.238281-.179687.359375 0 0 0 0-.0625 0-.058594.058594-.121094.058594-.238282.121094-.121094.058593-.242187.058593-.363281.179687-.179687.058594-.300781.121094-.480469.179687-.121094.0625-.242187.121094-.421875.183594 0 0 0 0-.058593 0 0 0-.0625.058594-.121094.058594-.121094.058594-.242188.058594-.363282.121094-.058593 0-.117187.058594-.238281.058594 0 0 0 0-.0625.0625-.238281.058593-.417969.117187-.660156.238281-.058594 0-.058594 0-.121094 0 0 0 0 0-.058593 0l-.121094.0625c-.058594.058593-.121094.058593-.179688.117187 0-.058594.058594-.117187.121094-.179687 0 0 .117188-.238281.179688-.238281 0-.242188.179687-.484376.300781-.722657.121093-.242187.179687-.542969.300781-.84375.179688-.480469.421875-1.023437.359375-1.625 0 0 0 0-.058594 0v-.242187c0-.058594 0-.117188 0-.117188 0-.363281-.179687-.664062-.242187-1.023437 0-.242188-.359375-.902344-.539063-.964844v-.058594s-.242187-.542969-.363281-.601562c0-.179688-.480469-.664063-.601562-.78125 0 0 0 0-.058594 0-.0625-.0625-.121094-.0625-.183594-.121094 0 0 0 0-.058594 0l-.121094-.121094c-.058593 0-.121093 0-.121093 0l-.058594-.058593c-.300781.058593-.359375.117187-.421875.417968 0 .0625.0625.121094.0625.183594 0 .238281.058594.421875.058594.601562.058594.121094.121094.300782.121094.421876.058593.117187.058593.238281.058593.359374v.058594c.0625.242188.0625.421875.121094.601563.058594.484375.179687.902343.179687 1.386719-.058593.300781-.121093.539062-.179687.839843-.058594 0-.058594.0625-.058594.0625 0 .121094-.0625.179688-.121093.300781-.0625.121094-.121094.300782-.179688.421876v.058593c-.0625.179688-.0625.421875-.183594.542969-.058594.179688-.117187.359375-.117187.480469-.0625.121093-.121094.179687-.121094.300781 0 .058594 0 .058594-.0625.121094-.058594.121094-.117187.238281-.179687.300781v.058594c-.058594.121093-.121094.300781-.238282.363281v.117188c-.0625 0-.183594.242187-.183594.242187 0 .058594-.238281.121094-.238281.121094s0 0-.0625.058593c-.058593 0-.117187 0-.117187.0625-.121094.058594-.300782.058594-.421875.117188-.0625 0-.0625 0-.121094 0h-.0625c-.058594 0-.058594 0-.058594 0-.058593 0-.121093 0-.121093.0625 0 0 0 0-.058594 0-.0625 0-.0625 0-.121094 0 0 0 0 0-.058594 0-.0625 0-.121094 0-.183594 0 0 0 0 0-.058593 0-.058594 0-.058594 0-.121094 0 0-.0625-.179687 0-.179687 0v.058594h-.121094c-.179688 0-.359375.0625-.480469.0625-.058594 0-.058594 0-.058594 0-.0625 0-.121093 0-.183593.058594-.058594 0-.117188 0-.179688.058593h-.121094s-.117187.0625-.179687.183594c0 .058594-.058594.058594-.058594.117187 0 .183594.359375.484376.480469.601563.121094.0625.78125.363281.960937.304687h.0625.359375c.0625 0 .121094 0 .179688-.0625 0 0 0 .0625-.058594.0625v.058594c-.058594.121094-.179688.242188-.242188.359375 0 0-.058593.0625-.058593.121094-.058594.0625-.121094.179687-.179688.242187v.058594c-.0625 0-.121093.121094-.121093.179688 0 .242187 0 .300781-.058594.363281 0 0 0 0-.0625 0-.121094.121094-.179688.238281-.238282.359375-.121093.179688-.242187.300781-.300781.480469-.0625.0625-.0625.121093-.121093.121093-.0625.0625-.121094.179688-.121094.300782-.058594 0-.058594 0-.058594 0 0 .0625-.121094.183594-.183594.242187 0 .058594-.058594.058594-.058594.121094 0 .058594 0 .058594-.058593 0 0 0-.0625.058594-.0625.058594-.058594 0-.058594.0625-.121094.121093 0 .121094-.117187.179688-.179687.242188v.058594c-.121094.179687-.179688.300781-.300782.421875-.058594.058593-.058594.058593-.121094.121093-.121093.238282-.300781.359376-.421874.539063-.117188.0625-.117188.179687-.238282.242187-.121094.179688-.300781.359376-.421875.480469-.121093.121094-.179687.242188-.300781.359375 0 0 0 0-.058594 0-.0625.0625-.183594.183594-.242187.242188h-.058594c-.121094.121094-.242187.242187-.363281.363281 0 0-.058594.058594-.058594.058594-.179688.179687-.421875.359375-.601562.601562-.183594.121094-.363282.242188-.484376.421875-.117187.121094-.238281.179688-.417968.238282-.121094.183593.179687.722656.300781.664062.539063.058594.902344-.242188 1.382813-.480469.121093-.0625.300781-.121093.421874-.242187h.058594c.121094-.058594.242188-.179688.363282-.300782.058593 0 .417968-.242187.480468-.300781h.058594c.0625 0 .0625-.058593.121094-.058593l.121094-.0625s0 0 0-.058594c0 0 .121093-.0625.121093-.0625.117188-.117188.238281-.238282.359375-.359375 0 0 .0625 0 .0625-.058594 0-.0625 0-.0625 0 0 .238282-.242187.480469-.421875.660156-.605469.121094-.179687.242188-.300781.421876-.417968.058593 0 .238281-.242188.238281-.300782.0625-.0625.121093-.121094.183593-.183594.058594-.058593.179688-.179687.238282-.238281 0 0 0 0 0-.0625.300781-.058593.480468-.359375.722656-.601562.058594-.117188.121094-.238281.242188-.300781.179687 0 .722656-.71875.78125-.839844.300781-.242188.421874-.601563.660156-.84375 0-.058594.0625-.058594.0625-.121094.179687-.238281.300781-.480469.480468-.722656.058594-.117188.179688-.238282.242188-.359375 0-.058594.660156-.964844.71875-1.023438.363281-.242187.90625-.300781 1.265625-.421875.601563-.359375 1.203125-.539062 1.804687-.839844zm0 0"/><path d="m202.359375 47.535156c-.0625 0-.0625 0 0 0-.183594-.058594-.300781-.058594-.421875-.121094-.0625 0-.0625 0-.121094 0s-.179687-.058593-.242187-.058593c-.117188-.058594-.238281-.058594-.417969-.121094-.0625 0-.121094-.058594-.242188-.058594 0 0-.058593 0-.058593-.0625-.0625 0-.121094-.058593-.183594-.058593-.058594 0-.058594 0-.117187-.058594-.121094-.0625-.242188-.121094-.300782-.183594-.0625-.058594-.121094-.058594-.183594-.117188-.058593 0-.058593 0-.058593-.0625-.121094-.058593-.242188-.179687-.359375-.242187-.0625-.058594-.121094-.058594-.183594-.058594-.058594 0-.121094-.058593-.179688-.121093-.058593-.058594-.121093-.058594-.179687-.121094-.0625 0-.0625 0-.0625 0s0 0 0-.058594c0 0-.058594-.058594-.117187-.058594l-.0625-.0625c-.058594 0-.058594 0-.058594 0 0-.058594-.0625-.058594-.0625-.058594s0 0 0-.0625c-.058594 0-.117188-.058593-.179688-.058593 0 0-.058594-.058594-.058594-.058594-.0625-.0625-.121093-.0625-.179687-.121094-.0625-.0625-.183594-.121093-.242187-.179687-.058594 0-.121094-.0625-.121094-.0625l-.058594-.058594h-.0625s0-.0625-.058594-.0625c0 0-.058594-.058594-.058594-.058594h-.0625s-.058593 0-.058593-.058594c0 0-.0625-.0625-.0625-.0625-.058594-.121093-.238281-.179687-.417969-.179687-.0625 0-.121094-.058594-.183594-.058594-.058594 0-.058594 0-.117187 0-.121094 0-.183594.058594-.300781.058594-.0625 0-.0625.058594-.121094.058594-.363282.242187-.484375.601562-.484375 1.023437-.058594.121094-.058594.242188-.058594.363282v.058593c-.058594.421875-.058594.722657.179687 1.082031l.242188.300782c.058594 0 .058594.0625.121094.121094.058594 0 .121094.0625.179687.0625.121094.058593.179688.117187.300781.179687.058594.058594.84375.179687.902344.179687h.421875.058594.121094.058593c.183594.058594.363282-.058593.542969-.121093.121094 0 .242188 0 .359375-.058594.0625 0 .183594 0 .242188-.0625h.0625s.902344-.058594.960937-.058594h.058594.300781c.0625 0 .121094-.058593.242188-.058593h.058594s.183593 0 .421874-.0625c.242188-.058594.480469-.058594.542969-.058594h.121094c-.0625-.121094.058594-.121094 0-.242188zm-6.742187 13.238282v-.058594c.121093-.183594.242187-.242188.363281-.484375 0 0 0 0 0-.058594 0 0 0-.058594.058593-.058594 0 0 .0625-.0625 0-.0625.0625-.179687.242188-.421875.179688-.601562 0 0 .183594-.78125.121094-.902344-.058594-.121094-.121094-.480469.121094-.421875.0625-.058594.363281.0625.421874.121094.121094.058594.179688.121094.300782.179687.179687.121094.480468.300781.660156.484375 0 .117188 0 .117188-.117188.179688-.121093 0-.242187 0-.363281.121094v.117187c.0625.121094.121094.183594.121094.300781.242187.121094.480469.300782.660156.421875.242188.179688.421875.421875.664063.601563.058594.0625.300781.121094.421875.0625 0 0 0 .058594.058593.058594h.058594c.0625 0 .121094 0 .183594.058593.058594 0 .121094-.058593.238281-.058593.0625-.058594.242188.058593.363281 0 .179688-.121094.238282-.84375.058594-1.023438 0-.058594 0-.179688 0-.238281-.058594-.0625-.121094-.242188-.179687-.300781-.121094-.242188-.300781-.421876-.480469-.664063 0 0 0 0-.0625 0-.058594-.058594-.058594-.121094-.121094-.179687-.058594-.0625-.179687-.121094-.238281-.179688l-.0625-.0625s0 0-.058594 0l-.058593-.058594-.0625-.121094c-.058594-.058593-.121094-.058593-.121094-.121093-.058594-.121094-.117188-.179688-.179688-.238281-.058594 0-.121094-.0625-.179687-.121094 0 0-.058594-.0625-.058594-.0625s0-.058594-.0625 0l-.058594-.058594c-.0625 0-.0625-.058594-.121093-.058594 0 0-.058594-.0625-.058594-.0625 0-.058594-.0625-.121094-.0625-.121094-.058594-.058593-.121094-.058593-.179688-.117187-.058594-.0625-.121094-.121094-.179687-.121094-.0625-.0625-.121094-.0625-.179688-.121093-.0625-.058594-.121093-.121094-.242187-.179688h-.058594c-.0625 0-.0625 0-.121094 0l.121094-.121094c.238281-.179687.539062-.242187.839844-.300781h.0625c.117187-.058594.300781-.121094.417968-.179687.300782-.121094.664063-.363282.902344-.601563h.0625c.058594-.0625.058594-.121094.121094-.183594 0 0 0-.058593.058594-.058593.121094-.179688.242187-.359376.300781-.542969.0625-.117188.179687-.300781.179687-.417969 0-.0625 0-.121094 0-.183594 0-.058594 0-.117187 0-.117187 0-.0625-.058593-.121094-.058593-.242188 0-.058593 0-.121093.058593-.179687 0-.0625 0-.0625 0-.121094l-.058593-.058594c-.179688-.300781-.359375-.601562-.601563-.84375l-.0625-.0625.0625-.058594c.058594.058594.242188 0 .300782.058594.121093 0 .242187 0 .421874.0625h.058594.0625c.058594.058594.179688.058594.238282.058594.0625.0625.242187.0625.363281.0625h.058593c.058594 0 .121094.058594.242188.058594h.117188c.0625-.058594 1.144531.363281 1.324218.300781l.0625.0625s.179688 0 .238282.058594h.0625s.660156.179687.722656.179687c.117187 0 .300781.0625.417968.121094h.0625.058594l.0625.058594h.058594.058594s.0625.0625.121094.0625c.0625 0 .121093 0 .121093.058594h.058594c.0625 0 .121094.0625.183594.121093.058593.058594.660156.179688.78125.242188h.058593.0625.058594.121094c.121094 0 .300781 0 .421875.058593.058594.058594.179687.242188.359375.242188.242188.058594.480469.179688.722656.238281.179688.0625.300782.179688.480469.242188.242187.058593.421875.121093.664063.179687.121093.058594.300781.121094.480468.179688.179688.0625.300782.121094.480469.179687.242187.121094.480469.363281.78125.300781.0625 0 .183594.0625.242187.0625.058594 0 .359376.058594.421876.058594.058593 0 .179687.0625.238281.0625.0625 0 .183593 0 .242187.058594h.0625c.058594 0 .71875.0625.839844.0625.242188 0 .421875-.0625.664062-.183594 0 0 .058594 0 .058594-.058594h.121094c.121094.179688.902344-.363281.902344-.480468.238281-.183594.359375-.484375.359375-.785156 0 0-.058594-.417969-.058594-.480469 0-.058594-.0625-.121094-.0625-.179688 0 0 0 0 0-.058593 0-.0625-.058594-.121094-.058594-.183594-.058593-.117188-.121093-.238282-.179687-.417969-.0625-.0625-.121094-.183594-.121094-.300781l-.121094-.183594-.121094-.121094c-.058593 0-.058593-.058594-.117187-.058594-.0625 0-.0625 0-.0625 0l-.058594-.058593c-.0625-.121094-.179687-.300781-.300781-.300781-.0625-.121094-.179688-.121094-.242188-.242188 0 0 0 0-.058593 0-.0625 0-.0625-.058594-.121094-.058594s-.058594-.0625-.121094-.0625c0 0-.058593-.058594-.058593-.058594v-.0625c0 .0625 0 .0625-.0625 0-.058594 0-.117188-.058593-.117188-.117187-.0625 0-.0625-.0625-.0625-.0625-.058594-.058594-.121094-.121094-.179688-.121094h-.058593c-.0625-.058593-.121094-.117187-.183594-.117187-.058594 0-.117187-.0625-.117187-.0625-.0625 0-.0625 0-.121094-.058594-.0625 0-.0625 0-.0625 0-.058594 0-.058594 0-.117188-.0625-.121094-.058594-.242187-.117188-.421875-.238281-.0625-.0625-.121093-.0625-.183593-.121094 0 0 0-.058594-.058594 0-.179688-.179687-.300782-.179687-.421875-.242187-.058594 0-.121094 0-.179688-.058594h-.058593c-.121094-.058594-.121094-.058594-.242188-.121094-.242188-.121094-.421875-.238281-.722656-.359375 0 0-.058594 0-.121094 0-.058594 0-.058594-.0625-.058594-.0625-.179687-.058594-.542968-.300781-.722656-.300781-.058594-.058594-.121094-.058594-.179688-.058594h-.0625s-.058593 0-.058593-.0625c-.058594 0-.058594 0-.121094-.058594 0 0 0 0-.058594 0-.0625 0-.0625-.058594-.121093-.058594h-.058594c-.0625 0-.0625 0-.0625 0-.058594 0-.121094 0-.179688-.0625-.121094-.058593-.242187-.058593-.421875-.121093 0-.058594-.058593-.058594-.058593-.058594-.0625 0-.0625-.058594-.121094-.058594l-.058594-.0625s0 0-.0625 0c-.058594-.058593-.121094-.058593-.179688-.121093 0 0 0 0-.058593 0-.183594 0-.242188-.117188-.421875-.179688-.0625-.058594-.0625-.058594-.121094-.058594.058594-.242187 0-.300781-.121094-.363281 0-.058594-.058594 0-.121094-.058594l-.058593-.058593h-.058594v-.0625h-.0625c-.121094-.179688-.300781-.300782-.359375-.480469 0 0 0 0-.0625-.058594 0 0 0 0 0-.0625 0 0 0 0-.058594 0l-.121094-.300781s-.058593-.058594-.058593-.121094c-.0625 0-.121094-.058594-.121094-.058594-.0625.058594-.121094 0-.179687 0-.121094 0-.183594 0-.242188 0s-.058594 0-.058594 0c-.0625-.058594-.121094-.058594-.183594-.058594-.117187.058594-.238281.179688-.300781.238282 0 0 0 0-.058593 0-.121094.121094-.242188.242187-.359376.363281 0 .058594-.0625.117187-.0625.179687-.058593.058594-.058593.601563-.058593.722657v.058593.058594c0 .183594-.121094.421875-.0625.542969v.058594c0 .183593 0 .300781-.058594.484375v.058594.179687c-.058594.0625 0 .183594 0 .242187v.058594.0625c-.058594.058594 0 .480469 0 .539063-.058594 0-.058594.121093-.058594.183593 0 .058594 0 .117188.058594.179688.058594.058594.058594.179688.121094.179688.121093.121093.722656.359374.902343.300781h.121094c.238282 0 .601563 0 .839844-.179688.0625 0 .0625-.0625.121094-.0625h.058594.0625c.058593-.058593.058593-.117187.058593-.238281.0625-.0625.0625-.121094.121094-.121094.121094-.058594.242187-.179687.363281-.242187h.058594c.121094-.058594.242188 0 .359375-.058594.0625.058594.121094.058594.183594.121094h.058593s.058594 0 .058594.058593c.121094.0625.183594.0625.300782.121094.0625 0 .121093.058594.183593.058594 0 0 .058594 0 .117188.0625.0625 0 .484375.179688.542969.238281.121093.0625.179687.121094.300781.121094.121093.0625.242187.121094.359375.179687.121094 0 .242187.0625.304687.0625.179688.121094.359375.179688.480469.300782.058594.058594.121094.058594.121094.121094v.058593s.179687.058594.238281.121094c.242187.121094.480469.300781.722656.421875.058594 0 .121094.058594.121094.058594.058594.0625.121094.121094.179687.121094l.058594.058593c.0625.0625-.117187.0625-.179687.0625-.480469.058594-1.023438-.0625-1.503907-.121093-.121093 0-.238281 0-.359374 0-.601563-.121094-1.203126-.179688-1.746094-.242188 0 0 0 0-.058594 0-.0625 0-.0625 0-.121094 0 0 0 0 0-.0625 0h-.058594c-.121093 0-.179687-.058594-.300781-.058594 0 0-.660156-.121094-.722656-.0625 0 0-.058594 0-.121094 0v-.058594l-.058593.058594c-.0625 0-.0625 0-.0625 0-.058594 0-.117188 0-.179688 0-.121094 0-.179688-.058594-.300781-.058594-.058594 0-.058594 0-.058594 0-.0625 0-.121094 0-.179687 0-.0625 0-.121094 0-.183594 0-.058594 0-.058594 0-.117188 0-.121094-.058593-.242187-.058593-.421875-.058593-.300781-.0625-.601562-.0625-.902343-.121094-.0625 0-.0625 0-.0625 0-.058594 0-.117188-.0625-.179688-.0625-.058594 0-.121094 0-.242188-.058594-.058593 0-.117187 0-.179687-.058593h-.300781s-.058594 0-.058594-.0625c0 0 0 0-.0625 0-.179688 0-.417969-.058594-.660156-.121094-.121094-.058594-.179688-.058594-.300782-.058594-.058593 0-.058593-.058594-.121093-.058594-.121094 0-.179688-.0625-.300781-.0625-.121094 0-.238282-.058594-.359376-.058594-.0625 0-.0625 0-.0625 0h-.058593c-.242188 0-.480469-.0625-.78125-.121093 0 0-.601563-.121094-.601563-.121094-.183594 0-.300781-.058594-.484375-.058594-.058593-.0625-.117187-.0625-.179687-.0625-.058594.0625-.300782.0625-.421875.183594 0 0-.058594 0-.058594.058594h-.058594c-.121093.058593-.242187.121093-.363281.179687-.300781.242188-.660156.421875-.722656.78125v.0625.058594.0625c.0625.058594.0625.121094.121094.121094.0625.058594.121093.058594.179687.117187.121094.0625.242187.0625.300781.121094.0625 0 .121094.0625.121094.0625s.0625.058594.0625.058594c.179688.058593.238281.179687.359375.300781.179687.121094.359375.242188.542969.300781.058594 0 .058594.058594.058594.121094.121093.300781-1.082032.960937-1.324219.960937-.359375.242188-.660157.421876-.960938.664063-.363281.300781-.363281.359375-.785156.300781-.058594 0-.058594 0-.117187 0-.601563-.121094-1.203126-.183594-1.746094-.183594-.0625 0-.121094 0-.121094 0-.179688.0625-.300781.121094-.480469.183594 0 0 0 0-.0625 0l-.601562-.300781c-.058594-.0625-.179688.058594-.238281.117187-.179688.121094-.363282.304688-.300782.542969 0 0 0 .121094-.0625.242188 0 .058593-.058594.179687 0 .238281-.058594 0-.058594.183594-.058594.242188v.058593.121094.0625c-.058593.238281.058594.902344.179688 1.019531v.183594c.121094.421875-.058594.839844.0625 1.261719v.0625c.058594.179687.117188.417969.238281.539062 0 0 0 .0625.0625.121094l.058594.058594c.480469.664062 1.382813 1.144531 2.167969 1.203125h.238281c.363281-.058594.664063-.179688.964844-.300782.179687-.058593.238281-.300781.417969-.359374zm-1.804688-1.144532c-.058594 0-.058594 0 0 0-.179688-.117187-.300781-.480468-.421875-.902344-.117187-.539062-.238281-1.203124-.117187-1.324218.058593-.058594.179687-.238282.300781-.238282.238281-.121093.78125.121094.960937.238282.0625.121094.121094.183594.121094.300781 0 .242187-.121094.542969-.179688.722656v.121094c-.0625.179687-.179687.78125-.300781.902344v.0625c-.121093.117187-.121093.359375-.363281.117187zm0 0"/></g></svg>