<?xml version="1.0" encoding="UTF-8" standalone="no"?>
<svg
   xmlns:dc="http://purl.org/dc/elements/1.1/"
   xmlns:cc="http://creativecommons.org/ns#"
   xmlns:rdf="http://www.w3.org/1999/02/22-rdf-syntax-ns#"
   xmlns:svg="http://www.w3.org/2000/svg"
   xmlns="http://www.w3.org/2000/svg"
   viewBox="0 0 266.66666 266.66666"
   height="266.66666"
   width="266.66666"
   xml:space="preserve"
   id="svg2"
   version="1.1"><metadata
     id="metadata8"><rdf:RDF><cc:Work
         rdf:about=""><dc:format>image/svg+xml</dc:format><dc:type
           rdf:resource="http://purl.org/dc/dcmitype/StillImage" /></cc:Work></rdf:RDF></metadata><defs
     id="defs6"><clipPath
       id="clipPath18"
       clipPathUnits="userSpaceOnUse"><path
         id="path16"
         d="M 0,200 H 200 V 0 H 0 Z" /></clipPath></defs><g
     transform="matrix(1.3333333,0,0,-1.3333333,0,266.66667)"
     id="g10"><g
       id="g12"><g
         clip-path="url(#clipPath18)"
         id="g14"><g
           transform="translate(79.431,22.8766)"
           id="g20"><path
             id="path22"
             style="fill:#144399;fill-opacity:1;fill-rule:evenodd;stroke:none"
             d="M 0,0 C -0.691,-0.392 -1.302,-1.425 -1.235,-2.06 -0.425,-1.627 -0.024,-0.991 0,0 m 2.519,8.382 c 0.465,0.353 0.801,0.574 1.106,0.839 0.986,0.851 1.805,1.837 2.325,3.046 0.325,0.748 0.226,1.458 -0.302,2.092 -0.272,0.328 -0.469,0.346 -0.77,0.049 C 4.674,14.214 4.488,13.996 4.32,13.769 3.301,12.366 2.879,10.712 2.4,9.085 2.357,8.94 2.452,8.756 2.519,8.382 M 7.985,4.353 C 7.302,4.045 6.956,3.322 6.33,2.909 5.901,3.241 5.479,3.538 5.09,3.873 4.686,4.223 4.666,4.444 5.103,4.741 5.725,5.153 6.4,5.483 7.058,5.844 7.169,5.905 7.3,5.939 7.423,5.972 c 1.143,0.297 1.472,1.166 1.581,2.211 0.17,1.624 0.581,3.199 1.264,4.685 0.372,0.806 1.013,1.299 1.961,1.257 0.544,-0.028 0.633,-0.109 0.645,-0.637 0.006,-0.155 0.02,-0.311 -0.004,-0.465 -0.101,-0.667 0.125,-1.176 0.58,-1.684 0.475,-0.533 0.841,-1.172 1.197,-1.801 C 15.065,8.81 15.037,8.374 14.414,7.803 13.81,7.247 13.157,6.675 12.421,6.348 11.467,5.929 11.23,5.133 11.095,4.318 10.917,3.226 10.919,2.105 10.854,0.999 10.842,0.827 10.888,0.651 10.905,0.507 c 0.091,-0.046 0.137,-0.089 0.18,-0.086 1.202,0.125 1.9,-0.631 2.585,-1.442 0.55,-0.651 1.098,-1.3 1.666,-1.933 0.522,-0.586 0.948,-1.221 1.195,-1.977 0.244,-0.744 -0.041,-1.328 -0.516,-1.839 -0.347,-0.378 -0.574,-0.362 -1.027,-0.087 -0.614,0.384 -1.245,0.74 -1.839,1.15 -0.287,0.2 -0.516,0.487 -0.75,0.754 -0.37,0.429 -0.692,0.898 -1.086,1.3 -0.135,0.137 -0.459,0.226 -0.617,0.158 -0.151,-0.067 -0.283,-0.368 -0.279,-0.57 0.007,-0.892 -0.088,-1.786 0.269,-2.673 0.275,-0.681 0.461,-1.427 0.378,-2.198 C 10.953,-9.977 10.51,-10.217 9.528,-9.861 8.925,-9.643 8.485,-9.212 8.325,-8.537 8.228,-8.139 8.107,-7.729 7.903,-7.379 7.432,-6.558 7.027,-5.731 7.142,-4.785 6.783,-4.504 6.443,-4.551 6.14,-4.702 5.543,-5.005 4.953,-5.327 4.391,-5.687 3.942,-5.974 3.503,-6.069 2.96,-5.887 2.786,-4.545 2.723,-3.186 2.181,-1.933 1.322,-2.165 1.146,-2.363 1.16,-3.148 1.197,-5.036 1.253,-6.92 1.294,-8.804 1.298,-9.006 1.276,-9.208 1.264,-9.423 0.738,-9.532 0.418,-9.261 0.156,-8.946 c -0.439,0.522 -0.75,1.114 -0.746,1.824 0.01,0.936 0.028,1.868 0.03,2.802 0.004,0.162 -0.044,0.327 -0.079,0.586 -0.663,-0.368 -1.271,-0.643 -1.698,-1.179 -0.412,-0.515 -0.956,-0.762 -1.593,-0.873 -0.501,-0.081 -0.859,0.119 -1.124,0.514 -0.536,0.79 -0.635,1.682 -0.576,2.601 0.01,0.118 0.079,0.275 0.17,0.332 1.241,0.784 1.853,2.07 2.632,3.22 0.891,1.304 1.771,2.612 2.632,3.932 C 0.055,5.202 0.465,5.568 0.247,6.237 -0.077,6.071 -0.36,5.929 -0.641,5.784 -0.942,5.628 -1.251,5.489 -1.534,5.313 -1.858,5.103 -2.173,4.87 -2.466,4.619 -3.03,4.146 -3.629,4.047 -4.231,4.46 c -0.401,0.273 -0.793,0.604 -1.072,0.992 -0.44,0.619 -0.147,1.064 0.599,1.13 0.634,0.055 1.265,0.194 1.88,0.356 0.974,0.257 1.928,0.588 2.903,0.843 0.489,0.124 0.73,0.386 0.853,0.867 0.457,1.759 1.065,3.463 1.923,5.063 0.543,1.006 1.172,1.956 2.076,2.688 0.487,0.393 0.576,0.407 1.045,-0.012 C 6.934,15.53 7.423,14.426 7.5,13.169 7.66,10.407 5.996,8.513 3.526,7.611 3.214,7.494 2.887,7.391 2.604,7.215 1.878,6.758 1.627,6.03 1.601,5.218 1.563,4.13 1.583,3.04 1.547,1.953 1.53,1.389 1.431,0.831 1.391,0.267 1.365,-0.085 1.389,-0.443 1.389,-0.799 1.955,-0.871 2.343,-0.637 2.654,-0.34 2.996,-0.014 3.324,0.174 3.817,0.137 4.037,0.123 4.326,0.257 4.49,0.42 5.624,1.551 6.742,2.707 7.862,3.859 7.959,3.964 8.024,4.106 8.101,4.233 8.064,4.272 8.024,4.312 7.985,4.353" /></g><g
           transform="translate(144.4966,47.338)"
           id="g24"><path
             id="path26"
             style="fill:#144399;fill-opacity:1;fill-rule:evenodd;stroke:none"
             d="M 0,0 C 0.057,0.166 0.103,0.257 0.121,0.352 0.267,1.264 0.425,2.177 0.542,3.091 0.607,3.594 0.36,3.843 -0.164,3.884 -0.649,3.92 -1.144,3.904 -1.615,4.003 -2.303,4.14 -2.665,3.922 -2.654,3.21 -2.646,2.757 -2.485,2.307 -2.46,1.85 -2.412,1.134 -1.977,0.728 -1.387,0.463 -0.97,0.277 -0.518,0.168 0,0 M 6.72,7.696 C 6.54,7.708 6.358,7.741 6.182,7.731 5.543,7.688 5.151,7.233 5.222,6.588 5.319,5.739 5.119,4.997 4.528,4.369 3.354,3.129 2.935,1.567 2.63,-0.046 2.489,-0.786 2.325,-1.52 2.606,-2.26 2.693,-2.485 2.8,-2.705 2.946,-3.034 c 0.173,0.222 0.285,0.319 0.343,0.442 0.677,1.454 1.343,2.915 2.03,4.361 C 5.547,2.24 5.883,2.62 6.348,2.905 7.387,3.536 8.709,2.996 9.071,1.807 9.269,1.146 9.516,0.485 9.833,-0.129 c 0.502,-0.973 0.607,-2.016 0.71,-3.071 0.024,-0.309 -0.014,-0.623 -0.02,-0.934 -0.011,-0.758 0.473,-1.272 1.235,-1.201 0.709,0.065 1.362,0.297 1.712,1.019 0.259,0.538 0.572,1.047 0.829,1.581 0.667,1.379 1.803,2.177 3.227,2.585 0.351,0.099 0.743,0.045 1.253,0.067 -0.134,-0.281 -0.17,-0.465 -0.283,-0.568 -0.493,-0.465 -0.756,-0.966 -0.435,-1.652 0.17,-0.374 -0.085,-0.638 -0.333,-0.879 -0.781,-0.758 -1.565,-1.512 -2.347,-2.272 -0.142,-0.142 -0.273,-0.299 -0.465,-0.506 0.505,-0.594 0.986,-1.164 1.471,-1.726 0.204,-0.237 0.417,-0.461 0.629,-0.688 1.258,-1.362 1.227,-2.769 -0.004,-4.233 -0.617,-0.732 -1.223,-1.474 -1.842,-2.201 -0.317,-0.374 -0.651,-0.734 -0.988,-1.09 -0.215,-0.234 -0.455,-0.271 -0.766,-0.135 -0.565,0.244 -1.149,0.208 -1.739,0.026 -0.437,-0.136 -0.9,-0.267 -1.353,-0.279 -0.651,-0.018 -0.834,0.34 -0.495,0.881 0.18,0.283 0.382,0.558 0.617,0.793 0.869,0.859 1.753,1.694 2.63,2.537 0.568,0.542 1.073,1.114 1.306,1.894 0.22,0.746 0.058,1.387 -0.631,1.998 -0.439,-0.534 -0.877,-1.072 -1.326,-1.598 -0.687,-0.808 -1.351,-1.639 -2.086,-2.399 -0.649,-0.673 -1.052,-1.464 -1.365,-2.319 -0.089,-0.243 -0.152,-0.495 -0.265,-0.728 -0.178,-0.374 -0.457,-0.616 -0.914,-0.582 -0.39,0.024 -0.78,-0.002 -1.166,0.024 -0.491,0.041 -0.635,0.213 -0.617,0.704 0.021,0.582 0.372,1.025 0.708,1.439 1.304,1.607 2.642,3.186 3.966,4.781 0.281,0.34 0.548,0.692 0.795,1.056 0.188,0.27 0.341,0.576 0.109,0.996 -0.309,-0.166 -0.588,-0.341 -0.885,-0.477 -0.67,-0.307 -1.09,-0.109 -1.282,0.597 -0.057,0.198 -0.121,0.404 -0.119,0.61 0.012,0.928 -0.172,1.83 -0.385,2.735 -0.206,0.87 -0.238,1.785 -0.424,2.661 C 8.374,-0.111 8.204,0.481 7.903,0.974 7.399,1.799 6.443,1.745 5.978,0.904 5.754,0.505 5.576,0.059 5.477,-0.388 5.278,-1.261 5.153,-2.153 4.987,-3.036 4.935,-3.311 4.834,-3.58 4.769,-3.853 4.561,-4.704 4.34,-5.549 4.165,-6.404 4.063,-6.91 4.225,-7.373 4.581,-7.755 4.723,-7.906 4.902,-8.028 5.026,-8.188 5.27,-8.503 5.456,-8.841 5.264,-9.261 5.074,-9.673 4.751,-9.938 4.308,-9.958 c -0.984,-0.043 -1.971,0.02 -2.925,0.283 -0.869,0.242 -1.189,0.768 -1.209,1.655 -0.006,0.455 -0.18,0.904 -0.194,1.365 -0.047,1.567 -0.489,3.109 -0.348,4.696 0.041,0.451 -0.265,0.649 -0.712,0.507 -0.244,-0.08 -0.473,-0.21 -0.703,-0.329 -0.16,-0.081 -0.301,-0.21 -0.467,-0.279 -1.302,-0.564 -1.082,-0.695 -2.27,0.18 -0.437,0.317 -0.898,0.602 -1.375,0.859 -0.489,0.261 -0.78,0.603 -0.908,1.171 -0.135,0.594 -0.404,1.17 -0.659,1.73 -0.248,0.552 -0.194,0.851 0.301,1.179 0.502,0.339 1.155,0.295 1.662,-0.097 0.265,-0.202 0.522,-0.459 0.825,-0.566 0.263,-0.095 0.665,-0.118 0.867,0.024 0.306,0.214 0.479,0.59 0.37,1.027 -0.36,1.423 -0.309,1.591 0.967,2.266 0.972,0.512 1.532,1.363 2.05,2.266 0.169,0.289 0.295,0.603 0.444,0.908 0.421,0.855 1.054,1.46 2,1.698 0.178,0.041 0.38,0.049 0.523,0.144 1.337,0.901 2.818,0.378 4.24,0.444 0.281,0.009 0.598,-0.167 0.857,-0.327 C 8.141,10.547 8.206,10.203 7.905,9.68 7.533,9.037 7.146,8.404 6.72,7.696" /></g><g
           transform="translate(121.3611,29.3196)"
           id="g28"><path
             id="path30"
             style="fill:#144399;fill-opacity:1;fill-rule:evenodd;stroke:none"
             d="M 0,0 C 0.414,0.245 0.712,0.394 0.98,0.586 1.526,0.983 2.05,1.403 2.588,1.809 3.225,2.292 3.243,2.446 2.739,3.041 2.598,3.202 2.493,3.392 2.351,3.598 2.826,3.93 3.281,3.934 3.692,3.855 4.274,3.75 4.82,3.825 5.386,3.92 6.216,4.065 7.051,4.106 7.739,3.483 7.909,3.326 8.028,3.105 8.194,2.887 7.134,2.349 6.16,1.876 5.21,1.365 4.049,0.744 2.903,0.089 1.753,-0.562 1.53,-0.687 1.32,-0.843 1.112,-0.995 0.295,-1.587 -0.148,-2.315 0.057,-3.39 0.232,-4.3 0.158,-5.252 0.542,-6.128 0.746,-6.59 0.972,-6.977 1.551,-7.08 c 1.803,-0.317 3.6,-0.689 5.401,-1.01 0.346,-0.059 0.752,-0.087 1.064,0.042 1.653,0.667 3.093,0.133 4.472,-0.74 0.343,-0.218 0.657,-0.513 0.909,-0.831 0.475,-0.598 0.35,-1.003 -0.341,-1.328 -0.162,-0.075 -0.328,-0.154 -0.494,-0.226 -0.523,-0.213 -0.826,-0.601 -0.946,-1.147 -0.032,-0.151 -0.048,-0.311 -0.109,-0.448 -0.232,-0.532 -0.566,-0.708 -1.122,-0.506 -0.348,0.127 -0.641,0.113 -0.964,-0.042 -1.116,-0.518 -2.19,-0.38 -3.126,0.368 -1.233,0.988 -2.401,2.056 -3.606,3.08 -0.463,0.395 -0.861,0.88 -1.436,1.141 -0.272,-0.217 -0.155,-0.445 -0.06,-0.645 0.275,-0.611 0.309,-1.237 0.21,-1.896 -0.046,-0.304 0.02,-0.623 -0.012,-0.93 -0.055,-0.562 -0.073,-1.137 -0.239,-1.672 -0.355,-1.147 -1.748,-1.707 -2.858,-1.155 -0.453,0.229 -0.876,0.342 -1.391,0.285 -0.309,-0.036 -0.667,0.077 -0.95,0.225 -0.841,0.445 -1.622,1.021 -2.639,1.011 -0.109,-0.002 -0.216,0.123 -0.329,0.18 -0.271,0.135 -0.53,0.309 -0.817,0.384 -0.612,0.159 -0.912,0.527 -0.713,1.12 0.133,0.398 0.424,0.752 0.689,1.091 0.139,0.172 0.368,0.3 0.582,0.38 1.462,0.534 1.917,1.794 2.24,3.124 0.125,0.493 0.091,1.019 0.134,1.53 0.046,0.582 -0.407,0.7 -0.825,0.425 -0.261,-0.168 -0.514,-0.35 -0.766,-0.53 -0.168,-0.117 -0.326,-0.259 -0.504,-0.364 -0.434,-0.263 -0.55,-0.245 -0.796,0.188 -0.275,0.495 -0.552,0.997 -0.775,1.52 -0.216,0.512 -0.111,0.746 0.397,0.981 0.632,0.295 1.271,0.578 1.916,0.843 1.167,0.479 1.599,1.172 1.478,2.395 -0.208,2.065 -0.514,4.125 -0.578,6.193 -0.059,1.89 -0.384,3.754 -0.397,5.646 -0.002,0.323 0.112,0.653 0.223,0.964 0.109,0.285 0.291,0.548 0.43,0.827 0.441,0.884 1.699,1.011 2.285,0.19 0.228,-0.321 0.412,-0.75 0.414,-1.132 0.01,-0.99 0.249,-1.918 0.477,-2.867 C -1.724,8.76 -1.773,7.882 -1.625,7.043 -1.427,5.931 -1.146,4.832 -0.894,3.734 -0.744,3.081 -0.588,2.432 -0.435,1.781 -0.303,1.237 -0.166,0.695 0,0" /></g><g
           transform="translate(59.2097,54.517)"
           id="g32"><path
             id="path34"
             style="fill:#144399;fill-opacity:1;fill-rule:evenodd;stroke:none"
             d="M 0,0 C 0.382,-0.285 0.611,-0.441 0.823,-0.617 1.086,-0.831 1.338,-1.055 1.585,-1.282 2.06,-1.712 2.519,-1.983 3.164,-1.53 3.443,-1.334 3.819,-1.433 4.11,-1.658 4.563,-2.007 5.016,-2.313 5.612,-2.416 6.061,-2.495 6.174,-2.921 5.911,-3.322 5.521,-3.9 5.094,-4.456 4.723,-5.046 4.302,-5.719 4.409,-5.917 5.181,-6.099 6.148,-6.322 7.043,-6.73 7.868,-7.28 8.026,-7.387 8.145,-7.561 8.289,-7.71 7.864,-8.418 7.351,-8.804 6.556,-8.942 5.57,-9.111 4.533,-9.037 3.607,-9.52 3.471,-9.589 3.257,-9.534 3.081,-9.512 2.652,-9.449 2.222,-9.34 1.793,-9.32 c -0.677,0.029 -0.677,0.002 -1.138,-0.691 0.582,-1.094 1.259,-2.153 2.198,-3.032 0.212,-0.19 0.424,-0.381 0.604,-0.601 0.212,-0.253 0.154,-0.519 -0.152,-0.622 -0.754,-0.253 -1.516,-0.48 -2.284,-0.678 -0.182,-0.05 -0.404,0.071 -0.607,0.095 -0.535,0.057 -1.071,0.17 -1.603,0.142 -1.099,-0.051 -2.159,0.024 -3.194,0.441 -0.99,0.398 -2.017,0.398 -3.046,0.115 -0.219,-0.061 -0.455,-0.101 -0.684,-0.109 -0.685,-0.027 -0.849,0.155 -0.8,0.851 0.032,0.465 -0.162,0.764 -0.653,0.913 -0.637,0.188 -1.29,0.344 -1.935,0.532 -0.245,0.069 -0.489,0.17 -0.72,0.283 -0.461,0.221 -0.689,0.597 -0.699,1.116 -0.016,0.78 -0.055,1.551 -0.065,2.329 -0.008,0.776 0.904,1.358 1.593,1.017 1.061,-0.53 2.119,-1.068 3.168,-1.626 0.334,-0.181 0.58,-0.147 0.819,0.134 0.521,0.596 0.912,1.265 1.041,2.052 0.083,0.511 -0.224,0.879 -0.538,1.231 -0.61,0.679 -1.136,1.419 -1.451,2.278 -0.196,0.54 -0.431,1.086 -0.196,1.707 0.258,0.679 0.909,1.075 1.582,0.841 0.736,-0.255 1.452,-0.542 1.939,-1.219 0.194,-0.265 0.475,-0.474 0.75,-0.666 0.799,-0.562 1.379,-0.533 2.093,0.116 0.576,0.523 1.126,1.079 1.663,1.637 C -0.327,-0.532 -0.192,-0.273 0,0" /></g><g
           transform="translate(38.7664,112.1915)"
           id="g36"><path
             id="path38"
             style="fill:#144399;fill-opacity:1;fill-rule:evenodd;stroke:none"
             d="m 0,0 c -0.152,-0.677 -0.281,-1.302 -0.439,-1.921 -0.075,-0.295 -0.295,-0.272 -0.558,-0.204 -0.867,0.229 -18.591,4.539 -20.313,4.977 -0.443,0.11 -0.522,0.225 -0.419,0.653 0.118,0.5 0.281,0.991 0.409,1.49 0.075,0.308 0.26,0.407 0.558,0.427 1.18,0.079 14.301,1.397 14.301,1.397 0,0 -12.737,3.267 -13.563,3.455 0.113,0.768 0.254,1.433 0.525,2.062 0.035,0.087 0.271,0.162 0.388,0.133 C -17.613,12.107 0.423,7.67 1.771,7.324 1.702,6.973 1.445,5.794 1.401,5.541 1.306,5.056 1.199,4.939 0.691,4.892 -0.18,4.807 -13.252,3.421 -13.252,3.421 -13.252,3.421 -0.918,0.237 0,0" /></g><g
           transform="translate(52.8288,140.8847)"
           id="g40"><path
             id="path42"
             style="fill:#144399;fill-opacity:1;fill-rule:evenodd;stroke:none"
             d="m 0,0 c -0.463,-0.514 -0.885,-0.995 -1.326,-1.454 -0.212,-0.222 -0.394,-0.097 -0.588,0.095 -0.643,0.629 -13.954,13.099 -15.236,14.324 -0.331,0.317 -0.347,0.454 -0.044,0.776 0.348,0.38 0.734,0.726 1.088,1.098 0.218,0.23 0.43,0.226 0.699,0.095 1.066,-0.512 13.139,-5.821 13.139,-5.821 0,0 -9.484,9.112 -10.112,9.684 0.479,0.614 0.927,1.122 1.471,1.536 0.075,0.061 0.314,0.008 0.401,-0.076 C -9.38,19.207 4.144,6.471 5.145,5.507 4.911,5.236 4.11,4.332 3.944,4.136 3.625,3.758 3.475,3.712 3.006,3.918 2.206,4.274 -9.855,9.498 -9.855,9.498 -9.855,9.498 -0.683,0.657 0,0" /></g><g
           transform="translate(162.1108,98.9908)"
           id="g44"><path
             id="path46"
             style="fill:#144399;fill-opacity:1;fill-rule:evenodd;stroke:none"
             d="M 0,0 C 0.03,0.689 0.044,1.33 0.089,1.965 0.111,2.27 0.33,2.288 0.604,2.268 1.5,2.195 19.707,1.112 21.478,0.989 21.931,0.956 22.03,0.861 22.009,0.42 21.979,-0.095 21.906,-0.607 21.872,-1.118 21.848,-1.433 21.686,-1.565 21.395,-1.638 20.245,-1.927 7.571,-5.563 7.571,-5.563 c 0,0 13.118,-0.941 13.965,-0.983 0.021,-0.774 0.004,-1.454 -0.149,-2.123 -0.024,-0.093 -0.239,-0.206 -0.36,-0.196 -1.538,0.087 -20.079,1.239 -21.466,1.339 0.008,0.357 0.049,1.564 0.049,1.823 0.006,0.493 0.091,0.627 0.584,0.766 0.839,0.235 13.454,3.93 13.454,3.93 0,0 -12.7,0.936 -13.648,1.007" /></g><g
           transform="translate(179.9416,125.9951)"
           id="g48"><path
             id="path50"
             style="fill:#144399;fill-opacity:1;fill-rule:evenodd;stroke:none"
             d="M 0,0 C 0,0 0.441,-1.3 0.611,-1.86 0.73,-2.254 0.566,-2.487 0.057,-2.62 -0.883,-2.877 -7.628,-4.589 -7.628,-4.589 l 1.248,-4.733 c 0,0 6.811,1.763 7.633,1.977 0.494,0.128 0.676,0.063 0.839,-0.41 0.164,-0.489 0.263,-0.997 0.376,-1.504 0.059,-0.275 -0.091,-0.437 -0.359,-0.507 -1.22,-0.31 -19.479,-5.085 -20.389,-5.35 -0.295,-0.085 -0.442,0.033 -0.507,0.312 -0.123,0.499 -0.255,0.996 -0.38,1.498 -0.109,0.461 -0.049,0.584 0.422,0.715 1.341,0.37 8.691,2.309 8.691,2.309 l -1.257,4.698 c 0,0 -7.711,-1.985 -8.43,-2.183 -0.641,-0.176 -0.839,-0.061 -1.009,0.578 -0.133,0.497 -0.253,0.995 -0.402,1.579 C -20.782,-5.477 0,0 0,0" /></g><g
           transform="translate(73.6298,175.9822)"
           id="g52"><path
             id="path54"
             style="fill:#144399;fill-opacity:1;fill-rule:evenodd;stroke:none"
             d="M 0,0 C 0.475,-1.476 0.94,-2.917 1.431,-4.435 3.41,-3.924 5.276,-3.2 7.246,-2.642 7.626,-3.819 7.992,-4.937 8.382,-6.14 8.107,-6.265 2.6,-8.157 2.6,-8.157 l 1.744,-5.463 c 0,0 4.391,1.375 5.883,1.876 0.316,0.102 0.611,0.055 0.714,-0.266 0.336,-1.027 0.633,-2.064 0.942,-3.1 0.006,-0.018 -0.02,-0.042 -0.071,-0.143 -0.917,-0.295 -6.317,-2.024 -8.036,-2.572 -0.596,-0.19 -0.715,-0.127 -0.907,0.469 -1.199,3.793 -2.396,7.586 -3.601,11.378 -0.833,2.634 -2.598,8.143 -2.626,8.27 -0.147,0.536 -0.077,0.68 0.463,0.86 C -2.185,3.39 2.693,4.913 4.419,5.46 5.06,5.661 5.153,5.624 5.367,4.975 5.628,4.189 5.885,3.402 6.128,2.612 6.275,2.141 6.206,2.054 5.729,1.904 3.93,1.338 0.127,0.073 0,0" /></g><g
           transform="translate(167.7902,79.3802)"
           id="g56"><path
             id="path58"
             style="fill:#144399;fill-opacity:1;fill-rule:evenodd;stroke:none"
             d="m 0,0 7.545,-0.467 -6.623,3.54 z m -9.694,-1.951 c 0.247,0.783 0.453,1.496 0.714,2.186 0.05,0.133 0.313,0.274 0.473,0.262 0.693,-0.028 4.63,-0.174 4.63,-0.174 0,0 0.475,1.65 0.711,2.489 0.144,0.491 0.239,1.007 0.439,1.474 0.176,0.412 0.071,0.633 -0.287,0.819 -0.619,0.313 -2.976,1.504 -3.526,1.795 -0.578,0.315 -0.582,0.364 -0.39,0.972 0.115,0.366 0.517,1.609 0.647,1.89 1.134,-0.592 18.516,-9.76 19.223,-10.144 0.54,-0.291 0.538,-0.32 0.36,-0.896 -0.157,-0.517 -0.394,-1.413 -0.394,-1.413 0,0 -0.137,-0.633 -0.744,-0.633 -0.56,0.095 -20.91,1.244 -21.856,1.373" /></g><g
           transform="translate(56.3188,172.1076)"
           id="g60"><path
             id="path62"
             style="fill:#144399;fill-opacity:1;fill-rule:evenodd;stroke:none"
             d="m 0,0 c 0.881,-1.041 9.285,-11.299 10.227,-12.182 0.043,0.026 0.085,0.058 0.124,0.085 -0.233,0.727 -2.125,6.386 -2.825,8.494 C 6.878,-1.67 6.245,0.273 5.598,2.206 5.365,2.901 5.392,3.02 6.03,3.396 c 0.36,0.207 0.73,0.392 1.094,0.593 0.485,0.266 0.582,0.222 0.75,-0.312 0.544,-1.726 1.09,-3.451 1.63,-5.179 0.77,-2.46 3.93,-12.405 4.742,-14.915 0.201,-0.613 0.188,-0.655 -0.38,-0.987 -0.444,-0.263 -0.905,-0.503 -1.344,-0.776 -0.301,-0.184 -0.522,-0.126 -0.738,0.135 -1.274,1.537 -13.454,15.943 -13.818,16.379 -0.254,0.307 -0.224,0.473 0.134,0.671 0.592,0.318 1.188,0.621 1.9,0.995" /></g><g
           transform="translate(141.7486,173.0835)"
           id="g64"><path
             id="path66"
             style="fill:#144399;fill-opacity:1;fill-rule:evenodd;stroke:none"
             d="M 0,0 C 0.142,-0.018 0.233,0 0.289,-0.04 0.914,-0.453 1.53,-0.881 2.155,-1.296 2.438,-1.484 2.483,-1.7 2.388,-2.028 1.666,-4.532 0.259,-9.801 0.259,-10.009 c 0.174,0.083 4.451,3.366 6.461,4.955 0.234,0.186 0.437,0.388 0.75,0.182 0.625,-0.414 1.251,-0.827 1.87,-1.247 0.054,-0.039 0.067,-0.134 0.145,-0.3 -0.238,-0.167 -7.085,-5.232 -10.233,-7.633 -0.497,-0.382 -0.865,-0.952 -1.223,-1.478 -1.371,-2.012 -4.26,-6.297 -4.415,-6.479 -0.589,0.408 -1.169,0.788 -1.731,1.194 -0.265,0.189 -0.206,0.415 -0.034,0.67 1.455,2.139 2.887,4.298 4.356,6.43 0.364,0.524 0.601,1.082 0.75,1.688 C -2.574,-10.104 -0.558,-2.125 0,0" /></g><g
           transform="translate(55.2754,35.9885)"
           id="g68"><path
             id="path70"
             style="fill:#144399;fill-opacity:1;fill-rule:evenodd;stroke:none"
             d="m 0,0 c -0.699,-1.077 -1.662,-1.676 -2.901,-1.902 -0.744,-0.132 -1.472,-0.34 -2.208,-0.512 -0.014,-0.066 -0.028,-0.131 -0.04,-0.198 0.196,-0.137 0.38,-0.299 0.59,-0.404 0.69,-0.352 1.397,-0.677 2.089,-1.027 0.277,-0.14 0.541,-0.309 0.792,-0.489 0.473,-0.348 0.441,-0.54 -0.091,-0.813 -0.321,-0.166 -0.643,-0.338 -0.944,-0.536 -0.378,-0.248 -0.637,-0.538 -0.631,-1.071 0.006,-0.686 -0.426,-0.91 -1.043,-0.607 -0.859,0.423 -1.749,0.799 -2.559,1.304 -0.849,0.532 -1.624,1.187 -2.43,1.791 -0.209,0.15 -0.427,0.295 -0.635,0.453 -0.78,0.601 -0.821,1.678 -0.087,2.349 0.113,0.103 0.238,0.221 0.372,0.271 1.308,0.457 2.592,1.12 4.035,0.524 0.423,-0.176 0.807,0.028 1.203,0.141 0.928,0.267 1.177,0.386 1.743,0.92 -0.566,0.485 -1.232,0.714 -1.897,0.97 -1,0.385 -2.039,0.269 -3.068,0.283 -0.467,0.005 -0.932,-0.01 -1.399,0.003 -0.732,0.024 -1.23,-0.328 -1.557,-0.943 -0.144,-0.274 -0.251,-0.574 -0.338,-0.869 -0.293,-1.001 -0.877,-1.807 -1.655,-2.482 -0.342,-0.3 -0.744,-0.522 -1.205,-0.334 -0.548,0.228 -0.942,0.647 -1.096,1.233 -0.04,0.156 0.026,0.354 0.089,0.518 0.358,0.94 0.477,1.886 0.178,2.877 -0.168,0.564 0.475,1.324 1.158,1.394 1.254,0.122 2.319,0.657 3.287,1.424 0.285,0.226 0.556,0.475 0.853,0.679 0.66,0.447 1.306,0.137 1.373,-0.637 C -7.965,3.698 -7.89,3.617 -7.308,3.51 -6.124,3.291 -4.933,3.075 -3.754,2.832 -3.455,2.768 -3.142,2.656 -2.907,2.478 -1.981,1.767 -1.082,1.023 -0.18,0.289 -0.123,0.241 -0.099,0.16 0,0" /></g><g
           transform="translate(132.0979,173.6671)"
           id="g72"><path
             id="path74"
             style="fill:#144399;fill-opacity:1;fill-rule:evenodd;stroke:none"
             d="m 0,0 c -0.825,-1.977 -5.242,-12.57 -6.675,-15.973 -0.322,-0.768 -0.447,-0.798 -1.224,-0.449 -0.446,0.199 -0.895,0.387 -1.415,0.611 0.152,0.423 4.646,11.18 6.755,16.183 0.224,0.528 0.173,0.643 -0.378,0.873 -0.718,0.297 -1.438,0.585 -2.141,0.912 -0.53,0.247 -0.548,0.319 -0.344,0.825 0.299,0.742 0.606,1.482 0.928,2.214 0.281,0.636 0.342,0.661 0.991,0.39 C -1.809,4.884 3.237,2.739 4.072,2.383 4.824,2.068 4.816,2.076 4.494,1.346 4.205,0.681 3.948,0.004 3.667,-0.667 3.374,-1.354 3.309,-1.375 2.636,-1.096 1.779,-0.738 0.924,-0.384 0,0" /></g><g
           transform="translate(41.1434,80.2537)"
           id="g76"><path
             id="path78"
             style="fill:#144399;fill-opacity:1;fill-rule:evenodd;stroke:none"
             d="m 0,0 c 0.032,-1.363 -0.744,-2.177 -1.601,-2.887 -0.863,-0.72 -3.491,-1.825 -3.783,-1.93 -0.551,-0.189 -0.586,-0.18 -0.865,0.299 -0.21,0.356 -0.404,0.725 -0.59,1.097 -0.275,0.536 -0.216,0.633 0.321,0.849 0.552,0.219 1.096,0.463 1.632,0.718 0.208,0.097 2.09,0.878 1.732,1.963 -0.426,1.284 -2.379,0.522 -2.598,0.461 -2.282,-0.653 -14.903,-4.472 -15.494,-4.656 -0.701,-0.22 -0.701,-0.224 -0.919,0.445 -0.126,0.39 -0.261,0.782 -0.389,1.171 -0.151,0.458 -0.095,0.608 0.366,0.754 1.181,0.374 13.673,4.199 15.266,4.643 1.235,0.348 2.612,0.627 3.863,0.494 C -0.087,2.78 -0.014,0.156 0,0" /></g><g
           transform="translate(97.4723,125.5352)"
           id="g80"><path
             id="path82"
             style="fill:#144399;fill-opacity:1;fill-rule:evenodd;stroke:none"
             d="m 0,0 c -0.176,0.057 -0.319,0.142 -0.461,0.142 -8.111,0.004 -24.033,0.004 -24.033,0.004 0,0 -0.002,-21.925 -0.002,-23.835 0,-0.405 -0.251,-0.56 -0.629,-0.538 -0.853,0.047 -2.165,0.075 -3.016,0.154 -0.439,0 -0.431,0.687 -0.429,0.839 0.021,8.897 -0.026,17.79 -0.002,26.685 0,0.129 -0.006,0.257 0,0.388 0.01,0.35 0.192,0.512 0.548,0.497 0.309,-0.012 0.621,-0.008 0.934,-0.008 20.043,0 40.091,0.002 60.14,0.002 0.826,0 0.869,-0.046 0.869,-0.881 v -16.42 c 0,-0.127 0.008,-0.258 0.006,-0.386 -0.006,-0.311 -0.158,-0.487 -0.477,-0.489 -1.009,-0.004 -2.022,-0.004 -3.035,-0.004 -0.325,-0.002 -0.463,0.18 -0.465,0.487 -0.002,0.154 0,0.311 0,0.469 0.002,4.07 0.006,8.143 0.006,12.215 0,0.806 -0.02,0.825 -0.83,0.825 H 4.925 C 4.13,0.146 4.1,0.115 4.1,-0.687 c 0,-7.804 0.002,-15.613 0.002,-23.419 0,-0.772 -0.008,-0.78 -0.778,-0.782 -0.827,-0.002 -1.658,-0.002 -2.487,0.002 -0.795,0.002 -0.797,0.006 -0.801,0.843 v 2.41 c 0,6.999 0.006,14.007 0.004,21.008 C 0.04,-0.423 0.012,-0.22 0,0" /></g><g
           transform="translate(59.086,102.5446)"
           id="g84"><path
             id="path86"
             style="fill:#144399;fill-opacity:1;fill-rule:evenodd;stroke:none"
             d="m 0,0 c 0.414,-0.241 0.756,-0.469 1.12,-0.655 1.747,-0.873 3.586,-1.106 5.503,-0.78 0.53,0.091 1.059,0.188 1.587,0.291 0.43,0.081 0.655,-0.18 0.901,-0.477 0.773,-0.934 1.525,-1.897 2.376,-2.76 1.573,-1.601 3.447,-2.804 5.426,-3.849 1.716,-0.912 3.463,-1.728 5.323,-2.309 1.856,-0.578 3.752,-0.738 5.66,-0.576 0.827,0.067 1.66,0.384 2.432,0.718 3.518,1.51 6.698,3.606 9.809,5.798 2.833,1.997 5.604,4.083 8.378,6.164 1.284,0.964 2.519,1.987 3.746,3.018 0.91,0.766 1.907,1.187 3.119,1.156 1.442,-0.034 2.619,-1.397 2.362,-2.907 -0.041,-0.234 -0.204,-0.477 -0.374,-0.655 -2.457,-2.561 -12.601,-13.29 -15.257,-16.061 -1.072,-1.118 -2.172,-2.218 -3.273,-3.32 -0.73,-0.736 -1.67,-1.134 -2.616,-1.478 -1.579,-0.574 -3.245,-0.709 -4.889,-0.523 -1.769,0.2 -3.459,0.721 -5.034,1.645 -3.996,2.345 -8.064,4.563 -12.057,6.908 C 9.688,-7.971 5.246,-5.111 0.993,-1.975 0.641,-1.718 0.33,-1.397 0.034,-1.075 -0.235,-0.784 -0.277,-0.441 0,0" /></g><g
           transform="translate(101.5729,68.9371)"
           id="g88"><path
             id="path90"
             style="fill:#144399;fill-opacity:1;fill-rule:evenodd;stroke:none"
             d="m 0,0 h -4.068 c 0,0 -0.002,6.419 10e-4,9.322 0,0.685 0.052,0.729 0.764,0.734 0.855,0.004 1.708,0 2.565,-0.003 0.714,0 0.744,-0.024 0.744,-0.743 C 0.006,6.748 0,0 0,0" /></g><g
           transform="translate(156.4196,149.5056)"
           id="g92"><path
             id="path94"
             style="fill:#144399;fill-opacity:1;fill-rule:evenodd;stroke:none"
             d="m 0,0 c 0,-1.852 -1.502,-3.352 -3.354,-3.352 -1.852,0 -3.356,1.5 -3.356,3.352 0,1.854 1.504,3.354 3.356,3.354 C -1.502,3.354 0,1.854 0,0" /></g><g
           transform="translate(130.5229,84.9786)"
           id="g96"><path
             id="path98"
             style="fill:#144399;fill-opacity:1;fill-rule:evenodd;stroke:none"
             d="m 0,0 h -2.27 c -0.924,0 -0.853,-1.098 -0.853,-1.098 0,0 -0.006,0.008 -0.006,0.01 -0.579,-14.448 -12.634,-25.731 -27.276,-25.731 -15.252,0 -27.614,12.326 -27.614,27.533 0,0.268 0.002,3.311 0.002,3.879 0,0.497 -0.432,0.538 -0.546,0.542 h -2.502 C -61.302,5.094 -61.637,4.9 -61.637,4.092 V 0.714 c 0,-17.218 13.961,-31.176 31.232,-31.176 16.763,0 30.427,13.159 31.21,29.678 C 0.797,-0.006 0,0 0,0" /></g><g
           transform="translate(99.9999,6.7677)"
           id="g100"><path
             id="path102"
             style="fill:#144399;fill-opacity:1;fill-rule:nonzero;stroke:none"
             d="m 0,0 c -51.491,0 -93.232,41.742 -93.232,93.229 0,51.494 41.741,93.236 93.232,93.236 51.491,0 93.231,-41.742 93.231,-93.236 C 93.231,41.742 51.491,0 0,0 m 0,193.232 c -55.229,0 -100,-44.771 -100,-100.003 0,-55.225 44.771,-99.997 100,-99.997 55.227,0 100,44.772 100,99.997 0,55.232 -44.773,100.003 -100,100.003" /></g><g
           transform="translate(99.9999,49.6124)"
           id="g104"><path
             id="path106"
             style="fill:#144399;fill-opacity:1;fill-rule:nonzero;stroke:none"
             d="m 0,0 c -27.828,0 -50.387,22.559 -50.387,50.389 0,27.827 22.559,50.384 50.387,50.384 27.828,0 50.385,-22.557 50.385,-50.384 C 50.385,22.559 27.828,0 0,0 m 0,106.85 c -31.184,0 -56.462,-25.278 -56.462,-56.461 0,-31.182 25.278,-56.462 56.462,-56.462 31.182,0 56.458,25.28 56.458,56.462 0,31.183 -25.276,56.461 -56.458,56.461" /></g><g
           transform="translate(111.4381,182.8735)"
           id="g108"><path
             id="path110"
             style="fill:#144399;fill-opacity:1;fill-rule:nonzero;stroke:none"
             d="m 0,0 c -0.679,0.849 -1.68,1.328 -2.98,1.425 -2.966,0.212 -4.621,-1.69 -4.927,-5.648 -0.309,-3.995 1.039,-6.227 4.009,-6.641 1.895,-0.227 2.738,-1.442 2.574,-3.706 -0.164,-2.28 -1.179,-3.313 -3.087,-3.176 -0.867,0.063 -1.52,0.364 -1.941,0.894 -0.499,0.627 -0.699,1.603 -0.602,2.899 l 0.014,0.172 -2.165,0.155 -0.009,-0.163 c -0.198,-2.529 0.182,-4.422 1.137,-5.625 0.754,-0.95 1.874,-1.487 3.331,-1.591 0.229,-0.016 0.451,-0.02 0.663,-0.012 2.901,0.087 4.553,2.273 4.913,6.5 0.239,4.308 -1.302,6.613 -4.573,6.851 -1.567,0.295 -2.254,1.415 -2.1,3.421 0.139,1.817 0.837,2.719 2.147,2.761 0.127,0.004 0.26,0 0.406,-0.016 0.683,-0.038 1.203,-0.273 1.55,-0.7 0.445,-0.549 0.625,-1.445 0.536,-2.66 l -0.01,-0.172 2.149,-0.157 0.012,0.167 C 1.207,-2.762 0.857,-1.073 0,0" /></g><g
           transform="translate(38.7684,88.455)"
           id="g112"><path
             id="path114"
             style="fill:#144399;fill-opacity:1;fill-rule:evenodd;stroke:none"
             d="m 0,0 c 0.036,-0.212 -0.109,-0.412 -0.321,-0.449 l -20.963,-3.643 c -0.212,-0.036 -0.414,0.105 -0.447,0.318 l -0.273,1.625 c -0.036,0.212 0.106,0.414 0.318,0.447 l 20.964,3.645 c 0.213,0.036 0.413,-0.107 0.447,-0.318 z" /></g><g
           transform="translate(37.8736,105.0259)"
           id="g116"><path
             id="path118"
             style="fill:#144399;fill-opacity:1;fill-rule:evenodd;stroke:none"
             d="m 0,0 c -0.022,-0.216 -0.208,-0.372 -0.421,-0.352 l -21.201,1.85 c -0.212,0.02 -0.369,0.208 -0.351,0.421 l 0.155,1.643 c 0.017,0.212 0.209,0.37 0.421,0.35 l 21.199,-1.85 c 0.212,-0.02 0.37,-0.208 0.35,-0.423 z" /></g><g
           transform="translate(61.3239,148.7807)"
           id="g120"><path
             id="path122"
             style="fill:#144399;fill-opacity:1;fill-rule:evenodd;stroke:none"
             d="m 0,0 c -0.17,-0.129 -0.414,-0.097 -0.544,0.073 l -13.021,16.83 c -0.13,0.172 -0.097,0.416 0.073,0.544 l 1.31,1.002 c 0.171,0.13 0.412,0.097 0.545,-0.071 L 1.383,1.545 C 1.514,1.373 1.48,1.132 1.31,1.001 Z" /></g><g
           transform="translate(114.5668,160.4047)"
           id="g124"><path
             id="path126"
             style="fill:#144399;fill-opacity:1;fill-rule:evenodd;stroke:none"
             d="m 0,0 c -0.208,0.055 -0.328,0.269 -0.275,0.475 l 5.41,20.582 c 0.053,0.208 0.267,0.33 0.477,0.273 l 1.589,-0.427 c 0.208,-0.056 0.332,-0.27 0.277,-0.475 L 2.068,-0.154 C 2.012,-0.362 1.797,-0.483 1.589,-0.429 Z" /></g><g
           transform="translate(161.6299,106.9196)"
           id="g128"><path
             id="path130"
             style="fill:#144399;fill-opacity:1;fill-rule:evenodd;stroke:none"
             d="m 0,0 c -0.018,0.214 0.141,0.402 0.354,0.423 l 21.184,2.011 c 0.213,0.02 0.403,-0.137 0.423,-0.352 L 22.107,0.443 C 22.125,0.228 21.969,0.04 21.755,0.022 L 0.568,-1.995 C 0.356,-2.014 0.17,-1.854 0.148,-1.64 Z" /></g><g
           transform="translate(37.8099,93.8426)"
           id="g132"><path
             id="path134"
             style="fill:#144399;fill-opacity:1;fill-rule:evenodd;stroke:none"
             d="m 0,0 c 0.006,-0.212 -0.16,-0.392 -0.37,-0.4 l -20.926,-0.793 c -0.212,-0.006 -0.388,0.162 -0.394,0.378 l -0.053,1.646 c -0.006,0.214 0.158,0.392 0.37,0.4 l 20.924,0.793 c 0.214,0.004 0.388,-0.164 0.398,-0.378 z" /></g><g
           transform="translate(37.7849,94.0417)"
           id="g136"><path
             id="path138"
             style="fill:#144399;fill-opacity:1;fill-rule:evenodd;stroke:none"
             d="m 0,0 c -0.028,1.168 -0.206,6.231 -0.255,7.601 -0.014,0.36 -0.198,0.52 -0.539,0.51 C -1.7,8.084 -2.604,8.056 -3.508,8.012 -3.956,7.993 -4.011,7.902 -3.983,7.419 -3.96,7.031 -3.778,-0.708 -3.778,-0.708 -1.741,-0.619 -0.152,-0.218 0,-0.2 Z" /></g><g
           transform="translate(45.2887,138.3609)"
           id="g140"><path
             id="path142"
             style="fill:#144399;fill-opacity:1;fill-rule:evenodd;stroke:none"
             d="m 0,0 c -1.354,1.098 -12.124,7.704 -14.443,9.121 v 10e-4 c -0.41,0.248 -0.566,0.076 -0.604,0.016 l -1.148,-1.846 c 0,0 13.284,-8.277 14.086,-8.927 0.51,-0.415 1.122,-0.85 1.137,-1.684 0.022,-1.062 -0.965,-2.542 -2.406,-2.236 -0.837,0.145 -1.844,0.566 -2.586,1.016 -3.368,2.044 -12.7,7.672 -12.7,7.672 0,0 -0.806,-1.235 -1.144,-1.835 -0.145,-0.265 0.045,-0.346 0.146,-0.461 0.133,-0.15 5.221,-3.265 7.601,-4.674 2.161,-1.278 4.346,-2.525 6.542,-3.73 4.088,-2.1 6.756,0.51 7.326,1.769 C 2.064,-5.236 3.19,-2.596 0,0" /></g><g
           transform="translate(73.6298,175.9822)"
           id="g144"><path
             id="path146"
             style="fill:#144399;fill-opacity:1;fill-rule:nonzero;stroke:none"
             d="M 0,0 4.344,-13.62" /></g><g
           transform="translate(92.846,174.5619)"
           id="g148"><path
             id="path150"
             style="fill:#144399;fill-opacity:1;fill-rule:nonzero;stroke:none"
             d="m 0,0 c -0.394,-0.042 -2.373,-0.267 -3.008,-0.342 -0.083,0.419 -0.425,5.052 -0.504,5.428 -0.08,0.372 0.081,0.532 0.391,0.613 l 0.006,0.002 C -2.964,5.735 -0.784,6.095 0.499,5.824 0.815,5.709 1.108,5.535 1.363,5.313 1.935,4.815 2.325,4.082 2.384,3.231 2.442,2.485 2.23,1.789 1.848,1.225 1.419,0.59 0.768,0.135 0,0 m 6.376,-11.37 c -0.93,1.965 -1.868,3.924 -2.802,5.885 -0.459,0.959 -1.075,1.814 -1.9,2.564 C 6.785,-0.922 6.099,7.997 0.655,9.109 -0.279,9.299 -1.071,9.237 -2.024,9.178 -3.287,9.099 -4.537,8.931 -5.798,8.824 -6.342,8.776 -6.433,8.743 -6.407,8.185 c 0.027,-0.644 1.986,-20.454 2.02,-20.683 0.055,-0.337 0.235,-0.58 0.617,-0.584 0.641,-0.002 1.289,-0.018 1.876,0.35 0.014,0.111 0.044,0.214 0.038,0.315 -0.143,1.432 -0.788,8.515 -0.788,8.515 0,0 1.789,0.863 2.48,-0.782 0.144,-0.216 3.178,-6.214 3.669,-7.183 0.203,-0.398 0.629,-0.451 0.629,-0.451 l 1.7,0.116 c 0,0 0.805,0.264 0.542,0.832" /></g><g
           transform="translate(175.1065,138.3572)"
           id="g152"><path
             id="path154"
             style="fill:#144399;fill-opacity:1;fill-rule:evenodd;stroke:none"
             d="m 0,0 c -0.081,0.121 -0.164,0.234 -0.257,0.34 -2.078,2.252 -7.362,1.027 -7.362,1.027 -2.893,-0.803 -5.564,-2.097 -8.041,-3.781 -1.271,-0.859 -2.45,-1.819 -3.343,-3.087 -0.615,-0.912 -1.945,-3.317 -0.676,-5.561 0.336,-0.54 1.846,-2.392 6.168,-1.609 0.443,0.086 0.884,0.183 1.321,0.311 0.737,0.212 0.857,0.289 0.924,1.059 0.014,0.176 0.105,1.167 0.094,1.502 -0.014,0.328 -0.222,0.431 -0.543,0.35 -0.623,-0.16 -2.651,-0.801 -3.918,-0.311 -0.584,0.228 -1.013,0.657 -1.102,1.298 -0.095,0.683 0.032,1.324 0.447,1.918 0.531,0.756 1.19,1.371 1.941,1.886 2.258,1.537 4.659,2.79 7.3,3.526 0.839,0.232 1.736,0.321 2.599,0.034 0.465,-0.157 0.888,-0.39 1.173,-0.841 0.408,-0.661 0.427,-1.312 0.077,-1.985 -0.374,-0.734 -0.916,-1.312 -1.555,-1.813 -0.408,-0.32 -0.416,-0.463 -0.056,-0.793 0.406,-0.362 0.834,-0.697 1.245,-1.055 0.267,-0.231 0.499,-0.19 0.758,0.022 0.321,0.259 0.631,0.522 0.94,0.793 1.745,1.676 2.222,3.382 2.299,3.705 C 0.738,-1.51 0.307,-0.487 0,0" /></g><g
           transform="translate(144.4404,97.4467)"
           id="g156"><path
             id="path158"
             style="fill:#144399;fill-opacity:1;fill-rule:nonzero;stroke:none"
             d="m 0,0 c -0.655,0.714 -1.443,0.863 -2.345,0.552 -0.91,-0.311 -1.714,-0.89 -2.254,-1.714 -0.938,-1.42 -2.268,-2.311 -3.779,-2.998 -1.109,-0.502 -2.258,-0.837 -3.428,-1.088 l 0.002,-0.004 c -4.013,-1.041 -8.099,-0.724 -8.099,-0.724 -1.577,0.091 -2.557,1.557 -2.268,2.836 0.157,0.694 0.473,1.371 0.841,1.988 0.418,0.707 0.95,1.35 1.469,1.997 2.526,3.142 5.566,5.622 9.349,7.112 1.811,0.708 3.673,1.193 5.634,1.211 0.196,0.002 0.43,0.036 0.582,0.142 0.823,0.57 1.055,1.855 0.166,2.801 -0.245,0.261 -0.706,0.609 -1.355,0.732 -1.152,0.164 -2.529,0.202 -3.99,0.16 -0.354,-0.012 -0.708,-0.028 -1.062,-0.051 -1.051,-0.054 -2.122,-0.131 -3.174,-0.236 -4.205,-0.429 -7.963,-1.152 -7.963,-1.152 -0.489,-0.118 -0.833,-0.364 -1.164,-0.702 -3.621,-3.71 -20.619,-21.72 -21.923,-23.228 -1.061,-1.235 -0.467,-2.105 0.764,-2.525 0.213,-0.073 0.455,-0.097 0.682,-0.109 0.62,-0.045 1.239,-0.081 1.859,-0.101 1.294,-0.047 2.586,-0.128 3.878,-0.11 1.284,0.015 2.575,0.136 3.863,0.211 0.206,0.012 0.413,0.04 0.615,0.066 0.946,0.122 1.89,0.233 2.832,0.376 1.017,0.152 2.048,0.257 3.041,0.51 2.021,0.523 4.027,1.096 6.022,1.714 2.222,0.679 4.444,1.367 6.629,2.163 2.665,0.979 5.311,2.03 7.927,3.144 1.757,0.75 3.471,1.631 4.993,2.82 0.71,0.554 1.387,1.164 1.852,1.969 C 0.629,-1.478 0.503,-0.548 0,0" /></g><g
           transform="translate(131.3869,93.0254)"
           id="g160"><path
             id="path162"
             style="fill:#144399;fill-opacity:1;fill-rule:evenodd;stroke:none"
             d="m 0,0 c 0,-0.208 -0.17,-0.378 -0.378,-0.378 h -3.216 c -0.207,0 -0.377,0.17 -0.377,0.378 v 7.053 c 0,0.211 0.17,0.382 0.377,0.382 h 3.216 C -0.17,7.435 0,7.264 0,7.053 Z" /></g><g
           transform="translate(78.4493,131.9877)"
           id="g164"><path
             id="path166"
             style="fill:#144399;fill-opacity:1;fill-rule:nonzero;stroke:none"
             d="m 0,0 h 0.669 c 0.973,0 1.359,0.212 1.359,1.118 v 8.177 c 0,0.906 -0.386,1.135 -1.359,1.135 H 0 v 0.525 c 2.355,0.172 3.576,0.635 4.264,1.387 H 4.997 V 1.118 C 4.997,0.212 5.384,0 6.338,0 H 6.867 V -0.522 H 0 Z" /></g><g
           transform="translate(94.2045,140.2026)"
           id="g168"><path
             id="path170"
             style="fill:#144399;fill-opacity:1;fill-rule:nonzero;stroke:none"
             d="m 0,0 c 0,2.044 -0.447,3.605 -1.868,3.605 -1.403,0 -1.686,-1.618 -1.686,-3.662 0,-1.967 0.241,-3.317 1.623,-3.317 C -0.57,-3.374 0,-1.755 0,0 m -6.259,-6.827 c 0,0.811 0.629,1.447 1.484,1.447 0.75,0 1.423,-0.464 1.423,-1.37 0,-0.502 -0.226,-0.829 -0.673,-1.155 -0.16,-0.117 -0.241,-0.274 -0.101,-0.371 0.184,-0.112 0.467,-0.209 0.916,-0.209 2.215,0 3.069,2.392 3.21,5.438 -0.509,-0.521 -1.219,-0.962 -2.479,-0.962 -2.215,0 -4.287,1.579 -4.287,3.874 0,2.545 2.419,4.186 4.898,4.186 3.026,0 5.018,-2.258 5.018,-5.921 0,-3.839 -2.703,-7.116 -6.36,-7.116 -1.85,0 -3.049,0.924 -3.049,2.159" /></g><g
           transform="translate(104.777,141.3409)"
           id="g172"><path
             id="path174"
             style="fill:#144399;fill-opacity:1;fill-rule:nonzero;stroke:none"
             d="M 0,0 -4.694,-6.229 H 0 Z M 4.735,-6.229 V -6.904 H 2.907 v -1.35 c 0,-0.886 0.386,-1.1 1.302,-1.1 h 0.364 v -0.52 h -6.401 v 0.52 H -1.3 c 0.914,0 1.3,0.214 1.3,1.1 v 1.35 h -5.648 v 0.538 l 6.95,9.202 h 1.605 v -9.065 z" /></g><g
           transform="translate(118.3391,135.2864)"
           id="g176"><path
             id="path178"
             style="fill:#144399;fill-opacity:1;fill-rule:nonzero;stroke:none"
             d="m 0,0 c 0,1.965 -0.243,3.317 -1.625,3.317 -1.363,0 -1.929,-1.623 -1.929,-3.374 0,-2.045 0.447,-3.61 1.868,-3.61 C -0.285,-3.667 0,-2.044 0,0 m -6.704,1.813 c 0,3.835 2.703,7.116 6.36,7.116 1.85,0 3.045,-0.927 3.045,-2.159 0,-0.812 -0.629,-1.449 -1.484,-1.449 -0.75,0 -1.421,0.463 -1.421,1.371 0,0.499 0.224,0.83 0.671,1.156 0.162,0.115 0.243,0.273 0.103,0.364 -0.184,0.119 -0.469,0.216 -0.914,0.216 -2.215,0 -3.069,-2.393 -3.21,-5.438 0.509,0.518 1.217,0.964 2.476,0.964 2.216,0 4.29,-1.583 4.29,-3.879 0,-2.547 -2.418,-4.183 -4.898,-4.183 -3.026,0 -5.018,2.256 -5.018,5.921" /></g></g></g></g></svg>