<?xml version="1.0" encoding="UTF-8" standalone="no"?>
<!-- Created with Inkscape (http://www.inkscape.org/) -->

<svg
   width="83.60833mm"
   height="83.610931mm"
   viewBox="0 0 83.608329 83.610931"
   version="1.1"
   id="svg1"
   xmlns="http://www.w3.org/2000/svg"
   xmlns:svg="http://www.w3.org/2000/svg">
  <defs
     id="defs1" />
  <g
     id="layer1"
     transform="translate(524.52934,536.70026)">
    <g
       id="g15"
       transform="matrix(0.28336639,0,0,0.28336639,-524.61753,-537.11632)">
      <g
         id="g2">
        <path
           fill="#0f6a7b"
           d="m 131.953,2.32 c 27.92,-3.02 56.69,2.02 81.79,14.66 28.62,14.24 52.33,38.07 66.44,66.76 12.95,26.06 17.74,56.02 13.89,84.84 -3.89,29.96 -17.41,58.52 -37.97,80.63 -20.52,22.24 -48.02,37.96 -77.66,44.14 -29.9,6.33 -61.77,3.18 -89.75,-9.15 -28.39,-12.38 -52.62,-33.97 -68.23,-60.7 -13.45,-22.87 -20.48,-49.43 -20.14,-75.95 0.16,-33.69 12.47,-67.11 34.1,-92.92 24.12,-29.18 59.85,-48.46 97.53,-52.31 z m -3.1,3.88 c -31.12,4.04 -60.67,18.79 -82.7,41.12 -23.4,23.41 -38.25,55.12 -41.22,88.08 -2.89,29.86 3.84,60.57 19.03,86.44 14.25,24.42 35.83,44.49 61.27,56.84 27.4,13.37 59.13,17.62 89.08,11.92 28.59,-5.29 55.37,-19.65 75.69,-40.42 21.92,-22.16 36.28,-51.63 40.17,-82.55 3.83,-29.01 -1.45,-59.14 -14.96,-85.1 -13.76,-26.61 -36.04,-48.72 -62.8,-62.22 C 186.833,7.32 157.283,2.34 128.853,6.2 Z"
           id="path1" />
      </g>
      <g
         id="g3">
        <path
           fill="#0f6a7b"
           d="m 129.843,9.23 c 26.07,-3.36 53.09,0.69 76.92,11.83 28.81,13.28 52.79,36.71 66.81,65.17 13.39,26.79 17.73,57.9 12.53,87.37 -4.96,28.63 -19.1,55.55 -39.82,75.9 -21.22,21.05 -49.34,35.01 -78.96,39.07 -26.28,3.67 -53.59,-0.2 -77.71,-11.3 -29.11,-13.22 -53.37,-36.78 -67.5,-65.46 -13.68,-27.34 -17.92,-59.2 -12.22,-89.21 5.43,-29.1 20.38,-56.31 42.01,-76.52 21.25,-20.07 48.94,-33.19 77.94,-36.85 z m -32.22,15.54 c -1.34,2.29 1.01,5.29 1.22,7.83 -1.01,0.79 -2.02,1.58 -3.01,2.4 1.2,0.52 2.4,1.03 3.61,1.54 -0.51,2.41 0.32,6.29 -3.24,6.31 0.55,4.77 1.95,9.41 4.08,13.7 0.52,1.55 2.24,1.98 3.47,2.79 0.41,-5.7 -3.48,-10.41 -5.36,-15.53 0.64,-0.56 1.9,-1.68 2.54,-2.23 1.04,1.57 1.92,3.25 3.06,4.75 0.69,-0.25 2.07,-0.76 2.75,-1.01 0.05,0.14 0.15,0.41 0.19,0.54 -1.15,1.1 -2.26,2.25 -3.25,3.49 1.5,-0.24 3,-0.52 4.49,-0.84 0.37,0.78 1.11,2.32 1.48,3.1 0.64,-2.13 1.23,-4.28 2.03,-6.36 -0.79,-0.16 -2.37,-0.48 -3.16,-0.64 0.26,-0.4 0.78,-1.2 1.04,-1.6 -1.69,-1.49 -1.31,-3.53 -1.02,-5.48 1.34,-0.57 2.68,-1.15 4.06,-1.63 2.17,3.34 3.12,7.28 4.48,10.99 -0.52,0.42 -1.57,1.26 -2.1,1.68 1.19,1 2.4,1.98 3.61,2.96 3.8,-3.51 1.4,-9.14 -0.1,-13.21 -1.16,-2.05 -1.44,-5.36 -4.06,-6.02 -4.79,1.17 -8.67,4.45 -13.08,6.48 0.38,-1.31 0.77,-2.62 1.16,-3.93 1.82,-1.26 3.57,-2.62 5.27,-4.05 -1.61,-1.54 -3.68,-1.3 -5.68,-0.82 -1,-2.05 -1.47,-5.57 -4.48,-5.21 z m 91.31,7.56 c -2.63,-0.24 -5.66,-1.43 -7.66,0.99 1.38,1.43 3.14,2.34 5,3.01 -4.11,5.69 -10.74,8.28 -16.48,11.89 2.92,-0.07 5.94,-0.14 8.7,-1.24 3.67,-1.24 6.17,-4.37 8.8,-7.04 0.98,4.93 0.56,11.28 5.22,14.44 1.25,0.97 2.92,0.98 4.38,1.41 -2.92,-5.97 -6.44,-11.78 -7.33,-18.51 2.37,0.39 4.92,1.73 7.29,0.62 1.53,-3.7 -2.99,-3.69 -5.37,-4.6 0.44,-2.84 3.8,-6.22 1.6,-8.89 -2.18,2.15 -3.08,5.14 -4.15,7.92 z m -54.13,23.87 c -24.72,3.36 -47.69,17.28 -62.31,37.46 -12.8,17.4 -19.21,39.34 -17.86,60.9 1.18,21.63 10.23,42.69 25.06,58.48 14.71,15.85 35.07,26.35 56.56,28.95 19.66,2.49 40.08,-1.48 57.31,-11.29 19.18,-10.78 34.31,-28.55 41.86,-49.23 7.99,-21.5 7.68,-45.95 -0.88,-67.25 -8.16,-20.62 -23.92,-38.1 -43.59,-48.34 -17.09,-9.02 -37.03,-12.39 -56.15,-9.68 z m -95.91,16.3 c 1.8,-0.81 3.37,-2.02 4.82,-3.35 1.4,1.37 2.78,2.77 4.1,4.23 -1.7,-0.44 -3.39,-0.93 -5.12,-1.27 1.04,2.23 2.76,4.01 4.43,5.78 0.63,-0.96 1.26,-1.92 1.89,-2.88 0.84,1.66 1.7,3.31 2.61,4.94 0.36,-1.19 0.72,-2.38 1.07,-3.57 3.96,0.16 6.48,-3.82 6.04,-7.46 -1.25,-0.04 -2.5,-0.08 -3.75,-0.12 0.18,1.45 0.6,2.98 -0.21,4.33 -1.35,0 -2.69,-0.23 -4.03,-0.39 0.14,-1.49 0.3,-2.98 0.47,-4.47 -0.86,-0.15 -2.59,-0.44 -3.45,-0.59 0.02,0.51 0.06,1.51 0.08,2.01 -2.25,-1.55 -3.35,-3.81 -3.56,-6.48 -2.61,2.56 -4.01,5.98 -5.39,9.29 z m 207.42,4.68 c 0.8,0.72 1.62,1.43 2.45,2.13 3.56,-2.47 8.19,-4.54 9.15,-9.25 -4.9,0.1 -8.26,4.08 -11.6,7.12 z m 1.55,2.85 c -2.04,-1.7 -3.61,-3.89 -5.72,-5.5 -1.61,-0.52 -4.03,-0.5 -5.02,1.09 -1.3,1.12 -0.05,3.46 1.39,3.61 1.4,-0.46 2.58,-1.39 3.92,-1.98 3.32,3.12 5.77,7.06 8.15,10.91 0.96,1.26 1.02,2.84 0.93,4.36 0.99,1.38 2.18,2.61 3.62,3.54 0.71,-4.47 -1.38,-8.42 -3.93,-11.88 2.99,1.05 5.97,2.18 9.12,2.67 0.52,-1.04 1.04,-2.08 1.57,-3.11 0.85,0.32 2.53,0.95 3.37,1.27 0.55,-2.18 1.82,-4.17 2.04,-6.43 -1.55,-1.01 -2.97,0.59 -4.36,1.07 -1.16,-0.72 -2.32,-1.44 -3.47,-2.16 1.48,-1.6 2.62,-3.45 1.59,-5.65 -4.55,2.5 -8.3,6.38 -13.2,8.19 z M 35.703,73.85 c -1.77,2.81 -3.03,5.92 -4.45,8.92 3.28,-0.19 5.25,-3.03 7.67,-4.85 -0.72,2.14 -1.42,4.71 -4.32,4.51 4.07,2.84 8.15,5.7 11.83,9.04 0.96,0.84 2.42,0.37 3.58,0.62 -0.53,-2.63 -1.13,-5.36 -3.06,-7.36 -0.18,0.81 -0.54,2.43 -0.72,3.24 -0.94,-0.55 -1.88,-1.11 -2.82,-1.66 0.18,-0.73 0.55,-2.2 0.74,-2.94 1.66,1.06 3.65,1.13 5.56,1.38 0.1,-2.57 -1.42,-4.77 -3.71,-1.99 -1.64,-2.58 -2.87,-5.65 -5.68,-7.22 -1.41,-0.67 -3,-2.58 -4.62,-1.69 z m 15.47,12.81 c 2.48,2.87 5.29,5.74 9.19,6.47 0.94,-2.45 1.82,-4.94 2.34,-7.52 -1.48,1.41 -2.8,2.95 -4.19,4.44 0.48,-2.19 2.7,-5.31 -0.21,-6.72 -0.77,1.51 -1.39,3.09 -2.06,4.65 -1.09,-0.57 -2.18,-1.14 -3.27,-1.71 1.27,-1.51 2.54,-3.02 3.78,-4.54 2.62,1.26 5.02,2.91 7.67,4.11 1.07,-4.32 -3.68,-6.82 -6.96,-8.28 -3.17,2.05 -4.41,5.98 -6.29,9.1 z m 15.94,0.58 c -2.12,3.6 -4.87,6.85 -6.47,10.76 0.89,-0.17 2.67,-0.5 3.56,-0.67 2.46,-4.59 7.11,-8.55 6.9,-14.13 -1.54,1.11 -3.03,2.35 -3.99,4.04 z m 175.94,-2.5 c 0.81,0.78 1.63,1.56 2.46,2.34 -1.45,0.24 -2.88,0.5 -4.31,0.78 -1.49,-1.56 -3.03,-3.08 -4.66,-4.47 0.2,2.51 1.09,4.87 2.04,7.18 -1.52,0.64 -3.06,1.25 -4.59,1.86 -0.45,-0.64 -1.34,-1.92 -1.79,-2.56 -0.85,1.67 -3.37,3.46 -1.54,5.35 3.16,1.96 6.54,-0.53 9.13,-2.29 1.31,1 2.56,2.34 4.33,2.37 -0.15,-2.24 -1.04,-4.39 -0.91,-6.65 1.83,0.4 3.59,1.19 5.5,1.25 0.43,-2.84 -1.47,-5.22 -3.51,-6.91 -0.74,0.56 -1.46,1.14 -2.15,1.75 z m -212.57,59.97 c -3.05,0.88 -4.07,5.24 -1.68,7.36 2.13,2.3 6.38,1.23 7.25,-1.77 1.26,-3.23 -2.32,-6.87 -5.57,-5.59 z m 232.19,0.2 c -2.83,1.2 -3.44,5.44 -0.99,7.35 2.28,2.17 6.49,0.81 7.13,-2.27 1.04,-3.38 -2.97,-6.81 -6.14,-5.08 z m -221.37,37.6 c -4.33,1.62 -8.75,3.08 -13.23,4.24 -0.39,-0.09 -1.17,-0.26 -1.56,-0.35 0.05,-1.35 1.33,-2.24 1.94,-3.34 -1.21,-0.34 -2.64,-1.19 -3.38,0.37 -0.81,2.78 1.41,5.31 4.25,5.21 4.88,-0.49 9.35,-2.79 14.08,-3.94 0.47,0.5 1.4,1.5 1.86,2 -0.79,-2.4 -1.57,-4.81 -2.09,-7.29 -0.59,1.03 -0.5,2.76 -1.87,3.1 z m 210.09,3.02 c 0.54,-0.36 1.63,-1.09 2.17,-1.45 2.06,2.31 3.94,4.77 5.81,7.24 -3.05,0.76 -6.1,1.65 -9.25,1.72 -0.15,-0.66 -0.45,-1.98 -0.6,-2.64 -0.84,2.56 -1.81,5.08 -2.94,7.53 3.44,-2.53 7.82,-2.9 11.87,-3.75 2.72,-0.59 5.14,1.27 7.59,2.14 -0.09,1.05 -0.17,2.1 -0.25,3.16 0.86,-2.18 1.72,-4.34 2.67,-6.47 -3.39,0.64 -7.23,-0.67 -9.26,-3.49 -2.31,-3.05 -5.05,-6.05 -5.55,-10 -0.67,2.03 -1.45,4.03 -2.26,6.01 z m -204.5,8.12 c -4.85,2.32 -9.76,4.51 -14.72,6.57 -0.49,-0.44 -1.49,-1.32 -1.98,-1.76 0.97,2.38 1.96,4.75 2.89,7.14 0.04,-0.73 0.14,-2.19 0.18,-2.93 4.45,-1.96 8.79,-4.21 13.35,-5.9 1.55,-0.92 2.6,0.67 3.71,1.5 -1.36,-2.52 -2.49,-5.15 -3.58,-7.78 0.05,1.05 0.1,2.1 0.15,3.16 z m 198.16,7.16 c -2.61,4.24 -5.26,8.46 -7.87,12.69 0.96,0.78 1.92,1.57 2.88,2.36 -1.09,-2.48 -0.34,-4.9 1.06,-7.07 4.64,2.88 9.29,5.74 13.85,8.74 -0.1,0.76 -0.29,2.28 -0.39,3.04 1.38,-2.42 2.82,-4.81 4.32,-7.16 -0.82,0.62 -1.63,1.25 -2.43,1.88 -4.74,-2.78 -9.36,-5.75 -13.99,-8.7 1.47,-2.14 3.16,-4.32 6.09,-3.85 -1.18,-0.63 -2.35,-1.28 -3.52,-1.93 z m -193.08,0.37 c -0.06,1.37 -0.21,2.74 -0.44,4.09 -3.99,2.95 -8.36,5.32 -12.55,7.98 -0.85,-0.6 -1.7,-1.2 -2.55,-1.79 1.26,1.99 2.49,4.01 3.71,6.04 -0.16,-0.76 -0.49,-2.27 -0.66,-3.03 3.69,-2.56 7.51,-4.92 11.39,-7.19 -1.96,6.25 -4.22,12.4 -6.16,18.65 5.23,-3.01 10.17,-6.54 15.5,-9.39 0.57,0.5 1.71,1.5 2.28,2 -1.27,-2.09 -2.56,-4.16 -3.85,-6.22 0.23,1.02 0.48,2.04 0.72,3.06 -3.54,2.43 -7.2,4.67 -10.85,6.93 1.65,-5.16 3.54,-10.23 5.19,-15.37 0.95,-2.11 -1.01,-3.92 -1.73,-5.76 z m 177.18,21.8 c 0.59,-0.29 1.79,-0.88 2.38,-1.18 2.58,1.46 4.64,3.63 6.9,5.5 2.17,2.03 5.2,3.72 5.49,7.01 1.05,-1.5 2.22,-2.91 3.46,-4.26 -3.7,-0.45 -5.94,-3.7 -8.71,-5.81 -2.01,-2 -5.32,-3.61 -4.98,-6.92 -1.42,1.96 -2.96,3.83 -4.54,5.66 z m -178.59,10.09 c 1.41,1.11 2.77,2.29 4.09,3.51 -1.45,-2.86 1.91,-3.59 3.86,-4.37 2.12,1.39 3.81,3.32 5.62,5.09 -1.2,1.87 -1.79,5.96 -4.83,3.9 1.62,1.5 3.15,3.08 4.64,4.7 1.3,-7.03 4.82,-13.35 7.03,-20.1 -6.86,2.22 -13.09,6.81 -20.41,7.27 z m 173.32,-3.94 c -2.05,1.05 -4.62,2.01 -5.39,4.43 -1.17,2.71 0.85,6.17 3.85,6.29 3.36,0.05 6.58,-1.44 9.96,-1.17 2.81,0.79 2.41,4.78 0.11,5.99 -2.21,1.93 -5.05,0.61 -7.43,-0.16 1.2,1.28 2.41,2.56 3.6,3.86 2.13,-1.74 4.83,-2.88 6.5,-5.14 1.79,-2.66 0.4,-6.82 -2.84,-7.49 -3.69,-0.39 -7.21,1.54 -10.9,1.24 -2.65,-0.75 -1.98,-4.67 0.19,-5.6 2.34,-1.64 4.91,0 7.15,0.92 -1.49,-1.61 -2.96,-3.24 -4.42,-4.87 -0.09,0.43 -0.28,1.28 -0.38,1.7 z m -144.55,6.02 c 0.49,1.17 0.99,2.34 1.49,3.51 -2.75,4.3 -5.45,8.63 -8.41,12.8 -0.75,-0.18 -2.26,-0.54 -3.02,-0.72 1.92,1.21 3.83,2.45 5.62,3.86 -0.42,-1.22 -1.71,-2.6 -0.57,-3.84 1.93,-3.46 4.28,-6.65 6.42,-9.97 0.82,6.49 1.33,13.02 2.29,19.49 3.5,-4.89 6.47,-10.13 10.02,-14.98 1.01,0.3 2.02,0.61 3.03,0.91 -1.97,-1.32 -3.95,-2.63 -5.95,-3.91 0.42,0.58 1.25,1.74 1.66,2.32 -2.23,3.34 -3.78,7.35 -6.9,9.97 -0.85,-5.61 -1.23,-11.28 -1.9,-16.91 -1.26,-0.85 -2.52,-1.69 -3.78,-2.53 z m 119.15,11.68 c 2.99,1.07 4.3,4.09 5.96,6.53 1.73,2.9 4.24,5.58 4.44,9.12 1.8,-1.33 3.68,-2.56 5.57,-3.77 -0.77,0.16 -2.31,0.5 -3.08,0.66 -1.46,-2.09 -2.91,-4.19 -4.13,-6.42 0.44,-0.2 1.33,-0.58 1.78,-0.78 3.4,0.99 6.61,2.51 9.96,3.63 1.39,-0.95 2.8,-1.87 4.23,-2.77 -4.22,1.09 -8.11,-1.13 -11.94,-2.56 0.64,-1.88 2.23,-3.83 1.28,-5.87 -0.77,-2.03 -3.15,-3.23 -5.23,-2.62 -3.19,1.13 -5.86,3.3 -8.84,4.85 z m -96.33,2.6 c 0.52,0.49 1.56,1.46 2.08,1.94 -1.13,3.83 -2.67,7.54 -3.67,11.42 -2.26,6.5 8.15,11.08 12.19,6.29 2.49,-3.73 3.01,-8.34 5,-12.3 0.68,-0.29 2.03,-0.88 2.7,-1.17 -2.11,-0.59 -4.17,-1.33 -6.23,-2.05 0.81,0.64 1.63,1.29 2.44,1.94 -1.28,4.05 -2.4,8.2 -4.26,12.03 -2.07,4.51 -10.83,2.25 -9.6,-2.94 0.89,-4.07 2.23,-8.07 3.95,-11.87 0.7,-0.23 2.08,-0.71 2.78,-0.95 -2.5,-0.64 -4.94,-1.5 -7.38,-2.34 z m 77.99,5.19 c 0.58,0.11 1.74,0.34 2.32,0.45 2.73,4.47 4.08,9.65 6.19,14.44 -0.32,0.54 -0.96,1.63 -1.28,2.17 4.15,-1.72 8.31,-3.41 12.49,-5.05 -0.03,-1.71 -0.07,-3.41 -0.08,-5.11 -0.59,1.52 -1.14,3.07 -1.93,4.51 -1.97,1.42 -4.33,2.09 -6.56,2.96 -1.09,-2.53 -2.14,-5.07 -3.17,-7.61 2.67,-1.07 5.93,-3.01 8.16,-0.11 -0.88,-1.9 -1.63,-3.87 -2.22,-5.87 -0.33,3.29 -3.59,4.13 -6.17,5.27 -0.97,-2.33 -1.91,-4.67 -2.85,-7.01 2.34,-0.83 4.61,-2.2 7.14,-2.27 0.95,0.56 1.87,1.22 2.78,1.87 -0.67,-1.25 -1.32,-2.51 -1.97,-3.77 -4.29,1.68 -8.53,3.53 -12.85,5.13 z m -8.75,1.93 c 0.54,0.25 1.62,0.77 2.16,1.03 0.17,4.76 -1.7,9.37 -2.47,14.04 -2.66,-4.05 -5.43,-8.04 -7.86,-12.24 0.59,-0.44 1.77,-1.3 2.36,-1.74 -2.46,0.4 -4.93,0.75 -7.41,0.93 5.81,4.53 8.37,11.9 13,17.49 1.27,-5.22 2.27,-10.5 3.46,-15.74 0.35,-1.84 1.32,-3.45 2.42,-4.92 -1.88,0.44 -3.76,0.83 -5.66,1.15 z m -48.27,-0.22 c 0.93,0.76 1.83,1.55 2.7,2.39 0,5.07 -1.24,10.07 -1.86,15.1 -0.68,0.29 -2.04,0.87 -2.73,1.15 2.04,0.11 4.08,0.26 6.12,0.46 -0.48,-0.36 -1.43,-1.1 -1.91,-1.46 -0.06,-4.37 0.99,-8.67 1.6,-12.98 3.57,5.39 6.7,11.06 10.19,16.5 1.31,-5.58 1.44,-11.37 2.76,-16.93 0.57,-0.44 1.72,-1.32 2.29,-1.76 -2.11,-0.12 -4.21,-0.36 -6.3,-0.62 0.89,0.43 1.78,0.86 2.67,1.29 -0.37,4.32 -1.02,8.61 -1.64,12.89 -3.16,-5.08 -6.2,-10.23 -9.3,-15.34 -1.54,-0.23 -3.07,-0.46 -4.59,-0.69 z m 22.95,2.47 c 0.89,0.48 1.78,0.96 2.67,1.45 0.16,5.39 0.54,10.77 0.36,16.16 -0.75,0.2 -2.27,0.6 -3.03,0.8 2.75,0.06 5.5,0.04 8.25,0.23 -0.81,-0.6 -1.58,-1.24 -2.32,-1.91 -0.58,-5.18 -0.5,-10.41 -0.58,-15.62 0.57,-0.29 1.72,-0.88 2.29,-1.17 -2.55,0.05 -5.09,0.09 -7.64,0.06 z"
           id="path2" />
      </g>
      <path
         fill="#0f6a7b"
         d="m 103.213,39.63 c 0.71,0.05 2.13,0.13 2.84,0.18 -0.25,1.12 -0.5,2.24 -0.74,3.37 -0.69,-1.19 -1.4,-2.37 -2.1,-3.55 z"
         id="path3" />
      <g
         id="g4">
        <path
           fill="#0f6a7b"
           d="m 105.213,108.83 c 22.25,-10.06 44.37,-20.42 66.65,-30.43 10.57,19.48 15.57,41.95 13.85,64.07 -0.91,13.4 -4.38,26.55 -9.72,38.86 -28.9,0.13 -57.81,-0.01 -86.71,0.07 -2.51,0.11 -5.05,-0.35 -7.17,-1.75 -5.91,-3.7 -11.17,-9.25 -12.63,-16.27 6.42,-1.19 11.53,3.87 17.84,3.53 7.16,0.21 13.96,-3.5 18.34,-9.03 5.67,-6.32 5.81,-15.36 5.87,-23.37 0.16,-8.95 -2.27,-17.75 -6.32,-25.68 z m 40.18,2.22 c -0.13,3.5 -0.14,7.01 -0.13,10.51 -3.69,0.01 -7.39,0.04 -11.07,-0.14 2.69,-1.7 5.58,-3.04 8.59,-4.06 0.04,-1.96 0.06,-3.91 0.09,-5.87 -8.69,1.62 -16.21,7.3 -20.61,14.9 7.67,0.11 15.34,0.02 23.01,0.05 0,3.97 0,7.94 -0.01,11.9 -1.2,-0.02 -2.39,-0.04 -3.58,-0.07 0.02,-2.75 0.02,-5.51 0.03,-8.27 -7.07,0.03 -14.13,-0.08 -21.2,0.08 -0.38,1.6 -0.75,3.2 -1.13,4.8 5.81,-0.01 11.62,-0.01 17.43,-0.01 0.02,1.14 0.04,2.28 0.06,3.42 -6.03,0.05 -12.07,0.01 -18.11,0.03 -0.25,7.5 1.86,15.17 6.76,20.96 4.3,5.42 10.65,8.8 17.3,10.42 0,-2 0,-3.99 0,-5.98 -9.53,-2.44 -16.91,-10.75 -18.17,-20.51 4.06,-0.03 8.13,-0.03 12.2,-0.02 -0.02,0.82 -0.04,2.45 -0.05,3.27 -2.55,-0.02 -5.1,-0.02 -7.65,-0.02 0.77,1.65 1.55,3.3 2.34,4.94 4.6,0.09 9.2,0.05 13.8,0.06 -0.01,0.71 -0.05,2.12 -0.07,2.83 -3.72,-0.03 -7.44,-0.06 -11.16,0.07 3.14,2.89 7.04,4.76 11.2,5.64 -0.01,3.34 0.01,6.69 0.13,10.03 1.91,-0.01 3.81,-0.02 5.72,-0.04 0.03,-3.35 0.03,-6.69 0.06,-10.03 3.99,-0.97 7.76,-2.77 10.79,-5.58 -3.63,-0.14 -7.26,-0.11 -10.88,-0.14 0.03,-0.94 0.07,-1.86 0.11,-2.79 4.56,-0.16 9.19,0.42 13.71,-0.31 0.94,-1.44 1.64,-3.02 2.41,-4.56 -2.58,-0.09 -5.16,-0.13 -7.74,-0.14 0.01,-0.81 0.02,-2.43 0.03,-3.24 4.06,0.01 8.12,0 12.17,0.03 -1.27,9.79 -8.69,18.07 -18.22,20.56 0.02,1.96 0.03,3.93 0.06,5.9 7.41,-1.68 14.34,-5.86 18.66,-12.21 4.01,-5.51 5.51,-12.41 5.37,-19.14 -6.02,-0.01 -12.05,0.01 -18.08,-0.02 0.01,-1.14 0.02,-2.29 0.04,-3.43 5.83,0.01 11.66,0.01 17.49,0 -0.46,-1.63 -0.91,-3.25 -1.37,-4.87 -6.98,-0.01 -13.96,0.01 -20.94,0 -0.01,2.8 -0.02,5.6 -0.05,8.4 -1.21,-0.06 -2.42,-0.11 -3.62,-0.17 0.04,-3.93 0.04,-7.87 0.04,-11.8 7.66,-0.01 15.31,0.06 22.97,-0.03 -4.33,-7.67 -11.91,-13.14 -20.51,-14.99 -0.02,1.96 -0.04,3.93 -0.05,5.89 2.97,1.05 5.87,2.32 8.48,4.12 -3.63,0.2 -7.26,0.15 -10.89,0.14 -0.01,-3.48 0,-6.97 -0.03,-10.45 -1.91,-0.03 -3.82,-0.05 -5.73,-0.06 z"
           id="path4" />
      </g>
      <path
         fill="#0f6a7b"
         d="m 253.093,81.91 c 1.57,-1.23 3.18,-2.43 4.83,-3.57 0.92,0.96 1.85,1.92 2.78,2.89 -1.56,0.12 -3.47,-0.59 -4.53,0.95 -1.53,2.22 -4.27,1.53 -6.52,1.18 1.13,-0.5 2.28,-0.99 3.44,-1.45 z"
         id="path5" />
      <path
         fill="#0f6a7b"
         d="m 41.303,79.93 c 0.56,1.67 0.39,3.42 0,5.11 -2.16,-1.41 -1.07,-3.38 0,-5.11 z"
         id="path6" />
      <path
         fill="#0f6a7b"
         d="m 141.693,143.19 c 4.36,0 8.72,0 13.08,0 0,0.81 -0.01,2.44 -0.02,3.26 -4.33,-0.02 -8.67,-0.02 -13.01,0.01 -0.01,-0.82 -0.04,-2.45 -0.05,-3.27 z"
         id="path7" />
      <path
         fill="#0f6a7b"
         d="m 219.603,155.82 c 2.98,-1.54 6.21,-2.51 9.28,-3.82 -1.26,9.96 -4.32,20.33 -11.38,27.75 -5.24,3.21 -11.91,0.98 -17.72,1.63 2.56,-7.33 5.21,-14.63 7.7,-21.97 2.91,-0.86 5.81,-1.7 8.71,-2.56 -1.2,3.55 -2.68,7.02 -3.59,10.67 0.45,0.13 1.35,0.37 1.8,0.5 2.67,-3.6 2.73,-8.52 5.2,-12.2 z"
         id="path8" />
      <path
         fill="#0f6a7b"
         d="m 196.543,161.64 c 2.75,-0.52 5.5,-1.06 8.25,-1.61 -2.5,7.12 -5.01,14.23 -7.52,21.35 -2.31,0 -4.62,0 -6.93,0 -0.42,-1.75 -0.85,-3.48 -1.31,-5.21 -0.61,1.73 -1.2,3.47 -1.8,5.2 -2.64,0.01 -5.29,0.01 -7.94,0.01 2.61,-5.96 4.78,-12.12 6.48,-18.41 2.37,-0.26 4.74,-0.53 7.12,-0.81 0.42,2.05 0.83,4.1 1.23,6.16 0.82,-2.22 1.63,-4.45 2.42,-6.68 z"
         id="path9" />
      <path
         fill="#0f6a7b"
         d="m 115.033,199.74 c 0.6,-2.87 3.02,-4.68 5.55,-5.8 1.21,0.81 0.96,2.28 1.03,3.52 0,4.82 -0.06,9.64 -0.02,14.46 -0.52,0.05 -1.56,0.15 -2.08,0.2 -0.09,-5.08 -0.07,-10.16 -0.04,-15.24 -1.45,0.99 -2.92,1.97 -4.44,2.86 z"
         id="path10" />
      <g
         id="g11">
        <path
           fill="#0f6a7b"
           d="m 134.353,206.21 c -5.31,-1.23 -5.36,-10.53 0.05,-11.69 2.87,-0.81 6.69,-0.16 7.97,2.88 1.43,3.95 1.52,8.76 -0.75,12.42 -3.05,3.91 -10.22,2.73 -11.58,-2.24 2.95,-0.29 4.3,3.49 7.26,2.81 2.9,-0.23 3.27,-3.61 4.29,-5.7 -2.28,0.96 -4.7,2.24 -7.24,1.52 z m 0.43,-10 c -3.44,1.66 -2.69,8.51 1.53,8.53 4.32,0.6 5.66,-5.69 2.89,-8.1 -1.27,-0.91 -3,-0.93 -4.42,-0.43 z"
           id="path11" />
      </g>
      <g
         id="g12">
        <path
           fill="#0f6a7b"
           d="m 150.603,194.89 c 3.04,-1.35 7.39,-0.7 8.92,2.57 1.5,3.5 1.45,7.69 0.05,11.22 -2.21,5.14 -11.19,4.33 -12.16,-1.32 -0.91,-4.17 -1.08,-10.07 3.19,-12.47 z m 0.97,1.72 c -2.88,2.77 -2.43,7.56 -1.43,11.1 0.77,3.15 5.69,3.42 6.98,0.53 1.39,-2.99 1.27,-6.62 0.26,-9.72 -0.7,-2.44 -3.79,-3 -5.81,-1.91 z"
           id="path12" />
      </g>
      <g
         id="g13">
        <path
           fill="#0f6a7b"
           d="m 165.253,197.58 c 2.27,-5.07 11.4,-4.34 11.94,1.64 -2.51,-0.94 -4.49,-4.03 -7.45,-3.17 -2.41,0.53 -2.66,3.46 -3.67,5.28 2.81,-0.89 6.1,-2.33 8.83,-0.41 3.37,2.68 3,9.61 -1.57,10.84 -2.98,0.95 -7.01,0.23 -8.28,-2.96 -1.25,-3.56 -1.31,-7.72 0.2,-11.22 z m 3.54,4.49 c -2.15,1.27 -2.18,4.35 -1.4,6.44 1.64,3.42 7.89,2.12 7.44,-1.97 0.75,-3.44 -2.98,-6.26 -6.04,-4.47 z"
           id="path13" />
      </g>
      <path
         fill="#0f6a7b"
         d="m 59.713,231.77 c 2.52,-1.13 5.06,-2.21 7.61,-3.28 -0.96,2.56 -1.94,5.12 -2.93,7.67 -1.56,-1.46 -3.12,-2.93 -4.68,-4.39 z"
         id="path14" />
      <path
         fill="#0f6a7b"
         d="m 202.393,245.5 c 2.18,-1.24 5.34,-2.96 7.15,-0.18 2.23,2.7 -0.53,5.59 -2.48,7.38 -1.64,-2.35 -3.19,-4.76 -4.67,-7.2 z"
         id="path15" />
    </g>
  </g>
</svg>
