<?xml version="1.0" encoding="UTF-8" standalone="no"?>
<svg
   xmlns:dc="http://purl.org/dc/elements/1.1/"
   xmlns:cc="http://creativecommons.org/ns#"
   xmlns:rdf="http://www.w3.org/1999/02/22-rdf-syntax-ns#"
   xmlns:svg="http://www.w3.org/2000/svg"
   xmlns="http://www.w3.org/2000/svg"
   viewBox="0 0 266.66666 266.66666"
   height="266.66666"
   width="266.66666"
   xml:space="preserve"
   id="svg2"
   version="1.1"><metadata
     id="metadata8"><rdf:RDF><cc:Work
         rdf:about=""><dc:format>image/svg+xml</dc:format><dc:type
           rdf:resource="http://purl.org/dc/dcmitype/StillImage" /></cc:Work></rdf:RDF></metadata><defs
     id="defs6"><clipPath
       id="clipPath18"
       clipPathUnits="userSpaceOnUse"><path
         id="path16"
         d="M 0,200 H 200 V 0 H 0 Z" /></clipPath></defs><g
     transform="matrix(1.3333333,0,0,-1.3333333,0,266.66667)"
     id="g10"><g
       id="g12"><g
         clip-path="url(#clipPath18)"
         id="g14"><g
           transform="translate(119.996,76.756)"
           id="g20"><path
             id="path22"
             style="fill:#a22225;fill-opacity:1;fill-rule:nonzero;stroke:none"
             d="m 0,0 c 0,0 -0.873,-4.656 4.616,-4.656 h 16.52 V 8.591 L 0,8.591 Z m -35.208,-1.479 c 0,0 -0.531,-3.177 2.746,-3.177 h 14.366 c 4.752,0 4.02,3.072 4.02,3.072 V 8.591 H -35.208 Z M 21.136,36.199 H 0 V 22.957 h 21.136 z m -35.212,0 H -35.204 V 22.957 h 21.128 z m 12.391,-55.216 c 0,0 -6.196,0.281 -6.196,5.639 0,0 -0.566,-5.358 -10.425,-5.358 h -24.23 c 0,0 -8.17,-0.847 -8.17,10.425 v 63.347 c 0,0 -1.089,8.771 7.327,8.771 9.294,0 63.669,-0.281 63.669,-0.281 L 8.741,76.483 h -59.724 c 0,0 -11.83,0.211 -11.83,-12.957 v -82.824 c 0,0 0.558,-12.961 16.051,-12.961 h 28.35 c 1.409,0 4.05,0.566 4.897,3.664 0,0 0.838,-3.664 6.477,-3.664 H 9.868 l 11.268,13.242 z" /></g><g
           transform="translate(100,3.2341)"
           id="g24"><path
             id="path26"
             style="fill:#a22225;fill-opacity:1;fill-rule:nonzero;stroke:none"
             d="m 0,0 c -53.357,0 -96.771,43.408 -96.771,96.764 0,53.355 43.414,96.772 96.771,96.772 53.357,0 96.766,-43.417 96.766,-96.772 C 96.766,70.915 86.705,46.62 68.429,28.336 50.154,10.065 25.849,0 0,0 m 0,196.766 c -55.138,0 -100,-44.861 -100,-100.002 0,-55.137 44.862,-99.998 100,-99.998 26.709,0 51.825,10.404 70.711,29.289 C 89.601,44.939 100,70.06 100,96.764 100,151.905 55.138,196.766 0,196.766" /></g><g
           transform="translate(100,173.9454)"
           id="g28"><path
             id="path30"
             style="fill:#a22225;fill-opacity:1;fill-rule:nonzero;stroke:none"
             d="m 0,0 c -40.777,0 -73.949,-33.172 -73.949,-73.948 0,-40.775 33.172,-73.947 73.949,-73.947 40.772,0 73.953,33.172 73.953,73.947 C 73.953,-33.172 40.772,0 0,0 m 72.26,-73.948 c 0,-39.841 -32.418,-72.258 -72.26,-72.258 -39.846,0 -72.26,32.417 -72.26,72.258 0,39.842 32.414,72.263 72.26,72.263 39.842,0 72.26,-32.421 72.26,-72.263" /></g><g
           transform="translate(24.9324,79.1781)"
           id="g32"><path
             id="path34"
             style="fill:#a22225;fill-opacity:1;fill-rule:nonzero;stroke:none"
             d="m 0,0 -7.091,-2.413 c -0.654,-0.229 -1.654,-0.571 -3.01,-1.032 l 11.264,0.036 0.561,-1.637 -8.964,-6.793 0.022,-0.07 c 0.478,0.167 1.193,0.43 2.141,0.803 0.478,0.163 0.768,0.264 0.856,0.294 l 7.082,2.414 0.557,-1.641 -12.005,-4.09 -0.803,2.365 8.982,6.942 -11.33,-0.062 -0.807,2.37 12.005,4.089 z" /></g><g
           transform="translate(23.3107,87.0672)"
           id="g36"><path
             id="path38"
             style="fill:#a22225;fill-opacity:1;fill-rule:nonzero;stroke:none"
             d="m 0,0 0.307,-1.707 -12.483,-2.238 -0.308,1.707 z" /></g><g
           transform="translate(9.4998,99.8752)"
           id="g40"><path
             id="path42"
             style="fill:#a22225;fill-opacity:1;fill-rule:nonzero;stroke:none"
             d="M 0,0 -0.066,1.659 12.615,2.137 12.69,0.202 2.681,-6.63 V -6.705 L 12.931,-6.31 12.997,-7.973 0.325,-8.455 0.241,-6.38 10.254,0.382 Z" /></g><g
           transform="translate(23.6169,115.4124)"
           id="g44"><path
             id="path46"
             style="fill:#a22225;fill-opacity:1;fill-rule:nonzero;stroke:none"
             d="m 0,0 -1.325,-9.894 -1.382,0.179 -8.728,9.004 -0.956,-7.143 -1.44,0.193 1.255,9.346 1.44,-0.193 8.578,-9.057 1.044,7.767 z" /></g><g
           transform="translate(15.3251,132.2263)"
           id="g48"><path
             id="path50"
             style="fill:#a22225;fill-opacity:1;fill-rule:nonzero;stroke:none"
             d="m 0,0 7.797,-2.475 c 1.396,-0.487 2.396,-1.321 2.997,-2.479 0.452,-1.014 0.43,-2.317 -0.074,-3.896 -0.426,-1.321 -1.08,-2.308 -1.953,-2.945 -1.093,-0.68 -2.334,-0.794 -3.743,-0.346 l -8.065,2.562 0.527,1.65 7.595,-2.409 c 2.22,-0.658 3.664,0 4.331,1.97 0.645,2.168 -0.132,3.607 -2.334,4.305 l -7.605,2.413 z" /></g><g
           transform="translate(32.7249,160.6593)"
           id="g52"><path
             id="path54"
             style="fill:#a22225;fill-opacity:1;fill-rule:nonzero;stroke:none"
             d="m 0,0 6.371,-5.134 c 1.128,-0.97 1.755,-2.097 1.896,-3.4 0.052,-1.111 -0.443,-2.317 -1.488,-3.611 -0.864,-1.08 -1.829,-1.756 -2.891,-2.041 -1.255,-0.228 -2.458,0.114 -3.612,1.044 l -6.586,5.314 1.093,1.347 6.204,-5.002 c 1.834,-1.417 3.414,-1.325 4.761,0.259 1.382,1.794 1.176,3.418 -0.619,4.866 l -6.213,5.006 z" /></g><g
           transform="translate(43.8122,170.9443)"
           id="g56"><path
             id="path58"
             style="fill:#a22225;fill-opacity:1;fill-rule:nonzero;stroke:none"
             d="m 0,0 1.268,1.084 8.245,-9.645 -1.474,-1.259 -11.576,3.607 -0.052,-0.048 6.674,-7.802 -1.264,-1.075 -8.249,9.636 1.579,1.356 11.523,-3.656 z" /></g><g
           transform="translate(58.8763,165.9946)"
           id="g60"><path
             id="path62"
             style="fill:#a22225;fill-opacity:1;fill-rule:nonzero;stroke:none"
             d="m 0,0 -1.461,-0.935 -6.845,10.689 1.465,0.939 z" /></g><g
           transform="translate(65.1777,183.5546)"
           id="g64"><path
             id="path66"
             style="fill:#a22225;fill-opacity:1;fill-rule:nonzero;stroke:none"
             d="m 0,0 1.76,0.82 1.149,-13.457 -1.702,-0.785 -9.566,9.53 1.76,0.825 7.832,-8.28 z" /></g><g
           transform="translate(84.7065,176.4156)"
           id="g68"><path
             id="path70"
             style="fill:#a22225;fill-opacity:1;fill-rule:nonzero;stroke:none"
             d="m 0,0 -9.043,-2.422 -3.278,12.255 8.916,2.387 0.373,-1.413 -7.231,-1.931 1.013,-3.817 6.696,1.79 0.4,-1.47 -6.701,-1.794 1.093,-4.085 7.371,1.965 z" /></g><g
           transform="translate(89.9689,184.1513)"
           id="g72"><path
             id="path74"
             style="fill:#a22225;fill-opacity:1;fill-rule:nonzero;stroke:none"
             d="M 0,0 4.01,0.325 C 5.717,0.465 6.507,1.268 6.389,2.742 6.275,4.177 5.459,4.826 3.936,4.704 L -0.351,4.352 Z M 0.557,-6.907 -1.172,-7.047 -2.19,5.594 3.686,6.073 C 4.971,6.178 5.963,6.024 6.643,5.616 7.556,5.226 8.065,4.366 8.175,3.023 8.289,1.645 7.767,0.579 6.621,-0.163 7.661,-0.351 8.232,-1.119 8.341,-2.457 L 8.662,-4.73 C 8.67,-5.371 8.907,-5.775 9.381,-5.919 L 9.403,-6.191 7.266,-6.367 C 7.073,-5.779 6.898,-4.73 6.735,-3.216 6.661,-1.689 5.831,-0.987 4.261,-1.115 L 0.118,-1.448 Z" /></g><g
           transform="translate(111.5674,186.0469)"
           id="g76"><path
             id="path78"
             style="fill:#a22225;fill-opacity:1;fill-rule:nonzero;stroke:none"
             d="M 0,0 C 0.061,1.619 -0.913,2.571 -2.927,2.861 -4.818,3.006 -5.836,2.356 -5.972,0.921 -6.06,0.004 -5.608,-0.57 -4.607,-0.812 l 3.51,-1.171 C 0.737,-2.629 1.58,-3.87 1.395,-5.709 1.272,-6.999 0.72,-7.894 -0.263,-8.407 c -1.058,-0.452 -2.282,-0.614 -3.669,-0.478 -1.79,0.175 -3.023,0.666 -3.685,1.474 -0.856,0.781 -1.19,1.878 -1.005,3.3 l 1.654,-0.163 c -0.14,-1.935 0.913,-3.032 3.168,-3.299 2.212,-0.172 3.405,0.434 3.585,1.812 0.061,0.64 -0.07,1.145 -0.408,1.505 -0.338,0.355 -1.049,0.702 -2.133,1.04 l -2.562,0.807 c -1.751,0.68 -2.545,1.777 -2.405,3.299 0.185,1.326 0.786,2.291 1.813,2.888 0.745,0.487 1.746,0.671 2.983,0.548 C 0.25,4.019 1.751,2.523 1.584,-0.158 Z" /></g><g
           transform="translate(118.6336,175.4987)"
           id="g80"><path
             id="path82"
             style="fill:#a22225;fill-opacity:1;fill-rule:nonzero;stroke:none"
             d="m 0,0 -1.685,0.395 2.887,12.356 1.681,-0.4 z" /></g><g
           transform="translate(126.9122,186.5078)"
           id="g84"><path
             id="path86"
             style="fill:#a22225;fill-opacity:1;fill-rule:nonzero;stroke:none"
             d="M 0,0 9.601,-3.594 9.096,-4.954 5.068,-3.453 1.141,-13.971 -0.417,-13.387 3.51,-2.87 -0.509,-1.365 Z" /></g><g
           transform="translate(139.7802,166.8198)"
           id="g88"><path
             id="path90"
             style="fill:#a22225;fill-opacity:1;fill-rule:nonzero;stroke:none"
             d="M 0,0 -1.496,0.869 1.079,5.305 0.742,14.243 2.475,13.234 2.527,6.152 8.771,9.574 10.509,8.569 2.576,4.436 Z" /></g><g
           transform="translate(169.7604,155.7844)"
           id="g92"><path
             id="path94"
             style="fill:#a22225;fill-opacity:1;fill-rule:nonzero;stroke:none"
             d="m 0,0 c -1.869,2.115 -4.16,2.172 -6.88,0.171 -2.479,-2.159 -2.892,-4.379 -1.233,-6.669 1.878,-2.054 4.138,-2.137 6.779,-0.259 C 1.15,-4.533 1.597,-2.277 0,0 m -4.928,-9.807 c -1.632,0.11 -3.054,0.926 -4.269,2.44 -1.299,1.623 -1.786,3.273 -1.479,4.949 0.443,1.532 1.321,2.866 2.664,3.998 1.764,1.351 3.589,1.921 5.463,1.715 C -1.154,3.041 0.075,2.246 1.141,0.912 2.33,-0.566 2.799,-2.115 2.554,-3.73 2.137,-5.428 1.202,-6.889 -0.255,-8.109 c -1.5,-1.145 -3.067,-1.72 -4.673,-1.698" /></g><g
           transform="translate(167.4169,138.808)"
           id="g96"><path
             id="path98"
             style="fill:#a22225;fill-opacity:1;fill-rule:nonzero;stroke:none"
             d="m 0,0 -0.825,1.522 11.158,6.043 4.2,-7.75 L 13.247,-0.873 9.877,5.344 6.402,3.462 9.377,-2.027 8.034,-2.751 5.059,2.738 Z" /></g><g
           transform="translate(185.3172,115.9521)"
           id="g100"><path
             id="path102"
             style="fill:#a22225;fill-opacity:1;fill-rule:nonzero;stroke:none"
             d="M 0,0 C 1.571,0.794 2.159,2.137 1.768,4.041 1.022,6.617 -0.961,7.586 -4.177,6.928 -7.6,6.13 -8.986,4.357 -8.35,1.615 c 0.487,-1.883 1.913,-2.791 4.265,-2.712 l 0.382,-1.624 C -6.933,-2.949 -8.956,-1.496 -9.781,1.637 -10.14,3.4 -9.882,4.932 -9,6.235 -7.99,7.411 -6.542,8.223 -4.656,8.67 -2.628,9.144 -0.873,8.955 0.605,8.108 1.926,7.332 2.782,6.077 3.186,4.374 3.778,1.426 2.848,-0.575 0.382,-1.624 Z" /></g><g
           transform="translate(190.498,100.6607)"
           id="g104"><path
             id="path106"
             style="fill:#a22225;fill-opacity:1;fill-rule:nonzero;stroke:none"
             d="m 0,0 0.079,-1.733 -12.681,-0.549 -0.079,1.734 5.893,0.258 -0.285,6.648 -5.898,-0.255 -0.07,1.729 12.677,0.553 0.079,-1.733 -5.2,-0.228 0.29,-6.652 z" /></g><g
           transform="translate(177.3194,91.7753)"
           id="g108"><path
             id="path110"
             style="fill:#a22225;fill-opacity:1;fill-rule:nonzero;stroke:none"
             d="M 0,0 0.162,1.733 12.795,0.544 12.637,-1.185 Z" /></g><g
           transform="translate(187.2093,75.7643)"
           id="g112"><path
             id="path114"
             style="fill:#a22225;fill-opacity:1;fill-rule:nonzero;stroke:none"
             d="m 0,0 -0.382,-1.624 -12.343,2.918 0.443,1.896 11.47,3.909 0.018,0.066 -9.983,2.37 0.382,1.614 L 1.948,8.227 1.47,6.209 -9.978,2.36 Z" /></g><g
           transform="translate(175.2049,64.9001)"
           id="g116"><path
             id="path118"
             style="fill:#a22225;fill-opacity:1;fill-rule:nonzero;stroke:none"
             d="M 0,0 5.897,-0.548 5.924,-0.478 1.588,3.62 Z M 0.417,4.743 -2.422,7.424 -1.724,9.008 7.973,-0.47 7.192,-2.251 -6.27,-1.343 -5.516,0.373 -1.65,0.044 Z" /></g><g
           transform="translate(45.7964,32.5972)"
           id="g120"><path
             id="path122"
             style="fill:#a22225;fill-opacity:1;fill-rule:nonzero;stroke:none"
             d="M 0,0 2.874,3.106 -0.18,5.932 -3.054,2.83 Z m -4.405,9.837 -2.87,-3.106 3.102,-2.874 2.874,3.106 z M 2.348,5.292 C 3.366,4.348 4.296,3.554 5.138,2.9 4.283,2.115 3.497,1.364 2.773,0.645 L 1.501,-0.728 C 0.557,-1.812 -0.031,-2.55 -0.272,-2.953 l -1.373,1.272 c 0.307,0.272 0.579,0.531 0.803,0.764 L -3.896,1.909 -6.068,-0.43 c -0.808,-0.948 -1.374,-1.624 -1.685,-2.036 l -1.269,1.185 c 0.286,0.237 0.9,0.864 1.839,1.886 l 2.163,2.339 -3.102,2.87 C -8.346,5.577 -8.6,5.252 -8.916,4.853 l -1.325,1.22 c 0.443,0.346 1.184,1.048 2.224,2.101 l 1.264,1.374 c 0.913,1.048 1.584,1.873 2.014,2.483 0.347,-0.443 1.163,-1.263 2.453,-2.453 l 1.834,-1.702 c 1.185,1.29 1.944,2.176 2.251,2.641 C 2.725,9.539 3.15,9.017 3.085,8.951 3.054,8.916 2.988,8.876 2.892,8.846 2.606,8.732 2.383,8.596 2.22,8.424 1.874,8.117 1.61,7.863 1.422,7.661 1.294,7.521 1.044,7.253 0.667,6.849 Z" /></g><g
           transform="translate(66.9899,20.6406)"
           id="g124"><path
             id="path126"
             style="fill:#a22225;fill-opacity:1;fill-rule:nonzero;stroke:none"
             d="m 0,0 1.698,3.646 -3.019,1.4 C -2.102,3.37 -2.729,2.185 -3.203,1.492 Z m -7.354,3.413 2.896,-1.338 c 0.311,0.465 0.671,1.062 1.062,1.799 0.386,0.729 0.662,1.326 0.816,1.76 l -3.085,1.43 z M 0.461,5.599 C 1.865,5.002 2.957,4.546 3.73,4.23 3.335,3.602 2.782,2.584 2.08,1.176 L 1.259,-0.584 1.448,-0.671 C 2.036,-0.943 2.681,-1.194 3.392,-1.426 L 2.747,-2.813 C 2.163,-2.427 1.566,-2.102 0.983,-1.83 l -4.09,1.9 c 0.027,-2.922 1.571,-5.191 4.634,-6.814 -0.781,-0.149 -1.444,-0.531 -1.983,-1.15 -2.923,2.378 -4.134,5.081 -3.647,8.122 -2.128,-1.966 -5.076,-2.769 -8.828,-2.396 -0.083,0.698 -0.325,1.396 -0.711,2.084 3.177,-1.066 5.968,-0.684 8.407,1.146 l -4.155,1.93 c -0.904,0.369 -1.575,0.601 -2.036,0.716 l 0.667,1.443 c 0.72,-0.434 1.373,-0.785 1.961,-1.062 l 0.185,-0.087 0.934,2.009 c 0.43,0.93 0.838,1.909 1.216,2.953 0.614,-0.333 1.579,-0.829 2.9,-1.496 l 1.571,-0.733 c 0.487,1.049 0.851,2.001 1.097,2.857 C 0.219,9.021 0.785,8.657 0.812,8.495 0.79,8.446 0.742,8.403 0.663,8.332 0.404,8.095 0.211,7.854 0.092,7.604 -0.022,7.45 -0.171,7.191 -0.347,6.814 -0.505,6.582 -0.632,6.362 -0.728,6.152 Z" /></g><g
           transform="translate(83.5024,22.3299)"
           id="g128"><path
             id="path130"
             style="fill:#a22225;fill-opacity:1;fill-rule:nonzero;stroke:none"
             d="M 0,0 -0.285,-2.339 8.442,-3.44 8.736,-1.097 Z M -0.443,-3.576 -0.72,-5.779 3.677,-6.327 c -0.044,0.702 -0.044,1.448 0.004,2.233 z M 9.952,-3.137 C 9.86,-3.87 9.82,-4.498 9.855,-5.015 9.592,-4.888 8.978,-4.761 8.017,-4.642 L 5.125,-4.283 C 5.042,-4.919 5.02,-5.665 5.055,-6.503 l 2.883,-0.364 c 1.61,-0.202 2.553,-0.294 2.834,-0.285 l -0.188,-1.514 c -0.22,0.123 -1.111,0.281 -2.668,0.474 L 5.165,-7.85 c 0.482,-2.431 1.684,-4.168 3.606,-5.2 0.229,-0.026 0.501,0.659 0.821,2.063 l 0.057,-0.079 c 0.215,-0.536 0.667,-1.014 1.351,-1.426 -0.653,-1.505 -1.193,-2.273 -1.614,-2.313 -3.173,1.054 -5.038,3.432 -5.599,7.135 l -4.673,0.588 -0.527,-4.199 0.728,0.259 c 1.321,0.487 2.225,0.838 2.721,1.057 l -0.009,-1.676 c -2.11,-0.478 -3.835,-1.097 -5.191,-1.856 l -0.711,1.549 c 0.593,0.246 0.935,0.584 1.032,0.996 l 0.974,7.762 0.338,2.62 c 0.087,0.728 0.153,1.421 0.188,2.071 C -1.172,1.382 -0.47,1.246 0.772,1.092 L 8.473,0.118 c 1.009,-0.127 1.676,-0.162 2.01,-0.114 -0.154,-0.487 -0.272,-1.062 -0.351,-1.702 z" /></g><g
           transform="translate(117.4335,18.8503)"
           id="g132"><path
             id="path134"
             style="fill:#a22225;fill-opacity:1;fill-rule:nonzero;stroke:none"
             d="M 0,0 C 0.829,0.114 1.426,0.219 1.777,0.32 L 1.948,-0.922 C 1.58,-0.926 0.979,-0.987 0.154,-1.097 l -1.163,-0.167 c 0.07,-0.829 0.114,-1.522 0.149,-2.075 l 1.926,0.263 c 0.825,0.114 1.457,0.228 1.909,0.334 L 3.15,-3.971 C 2.685,-3.993 2.014,-4.063 1.15,-4.177 L -0.294,-4.388 C 0.61,-6.169 2.115,-7.315 4.247,-7.81 L 4.107,-7.828 C 3.585,-8.135 3.212,-8.583 2.962,-9.171 0.86,-8.118 -0.47,-6.81 -1.009,-5.252 -1.33,-7.35 -2.387,-9.083 -4.204,-10.456 c -0.381,0.368 -0.833,0.627 -1.373,0.785 l -0.145,0.053 c 2.137,1.088 3.304,2.747 3.506,4.967 L -3.181,-4.787 C -4.186,-4.923 -4.866,-5.042 -5.23,-5.138 l -0.172,1.228 c 0.378,0.009 1.036,0.079 2.006,0.215 l 1.294,0.18 c -0.079,0.97 -0.136,1.659 -0.145,2.08 L -3.48,-1.606 C -3.76,-2.255 -4.033,-2.83 -4.287,-3.33 l -1.312,0.381 c 0.895,1.238 1.452,2.58 1.672,4.011 C -2.892,1.018 -2.369,0.948 -2.356,0.86 -2.352,0.816 -2.387,0.737 -2.466,0.636 -2.712,0.364 -2.918,0.009 -3.089,-0.43 Z M 0.035,3.291 C 0.948,3.418 1.54,3.519 1.812,3.611 L 1.874,3.624 2.049,2.382 1.913,2.365 C 1.492,2.352 0.917,2.299 0.184,2.198 L -4.625,1.522 C -5.147,0.281 -5.559,-0.614 -5.853,-1.172 l -1.378,0.369 c 1.242,1.435 1.944,3.379 2.123,5.831 C -4.024,4.945 -3.427,4.862 -3.326,4.787 -3.308,4.69 -3.344,4.594 -3.423,4.488 -3.747,4.116 -4.015,3.519 -4.221,2.698 Z M -9.772,1.294 c -0.325,0.702 -0.755,1.404 -1.277,2.133 l 1.176,0.654 C -9.544,3.703 -9.096,2.997 -8.53,1.957 Z M -6.49,0.421 C -6.867,0.417 -7.416,0.364 -8.153,0.259 l -1.509,-0.211 0.276,-1.992 1.58,0.22 c 0.597,0.083 1.092,0.179 1.501,0.28 0.013,-0.79 0.118,-2.009 0.302,-3.668 0.154,-1.426 0.246,-2.466 0.294,-3.111 0.11,-0.728 -0.658,-1.299 -2.281,-1.72 -0.097,0.369 -0.259,0.742 -0.505,1.123 -0.11,0.123 -0.171,0.215 -0.175,0.255 0.886,-0.013 1.382,0.149 1.474,0.491 0.167,0.119 0.123,1.273 -0.132,3.475 -0.066,0.742 -0.118,1.317 -0.18,1.729 l -1.781,-0.245 c 0.206,-2.822 -0.18,-5.415 -1.154,-7.793 -0.268,0.245 -0.65,0.491 -1.154,0.75 -0.097,0.031 -0.176,0.066 -0.224,0.11 1.36,1.957 1.667,5.265 0.921,9.925 -1.096,-0.154 -1.781,-0.272 -2.053,-0.36 l -0.171,1.238 c 0.377,0.004 0.948,0.061 1.729,0.171 l 3.019,0.425 1.711,0.303 z" /></g><g
           transform="translate(136.0263,26.2086)"
           id="g136"><path
             id="path138"
             style="fill:#a22225;fill-opacity:1;fill-rule:nonzero;stroke:none"
             d="M 0,0 2.962,1.365 C 4.471,2.058 5.454,2.589 5.897,2.944 L 6.652,1.303 C 6.007,1.163 4.971,0.759 3.541,0.101 L 0.829,-1.141 C 3.366,-4.66 6.608,-6.016 10.566,-5.213 10.075,-5.691 9.759,-6.446 9.618,-7.481 5.599,-7.139 2.703,-5.7 0.921,-3.164 c 1.045,-3.383 0.119,-6.66 -2.799,-9.833 -0.592,0.29 -1.312,0.47 -2.159,0.536 3.55,2.795 4.621,6.322 3.225,10.565 l -3.392,-1.562 c -1.219,-0.561 -2.031,-1.013 -2.435,-1.351 l -0.759,1.641 c 0.566,0.105 1.457,0.439 2.672,0.992 l 3.401,1.566 -1.268,2.773 C -2.848,2.707 -3.107,3.15 -3.361,3.488 -3.383,3.532 -3.396,3.576 -3.418,3.62 -2.304,4.181 -1.645,4.409 -1.448,4.3 -1.4,4.212 -1.387,4.072 -1.391,3.861 -1.43,3.387 -1.312,2.852 -1.04,2.273 Z" /></g><g
           transform="translate(159.5621,39.9028)"
           id="g140"><path
             id="path142"
             style="fill:#a22225;fill-opacity:1;fill-rule:nonzero;stroke:none"
             d="m 0,0 c 0.206,0.184 0.487,0.469 0.829,0.838 0.18,0.153 0.277,0.246 0.316,0.281 L 2.203,-0.075 C 1.781,-0.575 1.224,-1.54 0.518,-2.975 0.369,-3.295 0.254,-3.515 0.189,-3.642 l 0.456,-0.518 2.843,2.541 c 0.694,0.614 1.317,1.233 1.874,1.856 0.101,0.092 0.175,0.149 0.211,0.18 L 6.63,-0.772 C 6.599,-0.803 6.525,-0.864 6.428,-0.952 5.744,-1.439 5.09,-1.957 4.471,-2.514 L 1.466,-5.186 3.269,-7.205 c 0.404,-0.452 0.54,-0.882 0.412,-1.294 -0.149,-0.386 -0.64,-0.983 -1.474,-1.791 -0.562,0.426 -1.123,0.672 -1.672,0.738 0.746,0.548 1.181,0.934 1.29,1.149 0.18,0.22 0.185,0.417 0.031,0.593 l -1.47,1.658 -3.576,-3.185 c -0.408,-0.369 -0.913,-0.882 -1.501,-1.54 -0.18,-0.15 -0.28,-0.242 -0.316,-0.272 l -1.061,1.184 c 0.03,0.04 0.158,0.145 0.364,0.329 0.75,0.549 1.299,0.974 1.636,1.281 l 3.572,3.182 -0.825,0.934 c 0.373,0.83 0.851,1.746 1.435,2.764 l -3.519,-3.137 c -0.588,-0.522 -1.163,-1.101 -1.72,-1.72 l -0.158,-0.136 -0.965,1.084 c 0.03,0.026 0.105,0.097 0.206,0.184 0.649,0.452 1.268,0.944 1.847,1.466 z M -5.52,0.469 C -6.121,0.86 -6.942,1.334 -7.999,1.882 l 1.005,1.176 c 0.39,-0.088 1.202,-0.513 2.431,-1.272 z m 5.147,3.287 C 0.386,4.431 0.838,4.892 0.983,5.151 1.071,4.98 1.439,4.537 2.084,3.813 2.269,3.602 2.558,3.308 2.966,2.927 3.12,2.751 3.208,2.65 3.243,2.611 L 2.054,1.558 C 1.996,1.685 1.874,1.86 1.689,2.066 1.566,2.202 1.259,2.549 0.768,3.102 l -8.951,-7.986 c 0.583,-0.649 0.934,-1.049 1.061,-1.185 0.18,-0.206 0.308,-0.306 0.373,-0.32 L -7.99,-7.49 c -0.035,0.039 -0.088,0.105 -0.185,0.206 -0.267,0.439 -0.557,0.834 -0.868,1.176 -0.61,0.693 -1.032,1.123 -1.242,1.303 0.298,0.141 0.79,0.492 1.478,1.044 l 5.898,5.253 c -0.119,1.386 -0.492,2.812 -1.128,4.287 1.071,0.465 1.707,0.658 1.9,0.579 C -2.111,6.327 -2.115,6.257 -2.15,6.165 -2.26,5.871 -2.295,5.634 -2.242,5.436 -2.163,4.51 -2.023,3.523 -1.825,2.461 Z m -7.468,-6.104 c -0.992,0.351 -1.905,0.536 -2.716,0.549 l 0.618,1.391 c 0.619,-0.005 1.554,-0.189 2.813,-0.557 z" /></g></g></g></g></svg>