<?xml version="1.0" encoding="UTF-8" standalone="no"?>
<!-- Created with Inkscape (http://www.inkscape.org/) -->

<svg
   width="83.534836mm"
   height="83.534836mm"
   viewBox="0 0 83.534836 83.534836"
   version="1.1"
   id="svg1"
   xmlns="http://www.w3.org/2000/svg"
   xmlns:svg="http://www.w3.org/2000/svg">
  <defs
     id="defs1" />
  <g
     id="layer1"
     transform="translate(-41.306457,-93.429377)">
    <g
       id="g57"
       transform="matrix(1.8175551,0,0,1.8175551,41.306457,93.429377)">
      <path
         class="cls-2"
         d="M 39.24,6.73 C 35.08,2.57 29.33,0 22.98,0 16.63,0 10.89,2.57 6.73,6.73 2.57,10.89 0,16.64 0,22.98 c 0,6.35 2.57,12.09 6.73,16.25 4.16,4.16 9.91,6.73 16.25,6.73 6.35,0 12.09,-2.57 16.25,-6.73 4.16,-4.16 6.73,-9.91 6.73,-16.25 0,-6.35 -2.57,-12.09 -6.73,-16.25 z M 38.4,38.4 C 34.46,42.34 29.01,44.78 22.99,44.78 16.97,44.78 11.52,42.34 7.58,38.4 3.64,34.46 1.2,29.01 1.2,22.99 1.2,16.97 3.64,11.52 7.58,7.58 11.52,3.64 16.97,1.2 22.99,1.2 c 6.02,0 11.47,2.44 15.41,6.38 3.94,3.94 6.38,9.39 6.38,15.41 0,6.02 -2.44,11.47 -6.38,15.41 z"
         id="path29"
         style="fill:#d12920" />
      <path
         class="cls-2"
         d="M 33.23,12.74 C 30.61,10.12 26.98,8.5 22.98,8.5 c -4,0 -7.63,1.62 -10.25,4.24 -2.62,2.62 -4.24,6.25 -4.24,10.25 0,4 1.62,7.63 4.24,10.25 2.62,2.62 6.25,4.24 10.25,4.24 4,0 7.63,-1.62 10.25,-4.24 2.62,-2.62 4.24,-6.25 4.24,-10.25 0,-4 -1.62,-7.63 -4.24,-10.25 z M 32.7,32.71 c -2.49,2.49 -5.92,4.03 -9.72,4.03 -3.8,0 -7.23,-1.54 -9.72,-4.03 -2.49,-2.49 -4.03,-5.92 -4.03,-9.72 0,-3.8 1.54,-7.23 4.03,-9.72 2.49,-2.49 5.92,-4.03 9.72,-4.03 3.8,0 7.23,1.54 9.72,4.03 2.49,2.49 4.03,5.92 4.03,9.72 0,3.8 -1.54,7.23 -4.03,9.72 z"
         id="path30"
         style="fill:#d12920" />
      <g
         id="g41">
        <polygon
           class="cls-2"
           points="38.9,29.24 39.15,28.35 39.17,28.36 42.01,29.16 42.14,28.7 39.28,27.9 39.53,27.01 39.14,26.9 38.52,29.13 "
           id="polygon30"
           style="fill:#d12920" />
        <path
           class="cls-2"
           d="m 5.54,27.04 c -0.57,0.08 -1,0.15 -1.42,0.24 H 4.1 c 0,0 -0.02,-0.04 -0.02,-0.04 H 4.1 C 4.44,27.03 4.8,26.79 5.14,26.53 L 6.58,25.44 6.51,24.92 3.17,25.37 3.23,25.8 4.47,25.63 C 5.1,25.55 5.52,25.48 5.92,25.4 h 0.02 c 0,0 0.02,0.05 0.02,0.05 H 5.94 c -0.32,0.19 -0.66,0.42 -1.07,0.72 l -1.45,1.09 0.06,0.48 3.34,-0.45 -0.06,-0.43 -1.23,0.16 z"
           id="path31"
           style="fill:#d12920" />
        <rect
           class="cls-2"
           x="4.1100001"
           y="29.17"
           width="3.3699999"
           height="0.47"
           transform="rotate(-17.35,5.810627,29.390156)"
           id="rect31"
           style="fill:#d12920" />
        <path
           class="cls-2"
           d="M 7.85,32.63 C 7.34,32.89 6.96,33.1 6.59,33.33 H 6.58 c 0,0 -0.04,-0.03 -0.04,-0.03 v -0.02 c 0.27,-0.3 0.53,-0.64 0.77,-1 l 1,-1.5 -0.24,-0.47 -3,1.53 0.2,0.39 1.12,-0.57 c 0.57,-0.29 0.94,-0.49 1.3,-0.7 h 0.02 c 0,0 0.04,0.03 0.04,0.03 H 7.74 C 7.5,31.28 7.25,31.61 6.97,32.03 l -1.01,1.51 0.22,0.43 3,-1.53 -0.2,-0.39 -1.1,0.56 z"
           id="path32"
           style="fill:#d12920" />
        <path
           class="cls-2"
           d="m 10.64,34.8 c 0.21,0.26 0.3,0.46 0.34,0.59 l 0.36,-0.17 C 11.29,35.03 11.14,34.78 10.94,34.54 10.58,34.11 10.15,33.89 9.69,33.87 9.28,33.85 8.86,34.01 8.47,34.33 7.28,35.32 7.9,36.32 8.22,36.7 8.47,37 8.77,37.22 8.97,37.33 L 10.26,36.25 9.58,35.44 9.29,35.68 9.67,36.14 8.9,36.79 H 8.89 C 8.8,36.75 8.67,36.63 8.53,36.47 8.31,36.2 8.21,35.9 8.25,35.6 c 0.04,-0.32 0.24,-0.62 0.56,-0.9 0.31,-0.26 0.64,-0.39 0.95,-0.38 0.01,0 0.03,0 0.04,0 0.31,0.02 0.6,0.18 0.83,0.46 z"
           id="path33"
           style="fill:#d12920" />
        <path
           class="cls-2"
           d="m 13.03,36.43 c -0.21,-0.18 -0.45,-0.35 -0.64,-0.45 l -2.15,2.53 c 0.15,0.16 0.3,0.31 0.48,0.45 0.42,0.35 0.75,0.51 1.06,0.5 0,0 0.02,0 0.02,0 0.26,-0.01 0.48,-0.12 0.65,-0.33 0.32,-0.37 0.22,-0.79 0.03,-1.06 h -0.01 c 0,0 0.03,-0.05 0.03,-0.05 h 0.01 c 0.34,0.13 0.68,0.06 0.89,-0.19 0.47,-0.55 -0.03,-1.12 -0.38,-1.41 z m -0.94,2.38 c -0.12,0.15 -0.27,0.22 -0.44,0.23 -0.18,0 -0.39,-0.08 -0.59,-0.25 -0.11,-0.1 -0.18,-0.16 -0.23,-0.22 h -0.01 c 0,0 0.82,-0.98 0.82,-0.98 l 0.24,0.21 c 0.12,0.1 0.27,0.26 0.33,0.47 0.06,0.19 0.01,0.38 -0.13,0.54 z m 0.92,-1.24 c -0.1,0.12 -0.24,0.18 -0.38,0.19 -0.16,0 -0.34,-0.06 -0.51,-0.2 l -0.26,-0.22 0.69,-0.82 h 0.02 c 0.08,0.05 0.17,0.12 0.28,0.21 0.34,0.29 0.39,0.58 0.17,0.84 z"
           id="path34"
           style="fill:#d12920" />
        <path
           class="cls-2"
           d="m 16.73,39.02 c -0.09,-0.39 -0.34,-0.7 -0.72,-0.88 -0.21,-0.1 -0.42,-0.15 -0.63,-0.14 -0.18,0 -0.35,0.05 -0.52,0.12 -0.37,0.17 -0.69,0.51 -0.91,0.98 -0.22,0.45 -0.28,0.9 -0.19,1.28 0.09,0.39 0.34,0.69 0.72,0.87 0.81,0.38 1.6,0.01 2.07,-0.97 0.21,-0.44 0.28,-0.88 0.19,-1.26 z m -0.65,1.06 c -0.16,0.34 -0.38,0.61 -0.62,0.77 -0.15,0.1 -0.3,0.15 -0.45,0.15 -0.12,0 -0.24,-0.02 -0.35,-0.08 -0.57,-0.27 -0.53,-1.03 -0.25,-1.61 0.15,-0.32 0.37,-0.59 0.6,-0.75 0.27,-0.18 0.56,-0.21 0.83,-0.08 0.26,0.12 0.42,0.36 0.45,0.69 0.03,0.28 -0.04,0.61 -0.19,0.92 z"
           id="path35"
           style="fill:#d12920" />
        <path
           class="cls-2"
           d="m 19.4,42.53 c 0.17,0.24 0.43,0.38 0.79,0.42 0.37,0.04 0.68,-0.03 0.91,-0.23 0.25,-0.21 0.41,-0.56 0.46,-1.04 l 0.24,-1.98 -0.47,-0.06 -0.24,1.97 c -0.04,0.33 -0.13,0.57 -0.28,0.73 -0.14,0.14 -0.32,0.2 -0.55,0.18 C 20,42.49 19.58,42.31 19.69,41.45 l 0.24,-1.97 -0.47,-0.06 -0.24,2 c -0.06,0.48 0,0.85 0.19,1.11 z"
           id="path36"
           style="fill:#d12920" />
        <path
           class="cls-2"
           d="m 23.53,40.39 c 0.16,0.32 0.37,0.69 0.65,1.11 l 1.01,1.51 0.49,-0.04 -0.26,-3.36 -0.43,0.03 0.09,1.23 c 0.04,0.58 0.09,1.01 0.16,1.44 v 0.02 c 0,0 -0.05,0.02 -0.05,0.02 V 42.33 C 25,41.98 24.78,41.6 24.54,41.25 l -1,-1.5 -0.53,0.04 0.26,3.36 0.43,-0.03 -0.1,-1.25 c -0.05,-0.63 -0.09,-1.06 -0.15,-1.46 v -0.02 c 0,0 0.05,-0.02 0.05,-0.02 v 0.02 z"
           id="path37"
           style="fill:#d12920" />
        <rect
           class="cls-2"
           x="27.07"
           y="39.240002"
           width="0.47"
           height="3.3699999"
           transform="rotate(-14.16,27.293514,40.915891)"
           id="rect37"
           style="fill:#d12920" />
        <path
           class="cls-2"
           d="m 30.12,38.15 0.19,1.65 c 0.06,0.51 0.12,0.93 0.19,1.28 v 0.02 c 0,0 -0.04,0.02 -0.04,0.02 H 30.45 C 30.24,40.8 29.99,40.48 29.66,40.07 l -1.04,-1.28 -0.48,0.21 2.27,2.69 0.5,-0.21 -0.33,-3.53 z"
           id="path38"
           style="fill:#d12920" />
        <polygon
           class="cls-2"
           points="33.6,39.61 33.59,39.59 32.92,38.64 32.94,38.63 33.9,37.95 33.68,37.64 32.7,38.33 32.69,38.31 32.11,37.49 32.12,37.47 33.14,36.76 32.92,36.44 31.5,37.44 33.44,40.2 34.92,39.15 34.7,38.83 "
           id="polygon38"
           style="fill:#d12920" />
        <path
           class="cls-2"
           d="m 37.57,36.74 0.34,-0.35 C 37.75,36.33 37.46,36.16 37.09,35.94 36.76,35.74 36.5,35.69 36.28,35.8 h -0.01 c 0,0 -0.03,-0.02 -0.03,-0.02 v 0 c 0.16,-0.38 0.09,-0.76 -0.19,-1.03 -0.2,-0.19 -0.43,-0.28 -0.65,-0.26 -0.27,0.02 -0.54,0.18 -0.86,0.5 -0.19,0.2 -0.37,0.42 -0.51,0.63 l 2.39,2.31 0.33,-0.34 -1.04,-1 0.23,-0.24 c 0.26,-0.27 0.5,-0.27 0.91,-0.01 0.33,0.21 0.6,0.37 0.72,0.41 z m -1.85,-0.66 -0.26,0.27 -0.02,-0.02 -0.86,-0.83 v 0 c 0.03,-0.08 0.12,-0.18 0.23,-0.3 0.14,-0.15 0.29,-0.24 0.44,-0.26 0.17,-0.03 0.34,0.03 0.49,0.18 0.13,0.13 0.2,0.29 0.19,0.46 0,0.17 -0.09,0.34 -0.24,0.5 z"
           id="path39"
           style="fill:#d12920" />
        <path
           class="cls-2"
           d="m 39.61,34.36 c 0.15,-0.33 0.19,-0.64 0.11,-0.91 -0.07,-0.25 -0.25,-0.45 -0.5,-0.57 -0.4,-0.19 -0.77,-0.1 -1.23,0.31 -0.34,0.31 -0.57,0.44 -0.85,0.31 -0.11,-0.05 -0.2,-0.15 -0.24,-0.27 -0.04,-0.14 -0.03,-0.3 0.06,-0.48 0.12,-0.25 0.28,-0.4 0.38,-0.48 l -0.3,-0.26 c -0.1,0.08 -0.28,0.26 -0.42,0.57 -0.14,0.29 -0.17,0.58 -0.1,0.83 0.07,0.24 0.24,0.43 0.47,0.54 0.37,0.17 0.78,0.05 1.22,-0.36 0.34,-0.31 0.58,-0.38 0.85,-0.26 0.3,0.14 0.38,0.46 0.21,0.82 -0.11,0.23 -0.28,0.44 -0.48,0.58 l 0.31,0.26 c 0.15,-0.1 0.37,-0.35 0.51,-0.64 z"
           id="path40"
           style="fill:#d12920" />
        <rect
           class="cls-2"
           x="39.23"
           y="29.41"
           width="0.47"
           height="3.3699999"
           transform="rotate(-67.38,39.472606,31.092508)"
           id="rect40"
           style="fill:#d12920" />
        <path
           class="cls-2"
           d="m 42.82,25.39 0.05,-0.47 -1.42,-0.14 -1.83,-1.22 -0.05,0.53 0.93,0.54 c 0.2,0.11 0.39,0.22 0.57,0.31 h 0.01 c 0,0 0,0.05 0,0.05 h -0.01 c -0.22,0.06 -0.42,0.13 -0.65,0.2 l -0.08,0.03 -0.91,0.31 -0.05,0.53 2.05,-0.79 v 0 c 0,0 1.4,0.14 1.4,0.14 z"
           id="path41"
           style="fill:#d12920" />
      </g>
      <rect
         class="cls-2"
         x="14.94"
         y="31.83"
         width="16.09"
         height="0.87"
         id="rect41"
         style="fill:#d12920" />
      <rect
         class="cls-2"
         x="17.719999"
         y="30.110001"
         width="10.54"
         height="0.77999997"
         id="rect42"
         style="fill:#d12920" />
      <rect
         class="cls-2"
         x="20.389999"
         y="28.57"
         width="5.2600002"
         height="0.69999999"
         id="rect43"
         style="fill:#d12920" />
      <rect
         class="cls-2"
         x="20.32"
         y="27.07"
         width="5.4099998"
         height="0.68000001"
         id="rect44"
         style="fill:#d12920" />
      <g
         id="g46">
        <path
           class="cls-2"
           d="m 10.15,15.41 c 0,0 0,0 0,0 v 0 c 0,0 0,-0.01 0,-0.02 -0.03,-0.07 -0.06,-0.14 -0.11,-0.22 0,-0.01 -0.02,-0.02 -0.03,-0.03 C 10,15.12 9.98,15.11 9.96,15.09 9.95,15.08 9.94,15.06 9.92,15.05 L 9.83,15.01 C 9.77,14.96 9.7,14.94 9.64,14.92 9.52,14.89 9.44,14.84 9.37,14.78 9.32,14.74 9.25,14.72 9.21,14.71 9.19,14.71 9.18,14.7 9.16,14.69 9.14,14.69 9.12,14.67 9.11,14.66 9.09,14.65 9.07,14.64 9.05,14.62 9.03,14.6 9,14.57 8.94,14.54 H 8.92 c 0,0 -0.03,-0.02 -0.06,-0.01 H 8.84 c 0,0 -0.08,0 -0.08,0 -0.01,0 -0.05,0 -0.08,0 -0.01,0 -0.02,0 -0.03,0 l 0.06,-0.35 0.05,-0.22 c 0,0 0,-0.05 0,-0.08 C 8.75,13.83 8.72,13.79 8.7,13.75 8.68,13.71 8.63,13.68 8.59,13.68 c -0.03,0 -0.06,0.01 -0.08,0.03 -0.06,0.06 -0.14,0.15 -0.14,0.28 0,0.08 -0.05,0.26 -0.09,0.28 0,-0.04 0,-0.08 0,-0.12 0,-0.03 0,-0.07 -0.02,-0.1 C 8.25,14.02 8.23,13.99 8.21,13.97 L 8.17,13.86 C 8.19,13.8 8.21,13.75 8.24,13.69 8.3,13.58 8.31,13.46 8.27,13.33 8.23,13.19 8.18,13.05 8.03,12.98 7.97,12.95 7.93,12.95 7.89,12.94 c -0.01,0 -0.02,0 -0.04,0 -0.01,0 -0.03,0 -0.04,0 -0.05,0 -0.1,0.01 -0.14,0.04 -0.06,0.03 -0.12,0.07 -0.18,0.1 l -0.08,0.05 c -0.12,0.07 -0.2,0.19 -0.23,0.34 -0.04,0.22 -0.05,0.45 -0.02,0.67 0.01,0.07 0.02,0.13 0.02,0.2 v 0.04 c 0,0 0.01,0.02 0.01,0.03 -0.04,-0.04 -0.08,-0.08 -0.08,-0.2 0,-0.04 0,-0.09 0,-0.13 C 7.07,13.88 7.04,13.7 6.94,13.51 6.89,13.41 6.85,13.31 6.77,13.23 6.74,13.2 6.72,13.16 6.71,13.12 6.69,13.02 6.62,12.96 6.57,12.92 6.54,12.89 6.49,12.88 6.44,12.88 c -0.05,0 -0.1,0.01 -0.12,0.04 -0.07,0.08 -0.11,0.17 -0.1,0.26 l 0.02,0.42 c 0,0.07 0,0.16 -0.04,0.24 -0.02,0.05 -0.03,0.1 -0.04,0.15 l 0.02,0.07 c 0,0 0.04,0.05 0.08,0.07 0.01,0 0.02,0.02 0.03,0.03 0,0 0.02,0 0.03,0 0,0 0.01,0 0.02,0.01 l 0.08,-0.02 c 0.16,-0.04 0.26,-0.14 0.35,-0.3 0.04,0.15 0.09,0.25 0.18,0.38 l 0.03,0.07 c 0.02,0.05 0.04,0.11 0.06,0.16 0.02,0.03 0.04,0.06 0.06,0.08 0.02,0.02 0.04,0.05 0.05,0.07 0.02,0.03 0.04,0.07 0.06,0.11 0,0 0,0.02 0.01,0.03 0.02,0.04 0.04,0.09 0.06,0.15 0,0.03 0.02,0.07 0.08,0.11 0,0.01 0.02,0.02 0.02,0.03 0.01,0.02 0.03,0.05 0.05,0.06 0.01,0 0,0.02 0.02,0.03 0.03,0.02 0.07,0.04 0.12,0.04 0.05,0 0.1,-0.02 0.13,-0.04 0.07,-0.07 0.1,-0.21 0.05,-0.3 L 7.67,14.69 c 0,0 0,-0.05 0.02,-0.07 0.04,-0.03 0.06,-0.04 0.08,-0.04 0,0 0.02,0 0.03,0.01 0,0 0.01,0.02 0.02,0.03 0,0.01 0.01,0.02 0.02,0.04 v 0 c 0,0 0.02,0.09 0.02,0.09 0.04,0.04 0.08,0.05 0.13,0.05 0.03,0 0.05,-0.01 0.09,-0.04 0,0 0.01,0 0.02,-0.01 l 0.07,0.3 v 0.07 c 0,0 0.02,0.07 0.03,0.1 0.01,0.04 0.02,0.09 0.02,0.13 0,0.06 0,0.12 0.05,0.2 v 0 c 0,0 -0.03,-0.06 -0.03,-0.06 v 0 c 0,0 0,0 0,0 0,0 -0.01,0 -0.02,0 0,0.01 0,0.03 0,0.04 v 0 c 0,0.06 0,0.11 0,0.16 0.02,0.05 0.04,0.1 0.06,0.15 l 0.04,0.07 c 0,0 0.08,0.05 0.12,0.05 0,0 0,0 0.01,0 0,0 0.01,0 0.02,-0.01 0.04,0 0.07,-0.02 0.1,-0.06 0.02,-0.02 0.03,-0.04 0.04,-0.06 0.06,-0.12 0.08,-0.26 0.06,-0.5 0,-0.08 -0.02,-0.17 0,-0.27 v 0 c 0,0 0.02,-0.07 0.02,-0.07 l 0.07,-0.02 c 0,0 0.09,0.01 0.14,0.03 0.02,0 0.04,0.01 0.06,0.03 0.02,0.02 0,0 -0.02,-0.01 0,0 0,0 0.01,0 0.02,0 0.05,0.02 0.07,0.03 0.03,0.01 0.05,0.03 0.11,0.06 0.02,0.05 0.07,0.05 0.11,0.05 0.04,0 0.06,0 0.07,0.05 l 0.05,0.05 0.11,0.05 0.08,0.06 c 0,0 0.01,0.05 0,0.09 0,0.03 -0.02,0.06 -0.02,0.09 0,0.04 -0.03,0.06 -0.05,0.08 L 9.32,15.77 9.3,15.79 c 0,0 -0.05,0.04 -0.08,0.07 0,0 -0.01,0.02 -0.02,0.05 0.01,0 0.01,0 0.02,-0.01 v 0 c 0,0 0.07,-0.03 0.07,-0.03 0,0 0,0 0,0 0,0 0.01,0 0.02,0.01 0.02,0.03 0.03,0.04 0.06,0.03 0,0 0.02,0 0.03,0 v 0 c 0,0 0,-0.01 0,-0.01 h 0.07 c 0,0 0,0 0,0 v 0 c 0,0 0.05,0.03 0.08,0.02 h 0.01 c 0,0 0.06,-0.04 0.1,-0.08 0,0 0.01,0 0.02,-0.01 0,0 0,0 0,0 0,0 0.01,-0.01 0.02,-0.02 l 0.02,-0.07 v 0 c 0,0 0.03,0.02 0.03,0.02 0,0 0,0 0,0 0,0 0.01,0 0.02,0 H 9.8 c 0.05,0.01 0.09,-0.02 0.18,-0.08 l 0.09,-0.08 c 0,0 0.07,-0.08 0.05,-0.15 z M 7.57,13.84 c 0,0 -0.02,0.01 -0.02,0.02 0,-0.13 0,-0.28 0.05,-0.42 0.01,-0.04 0.04,-0.08 0.09,-0.11 v 0.09 c 0,0 0.03,0.26 0.03,0.26 0,0.06 0,0.07 -0.05,0.1 -0.03,0.02 -0.05,0.04 -0.1,0.08 z m 0.11,0.38 H 7.6 c 0,0 -0.05,-0.3 -0.05,-0.3 0.11,0.06 0.15,0.16 0.13,0.3 z"
           id="path44"
           style="fill:#d12920" />
        <polygon
           class="cls-2"
           points="8.99,15.03 8.97,15.02 8.98,15.03 "
           id="polygon44"
           style="fill:#d12920" />
        <path
           class="cls-2"
           d="m 6.02,12.31 c 0.05,-0.11 0.11,-0.23 0.17,-0.33 0.05,-0.09 0.12,-0.17 0.21,-0.29 0.06,-0.08 0.14,-0.16 0.26,-0.16 0,0 0,0 0.01,0 0,0.05 0,0.09 0.01,0.14 0,0.02 0,0.04 0.01,0.06 0,0.03 0.01,0.05 0,0.08 0,0 0,0 0,0 0,0.01 0,0.02 0,0.03 0.03,0.12 0.04,0.21 0.04,0.31 0,0.05 0,0.09 0,0.14 v 0.08 c 0,0 0,0 0,0 v -0.02 c 0,0 0.03,-0.02 0.03,-0.04 v 0 c 0,0 0,-0.01 0,-0.01 v 0 c 0,0 0.02,-0.09 0.02,-0.09 0.03,-0.07 0.07,-0.14 0.14,-0.24 0.06,-0.03 0.08,-0.08 0.1,-0.13 l 0.03,-0.07 c 0,0 0.07,-0.09 0.11,-0.13 L 7.22,11.57 C 7.28,11.54 7.33,11.49 7.37,11.41 7.41,11.33 7.4,11.26 7.35,11.2 7.27,11.11 7.18,11.07 7.09,11.07 H 6.98 c -0.09,0.03 -0.17,0.05 -0.26,0.05 -0.13,0 -0.25,0.04 -0.36,0.1 -0.2,0.1 -0.35,0.22 -0.47,0.37 -0.15,0.19 -0.26,0.41 -0.32,0.65 -0.02,0.08 -0.04,0.16 -0.06,0.24 -0.02,0.1 -0.05,0.21 -0.08,0.31 -0.05,0.19 -0.05,0.37 -0.04,0.54 0,0 0.02,0.21 0.02,0.25 0,0.07 0,0.34 0,0.34 0,0.15 0.02,0.29 0.05,0.43 0.02,0.09 0.04,0.19 0.06,0.29 v 0.11 c 0,0 -0.06,-0.08 -0.06,-0.08 C 5.42,14.6 5.38,14.54 5.31,14.45 5.25,14.37 5.19,14.3 5.16,14.21 L 5.1,14.06 C 5.06,13.97 5.02,13.9 4.96,13.84 4.94,13.82 4.91,13.81 4.87,13.81 v 0 c 0,0 0,0.01 0,0.01 -0.02,0 -0.03,0.03 -0.03,0.05 0,0 0,0 0,0.01 0,0.11 0,0.21 0.01,0.31 0,0.03 0.02,0.15 0.02,0.15 0.01,0.14 0.05,0.27 0.1,0.39 L 5,14.8 c 0.02,0.06 0.05,0.13 0.11,0.2 0.04,0.09 0.08,0.19 0.16,0.26 0.09,0.09 0.18,0.19 0.28,0.28 l 0.06,0.06 c 0.07,0.07 0.15,0.12 0.27,0.17 H 5.95 C 6.01,15.78 6.05,15.76 6.09,15.73 6.16,15.68 6.18,15.6 6.14,15.52 6.12,15.46 6.11,15.41 6.11,15.37 6.11,15.28 6.08,15.2 6.03,15.06 6.01,15.01 5.99,14.96 5.97,14.91 5.94,14.84 5.91,14.76 5.88,14.68 c -0.06,-0.2 -0.09,-0.4 -0.12,-0.6 0,-0.07 -0.02,-0.14 0,-0.22 0.02,-0.05 0.02,-0.1 0.03,-0.16 0,-0.07 0.01,-0.14 0.01,-0.21 0,-0.04 0,-0.08 -0.01,-0.12 v -0.08 c 0,0 -0.02,-0.13 -0.02,-0.13 C 5.76,13.08 5.77,13 5.78,12.93 5.84,12.67 5.91,12.47 6,12.28 Z"
           id="path45"
           style="fill:#d12920" />
        <path
           class="cls-2"
           d="m 4.84,13.11 v 0 c 0,0 0,0 0,0 L 4.86,13.07 C 4.88,12.96 4.91,12.88 4.98,12.8 5.05,12.72 5.08,12.65 5.08,12.57 5.08,12.46 5.06,12.36 4.96,12.29 4.93,12.27 4.89,12.25 4.85,12.24 4.81,12.22 4.77,12.22 4.73,12.22 c 0,0 -0.01,0 -0.02,0 -0.01,0 -0.03,0 -0.04,0 -0.03,0 -0.05,0 -0.08,0.01 0,0 0,0 0,0 -0.09,0.01 -0.17,0.04 -0.24,0.08 -0.06,0.03 -0.09,0.07 -0.17,0.16 -0.04,0.05 -0.06,0.1 -0.04,0.18 0.01,0.06 0.04,0.1 0.09,0.1 0.04,0 0.06,0.03 0.07,0.07 h 0.07 c 0,0 0,0 0,0 0.01,0.01 0.02,0.03 0.03,0.05 0.02,0 0.03,-0.02 0.05,-0.02 v 0 c 0,0 0.07,0.01 0.1,0.01 h 0.03 c 0,0 0.08,0 0.13,0.04 0.03,0.01 0.04,0.04 0.05,0.08 l 0.03,0.06 c 0,0 0.01,0.04 0.02,0.06 v 0 z"
           id="path46"
           style="fill:#d12920" />
      </g>
      <g
         id="g50">
        <path
           class="cls-2"
           d="m 16.94,5.78 c -0.06,0.12 -0.08,0.23 -0.08,0.33 0,0.15 -0.02,0.31 -0.05,0.46 -0.02,0.1 -0.01,0.2 0,0.3 0,0.16 0.02,0.32 0.04,0.47 0,0.04 0.03,0.08 0.04,0.11 0.03,0.07 0.07,0.14 0.09,0.21 0.03,0.09 0.08,0.19 0.03,0.29 C 17,7.98 17,8.01 17,8.05 c 0,0.07 -0.03,0.13 -0.06,0.19 -0.03,0.06 -0.09,0.07 -0.15,0.08 -0.04,0 -0.09,0 -0.13,0.01 -0.03,0 -0.07,0 -0.08,-0.03 -0.04,-0.09 -0.09,-0.18 -0.09,-0.29 0,-0.03 0,-0.06 -0.02,-0.09 -0.02,-0.03 -0.02,-0.07 0,-0.1 0.01,-0.03 0.02,-0.06 0,-0.08 -0.03,-0.02 0.03,-0.06 -0.02,-0.08 -0.01,0 0,-0.05 0,-0.08 0,-0.03 0.01,-0.06 0,-0.09 0,-0.03 -0.01,-0.07 -0.02,-0.1 0,-0.01 -0.01,-0.03 -0.01,-0.04 0.03,-0.07 0,-0.14 -0.01,-0.2 0,-0.07 -0.02,-0.15 0,-0.22 0.02,-0.07 0,-0.12 -0.02,-0.18 0,-0.04 -0.04,-0.08 -0.05,-0.12 0,-0.01 0,-0.02 0,-0.04 0,-0.02 0,-0.03 0,-0.05 -0.03,-0.1 -0.07,-0.2 -0.1,-0.3 C 16.21,6.14 16.19,6.03 16.16,5.92 16.14,5.84 16.12,5.76 16.11,5.67 16.1,5.6 16.06,5.54 16.04,5.48 16.02,5.44 16.01,5.4 16.01,5.36 c 0,-0.09 -0.02,-0.18 -0.07,-0.26 0,0 0,-0.02 0,-0.03 C 15.93,5 15.92,4.99 15.85,4.97 15.87,4.95 15.88,4.93 15.9,4.91 15.87,4.79 15.77,4.78 15.66,4.78 c 0.02,-0.09 0,-0.18 0.05,-0.27 0.08,-0.15 0.3,-0.17 0.41,-0.02 0.07,0.09 0.08,0.19 0.09,0.3 0.01,0.09 0.03,0.17 0.06,0.26 0.03,0.09 0.04,0.18 0.06,0.28 0.02,0.12 0.03,0.24 0.06,0.35 0.02,0.05 0.02,0.11 0.03,0.16 0,0.06 0.02,0.12 0.03,0.17 0,0.04 0.02,0.07 0.03,0.11 0.03,-0.06 0,-0.14 0.05,-0.19 -0.03,-0.06 0.01,-0.11 0.02,-0.16 0,-0.05 0.03,-0.1 0.05,-0.15 0.02,-0.08 0.04,-0.16 0.06,-0.25 0,-0.02 0.01,-0.04 0.02,-0.05 0.04,-0.09 0.09,-0.17 0.13,-0.26 0.01,-0.03 0.02,-0.07 0,-0.1 -0.02,-0.08 -0.05,-0.17 -0.08,-0.25 0,-0.01 0,-0.03 0,-0.04 C 16.75,4.56 16.71,4.45 16.7,4.34 16.7,4.27 16.67,4.2 16.65,4.13 16.65,4.1 16.65,4.07 16.63,4.04 16.61,3.99 16.58,3.93 16.57,3.88 16.54,3.79 16.47,3.74 16.43,3.67 16.43,3.66 16.4,3.65 16.39,3.63 16.38,3.62 16.36,3.6 16.36,3.59 c 0,-0.03 0,-0.04 -0.02,-0.06 -0.03,-0.03 -0.02,-0.06 0,-0.09 0.04,-0.04 0.08,-0.09 0.13,-0.13 0.02,-0.02 0.05,-0.04 0.07,-0.04 0.11,0 0.24,0 0.32,0.1 0.07,0.08 0.14,0.17 0.13,0.28 0,0.16 0.04,0.3 0.07,0.45 0.03,0.13 0.03,0.27 0.05,0.4 0,0.01 0,0.03 0,0.05 0.04,-0.03 0.07,-0.05 0.1,-0.07 0.04,-0.02 0.07,-0.06 0.11,-0.07 0.1,-0.03 0.2,-0.06 0.3,-0.08 0.05,0 0.1,0.01 0.15,0.03 0.07,0.02 0.13,0.05 0.19,0.08 0.09,0.05 0.17,0.1 0.25,0.16 0.02,0.02 0.05,0.05 0.05,0.07 0.02,0.12 0.04,0.25 -0.04,0.36 -0.01,0.02 -0.03,0.04 -0.05,0.06 -0.12,0.09 -0.24,0.17 -0.39,0.23 -0.06,0.02 -0.12,0.04 -0.18,0.05 -0.05,0 -0.09,0.04 -0.14,0.06 -0.05,0.02 -0.1,0.05 -0.16,0.08 0,0.03 0,0.04 0.05,0.04 0.02,0 0.03,0 0.05,0 0.18,-0.04 0.31,0.03 0.41,0.19 0.1,0.15 0.13,0.31 0.13,0.49 0,0.12 0,0.24 0,0.35 0,0.07 0.04,0.12 0.1,0.15 0.07,0.04 0.14,0.06 0.21,0.09 0.11,0.05 0.22,0.05 0.34,0.05 0.12,0 0.25,0.02 0.37,0.02 0.09,0 0.17,0.01 0.26,0.01 0.07,0 0.14,0 0.21,0.02 0.03,0 0.07,0.01 0.1,0.01 0.03,0 0.05,0.02 0.04,0.05 0,0.03 0,0.06 -0.01,0.09 C 19.45,7.13 19.33,7.2 19.21,7.26 19.15,7.29 19.12,7.31 19.1,7.33 19.01,7.38 18.92,7.44 18.8,7.44 18.69,7.44 18.59,7.4 18.51,7.33 18.46,7.29 18.36,7.24 18.3,7.22 18.26,7.21 18.23,7.18 18.19,7.17 18.12,7.15 18.06,7.14 17.99,7.13 c -0.04,0.06 -0.03,0.13 -0.04,0.19 -0.01,0.11 -0.03,0.22 -0.09,0.31 0,0.01 -0.01,0.02 -0.02,0.03 -0.07,0.08 -0.3,0.13 -0.39,0.08 C 17.42,7.72 17.39,7.69 17.36,7.66 17.31,7.6 17.25,7.54 17.2,7.48 17.19,7.47 17.19,7.45 17.19,7.43 17.17,7.33 17.15,7.24 17.09,7.15 c 0,-0.01 0,-0.03 -0.01,-0.05 -0.02,-0.06 -0.04,-0.12 -0.05,-0.18 0,-0.02 0,-0.04 0,-0.06 0.01,-0.05 0.03,-0.09 0.04,-0.14 0,-0.04 0,-0.09 -0.02,-0.13 -0.02,-0.04 -0.01,-0.07 0.02,-0.1 0.03,-0.03 0.05,-0.06 0.09,-0.08 0.07,-0.04 0.13,-0.01 0.2,0 0.02,0 0.04,0.02 0.07,0.02 0.06,0 0.12,0.01 0.17,0.05 0.06,0.05 0.13,0 0.12,-0.08 0,-0.07 -0.02,-0.13 0,-0.2 0,-0.02 0,-0.04 0,-0.06 -0.02,-0.06 0,-0.12 0,-0.18 0,-0.04 -0.01,-0.08 -0.03,-0.11 0,-0.01 -0.04,-0.02 -0.06,-0.02 -0.06,0 -0.09,0.04 -0.12,0.09 -0.02,0.04 -0.05,0.07 -0.08,0.1 C 17.4,6.05 17.35,6.08 17.31,6.1 17.27,6.12 17.23,6.12 17.19,6.08 17.12,6.03 17.1,5.96 17.07,5.89 17.05,5.84 17.02,5.79 16.99,5.74 Z m 0.78,-1.04 c -0.09,0 -0.17,0 -0.2,0.09 0,0.02 -0.03,0.03 -0.04,0.05 -0.07,0.09 -0.14,0.17 -0.2,0.26 -0.03,0.03 -0.03,0.07 -0.02,0.11 0.02,0.06 0.03,0.12 0.04,0.19 0.01,0 0.02,-0.01 0.03,-0.02 0.06,-0.04 0.11,-0.1 0.14,-0.16 0.06,-0.11 0.08,-0.23 0.16,-0.33 0.04,-0.05 0.06,-0.12 0.1,-0.19 z m -0.46,2.14 c 0,0 0,0.03 0,0.03 0.02,0.11 0.09,0.19 0.14,0.27 0.03,0.05 0.1,0.04 0.14,-0.01 0.01,-0.01 0.02,-0.03 0.02,-0.05 0,-0.02 0.02,-0.04 0.03,-0.06 0,-0.04 0.02,-0.08 0,-0.11 -0.01,-0.04 -0.11,-0.07 -0.16,-0.04 -0.04,0.03 -0.06,0.01 -0.1,0 C 17.31,6.9 17.28,6.89 17.25,6.87 Z"
           id="path47"
           style="fill:#d12920" />
        <path
           class="cls-2"
           d="m 15.38,7.95 c 0.11,0.07 0.21,0.14 0.28,0.26 0.07,-0.09 0.09,-0.18 0.08,-0.29 0,-0.04 0,-0.09 0,-0.13 0,-0.1 0,-0.19 0,-0.29 0,0 0,-0.02 0.01,-0.03 0.05,0.05 0.05,0.1 0.06,0.15 0,0.06 0.01,0.11 0.01,0.17 0,0.05 0.01,0.1 0.08,0.13 0.02,-0.01 0.04,-0.03 0.07,-0.05 0.02,0.04 0.04,0.07 0.07,0.11 0.04,0.05 0.09,0.09 0.13,0.13 0.05,0.05 0.07,0.11 0.07,0.17 0,0.07 0,0.14 -0.01,0.21 -0.03,0.14 -0.06,0.28 -0.1,0.42 -0.01,0.04 -0.04,0.08 -0.06,0.12 -0.04,0.08 -0.12,0.12 -0.2,0.14 C 15.78,9.19 15.75,9.19 15.68,9.1 15.66,9.08 15.64,9.05 15.62,9.03 15.58,8.99 15.48,8.78 15.47,8.72 15.47,8.68 15.43,8.65 15.46,8.61 15.38,8.54 15.42,8.42 15.35,8.34 c -0.02,-0.02 -0.02,-0.08 0,-0.1 0.04,-0.03 0.05,-0.08 0.05,-0.12 0,-0.03 -0.02,-0.06 -0.03,-0.1 0,-0.02 0,-0.03 0,-0.05 0,0 0.01,0 0.02,-0.01 z"
           id="path48"
           style="fill:#d12920" />
        <path
           class="cls-2"
           d="m 14.9,4.99 c 0.05,0.04 0.11,0.07 0.15,0.12 0.05,0.07 0.09,0.15 0.1,0.23 0.01,0.04 -0.02,0.1 -0.04,0.15 -0.03,0.06 -0.07,0.11 -0.11,0.17 -0.03,0.03 -0.07,0.06 -0.11,0.05 -0.03,0 -0.06,0 -0.09,0.02 0,0 -0.02,0 -0.02,0 -0.07,0 -0.13,0.01 -0.2,0 -0.03,0 -0.06,-0.03 -0.1,-0.05 0,-0.02 0.01,-0.04 0.02,-0.05 C 14.47,5.59 14.44,5.55 14.42,5.51 14.41,5.49 14.4,5.48 14.38,5.47 14.33,5.45 14.27,5.41 14.27,5.34 c 0,-0.02 -0.01,-0.03 -0.02,-0.05 -0.03,-0.06 -0.03,-0.12 0,-0.17 0.03,-0.04 0.04,-0.09 0.06,-0.14 0.02,0 0.05,-0.01 0.07,-0.03 0.04,-0.03 0.09,-0.03 0.13,-0.04 0.05,0 0.11,0 0.16,0 0.03,0 0.07,-0.01 0.1,0 0.03,0 0.05,0.03 0.08,0.05 z"
           id="path49"
           style="fill:#d12920" />
        <path
           class="cls-2"
           d="m 14.54,6.56 c 0,0 0.02,-0.04 0.03,-0.06 0.06,-0.11 0.13,-0.21 0.26,-0.23 0.1,-0.01 0.21,-0.03 0.32,0 0.02,0 0.04,0.02 0.06,0.03 0.14,0.09 0.22,0.23 0.23,0.4 0,0.06 0,0.12 -0.04,0.17 -0.01,0.01 -0.02,0.03 -0.02,0.05 0,0.04 -0.02,0.07 -0.06,0.09 -0.01,0 -0.02,0.02 -0.03,0.03 -0.01,0.08 -0.08,0.08 -0.13,0.07 -0.04,0 -0.09,-0.02 -0.13,-0.05 -0.05,-0.04 -0.1,-0.08 -0.17,-0.09 -0.05,0 -0.1,-0.04 -0.12,-0.1 C 14.74,6.85 14.72,6.82 14.7,6.81 14.61,6.75 14.55,6.66 14.53,6.55 Z"
           id="path50"
           style="fill:#d12920" />
      </g>
      <g
         id="g52">
        <path
           class="cls-2"
           d="m 28.14,5.19 c 0.07,-0.07 0.14,-0.13 0.2,-0.19 0.1,0.03 0.21,0.06 0.31,0.1 0.02,0 0.04,0.02 0.05,0.04 0.07,0.09 0.17,0.08 0.26,0.09 0.03,0 0.06,0 0.09,0 0.07,0 0.14,0 0.2,-0.05 0.09,-0.07 0.16,-0.16 0.21,-0.27 0.04,-0.09 0.09,-0.17 0.13,-0.25 0.01,-0.03 0,-0.06 0,-0.09 0,-0.05 0.02,-0.1 0,-0.15 C 29.57,4.38 29.55,4.34 29.53,4.29 29.54,4.26 29.56,4.21 29.59,4.16 29.6,4.13 29.62,4.1 29.63,4.07 c 0.08,-0.19 0.25,-0.26 0.42,-0.14 0.02,0.01 0.03,0.04 0.05,0.06 0.03,0.06 0.05,0.11 0.08,0.17 0,0.02 0.01,0.04 0.01,0.05 -0.05,0.23 -0.11,0.45 -0.22,0.66 -0.05,0.09 -0.12,0.16 -0.2,0.21 -0.04,0.02 -0.07,0.05 -0.1,0.08 0.13,0.02 0.25,0.03 0.37,0 0.06,-0.01 0.11,0 0.16,0.02 0.07,0.04 0.13,0.07 0.2,0.12 0.09,0.06 0.12,0.16 0.11,0.28 -0.04,0.02 -0.09,0.04 -0.13,0.08 -0.06,0.05 -0.12,0.11 -0.17,0.17 -0.04,0.04 -0.07,0.08 -0.11,0.11 -0.02,0.01 -0.05,0.01 -0.08,0.01 -0.18,0 -0.35,0 -0.53,0.01 -0.06,0 -0.11,0.03 -0.15,0.08 -0.04,0.04 -0.08,0.09 -0.12,0.12 -0.11,0.09 -0.18,0.2 -0.25,0.31 -0.08,0.12 -0.17,0.23 -0.25,0.35 -0.09,0.12 -0.21,0.2 -0.32,0.3 -0.06,0.05 -0.13,0.09 -0.19,0.14 -0.09,0.06 -0.18,0.13 -0.27,0.19 -0.08,0.05 -0.16,0.1 -0.24,0.14 -0.07,0.03 -0.13,0.08 -0.18,0.14 -0.05,0.06 -0.11,0.09 -0.19,0.1 -0.08,0 -0.16,0.05 -0.24,0.03 C 27.02,7.85 26.96,7.8 26.95,7.73 26.95,7.7 26.93,7.68 26.91,7.65 26.89,7.62 26.87,7.58 26.85,7.55 26.84,7.53 26.83,7.51 26.81,7.49 26.76,7.44 26.72,7.38 26.76,7.3 c 0,0 0,-0.02 -0.01,-0.03 -0.02,-0.05 0,-0.07 0.05,-0.07 0.02,0 0.04,0 0.06,0.01 0.04,0 0.08,0 0.14,0 -0.02,-0.07 -0.03,-0.12 -0.05,-0.18 -0.01,-0.05 0,-0.07 0.07,-0.07 0,-0.02 0,-0.04 -0.01,-0.07 0.01,0 0.03,0 0.03,0 0.02,0.03 0.04,0.07 0.06,0.1 0.02,0.03 0.04,0.07 0.07,0.09 0.09,0.06 0.18,0.13 0.29,0.15 0.03,0 0.06,0.01 0.09,0 C 27.67,7.19 27.8,7.16 27.9,7.08 28,7.07 28.06,6.98 28.12,6.92 28.22,6.84 28.3,6.73 28.38,6.62 28.44,6.54 28.48,6.45 28.53,6.36 28.56,6.32 28.59,6.28 28.62,6.24 28.67,6.18 28.66,6.16 28.6,6.12 28.54,6.08 28.47,6.08 28.41,6.04 28.4,6.04 28.37,6.02 28.37,6.02 28.37,5.92 28.27,5.89 28.22,5.83 28.14,5.7 28.07,5.56 28.08,5.4 c 0,-0.04 0,-0.07 0.05,-0.09 0.06,-0.03 0.08,-0.07 0.04,-0.12 z"
           id="path51"
           style="fill:#d12920" />
        <path
           class="cls-2"
           d="m 29.05,6.48 c 0.06,0.02 0.11,0.05 0.13,0.1 0.03,0.1 0.08,0.2 0.1,0.3 0.02,0.13 0.07,0.26 0.1,0.39 0.02,0.09 0.08,0.15 0.16,0.19 0.01,0 0.03,0.01 0.03,0.02 0.02,0.1 0.13,0.12 0.17,0.21 0.06,0.12 0.18,0.2 0.29,0.27 0.06,0.04 0.11,0.09 0.17,0.14 0.08,0.08 0.16,0.17 0.25,0.25 0.03,0.03 0.04,0.06 0.02,0.1 -0.02,0.04 -0.05,0.06 -0.09,0.06 -0.17,0 -0.34,0 -0.51,-0.04 C 29.71,8.44 29.55,8.39 29.4,8.3 29.33,8.26 29.3,8.19 29.26,8.13 29.24,8.1 29.22,8.07 29.21,8.03 29.2,8.01 29.19,7.98 29.19,7.95 29.19,7.9 29.19,7.86 29.16,7.82 29.12,7.78 29.13,7.75 29.14,7.7 29.15,7.63 29.14,7.55 29.13,7.48 29.1,7.38 29.05,7.28 29,7.18 28.97,7.12 28.98,7.05 28.93,7 28.93,7 28.91,6.98 28.92,6.97 28.95,6.88 28.9,6.8 28.9,6.72 c 0,-0.04 0,-0.09 0.06,-0.11 0.04,-0.01 0.07,-0.04 0.07,-0.09 0,-0.02 0.02,-0.04 0.03,-0.06 z"
           id="path52"
           style="fill:#d12920" />
      </g>
      <g
         id="g55">
        <path
           class="cls-2"
           d="m 39.84,13.38 c 0,0 0.07,-0.03 0.08,0 0.05,0 0.11,0 0.14,-0.03 0.04,-0.03 0.09,0.03 0.12,-0.04 0.09,0.04 0.18,0.04 0.28,0.04 0.06,0 0.1,0.02 0.15,0.03 0.02,0 0.03,0.02 0.05,0.02 0.1,0 0.16,0.05 0.24,0.1 0.03,0.02 0.07,0.03 0.11,0.05 0.08,0.04 0.16,0.08 0.24,0.12 0.1,0.04 0.24,0 0.3,-0.1 0.04,-0.07 0.07,-0.14 0.11,-0.21 0.01,0 0.03,0.01 0.04,0.02 0.05,-0.04 0.1,-0.07 0.15,-0.11 0.04,0.04 0.07,0.06 0.13,0.02 0.03,-0.02 0.08,-0.03 0.12,0 0.01,0.01 0.04,0.02 0.05,0.02 0.01,0.04 0.03,0.09 0.04,0.13 0,0.04 0,0.09 -0.02,0.13 -0.03,0.08 -0.07,0.16 -0.16,0.2 -0.06,0.03 -0.12,0.07 -0.18,0.1 -0.06,0.04 -0.07,0.12 -0.02,0.17 0,0 0.01,0 0.01,0.01 0,0.06 0.02,0.13 0.02,0.19 0,0.05 -0.03,0.09 -0.07,0.13 -0.03,0.03 -0.06,0.04 -0.11,0.03 -0.05,-0.01 -0.1,-0.01 -0.16,-0.02 0,0 0,0 -0.01,0.01 -0.05,0.05 -0.06,0.04 -0.09,-0.02 -0.11,-0.2 -0.26,-0.31 -0.49,-0.3 -0.11,0 -0.21,0.03 -0.33,0.04 0,0.05 0,0.1 0,0.15 0.02,0.09 -0.01,0.17 -0.06,0.25 -0.04,0.07 -0.11,0.09 -0.18,0.11 -0.05,0.01 -0.1,0.01 -0.15,0.02 -0.07,0.01 -0.14,0 -0.21,-0.03 -0.08,-0.03 -0.17,-0.06 -0.25,-0.09 -0.03,-0.01 -0.06,-0.03 -0.11,-0.05 0.01,0.03 0.02,0.05 0.03,0.06 0.06,0.07 0.12,0.14 0.19,0.2 0.11,0.09 0.18,0.22 0.16,0.36 -0.02,0.19 -0.02,0.39 -0.07,0.57 -0.01,0.05 -0.04,0.1 -0.06,0.14 -0.04,0.08 -0.08,0.16 -0.12,0.24 -0.04,0.08 -0.1,0.13 -0.18,0.17 -0.04,0.01 -0.08,0 -0.12,0 -0.04,0 -0.08,-0.03 -0.12,-0.04 -0.08,-0.02 -0.14,-0.05 -0.15,-0.14 -0.03,-0.16 -0.11,-0.3 -0.2,-0.43 -0.02,-0.02 -0.04,-0.05 -0.05,-0.07 -0.04,-0.12 -0.13,-0.21 -0.2,-0.32 -0.02,-0.03 -0.03,-0.05 0,-0.1 0.02,0.01 0.04,0.02 0.06,0.04 0.15,0.17 0.36,0.27 0.54,0.4 0.04,0.03 0.09,0.06 0.14,0.09 0,-0.02 0.01,-0.04 0.02,-0.06 0.01,-0.16 0.05,-0.31 0.09,-0.46 0.02,-0.07 0,-0.13 -0.05,-0.19 -0.07,-0.08 -0.14,-0.16 -0.2,-0.24 -0.09,-0.12 -0.17,-0.24 -0.27,-0.35 -0.07,-0.08 -0.16,-0.14 -0.25,-0.2 -0.09,-0.06 -0.17,-0.12 -0.23,-0.2 -0.05,-0.06 -0.11,-0.1 -0.17,-0.15 -0.02,-0.02 -0.04,-0.03 -0.06,-0.05 -0.02,-0.02 -0.04,-0.03 -0.07,-0.03 -0.01,0 -0.03,0 -0.04,0 -0.09,-0.04 -0.19,-0.07 -0.28,-0.12 -0.13,-0.08 -0.26,-0.17 -0.4,-0.24 -0.19,-0.1 -0.37,-0.2 -0.54,-0.34 -0.06,-0.05 -0.12,-0.08 -0.17,-0.13 -0.06,-0.05 -0.12,-0.09 -0.16,-0.15 -0.07,-0.11 -0.08,-0.23 -0.04,-0.35 0,0 0,-0.01 0,-0.02 0.01,0 0.02,-0.02 0.03,-0.02 0.07,0 0.09,-0.09 0.15,-0.09 0.04,0 0.07,0 0.11,0 0.05,0 0.09,0 0.14,0 0.06,-0.02 0.13,-0.03 0.2,0.02 0.08,0.05 0.15,0.11 0.19,0.2 0.02,0.03 0.04,0.07 0.09,0.07 0.01,0 0.03,0.01 0.04,0.02 0.01,0.01 0.01,0.03 0.02,0.05 -0.02,0 -0.05,0.02 -0.06,0.01 -0.06,-0.06 -0.15,-0.04 -0.22,-0.09 -0.01,0 -0.03,0 -0.06,0 0.02,0.03 0.03,0.05 0.04,0.07 0.02,0.03 0.05,0.07 0.07,0.1 0.02,0.03 0.04,0.05 0.07,0.07 0.06,0.03 0.1,0.08 0.15,0.11 0.02,0.01 0.03,0.03 0.05,0.04 0.21,0.14 0.41,0.28 0.62,0.41 0.06,0.04 0.11,0.11 0.2,0.11 0.13,0.1 0.3,0.16 0.39,0.32 0.02,0.03 0.03,0.07 0.08,0.05 0,-0.03 0,-0.06 0,-0.09 0.01,0 0.03,0 0.05,-0.01 -0.01,-0.05 -0.02,-0.1 -0.03,-0.15 0.01,-0.01 0.02,-0.03 0.03,-0.03 0.06,0 0.08,-0.05 0.09,-0.1 0.02,-0.07 0.07,-0.1 0.13,-0.12 0.01,0 0.03,-0.01 0.03,-0.02 0.03,-0.06 0.08,-0.11 0.13,-0.16 0.03,-0.02 0.03,-0.06 0.07,-0.09 0.04,-0.02 0.07,-0.04 0.11,-0.06 0.05,-0.03 0.11,-0.07 0.16,-0.11 0.02,-0.02 0.04,-0.02 0.08,-0.02 0.04,0 0.07,-0.04 0.11,-0.03 0,0 0,-0.03 0.01,-0.05 0.09,0.05 0.16,-0.07 0.25,-0.04 0,-0.02 0,-0.03 0,-0.05 0,-0.01 0.03,-0.02 0.04,-0.03 0.02,0 0.04,-0.01 0.05,-0.02 0.04,-0.04 0.05,-0.11 0.12,-0.12 0,-0.07 0.07,-0.08 0.11,-0.11 0.07,-0.04 0.15,-0.07 0.23,-0.02 0.06,0.04 0.07,0.07 0.04,0.13 -0.08,0.12 -0.17,0.24 -0.28,0.34 -0.04,0.04 -0.1,0.06 -0.14,0.09 -0.16,0.1 -0.33,0.21 -0.49,0.31 -0.02,0.01 -0.04,0.04 -0.06,0.06 0,0 0,0.01 0,0.02 z m 0.61,0.49 c 0,0 0,-0.01 0,-0.02 0.04,-0.07 0.03,-0.09 -0.03,-0.12 -0.04,-0.02 -0.07,-0.04 -0.1,-0.06 -0.07,-0.06 -0.15,-0.07 -0.24,-0.04 -0.16,0.04 -0.32,0.07 -0.48,0.11 -0.03,0 -0.06,0.02 -0.09,0.03 -0.05,0.03 -0.11,0.04 -0.16,0.03 -0.05,0 -0.1,0 -0.16,0.05 0.08,0.06 0.14,0.12 0.21,0.17 0.1,0.06 0.21,0.09 0.32,0.13 0.07,0.02 0.13,0.07 0.21,0.05 0,0 0.02,0.01 0.03,0.02 0.02,0 0.04,0.02 0.06,0.03 0.03,-0.04 0.03,-0.09 0.02,-0.13 -0.02,-0.08 0,-0.12 0.08,-0.16 0.05,-0.03 0.11,-0.05 0.17,-0.08 0.06,-0.03 0.11,-0.04 0.16,0 z"
           id="path53"
           style="fill:#d12920" />
        <path
           class="cls-2"
           d="m 37.48,15.89 c 0,0 0.08,0.03 0.12,0.05 0,-0.07 0,-0.12 0,-0.16 -0.07,0 -0.14,-0.02 -0.21,-0.02 0,-0.03 -0.02,-0.06 -0.03,-0.1 -0.06,0.03 -0.11,0.06 -0.16,0.08 -0.07,0.03 -0.14,0.07 -0.21,0.09 -0.04,0.01 -0.09,0 -0.14,0 -0.04,0 -0.08,-0.01 -0.13,-0.01 -0.05,0 -0.11,0 -0.16,-0.01 -0.02,0 -0.03,-0.03 -0.04,-0.03 -0.06,0 -0.12,0 -0.17,-0.01 -0.11,-0.03 -0.21,-0.06 -0.31,-0.1 -0.09,-0.03 -0.15,-0.1 -0.2,-0.17 -0.05,-0.07 -0.02,-0.18 0.05,-0.23 0.02,-0.01 0.04,-0.02 0.06,-0.04 0.03,-0.03 0.06,-0.02 0.1,0 0.01,-0.02 0.02,-0.04 0.03,-0.05 0.02,-0.03 0.04,-0.05 0.08,-0.04 0.05,0.01 0.08,0 0.11,-0.05 0,0 0.01,0 0.03,-0.01 0.04,0.08 0.03,0.18 0.09,0.25 0.06,0.07 0.12,0.13 0.18,0.2 0.02,0.04 0.11,0.11 0.15,0.07 0.02,-0.02 0,-0.08 0,-0.12 0.06,0 0.12,0 0.17,-0.02 0.07,-0.02 0.13,-0.05 0.19,-0.03 0.04,-0.07 0.04,-0.12 0,-0.17 C 37.01,15.17 36.94,15.08 36.87,15 36.8,14.92 36.72,14.85 36.64,14.78 36.54,14.7 36.5,14.59 36.46,14.47 c 0,-0.01 0,-0.03 0,-0.04 0.01,-0.03 0.03,-0.06 0.05,-0.1 0.04,-0.01 0.09,-0.03 0.15,-0.06 0.06,-0.02 0.12,0 0.16,0.04 0.05,0.06 0.1,0.12 0.15,0.19 0.05,0.06 0.1,0.13 0.15,0.19 0.02,0.02 0.03,0.04 0.05,0.06 0.08,0.04 0.11,0.12 0.17,0.18 0.02,0.02 0.03,0.05 0.04,0.08 q 0.08,0.02 0.12,-0.07 c 0,0 0.01,-0.02 0.02,-0.02 0.05,-0.01 0.03,-0.05 0.02,-0.08 0.08,-0.02 0.15,-0.04 0.23,-0.06 0.02,0 0.04,-0.03 0.06,-0.05 0.03,-0.03 0.07,-0.04 0.11,0 0.05,0.03 0.1,0.04 0.15,0.01 0.02,0 0.04,0 0.06,0 0.02,0 0.05,0 0.07,0 0.01,0 0.03,-0.02 0.03,-0.02 0,0 -0.01,-0.03 -0.02,-0.03 -0.06,-0.02 -0.12,-0.04 -0.18,-0.05 -0.18,-0.03 -0.32,-0.11 -0.42,-0.26 -0.02,-0.04 -0.03,-0.09 -0.04,-0.14 0,-0.02 0.03,-0.05 0.05,-0.07 0.02,-0.02 0.04,-0.05 0.06,-0.07 0.01,-0.01 0.03,-0.03 0.05,-0.03 0.03,0 0.03,-0.01 0.04,-0.03 0,-0.01 0.03,-0.03 0.04,-0.03 0.06,0 0.13,0.02 0.19,0.04 0.07,0.02 0.12,0.07 0.15,0.14 0.01,0.03 0.04,0.07 0.07,0.09 0.1,0.09 0.22,0.16 0.33,0.24 0.15,0.1 0.22,0.24 0.21,0.42 0,0.13 -0.08,0.17 -0.17,0.19 -0.07,0.02 -0.15,0.02 -0.22,0.02 -0.08,-0.01 -0.17,-0.04 -0.25,-0.07 -0.06,-0.02 -0.11,-0.05 -0.16,-0.02 -0.07,0.04 -0.13,0.09 -0.16,0.17 0,0.01 0,0.04 0.01,0.05 0.09,0.05 0.12,0.14 0.16,0.22 0.05,0.1 0.11,0.2 0.15,0.3 0.04,0.09 0.03,0.18 -0.02,0.26 -0.05,0.08 -0.12,0.14 -0.21,0.16 -0.12,0.03 -0.21,0 -0.3,-0.08 -0.03,-0.03 -0.06,-0.07 -0.09,-0.1 -0.03,-0.04 -0.02,-0.08 0,-0.13 z"
           id="path54"
           style="fill:#d12920" />
        <path
           class="cls-2"
           d="m 38.79,12.75 c 0,0 0.07,-0.02 0.11,-0.02 0,-0.08 0.07,-0.1 0.13,-0.13 0.04,-0.02 0.08,-0.03 0.1,-0.08 0,-0.01 0.01,-0.02 0.02,-0.03 0.11,-0.05 0.22,-0.09 0.33,-0.15 0.06,-0.03 0.13,-0.05 0.16,-0.12 0.02,-0.05 0.08,-0.08 0.12,-0.11 0.03,-0.02 0.05,-0.05 0.08,-0.07 0.02,-0.01 0.05,-0.02 0.07,-0.03 0.04,-0.02 0.07,-0.05 0.11,-0.07 0.02,-0.02 0.04,-0.02 0.06,-0.02 0.06,0 0.11,-0.02 0.18,0 0.08,0.03 0.12,0.06 0.12,0.15 0,0.1 -0.02,0.18 -0.08,0.26 -0.12,0.15 -0.29,0.25 -0.47,0.31 -0.1,0.03 -0.2,0.07 -0.3,0.11 -0.02,0 -0.05,0.02 -0.07,0.04 -0.11,0.08 -0.22,0.17 -0.32,0.25 0.01,0.04 0.03,0.08 0.03,0.12 0,0.05 -0.02,0.08 -0.06,0.1 -0.06,0.02 -0.12,0.05 -0.18,0.06 -0.1,0.03 -0.21,0.05 -0.31,0.08 -0.06,0.02 -0.12,0 -0.16,-0.04 -0.04,-0.05 -0.06,-0.11 -0.04,-0.18 0.03,-0.1 0.11,-0.16 0.16,-0.25 0.06,0 0.08,-0.07 0.13,-0.08 0.04,-0.02 0.06,-0.05 0.06,-0.09 z"
           id="path55"
           style="fill:#d12920" />
      </g>
      <g
         id="g56">
        <polygon
           class="cls-2"
           points="30.7,28.71 30.7,15.79 23.94,12.65 23.94,19.69 26.97,19.69 26.97,28.71 "
           id="polygon55"
           style="fill:#d12920" />
        <polygon
           class="cls-2"
           points="22.06,19.69 22.06,12.63 15.26,15.79 15.26,28.71 19,28.71 19,19.69 "
           id="polygon56"
           style="fill:#d12920" />
      </g>
    </g>
  </g>
</svg>
