<svg xmlns="http://www.w3.org/2000/svg" xmlns:xlink="http://www.w3.org/1999/xlink" width="53.214691162109375" height="53.215087890625" viewBox="0 0 53.214691162109375 53.215087890625" fill="none">
<path d="M41.5003 19.6235C40.9855 18.5283 40.3691 17.5169 39.6284 16.5581L24.7342 16.5581C23.4099 20.2703 22.0841 23.9824 20.7591 27.6946L10.1952 27.6946C10.2563 28.629 10.3954 29.5425 10.6135 30.4533L29.9237 30.4533C30.3044 29.5338 30.6826 28.6135 31.0623 27.6946L23.742 27.6946C24.0324 26.8823 24.3231 26.0714 24.613 25.2572C27.1028 25.2443 29.5925 25.2315 32.0856 25.218C32.4721 24.2795 32.8604 23.341 33.2476 22.4018C30.7048 22.416 28.1614 22.4295 25.617 22.443C25.9536 21.5031 26.2881 20.564 26.6251 19.6235L41.5003 19.6235Z"   fill="#D71920" >
</path>
<path d="M26.6082 1.90735e-06C11.9115 1.90735e-06 0 11.9135 0 26.6075C0 41.3015 11.9115 53.2151 26.6082 53.2151C41.3049 53.2151 53.2147 41.3021 53.2147 26.6075C53.2147 11.9129 41.3022 1.90735e-06 26.6082 1.90735e-06ZM26.6082 52.5568C12.2988 52.5568 0.6589 40.9159 0.6589 26.6075C0.6589 12.2991 12.2988 0.659002 26.6082 0.659002C40.9176 0.659002 52.5557 12.2984 52.5557 26.6075C52.5557 40.9166 40.9173 52.5568 26.6082 52.5568Z"   fill="#005E9E" >
</path>
<path d="M33.2476 11.5632L33.2476 15.9079L39.0787 15.8944C37.4921 14.0492 35.5027 12.5597 33.2476 11.5632Z"   fill="#005E9E" >
</path>
<path d="M19.9657 27.0484L19.9657 11.5632C14.1929 14.116 10.1608 19.8894 10.1608 26.6075C10.1608 26.7561 10.1678 26.9012 10.1726 27.0484L19.9657 27.0484Z"   fill="#005E9E" >
</path>
<path d="M2.43298 27.118L5.44088 26.9687L5.45778 27.2955L3.15908 28.6763L5.51958 28.5595L5.53538 28.8647L2.52678 29.0132L2.51028 28.6871L4.81168 27.3064L2.44848 27.4238L2.43298 27.118Z"   fill="#0066B3" >
</path>
<path d="M4.01019 29.2292C4.5041 29.1536 4.9082 29.1996 5.21939 29.369C5.5317 29.5371 5.7134 29.7897 5.766 30.1245C5.8011 30.3446 5.765 30.5533 5.6617 30.7504C5.5571 30.9469 5.39569 31.1096 5.17389 31.2392C4.9537 31.3676 4.6945 31.4547 4.3968 31.5013C4.09529 31.5478 3.8178 31.5417 3.56389 31.481C3.31109 31.4202 3.10919 31.3095 2.959 31.1508C2.8087 30.9908 2.7176 30.8071 2.6861 30.6012C2.6521 30.3764 2.6875 30.165 2.7952 29.9686C2.90319 29.7707 3.068 29.608 3.28839 29.4811C3.5085 29.3542 3.7479 29.2698 4.01019 29.2292ZM4.05439 29.5554C3.6956 29.6107 3.42519 29.7316 3.2425 29.9179C3.0599 30.1043 2.98629 30.3136 3.02279 30.5472C3.0599 30.7842 3.1942 30.9631 3.4255 31.0839C3.6584 31.2042 3.9663 31.2359 4.34839 31.1771C4.5922 31.1386 4.79679 31.0739 4.9679 30.9793C5.1391 30.8861 5.264 30.7687 5.3427 30.6276C5.424 30.4858 5.4514 30.3366 5.42709 30.1799C5.3933 29.9564 5.26769 29.7795 5.05099 29.6486C4.835 29.5169 4.5017 29.4865 4.05439 29.5554Z"   fill="#0066B3" >
</path>
<path d="M3.01031 32.142L5.92031 31.3709L6.19442 32.4039C6.24981 32.6112 6.26462 32.7767 6.24171 32.8982C6.21772 33.0197 6.14851 33.1304 6.03311 33.2297C5.91821 33.331 5.78051 33.4012 5.61881 33.4437C5.41292 33.4984 5.22551 33.491 5.05571 33.4208C4.88591 33.3519 4.75151 33.2108 4.65332 32.9967C4.62671 33.0919 4.59461 33.1669 4.55742 33.221C4.47882 33.3384 4.37172 33.4586 4.23942 33.5801L3.55381 34.1952L3.45151 33.8077L3.97611 33.3384C4.12531 33.202 4.23942 33.0926 4.31771 33.0103C4.39431 32.9272 4.44571 32.8577 4.47031 32.8023C4.49432 32.7449 4.50881 32.6922 4.51052 32.6403C4.51052 32.6031 4.50011 32.5444 4.47882 32.4654L4.38391 32.1068L3.09062 32.4505L3.01031 32.142ZM4.71851 32.0198L4.89401 32.6828C4.93151 32.8226 4.97842 32.9279 5.03442 32.9988C5.09292 33.0677 5.16751 33.1122 5.25801 33.1325C5.34801 33.1527 5.44321 33.1507 5.53712 33.1264C5.67351 33.0886 5.77621 33.0191 5.84472 32.9164C5.91121 32.8124 5.92202 32.6747 5.87671 32.5011L5.68131 31.7652L4.71851 32.0198Z"   fill="#0066B3" >
</path>
<path d="M3.84882 34.9865L6.34502 34.077L6.07422 33.3316L6.40842 33.2095L7.06232 35.0041L6.72722 35.1256L6.45542 34.3762L3.95862 35.2863L3.84882 34.9865Z"   fill="#0066B3" >
</path>
<path d="M4.36328 36.347L7.08528 35.0561L7.22098 35.345L6.10388 35.8744L6.63998 37.006L7.75808 36.476L7.89518 36.7643L5.17388 38.0552L5.03748 37.7669L6.31958 37.1579L5.78318 36.027L4.50008 36.636L4.36328 36.347Z"   fill="#0066B3" >
</path>
<path d="M7.72681 40.1976L7.81751 40.5182C7.50801 40.6425 7.23421 40.6803 6.99421 40.6297C6.75521 40.579 6.56611 40.4494 6.42811 40.2394C6.28491 40.0227 6.22481 39.81 6.24641 39.6014C6.26601 39.3934 6.35781 39.1848 6.52021 38.9748C6.68291 38.7662 6.88441 38.5832 7.12381 38.4245C7.38651 38.2524 7.64001 38.1416 7.88871 38.093C8.13691 38.0444 8.35971 38.0607 8.55751 38.1416C8.75671 38.2226 8.91411 38.3517 9.03191 38.5299C9.16391 38.7311 9.21181 38.9431 9.17471 39.1632C9.13651 39.3853 9.01971 39.6 8.82251 39.808L8.57341 39.5953C8.72501 39.4286 8.81381 39.2733 8.83941 39.1288C8.86341 38.985 8.83201 38.8459 8.74291 38.7115C8.64161 38.5575 8.50961 38.459 8.34821 38.4151C8.18761 38.3732 8.01571 38.382 7.83211 38.4428C7.64701 38.5035 7.47251 38.588 7.30671 38.698C7.09281 38.8385 6.92331 38.987 6.79531 39.1423C6.67001 39.2975 6.60151 39.4535 6.59181 39.6108C6.58201 39.7675 6.61811 39.9073 6.69881 40.0301C6.79671 40.1786 6.93371 40.2698 7.11001 40.3022C7.28591 40.3353 7.49181 40.2995 7.72681 40.1976Z"   fill="#0066B3" >
</path>
<path d="M7.2663 41.3677L9.6024 39.4657L9.8029 39.7135L8.8431 40.494L9.6348 41.4656L10.5946 40.6844L10.7961 40.9315L8.46 42.8328L8.2581 42.5857L9.3586 41.6897L8.569 40.7181L7.4681 41.6148L7.2663 41.3677Z"   fill="#0066B3" >
</path>
<path d="M8.8671 43.2581L11.0652 41.1988L11.2832 41.4318L9.0848 43.4911L8.8671 43.2581Z"   fill="#0066B3" >
</path>
<path d="M9.45691 43.8989L11.5068 41.6937L11.7481 41.9166L11.0632 44.51L12.6735 42.7788L12.8969 42.9874L10.8461 45.1926L10.6057 44.969L11.2913 42.3743L9.68011 44.1076L9.45691 43.8989Z"   fill="#0066B3" >
</path>
<path d="M11.0561 45.3803L13.6201 43.5498L13.8932 43.7578L12.848 46.7502L12.5597 46.5301L12.8895 45.6342L12.0891 45.0224L11.3254 45.5869L11.0561 45.3803ZM12.3595 44.8212L13.0074 45.3161L13.3145 44.5012C13.4077 44.2534 13.4894 44.0529 13.5589 43.9009C13.4175 44.036 13.2666 44.1616 13.1062 44.279L12.3595 44.8212Z"   fill="#0066B3" >
</path>
<path d="M13.6866 47.2931L15.206 44.6936L16.7114 45.5734L16.5311 45.8806L15.303 45.1615L14.8377 45.9582L15.9893 46.6307L15.8086 46.9359L14.6582 46.2627L14.1416 47.1472L15.4181 47.8946L15.2381 48.2012L13.6866 47.2931Z"   fill="#0066B3" >
</path>
<path d="M15.6287 48.3949L16.921 45.6747L17.2083 45.811L16.0683 48.2113L17.1405 48.7211L16.9889 49.0418L15.6287 48.3949Z"   fill="#0066B3" >
</path>
<path d="M17.3437 49.1944L18.3979 46.3728L20.0295 46.9831L19.9063 47.3167L18.5732 46.8177L18.2491 47.6813L19.4982 48.1492L19.3736 48.48L18.1259 48.0128L17.767 48.9736L19.1525 49.4915L19.0259 49.8243L17.3437 49.1944Z"   fill="#0066B3" >
</path>
<path d="M21.3809 49.3814L21.6632 49.5603C21.5149 49.8601 21.333 50.0701 21.1213 50.1916C20.9093 50.3131 20.6831 50.3415 20.4394 50.2767C20.1895 50.2098 20.0022 50.091 19.8777 49.9222C19.7561 49.7521 19.6849 49.536 19.6683 49.2713C19.6501 49.0074 19.6778 48.7366 19.7527 48.4584C19.8321 48.1552 19.9492 47.9034 20.1031 47.7022C20.2554 47.5017 20.4337 47.3646 20.6352 47.2931C20.8371 47.2221 21.0417 47.214 21.2466 47.2687C21.4799 47.3302 21.6558 47.4564 21.7759 47.6469C21.8948 47.8386 21.9495 48.0749 21.9403 48.3605L21.6139 48.3693C21.6162 48.1437 21.5784 47.9689 21.5021 47.8447C21.4241 47.7204 21.3083 47.6381 21.1531 47.5962C20.9731 47.5483 20.8097 47.5624 20.6615 47.6374C20.5123 47.7123 20.3901 47.8339 20.2929 48.0013C20.1963 48.1695 20.1217 48.349 20.0697 48.5408C20.0049 48.7892 19.9765 49.0128 19.9847 49.2126C19.9931 49.4124 20.0464 49.5738 20.1427 49.6974C20.2406 49.8216 20.3607 49.9019 20.5018 49.9404C20.6736 49.9864 20.8377 49.9627 20.991 49.8709C21.1432 49.7784 21.2732 49.6156 21.3809 49.3814Z"   fill="#0066B3" >
</path>
<path d="M22.4008 50.6534L22.8434 48.0338L22.0612 47.902L22.1196 47.551L24.0034 47.8697L23.9439 48.2201L23.158 48.0871L22.7154 50.7068L22.4008 50.6534Z"   fill="#0066B3" >
</path>
<path d="M23.8393 50.8789L24.0627 47.8751L25.1285 47.9547C25.3426 47.9709 25.5026 48.0101 25.6106 48.0729C25.7183 48.1343 25.8003 48.2363 25.8563 48.3774C25.9135 48.5192 25.935 48.6731 25.9222 48.8385C25.9074 49.0512 25.8382 49.2267 25.717 49.3645C25.5958 49.5023 25.4192 49.5833 25.1856 49.6062C25.2653 49.6622 25.326 49.7169 25.3648 49.7689C25.4506 49.8824 25.5289 50.0221 25.5998 50.1876L25.9569 51.0369L25.5569 51.0072L25.2855 50.3584C25.2062 50.1714 25.1397 50.0282 25.0867 49.9276C25.0337 49.8284 24.9851 49.7561 24.9405 49.7142C24.8952 49.6731 24.8493 49.6427 24.8007 49.6244C24.7663 49.6123 24.7066 49.6029 24.6255 49.5968L24.2552 49.5684L24.1576 50.9033L23.8393 50.8789ZM24.2822 49.2254L24.9655 49.276C25.111 49.2855 25.2257 49.276 25.3115 49.2443C25.3959 49.2139 25.4611 49.1586 25.5117 49.0775C25.559 48.9992 25.588 48.9108 25.5938 48.8143C25.6062 48.6718 25.5728 48.5523 25.4965 48.4544C25.4226 48.3571 25.2942 48.3011 25.1164 48.2882L24.3561 48.2316L24.2822 49.2254Z"   fill="#0066B3" >
</path>
<path d="M26.3171 51.0154L26.3664 48.0033L26.6852 48.0087L26.6366 51.0201L26.3171 51.0154Z"   fill="#0066B3" >
</path>
<path d="M28.8528 49.8662L29.1769 49.9458C29.1316 50.2781 29.0274 50.5346 28.865 50.7169C28.7026 50.8992 28.4963 50.9998 28.2455 51.014C27.9876 51.0315 27.7718 50.9788 27.6014 50.8567C27.4295 50.7351 27.2948 50.5515 27.1939 50.3077C27.0936 50.062 27.0339 49.7966 27.0153 49.5097C26.9957 49.1964 27.0264 48.9209 27.1068 48.6819C27.1885 48.4422 27.3134 48.2559 27.4825 48.1235C27.6517 47.9919 27.8421 47.9196 28.0534 47.9061C28.2944 47.8906 28.5017 47.9547 28.6753 48.0972C28.8491 48.2396 28.9774 48.4476 29.0595 48.7217L28.7512 48.8331C28.6817 48.6185 28.5905 48.4638 28.4791 48.37C28.3667 48.2782 28.2303 48.2363 28.0683 48.2464C27.8842 48.2586 27.7337 48.3234 27.6165 48.4422C27.4984 48.5604 27.4207 48.7143 27.3823 48.9047C27.3434 49.0938 27.3307 49.2882 27.3434 49.486C27.3607 49.7426 27.4046 49.9634 27.4751 50.1504C27.5467 50.3381 27.649 50.4739 27.7803 50.5603C27.912 50.6467 28.0507 50.6858 28.1969 50.6757C28.3758 50.6649 28.5227 50.5906 28.6381 50.4542C28.7539 50.3172 28.8252 50.1221 28.8528 49.8662Z"   fill="#0066B3" >
</path>
<path d="M30.5543 50.7122L29.9605 47.7596L30.852 47.58C31.0087 47.5483 31.1306 47.5334 31.2167 47.5355C31.3375 47.5361 31.4448 47.5631 31.5353 47.6151C31.6282 47.6664 31.7112 47.7494 31.7831 47.8615C31.8547 47.9743 31.9063 48.1039 31.936 48.2504C31.9867 48.5016 31.9651 48.7264 31.8719 48.9263C31.7788 49.1261 31.5664 49.2599 31.2321 49.3274L30.6268 49.4489L30.8679 50.6487L30.5543 50.7122ZM30.5549 49.1005L31.167 48.9776C31.3689 48.9371 31.5019 48.8615 31.5687 48.7501C31.6346 48.6387 31.6501 48.4982 31.616 48.3268C31.5907 48.2039 31.5448 48.1032 31.4765 48.025C31.4094 47.9473 31.3314 47.9027 31.244 47.8906C31.1886 47.8845 31.0897 47.8946 30.9469 47.9237L30.3436 48.0452L30.5549 49.1005Z"   fill="#0066B3" >
</path>
<path d="M32.2267 48.8804C32.0775 48.403 32.0643 47.9972 32.1862 47.6644C32.3081 47.3295 32.5306 47.1128 32.8563 47.0129C33.0683 46.946 33.2806 46.9508 33.4893 47.025C33.6996 47.0993 33.8843 47.2357 34.043 47.4349C34.2033 47.6354 34.3282 47.8785 34.4167 48.1661C34.5078 48.4577 34.5413 48.7332 34.5183 48.9932C34.4947 49.2518 34.4156 49.4678 34.2789 49.64C34.1442 49.8115 33.9754 49.9283 33.7759 49.9904C33.5589 50.0579 33.3448 50.0518 33.1331 49.9742C32.9222 49.8959 32.7375 49.7568 32.5788 49.5583C32.4228 49.3584 32.3043 49.1329 32.2267 48.8804ZM32.5423 48.7892C32.6497 49.1356 32.8073 49.3861 33.0194 49.5394C33.23 49.6927 33.4474 49.7352 33.6743 49.6649C33.9028 49.5941 34.0602 49.4347 34.1452 49.1883C34.2316 48.9405 34.2161 48.6312 34.102 48.2613C34.0294 48.0277 33.9353 47.8319 33.8171 47.6772C33.7 47.5226 33.5659 47.4152 33.4137 47.3572C33.2621 47.2985 33.1098 47.2924 32.9593 47.339C32.7436 47.4065 32.5862 47.557 32.488 47.7893C32.3908 48.0229 32.4073 48.3565 32.5423 48.7892Z"   fill="#0066B3" >
</path>
<path d="M35.6363 49.2923L33.8214 46.8042L34.1196 46.6705L35.2606 48.3234C35.3815 48.4962 35.4963 48.6691 35.6056 48.8446C35.531 48.5253 35.4875 48.3409 35.4774 48.2909L35.0641 46.2485L35.4166 46.0912L36.3541 47.3403C36.5877 47.6509 36.7906 47.9493 36.9608 48.2369C36.9111 48.0513 36.8575 47.8359 36.8021 47.5902L36.3561 45.6699L36.6491 45.539L37.2774 48.5577L36.9955 48.6832L35.5949 46.7961C35.4774 46.6381 35.4061 46.5416 35.3815 46.5044C35.4152 46.6415 35.4426 46.7577 35.4615 46.8556L35.9318 49.1593L35.6363 49.2923Z"   fill="#0066B3" >
</path>
<path d="M38.1305 48.1148L36.5985 45.5214L38.0988 44.6362L38.2797 44.9414L37.0549 45.6652L37.5229 46.4592L38.6697 45.7827L38.8496 46.0865L37.7031 46.7644L38.2233 47.6469L39.4967 46.8954L39.6783 47.2013L38.1305 48.1148Z"   fill="#0066B3" >
</path>
<path d="M40.0578 46.9514L38.2834 44.5181L39.1463 43.8881C39.3195 43.7619 39.4663 43.6876 39.5889 43.6653C39.7111 43.643 39.8407 43.668 39.9754 43.7389C40.1104 43.8105 40.2255 43.9131 40.3238 44.0468C40.4494 44.2197 40.5105 44.3979 40.5078 44.5808C40.5045 44.7652 40.4204 44.9414 40.258 45.1102C40.3562 45.1007 40.4369 45.1028 40.502 45.1162C40.6404 45.1487 40.79 45.204 40.9514 45.2851L41.7738 45.7003L41.449 45.9359L40.8238 45.6186C40.6415 45.5268 40.4973 45.4606 40.3917 45.4187C40.2874 45.3762 40.2036 45.3546 40.1432 45.3512C40.0817 45.3472 40.0261 45.3546 39.9781 45.3722C39.943 45.3857 39.8934 45.4174 39.8252 45.4653L39.5275 45.6834L40.3154 46.7644L40.0578 46.9514ZM39.3238 45.4039L39.8779 45.0002C39.9957 44.9144 40.0763 44.832 40.1202 44.7537C40.1655 44.674 40.1796 44.5889 40.1655 44.4965C40.1509 44.4046 40.1155 44.3196 40.0578 44.2405C39.9744 44.1251 39.8725 44.0556 39.7502 44.0299C39.6297 44.0042 39.4967 44.0447 39.3525 44.1494L38.7364 44.5984L39.3238 45.4039Z"   fill="#0066B3" >
</path>
<path d="M41.7481 41.6344L41.976 41.4136L43.1859 42.664C43.3969 42.8814 43.5427 43.0732 43.6292 43.24C43.7132 43.406 43.7419 43.5789 43.7169 43.7591C43.6913 43.9381 43.5951 44.1082 43.4287 44.2703C43.2659 44.4269 43.0992 44.5201 42.9273 44.5498C42.7575 44.5801 42.587 44.5491 42.4145 44.46C42.2427 44.3695 42.0449 44.2109 41.8238 43.9806L40.6138 42.7295L40.8437 42.5074L42.0509 43.7578C42.2329 43.9455 42.3811 44.0718 42.4959 44.1332C42.6093 44.1953 42.7244 44.2176 42.8382 44.2007C42.953 44.1831 43.0593 44.1258 43.1579 44.0306C43.327 43.8672 43.4013 43.7038 43.38 43.5384C43.3591 43.3743 43.218 43.1555 42.9557 42.8841L41.7481 41.6344Z"   fill="#0066B3" >
</path>
<path d="M44.4353 43.1887L42.1353 41.2428L42.347 40.9936L44.9694 41.5547L43.1643 40.0274L43.3625 39.7938L45.6618 41.7397L45.4498 41.9895L42.825 41.4257L44.6329 42.9557L44.4353 43.1887Z"   fill="#0066B3" >
</path>
<path d="M46.0044 41.263L43.5745 39.4805L43.7639 39.224L46.1912 41.0064L46.0044 41.263Z"   fill="#0066B3" >
</path>
<path d="M46.9031 39.9667L43.8601 39.1362L44.0464 38.8452L46.2286 39.4926C46.4031 39.544 46.5652 39.5973 46.7137 39.6507C46.5929 39.5312 46.4791 39.4069 46.3664 39.276L44.8694 37.5515L45.045 37.2781L47.079 39.6912L46.9031 39.9667Z"   fill="#0066B3" >
</path>
<path d="M47.7208 38.6372L45.0406 37.2619L45.837 35.7117L46.153 35.8744L45.5038 37.141L46.3235 37.5617L46.9328 36.376L47.2464 36.5374L46.6384 37.723L47.5499 38.1916L48.2268 36.875L48.5428 37.0371L47.7208 38.6372Z"   fill="#0066B3" >
</path>
<path d="M48.7237 36.6374L45.9235 35.5287L46.316 34.5342C46.3964 34.3357 46.4811 34.1939 46.573 34.1095C46.6648 34.025 46.7849 33.9771 46.9382 33.9663C47.0898 33.9535 47.2417 33.9791 47.3974 34.0399C47.5959 34.1189 47.7427 34.2371 47.8386 34.3937C47.9342 34.5503 47.9574 34.7435 47.9084 34.9737C47.9868 34.9129 48.0574 34.8724 48.1194 34.8494C48.2525 34.8015 48.4098 34.7691 48.5894 34.7515L49.5053 34.6638L49.3584 35.0372L48.6579 35.102C48.4554 35.1216 48.2987 35.1425 48.188 35.1628C48.0762 35.1843 47.9932 35.2087 47.9405 35.239C47.8865 35.2694 47.8437 35.3052 47.813 35.345C47.791 35.3748 47.7643 35.4288 47.7339 35.5051L47.5975 35.8481L48.8422 36.341L48.7237 36.6374ZM47.2769 35.7218L47.5283 35.0838C47.5833 34.9487 47.6063 34.836 47.6033 34.7455C47.5975 34.6557 47.5658 34.5747 47.503 34.5058C47.4413 34.4349 47.366 34.3822 47.2762 34.3451C47.1435 34.2938 47.0189 34.2884 46.9031 34.3316C46.7877 34.3748 46.6965 34.4788 46.6303 34.6456L46.3498 35.3538L47.2769 35.7218Z"   fill="#0066B3" >
</path>
<path d="M48.6336 34.1952L48.6839 33.8975C48.8341 33.9258 48.9618 33.9278 49.0681 33.9036C49.1755 33.8799 49.2734 33.8245 49.3611 33.7354C49.4472 33.6463 49.5113 33.5362 49.5488 33.4046C49.5819 33.2877 49.5893 33.1777 49.5721 33.0765C49.5539 32.9752 49.514 32.8907 49.4509 32.8246C49.3878 32.7604 49.3108 32.7139 49.2214 32.6889C49.1302 32.6625 49.0448 32.6612 48.9655 32.6828C48.8858 32.7064 48.8088 32.7604 48.7349 32.8428C48.6862 32.8968 48.6005 33.0204 48.4743 33.2149C48.3507 33.41 48.2478 33.5409 48.166 33.6105C48.0628 33.7003 47.9493 33.757 47.8261 33.7806C47.7029 33.8043 47.5749 33.7969 47.4413 33.7584C47.2964 33.7165 47.1681 33.6443 47.0611 33.5416C46.9527 33.439 46.8832 33.3141 46.8541 33.1676C46.8248 33.0218 46.8336 32.8705 46.8778 32.7139C46.9267 32.543 47.0044 32.4012 47.1114 32.2899C47.2184 32.1784 47.3488 32.1068 47.503 32.0751C47.6577 32.0428 47.8204 32.0488 47.9922 32.092L47.9355 32.3932C47.7478 32.3573 47.5952 32.3709 47.4753 32.435C47.3555 32.4998 47.2697 32.6207 47.2184 32.7982C47.1657 32.9846 47.1688 33.1318 47.2303 33.2405C47.2907 33.3506 47.3815 33.4208 47.5003 33.4552C47.6053 33.4856 47.6995 33.4795 47.7839 33.439C47.8683 33.3998 47.9817 33.2662 48.1218 33.0366C48.2639 32.8077 48.3757 32.6537 48.4533 32.5755C48.5702 32.4634 48.6981 32.3925 48.8352 32.3634C48.9732 32.3324 49.1194 32.3398 49.2747 32.3837C49.4283 32.4283 49.5623 32.5052 49.6791 32.6133C49.7956 32.7247 49.8722 32.8556 49.9104 33.0103C49.9479 33.1636 49.9428 33.3229 49.8955 33.489C49.8355 33.6976 49.7473 33.8623 49.6309 33.9825C49.514 34.1021 49.3668 34.1804 49.19 34.2175C49.0141 34.2539 48.8274 34.2472 48.6336 34.1952Z"   fill="#0066B3" >
</path>
<path d="M50.1855 32.1373L47.2417 31.5013L47.3096 31.19L50.254 31.8253L50.1855 32.1373Z"   fill="#0066B3" >
</path>
<path d="M50.4647 30.6748L47.8372 30.2758L47.7187 31.061L47.3667 31.007L47.6539 29.1192L48.0054 29.1725L47.8855 29.9611L50.512 30.3595L50.4647 30.6748Z"   fill="#0066B3" >
</path>
<path d="M50.7054 28.5676L49.4313 28.4886L47.6401 29.3076L47.6644 28.9214L48.6005 28.5034C48.7754 28.4265 48.9503 28.3549 49.1238 28.2901C48.9712 28.2077 48.8 28.1105 48.6093 27.9944L47.7535 27.4731L47.7771 27.1024L49.4509 28.1706L50.7233 28.2489L50.7054 28.5676Z"   fill="#0066B3" >
</path>
<path d="M4.12909 20.6814C4.13379 20.6646 4.13849 20.6484 4.14519 20.6308C4.28259 20.5572 4.41829 20.4829 4.55539 20.4107C4.74209 20.4249 4.92509 20.5802 5.08549 20.564C5.16749 20.1704 5.27309 19.7051 5.18639 19.3972C5.25219 19.2703 5.36559 19.1832 5.48889 19.1602C5.75179 19.4783 5.44769 20.1143 5.44359 20.4944C5.42639 20.57 5.40779 20.645 5.38929 20.7206C5.45609 20.8577 5.82509 20.8252 5.95299 20.886C6.02329 20.9387 6.09279 20.9954 6.16239 21.0488C6.25419 21.0542 6.34669 21.0589 6.43849 21.0643C6.49349 21.1075 6.54679 21.15 6.60149 21.1919C6.93299 21.2702 7.26389 21.3458 7.59499 21.4235C7.59369 21.4424 7.59569 21.4613 7.59369 21.4802C7.61059 21.5815 7.55159 21.8414 7.47929 21.8914C7.35599 21.7199 5.61879 21.0609 5.34599 21.1372C5.16919 21.6982 5.41589 22.2216 5.15089 22.7604C5.03619 22.8036 4.74449 22.9784 4.65159 22.8596C4.74449 22.8015 4.83829 22.7448 4.93289 22.6888C5.08239 22.466 5.08609 21.1399 5.02359 20.9745C4.72489 20.8772 4.42679 20.7793 4.12909 20.6814Z" stroke="rgba(0, 94, 158, 1.00)" stroke-width="0.0679"    fill-rule="evenodd"  fill="#005E9E" >
</path>
<path d="M11.0671 10.7736L11.06 10.7702C11.0279 10.7561 10.9965 10.7399 10.9651 10.725C10.9405 10.7128 10.9162 10.7007 10.8919 10.6892L10.8811 10.6838L10.8706 10.6892C10.7332 10.7628 10.5931 10.8391 10.455 10.9154L10.4439 10.9215L10.4429 10.9336C10.4415 10.9505 10.4405 10.9654 10.4398 10.9795C10.4364 11.0403 10.4344 11.0788 10.3942 11.1551C10.2521 11.0653 10.1083 10.9735 9.9652 10.8823L9.9027 10.8425C9.9118 10.7054 9.9537 10.5576 9.9945 10.4137C10.0722 10.1389 10.1525 9.85471 10.0199 9.61841L10.0124 9.61031C9.9841 9.59141 9.955 9.57311 9.9263 9.55491L9.8977 9.53741L9.8862 9.54211C9.7734 9.59141 9.6593 9.64071 9.5482 9.69131C9.5412 9.69201 9.5341 9.69401 9.5273 9.69531C9.5165 9.69801 9.5064 9.70011 9.4963 9.70081L9.4541 9.70411L9.479 9.73791C9.6752 10.008 9.6843 10.2449 9.5104 10.5798L9.4517 10.5805C9.1229 10.49 8.6634 10.0201 8.6118 9.96681L8.604 9.95871L8.5925 9.95931C8.4784 9.97151 8.364 9.98161 8.2495 9.99241C8.1635 10.0005 8.077 10.0086 7.9909 10.0167L7.9825 10.0194C7.9687 10.0269 7.9545 10.0356 7.942 10.0437L7.9271 10.0539L7.9329 10.0708C7.9666 10.1687 8.8653 10.8972 9.0331 10.9276C9.0952 10.939 9.1371 10.933 9.1732 10.9282C9.2329 10.9208 9.2805 10.9127 9.4051 10.9957C9.4092 11.1281 9.4011 11.2624 9.393 11.3921C9.3811 11.5865 9.369 11.7877 9.3997 11.9822C9.3838 12.0065 9.3683 12.0308 9.3531 12.0544L9.3464 12.0659C9.2785 12.0362 9.0169 11.81 8.8042 11.6257C8.5611 11.4157 8.3103 11.1983 8.1709 11.1078L8.1611 11.1011L8.1503 11.1051C8.1064 11.1207 8.0625 11.1335 8.0203 11.1456C7.8478 11.1956 7.6851 11.2422 7.5413 11.4704L7.5318 11.4859L7.5436 11.4988C7.7374 11.7135 7.9292 11.8971 8.1148 12.0754C8.2397 12.1955 8.3687 12.3191 8.4967 12.4508C8.4933 12.6108 8.4561 12.7472 8.3768 12.891L8.363 12.9166L8.3903 12.9247C8.6043 12.9923 8.8383 12.9403 9.0061 12.7938C9.2775 12.8086 9.5142 12.9409 9.6563 13.1584C9.7852 13.3555 9.8163 13.5925 9.739 13.7923L9.7349 13.8032L9.7403 13.8126C9.7464 13.8234 9.7515 13.8349 9.7565 13.8464C9.7616 13.8572 9.7667 13.8686 9.7724 13.8788L9.77979 13.893L9.94149 13.8767C10.0246 13.868 10.1076 13.8599 10.1907 13.8511L10.2028 13.8497L10.2089 13.8389C10.2204 13.818 10.2336 13.7984 10.2467 13.7788L10.269 13.7451L10.2666 13.7356C10.2346 13.6033 10.2309 13.4332 10.2271 13.2691C10.2231 13.0753 10.219 12.8923 10.1721 12.7647C10.1478 12.6965 9.95879 12.2502 9.92969 12.2118C9.87669 12.1402 9.81659 12.0902 9.76359 12.0463C9.69479 11.9889 9.63529 11.9397 9.59959 11.8553C9.55029 11.7452 9.52189 11.4907 9.67049 11.3725C9.83349 11.2942 10.4469 11.6405 10.6069 11.8107C10.6498 11.8883 10.6488 11.9943 10.6039 12.1348L10.5982 12.153L10.6144 12.1625C10.6268 12.1699 10.6383 12.1773 10.6495 12.1847L10.6977 12.2151L10.7031 12.1793C10.7308 11.9883 10.8328 11.8154 10.9314 11.6486C11.0961 11.3691 11.2517 11.1051 11.0708 10.7804L11.0671 10.7736Z"   fill="#005E9E" >
</path>
<path d="M4.38878 21.1167C4.11438 20.8824 3.83078 20.64 3.87938 20.3166C3.98808 20.3024 4.07888 20.295 4.15928 20.2883C4.60458 20.2511 4.61768 20.2302 4.61768 19.5429L4.61768 19.5348L4.61228 19.528C4.56298 19.4672 4.46778 19.4051 4.39828 19.3599L4.38948 19.3558C4.38448 19.3545 4.37868 19.3525 4.37158 19.3511L4.35208 19.3491L4.27908 19.5928C4.23788 19.7292 4.19708 19.8656 4.15588 20.002L4.13358 20.006C4.02658 20.027 3.93378 20.0425 3.79908 20.006C3.75378 19.8399 3.72508 19.6691 3.69778 19.5037C3.65798 19.2647 3.62018 19.0392 3.53708 18.8238L3.53268 18.813L3.52158 18.8103C3.30858 18.7468 3.16678 18.8089 3.03038 18.8684C2.95848 18.8994 2.88418 18.9312 2.79808 18.9474L2.79538 18.9467C2.78498 18.9426 2.77518 18.9393 2.76538 18.9379L2.70558 18.9271L2.74278 18.975C2.79038 19.0372 2.87578 19.0689 2.95848 19.0986C3.01988 19.1216 3.08338 19.1445 3.13128 19.1803C3.28358 19.2937 3.34098 19.5543 3.38718 19.7643C3.39598 19.8035 3.40408 19.8406 3.41248 19.8744C3.40808 19.8879 3.40338 19.9021 3.39798 19.9156C3.16168 19.8757 3.05598 19.7373 2.94428 19.5908C2.88958 19.5192 2.83318 19.4456 2.76128 19.3862C2.70828 19.3423 2.65028 19.312 2.59458 19.2829C2.52868 19.2485 2.46658 19.2161 2.42578 19.1668L2.42068 19.1607L2.41288 19.1587C2.20798 19.1101 1.97408 19.289 1.89268 19.4787L1.87988 19.5084L1.91188 19.5118C2.15498 19.5361 2.29678 19.6462 2.44668 19.7623C2.50638 19.8089 2.56818 19.8568 2.63608 19.8987C2.83288 20.0195 3.05498 20.0722 3.26968 20.1235C3.34498 20.1418 3.42228 20.16 3.49658 20.1809C3.55798 20.268 3.61748 20.3558 3.67648 20.4436C3.85168 20.7035 4.03298 20.9722 4.26968 21.2133C4.26868 21.2288 4.26768 21.2437 4.26598 21.2585C4.16978 21.2781 3.62078 21.3503 3.53608 21.3584C3.49048 21.2808 3.44488 21.2025 3.39968 21.1241C3.33998 21.0208 3.27988 20.9182 3.22248 20.821C3.20688 20.7697 3.20628 20.7224 3.20528 20.6765C3.20388 20.6124 3.20258 20.5462 3.15998 20.4787L3.15288 20.4712C2.74648 20.2052 2.38248 20.5381 2.24618 20.6941L2.23428 20.7076L2.24408 20.7224C2.32078 20.8412 3.34268 21.9026 3.49218 21.9026L3.50028 21.9013C3.55868 21.881 3.58978 21.8155 3.61978 21.7527C3.63768 21.7156 3.65588 21.6764 3.67818 21.6542C3.79328 21.5941 3.93108 21.6582 4.07618 21.7284C4.30678 21.8398 4.56948 21.9661 4.83308 21.6346L4.84218 21.6231L4.83648 21.6103C4.75718 21.432 4.57818 21.2788 4.38878 21.1167Z"   fill="#005E9E" >
</path>
<path d="M34.5441 4.48157C34.3595 4.32087 34.1995 4.22027 33.9334 4.18587C33.9301 4.18107 33.927 4.17637 33.9236 4.17237C33.9193 4.16487 33.9145 4.15817 33.9095 4.15137C33.9351 4.07507 33.9598 4.04747 33.9861 4.01837C34.0097 3.99207 34.0367 3.96167 34.0644 3.89687L34.0685 3.88677L34.0641 3.87727C34.0087 3.76187 33.9496 3.68957 33.7954 3.63827L33.7781 3.63287L33.7684 3.64767C33.3953 4.22297 33.2218 4.37957 32.497 4.47957L32.4308 4.48837L32.4879 4.52277C32.6263 4.60577 32.766 4.69017 32.9031 4.77397C32.7931 5.07507 32.6091 5.33707 32.4146 5.61317C32.2985 5.77857 32.1786 5.94877 32.0757 6.12897L32.0679 6.16547C32.0632 6.19247 32.0585 6.22087 32.052 6.24917L32.0463 6.27557L32.073 6.27827C32.1932 6.28837 32.3417 6.33157 32.4993 6.37677C32.7262 6.44297 32.9747 6.51457 33.2117 6.51457C33.3045 6.51457 33.3953 6.50377 33.4828 6.47677C33.9797 6.32147 34.5533 5.14797 34.5522 4.49917L34.5519 4.48837L34.5441 4.48157ZM32.5534 6.06347C32.5419 6.05267 32.5301 6.04127 32.5179 6.03047L32.5156 6.02777C32.5939 5.95617 32.6729 5.88527 32.7509 5.81437L32.8795 5.69757C33.0304 5.48557 33.1803 5.27357 33.3302 5.06157C33.4406 4.90487 33.5506 4.74897 33.6613 4.59297C33.6934 4.59227 33.7251 4.59097 33.7565 4.58957C33.7903 4.58757 33.8241 4.58627 33.8538 4.58487C33.9189 4.59567 33.9959 4.60787 34.0776 4.62407C34.0729 4.97247 33.5334 5.69687 33.0621 5.98047C32.9169 6.06827 32.7097 6.15327 32.5534 6.06347Z"   fill="#005E9E" >
</path>
<path d="M44.977 10.2503L44.9541 10.2693C44.6715 10.5002 44.3721 10.6555 44.0821 10.8053C43.8552 10.9228 43.6409 11.0336 43.4329 11.1787C43.1071 11.068 42.7182 10.6919 42.5153 10.3901L42.4937 10.355L42.4755 10.3908C42.4745 10.3921 42.4704 10.3955 42.4674 10.3975L42.4579 10.405L42.4579 10.4164C42.4613 10.696 42.5866 10.8128 42.7189 10.937C42.808 11.0201 42.8998 11.1058 42.9569 11.2489C42.9572 11.2651 42.9599 11.2807 42.9623 11.2969C42.9626 11.3009 42.9633 11.305 42.964 11.3084C42.6686 11.5278 42.0748 11.7614 41.7821 11.6541C41.7784 11.6007 41.7743 11.5474 41.7699 11.4947C41.7672 11.4596 41.7645 11.4245 41.7618 11.3887L41.7615 11.3813L41.7365 11.3529C41.7203 11.334 41.7041 11.3151 41.6882 11.2955L41.6788 11.2841L41.6045 11.3043L41.6011 11.3178C41.5886 11.3718 41.5859 11.4785 41.5826 11.6027C41.5785 11.7607 41.5728 11.9781 41.5383 12.0234L41.5316 12.0328L41.5346 12.0436C41.5576 12.1253 41.6292 12.2293 41.7537 12.3623L41.7622 12.3711L41.7747 12.3691C42.3941 12.2739 43.0308 12.0274 43.5733 11.7985C43.7087 11.8526 43.8373 11.9687 43.9616 12.0808C44.1331 12.2361 44.3096 12.3954 44.5095 12.3954C44.5415 12.3954 44.574 12.3913 44.607 12.3826L44.6168 12.3772C44.6567 12.3407 44.6979 12.3056 44.7421 12.2691L44.7488 12.2597C44.7583 12.2421 44.7681 12.2239 44.7785 12.2063L44.786 12.1935L44.7782 12.1814C44.6742 12.0193 44.5162 11.9295 44.3491 11.8343C44.2212 11.7614 44.0888 11.6865 43.9808 11.5751C44.0595 11.4211 44.2441 11.2901 44.4231 11.1632C44.5628 11.0639 44.7073 10.962 44.8066 10.8459L44.8325 10.854C44.8815 10.8688 44.9308 10.8837 44.9808 10.8978L44.9946 10.9019L45.0044 10.8918C45.1367 10.7507 45.0591 10.4164 44.9899 10.2774L44.977 10.2503Z"   fill="#005E9E" >
</path>
<path d="M43.259 12.338L43.2341 12.3603C42.9083 12.6452 42.6416 12.8363 42.3421 12.9977L42.3243 13.0078L42.3313 13.0267C42.4451 13.3373 42.5349 13.5824 42.8948 13.7404L42.9049 13.7444L42.9147 13.7397C43.4714 13.4676 43.4548 12.8316 43.2715 12.3691L43.259 12.338Z"   fill="#005E9E" >
</path>
<path d="M21.6066 6.28232L21.5996 6.26342L21.5881 6.26002C21.5182 6.24182 20.8629 6.23772 20.8558 6.23772C20.7195 6.24182 20.6317 6.29042 20.5544 6.33362C20.468 6.38162 20.3944 6.42412 20.2698 6.39442C20.2067 6.30052 20.1439 6.19252 20.1675 6.08652C20.1817 6.02302 20.2252 5.98252 20.2711 5.94072C20.3127 5.90292 20.3555 5.86302 20.3785 5.80432C20.4285 5.67262 20.4447 5.54702 20.4615 5.41402C20.4747 5.31412 20.4879 5.21082 20.5169 5.10282C20.5753 4.88742 20.7073 4.69902 20.8471 4.49982C21.0766 4.17302 21.3136 3.83552 21.2107 3.35942L21.2093 3.35272L21.2049 3.34802C20.7796 2.88612 20.3495 3.20012 19.9349 3.50332C19.755 3.63492 19.5696 3.77062 19.3826 3.84692C19.2368 3.61532 19.2243 3.35672 19.2118 3.10692C19.2057 2.98672 19.1996 2.86182 19.178 2.74502L19.175 2.72822L19.1584 2.72612C19.0356 2.70862 18.9134 2.69102 18.7932 2.67282L18.7608 2.66742L18.7668 2.69982C18.8354 3.08192 18.9535 3.50462 19.1382 4.02922C19.0288 4.26552 18.8718 4.40942 18.6045 4.60652L18.5886 4.61802L18.5974 4.63622C18.5984 4.63822 18.5994 4.64092 18.6007 4.64432C18.6021 4.64772 18.6034 4.65112 18.6051 4.65442L18.6129 4.67202L18.6315 4.66792C18.7631 4.63822 18.8958 4.60992 19.0278 4.58152L19.1811 4.54912C19.2044 4.60452 19.2276 4.65982 19.2509 4.71522C19.2891 4.80572 19.3269 4.89622 19.3664 4.98662L19.3661 4.99412C19.3657 5.00692 19.365 5.02042 19.3654 5.03322L19.203 5.13112C19.0791 5.20542 18.9552 5.28032 18.8327 5.35532C18.7233 5.23312 18.6618 5.00622 18.6797 4.87662L18.6814 4.86382L18.6716 4.85562C18.5801 4.77732 18.4505 4.73682 18.3364 4.70042L18.3081 4.69162L18.301 4.71452C18.2797 4.78542 18.2993 4.85502 18.3199 4.92792C18.333 4.97522 18.3469 5.02382 18.3519 5.07852C18.3735 5.31952 18.4897 5.76712 18.6811 6.00752C18.7229 6.05952 18.7888 6.11552 18.8587 6.17432C19.0143 6.30532 19.1905 6.45382 19.1915 6.62392C19.1723 6.70832 19.0973 6.75222 18.9853 6.80962L18.9718 6.81642L18.9728 6.83192C18.9792 6.94062 19.0818 6.95682 19.1919 6.95682C19.2162 6.95682 19.2405 6.95612 19.2644 6.95552C19.2952 6.95482 19.3252 6.95482 19.3553 6.95412L19.3657 6.95142C19.4856 6.89332 19.5744 6.78262 19.6604 6.67532C19.7519 6.56122 19.8383 6.45312 19.9406 6.45042L19.9447 6.45042C20.0146 6.45042 20.0912 6.49842 20.1793 6.59562C20.1817 6.62532 20.1851 6.65432 20.1884 6.68402C20.1918 6.71512 20.1955 6.74682 20.1979 6.77862L20.1999 6.80622L20.2273 6.79952C20.4342 6.74482 20.6148 6.72192 20.7893 6.69962C21.0827 6.66242 21.3362 6.63002 21.6012 6.45452L21.6117 6.44772L21.6124 6.40252C21.6131 6.36942 21.6137 6.33632 21.6137 6.30322L21.6137 6.29652L21.61 6.29112C21.609 6.28912 21.608 6.28572 21.6066 6.28232ZM19.97 5.32562C19.9629 5.34522 19.9552 5.36472 19.9477 5.38362C19.9379 5.40862 19.9281 5.43362 19.9194 5.45932C19.9133 5.46062 19.9076 5.46262 19.9015 5.46472C19.89 5.46802 19.8785 5.47142 19.867 5.47552C19.8478 5.46062 19.8296 5.44512 19.8151 5.43162C19.7999 5.40792 19.7864 5.38232 19.7725 5.35732C19.7631 5.33982 19.7536 5.32222 19.7435 5.30462C19.756 5.27022 19.7675 5.23782 19.7786 5.20472L19.8208 5.19052C19.8448 5.18312 19.8691 5.17502 19.8937 5.16692C19.9184 5.21892 19.9437 5.27222 19.97 5.32562ZM19.3553 5.44782L19.414 5.43362C19.521 5.54432 19.651 5.81852 19.6567 5.99332C19.6436 6.11352 19.5804 6.17362 19.4785 6.25602C19.4498 6.26542 19.4214 6.27492 19.3927 6.28432L19.3394 6.30192C19.3266 6.28702 19.3131 6.27152 19.2989 6.25602C19.1294 6.06492 18.8982 5.80502 18.9572 5.54162C19.0896 5.50992 19.2226 5.47882 19.3553 5.44782ZM19.6247 4.17302C19.6706 4.13392 19.733 4.08052 19.8036 3.95502C19.8252 3.94752 19.8471 3.94012 19.8691 3.93342C19.8863 3.92732 19.9038 3.92192 19.9214 3.91582C19.9221 3.91652 19.9227 3.91652 19.9234 3.91712L19.8951 4.12042L19.9302 4.10962C20.0294 4.07922 20.051 4.00562 20.073 3.91112C20.0899 3.90842 20.1067 3.90502 20.1236 3.90232C20.1503 3.89822 20.1773 3.89352 20.204 3.88812L20.2107 3.88612C20.2124 3.88542 20.2137 3.88542 20.2154 3.88472C20.2208 4.22982 19.9764 4.52892 19.5828 4.65442C19.5635 4.63152 19.5446 4.60852 19.5261 4.58632C19.5105 4.26962 19.549 4.23722 19.6247 4.17302Z"   fill="#005E9E" >
</path>
<path d="M51.3592 21.5617C51.3524 21.5421 51.3457 21.5239 51.3379 21.507L51.3352 21.5009L51.3302 21.4968C50.7927 21.1255 49.8522 21.0431 49.3471 20.9986L49.3299 21.0026C49.3245 21.004 49.3205 21.0053 49.3161 21.008L49.2995 21.0195L49.308 21.037C49.6118 21.7001 50.4855 22.1605 51.0088 22.276L51.0159 22.2774L51.0226 22.2747C51.0665 22.2571 51.1114 22.2395 51.157 22.222L51.1688 22.2179L51.189 22.1234C51.2329 21.9168 51.265 21.7676 51.3578 21.5792L51.3622 21.5711L51.3592 21.5617Z"   fill="#005E9E" >
</path>
<path d="M50.5068 20.8007L50.5368 20.8541L50.5473 20.8561C50.6239 20.8716 50.706 20.8818 50.7849 20.8919C50.9254 20.9094 51.0705 20.9277 51.1924 20.9763L51.2046 20.9817L51.2154 20.9736C51.2309 20.9614 51.24 20.9567 51.2458 20.9533C51.261 20.9439 51.264 20.9391 51.2707 20.9209L51.2856 20.8831L51.2653 20.8737C51.0668 20.7825 50.7846 20.5678 50.6344 20.3126L50.629 20.3038L50.6185 20.3018C50.5972 20.2977 50.5763 20.2923 50.5557 20.2869L50.5345 20.2815L50.5277 20.3024C50.5145 20.343 50.5014 20.3828 50.4882 20.4233C50.4646 20.4935 50.4413 20.5644 50.419 20.636L50.4156 20.6461L50.4214 20.6549C50.4504 20.7022 50.4784 20.7514 50.5068 20.8007Z"   fill="#005E9E" >
</path>
<path d="M48.8168 20.2754L48.8482 20.3376L48.863 20.3376C48.9258 20.3376 49.4629 20.237 49.5558 20.1917L49.5777 20.1816L49.5662 20.16C49.5568 20.1418 49.5473 20.1242 49.5376 20.1066C49.5281 20.0891 49.5186 20.0722 49.5095 20.0547C49.5662 20.0364 49.6219 20.0195 49.678 20.002L49.7776 19.9709L49.7853 19.9682L49.7901 19.9615C49.8829 19.8204 49.9832 19.6057 49.9332 19.3862L49.9295 19.37L49.913 19.368C49.8731 19.3639 49.8333 19.3619 49.7934 19.3619C49.5284 19.3619 49.2621 19.4558 49.0622 19.6225C48.8836 19.7718 48.7776 19.9649 48.7638 20.1654L48.7631 20.1721L48.7665 20.1782C48.7837 20.2099 48.8003 20.2424 48.8168 20.2754Z"   fill="#005E9E" >
</path>
<path d="M49.9055 22.3374L49.9015 22.3334C49.6807 22.1038 49.5163 21.8115 49.3573 21.5286C49.3289 21.4779 49.3006 21.4273 49.2722 21.3787C49.2047 21.2416 49.1382 21.1052 49.072 20.9695C49.0214 20.8655 48.9707 20.7609 48.9167 20.6529C48.8276 20.5415 48.7108 20.4571 48.5872 20.3673C48.4367 20.2572 48.2807 20.1445 48.1787 19.9784C48.2017 19.9311 48.2307 19.8845 48.2588 19.8399C48.3178 19.7454 48.3786 19.6482 48.3924 19.5321L48.3938 19.5206L48.3789 19.5057C48.3719 19.4983 48.3641 19.4895 48.3533 19.4828L48.3455 19.4781L48.3367 19.4794C47.7902 19.5685 47.1764 19.9169 47.0012 20.0216L46.9921 20.029L46.9901 20.0391C46.9752 20.1127 46.9685 20.1458 47.012 20.2572L47.0141 20.2626L47.0184 20.266C47.0232 20.27 47.0272 20.2741 47.0313 20.2781C47.0374 20.2842 47.0434 20.2896 47.0505 20.2957L47.0606 20.3004C47.3118 20.3524 47.8466 20.2282 48.0765 20.1701C48.2098 20.2646 48.2338 20.3362 48.2638 20.4267C48.2875 20.4983 48.3148 20.5793 48.3968 20.6887C48.4552 20.7649 48.5535 20.8385 48.6575 20.9169C48.8928 21.0944 49.1591 21.295 49.1598 21.6245C49.1584 21.6373 49.1554 21.6515 49.1524 21.665L49.1449 21.6643C49.1129 21.6602 49.0815 21.6562 49.0511 21.6542L49.0288 21.6528L49.0261 21.6751C48.995 21.9155 49.1486 22.2044 49.3029 22.3942C49.4555 22.5825 49.6267 22.7014 49.7607 22.7122L49.7641 22.7122L49.7894 22.7068C49.8171 22.7 49.8444 22.6939 49.8735 22.6885L49.889 22.6858L49.9011 22.6338C49.9217 22.5481 49.9413 22.4671 49.9072 22.3435L49.9055 22.3374Z"   fill="#005E9E" >
</path>
<path d="M48.3607 21.4827L48.3536 21.4786C48.1575 21.3672 47.884 21.1863 47.772 20.9007L47.7615 20.8743L47.722 20.8993C47.7011 20.9128 47.6805 20.9256 47.6599 20.9364L47.6497 20.9418L47.6481 20.9533C47.6258 21.0789 47.6845 21.2254 47.7412 21.3672C47.7476 21.3841 47.7541 21.3996 47.7605 21.4158C47.7541 21.4266 47.7463 21.4374 47.7375 21.4476C47.7291 21.4469 47.7206 21.4469 47.7122 21.4469C47.6352 21.4469 47.5613 21.4685 47.4833 21.4914C47.4121 21.5124 47.3388 21.534 47.2619 21.538C47.1751 21.5144 47.0488 21.3679 46.9263 21.2268C46.7794 21.0566 46.6275 20.8804 46.5009 20.8574C46.3801 20.8358 46.2845 20.8568 46.2133 20.9223C46.0131 21.1073 46.0624 21.5873 46.0982 21.9384C46.1117 22.0694 46.1235 22.1835 46.1147 22.2335L46.1134 22.2416L46.1178 22.249C46.1765 22.3523 46.3112 22.5042 46.4294 22.5184L46.4381 22.5184C46.6468 22.5184 46.8368 22.3678 47.0049 22.2341C47.0681 22.1842 47.1282 22.1369 47.1825 22.1032C47.2487 22.1477 47.3199 22.2254 47.3895 22.33L47.3945 22.3374L47.403 22.3401C47.4175 22.3435 47.4313 22.3469 47.4452 22.3503L47.4884 22.3611L47.4961 22.3422C47.51 22.3098 47.5164 22.2801 47.5228 22.2503C47.5329 22.2031 47.5421 22.1626 47.5788 22.1214L47.5843 22.1153L47.5846 22.1079C47.5917 22.014 47.5569 21.9553 47.513 21.8797C47.5042 21.8655 47.4951 21.85 47.4857 21.8331C47.4934 21.8162 47.5009 21.8007 47.5083 21.7838C47.6751 21.7453 47.7871 21.7797 47.9063 21.8149C48.0238 21.8513 48.1447 21.8871 48.3145 21.8446L48.3249 21.8385C48.4319 21.7352 48.4394 21.6697 48.3637 21.4901L48.3607 21.4827ZM46.4314 21.3247L46.4422 21.3166C46.5816 21.3591 46.6805 21.4516 46.7852 21.5495C46.8291 21.59 46.8743 21.6326 46.9243 21.6731C46.9286 21.6913 46.9327 21.7102 46.9364 21.7284C46.9391 21.7419 46.9418 21.7554 46.9445 21.7683C46.9283 21.8803 46.8301 21.9546 46.7264 22.0329L46.6977 22.0552C46.5607 21.9614 46.4111 21.5846 46.3585 21.3787C46.3838 21.3605 46.4077 21.3422 46.4314 21.3247Z"   fill="#005E9E" >
</path>
<path d="M29.8906 40.2563C30.0219 40.2563 30.1292 40.2151 30.2133 40.1321C30.297 40.0497 30.3392 39.9484 30.3392 39.8282C30.3392 39.7033 30.2964 39.5987 30.2096 39.5129C30.1232 39.4279 30.0155 39.3853 29.8868 39.3853C29.7569 39.3853 29.6489 39.4272 29.5631 39.5102C29.4771 39.5939 29.4345 39.6932 29.4345 39.8094C29.4345 39.941 29.4764 40.0484 29.5611 40.1314C29.6458 40.2151 29.7555 40.2563 29.8906 40.2563ZM29.5989 41.5844C29.6897 41.6344 29.7876 41.6593 29.8926 41.6593C30.0553 41.6593 30.1897 41.6073 30.2957 41.502C30.402 41.3973 30.455 41.2643 30.455 41.1023C30.455 40.9389 30.4 40.8025 30.291 40.6959C30.1816 40.5885 30.0452 40.5345 29.8811 40.5345C29.7208 40.5345 29.5881 40.5878 29.4825 40.6939C29.3771 40.7999 29.3245 40.9322 29.3245 41.0915C29.3245 41.1888 29.3474 41.2826 29.3936 41.3731C29.4392 41.4642 29.5081 41.5351 29.5989 41.5844ZM26.6065 7.19611C15.8859 7.19611 7.1944 15.887 7.1944 26.6075C7.1944 37.328 15.8859 46.019 26.6065 46.019C37.3271 46.019 46.0189 37.3294 46.0189 26.6075C46.0189 15.8856 37.3284 7.19611 26.6065 7.19611ZM44.7034 30.4162C43.3608 36.7967 38.7561 41.9983 32.5869 44.1076C26.4161 46.2162 19.589 44.9177 14.6234 40.6925C9.6544 36.4638 7.2811 29.9308 8.378 23.501C9.4721 17.0706 13.877 11.6921 19.9657 9.34921L19.9657 11.5719C20.2081 11.4646 20.4461 11.3538 20.6939 11.258C24.8466 9.65851 29.3514 9.84891 33.2476 11.5678L33.2476 9.34921C39.1007 11.6003 43.4121 16.6648 44.7034 22.7988C44.7702 23.1168 44.5285 23.4159 44.2034 23.4159L43.9563 23.4159C43.2652 23.4159 42.6593 22.9535 42.4783 22.2857C42.2943 21.6044 42.0658 20.9401 41.7944 20.2878L33.2476 20.2878L33.2476 31.4776C33.2476 35.1452 30.2748 38.1193 26.6065 38.1193C22.9382 38.1193 19.9657 35.1452 19.9657 31.4776L19.9657 31.1171L10.7877 31.1171C12.8122 38.2179 19.3199 43.1002 26.7034 43.0563C34.0868 43.0124 40.5385 38.0552 42.4783 30.9287C42.6593 30.2623 43.2652 29.7998 43.9563 29.7998L44.2034 29.7998C44.5285 29.7998 44.7702 30.0982 44.7034 30.4162ZM29.1881 40.1659C29.1199 40.0693 29.0857 39.9552 29.0857 39.8208C29.0857 39.619 29.1587 39.4494 29.3035 39.3117C29.4486 39.174 29.6417 39.1058 29.8832 39.1058C30.1252 39.1058 30.32 39.176 30.4682 39.3165C30.6157 39.4576 30.6897 39.6291 30.6897 39.8303C30.6897 39.9593 30.6555 40.0713 30.5887 40.1665C30.5208 40.2617 30.4179 40.3353 30.2805 40.3873C30.4509 40.4427 30.5809 40.5325 30.6698 40.656C30.7585 40.7796 30.8031 40.9274 30.8031 41.0989C30.8031 41.336 30.7193 41.5358 30.5513 41.6971C30.3835 41.8585 30.1627 41.9395 29.8886 41.9395C29.6145 41.9395 29.394 41.8585 29.2262 41.6964C29.0581 41.5344 28.9744 41.3319 28.9744 41.0895C28.9744 40.9092 29.0199 40.758 29.1117 40.6358C29.2029 40.5142 29.3335 40.4312 29.5024 40.3873C29.3609 40.3353 29.2562 40.2617 29.1881 40.1659ZM27.9565 40.5216C27.8475 40.4089 27.7047 40.3529 27.5278 40.3529C27.418 40.3529 27.3188 40.3778 27.2303 40.4278C27.1422 40.4778 27.0727 40.5426 27.0224 40.6222L26.7027 40.5804L26.9714 39.1544L28.3515 39.1544L28.3515 39.4805L27.2439 39.4805L27.0943 40.2259C27.2608 40.1098 27.4356 40.0524 27.619 40.0524C27.861 40.0524 28.0656 40.1354 28.2324 40.3036C28.3988 40.4717 28.4822 40.6878 28.4822 40.951C28.4822 41.2022 28.4092 41.4197 28.2624 41.6026C28.0841 41.8275 27.8414 41.9395 27.5332 41.9395C27.281 41.9395 27.075 41.8687 26.9151 41.7276C26.7553 41.5857 26.6642 41.3987 26.6413 41.1651L26.9995 41.1347C27.0261 41.3089 27.0876 41.4399 27.1841 41.5277C27.2807 41.6155 27.3968 41.6593 27.5332 41.6593C27.6972 41.6593 27.8363 41.5972 27.9501 41.4737C28.0632 41.3501 28.1206 41.1861 28.1206 40.9815C28.1206 40.787 28.0659 40.6337 27.9565 40.5216ZM25.7902 40.5858C25.722 40.6945 25.6285 40.783 25.5106 40.8498C25.3928 40.9173 25.2646 40.951 25.1275 40.951C24.8979 40.951 24.7032 40.868 24.5442 40.7013C24.3855 40.5345 24.3055 40.3151 24.3055 40.0423C24.3055 39.7614 24.3889 39.5345 24.5549 39.363C24.7207 39.1909 24.929 39.1058 25.1785 39.1058C25.3591 39.1058 25.5242 39.1537 25.6737 39.2509C25.8233 39.3482 25.9367 39.4866 26.0147 39.6669C26.092 39.8465 26.1308 40.1071 26.1308 40.4474C26.1308 40.8025 26.092 41.0848 26.0154 41.2947C25.9384 41.5047 25.824 41.6647 25.6717 41.7748C25.5194 41.8848 25.3412 41.9395 25.1366 41.9395C24.9196 41.9395 24.7423 41.8795 24.6049 41.7586C24.4675 41.6384 24.3845 41.4689 24.3568 41.2502L24.6842 41.2198C24.7123 41.3744 24.7653 41.4858 24.8436 41.5553C24.9216 41.6249 25.0222 41.6593 25.1444 41.6593C25.2494 41.6593 25.3412 41.6357 25.4199 41.5878C25.4985 41.5391 25.5637 41.4757 25.614 41.3953C25.6646 41.315 25.7064 41.2069 25.7409 41.0706C25.775 40.9342 25.7919 40.7951 25.7919 40.654C25.7919 40.6385 25.7912 40.6162 25.7902 40.5858ZM22.7694 39.9559C22.6361 40.0335 22.5166 40.0922 22.4106 40.1314L22.4106 39.8019C22.6013 39.7128 22.7678 39.6041 22.9102 39.4765C23.0533 39.3488 23.1539 39.2253 23.2134 39.1058L23.4332 39.1058L23.4332 41.8923L23.0922 41.8923L23.0922 39.7202C23.0101 39.7992 22.9025 39.8769 22.7694 39.9559ZM25.2203 39.3874C25.0688 39.3874 24.9371 39.4494 24.8244 39.5731C24.7123 39.6966 24.6562 39.8566 24.6562 40.0538C24.6562 40.2306 24.7093 40.3744 24.8159 40.4845C24.9223 40.5953 25.0543 40.65 25.2109 40.65C25.3686 40.65 25.4985 40.5953 25.5998 40.4845C25.7014 40.3744 25.7524 40.2212 25.7524 40.0254C25.7524 39.8296 25.7004 39.6743 25.5958 39.5595C25.4918 39.4447 25.3668 39.3874 25.2203 39.3874Z"   fill="#005E9E" >
</path>
</svg>
