<svg height="316.227766" viewBox="0 0 400 400" width="316.227766" xmlns="http://www.w3.org/2000/svg" xmlns:xlink="http://www.w3.org/1999/xlink"><clipPath id="a"><path d="m0 300h300v-300h-300z"/></clipPath><g clip-path="url(#a)" fill-rule="evenodd" transform="matrix(1.3333333 0 0 -1.3333333 0 400)"><path d="m0 0c-.364-.646-4.144-6.364-4.677-7.149-.42-.617-1.091-.786-1.68-.449-.476.281-.588.898-.308 1.571 1.371 3.308 5.964 6.28 6.524 6.224.113 0 .168-.085.141-.197" fill="#9f0810" transform="translate(50.8174 83.4109)"/><path d="m0 0c-.728.812-.224 2.299.756 2.664.699.252 1.512.365 2.267.421.56.056.84-.309.589-.842-.308-.645-.364-1.177.168-1.794.281-.308.168-.756-.28-.869-.952-.281-3.304.196-3.5.42" fill="#9f0810" transform="translate(36.2298 74.4959)"/><path d="m0 0c.28.169 1.064.869 1.092 1.121.084.813.504 1.234 1.26.898.392-.169.812-.617.98-1.038.251-.673-2.24-1.766-3.332-.981m6.915-2.354c.308 1.373.252 2.635-.867 3.589-.532.448-1.149.785-1.736 1.177-.616.392-.672.813-.056 1.206.616.364 1.232.505 1.989.252.867-.308 1.763-.504 2.66-.673.251-.056 1.68.056.588 1.15-.252.252-.56.504-.811.757-.448.42-.421.812.112 1.093.503.281.391.028.896.281 1.791.812 1.54 5.187-.14 4.683-.168-.056-.308-.169-.42-.337-1.428-2.019-4.031-2.748-4.956-2.356-.783.337-4.508 1.71-5.571 1.991-1.316.225-1.064-1.823-.168-2.187 1.82-.729 3.304-3.196 1.792-3-.561.252-2.129.504-3.025.561-.168 0-.224-.225-.084-.309.812-.448 2.241-1.262 1.848-1.486-.28-.056-3.332.673-4.368.982-.476.139-.98.168-1.119-.421-.169-.617.363-.841.783-.841.448-.028 1.877-.477 2.212-1.038-.225-.224-.392-.533-.644-.673-1.288-.672-2.576-.364-3.808.225-.504.252-.98.448-1.595.113.083-.477 1.148-1.515 1.568-1.767.447-.252.811-.365.447-.786-.447-.504-.952-.924-1.652-1.009-.251-.027-.588-.14-.728-.337-.811-1.15-.98-.981-2.099-1.654-.811-.477-1.708-.365-1.932.589-.252 1.121-1.624.084-1.764-2.776-.056-1.149.868-2.046 1.988-1.85.868.14 1.736.534 2.464 1.01.896.561.644.561 1.512 1.234.616.476.784.392 1.148-.337.784-1.598.755-3.169.224-4.767-.308-.925.14-1.879 1.063-1.962.56-.057 1.288.027 1.708.337 1.149.841 1.652 2.131 1.708 3.56.057 1.738-.952 3.084-2.099 4.206-1.176 1.121-1.148.898-.196 1.514.028.028.056.057.056.057.532.42 1.009.448 1.568.056 1.037-.729 1.288-.701 2.241.027.336.252.588.309.98.057.448-.281 1.036-.365 1.512-.674 1.144-.702 6.324-1.346 6.771.533" fill="#9f0810" transform="translate(56.0531 74.4672)"/><path d="m0 0c1.204 1.935 3.024 2.719 5.376 1.486 1.204-.646 1.932-.393 2.631.729.953 1.514 1.933 3 2.297 4.794.056.841 2.435.168 2.38-4.738-.028-1.29-.812-1.879-1.54-2.608-.896-.925-1.904-1.738-2.8-2.692-.588-.616-1.036-1.346-1.512-2.018-.812-1.178-1.596-2.356-2.352-3.561-.7-1.094-1.54-1.318-2.661-.589-.532.364-1.063.392-1.68.281-1.372-.252-2.744-.504-4.144-.084-1.009.308-1.54 1.346-1.176 2.411.28.841 1.372 1.71 2.353 1.318 1.791-.7 5.543-.589 6.075.392.364.673.699 1.373.98 2.075.251.645.027.981-.673 1.01-.867.027-1.708-.027-2.575 0-.447 0-1.148.027-1.26.225-.139.364.253 1.541.281 1.569" fill="#9f0810" transform="translate(73.6633 52.0933)"/><path d="m0 0c.252-.169.504-.308.756-.477.811-.504 1.119-1.206.84-1.823-.364-.841-1.288-1.205-2.156-1.037-.811.14-1.651.281-2.436.225-.559-.028-1.175-.308-1.624-.617-1.092-.785-2.072-.729-2.968.281-1.232 1.402-1.288 2.748-.392 4.458 1.345 3.028 9.967 7.374 12.123 15 .14.729.756.869 1.427.504.812-.448 1.372-1.093 1.568-2.019.392-1.822-.251-3.252-1.568-4.401-1.568-1.374-3.135-2.748-4.815-3.982-2.828-2.046-2.632-4.962-1.625-5.579.255-.197.562-.337.87-.533" fill="#9f0810" transform="translate(89.0061 40.4304)"/><path d="m0 0c-.391 1.514-.756 3.029-1.036 4.57-.391 1.458 1.148.981 1.456.785 1.204-.813 1.988-3.729 1.512-5.158-.083-.281-1.4-2.16-1.932-.197" fill="#9f0810" transform="translate(93.2339 39.3647)"/><path d="m0 0c-.224-.505-.755-.841-1.288-.617-.42.169-.952.617-1.008 1.01-.504 1.177.252 3.925.308 4.542.027.281.027.785-.252.897-.756.253-2.38-2.635-3.164-3.756-.14-.196-.84-1.542-1.735-1.206-.477.169-1.989 1.206-.756 3.196.953 1.542 2.352 2.664 3.78 3.729.112.084.252.112.337.225.112.168.307.42.251.56s-.364.281-.559.281c-2.128.028-2.94.645-3.5 2.636-.168.644.056 1.037.588 1.345 2.408 1.374 4.872 2.692 7.224 4.15.923.561 1.595 1.514 1.82 2.579.251 1.121.364 2.271.671 3.392.281.954.756 1.262 1.401 1.093.672-.139 1.119-.897.923-1.71-.308-1.429-.699-2.831-1.063-4.233-.392-1.429-.812-2.86-1.176-4.289-.083-.281-.112-.786.169-.954.28-.168.672.084.923.252 1.681 1.01 3.333 1.991 4.984 3.056 1.232.813 2.464 1.654 3.612 2.579.392.309.645.898.812 1.403.28.841.391 1.737.644 2.607.252.869.84 1.514 1.68 1.906.392.197.924.197 1.176-.139.337-.449.364-2.467.868-2.636.251-.083 2.267.757 2.912.954.308.084.868.084 1.036-.225.168-.281-.056-.756-.28-.925-.56-.42-1.205-.7-1.821-1.01-1.175-.589-4.004-2.383-4.564-3.056-1.735-1.991-1.624-3.308-1.595-5.356.027-1.906 2.575-1.401 3.276-1.485 1.26-.14 1.764-.981 1.176-2.046-.392-.729-1.037-1.374-1.708-1.823-.308-.196-1.512-.225-1.176 2.243.027 1.319-1.708.813-1.82-.14-.196-2.607-1.933-9.504-3.724-8.916-.756.252-.784 2.944-.728 3.954.028.281.252.673.504.756 1.512.646 1.791 3.505 1.54 4.346-.028.113-.169.169-.281.113-.867-.505-4.423-2.72-4.899-3.729-.42-.813-1.064-.869-1.681-.196-.588.645-.84 2.187-.42 2.916.504.897 1.4 1.094 2.38 1.121.337 0 .644-.027.98-.084 1.371-.224 2.519.281 3.555 1.01.477.337.785.841.897 1.402.224 1.262.42 2.552.616 3.813.112.757-.281 1.01-.98.645-1.904-.925-3.556-2.214-5.18-3.56-.756-.646-1.54-1.262-2.353-1.794-1.091-.729-1.68-1.71-1.791-3 .026-.592-.954-7.238-1.541-7.826" fill="#9f0810" transform="translate(122.5762 16.7668)"/><path d="m0 0c-.083-.337-.476-.785-.755-.812-.533-.056-.616.42-.533.897.169 1.15.533 1.598 1.344 1.654 0-.589.084-1.178-.056-1.739m1.12 9.561c-.281-.954-.7-.392-.672.308.112 1.711.896.504.672-.308m4.62-.561c-1.176-1.233-2.66-1.766-4.34-1.906-.224-.028-.588-.028-.672.112-.112.14-.056.477.028.7.252.617.532 1.094 1.316 1.374 1.428.504 1.568 1.962 1.904 3.196.168.616.14 1.262-.588 1.514-.645.225-1.093-.196-1.456-.7-.281-.392-.504-.813-.812-1.178-.364-.448-.729-.364-.953.14-.083.196-.112.392-.083.617.083 1.458.168 2.916.224 4.374.028.701-1.456 1.01-1.988 0-.476-.953-.448-1.991-.196-3.056.28-1.121.42-2.299.588-3.448.028-.14-.112-.504-.308-.504-.503 0-.56.925-.672 1.177-1.231 3.168-5.011 1.458-3.303.083 1.596-1.373 2.968-3.168.645-4.85-.7-.504-2.549-2.018-2.605-3.42-.027-.477.196-.869.784-.898.533-.027.756.337.84.786.084.448.056.981.281 1.373.168.337.616.504.923.756.084-.308.252-.616.281-.925.056-.897.699-1.289 1.484-.812.139.083.28.225.42.308.139.056.364.112.476.056.112-.056.168-.308.14-.448-.113-.281-.252-.589-.477-.841-1.204-1.458-2.463-2.917-3.668-4.375-.923-1.121-1.847-2.215-2.771-3.337-.812-.981-1.287-.785-1.903-1.262-.953-.756-1.232-2.131-.589-3.112 1.205-1.766 2.661 1.794 3.387 3 1.933 3.169 3.192 4.318 3.808 4.71.196.14.476 0 .503-.252 0-.113 0-.196-.027-.308-.139-.449-.392-.869-.559-1.319-.392-1.065-.14-1.598.952-1.935.588-.168.896-.476.98-1.065.083-.532.391-.869.979-.981.645-.14.756-.448.281-.897-.84-.842-1.456-1.711-.812-2.917-.672-.196-.952.169-1.148.561-.168.337-.252.7-.447 1.037-.14.225-.337.589-.617.561-.251-.028-.391-.421-.42-.645-.139-.786-.503-4.094.589-5.721.196-.308.672-.56.952-.504.281.056.616.504.7.813.252 1.01.336 2.046.56 3.056.027.196.308.477.475.448.7-.027 1.036.337 1.401.869 1.119 1.627 1.82 1.514 1.847 1.43.308-.898.672-1.823.812-2.776.14-.841-.112-.953-.98-.953-.28 0-.784-.084-.84-.309-.252-.898 1.204-2.299 1.847-2.831.728-.589 1.596-.477 2.128.308.392.589.7 1.373.672 2.046-.027 1.178-.364 2.356-.56 3.534-.027.252-.027.616.14.729.14.112.533.055.728-.085.42-.252.812-.56 1.176-.897.699-.616 1.316-1.346 2.072-1.906.644-.477 1.371-.281 1.876.308.504.617.504 1.262-.084 1.879-.42.421-.867.841-1.316 1.233-1.316 1.15-2.296 1.711-4.62 1.262-.364-.083-1.344.898-.281 1.823.477.421 1.036.757 1.513 1.206.337.308.84.757.784 1.038-.084.42-.56.981-.953 1.064-.896.169-1.427.477-1.539 1.403 0 .112-.14.28-.281.336-.979.393-.952 1.206-.867 2.047.083.981 0 1.878-1.12 2.355-.476.225-.559.757-.139 1.206.308.308.644.56 1.008.785 1.232.73 2.463 1.43 3.696 2.159.949.451.781 3.704-1.206 1.601" fill="#9f0810" transform="translate(176.2203 31.6263)"/><path d="m0 0c-1.371.533-2.8.925-4.227 1.29-.953.252-1.288-.028-1.232-1.038.084-1.794.56-8.579-.168-9.813-.728-1.262-1.933-1.738-2.296-1.822-.673-.196-1.401.028-1.345.7.057.477 2.884 9.646 1.176 11.944-.056.168-.336.337-.447.364-.252.113-.672-.756-.616-.981-.448-2.496-2.297-2.523-4.313-2.019-.336.084-.671.309-.952.505-.504.392-.728.841-.336 1.514.896 1.486 1.791 3.281 2.632 4.767.195.308.28.672.419 1.037.533 1.318-.671 2.523-1.26 3.504-.504.617-1.735 2.888-1.595 3.702.112.729.811 1.065 1.511.785 1.009-.392 1.765-1.121 2.353-2.019.728-1.065 1.764-1.485 2.632-.477.336.365.811 1.263 1.063 1.683.672 1.206 5.432 1.794 3.948-.897-.588-1.065-1.427-2.552-2.015-3.646-.448-.869-.868-1.766-1.205-2.691-.28-.673-.027-1.486.588-1.85 5.404-3.252 10.583-.813 12.012.112 1.119.729 2.268.56 2.856-.252 1.204-1.907-4.284-6.112-9.183-4.402" fill="#9f0810" transform="translate(222.529 44.2434)"/><path d="m0 0c-.056-.252-.28-.421-.532-.364-.225.027-.476.083-.533.14-.224.168-.308.42-.083.645 0 0 .336.084.616.112.28.056.56-.196.532-.477.028.028 0-.028 0-.056m.7-4.963c-.309-.393-.672-.449-1.009-.113-.28.308-.532.673-.699 1.065-.337.785-.812 1.373-1.652 1.683-.56.196-.672.533-.476 1.233.84-.533 1.651-1.037 2.463-1.57.392-.252.755-.561 1.148-.841.533-.335.616-.925.225-1.457m4.451-5.327c-.476-.421-.979-.701-1.4-.281-.755.841 1.008 1.234 1.4.281m.28 12.617c-.672-.785-1.176-1.71-1.708-2.608-.364-.589-.812-.785-1.288-.364-.28.224-.56.589-.645.925-.224 1.233-1.539 4.485-3.247 3.841-.84-.308-1.317-1.009-1.456-1.935-.084-.533.083-2.775-1.205-1.85-.588.421-1.204.813-1.847 1.121-.448.225-.868-.084-1.009-.477-.083-.252.057-.673.281-.897 1.287-1.263 1.483-1.851 1.82-2.579.14-.309-.224-.898-.756-.421-.224.196-1.316 1.737-2.211 2.158-.281.14-.896.084-1.176-.112-.588-.448 1.064-2.664 1.708-3.308 1.26-1.234 2.52-2.523 4.172-3.281.532-.252 1.035-.561 1.483-.925.392-.308.364-.813 0-1.15-.14-.14-.588-.225-.755-.112-.673.504-1.317 1.065-1.904 1.654-1.26 1.29-5.852 6.056-5.628.196.14-.617 1.176-.701 1.456.168.169.534.421.673.812.252.98-.924 1.932-1.878 2.912-2.803.504-.477 1.092-.926 1.568-1.43.169-.196.392-.617.196-.841-.168-.225-.644-.14-.812 0-.476.337-.895.785-1.26 1.233-.308.392-.923.869-1.231.337-.169-.308.139-.7.28-.981.84-1.85 2.66-6.589 3.892-7.01 1.344-.448 2.604 1.177 1.26 2.72-.979 1.149-.924 2.158-.28 3.448.923 1.85 2.715 6.981 3.499 6.56.728-.392.056-2.439-.252-3.168-.588-1.346-1.287-2.665-1.988-3.954-.224-.421-.476-.785-.112-1.177.391-.421.952-.505 1.371-.14.504.448.924 1.01 1.317 1.57.391.617.896.842 1.427.561.532-.281.645-.757.252-1.43-.448-.729-.952-1.429-1.371-2.187-.504-.841-.785-1.85-.14-2.635.672-.813 3.304-.421 4.088 1.345.336.786.644 1.571 1.008 2.356.42.869 1.008 1.037 1.568.281.7-.898 1.289-1.906 1.821-2.916.224-.421.588-1.571-2.493-2.944-.28-.113-1.119-.477-1.119-.954.028-.42 1.596-.729 2.212-.673 6.411.449 5.712 4.991 4.004 7.038-1.036 1.262-2.016 2.579-2.996 3.869-.616.812-.504 1.262.364 1.878.448.309.924.617 1.344.982.812.645.7 1.653-.168 2.046-.337.168-.728.281-1.092.364-1.009.196-1.792-.168-2.297-1.065-.28-.476-.503-1.009-.811-1.458-.448-.645-.897-1.289-1.736-1.429-.112-.028-.195.083-.168.196.448 1.149 0 2.495-.504 3.56-.168.365-.364.786-.336 1.15.224 2.019 1.512 4.01 3.584 4.711.699.252.896.672.533 1.317-.253.421-.504.813-.841 1.15-.786.844-2.382 1.404-3.39.227" fill="#9f0810" transform="translate(244.984 84.9538)"/><path d="m0 0c-78.871-.224-142.622-64.373-142.37-143.214s64.367-142.598 143.238-142.346c78.87.253 142.622 64.374 142.37 143.215s-64.368 142.597-143.238 142.345m150.433-142.345c.252-82.85-66.719-150.196-149.565-150.448s-150.182 66.7-150.434 149.551 66.692 150.196 149.537 150.448c82.847.252 150.238-66.701 150.462-149.551" fill="#006b38" transform="translate(149.5667 292.7934)"/><path d="m0 0c-53.785-.168-97.265-43.906-97.098-97.682.169-53.775 43.902-97.262 97.685-97.093 53.784.169 97.265 43.907 97.097 97.682-.167 53.776-43.9 97.262-97.684 97.093m101.269-97.093c.168-55.767-44.909-101.102-100.681-101.27-55.772-.169-101.1 44.888-101.269 100.653-.168 55.766 44.909 101.13 100.681 101.299s101.101-44.915 101.269-100.682" fill="#006b38" transform="translate(149.7064 247.4011)"/><path d="m0 0c44.796.14 82.65 29.411 95.754 69.841-.337 0-.645.028-.98.028-43.733-.14-80.886-28.066-94.802-67.009-14.139 38.86-51.46 66.561-95.193 66.421-.307 0-.644-.028-.952-.028 13.354-40.347 51.376-69.393 96.173-69.253" fill="#006b38" transform="translate(150.2103 49.0657)"/><path d="m0 0c-1.512 0-2.772 1.233-2.772 2.748 0 1.514 1.232 2.747 2.744 2.775 1.512 0 2.772-1.233 2.772-2.748.028-1.542-1.203-2.775-2.744-2.775m5.067 2.748c0 2.803-2.296 5.074-5.095 5.074-2.8 0-5.067-2.299-5.067-5.074 0-2.804 2.296-5.075 5.095-5.048 1.008 0 1.96.309 2.744.842v-1.206c0-1.542-1.232-2.775-2.772-2.775-1.344 0-2.604 1.064-2.66 2.214l-2.296-.617c.532-2.271 2.548-3.953 4.955-3.953 2.8 0 5.068 2.299 5.068 5.102z" fill="#006b38" transform="translate(142.5944 107.9999)"/><path d="m0 0c-.812 0-1.539-.225-2.212-.589l.924 4.064 5.124.028v2.019l-6.971-.028-1.933-8.327 2.772-.729c.476.757 1.316 1.262 2.267 1.262 1.512 0 2.744-1.233 2.744-2.747 0-1.515-1.232-2.748-2.744-2.776-1.399 0-2.631.869-2.771 2.243l-2.268-.616c.42-2.356 2.576-3.954 5.068-3.954 2.8 0 5.04 2.3 5.04 5.075 0 2.832-2.269 5.075-5.04 5.075" fill="#006b38" transform="translate(154.9138 110.3271)"/><path d="m0 0-7.839-.028c0 1.571 1.232 2.86 2.744 2.86 2.8 0 5.068 2.356 5.068 5.244 0 2.887-2.296 5.243-5.095 5.214-2.8 0-5.068-2.355-5.068-5.243 0-.252.027-.505.056-.757l2.267.617-.027.14c0 1.571 1.232 2.86 2.744 2.86s2.771-1.262 2.771-2.831c0-1.57-1.231-2.86-2.743-2.86-2.8 0-5.068-2.356-5.041-5.244v-.001-2.327l10.163.029z" fill="#006b38" transform="translate(172.3282 102.5329)"/><path d="m0 0-.055 13.346h-2.296l-2.184-.672v-2.272l2.184.673.028-11.075h-2.464l.029-2.327 8.147.029-.029 2.327z" fill="#006b38" transform="translate(132.4587 102.5042)"/><g fill="#9f0810"><path d="m0 0-.785 3.42 17.024 3.898.784-3.42-9.996-10.403 11.76 2.692.784-3.42-17.023-3.898-.784 3.421 9.996 10.401z" transform="translate(24.2195 124.7383)"/><path d="m0 0c-1.092.925-2.492 1.318-4.228 1.234-1.735-.113-3.079-.674-4.031-1.711-.98-1.037-1.4-2.355-1.316-3.925.083-1.57.699-2.832 1.791-3.757s2.492-1.345 4.228-1.233c1.707.113 3.051.673 4.031 1.738s1.428 2.356 1.316 3.954c-.112 1.513-.699 2.775-1.791 3.7m5.012-3.56c.139-2.523-.56-4.683-2.128-6.477-1.569-1.823-3.641-2.804-6.244-2.944-2.575-.168-4.759.589-6.551 2.187-1.791 1.627-2.744 3.673-2.884 6.168-.139 2.496.56 4.655 2.128 6.477 1.568 1.823 3.641 2.804 6.244 2.944 2.576.14 4.76-.56 6.551-2.187 1.764-1.599 2.715-3.673 2.884-6.168" transform="translate(34.6902 146.5793)"/><path d="m0 0 5.068-.476.28 2.887c.084.869-.083 1.571-.503 2.075-.421.504-1.009.785-1.792.869-.784.084-1.427-.113-1.904-.533-.503-.421-.784-1.065-.868-1.963zm7.756-.729 6.915-.645-.337-3.505-17.331 1.627.589 6.393c.196 2.019.84 3.504 1.932 4.486 1.092.981 2.38 1.429 3.864 1.289 1.092-.112 2.071-.533 2.968-1.289.868-.757 1.427-1.851 1.651-3.309l7.532 3.757-.392-4.15-7.279-3.504z" transform="translate(24.8911 158.8872)"/><path d="m0 0-2.632.617 2.912 12.589 2.632-.617-1.063-4.598 14.335-3.337-.784-3.392-14.335 3.337z" transform="translate(26.375 171.8685)"/><path d="m0 0 1.288 3.281 16.21-6.308-1.287-3.281-6.945 2.719-2.715-6.981 6.944-2.719-1.288-3.281-16.21 6.309 1.288 3.28 6.776-2.636 2.715 6.982z" transform="translate(31.9463 199.7092)"/><path d="m0 0 2.352-1.318-3.191-5.72 3.975-2.243 2.828 5.047 2.352-1.318-2.827-5.048 4.2-2.356 3.191 5.721 2.352-1.318-4.899-8.776-15.23 8.552z" transform="translate(40.6258 216.7848)"/><path d="m0 0 2.996 3.981-7.307 2.355zm8.96 1.99-3.276 1.065-4.088-5.41 1.932-2.861-2.24-2.972-10.248 15.449 2.52 3.337 17.639-5.608z" transform="translate(55.2964 217.9622)"/><path d="m0 0c-.504-.505-.784-1.01-.84-1.598-.056-.561.139-1.065.588-1.515.448-.448.896-.672 1.4-.7.476-.028.98.084 1.484.308.503.252 1.035.533 1.595.869.56.338 1.12.646 1.736.954.588.281 1.204.505 1.791.673.589.14 1.232.112 1.877-.084.644-.196 1.288-.616 1.903-1.233 1.008-1.01 1.456-2.3 1.4-3.841-.083-1.543-.784-2.973-2.128-4.29-1.344-1.346-2.743-2.103-4.2-2.271-1.456-.196-2.744.281-3.892 1.429l2.66 2.636c1.176-.981 2.324-.925 3.472.224.56.561.868 1.15.897 1.795.027.617-.196 1.177-.672 1.682-.476.477-1.093.674-1.821.505-.728-.14-1.455-.448-2.211-.925-.755-.477-1.539-.925-2.38-1.346-.811-.421-1.708-.589-2.631-.533-.924.056-1.821.505-2.632 1.346-1.12 1.121-1.596 2.41-1.456 3.897.139 1.486.867 2.86 2.127 4.121 1.288 1.262 2.605 1.991 3.949 2.187 1.371.196 2.66-.28 3.92-1.401l-2.716-2.719c-.504.42-1.063.616-1.652.588-.532-.002-1.092-.254-1.568-.758" transform="translate(61.3727 238.71)"/><path d="m0 0-1.624 2.131 10.247 7.823 1.625-2.132-3.752-2.86 8.932-11.72-2.772-2.131-8.931 11.72z" transform="translate(68.9035 245.7196)"/><path d="m0 0-7.812 15.589 9.632 4.823 1.204-2.411-6.495-3.252 2.044-4.094 4.955 2.496 1.204-2.411-4.956-2.496 3.333-6.673z" transform="translate(96.0899 246.672)"/><path d="m0 0c.615 1.29.644 2.775.083 4.402-.532 1.654-1.456 2.803-2.687 3.477-1.261.672-2.632.756-4.144.252-1.513-.504-2.549-1.402-3.164-2.692-.616-1.289-.645-2.775-.113-4.402.533-1.626 1.456-2.804 2.716-3.476 1.26-.674 2.66-.757 4.144-.281 1.513.533 2.578 1.43 3.165 2.72m-2.127-5.748c-2.38-.785-4.648-.645-6.803.392-2.156 1.065-3.641 2.804-4.452 5.271-.812 2.467-.672 4.767.448 6.897 1.091 2.131 2.855 3.589 5.206 4.375 2.381.785 4.648.645 6.804-.393 2.155-1.064 3.64-2.803 4.452-5.27.811-2.467.671-4.767-.42-6.898-1.12-2.131-2.855-3.589-5.235-4.374" transform="translate(117.3683 260.551)"/><path d="m0 0 .84-5.019 2.856.477c.868.14 1.484.477 1.876 1.01s.504 1.177.392 1.963c-.14.784-.448 1.345-.98 1.71-.532.364-1.232.504-2.099.336zm1.26-7.682 1.12-6.841-3.472-.56-2.828 17.186 6.328 1.038c1.989.337 3.584.083 4.844-.729 1.232-.813 1.988-1.963 2.212-3.421.168-1.094.027-2.159-.477-3.196-.503-1.037-1.427-1.85-2.772-2.439l5.545-6.337-4.116-.673-5.236 6.168z" transform="translate(126.804 273.1674)"/><path d="m0 0 .083-2.691-6.523-.225.169-4.57 5.796.197.084-2.692-5.796-.196.168-4.822 6.524.224.083-2.691-10.052-.338-.615 17.469z" transform="translate(150.6018 278.1295)"/><path d="m0 0c-.699.056-1.288-.056-1.735-.392-.476-.308-.728-.785-.784-1.429-.057-.617.056-1.15.336-1.514.281-.393.7-.701 1.204-.926.504-.252 1.064-.448 1.681-.673.616-.196 1.232-.448 1.848-.729.615-.28 1.175-.589 1.68-.953.504-.365.896-.869 1.148-1.486.28-.645.364-1.374.28-2.243-.139-1.43-.811-2.608-2.043-3.533s-2.771-1.29-4.647-1.121c-1.877.168-3.36.756-4.424 1.738-1.063.981-1.54 2.299-1.4 3.897l3.724-.337c0-1.542.784-2.383 2.408-2.523.783-.084 1.455.084 1.932.448.504.365.784.898.84 1.598s-.196 1.262-.784 1.71c-.589.448-1.288.813-2.128 1.094-.841.281-1.708.589-2.549.954-.84.364-1.539.925-2.099 1.682s-.756 1.711-.672 2.888c.14 1.57.841 2.775 2.043 3.617 1.232.841 2.744 1.177 4.536 1.009 1.789-.14 3.217-.701 4.225-1.626 1.009-.925 1.513-2.215 1.456-3.897l-3.836.336c0 .674-.196 1.207-.588 1.655-.391.448-.951.673-1.652.756" transform="translate(161.269 274.9335)"/><path d="m0 0 .588 2.636 12.571-2.832-.588-2.635-4.591 1.037-3.248-14.383-3.416.757 3.248 14.383z" transform="translate(171.4324 273.644)"/><path d="m0 0-1.764-4.767 2.716-1.009c.811-.308 1.539-.337 2.128-.056.588.252 1.036.756 1.316 1.485.281.729.281 1.402 0 1.992-.28.588-.84 1.037-1.652 1.345zm-2.715-7.289-2.407-6.505-3.304 1.234 6.075 16.345 5.991-2.243c1.877-.701 3.164-1.711 3.836-3.029.673-1.318.756-2.691.225-4.065-.392-1.037-1.064-1.878-2.016-2.523-.953-.645-2.155-.897-3.612-.729l1.652-8.271-3.892 1.459-1.483 7.962z" transform="translate(191.255 268.3733)"/><path d="m0 0-3.08 1.683 2.856 5.271.281 12.868 3.472-1.879-.644-8.999 7.167 5.467 3.472-1.879-10.612-7.234z" transform="translate(204.2467 246.3923)"/><path d="m0 0 6.971 8.159 2.661-2.3-6.971-8.158c-.785-.898-1.149-1.795-1.064-2.665.056-.869.532-1.654 1.371-2.41.868-.729 1.709-1.066 2.576-1.01s1.68.56 2.463 1.458l6.972 8.158 2.66-2.271-6.971-8.158c-1.428-1.683-3.052-2.496-4.872-2.523-1.82 0-3.472.645-4.984 1.935s-2.38 2.804-2.632 4.57c-.224 1.794.392 3.533 1.82 5.215" transform="translate(220.9893 243.6163)"/><path d="m0 0 2.268-2.691-13.271-11.327-2.296 2.691 4.059 13.85-9.183-7.85-2.268 2.691 13.271 11.327 2.268-2.691-4.06-13.85z" transform="translate(250.1353 229.9059)"/><path d="m0 0 14.419 9.758 1.96-2.917-14.419-9.757z" transform="translate(240.8675 213.0835)"/><path d="m0 0 12.432 13.767 1.735-3.281-10.052-10.71 14.503 2.27 1.735-3.308-18.367-2.467z" transform="translate(247 203.2708)"/><path d="m0 0-2.52-.925-2.24 6.139-4.283-1.57 1.959-5.439-2.519-.926-1.989 5.44-4.535-1.654 2.24-6.14-2.519-.925-3.444 9.448 16.408 5.972z" transform="translate(272.2538 188.7474)"/><path d="m0 0-4.955-1.093.616-2.832c.195-.869.559-1.459 1.119-1.823s1.204-.448 1.96-.28 1.316.532 1.652 1.093c.336.56.42 1.262.224 2.131zm-7.588-1.682-6.775-1.514-.756 3.448 16.994 3.785 1.401-6.252c.447-1.962.28-3.589-.477-4.879-.756-1.289-1.847-2.074-3.276-2.41-1.064-.225-2.128-.14-3.22.308-1.063.448-1.932 1.318-2.576 2.664l-6.02-5.888-.896 4.065 5.879 5.579z" transform="translate(271.8619 179.635)"/><path d="m0 0c-.056.7-.281 1.262-.672 1.654-.392.421-.897.589-1.54.533-.645-.056-1.119-.252-1.427-.589-.337-.365-.56-.813-.729-1.346-.168-.533-.28-1.15-.363-1.794-.113-.645-.225-1.289-.392-1.935-.167-.645-.392-1.262-.644-1.794-.281-.561-.7-1.01-1.288-1.402-.588-.364-1.288-.589-2.156-.673-1.427-.112-2.687.365-3.807 1.402-1.12 1.065-1.764 2.524-1.904 4.402-.139 1.879.168 3.449.953 4.683.784 1.233 1.988 1.906 3.611 2.046l.308-3.729c-1.512-.252-2.212-1.177-2.072-2.804.056-.785.308-1.402.784-1.85.448-.421 1.009-.617 1.708-.561.7.057 1.204.392 1.568 1.066.337.645.589 1.401.728 2.299.14.897.308 1.794.504 2.692.225.897.645 1.682 1.288 2.355.644.673 1.568 1.065 2.715 1.15 1.568.112 2.884-.337 3.92-1.402s1.624-2.495 1.764-4.318c.14-1.794-.14-3.281-.897-4.43-.728-1.15-1.932-1.85-3.583-2.102l-.309 3.841c.645.112 1.176.421 1.513.869.306.476.475 1.037.419 1.737" transform="translate(275.1375 160.121)"/><path d="m0 0 17.415-.309-.056-3.532-17.415.308z" transform="translate(260.7182 149.467)"/><path d="m0 0 2.688-.309-1.428-12.841-2.687.309.532 4.682-14.615 1.627.391 3.477 14.616-1.626z" transform="translate(275.3615 142.009)"/><path d="m0 0 .84 3.42 5.796-1.458 12.515 2.944-.952-3.841-8.848-1.627 7.056-5.579-.952-3.841-9.659 8.495z" transform="translate(256.9945 121.0092)"/></g><path d="m0 0h41.045l-78.254 96.476-78.226-96.476h41.017l13.495 16.625 13.466-16.625h24.695l-25.814 31.822 11.367 14.046z" fill="#006b38" transform="translate(186.6911 132.0563)"/></g></svg>