<svg height="273.978589" viewBox="0 0 292 219" width="364.992025" xmlns="http://www.w3.org/2000/svg"><g fill="#003685"><path d="m270.933594 114.609375c-.039063 2.183594-.34375 4.335937-.644532 6.496094-.386718 2.796875-.933593 5.558593-1.597656 8.292969-1.855468 7.628906-4.671875 14.878906-8.359375 21.785156-4.234375 7.925781-9.460937 15.117187-15.542969 21.671875-7.839843 8.453125-16.765624 15.519531-26.605468 21.40625-10.257813 6.136719-21.148438 10.757812-32.59375 14.050781-4.710938 1.351562-9.46875 2.453125-14.289063 3.320312-2.789062.503907-5.582031.921876-8.394531 1.257813-3.136719.371094-6.285156.671875-9.4375.839844-.714844.035156-1.425781.085937-2.140625.136719-.925781.007812-1.847656.023437-2.773437.03125-.300782-.015626-.597657-.046876-.90625-.046876-2.007813-.003906-4.007813-.003906-6.015626 0-.296874 0-.597656.03125-.902343.046876-.871094 0-1.738281-.097657-2.613281-.023438-1.921876-.125-3.839844-.210938-5.753907-.378906-1.941406-.160156-3.875-.394532-5.816406-.597656-1.695313-.175782-3.382813-.4375-5.058594-.695313-2.855469-.429687-5.6875-.957031-8.507812-1.570313-6.421875-1.394531-12.730469-3.203124-18.914063-5.472656-10.429687-3.824218-20.285156-8.8125-29.496094-15.105468-7.398437-5.050782-14.1875-10.832032-20.273437-17.453126-6.957031-7.546874-12.769531-15.914062-17.234375-25.222656-3.359375-7.007812-5.8125-14.335937-7.316406-21.980468-.460938-2.328126-.808594-4.671876-1.074219-7.027344-.28125-2.527344-.464844-5.058594-.523437-7.601563.015624-.167969.058593-.328125.050781-.496093-.050781-1.253907-.050781-2.511719 0-3.765626.007812-.160156-.03125-.328124-.050781-.496093.050781-2.234375.1875-4.46875.421874-6.6875.488282-4.644531 1.320313-9.21875 2.527344-13.730469 3.277344-12.265625 8.914063-23.324219 16.519532-33.371094 6.074218-8.015625 13.140624-15.007812 21.054687-21.132812 9.789063-7.578125 20.46875-13.535156 31.921875-18.074219 7.511719-2.976563 15.210938-5.285156 23.109375-6.941406 3.117187-.65625 6.257813-1.207031 9.410156-1.671875 3.265625-.480469 6.542969-.839844 9.828125-1.09375 2.269532-.175782 4.554688-.265625 6.832032-.386719.269531.011719.539062.042969.808593.035156 2.730469-.058593 5.460938-.058593 8.183594 0 .300781.007813.601563-.023437.898437-.035156 2.058594.113281 4.117188.203125 6.175782.347656 1.5625.109375 3.125.261719 4.679687.425781 1.503907.160157 3 .355469 4.503907.539063 2.292968.285156 4.570312.664063 6.839843 1.078125 3.890625.71875 7.753907 1.59375 11.570313 2.621094 14.796875 4.007812 28.640625 10.191406 41.363281 18.894531 6.957031 4.75 13.371094 10.167969 19.191406 16.316406 7.058594 7.460938 12.992188 15.730469 17.601563 24.972657 3.429687 6.882812 5.984375 14.082031 7.621094 21.621093.605468 2.8125 1.078124 5.644531 1.394531 8.503907.136719 1.308593.304687 2.605468.3125 3.921874 0 .355469-.007813.707032 0 1.066407.007812.21875-.023438.445312.152343.621093v9.050782c-.246093.5625-.160156 1.136718-.136718 1.707031zm-126.261719 96.726563c1.867187-.023438 3.738281-.03125 5.605469-.109376 2.007812-.097656 4.007812-.199218 6.007812-.351562 3.066406-.234375 6.125-.578125 9.175782-1.007812 3.453124-.488282 6.882812-1.109376 10.300781-1.855469 7.832031-1.699219 15.46875-4.050781 22.902343-7.085938 11.386719-4.65625 21.964844-10.746093 31.601563-18.5 8.042969-6.472656 15.125-13.882812 21.074219-22.394531 5.21875-7.46875 9.351562-15.503906 12.242187-24.199219 2.09375-6.292969 3.460938-12.746093 4.078125-19.359375.25-2.621094.375-5.242187.375-7.863281.007813-2.738281-.109375-5.476563-.375-8.199219-.277344-2.890625-.675781-5.765625-1.238281-8.613281-1.5625-7.925781-4.175781-15.488281-7.78125-22.703125-4.679687-9.371094-10.753906-17.714844-17.996094-25.191406-5.429687-5.613282-11.394531-10.585938-17.820312-14.988282-9.808594-6.730468-20.367188-11.914062-31.5625-15.757812-5.082031-1.746094-10.242188-3.167969-15.476563-4.324219-3.410156-.742187-6.847656-1.363281-10.300781-1.851562-2.039063-.292969-4.089844-.542969-6.140625-.738281-2.269531-.21875-4.539062-.394532-6.816406-.519532-2.746094-.152344-5.496094-.226562-8.242188-.210937-3.433594.023437-6.871094.125-10.292968.386719-2.796876.21875-5.585938.488281-8.367188.847656-3.648438.472656-7.277344 1.09375-10.882812 1.839844-7.738282 1.605468-15.292969 3.851562-22.652344 6.765624-12.847656 5.089844-24.675782 11.964844-35.289063 20.945313-7.175781 6.074219-13.535156 12.925781-18.921875 20.6875-7.640625 11.015625-12.882812 23.074219-15.257812 36.375-.648438 3.664063-1.078125 7.351563-1.230469 11.058594-.191406 4.46875-.082031 8.9375.421875 13.390625.335938 2.941406.789062 5.859375 1.410156 8.757812 1.773438 8.234375 4.683594 16.039063 8.632813 23.449219 5.039062 9.4375 11.476562 17.773437 19.089843 25.199219 6.214844 6.058594 13.03125 11.316406 20.382813 15.863281 9.050781 5.597656 18.644531 9.984375 28.734375 13.261719 5.394531 1.761718 10.867188 3.175781 16.429688 4.265625 3.773437.742187 7.578124 1.320312 11.402343 1.757812 2.949219.335938 5.90625.59375 8.871094.753907 2.628906.152343 5.269531.269531 7.90625.21875zm0 0"/><path d="m270.933594 114.609375c-.023438-.570313-.109375-1.144531.144531-1.6875v1.679687h-.074219zm0 0"/><path d="m271.078125 103.863281c-.175781-.175781-.144531-.398437-.152344-.621093-.007812-.355469 0-.707032 0-1.0625.050781.019531.101563.019531.152344.003906zm0 0"/><path d="m143.796875 8.746094c3.859375 0 6.859375.066406 9.847656.261718 2.21875.144532 4.4375.34375 6.648438.585938 3.277343.355469 6.542969.824219 9.789062 1.414062 10.585938 1.933594 20.820313 5.039063 30.675781 9.433594 8.5625 3.816406 16.628907 8.519532 24.125 14.195313 7.664063 5.8125 14.527344 12.46875 20.417969 20.128906 5.453125 7.078125 9.878907 14.765625 13.125 23.140625 1.929688 4.96875 3.390625 10.089844 4.359375 15.335938.488282 2.636718.832032 5.292968 1.066406 7.964843.320313 3.597657.394532 7.199219.242188 10.796875-.167969 3.992188-.628906 7.957032-1.375 11.882813-2.226562 11.769531-6.78125 22.542969-13.335938 32.464843-5.636718 8.535157-12.460937 15.957032-20.257812 22.476563-8.855469 7.386719-18.59375 13.285156-29.097656 17.890625-7.585938 3.332031-15.410156 5.898438-23.460938 7.769531-3.644531.847657-7.316406 1.539063-11.007812 2.09375-2.007813.300781-4.03125.546875-6.054688.753907-3.445312.347656-6.898437.574218-10.359375.691406-2.632812.089844-5.277343.117187-7.910156.042968-2.941406-.078124-5.878906-.21875-8.804687-.480468-3.425782-.304688-6.824219-.722656-10.21875-1.261719-7.316407-1.167969-14.492188-2.90625-21.53125-5.234375-9.992188-3.316406-19.472657-7.753906-28.386719-13.433594-7.863281-5.007812-15.0625-10.847656-21.492188-17.652344-6.964843-7.363281-12.761719-15.5625-17.175781-24.753906-3.214844-6.679687-5.550781-13.664062-6.964844-20.964844-.578125-2.984374-.980468-6-1.234375-9.035156-.269531-3.292968-.363281-6.585937-.234375-9.878906.335938-8.804688 2-17.335938 4.992188-25.609375 3.6875-10.167969 9.074218-19.328125 15.910156-27.621094 6.027344-7.328125 12.949219-13.679687 20.613281-19.199219 9.914063-7.132812 20.667969-12.59375 32.140625-16.59375 5.929688-2.066406 11.972656-3.699218 18.128906-4.917968 3.261719-.652344 6.539063-1.191406 9.839844-1.601563 2.5625-.320312 5.132813-.597656 7.707032-.734375 1.425781-.082031 2.855468-.214844 4.277343-.265625 1.957031-.058593 3.914063-.070312 4.996094-.085937zm.816406 198.214844c4.371094-.019532 8.730469-.210938 13.089844-.613282 2.957031-.269531 5.90625-.625 8.832031-1.09375 3.804688-.597656 7.570313-1.359375 11.308594-2.277344 8.167969-2 16.082031-4.738281 23.730469-8.269531 9.636719-4.445312 18.585937-10.007812 26.753906-16.855469 8.308594-6.972656 15.476563-14.972656 21.246094-24.253906 6.789062-10.925781 11.136719-22.753906 12.640625-35.621094.335937-2.863281.519531-5.730468.554687-8.609374.046875-3.554688-.152343-7.085938-.5625-10.621094-.355469-3.050782-.875-6.078125-1.574219-9.066406-1.753906-7.511719-4.492187-14.644532-8.140624-21.417969-5.160157-9.578125-11.8125-17.949219-19.703126-25.332031-7.195312-6.734376-15.160156-12.371094-23.777343-17.066407-9.070313-4.941406-18.605469-8.679687-28.554688-11.34375-4.761719-1.269531-9.570312-2.269531-14.441406-3.015625-2.414063-.371094-4.847656-.664062-7.277344-.910156-2.648437-.273438-5.3125-.476562-7.972656-.578125-5.414063-.195313-10.824219-.167969-16.234375.234375-3.203125.238281-6.402344.574219-9.585938 1.015625-3.320312.457031-6.621093 1.042969-9.898437 1.757813-9.078125 1.976562-17.875 4.832031-26.367187 8.671874-10.636719 4.8125-20.453126 10.957032-29.300782 18.667969-7.375 6.421875-13.796875 13.691407-19.074218 21.984375-7.449219 11.734375-12.074219 24.464844-13.398438 38.390625-.246094 2.644531-.363281 5.292969-.355469 7.953125.007813 3.523438.234375 7.027344.699219 10.523438.417969 3.132812 1 6.226562 1.765625 9.285156 2.105469 8.425781 5.449219 16.324219 9.894531 23.742188 4.875 8.144531 10.859375 15.375 17.765625 21.8125 6.839844 6.371093 14.367188 11.773437 22.5 16.308593 13.050781 7.277344 26.972657 12.023438 41.632813 14.578125 4.554687.792969 9.140625 1.34375 13.746094 1.664063 3.351562.234375 6.699218.378906 10.058593.355469zm0 0"/><path d="m145.136719 36.464844c2.578125-.039063 5.621093.109375 8.660156.371094 11.386719.964843 22.382813 3.605468 32.902344 8.183593 7.4375 3.234375 14.378906 7.335938 20.730469 12.445313 6.378906 5.140625 11.914062 11.082031 16.367187 18.03125 3.796875 5.921875 6.605469 12.285156 8.261719 19.164062.585937 2.414063 1 4.859375 1.285156 7.328125.386719 3.371094.453125 6.746094.242188 10.125-.328126 5.378907-1.402344 10.613281-3.175782 15.703125-2.359375 6.773438-5.804687 12.941406-10.167968 18.585938-4.964844 6.421875-10.839844 11.855468-17.457032 16.476562-7.632812 5.335938-15.914062 9.351563-24.714844 12.253906-4.761718 1.570313-9.617187 2.777344-14.542968 3.644532-2.679688.472656-5.371094.816406-8.082032 1.09375-5.402343.546875-10.804687.621094-16.21875.402344-3.023437-.125-6.03125-.410157-9.03125-.808594-11.664062-1.585938-22.804687-4.921875-33.316406-10.347656-7.066406-3.648438-13.585937-8.121094-19.441406-13.570313-5.816406-5.421875-10.738281-11.570313-14.527344-18.628906-2.917968-5.429688-5.007812-11.167969-6.195312-17.234375-.445313-2.269532-.746094-4.570313-.921875-6.882813-.1875-2.433593-.203125-4.863281-.09375-7.285156.152343-3.382813.628906-6.726563 1.378906-10.023437 2.074219-9.105469 6.101563-17.25 11.703125-24.617188 4.808594-6.328125 10.519531-11.695312 16.949219-16.292969 7.898437-5.65625 16.507812-9.871093 25.6875-12.882812 4.527343-1.492188 9.140625-2.644531 13.820312-3.492188 2.511719-.457031 5.042969-.808593 7.585938-1.085937 3.925781-.445313 7.875-.664063 12.3125-.65625zm-.523438 142.335937c2.503907-.015625 5-.113281 7.496094-.277343 2.855469-.191407 5.695313-.5 8.519531-.929688 4.191406-.628906 8.324219-1.511719 12.402344-2.65625 8.679688-2.4375 16.90625-5.957031 24.59375-10.746094 7.15625-4.453125 13.558594-9.8125 19.023438-16.292968 4.503906-5.34375 8.15625-11.21875 10.796874-17.738282 2.394532-5.914062 3.804688-12.0625 4.167969-18.441406.183594-3.152344.109375-6.308594-.238281-9.453125-.375-3.335937-1.007812-6.621094-1.941406-9.839844-2.007813-6.929687-5.191406-13.265625-9.367188-19.089843-4.453125-6.210938-9.789062-11.542969-15.839844-16.132813-7.660156-5.820313-16.0625-10.191406-25.085937-13.351563-6.796875-2.386718-13.765625-4.007812-20.90625-4.914062-2.859375-.363281-5.738281-.632812-8.621094-.75-5.21875-.214844-10.4375-.117188-15.644531.421875-2.320312.242187-4.640625.535156-6.941406.921875-4.695313.785156-9.316406 1.882812-13.855469 3.320312-8.308594 2.628907-16.15625 6.261719-23.460937 11.089844-6.585938 4.347656-12.492188 9.496094-17.542969 15.628906-4.59375 5.570313-8.257813 11.691407-10.820313 18.488282-2.152344 5.703125-3.378906 11.609375-3.671875 17.710937-.128906 2.847657-.050781 5.695313.25 8.535157.363281 3.421874 1.007813 6.789062 1.964844 10.085937 1.925781 6.679687 4.960937 12.820313 8.917969 18.484375 4.234375 6.058594 9.316406 11.292969 15.082031 15.839844 6.394531 5.054687 13.382813 9.066406 20.863281 12.207031 10.039063 4.210937 20.492188 6.636719 31.296875 7.519531 2.847657.242188 5.699219.363282 8.5625.359375zm0 0"/><path d="m156.605469 18.695312c-.121094.488282-.238281.972657-.363281 1.460938-.714844 2.925781-1.585938 5.808594-2.394532 8.707031-.023437.082031-.042968.160157-.066406.242188-.042969.152343-.152344.242187-.296875.242187-.71875-.023437-1.433594-.058594-2.140625-.089844-.25-.015624-.300781-.195312-.335938-.402343-.21875-1.289063-.445312-2.582031-.65625-3.875-.25-1.488281-.511718-2.972657-.746093-4.460938-.175781-1.160156-.304688-2.320312-.460938-3.488281-.011719-.09375-.070312-.144531-.160156-.140625-.027344 0-.070313.089844-.070313.132813.027344.699218.0625 1.394531.085938 2.089843.042969 1.253907.101562 2.507813.101562 3.765625 0 1.394532-.050781 2.796875-.085937 4.191406-.039063 1.253907-.082031 2.507813-.132813 3.765626-.019531.613281.03125.632812-.671874.605468-.65625-.03125-1.320313-.035156-1.976563-.066406-.359375-.015625-.410156-.085938-.394531-.472656.019531-.703125.042968-1.394532.078125-2.097656.105469-2.117188.214843-4.238282.324219-6.355469.152343-2.929688.296874-5.855469.453124-8.785157 0-.027343 0-.058593.003907-.078124.03125-.402344.058593-.445313.425781-.445313.328125 0 .65625.007813.984375.019531.65625.03125 1.320313.054688 1.980469.089844.464844.027344.472656.042969.554687.539062.210938 1.261719.421875 2.535157.625 3.796876.308594 1.898437.621094 3.804687.914063 5.699218.109375.71875.167968 1.441406.261718 2.164063.015626.121093-.027343.269531.101563.355469.160156-.058594.175781-.21875.199219-.34375.386718-2.261719 1.117187-4.429688 1.75-6.625.476562-1.636719.964844-3.265626 1.453125-4.894532.140625-.457031.152343-.472656.644531-.449218.984375.035156 1.976562.085937 2.960938.136718.214843.007813.292968.109375.277343.320313-.121093 2.316406-.246093 4.628906-.371093 6.945312-.066407 1.3125-.136719 2.617188-.195313 3.933594-.082031 1.699219-.15625 3.402344-.234375 5.101563-.03125.554687-.066406 1.117187-.109375 1.671874-.015625.160157-.101563.253907-.269531.25-.578125-.023437-1.15625-.054687-1.730469-.074218-.300781-.015625-.605469-.023438-.90625-.042969-.117187-.007813-.203125-.082031-.203125-.214844 0-.222656 0-.445312.011719-.667969.097656-1.644531.191406-3.292968.292969-4.9375.125-1.917968.300781-3.839843.585937-5.746093.070313-.496094.128906-.992188.195313-1.488281.144531-.472657.210937-.960938.25-1.460938.007812-.078125-.007813-.171875-.125-.160156-.035157.007812-.09375.050781-.109376.089844-.125.515624-.300781 1.015624-.308593 1.546874zm0 0"/><path d="m208.394531 45.011719c.378907-.898438.765625-1.789063 1.144531-2.6875.984376-2.328125 2.042969-4.628907 3.328126-6.808594.46875-.789063.898437-1.601563 1.34375-2.402344.09375-.167969.152343-.367187.417968-.46875.773438.4375 1.582032.898438 2.394532 1.367188.09375.058593.144531.167969.085937.289062-.074219.148438-.160156.292969-.242187.441407-2.75 4.917968-5.503907 9.847656-8.246094 14.765624-.066406.125-.140625.242188-.207032.367188-.101562.179688-.238281.195312-.40625.101562-.769531-.4375-1.535156-.863281-2.300781-1.308593-.3125-.179688-.34375-.238281-.253906-.613281.210937-.898438.429687-1.789063.648437-2.679688.65625-2.675781 1.304688-5.355469 1.984376-8.027344.226562-.890625.503906-1.765625.757812-2.652344.105469-.28125.308594-.539062.175781-1.003906-.160156.371094-.3125.597656-.328125.882813-.335937.546875-.53125 1.152343-.773437 1.742187-1.464844 3.554688-3.242188 6.949219-5.160157 10.273438-.042968.070312-.101562.128906-.144531.1875-.226562.074218-.367187-.085938-.527343-.175782-.648438-.363281-1.292969-.726562-1.941407-1.101562-.167969-.09375-.21875-.234375-.117187-.414062.082031-.148438.160156-.292969.242187-.4375 2.707031-4.847657 5.414063-9.703126 8.132813-14.550782.128906-.234375.21875-.511718.507812-.707031.890625.503906 1.796875 1.019531 2.703125 1.539063.109375.066406.136719.167968.128907.285156-.003907.109375-.019532.21875-.050782.328125-.925781 3.496093-1.714844 7.039062-2.722656 10.511719-.285156.984374-.582031 1.972656-.867188 2.964843-.210937.277344-.226562.621094-.328124.933594-.03125.074219.007812.183594.085937.191406.066406.007813.167969-.058593.191406-.117187.125-.328125.296875-.652344.34375-1.015625zm0 0"/><path d="m34.113281 112.355469c.183594.144531.386719.085937.570313.09375 2.363281.082031 4.730468.109375 7.078125.328125 1.445312.140625 2.890625.359375 4.335937.546875.550782.074219 1.089844.160156 1.628906.25.285157.042969.351563.117187.316407.371093-.109375.863282-.234375 1.714844-.351563 2.570313-.023437.160156-.132812.246094-.285156.226563-.4375-.050782-.867188-.117188-1.308594-.175782-3.671875-.53125-7.335937-1.074218-11.007812-1.605468-1.335938-.191407-2.664063-.371094-4-.5625-.109375-.015626-.21875-.03125-.328125-.050782-.503907-.09375-.53125-.132812-.460938-.65625.109375-.804687.214844-1.605468.335938-2.402344.074219-.480468.097656-.503906.550781-.570312 2.421875-.335938 4.84375-.664062 7.261719-1.007812 2.203125-.3125 4.421875-.503907 6.644531-.671876.128906-.007812.261719-.050781.390625-.085937.015625-.007813.023437-.042969.039063-.066406.027343-.074219.007812-.109375-.058594-.117188-.160156-.015625-.328125-.035156-.488282-.035156-2.089843.007813-4.175781-.089844-6.265624-.183594-1.210938-.058593-2.40625-.210937-3.605469-.378906-1.085938-.152344-2.175781-.3125-3.261719-.476563-.140625-.019531-.269531-.035156-.410156-.070312-.136719-.039062-.261719-.117188-.242188-.285156.117188-.882813.234375-1.773438.359375-2.65625.023438-.167969.144531-.21875.300781-.199219.65625.089844 1.304688.167969 1.960938.261719 3.402344.492187 6.796875.980468 10.199219 1.476562 1.527343.21875 3.042969.4375 4.570312.664063.3125.042969.378907.117187.335938.4375-.117188.941406-.25 1.882812-.371094 2.824219-.023437.160156-.140625.234374-.285156.257812-.679688.101562-1.359375.210938-2.039063.3125-2.144531.320312-4.292968.644531-6.4375.957031-1.765625.253907-3.539062.480469-5.328125.554688-.109375.007812-.21875-.015625-.34375.125zm0 0"/><path d="m108.777344 23.71875c.429687 1.320312.863281 2.640625 1.292968 3.960938.832032 2.570312 1.355469 5.230468 1.960938 7.855468.074219.324219.039062.394532-.277344.484375-.765625.203125-1.539062.398438-2.3125.589844-.253906.066406-.351562.007813-.410156-.269531-.246094-1.089844-.496094-2.175782-.734375-3.257813-.980469-4.371093-1.964844-8.742187-2.929687-13.125-.253907-1.167969-.421876-.902343.738281-1.238281.65625-.191406 1.328125-.34375 1.992187-.503906.308594-.074219.371094-.046875.527344.246094.714844 1.351562 1.414062 2.710937 2.136719 4.050781 1.511719 2.8125 2.949219 5.667969 4.285156 8.570312.066406.183594.117187.367188.191406.542969.042969.101562.125.1875.246094.136719.089844-.035157.074219-.144531.050781-.21875-.070312-.234375-.121094-.480469-.289062-.671875-.453125-1.34375-.898438-2.691406-1.367188-4.035156-.851562-2.453126-1.4375-4.980469-1.976562-7.519532-.109375-.519531-.234375-1.039062-.335938-1.554687-.074218-.351563-.023437-.417969.351563-.519531.714843-.1875 1.4375-.371094 2.160156-.546876.320313-.082031.394531-.035156.464844.285157.21875.949219.433593 1.90625.644531 2.855469 1.015625 4.546874 2.019531 9.09375 3.035156 13.632812.03125.140625.074219.273438.097656.410156.070313.417969.050782.453125-.382812.570313-.792969.210937-1.597656.414062-2.394531.621093-.3125.078126-.371094.050782-.53125-.226562-.058594-.097656-.109375-.199219-.160157-.292969-1.914062-3.585937-3.921874-7.109375-5.710937-10.765625-.011719-.023437-.027344-.046875-.042969-.074218-.144531-.597657-.460937-1.125-.683594-1.695313-.03125-.078125-.125-.117187-.199218-.078125-.027344.011719-.058594.101562-.050782.136719.183594.570312.335938 1.132812.613282 1.644531zm0 0"/><path d="m239.71875 73.671875c-1.828125 2.429687-3.621094 4.816406-5.394531 7.183594-.257813-.03125-.292969-.210938-.375-.34375-.414063-.6875-.832031-1.378907-1.238281-2.074219-.335938-.570312-.375-.496094.085937-1.078125 1.167969-1.484375 2.335937-2.964844 3.496094-4.445313.496093-.636718.992187-1.265624 1.488281-1.898437.089844-.109375.183594-.214844.167969-.367187-.003907-.09375-.058594-.160157-.152344-.144532-.234375.019532-.394531.1875-.574219.304688-1.886718 1.199218-3.769531 2.402344-5.660156 3.59375-.292969.183594-.5625.5625-.917969.445312-.300781-.101562-.378906-.519531-.554687-.804687-.351563-.570313-.6875-1.144531-1.023438-1.714844-.109375-.175781-.058594-.3125.109375-.421875.183594-.117188.371094-.242188.554688-.359375 4.585937-2.917969 9.160156-5.832031 13.746093-8.746094.824219-.523437.695313-.574219 1.210938.285157.628906 1.050781 1.257812 2.101562 1.871094 3.152343.472656.828125.832031 1.6875.992187 2.644531.203125 1.226563-.035156 2.34375-.789062 3.3125-.972657 1.242188-2.226563 2.054688-3.773438 2.359376-1.023437.203124-1.964843-.007813-2.832031-.578126-.117188-.078124-.226562-.160156-.4375-.304687zm-.285156-4.261719c.261718.605469.613281 1.085938 1.117187 1.445313.546875.386719 1.136719.515625 1.792969.335937.6875-.191406 1.257812-.5625 1.6875-1.125.371094-.484375.511719-1.039062.394531-1.652344-.09375-.503906-.277343-.953124-.539062-1.386718-.167969-.277344-.242188-.304688-.527344-.121094-.90625.566406-1.808594 1.152344-2.714844 1.726562-.386719.242188-.78125.5-1.210937.777344zm0 0"/><path d="m67.378906 63.570312c-.746094.890626-1.453125 1.734376-2.195312 2.617188-.730469-.566406-1.351563-1.1875-2.007813-1.773438-.664062-.582031-1.316406-1.179687-1.972656-1.773437-.65625-.589844-1.3125-1.175781-1.984375-1.78125-.621094.621094-1.125 1.285156-1.652344 1.929687-.085937.101563-.042968.210938.039063.289063.160156.15625.320312.300781.488281.453125 1.539062 1.386719 3.082031 2.773438 4.628906 4.167969.167969.148437.328125.300781.488282.453125.109374.109375.136718.242187.035156.367187-.671875.808594-1.34375 1.613281-2.058594 2.472657-4.429688-3.984376-8.824219-7.949219-13.210938-11.898438.40625-.664062 1.683594-2.183594 2.21875-2.65625.226563.195312.453126.394531.679688.589844 1.296875 1.167968 2.589844 2.335937 3.882812 3.496094.144532.132812.292969.257812.4375.378906.101563.082031.203126.039062.300782-.035156.019531-.015626.035156-.035157.058594-.058594.480468-.605469 1.035156-1.152344 1.457031-1.808594-.40625-.644531-1.042969-1.050781-1.582031-1.554688-.949219-.890624-1.929688-1.746093-2.890626-2.613281-.148437-.132812-.285156-.265625-.425781-.394531-.121093-.117188-.121093-.25-.027343-.375.621093-.742188 1.246093-1.488281 1.867187-2.234375.140625-.160156.277344-.144531.425781-.011719.65625.589844 1.3125 1.179688 1.96875 1.773438 3.496094 3.144531 6.996094 6.292968 10.484375 9.4375.144531.152344.304688.308594.546875.542968zm0 0"/><path d="m143.578125 31.566406c-1.097656.007813-2.140625.011719-3.183594.019532-.152343 0-.257812-.070313-.308593-.21875-.09375-.261719-.195313-.523438-.285157-.789063-.78125-2.261719-1.5625-4.53125-2.347656-6.789063-.082031-.230468-.105469-.496093-.300781-.675781-.035156-.03125-.101563-.046875-.152344-.03125-.042969.007813-.117188.050781-.117188.089844-.023437.21875-.035156.445313-.035156.664063v6.957031c0 .925781.078125.832031-.855468.84375-.714844.007812-1.429688.03125-2.148438.039062-.210938 0-.304688-.089843-.3125-.292969-.007812-.195312-.007812-.394531-.007812-.585937 0-5.472656 0-10.949219 0-16.421875 0-1.015625-.117188-.921875.933593-.941406 1.183594-.023438 2.367188-.058594 3.550781-.066406.714844-.007813 1.421876.085937 2.117188.285156 1.792969.507812 2.84375 1.699218 3.152344 3.566406.136718.839844.132812 1.671875-.03125 2.5-.269532 1.394531-.96875 2.472656-2.238282 3.128906-.097656.050782-.199218.105469-.292968.15625-.117188.0625-.140625.171875-.101563.28125.066407.214844.144531.425782.21875.628906.839844 2.242188 1.679688 4.484376 2.519531 6.730469.085938.261719.238282.503907.226563.921875zm-6.738281-12.9375c0 .722656-.007813 1.453125 0 2.175782 0 .34375.0625.394531.371094.410156.445312.019531.875-.050782 1.292968-.210938.707032-.285156 1.179688-.804687 1.386719-1.550781.144531-.546875.144531-1.109375.015625-1.65625-.164062-.691406-.585938-1.183594-1.242188-1.453125-.46875-.1875-.957031-.226562-1.453124-.21875-.292969.007812-.363282.089844-.371094.417969-.007813.691406 0 1.394531 0 2.085937zm0 0"/><path d="m46.953125 81.546875h8.601563c.09375.191406.019531.316406-.03125.445313-.304688.839843-.621094 1.671874-.914063 2.511718-.101563.292969-.253906.445313-.589844.429688-1.539062-.050782-3.074219-.070313-4.613281-.109375-1.125-.019531-2.253906-.042969-3.378906-.0625-.109375 0-.21875.011719-.320313.042969-.039062.007812-.082031.078124-.082031.128906-.007812.054687.015625.125.050781.148437.191407.101563.386719.203125.589844.285157 2.046875.808593 4.097656 1.613281 6.140625 2.429687 1.007812.402344.882812.242187.539062 1.21875-.238281.6875-.496093 1.359375-.75 2.039063-.09375.246093-.191406.289062-.445312.179687-1.480469-.582031-2.964844-1.179687-4.445312-1.765625-3.65625-1.453125-7.316407-2.90625-10.972657-4.351562-.808593-.320313-.640625-.285157-.417969-.933594.410157-1.152344.847657-2.300782 1.28125-3.445313.289063-.789062.640626-1.539062 1.144532-2.210937.613281-.824219 1.363281-1.445313 2.371094-1.710938.570312-.144531 1.148437-.160156 1.714843-.0625.90625.152344 1.753907.472656 2.519531.984375 1.199219.800781 1.898438 1.910157 1.972657 3.394531-.007813.101563.015625.210938.035156.414063zm-2.65625 1.183594c.058594-.773438-.335937-1.636719-1.226563-2.101563-.261718-.140625-.554687-.25-.839843-.328125-.78125-.207031-1.460938 0-2.023438.589844-.328125.351563-.546875.765625-.722656 1.207031-.1875.480469-.195313.480469.257813.664063 1.144531.457031 2.292968.910156 3.445312 1.363281.757812.300781.75.300781.984375-.496094.082031-.285156.125-.585937.125-.898437zm0 0"/><path d="m196.042969 23.03125c1.085937.496094 2.09375.914062 3.101562 1.4375-.140625.320312-.257812.597656-.378906.875-1.535156 3.402344-3.082031 6.796875-4.609375 10.199219-.238281.535156-.449219 1.082031-.648438 1.628906-.101562.285156-.183593.589844-.21875.890625-.078124.570312.140626 1.007812.605469 1.269531.496094.285157 1.015625.226563 1.453125-.144531.253906-.21875.445313-.496094.621094-.78125.351562-.570312.628906-1.175781.90625-1.78125 1.539062-3.402344 3.070312-6.796875 4.613281-10.191406.402344-.882813.292969-.789063 1.117188-.417969.675781.308594 1.355469.613281 2.027343.929687.257813.117188.285157.203126.175782.453126-.210938.480468-.429688.960937-.648438 1.445312-1.386718 3.066406-2.773437 6.136719-4.160156 9.203125-.300781.65625-.613281 1.316406-1.003906 1.929687-.328125.515626-.683594 1.003907-1.121094 1.4375-1.089844 1.066407-2.359375 1.488282-3.855469 1.121094-.78125-.1875-1.511719-.5-2.183593-.945312-1.488282-.988282-2.078126-2.394532-1.832032-4.175782.160156-1.148437.546875-2.214843 1.023438-3.257812 1.335937-2.941406 2.664062-5.882812 3.992187-8.824219.320313-.753906.648438-1.484375 1.023438-2.300781zm0 0"/><path d="m130.144531 26.726562c-.03125 1.09375-.082031 2.234376-.4375 3.335938-.78125 2.421875-2.972656 3.722656-5.433593 3.226562-.835938-.167968-1.523438-.605468-2.109376-1.234374-.507812-.554688-.890624-1.203126-1.203124-1.890626-.472657-1.042968-.796876-2.140624-1.035157-3.257812-.4375-2.019531-.722656-4.066406-.714843-6.136719.003906-1.007812.113281-2.007812.421874-2.972656.78125-2.421875 3.082032-3.738281 5.53125-3.160156.957032.226562 1.6875.78125 2.285157 1.546875.484375.621094.828125 1.316406 1.109375 2.042968.535156 1.332032.847656 2.710938 1.109375 4.113282.140625.765625.257812 1.539062.335937 2.320312.082032.671875.097656 1.34375.140625 2.066406zm-7.570312-6.476562c.023437.808594.101562 1.554688.195312 2.300781.214844 1.683594.476563 3.363281.871094 5.015625.132813.566406.292969 1.128906.53125 1.664063.15625.328125.328125.640625.621094.875.496093.394531 1.148437.3125 1.527343-.203125.167969-.226563.246094-.492188.3125-.769532.183594-.773437.132813-1.554687.066407-2.328124-.160157-1.832032-.421875-3.648438-.773438-5.453126-.167969-.847656-.351562-1.683593-.65625-2.496093-.167969-.445313-.359375-.875-.71875-1.203125-.523437-.484375-1.238281-.394532-1.625.210937-.183593.285157-.277343.605469-.316406.941407-.050781.496093-.09375.992187-.035156 1.445312zm0 0"/><path d="m45.363281 102.980469c-1.703125-.042969-3.160156-.285157-4.605469-.640625-1.5-.375-2.972656-.820313-4.367187-1.492188-.773437-.371094-1.511719-.800781-2.152344-1.378906-.863281-.757812-1.46875-1.679688-1.585937-2.847656-.144532-1.503906.21875-2.882813 1.210937-4.050782.601563-.699218 1.382813-1.078124 2.265625-1.292968 1.117188-.269532 2.238282-.246094 3.363282-.113282 2.082031.238282 4.109374.707032 6.082031 1.4375.90625.335938 1.78125.734376 2.589843 1.277344.554688.363282 1.066407.789063 1.492188 1.3125 1.027344 1.269532 1.238281 2.703125.816406 4.257813-.527344 1.960937-1.855468 3.144531-3.839844 3.40625-.496093.066406-.984374.15625-1.269531.125zm.386719-3.421875c.277344-.015625.546875-.03125.824219-.058594.132812-.015625.269531-.066406.394531-.117188.800781-.328124 1.007812-1.152343.460938-1.839843-.226563-.285157-.519532-.503907-.847657-.65625-.445312-.210938-.898437-.417969-1.367187-.585938-1.992188-.722656-4.050782-1.21875-6.128906-1.628906-.703126-.136719-1.410157-.238281-2.132813-.203125-.335937.015625-.65625.074219-.957031.210938-.664063.316406-.855469 1.082031-.429688 1.695312.1875.277344.460938.472656.742188.648438.453125.269531.9375.46875 1.425781.652343 1.765625.632813 3.570313 1.09375 5.402344 1.488281.859375.1875 1.722656.363282 2.613281.394532zm0 0"/><path d="m175.585938 193.71875c.152343.105469.160156.285156.226562.433594.410156.976562 1.050781 1.757812 1.933594 2.328125.277344.179687.5625.355469.828125.554687.4375.34375.4375.671875.019531 1.015625-.570312.472657-1.242188.757813-1.949219.816407-.773437.066406-1.515625.246093-2.246093.488281-1.410157.460937-2.820313.941406-4.222657 1.421875-1.019531.351562-1.574219.066406-1.851562-.984375-.082031-.292969-.117188-.597657-.183594-.898438-.042969-.21875-.078125-.4375-.152344-.648437-.117187-.335938-.402343-.386719-.621093-.109375-.152344.195312-.277344.414062-.386719.636719-.226563.445312-.371094.925781-.511719 1.40625-.3125 1.132812-.855469 2.109374-1.816406 2.8125-.269532.195312-.511719.421874-.765625.625-.183594.140624-.375.105468-.527344-.035157-.539063-.511719-.890625-1.132812-.976563-1.882812-.046874-.410157.042969-.773438.296876-1.09375.300781-.367188.597656-.730469.890624-1.097657.527344-.648437.554688-1.277343.101563-1.984374-.179687-.285157-.429687-.503907-.664063-.738282-.605468-.589844-.464843-1.554687.285157-1.949218.269531-.136719.554687-.238282.824219-.371094.199218-.09375.394531-.195313.570312-.320313.199219-.140625.175781-.375-.035156-.460937-.152344-.058594-.316406-.09375-.46875-.144532-.21875-.074218-.378906-.207031-.503906-.402343-.21875-.351563-.226563-.378907.074218-.707031.203125-.226563.414063-.445313.605469-.679688.082031-.097656.035156-.21875-.058594-.292969-.183593-.136719-.363281-.226562-.605469-.132812-.628906.25-1.300781.160156-1.957031.234375-.101562.015625-.21875-.007813-.320312-.035156-.109375-.03125-.203125-.125-.160157-.25.160157-.472657.292969-.957032.824219-1.175782.25-.101562.480469-.269531.6875-.449218.347657-.308594.394531-.550782.171875-.957032-.277344-.519531-.480468-1.066406-.582031-1.644531-.015625-.070313 0-.152344 0-.289063.320313.246094.5625.488282.757813.800782.496093.773437 1.207031.949218 2.058593.613281.78125-.3125 1.410157-.855469 2.105469-1.300781.269531-.171875.40625-.457032.464844-.765625.089844-.488281.351562-.875.671875-1.226563.25-.277344.394531-.597656.539062-.933594.328125-.765624.671875-1.527343 1.015625-2.292968.023438-.042969.074219-.078125.109375-.125.25-.011719.402344.164062.5625.308594.292969.253906.570313.523437.839844.804687.445313.457031.917969.890625 1.496094 1.167969.480469.222656.628906.667968.804687 1.109375.0625.160156.019532.328125-.039062.488281-.246094.640625-.664063 1.101562-1.363282 1.183594-.882812.09375-1.621093.5-2.308593 1.027344-.347657.269531-.691407.546874-1.042969.816406-.304688.234375-.460938.554687-.496094.929687-.058594.632813-.007812 1.285157-.226562 1.902344-.027344.074219.042968.15625.140625.164063.078125 0 .167969 0 .238281-.03125.621094-.246094 1.167969-.597657 1.570312-1.152344.160157-.226563.320313-.453125.488282-.671875.140625-.183594.308594-.300781.535156-.367188.546875-.152343.625-.121093.890625.410157.289063.605468.4375 1.261718.582031 1.914062.050782.21875.007813.445312-.035156.664062-.058594.328126-.101562.664063-.160156.992188-.058594.335938-.03125.664062.066406.992188.128906.480468.253906.964843.386719 1.453124.121093.472657-.054688.804688-.5.984376-.808594.328124-1.554688.234374-2.238281-.320313-.257813-.203125-.527344-.410156-.839844-.519531-.269532-.09375-.46875.046875-.425782.308594.117188.6875.25 1.371093.390626 2.050781.035156.191406.136718.363281.222656.539062.109375.226563.300781.320313.542968.285157.136719-.015626.269532-.042969.402344-.078126 1.035156-.273437 2.0625-.578124 3.0625-.957031.367188-.140625.6875-.335937.941406-.652343.164063-.1875.324219-.390626.527344-.523438.453125-.308594.5625-.746094.488282-1.242188-.066407-.472656-.078126-.941406-.027344-1.414062.015625-.109375.035156-.21875.058594-.328125zm-9.160157-3.773438c-.082031-.007812-.109375-.015624-.140625-.007812-.792968.308594-.792968.308594-.523437 1.125.109375.320312.058593.445312-.25.585938-.121094.050781-.261719.078124-.394531.117187-.5625.152344-.757813.777344-.386719 1.238281.175781.21875.386719.386719.664062.46875.335938.101563.460938.351563.441407.707032-.023438.277343.003906.5625-.015626.832031-.039062.359375-.183593.636719-.554687.746093-.265625.078126-.503906.21875-.703125.421876-.320312.335937-.429688.78125-.144531 1.140624.417969.53125.3125 1.027344.058593 1.554688-.132812.277344-.277343.546875-.402343.824219-.027344.066406-.066407.175781.035156.21875.066406.027343.15625.042969.226563.035156.082031-.007813.164062-.042969.226562-.085937.980469-.636719 1.820312-1.4375 2.613281-2.285157.476563-.511719.660157-1.152343.375-1.855469-.101562-.253906-.199219-.515624-.285156-.78125-.09375-.285156.019531-.503906.320313-.53125.578124-.050781 1.144531-.074218 1.699218.175782.351563.160156.710938.296875 1.074219.414062.394531.132813.578125-.007812.546875-.445312-.027344-.523438-.109375-1.050782-.1875-1.574219-.023438-.125-.117188-.242187-.183594-.367187-.636718.160156-1.25.300781-1.855468.480468-.65625.199219-1.246094 0-1.816407-.289062-.253906-.132813-.277343-.367188-.035156-.511719.347656-.21875.714844-.410156 1.070313-.621094.117187-.074219.109374-.191406.03125-.285156-.089844-.101563-.191407-.203125-.308594-.277344-.488282-.3125-.933594-.671875-1.195313-1.167969zm4.175781-5.957031c-.050781.007813-.109374 0-.160156.023438-.320312.152343-.542968.699219-.425781 1.066406.039063.101563.132813.109375.199219.078125.292968-.101562.511718-.304688.691406-.546875.167969-.203125-.027344-.582031-.304688-.621094zm0 0"/><path d="m75.890625 55.003906c-.246094-.179687-.300781-.414062-.386719-.613281-2.359375-5.1875-4.714844-10.378906-7.074218-15.570313-.058594-.121093-.109376-.253906-.175782-.378906-.085937-.167968-.078125-.320312.074219-.445312.832031-.679688 1.671875-1.355469 2.511719-2.035156.117187-.097657.246094-.097657.371094.011718.101562.097656.210937.183594.316406.273438 4.304687 3.675781 8.613281 7.363281 12.917968 11.042968.125.109376.242188.21875.351563.320313-.007813.226563-.175781.300781-.300781.402344-.707032.578125-1.40625 1.152343-2.121094 1.722656-.265625.210937-.308594.210937-.5625-.019531-.550781-.511719-1.089844-1.03125-1.628906-1.535156-.210938-.195313-.261719-.195313-.496094-.015626-.753906.605469-1.503906 1.21875-2.257812 1.828126-.179688.144531-.210938.296874-.109376.507812.34375.703125.671876 1.410156 1.015626 2.105469.101562.210937.066406.355469-.117188.503906-.757812.617187-1.523438 1.246094-2.328125 1.894531zm2.03125-8.910156c-.386719-.386719-.703125-.703125-1.007813-1.015625-1.882812-1.871094-3.828124-3.6875-5.5-5.769531-.050781-.0625-.113281-.109375-.179687-.160156-.015625-.011719-.066406-.011719-.082031 0-.027344.03125-.078125.089843-.070313.109374.070313.148438.152344.300782.238281.441407 1.292969 1.941406 2.410157 3.984375 3.535157 6.035156.304687.5625.621093 1.117187.933593 1.671875.117188.203125.234376.234375.386719.101562.5625-.445312 1.109375-.898437 1.746094-1.414062zm0 0"/><path d="m171.871094 34.105469c-.125 0-.253906.023437-.386719 0-.890625-.160157-1.78125-.328125-2.671875-.503907-.269531-.050781-.335938-.117187-.335938-.378906 0-.613281.015626-1.226562.023438-1.847656 0-.136719.011719-.277344.007812-.414062 0-.386719-.039062-.441407-.394531-.511719-.652343-.125-1.300781-.242188-1.945312-.359375-.269531-.050782-.539063-.109375-.808594-.152344-.183594-.03125-.304687.035156-.378906.226562-.269531.699219-.546875 1.402344-.832031 2.09375-.160157.394532-.199219.417969-.621094.34375-.867188-.152343-1.730469-.328124-2.589844-.496093-.167969-.027344-.234375-.132813-.175781-.292969.066406-.179688.136719-.363281.21875-.539062 2.21875-5.257813 4.4375-10.519532 6.664062-15.777344.050781-.128906.117188-.253906.160157-.386719.066406-.179687.191406-.269531.378906-.230469.972656.179688 1.941406.363282 2.914062.5625.394532.078125.402344.09375.414063.480469.054687 1.589844.089843 3.183594.132812 4.773437.089844 3.152344.175781 6.316407.257813 9.46875.027344 1.175782.042968 2.34375.0625 3.519532-.007813.144531.007812.285156-.09375.421875zm-5.695313-6.839844c.679688.132813 1.328125.234375 1.964844.378906.285156.066407.402344-.019531.429687-.320312.015626-.199219.03125-.386719.039063-.585938.117187-2.894531.179687-5.792969.621094-8.671875.003906-.050781.019531-.117187 0-.160156-.015625-.042969-.074219-.066406-.117188-.085938-.015625-.007812-.058593.007813-.066406.019532-.050781.132812-.101563.257812-.140625.386718-.683594 2.761719-1.625 5.433594-2.515625 8.125-.089844.265626-.234375.511719-.214844.914063zm0 0"/><path d="m251.199219 86.722656c-.496094-.683594-1.007813-1.378906-1.503907-2.078125-.136718-.191406-.117187-.285156.066407-.410156.25-.175781.519531-.320313.746093-.519531.445313-.378906.699219-.851563.625-1.464844-.101562-.875-.84375-1.453125-1.691406-1.292969-.417968.082031-.773437.269531-1.082031.570313-.335937.335937-.613281.714844-.84375 1.128906-.34375.609375-.621094 1.242188-.878906 1.890625-.328125.832031-.671875 1.652344-1.136719 2.410156-.265625.425781-.542969.847657-.855469 1.234375-.90625 1.101563-2.09375 1.679688-3.460937 1.941406-.824219.152344-1.632813.140626-2.4375-.136718-.832032-.285156-1.523438-.777344-2.035156-1.5-.871094-1.222656-1.25-2.597656-1.089844-4.109375.089844-.824219.425781-1.554688.941406-2.195313.5625-.695312 1.234375-1.25 2.109375-1.605468.542969.867187 1.066406 1.714843 1.570313 2.539062-.058594.234375-.234376.277344-.371094.363281-.308594.191407-.589844.410157-.824219.6875-.21875.257813-.386719.546875-.445313.882813-.210937 1.097656.648438 2.007812 1.742188 1.847656.746094-.109375 1.335938-.496094 1.773438-1.117188.226562-.3125.417968-.65625.585937-1.007812.335937-.699219.640625-1.414062.964844-2.128906.386719-.871094.800781-1.71875 1.3125-2.511719.914062-1.417969 2.183593-2.257813 3.816406-2.519531 1.460937-.234375 2.769531.160156 3.738281 1.292968 1.207032 1.40625 1.636719 3.078126 1.21875 4.917969-.285156 1.265625-1.296875 2.382813-2.554687 2.890625zm0 0"/><path d="m232.148438 141.925781c.035156-.402343-.066407-.773437-.226563-1.136719-.234375-.542968-.191406-1.097656-.082031-1.652343.132812-.632813.511718-.898438 1.148437-.78125.699219.132812 1.386719.359375 2.042969.628906.429688.175781.632812.519531.597656.992187-.058594.710938-.285156 1.367188-.605468 1.988282-.292969.566406-.628907 1.113281-.925782 1.675781-.15625.292969-.292968.601563-.410156.914063-.035156.085937-.027344.261718.03125.304687.085938.066406.1875-.027344.261719-.113281.472656-.542969.925781-1.105469 1.335937-1.703125.277344-.414063.597656-.796875.910156-1.1875.273438-.34375.652344-.511719 1.066407-.570313.546875-.066406 1.097656-.082031 1.628906.117188.527344.195312.882813.53125 1.023437 1.109375.226563.941406.179688 1.824219-.441406 2.621093-.152344.195313-.289062.398438-.421875.613282-.21875.355468-.21875.363281.085938.691406.28125.300781.453125.605469.332031 1.050781-.109375.386719.078125.753907.429688.972657.109374.070312.226562.035156.296874-.039063.175782-.179687.332032-.371094.484376-.566406.269531-.351563.53125-.710938.808593-1.058594.285157-.351563.636719-.605469 1.074219-.746094.183594-.058593.320312-.023437.429688.125.148437.203125.292968.402344.425781.613281.253906.414063.320312.796876-.066407 1.203126-.242187.257812-.351562.628906-.539062.933593-.191406.308594-.394531.601563-.609375.898438-.117187.160156-.109375.316406.039063.445312.125.109375.253906.210938.394531.300781.496093.320313.859375.78125 1.1875 1.261719.351562.511719.417969 1.042969.199219 1.664063-.445313 1.277344-1.324219 2.167968-2.375 2.921875-.195313.136719-.445313.210937-.675782.292969-.335937.109374-.6875.210937-1.03125.296874-.613281.152344-1.226562.308594-1.730468.722657-.058594.050781-.152344.066406-.234376.066406-.035156 0-.09375-.050781-.117187-.09375-.019531-.046875-.035156-.132813-.011719-.148437.402344-.328126.792969-.664063 1.210938-.976563.335937-.25.6875-.46875 1.035156-.679687.746094-.453126 1.117188-1.210938 1.5625-1.914063.132812-.210937.066406-.429687-.050781-.632813-.226563-.386718-.671875-.824218-1.195313-1.148437-.292968.222656-.511718.5-.652344.839844-.203124.519531-.453124 1.015625-.597656 1.554687-.152344.601563-.386718.761719-1.007812.769532-.445313.007812-.875-.039063-1.277344-.257813-.285156-.160156-.363281-.394531-.136719-.597656.699219-.636719 1.09375-1.4375 1.378907-2.335938.125-.394531.34375-.757812.523437-1.132812.175781-.347657.234375-.683594-.042969-1.007813-.21875-.261718-.277344-.605468-.429687-.894531-.050781-.089844-.144531-.191406-.242188-.207031-.152343-.027344-.246093.101562-.289062.242187-.105469.292969-.183594.582031-.285157.875-.15625.417969-.316406.832031-.484374 1.25-.085938.21875-.261719.246094-.472657.210938-.484375-.09375-.761719-.378907-.816406-.90625-.082031-.679688.070313-1.335938.203125-1.992188.042969-.21875.128906-.421875.1875-.640625.125-.441406.335938-.820312.703125-1.105468.21875-.167969.414063-.363282.613281-.5625.292969-.28125.597656-.457032 1.035156-.355469.242188.058593.335938-.066407.351563-.320313.035156-.6875-.292969-1.234375-.679687-1.753906-.136719-.183594-.363282-.246094-.589844-.234375-.367188.023437-.710938.105469-1.007813.316406-.320312.226563-.597656.488281-.804687.832031-.679688 1.117188-1.386719 2.21875-1.691406 3.519532-.074219.296875-.183594.582031-.285157.875-.539062 1.421875-.207031 2.738281.496094 4.007812.109375.195313.242187.371094.34375.570313.21875.445312.152344.875-.167969 1.230469-.210937.234374-.46875.386718-.761718.484374-.523438.175782-1.035157.066407-1.328126-.394531-.511718-.796875-1.101562-1.535156-1.625-2.316406-.046874-.0625-.082031-.144531-.113281-.226563-.078125-.1875-.003906-.328124.191407-.363281.03125-.007812.050781-.015625.082031-.015625.339843.023438.648437-.058594.894531-.320312.28125-.292969.425781-.640625.484375-1.042969.050781-.386719.109375-.773437.160156-1.160156.058594-.417969.136719-.828125.300781-1.21875.480469-1.214844.65625-2.476563.558594-3.777344-.042968-.632813-.011718-1.277344-.28125-1.890625-.167968-.386719 0-.824219-.03125-1.285156-.304687.023437-.34375.351562-.546875.445312-.042969 0-.101562.007813-.152343.015625zm0 0"/><path d="m226.285156 41.523438c.839844.722656 1.613282 1.386718 2.378906 2.066406.285157.246094.285157.28125.058594.625-1.136718 1.714844-2.277344 3.425781-3.414062 5.132812-1.191406 1.78125-2.402344 3.539063-3.671875 5.257813-.097657.128906-.175781.285156-.242188.429687-.015625.027344.027344.109375.066407.125.042968.019532.125.027344.152343 0 .132813-.105468.25-.21875.363281-.335937 1.113282-1.125 2.191407-2.277344 3.339844-3.359375 1.890625-1.78125 3.832032-3.519532 5.742188-5.277344.148437-.132812.292968-.277344.496094-.09375.746093.65625 1.527343 1.269531 2.234374 1.96875-.429687.488281-13.160156 11.207031-14.101562 11.871094-.300781-.09375-.492188-.351563-.714844-.539063-.59375-.5-1.175781-1.007812-1.761718-1.519531-.269532-.234375-.269532-.261719-.109376-.554688.066407-.125.140626-.242187.203126-.367187 2.855468-4.925781 5.710937-9.859375 8.570312-14.789063.125-.195312.242188-.378906.410156-.640624zm-5.109375 13.757812c-.074219.082031-.152343.164062-.21875.25-.042969.066406-.082031.167969.007813.210938.050781.023437.144531-.035157.203125-.078126.058593-.050781.09375-.132812.144531-.199218.066406-.066406.214844-.101563.109375-.234375-.09375-.117188-.171875-.027344-.246094.050781zm0 0"/><path d="m86.460938 41.726562c.320312.367188.578124.730469.949218.984376.429688.292968.882813.445312 1.402344.316406.730469-.175782 1.1875-.746094 1.167969-1.511719-.023438-.839844-.425781-1.484375-1.101563-1.957031-.386718-.269532-.832031-.4375-1.277344-.570313-.847656-.238281-1.695312-.457031-2.542968-.691406-.792969-.21875-1.574219-.476563-2.320313-.839844-1.875-.914062-2.882812-2.453125-3.074219-4.527343-.101562-1.09375.242188-2.109376.941407-2.957032 1.023437-1.238281 2.375-1.882812 3.9375-2.011718.722656-.066407 1.414062.160156 2.042969.523437.355468.210937.6875.46875.976562.757813.695312.695312.695312.695312.023438 1.425781-.417969.445312-.832032.890625-1.25 1.335937-.078126.085938-.195313.101563-.285157 0-.109375-.125-.195312-.269531-.3125-.386718-.175781-.175782-.351562-.359376-.554687-.496094-.578125-.402344-1.21875-.378906-1.757813.042968-.496093.378907-.6875 1-.496093 1.65625.128906.445313.390624.796876.757812 1.066407.421875.320312.898438.554687 1.394531.707031.65625.207031 1.320313.375 1.984375.535156 1.015625.246094 2.03125.515625 2.957032 1.019532 2.144531 1.167968 3.125 3.046874 3.117187 5.484374 0 .832032-.292969 1.589844-.765625 2.261719-.898438 1.261719-2.140625 2.007813-3.628906 2.261719-1.5625.265625-2.875-.320312-3.914063-1.488281-.859375-.976563-.78125-.722657.050781-1.523438.476563-.460937.972657-.90625 1.460938-1.351562.007812-.015625.039062-.023438.117188-.066407zm0 0"/><path d="m239.433594 60.101562c-.832032-1.101562-1.613282-2.140624-2.386719-3.160156-.089844.019532-.15625.019532-.191406.050782-1.023438.800781-2.035157 1.605468-3.058594 2.40625-.167969.132812-.152344.273437-.035156.425781.582031.773437 1.160156 1.554687 1.742187 2.328125.117188.152344.234375.3125.34375.46875.101563.136718.066406.253906-.058594.355468-.21875.167969-.429687.34375-.648437.519532-.367187.292968-.738281.582031-1.101563.875-.160156.132812-.300781.101562-.417968-.058594-.582032-.773438-1.167969-1.554688-1.75-2.328125-.5625-.753906-.4375-.707031-1.175782-.132813-1 .78125-1.992187 1.578126-2.988281 2.367188-.445312.355469-.445312.363281-.085937.847656.613281.824219 1.234375 1.640625 1.847656 2.457032.183594.242187.175781.308593-.042969.484374-.601562.488282-1.214843.960938-1.820312 1.445313-.175781.136719-.296875.066406-.40625-.082031-.300781-.402344-.601563-.792969-.898438-1.195313-1.050781-1.402343-2.097656-2.796875-3.148437-4.199219-.261719-.355468-.261719-.363281.097656-.65625 1.574219-1.253906 3.160156-2.503906 4.734375-3.757812 2.839844-2.25 5.675781-4.5 8.515625-6.738281.171875-.140625.339844-.277344.523438-.402344.066406-.042969.160156-.035156.21875.027344.074218.082031.148437.167969.210937.257812 1.285156 1.707031 2.5625 3.414063 3.839844 5.132813.082031.109375.175781.21875.226562.339844.03125.058593.015625.175781-.027343.226562-.089844.101562-.207032.191406-.308594.277344-.546875.46875-1.117188.914062-1.75 1.417968zm0 0"/><path d="m41.867188 147.132812c-.746094 0-1.351563.050782-1.9375-.15625-.179688-.0625-.371094-.109374-.539063-.195312-.359375-.175781-.414063-.335938-.3125-.738281.066406-.238281.152344-.480469.175781-.730469.070313-.78125.546875-1.328125 1.042969-1.851562.394531-.425782.847656-.359376 1.160156.136718.085938.140625.160157.292969.246094.4375.351563.578125.796875 1.066406 1.410156 1.367188.300781.144531.5625.34375.824219.539062.417969.320313.882812.5625 1.386719.730469.46875.152344.949219.277344 1.425781.410156.160156.042969.328125.058594.480469-.007812.042969-.023438.09375-.066407.109375-.109375.015625-.046875-.007813-.101563-.019532-.148438-.007812-.019531-.039062-.035156-.066406-.042968-.738281-.21875-1.117187-.875-1.613281-1.386719-.117187-.125-.15625-.292969-.097656-.46875.074219-.210938.132812-.421875.199219-.632813.175781-.546875.523437-.875 1.085937-1.039062.921875-.269532 1.832031-.589844 2.746094-.890625.082031-.027344.152343-.050781.234375-.078125.246094-.101563.296875-.210938.195312-.445313-.09375-.203125-.210937-.394531-.285156-.605469-.085938-.234374-.144531-.476562-.195312-.722656-.035157-.191406-.050782-.417968.117187-.546875.167969-.132812.363281-.046875.539063.058594.167968.09375.335937.195313.496093.289063.425781.257812.855469.503906 1.269531.773437.226563.148437.453126.175781.710938.117187.671875-.152343 1.34375-.289062 2.011719-.429687.164062-.035156.324219-.066406.492187-.078125 1.121094-.097656 2.246094-.183594 3.363282-.273438.25-.011718.488281-.019531.714843.140626.234375.167968.300781.4375.097657.640624-.585938.601563-1.21875 1.125-2.023438 1.410157-.4375.152343-.882812.304687-1.277344.570312-.167968.109375-.175781.285157-.023437.40625.109375.089844.226562.164063.34375.226563.453125.257812.914062.511718 1.300781.878906.078125.070312.183594.121094.277344.171875.277344.15625.554687.25.816406-.035156.082031-.085938.183594-.136719.285156-.058594.101563.082031.074219.203125.050782.316406-.085938.386719-.285157.722657-.472657 1.0625-.140625.25-.382812.328125-.644531.273438-.261719-.066407-.523438-.167969-.765625-.300781-.722656-.410157-1.488281-.714844-2.269531-.972657-.496094-.160156-.972656-.378906-1.425782-.65625-.503906-.3125-1.019531-.328125-1.582031-.160156-.664062.203125-1.257812.554687-1.855469.898437-.117187.066407-.234374.160157-.304687.269532-.097656.140625-.132813.3125-.03125.476562.101563.160156.277344.1875.4375.121094.402344-.175781.804687-.355469 1.199219-.5625.234375-.117188.453125-.179688.707031-.101562.351563.117187.503906.46875.328125.804687-.066406.117187-.160156.226563-.242188.335937-.167968.21875-.347656.429688-.507812.65625-.214844.304688-.167969.519532.171875.65625.335937.140626.628906.34375.921875.546876.363281.257812.730469.492187 1.167969.605468.203125.054688.234375.207032.125.386719-.191407.324219-.46875.484375-.832031.394531-.265626-.0625-.527344-.152344-.78125-.261718-.578126-.253907-1.160157-.511719-1.730469-.789063-.4375-.21875-.832031-.203125-1.242188.074219-.300781.195312-.628906.351562-.933593.53125-.597657.351562-1.167969.738281-1.65625 1.234375-.738282.753906-1.679688 1.160156-2.636719 1.503906-.46875.167969-.976563.125-1.46875.039063-.109375-.023438-.210938-.066407-.304688-.113282-.335937-.152344-.648437-.347656-.664062-.773437-.007813-.394531.292969-.574219.582031-.742188.460938-.257812.9375-.476562 1.382812-.753906.488282-.304687.960938-.640625 1.429688-.984375.269531-.203125.261719-.46875.027344-.714844-.136719-.140625-.289063-.25-.480469-.3125-.183594-.058594-.371094-.113281-.539063-.191406-.78125-.371094-1.585937-.628906-2.328124-.429688zm0 0"/><path d="m61.867188 47.550781c.925781 1.03125 1.796874 2 2.664062 2.964844.175781.191406.261719.183594.476562-.023437.65625-.632813 1.296876-1.289063 1.960938-1.910157.738281-.6875.542969-.804687 1.285156.035157.386719.429687.773438.871093 1.148438 1.277343-.023438.265625-.199219.367188-.328125.496094-.636719.621094-1.277344 1.234375-1.914063 1.855469-.175781.175781-.378906.320312-.488281.554687.34375.527344 2.78125 3.25 3.40625 3.789063.46875-.453125.949219-.90625 1.425781-1.359375.460938-.4375.910156-.882813 1.363282-1.320313.484374.335938 1.476562 1.410156 1.921874 2.089844-.082031.09375-.167968.203125-.261718.296875-1.550782 1.503906-3.105469 3.015625-4.652344 4.519531-.078125.082032-.160156.152344-.246094.226563-.097656.078125-.207031.078125-.292968-.007813-.117188-.117187-.234376-.242187-.34375-.363281-3.671876-4.082031-7.34375-8.164063-11.023438-12.242187-.511719-.5625-.523438-.511719.015625-1.039063 1.546875-1.503906 3.101563-3.015625 4.648437-4.519531.058594-.054688.132813-.09375.199219-.136719.496094.386719 1.394531 1.363281 1.867188 2.050781-.898438.882813-1.832031 1.789063-2.832031 2.765625zm0 0"/><path d="m258.476562 110.230469c-2.472656.933593-4.894531 2.042969-7.480468 2.765625.144531.242187.351562.191406.527344.199218 2.339843.128907 4.605468.75 6.890624 1.195313.421876.082031.414063.101563.453126.546875.054687.890625.121093 1.78125.171874 2.671875.007813.160156.046876.335937-.0625.484375-.167968.042969-.324218-.023438-.484374-.066406-3.21875-.929688-6.445313-1.847656-9.664063-2.789063-.429687-.125-.855469-.183593-1.300781-.140625-1.503906.148438-3.007813.292969-4.511719.433594-.574219.050781-1.144531.109375-1.722656.152344-.210938.015625-.320313-.058594-.34375-.269532-.027344-.277343-.035157-.554687-.050781-.832031-.042969-.644531-.09375-1.277343-.136719-1.921875-.03125-.445312.007812-.496094.421875-.539062.738281-.074219 1.476562-.132813 2.21875-.199219 1.394531-.121094 2.789062-.261719 4.183594-.378906.394531-.035157.738281-.203125 1.082031-.378907 2.910156-1.445312 5.816406-2.898437 8.730469-4.34375.175781-.085937.34375-.175781.519531-.253906.246093-.117187.378906-.058594.398437.1875.074219 1.058594.140625 2.117188.207032 3.175782.007812.082031-.023438.160156-.046876.300781zm0 0"/><path d="m75.09375 173.359375c.308594-.523437.226562-1.09375.039062-1.664063-.089843-.261718 0-.488281.195313-.679687.300781-.289063.648437-.507813 1.015625-.699219.175781-.09375.3125-.03125.4375.109375.242188.277344.378906.613281.503906.957031.210938.582032.53125 1.101563.875 1.605469.160156.234375.367188.261719.554688.066407.433594-.429688.871094-.863282 1.183594-1.394532.269531-.460937.699218-.695312 1.175781-.863281.335937-.117187.503906-.007813.632812.316406.199219.503907.175781 1.042969.300781 1.554688.042969.1875-.058593.34375-.195312.429687-.957031.613282-1.671875 1.53125-2.664062 2.09375-.410157.234375-.777344.527344-1.15625.8125-.238282.179688-.464844.394532-.679688.605469-.179688.183594-.171875.335937-.003906.503906.261718.253907.554687.453125.902344.554688.890624.269531.878906.253906 1.621093-.269531 1.21875-.863282 2.453125-1.703126 3.6875-2.535157.597657-.402343 1.183594-.816406 1.671875-1.347656.1875-.207031.394532-.390625.65625-.492187.160156-.066407.359375-.011719.421875.148437.140625.363281.292969.730469.375 1.101563.078125.355468.183594.691406.320313 1.027343.292968.695313-.027344 1.273438-.789063 1.402344-.378906.066406-.742187.183594-1.101562.335937-.125.058594-.253907.117188-.363281.199219-.367188.261719-.410157.648438-.125 1.003907.347656.441406.792968.769531 1.21875 1.125.34375.292968.351562.285156.671874-.101563.109376-.132813.269532-.132813.320313 0 .191406.519531.394531 1.042969.554687 1.570313.109376.363281-.136718.648437-.53125.65625-.402343.007812-.738281-.152344-1.066406-.378907-.753906-.527343-1.410156-1.160156-2.109375-1.738281-.234375-.1875-.484375-.363281-.738281-.53125-.320312-.210938-.671875-.242188-1.015625-.058594-.539063.277344-1.085937.515625-1.664063.714844-.539062.183594-.632812.65625-.269531 1.132812.664063.859376 1.519531 1.480469 2.53125 1.785157.839844.257812.738281.5625.394531 1.125-.144531.234375-.328124.445312-.496093.671875-.175781.226562-.421875.359375-.679688.453125-.332031.117187-.648437.050781-.917969-.195313-.042968-.039062-.082031-.082031-.109374-.125-.597657-.882812-1.402344-1.5625-2.144532-2.316406-.316406-.3125-.578125-.671875-.789062-1.0625-.277344-.519531-.300782-1 .09375-1.476562.175781-.210938.3125-.460938.4375-.699219.117187-.226563.03125-.46875-.210938-.542969-.394531-.117188-.796875-.21875-1.199218-.277344-.910157-.136718-1.800782-.019531-2.683594.226563-.394532.109375-.796875.199219-1.207032.269531-.335937.058594-.648437-.019531-.902343-.289062-.285157-.300782-.601563-.578126-.878907-.882813-.347656-.390625-.496093-.863281-.445312-1.390625.023438-.21875.046875-.445312.082031-.664062.058594-.371094.195313-.691407.554688-.875.328125-.167969.546875-.453126.804687-.707032.53125-.539062.902344-.46875 1 .261719.109375.839844.632813 1.402344 1.078125 2.03125.148438.210937.34375.261719.578125.1875.570313-.160156 1.050782-.472656 1.4375-.925781.050782-.058594.09375-.160156.082032-.226563-.132813-.421875-.265626-.847656-.433594-1.261719-.085938-.226562-.285156-.328124-.539063-.285156-.082031.019532-.191406.074219-.300781-.082031zm0 0"/><path d="m256.632812 94.855469c.253907.539062.277344 1.074219.378907 1.585937.445312 2.269532.867187 4.546875 1.296875 6.816406.015625.082032.039062.160157.046875.25.011719.160157-.046875.277344-.199219.3125-.800781.183594-1.605469.359376-2.414062.53125-.199219.046876-.292969-.070312-.328126-.269531-.105468-.574219-.21875-1.152343-.332031-1.722656-.027343-.136719-.050781-.277344-.085937-.40625-.058594-.207031-.152344-.269531-.363282-.226563-.5625.121094-1.125.246094-1.6875.371094-3.992187.882813-7.992187 1.765625-11.988281 2.648438-.109375.023437-.210937.066406-.320312.082031-.210938.035156-.3125-.023437-.355469-.226563-.054688-.25-.097656-.488281-.148438-.738281-.125-.625-.238281-1.253906-.363281-1.890625-.074219-.40625-.066406-.539062.386719-.632812 2.496094-.542969 4.984375-1.105469 7.480469-1.660156 2.039062-.449219 4.074219-.894532 6.109375-1.347657.082031-.015625.164062-.03125.242187-.050781.183594-.050781.277344-.167969.242188-.367188-.066407-.355468-.132813-.714843-.199219-1.066406-.058594-.296875-.101562-.605468-.171875-.902344-.089844-.34375-.097656-.445312.289063-.535156.824218-.195312 1.652343-.371094 2.484374-.554687zm0 0"/><path d="m118.84375 186.550781c.328125-.234375.527344-.53125.597656-.957031.109375-.632812.570313-.949219 1.183594-.816406.890625.183594 1.753906-.035156 2.613281-.175782.949219-.152343 1.890625-.335937 2.839844-.511718.789063-.144532 1.585937-.09375 2.378906-.09375.226563 0 .34375.175781.300781.394531-.101562.460937-.34375.839844-.753906 1.050781-.664062.34375-1.226562.839844-1.910156 1.148438-.453125.195312-.761719.640625-1.058594 1.035156-.210937.285156-.394531.589844-.679687.832031-.167969.136719-.085938.378907.109375.472657.285156.140624.589844.105468.890625.109374.417969.007813.816406.082032 1.203125.242188.402344.160156.628906.429688.570312.898438-.015625.109374-.019531.226562-.015625.335937.117188 1.351563-.582031 2.453125-1.289062 3.328125-.214844.261719-.394531.535156-.585938.8125-.378906.566406-.839843 1.027344-1.546875 1.152344-.132812.019531-.261718.085937-.394531.125-.519531.136718-.847656.496094-1.042969.984375-.101562.253906-.191406.523437-.261718.796875-.148438.539062-.351563 1.058594-.5625 1.566406-.175782.410156-.324219.832031-.441407 1.265625-.152343.546875-.4375 1.019531-.75 1.480469-.082031.117187-.175781.210937-.304687.261718-.167969.066407-.375-.011718-.394532-.175781-.023437-.1875-.039062-.386719-.039062-.582031.039062-1.757812.175781-3.511719.613281-5.21875.089844-.351562.101563-.679688-.1875-.921875-.308593-.253906-.359375-.566406-.226562-.898437.203125-.523438-.023438-.851563-.425781-1.128907-.085938-.066406-.175782-.132812-.261719-.207031-.582031-.464844-.671875-.707031-.445313-1.445312.242188-.785157.605469-1.488282 1.320313-1.953126.269531-.183593.511719-.425781.730469-.671874.316406-.375.707031-.511719 1.167968-.503907.21875 0 .4375.027344.65625.011719.265625-.003906.367188-.210938.441406-.429688.0625-.195312.101563-.414062-.089843-.53125-.480469-.320312-.882813-.753906-1.421875-.980468-.160156-.0625-.316406-.128906-.476563-.078125-.621093.1875-1.253906.070312-1.882812.152343-.050781-.074218-.109375-.125-.167969-.175781zm5.714844 4.605469c-.296875.007812-.480469.105469-.582032.335938-.09375.226562-.226562.460937-.257812.703124-.050781.394532-.171875.757813-.289062 1.125-.074219.230469-.226563.503907.011718.699219.21875.175781.46875.015625.703125-.058593.226563-.074219.378907-.210938.460938-.4375.167969-.476563.398437-.914063.648437-1.34375.3125-.53125.109375-.898438-.511718-.992188-.074219-.023438-.152344-.03125-.183594-.03125zm0 0"/><path d="m89.746094 28.367188c-.058594-.085938-.125-.144532-.152344-.21875-.300781-.75-.59375-1.503907-.890625-2.253907-.074219-.183593-.050781-.328125.136719-.410156.125-.058594.25-.109375.378906-.167969 2.308594-.972656 4.617188-1.949218 6.929688-2.921875.074218-.027343.152343-.054687.234374-.085937.328126-.125.378907-.101563.511719.183594.011719.019531.011719.050781.027344.078124.253906.652344.511719 1.292969.757813 1.941407.164062.417969.132812.46875-.246094.636719-.585938.253906-1.167969.488281-1.753906.746093-.296876.128907-.328126.203125-.203126.515625.875 2.257813 1.757813 4.519532 2.636719 6.777344.789063 2.019531 1.582031 4.042969 2.371094 6.070312.082031.207032.152344.417969.226563.628907.058593.160156-.015626.277343-.152344.335937-.882813.378906-1.773438.753906-2.664063 1.117188-.148437.058594-.265625-.007813-.328125-.160156-.105468-.257813-.214844-.519532-.316406-.773438-1.582031-4.074219-3.175781-8.148438-4.757812-12.222656-.074219-.179688-.140626-.363282-.21875-.539063-.089844-.203125-.167969-.242187-.386719-.144531-.433594.175781-.863281.363281-1.292969.546875-.277344.101563-.5625.210937-.847656.320313zm0 0"/><path d="m45.003906 64.078125c.8125.445313 1.5625.855469 2.308594 1.269531.160156.089844.21875.222656.121094.410156-.289063.570313-.582032 1.140626-.867188 1.707032-.253906.519531-.253906.527344.269532.8125 1.957031 1.078125 3.914062 2.144531 5.871093 3.226562 1.933594 1.058594 3.859375 2.125 5.796875 3.191406.167969.09375.335938.1875.503906.28125.136719.082032.179688.207032.109376.351563-.476563.941406-.957032 1.875-1.460938 2.863281-.914062-.4375-1.738281-.929687-2.578125-1.378906-.867187-.476562-1.738281-.957031-2.605469-1.433594-.847656-.464844-1.695312-.925781-2.535156-1.394531-.867188-.480469-1.734375-.960937-2.605469-1.4375-.839843-.460937-1.683593-.917969-2.574219-1.410156-.527343.746093-.8125 1.59375-1.273437 2.308593-.246094.09375-.390625-.082031-.554687-.160156-.605469-.320312-1.210938-.65625-1.808594-.992187-.167969-.097657-.21875-.234375-.125-.417969.050781-.101562.101562-.195312.148437-.296875 1.203125-2.351563 2.40625-4.703125 3.613281-7.054687.0625-.121094.136719-.238282.246094-.445313zm0 0"/><path d="m203.65625 169.90625c.613281-.085938 1.117188.25 1.546875.773438.679687.832031 1.058594 1.8125 1.386719 2.828124.085937.261719.140625.539063.234375.792969.074219.191407.328125.257813.488281.148438.140625-.097657.261719-.207031.378906-.324219.546875-.546875 1.007813-1.179688 1.445313-1.824219.058593-.085937.148437-.21875.125-.296875-.160157-.476562.191406-.5625.480469-.710937.199218-.101563.382812-.21875.585937-.304688.277344-.125.460937-.015625.578125.277344.109375.261719.027344.480469-.082031.714844-.496094 1.058593-1.066407 2.074219-1.679688 3.066406-.203125.328125-.410156.65625-.605469 1-.285156.496094-.453124 1.015625-.191406 1.589844.066406.148437.066406.328125.058594.496093-.027344 1.148438.117188 2.28125.34375 3.402344.117188.601563.03125 1.167969-.238281 1.710938-.316407.617187-.621094 1.238281-.949219 1.851562-.234375.445313-.542969.839844-.941406 1.148438-.511719.394531-1.140625.4375-1.628906-.089844-.394532-.421875-.820313-.824219-1.21875-1.238281-.183594-.191407-.191407-.410157-.007813-.601563.1875-.195312.40625-.363281.628906-.53125.777344-.605468 1.011719-1.480468 1.160157-2.402344.019531-.132812-.03125-.269531-.058594-.410156-.023438-.078125-.082032-.144531-.175782-.136718-.050781 0-.117187.023437-.148437.058593-.128906.175781-.253906.363281-.386719.539063-.113281.152344-.238281.308594-.378906.4375-.363281.351562-.511719.359375-.902344.03125-.332031-.277344-.710937-.46875-1.113281-.503906-.851563-.082032-1.253906-.722657-1.699219-1.320313-.117187-.164063-.058594-.402344.117188-.511719.160156-.101562.335937-.183594.519531-.25.4375-.160156.875-.34375 1.328125-.445312.957031-.226563 1.296875-.957032 1.472656-1.808594.089844-.433594.050782-.878906-.101562-1.316406-.285156-.839844-.503906-1.707032-.914063-2.503906-.171875-.339844-.238281-.742188-.40625-1.085938-.316406-.648438-.328125-1.257812.066407-1.882812.128906-.210938.230468-.367188.488281-.351563.085937-.015625.195312-.015625.394531-.015625zm0 0"/><path d="m173.90625 34.523438c.023438-.089844.046875-.222657.082031-.359376 1.402344-5.445312 2.808594-10.898437 4.210938-16.34375.042969-.160156.097656-.320312.15625-.476562.027343-.078125.109375-.125.195312-.109375.082031.015625.160157.039063.242188.058594.742187.191406 1.488281.378906 2.234375.578125.75.203125.609375.1875.449218.851562-.320312 1.332032-.675781 2.644532-1.019531 3.964844-.820312 3.183594-1.636719 6.367188-2.453125 9.550781-.039062.128907-.082031.269531-.101562.398438-.03125.164062.035156.265625.195312.308593.183594.050782.371094.109376.554688.152344.847656.226563 1.703125.445313 2.546875.671875.460937.125.460937.132813.335937.636719-.167968.675781-.34375 1.347656-.507812 2.019531-.054688.207031-.175782.265625-.367188.21875-.664062-.171875-1.328125-.339843-1.992187-.515625-1.488281-.394531-2.972657-.78125-4.460938-1.183594-.304687-.058593-.34375-.125-.300781-.421874zm0 0"/><path d="m220.984375 37.207031c.082031.015625.140625.015625.175781.042969.8125.578125 1.621094 1.15625 2.429688 1.730469.132812.097656.164062.21875.074218.359375-.09375.136718-.1875.277344-.285156.414062-3.21875 4.59375-6.4375 9.191406-9.65625 13.785156-.496094.714844-.402344.613282-1.050781.152344-.703125-.488281-1.386719-1-2.050781-1.480468-.015625-.074219-.023438-.105469-.023438-.125 0-.03125 0-.058594.015625-.082032 3.328125-4.757812 6.65625-9.511718 9.984375-14.269531.125-.183594.265625-.359375.386719-.527344zm0 0"/><path d="m239.113281 96.914062c-.207031-1.109374-.394531-2.117187-.59375-3.125-.042969-.210937.050781-.304687.242188-.347656.910156-.207031 1.816406-.417968 2.730469-.621094 4.496093-1 9-1.992187 13.496093-2.992187.242188-.050781.484375-.105469.722657-.15625.152343-.035156.285156.007813.316406.167969.1875.957031.371094 1.914062.539062 2.878906.050782.296875 0 .355469-.34375.429688-1.496094.335937-3 .664062-4.496094 1-3.914062.867187-7.820312 1.738281-11.730468 2.597656-.265625.066406-.535156.101562-.882813.167968zm0 0"/><path d="m117.816406 187.425781c.121094.234375.035156.445313-.117187.601563-.351563.347656-.375.859375-.613281 1.261718-.101563.167969-.050782.386719-.007813.578126.238281.933593.125 1.816406-.308594 2.675781-.144531.300781-.210937.636719-.347656.9375-.25.5625-.460937.65625-1.039063.503906-.050781-.015625-.101562-.046875-.152343-.050781-.78125-.164063-1.015625-.375-1.058594-1.425782-.015625-.277343.035156-.554687.042969-.832031.007812-.242187.050781-.488281-.042969-.722656-.195313-.007813-.21875.152344-.253906.277344-.175781.613281-.351563 1.234375-.519531 1.847656-.167969.597656-.589844.992187-1.042969 1.355469-.257813.207031-.511719.148437-.710938-.128906-.09375-.132813-.179687-.285157-.230469-.4375-.140624-.402344-.367187-.671876-.8125-.722657-.109374-.015625-.183593-.132812-.128906-.257812.085938-.203125.171875-.40625.289063-.597657.378906-.613281.6875-1.277343 1.15625-1.824218.179687-.210938.277343-.476563.355469-.746094.476562-1.597656 1.050781-3.160156 1.488281-4.773438.023437-.074218.058593-.175781.167969-.132812.039062.015625.082031.074219.089843.117188.1875.992187.296875 1.988281.101563 2.988281-.050782.261719-.03125.496093.152344.699219.117187.132812.351562.125.402343-.042969.082031-.234375.136719-.480469.203125-.722657.066406-.242187.109375-.488281.191406-.730468.117188-.351563.335938-.394532.632813-.160156.183594.144531.308594.3125.324219.554687.011718.226563.09375.429687.21875.621094.144531.226562.34375.289062.554687.128906.21875-.160156.421875-.355469.628907-.53125.121093-.101563.203124-.261719.386718-.308594zm0 0"/><path d="m209.808594 178.019531c.09375-.058593.152344-.132812.226562-.140625.644532-.082031 1.199219-.378906 1.746094-.714844.304688-.191406.621094-.367187.949219-.503906.757812-.3125 1.503906-.277344 2.195312.210938.292969.203125.59375.410156.847657.65625.757812.722656.714843 1.71875-.082032 2.394531-.144531.125-.304687.234375-.464844.335937-.644531.410157-1.367187.359376-1.855468-.226562-.597656-.714844-1.378906-1.09375-2.226563-1.363281-.472656-.144531-.90625-.359375-1.335937-.648438zm0 0"/><path d="m52.042969 154.066406c0 .53125-.007813 1.066406-.160157 1.578125-.191406.640625-.578124 1.144531-1.140624 1.480469-.75.445312-1.613282.199219-2.066407-.5625-.320312-.53125-.335937-1.109375-.261719-1.699219.035157-.292969.234376-.488281.453126-.679687.289062-.253906.589843-.503906.859374-.78125.320313-.328125.546876-.6875.378907-1.199219-.0625-.203125.054687-.320313.265625-.28125.277344.050781.539062.019531.816406-.03125.363281-.066406.519531.023437.640625.351563.164063.421874.222656.859374.222656 1.3125-.007812.175781-.007812.34375-.007812.511718zm0 0"/><path d="m228.300781 146.453125c.269531-.015625.460938-.007813.640625.078125.257813.125.503906.183594.78125.039062.207032-.101562.386719.027344.484375.203126.289063.535156.546875 1.09375.683594 1.6875.097656.40625-.042969.78125-.394531 1.027343-.378906.265625-.824219.257813-1.167969.015625-.664063-.46875-1.4375-.671875-2.121094-1.066406-.265625-.152344-.527343-.292969-.777343-.472656-.246094-.175782-.261719-.328125-.109376-.570313.273438-.4375.59375-.789062 1.175782-.78125.300781.015625.570312-.226562.804687-.160156zm0 0"/><path d="m231.980469 143.640625c0 .109375.011719.226563 0 .335937-.066407.527344-.089844 1.039063.234375 1.511719.152344.234375.042968.496094-.113282.695313-.246093.320312-.609374.457031-.984374.554687-.195313.050781-.402344-.066406-.496094-.226562-.402344-.6875-.875-1.328125-1.3125-1.984375-.265625-.390625-.050782-.777344.386718-.890625.078126-.023438.160157-.03125.238282-.03125.46875.007812.835937-.210938 1.191406-.488281.203125-.160157.421875-.496094.671875-.386719.328125.136719.144531.539062.183594.832031zm0 0"/><path d="m108.777344 23.71875c-.277344-.511719-.429688-1.082031-.605469-1.628906-.015625-.035156.015625-.132813.050781-.140625.082032-.035157.167969 0 .195313.082031.21875.570312.542969 1.09375.6875 1.695312-.109375-.007812-.21875-.007812-.328125-.007812zm0 0"/><path d="m156.605469 18.695312c.007812-.527343.175781-1.023437.316406-1.527343.007813-.035157.066406-.085938.109375-.085938.117188-.015625.128906.085938.125.160157-.039062.496093-.105469.984374-.25 1.460937-.09375-.007813-.195312-.007813-.300781-.007813zm0 0"/><path d="m208.394531 45.011719c-.046875.363281-.21875.6875-.367187 1.015625-.027344.058594-.128906.125-.1875.117187-.082032-.007812-.117188-.117187-.089844-.191406.109375-.3125.117188-.664063.328125-.933594.101563-.007812.210937-.007812.316406-.007812zm0 0"/><path d="m115.257812 30.871094c.167969.191406.222657.4375.292969.671875.023438.074219.039063.183593-.050781.21875-.125.050781-.203125-.042969-.246094-.136719-.074218-.175781-.132812-.359375-.191406-.542969.058594-.0625.132812-.136719.195312-.210937zm0 0"/><path d="m232.148438 141.925781c.050781-.007812.109374-.015625.160156-.007812-.007813.050781-.007813.109375-.023438.160156-.042968.125-.085937.265625-.226562.308594-.085938.035156-.050782-.21875.089844-.460938zm0 0"/><path d="m118.84375 186.550781c.058594.050781.117188.101563.175781.152344-.089843.054687-.167969.132813-.261719.15625-.050781.011719-.125-.046875-.191406-.074219.023438-.042968.035156-.101562.074219-.132812.066406-.035156.136719-.0625.203125-.101563zm0 0"/></g><path d="m175.601562 193.726562-.042968-.007812h.027344zm0 0" fill="#004688"/><path d="m208.679688 34.574219c.019531-.285157.171874-.511719.328124-.882813.128907.464844-.074218.722656-.175781 1.003906-.050781-.035156-.101562-.078124-.152343-.121093zm0 0" fill="#003685"/><path d="m221.3125 55.464844c-.042969.066406-.078125.148437-.144531.199218-.058594.042969-.160157.101563-.203125.078126-.089844-.042969-.050782-.144532-.007813-.210938.066407-.085938.144531-.167969.21875-.25.050781.058594.09375.125.136719.183594zm0 0" fill="#003685"/><path d="m221.175781 55.28125c.074219-.078125.152344-.167969.246094-.050781.105469.125-.035156.167969-.109375.234375-.042969-.058594-.085938-.125-.136719-.183594zm0 0" fill="#003685"/><path d="m97.585938 104.070312c2.636718.121094 5.269531.261719 7.898437.503907 3.832031.339843 7.644531.859375 11.410156 1.664062 9.109375 1.925781 17.351563 5.75 24.667969 11.613281.90625.722657 1.789062 1.480469 2.679688 2.226563.363281.304687.371093.3125.757812-.007813 1.378906-1.152343 2.804688-2.25 4.261719-3.300781 6.097656-4.378906 12.761719-7.53125 19.953125-9.53125 3.234375-.898437 6.511718-1.578125 9.832031-2.058593 2.585937-.375 5.175781-.652344 7.78125-.847657 2.636719-.199219 5.265625-.300781 7.90625-.351562.109375 0 .21875-.007813.328125 0 .226562.007812.300781.082031.292969.300781-.007813.304688-.03125.613281-.050781.917969-.09375 1.226562-.191407 2.453125-.285157 3.671875-.144531 1.863281-.285156 3.730468-.421875 5.59375-.066406.859375-.132812 1.722656-.191406 2.589844-.191406 2.621093-.371094 5.234374-.5625 7.855468-.058594.808594-.109375 1.613282-.183594 2.421875-.050781.585938-.078125.613281-.640625.613281-1.898437.007813-3.796875 0-5.6875 0-.21875 0-.4375-.003906-.65625 0-.378906.015626-.410156.03125-.460937.433594-.035156.304688-.050782.613282-.070313.917969-.410156 5.328125-1.25 10.585937-2.820312 15.703125-1.160157 3.773438-2.707031 7.371094-4.796875 10.714844-3.882813 6.222656-9.1875 10.753906-15.816406 13.695312-3.367188 1.488282-6.871094 2.503906-10.476563 3.167969-2.351563.4375-4.722656.738281-7.109375.882813-.636719.039062-1.265625.007812-1.890625-.042969-4.25-.394531-8.441406-1.128907-12.507813-2.480469-4.261718-1.417969-8.226562-3.425781-11.789062-6.214844-3.925781-3.078125-7.058594-6.859375-9.480469-11.246094-2.210937-3.996093-3.730469-8.257812-4.796875-12.703124-.699218-2.90625-1.195312-5.847657-1.519531-8.820313-.121094-1.167969-.261719-2.328125-.320313-3.503906-.023437-.457031-.074218-.503907-.5625-.503907-1.925781-.003906-3.847656 0-5.773437 0-.21875 0-.4375.007813-.65625 0-.375-.011718-.410156-.035156-.4375-.4375-.097656-1.167968-.191406-2.335937-.273437-3.503906-.1875-2.730468-.371094-5.460937-.558594-8.1875-.21875-3.117187-.441406-6.242187-.664063-9.359375-.054687-.695312-.097656-1.394531-.148437-2.089843-.019532-.269532.035156-.386719.386718-.371094 1.148438.027344 2.300782.050781 3.453126.074218zm79.101562 44.964844c-.109375-.003906-.167969-.027344-.21875-.019531-1.648438.269531-3.296875.574219-4.933594.960937-5.359375 1.265626-10.445312 3.230469-15.226562 5.996094-4.007813 2.3125-7.671875 5.101563-11.097656 8.234375-.160157.144531-.320313.304688-.488282.445313-.117187.101562-.25.09375-.363281-.015625-.183594-.167969-.375-.328125-.558594-.496094-2.328125-2.09375-4.75-4.066406-7.304687-5.863281-4.269532-3-8.839844-5.414063-13.804688-7.015625-3.175781-1.027344-6.429687-1.691407-9.738281-2.070313-.074219-.007812-.167969-.007812-.199219.195313.332032.621093.703125 1.300781 1.054688 1.984375 1.613281 3.132812 3.785156 5.820312 6.304687 8.222656 2.59375 2.480469 5.613281 4.292969 8.898438 5.640625 5.03125 2.058594 10.300781 2.914063 15.679687 3.167969.300782.015625.609375-.007813.90625-.035156.765625-.082032 1.535156-.167969 2.292969-.253907 2.789063-.332031 5.535156-.890625 8.21875-1.71875 6.25-1.910156 11.621094-5.238281 15.953125-10.238281 1.238281-1.425781 2.40625-2.898438 3.289062-4.59375.34375-.664062.746094-1.304688 1.113282-1.964844.09375-.167968.230468-.3125.222656-.5625zm-32.105469-1.398437c.265625-.207031.492188-.375.703125-.542969 1.832032-1.472656 3.714844-2.875 5.648438-4.203125 4.109375-2.816406 8.417968-5.265625 13.039062-7.117187 3.125-1.25 6.328125-2.207032 9.652344-2.773438 2.058594-.351562 4.128906-.578125 6.226562-.628906.335938-.007813.394532-.058594.394532-.386719.003906-1.035156 0-2.066406 0-3.101563 0-.058593-.007813-.109374-.023438-.167968-.023437-.125-.101562-.199219-.226562-.191406-.140625 0-.277344.007812-.410156.023437-2.101563.246094-4.195313.539063-6.269532.949219-4.359375.859375-8.578125 2.152344-12.636718 3.96875-5.738282 2.570312-10.863282 6.066406-15.476563 10.375-.121094.117187-.234375.234375-.355469.34375-.269531.238281-.300781.238281-.554687.027344-.109375-.085938-.207031-.183594-.316407-.277344-1.167968-1.015625-2.378906-1.984375-3.621093-2.90625-5.53125-4.066406-11.53125-7.226563-17.972657-9.539063-3.605468-1.300781-7.296874-2.265625-11.09375-2.773437-.738281-.101563-1.476562-.148438-2.210937-.214844-.148437-.011719-.277344.054688-.277344.226562-.007812 1.117188-.007812 2.234376-.007812 3.351563 0 .160156.09375.257813.246093.269531.109376.015625.21875.015625.328126.03125 1.78125.160156 3.554687.355469 5.316406.671875 4.699218.839844 9.226562 2.253907 13.585937 4.234375 5.167969 2.347656 9.933594 5.371094 14.429688 8.839844.613281.503906 1.21875.984375 1.882812 1.511719zm-34.839843-12.265625c-.191407-.015625-.386719-.035156-.578126-.035156-.210937-.007813-.304687.078124-.277343.296874.125 1.050782.253906 2.105469.402343 3.15625.042969.296876.128907.378907.429688.40625.6875.074219 1.367188.125 2.050781.191407 1.921875.183593 3.8125.519531 5.695313.933593 5.023437 1.125 9.773437 2.980469 14.308594 5.429688 4.304687 2.335938 8.3125 5.117188 12.144531 8.183594.695312.554687.554687.550781 1.226562.023437.066407-.050781.132813-.101562.191407-.160156 3.09375-2.476563 6.300781-4.773437 9.695312-6.804687 4.058594-2.4375 8.304688-4.453126 12.832031-5.832032 3.648438-1.109375 7.367188-1.796875 11.175781-1.941406.109376-.007812.21875-.007812.328126-.023438.183593-.011718.300781-.101562.328124-.296874.105469-.695313.214844-1.382813.316407-2.074219.058593-.417969.125-.824219.167969-1.242188.019531-.21875-.066407-.292969-.292969-.269531-.082031.007812-.160157.023438-.25.03125-3.0625.289062-6.09375.824219-9.085938 1.558594-9.285156 2.28125-17.519531 6.617187-24.652343 13.089844-.371094.335937-.730469.679687-1.101563 1.015624-.21875.195313-.277344.195313-.496094.023438-.367187-.300781-.710937-.621094-1.074219-.921875-7.980468-6.570313-16.957031-11.117187-26.914062-13.644531-2.148438-.546875-4.34375-.917969-6.570312-1.09375zm.34375 6.972656c-.007813.070312-.039063.152344-.023438.226562.1875 1.070313.472656 2.117188.855469 3.136719.070312.207031.203125.328125.414062.34375.191407.015625.386719.03125.578125.035157 2.226563.125 4.421875.476562 6.589844.972656 4.425781 1.007812 8.601562 2.6875 12.601562 4.824218 4.589844 2.453126 8.816407 5.445313 12.824219 8.78125.148438.125.300781.25.445313.375.125.101563.25.101563.375.007813.144531-.125.296875-.25.445312-.375 2.253906-1.917969 4.597656-3.722656 7.042969-5.378906 4.085937-2.757813 8.394531-5.074219 13.039063-6.730469 3.933593-1.402344 7.96875-2.285156 12.144531-2.496094.109375-.007812.21875-.007812.328125-.015625.273437-.023437.445312-.109375.542968-.414062.277344-.90625.582032-1.804688.757813-2.738281.035156-.183594.140625-.367188.050781-.5625-.242187-.125-.488281-.050782-.730468-.03125-2.839844.300781-5.65625.753906-8.4375 1.441406-9.484376 2.328125-17.71875 6.96875-24.804688 13.757812-.671875.644532-.519531.59375-1.167969.042969-3.34375-2.824219-6.871093-5.386719-10.644531-7.589844-7.015625-4.101562-14.496094-6.761719-22.570312-7.636719-.207032-.027343-.425782-.101562-.65625.023438zm25.753906-12.660156c.160156 1.066406.699218 1.730468 1.539062 2.140625.957032.460937 1.957032.503906 2.976563.261719 1.054687-.253907 1.8125-.898438 2.316406-1.859376.195313-.375.335937-.769531.421875-1.175781.261719-1.21875.242188-2.441406.042969-3.664062-.085938-.527344-.238281-1.03125-.488281-1.503907-.40625-.78125-1.027344-1.308593-1.859376-1.558593-1-.296875-2.015624-.289063-3.007812.046875-1.132812.378906-1.855469 1.175781-2.097656 2.371094-.0625.328124-.0625.664062-.070313 1-.015625 1.371093.933594 2.429687 1.925781 2.753906 1.140626.363281 2.269532.429687 3.300782-.359375.035156-.027344.101562-.027344.152344-.042969.074218.621094-.050782 1.261719-.335938 1.730469-.304688.511719-.75.816406-1.351562.832031-.554688.015625-1.019532-.175781-1.253907-.753906-.074219-.175782-.226562-.21875-.402343-.21875-.554688.007812-1.132813 0-1.808594 0zm24.496094-5.042969c-.117188-1.101563-.664063-1.804687-1.597657-2.203125-.648437-.28125-1.328125-.324219-2.023437-.292969-1.832032.078125-3.128906 1.128907-3.539063 2.933594-.285156 1.234375-.292969 2.488281-.101562 3.746094.074219.472656.1875.925781.378906 1.363281.417969.957031 1.117187 1.570312 2.101563 1.855469.703124.203125 1.417968.226562 2.125.128906 1.421874-.1875 2.480468-1.179687 2.816406-2.574219.484375-2.050781-.742188-3.789062-2.800782-3.957031-.898437-.074219-1.753906.007813-2.535156.691406-.078125-.683593.082032-1.230469.34375-1.75.269532-.539062.714844-.847656 1.316406-.875.582032-.039062 1.09375.109375 1.339844.734375.058594.140625.175782.207032.332032.207032.597656-.015626 1.195312-.007813 1.84375-.007813zm-8.378907 3.707031c-.085937-.019531-.160156-.058594-.242187-.066406-.269532-.027344-.613282.054688-.792969-.09375-.25-.1875-.109375-.578125-.109375-.875-.015625-1.59375 0-3.183594-.007812-4.773438 0-.34375-.058594-.410156-.375-.410156-.605469-.007812-1.210938.007813-1.808594-.007812-.257813-.007813-.402344.117187-.535156.316406-.253907.390625-.523438.777344-.792969 1.167969-.921875 1.347656-1.847657 2.707031-2.765625 4.058593-.140625.203126-.308594.390626-.300782.671876.007813.386718 0 .777343.007813 1.171874 0 .15625.085937.265626.253906.273438.300781.003906.605469.011719.90625.011719.933594 0 1.867188 0 2.804688.007812.332031 0 .371093.042969.378906.402344.007813.445313 0 .890625.007813 1.335937.003906.335938.070312.414063.371093.421876.496094.007812.984375.015624 1.480469 0 .300781-.007813.359375-.078126.367188-.421876.007812-.476562.007812-.949218.007812-1.425781 0-.195312.070312-.3125.28125-.320312.21875 0 .441406-.007813.660156-.011719.167969-.007812.246094-.125.246094-.273438 0-.378906.058594-.765624-.042969-1.160156zm-19.585937-1.3125c0-1.367187 0-2.738281 0-4.101562 0-.199219-.007813-.394532-.015625-.585938-.007813-.132812-.09375-.195312-.21875-.203125-.386719-.007812-.765625-.007812-1.152344-.015625-.242187-.007812-.394531.035156-.46875.335938-.144531.636718-.632813.957031-1.203125 1.152344-.386719.140624-.796875.210937-1.210938.207031-.527343-.015625-.554687.058593-.546874.566406 0 .199219.003906.394531.011718.585937.007813.128907.097656.1875.210938.203126.164062.007812.332031.015624.5.015624.515625 0 1.042968-.007812 1.558594.007813.273437.007813.332031.078125.34375.347656.007812.167969.007812.335938.007812.503907v5.023437c0 .226563 0 .445313.023438.671875.007812.125.09375.203125.210937.210938.578125.007812 1.152344.007812 1.730469-.007813.117187 0 .1875-.109375.195312-.226563.015625-.164062.015625-.332031.015625-.5.007813-1.394531.007813-2.789062.007813-4.191406zm0 0" fill="#003685"/><path d="m186.464844 92.039062v8.042969c0 .199219.007812.394531-.007813.585938-.015625.285156-.058593.335937-.34375.355469-.738281.050781-1.480469.101562-2.21875.140624-2.308593.109376-4.597656.378907-6.882812.738282-3.503907.546875-6.957031 1.363281-10.339844 2.464844-7.917969 2.59375-15.035156 6.644531-21.351563 12.164062-.1875.160156-.378906.328125-.5625.488281-.152343.132813-.289062.109375-.4375-.007812-.488281-.410157-.976562-.808594-1.472656-1.210938-4.871094-3.921875-10.117187-7.207031-15.855468-9.667969-4.242188-1.816406-8.621094-3.152343-13.15625-3.976562-2.867188-.527344-5.757813-.875-8.671876-.992188-.746093-.03125-1.480468-.082031-2.21875-.125-.476562-.027343-.476562-.027343-.488281-.546874 0-.109376 0-.226563 0-.335938 0-5.394531 0-10.789062.003907-16.175781 0-.992188-.113282-.824219.820312-1.148438 2.648438-.898437 5.085938-2.226562 7.46875-3.683593 6.917969-4.265626 13.234375-9.316407 18.882812-15.207032 4.679688-4.878906 8.804688-10.199218 12.453126-15.90625.753906-1.167968 1.460937-2.367187 2.191406-3.550781.234375-.378906.300781-.378906.53125.039063.34375.605468.671875 1.21875 1.015625 1.824218 5.300781 9.34375 12.007812 17.476563 20.207031 24.332032 5.371094 4.488281 11.210938 8.246093 17.519531 11.234374.746094.351563 1.519531.648438 2.285157.949219.746093.292969.613281.269531.613281.976563.015625 2.714844.015625 5.453125.015625 8.199218zm-4.082032-.460937c.007813-1.867187.007813-3.746094 0-5.613281 0-.949219.050782-.765625-.699218-1.085938-3.78125-1.609375-7.417969-3.511718-10.886719-5.746094-7.847656-5.046874-14.511719-11.390624-20.152344-18.863281-2.03125-2.6875-3.894531-5.484375-5.601562-8.386719-.472657-.8125-.402344-.898437-.984375.011719-1.644532 2.585938-3.386719 5.089844-5.242188 7.519531-5.25 6.890626-11.269531 12.980469-18.277344 18.023438-4.25 3.058594-8.703124 5.769531-13.550781 7.730469-.34375.140625-.480469.328125-.445312.6875.015625.136719 0 .277343 0 .414062v10.734375c0 .195313-.007813.394532.007812.582032.015625.328124.066407.378906.386719.402343 1.125.058594 2.25.175781 3.367188.300781 2.515624.269532 5.007812.691407 7.472656 1.261719 9.671875 2.210938 18.398437 6.453125 26.148437 12.746094.175781.136719.34375.277344.519531.40625.125.097656.253907.082031.371094-.011719.132813-.101562.257813-.214844.386719-.316406 1.183594-.910156 2.34375-1.851562 3.550781-2.734375 4.617188-3.382813 9.570313-6.132813 14.917969-8.125 5.796875-2.164063 11.789063-3.324219 17.964844-3.535156.167969-.007813.332031-.015625.5-.023438.167969-.003906.238281-.121093.246093-.277343.015626-.226563.007813-.445313.007813-.671876-.007813-1.792968-.007813-3.613281-.007813-5.429687zm0 0" fill="#003685"/><path d="m137.824219 125.664062c-.023438-.484374.007812-.753906.117187-1.023437.1875-.480469.539063-.757813 1.035156-.847656.082032-.015625.160157-.027344.25-.027344.632813-.03125 1.234376.058594 1.5625.691406.34375.65625.394532 1.351563.007813 2-.390625.65625-1.03125.796875-1.730469.703125-.664062-.097656-1.074218-.496094-1.214844-1.191406-.035156-.167969-.035156-.34375-.027343-.304688zm0 0" fill="#003685"/><path d="m158.402344 128.976562c-.015625.082032-.035156.300782-.09375.511719-.199219.722657-.652344 1.117188-1.320313 1.175781-.6875.058594-1.335937-.300781-1.628906-.90625-.125-.25-.191406-.519531-.207031-.804687-.0625-1.289063 1.074218-2.136719 2.265625-1.691406.640625.246093.984375.789062.984375 1.714843zm0 0" fill="#003685"/><path d="m148.585938 124.195312v3.75c0 .191407-.082032.332032-.285157.332032-.710937.003906-1.425781.003906-2.132812 0-.117188 0-.191407-.132813-.140625-.234375.039062-.074219.082031-.148438.125-.210938.730468-1.113281 1.46875-2.214843 2.207031-3.324219.042969-.058593.09375-.125.226563-.3125zm0 0" fill="#003685"/><path d="m150.648438 93.828125c-.238282-.140625-.480469-.265625-.714844-.410156-1.648438-1.058594-3.292969-2.117188-4.925782-3.199219-.320312-.210938-.554687-.222656-.875-.003906-1.679687 1.109375-3.375 2.195312-5.066406 3.289062-.175781.117188-.335937.277344-.5625.277344-.109375-.222656.007813-.398438.058594-.582031.582031-1.863281 1.160156-3.722657 1.742188-5.578125.050781-.160156.097656-.320313.140624-.480469.027344-.117187-.015624-.226563-.101562-.300781-.167969-.136719-.351562-.269532-.535156-.394532-1.363282-.984374-2.738282-1.960937-4.101563-2.949218-.21875-.152344-.421875-.320313-.636719-.480469.140626-.21875.324219-.152344.46875-.152344 1.808594-.007812 3.628907-.007812 5.4375-.007812.191407 0 .386719-.015625.578126 0 .300781.019531.445312-.132813.53125-.402344.324218-.976563.652343-1.957031.980468-2.933594.421875-1.269531.847656-2.535156 1.269532-3.804687.035156-.101563.058593-.21875.101562-.3125.015625-.042969.074219-.089844.109375-.089844.042969 0 .117187.039062.125.074219.175781.496093.351563 1 .519531 1.496093.574219 1.714844 1.160156 3.433594 1.734375 5.140626.039063.101562.074219.210937.109375.3125.183594.503906.183594.511718.695313.511718 1.34375.007813 2.691406 0 4.035156 0h1.898437c.132813 0 .265626 0 .4375.085938-.1875.242187-.40625.359375-.597656.5-1.410156 1.019531-2.816406 2.035156-4.226562 3.050781-.109375.078125-.226563.160156-.335938.238281-.261718.214844-.285156.25-.1875.5625.109375.375.230469.746094.347656 1.117188.496094 1.59375.992188 3.191406 1.488282 4.78125.066406.207031.191406.410156.054687.636718zm0 0" fill="#003685"/><path d="m150.636719 93.839844c.019531-.003906.042969-.027344.050781-.019532.042969.035157.019531.035157-.042969.007813zm0 0" fill="#003685"/></svg>