<svg height="324.319174" viewBox="0 0 246 259" width="308.338229" xmlns="http://www.w3.org/2000/svg"><path d="m222.457031 171.6875c0 34.308594-27.796875 62.152344-62.175781 62.152344h-71.335938c-34.308593 0-62.171874-27.84375-62.171874-62.152344v-85.308594c0-34.296875 27.863281-62.097656 62.171874-62.097656h71.328126c34.375 0 62.171874 27.800781 62.171874 62.097656v85.308594zm0 0" fill="#fff"/><path d="m168.3125.128906h-90.570312c-42.949219 0-77.742188 34.75-77.742188 77.65625v103.441406c0 42.894532 34.792969 77.644532 77.742188 77.644532h90.5625c42.933593 0 77.695312-34.75 77.695312-77.644532v-103.441406c0-42.90625-34.761719-77.65625-77.6875-77.65625m40.070312 160.152344c0 34.339844-27.828124 62.128906-62.140624 62.128906h-46.417969c-34.34375 0-62.195313-27.800781-62.195313-62.128906v-61.242188c0-34.34375 27.851563-62.152343 62.195313-62.152343h46.417969c34.3125 0 62.140624 27.808593 62.140624 62.152343zm0 0" fill="#00633d"/><path d="m25.5 54.890625 3.207031-4.742187 2.21875 3-1.789062 2.609374zm-8.746094 2.824219c-.132812.21875-.1875.449218-.175781.703125 0 .21875.109375.414062.273437.535156.210938.222656.464844.285156.714844.253906.320313-.03125.5625-.1875.691406-.460937l5.097657-7.488282 1.761719 1.164063-3.605469 5.378906c-.679688.976563-.847657 1.734375-.449219 2.285157.382812.527343.8125.921874 1.304688 1.273437l10.449218 7.027344c.21875.140625.449219.207031.769532.183593.21875-.042968.417968-.175781.527343-.347656.109375-.222656.132813-.464844.066407-.703125-.066407-.222656-.210938-.398437-.417969-.5625l-10.171875-6.859375c-.289063-.210937-.519532-.398437-.671875-.660156-.164063-.242188-.097657-.59375.242187-1.054688l1.296875-1.910156 3.691407.769532-1.1875 1.789062c-.097657.175781-.175782.417969-.164063.605469.066406.21875.132813.425781.316406.570312.1875.175781.398438.21875.671875.175781.242188-.066406.449219-.175781.625-.417968l2.5625-3.84375 1.722656 1.132812-3.195312 4.820313c-.164062.238281-.242188.460937-.1875.699219.066406.242187.164062.453124.363281.539062.242188.210938.449219.253906.714844.210938.273437-.046876.492187-.210938.636719-.484376l3.195312-4.710937 3.40625 2.285156c.21875.175781.429688.21875.734375.175781.222657-.046874.429688-.175781.59375-.394531.144531-.210937.167969-.460937.101563-.703125-.011719-.308594-.175782-.484375-.398438-.636718l-3.382812-2.285157 3.253906-4.753906c.128906-.207031.175781-.449219.128906-.703125-.074218-.21875-.238281-.460938-.480468-.558594-.222657-.164062-.429688-.164062-.671876-.132812-.21875.035156-.382812.144531-.503906.320312l-3.21875 4.773438-1.757812-1.128906 2.4375-3.636719c.164062-.183594.207031-.449219.132812-.65625-.066406-.320313-.210937-.429688-.429687-.570313-.207031-.101562-.382813-.132812-.59375-.101562-.21875.101562-.394531.242187-.492188.386718l-1.132812 1.613282-2.144531-3.0625 1.132812-1.714844c.253906-.382812.496094-.636719.625-.703125.1875-.128906.363281-.175781.605469-.140625.210937.011719.449219.140625.746093.339844l8.308594 5.535156c.394532.339844.625.589844.691406.867188.03125.25-.042968.492187-.1875.777343-.285156.460938-.605468.867188-.988281 1.152344-.382812.320313-.59375.507813-.660156.570313-.074219.210937-.097656.398437-.066406.59375.046875.21875.132812.394531.308593.503906.570313.417968 1.339844.066406 2.296876-1.0625.976562-1.121094 1.40625-2.011719 1.296874-2.535156-.066406-.5625-.253906-.988282-.507812-1.265626-.25-.21875-.570312-.527343-.921875-.777343l-8.886719-6.015625c-.453125-.289063-.847656-.484375-1.230468-.574219-.351563-.097656-.78125-.042969-1.1875.113281-.460938.171875-.976563.734375-1.558594 1.558594l-3.386719 4.992188-1.722656-1.183594 5.152343-7.664063c.175782-.1875.175782-.449219.164063-.667969-.011719-.253906-.207031-.460937-.417969-.628906-.207031-.128906-.425781-.140625-.703125-.109375-.207031.046875-.425781.1875-.558593.398438l-5.175782 7.628906-.769531-.496094c-.21875-.140625-.417969-.175781-.691406-.128906-.308594.042969-.527344.183594-.660157.425781-.1875.253906-.21875.496094-.140624.769532.042968.253906.175781.460937.359374.59375l.75.460937zm0 0" fill="#fff"/><path d="m56.921875 29.5625c-.449219.242188-.714844.351562-.890625.386719-.21875.03125-.382812 0-.539062-.144531-.132813-.066407-.308594-.285157-.449219-.601563l-.8125-1.660156c-.132813-.242188-.210938-.527344-.210938-.714844.023438-.339844.222657-.570313.714844-.8125l10.207031-5.003906c.558594-.273438.921875-.351563 1.164063-.164063.199219.183594.351562.382813.527343.636719l.660157 1.414063c.273437.460937.382812.746093.351562.921874-.023437.144532-.035156.308594-.164062.417969-.101563.132813-.308594.273438-.628907.417969zm1.503906 3.019531c-.078125.164063-.1875.417969-.273437.800781-.078125.363282-.285156.980469-.5625 1.769532-.285156.835937-.558594 1.480468-.800782 2.007812l-1.097656 2.042969c-.210937.363281-.285156.636719-.285156.878906.03125.175781.074219.382813.175781.527344.128907.1875.304688.316406.515625.339844.253906 0 .492188-.023438.703125-.164063.242188-.175781.636719-.769531 1.164063-1.835937.570312-1.03125 1.054687-2.117188 1.40625-3.128907.363281-1.007812.570312-1.734374.703125-2.183593.097656-.417969.097656-.679688.011719-.921875-.078126-.253906-.285157-.417969-.527344-.484375-.242188-.109375-.484375-.074219-.714844 0-.175781.066406-.296875.222656-.417969.351562m-9.777343-9.351562c-.242188.128906-.449219.304687-.527344.570312-.097656.25-.132813.480469-.03125.667969.0625.273438.304687.417969.558594.503906.242187.046875.527343.046875.835937-.097656l18.070313-8.914062c.253906-.144532.464843-.382813.527343-.636719.078125-.308594.078125-.515625-.03125-.714844-.109375-.1875-.320312-.339844-.570312-.417969-.253907-.042968-.5625-.03125-.78125.078125l-7.679688 3.84375-.558593-.460937c-.046876-.066406-.308594-.175782-.671876-.429688-.382812-.1875-.671874-.328125-.847656-.425781-.304687-.035156-.535156 0-.800781.128906-.253906.144531-.382813.320313-.449219.570313-.066406.277344-.042968.496094.066406.628906.042969.140625.128907.273438.1875.304688.097657.046874.207032.132812.394532.277343.175781.140625.394531.304688.59375.414063zm19.292968 2.972656c.976563-.503906 1.515625-.886719 1.613282-1.347656.144531-.417969.175781-.738281.164062-1.035157-.007812-.285156-.109375-.625-.273438-.910156l-1.308593-2.601562c-.183594-.429688-.527344-.835938-1.117188-1.230469-.5625-.417969-1.40625-.351563-2.460937.242187l-10.988282 5.445313c-1.066406.460937-1.582031 1.054687-1.582031 1.734375.066407.660156.164063 1.164062.339844 1.503906l1.132813 2.296875c.242187.449219.484374.832031.691406 1.085938.242187.242187.539062.449219.976562.601562.429688.144531 1.230469-.042969 2.441406-.65625l4.285157-2.121093 2.601562 5.152343c.175781.382813.277344.636719.285157.800781 0 .164063-.109376.339844-.359376.527344-.167968.109375-.464843.25-.878906.414063-.398437.144531-.769531.242187-1.089844.253906-.316406.042969-.503906.144531-.605468.175781-.207032.109375-.351563.285156-.425782.503906-.078124.242188-.078124.496094.011719.738282.109375.175781.304688.351562.460938.414062.242187.144532.65625.101563 1.242187-.0625.636719-.175781 1.273438-.363281 1.976563-.660156 1.03125-.515625 1.59375-.945312 1.703125-1.40625.074218-.425781.140625-.777344.074218-1.019531-.019531-.273438-.097656-.460938-.183593-.691407l-3-6.027343zm7.074219 3.910156-1.472656-.625c-.714844-.285156-1.371094-.515625-2.007813-.691406l-1.726562-.574219c-.734375-.238281-1.207032-.394531-1.503906-.394531-.285157-.066406-.527344-.066406-.695313 0-.285156.101563-.414063.320313-.527344.59375-.074219.320313-.007812.539063.078125.691406.109375.207031.308594.351563.5625.417969.285156.132812.910156.351562 1.898438.601562 1.054687.289063 1.792968.5625 2.296875.738282.496093.21875 1.054687.460937 1.726562.800781.636719.273437 1.117188.429687 1.359375.429687.175782 0 .417969-.066406.5625-.144531.242188-.078125.394532-.285156.492188-.539062.046875-.25 0-.515625-.183594-.710938-.144531-.265625-.453125-.441406-.859375-.59375zm0 0" fill="#fff"/><path d="m96.515625 20.296875v-11.121094c0-.308593.035156-.539062.242187-.746093.175782-.21875.386719-.308594.605469-.308594.1875 0 .382813.097656.558594.308594.144531.152343.285156.449218.285156.746093v11.363281c0 .835938-.074219 1.757813-.21875 2.753907-.175781.988281-.484375 1.902343-.945312 2.714843-.460938.84375-1.261719 1.820313-2.460938 2.886719-1.164062 1.085938-1.964843 1.40625-2.261719 1.007813-.320312-.449219-.496093-.765625-.496093-.976563.046875-.183593.15625-.351562.308593-.527343.164063-.175782.714844-.570313 1.660157-1.207032.945312-.65625 1.59375-1.503906 1.964843-2.503906.363282-1.0625.574219-1.855469.636719-2.390625.046875-.496094.078125-1.152344.121094-2m-4.4375 3.347656v-12.820312c0-.308594.078125-.527344.285156-.683594.164063-.21875.386719-.316406.5625-.316406.25 0 .414063.097656.589844.316406.1875.164063.277344.386719.277344.683594v12.820312c0 .308594-.078125.527344-.277344.703125-.175781.1875-.359375.277344-.625.277344-.1875 0-.382813-.101562-.527344-.308594-.195312-.1875-.285156-.417968-.285156-.671875m14.644531-12.820312v2.875h2.988282c.769531 0 1.308593.132812 1.539062.363281.253906.242188.460938.527344.558594.832031.078125.339844.144531.703125.144531 1.089844v9.714844c0 .667969-.1875 1.152343-.527344 1.515625-.351562.394531-1.097656.558594-2.21875.527344-.714843-.042969-1.199219-.132813-1.375-.308594-.242187-.21875-.316406-.449219-.316406-.703125.011719-.242188.097656-.417969.21875-.515625.097656-.066406.273437-.140625.558594-.140625l1.023437.128906c.363282.011719.625-.042969.769532-.21875.140624-.132813.207031-.449219.207031-.878906v-8.375c-.011719-.320313-.042969-.539063-.066407-.746094-.007812-.167969-.140624-.34375-.273437-.460937-.164063-.113282-.449219-.144532-.878906-.144532h-2.351563v13.910156c0 .242188-.03125.460938-.164062.671876-.207032.171874-.382813.304687-.59375.316406-.253906.011718-.449219-.042969-.636719-.21875-.175781-.175782-.285156-.429688-.285156-.738282v-13.941406h-1.550781c-.363282 0-.59375.03125-.777344.132813-.144532.074219-.289063.1875-.320313.351562-.066406.128907-.066406.425781-.066406.878907v9.757812c0 .242188-.066406.496094-.242187.671875-.140626.207031-.351563.304687-.601563.304687-.210937 0-.386719-.03125-.539063-.304687-.175781-.253906-.253906-.460937-.253906-.671875v-10.429688c0-.417968.042969-.777343.164063-1.164062.101562-.339844.277343-.601562.5625-.855469.285156-.207031.777343-.339843 1.648437-.339843h1.996094v-2.886719h-4.613281c-.328125 0-.59375-.066407-.777344-.253907-.1875-.132812-.277344-.394531-.277344-.59375-.066406-.273437.078125-.460937.308594-.625.253906-.164062.449219-.253906.746094-.253906h11.941406c.222656 0 .429687.101563.605469.253906.175781.152344.273437.351563.273437.625.023438.1875-.074219.429688-.273437.59375-.140625.1875-.382813.253907-.605469.253907zm0 0" fill="#fff"/><path d="m139.804688 10.40625v-1.824219c0-.152343.109374-.363281.242187-.492187.152344-.199219.359375-.308594.625-.339844.21875-.035156.429687.074219.636719.273438.175781.140624.273437.351562.273437.558593l-.03125 1.824219h5.945313v-1.769531c0-.164063.0625-.316407.21875-.503907.175781-.175781.351562-.273437.605468-.285156.273438 0 .414063.066406.625.253906.175782.164063.21875.351563.21875.535157v1.769531h5.382813c.222656 0 .417969.042969.574219.1875.175781.164062.238281.339844.285156.601562.007812.21875-.046875.429688-.210938.625-.207031.167969-.394531.253907-.660156.253907h-5.382812v1.472656c0 .207031-.042969.449219-.195313.625-.1875.164063-.363281.273437-.605469.285156-.21875.03125-.449218-.066406-.605468-.253906-.1875-.175781-.273438-.382813-.273438-.65625v-1.472656h-5.945312v1.679687c0 .242188-.0625.417969-.207032.570313-.164062.164062-.363281.242187-.605468.253906-.25.03125-.460938-.066406-.625-.21875-.1875-.1875-.308594-.363281-.308594-.605469v-1.679687h-5.273438c-.273437 0-.546874-.109375-.691406-.285157-.175781-.21875-.242187-.429687-.1875-.703124.011719-.207032.144532-.382813.273438-.492188.175781-.144531.386718-.1875.605468-.1875zm-5.636719 7.289062c.097656-.382812.382812-.503906.8125-.460937.21875.066406.878906.429687 1.96875 1.164063 1.097656.667968 1.710937 1.066406 1.886719 1.242187.175781.171875.253906.382813.277343.589844 0 .1875-.035156.386719-.222656.5625-.175781.238281-.417969.285156-.679687.273437-.1875-.035156-.78125-.328125-1.734376-.988281-1.011718-.625-1.648437-1.019531-1.835937-1.195313-.21875-.113281-.351563-.253906-.417969-.398437-.097656-.074219-.097656-.21875-.097656-.359375-.011719-.15625-.011719-.320312.042969-.429688m5.03125 4.117188c.273437-.109375.527343-.042969.769531.164062.242188.175782.308594.429688.308594.691407.011718.285156-.046875.636719-.222656 1.03125-.339844.75-.691407 1.40625-.953126 1.933593-.277343.527344-.714843 1.308594-1.394531 2.359376-.628906 1.066406-1.132812 1.625-1.484375 1.582031-.351562-.042969-.625-.175781-.8125-.394531-.1875-.242188-.242187-.484376-.144531-.78125.011719-.140626.175781-.394532.417969-.734376.253906-.285156.714844-1.054687 1.339844-2.207031.683593-1.164062 1.15625-2.0625 1.375-2.613281.242187-.601562.484374-.953125.800781-1.03125m1.023437-4.765625c.066406.320313-.023437.660156-.351562.957031-.320313.25-.769532.175782-1.230469-.21875-.34375-.222656-.945313-.703125-1.769531-1.441406-.847656-.703125-1.328125-1.164062-1.417969-1.304688-.152344-.144531-.175781-.308593-.175781-.484374 0-.132813.042968-.273438.175781-.394532.097656-.164062.253906-.273437.460937-.316406.21875-.078125.429688-.078125.660157 0 .164062.042969.382812.183594.679687.460938.320313.285156.726563.589843 1.265625 1.03125.570313.382812 1.007813.734374 1.261719 1.0625.285156.320312.429688.527343.441406.648437m1.933594.320313c.042969-.484376.152344-1.023438.328125-1.515626.21875-.484374.824219-.746093 1.835937-.746093h5.699219c.78125 0 1.363281.128906 1.683594.304687.339844.242188.570313.527344.734375.878906.132812.375.1875.957032.132812 1.691407-.011718.570312-.078124 1.273437-.1875 2.175781-.132812.886719-.21875 1.558594-.328124 2.074219-.175782.480469-.417969.945312-.835938 1.4375-.394531.460937-1.1875.667969-2.296875.59375-.460937-.011719-.921875-.078125-1.417969-.175781-.515625-.164063-.878906-.242188-1.183594-.386719-.320312-.128907-.496093-.285157-.628906-.449219-.109375-.175781-.128906-.492188 0-.832031.109375-.398438.484375-.5625 1.101563-.453125.0625.011718.394531.066406.734375.1875.394531.097656.734375.144531 1.085937.242187.738281.042969 1.230469-.097656 1.417969-.484375.253906-.382812.363281-.710937.429688-1.117187.066406-.320313.097656-.78125.175781-1.417969.042969-.636719.152343-1.066406.152343-1.371094.023438-.339844 0-.59375-.066406-.769531-.097656-.164063-.207031-.308594-.339844-.328125-.074218-.023438-.285156-.101562-.636718-.101562h-4.867188c-.460937 0-.734375.132812-.867187.386718-.097657.175782-.132813.480469-.132813.878906v7.660157c0 .253906.035156.496093.109375.769531.113281.273438.253907.496094.417969.671875.175781.207031.769531.304687 1.824219.382813.988281.066406 1.738281.097656 2.1875.066406.308593 0 1.085937 0 2.207031-.097656 1.097656-.046876 1.800781-.210938 2.011719-.460938.242187-.210938.429687-.5625.492187-1.023438l.222656-1.183593c.140626-.5625.480469-.8125 1.042969-.769531.503907.03125.714844.425781.679688 1.230468-.03125.382813-.109375.910156-.207031 1.511719-.109376.605469-.320313 1.011719-.496094 1.339844-.273438.308593-.769532.574219-1.546875.878906-.804688.242187-2.320313.351563-4.582031.308594-2.472657 0-3.988282-.144531-4.550782-.351563-.589844-.1875-.953125-.484375-1.207031-.835937-.21875-.339844-.328125-1.019531-.328125-2.085938zm0 0" fill="#fff"/><path d="m178.652344 20.078125c-.320313-.144531-.570313-.394531-.636719-.625-.109375-.285156-.152344-.527344 0-.746094.042969-.242187.285156-.429687.59375-.527343.339844-.066407.636719-.046876.988281.128906l7.613282 4.097656 1.59375-2.953125c.109374-.285156.308593-.449219.59375-.570313.242187-.144531.492187-.167968.734374-.035156.273438.078125.449219.273438.527344.605469.078125.316406.042969.570313-.132812.921875l-1.582032 2.984375 7.78125 4.097656c.207032.140625.371094.316407.425782.589844.101562.222656.078125.484375-.007813.78125-.167969.242187-.34375.449219-.59375.515625-.277343.078125-.507812.042969-.78125-.066406l-7.535156-4.070313c-.132813.394531-.253906.734375-.351563 1.097657-.078124.382812-.1875 1.152343-.242187 2.28125-.109375 1.152343-.066406 2.261718.011719 3.339843.097656 1.097657.339844 2.28125.703125 3.554688.316406 1.273437.746093 2.394531 1.21875 3.347656.460937 1.011719.714843 1.683594.777343 2 .078126.320313.078126.605469 0 .8125-.0625.242187-.25.394531-.535156.558594-.332031.144531-.628906.109375-.925781-.109375-.351563-.164063-.945313-1.371094-1.789063-3.621094-.878906-2.230469-1.339843-4.335938-1.40625-6.171875-.109374-1.886719-.042968-3.601563.242188-5.246094-.460938.414063-.890625.777344-1.296875 1.152344-.429687.328125-1.089844.84375-1.96875 1.414063-.886719.605468-1.976563 1.1875-3.261719 1.660156-1.273437.492187-2.503906.8125-3.625.976562-1.1875.207032-2.144531.285156-2.921875.339844-.78125.03125-1.308593 0-1.582031-.132812-.285156-.164063-.460938-.359376-.527344-.589844-.078125-.277344-.078125-.496094.03125-.714844.109375-.242188.242188-.417969.394532-.484375.1875-.109375 1.011718-.21875 2.398437-.25 1.449219-.011719 3.140625-.363281 5.074219-1.066406 1.945312-.660157 3.492187-1.515625 4.691406-2.613281 1.1875-1.066407 1.933594-1.832032 2.253906-2.25l.328125-.484376zm0 0" fill="#fff"/><path d="m218.894531 66.429688c.078125.242187.167969.453124.078125.660156 0 .253906-.140625.449218-.339844.59375-.242187.097656-.429687.109375-.648437.097656-.242187-.066406-.417969-.164062-.550781-.429688l-4.292969-6.75c-.222656.417969-.453125.890626-.714844 1.339844-.273437.460938-.625.867188-1.054687 1.21875-.417969.363282-.890625.601563-1.296875.746094-1.121094.351562-2.078125.1875-2.902344-.449219-.765625-.671875-1.40625-1.382812-1.898437-2.316406-.273438-.460937-.496094-.957031-.703126-1.503906-.1875-.539063-.320312-1.011719-.394531-1.40625-.078125-.386719-.078125-.714844-.046875-.988281.066406-.210938.253906-.429688.519532-.570313.285156-.132813.492187-.132813.710937-.011719.167969.164063.34375.316406.417969.527344.042968.164062.132812.527344.242187 1.207031.109375.660157.394531 1.328125.867188 2.085938.847656 1.472656 1.726562 2.007812 2.496093 1.625.714844-.429688 1.296876-.746094 1.558594-1.164063.320313-.394531.527344-.769531.691406-1.085937l.351563-1.097657-5.558594-8.738281c-.132812-.242187-.175781-.429687-.109375-.695312 0-.21875.175782-.394531.351563-.523438.21875-.132812.429687-.175781.660156-.113281.21875.066406.382813.210938.546875.386719l4.746094 7.496093c.242187-.097656.398437-.164062.574218-.164062.164063 0 .460938.164062.976563.625.429687.363281.8125.714844 1.164063.925781.320312.21875.726562.492188 1.121093.765625.394531.222656.691407.363282.835938.417969.097656 0 .1875 0 .273437-.042969.042969-.042968.042969-.109375.023438-.210937-.023438-.074219-.242188-.425781-.574219-1.007813l-4.535156-7.105468c-.164063-.183594-.175781-.449219-.132813-.65625.042969-.273438.1875-.417969.394532-.539063.15625-.164063.386718-.175781.671874-.132813.1875.101563.363282.210938.496094.398438l5.734375 9.035156c.273438.414063.425781.746094.527344 1.054688.007813.304687 0 .558594-.210937.832031-.175782.21875-.527344.363281-1.011719.417969-.351563 0-.921875-.097656-1.613281-.351563-.703126-.21875-1.132813-.394531-1.328126-.515625l-1.453124-.769531zm5.902344-5.6875c.351563.605468.558594 1.121093.625 1.5625.066406.480468-.066406.84375-.417969 1.152343-.425781.273438-.835937.515625-1.261718.625-.386719.109375-.835938.1875-1.394532.273438-.527344.078125-.914062.078125-1.132812-.074219-.242188-.078125-.417969-.253906-.539063-.484375-.097656-.175781-.144531-.417969-.078125-.636719.078125-.242187.210938-.386718.398438-.460937.0625-.042969.175781-.042969.273437-.042969.03125-.046875.363281-.046875.84375-.066406.496094-.046875.835938-.144532 1.011719-.277344.144531-.128906.210938-.285156.242188-.425781 0-.144531-.03125-.21875-.078126-.332031-.0625-.0625-.238281-.304688-.460937-.746094l-8.304687-12.953125c-.164063-.320313-.308594-.527344-.382813-.59375-.078125-.097657-.167969-.097657-.277344-.097657s-.242187.066407-.363281.109376l-.800781.503906c-.207031.144531-.429688.1875-.660157.144531-.238281-.066406-.425781-.164063-.535156-.351563-.132812-.1875-.144531-.417968-.101562-.671874.035156-.242188.175781-.425782.363281-.558594l1.164063-.746094c.460937-.285156.8125-.449219 1.042968-.496094.289063-.042968.507813-.007812.703125.109375.175781.066407.277344.113281.386719.253907.078125.132812.273438.382812.527344.769531zm-5.890625-12.109376c-.140625.144532-.339844.175782-.625.144532-.21875-.011719-.40625-.1875-.550781-.484375-.097657-.21875-.097657-.59375 0-1.03125.132812-.449219.222656-1.054688.320312-1.710938.109375-.703125.1875-1.1875.339844-1.503906.152344-.320313.308594-.507813.503906-.628906.222657-.097657.453125-.066407.628907.066406.207031.144531.339843.308594.394531.503906.078125.210938.078125.5625-.011719.980469l-.316406 1.480469c-.144532.746093-.242188 1.242187-.363282 1.539062-.089843.347657-.1875.570313-.320312.644531m3.738281 1.835938c.25-.429688.460938-.746094.636719-.847656.21875-.164063.449219-.109375.710938 0 .277343.132812.417968.351562.484374.59375 0 .132812-.03125.253906-.066406.417968-.074218.164063-.304687.636719-.703125 1.339844-.425781.710938-.746093 1.207032-.976562 1.480469-.164063.277344-.351563.484375-.527344.59375-.207031.109375-.449219.066406-.78125-.109375-.382813-.175781-.480469-.484375-.363281-.988281.046875-.175781.167968-.382813.386718-.671875.207032-.25.484376-.589844.714844-1.007813.261719-.449219.449219-.671875.484375-.800781m1.273438 8.265625c-.132813-.097656-.253907-.1875-.339844-.394531-.167969-.175782-.1875-.363282-.167969-.625.078125-.21875.210938-.460938.386719-.484375.109375-.132813.308594-.132813.605469-.042969l1.230468.042969.953126.011719c.507812 0 1.023437 0 1.40625-.011719.386718-.042969.703124-.03125.847656.011719.175781.097656.339844.164062.460937.339843.109375.21875.140625.417969.140625.605469-.007812.25-.140625.425781-.449218.589844-.1875.144531-.558594.175781-1.085938.175781-.496094-.03125-1.199219 0-2.144531 0-.867188.035156-1.492188-.054687-1.84375-.21875zm0 0" fill="#fff"/><path d="m13.503906 122.765625h11.777344v2.558594l-7.945312 5.5h7.945312v2.457031h-11.777344v-2.710938l7.742188-5.3125h-7.742188zm0 0" fill="#fff"/><path d="m18.148438 143.25 4.394531 1.800781-4.394531 1.867188zm7.132812 3.230469v-2.878907l-11.769531-5.105468v2.855468l2.648437 1.121094v5.3125l-2.648437 1.152344v2.878906zm0 0" fill="#fff"/><path d="m13.503906 156.941406h11.777344v2.601563l-7.945312 5.425781h7.945312v2.511719h-11.777344v-2.699219l7.742188-5.378906h-7.742188zm0 0" fill="#fff"/><path d="m26.324219 177.976562.503906 2.648438-7.339844 1.414062c-.953125.210938-1.691406.242188-2.25.164063-.714843-.128906-1.351562-.492187-1.867187-1.085937-.539063-.570313-.957032-1.40625-1.164063-2.492188-.242187-1.296875-.132812-2.359375.382813-3.140625.496094-.8125 1.375-1.371094 2.613281-1.613281l.738281 2.425781c-.636718.1875-1.097656.332031-1.375.59375-.351562.394531-.460937.867187-.359375 1.417969.128907.558594.359375.941406.679688 1.128906.351562.21875.988281.1875 1.945312 0zm0 0" fill="#fff"/><path d="m21.214844 199.660156 10.347656-5.621094 1.230469 2.304688-4.371094 8.542969 6.976563-3.710938 1.1875 2.121094-10.382813 5.621094-1.261719-2.351563 4.28125-8.421875-6.832031 3.710938zm0 0" fill="#fff"/><path d="m38.113281 217.546875 1.515625-1.273437 3.777344 4.359374-3.601562 3.09375c-.746094-.132812-1.558594-.449218-2.550782-1.019531-.976562-.5625-1.800781-1.242187-2.503906-2.074219-.890625-1.054687-1.503906-2.121093-1.769531-3.273437-.304688-1.085937-.242188-2.152344.144531-3.195313.394531-1.042968 1.019531-1.898437 1.867188-2.644531.957031-.78125 1.933593-1.273437 3.066406-1.484375 1.066406-.183594 2.207031 0 3.316406.527344.847656.332031 1.691406 1.03125 2.503906 2 1.066406 1.207031 1.660156 2.425781 1.859375 3.492188.109375 1.0625-.132812 2.074218-.78125 2.984374l-2.085937-1.691406c.316406-.527344.449218-1.121094.328125-1.734375-.066407-.59375-.363281-1.183593-.847657-1.757812-.765624-.867188-1.644531-1.382813-2.582031-1.449219-.953125-.074219-1.898437.308594-2.886719 1.15625-1.054687.910156-1.617187 1.875-1.703124 2.851562-.109376 1.023438.242187 1.902344 1 2.789063.363281.394531.835937.769531 1.339843 1.066406.515625.285157 1.011719.527344 1.484375.601563l1.128906-.988282zm0 0" fill="#fff"/><path d="m52.824219 235.914062 5.359375-10.441406 2.320312 1.164063 1.207032 9.550781 3.660156-7.058594 2.183594 1.164063-5.414063 10.40625-2.339844-1.183594-1.253906-9.367187-3.539063 6.894531zm0 0" fill="#fff"/><path d="m75.191406 234.652344c.78125-.605469 1.691406-.859375 2.8125-.746094 1.089844.074219 1.945313.492188 2.570313 1.226562.59375.703126.867187 1.734376.714843 3.066407-.097656 1.371093-.515624 2.378906-1.261718 3.027343-.769532.59375-1.660156.867188-2.738282.769532-1.097656-.078125-1.910156-.503906-2.582031-1.242188-.601562-.746094-.878906-1.800781-.765625-3.136718.128906-1.339844.546875-2.339844 1.25-2.964844m-2.625 7.34375c1.085938 1.195312 2.582032 1.855468 4.570313 2.019531 1.933593.164063 3.515625-.242187 4.777343-1.195313 1.265626-.976562 1.945313-2.472656 2.121094-4.328124.164063-1.898438-.351562-3.402344-1.359375-4.585938-1.101562-1.21875-2.582031-1.867188-4.550781-2.042969-1.066406-.078125-2.054688 0-2.878906.21875-.601563.1875-1.242188.484375-1.800782.910157-.558593.429687-1.023437.945312-1.382812 1.484374-.464844.800782-.75 1.800782-.847656 2.984376-.164063 1.898437.320312 3.382812 1.351562 4.535156zm0 0" fill="#fff"/><path d="m92.804688 235.132812 2.085937.144532c1.066406.03125 1.691406.078125 1.933594.078125.429687.109375.769531.273437.988281.558593.210938.242188.320312.59375.253906.953126 0 .363281-.078125.695312-.308594.878906-.175781.253906-.449218.363281-.78125.484375-.285156.109375-1.097656.109375-2.382812 0l-1.945312-.109375zm-.519532 9.785157.242188-4.921875.539062.046875c.636719.066406 1.097656.097656 1.363282.207031.285156.097656.539062.273438.769531.515625.253906.277344.679687.878906 1.339843 1.800781l1.769532 2.667969 3.140625.1875-1.484375-2.359375c-.589844-.976562-1.03125-1.617188-1.382813-2-.363281-.394531-.835937-.746094-1.371093-1.085938 1.183593-.097656 2.042968-.417968 2.636718-.945312.601563-.546875.941406-1.238281 1.007813-2.171875.035156-.691406-.164063-1.296875-.492188-1.890625-.363281-.558594-.824219-.941406-1.441406-1.195312-.636719-.242188-1.65625-.394532-3.0625-.515626l-5.605469-.285156-.625 11.746094zm0 0" fill="#fff"/><path d="m106.910156 245.640625.265625-11.789063 3.996094.085938 2.210937 8.101562 2.558594-7.980468 4 .109375-.320312 11.769531-2.425782-.054688.207032-9.289062-2.789063 9.222656-2.636719-.085937-2.339843-9.289063-.265625 9.265625zm0 0" fill="#fff"/><path d="m129.695312 241.292969 1.757813-4.390625 1.933594 4.324218zm3.1875-7.15625-2.910156.03125-4.96875 11.835937 2.847656-.011718 1.085938-2.699219 5.328125-.078125 1.1875 2.679687 2.890625-.035156zm0 0" fill="#fff"/><path d="m143.804688 245.640625-.660157-11.660156 2.667969-.128907.527344 9.636719 6.691406-.394531.121094 1.988281zm0 0" fill="#fff"/><path d="m166.257812 232.039062 2.636719-.351562.847657 6.34375c.144531 1.011719.253906 1.691406.382812 1.945312.15625.460938.472656.777344.980469 1.054688.425781.21875 1.019531.316406 1.769531.183594.710938-.109375 1.273438-.328125 1.625-.625.351562-.304688.503906-.710938.539062-1.117188.03125-.398437-.035156-1.066406-.144531-2.011718l-.890625-6.5 2.648438-.328126.824218 6.117188c.210938 1.4375.253907 2.414062.175782 2.984375-.078125.605469-.242188 1.132813-.570313 1.613281-.339843.429688-.800781.824219-1.417969 1.132813-.59375.339843-1.417968.570312-2.4375.703125-1.296874.175781-2.222656.175781-2.890624 0-.703126-.167969-1.265626-.453125-1.679688-.78125-.429688-.394532-.75-.769532-.925781-1.207032-.21875-.671874-.460938-1.625-.636719-2.933593zm0 0" fill="#fff"/><path d="m187.289062 240.699219-5.109374-10.625 2.339843-1.097657 8.394531 4.730469-3.429687-7.125 2.1875-1.085937 5.140625 10.625-2.425781 1.144531-8.207031-4.613281 3.359374 6.996094zm0 0" fill="#fff"/><path d="m203.503906 231.269531-7.414062-9.113281 2.0625-1.65625 7.429687 9.144531zm0 0" fill="#fff"/><path d="m213.492188 221.792969-12.066407-3.882813 1.816407-2.242187 8.875 2.941406-4.703126-7.992187 1.78125-2.226563 6.152344 11.121094zm0 0" fill="#fff"/><path d="m221.894531 209.804688-10.65625-5.003907 4.1875-8.863281 1.789063.871094-3.03125 6.410156 2.351562 1.097656 2.832032-5.984375 1.804687.878907-2.824219 5.984374 2.921875 1.371094 3.132813-6.664062 1.789062.855468zm0 0" fill="#fff"/><path d="m219.742188 188.671875.460937-2.03125c.253906-1.03125.394531-1.691406.484375-1.867187.152344-.40625.382812-.734376.667969-.878907.308593-.1875.640625-.207031 1.046875-.132812.328125.113281.625.242187.777344.464843.1875.21875.332031.492188.332031.867188.03125.339844-.109375 1.097656-.386719 2.359375l-.460938 1.921875zm9.523437 2.261719-4.789063-1.121094.132813-.558594c.144531-.59375.285156-1.023437.449219-1.273437.15625-.273438.363281-.449219.660156-.671875.308594-.21875.945312-.535156 1.976562-1.019532l2.933594-1.273437.738282-3.0625-2.605469 1.085937c-1 .382813-1.734375.734376-2.1875 1.011719-.425781.285157-.867188.667969-1.273438 1.128907.132813-1.128907-.03125-2.0625-.484375-2.753907-.414062-.703125-1.085937-1.121093-1.910156-1.339843-.691406-.175782-1.363281-.132813-1.964844.109374-.640625.25-1.121094.667969-1.472656 1.273438-.351562.570312-.660156 1.535156-1.011719 2.910156l-1.242187 5.445313 11.449218 2.699219zm0 0" fill="#fff"/><path d="m228.488281 175.660156-.210937-2.558594c.769531-.175781 1.339844-.527343 1.691406-.996093.386719-.460938.527344-1.089844.527344-1.921875 0-.867188-.140625-1.515625-.46875-1.964844-.308594-.417969-.703125-.636719-1.121094-.636719-.277344 0-.527344.109375-.738281.296875-.152344.171875-.351563.492188-.484375.953125-.109375.320313-.285156 1.011719-.503906 2.117188-.285157 1.441406-.714844 2.429687-1.164063 2.988281-.660156.800781-1.4375 1.230469-2.382813 1.230469-.628906 0-1.15625-.199219-1.695312-.605469-.515625-.328125-.898438-.945312-1.195312-1.644531-.285157-.671875-.417969-1.5625-.417969-2.558594 0-1.679687.308593-2.898437.976562-3.777344.660157-.8125 1.519531-1.230469 2.582031-1.296875l.109376 2.667969c-.636719.132813-1.042969.351563-1.328126.738281-.253906.359375-.382812.941406-.382812 1.679688 0 .765625.128906 1.382812.394531 1.820312.21875.285156.484375.382813.734375.382813.308594 0 .5625-.097657.75-.382813.242188-.308594.527344-1.128906.800782-2.402344.285156-1.308593.539062-2.261718.8125-2.878906.339843-.601562.703124-1.128906 1.230468-1.46875.496094-.34375 1.132813-.539062 1.835938-.539062s1.339844.273437 1.945312.65625c.558594.398437 1.007813 1.011718 1.292969 1.757812.289063.800782.429687 1.757813.429687 2.886719 0 1.703125-.328124 3-1.019531 3.878906-.683593.910157-1.671875 1.425781-3 1.578125zm0 0" fill="#fff"/><path d="m220.53125 156.339844h11.800781v2.675781h-11.800781zm0 0" fill="#fff"/><path d="m232.332031 147.082031h-9.800781v3.929688h-2v-10.472657h2v3.875h9.800781zm0 0" fill="#fff"/><path d="m232.332031 131.65625h-4.964843l-6.835938 4.832031v-3.140625l4.683594-3.117187-4.683594-3.0625v-3.03125l6.835938 4.851562h4.964843zm0 0" fill="#fff"/><path d="m17.535156 190.207031 11.097656-4.015625.886719 2.558594-11.09375 3.984375zm0 0" fill="#fff"/><g fill="#00633d"><path d="m131.597656 86.832031 2.394532-.484375s0-.945312-1.273438-3.0625c-1.265625-2.109375-4.550781-5.820312-4.550781-5.820312h-3.867188c-2.328125-2.46875-4.921875-4.675782-7.886719-6.511719l-.1875-.140625c-.042968-.066406-.042968-.078125-.042968-.078125-.035156 0-.035156 0-.078125 0 0-.03125-.097657-.03125-.140625-.109375-.066406-.042969-.167969-.078125-.222656-.175781l-.273438-.078125v.011718c-.066406-.066406-.132812-.109374-.175781-.109374.484375-2.109376.21875-5.070313-2.175781-9.113282-2.648438-4.707031-7.460938-7.871094-10.46875-7.816406.65625 2.613281 2.25 6.589844 5.183593 10.355469 1.96875 2.554687 3.605469 4.070312 5.097657 5.34375-3.074219-1.382813-6.449219-2.214844-9.917969-2.558594.527343-1.625-.320313-5.125-3.914063-7.671875-3.722656-2.710938-8.371094-3.019531-10.984375-1.835938-.066406 1.945313 2.601563 4.304688 6.117188 6.546876 2.332031 1.414062 4.515625 2.425781 6.308593 2.886718-3.496093-.042968-7.042968.449219-10.472656 1.515625l-.273437.0625v.078125s-.03125.011719-.066407.011719c-.140624-1.824219-2.25-4.609375-6.625-5.621094-4.425781-1.011719-8.734374.484375-10.316406 2.0625.671875 1.789063 3.691406 3.480469 7.757813 4.183594 2.789062.484375 5.25.515625 7.074219.1875-3.527344 1.472656-6.703126 3.425781-9.613282 5.621094-.8125-1.648438-3.625-3.382813-7.699218-3.457031-4.265626-.046876-7.902344 1.910156-9.054688 3.65625.957031 1.589843 4.132812 2.851562 8.207031 2.808593 2.40625-.078125 4.570313-.460937 6.164063-1.152343-2.394532 1.976562-4.570313 4.050781-6.59375 6.09375-.128906.132812-.25.242187-.382813.417968-1.164062-1.40625-4.273437-2.527344-8.273437-1.726562-4.152344.859375-7.296875 3.527344-8.074219 5.503906 1.273437 1.304688 4.679687 1.898438 8.667969.976562 1.933594-.484374 3.65625-1.132812 4.976562-1.902343-.921875.988281-1.867187 2.078125-2.789062 3.195312-2.15625.628907-4.867188 3.140625-7.351563 6.609375-2.964843 4.164063-4.011719 9.210938-3.835937 11.34375 2.957031-.285156 6.558594-3.207031 9.394531-7.179687 2.78125-3.867188 3.757813-7.882813 3.199219-9.96875.878906-1.121094 1.734375-2.144531 2.644531-3.074219-.601563 1.238281-1.03125 2.808594-1.097656 4.511719-.132813 3.941406 1.503906 6.894531 3.023437 7.914062 1.40625-.910156 2.777344-3.6875 2.964844-7.464843.253906-3.566407-.605469-6.871094-1.910156-8.125.515625-.484376 1.0625-1.085938 1.722656-1.589844l.164062-.175782-.03125-.078124c1.164063-1.054688 2.492188-2.285157 3.976563-3.523438-.835937 1.371094-1.40625 3.238281-1.515625 5.3125-.132812 3.972656 1.484375 6.929688 2.957031 7.949219 1.4375-.976563 2.8125-3.734375 3.050781-7.488281.222657-3.457032-.589843-6.609376-1.789062-7.980469 2.140625-1.648438 4.570312-3.230469 7.175781-4.535157-.925781 1.097657-1.792969 2.613282-2.210937 4.371094-.8125 3.765625.363281 6.9375 1.648437 8.167969 1.484375-.5625 2.933594-2.84375 3.847657-6.269531.765624-3.097656 1.019531-6.203125.339843-7.894532.527344-.175781 1.03125-.351562 1.59375-.527343l.140625-.03125c2.792969-.8125 5.703125-1.199219 8.535156-1.242188-1.699218.484375-3.65625 1.691407-4.976562 3.699219-2.25 3.164062-1.648438 6.578125-1.007812 8.160156.878906.074219 3.109374-1.515625 5.21875-4.261718 2.109374-2.789063 3.625-5.699219 3.414062-7.53125 3.109375.21875 6.121094.890624 8.921875 2.03125-1.757813-.035157-3.777344.417968-5.636719 1.898437-3.546875 2.878906-4.601562 7.070313-4.601562 9.464844 1.242187.800781 3.582031-.363281 6.976562-2.472657 3.230469-2.085937 6.226563-4.707031 6.976563-7.003906.066406.046875.207031.109375.25.144532 6.835937 4.183593 11.933593 10.902343 16 17.148437.414062-.316406.867187-.605469 1.261719-.878906-.320313-.515625-.636719-1.03125-.988282-1.523438zm0 0"/><path d="m114.414062 86.832031-2.382812-.484375s0-.945312 1.261719-3.0625c1.273437-2.109375 4.570312-5.820312 4.570312-5.820312h3.878907c2.296874-2.46875 4.898437-4.675782 7.84375-6.511719l.210937-.140625c.042969-.066406.0625-.078125.0625-.078125h.023437c.097657-.03125.152344-.03125.210938-.109375.074219-.042969.164062-.078125.21875-.175781l.242188-.078125.007812.011718c.066406-.066406.113281-.109374.1875-.109374-.480469-2.109376-.242188-5.070313 2.15625-9.113282 2.667969-4.707031 7.5-7.871094 10.492188-7.816406-.640626 2.613281-2.222657 6.589844-5.210938 10.355469-1.933594 2.554687-3.636719 4.070312-5.074219 5.34375 3.066407-1.382813 6.4375-2.214844 9.898438-2.558594-.527344-1.625.328125-5.125 3.945312-7.671875 3.691407-2.710938 8.304688-3.019531 10.953125-1.835938.097656 1.945313-2.605468 4.304688-6.140625 6.546876-2.320312 1.414062-4.449219 2.425781-6.230469 2.886718 3.449219-.042968 7.007813.449219 10.414063 1.515625l.308594.0625-.03125.078125c.03125 0 .042969.011719.042969.011719.1875-1.824219 2.261718-4.609375 6.644531-5.621094 4.441406-1.011719 8.78125.484375 10.351562 2.0625-.671875 1.789063-3.691406 3.480469-7.746093 4.183594-2.789063.484375-5.285157.515625-7.054688.1875 3.460938 1.472656 6.679688 3.425781 9.582031 5.621094.8125-1.648438 3.601563-3.382813 7.667969-3.457031 4.296875-.046876 7.933594 1.910156 9.085938 3.65625-.945313 1.589843-4.121094 2.851562-8.21875 2.808593-2.40625-.078125-4.570313-.460937-6.164063-1.152343 2.417969 1.976562 4.582031 4.050781 6.617187 6.09375.128907.132812.25.242187.394532.417968 1.140625-1.40625 4.261718-2.527344 8.238281-1.726562 4.164063.859375 7.328125 3.527344 8.074219 5.503906-1.292969 1.304688-4.65625 1.898438-8.632813.976562-1.933593-.484374-3.625-1.132812-5.011719-1.902343.925782.988281 1.859376 2.078125 2.769532 3.195312 2.199218.628907 4.855468 3.140625 7.371094 6.609375 2.988281 4.164063 4.078124 9.210938 3.800781 11.34375-2.875-.285156-6.523438-3.207031-9.359375-7.179687-2.757813-3.867188-3.746094-7.882813-3.164063-9.96875-.910156-1.121094-1.789062-2.144531-2.667969-3.074219.59375 1.238281 1.007813 2.808594 1.085938 4.511719.152344 3.941406-1.503906 6.894531-3 7.914062-1.371094-.910156-2.757812-3.6875-2.964844-7.464843-.285156-3.566407.59375-6.871094 1.898438-8.125-.460938-.484376-1.085938-1.085938-1.691406-1.589844l-.164063-.175782v-.078124c-1.164063-1.054688-2.503906-2.285157-3.953125-3.523438.832031 1.371094 1.4375 3.238281 1.503906 5.3125.164063 3.972656-1.484375 6.929688-2.933594 7.949219-1.449218-.976563-2.8125-3.734375-3.019531-7.488281-.253906-3.457032.527344-6.609376 1.734375-7.980469-2.152344-1.648438-4.539062-3.230469-7.152344-4.535157.957032 1.097657 1.800782 2.613282 2.152344 4.371094.878906 3.765625-.351562 6.9375-1.625 8.167969-1.441406-.5625-2.933594-2.84375-3.800781-6.269531-.804687-3.097656-1.066406-6.203125-.394531-7.894532-.507813-.175781-1.023438-.351562-1.527344-.527343l-.167969-.03125c-2.8125-.8125-5.679687-1.199219-8.535156-1.242188 1.660156.484375 3.636719 1.691407 4.976563 3.699219 2.21875 3.164062 1.660156 6.578125 1.011718 8.160156-.867187.074219-3.097656-1.515625-5.21875-4.261718-2.054687-2.789063-3.660156-5.699219-3.417968-7.53125-3.128907.21875-6.140626.890624-8.921876 2.03125 1.769532-.035157 3.746094.417968 5.59375 1.898437 3.570313 2.878906 4.613282 7.070313 4.59375 9.464844-1.230468.800781-3.515624-.363281-6.933593-2.472657-3.207031-2.085937-6.261719-4.707031-7.007813-7.003906-.066406.046875-.144531.109375-.253906.144532-6.835938 4.183593-11.910156 10.902343-15.953125 17.148437-.449219-.316406-.847656-.605469-1.296875-.878906.273438-.515625.625-1.03125.945312-1.523438zm0 0"/><path d="m132.410156 53.695312c0-1.964843-1.625-3.601562-3.636718-3.601562-.878907 0-1.726563.308594-2.328126.855469.152344-.425781.242188-.886719.242188-1.382813 0-2.007812-1.628906-3.621094-3.59375-3.621094-2.023438 0-3.660156 1.613282-3.660156 3.621094 0 .570313.109375 1.066406.320312 1.539063-.660156-.660157-1.550781-1.011719-2.539062-1.011719-2 0-3.601563 1.648438-3.601563 3.601562 0 1.976563 1.613281 3.632813 3.601563 3.632813.1875 0 .351562 0 .507812-.007813-1.089844.558594-1.835937 1.765626-1.835937 3.136719 0 2 1.582031 3.625 3.59375 3.625 1.757812 0 3.207031-1.195312 3.570312-2.84375.359375 1.648438 1.800781 2.84375 3.546875 2.84375 2 0 3.636719-1.625 3.636719-3.625 0-1.359375-.746094-2.523437-1.855469-3.136719.109375.007813.273438.007813.382813.007813 2.023437 0 3.648437-1.65625 3.648437-3.632813m-9.40625 3.492188c-.855468 0-1.625-.679688-1.625-1.625 0-.910156.769532-1.625 1.625-1.625.878906 0 1.648438.714844 1.648438 1.625 0 .945312-.769532 1.625-1.648438 1.625zm0 0"/><path d="m95.023438 135.355469v2.636719h56.007812v-2.636719l-27.683594.078125h-.695312zm0 0"/><path d="m53.175781 154.140625h11.304688v5.25h-11.304688zm0 0"/><path d="m81.035156 147.578125h11.800782v21.1875h-11.800782zm0 0"/><path d="m53.175781 142.328125h39.660157v3.085937h-39.660157zm0 0"/><path d="m66.667969 147.578125h12.195312v21.1875h-12.195312zm0 0"/><path d="m53.175781 147.578125h11.304688v4.367187h-11.304688zm0 0"/><path d="m98.824219 133.152344c.363281 0 .769531-.035156 1.261719-.078125v.097656l22.929687.042969 22.917969-.042969.042968-.097656c.484376.042969.859376.078125 1.265626.078125 7.292968 0 13.765624-4.007813 17.074218-10.179688h-14.128906v-8.542968h-54.351562v8.542968h-14.117188c3.285156 6.179688 9.789062 10.179688 17.105469 10.179688zm0 0"/><path d="m181.53125 147.578125h11.28125v4.367187h-11.28125zm0 0"/><path d="m153.207031 142.328125h39.617188v3.085937h-39.617188zm0 0"/><path d="m167.160156 147.578125h12.21875v21.1875h-12.21875zm0 0"/><path d="m181.53125 154.140625h11.28125v5.25h-11.28125zm0 0"/><path d="m130.113281 155.109375h4.199219v13.65625h-4.199219zm0 0"/><path d="m51.460938 140.109375h41.375v-5.621094c-5.953126-1.722656-10.910157-5.882812-13.566407-11.515625h-26.09375v5.3125c-2.671875 2.109375-6.019531 3.304688-9.691406 3.304688-.8125 0-1.648437-.042969-2.40625-.175782 2.460937 3.898438 6.097656 6.972657 10.394531 8.71875v-.023437zm0 0"/><path d="m153.207031 147.578125h11.757813v21.1875h-11.757813zm0 0"/><path d="m53.175781 161.519531h11.304688v7.246094h-11.304688zm0 0"/><path d="m181.53125 161.519531h11.28125v7.246094h-11.28125zm0 0"/><path d="m202.558594 131.589844c-3.65625 0-7.019532-1.195313-9.746094-3.304688v-5.3125h-26.058594c-2.667968 5.632813-7.582031 9.792969-13.558594 11.515625v5.621094h41.375v.023437c4.296876-1.734374 7.957032-4.820312 10.394532-8.71875-.789063.132813-1.558594.175782-2.40625.175782zm0 0"/><path d="m123.347656 145.382812h10.964844v-5.195312h-22.613281v5.195312zm0 0"/><path d="m106.710938 151.265625c1.054687 1.019531 2.496093 1.65625 3.957031 1.65625l.042969-.03125h.144531v.03125h24.324219l.03125-.03125h.109374l.035157.03125c1.515625 0 2.953125-.636719 3.976562-1.65625-1.867187-.636719-3.417969-1.941406-4.339843-3.6875h-23.949219c-.914063 1.746094-2.496094 3.050781-4.332031 3.6875zm0 0"/><path d="m95.023438 168.765625h14.5v-13.734375c-2.359376-.394531-4.480469-1.820312-5.679688-3.941406l-.777344-1.480469 1.65625-.144531c2.078125-.164063 3.835938-1.515625 4.617188-3.414063l.183594-.417969v-5.445312h-14.5zm0 0"/><path d="m127.917969 155.109375h-9.824219v13.65625h9.824219zm0 0"/><path d="m151.03125 140.1875h-14.511719v5.445312l.1875.417969c.769531 1.898438 2.535157 3.25 4.601563 3.414063l1.648437.144531-.800781 1.480469c-1.1875 2.121094-3.273438 3.546875-5.636719 3.941406v13.734375h14.511719zm0 0"/><path d="m111.699219 155.109375h4.199219v13.65625h-4.199219zm0 0"/><path d="m106.867188 94.953125v11.945313h-3.757813v-7.847657c-.625.449219-1.1875.734375-1.757813 1.007813-.539062.242187-1.242187.496094-2.121093.714844v-2.667969c1.273437-.351563 2.253906-.800781 2.933593-1.296875.703126-.492188 1.242188-1.128906 1.625-1.863282h3.078126zm0 0"/><path d="m117.226562 100.476562c-.285156.339844-.714843.515626-1.242187.515626-.492187 0-.921875-.175782-1.242187-.515626-.304688-.351562-.515626-.878906-.515626-1.503906 0-.667968.1875-1.128906.515626-1.449218.320312-.382813.714843-.503907 1.1875-.503907.503906 0 .957031.1875 1.308593.535157.363281.332031.527344.871093.527344 1.484374 0 .613282-.164063 1.121094-.539063 1.4375m-5.261718 5.359376c.394531.417968.890625.734374 1.539062.941406.558594.222656 1.414063.332031 2.4375.332031 1.800782 0 3.207032-.496094 4.195313-1.503906 1.023437-.976563 1.515625-2.539063 1.515625-4.625 0-1.46875-.238282-2.644531-.703125-3.457031-.492188-.890626-1.128907-1.546876-1.910157-1.976563-.835937-.417969-1.902343-.59375-3.230468-.59375-1.066406 0-2.011719.175781-2.734375.496094-.714844.316406-1.308594.832031-1.691407 1.449219-.453124.625-.628906 1.351562-.628906 2.140624 0 1.128907.398438 2.085938 1.199219 2.808594.847656.769532 1.835937 1.1875 3 1.1875.601563 0 1.128906-.132812 1.59375-.285156.460937-.207031.910156-.527344 1.359375-.910156-.128906 1.238281-.285156 2.050781-.527344 2.5-.351562.496094-.8125.75-1.371094.75-.320312 0-.628906-.132813-.867187-.253906-.222656-.1875-.351563-.496094-.484375-.976563l-3.660156.394531c.230468.648438.550781 1.152344.96875 1.582032zm0 0"/><path d="m127.289062 97.984375c.242188-.570313.691407-.855469 1.277344-.855469.601563 0 1.085938.285156 1.359375.8125.285157.539063.453125 1.582032.453125 3.140625 0 1.0625-.078125 1.855469-.175781 2.347657-.167969.527343-.34375.847656-.628906 1.121093-.285157.207031-.601563.351563-.988281.351563-.558594 0-.957032-.273438-1.273438-.847656-.285156-.527344-.449219-1.558594-.449219-3.0625 0-1.46875.152344-2.480469.425781-3.007813m-3.832031 5.523437c.1875.703126.460938 1.328126.769531 1.734376.414063.625.988282 1.074218 1.679688 1.371093.703125.308594 1.59375.496094 2.714844.496094 1.976562 0 3.394531-.496094 4.195312-1.503906.835938-.976563 1.230469-2.570313 1.230469-4.65625 0-.988281-.132813-1.898438-.363281-2.777344-.164063-.417969-.316406-.847656-.527344-1.164063-.175781-.351562-.484375-.691406-.84375-1.03125-.363281-.285156-.8125-.527343-1.386719-.738281-.570312-.183593-1.296875-.285156-2.207031-.285156-1.855469 0-3.230469.429687-4.132812 1.339844-.910157.914062-1.371094 2.460937-1.371094 4.6875-.011719.914062.097656 1.757812.242187 2.527343zm0 0"/><path d="m146.375 106.910156h-11.085938c.097657-.945312.503907-1.875 1.152344-2.746094.636719-.84375 1.867188-1.855468 3.613282-3.027343 1.101562-.714844 1.792968-1.207031 2.089843-1.613281.285157-.351563.394531-.714844.394531-1.042969 0-.351563-.109374-.714844-.394531-.925781-.308593-.273438-.660156-.347657-1.132812-.347657-.460938 0-.867188.074219-1.132813.359375-.316406.277344-.492187.738282-.625 1.40625l-3.691406-.253906c.164062-.953125.429688-1.65625.8125-2.183594.363281-.484375.914062-.921875 1.59375-1.164062.714844-.273438 1.671875-.417969 2.921875-.417969 1.296875 0 2.320313.132813 3.035156.398437.734375.207032 1.292969.625 1.691407 1.183594.417968.539063.601562 1.1875.601562 1.800782 0 .734374-.207031 1.40625-.703125 2.074218-.460937.636719-1.304687 1.363282-2.570313 2.140625-.769531.484375-1.242187.78125-1.472656.976563-.285156.1875-.570312.429687-.910156.714844h5.800781v2.667968zm0 0"/><path d="m91.519531 185.332031h5.667969l7.394531 10.847657v-10.847657h5.734375v19.644531h-5.734375l-7.351562-10.804687v10.804687h-5.710938zm0 0"/><path d="m114.402344 185.332031h5.667968l7.394532 10.847657v-10.847657h5.714844v19.644531h-5.714844l-7.347656-10.804687v10.804687h-5.714844zm0 0"/><path d="m150.042969 185.332031h6.054687v11.695313c0 1.164062-.175781 2.25-.539062 3.269531-.363282 1.054687-.921875 1.945313-1.703125 2.714844-.769531.765625-1.582031 1.304687-2.429688 1.621093-1.183593.429688-2.578125.660157-4.261719.660157-.945312 0-1.976562-.042969-3.109374-.1875-1.128907-.140625-2.074219-.414063-2.84375-.800781-.746094-.394532-1.449219-.953126-2.097657-1.691407-.640625-.734375-1.054687-1.503906-1.296875-2.261719-.363281-1.238281-.5625-2.359374-.5625-3.3125v-11.695312h6.054688v11.96875c0 1.0625.285156 1.898438.890625 2.503906.59375.589844 1.417969.886719 2.492187.886719 1.035156 0 1.867188-.285156 2.460938-.878906.605468-.589844.890625-1.4375.890625-2.523438zm0 0"/></g></svg>