<?xml version="1.0" encoding="UTF-8" standalone="no"?>
<!-- Created with Inkscape (http://www.inkscape.org/) -->

<svg
   width="76.563759mm"
   height="91.453972mm"
   viewBox="0 0 76.563758 91.453972"
   version="1.1"
   id="svg1"
   xmlns="http://www.w3.org/2000/svg"
   xmlns:svg="http://www.w3.org/2000/svg">
  <defs
     id="defs1" />
  <g
     id="layer1"
     transform="translate(4.105215,-103.08764)">
    <path
       style="fill:#00adef;fill-opacity:1;fill-rule:evenodd;stroke:none;stroke-width:0.621948"
       d="m 40.064599,179.0729 -0.05395,-0.12147 -0.05677,-0.12747 0.127465,-0.0568 1.567307,-0.69776 0.128346,-0.0573 0.05712,0.1287 0.05395,0.12147 0.05642,0.12764 -0.128346,0.0571 -0.167485,0.0742 v -3.8e-4 c -0.06453,0.0289 -0.115301,0.0673 -0.151266,0.11441 -0.03561,0.0465 -0.05906,0.10543 -0.06981,0.1756 l -3.87e-4,0.004 c -0.0035,0.0231 0.0035,0.067 0.02027,0.12994 0.02186,0.0772 0.05853,0.17418 0.110188,0.28989 l 0.798445,1.7942 4.93e-4,5e-4 c 0.101197,0.22813 0.180567,0.43636 0.236295,0.62306 0.0573,0.19076 0.09238,0.36284 0.103136,0.51534 0.01058,0.15691 -0.0053,0.31627 -0.04866,0.4758 h -1.94e-4 c -0.04302,0.15655 -0.113185,0.31402 -0.209462,0.46913 v 5.7e-4 c -0.09908,0.15867 -0.233739,0.3048 -0.403533,0.43722 -0.164135,0.12852 -0.363143,0.24467 -0.595013,0.34779 -0.251756,0.11195 -0.484119,0.18938 -0.695521,0.23118 -0.218929,0.0425 -0.418324,0.0487 -0.596952,0.0176 -0.1763,-0.0302 -0.340946,-0.0855 -0.492582,-0.16572 -0.151618,-0.0797 -0.290877,-0.18459 -0.416068,-0.31258 l -0.0018,-0.002 c -0.08621,-0.091 -0.182788,-0.22988 -0.287351,-0.41553 h 1.41e-4 c -0.09873,-0.17471 -0.208739,-0.39736 -0.328271,-0.66815 h -3.17e-4 l -0.77133,-1.72914 -4.94e-4,-6.3e-4 c -0.05677,-0.12817 -0.111774,-0.22863 -0.163077,-0.30021 -0.04319,-0.0605 -0.08268,-0.0989 -0.115477,-0.11336 l -0.0013,-6.3e-4 c -0.0335,-0.0159 -0.07369,-0.0208 -0.119707,-0.0176 -0.05448,0.004 -0.116711,0.0226 -0.185098,0.0529 l -5.46e-4,5.6e-4 -0.167133,0.0742 -0.127464,0.0562 -0.05677,-0.12764 -0.05412,-0.12164 -0.0573,-0.12817 0.127994,-0.0568 1.913225,-0.85157 0.128699,-0.0571 0.05677,0.12853 0.0536,0.12164 0.05659,0.12764 -0.128347,0.0573 -0.1696,0.0749 v -3.7e-4 c -0.07299,0.0326 -0.129757,0.0709 -0.169248,0.11389 -0.0342,0.0377 -0.05589,0.0809 -0.06417,0.1294 l -5.64e-4,0.004 c -0.0071,0.0303 0,0.0799 0.01763,0.14633 0.02063,0.0793 0.05783,0.17843 0.109835,0.29516 l 0.859163,1.92923 4.93e-4,0.001 c 0.03561,0.0818 0.07951,0.16889 0.129228,0.26041 0.04831,0.089 0.105604,0.18633 0.169777,0.28982 0.06188,0.0975 0.12341,0.18 0.184216,0.24698 0.05888,0.0645 0.117416,0.11635 0.174713,0.15285 v -3.7e-4 c 0.05677,0.036 0.121295,0.0649 0.191427,0.0859 0.07281,0.0215 0.151971,0.0351 0.235713,0.04 0.08339,0.005 0.172069,-0.002 0.26378,-0.0222 0.0952,-0.0203 0.194794,-0.0534 0.298282,-0.0996 0.133812,-0.0596 0.25493,-0.13134 0.361591,-0.21369 0.104723,-0.0809 0.197298,-0.17471 0.27591,-0.27751 0.0774,-0.10279 0.135751,-0.20594 0.172598,-0.308 0.03632,-0.0996 0.05342,-0.20008 0.05166,-0.29934 -0.0018,-0.10261 -0.02733,-0.23746 -0.07722,-0.40253 -0.05219,-0.17295 -0.128875,-0.37303 -0.229684,-0.59905 l -0.797775,-1.79189 c -0.05836,-0.13011 -0.112479,-0.23274 -0.161314,-0.30539 l -3e-4,3.9e-4 c -0.03879,-0.0578 -0.06982,-0.0926 -0.09062,-0.10208 -0.04231,-0.0194 -0.09027,-0.0275 -0.14104,-0.0247 -0.05642,0.004 -0.11865,0.0203 -0.186332,0.0501 l -6.34e-4,6.1e-4 -0.167662,0.0739 -0.127464,0.0559 -0.05659,-0.12764 z M -2.0237995,103.08764 h 72.4011205 2.081222 v 2.08176 55.36806 c 0,9.2915 -5.62434,16.19687 -13.007097,21.48429 -7.053075,5.05238 -15.728992,8.59935 -22.405579,11.32833 l 6.17e-4,0.002 -1.018696,0.41789 c -0.426082,0.17542 -0.807102,0.33267 -1.046288,0.43331 l -0.804986,0.33833 -0.804686,-0.33833 c -0.239574,-0.10067 -0.620206,-0.25791 -1.046305,-0.43331 l -1.018679,-0.41789 6.17e-4,-0.002 C 24.63068,190.6211 15.954569,187.07413 8.9016878,182.02175 1.5191076,176.73433 -4.105215,169.82896 -4.105215,160.53746 v -55.36806 -2.08176 h 2.0809042 z m 13.7358855,60.50177 v -1.04021 -16.41369 -0.52081 h 0.520755 1.350987 v -3.18593 L 0.0580919,140.26298 v 20.27448 c 0,7.6602 4.8724031,13.5215 11.2669631,18.10176 6.721437,4.81493 15.102915,8.24044 21.551088,10.87544 h 0.0088 l 1.018679,0.41744 0.273477,0.11301 0.273776,-0.11301 1.018626,-0.41744 h 0.0088 c 6.448225,-2.635 14.82951,-6.06051 21.551088,-10.87544 6.394789,-4.58026 11.266998,-10.44156 11.266998,-18.10176 v -20.2465 l -13.525718,2.16642 v 3.15732 h 1.36629 0.521001 v 0.52081 16.41369 1.04021 1.04052 h -3.665823 c -1.23886,1.46008 -3.048597,2.86593 -5.184296,4.201 -3.850162,2.40706 -8.785381,4.63039 -13.227947,6.49724 l -0.402458,0.16924 -0.402158,-0.16924 c -4.442566,-1.86685 -9.377785,-4.09018 -13.228,-6.49724 -2.135522,-1.33507 -3.9454,-2.74092 -5.184243,-4.201 h -3.650274 z m 22.734908,-46.41082 c 0.773445,-0.0432 0.945303,-0.3514 1.090397,-0.54974 0.04831,-0.0668 0.09097,-0.12429 0.2678,-0.12429 0.337668,0 0.66555,0.007 0.873038,0.13117 0.207734,0.12464 0.343996,0.3935 0.343996,0.94105 v 2.68457 c 0,0.23884 0.07211,0.4806 0.26371,0.70797 0.158846,0.18882 0.373967,0.41907 0.750368,0.51995 0.188077,0.0497 0.367021,-0.32932 0.170658,-0.42982 -0.222843,-0.11301 -0.383505,-0.22447 -0.486112,-0.34606 -0.120941,-0.14334 -0.165369,-0.29816 -0.165369,-0.45204 v -2.68457 c 0,-0.71698 -0.224659,-1.09618 -0.567034,-1.30192 -0.342886,-0.20666 -0.758583,-0.21637 -1.183325,-0.21637 -0.473542,0 -0.58916,0.15567 -0.723007,0.33816 -0.357501,0.48921 -1.453558,0.48921 -1.811112,0 -0.13293,-0.18249 -0.248777,-0.33816 -0.722636,-0.33816 -0.424724,0 -0.840246,0.0106 -1.182814,0.21637 -0.342692,0.20574 -0.567351,0.58494 -0.567351,1.30192 v 2.68457 c 0,0.15391 -0.04496,0.30869 -0.16537,0.45204 -0.102254,0.12164 -0.262158,0.23305 -0.485689,0.34606 -0.196768,0.10049 -0.01834,0.47951 0.170306,0.42982 0.376577,-0.10085 0.591346,-0.33113 0.750315,-0.51995 0.191674,-0.22737 0.264327,-0.46913 0.264327,-0.70797 v -2.68457 c 0,-0.54755 0.135927,-0.81643 0.343379,-0.94105 0.207717,-0.12482 0.535247,-0.13117 0.872897,-0.13117 0.176635,0 0.21967,0.0575 0.268681,0.12429 0.144566,0.19834 0.315754,0.50651 1.089711,0.54974 v 0.36055 h -1.673969 c -0.228326,0 -0.243999,0.44618 0,0.44618 h 1.673969 v 0.41483 h -1.673969 c -0.23254,0.007 -0.228326,0.44626 0,0.44626 h 1.673969 v 0.0922 c 0,0.10825 0.120941,0.15127 0.269932,0.16431 0.149327,-0.0123 0.270233,-0.0561 0.270233,-0.16431 v -0.0922 h 1.674163 c 0.228625,0 0.233033,-0.4401 0,-0.44626 h -1.674163 v -0.41483 h 1.674163 c 0.244351,0 0.228625,-0.44618 0,-0.44618 h -1.674163 z m 1.856068,3.85919 c 0.185151,0 0.174714,-0.4462 0,-0.4462 h -1.857814 v -0.78117 h 1.675908 c 0.237635,0 0.247843,-0.44623 0,-0.44623 -1.821884,0 -2.066606,0 -3.888296,0 -0.24809,0 -0.238587,0.44623 0,0.44623 h 1.67522 v 0.78117 h -1.856651 c -0.175242,0 -0.185838,0.4462 0,0.4462 1.938807,0 2.311963,0 4.251633,0 z m -2.126301,-4.82888 c -0.133283,-0.001 -0.268011,-0.0541 -0.268011,-0.15496 -0.0012,0 -0.0018,-0.44059 -0.0018,-0.49123 l -0.03191,5.7e-4 c -0.446567,0.0123 -0.992763,0.0256 -1.428047,-0.11812 -0.649313,-0.21409 -1.022364,-0.32441 -0.47356,-1.49062 0.108072,-0.20786 0.575796,-0.0123 0.477403,0.20151 -0.371975,0.81412 -0.179808,0.75243 0.189893,0.87427 0.337279,0.11054 0.823321,0.0984 1.22019,0.0889 l 0.04601,-0.001 v -0.93684 c 0,-0.10437 0.135751,-0.15426 0.269915,-0.1525 0.13487,-0.002 0.270233,0.0481 0.270233,0.1525 v 0.93684 l 0.04601,0.001 c 0.396675,0.009 0.882911,0.0217 1.219644,-0.0889 0.370424,-0.12182 0.561868,-0.0601 0.190368,-0.87427 -0.09855,-0.21371 0.369384,-0.40937 0.477597,-0.20151 0.548681,1.16621 0.175595,1.27653 -0.474229,1.49062 -0.434932,0.14368 -0.981127,0.12975 -1.427995,0.11812 l -0.03138,-5.7e-4 c 0,0.0506 -4.94e-4,0.49123 -0.0018,0.49123 0,0.10084 -0.13487,0.15391 -0.268135,0.15496 z m 34.109255,-1.8088 c -0.0231,0.077 -0.04848,0.15285 -0.07458,0.22671 -0.02468,0.0705 -0.05412,0.14703 -0.08815,0.23079 l -0.0071,0.0176 -0.0088,0.0141 c -0.351719,0.56027 -0.549862,1.11857 -0.593461,1.67485 -0.04408,0.55427 0.06435,1.10942 0.325079,1.66514 l 0.34717,0.74099 -0.651975,-0.49364 c -0.785593,-0.59484 -1.369093,-1.2722 -1.659106,-2.16675 -0.28684,-0.88396 -0.281252,-1.97138 0.106132,-3.39023 0.184604,-0.75895 0.156907,-1.2771 0.01587,-1.60524 -0.0714,-0.16696 -0.173831,-0.28099 -0.289449,-0.34873 l 3e-4,-3.1e-4 c -0.113185,-0.0658 -0.243118,-0.0896 -0.371799,-0.0778 -0.1946,0.018 -0.389588,0.11512 -0.532074,0.26762 -0.822281,0.88341 -0.845341,2.24391 -0.447044,3.87416 0.409669,1.6761 1.265958,3.63374 2.167045,5.65854 0.136985,0.24331 0.254383,0.48201 0.350149,0.71314 0.478284,1.15227 0.51298,2.25256 0.08762,3.26049 -0.421181,0.9968 -1.291027,1.89401 -2.627028,2.64943 -0.321184,0.18105 -0.66853,0.35507 -1.040153,0.51852 l 0.0071,0.007 c 0.219176,0.21315 0.24474,0.23822 0.366017,1.03245 l 0.0013,0.0141 c 0.0088,0.12676 -6.17e-4,0.17682 0.0035,0.1763 0.09608,-0.007 0.312898,-0.1865 0.577171,-0.40526 0.578458,-0.48006 1.354337,-1.12379 2.206412,-0.92998 l 0.157613,0.0356 v 0.16114 l -0.0035,3.67129 c 0,0.10966 0.03931,0.13804 0.0922,0.13804 v -6.1e-4 c 0.06664,0 0.149327,-0.0141 0.23217,-0.0286 0.362649,-0.0603 0.740301,-0.1243 0.85063,0.39158 l 0.217554,1.01651 0.0018,0.0123 0.0012,0.0141 0.0013,0.005 0.0053,0.0656 -0.0342,0.0564 -0.0018,0.004 -0.0379,0.061 -0.06646,0.0241 -0.0035,6.2e-4 -0.05994,0.0212 -0.0603,-0.0159 -0.0053,-0.001 -0.0141,-0.004 -0.01234,-0.004 c -0.256005,-0.10666 -0.71717,-0.26568 -1.200426,-0.31824 -0.313955,-0.0339 -0.636813,-0.0234 -0.911965,0.0749 l -0.01234,0.004 -0.0071,0.001 c -1.001719,0.24648 -1.426249,0.94021 -1.7325,1.43968 -0.27129,0.4434 -0.47162,0.76953 -0.851018,0.68949 l -0.196222,0.60193 -0.0035,0.0106 -0.0053,0.0106 c -0.03297,0.0712 -0.09115,0.11795 -0.174713,0.12271 -0.05501,0.005 -0.09749,-0.0106 -0.139277,-0.0409 l -0.01975,-0.0141 -0.0141,-0.0141 -0.602787,-0.67084 -0.0071,-0.009 c -0.4679,-0.57927 -0.145271,-0.82084 0.278184,-1.1371 l 6.35e-4,6.1e-4 c 0.195851,-0.14686 0.422785,-0.31644 0.544079,-0.57107 -0.596264,-0.0769 -1.106635,0.19834 -1.527639,0.42615 -0.460355,0.24966 -0.836756,0.45309 -1.181263,0.22708 l -0.427651,0.44426 -0.02098,0.0226 -0.02786,0.0141 -0.0053,0.002 -0.06823,0.0372 -0.07475,-0.0178 -0.0053,-6.1e-4 -0.05201,-0.0123 -0.03967,-0.0374 -0.0035,-0.004 -0.04108,-0.0388 -0.01587,-0.0555 -0.0018,-0.005 -0.0071,-0.0243 -3.7e-4,-0.0268 -0.0071,-0.62954 v -0.001 c 6.17e-4,-0.79125 0.328077,-0.9644 0.750139,-1.03897 -0.05236,-0.0393 -0.09855,-0.0952 -0.137514,-0.17154 l -0.553723,0.40196 -0.0053,0.004 -0.01058,0.007 c -0.111422,0.0668 -0.220058,0.0503 -0.28684,-0.0843 l 6.17e-4,-6.2e-4 c -0.04372,-0.1331 0.05624,-0.80481 0.08603,-1.00669 l 0.0088,-0.0527 h 1.41e-4 c 0.09467,-0.68177 0.443748,-0.80462 1.002636,-0.72706 0.194106,0.0272 0.410039,0.0809 0.653544,0.14121 0.592897,0.14757 1.356082,0.33709 2.241302,0.23341 -1.161799,-0.22969 -2.374778,-0.60982 -3.428665,-1.17747 -1.047803,-0.56454 -1.940728,-1.31467 -2.477896,-2.28646 -1.096057,0.46845 -1.707131,0.94779 -2.004919,1.53242 -0.312404,0.61367 -0.292305,1.37057 -0.13769,2.36998 l 0.0012,0.004 c 0.02609,0.20008 0.263092,0.27117 0.511305,0.34449 0.517405,0.15391 1.068202,0.31806 0.88485,1.29508 l -3.7e-4,0.004 v 0 c -0.02451,0.12341 -0.04267,0.21369 -0.246803,0.17277 l -1.868639,-0.27838 c -0.823444,0.0959 -1.289793,0.50988 -1.658419,0.83776 -0.382747,0.34009 -0.680165,0.60422 -1.145615,0.47057 l -0.779739,0.64719 c -0.02027,0.0201 -0.04266,0.036 -0.07087,0.0476 v 0 c -0.03702,0.0159 -0.07616,0.021 -0.119708,0.0141 -0.0372,-0.007 -0.07211,-0.022 -0.102606,-0.0472 h -3e-4 c -0.02927,-0.024 -0.05166,-0.0548 -0.0677,-0.0931 v 6.4e-4 l -0.42416,-0.98462 -0.02292,-0.0531 0.0088,-0.0592 c 0.09591,-0.60166 0.432446,-0.71026 0.853627,-0.84534 0.190562,-0.0615 0.404079,-0.13029 0.612113,-0.2784 -1.090574,-0.0822 -1.683118,0.0739 -2.086316,0.18 -0.501045,0.13223 -0.758848,0.20033 -1.183202,-0.18615 l -0.671139,0.5289 c -0.0312,0.0247 -0.06629,0.0386 -0.09838,0.0446 l -0.03579,0.007 -0.03332,-0.005 -0.0035,-6.2e-4 -0.08709,-0.0141 -0.04866,-0.0725 -0.0018,-0.004 -0.01763,-0.0252 -0.0088,-0.034 c -0.0071,-0.0273 -0.01058,-0.0592 -0.0053,-0.0915 l 0.171716,-1.21241 c 0.08921,-0.80934 0.720697,-0.7293 1.525506,-0.62693 0.453638,0.0573 0.975274,0.12359 1.447088,0.001 -0.152499,-0.0954 -0.368132,-0.0945 -0.58588,-0.0936 -0.410426,6.2e-4 -0.828628,0.002 -1.094805,-0.4106 l -0.960483,0.0851 -0.31912,0.028 0.112303,-0.30009 c 0.67239,-1.7912 1.974383,-1.29421 3.29011,-0.79068 0.597128,0.22776 1.198682,0.45769 1.702512,0.43301 -0.680659,-2.28187 -0.689862,-3.87474 -0.199202,-5.20912 0.440962,-1.19762 1.279392,-2.17078 2.395353,-3.24061 -0.996906,0.25264 -1.472757,0.65 -1.958499,1.05601 -0.239574,0.19939 -0.482022,0.40252 -0.795483,0.59912 l -0.105427,0.0659 -0.106133,-0.0649 c -0.465767,-0.28278 -0.96258,-0.49841 -1.454969,-0.60719 -0.339783,-0.0749 -0.677362,-0.0982 -1.001772,-0.0582 l 0.06223,0.098 v 10e-4 c 0.268876,0.42416 0.545631,0.85996 0.561128,1.25403 0.02133,0.52995 -0.371993,0.9206 -1.696182,0.97367 l -0.01957,0.001 -0.01234,-0.002 -0.0053,-3.7e-4 -0.07034,-0.009 -0.04936,-0.0492 -0.0018,-0.002 -0.03473,-0.0351 -0.0141,-0.0488 -0.0013,-0.004 -0.0018,-0.009 -0.0018,-0.0159 c -0.0088,-0.0453 6.17e-4,-0.10049 0.02274,-0.14015 l -3.71e-4,-5.7e-4 0.288762,-0.52306 c -0.282239,-0.11284 -0.268804,-0.27154 -0.246591,-0.54706 0.01904,-0.23131 0.05025,-0.60771 -0.456634,-1.28133 -0.251087,-0.33393 -0.632776,-0.30588 -0.9672,-0.28088 -0.461536,0.0342 -0.861014,0.0636 -1.009106,-0.46434 l -0.358435,-0.0485 c -0.184093,0.42281 -0.437594,0.8417 -0.777677,1.25771 -0.348722,0.42598 -0.790371,0.85282 -1.343582,1.27853 l 0.729723,0.12835 0.0035,6.1e-4 c 0.139806,0.0273 0.242236,0.0827 0.310094,0.16361 v 6.2e-4 c 0.07722,0.0929 0.102607,0.20505 0.08004,0.33336 h 5.64e-4 l -1.185423,7.35296 h 1.766138 l 0.0018,6.4e-4 c 0.221415,0.004 0.389641,0.0698 0.506704,0.19342 v 4.9e-4 c 0.116358,0.12182 0.173832,0.28952 0.177005,0.49768 l 6.17e-4,0.004 v 8.65383 c -2.905918,-0.63836 -6.355932,-0.80747 -11.078004,1.24607 -4.695698,-2.04279 -8.134253,-1.88636 -11.030351,-1.25645 v -8.64345 h 6.17e-4 c -0.0035,-0.21351 0.05412,-0.38225 0.175595,-0.50409 0.11865,-0.11989 0.288885,-0.18348 0.51067,-0.19037 l 0.0053,-6.3e-4 h 1.697717 l -1.183802,-7.34364 -6.35e-4,-0.007 c -0.01587,-0.12271 0.01234,-0.23092 0.08621,-0.32173 0.06329,-0.0781 0.156554,-0.13593 0.278378,-0.17436 l 0.0141,-0.004 0.01058,-0.002 0.734818,-0.1287 c -0.426152,-0.32813 -0.785275,-0.65534 -1.086043,-0.98187 -0.238693,-0.25909 -0.442319,-0.51901 -0.614423,-0.78028 -0.102783,0.11477 -0.243241,0.13663 -0.413406,0.10525 h -4.94e-4 c -0.134164,-0.025 -0.272419,-0.0919 -0.425412,-0.16502 -0.266072,-0.12817 -0.587625,-0.28293 -0.872526,-0.17507 -0.02045,0.0141 -0.01587,0.0347 -0.0053,0.0571 0.02327,0.0446 0.06012,0.0968 0.09556,0.14826 l -5.65e-4,2e-4 c 0.06699,0.0957 0.133459,0.19179 0.165722,0.29703 0.06012,0.19518 0.02504,0.36707 -0.226016,0.48537 l 0.0018,0.59447 v 0.0123 c -0.0035,0.0575 -0.02627,0.1086 -0.07052,0.14774 l -0.01058,0.0106 -0.0141,0.009 -0.0035,0.002 -0.03297,0.0212 -0.03914,0.007 -0.0035,3.7e-4 -0.02838,0.005 -0.02556,-0.002 c -0.04496,-0.004 -0.09379,-0.0217 -0.134869,-0.0621 l -0.0053,-0.007 -0.01058,-0.0123 -0.39389,-0.50509 c -0.317304,-0.0192 -0.393872,-0.21408 -0.407799,-0.47479 v -6.3e-4 c -0.0018,-0.0585 -6.17e-4,-0.12253 6.17e-4,-0.18796 v -6.2e-4 c 0.0071,-0.22197 0.01234,-0.48131 -0.36688,-0.51677 l -0.01058,-6.3e-4 c -1.47103,-0.20959 -2.450535,-0.31327 -3.126099,-0.2974 -0.633129,0.0141 -0.986593,0.13399 -1.236921,0.36936 l -0.101725,0.0959 -0.125878,-0.0608 -1.260369,-0.61442 c 2.377088,2.63425 2.024806,3.93288 1.638515,5.36075 h -6.17e-4 c -0.236595,0.87302 -0.487117,1.79898 -0.03843,3.15718 l 1.817142,0.45378 0.0071,0.002 c 0.307802,0.0878 0.685948,-0.0453 1.037843,-0.16942 0.506139,-0.17838 0.970355,-0.34201 1.316978,0.0226 0.272719,0.11389 0.446357,0.30095 0.55427,0.51572 0.106485,0.21209 0.144919,0.44972 0.150031,0.66585 h 5.64e-4 c 0.0018,0.0471 -0.0088,0.0874 -0.02662,0.11918 l -0.01058,0.0183 -0.01234,0.0141 -0.0018,0.004 -0.03773,0.0444 -0.05553,0.018 -0.0035,6.2e-4 -0.01816,0.005 -0.01763,0.002 c -0.03914,0.005 -0.08075,-0.001 -0.119002,-0.0204 l -0.459984,-0.2239 c -0.03738,0.17048 -0.124821,0.25859 -0.247349,0.29934 0.21052,0.0754 0.393872,0.2211 0.494874,0.51515 0.245621,0.14562 0.424742,0.32266 0.536692,0.5409 0.12341,0.23921 0.161844,0.52063 0.116006,0.85574 l -0.0013,0.0123 -1.76e-4,10e-4 -0.0018,0.0106 c -0.0053,0.0213 -0.01234,0.0483 -0.03385,0.0809 v 6.1e-4 c -0.06699,0.10455 -0.161667,0.15532 -0.302337,0.0622 l -0.0141,-0.0106 -0.55397,-0.44071 c -0.375166,0.39369 -0.714367,0.29879 -1.207813,0.16149 -0.138748,-0.0388 -0.292517,-0.0814 -0.465468,-0.11478 0.07369,0.0615 0.14439,0.12676 0.179121,0.22958 0.123763,0.35308 -0.0268,0.66603 -0.176829,0.97931 -0.0573,0.11936 -0.114771,0.23871 -0.148621,0.34961 l -0.0053,0.019 -0.0088,0.0176 c -0.01587,0.0286 -0.04072,0.0594 -0.07193,0.0809 l -0.01975,0.0141 -0.02221,0.009 -0.0071,0.004 -0.01763,0.007 -0.02045,0.004 c -0.04778,0.009 -0.09485,0.002 -0.139453,-0.0226 -0.03015,-0.0159 -0.05818,-0.0399 -0.07969,-0.0719 l -0.0013,-0.004 -0.495438,-0.76694 -3.835054,-2.09035 -0.08956,-0.049 -0.0141,-0.1 c -0.160081,-1.12573 -0.278942,-1.87604 -0.666608,-2.60273 -0.367938,-0.68881 -0.985729,-1.38047 -2.11791,-2.37727 -1.0361149,2.97877 -2.1841629,3.47438 -3.465,4.02687 -0.5496682,0.23771 -1.1265394,0.48661 -1.7238438,0.96687 0.5616742,0.17732 1.115644,0.25581 1.5918127,0.32317 0.9416183,0.13311 1.6191039,0.229 1.6479113,0.91234 0.1898046,0.12623 0.2834728,0.29703 0.3209718,0.49942 0.039139,0.20786 0.012341,0.43616 -0.020803,0.68122 -0.00353,0.0286 -0.010578,0.0529 -0.022743,0.0749 l -0.00176,0.005 c -0.023095,0.0418 -0.052008,0.0679 -0.087974,0.0873 l -0.014104,0.007 c -0.032439,0.0159 -0.068757,0.0213 -0.1061326,0.0189 l -0.00353,-6.3e-4 c -0.029266,-0.002 -0.062234,-0.0106 -0.092205,-0.0279 l -0.010578,-0.005 -0.010578,-0.009 -0.4827446,-0.34853 c -0.2270744,0.12782 -0.5828302,0.0141 -0.9512796,-0.10983 -1.763e-4,0.0573 -0.01763,0.12076 -0.056769,0.19211 0.063292,0.11653 0.1091297,0.22887 0.1295805,0.344 l -4.936e-4,4.9e-4 c 0.029442,0.16625 0.00882,0.33095 -0.080922,0.50863 h -1.939e-4 c -0.040902,0.0832 -0.1038407,0.12376 -0.1838986,0.13169 v 6.4e-4 c -0.063468,0.007 -0.1170632,-0.0106 -0.1683665,-0.0446 l -0.00176,-0.002 -0.010578,-0.009 -0.5363046,-0.42964 c -0.441843,0.21985 -0.9469249,0.0194 -1.6073623,-0.24363 -0.6397927,-0.25406 -1.4431742,-0.57368 -2.4548365,-0.58512 -0.1717162,0.15744 -0.3684317,0.25207 -0.5831828,0.29648 h -6.346e-4 c -0.2279383,0.0473 -0.4761511,0.0377 -0.7358762,-0.009 v 0 c -0.048306,-0.007 -0.090089,-0.0261 -0.1246441,-0.0559 l -4.937e-4,6.2e-4 c -0.03667,-0.0312 -0.058884,-0.0693 -0.071402,-0.11019 l -6.17e-4,-0.002 c -0.010578,-0.0339 -0.012341,-0.0684 -0.00705,-0.10173 l 3.702e-4,-0.004 c 0.00882,-0.0554 0.038962,-0.1146 0.080922,-0.16326 l 0.00176,-0.001 c 0.7626914,-0.86003 0.5534057,-2.59004 0.3827473,-4.00765 -0.093968,-0.7793 -0.1775165,-1.46897 -0.086916,-1.92083 0.090618,-0.45183 0.3280767,-0.6858 0.8164277,-0.5876 l 0.014104,0.002 0.00353,0.001 2.1952876,0.65478 c 0.1160054,-0.39593 0.2348492,-0.76213 0.3553679,-1.10135 0.089208,-0.24927 0.1782569,-0.48431 0.2685578,-0.70484 -0.5280362,-0.14051 -1.0056152,-0.33212 -1.4264257,-0.56362 -0.8383241,-0.46136 -1.4575426,-1.08498 -1.8224307,-1.78946 -0.3685023,-0.71225 -0.4774028,-1.50629 -0.2912653,-2.30121 0.075104,-0.32074 0.1987078,-0.64178 0.3713055,-0.95574 1.1963718,-2.1729 2.0755622,-4.4542 2.4145871,-6.27838 0.3000803,-1.61649 0.1812364,-2.85343 -0.5165942,-3.28468 -0.2896433,-0.17857 -0.6330757,-0.25494 -0.934725,-0.21401 -0.1799847,0.0242 -0.3437497,0.0901 -0.4683762,0.20063 -0.1228811,0.1079 -0.2117892,0.26359 -0.2452333,0.46933 -0.055534,0.34058 0.034379,0.81288 0.3521945,1.43191 h 3.879e-4 c 0.2686812,0.4899 0.1454475,0.95835 -0.1577885,1.29769 -0.1276412,0.14368 -0.2895199,0.26339 -0.4668424,0.35054 -0.1766879,0.0866 -0.3698774,0.14121 -0.5618681,0.15391 -0.45028787,0.0305 -0.8908792,-0.15867 -1.11229437,-0.67077 l -0.003526,-0.009 C 0.17724363,114.60499 0.15203273,114.535 0.13052413,114.47 v -0.001 c -0.0290895,-0.0867 -0.0504218,-0.15303 -0.0655836,-0.20412 l -0.008815,-0.0296 v 23.92879 l 14.72882547,2.35911 0.878326,0.13998 v 0.88448 3.01245 c 1.587212,0.092 3.128267,-0.35263 4.802924,-0.83589 3.472951,-1.00152 7.488677,-2.15927 13.716104,0.54905 6.227621,-2.70832 10.243788,-1.55057 13.716546,-0.54905 1.668997,0.48201 3.206015,0.92508 4.787938,0.8364 v -2.98442 -0.88379 l 0.878326,-0.14051 14.728631,-2.3596 v -23.82039 l -0.01058,0.0305 z m -68.22792409,-2.83333 0.014104,-0.0363 c 0.26619537,-0.67592 0.73658139,-1.18294 1.29471189,-1.51052 0.4132825,-0.24206 0.8755235,-0.38679 1.338117,-0.42908 0.4652734,-0.0427 0.9328033,0.0159 1.353984,0.18242 0.5012209,0.19747 0.9395027,0.54464 1.2339414,1.04674 0.3684493,0.62865 0.5916628,1.39589 0.6849431,2.25767 0.4201405,-1.2477 1.3100677,-2.32838 2.736317,-3.25129 -0.6642984,-0.32336 -0.6637342,-0.7484 -0.6635403,-1.23886 4.937e-4,-0.25687 4.937e-4,-0.53842 -0.1473868,-0.81862 L 7.6289428,107.25115 H 0.0580919 Z m 7.71488799,-4.31563 0.41397,0.25052 c 1.7094225,1.03349 2.8182961,0.96595 3.8295711,0.90368 1.487954,-0.0911 2.782155,-0.17048 5.271564,2.82346 l 0.05747,0.0693 -0.01234,0.0878 c -0.191233,1.3503 -0.601853,1.70079 -1.129889,1.62584 -0.325962,-0.0455 -0.666221,-0.27434 -1.024462,-0.51411 -0.20948,-0.14051 -0.426294,-0.28627 -0.638559,-0.39226 -0.479201,-0.24064 -0.970549,-0.2757 -1.396454,0.49152 0.308489,0.43673 0.727061,0.87833 1.180152,1.09817 0.342498,0.16696 0.708021,0.20114 1.056865,-0.007 l 0.371306,-0.22265 -0.06805,0.42827 c -0.20449,1.28817 -0.661813,1.63566 -1.212909,1.5479 -0.465467,-0.074 -0.957679,-0.49631 -1.410276,-0.88503 -0.365259,-0.31346 -0.702926,-0.60298 -0.885344,-0.60665 -0.501591,0.0813 -0.772194,0.28012 -0.882716,0.5072 -0.04936,0.10102 -0.06752,0.20948 -0.06082,0.31402 0.0071,0.10808 0.03967,0.21382 0.09115,0.30712 v 0.001 c 0.103311,0.18527 0.279999,0.32124 0.474423,0.32527 1.894008,0.0409 2.325203,0.68371 2.745696,1.3099 0.07123,0.10613 0.142627,0.21226 0.221609,0.31314 0.224465,-0.13892 0.449036,-0.27397 0.672567,-0.40937 1.19408,-0.72003 2.389094,-1.44037 3.263366,-2.48798 l 0.02063,-0.025 0.02785,-0.0176 c 0.472484,-0.29369 0.321043,-0.65901 0.205919,-0.93933 -0.05219,-0.12782 -0.100491,-0.24312 -0.111951,-0.35912 -0.02116,-0.21773 0.05377,-0.37572 0.335482,-0.44289 l 0.04884,-0.52604 0.0018,-0.0194 0.0053,-0.0159 6.17e-4,-0.004 0.01763,-0.0633 0.05148,-0.0411 0.0018,-10e-4 0.05624,-0.0451 h 0.06929 0.0035 0.06647 l 0.05465,0.0416 0.0035,0.004 0.03015,0.0224 0.01992,0.0319 0.328764,0.52046 c 0.392444,-0.0668 0.558695,0.061 0.616715,0.28876 0.03914,0.15338 -0.0012,0.33317 -0.04266,0.52026 -0.03967,0.17612 -0.08092,0.36228 -0.0372,0.43474 0.146152,0.098 0.31942,-0.10349 0.477402,-0.28771 0.124292,-0.14544 0.243488,-0.28405 0.383805,-0.35085 v 0 c 0.198144,-0.0941 0.38243,-0.0684 0.549545,0.18721 l 0.794232,-0.22987 c 0.05906,-0.0238 0.119884,-0.0159 0.166956,0.007 l 0.0141,0.007 0.01234,0.009 0.0018,0.001 0.04055,0.0294 0.02292,0.0451 6.17e-4,0.002 0.01587,0.0305 0.0035,0.0314 c 0.01058,0.0679 -0.0053,0.12693 -0.06294,0.18017 l -0.535423,0.56453 c 0.09538,0.35999 -0.04425,0.50951 -0.282063,0.5957 -0.0841,0.0302 -0.171716,0.045 -0.263392,0.0601 -0.213693,0.0361 -0.466825,0.0788 -0.485371,0.42342 0.0053,0.025 0.05765,0.0321 0.124644,0.0328 0.06294,3e-4 0.151794,-0.007 0.238886,-0.0141 0.169072,-0.0141 0.338337,-0.028 0.482692,0.0106 0.214769,0.0573 0.347364,0.18776 0.315277,0.46776 l 0.589724,0.3843 0.0053,0.004 0.01058,0.009 c 0.03473,0.0277 0.0573,0.0606 0.06946,0.0897 l 0.01058,0.0264 0.0035,0.0324 4.94e-4,0.004 0.0088,0.0908 -0.06153,0.0659 -0.0035,0.004 -0.01939,0.0203 -0.02504,0.0141 c -0.03491,0.0212 -0.07581,0.0316 -0.113361,0.0316 v -6.4e-4 l -0.112126,6.4e-4 h -0.0013 c -0.173832,0 -0.406001,4.9e-4 -0.545825,0.065 -0.03403,0.29636 -0.159023,0.3889 -0.361785,0.38093 -0.104194,-0.004 -0.205725,-0.0488 -0.326825,-0.1026 v 4.9e-4 c -0.28647,-0.12676 -0.731469,-0.32335 -1.265658,0.26322 l -0.02874,0.0312 -0.03808,0.0176 c -0.887529,0.40041 -1.222323,0.88995 -1.603131,1.44739 -0.197597,0.28952 -0.407746,0.59663 -0.707157,0.9221 0.915015,0.20923 1.476566,0.44886 2.077925,0.70592 0.425535,0.1821 0.872844,0.37323 1.490617,0.56802 0.12623,0.04 0.29033,-0.20151 0.438105,-0.41888 0.1153,-0.16961 0.224395,-0.32988 0.354134,-0.41521 l 1.94e-4,3.7e-4 c 0.160785,-0.10543 0.315753,-0.11653 0.467759,0.0312 l 0.140511,-0.0603 c 0.03279,-0.71668 0.154263,-1.43862 0.279083,-2.18559 0.213693,-1.27287 0.439146,-2.6207 0.246961,-4.07163 l -0.0018,-0.0187 v -0.007 -1.8679 l -0.76107,-4.1046 H 7.77231 Z m 17.4775181,0 0.385744,3.44347 h -5.64e-4 c 0.01058,0.0591 0.02504,0.095 0.04513,0.11125 0.02433,0.0187 0.07123,0.0272 0.138748,0.0268 l 6.17e-4,-6.1e-4 h 16.750968 l 0.0012,6.1e-4 c 0.05007,3.7e-4 0.08762,-0.007 0.107543,-0.0247 0.01922,-0.0159 0.03173,-0.051 0.03667,-0.10719 v -0.004 l 0.386291,-3.44595 H 25.250392 Z m 20.393291,0 -0.760523,4.1046 v 1.86789 0.007 l -0.0018,0.0187 c -0.193242,1.45182 0.03297,2.80019 0.246661,4.07377 0.09097,0.54332 0.180179,1.07404 0.234656,1.59765 0.691043,-0.3833 1.167776,-0.1079 1.532364,0.37231 0.164841,0.21649 0.29971,0.47125 0.419999,0.71965 -0.0088,-0.22316 0.04161,-0.38958 0.219794,-0.47139 l -0.15391,-0.71225 -0.0573,-0.2629 0.268558,0.0183 c 1.108169,0.0751 1.248557,0.73198 1.203018,1.40915 -0.01058,0.15496 -0.03209,0.31065 -0.05218,0.45788 -0.03984,0.29211 -0.07493,0.54935 -0.01587,0.62759 0.3279,0.19238 0.705729,0.2629 1.05445,0.22777 0.258985,-0.0261 0.501732,-0.1109 0.69441,-0.24592 0.184093,-0.12959 0.323722,-0.30712 0.38541,-0.52305 0.05747,-0.20296 0.0506,-0.44396 -0.04584,-0.72003 -1.297057,-1.48709 -1.671659,-2.21681 -1.817142,-2.67165 -0.0088,0.20363 -0.02504,0.40496 -0.07828,0.5862 -0.158141,0.53579 -0.574245,0.85946 -1.792812,0.50016 l -0.318187,-0.0941 0.228626,-0.23921 0.443747,-0.46596 c -0.183722,-0.28231 -0.04848,-0.50178 0.137338,-0.80112 0.117592,-0.18989 0.263198,-0.4263 0.313073,-0.75598 -0.118121,-0.16501 -0.193348,-0.29791 -0.240614,-0.44059 -0.0469,-0.1421 -0.06347,-0.28578 -0.06435,-0.47174 -0.224272,-0.25072 -0.52823,-0.37305 -0.785276,-0.47605 -0.43666,-0.17541 -0.773445,-0.31097 -0.694957,-0.76972 l -0.817873,-0.15779 -0.280864,-0.0541 0.144566,-0.24735 c 0.513721,-0.87725 1.091262,-0.83373 1.642059,-0.51094 0.263533,0.15373 0.508255,0.37131 0.733901,0.57225 0.07246,0.0642 0.143508,0.12747 0.210538,0.18461 -0.04513,-0.1726 -0.129581,-0.34306 -0.206113,-0.49682 -0.0409,-0.0827 -0.08004,-0.16131 -0.109482,-0.22956 v -6.1e-4 c -0.115653,-0.26918 -0.153028,-0.49452 0.04037,-0.65797 l -0.318063,-0.72705 -0.101549,-0.23056 0.248283,-0.0495 c 0.09414,-0.0187 0.187213,-0.0282 0.277638,-0.0296 0.462294,-0.007 0.796717,0.21047 1.035427,0.54371 0.222473,0.30886 0.357554,0.71579 0.43897,1.12231 l 0.01904,0.10066 c 0.02116,-0.0695 0.03685,-0.11759 0.04548,-0.14068 l 6.17e-4,-6.4e-4 c 0.03967,-0.10278 0.160786,-0.19484 0.299023,-0.2359 h 6.35e-4 c 0.03931,-0.0124 0.0811,-0.0201 0.124467,-0.024 l 0.139101,-0.6796 0.05113,-0.25195 0.232363,0.1093 c 0.27732,0.12941 0.451663,0.36068 0.547377,0.62072 0.112655,0.30481 0.114595,0.65603 0.04478,0.92048 -0.07986,0.30431 -0.223531,0.52976 -0.359987,0.74608 -0.306057,0.48363 -0.578969,0.91502 0.347293,2.26601 l 0.0071,0.0106 6.35e-4,6.2e-4 c 0.43673,0.55267 0.640163,0.81183 0.922225,1.04139 0.249641,0.20412 0.576343,0.39985 1.18828,0.76606 l 0.322241,0.19317 c 0.600848,-0.35401 1.022223,-0.68458 1.362111,-0.9672 -0.209585,0.0504 -0.460107,0.0785 -0.760381,0.0813 l -0.64346,0.005 0.524475,-0.37256 c 0.263709,-0.18756 0.455524,-0.40233 0.531527,-0.61385 v -6.2e-4 c 0.02856,-0.0807 0.03967,-0.16202 0.03032,-0.23965 -0.0088,-0.0767 -0.03896,-0.15338 -0.0915,-0.22737 -0.120941,-0.17066 -0.35706,-0.33199 -0.736634,-0.46684 -0.262458,-0.0934 -0.491154,-0.35948 -0.665356,-0.7329 l 3.7e-4,-6.2e-4 c -0.166251,-0.35632 -0.290207,-0.81979 -0.350096,-1.32283 l -0.04707,-0.38959 c -0.02909,0.007 -0.05783,0.0141 -0.08639,0.0206 -0.599244,0.12112 -1.084986,-0.22122 -1.356453,-1.56731 l -0.01992,-0.0964 0.06435,-0.0749 c 0.336909,-0.39493 1.035057,-0.60788 1.681743,-0.80499 0.356638,-0.10807 0.696403,-0.21152 0.925029,-0.33075 -0.01816,-0.0275 -0.03879,-0.0557 -0.05906,-0.0834 -0.155673,-0.21197 -0.315065,-0.43058 -0.04196,-0.64179 2.621387,-2.0232 5.180381,-1.49361 7.049708,-1.1075 0.400042,0.0825 0.768844,0.15867 1.101152,0.20026 0.821047,0.10085 1.360525,-0.0428 1.477747,-0.99094 l 0.02186,-0.21564 h -17.28484 z m 17.634055,0 0.103841,0.0977 c 0.534488,0.53917 0.731274,1.03791 0.712939,1.46226 v 5e-4 c -0.01058,0.27596 -0.113184,0.51783 -0.272225,0.71754 -0.154086,0.19344 -0.36316,0.34699 -0.59503,0.45365 -0.460795,0.21102 -1.027071,0.23938 -1.454792,0.0298 -0.421181,-0.20574 -1.020918,-0.35999 -1.676084,-0.4136 -0.261277,-0.0213 -0.530152,-0.027 -0.799327,-0.0141 0.418325,0.13399 0.791552,0.29779 1.123542,0.48786 0.980934,0.56224 1.596926,1.3563 1.914301,2.31061 0.08886,-0.56399 0.230054,-1.06434 0.420246,-1.48198 0.340824,-0.7451 0.872527,-1.20695 1.479175,-1.42383 0.341828,-0.12236 0.707351,-0.16573 1.074161,-0.13893 0.363407,0.0265 0.730111,0.12306 1.078462,0.28194 0.822968,0.37497 1.547597,1.10258 1.896635,2.08016 l 0.01234,0.0333 v -4.48367 z m -29.093573,38.15944 -0.32931,-0.14897 c -5.937238,-2.60889 -9.780243,-1.50014 -13.1017,-0.54209 -2.087057,0.60223 -3.980889,1.14787 -6.077096,0.76954 v 16.248 c 2.056399,0.33373 4.262564,-0.0802 6.633129,-0.52518 3.791137,-0.71088 7.990269,-1.4979 12.874977,0.39873 4.885273,-1.89663 9.084792,-1.10961 12.875366,-0.39873 2.370935,0.44494 4.576801,0.85891 6.633516,0.52518 v -16.248 c -2.096894,0.37833 -3.990233,-0.16731 -6.077237,-0.76954 -3.321333,-0.95805 -7.164656,-2.0668 -13.102122,0.54209 z m 15.906562,19.21935 H 38.013737 l 0.336715,0.7808 c 0.0238,0.0633 -0.01587,0.16113 -0.07493,0.16113 h -8.1824 c -0.05906,0 -0.0982,-0.0978 -0.07475,-0.16113 l 0.337085,-0.7808 H 18.2632 c 0.94019,0.81375 2.091606,1.62987 3.381593,2.43629 3.60872,2.25593 8.269722,4.3731 12.531986,6.17332 4.262563,-1.80022 8.923759,-3.91739 12.532109,-6.17332 1.290093,-0.80642 2.441578,-1.62254 3.381963,-2.43629 z M 13.634391,146.65627 h -0.880425 v 15.89293 h 0.880425 v -0.38112 z m 6.127183,15.89293 h 11.504774 v 0.94201 h 5.836235 v -0.94201 h 11.505021 c -0.571248,-0.0964 -1.150217,-0.20537 -1.739394,-0.31575 -3.686398,-0.69143 -7.773966,-1.45836 -12.436713,0.39493 v 1.9e-4 l -0.247226,0.11213 -0.246784,-0.11213 v -1.9e-4 c -4.6628,-1.85329 -8.750104,-1.08636 -12.43689,-0.39493 -0.58886,0.11036 -1.168005,0.21935 -1.739023,0.31575 z m 34.973336,0 h 0.880425 V 146.65627 H 54.73491 v 15.51181 z M 42.354736,148.90797 c 0.171187,0.0141 0.310112,0.10349 0.435109,0.1689 0.222666,0.1153 0.418395,0.24504 0.505469,0.49027 0.202939,0.5753 -0.312227,1.30571 -0.09855,1.8674 0.264749,-0.20785 0.608199,-0.32335 0.73034,-0.67382 0.211401,5e-4 0.344684,0.12588 0.449054,0.2387 1.94e-4,0.10366 -0.01922,0.14086 -0.04319,0.21066 -0.358629,0.0991 -1.008242,0.44431 -1.234329,0.68794 -0.01851,0.94199 -0.468006,1.42468 -1.053199,1.8106 -0.190756,0.12553 -0.388723,0.38275 -0.715742,0.28032 0.01058,-0.009 0.01904,-0.0189 0.02838,-0.0277 0.239574,-0.54371 1.393105,-1.04139 1.123049,-1.88146 -0.603669,0.3575 -1.538253,1.16323 -2.44232,0.81431 -0.0035,-0.18756 0.05201,-0.21792 0.09802,-0.33691 0.845412,0.004 1.901413,-0.63027 2.512963,-0.92614 0.06664,-0.56976 0.148268,-1.39254 0,-1.96484 -0.11248,-0.2392 -0.224571,-0.4774 -0.336909,-0.71611 0.0141,-0.0141 0.02768,-0.0277 0.04178,-0.0421 z m -15.705844,0.87041 c -0.571759,0.0123 -0.728983,-0.1086 -0.982855,-0.39313 0.02362,-0.0608 0.0469,-0.12147 0.07017,-0.18229 0.243487,-0.083 0.592332,-0.0264 0.814312,0.0277 0.0945,0.16696 0.125349,0.31913 0.09838,0.54775 z m 0.533131,-0.18247 c 0.189205,0.0106 0.272719,0.0451 0.37901,0.12623 0,0.0326 0,0.0658 0,0.0978 -0.453761,0.47885 -1.39136,0.7137 -1.951412,1.10931 -0.171716,0.12183 -0.373615,0.46279 -0.617032,0.47684 -0.238393,-0.0804 -0.494575,-0.14121 -0.632212,-0.32316 0.02415,-0.0367 0.04725,-0.074 0.07052,-0.11124 0.01058,0 0.01886,0 0.02838,0 0.233915,-0.0612 0.467513,-0.122 0.701498,-0.18267 0.578599,-0.24435 1.66265,-0.75932 2.021262,-1.19319 z m 4.71636,1.13661 c 0.260096,-0.002 0.536181,0.16889 0.560987,0.39332 -0.110011,0.36285 -0.227568,0.62959 -0.420987,0.89809 -0.189329,0.26376 -0.470192,0.4996 -0.561498,0.85629 0.0141,0.009 0.02856,0.0182 0.04266,0.0277 0.129757,-0.0599 0.483256,-0.35066 0.659203,-0.15409 0,0.0748 0,0.14915 0,0.22447 -0.243682,0.1317 -0.486623,0.26216 -0.729741,0.39244 -0.558695,0.35066 -1.963488,1.29085 -2.470298,0.28157 0.02327,-0.0279 0.04637,-0.0561 0.07017,-0.0841 1.258253,0.007 1.696728,-0.72781 2.203556,-1.47426 0.181976,-0.26813 0.50353,-0.43705 0.547059,-0.84238 -0.0035,-0.004 -0.0088,-0.009 -0.0141,-0.0141 -0.394877,3.7e-4 -0.980757,0.27589 -1.262802,0.16836 -0.151442,-0.0568 -0.195164,-0.21767 -0.309107,-0.30886 0.04108,-0.0908 0.05553,-0.22034 0.112303,-0.29442 0.326155,0.10208 1.36636,0.1525 1.572226,-0.0703 z m -5.137347,0.1264 c 0.239751,0.0159 0.452898,0.0903 0.560987,0.23833 -0.133283,0.33673 -0.54794,0.40341 -0.58923,0.71648 0.05853,0.0652 0.13487,0.11653 0.126231,0.21017 -0.191109,0.10313 -0.382747,0.20611 -0.574914,0.30836 0.07828,0.64949 0.234831,1.64026 -0.08427,2.17588 -0.07052,0 -0.140687,0 -0.210467,0 -0.04883,-0.20661 -0.378392,-0.83229 -0.56118,-0.79952 -0.317305,0.0762 -0.433857,0.5908 -0.575796,0.85542 -0.183352,0.0301 -0.380438,0.0871 -0.533819,0 -0.02944,-0.28297 -0.175771,-0.47745 -0.0982,-0.79937 0.421181,-0.15938 0.842185,-0.31858 1.263736,-0.4776 0.09291,0.12341 0.228802,0.2583 0.392567,0.30903 0.02292,-0.29666 -0.09326,-0.75895 0.04249,-0.98304 0.05818,-0.097 0.189011,-0.13646 0.25262,-0.23813 -0.155497,-0.4062 0.139277,-0.78136 0.392638,-0.94039 -0.0141,-0.033 -0.02786,-0.0656 -0.04249,-0.098 -0.01798,0.004 -0.03685,0.009 -0.05589,0.0141 -0.239256,0.20488 -0.326331,0.48009 -0.758284,0.3503 -0.0035,-0.0323 -0.0088,-0.0651 -0.0141,-0.0975 0.02345,-0.0471 0.04743,-0.0933 0.07034,-0.14051 0.425729,-0.0356 0.727238,-0.39015 0.9968,-0.6036 z m -1.474203,0.80019 c 0.581773,-0.0203 0.819778,0.95202 0.253132,0.95395 -0.293557,-0.12694 -0.454343,-0.43829 -0.491524,-0.81343 0.07916,-0.0476 0.159375,-0.094 0.238392,-0.14052 z m 1.474203,0.99661 c 0.708021,0.19026 0.822951,1.79583 -0.02821,1.403 -0.03614,-0.46385 -0.06929,-0.98305 0.02821,-1.403 z m 17.222025,0.29463 c 0.256481,0.11918 0.854367,0.62095 0.729547,1.06732 -0.03209,0.11389 -0.172598,0.18105 -0.252462,0.25213 -0.212829,0.0123 -0.263939,-0.0451 -0.378692,-0.15479 0.0088,-0.44943 -0.02521,-0.77713 -0.154263,-1.06702 0.01834,-0.0323 0.03685,-0.0654 0.05589,-0.0977 z m -6.513034,0.33672 c 0.36919,-0.004 0.655096,0.24156 0.687747,0.5753 -0.06047,0.08 -0.121471,0.15938 -0.182471,0.23889 -0.04654,0 -0.09326,0 -0.140511,0 -0.07122,-0.22285 -0.340999,-0.41254 -0.519062,-0.53313 0.0088,-0.0707 0.01904,-0.14087 0.02821,-0.21121 0.04196,-0.0229 0.08445,-0.0462 0.126054,-0.0698 z m -18.119743,0.98273 c 0.210096,-0.0141 0.251703,-0.13875 0.378639,-0.22496 -0.0141,-0.0836 -0.02803,-0.16819 -0.04214,-0.25213 -0.102606,-0.0106 -0.206112,-0.019 -0.308736,-0.028 0.01763,-0.17559 0.0141,-0.33405 -0.05642,-0.44905 -0.0506,-0.0106 -0.102607,-0.0194 -0.154615,-0.0286 -0.199025,0.10789 -0.712376,0.51478 -0.659327,0.84255 0.08797,0.53668 0.607142,0.28136 0.294562,1.06627 -0.847791,0.0123 -1.114904,-1.14527 -0.883915,-1.90882 0.05624,0.0141 0.11195,0.0286 0.168543,0.0425 0.01587,0.81947 0.86357,-0.51565 0.926139,-0.65988 0.05042,-0.11565 0.06012,-0.33498 0.154086,-0.40707 0.07052,-0.0233 0.14104,-0.0471 0.211031,-0.07 0,-0.0242 0,-0.0472 0,-0.0705 -0.146682,-0.24381 -1.010164,-0.27272 -0.814629,-0.56118 0.400906,-0.14986 1.186992,-0.73091 1.291538,-1.16554 0.113185,-0.46702 -0.02715,-0.99661 -0.02768,-1.47295 -1.94e-4,-0.18864 -0.03597,-0.51709 0.0707,-0.60365 0.112656,-0.0936 0.291935,-0.0356 0.434562,-0.0141 0.09556,0.28012 0.288762,1.25577 0.491207,1.36188 0.182982,0.0416 0.364888,0.0838 0.547006,0.12588 0,0.0187 0,0.0379 0,0.0562 -0.0141,0.0608 -0.02768,0.12147 -0.04178,0.18249 -0.486253,0.119 -1.176661,0.85119 -1.417293,1.2493 -0.09238,0.15232 -0.254754,0.35096 -0.182859,0.61791 0.0141,-0.005 0.02856,-0.009 0.04214,-0.0141 0.21967,-0.18006 0.471056,-0.33871 0.645769,-0.56138 0.285095,-0.36526 0.612484,-0.7921 1.039148,-1.01004 0.268981,0.10314 0.432429,0.29095 0.589159,0.50459 -0.135046,0.79 -0.453267,1.43471 -0.280669,2.49886 0.0035,0.23839 0.0088,0.4771 0.0141,0.71512 -0.133107,0.20959 -0.361803,0.44513 -0.574932,0.5758 -0.218119,-0.17418 -0.276827,-0.52698 -0.659398,-0.53313 -0.06611,0.0374 -0.131343,0.0747 -0.196715,0.1116 0.0707,0.0883 0.191426,0.0691 0.210467,0.21122 -0.179438,0.23198 -0.324727,0.51018 -0.561868,0.68718 -0.0088,-0.0185 -0.01869,-0.0374 -0.02733,-0.0559 -0.12958,-0.11213 -0.157788,-0.34872 -0.3096,-0.43474 -0.111598,-0.0194 -0.224589,-0.0377 -0.33691,-0.0566 0.01058,-0.0887 0.01904,-0.17777 0.02856,-0.26639 z m 0.7293,-2.17593 c -0.127113,0.15373 -0.483203,0.72269 -0.252268,1.0111 0.0088,-0.005 0.01886,-0.0106 0.02768,-0.0141 0.08022,-0.19199 0.433363,-0.74396 0.224589,-0.99697 z m 0.267306,1.26305 c 0.08709,-0.004 0.159551,0.004 0.210467,0.0282 0.02821,0.0471 0.05677,0.0934 0.08445,0.14104 -0.03279,0.0749 -0.06576,0.14968 -0.0982,0.22439 0.115653,0.022 0.347858,0.0873 0.491348,0.0279 0.02644,-0.0198 0.0088,-0.001 0.02768,-0.0279 0.130109,-0.27714 0.171716,-1.60904 0.112655,-1.97928 -0.04425,-0.27099 0.04795,-0.57774 -0.168543,-0.67402 -0.112479,0.13523 -0.224782,0.27205 -0.337473,0.40782 0.05642,0.13505 0.112656,0.2706 0.168367,0.4062 0.0141,0.1897 -0.447926,0.7339 -0.5472,0.91253 0.08621,0.16149 0.06823,0.30268 0.05642,0.53313 z m 15.888508,-1.41712 c 4.94e-4,-0.10102 0.0071,-0.34082 -0.04231,-0.40706 -0.386978,0.24187 -1.257336,0.92024 -1.417416,-0.0141 0.09943,-0.0123 0.118473,-0.0652 0.196521,-0.0843 0.191885,0.005 0.383118,0.009 0.575302,0.0141 0.364783,-0.0608 0.924341,-0.25406 1.137294,-0.49084 -0.08974,-0.14527 -0.123939,-0.2639 -0.183158,-0.46347 -0.0141,0.004 -0.02821,0.009 -0.04214,0.0141 -0.09908,0.0973 -0.186719,0.1585 -0.350537,0.19617 -0.06576,-0.0421 -0.130815,-0.0843 -0.196715,-0.12605 0.0141,-0.13628 0.02821,-0.27136 0.04214,-0.40696 0.0035,0 0.0088,0 0.0141,0 0.568585,0.18958 0.548135,-0.48412 0.533325,-1.02477 0.06065,0 0.121824,0 0.183158,0 0.120237,0.0725 0.229755,0.22229 0.307997,0.33673 -0.05571,0.26551 -0.200083,0.40686 -0.154087,0.70199 0.0035,0 0.0088,0 0.0141,0 0.174185,-0.0986 0.163607,-0.31029 0.154615,-0.58955 0.17154,-6.1e-4 0.165017,0.0575 0.280494,0.0984 0.02627,-0.38735 0.230424,-0.79069 0.35066,-1.0952 0.119003,-0.005 0.317869,-0.004 0.379204,0.0564 0.139806,0.35792 -0.364588,1.20452 -0.280811,1.72584 0.135223,-0.0635 0.431195,-0.20985 0.590218,-0.0691 0.118297,0.0785 0.250892,0.31346 0.23834,0.47691 -0.551308,-0.009 -1.108011,-0.11812 -1.501706,0.14015 -0.164664,0.10755 -0.237635,0.31558 -0.393308,0.42099 0,0.0187 0,0.0376 0,0.0559 0.02327,0.0141 0.04707,0.0284 0.07034,0.0423 0.258967,-0.18832 0.500163,-0.50439 0.869159,-0.26713 0,0.0564 0,0.1123 0,0.1689 -0.09696,0.12676 -0.196028,0.25283 -0.294104,0.3792 0.08321,0.22006 0.03773,0.38312 -0.09838,0.51903 0.266389,0.64563 -0.126936,0.50813 -0.224642,0.84236 0.0141,0.10754 0.02803,0.21494 0.04249,0.32229 0.06453,0.37958 0.03173,0.73831 -0.08427,0.99698 -0.245991,-0.0323 -0.446074,-0.22882 -0.61816,-0.3514 -0.354698,0.29355 -0.657776,0.55838 -0.799327,1.06719 -0.08868,-0.005 -0.178257,-0.0106 -0.267059,-0.0141 -0.360234,-1.08902 1.217827,-0.83178 1.277417,-1.79618 -0.09908,0.0582 -0.35893,0.26732 -0.491155,0.13998 -0.06294,-0.0487 -0.0848,-0.0966 -0.08445,-0.21034 0.140687,-0.0982 0.280687,-0.19728 0.421004,-0.29492 0,-0.12182 0,-0.2435 0,-0.36527 -0.07017,0.028 -0.140335,0.0568 -0.210467,0.0846 -0.02257,-0.0141 -0.04672,-0.0279 -0.06981,-0.042 0.0088,-0.0566 0.01851,-0.11283 0.02803,-0.16854 0.370565,-0.0698 1.00015,-0.59415 1.024109,-1.01073 -0.0053,-0.004 -0.0088,-0.009 -0.0141,-0.0141 -0.0088,0.009 -0.01834,0.019 -0.02803,0.028 -0.324021,0.15726 -0.41092,0.47728 -0.884091,0.47728 z m 0.322612,1.82487 c -0.03315,0.0323 -0.06558,0.0654 -0.09855,0.0977 0.0053,0.0141 0.0088,0.0279 0.0141,0.0421 0.0088,0.005 0.01904,0.0106 0.02821,0.0141 0.04742,-0.0182 0.09432,-0.0372 0.140688,-0.0561 -0.02627,-0.0467 -0.0342,-0.0717 -0.08427,-0.0977 z m 0.294615,-1.55867 c -0.06171,0.0663 -0.148797,0.0862 -0.182294,0.18249 0.0088,0.005 0.01834,0.0106 0.02803,0.0141 0.05624,-0.0432 0.112656,-0.0846 0.168367,-0.12694 -0.0035,-0.0226 -0.0088,-0.0464 -0.0141,-0.0703 z m 0.701868,-3.00308 c -0.130815,0.36402 -0.0952,1.06434 -0.350714,1.31922 -0.06558,-0.0141 -0.13152,-0.028 -0.196539,-0.042 -0.0088,0.0982 -0.01869,0.19654 -0.02821,0.29474 0.130991,-0.0615 0.261841,-0.12147 0.393008,-0.18247 0.05553,-0.25276 0.357501,-1.12989 0.182488,-1.38956 z m 11.466516,2.2596 c -0.02715,0 -0.05553,0 -0.08374,0 -0.191638,0.25481 -0.593778,0.50073 -1.024479,0.50533 -0.0035,-0.0698 -0.0088,-0.14104 -0.0141,-0.21052 0.254753,-0.10384 0.445686,-0.3889 0.659027,-0.54725 0.178063,-0.0843 0.356496,-0.16784 0.533501,-0.25245 0.219987,-0.17875 0.654778,-1.22897 0.673995,-1.6142 -0.03262,-0.005 -0.06576,-0.009 -0.09767,-0.0141 -0.149679,0.11706 -0.300028,0.23411 -0.449724,0.35152 0.0469,0.0996 0.201141,0.31434 0.16819,0.44849 -0.07669,0.31538 -0.406371,0.81892 -0.757526,0.85648 -0.0053,-0.0375 -0.01058,-0.0749 -0.0141,-0.11212 0.03685,-0.0938 0.07475,-0.18757 0.111951,-0.28087 -0.231306,0.0696 -0.317005,0.36727 -0.49096,0.50477 -0.120061,0.002 -0.130462,-0.022 -0.168014,-0.0978 0.03244,-0.14738 0.18247,-0.31221 0.139982,-0.43548 -0.02803,0.005 -0.05571,0.009 -0.08445,0.0141 -0.217184,0.12394 -0.436554,0.83402 -0.729864,0.75809 -0.03473,-0.36304 -0.566082,-0.71014 -0.476909,-1.02436 0.02327,-0.0379 0.04637,-0.0753 0.06999,-0.11265 0.109482,-0.0141 0.233227,0.007 0.337279,0.0284 0.06576,0.16273 0.154616,0.2629 0.23834,0.39232 0.0088,0 0.01851,0 0.02803,0 0,-0.0513 0,-0.10243 0,-0.15373 -0.147563,-0.26639 -0.574738,-0.98977 -0.519397,-1.33445 0.03808,0 0.07493,0 0.112655,0 0.252074,0.0795 0.377758,0.13487 0.463088,0.37925 0.567527,-0.10384 0.823708,-0.64601 0.954135,-1.19251 0.0439,-0.18335 -0.01781,-0.49135 0.09838,-0.60398 0.146857,0.0284 0.458556,-0.004 0.547058,0.12658 0.347488,0.57082 -0.597498,1.01198 -0.687922,1.51581 0.129051,0.0511 0.302689,0.18423 0.462964,0.1123 0.171011,-0.31489 0.616362,-0.57579 0.898407,-0.78594 0.245057,0.027 0.440961,0.13293 0.618284,0.22439 -0.0707,0.27031 -0.108072,0.47642 -0.238516,0.67333 -0.207488,0.31289 -0.799327,0.82152 -0.772335,1.26354 0.117768,0 0.135045,0.0241 0.196539,0.0705 0.01904,0.13998 0.03737,0.28062 0.05589,0.42118 -0.103664,0.30569 -0.709819,0.58743 -0.911453,0.88397 0,0.004 0,0.009 0,0.0141 0.227056,-0.0123 0.568884,-0.15144 0.743404,-0.0141 0.332361,0.29156 -0.342692,0.95443 -0.659327,0.85623 0.03173,0.39407 0.344314,2.27676 -0.323158,2.03507 -0.09379,-0.0658 -0.187266,-0.13064 -0.280511,-0.1964 -0.240808,-0.0993 -0.461359,-0.10331 -0.604145,-0.29481 0.126055,-0.1897 0.497484,-0.19162 0.758214,-0.23851 -0.01886,-0.38361 -0.03702,-0.76724 -0.05624,-1.15054 -0.472678,0.24809 -0.916936,0.93596 -1.614203,0.63084 -0.0013,-0.13963 0.03632,-0.17366 0.06999,-0.26627 0.484508,-0.0383 1.263736,-0.44318 1.432667,-0.80019 0.08233,-0.17489 -0.03561,-0.40358 0.06964,-0.56137 0.174537,-0.26177 0.578669,-0.37882 0.616909,-0.77202 z m -1.262484,-1.75469 c -0.0141,0.0333 -0.02821,0.0659 -0.04249,0.0984 0.02803,0.019 0.05642,0.0376 0.08445,0.0557 0.0141,0 0.02785,0 0.04266,0 0.01834,-0.0319 0.0372,-0.0649 0.05589,-0.0977 0,-0.005 0,-0.009 0,-0.0141 -0.04654,-0.0141 -0.09361,-0.0279 -0.140511,-0.0421 z m 0.434738,0.0705 c -0.02398,0.0324 -0.04654,0.0654 -0.07017,0.0977 0.0402,0.088 0.0818,0.15285 0.211401,0.15479 0.04178,-0.0231 0.08357,-0.0469 0.126055,-0.0705 -0.06981,-0.0938 -0.151266,-0.13205 -0.267324,-0.18193 z m -0.308666,0.50547 c 0.0053,0.0323 0.0088,0.0652 0.0141,0.0975 0.03297,-0.004 0.06488,-0.009 0.09802,-0.0141 0.0035,-0.009 0.0088,-0.0185 0.0141,-0.0279 -0.0141,-0.0187 -0.02821,-0.037 -0.04214,-0.0559 -0.02785,0 -0.05624,0 -0.08445,0 z m 0.95537,-0.26696 c -0.01058,0.12147 -0.01957,0.24294 -0.02874,0.36447 0.08868,-0.0393 0.182788,-0.15162 0.112303,-0.29442 -0.02556,-0.0502 -0.02891,-0.0499 -0.08357,-0.07 z m -17.78495,-12.07865 h -0.541788 v -2.04278 c -0.198337,0.18529 -0.431441,0.32261 -0.700122,0.41111 v -0.49184 c 0.141216,-0.0462 0.294985,-0.13417 0.460866,-0.26302 0.166074,-0.12941 0.279946,-0.28037 0.34151,-0.45295 h 0.439534 z m 1.041016,-0.65391 0.525163,-0.0578 c 0.01234,0.10702 0.04637,0.18565 0.100138,0.23709 0.05448,0.0513 0.125526,0.0772 0.214011,0.0772 0.112126,0 0.206976,-0.0515 0.285041,-0.15409 0.07934,-0.10313 0.129405,-0.31626 0.150737,-0.64067 -0.135751,0.15902 -0.306427,0.23783 -0.510935,0.23783 -0.222279,0 -0.414658,-0.0864 -0.575426,-0.25773 -0.161138,-0.17172 -0.242553,-0.39493 -0.242553,-0.67016 0,-0.28684 0.08533,-0.51814 0.255617,-0.69409 0.170306,-0.17489 0.387666,-0.2632 0.650371,-0.2632 0.287334,0 0.522676,0.1116 0.70728,0.33355 0.183352,0.22178 0.275575,0.58588 0.275575,1.09431 0,0.51691 -0.09591,0.88994 -0.288075,1.11883 -0.19162,0.22843 -0.440785,0.34306 -0.748393,0.34306 -0.221221,0 -0.399655,-0.0587 -0.53574,-0.17645 -0.136457,-0.11813 -0.223901,-0.29374 -0.262899,-0.52772 z m 1.227224,-1.184 c 0,-0.17559 -0.04002,-0.31048 -0.120589,-0.40705 -0.08022,-0.097 -0.173832,-0.14439 -0.279259,-0.14439 -0.09996,0 -0.183158,0.039 -0.248777,0.11812 -0.06699,0.0793 -0.09996,0.20861 -0.09996,0.38909 0,0.18267 0.03632,0.31683 0.108424,0.40196 0.07158,0.0853 0.16202,0.128 0.269598,0.128 0.104546,0 0.192132,-0.0404 0.263534,-0.12306 0.07193,-0.0822 0.107014,-0.20363 0.107014,-0.36265 z m 2.094286,-1.00157 c 0.274464,0 0.488668,0.0978 0.642225,0.29373 0.184093,0.23094 0.276069,0.61511 0.276069,1.15142 0,0.53438 -0.09309,0.91942 -0.278008,1.15353 -0.152323,0.19304 -0.365822,0.28895 -0.640286,0.28895 -0.274711,0 -0.496496,-0.10543 -0.664986,-0.3175 -0.168719,-0.21073 -0.253008,-0.58831 -0.253008,-1.13096 0,-0.53245 0.09256,-0.91576 0.278007,-1.14916 0.1525,-0.19287 0.365823,-0.29001 0.639987,-0.29001 z m 0,0.45009 c -0.06576,0 -0.123587,0.0204 -0.175066,0.0621 -0.05166,0.0423 -0.09168,0.11741 -0.120237,0.22533 -0.03702,0.14016 -0.05571,0.3764 -0.05571,0.70765 0,0.33231 0.01763,0.55975 0.04989,0.68351 0.03403,0.12465 0.07581,0.20643 0.126407,0.24823 0.0513,0.0407 0.108954,0.0619 0.174714,0.0619 0.06541,0 0.124468,-0.0211 0.175066,-0.0635 0.05183,-0.0411 0.09203,-0.11601 0.12006,-0.2244 0.0372,-0.13875 0.05624,-0.37342 0.05624,-0.70573 0,-0.33125 -0.01763,-0.55975 -0.05007,-0.68408 -0.03332,-0.12358 -0.07581,-0.2066 -0.126407,-0.2489 -0.0513,-0.0416 -0.109482,-0.062 -0.174889,-0.062 z m 3.330642,1.88586 v 0.50353 h -1.900532 c 0.02151,-0.19019 0.08286,-0.37037 0.186014,-0.5409 0.102783,-0.17084 0.306251,-0.39668 0.609628,-0.67818 0.244369,-0.22725 0.393889,-0.38186 0.449424,-0.46278 0.07457,-0.11213 0.111598,-0.22272 0.111598,-0.33162 0,-0.12077 -0.03209,-0.21333 -0.09732,-0.27894 -0.06523,-0.0651 -0.154791,-0.097 -0.268998,-0.097 -0.113538,0 -0.202569,0.034 -0.27011,0.10137 -0.06664,0.0691 -0.105427,0.1818 -0.116005,0.34046 l -0.539672,-0.0545 c 0.03191,-0.29828 0.132754,-0.51236 0.302707,-0.6426 0.169777,-0.12958 0.382254,-0.19484 0.63662,-0.19484 0.279259,0 0.498241,0.0755 0.657405,0.22601 0.159904,0.15056 0.239256,0.33746 0.239256,0.56099 0,0.12746 -0.02274,0.24878 -0.06823,0.36353 -0.04584,0.11565 -0.118121,0.23571 -0.216496,0.36159 -0.06576,0.0839 -0.184586,0.20419 -0.354874,0.36105 -0.171364,0.1569 -0.279824,0.26115 -0.325292,0.3124 -0.04566,0.0515 -0.08321,0.10155 -0.111421,0.15038 z M 5.8185181,116.27306 c -0.3305625,1.85378 -1.0401524,3.85253 -2.0350133,5.7035 -0.073164,0.13734 -0.1249967,0.27131 -0.153381,0.40073 -0.074751,0.33516 -0.00705,0.65566 0.1831757,0.94691 0.199889,0.30799 0.5343653,0.58849 0.9771957,0.82631 0.3986143,0.21401 0.8826107,0.39264 1.4333366,0.52487 0.4740531,-0.67929 0.91676,-1.09786 1.2621141,-1.42468 0.5791631,-0.54794 0.8482145,-0.80307 0.4210044,-1.82157 -1.0903979,-1.9021 -1.8105481,-3.61662 -2.0884322,-5.15607 z m 49.4895079,0.22658 c 0.580785,-0.34419 1.229164,-0.38909 2.746966,0.0564 0.654214,-0.26184 1.344957,-1.10105 1.650697,-1.9393 0.112303,-0.30662 0.170482,-0.61076 0.153557,-0.87944 -0.01587,-0.24959 -0.09696,-0.46982 -0.263093,-0.63357 -0.261276,-0.25668 -0.73919,-0.39035 -1.507171,-0.31117 -2.440327,0.38381 -2.523241,1.57752 -2.59302,2.59545 -0.02838,0.40955 -0.05536,0.79498 -0.187954,1.11161 z m -3.003746,-3.6004 0.260165,0.27062 c 0.430384,0.44705 0.727115,0.33391 1.033859,0.0384 0.117768,-0.11372 0.237635,-0.24984 0.364394,-0.39245 0.434051,-0.49228 0.94213,-1.06714 1.731072,-1.24383 -0.421321,-0.45503 -0.915138,-0.32578 -1.414631,-0.0192 -0.269351,0.16467 -0.543885,0.3784 -0.811332,0.58714 v 6.1e-4 c -0.401964,0.3126 -0.791041,0.61578 -1.163527,0.75846 z m 10.078718,3.10339 c -0.366016,1.70994 -1.176661,3.58505 -2.231799,5.4265 -0.415592,0.98728 -0.272913,1.11508 0.184216,1.52166 0.314889,0.27981 0.75437,0.67102 1.266345,1.41922 0.403903,0.15831 0.851705,0.0971 1.262114,-0.1086 0.250522,-0.12606 0.488368,-0.30624 0.693599,-0.52398 0.205936,-0.21825 0.378887,-0.47406 0.500851,-0.75032 0.240508,-0.54302 0.285112,-1.16603 -0.0035,-1.74077 -0.874642,-1.74345 -1.421525,-3.56954 -1.672347,-5.24371 z m -39.339406,5.01875 c -0.0141,-0.0725 -0.02715,-0.14509 -0.03826,-0.21755 l -0.08797,0.0384 c -0.152146,0.0659 -0.31979,0.13857 -0.324392,0.32011 0.105428,0.0911 0.304999,0.12923 0.516894,0.15109 -0.02486,-0.0975 -0.04725,-0.19499 -0.06629,-0.29213 z m 22.358313,-0.71842 c -0.01058,0.15603 -0.02627,0.31117 -0.04848,0.46504 0.34412,-0.0486 0.682951,0.10649 1.034352,0.268 l 0.0751,0.0344 c -0.119884,-0.12712 -0.23589,-0.20985 -0.337209,-0.283 -0.282997,-0.20237 -0.481334,-0.34498 -0.471127,-0.8436 l -0.239768,-0.12006 c 0.0013,0.16079 -0.0035,0.32105 -0.01234,0.47921 z m -9.5745,12.2525 h 2.80934 l -0.54459,-7.0922 v -0.0106 l 5.64e-4,-0.0141 -6.17e-4,-5.6e-4 c -0.0053,-0.004 -0.01922,-0.007 -0.03879,-0.009 l -1.501001,0.001 c -0.03015,6.2e-4 -0.04972,0.004 -0.05589,0.0106 -0.0018,10e-4 -0.0035,0.0106 -0.0035,0.027 l -0.0012,0.007 -0.664122,7.08005 z m -6.110875,0 h 2.809834 l -0.664246,-7.07564 -1.94e-4,-0.002 c -0.0018,-0.019 -0.0053,-0.0307 -0.0088,-0.0345 h -6.17e-4 c -0.0071,-0.007 -0.02539,-0.0106 -0.04866,-0.0123 h -0.0035 l -1.489065,-0.001 c -0.02415,0.001 -0.03949,0.004 -0.04355,0.007 -0.0018,0.002 -0.0053,0.0159 -0.0071,0.0397 v 0 l -0.543709,7.07794 z m 12.782807,44.80805 1.149106,-0.63767 0.05818,-0.0326 0.06223,0.025 3.986319,1.59567 -1.163051,-2.09864 c -0.0677,-0.12218 -0.130109,-0.21743 -0.184039,-0.28386 -0.04319,-0.0531 -0.07581,-0.0837 -0.09696,-0.091 v -3.7e-4 c -0.04073,-0.0141 -0.08692,-0.0159 -0.136104,-0.009 -0.05624,0.009 -0.119531,0.0333 -0.189505,0.0719 v -3e-4 l -0.146681,0.0815 -0.123058,0.0682 -0.06788,-0.12394 -0.06382,-0.11653 -0.06682,-0.12165 0.121824,-0.0675 1.474026,-0.8175 0.122,-0.0679 0.06823,0.12218 0.06488,0.11671 0.06805,0.122 -0.122528,0.0684 -0.150208,0.0834 -6.17e-4,4.9e-4 c -0.07264,0.0399 -0.127288,0.0841 -0.163783,0.13064 -0.0312,0.0402 -0.05007,0.0839 -0.05501,0.13064 h 1.76e-4 c -0.0018,0.0261 0.0088,0.0709 0.03138,0.13293 0.02786,0.074 0.07369,0.16872 0.136985,0.28273 h -3.71e-4 l 1.978474,3.56943 0.0677,0.12235 -0.122,0.0684 -0.112656,0.0624 -0.05765,0.0319 -0.06188,-0.0242 -4.320426,-1.71826 1.256526,2.26657 c 0.06823,0.12306 0.129757,0.21861 0.183722,0.28559 0.04231,0.0529 0.07493,0.0841 0.09626,0.0917 0.04072,0.0123 0.08639,0.0159 0.13434,0.007 0.05642,-0.009 0.119884,-0.0335 0.189012,-0.0712 l 0.148973,-0.0825 0.121471,-0.0673 0.06823,0.12235 0.06417,0.1153 0.06805,0.12235 -0.122529,0.0682 -1.473515,0.81643 -0.122352,0.0675 -0.06805,-0.12218 -0.06417,-0.1153 -0.06823,-0.12252 0.122528,-0.0679 0.146153,-0.0807 6.17e-4,-6.1e-4 c 0.07281,-0.0402 0.129052,-0.0852 0.166251,-0.13276 0.03262,-0.0412 0.05201,-0.0867 0.05695,-0.13487 h 3.7e-4 c 0.0013,-0.0247 -0.0088,-0.0681 -0.03191,-0.1287 l -5.47e-4,-5.1e-4 c -0.02785,-0.0755 -0.07387,-0.17013 -0.135575,-0.28241 h 1.94e-4 l -1.607485,-2.90014 c -0.07934,-0.0289 -0.148269,-0.0516 -0.204191,-0.068 h -6.17e-4 c -0.06488,-0.019 -0.116182,-0.0316 -0.152323,-0.0356 -0.03561,-0.004 -0.07934,-0.004 -0.128699,-6.4e-4 -0.05201,0.004 -0.111422,0.0123 -0.177746,0.0259 v -3.2e-4 c -0.02715,0.007 -0.06118,0.0176 -0.09996,0.034 v 1.9e-4 c -0.04214,0.0182 -0.09326,0.0434 -0.151089,0.0753 l -0.122705,0.0677 -0.0677,-0.12323 -0.06382,-0.11565 -0.06735,-0.12218 0.122352,-0.0675 z m 10.436097,-0.29412 0.0744,0.10878 0.07934,0.11636 -0.11671,0.079 -1.722116,1.16148 -0.116182,0.0781 -0.07828,-0.11653 -0.07387,-0.10966 -0.07757,-0.11601 0.115653,-0.0781 0.14245,-0.0963 h 5.64e-4 c 0.06699,-0.045 0.117769,-0.0929 0.151618,-0.14333 h 5.12e-4 c 0.02926,-0.0428 0.04548,-0.0894 0.04866,-0.13804 3e-4,-0.024 -0.0141,-0.0682 -0.04284,-0.13029 -0.03596,-0.0779 -0.09291,-0.17418 -0.168542,-0.28715 l -1.94e-4,1.2e-4 -1.750659,-2.59457 v -5.7e-4 c -0.06382,-0.095 -0.121118,-0.1733 -0.171011,-0.23372 l -6.17e-4,-5.6e-4 c -0.04355,-0.0531 -0.0774,-0.088 -0.100491,-0.10367 -0.01234,-0.007 -0.0268,-0.0141 -0.04302,-0.018 v 3.7e-4 c -0.02133,-0.004 -0.04654,-0.007 -0.07493,-0.004 v -5.5e-4 c -0.04548,0.004 -0.09079,0.0141 -0.133283,0.0294 h -3.7e-4 c -0.04249,0.0141 -0.08286,0.0347 -0.119708,0.0596 l 3.7e-4,1.2e-4 -0.14245,0.0963 -0.115476,0.0779 -0.07863,-0.11583 -0.07457,-0.10984 -0.07934,-0.11618 0.116534,-0.0785 1.722116,-1.16161 0.116358,-0.0783 0.07845,0.11688 0.07369,0.11037 0.07757,0.116 -0.1153,0.0781 -0.145448,0.0982 c -0.06594,0.0444 -0.116358,0.0926 -0.149502,0.14157 -0.02962,0.0437 -0.04601,0.0901 -0.04919,0.13699 -0.0018,0.025 0.01234,0.0702 0.04125,0.13381 v 5.6e-4 c 0.03473,0.0758 0.09044,0.17154 0.167485,0.28524 l 1.750659,2.59425 v 5.1e-4 c 0.06505,0.0966 0.122175,0.17542 0.170305,0.23417 l 5.64e-4,-3.9e-4 c 0.0439,0.0534 0.07828,0.0889 0.101373,0.10454 l -3.7e-4,3.7e-4 c 0.01058,0.007 0.02627,0.0141 0.04284,0.0176 0.02027,0.004 0.04672,0.005 0.07704,0.002 h 3.17e-4 c 0.04637,-0.004 0.09115,-0.0123 0.133283,-0.0275 0.04231,-0.0141 0.08269,-0.0347 0.119002,-0.0587 l 0.144214,-0.0977 0.1153,-0.0785 0.07881,0.1153 z m 2.1635,-7.53309 0.08339,0.10349 0.07264,0.0903 -0.07546,0.0883 c -0.05095,0.0592 -0.09097,0.11513 -0.118473,0.16678 v 5e-4 c -0.02504,0.0467 -0.04196,0.0917 -0.04936,0.1331 l -6.17e-4,0.004 c -0.0088,0.0716 -0.0088,0.15391 0.0018,0.24504 0.01234,0.0975 0.03579,0.20488 0.07052,0.31963 l 5.64e-4,5.5e-4 1.281525,4.2673 0.02697,0.0899 -0.07369,0.0594 -0.103135,0.0827 -0.07123,0.0573 -0.08092,-0.0421 -4.037993,-2.10324 v -5.2e-4 c -0.09608,-0.0502 -0.179809,-0.0915 -0.24853,-0.1227 -0.05747,-0.0259 -0.09749,-0.042 -0.115653,-0.0455 l -0.0018,-4.9e-4 c -0.03508,-0.009 -0.07105,-0.0123 -0.106133,-0.0106 h -6.17e-4 c -0.03473,3.7e-4 -0.07122,0.005 -0.107895,0.0141 l -0.0035,0.001 c -0.0372,0.009 -0.07757,0.0234 -0.120061,0.0441 -0.04795,0.0234 -0.100491,0.0547 -0.155849,0.0924 l -0.106132,0.0721 -0.08075,-0.0996 -0.08374,-0.10278 -0.08886,-0.1086 0.109306,-0.0882 1.53783,-1.24482 0.108777,-0.0883 0.08815,0.1086 0.08357,0.10313 0.08075,0.0998 -0.0922,0.0892 c -0.07317,0.0707 -0.130109,0.13398 -0.169424,0.18701 l -5.47e-4,5.7e-4 c -0.03244,0.0437 -0.05166,0.0778 -0.05783,0.10049 h 1.76e-4 c -0.0035,0.0222 -0.0035,0.0434 3.88e-4,0.0612 v 6.3e-4 c 0.0035,0.0159 0.0141,0.0335 0.02662,0.0504 0.06188,0.0769 0.2068,0.17472 0.434068,0.29289 v 4.9e-4 l 2.449654,1.2771 -0.78048,-2.57872 v -6.2e-4 c -0.04125,-0.13822 -0.08057,-0.2507 -0.116358,-0.33641 -0.03367,-0.0804 -0.06365,-0.13752 -0.08921,-0.1689 -0.0071,-0.009 -0.01781,-0.0159 -0.03068,-0.0217 l -5.65e-4,-5.5e-4 c -0.01851,-0.009 -0.04372,-0.0141 -0.07352,-0.0141 -0.02874,-0.001 -0.06558,0.005 -0.108424,0.0194 -0.04831,0.0159 -0.104899,0.0425 -0.168367,0.0793 l -0.0035,0.002 -0.05448,0.03 -0.102783,0.0566 -0.07387,-0.092 -0.08357,-0.10384 -0.08762,-0.10878 0.1086,-0.0874 1.161412,-0.94009 0.108777,-0.0885 0.0885,0.10948 z m 1.846055,-1.13958 1.305854,0.98411 0.555698,-0.73875 v -5e-4 c 0.07687,-0.1019 0.132754,-0.19132 0.167309,-0.26762 0.02874,-0.0633 0.04161,-0.11477 0.03843,-0.15268 v -0.001 c -0.0035,-0.0587 -0.02891,-0.12112 -0.07158,-0.18651 -0.04813,-0.074 -0.120942,-0.15144 -0.21632,-0.23113 l -0.102254,-0.086 0.08057,-0.10613 0.07916,-0.10455 0.08427,-0.11124 0.111951,0.0841 1.346579,1.01459 0.111246,0.0837 -0.08339,0.11213 -0.07881,0.10543 -0.07352,0.0982 -0.106837,-0.0598 c -0.100668,-0.0561 -0.18441,-0.0993 -0.249271,-0.12905 l -3.7e-4,5.6e-4 c -0.06082,-0.0275 -0.104193,-0.0439 -0.129228,-0.0488 -0.02909,-0.005 -0.06012,-0.005 -0.09062,6.1e-4 h -6.17e-4 c -0.03456,0.005 -0.06999,0.0182 -0.104546,0.036 l -4.94e-4,5.6e-4 c -0.03596,0.0178 -0.07651,0.0487 -0.120589,0.0913 -0.04866,0.0471 -0.102078,0.10877 -0.15867,0.18372 l -0.556579,0.73799 1.164285,0.8769 -3.17e-4,3.7e-4 c 0.07916,0.0594 0.146505,0.10701 0.201511,0.14245 l 1.94e-4,5.6e-4 c 0.04125,0.0268 0.06805,0.0429 0.08057,0.0471 0.0071,0.001 0.01587,0.002 0.02556,6.1e-4 v 0 c 0.0088,-6.1e-4 0.02133,-0.004 0.0342,-0.009 0.0088,-0.005 0.0231,-0.0159 0.03984,-0.0328 l -5.64e-4,-6.2e-4 c 0.03032,-0.0305 0.06347,-0.0686 0.09661,-0.11283 v -5e-4 l 0.494134,-0.6564 c 0.07951,-0.10489 0.144919,-0.19921 0.194494,-0.27994 0.04707,-0.0774 0.08039,-0.14192 0.09802,-0.19236 l 0.0012,-0.004 c 0.01763,-0.0478 0.02944,-0.10102 0.03403,-0.15885 0.0053,-0.061 0.0035,-0.1257 -0.0053,-0.19343 h -3.17e-4 c -0.0141,-0.0934 -0.04073,-0.20063 -0.08163,-0.3203 -0.04161,-0.12271 -0.09802,-0.25761 -0.167133,-0.40377 l -0.03667,-0.0765 0.05201,-0.0679 0.08621,-0.11336 0.117945,-0.15567 0.109658,0.16184 0.718476,1.06397 0.05606,0.0825 -0.06047,0.0804 -2.246961,2.98137 -0.08445,0.11177 -0.11195,-0.0846 -0.104546,-0.0792 -0.111245,-0.0843 0.08374,-0.1116 0.103136,-0.13716 v -5.6e-4 c 0.0268,-0.0358 0.04936,-0.0748 0.06611,-0.1153 0.01763,-0.04 0.02927,-0.0841 0.03596,-0.13011 l 0.0013,-0.005 c 0.0053,-0.0243 0.0053,-0.0474 0.0012,-0.0675 -0.0035,-0.019 -0.01234,-0.039 -0.02362,-0.0568 -0.01587,-0.0231 -0.0476,-0.0575 -0.09696,-0.1012 h -5.46e-4 c -0.05694,-0.0513 -0.130286,-0.11107 -0.218612,-0.1772 h -5.12e-4 l -2.513526,-1.89413 c -0.11724,-0.0889 -0.214769,-0.15374 -0.290525,-0.19361 h -6.17e-4 c -0.05836,-0.0307 -0.09979,-0.0464 -0.122,-0.0464 -0.03914,0.004 -0.08022,0.0196 -0.121823,0.048 -0.04936,0.034 -0.09961,0.085 -0.150031,0.15197 l -0.103312,0.13734 -0.0848,0.1123 -0.111421,-0.0844 -0.105604,-0.08 -0.111774,-0.0846 0.08462,-0.11177 2.246961,-2.98118 0.07969,-0.10631 0.110187,0.0749 0.879437,0.5954 0.122353,0.0829 -0.08886,0.11741 -0.08462,0.11178 -0.06946,0.092 -0.103664,-0.0504 c -0.111951,-0.0541 -0.208916,-0.0963 -0.289643,-0.12482 v -3.7e-4 c -0.0744,-0.0259 -0.13346,-0.0412 -0.175948,-0.0439 -0.04302,-0.004 -0.08568,3.7e-4 -0.127112,0.0106 -0.04037,0.0106 -0.08286,0.0273 -0.125349,0.0511 -0.03262,0.0212 -0.0751,0.0594 -0.125173,0.11266 l -1.94e-4,-2e-4 c -0.05201,0.0552 -0.11389,0.13064 -0.184393,0.2239 l -3.87e-4,-1.7e-4 -0.714862,0.94976 z m 7.809932,-5.80843 -0.37834,1.23693 -0.0208,0.0689 -0.06805,0.0233 -2.574862,0.88217 -0.02398,0.0874 -3.7e-4,0.002 -0.0372,0.12658 -0.0013,0.004 -0.02116,0.0658 1.207073,0.36919 c 0.136104,0.0414 0.249147,0.0679 0.33728,0.0786 0.06964,0.009 0.115476,0.007 0.135927,-0.001 l 0.0012,-6.1e-4 c 0.04196,-0.0187 0.07881,-0.0478 0.109306,-0.0866 v -6.2e-4 c 0.03438,-0.0437 0.06276,-0.10049 0.08357,-0.16871 l -5.64e-4,-3.7e-4 0.05501,-0.18193 0.04073,-0.13504 0.13487,0.0418 0.126054,0.039 0.133812,0.0414 -0.0409,0.13346 -0.606472,1.98394 -0.04108,0.13416 -0.133635,-0.0409 -0.126231,-0.0384 -0.134517,-0.0413 0.04125,-0.13363 0.05342,-0.17366 c 0.0238,-0.0786 0.03209,-0.14826 0.02451,-0.20785 -0.0071,-0.0529 -0.0275,-0.0998 -0.061,-0.14016 l -0.0013,-0.002 c -0.0141,-0.0178 -0.05254,-0.0414 -0.112832,-0.0698 -0.07281,-0.034 -0.173302,-0.071 -0.299516,-0.10948 l -2.992886,-0.91512 c -0.135927,-0.0414 -0.248706,-0.0682 -0.336715,-0.079 -0.06929,-0.009 -0.114948,-0.007 -0.135399,0.002 h -4.93e-4 c -0.04214,0.019 -0.07986,0.0492 -0.110541,0.0896 -0.03491,0.0448 -0.06364,0.10349 -0.08533,0.17383 l -0.05271,0.17401 -0.0409,0.13416 -0.133812,-0.0409 -0.127465,-0.039 -0.133988,-0.0413 0.04125,-0.13345 0.515148,-1.68704 c 0.07634,-0.25052 0.152852,-0.46596 0.227075,-0.64459 0.07704,-0.18384 0.155144,-0.33336 0.232187,-0.4478 l -1.94e-4,-1.2e-4 c 0.07845,-0.11636 0.171716,-0.21879 0.278748,-0.3068 v -4.9e-4 c 0.106132,-0.0867 0.22621,-0.15973 0.359123,-0.21706 h 0.0012 c 0.137161,-0.0578 0.277708,-0.0903 0.421374,-0.0964 0.14298,-0.007 0.288956,0.0141 0.437224,0.0589 0.158142,0.0481 0.299358,0.12006 0.421869,0.21401 0.123233,0.0945 0.228696,0.21228 0.313655,0.35172 v 4.9e-4 c 0.0848,0.14033 0.144919,0.30258 0.177569,0.48593 h -5.64e-4 c 0.02151,0.11971 0.03191,0.24859 0.03138,0.38554 l 1.428559,-0.48412 h 6.17e-4 c 0.179808,-0.0603 0.333048,-0.1213 0.457322,-0.18142 0.119355,-0.0576 0.212459,-0.11441 0.276826,-0.16942 0.06347,-0.0552 0.124292,-0.12464 0.180496,-0.20717 l 1.76e-4,3.7e-4 c 0.05783,-0.0851 0.111774,-0.18584 0.160962,-0.29915 l 0.04989,-0.11494 0.119179,0.0363 0.126054,0.0386 0.133988,0.0407 -0.04072,0.13399 z m -3.612775,2.34766 0.02116,-0.0615 h 3.88e-4 c 0.06276,-0.20643 0.09573,-0.39364 0.09837,-0.55938 0.0018,-0.16043 -0.02274,-0.3034 -0.07599,-0.42629 v -5.5e-4 c -0.05254,-0.12147 -0.124116,-0.22304 -0.213641,-0.30271 v -4.9e-4 c -0.08903,-0.0795 -0.198337,-0.13928 -0.326719,-0.17826 -0.127465,-0.039 -0.24927,-0.0543 -0.363707,-0.0464 -0.112127,0.007 -0.219123,0.0386 -0.318063,0.0915 v 5.2e-4 c -0.100491,0.0532 -0.185961,0.12552 -0.255441,0.21524 -0.07158,0.0926 -0.127993,0.20537 -0.16819,0.3376 v 3.7e-4 c -0.01781,0.0587 -0.03473,0.1331 -0.0506,0.22141 -0.01058,0.0598 -0.0201,0.12465 -0.02944,0.19448 z m -1.50294,-6.52347 h 1.675714 0.140511 v 0.14016 0.13187 0.12218 l -0.122,0.0159 c -0.151618,0.0204 -0.289132,0.0495 -0.411837,0.0862 -0.117944,0.0354 -0.220181,0.0781 -0.304646,0.12694 -0.08445,0.0487 -0.160257,0.10825 -0.226193,0.1772 -0.06629,0.0695 -0.12482,0.15091 -0.174361,0.24238 H 60.2162 c -0.05042,0.092 -0.08886,0.1865 -0.114242,0.28172 -0.02415,0.0924 -0.03702,0.18865 -0.03702,0.28686 0,0.10666 0.01587,0.2038 0.04795,0.29019 v 5e-4 c 0.03138,0.085 0.07863,0.16166 0.14104,0.22832 0.06312,0.068 0.130109,0.11865 0.199078,0.15091 h 4.93e-4 c 0.06611,0.0309 0.137867,0.0467 0.213711,0.0467 0.05642,0 0.110893,-0.0106 0.162196,-0.0294 0.05218,-0.0199 0.103312,-0.0504 0.151089,-0.091 l 0.0018,-6.2e-4 c 0.07881,-0.0654 0.174537,-0.18055 0.285976,-0.34449 0.114948,-0.16977 0.246979,-0.39283 0.39419,-0.66729 h 1.94e-4 c 0.126054,-0.23522 0.234831,-0.42846 0.324779,-0.57742 0.09485,-0.15726 0.177676,-0.28081 0.247349,-0.36919 0.07105,-0.0908 0.14915,-0.17207 0.232469,-0.24187 0.08427,-0.0702 0.175772,-0.13046 0.272983,-0.1798 0.09749,-0.0488 0.198338,-0.0864 0.301456,-0.11143 0.104369,-0.0252 0.209779,-0.0381 0.315577,-0.0381 0.203256,0 0.393501,0.04 0.569766,0.11954 0.174361,0.0785 0.335534,0.19639 0.48114,0.35226 0.145448,0.15603 0.255494,0.33492 0.328624,0.53611 0.07228,0.19866 0.108248,0.41852 0.108248,0.65815 0,0.0733 -0.0035,0.14597 -0.0088,0.21663 -0.0071,0.0689 -0.0141,0.13717 -0.02627,0.20312 -0.0071,0.0407 -0.02133,0.10296 -0.04425,0.18529 -0.02116,0.0749 -0.05166,0.17348 -0.08991,0.2928 v 0.001 c -0.03826,0.11724 -0.06629,0.20948 -0.08304,0.27397 -0.01587,0.0608 -0.02327,0.10278 -0.02327,0.12394 0,0.0123 0.0012,0.0227 0.0035,0.03 h -3.7e-4 l 0.0071,0.0106 c 0.0035,0.002 0.0141,0.007 0.02997,0.0123 0.02944,0.0106 0.06805,0.019 0.1153,0.0259 l 0.12006,0.0182 v 0.12058 0.13223 0.14033 H 64.704657 63.043365 62.90303 v -0.14033 -0.13223 -0.11741 l 0.116358,-0.0208 c 0.167661,-0.0296 0.313779,-0.0647 0.436484,-0.10437 0.119002,-0.0383 0.217748,-0.0811 0.295866,-0.12835 0.0744,-0.0455 0.143508,-0.10331 0.205355,-0.17242 0.06364,-0.0714 0.122175,-0.15638 0.174184,-0.25331 h -5.64e-4 c 0.05148,-0.0977 0.09062,-0.19996 0.115653,-0.30588 0.02539,-0.10525 0.03843,-0.21793 0.03843,-0.33728 0,-0.13416 -0.01763,-0.25301 -0.0513,-0.35526 -0.03279,-0.0985 -0.08216,-0.18439 -0.147387,-0.25648 l 3.7e-4,-2e-4 c -0.06541,-0.0714 -0.136456,-0.12517 -0.212653,-0.16061 -0.07369,-0.034 -0.154439,-0.0513 -0.241496,-0.0513 -0.04742,0 -0.09555,0.007 -0.142803,0.0194 -0.05007,0.0141 -0.101372,0.0342 -0.152499,0.0612 -0.0506,0.0275 -0.100491,0.0635 -0.147563,0.10613 -0.04883,0.0444 -0.09749,0.0987 -0.145448,0.16149 l -6.17e-4,0.001 c -0.03226,0.0411 -0.08515,0.12394 -0.157965,0.24523 -0.07175,0.12024 -0.167485,0.28629 -0.28647,0.49787 h -1.76e-4 c -0.116358,0.20766 -0.220921,0.38661 -0.313655,0.53401 -0.09573,0.15233 -0.180179,0.2754 -0.252444,0.36775 l -3.17e-4,6.3e-4 c -0.07422,0.0931 -0.152853,0.1765 -0.236965,0.24915 l 3.17e-4,3e-4 c -0.08321,0.0725 -0.17154,0.13434 -0.263322,0.1848 l -6.34e-4,3.7e-4 c -0.09238,0.0502 -0.191991,0.0888 -0.296167,0.11424 -0.104017,0.0256 -0.211895,0.0386 -0.321553,0.0386 -0.192731,0 -0.373792,-0.0377 -0.541964,-0.11266 -0.166427,-0.074 -0.31942,-0.18546 -0.457499,-0.332 -0.138748,-0.14739 -0.243611,-0.31539 -0.312773,-0.50191 v -6.2e-4 c -0.06805,-0.18478 -0.102783,-0.38927 -0.102783,-0.61125 0,-0.13822 0.01763,-0.28206 0.05113,-0.43033 0.0335,-0.1451 0.08374,-0.29393 0.150031,-0.44444 l 6.17e-4,-10e-4 c 0.02697,-0.0601 0.04725,-0.11177 0.06029,-0.15338 l 4.93e-4,-4.9e-4 c 0.01058,-0.0328 0.01587,-0.0568 0.01587,-0.0703 0,-0.0159 -0.0018,-0.0282 -0.0053,-0.0372 -0.0018,-0.007 -0.0071,-0.0141 -0.01234,-0.019 -0.0071,-0.005 -0.01957,-0.0123 -0.03685,-0.0205 v -1.7e-4 c -0.02821,-0.0106 -0.06611,-0.0231 -0.113714,-0.0335 l -0.111069,-0.024 v -0.113 -0.13188 -0.14015 h 0.140511 z m 4.794655,-3.59865 h 0.131872 0.140335 v 0.14033 2.07643 0.14033 h -0.140335 -0.131872 -0.140335 v -0.14033 -0.17207 c 0,-0.0818 -0.01058,-0.15091 -0.03315,-0.20574 h -3.7e-4 c -0.01992,-0.049 -0.04919,-0.0885 -0.08639,-0.11777 -0.01992,-0.0159 -0.06435,-0.0279 -0.131696,-0.0383 h -6.35e-4 c -0.08198,-0.0123 -0.193365,-0.0196 -0.332854,-0.0196 h -3.129836 c -0.120589,0 -0.218418,0.004 -0.290878,0.0106 -0.06717,0.007 -0.115652,0.0159 -0.143155,0.0263 v -3.9e-4 c -0.01234,0.005 -0.02556,0.0141 -0.03808,0.0261 l -0.0013,0.001 c -0.0141,0.0141 -0.02997,0.0342 -0.0446,0.0596 l -5.64e-4,-1.9e-4 c -0.02239,0.0418 -0.03896,0.0837 -0.04936,0.12482 v 4.9e-4 c -0.01058,0.0416 -0.01587,0.0862 -0.01587,0.13293 v 0.17207 0.14034 h -0.140511 -0.132754 -0.140335 v -0.14034 -2.07642 -0.14034 h 0.140335 0.132754 0.140511 v 0.14034 0.17577 c 0,0.0806 0.01058,0.14862 0.0335,0.20306 0.01939,0.0479 0.04919,0.088 0.08692,0.11742 v 5.4e-4 c 0.01992,0.0159 0.06364,0.0293 0.130815,0.0397 h 6.17e-4 c 0.08233,0.0141 0.193242,0.0208 0.332184,0.0208 h 3.129836 c 0.121295,0 0.218983,-0.004 0.291618,-0.0106 h 5.12e-4 c 0.06576,-0.007 0.113537,-0.0159 0.141392,-0.0261 l 3e-4,5.7e-4 c 0.01234,-0.004 0.02468,-0.0141 0.03667,-0.0256 h 5.47e-4 c 0.01587,-0.0141 0.03032,-0.0356 0.04548,-0.0628 h 3.7e-4 c 0.02257,-0.0409 0.0402,-0.0837 0.05166,-0.12623 h 3.71e-4 c 0.01058,-0.0411 0.01587,-0.0851 0.01587,-0.13064 v -0.17577 -0.14033 h 0.140334 z m -0.260219,1.72123 -6.17e-4,-5.6e-4 m 0.0012,0.001 -1.76e-4,-3.7e-4 m -4.436608,-6.24 1.136236,-0.0536 0.146682,-0.007 v 0.14704 0.13645 0.12289 l -0.123058,0.0159 c -0.0922,0.0123 -0.172774,0.0265 -0.240455,0.0434 h -5.47e-4 c -0.05976,0.0141 -0.106132,0.031 -0.1391,0.0488 l -0.0012,5.1e-4 c -0.05606,0.0296 -0.105428,0.0651 -0.146506,0.10454 -0.04037,0.039 -0.0744,0.0832 -0.100314,0.13117 -0.02645,0.0495 -0.04654,0.10825 -0.0603,0.17524 -0.0141,0.0693 -0.02116,0.15039 -0.02116,0.24275 v 0.54234 h 3.561454 c 0.140687,0 0.253519,-0.007 0.337033,-0.0219 0.06558,-0.0106 0.108424,-0.0248 0.127817,-0.039 0.0312,-0.0287 0.05589,-0.0675 0.07228,-0.11336 l 4.94e-4,-0.001 c 0.01939,-0.0532 0.02891,-0.12006 0.02891,-0.19846 v -0.16819 -0.14051 h 0.140511 0.131696 0.140511 v 0.14051 2.05477 0.14034 h -0.140511 -0.131696 -0.140511 v -0.14034 -0.17224 c 0,-0.0834 -0.01234,-0.15303 -0.03455,-0.20698 h -1.23e-4 c -0.02063,-0.0476 -0.05077,-0.0857 -0.08991,-0.11248 l -0.0013,-3.1e-4 c -0.01975,-0.0141 -0.06312,-0.0259 -0.12817,-0.0356 -0.07916,-0.0123 -0.184022,-0.0185 -0.312703,-0.0185 h -3.561454 v 0.44241 c 0,0.11019 0.0035,0.20181 0.01234,0.27501 v 3.2e-4 c 0.0071,0.068 0.01763,0.12129 0.02944,0.15867 h 3.7e-4 c 0.01587,0.0471 0.04249,0.091 0.0751,0.13134 0.03456,0.0421 0.07951,0.082 0.132754,0.11847 0.05236,0.0356 0.115829,0.0649 0.188641,0.0867 v -1.9e-4 c 0.07704,0.0233 0.166427,0.039 0.265314,0.0469 l 0.129404,0.0106 v 0.12976 0.1354 0.14721 l -0.146682,-0.007 -1.136236,-0.0573 -0.133988,-0.007 v -0.13293 -3.95446 -0.13346 l 0.133988,-0.007 z m -0.128522,-3.90943 v -1.69003 -0.14051 h 0.140511 0.132754 0.140335 v 0.14051 0.0927 c 0,0.0176 0.0053,0.0421 0.0141,0.074 h -3.18e-4 c 0.01234,0.0386 0.03015,0.0853 0.05448,0.13874 h -1.24e-4 c 0.0238,0.0511 0.05342,0.1012 0.08692,0.1481 0.03297,0.0455 0.07299,0.0906 0.118474,0.13381 0.04601,0.0441 0.10913,0.095 0.187759,0.15179 l -1.76e-4,3.7e-4 c 0.07934,0.0571 0.176811,0.1213 0.29019,0.19106 l 0.0018,6.2e-4 1.803902,1.14612 h 1.174669 c 0.140864,0 0.254066,-0.007 0.337967,-0.0224 h 5.46e-4 c 0.06594,-0.0123 0.108072,-0.0256 0.124645,-0.0409 h 5.64e-4 c 0.03173,-0.0286 0.05694,-0.0686 0.07387,-0.11724 0.01939,-0.0555 0.02927,-0.12482 0.02927,-0.20697 v -0.15744 -0.14034 h 0.140511 0.131873 0.140511 v 0.14034 2.05691 0.14051 H 64.59343 64.461557 64.321046 v -0.14051 -0.17048 c 0,-0.0841 -0.01234,-0.15444 -0.03508,-0.2086 -0.02027,-0.0478 -0.05078,-0.086 -0.09009,-0.11283 -0.01975,-0.0141 -0.06276,-0.0256 -0.12817,-0.0353 -0.07881,-0.0123 -0.184233,-0.0176 -0.313461,-0.0176 h -1.105578 l -1.993582,1.30633 c -0.119532,0.0783 -0.214011,0.14245 -0.280688,0.19026 l -4.93e-4,3.7e-4 c -0.07228,0.0518 -0.121647,0.0904 -0.146329,0.11336 v 5.6e-4 c -0.0208,0.0194 -0.04654,0.0538 -0.07563,0.1005 -0.03226,0.0525 -0.06858,0.12147 -0.107719,0.20454 l -0.0035,0.005 c -0.0035,0.009 -0.0088,0.025 -0.01234,0.0462 -0.0035,0.0252 -0.0071,0.0577 -0.0071,0.0959 v 0.14015 h -0.140335 -0.132754 -0.140511 v -0.14015 -2.07121 -0.14051 h 0.140511 0.132754 0.140335 v 0.14051 0.10684 c 0,0.0453 0.0053,0.0882 0.01587,0.12711 h -3.7e-4 c 0.0088,0.0379 0.02451,0.076 0.04584,0.11301 l 4.93e-4,0.001 c 0.0141,0.0245 0.02944,0.0428 0.04654,0.0529 l 5.12e-4,5.6e-4 c 0.01587,0.009 0.03896,0.0141 0.06629,0.0141 0.02274,0 0.06382,-0.0141 0.121824,-0.0409 v -2e-4 c 0.07052,-0.0331 0.159022,-0.0845 0.264767,-0.15391 h 6.17e-4 l 1.378296,-0.89194 -1.309186,-0.83266 v -6.2e-4 c -0.105957,-0.0677 -0.197668,-0.11812 -0.273107,-0.15073 -0.06417,-0.0279 -0.1153,-0.0418 -0.15197,-0.0418 -0.0208,0 -0.04002,0.002 -0.05589,0.007 -0.01587,0.004 -0.03138,0.0123 -0.04549,0.0217 l -6.17e-4,0.001 c -0.0141,0.009 -0.02715,0.0208 -0.03843,0.0346 -0.01234,0.0159 -0.02468,0.0333 -0.03403,0.0525 l 3.17e-4,1.8e-4 c -0.0088,0.0213 -0.01763,0.0499 -0.02274,0.0843 h 6.34e-4 c -0.0071,0.0405 -0.0088,0.0903 -0.0088,0.1488 v 0.14016 H 59.882324 59.74957 59.609059 v -0.14016 z M 8.7245239,144.00694 v 1.31467 0.0661 l -0.052008,0.0427 -3.3284206,2.71275 h 2.3998485 c 0.1419215,0 0.2543833,-0.007 0.3369093,-0.0226 0.066994,-0.0123 0.1094823,-0.0259 0.1264071,-0.0413 h 5.465e-4 c 0.03191,-0.0286 0.057297,-0.0675 0.074222,-0.11424 0.01904,-0.0534 0.028737,-0.12024 0.028737,-0.20009 v -0.16784 -0.14033 H 8.4512768 8.584207 8.7245418 v 0.14033 1.68579 0.14051 H 8.5842067 8.4512765 8.3107654 v -0.14051 -0.17154 c 0,-0.0841 -0.012341,-0.15356 -0.034555,-0.20784 -0.020451,-0.0478 -0.050774,-0.0857 -0.089737,-0.11266 v 0 c -0.020451,-0.0141 -0.064173,-0.0257 -0.1288753,-0.0351 -0.078806,-0.0106 -0.1840219,-0.0176 -0.3135848,-0.0176 H 3.6617344 3.5212233 v -0.14052 -0.12869 -0.0667 l 0.051656,-0.0421 3.5965377,-2.94462 H 4.5788118 c -0.1412163,0 -0.2545596,0.007 -0.3382845,0.0219 h -6.17e-4 c -0.066289,0.0106 -0.1091297,0.025 -0.1262308,0.0399 l -3.703e-4,-3.2e-4 c -0.031381,0.0293 -0.055534,0.0674 -0.072459,0.11371 l 5.113e-4,3.7e-4 c -0.019393,0.0541 -0.029266,0.12112 -0.029266,0.19903 v 0.17031 0.14051 H 3.8719369 3.7398882 3.5993771 v -0.14051 -1.68473 -0.14033 h 0.1405111 0.1320487 0.1401585 v 0.14033 0.16678 c 0,0.0852 0.012341,0.15603 0.034731,0.21066 h 1.939e-4 c 0.020451,0.0483 0.051127,0.0867 0.090618,0.11442 0.019393,0.0141 0.06241,0.0257 0.1278175,0.0354 0.079159,0.0106 0.1844098,0.0176 0.3134614,0.0176 h 3.3169082 c 0.062234,-0.0538 0.1149476,-0.10226 0.1572596,-0.14369 0.049893,-0.0492 0.085682,-0.0887 0.1068378,-0.11776 l -3.702e-4,-3.7e-4 c 0.02098,-0.0282 0.041607,-0.0661 0.062058,-0.11019 h -1.939e-4 c 0.021509,-0.0478 0.043017,-0.10402 0.063292,-0.16625 l 6.17e-4,-0.002 3.703e-4,-6.1e-4 c 0.00705,-0.0268 0.014104,-0.0619 0.018159,-0.10367 v -3.1e-4 c 0.00353,-0.0448 0.00705,-0.10102 0.00705,-0.1682 v -0.14015 h 0.1405111 0.1329302 0.1403348 v 0.14015 z m -3.4877605,8.36245 v -1.6902 l -0.6785435,-0.2909 -0.00123,-4.9e-4 c -0.087092,-0.0379 -0.163959,-0.0665 -0.2285024,-0.0852 -0.056769,-0.0159 -0.1031355,-0.0247 -0.1373377,-0.0247 -0.014104,0 -0.026445,0.004 -0.037199,0.009 -0.015867,0.009 -0.031381,0.0224 -0.047425,0.0421 l 1.939e-4,3.7e-4 c -0.015867,0.0194 -0.030324,0.057 -0.043194,0.11178 h 1.234e-4 c -0.015867,0.0684 -0.028913,0.15814 -0.036318,0.2667 l -0.00882,0.13064 H 3.8880507 3.7561783 3.6156672 v -0.14051 -1.52538 -0.14051 h 0.1405111 0.1318724 0.1167106 l 0.02098,0.11565 c 0.015867,0.0915 0.03526,0.16819 0.056769,0.22796 0.015867,0.0462 0.03191,0.0774 0.046543,0.0926 l 0.00176,0.002 c 0.046367,0.0504 0.1223522,0.10595 0.2261929,0.16572 h 6.347e-4 c 0.1123031,0.0649 0.2533784,0.13311 0.4206694,0.20394 h 6.347e-4 l 3.9859844,1.7047 0.085858,0.0363 v 0.0927 0.12429 0.0929 l -0.086916,0.0365 -4.0288429,1.6859 c -0.1560255,0.0651 -0.2838606,0.12711 -0.3829236,0.18498 -0.0915,0.0538 -0.1572596,0.10313 -0.1953051,0.14668 -0.036142,0.0414 -0.065584,0.0938 -0.08674,0.15444 h -3.703e-4 c -0.022214,0.0645 -0.036847,0.14068 -0.041783,0.2255 l -0.00882,0.13223 H 3.8873984 3.755526 3.6150149 v -0.14034 -1.91167 -0.14051 H 3.755526 3.8873984 4.0205049 l 0.00705,0.13398 c 0.00353,0.0867 0.014104,0.15867 0.02715,0.2147 h 1.763e-4 c 0.012341,0.0453 0.024858,0.0774 0.038962,0.0949 l 0.00176,0.001 c 0.014104,0.0185 0.029442,0.0317 0.04337,0.039 0.012341,0.007 0.028384,0.0106 0.046014,0.0106 0.039668,0 0.094849,-0.0106 0.1634301,-0.0303 0.078454,-0.0227 0.1713636,-0.0573 0.2783248,-0.10208 v -6.3e-4 l 0.610192,-0.25618 z m 0.5453311,-0.21806 1.4579658,-0.61249 -1.4579658,-0.62761 z m 2.9739695,2.61031 v 1.3143 0.0659 l -0.052185,0.0427 -3.3281738,2.71255 h 2.3996017 c 0.1420978,0 0.2547535,-0.007 0.3372795,-0.0224 l 5.113e-4,-5.6e-4 c 0.066994,-0.0123 0.109306,-0.0259 0.1257019,-0.0407 h 6.17e-4 c 0.031734,-0.0282 0.056592,-0.0663 0.073693,-0.11371 0.019217,-0.0545 0.029089,-0.12165 0.029089,-0.20045 v -0.16802 -0.14051 H 8.4827108 8.615641 8.7559758 v 0.14051 1.6858 0.14051 H 8.615641 8.4827108 8.3421997 v -0.14051 -0.17154 c 0,-0.0841 -0.012341,-0.15356 -0.034731,-0.20786 -0.020274,-0.0478 -0.050951,-0.0855 -0.08956,-0.11248 -0.020274,-0.0141 -0.063997,-0.0254 -0.1288753,-0.0349 -0.078982,-0.0123 -0.1838985,-0.0178 -0.3138316,-0.0178 H 3.6933626 3.5528515 v -0.14033 -0.12923 -0.0665 l 0.051656,-0.0421 3.5961498,-2.94423 H 4.6103166 c -0.1415689,0 -0.2551238,0.007 -0.3390249,0.0215 -0.06717,0.0106 -0.1098349,0.0252 -0.126936,0.04 -0.030852,0.0289 -0.054829,0.0663 -0.071225,0.11301 l -6.171e-4,10e-4 c -0.019393,0.0534 -0.028913,0.12023 -0.028913,0.19834 v 0.17048 0.14051 H 3.9030891 3.7712167 3.6308819 v -0.14051 -1.68472 -0.14052 h 0.1403348 0.1318724 0.1405111 v 0.14052 0.1666 c 0,0.085 0.012341,0.15567 0.035084,0.21064 l 6.171e-4,6.4e-4 c 0.019922,0.048 0.050422,0.0864 0.090089,0.11406 l -3.174e-4,3.7e-4 c 0.019746,0.0123 0.062763,0.0249 0.1283464,0.0347 0.078982,0.0106 0.1838986,0.0178 0.3129678,0.0178 h 3.3175781 c 0.059589,-0.052 0.1123031,-0.10014 0.1562018,-0.14368 0.049893,-0.0487 0.086211,-0.0887 0.1068378,-0.1176 0.043193,-0.0598 0.085682,-0.15285 0.1257019,-0.27783 h -1.234e-4 c 0.00882,-0.0272 0.014104,-0.0635 0.01904,-0.10648 h 3.174e-4 c 0.00353,-0.0443 0.00705,-0.10014 0.00705,-0.16749 v -0.14051 H 8.4835018 8.616432 8.7567668 v 0.14051 z m -0.468958,5.65107 0.1306383,-0.0208 0.1382192,-0.022 0.022037,0.13839 0.3249561,2.05018 0.021685,0.13804 -0.080569,0.0123 0.6221451,1.80782 0.045485,0.13258 -0.074046,0.0256 0.5295876,0.70275 0.039844,0.0531 -0.015867,0.0647 -1.0255371,4.17034 1.9163448,-1.44404 c 0.112127,-0.0843 0.197844,-0.15902 0.255812,-0.22159 0.04619,-0.0501 0.07193,-0.0869 0.07616,-0.10931 l 4.94e-4,-6.1e-4 c 0.0088,-0.0411 0.0053,-0.0871 -0.0088,-0.13523 h -1.94e-4 c -0.01763,-0.0557 -0.04989,-0.11547 -0.09644,-0.17688 l -5.47e-4,-6.2e-4 -0.10102,-0.13416 -0.0841,-0.11195 0.111422,-0.0837 0.105956,-0.0797 0.111951,-0.0846 0.08427,0.11159 1.014765,1.34658 0.08427,0.11195 -0.111598,0.0845 -0.106133,0.0799 -0.11195,0.0843 -0.08427,-0.11195 -0.102959,-0.13752 c -0.04901,-0.0651 -0.100667,-0.11336 -0.153205,-0.14351 -0.04531,-0.0257 -0.0922,-0.0377 -0.138924,-0.0363 -0.02504,6.1e-4 -0.06717,0.0178 -0.125526,0.0492 -0.07017,0.0379 -0.157435,0.0963 -0.260783,0.17419 l -3.260121,2.45674 -0.1121268,0.0843 -0.084095,-0.11142 -0.077396,-0.10278 -0.04002,-0.0532 0.015867,-0.0642 1.1001649,-4.51751 -2.069286,1.55972 h -4.936e-4 c -0.1114216,0.0838 -0.1974736,0.15797 -0.257063,0.22123 -0.046191,0.0494 -0.072459,0.086 -0.077396,0.10877 H 6.378591 c -0.00705,0.0421 -0.00353,0.0874 0.012341,0.13452 v 5.6e-4 c 0.015867,0.0545 0.049364,0.11372 0.095555,0.17525 l 0.1027829,0.13592 0.084095,0.11178 -0.1119505,0.0845 -0.1052511,0.0793 -0.1123031,0.0839 -0.083566,-0.11125 -1.0139013,-1.34532 -0.084448,-0.11248 0.1123031,-0.0839 0.1056037,-0.0792 0.1119505,-0.0845 0.083919,0.11178 0.1001384,0.13293 c 0.050774,0.0673 0.1027829,0.11706 0.155144,0.14721 0.045133,0.0263 0.092734,0.0391 0.1408637,0.0374 h 4.937e-4 c 0.023977,-0.001 0.06576,-0.0183 0.1232337,-0.0492 0.071578,-0.039 0.1590226,-0.0975 0.2609064,-0.17383 l -3.703e-4,-3.7e-4 2.649313,-1.99638 c 0.015867,-0.0765 0.029266,-0.14651 0.038433,-0.20804 0.010578,-0.0703 0.015867,-0.12447 0.014104,-0.16008 v -6.1e-4 c -2.997e-4,-0.0351 -0.00705,-0.0774 -0.015867,-0.12447 -0.010578,-0.049 -0.028208,-0.10684 -0.050246,-0.17154 H 8.99148 c -0.00882,-0.0263 -0.026445,-0.0591 -0.048659,-0.0963 h 1.763e-4 c -0.024682,-0.0413 -0.057121,-0.0878 -0.095202,-0.13875 l -0.084271,-0.11195 0.1114216,-0.0837 0.067347,-0.051 -0.020803,-0.0259 3.702e-4,-1.4e-4 c -0.034026,-0.039 -0.074575,-0.067 -0.1205892,-0.0825 l -0.00123,-5.6e-4 c -0.023095,-0.007 -0.069638,-0.007 -0.1378666,0.005 -0.081627,0.0141 -0.1890112,0.0437 -0.3201784,0.0887 l -2.9591603,1.01905 h -6.347e-4 c -0.1121268,0.0384 -0.2025687,0.0739 -0.269739,0.10437 l -5.465e-4,5e-4 c -0.06241,0.0284 -0.1050748,0.052 -0.1265834,0.0698 l 1.763e-4,3.7e-4 c -0.00882,0.009 -0.019217,0.0217 -0.027503,0.0377 h -2.997e-4 c -0.00882,0.0194 -0.01763,0.0446 -0.023272,0.0737 h -1.763e-4 c -0.00705,0.0444 -0.010578,0.0896 -0.00705,0.13487 v 0.001 c 0.00353,0.0427 0.012341,0.0859 0.026798,0.12888 l 0.057297,0.16625 0.045485,0.13258 -0.1329302,0.0458 -0.1244678,0.0425 -0.1327539,0.0455 -0.045485,-0.13275 -0.6759342,-1.96362 -0.045838,-0.13293 0.1331065,-0.0455 0.1244678,-0.0427 0.1325776,-0.0458 0.045838,0.1331 0.055711,0.1629 v 5e-4 c 0.025916,0.076 0.059589,0.13769 0.098904,0.18305 v 4.9e-4 c 0.034555,0.04 0.075104,0.0677 0.1197077,0.0825 l 3.702e-4,-5.6e-4 c 0.022566,0.007 0.06911,0.005 0.1380429,-0.007 0.083214,-0.0141 0.1907566,-0.0448 0.32106,-0.0896 l 2.9592131,-1.01937 c 0.1124794,-0.0388 0.2041201,-0.0742 0.2727361,-0.10525 v 1.7e-4 c 0.060824,-0.0277 0.1033118,-0.0515 0.125173,-0.0703 0.010578,-0.009 0.020098,-0.0217 0.027327,-0.0368 l 6.17e-4,-3e-4 c 0.00882,-0.0176 0.01763,-0.0418 0.022743,-0.0707 0.00705,-0.0458 0.00881,-0.0919 0.00705,-0.13628 -0.00353,-0.0441 -0.012341,-0.0885 -0.02715,-0.13099 l -0.055887,-0.16273 -0.045485,-0.13187 0.1241152,-0.0428 -0.010578,-0.064 v -4.9e-4 c -0.012341,-0.0785 -0.034202,-0.14386 -0.064526,-0.1943 l -6.346e-4,-6.2e-4 c -0.026621,-0.0443 -0.062058,-0.079 -0.1041933,-0.1019 l 1.763e-4,-1.9e-4 c -0.021156,-0.0106 -0.066994,-0.0159 -0.1355747,-0.0159 v -6.2e-4 c -0.0848,0 -0.1960456,0.0106 -0.3319377,0.0326 l -2.3398888,0.37017 c -0.1857674,0.0296 -0.3571838,0.0467 -0.5122926,0.0503 -0.1583174,0.004 -0.3018432,-0.007 -0.4285853,-0.0305 v -3.7e-4 c -0.1302857,-0.0233 -0.2558113,-0.0645 -0.3742849,-0.12165 -0.1188262,-0.0576 -0.2323634,-0.13222 -0.3390249,-0.22265 -0.1114216,-0.0941 -0.2015109,-0.20449 -0.269739,-0.3297 -0.067347,-0.12358 -0.1135372,-0.26233 -0.1376903,-0.41465 -0.020098,-0.12553 -0.021861,-0.2415 -0.00705,-0.34567 0.015867,-0.10931 0.052008,-0.20929 0.1061326,-0.29779 l 3.702e-4,-0.001 c 0.054653,-0.0874 0.1186499,-0.15779 0.1911269,-0.21016 h 4.936e-4 c 0.07528,-0.0541 0.1599041,-0.0894 0.2521443,-0.10367 l 4.936e-4,-4.9e-4 c 0.071401,-0.0106 0.1382192,-0.0123 0.1993953,-0.001 v 1.8e-4 c 0.066994,0.0106 0.1272886,0.036 0.1788035,0.0737 l 0.00176,0.002 c 0.056945,0.0434 0.1031355,0.0945 0.1371614,0.15214 l 3.702e-4,-3e-4 c 0.034731,0.0575 0.057474,0.12271 0.068581,0.19305 0.00882,0.0536 0.00705,0.10737 -0.00176,0.15867 h -1.234e-4 c -0.00882,0.0506 -0.028561,0.10049 -0.055887,0.14739 l -6.171e-4,6.2e-4 c -0.028737,0.0481 -0.080393,0.1026 -0.153381,0.16131 -0.065055,0.0524 -0.149855,0.11142 -0.2535722,0.17612 l -1.94e-4,-1.7e-4 c -0.040725,0.0259 -0.069462,0.0506 -0.084624,0.0739 h 1.94e-4 c -0.00705,0.009 -0.00882,0.0182 -0.00882,0.0243 v 4.9e-4 c 5.641e-4,0.004 0.00353,0.0106 0.00882,0.0159 0.012341,0.0123 0.032263,0.0266 0.058708,0.0397 l 0.00176,5.7e-4 c 0.024682,0.0123 0.062939,0.0199 0.1135372,0.0219 h 3.702e-4 c 0.062058,0.002 0.1383955,-0.004 0.2276385,-0.0176 l 3.267033,-0.51758 c 0.1172395,-0.0189 0.2127588,-0.0381 0.2859057,-0.0566 0.065407,-0.0176 0.1115979,-0.0335 0.137514,-0.048 0.012341,-0.009 0.023095,-0.0187 0.032616,-0.0317 0.012341,-0.0176 0.024858,-0.0402 0.034555,-0.0672 0.032087,-0.0871 0.041078,-0.17632 0.027326,-0.26588 l -0.027326,-0.17189 -0.022037,-0.13805 0.1383955,-0.022 z m -0.1835283,0.69677 3.702e-4,-3.7e-4 m 7.0230871,9.83417 -0.886772,1.25068 -0.08797,0.12358 -0.115829,-0.0977 -0.0952,-0.08 -0.07757,-0.0652 0.0372,-0.0934 c 0.07017,-0.17718 0.119531,-0.34257 0.147387,-0.49526 0.02715,-0.14897 0.0342,-0.28751 0.02116,-0.41302 -0.01816,-0.17951 -0.07193,-0.34711 -0.159199,-0.5021 h -6.17e-4 c -0.08833,-0.15761 -0.213711,-0.30433 -0.373421,-0.43811 -0.218983,-0.18391 -0.446745,-0.30251 -0.681717,-0.35457 -0.233104,-0.0517 -0.479395,-0.0393 -0.735894,0.0372 v 3.7e-4 c -0.222843,0.0672 -0.432675,0.16889 -0.628157,0.30431 -0.198161,0.13663 -0.385057,0.31043 -0.559946,0.51866 -0.143332,0.17083 -0.263886,0.34729 -0.359793,0.52765 -0.09538,0.17968 -0.169601,0.36638 -0.220411,0.55869 -0.05025,0.19076 -0.07581,0.37187 -0.07581,0.54285 h -6.17e-4 c 0,0.1666 0.02415,0.32441 0.07299,0.47105 0.04954,0.1488 0.113714,0.28337 0.191921,0.40197 0.07704,0.11741 0.169777,0.22161 0.27665,0.31117 0.06452,0.0541 0.130638,0.10331 0.198143,0.14615 l 1.94e-4,-3.2e-4 c 0.06929,0.0439 0.139982,0.083 0.211031,0.11565 v 3.9e-4 c 0.07158,0.0324 0.147211,0.0619 0.224465,0.0859 h 4.94e-4 c 0.05307,0.0176 0.106838,0.0316 0.160257,0.0436 l 0.84691,-1.00899 c 0.07422,-0.0885 0.132577,-0.16466 0.173126,-0.22638 h 6.17e-4 c 0.03508,-0.0534 0.05624,-0.0929 0.06188,-0.11724 v -5e-4 c 0.0071,-0.0252 0.0088,-0.0511 0.0071,-0.0753 -0.0018,-0.0248 -0.0088,-0.0511 -0.02045,-0.0769 l -0.0012,-0.002 c -0.01058,-0.0248 -0.0335,-0.0582 -0.06858,-0.0977 v -3.7e-4 c -0.0402,-0.045 -0.09591,-0.0975 -0.166251,-0.15638 l -0.107719,-0.0901 0.09044,-0.10719 0.08727,-0.10402 0.09027,-0.10737 0.106661,0.0896 1.436334,1.20559 0.10719,0.0901 -0.08956,0.10719 -0.08709,0.10402 -0.09009,0.10754 -0.107367,-0.0904 -0.0677,-0.0571 -3.18e-4,3.2e-4 c -0.055,-0.046 -0.106837,-0.0755 -0.153733,-0.0871 -0.0402,-0.0106 -0.08039,-0.007 -0.119884,0.007 -0.02962,0.0123 -0.0707,0.0421 -0.122352,0.0885 -0.05994,0.0548 -0.129934,0.12993 -0.208916,0.22334 l -0.953254,1.13592 -0.05412,0.0644 -0.0818,-0.0176 c -0.158318,-0.0328 -0.309425,-0.073 -0.45117,-0.11936 -0.142979,-0.0465 -0.280317,-0.10137 -0.410232,-0.16237 l -5.64e-4,-6.4e-4 c -0.129405,-0.062 -0.260413,-0.13628 -0.390152,-0.22159 -0.129228,-0.0848 -0.258474,-0.18192 -0.387155,-0.29021 l -3.7e-4,3.7e-4 c -0.372311,-0.3124 -0.6512525,-0.64948 -0.8358386,-1.00984 -0.1861551,-0.36403 -0.2762092,-0.75157 -0.269739,-1.16057 0.00529,-0.30623 0.059589,-0.5957 0.1623723,-0.8676 0.1026066,-0.27218 0.2536957,-0.5273 0.4528971,-0.76476 h 5.642e-4 c 0.144919,-0.17207 0.307308,-0.32421 0.486235,-0.45364 0.178751,-0.12922 0.376595,-0.23888 0.591293,-0.32721 0.254066,-0.1049 0.508255,-0.17295 0.761634,-0.2038 0.255247,-0.031 0.512292,-0.0256 0.768668,0.0176 h 0.0012 c 0.214398,0.0365 0.425235,0.10578 0.630977,0.2068 0.205231,0.10067 0.40475,0.23293 0.597499,0.39443 0.07087,0.0592 0.136456,0.11901 0.196028,0.17895 l 1.94e-4,-3.9e-4 c 0.05818,0.0582 0.113537,0.11971 0.16484,0.18392 0.04972,0.0615 0.104546,0.1391 0.164312,0.23199 0.05818,0.0901 0.123586,0.1992 0.195534,0.3249 v 6.2e-4 c 0.03085,0.0546 0.05959,0.10102 0.0848,0.13751 v 5e-4 c 0.01816,0.0268 0.03173,0.0444 0.03949,0.0508 l 0.01058,-0.001 c 0.0035,-6.2e-4 0.01587,-0.009 0.03455,-0.0219 h 6.17e-4 c 0.02627,-0.0197 0.05853,-0.0494 0.09503,-0.0876 l 0.09079,-0.0952 0.100491,0.0843 0.101548,0.0853 0.09891,0.0832 -0.07475,0.10543 z m 5.444655,3.85322 -0.556579,0.99225 -0.07228,0.12835 -0.124997,-0.0785 -0.115653,-0.0728 -0.104193,-0.0656 0.05166,-0.1116 c 0.03949,-0.0853 0.07017,-0.16132 0.0915,-0.22658 h 1.76e-4 c 0.01886,-0.0587 0.02997,-0.10737 0.03226,-0.14422 v -4.9e-4 c 0.0035,-0.0645 6.35e-4,-0.12482 -0.01058,-0.18037 v -6.2e-4 c -0.01058,-0.0547 -0.0312,-0.10701 -0.058,-0.15444 l -5.64e-4,2e-4 c -0.02803,-0.049 -0.06735,-0.0973 -0.116182,-0.14386 -0.05201,-0.0496 -0.117239,-0.0984 -0.194476,-0.14669 l -0.460126,-0.28791 -1.886921,3.02018 c -0.0751,0.12023 -0.129051,0.22023 -0.160962,0.29867 -0.02468,0.0603 -0.03596,0.10313 -0.03385,0.12728 0.0071,0.043 0.02768,0.085 0.05836,0.12359 h 4.94e-4 c 0.03544,0.0451 0.08674,0.0889 0.152146,0.1294 l 0.14298,0.0896 0.119002,0.0744 -0.07405,0.11865 -0.06999,0.11178 -0.07475,0.11918 -0.118297,-0.0742 -1.742761,-1.08847 -0.119355,-0.0744 0.0744,-0.11883 0.06981,-0.11212 0.07422,-0.11936 0.119178,0.0744 0.1458,0.0913 c 0.0714,0.0443 0.136633,0.0716 0.194477,0.0807 0.05042,0.007 0.09855,0.002 0.142627,-0.0176 l 0.0013,-5.7e-4 c 0.02257,-0.009 0.05606,-0.04 0.09873,-0.0899 0.05166,-0.0599 0.11248,-0.1458 0.180867,-0.25495 l 1.887679,-3.02072 -0.375537,-0.23411 c -0.09361,-0.0584 -0.173303,-0.10402 -0.237828,-0.13557 l -3.18e-4,3e-4 c -0.06364,-0.0309 -0.114947,-0.0511 -0.151794,-0.0598 v 3.7e-4 c -0.04936,-0.0106 -0.09996,-0.0123 -0.151618,-0.005 -0.05377,0.007 -0.111774,0.0236 -0.170306,0.0492 v 3.7e-4 c -0.05888,0.0261 -0.117416,0.0642 -0.174184,0.11407 -0.06029,0.0529 -0.120942,0.11988 -0.180179,0.20008 l -0.08938,0.12041 -0.11389,-0.0973 -0.291935,-0.24877 -0.120413,-0.10261 0.117063,-0.10684 0.827746,-0.75673 0.07863,-0.0721 0.08974,0.0561 3.353226,2.09603 0.113537,0.0711 -0.06523,0.11653 z m 1.447088,1.33406 -0.766923,1.44323 0.815934,0.4335 c 0.114419,0.0606 0.211772,0.10208 0.290878,0.12394 0.0677,0.0185 0.120765,0.0227 0.157436,0.0141 l 0.0013,-6.1e-4 c 0.05694,-0.0141 0.114948,-0.0467 0.171893,-0.0991 v -5.7e-4 c 0.06576,-0.0596 0.130814,-0.14368 0.19497,-0.25052 l 0.0684,-0.11424 0.117416,0.0628 0.116535,0.0624 0.123233,0.0661 -0.06523,0.12306 -0.791728,1.48899 -0.06611,0.12341 -0.12341,-0.0659 -0.116535,-0.0624 -0.107543,-0.0575 0.04143,-0.11353 c 0.03931,-0.10843 0.06946,-0.1976 0.08815,-0.26639 v -5e-4 c 0.01763,-0.0628 0.02715,-0.1086 0.02856,-0.13522 v -0.002 c 0,-0.0287 -0.0053,-0.0589 -0.0141,-0.0874 -0.01058,-0.0323 -0.02891,-0.0651 -0.05219,-0.0977 l -3.71e-4,2e-4 c -0.02433,-0.0335 -0.06118,-0.0691 -0.109482,-0.10543 l -1.94e-4,1.9e-4 c -0.05606,-0.0421 -0.125525,-0.0855 -0.205918,-0.12834 l -1.94e-4,5.6e-4 -0.816234,-0.43424 -0.683903,1.28681 c -0.04813,0.091 -0.08551,0.16555 -0.110011,0.22179 l -6.35e-4,6.1e-4 c -0.0208,0.0465 -0.03173,0.076 -0.03314,0.088 h -1.94e-4 l 0.0018,0.0215 v 10e-4 c 0.0018,0.009 0.0071,0.0194 0.01234,0.0291 l 3e-4,-1.9e-4 c 0.0053,0.009 0.0201,0.0217 0.04266,0.0381 0.03262,0.024 0.07528,0.0501 0.126407,0.0776 l 1.94e-4,-5.7e-4 0.72544,0.38561 v 1.9e-4 c 0.115476,0.061 0.218241,0.11107 0.307484,0.14809 0.0841,0.0349 0.153205,0.0578 0.20606,0.0675 h 0.0018 c 0.05095,0.0106 0.106132,0.0123 0.16343,0.009 0.05977,-0.004 0.123763,-0.0176 0.191056,-0.0363 0.09097,-0.0277 0.191497,-0.0712 0.30202,-0.1294 0.113713,-0.0601 0.238199,-0.13681 0.371482,-0.22845 l 0.06999,-0.0483 0.07546,0.0402 0.126055,0.0674 0.172421,0.0922 -0.142803,0.13364 -0.938568,0.87638 -0.07334,0.0679 -0.0878,-0.0467 -3.295946,-1.75265 -0.123586,-0.0658 0.06558,-0.12323 0.0617,-0.11654 0.06558,-0.12447 0.123939,0.0663 0.151089,0.0809 3.7e-4,-6.1e-4 c 0.04055,0.0215 0.08251,0.0379 0.124116,0.0478 0.04284,0.0106 0.08815,0.0159 0.134693,0.0159 h 0.0053 c 0.02362,3e-4 0.04672,-0.004 0.06735,-0.0106 0.01904,-0.007 0.0372,-0.018 0.05324,-0.0321 0.02045,-0.019 0.04883,-0.0573 0.08392,-0.11178 0.0402,-0.0617 0.08692,-0.14315 0.140158,-0.24342 v -5.6e-4 l 1.477747,-2.77849 h 1.94e-4 c 0.06752,-0.12764 0.11671,-0.23428 0.145271,-0.31894 0.02239,-0.0658 0.0312,-0.10966 0.0268,-0.12993 -0.0088,-0.0367 -0.03173,-0.0737 -0.06576,-0.10931 -0.04161,-0.0434 -0.09996,-0.0859 -0.173832,-0.12447 l -4.94e-4,-6.2e-4 -0.151441,-0.0806 -0.123234,-0.0658 0.06506,-0.12271 0.06206,-0.11724 0.06594,-0.12482 0.123587,0.0661 3.296316,1.75258 0.117416,0.0624 -0.05642,0.12077 -0.450411,0.96172 -0.06259,0.1331 -0.129228,-0.0684 -0.12341,-0.0654 -0.102959,-0.0545 0.03332,-0.11001 c 0.0372,-0.12288 0.064,-0.22533 0.07845,-0.30625 0.0141,-0.0769 0.01904,-0.13839 0.01587,-0.18298 -0.0035,-0.0416 -0.0141,-0.0827 -0.02979,-0.122 h 3.87e-4 c -0.01763,-0.04 -0.04249,-0.0813 -0.0744,-0.12059 -0.0268,-0.0282 -0.06929,-0.0622 -0.127112,-0.10102 l -3.88e-4,-5.4e-4 c -0.06435,-0.0437 -0.148092,-0.0926 -0.248901,-0.14598 h -5.64e-4 l -1.049831,-0.55852 z m 6.667648,2.59801 -0.568215,1.54876 -0.05166,0.14016 -0.136633,-0.0606 -0.101196,-0.045 -0.09538,-0.0427 0.0141,-0.10243 c 0.03085,-0.24225 0.03526,-0.46192 0.01234,-0.6566 -0.02221,-0.18827 -0.06981,-0.35295 -0.141922,-0.49078 -0.07299,-0.13963 -0.168014,-0.2629 -0.28379,-0.36813 -0.116534,-0.10596 -0.255811,-0.19536 -0.41732,-0.26674 l -4.93e-4,-5.1e-4 c -0.134341,-0.0592 -0.270797,-0.10014 -0.407818,-0.12006 -0.135574,-0.0196 -0.273476,-0.0196 -0.41166,1.9e-4 -0.135222,0.0194 -0.269933,0.0645 -0.400924,0.13346 v 3.9e-4 c -0.135927,0.0719 -0.269351,0.16995 -0.399161,0.29299 v 3.2e-4 c -0.132401,0.12482 -0.258226,0.27769 -0.376206,0.45631 -0.120413,0.18136 -0.233615,0.39083 -0.337967,0.62513 -0.08533,0.19255 -0.150384,0.37906 -0.19356,0.55801 -0.04249,0.1763 -0.06506,0.34835 -0.06558,0.51303 v 5.1e-4 c -0.0012,0.1592 0.01992,0.31152 0.06241,0.45452 0.04249,0.14174 0.106662,0.2752 0.191621,0.3981 0.08551,0.12394 0.188835,0.23478 0.307502,0.33069 0.12059,0.0968 0.257733,0.18018 0.411784,0.2484 0.133459,0.0596 0.265385,0.10138 0.39389,0.12465 0.127465,0.0229 0.254559,0.0289 0.37975,0.0178 l 4.94e-4,-6.2e-4 c 0.124115,-0.0106 0.2675,-0.0485 0.428973,-0.11089 v -1.3e-4 c 0.16819,-0.0654 0.356126,-0.1592 0.562414,-0.27943 l 0.113538,-0.0665 0.07352,0.11054 0.07299,0.10966 0.07299,0.11001 -0.106485,0.0797 c -0.205725,0.1532 -0.411096,0.27571 -0.613489,0.36614 -0.205918,0.0922 -0.410797,0.15215 -0.612854,0.17981 -0.202198,0.0273 -0.408804,0.0233 -0.61809,-0.0106 -0.20717,-0.034 -0.419083,-0.0998 -0.633464,-0.19497 h -6.17e-4 c -0.386114,-0.17207 -0.698518,-0.39773 -0.935095,-0.67631 -0.238023,-0.27994 -0.400219,-0.6123 -0.484508,-0.99699 h 3.88e-4 c -0.06311,-0.2849 -0.07828,-0.57063 -0.04619,-0.85661 v -3.7e-4 c 0.03261,-0.28491 0.113184,-0.57119 0.240826,-0.85822 h -1.24e-4 c 0.102078,-0.23025 0.227568,-0.44127 0.373545,-0.63077 0.147034,-0.19063 0.316317,-0.36036 0.506509,-0.50845 l 5.65e-4,-6.2e-4 c 0.190562,-0.14774 0.392937,-0.26582 0.60522,-0.35383 0.212441,-0.0878 0.435108,-0.14492 0.66585,-0.17066 0.230618,-0.0254 0.45875,-0.0199 0.683021,0.0159 h 6.17e-4 c 0.223725,0.0354 0.445193,0.10225 0.661319,0.19851 0.17013,0.0755 0.330933,0.17207 0.479712,0.28772 l 3.71e-4,-1.9e-4 c 0.148268,0.11512 0.286663,0.25121 0.413899,0.40688 l 0.0013,0.002 c 0.03085,0.039 0.05853,0.0709 0.08198,0.0933 l 4.94e-4,5.6e-4 c 0.01587,0.0141 0.02503,0.0234 0.02891,0.025 0.01234,0.005 0.02433,0.009 0.03544,0.009 0.01058,3.7e-4 0.02556,-0.002 0.04055,-0.007 l 1.23e-4,1.9e-4 c 0.02574,-0.0106 0.05166,-0.0266 0.07669,-0.0474 l 4.94e-4,-0.001 c 0.0312,-0.0256 0.06118,-0.0576 0.08868,-0.0938 l 0.06699,-0.0882 0.100667,0.045 0.113714,0.0503 0.120413,0.0536 -0.04513,0.12271 z m 1.186164,2.95828 1.826786,0.73801 0.466719,-1.15459 c 0.04425,-0.11019 0.07845,-0.20349 0.100314,-0.27789 0.01939,-0.0649 0.02927,-0.11248 0.02927,-0.14121 0,-0.0141 -0.0035,-0.0294 -0.01058,-0.0451 -0.0088,-0.0205 -0.02257,-0.0427 -0.04073,-0.0659 l 1.94e-4,-1.9e-4 c -0.02909,-0.036 -0.0617,-0.0679 -0.09661,-0.0936 -0.03438,-0.0256 -0.07387,-0.0478 -0.116358,-0.0647 h -4.93e-4 l -0.157965,-0.064 -0.130286,-0.0527 0.05307,-0.13011 0.04989,-0.12288 0.05254,-0.12976 0.129757,0.0525 1.920771,0.77588 0.129933,0.0525 -0.05236,0.12976 -0.04972,0.12306 -0.05254,0.13011 -0.13011,-0.0525 -0.159375,-0.0645 v -1.2e-4 c -0.04196,-0.0176 -0.08568,-0.0287 -0.12817,-0.0346 -0.04372,-0.007 -0.08921,-0.007 -0.135575,-0.001 l -0.0053,5.7e-4 c -0.0238,0.002 -0.04584,0.007 -0.064,0.0159 l -5.46e-4,5.7e-4 c -0.01816,0.009 -0.03544,0.0217 -0.04989,0.0368 h 3.7e-4 c -0.01904,0.022 -0.0446,0.064 -0.07493,0.12429 -0.0335,0.0663 -0.07211,0.15321 -0.115124,0.25985 l -1.170826,2.89871 v 3.9e-4 c -0.04407,0.10878 -0.07775,0.20095 -0.09961,0.27483 -0.01975,0.0652 -0.02962,0.11248 -0.02962,0.1391 v 0.004 c 0,0.0123 0.0035,0.0273 0.0088,0.0423 l 4.93e-4,10e-4 c 0.0071,0.0194 0.02116,0.0414 0.03914,0.0645 l -3.88e-4,3.7e-4 c 0.02997,0.0365 0.06294,0.0682 0.09802,0.0943 l 5.64e-4,6.2e-4 c 0.03456,0.0256 0.07369,0.0476 0.1153,0.0642 h 5.65e-4 l 0.159727,0.0649 0.129757,0.0525 -0.05254,0.13028 -0.04936,0.12218 -0.05254,0.12958 -0.129756,-0.0524 -1.921335,-0.77627 -0.130815,-0.0531 0.05307,-0.12976 0.04972,-0.122 0.05254,-0.12958 0.129757,0.0522 0.157965,0.0635 h 6.17e-4 c 0.0744,0.0303 0.142274,0.0455 0.201881,0.0455 0.05289,0 0.100491,-0.0123 0.141569,-0.0365 l 0.0018,-0.001 c 0.0208,-0.0123 0.04936,-0.0476 0.08445,-0.10578 l -3.71e-4,-1.9e-4 c 0.04443,-0.0735 0.09291,-0.17472 0.143861,-0.30109 l 0.499987,-1.23817 -1.826662,-0.73838 -0.50048,1.23768 c -0.04372,0.1086 -0.07704,0.20095 -0.09855,0.27446 -0.01939,0.0654 -0.02962,0.11283 -0.03015,0.14087 h 5.64e-4 c 0,0.0141 0.0035,0.0294 0.01058,0.046 h -3e-4 c 0.0088,0.0203 0.02221,0.0428 0.04037,0.0652 0.03015,0.0369 0.06276,0.0693 0.09749,0.0952 0.03385,0.025 0.07281,0.0469 0.115652,0.0643 v 3.7e-4 l 0.161844,0.0654 0.130109,0.0524 -0.05236,0.12976 -0.04936,0.12253 -0.05289,0.12993 -0.129404,-0.0522 -1.923997,-0.77751 -0.130639,-0.0527 0.05289,-0.12993 0.04919,-0.12218 0.05236,-0.12975 0.13011,0.0524 0.158141,0.0638 c 0.07634,0.0307 0.145447,0.0467 0.204561,0.0467 v -5.7e-4 c 0.05324,0 0.101548,-0.0123 0.144213,-0.0372 0.02028,-0.0141 0.04795,-0.0504 0.08198,-0.10736 l 3.7e-4,3.1e-4 c 0.04249,-0.0714 0.09044,-0.17242 0.142627,-0.30145 h 3.7e-4 l 1.170438,-2.89821 v -6.2e-4 c 0.04408,-0.10896 0.0774,-0.20134 0.09943,-0.27522 h 3.7e-4 c 0.01904,-0.0651 0.02962,-0.11354 0.0305,-0.1414 v -0.002 c -5.64e-4,-0.0141 -0.0035,-0.0293 -0.01058,-0.0453 -0.0071,-0.0196 -0.01992,-0.0407 -0.03614,-0.0621 -0.03103,-0.0379 -0.0647,-0.0702 -0.09996,-0.0963 -0.03508,-0.0259 -0.07493,-0.048 -0.116887,-0.0649 l -0.15867,-0.0638 -0.130815,-0.0524 0.05289,-0.13046 0.05025,-0.12323 0.05254,-0.12976 0.12958,0.0524 1.923927,0.77743 0.130109,0.0527 -0.05218,0.12958 -0.04989,0.12305 -0.05271,0.13047 -0.129933,-0.0527 -0.162549,-0.0661 v -1.8e-4 c -0.04249,-0.0159 -0.08568,-0.0289 -0.127465,-0.0342 h -0.0012 c -0.04355,-0.007 -0.08885,-0.007 -0.134693,-0.002 l -0.0035,5.6e-4 c -0.0238,0.002 -0.04513,0.009 -0.06276,0.0176 l -0.0013,5e-4 c -0.01851,0.009 -0.03632,0.0231 -0.05183,0.0404 l -0.0012,6.2e-4 c -0.01904,0.0201 -0.04425,0.0608 -0.07475,0.12041 -0.03385,0.0658 -0.07281,0.15267 -0.115653,0.25897 l -0.466472,1.15564 z"
       id="path41" />
  </g>
</svg>
