<?xml version="1.0" encoding="UTF-8" standalone="no"?>
<svg width="380.39322" height="262.68417" viewBox="0 0 380.39321 262.68416" version="1.1" id="svg1" xmlns="http://www.w3.org/2000/svg" xmlns:svg="http://www.w3.org/2000/svg">
  <defs id="defs1"/>
  <g transform="matrix(1.914,0,0,1.914,-1685.3706,826.85901)" style="fill:#214fa0;fill-opacity:1">
    <path d="m 133,16.806 c 3.526,-0.529 6.611,-0.859 9.652,-1.212 4.892,-0.551 9.608,-1.08 15.822,-2.2 l 0.264,1.366 a 153.948,153.948 0 0 1 -15.932,2.2 c -3.019,0.331 -6.082,0.683 -9.608,1.212 z" transform="translate(883.541,-415.861)" fill="#fff" fill-rule="evenodd" style="fill:#214fa0;fill-opacity:1"/>
    <path d="m 134.882,11.39 a 49.736,49.736 0 0 1 6.038,7.184 24.57,24.57 0 0 1 3.592,7.735 l -1.322,0.331 a 23.579,23.579 0 0 0 -3.416,-7.294 46.913,46.913 0 0 0 -5.884,-6.985 z" transform="translate(884.612,-418.268)" fill="#fff" fill-rule="evenodd" style="fill:#214fa0;fill-opacity:1"/>
    <rect width="1.388" height="8.6820002" transform="translate(978.925,-410.757)" fill="#fff" style="fill:#214fa0;fill-opacity:1" x="0" y="0"/>
    <rect width="1.763" height="1.388" transform="translate(959.952,-382.859)" fill="#fff" style="fill:#214fa0;fill-opacity:1" x="0" y="0"/>
    <rect width="1.388" height="12.561" transform="matrix(0.017,-1,1,0.017,919.413,-381.647)" fill="#fff" style="fill:#214fa0;fill-opacity:1" x="0" y="0"/>
    <path d="m 116.39,16.5 q 7.669,0.242 15.425,0 c 5.134,-0.242 10.269,-0.661 15.425,-1.344 l 0.176,1.366 q -7.757,1.036 -15.425,1.344 c -5.156,0.242 -10.313,0.242 -15.425,0 z" transform="translate(863.549,-413.731)" fill="#fff" fill-rule="evenodd" style="fill:#214fa0;fill-opacity:1"/>
    <path d="m 106.376,33.8 -0.837,-3.482 -0.2,-0.793 0.815,-0.066 9.277,-0.617 0.088,1.388 -8.462,0.573 0.639,2.688 z" transform="translate(850.249,-397.265)" fill="#fff" fill-rule="evenodd" style="fill:#214fa0;fill-opacity:1"/>
    <path d="m 107.674,32.56 a 59.061,59.061 0 0 0 3.548,5.994 20.956,20.956 0 0 0 3.878,4.275 l -0.859,1.08 A 21.332,21.332 0 0 1 110.098,39.347 61.272,61.272 0 0 1 106.44,33.2 Z" transform="translate(851.573,-392.788)" fill="#fff" fill-rule="evenodd" style="fill:#214fa0;fill-opacity:1"/>
    <path d="m 106.025,37.91 5.553,1.653 -0.375,1.322 -5.553,-1.653 z" transform="translate(850.622,-386.348)" fill="#fff" fill-rule="evenodd" style="fill:#214fa0;fill-opacity:1"/>
    <rect width="7.382" height="1.388" transform="rotate(-12.88,-1076.8747,-4357.112)" fill="#fff" style="fill:#214fa0;fill-opacity:1" x="0" y="0"/>
    <path d="m 106,36.946 a 44.756,44.756 0 0 1 9.806,-1.476 v 1.388 a 43.564,43.564 0 0 0 -9.52,1.41 z" transform="translate(851.043,-389.285)" fill="#fff" fill-rule="evenodd" style="fill:#214fa0;fill-opacity:1"/>
    <path d="m 122.182,35.28 a 79.021,79.021 0 0 1 12.23,1.058 70.868,70.868 0 0 1 12.252,3.107 l -0.441,1.3 a 70.89,70.89 0 0 0 -12.032,-3.063 78.69,78.69 0 0 0 -12.032,-1.014 z" transform="translate(870.494,-389.514)" fill="#fff" fill-rule="evenodd" style="fill:#214fa0;fill-opacity:1"/>
    <path d="M 124.6,54.4 A 52.138,52.138 0 0 0 144.433,43.867 36.448,36.448 0 0 0 155.6,25.07 l 1.322,0.331 A 37.77,37.77 0 0 1 145.309,44.901 53.371,53.371 0 0 1 125,55.766 Z" transform="translate(873.43,-401.803)" fill="#fff" fill-rule="evenodd" style="fill:#214fa0;fill-opacity:1"/>
    <rect width="13.42" height="1.388" transform="translate(1041.155,-382.837)" fill="#fff" style="fill:#214fa0;fill-opacity:1" x="0" y="0"/>
    <rect width="2.6659999" height="1.3660001" transform="translate(945.673,-398.681)" fill="#fff" style="fill:#214fa0;fill-opacity:1" x="0" y="0"/>
    <path d="M 87.9,13.52 99.16,15.349 98.94,16.693 87.7,14.864 Z" transform="translate(829.017,-415.704)" fill="#fff" fill-rule="evenodd" style="fill:#214fa0;fill-opacity:1"/>
    <rect width="1.939" height="1.388" transform="translate(959.093,-397.667)" fill="#fff" style="fill:#214fa0;fill-opacity:1" x="0" y="0"/>
    <path d="m 129.959,12.49 a 50.22,50.22 0 0 1 4.716,29.022 c -1.609,12.737 -7.4,23.006 -11.745,25.782 l -0.749,-1.19 c 4.1,-2.6 9.586,-12.428 11.018,-24.769 a 48.92,48.92 0 0 0 -4.561,-28.228 z" transform="translate(870.518,-416.944)" fill="#fff" fill-rule="evenodd" style="fill:#214fa0;fill-opacity:1"/>
    <rect width="7.823" height="1.388" transform="translate(904.201,-382.815)" fill="#fff" style="fill:#214fa0;fill-opacity:1" x="0" y="0"/>
    <rect width="60.688" height="1.388" transform="translate(966.739,-383.035)" fill="#fff" style="fill:#214fa0;fill-opacity:1" x="0" y="0"/>
    <rect width="1.388" height="20.582001" transform="translate(978.727,-396.565)" fill="#fff" style="fill:#214fa0;fill-opacity:1" x="0" y="0"/>
    <path d="m 95.117,19.5 a 29.925,29.925 0 0 0 2.468,21.77 c 3.5,6.413 9.674,12.054 18.577,16.747 l -0.639,1.234 C 106.378,54.4 100.1,48.586 96.373,41.931 a 31.4,31.4 0 0 1 -2.6,-22.741 z" transform="translate(835.064,-408.88)" fill="#fff" fill-rule="evenodd" style="fill:#214fa0;fill-opacity:1"/>
    <path d="m 87.29,33.633 c 5.553,-0.992 11.018,-1.939 16.9,-2.688 a 176.049,176.049 0 0 1 17.761,-1.454 v 1.388 a 171.992,171.992 0 0 0 -17.629,1.432 c -5.685,0.727 -11.26,1.7 -16.836,2.688 z" transform="translate(828.523,-396.483)" fill="#fff" fill-rule="evenodd" style="fill:#214fa0;fill-opacity:1"/>
    <rect width="8.4399996" height="1.388" transform="translate(978.462,-411.418)" fill="#fff" style="fill:#214fa0;fill-opacity:1" x="0" y="0"/>
    <rect width="1.388" height="5.5970001" transform="translate(978.925,-418.579)" fill="#fff" style="fill:#214fa0;fill-opacity:1" x="0" y="0"/>
    <path d="m 101.789,7.69 4.143,1.7 1.432,0.573 -1.388,0.683 -3.5,1.7 -0.617,-1.256 2.115,-0.992 -2.71,-1.124 z" transform="translate(845.338,-422.722)" fill="#fff" fill-rule="evenodd" style="fill:#214fa0;fill-opacity:1"/>
    <path d="m 125.264,6.63 a 36.778,36.778 0 0 1 12.781,5.223 L 137.3,13 A 36.581,36.581 0 0 0 131.35,9.871 35.125,35.125 0 0 0 125,7.974 Z" transform="translate(873.912,-423.997)" fill="#fff" fill-rule="evenodd" style="fill:#214fa0;fill-opacity:1"/>
    <rect width="7.0960002" height="1.388" transform="matrix(0.957,-0.29,0.29,0.957,956.284,-416.091)" fill="#fff" style="fill:#214fa0;fill-opacity:1" x="0" y="0"/>
    <path d="m 110.82,8.149 4.121,-2.049 0.617,1.234 -4.121,2.049 z" transform="translate(856.845,-424.635)" fill="#fff" fill-rule="evenodd" style="fill:#214fa0;fill-opacity:1"/>
    <rect width="1.3660001" height="5.0900002" transform="rotate(-58.23,119.01524,-1095.0871)" fill="#fff" style="fill:#214fa0;fill-opacity:1" x="0" y="0"/>
    <path d="m 127,9.279 a 24.108,24.108 0 0 0 4.694,-0.4 38.365,38.365 0 0 0 4.738,-1.212 l 0.419,1.3 A 38.258,38.258 0 0 1 131.937,10.223 25.451,25.451 0 0 1 127,10.6 Z" transform="translate(876.319,-422.746)" fill="#fff" fill-rule="evenodd" style="fill:#214fa0;fill-opacity:1"/>
    <path d="m 122.82,28.94 a 247.28,247.28 0 0 1 24.967,1.432 c 8.264,0.837 16.395,2.049 24.526,3.5 l -0.242,1.366 q -12.12,-2.2 -24.438,-3.5 -12.318,-1.3 -24.813,-1.432 z" transform="translate(871.288,-397.145)" fill="#fff" fill-rule="evenodd" style="fill:#214fa0;fill-opacity:1"/>
    <path d="M 72.858,82.806 A 64.257,64.257 0 0 1 71.293,67.8 C 71.624,51.163 79.072,37.148 91.126,26.262 103.18,15.376 119.773,7.619 138.526,3.477 a 152.051,152.051 0 0 1 35.346,-3.461 154.627,154.627 0 0 1 26.135,2.732 c 20.1,3.856 37.77,11.767 50.331,23.182 a 56.963,56.963 0 0 1 19.678,44.315 68.114,68.114 0 0 1 -1.234,11.481 h -0.507 a 67.366,67.366 0 0 0 1.234,-11.393 56.413,56.413 0 0 0 -19.524,-43.94 C 237.49,15.044 219.905,7.178 199.918,3.343 A 153.615,153.615 0 0 0 173.85,0.545 151.013,151.013 0 0 0 138.592,3.983 C 119.971,8.1 103.334,15.838 91.434,26.635 79.534,37.432 72.087,51.338 71.756,67.8 a 63.244,63.244 0 0 0 1.565,14.9 z" transform="translate(809.262,-431.993)" fill="#fff" fill-rule="evenodd" style="fill:#214fa0;fill-opacity:1"/>
    <path d="m 78.839,51.448 a 1.587,1.587 0 0 0 0.793,-0.176 0.97,0.97 0 0 0 0.176,-0.617 h 0.22 l 0.154,1.829 h -0.22 a 0.628,0.628 0 0 0 -0.286,-0.573 1.476,1.476 0 0 0 -0.815,-0.11 l -5.223,0.264 a 1.829,1.829 0 0 0 -0.529,0.353 1.014,1.014 0 0 0 -0.176,0.419 h -0.22 v -1.3 l 4.936,-3.349 -4.055,0.22 a 1.212,1.212 0 0 0 -0.793,0.176 1.689,1.689 0 0 0 -0.176,0.595 H 72.4 L 72.246,47.35 h 0.22 a 0.925,0.925 0 0 0 0.286,0.595 1.388,1.388 0 0 0 0.793,0 l 6.236,-0.331 v 0.154 l -5.729,3.746 4.782,-0.242 z M 77.1,45.19 v -1.939 l -3.173,0.639 3.063,1.3 z m 2.777,1.939 h -0.22 A 0.6,0.6 0 0 0 79.481,46.71 2.4,2.4 0 0 0 78.732,46.291 L 72.47,43.6 v -0.176 l 6.611,-1.41 a 1.631,1.631 0 0 0 0.419,-0.11 l 0.286,-0.132 a 0.506,0.506 0 0 0 0.154,-0.154 0.793,0.793 0 0 0 0,-0.242 h 0.22 l -0.132,2.2 h -0.22 a 0.727,0.727 0 0 0 0,-0.441 0.4,0.4 0 0 0 -0.353,-0.154 H 79.1 l -1.432,0.309 -0.132,2.2 1.168,0.485 0.331,0.11 h 0.242 a 0.353,0.353 0 0 0 0.353,0 0.683,0.683 0 0 0 0.132,-0.419 h 0.242 l -0.11,1.653 z m -0.309,-7.448 a 1.609,1.609 0 0 0 0.793,0 0.948,0.948 0 0 0 0.353,-0.529 h 0.22 l -0.4,1.807 h -0.22 a 0.992,0.992 0 0 0 0,-0.639 1.587,1.587 0 0 0 -0.749,-0.331 L 74.5,38.645 a 1.455,1.455 0 0 0 -0.595,0.176 0.639,0.639 0 0 0 -0.286,0.353 H 73.4 l 0.286,-1.278 5.8,-1.587 -3.922,-1.036 a 1.609,1.609 0 0 0 -0.815,0 0.837,0.837 0 0 0 -0.331,0.529 h -0.22 l 0.4,-1.763 h 0.22 a 0.793,0.793 0 0 0 0,0.639 1.586,1.586 0 0 0 0.727,0.331 l 6.026,1.591 v 0.154 l -6.611,1.825 4.628,1.19 z m -3.175,-10.49 -0.859,2.2 h 0.22 a 0.521,0.521 0 0 1 0.419,-0.485 1.454,1.454 0 0 1 0.859,0.22 l 4.8,2.093 a 1.057,1.057 0 0 1 0.419,0.286 0.264,0.264 0 0 1 0,0.286 c 0,0.11 -0.22,0.154 -0.551,0.11 v 0 a 1.1,1.1 0 0 0 -0.4,0 0.206,0.206 0 0 0 -0.2,0.2 0.242,0.242 0 0 0 0,0.264 0.441,0.441 0 0 0 0.264,0.22 0.992,0.992 0 0 0 0.749,0 A 0.749,0.749 0 0 0 82.62,34.1 1.08,1.08 0 0 0 82.444,32.932 3.7,3.7 0 0 0 81,31.946 l -3.68,-1.631 a 1.454,1.454 0 0 1 -0.727,-0.485 0.793,0.793 0 0 1 0,-0.639 z m 7.669,2.446 h -0.176 a 0.749,0.749 0 0 0 0,-0.639 1.3,1.3 0 0 0 -0.6,-0.507 L 78.883,28 a 1.565,1.565 0 0 0 -0.771,-0.242 c -0.154,0 -0.309,0.154 -0.463,0.419 l -0.2,-0.11 1.08,-2.049 0.2,0.11 a 0.793,0.793 0 0 0 0,0.639 1.388,1.388 0 0 0 0.617,0.507 l 4.407,2.468 a 1.322,1.322 0 0 0 0.749,0.264 0.683,0.683 0 0 0 0.463,-0.419 h 0.2 l -1.08,2.049 z m 0.859,-4.694 -3.658,-3 6.743,1.014 v 0 l -4.87,-3.9 a 1.829,1.829 0 0 1 -0.529,-0.617 0.859,0.859 0 0 1 0.176,-0.617 l -0.066,-0.286 -1.1,1.454 0.176,0.132 a 0.9,0.9 0 0 1 0.529,-0.331 1.366,1.366 0 0 1 0.705,0.4 l 3.173,2.534 -5.95,-0.9 -0.771,1.058 0.176,0.132 a 0.683,0.683 0 0 1 0.419,-0.066 1.366,1.366 0 0 1 0.617,0 l 4.077,3.261 a 1.565,1.565 0 0 1 0.551,0.617 1.036,1.036 0 0 1 -0.2,0.617 l 0.176,0.154 1.1,-1.476 -0.176,-0.132 a 0.793,0.793 0 0 1 -0.529,0.331 1.366,1.366 0 0 1 -0.705,-0.4 z m 6.39,-7.713 a 4.407,4.407 0 0 1 -0.154,1.234 2.886,2.886 0 0 1 -0.551,0.948 2.2,2.2 0 0 1 -2.2,0.815 4.407,4.407 0 0 1 -2.512,-1.322 4.87,4.87 0 0 1 -1.609,-2.556 2.49,2.49 0 0 1 0.529,-2.2 3.041,3.041 0 0 1 0.793,-0.573 l 0.529,-0.22 v -0.2 a 1.938,1.938 0 0 0 -0.154,-0.264 v 0 l 1.741,1.52 v 0 a 3.394,3.394 0 0 0 -1.521,-0.485 1.212,1.212 0 0 0 -1.014,0.485 1.7,1.7 0 0 0 -0.264,1.741 5.443,5.443 0 0 0 1.5,2.2 5.046,5.046 0 0 0 2.2,1.322 1.609,1.609 0 0 0 1.675,-0.485 1.124,1.124 0 0 0 0.308,-0.573 1.828,1.828 0 0 0 0,-0.683 l -1.278,-1.543 a 2.2,2.2 0 0 0 -0.661,-0.463 c -0.132,0 -0.309,0.132 -0.551,0.375 l -0.176,-0.176 1.431,-1.627 0.176,0.176 a 0.639,0.639 0 0 0 -0.2,0.485 1.41,1.41 0 0 0 0.441,0.573 z" transform="translate(810.421,-414.056)" fill="#fff" fill-rule="evenodd" style="fill:#214fa0;fill-opacity:1"/>
    <path d="m 114.686,4.81 a 5.664,5.664 0 0 0 0.4,2.556 1.41,1.41 0 0 0 1.234,0.948 1.543,1.543 0 0 0 1.322,-0.948 5.884,5.884 0 0 0 0.573,-2.578 5.928,5.928 0 0 0 -0.4,-2.534 1.432,1.432 0 0 0 -1.256,-0.948 1.476,1.476 0 0 0 -1.3,0.948 5.773,5.773 0 0 0 -0.573,2.556 z m -0.881,0 a 5.421,5.421 0 0 1 0.815,-2.843 2.314,2.314 0 0 1 1.851,-1.057 2.2,2.2 0 0 1 1.9,1.058 4.76,4.76 0 0 1 0.617,2.821 5.443,5.443 0 0 1 -0.793,2.865 2.336,2.336 0 0 1 -1.961,1.058 A 2.2,2.2 0 0 1 114.361,7.654 4.958,4.958 0 0 1 113.8,4.81 Z" transform="translate(860.404,-430.882)" fill="#fff" fill-rule="evenodd" style="fill:#214fa0;fill-opacity:1"/>
    <path d="m 116.74,8.338 v -0.22 a 0.859,0.859 0 0 0 0.617,-0.176 1.388,1.388 0 0 0 0.2,-0.793 l 0.419,-4.98 a 1.476,1.476 0 0 0 0,-0.793 c 0,-0.154 -0.286,-0.22 -0.595,-0.242 V 1 l 4.231,0.2 v 1.761 h -0.154 a 2.2,2.2 0 0 0 -0.242,-1.058 0.948,0.948 0 0 0 -0.771,-0.309 h -1.08 a 0.4,0.4 0 0 0 -0.309,0.11 0.771,0.771 0 0 0 -0.132,0.419 l -0.154,2.005 a 0.772,0.772 0 0 0 0,0.331 0.264,0.264 0 0 0 0.2,0 h 0.551 a 1.124,1.124 0 0 0 0.793,-0.176 1.388,1.388 0 0 0 0.242,-0.837 h 0.154 l -0.22,2.644 h -0.154 a 1.9,1.9 0 0 0 0,-0.926 c 0,-0.154 -0.353,-0.242 -0.749,-0.264 H 118.9 a 0.286,0.286 0 0 0 -0.176,0 0.418,0.418 0 0 0 0,0.264 l -0.176,2.071 a 1.256,1.256 0 0 0 0.11,0.793 c 0,0.154 0.286,0.242 0.617,0.264 v 0.22 z" transform="translate(863.97,-430.774)" fill="#fff" fill-rule="evenodd" style="fill:#214fa0;fill-opacity:1"/>
    <path d="m 132.183,8.367 v 0.2 a 3.526,3.526 0 0 1 -1.19,1.124 1.961,1.961 0 0 1 -1.278,0.2 2.2,2.2 0 0 1 -1.7,-1.344 4.716,4.716 0 0 1 -0.154,-2.865 5.069,5.069 0 0 1 1.3,-2.666 2.358,2.358 0 0 1 2.2,-0.771 2.2,2.2 0 0 1 0.881,0.375 3.128,3.128 0 0 0 0.485,0.286 0.2,0.2 0 0 0 0.2,0 0.485,0.485 0 0 0 0,-0.264 h 0.154 l -0.331,2.4 v 0 a 3.658,3.658 0 0 0 -0.353,-1.631 1.256,1.256 0 0 0 -0.948,-0.683 1.675,1.675 0 0 0 -1.587,0.705 5.4,5.4 0 0 0 -1.036,2.4 4.826,4.826 0 0 0 0,2.534 1.521,1.521 0 0 0 1.146,1.168 1.653,1.653 0 0 0 1.08,-0.176 3.945,3.945 0 0 0 1.124,-0.992 z" transform="translate(877.175,-429.327)" fill="#fff" fill-rule="evenodd" style="fill:#214fa0;fill-opacity:1"/>
    <path d="M 130,9.916 V 9.7 a 0.793,0.793 0 0 0 0.639,-0.11 1.432,1.432 0 0 0 0.286,-0.749 l 0.992,-4.914 a 1.543,1.543 0 0 0 0,-0.793 0.683,0.683 0 0 0 -0.551,-0.309 V 2.6 l 2.2,0.375 v 0.2 a 0.815,0.815 0 0 0 -0.617,0.132 1.608,1.608 0 0 0 -0.308,0.749 l -0.353,1.829 a 0.441,0.441 0 0 0 0,0.286 h 0.176 l 2.2,0.353 h 0.154 a 0.97,0.97 0 0 0 0.11,-0.286 l 0.353,-1.807 a 1.543,1.543 0 0 0 0,-0.793 0.749,0.749 0 0 0 -0.551,-0.309 v -0.22 l 2.2,0.375 V 3.7 a 0.793,0.793 0 0 0 -0.639,0 1.344,1.344 0 0 0 -0.286,0.749 l -0.992,4.914 a 1.168,1.168 0 0 0 0,0.793 c 0,0.154 0.242,0.242 0.529,0.309 v 0.22 l -2.2,-0.375 v -0.22 a 0.793,0.793 0 0 0 0.617,0 1.41,1.41 0 0 0 0.308,-0.727 l 0.4,-2.027 a 0.508,0.508 0 0 0 0,-0.264 h -0.132 l -2.2,-0.375 h -0.2 a 0.618,0.618 0 0 0 -0.11,0.242 l -0.375,2.005 a 1.389,1.389 0 0 0 0,0.793 0.683,0.683 0 0 0 0.551,0.353 v 0.22 z" transform="translate(879.93,-428.848)" fill="#fff" fill-rule="evenodd" style="fill:#214fa0;fill-opacity:1"/>
    <path d="m 132.81,10.24 v -0.22 a 0.705,0.705 0 0 0 0.639,0 1.52,1.52 0 0 0 0.4,-0.683 L 135.476,4.6 a 1.52,1.52 0 0 0 0.132,-0.793 0.815,0.815 0 0 0 -0.507,-0.4 v -0.2 l 2.2,0.683 v 0.2 a 0.837,0.837 0 0 0 -0.639,0 1.344,1.344 0 0 0 -0.4,0.683 l -1.653,4.76 a 1.3,1.3 0 0 0 0,0.771 c 0,0.154 0.2,0.286 0.485,0.375 v 0.22 z" transform="translate(883.312,-428.114)" fill="#fff" fill-rule="evenodd" style="fill:#214fa0;fill-opacity:1"/>
    <path d="m 135.758,9.766 a 1.477,1.477 0 0 0 -0.154,0.815 0.992,0.992 0 0 0 0.507,0.4 v 0.2 L 134.37,10.6 v -0.2 a 0.881,0.881 0 0 0 0.661,0 1.433,1.433 0 0 0 0.4,-0.705 l 1.785,-4.914 a 1.543,1.543 0 0 0 0,-0.617 0.683,0.683 0 0 0 -0.331,-0.331 v -0.2 l 1.234,0.4 1.058,5.928 1.388,-3.812 a 1.433,1.433 0 0 0 0.154,-0.793 0.815,0.815 0 0 0 -0.507,-0.4 v -0.22 l 1.741,0.573 v 0.2 a 0.992,0.992 0 0 0 -0.639,0 1.476,1.476 0 0 0 -0.4,0.727 l -2.2,5.84 h -0.154 l -1.19,-6.721 z" transform="translate(885.19,-427.596)" fill="#fff" fill-rule="evenodd" style="fill:#214fa0;fill-opacity:1"/>
    <path d="m 136.87,11.485 v -0.2 a 0.815,0.815 0 0 0 0.639,0 1.587,1.587 0 0 0 0.441,-0.661 l 2.005,-4.606 a 1.322,1.322 0 0 0 0.154,-0.771 c 0,-0.176 -0.176,-0.309 -0.463,-0.441 v -0.2 L 143.7,6.2 143.105,7.743 h -0.132 a 1.917,1.917 0 0 0 0.11,-0.992 0.925,0.925 0 0 0 -0.617,-0.507 l -0.9,-0.507 a 0.463,0.463 0 0 0 -0.331,0 1.344,1.344 0 0 0 -0.22,0.4 l -0.793,1.829 c 0,0.154 -0.11,0.242 0,0.286 0.11,0.044 0,0 0.154,0.132 l 0.948,0.375 a 1.014,1.014 0 0 0 0.815,0 1.52,1.52 0 0 0 0.529,-0.683 h 0.132 l -1.234,2.446 h -0.154 a 1.454,1.454 0 0 0 0.154,-0.881 c 0,-0.176 -0.264,-0.331 -0.617,-0.485 l -0.97,-0.375 h -0.2 c -0.044,0 0,0 -0.154,0.242 l -0.881,2.049 a 1.674,1.674 0 0 0 -0.154,0.529 c 0,0 0,0.154 0.22,0.22 l 1.124,0.419 a 1.388,1.388 0 0 0 1.08,0 2.71,2.71 0 0 0 0.992,-0.859 v 0.132 l -1.1,1.543 z" transform="translate(888.199,-426.429)" fill="#fff" fill-rule="evenodd" style="fill:#214fa0;fill-opacity:1"/>
    <path d="m 139.4,12.7 0.771,-2.336 h 0.176 a 4.031,4.031 0 0 0 0,1.631 1.036,1.036 0 0 0 0.617,0.793 0.9,0.9 0 0 0 0.837,-0.11 1.719,1.719 0 0 0 0.705,-0.771 1.7,1.7 0 0 0 0.154,-0.793 2.2,2.2 0 0 0 -0.264,-0.837 l -0.485,-0.926 a 2.952,2.952 0 0 1 -0.331,-1.1 2.2,2.2 0 0 1 0.242,-1.08 2.512,2.512 0 0 1 1.036,-1.146 1.5,1.5 0 0 1 1.3,-0.132 1.918,1.918 0 0 1 0.573,0.4 l 0.353,0.309 a 0.154,0.154 0 0 0 0.154,0 0.794,0.794 0 0 0 0.176,-0.2 h 0.132 l -0.815,2.2 h -0.154 a 3.9,3.9 0 0 0 0,-1.5 0.948,0.948 0 0 0 -0.573,-0.727 0.9,0.9 0 0 0 -0.749,0 1.388,1.388 0 0 0 -0.6,0.683 1.146,1.146 0 0 0 -0.154,0.705 2.467,2.467 0 0 0 0.264,0.815 l 0.551,1.014 a 2.932,2.932 0 0 1 0.353,1.146 2.491,2.491 0 0 1 -0.287,1.1 2.688,2.688 0 0 1 -1.124,1.278 1.719,1.719 0 0 1 -1.432,0 2.2,2.2 0 0 1 -0.639,-0.4 l -0.353,-0.264 a 0.242,0.242 0 0 0 -0.176,0 0.287,0.287 0 0 0 -0.176,0.154 z" transform="translate(891.244,-424.998)" fill="#fff" fill-rule="evenodd" style="fill:#214fa0;fill-opacity:1"/>
    <path d="m 141.27,12.886 0.132,-0.2 a 0.749,0.749 0 0 0 0.617,0.176 1.52,1.52 0 0 0 0.573,-0.573 l 2.887,-4.1 a 1.609,1.609 0 0 0 0.331,-0.727 c 0,-0.154 -0.132,-0.331 -0.375,-0.529 l 0.132,-0.176 3.633,2.383 -0.881,1.388 h -0.132 a 1.984,1.984 0 0 0 0.309,-0.97 1.014,1.014 0 0 0 -0.485,-0.617 l -1.08,-0.705 a 0.4,0.4 0 0 0 -0.309,0 0.881,0.881 0 0 0 -0.308,0.331 l -1.166,1.633 a 0.683,0.683 0 0 0 -0.132,0.264 0.213,0.213 0 0 0 0.132,0.176 l 0.859,0.551 a 1.058,1.058 0 0 0 0.771,0.242 1.565,1.565 0 0 0 0.661,-0.573 h 0.11 l -1.476,2.093 h -0.132 a 1.366,1.366 0 0 0 0.331,-0.815 c 0,-0.176 -0.176,-0.4 -0.529,-0.595 l -0.837,-0.573 h -0.2 a 0.947,0.947 0 0 0 -0.22,0.22 l -1.278,1.829 a 1.058,1.058 0 0 0 -0.242,0.485 0.264,0.264 0 0 0 0.176,0.242 l 0.992,0.661 a 1.388,1.388 0 0 0 1.036,0.309 2.645,2.645 0 0 0 1.146,-0.639 v 0.154 l -1.388,1.278 z" transform="translate(893.495,-423.841)" fill="#fff" fill-rule="evenodd" style="fill:#214fa0;fill-opacity:1"/>
    <path d="m 157.866,26.452 -0.154,0.176 a 3.967,3.967 0 0 1 -1.543,-0.573 2.028,2.028 0 0 1 -0.771,-1.036 2.2,2.2 0 0 1 0.441,-2.2 4.606,4.606 0 0 1 2.468,-1.454 5.09,5.09 0 0 1 2.975,0 2.044,2.044 0 0 1 1.653,2.49 2.2,2.2 0 0 0 0,0.573 0.2,0.2 0 0 0 0.154,0.132 0.419,0.419 0 0 0 0.286,0 v 0.132 l -2.2,0.793 v -0.154 a 3.151,3.151 0 0 0 1.278,-1.036 1.212,1.212 0 0 0 0.2,-1.146 1.675,1.675 0 0 0 -1.366,-1.1 6.1,6.1 0 0 0 -4.826,1.366 1.5,1.5 0 0 0 -0.507,1.565 1.631,1.631 0 0 0 0.639,0.9 3.745,3.745 0 0 0 1.278,0.573 z" transform="translate(910.35,-406.534)" fill="#fff" fill-rule="evenodd" style="fill:#214fa0;fill-opacity:1"/>
    <path d="m 155.91,24.99 h 0.22 a 0.705,0.705 0 0 0 0.331,0.529 1.631,1.631 0 0 0 0.815,0 l 4.936,-0.926 a 1.256,1.256 0 0 0 0.727,-0.286 0.749,0.749 0 0 0 0,-0.617 h 0.22 l 0.507,2.2 h -0.22 a 0.578,0.578 0 0 0 -0.353,-0.529 1.542,1.542 0 0 0 -0.793,0 l -4.936,0.926 a 1.278,1.278 0 0 0 -0.749,0.286 0.749,0.749 0 0 0 0,0.617 h -0.22 z" transform="translate(911.116,-403.464)" fill="#fff" fill-rule="evenodd" style="fill:#214fa0;fill-opacity:1"/>
    <path d="m 154.2,22.213 h 0.2 c 0.154,0.264 0.308,0.419 0.463,0.441 a 1.455,1.455 0 0 0 0.793,-0.176 l 4.583,-2.027 a 1.212,1.212 0 0 0 0.639,-0.463 c 0,-0.132 0,-0.331 0,-0.617 h 0.2 l 1.014,2.093 h -0.2 a 0.881,0.881 0 0 0 -0.485,-0.463 1.675,1.675 0 0 0 -0.771,0.2 l -4.584,2.027 a 1.41,1.41 0 0 0 -0.661,0.441 0.794,0.794 0 0 0 0,0.617 l -0.2,0.11 z" transform="translate(909.057,-408.663)" fill="#fff" fill-rule="evenodd" style="fill:#214fa0;fill-opacity:1"/>
    <path d="m 157.572,26.988 a 1.432,1.432 0 0 0 -0.793,0.154 0.837,0.837 0 0 0 -0.176,0.595 h -0.242 l -0.11,-1.829 h 0.22 a 1.058,1.058 0 0 0 0.264,0.573 1.631,1.631 0 0 0 0.815,0.132 l 5.223,-0.154 a 1.278,1.278 0 0 0 0.529,-0.331 0.749,0.749 0 0 0 0.2,-0.419 h 0.22 v 1.322 l -5.134,3.151 h 4.055 a 1.212,1.212 0 0 0 0.793,-0.176 c 0.132,0 0.176,-0.286 0.2,-0.573 h 0.22 v 1.829 h -0.22 a 0.815,0.815 0 0 0 -0.264,-0.573 1.542,1.542 0 0 0 -0.793,-0.132 l -6.236,0.176 V 30.58 l 5.972,-3.724 z" transform="translate(911.525,-401.032)" fill="#fff" fill-rule="evenodd" style="fill:#214fa0;fill-opacity:1"/>
    <path d="m 148.63,16.614 0.154,-0.154 a 0.6,0.6 0 0 0 0.573,0.2 2.2,2.2 0 0 0 0.881,-0.595 L 153.61,13 a 1.939,1.939 0 0 0 0.573,-0.705 0.661,0.661 0 0 0 -0.2,-0.573 l 0.176,-0.132 1.036,1.058 -2.975,5.134 5.465,-2.6 1.015,1.058 -0.154,0.154 c -0.22,-0.2 -0.4,-0.286 -0.551,-0.264 a 2.027,2.027 0 0 0 -0.749,0.507 l -3.57,3.261 a 1.917,1.917 0 0 0 -0.551,0.661 0.794,0.794 0 0 0 0.22,0.573 l -0.154,0.154 -1.543,-1.565 0.176,-0.154 a 0.793,0.793 0 0 0 0.551,0.242 1.741,1.741 0 0 0 0.749,-0.485 l 3.614,-3.305 -5.928,2.821 -0.11,-0.11 3.151,-5.553 -3.5,3.2 a 2.2,2.2 0 0 0 -0.639,0.771 0.617,0.617 0 0 0 0.22,0.573 l -0.154,0.154 z" transform="translate(902.353,-418.028)" fill="#fff" fill-rule="evenodd" style="fill:#214fa0;fill-opacity:1"/>
    <path d="m 150.93,18.517 0.176,-0.132 c 0.2,0.242 0.375,0.353 0.529,0.353 a 1.124,1.124 0 0 0 0.727,-0.331 l 4.121,-2.887 a 1.565,1.565 0 0 0 0.551,-0.551 0.75,0.75 0 0 0 -0.176,-0.617 l 0.176,-0.132 2.622,3.46 -1.3,1.014 v -0.11 a 2.2,2.2 0 0 0 0.617,-0.793 1.014,1.014 0 0 0 -0.264,-0.771 L 157.938,16 a 0.419,0.419 0 0 0 -0.264,-0.2 1.014,1.014 0 0 0 -0.4,0.2 l -1.631,1.168 a 0.661,0.661 0 0 0 -0.22,0.2 v 0.2 l 0.617,0.815 c 0.22,0.309 0.441,0.485 0.639,0.485 a 1.344,1.344 0 0 0 0.793,-0.309 l 0.11,0.132 -2.2,1.454 v -0.11 a 1.653,1.653 0 0 0 0.6,-0.661 0.97,0.97 0 0 0 -0.287,-0.749 L 155.078,17.81 H 154.9 a 0.683,0.683 0 0 0 -0.264,0.132 l -1.836,1.28 a 1.3,1.3 0 0 0 -0.4,0.375 c 0,0 0,0.176 0,0.309 l 0.727,0.926 a 1.41,1.41 0 0 0 0.881,0.661 2.666,2.666 0 0 0 1.3,-0.22 v 0.176 l -1.741,0.727 z" transform="translate(905.122,-414.862)" fill="#fff" fill-rule="evenodd" style="fill:#214fa0;fill-opacity:1"/>
    <path d="m 154.789,20.937 a 1.939,1.939 0 0 0 -0.639,0.529 0.8,0.8 0 0 0 0.176,0.529 2.2,2.2 0 0 0 1.719,0.948 4.407,4.407 0 0 0 2.424,-0.815 3.967,3.967 0 0 0 1.719,-1.851 2.005,2.005 0 0 0 -0.287,-1.939 c -0.154,-0.2 -0.264,-0.286 -0.4,-0.286 a 1.785,1.785 0 0 0 -0.683,0.309 l -4.033,2.578 z m -2.049,-0.529 0.2,-0.132 a 0.661,0.661 0 0 0 0.507,0.375 1.388,1.388 0 0 0 0.749,-0.286 l 4.231,-2.666 A 1.344,1.344 0 0 0 159,17.17 0.639,0.639 0 0 0 158.846,16.553 l 0.2,-0.132 1.366,1.983 a 2.666,2.666 0 0 1 0.441,2.358 4.055,4.055 0 0 1 -1.829,2.093 5.355,5.355 0 0 1 -1.609,0.705 3.68,3.68 0 0 1 -1.543,0 2.512,2.512 0 0 1 -0.992,-0.419 3.9,3.9 0 0 1 -0.9,-0.97 z" transform="translate(907.3,-412.214)" fill="#fff" fill-rule="evenodd" style="fill:#214fa0;fill-opacity:1"/>
    <path d="m 156.3,28.668 h 0.22 a 0.727,0.727 0 0 0 0.242,0.573 1.212,1.212 0 0 0 0.793,0.132 l 5.024,-0.132 a 1.432,1.432 0 0 0 0.771,-0.154 c 0.132,-0.11 0.176,-0.309 0.2,-0.617 h 0.22 l 0.264,4.407 h -1.653 v -0.154 a 1.7,1.7 0 0 0 0.925,-0.331 0.837,0.837 0 0 0 0.22,-0.749 v -1.586 a 0.992,0.992 0 0 0 -0.463,0 h -2.003 a 0.683,0.683 0 0 0 -0.286,0 v 1.212 a 1.1,1.1 0 0 0 0.286,0.771 1.3,1.3 0 0 0 0.837,0.176 v 0.154 h -2.556 v -0.176 a 1.388,1.388 0 0 0 0.859,-0.22 0.97,0.97 0 0 0 0.176,-0.771 V 29.99 a 0.727,0.727 0 0 0 -0.308,0 h -2.2 a 1.124,1.124 0 0 0 -0.529,0 0.612,0.612 0 0 0 -0.11,0.286 v 1.19 a 1.565,1.565 0 0 0 0.371,1.034 3.019,3.019 0 0 0 1.19,0.529 v 0.132 l -1.851,-0.331 z" transform="translate(911.585,-397.71)" fill="#fff" fill-rule="evenodd" style="fill:#214fa0;fill-opacity:1"/>
    <path d="m 83.722,13.016 -0.132,-0.176 1.7,-1.5 0.132,0.176 a 0.793,0.793 0 0 0 -0.286,0.551 2.446,2.446 0 0 0 0.507,0.815 l 2.027,2.534 a 4.077,4.077 0 0 0 1.5,1.278 1.124,1.124 0 0 0 1.234,-0.242 1.366,1.366 0 0 0 0.463,-1.3 3.438,3.438 0 0 0 -0.881,-1.741 l -2.027,-2.49 a 1.807,1.807 0 0 0 -0.705,-0.617 0.705,0.705 0 0 0 -0.595,0.2 L 86.505,10.328 87.843,9.16 88,9.314 a 0.6,0.6 0 0 0 -0.22,0.573 1.851,1.851 0 0 0 0.463,0.815 l 1.939,2.358 a 4.407,4.407 0 0 1 1.1,2.2 1.851,1.851 0 0 1 -0.661,1.675 2.424,2.424 0 0 1 -0.859,0.485 1.587,1.587 0 0 1 -0.9,0 2.005,2.005 0 0 1 -0.837,-0.463 6.965,6.965 0 0 1 -0.97,-0.992 l -1.785,-2.2 a 3.063,3.063 0 0 0 -0.926,-0.881 0.573,0.573 0 0 0 -0.622,0.132 z" transform="translate(824.07,-420.952)" fill="#fff" fill-rule="evenodd" style="fill:#214fa0;fill-opacity:1"/>
    <path d="m 90.044,15.177 c 0.2,0.353 0.375,0.573 0.507,0.617 a 0.727,0.727 0 0 0 0.617,0 v 0.176 l -1.565,0.948 v -0.2 a 0.859,0.859 0 0 0 0.4,-0.507 1.542,1.542 0 0 0 -0.264,-0.771 l -2.512,-4.672 a 1.918,1.918 0 0 0 -0.551,-0.331 0.837,0.837 0 0 0 -0.463,0 l -0.11,-0.11 1.146,-0.683 5.245,3.129 L 90.529,9.2 C 90.287,8.847 90.066,8.561 89.912,8.561 a 1.365,1.365 0 0 0 -0.595,0.11 v -0.2 l 1.565,-0.948 v 0.2 a 0.859,0.859 0 0 0 -0.4,0.507 1.543,1.543 0 0 0 0.264,0.771 l 3,5.465 H 93.614 L 87.752,10.94 Z" transform="translate(827.091,-422.914)" fill="#fff" fill-rule="evenodd" style="fill:#214fa0;fill-opacity:1"/>
    <path d="m 92.092,14.617 v -0.2 c 0.242,-0.176 0.4,-0.331 0.419,-0.507 a 1.476,1.476 0 0 0 -0.264,-0.771 l -2.4,-4.407 a 1.256,1.256 0 0 0 -0.507,-0.595 0.749,0.749 0 0 0 -0.617,0 v -0.2 L 90.7,6.75 v 0.22 c -0.242,0.154 -0.4,0.331 -0.4,0.485 a 1.3,1.3 0 0 0 0.242,0.771 l 2.4,4.407 a 1.388,1.388 0 0 0 0.529,0.617 0.705,0.705 0 0 0 0.595,-0.11 l 0.132,0.2 z" transform="translate(830.245,-423.853)" fill="#fff" fill-rule="evenodd" style="fill:#214fa0;fill-opacity:1"/>
    <path d="m 95.433,13.784 -4.121,-4.76 a 4.275,4.275 0 0 0 -0.793,-0.793 0.507,0.507 0 0 0 -0.529,0 v -0.2 l 1.917,-0.97 v 0.22 a 1.168,1.168 0 0 0 -0.375,0.331 0.352,0.352 0 0 0 0,0.331 6.346,6.346 0 0 0 0.837,1.1 l 2.578,2.931 -0.529,-4.65 V 6.908 a 2.2,2.2 0 0 0 0,-0.264 c 0,-0.154 -0.154,-0.242 -0.264,-0.264 a 0.992,0.992 0 0 0 -0.463,0 v -0.2 l 1.366,-0.661 v 0.2 a 0.485,0.485 0 0 0 -0.22,0.375 2.954,2.954 0 0 0 0,0.948 l 0.859,6.611 z" transform="translate(831.773,-425.333)" fill="#fff" fill-rule="evenodd" style="fill:#214fa0;fill-opacity:1"/>
    <path d="m 94.876,13.408 v -0.2 c 0.286,-0.132 0.441,-0.264 0.485,-0.419 A 1.521,1.521 0 0 0 95.229,12 L 93.466,7.26 a 1.3,1.3 0 0 0 -0.4,-0.661 H 92.43 V 6.4 L 96.485,4.77 97.1,6.313 h -0.132 a 2.2,2.2 0 0 0 -0.595,-0.793 0.926,0.926 0 0 0 -0.793,0 l -1.212,0.463 a 0.291,0.291 0 0 0 -0.242,0.2 0.815,0.815 0 0 0 0,0.441 l 0.683,1.9 q 0,0.242 0.132,0.264 a 0.264,0.264 0 0 0 0.22,0 l 0.925,-0.375 a 1.036,1.036 0 0 0 0.661,-0.485 1.432,1.432 0 0 0 0,-0.859 H 96.9 l 0.881,2.4 h -0.154 a 1.542,1.542 0 0 0 -0.485,-0.749 1.036,1.036 0 0 0 -0.793,0 l -0.948,0.4 c 0,0 -0.154,0 -0.154,0.132 V 9.53 l 0.639,2.358 a 1.344,1.344 0 0 0 0.242,0.485 0.286,0.286 0 0 0 0.309,0 l 1.1,-0.441 a 1.631,1.631 0 0 0 0.881,-0.683 2.732,2.732 0 0 0 0,-1.3 H 98.6 l 0.242,1.9 z" transform="translate(834.71,-426.236)" fill="#fff" fill-rule="evenodd" style="fill:#214fa0;fill-opacity:1"/>
    <path d="m 97.276,7.8 a 0.529,0.529 0 0 0 0,0.2 h 0.154 a 1.829,1.829 0 0 0 1.146,-0.815 1.7,1.7 0 0 0 0,-1.366 1.653,1.653 0 0 0 -0.683,-1.036 1.344,1.344 0 0 0 -1.146,0 0.378,0.378 0 0 0 -0.353,0.242 0.793,0.793 0 0 0 0,0.485 l 0.705,2.2 z m -0.287,4.4 v -0.22 0 a 0.661,0.661 0 0 0 0.441,-0.4 1.829,1.829 0 0 0 0,-0.837 L 95.954,5.922 A 1.124,1.124 0 0 0 95.579,5.261 H 94.94 V 5.041 L 97.276,4.2 a 1.653,1.653 0 0 1 1.388,0 2.027,2.027 0 0 1 0.815,1.278 2.556,2.556 0 0 1 0,1.278 1.829,1.829 0 0 1 -0.683,0.97 26.294,26.294 0 0 0 2.204,2.031 c 0.507,0.375 0.749,0.551 0.9,0.529 v 0.2 l -1.1,0.375 C 100.359,10.486 99.9,10.09 99.434,9.649 L 98,8.214 97.714,8.346 a 0.265,0.265 0 0 0 0,0.22 l 0.529,1.763 a 1.367,1.367 0 0 0 0.4,0.749 0.551,0.551 0 0 0 0.595,0 v 0 0.22 z" transform="translate(837.731,-427.102)" fill="#fff" fill-rule="evenodd" style="fill:#214fa0;fill-opacity:1"/>
    <path d="m 101.124,10.6 v -0.22 a 0.705,0.705 0 0 0 0.529,-0.331 1.256,1.256 0 0 0 0,-0.793 l -0.749,-4.98 a 1.454,1.454 0 0 0 -0.264,-0.727 0.749,0.749 0 0 0 -0.639,-0.2 v -0.22 l 2.2,-0.419 v 0.22 a 0.815,0.815 0 0 0 -0.551,0.331 1.344,1.344 0 0 0 0,0.815 l 0.749,4.958 a 1.146,1.146 0 0 0 0.264,0.727 c 0,0.132 0.309,0.154 0.6,0 V 10 Z" transform="translate(843.821,-428.716)" fill="#fff" fill-rule="evenodd" style="fill:#214fa0;fill-opacity:1"/>
    <path d="m 103.569,10.393 v -0.22 a 0.771,0.771 0 0 0 0.595,-0.309 2.027,2.027 0 0 0 0,-0.948 L 103.481,3.605 V 3.342 c 0,-0.022 -0.11,0 -0.264,0 h -0.132 a 1.256,1.256 0 0 0 -0.948,0.463 2.2,2.2 0 0 0 -0.154,1.212 h -0.154 l -0.2,-1.917 4.539,-0.749 0.242,1.917 h -0.154 a 2.2,2.2 0 0 0 -0.441,-1.146 1.565,1.565 0 0 0 -1.146,-0.11 c -0.176,0 -0.264,0 -0.286,0.11 a 0.838,0.838 0 0 0 0,0.286 l 0.683,5.245 a 1.273,1.273 0 0 0 0.286,0.948 0.854,0.854 0 0 0 0.639,0.11 v 0.22 z" transform="translate(845.783,-429.149)" fill="#fff" fill-rule="evenodd" style="fill:#214fa0;fill-opacity:1"/>
    <path d="m 105.863,9.636 v -0.22 0 a 0.683,0.683 0 0 0 0.551,-0.22 1.3,1.3 0 0 0 0.154,-0.749 V 6.4 l -1.7,-3.349 A 1.013,1.013 0 0 0 104.537,2.61 0.881,0.881 0 0 0 104.096,2.456 v -0.22 h 2.336 v 0.22 l -0.463,0.132 a 0.331,0.331 0 0 0 -0.132,0.242 1.808,1.808 0 0 0 0.132,0.441 v 0 l 1.234,2.512 1.08,-2.446 a 2.781,2.781 0 0 0 0.2,-0.463 0.971,0.971 0 0 0 0,-0.22 0.264,0.264 0 0 0 0,-0.22 1.41,1.41 0 0 0 -0.441,0 V 2.1 h 1.587 v 0.22 a 0.705,0.705 0 0 0 -0.4,0.22 3.592,3.592 0 0 0 -0.4,0.705 l -1.432,3.041 v 2.2 a 0.926,0.926 0 0 0 0.154,0.639 c 0,0.132 0.309,0.176 0.617,0.176 v 0.242 z" transform="translate(848.756,-429.45)" fill="#fff" fill-rule="evenodd" style="fill:#214fa0;fill-opacity:1"/>
    <path d="m 99.828,11.245 -0.992,-2.2 h 0.154 a 4.827,4.827 0 0 0 1.19,1.278 1.41,1.41 0 0 0 1.1,0.309 0.837,0.837 0 0 0 0.639,-0.529 1.322,1.322 0 0 0 0,-0.97 1.763,1.763 0 0 0 -0.419,-0.705 3.041,3.041 0 0 0 -0.837,-0.529 l -1.08,-0.485 a 3.173,3.173 0 0 1 -1.08,-0.705 2.357,2.357 0 0 1 -0.573,-0.97 1.983,1.983 0 0 1 0,-1.432 1.388,1.388 0 0 1 1.036,-0.749 1.52,1.52 0 0 1 0.771,0 h 0.507 a 0.137,0.137 0 0 0 0.132,-0.11 0.529,0.529 0 0 0 0,-0.264 h 0.132 l 0.837,2.2 h -0.176 a 4.033,4.033 0 0 0 -1.014,-1.19 1.234,1.234 0 0 0 -1.014,-0.286 0.837,0.837 0 0 0 -0.595,0.441 1.08,1.08 0 0 0 0,0.837 1.741,1.741 0 0 0 0.4,0.639 2.468,2.468 0 0 0 0.815,0.507 l 1.19,0.529 a 3.547,3.547 0 0 1 1.124,0.727 2.622,2.622 0 0 1 0.551,1.014 2.049,2.049 0 0 1 0,1.587 1.565,1.565 0 0 1 -1.146,0.815 2.2,2.2 0 0 1 -0.837,0 h -0.507 c 0,0 -0.132,0 -0.154,0.11 a 0.242,0.242 0 0 0 0,0.22 z" transform="translate(841.173,-428.15)" fill="#fff" fill-rule="evenodd" style="fill:#214fa0;fill-opacity:1"/>
    <path d="m 167.108,30.47 a 40.571,40.571 0 0 1 4.407,-6.39 c 0.661,-0.242 1.014,0 1.036,0.992 a 16.835,16.835 0 0 1 -5.333,5.4 z M 125.7,104.136 c 0.815,0.463 0.573,-0.132 1.168,-0.132 a 3.79,3.79 0 0 0 0.353,-2.6 c -0.881,-0.727 -0.375,-0.881 -1.961,-1.278 a 31.31,31.31 0 0 0 0.551,4.011 z m -7.052,-0.375 v -2.909 c 1.454,0.264 2.4,-1.344 2.8,-2.931 a 1.278,1.278 0 0 0 0.176,-1.565 13.221,13.221 0 0 0 -2.865,-0.793 1.543,1.543 0 0 1 -0.551,-1.168 h 1.719 a 0.309,0.309 0 0 0 -0.2,-0.353 c 0.11,-1.146 0,-2.358 0.926,-2.732 0.485,-0.463 0.242,-0.948 0.375,-1.653 h 1.08 v 2.865 a 6.611,6.611 0 0 0 -1.5,2.644 12.3,12.3 0 0 1 4.187,1.454 9.344,9.344 0 0 0 1.653,-1.829 c 0.661,-0.331 1.256,-0.661 1.08,-1.587 -1.917,-1.234 -3.768,-0.9 -4.561,-2.2 a 0.926,0.926 0 0 1 1.1,-0.132 32.193,32.193 0 0 1 5.046,2.424 1.432,1.432 0 0 1 0.793,1.719 c -1.1,0.661 -4.253,2.38 -4.407,3.5 -0.992,-0.793 -2.865,-1.741 -2.358,-0.485 0.353,0.375 0.441,1.234 0,1.476 a 9.851,9.851 0 0 1 -2.666,3.526 c -0.353,0.507 -0.551,1.19 -1.763,0.9 z m -2.2,-4.407 0.485,0.2 a 8.815,8.815 0 0 1 1.763,-1.344 2.2,2.2 0 0 0 0.485,-1.939 3.812,3.812 0 0 1 -2.2,0.727 c -0.286,0.837 -0.727,0.815 -0.551,2.358 z m 8.219,-4.121 1.033,-0.133 a 2.005,2.005 0 0 0 -1.036,-1.565 14.938,14.938 0 0 1 -2.005,-0.551 0.749,0.749 0 0 0 -0.176,1.08 c 0.375,0.419 1.1,0.309 2.2,1.168 z m 8.219,-2.071 h 0.9 c -0.154,-1.1 -0.353,-1.587 -0.485,-2.688 a 33.518,33.518 0 0 1 -4.033,-1.1 5.157,5.157 0 0 1 0.154,-2.336 c -0.132,-0.485 -0.485,-0.9 -0.353,-1.322 -0.859,-0.264 -1.476,-0.859 -2.49,-0.551 -0.22,0 -0.331,0.595 -0.176,0.793 1.014,0 0,1.146 0,2.556 a 40.66,40.66 0 0 0 -5.289,-2.622 c -0.22,0.2 -1.014,0.441 -0.793,0.9 0.221,0.459 0.617,0.573 0.485,0.859 a 17.8,17.8 0 0 1 3.173,1.036 40.084,40.084 0 0 1 8.814,4.562 z M 94.852,91.488 a 3.658,3.658 0 0 0 2.2,-1.939 c 0.242,-0.375 0.573,-0.132 1.1,-0.551 0,-0.331 0.837,-0.837 1.1,-1.1 a 1.034,1.034 0 0 0 0.286,-0.9 2.336,2.336 0 0 1 1.9,0.353 c 0,0.154 0.2,0.4 0.375,0.375 0.175,-0.025 0.308,-0.463 0.176,-1.278 a 1.5,1.5 0 0 1 -0.727,-1.454 c 0.859,0.132 1.3,0.529 2.2,0.419 0.353,-1.08 -1.146,-0.881 -0.727,-1.873 1.014,0 1.278,-0.154 2.314,-0.2 0.507,0.529 0.992,0.771 1.521,1.278 a 9.608,9.608 0 0 1 1.917,0.419 6.148,6.148 0 0 1 -1.829,2.755 30.655,30.655 0 0 1 -3.107,1.256 3.746,3.746 0 0 0 -0.573,2.6 c 1.675,0.309 4.253,-1.785 4.407,-1.807 a 20.558,20.558 0 0 0 2.556,-2.2 3.416,3.416 0 0 0 -0.353,-3.239 c -1.675,0.639 -1.9,-0.441 -1.917,-0.485 a 2.468,2.468 0 0 0 -2.005,-1.1 1.565,1.565 0 0 0 0,-1.565 1.058,1.058 0 0 0 -1.631,-0.375 c -0.22,0.441 -0.242,0.507 -0.727,0.441 -0.154,-0.617 -0.331,-0.992 0.176,-1.344 l 1.1,-1.08 c 0.705,-0.22 1.609,-0.463 2.2,0 0.591,0.463 0.529,0.705 1.036,0.529 1.653,-1.058 -0.308,-1.653 -1.278,-2.358 0.881,-1.058 3.526,-3.085 2.424,-4.562 -0.22,0 -1.807,-0.507 -2.2,0.176 0,0.573 0.242,1.476 -0.242,1.829 -0.9,0.97 -1.168,1.256 -2.027,2.314 -0.771,-0.22 -1.256,-0.859 -2.005,-0.2 0.551,0.309 0.639,0.9 0.749,1.521 -0.529,0.617 -0.375,1.212 -1.036,1.763 -0.948,0 -0.97,-0.948 -1.521,-1.322 a 1.454,1.454 0 0 1 -1.234,0.22 0.705,0.705 0 0 0 -1.146,0.264 c 0.573,0.573 0.881,0.859 1.454,1.454 a 6.193,6.193 0 0 1 -0.353,2.005 h -0.837 a 0.97,0.97 0 0 0 0.529,1.1 0.573,0.573 0 0 1 0.2,0.727 14.631,14.631 0 0 1 -2.931,-0.375 V 84.7 a 1.454,1.454 0 0 1 1.454,1.1 16.373,16.373 0 0 0 -2.975,5.773 z M 92.736,84.15 v -1.52 a 8.594,8.594 0 0 0 1.146,-1.52 30.039,30.039 0 0 0 2.446,-4.41 1.565,1.565 0 0 1 0.419,1.9 1.609,1.609 0 0 1 -0.727,1.829 1.961,1.961 0 0 0 -0.551,1.807 1.212,1.212 0 0 1 -1.1,0.375 v 0.551 a 2.2,2.2 0 0 1 -1.7,0.97 z m 7.36,-1.278 c 0.353,-0.837 0.353,-1.5 1.256,-1.5 a 4.959,4.959 0 0 1 1.454,0.705 c -0.727,0.22 -1.124,0.529 -1.212,0.9 z m 87.858,39.158 v -3.173 l -3.239,3.063 z m 0,2.38 v -1.61 h -4.407 v -0.771 l 4.738,-4.407 h 1.036 v 4.407 h 1.388 v 0.771 h -1.388 v 1.609 z m -15.712,-1.631 h 1.258 a 1.5,1.5 0 0 0 0.639,0.97 2.358,2.358 0 0 0 1.212,0.309 2.2,2.2 0 0 0 1.454,-0.463 1.432,1.432 0 0 0 0.617,-1.19 1.3,1.3 0 0 0 -0.573,-1.124 2.49,2.49 0 0 0 -1.52,-0.419 3.085,3.085 0 0 0 -1.036,0.176 2.006,2.006 0 0 0 -0.727,0.485 l -1.124,-0.11 0.948,-3.482 h 4.826 v 0.793 h -3.878 l -0.507,1.829 a 4.077,4.077 0 0 1 1.829,-0.441 3.57,3.57 0 0 1 2.2,0.639 1.807,1.807 0 0 1 0.881,1.565 2.2,2.2 0 0 1 -0.837,1.5 3.7,3.7 0 0 1 -2.556,0.815 3.966,3.966 0 0 1 -2.2,-0.529 1.807,1.807 0 0 1 -0.948,-1.366 z m -7.03,-2.931 a 1.344,1.344 0 0 0 -0.551,-1.146 2.2,2.2 0 0 0 -1.344,-0.419 2.314,2.314 0 0 0 -1.432,0.463 1.41,1.41 0 0 0 -0.6,1.168 1.234,1.234 0 0 0 0.573,1.058 2.424,2.424 0 0 0 1.41,0.4 2.38,2.38 0 0 0 1.41,-0.4 1.322,1.322 0 0 0 0.529,-1.124 z m -4.936,2.887 h 1.168 a 1.41,1.41 0 0 0 0.573,0.815 2.005,2.005 0 0 0 1.08,0.264 2.755,2.755 0 0 0 0.992,-0.176 2.2,2.2 0 0 0 0.705,-0.485 2.688,2.688 0 0 0 0.463,-0.793 3.172,3.172 0 0 0 0.176,-1.014 v -0.176 a 2.886,2.886 0 0 1 -1.014,0.661 3.967,3.967 0 0 1 -1.366,0.242 3.415,3.415 0 0 1 -2.2,-0.617 1.873,1.873 0 0 1 -0.859,-1.609 1.917,1.917 0 0 1 0.881,-1.653 3.658,3.658 0 0 1 2.2,-0.639 4.407,4.407 0 0 1 1.785,0.353 2.909,2.909 0 0 1 1.212,1.014 3.548,3.548 0 0 1 0.419,1.917 4.209,4.209 0 0 1 -0.419,2.071 2.644,2.644 0 0 1 -1.234,1.168 4.1,4.1 0 0 1 -1.917,0.419 3.856,3.856 0 0 1 -1.917,-0.441 1.829,1.829 0 0 1 -0.881,-1.256 z m -7.845,1.609 h -1.344 V 119.1 a 5.663,5.663 0 0 1 -1.256,0.573 13.9,13.9 0 0 1 -1.388,0.441 v -0.705 a 9.871,9.871 0 0 0 1.939,-0.793 3.966,3.966 0 0 0 1.19,-0.9 h 0.859 v 6.721 z M 140.709,95.168 v 7.232 c 0.529,0.661 1.124,0.286 2.027,-1.014 h 2.931 a 13.221,13.221 0 0 1 -1.7,6.611 c 0.22,1.41 0.242,2.865 1.058,3.173 a 7.1,7.1 0 0 0 1.5,-3.085 46.917,46.917 0 0 1 1.058,-6.258 12.605,12.605 0 0 1 2.732,0 7.139,7.139 0 0 0 3.041,1.234 v -3.79 l 0.859,-0.242 v -0.837 a 2.732,2.732 0 0 0 -1.917,-2.2 c -0.441,0.375 -1.014,0.595 -1.322,1.1 h -2.512 a 2.578,2.578 0 0 1 0.331,-2.49 4.539,4.539 0 0 0 0,-2.755 L 147.364,91 c -0.154,0.132 -0.727,0 -0.617,0.154 l -0.463,0.837 0.705,0.926 c -0.242,1.653 -0.308,4.165 -1.5,4.165 l -1.983,0.154 c 0,0.264 0.309,0.507 0.463,0.749 h 1.7 c 0.242,1.278 0.242,2.2 -0.242,2.644 h -3.482 v -3.35 h 0.705 v -0.353 c -0.815,-0.815 -1.3,-1.565 -1.983,-1.609 z m 8.131,2.8 h 2.336 q 0.948,0.749 0,1.521 v 1.08 h -3.416 v -0.595 c 0.859,0 0.353,-1.278 1.146,-1.939 z m 11.15,4.628 a 14.253,14.253 0 0 0 1.322,1.454 h 1.763 c 0.308,-0.22 0.749,-0.463 1.08,-0.683 h 1.873 a 2.49,2.49 0 0 1 2.2,-0.353 v 0.705 a 2.644,2.644 0 0 1 -2.2,0.9 l -0.132,4.892 h -0.286 v 1.521 a 0.97,0.97 0 0 0 1.5,0 v -0.308 l 5.046,-0.242 v 1.146 a 1.278,1.278 0 0 0 1.917,0 l 0.132,-5.6 c 0.573,-0.705 0.242,-1.653 -0.97,-2.821 l -1.851,-0.2 v -0.529 h 0.353 v -0.375 a 47.906,47.906 0 0 1 8,0.617 c 0.771,-0.441 0.595,-1.1 -0.242,-1.873 a 2.754,2.754 0 0 0 -1.983,0.309 c -5.619,0.132 -11.5,0.992 -17.629,1.256 z m 10.864,-6.611 0.97,-0.992 a 3.57,3.57 0 0 1 0.4,-2.512 h 1.276 a 8.815,8.815 0 0 0 0.661,2.688 2.027,2.027 0 0 0 1.939,0.2 0.375,0.375 0 0 0 0.2,-0.573 0.683,0.683 0 0 1 -0.2,-0.793 6.612,6.612 0 0 1 -1.146,0.2 32.833,32.833 0 0 1 -0.793,-3.305 H 173.5 v 0.793 a 3.989,3.989 0 0 1 -2.2,-0.4 9.167,9.167 0 0 0 -0.771,4.275 l 0.375,0.4 z m -6.17,-3.019 4.407,-0.353 V 91.73 l -0.992,0.176 -3,0.529 a 0.683,0.683 0 0 0 -0.419,0.529 z m -1.036,8.109 c 0,-0.154 -0.22,-0.286 -0.375,-0.375 -0.155,-0.089 0.2,-0.353 0.375,-0.375 v -6.612 c 0.264,0 1.719,1.234 0.771,1.322 v 4.892 h 3.107 a 1.036,1.036 0 0 1 0.771,-0.573 12.317,12.317 0 0 0 1.543,0.2 v 0.749 a 13.728,13.728 0 0 0 -3.548,0.176 c -2.2,0 -1.609,0.705 -2.644,0.573 z m 5.024,-2.2 h 0.749 V 97.7 a 1.256,1.256 0 0 1 -1.146,-0.375 1.675,1.675 0 0 0 0.4,1.543 z m -3.636,0.264 a 1.168,1.168 0 0 0 1.322,-0.573 0.617,0.617 0 0 1 0.749,-0.2 6.148,6.148 0 0 0 0.375,-1.873 h 1.9 a 0.97,0.97 0 0 0 -0.573,-1.124 0.749,0.749 0 0 1 -0.948,0.375 1.3,1.3 0 0 1 0.4,-1.146 h 0.837 v -0.749 a 1.7,1.7 0 0 1 -1.7,-0.375 0.375,0.375 0 0 0 -0.573,-0.176 6.9,6.9 0 0 1 -0.926,1.675 7.932,7.932 0 0 0 -0.573,1.146 0.97,0.97 0 0 0 1.124,-0.573 0.6,0.6 0 0 1 0.749,-0.176 1.212,1.212 0 0 1 -0.375,1.124 1.565,1.565 0 0 0 -1.5,0.375 0.617,0.617 0 0 0 0.176,0.749 0.727,0.727 0 0 1 0.948,-0.375 2.38,2.38 0 0 1 -1.322,1.9 z m 10.159,2.071 a 0.529,0.529 0 0 0 -0.771,-0.375 3.217,3.217 0 0 0 -1.5,-1.322 6.39,6.39 0 0 0 -2.468,1.322 0.639,0.639 0 0 1 -0.176,-0.771 1.344,1.344 0 0 1 1.124,-0.375 1.19,1.19 0 0 0 0.375,-1.124 h -1.124 a 0.661,0.661 0 0 0 -0.375,-0.573 2.38,2.38 0 0 1 2.2,0.2 3.437,3.437 0 0 1 0.749,-1.322 3.2,3.2 0 0 1 -1.9,-0.573 6.369,6.369 0 0 1 2.644,-0.375 1.587,1.587 0 0 1 0.375,1.521 0.793,0.793 0 0 0 -0.749,0.926 31.334,31.334 0 0 0 3.79,2.2 2.534,2.534 0 0 1 -2.2,0.573 z m -8.043,3.922 h 0.661 v 1.014 l -0.727,0.485 v 0.309 h 1.146 a 2.931,2.931 0 0 0 1.212,-1.807 h 0.837 v 1.5 a 3.856,3.856 0 0 0 2.2,0.419 l -0.242,2.644 c -1.3,0 -2.2,0.617 -4.1,0.793 H 167 c 0,-0.507 0.286,-1.366 -0.309,-1.521 l 0.2,-2.777 h 0.309 v -1.08 z m 2.2,-2.358 h 0.771 v 1.146 H 169.4 v -1.08 z m 1.631,1.939 h 1.5 v 1.08 c -0.661,0.11 -1.168,-0.264 -1.5,-1.124 z m -3.57,3.482 h 4.275 v 0.727 c -2.578,0 -3.283,0.551 -4.143,0 z m 28.845,1.212 h 0.948 a 4.407,4.407 0 0 0 0.2,-2.666 6.766,6.766 0 0 1 0.176,-4.561 5.553,5.553 0 0 0 3.418,-0.58 14.5,14.5 0 0 1 3.041,-0.573 v -0.749 a 10.225,10.225 0 0 0 -4.165,0.375 2.2,2.2 0 0 1 -1.917,0.749 8.242,8.242 0 0 1 -0.551,-3.79 9.036,9.036 0 0 0 0.176,-3.438 5.839,5.839 0 0 0 -2.2,0.4 1.3,1.3 0 0 1 0.4,-1.146 h -1.924 a 3.262,3.262 0 0 0 0.2,-1.52 l -0.948,-2.2 h -1.522 a 2.2,2.2 0 0 0 0.573,1.917 1.1,1.1 0 0 1 0.176,1.124 1.124,1.124 0 0 0 -1.322,0.4 2.2,2.2 0 0 0 -0.948,0.749 4.1,4.1 0 0 1 2.843,0.375 0.375,0.375 0 0 0 0.573,0.2 0.353,0.353 0 0 1 0.375,-0.2 15.422,15.422 0 0 1 -0.948,1.917 c 0.375,1.9 0.573,2.843 0.948,4.76 a 4.562,4.562 0 0 1 2.666,-0.573 1.278,1.278 0 0 1 0.4,1.124 1.5,1.5 0 0 0 -1.719,0.4 2.2,2.2 0 0 0 -0.948,0.749 7.911,7.911 0 0 0 -3.438,0.4 l -1.124,0.749 a 2.2,2.2 0 0 0 -2.2,0.375 0.353,0.353 0 0 0 -0.2,0.375 2.005,2.005 0 0 0 1.9,0.2 11.018,11.018 0 0 0 3.438,-1.146 3.79,3.79 0 0 1 2.644,-0.375 0.331,0.331 0 0 0 0.4,0.176 v 3.796 a 0.9,0.9 0 0 0 -0.573,1.146 l 1.146,1.146 z m -0.4,-15.976 a 0.353,0.353 0 0 1 0.22,-0.4 2.2,2.2 0 0 0 -0.419,-1.543 1.983,1.983 0 0 0 0.419,-1.917 7.188,7.188 0 0 1 0.2,-1.168 4.738,4.738 0 0 1 1.873,1.168 8.683,8.683 0 0 0 -0.22,1.543 0.375,0.375 0 0 0 0.419,-0.2 9.433,9.433 0 0 0 2.071,0.2 v 1.146 h -2.688 a 2.2,2.2 0 0 1 -1.868,1.167 z m 2.336,6.743 V 99.4 h 0.749 a 1.19,1.19 0 0 0 0.375,-1.124 1.256,1.256 0 0 0 -1.124,-0.4 2.2,2.2 0 0 1 0.375,-2.093 2.2,2.2 0 0 0 0.375,-2.2 l 1.521,0.4 a 0.6,0.6 0 0 1 -0.176,0.749 0.992,0.992 0 0 0 -0.573,1.146 1.234,1.234 0 0 1 -1.146,0.375 v 0.771 l 1.52,0.375 a 5.8,5.8 0 0 0 0.375,-2.2 h 0.771 a 1.565,1.565 0 0 1 0.375,1.5 12.163,12.163 0 0 0 -1.9,2.093 1.5,1.5 0 0 0 1.719,-0.551 0.375,0.375 0 0 0 -0.2,-0.573 1.5,1.5 0 0 1 1.521,0.375 0.727,0.727 0 0 1 0.375,0.948 0.617,0.617 0 0 1 -0.749,0.2 2.534,2.534 0 0 0 -2.468,0.573 1.5,1.5 0 0 1 -1.719,0.375 z m -6.875,7.448 a 0.309,0.309 0 0 0 -0.353,-0.353 4.407,4.407 0 0 1 0.881,-2.512 0.705,0.705 0 0 1 0.9,-0.353 3.548,3.548 0 0 1 -0.176,2.2 0.97,0.97 0 0 0 -0.529,1.08 z m 9.784,-1.543 a 0.639,0.639 0 0 0 -0.2,-0.771 6.61,6.61 0 0 1 -0.948,-1.719 2.424,2.424 0 0 1 1.719,-0.176 l 0.771,0.749 a 2.865,2.865 0 0 1 0.573,1.917 z m -9.255,-5.421 v -1.08 h 0.992 v 0.992 z m -2.093,2.2 a 0.749,0.749 0 0 0 -0.992,-0.4 v -0.9 h 0.793 v -1.19 a 1.5,1.5 0 0 0 -1.388,-0.375 8.946,8.946 0 0 0 0.992,-4.407 1.322,1.322 0 0 1 1.19,0.375 4.627,4.627 0 0 1 -0.992,2.755 0.551,0.551 0 0 0 0.6,0.595 6.765,6.765 0 0 0 1.168,-2.358 0.683,0.683 0 0 1 0.793,0.2 3.9,3.9 0 0 1 -1.565,3.327 1.322,1.322 0 0 0 1.366,0.2 l -1.961,1.983 z m 4.407,-5.619 a 1.609,1.609 0 0 1 -0.4,-1.543 h 1.939 a 0.837,0.837 0 0 1 0.595,1.146 2.2,2.2 0 0 1 -2.2,0.4 z m 0.331,2.71 a 2.2,2.2 0 0 1 -0.2,-1.543 1.631,1.631 0 0 1 1.565,-0.4 1.454,1.454 0 0 1 0.375,0.97 7.494,7.494 0 0 0 -1.741,0.97 z m 18.753,1.565 a 4.98,4.98 0 0 0 2.8,-2.2 0.881,0.881 0 0 1 0.793,-0.992 15.14,15.14 0 0 1 0.4,-3.989 27.236,27.236 0 0 1 4.011,2.2 2.666,2.666 0 0 0 2.005,1.785 3.592,3.592 0 0 0 2.005,1.212 0.507,0.507 0 0 1 0.793,-0.22 8.44,8.44 0 0 0 3.988,-1.983 v -0.595 a 5.994,5.994 0 0 1 -3.592,-0.617 0.97,0.97 0 0 1 -0.793,-0.595 5.2,5.2 0 0 1 -3.2,-0.595 19.59,19.59 0 0 1 -5.4,-3.394 1.212,1.212 0 0 0 1.388,-0.595 1.322,1.322 0 0 1 1.212,-0.419 12.494,12.494 0 0 1 1.587,-0.2 v -0.793 h 0.793 v -0.97 a 5.773,5.773 0 0 0 -1.983,-0.617 4.407,4.407 0 0 0 -1.807,1.41 h -1.41 a 9.982,9.982 0 0 0 -0.176,-1.609 0.353,0.353 0 0 0 0.176,-0.4 0.639,0.639 0 0 1 -0.793,-0.2 0.4,0.4 0 0 0 0.2,-0.595 10.089,10.089 0 0 0 -0.595,-2.4 2.2,2.2 0 0 1 -1.587,0.2 0.617,0.617 0 0 0 -0.22,0.992 16.244,16.244 0 0 1 0.815,2.4 c 0.154,1.278 0.22,1.917 0.4,3.2 a 23.579,23.579 0 0 0 -3.394,2.2 0.661,0.661 0 0 1 -0.815,0.2 v 0.815 a 2.8,2.8 0 0 0 2.6,-0.4 6.611,6.611 0 0 0 2.2,-1.41 12.4,12.4 0 0 1 -0.2,3 8.11,8.11 0 0 1 -1.609,4.011 5.465,5.465 0 0 0 -0.6,1.983 z m 26.443,-9.7 a 5.553,5.553 0 0 0 3.416,-0.551 1.344,1.344 0 0 0 0.749,-1.322 41.616,41.616 0 0 1 -1.9,-4.165 h 0.749 v -0.749 a 1.7,1.7 0 0 0 1.7,-0.375 1.344,1.344 0 0 0 0.573,-1.52 2.2,2.2 0 0 0 -2.071,0.4 l -1.124,1.124 h -1.322 v -3.129 a 1.476,1.476 0 0 0 -1.719,0.375 c 0.176,0.9 0.242,1.366 0.4,2.2 a 0.727,0.727 0 0 1 -0.948,0.375 1.609,1.609 0 0 1 0.375,-1.521 32.5,32.5 0 0 0 -3.394,2.2 1.234,1.234 0 0 0 0.375,1.146 1.344,1.344 0 0 0 1.521,-0.573 1.3,1.3 0 0 1 1.5,-0.573 0.485,0.485 0 0 0 0.749,0.2 0.639,0.639 0 0 1 0.771,-0.2 0.749,0.749 0 0 1 -0.4,0.948 10.467,10.467 0 0 0 -4.143,3.019 0.375,0.375 0 0 0 -0.2,0.573 1.52,1.52 0 0 0 1.719,0.375 1.234,1.234 0 0 1 0.375,-1.146 5.465,5.465 0 0 0 2.821,-2.2 h 0.948 a 4.407,4.407 0 0 1 0.176,2.644 3.945,3.945 0 0 0 -1.7,2.2 z m -7.8,-3.261 -0.97,-0.97 a 0.9,0.9 0 0 1 -0.2,-1.366 0.881,0.881 0 0 0 -0.2,-1.366 1.08,1.08 0 0 1 1.168,-0.595 6.437,6.437 0 0 1 -0.375,-1.939 4.716,4.716 0 0 1 -1.565,-2.2 1.168,1.168 0 0 1 -0.4,-1.388 h 0.97 a 18.048,18.048 0 0 0 1.565,3.217 1.388,1.388 0 0 1 0.6,1.565 1.036,1.036 0 0 0 1.168,-0.573 51.5,51.5 0 0 0 -3.129,-5.465 0.881,0.881 0 0 1 1.366,0.176 1.388,1.388 0 0 1 0.595,1.565 6.148,6.148 0 0 1 1.939,3.129 2.38,2.38 0 0 0 1.961,-2.336 1.234,1.234 0 0 0 -1.168,-0.4 v 1.168 l -1.961,-1.961 a 2.2,2.2 0 0 1 2.2,0.4 1.212,1.212 0 0 0 0,-1.168 0.375,0.375 0 0 0 -0.2,-0.573 1.344,1.344 0 0 0 -1.565,-0.595 0.639,0.639 0 0 1 -0.2,0.771 15.27,15.27 0 0 1 -2.2,-3.9 1.763,1.763 0 0 0 -1.565,-0.4 0.727,0.727 0 0 1 0.375,-0.97 2.027,2.027 0 0 1 1.961,0.4 15.1,15.1 0 0 0 1.961,-0.771 1.1,1.1 0 0 1 0.375,1.344 h -0.771 a 1.719,1.719 0 0 0 -0.4,1.565 2.2,2.2 0 0 0 1.961,0.4 c 0.375,0.793 0.573,1.168 0.97,1.939 a 4.407,4.407 0 0 1 2.358,-0.375 l -0.793,-0.793 a 1.763,1.763 0 0 0 -1.763,-0.375 1.388,1.388 0 0 1 -0.4,-1.19 H 234.8 a 0.881,0.881 0 0 1 0.4,-0.97 5.112,5.112 0 0 1 3.129,-1.543 1.322,1.322 0 0 0 0.375,1.543 17.627,17.627 0 0 1 0.992,2.931 1.036,1.036 0 0 1 0.573,1.168 8.814,8.814 0 0 0 2.731,-1.369 0.9,0.9 0 0 1 1.366,0.2 6.963,6.963 0 0 1 -0.573,3.9 H 243 a 2.2,2.2 0 0 1 -0.4,-1.939 h -0.97 a 20.98,20.98 0 0 1 -4.1,2.931 0.837,0.837 0 0 0 -0.771,0.97 0.793,0.793 0 0 0 -0.793,0.2 l -3.5,3.5 a 0.836,0.836 0 0 0 0.2,0.2 4.209,4.209 0 0 1 -0.2,2.336 z m 5.267,-8.572 a 1.851,1.851 0 0 0 1.565,-0.992 V 78.42 h -1.565 z m -0.97,-5.09 0.97,-0.573 a 0.551,0.551 0 0 0 -0.771,-0.4 0.639,0.639 0 0 0 -0.2,0.97 z M 168.849,5.15 C 93.926,6.8 81.938,49.95 81.938,55 c -0.815,8.947 1.014,15.778 4.936,21 L 86.345,75.824 H 71.89 c 3.592,15.425 16.395,23.424 30.851,26.025 l -9.167,4.584 c 16.637,15.425 31.335,14.566 46.276,10.6 l -6.743,9.409 c 25.209,6.06 50,6.3 72.719,-0.485 l -7.47,-9.167 a 49.339,49.339 0 0 0 47.488,-10.115 l -8.814,-4.407 c 17.1,-3.548 27.215,-12.781 31.093,-26.994 l -15.293,-0.375 -0.705,0.2 c 4.628,-6.192 6.214,-14.566 3.592,-25.87 -1.1,-6.611 -17.409,-43.808 -86.911,-44.072 z m -18.907,75.276 c 9.938,-2.2 10.754,-13.6 1.3,-15.425 1.058,-3.305 2.865,-4.8 5.465,-4.407 5.024,-14.9 25.408,-13.023 26.6,3.327 a 38.123,38.123 0 0 0 -0.992,11.15 c 0.881,2.4 3.438,4.033 7.228,5.112 31.027,-4.231 53.151,-17.629 55.84,-34.575 1.168,-7.558 -7.735,-38.321 -76.576,-39.665 -41.075,0 -75.474,19.546 -74.769,39.665 1.785,16.064 23.8,30.718 55.906,34.839 z m 19.37,-19.568 a 2.2,2.2 0 1 1 -2.2,2.2 2.2,2.2 0 0 1 2.2,-2.201 z m -5.289,-27.391 a 8.043,8.043 0 0 1 2.71,-2.093 v 2.2 c -0.176,0.4 -0.617,0.441 -0.859,0.727 a 3.107,3.107 0 0 1 -1.785,-0.859 z M 194.874,69.1 a 16.527,16.527 0 0 0 3.967,-2.975 v 3.548 c -0.595,0 -0.859,0.286 -0.815,0.926 a 4.628,4.628 0 0 0 -3.085,0.242 V 69.1 Z m 5.509,-6.743 c 0.837,0.573 2.8,0.309 3.085,0.992 v 0.815 a 4.782,4.782 0 0 1 -2.887,2.093 c 0.683,-2.2 -0.154,-2.534 -0.132,-3.9 z M 179.426,46.005 c 0.529,-0.2 0.9,0.595 1.366,0.9 l 0.639,1.124 h 3.063 A 5.465,5.465 0 0 0 188.065,52 l -0.22,2.578 -3.944,-0.2 c -1.014,-4.275 -5.2,-5.553 -4.407,-8.308 z M 175.57,11.54 a 110.467,110.467 0 0 0 11.966,-1.124 l 7.008,4.077 2.732,0.375 c 0.132,1.454 2.909,0.264 5.179,-0.375 a 2.424,2.424 0 0 0 2.953,-1.609 c 3.416,0.573 1.036,2.2 3.085,3.46 l -0.242,8.506 c -1.983,0.573 -3.305,5.112 0,5.068 l 1.476,1.344 c 0.154,3.46 1.322,4.782 3.438,3.944 2.027,-0.4 5.641,-0.331 7.669,-0.727 l 1.234,-1.234 h 1.212 c 0.926,3.261 3.614,4.782 7.162,7.007 l 0.353,4.231 c 0.11,0.639 0.6,0.793 0.705,1.454 l -0.242,13.067 -1.366,-0.242 c -0.727,-4.716 -1.741,-8.087 -3.438,-8.506 l -3.834,-0.132 a 6.258,6.258 0 0 1 -3.944,-3.085 13.684,13.684 0 0 0 -0.992,-6.148 l -1.609,-0.132 -0.97,-3.7 -5.179,-0.485 a 8.528,8.528 0 0 1 -4.407,-5.068 l -0.375,0.992 -4.914,-5.641 a 10.643,10.643 0 0 1 -7.03,-4.407 2,2 0 0 1 -2.468,-1.851 c -2.556,0.617 -4.98,0.507 -8.814,-4.8 -1.278,-0.551 -1.9,-0.507 -1.851,0.595 a 4.011,4.011 0 0 1 -3.327,-0.485 l 2.2,-1.719 c -0.132,-0.793 -1.234,-1.41 -3.327,-1.851 V 11.54 Z m -25.8,12.34 c 2.2,0.176 2.732,-0.837 2.777,-3.283 0.242,-1.719 3.878,-1.741 5.663,-2.2 0,-1.873 0.573,-2.666 1.9,-2.336 a 3.129,3.129 0 0 1 2.2,3.746 l 4.407,-2.865 c -0.507,-1.587 2.424,-2.755 5.818,-2.931 V 13.13 l -6.258,0.507 a 8.065,8.065 0 0 0 -6.1,-1.763 V 11.43 l 0.595,-0.507 -3.217,-0.661 c -3.967,0 -4.561,0.309 -5.289,1.763 -1.939,-0.573 -2.931,-0.11 -3.438,0.948 h -2.2 v 0.97 c 2.666,0.154 1.168,2.688 2.732,4.033 v 2.777 h -0.375 v 2.2 l 0.881,-0.286 v 1.014 z m 6.258,14.941 c 0.4,1.917 -2.049,2.909 0.595,3.967 -0.617,1.058 -1.675,2.2 -0.595,3.173 l -2.777,2.358 c -2.2,0.859 -3.283,0.132 -3.349,-2.2 l 2.2,-1.785 a 5.8,5.8 0 0 1 3.967,-5.553 z M 118.695,24.476 c 15.425,25.275 46.276,13.222 50.419,0 A 25.782,25.782 0 0 0 145.821,36 c 4.055,-10.908 2.688,-18.929 -1.7,-25.32 a 25.3,25.3 0 0 0 -1.587,26.443 25.54,25.54 0 0 0 -23.843,-12.539 z m -3.063,-0.705 c 0,-1.388 -0.529,-2.777 1.587,-2.38 l 3.173,-0.375 v -0.992 l -3.768,0.22 c -0.264,-2.336 3,-0.771 5.553,-3.173 l 6.721,-0.992 6.611,-2.975 a 19.679,19.679 0 0 0 3.746,2.777 19.018,19.018 0 0 0 -0.793,8.814 l -3.945,2.2 c -7.867,-4.121 -12.539,-4.782 -18.819,-3.173 z m -11.856,35.963 v -1.918 l -3,-3.526 -0.9,-2.2 0.793,-1.256 v -2.2 l 0.9,-2.821 0.353,-1.587 0.661,-1.917 1.014,-0.573 0.463,-2.2 0.22,-1.124 a 3.658,3.658 0 0 0 -3.041,0 l -0.132,-2.821 1.587,-0.22 1.7,-1.917 0.463,-3.173 4.165,-1.234 3.173,-1.807 1.807,0.11 a 7.426,7.426 0 0 0 1.917,0.683 l 1.124,0.331 h 2.2 l 2.49,3.283 a 18.026,18.026 0 0 0 4.407,3.834 24.857,24.857 0 0 0 10.4,4.848 l 0.661,0.793 1.146,1.587 v 1.366 l -0.683,0.9 0.331,0.551 0.573,1.366 -0.9,0.9 c -0.727,0.331 -0.749,0.9 -1.124,1.344 l -1.7,0.573 -1.146,-0.573 0.926,-2.2 -0.683,-1.807 c -0.793,-0.309 -1.587,0 -2.38,0.9 -0.793,-0.154 -1.807,0.264 -2.358,-0.463 l 1.234,-1.124 -3.041,-0.286 -2.38,0.771 -2.358,-0.441 -0.242,-2.2 1.146,-1.807 -0.573,-2.6 -1.124,-1.917 -3.283,0.22 -1.124,0.22 -0.683,-0.727 -0.328,-1.675 -1.256,0.331 -0.331,0.793 c -0.242,0.551 -0.573,1.366 -0.573,1.366 l 1.146,0.881 1.124,0.573 0.22,2.2 -0.683,0.441 -1.917,0.441 -1.234,-0.441 -2.2,1.124 -1.454,0.9 -0.353,1.7 0.573,1.917 2.931,1.939 0.176,2.931 -3.856,0.793 -0.683,1.7 -1.124,0.661 0.331,1.476 v 2.2 l -1.234,2.358 -1.014,0.353 -1.146,-0.9 z m 37.175,-19.084 6.1,-0.132 -0.154,4.121 h -1.058 l -0.992,35.677 -0.353,9.52 -0.705,-1.058 -0.419,-9.233 -1.19,-34.729 -1.234,-0.309 z" transform="translate(809.988,-425.779)" fill="#fff" fill-rule="evenodd" style="fill:#214fa0;fill-opacity:1"/>
  </g>
</svg>