<?xml version="1.0" encoding="UTF-8" standalone="no"?>
<!-- Created with Inkscape (http://www.inkscape.org/) -->

<svg
   width="83.740356mm"
   height="83.73999mm"
   viewBox="0 0 83.740356 83.73999"
   version="1.1"
   id="svg1"
   xmlns="http://www.w3.org/2000/svg"
   xmlns:svg="http://www.w3.org/2000/svg">
  <defs
     id="defs1">
    <clipPath
       clipPathUnits="userSpaceOnUse"
       id="clipPath119">
      <path
         d="M 0,595.276 H 841.89 V 0 H 0 Z"
         transform="translate(-211.5757,-376.24711)"
         id="path119" />
    </clipPath>
    <clipPath
       clipPathUnits="userSpaceOnUse"
       id="clipPath121">
      <path
         d="M 0,595.276 H 841.89 V 0 H 0 Z"
         transform="translate(-358.92771,-299.3276)"
         id="path121" />
    </clipPath>
    <clipPath
       clipPathUnits="userSpaceOnUse"
       id="clipPath123">
      <path
         d="M 0,595.276 H 841.89 V 0 H 0 Z"
         transform="translate(-348.78561,-250.7324)"
         id="path123" />
    </clipPath>
    <clipPath
       clipPathUnits="userSpaceOnUse"
       id="clipPath125">
      <path
         d="M 0,595.276 H 841.89 V 0 H 0 Z"
         transform="translate(-350.53031,-241.66211)"
         id="path125" />
    </clipPath>
    <clipPath
       clipPathUnits="userSpaceOnUse"
       id="clipPath127">
      <path
         d="M 0,595.276 H 841.89 V 0 H 0 Z"
         transform="translate(-352.13181,-239.14841)"
         id="path127" />
    </clipPath>
    <clipPath
       clipPathUnits="userSpaceOnUse"
       id="clipPath129">
      <path
         d="M 0,595.276 H 841.89 V 0 H 0 Z"
         transform="translate(-355.55471,-234.05081)"
         id="path129" />
    </clipPath>
    <clipPath
       clipPathUnits="userSpaceOnUse"
       id="clipPath139">
      <path
         d="M 0,595.276 H 841.89 V 0 H 0 Z"
         transform="translate(-208.60251,-248.7695)"
         id="path139" />
    </clipPath>
    <clipPath
       clipPathUnits="userSpaceOnUse"
       id="clipPath141">
      <path
         d="M 0,595.276 H 841.89 V 0 H 0 Z"
         transform="translate(-222.6514,-240.6689)"
         id="path141" />
    </clipPath>
    <clipPath
       clipPathUnits="userSpaceOnUse"
       id="clipPath143">
      <path
         d="M 0,595.276 H 841.89 V 0 H 0 Z"
         transform="translate(-247.72711,-231.93361)"
         id="path143" />
    </clipPath>
    <clipPath
       clipPathUnits="userSpaceOnUse"
       id="clipPath145">
      <path
         d="M 0,595.276 H 841.89 V 0 H 0 Z"
         transform="translate(-234.83061,-230.12891)"
         id="path145" />
    </clipPath>
    <clipPath
       clipPathUnits="userSpaceOnUse"
       id="clipPath147">
      <path
         d="M 0,595.276 H 841.89 V 0 H 0 Z"
         transform="translate(-238.77541,-223.66991)"
         id="path147" />
    </clipPath>
    <clipPath
       clipPathUnits="userSpaceOnUse"
       id="clipPath149">
      <path
         d="M 0,595.276 H 841.89 V 0 H 0 Z"
         transform="translate(-230.1616,-220.0322)"
         id="path149" />
    </clipPath>
    <clipPath
       clipPathUnits="userSpaceOnUse"
       id="clipPath151">
      <path
         d="M 0,595.276 H 841.89 V 0 H 0 Z"
         transform="translate(-240.38431,-215.5898)"
         id="path151" />
    </clipPath>
    <clipPath
       clipPathUnits="userSpaceOnUse"
       id="clipPath153">
      <path
         d="M 0,595.276 H 841.89 V 0 H 0 Z"
         transform="translate(-329.34811,-233.93461)"
         id="path153" />
    </clipPath>
    <clipPath
       clipPathUnits="userSpaceOnUse"
       id="clipPath155">
      <path
         d="M 0,595.276 H 841.89 V 0 H 0 Z"
         transform="translate(-337.01901,-219.49711)"
         id="path155" />
    </clipPath>
    <clipPath
       clipPathUnits="userSpaceOnUse"
       id="clipPath157">
      <path
         d="M 0,595.276 H 841.89 V 0 H 0 Z"
         transform="translate(-279.19681,-214.2578)"
         id="path157" />
    </clipPath>
    <clipPath
       clipPathUnits="userSpaceOnUse"
       id="clipPath159">
      <path
         d="M 0,595.276 H 841.89 V 0 H 0 Z"
         transform="translate(-266.68551,-218.53811)"
         id="path159" />
    </clipPath>
    <clipPath
       clipPathUnits="userSpaceOnUse"
       id="clipPath161">
      <path
         d="M 0,595.276 H 841.89 V 0 H 0 Z"
         transform="translate(-266.34471,-216.25391)"
         id="path161" />
    </clipPath>
    <clipPath
       clipPathUnits="userSpaceOnUse"
       id="clipPath163">
      <path
         d="M 0,595.276 H 841.89 V 0 H 0 Z"
         transform="translate(-263.75731,-214.15721)"
         id="path163" />
    </clipPath>
    <clipPath
       clipPathUnits="userSpaceOnUse"
       id="clipPath165">
      <path
         d="M 0,595.276 H 841.89 V 0 H 0 Z"
         transform="translate(-309.38821,-214.9004)"
         id="path165" />
    </clipPath>
    <clipPath
       clipPathUnits="userSpaceOnUse"
       id="clipPath167">
      <path
         d="M 0,595.276 H 841.89 V 0 H 0 Z"
         transform="translate(-275.27391,-246.2207)"
         id="path167" />
    </clipPath>
    <clipPath
       clipPathUnits="userSpaceOnUse"
       id="clipPath169">
      <path
         d="M 0,595.276 H 841.89 V 0 H 0 Z"
         transform="translate(-283.28521,-246.6035)"
         id="path169" />
    </clipPath>
    <clipPath
       clipPathUnits="userSpaceOnUse"
       id="clipPath171">
      <path
         d="M 0,595.276 H 841.89 V 0 H 0 Z"
         transform="translate(-294.52831,-246.3398)"
         id="path171" />
    </clipPath>
    <clipPath
       clipPathUnits="userSpaceOnUse"
       id="clipPath173">
      <path
         d="M 0,595.276 H 841.89 V 0 H 0 Z"
         transform="translate(-300.28911,-238.72751)"
         id="path173" />
    </clipPath>
    <clipPath
       clipPathUnits="userSpaceOnUse"
       id="clipPath175">
      <path
         d="M 0,595.276 H 841.89 V 0 H 0 Z"
         transform="translate(-203.7397,-291.15041)"
         id="path175" />
    </clipPath>
    <clipPath
       clipPathUnits="userSpaceOnUse"
       id="clipPath177">
      <path
         d="M 0,595.276 H 841.89 V 0 H 0 Z"
         transform="translate(-199.5049,-305.21341)"
         id="path177" />
    </clipPath>
    <clipPath
       clipPathUnits="userSpaceOnUse"
       id="clipPath179">
      <path
         d="M 0,595.276 H 841.89 V 0 H 0 Z"
         transform="translate(-203.8687,-308.42971)"
         id="path179" />
    </clipPath>
    <clipPath
       clipPathUnits="userSpaceOnUse"
       id="clipPath181">
      <path
         d="M 0,595.276 H 841.89 V 0 H 0 Z"
         transform="translate(-196.4004,-322.05911)"
         id="path181" />
    </clipPath>
    <clipPath
       clipPathUnits="userSpaceOnUse"
       id="clipPath183">
      <path
         d="M 0,595.276 H 841.89 V 0 H 0 Z"
         transform="translate(-197.3794,-326.17581)"
         id="path183" />
    </clipPath>
    <clipPath
       clipPathUnits="userSpaceOnUse"
       id="clipPath185">
      <path
         d="M 0,595.276 H 841.89 V 0 H 0 Z"
         transform="translate(-207.23391,-324.57371)"
         id="path185" />
    </clipPath>
    <clipPath
       clipPathUnits="userSpaceOnUse"
       id="clipPath187">
      <path
         d="M 0,595.276 H 841.89 V 0 H 0 Z"
         transform="translate(-213.30271,-340.01611)"
         id="path187" />
    </clipPath>
    <clipPath
       clipPathUnits="userSpaceOnUse"
       id="clipPath189">
      <path
         d="M 0,595.276 H 841.89 V 0 H 0 Z"
         transform="translate(-209.37301,-351.77731)"
         id="path189" />
    </clipPath>
    <clipPath
       clipPathUnits="userSpaceOnUse"
       id="clipPath191">
      <path
         d="M 0,595.276 H 841.89 V 0 H 0 Z"
         transform="translate(-221.4238,-351.92681)"
         id="path191" />
    </clipPath>
    <clipPath
       clipPathUnits="userSpaceOnUse"
       id="clipPath193">
      <path
         d="M 0,595.276 H 841.89 V 0 H 0 Z"
         transform="translate(-221.2378,-366.47271)"
         id="path193" />
    </clipPath>
    <clipPath
       clipPathUnits="userSpaceOnUse"
       id="clipPath195">
      <path
         d="M 0,595.276 H 841.89 V 0 H 0 Z"
         transform="translate(-231.0361,-362.01761)"
         id="path195" />
    </clipPath>
    <clipPath
       clipPathUnits="userSpaceOnUse"
       id="clipPath197">
      <path
         d="M 0,595.276 H 841.89 V 0 H 0 Z"
         transform="translate(-236.20071,-372.39451)"
         id="path197" />
    </clipPath>
    <clipPath
       clipPathUnits="userSpaceOnUse"
       id="clipPath199">
      <path
         d="M 0,595.276 H 841.89 V 0 H 0 Z"
         transform="translate(-238.3633,-374.70701)"
         id="path199" />
    </clipPath>
    <clipPath
       clipPathUnits="userSpaceOnUse"
       id="clipPath201">
      <path
         d="M 0,595.276 H 841.89 V 0 H 0 Z"
         transform="translate(-245.88621,-374.82621)"
         id="path201" />
    </clipPath>
    <clipPath
       clipPathUnits="userSpaceOnUse"
       id="clipPath203">
      <path
         d="M 0,595.276 H 841.89 V 0 H 0 Z"
         transform="translate(-249.57231,-386.10111)"
         id="path203" />
    </clipPath>
    <clipPath
       clipPathUnits="userSpaceOnUse"
       id="clipPath205">
      <path
         d="M 0,595.276 H 841.89 V 0 H 0 Z"
         transform="translate(-253.9429,-386.44141)"
         id="path205" />
    </clipPath>
    <clipPath
       clipPathUnits="userSpaceOnUse"
       id="clipPath207">
      <path
         d="M 0,595.276 H 841.89 V 0 H 0 Z"
         transform="translate(-264.20701,-380.61471)"
         id="path207" />
    </clipPath>
    <clipPath
       clipPathUnits="userSpaceOnUse"
       id="clipPath209">
      <path
         d="M 0,595.276 H 841.89 V 0 H 0 Z"
         transform="translate(-277.5625,-384.31791)"
         id="path209" />
    </clipPath>
    <clipPath
       clipPathUnits="userSpaceOnUse"
       id="clipPath211">
      <path
         d="M 0,595.276 H 841.89 V 0 H 0 Z"
         transform="translate(-282.79881,-393.94381)"
         id="path211" />
    </clipPath>
    <clipPath
       clipPathUnits="userSpaceOnUse"
       id="clipPath213">
      <path
         d="M 0,595.276 H 841.89 V 0 H 0 Z"
         transform="translate(-295.3555,-393.85791)"
         id="path213" />
    </clipPath>
    <clipPath
       clipPathUnits="userSpaceOnUse"
       id="clipPath215">
      <path
         d="M 0,595.276 H 841.89 V 0 H 0 Z"
         transform="translate(-303.59421,-392.86821)"
         id="path215" />
    </clipPath>
    <clipPath
       clipPathUnits="userSpaceOnUse"
       id="clipPath217">
      <path
         d="M 0,595.276 H 841.89 V 0 H 0 Z"
         transform="translate(-303.59031,-382.84671)"
         id="path217" />
    </clipPath>
    <clipPath
       clipPathUnits="userSpaceOnUse"
       id="clipPath219">
      <path
         d="M 0,595.276 H 841.89 V 0 H 0 Z"
         transform="translate(-318.26561,-383.14451)"
         id="path219" />
    </clipPath>
    <clipPath
       clipPathUnits="userSpaceOnUse"
       id="clipPath221">
      <path
         d="M 0,595.276 H 841.89 V 0 H 0 Z"
         transform="translate(-320.17091,-378.07231)"
         id="path221" />
    </clipPath>
    <clipPath
       clipPathUnits="userSpaceOnUse"
       id="clipPath223">
      <path
         d="M 0,595.276 H 841.89 V 0 H 0 Z"
         transform="translate(-334.48391,-371.02781)"
         id="path223" />
    </clipPath>
    <clipPath
       clipPathUnits="userSpaceOnUse"
       id="clipPath225">
      <path
         d="M 0,595.276 H 841.89 V 0 H 0 Z"
         transform="translate(-341.92771,-371.11721)"
         id="path225" />
    </clipPath>
    <clipPath
       clipPathUnits="userSpaceOnUse"
       id="clipPath227">
      <path
         d="M 0,595.276 H 841.89 V 0 H 0 Z"
         transform="translate(-352.52491,-368.18261)"
         id="path227" />
    </clipPath>
    <clipPath
       clipPathUnits="userSpaceOnUse"
       id="clipPath229">
      <path
         d="M 0,595.276 H 841.89 V 0 H 0 Z"
         transform="translate(-360.06881,-353.08891)"
         id="path229" />
    </clipPath>
    <clipPath
       clipPathUnits="userSpaceOnUse"
       id="clipPath231">
      <path
         d="M 0,595.276 H 841.89 V 0 H 0 Z"
         transform="translate(-361.39551,-343.46481)"
         id="path231" />
    </clipPath>
    <clipPath
       clipPathUnits="userSpaceOnUse"
       id="clipPath233">
      <path
         d="M 0,595.276 H 841.89 V 0 H 0 Z"
         transform="translate(-364.07421,-339.78131)"
         id="path233" />
    </clipPath>
    <clipPath
       clipPathUnits="userSpaceOnUse"
       id="clipPath235">
      <path
         d="M 0,595.276 H 841.89 V 0 H 0 Z"
         transform="translate(-365.81401,-334.47751)"
         id="path235" />
    </clipPath>
    <clipPath
       clipPathUnits="userSpaceOnUse"
       id="clipPath237">
      <path
         d="M 0,595.276 H 841.89 V 0 H 0 Z"
         transform="translate(-371.04831,-322.56251)"
         id="path237" />
    </clipPath>
    <clipPath
       clipPathUnits="userSpaceOnUse"
       id="clipPath239">
      <path
         d="M 0,595.276 H 841.89 V 0 H 0 Z"
         transform="translate(-377.09421,-309.86911)"
         id="path239" />
    </clipPath>
    <clipPath
       clipPathUnits="userSpaceOnUse"
       id="clipPath241">
      <path
         d="M 0,595.276 H 841.89 V 0 H 0 Z"
         transform="translate(-382.98781,-305.89751)"
         id="path241" />
    </clipPath>
    <clipPath
       clipPathUnits="userSpaceOnUse"
       id="clipPath243">
      <path
         d="M 0,595.276 H 841.89 V 0 H 0 Z"
         transform="translate(-373.77001,-296.9063)"
         id="path243" />
    </clipPath>
    <clipPath
       clipPathUnits="userSpaceOnUse"
       id="clipPath245">
      <path
         d="M 0,595.276 H 841.89 V 0 H 0 Z"
         transform="translate(-375.06401,-295.68551)"
         id="path245" />
    </clipPath>
    <clipPath
       clipPathUnits="userSpaceOnUse"
       id="clipPath247">
      <path
         d="M 0,595.276 H 841.89 V 0 H 0 Z"
         transform="translate(-205.1836,-286.14061)"
         id="path247" />
    </clipPath>
    <clipPath
       clipPathUnits="userSpaceOnUse"
       id="clipPath249">
      <path
         d="M 0,595.276 H 841.89 V 0 H 0 Z"
         transform="translate(-215.6221,-275.19631)"
         id="path249" />
    </clipPath>
    <clipPath
       clipPathUnits="userSpaceOnUse"
       id="clipPath251">
      <path
         d="M 0,595.276 H 841.89 V 0 H 0 Z"
         transform="translate(-213.2461,-297.4316)"
         id="path251" />
    </clipPath>
    <clipPath
       clipPathUnits="userSpaceOnUse"
       id="clipPath253">
      <path
         d="M 0,595.276 H 841.89 V 0 H 0 Z"
         transform="translate(-222.74221,-287.94431)"
         id="path253" />
    </clipPath>
    <clipPath
       clipPathUnits="userSpaceOnUse"
       id="clipPath255">
      <path
         d="M 0,595.276 H 841.89 V 0 H 0 Z"
         transform="translate(-228.21291,-306.81931)"
         id="path255" />
    </clipPath>
    <clipPath
       clipPathUnits="userSpaceOnUse"
       id="clipPath257">
      <path
         d="M 0,595.276 H 841.89 V 0 H 0 Z"
         transform="translate(-235.98931,-298.9946)"
         id="path257" />
    </clipPath>
    <radialGradient
       fx="0"
       fy="0"
       cx="0"
       cy="0"
       r="1"
       gradientUnits="userSpaceOnUse"
       gradientTransform="matrix(15.7979,0,0,15.797894,78.914563,109.33309)"
       spreadMethod="pad"
       id="radialGradient258">
      <stop
         style="stop-opacity:1;stop-color:#fff100"
         offset="0"
         id="stop257" />
      <stop
         style="stop-opacity:1;stop-color:#ee7700"
         offset="1"
         id="stop258" />
    </radialGradient>
    <clipPath
       clipPathUnits="userSpaceOnUse"
       id="clipPath260">
      <path
         d="M 0,595.276 H 841.89 V 0 H 0 Z"
         transform="translate(-263.45611,-328.61771)"
         id="path260" />
    </clipPath>
    <clipPath
       clipPathUnits="userSpaceOnUse"
       id="clipPath262">
      <path
         d="M 0,595.276 H 841.89 V 0 H 0 Z"
         id="path262" />
    </clipPath>
    <clipPath
       clipPathUnits="userSpaceOnUse"
       id="clipPath264">
      <path
         d="M 0,595.276 H 841.89 V 0 H 0 Z"
         transform="translate(-196.0371,-273.78131)"
         id="path264" />
    </clipPath>
    <clipPath
       clipPathUnits="userSpaceOnUse"
       id="clipPath266">
      <path
         d="M 0,595.276 H 841.89 V 0 H 0 Z"
         transform="translate(-242.75391,-261.7568)"
         id="path266" />
    </clipPath>
  </defs>
  <g
     id="layer1"
     transform="translate(-33.848627,-75.388221)">
    <path
       id="path118"
       d="m 0,0 c -19.663,-19.667 -31.817,-46.813 -31.822,-76.818 0.005,-30.006 12.159,-57.153 31.822,-76.818 19.664,-19.664 46.808,-31.818 76.817,-31.82 30.004,0.002 57.149,12.156 76.814,31.82 19.666,19.665 31.821,46.812 31.821,76.818 0,30.005 -12.155,57.151 -31.821,76.818 C 133.966,19.663 106.821,31.819 76.817,31.821 46.808,31.819 19.664,19.663 0,0 m -36.571,-76.818 c 0.002,62.623 50.765,113.384 113.388,113.384 62.62,0 113.38,-50.761 113.384,-113.384 -0.004,-62.623 -50.764,-113.387 -113.384,-113.387 -62.623,0 -113.386,50.764 -113.388,113.387"
       style="fill:#b31b21;fill-opacity:1;fill-rule:nonzero;stroke:none"
       transform="matrix(0.36927116,0,0,-0.36927116,47.353243,88.89099)"
       clip-path="url(#clipPath119)" />
    <path
       id="path120"
       d="m 0,0 c 0,38.932 -31.561,70.493 -70.491,70.493 -38.931,0 -70.494,-31.561 -70.494,-70.493 0,-38.928 31.563,-70.493 70.494,-70.493 C -31.561,-70.493 0,-38.928 0,0"
       style="fill:#b31b21;fill-opacity:1;fill-rule:nonzero;stroke:none"
       transform="matrix(0.36927116,0,0,-0.36927116,101.7661,117.29515)"
       clip-path="url(#clipPath121)" />
    <path
       id="path122"
       d="m 0,0 c 0,0 -1.045,0.385 -0.611,1.117 0,0 0.728,1.463 2.192,1.177 0,0 0.945,-0.384 1.372,-1.773 l 0.831,-3.476 c 0,0 1.21,0.981 1.61,0.835 0,0 0.824,0.19 1.5,-3.741 0,0 0.381,0.334 1.6,-0.168 0,0 -0.177,0.73 -0.059,0.871 l -0.637,0.586 c 0,0 -0.807,1.161 0.015,2.017 0,0 0.272,-0.013 0.628,-0.267 l 0.119,0.088 c 0,0 -1.059,1.92 -1.821,3.695 0,0 -0.747,0.9 -0.783,-0.643 0,0 -0.586,-1.297 -1.124,-0.15 l 0.466,2.438 c 0,0 0.829,1.92 1.79,1.214 0,0 0.506,-0.3 0.91,-1.16 l 2.036,-6.002 c 0,0 0.683,-0.473 0.095,-1.721 0,0 -0.471,-4.166 -0.906,-4.955 0,0 -0.51,-0.658 -0.495,0.087 L 8.724,-6.824 7.587,-7.16 c 0,0 0.578,-2.769 0.416,-3.063 0,0 -0.552,-0.875 -0.97,0.461 0,0 -0.43,1.393 -0.599,2.476 0,0 -0.321,0.063 -0.867,-0.353 0,0 -0.46,-0.152 0.127,0.588 l 0.53,0.791 c 0,0 -0.413,1.075 -0.474,1.336 0,0 -1.051,1.103 -1.174,1.123 0,0 -0.813,0.1 -0.564,-0.605 0,0 0.8,-2.227 0.316,-2.359 0,0 -0.229,-0.426 -0.738,1.25 l -0.373,0.73 -0.738,-0.59 c 0,0 -0.566,0.004 -0.473,0.169 l 0.978,1.366 c 0,0 -1.447,3.529 -1.609,3.899 L 0.659,0.717 Z"
       style="fill:#b31b21;fill-opacity:1;fill-rule:nonzero;stroke:none"
       transform="matrix(0.36927116,0,0,-0.36927116,98.020907,135.23995)"
       clip-path="url(#clipPath123)" />
    <path
       id="path124"
       d="m 0,0 c 0,0 -0.497,0.139 -0.398,0.701 0,0 -0.061,0.985 1.386,0.96 0,0 2.409,-0.622 2.858,-0.87 0,0 0.612,-1.167 0.382,-1.443 0,0 -0.331,-0.334 -0.767,0.101 l -1.062,0.139 c 0,0 -1.464,0.396 -1.769,0.648 z"
       style="fill:#b31b21;fill-opacity:1;fill-rule:nonzero;stroke:none"
       transform="matrix(0.36927116,0,0,-0.36927116,98.665173,138.58935)"
       clip-path="url(#clipPath125)" />
    <path
       id="path126"
       d="m 0,0 c 0,0 0.387,0.68 0.83,0.7 0,0 1.643,-0.573 2.941,-1.718 0,0 0.171,-0.521 -0.385,-0.734 l -1.207,0.031 -1.624,1.317 c 0,0 -0.595,0.031 -0.555,0.404"
       style="fill:#b31b21;fill-opacity:1;fill-rule:nonzero;stroke:none"
       transform="matrix(0.36927116,0,0,-0.36927116,99.256562,139.51759)"
       clip-path="url(#clipPath127)" />
    <path
       id="path128"
       d="M 0,0 C 0,0 0.2,1.18 1.011,0.574 L 1.913,-1.143 1.983,-1 c 0,0 0.134,3.268 0.253,3.457 L 2.537,2.813 2.604,3.061 2.41,3.555 c 0,0 1.005,5.515 1.316,6.828 0,0 -0.105,0.871 -0.039,1.008 0,0 0.747,1.041 1.137,1.057 0,0 0.541,-0.03 0.714,-1.225 L 6.043,7.205 c 0,0 1.305,0.59 2.046,-0.82 l 0.168,0.141 0.416,1.16 0.754,0.833 c 0,0 1.015,0.356 1.027,-1.08 0,0 0.201,-0.657 -0.771,-2.179 L 9.881,5.153 c 0,0 1.145,0.955 2.196,-0.252 0,0 1.42,-2.893 0.682,-4.596 0,0 -2.2,-2.08 -3.296,-2.365 0,0 -1.162,-0.419 -1.552,0.175 0,0 -0.405,0.307 0.328,0.441 l 0.781,0.086 0.245,0.006 2.13,2.558 c 0,0 0.375,1.558 -0.3,2.592 L 10.757,4.187 9.483,4.135 9.155,3.746 c 0,0 -1,-4.448 -1.039,-4.559 l -0.47,-0.549 c 0,0 -0.38,0.169 -0.365,0.517 0,0 -0.221,0.521 0.611,6.109 0,0 -0.68,0.982 -1.082,1.176 L 6.193,5.938 5.245,6.887 4.776,9.949 c 0,0 -0.64,0.692 -0.622,-0.345 L 3.265,3.722 2.798,3.066 2.759,2.793 c 0,0 0.28,-0.17 0.217,-1.075 C 2.913,0.812 2.904,-2.54 2.904,-2.54 l 0.404,-2.743 c 0,0 -0.217,-1.869 -1.236,-0.449 l -0.539,0.64 -0.018,0.422 c 0,0 -1.052,2.936 -0.983,3.125 l -0.051,0.661 c 0,0 -0.586,0.486 -0.481,0.884"
       style="fill:#b31b21;fill-opacity:1;fill-rule:nonzero;stroke:none"
       transform="matrix(0.36927116,0,0,-0.36927116,100.52054,141.39999)"
       clip-path="url(#clipPath129)" />
    <path
       id="path138"
       d="m 0,0 c 0,0 0.689,0.332 0.301,-0.541 0,0 -0.921,-1.159 -1.254,-1.928 0,0 -1.178,-4.163 -3.574,-2.97 0,0 -1.155,1.145 -0.04,2.372 z"
       style="fill:#b31b21;fill-opacity:1;fill-rule:nonzero;stroke:none"
       transform="matrix(0.36927116,0,0,-0.36927116,46.255328,135.96479)"
       clip-path="url(#clipPath139)" />
    <path
       id="path140"
       d="m 0,0 c 0,0 -0.466,0.004 -1.19,-0.474 l -9.397,-6.189 c 0,0 -0.48,0.975 -0.787,2.37 0,0 -0.17,0.63 0.003,2.403 l 0.726,0.482 c 0,0 0.544,0.477 0.163,1.276 l 0.189,0.182 c 0,0 0.26,-0.256 0.562,-0.182 l 0.419,0.402 c 0,0 0.531,-0.332 -0.46,1.355 l 0.07,0.295 c 0,0 1.276,-0.636 3.819,-0.931 L -4.68,1.538 -5.496,3.337 -5.302,3.4 1.167,1.14 C 1.167,1.14 1.653,0.357 0,0 M 4.043,-0.106 3.209,1.56 c -3.099,1.513 -7.613,3.384 -7.613,3.384 0.164,0.018 2.377,-0.046 2.377,-0.046 0.695,-0.007 1.262,0.23 1.262,0.23 L 2.44,4.057 C 3.027,3.936 3.32,4.591 3.32,4.591 L 2.739,6.19 C 2.588,6.693 2.864,6.828 2.864,6.828 l 1.723,1.133 c 1.244,3.179 0.582,3.985 0.582,3.985 -0.227,0.513 -1.107,-0.41 -1.107,-0.41 L 3.33,10.444 0.143,8.346 c -0.414,-0.091 -1.9,-0.454 -1.9,-0.454 -4.673,-0.246 -6.39,3.914 -6.39,3.914 -0.413,0.958 -0.904,0.264 -0.904,0.264 L -9.672,10.367 C -9.805,9.971 -8.184,7.779 -8.184,7.779 L -5.995,7.067 C -5.75,7.042 -5.729,6.689 -5.729,6.689 L -7.215,5.713 c -2.915,0.971 -4.515,1.975 -4.515,1.975 l -0.639,-0.418 0.608,-1.108 c 0.322,-0.468 1.082,-1.008 1.082,-1.008 l -0.654,-0.496 0.092,-1.107 c 0.264,-0.688 0.79,-0.588 0.79,-0.588 l 1.316,0.869 1.507,-0.422 c 1.165,-0.222 0.019,-0.668 0.019,-0.668 l -2.981,-0.056 -0.312,0.043 -0.841,-0.371 c -0.271,0.496 -1.078,0.274 -1.078,0.274 l -0.202,0.36 c -0.9,-0.468 -0.81,-0.844 -0.81,-0.844 0.24,-0.638 0.731,-0.685 0.731,-0.685 L -13.716,0.997 -14.261,1.253 -15.28,0.581 -15.149,0.08 C -16.262,-0.744 -16.5,-1.731 -16.5,-1.731 l 0.935,-1.692 0.968,0.455 0.597,1.271 c 0.343,0.41 1.443,-0.157 1.443,-0.157 -0.585,-2.877 0.155,-7.286 0.155,-7.286 0.304,-0.947 1.105,-0.747 1.105,-0.747 L 1.01,-1.781 c 1.242,0.04 2.553,0.808 2.553,0.808 0.519,0.25 0.48,0.867 0.48,0.867"
       style="fill:#b31b21;fill-opacity:1;fill-rule:nonzero;stroke:none"
       transform="matrix(0.36927116,0,0,-0.36927116,51.44318,138.95611)"
       clip-path="url(#clipPath141)" />
    <path
       id="path142"
       d="m 0,0 0.788,0.864 c 0,0 1.326,-0.269 1.851,-1.177 0,0 2.208,-4.694 -1.028,-5 0,0 -1.028,-0.437 -2.09,0.754 0,0 0.059,0.798 1.053,0.832 l 0.135,0.413 z"
       style="fill:#b31b21;fill-opacity:1;fill-rule:nonzero;stroke:none"
       transform="matrix(0.36927116,0,0,-0.36927116,60.702915,142.18181)"
       clip-path="url(#clipPath143)" />
    <path
       id="path144"
       d="m 0,0 c 0,0 0.375,0.786 0.963,-0.321 0,0 0.274,-0.46 1.098,-0.868 0,0 1.473,-0.656 2.769,-0.721 0,0 2.484,0.048 5.101,-1.094 l 3.4,-1.296 c 0,0 1.761,-0.283 2.392,-0.935 0,0 1.095,-0.798 1.189,-1.244 0,0 0.129,-1.039 -0.786,-0.977 0,0 -1.449,0.356 -2.794,1.165 0,0 -1.084,0.726 -5.316,1.3 l -3.288,0.63 c 0,0 -2.033,0.036 -2.215,0.127 0,0 -1.433,-0.024 -2.06,1.757 l -0.578,1.603 z"
       style="fill:#b31b21;fill-opacity:1;fill-rule:nonzero;stroke:none"
       transform="matrix(0.36927116,0,0,-0.36927116,55.94061,142.84823)"
       clip-path="url(#clipPath145)" />
    <path
       id="path146"
       d="m 0,0 c 0,0 1.207,0.428 0.846,-0.622 0,0 -0.511,-1.653 -0.37,-1.841 l 0.197,-0.175 2.437,0.029 0.713,0.35 c 0,0 0.171,0.214 -0.282,0.37 0,0 -0.266,0.03 -1.05,0.913 0,0 0.155,0.551 0.452,0.385 0,0 4.578,-0.666 5.122,-0.529 0,0 1.214,-0.168 1.416,-1.418 0,0 0.373,-1.998 -0.982,-1.161 0,0 -4.042,0.008 -4.279,0.011 0,0 -0.512,-1.174 -1.116,-1.145 l -2.415,-0.002 -3.627,-4.516 -0.499,-0.926 c 0,0 -0.581,-0.896 -0.962,-1.078 0,0 -1.343,-0.407 -1.279,0.868 l -0.1,1.679 c 0,0 -0.609,0.622 -0.591,0.763 0,0 -0.027,1.492 1.058,0.918 0,0 0.209,-0.693 0.538,-1.173 l 0.099,-0.192 0.404,-0.023 0.171,0.056 3.386,4.213 c 0,0 -0.227,0.558 -0.163,0.682 0,0 -0.824,-0.626 -1.365,-0.019 0,0 -0.486,0.27 -0.062,1.681 l 1.014,1.265 0.704,-0.008 z"
       style="fill:#b31b21;fill-opacity:1;fill-rule:nonzero;stroke:none"
       transform="matrix(0.36927116,0,0,-0.36927116,57.39731,145.23335)"
       clip-path="url(#clipPath147)" />
    <path
       id="path148"
       d="m 0,0 c 0,0 0.566,-0.254 0.515,-0.793 l 0.224,-0.202 4.179,0.337 c 0,0 1.333,-0.379 0.294,-1.015 L 4.176,-2.36 c 0,0 -2.625,-0.028 -3.59,-0.147 L 0.279,-2.592 -0.504,-3.566 c 0,0 -1.181,-0.456 -1.579,-0.405 l -0.61,0.561 c 0,0 -0.336,1.269 -0.165,1.537 l 1.077,1.344 z"
       style="fill:#b31b21;fill-opacity:1;fill-rule:nonzero;stroke:none"
       transform="matrix(0.36927116,0,0,-0.36927116,54.216481,146.57665)"
       clip-path="url(#clipPath149)" />
    <path
       id="path150"
       d="m 0,0 c 0,0 0.797,0.277 1.156,-0.961 0,0 0.528,-2.346 -0.038,-3.044 L 0.556,-4.71 c 0,0 -0.884,-0.198 -1.282,-0.089 l -0.851,0.674 c 0,0 -0.445,0.414 0.092,1.139 l 0.857,1.064 0.141,0.834 0.094,0.603 z"
       style="fill:#b31b21;fill-opacity:1;fill-rule:nonzero;stroke:none"
       transform="matrix(0.36927116,0,0,-0.36927116,57.99143,148.2171)"
       clip-path="url(#clipPath151)" />
    <path
       id="path152"
       d="m 0,0 c 0,0 2.691,1.219 5.733,-6.988 l 0.309,-0.178 c 0,0 -0.07,2.498 0.494,2.706 0,0 1.155,1.163 1.369,-2.403 0,0 -0.388,-1.678 -0.508,-2.111 0,0 -0.96,-2.436 -0.526,-4.541 0,0 1.46,-7.616 -0.424,-11.56 0,0 -1.197,-1.067 -1.641,-0.847 0,0 -0.999,0.204 -0.598,1.407 l 0.971,0.747 c 0,0 1.48,1.957 0.558,10.066 0,0 -0.345,0.465 -0.694,-0.404 0,0 -1.337,-3.141 -2.297,-3.46 0,0 -0.557,-0.446 -0.893,-0.105 0,0 -0.825,0.973 -0.311,1.395 0,0 3.073,4.04 3.309,6.354 0,0 0.024,0.62 -0.127,1.375 l -3.495,6.425 -0.588,0.504 z"
       style="fill:#b31b21;fill-opacity:1;fill-rule:nonzero;stroke:none"
       transform="matrix(0.36927116,0,0,-0.36927116,90.843197,141.44289)"
       clip-path="url(#clipPath153)" />
    <path
       id="path154"
       d="m 0,0 c 0,0 -0.792,0.686 -0.03,1.065 0,0 5.053,0.843 7.649,-2.775 0,0 0.588,-1.952 -1.125,-1.33 0,0 -3.041,2.395 -6.494,3.04"
       style="fill:#b31b21;fill-opacity:1;fill-rule:nonzero;stroke:none"
       transform="matrix(0.36927116,0,0,-0.36927116,93.67584,146.77425)"
       clip-path="url(#clipPath155)" />
    <path
       id="path156"
       d="m 0,0 c 0,0 -0.67,0.282 0.431,1.665 0,0 0.705,-0.042 0.694,-0.604 C 1.125,1.061 0.687,0.086 0,0 M 1.969,3.984 C 1.485,4.956 0.736,4.44 0.736,4.44 0.128,4.14 -0.612,3.179 -0.612,3.179 -0.756,2.967 -1.462,0.985 -1.462,0.985 -1.841,-0.324 -2.527,-1.416 -2.527,-1.416 -4.037,-2.77 -6.271,-3.475 -6.271,-3.475 -8.105,-3.76 -7.925,-4.803 -7.925,-4.803 c 0.05,-0.653 1.143,-0.601 1.143,-0.601 0.558,-0.013 3.062,1.489 3.062,1.489 0.252,0.196 0.739,-0.045 0.739,-0.045 l -0.234,-1.302 c -1.774,-2.397 -3.567,-4.668 -3.567,-4.668 -0.373,-0.745 -0.123,-1.312 -0.123,-1.312 1.094,-0.436 2.191,1.393 2.191,1.393 0.505,0.638 0.699,0.204 0.699,0.204 l -0.222,-2.75 c -0.046,-1.328 1.087,-1.484 1.087,-1.484 0.508,0.154 2.051,11.282 2.051,11.282 1.101,0.617 2.794,1.7 2.794,1.7 2.218,2.36 0.274,4.881 0.274,4.881"
       style="fill:#b31b21;fill-opacity:1;fill-rule:nonzero;stroke:none"
       transform="matrix(0.36927116,0,0,-0.36927116,72.323767,148.70897)"
       clip-path="url(#clipPath157)" />
    <path
       id="path158"
       d="m 0,0 0.14,0.947 c 0,0 1.657,1.853 5.441,2.934 0,0 1.365,0.652 2.149,0.149 0,0 0.835,-0.184 -0.104,-1.96 0,0 -2.412,-3.665 -3.771,-12.563 0,0 0.532,-0.942 0.183,-1.524 0,0 -0.461,-0.606 -1.158,-0.246 l -0.175,0.314 c 0,0 -0.514,0.335 -0.615,-0.339 0,0 -0.129,-1.386 -1.852,-2.42 0,0 -0.379,-0.301 -0.18,-0.699 l 0.611,-0.43 0.213,0.166 c 0,0 0.846,0.418 1.138,-0.356 l -0.074,-0.759 c 0,0 0.622,-1.076 0.679,-1.45 0,0 -0.354,-1.397 -1.439,-0.397 l -2.167,2.517 -3.023,-2.263 c 0,0 -1.164,-0.285 -1.474,0.662 0,0 -0.189,0.721 0.251,0.927 l 0.423,0.085 c 0,0 1.575,0.537 5.473,5.637 l 0.117,0.301 c 0,0 -1.052,1.478 -1.032,3.089 l -0.612,0.676 c 0,0 -0.399,1.565 0.553,1.196 l 1.147,-0.32 c 0,0 0.456,0.043 0.233,-1.938 0,0 -0.136,-0.665 0.751,-1.751 l 0.368,-0.021 0.249,0.153 c 0,0 1.263,8.474 3.428,11.248 0,0 0.689,2.108 -1.124,0.238 0,0 -1.994,-2.116 -2.516,-2.105 z"
       style="fill:#b31b21;fill-opacity:1;fill-rule:nonzero;stroke:none"
       transform="matrix(0.36927116,0,0,-0.36927116,67.703707,147.12838)"
       clip-path="url(#clipPath159)" />
    <path
       id="path160"
       d="m 0,0 c 0,0 -0.6,0.994 0.62,0.663 0,0 1.607,0.244 1.487,-1.311 0,0 -0.575,-1.599 -1.102,-1.625 l -0.773,0.051 0.267,1.812 c 0,0 -0.116,0.227 -0.499,0.41"
       style="fill:#b31b21;fill-opacity:1;fill-rule:nonzero;stroke:none"
       transform="matrix(0.36927116,0,0,-0.36927116,67.577859,147.97187)"
       clip-path="url(#clipPath161)" />
    <path
       id="path162"
       d="m 0,0 0.431,0.41 c 0,0 0.612,0.584 0.884,-0.313 0,0 -0.06,-3.184 -0.379,-5.591 0,0 -0.577,-1.358 -0.905,-1.3 l -1.044,0.262 z"
       style="fill:#b31b21;fill-opacity:1;fill-rule:nonzero;stroke:none"
       transform="matrix(0.36927116,0,0,-0.36927116,66.622405,148.74612)"
       clip-path="url(#clipPath163)" />
    <path
       id="path164"
       d="m 0,0 -0.258,1.902 c 0,0 1.378,2.269 2.089,2.689 C 1.831,4.591 0.608,1.271 0,0 M -2.458,3.821 -2.611,3.205 -2.018,0.771 c 0,0 -0.131,-0.245 -0.232,-0.314 -0.098,-0.067 -0.932,-1.63 -0.932,-1.63 l -0.73,0.33 c -0.33,3.539 1.167,4.914 1.167,4.914 0.245,0.072 0.287,-0.25 0.287,-0.25 M 0.66,4.89 C 0.466,4.67 -0.554,2.999 -0.554,2.999 L -0.653,3.195 -0.968,4.701 -0.839,5.013 -1.111,5.486 -1.801,5.4 -1.829,5.724 -0.832,7.491 -0.59,7.119 -0.897,6.702 -0.748,6.307 -0.049,6.565 1.319,8.876 c 1.551,1.548 0.452,2.11 0.452,2.11 C 0.596,11.202 0.027,10.212 0.027,10.212 -5.575,3.771 -4.713,-0.383 -4.713,-0.383 -3.878,-7.963 -5.957,-13.62 -5.957,-13.62 l -0.113,0.246 -0.072,2.182 0.723,3.064 c 0.634,1.997 -0.742,2.214 -0.742,2.214 l -1.579,-0.399 -0.316,1.284 c -0.158,0.672 0.459,2.281 0.459,2.281 -0.337,1.606 -0.84,1.575 -0.84,1.575 1.656,3.442 1.499,5.327 1.499,5.327 C -7.125,4.922 -7.69,5.367 -7.69,5.367 -9.265,5.359 -8.614,4.553 -8.614,4.553 L -8.287,4.264 C -8.155,3.887 -8.471,3.136 -8.471,3.136 l -1.581,-4.455 c -0.205,-0.88 0.363,-1.792 0.363,-1.792 l 0.713,0.036 0.156,-0.495 -0.475,-1.33 c -0.398,-0.856 0.184,-2.465 0.184,-2.465 0.132,-0.538 0.644,-0.6 0.644,-0.6 l 1.665,0.353 0.237,-0.181 0.015,-0.697 c -0.313,-0.582 -0.957,-4.813 -0.957,-4.813 -0.043,-2.488 0.662,-2.411 0.662,-2.411 0.183,-0.277 0.965,0.11 0.965,0.11 1.734,0.865 1.991,9.814 1.991,9.814 0.222,2.376 2.032,5.122 2.032,5.122 l 0.346,-1.264 0.363,-0.132 1.057,-4.758 -0.196,-0.444 -0.807,-1.276 c -0.53,-0.535 0.081,-1.791 0.081,-1.791 l 1.536,-0.056 0.13,-0.514 -0.249,-1.281 c 0,0 0.315,-2.114 0.482,-2.393 0.175,-0.283 1.463,-0.794 1.463,-0.794 1.828,0.029 2.768,1.997 2.768,1.997 1.347,1.159 0.354,1.7 0.354,1.7 -1.158,0.773 -2.573,-1.34 -2.573,-1.34 -0.365,-0.38 -0.8,-0.285 -0.8,-0.285 -0.437,0.973 0.152,4.173 0.152,4.173 0.374,1.813 -0.506,2.718 -0.506,2.718 L 0.658,-6.555 C 0.212,-4.098 0.004,-1.787 0.004,-1.787 0.217,-1.619 3.125,3.601 3.493,4.545 3.862,5.489 3.642,6.289 3.002,6.556 2.362,6.822 0.66,4.89 0.66,4.89"
       style="fill:#b31b21;fill-opacity:1;fill-rule:nonzero;stroke:none"
       transform="matrix(0.36927116,0,0,-0.36927116,83.472581,148.47168)"
       clip-path="url(#clipPath165)" />
    <path
       id="path166"
       d="M 0,0 H -0.03 L -1.686,-0.894 -1.935,0.09 0.146,1.203 H 1.247 V -8.329 H 0 Z"
       style="fill:#ffffff;fill-opacity:1;fill-rule:nonzero;stroke:#ffffff;stroke-width:0.5;stroke-linecap:butt;stroke-linejoin:miter;stroke-miterlimit:4;stroke-dasharray:none;stroke-opacity:1"
       transform="matrix(0.36927116,0,0,-0.36927116,70.875154,136.90599)"
       clip-path="url(#clipPath167)" />
    <path
       id="path168"
       d="m 0,0 c -1.085,0 -1.861,-0.969 -1.861,-2.316 0,-1.189 0.716,-2.023 1.831,-2.023 0.865,0 1.543,0.422 1.893,0.994 0.059,0.117 0.101,0.264 0.101,0.47 C 1.98,-1.23 1.363,0 0.014,0 Z m -2.331,-7.814 c 0.279,-0.018 0.6,0 1.041,0.057 0.747,0.087 1.451,0.395 1.993,0.923 0.632,0.571 1.087,1.407 1.261,2.536 H 1.922 c -0.531,-0.643 -1.292,-1.026 -2.26,-1.026 -1.714,0 -2.816,1.29 -2.816,2.934 0,1.789 1.321,3.372 3.27,3.372 1.95,0 3.154,-1.569 3.154,-4.019 0,-2.097 -0.706,-3.561 -1.645,-4.484 -0.729,-0.706 -1.744,-1.162 -2.77,-1.278 -0.469,-0.059 -0.893,-0.088 -1.186,-0.073 z"
       style="fill:#ffffff;fill-opacity:1;fill-rule:nonzero;stroke:#ffffff;stroke-width:0.5;stroke-linecap:butt;stroke-linejoin:miter;stroke-miterlimit:4;stroke-dasharray:none;stroke-opacity:1"
       transform="matrix(0.36927116,0,0,-0.36927116,73.833496,136.76464)"
       clip-path="url(#clipPath169)" />
    <path
       id="path170"
       d="m 0,0 h -3.635 l -0.368,-2.421 c 0.221,0.031 0.426,0.058 0.778,0.058 0.747,0 1.467,-0.159 2.052,-0.51 0.748,-0.412 1.365,-1.25 1.365,-2.481 0,-1.862 -1.481,-3.254 -3.548,-3.254 -1.041,0 -1.908,0.295 -2.377,0.587 l 0.325,0.981 c 0.394,-0.233 1.171,-0.528 2.052,-0.528 1.2,0 2.258,0.792 2.242,2.086 0,1.257 -0.835,2.124 -2.727,2.124 -0.556,0 -0.984,-0.044 -1.335,-0.105 l 0.619,4.547 H 0 Z"
       style="fill:#ffffff;fill-opacity:1;fill-rule:nonzero;stroke:#ffffff;stroke-width:0.5;stroke-linecap:butt;stroke-linejoin:miter;stroke-miterlimit:4;stroke-dasharray:none;stroke-opacity:1"
       transform="matrix(0.36927116,0,0,-0.36927116,77.985249,136.86201)"
       clip-path="url(#clipPath171)" />
    <path
       id="path172"
       d="m 0,0 c 1.1,0 1.847,0.924 1.847,2.29 0,1.361 -0.776,2.184 -1.965,2.184 -0.778,0 -1.509,-0.469 -1.861,-1.173 C -2.053,3.154 -2.111,2.979 -2.111,2.742 -2.097,1.175 -1.365,0 -0.016,0 Z M 2.213,7.801 C 1.948,7.816 1.613,7.785 1.247,7.728 -0.792,7.404 -1.848,5.925 -2.068,4.343 h 0.03 c 0.454,0.616 1.261,1.112 2.316,1.112 1.685,0 2.874,-1.232 2.874,-3.077 0,-1.76 -1.189,-3.374 -3.183,-3.374 -2.022,0 -3.357,1.583 -3.357,4.063 0,1.876 0.659,3.357 1.614,4.31 0.791,0.776 1.846,1.26 3.05,1.408 0.381,0.058 0.703,0.073 0.937,0.073 z"
       style="fill:#ffffff;fill-opacity:1;fill-rule:nonzero;stroke:#ffffff;stroke-width:0.5;stroke-linecap:butt;stroke-linejoin:miter;stroke-miterlimit:4;stroke-dasharray:none;stroke-opacity:1"
       transform="matrix(0.36927116,0,0,-0.36927116,80.112547,139.67301)"
       clip-path="url(#clipPath173)" />
    <path
       id="path174"
       d="m 0,0 -9.952,-0.489 -0.069,1.417 4.878,3.422 c 1.13,0.78 2.137,1.42 3.148,1.93 L -2.014,6.324 C -3.336,6.141 -4.546,6.05 -6.082,5.976 L -10.258,5.77 -10.319,6.98 -0.369,7.471 -0.303,6.17 -5.198,2.764 C -6.272,2.016 -7.375,1.293 -8.428,0.754 l 0.015,-0.043 c 1.254,0.137 2.447,0.21 4.1,0.29 l 4.252,0.21 z"
       style="fill:#b31b21;fill-opacity:1;fill-rule:nonzero;stroke:#b31b21;stroke-width:0.4;stroke-linecap:butt;stroke-linejoin:miter;stroke-miterlimit:4;stroke-dasharray:none;stroke-opacity:1"
       transform="matrix(0.36927116,0,0,-0.36927116,44.459635,120.31475)"
       clip-path="url(#clipPath175)" />
    <path
       id="path176"
       d="m 0,0 -2.914,-0.843 c -0.66,-0.175 -1.256,-0.291 -1.838,-0.41 l -0.003,-0.044 c 0.568,-0.161 1.178,-0.354 1.777,-0.578 l 2.825,-1.119 z m 0.836,-3.312 3.077,-1.193 -0.067,-1.326 -9.773,3.884 0.078,1.55 L 4.269,2.489 4.199,1.118 1.016,0.215 Z"
       style="fill:#b31b21;fill-opacity:1;fill-rule:nonzero;stroke:#b31b21;stroke-width:0.4;stroke-linecap:butt;stroke-linejoin:miter;stroke-miterlimit:4;stroke-dasharray:none;stroke-opacity:1"
       transform="matrix(0.36927116,0,0,-0.36927116,42.895846,115.12169)"
       clip-path="url(#clipPath177)" />
    <path
       id="path178"
       d="m 0,0 -9.846,1.509 0.215,1.401 5.462,2.379 c 1.264,0.538 2.375,0.966 3.468,1.262 l -0.007,0.047 c -1.334,0.083 -2.537,0.237 -4.054,0.47 L -8.897,7.702 -8.715,8.9 1.133,7.391 0.935,6.106 -4.539,3.744 C -5.741,3.226 -6.967,2.741 -8.108,2.422 L -8.099,2.377 C -6.846,2.26 -5.661,2.093 -4.025,1.842 L 0.183,1.197 Z"
       style="fill:#b31b21;fill-opacity:1;fill-rule:nonzero;stroke:#b31b21;stroke-width:0.4;stroke-linecap:butt;stroke-linejoin:miter;stroke-miterlimit:4;stroke-dasharray:none;stroke-opacity:1"
       transform="matrix(0.36927116,0,0,-0.36927116,44.507271,113.934)"
       clip-path="url(#clipPath179)" />
    <path
       id="path180"
       d="m 0,0 0.299,1.265 6.489,-1.54 C 9.361,-0.887 9.852,-2.341 9.456,-4.008 9.343,-4.483 9.109,-5.021 8.908,-5.292 l -0.98,0.415 c 0.162,0.236 0.336,0.59 0.439,1.021 0.267,1.122 -0.083,1.888 -1.982,2.338 z"
       style="fill:#b31b21;fill-opacity:1;fill-rule:nonzero;stroke:#b31b21;stroke-width:0.4;stroke-linecap:butt;stroke-linejoin:miter;stroke-miterlimit:4;stroke-dasharray:none;stroke-opacity:1"
       transform="matrix(0.36927116,0,0,-0.36927116,41.749444,108.90106)"
       clip-path="url(#clipPath181)" />
    <path
       id="path182"
       d="M 0,0 9.578,-2.734 9.222,-3.985 -0.356,-1.25 Z"
       style="fill:#b31b21;fill-opacity:1;fill-rule:nonzero;stroke:#b31b21;stroke-width:0.4;stroke-linecap:butt;stroke-linejoin:miter;stroke-miterlimit:4;stroke-dasharray:none;stroke-opacity:1"
       transform="matrix(0.36927116,0,0,-0.36927116,42.110959,107.38088)"
       clip-path="url(#clipPath183)" />
    <path
       id="path184"
       d="m 0,0 -9.364,3.39 0.482,1.335 5.82,1.272 c 1.343,0.282 2.515,0.486 3.645,0.565 L 0.585,6.608 C -0.706,6.951 -1.854,7.334 -3.3,7.858 L -7.231,9.281 -6.82,10.421 2.545,7.031 2.103,5.807 -3.727,4.555 C -5.005,4.279 -6.302,4.042 -7.48,3.95 L -7.481,3.903 C -6.276,3.545 -5.145,3.151 -3.589,2.587 L 0.413,1.138 Z"
       style="fill:#b31b21;fill-opacity:1;fill-rule:nonzero;stroke:#b31b21;stroke-width:0.4;stroke-linecap:butt;stroke-linejoin:miter;stroke-miterlimit:4;stroke-dasharray:none;stroke-opacity:1"
       transform="matrix(0.36927116,0,0,-0.36927116,45.749944,107.97249)"
       clip-path="url(#clipPath185)" />
    <path
       id="path186"
       d="m 0,0 c -0.051,-0.612 -0.265,-1.792 -0.854,-3.002 -0.661,-1.355 -1.55,-2.303 -2.814,-2.773 -1.121,-0.408 -2.549,-0.305 -3.944,0.375 -2.671,1.301 -3.726,4.1 -2.262,7.103 0.505,1.035 1.131,1.752 1.505,2.047 l 0.802,-0.752 c -0.459,-0.37 -0.91,-0.891 -1.351,-1.794 -1.061,-2.179 -0.396,-4.261 1.85,-5.356 2.27,-1.107 4.274,-0.405 5.296,1.696 0.368,0.756 0.514,1.327 0.512,1.658 l -2.672,1.3 -0.881,-1.807 -0.929,0.454 1.437,2.949 z"
       style="fill:#b31b21;fill-opacity:1;fill-rule:nonzero;stroke:#b31b21;stroke-width:0.4;stroke-linecap:butt;stroke-linejoin:miter;stroke-miterlimit:4;stroke-dasharray:none;stroke-opacity:1"
       transform="matrix(0.36927116,0,0,-0.36927116,47.990976,102.27006)"
       clip-path="url(#clipPath187)" />
    <path
       id="path188"
       d="m 0,0 4.833,-3.405 c 1.813,-1.277 3.157,-1.012 3.921,0.075 0.844,1.197 0.6,2.543 -1.189,3.804 L 2.733,3.877 3.481,4.94 8.241,1.589 C 10.744,-0.173 10.828,-2.206 9.587,-3.97 8.413,-5.637 6.586,-6.229 4.05,-4.441 l -4.798,3.377 z"
       style="fill:#b31b21;fill-opacity:1;fill-rule:nonzero;stroke:#b31b21;stroke-width:0.4;stroke-linecap:butt;stroke-linejoin:miter;stroke-miterlimit:4;stroke-dasharray:none;stroke-opacity:1"
       transform="matrix(0.36927116,0,0,-0.36927116,46.539851,97.926981)"
       clip-path="url(#clipPath189)" />
    <path
       id="path190"
       d="M 0,0 -7.504,6.553 -6.57,7.622 -0.684,6.7 C 0.672,6.477 1.841,6.242 2.921,5.906 l 0.02,0.045 C 1.86,6.735 0.927,7.51 -0.231,8.521 L -3.38,11.273 -2.583,12.186 4.92,5.633 4.064,4.654 -1.824,5.596 C -3.117,5.801 -4.411,6.05 -5.545,6.391 L -5.562,6.349 c 0.995,-0.771 1.906,-1.547 3.153,-2.637 l 3.207,-2.8 z"
       style="fill:#b31b21;fill-opacity:1;fill-rule:nonzero;stroke:#b31b21;stroke-width:0.4;stroke-linecap:butt;stroke-linejoin:miter;stroke-miterlimit:4;stroke-dasharray:none;stroke-opacity:1"
       transform="matrix(0.36927116,0,0,-0.36927116,50.989863,97.871777)"
       clip-path="url(#clipPath191)" />
    <path
       id="path192"
       d="M 0,0 7.175,-6.905 6.273,-7.841 -0.903,-0.937 Z"
       style="fill:#b31b21;fill-opacity:1;fill-rule:nonzero;stroke:#b31b21;stroke-width:0.4;stroke-linecap:butt;stroke-linejoin:miter;stroke-miterlimit:4;stroke-dasharray:none;stroke-opacity:1"
       transform="matrix(0.36927116,0,0,-0.36927116,50.921179,92.500396)"
       clip-path="url(#clipPath193)" />
    <path
       id="path194"
       d="m 0,0 -9.041,5.296 1.051,0.929 4.411,-2.647 c 1.199,-0.732 2.29,-1.406 3.262,-2.082 l 0.022,0.019 c -0.551,1.048 -1.085,2.253 -1.602,3.53 l -1.999,4.8 1.029,0.911 3.929,-9.816 z"
       style="fill:#b31b21;fill-opacity:1;fill-rule:nonzero;stroke:#b31b21;stroke-width:0.4;stroke-linecap:butt;stroke-linejoin:miter;stroke-miterlimit:4;stroke-dasharray:none;stroke-opacity:1"
       transform="matrix(0.36927116,0,0,-0.36927116,54.539408,94.145535)"
       clip-path="url(#clipPath195)" />
    <path
       id="path196"
       d="m 0,0 -3.037,-2.381 2.215,-2.826 3.398,2.662 0.664,-0.849 -4.418,-3.463 -6.145,7.839 4.244,3.327 0.665,-0.849 -3.22,-2.525 1.939,-2.477 3.038,2.38 z"
       style="fill:#b31b21;fill-opacity:1;fill-rule:nonzero;stroke:#b31b21;stroke-width:0.4;stroke-linecap:butt;stroke-linejoin:miter;stroke-miterlimit:4;stroke-dasharray:none;stroke-opacity:1"
       transform="matrix(0.36927116,0,0,-0.36927116,56.446548,90.313643)"
       clip-path="url(#clipPath197)" />
    <path
       id="path198"
       d="M 0,0 1.09,0.737 C 2.229,1.506 2.53,2.619 1.895,3.561 1.175,4.627 0.089,4.572 -1.04,3.811 -1.553,3.464 -1.875,3.176 -2.025,3.002 Z m -3.597,3.031 c 0.466,0.473 1.201,1.076 1.924,1.564 C -0.534,5.364 0.362,5.647 1.19,5.529 1.834,5.446 2.46,5.049 2.897,4.397 3.625,3.32 3.413,2.125 2.754,1.255 L 2.778,1.217 C 3.553,1.419 4.33,1.087 5.117,0.37 6.163,-0.601 6.896,-1.265 7.269,-1.475 L 6.167,-2.22 C 5.876,-2.078 5.212,-1.492 4.297,-0.612 3.285,0.364 2.542,0.486 1.549,-0.13 L 0.544,-0.807 2.957,-4.386 1.891,-5.104 Z"
       style="fill:#b31b21;fill-opacity:1;fill-rule:nonzero;stroke:#b31b21;stroke-width:0.4;stroke-linecap:butt;stroke-linejoin:miter;stroke-miterlimit:4;stroke-dasharray:none;stroke-opacity:1"
       transform="matrix(0.36927116,0,0,-0.36927116,57.245132,89.459705)"
       clip-path="url(#clipPath199)" />
    <path
       id="path200"
       d="M 0,0 C 0.684,-0.02 1.539,0.167 2.297,0.624 3.426,1.301 3.734,2.281 3.206,3.155 2.735,3.938 1.998,4.134 0.586,3.87 -1.111,3.541 -2.415,3.757 -3.131,4.947 c -0.8,1.328 -0.293,2.98 1.367,3.979 0.861,0.517 1.629,0.704 2.127,0.708 L 0.598,8.552 C 0.234,8.558 -0.48,8.456 -1.252,7.989 -2.417,7.289 -2.442,6.327 -2.091,5.745 -1.613,4.946 -0.857,4.867 0.595,5.118 2.38,5.416 3.515,5.167 4.27,3.913 5.061,2.596 4.79,0.864 2.779,-0.346 1.955,-0.841 0.903,-1.129 0.266,-1.099 Z"
       style="fill:#b31b21;fill-opacity:1;fill-rule:nonzero;stroke:#b31b21;stroke-width:0.4;stroke-linecap:butt;stroke-linejoin:miter;stroke-miterlimit:4;stroke-dasharray:none;stroke-opacity:1"
       transform="matrix(0.36927116,0,0,-0.36927116,60.023124,89.415688)"
       clip-path="url(#clipPath201)" />
    <path
       id="path202"
       d="M 0,0 4.109,-9.072 2.925,-9.611 -1.186,-0.537 Z"
       style="fill:#b31b21;fill-opacity:1;fill-rule:nonzero;stroke:#b31b21;stroke-width:0.4;stroke-linecap:butt;stroke-linejoin:miter;stroke-miterlimit:4;stroke-dasharray:none;stroke-opacity:1"
       transform="matrix(0.36927116,0,0,-0.36927116,61.384295,85.252193)"
       clip-path="url(#clipPath203)" />
    <path
       id="path204"
       d="M 0,0 -2.826,-1.092 -3.22,-0.072 3.659,2.588 4.054,1.568 1.212,0.471 4.412,-7.8 3.201,-8.27 Z"
       style="fill:#b31b21;fill-opacity:1;fill-rule:nonzero;stroke:#b31b21;stroke-width:0.4;stroke-linecap:butt;stroke-linejoin:miter;stroke-miterlimit:4;stroke-dasharray:none;stroke-opacity:1"
       transform="matrix(0.36927116,0,0,-0.36927116,62.99823,85.126528)"
       clip-path="url(#clipPath205)" />
    <path
       id="path206"
       d="M 0,0 -1.174,4.061 -5.799,8.692 -4.38,9.102 -2.271,6.85 C -1.708,6.23 -1.24,5.733 -0.749,5.152 l 0.028,0.007 c 0.075,0.699 0.236,1.424 0.396,2.252 L 0.29,10.451 1.681,10.852 0.072,4.436 1.25,0.36 Z"
       style="fill:#b31b21;fill-opacity:1;fill-rule:nonzero;stroke:#b31b21;stroke-width:0.4;stroke-linecap:butt;stroke-linejoin:miter;stroke-miterlimit:4;stroke-dasharray:none;stroke-opacity:1"
       transform="matrix(0.36927116,0,0,-0.36927116,66.788467,87.278162)"
       clip-path="url(#clipPath207)" />
    <path
       id="path208"
       d="M 0,0 C 2.021,0.255 2.929,2.26 2.648,4.503 2.4,6.468 1.118,8.391 -1.008,8.123 -3.134,7.854 -3.94,5.744 -3.672,3.603 -3.408,1.521 -2.025,-0.256 -0.015,-0.002 Z M 0.07,-1.048 C -2.553,-1.377 -4.625,0.416 -5.002,3.406 -5.396,6.542 -3.719,8.838 -1.082,9.17 1.63,9.511 3.635,7.665 4.005,4.733 4.43,1.346 2.593,-0.73 0.086,-1.046 Z"
       style="fill:#b31b21;fill-opacity:1;fill-rule:nonzero;stroke:#b31b21;stroke-width:0.4;stroke-linecap:butt;stroke-linejoin:miter;stroke-miterlimit:4;stroke-dasharray:none;stroke-opacity:1"
       transform="matrix(0.36927116,0,0,-0.36927116,71.720267,85.910678)"
       clip-path="url(#clipPath209)" />
    <path
       id="path210"
       d="M 0,0 5.364,0.176 5.398,-0.902 1.337,-1.035 1.444,-4.345 5.198,-4.221 5.232,-5.285 1.479,-5.409 1.628,-9.916 0.326,-9.958 Z"
       style="fill:#b31b21;fill-opacity:1;fill-rule:nonzero;stroke:#b31b21;stroke-width:0.4;stroke-linecap:butt;stroke-linejoin:miter;stroke-miterlimit:4;stroke-dasharray:none;stroke-opacity:1"
       transform="matrix(0.36927116,0,0,-0.36927116,73.653884,82.356108)"
       clip-path="url(#clipPath211)" />
    <path
       id="path212"
       d="M 0,0 5.339,-0.526 5.232,-1.6 1.187,-1.202 0.863,-4.497 4.599,-4.864 4.496,-5.924 0.76,-5.556 0.317,-10.042 -0.976,-9.916 Z"
       style="fill:#b31b21;fill-opacity:1;fill-rule:nonzero;stroke:#b31b21;stroke-width:0.4;stroke-linecap:butt;stroke-linejoin:miter;stroke-miterlimit:4;stroke-dasharray:none;stroke-opacity:1"
       transform="matrix(0.36927116,0,0,-0.36927116,78.290709,82.387831)"
       clip-path="url(#clipPath213)" />
    <path
       id="path214"
       d="m 0,0 -1.516,-9.846 -1.286,0.199 1.517,9.846 z"
       style="fill:#b31b21;fill-opacity:1;fill-rule:nonzero;stroke:#b31b21;stroke-width:0.4;stroke-linecap:butt;stroke-linejoin:miter;stroke-miterlimit:4;stroke-dasharray:none;stroke-opacity:1"
       transform="matrix(0.36927116,0,0,-0.36927116,81.333026,82.753298)"
       clip-path="url(#clipPath215)" />
    <path
       id="path216"
       d="M 0,0 2.194,9.715 3.578,9.404 5.568,3.787 C 6.017,2.49 6.366,1.35 6.585,0.24 L 6.63,0.244 C 6.809,1.567 7.047,2.756 7.386,4.255 L 8.307,8.335 9.489,8.068 7.296,-1.648 6.027,-1.362 4.055,4.267 C 3.623,5.501 3.224,6.756 2.986,7.917 L 2.938,7.913 C 2.734,6.67 2.485,5.499 2.121,3.885 L 1.182,-0.268 Z"
       style="fill:#b31b21;fill-opacity:1;fill-rule:nonzero;stroke:#b31b21;stroke-width:0.4;stroke-linecap:butt;stroke-linejoin:miter;stroke-miterlimit:4;stroke-dasharray:none;stroke-opacity:1"
       transform="matrix(0.36927116,0,0,-0.36927116,81.331585,86.453949)"
       clip-path="url(#clipPath217)" />
    <path
       id="path218"
       d="m 0,0 -0.025,3.033 c 0.011,0.681 0.06,1.289 0.104,1.882 L 0.037,4.93 C -0.273,4.425 -0.626,3.89 -1,3.376 L -2.844,0.957 Z m -3.416,0.088 -1.98,-2.641 -1.258,0.425 6.381,8.362 1.472,-0.493 0.047,-10.525 -1.304,0.436 -0.01,3.309 z"
       style="fill:#b31b21;fill-opacity:1;fill-rule:nonzero;stroke:#b31b21;stroke-width:0.4;stroke-linecap:butt;stroke-linejoin:miter;stroke-miterlimit:4;stroke-dasharray:none;stroke-opacity:1"
       transform="matrix(0.36927116,0,0,-0.36927116,86.750749,86.343979)"
       clip-path="url(#clipPath219)" />
    <path
       id="path220"
       d="M 0,0 4.125,9.065 5.415,8.477 6.221,2.576 C 6.396,1.214 6.505,0.027 6.496,-1.104 L 6.542,-1.108 C 6.984,0.151 7.459,1.266 8.095,2.664 L 9.827,6.471 10.928,5.97 6.808,-3.096 5.623,-2.558 4.836,3.351 C 4.663,4.647 4.53,5.959 4.532,7.141 L 4.486,7.146 C 4.033,5.974 3.55,4.877 2.866,3.372 L 1.104,-0.503 Z"
       style="fill:#b31b21;fill-opacity:1;fill-rule:nonzero;stroke:#b31b21;stroke-width:0.4;stroke-linecap:butt;stroke-linejoin:miter;stroke-miterlimit:4;stroke-dasharray:none;stroke-opacity:1"
       transform="matrix(0.36927116,0,0,-0.36927116,87.454321,88.216996)"
       clip-path="url(#clipPath221)" />
    <path
       id="path222"
       d="M 0,0 C -0.515,0.026 -1.464,0.304 -2.512,0.912 -4.939,2.323 -5.863,4.911 -4.214,7.746 -2.642,10.455 0.239,11.208 2.91,9.655 3.971,9.04 4.525,8.41 4.73,8.085 L 3.923,7.342 C 3.632,7.785 3.121,8.285 2.405,8.702 0.387,9.873 -1.704,9.363 -3.019,7.102 -4.25,4.981 -3.817,2.933 -1.731,1.723 -1.042,1.324 -0.271,1.063 0.301,1.021 Z"
       style="fill:#b31b21;fill-opacity:1;fill-rule:nonzero;stroke:#b31b21;stroke-width:0.4;stroke-linecap:butt;stroke-linejoin:miter;stroke-miterlimit:4;stroke-dasharray:none;stroke-opacity:1"
       transform="matrix(0.36927116,0,0,-0.36927116,92.7397,90.818328)"
       clip-path="url(#clipPath223)" />
    <path
       id="path224"
       d="m 0,0 -3.159,2.211 -2.06,-2.94 3.536,-2.476 -0.621,-0.883 -4.599,3.222 5.714,8.157 L 3.229,4.198 2.609,3.313 -0.745,5.662 -2.55,3.083 0.609,0.871 Z"
       style="fill:#b31b21;fill-opacity:1;fill-rule:nonzero;stroke:#b31b21;stroke-width:0.4;stroke-linecap:butt;stroke-linejoin:miter;stroke-miterlimit:4;stroke-dasharray:none;stroke-opacity:1"
       transform="matrix(0.36927116,0,0,-0.36927116,95.488482,90.785314)"
       clip-path="url(#clipPath225)" />
    <path
       id="path226"
       d="m 0,0 c -0.593,0.556 -1.371,0.353 -1.896,-0.207 -0.487,-0.518 -0.613,-1.149 -0.675,-1.821 1.139,-0.277 1.966,-0.324 2.542,0.29 0.414,0.443 0.633,1.172 0.039,1.728 z m -5.958,-5.963 c 0.623,-0.586 1.405,-0.792 2.104,-0.738 0.002,0.868 0.033,2.521 0.105,4.197 -0.629,0.126 -1.604,0.167 -2.323,-0.597 -0.778,-0.831 -0.771,-2.033 0.101,-2.853 z m 2.073,-3.06 c -0.013,0.398 -0.016,0.784 -0.022,1.337 -1.161,0.015 -2.082,0.414 -2.892,1.173 -1.413,1.324 -1.342,3.042 -0.32,4.132 0.929,0.989 2.151,1.103 3.415,0.787 l 0.032,0.034 c 0.077,0.817 0.324,1.578 0.809,2.096 0.831,0.883 2.327,1.184 3.534,0.049 0.905,-0.849 1.051,-2.1 0.159,-3.047 -0.718,-0.766 -1.726,-0.956 -3.415,-0.445 l -0.031,-0.031 c -0.063,-1.299 -0.111,-2.734 -0.133,-3.687 0.81,0.194 1.694,0.682 2.694,1.468 L 0.808,-5.966 C -0.459,-6.928 -1.621,-7.54 -2.757,-7.67 -2.753,-8.443 -2.76,-9.208 -2.764,-10.076 Z"
       style="fill:#b31b21;fill-opacity:1;fill-rule:nonzero;stroke:#b31b21;stroke-width:0.4;stroke-linecap:butt;stroke-linejoin:miter;stroke-miterlimit:4;stroke-dasharray:none;stroke-opacity:1"
       transform="matrix(0.36927116,0,0,-0.36927116,99.401721,91.868978)"
       clip-path="url(#clipPath227)" />
    <path
       id="path228"
       d="M 0,0 -2.41,3.009 -5.213,0.765 -2.515,-2.604 -3.356,-3.278 -6.867,1.104 0.906,7.332 4.279,3.122 3.437,2.447 0.876,5.643 -1.578,3.673 0.832,0.663 Z"
       style="fill:#b31b21;fill-opacity:1;fill-rule:nonzero;stroke:#b31b21;stroke-width:0.4;stroke-linecap:butt;stroke-linejoin:miter;stroke-miterlimit:4;stroke-dasharray:none;stroke-opacity:1"
       transform="matrix(0.36927116,0,0,-0.36927116,102.18747,97.442646)"
       clip-path="url(#clipPath229)" />
    <path
       id="path230"
       d="M 0,0 C -0.452,0.249 -1.181,0.915 -1.858,1.92 -3.422,4.252 -3.119,6.983 -0.396,8.811 2.203,10.557 5.125,9.971 6.845,7.406 7.528,6.388 7.754,5.578 7.795,5.197 L 6.742,4.881 C 6.676,5.407 6.436,6.081 5.975,6.768 4.673,8.707 2.571,9.163 0.398,7.706 -1.637,6.339 -2.142,4.31 -0.802,2.31 -0.358,1.646 0.223,1.075 0.719,0.786 Z"
       style="fill:#b31b21;fill-opacity:1;fill-rule:nonzero;stroke:#b31b21;stroke-width:0.4;stroke-linecap:butt;stroke-linejoin:miter;stroke-miterlimit:4;stroke-dasharray:none;stroke-opacity:1"
       transform="matrix(0.36927116,0,0,-0.36927116,102.67738,100.99655)"
       clip-path="url(#clipPath231)" />
    <path
       id="path232"
       d="M 0,0 C 0.965,-1.798 3.164,-1.923 5.155,-0.852 6.899,0.086 8.23,1.978 7.216,3.865 6.202,5.75 3.94,5.742 2.041,4.722 0.191,3.727 -0.967,1.796 -0.008,0.013 Z m -0.952,-0.446 c -1.254,2.33 -0.327,4.91 2.33,6.338 C 4.163,7.39 6.908,6.651 8.168,4.308 9.463,1.901 8.46,-0.635 5.858,-2.034 2.851,-3.65 0.253,-2.683 -0.946,-0.458 Z"
       style="fill:#b31b21;fill-opacity:1;fill-rule:nonzero;stroke:#b31b21;stroke-width:0.4;stroke-linecap:butt;stroke-linejoin:miter;stroke-miterlimit:4;stroke-dasharray:none;stroke-opacity:1"
       transform="matrix(0.36927116,0,0,-0.36927116,103.66655,102.35676)"
       clip-path="url(#clipPath233)" />
    <path
       id="path234"
       d="M 0,0 9.237,3.74 9.769,2.425 6.289,-2.413 c -0.811,-1.11 -1.55,-2.048 -2.335,-2.86 l 0.03,-0.035 c 1.188,0.607 2.301,1.092 3.726,1.667 l 3.879,1.571 0.453,-1.123 -9.234,-3.742 -0.49,1.207 3.5,4.829 C 6.585,0.163 7.39,1.207 8.208,2.064 L 8.178,2.1 C 7.04,1.559 5.936,1.097 4.401,0.474 L 0.454,-1.125 Z"
       style="fill:#b31b21;fill-opacity:1;fill-rule:nonzero;stroke:#b31b21;stroke-width:0.4;stroke-linecap:butt;stroke-linejoin:miter;stroke-miterlimit:4;stroke-dasharray:none;stroke-opacity:1"
       transform="matrix(0.36927116,0,0,-0.36927116,104.309,104.3153)"
       clip-path="url(#clipPath235)" />
    <path
       id="path236"
       d="M 0,0 C 0.555,-1.962 2.672,-2.563 4.849,-1.947 6.754,-1.41 8.463,0.149 7.881,2.209 7.298,4.273 5.09,4.754 3.014,4.167 0.995,3.597 -0.555,1.962 -0.005,0.013 Z M -1.027,-0.229 C -1.746,2.316 -0.281,4.634 2.62,5.453 5.665,6.313 8.183,4.999 8.906,2.438 9.65,-0.192 8.122,-2.451 5.28,-3.254 c -3.285,-0.929 -5.614,0.579 -6.302,3.01 z"
       style="fill:#b31b21;fill-opacity:1;fill-rule:nonzero;stroke:#b31b21;stroke-width:0.4;stroke-linecap:butt;stroke-linejoin:miter;stroke-miterlimit:4;stroke-dasharray:none;stroke-opacity:1"
       transform="matrix(0.36927116,0,0,-0.36927116,106.24188,108.71517)"
       clip-path="url(#clipPath237)" />
    <path
       id="path238"
       d="M 0,0 C 1.361,0.285 3.011,0.631 4.224,0.817 L 4.218,0.847 C 3.027,1.022 1.722,1.224 0.29,1.51 l -5.044,1.001 -0.148,0.962 4.438,2.331 C 0.865,6.489 2.061,7.063 3.188,7.521 L 3.182,7.55 C 1.952,7.388 0.305,7.209 -1.197,7.066 L -5.458,6.677 -5.645,7.887 4.302,8.724 4.552,7.103 0.052,4.689 C -1.097,4.091 -2.127,3.604 -3.108,3.182 L -3.103,3.153 C -2.071,3.044 -0.937,2.862 0.373,2.615 l 5.031,-1.016 0.25,-1.62 -9.746,-2.137 -0.193,1.257 z"
       style="fill:#b31b21;fill-opacity:1;fill-rule:nonzero;stroke:#b31b21;stroke-width:0.4;stroke-linecap:butt;stroke-linejoin:miter;stroke-miterlimit:4;stroke-dasharray:none;stroke-opacity:1"
       transform="matrix(0.36927116,0,0,-0.36927116,108.47445,113.40247)"
       clip-path="url(#clipPath239)" />
    <path
       id="path240"
       d="m 0,0 -9.935,-0.711 -0.094,1.296 9.934,0.711 z"
       style="fill:#b31b21;fill-opacity:1;fill-rule:nonzero;stroke:#b31b21;stroke-width:0.4;stroke-linecap:butt;stroke-linejoin:miter;stroke-miterlimit:4;stroke-dasharray:none;stroke-opacity:1"
       transform="matrix(0.36927116,0,0,-0.36927116,110.65079,114.86907)"
       clip-path="url(#clipPath241)" />
    <path
       id="path242"
       d="M 0,0 C -0.244,0.452 -0.498,1.409 -0.52,2.621 -0.572,5.429 1.163,7.559 4.445,7.618 7.577,7.674 9.713,5.599 9.77,2.512 9.792,1.284 9.539,0.481 9.369,0.139 L 8.314,0.446 C 8.542,0.922 8.707,1.62 8.691,2.448 8.649,4.783 7.129,6.308 4.514,6.258 2.062,6.216 0.535,4.785 0.578,2.375 0.592,1.577 0.771,0.781 1.029,0.269 Z"
       style="fill:#b31b21;fill-opacity:1;fill-rule:nonzero;stroke:#b31b21;stroke-width:0.4;stroke-linecap:butt;stroke-linejoin:miter;stroke-miterlimit:4;stroke-dasharray:none;stroke-opacity:1"
       transform="matrix(0.36927116,0,0,-0.36927116,107.24693,118.18927)"
       clip-path="url(#clipPath243)" />
    <path
       id="path244"
       d="m 0,0 c -0.405,-0.552 -0.739,-1.361 -0.795,-2.247 -0.082,-1.312 0.546,-2.122 1.566,-2.189 0.913,-0.057 1.492,0.441 2.081,1.75 0.693,1.586 1.612,2.536 3,2.446 C 7.4,-0.338 8.471,-1.695 8.347,-3.627 8.284,-4.63 7.999,-5.367 7.721,-5.779 l -1.026,0.418 c 0.213,0.298 0.534,0.947 0.59,1.845 0.089,1.359 -0.689,1.926 -1.368,1.969 -0.931,0.06 -1.428,-0.517 -2.044,-1.855 -0.771,-1.639 -1.622,-2.43 -3.084,-2.335 -1.531,0.096 -2.804,1.301 -2.655,3.647 0.063,0.959 0.422,1.986 0.811,2.498 z"
       style="fill:#b31b21;fill-opacity:1;fill-rule:nonzero;stroke:#b31b21;stroke-width:0.4;stroke-linecap:butt;stroke-linejoin:miter;stroke-miterlimit:4;stroke-dasharray:none;stroke-opacity:1"
       transform="matrix(0.36927116,0,0,-0.36927116,107.72476,118.64007)"
       clip-path="url(#clipPath245)" />
    <path
       id="path246"
       d="m 0,0 h 76.688 l 4.489,-5.565 4.665,5.777 h 80.661 l -8.982,-12.2 H 86.014 l -4.492,-4.708 -5.526,4.285 H 9.671 Z"
       style="fill:#f08300;fill-opacity:1;fill-rule:nonzero;stroke:none"
       transform="matrix(0.36927116,0,0,-0.36927116,44.992826,122.16473)"
       clip-path="url(#clipPath247)" />
    <path
       id="path248"
       d="m 0,0 h 66.11 l 4.875,-3.776 4.011,4.204 h 71.396 l 6.818,9.26 H 76.153 L 70.79,3.041 65.599,9.477 H -7.386 Z M 65.104,-2.937 H -1.434 l -10.115,12.978 1.161,0.903 -1.161,-0.903 -1.845,2.372 H 67 l 3.79,-4.694 3.961,4.908 h 84.268 L 147.87,-2.511 H 76.252 L 71.28,-7.722 Z"
       style="fill:#ffffff;fill-opacity:1;fill-rule:nonzero;stroke:none"
       transform="matrix(0.36927116,0,0,-0.36927116,48.847462,126.20614)"
       clip-path="url(#clipPath249)" />
    <path
       id="path250"
       d="m 0,0 h 69.26 l 4.057,-4.914 4.214,5.101 h 72.846 L 142.26,-10.581 H 77.683 l -4.054,-4.157 -4.991,3.776 H 8.737 Z"
       style="fill:#f08300;fill-opacity:1;fill-rule:nonzero;stroke:none"
       transform="matrix(0.36927116,0,0,-0.36927116,47.970074,117.99528)"
       clip-path="url(#clipPath251)" />
    <path
       id="path252"
       d="m 0,0 h 59.686 l 4.349,-3.297 3.586,3.673 64.461,0.004 5.897,7.825 H 68.776 L 63.873,2.265 59.124,8.019 H -6.392 Z M 58.697,-2.944 H -1.416 l -9.177,11.515 1.149,0.916 -1.149,-0.916 -1.902,2.386 h 73.002 l 3.366,-4.074 3.519,4.263 h 76.489 L 133.549,-2.561 H 68.86 l -4.529,-4.645 z"
       style="fill:#ffffff;fill-opacity:1;fill-rule:nonzero;stroke:none"
       transform="matrix(0.36927116,0,0,-0.36927116,51.476711,121.49867)"
       clip-path="url(#clipPath253)" />
    <path
       id="path254"
       d="m 0,0 h 55.475 l 3.248,-4.169 3.376,4.33 h 58.345 l -6.498,-9.134 H 62.22 l -3.248,-3.528 -3.996,3.207 H 6.996 Z"
       style="fill:#f08300;fill-opacity:1;fill-rule:nonzero;stroke:none"
       transform="matrix(0.36927116,0,0,-0.36927116,53.496884,114.52868)"
       clip-path="url(#clipPath255)" />
    <path
       id="path256"
       d="m 0,0 h 47.764 l 3.33,-2.67 2.751,2.989 h 51.616 l 4.411,6.2 H 55.086 L 50.996,1.268 47.029,6.357 H -4.785 Z M 46.733,-2.938 H -1.465 l -7.437,9.879 1.171,0.882 -1.171,-0.882 -1.77,2.351 h 59.135 l 2.533,-3.248 2.658,3.41 h 61.909 l -8.586,-12.07 H 55.138 l -3.741,-4.061 z"
       style="fill:#ffffff;fill-opacity:1;fill-rule:nonzero;stroke:none"
       transform="matrix(0.36927116,0,0,-0.36927116,56.368484,117.41811)"
       clip-path="url(#clipPath257)" />
    <path
       id="path258"
       d="m 61.994216,115.70381 c 0,7.58816 6.152426,13.73984 13.740211,13.73984 v 0 c 7.588522,0 13.74021,-6.15168 13.74021,-13.73984 v 0 c 0,-7.58852 -6.151688,-13.74058 -13.74021,-13.74058 v 0 c -7.587785,0 -13.740211,6.15206 -13.740211,13.74058"
       style="fill:url(#radialGradient258);stroke:none;stroke-width:0.369271" />
    <path
       id="path259"
       d="m 0,0 c -6.398,-6.4 -10.348,-15.218 -10.35,-24.98 0.002,-9.759 3.952,-18.579 10.35,-24.977 6.396,-6.395 15.217,-10.348 24.979,-10.348 9.759,0 18.581,3.953 24.977,10.348 6.397,6.398 10.346,15.218 10.346,24.977 0,9.762 -3.949,18.58 -10.346,24.98 C 43.56,6.395 34.738,10.347 24.979,10.35 15.217,10.347 6.396,6.395 0,0 m -14.11,-24.98 c 0,21.59 17.501,39.09 39.089,39.093 C 46.565,14.11 64.065,-3.39 64.068,-24.98 64.065,-46.566 46.565,-64.067 24.979,-64.069 3.391,-64.067 -14.11,-46.566 -14.11,-24.98"
       style="fill:#ffffff;fill-opacity:1;fill-rule:nonzero;stroke:none"
       transform="matrix(0.36927116,0,0,-0.36927116,66.511181,106.47916)"
       clip-path="url(#clipPath260)" />
    <path
       id="path261"
       d="m 299.243,275.41 h -21.618 v -5.79 h 21.618 z"
       style="fill:#ffffff;fill-opacity:1;fill-rule:evenodd;stroke:none"
       transform="matrix(0.36927116,0,0,-0.36927116,-30.775563,227.8282)"
       clip-path="url(#clipPath262)" />
    <path
       id="path263"
       d="m 0,0 h 82.877 c 5.955,0 9.605,-5.173 9.605,-5.173 0,0 3.755,5.271 10.037,5.271 4.157,0 82.277,-0.027 82.277,-0.027 l -9.902,-13.936 h -74.54 c -4.566,0 -7.893,-4.36 -7.893,-4.36 0,0 -3.427,4.36 -7.709,4.36 -2.608,0 -74.312,0.45 -74.312,0.45 z"
       style="fill:#f08300;fill-opacity:1;fill-rule:evenodd;stroke:none"
       transform="matrix(0.36927116,0,0,-0.36927116,41.615288,126.72865)"
       clip-path="url(#clipPath264)" />
    <path
       id="path265"
       d="m 0,0 c 18.247,-0.111 36.835,-0.226 38.128,-0.226 3.521,-0.067 6.258,-2.262 7.698,-3.699 1.444,1.446 4.212,3.644 7.9,3.699 h 38.218 35.606 l 7.606,10.705 c -6.234,0.002 -21.249,0.006 -36.569,0.01 -20.051,0.012 -40.615,0.02 -42.697,0.02 C 51.09,10.54 47.812,6.881 47.133,6.013 47.038,5.895 47.01,5.858 47.01,5.858 L 45.848,4.226 44.694,5.86 c 0,0 -0.025,0.038 -0.117,0.155 -0.091,0.121 -0.236,0.296 -0.431,0.507 -0.385,0.434 -0.968,1.019 -1.71,1.599 -1.497,1.169 -3.606,2.291 -6.186,2.291 h -79.688 l 7.929,-10.19 C -32.096,0.2 -16.189,0.103 0,0 m 44.722,-7.258 c -0.002,0 -0.158,0.204 -0.504,0.572 -0.349,0.364 -0.861,0.859 -1.483,1.35 -1.25,0.988 -2.933,1.891 -4.607,1.88 -2.63,0 -74.321,0.45 -74.323,0.45 l -0.674,0.004 -10.877,13.979 1.119,1.049 -1.119,-1.049 -2.071,2.665 h 3.19 39.542 43.335 c 4.687,-0.04 7.986,-2.743 9.61,-4.437 1.672,1.724 5.104,4.496 10.03,4.535 4.159,0 82.28,-0.027 82.28,-0.029 h 3.01 L 128.979,-3.456 h -0.711 -74.542 c -3.222,0.06 -6.085,-2.92 -6.661,-3.651 -0.083,-0.099 -0.108,-0.133 -0.108,-0.133 l -1.109,-1.45 z"
       style="fill:#ffffff;fill-opacity:1;fill-rule:nonzero;stroke:none"
       transform="matrix(0.36927116,0,0,-0.36927116,58.866456,131.16896)"
       clip-path="url(#clipPath266)" />
  </g>
</svg>
