<svg height="316.227766" viewBox="0 0 252 252" width="316.227766" xmlns="http://www.w3.org/2000/svg"><g fill="#004097"><path d="m27.015625 129.28125c2.464844-.25 5.832031.015625 6.125 2.886719.3125 3.09375-3.464844 3.859375-5.367187 4.046875-4.847657.496094-6.027344-1.527344-6.171876-2.863282-.148437-1.527343.890626-2.542968 1.824219-3.066406.65625-.363281 1.699219-.816406 3.589844-1.003906zm-.355469-2.613281c-3.867187.398437-8.425781 2.265625-7.957031 6.996093.445313 4.417969 4.882813 5.625 9.265625 5.183594 4.898438-.507812 8.488281-2.882812 8.0625-6.988281-.382812-3.902344-4.007812-5.734375-9.371094-5.191406zm0 0"/><path d="m27.273438 153.007812c-1.332032.035157-5.546876.117188-6.460938-3.921874-.757812-3.339844 1.964844-6.347657 7.085938-7.511719 4.578124-1.039063 9.03125-.210938 9.945312 3.796875.152344.695312.453125 2.4375-1.03125 4.207031-.683594.796875-1.582031 1.332031-2.675781 1.828125l-1.339844-2.28125c1.722656-.722656 2.453125-1.957031 2.167969-3.230469-.691406-3.066406-5.199219-2.042969-6.25-1.804687-1.539063.347656-3.050782.828125-3.984375 1.59375-.824219.65625-1.324219 1.636718-1.074219 2.738281.375 1.652344 2.222656 2.035156 4.082031 1.9375zm0 0"/><path d="m39.402344 152.722656 3.226562 8.8125-2.675781.976563-2.347656-6.417969-3.519531 1.289062 2.1875 5.972657-2.667969.980469-2.1875-5.976563-4.292969 1.574219 2.425781 6.632812-2.667969.984375-3.304687-9.023437zm0 0"/><path d="m36.273438 171.773438 6.273437-1.660157-4.542969 4.65625zm-1.671876 10.402343 12.035157-12.855469-1.359375-2.335937-17.058594 4.214844 1.367188 2.34375 3.824218-1.011719 2.53125 4.363281-2.738281 2.863281zm0 0"/><path d="m49.890625 175.109375 1.484375 1.980469-5.902344 10.875.027344.035156 8.996094-6.773438 1.421875 1.894532-13.484375 10.140625-1.539063-2.042969 5.753907-10.652344-.027344-.023437-8.785156 6.613281-1.429688-1.894531zm0 0"/><path d="m66.613281 194.144531-5.796875 7.03125c-1.261718 1.546875-1.792968 2.175781-2.0625 3.003907-.398437 1.226562.1875 2.082031.785156 2.578124 1.875 1.546876 3.179688-.035156 5.011719-2.238281l5.921875-7.175781 1.964844 1.617188-5.644531 6.828124c-1.914063 2.328126-3.050781 3.554688-4.339844 4.144532-2.019531.921875-3.636719.015625-4.71875-.882813-3.992187-3.289062-1.28125-6.578125 1.191406-9.574219l5.714844-6.933593zm0 0"/><path d="m74.632812 200.417969 2.097657 1.308593-1.644531 12.277344.035156.015625 5.984375-9.527343 2.007812 1.253906-8.96875 14.285156-2.171875-1.371094 1.574219-12-.023437-.019531-5.851563 9.308594-2.007813-1.253907zm0 0"/><path d="m85.746094 206.945312 2.292968 1.074219-7.164062 15.265625-2.304688-1.085937zm0 0"/><path d="m89.417969 208.820312 2.605469.953126-1.28125 12.808593.035156.007813 7.164062-10.675782 2.535156.925782-9.992187 14.304687-2.578125-.933593zm0 0"/><path d="m102.289062 213.320312 9.148438 2.078126-.640625 2.785156-6.667969-1.523438-.835937 3.644532 6.207031 1.414062-.640625 2.792969-6.195313-1.421875-1.015624 4.460937 6.882812 1.566407-.632812 2.773437-9.367188-2.132813zm0 0"/><path d="m116.363281 218.804688 1.980469.203124c1.707031.179688 2.019531.207032 2.464844.632813.433594.425781.542968 1.101563.480468 1.777344-.054687.488281-.25 1.554687-1.164062 1.867187-.464844.167969-1.539062.054688-2.3125-.027344l-1.886719-.1875zm-3.949219 13.691406 2.542969.257812.703125-7.015625.515625.054688c1.699219.175781 1.824219.515625 3.050781 3.6875l1.457032 3.851562 3.03125.308594-1.199219-3.429687c-.988281-2.828126-1.421875-3.484376-2.390625-4.390626v-.054687c.496094-.019531.996094-.160156 1.457031-.375 1.304688-.550781 2.152344-2.097656 2.335938-3.929687.160156-1.644532-.230469-3.617188-1.625-4.488282-.375-.203125-.960938-.535156-2.835938-.71875l-5.34375-.542968zm0 0"/><path d="m129.371094 227.535156c.183594.871094.675781 3.191406 2.96875 3.039063 1.777344-.125 2.398437-1.414063 2.328125-2.496094-.089844-1.414063-.996094-1.65625-3.359375-2.25-1.28125-.339844-4.136719-1.066406-4.375-4.773437-.125-1.839844.578125-4.757813 4.285156-5.015626 2.460938-.167968 4.808594.96875 5.164062 4.773438l-2.542968.3125c-.167969-.863281-.460938-2.417969-2.480469-2.285156-.753906.054687-2.113281.445312-2.015625 1.8125.070312 1.078125.886719 1.496094 2.96875 1.992187 1.964844.480469 4.621094 1.128907 4.90625 5.261719.132812 2.046875-.71875 3.832031-1.757812 4.5625-1.085938.78125-2.359376.914062-2.9375.949219-1.347657.089843-4.71875.160156-5.582032-5.402344zm0 0"/><path d="m138.765625 215.523438 2.507813-.398438 2.65625 16.648438-2.503907.402343zm0 0"/><path d="m147.65625 216.734375-3.644531.894531-.675781-2.761718 9.734374-2.417969.683594 2.761719-3.636718.910156 3.378906 13.589844-2.460938.625zm0 0"/><path d="m161.507812 219.585938-7.78125-7.511719 2.792969-1.058594 5.128907 5.191406.382812-7.269531 2.746094-1.042969-.878906 10.8125 2.5 6.613281-2.382813.898438zm0 0"/><path d="m182.445312 207.140625c-1.398437-2.035156-2.792968-5.113281-.402343-6.746094 2.5625-1.769531 5.042969 1.179688 6.117187 2.753907 2.773438 4.007812 1.554688 6.019531.453125 6.785156-1.261719.871094-2.648437.453125-3.554687-.125-.640625-.390625-1.53125-1.09375-2.613282-2.667969zm-2.117187 1.574219c2.203125 3.199218 6.035156 6.3125 9.949219 3.617187 3.644531-2.515625 2.585937-6.988281.078125-10.613281-2.78125-4.054688-6.597657-6.066406-10-3.71875-3.21875 2.214844-3.085938 6.269531-.027344 10.714844zm0 0"/><path d="m186.773438 192.953125 6.292968-5.964844 1.964844 2.0625-4.445312 4.210938 2.757812 2.90625 3.847656-3.644531 1.957032 2.0625-3.839844 3.65625 4.925781 5.191406-1.851563 1.742187zm0 0"/><path d="m216.296875 174.609375c.96875.933594 3.984375 3.867187 1.742187 7.355469-1.839843 2.886718-5.902343 3.058594-10.320312.222656-3.949219-2.535156-6.5-6.277344-4.277344-9.753906.382813-.585938 1.414063-2.027344 3.714844-2.207032 1.058594-.078124 2.0625.1875 3.183594.605469l-.683594 2.570313c-1.726562-.730469-3.121094-.382813-3.824219.71875-1.707031 2.640625 2.1875 5.140625 3.105469 5.71875 1.332031.851562 2.738281 1.582031 3.929688 1.722656 1.039062.125 2.085937-.210938 2.699218-1.164062.917969-1.421876-.113281-3.003907-1.484375-4.265626zm0 0"/><path d="m207.078125 166.300781.976563-2.347656 6.136718 2.558594 1.929688-4.613281-6.136719-2.558594.988281-2.339844 15.558594 6.488281-.980469 2.347657-6.800781-2.84375-1.929688 4.613281 6.800782 2.835937-.976563 2.347656zm0 0"/><path d="m211.808594 154.539062.65625-2.457031 16.289062 4.382813-.660156 2.457031zm0 0"/><path d="m213.578125 149.050781.488281-2.425781 12.046875-2.808594.007813-.035156-11.03125-2.230469.460937-2.3125 16.527344 3.332031-.507813 2.515626-11.769531 2.785156-.011719.035156 10.777344 2.167969-.472656 2.328125zm0 0"/><path d="m226.058594 134.082031-6.070313-2.3125 6.398438-1.136719zm7.414062-7.488281-17.265625 3.425781-.257812 2.683594 16.304687 6.535156.257813-2.710937-3.695313-1.40625.488282-5.023438 3.902343-.726562zm0 0"/><path d="m0 126c0 69.476562 56.515625 126 126 126 69.46875 0 126-56.523438 126-126s-56.53125-126-126-126c-69.484375 0-126 56.523438-126 126zm8.011719 0c0-65.058594 52.929687-117.988281 117.988281-117.988281 65.066406 0 117.988281 52.929687 117.988281 117.988281 0 65.066406-52.929687 118-117.988281 118-65.066406-.011719-117.988281-52.941406-117.988281-118zm0 0"/></g><path d="m29.230469 93.550781 1.992187-4.605469 3.777344 1.628907-1.992188 4.605469zm6.757812 2.84375-.347656-.085937 1.992187-4.605469 4.273438 1.847656 2.445312 1.148438 1.289063-3.007813-2.503906-.976562-4.277344-1.847656 2.027344-4.714844.335937.199218 1.246094-2.910156-2.585938-1.03125-4.722656-2.035156-2.097656-.984375-.898438 2.308594-2.285156 5.308593-1.324218-.570312-2.570313-1.207031-1.296875 3.003906 2.648438 1.039063 1.316406.570312-2.230469 5.191406-1.039063 2.160156 2.167969.855469 4.71875 2.035157 2.5 1.144531zm.230469-8.667969-3.777344-1.625 2.035156-4.710937 3.777344 1.625zm0 0" fill="#c7161d"/><path d="m65.554688 54.050781-1.972657-2.285156 1.191407-1.019531c-.054688.601562-.160157 1.136718-.3125 1.597656 1.03125 0 1.691406.027344 1.984374.089844.292969.0625.558594.117187.78125.167968zm-4.433594 6.917969 1.464844-1.34375 6.730468-5.796875 1.644532-1.332031-1.566407-1.832032-1.25 1.148438c.015625-.5625.035157-1.066406.0625-1.539062l-.785156-.0625-1.09375-.054688c-.175781-.007812-.441406-.042969-.789063-.097656l1.351563-1.039063-1.628906-1.882812-1.074219.996093-2.144531 1.839844-1.4375-1.671875 2.246093-1.9375 1.566407-1.210937-1.636719-1.894532-1.5625 1.425782-6.410156 5.519531-1.519532 1.226563 1.609376 1.875 1.429687-1.324219 2.222656-1.910157 1.441407 1.671876-1.78125 1.519531-1.507813 1.242187 1.589844 1.851563 1.449219-1.316407 1.761718-1.519531 1.980469 2.292969-2.410156 2.0625-1.554688 1.28125zm-11.230469-8.355469 9.84375 11.429688 1.644531 2.027343 2.078125-1.792968-.203125-.242188 10.425782-8.96875.3125.355469 2.125-1.832031-1.769532-1.921875-9.949218-11.554688-1.519532-1.902343-1.652344 1.527343-11.203124 9.636719-1.777344 1.433594zm2.089844-1.683593 10.429687-8.96875 9.707032 11.28125-10.429688 8.972656zm0 0" fill="#c7161d"/><path d="m101.800781 34.148438 2.925781-.710938-.222656.183594-.648437.578125c-.089844.082031-.222657.1875-.402344.332031.917969.550781 1.476563.894531 1.671875 1.054688.207031.160156.402344.332031.597656.492187l-3.707031.886719zm-5.554687-4.945313c.300781.222656.640625.464844.976562.746094l.453125-.726563c.105469-.167968.320313-.613281.640625-1.316406l.203125 1.109375c.011719.046875.054688.429687.160157 1.175781.117187.746094.179687 1.207032.207031 1.367188.015625.171875.035156.429687.070312.773437l-2.304687.507813.589844 2.453125 2.050781-.542969.089843 1.105469c.027344.417969.0625.976562.082032 1.679687.023437.691406.042968 1.171875.042968 1.429688.007813.257812 0 .621094 0 1.113281l2.238282-.640625 7.921875-1.914062-.042969.339843c-.027344.265625-.292969.515625-.800781.730469-.515625.230469-.863281.355469-1.050781.398438-.183594.035156-.816407.132812-1.875.277343.625.675781 1.023437 1.171875 1.183593 1.484375.167969.308594.328125.636719.472657.984375 1.75-.460937 2.886718-.898437 3.402343-1.296875.523438-.398437.882813-.816406 1.066407-1.246094.195312-.433593.292968-.84375.332031-1.242187.023437-.390625.050781-.765625.070312-1.101563l1.867188-.394531-.578125-2.363281-1.726563.472656-.132812-.800781-.203125-1.164063c-.027344-.179687-.070313-.445312-.132813-.808593l2.042969-.4375-.59375-2.460938-1.964844.523438-.296875-1.539063c-.015625-.132812-.105469-.585937-.265625-1.359375l-.347656-1.945312-2.503906.683593-6.996094 1.6875-2.089844.445313c.175782-.496094.355469-.996094.53125-1.492187l8.988282-2.171876 2.953124-.621093-.597656-2.480469-2.90625.78125-7.679687 1.851562c.160156-.527343.292969-1.09375.417969-1.699218-.808594.035156-1.753907-.042969-2.863282-.230469-.054687.65625-.132812 1.242187-.242187 1.757813-.105469.535156-.292969 1.230468-.53125 2.117187-.25.890625-.535157 1.566406-.863281 2.027344-.328126.460937-.628907.851562-.914063 1.199219.65625.3125 1.144531.5625 1.449219.773437zm4.996094.011719 2.503906-.605469c-.230469.328125-.648438.761719-1.25 1.316406.40625.203125 1.019531.578125 1.847656 1.117188l-2.808594.6875zm5.636718 6.59375c.40625-.433594.78125-.800782 1.128906-1.09375-.996093-.710938-1.742187-1.207032-2.234374-1.519532l3.265624-.78125.195313 1.074219c.078125.472657.167969 1.042969.265625 1.707031zm-.160156-5.992188c-1.023438-.675781-1.742188-1.15625-2.171875-1.414062l3.503906-.84375.488281 2.453125-2.570312.625zm-13.628906 2.652344c.46875.21875 1.09375.566406 1.890625 1.054688l.242187-.808594.507813-1.269532c.042969-.109374.113281-.285156.203125-.535156-.605469-.292968-1.902344-.871094-3.875-1.714844-.214844.765626-.402344 1.289063-.550782 1.574219-.144531.285157-.304687.578125-.472656.871094.90625.328125 1.582032.605469 2.054688.828125zm2.398437 10.753906c.339844.25.640625.472656.925781.675782l.273438-1.191407c.222656-.914062.429688-2.132812.613281-3.671875l.296875-2.585937c.007813-.160157.042969-.433594.085938-.789063l-.640625-.214844c-.113281-.027343-.789063-.320312-2.007813-.890624l.019532.710937c.007812.320313-.027344.871094-.125 1.671875-.089844.800781-.1875 1.460938-.277344 1.964844-.097656.507812-.210938 1.03125-.347656 1.59375-.132813.550781-.246094.933594-.335938 1.152344-.078125.214843-.179688.4375-.285156.675781.863281.355469 1.46875.660156 1.804687.898437zm-2.285156-16.6875c.515625.3125.960937.578125 1.324219.8125.136718-.3125.3125-.765625.542968-1.363281.222657-.585937.382813-.984375.464844-1.199219-1.308594-.691406-2.605468-1.316406-3.90625-1.867187-.257812.828125-.636718 1.609375-1.144531 2.375 1.304687.53125 2.214844.941406 2.71875 1.242187zm0 0" fill="#c7161d"/><path d="m137.726562 26.449219c1.09375-.882813 1.796876-1.449219 2.125-1.726563.746094.890625 1.589844 1.984375 2.550782 3.28125-1.101563.996094-1.796875 1.617188-2.042969 1.867188-.234375-.347656-.480469-.703125-.722656-1.050782-.25-.335937-.886719-1.136718-1.910157-2.371093zm-1.148437 8.96875c.417969-.496094.925781-1.136719 1.53125-1.957031.585937-.824219.976563-1.375 1.171875-1.667969l.828125-1.300781c.496094.648437 1.09375 1.351562 1.8125 2.089843-.800781 1.234375-1.503906 2.265625-2.089844 3.09375-.59375.816407-1.144531 1.582031-1.671875 2.292969-.523437.703125-1.019531 1.324219-1.5 1.832031-.453125-1.09375-.828125-1.839843-1.101562-2.257812l-.5-.683594c.585937-.464844 1.085937-.941406 1.519531-1.441406zm3.886719-14.453125c.828125-.515625 1.574218-1.050782 2.25-1.601563 1.039062 1.28125 1.847656 2.3125 2.433594 3.128907-.148438.132812-.835938.78125-2.0625 1.945312-.300782-.425781-1.171876-1.582031-2.621094-3.472656zm4.425781 13.40625 3.085937.789062.648438-2.535156-2.988281-.761719-2.113281-.488281.640624-2.535156 1.953126.558594 3.121093.800781.640625-2.515625-4.097656-1.039063-1.984375-.453125.640625-2.480468 1.9375.550781 1.984375.515625c-.167969-.960938-.445313-2.019532-.84375-3.175782 1.054687-.175781 1.9375-.34375 2.601563-.523437.382812 1.261719.738281 2.488281 1.03125 3.671875-.453126.117188-.914063.230469-1.421876.375l4.402344 1.128906c-.390625-.3125-.820312-.625-1.253906-.953125.496094-.46875.914062-.90625 1.253906-1.316406.335938-.398437.738282-.914063 1.171875-1.527344.703125.59375 1.433594 1.183594 2.207031 1.769531-.953124 1.058594-1.46875 1.636719-1.546874 1.722657l-.527344.632812 1.902344.488281 2.046874.472657-.65625 2.542969-1.90625-.542969-4.265624-1.09375-.621094 2.445312 2.816406.71875 2.109375.480469-.660156 2.535156-1.785157-.5-3.105468-.800781-.636719 2.527344 4.335937 1.109375 2.046876.472656-.652344 2.558594-1.960938-.558594-4.402344-1.128906-.550781 2.125-.640625 2.816406-2.84375-.726562.789063-2.777344.542969-2.132813-3.066407-.78125-3.023437-.710937.660156-2.570313zm0 0" fill="#c7161d"/><path d="m175.039062 51.152344c1.074219.515625 2.292969.988281 3.6875 1.386718 1.378907.410157 2.703126.445313 3.949219.125 1.234375-.320312 2.230469-.710937 2.96875-1.164062.726563-.453125 1.386719-.976562 1.945313-1.574219l1.066406-1.101562c-2.273438-1.992188-3.777344-3.261719-4.480469-3.804688l-2.167969-1.664062 1.714844-2.078125 2.152344 1.847656 4.515625 3.699219c.988281-1.183594 1.582031-1.902344 1.777344-2.160157l1.582031-2.019531c1.042969 1.015625 1.601562 1.546875 1.671875 1.59375l.703125.578125c-.648438.726563-1.003906 1.128906-1.074219 1.214844l-2.332031 2.695312 4.652344 3.8125 2.230468 1.746094-1.761718 2.140625-2.140625-1.847656-4.648438-3.816406c-.3125.402343-.542969.730469-.695312.996093-.152344.265626-.347657.71875-.578125 1.371094-.230469.65625-.410156 1.351563-.542969 2.113282-.125.765624-.160156 1.902343-.105469 3.441406.0625 1.53125.375 2.746094.90625 3.617187.542969.882813 1.101563 1.691407 1.664063 2.417969-.292969.097656-.625.207031-.953125.347656-.335938.132813-.765625.382813-1.28125.738282l-.71875.472656c-.320313-.550782-.753906-1.386719-1.332032-2.5-.578124-1.121094-.941406-2.53125-1.078124-4.238282-.140626-1.699218-.140626-2.855468 0-3.460937l.347656-1.839844c-.613282.304688-1.21875.578125-1.832032.820313-.613281.246094-1.492187.425781-2.648437.523437-1.136719.097657-2.433594.007813-3.902344-.265625-1.46875-.285156-2.703125-.578125-3.707031-.882812.089844-.273438.167969-.566406.238281-.898438.089844-.292968.152344-1.09375.207031-2.382812zm0 0" fill="#c7161d"/><path d="m206.054688 80.757812 2.542968-1.003906.84375 2.382813 1.894532 4.800781c.105468-.230469.195312-.480469.265624-.746094.652344.503906 1.265626.914063 1.878907 1.226563l-.835938-2.117188-.960937-2.195312 2.417968-.941407.78125 2.230469 3.378907 8.578125-.988281 1.394532c-.21875-.070313-.539063-.175782-.941407-.308594-.398437-.144532-1.324219-.632813-2.773437-1.476563l1.75 4.425781.988281 2.269532-2.535156 1.003906-.878907-2.445312-2.097656-5.316407c-.355468.230469-.667968.417969-.878906.542969-.230469.132812-.585938.300781-1.058594.507812-.472656.21875-1.003906.328126-1.601562.335938-.59375.019531-1.128906-.230469-1.609375-.753906-.488281-.535156-.84375-1.03125-1.066407-1.503906-.230468-.472657-.453124-1.058594-.703124-1.75.332031-.195313.613281-.382813.863281-.542969.242187-.167969.464843-.355469.660156-.5625l.710937-.746094c.175782.515625.320313.933594.425782 1.253906.097656.328125.175781.550781.25.695313.222656.523437.503906.789062.835937.800781.328125.007813.628907-.027344.921875-.136719.425782-.167968.703125-.328125.828125-.46875l.347657-.402344-2.660157-6.738281zm7.476562 6.800782c-.160156.613281-.355469 1.234375-.613281 1.875.550781.304687 1.113281.578125 1.679687.808594zm-.648438-8.917969 1.742188-.683594 1.414062-.621093.863282 2.410156.640625 1.617187c1.164062-1.210937 1.980469-2.277343 2.46875-3.175781l.605469-1.101562c.933593.800781 1.496093 1.246093 1.679687 1.335937l.710937.355469c-.914062 1.507812-1.6875 2.65625-2.320312 3.4375l-.738281.933594c-.761719-.640626-1.554688-1.191407-2.355469-1.660157l3.707031 9.394531c.117188-.523437.195313-1.179687.25-1.972656.585938.179688 1.066407.3125 1.457031.390625.402344.089844.910157.152344 1.539063.207031.632813.042969 1.101563.050782 1.394531.042969l1.441406-.089843c-.035156 1.078124.007813 2.160156.132813 3.238281-.503906-.027344-.949219-.054688-1.324219-.082031-.363281-.027344-1.003906-.097657-1.894531-.214844-.894531-.105469-1.472656-.203125-1.75-.265625l-.835937-.1875.648437 1.628906 1.078125 2.507813-1.558594.566406-1.972656.773437-1.464844.632813-1.078125-2.71875 1.769531-.632813.835938-.339843-5.296875-13.414063-.980469.382813-1.511718.65625-1.066407-2.71875zm12.945313 5.585937c-1.457031 1.464844-2.390625 2.382813-2.792969 2.753907l-1.121094 1.03125c-.734374-.941407-1.410156-1.707031-2.035156-2.300781.417969-.304688.785156-.5625 1.09375-.792969.3125-.230469.675782-.550781 1.113282-.960938.433593-.40625 1.011718-1.039062 1.722656-1.875.597656.800781 1.28125 1.503907 2.019531 2.144531zm0 0" fill="#c7161d"/><path d="m54.886719 161.046875c.097656.210937.214843.414063.320312.628906.445313.871094.898438 1.726563 1.371094 2.578125.160156.285156.328125.578125.488281.871094.496094.871094 1.003906 1.726562 1.527344 2.570312.097656.160157.195312.320313.292969.46875.011719.027344.027343.046876.039062.074219.566407.90625 1.171875 1.792969 1.785157 2.675781 12.492187-11.210937 29-18.039062 47.101562-18.039062 8.417969 0 16.507812 1.449219 23.992188 4.152344.046874.015625.097656.035156.152343.050781.070313.027344.140625.054687.210938.082031 10.324219 3.761719 21.472656 5.8125 33.101562 5.8125 11.945313 0 23.398438-2.175781 33.957031-6.152344.097657-.21875.195313-.433593.296876-.65625.042968-.117187.085937-.222656.132812-.335937.28125-.714844.550781-1.425781.824219-2.136719.125-.320312.25-.65625.375-.984375 0-.011719.007812-.027343.007812-.035156.292969-.820313.5625-1.65625.835938-2.480469.105469-.339844.214843-.667968.320312-1.007812.257813-.851563.496094-1.714844.738281-2.578125.089844-.328125.1875-.65625.273438-.992188.222656-.871093.417969-1.753906.617188-2.640625.070312-.339844.140624-.667968.21875-1.007812.1875-.886719.347656-1.785156.5-2.691406.027343-.203126.070312-.402344.097656-.597657-12.855469 9.84375-28.910156 15.710938-46.363282 15.710938-11.804687 0-22.980468-2.675781-32.964843-7.46875-.453125-.238281-.914063-.480469-1.386719-.703125-.007812 0-.015625-.007813-.027344-.015625-8.140625-3.964844-17.289062-6.152344-26.945312-6.152344-16.917969 0-32.234375 6.816406-43.367188 17.859375.027344.046875.046875.097656.074219.144531.453125 1.019531.914063 2.007813 1.402344 2.996094zm0 0" fill="#004097"/><path d="m178.550781 185.476562c-3.425781.96875-7.023437 1.492188-10.757812 1.492188-5.894531 0-11.488281-1.296875-16.507813-3.617188-.1875-.089843-.367187-.195312-.5625-.285156-.140625-.0625-.300781-.125-.445312-.195312-5.476563-2.515625-11.574219-3.914063-18-3.914063-15.433594 0-28.964844 8.109375-36.582032 20.296875 9.359376 3.886719 19.628907 6.046875 30.402344 6.046875 20.117188 0 38.46875-7.496093 52.453125-19.824219zm0 0" fill="#004097"/><path d="m171.5625 172.238281c-10.089844 0-19.675781-2.25-28.261719-6.242187-.046875-.027344-.082031-.042969-.125-.070313-.167969-.070312-.328125-.140625-.488281-.214843-7.53125-3.476563-15.90625-5.402344-24.722656-5.402344-19.015625 0-35.933594 8.988281-46.746094 22.933594.25.242187.488281.472656.738281.703124.027344.027344.042969.046876.070313.0625.390625.363282.792968.738282 1.199218 1.09375.109376.097657.214844.1875.332032.292969.308594.277344.628906.550781.949218.820313.277344.238281.550782.476562.835938.710937.257812.210938.515625.433594.773438.648438.285156.230469.578124.453125.855468.675781.273438.210938.550782.425781.824219.640625.144531.105469.292969.230469.445313.34375.496093.375.996093.738281 1.511718 1.105469.371094.273437.753906.539062 1.136719.808594.535156.371093 1.085937.738281 1.628906 1.101562.363281.25.753907.488281 1.128907.71875.292968.1875.585937.363281.886718.550781 8.910156-13.519531 24.210938-22.4375 41.605469-22.4375 8.625 0 16.757813 2.195313 23.835937 6.054688.167969.097656.363282.175781.542969.285156.238281.132813.46875.292969.703125.425781 5.652344 3.03125 12.117188 4.757813 18.980469 4.757813 4.863281 0 9.519531-.863281 13.824219-2.445313.585937-.625 1.15625-1.253906 1.722656-1.894531.160156-.1875.328125-.363281.488281-.550781.597657-.683594 1.164063-1.398438 1.734375-2.097656.1875-.242188.382813-.472657.578125-.703126.535157-.695312 1.050781-1.386718 1.566407-2.089843.203124-.277344.417968-.542969.621093-.816407.488281-.695312.96875-1.398437 1.441407-2.097656.195312-.304687.40625-.597656.613281-.910156.050781-.085938.097656-.175781.160156-.273438-6.730469 2.265626-13.914063 3.511719-21.390625 3.511719zm0 0" fill="#004097"/><path d="m149.746094 79.292969v-5.253907l-6.234375 5.253907zm0 0" fill="#009fe8"/><path d="m114.078125 73.246094c-.515625-.347656-1.109375-.507813-1.8125-.507813-.710937 0-1.324219.160157-1.804687.507813-.515626.335937-.757813.746094-.757813 1.21875v3.449218c0 .460938.230469.851563.746094 1.191407.5.335937 1.113281.515625 1.824219.515625.703124 0 1.296874-.179688 1.8125-.515625.507812-.355469.765624-.765625.765624-1.226563v-3.433594c-.007812-.460937-.265624-.878906-.773437-1.199218zm0 0" fill="#009fe8"/><path d="m126 46.699219c-13.449219 0-26.121094 3.359375-37.230469 9.273437-25.0625 13.34375-42.132812 39.722656-42.132812 70.089844 0 4.730469.4375 9.351562 1.238281 13.859375 10.425781-7.40625 23.15625-11.761719 36.910156-11.761719 12.0625 0 23.371094 3.332032 33 9.128906.117188.082032.25.152344.375.234376.285156.167968.566406.355468.851563.539062 10.457031 6.261719 22.679687 9.859375 35.746093 9.859375 19.933594 0 37.902344-8.382813 50.59375-21.804687 0-.019532 0-.027344 0-.054688.011719-43.835938-35.523437-79.363281-79.351562-79.363281zm-25.886719 39.800781h-4.882812v-12.007812h-2.585938v-1.753907l5.183594-1.742187h2.292969v15.503906zm19.929688-6.007812c0 1.652343-.878907 3.046874-2.675781 4.230468-1.769532 1.199219-3.921876 1.789063-6.410157 1.789063h-3.875v-1.734375h2.578125c1.441406 0 2.65625-.339844 3.664063-1.023438.992187-.683594 1.507812-1.484375 1.507812-2.417968v-1.742188c-.203125 1.171875-1.039062 1.769531-2.585937 1.769531h-2.585938c-1.40625 0-2.613281-.347656-3.636718-1.023437-1.03125-.675782-1.554688-1.476563-1.554688-2.417969v-3.449219c0-.949218.515625-1.75 1.554688-2.4375 1.003906-.683594 2.222656-1.03125 3.636718-1.03125h5.199219c1.414063 0 2.632813.339844 3.644531 1.03125 1.015625.6875 1.539063 1.488282 1.539063 2.4375zm18.386719-5.164063c0 1.171875-1.671876 2.71875-5.015626 4.621094l-.335937.203125c-3.042969 1.726562-4.679687 3.128906-4.945313 4.1875h10.296876v2.171875h-15.566407v-1.71875c0-1.199219 1.679688-2.746094 5.011719-4.640625l.355469-.203125c3.324219-1.902344 4.988281-3.441407 4.988281-4.621094v-.863281c0-.480469-.257812-.882813-.765625-1.21875-.523437-.347656-1.136719-.507813-1.8125-.507813h-2.585937c-1.59375 0-2.464844.578125-2.5625 1.753907h-2.621094c.410156-2.320313 2.140625-3.488282 5.191406-3.488282h5.199219c1.40625 0 2.632812.339844 3.65625 1.015625 1.011719.683594 1.527343 1.492188 1.527343 2.433594v.875zm19.128906 6.027344h-2.601563v5.15625h-5.210937v-5.15625h-10.347656v-1.726563l10.347656-8.625h5.210937v8.289063h2.59375v.335937h.007813zm0 0" fill="#009fe8"/></svg>