<?xml version="1.0" encoding="UTF-8" standalone="no"?>
<svg
   xmlns:dc="http://purl.org/dc/elements/1.1/"
   xmlns:cc="http://creativecommons.org/ns#"
   xmlns:rdf="http://www.w3.org/1999/02/22-rdf-syntax-ns#"
   xmlns:svg="http://www.w3.org/2000/svg"
   xmlns="http://www.w3.org/2000/svg"
   viewBox="0 0 266.66666 266.66666"
   height="266.66666"
   width="266.66666"
   xml:space="preserve"
   id="svg2"
   version="1.1"><metadata
     id="metadata8"><rdf:RDF><cc:Work
         rdf:about=""><dc:format>image/svg+xml</dc:format><dc:type
           rdf:resource="http://purl.org/dc/dcmitype/StillImage" /></cc:Work></rdf:RDF></metadata><defs
     id="defs6"><clipPath
       id="clipPath18"
       clipPathUnits="userSpaceOnUse"><path
         id="path16"
         d="M 0,200 H 200 V 0 H 0 Z" /></clipPath></defs><g
     transform="matrix(1.3333333,0,0,-1.3333333,0,266.66667)"
     id="g10"><g
       id="g12"><g
         clip-path="url(#clipPath18)"
         id="g14"><g
           transform="translate(13.3515,74.7419)"
           id="g20"><path
             id="path22"
             style="fill:#162482;fill-opacity:1;fill-rule:nonzero;stroke:none"
             d="m 0,0 c 0.729,-2.637 3.971,-3.034 7.262,-2.127 3.309,0.914 5.907,2.922 5.181,5.559 C 11.715,6.07 8.455,6.462 5.146,5.548 1.853,4.64 -0.726,2.638 0,0 m -2.571,-6.502 c -0.621,0.553 -1.101,1.438 -1.342,2.311 -0.711,2.582 0.713,4.443 2.881,5.1 -0.249,2.887 1.514,5.86 5.534,6.967 4.457,1.23 7.858,-1.023 8.741,-4.223 0.883,-3.202 -0.779,-6.83 -5.344,-8.089 -4,-1.104 -7.168,0.586 -8.387,3.303 -1.915,-0.51 -2.766,-1.898 -2.304,-3.572 0.135,-0.49 0.334,-0.926 0.694,-1.451 z" /></g><g
           transform="translate(29.1418,67.5032)"
           id="g24"><path
             id="path26"
             style="fill:#162482;fill-opacity:1;fill-rule:nonzero;stroke:none"
             d="m 0,0 c -1.694,-0.691 -3.398,-1.408 -5.153,-2.147 l -0.888,-0.374 c -1.704,-0.716 -3.443,-1.448 -5.141,-2.182 l 0.541,-1.82 -0.625,-0.263 -2.328,5.53 0.626,0.263 0.915,-1.64 c 1.703,0.674 3.423,1.398 5.163,2.129 l 0.886,0.373 c 1.706,0.718 3.444,1.449 5.133,2.201 l -0.533,1.803 0.629,0.262 2.324,-5.529 -0.626,-0.264 z" /></g><g
           transform="translate(37.2895,53.1058)"
           id="g28"><path
             id="path30"
             style="fill:#162482;fill-opacity:1;fill-rule:nonzero;stroke:none"
             d="m 0,0 -1.116,1.354 -11.256,-6.655 -0.502,0.842 5.704,13.189 -9.059,-5.478 0.939,-2.12 -0.583,-0.35 -2.555,4.276 0.583,0.35 1.118,-1.356 10.13,5.963 0.155,0.401 -0.582,1.343 0.584,0.349 1.807,-3.028 -5.135,-11.859 8.16,4.918 -0.947,2.138 0.583,0.348 2.556,-4.276 z" /></g><g
           transform="translate(40.6079,38.2446)"
           id="g32"><path
             id="path34"
             style="fill:#162482;fill-opacity:1;fill-rule:nonzero;stroke:none"
             d="M 0,0 -0.915,0.857 C -1.91,0.045 -2.919,-0.806 -3.991,-1.732 l -0.7,-0.605 c -1.55,0.579 -2.77,1.296 -3.894,2.593 -2.781,3.211 -2.417,7.32 0.863,10.163 3.255,2.816 7.438,2.543 10.217,-0.668 C 3.619,8.453 4.164,7.276 4.432,5.958 L 2.047,3.894 1.319,4.737 3.051,7.061 C 2.89,7.795 2.558,8.407 2.028,9.021 c -1.89,2.184 -5.013,2.302 -8.167,-0.43 -3.054,-2.644 -3.557,-5.724 -1.58,-8.009 0.494,-0.57 1.001,-0.981 1.617,-1.347 l 0.741,0.642 c 0.985,0.852 1.986,1.745 2.946,2.626 l -1.252,1.735 0.525,0.459 3.67,-4.239 z" /></g><g
           transform="translate(55.8653,34.8725)"
           id="g36"><path
             id="path38"
             style="fill:#162482;fill-opacity:1;fill-rule:nonzero;stroke:none"
             d="m 0,0 c -1.172,-1.407 -2.325,-2.853 -3.515,-4.343 l -0.6,-0.752 c -1.154,-1.447 -2.319,-2.907 -3.455,-4.39 l 1.345,-1.341 -0.424,-0.531 -4.664,3.722 0.426,0.53 1.56,-0.98 c 1.147,1.379 2.326,2.853 3.681,4.55 l -4.972,3.968 c -1.343,-1.681 -2.508,-3.142 -3.62,-4.596 l 1.316,-1.316 -0.425,-0.531 -4.662,3.72 0.425,0.532 1.589,-1.003 c 1.157,1.417 2.324,2.879 3.5,4.353 l 0.602,0.753 c 1.153,1.446 2.319,2.907 3.47,4.378 L -9.754,8.053 -9.33,8.582 -4.668,4.862 -5.092,4.33 -6.667,5.322 C -7.816,3.945 -8.969,2.498 -10.136,1.04 l 4.97,-3.97 c 1.144,1.431 2.298,2.876 3.411,4.33 l -1.302,1.306 0.423,0.531 4.662,-3.721 -0.423,-0.531 z" /></g><g
           transform="translate(61.0432,23.0148)"
           id="g40"><path
             id="path42"
             style="fill:#162482;fill-opacity:1;fill-rule:nonzero;stroke:none"
             d="M 0,0 1.182,6.695 -3.69,1.987 Z m 2.457,-6.62 -0.321,-0.599 -5.101,2.749 0.321,0.599 1.819,-0.723 0.671,3.797 -4.119,2.22 -2.758,-2.653 1.612,-1.147 -0.322,-0.599 -3.99,2.15 0.324,0.597 L -7.828,-0.8 2.188,8.641 3.417,7.977 1.116,-5.685 Z" /></g><g
           transform="translate(73.5228,25.914)"
           id="g44"><path
             id="path46"
             style="fill:#162482;fill-opacity:1;fill-rule:nonzero;stroke:none"
             d="M 0,0 C -0.668,-1.704 -1.327,-3.432 -2.004,-5.212 L -2.346,-6.11 c -0.659,-1.728 -1.33,-3.492 -1.97,-5.226 l 1.689,-0.866 -0.241,-0.634 -5.607,2.135 0.241,0.635 1.82,-0.471 c 0.686,1.697 1.35,3.443 2.022,5.204 l 0.343,0.9 c 0.657,1.727 1.328,3.49 1.951,5.231 L -3.77,1.657 -3.529,2.291 2.078,0.157 1.837,-0.479 Z" /></g><g
           transform="translate(97.5837,21.2013)"
           id="g48"><path
             id="path50"
             style="fill:#162482;fill-opacity:1;fill-rule:nonzero;stroke:none"
             d="m 0,0 -1.889,-0.038 -0.907,-7.23 c -0.527,-4.215 -2.651,-5.746 -5.631,-5.387 -3.054,0.369 -4.923,2.21 -4.436,6.258 l 0.258,2.136 c 0.219,1.818 0.442,3.673 0.608,5.516 l -1.665,0.39 0.081,0.675 5.96,-0.718 -0.081,-0.675 -2.034,0.017 c -0.254,-1.793 -0.472,-3.611 -0.697,-5.468 l -0.205,-1.704 c -0.423,-3.523 0.709,-4.857 2.863,-5.117 2.362,-0.284 3.744,0.937 4.16,4.536 L -2.827,0.055 -4.948,0.596 -4.866,1.27 0.08,0.674 Z" /></g><g
           transform="translate(112.4633,22.1918)"
           id="g52"><path
             id="path54"
             style="fill:#162482;fill-opacity:1;fill-rule:nonzero;stroke:none"
             d="m 0,0 -1.711,-0.392 0.906,-13.044 -0.978,-0.071 -9.232,11.009 0.836,-10.551 2.317,-0.114 0.049,-0.677 -4.968,-0.367 -0.049,0.677 1.711,0.393 -0.789,11.727 -0.289,0.32 -1.462,0.08 -0.051,0.678 3.518,0.26 8.3,-9.906 -0.74,9.499 -2.336,0.112 -0.049,0.677 4.969,0.366 z" /></g><g
           transform="translate(118.1496,23.4279)"
           id="g56"><path
             id="path58"
             style="fill:#162482;fill-opacity:1;fill-rule:nonzero;stroke:none"
             d="m 0,0 c 0.384,-1.79 0.789,-3.595 1.21,-5.454 l 0.212,-0.94 c 0.404,-1.803 0.818,-3.644 1.242,-5.445 l 1.889,0.212 0.149,-0.664 -5.854,-1.317 -0.15,0.662 1.777,0.614 c -0.364,1.793 -0.776,3.616 -1.191,5.457 l -0.211,0.94 c -0.406,1.804 -0.819,3.645 -1.263,5.441 l -1.869,-0.208 -0.15,0.664 5.855,1.319 0.151,-0.664 z" /></g><g
           transform="translate(133.8339,29.002)"
           id="g60"><path
             id="path62"
             style="fill:#162482;fill-opacity:1;fill-rule:nonzero;stroke:none"
             d="m 0,0 -1.513,-0.858 0.55,-13.828 -1.004,-0.382 -9.184,10.607 -1.471,-0.379 -0.241,0.636 5.505,2.093 0.262,-0.688 -1.823,-0.894 7.058,-8.467 -0.602,10.881 -1.916,-0.485 -0.261,0.686 4.411,1.678 z" /></g><g
           transform="translate(148.9792,26.9305)"
           id="g64"><path
             id="path66"
             style="fill:#162482;fill-opacity:1;fill-rule:nonzero;stroke:none"
             d="m 0,0 1.856,-3.242 -9.265,-5.497 -0.346,0.584 1.501,1.131 c -0.902,1.594 -1.854,3.2 -2.817,4.822 l -0.491,0.828 c -0.944,1.591 -1.909,3.212 -2.884,4.783 l -1.71,-0.776 -0.347,0.586 8.923,5.296 1.907,-3.104 -0.86,-0.509 -1.969,2.099 -4.04,-2.397 c 0.908,-1.568 1.851,-3.157 2.843,-4.828 l 2.578,1.531 -0.796,1.896 0.747,0.442 2.446,-4.121 -0.748,-0.442 -1.238,1.569 -2.595,-1.54 c 1.069,-1.803 2.041,-3.441 3.012,-5.038 l 4.381,2.599 -0.949,2.818 z" /></g><g
           transform="translate(153.7164,35.1796)"
           id="g68"><path
             id="path70"
             style="fill:#162482;fill-opacity:1;fill-rule:nonzero;stroke:none"
             d="M 0,0 C 1.648,1.408 1.592,3.073 0.464,4.393 -0.711,5.769 -2.119,5.906 -3.739,4.522 L -4.988,3.457 c 1.187,-1.418 2.387,-2.823 3.796,-4.474 z M 9.553,-0.498 9.992,-1.013 C 9.732,-1.434 9.381,-1.835 8.834,-2.3 7.758,-3.219 7.013,-3.334 6.144,-2.664 L 3.495,-0.783 C 2.156,0.206 1.377,0.186 0.101,-0.903 L -0.702,-1.589 C 0.56,-3.067 1.76,-4.472 2.962,-5.852 l 1.585,1.079 0.439,-0.515 -4.559,-3.896 -0.442,0.516 1.285,1.371 c -1.159,1.416 -2.373,2.836 -3.596,4.269 l -0.627,0.732 c -1.199,1.405 -2.425,2.841 -3.653,4.222 l -1.556,-1.055 -0.439,0.516 4.59,3.92 C -1.602,7.365 0.643,7.523 2.114,5.801 3.156,4.582 3.237,2.743 1.583,0.759 3.001,1.597 4.043,1.422 5.437,0.428 l 2.769,-1.876 z" /></g><g
           transform="translate(163.3568,45.9024)"
           id="g72"><path
             id="path74"
             style="fill:#162482;fill-opacity:1;fill-rule:nonzero;stroke:none"
             d="M 0,0 C 2.67,1.402 4.234,1.44 5.748,0.16 7.607,-1.413 7.526,-3.939 5.551,-6.274 4.539,-7.471 3.177,-8.321 2.056,-8.684 l -2.219,2.026 0.67,0.792 2.52,-1.29 C 3.71,-6.87 4.201,-6.492 4.763,-5.831 6.03,-4.33 6.156,-2.779 4.9,-1.72 3.891,-0.868 2.921,-0.961 1.23,-1.88 L 0.433,-2.268 c -2.171,-1.107 -3.985,-1.38 -5.585,-0.026 -1.873,1.583 -1.637,4.028 0.117,6.104 0.915,1.081 1.952,1.664 3.08,1.947 L 0.104,3.867 -0.577,3.059 -3.011,4.275 C -3.529,4.069 -3.917,3.756 -4.307,3.294 c -1.086,-1.282 -1.22,-2.7 -0.023,-3.712 1.009,-0.852 2.11,-0.721 3.495,0.013 z" /></g><g
           transform="translate(165.2563,57.0921)"
           id="g76"><path
             id="path78"
             style="fill:#162482;fill-opacity:1;fill-rule:nonzero;stroke:none"
             d="m 0,0 c 1.525,-1.01 3.079,-2.015 4.677,-3.05 l 0.81,-0.522 c 1.551,-1.004 3.132,-2.03 4.695,-3.017 l 1.201,1.469 0.57,-0.368 -3.26,-5.035 -0.57,0.368 0.84,1.68 C 7.448,-7.449 5.88,-6.434 4.297,-5.41 l -0.808,0.524 c -1.553,1.004 -3.136,2.028 -4.708,3.002 l -1.189,-1.456 -0.569,0.369 3.258,5.036 0.57,-0.368 z" /></g><g
           transform="translate(170.2499,66.3331)"
           id="g80"><path
             id="path82"
             style="fill:#162482;fill-opacity:1;fill-rule:nonzero;stroke:none"
             d="m 0,0 c 1.651,-0.832 3.334,-1.638 5.07,-2.471 l 0.868,-0.414 c 1.668,-0.8 3.351,-1.607 5.051,-2.379 l 1.084,1.781 0.614,-0.293 -2.781,-5.801 -0.61,0.293 0.708,1.961 c -1.626,0.841 -3.31,1.649 -5.012,2.464 L 4.125,-4.444 C 2.442,-3.638 0.74,-2.822 -0.986,-2.059 L -2.322,-4.848 0.031,-6.749 -0.41,-7.667 -3.747,-5.903 1.264,4.561 4.731,3.067 4.292,2.148 1.336,2.79 Z" /></g><g
           transform="translate(181.7744,76.5108)"
           id="g84"><path
             id="path86"
             style="fill:#162482;fill-opacity:1;fill-rule:nonzero;stroke:none"
             d="M 0,0 C 1.978,-0.564 3.265,-0.931 4.634,-1.282 L 5.405,0.654 6.059,0.468 4.298,-5.698 3.645,-5.513 4.019,-3.441 c -1.276,0.402 -2.528,0.76 -4.36,1.284 l -8.383,-1.533 -0.537,-1.336 -0.653,0.186 1.62,5.677 0.653,-0.186 -0.326,-1.967 7.092,1.135 -5.393,4.677 -0.783,-1.777 -0.653,0.186 1.273,4.463 0.654,-0.188 -0.227,-1.758 z" /></g><g
           transform="translate(56.4097,94.3927)"
           id="g88"><path
             id="path90"
             style="fill:#162482;fill-opacity:1;fill-rule:nonzero;stroke:none"
             d="m 0,0 h 31.795 c 0,0 5.37,-2.544 7.678,-8.055 H 12.812 c 0,0 0.377,4.24 -12.812,8.055" /></g><g
           transform="translate(71.3417,81.2507)"
           id="g92"><path
             id="path94"
             style="fill:#162482;fill-opacity:1;fill-rule:nonzero;stroke:none"
             d="m 0,0 h 26.567 c 0,0 1.601,-4.946 3.156,-6.642 H 3.015 c 0,0 -1.131,4.805 -3.015,6.642" /></g><g
           transform="translate(122.1668,90.2004)"
           id="g96"><path
             id="path98"
             style="fill:#162482;fill-opacity:1;fill-rule:nonzero;stroke:none"
             d="m 0,0 h 40.745 c 0,0 -0.216,-4.263 -1.837,-8.526 H -3.203 c 0,0 2.685,4.993 3.203,8.526" /></g><g
           transform="translate(117.1266,78.189)"
           id="g100"><path
             id="path102"
             style="fill:#162482;fill-opacity:1;fill-rule:nonzero;stroke:none"
             d="m 0,0 h 42.865 c 0,0 -0.627,-3.288 -3.879,-8.573 H -7.348 c 0,0 4.899,4.475 7.348,8.573" /></g><g
           transform="translate(76.8528,68.988)"
           id="g104"><path
             id="path106"
             style="fill:#162482;fill-opacity:1;fill-rule:nonzero;stroke:none"
             d="m 0,0 h 29.456 c 0,0 3.328,-3.015 6.783,-3.391 h 41.074 c 0,0 -2.958,-5.15 -5.91,-8.102 H 16.329 C 16.329,-11.493 5.087,-10.3 0,0" /></g><g
           transform="translate(122.6527,95.005)"
           id="g108"><path
             id="path110"
             style="fill:#e20113;fill-opacity:1;fill-rule:nonzero;stroke:none"
             d="m 0,0 h 31.221 c 0.186,1.848 0.292,3.718 0.292,5.615 0,30.917 -25.063,55.981 -55.981,55.981 -30.918,0 -55.981,-25.064 -55.981,-55.981 0,-2.088 0.123,-4.145 0.346,-6.174 v 0 c -0.212,1.672 -0.011,3.373 -0.011,5.102 0,22.198 17.995,40.193 40.193,40.193 22.197,0 40.192,-17.995 40.192,-40.193 C 0.271,3.006 0.17,1.492 0,0" /></g><g
           transform="translate(93.3706,52.2819)"
           id="g112"><path
             id="path114"
             style="fill:#162482;fill-opacity:1;fill-rule:nonzero;stroke:none"
             d="M 0,0 C -9.118,0.751 -13.509,4.391 -15.604,7.388 -33.782,9.63 -48.519,24.004 -50.821,42.165 v 0 c 3.074,-28.012 26.805,-49.808 55.635,-49.808 10.297,0 19.936,2.792 28.224,7.643 z" /></g><g
           transform="translate(31.6241,157.7593)"
           id="g116"><path
             id="path118"
             style="fill:#162482;fill-opacity:1;fill-rule:nonzero;stroke:none"
             d="M 0,0 C 0.572,0.989 0.916,1.13 1.904,0.658 2.765,0.246 2.409,-0.43 2.305,-1.11 2.024,-2.937 1.829,-4.777 1.6,-6.613 c 0.132,-0.024 0.265,-0.048 0.397,-0.073 0.173,0.575 0.275,1.188 0.546,1.712 0.187,0.363 0.596,0.821 0.93,0.842 0.352,0.021 0.787,-0.373 1.088,-0.681 0.494,-0.504 0.843,-1.161 1.368,-1.622 1.883,-1.65 3.815,-3.245 5.729,-4.861 0.627,-0.53 0.811,-1.194 0.204,-1.777 -0.728,-0.701 -1.582,-1.273 -2.409,-1.863 -0.029,-0.021 -0.547,0.465 -0.505,0.549 0.925,1.855 -0.239,2.803 -1.525,3.768 -1.048,0.787 -2.005,1.694 -3.037,2.504 -0.261,0.206 -0.739,0.43 -0.963,0.323 -0.349,-0.167 -0.567,-0.609 -0.763,-1.036 0.861,0.206 1.661,0.525 2.3,-0.279 0.63,-0.794 -0.095,-1.426 -0.507,-2.36 0.539,0.204 0.817,0.337 1.11,0.413 0.351,0.092 0.762,0.27 1.059,0.164 0.359,-0.128 0.892,-0.534 0.872,-0.782 -0.029,-0.359 -0.458,-0.712 -0.772,-1.009 -0.149,-0.141 -0.426,-0.146 -0.787,-0.256 0.949,-0.798 1.8,-1.456 2.576,-2.193 0.285,-0.271 0.634,-0.821 0.532,-1.076 -0.172,-0.433 -0.625,-0.857 -1.063,-1.046 -0.336,-0.144 -0.945,-0.065 -1.233,0.165 -0.917,0.731 -1.863,1.484 -2.571,2.404 -1.086,1.411 -1.982,2.967 -2.959,4.462 -0.089,-0.022 -0.178,-0.044 -0.266,-0.067 0.031,-0.61 0.098,-1.22 0.088,-1.83 -0.057,-3.275 -0.083,-6.551 -0.221,-9.823 -0.077,-1.829 -1.139,-2.039 -2.856,-1.845 -0.765,0.086 -0.991,0.738 -0.868,1.424 0.192,1.065 0.519,2.108 0.683,3.176 0.362,2.371 0.654,4.753 0.982,7.129 0.25,1.814 0.512,3.626 0.623,5.541 -0.16,-0.247 -0.303,-0.506 -0.482,-0.738 -0.487,-0.635 -0.945,-1.304 -1.509,-1.863 -0.186,-0.183 -0.761,-0.209 -0.979,-0.055 -0.21,0.149 -0.318,0.654 -0.248,0.95 0.248,1.047 0.61,2.068 0.887,3.109 0.087,0.33 0.043,0.694 -0.099,1.053 -0.185,-0.56 -0.304,-1.154 -0.571,-1.672 -0.5,-0.972 -2.295,-1.405 -2.958,-0.722 -0.217,0.224 -0.38,0.667 -0.321,0.959 0.187,0.915 0.444,1.823 0.765,2.7 0.292,0.799 0.202,1.398 -0.572,1.829 -0.735,0.411 -1.495,0.945 -1.368,1.842 0.125,0.888 0.912,1.369 1.793,1.553 0.353,0.074 0.733,0.03 1.081,0.118 0.484,0.123 1.049,0.207 1.398,0.513 0.428,0.376 0.745,0.654 1.277,0.271 C -2.016,2.966 -1.596,2.564 -1.865,1.849 -1.964,1.587 -2.096,1.322 -2.117,1.051 -2.167,0.418 -2.074,-0.084 -1.193,0.109 -0.831,0.188 -0.421,0.045 0,0" /></g><g
           transform="translate(174.5202,150.8431)"
           id="g120"><path
             id="path122"
             style="fill:#162482;fill-opacity:1;fill-rule:nonzero;stroke:none"
             d="M 0,0 C 0.108,0.086 0.217,0.173 0.325,0.259 0.515,0.889 0.131,1.187 -0.409,1.331 -0.526,1.362 -0.71,1.145 -0.863,1.043 -0.575,0.695 -0.288,0.348 0,0 m -0.524,-5.529 c -0.196,0.97 -3.15,2.252 -4.738,2.199 1.573,-0.73 3.081,-1.43 4.738,-2.199 m -0.775,2.896 c -0.044,-0.116 -0.088,-0.232 -0.131,-0.349 0.259,-0.18 0.518,-0.514 0.778,-0.516 1.6,-0.008 3.201,0.034 4.797,0.136 0.169,0.011 0.476,0.556 0.425,0.787 -0.165,0.734 -1.537,1.092 -1.978,0.496 -0.709,-0.96 -1.611,-0.874 -2.584,-0.715 -0.433,0.07 -0.871,0.108 -1.307,0.161 M -5.69,-2.999 c -1.341,0.254 -2.683,0.505 -4.024,0.762 -0.904,0.173 -1.857,0.219 -2.447,1.111 -0.357,0.54 -0.669,1.039 -0.234,1.698 0.42,0.637 1.025,0.79 1.692,0.673 1.597,-0.279 3.184,-0.612 4.72,-0.912 0.033,0.666 -0.113,1.339 0.14,1.786 0.256,0.452 0.9,0.691 1.387,1.003 0.361,0.231 0.727,0.468 1.119,0.633 0.358,0.15 0.756,0.207 1.136,0.305 C -2.17,3.599 -2.08,3.132 -2.129,2.68 -2.162,2.384 -2.398,2.11 -2.417,1.762 -1.085,2.762 0.41,3.582 0.43,5.569 0.434,5.904 1.091,6.233 1.446,6.565 1.72,6.231 2.213,5.907 2.227,5.563 2.262,4.712 2.033,3.853 2.002,2.995 1.987,2.579 2.051,1.945 2.309,1.789 2.64,1.588 3.289,1.614 3.648,1.815 4.969,2.555 5.508,2.56 6.038,1.63 6.578,0.683 6.237,-0.214 4.939,-0.905 5.534,-1.151 6.023,-1.342 6.503,-1.554 7.569,-2.025 7.759,-3.284 6.856,-4.013 5.888,-4.794 4.822,-5.107 3.562,-4.76 2.524,-4.474 2.388,-4.614 2.532,-5.652 2.766,-7.335 2.24,-7.587 0.856,-7.407 c -1.034,0.134 -2.129,0.032 -2.878,1.012 -0.088,0.116 -0.44,0.067 -0.661,0.036 -0.924,-0.127 -1.844,-0.276 -2.84,-0.428 0.035,-0.049 0.134,-0.242 0.281,-0.385 0.957,-0.927 0.948,-2.909 -0.139,-3.67 -0.262,-0.183 -1.058,0.028 -1.341,0.319 -0.598,0.613 -1.086,1.363 -1.491,2.125 -0.326,0.615 -0.613,0.561 -1.075,0.219 -1.246,-0.919 -2.5,-1.828 -3.764,-2.722 -0.273,-0.193 -0.592,-0.388 -0.911,-0.432 -0.335,-0.047 -0.838,-0.033 -1.005,0.17 -0.2,0.243 -0.177,0.718 -0.151,1.086 0.054,0.766 0.191,1.526 0.26,2.292 0.039,0.431 -0.018,0.87 0.024,1.301 0.058,0.616 -0.116,1.533 0.779,1.533 0.781,-0.001 0.682,-0.814 0.76,-1.444 0.059,-0.473 0.34,-1.083 0.714,-1.3 0.284,-0.164 0.886,0.157 1.318,0.332 0.247,0.1 0.449,0.328 0.649,0.521 0.561,0.543 0.555,0.993 -0.217,1.339 -1.011,0.455 -2.041,0.882 -3.004,1.425 -0.449,0.253 -0.87,0.702 -1.082,1.163 -0.101,0.223 0.292,0.966 0.495,0.98 0.642,0.044 1.366,-0.005 1.935,-0.276 1.02,-0.486 1.929,-1.198 2.925,-1.742 0.712,-0.389 1.489,-0.657 2.249,-0.984 0.057,0.493 -0.049,1.108 0.208,1.378 0.268,0.283 0.886,0.233 1.351,0.328 0.022,0.077 0.044,0.155 0.065,0.232" /></g><g
           transform="translate(127.5554,174.8506)"
           id="g124"><path
             id="path126"
             style="fill:#162482;fill-opacity:1;fill-rule:nonzero;stroke:none"
             d="m 0,0 c -0.975,-0.693 -1.837,-1.366 -2.757,-1.947 -1.562,-0.986 -3.017,-0.568 -4.37,0.481 -0.717,0.555 -0.937,1.406 -0.481,1.929 0.584,0.669 1.215,0.199 1.623,-0.173 1.396,-1.274 3.121,-0.432 4.222,1.315 C -2.289,1.474 -2.646,1.417 -2.98,1.296 -4.205,0.852 -5.076,1.282 -5.395,2.564 c -0.094,0.378 -0.113,0.809 -0.036,1.19 0.159,0.789 0.736,1.072 1.362,0.576 0.945,-0.75 2.029,-0.625 3.085,-0.708 0.235,-0.018 0.54,0.145 0.722,0.319 0.263,0.251 0.487,0.566 0.652,0.892 1.292,2.555 2.551,5.127 3.864,7.671 0.184,0.357 0.677,0.88 0.894,0.823 0.393,-0.104 0.855,-0.529 0.99,-0.923 C 6.572,11.136 6.566,9.874 5.744,8.691 4.709,7.202 3.722,5.679 2.735,4.157 2.617,3.975 2.536,3.66 2.616,3.491 2.684,3.345 3.039,3.208 3.212,3.259 3.862,3.449 4.477,3.761 5.128,3.94 5.564,4.06 6.12,4.2 6.481,4.03 7.002,3.786 7.533,3.373 7.371,2.586 7.244,1.965 6.963,1.539 6.298,1.523 4.82,1.488 3.341,1.475 1.863,1.468 0.799,1.464 0.606,1.189 1.115,0.282 1.611,-0.602 2.135,-1.471 2.671,-2.331 3.336,-3.4 4.453,-3.886 5.482,-4.497 5.834,-4.706 6.065,-5.117 6.351,-5.436 5.987,-5.737 5.667,-6.178 5.25,-6.307 4.468,-6.55 3.63,-6.707 2.814,-6.713 2.39,-6.716 1.83,-6.423 1.567,-6.082 1.149,-5.538 0.798,-4.871 0.653,-4.205 0.355,-2.834 0.212,-1.43 0,0" /></g><g
           transform="translate(79.7848,181.2846)"
           id="g128"><path
             id="path130"
             style="fill:#162482;fill-opacity:1;fill-rule:nonzero;stroke:none"
             d="m 0,0 c -0.219,-0.347 -0.399,-0.633 -0.579,-0.918 0.305,-0.07 0.692,-0.286 0.893,-0.172 0.245,0.138 0.332,0.554 0.487,0.85 C 0.565,-0.169 0.33,-0.099 0,0 m -2.325,6.1 c 0.5,0.468 0.868,0.777 1.184,1.132 0.093,0.104 0.11,0.39 0.032,0.498 C -1.18,7.827 -1.441,7.847 -1.598,7.811 -2.384,7.629 -2.499,7.065 -2.325,6.1 m 2.844,-8.238 c -1.555,-0.49 -3.537,-2.312 -3.429,-3.113 1.824,0.488 3.46,1.935 3.429,3.113 m -8.122,-6.615 c 0.771,0.81 0.691,1.76 0.723,2.604 0.034,0.869 -0.208,1.748 -0.312,2.624 -0.325,2.746 -0.085,5.269 2.043,7.421 0.609,0.616 0.637,1.911 0.724,2.913 0.164,1.894 1.135,2.766 2.986,2.446 0.634,-0.11 1.153,-0.051 1.585,0.503 0.544,0.697 1.249,0.666 1.918,0.214 C 2.546,9.647 2.659,9.175 2.223,8.698 1.006,7.369 -0.219,6.049 -1.436,4.72 -1.559,4.585 -1.698,4.433 -1.743,4.265 -1.946,3.508 -0.912,1.859 -0.145,1.703 0.191,1.635 0.534,1.606 0.874,1.558 1.726,1.439 2.62,1.464 2.954,0.35 3.038,0.072 3.576,-0.128 3.943,-0.253 5.074,-0.639 5.671,-1.696 5.405,-2.87 5.052,-4.426 3.975,-5.472 2.878,-6.498 2.739,-6.629 2.425,-6.572 2.192,-6.603 c -0.016,0.249 -0.139,0.567 -0.03,0.734 0.574,0.88 1.29,1.691 1.31,2.815 0.006,0.348 -0.016,0.776 -0.207,1.032 -0.303,0.406 -0.732,0.493 -1,-0.115 C 2.05,-2.624 1.82,-3.105 1.624,-3.599 1.077,-4.978 -0.045,-5.625 -1.383,-6.026 c -1.015,-0.303 -2.007,-0.692 -3.035,-0.94 -0.685,-0.165 -1.144,0.356 -0.846,0.986 0.471,0.992 1.033,1.958 1.682,2.843 0.474,0.647 0.834,1.176 0.45,2.016 -0.329,0.72 -0.497,1.513 -0.813,2.522 -0.258,-0.594 -0.393,-1.06 -0.65,-1.445 -0.191,-0.286 -0.573,-0.689 -0.814,-0.654 -0.795,0.116 -0.876,-0.369 -0.854,-0.881 0.061,-1.418 0.217,-2.833 0.271,-4.252 0.06,-1.585 0.092,-3.173 0.053,-4.758 -0.021,-0.85 -1.385,-1.662 -2.431,-1.552 -0.831,0.088 -1.288,0.644 -1.15,1.703 0.362,2.771 -0.457,5.323 -1.33,7.872 -0.264,0.77 -0.603,1.515 -0.862,2.286 -0.222,0.66 -0.037,1.203 0.677,1.41 0.885,0.255 2.109,-0.324 2.302,-1.243 0.267,-1.27 0.332,-2.584 0.464,-3.882 0.134,-1.326 0.236,-2.655 0.375,-3.981 0.023,-0.223 0.159,-0.435 0.291,-0.777" /></g><g
           transform="translate(66.847,185.7264)"
           id="g132"><path
             id="path134"
             style="fill:#162482;fill-opacity:1;fill-rule:nonzero;stroke:none"
             d="M 0,0 C -0.11,0.284 -0.217,0.512 -0.286,0.751 -0.477,1.414 -0.162,1.704 0.472,1.681 1.493,1.645 3.326,-0.063 3.473,-1.09 3.594,-1.932 3.087,-2.441 2.256,-2.192 1.129,-1.854 0.309,-1.132 0,0" /></g><g
           transform="translate(99.9996,169.0325)"
           id="g136"><path
             id="path138"
             style="fill:#162482;fill-opacity:1;fill-rule:nonzero;stroke:none"
             d="m 0,0 c -38.064,0 -69.033,-30.968 -69.033,-69.033 0,-38.064 30.969,-69.032 69.033,-69.032 38.064,0 69.033,30.968 69.033,69.032 C 69.033,-30.968 38.064,0 0,0 m 0,-139.488 c -38.85,0 -70.456,31.606 -70.456,70.455 0,38.85 31.606,70.456 70.456,70.456 38.85,0 70.456,-31.606 70.456,-70.456 0,-38.849 -31.606,-70.455 -70.456,-70.455" /></g><g
           transform="translate(99.9996,197.1543)"
           id="g140"><path
             id="path142"
             style="fill:#162482;fill-opacity:1;fill-rule:nonzero;stroke:none"
             d="m 0,0 c -53.571,0 -97.154,-43.583 -97.154,-97.154 0,-53.571 43.583,-97.155 97.154,-97.155 53.571,0 97.155,43.584 97.155,97.155 C 97.155,-43.583 53.571,0 0,0 m 0,-197.154 c -55.14,0 -100,44.859 -100,100 0,55.14 44.86,100 100,100 55.141,0 100,-44.86 100,-100 0,-55.141 -44.859,-100 -100,-100" /></g></g></g></g></svg>