<?xml version="1.0"?>
<svg width="300" height="300" viewBox="0 0 83.718994 83.718109" xmlns="http://www.w3.org/2000/svg">
<g transform="translate(-63.277455,-100.584) matrix(0.88370832,0,0,0.88370832,63.277455,100.58312)" fill="#007a49">
 <path d="m 29.635,26.149 a 4.1,4.1 0 1 0 -4.1,4.107 4.105,4.105 0 0 0 4.1,-4.107" transform="translate(21.835,22.464)"/>
 <path d="m 27.735,40.493 h -1.09 a 10.8,10.8 0 0 0 -1.42,-2.993 7.973,7.973 0 0 0 -3.36,-2.77 c 0,0 -3.844,-1.411 -3.186,-4.8 a 4.15,4.15 0 0 1 8.159,-0.055 z" transform="translate(18.957,27.072)"/>
 <path d="m 23.795,40.493 h 1.09 a 10.784,10.784 0 0 1 1.422,-2.993 7.961,7.961 0 0 1 3.358,-2.77 c 0,0 3.844,-1.411 3.186,-4.8 a 4.15,4.15 0 0 0 -8.159,-0.055 z" transform="translate(24.247,27.072)"/>
 <path d="m 73.264,24.963 v 0 c 0.095,0.03 0.2,0.059 0.293,0.087 a 2.568,2.568 0 0 1 0.517,-0.319 0.1,0.1 0 0 0 0.091,0.1 1.115,1.115 0 0 1 -0.01,0.168 c 0.079,0.063 0.155,0.145 0.236,0.208 0.133,0.008 0.384,-0.046 0.525,-0.046 0.052,0.05 0.018,0.2 0.032,0.244 -0.006,0.006 -0.388,0.006 -0.436,0.022 a 0.176,0.176 0 0 0 -0.093,0.3 c -0.01,0.042 -0.083,0.067 -0.093,0.109 -0.036,0.091 0.01,0.115 0.065,0.168 0.264,0.24 0.773,0.4 0.941,0.793 0.018,0.244 -0.095,0.224 -0.19,0.3 -0.063,0.036 -0.162,0.036 -0.25,-0.087 a 12.118,12.118 0 0 1 -1.631,-1.53 c -0.075,0 -0.129,-0.006 -0.2,0 a 3.19,3.19 0 0 1 0.168,0.333 10.742,10.742 0 0 0 1.086,1.314 c 0.519,0.355 1.112,0.713 1.631,1.07 a 3.3,3.3 0 0 1 0.4,0.442 c 0.077,0.17 0.006,0.19 -0.137,0.135 A 1.585,1.585 0 0 1 75.747,28.54 c -0.454,-0.367 -1.044,-0.793 -1.543,-1.238 -0.535,-0.476 -1.086,-0.981 -1.429,-1 -0.264,-0.034 -0.361,0.059 -0.406,0.258 -0.034,0.224 0.046,0.4 0.172,0.442 0.067,0.057 0.057,0.153 0.055,0.244 0,0.139 -0.065,0.2 -0.208,0.168 -0.121,0.02 -0.16,-0.008 -0.279,0.008 a 0.8,0.8 0 0 1 -0.371,-0.176 c -0.16,-0.19 -0.307,-0.408 -0.454,-0.61 -0.016,-0.018 -0.059,-0.038 -0.075,-0.059 a 3,3 0 0 0 -0.842,-0.87 c -0.289,0.977 0.232,1.516 1.074,1.775 0.127,0.123 0.109,0.192 -0.016,0.287 a 2.611,2.611 0 0 0 -0.858,0.5 c -0.123,0.258 -0.224,0.208 -0.3,0.113 A 10.077,10.077 0 0 0 69.76,27.431 c -0.006,0.446 -0.026,0.959 0,1.341 a 0.469,0.469 0 0 0 0.781,0.283 4.941,4.941 0 0 1 1.417,-1 c 0.1,-0.048 0.155,-0.026 0.208,0.093 a 6.321,6.321 0 0 0 1.159,1.108 c 0.3,0.061 0.351,-0.069 0.287,-0.287 A 2.524,2.524 0 0 0 72.859,28.244 1.583,1.583 0 0 1 72.568,28 c -0.081,-0.145 -0.036,-0.178 0.1,-0.147 a 1.511,1.511 0 0 0 0.321,-0.012 0.582,0.582 0 0 0 0.349,-0.19 1.99,1.99 0 0 0 -0.1,-0.646 c -0.077,-0.18 0.042,-0.224 0.208,-0.113 a 5.328,5.328 0 0 1 0.81,0.894 4.8,4.8 0 0 0 2.265,1.565 c 0.365,0 0.41,-0.214 0.323,-0.493 -0.365,-0.442 -0.806,-0.852 -1.207,-1.284 a 4.776,4.776 0 0 1 1.092,-0.014 c 0.412,0.067 0.824,0.073 1.221,0.1 a 3.15,3.15 0 0 0 1.131,0.123 c 0.416,-0.093 0.39,-0.285 0.277,-0.5 a 8.23,8.23 0 0 0 -2.193,-1.734 c -0.067,-0.065 -0.034,-0.129 0.131,-0.151 a 4.922,4.922 0 0 0 1.575,0.43 0.266,0.266 0 0 0 0.335,-0.21 1.112,1.112 0 0 0 -0.216,-0.65 c -0.091,-0.083 -0.164,-0.044 -0.18,0.028 0,0.075 0,0.139 0,0.214 -0.317,-0.036 -0.622,-0.057 -0.937,-0.091 -0.351,-0.095 -0.684,-0.17 -1.038,-0.264 a 1.061,1.061 0 0 1 -0.214,-0.39 c -0.194,-0.127 -0.147,-0.065 -0.18,-0.089 -0.1,0.1 -0.174,0.228 -0.26,0.333 0,0.04 0,0.085 0,0.123 0.02,0.057 0.046,0.113 0.067,0.168 0,0.04 0,0.087 0,0.129 a 2.062,2.062 0 0 1 -0.545,-0.188 1.007,1.007 0 0 0 0.335,0.555 c -0.184,-0.016 -0.382,-0.048 -0.569,-0.065 -0.055,-0.05 -0.095,-0.1 -0.149,-0.151 a 2.792,2.792 0 0 0 -0.246,-0.543 c 0,-0.044 0.01,-0.081 0.01,-0.127 a 2.392,2.392 0 0 0 0.335,-1.082 c -0.044,0.008 -0.1,0.018 -0.149,0.024 a 1.551,1.551 0 0 0 -0.46,0.67 c -0.085,0.085 -0.174,0.089 -0.258,0.145 -0.042,0.052 -0.073,0.093 -0.115,0.149 -0.085,0.079 -0.218,0.018 -0.139,-0.085 0.036,-0.063 0.087,-0.119 0.131,-0.194 a 1.051,1.051 0 0 0 0.1,-0.371 c -0.077,-0.028 -0.157,-0.038 -0.18,-0.016 a 1.478,1.478 0 0 1 -0.186,0.275 9.174,9.174 0 0 0 -0.85,0.481 c -0.1,0.079 -0.206,0.24 -0.038,0.339 m 2.766,2.352 v 0 a 1.969,1.969 0 0 0 -0.38,-0.022 c -0.03,-0.044 -0.063,-0.089 -0.093,-0.131 0.03,-0.034 0.061,-0.067 0.091,-0.1 0.012,-0.036 0.028,-0.079 0.042,-0.115 l 0.188,0.008 a 2.025,2.025 0 0 1 0.206,0.222 0.444,0.444 0 0 1 -0.055,0.137 M 78,26.457 v 0 a 1.4,1.4 0 0 1 0.549,0.331 c 0.028,0.042 0.055,0.1 0.081,0.145 0.065,0.071 0.151,0.151 0.216,0.22 0.071,0.141 -0.044,0.153 -0.123,0.2 -0.363,0.032 -1.084,-0.071 -1.605,-0.095 -0.095,0 -0.125,-0.061 -0.057,-0.143 0.071,-0.05 0.159,-0.1 0.232,-0.145 l 0.139,-0.095 c 0.081,-0.024 0.162,-0.048 0.242,-0.075 A 1.909,1.909 0 0 0 78,26.457 m -1.486,-0.644 v 0 c 0.063,-0.03 0.127,-0.061 0.192,-0.089 0.065,-0.028 0.133,-0.038 0.153,-0.012 a 1.011,1.011 0 0 1 0.388,0.228 c 0.04,0.032 0.077,0.091 0.057,0.123 -0.02,0.032 -0.093,0.014 -0.107,0.024 -0.014,0.01 -0.186,-0.03 -0.2,-0.022 A 0.481,0.481 0 0 1 76.84,26.059 c -0.034,-0.028 -0.063,-0.057 -0.095,-0.087 a 1.636,1.636 0 0 1 -0.271,-0.028 c 0.016,-0.044 0.028,-0.089 0.044,-0.131 m -0.2,0.444 v 0 c 0.172,0.012 0.376,0.04 0.565,0.069 0.109,-0.026 0.2,-0.067 0.307,-0.095 a 0.528,0.528 0 0 1 0.186,0.028 0.125,0.125 0 0 1 0.077,0.127 c -0.018,0.032 -0.1,0.16 -0.194,0.141 -0.063,0.018 -0.115,0.036 -0.176,0.055 -0.1,0.1 -0.2,0.2 -0.307,0.295 a 0.416,0.416 0 0 1 -0.337,0.1 0.82,0.82 0 0 1 -0.527,-0.246 c -0.03,0 -0.065,-0.1 -0.018,-0.141 a 2.872,2.872 0 0 0 0.176,-0.236 c 0.083,-0.042 0.166,-0.059 0.248,-0.1 m -0.242,-0.525 c 0.085,0.026 0.143,0.048 0.16,0.091 -0.018,0.061 -0.095,0.083 -0.188,0.123 -0.065,0.057 -0.141,0.162 -0.206,0.216 a 0.619,0.619 0 0 0 -0.131,0.273 0.432,0.432 0 0 1 -0.2,0.137 2.036,2.036 0 0 0 -0.545,-0.448 c -0.1,0.014 -0.182,-0.044 -0.244,-0.19 a 9.884,9.884 0 0 1 1.353,-0.2 M 71.304,25.64 c 0.424,0.032 0.846,0.042 1.272,0.038 0.093,-0.024 0.17,-0.063 0.1,-0.21 -0.022,-0.093 0.04,-0.143 0.151,-0.139 0.232,-0.014 0.466,-0.016 0.7,-0.032 a 0.606,0.606 0 0 0 -0.17,-0.192 c -0.26,-0.036 -0.563,-0.04 -0.739,-0.087 A 3.024,3.024 0 0 0 72,24.733 a 1.653,1.653 0 0 0 -1.153,0.365 0.992,0.992 0 0 0 -0.014,0.21 c 0.036,0.048 0.071,0.095 0.1,0.141 0.127,0.061 0.25,0.131 0.374,0.192 M 62.549,17.62 a 6.866,6.866 0 0 0 2.251,-1.42 7.6,7.6 0 0 1 -0.547,3.093 1.357,1.357 0 0 0 1.074,1.1 c 0.218,0.17 0.644,0.028 0.367,-0.212 a 1.458,1.458 0 0 1 -0.166,-0.345 c -0.147,-0.351 -0.133,-0.709 -0.315,-1.072 a 2.9,2.9 0 0 1 -0.1,-1.361 1.978,1.978 0 0 0 0.032,-1.048 9.515,9.515 0 0 0 2.342,0.474 c 0.24,0.046 0.339,-0.095 0.25,-0.357 a 2.019,2.019 0 0 0 -0.993,-0.828 c 0.04,0.113 0.081,0.23 0.123,0.343 0.036,0.238 -0.087,0.3 -0.365,0.236 A 2.881,2.881 0 0 0 65.63,16.128 c -0.242,0 -0.289,-0.216 0.02,-0.371 l 2.625,-1.975 c 0.38,-0.333 0.376,-0.709 -0.125,-1.007 -0.367,-0.137 -0.571,-0.1 -0.525,0.212 a 0.614,0.614 0 0 1 -0.184,0.581 16.067,16.067 0 0 1 -2.225,1.87 0.784,0.784 0 0 1 -0.82,0.283 7.018,7.018 0 0 1 -1.314,-0.258 c -0.491,-0.26 -0.616,0.432 -0.23,0.664 a 2.1,2.1 0 0 0 0.666,0 4.6,4.6 0 0 1 0.8,0 L 64.082,16.272 62.9,16.9 c -0.747,0.347 -1.177,0.095 -1.987,-0.238 -0.143,0.232 0.151,0.416 0.394,0.707 0.291,0.485 0.664,0.533 1.238,0.252 m -11.823,-6.4 a 3.016,3.016 0 0 0 0.113,1.4 c 0.212,0.252 0.479,0.281 0.668,0.016 a 1.113,1.113 0 0 0 -0.115,-0.884 0.945,0.945 0 0 0 -0.666,-0.531 m -1.05,-1.05 v 0 l -0.321,-0.113 a 2.5,2.5 0 0 0 -0.933,0.02 1.345,1.345 0 0 1 -0.351,0.45 c -0.042,-0.014 -0.093,0.048 -0.17,0.073 -0.077,0.025 -0.139,0 -0.206,0.012 a 1.667,1.667 0 0 1 -0.157,-0.2 c 0,-0.052 -0.024,-0.129 -0.024,-0.184 -0.042,-0.073 -0.067,-0.129 -0.111,-0.2 -0.046,0.012 -0.091,0.042 -0.139,0.059 a 5.043,5.043 0 0 0 -0.242,0.721 c -0.034,0.472 0.075,0.678 0.442,0.727 a 0.59,0.59 0 0 0 0.483,-0.194 1.167,1.167 0 0 0 0.222,-0.517 0.352,0.352 0 0 1 0.315,-0.271 0.642,0.642 0 0 1 0.426,0 c 0.032,0.089 -0.014,0.192 0.321,0.212 0.061,0 0.143,-0.042 0.216,-0.014 0.012,0.071 0.081,0.192 0.093,0.262 A 0.722,0.722 0 0 1 49.504,11.3 c -0.1,0.127 -0.21,0.3 -0.313,0.424 a 0.335,0.335 0 0 1 -0.335,0.182 c -0.091,0 -0.1,-0.014 -0.155,-0.079 -0.022,-0.063 -0.026,-0.133 -0.046,-0.2 a 0.553,0.553 0 0 0 -0.3,-0.26 c 0.046,0.125 0.109,0.267 0.151,0.4 a 4.216,4.216 0 0 0 0.23,0.656 c 0.121,0.178 0.311,0.24 0.63,0.109 a 1.455,1.455 0 0 0 0.279,-0.279 7.958,7.958 0 0 0 0.678,-1.411 c 0.087,0.063 0.21,0.133 0.3,0.2 0.123,0 0.23,0.026 0.351,0.032 0.077,-0.057 0.125,-0.113 0.2,-0.17 0.1,-0.018 0.184,-0.044 0.285,-0.065 -0.026,-0.1 -0.036,-0.23 -0.063,-0.333 -0.244,-0.018 -0.489,-0.024 -0.733,-0.042 0.046,-0.065 0.077,-0.109 0.119,-0.174 0.2,-0.022 0.414,-0.04 0.614,-0.059 a 0.289,0.289 0 0 0 0.036,-0.359 c -0.1,-0.079 -0.2,-0.186 -0.3,-0.264 -0.01,-0.093 -0.028,-0.184 -0.036,-0.273 0.269,0.036 0.517,0.067 0.783,0.1 0,-0.206 0.018,-0.371 0.014,-0.577 0.04,-0.069 -0.034,-0.1 0.006,-0.172 0.1,-0.079 0.295,-0.21 0.394,-0.289 a 0.607,0.607 0 0 0 0.317,-0.3 c 0.109,-0.125 0.081,-0.25 -0.164,-0.355 a 4.352,4.352 0 0 0 -1.3,0.063 0.311,0.311 0 0 0 -0.184,0.059 c -0.1,0.085 -0.208,0.214 -0.3,0.3 -0.135,0.095 -0.164,0.052 -0.184,-0.008 a 0.78,0.78 0 0 1 0.012,-0.47 0.527,0.527 0 0 1 0.519,-0.295 16.927,16.927 0 0 1 3.012,0.367 3.333,3.333 0 0 0 0.777,0.311 C 55.06,8.077 55.21,7.924 55.089,7.669 54.806,7.336 53.777,7.233 52.416,7.243 52.116,7.209 52.109,7.079 52.182,6.924 c 0.05,-0.061 0.1,-0.119 0.153,-0.18 A 4.521,4.521 0 0 1 53.462,6.687 C 53.733,6.624 54.021,6.58 54.288,6.515 54.353,6.432 54.399,6.327 54.464,6.242 54.409,6.133 54.375,6.022 54.319,5.915 c -0.1,0.006 -0.2,0.032 -0.3,0.038 -0.186,0.113 -0.392,0.212 -0.579,0.325 A 1.467,1.467 0 0 1 52.859,6.341 C 52.647,6.327 52.621,6.232 52.748,6.097 a 6.068,6.068 0 0 1 1.464,-0.955 0.669,0.669 0 0 0 0.3,-0.487 C 54.472,4.481 54.423,4.267 54.348,4.255 54.197,4.336 54.041,4.429 53.886,4.507 53.638,4.654 53.434,4.996 53.149,5.131 53.008,5.192 52.854,5.218 52.713,5.28 a 4.262,4.262 0 0 0 -1.171,0.953 c -0.006,-0.141 -0.036,-0.289 -0.044,-0.43 0.1,-0.139 0.2,-0.283 0.291,-0.424 0,-0.083 0,-0.143 0,-0.226 0.057,-0.071 0.111,-0.16 0.164,-0.228 0,-0.083 -0.02,-0.174 -0.024,-0.256 a 1.227,1.227 0 0 0 -0.392,-0.38 c -0.135,-0.038 -0.212,0.008 -0.232,0.123 -0.1,0.275 0.1,0.686 0.089,0.947 a 0.163,0.163 0 0 1 -0.184,0.149 1.614,1.614 0 0 0 -0.769,0.01 c -0.153,0.059 -0.186,0.147 -0.089,0.267 a 0.781,0.781 0 0 0 0.414,0.226 0.173,0.173 0 0 1 0.18,0.157 3.127,3.127 0 0 1 0,0.4 c 0,0.166 -0.059,0.273 -0.232,0.244 A 7.632,7.632 0 0 1 49.101,6.766 C 48.944,6.707 48.814,6.657 48.687,6.598 a 5.342,5.342 0 0 1 -1.127,-0.371 0.283,0.283 0 0 0 -0.347,0.1 0.8,0.8 0 0 0 -0.05,0.347 1.882,1.882 0 0 0 0.44,0.5 c 0.048,0.044 0.048,0.113 0.1,0.157 a 1.319,1.319 0 0 0 0.339,0.1 C 48.185,7.389 48.327,7.342 48.464,7.3 l 1.694,-0.02 c 0.119,0 0.184,0.02 0.1,0.24 -0.087,0.042 -0.182,0.091 -0.267,0.131 -0.085,0.04 -0.129,0.1 -0.143,0.281 -0.012,0.061 0.121,0.513 0.1,0.573 a 1.287,1.287 0 0 0 -0.729,0.186 c -0.111,0.147 -0.115,0.232 0.091,0.307 0.244,0.055 0.5,0.048 0.7,0.1 a 0.445,0.445 0 0 1 0.182,0.155 C 50.186,9.318 50.214,9.447 50.18,9.511 50.059,9.493 49.841,9.428 49.704,9.402 49.593,9.368 49.476,9.386 49.437,9.511 c 0.01,0.063 -0.012,0.131 0,0.194 a 1.349,1.349 0 0 1 0.345,0.242 c 0.065,0.212 -0.024,0.2 -0.117,0.22 M 50.83,8.402 v 0 a 1.139,1.139 0 0 1 0.719,-0.493 0.957,0.957 0 0 1 0.468,0.038 c 0.127,0.034 0.147,0.085 0.073,0.168 A 6.888,6.888 0 0 1 51.058,8.608 C 51.003,8.669 50.958,8.65 50.866,8.592 50.755,8.507 50.783,8.443 50.83,8.402 m 0.892,-2.088 v 0 a 0.256,0.256 0 0 1 0.151,-0.129 3.98,3.98 0 0 1 0.834,-0.781 c 0.075,-0.014 0.228,0 0.26,0.071 -0.016,0.055 -0.04,0.143 -0.059,0.2 A 3.851,3.851 0 0 0 52.24,6.553 c -0.018,0.069 -0.055,0.164 -0.075,0.232 a 2.422,2.422 0 0 1 -0.363,0.01 c -0.061,-0.04 -0.036,-0.026 -0.087,-0.1 -0.024,-0.16 -0.036,-0.337 0.006,-0.38 m -0.258,0.3 c 0.052,0.046 0.107,0.087 0.16,0.131 a 0.745,0.745 0 0 1 0.044,0.24 c 0.006,0.107 -0.042,0.117 -0.087,0.129 h -0.141 c -0.081,-0.024 -0.089,-0.079 -0.1,-0.137 0,-0.1 0,-0.208 -0.006,-0.313 0.044,-0.016 0.087,-0.032 0.127,-0.05 m -20.219,1.77 v 0 A 0.419,0.419 0 0 0 31.818,7.814 C 31.652,7.525 31.293,7.485 31.091,7.239 30.966,7.152 31.045,7.065 31.191,7.007 31.268,6.95 31.312,6.934 31.365,6.961 a 2.244,2.244 0 0 1 0.216,0.192 c 0.052,0.01 0.083,0.008 0.135,0.018 0.034,0.071 0.1,0.141 0.137,0.212 0.1,0.139 0.287,0.19 0.382,-0.067 0.014,-0.17 0.026,-0.367 0.038,-0.537 0.016,-0.081 0.05,-0.206 0.1,-0.232 a 0.253,0.253 0 0 1 0.123,0.212 c -0.032,0.618 -0.222,1.157 -0.2,1.5 0.046,0.1 0.131,0.3 0.285,0.339 a 0.556,0.556 0 0 0 0.309,-0.2 6.158,6.158 0 0 0 0.446,-0.731 c 0.178,-0.293 0.222,-0.21 0.186,0.117 a 5.294,5.294 0 0 1 -0.406,1.616 4.2,4.2 0 0 0 -0.769,1.694 4.328,4.328 0 0 0 -0.065,1.813 c 0.065,0.2 0.2,0.232 0.418,0.1 0.063,-0.079 0.071,-0.155 0.131,-0.234 A 9,9 0 0 0 33.104,11.337 8.126,8.126 0 0 1 33.813,8.7 c 0.22,-0.289 0.388,-0.545 0.61,-0.608 0.119,-0.1 0.22,-0.117 0.208,0.127 a 2.659,2.659 0 0 1 -0.353,0.925 c -0.109,0.008 -0.216,0.016 -0.325,0.026 -0.2,0.024 -0.178,0.164 -0.194,0.325 0.024,1.028 0.065,2.027 0.141,3.01 a 1,1 0 0 0 0.129,0.238 c 0.123,0.073 0.188,0.1 0.252,0.036 a 7.14,7.14 0 0 0 0.82,-1.864 c 0.077,-0.111 0.151,-0.162 0.23,-0.067 0.139,0.162 0.293,0.357 0.432,0.517 0.1,0 0.188,0 0.289,-0.006 a 1.491,1.491 0 0 0 0.339,-0.808 0.283,0.283 0 0 0 -0.232,-0.325 C 36.006,10.2 35.852,10.198 35.701,10.174 35.56,10.113 35.574,10.047 35.601,9.974 A 1.153,1.153 0 0 0 35.771,9.687 1.649,1.649 0 0 0 35.761,8.97 0.259,0.259 0 0 0 35.385,8.911 5.2,5.2 0 0 0 34.604,9.569 c -0.087,0.055 -0.119,0.192 -0.077,0.416 a 2.829,2.829 0 0 0 0.369,0.392 0.24,0.24 0 0 1 -0.006,0.295 3.036,3.036 0 0 1 -0.468,0.808 c -0.046,0.081 -0.113,0.077 -0.16,-0.012 a 12.87,12.87 0 0 1 -0.048,-1.847 7.89,7.89 0 0 1 0.961,-0.749 3.191,3.191 0 0 0 0.05,-1.355 c -0.295,-0.2 -0.719,0.077 -1.062,0.509 a 3.782,3.782 0 0 1 -0.315,0.43 C 33.757,8.531 33.729,8.577 33.699,8.391 a 3.709,3.709 0 0 1 0.434,-1.228 0.808,0.808 0 0 0 0.01,-0.212 C 34.131,6.899 34.133,6.822 34.095,6.818 34.059,6.854 33.948,6.941 33.887,6.927 33.778,6.913 33.707,6.856 33.758,6.745 A 7.666,7.666 0 0 0 34.3,4.093 C 34.274,3.911 34.151,3.831 33.949,3.915 a 2.044,2.044 0 0 0 -0.991,0.9 C 32.825,4.993 32.823,4.924 32.819,4.807 a 8.991,8.991 0 0 1 0.23,-1.034 C 33.035,3.436 32.986,3.412 32.906,3.317 32.806,3.277 32.688,3.222 32.583,3.184 32.377,3.075 32.26,3.261 32.337,3.495 a 9.32,9.32 0 0 1 0.107,1.987 2.528,2.528 0 0 1 -0.658,0.7 0.087,0.087 0 0 1 -0.1,0 A 0.589,0.589 0 0 0 31.343,5.74 C 31.262,5.702 31.087,5.617 31.043,5.649 31.035,5.695 30.918,5.924 30.978,6.037 a 1.458,1.458 0 0 1 0.264,0.44 c 0,0.069 0.02,0.065 -0.129,0.291 -0.075,0.048 -0.135,0.087 -0.208,0.135 a 0.365,0.365 0 0 0 -0.178,0.5 2.963,2.963 0 0 0 0.513,0.977 m 3.994,1.29 v 0 l 0.18,-0.024 V 9.77 L 35.366,9.938 35.235,10.025 35.148,9.809 Z M 33.417,4.818 v 0 c 0.089,-0.055 0.153,-0.014 0.164,0.083 a 4.288,4.288 0 0 1 -0.61,1.9 C 32.89,6.894 32.832,6.878 32.814,6.777 32.751,6.397 32.784,5.915 32.733,5.519 a 2.682,2.682 0 0 1 0.684,-0.7 M 32.761,7.23 v 0 a 2.2,2.2 0 0 0 0.672,-0.117 c 0.02,0.038 0.036,0.077 0.063,0.117 -0.21,0.246 -0.43,0.5 -0.642,0.743 -0.026,0.034 -0.034,0.069 -0.059,0.1 -0.032,0.008 -0.057,0 -0.061,-0.02 A 2.875,2.875 0 0 1 32.76,7.231 M 32.32,5.953 c 0.091,-0.006 0.166,0.006 0.137,0.121 a 1.2,1.2 0 0 1 -0.3,0.529 c -0.085,0.133 -0.109,0.371 -0.232,0.565 -0.024,0 -0.044,-0.036 -0.067,-0.067 -0.023,-0.031 -0.03,-0.048 -0.024,-0.065 -0.008,-0.2 -0.008,-0.43 -0.016,-0.63 a 1.487,1.487 0 0 1 0.5,-0.454 m -13.256,7.067 v 0 a 0.337,0.337 0 0 1 0.022,0.349 4.309,4.309 0 0 1 -0.812,1.331 c -0.065,0.25 0.063,0.3 0.325,0.226 a 8.161,8.161 0 0 0 1.016,-0.783 0.554,0.554 0 0 1 0.212,0.337 1.773,1.773 0 0 1 0.111,0.527 4.805,4.805 0 0 1 -0.119,0.577 c -0.042,0.151 -0.168,0.2 -0.267,0.325 -0.059,0.095 -0.038,0.151 0.081,0.246 a 1.751,1.751 0 0 1 -0.422,1.054 12.488,12.488 0 0 0 0.479,1.314 c 0.267,0.406 0.545,0.5 0.791,0.258 0.172,-0.289 0.026,-0.5 -0.208,-0.7 a 1.755,1.755 0 0 1 -0.763,-0.911 c -0.073,-0.069 0.131,-0.2 0.252,-0.317 a 8.341,8.341 0 0 1 0.414,-0.733 c 0.093,0.008 0.184,0.034 0.277,0.04 0.275,-0.085 0.321,-0.363 0.262,-0.707 a 1.518,1.518 0 0 1 0.244,-1.183 3.468,3.468 0 0 1 0.206,0.975 c 0.028,0.216 -0.117,0.3 -0.115,0.4 a 0.926,0.926 0 0 0 0.093,0.682 1.174,1.174 0 0 0 0.309,-0.085 c 0.079,0.087 0.061,0.311 0.038,0.6 0.044,0.238 0.1,0.416 0.361,0.382 a 0.6,0.6 0 0 0 0.295,-0.476 c 0.121,0.145 0.238,0.3 0.359,0.448 0.022,-0.071 0.036,-0.157 0.063,-0.228 0.085,-0.038 0.2,-0.046 0.19,-0.26 -0.162,-0.174 -0.331,-0.5 -0.273,-0.65 a 4.692,4.692 0 0 0 1.429,0.107 c 0.2,-0.02 0.428,-0.055 0.472,-0.2 0.044,-0.145 -0.1,-0.466 -0.238,-0.654 a 11.01,11.01 0 0 1 -1.977,-2.932 c -0.115,-0.135 -0.418,-1.2 -1.012,-0.656 -0.325,0.717 -0.586,1.71 -0.945,2.461 a 4.7,4.7 0 0 1 -0.238,-1.619 3.178,3.178 0 0 1 0.4,-0.771 c 0.125,-0.422 -0.186,-0.553 -0.509,-0.549 a 0.467,0.467 0 0 0 -0.365,0.4 0.514,0.514 0 0 1 0.073,0.519 c -0.095,0.182 -0.123,0.077 -0.176,0.063 -0.485,-1.409 -0.955,-1.664 -1.413,-1.631 -0.337,0.044 -0.777,-0.016 -0.7,0.44 0.1,0.083 0.206,0.168 0.309,0.252 a 9.318,9.318 0 0 1 1.472,1.738 m 2.2,-0.743 c 0.115,-0.077 0.5,0.374 0.721,0.979 0.224,0.378 0.521,0.844 0.8,1.213 a 7.143,7.143 0 0 1 0.691,0.959 0.237,0.237 0 0 1 -0.2,0.333 c -0.269,-0.006 -0.495,0.014 -0.761,0.008 -0.067,-0.04 -0.04,-0.315 -0.155,-0.41 -0.05,-0.026 -0.081,-0.042 -0.117,-0.03 a 1.175,1.175 0 0 0 -0.283,0.323 c -0.061,0.1 -0.121,0.085 -0.133,0.055 0.022,-0.23 0.057,-0.466 0.073,-0.7 -0.038,-0.081 -0.044,-0.083 -0.1,-0.115 -0.113,0.01 -0.271,0.034 -0.386,0.042 -0.006,-0.289 -0.026,-0.612 -0.032,-0.9 a 0.735,0.735 0 0 1 0.149,-0.1 1.006,1.006 0 0 0 0.04,-0.378 c 0,-0.1 -0.123,-0.17 -0.271,-0.153 a 0.833,0.833 0 0 0 -0.327,0.329 9.161,9.161 0 0 0 -0.541,1.807 0.319,0.319 0 0 1 -0.256,0.109 c 0.5,-1.916 0.89,-3.317 1.1,-3.376 M 7.229,27.18 v 0 c 0.23,0.01 0.454,-0.269 0.717,-0.812 0.006,-0.351 -0.162,-0.41 -0.291,-0.529 0,-0.485 0.016,-1.005 0.016,-1.49 0.363,0.267 0.686,0.606 0.693,0.8 a 0.145,0.145 0 0 1 -0.087,0.21 c -0.307,0.067 -0.432,0.234 -0.424,0.416 0.034,0.143 0.184,0.2 0.347,0.283 a 5.787,5.787 0 0 1 1.161,0.767 c 0.137,0.3 -0.012,0.295 -0.321,0.258 A 1.4,1.4 0 0 0 8.386,27.37 c -0.048,0.093 -0.016,0.26 0.452,0.533 0.038,0.448 0.014,0.925 0.032,1.3 0.05,0.1 0.186,0.111 0.335,0.014 A 0.708,0.708 0 0 0 9.512,28.395 1,1 0 0 1 9.27,28.058 c 0.012,-0.133 0.04,-0.1 0.071,-0.139 0.151,-0.018 0.273,0.006 0.426,-0.014 a 0.22,0.22 0 0 0 0.186,-0.254 1.111,1.111 0 0 0 -0.311,-0.7 0.267,0.267 0 0 1 0.038,-0.2 2.875,2.875 0 0 1 0.909,0.59 17.19,17.19 0 0 1 -0.323,2.667 0.873,0.873 0 0 0 0.014,0.287 c 0.075,0.147 0.325,0.151 0.626,0.077 a 0.639,0.639 0 0 0 0.287,-0.569 c -0.077,-0.769 -0.141,-1.553 -0.216,-2.322 0.18,0.123 0.416,0.21 0.583,0.351 a 6.625,6.625 0 0 0 -0.032,0.747 c 0.109,0.206 0.273,0.309 0.4,0.273 0.2,-0.077 0.166,-0.535 0.295,-0.757 0.04,0.012 0.079,0.006 0.107,0.036 a 3.6,3.6 0 0 0 2.063,0.945 c -0.089,-0.606 -1.11,-1.1 -2.041,-1.656 a 0.193,0.193 0 0 1 -0.065,-0.23 3.607,3.607 0 0 0 0.1,-1.658 0.336,0.336 0 0 0 -0.349,-0.264 1.364,1.364 0 0 0 -0.63,0.4 0.082,0.082 0 0 1 -0.139,-0.028 c -0.18,-0.414 0.168,-1.383 -0.038,-1.853 -0.117,-0.1 -0.333,-0.081 -0.361,-0.022 a 5.816,5.816 0 0 0 -0.192,1.971 c 0,0.206 -0.166,0.246 -0.335,0.1 A 3.484,3.484 0 0 0 9.895,24.126 1.039,1.039 0 0 1 9.859,23.361 c 0.337,-0.577 0.311,-0.9 0.046,-1.04 a 0.549,0.549 0 0 0 -0.378,0.028 c -0.145,0.153 -0.032,0.458 -0.081,0.713 a 0.7,0.7 0 0 0 -0.678,0.374 2.63,2.63 0 0 0 0.1,1.791 c 0.095,0.3 -0.083,0.264 -0.2,0.18 A 6.29,6.29 0 0 0 8.319,24.05 6.457,6.457 0 0 0 7.819,23.299 c -0.095,-0.335 0.236,-0.83 0.422,-1.2 0.095,-0.5 -0.188,-0.476 -0.267,-0.45 -0.44,0.172 -0.311,0.341 -1.066,0.856 -0.684,0.135 -0.793,0.157 -0.894,0.242 -0.149,0.155 0.022,0.384 0.05,0.414 a 8.615,8.615 0 0 0 1.31,0.945 3.345,3.345 0 0 1 -0.133,1.333 1.461,1.461 0 0 0 -1.064,-0.63 1.132,1.132 0 0 0 -1.046,0.753 12.626,12.626 0 0 0 2.088,0.513 c -0.123,0.658 -0.137,1 0,1.1 m 4.216,-1.2 v 0 a 0.364,0.364 0 0 1 0.4,-0.03 0.4,0.4 0 0 1 0.17,0.291 c -0.022,0.317 -0.073,0.693 -0.107,1.036 -0.113,-0.069 -0.222,-0.141 -0.335,-0.21 -0.061,-0.157 -0.109,-0.317 -0.157,-0.474 0.014,-0.2 0.024,-0.408 0.034,-0.612 m -0.43,-0.521 v 0 a 0.2,0.2 0 0 1 0.081,0.026 1.683,1.683 0 0 1 0.008,0.246 0.3,0.3 0 0 1 -0.093,-0.014 0.685,0.685 0 0 1 -0.034,-0.153 0.208,0.208 0 0 1 0.038,-0.1 M 11,26.011 v 0 c 0.052,0.061 0.1,0.121 0.157,0.184 0.01,0.267 0.018,0.549 0.03,0.816 -0.073,-0.055 -0.143,-0.123 -0.216,-0.178 0.01,-0.273 0.018,-0.547 0.028,-0.822 m -0.567,0.048 v 0 l 0.293,-0.006 a 1.556,1.556 0 0 1 0.014,0.612 c -0.01,0.04 -0.05,0.022 -0.081,0.018 A 0.881,0.881 0 0 1 10.432,26.509 Z M 9.52,24.545 v 0 c 0.065,-0.087 0.085,-0.069 0.129,-0.036 0.192,0.1 0.392,0.5 0.571,1.74 0.008,0.091 -0.036,0.153 -0.061,0.151 a 2.232,2.232 0 0 1 -0.628,-0.485 0.461,0.461 0 0 1 -0.115,-0.2 2.224,2.224 0 0 1 0.1,-1.169 M 8.858,24.253 v 0 c 0.02,-0.135 0.046,-0.279 0.069,-0.414 0.109,-0.1 0.22,-0.085 0.329,0.042 a 1.884,1.884 0 0 1 -0.109,1.211 1.675,1.675 0 0 1 -0.289,-0.84 m -1.8,-1.579 a 0.249,0.249 0 0 1 0.008,-0.143 0.886,0.886 0 0 1 0.408,-0.016 0.209,0.209 0 0 1 0.157,0.149 1.835,1.835 0 0 1 0.012,0.4 c -0.044,0 -0.1,0.008 -0.149,0.014 -0.145,-0.131 -0.287,-0.269 -0.436,-0.4" transform="translate(5.237,3.211)"/>
 <path d="m 5.589,24.912 c -0.594,0.16 -0.87,0.481 -0.832,0.959 a 0.9,0.9 0 0 0 0.208,0.537 H 4.959 a 0.7,0.7 0 0 0 0.216,0.139 0.558,0.558 0 0 0 0.246,0.032 0.807,0.807 0 0 0 0.331,-0.091 0.624,0.624 0 0 0 0.218,-0.2 2.469,2.469 0 0 0 0.1,-0.291 c 0.04,-0.133 0.081,-0.3 0.123,-0.5 a 3.9,3.9 0 0 1 0.155,-0.489 1.137,1.137 0 0 1 0.2,-0.339 1.232,1.232 0 0 1 1.312,-0.291 1.323,1.323 0 0 1 0.434,0.271 1.445,1.445 0 0 1 0.218,0.374 1.608,1.608 0 0 1 0.113,0.483 1.331,1.331 0 0 1 -0.232,0.961 1.478,1.478 0 0 1 -0.917,0.485 L 7.464,26.869 7.454,26.788 a 0.691,0.691 0 0 1 -0.01,-0.079 c 0,-0.028 -0.006,-0.055 -0.01,-0.079 V 26.612 A 1.242,1.242 0 0 1 7.41,26.469 C 7.402,26.417 7.396,26.369 7.388,26.316 a 0.924,0.924 0 0 0 0.521,-0.281 0.66,0.66 0 0 0 0.143,-0.5 0.746,0.746 0 0 0 -0.186,-0.479 h 0.006 a 0.561,0.561 0 0 0 -0.43,-0.147 0.4,0.4 0 0 0 -0.22,0.087 0.62,0.62 0 0 0 -0.16,0.21 c -0.026,0.063 -0.063,0.16 -0.1,0.293 -0.037,0.133 -0.085,0.3 -0.127,0.5 a 3.952,3.952 0 0 1 -0.17,0.521 1.382,1.382 0 0 1 -0.216,0.369 1.073,1.073 0 0 1 -0.341,0.228 1.59,1.59 0 0 1 -0.5,0.115 1.464,1.464 0 0 1 -1.1,-0.359 1.177,1.177 0 0 1 -0.244,-0.4 1.864,1.864 0 0 1 -0.119,-0.541 1.673,1.673 0 0 1 0.046,-0.588 1.306,1.306 0 0 1 0.256,-0.485 1.6,1.6 0 0 1 0.428,-0.341 2.329,2.329 0 0 1 0.606,-0.222 z" transform="translate(4.217,24.752)"/>
 <path d="m 6.314,25.971 a 3.76,3.76 0 0 1 0.509,-0.055 3.661,3.661 0 0 1 0.476,0.018 2.962,2.962 0 0 1 0.426,0.077 2.459,2.459 0 0 1 0.363,0.127 1.777,1.777 0 0 1 0.495,0.47 1.612,1.612 0 0 1 0.26,0.648 1.628,1.628 0 0 1 -0.016,0.7 1.7,1.7 0 0 1 -0.3,0.61 2.52,2.52 0 0 1 -0.664,0.468 3.374,3.374 0 0 1 -0.939,0.307 3.468,3.468 0 0 1 -1,0.05 2.17,2.17 0 0 1 -0.763,-0.208 1.667,1.667 0 0 1 -0.448,-2.443 2.219,2.219 0 0 1 0.644,-0.466 3.531,3.531 0 0 1 0.951,-0.3 m 0.121,0.666 q -1.545,0.282 -1.359,1.3 0.186,1.018 1.73,0.743 a 2.15,2.15 0 0 0 1.108,-0.464 0.974,0.974 0 0 0 -0.279,-1.536 2.152,2.152 0 0 0 -1.2,-0.044" transform="translate(4.458,26.409)"/>
 <path d="m 8.741,27.617 0.188,0.64 -2.467,0.721 a 1.663,1.663 0 0 0 -0.769,0.41 0.684,0.684 0 0 0 -0.153,0.317 0.853,0.853 0 0 0 0.03,0.4 0.805,0.805 0 0 0 0.2,0.347 0.74,0.74 0 0 0 0.295,0.186 1.237,1.237 0 0 0 0.374,0.012 2.491,2.491 0 0 0 0.487,-0.1 l 2.465,-0.721 0.188,0.642 -2.36,0.688 a 4.093,4.093 0 0 1 -0.866,0.166 2.112,2.112 0 0 1 -0.646,-0.042 1.061,1.061 0 0 1 -0.474,-0.329 1.651,1.651 0 0 1 -0.3,-0.608 2.189,2.189 0 0 1 -0.1,-0.719 1.065,1.065 0 0 1 0.186,-0.563 1.744,1.744 0 0 1 0.5,-0.408 3.967,3.967 0 0 1 0.846,-0.341 z" transform="translate(4.912,28.143)"/>
 <path d="m 5.433,31.86 3.384,-1.353 -0.42,-1.05 0.668,-0.269 1.09,2.728 -0.67,0.267 -0.42,-1.052 -3.382,1.353 z" transform="translate(5.536,29.744)"/>
 <path d="m 7.956,32.409 -1.722,0.891 -0.3,-0.592 3.879,-2 0.307,0.594 -1.522,0.783 0.751,1.456 1.52,-0.785 0.3,0.594 -3.879,2 -0.3,-0.594 1.72,-0.888 z" transform="translate(6.042,31.288)"/>
 <path d="m 11.677,33.994 a 1.32,1.32 0 0 1 0.279,0.959 v 0 a 1.7,1.7 0 0 1 -0.442,0.951 c -0.044,-0.036 -0.087,-0.071 -0.127,-0.1 -0.04,-0.029 -0.083,-0.061 -0.123,-0.093 a 0.275,0.275 0 0 1 -0.042,-0.03 l -0.04,-0.03 a 1.461,1.461 0 0 0 -0.151,-0.113 0.823,0.823 0 0 0 0.087,-1.129 Q 10.546,33.628 9.291,34.55 A 2.362,2.362 0 0 0 8.483,35.434 0.778,0.778 0 0 0 8.59,36.24 c 0.285,0.388 0.721,0.448 1.3,0.184 l 0.024,0.095 c 0.006,0.032 0.014,0.065 0.022,0.095 a 0.182,0.182 0 0 0 0.008,0.057 l 0.02,0.055 c 0.01,0.055 0.02,0.107 0.032,0.157 0.012,0.05 0.024,0.1 0.036,0.155 A 1.99,1.99 0 0 1 8.94,37.216 1.309,1.309 0 0 1 8.44,37.038 1.436,1.436 0 0 1 8.052,36.675 1.613,1.613 0 0 1 7.752,36.009 1.446,1.446 0 0 1 7.807,35.296 2.261,2.261 0 0 1 8.187,34.64 3.654,3.654 0 0 1 8.867,34 a 3.476,3.476 0 0 1 0.806,-0.446 2.7,2.7 0 0 1 0.751,-0.182 1.65,1.65 0 0 1 0.7,0.157 1.461,1.461 0 0 1 0.551,0.462" transform="translate(7.877,34.009)"/>
 <path d="m 10.5,36.565 -1.44,1.3 -0.446,-0.495 3.243,-2.924 0.446,0.5 -1.27,1.145 1.094,1.209 1.273,-1.144 0.446,0.5 -3.246,2.918 -0.446,-0.5 1.438,-1.3 z" transform="translate(8.778,35.099)"/>
 <rect width="4.3649998" height="0.66299999" transform="rotate(-45.956,98.723084,14.046558)" x="0" y="0"/>
 <path d="m 10.94,39.9 -0.472,-0.4 2.81,-3.337 0.525,0.442 -0.818,3.469 a 0.146,0.146 0 0 0 0.05,0.03 l 2.041,-2.425 0.464,0.39 -2.812,3.337 -0.571,-0.481 0.791,-3.321 -0.026,-0.012 -0.028,-0.012 z" transform="translate(10.667,36.85)"/>
 <path d="m 13.122,40.165 c -0.059,0.044 -0.121,0.1 -0.188,0.155 -0.067,0.055 -0.127,0.113 -0.188,0.166 -0.061,0.053 -0.093,0.075 -0.135,0.111 -0.042,0.036 -0.087,0.073 -0.131,0.113 a 0.2,0.2 0 0 0 -0.04,0.034 0.3,0.3 0 0 1 -0.04,0.034 l -0.557,-0.384 c 0.048,-0.038 0.1,-0.077 0.147,-0.115 l 0.147,-0.117 v 0 L 12.2,40.11 a 0.49,0.49 0 0 0 0.063,-0.05 c 0.117,-0.095 0.236,-0.188 0.351,-0.281 0.115,-0.093 0.232,-0.19 0.347,-0.285 q 0.615,-0.5 1.217,-0.979 c 0.4,-0.323 0.812,-0.648 1.226,-0.975 l 0.666,0.458 c -0.075,0.244 -0.151,0.491 -0.23,0.741 -0.079,0.25 -0.155,0.5 -0.236,0.751 -0.081,0.251 -0.157,0.5 -0.234,0.747 -0.077,0.247 -0.155,0.495 -0.234,0.739 -0.046,0.139 -0.091,0.281 -0.133,0.42 -0.042,0.139 -0.087,0.283 -0.129,0.424 l -0.083,0.264 c -0.028,0.091 -0.059,0.182 -0.085,0.269 l -0.583,-0.4 0.309,-0.9 z m 1.524,0.295 0.789,-2.227 -0.044,-0.028 c -0.3,0.256 -0.6,0.511 -0.9,0.767 -0.3,0.256 -0.6,0.511 -0.9,0.767 z" transform="translate(12.067,38.258)"/>
 <path d="m 16.59,42.358 c -0.048,0.057 -0.1,0.121 -0.149,0.192 -0.049,0.071 -0.1,0.139 -0.149,0.2 l -0.109,0.137 q -0.051,0.067 -0.1,0.139 a 0.146,0.146 0 0 0 -0.032,0.042 0.167,0.167 0 0 1 -0.032,0.04 l -0.626,-0.254 c 0.038,-0.048 0.079,-0.1 0.119,-0.145 0.04,-0.045 0.081,-0.1 0.119,-0.145 v 0 a 0.76,0.76 0 0 1 0.05,-0.063 0.736,0.736 0 0 0 0.048,-0.063 c 0.1,-0.117 0.19,-0.234 0.285,-0.351 0.095,-0.117 0.186,-0.232 0.279,-0.351 0.331,-0.41 0.658,-0.814 0.981,-1.215 0.323,-0.401 0.656,-0.806 0.991,-1.211 l 0.749,0.3 c -0.022,0.256 -0.044,0.513 -0.069,0.773 -0.025,0.26 -0.046,0.521 -0.071,0.783 -0.025,0.262 -0.048,0.523 -0.071,0.781 -0.023,0.258 -0.048,0.517 -0.073,0.771 -0.014,0.147 -0.028,0.293 -0.04,0.44 l -0.036,0.44 c -0.008,0.089 -0.016,0.182 -0.024,0.277 -0.008,0.095 -0.018,0.19 -0.026,0.281 l -0.656,-0.267 0.113,-0.943 z m 1.553,-0.034 0.3,-2.342 -0.05,-0.02 c -0.236,0.313 -0.474,0.628 -0.713,0.941 -0.239,0.313 -0.479,0.626 -0.715,0.941 z" transform="translate(15.682,40.063)"/>
 <path d="m 19.962,39.977 a 1.37,1.37 0 0 1 1.084,1.593 c -0.125,-0.01 -0.236,-0.016 -0.335,-0.024 -0.099,-0.008 -0.208,-0.01 -0.327,-0.014 a 0.926,0.926 0 0 0 -0.02,-0.333 0.852,0.852 0 0 0 -0.109,-0.258 0.938,0.938 0 0 0 -0.521,-0.329 q -1.03,-0.306 -1.462,1.153 -0.466,1.578 0.573,1.886 a 1.532,1.532 0 0 0 0.549,0.061 1.123,1.123 0 0 0 0.491,-0.164 h -0.006 l 0.194,-0.656 -0.787,-0.234 0.176,-0.6 1.367,0.4 -0.487,1.641 a 2.414,2.414 0 0 1 -0.832,0.26 2.126,2.126 0 0 1 -0.854,-0.077 1.788,1.788 0 0 1 -0.678,-0.359 1.524,1.524 0 0 1 -0.414,-0.592 2.113,2.113 0 0 1 -0.121,-0.775 3.415,3.415 0 0 1 0.149,-0.931 3.246,3.246 0 0 1 0.39,-0.868 2.2,2.2 0 0 1 0.557,-0.59 1.672,1.672 0 0 1 0.678,-0.258 1.692,1.692 0 0 1 0.745,0.061" transform="translate(17.773,40.659)"/>
 <path d="m 20.219,42.779 -0.351,1.86 -0.652,-0.121 0.81,-4.288 1.569,0.295 a 1.363,1.363 0 0 1 0.876,0.5 0.961,0.961 0 0 1 0.188,0.438 1.593,1.593 0 0 1 -0.019,0.537 1.208,1.208 0 0 1 -0.436,0.781 1.039,1.039 0 0 1 -0.293,0.131 1.177,1.177 0 0 1 -0.359,0.038 l -0.012,0.065 a 0.736,0.736 0 0 1 0.153,0.1 0.476,0.476 0 0 1 0.113,0.135 1.061,1.061 0 0 1 0.067,0.186 c 0.022,0.079 0.046,0.172 0.073,0.283 0.012,0.05 0.024,0.1 0.034,0.147 a 1.289,1.289 0 0 0 0.038,0.145 c 0.016,0.069 0.032,0.137 0.046,0.2 l 0.042,0.2 c 0.01,0.052 0.022,0.109 0.036,0.166 0.014,0.057 0.026,0.115 0.04,0.168 0.014,0.053 0.026,0.111 0.04,0.172 0.014,0.061 0.028,0.119 0.042,0.174 l -0.751,-0.143 -0.111,-0.416 -0.1,-0.408 q -0.051,-0.206 -0.1,-0.406 c -0.046,-0.157 -0.089,-0.293 -0.129,-0.4 a 1.093,1.093 0 0 0 -0.111,-0.236 v 0 a 0.892,0.892 0 0 0 -0.2,-0.16 0.771,0.771 0 0 0 -0.25,-0.091 z m 0.1,-0.555 0.713,0.135 a 1.135,1.135 0 0 0 0.565,0 0.581,0.581 0 0 0 0.376,-0.5 c 0.077,-0.412 -0.155,-0.668 -0.7,-0.771 L 20.56,40.953 Z" transform="translate(19.581,40.994)"/>
 <path d="m 22.153,40.583 -0.523,4.333 -0.658,-0.081 0.523,-4.331 z" transform="translate(21.371,41.275)"/>
 <path d="m 23.515,40.59 a 1.309,1.309 0 0 1 0.917,0.394 v 0 a 1.719,1.719 0 0 1 0.452,0.947 c -0.057,0.01 -0.109,0.022 -0.157,0.034 L 24.577,42 a 0.276,0.276 0 0 1 -0.048,0.014 0.206,0.206 0 0 0 -0.05,0.012 1.446,1.446 0 0 0 -0.184,0.042 0.824,0.824 0 0 0 -0.816,-0.783 q -0.969,-0.051 -1.052,1.5 a 2.332,2.332 0 0 0 0.173,1.185 0.777,0.777 0 0 0 0.691,0.43 q 0.718,0.036 0.969,-0.892 l 0.087,0.042 c 0.03,0.016 0.061,0.03 0.089,0.042 a 0.14,0.14 0 0 0 0.05,0.03 l 0.055,0.02 0.141,0.075 c 0.046,0.022 0.093,0.046 0.143,0.069 a 1.988,1.988 0 0 1 -0.557,0.957 1.246,1.246 0 0 1 -0.458,0.277 1.373,1.373 0 0 1 -0.525,0.071 1.6,1.6 0 0 1 -0.707,-0.192 1.432,1.432 0 0 1 -0.515,-0.495 2.27,2.27 0 0 1 -0.267,-0.709 3.562,3.562 0 0 1 -0.057,-0.929 3.376,3.376 0 0 1 0.166,-0.907 2.729,2.729 0 0 1 0.335,-0.7 1.641,1.641 0 0 1 0.569,-0.44 1.442,1.442 0 0 1 0.707,-0.133" transform="translate(22.143,41.36)"/>
 <path d="m 23.542,40.724 0.666,-0.03 0.115,2.568 a 1.638,1.638 0 0 0 0.214,0.844 0.659,0.659 0 0 0 0.271,0.224 0.821,0.821 0 0 0 0.392,0.065 0.791,0.791 0 0 0 0.386,-0.109 0.74,0.74 0 0 0 0.25,-0.242 1.274,1.274 0 0 0 0.1,-0.359 2.558,2.558 0 0 0 0.02,-0.495 l -0.113,-2.566 0.666,-0.03 0.109,2.455 a 4.161,4.161 0 0 1 -0.044,0.882 2.193,2.193 0 0 1 -0.194,0.616 1.05,1.05 0 0 1 -0.434,0.382 1.617,1.617 0 0 1 -0.662,0.153 2.215,2.215 0 0 1 -0.723,-0.073 1.062,1.062 0 0 1 -0.5,-0.315 1.738,1.738 0 0 1 -0.277,-0.586 3.931,3.931 0 0 1 -0.131,-0.9 z" transform="translate(23.989,41.365)"/>
 <path d="m 25.935,40.515 0.493,3.618 1.8,-0.244 0.1,0.7 -2.455,0.335 -0.59,-4.324 z" transform="translate(25.763,41.286)"/>
 <path d="m 28.634,44.715 -0.8,-3.555 -1.1,0.248 -0.157,-0.7 2.865,-0.644 0.157,0.7 -1.1,0.248 0.8,3.555 z" transform="translate(27.078,40.823)"/>
 <path d="m 28.166,40.476 0.634,-0.208 0.8,2.441 a 1.653,1.653 0 0 0 0.434,0.755 0.679,0.679 0 0 0 0.321,0.143 0.843,0.843 0 0 0 0.4,-0.042 0.809,0.809 0 0 0 0.341,-0.21 0.746,0.746 0 0 0 0.176,-0.3 1.279,1.279 0 0 0 0,-0.374 2.726,2.726 0 0 0 -0.113,-0.483 l -0.8,-2.441 0.634,-0.208 0.767,2.336 a 4.205,4.205 0 0 1 0.194,0.86 2.132,2.132 0 0 1 -0.02,0.646 1.045,1.045 0 0 1 -0.313,0.485 1.665,1.665 0 0 1 -0.6,0.327 2.163,2.163 0 0 1 -0.715,0.123 1.065,1.065 0 0 1 -0.569,-0.168 1.762,1.762 0 0 1 -0.424,-0.489 3.939,3.939 0 0 1 -0.367,-0.834 z" transform="translate(28.701,40.302)"/>
 <path d="m 31.426,41.836 0.767,1.732 -0.608,0.267 -1.765,-3.99 1.46,-0.646 a 1.365,1.365 0 0 1 1.007,-0.083 0.951,0.951 0 0 1 0.4,0.254 1.541,1.541 0 0 1 0.285,0.446 1.211,1.211 0 0 1 0.085,0.89 1.037,1.037 0 0 1 -0.166,0.275 1.2,1.2 0 0 1 -0.277,0.236 l 0.028,0.061 a 0.7,0.7 0 0 1 0.184,-0.006 0.461,0.461 0 0 1 0.168,0.048 0.878,0.878 0 0 1 0.162,0.115 c 0.063,0.05 0.135,0.115 0.22,0.19 0.038,0.034 0.075,0.069 0.111,0.1 0.036,0.031 0.075,0.067 0.113,0.1 0.055,0.048 0.1,0.095 0.155,0.143 0.055,0.048 0.1,0.095 0.149,0.143 l 0.125,0.115 c 0.042,0.04 0.087,0.079 0.127,0.115 0.04,0.036 0.087,0.077 0.133,0.119 0.046,0.042 0.089,0.081 0.131,0.117 l -0.7,0.311 -0.327,-0.281 -0.317,-0.279 c -0.107,-0.093 -0.21,-0.186 -0.315,-0.275 -0.127,-0.1 -0.238,-0.19 -0.335,-0.258 a 1.115,1.115 0 0 0 -0.224,-0.131 v 0 a 0.884,0.884 0 0 0 -0.252,-0.02 0.753,0.753 0 0 0 -0.258,0.067 z m -0.228,-0.517 0.662,-0.293 a 1.125,1.125 0 0 0 0.468,-0.319 0.578,0.578 0 0 0 0.022,-0.628 q -0.254,-0.575 -1.014,-0.238 l -0.664,0.293 z" transform="translate(30.388,39.798)"/>
 <path d="m 33.093,41.923 c 0.014,0.073 0.034,0.153 0.057,0.236 0.023,0.083 0.046,0.166 0.067,0.242 0.014,0.061 0.026,0.117 0.04,0.172 0.014,0.055 0.026,0.109 0.044,0.168 a 0.166,0.166 0 0 0 0.012,0.05 0.326,0.326 0 0 1 0.014,0.05 l -0.59,0.333 c -0.014,-0.061 -0.026,-0.121 -0.04,-0.184 -0.014,-0.063 -0.026,-0.123 -0.04,-0.184 v 0 c -0.008,-0.026 -0.014,-0.05 -0.02,-0.077 A 0.554,0.554 0 0 0 32.619,42.65 c -0.032,-0.147 -0.065,-0.295 -0.1,-0.44 -0.035,-0.145 -0.067,-0.291 -0.1,-0.438 -0.117,-0.513 -0.23,-1.02 -0.343,-1.524 -0.113,-0.504 -0.224,-1.012 -0.337,-1.528 l 0.707,-0.4 0.563,0.531 q 0.285,0.27 0.569,0.545 l 0.569,0.539 c 0.188,0.18 0.376,0.357 0.559,0.535 0.1,0.1 0.212,0.2 0.319,0.3 l 0.323,0.3 c 0.065,0.061 0.133,0.125 0.2,0.192 0.067,0.067 0.137,0.129 0.2,0.194 L 35.13,41.803 34.462,41.129 Z M 34.03,40.685 32.378,39 32.332,39.026 q 0.148,0.569 0.295,1.143 0.147,0.574 0.293,1.145 z" transform="translate(32.345,39.058)"/>
 <path d="m 33.293,37.749 2.067,3.01 1.5,-1.03 0.4,0.588 -2.041,1.4 -2.471,-3.6 z" transform="translate(33.372,38.467)"/>
 <path d="m 34.689,37.513 0.489,-0.456 1.752,1.878 a 1.664,1.664 0 0 0 0.715,0.5 0.682,0.682 0 0 0 0.349,-0.006 0.845,0.845 0 0 0 0.341,-0.206 0.77,0.77 0 0 0 0.22,-0.333 0.713,0.713 0 0 0 0.034,-0.345 1.294,1.294 0 0 0 -0.157,-0.341 2.418,2.418 0 0 0 -0.307,-0.388 l -1.752,-1.876 0.487,-0.456 1.682,1.8 a 4.088,4.088 0 0 1 0.535,0.7 2.077,2.077 0 0 1 0.254,0.6 1.065,1.065 0 0 1 -0.081,0.571 1.636,1.636 0 0 1 -0.406,0.547 2.094,2.094 0 0 1 -0.6,0.412 1.048,1.048 0 0 1 -0.586,0.089 1.727,1.727 0 0 1 -0.59,-0.264 4.051,4.051 0 0 1 -0.686,-0.6 z" transform="translate(35.348,36.159)"/>
 <path d="m 39.649,38.815 -0.408,0.466 -3.285,-2.873 0.45,-0.515 3.452,0.88 a 0.146,0.146 0 0 0 0.03,-0.05 l -2.388,-2.086 0.4,-0.456 3.287,2.873 -0.491,0.561 -3.307,-0.852 -0.012,0.028 -0.014,0.026 z" transform="translate(36.639,34.831)"/>
 <rect width="0.66299999" height="4.3639998" transform="rotate(-52.764,106.54218,-41.166166)" x="0" y="0"/>
 <path d="m 37.364,35 0.386,-0.581 3.557,1.179 -0.291,-0.327 c -0.1,-0.109 -0.2,-0.222 -0.3,-0.341 -0.067,-0.075 -0.135,-0.153 -0.21,-0.236 -0.075,-0.083 -0.145,-0.164 -0.218,-0.248 -0.073,-0.084 -0.145,-0.166 -0.218,-0.244 -0.073,-0.078 -0.137,-0.155 -0.2,-0.228 v 0 c -0.115,-0.125 -0.226,-0.25 -0.337,-0.378 L 39.2,33.216 39.014,33 l -0.186,-0.21 0.369,-0.557 0.66,0.775 q 0.327,0.385 0.662,0.775 c 0.151,0.18 0.307,0.359 0.46,0.539 0.153,0.18 0.309,0.363 0.464,0.547 l 0.349,0.408 c 0.119,0.141 0.234,0.279 0.349,0.41 l -0.446,0.67 z" transform="translate(38.074,32.845)"/>
 <path d="m 39.566,30.979 0.561,0.3 L 39.2,33 l 0.985,0.531 0.866,-1.607 0.549,0.295 -0.866,1.607 1.155,0.624 0.957,-1.775 0.592,0.319 -1.27,2.354 -3.84,-2.072 z" transform="translate(39.055,31.568)"/>
 <path d="m 41.578,32.282 1.74,0.739 -0.258,0.61 -4.018,-1.706 0.626,-1.468 a 1.364,1.364 0 0 1 0.678,-0.749 0.95,0.95 0 0 1 0.468,-0.091 1.6,1.6 0 0 1 0.513,0.131 1.21,1.21 0 0 1 0.67,0.594 1.082,1.082 0 0 1 0.067,0.313 1.212,1.212 0 0 1 -0.04,0.359 l 0.061,0.026 a 0.712,0.712 0 0 1 0.129,-0.129 0.487,0.487 0 0 1 0.157,-0.081 1.046,1.046 0 0 1 0.2,-0.026 l 0.289,-0.012 h 0.153 c 0.05,0 0.1,0 0.149,-0.006 0.071,0 0.141,0 0.21,0 0.069,0 0.137,0 0.208,0 h 0.172 c 0.059,0 0.115,0 0.172,0 0.057,0 0.113,0 0.178,0 0.065,0 0.119,0 0.174,0 l -0.3,0.7 -0.432,0.018 c -0.139,0.006 -0.281,0.01 -0.42,0.014 -0.139,0.004 -0.281,0.008 -0.416,0.014 -0.166,0.01 -0.3,0.024 -0.422,0.04 a 1.161,1.161 0 0 0 -0.256,0.059 h 0.006 a 0.994,0.994 0 0 0 -0.2,0.16 0.8,0.8 0 0 0 -0.145,0.224 z M 41.057,32.06 41.34,31.392 a 1.14,1.14 0 0 0 0.125,-0.551 0.581,0.581 0 0 0 -0.414,-0.474 q -0.578,-0.245 -0.9,0.521 l -0.285,0.666 z" transform="translate(39.784,30.179)"/>
 <path d="m 42.464,30.778 c 0.61,0.075 0.987,-0.115 1.133,-0.573 a 0.9,0.9 0 0 0 0.01,-0.577 v 0 a 0.634,0.634 0 0 0 -0.147,-0.208 0.541,0.541 0 0 0 -0.214,-0.125 0.834,0.834 0 0 0 -0.341,-0.04 0.627,0.627 0 0 0 -0.277,0.1 2.474,2.474 0 0 0 -0.2,0.232 c -0.087,0.109 -0.188,0.248 -0.3,0.418 a 3.519,3.519 0 0 1 -0.327,0.394 1.094,1.094 0 0 1 -1.209,0.271 1.123,1.123 0 0 1 -0.432,-0.258 1.336,1.336 0 0 1 -0.3,-0.414 1.418,1.418 0 0 1 -0.061,-0.43 1.614,1.614 0 0 1 0.079,-0.489 1.335,1.335 0 0 1 0.575,-0.8 1.484,1.484 0 0 1 1.032,-0.1 c 0,0.022 -0.01,0.05 -0.018,0.081 -0.008,0.031 -0.016,0.059 -0.022,0.077 a 0.394,0.394 0 0 1 -0.02,0.077 l -0.02,0.079 v 0.016 c -0.008,0.044 -0.018,0.093 -0.032,0.143 -0.014,0.05 -0.026,0.1 -0.038,0.149 a 0.944,0.944 0 0 0 -0.588,0.063 0.67,0.67 0 0 0 -0.323,0.414 0.748,0.748 0 0 0 -0.01,0.513 v 0 a 0.549,0.549 0 0 0 0.341,0.3 0.4,0.4 0 0 0 0.238,0 0.608,0.608 0 0 0 0.226,-0.135 c 0.048,-0.046 0.117,-0.123 0.208,-0.23 0.091,-0.107 0.192,-0.246 0.307,-0.414 a 3.537,3.537 0 0 1 0.353,-0.42 1.44,1.44 0 0 1 0.339,-0.26 1.062,1.062 0 0 1 0.4,-0.081 1.544,1.544 0 0 1 0.507,0.081 1.443,1.443 0 0 1 0.537,0.3 1.47,1.47 0 0 1 0.345,0.446 1.232,1.232 0 0 1 0.077,0.464 1.961,1.961 0 0 1 -0.095,0.547 1.668,1.668 0 0 1 -0.267,0.525 1.29,1.29 0 0 1 -0.42,0.351 1.573,1.573 0 0 1 -0.525,0.155 2.361,2.361 0 0 1 -0.644,-0.024 z" transform="translate(40.549,28.667)"/>
 <rect width="0.66399997" height="4.3649998" transform="rotate(-76.137,76.24047,-23.718726)" x="0" y="0"/>
 <path d="m 44.752,28.335 -3.586,-0.648 -0.2,1.114 -0.709,-0.129 0.523,-2.889 0.709,0.129 -0.2,1.112 3.586,0.648 z" transform="translate(41.021,26.274)"/>
 <path d="M 44.977,26.521 43.14,26.355 c -0.2,0.079 -0.4,0.157 -0.6,0.242 -0.2,0.085 -0.408,0.166 -0.612,0.244 -0.109,0.046 -0.226,0.095 -0.347,0.143 -0.121,0.048 -0.238,0.1 -0.351,0.141 l -0.715,0.291 0.067,-0.749 1.853,-0.723 C 42.366,25.9 42.294,25.855 42.219,25.813 L 41.989,25.674 41.7,25.5 41.413,25.322 c -0.055,-0.032 -0.111,-0.065 -0.172,-0.1 -0.061,-0.035 -0.115,-0.069 -0.166,-0.1 -0.051,-0.031 -0.109,-0.065 -0.17,-0.1 l -0.164,-0.1 0.067,-0.741 2.4,1.512 1.833,0.166 z" transform="translate(41.285,24.635)"/>
 <path d="m 21.739,35.789 h -0.771 v -0.315 a 1.416,1.416 0 0 0 0.648,-0.176 0.824,0.824 0 0 0 0.252,-0.46 l 0.022,-0.065 h 0.287 v 3.5 h -0.438 z" transform="translate(21.367,35.435)"/>
 <path d="M 22.059,37.483 H 22.5 a 0.58,0.58 0 0 0 0.448,0.519 0.75,0.75 0 0 0 0.135,0.012 q 0.56,0 0.725,-0.719 a 2.487,2.487 0 0 0 0.069,-0.62 1.108,1.108 0 0 1 -0.812,0.392 1.016,1.016 0 0 1 -0.864,-0.414 1.157,1.157 0 0 1 -0.216,-0.707 1.139,1.139 0 0 1 0.4,-0.929 1.127,1.127 0 0 1 0.747,-0.256 1.008,1.008 0 0 1 0.892,0.432 2.323,2.323 0 0 1 0.3,1.232 v 0.052 a 2.648,2.648 0 0 1 -0.321,1.425 1.092,1.092 0 0 1 -0.747,0.485 1.366,1.366 0 0 1 -0.2,0.016 0.926,0.926 0 0 1 -0.848,-0.466 1.324,1.324 0 0 1 -0.151,-0.454 m 1.08,-2.342 a 0.655,0.655 0 0 0 -0.583,0.315 0.844,0.844 0 0 0 -0.123,0.456 0.67,0.67 0 0 0 0.688,0.763 0.686,0.686 0 0 0 0.62,-0.321 0.763,0.763 0 0 0 0.117,-0.42 0.778,0.778 0 0 0 -0.311,-0.66 0.667,0.667 0 0 0 -0.408,-0.133" transform="translate(22.406,35.423)"/>
 <path d="m 24.581,34.773 a 0.941,0.941 0 0 1 0.781,0.374 2.411,2.411 0 0 1 0.327,1.407 q 0,1.3 -0.658,1.629 a 1.017,1.017 0 0 1 -0.45,0.1 q -0.848,0 -1.05,-1.04 a 3.848,3.848 0 0 1 -0.059,-0.719 2.313,2.313 0 0 1 0.327,-1.377 0.926,0.926 0 0 1 0.711,-0.374 z m 0,0.374 c -0.456,0 -0.682,0.46 -0.682,1.383 0,0.923 0.224,1.4 0.67,1.4 q 0.572,0 0.666,-0.923 a 4.075,4.075 0 0 0 0.028,-0.5 c 0,-0.911 -0.226,-1.365 -0.682,-1.365" transform="translate(23.919,35.435)"/>
 <path d="m 24.864,37.483 h 0.444 a 0.58,0.58 0 0 0 0.448,0.519 0.75,0.75 0 0 0 0.135,0.012 q 0.56,0 0.725,-0.719 a 2.487,2.487 0 0 0 0.069,-0.62 1.108,1.108 0 0 1 -0.812,0.392 1.016,1.016 0 0 1 -0.864,-0.414 1.157,1.157 0 0 1 -0.216,-0.707 1.139,1.139 0 0 1 0.4,-0.929 1.127,1.127 0 0 1 0.747,-0.256 1.008,1.008 0 0 1 0.892,0.432 2.323,2.323 0 0 1 0.3,1.232 v 0.052 a 2.648,2.648 0 0 1 -0.321,1.425 1.092,1.092 0 0 1 -0.747,0.485 1.366,1.366 0 0 1 -0.2,0.016 0.926,0.926 0 0 1 -0.848,-0.466 1.324,1.324 0 0 1 -0.151,-0.454 m 1.08,-2.342 a 0.655,0.655 0 0 0 -0.583,0.315 0.844,0.844 0 0 0 -0.123,0.456 0.67,0.67 0 0 0 0.688,0.763 0.686,0.686 0 0 0 0.62,-0.321 0.763,0.763 0 0 0 0.117,-0.42 0.778,0.778 0 0 0 -0.311,-0.66 0.667,0.667 0 0 0 -0.408,-0.133" transform="translate(25.264,35.423)"/>
 <path d="m 67.354,39.634 -0.806,-0.04 q 0.036,-0.706 0.036,-1.421 a 28.3895,28.3895 0 0 0 -56.779,0 q 0,0.669 0.03,1.329 L 9.029,39.538 Q 9,38.858 9,38.172 a 29.195,29.195 0 0 1 58.39,0 q 0,0.736 -0.036,1.462" transform="translate(9.172,9.148)"/>
 <path d="M 37.4,48.069 A 29.2,29.2 0 0 1 9.786,28.369 l 0.761,-0.26 a 28.4,28.4 0 0 0 53.772,-0.2 l 0.763,0.256 A 29.168,29.168 0 0 1 37.4,48.069" transform="translate(9.97,28.446)"/>
 <path d="M 47.368,0 V 0 A 47.368,47.368 0 1 0 94.736,47.368 47.458,47.458 0 0 0 47.368,0 m 0,91.927 a 44.209,44.209 0 1 1 44.21,-44.208 44.3,44.3 0 0 1 -44.21,44.208" transform="translate(0,0.001)"/>
 <path d="M 75.037,38.682 H 62.312 a 2.135,2.135 0 0 1 -1.73,-0.888 L 42.521,12.088 a 2.168,2.168 0 0 0 -3.523,0 L 20.944,37.79 A 2.141,2.141 0 0 1 19.21,38.682 H 6.484 V 37.677 H 19.21 a 1.122,1.122 0 0 0 0.913,-0.47 l 18.054,-25.7 a 3.174,3.174 0 0 1 5.165,0 L 61.4,37.21 a 1.123,1.123 0 0 0 0.911,0.466 h 12.726 z" transform="translate(6.607,10.374)"/>
 <path d="m 61.156,39.514 a 2.741,2.741 0 0 1 -2.237,-1.161 l -17.842,-25.8 a 0.472,0.472 0 0 0 -0.392,-0.2 0.478,0.478 0 0 0 -0.4,0.206 l -17.836,25.8 a 2.7,2.7 0 0 1 -2.243,1.165 L 6.558,39.5 v -1.005 l 13.651,0.018 a 1.763,1.763 0 0 0 1.419,-0.735 l 17.836,-25.8 a 1.489,1.489 0 0 1 2.435,0 l 17.844,25.8 a 1.769,1.769 0 0 0 1.415,0.731 l 13.653,-0.018 v 1.005 l -13.653,0.018 z" transform="translate(6.683,11.557)"/>
 <path d="M 74.4,39.907 H 59.72 A 2.742,2.742 0 0 1 57.483,38.746 L 40.548,14.229 23.614,38.74 A 2.742,2.742 0 0 1 21.373,39.9 H 6.695 v -1.005 h 14.68 A 1.733,1.733 0 0 0 22.79,38.162 L 40.134,13.058 a 0.521,0.521 0 0 1 0.828,0 l 17.345,25.11 a 1.739,1.739 0 0 0 1.413,0.729 H 74.4 Z" transform="translate(6.82,13.098)"/>
 <path d="m 73.743,39.936 h -15.6 A 2.742,2.742 0 0 1 55.906,38.775 L 40.327,16.162 24.75,38.765 a 2.739,2.739 0 0 1 -2.241,1.167 h -15.6 v -1.001 l 15.6,-0.006 a 1.74,1.74 0 0 0 1.417,-0.733 l 15.986,-23.2 a 0.521,0.521 0 0 1 0.828,0 L 56.731,38.2 a 1.734,1.734 0 0 0 1.413,0.729 l 15.6,0.006 z" transform="translate(7.041,15.068)"/>
 <path d="M 57.26,40.287 A 4.387,4.387 0 0 1 53.634,38.371 L 40.016,17.922 26.4,38.367 a 4.391,4.391 0 0 1 -3.63,1.92 H 7.212 V 39.279 H 22.77 a 3.391,3.391 0 0 0 2.8,-1.478 L 39.6,16.735 a 0.52,0.52 0 0 1 0.836,0 L 54.468,37.81 a 3.384,3.384 0 0 0 2.792,1.472 h 15.56 v 1.005 z" transform="translate(7.35,16.839)"/>
</g>
</svg>