<?xml version="1.0" encoding="UTF-8" standalone="no"?>
<svg
   xmlns:dc="http://purl.org/dc/elements/1.1/"
   xmlns:cc="http://creativecommons.org/ns#"
   xmlns:rdf="http://www.w3.org/1999/02/22-rdf-syntax-ns#"
   xmlns:svg="http://www.w3.org/2000/svg"
   xmlns="http://www.w3.org/2000/svg"
   viewBox="0 0 244 266.66666"
   height="266.66666"
   width="244"
   xml:space="preserve"
   id="svg2"
   version="1.1"><metadata
     id="metadata8"><rdf:RDF><cc:Work
         rdf:about=""><dc:format>image/svg+xml</dc:format><dc:type
           rdf:resource="http://purl.org/dc/dcmitype/StillImage" /></cc:Work></rdf:RDF></metadata><defs
     id="defs6"><clipPath
       id="clipPath18"
       clipPathUnits="userSpaceOnUse"><path
         id="path16"
         d="M 0,200 H 183 V 0 H 0 Z" /></clipPath></defs><g
     transform="matrix(1.3333333,0,0,-1.3333333,0,266.66667)"
     id="g10"><g
       id="g12"><g
         clip-path="url(#clipPath18)"
         id="g14"><g
           transform="translate(169.9539,105.0249)"
           id="g20"><path
             id="path22"
             style="fill:#a5aeb4;fill-opacity:1;fill-rule:nonzero;stroke:none"
             d="m 0,0 c 0.272,-0.651 6.761,-10.009 0.356,-23.379 8.298,6.194 11.592,4.281 12.337,6.429 C 11.15,-6.931 3.827,-2.182 0,0" /></g><g
           transform="translate(156.4228,47.299)"
           id="g24"><path
             id="path26"
             style="fill:#c30d23;fill-opacity:1;fill-rule:nonzero;stroke:none"
             d="m 0,0 c 4.522,5.672 15.797,14.867 26.214,16.234 v 4.567 c 0,0 -19.547,-2.597 -28.785,-16.203 C -3.959,3.231 -0.315,-0.387 0,0" /></g><g
           transform="translate(155.8174,51.5971)"
           id="g28"><path
             id="path30"
             style="fill:#003f73;fill-opacity:1;fill-rule:nonzero;stroke:none"
             d="m 0,0 c 7.467,9.312 19.955,15.489 26.82,16.332 v 17.299 c 0,0 -21.659,-4.193 -30.729,-15.59 C -8.94,10.225 -1.343,-1.672 0,0" /></g><g
           transform="translate(160.4783,55.5878)"
           id="g32"><path
             id="path34"
             style="fill:#a5aeb4;fill-opacity:1;fill-rule:nonzero;stroke:none"
             d="m 0,0 c -8.414,6.208 -9.999,14.982 -9.728,15.393 -6.556,-6.254 -4.988,-26.649 4.49,-34.323 8.94,-7.236 19.228,9.392 19.228,9.392 C 11.023,-6.53 5.091,-3.167 0,0" /></g><g
           transform="translate(150.5149,66.8581)"
           id="g36"><path
             id="path38"
             style="fill:#d7e7f6;fill-opacity:1;fill-rule:nonzero;stroke:none"
             d="m 0,0 c 7.573,10.67 25.582,17.058 32.122,17.399 v 3.83 c 0,0 -18.355,-2.266 -31.341,-15.511 C 0.461,4.245 -0.199,1.672 0,0" /></g><g
           transform="translate(26.5699,47.299)"
           id="g40"><path
             id="path42"
             style="fill:#c30d23;fill-opacity:1;fill-rule:nonzero;stroke:none"
             d="m 0,0 c -5.492,6.753 -15.902,14.593 -26.217,16.777 v 4.024 c 0,0 19.543,-2.597 28.788,-16.203 C 3.957,3.231 0.317,-0.387 0,0" /></g><g
           transform="translate(27.2138,51.4769)"
           id="g44"><path
             id="path46"
             style="fill:#003f73;fill-opacity:1;fill-rule:nonzero;stroke:none"
             d="m 0,0 c -6.655,8.875 -18.838,14.848 -26.86,16.453 v 17.298 c 0,0 21.654,-4.192 30.728,-15.59 C 8.897,10.345 1.288,-1.718 0,0" /></g><g
           transform="translate(13.046,105.0249)"
           id="g48"><path
             id="path50"
             style="fill:#a5aeb4;fill-opacity:1;fill-rule:nonzero;stroke:none"
             d="m 0,0 c -0.274,-0.651 -6.768,-10.009 -0.356,-23.379 -8.303,6.194 -11.594,4.281 -12.337,6.429 C -11.15,-6.931 -3.832,-2.182 0,0 m 9.466,-49.437 c 8.411,6.208 9.997,14.982 9.728,15.393 6.559,-6.254 4.99,-26.649 -4.488,-34.323 -8.94,-7.236 -18.668,9.377 -18.668,9.377 2.965,3.013 8.337,6.386 13.428,9.553" /></g><g
           transform="translate(32.4802,66.8581)"
           id="g52"><path
             id="path54"
             style="fill:#d7e7f6;fill-opacity:1;fill-rule:nonzero;stroke:none"
             d="m 0,0 c -7.575,10.67 -25.587,17.058 -32.127,17.399 v 3.83 c 0,0 18.36,-2.266 31.341,-15.511 C -0.469,4.245 0.192,1.672 0,0" /></g><g
           transform="translate(9.0746,44.2165)"
           id="g56"><path
             id="path58"
             style="fill:#003f73;fill-opacity:1;fill-rule:nonzero;stroke:none"
             d="m 0,0 c 30.938,-0.752 42.395,-21.769 80.276,-21.769 36.432,0 40.889,18.045 85.168,22.975 v -21.76 c -29.282,0 -54.528,-23.377 -84.382,-22.255 -28.158,1.06 -60.59,21.049 -81.062,21.84 z" /></g><g
           transform="translate(9.0746,24.8519)"
           id="g60"><path
             id="path62"
             style="fill:#c30d23;fill-opacity:1;fill-rule:nonzero;stroke:none"
             d="m 0,0 c 1.869,-0.195 4.363,-0.843 7.537,-1.528 27.209,-6.372 45.667,-17.551 74.995,-19.614 32.358,1.797 55.687,19.924 82.912,21.183 V -3.604 C 136.304,-6.405 119.714,-22.31 82.532,-24.852 48.755,-22.38 23.225,-7.301 0,-4.024 Z" /></g><g
           transform="translate(9.0746,46.0401)"
           id="g64"><path
             id="path66"
             style="fill:#d7e7f6;fill-opacity:1;fill-rule:nonzero;stroke:none"
             d="m 0,0 c 23.427,-2.662 51.895,-19.079 82.532,-22.392 30.683,1.766 40.365,15.525 82.912,22.526 V -4.108 C 128.5,-9.281 112.48,-24.456 82.532,-25.895 48.433,-22.601 29.527,-8.962 0,-4.108 Z" /></g><g
           transform="translate(18.8458,33.8976)"
           id="g68"><path
             id="path70"
             style="fill:#ffffff;fill-opacity:1;fill-rule:nonzero;stroke:none"
             d="m 0,0 -0.687,-2.556 -0.161,0.045 c 0.082,0.502 0.091,0.918 0.034,1.247 -0.058,0.327 -0.185,0.608 -0.39,0.844 -0.204,0.235 -0.437,0.393 -0.704,0.466 -0.302,0.079 -0.583,0.028 -0.843,-0.152 -0.257,-0.175 -0.425,-0.411 -0.507,-0.706 -0.06,-0.221 -0.05,-0.445 0.024,-0.666 0.106,-0.317 0.435,-0.797 0.992,-1.429 0.45,-0.517 0.748,-0.906 0.894,-1.158 0.152,-0.25 0.243,-0.521 0.279,-0.817 0.038,-0.3 0.017,-0.596 -0.06,-0.891 -0.154,-0.558 -0.457,-0.997 -0.916,-1.312 -0.451,-0.308 -0.949,-0.392 -1.494,-0.243 -0.171,0.041 -0.327,0.101 -0.471,0.176 -0.086,0.04 -0.255,0.156 -0.507,0.346 -0.252,0.187 -0.411,0.295 -0.49,0.317 -0.074,0.019 -0.139,0.004 -0.195,-0.036 -0.055,-0.041 -0.115,-0.149 -0.185,-0.315 l -0.158,0.041 0.682,2.534 0.161,-0.04 c -0.069,-0.551 -0.074,-0.973 -0.019,-1.274 0.058,-0.295 0.195,-0.564 0.406,-0.812 0.219,-0.24 0.485,-0.408 0.8,-0.49 0.358,-0.096 0.678,-0.055 0.949,0.13 0.276,0.185 0.459,0.437 0.548,0.766 0.048,0.18 0.058,0.373 0.024,0.582 -0.027,0.202 -0.103,0.411 -0.228,0.617 -0.084,0.139 -0.33,0.447 -0.743,0.937 -0.408,0.49 -0.692,0.872 -0.845,1.141 -0.159,0.262 -0.258,0.538 -0.301,0.824 -0.038,0.282 -0.019,0.579 0.063,0.882 0.139,0.531 0.425,0.942 0.853,1.238 0.43,0.3 0.893,0.382 1.395,0.245 0.313,-0.085 0.62,-0.27 0.918,-0.555 0.14,-0.133 0.241,-0.212 0.305,-0.226 0.08,-0.024 0.147,-0.01 0.209,0.033 0.06,0.046 0.133,0.147 0.207,0.313 z" /></g><g
           transform="translate(22.9853,32.7203)"
           id="g72"><path
             id="path74"
             style="fill:#ffffff;fill-opacity:1;fill-rule:nonzero;stroke:none"
             d="M 0,0 C 0.769,-0.192 1.343,-0.723 1.723,-1.6 2.105,-2.472 2.16,-3.455 1.884,-4.555 1.603,-5.684 1.086,-6.552 0.336,-7.157 c -0.754,-0.606 -1.535,-0.807 -2.34,-0.606 -0.814,0.204 -1.41,0.738 -1.785,1.608 -0.372,0.867 -0.415,1.878 -0.125,3.032 0.296,1.182 0.856,2.068 1.68,2.652 C -1.518,0.038 -0.769,0.195 0,0 m -0.18,-0.377 c -0.531,0.132 -1.016,-0.01 -1.459,-0.426 -0.552,-0.511 -0.975,-1.364 -1.27,-2.546 -0.301,-1.216 -0.33,-2.203 -0.08,-2.96 0.195,-0.577 0.553,-0.932 1.072,-1.062 0.557,-0.137 1.083,0.019 1.578,0.476 0.502,0.454 0.896,1.268 1.19,2.443 0.314,1.273 0.355,2.27 0.11,2.998 -0.197,0.572 -0.577,0.933 -1.141,1.077" /></g><g
           transform="translate(30.587,30.2336)"
           id="g76"><path
             id="path78"
             style="fill:#ffffff;fill-opacity:1;fill-rule:nonzero;stroke:none"
             d="M 0,0 0.055,0.197 2.133,-0.399 2.078,-0.596 1.855,-0.531 C 1.624,-0.466 1.413,-0.536 1.218,-0.747 1.127,-0.841 1.021,-1.093 0.903,-1.499 L 0.046,-4.49 c -0.212,-0.74 -0.438,-1.298 -0.671,-1.677 -0.23,-0.368 -0.559,-0.654 -0.99,-0.848 -0.422,-0.195 -0.929,-0.202 -1.516,-0.036 -0.639,0.185 -1.088,0.466 -1.34,0.838 -0.25,0.375 -0.38,0.812 -0.385,1.326 0,0.349 0.13,0.968 0.385,1.855 l 0.826,2.883 c 0.128,0.449 0.164,0.762 0.101,0.932 -0.055,0.173 -0.194,0.289 -0.415,0.351 l -0.224,0.06 0.058,0.204 2.537,-0.725 -0.058,-0.202 -0.223,0.065 c -0.245,0.067 -0.445,0.021 -0.606,-0.14 -0.11,-0.11 -0.223,-0.374 -0.341,-0.785 l -0.922,-3.21 c -0.08,-0.288 -0.154,-0.625 -0.217,-1.002 -0.065,-0.384 -0.074,-0.692 -0.021,-0.932 0.048,-0.236 0.158,-0.452 0.326,-0.646 0.169,-0.195 0.402,-0.334 0.702,-0.421 0.387,-0.105 0.762,-0.101 1.122,0.022 0.363,0.125 0.644,0.334 0.848,0.629 0.209,0.296 0.423,0.836 0.649,1.62 l 0.855,2.981 c 0.135,0.462 0.176,0.762 0.127,0.901 -0.067,0.188 -0.213,0.317 -0.434,0.382 z" /></g><g
           transform="translate(38.0421,28.2348)"
           id="g80"><path
             id="path82"
             style="fill:#ffffff;fill-opacity:1;fill-rule:nonzero;stroke:none"
             d="m 0,0 -0.468,-1.739 -0.161,0.05 c 0.06,0.315 0.086,0.545 0.069,0.692 -0.024,0.235 -0.096,0.425 -0.216,0.564 -0.115,0.147 -0.296,0.258 -0.536,0.332 l -0.821,0.25 -1.716,-5.605 c -0.134,-0.447 -0.182,-0.738 -0.137,-0.875 0.06,-0.185 0.204,-0.314 0.43,-0.379 l 0.205,-0.065 -0.061,-0.197 -2.479,0.757 0.062,0.197 0.209,-0.065 c 0.246,-0.072 0.45,-0.032 0.611,0.12 0.096,0.098 0.206,0.351 0.336,0.761 L -2.962,0.401 -3.664,0.62 C -3.933,0.702 -4.137,0.733 -4.264,0.721 -4.437,0.697 -4.603,0.605 -4.771,0.444 -4.937,0.281 -5.081,0.038 -5.204,-0.291 l -0.161,0.051 0.594,1.698 z" /></g><g
           transform="translate(39.1521,24.1552)"
           id="g84"><path
             id="path86"
             style="fill:#ffffff;fill-opacity:1;fill-rule:nonzero;stroke:none"
             d="m 0,0 2.698,-0.877 0.678,2.085 c 0.12,0.375 0.182,0.625 0.182,0.757 0,0.099 -0.031,0.195 -0.101,0.286 -0.096,0.13 -0.211,0.214 -0.351,0.26 L 2.902,2.58 2.97,2.777 5.451,1.965 5.387,1.768 5.18,1.838 C 5.045,1.879 4.901,1.884 4.752,1.84 4.639,1.814 4.55,1.744 4.478,1.639 4.409,1.533 4.315,1.302 4.197,0.942 L 2.669,-3.762 C 2.549,-4.135 2.491,-4.38 2.489,-4.51 2.489,-4.611 2.52,-4.707 2.59,-4.8 2.686,-4.93 2.801,-5.012 2.941,-5.057 l 0.201,-0.07 -0.062,-0.2 -2.484,0.808 0.065,0.199 0.206,-0.065 c 0.238,-0.077 0.44,-0.045 0.606,0.099 0.105,0.091 0.233,0.353 0.375,0.793 l 0.723,2.22 -2.698,0.876 -0.724,-2.219 c -0.117,-0.375 -0.18,-0.625 -0.182,-0.752 0,-0.099 0.036,-0.195 0.106,-0.291 0.096,-0.125 0.211,-0.209 0.346,-0.255 l 0.211,-0.069 -0.065,-0.197 -2.487,0.807 0.065,0.199 0.205,-0.067 c 0.24,-0.077 0.442,-0.046 0.607,0.094 0.106,0.091 0.229,0.36 0.37,0.792 l 1.531,4.709 c 0.122,0.373 0.185,0.623 0.185,0.757 0,0.096 -0.036,0.192 -0.101,0.286 -0.099,0.125 -0.214,0.212 -0.351,0.252 l -0.206,0.07 0.064,0.2 L 1.934,3.111 1.869,2.912 1.663,2.981 C 1.523,3.022 1.379,3.027 1.23,2.986 1.124,2.953 1.035,2.888 0.961,2.782 0.891,2.676 0.795,2.446 0.68,2.085 Z" /></g><g
           transform="translate(52.3228,23.8501)"
           id="g88"><path
             id="path90"
             style="fill:#ffffff;fill-opacity:1;fill-rule:nonzero;stroke:none"
             d="m 0,0 -0.673,-2.52 -0.132,0.043 c 0.065,0.798 -0.012,1.415 -0.233,1.85 -0.226,0.435 -0.567,0.723 -1.023,0.872 C -2.448,0.37 -2.837,0.36 -3.229,0.214 -3.621,0.07 -3.991,-0.24 -4.346,-0.718 -4.697,-1.199 -5.007,-1.835 -5.262,-2.64 c -0.213,-0.659 -0.317,-1.255 -0.305,-1.795 0.01,-0.541 0.142,-0.992 0.394,-1.36 0.255,-0.37 0.601,-0.625 1.033,-0.764 0.38,-0.122 0.745,-0.132 1.101,-0.026 0.353,0.11 0.797,0.415 1.34,0.903 L -1.6,-5.833 c -0.502,-0.553 -0.997,-0.918 -1.482,-1.094 -0.486,-0.175 -0.997,-0.175 -1.531,0 -0.961,0.31 -1.562,1.002 -1.797,2.067 -0.178,0.795 -0.12,1.648 0.173,2.549 0.238,0.728 0.584,1.357 1.043,1.879 0.456,0.526 0.968,0.881 1.528,1.069 0.569,0.189 1.119,0.194 1.66,0.019 0.42,-0.132 0.79,-0.401 1.117,-0.788 0.091,-0.12 0.166,-0.19 0.216,-0.204 0.08,-0.024 0.154,-0.015 0.236,0.036 0.105,0.074 0.202,0.189 0.29,0.35 z" /></g><g
           transform="translate(53.5457,19.5302)"
           id="g92"><path
             id="path94"
             style="fill:#ffffff;fill-opacity:1;fill-rule:nonzero;stroke:none"
             d="M 0,0 2.698,-0.877 3.373,1.209 C 3.496,1.583 3.558,1.833 3.558,1.963 3.558,2.064 3.522,2.16 3.455,2.254 3.359,2.383 3.241,2.465 3.109,2.511 L 2.9,2.576 2.965,2.777 5.447,1.968 5.382,1.768 5.18,1.838 C 5.041,1.879 4.899,1.879 4.747,1.838 4.637,1.814 4.548,1.744 4.474,1.639 4.404,1.533 4.313,1.302 4.197,0.942 l -1.53,-4.707 c -0.118,-0.37 -0.18,-0.62 -0.183,-0.747 0,-0.098 0.034,-0.195 0.101,-0.286 0.099,-0.13 0.216,-0.218 0.351,-0.259 l 0.209,-0.07 -0.067,-0.199 -2.485,0.809 0.068,0.202 0.204,-0.07 c 0.238,-0.076 0.437,-0.045 0.605,0.099 0.108,0.086 0.233,0.351 0.373,0.793 l 0.725,2.215 -2.7,0.877 -0.721,-2.22 c -0.12,-0.368 -0.18,-0.618 -0.18,-0.747 -0.005,-0.101 0.034,-0.195 0.103,-0.291 0.096,-0.125 0.212,-0.211 0.349,-0.255 l 0.209,-0.067 -0.065,-0.199 -2.487,0.807 0.065,0.199 0.204,-0.069 c 0.243,-0.075 0.442,-0.041 0.608,0.096 0.106,0.093 0.231,0.355 0.372,0.795 l 1.528,4.707 c 0.121,0.374 0.183,0.622 0.185,0.752 0,0.1 -0.031,0.199 -0.1,0.29 -0.099,0.125 -0.214,0.212 -0.351,0.255 L -0.622,3.722 -0.557,3.919 1.929,3.111 1.867,2.912 1.658,2.982 C 1.521,3.023 1.379,3.023 1.228,2.982 1.122,2.955 1.031,2.89 0.956,2.777 0.889,2.676 0.793,2.446 0.675,2.086 Z" /></g><g
           transform="translate(59.6025,13.5456)"
           id="g96"><path
             id="path98"
             style="fill:#ffffff;fill-opacity:1;fill-rule:nonzero;stroke:none"
             d="m 0,0 -0.065,-0.199 -2.496,0.761 0.058,0.2 0.206,-0.06 c 0.243,-0.075 0.442,-0.044 0.606,0.1 0.103,0.097 0.223,0.361 0.36,0.803 L 0.115,6.34 C 0.231,6.715 0.286,6.965 0.284,7.097 0.284,7.193 0.25,7.292 0.18,7.383 0.079,7.508 -0.038,7.592 -0.175,7.633 L -0.384,7.698 -0.322,7.895 2.179,7.131 2.119,6.931 1.905,6.996 C 1.667,7.066 1.468,7.032 1.305,6.89 1.199,6.797 1.076,6.53 0.944,6.088 L -0.507,1.353 c -0.11,-0.37 -0.168,-0.625 -0.168,-0.752 0,-0.099 0.038,-0.195 0.113,-0.289 0.096,-0.122 0.211,-0.206 0.351,-0.252 z" /></g><g
           transform="translate(61.873,20.6162)"
           id="g100"><path
             id="path102"
             style="fill:#ffffff;fill-opacity:1;fill-rule:nonzero;stroke:none"
             d="m 0,0 1.583,-0.485 1.886,-6.591 1.293,4.226 c 0.139,0.455 0.185,0.745 0.139,0.882 -0.06,0.185 -0.206,0.315 -0.432,0.38 L 4.264,-1.523 4.325,-1.326 6.357,-1.944 6.295,-2.143 6.09,-2.083 C 5.843,-2.009 5.639,-2.045 5.478,-2.203 5.382,-2.299 5.269,-2.554 5.141,-2.965 l -1.888,-6.179 -0.154,0.048 -2.044,7.083 -1.382,-4.52 c -0.139,-0.451 -0.185,-0.739 -0.139,-0.876 0.06,-0.183 0.204,-0.313 0.432,-0.382 l 0.207,-0.061 -0.063,-0.201 -2.03,0.622 0.06,0.199 0.202,-0.06 c 0.25,-0.079 0.457,-0.038 0.618,0.118 0.096,0.094 0.209,0.348 0.334,0.759 l 1.559,5.098 C 0.759,-1.016 0.682,-0.814 0.617,-0.706 0.553,-0.601 0.449,-0.485 0.3,-0.365 0.226,-0.31 0.106,-0.255 -0.065,-0.204 Z" /></g><g
           transform="translate(70.8537,12.6951)"
           id="g104"><path
             id="path106"
             style="fill:#ffffff;fill-opacity:1;fill-rule:nonzero;stroke:none"
             d="m 0,0 -2.28,0.61 -0.716,-1.062 c -0.173,-0.257 -0.281,-0.461 -0.317,-0.605 -0.034,-0.111 -0.019,-0.221 0.046,-0.332 0.062,-0.105 0.23,-0.211 0.511,-0.312 l -0.055,-0.204 -1.857,0.499 0.053,0.202 c 0.264,-0.009 0.442,0.02 0.538,0.084 0.194,0.137 0.449,0.447 0.776,0.933 L 0.406,5.355 0.557,5.312 0.961,-1.396 c 0.031,-0.541 0.096,-0.901 0.19,-1.091 0.096,-0.18 0.264,-0.314 0.497,-0.396 l -0.053,-0.2 -2.325,0.623 0.053,0.199 c 0.24,-0.046 0.41,-0.036 0.514,0.024 0.105,0.06 0.173,0.152 0.206,0.272 0.046,0.161 0.053,0.425 0.031,0.802 z M -0.01,0.435 -0.207,3.698 -2.037,0.98 Z" /></g><g
           transform="translate(76.2618,16.5823)"
           id="g108"><path
             id="path110"
             style="fill:#ffffff;fill-opacity:1;fill-rule:nonzero;stroke:none"
             d="m 0,0 1.619,-0.346 2.458,-6.403 0.918,4.325 c 0.096,0.466 0.12,0.762 0.06,0.891 -0.077,0.18 -0.231,0.291 -0.466,0.341 L 4.38,-1.146 4.425,-0.942 6.504,-1.386 6.46,-1.588 6.249,-1.542 C 5.997,-1.492 5.797,-1.545 5.651,-1.718 5.559,-1.823 5.473,-2.085 5.382,-2.501 L 4.039,-8.824 3.88,-8.793 1.225,-1.915 0.245,-6.535 C 0.147,-6.996 0.125,-7.292 0.18,-7.421 0.259,-7.602 0.411,-7.717 0.644,-7.763 l 0.214,-0.045 -0.044,-0.204 -2.078,0.444 0.041,0.202 0.209,-0.046 c 0.255,-0.05 0.457,0.005 0.603,0.176 0.089,0.101 0.178,0.362 0.269,0.783 l 1.108,5.216 c -0.12,0.295 -0.214,0.488 -0.291,0.591 -0.07,0.096 -0.185,0.202 -0.341,0.31 -0.079,0.05 -0.204,0.096 -0.38,0.127 z" /></g><g
           transform="translate(85.7807,14.9125)"
           id="g112"><path
             id="path114"
             style="fill:#ffffff;fill-opacity:1;fill-rule:nonzero;stroke:none"
             d="m 0,0 c 0.788,-0.084 1.429,-0.531 1.929,-1.345 0.5,-0.808 0.69,-1.776 0.572,-2.898 -0.12,-1.158 -0.514,-2.085 -1.177,-2.787 -0.661,-0.706 -1.403,-1.011 -2.232,-0.922 -0.839,0.086 -1.502,0.531 -1.992,1.333 -0.49,0.807 -0.673,1.8 -0.548,2.986 0.128,1.204 0.563,2.155 1.3,2.852 C -1.511,-0.178 -0.793,0.082 0,0 m -0.125,-0.404 c -0.545,0.056 -1.007,-0.151 -1.389,-0.622 -0.478,-0.586 -0.776,-1.482 -0.905,-2.695 -0.13,-1.243 -0.02,-2.22 0.334,-2.936 0.271,-0.543 0.675,-0.844 1.21,-0.899 0.57,-0.06 1.067,0.171 1.497,0.687 0.433,0.522 0.711,1.379 0.836,2.581 0.142,1.302 0.036,2.291 -0.302,2.976 -0.279,0.546 -0.702,0.848 -1.281,0.908" /></g><g
           transform="translate(94.6773,6.4436)"
           id="g116"><path
             id="path118"
             style="fill:#ffffff;fill-opacity:1;fill-rule:nonzero;stroke:none"
             d="m 0,0 -1.629,0.058 -1.939,3.656 c -0.156,-0.004 -0.276,-0.004 -0.375,0 -0.04,0 -0.081,0.005 -0.124,0.005 -0.046,0.005 -0.092,0.01 -0.14,0.015 L -4.286,1.509 C -4.301,1.028 -4.272,0.728 -4.19,0.608 -4.082,0.437 -3.914,0.348 -3.688,0.341 l 0.24,-0.009 -0.009,-0.21 -2.612,0.094 0.007,0.207 0.229,-0.01 c 0.257,-0.009 0.447,0.094 0.564,0.301 0.068,0.112 0.108,0.389 0.123,0.826 l 0.173,4.947 c 0.017,0.485 -0.015,0.785 -0.094,0.906 -0.11,0.17 -0.281,0.259 -0.514,0.266 l -0.228,0.005 0.007,0.212 2.22,-0.077 C -2.931,7.775 -2.455,7.703 -2.155,7.568 -1.85,7.438 -1.598,7.212 -1.393,6.886 -1.192,6.561 -1.093,6.179 -1.108,5.74 -1.127,5.264 -1.264,4.863 -1.523,4.522 -1.778,4.185 -2.165,3.955 -2.681,3.83 L -1.502,1.586 C -1.228,1.069 -0.992,0.728 -0.79,0.553 -0.591,0.382 -0.322,0.267 0.01,0.211 Z M -4.195,4.094 C -4.14,4.087 -4.089,4.087 -4.048,4.08 h 0.105 c 0.584,-0.025 1.026,0.117 1.331,0.422 0.303,0.31 0.471,0.707 0.483,1.197 0.02,0.48 -0.086,0.872 -0.317,1.177 -0.226,0.308 -0.536,0.471 -0.93,0.483 -0.173,0.005 -0.408,-0.017 -0.708,-0.082 z" /></g><g
           transform="translate(99.0716,6.9457)"
           id="g120"><path
             id="path122"
             style="fill:#ffffff;fill-opacity:1;fill-rule:nonzero;stroke:none"
             d="m 0,0 -3.126,6.114 0.623,-5.086 c 0.055,-0.466 0.129,-0.757 0.228,-0.862 0.127,-0.14 0.312,-0.2 0.552,-0.166 l 0.214,0.024 0.022,-0.209 -2.105,-0.259 -0.021,0.209 0.211,0.021 c 0.257,0.039 0.428,0.154 0.512,0.36 0.05,0.13 0.05,0.407 -0.005,0.832 l -0.61,4.976 C -3.546,6.29 -3.604,6.53 -3.683,6.674 -3.738,6.775 -3.827,6.855 -3.947,6.912 -4.068,6.972 -4.253,6.991 -4.5,6.96 L -4.529,7.167 -2.811,7.373 0.12,1.694 1.55,7.914 3.267,8.123 3.289,7.914 3.082,7.892 C 2.823,7.859 2.648,7.739 2.568,7.532 2.518,7.402 2.518,7.126 2.568,6.701 L 3.179,1.725 C 3.239,1.259 3.318,0.973 3.414,0.867 3.544,0.723 3.729,0.663 3.964,0.697 L 4.176,0.718 4.2,0.512 1.629,0.199 1.6,0.406 1.816,0.432 c 0.26,0.029 0.426,0.149 0.51,0.356 0.05,0.13 0.05,0.406 -0.005,0.831 L 1.699,6.706 0.147,0.019 Z" /></g><g
           transform="translate(107.6511,11.0565)"
           id="g124"><path
             id="path126"
             style="fill:#ffffff;fill-opacity:1;fill-rule:nonzero;stroke:none"
             d="m 0,0 -2.314,-0.492 -0.151,-1.269 c -0.041,-0.315 -0.041,-0.541 -0.014,-0.685 0.028,-0.115 0.088,-0.206 0.194,-0.276 0.106,-0.065 0.308,-0.084 0.601,-0.046 l 0.041,-0.204 -1.879,-0.401 -0.046,0.204 c 0.24,0.111 0.382,0.216 0.442,0.317 0.111,0.209 0.2,0.606 0.267,1.187 l 0.79,6.619 0.152,0.031 3.407,-5.797 C 1.761,-1.278 1.985,-1.574 2.15,-1.694 2.321,-1.812 2.527,-1.855 2.777,-1.821 L 2.818,-2.025 0.461,-2.523 0.418,-2.321 c 0.236,0.065 0.384,0.149 0.449,0.25 0.068,0.101 0.087,0.216 0.065,0.336 -0.038,0.161 -0.149,0.406 -0.343,0.733 z M -0.214,0.384 -1.864,3.2 -2.263,-0.055 Z" /></g><g
           transform="translate(115.1494,12.8392)"
           id="g128"><path
             id="path130"
             style="fill:#ffffff;fill-opacity:1;fill-rule:nonzero;stroke:none"
             d="m 0,0 0.154,0.01 0.146,-2.141 -4.495,-1.461 -0.065,0.2 0.217,0.069 c 0.245,0.08 0.394,0.236 0.43,0.471 0.024,0.137 -0.032,0.411 -0.171,0.827 l -1.528,4.706 c -0.147,0.452 -0.276,0.726 -0.396,0.817 -0.161,0.12 -0.356,0.144 -0.572,0.075 l -0.219,-0.07 -0.067,0.199 2.631,0.853 0.062,-0.199 C -4.18,4.26 -4.385,4.154 -4.486,4.034 -4.586,3.919 -4.639,3.798 -4.647,3.669 -4.656,3.539 -4.586,3.258 -4.45,2.825 l 1.492,-4.584 c 0.097,-0.295 0.183,-0.495 0.267,-0.591 0.055,-0.065 0.13,-0.101 0.214,-0.115 0.082,-0.014 0.308,0.041 0.687,0.163 l 0.421,0.137 c 0.446,0.147 0.742,0.286 0.898,0.43 0.151,0.142 0.267,0.341 0.351,0.594 C -0.041,-0.882 0,-0.497 0,0" /></g><g
           transform="translate(119.9906,20.066)"
           id="g132"><path
             id="path134"
             style="fill:#ffffff;fill-opacity:1;fill-rule:nonzero;stroke:none"
             d="M 0,0 -0.07,0.199 1.975,0.901 2.045,0.702 1.824,0.627 C 1.598,0.55 1.463,0.375 1.422,0.091 1.403,-0.041 1.463,-0.31 1.603,-0.711 L 2.612,-3.649 C 2.861,-4.38 3.001,-4.961 3.022,-5.403 3.046,-5.843 2.941,-6.263 2.7,-6.669 2.465,-7.071 2.054,-7.371 1.478,-7.568 0.85,-7.787 0.32,-7.813 -0.101,-7.652 c -0.42,0.161 -0.781,0.452 -1.074,0.867 -0.199,0.286 -0.449,0.868 -0.754,1.742 l -0.973,2.828 c -0.154,0.447 -0.305,0.725 -0.45,0.831 -0.146,0.101 -0.326,0.12 -0.547,0.041 l -0.217,-0.074 -0.069,0.199 2.496,0.858 0.07,-0.197 -0.221,-0.075 c -0.236,-0.084 -0.38,-0.235 -0.416,-0.461 -0.024,-0.154 0.031,-0.435 0.171,-0.836 l 1.088,-3.162 c 0.098,-0.281 0.226,-0.596 0.394,-0.944 0.171,-0.353 0.341,-0.61 0.516,-0.771 0.181,-0.166 0.392,-0.282 0.642,-0.346 0.247,-0.06 0.521,-0.039 0.817,0.064 0.377,0.128 0.677,0.346 0.903,0.654 0.226,0.31 0.337,0.641 0.337,1.002 -0.005,0.36 -0.133,0.927 -0.402,1.698 L 1.201,-0.798 C 1.047,-0.346 0.911,-0.079 0.79,0.01 0.622,0.13 0.435,0.149 0.216,0.074 Z" /></g><g
           transform="translate(121.8141,20.9286)"
           id="g136"><path
             id="path138"
             style="fill:#ffffff;fill-opacity:1;fill-rule:nonzero;stroke:none"
             d="M 0,0 1.554,0.569 7.035,-3.563 5.521,0.596 C 5.358,1.04 5.216,1.302 5.101,1.379 4.942,1.492 4.75,1.504 4.522,1.422 L 4.325,1.348 4.255,1.547 6.249,2.275 6.324,2.078 6.119,2.004 C 5.874,1.917 5.737,1.759 5.699,1.538 5.682,1.403 5.745,1.136 5.889,0.73 L 8.104,-5.343 7.948,-5.399 2.054,-0.973 3.669,-5.408 C 3.83,-5.85 3.969,-6.114 4.084,-6.196 4.25,-6.304 4.44,-6.321 4.661,-6.239 l 0.204,0.074 0.072,-0.199 -1.999,-0.724 -0.067,0.198 0.197,0.069 c 0.245,0.087 0.384,0.245 0.421,0.466 0.019,0.135 -0.046,0.406 -0.19,0.807 L 1.473,-0.536 C 1.218,-0.351 1.033,-0.236 0.918,-0.19 0.802,-0.142 0.651,-0.115 0.461,-0.111 0.368,-0.106 0.24,-0.137 0.07,-0.192 Z" /></g><g
           transform="translate(133.3968,17.2454)"
           id="g140"><path
             id="path142"
             style="fill:#ffffff;fill-opacity:1;fill-rule:nonzero;stroke:none"
             d="m 0,0 0.074,-0.197 -2.46,-0.896 -0.067,0.199 0.197,0.075 c 0.24,0.086 0.38,0.233 0.425,0.447 0.027,0.137 -0.041,0.425 -0.194,0.853 l -1.699,4.656 c -0.13,0.365 -0.235,0.6 -0.317,0.701 -0.06,0.079 -0.144,0.135 -0.255,0.168 -0.156,0.041 -0.3,0.032 -0.437,-0.014 L -4.937,5.917 -5.007,6.112 -2.552,7.006 -2.477,6.811 -2.686,6.739 C -2.922,6.653 -3.058,6.504 -3.099,6.292 -3.133,6.153 -3.068,5.867 -2.907,5.432 l 1.694,-4.656 c 0.129,-0.365 0.235,-0.596 0.314,-0.702 0.065,-0.076 0.147,-0.129 0.262,-0.16 0.154,-0.041 0.296,-0.036 0.43,0.009 z" /></g><g
           transform="translate(137.2,26.5962)"
           id="g144"><path
             id="path146"
             style="fill:#ffffff;fill-opacity:1;fill-rule:nonzero;stroke:none"
             d="M 0,0 0.074,-0.197 C -0.111,-0.317 -0.24,-0.452 -0.298,-0.608 -0.382,-0.834 -0.423,-1.153 -0.406,-1.55 l 0.231,-6.859 -0.157,-0.06 -4.411,5.427 c -0.228,0.281 -0.374,0.45 -0.444,0.502 -0.111,0.085 -0.231,0.14 -0.356,0.164 -0.125,0.024 -0.276,0.014 -0.461,-0.034 l -0.07,0.2 2.345,0.853 0.07,-0.198 C -3.914,-1.684 -4.065,-1.8 -4.111,-1.91 c -0.05,-0.111 -0.05,-0.231 -0.005,-0.36 0.065,-0.176 0.226,-0.428 0.493,-0.757 l 3.001,-3.693 -0.166,4.663 c -0.014,0.462 -0.055,0.769 -0.111,0.933 -0.038,0.098 -0.115,0.182 -0.23,0.242 -0.116,0.065 -0.281,0.084 -0.49,0.051 -0.015,0 -0.036,-0.003 -0.075,-0.007 l -0.072,0.196 z" /></g><g
           transform="translate(139.3791,26.947)"
           id="g148"><path
             id="path150"
             style="fill:#ffffff;fill-opacity:1;fill-rule:nonzero;stroke:none"
             d="m 0,0 0.987,-2.866 1.269,0.435 c 0.329,0.115 0.526,0.252 0.596,0.415 0.091,0.216 0.074,0.536 -0.055,0.949 L 2.958,-1.012 3.825,-3.534 3.669,-3.589 C 3.508,-3.248 3.388,-3.037 3.318,-2.948 3.222,-2.842 3.102,-2.773 2.962,-2.741 2.825,-2.713 2.631,-2.737 2.391,-2.818 l -1.269,-0.44 0.822,-2.39 c 0.11,-0.318 0.187,-0.512 0.235,-0.577 0.046,-0.055 0.106,-0.101 0.18,-0.125 0.068,-0.019 0.183,0 0.341,0.055 l 0.978,0.337 c 0.327,0.11 0.555,0.221 0.683,0.331 0.125,0.108 0.23,0.269 0.31,0.481 0.101,0.283 0.165,0.68 0.199,1.187 l 0.171,0.06 0.125,-1.99 -4.45,-1.532 -0.07,0.199 0.207,0.07 c 0.134,0.045 0.25,0.132 0.346,0.257 0.07,0.089 0.103,0.194 0.094,0.319 -0.005,0.125 -0.07,0.365 -0.19,0.716 l -1.62,4.712 c -0.161,0.461 -0.295,0.728 -0.406,0.812 -0.153,0.105 -0.345,0.12 -0.581,0.036 l -0.209,-0.07 -0.07,0.199 4.45,1.533 0.615,-1.564 -0.171,-0.062 C 2.926,0.096 2.765,0.336 2.645,0.454 2.52,0.572 2.376,0.646 2.21,0.675 2.081,0.689 1.869,0.641 1.583,0.545 Z" /></g><g
           transform="translate(151.1324,23.2638)"
           id="g152"><path
             id="path154"
             style="fill:#ffffff;fill-opacity:1;fill-rule:nonzero;stroke:none"
             d="M 0,0 -1.55,-0.502 -4.623,2.266 C -4.767,2.215 -4.882,2.17 -4.973,2.143 -5.017,2.133 -5.053,2.119 -5.098,2.105 -5.139,2.095 -5.187,2.083 -5.233,2.073 l 0.687,-2.119 c 0.154,-0.461 0.281,-0.732 0.399,-0.817 0.161,-0.124 0.351,-0.146 0.567,-0.079 l 0.226,0.075 0.065,-0.2 -2.487,-0.807 -0.065,0.2 0.217,0.069 c 0.247,0.079 0.386,0.236 0.427,0.476 0.029,0.127 -0.031,0.401 -0.166,0.817 l -1.53,4.711 C -7.042,4.856 -7.176,5.127 -7.292,5.216 -7.453,5.336 -7.643,5.362 -7.864,5.29 L -8.08,5.221 -8.15,5.418 -6.03,6.107 c 0.612,0.197 1.088,0.286 1.415,0.267 0.334,-0.014 0.648,-0.142 0.951,-0.382 0.3,-0.231 0.521,-0.56 0.661,-0.978 C -2.862,4.565 -2.852,4.137 -2.977,3.729 -3.102,3.328 -3.388,2.977 -3.83,2.681 L -1.951,0.98 c 0.43,-0.394 0.771,-0.634 1.019,-0.725 0.245,-0.096 0.535,-0.111 0.869,-0.056 z m -5.343,2.41 c 0.055,0.019 0.101,0.031 0.144,0.041 0.041,0.014 0.072,0.024 0.096,0.033 0.557,0.18 0.923,0.466 1.108,0.858 0.184,0.392 0.201,0.822 0.05,1.288 C -4.092,5.086 -4.327,5.418 -4.651,5.627 -4.969,5.838 -5.315,5.886 -5.689,5.766 -5.855,5.709 -6.067,5.603 -6.326,5.447 Z" /></g><g
           transform="translate(152.9704,31.9587)"
           id="g156"><path
             id="path158"
             style="fill:#ffffff;fill-opacity:1;fill-rule:nonzero;stroke:none"
             d="M 0,0 0.73,-2.552 0.572,-2.597 c -0.192,0.473 -0.397,0.838 -0.618,1.088 -0.216,0.255 -0.471,0.43 -0.766,0.526 -0.296,0.101 -0.582,0.111 -0.846,0.036 -0.298,-0.086 -0.516,-0.276 -0.644,-0.562 -0.129,-0.286 -0.153,-0.572 -0.069,-0.867 0.062,-0.226 0.182,-0.411 0.36,-0.558 0.257,-0.223 0.788,-0.461 1.591,-0.725 C 0.231,-3.873 0.687,-4.046 0.942,-4.19 1.199,-4.322 1.422,-4.514 1.607,-4.752 1.795,-4.988 1.929,-5.257 2.013,-5.548 2.174,-6.105 2.136,-6.636 1.905,-7.143 1.679,-7.642 1.297,-7.969 0.752,-8.128 0.581,-8.174 0.416,-8.205 0.257,-8.214 c -0.091,-0.01 -0.298,0.005 -0.613,0.036 -0.314,0.033 -0.507,0.043 -0.586,0.019 -0.07,-0.019 -0.12,-0.065 -0.146,-0.135 -0.024,-0.057 -0.024,-0.182 0.009,-0.36 l -0.163,-0.043 -0.723,2.527 0.161,0.046 c 0.226,-0.507 0.437,-0.877 0.641,-1.103 0.204,-0.226 0.457,-0.387 0.767,-0.488 0.314,-0.098 0.622,-0.103 0.937,-0.014 0.36,0.106 0.612,0.305 0.747,0.603 0.144,0.3 0.17,0.61 0.074,0.937 -0.05,0.185 -0.144,0.356 -0.276,0.519 -0.13,0.161 -0.305,0.298 -0.519,0.408 -0.142,0.075 -0.517,0.219 -1.12,0.426 -0.6,0.211 -1.04,0.394 -1.316,0.54 -0.272,0.147 -0.5,0.337 -0.68,0.558 -0.183,0.223 -0.317,0.485 -0.404,0.79 -0.153,0.531 -0.12,1.028 0.096,1.504 0.212,0.476 0.567,0.786 1.067,0.927 0.312,0.094 0.668,0.089 1.074,-0.004 0.19,-0.041 0.315,-0.056 0.38,-0.036 0.074,0.024 0.129,0.069 0.156,0.134 0.033,0.072 0.043,0.197 0.019,0.377 z" /></g><g
           transform="translate(158.7124,25.5222)"
           id="g160"><path
             id="path162"
             style="fill:#ffffff;fill-opacity:1;fill-rule:nonzero;stroke:none"
             d="m 0,0 0.051,-0.204 -2.54,-0.632 -0.05,0.204 0.211,0.051 c 0.245,0.06 0.404,0.192 0.468,0.401 0.041,0.132 0.003,0.423 -0.108,0.872 l -1.199,4.803 c -0.093,0.379 -0.175,0.62 -0.24,0.735 -0.055,0.082 -0.134,0.146 -0.24,0.19 -0.147,0.055 -0.296,0.069 -0.435,0.031 L -4.293,6.4 -4.344,6.602 -1.804,7.237 -1.754,7.032 -1.968,6.977 C -2.208,6.917 -2.364,6.782 -2.429,6.576 -2.475,6.441 -2.439,6.151 -2.328,5.704 l 1.201,-4.805 c 0.092,-0.373 0.176,-0.618 0.24,-0.728 0.056,-0.089 0.135,-0.154 0.246,-0.195 0.141,-0.055 0.29,-0.065 0.427,-0.031 z" /></g><g
           transform="translate(162.5876,34.008)"
           id="g164"><path
             id="path166"
             style="fill:#ffffff;fill-opacity:1;fill-rule:nonzero;stroke:none"
             d="M 0,0 0.44,-1.739 0.274,-1.775 c -0.099,0.3 -0.19,0.511 -0.274,0.636 -0.137,0.192 -0.291,0.322 -0.466,0.392 -0.171,0.07 -0.377,0.079 -0.627,0.029 l -0.841,-0.18 1.218,-5.733 c 0.099,-0.461 0.2,-0.738 0.3,-0.836 0.149,-0.135 0.337,-0.171 0.57,-0.125 l 0.202,0.046 0.048,-0.202 -2.535,-0.541 -0.043,0.204 0.214,0.046 c 0.249,0.051 0.41,0.19 0.475,0.401 0.036,0.13 0.015,0.406 -0.074,0.827 l -1.218,5.732 -0.721,-0.153 c -0.276,-0.06 -0.471,-0.123 -0.577,-0.202 -0.137,-0.104 -0.24,-0.269 -0.305,-0.49 -0.069,-0.221 -0.077,-0.503 -0.021,-0.849 l -0.171,-0.033 -0.3,1.773 z" /></g><g
           transform="translate(167.7628,34.8658)"
           id="g168"><path
             id="path170"
             style="fill:#ffffff;fill-opacity:1;fill-rule:nonzero;stroke:none"
             d="M 0,0 2.107,0.295 2.141,0.089 2.025,0.074 C 1.946,0.065 1.84,0.005 1.701,-0.101 1.564,-0.211 1.449,-0.351 1.345,-0.531 1.249,-0.706 1.134,-0.99 1.004,-1.374 l -1.047,-3.092 0.264,-1.901 c 0.07,-0.466 0.151,-0.752 0.248,-0.86 0.134,-0.137 0.324,-0.195 0.569,-0.156 l 0.197,0.024 0.029,-0.204 -2.566,-0.361 -0.034,0.209 0.219,0.027 c 0.252,0.038 0.42,0.156 0.502,0.37 0.046,0.125 0.041,0.406 -0.017,0.829 l -0.255,1.797 -2.104,2.95 c -0.25,0.344 -0.416,0.557 -0.5,0.639 -0.082,0.089 -0.243,0.176 -0.478,0.279 -0.065,0.026 -0.159,0.036 -0.269,0.017 l -0.026,0.209 2.582,0.362 0.029,-0.206 -0.134,-0.019 c -0.137,-0.017 -0.262,-0.077 -0.371,-0.176 -0.105,-0.101 -0.141,-0.235 -0.117,-0.396 0.017,-0.135 0.142,-0.365 0.372,-0.687 l 1.607,-2.271 0.853,2.506 c 0.13,0.38 0.185,0.651 0.157,0.822 -0.012,0.101 -0.046,0.194 -0.106,0.271 -0.051,0.075 -0.12,0.13 -0.207,0.164 -0.089,0.036 -0.214,0.045 -0.375,0.021 z" /></g><g
           transform="translate(151.5265,152.2663)"
           id="g172"><path
             id="path174"
             style="fill:#d7e7f6;fill-opacity:1;fill-rule:nonzero;stroke:none"
             d="m 0,0 c 0,0 0.046,-73.542 0.046,-73.602 -0.015,-0.005 -0.08,-0.296 -0.08,-0.296 0.01,0.037 -0.242,-0.913 -0.242,-0.913 -6.583,-25.015 -26.681,-41.869 -59.699,-50.133 -32.624,9.045 -53.368,26.591 -59.97,50.78 0,0 -0.06,0.221 -0.091,0.322 0,0.028 -0.063,0.922 -0.063,0.922 l 0.003,72.937 z" /></g><g
           transform="translate(108.7995,82.4482)"
           id="g176"><path
             id="path178"
             style="fill:#ffffff;fill-opacity:1;fill-rule:nonzero;stroke:none"
             d="m 0,0 -10.763,-15.667 22.771,-30.354 -9.918,-3.378 -18.406,25.65 -18.694,-27.207 -7.693,4.882 20.693,30.248 -11.542,15.439 5.524,8.178 11.491,-15.614 10.699,15.636 z" /></g><g
           transform="translate(84.0316,148.2996)"
           id="g180"><path
             id="path182"
             style="fill:#003f73;fill-opacity:1;fill-rule:nonzero;stroke:none"
             d="m 0,0 h 15.525 v -25.924 l 44.808,-61.341 -0.555,-0.849 -45.18,61.89 V -0.927 H 14.365 L 7.979,-4.933 v -22.091 l 48.402,-66.039 -4.837,-5.574 -43.774,60.552 -43.138,-61.104 -4.615,5.204 47.676,66.961 -0.019,22.113 -6.489,4.003 H 0.927 v -25.316 l -44.896,-62.701 -0.555,0.994 L 0,-25.924 Z" /></g><g
           transform="translate(36.7375,94.6699)"
           id="g184"><path
             id="path186"
             style="fill:#003f73;fill-opacity:1;fill-rule:nonzero;stroke:none"
             d="M 0,0 C 0,0.591 0.483,1.069 1.076,1.069 1.67,1.069 2.153,0.591 2.153,0 2.153,-0.601 1.67,-1.076 1.076,-1.076 0.483,-1.076 0,-0.601 0,0" /></g><g
           transform="translate(55.0666,111.5359)"
           id="g188"><path
             id="path190"
             style="fill:#ffffff;fill-opacity:1;fill-rule:nonzero;stroke:none"
             d="M 0,0 8.94,-12.861 14.615,-4.75 4.034,9.786 V 36.3 H -4.197 V 9.786 l -16.39,-22.632 v -16.208 z" /></g><g
           transform="translate(58.6367,147.3723)"
           id="g192"><path
             id="path194"
             style="fill:#003f73;fill-opacity:1;fill-rule:nonzero;stroke:none"
             d="m 0,0 v -26.2 c 0,0 10.098,-13.877 10.475,-14.393 -0.329,-0.474 -4.461,-6.379 -5.103,-7.292 -0.697,1.002 -8.937,12.856 -8.937,12.856 0,0 -18.577,-26.214 -20.129,-28.405 v 14.602 c 0.175,0.238 16.393,22.632 16.393,22.632 l 0,26.2 z M -8.229,0.927 V -25.9 c -0.175,-0.24 -16.392,-22.634 -16.392,-22.634 v -17.817 c 0,0 20.308,28.665 21.046,29.705 0.694,-0.995 8.942,-12.863 8.942,-12.863 l 6.247,8.927 c 0,0 -10.514,14.442 -10.687,14.682 V 0.927 Z" /></g><g
           transform="translate(53.9902,144.8568)"
           id="g196"><path
             id="path198"
             style="fill:#003f73;fill-opacity:1;fill-rule:nonzero;stroke:none"
             d="M 0,0 C 0,0.596 0.478,1.076 1.074,1.076 1.665,1.076 2.148,0.596 2.148,0 2.148,-0.593 1.665,-1.076 1.074,-1.076 0.478,-1.076 0,-0.593 0,0" /></g><g
           transform="translate(55.1386,143.8116)"
           id="g200"><path
             id="path202"
             style="fill:#003f73;fill-opacity:1;fill-rule:nonzero;stroke:none"
             d="m 0,0 v -24.849 l 11.631,-16.172 -0.185,-0.183 -11.556,16.208 -16.703,-23.667 -0.257,0.112 16.849,23.85 V 0.221 Z" /></g><g
           transform="translate(128.558,111.5359)"
           id="g204"><path
             id="path206"
             style="fill:#ffffff;fill-opacity:1;fill-rule:nonzero;stroke:none"
             d="M 0,0 -8.94,-12.861 -14.615,-4.75 -4.034,9.786 V 36.3 H 4.197 V 9.786 l 16.39,-22.632 v -16.208 z" /></g><g
           transform="translate(124.9879,147.3723)"
           id="g208"><path
             id="path210"
             style="fill:#003f73;fill-opacity:1;fill-rule:nonzero;stroke:none"
             d="m 0,0 v -26.2 c 0,0 -10.098,-13.877 -10.475,-14.393 0.329,-0.474 4.461,-6.379 5.103,-7.292 0.697,1.002 8.937,12.856 8.937,12.856 0,0 18.577,-26.214 20.129,-28.405 v 14.602 C 23.518,-48.594 7.301,-26.2 7.301,-26.2 V 0 Z M 8.231,0.927 V -25.9 c 0.173,-0.24 16.39,-22.634 16.39,-22.634 v -17.817 c 0,0 -20.308,28.665 -21.046,29.705 -0.694,-0.995 -8.942,-12.863 -8.942,-12.863 l -6.247,8.927 c 0,0 10.514,14.442 10.687,14.682 V 0.927 Z" /></g><g
           transform="translate(129.6344,144.8568)"
           id="g212"><path
             id="path214"
             style="fill:#003f73;fill-opacity:1;fill-rule:nonzero;stroke:none"
             d="m 0,0 c 0,0.596 -0.478,1.076 -1.074,1.076 -0.593,0 -1.074,-0.48 -1.074,-1.076 0,-0.593 0.481,-1.076 1.074,-1.076 C -0.478,-1.076 0,-0.593 0,0" /></g><g
           transform="translate(128.4859,143.8116)"
           id="g216"><path
             id="path218"
             style="fill:#003f73;fill-opacity:1;fill-rule:nonzero;stroke:none"
             d="m 0,0 v -24.849 l -11.631,-16.172 0.185,-0.183 11.557,16.208 16.702,-23.667 0.257,0.112 -16.849,23.85 V 0.221 Z" /></g><g
           transform="translate(90.5474,143.1678)"
           id="g220"><path
             id="path222"
             style="fill:#ffffff;fill-opacity:1;fill-rule:nonzero;stroke:none"
             d="M 0,0 C 0,0.759 0.613,1.372 1.37,1.372 2.126,1.372 2.746,0.759 2.746,0 2.746,-0.759 2.126,-1.372 1.37,-1.372 0.613,-1.372 0,-0.759 0,0" /></g><g
           transform="translate(92.4766,59.5063)"
           id="g224"><path
             id="path226"
             style="fill:#003f73;fill-opacity:1;fill-rule:nonzero;stroke:none"
             d="m 0,0 c 0,0 -18.322,-26.664 -18.817,-27.382 -0.646,0.409 -6.218,3.947 -6.907,4.385 0.526,0.773 20.609,30.125 20.609,30.125 0,0 -11.162,14.93 -11.544,15.441 0.163,0.243 1.292,1.915 2.443,3.616 L -0.908,7.993 c -0.2,-0.197 -0.329,-0.466 -0.329,-0.771 0,-0.317 0.144,-0.596 0.367,-0.793 l -21.123,-30.856 0.26,-0.149 21.118,30.832 c 0.139,-0.065 0.288,-0.108 0.452,-0.108 0.185,0 0.35,0.06 0.504,0.139 l 22.12,-30.233 0.258,0.11 -22.147,30.28 c 0.206,0.197 0.341,0.471 0.341,0.778 0,0.308 -0.13,0.579 -0.334,0.776 L 13.171,26.385 C 14.384,24.763 15.576,23.168 15.754,22.93 15.388,22.401 4.99,7.265 4.99,7.265 c 0,0 22.644,-30.784 23.069,-31.36 -0.408,-0.488 -7.15,-3.469 -8.183,-3.95 C 19.204,-27.105 0,0 0,0 m -11.688,29.926 c 0.728,-0.99 11.489,-15.609 11.489,-15.609 0,0 10.018,14.641 10.698,15.64 0.303,-0.401 1.374,-1.835 2.472,-3.301 L 0.32,8.171 c -0.145,0.075 -0.308,0.127 -0.483,0.127 -0.19,0 -0.358,-0.062 -0.514,-0.151 L -14.05,26.43 c 1.045,1.552 2.073,3.071 2.362,3.496 M 6.131,7.282 c 0.358,0.526 10.761,15.672 10.761,15.672 l -6.424,8.601 c 0,0 -10.007,-14.627 -10.696,-15.633 -0.723,0.982 -11.494,15.616 -11.494,15.616 l -6.076,-8.997 c 0,0 11.155,-14.922 11.542,-15.434 -0.37,-0.541 -20.78,-30.371 -20.78,-30.371 l 8.479,-5.382 c 0,0 17.855,25.986 18.574,27.031 0.742,-1.035 19.307,-27.206 19.307,-27.206 l 9.917,4.69 c 0,0 -22.725,30.889 -23.11,31.413" /></g><g
           transform="translate(151.4927,78.3687)"
           id="g228"><path
             id="path230"
             style="fill:#003f73;fill-opacity:1;fill-rule:nonzero;stroke:none"
             d="m 0,0 c 0.01,0.036 -0.243,-0.913 -0.243,-0.913 -6.583,-25.015 -26.68,-41.869 -59.698,-50.134 -32.624,9.046 -53.368,26.591 -59.97,50.78 0,0 -0.06,0.221 -0.091,0.322 0,0.029 -0.063,0.923 -0.063,0.923 l 0.003,72.936 120.096,-0.016 c 0,0 0.045,-73.542 0.045,-73.603 C 0.065,0.291 0,0 0,0 m -34.304,114.025 c -0.014,2.008 -0.06,7.561 -0.06,7.561 l -51.404,0.045 v -7.606 h -46.353 c 0,0 7.933,-7.977 8.755,-8.803 V 1.002 c 0,0.024 0.139,-1.648 0.139,-1.648 l 0.015,-0.152 0.007,0.06 0.111,-0.398 c 6.955,-25.484 28.635,-43.888 62.696,-53.229 l 0.411,-0.115 0.421,0.106 c 34.539,8.538 55.571,26.24 62.516,52.62 l 0.241,0.906 C 3.2,-0.817 3.378,0.267 3.378,0.267 v 105.38 c 0.812,0.817 8.342,8.378 8.342,8.378 z" /></g><g
           transform="translate(27.3099,189.09)"
           id="g232"><path
             id="path234"
             style="fill:#c30d23;fill-opacity:1;fill-rule:nonzero;stroke:none"
             d="M 0,0 3.642,-3.64 H 38.191 V 0.022 Z" /></g><g
           transform="translate(154.9957,189.09)"
           id="g236"><path
             id="path238"
             style="fill:#c30d23;fill-opacity:1;fill-rule:nonzero;stroke:none"
             d="M 0,0 -3.64,-3.64 H -38.189 V 0.022 Z" /></g><g
           transform="translate(47.0685,179.9507)"
           id="g240"><path
             id="path242"
             style="fill:#ffffff;fill-opacity:1;fill-rule:nonzero;stroke:none"
             d="m 0,0 c -0.209,0.051 -0.317,0.065 -0.38,0.115 -0.06,0.053 -0.139,0.063 -0.305,-0.05 -0.161,-0.111 -0.317,-0.13 -0.363,-0.204 -0.043,-0.077 -0.103,-0.101 -0.218,-0.168 -0.111,-0.07 -0.762,-0.661 -0.863,-0.942 -0.105,-0.281 -0.125,-0.502 -0.105,-0.692 0.019,-0.188 0.216,-0.519 0.314,-0.555 0.092,-0.034 0.137,-0.024 0.265,-0.161 0.132,-0.139 0.286,-0.197 0.175,-0.351 -0.11,-0.151 -0.103,-0.187 -0.279,-0.187 -0.17,0 -0.504,0.007 -0.605,0.016 -0.103,0.01 -0.288,-0.12 -0.296,-0.221 -0.007,-0.105 0.104,-0.273 0.12,-0.394 0.02,-0.12 0.13,-0.16 0.236,-0.3 0.106,-0.135 0.132,-0.281 0.286,-0.375 0.156,-0.093 0.209,-0.101 0.305,-0.11 0.096,-0.007 0.199,0.043 0.286,-0.094 0.084,-0.134 0.101,-0.168 0.079,-0.307 -0.029,-0.135 0.082,-0.171 0.091,-0.435 0.01,-0.265 0.01,-0.783 0.01,-0.973 0,-0.188 0.039,-0.308 -0.18,-0.409 C -1.643,-6.898 -2.157,-7.14 -2.374,-7.208 -2.59,-7.275 -3.2,-7.575 -3.337,-7.787 -3.476,-8 -3.455,-8.147 -3.544,-8.224 c -0.086,-0.077 -0.25,-0.255 -0.053,-0.495 0.2,-0.238 0.267,-0.254 0.349,-0.401 0.079,-0.144 0.391,-0.151 0.552,-0.127 0.166,0.026 0.421,0.093 0.548,0.237 0.13,0.147 0.286,0.258 0.375,0.315 0.086,0.06 0.31,0.07 0.589,0.056 0.276,-0.02 0.528,-0.044 0.639,0.115 0.115,0.166 0.237,0.36 0.295,0.531 0.06,0.168 0.262,0.468 0.382,0.545 0.12,0.08 0.339,0.147 0.329,-0.101 C 0.452,-7.796 0.447,-8.106 0.437,-8.284 0.428,-8.462 0.252,-8.555 0.271,-8.837 0.291,-9.12 0.351,-9.334 0.322,-9.504 0.298,-9.675 0.281,-9.802 0.351,-9.855 c 0.065,-0.051 0.057,-0.127 0.017,-0.221 -0.046,-0.094 -0.046,-0.231 -0.149,-0.368 -0.104,-0.137 -0.224,-0.315 -0.399,-0.391 -0.171,-0.077 -0.356,-0.101 -0.651,-0.267 -0.291,-0.159 -0.31,-0.115 -0.486,-0.221 -0.17,-0.101 -0.242,-0.178 -0.355,-0.195 -0.111,-0.017 -0.236,-0.007 -0.356,-0.11 -0.12,-0.103 -0.235,-0.171 -0.346,-0.207 -0.115,-0.033 -0.166,-0.024 -0.293,-0.12 -0.132,-0.094 -0.286,-0.178 -0.384,-0.195 -0.094,-0.016 -0.221,-0.057 -0.327,-0.146 -0.106,-0.084 -0.245,-0.091 -0.358,-0.195 -0.108,-0.103 -0.207,-0.146 -0.267,-0.163 -0.06,-0.017 -0.185,-0.103 -0.266,-0.18 -0.089,-0.075 -0.454,-0.253 -0.575,-0.349 -0.122,-0.093 -0.189,-0.093 -0.271,-0.12 -0.077,-0.026 -0.137,-0.084 -0.267,-0.17 -0.129,-0.084 -0.269,-0.173 -0.396,-0.214 -0.13,-0.043 -0.255,-0.043 -0.324,-0.092 -0.07,-0.052 -0.214,-0.069 -0.397,-0.069 -0.185,0 -0.288,-0.07 -0.355,-0.147 -0.07,-0.074 -0.25,-0.17 -0.243,-0.314 0.007,-0.147 -0.039,-0.154 -0.096,-0.231 -0.063,-0.077 -0.082,-0.267 0.007,-0.324 0.089,-0.061 0.05,-0.121 0.096,-0.265 0.041,-0.144 0.07,-0.266 0.159,-0.377 0.086,-0.111 0.091,-0.168 0.161,-0.274 0.072,-0.101 0.158,-0.134 0.242,-0.168 0.089,-0.036 0.185,-0.111 0.26,-0.103 0.079,0.009 0.158,-0.171 0.286,-0.154 0.134,0.017 0.235,0.05 0.324,0.11 0.086,0.061 0.163,0.053 0.248,0.044 0.091,-0.008 0.165,0 0.254,0.137 0.089,0.134 0.353,0.324 0.531,0.528 0.173,0.207 0.457,0.485 0.61,0.622 0.161,0.137 0.317,0.233 0.478,0.397 0.166,0.158 0.303,0.211 0.399,0.322 0.096,0.11 0.168,0.127 0.226,0.161 0.06,0.036 0.149,0.12 0.216,0.19 0.07,0.067 0.147,0.048 0.229,0.127 0.076,0.079 0.382,0.341 0.413,0.377 0.036,0.034 0.134,0.055 0.211,0.111 0.075,0.05 0.2,0.17 0.31,0.264 0.116,0.096 0.382,0.279 0.651,0.459 0.269,0.18 0.599,0.367 0.719,0.447 0.122,0.074 0.341,0.093 0.35,-0.08 0.008,-0.17 0.022,-0.62 0.049,-0.809 0.026,-0.188 0.086,-0.368 0.045,-0.488 -0.045,-0.118 -0.038,-0.187 -0.029,-0.392 0.01,-0.206 0.039,-0.43 -0.11,-0.588 -0.147,-0.164 -0.411,-0.344 -0.618,-0.43 -0.209,-0.082 -0.221,-0.118 -0.389,-0.238 -0.166,-0.115 -0.209,-0.135 -0.295,-0.151 -0.087,-0.02 -0.166,-0.034 -0.233,-0.13 -0.07,-0.094 -0.154,-0.111 -0.272,-0.12 -0.108,-0.008 -0.125,-0.024 -0.264,-0.135 -0.14,-0.113 -0.495,-0.454 -0.611,-0.572 -0.112,-0.12 -0.16,-0.197 -0.156,-0.401 0.01,-0.204 0,-0.375 0.116,-0.512 0.113,-0.139 0.24,-0.31 0.372,-0.403 0.094,-0.068 0.19,-0.128 0.269,-0.168 0.077,-0.044 0.207,-0.101 0.315,-0.181 0.101,-0.077 0.231,-0.24 0.358,-0.24 0.134,0 0.295,0.029 0.384,0.01 0.087,-0.02 0.147,0.06 0.217,0.137 0.072,0.077 0.156,0.05 0.235,0.151 0.079,0.106 0.18,0.216 0.235,0.32 0.051,0.1 0.173,0.331 0.269,0.425 0.092,0.093 0.238,0.118 0.248,-0.094 0.01,-0.214 -0.019,-0.327 -0.024,-0.418 -0.007,-0.094 0.096,-0.204 0.13,-0.267 0.033,-0.06 0.024,-0.187 0.019,-0.348 -0.01,-0.163 -0.019,-0.656 -0.019,-0.776 0,-0.123 0.019,-0.223 -0.053,-0.308 -0.072,-0.086 -0.072,-0.129 -0.077,-0.24 -0.007,-0.11 0,-0.307 -0.067,-0.394 -0.07,-0.086 -0.036,-0.197 -0.116,-0.266 -0.079,-0.065 -0.12,-0.169 -0.216,-0.26 -0.094,-0.096 -0.094,-0.18 -0.089,-0.31 0.01,-0.13 0.027,-0.221 0.072,-0.271 0.041,-0.053 0.084,-0.157 0.084,-0.25 0,-0.094 0.06,-0.212 0.108,-0.253 0.041,-0.045 0.068,-0.139 0.068,-0.216 0,-0.077 0.045,-0.137 0.094,-0.202 0.055,-0.069 0.201,-0.223 0.244,-0.35 0.041,-0.13 0.106,-0.25 0.178,-0.286 0.08,-0.032 0.178,-0.092 0.265,-0.202 0.086,-0.111 0.18,-0.214 0.242,-0.214 0.063,0 0.209,-0.06 0.279,-0.156 0.07,-0.091 0.19,-0.048 0.3,-0.058 0.116,-0.007 0.243,0.075 0.322,0.164 0.079,0.084 0.31,0.314 0.31,0.466 0,0.156 0.147,0.598 0.226,0.718 0.079,0.12 0.106,0.368 0.106,0.589 0,0.223 -0.027,0.454 -0.051,0.641 -0.029,0.19 0.005,0.622 0.005,0.769 0,0.231 -0.151,0.392 -0.151,0.649 0,0.153 0.033,0.588 0.009,0.725 -0.029,0.137 0,0.365 -0.019,0.445 -0.019,0.077 -0.079,0.271 -0.125,0.391 -0.041,0.118 -0.034,0.368 -0.041,0.452 -0.009,0.087 -0.062,0.216 -0.053,0.377 0.01,0.161 0.025,0.418 -0.045,0.538 -0.068,0.121 -0.065,0.31 -0.051,0.452 0.01,0.077 0.039,0.104 0.209,0.178 0.173,0.079 0.356,0.146 0.476,0.206 0.123,0.058 0.312,0.171 0.428,0.188 0.11,0.019 0.456,0.257 0.615,0.418 0.156,0.161 0.295,0.19 0.286,0.468 -0.01,0.284 -0.156,0.522 -0.315,0.652 -0.151,0.127 -0.447,0.297 -0.545,0.391 -0.094,0.094 -0.181,0.094 -0.382,0.101 -0.2,0.01 -0.438,0.01 -0.517,-0.014 -0.079,-0.027 -0.134,-0.12 -0.209,-0.14 -0.077,-0.017 -0.286,-0.101 -0.341,0.036 -0.051,0.137 -0.161,0.495 -0.18,0.817 -0.017,0.327 0.009,0.738 0.052,0.916 0.046,0.18 0.128,0.324 0.128,0.324 0.029,0.171 0.045,0.24 0.139,0.331 0.096,0.096 0.277,0.25 0.418,0.318 0.14,0.069 0.44,0.1 0.538,0.163 0.097,0.06 0.317,0.094 0.433,0.154 0.113,0.06 0.216,0.12 0.442,0.185 0.228,0.069 0.425,0.197 0.564,0.209 0.137,0.007 0.416,0.134 0.51,0.185 0.096,0.053 0.269,0.009 0.389,0.036 0.125,0.026 0.401,0.151 0.461,0.187 0.063,0.034 0.236,-0.005 0.303,0.041 0.166,0.12 0.329,0.046 0.469,0.079 0.139,0.032 0.353,0.133 0.461,0.212 0.103,0.079 0.3,0.12 0.389,0.11 0.084,-0.009 0.363,0.24 0.452,0.392 0.089,0.156 0.24,0.387 0.206,0.675 -0.036,0.291 -0.197,0.332 -0.353,0.428 -0.158,0.093 -0.365,0.247 -0.435,0.29 C 7.205,-7.087 7.138,-6.994 6.975,-7.104 6.806,-7.217 6.585,-7.248 6.4,-7.328 6.218,-7.405 6.074,-7.227 5.874,-7.421 5.672,-7.618 5.415,-7.719 5.264,-7.755 5.12,-7.787 5.038,-7.88 4.848,-7.957 4.656,-8.036 4.702,-7.984 4.502,-8.077 4.305,-8.171 4.216,-8.217 4.07,-8.289 3.921,-8.368 3.599,-8.608 3.366,-8.659 3.135,-8.709 2.638,-9.026 2.491,-9.105 2.342,-9.178 2.066,-9.168 2.1,-8.94 c 0.036,0.231 0.017,0.461 0.077,0.522 0.06,0.06 0.096,0.184 0.105,0.372 0.01,0.19 0.113,0.353 0.229,0.567 0.11,0.211 0.216,0.538 0.353,0.723 0.139,0.19 0.103,0.298 0.219,0.461 0.11,0.161 0.11,0.214 0.355,0.301 0.24,0.086 0.841,0.449 1.038,0.574 0.197,0.115 0.562,0.312 0.728,0.423 0.168,0.11 0.74,0.435 0.841,0.557 0.106,0.118 0.305,0.229 0.286,0.495 -0.019,0.264 -0.092,0.365 -0.31,0.44 -0.216,0.079 -0.147,0.113 -0.385,0.113 -0.23,0 -0.398,-0.024 -0.569,-0.221 C 4.892,-3.81 4.805,-4.031 4.666,-4.118 4.529,-4.204 4.375,-4.272 4.329,-4.178 c -0.043,0.094 -0.016,0.147 0.08,0.324 0.093,0.181 0.199,0.334 0.163,0.522 -0.036,0.187 -0.019,0.42 -0.163,0.487 -0.149,0.068 -0.2,0.188 -0.39,0.058 C 3.827,-2.912 3.695,-3.058 3.609,-3.246 3.525,-3.436 3.409,-3.786 3.448,-4.031 3.479,-4.279 3.479,-4.399 3.34,-4.509 3.203,-4.62 3.212,-4.817 3.027,-4.793 2.847,-4.767 2.698,-4.579 2.523,-4.44 2.352,-4.305 1.97,-4.142 1.92,-4.048 1.867,-3.954 1.73,-3.964 1.595,-4.118 1.47,-4.272 1.228,-4.509 1.165,-4.697 1.103,-4.887 1.052,-5.004 0.954,-5.132 0.863,-5.261 0.704,-5.627 0.598,-5.723 0.495,-5.816 0.394,-5.917 0.281,-5.886 0.166,-5.85 0.252,-5.824 0.125,-5.663 c -0.13,0.164 -0.13,0.18 -0.139,0.298 -0.008,0.118 0.12,0.207 0.05,0.276 -0.07,0.068 -0.01,0.255 0.055,0.373 0.06,0.12 0.118,0.317 0.152,0.581 0.028,0.188 0.028,0.445 0.252,0.572 0.228,0.127 1.526,0.829 1.682,0.94 0.158,0.113 0.305,0.05 0.425,0.156 0.125,0.101 0.262,0.298 0.447,0.37 0.18,0.079 0.456,0.283 0.596,0.37 0.139,0.086 0.3,0.274 0.564,0.451 0.257,0.181 0.759,0.452 0.959,0.649 C 5.372,-0.43 6.16,0.125 6.254,0.339 6.35,0.55 6.436,0.69 6.28,0.901 6.124,1.115 6.131,1.175 5.913,1.168 5.701,1.158 5.716,1.218 5.62,1.285 5.523,1.353 5.463,1.391 5.362,1.302 5.254,1.218 5.168,1.151 5.038,1.175 4.913,1.201 4.815,1.122 4.702,1.031 4.591,0.937 4.397,0.901 4.161,0.639 3.931,0.375 3.313,-0.303 3.152,-0.541 2.864,-0.958 2.549,-1.035 2.386,-1.225 2.083,-1.581 1.66,-1.658 1.449,-1.862 1.199,-2.112 1.079,-2.059 0.903,-2.198 0.733,-2.333 0.557,-2.4 0.452,-2.246 c -0.101,0.149 -0.024,0.339 0.06,0.451 0.086,0.111 0.065,0.349 0.055,0.63 -0.01,0.286 0.026,0.514 -0.12,0.668 C 0.298,-0.346 0.305,-0.07 0,0" /></g><g
           transform="translate(67.8721,169.2017)"
           id="g244"><path
             id="path246"
             style="fill:#ffffff;fill-opacity:1;fill-rule:nonzero;stroke:none"
             d="M 0,0 C 0.444,0.233 1.583,0.817 2.04,0.997 2.501,1.177 2.47,1.237 2.47,0.754 2.47,0.269 2.501,-0.528 2.395,-1.014 2.285,-1.499 2.347,-2.117 2.073,-2.888 1.884,-3.419 1.936,-3.962 1.92,-4.096 1.903,-4.231 1.809,-4.382 1.763,-4.791 1.718,-5.199 1.583,-5.533 1.538,-6.062 1.487,-6.588 1.398,-6.696 1.365,-6.982 c -0.029,-0.288 0,-0.468 -0.291,-0.391 -0.293,0.074 -1.29,0.497 -1.475,0.648 -0.18,0.152 -0.226,0.209 -0.12,0.392 0.105,0.183 0.045,0.348 0.06,0.531 0.019,0.178 0.105,0.149 -0.14,0.331 -0.242,0.181 -0.367,0.378 -0.41,0.469 -0.051,0.091 -0.015,0.103 0.105,0.303 0.123,0.197 0.123,0.346 0.123,0.557 0,0.214 -0.123,0.423 -0.325,0.423 -0.197,0 -0.305,0.106 -0.134,0.423 0.168,0.319 1.333,1.422 1.626,1.725 0.291,0.3 0.582,0.694 0.277,0.872 C 0.353,-0.516 0.168,-0.334 0.014,-0.257 -0.135,-0.18 -0.228,-0.122 0,0 m -3.914,-1.934 c 0.325,0.195 0.601,0.209 0.844,0.363 0.247,0.149 0.677,0.36 0.905,0.483 0.231,0.12 0.555,0.074 0.277,-0.183 -0.277,-0.257 -0.784,-0.589 -1.074,-0.757 -0.293,-0.165 -0.442,-0.24 -0.627,-0.254 -0.185,-0.017 -0.171,-0.166 -0.399,-0.109 -0.236,0.063 -0.248,0.26 0.074,0.457 m 0.601,10.607 c -0.091,-0.711 0.106,-0.725 0.106,-1.086 0,-0.365 0.043,-1.362 0.028,-1.59 C -3.191,5.771 -3.332,5.713 -3.299,5.425 -3.27,5.139 -3.344,4.2 -3.376,3.974 -3.404,3.746 -3.438,3.626 -3.469,3.474 -3.498,3.323 -3.455,3.291 -3.714,3.095 -3.974,2.9 -4.711,2.508 -5.021,2.371 -5.329,2.234 -6.124,1.934 -6.338,1.917 -6.552,1.903 -6.677,1.98 -7.027,2.069 -7.383,2.162 -7.611,2.191 -7.952,2.023 -8.289,1.857 -8.366,1.783 -8.274,1.341 c 0.091,-0.435 0.507,-0.663 0.74,-0.812 0.225,-0.154 1.239,-0.637 1.806,-0.637 0.572,0 1.094,0.077 1.031,-0.12 -0.058,-0.197 -0.12,-0.228 -0.154,-0.437 -0.031,-0.212 -0.151,-0.423 -0.276,-0.606 -0.12,-0.18 0.034,-0.286 -0.382,-0.557 -0.416,-0.274 -0.86,-0.409 -1.014,-0.529 -0.154,-0.122 -0.552,-0.168 -0.829,-0.259 -0.274,-0.089 -0.459,-0.166 -0.629,-0.286 -0.168,-0.123 -0.428,-0.274 -0.769,-0.288 -0.336,-0.015 -0.521,0.031 -0.613,-0.423 -0.093,-0.454 -0.105,-0.983 -0.216,-1.48 -0.106,-0.5 -0.303,-1.163 -0.291,-1.708 0.015,-0.546 -0.062,-1.267 0.387,-1.995 0.442,-0.723 0.719,-0.8 0.995,-0.754 0.279,0.046 0.769,0.303 0.845,0.663 0.075,0.365 0.061,0.819 0.046,1.466 -0.014,0.651 -0.062,0.725 -0.077,0.925 -0.017,0.197 0,0.329 -0.216,0.466 -0.211,0.137 -0.274,0.182 -0.319,0.406 -0.046,0.228 -0.157,0.199 -0.125,0.636 0.033,0.438 0.016,0.668 0.461,0.954 0.447,0.284 1.473,0.829 1.735,0.952 0.259,0.117 0.41,0.18 0.504,-0.094 0.091,-0.269 0.079,-0.423 0.156,-0.618 0.075,-0.197 0.2,-0.362 0.308,-0.468 0.105,-0.106 0.137,-0.12 0.399,-0.106 0.259,0.015 0.535,0.032 0.72,0.152 0.183,0.12 0.197,0.028 0.416,0.269 0.211,0.245 0.353,0.379 0.538,0.519 0.18,0.132 0.351,0.18 0.332,-0.063 -0.012,-0.24 0.079,-0.379 -0.135,-0.531 -0.216,-0.151 -0.492,-0.24 -0.769,-0.391 -0.276,-0.152 -0.293,-0.121 -0.442,-0.183 -0.156,-0.06 -0.141,-0.103 -0.185,-0.195 -0.048,-0.091 -0.204,-0.031 -0.204,-0.242 0,-0.214 -0.12,-0.529 0.127,-0.62 0.243,-0.091 0.505,-0.195 0.291,-0.377 -0.214,-0.183 -0.673,-0.666 -0.814,-0.86 -0.137,-0.197 -0.197,-0.229 -0.197,-0.589 0,-0.365 0.091,-0.666 0.302,-0.694 0.217,-0.034 0.539,-0.046 0.74,-0.063 0.197,-0.014 0.351,-0.014 0.322,-0.211 -0.031,-0.195 -0.014,-0.498 0.12,-0.697 0.14,-0.195 -0.045,-0.348 0.402,-0.348 0.442,0 0.845,0.214 1.093,0.682 0.24,0.468 0.471,0.906 0.531,1.192 0.065,0.288 0.065,0.379 0.341,0.394 0.274,0.014 0.447,0.156 0.704,-0.123 0.6,-0.632 1.244,-1.009 1.429,-1.268 0.183,-0.255 0.565,-0.68 0.812,-0.827 0.245,-0.154 0.551,-0.322 0.786,0.027 0.228,0.345 0.32,0.393 0.382,0.876 0.06,0.486 -0.079,1.24 0.031,2.057 0.108,0.815 0.353,2.794 0.55,4.003 0.2,1.208 0.476,3.142 0.721,3.536 C 4.418,1.449 4.483,1.812 4.45,2.086 4.418,2.355 4.084,2.703 3.791,2.869 3.501,3.037 3.287,3.083 2.792,2.823 2.304,2.571 1.948,2.508 1.456,1.874 1.153,1.48 0.692,1.449 0.231,1.163 -0.228,0.875 -2.21,-0.154 -2.547,-0.319 -2.883,-0.483 -3.097,-0.363 -2.917,0 c 0.185,0.36 0.582,0.949 0.738,1.177 0.154,0.226 0.214,0.217 0.675,0.454 0.843,0.438 1.552,1.134 1.828,1.42 C 0.601,3.337 1.182,3.883 1.336,4.169 1.487,4.457 1.564,4.728 1.43,4.908 1.288,5.089 0.983,5.214 0.812,5.303 0.646,5.391 0.601,5.391 0.336,5.228 0.077,5.062 -0.245,4.851 -0.476,4.728 c -0.233,-0.12 -0.415,0.015 -0.322,0.303 0.089,0.286 0.217,0.62 0.305,0.908 0.092,0.286 0.077,0.435 -0.168,0.786 -0.245,0.346 -1.689,1.72 -1.919,2.04 -0.229,0.317 -0.685,0.312 -0.733,-0.092" /></g><g
           transform="translate(87.561,168.911)"
           id="g248"><path
             id="path250"
             style="fill:#ffffff;fill-opacity:1;fill-rule:nonzero;stroke:none"
             d="M 0,0 C 0.084,0.144 0.305,0.423 0.493,0.577 0.675,0.73 0.728,0.766 0.826,0.802 0.923,0.838 1.139,0.644 1.023,0.459 0.913,0.276 0.447,-0.271 0.291,-0.447 0.135,-0.625 -0.022,-0.682 -0.074,-0.425 -0.125,-0.168 -0.079,-0.149 0,0 m -4.644,-1.778 c 0.286,0.19 0.396,0.171 0.673,0.149 0.273,-0.022 0.764,0.216 0.985,0.399 0.216,0.185 0.461,0.142 0.689,0.377 0.228,0.238 0.363,0.517 0.363,0.69 0,0.177 -0.058,0.521 0.086,0.735 0.145,0.216 0.233,0.637 0.591,0.605 0.361,-0.033 0.712,-0.228 0.844,-0.293 0.132,-0.062 0.098,-0.192 0.339,0.012 C 0.171,1.103 0.86,1.598 1.079,1.725 1.295,1.855 1.55,1.929 1.711,1.802 1.879,1.672 2.15,1.588 2.285,1.446 2.415,1.305 2.427,0.949 2.381,0.668 2.338,0.389 2.294,0.248 2.064,-0.096 1.833,-0.442 1.591,-0.841 1.362,-1.208 1.134,-1.571 0.836,-2.059 0.617,-2.201 0.396,-2.34 0.211,-2.393 0.072,-2.417 c -0.146,-0.022 -0.233,0 -0.233,-0.279 0,-0.283 -0.014,-2.871 0,-3.409 0.024,-0.8 -0.089,-0.785 -0.098,-1.143 -0.01,-0.356 -0.01,-0.925 -0.176,-1.199 -0.166,-0.269 -0.12,-0.375 -0.283,-0.539 -0.164,-0.158 -0.277,-0.377 -0.495,-0.365 -0.217,0.012 -0.743,0.279 -0.755,0.798 -0.012,0.517 0.034,1.317 0.012,1.49 -0.024,0.173 -0.141,0.439 -0.125,0.797 0.027,0.356 0.027,1.141 -0.016,1.435 -0.044,0.288 -0.068,0.917 -0.012,1.393 0.055,0.471 0.088,0.86 0.055,1.088 -0.034,0.226 -0.07,0.45 -0.252,0.344 -0.188,-0.108 -0.625,-0.646 -0.815,-0.767 -0.183,-0.117 -0.613,-0.16 -0.894,-0.074 -0.288,0.087 -0.559,0.476 -0.658,0.723 -0.079,0.192 -0.142,0.224 0.029,0.346 m 1.268,4.5 c 0.219,0.176 0.411,0.257 0.639,0.324 0.226,0.068 0.813,0.169 1.264,0.495 0.45,0.322 2.006,1.399 2.391,1.653 C 1.295,5.449 1.85,5.399 2.076,5.057 2.302,4.719 2.422,4.409 2.006,4.017 1.591,3.626 0.848,3.2 0.502,2.84 0.154,2.484 -0.814,1.684 -1.386,1.545 -1.956,1.41 -2.198,1.427 -2.65,1.631 -3.099,1.836 -3.724,2.448 -3.376,2.722 m -3.791,-4.651 c 0.183,0.19 0.291,0.235 0.447,0.358 0.156,0.118 0.245,0.252 0.296,0.423 0.05,0.17 0.206,0.086 0.31,0.12 0.103,0.036 0.141,0.139 0.261,0.069 0.121,-0.069 0.209,-0.069 0.366,-0.12 0.151,-0.05 0.31,-0.084 0.29,-0.374 -0.014,-0.289 0,-0.445 -0.139,-0.565 -0.137,-0.118 -0.084,0 -0.103,-0.305 -0.015,-0.305 0.036,-0.697 0.036,-0.887 0,-0.187 -0.017,-0.288 -0.209,-0.509 -0.19,-0.224 -0.325,-0.464 -0.399,-0.651 -0.067,-0.185 -0.156,-0.204 -0.344,-0.101 -0.19,0.101 -0.278,0.034 -0.485,0.307 -0.207,0.272 -0.312,0.39 -0.382,0.63 -0.07,0.238 -0.014,0.324 0.122,0.459 0.14,0.139 0.14,0.19 0.209,0.341 0.07,0.154 0.041,0.24 -0.096,0.358 -0.146,0.127 -0.324,0.3 -0.18,0.447 m -2.46,-0.394 c 0,-0.462 -0.053,-1.382 -0.053,-1.773 0,-0.392 -0.014,-0.68 -0.103,-1.144 -0.087,-0.459 -0.003,-1.031 0.694,-1.312 0.466,-0.187 1.312,0.325 1.485,1.077 0.175,0.749 0.091,1.191 -0.173,1.686 -0.26,0.493 -0.557,1.139 -0.863,1.519 -0.331,0.408 -0.485,0.519 -0.691,0.459 -0.125,-0.034 -0.296,-0.171 -0.296,-0.512 m 3.755,5.334 C -6.098,2.893 -6.355,2.655 -6.525,2.314 -6.703,1.975 -6.891,1.631 -7.116,1.341 -7.342,1.05 -7.532,0.829 -7.808,0.644 -8.089,0.454 -8.137,0.49 -8.344,0.367 -8.553,0.25 -8.589,-0.072 -8.382,-0.125 c 0.209,-0.05 0.485,0 0.643,-0.017 0.154,-0.017 0.344,0.101 0.414,-0.05 0.069,-0.154 0.12,-0.649 0.485,-0.666 0.365,-0.014 0.608,0 0.711,0.135 0.101,0.139 0.38,0.377 0.517,0.495 0.139,0.12 0.158,0.343 0.055,0.478 -0.106,0.139 -0.075,0.308 0.05,0.509 0.12,0.207 0.243,0.43 0.346,0.635 0.104,0.204 0.241,0.478 0.224,0.85 -0.012,0.334 -0.104,0.327 -0.26,0.512 -0.153,0.19 -0.447,0.374 -0.675,0.255 M -6.554,8.863 C -6.129,8.765 -5.973,8.661 -5.843,8.534 -5.72,8.411 -5.55,8.411 -5.192,8.226 -4.836,8.039 -4.541,7.979 -4.353,7.645 -4.161,7.313 -4.06,7.126 -4.329,6.694 -4.606,6.256 -4.896,5.865 -5.403,5.348 -5.91,4.831 -7.506,3.109 -7.991,2.573 -8.476,2.035 -9.673,0.605 -9.987,0.274 c -0.32,-0.329 -0.527,-0.558 -0.865,-0.413 -0.337,0.146 -0.635,0.278 -0.337,0.641 0.356,0.435 1.853,1.737 2.545,2.96 0.696,1.22 1.494,2.816 1.708,3.294 0.209,0.476 0.399,0.538 0.146,0.932 -0.254,0.394 -0.576,0.812 -0.295,1.055 0.13,0.113 0.259,0.18 0.531,0.12" /></g><g
           transform="translate(102.4808,168.7861)"
           id="g252"><path
             id="path254"
             style="fill:#ffffff;fill-opacity:1;fill-rule:nonzero;stroke:none"
             d="m 0,0 c -0.01,-0.348 -0.185,-0.44 -0.171,-0.622 0.01,-0.159 0.056,-0.361 -0.014,-0.425 -0.062,-0.07 -0.077,-0.106 -0.091,-0.241 -0.01,-0.134 -0.056,-0.182 -0.08,-0.329 -0.021,-0.146 -0.031,-0.757 -0.045,-1.105 -0.01,-0.353 -0.185,-0.714 -0.252,-1.132 -0.068,-0.391 -0.044,-0.668 -0.068,-1.211 -0.021,-0.485 0.125,-0.543 0.38,-0.821 0.25,-0.286 0.62,-0.589 0.781,-0.647 0.161,-0.057 0.331,-0.069 0.456,-0.057 0.125,0.012 0.137,-0.113 0.483,-0.101 0.344,0.009 3.191,0.046 3.698,0.034 0.504,-0.01 0.997,0.045 1.251,0.237 0.253,0.193 0.538,0.452 0.608,0.678 0.07,0.226 0.14,0.488 0.034,0.702 C 6.804,-4.69 6.706,-4.454 6.559,-4.229 6.41,-4 6.364,-3.878 6.35,-3.695 c -0.014,0.18 -0.091,0.406 -0.221,0.577 -0.125,0.168 -0.125,0.372 -0.125,0.506 0,0.137 -0.171,0.579 -0.308,0.68 -0.139,0.101 -0.389,0.226 -0.389,-0.137 0,-0.36 0.043,-0.643 0.034,-0.814 -0.01,-0.168 0.022,-0.235 0.067,-0.303 0.048,-0.069 0.07,-0.161 0.07,-0.317 0,-0.158 0,-0.848 0.024,-1.074 C 5.526,-4.803 5.478,-4.985 5.235,-5.053 5,-5.12 4.892,-5.153 4.815,-5.211 4.731,-5.266 4.584,-5.235 4.49,-5.235 c -0.091,0 -0.127,-0.101 -0.194,-0.12 -0.067,-0.024 -0.529,0.007 -0.644,0.007 -0.219,0 -0.135,-0.111 -0.32,-0.111 -0.151,0 -1.069,0.022 -1.232,0 -0.156,-0.021 -0.272,0.123 -0.442,0.123 -0.176,0 -0.325,-0.043 -0.462,0.07 -0.139,0.113 -0.333,0.101 -0.333,0.386 0,0.282 0.009,0.935 0.033,1.161 0.022,0.228 0.07,0.408 0.161,0.521 0.094,0.113 0.094,0.226 0.084,0.327 -0.014,0.101 0.091,0.058 0.091,0.226 0,0.17 0.02,0.384 0.02,0.576 0,0.193 -0.125,0.452 -0.14,0.555 C 1.103,-1.413 1.021,-1.309 0.956,-1.208 0.887,-1.105 0.872,-0.995 0.887,-0.867 0.896,-0.745 0.786,-0.473 0.68,-0.305 0.577,-0.134 0.67,-0.11 0.517,0.012 0.37,0.139 0.014,0.416 0,0 m 1.965,3.573 c 0.255,0.175 0.976,0.552 1.187,0.643 0.209,0.097 0.341,0.063 0.555,0 C 4.015,4.12 4.296,3.762 4.435,3.609 4.565,3.455 4.598,3.102 4.536,2.886 4.481,2.669 4.26,2.343 4.099,2.105 3.827,1.699 3.383,1.437 3.241,1.211 3.092,0.985 2.921,0.699 2.816,0.562 2.715,0.428 2.732,0.399 2.727,0.207 2.72,0.017 2.705,-0.214 2.746,-0.344 2.789,-0.471 2.921,-0.603 2.89,-0.8 2.866,-0.999 2.681,-1.374 2.436,-1.427 2.184,-1.485 1.924,-1.408 1.773,-1.285 1.619,-1.16 1.408,-0.937 1.403,-0.567 1.393,-0.202 1.439,0.238 1.454,0.44 1.468,0.646 1.482,0.762 1.612,0.954 1.744,1.141 2.374,1.831 2.511,2.227 2.576,2.412 2.631,2.624 2.429,2.739 2.23,2.854 2.133,2.991 1.893,3.032 1.663,3.073 1.538,3.275 1.965,3.573 m -4.918,-5.776 c 0.101,0.115 0.207,0.094 0.248,0.026 0.065,-0.105 0.055,-0.163 -0.036,-0.238 -0.092,-0.081 -0.207,-0.161 -0.281,-0.074 -0.07,0.091 -0.075,0.127 0.069,0.286 m 0.462,2.669 c 0.04,0.111 0.29,0.091 0.235,-0.091 -0.055,-0.185 -0.106,-0.192 -0.171,-0.301 -0.1,-0.175 -0.194,-0.117 -0.213,0.017 -0.012,0.104 0.043,0.149 0.093,0.214 0.041,0.06 0.032,0.096 0.056,0.161 m -1.238,2.316 c 0,0.152 0.106,0.392 0.231,0.329 0.12,-0.065 0.322,-0.177 0.516,-0.276 0.195,-0.098 0.27,-0.173 0.387,-0.202 0.125,-0.026 0.248,-0.079 0.238,-0.29 -0.009,-0.21 0.01,-0.354 -0.089,-0.392 -0.091,-0.036 -0.06,-0.108 -0.031,-0.2 0.026,-0.093 0.072,-0.182 0.243,-0.153 0.18,0.026 0.228,0.101 0.398,0.101 0.181,0 0.236,0.014 0.346,-0.101 C -1.379,1.475 -1.204,1.406 -1.223,1.242 -1.24,1.076 -1.288,0.985 -1.444,0.757 -1.6,0.531 -1.73,0.274 -1.855,0.091 c -0.115,-0.182 -0.134,-0.17 -0.226,-0.336 -0.093,-0.164 -0.1,-0.147 -0.093,-0.327 0.009,-0.182 -0.036,-0.375 0.228,-0.504 0.271,-0.125 0.346,-0.118 0.327,-0.416 -0.019,-0.303 -0.01,-0.478 0,-0.685 0.009,-0.209 -0.036,-0.353 -0.156,-0.495 -0.205,-0.223 -0.901,-0.8 -1.103,-1.035 -0.204,-0.238 -0.289,-0.245 -0.289,-0.428 0,-0.185 -0.009,-0.329 -0.064,-0.375 -0.056,-0.045 -0.063,-0.074 -0.056,-0.29 0.01,-0.221 0.029,-1.177 0.02,-1.533 -0.01,-0.356 -0.075,-0.457 -0.13,-0.5 -0.055,-0.045 -0.055,-0.117 -0.036,-0.226 0.014,-0.11 -0.01,-0.25 -0.055,-0.338 -0.046,-0.094 -0.046,-0.277 -0.034,-0.502 0.024,-0.229 -0.012,-0.51 -0.022,-0.676 -0.009,-0.161 -0.17,-0.483 -0.286,-0.581 -0.12,-0.103 -0.259,-0.111 -0.43,-0.111 -0.165,0 -0.305,0.118 -0.432,0.236 -0.13,0.122 -0.149,0.274 -0.149,0.42 0,0.147 -0.01,0.346 -0.084,0.438 -0.072,0.091 -0.067,0.237 -0.072,0.319 -0.01,0.082 -0.019,0.171 -0.111,0.274 -0.094,0.098 -0.103,0.163 -0.12,0.363 -0.019,0.202 0.142,0.528 0.286,0.658 0.139,0.127 0.146,0.226 0.146,0.327 0,0.173 0.159,0.156 0.149,0.336 -0.009,0.183 0.075,0.32 0.092,0.502 0.019,0.181 0.038,0.32 0.019,0.421 -0.019,0.098 -0.065,0.173 -0.166,0.117 -0.101,-0.055 -0.139,-0.228 -0.269,-0.257 -0.132,-0.026 -0.327,-0.062 -0.442,-0.18 -0.12,-0.118 -0.632,-0.411 -0.831,-0.564 -0.202,-0.157 -0.762,-0.466 -0.918,-0.575 -0.156,-0.11 -0.315,-0.209 -0.526,-0.064 -0.212,0.146 -0.365,0.139 -0.425,0.42 -0.056,0.231 -0.171,0.245 -0.056,0.444 0.056,0.104 0.092,0.104 0.092,0.267 0,0.161 -0.058,0.317 0.084,0.435 0.134,0.118 0.867,0.75 1.023,0.923 0.159,0.173 0.305,0.228 0.394,0.319 0.082,0.089 0.166,0.144 0.286,0.118 0.115,-0.029 0.226,-0.101 0.125,-0.238 -0.096,-0.137 -0.079,-0.32 0.065,-0.336 0.146,-0.02 0.382,-0.01 0.577,0.045 0.194,0.053 0.785,0.219 1.033,0.555 0.12,0.164 0.036,0.339 -0.13,0.265 -0.166,-0.075 -0.483,-0.118 -0.637,-0.084 -0.156,0.04 -0.336,0.249 -0.175,0.393 0.154,0.147 0.951,0.594 1.107,0.692 0.161,0.101 0.224,0.255 0.094,0.358 -0.13,0.099 -0.379,0.301 -0.471,0.474 -0.094,0.17 -0.11,0.209 0.019,0.317 0.128,0.11 0.519,0.329 0.632,0.42 0.111,0.089 0.128,0.19 0.202,0.291 0.135,0.19 0.065,0.356 -0.091,0.293 -0.161,-0.067 -0.281,-0.166 -0.447,-0.293 -0.168,-0.127 -0.639,-0.536 -0.8,-0.701 -0.151,-0.164 -0.615,-0.618 -0.887,-0.757 -0.262,-0.137 -0.42,-0.193 -0.562,-0.291 -0.139,-0.101 -0.214,-0.055 -0.387,0.062 -0.175,0.121 -0.264,0.248 -0.348,0.346 -0.086,0.099 -0.031,0.183 -0.031,0.313 0,0.127 0.115,0.19 0.12,0.336 0.014,0.147 -0.046,0.291 0.106,0.401 0.144,0.108 0.326,0.281 0.449,0.356 0.118,0.07 0.243,0.101 0.382,0.053 0.134,-0.044 0.365,-0.099 0.485,-0.044 0.125,0.053 0.183,0.092 0.377,0.099 0.116,0.007 0.164,0.053 0.337,0.166 0.175,0.108 0.48,0.319 0.656,0.454 0.175,0.137 0.336,0.156 0.42,0.166 0.084,0.007 0.195,0.098 0.264,0.173 0.077,0.069 0.236,0.177 0.152,0.317 -0.084,0.137 -0.161,0.137 -0.315,0.137 -0.156,0 -0.392,0.091 -0.493,0.166 -0.103,0.072 -0.175,0.254 -0.055,0.353 0.118,0.098 0.476,0.319 0.608,0.42 0.144,0.101 0.255,0.236 0.255,0.346 0,0.108 -0.075,0.173 -0.075,0.329 M 1.788,8.296 C 2.028,8.467 2.419,8.604 2.761,8.697 3.102,8.786 3.313,8.868 3.563,8.76 3.813,8.652 4.241,8.467 4.255,8.104 4.279,7.739 4.289,7.602 4.104,7.292 3.914,6.982 3.674,6.734 3.378,6.619 3.08,6.496 2.907,6.537 2.741,6.492 2.576,6.444 2.465,6.472 2.256,6.336 2.054,6.199 1.473,6.215 1.297,6.189 1.117,6.163 0.973,6.345 1.132,6.492 1.288,6.636 1.564,6.662 1.749,6.999 1.838,7.162 2.09,7.253 1.85,7.381 1.723,7.453 1.658,7.53 1.629,7.664 1.603,7.803 1.434,7.885 1.482,7.996 1.528,8.104 1.547,8.121 1.788,8.296 M -3.834,5.759 c 0.124,0.171 0.144,0.221 0.355,0.384 0.207,0.161 0.596,0.342 0.843,0.325 0.255,-0.02 0.245,-0.027 0.411,-0.12 0.168,-0.094 0.329,-0.171 0.452,-0.094 0.12,0.077 0.269,0.103 0.399,0.058 0.13,-0.041 0.187,-0.017 0.295,0.045 0.101,0.06 0.156,0.06 0.303,-0.079 C -0.627,6.143 -0.543,6.05 -0.692,5.896 -0.834,5.744 -0.923,5.723 -0.891,5.495 -0.858,5.264 -0.807,5.074 -0.951,4.92 -1.057,4.81 -1.079,4.615 -1.264,4.435 c -0.18,-0.178 -0.23,-0.19 -0.447,-0.197 -0.223,-0.009 -0.485,0 -0.73,0.13 -0.245,0.127 -0.877,0.692 -1.038,0.725 -0.166,0.032 -0.444,0.145 -0.49,0.344 -0.046,0.195 0,0.151 0.135,0.322 M -5.999,6.345 C -6.319,6.059 -6.496,5.848 -6.725,5.612 -6.941,5.379 -7.316,4.863 -7.347,4.596 -7.378,4.327 -7.402,4.212 -7.481,4.08 -7.568,3.943 -7.518,3.863 -7.518,3.664 c 0,-0.202 0.037,-0.267 0.085,-0.351 0.055,-0.084 0.045,-0.106 0.045,-0.226 0,-0.122 0.106,-0.197 0.207,-0.298 0.106,-0.103 0.24,-0.334 0.435,-0.334 0.189,0 0.377,0.027 0.492,0.015 0.113,-0.007 0.185,0.103 0.291,0.187 0.106,0.089 0.305,0.24 0.38,0.377 0.194,0.344 0.16,0.642 0.211,0.776 0.053,0.137 0.199,0.334 0.315,0.479 0.11,0.146 0.17,0.444 0.004,0.47 -0.163,0.027 -0.36,-0.033 -0.355,0.231 0.007,0.267 0.019,0.536 0.079,0.666 0.065,0.129 0.192,0.31 0.137,0.435 -0.05,0.129 -0.086,0.343 -0.276,0.367 -0.19,0.027 -0.32,0.077 -0.531,-0.113" /></g><g
           transform="translate(118.6427,176.4454)"
           id="g256"><path
             id="path258"
             style="fill:#ffffff;fill-opacity:1;fill-rule:nonzero;stroke:none"
             d="m 0,0 c 0.014,-0.437 -0.031,-0.452 0.029,-0.589 0.055,-0.129 0.12,-0.273 0.086,-0.898 -0.016,-0.44 0,-0.42 0.044,-0.514 C 0.199,-2.1 0.269,-2.117 0.26,-2.354 0.25,-2.698 0.236,-5.391 0.216,-5.622 0.199,-5.85 0.115,-5.98 0.12,-6.117 0.144,-6.619 0.01,-6.54 0.01,-6.729 c 0,-0.188 0.019,-0.503 0.009,-0.613 -0.009,-0.113 -0.13,-0.147 -0.12,-0.358 0.01,-0.214 0.06,-0.437 0.015,-0.589 -0.044,-0.156 -0.125,-0.178 -0.135,-0.35 -0.01,-0.169 -0.074,-0.673 -0.476,-0.93 -0.202,-0.125 -0.766,-0.229 -1.004,-0.265 -0.245,-0.031 -0.661,-0.201 -0.875,-0.201 -0.216,0 -0.377,-0.01 -0.567,-0.106 -0.189,-0.092 -0.446,-0.245 -0.665,-0.228 -0.216,0.017 -0.632,0 -0.822,0.12 -0.192,0.118 -0.336,0.161 -0.432,0.093 -0.195,-0.139 -0.406,-0.257 -0.291,-0.579 0.111,-0.324 0.281,-0.394 0.291,-0.574 0.009,-0.178 0.079,-0.329 0.209,-0.499 0.127,-0.173 -0.034,-0.282 0.127,-0.385 0.265,-0.161 0.226,-0.478 0.651,-0.408 0.426,0.067 0.546,0.228 0.868,0.348 0.319,0.118 2.087,0.988 2.248,1.014 0.166,0.026 0.306,0.07 0.296,-0.18 -0.01,-0.245 0.036,-0.305 0.017,-0.423 -0.017,-0.12 -0.06,-0.173 -0.142,-0.274 -0.079,-0.103 -0.034,-0.151 -0.079,-0.368 -0.036,-0.213 -0.351,-1.09 -1.024,-1.763 -0.675,-0.673 -1.412,-0.987 -1.573,-1.048 -0.171,-0.06 -0.69,-0.06 -0.817,-0.036 -0.13,0.029 -0.245,0.21 -0.447,0.147 -0.209,-0.06 -0.37,-0.267 -0.135,-0.478 0.233,-0.212 0.839,-0.536 1.173,-0.546 0.326,-0.007 0.632,-0.153 0.812,-0.084 0.178,0.065 0.387,0.06 0.692,0.238 0.305,0.18 1.408,1.175 1.869,2.259 0.461,1.081 0.603,1.595 0.668,1.729 0.055,0.137 0.045,0.368 0.055,0.615 0.01,0.248 0.075,0.349 0.161,0.462 0.084,0.11 0.014,0.192 0.053,0.331 0.031,0.135 0.127,0.262 0.3,0.39 0.171,0.127 0.322,0.105 0.622,0.276 0.303,0.168 2.357,1.124 2.936,1.345 0.582,0.224 0.935,0.337 1.163,0.623 0.12,0.151 0.231,0.475 0,0.682 -0.235,0.204 -0.254,0.231 -0.401,0.231 -0.144,0 -0.144,0.17 -0.32,0.141 C 4.745,-6.996 4.685,-7.018 4.529,-6.876 4.375,-6.729 4.118,-6.662 3.969,-6.859 3.822,-7.056 3.734,-7.251 3.517,-7.455 3.301,-7.659 2.857,-7.873 2.58,-7.984 2.309,-8.094 1.864,-8.258 1.583,-8.375 c -0.271,-0.118 -0.42,-0.152 -0.43,0.101 -0.007,0.259 0.019,0.418 0.089,0.598 0.07,0.18 0.111,0.538 0.171,0.749 0.06,0.214 0.245,0.358 0.235,0.616 -0.009,0.254 0.031,0.432 0.101,0.663 0.108,0.341 0.216,0.519 0.226,0.699 0.009,0.18 0.014,0.408 0.07,0.528 0.055,0.118 0.129,0.18 0.175,0.495 0.041,0.313 0.101,0.673 0.101,1.065 0,0.394 -0.036,0.605 -0.161,0.785 -0.127,0.18 -0.137,0.452 -0.281,0.596 -0.135,0.144 -0.2,0.257 -0.221,0.401 -0.027,0.144 -0.2,0.272 -0.416,0.519 C 1.026,-0.312 0.67,0.048 0.481,0.207 0.286,0.37 -0.005,0.252 0,0" /></g><g
           transform="translate(121.0621,164.0772)"
           id="g260"><path
             id="path262"
             style="fill:#ffffff;fill-opacity:1;fill-rule:nonzero;stroke:none"
             d="m 0,0 c 0.315,-0.274 0.918,-0.694 1.413,-1.031 0.487,-0.336 1.259,-0.74 1.569,-0.74 0.307,0 0.54,0 0.771,-0.098 0.228,-0.096 0.487,-0.176 0.732,-0.176 0.25,0 0.673,-0.036 0.983,0 0.315,0.029 0.546,-0.016 0.195,-0.406 C 5.324,-2.835 5.093,-2.919 4.851,-3.143 4.601,-3.371 4.555,-3.32 4.421,-3.383 4.286,-3.452 4.24,-3.481 4.094,-3.707 3.945,-3.931 3.635,-4.272 3.227,-4.317 2.813,-4.37 2.405,-4.272 2.145,-4.046 1.884,-3.82 1.804,-3.95 1.574,-3.563 1.343,-3.176 1.244,-2.869 1.098,-2.547 0.951,-2.222 0.822,-1.982 0.591,-1.691 0.36,-1.401 0.137,-1.069 0,-0.87 c -0.084,0.125 -0.166,0.123 -0.245,0.264 -0.075,0.135 -0.029,0.217 -0.036,0.303 -0.01,0.087 -0.159,0.161 -0.108,0.286 C -0.341,0.108 -0.31,0.274 0,0" /></g><g
           transform="translate(133.0388,161.677)"
           id="g264"><path
             id="path266"
             style="fill:#ffffff;fill-opacity:1;fill-rule:nonzero;stroke:none"
             d="m 0,0 c 0.368,0.24 0.754,0.442 1.079,0.584 0.329,0.137 1.614,0.519 1.943,0.601 0.322,0.081 0.733,0.136 0.817,0 C 3.974,0.973 3.796,1.002 3.796,0.764 3.794,0.399 3.81,0.103 3.81,-0.007 3.806,-0.115 3.909,-0.24 3.904,-0.447 3.899,-0.649 3.909,-1.204 3.89,-1.401 3.875,-1.6 3.899,-1.696 3.839,-1.795 3.784,-1.891 3.794,-1.941 3.794,-2.061 3.794,-2.179 3.815,-2.299 3.659,-2.357 3.505,-2.412 3.57,-2.46 3.268,-2.316 2.967,-2.172 2.09,-1.788 1.821,-1.617 1.554,-1.446 1.228,-1.201 0.884,-1.028 0.548,-0.86 0.132,-0.586 -0.074,-0.502 -0.284,-0.416 -0.365,-0.24 0,0 M -0.541,5.396 C -0.334,5.687 0.581,6.915 1.17,7.373 1.756,7.832 2.386,8.133 2.736,8.315 3.097,8.493 3.594,8.604 3.719,8.688 3.839,8.772 4.075,8.736 4.216,8.762 4.365,8.784 4.512,8.88 4.707,8.892 4.906,8.906 5.141,8.832 4.892,8.652 4.647,8.471 3.215,7.433 2.861,7.217 2.506,7.001 0.829,5.831 0.447,5.591 0.067,5.348 -0.135,5.271 -0.324,5.154 -0.615,4.976 -0.754,5.108 -0.541,5.396 m 7.508,8.159 c 0.214,0.207 0.32,0.31 0.692,0.562 0.38,0.245 0.8,0.483 1.002,0.577 0.209,0.086 0.336,0.108 0.421,0.159 0.077,0.048 0.36,0.031 0.331,-0.21 C 9.387,14.403 9.283,14.192 9.262,14.067 9.243,13.935 8.887,13.296 8.625,12.887 8.356,12.479 7.885,11.628 7.753,11.263 7.623,10.891 7.458,10.723 7.421,10.521 7.373,10.324 7.337,10.331 7.193,10.194 7.056,10.052 6.967,9.932 6.718,9.923 6.465,9.915 6.492,9.903 6.372,9.915 6.254,9.923 6.244,10.014 6.381,10.17 c 0.144,0.161 0.236,0.312 0.236,0.432 0,0.121 0.11,0.219 0.204,0.327 0.091,0.113 0.101,0.192 0.11,0.281 0.01,0.092 0.111,0.14 0.185,0.25 0.07,0.111 0.07,0.178 0.092,0.341 0.019,0.159 0.129,0.116 0.11,0.358 -0.021,0.238 0.055,0.466 -0.082,0.639 -0.144,0.168 -0.144,0.317 -0.283,0.428 -0.142,0.111 -0.072,0.24 0.014,0.329 M 4.913,11.33 c 0.135,0.2 0.51,0.279 0.51,-0.091 0,-0.367 -0.015,-0.557 -0.154,-0.687 -0.142,-0.13 -0.18,-0.12 -0.231,-0.269 -0.05,-0.151 -0.202,-0.18 -0.286,-0.031 -0.079,0.149 0,0.36 -0.06,0.509 -0.065,0.149 0.094,0.37 0.221,0.569 M 3.058,11.042 C 2.847,10.891 2.047,10.292 1.812,10.04 1.583,9.795 1.204,9.18 0.983,8.856 0.627,8.337 0.769,8.164 1.06,8.327 c 0.213,0.12 0.158,0.168 0.278,0.192 0.12,0.017 0.363,0.157 0.558,0.327 0.194,0.171 0.495,0.238 0.696,0.288 0.205,0.048 0.356,0.14 0.637,0.241 0.286,0.098 0.305,0.05 0.572,0.108 0.264,0.06 0.375,0.122 0.495,0.199 0.12,0.08 0.13,0.113 -0.01,0.269 -0.144,0.161 -0.144,0.243 -0.305,0.243 -0.271,0 -0.456,0.029 -0.586,-0.091 -0.132,-0.118 -0.498,-0.188 -0.437,0.029 0.064,0.218 0.091,0.42 0.211,0.591 0.125,0.168 0.103,0.468 -0.111,0.319 m 0,0 C 2.847,10.891 2.047,10.292 1.812,10.04 1.583,9.795 1.204,9.18 0.983,8.856 0.627,8.337 0.769,8.164 1.06,8.327 c 0.213,0.12 0.158,0.168 0.278,0.192 0.12,0.017 0.363,0.157 0.558,0.327 0.194,0.171 0.495,0.238 0.696,0.288 0.205,0.048 0.356,0.14 0.637,0.241 0.286,0.098 0.305,0.05 0.572,0.108 0.264,0.06 0.375,0.122 0.495,0.199 0.12,0.08 0.13,0.113 -0.01,0.269 -0.144,0.161 -0.144,0.243 -0.305,0.243 -0.271,0 -0.456,0.029 -0.586,-0.091 -0.132,-0.118 -0.498,-0.188 -0.437,0.029 0.064,0.218 0.091,0.42 0.211,0.591 0.125,0.168 0.103,0.468 -0.111,0.319 M 2.391,12.976 C 2.357,12.748 2.405,12.488 2.27,12.368 2.141,12.251 2.17,12.147 2.117,12.029 2.066,11.907 2.052,11.78 2.09,11.6 c 0.027,-0.181 0.111,-0.351 0.267,-0.238 0.166,0.108 0.766,0.497 0.896,0.636 0.135,0.14 0.236,0.409 0.051,0.481 -0.181,0.072 -0.27,0.038 -0.383,0.079 -0.124,0.039 -0.177,0.082 -0.144,0.248 0.051,0.3 -0.355,0.398 -0.386,0.17 m 0,0 C 2.357,12.748 2.405,12.488 2.27,12.368 2.141,12.251 2.17,12.147 2.117,12.029 2.066,11.907 2.052,11.78 2.09,11.6 c 0.027,-0.181 0.111,-0.351 0.267,-0.238 0.166,0.108 0.766,0.497 0.896,0.636 0.135,0.14 0.236,0.409 0.051,0.481 -0.181,0.072 -0.27,0.038 -0.383,0.079 -0.124,0.039 -0.177,0.082 -0.144,0.248 0.051,0.3 -0.355,0.398 -0.386,0.17 m -2.922,2.588 c 0.267,-0.286 0.425,-0.375 0.778,-0.5 0.32,-0.115 1.022,-1.098 1.137,-1.552 C 1.53,12.926 1.408,12.198 1.425,11.664 1.449,11.131 1.53,10.843 1.259,10.617 0.987,10.393 0.987,10.103 0.802,10.554 c -0.189,0.452 -0.165,1.007 -0.586,1.235 -0.42,0.224 -0.627,0.49 -1.062,0.409 -0.442,-0.082 -0.586,-0.123 -0.396,-0.534 0.19,-0.41 0.315,-0.74 0.271,-1.744 C -1.002,9.262 -0.867,8.829 -0.62,8.625 -0.365,8.419 0.007,8.133 0.276,8.133 0.553,8.133 0.613,7.988 0.423,7.803 0.238,7.621 -1.953,5.605 -2.741,4.315 -3.152,3.652 -3.121,3.596 -2.89,3.347 c 0.226,-0.245 0.31,-0.45 0.913,-0.428 0.61,0.019 1.086,0.103 1.357,0.389 0.274,0.288 1.442,1.108 1.879,1.519 0.44,0.411 1.859,1.581 2.837,2.443 0.796,0.699 1.908,1.028 2.23,1.254 0.48,0.327 0.627,0.204 0.817,0.327 C 7.328,8.973 7.602,9.406 7.789,9.529 7.974,9.651 8.555,9.713 8.832,9.752 9.106,9.798 9.538,9.774 9.187,9.303 8.832,8.829 8.395,8.419 8.104,8.217 7.808,8.008 6.309,7.148 6.119,7.023 5.934,6.9 5.764,6.818 5.389,6.84 5.012,6.859 4.892,6.758 4.512,6.573 4.135,6.386 4.034,6.573 3.7,6.247 3.368,5.915 3.219,5.812 3.013,5.523 2.806,5.238 2.823,5.031 3.032,4.868 3.239,4.704 3.284,4.62 3.553,4.743 3.825,4.868 4.034,4.848 4.2,4.928 4.37,5.012 4.661,4.971 4.596,4.767 4.536,4.558 4.43,4.416 4.471,4.147 4.512,3.882 4.678,3.616 4.135,3.409 3.594,3.205 2.948,3.061 2.573,2.938 2.201,2.813 1.175,2.446 0.778,2.239 0.382,2.035 -0.555,1.643 -0.891,1.398 -1.221,1.153 -1.533,1.031 -1.787,0.802 c -0.25,-0.223 -0.397,-0.451 -0.332,-0.8 0.065,-0.35 0.315,-0.576 0.646,-0.595 0.337,-0.02 0.502,-0.27 0.728,-0.37 0.231,-0.104 0.421,-0.142 0.671,-0.265 0.247,-0.125 0.497,-0.269 1.001,-0.68 0.498,-0.411 1.771,-1.395 2.292,-1.746 0.522,-0.349 0.877,-0.596 1.192,-0.575 0.31,0.022 0.44,0 0.747,0.289 0.315,0.286 0.462,0.286 0.421,0.819 -0.041,0.536 -0.209,1.788 -0.209,2.59 0,0.8 0.144,0.716 0.103,1.172 C 5.432,1.091 5.37,1.338 5.432,1.564 5.492,1.788 5.598,1.932 5.889,1.951 6.184,1.972 7.477,2.054 7.849,2.016 8.229,1.972 8.349,1.891 8.685,2.138 9.017,2.383 9.017,2.424 9.06,2.712 9.106,3.001 9.312,2.957 9.036,3.347 8.767,3.738 8.411,3.882 8.229,4.108 8.039,4.334 7.955,4.435 7.578,4.209 7.203,3.986 7.061,3.861 6.682,3.842 6.309,3.82 6.244,3.801 6.076,3.82 5.91,3.842 5.764,3.842 5.889,4.168 c 0.127,0.329 0.295,0.68 0.651,0.986 0.351,0.309 0.497,0.451 0.538,0.679 0.043,0.226 0,0.39 0,0.656 0,0.269 -0.017,0.308 0.331,0.515 0.358,0.204 1.543,1.066 1.939,1.415 0.399,0.348 1.187,1.006 0.985,1.744 -0.125,0.454 -0.415,0.62 -0.836,0.658 -0.415,0.041 -0.836,0.022 -1.042,0.022 -0.291,0 -0.286,0.108 -0.125,0.329 0.161,0.218 0.262,0.276 0.346,0.418 0.079,0.137 0.271,0.548 0.497,0.817 0.221,0.269 0.656,0.968 0.891,1.189 0.231,0.219 0.462,0.589 0.637,0.819 0.175,0.228 0.144,0.519 0.144,0.728 0,0.207 -0.125,0.526 -0.42,0.687 -0.291,0.161 -0.327,0.298 -0.632,0.19 C 9.488,15.912 8.947,15.612 8.625,15.391 8.301,15.172 6.727,14.324 6.16,13.913 5.593,13.505 4.752,13.077 4.558,12.966 c -0.188,-0.11 -0.416,-0.04 -0.281,0.21 0.129,0.249 0.223,0.427 0.519,0.607 0.293,0.181 0.636,0.452 0.879,0.599 0.245,0.151 0.781,0.54 0.882,0.78 0.103,0.241 0.211,0.531 0.038,0.678 -0.171,0.151 -0.521,0.449 -0.74,0.627 C 5.644,16.647 5.483,16.779 5.37,16.799 5.259,16.82 5.168,16.928 5.024,17.008 4.887,17.089 4.803,17.065 4.661,16.868 4.517,16.669 4.541,16.53 4.618,16.39 4.702,16.248 4.642,16.059 4.711,15.922 4.786,15.78 4.771,15.667 4.863,15.621 4.906,15.602 4.863,15.501 4.796,15.369 4.721,15.242 4.771,15.081 4.642,14.901 4.507,14.723 4.286,14.382 4.12,14.216 3.964,14.045 3.911,13.935 3.678,14.074 c -0.235,0.142 -0.569,0.44 -0.985,0.639 -0.413,0.2 -0.973,0.368 -1.184,0.589 -0.214,0.221 -0.466,0.43 -0.822,0.538 -0.351,0.108 -0.841,0.18 -1.052,0.171 -0.214,-0.012 -0.445,-0.159 -0.166,-0.447" /></g><g
           transform="translate(75.8558,196.0573)"
           id="g268"><path
             id="path270"
             style="fill:#ffffff;fill-opacity:1;fill-rule:nonzero;stroke:none"
             d="m 0,0 v -9.069 h -3.188 v 6.234 c -0.997,-0.562 -2.206,-0.999 -3.626,-1.307 v 1.809 c 2.088,0.45 3.496,1.226 4.229,2.333 z" /></g><g
           transform="translate(91.3306,189.3567)"
           id="g272"><path
             id="path274"
             style="fill:#ffffff;fill-opacity:1;fill-rule:nonzero;stroke:none"
             d="m 0,0 3.116,0.274 c 0.207,-0.875 0.836,-1.314 1.879,-1.314 0.567,0 1.014,0.139 1.328,0.415 0.322,0.279 0.488,0.608 0.488,0.988 0,0.382 -0.161,0.706 -0.478,0.975 C 6.018,1.602 5.603,1.732 5.086,1.732 4.709,1.732 4.293,1.684 3.832,1.593 L 4.077,3.186 C 4.178,3.179 4.279,3.171 4.375,3.171 c 0.545,0 0.983,0.104 1.333,0.31 0.346,0.202 0.527,0.466 0.527,0.796 0,0.271 -0.128,0.497 -0.378,0.675 C 5.608,5.127 5.257,5.218 4.824,5.218 3.868,5.218 3.303,4.819 3.152,4.022 L 0.199,4.368 C 0.682,5.922 2.263,6.701 4.93,6.701 6.393,6.701 7.496,6.47 8.243,6.013 8.995,5.557 9.37,5.024 9.37,4.416 9.37,3.616 8.733,2.986 7.455,2.523 8.313,2.386 8.959,2.129 9.387,1.751 9.817,1.377 10.028,0.925 10.028,0.392 10.028,-0.413 9.591,-1.1 8.709,-1.672 7.827,-2.237 6.624,-2.523 5.086,-2.523 3.719,-2.523 2.58,-2.309 1.675,-1.884 0.781,-1.458 0.219,-0.829 0,0" /></g><g
           transform="translate(102.882,189.3567)"
           id="g276"><path
             id="path278"
             style="fill:#ffffff;fill-opacity:1;fill-rule:nonzero;stroke:none"
             d="M 0,0 3.121,0.274 C 3.328,-0.601 3.952,-1.04 5,-1.04 c 0.567,0 1.009,0.139 1.328,0.415 0.322,0.279 0.483,0.608 0.483,0.988 0,0.382 -0.156,0.706 -0.473,0.975 C 6.018,1.602 5.603,1.732 5.091,1.732 4.714,1.732 4.293,1.684 3.837,1.593 L 4.075,3.186 C 4.178,3.179 4.279,3.171 4.377,3.171 c 0.543,0 0.99,0.104 1.336,0.31 0.351,0.202 0.526,0.466 0.526,0.796 0,0.271 -0.127,0.497 -0.377,0.675 C 5.612,5.127 5.266,5.218 4.824,5.218 3.863,5.218 3.311,4.819 3.157,4.022 L 0.204,4.368 C 0.687,5.922 2.263,6.701 4.935,6.701 6.398,6.701 7.501,6.47 8.248,6.013 9,5.557 9.375,5.024 9.375,4.416 9.375,3.616 8.738,2.986 7.46,2.523 8.322,2.386 8.964,2.129 9.394,1.751 9.822,1.377 10.033,0.925 10.033,0.392 10.033,-0.413 9.596,-1.1 8.714,-1.672 7.832,-2.237 6.624,-2.523 5.091,-2.523 3.722,-2.523 2.58,-2.309 1.682,-1.884 0.781,-1.458 0.219,-0.829 0,0" /></g><g
           transform="translate(63.9584,167.2678)"
           id="g280"><path
             id="path282"
             style="fill:#003f73;fill-opacity:1;fill-rule:nonzero;stroke:none"
             d="M 0,0 C 0.324,0.194 0.601,0.209 0.843,0.363 1.091,0.512 1.521,0.723 1.749,0.846 1.98,0.966 2.304,0.92 2.025,0.663 1.749,0.406 1.242,0.074 0.951,-0.094 0.658,-0.26 0.509,-0.334 0.324,-0.348 0.139,-0.365 0.154,-0.514 -0.074,-0.457 -0.31,-0.394 -0.322,-0.197 0,0" /></g><g
           transform="translate(132.4982,167.0731)"
           id="g284"><path
             id="path286"
             style="fill:#003f73;fill-opacity:1;fill-rule:nonzero;stroke:none"
             d="m 0,0 c 0.207,0.291 1.122,1.518 1.711,1.977 0.586,0.459 1.215,0.76 1.566,0.942 0.36,0.178 0.858,0.288 0.983,0.372 0.12,0.085 0.355,0.049 0.497,0.075 0.149,0.022 0.296,0.118 0.49,0.13 0.2,0.014 0.435,-0.06 0.185,-0.24 C 5.187,3.075 3.755,2.037 3.402,1.821 3.046,1.605 1.369,0.435 0.987,0.195 0.608,-0.048 0.406,-0.125 0.216,-0.243 -0.074,-0.42 -0.214,-0.288 0,0" /></g><g
           transform="translate(136.0972,172.7191)"
           id="g288"><path
             id="path290"
             style="fill:#003f73;fill-opacity:1;fill-rule:nonzero;stroke:none"
             d="m 0,0 c -0.211,-0.151 -1.011,-0.75 -1.247,-1.002 -0.228,-0.245 -0.608,-0.86 -0.829,-1.184 -0.355,-0.519 -0.214,-0.692 0.077,-0.529 0.214,0.12 0.159,0.168 0.279,0.192 0.12,0.017 0.363,0.156 0.557,0.327 0.195,0.171 0.495,0.238 0.697,0.288 0.204,0.048 0.355,0.14 0.637,0.241 0.285,0.098 0.305,0.05 0.571,0.108 0.265,0.06 0.375,0.122 0.495,0.199 0.12,0.079 0.13,0.113 -0.009,0.269 -0.144,0.161 -0.144,0.243 -0.305,0.243 -0.272,0 -0.457,0.029 -0.587,-0.091 -0.132,-0.118 -0.497,-0.188 -0.437,0.029 0.065,0.218 0.091,0.42 0.212,0.59 C 0.235,-0.151 0.214,0.149 0,0" /></g><g
           transform="translate(87.561,168.911)"
           id="g292"><path
             id="path294"
             style="fill:#003f73;fill-opacity:1;fill-rule:nonzero;stroke:none"
             d="M 0,0 C 0.084,0.144 0.305,0.423 0.493,0.577 0.675,0.73 0.728,0.766 0.826,0.802 0.923,0.838 1.139,0.644 1.023,0.459 0.913,0.276 0.447,-0.271 0.291,-0.447 0.135,-0.625 -0.022,-0.682 -0.074,-0.425 -0.125,-0.168 -0.079,-0.149 0,0" /></g><g
           transform="translate(144.7055,95.3522)"
           id="g296"><path
             id="path298"
             style="fill:#003f73;fill-opacity:1;fill-rule:nonzero;stroke:none"
             d="M 0,0 C 0,0.591 0.478,1.076 1.074,1.076 1.665,1.076 2.15,0.591 2.15,0 2.15,-0.596 1.665,-1.074 1.074,-1.074 0.478,-1.074 0,-0.596 0,0" /></g><g
           transform="translate(36.7375,94.6699)"
           id="g300"><path
             id="path302"
             style="fill:#003f73;fill-opacity:1;fill-rule:nonzero;stroke:none"
             d="M 0,0 C 0,0.591 0.483,1.069 1.076,1.069 1.67,1.069 2.153,0.591 2.153,0 2.153,-0.601 1.67,-1.076 1.076,-1.076 0.483,-1.076 0,-0.601 0,0" /></g><g
           transform="translate(79.9762,189.0324)"
           id="g304"><path
             id="path306"
             style="fill:#ffffff;fill-opacity:1;fill-rule:nonzero;stroke:none"
             d="m 0,0 3.099,0.252 c 0.18,-0.653 0.659,-0.98 1.449,-0.98 0.577,0 1.028,0.183 1.357,0.55 0.332,0.37 0.543,1.012 0.632,1.937 L 6.504,1.783 C 5.817,1.237 4.925,0.961 3.832,0.961 2.664,0.961 1.691,1.247 0.906,1.814 0.13,2.383 -0.257,3.092 -0.257,3.938 c 0,0.898 0.437,1.638 1.314,2.217 0.872,0.582 2.037,0.87 3.491,0.87 1.715,0 3.01,-0.401 3.89,-1.201 C 9.324,5.029 9.766,3.923 9.766,2.503 9.766,1.038 9.3,-0.118 8.373,-0.956 7.443,-1.792 6.083,-2.208 4.281,-2.208 3.133,-2.208 2.189,-2.021 1.449,-1.641 0.716,-1.261 0.233,-0.714 0,0" /></g><g
           transform="translate(86.3333,192.9078)"
           id="g308"><path
             id="path310"
             style="fill:#003f73;fill-opacity:1;fill-rule:nonzero;stroke:none"
             d="m 0,0 c 0,0.473 -0.18,0.87 -0.545,1.189 -0.351,0.322 -0.8,0.478 -1.339,0.478 -0.497,0 -0.913,-0.144 -1.239,-0.427 -0.313,-0.289 -0.471,-0.678 -0.471,-1.178 0,-0.473 0.163,-0.853 0.492,-1.138 0.337,-0.284 0.774,-0.431 1.312,-0.431 0.517,0 0.937,0.135 1.273,0.404 C -0.173,-0.831 0,-0.464 0,0" /></g></g></g></g></svg>