<?xml version="1.0" encoding="UTF-8"?>
<!DOCTYPE svg PUBLIC "-//W3C//DTD SVG 1.1//EN" "http://www.w3.org/Graphics/SVG/1.1/DTD/svg11.dtd">
<!-- Creator: CorelDRAW 2018 (评估版) -->
<svg xmlns="http://www.w3.org/2000/svg" xml:space="preserve" width="200px" height="200px" version="1.1" style="shape-rendering:geometricPrecision; text-rendering:geometricPrecision; image-rendering:optimizeQuality; fill-rule:evenodd; clip-rule:evenodd"
viewBox="0 0 143.61 143.57"
 xmlns:xlink="http://www.w3.org/1999/xlink">
 <defs>
  <style type="text/css">
   <![CDATA[
    .fil1 {fill:#206046}
    .fil0 {fill:#206046;fill-rule:nonzero}
    .fil2 {fill:url(#id0)}
   ]]>
  </style>
  <linearGradient id="id0" gradientUnits="userSpaceOnUse" x1="95.6" y1="92.37" x2="36.7" y2="17.62">
   <stop offset="0" style="stop-opacity:1; stop-color:#206046"/>
   <stop offset="1" style="stop-opacity:1; stop-color:#ACCE22"/>
  </linearGradient>
 </defs>
 <g id="图层_x0020_1">
  <metadata id="CorelCorpID_0Corel-Layer"/>
  <g id="_548648016">
   <path class="fil0" d="M10.88 81.19l2.31 -0.42 0.03 0.21c-0.56,0.19 -0.99,0.51 -1.28,0.95 -0.3,0.44 -0.41,0.89 -0.33,1.34 0.05,0.35 0.19,0.61 0.41,0.79 0.22,0.17 0.45,0.24 0.69,0.2 0.15,-0.02 0.28,-0.08 0.39,-0.17 0.15,-0.13 0.28,-0.31 0.4,-0.56 0.09,-0.17 0.23,-0.58 0.43,-1.2 0.27,-0.88 0.56,-1.49 0.87,-1.83 0.31,-0.33 0.69,-0.54 1.15,-0.61 0.58,-0.09 1.12,0.05 1.61,0.44 0.49,0.39 0.79,0.93 0.9,1.63 0.03,0.21 0.04,0.43 0.03,0.63 -0.01,0.2 -0.06,0.46 -0.13,0.77 -0.05,0.17 -0.06,0.31 -0.04,0.42 0.01,0.09 0.06,0.18 0.14,0.27 0.09,0.08 0.21,0.15 0.36,0.19l0.03 0.19 -2.63 0.41 -0.03 -0.19c0.72,-0.26 1.23,-0.64 1.55,-1.13 0.32,-0.49 0.44,-0.99 0.37,-1.48 -0.07,-0.38 -0.22,-0.67 -0.46,-0.87 -0.25,-0.19 -0.51,-0.27 -0.78,-0.22 -0.17,0.02 -0.32,0.09 -0.46,0.2 -0.14,0.12 -0.27,0.27 -0.38,0.47 -0.11,0.2 -0.24,0.54 -0.39,1.03 -0.21,0.68 -0.4,1.18 -0.58,1.49 -0.17,0.31 -0.38,0.56 -0.63,0.75 -0.24,0.19 -0.53,0.32 -0.85,0.37 -0.56,0.08 -1.06,-0.05 -1.52,-0.39 -0.45,-0.35 -0.72,-0.83 -0.82,-1.44 -0.04,-0.23 -0.05,-0.45 -0.03,-0.67 0.02,-0.17 0.07,-0.38 0.14,-0.63 0.07,-0.24 0.1,-0.42 0.09,-0.51 -0.01,-0.09 -0.05,-0.15 -0.12,-0.19 -0.06,-0.05 -0.2,-0.07 -0.41,-0.08l-0.03 -0.16zm6.27 -6.76l0.19 -0.01 0.26 3.67 -0.19 0.01 -0.02 -0.23c-0.01,-0.2 -0.06,-0.37 -0.14,-0.49 -0.06,-0.08 -0.14,-0.14 -0.27,-0.18 -0.08,-0.04 -0.3,-0.04 -0.65,-0.02l-4.62 0.33c-0.36,0.02 -0.58,0.06 -0.67,0.1 -0.09,0.04 -0.16,0.13 -0.22,0.25 -0.06,0.12 -0.08,0.28 -0.07,0.47l0.02 0.24 -0.19 0.01 -0.26 -3.67 0.19 -0.01 0.02 0.23c0.01,0.2 0.06,0.36 0.14,0.48 0.06,0.09 0.14,0.15 0.27,0.2 0.08,0.03 0.3,0.03 0.65,0.01l4.62 -0.32c0.36,-0.03 0.58,-0.06 0.67,-0.11 0.09,-0.05 0.16,-0.13 0.22,-0.25 0.06,-0.12 0.08,-0.28 0.07,-0.48l-0.02 -0.23zm-6.99 -8.24l2.43 0.05 0 0.2c-0.64,0.14 -1.13,0.41 -1.48,0.82 -0.34,0.41 -0.52,0.88 -0.53,1.41 -0.01,0.44 0.11,0.84 0.36,1.21 0.25,0.37 0.57,0.65 0.98,0.82 0.51,0.23 1.09,0.35 1.73,0.36 0.63,0.01 1.21,-0.06 1.73,-0.21 0.52,-0.15 0.91,-0.39 1.18,-0.73 0.27,-0.33 0.41,-0.77 0.42,-1.31 0.01,-0.44 -0.08,-0.85 -0.27,-1.22 -0.18,-0.37 -0.51,-0.76 -0.98,-1.18l0.61 0.01c0.4,0.4 0.7,0.82 0.87,1.25 0.18,0.43 0.26,0.93 0.25,1.5 -0.01,0.75 -0.17,1.42 -0.48,1.99 -0.31,0.58 -0.75,1.02 -1.32,1.33 -0.57,0.31 -1.18,0.45 -1.81,0.44 -0.67,-0.01 -1.31,-0.2 -1.9,-0.56 -0.6,-0.36 -1.06,-0.84 -1.38,-1.44 -0.32,-0.61 -0.47,-1.24 -0.46,-1.91 0.01,-0.5 0.12,-1.02 0.35,-1.57 0.13,-0.31 0.19,-0.51 0.19,-0.6 0.01,-0.11 -0.03,-0.21 -0.11,-0.29 -0.08,-0.08 -0.21,-0.14 -0.39,-0.16l0.01 -0.21zm4.63 -4.62l2.15 0.37c0.35,0.07 0.58,0.09 0.67,0.06 0.1,-0.02 0.19,-0.08 0.28,-0.19 0.09,-0.1 0.15,-0.25 0.18,-0.44l0.04 -0.23 0.19 0.03 -0.64 3.63 -0.19 -0.04 0.04 -0.23c0.04,-0.2 0.03,-0.37 -0.02,-0.5 -0.03,-0.1 -0.1,-0.18 -0.21,-0.25 -0.07,-0.05 -0.28,-0.11 -0.63,-0.17l-4.56 -0.8c-0.36,-0.07 -0.58,-0.09 -0.68,-0.06 -0.09,0.02 -0.18,0.08 -0.27,0.18 -0.08,0.1 -0.15,0.25 -0.18,0.45l-0.04 0.23 -0.19 -0.04 0.64 -3.62 0.19 0.03 -0.04 0.23c-0.04,0.21 -0.03,0.37 0.02,0.51 0.03,0.1 0.1,0.18 0.21,0.25 0.07,0.05 0.28,0.11 0.63,0.17l1.96 0.35 0.44 -2.45 -1.97 -0.35c-0.35,-0.06 -0.58,-0.08 -0.67,-0.06 -0.1,0.02 -0.19,0.09 -0.27,0.19 -0.09,0.11 -0.15,0.25 -0.19,0.45l-0.03 0.22 -0.2 -0.03 0.64 -3.62 0.19 0.03 -0.04 0.23c-0.03,0.2 -0.03,0.37 0.02,0.51 0.04,0.09 0.11,0.18 0.21,0.25 0.08,0.05 0.29,0.11 0.64,0.17l4.55 0.8c0.36,0.06 0.58,0.08 0.68,0.06 0.1,-0.02 0.19,-0.08 0.27,-0.19 0.09,-0.1 0.15,-0.25 0.19,-0.44l0.04 -0.23 0.18 0.03 -0.63 3.62 -0.19 -0.03 0.04 -0.23c0.03,-0.2 0.02,-0.37 -0.03,-0.5 -0.03,-0.1 -0.1,-0.18 -0.2,-0.25 -0.08,-0.05 -0.29,-0.11 -0.64,-0.17l-2.14 -0.38 -0.44 2.45zm-1.77 -8.35l1.36 -3.37 0.18 0.08 -0.06 0.16c-0.11,0.26 -0.15,0.44 -0.14,0.56 0.02,0.11 0.06,0.21 0.14,0.29 0.08,0.08 0.3,0.19 0.67,0.34l3.2 1.29c0.58,0.24 0.99,0.35 1.21,0.34 0.23,-0.01 0.44,-0.1 0.65,-0.25 0.21,-0.15 0.37,-0.38 0.5,-0.69 0.14,-0.35 0.18,-0.68 0.12,-0.99 -0.06,-0.32 -0.2,-0.59 -0.43,-0.83 -0.23,-0.23 -0.69,-0.49 -1.38,-0.77l-2.66 -1.08c-0.3,-0.12 -0.52,-0.17 -0.67,-0.16 -0.15,0.01 -0.26,0.05 -0.35,0.13 -0.13,0.11 -0.25,0.3 -0.36,0.56l-0.17 -0.07 0.91 -2.25 0.18 0.07 -0.06 0.13c-0.07,0.18 -0.1,0.35 -0.07,0.5 0.02,0.16 0.1,0.29 0.22,0.4 0.09,0.09 0.26,0.18 0.53,0.29l2.48 1c0.77,0.31 1.3,0.58 1.6,0.82 0.3,0.24 0.51,0.61 0.64,1.12 0.12,0.51 0.05,1.1 -0.22,1.78 -0.23,0.56 -0.48,0.96 -0.76,1.21 -0.37,0.34 -0.75,0.53 -1.15,0.57 -0.39,0.05 -0.85,-0.04 -1.4,-0.26l-3.19 -1.29c-0.37,-0.15 -0.62,-0.23 -0.73,-0.22 -0.1,0 -0.21,0.05 -0.3,0.13 -0.1,0.08 -0.2,0.26 -0.31,0.53l-0.18 -0.07zm9.98 -9.83l-1.2 2.17 0.45 0.59c0.16,0.2 0.3,0.33 0.43,0.4 0.17,0.1 0.34,0.1 0.49,0 0.1,-0.05 0.24,-0.23 0.45,-0.54l0.16 0.1 -1.13 2.04 -0.17 -0.09c0.09,-0.24 0.1,-0.47 0.03,-0.7 -0.07,-0.22 -0.28,-0.57 -0.64,-1.04l-3.69 -4.92 0.05 -0.09 6.28 0.58c0.59,0.05 0.99,0.05 1.19,-0.02 0.15,-0.05 0.29,-0.17 0.41,-0.35l0.16 0.1 -1.65 2.97 -0.16 -0.09 0.06 -0.12c0.14,-0.24 0.2,-0.43 0.18,-0.56 -0.01,-0.09 -0.06,-0.17 -0.15,-0.22 -0.06,-0.03 -0.12,-0.05 -0.18,-0.06 -0.04,-0.01 -0.17,-0.03 -0.42,-0.06l-0.95 -0.09zm-0.42 -0.04l-2.63 -0.25 1.6 2.12 1.03 -1.87zm0.56 -9.12l5.57 0.15 -2.31 -1.94c-0.33,-0.27 -0.58,-0.41 -0.78,-0.42 -0.26,0 -0.51,0.15 -0.76,0.46l-0.14 -0.13 1.49 -1.78 0.15 0.13c-0.16,0.25 -0.25,0.43 -0.27,0.55 -0.02,0.12 0,0.24 0.07,0.37 0.07,0.14 0.23,0.31 0.48,0.52l4.49 3.77 -0.11 0.13 -7.55 -0.12 3.43 2.88c0.31,0.26 0.58,0.36 0.8,0.31 0.23,-0.05 0.42,-0.17 0.58,-0.35l0.1 -0.12 0.15 0.12 -1.61 1.91 -0.14 -0.12c0.24,-0.3 0.36,-0.56 0.34,-0.78 -0.03,-0.21 -0.18,-0.44 -0.47,-0.68l-3.8 -3.19 -0.24 -0.01c-0.24,-0.01 -0.42,0.02 -0.54,0.07 -0.11,0.05 -0.24,0.15 -0.39,0.31l-0.15 -0.12 1.61 -1.92zm15.17 -14.03l1.12 1.55 -0.15 0.11c-0.35,-0.3 -0.64,-0.48 -0.86,-0.55 -0.22,-0.08 -0.46,-0.09 -0.72,-0.05 -0.14,0.03 -0.35,0.14 -0.61,0.33l-0.42 0.31 3.19 4.39c0.21,0.29 0.35,0.46 0.44,0.51 0.09,0.05 0.19,0.07 0.33,0.05 0.13,-0.01 0.28,-0.07 0.44,-0.19l0.19 -0.14 0.11 0.16 -2.98 2.16 -0.11 -0.15 0.19 -0.14c0.16,-0.12 0.28,-0.25 0.33,-0.38 0.05,-0.09 0.06,-0.2 0.03,-0.33 -0.02,-0.08 -0.13,-0.27 -0.34,-0.56l-3.19 -4.39 -0.41 0.3c-0.38,0.28 -0.61,0.56 -0.66,0.85 -0.08,0.4 0,0.84 0.24,1.31l-0.16 0.11 -1.12 -1.54 5.12 -3.72zm5.29 -3.05c0.97,-0.56 1.93,-0.7 2.88,-0.42 0.94,0.29 1.66,0.89 2.15,1.81 0.42,0.79 0.56,1.61 0.41,2.45 -0.18,1.12 -0.84,1.98 -1.95,2.57 -1.12,0.59 -2.18,0.67 -3.2,0.24 -0.8,-0.34 -1.42,-0.92 -1.86,-1.74 -0.49,-0.93 -0.58,-1.86 -0.28,-2.81 0.3,-0.95 0.92,-1.65 1.85,-2.1zm0.22 0.26c-0.57,0.3 -0.85,0.82 -0.84,1.56 0.01,0.61 0.26,1.36 0.73,2.25 0.56,1.06 1.17,1.74 1.81,2.05 0.45,0.22 0.9,0.2 1.37,-0.05 0.32,-0.17 0.54,-0.38 0.67,-0.65 0.16,-0.33 0.21,-0.76 0.13,-1.27 -0.08,-0.51 -0.3,-1.11 -0.67,-1.8 -0.44,-0.82 -0.84,-1.39 -1.21,-1.72 -0.37,-0.32 -0.72,-0.51 -1.04,-0.55 -0.33,-0.04 -0.65,0.02 -0.95,0.18zm5.69 -3.09l3.47 -1.06 0.06 0.18 -0.18 0.06c-0.26,0.08 -0.43,0.16 -0.51,0.24 -0.08,0.09 -0.13,0.19 -0.14,0.29 -0.01,0.11 0.04,0.36 0.16,0.74l1.01 3.3c0.18,0.6 0.35,0.98 0.5,1.15 0.15,0.17 0.35,0.28 0.6,0.35 0.24,0.07 0.53,0.05 0.84,-0.05 0.37,-0.11 0.65,-0.29 0.86,-0.53 0.21,-0.24 0.33,-0.52 0.37,-0.85 0.04,-0.33 -0.05,-0.85 -0.27,-1.56l-0.84 -2.75c-0.09,-0.3 -0.19,-0.5 -0.29,-0.61 -0.1,-0.11 -0.21,-0.18 -0.32,-0.2 -0.17,-0.03 -0.39,0 -0.67,0.08l-0.05 -0.18 2.32 -0.72 0.06 0.19 -0.14 0.04c-0.19,0.06 -0.33,0.14 -0.43,0.26 -0.11,0.11 -0.16,0.25 -0.17,0.42 -0.01,0.12 0.02,0.32 0.11,0.59l0.78 2.56c0.24,0.79 0.36,1.38 0.37,1.76 0,0.38 -0.16,0.78 -0.47,1.2 -0.31,0.42 -0.82,0.74 -1.52,0.95 -0.58,0.18 -1.05,0.24 -1.42,0.18 -0.5,-0.08 -0.88,-0.26 -1.17,-0.53 -0.27,-0.28 -0.5,-0.7 -0.67,-1.26l-1.01 -3.29c-0.12,-0.39 -0.21,-0.62 -0.28,-0.71 -0.08,-0.08 -0.17,-0.13 -0.3,-0.15 -0.12,-0.03 -0.32,0.01 -0.61,0.1l-0.05 -0.19zm12.25 0.75l0.31 1.95c0.06,0.37 0.12,0.61 0.18,0.7 0.07,0.09 0.16,0.15 0.28,0.19 0.13,0.04 0.35,0.04 0.67,-0.01l0.03 0.19 -3.56 0.56 -0.03 -0.19c0.32,-0.05 0.54,-0.11 0.64,-0.19 0.11,-0.08 0.17,-0.17 0.21,-0.28 0.03,-0.1 0.01,-0.34 -0.05,-0.71l-0.71 -4.51c-0.06,-0.38 -0.12,-0.61 -0.18,-0.7 -0.07,-0.09 -0.16,-0.16 -0.29,-0.2 -0.12,-0.04 -0.34,-0.03 -0.66,0.02l-0.03 -0.19 3.23 -0.51c0.84,-0.14 1.46,-0.17 1.87,-0.12 0.41,0.05 0.76,0.22 1.06,0.49 0.29,0.28 0.48,0.62 0.54,1.04 0.08,0.52 -0.04,0.97 -0.35,1.36 -0.2,0.25 -0.51,0.46 -0.91,0.63l2.04 2.09c0.27,0.27 0.45,0.44 0.55,0.5 0.16,0.08 0.33,0.11 0.52,0.1l0.03 0.18 -2.19 0.35 -2.74 -2.81 -0.46 0.07zm-0.54 -3.41l0.49 3.05 0.29 -0.05c0.47,-0.08 0.82,-0.17 1.04,-0.3 0.23,-0.12 0.39,-0.31 0.48,-0.56 0.1,-0.25 0.12,-0.55 0.07,-0.92 -0.09,-0.53 -0.27,-0.9 -0.56,-1.11 -0.29,-0.22 -0.71,-0.28 -1.26,-0.19l-0.55 0.08zm10.51 5.55l0 0.19 -3.68 0 0 -0.19 0.24 0c0.2,0 0.36,-0.03 0.49,-0.11 0.09,-0.04 0.16,-0.13 0.21,-0.25 0.03,-0.08 0.05,-0.3 0.05,-0.65l0 -4.63c0,-0.36 -0.02,-0.58 -0.05,-0.67 -0.04,-0.09 -0.12,-0.17 -0.23,-0.24 -0.12,-0.07 -0.28,-0.1 -0.47,-0.1l-0.24 0 0 -0.19 3.68 0 0 0.19 -0.23 0c-0.21,0 -0.37,0.04 -0.5,0.11 -0.09,0.05 -0.16,0.13 -0.21,0.25 -0.03,0.08 -0.05,0.3 -0.05,0.65l0 4.63c0,0.36 0.02,0.58 0.05,0.68 0.05,0.09 0.12,0.16 0.24,0.23 0.11,0.07 0.27,0.1 0.47,0.1l0.23 0zm6.52 -6.74l-0.1 2.34 -0.22 -0.01c-0.06,-0.6 -0.27,-1.09 -0.64,-1.47 -0.36,-0.39 -0.77,-0.6 -1.23,-0.63 -0.35,-0.02 -0.64,0.05 -0.85,0.23 -0.22,0.17 -0.34,0.38 -0.36,0.63 -0.01,0.15 0.02,0.29 0.08,0.42 0.09,0.17 0.24,0.34 0.45,0.51 0.15,0.13 0.51,0.36 1.08,0.69 0.79,0.46 1.32,0.88 1.58,1.26 0.26,0.38 0.37,0.8 0.34,1.26 -0.04,0.59 -0.31,1.07 -0.79,1.46 -0.49,0.4 -1.08,0.57 -1.79,0.52 -0.22,-0.02 -0.43,-0.06 -0.62,-0.11 -0.19,-0.06 -0.43,-0.17 -0.72,-0.31 -0.16,-0.08 -0.3,-0.12 -0.4,-0.13 -0.09,-0.01 -0.19,0.02 -0.3,0.08 -0.1,0.06 -0.19,0.16 -0.26,0.3l-0.19 -0.01 0.18 -2.65 0.19 0.01c0.1,0.76 0.36,1.34 0.76,1.77 0.41,0.42 0.86,0.65 1.36,0.68 0.39,0.03 0.7,-0.05 0.95,-0.25 0.24,-0.19 0.37,-0.43 0.39,-0.71 0.02,-0.17 -0.02,-0.33 -0.1,-0.49 -0.07,-0.16 -0.19,-0.32 -0.37,-0.47 -0.17,-0.15 -0.47,-0.36 -0.91,-0.61 -0.62,-0.36 -1.06,-0.66 -1.32,-0.9 -0.27,-0.24 -0.46,-0.5 -0.59,-0.79 -0.13,-0.28 -0.19,-0.59 -0.17,-0.91 0.04,-0.56 0.28,-1.03 0.72,-1.39 0.44,-0.36 0.97,-0.52 1.59,-0.48 0.23,0.02 0.45,0.06 0.66,0.13 0.16,0.05 0.35,0.14 0.58,0.27 0.22,0.13 0.38,0.2 0.47,0.2 0.09,0.01 0.17,-0.01 0.22,-0.07 0.06,-0.05 0.12,-0.18 0.18,-0.38l0.15 0.01zm6.68 6.07l2.83 -4.14 2.8 0.59 -0.04 0.19 -0.22 -0.05c-0.2,-0.04 -0.37,-0.04 -0.51,0.01 -0.1,0.03 -0.18,0.09 -0.26,0.19 -0.05,0.07 -0.11,0.28 -0.19,0.62l-0.96 4.54c-0.08,0.35 -0.1,0.58 -0.09,0.67 0.02,0.1 0.08,0.19 0.18,0.28 0.11,0.09 0.25,0.16 0.45,0.2l0.22 0.05 -0.04 0.19 -3.6 -0.77 0.04 -0.19 0.23 0.05c0.2,0.05 0.37,0.04 0.51,0 0.09,-0.03 0.18,-0.1 0.25,-0.2 0.06,-0.07 0.12,-0.28 0.19,-0.63l1.09 -5.1 -3.97 5.72 -0.13 -0.03 -1.35 -6.8 -1.03 4.84c-0.08,0.34 -0.11,0.55 -0.11,0.64 0.01,0.17 0.07,0.33 0.2,0.47 0.12,0.14 0.34,0.24 0.66,0.31l-0.04 0.18 -2.36 -0.5 0.04 -0.18 0.07 0.01c0.15,0.04 0.3,0.04 0.45,0.02 0.14,-0.03 0.25,-0.08 0.34,-0.15 0.09,-0.07 0.16,-0.19 0.24,-0.34 0.01,-0.03 0.05,-0.2 0.12,-0.51l0.92 -4.36c0.08,-0.34 0.1,-0.57 0.09,-0.66 -0.02,-0.09 -0.08,-0.19 -0.18,-0.28 -0.11,-0.09 -0.25,-0.15 -0.45,-0.19l-0.21 -0.05 0.04 -0.19 2.81 0.6 0.97 4.95zm14.65 0.51l3.21 1.7 -0.09 0.17 -0.16 -0.08c-0.24,-0.13 -0.42,-0.19 -0.54,-0.19 -0.11,0 -0.22,0.04 -0.3,0.1 -0.08,0.07 -0.22,0.28 -0.41,0.64l-1.62 3.04c-0.29,0.56 -0.45,0.95 -0.46,1.17 -0.01,0.23 0.05,0.45 0.18,0.67 0.13,0.22 0.34,0.41 0.63,0.57 0.34,0.18 0.66,0.25 0.98,0.23 0.32,-0.03 0.6,-0.14 0.86,-0.35 0.26,-0.2 0.57,-0.63 0.92,-1.29l1.35 -2.53c0.14,-0.28 0.22,-0.5 0.23,-0.65 0,-0.15 -0.03,-0.27 -0.09,-0.36 -0.1,-0.14 -0.28,-0.28 -0.53,-0.41l0.09 -0.18 2.15 1.15 -0.09 0.17 -0.13 -0.07c-0.17,-0.09 -0.34,-0.14 -0.49,-0.13 -0.15,0.01 -0.29,0.07 -0.42,0.19 -0.09,0.07 -0.2,0.24 -0.34,0.49l-1.25 2.36c-0.39,0.73 -0.72,1.23 -0.99,1.51 -0.27,0.27 -0.66,0.44 -1.18,0.51 -0.51,0.08 -1.1,-0.06 -1.74,-0.4 -0.54,-0.28 -0.92,-0.58 -1.13,-0.88 -0.3,-0.41 -0.45,-0.81 -0.45,-1.2 0,-0.39 0.13,-0.85 0.41,-1.36l1.62 -3.05c0.19,-0.35 0.28,-0.58 0.29,-0.69 0.01,-0.11 -0.02,-0.22 -0.1,-0.32 -0.06,-0.11 -0.23,-0.23 -0.5,-0.36l0.09 -0.17zm10.5 6.66l-0.24 5.57 1.98 -2.28c0.28,-0.32 0.42,-0.57 0.43,-0.76 0,-0.26 -0.14,-0.52 -0.44,-0.77l0.12 -0.15 1.76 1.53 -0.13 0.14c-0.25,-0.16 -0.43,-0.26 -0.55,-0.28 -0.12,-0.02 -0.24,0 -0.37,0.07 -0.13,0.06 -0.31,0.22 -0.53,0.47l-3.84 4.43 -0.14 -0.12 0.26 -7.54 -2.94 3.37c-0.26,0.31 -0.37,0.57 -0.32,0.8 0.04,0.23 0.15,0.42 0.33,0.58l0.13 0.11 -0.13 0.14 -1.88 -1.63 0.13 -0.15c0.29,0.25 0.55,0.37 0.76,0.35 0.22,-0.01 0.45,-0.16 0.7,-0.45l3.25 -3.74 0.01 -0.24c0.01,-0.24 0,-0.42 -0.05,-0.54 -0.05,-0.12 -0.15,-0.25 -0.31,-0.4l0.13 -0.14 1.88 1.63zm2.62 11.83l-0.14 0.13 -2.6 -2.6 0.14 -0.13 0.16 0.16c0.14,0.15 0.29,0.24 0.43,0.27 0.09,0.03 0.2,0.02 0.32,-0.03 0.08,-0.03 0.25,-0.17 0.5,-0.42l3.28 -3.27c0.25,-0.26 0.4,-0.43 0.43,-0.52 0.04,-0.09 0.04,-0.2 0.01,-0.33 -0.04,-0.13 -0.13,-0.26 -0.27,-0.4l-0.16 -0.17 0.14 -0.13 2.6 2.6 -0.14 0.13 -0.16 -0.16c-0.15,-0.15 -0.29,-0.24 -0.43,-0.27 -0.1,-0.03 -0.21,-0.03 -0.33,0.02 -0.08,0.03 -0.25,0.18 -0.5,0.42l-3.27 3.28c-0.26,0.25 -0.4,0.42 -0.44,0.52 -0.03,0.09 -0.03,0.2 0,0.33 0.04,0.13 0.12,0.26 0.26,0.4l0.17 0.17zm10.72 2.69l-0.15 0.12c-0.19,-0.18 -0.43,-0.28 -0.74,-0.3 -0.22,-0.01 -0.68,0.06 -1.36,0.22l-5.76 1.3 -0.1 -0.14 3.02 -5.29c0.36,-0.64 0.56,-1.04 0.6,-1.18 0.03,-0.16 -0.02,-0.35 -0.16,-0.58l0.15 -0.12 2.03 2.69 -0.15 0.12 -0.07 -0.09c-0.18,-0.24 -0.34,-0.39 -0.47,-0.43 -0.09,-0.03 -0.17,-0.02 -0.25,0.04 -0.05,0.04 -0.1,0.09 -0.15,0.17 -0.05,0.07 -0.18,0.28 -0.38,0.63l-1.89 3.31 3.32 -0.77c0.41,-0.09 0.67,-0.16 0.79,-0.21 0.13,-0.05 0.23,-0.1 0.3,-0.15 0.08,-0.06 0.14,-0.14 0.17,-0.23 0.03,-0.1 0.03,-0.2 0,-0.31 -0.04,-0.15 -0.14,-0.33 -0.29,-0.52l0.16 -0.12 1.38 1.84zm1.89 4.42l-2.5 1.39 0.06 0.12c0.22,0.39 0.5,0.61 0.84,0.65 0.34,0.04 0.77,-0.05 1.27,-0.26l0.1 0.17 -3.22 1.78 -0.1 -0.17c0.33,-0.23 0.58,-0.47 0.74,-0.71 0.16,-0.24 0.23,-0.46 0.22,-0.65 -0.01,-0.2 -0.09,-0.45 -0.25,-0.74l-1.74 0.96c-0.34,0.19 -0.54,0.32 -0.6,0.39 -0.06,0.07 -0.09,0.16 -0.09,0.26 -0.01,0.11 0.04,0.25 0.14,0.43l0.2 0.36c0.32,0.58 0.71,0.96 1.17,1.16 0.45,0.2 1,0.23 1.63,0.08l0.09 0.16 -2.11 0.81 -2.95 -5.32 0.17 -0.09 0.11 0.2c0.1,0.18 0.21,0.31 0.34,0.38 0.08,0.06 0.19,0.08 0.31,0.06 0.09,0 0.29,-0.09 0.6,-0.26l4.05 -2.25c0.28,-0.15 0.45,-0.26 0.5,-0.31 0.09,-0.08 0.14,-0.19 0.15,-0.3 0.03,-0.16 -0.02,-0.34 -0.13,-0.54l-0.11 -0.21 0.17 -0.09 2.85 5.15 -1.82 1.01 -0.1 -0.17c0.4,-0.34 0.65,-0.64 0.76,-0.9 0.1,-0.27 0.12,-0.57 0.05,-0.91 -0.04,-0.2 -0.19,-0.53 -0.45,-1l-0.35 -0.64zm0.67 9.18l-1.88 0.61c-0.36,0.12 -0.58,0.21 -0.66,0.29 -0.08,0.07 -0.13,0.18 -0.15,0.31 -0.02,0.13 0.02,0.35 0.12,0.65l-0.18 0.06 -1.11 -3.43 0.18 -0.05c0.1,0.31 0.2,0.51 0.29,0.6 0.1,0.09 0.19,0.14 0.3,0.16 0.11,0.01 0.34,-0.04 0.7,-0.16l4.35 -1.41c0.36,-0.12 0.58,-0.21 0.66,-0.29 0.08,-0.07 0.13,-0.18 0.15,-0.31 0.02,-0.13 -0.02,-0.34 -0.12,-0.65l0.18 -0.06 1.01 3.11c0.27,0.81 0.4,1.42 0.41,1.83 0.01,0.41 -0.1,0.79 -0.32,1.12 -0.22,0.33 -0.54,0.57 -0.94,0.7 -0.5,0.16 -0.96,0.11 -1.4,-0.14 -0.28,-0.16 -0.54,-0.42 -0.77,-0.8l-1.74 2.35c-0.23,0.3 -0.36,0.51 -0.4,0.62 -0.06,0.17 -0.07,0.34 -0.02,0.53l-0.18 0.06 -0.69 -2.11 2.35 -3.15 -0.14 -0.44zm3.28 -1.06l-2.93 0.95 0.09 0.28c0.15,0.46 0.3,0.78 0.46,0.98 0.16,0.2 0.37,0.33 0.63,0.39 0.26,0.06 0.57,0.03 0.92,-0.08 0.51,-0.17 0.85,-0.41 1.01,-0.73 0.17,-0.31 0.17,-0.74 -0.01,-1.27l-0.17 -0.52zm3.38 11.11l-2.3 0.47 -0.04 -0.22c0.56,-0.2 0.98,-0.52 1.27,-0.97 0.28,-0.45 0.39,-0.9 0.31,-1.35 -0.06,-0.34 -0.21,-0.6 -0.43,-0.77 -0.22,-0.17 -0.45,-0.24 -0.69,-0.2 -0.16,0.03 -0.29,0.09 -0.39,0.18 -0.15,0.13 -0.28,0.32 -0.39,0.56 -0.09,0.18 -0.22,0.59 -0.41,1.22 -0.25,0.88 -0.53,1.49 -0.84,1.84 -0.3,0.34 -0.68,0.55 -1.14,0.63 -0.58,0.1 -1.12,-0.04 -1.61,-0.41 -0.5,-0.38 -0.81,-0.92 -0.93,-1.61 -0.04,-0.22 -0.06,-0.43 -0.05,-0.63 0.02,-0.2 0.06,-0.46 0.13,-0.78 0.04,-0.17 0.05,-0.31 0.03,-0.42 -0.02,-0.09 -0.07,-0.18 -0.15,-0.26 -0.09,-0.09 -0.21,-0.15 -0.36,-0.19l-0.03 -0.19 2.61 -0.46 0.04 0.19c-0.71,0.28 -1.22,0.67 -1.53,1.17 -0.31,0.49 -0.43,0.99 -0.34,1.48 0.07,0.38 0.23,0.67 0.47,0.86 0.25,0.19 0.51,0.26 0.79,0.21 0.16,-0.03 0.31,-0.1 0.45,-0.22 0.14,-0.11 0.26,-0.27 0.37,-0.47 0.1,-0.2 0.23,-0.54 0.37,-1.03 0.2,-0.69 0.38,-1.19 0.55,-1.5 0.17,-0.32 0.38,-0.57 0.62,-0.77 0.25,-0.19 0.53,-0.32 0.85,-0.38 0.55,-0.1 1.06,0.03 1.52,0.36 0.46,0.34 0.74,0.82 0.85,1.43 0.04,0.23 0.05,0.45 0.04,0.67 -0.02,0.17 -0.06,0.38 -0.13,0.63 -0.07,0.25 -0.09,0.42 -0.08,0.51 0.02,0.09 0.06,0.15 0.12,0.19 0.06,0.05 0.2,0.07 0.42,0.08l0.03 0.15zm-6.25 6.78l-0.19 0.02 -0.32 -3.66 0.19 -0.02 0.02 0.23c0.02,0.2 0.07,0.37 0.15,0.48 0.06,0.09 0.15,0.15 0.27,0.19 0.08,0.03 0.3,0.03 0.65,0l4.62 -0.4c0.35,-0.04 0.58,-0.08 0.66,-0.12 0.09,-0.05 0.16,-0.13 0.22,-0.25 0.05,-0.12 0.07,-0.28 0.06,-0.48l-0.02 -0.23 0.19 -0.02 0.32 3.67 -0.19 0.01 -0.02 -0.23c-0.02,-0.2 -0.07,-0.36 -0.15,-0.48 -0.06,-0.09 -0.15,-0.15 -0.27,-0.19 -0.09,-0.03 -0.31,-0.03 -0.66,0l-4.61 0.4c-0.36,0.03 -0.58,0.07 -0.67,0.12 -0.08,0.05 -0.15,0.13 -0.21,0.25 -0.06,0.13 -0.08,0.28 -0.06,0.48l0.02 0.23zm6.87 7.84l-1.91 0 0 -0.18c0.44,-0.11 0.76,-0.24 0.95,-0.37 0.19,-0.14 0.34,-0.32 0.46,-0.56 0.06,-0.13 0.09,-0.36 0.09,-0.69l0 -0.52 -5.43 0c-0.36,0 -0.58,0.02 -0.67,0.06 -0.09,0.04 -0.17,0.12 -0.24,0.23 -0.06,0.12 -0.1,0.28 -0.1,0.48l0 0.23 -0.19 0 0 -3.68 0.19 0 0 0.23c0,0.2 0.04,0.37 0.11,0.49 0.05,0.09 0.13,0.16 0.25,0.21 0.08,0.04 0.3,0.06 0.65,0.06l5.43 0 0 -0.51c0,-0.47 -0.1,-0.82 -0.3,-1.03 -0.28,-0.3 -0.68,-0.49 -1.2,-0.57l0 -0.2 1.91 0 0 6.32zm-1.47 9.73l-0.19 -0.03c0.01,-0.24 -0.03,-0.42 -0.11,-0.56 -0.12,-0.2 -0.47,-0.53 -1.05,-1l-2.28 -1.9 -1.68 -0.27c-0.35,-0.06 -0.58,-0.08 -0.67,-0.05 -0.1,0.02 -0.19,0.09 -0.27,0.19 -0.09,0.1 -0.14,0.24 -0.17,0.42l-0.06 0.39 -0.19 -0.03 0.62 -3.9 0.18 0.03 -0.05 0.37c-0.04,0.2 -0.02,0.37 0.03,0.5 0.03,0.1 0.1,0.18 0.21,0.25 0.08,0.05 0.29,0.1 0.64,0.16l1.39 0.22 3.24 -1.16c0.64,-0.24 1.02,-0.41 1.15,-0.53 0.12,-0.11 0.2,-0.28 0.24,-0.5l0.19 0.03 -0.53 3.33 -0.19 -0.03 0.03 -0.15c0.03,-0.2 0.02,-0.35 -0.02,-0.44 -0.05,-0.09 -0.1,-0.14 -0.17,-0.15 -0.12,-0.02 -0.45,0.07 -0.99,0.27l-2.5 0.89 1.9 1.58c0.46,0.39 0.78,0.6 0.94,0.63 0.09,0.01 0.18,-0.02 0.25,-0.1 0.11,-0.1 0.19,-0.31 0.26,-0.62l0.19 0.03 -0.34 2.13z"/>
   <path class="fil1" d="M71.81 4.01c37.34,0 67.79,30.45 67.79,67.77 0,37.33 -30.45,67.78 -67.79,67.78 -37.34,0 -67.8,-30.45 -67.8,-67.78 0,-37.32 30.46,-67.77 67.8,-67.77zm0 -4.01c39.55,0 71.8,32.25 71.8,71.78 0,39.54 -32.25,71.79 -71.8,71.79 -39.55,0 -71.81,-32.25 -71.81,-71.79 0,-39.53 32.26,-71.78 71.81,-71.78zm0 25.26c25.62,0 46.52,20.9 46.52,46.52 0,25.63 -20.9,46.53 -46.52,46.53 -25.63,0 -46.53,-20.9 -46.53,-46.53 0,-25.62 20.9,-46.52 46.53,-46.52zm0 -2.76c27.14,0 49.28,22.14 49.28,49.28 0,27.15 -22.14,49.29 -49.28,49.29 -27.15,0 -49.29,-22.14 -49.29,-49.29 0,-27.14 22.14,-49.28 49.29,-49.28z"/>
   <path class="fil2" d="M86.27 49.92c10.86,14.27 -23.66,25.52 -25.41,26.67 -9.44,6.19 16.77,18.33 31.38,12.39 3.24,-1.32 -14.55,15.16 -52.91,-5 -6.13,-3.62 -6.44,-7 -6.53,-7 -0.09,0 0.24,2.54 1.32,4.23 0.64,1 3.25,3.75 3.33,3.8 0,0 -2.76,-1.57 -4.31,-3.97 -0.16,-0.25 0.98,2.45 2.29,3.72 2.12,2.06 4.85,3.82 4.56,3.74 -3.75,-1.05 -5.79,-4.27 -5.79,-4.27 0,0 0.85,1.76 2.42,3.17 38.03,32.7 94.01,-0.46 63.59,-28.89 2.77,4.58 3.91,21.49 -7.07,26.21 -8.26,3.65 -23.91,-2.7 -19.41,-7.34 5.15,-4.78 15.22,-7.76 18.54,-14.09 1.58,-3 1.98,-5.6 1.6,-7.86l0.01 0c-0.55,-6.7 -9.98,-14.14 -9.98,-14.14 0,0 2.17,2.17 3.53,4.14 -2.14,-2.54 -5.21,-3.91 -5.21,-3.91 0,0 1.98,1.61 3.5,3.27 -2.99,-2.55 -7.11,-3.17 -7.11,-3.17 0,0 1.87,0.84 3.68,1.9 -2.41,-1.13 -5.06,-1.49 -5.06,-1.49 0.55,0.25 3.34,1.22 5.3,2.52 -4.23,-1.73 -8,-2.41 -8,-2.41 0,0 8.37,3.43 11.74,7.78zm16.07 9.68c12.54,2.99 7.53,10.81 7.37,9.59 -0.67,-5.22 -7.4,-9.33 -7.37,-9.59zm-16.98 32.47c-43.46,6.53 -52.34,-23.46 -52.34,-23.46 0,0 6.16,10.44 14.37,14.11 -14.04,-9.25 -13.3,-21.48 -13.3,-21.48 0,0 2.03,10.96 9.7,15.12 -10.88,-7.26 -8.47,-26.88 -8.47,-26.88 0,0 0.71,13.95 5.93,19.36 -5.58,-13.38 -2.35,-23.86 -2.35,-23.86 -0.99,4.5 0.16,9.24 1.08,13.3 4,17.57 13.7,33.8 45.38,33.79zm-18.79 -3.25c-30.82,-9.65 -24.6,-43.97 -24.6,-43.97 0,0 1.04,9.25 3.13,16.36 -1.95,-9.96 0.45,-19.32 0.45,-19.32 0,0 0.11,7.61 1.18,14.4 -1.14,-13.1 5.67,-19.76 5.67,-19.76 0,0 -4.25,6.8 -3.41,12.25 0.82,-2.46 4.01,-9.63 9.26,-14.24 -5.28,5.62 -7.54,15.19 -6.28,12.8 5.03,-9.49 11.62,-10.44 11.21,-10.4 0,0 -2.63,0.92 -5,3.92 -1.98,2.49 -2.52,4.63 -2.52,4.63 0,0 3.46,-2.53 6.44,-3.43 4.34,-1.3 7.91,-0.46 7.91,-0.46 -16.4,2.49 -27.09,22.02 -16.41,36 0,0 3.64,5.34 12.97,11.22zm40.49 -2.05c-17.13,28.82 -57.99,21.41 -57.99,21.41 0,0 10.1,0.48 18.03,-0.42 -10.99,0.3 -20.79,-3.62 -20.79,-3.62 0,0 8.22,1.14 15.68,1.19 -12.75,-1.5 -22.67,-9.16 -22.67,-9.16 0,0 7.61,3.78 14.06,5.59 -7.81,-2.97 -15.76,-9.35 -15.76,-9.35 13.89,6.71 27.45,14.01 45.89,9.94 7.99,-1.76 17.56,-9.15 23.55,-15.58z"/>
   <path class="fil1" d="M36.06 114.05l-0.06 -0.04 -0.05 -0.04 -0.17 -0.17 -0.07 -0.05 -0.07 -0.03 -0.19 -0.26 -0.02 -0.04 -0.02 -0.03 0 -0.02 0 -0.01 0 0 -0.51 -0.53 -0.06 0 -0.05 -0.01 -0.05 -0.04 -0.06 -0.05 -0.49 -0.34 -0.02 -0.07 -0.02 -0.03 -0.12 -0.17 -0.44 -0.47 -0.08 -0.06 -0.01 -0.02 -0.09 -0.08 -0.11 -0.07 -0.02 -0.03 0 -0.02 -0.02 -0.02 -0.05 -0.13 -0.15 -0.01 -0.23 -0.27 -0.07 -0.06 -0.16 -0.09 -0.13 -0.04 -0.11 -0.1 -0.13 -0.15 -0.07 -0.12 -0.67 -0.46 -0.03 0 -0.02 0 -0.03 0 -0.03 0 -0.05 0 -0.05 -0.01 -0.01 -0.01 -0.04 -0.02 -0.05 -0.03 -0.02 -0.02 -0.02 -0.02 -0.02 -0.02 0 0 -0.02 -0.02 -0.24 -0.28 -0.03 -0.01 -0.02 0 -0.02 -0.01 0 0.01 -0.03 -0.01 -0.05 -0.01 -0.05 -0.03 -0.04 -0.03 -0.02 -0.01 -0.05 -0.05 -0.06 -0.05 -0.11 -0.12 -0.1 -0.09 -0.09 -0.06 -0.05 -0.01 -0.05 -0.01 -0.05 0 -0.32 -0.21 -0.27 -0.25 0 0 -0.02 0.01 -0.02 0.01 -0.01 0 -0.01 0.01 -0.03 0.01 -0.05 0 -0.02 -0.01 0 0 -0.03 -0.01 -0.02 -0.01 -0.02 0 -0.04 0.01 -0.08 0.06 -0.01 0.05 0 0.05 0 0.04 0.02 0.11 0.25 0.63 0.23 0.44 0 0 0.06 0.03 0.02 0 0.1 0.02 0 0.06 0.01 0.07 0.01 0.06 0.03 0.05 0.04 0.05 0.05 0.04 0.12 0.07 0.48 0.15 -0.05 0.11 0.06 -0.01 0.06 0 0.06 0.01 0.12 0.07 0.06 0.05 0.17 0.17 0 0 0.03 0.04 0.06 0.05 0.06 0.04 0.01 0 0.01 0 0.04 0.03 0.03 0 0.01 0.01 0.03 0.01 0.06 0 0.03 0 0.01 0 0.03 0 0.06 -0.01 0.03 0.09 0.05 0.08 0.08 0.08 0.12 0.07 0.35 0.18 0.06 0.01 0.06 0.01 0.09 0.05 0.08 0.05 0.06 0.07 0.05 0.08 0.02 0.04 0.02 0.16 0 0.13 0.04 0.79 -0.38 0.52 -0.12 0.09 -0.01 0.01 -0.1 0.08 -0.2 0.15 -0.03 0.01 -0.16 0.11 -0.08 0.04 -0.01 0.01 -0.08 0.04 -0.02 0 -0.13 0.06 -0.03 0 -0.01 0 -0.03 0.01 -0.06 0.02 -0.06 0 -0.02 0 -0.04 0 -0.1 -0.03 -0.88 0.26 -0.05 -0.03 -0.04 -0.05 -0.01 -0.04 -0.01 -0.03 -0.02 -0.09 -0.14 -0.01 -0.04 -0.01 -0.04 -0.02 -0.01 -0.01 -0.01 -0.01 0 -0.02 0 -0.01 0.01 -0.04 0.02 -0.03 -0.02 -0.04 -0.02 -0.04 -0.03 -0.02 -0.08 -0.04 -0.11 -0.01 -0.06 0.01 -0.1 -0.16 -0.04 -0.14 -0.02 -0.15 0.02 -0.23 0.25 -0.99 0.01 -0.02 0.02 -0.05 0.02 -0.12 -0.01 -0.01 0 -0.01 0.01 -0.02 0.01 -0.02 0.01 -0.02 0.07 -0.06 0.11 -0.44 0.05 -0.15 0.03 -0.14 0 -0.07 -0.01 -0.11 -0.02 -0.05 -0.04 0.06 -0.04 0.06 -0.17 0.16 -0.09 0.11 -0.26 0.46 -0.19 0.43 0.01 0.05 0 0.06 -0.01 0.03 -0.03 0.09 -0.08 0.12 -0.08 0.08 -0.52 0.44 -0.2 -0.06 -0.15 -0.06 -0.1 -0.07 -0.03 -0.04 -0.02 -0.04 -0.55 -0.16 0.31 0.45 0.01 0.02 0.14 0.21 0.36 0.59 0.07 0.14 0.02 0.06 0.01 0.03 0.73 0.22 0.46 0.3 1.5 0.73 0.7 0.51 0.14 0.05 0.18 0.11 0.14 0.13 0.11 0.17 0.08 0.19 0.03 0.15 0.5 0.26 0.26 0.08 0.08 0.01 0.06 -0.01 0.04 0.07 0.03 0.03 0.01 0.02 0.01 0 0.03 0.04 0.02 0.01 0.02 0.01 0.01 0.01 0.02 0.01 0.03 0 0 0 0 0 0.02 0 0.01 -0.01 0 0 0.01 0 0.01 -0.01 0.01 0 0.01 0 0.02 0.02 0.04 0.01 0.12 0.04 0.4 0.05 0.18 0.13 0.22 0.1 0.27 0.08 0.31 0.04 0.69 0.25 0.49 0 0.47 0.08 0.13 -0.07 0.01 -0.01 0.05 -0.04 0.05 -0.06 0.08 -0.15 0.07 -0.19 0.27 -0.65 0 -0.01 -0.01 -0.1 0.05 -0.75 -0.08 -0.09 -0.03 -0.05 -0.02 -0.04 -0.01 -0.1 0.01 -0.05 0.02 -0.05 -0.01 -0.01 -0.04 -0.03 -0.05 -0.02 -0.12 -0.04 0.05 -0.18 -0.17 -0.12 -0.23 -0.3 -0.05 -0.09 -0.01 -0.03 -0.01 -0.02 -0.01 -0.03 -0.06 -0.11 -0.12 -0.16 -0.31 -0.38zm-10.02 -6.22l0.06 -0.1 0.01 -0.04 0.01 -0.03 -0.01 -0.04 -0.02 -0.02 -0.03 -0.02 -0.04 -0.01 -0.27 0.57 -0.34 1.58 -0.01 0.1 0 0.04 0.01 0.01 -0.06 0.67 -0.02 0.71 0.07 0.82 0.03 0.01 0.02 0.02 0.03 0.04 0.02 0.06 0 0.1 0.02 0.05 0.03 0.05 0.04 0.06 -0.03 0.04 -0.01 0.05 -0.02 0.04 0 0.06 0.02 0.1 0.2 0.47 0.03 0.01 0.02 0.01 0.06 0 0.05 -0.02 0.06 -0.03 0.05 -0.04 0.03 -0.03 0.01 -0.02 0.02 -0.01 0.05 -0.08 0.01 -0.01 0.17 -0.26 0.04 -0.08 0.02 -0.08 0.01 -0.07 -0.01 -0.06 -0.01 -0.04 -0.03 -0.05 -0.02 -0.03 -0.02 0 -0.02 0.01 -0.02 0.04 -0.02 0.03 -0.01 -0.01 -0.02 -0.01 -0.01 -0.01 -0.01 0 -0.01 0 -0.02 -0.01 -0.02 -0.02 -0.02 -0.02 -0.02 -0.02 0 0 -0.02 -0.02 0 0 -0.03 -0.04 0 -0.01 -0.02 -0.02 -0.04 -0.06 -0.01 -0.01 -0.08 -0.14 -0.08 -0.13 -0.04 -0.09 -0.03 -0.1 -0.03 -0.17 0 -0.2 0.05 -0.3 -0.09 -0.76 0.37 -2.43zm8.83 6.31l0.2 0.12 0.29 0.51 0.07 0.04 0.05 0.05 0.09 0.08 0.02 0.08 0.03 0.05 0.02 0.02 0.01 0 0.01 0.01 0.05 0 0.04 0.03 0.05 0.05 0.04 0.05 0 0.06 0 0.03 -0.01 0.02 -0.02 0.03 -0.05 0.06 -0.07 0.05 -0.1 0.06 -0.04 0.01 -0.01 0.01 -0.04 0.01 -0.03 0.01 -0.01 0 0 0 -0.01 0 -0.02 0.01 -0.04 -0.01 -0.01 0 -0.01 0 -0.04 -0.03 -0.35 0.06 -0.31 0.01 -0.25 -0.02 -0.21 -0.07 -0.07 0.04 -0.09 0.03 -0.12 0.01 -0.14 0 -0.19 -0.02 -0.1 0 -0.09 0.01 -0.02 0.01 -0.42 0 -0.03 0 -0.03 -0.01 -0.04 -0.01 -0.02 0.01 -0.05 -0.02 -0.03 -0.01 -0.02 -0.01 -0.03 -0.02 0 -0.01 -0.02 -0.01 -0.02 -0.02 -0.03 -0.01 -0.03 -0.05 -0.01 -0.02 -0.01 -0.01 -0.02 -0.02 -0.26 -0.14 -0.1 -0.07 -0.06 -0.05 0.01 -0.06 0.02 -0.05 0.02 -0.04 0.03 -0.02 0.02 -0.02 0.03 -0.01 0.03 0.01 0.04 0.02 0.63 -0.4 0.02 0.01 0.02 0.01 0.02 0 0 0 0.01 0 0 0.01 0.02 -0.01 0.01 0 0 0 0.01 0 0.03 -0.01 0.03 -0.03 0.01 -0.01 0.03 -0.03 0.4 -0.64 0.01 -0.03 0 -0.02 0 -0.02 -0.02 -0.04 -0.01 -0.01 -0.02 -0.02 -0.02 -0.01 -0.03 -0.02 -0.06 -0.01 -0.04 -0.01 0.22 -0.06 0.07 -0.03 0.05 -0.05 0.02 -0.03 0.02 -0.03 0.01 -0.07 0.01 -0.07 0.28 0.13 0.39 0.27 0.27 0.32 0.02 0.02 0.1 0.07z"/>
   <path class="fil1" d="M108.14 111.81l-0.02 0.09 0.01 0.05 0.05 0.12 0 0.02 0.02 0.08 0 0.08 -0.02 0.04 -0.02 0.03 -0.13 1.06 -0.08 0.34 -0.02 0.02 -0.03 0.07 -0.03 0.14 0 0.12 0.75 -0.41 -0.02 -0.05 0 -0.05 0 -0.02 0.01 -0.02 0.03 -0.05 0.02 -0.05 0.01 -0.06 0.11 -0.38 0 -0.07 0.03 -0.1 0.02 -0.05 0.04 -0.05 0.02 -0.01 0.06 -0.03 0.03 -0.01 0.88 1.08 0.34 0.37 0.06 0.07 0.1 0.19 -1.03 0.24 -0.1 0.12 0.02 0.01 0.04 0.02 0.04 0 0.02 -0.01 0.11 -0.04 0.66 0.28 0.64 0.13 0.67 -0.06 -0.01 -0.07 0.03 -0.11 0 -0.07 0.01 -0.03 -0.02 -0.09 -0.01 -0.02 0 -0.02 -0.02 -0.05 -0.04 -0.07 -0.01 -0.01 -0.01 -0.01 -0.02 -0.03 -0.08 -0.07 -0.15 -0.11 -0.06 -0.11 -0.1 -0.16 -0.39 -0.46 -0.08 -0.05 -0.3 -0.26 -0.29 -0.36 -0.44 -0.73 -0.26 -0.57 -0.29 -0.31 -0.39 0.3 -0.13 0.07 -0.04 0.01 -0.03 0.01 -0.05 0.01 -0.04 0.02 -0.03 0.03 -0.02 0.03 -0.02 0.04zm6.63 -2.4l-0.02 0.05 0.03 0.88 -0.01 0.61 -0.06 0.75 -0.14 0.84 -0.07 0.06 -0.09 0.12 -0.06 0.11 -0.01 0.02 0 0.08 0.01 0.04 0 0.01 0.01 0 0.01 0.02 0.01 0.01 0.01 0.02 0 0.01 0 0.01 0 0 0.01 0.01 0 0.03 0 0.02 -0.01 0 0 0 0 0.01 0 0.02 -0.01 0.02 -0.01 0.02 -0.01 0.02 -0.03 0.03 0 0.01 -0.02 0.06 -0.02 0.11 -0.03 0.52 -0.06 0.34 -0.09 0.29 -0.13 0.24 -0.27 0.32 0.03 0.06 0.04 0.06 0.14 0.12 0.42 -0.23 0.24 -0.15 0.18 -0.13 0.09 -0.08 0.06 -0.07 0.02 -0.03 0 -0.01 0.03 -0.04 0.01 -0.03 0.01 -0.07 0.01 -0.18 -0.02 -0.06 0 -0.06 0 -0.07 0.03 -0.08 0.31 0.46 0.57 1.16 0.04 0.1 0.05 0.32 0.03 0.1 0.04 0.08 0.04 0.06 0.02 0.02 0.03 0.1 0.04 0.33 0.03 1.58 -0.12 0.79 -0.4 0.9 -0.05 0 -0.03 -0.02 -0.04 -0.02 -0.04 -0.02 0 -0.01 0.01 0 0 -0.02 -0.01 0 0 -0.01 0 0 -0.01 -0.01 0.01 0 -0.01 -0.01 -0.03 -0.04 -0.02 -0.01 0 -0.01 -0.02 -0.02 -0.01 -0.01 -1.57 -1.32 -0.1 -0.06 -0.05 -0.03 -0.01 0 0 0 -0.07 -0.03 -0.09 -0.13 -0.09 -0.07 -0.05 -0.03 -0.04 -0.01 -0.05 0 -0.04 0 0.09 0.63 -0.06 0.08 -0.74 -0.75 -0.05 0.01 -0.03 0.01 -0.02 0 -0.04 -0.01 -0.03 -0.02 -0.02 -0.01 -0.03 -0.04 -0.02 -0.08 -0.01 -0.07 -0.74 -0.75 -0.36 -0.31 -0.03 -0.01 -0.06 -0.03 -0.06 -0.05 -0.06 -0.07 -0.03 -0.04 -0.76 -0.64 -0.01 -0.01 -0.03 -0.05 -0.01 -0.01 -0.03 -0.04 -0.05 -0.05 -0.06 -0.05 -0.01 -0.02 -0.18 -0.15 -0.01 -0.01 -0.08 -0.07 -0.02 -0.03 -0.01 0 0.02 -0.01 0 -0.01 0 -0.01 0 -0.01 0 -0.01 -0.01 -0.01 0.01 0 -0.01 -0.01 -0.01 -0.02 -0.02 -0.02 -0.03 -0.01 -0.02 -0.01 0 0 -0.01 -0.01 -0.04 -0.01 -0.03 -0.02 -0.05 -0.05 -0.02 -0.03 -0.02 -0.03 -0.01 -0.07 -0.37 -0.37 -0.33 -0.43 -0.13 0.01 -0.1 0.01 -0.04 0.02 -0.04 0.02 -0.03 0.03 -0.03 0.02 0.16 0.89 0.06 0.02 0.07 0.04 0.18 0.13 0.05 0.03 0.06 0.03 0.02 0.02 0.07 0.09 0.03 0.06 0.04 0.04 0.09 0.06 0.04 0.01 0.01 0.03 0.25 0.32 0.28 0.24 0.02 0.02 0.06 0.08 0.09 0.18 0.55 0.33 0.54 0.59 0.61 0.5 0.07 0.03 0.01 0 0.02 0.01 0.06 0.03 0.02 0.02 0 0 0.03 0.03 0.01 0.02 0.02 0.02 0.02 0.04 0.01 0.02 0.01 0.02 0 0.04 0.02 0.03 0.02 0.04 0.07 0.08 0.11 0.08 0.07 0.04 0.74 0.76 0.77 0.71 0.14 0.02 0.09 0.05 0.04 0.02 0.02 0 0.03 -0.01 0.03 0.01 0.04 0 0.07 0.04 0.08 0.05 0.08 0.04 0.09 0.02 0.07 0 0.03 0 0.03 -0.01 0.46 0.02 0.39 -0.05 0.07 -0.02 0.01 0 0.07 -0.02 0.14 -0.06 0.06 -0.04 0 0 0.06 -0.04 0.1 -0.1 0.33 -0.4 0.02 -0.06 0.07 -0.21 0.21 -0.24 0.31 -1.04 0.07 -0.49 -0.01 -0.56 -0.04 -0.06 -0.05 -0.13 -0.02 -0.1 0 -0.04 0.01 -0.04 0.03 -0.03 -0.22 -1.29 -0.72 -1.36 -0.19 -0.5 -0.01 -0.01 -0.01 -0.01 -0.09 -0.15 -0.33 -0.61 -0.06 -0.06 -0.05 -0.06 -0.03 -0.07 -0.04 -0.14 0.02 -0.17 0.03 -0.09 0.09 -0.61 0.02 -0.02 0.04 -0.08 0.03 -0.19 0.02 -0.03 0.03 -0.04 0.06 -0.02 0.07 -0.01 0.89 0.82 0.03 0.05 0.05 0.11 0.1 0.12 0.24 0.2 1.14 1.1 0.13 0.03 0.05 0.03 0.02 0.01 0 0 0.03 0.02 0.03 0.03 0.03 0.05 0.02 0.04 0 0.03 0.01 0.02 0.53 0.11 0.01 0.03 0.02 0.02 0.04 0.05 0.09 0.05 0.04 0.02 0.04 0 0.05 0.02 0.11 0.07 0.45 0.02 0.18 -0.02 0.09 -0.01 0.12 -0.03 0.05 -0.03 0.4 -0.15 0.42 -0.26 0.63 -0.91 0.62 -1.07 0 0 0.01 -0.01 0 -0.02 0.02 -0.01 0 -0.03 0.03 -0.05 0.02 -0.03 0.17 -0.39 0.14 -0.99 -0.02 -0.06 -0.02 -0.06 0 -0.13 0.02 -0.1 -0.01 0 0.01 -0.05 0 -0.09 -0.02 -0.06 -0.01 0 0.01 -0.01 -0.01 0 -0.01 -0.02 0 0 -0.01 -0.02 -0.05 -0.05 -0.02 -0.01 -0.02 -0.02 -0.06 -0.04 -0.14 -0.06 -0.03 -0.01 -0.05 -0.02 -0.35 -0.13 -0.08 0.01 -0.34 -0.01 -0.37 -0.06 -0.77 -0.21 -0.3 -0.14 -0.16 -0.1 -0.08 -0.06 -0.04 -0.03 -0.01 -0.01 0 -0.02 -0.03 0 -0.02 -0.01 -0.03 -0.01 -0.15 -0.1 -0.08 -0.06 -0.03 -0.02 -0.03 -0.01 -0.02 0 -0.04 0.01 -0.05 0.03 -0.02 0.02 0.66 0.7 0.01 -0.02 0.02 -0.01 0.02 0.01 0.02 0.01 0.02 0.04 0.07 0.06 0.08 0.07 0.15 0.1 0.05 0.05 0.04 0.09 0.18 0.13 0.01 0.02 0.14 0.12 0.14 0.16 0.11 0.17 0.01 0.02 0.04 0.06 0.01 0.03 0.04 0.06 0.03 0.1 0 0.01 0.04 0.09 0.08 0.42 -0.03 0.02 -0.02 0.02 -0.06 0.08 -0.01 0.03 -0.01 0.02 0 0.04 0 0.04 0.02 0.05 0.03 0.04 -0.23 0.28 -0.2 0.32 -0.9 0.96 -0.41 0.35 -0.13 0.02 -0.24 0.02 -0.24 -0.03 -0.17 -0.05 -0.16 -0.07 -0.38 -0.3 -0.63 -0.64 -1.19 -1.59 -0.02 -0.02 -0.03 0 -0.03 -0.01 -0.04 0 -0.04 0.01 -0.14 0.05 -0.29 0.02 -0.03 -0.02 -0.04 -0.05 -0.01 -0.02 -0.01 -0.06 0 -0.03 0 -0.06 0.07 -0.13 0.09 -0.12 0.09 -0.61 0.14 -0.57 0.03 -0.04 -0.01 -0.15 -0.06 -0.01 -0.2 0 -0.01 0.03 -0.01 0 -0.01 0.02 -0.02 0.05 -0.02 0.02 -0.01 0.01 -0.07 0.06 -0.06 0.03 -0.07 0.03 -0.14 0.04 -0.04 0.01 -0.17 0.06 -0.07 0.04 -0.1 0.08 -0.04 0.05 -0.02 0.05zm-4.96 -2.41l-0.22 0.03 -0.41 0.11 -0.19 0.08 -0.05 0.04 -0.05 0.06 -0.05 0.08 -0.1 0.24 -0.03 0.03 -0.05 0.07 -0.03 0.02 -0.16 0.42 -0.22 0.43 -0.01 0.01 0 0.01 0.01 0 0.07 -0.02 0.05 -0.05 0.05 -0.04 0.06 -0.04 0.14 -0.07 0.18 -0.06 0.28 -0.06 0.16 -0.06 0.07 -0.04 0.11 -0.08 0.01 -0.01 0.04 -0.04 0.17 1.51 0.13 0.4 0.37 0.69 0.22 0.35 0.06 0.04 0.06 0.04 0.01 0.01 0.03 0.03 0.02 0.03 0.01 0.01 0.01 0.03 0.01 0.01 0.01 0.02 0 0.02 0 0.04 0 0.01 0 0.02 0.4 0.34 0.55 0.74 0.06 0.02 0.07 0.05 0.16 0.17 0.01 0.08 0.07 0.15 0.12 0.12 0.15 0.12 0.1 0.05 0.66 0.27 0.65 -0.28 0.01 -0.03 0 -0.02 0 -0.02 0 -0.02 0 -0.02 -0.01 -0.04 -0.01 -0.01 -0.01 -0.02 -0.01 -0.02 -0.01 -0.02 -0.02 -0.02 -0.01 -0.01 -0.07 -0.07 -0.06 -0.07 -0.04 -0.06 0 -0.05 0 -0.04 0.03 -0.01 0.03 -0.01 0.05 -0.02 0.05 0 0.04 0.01 0.04 0.02 0.03 0.03 0.01 0.02 0.18 0.48 0.05 -0.04 0.04 -0.06 0.06 -0.13 0.02 -0.17 0.01 -0.96 0.07 -0.07 0.02 -2.25 0.14 -0.57 -0.01 -0.02 -0.01 -0.01 0 -0.01 -0.01 0 -0.01 -0.01 -0.03 -0.01 -0.11 -0.02 -0.09 -0.01 -0.35 0.25 -0.33 0.48 -0.01 0.05 0.02 0.09 0.03 0.08 0.06 0.07 0.04 0.03 -0.14 1.88 -0.01 0.03 -0.03 0.06 -0.02 0.09 -0.01 0.11 -0.01 0.16 -0.02 0.09 -0.02 0.03 -0.01 0.02 -0.01 0.01 -0.03 0.04 -0.03 0.02 -0.05 -0.02 -0.05 -0.03 -0.03 -0.04 -0.03 -0.05 -0.1 -0.04 -0.21 -0.16 -0.26 -0.27 -0.2 -0.17 -0.33 -0.42 -0.34 -0.49 -0.07 -0.33 -0.1 -0.27 -0.04 -0.19 -0.02 -0.19 0.01 -0.31 0.11 -0.57 0.65 -1.74 0.03 -0.01 0.06 -0.06 0.22 -0.29 0.03 -0.01 0.06 -0.02 0.12 -0.07 0.1 0.57 0.03 0.59 -0.02 0.64 -0.07 0.67 0 -0.03 0.02 -0.03 0.02 -0.03 0.05 -0.03 0.03 -0.01 0.08 0 0.42 -0.84 0.02 -0.01 0.03 -0.08 0.03 -0.13 0 -0.11 0.31 -0.77 0.11 -0.48 0.01 -0.04 0.06 -0.18 0.01 -0.02 0 -0.01 0.01 -0.82 -0.06 -0.04 -0.05 -0.02 -0.07 -0.02 -0.06 -0.01 -0.07 0 -0.14 0.03 -0.08 0.03 -0.32 0.08 -0.17 0.02 -0.06 -0.01 -0.07 -0.01 -0.05 -0.02 -0.55 0.19 -0.03 0.01 -0.04 0.04 -0.02 0.03 -0.01 0.01 -0.21 0.58 -0.28 0.58 -0.01 0.1 -0.19 0.63 -0.18 0.47 -0.15 0.33 -0.07 0.36 -0.02 0.37 0.01 0.13 0.06 0.4 0.53 1.74 -0.66 -0.36 -0.39 -0.6 -0.19 -0.43 0.04 -0.45 -0.03 -0.07 -0.04 -0.14 0.01 -0.14 0.02 -0.08 0.12 -0.34 0.01 -0.03 0.03 -0.11 0.01 -0.12 0 -0.03 0 -0.02 -0.01 -0.05 0.02 -0.02 0.01 -0.03 0.01 -0.07 0.02 -0.31 0.02 -0.13 0.04 -0.07 0.01 -0.02 0 -0.11 0 -0.03 0 -0.08 -0.02 -0.04 -0.01 -0.02 0.01 -0.01 -0.01 -0.03 -0.02 -0.06 0 -0.03 -0.05 -0.08 -0.04 -0.08 -0.01 -0.01 -0.01 -0.01 -0.05 -0.06 -0.08 -0.07 -0.02 0 -0.03 -0.01 -0.03 -0.03 -0.03 -0.04 0 -0.02 -0.08 0.01 -0.02 -0.02 -0.03 -0.01 -0.04 -0.01 -0.08 -0.01z"/>
   <path class="fil1" d="M99.99 123.41l-0.02 -0.02 -0.02 0.03 -0.01 0.02 0 0.02 0.01 0.02 0.01 0.02 0.02 0.02 0.03 0.02 0.04 0.01 0.01 -0.04 0.06 -0.09 0.04 -0.05 -0.11 0.05 -0.02 0.01 -0.01 0 -0.02 -0.01 -0.01 -0.01zm2.31 6.67l0.08 0.01 -0.02 -0.05 -0.13 0.06 0.07 -0.02zm-7.53 -5.23l0.01 0.45 0.13 0.39 0.29 0.48 0.2 0.52 0.1 0.56 0.03 0.45 -0.01 0.06 0 0.02 0 0.08 -0.01 0.05 -0.01 0.12 0 0.12 0.08 0.26 0.14 0.28 0.17 0.23 0.08 -0.03 0.04 -0.01 0.15 0.02 0.12 0.03 0.06 -0.07 0.04 -0.07 0.01 -0.08 0.01 -0.16 0.03 -0.27 -0.28 -1.43 0.09 -0.1 0 -0.02 0 -0.01 0 -0.01 -0.01 -0.03 -0.01 -0.04 -0.01 -0.01 -0.01 -0.02 -0.05 -0.07 0 -0.01 -0.04 -0.04 0.03 -0.08 -0.08 -0.03 -0.01 -0.23 -0.05 -0.19 -0.61 -0.62 -0.62 -0.49zm7.67 -4.87l0.03 0.01 0.04 0.02 0.12 0.01 0.16 -0.01 0.1 0.13 0.02 0.04 0.02 0.02 0.02 0.06 0.01 0.05 0 0.01 0 0.02 0.01 0.03 -0.02 0.05 -0.01 0.02 0 0.02 -0.21 0.33 -0.02 0.03 -0.02 0.03 -0.02 0.05 -0.01 0.02 -0.01 0.02 0.01 0.02 -0.01 0.01 0.01 0.01 -0.01 0.01 -0.02 0.03 -0.01 0 0 0.02 -0.02 0.01 -0.13 0.08 -0.28 0.52 0.09 -0.11 0.18 -0.05 0.37 -0.14 0.01 0.02 0 0.01 0 0.02 -0.01 0.05 -0.02 0.02 -0.01 0 -0.02 0.02 -0.03 0.02 -0.02 0.01 -0.08 0.11 -0.02 0.03 -0.02 0.02 -0.04 0.06 -0.01 0 -0.02 0.02 -0.01 0.03 -0.01 0 0.01 0 0 -0.01 0.01 0 0.01 -0.02 0.02 -0.02 0.14 0.05 0.06 -0.04 0.11 -0.11 0.05 -0.08 0.21 0.03 0 0 0.03 0 0.02 0 0.02 -0.01 0.03 -0.02 0.01 -0.01 0.01 -0.03 0 -0.02 0.01 -0.01 0 -0.02 0.09 -0.1 0.1 -0.05 0.03 -0.01 0.05 -0.02 0.03 -0.02 0.04 -0.04 0.04 -0.07 0.02 -0.04 0.2 -0.23 0.01 -0.02 0.04 -0.05 0 -0.02 0.01 -0.02 0.05 -0.13 0 -0.19 -0.02 -0.1 -0.01 -0.02 -0.02 -0.09 -0.34 -0.74 -0.07 -0.08 -0.08 -0.05 -0.09 -0.04 -0.04 -0.02 -0.09 -0.01 -0.09 0 -0.1 0.02 -0.04 0.01 -0.1 0.04 -0.04 0 -0.08 0.03 -0.2 0.1 -0.06 0.05 -0.21 0.23 0.15 0.05 -0.02 0.08 0 0.03 0.01 0.03zm-4.46 -5.2l-0.14 -0.13 -0.08 -0.05 -0.09 -0.03 -0.08 0 -0.08 0.03 -0.07 0.06 -0.04 0.04 0.13 0.56 0.09 1.03 0.05 2.04 -0.06 0.28 -0.47 0.1 -0.5 0.16 -0.11 -0.06 -0.08 -0.08 -0.05 -0.09 -0.02 -0.05 -0.03 -0.1 0 -0.11 0.04 -0.19 0.34 -0.7 0.06 -0.19 0.02 -0.07 0 -0.03 0 -0.03 -0.03 0 -0.04 0.01 -0.14 0.05 -0.06 0.03 -0.48 0.32 -0.45 0.35 -0.59 0.66 -0.42 0.91 0.4 0.85 0.06 0.02 0.08 0.04 0.06 0.05 0.07 0.07 0.13 0.17 0.13 0.24 0.29 1.03 1.02 2.05 -0.02 0.39 -0.04 -0.01 -0.04 0 -0.04 0.01 -0.03 0.01 -0.05 0.02 -0.08 0.07 -0.03 0.05 -0.06 0.1 -0.06 0.08 -0.03 0.03 -0.04 0.02 -0.04 0.01 -0.04 0.01 -0.02 0.09 0 0.18 0.05 0.19 0.05 0.09 0.13 0.19 0.04 0.02 0.05 0.01 0.05 0 0.05 -0.02 0.04 -0.02 0.05 -0.04 0.09 -0.12 0 -0.01 0.01 0 0.01 -0.01 0 -0.01 0 0 0.01 -0.01 0 -0.01 -0.01 -0.02 0 -0.02 -0.01 -0.02 0.01 0 -0.01 -0.02 0 0 0.05 -0.07 0.04 -0.09 0 -0.05 0 -0.01 0 -0.04 -0.05 -0.47 0.57 0.25 0.03 -0.06 0 -0.01 0.03 -0.05 0.01 -0.08 -0.01 -0.02 0 0 0.01 -0.02 0 -0.04 -0.02 -0.09 -0.01 -0.02 0 -0.03 -0.01 -0.02 0 -0.03 -0.06 -0.15 0 -0.01 -0.07 -0.16 -0.04 -0.14 0 -0.05 0.01 -0.11 0.01 -0.04 0.04 -0.07 0.02 -0.03 0.06 -0.06 0.04 -0.02 -0.1 0.06 -0.05 0.04 -0.04 0.05 -0.04 -0.02 -0.09 -0.05 -0.05 -0.04 -0.08 0.1 -0.02 -0.02 -0.03 -0.02 -0.06 -0.08 -0.22 -0.43 -1.09 -3.05 -0.23 -0.35 -0.03 -0.02 -0.04 -0.06 -0.04 -0.08 -0.03 -0.1 -0.01 -0.06 0.16 0.06 0.51 -0.4 0.11 -0.08 0.07 -0.03 0.05 -0.01 0.02 0 0.02 0.01 0.02 0.01 0.83 2.43 0.52 1.07 0.24 0.37 0.06 0.08 -0.02 0.03 0 0.08 0.01 0.04 0.02 0.07 0.02 0.03 0.04 0.04 0.1 0.07 0 0 0.02 0.01 0.05 0.06 0.03 0.07 0 0.01 0 0 0 0.01 0 0.02 0 0.04 0.23 0.5 0.05 0.06 0.06 0.07 0.19 0.17 0.04 0.05 0.09 0.14 0.04 0.05 0.04 0.07 0.06 0.2 0 0.03 0.01 0.03 0.02 0.07 0.04 0.06 0.06 0.08 -0.08 0.1 0.14 0.19 0.1 0.11 0.16 0.12 0.1 0.05 0.05 0.02 0.11 0.03 0.1 0 0.06 0 0.05 -0.03 0.03 -0.04 0.01 0 0.03 -0.06 0.02 -0.03 0.01 -0.03 0.02 -0.07 0 -0.03 0.02 -0.06 0.01 -0.2 -0.02 -0.1 0.01 -0.18 0.04 -0.15 0.04 -0.06 0.04 -0.06 0.06 -0.04 0.05 0 0.04 0.03 0.03 0.02 0.02 0.04 0.01 0.04 0.01 0.06 -0.01 0.12 0.69 0.52 0.1 0.08 0.07 0.08 0.01 0.02 0 0.01 0.01 0.02 0.01 0 0 0.02 0 0 0.01 0.03 0 0.02 0 0.02 -0.01 0.03 -0.01 0.02 -0.01 0.02 -0.08 0.1 -0.04 0.04 -0.03 0.03 -0.05 0.01 -0.04 0 -0.04 -0.01 -0.04 -0.02 0 -0.02 0 -0.03 0 -0.02 0 0 0 -0.01 0 -0.01 0 -0.02 -0.01 -0.02 -0.01 -0.05 -0.11 0.04 0.16 0.19 -0.57 0.46 -0.66 0.37 -0.08 -0.03 0.06 -0.15 -0.04 0.02 -0.09 0.08 -0.01 0.03 -0.05 -0.02 -0.1 -0.02 -0.11 -0.01 -0.21 0.01 -0.04 0.02 -0.05 0.04 -0.02 0.07 0.01 0.06 0.01 0.04 0.52 0.21 0.07 0.04 0.05 0.03 0.03 0.03 0.01 0.01 0 0.02 -0.61 -0.12 -0.02 -0.01 0.38 0.3 -0.02 0.08 -0.02 0 -0.06 0 -0.13 -0.03 0.12 0.26 0.02 0.03 0.03 0.03 0.06 0.04 0.18 0.08 0.23 0.03 0.29 0 1.82 -1.37 0.04 0.01 0.05 0.02 0.03 0.03 0.03 0.03 0.04 0.09 0.1 0.72 -0.07 0.68 0.01 0.58 -0.06 0.16 -0.06 0.12 -0.03 0.04 -0.04 0.03 -0.04 0.02 -0.05 0.01 0.03 0.06 -0.01 0.07 0 0.02 -0.02 0.08 -0.01 0.03 -0.01 0.02 0 0.01 -0.03 0.06 -0.01 0 -0.01 0.02 -0.04 0.04 -0.02 0.01 -0.01 0 -0.02 0.01 -0.03 0.01 -0.05 0 -0.01 0.04 0 0.02 0 0 0 0.02 -0.01 0.03 0.01 0.01 -0.01 0.04 -0.06 0.16 -0.05 0.07 -0.04 0.04 -0.01 0.01 -0.02 0.03 -0.08 0.07 -0.02 0.02 -0.06 0.06 -0.12 0.07 -0.19 0.15 -0.13 0.14 -0.04 0.07 -0.03 0.07 0 0.06 0.03 -0.01 0.04 -0.01 0.04 0 0.04 0.01 0.04 0.02 0.04 0.03 0.08 0.08 -0.05 0.03 -0.03 0.02 -0.03 0.07 -0.03 0.08 0 0.06 0.02 0.05 0.27 -0.09 0.13 -0.03 -0.03 -0.02 -0.03 -0.01 -0.04 -0.01 -0.08 0 -0.09 0.03 -0.04 0.03 -0.02 -0.03 0.01 -0.04 0.03 -0.04 0.06 -0.02 0.05 0 -0.05 -0.11 0.03 -0.08 0.02 0 0.04 -0.01 0.03 0.01 0.04 0.01 0.04 0.04 0.04 0.03 0.03 0.02 0.05 0.01 0.04 0 0.04 -0.01 0.1 -0.06 -0.02 0.01 -0.01 -0.01 -0.02 -0.01 -0.01 -0.01 -0.02 -0.02 -0.05 -0.09 0.03 -0.08 0.16 -0.14 0.17 -0.11 0.11 -0.05 0.03 0 0.05 0 0.02 0 0.04 0.03 0.02 -0.04 0.03 -0.03 0.06 -0.04 -0.02 0.01 -0.01 -0.03 -0.01 -0.07 0.02 -0.04 0.04 -0.03 0.14 -0.1 0.1 -0.05 0.06 -0.02 0.06 0.01 0.05 0 0.05 0.03 -0.08 0.23 0.23 0.08 0.3 -0.46 0.45 -1.24 -0.02 -0.49 0.01 -0.06 0.01 -0.03 -0.66 -1.83 0.42 -0.06 0.47 0.03 0 -0.07 0 -0.04 0.05 -0.09 0.11 -0.11 0.18 -0.07 0.11 -0.02 -0.17 -0.24 0 -0.2 -0.03 -0.09 -0.03 -0.08 -0.02 -0.03 -0.06 -0.08 -0.08 -0.06 -0.09 -0.05 -0.69 -0.3 -0.04 -0.01 -0.03 -0.01 -0.02 0.01 -0.02 0 -0.03 0.02 -0.04 0.04 -0.04 0.06 -0.02 0.06 -0.02 -0.01 -0.05 0 -0.03 0.01 -0.14 0.05 -0.21 0.23 -0.04 0.03 -0.03 0.02 -0.04 0.01 -0.03 0 -0.03 -0.01 -0.04 -0.01 -0.03 -0.02 -0.1 -0.11 -0.05 -0.03 -0.03 -0.01 -0.04 -0.01 -0.04 0 -0.04 0 -0.04 0.02 -0.04 -0.02 -0.02 -0.01 -0.03 -0.03 -0.01 -0.03 -0.01 -0.02 -0.01 -0.03 0.01 -0.04 0.05 -0.13 0 -0.02 0.01 -0.06 0 -0.04 -0.02 -0.02 0 -0.01 0 -0.01 -0.02 -0.03 -0.02 -0.03 -0.01 0 0.03 -0.01 0.02 -0.02 0.02 -0.01 0.02 -0.02 0.03 -0.03 0.01 -0.02 0.01 -0.02 0 -0.02 0.01 -0.02 0 -0.05 -0.01 -0.02 0 -0.03 -0.01 -0.02 -0.01 -0.02 0 0 -0.02 -0.05 -0.03 -0.1 0.02 -0.09 0.01 -0.03 0.02 -0.04 0.04 -0.03 -0.04 -0.5 -0.01 -0.58 -0.07 -0.09 -0.07 -0.11 -0.02 -0.07 0 -0.02 0 -0.03 0.01 -0.05 0.04 -0.04 0.05 -0.02 0.04 -0.01 0 -0.07 0.04 -0.14 0.02 -0.08 -0.16 0.07 0.01 0.03 0 0.02 0 0.01 -0.01 0.07 -0.03 0.01 -0.01 0.01 -0.01 0 -0.04 0.01 -0.01 0 -0.11 0.01 -0.11 -0.01 -0.2 -0.04 -0.17 0 -0.07 0.02 -0.06 0.03 -0.06 0.05 -0.06 0.05 -0.05 0.07 -0.37 0.62 -0.08 -0.02 0.01 0.02 0.01 0.04 0 0.08 -0.03 0.25 0.03 -0.03 0.04 -0.02 0.03 -0.01 0.03 -0.01 0.03 0.01 0.02 0 0.01 0.01 0.07 0.05 0.05 0.07 0 0.03 0 0.04 -0.01 0.04 -0.01 0 0 0.01 -0.01 0 -0.01 0.02 -0.07 0.08 0.01 0.01 0 0 0.02 0.02 0 0.02 0.01 0.01 0 0.02 0.01 0.01 -0.01 0.03 -0.01 0.02 -0.01 0.01 -0.01 0.01 -0.01 0.01 0 0 0 0.01 -0.02 0.01 0 0 -0.02 0.02 -0.04 0.02 0 0 -0.05 0.04 -0.06 0.08 -0.03 0.08 0 0.04 0.01 0.03 0.01 0.04 -0.02 0 -0.02 0 -0.04 0 -0.05 0.01 -0.05 0.02 0 0 0.01 0.02 0 0.03 0 0 -0.01 0.06 -0.03 0.06 -0.02 0.01 0 0.01 0 0 -0.01 0.01 -0.02 0.03 -0.03 0.07 -0.06 0.16 -0.03 0.02 -0.09 0.01 -0.07 -0.01 -0.07 -0.02 -0.03 0 -0.02 0 -0.03 -0.01 -0.06 -0.04 -0.04 -0.07 -0.02 -0.05 -0.07 -0.09 -0.03 -0.03 -0.04 -0.02 -0.05 -0.02 -0.05 -0.01 -0.1 0.01 -0.75 -1.46 0.03 -0.08 0.05 -0.06 0.05 -0.05 0.06 -0.03 0.07 -0.03 0.08 -0.01 0.35 0.01 0.01 0 0.05 0 0.02 0 0 0 0.02 0 0.12 -0.01 0 0 0.02 0 0.15 -0.04 0.06 -0.03 0.01 -0.01 0.01 -0.01 0.03 -0.01 0.03 0 0.03 0 0.07 0.03 0.06 0.04 0.07 0.06 0.18 0.01 0.04 0 0 0 0.01 0 0.05 -0.01 0.03 -0.01 -0.08 -0.74 -0.01 -0.03 0.02 -0.02 0.02 -0.03 0.05 -0.02 0.06 0 0.02 0 0.06 0.02 0.03 0.03 0.01 0.02 0 0.04 -0.03 0.08 0.8 -0.38 0 -0.05 0.02 -0.05 0.03 -0.06 0.11 -0.13 0.3 -0.24 0.04 0.01 0.05 0.04 0.11 0.11 0.04 -0.01 0.04 -0.02 0.02 -0.02 0.01 -0.03 0 -0.02 -0.01 -0.01 0.01 0 0 -0.01 -0.01 -0.04 0.01 -0.01 -0.01 -0.02 -0.01 -0.04 -0.02 -0.06 0.02 -0.25 -0.02 -0.16 -0.19 -0.54 -0.02 -0.01 -0.03 -0.03 -0.03 -0.05 -0.02 -0.08 0 -0.04 -0.14 -0.45 -0.6 -1.27 -0.24 -0.66 -0.05 -0.12 -0.1 -0.27 -0.01 -0.06 -0.01 -0.06 0.01 -0.04 0.02 -0.04 -0.05 0.03 -0.28 -0.59 -0.35 -0.6 -0.1 -0.04 -0.07 -0.01 -0.08 0.01 -0.06 0.02 -0.06 0.03 -0.05 0.06 -0.03 0.06 -0.02 0.09 -0.31 0.59 0.19 0.03 0.16 -0.01 0.05 -0.02 0.02 -0.01 0.03 0 0.39 0.14 1.23 3.89 0.08 0.02 0.01 0.02 0.03 0.03 0.02 0.06 0.01 0.04 0 0.05 0 0.09 -0.07 0.06 -0.04 0.02 -0.02 0.03 -0.11 0.05 -0.05 0.01 -0.04 -0.01 -0.04 -0.01 -0.03 -0.02 -0.11 0.17 -0.03 0.01 -0.01 0.01 -0.03 0 -0.03 0.01 -0.03 0.01 -0.02 0 -0.14 0.03 0.01 -1.49 -0.22 -0.73 -0.33 -0.66 -0.45 -0.59 -0.55 -0.53 -0.02 0.01 -0.02 0 -0.02 -0.01 -0.02 -0.03 -0.03 -0.04 0.05 -0.13 0.01 -0.05 0.01 -0.01 0 -0.05 0.01 -0.02 0.02 -0.13 0 -0.03 0.01 -0.09 -0.04 -0.23 0 -0.01 0 -0.02 -0.01 -0.03 0 -0.01 -0.03 -0.09 -0.05 -0.13 -0.55 -1.03 -0.1 -0.13zm0.48 3.14l-0.04 -0.07 0.03 0.01 0.11 0.05 0.06 0.05 0.08 0.07 0.12 0.17 0.43 0.88 -0.22 -0.18 -0.21 -0.12 -0.21 -0.1 -0.16 -0.04 -0.05 -0.01 -0.03 -0.08 -0.01 -0.05 0 -0.1 0.03 -0.1 0.07 -0.18 0.02 -0.11 -0.02 -0.09zm0.69 1.37l0.03 -0.01 0.03 0 0.03 0.01 0.03 0.01 0.03 0.01 0.04 0.09 0.04 0.08 0.03 0.07 0 0.02 0.01 0.05 0 0.02 0 0.05 -0.01 0.06 -0.02 0.04 0 0.02 -0.02 0.03 -0.01 0.02 0.12 0.06 0.05 0.04 0.01 0.02 0 0.04 0.02 0.07 0.02 0.05 0.03 0.04 0.03 0.01 -0.06 0.41 0.14 0.45 0.05 0.04 0.09 0.06 0.04 0.02 0.16 -0.21 0.04 0.09 0 0.02 0 0 0 0.02 0.02 0.04 0 0.08 -0.01 0.05 0 0.02 -0.02 0.04 0 0.01 -0.02 0.02 0 0.01 -0.02 0.02 0 0.01 -0.02 0.01 -0.01 0.02 -0.02 0.01 -0.01 0.01 -0.07 0.04 -0.87 -0.76 0.04 -0.88 -0.03 -0.48 0.03 -0.03 0.06 -0.04zm-0.57 0.01l0.06 0.02 0 0.01 0.01 0 0.02 0.02 -0.11 1.02 -0.6 -0.02 -0.2 0.01 -0.06 0.01 -0.03 0.02 0 0.01 0.41 0.45 0.25 0.53 -0.21 0.81 -0.23 -0.35 -0.2 -0.42 -0.36 -1.06 0.07 0.02 0.03 0 0.03 0 0.03 -0.01 0.03 -0.02 0.05 -0.04 0.45 -0.13 0.05 -0.02 -0.01 0 0.05 -0.02 0.04 -0.03 0.05 -0.07 0 -0.03 0.02 -0.02 0.01 -0.05 -0.01 -0.09 0.01 -0.13 0.03 -0.09 0.01 -0.03 0 -0.02 -0.01 -0.03 -0.01 -0.02 -0.03 -0.04 -0.01 -0.03 0.03 -0.06 0.04 -0.05 0.06 -0.04 0.04 -0.02 0.13 0 0.07 0.01zm-1.22 -0.11l0.05 0.02 0.04 0.02 0.01 0.02 0.01 0.02 0.02 0.05 0 0.03 -0.01 0.16 -0.01 0.03 -0.01 0 0 0.02 -0.04 0.09 -0.04 0.04 -0.02 0.01 -0.02 0.02 -0.1 0.04 -0.14 -0.13 -0.07 -0.08 -0.07 -0.12 0 -0.06 0.02 -0.05 0.02 -0.05 0.03 -0.03 0.03 -0.03 0.05 -0.02 0.06 -0.01 0.13 0 0.06 0.01zm1.06 2.65l0 -0.03 0.02 -0.03 0.03 -0.07 0.02 -0.02 0.03 -0.03 0.05 -0.03 0.02 0 0.04 0 0.31 0.24 0 0.01 0.01 0.01 0.01 0.01 0.02 0.04 0 0.03 -0.01 0.03 -0.02 0.02 -0.01 0 0 0.01 0 0 -0.03 0.03 0 0.01 -0.02 0 -0.03 0.03 -0.03 0.02 -0.43 0.26 -0.02 -0.05 -0.01 -0.04 0.01 -0.02 0.03 -0.02 -0.01 0 0.05 -0.02 0.04 -0.03 0.02 -0.01 0.01 -0.01 0.01 -0.02 0.02 -0.01 0.02 -0.05 0 -0.02 0 -0.01 0 -0.01 -0.01 -0.01 0.01 0 -0.05 -0.04 -0.07 -0.08 -0.02 -0.03 -0.01 -0.04 0 -0.02zm2.03 2.16l0.02 -0.03 0.02 -0.03 0.04 -0.03 -0.01 -0.22 0.02 -0.1 0.02 -0.04 0.01 -0.03 0.03 -0.02 0.03 -0.01 0.03 0 0.03 0.01 0.05 0.01 0.09 0.05 0.1 0.1 0.03 -0.08 0.04 0 0.04 0 0.03 0.01 0.04 0.02 0.02 0.02 0.01 0.03 0.02 0.04 0.01 0.08 0.02 0.04 0.01 0.03 0.03 0.03 0.02 0.01 0.02 0.01 0.02 0 0.08 0.01 0.02 0.07 0.01 0.07 -0.01 0.06 -0.02 0.05 -0.11 -0.07 -0.02 0.07 -0.01 0.07 0.01 0.06 0.02 0.06 -0.21 -0.04 -0.02 -0.05 -0.01 -0.04 -0.01 -0.05 0.02 -0.08 0.01 -0.03 -0.03 -0.06 -0.02 -0.02 -0.03 -0.02 -0.04 -0.01 -0.04 -0.01 -0.07 0.13 -0.03 0.04 -0.03 0.03 -0.03 0.02 -0.03 0 -0.03 -0.02 -0.03 -0.02 -0.11 -0.04 -0.04 -0.02 -0.02 -0.02 -0.01 -0.04zm-1.09 2.86l-0.03 -0.02 -0.03 -0.03 0.14 -0.05 0.02 -0.01 0.03 0.01 0.05 0 0.02 0.06 -0.07 0.04 -0.03 0.01 -0.03 0.01 -0.04 -0.01 -0.03 -0.01zm2.6 3.69l-0.07 -0.06 -0.07 -0.07 -0.04 0.03 -0.02 0.02 -0.03 0.06 0 0.07 0.01 0.05 0.13 0.04 0.06 0 0.05 -0.01 0.03 -0.02 0.03 -0.02 0.03 -0.04 0.01 -0.05 -0.03 0.01 -0.03 0 -0.03 0 -0.03 -0.01zm-1.59 0.35l-0.01 0.03 -0.01 0.02 -0.02 0.05 -0.02 0.02 -0.01 0.02 -0.04 0.04 -0.03 0.02 -0.03 0.02 -0.13 0.06 -0.08 0.02 0.29 -0.07 0.04 -0.02 0.03 -0.02 0.05 -0.06 0.01 -0.03 -0.01 -0.01 0.01 0 0.01 -0.03 0 -0.08 -0.05 0.02zm1.92 -8.91l-0.03 -0.02 -0.02 -0.01 -0.02 0 -0.02 0.01 -0.02 0.01 -0.02 0.02 -0.02 0.03 -0.01 0.03 0.02 0.02 0.02 0.01 0.03 0 0.02 0 0.04 -0.04 0.03 -0.06zm-2.69 1.98l-0.05 0.04 -0.02 0.01 -0.02 0.05 0.31 0.03 0 0.08 0.03 -0.08 -0.03 0 0 -0.05 -0.05 -0.04 -0.05 -0.03 -0.02 -0.01 -0.02 0 -0.04 0 -0.04 0z"/>
   <path class="fil1" d="M52.28 119.41l-0.01 -0.03 -0.05 -0.01 -0.04 -0.01 -0.04 -0.02 -0.03 -0.03 -0.03 -0.03 -0.02 -0.05 -0.02 -0.05 0 -0.06 -0.03 -0.03 -0.03 -0.01 -0.03 -0.01 -0.03 -0.01 -0.03 0 -0.07 0.02 -0.03 0.02 -0.04 0.02 -0.04 0.02 -0.02 0.03 -0.01 0.03 -0.01 0.03 0.01 0.05 0.01 0.04 0.03 0.05 0.04 0.08 0.01 0.04 0 0.05 0 0.02 -0.01 0.02 -0.03 0.03 -0.01 0.02 -0.05 0.02 -0.05 0.03 -0.09 0.03 -0.07 0.04 -0.02 0.01 -0.04 0.05 -0.01 0.01 0 0.03 0 0.04 0.01 0.05 -0.04 0 -0.06 0.03 -0.05 0.04 -0.01 0.03 -0.01 0.03 -0.01 0.07 -0.02 0.02 -0.01 0.03 -0.02 0.02 -0.02 0.01 -0.02 0 -0.01 0.01 -0.06 0 0 0.02 -0.01 0.03 -0.01 0.01 -0.02 0.02 -0.05 0.03 -0.07 0.02 -0.02 0.04 -0.03 0.12 -0.01 0.09 0 0.01 0 0.01 0 0.02 -0.01 0.03 -0.03 0.04 -0.03 0.03 -0.19 0.07 -0.02 0.02 -0.01 0.03 -0.01 0.03 -0.01 0.03 0 0.04 0.02 0.06 0.04 0.07 0.01 0.03 0 0.03 0 0.03 -0.03 0.05 -0.05 0.05 -0.15 -0.01 0.01 0.02 0 0.03 -0.01 0.02 -0.02 0.02 -0.05 0.02 -0.09 0.02 -0.03 0.02 -0.02 0.02 -0.02 0.02 -0.01 0.02 0 0.02 0 0.01 0.01 0.02 0.01 0.02 0.02 0.03 -0.04 0.01 -0.03 0.01 -0.03 0.03 -0.02 0.03 -0.02 0.03 -0.01 0.05 -0.02 0.11 -0.17 0.37 0.01 0.05 0 0.04 -0.01 0.04 -0.01 0.05 -0.03 0.04 -0.03 0.04 -0.37 0.35 -0.04 0.03 -0.06 0.07 -0.05 0.06 -0.02 0.07 -0.01 0.05 -0.09 0.3 -0.03 0.02 -0.03 0.02 -0.02 0.03 -0.02 0.04 -0.01 0.01 -0.04 0.03 -0.02 0.01 -0.07 0.04 -0.02 0.1 -0.04 0.12 0 0.05 -0.02 0.05 -0.02 0.03 -0.06 0.08 -0.15 0.13 -0.12 0.25 0.01 0.04 0.01 0.03 0 0.03 -0.01 0.03 -0.01 0.01 -0.01 0 -0.01 0.02 -0.03 0 -0.03 0 -0.12 0.27 -0.01 0.03 -0.01 0.02 -0.01 0.07 0 0.02 0 0.03 -0.27 0.89 -0.02 0 -0.03 0.01 -0.02 0.01 -0.05 0.06 -0.05 0.08 -0.02 0.05 -0.14 0.5 -0.01 0.01 -0.01 0.08 -0.02 0.34 -0.02 0.01 -0.02 0.02 -0.02 0.04 -0.02 0.04 0 0.05 0.02 0.17 -0.03 0.02 -0.04 0.03 -0.02 0.05 0 0.04 0 0.08 0.05 0.15 0 0.04 -0.01 0.04 -0.01 0.03 -0.02 0.02 -0.03 0.02 -0.04 0.01 0 0.14 -0.01 0.12 -0.01 0.02 0 0 -0.01 0.03 -0.01 0.03 0 0.01 -0.02 0.04 -0.02 0.01 -0.01 0.02 0.13 0.36 0.03 0.06 0.02 0.06 0.01 0.06 0 0.05 -0.02 0.09 -0.06 0.07 0.03 0.08 0.03 0.08 0.02 0.09 0.03 0.36 0 0.03 0.01 0.02 0.02 0.04 0.02 0.03 0.02 0.02 0.04 0.02 0.03 0.02 0 0.02 0.01 0.01 0 0.02 -0.01 0.02 0 0.02 0.28 0.48 0.01 0.03 0.03 0.03 0.04 0.02 0.03 0 0 0 0.01 0 0.01 0 0.05 -0.04 0.02 0.06 0.03 0.01 0.04 0.01 0.02 0 0.05 0.01 0.17 -0.04 -0.04 -0.02 0.08 -0.06 0.07 -0.09 0.04 -0.07 0.01 -0.04 0 -0.04 -0.01 -0.04 -0.02 -0.03 0.08 -0.06 -0.01 -0.01 0 -0.01 0 -0.02 0 -0.01 0 -0.02 0.03 -0.08 -0.13 -0.26 0 -0.01 0.02 -0.01 0.01 -0.04 0.01 0 0 -0.01 0.06 -0.15 0.03 -0.09 0.05 -0.17 0.08 -0.3 0.01 -0.01 0.18 -0.52 -0.01 -0.01 0 -0.01 -0.01 -0.03 -0.01 -0.02 0.01 -0.09 0.08 -0.17 0.09 -0.11 0.07 -0.12 0.07 -0.27 -0.02 -0.01 -0.01 -0.01 0 -0.02 -0.01 -0.01 0.01 -0.02 0.02 -0.05 0.03 -0.02 0 -0.01 0 -0.05 0 -0.03 -0.03 -0.07 0.12 -0.05 -0.04 -0.07 -0.03 -0.06 -0.01 -0.03 0 -0.02 0.01 -0.04 0.03 -0.04 0.02 -0.01 0.02 -0.01 0.06 -0.01 0.08 0 -0.02 -0.06 0.01 -0.02 0.01 -0.01 0.02 0 0.02 0.01 -0.05 -0.08 -0.01 -0.02 -0.03 -0.15 0 -0.07 -0.01 -0.02 -0.03 -0.06 -0.04 -0.03 -0.03 -0.02 0.02 -0.01 0.04 -0.01 0.03 0 0.03 -0.01 0.07 -0.01 0.04 0 0.02 0 0.01 0 0.01 0 0.05 0 0.06 -0.02 0.07 -0.03 -0.02 -0.01 -0.01 -0.02 -0.01 -0.02 -0.01 -0.01 0 -0.03 0.02 -0.05 0.01 -0.03 0 -0.01 0 -0.02 0 -0.01 0.01 -0.01 0 -0.02 -0.01 -0.09 0 0 -0.01 -0.04 0.1 0 -0.01 -0.05 0 -0.04 0 -0.04 0.01 -0.04 0.02 -0.04 0.05 -0.05 0.02 -0.01 0.15 -0.08 0.07 -0.05 0.03 -0.04 0.01 -0.03 0.01 -0.04 0 -0.04 0.17 -0.57 -0.01 -0.02 0 0 0.01 -0.03 0.05 -0.07 0.11 -0.13 0.09 -0.09 -0.04 -0.12 0.01 0 0 0 0.02 0.01 0.02 0 0.02 -0.01 0.01 0 0 -0.01 0.01 0 0.02 -0.01 0 -0.01 0.01 0 0.01 -0.02 0.01 -0.03 0.01 0 0 -0.01 0.01 -0.03 0.02 -0.05 0.01 -0.01 0.01 -0.01 0.01 -0.01 0.01 -0.02 0.02 -0.02 0 -0.01 0.01 -0.02 0.01 -0.06 0.01 -0.01 0.01 -0.04 -0.01 -0.02 0.01 -0.03 0.03 -0.02 0.04 -0.03 0.03 -0.01 0 -0.02 0.02 -0.06 0.04 -0.06 0.06 -0.06 0.06 -0.05 0.03 -0.02 0.01 -0.03 0.01 -0.03 -0.01 -0.03 -0.01 -0.04 -0.04 -0.07 0.23 -0.4 0.26 -0.33 -0.04 -0.13 0.57 -0.59 -0.01 -0.02 -0.01 -0.02 0 -0.02 0 -0.03 0.01 -0.02 0.03 -0.05 0.04 -0.03 0.01 -0.01 0.01 -0.01 0.01 -0.01 0.01 -0.01 0.03 -0.04 0.01 -0.03 0 0 0.05 -0.07 0.01 -0.03 0.01 -0.02 0.02 -0.03 0 -0.03 0 -0.03 -0.01 -0.03 -0.01 -0.01 -0.01 -0.01 -0.03 -0.01 -0.01 -0.02 -0.01 -0.01 0 -0.02 0 -0.02 -0.06 -0.07 -0.01 -0.04 -0.01 -0.06 0.01 -0.08 0.04 -0.11 0.01 -0.02 0.01 -0.02 0.02 -0.03 0.01 -0.02 0.01 -0.02 0 -0.03 0.01 -0.09 0 -0.01 0 -0.02 -0.01 -0.07 -0.12 -0.29 -0.02 -0.08 0.01 -0.03 0 -0.02 0 -0.03 0 -0.12 0 0 0 -0.05 0.03 -0.02 0.01 -0.01 0 -0.01 0 0 0 -0.03 0 -0.02 -0.02 -0.05 -0.05 -0.23 0.06 -0.02 0.01 -0.02 0.01 -0.07 -0.01 -0.08zm-5.32 1.46l-0.07 -0.05 0 0 -0.01 0.02 -0.01 0.01 -0.03 0.03 -0.03 0.02 -0.01 0 -0.02 0.02 -0.01 -0.01 -0.03 0.01 -0.02 0 -0.01 0 -0.01 0 -0.01 -0.01 -0.03 -0.01 -0.05 -0.01 -0.06 -0.03 -0.1 -0.03 -0.08 0 -0.03 0.02 -0.02 0.02 -0.02 0.03 0 0.03 0.01 0.07 0.03 0.06 0.03 0.03 0.06 0.07 -0.24 0.4 0.01 0.02 0.01 0.04 0 0.02 0 0.02 -0.01 0.02 -0.03 0.03 -0.04 0.02 -0.07 0.02 -0.17 0.02 -0.03 0.15 -0.11 0.29 -0.02 0.06 -0.04 0.37 -0.03 0.03 0 0 -0.01 0 -0.04 0.02 -0.01 0 -0.01 -0.01 0 0.01 -0.01 0 -0.03 0 -0.03 -0.01 -0.01 0.01 -0.04 -0.01 -0.03 0.03 -0.03 0.06 -0.01 0.03 -0.01 0.07 0 0.08 -0.01 0.02 -0.01 0.03 -0.01 0.02 0 0.03 0.02 0.12 0.09 0.27 -0.03 0.05 -0.01 0.01 -0.01 0.03 -0.02 0.04 0 -0.01 -0.02 0.04 -0.01 0.01 -0.01 0.01 -0.01 0.01 -0.01 0.02 -0.02 0.01 -0.01 0.01 -0.01 -0.03 -0.04 -0.06 -0.04 -0.04 -0.05 -0.03 -0.03 -0.02 -0.01 0.03 -0.01 0.04 0 0.03 0 0.04 0.04 0.14 0.03 0.05 -0.06 0.02 -0.01 0.03 -0.01 0.03 0.01 0.03 0.01 0.04 0.02 0.03 0.03 0.03 0.08 0.07 -0.02 0.07 -0.05 0.05 -0.07 0.04 -0.1 0.03 -0.05 0.03 -0.03 0.04 -0.02 0.04 -0.01 0.04 0 0.06 0.01 0.05 0.03 0.07 0.04 0.07 -0.02 0.01 -0.02 0.02 -0.02 0.05 0 0.03 0 0.03 0 0.08 0.02 0.06 0 0.03 0 0 0.01 0.07 0 0.02 -0.01 0.01 0 0.02 -0.01 0.01 -0.01 0.01 -0.01 0.02 0.33 0.91 0.02 0.02 0.05 0.02 0.02 0.02 0.01 0.01 0 0.01 0.01 0.01 -0.01 0.01 -0.01 0.04 -0.02 0.1 0 0.16 0.01 0.06 0.01 0.03 0.03 0.05 0.03 0.03 0.01 0.01 0.02 0.01 0.05 0 0.14 -0.01 0.08 -0.02 0.01 -0.01 0.02 -0.01 0.02 -0.01 0.02 -0.01 0.01 -0.01 0.02 -0.02 0.02 -0.01 0.01 -0.01 0.06 -0.08 0.05 -0.09 0.05 -0.11 0.04 -0.12 0.07 -0.04 0.03 -0.02 0.01 -0.01 0 -0.02 -0.01 -0.01 -0.01 -0.02 -0.03 -0.01 0.2 -0.42 0.12 -0.1 0.06 -0.08 0.02 -0.04 0.02 -0.07 0.01 -0.03 0 -0.01 0.01 -0.04 0.01 -0.16 0.02 -0.01 0.02 0 0.05 -0.02 0.04 -0.04 0.03 -0.04 0.02 -0.06 0.01 -0.03 0.03 -0.11 0 -0.02 0.01 -0.07 0.02 -0.02 0.01 -0.02 0 -0.01 0.01 -0.03 0.01 -0.03 0 -0.04 0 0 0 -0.04 0 0 -0.02 -0.1 0 -0.31 0.09 -0.05 0.04 -0.03 0.01 -0.02 0.01 -0.01 0 -0.01 -0.01 -0.03 -0.02 -0.03 -0.03 -0.02 0.2 -0.18 0.09 -0.11 0.01 -0.03 -0.06 -0.63 0.01 -0.02 0.02 -0.02 0.02 -0.03 0.03 -0.07 0.01 -0.04 0.01 -0.23 0.02 -0.04 0.01 -0.03 0.02 -0.02 0.03 -0.02 0.04 -0.02 0.04 -0.01 -0.03 -0.01 -0.02 -0.03 -0.02 -0.02 0 -0.03 -0.01 -0.04 0.03 -0.08 0.02 -0.05 -0.16 -0.33 -0.11 -0.3 0.03 -0.17 0 -0.1 -0.01 -0.08 -0.03 -0.09 -0.01 -0.03 -0.05 -0.07 -0.06 -0.06zm-4.65 -1.67l0.01 0.02 0.01 0.06 0 0.07 -0.01 0.09 -0.04 0.04 -0.02 0.05 -0.03 0.09 -0.01 0.08 0 0.02 -0.01 0.02 -0.03 0.04 -0.03 0.04 -0.1 0.21 0.04 0 0.04 0.02 0.04 0.02 0.03 0.04 0.01 0.01 0 0.02 0.01 0.03 0 0.04 0.01 0.08 0.03 0.07 0.02 0.03 0.02 0.02 0.07 0.02 -0.04 0.02 -0.02 0.03 -0.01 0.02 -0.01 0.07 0.02 0.09 0.02 0.06 0.04 0.1 0.01 0.09 0 0.04 -0.01 0.03 -0.01 0.02 -0.02 0.03 -0.08 -0.06 -0.06 -0.06 -0.03 0 -0.03 0.02 -0.04 0.03 -0.07 0.11 -0.13 0.25 0.04 0.02 -0.04 0.01 -0.06 0.03 -0.03 0.02 -0.02 0.02 -0.01 0.03 -0.01 0.02 -0.01 0.04 -0.01 0.25 0.01 0.02 0.01 0.02 0 0.03 0.01 0.03 -0.02 0.07 -0.03 0.07 -0.16 0.03 0 0.1 0.07 0.02 0.04 0.01 0.07 0.03 0.11 0.08 0 0.01 0 0.03 0 0.06 0.01 0.1 -0.57 0.14 -0.17 -0.07 -0.08 0.16 -0.05 0.03 -0.04 0.03 -0.02 0.04 0 0.02 -0.01 0.08 -0.03 0.11 -0.02 0.06 0.02 0.02 0.03 0.01 0 0.01 0.03 0.01 0.04 0.01 0.04 -0.01 0.02 0 0.02 -0.01 0.01 -0.01 0.1 -0.04 0.02 0 0.02 0 0.08 0 0.02 0.01 0.03 0.01 0.02 0.02 0.01 0.02 0.01 0.02 0 0.02 0.01 0.03 -0.01 0.06 -0.02 0.06 -0.03 -0.02 -0.03 0 -0.03 0 -0.07 0.02 -0.06 0.05 -0.03 0.04 -0.06 0.05 -0.01 0.01 -0.02 0.01 -0.03 0.02 -0.06 0.01 -0.06 -0.01 -0.02 0.06 -0.05 0.05 -0.07 0.04 -0.1 0.04 -0.16 0.02 -0.15 0.05 -0.04 0.02 0 0.02 0 0.04 0 0.02 0.03 0.08 -0.05 0 -0.05 0.02 -0.05 0.01 -0.07 0.07 -0.04 0.04 -0.06 0.12 -0.16 0.13 -0.02 0.02 -0.01 0.01 -0.01 0.02 -0.04 0.03 -0.03 0.01 -0.01 0 0 0 -0.02 0.01 -0.06 0 -0.02 0.03 -0.01 0.01 -0.01 0.01 -0.01 0.01 -0.01 0.01 -0.02 0.01 -0.02 0 -0.02 0 -0.01 0 -0.02 0 -0.01 0 -0.02 -0.01 -0.09 0 -0.18 0.03 -0.11 0.45 0.03 0.02 0.03 0.02 0.02 0.03 0.02 0.03 0.07 0.18 0.01 0.02 0.06 0.06 0.12 0.21 0.13 0.32 0.17 0.08 0.19 0.24 0.05 0.02 0.07 0.05 0.03 0.04 0.02 0.02 0.01 0.04 0.01 0.07 0.02 0.01 0.02 0.02 0.03 0.01 0.03 0.01 0.09 -0.01 0.1 -0.01 0.04 0.04 0.04 0.03 0.03 0.01 0.1 0.02 0.24 0.01 0.08 -0.06 0.02 0.02 0.02 0.01 0.05 0.02 0.03 0.01 0.16 -0.01 0.2 0.02 0.17 -0.27 0.31 -0.22 0.34 -0.29 -0.02 -0.03 -0.01 -0.02 0 -0.01 0 -0.01 0.01 -0.03 0.02 -0.01 0.01 -0.02 0.04 -0.04 0.03 -0.01 0.03 -0.02 0.1 -0.05 -0.15 -0.33 0.03 -0.01 0.02 0 0.02 0 0.08 -0.01 0.16 0.01 0.04 -0.08 0.36 -0.54 0.07 -0.04 0.02 -0.02 0.02 -0.02 0 -0.03 0 -0.01 -0.02 -0.03 -0.02 -0.02 0.03 -0.02 0.01 -0.02 0 0 0.01 -0.01 0.02 -0.05 0.01 -0.06 0.01 -0.03 0.07 -0.07 0.02 -0.01 -0.01 -0.02 0.01 -0.02 0.02 -0.1 0.17 -0.38 0.08 -0.04 0.06 -0.05 0.02 -0.03 0.02 -0.02 0.01 -0.04 0.01 -0.03 -0.01 -0.09 -0.03 -0.07 -0.02 -0.03 -0.04 -0.03 -0.02 0 -0.03 0 -0.04 -0.06 -0.01 -0.02 0 -0.02 0 -0.01 0 -0.03 0.01 -0.03 0.01 -0.01 0.01 -0.01 0.02 -0.02 0.02 0 0.04 -0.02 0.28 -0.17 -0.01 -0.04 -0.01 -0.1 0.01 -0.07 -0.04 -0.04 -0.03 -0.04 -0.02 -0.04 -0.01 -0.03 -0.01 -0.05 0.01 -0.09 0.01 -0.03 0.01 -0.04 0.06 -0.12 0.02 -0.06 0.01 -0.11 -0.01 -0.05 -0.01 -0.03 -0.01 -0.03 -0.04 -0.05 -0.04 -0.05 -0.03 -0.36 0.01 -0.35 -0.25 -0.22 -0.01 -0.03 -0.01 -0.02 -0.01 -0.02 -0.03 -0.02 -0.02 -0.02 -0.07 -0.02 -0.08 -0.02 -0.03 -0.01 -0.01 -0.01 -0.02 -0.01 -0.01 -0.03 0 -0.02 0.01 -0.02 0.01 -0.03 0.12 -0.05 -0.04 -0.06 -0.03 -0.07 -0.02 -0.1 0 -0.11 -0.02 -0.08 -0.02 -0.07 -0.04 -0.06 -0.05 -0.05 0.02 -0.03 0 -0.01 0.01 -0.01 0 -0.01 0.01 -0.01 0 -0.03 -0.01 -0.09 -0.02 -0.06 -0.13 -0.26 0.13 0.06 0.02 -0.05 -0.09 -0.24 -0.02 -0.02 -0.04 -0.02 -0.06 -0.01 -0.17 0.01 -0.37 0.08 -0.08 0.02 0.02 0.02zm0.01 3.74l0.03 0.01 -0.2 0.11 0.02 -0.04 0.04 -0.06 0.05 -0.02 0.03 0 0.03 0zm-0.43 0.15l0.01 0.12 0.01 0.04 -0.21 -0.09 0.06 -0.13 0.13 0.06zm-1.23 2.41l0 -0.09 0.01 -0.03 0.01 -0.02 0.1 0 -0.01 0.09 -0.03 0.09 -0.08 -0.04z"/>
   <path class="fil1" d="M66.83 123.66l-0.08 -0.15 -0.21 -0.26 -0.19 -0.18 -0.22 -0.15 -0.65 -0.22 -0.02 0.2 0 0.08 0.01 0.09 0.15 0.35 0.01 0.08 -0.01 0.1 -0.04 0.21 -0.16 0.38 -0.53 0.97 -0.48 0.29 -0.48 -0.08 -0.13 0 -0.08 0.02 0.21 -0.88 0.06 -0.95 -0.11 -0.17 -0.14 -0.17 -0.18 -0.15 -0.06 -0.05 -0.4 -0.23 -0.09 -0.04 -0.07 0.06 -0.02 0.01 -0.02 0.01 -0.02 0.02 -0.01 0.01 -0.03 0.01 -0.05 0.03 -0.09 0.03 -0.2 0.03 -0.11 0 -0.04 -0.01 -0.01 0 -0.4 -0.06 -0.19 -0.01 -0.15 0.02 -0.12 0.03 -0.09 0.04 -0.08 0.06 -0.07 0.07 -0.04 0.07 -0.02 0.05 -0.03 0.15 0 0.05 0.06 0.43 0.01 0.01 0 0.01 0.02 0.14 0 0.02 -0.01 0.01 0.02 0.09 -0.01 0.2 -0.01 0.07 0 0.01 -0.02 0.05 -0.03 0.05 -0.05 0.12 -0.01 0.08 0 0.06 -0.01 0.02 0 0.01 0 0.08 -0.01 0.05 0.01 0 -0.03 0.08 -0.01 0.02 0 0.01 -0.01 0.02 -0.01 0.01 -0.03 0.01 -0.05 0.05 -0.03 0.07 -0.04 0.16 0.37 0.61 0 0.01 0 0.01 0 0.02 -0.01 0.05 -0.02 0.03 -0.01 0.01 -0.01 0.02 -0.02 0 -0.02 0.01 -0.01 0 -0.01 0 -0.01 0.01 -0.01 0 -0.02 0 -0.04 0 -0.05 0 -1.39 0.29 -0.02 0 -0.2 0 -0.05 0 -0.26 -0.04 -0.02 -0.01 -0.02 -0.02 -0.02 -0.02 -0.01 -0.02 0 -0.03 0 -0.08 0.01 -0.05 -0.09 -0.12 -0.03 0.01 -0.02 0.02 -0.02 0.02 -0.04 0.08 -0.11 0.29 -0.12 0.59 0.42 0.93 0.05 0.03 0.15 0.08 0.25 0.07 0.32 0.03 0.37 -0.01 0.67 -0.42 0.06 0.02 0.04 0.02 0.04 0.02 0.01 0.01 0.02 0.01 0.01 0.04 0.01 0.03 -0.01 0.05 -0.01 0.05 -0.17 0.34 -0.34 0.42 0 0.03 -0.01 0.02 0 0.02 -0.02 0.06 -0.02 0.03 -0.02 0.04 -0.25 0.39 -0.32 0.66 -0.12 0.2 -0.06 0.06 -0.04 0.05 -0.56 1.02 -0.59 0.92 -0.05 0.02 -0.1 0.06 -0.06 0.07 -0.02 0.04 -0.02 0.04 -0.01 0.04 -0.87 1.02 -0.34 0.1 -0.25 0.22 0.12 0.14 0.15 0.11 0.19 0.08 0.22 0.06 0.04 -0.04 0.1 -0.07 0.1 -0.03 0.05 -0.01 0.11 0.01 0.53 -0.34 0.56 -0.43 0.05 0.01 -0.07 0.41 0.08 0.45 0.16 0.15 0.06 0.04 0.01 0.01 0.1 0.05 0.05 0.02 0.02 0 0 0.01 0.03 0.01 0.83 0.14 0.03 -0.03 0.02 -0.02 0.04 -0.01 0.03 0 0.02 0.01 0.03 0.02 0.01 0.02 0.03 0.05 0 -0.03 0.02 -0.02 0.04 -0.04 0.05 -0.03 0.03 -0.02 0.06 -0.03 0.22 -0.08 0.25 -0.22 0.41 -0.2 0.08 0.12 0.24 -0.04 0.09 -0.03 0.03 -0.01 0.06 -0.03 0.02 -0.02 0.01 0 0.03 -0.01 0.12 -0.08 0.23 -0.19 0.77 -0.81 0.16 -0.1 0.03 -0.02 0.01 0.04 0.01 0.06 -0.01 0.17 0 1.5 0.05 0.3 0.13 0.36 0.09 0.16 0.1 0.14 0.11 0.12 0.21 0.16 0.33 -0.05 0.1 0.01 0.2 -0.02 0.1 -0.02 0.2 -0.08 0.07 -0.04 0.03 -0.01 0.09 -0.06 0.1 -0.07 0.02 -0.03 0.07 -0.05 0.17 -0.19 0.02 0 0.01 -0.02 0.08 -0.1 0.02 -0.03 0.07 -0.09 0.13 -0.2 0 -0.01 0.04 -0.05 0.19 -0.51 0.16 -0.56 0 0 0.02 0.01 0.01 -0.01 0.01 0 0.04 -0.02 0.01 -0.02 0 -0.01 0.02 -0.02 0.03 -0.12 0.03 -0.05 0.04 -0.04 0.06 -0.04 0.36 0.06 0.06 -0.01 0.07 -0.01 0.19 0.03 0.81 0.3 0 0.02 0.01 0.03 0.04 0.05 0.03 0.02 1.58 1.17 0.14 0.12 0 0 0.3 0.32 0.02 0.03 0.04 0.08 0.03 0.08 0.02 0.07 0.02 0.03 0.07 0.05 0.03 0.02 0.24 0.08 0.03 0.01 0.02 0.02 0.03 0.03 0 -0.05 0.1 0.03 0.05 0.02 0.05 0.04 0.2 -0.18 0.06 -0.69 -0.03 -0.1 -0.09 -0.19 -0.12 -0.18 -0.95 -0.97 -1.08 -0.83 -0.86 -0.58 -0.01 0.05 -0.78 -0.4 -0.36 -0.07 -0.11 -0.06 -0.05 -0.06 -0.01 -0.01 -0.01 -0.03 -0.01 -0.02 0.01 -0.05 0 -0.06 0.01 -0.03 0.01 -0.02 0.04 -0.53 0.96 -0.38 0.2 -0.11 0.06 -0.04 -0.01 -0.04 0 -0.07 0.01 -0.07 0.03 -0.09 0.18 -0.33 0.01 -0.11 -0.04 -0.12 -0.06 -0.12 -0.09 -0.12 -0.36 -0.38 -0.44 -0.26 -0.05 -0.04 -0.07 -0.05 -0.04 -0.01 -0.04 -0.01 -0.08 -0.01 -0.04 0.01 -0.1 0.02 -0.2 0.11 -0.15 0.13 -0.07 0.48 -0.01 0.11 0.01 0.02 0.01 0.02 -0.2 0.47 -0.03 0.05 -0.06 0.09 -0.05 0.06 0 0.01 -0.06 0.05 -0.06 0.05 -0.61 0.58 -0.22 0.15 -0.09 0.04 -0.07 0.01 -0.01 -0.02 -0.01 -0.04 0.01 -0.05 0.02 -0.06 0.03 -0.03 -0.05 -0.13 -0.02 -0.24 0.04 -0.22 0.1 -0.2 0.08 -0.09 0.7 -0.63 0.01 -0.05 0.02 -0.16 -0.01 -0.2 -0.05 -0.16 -0.15 -0.26 -0.52 -0.04 -0.03 -0.02 -0.07 -0.03 -0.2 -0.02 -0.07 0.01 -0.03 0.01 -0.01 -0.01 0 0 0 -0.01 0 -0.04 0 -0.02 -0.06 0.05 -0.03 -0.02 -0.03 -0.01 -0.03 0 -0.11 0.01 -0.08 0.04 -0.14 0.07 -0.09 0.03 -0.04 0 -0.03 0 -0.05 -0.01 -0.03 -0.02 -0.03 -0.02 -0.03 -0.03 -0.01 -0.02 -0.01 -0.01 -0.01 -0.04 0 -0.05 0.01 -0.04 0.02 -0.09 0.01 -0.02 0.32 -0.32 0.23 -0.18 0.16 -0.06 0.03 -0.01 0.43 0.02 0.48 -0.29 0.02 0.03 0.04 0.04 0.13 0.07 0.06 -0.09 0.53 0.04 0 0.01 0 0.01 0.01 0.01 0.01 0.01 0.03 0.01 0.05 0.02 0.36 -0.26 0.03 -0.01 0.01 -0.01 0.01 -0.01 0.05 -0.04 0 -0.03 0 0 0.01 -0.01 0.01 -0.02 0 0 0.01 -0.02 0.02 -0.09 0.1 -0.25 -0.01 -0.02 -0.01 -0.02 -0.01 -0.03 0 -0.05 0.01 -0.04 -0.05 -0.1 -0.05 -0.09 -0.07 -0.07 -0.12 -0.1 -0.09 -0.05 -0.11 -0.04 -0.18 -0.04 -0.11 -0.29 0.24 -0.32 0.19 -0.33 0.1 -0.22 0.03 -0.12 0.08 -0.35 0.01 -0.12 0 -0.35 -0.14 -0.32zm-3.48 3.39l0.23 -0.13 0.06 -0.02 0.27 -0.06 0.14 -0.01 0.05 -0.03 0.03 -0.02 0.04 -0.01 0.03 0.01 0.02 0 0.02 0.02 0.01 0.03 0.01 0.04 0.01 0.17 0.02 0.11 0.01 0.02 0.01 0.03 -0.04 0.13 -0.01 0.02 -0.01 0 0 0.01 -0.02 0.02 -0.01 0.02 -0.09 0.08 -0.02 0.03 -0.08 0.07 -0.66 1 0.07 0.55 0 0.04 0.01 0.02 0.02 0.05 0.02 0.08 0.03 0.07 0.04 0.07 0.06 0.07 0.03 0.03 0.11 0.09 0.21 0.11 -0.09 -0.02 -0.15 0 -0.11 0.03 -0.04 0.03 -0.04 0.04 -0.02 0.05 0.01 0.05 0.04 0.09 0.05 0.06 0.11 0.1 -0.05 0.27 -0.05 0.14 -0.21 0.46 -1.08 1.57 -0.13 0.13 0.44 -1.26 0.01 -1.26 -0.03 -0.27 -0.07 -0.23 -0.58 -1.14 0.23 -0.38 0.18 -0.4 0.05 -0.08 0.15 -0.15 0.18 -0.13 0.22 -0.11 0.13 -0.04 0.09 -0.12 0.14 -0.14zm-2.06 2.81l0.04 0.02 0.02 0.83 -0.13 0.94 -0.18 0.74 -0.06 0.14 -0.14 0.2 -0.36 0.33 -0.16 0.11 -0.03 0 -0.02 0 0 0 -0.04 -0.01 -0.04 -0.02 -0.04 -0.02 -0.04 -0.05 -0.08 -0.1 -0.08 -0.15 -0.06 -0.19 -0.02 -0.11 -0.01 -0.16 0.03 -0.15 0.04 -0.16 0.07 -0.16 0.79 -1.21 0.04 -0.08 0.02 -0.02 0.01 -0.03 0.01 -0.02 0.02 -0.04 0.02 -0.05 0.12 -0.22 0.08 -0.23 0.02 -0.05 0.03 -0.04 0.06 -0.04 0.04 0 0.03 0zm4.67 1.63l-0.01 0 0 0.04 -0.02 0.03 0 0.01 0 0.03 -0.01 0 -0.01 0.01 0 0.01 -0.01 0 0 0.01 -0.01 0.01 -0.01 0 0 0 0 0 -0.43 0.03 -0.47 -0.08 0.54 -0.01 0.44 -0.13 0 0.04zm-1.15 1.08l0.4 0.08 0.05 0.02 0.03 0.02 0.02 0.01 0.02 0.02 0.02 0.03 0.02 0.04 0.02 0.1 -0.77 1.05 -0.01 0.04 -0.06 0.05 0.07 -0.09 0.09 -0.97 0.07 -0.31 0.03 -0.09z"/>
   <path class="fil1" d="M77.65 123.18l-0.44 0.2 -0.13 0.09 -0.23 0.21 -0.02 0.02 -0.02 0.03 -0.01 0 -0.01 0.01 -0.01 0.01 -0.02 0.01 -0.02 0 -0.01 0.01 -0.04 0 -0.02 0 -0.02 0.01 -0.05 0 -0.03 0.01 -0.1 0.05 -0.02 0.02 0.03 0.04 0.16 0.14 0.29 0.1 0.64 0.46 0.07 0.07 0.11 0.17 0.08 0.2 0.02 0.12 0.02 -0.03 0.02 -0.02 0.02 0 0.03 0.01 0.02 0.01 0.02 0.02 0.05 0.09 0.05 -0.04 0.24 -0.13 0.02 0.03 0.04 0.03 0.03 0.01 0.06 0.01 0.08 -0.01 0.31 -0.05 0.02 -0.02 0.02 -0.01 0.04 -0.03 0.02 -0.04 0.01 -0.02 0.01 0 0.01 -0.03 0 -0.01 0.01 -0.04 0 -0.04 0 0 0.01 -0.02 -0.01 -0.14 0 -0.03 0 -0.01 0.01 -0.02 -0.01 -0.03 0.01 0 -0.01 -0.03 -0.01 -0.06 0 -0.01 -0.03 -0.07 -0.01 -0.04 0 -0.06 0.02 -0.04 0.03 -0.03 0.03 0 -0.01 -0.06 -0.13 -0.49 -0.05 -0.12 -0.05 -0.1 -0.04 -0.04 -0.06 -0.07 -0.06 -0.05 -0.03 -0.01 0 -0.03 0 -0.03 -0.01 -0.03 -0.01 -0.02 -0.05 -0.05 -0.02 -0.01 -0.05 -0.02 -0.33 -0.05 -0.09 0.12 -0.07 -0.09 -0.32 0.07zm8.07 0.14l-0.03 -0.08 -0.01 -0.05 -0.1 0.02 -0.06 -0.05 -0.32 0.06 -0.13 0 -0.19 -0.05 -0.04 0.01 -0.09 0.06 -0.03 0.03 -0.04 0.02 -0.33 0.24 -0.02 0.01 -0.07 0.05 -0.02 0.01 -0.04 0.04 -0.05 0.05 -0.04 0.02 -0.08 0.09 -0.03 0 -0.02 0 -0.02 -0.01 -0.01 -0.02 -0.01 -0.02 0 -0.06 0.01 -0.03 -0.01 -0.32 -0.05 -0.31 0 -0.07 -0.01 -0.07 -0.02 -0.03 0 -0.01 -0.08 -0.13 -0.2 -0.23 -0.07 -0.02 -0.13 -0.03 -0.12 0.01 -0.06 0.02 -0.05 0.02 -0.05 0.03 -0.31 0.06 -0.45 0.45 0.08 0.47 -0.02 0.48 -0.03 0.02 -0.03 0.03 -0.02 0.03 -0.03 0.09 0 0.11 0.01 0.06 0.01 0.37 0.04 0.02 0.03 0.03 0.01 0.03 0 0.03 0 0.03 -0.02 0.04 -0.06 0.09 -0.1 0.72 -0.05 0.15 -0.06 0.11 -0.09 0.09 0.02 0.02 0 0.03 0.01 0.03 -0.01 0.03 -0.02 0.08 -0.06 0.08 0.01 0.03 -0.01 0.03 -0.01 0.08 -0.14 0.31 -0.05 0.13 0 0.07 0 0.03 -0.02 0.02 -0.06 0.05 -0.11 0.14 -0.03 0.04 -0.1 0.34 -0.2 0.36 -0.11 0.05 -0.03 0.01 -0.03 0.02 -0.02 0.01 -0.03 0.01 -0.02 0.01 -0.07 0.01 -0.03 0 -0.02 -0.01 -0.05 -0.31 -0.03 -0.47 0.03 -0.02 0.02 0 0.02 -0.01 0.05 -0.05 0.01 -0.03 0.01 -0.02 0.01 -0.02 0.02 -0.1 0.02 -0.03 0.02 -0.02 0.05 -0.04 0.05 -0.03 0.05 -0.02 0.5 -0.78 0 -0.03 0 -0.06 0.01 -0.07 0.03 -0.08 0.02 -0.04 0 -0.05 -0.01 -0.06 -0.01 -0.04 -0.05 -0.07 -0.03 -0.03 0.04 -0.06 -0.02 0.01 -0.02 -0.01 -0.03 -0.01 -0.01 -0.01 -0.02 -0.02 -0.02 -0.06 -0.01 -0.03 -0.08 -0.1 -0.11 -0.08 0.01 -0.03 -0.01 -0.03 0 -0.03 -0.01 -0.02 -0.01 -0.03 -0.04 -0.04 -0.06 -0.05 -0.03 -0.04 -0.08 -0.12 -0.06 0 -0.06 0 -0.05 -0.02 -0.04 -0.03 -0.02 -0.02 -0.01 -0.02 -0.03 -0.04 -0.02 -0.03 -0.02 -0.11 -0.02 -0.01 -0.01 -0.03 0.01 -0.05 0.02 -0.04 0.02 -0.03 0.01 -0.04 0 -0.02 0 0 0 -0.03 -0.01 -0.05 -0.01 -0.02 -0.01 -0.01 0 0 -0.01 -0.04 -0.33 -0.32 -0.03 0 -0.11 -0.01 -0.06 0.01 -0.13 0.03 -0.12 0.07 -0.42 0.38 0.09 0.52 -0.05 0.02 -0.02 0.01 -0.03 0.05 -0.02 0.02 -0.01 0.04 0 0.04 -0.02 0.02 -0.02 0.01 0 0.02 0 0.02 0 0.02 0.02 0.02 0.02 0.02 0.02 0.02 0.03 0.06 0.02 0.06 0.01 0.03 -0.01 0.11 0.07 0.08 0.06 0.09 0.04 0.08 0.02 0.1 0.01 0.08 -0.01 0.1 -0.04 0.15 -0.02 0.05 0.06 0.23 0.06 0.11 0.03 0.04 0.04 0.03 0.05 0.03 -0.57 0.74 -0.11 0.04 -0.18 0.1 -0.14 0.11 -0.1 0.11 -0.03 0.06 -0.21 0.04 -0.37 0.33 -0.03 0.02 -0.28 0.28 -0.04 0.03 -0.04 0.02 -0.03 0.02 -0.04 0 -0.04 -0.01 -0.04 -0.02 -0.04 -0.02 -0.09 -0.03 -0.08 -0.05 -0.07 -0.08 -0.08 -0.11 -0.1 0.02 -0.01 -0.03 -0.02 -0.02 0 -0.01 -0.01 -0.01 -0.03 -0.03 -0.16 0.03 -0.01 -0.02 -0.01 -0.02 -0.02 0 -0.02 0 -0.1 0.02 -0.46 -0.19 -0.31 -0.21 0 0 0 0.01 0 0.01 -0.01 0 0 0.01 -0.01 0 0 0.01 -0.01 0.01 -0.02 0.01 -0.02 0 0 0 -0.02 0.01 0.02 0.11 0.07 0.22 0.06 0.09 0.05 0.05 0.05 0.04 0.06 0.02 -0.1 0.07 0.11 0.17 0.04 0.1 0.08 0.28 0.05 0.1 0.13 1.04 -0.01 0.03 -0.01 0.07 0.02 0.08 0.03 0.08 0.02 0.05 0.03 0.04 0.02 0.05 0.05 0.17 -0.02 0.02 -0.01 0.03 -0.01 0.03 0 0.03 0.01 0.02 0.02 0.03 0.01 0.02 0.05 0.03 0.03 0.03 0 0.01 0 0.01 0.01 0.02 -0.01 0.02 -0.02 0.02 -0.01 0.01 -0.01 0.01 -0.03 0.03 -0.01 0.02 0 0.03 0 0.06 0.02 0.07 0.04 0.08 0.02 0.04 0.01 0.02 0.01 0.03 0 0.06 -0.01 0.05 0.25 1.4 -0.03 0.02 -0.03 0.04 -0.01 0.06 0 0.07 0 0.04 0 0.01 0 0.02 -0.01 0.01 0 0.03 -0.06 0.1 0.03 0.02 0.03 0.03 0.03 0.02 0.01 0.03 0.01 0.07 -0.02 0.08 -0.01 0.02 -0.01 0.02 0 0.06 0.02 0.17 -0.02 0.01 0 0.02 -0.01 0.05 0.01 0.19 -0.01 0.05 -0.05 0.12 0.05 -0.01 -0.01 0.03 -0.01 0.01 0 0.13 0.01 0.04 0 0.05 0.08 0.48 -0.03 0.03 -0.02 0.03 -0.01 0.02 0 0.03 0.01 0.03 0.02 0.02 0.03 0.02 0.04 0.02 -0.02 0.04 -0.01 0.05 0.01 0.13 0.01 0.01 0.01 0.02 0.02 0.02 0 0.02 0 0.14 0.02 0.07 0.03 0.08 0.05 0.07 0.06 0.07 0.15 0.24 0.03 0.04 0.05 0.04 0.1 0.05 0.03 0.01 0.02 0.01 0.04 0.03 0.03 0.04 0.01 0.02 0 0.03 0.03 -0.02 0.02 -0.01 0.05 0 0.06 0.01 0.06 0.03 0.52 -0.09 0 0 0.02 -0.01 0.01 0 0.01 -0.01 0.03 -0.03 0 -0.03 0 -0.01 0 -0.02 0.01 -0.03 -0.01 -0.03 0 0 0 -0.03 0.02 -0.03 0.03 -0.03 0.04 -0.03 -0.02 -0.64 -0.04 -0.2 -0.03 -0.06 -0.02 -0.05 0.08 -0.71 -0.03 -0.2 -0.01 -0.02 -0.03 -0.05 -0.09 -0.07 0 0 0.02 -0.01 0.02 -0.01 0.03 -0.02 0.01 -0.04 0 -0.02 0 -0.02 0 0 0 -0.04 0.01 -0.08 0.02 -0.05 -0.02 -0.1 0.16 -0.3 0.1 -0.33 -0.07 -0.42 -0.39 0.5 -0.24 0.52 -0.04 0 -0.06 0.03 -0.05 0.03 -0.03 0.05 -0.01 0.03 0.01 0.05 -0.01 0.05 -0.06 0.12 -0.05 -0.01 -0.05 -0.01 -0.04 -0.02 -0.02 -0.02 -0.02 -0.02 -0.01 -0.04 -0.01 -0.01 0 -0.03 0 -0.02 0 -0.05 0.04 -0.11 0 -0.04 0 -0.05 -0.01 -0.03 -0.02 -0.03 -0.03 -0.03 -0.04 -0.02 0.04 -0.04 0 -0.02 0.01 0 0 -0.03 -0.01 -0.06 0 -0.02 0 -0.01 -0.02 -0.03 -0.02 -0.02 -0.01 -0.02 -0.02 -0.02 -0.04 -0.15 -0.01 -0.04 0.03 -0.21 -0.01 -0.05 -0.01 -0.08 -0.02 -0.04 -0.01 -0.37 0 0 0.02 0 0.02 -0.02 0 0 0 0 0.01 -0.01 0 0 0.01 -0.01 0 -0.02 -0.01 -0.01 -0.02 -0.04 0 -0.03 0.01 -0.09 0.02 -0.05 -0.12 -0.03 0.01 -0.03 0 -0.01 0.04 -0.02 0.1 -0.02 -0.05 -0.58 -0.02 -0.04 -0.01 -0.07 -0.01 -0.06 0 -0.05 0.02 -0.07 0.03 -0.04 0.03 -0.04 0.05 -0.02 -0.03 -0.24 0 -0.1 0.01 -0.08 -0.01 -0.02 -0.01 -0.06 0 -0.07 0.07 -0.42 0.13 -0.53 -0.03 -0.03 -0.02 -0.02 -0.01 -0.02 -0.07 -0.36 0.01 -0.05 0.04 -0.03 0.06 -0.02 0.03 -0.01 0.02 0.02 0.01 0.01 0.04 0.02 0.11 0.03 0.04 -0.03 0.06 -0.02 0.05 0 0.28 0.04 0.02 0.01 0.15 0.02 0.12 0.01 0.01 -0.01 0.02 0 0.41 -0.07 0.03 -0.01 0.01 0 0.01 0 0.1 -0.05 0.05 -0.03 0.41 -0.39 0.14 0.03 0.19 0.02 0.08 0.73 -0.03 0.09 -0.05 0.08 -0.18 0.2 -0.43 0.56 -0.54 0.57 0 0.06 0 0.04 0 0.01 0 0.01 -0.01 0.02 0 0.01 0 0.01 -0.01 0.01 0 0.02 -0.02 0.02 -0.01 0.01 -0.04 0.02 -0.04 0 -0.02 0.01 -0.01 0 -0.01 0 -0.07 0.54 0.02 0.08 0 0.09 -0.04 0.11 -0.07 0.11 -0.03 0.04 -0.04 0.09 -0.01 0.08 0 0.04 0.01 0.04 0.02 0.04 0 0.05 0.02 0.06 0.03 0.05 0.12 0.1 0.28 0.14 -0.01 -0.05 0.12 0.09 0.08 0 0.09 -0.01 0.19 -0.06 0.35 0.16 0.31 -0.06 0.01 -0.02 0.01 -0.02 0 -0.01 0 -0.01 0 0 0.01 -0.01 -0.01 -0.02 0.01 -0.03 -0.01 -0.04 0.02 -0.03 0.02 -0.01 0.01 -0.02 0.01 -0.01 0 -0.01 0.02 -0.01 0 -0.02 0.02 -0.04 0.01 -0.06 0 -0.07 -0.02 -0.17 0 -0.01 -0.02 -0.09 -0.04 -0.09 -0.03 -0.11 0 -0.04 0.01 -0.13 0.03 -0.07 0.04 -0.05 0.05 -0.05 0.11 0.62 0.06 0.63 0.01 0.02 0.01 0.02 0.02 0 0.02 0 -0.01 0.02 -0.01 0.02 0 0.03 0.01 0.19 0.02 0.12 0 0.04 0 0.01 0 0.01 -0.01 0.04 0 0 0 0 0 0.01 -0.01 0.02 -0.01 0.02 -0.03 0.02 -0.03 0.01 -0.02 0 -0.01 -0.01 0 0.01 -0.08 1.08 0.63 0.66 0.18 0.15 0.08 0.06 0.07 0.03 0.16 -0.03 0.06 -0.23 -0.23 -0.38 -0.28 -0.38 -0.09 -0.52 0.02 -0.48 -0.02 -0.02 -0.01 -0.04 0.01 -0.05 0.02 -0.07 0.04 -0.1 0 -0.05 -0.02 -0.03 -0.02 -0.02 -0.03 -0.02 -0.04 -0.02 0 0 0.02 0 0.01 -0.01 0.01 -0.01 0.03 -0.03 0 -0.03 0 -0.01 0.01 -0.02 0 -0.03 -0.01 -0.02 0.01 -0.01 -0.01 -0.11 0 -0.05 0.03 -0.08 0.01 -0.01 0 -0.02 0 -0.01 0 0 0.01 -0.01 -0.01 -0.02 0.01 0 0 -0.02 0 -0.04 -0.01 -0.01 0 -0.02 -0.02 -0.07 -0.06 -0.11 0.08 -1.08 -0.05 -0.17 -0.01 -0.13 0.01 -0.09 0.03 -0.06 0.03 -0.04 0.07 0.01 0.07 0.02 0.07 0.02 0.08 0.05 0.15 0.11 0.31 0.33 0.07 0.07 0.15 0.09 0.08 0.03 0.07 0.02 0.09 0 -0.01 -0.05 0.08 0.04 0.14 0.03 0.03 -0.01 0.06 0 0.08 0.02 0.16 0.04 0.06 0.04 0.05 -0.02 0.05 -0.05 0.01 0.02 0.02 0.01 0.02 0 0.03 -0.01 0.05 -0.04 0.07 -0.07 0.06 0.01 0.07 -0.01 0.03 -0.01 0.15 -0.04 0.04 -0.04 0.05 -0.01 0.06 0 0.05 0.01 0.53 -0.36 0.03 0.02 0.02 0 0.02 0.01 0.09 0 -0.01 -0.02 -0.02 -0.03 0.01 -0.05 0.02 -0.04 0.03 -0.03 0.69 -0.33 0.01 0 0.01 0.01 0.03 0.04 0.06 0.12 0.11 0.48 0.31 0.85 -0.42 0.57 -0.24 0.24 0 0.03 -0.02 0.05 -0.1 0.15 -0.22 0.27 -0.56 0.78 -0.52 0.36 -0.01 0.02 0 0.02 -0.02 0.04 -0.07 0.06 -0.02 0.01 -0.01 0 -0.02 0.01 -0.02 0.01 -0.01 0 -0.02 0.02 -0.14 0.03 -0.03 0 -0.06 0 -0.07 0.03 -0.02 0 -0.03 0.04 -0.02 0.04 0 0.02 0 0.07 -0.23 -0.12 -0.03 0 -0.03 0 -0.02 0 -0.03 0.04 -0.01 0.02 -0.01 0.04 -0.01 0.04 0.29 0.11 1 -0.08 0.49 0.03 0.07 -0.03 0.22 -0.05 0.08 0 0.04 0.01 0.44 -0.51 0.06 -0.03 0.09 -0.05 0.31 -0.06 1.01 -0.65 0 -0.02 0.02 -0.04 0.01 -0.02 0.02 -0.03 0.39 -0.4 0.12 -0.17 0.02 -0.04 0.03 -0.12 0 -0.08 -0.03 -0.08 -0.06 -0.12 -0.03 -0.04 0.02 -0.02 0.02 -0.01 0.02 -0.02 0.01 -0.01 0.02 -0.03 0 0 0.01 -0.02 0.01 -0.02 0 -0.02 -0.01 -0.02 0.01 0 -0.01 -0.05 -0.05 -0.11 -0.02 -0.01 -0.02 -0.02 -0.05 -0.08 -0.04 -0.08 -0.12 -0.3 -0.09 -0.13 -0.04 -0.07 -0.02 -0.07 -0.07 -0.38 -0.04 -0.1 -0.07 -0.21 -0.26 -0.27 -0.01 -0.12 -0.01 -0.05 -0.02 -0.04 -0.03 -0.03 -0.02 -0.03 -0.03 -0.01 -0.04 -0.01 0.07 -0.09 0 -0.01 0.02 0 0.02 0 0.04 0.02 0.13 -0.13 0.03 -0.02 0.05 -0.03 0.08 -0.02 0.05 0 0.03 0.01 0.02 0.01 0.02 0.01 0.05 0.09 0.75 -0.62 -0.01 -0.05 0.01 -0.04 0.01 -0.04 0.04 -0.05 0.06 -0.04 0.05 -0.02 0.06 -0.01 0.06 -0.03 0.02 -0.01 0 0 0.03 -0.01 0.08 -0.05 0.02 -0.03 0 -0.01 0.01 -0.01 0.01 -0.03 0 -0.01 0 -0.01 0 0 -0.07 -0.11 -0.05 -0.12 -0.03 -0.17 0.01 -0.18 0.02 -0.1 -0.06 -0.04 -0.17 -0.07 -0.02 -0.02 -0.02 -0.03 -0.01 -0.03 -0.04 -0.12 -1.71 0.57 -0.02 0.01 -0.02 0.02 -0.01 0 -0.01 0.01 -0.02 0.01 -0.05 0.02 -0.03 0 -0.01 0.01 -0.03 0.01 -0.49 0.25 -0.08 -0.03 -0.07 -0.06 -0.04 -0.04 -0.05 -0.1 -0.02 -0.05 0.48 -0.59 0.13 -0.22 0.07 -0.17 -0.01 -0.01 0.02 -0.04 0.02 -0.02 0.01 -0.03 0.05 -0.05 0.04 -0.03 0 -0.02 0.01 -0.02 0 -0.01 0.01 -0.01 0 -0.02 -0.01 -0.14 0.07 -0.04 0.01 -0.02 0.02 -0.01 0.03 -0.03 0.05 -0.07 0.21 -0.38 -0.05 0.01 0.11 -0.23 0.02 -0.06 0.01 -0.05 -0.01 -0.06 0 -0.02 -0.01 -0.03 -0.04 -0.05 -0.08 -0.06 -0.11 -0.06 -0.37 0.07 -0.12 -0.09 -0.31 0.06 -0.22 0.11 -0.14 0.05 -0.04 0.01 -0.44 0.51 -0.5 0.51 -0.98 0.82 -0.04 -0.01 -0.04 0.01 -0.04 0.01 -0.07 0.03 -0.07 0.07 -0.03 0.05 -0.02 0.01 -0.01 0 0 0.01 -0.03 0.01 -0.03 0.01 -0.01 0 -0.03 0 -0.07 0 -0.01 0 -0.05 0 -0.01 -0.04 0.01 -0.1 0.03 -0.11 0.1 -0.2 0.04 -0.11 0.01 -0.04 0 -0.03 -0.01 -0.03 -0.02 -0.02 -0.03 -0.02 -0.03 -0.01 0.08 -0.12 -0.02 -0.03 0 -0.02 -0.01 -0.05 0 -0.03 0.01 -0.03 0.04 -0.06 0.01 -0.02 0 -0.01 0 -0.02 0.01 -0.01 0 -0.02 0 -0.13 0.02 -0.04 0.07 -0.06 0.04 -0.04 -0.01 -0.02 -0.01 -0.02 0 -0.04 0 -0.04 0.02 -0.05 0 -0.03 0.02 -0.03 0.07 -0.11 0.08 -0.07 0.02 -0.01 0.05 -0.01 0.06 0.02 0.06 0.03 -0.04 0.02 -0.05 0.06 -0.04 0.07 -0.03 0.09 0 0.06 0.01 0 0.01 0 0.01 0.01 0 0.01 -0.01 0.08 0 0 0 0.01 -0.01 0.01 -0.01 0 0 0.01 0 0 -0.01 0.01 0 0 0 0.01 -0.05 0.01 -0.03 0.01 -0.01 0 -0.02 0.01 -0.01 0 0.04 0.21 -0.05 0.01 -0.03 0.04 -0.02 0.05 0 0.06 0.02 0.05 0.02 0.06 0.1 -0.06 0.03 -0.01 0.04 -0.02 0.07 -0.04 0.14 -0.15 0.25 -0.36 0 -0.02 0.01 -0.04 0.01 -0.03 0 -0.03 0.05 -0.11 0.06 0.05 0.23 -0.2 0.25 -0.42 0.35 -0.44 0.92 -0.85 0.04 -0.02 0.01 -0.01 0.01 0 0.02 -0.02 0.03 -0.04 0.01 -0.02 0 0 0.02 -0.03 0.02 -0.03 0.04 -0.02 0.13 -0.04 0.28 -0.6 0.01 -0.03 0.01 -0.02 0.01 -0.04 -0.03 -0.01 -0.02 -0.02 -0.03 -0.02 -0.03 -0.06zm-1.33 3.75l0.05 -0.03 0.01 0.05 -0.04 0.04 -0.14 0.21 -0.02 0.03 -0.02 0.05 -0.02 0.05 -0.01 0.05 0.01 0.04 -0.11 0.02 0.03 -0.11 0.08 -0.18 0.09 -0.13 0.04 -0.05 0.05 -0.04zm-0.78 1.44l0.01 0.07 0.02 0.06 0.04 0.06 0.04 0.02 0.01 0.06 0.03 0.11 0.06 0.08 0.03 0.03 0.08 0.06 0.11 -0.02 -0.05 0.04 -0.05 0.03 -0.01 -0.05 -0.47 0.34 -0.11 -0.03 -0.13 0.12 -0.02 0.02 -0.03 0.02 -0.25 0.17 -0.66 0.31 -0.01 0 -0.11 0.06 -0.22 0.06 -0.21 0.02 -0.19 -0.03 -0.1 -0.03 -0.09 -0.04 -0.05 0.01 0.03 -0.12 0.02 -0.02 0 0 0.02 -0.02 0.01 -0.02 0 0 0 -0.01 0.01 0 0 -0.03 -0.01 -0.02 -0.02 -0.04 0.1 -0.07 0.05 -0.05 0.09 -0.14 0.14 -0.29 -0.01 -0.05 0.33 -0.59 0 -0.32 0.27 0.5 0.04 0.06 0.11 0.1 0.05 0.03 0.06 0.02 0.13 0.03 0.52 -0.1 0.4 -0.44 -0.01 0.04z"/>
  </g>
 </g>
</svg>
