<?xml version="1.0" encoding="UTF-8" standalone="no"?>
<svg
   xmlns:dc="http://purl.org/dc/elements/1.1/"
   xmlns:cc="http://creativecommons.org/ns#"
   xmlns:rdf="http://www.w3.org/1999/02/22-rdf-syntax-ns#"
   xmlns:svg="http://www.w3.org/2000/svg"
   xmlns="http://www.w3.org/2000/svg"
   viewBox="0 0 266.66666 266.66666"
   height="266.66666"
   width="266.66666"
   xml:space="preserve"
   id="svg2"
   version="1.1"><metadata
     id="metadata8"><rdf:RDF><cc:Work
         rdf:about=""><dc:format>image/svg+xml</dc:format><dc:type
           rdf:resource="http://purl.org/dc/dcmitype/StillImage" /></cc:Work></rdf:RDF></metadata><defs
     id="defs6"><linearGradient
       id="linearGradient30"
       spreadMethod="pad"
       gradientTransform="matrix(0,-123.18294,123.18294,0,100.53034,161.58693)"
       gradientUnits="userSpaceOnUse"
       y2="0"
       x2="1"
       y1="0"
       x1="0"><stop
         id="stop24"
         offset="0"
         style="stop-opacity:1;stop-color:#007dc5" /><stop
         id="stop26"
         offset="0.19656128"
         style="stop-opacity:1;stop-color:#007dc5" /><stop
         id="stop28"
         offset="1"
         style="stop-opacity:1;stop-color:#ffffff" /></linearGradient><clipPath
       id="clipPath44"
       clipPathUnits="userSpaceOnUse"><path
         id="path42"
         d="M 0,200 H 200 V 0 H 0 Z" /></clipPath></defs><g
     transform="matrix(1.3333333,0,0,-1.3333333,0,266.66667)"
     id="g10"><g
       id="g12"><g
         id="g14"><g
           id="g20"><g
             id="g22"><path
               id="path32"
               style="fill:url(#linearGradient30);stroke:none"
               d="M 100.206,161.279 C 66.419,161.104 38.939,133.523 38.939,99.689 v 0 c 0,-33.94 27.653,-61.592 61.587,-61.592 v 0 c 33.789,0 61.42,27.48 61.595,61.271 v 0 0.641 c -0.174,33.687 -27.633,61.096 -61.275,61.27 v 0 z" /></g></g></g></g><g
       transform="translate(52.1676,62.1224)"
       id="g34"><path
         id="path36"
         style="fill:#ffffff;fill-opacity:1;fill-rule:nonzero;stroke:none"
         d="M 0,0 H 96.372 L 88.63,-7.922 H 5.754 Z" /></g><g
       id="g38"><g
         clip-path="url(#clipPath44)"
         id="g40"><path
           id="path46"
           style="fill:#ffffff;fill-opacity:1;fill-rule:nonzero;stroke:none"
           d="m 137.569,63.894 h 4.513 v -1.327 h -4.513 z m 0,10.087 c 0,0 0.971,-0.533 1.194,-1.198 0.219,-0.618 0.176,-0.881 0.176,-0.881 0.751,-0.532 1.636,-1.327 1.593,-2.477 0,-0.799 -0.266,-1.374 -0.266,-1.374 0,0 0.841,-0.709 1.104,-1.327 0.223,-0.622 0.094,-2.391 -0.22,-2.391 l -3.542,0.046 z m -0.223,13.715 h 1.018 v -1.327 h -1.018 z m 0.133,-4.776 h 0.928 v -1.284 h -0.928 z m -0.047,4.999 h 0.712 c 0.619,-0.043 0.838,0.485 0.971,0.974 0.266,0.842 0.842,0.842 0.842,1.546 0,0.4 -0.223,0.666 -0.576,0.623 -0.043,0 -0.086,-0.047 -0.086,-0.047 0,0 0.086,-0.262 0,-0.4 -0.356,-0.395 -1.197,-0.571 -1.464,-1.103 -0.086,-0.176 -0.176,-0.576 -0.176,-0.795 0,-0.27 -0.047,-0.27 -0.047,-0.27 h -0.176 z m -4.556,0.575 v -0.485 c 0,-0.043 -0.485,-0.043 -0.708,0 -0.223,0.086 -0.799,0.219 -1.018,0.438 -0.176,0.27 -0.309,0.356 -0.262,0.536 0,0.219 0.043,0.353 0.352,0.486 0.266,0.129 0.043,0.176 0.129,0.395 0.137,0.223 0.489,0.489 1.022,0.356 h 0.129 v -1.683 z m -0.043,-9.292 c 0,0 -0.266,0.442 -0.532,0.575 -0.619,0.357 -1.284,0.709 -1.593,1.327 -0.09,0.223 -0.09,0.266 -0.09,0.266 h 2.215 z m -6.904,0 c 0.09,0.133 0.352,0.442 0.575,0.575 0.618,0.357 1.284,0.709 1.593,1.327 0.09,0.223 0.09,0.266 0.09,0.266 h -2.258 z m 0,3.718 h 6.947 v -1.284 h -6.947 z m 0,3.053 h 6.947 v -2.744 h -6.947 z m -5.042,3.363 -0.665,-0.044 c -0.665,0 -0.885,0.486 -1.018,1.018 -0.133,0.619 -0.841,0.662 -0.841,1.37 0,0.399 0.532,0.799 0.884,0.708 h 0.09 c 0,0 -0.176,-0.309 -0.09,-0.485 0.134,-0.442 1.018,-0.442 1.284,-0.974 0.086,-0.224 0.133,-0.576 0.133,-0.842 0,-0.266 0.086,-0.266 0.086,-0.266 h 0.18 z m 2.65,8.407 h -0.043 v 0.043 h -0.043 -0.133 c -0.438,0 -0.751,-0.752 -0.885,-1.108 -0.133,-0.352 -0.133,-0.751 -0.133,-0.751 -0.485,-0.266 -1.06,-1.241 -0.575,-1.636 0.356,-0.31 0,-0.443 0.399,-0.443 h 1.284 l 1.327,-0.043 c 0.399,0 0.043,0.13 0.399,0.443 0.485,0.399 -0.09,1.37 -0.575,1.636 0,0 0,0.395 -0.133,0.751 -0.133,0.399 -0.443,1.108 -0.889,1.108 m -8.626,-16.197 c 0.313,0 -0.619,-1.017 -1.374,-1.283 -0.176,-0.086 -0.262,-0.129 -0.352,-0.309 -0.087,-0.177 -0.22,-0.533 -0.263,-0.572 -0.266,-0.223 -0.399,-0.09 -0.399,-0.09 l 0.043,2.254 z m 11.018,6.15 h 6.947 v -1.327 h -6.947 z m 0,1.326 h 0.799 v -1.151 h -0.799 z m 0,0.314 0.665,-0.044 c 0.662,0 0.885,0.486 1.018,1.018 0.133,0.619 0.837,0.662 0.837,1.37 0,0.399 -0.528,0.799 -0.88,0.708 h -0.09 c 0,0 0.176,-0.309 0.09,-0.485 -0.137,-0.442 -1.018,-0.442 -1.288,-0.974 -0.086,-0.224 -0.129,-0.576 -0.129,-0.842 0,-0.266 -0.09,-0.266 -0.09,-0.266 h -0.176 z m 9.116,5.972 c -0.09,0 -0.443,-0.086 -0.662,-0.399 0,0 -0.133,-0.223 -0.27,-0.528 -0.129,-0.356 -0.176,-0.752 -0.176,-0.752 -0.442,-0.223 -0.752,-0.751 -0.305,-1.198 0.352,-0.352 0.043,-0.442 0.043,-0.575 -0.043,-0.176 0.043,-0.219 0.043,-0.219 h 1.327 0.043 1.326 c 0,0 0.09,0.043 0.047,0.219 0,0.133 -0.309,0.223 0.043,0.575 0.443,0.447 0.134,0.975 -0.309,1.198 0,0 -0.043,0.396 -0.176,0.752 -0.133,0.305 -0.266,0.528 -0.266,0.528 -0.223,0.313 -0.575,0.399 -0.665,0.399 z m -1.989,-4.027 h 4.067 c 0.09,0 0.18,-0.09 0.18,-0.176 v -2.083 c 0,-0.086 -0.09,-0.176 -0.18,-0.176 h -4.067 c -0.09,0 -0.18,0.09 -0.18,0.176 v 2.083 c 0,0.086 0.09,0.176 0.18,0.176 m 0.262,-2.834 3.676,0.047 V 62.696 h -3.542 v 24.338 l -0.134,0.043 z m -12.125,5.002 h 4.517 c 0.09,0 0.176,-0.09 0.176,-0.219 v -2.701 c 0,-0.133 -0.086,-0.219 -0.176,-0.219 h -4.517 c -0.129,0 -0.219,0.086 -0.219,0.219 v 2.701 c 0,0.129 0.09,0.219 0.219,0.219 m 0.27,-3.804 h 3.804 V 62.564 h -3.804 z m -2.967,-8.099 c -0.309,0 0.618,-1.017 1.327,-1.283 0.176,-0.086 0.266,-0.129 0.352,-0.309 0.09,-0.177 0.223,-0.533 0.266,-0.572 0.309,-0.223 0.399,-0.09 0.399,-0.09 v 2.254 z m -5.973,1.813 h 8.317 v -1.241 h -8.317 z m 0.043,4.074 h 8.231 v -3.671 h -8.231 z m 0,1.726 h 8.274 v -1.327 h -8.274 z m 0,1.813 h 1.241 v -1.55 h -1.241 z m 0.133,2.125 0.043,-1.636 h 1.018 c 0.751,0 0.841,1.147 1.018,1.417 0.09,0.086 0.884,0.657 0.974,1.014 0.09,0.399 0.176,0.266 -0.09,0.665 -0.219,0.352 -0.614,0.309 -0.708,0.176 -0.043,-0.047 -0.129,-0.047 -0.176,0 0,0.043 -0.044,0.09 -0.044,0.09 0,0 0.044,-0.047 0.044,-0.09 0.09,-0.086 0.176,-0.223 0.176,-0.309 -0.086,-0.489 -0.928,-0.353 -1.28,-0.619 -0.137,-0.09 -0.356,-0.446 -0.532,-0.575 -0.134,-0.133 -0.443,-0.133 -0.443,-0.133 m -2.743,8.717 h -0.134 -0.133 c -0.528,0.043 -0.884,-0.666 -1.06,-1.108 -0.133,-0.442 -0.133,-0.928 -0.133,-0.928 -0.666,-0.309 -1.018,-1.108 -0.619,-1.726 0.309,-0.442 -0.09,-0.708 0.352,-0.708 h 1.593 1.593 c 0.443,0 0.047,0.266 0.353,0.708 0.399,0.618 0.047,1.417 -0.619,1.726 0,0 0.043,0.486 -0.133,0.928 -0.176,0.442 -0.528,1.151 -1.06,1.108 m -2.611,-4.87 h 4.998 c 0.137,0 0.223,-0.09 0.223,-0.219 v -2.967 c 0,-0.129 -0.086,-0.223 -0.223,-0.223 h -4.998 c -0.129,0 -0.223,0.094 -0.223,0.223 v 2.967 c 0,0.129 0.094,0.219 0.223,0.219 m 0.442,-3.89 h 4.114 V 62.653 h -4.114 z m -0.665,-1.726 c 0,0 -1.323,0.039 -1.989,0.395 -0.661,0.356 -0.884,1.194 -0.751,1.374 0.395,0.395 0.176,0.838 0.618,1.104 0.975,0.532 1.37,-0.353 1.816,-1.018 0.177,-0.219 0.263,-0.305 0.306,-0.305 v 0.039 -0.039 z m -2.873,-9.249 c 0,0 0.575,-1.108 1.28,-1.327 0.755,-0.223 0.622,-0.137 0.665,-0.442 0.047,-0.266 0.09,-0.49 0.309,-0.709 0.267,-0.219 0.49,-0.133 0.49,-0.133 v 2.564 z M 62.169,63.894 h -4.513 v -1.327 h 4.513 z m 0,10.087 c 0,0 -0.975,-0.533 -1.194,-1.198 -0.223,-0.618 -0.176,-0.881 -0.176,-0.881 -0.755,-0.532 -1.64,-1.327 -1.597,-2.477 0,-0.799 0.266,-1.374 0.266,-1.374 0,0 -0.837,-0.709 -1.107,-1.327 -0.22,-0.622 -0.087,-2.391 0.223,-2.391 l 3.538,0.046 z m 0.223,13.715 h -1.018 v -1.327 h 1.018 z M 62.255,82.92 h -0.928 v -1.284 h 0.928 z m 0.047,4.999 h -0.709 c -0.618,-0.043 -0.841,0.485 -0.974,0.974 -0.266,0.842 -0.842,0.842 -0.842,1.546 0,0.4 0.224,0.666 0.576,0.623 0.047,0 0.09,-0.047 0.09,-0.047 0,0 -0.09,-0.262 0,-0.4 0.356,-0.395 1.194,-0.571 1.46,-1.103 0.09,-0.176 0.176,-0.576 0.176,-0.795 0,-0.27 0.043,-0.27 0.043,-0.27 h 0.18 z m 4.556,0.575 v -0.485 c 0,-0.043 0.485,-0.043 0.708,0 0.219,0.086 0.795,0.219 1.018,0.438 0.176,0.27 0.309,0.356 0.266,0.536 0,0.219 -0.043,0.353 -0.356,0.486 -0.262,0.129 -0.043,0.176 -0.133,0.395 -0.129,0.223 -0.485,0.489 -1.018,0.356 h -0.129 v -1.683 z m 0.047,-9.292 c 0,0 0.262,0.442 0.528,0.575 0.623,0.357 1.284,0.709 1.593,1.327 0.086,0.223 0.086,0.266 0.086,0.266 h -2.207 z m 6.9,0 c -0.086,0.133 -0.356,0.442 -0.575,0.575 -0.618,0.357 -1.284,0.709 -1.593,1.327 -0.086,0.223 -0.086,0.266 -0.086,0.266 h 2.254 z m 0,3.718 h -6.947 v -1.284 h 6.947 z m 0,3.053 h -6.947 v -2.744 h 6.947 z m 5.045,3.363 0.662,-0.044 c 0.665,0 0.889,0.486 1.018,1.018 0.133,0.619 0.841,0.662 0.841,1.37 0,0.399 -0.532,0.799 -0.884,0.708 h -0.086 c 0,0 0.176,-0.309 0.086,-0.485 -0.133,-0.442 -1.018,-0.442 -1.284,-0.974 -0.09,-0.224 -0.133,-0.576 -0.133,-0.842 0,-0.266 -0.086,-0.266 -0.086,-0.266 h -0.177 z m -2.657,8.407 h 0.047 v 0.043 h 0.043 0.133 c 0.442,0 0.751,-0.752 0.885,-1.108 0.133,-0.352 0.133,-0.751 0.133,-0.751 0.485,-0.266 1.06,-1.241 0.575,-1.636 -0.352,-0.31 0,-0.443 -0.399,-0.443 h -1.284 -0.043 l -1.284,-0.043 c -0.399,0 -0.043,0.13 -0.399,0.443 -0.485,0.399 0.09,1.37 0.575,1.636 0,0 0,0.395 0.137,0.751 0.129,0.399 0.439,1.108 0.881,1.108 m 8.63,-16.197 c -0.309,0 0.619,-1.017 1.327,-1.283 0.219,-0.086 0.313,-0.129 0.399,-0.309 0.091,-0.177 0.22,-0.533 0.267,-0.572 0.262,-0.223 0.399,-0.09 0.399,-0.09 l -0.047,2.254 z m -11.018,6.15 h -6.947 v -1.327 h 6.947 z m 0,1.326 h -0.799 v -1.151 h 0.799 z m 0,0.314 -0.661,-0.044 c -0.666,0 -0.889,0.486 -1.022,1.018 -0.129,0.619 -0.841,0.662 -0.841,1.37 0,0.399 0.532,0.799 0.888,0.708 h 0.086 c 0,0 -0.176,-0.309 -0.086,-0.485 0.133,-0.442 1.018,-0.442 1.28,-0.974 0.09,-0.224 0.133,-0.576 0.133,-0.842 0,-0.266 0.09,-0.266 0.09,-0.266 h 0.176 z m -9.115,5.972 c 0.089,0 0.446,-0.086 0.665,-0.399 0,0 0.133,-0.223 0.262,-0.528 0.133,-0.356 0.18,-0.752 0.18,-0.752 0.442,-0.223 0.752,-0.751 0.309,-1.198 -0.356,-0.352 -0.043,-0.442 -0.043,-0.575 0.043,-0.176 -0.047,-0.219 -0.047,-0.219 H 64.69 64.646 63.32 c 0,0 -0.09,0.043 -0.047,0.219 0,0.133 0.313,0.223 -0.043,0.575 -0.443,0.447 -0.134,0.975 0.309,1.198 0,0 0.047,0.396 0.18,0.752 0.129,0.305 0.262,0.528 0.262,0.528 0.219,0.313 0.575,0.399 0.665,0.399 z m 1.992,-4.027 h -4.071 c -0.09,0 -0.18,-0.09 -0.18,-0.176 v -2.083 c 0,-0.086 0.09,-0.176 0.18,-0.176 h 4.071 c 0.086,0 0.176,0.09 0.176,0.176 v 2.083 c 0,0.086 -0.09,0.176 -0.176,0.176 m -0.266,-2.834 -3.672,0.047 V 62.696 h 3.538 v 24.338 l 0.134,0.043 z m 12.121,5.002 h -4.513 c -0.086,0 -0.176,-0.09 -0.176,-0.219 v -2.701 c 0,-0.133 0.09,-0.219 0.176,-0.219 h 4.513 c 0.133,0 0.224,0.086 0.224,0.219 v 2.701 c 0,0.129 -0.091,0.219 -0.224,0.219 M 78.275,89.645 H 74.471 V 62.564 h 3.804 z m 2.963,-8.099 c 0.313,0 -0.618,-1.017 -1.327,-1.283 -0.176,-0.086 -0.266,-0.129 -0.352,-0.309 -0.09,-0.177 -0.223,-0.533 -0.266,-0.572 -0.309,-0.223 -0.399,-0.09 -0.399,-0.09 v 2.254 z m 5.977,1.813 h -8.317 v -1.241 h 8.317 z m -0.047,4.074 h -8.231 v -3.671 h 8.231 z m 0,1.726 h -8.274 v -1.327 h 8.274 z m 0,1.813 h -1.241 v -1.55 h 1.241 z m -0.176,2.125 v -1.636 h -1.018 c -0.751,0 -0.841,1.147 -1.021,1.417 -0.087,0.086 -0.881,0.657 -0.971,1.014 -0.086,0.399 -0.176,0.266 0.09,0.665 0.223,0.352 0.618,0.309 0.704,0.176 0.047,-0.047 0.137,-0.047 0.177,0 0,0.043 0.047,0.09 0.047,0.09 0,0 -0.047,-0.047 -0.047,-0.09 -0.087,-0.086 -0.177,-0.223 -0.177,-0.309 0.09,-0.489 0.932,-0.353 1.288,-0.619 0.129,-0.09 0.352,-0.446 0.529,-0.575 0.133,-0.133 0.399,-0.133 0.399,-0.133 m 2.787,8.717 h 0.133 0.133 c 0.532,0.043 0.884,-0.666 1.06,-1.108 0.133,-0.442 0.133,-0.928 0.133,-0.928 0.666,-0.309 1.018,-1.108 0.619,-1.726 -0.305,-0.442 0.09,-0.708 -0.352,-0.708 h -1.593 -1.593 c -0.443,0 -0.047,0.266 -0.353,0.708 -0.399,0.618 -0.09,1.417 0.619,1.726 0,0 -0.047,0.486 0.133,0.928 0.176,0.442 0.528,1.151 1.061,1.108 m 2.61,-4.87 h -4.998 c -0.133,0 -0.223,-0.09 -0.223,-0.219 v -2.967 c 0,-0.129 0.09,-0.223 0.223,-0.223 h 4.998 c 0.133,0 0.219,0.094 0.219,0.223 v 2.967 c 0,0.129 -0.086,0.219 -0.219,0.219 m -0.442,-3.89 H 87.833 V 62.653 h 4.114 z m 0.661,-1.726 c 0,0 1.374,0.039 2.04,0.395 0.661,0.356 0.88,1.194 0.704,1.374 -0.352,0.395 -0.129,0.838 -0.575,1.104 -0.971,0.532 -1.37,-0.353 -1.856,-1.018 -0.176,-0.219 -0.266,-0.305 -0.313,-0.305 v 0.039 -0.039 z m 2.92,-9.249 c 0,0 -0.575,-1.108 -1.28,-1.327 C 93.497,80.529 93.63,80.615 93.583,80.31 93.54,80.044 93.497,79.82 93.231,79.601 92.965,79.382 92.745,79.468 92.745,79.468 v 2.564 z m 3.856,8.936 h 1.013 6.725 v -1.503 h -7.167 -0.133 -7.214 v 1.503 z m 0.481,-7.167 h 0.047 7.21 v -1.507 h -6.944 -0.532 -7.038 v 1.507 z m 0,5.174 h 7.257 v -4.556 h -7.257 -7.257 v 4.556 z" /><g
           transform="translate(100.0001,163.1847)"
           id="g48"><path
             id="path50"
             style="fill:#014da2;fill-opacity:1;fill-rule:nonzero;stroke:none"
             d="m 0,0 v 0 -0.047 c -17.433,0 -33.23,-7.034 -44.648,-18.49 -11.456,-11.417 -18.493,-27.214 -18.493,-44.648 0,-17.48 7.037,-33.23 18.493,-44.647 7.39,-7.39 16.549,-12.92 26.863,-15.93 l 1.322,1.945 c -10.219,2.834 -19.335,8.278 -26.592,15.578 -11.061,10.975 -17.875,26.24 -17.875,43.054 0,16.815 6.814,32.033 17.875,43.051 11.022,11.061 26.24,17.879 43.055,17.879 z m 0,-163.185 v 0 c -27.61,0 -52.609,11.191 -70.707,29.289 -18.099,18.099 -29.293,43.098 -29.293,70.711 0,27.61 11.194,52.609 29.293,70.708 C -52.609,25.617 -27.61,36.815 0,36.815 V 34.6 c -26.991,0 -51.415,-10.971 -69.114,-28.67 -17.7,-17.7 -28.675,-42.123 -28.675,-69.115 0,-26.991 10.975,-51.419 28.675,-69.118 17.699,-17.699 42.123,-28.627 69.114,-28.627 z m 0,160.93 v 0 c 16.815,0 32.033,-6.818 43.055,-17.879 C 54.072,-31.152 60.93,-46.37 60.93,-63.185 h -0.043 0.043 c 0,-16.814 -6.858,-32.079 -17.875,-43.054 -7.304,-7.3 -16.416,-12.744 -26.593,-15.578 l 1.323,-1.945 c 10.271,3.01 19.473,8.54 26.862,15.93 11.418,11.417 18.494,27.167 18.494,44.647 0,17.434 -7.076,33.231 -18.494,44.648 C 33.23,-7.081 17.433,-0.047 0,-0.047 V 0 Z m 0,39.07 v 0 C 27.61,36.815 52.609,25.617 70.707,7.523 88.806,-10.576 100,-35.575 100,-63.185 100,-90.798 88.806,-115.797 70.707,-133.896 52.609,-151.994 27.61,-163.185 0,-163.185 v 2.255 c 26.944,0 51.415,10.928 69.114,28.627 17.7,17.699 28.631,42.127 28.631,69.118 0,26.992 -10.931,51.415 -28.631,69.115 C 51.415,23.629 26.944,34.6 0,34.6 Z" /></g><g
           transform="translate(86.3275,139.6005)"
           id="g52"><path
             id="path54"
             style="fill:#ffffff;fill-opacity:1;fill-rule:nonzero;stroke:none"
             d="m 0,0 c -0.176,-0.489 -0.399,-0.928 -0.575,-1.417 -0.177,-0.485 -0.134,-2.078 -0.09,-2.345 -0.486,-0.043 -0.928,-0.133 -1.237,-0.223 -0.576,-0.176 -1.816,-0.927 -2.521,-1.632 -1.241,-1.24 -1.73,-2.88 -3.143,-3.941 -1.37,-1.061 -2.082,-1.683 -2.125,-2.036 -0.043,-0.352 0.043,-0.841 1.284,-1.236 1.24,-0.4 2.966,-1.194 4.023,-1.86 1.112,-0.665 1.906,-1.593 2.834,-1.726 0.266,-0.047 0.885,-0.176 1.55,-0.266 v 1.992 c -1.417,0.13 -2.035,0.752 -3.319,1.68 -1.151,0.841 -3.495,1.593 -3.495,1.593 0,0 1.503,1.37 2.035,2.125 0.575,0.795 0.794,1.726 1.683,2.478 0.794,0.708 1.456,1.107 3.096,1.283 z m 0,-16.682 c 0.266,0 0.618,-0.043 0.928,0 1.107,0.043 2.168,0.399 2.168,0.399 l 0.047,0.043 c 0,-0.043 0,-0.129 0.043,-0.176 0.176,-0.751 0.442,-1.417 0.842,-1.945 v 5.75 c -0.31,-0.399 -0.666,-0.975 -0.842,-1.636 -0.09,-0.043 -0.176,-0.09 -0.266,-0.09 -0.352,-0.043 -1.28,-0.353 -2.122,-0.399 -0.313,0 -0.575,0 -0.798,0.046 z M 4.028,5.135 C 3.495,5.264 3.01,5.487 2.697,5.663 2.168,5.973 1.55,5.663 1.194,5.573 0.842,5.487 0.928,4.822 0.928,4.47 0.885,2.567 0.442,1.241 0,0 v -5.531 c 0.133,0.043 0.309,0.043 0.485,0.043 1.636,0.133 2.568,-0.309 3.543,-0.974 v 2.215 c -0.885,0.352 -1.86,0.529 -2.787,0.575 v 0.044 c 0,1.413 0.129,2.168 0.704,3.452 0.27,0.528 0.533,1.593 0.533,2.078 0,0.532 0.266,1.683 0.266,1.683 0,0 0.043,0 0.528,-0.266 C 3.409,3.272 3.671,3.186 4.028,3.096 Z m 1.769,-10.49 v -2.919 c -0.266,0.489 -0.662,0.97 -1.061,1.283 -0.266,0.224 -0.489,0.353 -0.708,0.529 v 2.215 C 4.779,-4.56 5.354,-4.955 5.797,-5.355 M 4.028,-18.361 c 0.442,-0.665 1.06,-1.198 1.769,-1.507 v 2.388 c -0.752,0.798 -1.108,1.906 -0.932,2.614 0.223,0.752 0.532,1.37 0.932,1.856 v 2.211 C 5.264,-11.194 4.865,-11.68 4.513,-12.036 4.337,-12.169 4.161,-12.392 4.028,-12.611 Z M 5.797,4.689 C 5.487,4.736 5.221,4.822 4.998,4.865 4.689,4.912 4.337,4.998 4.028,5.135 V 3.096 C 4.513,2.967 5.178,2.834 5.797,2.697 Z M 6.548,-10.4 v -1.945 C 6.282,-12.521 6.016,-12.787 5.797,-13.01 v 2.211 c 0.219,0.133 0.485,0.27 0.751,0.399 m 0,4.294 v -3.762 c -0.133,0.357 -0.356,0.971 -0.751,1.594 v 2.919 C 6.106,-5.574 6.329,-5.84 6.548,-6.106 m 0,2.611 v -1.593 c -0.133,0.223 -0.219,0.485 -0.219,0.794 0,0.309 0.086,0.576 0.219,0.799 M 5.797,-19.868 c 0.266,-0.086 0.485,-0.18 0.751,-0.266 v 2.035 c -0.266,0.18 -0.532,0.357 -0.751,0.619 z M 6.548,4.513 C 6.329,4.56 6.063,4.603 5.797,4.689 V 2.697 C 6.063,2.654 6.329,2.611 6.548,2.567 Z M 7.879,-8.184 v -3.586 c -0.446,-0.133 -0.932,-0.309 -1.331,-0.575 v 1.945 c 0.09,0.047 0.18,0.09 0.219,0.09 l -0.086,0.133 c 0,0 -0.043,0.087 -0.133,0.309 v 3.762 c 0.442,-0.532 0.799,-1.061 1.108,-1.679 0.086,-0.137 0.176,-0.27 0.223,-0.399 m 0,5.44 V -5.84 c -0.532,0 -1.065,0.309 -1.331,0.752 v 1.593 c 0.266,0.485 0.799,0.751 1.331,0.751 m 0,6.858 C 7.566,4.247 7.08,4.384 6.548,4.513 V 2.567 C 6.904,2.478 7.167,2.391 7.433,2.301 7.609,2.254 7.742,2.215 7.879,2.168 Z M 6.681,-20.134 c 0.266,-0.928 0.709,-1.902 1.198,-2.834 v 4.431 c -0.27,0.039 -0.489,0.129 -0.712,0.176 -0.22,0.086 -0.439,0.176 -0.619,0.262 v -2.035 h 0.09 z M 7.879,-5.84 v 3.096 c 0.881,0 1.546,-0.665 1.546,-1.55 0,-0.841 -0.665,-1.546 -1.546,-1.546 m 5.483,-0.399 v -7.433 c -0.089,-0.047 -0.352,-0.047 -0.618,0.133 -0.841,0.619 -2.521,1.812 -3.851,1.859 -0.356,0 -0.662,-0.047 -1.014,-0.09 v 3.586 C 8.317,-8.983 8.45,-9.601 8.537,-9.911 9.073,-9.868 9.601,-9.954 10.086,-10.09 10.047,-9.954 10,-9.777 9.91,-9.601 9.558,-8.807 9.026,-7.785 8.583,-7.257 l 1.503,1.065 c 0,0 0.975,-1.331 1.417,-2.482 0.223,-0.528 0.443,-1.017 0.533,-1.46 0.043,-0.352 0.086,-0.665 0.133,-0.794 0.086,-0.09 0.176,-0.133 0.266,-0.176 v 4.865 z m 0,4.47 v -3.143 c -0.841,0 -1.546,0.708 -1.546,1.55 0,0.884 0.705,1.593 1.546,1.593 m 0,2.477 c 0,0 0,0.043 -0.043,0.043 -1.816,1.37 -3.186,2.435 -5.311,3.32 -0.043,0 -0.086,0.043 -0.129,0.043 V 2.168 c 1.988,-0.841 3.538,-2.967 5.483,-3.409 z M 7.879,-22.968 c 0.481,-0.837 1.014,-1.589 1.679,-2.254 1.018,-0.971 2.258,-1.683 3.804,-1.77 v 1.77 c -1.812,0 -3.409,1.902 -4.07,3.452 -0.219,0.618 -0.356,1.018 -0.399,1.241 0.618,-0.176 1.193,-0.49 2.035,-1.241 1.507,-1.417 2.168,-2.168 2.434,-2.345 v 2.388 c -0.395,0.399 -1.636,1.64 -2.563,2.258 -0.576,0.443 -1.816,0.662 -2.92,0.932 z m 5.483,18.056 v 3.143 c 0.885,0 1.594,-0.709 1.594,-1.593 0,-0.842 -0.709,-1.55 -1.594,-1.55 m 5.488,-3.272 v -3.586 c -0.313,0.043 -0.665,0.09 -1.018,0.09 -1.327,-0.047 -3.01,-1.24 -3.808,-1.859 -0.262,-0.18 -0.528,-0.18 -0.662,-0.133 v 7.433 h 0.975 v -4.865 c 0.086,0.043 0.176,0.086 0.262,0.176 0,0.129 0.047,0.442 0.137,0.794 0.043,0.443 0.31,0.932 0.486,1.46 0.485,1.151 1.46,2.482 1.46,2.482 l 1.503,-1.065 c -0.486,-0.528 -1.018,-1.55 -1.327,-2.344 -0.09,-0.176 -0.176,-0.353 -0.219,-0.489 0.528,0.136 1.06,0.222 1.593,0.179 0.043,0.31 0.219,0.928 0.618,1.727 m 0,5.44 V -5.84 c -0.842,0 -1.546,0.705 -1.546,1.546 0,0.885 0.704,1.55 1.546,1.55 m 0,6.858 c -0.043,0 -0.043,-0.043 -0.09,-0.043 -2.121,-0.885 -3.495,-1.95 -5.354,-3.32 0,0 0,-0.043 -0.044,-0.043 v -1.949 c 1.95,0.442 3.496,2.568 5.488,3.409 z m -5.488,-31.106 c 1.594,0.087 2.787,0.799 3.805,1.77 0.665,0.665 1.241,1.417 1.683,2.254 v 4.431 c -1.065,-0.27 -2.301,-0.489 -2.92,-0.932 -0.931,-0.618 -2.125,-1.859 -2.568,-2.258 v -2.388 c 0.31,0.177 0.975,0.928 2.478,2.345 0.799,0.751 1.417,1.065 2.039,1.241 -0.094,-0.223 -0.18,-0.623 -0.446,-1.241 -0.618,-1.55 -2.211,-3.452 -4.071,-3.452 z m 6.772,20.886 v -3.762 c -0.047,-0.222 -0.09,-0.309 -0.09,-0.309 l -0.09,-0.133 c 0.09,0 0.133,-0.043 0.18,-0.09 v -1.945 c -0.356,0.266 -0.799,0.442 -1.284,0.575 v 3.586 c 0.086,0.129 0.133,0.262 0.223,0.399 0.352,0.618 0.662,1.147 1.061,1.679 m 0,2.611 V -5.088 C 19.911,-5.531 19.425,-5.84 18.85,-5.84 v 3.096 c 0.575,0 1.061,-0.266 1.284,-0.751 m 0,8.008 C 19.688,4.384 19.159,4.247 18.85,4.114 V 2.168 c 0.176,0.047 0.309,0.086 0.442,0.133 0.266,0.09 0.576,0.177 0.842,0.266 z M 18.85,-22.968 c 0.532,0.932 0.928,1.906 1.194,2.834 h 0.043 0.047 v 2.035 c -0.133,-0.086 -0.309,-0.176 -0.532,-0.262 -0.22,-0.047 -0.49,-0.137 -0.752,-0.176 z m 1.284,17.88 v 1.593 c 0.176,-0.223 0.266,-0.49 0.266,-0.799 0,-0.309 -0.09,-0.571 -0.266,-0.794 m 0.751,-5.711 v -2.211 c -0.223,0.223 -0.485,0.489 -0.751,0.665 v 1.945 c 0.309,-0.129 0.528,-0.266 0.751,-0.399 m 0,5.444 v -2.919 c -0.356,-0.623 -0.618,-1.237 -0.751,-1.594 v 3.762 c 0.219,0.266 0.485,0.532 0.751,0.751 m 0,10.044 C 20.662,4.603 20.4,4.56 20.134,4.513 V 2.567 c 0.266,0.044 0.485,0.087 0.751,0.13 z m -0.751,-24.823 c 0.266,0.086 0.528,0.18 0.751,0.266 v 2.388 c -0.223,-0.262 -0.442,-0.439 -0.751,-0.619 z m 2.563,15.887 v -2.215 c -0.266,-0.176 -0.485,-0.305 -0.704,-0.529 -0.442,-0.313 -0.799,-0.794 -1.108,-1.283 v 2.919 c 0.486,0.4 1.061,0.795 1.812,1.108 m 0,9.382 C 22.345,4.998 22.036,4.912 21.727,4.865 21.504,4.822 21.194,4.736 20.885,4.689 V 2.697 c 0.666,0.137 1.327,0.27 1.812,0.399 z m -1.812,-25.003 c 0.752,0.309 1.327,0.842 1.812,1.507 v 5.75 c -0.176,0.219 -0.352,0.442 -0.485,0.575 -0.356,0.356 -0.751,0.842 -1.327,1.237 v -2.211 c 0.443,-0.486 0.752,-1.104 0.928,-1.856 0.18,-0.708 -0.176,-1.816 -0.928,-2.614 z M 26.725,0 c -0.485,1.241 -0.884,2.567 -0.928,4.47 0,0.352 0.044,1.017 -0.266,1.103 -0.356,0.09 -0.974,0.4 -1.507,0.09 C 23.672,5.487 23.187,5.264 22.697,5.135 V 3.096 c 0.31,0.09 0.576,0.176 0.709,0.223 0.489,0.266 0.575,0.266 0.575,0.266 0,0 0.22,-1.151 0.22,-1.683 0,-0.485 0.313,-1.55 0.579,-2.078 0.575,-1.284 0.661,-2.039 0.661,-3.452 v -0.044 c -0.927,-0.046 -1.902,-0.223 -2.744,-0.575 v -2.215 c 0.932,0.665 1.903,1.107 3.496,0.974 0.176,0 0.356,0 0.532,-0.043 z m -4.028,-18.361 c 0.357,0.528 0.666,1.194 0.842,1.945 0,0.047 0.047,0.133 0.047,0.176 l 0.043,-0.043 c 0,0 1.061,-0.356 2.168,-0.399 0.31,-0.043 0.619,0 0.928,0 v 1.992 c -0.262,-0.046 -0.532,-0.046 -0.838,-0.046 -0.841,0.046 -1.726,0.356 -2.082,0.399 -0.086,0 -0.176,0.047 -0.309,0.09 -0.176,0.661 -0.489,1.237 -0.799,1.636 z m 4.028,1.679 c 0.665,0.09 1.241,0.219 1.55,0.266 0.885,0.133 1.726,1.061 2.787,1.726 1.108,0.666 2.834,1.46 4.07,1.86 1.194,0.395 1.331,0.884 1.284,1.236 -0.047,0.353 -0.798,0.975 -2.168,2.036 -1.417,1.061 -1.902,2.701 -3.096,3.941 -0.752,0.705 -1.992,1.456 -2.568,1.632 -0.309,0.09 -0.708,0.18 -1.194,0.223 0,0.267 0.043,1.86 -0.133,2.345 -0.176,0.489 -0.352,0.928 -0.532,1.417 v -5.531 c 1.593,-0.176 2.302,-0.575 3.1,-1.283 0.838,-0.752 1.104,-1.683 1.636,-2.478 0.572,-0.755 2.078,-2.125 2.078,-2.125 0,0 -2.344,-0.752 -3.495,-1.593 -1.327,-0.928 -1.949,-1.55 -3.319,-1.68 z" /></g><g
           transform="translate(17.7428,129.6448)"
           id="g56"><path
             id="path58"
             style="fill:#014da2;fill-opacity:1;fill-rule:nonzero;stroke:none"
             d="m 0,0 c 0,0 -0.665,0.884 -0.799,0.223 -0.129,-0.708 -0.395,-1.198 -0.618,-1.198 -0.262,0 -0.928,0.223 -0.884,0.49 0.086,0.309 0.356,1.189 0.043,1.236 -0.31,0.047 -1.813,0.533 -1.813,0.533 0,0 -1.017,0.219 -1.15,0.708 -0.177,0.442 -0.09,1.456 0.266,1.992 0.395,0.576 0.618,0.31 0.841,0.353 0.219,0.047 0.576,0.266 0.971,-0.309 0.399,-0.58 1.726,-1.594 1.55,-1.018 -0.133,0.528 -0.309,1.726 -0.799,2.877 -0.618,1.416 -1.769,2.61 -1.593,3.139 0.223,0.798 1.065,1.15 1.417,1.197 0.4,0.086 1.284,-0.712 1.284,-0.712 0,0 -0.043,-1.327 0.18,-2.165 C -0.575,5.617 -0.752,5.354 -0.575,3.894 -0.442,3.143 -0.842,2.035 0,1.945 0.751,1.859 2.834,-1.018 2.611,0.266 2.521,0.841 2.654,0.798 2.391,1.104 2.121,1.46 1.104,3.01 1.679,3.01 c 0.579,0 1.288,0 0.755,0.485 C 1.945,3.984 1.194,5.088 0.928,5.397 0.618,5.754 -0.047,6.548 0.528,6.857 1.104,7.213 1.46,6.99 1.726,6.591 1.945,6.239 2.035,5.706 2.434,5.53 2.697,5.44 2.967,5.088 2.877,5.706 2.744,6.372 2.258,7.609 2.168,7.785 2.078,7.965 2.391,8.893 2.697,9.159 2.967,9.425 3.096,8.893 3.186,8.497 3.272,8.274 3.495,7.303 3.628,6.415 3.718,5.754 3.538,4.955 3.671,4.736 3.937,4.294 5.574,1.194 5.84,0.884 6.063,0.618 6.153,0.798 6.239,0.841 c 0.043,0.043 0.043,0 0,0.176 C 6.106,1.726 5.93,6.329 6.192,6.99 6.462,7.656 6.548,8.231 6.857,8.141 7.123,8.008 7.699,7.213 7.699,6.814 7.699,6.372 7.433,5.797 7.214,5.354 6.99,4.865 7.034,1.902 7.123,1.417 7.167,0.928 7.214,0.442 7.214,0.442 c 0.395,-0.176 3.272,-1.945 3.804,-1.593 0.086,0.09 0.086,0.176 0.043,0.309 -0.086,0.619 0,1.683 0.532,1.77 0.486,0.089 1.061,-0.263 0.975,-0.752 -0.133,-0.485 -0.575,-1.769 -0.133,-1.992 0.442,-0.176 4.333,-1.194 5.045,-1.37 0.705,-0.176 3.006,-1.108 2.078,-1.949 -0.974,-0.881 -1.726,-1.237 -2.078,-1.194 -0.313,0 -0.712,0 -0.489,0.399 0.266,0.399 0.399,0.665 -1.636,1.593 -1.993,0.889 -2.701,1.284 -2.744,1.018 -0.09,-0.266 0.176,-1.679 0.399,-1.769 0.219,-0.134 1.327,-1.194 0.486,-1.903 -0.885,-0.708 -1.946,-0.442 -1.946,-0.043 0,0.396 0.043,0.306 0.043,0.572 -0.043,0.309 -0.532,1.949 -0.532,2.744 0,0.751 0.133,0.884 0.133,0.884 L 7.785,-1.55 c 0,0 -0.481,0.18 -0.305,-0.705 0.129,-0.841 0.442,-3.1 1.327,-5.487 0.841,-2.345 1.502,-2.525 1.193,-3.538 -0.266,-1.065 -0.927,-1.773 -0.974,-1.464 -0.133,0.399 -0.885,0 -1.061,0.442 -1.151,2.568 -1.061,6.685 -1.417,9.425 -0.133,1.061 -0.219,1.859 -0.219,1.859 0,0 -2.168,1.194 -2.435,1.417 C 3.671,0.528 3.847,-0.576 3.937,-1.859 3.984,-2.345 3.894,-2.787 3.984,-3.096 4.247,-3.848 4.56,-4.865 3.937,-5.179 1.902,-6.106 2.654,-2.611 2.434,-2.035 2.345,-1.769 2.168,-1.945 2.035,-1.769 1.503,-1.194 0.708,-0.576 0,0" /></g><g
           transform="translate(44.115,154.3795)"
           id="g60"><path
             id="path62"
             style="fill:#014da2;fill-opacity:1;fill-rule:nonzero;stroke:none"
             d="M 0,0 C 0,0 0.176,0.618 0.751,0.575 1.859,0.528 6.415,-3.272 6.282,-4.204 6.239,-4.513 4.912,-6.192 4.47,-6.063 4.071,-5.887 3.671,-4.998 3.362,-4.384 2.521,-2.834 1.104,-1.37 0,0" /></g><g
           transform="translate(48.584,160.4412)"
           id="g64"><path
             id="path66"
             style="fill:#014da2;fill-opacity:1;fill-rule:nonzero;stroke:none"
             d="m 0,0 c -0.266,-0.309 -0.442,-0.666 -0.399,-0.928 0.09,-0.356 -1.241,-0.931 -1.061,-1.464 0.133,-0.575 0.575,-0.704 0.932,-0.485 0.219,0.18 0.395,0.266 0.528,0.356 z m -8.008,-2.345 c 0,0 0,-1.15 -0.266,-1.46 -0.223,-0.309 -0.662,-0.356 -0.885,-0.399 -0.266,-0.043 -0.09,0.176 -0.352,-0.09 -0.223,-0.219 -1.73,-0.352 -1.241,0.576 0.442,0.931 0.618,0.798 0.752,1.283 0.133,0.49 0.575,2.302 0.751,3.143 0.223,0.885 0.798,2.701 0.798,2.701 0,0 0.31,0.619 -0.665,2.078 -0.971,1.46 -1.503,2.478 -1.812,2.873 -0.313,0.4 -0.352,0.799 0.043,0.799 0.399,-0.043 3.006,-0.399 3.276,-0.442 0.262,-0.044 0.442,-0.134 0.618,0.442 0.177,0.575 0.31,1.417 0.799,0.931 0.485,-0.489 1.327,-1.33 0.928,-2.701 -0.4,-1.373 -0.709,-1.992 -0.224,-3.718 0.443,-1.679 0.443,-2.92 0.666,-3.143 0.219,-0.176 0.438,-1.28 0.708,-1.056 0.309,0.176 0.971,1.236 1.018,2.743 0.043,1.057 -0.352,1.546 -0.442,1.989 -0.047,0.043 -0.047,0.09 -0.047,0.09 -0.22,0.618 0,1.236 0.399,1.369 h 0.09 c 0.528,1.726 0.485,3.496 1.327,5.312 0.309,0.575 0.884,1.018 1.194,0.442 C -0.442,11.104 -0.223,10.799 0,10.4 V 7.609 C -0.485,8.36 -0.842,8.936 -0.928,9.073 -1.104,9.425 -1.417,9.824 -1.679,8.055 -1.945,6.329 -2.168,5.93 -1.593,5.797 -1.065,5.663 -0.399,5.397 -0.709,4.204 -1.065,2.967 -1.902,2.035 -1.816,1.64 c 0.137,-0.446 0.09,-1.417 0.356,-1.773 0.219,-0.352 0.043,-1.194 -0.442,-1.151 -0.49,0.043 -1.108,0.133 -1.108,0.133 v -2.654 c 0,0 -1.769,-1.593 -1.593,-0.798 0.18,0.798 0.665,1.636 0.665,2.258 0,0.619 -0.841,0.885 -1.107,1.546 -0.219,0.623 -1.284,3.014 -1.722,2.701 -0.447,-0.262 -1.065,-2.607 -1.065,-3.319 -0.047,-0.705 -0.176,-0.928 -0.176,-0.928 m 9.026,-3.847 v -0.356 c -0.043,0 -0.09,0.086 0,0.309 z m 0,2.92 v -0.842 l -0.443,0.486 c 0.043,0.089 0.223,0.219 0.443,0.356 m 0,3.495 V -1.018 C 0.751,-1.46 0.485,-1.902 0.485,-2.168 c 0,-0.4 -0.352,-0.31 -0.352,-0.31 0,0 -0.043,0 -0.133,-0.043 V 0 c 0.176,0.176 0.399,0.309 0.575,0.309 0.133,0 0.31,0 0.443,-0.086 M 0,10.4 C 0.309,9.953 0.665,9.472 1.018,8.983 V 6.106 C 0.665,6.638 0.309,7.167 0,7.609 Z M 1.018,-1.018 C 1.194,-0.752 1.37,-0.485 1.46,-0.352 1.593,-0.133 1.327,0.09 1.018,0.223 Z m 2.078,0.4 V -6.063 C 2.478,-5.441 2.301,-5.265 2.035,-5.617 1.859,-5.93 1.241,-6.591 1.018,-6.548 v 0.356 c 0.309,0.837 0.751,1.327 0.751,1.327 l -0.751,0.751 v 0.842 c 0.485,0.352 1.197,0.837 1.197,0.837 0,0 -0.094,1.331 0.13,1.55 0.133,0.133 0.532,0.4 0.751,0.267 M 1.018,8.983 C 1.64,8.098 2.391,7.213 3.096,6.329 v -3.1 c 0,0.043 0,0.043 -0.043,0.043 C 2.521,3.937 1.769,5.045 1.018,6.106 Z M 3.096,-6.063 c 0.047,-0.043 0.09,-0.043 0.09,-0.086 0.708,-0.665 1.237,-0.756 2.078,-0.665 0.842,0.133 0.047,1.326 0.047,1.326 0,0 -1.949,2.216 -2.125,2.521 -0.133,0.313 0.086,1.327 0.086,1.992 0,0.223 -0.086,0.309 -0.176,0.357 z m 0,12.392 c 1.288,-1.55 2.611,-3.057 3.542,-4.071 2.478,-2.657 3.848,-4.203 3.848,-4.203 0,0 -0.086,-1.464 -1.46,-1.594 -1.417,-0.179 -3.762,-0.266 -4.028,-0.133 -0.219,0.133 -0.219,0.133 0.442,0.529 0.666,0.356 1.993,0.575 1.95,1.065 0,0.485 -3.053,3.761 -4.294,5.307 z" /></g><g
           transform="translate(85.6194,186.1933)"
           id="g68"><path
             id="path70"
             style="fill:#014da2;fill-opacity:1;fill-rule:nonzero;stroke:none"
             d="m 0,0 -1.327,-0.709 c 0,0 0.043,1.151 1.55,2.568 1.503,1.37 2.83,2.92 3.538,3.186 C 4.47,5.311 5.664,5.397 5.664,4.603 5.711,3.804 5.311,2.434 5.045,1.859 4.779,1.284 4.114,-4.423 4.071,-4.865 3.984,-5.355 2.744,-6.153 2.391,-6.282 2.035,-6.415 2.035,-7.081 2.121,-8.407 c 0.047,-1.284 0.094,-1.64 0.576,-1.594 0.489,0 1.906,0.49 1.992,-0.309 0.09,-0.794 -1.417,-3.409 -1.503,-3.585 -0.266,-0.575 -0.442,-1.061 0.176,-0.971 0.666,0.087 1.327,0.619 1.992,0.795 0.619,0.176 0.752,0.047 1.237,-0.529 0.489,-0.622 0.356,-1.73 -0.927,-1.949 -1.327,-0.219 -1.194,-0.399 -1.903,-0.485 -0.708,-0.09 -2.61,-0.09 -2.876,0.704 -0.267,0.799 0.794,0.619 0.618,1.151 -0.133,0.533 0.047,2.435 -0.176,2.392 -0.266,0 -1.28,0.395 -0.928,0.884 0.086,0.176 0.352,0.266 0.399,0.623 0.13,0.751 -0.09,1.945 -0.27,2.207 -0.262,0.399 -1.413,0.756 -0.97,1.507 0.133,0.262 0.266,0.219 0.395,0.575 0.27,0.576 0.27,1.636 0.446,1.856 0.219,0.356 -0.176,0.399 -0.532,0.313 -0.309,-0.043 -0.795,0.485 -0.395,0.974 0.262,0.31 1.056,0.176 1.326,0.795 0.13,0.356 0.087,1.151 0.13,1.55 0.176,1.061 0.133,1.018 0.133,1.018 0,0 0.755,0.708 0.841,0.219 0.133,-0.486 0.043,-1.374 0.043,-1.989 0,-0.579 0.27,-1.24 0.576,-0.712 C 2.834,-2.478 3.495,1.64 3.718,2.254 3.937,2.92 3.847,3.894 3.448,3.409 2.478,2.301 0.928,1.194 0,0" /></g><g
           transform="translate(82.0796,184.2912)"
           id="g72"><path
             id="path74"
             style="fill:#014da2;fill-opacity:1;fill-rule:nonzero;stroke:none"
             d="M 0,0 C -0.266,0.09 -0.618,0.485 0.09,0.708 0.841,0.928 1.859,1.151 1.992,0.442 2.078,-0.223 2.478,-2.521 2.521,-2.877 2.568,-3.272 2.744,-4.161 1.64,-4.071 0.575,-4.028 0.665,-3.272 0.618,-2.302 0.528,-1.327 0.266,-0.09 0,0" /></g><g
           transform="translate(77.5221,182.0788)"
           id="g76"><path
             id="path78"
             style="fill:#014da2;fill-opacity:1;fill-rule:nonzero;stroke:none"
             d="m 0,0 c 0,0 -0.223,-0.133 -0.485,-0.442 -0.314,-0.31 -0.443,-0.576 -0.799,-0.623 -0.219,0 -1.503,0.447 -1.55,0.713 0,0.219 -0.176,0.575 0.09,0.927 0.709,0.842 2.654,1.992 3.01,2.345 0.485,0.489 1.812,1.683 1.949,0.974 0.039,-0.309 0.928,-0.708 0.881,-1.327 0,-0.798 -0.575,-2.125 -0.575,-2.614 0,-0.881 -0.177,-3.538 -0.177,-3.538 0,0 0.752,-0.087 0.666,-0.619 -0.133,-0.485 -1.065,-1.018 -0.442,-1.413 0.575,-0.399 0.794,-0.09 0.927,0.482 0.133,0.575 0.442,1.197 0.442,1.197 0,0 -0.09,-1.46 -0.841,-4.336 -0.795,-2.877 -1.503,-4.028 -2.168,-4.47 -0.662,-0.443 -1.503,-0.133 -1.237,0.575 0.262,0.666 0.176,1.503 0.309,1.902 0.133,0.399 0.575,1.507 0.665,1.727 0.086,0.223 -0.047,1.506 -0.489,1.549 -0.442,0 -1.46,-0.751 -1.992,-0.841 -0.529,-0.133 -0.086,1.593 -0.086,1.503 0.133,-0.262 0.309,0.223 0.532,0.442 0.571,0.532 1.28,0.799 1.28,0.799 0,0 0.798,0.176 0.665,1.37 -0.09,1.197 -0.047,3.009 -0.223,3.409 C 0.176,0.133 0,0 0,0" /></g><g
           transform="translate(123.6284,183.6269)"
           id="g80"><path
             id="path82"
             style="fill:#014da2;fill-opacity:1;fill-rule:nonzero;stroke:none"
             d="m 0,0 c 0.047,0.047 -0.266,0.309 -0.176,0.489 0.176,0.262 0.794,0.395 1.46,0 1.15,-0.798 1.812,-1.017 4.113,-1.331 2.302,-0.352 2.877,0.176 3.41,0 0.528,-0.133 2.035,-1.413 2.035,-1.413 0,0 0.043,-0.974 -0.533,-1.373 C 10,-3.895 7.699,-5.531 6.063,-7.034 4.912,-8.055 4.161,-8.983 4.071,-9.112 c -0.4,-0.622 0.532,-0.356 1.503,-0.18 0.266,0.043 0.399,0.442 0.618,0.399 0.399,-0.09 1.198,-0.665 1.331,-0.884 0.219,-0.27 -0.133,-1.726 -1.949,-1.464 -1.856,0.313 -3.539,-0.176 -5.484,-0.662 -1.906,-0.489 -4.427,-1.37 -5.088,-1.945 -0.709,-0.576 -1.683,0.352 -2.658,0.881 -0.309,0.223 -0.661,0.399 -0.884,1.021 -0.22,0.752 -0.177,1.769 0.399,1.722 0.974,-0.043 0.751,0 1.859,-0.176 1.104,-0.219 0.485,-0.219 2.121,0.223 1.683,0.443 3.143,0.709 3.586,0.842 0.399,0.133 4.379,3.761 5.045,4.29 0.708,0.532 3.98,2.743 3.315,2.967 C 7.123,-1.816 4.204,-2.787 3.272,-2.92 3.053,-2.967 3.053,-3.362 2.834,-3.409 2.168,-3.539 1.104,-3.229 0.618,-2.392 0.309,-1.902 -0.133,-0.576 0,0" /></g><g
           transform="translate(158.2306,156.3707)"
           id="g84"><path
             id="path86"
             style="fill:#014da2;fill-opacity:1;fill-rule:nonzero;stroke:none"
             d="m 0,0 c 0.047,0 -0.223,-0.752 -0.223,-1.593 0,-0.842 0.133,-2.92 0.489,-3.895 0.352,-1.017 0.795,-2.168 1.061,-2.52 0.266,-0.353 0.618,-1.284 -0.309,-0.799 -0.576,0.31 -1.108,1.065 -1.636,1.417 -0.709,0.533 -1.417,0.662 -1.727,0.975 -0.532,0.442 -0.399,0.618 -0.223,2.43 0.133,1.241 0.709,1.95 0.709,2.482 0.043,0.575 0.133,1.327 0.618,1.413 C -0.799,0.047 -0.047,0 0,0" /></g><g
           transform="translate(161.2836,164.5122)"
           id="g88"><path
             id="path90"
             style="fill:#014da2;fill-opacity:1;fill-rule:nonzero;stroke:none"
             d="m 0,0 c 0.133,0.266 0.133,0.575 0.133,0.928 0,0.313 0.485,0.442 1.108,0.622 0.618,0.176 0.575,0.129 1.06,-0.576 0.486,-0.708 1.237,-1.326 0.486,-2.301 -0.529,-0.751 -2.654,-3.057 -2.478,-3.276 0.266,-0.352 -0.043,0.18 0.533,0.043 0.661,-0.129 1.416,0 1.549,-0.352 0.306,-0.705 -0.712,-2.079 -1.287,-1.816 -0.439,0.18 -1.589,1.154 -2.388,0.755 -0.442,-0.219 -0.971,-0.755 -1.593,-1.061 -0.485,-0.223 -1.061,-0.223 -1.46,-0.532 -1.061,-0.751 -2.92,-1.55 -3.362,-1.636 -0.442,-0.09 -3.581,-0.622 -4.779,-0.799 -1.194,-0.133 -2.568,0.09 -3.319,0.047 -1.507,-0.047 -2.877,0.086 -4.556,0.22 -0.266,0 -0.047,0.575 0.971,0.708 0.575,0.043 2.348,0.442 4.16,0.619 1.46,0.133 2.92,-0.044 3.981,0.352 2.391,0.888 5.178,1.107 5.753,1.949 0.533,0.884 0.177,0.532 -0.704,0.489 -0.889,-0.047 -2.305,-0.18 -3.1,0.881 -0.266,0.352 -0.309,0.622 -0.219,0.841 0.086,0.223 0.219,0.576 0.485,0.666 0.266,0.043 0.709,-0.133 0.971,-0.133 0.888,-0.133 3.01,-0.266 3.495,-0.443 0.532,-0.18 1.949,-0.09 2.168,0.177 C -2.168,-3.409 -0.176,-0.266 0,0" /></g><g
           transform="translate(179.1598,127.4763)"
           id="g92"><path
             id="path94"
             style="fill:#014da2;fill-opacity:1;fill-rule:nonzero;stroke:none"
             d="m 0,0 v -0.799 c -0.352,0.047 -0.575,0 -0.665,-0.305 -0.177,-0.622 0.575,-1.55 0.137,-1.683 -0.49,-0.133 -0.889,-0.575 -2.083,0.572 -1.194,1.154 -1.992,1.24 -2.877,1.549 -0.841,0.314 -2.344,0.756 -1.902,0.138 0.442,-0.576 0.709,-0.975 1.061,-1.022 0.356,-0.043 1.194,-1.593 0.712,-2.435 -0.446,-0.837 -0.622,-0.438 -1.64,0.137 -0.974,0.619 -1.902,1.014 -2.078,1.194 -0.137,0.133 0.838,0.086 1.194,0.133 0.309,0.086 0.794,0 0.262,0.576 -0.795,0.794 -1.057,0.575 -1.503,0.129 -0.395,-0.352 -1.104,-0.881 -1.37,-1.018 -0.575,-0.219 -2.654,-1.46 -3.096,-1.636 -0.399,-0.176 -1.949,-0.352 -2.082,0.309 -0.086,0.223 -0.043,0.666 -0.133,1.151 -0.176,0.975 -0.4,2.035 -0.443,2.211 0,0.271 0.224,0.846 0.576,0.271 0.313,-0.533 0.751,-1.907 1.151,-2.04 0.09,0 0.266,0.176 0.618,0.267 0.399,0.086 0.975,0.086 1.417,0.266 0.798,0.395 1.503,1.017 1.769,1.15 0.532,0.357 0.751,0.486 -0.129,1.327 -0.889,0.842 -3.19,1.593 -4.032,3.006 -0.176,0.313 -0.618,1.112 -0.661,1.417 0,0.223 0.532,0.575 0.708,0.575 0.223,0.047 0.576,-0.618 0.752,-0.837 0.266,-0.575 1.241,-1.46 1.816,-1.683 0.219,-0.086 0.399,-0.086 0.795,-0.266 0.708,-0.309 1.639,-0.838 1.992,-1.104 0.532,-0.399 1.103,-0.576 1.593,-0.489 0.532,0.09 1.107,-0.619 1.503,-0.795 0.356,-0.176 2.078,-0.665 2.61,-0.442 0.576,0.223 0.799,0.223 0.4,0.352 -0.4,0.133 -2.877,2.078 -3.453,3.053 -0.043,0.09 -0.884,0.399 -0.927,0.489 -0.399,0.842 0.485,0.971 1.151,0.266 0.704,-0.798 1.15,-1.287 1.945,-1.73 C -4.071,1.816 -3.718,1.816 -2.834,1.017 -1.992,0.266 -1.769,-0.047 -1.46,0 -1.241,0.047 -0.665,0.047 0,0 M -0.309,1.859 C -0.266,2.035 -0.223,2.345 0,2.521 V 5.706 C -0.047,5.44 -0.176,5.178 -0.309,5.088 -0.665,4.998 -1.327,5.045 -1.327,5.045 c 0,0 -0.133,0.795 0.709,1.061 C -0.176,6.239 -0.047,6.016 0,5.754 v 1.013 0.09 1.816 C -0.528,7.922 -1.417,6.904 -1.992,6.282 -2.744,5.487 -3.538,5.663 -3.319,5.973 c 0.223,0.356 0.442,1.283 0.575,1.593 0.133,0.313 0,0.708 -0.223,1.241 C -3.229,9.292 -3.409,8.63 -3.762,7.922 -4.071,7.213 -4.56,6.505 -4.865,6.415 -5.178,6.282 -5.264,6.153 -5.617,5.754 c -0.399,-0.443 0,-0.357 0.482,-0.576 0.489,-0.223 2.391,-0.356 3.014,-0.442 0.618,-0.09 0.97,-0.622 0.927,-1.065 C -1.241,3.229 -2.435,3.538 -2.787,3.718 -3.186,3.894 -3.762,3.671 -3.585,3.409 -3.452,3.096 -2.654,3.01 -1.55,2.611 -0.442,2.215 -0.885,1.769 -1.151,1.679 -1.37,1.64 -1.859,1.769 -2.258,1.37 -2.611,0.974 -0.928,0.928 -0.665,0.974 -0.442,0.974 -0.266,1.017 0,0.928 v 0.798 c -0.223,0.09 -0.309,0.133 -0.309,0.133 M 1.104,-0.133 V -0.885 C 0.618,-0.885 0.266,-0.799 0,-0.799 V 0 c 0.352,-0.047 0.751,-0.09 1.104,-0.133 m 0,10 V 8.274 C 1.061,8.098 1.018,7.879 1.104,7.699 V 6.767 C 1.018,6.904 0.928,7.08 0.885,7.213 0.665,7.609 0.528,7.256 0.133,7.08 0.047,7.034 0,6.947 0,6.857 v 1.816 c 0.133,0.223 0.223,0.443 0.309,0.576 0.219,0.575 0.533,0.798 0.795,0.618 m 0,-8.274 C 0.975,1.55 0.798,1.55 0.618,1.593 0.352,1.64 0.133,1.679 0,1.726 V 0.928 c 0.09,0 0.176,-0.044 0.309,-0.13 C 0.575,0.665 0.842,0.575 1.104,0.575 Z M 0,2.521 c 0.09,0.09 0.176,0.133 0.352,0.133 0.266,-0.043 0.533,0.043 0.752,0.09 v 1.46 H 0.975 c 0,0 -0.447,0.266 -0.576,0.442 C 0.266,4.865 0.352,5.754 0.975,5.354 1.018,5.311 1.061,5.311 1.104,5.264 V 6.063 C 0.928,5.887 0.708,5.887 0.485,6.063 0.223,6.282 0.133,6.329 0.133,6.329 0.133,6.329 0,6.548 0,6.767 V 5.754 5.706 Z M 1.104,8.274 V 9.867 C 1.194,9.824 1.241,9.777 1.284,9.648 1.593,9.202 1.241,8.63 1.241,8.63 c 0,0 -0.09,-0.18 -0.137,-0.356 m 0,-5.53 C 1.241,2.787 1.417,2.787 1.503,2.787 1.816,2.697 2.254,2.035 1.902,1.945 1.64,1.902 1.417,1.726 1.104,1.593 V 0.575 c 0.18,-0.047 0.399,0 0.665,0.043 0.576,0.18 0.532,0.356 0.799,1.241 0.309,0.885 1.017,0 1.416,-0.399 C 4.337,1.104 5.178,0.485 5.397,-0.047 5.574,-0.528 4.689,-0.485 4.161,-0.399 3.585,-0.266 2.121,-0.223 1.151,-0.133 H 1.104 v -0.752 c 0.09,0 0.137,0 0.223,0.043 1.241,0.043 2.657,-0.751 3.671,-1.06 0.489,-0.176 1.155,-0.313 1.683,-0.133 0.576,0.176 0.975,0.618 1.061,1.06 C 7.785,-0.666 8.098,0.09 7.343,0.399 6.591,0.665 4.822,2.168 4.294,2.254 3.804,2.391 3.409,2.787 3.495,3.186 3.628,3.585 3.229,3.937 3.495,4.337 3.804,4.779 4.247,4.736 4.955,4.513 5.664,4.294 6.814,3.894 7.699,3.495 8.583,3.143 8.807,3.628 9.249,3.628 9.691,3.585 9.734,3.984 9.777,5.135 9.824,6.329 8.893,6.415 8.85,6.106 8.807,5.84 8.717,6.016 7.656,5.397 6.591,4.736 3.053,5.53 2.744,5.663 2.434,5.754 2.434,6.239 2.121,6.728 1.816,7.167 1.55,7.433 1.194,7.609 1.151,7.656 1.151,7.656 1.104,7.699 V 6.767 C 1.241,6.505 1.327,6.282 1.241,6.153 1.194,6.106 1.151,6.063 1.104,6.063 V 5.264 C 1.64,4.912 1.902,4.736 1.859,4.384 1.816,3.984 1.769,3.804 1.55,4.028 1.417,4.161 1.241,4.204 1.104,4.204 Z" /></g><g
           transform="translate(69.3805,23.4492)"
           id="g96"><path
             id="path98"
             style="fill:#014da2;fill-opacity:1;fill-rule:nonzero;stroke:none"
             d="M 0,0 -1.726,-5.84 -0.528,-6.329 0,-4.513 Z M 0,8.098 V 4.384 l -2.345,-6.243 c -0.223,-0.576 -0.442,-1.018 -0.798,-1.37 -0.309,-0.399 -0.619,-0.666 -1.018,-0.842 -0.352,-0.176 -0.704,-0.266 -1.103,-0.223 -1.464,0.133 -2.083,0.885 -2.568,2.078 -0.176,0.4 -0.223,0.889 -0.223,1.417 0,0.533 0.133,1.065 0.313,1.597 l 4.114,10.928 1.193,-0.575 -4.156,-11.018 c -0.223,-0.575 -0.223,-1.151 -0.047,-1.726 0.176,-0.529 0.485,-0.928 0.841,-1.104 0.356,-0.18 0.752,-0.137 1.237,0.086 0.446,0.219 0.798,0.666 1.022,1.241 z M 0,4.384 1.769,9.073 0.618,9.648 0,8.098 Z M 7.39,-3.319 6.239,-8.631 7.39,-8.893 Z m 0,10.353 v -4.6 L 4.56,-8.098 3.319,-7.699 3.409,6.681 0,-4.513 V 0 L 2.654,8.717 4.56,7.965 4.384,-3.848 7.257,7.08 Z m 0,-4.6 1.107,4.204 -1.107,0.396 z m 0,-11.327 v 5.574 L 9.425,6.239 10.666,5.93 7.523,-8.936 Z m 9.691,1.636 -0.489,-3.628 0.489,-0.043 z m 0,11.727 V 2.92 l -4.161,-13.187 -1.284,0.266 -0.219,15.755 1.28,-0.443 0.09,-12.259 3.452,11.551 z m 0,-1.55 0.442,1.417 -0.442,0.133 z m 0,-13.848 v 3.671 l 1.413,11.461 5.002,-0.709 -0.176,-1.503 -3.718,0.575 -0.619,-5.002 2.83,-0.399 -0.176,-1.503 -2.787,0.399 -0.795,-5.663 4.024,-0.486 -0.176,-1.507 z m 9.91,14.337 V 1.945 h -0.047 l -1.194,0.047 -0.262,-5.088 1.194,-0.047 h 0.309 v -2.474 l -0.223,0.971 -1.327,0.086 -0.309,-7.257 -1.284,0.047 0.666,15.308 z m 0,-9.026 v 2.474 c 0.353,0.09 0.666,0.266 0.928,0.622 0.266,0.486 0.532,1.417 0.575,2.036 0,0.618 -0.133,1.193 -0.399,1.679 -0.262,0.446 -0.614,0.708 -1.104,0.751 v 1.464 h 0.223 c 0.486,-0.047 0.881,-0.18 1.237,-0.399 0.356,-0.266 0.662,-0.576 0.885,-0.932 0.223,-0.352 0.352,-0.751 0.442,-1.194 0.09,-0.442 0.133,-0.837 0.133,-1.283 0,-1.593 -0.133,-1.28 -0.223,-1.46 C 29.559,-2.168 29.512,-2.568 29.383,-2.877 29.25,-3.229 29.07,-3.539 28.85,-3.805 28.631,-4.071 28.361,-4.247 28.056,-4.384 l 1.679,-7.652 -1.417,0.09 z m 12.744,-2.215 -0.974,11.55 -1.284,-0.18 1.331,-15.265 0.927,0.133 z m 0,11.636 V 2.345 h -0.176 l -0.133,1.416 z m -3.053,-4.732 h -1.193 c 0.043,1.726 -0.49,2.697 -1.593,2.744 -1.288,0.043 -1.863,-0.932 -1.863,-2.744 0.046,-0.974 0.356,-1.64 0.974,-2.039 0.223,-0.086 0.442,-0.305 0.799,-0.442 0.352,-0.176 0.618,-0.309 0.841,-0.396 1.679,-0.841 2.345,-1.992 2.298,-3.851 -0.13,-2.744 -1.147,-4.29 -3.183,-4.38 -1.416,-0.043 -2.344,0.756 -2.833,2.259 -0.176,0.485 -0.266,1.37 -0.223,2.743 h 1.107 c -0.133,-2.477 0.533,-3.671 1.993,-3.585 1.283,0.09 1.945,0.928 1.945,2.564 0,1.374 -0.439,2.082 -1.413,2.524 -0.09,0 -0.18,0.043 -0.266,0.176 -0.133,0.043 -0.353,0.176 -0.623,0.31 -0.661,0.309 -1.103,0.622 -1.416,0.841 -0.795,0.576 -1.194,1.636 -1.147,3.362 0.043,2.611 1.017,4.114 2.833,4.161 1.989,0 3.006,-1.55 2.963,-4.247 m 13.23,-1.769 1.55,-7.127 1.237,0.356 -1.503,7.123 0.97,8.717 L 50.93,6.016 50.178,-0.709 47.477,5.178 46.193,4.822 Z m -10.177,5.042 2.255,0.309 1.73,-13.715 1.233,0.219 -1.722,13.676 2.477,0.485 -0.176,1.327 -5.797,-0.842 z m 0,-13.939 v 3.762 l 0.353,-3.719 z M 61.548,8.807 V 6.767 C 61.372,6.99 61.239,7.213 61.106,7.346 60.797,7.609 60.531,7.785 60.264,7.832 60.045,7.832 59.779,7.785 59.513,7.699 59.294,7.609 59.071,7.433 58.938,7.213 58.761,6.99 58.628,6.681 58.585,6.239 c -0.047,-0.442 0,-1.018 0.087,-1.769 0.137,-0.752 0.665,-2.255 1.017,-3.366 0.356,-1.104 1.018,-2.963 1.327,-3.625 0.176,-0.356 0.356,-0.622 0.532,-0.888 v -1.989 c -0.133,0.086 -0.266,0.176 -0.395,0.31 -0.841,0.884 -1.949,3.448 -2.658,5.663 -0.751,2.259 -1.326,4.603 -1.193,5.887 0.133,1.28 0.751,2.168 1.769,2.611 0.927,0.399 1.726,0.309 2.477,-0.266 m 2.744,-12.435 v -1.86 c -0.133,-0.086 -0.219,-0.129 -0.356,-0.176 -0.838,-0.399 -1.679,-0.309 -2.388,0.266 v 1.989 c 0.133,-0.219 0.31,-0.396 0.443,-0.529 0.313,-0.309 0.575,-0.446 0.794,-0.485 0.27,-0.047 0.489,-0.047 0.756,0.086 0.266,0.09 0.442,0.266 0.618,0.489 0.043,0.043 0.09,0.13 0.133,0.22 m 0,7.565 c -0.708,1.993 -1.636,3.805 -2.388,4.56 -0.133,0.133 -0.223,0.22 -0.356,0.31 v -2.04 c 0.133,-0.219 0.31,-0.528 0.486,-0.837 0.313,-0.666 0.931,-2.126 1.283,-3.233 0.314,-0.928 0.756,-2.431 0.975,-3.363 z m 0,7.433 V 6.904 l -1.46,3.672 z m 0,-4.466 4.157,-10.576 1.197,0.619 -2.919,7.613 3.096,1.679 -0.529,1.327 -3.1,-1.636 -1.636,3.937 3.539,1.859 -0.619,1.327 -3.186,-1.683 z m 0,-12.392 v 1.86 c 0.09,0.18 0.18,0.442 0.18,0.751 0.086,0.442 0.039,1.061 -0.09,1.816 -0.047,0.086 -0.047,0.262 -0.09,0.395 v 4.603 c 0.09,-0.219 0.18,-0.489 0.219,-0.708 0.756,-2.255 1.374,-4.998 1.194,-6.282 -0.086,-1.151 -0.571,-1.945 -1.413,-2.435 m 14.999,13.719 -4.689,7.785 2.078,1.507 -0.751,1.237 -5.312,-3.804 0.713,-1.194 2.168,1.503 5.793,-9.602 z m 0,13.32 v -1.86 l -0.662,-0.579 0.662,-1.194 v -2.606 l -2.474,4.113 z m 0,-1.86 v 1.86 l 1.597,1.37 0.751,-1.194 z m 0,-14.028 v 2.568 l 2.477,-4.07 -1.103,-0.752 z m 6.415,3.187 -0.619,-0.576 -3.272,5.445 2.388,2.035 -0.795,1.194 -2.344,-2.035 -1.773,3.005 v -2.606 l 5.534,-9.12 0.881,0.798 z m 0,17.214 V 24.47 c -0.176,0.087 -0.352,0.13 -0.482,0.177 -0.223,0.043 -0.446,0.043 -0.622,-0.047 -0.176,-0.087 -0.352,-0.22 -0.489,-0.399 -0.176,-0.177 -0.352,-0.396 -0.439,-0.662 -0.09,-0.266 -0.09,-0.618 0,-1.061 0.087,-0.442 0.31,-0.974 0.662,-1.636 0.223,-0.399 0.798,-1.331 1.37,-2.168 v -2.345 c -0.043,0.086 -0.086,0.133 -0.129,0.176 -1.374,1.769 -2.877,4.38 -3.143,5.664 -0.266,1.237 0,2.301 0.841,3.143 0.662,0.705 1.413,0.971 2.212,0.795 0.09,0 0.133,-0.043 0.219,-0.043 m 0,1.945 V 27.481 L 85.444,27.7 Z m 0,-3.539 c 0.094,-0.09 0.18,-0.133 0.313,-0.223 0.262,-0.266 0.618,-0.575 0.975,-1.06 l 0.927,1.014 c -0.751,0.974 -1.503,1.596 -2.215,1.863 z m 0,-17.48 v 1.86 l 2.614,2.254 0.752,-1.194 z m 6.153,6.948 c -0.219,-0.176 -0.396,-0.266 -0.666,-0.353 -0.219,-0.046 -0.528,0 -0.88,0.134 -0.4,0.176 -0.842,0.485 -1.331,0.927 -0.532,0.489 -1.769,1.993 -2.431,2.834 -0.223,0.305 -0.532,0.751 -0.845,1.194 v -2.345 c 1.374,-1.73 3.143,-3.585 4.161,-3.984 0.708,-0.309 1.373,-0.309 1.992,-0.043 z m 0,4.693 v -1.949 c -0.219,0.352 -0.489,0.751 -0.795,1.15 z m 0,5.926 v -3.582 l -6.153,6.506 v 0.528 l 0.622,0.798 4.912,-4.959 z m 0,5.796 -2.345,2.435 -0.841,-1.108 3.186,-3.143 z m 0,4.779 v -3.229 l -1.769,1.593 1.326,1.856 z m 0,-22.83 v 1.636 0.047 c 0.176,0.176 0.309,0.352 0.399,0.528 0.086,0.223 0.086,0.486 0.086,0.752 -0.043,0.309 -0.129,0.665 -0.352,1.103 -0.047,0.094 -0.09,0.223 -0.133,0.314 v 1.949 l 0.176,0.176 c 0.931,-1.241 1.46,-2.345 1.55,-3.319 0.086,-0.975 -0.176,-1.816 -0.928,-2.568 -0.266,-0.266 -0.532,-0.485 -0.798,-0.618 m 5.886,11.945 -5.886,6.106 v -1.816 l 1.773,-1.812 -1.773,-2.168 v -3.582 l 4.117,-4.336 0.881,1.06 -4.689,5.131 2.391,2.92 3.186,-3.405 z m 0,7.966 v -1.414 l -5.354,2.474 5.354,-4.779 v -1.855 l -5.886,5.264 v 3.229 z m 0,3.452 -3.894,3.405 -0.708,-1.194 4.602,-4.113 z m 0,8.45 v -1.507 c -0.223,-0.043 -0.356,-0.086 -0.489,-0.176 -0.223,-0.176 -0.399,-0.399 -0.528,-0.661 -0.133,-0.22 -0.223,-0.49 -0.223,-0.795 -0.043,-0.27 0.047,-0.622 0.266,-1.022 0.176,-0.352 0.485,-0.794 0.974,-1.283 v -1.769 c -0.974,0.841 -1.816,1.73 -2.125,2.348 -0.575,1.104 -0.575,2.211 0,3.315 0.532,0.975 1.237,1.46 2.125,1.55 m 0,2.525 v -0.49 l -0.176,0.09 z m 0,-15.841 6.858,-3.189 0.794,1.197 -7.652,6.858 v -1.902 l 3.805,-3.453 -3.805,1.903 z m 0,-4.16 3.758,-3.366 0.798,1.151 -4.556,4.07 z m 0,-4.294 v 1.902 l 2.521,-2.653 -0.884,-1.065 z m 8.717,11.327 V 32.17 c -0.223,-0.091 -0.485,-0.091 -0.751,-0.048 -1.108,0.048 -3.719,1.598 -5.488,2.834 -0.798,0.576 -1.683,1.284 -2.478,1.946 v 1.769 c 0,0 0.043,0 0.043,-0.039 0.486,-0.49 2.212,-1.817 3.1,-2.392 0.838,-0.622 2.345,-1.55 2.963,-1.816 0.619,-0.309 1.546,-0.795 1.946,-0.842 0.266,0 0.485,0.047 0.665,0.09 m 0,5.312 c -0.932,0.841 -1.992,1.679 -2.877,2.344 -1.816,1.237 -4.29,2.697 -5.401,2.787 h -0.439 v -1.507 h 0.4 c 0.395,0 0.88,-0.176 1.503,-0.438 0.618,-0.313 2.387,-1.507 3.272,-2.126 0.841,-0.618 2.701,-2.035 3.233,-2.524 0.086,-0.129 0.219,-0.219 0.309,-0.352 z m 0,3.714 v -1.593 l -8.717,5.045 v 0.49 l 0.353,0.927 z m 0,11.418 c -1.55,0.485 -3.1,0.837 -3.851,0.708 -1.061,-0.176 -2.169,-0.708 -2.521,-1.945 -0.356,-1.198 0.176,-2.482 0.928,-3.452 0.751,-0.932 3.452,-2.306 5.444,-3.1 v 1.55 c -1.065,0.442 -2.744,1.193 -3.229,1.506 -0.575,0.353 -0.975,0.752 -1.241,1.057 -1.017,1.112 -0.927,2.615 0.885,2.92 0.356,0.047 0.884,0.047 1.55,-0.086 0.352,-0.09 1.194,-0.352 2.035,-0.665 z m 0,7.651 v -1.502 c -0.751,0.176 -1.374,0.266 -1.902,0.09 -0.932,-0.357 -1.108,-1.061 -0.889,-1.946 0.047,-0.266 0.223,-0.532 0.533,-0.798 0.266,-0.309 0.751,-0.576 1.374,-0.842 0.219,-0.086 0.528,-0.219 0.884,-0.352 v -1.55 c -1.327,0.442 -2.478,0.975 -3.143,1.55 -0.884,0.751 -1.198,1.769 -1.198,3.006 0,0.932 0.975,2.039 1.95,2.305 0.442,0.129 0.841,0.22 1.283,0.177 0.357,0 0.709,-0.048 1.108,-0.138 m 0,2.744 v -1.327 l -3.765,-0.794 0.27,1.507 z m 0,3.633 V 66.68 l -2.834,1.416 0.133,1.464 z m 0,-4.96 v 1.327 l 3.186,0.623 -3.186,1.546 v 1.464 l 4.822,-2.478 7.077,-1.284 -0.219,-1.46 -6.948,1.237 z m 0,-2.919 v 1.502 c 0.09,0 0.176,-0.039 0.266,-0.039 z m 0,-5.398 c 2.83,-0.928 6.548,-1.37 8.36,-0.928 1.065,0.263 1.77,0.971 2.036,2.212 0.176,0.927 0,1.726 -0.529,2.434 l 0.975,-0.223 0.219,1.151 -7.39,1.64 -0.618,-3.276 1.237,-0.309 0.352,1.769 c 0.536,-0.176 2.568,-0.529 2.924,-0.665 0.395,-0.133 0.708,-0.263 0.975,-0.443 0.262,-0.176 0.485,-0.395 0.614,-0.661 0.09,-0.266 0.137,-0.623 0.047,-0.975 -0.047,-0.266 -0.133,-0.528 -0.309,-0.751 -0.176,-0.176 -0.443,-0.353 -0.795,-0.443 -1.992,-0.622 -5.8,0.219 -8.098,1.018 z m 0,-8.54 v 1.55 c 0.176,-0.044 0.352,-0.133 0.485,-0.18 0.932,-0.396 2.302,-0.795 2.967,-0.928 0.662,-0.086 1.151,-0.086 1.546,-0.043 2.036,0.219 2.126,1.769 0.885,2.92 -0.309,0.266 -0.662,0.665 -1.241,1.017 -0.575,0.353 -1.945,0.889 -2.873,1.284 -0.446,0.176 -1.107,0.442 -1.769,0.662 v 1.507 c 0.752,-0.22 1.546,-0.486 2.211,-0.756 1.946,-0.794 3.848,-1.808 4.647,-2.783 0.751,-0.931 1.369,-2.258 1.017,-3.495 -0.399,-1.194 -1.55,-1.64 -2.654,-1.816 -1.107,-0.219 -3.233,0.223 -5.178,1.017 z m 0,-5.222 4.247,-2.473 2.211,5.127 -1.15,0.622 -1.637,-3.804 -3.671,2.121 z m 0,-8.935 v 1.502 c 0.09,0.048 0.176,0.048 0.219,0.091 0.223,0.176 0.399,0.352 0.533,0.618 0.133,0.266 0.219,0.532 0.219,0.841 0.047,0.267 -0.043,0.619 -0.263,1.018 -0.137,0.309 -0.399,0.575 -0.708,0.928 v 1.816 c 0.842,-0.799 1.546,-1.55 1.812,-2.082 0.576,-1.061 0.576,-2.165 0,-3.273 -0.442,-0.841 -1.06,-1.326 -1.812,-1.459" /></g><g
           transform="translate(20.6189,65.8829)"
           id="g100"><path
             id="path102"
             style="fill:#014da2;fill-opacity:1;fill-rule:nonzero;stroke:none"
             d="m 0,0 v -1.679 l -1.37,-0.537 -0.575,1.417 z M 0,10.486 V 8.936 L -1.945,8.274 C -2.478,8.098 -2.877,7.699 -3.096,7.167 -3.319,6.681 -3.409,6.192 -3.272,5.754 -3.143,5.311 -2.834,4.955 -2.392,4.736 -1.945,4.47 -1.417,4.47 -0.885,4.689 L 0,4.998 V 3.448 L -0.399,3.272 C -0.928,3.096 -1.37,3.01 -1.816,3.053 -2.255,3.096 -2.654,3.186 -3.01,3.409 c -0.352,0.176 -0.661,0.438 -0.928,0.795 -0.223,0.309 -0.446,0.661 -0.532,1.06 -0.133,0.399 -0.176,0.799 -0.133,1.241 0,0.442 0.09,0.884 0.266,1.28 0.223,0.446 0.442,0.798 0.799,1.151 0.352,0.313 0.751,0.622 1.236,0.798 z m 0,8.407 V 17.39 c -1.46,-0.356 -2.877,-0.799 -3.762,-1.198 -0.575,-0.262 -1.06,-0.575 -1.373,-0.837 -0.263,-0.309 -0.439,-0.576 -0.529,-0.842 -0.09,-0.309 -0.09,-0.266 -0.043,-0.528 0.043,-0.313 0.09,-0.266 0.266,-0.489 0.177,-0.223 0.443,-0.4 0.795,-0.529 0.352,-0.137 0.884,-0.18 1.55,-0.18 0.485,0.043 1.945,0.309 3.096,0.532 v -1.503 c -1.902,-0.313 -4.161,-0.536 -4.998,-0.223 -1.108,0.352 -1.683,0.842 -1.906,2.126 -0.22,1.237 0.09,1.812 0.974,2.649 1.151,1.112 3.538,1.993 5.93,2.525 m 0,6.505 c -1.417,-1.237 -2.611,-2.967 -3.848,-4.294 -0.18,-0.176 -0.399,-0.352 -0.622,-0.442 -0.266,-0.086 -0.528,-0.176 -0.884,-0.176 -0.486,-0.043 -0.885,0.09 -1.194,0.266 -0.356,0.223 -0.533,0.576 -0.576,1.104 -0.043,0.665 0.09,1.198 0.443,1.593 0.352,0.356 1.017,0.575 1.992,0.665 l -0.133,1.503 c -0.313,-0.043 -0.666,-0.129 -1.065,-0.219 -0.352,-0.086 -0.751,-0.262 -1.147,-0.532 -0.399,-0.266 -0.751,-0.619 -1.021,-1.147 -0.262,-0.532 -0.352,-1.198 -0.262,-1.992 0.043,-0.576 0.176,-1.022 0.438,-1.417 0.27,-0.399 0.575,-0.662 0.888,-0.842 0.353,-0.219 0.709,-0.356 1.018,-0.395 0.309,-0.09 0.575,-0.09 0.795,-0.09 0.442,0.043 0.794,0.129 1.064,0.176 0.266,0.09 0.529,0.223 0.795,0.399 0.708,0.529 1.949,2.435 3.319,3.981 z M 6.947,-8.983 v -1.679 l -3.01,-1.593 -0.751,1.237 z m 0,6.462 v -1.374 l -6.105,-2.962 -0.666,1.24 z m 0,5.265 V 1.151 L 0,-1.679 V 0 Z m 0,4.689 V 5.887 L 0,3.448 v 1.55 z m 0,5.311 L 0,10.486 v -1.55 l 6.947,2.391 z m 0,3.804 V 14.204 C 5.84,13.449 3.319,12.521 1.417,12.079 0.975,11.993 0.528,11.902 0,11.816 v 1.503 c 0.485,0.087 0.885,0.177 1.151,0.22 1.017,0.223 3.233,0.884 3.847,1.15 0.619,0.267 1.065,0.576 1.331,0.842 0.309,0.309 0.485,0.575 0.575,0.837 0,0.094 0,0.137 0.043,0.18 m 0,2.478 v -1.945 c -0.09,0.133 -0.18,0.133 -0.309,0.309 -0.133,0.219 -0.399,0.395 -0.751,0.528 -0.4,0.137 -0.889,0.223 -1.55,0.18 C 3.272,18.098 1.593,17.785 0,17.39 v 1.503 c 1.816,0.399 3.628,0.575 4.912,0.575 0.752,0 1.46,-0.133 2.035,-0.442 m -3.1,1.374 c 0.314,0.043 0.666,0.086 1.065,0.219 0.352,0.133 0.705,0.309 1.061,0.575 0.309,0.224 0.575,0.576 0.794,1.018 0.09,0.133 0.137,0.356 0.18,0.532 v 1.417 C 6.857,24.6 6.767,24.999 6.591,25.312 6.372,25.707 6.106,26.017 5.84,26.24 5.531,26.463 5.135,26.768 4.779,26.858 2.787,27.214 1.284,26.506 0,25.398 v -1.859 c 1.679,1.816 3.538,3.186 5.178,1.417 0.262,-0.266 0.486,-0.709 0.533,-1.417 0.043,-0.309 0,-0.618 -0.18,-0.842 C 5.397,22.478 5.178,22.302 4.955,22.169 4.736,22.079 4.513,21.993 4.294,21.946 4.071,21.903 3.894,21.903 3.718,21.856 Z m 3.1,-6.196 v 2.344 c 0.043,0.134 0.043,0.177 0,0.4 v 0.133 1.945 C 7.566,18.674 8.008,18.098 8.231,17.214 8.497,15.93 8.055,15.222 7.214,14.423 7.123,14.337 7.034,14.294 6.947,14.204 m 0,-2.877 v 1.417 l 2.036,0.662 0.399,-1.284 z m 0,-5.44 4.071,1.459 -0.489,1.371 -3.582,-1.284 z m 0,-4.736 v 1.593 l 4.028,1.64 -0.889,1.945 1.194,0.485 2.392,-5.354 -1.194,-0.486 -0.975,2.079 z m 0,-11.813 v 1.679 l 2.877,1.55 -2.168,3.894 -0.709,-0.356 v 1.374 l 7.124,3.319 0.618,-1.283 -5.616,-2.611 1.945,-3.632 5.664,2.79 0.798,-1.197 z m 0,33.406 c 0.043,0.31 0.043,0.662 0.043,1.018 -0.043,0.133 -0.043,0.262 -0.043,0.399 z" /></g><g
           transform="translate(37.8759,39.1575)"
           id="g104"><path
             id="path106"
             style="fill:#014da2;fill-opacity:1;fill-rule:nonzero;stroke:none"
             d="m 0,0 v -1.726 l -0.176,-0.176 -0.975,0.927 z M 0,7.034 V 5.135 l -3.895,-3.1 -0.97,1.108 z M -3.448,7.879 C -3.985,7.48 -4.47,7.213 -4.912,7.08 -5.311,6.904 -5.617,6.857 -5.887,6.857 c -0.266,0.047 -0.485,0.09 -0.618,0.223 -0.176,0.176 -0.309,0.309 -0.399,0.529 -0.13,0.27 -0.177,0.532 -0.177,0.798 0,0.31 0.09,0.619 0.314,1.018 0.219,0.399 0.575,0.841 1.103,1.374 1.55,1.546 3.629,3.006 5.664,4.023 v 1.593 C -2.92,15.135 -6.814,12.122 -7.879,10.176 -8.497,9.073 -8.497,7.965 -7.965,6.857 -7.523,5.93 -6.857,5.44 -5.973,5.397 -5.135,5.354 -4.071,5.754 -2.834,6.638 Z M 3.096,-1.769 V -3.628 L 2.301,-4.384 1.327,-3.362 Z m 0,4.513 V 1.017 L 0,-1.726 V 0 Z m 0,6.814 V 6.106 L 2.391,7.034 0,5.135 v 1.899 z m 0,3.139 C 3.053,12.654 3.01,12.611 2.967,12.568 2.697,12.255 2.345,11.945 1.902,11.636 l 0.619,-1.284 c 0.223,0.177 0.399,0.314 0.575,0.49 z M 0,14.822 c 0.176,0.043 0.309,0.134 0.442,0.177 0.662,0.313 1.151,0.442 1.55,0.489 0.399,0 0.662,-0.047 0.885,-0.176 0.09,-0.09 0.176,-0.133 0.219,-0.223 v 1.726 C 2.787,16.948 2.391,16.991 1.992,16.948 1.417,16.905 0.751,16.725 0,16.415 Z M 7.656,-2.521 V -4.689 L 5.354,-6.991 4.114,-5.93 Z m 0,4.912 -4.56,-4.16 v -1.859 l 4.56,4.117 z m 0,9.288 V 11.327 L 3.452,7.922 5.754,4.998 7.656,6.728 V 4.998 L 3.096,1.017 v 1.727 l 1.593,1.37 -1.593,1.992 v 3.452 l 3.761,3.01 z m -4.56,3.41 c 0.133,-0.09 0.223,-0.224 0.266,-0.4 0.133,-0.176 0.176,-0.395 0.223,-0.618 0.043,-0.223 0,-0.442 -0.09,-0.709 C 3.409,13.143 3.272,12.967 3.096,12.697 v -1.855 c 0.798,0.618 1.327,1.28 1.593,1.988 0.309,0.889 0.266,1.769 -0.176,2.658 -0.352,0.661 -0.842,1.103 -1.417,1.327 z m 4.56,-3.762 v 0.352 L 7.832,11.46 Z m 3.362,-22.568 v -0.219 l -0.09,0.09 z m 0,6.994 -2.834,-5.045 1.151,-0.885 1.683,1.726 z m 0,5.045 V -1.284 L 7.656,-4.689 v 2.168 z m 0,4.689 L 7.656,2.391 V 0.489 l 3.362,3.096 z m 0,2.744 V 8.008 L 7.656,4.998 v 1.73 l 2.567,2.345 z m 0,-0.223 v 0.223 l 0.133,-0.133 z m 0,-4.423 2.521,2.255 -1.061,0.974 -1.46,-1.327 z m 7.789,-7.57 -7.789,-7.256 v -0.219 l 1.018,-0.709 4.293,4.161 2.169,-1.816 -2.392,-4.955 1.237,-0.752 1.464,3.139 v 4.161 l -1.417,1.15 1.417,1.327 z m 0,5.488 v -2.031 l -7.789,-7.923 v 4.204 l 3.804,6.814 -3.804,-3.851 v 2.082 l 3.938,3.848 1.683,-1.417 -4.423,-8.227 z m 0,-2.031 v 2.031 l 0.219,0.223 1.151,-0.842 z m 0,-11.864 v 4.161 l 0.305,-0.266 2.525,5.487 -2.83,-2.744 v 1.769 l 3.538,3.319 1.374,-0.974 z" /></g><g
           transform="translate(112.7732,36.5146)"
           id="g108"><path
             id="path110"
             style="fill:#014da2;fill-opacity:1;fill-rule:nonzero;stroke:none"
             d="M 0,0 C 0.775,0.164 1.143,0.771 0.967,1.613 0.771,2.54 -0.098,2.826 -1.127,3.08 -1.679,2.591 -1.91,1.973 -1.765,1.291 -1.546,0.231 -0.763,-0.161 0,0 M -1.554,6.669 C -2.247,6.525 -2.493,5.906 -2.356,5.26 -2.18,4.415 -1.546,4.223 -0.548,3.937 -0.172,4.38 0.059,4.849 -0.086,5.53 -0.29,6.501 -0.955,6.795 -1.554,6.669 m 0.07,0.415 C -0.372,7.315 0.56,6.705 0.759,5.765 0.834,5.421 0.798,5.061 0.63,4.763 0.552,4.626 0.258,4.297 -0.172,3.824 0.716,3.55 1.616,3.162 1.828,2.157 2.11,0.802 1.041,-0.192 -0.059,-0.423 c -1.28,-0.266 -2.383,0.27 -2.626,1.44 -0.125,0.591 0.063,0.967 0.293,1.257 0.149,0.2 0.537,0.595 0.889,0.935 -0.845,0.282 -1.491,0.721 -1.664,1.543 -0.211,1.005 0.423,2.07 1.683,2.332" /></g><g
           transform="translate(85.0676,36.7666)"
           id="g112"><path
             id="path114"
             style="fill:#014da2;fill-opacity:1;fill-rule:nonzero;stroke:none"
             d="M 0,0 0.078,0.321 C 1.37,0.078 1.456,0.117 1.671,0.979 L 2.787,5.37 C 2.936,5.953 2.861,5.996 2.372,6.172 l -0.548,0.2 0.07,0.282 C 2.685,6.591 3.483,6.579 4.129,6.685 L 2.622,0.736 C 2.403,-0.133 2.458,-0.196 3.722,-0.603 L 3.64,-0.924 Z" /></g><g
           transform="translate(102.5129,35.0291)"
           id="g116"><path
             id="path118"
             style="fill:#014da2;fill-opacity:1;fill-rule:nonzero;stroke:none"
             d="m 0,0 -0.016,0.329 c 1.304,0.152 1.37,0.215 1.323,1.1 L 1.068,5.957 C 1.037,6.556 0.951,6.576 0.43,6.595 L -0.153,6.622 -0.164,6.92 C 0.607,7.092 1.374,7.319 1.965,7.609 L 2.286,1.479 C 2.333,0.583 2.407,0.54 3.734,0.528 L 3.75,0.199 Z" /></g><g
           transform="translate(95.7784,42.3164)"
           id="g120"><path
             id="path122"
             style="fill:#014da2;fill-opacity:1;fill-rule:nonzero;stroke:none"
             d="m 0,0 c -0.92,0.027 -1.264,-0.834 -1.292,-1.66 -0.031,-1.037 0.521,-1.917 1.511,-1.949 0.427,-0.012 0.818,0.125 1.073,0.309 0.043,0.259 0.062,0.541 0.07,0.767 C 1.397,-1.484 1.147,-0.035 0,0 M 1.233,-3.699 0.43,-4.079 c -0.266,-0.121 -0.489,-0.16 -0.716,-0.152 -1.26,0.039 -2.094,1.033 -2.055,2.27 0.036,1.159 0.975,2.415 2.494,2.372 C 1.675,0.36 2.485,-1.01 2.434,-2.615 2.368,-4.787 0.947,-6.36 -0.685,-6.936 -1.178,-7.108 -1.793,-7.186 -2.098,-7.198 l -0.086,0.344 c 1.687,0.255 2.971,1.339 3.417,3.155" /></g></g></g></g></svg>