<svg height="316.227766" viewBox="0 0 106.32051 106.30041" width="316.227766" xmlns="http://www.w3.org/2000/svg" xmlns:xlink="http://www.w3.org/1999/xlink"><clipPath id="a"><path d="m0 595h595.28v-595h-595.28z" transform="translate(-362.20701 -382.48491)"/></clipPath><clipPath id="b"><path d="m0 595h595.28v-595h-595.28z" transform="translate(-372.36431 -384.15231)"/></clipPath><clipPath id="c"><path d="m0 595h595.28v-595h-595.28z" transform="translate(-377.26861 -388.23391)"/></clipPath><clipPath id="d"><path d="m0 595h595.28v-595h-595.28z" transform="translate(-385.65141 -389.84281)"/></clipPath><clipPath id="e"><path d="m0 595h595.28v-595h-595.28z" transform="translate(-380.20021 -406.45461)"/></clipPath><clipPath id="f"><path d="m0 595h595.28v-595h-595.28z" transform="translate(-384.03221 -402.64261)"/></clipPath><clipPath id="g"><path d="m0 595h595.28v-595h-595.28z" transform="translate(-391.50491 -396.85601)"/></clipPath><clipPath id="h"><path d="m0 595h595.28v-595h-595.28z" transform="translate(-397.05371 -346.84621)"/></clipPath><clipPath id="i"><path d="m0 595h595.28v-595h-595.28z" transform="translate(-405.76171 -332.07281)"/></clipPath><clipPath id="j"><path d="m0 595h595.28v-595h-595.28z" transform="translate(-413.85741 -340.12211)"/></clipPath><clipPath id="k"><path d="m0 595h595.28v-595h-595.28z" transform="translate(-397.05371 -346.84621)"/></clipPath><clipPath id="l"><path d="m0 595h595.28v-595h-595.28z" transform="translate(-410.59081 -354.70211)"/></clipPath><clipPath id="m"><path d="m0 595h595.28v-595h-595.28z" transform="translate(-403.78911 -369.55131)"/></clipPath><clipPath id="n"><path d="m0 595h595.28v-595h-595.28z" transform="translate(-419.36521 -351.46441)"/></clipPath><clipPath id="o"><path d="m0 595h595.28v-595h-595.28z" transform="translate(-418.15821 -358.72561)"/></clipPath><clipPath id="p"><path d="m0 595h595.28v-595h-595.28z" transform="translate(-242.1553 -392.00831)"/></clipPath><clipPath id="q"><path d="m0 595h595.28v-595h-595.28z" transform="translate(-228.00541 -390.60941)"/></clipPath><clipPath id="r"><path d="m0 595h595.28v-595h-595.28z" transform="translate(-214.86081 -392.14361)"/></clipPath><clipPath id="s"><path d="m0 595h595.28v-595h-595.28z" transform="translate(-224.96001 -398.08111)"/></clipPath><clipPath id="t"><path d="m0 595h595.28v-595h-595.28z" transform="translate(-311.48051 -408.02591)"/></clipPath><clipPath id="u"><path d="m0 595h595.28v-595h-595.28z" transform="translate(-328.66801 -411.97271)"/></clipPath><clipPath id="v"><path d="m0 595h595.28v-595h-595.28z" transform="translate(-344.42681 -407.54791)"/></clipPath><clipPath id="w"><path d="m0 595h595.28v-595h-595.28z" transform="translate(-335.99711 -415.15381)"/></clipPath><clipPath id="x"><path d="m0 595h595.28v-595h-595.28z" transform="translate(-322.45021 -430.13771)"/></clipPath><clipPath id="y"><path d="m0 595h595.28v-595h-595.28z" transform="translate(-274.73931 -412.87301)"/></clipPath><clipPath id="z"><path d="m0 595h595.28v-595h-595.28z" transform="translate(-271.1665 -407.71971)"/></clipPath><clipPath id="A"><path d="m0 595h595.28v-595h-595.28z" transform="translate(-195.2788 -364.09131)"/></clipPath><clipPath id="B"><path d="m0 595h595.28v-595h-595.28z" transform="translate(-183.2271 -359.20411)"/></clipPath><clipPath id="C"><path d="m0 595h595.28v-595h-595.28z" transform="translate(-363.05181 -264.4736)"/></clipPath><clipPath id="D"><path d="m0 595h595.28v-595h-595.28z" transform="translate(-276.65431 -262.46191)"/></clipPath><clipPath id="E"><path d="m0 595h595.28v-595h-595.28z" transform="translate(-287.19241 -269.14841)"/></clipPath><clipPath id="F"><path d="m0 595h595.28v-595h-595.28z" transform="translate(-295.92141 -277.8662)"/></clipPath><clipPath id="G"><path d="m0 595h595.28v-595h-595.28z" transform="translate(-298.38381 -289.01761)"/></clipPath><clipPath id="H"><path d="m0 595h595.28v-595h-595.28z" transform="translate(-297.4453 -301.97171)"/></clipPath><clipPath id="I"><path d="m0 595h595.28v-595h-595.28z" transform="translate(-291.40771 -311.95361)"/></clipPath><clipPath id="J"><path d="m0 595h595.28v-595h-595.28z" transform="translate(-282.39361 -320.36621)"/></clipPath><clipPath id="K"><path d="m0 595h595.28v-595h-595.28z" transform="translate(-270.96531 -323.16211)"/></clipPath><clipPath id="L"><path d="m0 595h595.28v-595h-595.28z"/></clipPath><clipPath id="M"><path d="m0 595h595.28v-595h-595.28z" transform="translate(-418.56931 -288.96091)"/></clipPath><clipPath id="N"><path d="m0 595h595.28v-595h-595.28z" transform="translate(-416.37601 -277.5791)"/></clipPath><clipPath id="O"><path d="m0 595h595.28v-595h-595.28z" transform="translate(-428.42771 -256.4648)"/></clipPath><clipPath id="P"><path d="m0 595h595.28v-595h-595.28z" transform="translate(-416.81741 -242.11231)"/></clipPath><clipPath id="Q"><path d="m0 595h595.28v-595h-595.28z" transform="translate(-400.41601 -237.36131)"/></clipPath><clipPath id="R"><path d="m0 595h595.28v-595h-595.28z" transform="translate(-396.92771 -226.0361)"/></clipPath><clipPath id="S"><path d="m0 595h595.28v-595h-595.28z" transform="translate(-382.84471 -214.36721)"/></clipPath><clipPath id="T"><path d="m0 595h595.28v-595h-595.28z" transform="translate(-383.77441 -191.7002)"/></clipPath><clipPath id="U"><path d="m0 595h595.28v-595h-595.28z" transform="translate(-356.09671 -194.2666)"/></clipPath><clipPath id="V"><path d="m0 595h595.28v-595h-595.28z" transform="translate(-340.84471 -187.31251)"/></clipPath><clipPath id="W"><path d="m0 595h595.28v-595h-595.28z" transform="translate(-329.85551 -165.4883)"/></clipPath><clipPath id="X"><path d="m0 595h595.28v-595h-595.28z" transform="translate(-313.54101 -168.8408)"/></clipPath><clipPath id="Y"><path d="m0 595h595.28v-595h-595.28z" transform="translate(-292.49271 -177.7705)"/></clipPath><clipPath id="Z"><path d="m0 595h595.28v-595h-595.28z" transform="translate(-271.82571 -164.10841)"/></clipPath><clipPath id="aa"><path d="m0 595h595.28v-595h-595.28z" transform="translate(-269.0098 -164.9912)"/></clipPath><clipPath id="ab"><path d="m0 595h595.28v-595h-595.28z" transform="translate(-261.3931 -185.8555)"/></clipPath><clipPath id="ac"><path d="m0 595h595.28v-595h-595.28z" transform="translate(-231.14841 -180.3955)"/></clipPath><clipPath id="ad"><path d="m0 595h595.28v-595h-595.28z" transform="translate(-211.8154 -193.5986)"/></clipPath><clipPath id="ae"><path d="m0 595h595.28v-595h-595.28z" transform="translate(-198.8442 -206.168)"/></clipPath><clipPath id="af"><path d="m0 595h595.28v-595h-595.28z" transform="translate(-203.02101 -220.3457)"/></clipPath><clipPath id="ag"><path d="m0 595h595.28v-595h-595.28z" transform="translate(-192.73 -247.86041)"/></clipPath><clipPath id="ah"><path d="m0 595h595.28v-595h-595.28z" transform="translate(-169.8994 -258.82031)"/></clipPath><clipPath id="ai"><path d="m0 595h595.28v-595h-595.28z" transform="translate(-165.771 -276.14161)"/></clipPath><clipPath id="aj"><path d="m0 595h595.28v-595h-595.28z" transform="translate(-169.01121 -291.47071)"/></clipPath><clipPath id="ak"><path d="m0 595h595.28v-595h-595.28z" transform="translate(-443.46871 -295.5137)"/></clipPath><clipPath id="al"><path d="m0 595h595.28v-595h-595.28z" transform="translate(-393.37401 -295.5137)"/></clipPath><g fill="#5d0f13" fill-rule="evenodd"><path clip-path="url(#al)" d="m0 0c0-52.06-42.414-94.481-94.455-94.481-52.078 0-94.462 42.421-94.462 94.481 0 52.118 42.384 94.444 94.462 94.444 52.041 0 94.455-42.345 94.455-94.444m-94.455 97.491c-53.783 0-97.546-43.744-97.546-97.491 0-53.785 43.763-97.529 97.546-97.529 53.758 0 97.482 43.744 97.482 97.529 0 53.747-43.724 97.491-97.482 97.491" transform="matrix(.35277776 0 0 -.35277776 86.491684 53.16361)"/><path clip-path="url(#ak)" d="m0 0c0-79.689-64.84-144.492-144.549-144.492-79.728.018-144.627 64.803-144.627 144.492.01 79.728 64.899 144.569 144.627 144.569 79.709 0 144.549-64.841 144.549-144.569m-144.549 150.7c-83.089 0-150.719-67.56-150.719-150.7 0-83.062 67.63-150.624 150.719-150.624 83.082 0 150.662 67.562 150.662 150.624 0 83.14-67.58 150.7-150.662 150.7" transform="matrix(.35277776 0 0 -.35277776 104.163984 53.16361)"/><path clip-path="url(#aj)" d="m0 0c-.796-.21-1.342-.536-1.648-.824-.643-.768-.913-1.781-.709-3.276.084-.881.324-1.534.516-2.087.499-.979 1.218-1.42 2.233-1.324.564.076.965.402 1.216.997.248.536.459 1.36.537 2.491l.173 1.916c.161 1.897.439 3.199.803 4.004.69 1.285 1.85 2.032 3.564 2.279 1.553.174 2.988-.247 4.157-1.263 1.17-1.016 1.879-2.587 2.166-4.83.231-1.857-.018-3.505-.844-4.943-.783-1.437-2.145-2.318-4.021-2.566l-.404 3.448c1.036.23 1.706.747 2.049 1.724.231.595.26 1.284.173 2.147-.134 1.016-.439 1.724-.889 2.261-.413.497-1.026.746-1.679.632-.622-.019-1.071-.402-1.32-1.054-.136-.326-.297-1.13-.403-2.337l-.356-3.143c-.105-1.342-.43-2.473-.869-3.181-.673-1.187-1.794-1.782-3.335-2.03-1.611-.135-3.008.248-4.196 1.32-1.208 1.114-1.976 2.779-2.253 4.985-.305 2.355 0 4.271.883 5.631.863 1.457 2.183 2.28 4.015 2.511z" transform="matrix(.35277776 0 0 -.35277776 7.341475 54.58988)"/><path clip-path="url(#ai)" d="m0 0 17.11 3.987.845-3.679-6.572-1.438 1.56-6.629 6.525 1.551.834-3.603-17.122-4.023-.86 3.642 7.644 1.762-1.515 6.59-7.624-1.839z" transform="matrix(.35277776 0 0 -.35277776 6.198403 59.99765)"/><path clip-path="url(#ah)" d="m0 0 1.257-3.641 3.83.095 2.243-6.072-3.009-2.261 1.284-3.776 14.485 11.804-1.417 3.928zm15.579-3.2-5.758-4.502-1.513 4.254z" transform="matrix(.35277776 0 0 -.35277776 7.65481 66.10822)"/><path clip-path="url(#ag)" d="m0 0 1.764-3.47-7.647-11.725 10.826 5.594 1.554-3.006-15.597-8.125-1.688 3.296 7.838 12.071-11.096-5.767-1.608 3.104z" transform="matrix(.35277776 0 0 -.35277776 15.708938 69.97463)"/><path clip-path="url(#af)" d="m0 0c.775.863 1.042 1.896.823 3.064-.115.615-.442 1.305-.843 1.822-.825 1.15-1.957 1.762-3.353 1.88-1.398.094-2.97-.482-4.754-1.669-1.684-1.304-2.633-2.607-2.824-3.966-.126-1.285.191-2.474.949-3.507.669-.939 1.571-1.533 2.606-1.763 1.032-.248 2.048-.077 3.122.441l-2.376 3.295 2.358 1.744 4.292-5.939-7.617-5.519-1.448 1.974 1.515 1.514c-1.045.191-1.907.268-2.549.517-1.025.46-1.954 1.207-2.797 2.414-1.361 1.801-1.821 3.889-1.361 5.978.383 2.301 1.736 4.234 3.966 5.864 2.339 1.667 4.627 2.396 6.946 2.126 2.329-.306 4.217-1.456 5.738-3.583 1.274-1.801 1.918-3.583 1.763-5.288-.124-1.763-.785-3.296-2.067-4.409z" transform="matrix(.35277776 0 0 -.35277776 19.339376 79.68121)"/><path clip-path="url(#ae)" d="m0 0 12.462 12.511 2.637-2.683-4.811-4.731 4.811-4.715 4.749 4.715 2.608-2.608-12.455-12.454-2.607 2.645 5.577 5.556-4.802 4.733-5.545-5.519z" transform="matrix(.35277776 0 0 -.35277776 17.865893 84.68278)"/><path clip-path="url(#ad)" d="m0 0 3.104-2.339 3.104 2.242 5.231-3.91-1.227-3.506 3.181-2.472 5.47 17.916-3.363 2.548zm14.782 6.015-2.309-6.975-3.66 2.684z" transform="matrix(.35277776 0 0 -.35277776 22.441843 89.11699)"/><path clip-path="url(#ac)" d="m0 0-3.172 1.896 8.979 15.119 3.141-1.841z" transform="matrix(.35277776 0 0 -.35277776 29.262098 93.77475)"/><path clip-path="url(#ab)" d="m0 0-7.108 2.568-6.047-16.536 7.158-2.565c2.434-.942 4.696-.538 6.621 1.052 1.418 1.187 2.549 2.931 3.382 5.116.325.862.469 1.819.661 2.817.154 1.033.077 2.088-.192 3.142-.308 1.245-1.034 2.3-2.079 3.141-.605.384-1.399.825-2.396 1.265m-1.619-2.605c1.553-.632 2.483-1.438 2.702-2.53.191-1.11-.04-2.529-.652-4.233-.431-1.208-.977-2.167-1.704-2.951-1.188-1.457-2.653-1.841-4.283-1.207l-3.209 1.207 3.947 10.843z" transform="matrix(.35277776 0 0 -.35277776 39.931754 91.84858)"/><path clip-path="url(#aa)" d="m0 0-3.562.997 4.808 16.993 3.515-1.035z" transform="matrix(.35277776 0 0 -.35277776 42.618756 99.20904)"/><path clip-path="url(#Z)" d="m0 0 3.786-.805 1.868 3.295 6.37-1.359.374-3.794 3.88-.691-2.423 18.357-4.111.901zm10.942 11.557.727-7.285-4.396.999z" transform="matrix(.35277776 0 0 -.35277776 43.612145 99.52047)"/><path clip-path="url(#Y)" d="m0 0 3.841.229 7.788-11.708-.891 12.188 3.429.269 1.217-17.554-3.649-.306-7.96 11.976.871-12.36-3.432-.343z" transform="matrix(.35277776 0 0 -.35277776 50.903003 94.70079)"/><path clip-path="url(#X)" d="m0 0 .058-.401c.247-1.286.554-2.283.927-2.798.316-.479.911-.651 1.744-.479.814.096 1.264.479 1.448 1.129.078.403.078 1.017-.098 1.898l-2.125 12.072 3.622.726 2.117-12.147c.257-1.38.248-2.684-.127-3.602-.555-1.609-1.99-2.606-4.186-3.027-2.231-.364-3.792 0-4.763 1.034-.937 1.034-1.607 2.548-1.99 4.675l-.029.345z" transform="matrix(.35277776 0 0 -.35277776 58.328376 97.85099)"/><path clip-path="url(#W)" d="m0 0-3.572-.92-4.227 17.111 3.593.882z" transform="matrix(.35277776 0 0 -.35277776 64.083767 99.03368)"/><path clip-path="url(#V)" d="m0 0 3.372 1.455 4.427-9.885c.497-1.112 1.004-1.898 1.454-2.185.824-.805 1.926-.863 3.297-.288 1.342.727 2.05 1.571 2.05 2.626.067.632-.155 1.494-.652 2.624l-4.425 9.849 3.412 1.514 4.387-9.906c.785-1.667 1.09-3.142 1.015-4.368-.23-2.148-1.763-3.873-4.484-5.08-2.78-1.246-5.05-1.246-6.842.116-.976.671-1.858 1.881-2.605 3.564z" transform="matrix(.35277776 0 0 -.35277776 67.960513 91.33458)"/><path clip-path="url(#U)" d="m0 0 3.304 2.012 12.358-6.744-6.466 10.424 2.884 1.783 9.284-14.947-3.103-1.915-12.637 6.821 6.56-10.539-2.9-1.821z" transform="matrix(.35277776 0 0 -.35277776 73.34108 88.88133)"/><path clip-path="url(#T)" d="m0 0-2.941-2.222-10.747 13.891 2.948 2.261z" transform="matrix(.35277776 0 0 -.35277776 83.105154 89.7867)"/><path clip-path="url(#S)" d="m0 0 2.807 2.605 7.636-16.9-2.557-2.452-16.354 8.756 2.854 2.741 11.938-7.146z" transform="matrix(.35277776 0 0 -.35277776 82.777184 81.79029)"/><path clip-path="url(#R)" d="m0 0-5.747-7.108 2.931-2.338 5.25 6.439 2.357-1.917-5.252-6.439 3.537-2.893 6.017 7.359 2.404-1.975-8.239-10.154-13.692 11.036 7.999 9.906z" transform="matrix(.35277776 0 0 -.35277776 87.745344 77.67376)"/><path clip-path="url(#Q)" d="m0 0-4.35-7.205 15.117-9.103 1.83 3.085-5.901 3.621 1.849 3.03c.555.804 1.034 1.379 1.569 1.455.519.154 1.246-.057 2.177-.67l1.476-.785c.421-.287.872-.48 1.369-.672.211-.077.517-.21.882-.288l2.126 3.412-.325.269c-.441-.194-.823-.194-1.246-.096-.287.153-.786.401-1.484.784l-.986.594c-1.095.71-1.928.96-2.646 1.036-.663 0-1.379-.249-2.05-.71.241.997.047 1.841-.422 2.588-.44.9-1.033 1.416-1.79 1.876-.586.306-1.122.556-1.744.709-.556.039-1.141.039-1.666 0-.739-.153-1.391-.403-1.945-.821-.614-.367-1.161-1.094-1.84-2.109m2.202-2.166c.404.557.785.976 1.15 1.245.652.326 1.457.288 2.376-.269.863-.497 1.208-1.166 1.14-1.894 0-.462-.239-1.036-.632-1.708l-2.021-3.353-4.092 2.453z" transform="matrix(.35277776 0 0 -.35277776 88.975944 73.67848)"/><path clip-path="url(#P)" d="m0 0c.776-.174 1.418-.248 1.907-.076.892.21 1.627 1.033 2.25 2.354.307.826.576 1.535.576 2.15.114 1.052-.306 1.819-1.199 2.202-.546.211-1.044.211-1.56-.172-.48-.347-1.065-.978-1.764-1.88l-1.112-1.551c-1.11-1.514-2.067-2.529-2.834-2.951-1.208-.765-2.587-.765-4.139-.115-1.487.671-2.436 1.725-2.876 3.181-.497 1.495-.305 3.278.595 5.269.794 1.783 1.84 2.99 3.334 3.794 1.421.807 2.99.862 4.734.154l-1.428-3.219c-.998.383-1.868.23-2.606-.383-.508-.403-.977-.997-1.294-1.8-.41-.846-.574-1.688-.44-2.32.115-.708.517-1.168 1.103-1.495.582-.23 1.138-.115 1.656.307.325.194.87.805 1.571 1.82l1.934 2.433c.854 1.149 1.65 1.861 2.376 2.262 1.19.65 2.474.65 3.949 0 1.456-.651 2.414-1.743 2.912-3.334.479-1.514.192-3.354-.727-5.327-.902-2.203-2.156-3.583-3.66-4.445-1.467-.766-3.067-.785-4.716 0z" transform="matrix(.35277776 0 0 -.35277776 94.761994 72.00243)"/><path clip-path="url(#O)" d="m0 0-1.264-3.449-16.573 5.939 1.246 3.488z" transform="matrix(.35277776 0 0 -.35277776 98.857844 66.93919)"/><path clip-path="url(#N)" d="m0 0 2.989-.861-1.448-5.021 13.998-3.947-1.044-3.564-13.996 3.966-1.4-5.095-3.027.784z" transform="matrix(.35277776 0 0 -.35277776 94.606274 59.49053)"/><path clip-path="url(#M)" d="m0 0 .796 4.12 9.666-7.819 6.544-1.302-.73-3.583-6.531 1.283-11.909-3.832.824 4.217 8.192 2.066z" transform="matrix(.35277776 0 0 -.35277776 95.380024 55.47529)"/><path clip-path="url(#L)" d="m268.569 232.398h-29.565v119.87h29.565z" transform="matrix(.35277776 0 0 -.35277776 -52.281921 157.41427)"/><path clip-path="url(#K)" d="m0 0 3.285 29.758 11.171-3.008-9.685-27.42z" transform="matrix(.35277776 0 0 -.35277776 43.308615 43.40986)"/><path clip-path="url(#J)" d="m0 0 14.15 25.637 9.331-6.957-18.987-22.264z" transform="matrix(.35277776 0 0 -.35277776 47.340264 44.3962)"/><path clip-path="url(#I)" d="m0 0 23.56 18.701 5.691-9.083-25.608-14.159z" transform="matrix(.35277776 0 0 -.35277776 50.520239 47.36397)"/><path clip-path="url(#H)" d="m0 0 29.238 7.855.902-11.764-29.499-1.515z" transform="matrix(.35277776 0 0 -.35277776 52.650169 50.88537)"/><path clip-path="url(#G)" d="m0 0 29.201-2.719-1.81-10.826-28.329 7.777z" transform="matrix(.35277776 0 0 -.35277776 52.981252 55.45528)"/><path clip-path="url(#F)" d="m0 0 25.609-14.466-7.531-8.43-22.255 18.354z" transform="matrix(.35277776 0 0 -.35277776 52.112572 59.38925)"/><path clip-path="url(#E)" d="m0 0 18.683-23.548-9.647-5.712-14.18 25.332z" transform="matrix(.35277776 0 0 -.35277776 49.033174 62.4647)"/><path clip-path="url(#D)" d="m0 0 8.767-27.67-11.764-2.393-1.506 30.063z" transform="matrix(.35277776 0 0 -.35277776 45.315567 64.82354)"/><path clip-path="url(#C)" d="m0 0v88.158h-27.908v-109.119s0-5.519-7.406-11.44c0 0 30.177.42 35.314 32.401" transform="matrix(.35277776 0 0 -.35277776 75.794685 64.11386)"/><path clip-path="url(#B)" d="m0 0c1.917 1.974 4.829.211 6.705-2.183 1.487-1.744 3.957-2.319 5.732-3.048.784-.345 1.587-.727 2.375-1.053 1.225-.212 2.624 1.782 3.639 2.912.71.844 1.427 1.706 2.166 2.549.555.652 1.149 1.283 1.732 1.897.912 1.379 1.908 2.816 3.269 3.813.114 0 .258 0 .362-.077.137-.287.242-.537.326-.805.444-.651 1.584-.746 1.977-1.284-.719-1.897-2.1-3.217-3.393-5.153-.345-.499-1.103-1.342-1.534-1.17-.345-.325-.153-.48-.381-.843-.5-.671-1.209-.957-1.666-1.456-1.249-1.264-2.618-3.123-3.68-4.598-.499-.69-1.323-.881-1.725-1.476-.728-1.438-1.496-2.97-2.194-4.407-.231-.23-.536-.172-.882-.575.126-.383-.346-1.476-.651-1.763.123-.191.26-.441.26-.593-.069-1.265-1.314-2.722-1.918-4.043-.182-.48-.019-.958-.307-1.514-.833-1.302-4.244-2.07-4.426-.345-.374.976 1.112 2.683 1.599 3.775 1.007 2.358 1.985 4.714 2.98 7.128.536 1.168 1.812 2.834 1.708 4.042-1.172.748-2.837.748-4.121 1.19-3.535 1.34-8.298 5.805-7.952 9.08" transform="matrix(.35277776 0 0 -.35277776 12.356527 30.69505)"/><path clip-path="url(#A)" d="m0 0c.479.478 1.274 1.016 1.743.88 1.188-.555 1.956-1.666 2.31-2.414-.778-.824-.603-1.379-.929-1.991-.931-1.858-4.888-4.484-5.73-3.201-.9 1.457.566 3.755 1.389 5.192.432.537.832 1.035 1.217 1.534" transform="matrix(.35277776 0 0 -.35277776 16.608098 28.97095)"/><path clip-path="url(#z)" d="m0 0h-.124c-.193.652-.23 1.764 0 2.28.957.288 1.76.307 2.134 1.054 1.035.154 1.697-.766 2.425-1.188.01-.094 0-.191.048-.325-.776-.25-1.543-.498-2.424-.786-.65-.326-1.4-.729-2.059-1.035m3.879 4.58c-.046-.116-.154-.248-.231-.327-.21.172-.249.211-.383.5.116.152.229.325.308.4 0 0 .134 0 .152-.056.269-.134.192-.192.154-.517m-5.193 5.25c.489.518 1.523.958 2.088 1.341.575.364 1.15 0 1.621.364h.545c.633-.709.785-4.004.651-5-.076-.652-.479-1.189-.546-1.745-.239-.076-.468-.076-.755-.172-.059.135-.116.287-.231.383-.592.421-1.791 0-2.453-.421-.027.038-.094.038-.094.076-.585.901-.692 4.024-.826 5.174m20.867-7.455c-.421.077-.613-.229-.872 0-.202.404.067.672-.202.959-.238 0-.267 0-.45-.057-.633.325-1.054 3.123-1.092 3.87-.105-.077-.258-.249-.373-.307-.038-.478-.105-1.092-.21-1.608.018-.652.517-1.226.393-1.994-.183-.709-.721-1.532-.893-2.203-.249-.652-.133-1.226-.546-1.705-.346-.326-.756-.441-1.196-.767-.479-.345-.729-1.073-1.342-1.476-.345-.21-.949 0-1.321-.21-.307-.229-.52-.613-.769-.843-.67-.517-2.471-.154-3.045-.096-1.572.229-3.2-.67-4.552-.096-.143.192-.352.422-.506.671-.595.364-1.168.364-1.621.957.511.614 3.748.768 4.686 1.38 1.13.614.71 1.936 1.168 3.105.288.69 1.18 1.897 1.399 2.663.008.135 0 .287 0 .383-.277.096-.574-.038-1.053-.038-.058.038-.115.115-.211.134v.173c.384.402.748.708 1.149 1.092.269.536.823 4.809.469 5.747-.346.977-1.167 2.089-2.001 2.453-2.855 1.59-5.153-.593-7.876-1.053-.843 1.379 2.723 6.246-1.676 5.537-1.696-1.341-2.309-1.725-2.309-4.158.01-.421 0-.882 0-1.187.269-.518.872-.921 1.054-1.572-1.762-2.396-10.92-5.729-6.056-10.308 0-.653-.515-.653-.564-1.15-.21-2.108 2.232-6.458 3.632-6.61l.038.077c1.752 1.379-2.05 6.533-1.84 7.951.209 1.8 3.887 6.438 5.92 6.725.125-.057.251-.134.403-.23.202-1.016.363-1.437-.058-2.049.173-.652.872-1.879.872-2.282-.402-.728-3.545-.803-4.607-1.283-.395-.248-.749-.535-1.141-.824-.031-.172-.086-.325-.105-.44 1.419-.671 3.391.058 5.288.058.306-.421.219-.729.306-1.343.719-2.816-4.013-2.279-3.736-3.908 1.13-.594 3.029.441 4.254.709.728-.709 2.088-2.338 2.904-2.78 1.158-.304 2.346-.592 3.572-.784 1.015 0 2.033.115 3.095.192.698-.058 1.418-.192 2.194-.192.756-.095 1.169.48 1.801.671.872.113 2.703-.191 3.641.269.718.363 1.637 1.513 1.896 2.202.067.287.077.67.125 1.016.459.881 1.407 1.57 2.348 2.051.067.919.535 1.091.499 2.088-.31.134-.607.325-.883.42" transform="matrix(.35277776 0 0 -.35277776 43.379592 13.57982)"/><path clip-path="url(#y)" d="m0 0c-.079-.075-.192-.248-.308-.4.135-.268.173-.328.383-.5.077.078.185.211.232.326.038.326.114.384-.155.518-.018.056-.077.056-.152.056" transform="matrix(.35277776 0 0 -.35277776 44.639998 11.76185)"/><path clip-path="url(#x)" d="m0 0c.258-.114.183-.058.229-.249-.046-.939-1.954-3.295-2.281-4.924.058-.077.058-.077.058-.095 1.209-.326 3.719-.998 2.493-2.76-.921-1.245-2.942-.785-3.832-2.031-.195-.632-.375-1.282-.595-1.858-.363-1.994-1.312-4.043-1.601-5.921-.161-.805-1.177-2.204-.852-2.816.921 0 3.938.671 4.531-.058 0 0 .059-.114.059-.193-.775-.727-.261-1.34-.835-2.049-1.244-1.11-3.889.288-5.258-.384-.089-.631.373-.804.506-1.264.116-.498.202-2.932.02-3.295-.615-.383-.806.19-1.465.268-.28 0-.547 0-.807-.058-1.467.44-1.942 2.069-1.771 3.354.078.612.431.862.375 1.301.008.078 0 .078 0 .078-2.078.21-2.522.095-4.055-.614-.057.039-.182.097-.248.154-.393.344-.238.938-.555 1.302-.269.403-.691.576-.978.862.115.175.115.345.23.538.729.249 1.293.823 1.868 1.264 1.044.555 2.117 1.283 3.192 1.82 1.119.632 2.565.48 3.784 1.036.833 2.088 1.656 4.77 1.684 6.744-.527.096-.909-.115-1.35-.115-1.781.077-4.118 1.551-4.081 2.969.018.366.075 1.093.438 1.495.644.652 3.625 1.15 4.525 1.111.786-.038 1.399-.995 2.309-.459.735.421.832 1.609 1.368 2.433.843 1.208 1.717 2.031 2.895 2.414" transform="matrix(.35277776 0 0 -.35277776 61.471343 5.67125)"/><path clip-path="url(#w)" d="m0 0c.229-.133.401-.192.681-.287.171-.307.085-.537.171-.862.317-.574.652-1.188.948-1.705 0-.574-2.894-5.059-3.295-5.883-.451-.977-1.036-3.18-.536-3.736.172-.23 4.828-1.188 5.5-1.188.343.077.707.153 1.032.249.651 1.782 1.668 3.718 2.655 5.117.603.938.123 1.954.767 2.586.038-.133.115-.212.2-.382.097-.25.213-.404.346-.634.248-.038.641-.038.862-.288.075-.115.985-1.474.985-1.571.07-.708-.057-3.736-.429-4.119-.27-.193-.481-.133-.747-.21.114-.383.266-.748.364-1.113.298-4.272-7.187-2.778-9.678-2.72-.017-.115-.017-.212-.017-.289.066-.038.15-.171.23-.248v-.134l-.087-.019c-2.078.575-4.082.363-5.279 2.012.134.135.238.345.374.479-.115.882-.737 1.495-.737 2.472.055 2.126 2.755 4.981 3.831 6.382.45.612 2.231 2.91 1.859 3.446-1.055-.075-5.806-.536-6.429.308-.077 1.973 1.714 3.143 3.207 3.085 1.191 0 2.11-.748 3.222-.748" transform="matrix(.35277776 0 0 -.35277776 66.250387 10.95724)"/><path clip-path="url(#v)" d="m0 0c-.067-.076-.153-.076-.21-.154v-.345h.057.25c0 .135.038.23.038.345-.038.154.038 0-.135.154" transform="matrix(.35277776 0 0 -.35277776 69.224198 13.64043)"/><path clip-path="url(#u)" d="m0 0c2.289-1.396-1.706-8.047-3.307-8.315-.439.096-1.426.805-1.706 1.13.367 1.782 2.436 3.738 3.432 5.079.574.766.785 1.705 1.581 2.106" transform="matrix(.35277776 0 0 -.35277776 63.664844 12.07946)"/><path clip-path="url(#t)" d="m0 0s-.213 0-.317-.056c-.017-.02-.017-.077-.058-.173l.173-.135c.202-.075.393-.075.614-.133.027.058.018.058.059.133.046.058.036.135.036.231-.161.057-.316.077-.507.133" transform="matrix(.35277776 0 0 -.35277776 57.601475 13.4718)"/><path clip-path="url(#s)" d="m0 0c.555-.075.689-.591 1.053-1.015 0 0 .076 0 .096-.077.057.077.115.077.115.077-1.773 3.756-.709 5.768-1.322 9.102-.259 1.494-1.169 3.507-2.204 4.004-.229-.077-.48-.172-.746-.21-.404-.899.266-2.069.364-3.162.153-2.798 0-5.02 1.265-8.22.381-.21.747-.288 1.129-.574.087.075.153.075.25.075" transform="matrix(.35277776 0 0 -.35277776 27.078968 16.98011)"/><path clip-path="url(#r)" d="m0 0v.17c.508-.746.757-1.591.843-2.356.057-.095.057-.115.057-.192.442.614-.259 2.759-.392 3.699-.239 1.034.528 1.973.528 2.874 0 1.742-2.127 3.066-3.296 2.682-1.111-2.127.153-5.71 1.867-8.125.125.538.144.844.393 1.248" transform="matrix(.35277776 0 0 -.35277776 23.516194 19.07472)"/><path clip-path="url(#q)" d="m0 0c.709 0 2.26 2.146 2.531 2.548.859 1.284 1.013 2.586 1.723 3.832.585 1.016 1.409 1.744 1.934 2.663.432.786.604 1.592 1.372 2.205.067.574-.067.919.106 1.609-.24.095-1.046.172-1.316.594-.344 0-.487-.077-.889-.229-1.035-.864-2.03-1.744-3.054-2.549-.653-1.207-1.344-2.453-1.966-3.717-.153-.499-.288-1.055-.47-1.535-.181-.287-.401-.535-.661-.783-.297-.653-.23-1.707-.594-2.358-.249-.421-.612-.421-.708-.939.65-.421 1.302-1.361 1.992-1.341" transform="matrix(.35277776 0 0 -.35277776 28.153316 19.61596)"/><path clip-path="url(#p)" d="m0 0c-.103-.939-4.674-2.875-5.595-2.779-1.617 2.127.699 3.527 1.717 4.982.843.383 3.775-1.111 3.878-2.203m-.296-3.774c-.528-.345-.978-.345-1.454-.441-.061.096-.155.133-.204.21.049.058.204.174.221.268.459.115.822.173 1.228.307.084-.058.209-.134.209-.134zm-3.276-2.875c-.011-.365-2.414-2.874-2.951-3.295-.633-.193-1.283-.403-1.964-.632-.087.019-.202.095-.306.171.545 1.494 1.752 2.549 2.959 3.756.872.422 1.562.459 2.242.25.009-.116.02-.116.02-.25m10.183 10.078c-1.024.077-1.676-.843-2.569-1.092-.737.422-1.062 1.169-1.791 1.859-.919.785-2.317 1.666-3.428 1.915-2.069.385-3.392-.382-5.404-1.666-.631-.423-.9-.249-1.439-.881-.994-1.073-2.115-4.676-2.009-6.15.133-1.533 1.369-2.205 1.715-3.046-.54-.519-1.103-1.017-1.582-1.496-.02-.058-.02-.058-.048-.095-1.733 1.072-2.796 4.272-4.742 4.847-.096-.077-.173-.153-.287-.21-.164-.212-.384-.844-.363-1.188.142-.671 2.537-4.37 2.719-4.428.097-.459.097-.919-.075-1.321-1.305-.71-2.644-1.456-4.005-2.204-.136.058-.059 0-.155.133.155.271.346.595.537.883 0 .478-.267 2.28-.537 2.855-.124 0-.286.038-.401.038-1.629-1.015-2.338-3.257-3.218-4.733-.635.174-1.123 2.242-1.341 3.028-.489 1.993-3.364 6.093-5.214 5.441-.556-4.062 3.106-3.525 4.101-7.512.326-1.263.728-2.699.728-3.887 0-.998-.709-1.323-.133-2.569.583-.287 1.091-.173 1.607-.784h.252c.113 1.072 0 2.565.496 3.486.289.441.595.748.902 1.226.919.116 1.935.173 2.931.268 1.302.499 2.644.9 3.994 1.38.356.191.72.383 1.104.555.439-.172.822-.326 1.264-.458.776-.213 1.974-.213 2.893.132.364.193.622.691.833.825.384.307 1.092.192 1.782.785 1.927 1.648 3.603 3.659 5.919 5.213.912-.499 1.333-.882 2.675-.21.172.477-.037.764.106 1.262.115.423.267.806.421 1.342.086.767-.105 1.4-.047 2.28.047.69 1.167 1.265 1.531 1.84.278.537.47 1.111.709 1.571-.143.25-.327.499-.431.766" transform="matrix(.35277776 0 0 -.35277776 33.145086 19.12245)"/><path clip-path="url(#o)" d="m0 0c.814-.401.814-1.187 1.878-1.035 1.686.248 3.19 3.488 2.636 4.867-.826.326-.882-.746-1.524-1.169-2.176.25-1.245-.822-2.77-1.361-1.197-.364-2.127-.364-3.153-.44l-.016-.02c.745-.745 2.056-.363 2.949-.842" transform="matrix(.35277776 0 0 -.35277776 95.234994 30.86385)"/><path clip-path="url(#n)" d="m0 0c.049-.135.096-.156.133-.269-.133-.23-.133-.268-.439-.499-.268.231-.49.422-.748.612v.156c.126.037.172.192.258.268.279-.076.528-.231.796-.268m-14.945 5.211c.43.173.804.306 1.226.479.745 0 1.293-.805 1.926-1.11.316 0 .69 0 1.034-.059 1.083-.191 2.414-.786 3.267-1.494-.036-.039-.057-.154-.153-.231.117-.095.153-.249.259-.326h.612c0 .039 0 .077.011.154-.096.077-.154.154-.242.172.088.192.069.192.242.269 1.465-.192 2.558-1.34 3.986-1.552v-.057c-.077-.364-.231-.46-.183-.863-.154-.018-.336-.094-.451-.094-.094-.06-.134-.117-.192-.156.643-.689 1.227-1.436 1.832-2.107-.892-1.494-3.125-.498-4.17-.363-.038-.46.844-.92 1.151-1.323.384-.383.806-.939 1.187-1.322 1.007-.612 2.894-.229 4.264.306.164.998.556 2.262 1.525 2.952.028 1.015-.969 1.551-1.287 2.758-.074.364-.038.768-.324 1.171-1.381 1.723-5.471 3.946-7.338 4.789-.92.383-2.011.536-2.883 1.284h-.01c.373.672 1.658 1.226 2.336 1.781 0 .134-.01.192-.01.287-1.253.653-3.773-.095-5.21-.459-.067.095-.173.172-.202.25 1.417 1.666.633 4.675 1.543 5.403.967.708 5.213.479 6.161.536.524 0 1.742.402 1.742.861-1.465.539-2.988 1.017-4.445 1.534-1.542.671-3.736 2.146-5.558 1.533-.046-.153-.133-.345-.141-.479.173-1.054 1.647-1.801 2.241-2.204v-.076c-4.531-1.035-1.983-2.396-2.807-5.117-.634-.21-1.419-.152-1.821.192-.268.613-.555 1.188-.843 1.822-.911-.364-1.753-2.722-.736-3.679.85-.749 1.904-.576 2.766-.959-.421-.881-2.03-1.207-2.144-2.146-.146-1.054.957-2.414 1.839-2.357" transform="matrix(.35277776 0 0 -.35277776 95.660804 33.42544)"/><path clip-path="url(#m)" d="m0 0c.728 1.112 1.819 2.586 1.357 4.12 0 0-.124.114-.238.114-3.095-2.452-5.142-5.096-7.847-7.472-1.55-1.342-2.826-1.034-4.291-2.07-.45-.325-.891-.65-1.323-1.034-.594-.173-.871 0-1.502-.365-.116.135-.182.288-.26.365-.287.096-1.503-.652-2.145-.997 0 0-.02 0-.068-.057-.018-.499.355-.422.43-.881.04-.46-.448-1.495.27-1.821.585-.382 3.39 1.113 4.628 1.361 1.242.364 3.763.824 5.365 2.107 2.212 1.859 4.261 4.388 5.624 6.63" transform="matrix(.35277776 0 0 -.35277776 90.165904 27.04479)"/><path clip-path="url(#l)" d="m0 0c-.088-.019-.135-.019-.211-.078.229-.133.402-.287.669-.381.192 0 .461.094.634.305-.347.154-.634.135-1.092.154" transform="matrix(.35277776 0 0 -.35277776 92.565384 32.28325)"/><path clip-path="url(#k)" d="m0 0c-.049.039-.126.095-.183.152.325 0 .497-.075.737-.113-.181 0-.333-.039-.554-.039m10.644 1.646c.037.327.169.327.458.327.01-.21.107-.402.136-.575-.136-.23-.193-.23-.441-.23-.021.192-.087.346-.153.478m-6.861-2.969c.479 0 .947-.057 1.419-.115.44-.21.9-.499 1.32-.747.844-.172 1.447.097 2.358.134 2.07.192 3.621-.306 4.014 2.357.134 1.208-1.447 1.954-2.059 2.606-2.28 2.205-5.021 3.027-7.281 5.001.056.172.085.346.124.441.671.65 1.524.077 2.078 0 .891-.211 2.3-.805 2.952-1.572.422-.689.891-1.418 1.351-2.127.622-.728 1.388-1.263 2.02-1.801.298-.306.586-.594.862-.844.596-.325.882.25 1.476.346.402-.096.777-.19 1.169-.268l.124.078c-.046.343-.124.67-.173.976-.23.363-.507.709-.774 1.169-.45.172-.845.5-1.226.746-.403.595-.872 1.113-1.226 1.63-1.016 1.284-2.013 1.744-3.181 2.299l-.04-.038c-.574-.364-.382-.805-.631-1.265-1.361.307-8.459 4.196-8.451-.269 0-.957.852-2.952 1.821-3.41.595-.325 1.264-.153 1.81-.383.68-.229 1.179-.709 1.888-.881.403 0 .729-.039 1.12-.116.337-.268.642-.536 1.025-.805.651-.402 1.611-.173 2.137-.939v-.037c-.642-.997-3.382.135-4.167.44-4.081 1.457-8.413 2.05-12.933 2.222-.153-.113-.259-.248-.402-.401.143-.595.536-1.073.65-1.687.058-.306-.065-.498.125-.901-.125-.287-.239-.364-.373-.516 0-.077.037-.154.066-.173 1.025-.747 2.271-.152 3.459.019.221-.076.278-.096.372-.364.175-.057.098-.057.319-.057.063.498 1.263.25 1.828.498.813-.709 1.926-.422 2.94-.594.692-.115 1.4-.594 2.09-.652" transform="matrix(.35277776 0 0 -.35277776 87.789794 35.05464)"/><path clip-path="url(#j)" d="m0 0-.106.095c-.077 0-.154 0-.268.055-.06-.055-.105-.055-.105-.055.105-.23.219-.213.479-.095" transform="matrix(.35277776 0 0 -.35277776 93.717774 37.42675)"/><path clip-path="url(#i)" d="m0 0c.422.402 1.054.824 1.216 1.361.067.249 0 .401-.153.651 1.274 1.379 4.129 5.231 6.124 5.365.132.095.219.134.342.134v.155c-.248.075-.497.152-.7.209.127.096.238.269.413.345-1.668.634-5.748-2.204-7.589-2.606-1.647-.422-5.9 1.897-6.849 3.853.317 1.11 1.063 2.048 1.256 3.16 0 .058-.096.096-.136.192-2.029.306-5.037-1.17-5.134-3.276-.059-.806.344-1.399.518-2.166.154-.46.287-1.475.862-2.127.651-.766 1.149-.593 1.588-.901-.093 0-.152 0-.191-.037-.037-.155-.046-.116 0-.288 0 0 .039 0 .039-.076.337-.078.827-.135.46.209.164.117.337.155.422.192.221-.192.316-.23.248-.574-.027.038-.027.057-.076.173 0-.078-.095-.116-.095-.116.556-.728 1.359-1.092 2.05-1.629.316-.441.718-.901 1.026-1.379.927-.997 2.94-2.203 4.359-.824" transform="matrix(.35277776 0 0 -.35277776 90.861784 40.26637)"/><path clip-path="url(#h)" d="m0 0c.221 0 .373.039.554.039-.24.038-.412.113-.737.113.057-.057.134-.113.183-.152" transform="matrix(.35277776 0 0 -.35277776 87.789794 35.05464)"/><path clip-path="url(#g)" d="m0 0c.94-1.533-.324-4.331-2.336-4.905-.729-.211-4.234 1.15-5.021 1.665 0 .058 0 .097.096.155.124.039.124 0 .355.173-.133.267-1.715 1.149-1.965 1.303h-.029c.087.076.087.115.144.21.506-.095.881.058 1.38.287-.728.46-1.437.211-2.127.652.106.115.145.134.221.21 1.77.345 3.611-.364 5.391-.268 1.305.173 2.607.555 3.891.518" transform="matrix(.35277776 0 0 -.35277776 85.832304 17.41229)"/><path clip-path="url(#f)" d="m0 0c2.587-2.51-.69-6.304-3.113-5.078-2.731 1.456.297 5.959 3.113 5.078" transform="matrix(.35277776 0 0 -.35277776 83.196104 15.37091)"/><path clip-path="url(#e)" d="m0 0c1.562-1.667.058-3.295-1.15-4.674-.249-.365-.565-.653-.862-.958-.478-.077-.939-.134-1.436-.251-1.37-.651-4.887-1.283-5.52 1.074-.114.613.116 1.188.173 1.821.354.191.672.459 1.036.766.114.135-.174.365.114.555 1.534 1.074 4.675 2.491 6.246 2.071.498-.059.844-.289 1.399-.404" transform="matrix(.35277776 0 0 -.35277776 81.844254 14.02612)"/><path clip-path="url(#d)" d="m0 0c.297-.364.595-.709.843-1.016.221-2.528-.546-6.054-3.936-3.334-.153.594.134 1.265-.153 1.897-.691 1.321-2.856 2.166-3.786 2.645-1.389.633-2.434 1.974-3.677 2.49-1.371.633-2.75.231-4.054.786-1.208.499-2.472 1.936-3.738 2.317-1.78-.88-4.31-1.607-4.703 1.228-.067.461-.143.882.106 1.341.172.633 1.466 1.208 2.03 1.379.71.422 1.265 0 1.917 0 1.132.154 3.124 1.169 4.111.422-.039-.977-1.467-1.917-1.352-2.681 1.609-.863 3.008-.978 4.56-1.362 2.214-.593 5.576-1.532 7.684-2.644 1.458-.709 2.644-2.855 4.148-3.468" transform="matrix(.35277776 0 0 -.35277776 83.767324 19.88639)"/><path clip-path="url(#c)" d="m0 0c.441-.345.671-.67.718-1.017-.019-.057-.047-.076-.047-.152-.362-.211-2.778-2.185-3.066-2.279-.365.036-.785.094-1.14.094-.544.613-1.466.729-1.887 1.361h.019 1.285c.477.135 2.415 1.361 2.231 1.686-1.696-.249-3.822-.978-5.537-.786-2.08.306-4.168 1.686-6.122 2.894-.834.421-3.353 1.82-3.584 2.777l.06.039s.074 0 .133.038c.938.269 3.543-1.149 4.674-1.532 1.782-.461 3.555-.977 5.319-1.399.41-.211.852-.479 1.32-.748.623-.153 1.437 0 2.041-.153 1.188-.23 2.435-.996 3.583-.823" transform="matrix(.35277776 0 0 -.35277776 80.810056 20.45398)"/><path clip-path="url(#b)" d="m0 0c.718-.805.718-1.38 1.082-2.088 1.083-1.859 2.424-2.396 2.674-4.33-.979-.864-1.581-1.207-2.492-1.764-.018.096-.057.096-.115.134-.767.843-.958 2.549-1.973 2.855-1.572-1.608-2.414-3.066-4.475-2.683-.306 0-.66 0-1.015.02-.306.231-.202.364-.42.498-.211-.134-.404-.134-.546-.192-.643.671-1.315.518-2.073 1.132-.458.478-1.129 3.793-1.003 4.33 0 0 .133 0 .199.114-.066.153-.131.307-.199.422.104.172.199.287.373.421 1.129-.057 1.839-.843 2.452-2.126.173-.326.106-.863.516-1.132 1.151-.804 3.326-.516 4.044 1.382l-.056.094c-.69.536-1.4 1.092-2.06 1.725-.903 1.188-.777 2.854.219 3.985h.19c.558-.517 2.952-2.797 3.241-2.759.421.153.499.364.919.211.192-.058.346-.211.518-.249" transform="matrix(.35277776 0 0 -.35277776 79.079927 21.89388)"/><path clip-path="url(#a)" d="m0 0s-.017 0-.065-.115c.134.115.048-.038.065.115" transform="matrix(.35277776 0 0 -.35277776 75.496659 22.4821)"/></g></svg>