<?xml version="1.0" encoding="UTF-8" standalone="no"?>
<svg
   xmlns:dc="http://purl.org/dc/elements/1.1/"
   xmlns:cc="http://creativecommons.org/ns#"
   xmlns:rdf="http://www.w3.org/1999/02/22-rdf-syntax-ns#"
   xmlns:svg="http://www.w3.org/2000/svg"
   xmlns="http://www.w3.org/2000/svg"
   viewBox="0 0 266.66666 266.66666"
   height="266.66666"
   width="266.66666"
   xml:space="preserve"
   id="svg2"
   version="1.1"><metadata
     id="metadata8"><rdf:RDF><cc:Work
         rdf:about=""><dc:format>image/svg+xml</dc:format><dc:type
           rdf:resource="http://purl.org/dc/dcmitype/StillImage" /></cc:Work></rdf:RDF></metadata><defs
     id="defs6"><clipPath
       id="clipPath18"
       clipPathUnits="userSpaceOnUse"><path
         id="path16"
         d="M 0,200 H 200 V 0 H 0 Z" /></clipPath></defs><g
     transform="matrix(1.3333333,0,0,-1.3333333,0,266.66667)"
     id="g10"><g
       id="g12"><g
         clip-path="url(#clipPath18)"
         id="g14"><g
           transform="translate(100,200)"
           id="g20"><path
             id="path22"
             style="fill:#ffffff;fill-opacity:1;fill-rule:nonzero;stroke:none"
             d="m 0,0 c -55.228,0 -100,-44.772 -100,-100 0,-55.229 44.772,-100 100,-100 55.228,0 100,44.771 100,100 C 100,-44.772 55.228,0 0,0" /></g><g
           transform="translate(68.7629,92.1936)"
           id="g24"><path
             id="path26"
             style="fill:#fdd000;fill-opacity:1;fill-rule:nonzero;stroke:none"
             d="m 0,0 v 6.527 h 6.493 c 3.135,8.624 10.535,14.994 19.53,16.811 v 3.095 h -1.2 v 0.493 c 1.714,1.185 3.703,1.911 5.777,2.11 v 4.337 h 1.274 v -4.337 c 2.074,-0.199 4.063,-0.925 5.777,-2.11 v -0.493 h -1.2 V 23.338 C 45.446,21.521 52.846,15.151 55.982,6.527 h 6.492 V 0 h 5.885 L 50.183,-31.481 H 12.291 L -5.884,0 Z" /></g><g
           transform="translate(93.5067,117.347)"
           id="g28"><path
             id="path30"
             style="fill:#587558;fill-opacity:1;fill-rule:nonzero;stroke:none"
             d="m 0,0 v -0.789 c -8.68,-2.1 -15.808,-8.269 -19.132,-16.558 h -6.891 v -6.527 h -5.344 L -49.896,8.22 H 4.577 V 4.994 C 2.475,4.607 0.495,3.725 -1.2,2.423 V 0 Z" /></g><g
           transform="translate(132.5166,93.473)"
           id="g32"><path
             id="path34"
             style="fill:#587558;fill-opacity:1;fill-rule:nonzero;stroke:none"
             d="m 0,0 v 6.527 h -6.891 c -3.324,8.289 -10.452,14.458 -19.132,16.558 v 0.789 h 1.2 v 2.423 c -1.695,1.302 -3.675,2.184 -5.777,2.571 v 3.226 H 23.873 L 5.344,0 Z" /></g><g
           transform="translate(100,27.8974)"
           id="g36"><path
             id="path38"
             style="fill:#587558;fill-opacity:1;fill-rule:nonzero;stroke:none"
             d="M 0,0 -17.203,29.797 H 17.203 Z" /></g><g
           transform="translate(105.6221,28.8871)"
           id="g40"><path
             id="path42"
             style="fill:#fdd000;fill-opacity:1;fill-rule:nonzero;stroke:none"
             d="m 0,0 -5.622,-9.738 -5.612,9.72 c -34.974,2.706 -62.792,30.435 -65.609,65.4 -3.165,39.275 26.107,73.679 65.382,76.844 39.274,3.165 73.678,-26.108 76.843,-65.383 C 68.547,37.569 39.275,3.165 0,0 m -5.622,163.38 c -50.958,0 -92.267,-41.31 -92.267,-92.267 0,-50.958 41.309,-92.267 92.267,-92.267 50.957,0 92.267,41.309 92.267,92.267 0,50.957 -41.31,92.267 -92.267,92.267" /></g><g
           transform="translate(100,7.7332)"
           id="g44"><path
             id="path46"
             style="fill:#231815;fill-opacity:1;fill-rule:nonzero;stroke:none"
             d="m 0,0 c -50.958,0 -92.267,41.309 -92.267,92.267 0,50.957 41.309,92.267 92.267,92.267 50.958,0 92.267,-41.31 92.267,-92.267 C 92.267,41.309 50.958,0 0,0 m 0,186.413 c -51.995,0 -94.146,-42.151 -94.146,-94.146 0,-51.996 42.151,-94.146 94.146,-94.146 51.995,0 94.146,42.15 94.146,94.146 0,51.995 -42.151,94.146 -94.146,94.146" /></g><g
           transform="translate(106.8362,30.99)"
           id="g48"><path
             id="path50"
             style="fill:#231815;fill-opacity:1;fill-rule:nonzero;stroke:none"
             d="M 0,0 56.346,97.595 C 59.461,90.711 61.429,83.365 62.174,75.846 65.949,37.733 38.113,3.776 0,0 m -6.836,-3.093 -17.203,29.797 h 34.406 z m -28.585,8.92 C -70.316,21.614 -85.806,62.7 -70.019,97.595 L -13.672,0 c -7.519,0.745 -14.865,2.713 -21.749,5.827 M 25.68,62.483 V 69.01 H 18.789 C 15.465,77.299 8.337,83.468 -0.343,85.568 v 0.789 h 1.2 v 2.423 c -1.695,1.302 -3.675,2.184 -5.777,2.571 v 3.226 H 49.553 L 31.024,62.483 Z m -63.753,-1.279 v 6.527 h 6.492 c 3.136,8.624 10.536,14.993 19.531,16.811 v 3.094 h -1.2 v 0.494 c 1.714,1.184 3.703,1.911 5.777,2.11 v 4.337 h 1.274 V 90.24 c 2.074,-0.199 4.063,-0.926 5.777,-2.11 v -0.494 h -1.2 v -3.094 c 8.995,-1.818 16.395,-8.187 19.53,-16.811 h 6.493 v -6.527 h 5.884 L 12.109,29.722 h -37.891 l -18.176,31.482 z m 24.744,25.153 v -0.789 c -8.68,-2.1 -15.808,-8.269 -19.132,-16.558 h -6.892 v -6.527 h -5.343 l -18.53,32.094 h 54.473 v -3.226 c -2.102,-0.387 -4.082,-1.269 -5.776,-2.571 v -2.423 z m -23.448,45.204 c 34.546,16.536 75.956,1.936 92.492,-32.61 H -69.388 c 6.832,14.272 18.339,25.779 32.611,32.61 M 64.168,74.741 c -3.165,39.274 -37.569,68.547 -76.843,65.382 -39.275,-3.165 -68.547,-37.569 -65.383,-76.844 2.818,-34.965 30.636,-62.694 65.61,-65.4 l 5.612,-9.72 5.622,9.738 C 38.06,1.062 67.333,35.466 64.168,74.741" /></g><path
           id="path52"
           style="fill:#231815;fill-opacity:1;fill-rule:nonzero;stroke:none"
           d="m 80.06,78.016 h 39.881 V 74.894 H 80.06 Z" /><g
           transform="translate(39.668,42.1822)"
           id="g54"><path
             id="path56"
             style="fill:#231815;fill-opacity:1;fill-rule:nonzero;stroke:none"
             d="M 0,0 C 0,1.329 1.077,2.406 2.406,2.406 3.734,2.406 4.811,1.329 4.811,0 4.811,-1.329 3.734,-2.406 2.406,-2.406 1.077,-2.406 0,-1.329 0,0" /></g><g
           transform="translate(155.5206,42.1822)"
           id="g58"><path
             id="path60"
             style="fill:#231815;fill-opacity:1;fill-rule:nonzero;stroke:none"
             d="M 0,0 C 0,1.329 1.077,2.406 2.406,2.406 3.734,2.406 4.811,1.329 4.811,0 4.811,-1.329 3.734,-2.406 2.406,-2.406 1.077,-2.406 0,-1.329 0,0" /></g><g
           transform="translate(32.6892,67.2705)"
           id="g62"><path
             id="path64"
             style="fill:#231815;fill-opacity:1;fill-rule:nonzero;stroke:none"
             d="m 0,0 c -0.201,0.126 -0.342,0.281 -0.414,0.448 -0.091,0.214 -0.132,0.486 -0.132,0.849 0,0.657 -0.038,1.187 -0.105,1.573 -0.085,0.412 -0.217,0.827 -0.366,1.241 -0.553,1.316 -1.418,2.24 -2.548,2.755 -1.154,0.53 -2.271,0.561 -3.362,0.105 -0.855,-0.373 -1.496,-0.955 -1.947,-1.753 -0.427,-0.813 -0.7,-2.136 -0.808,-3.99 -0.069,-1.31 -0.154,-2.152 -0.242,-2.554 -0.11,-0.525 -0.286,-0.95 -0.52,-1.258 -0.157,-0.232 -0.376,-0.415 -0.672,-0.536 -0.455,-0.18 -0.945,-0.165 -1.454,0.072 -0.505,0.234 -0.891,0.672 -1.179,1.339 -0.343,0.849 -0.343,1.768 -0.005,2.783 0.345,1.016 1.045,1.861 2.033,2.497 l -0.167,0.409 -4.307,-1.926 0.126,-0.285 c 0.42,0.085 0.708,0.09 0.84,0.028 0.149,-0.041 0.257,-0.149 0.319,-0.322 0.077,-0.178 0.105,-0.533 0.077,-1.05 -0.018,-0.523 0,-0.958 0.044,-1.285 0.072,-0.466 0.203,-0.875 0.388,-1.305 0.492,-1.176 1.264,-1.979 2.32,-2.44 1.061,-0.464 2.077,-0.489 3.143,-0.036 0.605,0.249 1.097,0.633 1.48,1.104 0.389,0.51 0.683,1.092 0.86,1.802 0.201,0.677 0.337,1.735 0.42,3.169 0.049,1.019 0.131,1.753 0.257,2.188 0.126,0.448 0.299,0.816 0.51,1.104 0.219,0.276 0.479,0.492 0.777,0.608 0.528,0.214 1.069,0.196 1.643,-0.07 0.566,-0.257 1.006,-0.756 1.326,-1.475 0.396,-0.942 0.396,-1.966 0.005,-3.084 -0.384,-1.119 -1.195,-2.116 -2.459,-2.981 l 0.144,-0.342 4.909,2.078 -0.136,0.337 C 0.476,-0.203 0.206,-0.131 0,0" /></g><g
           transform="translate(25.5507,84.096)"
           id="g66"><path
             id="path68"
             style="fill:#231815;fill-opacity:1;fill-rule:nonzero;stroke:none"
             d="m 0,0 c -1.006,-1.05 -2.659,-1.774 -5.03,-2.183 -1.988,-0.35 -3.56,-0.368 -4.737,-0.041 -1.39,0.445 -2.224,1.287 -2.44,2.561 -0.129,0.693 -0.057,1.339 0.216,1.926 0.299,0.602 0.85,1.138 1.717,1.653 0.839,0.499 2.178,0.924 4.003,1.24 1.557,0.286 2.829,0.345 3.836,0.173 1.017,-0.173 1.804,-0.505 2.35,-1.025 C 0.337,3.895 0.621,3.336 0.742,2.636 0.924,1.601 0.682,0.713 0,0 M 1.516,2.819 C 1.061,5.29 -0.172,7.059 -2.199,8.109 -3.725,8.902 -5.357,9.131 -7.12,8.822 -9.172,8.454 -10.784,7.447 -11.903,5.841 -13.018,4.199 -13.345,2.284 -12.869,0.08 c 0.294,-2.047 1.262,-3.653 2.865,-4.811 1.627,-1.138 3.471,-1.545 5.543,-1.177 1.828,0.325 3.323,1.153 4.466,2.477 1.45,1.657 1.964,3.748 1.511,6.25" /></g><g
           transform="translate(13.8173,100.2137)"
           id="g70"><path
             id="path72"
             style="fill:#231815;fill-opacity:1;fill-rule:nonzero;stroke:none"
             d="m 0,0 6.922,-0.445 c 1.172,-0.085 2.114,0.046 2.819,0.383 0.744,0.322 1.344,0.93 1.843,1.797 0.361,0.649 0.592,1.591 0.67,2.804 0.084,1.464 -0.152,2.623 -0.709,3.511 -0.568,0.875 -1.222,1.459 -1.948,1.72 -0.706,0.252 -1.905,0.452 -3.542,0.55 L 0.68,10.665 c -0.554,0.034 -0.963,0.098 -1.172,0.219 -0.321,0.116 -0.538,0.332 -0.69,0.597 -0.131,0.281 -0.206,0.616 -0.182,1.009 l 0.035,0.279 -0.386,0.035 -0.316,-4.873 0.383,-0.028 c 0.026,0.556 0.152,0.986 0.335,1.264 0.116,0.206 0.299,0.348 0.579,0.474 C -0.451,9.746 0,9.782 0.623,9.746 L 6.382,9.373 C 7.869,9.273 8.925,9.079 9.509,8.776 10.114,8.482 10.552,8.05 10.856,7.499 11.167,6.933 11.288,6.281 11.247,5.532 11.216,4.865 11.041,4.325 10.727,3.916 10.426,3.491 10.065,3.21 9.656,3.043 9.231,2.891 8.392,2.85 7.133,2.924 L 0.214,3.359 C -0.577,3.429 -1.071,3.491 -1.28,3.578 -1.475,3.704 -1.622,3.841 -1.715,4.067 -1.818,4.26 -1.859,4.644 -1.818,5.185 l 0.018,0.368 -0.368,0.02 -0.466,-7.264 0.366,-0.021 c 0.049,0.6 0.121,1.007 0.237,1.218 0.152,0.221 0.316,0.363 0.509,0.45 C -1.308,0.026 -0.798,0.041 0,0" /></g><g
           transform="translate(17.1329,118.6251)"
           id="g74"><path
             id="path76"
             style="fill:#231815;fill-opacity:1;fill-rule:nonzero;stroke:none"
             d="m 0,0 c -0.96,0.476 -1.614,1.058 -1.982,1.802 -0.263,0.535 -0.242,1.259 0.031,2.183 L -1.653,4.999 8.796,1.866 C 9.479,1.653 9.888,1.483 10.04,1.357 10.233,1.218 10.338,1.017 10.392,0.816 10.457,0.538 10.428,0.214 10.323,-0.191 l -0.137,-0.44 0.363,-0.111 2.111,7.041 -0.365,0.103 -0.113,-0.443 C 12.055,5.594 11.898,5.293 11.692,5.115 11.502,4.943 11.316,4.842 11.111,4.822 10.905,4.801 10.457,4.899 9.762,5.077 l -10.444,3.166 0.319,1.006 c 0.175,0.641 0.373,1.058 0.579,1.282 0.358,0.387 0.744,0.657 1.197,0.804 0.445,0.144 1.117,0.193 2.031,0.162 l 0.103,0.36 -3.673,1.099 -3.658,-12.202 3.658,-1.096 z" /></g><g
           transform="translate(20.0932,138.0094)"
           id="g78"><path
             id="path80"
             style="fill:#231815;fill-opacity:1;fill-rule:nonzero;stroke:none"
             d="M 0,0 C 0.191,0.358 0.404,0.577 0.646,0.703 0.875,0.834 1.107,0.875 1.29,0.85 1.496,0.834 1.915,0.633 2.523,0.273 l 8.029,-4.688 c 0.62,-0.36 0.999,-0.623 1.094,-0.765 0.147,-0.221 0.237,-0.411 0.232,-0.625 0,-0.278 -0.103,-0.618 -0.299,-0.94 l -0.247,-0.419 0.335,-0.201 3.699,6.356 -0.335,0.19 -0.221,-0.388 c -0.211,-0.358 -0.42,-0.577 -0.641,-0.708 -0.252,-0.137 -0.456,-0.191 -0.662,-0.167 -0.211,0.022 -0.602,0.229 -1.248,0.573 L 8.49,0.703 11.034,5.043 14.81,2.839 C 15.415,2.476 15.78,2.224 15.886,2.077 16.038,1.856 16.115,1.648 16.1,1.449 16.115,1.174 16.012,0.85 15.811,0.492 L 15.582,0.1 15.907,-0.09 19.606,6.25 19.269,6.433 19.045,6.05 C 18.857,5.71 18.625,5.457 18.396,5.331 18.159,5.195 17.943,5.144 17.765,5.164 17.557,5.195 17.14,5.406 16.501,5.774 L 8.48,10.436 c -0.623,0.373 -0.966,0.649 -1.092,0.78 -0.139,0.229 -0.224,0.42 -0.203,0.623 -0.021,0.291 0.087,0.597 0.299,0.96 L 7.702,13.188 7.388,13.381 3.674,7.054 4.006,6.853 4.235,7.254 C 4.446,7.584 4.66,7.818 4.891,7.962 5.128,8.094 5.355,8.145 5.537,8.111 5.733,8.094 6.158,7.893 6.781,7.525 L 10.235,5.522 7.702,1.174 4.25,3.19 C 3.622,3.552 3.259,3.81 3.159,3.957 3.012,4.165 2.935,4.366 2.935,4.574 c 0,0.291 0.087,0.605 0.298,0.963 l 0.232,0.41 -0.322,0.182 -3.704,-6.35 0.34,-0.183 z" /></g><g
           transform="translate(31.9711,156.3873)"
           id="g82"><path
             id="path84"
             style="fill:#231815;fill-opacity:1;fill-rule:nonzero;stroke:none"
             d="M 0,0 C 0.304,0.332 0.638,0.517 0.947,0.569 1.184,0.615 1.411,0.582 1.629,0.456 1.756,0.389 2.057,0.121 2.523,-0.322 l 6.721,-6.425 c 0.518,-0.5 0.798,-0.821 0.878,-0.999 0.106,-0.229 0.129,-0.453 0.072,-0.656 C 10.127,-8.681 9.975,-8.969 9.677,-9.257 L 9.355,-9.602 9.612,-9.854 18.051,-1.061 15.245,2.51 14.982,2.229 C 15.649,1.107 15.912,0.057 15.786,-0.934 15.7,-1.931 15.181,-2.907 14.277,-3.846 L 13.7,-4.472 c -0.293,-0.278 -0.528,-0.45 -0.733,-0.507 -0.206,-0.064 -0.384,-0.044 -0.569,0.036 -0.155,0.057 -0.533,0.371 -1.092,0.917 L 8.423,-1.28 c 0.461,0.497 0.885,0.799 1.254,0.943 0.365,0.118 0.839,0.108 1.39,-0.047 0.551,-0.157 1.153,-0.494 1.802,-0.975 l 0.26,0.257 L 7.754,4.013 7.512,3.751 C 8.222,2.917 8.652,2.147 8.773,1.46 8.91,0.777 8.668,0.121 8.05,-0.541 L 7.854,-0.723 3.704,3.233 4.69,4.273 C 5.437,5.043 5.99,5.529 6.353,5.73 6.971,6.075 7.561,6.219 8.137,6.183 8.711,6.134 9.424,5.846 10.3,5.29 l 0.257,0.268 -3.002,2.886 -8.16,-8.529 0.278,-0.252 z" /></g><g
           transform="translate(53.6594,164.334)"
           id="g86"><path
             id="path88"
             style="fill:#231815;fill-opacity:1;fill-rule:nonzero;stroke:none"
             d="M 0,0 -0.839,5.169 3.532,2.314 Z M 11.54,2.206 C 11.157,2.011 10.809,1.931 10.49,1.993 10.066,2.047 9.35,2.425 8.328,3.084 L -2.25,10.006 -2.44,9.891 -0.453,-2.296 c 0.201,-1.169 0.252,-1.998 0.167,-2.469 -0.056,-0.474 -0.298,-0.878 -0.679,-1.223 l 0.208,-0.321 3.921,2.587 -0.206,0.319 C 2.314,-3.771 1.885,-3.954 1.668,-3.954 1.287,-3.975 0.989,-3.828 0.77,-3.48 0.602,-3.228 0.471,-2.847 0.386,-2.353 L 0.137,-0.849 4.245,1.841 5.867,0.759 C 6.281,0.494 6.513,0.319 6.57,0.283 6.665,0.191 6.76,0.098 6.822,-0.01 6.958,-0.183 6.966,-0.363 6.909,-0.546 6.788,-0.788 6.523,-1.089 6.078,-1.387 l -0.252,-0.147 0.216,-0.319 5.702,3.761 z" /></g><g
           transform="translate(66.0339,175.7935)"
           id="g90"><path
             id="path92"
             style="fill:#231815;fill-opacity:1;fill-rule:nonzero;stroke:none"
             d="M 0,0 C 0.494,-0.408 1.087,-0.701 1.753,-0.928 2.461,-1.134 3.486,-1.306 4.922,-1.433 5.957,-1.541 6.657,-1.633 7.105,-1.778 7.553,-1.904 7.903,-2.081 8.179,-2.316 8.454,-2.529 8.67,-2.805 8.776,-3.111 8.974,-3.641 8.925,-4.2 8.67,-4.751 8.369,-5.31 7.857,-5.727 7.128,-6.02 6.173,-6.38 5.159,-6.36 4.044,-5.93 2.935,-5.51 1.972,-4.666 1.138,-3.363 l -0.34,-0.147 1.915,-4.987 0.351,0.15 c 0.01,0.316 0.084,0.576 0.234,0.77 0.131,0.195 0.28,0.344 0.476,0.419 0.188,0.065 0.471,0.106 0.829,0.093 0.646,-0.003 1.182,0 1.588,0.064 0.41,0.057 0.827,0.175 1.241,0.322 1.326,0.528 2.273,1.326 2.842,2.474 0.564,1.125 0.631,2.24 0.216,3.329 C 10.148,-0.005 9.579,0.662 8.794,1.129 7.993,1.591 6.657,1.906 4.837,2.058 3.532,2.183 2.677,2.295 2.289,2.389 1.758,2.524 1.334,2.715 1.03,2.954 0.829,3.117 0.646,3.354 0.536,3.644 0.363,4.11 0.399,4.587 0.646,5.101 0.896,5.59 1.375,5.953 2.021,6.225 2.886,6.561 3.831,6.528 4.819,6.145 5.821,5.762 6.616,5.053 7.236,4.021 L 7.646,4.189 5.872,8.539 5.589,8.435 c 0.046,-0.42 0.046,-0.704 0,-0.84 C 5.525,7.451 5.416,7.338 5.244,7.274 5.071,7.217 4.711,7.2 4.199,7.238 3.669,7.259 3.233,7.259 2.896,7.232 2.461,7.171 2.021,7.069 1.586,6.891 0.409,6.44 -0.445,5.695 -0.934,4.661 -1.429,3.621 -1.475,2.566 -1.066,1.516 -0.829,0.914 -0.468,0.4 0,0" /></g><g
           transform="translate(80.3343,182.5743)"
           id="g94"><path
             id="path96"
             style="fill:#231815;fill-opacity:1;fill-rule:nonzero;stroke:none"
             d="M 0,0 C 0,1.035 0.252,1.89 0.769,2.536 1.135,3.018 1.779,3.322 2.724,3.47 L 3.761,3.648 5.522,-7.117 C 5.632,-7.83 5.674,-8.265 5.604,-8.448 5.553,-8.69 5.437,-8.88 5.29,-9.011 5.053,-9.199 4.749,-9.325 4.33,-9.39 l -0.43,-0.072 0.041,-0.376 7.257,1.174 -0.062,0.376 -0.45,-0.062 c -0.394,-0.082 -0.706,-0.056 -0.965,0.028 -0.248,0.109 -0.42,0.235 -0.533,0.42 -0.109,0.161 -0.225,0.608 -0.34,1.331 L 7.107,4.193 8.16,4.347 C 8.822,4.455 9.272,4.478 9.556,4.393 10.065,4.24 10.49,3.989 10.812,3.657 11.136,3.322 11.484,2.739 11.852,1.906 l 0.373,0.047 -0.638,3.789 -12.568,-2.038 0.613,-3.789 z" /></g><g
           transform="translate(109.2409,187.0986)"
           id="g98"><path
             id="path100"
             style="fill:#231815;fill-opacity:1;fill-rule:nonzero;stroke:none"
             d="m 0,0 c 0.077,-0.2 0.036,-0.724 -0.111,-1.506 l -1.158,-6.827 c -0.206,-1.171 -0.17,-2.11 0.087,-2.861 0.242,-0.756 0.788,-1.417 1.607,-2.015 0.602,-0.424 1.5,-0.746 2.7,-0.965 1.434,-0.237 2.631,-0.126 3.576,0.345 0.934,0.466 1.562,1.04 1.92,1.726 0.327,0.699 0.641,1.87 0.924,3.513 l 0.889,5.287 c 0.097,0.559 0.208,0.946 0.334,1.156 0.173,0.29 0.409,0.499 0.688,0.62 0.277,0.1 0.62,0.132 1.006,0.052 l 0.281,-0.031 0.077,0.367 -4.822,0.813 -0.062,-0.368 C 8.474,-0.788 8.889,-0.946 9.167,-1.139 9.35,-1.287 9.481,-1.502 9.566,-1.785 9.648,-2.072 9.63,-2.529 9.527,-3.15 l -0.97,-5.693 c -0.255,-1.47 -0.559,-2.499 -0.922,-3.045 -0.358,-0.538 -0.829,-0.958 -1.405,-1.205 -0.605,-0.242 -1.262,-0.311 -2.011,-0.178 -0.646,0.114 -1.163,0.333 -1.547,0.677 -0.381,0.345 -0.638,0.724 -0.747,1.163 -0.11,0.432 -0.069,1.282 0.132,2.542 l 1.176,6.804 c 0.126,0.798 0.258,1.278 0.386,1.482 0.108,0.173 0.276,0.304 0.505,0.383 0.216,0.067 0.587,0.067 1.12,-0.012 L 5.609,-0.299 5.679,0.062 -1.503,1.285 -1.57,0.924 C -0.965,0.822 -0.579,0.699 -0.368,0.551 -0.173,0.398 -0.046,0.21 0,0" /></g><g
           transform="translate(121.5819,171.4701)"
           id="g102"><path
             id="path104"
             style="fill:#231815;fill-opacity:1;fill-rule:nonzero;stroke:none"
             d="m 0,0 4.642,-1.939 0.141,0.353 -0.309,0.131 C 4.031,-1.272 3.687,-0.973 3.445,-0.577 3.203,-0.157 3.238,0.404 3.55,1.14 L 7.041,9.503 11.337,-5.069 11.68,-5.205 16.2,5.652 c 0.252,0.62 0.504,1.028 0.705,1.238 0.209,0.215 0.43,0.346 0.677,0.387 0.224,0.027 0.628,-0.041 1.223,-0.197 l 0.131,0.345 -4.309,1.801 -0.139,-0.347 c 0.718,-0.293 1.166,-0.677 1.321,-1.196 0.11,-0.363 0,-0.939 -0.337,-1.731 L 13.162,0.404 10.073,11.126 5.422,13.057 5.29,12.717 C 5.679,12.543 5.957,12.354 6.116,12.139 6.284,11.949 6.415,11.62 6.562,11.126 L 6.691,10.642 2.855,1.439 C 2.579,0.739 2.222,0.324 1.828,0.162 1.429,-0.016 0.873,0.049 0.139,0.342 Z" /></g><g
           transform="translate(145.6772,175.038)"
           id="g106"><path
             id="path108"
             style="fill:#231815;fill-opacity:1;fill-rule:nonzero;stroke:none"
             d="M 0,0 C 0.108,-0.234 0.167,-0.467 0.131,-0.659 0.088,-0.85 -0.121,-1.254 -0.515,-1.877 l -5.053,-7.8 c -0.399,-0.589 -0.685,-0.94 -0.824,-1.027 -0.206,-0.17 -0.419,-0.234 -0.625,-0.206 -0.284,0 -0.598,0.126 -0.94,0.34 l -0.391,0.257 -0.206,-0.324 6.155,-3.982 0.216,0.319 -0.394,0.257 c -0.335,0.198 -0.569,0.435 -0.672,0.672 -0.126,0.25 -0.157,0.463 -0.131,0.641 0.021,0.209 0.234,0.618 0.636,1.238 l 5.058,7.788 c 0.389,0.597 0.662,0.949 0.814,1.047 0.219,0.155 0.43,0.201 0.638,0.196 0.284,-0.016 0.605,-0.126 0.948,-0.34 L 5.095,-3.066 5.306,-2.755 -0.855,1.244 -1.073,0.941 -0.682,0.672 C -0.358,0.462 -0.121,0.242 0,0" /></g><g
           transform="translate(150.2595,154.2094)"
           id="g110"><path
             id="path112"
             style="fill:#231815;fill-opacity:1;fill-rule:nonzero;stroke:none"
             d="m 0,0 0.26,-0.273 10.923,4.559 c 1.302,0.551 2.175,0.858 2.638,0.901 0.605,0.083 1.123,-0.043 1.553,-0.327 l 0.27,0.271 -3.372,3.156 -0.26,-0.273 C 12.38,7.674 12.617,7.368 12.756,7.069 12.861,6.863 12.892,6.66 12.861,6.467 12.825,6.284 12.743,6.104 12.609,5.952 12.478,5.82 12.31,5.679 12.076,5.553 11.837,5.411 11.345,5.187 10.573,4.86 L 4.266,2.209 6.889,9.378 c 0.283,0.77 0.45,1.241 0.52,1.395 0.08,0.173 0.167,0.294 0.257,0.379 0.126,0.157 0.294,0.198 0.482,0.18 0.265,-0.028 0.625,-0.265 1.081,-0.685 l 0.167,-0.154 0.253,0.27 -4.938,4.618 -0.255,-0.267 C 4.817,14.694 4.989,14.328 4.973,14.025 4.948,13.708 4.706,12.869 4.191,11.476 Z" /></g><g
           transform="translate(168.2588,152.415)"
           id="g114"><path
             id="path116"
             style="fill:#231815;fill-opacity:1;fill-rule:nonzero;stroke:none"
             d="m 0,0 -7.656,-5.249 c -0.605,-0.414 -0.988,-0.62 -1.166,-0.667 -0.252,-0.041 -0.484,-0.03 -0.662,0.07 -0.257,0.108 -0.504,0.35 -0.728,0.682 l -0.276,0.389 -0.298,-0.211 6.876,-10.05 4.062,2.01 -0.224,0.309 c -1.228,-0.412 -2.317,-0.471 -3.262,-0.146 -0.947,0.293 -1.799,1.009 -2.548,2.09 l -0.471,0.692 c -0.235,0.345 -0.361,0.613 -0.361,0.819 -0.002,0.203 0.044,0.394 0.165,0.546 0.082,0.136 0.471,0.45 1.112,0.88 l 3.3,2.268 c 0.374,-0.561 0.6,-1.05 0.647,-1.439 0.056,-0.386 -0.047,-0.85 -0.327,-1.349 -0.276,-0.512 -0.724,-1.022 -1.342,-1.557 l 0.217,-0.304 6.116,4.191 -0.213,0.293 C 1.995,-6.261 1.159,-6.513 0.456,-6.492 -0.231,-6.487 -0.829,-6.104 -1.339,-5.37 L -1.49,-5.123 3.239,-1.89 4.052,-3.081 C 4.655,-3.969 5.033,-4.618 5.144,-4.997 5.344,-5.663 5.378,-6.276 5.228,-6.822 5.059,-7.385 4.613,-8.029 3.903,-8.776 L 4.098,-9.079 7.551,-6.724 0.888,2.991 0.566,2.786 0.839,2.404 C 1.112,2.036 1.205,1.684 1.205,1.344 1.192,1.128 1.112,0.901 0.971,0.703 0.86,0.597 0.541,0.355 0,0" /></g><g
           transform="translate(181.1047,130.9867)"
           id="g118"><path
             id="path120"
             style="fill:#231815;fill-opacity:1;fill-rule:nonzero;stroke:none"
             d="m 0,0 c -0.265,-0.651 -0.917,-1.187 -1.897,-1.593 -0.677,-0.26 -1.293,-0.358 -1.823,-0.276 -0.515,0.085 -0.96,0.327 -1.303,0.705 -0.339,0.384 -0.692,1.022 -1.055,1.926 l -0.234,0.561 5.679,2.289 0.419,-1.045 C 0.221,1.511 0.278,0.662 0,0 M 1.653,-0.901 C 1.575,-0.077 1.223,1.133 0.584,2.713 L -1.879,8.807 -2.219,8.67 C -1.982,8.063 -1.856,7.635 -1.897,7.38 -1.897,7.1 -2,6.896 -2.134,6.721 -2.281,6.565 -2.713,6.335 -3.413,6.05 l -8.568,-3.442 c -0.692,-0.276 -1.176,-0.407 -1.374,-0.402 -0.222,0.018 -0.43,0.126 -0.636,0.294 -0.183,0.172 -0.412,0.569 -0.664,1.174 l -0.348,-0.147 2.718,-6.742 0.345,0.128 c -0.236,0.616 -0.36,1.056 -0.339,1.308 0.028,0.273 0.121,0.489 0.257,0.639 0.147,0.17 0.571,0.383 1.287,0.672 l 3.699,1.493 0.351,-0.868 -4.279,-6.649 1.655,-4.083 0.343,0.144 c -0.126,0.36 -0.132,0.693 -0.039,1.043 0.067,0.226 0.319,0.666 0.729,1.313 l 3.182,4.901 c 0.522,-0.705 1.06,-1.212 1.637,-1.48 0.911,-0.448 1.858,-0.461 2.824,-0.065 0.78,0.307 1.39,0.837 1.791,1.522 0.407,0.71 0.564,1.477 0.495,2.296" /></g><g
           transform="translate(180.6439,119.1887)"
           id="g122"><path
             id="path124"
             style="fill:#231815;fill-opacity:1;fill-rule:nonzero;stroke:none"
             d="m 0,0 c -0.476,-0.391 -0.885,-0.906 -1.218,-1.547 -0.345,-0.636 -0.708,-1.642 -1.096,-3.017 -0.278,-0.989 -0.531,-1.673 -0.757,-2.093 -0.198,-0.396 -0.428,-0.711 -0.718,-0.947 -0.283,-0.219 -0.582,-0.371 -0.909,-0.43 -0.556,-0.103 -1.068,0.038 -1.583,0.424 -0.505,0.374 -0.806,0.953 -0.94,1.746 -0.211,0.994 0.031,1.992 0.646,2.994 0.613,1.004 1.625,1.802 3.043,2.368 l -0.051,0.368 -5.244,-0.947 0.064,-0.36 c 0.304,-0.086 0.538,-0.212 0.729,-0.379 0.157,-0.172 0.262,-0.353 0.304,-0.52 0.023,-0.216 0.01,-0.51 -0.052,-0.855 -0.142,-0.635 -0.227,-1.158 -0.237,-1.585 -0.015,-0.399 0,-0.819 0.088,-1.259 0.265,-1.416 0.883,-2.502 1.884,-3.259 1.009,-0.762 2.08,-1.045 3.218,-0.814 0.924,0.147 1.691,0.585 2.294,1.27 0.62,0.7 1.171,1.943 1.67,3.701 0.366,1.269 0.623,2.083 0.806,2.441 0.221,0.499 0.481,0.875 0.772,1.138 0.214,0.188 0.466,0.303 0.793,0.36 0.479,0.085 0.937,-0.039 1.396,-0.366 C 5.329,-1.931 5.62,-2.443 5.753,-3.153 5.908,-4.072 5.71,-4.953 5.149,-5.864 4.572,-6.783 3.743,-7.437 2.608,-7.862 l 0.079,-0.442 4.611,0.957 -0.051,0.294 c -0.42,0.023 -0.698,0.069 -0.814,0.154 -0.141,0.072 -0.232,0.214 -0.255,0.386 -0.038,0.191 0.018,0.541 0.155,1.051 0.134,0.509 0.216,0.918 0.237,1.258 0.028,0.448 0,0.909 -0.088,1.354 C 6.266,-1.593 5.689,-0.628 4.77,0.039 3.825,0.729 2.819,0.976 1.699,0.767 1.066,0.654 0.494,0.407 0,0" /></g><g
           transform="translate(187.8543,105.2929)"
           id="g126"><path
             id="path128"
             style="fill:#231815;fill-opacity:1;fill-rule:nonzero;stroke:none"
             d="m 0,0 c 0.005,-0.386 -0.038,-0.703 -0.172,-0.945 -0.132,-0.229 -0.296,-0.394 -0.469,-0.471 -0.177,-0.085 -0.644,-0.126 -1.362,-0.142 l -9.3,-0.218 c -0.709,-0.008 -1.162,0.023 -1.329,0.097 -0.242,0.09 -0.409,0.214 -0.512,0.394 -0.155,0.245 -0.24,0.572 -0.24,0.981 l -0.012,0.456 h -0.389 l 0.183,-7.347 h 0.368 v 0.474 c 0,0.404 0.041,0.702 0.172,0.944 0.132,0.245 0.288,0.399 0.471,0.469 0.173,0.087 0.641,0.144 1.367,0.167 l 9.293,0.198 c 0.708,0.016 1.154,0 1.318,-0.09 0.248,-0.09 0.415,-0.216 0.513,-0.389 0.165,-0.249 0.247,-0.571 0.247,-1.001 V -6.876 H 0.541 L 0.368,0.473 h -0.373 z" /></g><g
           transform="translate(184.4591,93.3636)"
           id="g130"><path
             id="path132"
             style="fill:#231815;fill-opacity:1;fill-rule:nonzero;stroke:none"
             d="m 0,0 c 0.996,-0.304 1.743,-0.813 2.214,-1.493 0.327,-0.494 0.43,-1.2 0.298,-2.165 L 2.324,-4.709 -8.428,-3.084 c -0.724,0.103 -1.154,0.214 -1.308,0.298 -0.209,0.137 -0.373,0.304 -0.425,0.495 -0.116,0.26 -0.152,0.602 -0.082,0.996 l 0.067,0.463 -0.371,0.062 -1.089,-7.264 0.368,-0.062 0.067,0.461 c 0.064,0.383 0.185,0.697 0.345,0.898 0.183,0.209 0.34,0.335 0.543,0.381 0.18,0.059 0.647,0.023 1.375,-0.082 L 1.835,-8.05 1.691,-9.095 c -0.11,-0.659 -0.237,-1.109 -0.396,-1.331 -0.299,-0.443 -0.659,-0.783 -1.074,-0.983 -0.425,-0.214 -1.081,-0.368 -1.985,-0.466 l -0.064,-0.363 3.772,-0.544 1.897,12.589 -3.782,0.566 z" /></g><g
           transform="translate(184.1011,74.5094)"
           id="g134"><path
             id="path136"
             style="fill:#231815;fill-opacity:1;fill-rule:nonzero;stroke:none"
             d="m 0,0 c -0.299,-0.152 -1.127,-0.347 -2.476,-0.548 l -6.856,-0.896 -2.631,1.009 c -0.677,0.252 -1.068,0.435 -1.199,0.577 -0.193,0.177 -0.294,0.383 -0.317,0.576 -0.064,0.283 -0.005,0.623 0.129,0.997 l 0.273,0.677 -0.34,0.141 -2.845,-7.362 0.348,-0.142 0.293,0.752 c 0.134,0.334 0.304,0.592 0.507,0.759 0.206,0.165 0.417,0.242 0.608,0.247 0.196,0.016 0.643,-0.131 1.326,-0.386 l 3.169,-1.217 3.699,-4.709 c 0.945,-1.181 1.496,-1.985 1.637,-2.404 0.103,-0.317 0.103,-0.688 0,-1.143 l 0.34,-0.139 1.56,4.016 -0.363,0.136 c -0.257,-0.582 -0.51,-0.942 -0.77,-1.102 -0.17,-0.126 -0.342,-0.141 -0.52,-0.077 -0.334,0.121 -0.872,0.662 -1.622,1.627 l -3.042,3.921 5.251,0.7 c 1.154,0.157 1.859,0.19 2.096,0.09 0.126,-0.054 0.216,-0.18 0.275,-0.363 0.049,-0.198 0,-0.476 -0.149,-0.857 L -1.725,-5.416 -1.38,-5.548 1.055,0.759 0.71,0.898 C 0.528,0.484 0.299,0.167 0,0" /></g><g
           transform="translate(144.7254,81.8249)"
           id="g138"><path
             id="path140"
             style="fill:#231815;fill-opacity:1;fill-rule:nonzero;stroke:none"
             d="M 0,0 C -0.048,-0.385 -0.108,-0.758 -0.168,-1.094 H 4.245 V -7.649 C 4.245,-8.25 4.089,-8.526 3.668,-8.683 3.247,-8.851 2.549,-8.851 1.6,-8.851 c -0.073,0.276 -0.241,0.697 -0.397,0.962 0.685,-0.036 1.419,-0.024 1.623,-0.012 0.216,0 0.277,0.06 0.277,0.252 v 5.52 h -7.144 v -6.722 h -1.118 v 7.757 h 3.908 c 0.036,0.324 0.096,0.709 0.133,1.094 h -4.606 v 1.046 h 4.714 c 0.036,0.397 0.06,0.782 0.072,1.118 L 0.289,2.044 C 0.252,1.719 0.205,1.383 0.156,1.046 h 4.63 V 0 Z" /></g><g
           transform="translate(144.7495,75.2104)"
           id="g142"><path
             id="path144"
             style="fill:#231815;fill-opacity:1;fill-rule:nonzero;stroke:none"
             d="M 0,0 V -1.972 H -1.058 V 0 h -2.418 v 0.902 h 2.418 v 1.034 h -2.165 v 0.878 h 1.106 c -0.096,0.397 -0.336,0.938 -0.565,1.335 l 0.878,0.229 C -1.539,3.957 -1.287,3.38 -1.179,3.007 L -1.816,2.814 h 1.972 c 0.205,0.481 0.457,1.143 0.577,1.6 L 1.743,4.185 C 1.539,3.716 1.335,3.235 1.13,2.814 H 2.273 V 1.936 H 0 V 0.902 H 2.501 L 2.501,0 Z" /></g><g
           transform="translate(154.0919,75.9921)"
           id="g146"><path
             id="path148"
             style="fill:#231815;fill-opacity:1;fill-rule:nonzero;stroke:none"
             d="m 0,0 c -0.625,-0.95 -1.551,-2.008 -2.381,-2.718 -0.192,0.229 -0.577,0.542 -0.806,0.71 0.77,0.637 1.66,1.611 2.093,2.393 z" /></g><path
           id="path150"
           style="fill:#231815;fill-opacity:1;fill-rule:nonzero;stroke:none"
           d="m 158.998,78.037 h -5.4 v 1.647 h 5.4 z m -6.505,2.621 v -3.584 h 3.246 V 74.2 c 0,-0.156 -0.06,-0.204 -0.264,-0.204 -0.216,-0.012 -0.962,-0.012 -1.672,0.012 0.133,-0.301 0.301,-0.758 0.361,-1.082 1.01,0 1.708,0 2.165,0.168 0.457,0.168 0.589,0.469 0.589,1.082 v 2.898 h 3.259 v 3.584 z" /><g
           transform="translate(159.299,76.4012)"
           id="g152"><path
             id="path154"
             style="fill:#231815;fill-opacity:1;fill-rule:nonzero;stroke:none"
             d="m 0,0 c 0.746,-0.758 1.72,-1.816 2.177,-2.501 l -0.986,-0.65 c -0.421,0.674 -1.347,1.792 -2.117,2.586 z" /></g><g
           transform="translate(36.457,80.3296)"
           id="g156"><path
             id="path158"
             style="fill:#231815;fill-opacity:1;fill-rule:nonzero;stroke:none"
             d="m 0,0 v 0.885 c 0.834,0.082 1.415,0.217 1.745,0.408 0.329,0.19 0.575,0.64 0.737,1.35 H 3.393 V -6.505 H 2.162 V 0 Z" /></g><g
           transform="translate(45.412,78.3885)"
           id="g160"><path
             id="path162"
             style="fill:#231815;fill-opacity:1;fill-rule:nonzero;stroke:none"
             d="m 0,0 c -0.378,-0.301 -0.796,-0.452 -1.254,-0.452 -0.637,0 -1.101,0.176 -1.392,0.529 -0.291,0.352 -0.436,0.827 -0.436,1.425 0,0.632 0.165,1.137 0.497,1.515 0.331,0.377 0.779,0.566 1.344,0.566 0.526,0 0.959,-0.165 1.299,-0.496 C 0.398,2.756 0.568,2.253 0.568,1.579 0.568,0.827 0.378,0.301 0,0 M 1.504,2.828 C 0.995,4.033 0.072,4.636 -1.267,4.636 -2.259,4.636 -3.01,4.319 -3.519,3.687 -4.028,3.055 -4.282,2.322 -4.282,1.489 c 0,-0.867 0.258,-1.576 0.773,-2.128 0.515,-0.551 1.216,-0.826 2.101,-0.826 0.436,0 0.844,0.082 1.222,0.247 0.378,0.164 0.696,0.45 0.953,0.856 -0.163,-1.407 -0.439,-2.34 -0.828,-2.8 -0.389,-0.46 -0.86,-0.69 -1.411,-0.69 -0.295,0 -0.561,0.064 -0.796,0.193 -0.457,0.243 -0.703,0.684 -0.737,1.321 h -1.168 c 0,-0.71 0.233,-1.3 0.699,-1.77 0.466,-0.47 1.149,-0.706 2.047,-0.706 1.338,0 2.288,0.722 2.848,2.167 0.338,0.868 0.507,1.864 0.507,2.987 0,0.996 -0.141,1.825 -0.424,2.488" /></g><g
           transform="translate(52.6698,75.4455)"
           id="g164"><path
             id="path166"
             style="fill:#231815;fill-opacity:1;fill-rule:nonzero;stroke:none"
             d="m 0,0 c -0.356,-0.531 -0.833,-0.796 -1.433,-0.796 -0.745,0 -1.272,0.435 -1.581,1.303 -0.201,0.569 -0.302,1.321 -0.302,2.258 0,1.244 0.158,2.186 0.473,2.826 0.314,0.639 0.812,0.959 1.494,0.959 0.741,0 1.24,-0.337 1.497,-1.011 C 0.405,4.866 0.533,4.007 0.533,2.963 0.533,1.518 0.355,0.53 0,0 m 1.162,6.12 c -0.53,0.979 -1.39,1.469 -2.579,1.469 -1.321,0 -2.235,-0.697 -2.739,-2.092 C -4.425,4.749 -4.56,3.853 -4.56,2.81 c 0,-1.348 0.224,-2.421 0.673,-3.221 0.539,-0.958 1.36,-1.437 2.464,-1.437 1.223,0 2.104,0.586 2.643,1.758 0.372,0.817 0.558,1.85 0.558,3.098 0,1.318 -0.206,2.355 -0.616,3.112" /></g><g
           transform="translate(55.4256,75.8904)"
           id="g168"><path
             id="path170"
             style="fill:#231815;fill-opacity:1;fill-rule:nonzero;stroke:none"
             d="M 0,0 C 0.284,0.586 0.839,1.118 1.665,1.597 L 2.896,2.31 c 0.552,0.32 0.939,0.594 1.162,0.821 0.35,0.356 0.525,0.763 0.525,1.221 0,0.536 -0.16,0.962 -0.481,1.276 C 3.782,5.943 3.354,6.101 2.819,6.101 2.028,6.101 1.481,5.8 1.177,5.2 1.014,4.878 0.925,4.432 0.908,3.862 h -1.174 c 0.012,0.8 0.16,1.452 0.442,1.956 0.501,0.89 1.384,1.335 2.65,1.335 1.052,0 1.82,-0.284 2.306,-0.853 C 5.617,5.731 5.86,5.098 5.86,4.401 5.86,3.665 5.601,3.036 5.084,2.515 4.784,2.211 4.248,1.843 3.474,1.411 L 2.595,0.924 C 2.176,0.693 1.846,0.473 1.607,0.263 1.179,-0.109 0.91,-0.522 0.799,-0.975 H 5.815 V -2.066 H -0.491 C -0.448,-1.274 -0.285,-0.586 0,0" /></g><g
           transform="translate(161.4998,82.5584)"
           id="g172"><path
             id="path174"
             style="fill:#231815;fill-opacity:1;fill-rule:nonzero;stroke:none"
             d="M 0,0 V -1.094 H -10.438 V 0 h 4.786 c -0.193,0.385 -0.421,0.83 -0.637,1.178 l 1.082,0.349 C -4.894,1.07 -4.522,0.445 -4.329,0 Z" /></g><g
           transform="translate(68.2915,22.8665)"
           id="g176"><path
             id="path178"
             style="fill:#231815;fill-opacity:1;fill-rule:nonzero;stroke:none"
             d="M 0,0 C -0.323,0.524 -0.835,0.685 -1.409,0.504 -1.74,0.4 -2.103,0.366 -2.452,0.362 -2.686,0.36 -2.925,0.453 -3.155,0.525 c -0.62,0.196 -1.238,0.397 -1.853,0.607 -0.789,0.269 -1.571,0.554 -2.361,0.819 -0.448,0.15 -0.905,0.274 -1.358,0.409 -0.013,0.067 -0.026,0.134 -0.039,0.201 0.328,0.348 0.649,0.704 0.989,1.041 0.205,0.204 0.445,0.373 0.661,0.567 0.366,0.329 0.945,0.51 0.833,1.179 -0.006,0.032 0.04,0.07 0.052,0.109 0.149,0.448 0.299,0.891 -0.085,1.312 C -6.547,7.021 -6.74,7.307 -6.979,7.551 -7.045,7.618 -7.258,7.641 -7.323,7.586 -7.444,7.486 -7.601,7.291 -7.574,7.175 -7.467,6.714 -7.675,6.322 -7.9,6.011 -8.466,5.231 -9.111,4.507 -9.736,3.771 -9.86,3.625 -10.05,3.538 -10.194,3.408 -10.407,3.215 -10.698,3.041 -10.79,2.796 -10.906,2.487 -10.875,2.116 -10.872,1.771 -10.87,1.448 -10.2,0.948 -9.92,1.089 c 0.647,0.323 1.3,0.077 1.899,-0.031 0.93,-0.167 1.904,-0.299 2.731,-0.849 0.107,-0.072 0.259,-0.073 0.38,-0.13 1.004,-0.469 2.009,-0.935 3.005,-1.42 0.603,-0.294 1.177,-0.648 1.787,-0.922 0.482,-0.215 0.842,-0.028 0.926,0.483 0.04,0.246 -0.054,0.544 -0.17,0.777 C 0.463,-0.65 0.208,-0.337 0,0" /></g><g
           transform="translate(74.1323,27.2379)"
           id="g180"><path
             id="path182"
             style="fill:#231815;fill-opacity:1;fill-rule:nonzero;stroke:none"
             d="M 0,0 C -0.102,0.632 -0.628,0.953 -1.052,1.07 -1.387,1.163 -1.556,0.978 -1.682,0.712 -1.871,0.31 -2.072,-0.088 -2.24,-0.5 c -0.071,-0.173 -0.163,-0.437 -0.085,-0.553 0.203,-0.301 0.494,-0.544 0.813,-0.876 0.289,-0.025 0.606,-0.065 0.924,-0.079 0.712,-0.032 1.041,0.391 0.851,1.084 C 0.178,-0.615 0.051,-0.314 0,0" /></g><g
           transform="translate(65.6856,26.3147)"
           id="g184"><path
             id="path186"
             style="fill:#231815;fill-opacity:1;fill-rule:nonzero;stroke:none"
             d="m 0,0 c 0.252,-0.422 0.81,-0.469 1.12,-0.133 0.319,0.346 0.666,0.668 1.019,0.98 0.125,0.11 0.303,0.16 0.541,0.28 C 2.629,1.33 2.633,1.524 2.538,1.621 2.457,1.704 2.257,1.712 2.119,1.692 1.376,1.583 0.773,1.893 0.447,2.547 0.41,2.622 0.219,2.692 0.137,2.662 -0.518,2.419 -0.968,1.554 -0.509,0.899 -0.313,0.618 -0.177,0.296 0,0" /></g><g
           transform="translate(88.2612,23.64)"
           id="g188"><path
             id="path190"
             style="fill:#231815;fill-opacity:1;fill-rule:nonzero;stroke:none"
             d="M 0,0 C 0.187,0.338 0.359,0.686 0.502,1.043 0.542,1.144 0.491,1.322 0.42,1.42 0.222,1.691 -0.052,1.914 -0.216,2.201 -0.43,2.576 -0.771,2.656 -1.126,2.666 -1.3,2.671 -1.572,2.55 -1.63,2.413 -1.697,2.255 -1.571,2.019 -1.541,1.815 -1.505,1.56 -1.386,1.263 -1.472,1.056 -1.656,0.619 -1.93,0.213 -2.204,-0.179 -2.47,-0.56 -2.78,-0.91 -3.077,-1.269 c -0.172,-0.208 -0.356,-0.407 -0.535,-0.609 -0.053,0.024 -0.106,0.048 -0.159,0.073 0.157,0.524 -0.01,0.946 -0.337,1.341 -0.088,0.106 -0.092,0.312 -0.077,0.467 0.07,0.724 0.189,1.444 0.236,2.169 0.077,1.192 -0.857,1.683 -1.882,1.539 -0.107,-0.015 -0.202,-0.105 -0.303,-0.16 0.056,-0.09 0.103,-0.188 0.169,-0.27 0.132,-0.161 0.38,-0.305 0.393,-0.472 0.075,-0.923 0.193,-1.861 0.096,-2.773 -0.058,-0.54 -0.365,-1.198 -0.78,-1.512 -0.339,-0.256 -0.78,-0.731 -1.389,-0.531 -0.129,0.042 -0.358,-0.015 -0.451,-0.112 -0.253,-0.263 -0.557,-0.171 -0.849,-0.221 -0.498,-0.085 -1.025,0.048 -1.501,-0.305 -0.219,-0.161 -0.576,-0.325 -0.944,-0.118 -0.104,0.058 -0.442,-0.078 -0.508,-0.208 -0.257,-0.509 -0.466,-1.045 -0.652,-1.585 -0.051,-0.147 -0.017,-0.419 0.084,-0.498 0.108,-0.085 0.349,-0.04 0.518,0.004 0.131,0.034 0.272,0.131 0.351,0.241 0.17,0.238 0.356,0.247 0.602,0.143 0.209,-0.088 0.372,-0.059 0.577,0.122 0.271,0.24 0.639,0.511 0.969,0.514 0.701,0.009 1.122,0.441 1.567,0.831 0.499,0.436 1.042,0.552 1.39,0.208 -0.203,-0.279 -0.407,-0.554 -0.605,-0.834 -0.387,-0.546 -0.847,-1.037 -1.254,-1.556 -0.676,-0.861 -1.472,-1.467 -2.447,-1.915 -0.176,-0.081 -0.218,-0.455 -0.323,-0.694 0.175,-0.043 0.384,-0.17 0.518,-0.114 0.543,0.227 1.112,0.444 1.58,0.79 0.521,0.385 0.939,0.909 1.41,1.365 0.329,0.317 0.666,0.627 1.014,0.923 0.08,0.068 0.256,0.125 0.32,0.083 0.08,-0.053 0.133,-0.215 0.125,-0.325 -0.037,-0.512 -0.091,-1.025 -0.155,-1.535 -0.074,-0.58 -0.16,-1.16 -0.253,-1.738 -0.014,-0.089 -0.071,-0.211 -0.143,-0.246 -0.379,-0.184 -0.769,-0.345 -1.254,-0.557 0.047,-0.167 0.054,-0.449 0.193,-0.631 0.248,-0.326 0.568,-0.599 0.871,-0.88 0.193,-0.178 1.024,-0.127 1.143,0.092 0.243,0.451 0.53,0.907 0.638,1.396 0.174,0.788 0.216,1.605 0.319,2.409 0.019,0.142 0.054,0.284 0.098,0.421 0.208,0.646 0.53,1.279 0.598,1.938 0.058,0.561 0.339,0.952 0.719,1.139 0.705,0.347 1.318,0.785 1.866,1.326 0.291,0.288 0.558,0.607 0.793,0.942 C -0.454,-0.813 -0.225,-0.406 0,0" /></g><g
           transform="translate(93.4812,22.4068)"
           id="g192"><path
             id="path194"
             style="fill:#231815;fill-opacity:1;fill-rule:nonzero;stroke:none"
             d="M 0,0 C -0.393,0.423 -0.867,0.792 -1.626,0.873 -1.727,0.824 -1.924,0.732 -2.117,0.635 -2.233,0.576 -2.338,0.478 -2.459,0.452 -3.061,0.319 -3.668,0.208 -4.271,0.081 c -0.27,-0.057 -0.555,-0.095 -0.798,-0.212 -0.248,-0.12 -0.275,-0.318 -0.068,-0.563 0.231,-0.274 0.514,-0.352 0.839,-0.359 0.7,-0.014 1.401,-0.004 2.101,-0.035 0.466,-0.02 0.929,-0.092 1.394,-0.143 0.388,-0.042 0.79,0.03 0.932,0.393 C 0.221,-0.603 0.165,-0.177 0,0" /></g><g
           transform="translate(89.6871,19.0805)"
           id="g196"><path
             id="path198"
             style="fill:#231815;fill-opacity:1;fill-rule:nonzero;stroke:none"
             d="M 0,0 C -0.36,0.139 -0.718,0.286 -1.088,0.394 -1.73,0.582 -2,0.425 -2.261,-0.277 c 0.212,-0.172 0.427,-0.366 0.661,-0.532 0.488,-0.345 0.525,-0.69 0.19,-1.202 -0.113,-0.173 -0.109,-0.439 -0.11,-0.663 -10e-4,-0.242 0.201,-0.309 0.368,-0.204 0.687,0.435 1.377,0.878 1.69,1.687 C 0.724,-0.711 0.483,-0.186 0,0" /></g><g
           transform="translate(89.2589,13.5531)"
           id="g200"><path
             id="path202"
             style="fill:#231815;fill-opacity:1;fill-rule:nonzero;stroke:none"
             d="m 0,0 c -0.603,0.207 -1.023,0.607 -1.438,1.051 -0.291,0.311 -0.805,0.195 -0.814,-0.209 -0.009,-0.404 0.134,-0.838 0.31,-1.212 0.138,-0.293 0.492,-0.483 0.635,-0.775 0.274,-0.562 0.375,-0.668 0.896,-0.58 0.694,0.118 0.838,0.26 0.869,0.861 C 0.487,-0.311 0.461,-0.158 0,0" /></g><g
           transform="translate(114.0873,17.7858)"
           id="g204"><path
             id="path206"
             style="fill:#231815;fill-opacity:1;fill-rule:nonzero;stroke:none"
             d="M 0,0 C 0.571,0.176 1.058,0.388 1.564,0.458 1.876,0.501 2.271,0.409 2.533,0.234 2.932,-0.033 2.865,-0.52 2.417,-0.749 2.02,-0.951 1.586,-1.095 1.155,-1.211 0.081,-1.501 0.074,-1.709 -0.089,-2.571 -0.17,-3.004 -0.353,-3.417 -0.474,-3.844 c -0.062,-0.217 -0.088,-0.445 -0.13,-0.668 0.041,-0.044 0.083,-0.088 0.124,-0.132 0.466,0.125 0.963,0.184 1.391,0.387 0.916,0.435 1.882,0.528 2.858,0.492 0.306,-0.012 0.649,-0.25 0.884,-0.479 0.13,-0.127 0.179,-0.565 0.077,-0.658 -0.226,-0.206 -0.576,-0.406 -0.863,-0.39 -1.221,0.07 -2.425,0.13 -3.62,-0.244 -0.411,-0.128 -0.877,-0.069 -1.306,-0.157 -0.358,-0.073 -0.77,-0.153 -1.029,-0.378 -0.479,-0.416 -1.076,-0.393 -1.609,-0.588 -0.696,-0.254 -1.388,-0.687 -2.132,-0.576 -0.472,0.07 -0.921,0.445 -1.322,0.758 -0.147,0.115 -0.227,0.466 0.162,0.581 0.116,0.035 0.194,0.18 0.309,0.231 0.13,0.058 0.311,0.135 0.417,0.087 0.725,-0.325 1.439,-0.209 2.155,0.003 0.497,0.146 1.011,0.257 1.475,0.473 0.198,0.092 0.386,0.402 0.408,0.629 0.038,0.402 -0.05,0.816 -0.093,1.224 -0.042,0.404 -0.332,0.626 -0.692,0.437 -0.449,-0.237 -0.914,-0.256 -1.36,-0.173 -0.473,0.088 -1.01,0.106 -1.355,0.54 -0.217,0.272 -0.103,0.501 0.243,0.584 0.978,0.235 1.958,0.466 2.925,0.745 0.253,0.073 0.512,0.239 0.525,0.615 0.019,0.536 0.123,1.069 0.152,1.606 0.024,0.436 0.362,0.689 0.79,0.568 C -0.529,1.514 -0.424,1.007 -0.221,0.575 -0.136,0.395 -0.077,0.204 0,0" /></g><g
           transform="translate(108.9029,20.3913)"
           id="g208"><path
             id="path210"
             style="fill:#231815;fill-opacity:1;fill-rule:nonzero;stroke:none"
             d="M 0,0 C 0.813,0.117 1.605,0.231 2.396,0.346 L 2.463,0.171 C 2.124,-0.051 1.805,-0.313 1.442,-0.485 0.988,-0.699 0.492,-0.823 0.027,-1.017 c -0.445,-0.186 -0.862,-0.448 -1.316,-0.607 -0.309,-0.107 -0.776,-0.247 -0.968,-0.102 -0.437,0.329 -0.681,0.864 -0.614,1.448 0.016,0.13 0.22,0.29 0.37,0.345 0.485,0.179 0.925,0.381 1.27,0.804 0.267,0.327 0.651,0.556 0.962,0.852 C 0.037,2.015 0.324,2.328 0.599,2.65 0.668,2.731 0.706,2.966 0.674,2.985 0.527,3.071 0.342,3.166 0.186,3.145 -0.466,3.059 -1.114,2.996 -1.734,3.266 -1.967,3.368 -2.184,3.534 -2.371,3.711 -2.575,3.903 -2.404,4.296 -2.095,4.359 -1.17,4.545 -0.24,4.712 0.684,4.906 1.359,5.049 2.028,5.223 2.7,5.383 2.728,5.39 2.767,5.389 2.783,5.407 3.403,6.149 4.382,6.109 5.176,6.466 5.703,6.703 6.381,6.69 6.98,6.643 7.226,6.623 7.56,6.33 7.561,5.905 7.562,5.56 7.293,5.579 7.117,5.433 6.59,4.995 5.97,5.113 5.383,5.002 4.69,4.872 4.016,4.638 3.339,4.433 3.275,4.414 3.217,4.284 3.205,4.199 3.187,4.071 3.202,3.936 3.22,3.806 3.343,2.952 2.757,2.567 2.169,2.158 1.729,1.853 1.332,1.487 0.914,1.149 0.858,1.103 0.8,1.045 0.734,1.029 0.208,0.906 0.048,0.523 0,0" /></g><g
           transform="translate(117.7247,20.8525)"
           id="g212"><path
             id="path214"
             style="fill:#231815;fill-opacity:1;fill-rule:nonzero;stroke:none"
             d="m 0,0 c -0.056,-0.113 -0.105,-0.393 -0.244,-0.448 -0.213,-0.085 -0.535,-0.103 -0.729,0.002 -0.932,0.498 -1.884,0.9 -2.953,0.976 -0.098,0.007 -0.191,0.073 -0.287,0.111 0.053,0.108 0.079,0.249 0.163,0.32 0.526,0.445 1.153,0.448 1.793,0.378 0.2,-0.022 0.403,-0.05 0.603,-0.038 0.573,0.035 1.269,-0.342 1.528,-0.86 C -0.075,0.34 -0.061,0.22 0,0" /></g><g
           transform="translate(138.7772,24.924)"
           id="g216"><path
             id="path218"
             style="fill:#231815;fill-opacity:1;fill-rule:nonzero;stroke:none"
             d="m 0,0 c -0.039,-0.866 -0.272,-1.002 -1.239,-1.113 -1.025,-0.119 -2.034,-0.381 -3.064,-0.583 0.039,0.159 -0.165,0.452 0.238,0.643 0.261,0.124 0.456,0.381 0.693,0.561 0.27,0.204 0.495,0.502 0.921,0.382 0.124,-0.035 0.341,0.042 0.43,0.143 0.617,0.7 1.269,0.615 1.955,0.13 C -0.044,0.109 -0.022,0.054 0,0" /></g><g
           transform="translate(128.0368,20.5966)"
           id="g220"><path
             id="path222"
             style="fill:#231815;fill-opacity:1;fill-rule:nonzero;stroke:none"
             d="m 0,0 c -0.258,0.049 -0.541,0.056 -0.78,0.163 -0.156,0.071 -0.291,0.272 -0.348,0.443 -0.028,0.083 0.125,0.258 0.233,0.346 0.097,0.077 0.251,0.141 0.368,0.125 C 0.32,0.965 0.726,1.768 1.4,2.026 1.526,2.075 1.497,2.637 1.457,2.952 1.441,3.079 1.2,3.271 1.066,3.268 0.813,3.263 0.548,3.167 0.316,3.054 -0.066,2.866 -0.415,2.608 -0.804,2.442 -0.895,2.402 -1.093,2.609 -1.241,2.703 -1.135,2.864 -1.062,3.118 -0.917,3.17 -0.143,3.445 0.267,4.156 0.878,4.621 0.936,4.666 0.897,4.99 0.827,5.024 0.648,5.109 0.369,5.196 0.231,5.114 -0.068,4.934 -0.299,4.644 -0.566,4.408 -1.003,4.023 -1.343,3.995 -1.818,4.319 -1.995,4.44 -2.083,4.592 -1.833,4.76 c 0.708,0.477 1.43,0.936 2.102,1.457 0.448,0.348 0.779,0.853 1.24,1.176 0.515,0.36 0.71,1.091 1.429,1.194 0.144,0.02 0.283,0.067 0.425,0.097 C 3.829,8.78 4.011,8.681 4.102,8.285 4.196,7.875 4.023,7.647 3.645,7.472 3.332,7.327 3.072,7.071 2.786,6.869 2.685,6.798 2.575,6.74 2.469,6.677 2.37,6.618 2.185,6.558 2.186,6.501 2.188,6.339 2.233,6.151 2.33,6.028 2.378,5.966 2.597,5.983 2.705,6.034 3.029,6.186 3.351,6.35 3.645,6.552 3.971,6.777 4.346,6.821 4.502,6.598 4.641,6.399 4.46,5.944 4.175,5.759 3.802,5.517 3.414,5.291 3.066,5.017 2.575,4.629 2.572,4.023 3.012,3.573 3.232,3.347 3.253,3.131 3.044,2.846 2.73,2.417 2.391,2.067 1.849,1.943 1.74,1.918 1.669,1.743 1.57,1.646 1.233,1.314 0.884,0.993 0.554,0.655 0.364,0.46 0.201,0.24 0,0" /></g><g
           transform="translate(136.2148,17.9402)"
           id="g224"><path
             id="path226"
             style="fill:#231815;fill-opacity:1;fill-rule:nonzero;stroke:none"
             d="m 0,0 c -0.681,-0.364 -1.401,-0.764 -2.136,-1.134 -0.216,-0.109 -0.481,-0.116 -0.713,-0.199 -0.215,-0.078 -0.443,-0.16 -0.616,-0.3 -0.512,-0.417 -0.46,-0.322 -1.009,0.093 -0.285,0.216 -0.437,0.599 -0.703,0.847 -0.365,0.341 -0.607,0.858 -1.233,0.865 -0.162,0.002 -0.321,0.221 -0.482,0.34 0.126,0.124 0.23,0.29 0.38,0.367 0.511,0.26 1.244,0.09 1.633,-0.338 0.322,-0.355 0.635,-0.719 0.984,-1.045 0.228,-0.212 0.498,-0.369 0.834,-0.127 0.477,0.345 0.982,0.651 1.455,1.001 0.108,0.079 0.225,0.316 0.182,0.398 -0.205,0.392 -0.083,0.781 -0.067,1.172 0.002,0.053 -0.04,0.108 -0.098,0.251 -0.452,-0.183 -0.893,-0.362 -1.345,-0.544 -0.208,0.291 -0.342,0.549 0.081,0.781 0.129,0.071 0.233,0.213 0.313,0.344 0.514,0.838 1.327,0.88 2.171,0.818 C 0.035,3.56 0.265,3.353 0.237,2.902 0.21,2.48 0.213,2.102 0.001,1.672 -0.201,1.259 -0.018,0.657 0,0" /></g><g
           transform="translate(128.5764,18.6623)"
           id="g228"><path
             id="path230"
             style="fill:#231815;fill-opacity:1;fill-rule:nonzero;stroke:none"
             d="m 0,0 c -0.324,-0.06 -0.555,-0.087 -0.777,-0.149 -0.268,-0.074 -0.555,-0.133 -0.785,-0.276 -0.482,-0.3 -0.956,-0.622 -1.389,-0.988 -0.289,-0.245 -0.458,-0.637 -0.755,-0.866 -0.594,-0.458 -1.215,-0.91 -2.05,-0.507 -0.261,0.126 -0.337,0.251 -0.185,0.488 0.236,0.366 0.549,0.602 1.015,0.555 0.283,-0.028 0.461,0.058 0.629,0.335 0.131,0.216 0.474,0.465 0.69,0.438 0.611,-0.077 1.055,0.311 1.317,0.638 0.364,0.453 0.917,0.588 1.255,1.016 0.191,0.241 0.379,0.485 0.576,0.722 0.355,0.427 0.753,0.788 1.317,0.931 0.265,0.067 0.507,0.23 0.773,0.292 C 1.809,2.67 2.01,2.609 2.201,2.594 2.181,2.423 2.192,2.24 2.135,2.082 1.893,1.415 1.41,1.02 0.708,0.915 0.416,0.871 0.298,0.73 0.258,0.436 0.235,0.266 0.073,0.116 0,0" /></g><g
           transform="translate(132.2812,21.2744)"
           id="g232"><path
             id="path234"
             style="fill:#231815;fill-opacity:1;fill-rule:nonzero;stroke:none"
             d="M 0,0 C -0.315,0.369 -0.03,0.742 0.02,1.097 0.069,1.448 0.244,1.78 0.32,2.13 0.405,2.524 0.184,2.71 -0.224,2.655 -0.377,2.634 -0.552,2.627 -0.69,2.681 -0.911,2.768 -1.025,2.943 -0.812,3.154 -0.566,3.396 -0.303,3.619 -0.049,3.852 0.192,4.073 0.484,4.262 0.658,4.527 0.898,4.889 1.231,5.05 1.608,5.18 1.895,5.279 2.127,5.212 2.267,4.938 2.418,4.645 2.388,4.363 2.11,4.161 1.854,3.975 1.58,3.811 1.308,3.648 1.064,3.501 0.805,3.378 0.566,3.224 0.496,3.18 0.419,3.053 0.437,2.989 0.463,2.893 0.555,2.765 0.643,2.742 1.387,2.551 1.478,2.499 1.369,1.745 1.316,1.381 1.068,1.02 0.832,0.717 0.622,0.447 0.308,0.258 0,0" /></g><g
           transform="translate(131.8463,31.8231)"
           id="g236"><path
             id="path238"
             style="fill:#231815;fill-opacity:1;fill-rule:nonzero;stroke:none"
             d="m 0,0 c 0.09,-0.414 -0.13,-1.179 -0.441,-1.399 -0.344,-0.243 -0.746,-0.409 -0.834,-0.92 -0.023,-0.129 -0.381,-0.309 -0.552,-0.279 -0.342,0.06 -0.503,0.394 -0.386,0.7 0.311,0.813 -0.133,1.512 -0.257,2.259 -0.027,0.159 -0.052,0.438 0.015,0.471 0.233,0.113 0.55,0.257 0.757,0.179 C -1.339,0.877 -1.04,0.618 -0.627,0.538 -0.392,0.493 -0.207,0.188 0,0" /></g><g
           transform="translate(127.3094,29.8759)"
           id="g240"><path
             id="path242"
             style="fill:#231815;fill-opacity:1;fill-rule:nonzero;stroke:none"
             d="m 0,0 c 0.557,-0.719 0.468,-1.614 -0.201,-2.126 -0.279,-0.214 -0.774,-0.145 -1.008,0.121 -0.234,0.265 -0.494,0.507 -0.726,0.774 -0.075,0.087 -0.164,0.28 -0.127,0.324 0.083,0.098 0.279,0.218 0.362,0.18 0.729,-0.331 1.142,0.028 1.478,0.617 C -0.188,-0.05 -0.074,-0.035 0,0" /></g><g
           transform="translate(100,106.7024)"
           id="g244"><path
             id="path246"
             style="fill:#231815;fill-opacity:1;fill-rule:nonzero;stroke:none"
             d="m 0,0 -18.415,-6.702 h 36.83 z" /></g><g
           transform="translate(109.4098,70.631)"
           id="g248"><path
             id="path250"
             style="fill:#231815;fill-opacity:1;fill-rule:nonzero;stroke:none"
             d="M 0,0 V -6.107 H -6.955 V 0 h -4.909 V -6.107 H -18.82 V 0 h -4.909 v -6.107 h -4.003 V 2.677 H 8.912 V -6.107 H 4.909 l 0,6.107 z" /></g><path
           id="path252"
           style="fill:#231815;fill-opacity:1;fill-rule:nonzero;stroke:none"
           d="m 81.678,95.292 h 36.644 v 3.122 H 81.678 Z" /><path
           id="path254"
           style="fill:#231815;fill-opacity:1;fill-rule:nonzero;stroke:none"
           d="m 114.463,81.159 h -7.257 v 9.991 h 7.257 z m -10.835,0 h -7.257 v 9.991 h 7.257 z m -10.834,0 h -7.257 v 9.991 h 7.257 z m 25.528,-0.02 V 93.706 H 81.678 V 81.139 h -1.666 v -1.537 h 39.976 v 1.537 z" /><g
           transform="translate(124.2315,144.7604)"
           id="g256"><path
             id="path258"
             style="fill:#231815;fill-opacity:1;fill-rule:evenodd;stroke:none"
             d="m 0,0 c -0.273,0 -0.776,-0.741 -0.862,-0.909 -0.076,-0.148 -0.166,-0.352 -0.233,-0.493 -0.126,-0.263 -0.244,-0.499 -0.365,-0.752 -0.148,-0.31 -0.391,-0.602 -0.529,-0.906 -0.259,-0.566 -0.022,-0.952 0.609,-0.968 0.613,-0.016 1.156,0.548 1.404,1.063 0.022,0.046 0.042,0.092 0.06,0.139 0.181,0.476 0.195,0.693 0.157,1.194 C 0.204,-1.127 -0.141,-0.806 0,0" /></g><g
           transform="translate(132.2165,136.0106)"
           id="g260"><path
             id="path262"
             style="fill:#231815;fill-opacity:1;fill-rule:evenodd;stroke:none"
             d="m 0,0 c -0.067,-0.54 -0.117,-1.039 -0.438,-1.517 -0.163,-0.244 -0.385,-0.454 -0.646,-0.588 -0.21,-0.108 -0.554,-0.241 -0.791,-0.209 -0.334,0.045 -0.638,0.132 -0.893,0.369 -0.391,0.364 -0.522,0.99 -0.295,1.476 0.22,0.471 0.717,0.72 1.19,0.867 0.345,0.107 0.703,0.147 1.06,0.186 0.206,0.023 0.424,0.097 0.633,0.055 C 0.153,0.572 0.044,0.348 0.011,0.088 0.007,0.058 0.004,0.029 0,0 M 2.528,15.018 C 2.497,14.692 2.471,14.515 2.45,14.163 2.422,13.691 2.324,13.227 2.251,12.761 c -0.02,-0.123 0.007,-0.313 -0.123,-0.38 -0.115,-0.06 -0.383,0.042 -0.47,0.13 -0.311,0.316 -0.041,0.915 0.152,1.208 0.205,0.31 0.484,0.696 0.124,1.009 -0.589,0.512 -1.285,-0.434 -1.945,-0.487 -0.006,0.049 -0.132,0.546 -0.078,0.518 -0.24,0 -0.354,0.68 -0.648,0.648 0.057,0.458 0.753,0.806 1.101,1.036 0.156,0.103 0.998,0.492 0.998,0.622 0.553,0.059 1.059,0.455 1.244,-0.518 0.08,-0.42 -0.045,-1.177 -0.078,-1.529 M 2.126,11.021 C 2.113,10.722 1.819,10.677 1.588,10.647 1.252,10.603 0.919,10.516 0.59,10.437 0.503,10.417 -0.229,10.301 -0.241,10.25 c 0.141,0.589 0.248,1.169 0.307,1.776 0.036,0.359 0.042,0.876 0.039,1.269 -0.001,0.195 -0.103,0.648 0.013,0.764 -0.052,-0.017 -0.069,0 -0.052,0.052 0.004,0.01 0.271,0.044 0.295,0.045 0.114,0.003 0.183,-0.015 0.275,-0.091 C 0.794,13.934 0.873,13.719 0.888,13.519 0.909,13.249 0.837,12.982 0.811,12.712 0.786,12.443 0.816,12.145 1.001,11.948 1.154,11.785 1.392,11.706 1.585,11.606 1.845,11.472 2.031,11.357 2.337,11.353 2.213,11.354 2.13,11.109 2.126,11.021 M 1.828,9.577 c 0,0.033 -0.943,0.292 -1.01,0.259 0.1,0.2 0.91,0.148 1.114,0.181 C 1.925,9.997 1.924,9.551 1.828,9.577 m -2.442,2.468 c -0.033,-0.253 -0.071,-0.765 -0.234,-0.998 -0.287,-0.411 -0.539,-0.044 -0.718,0.214 -0.263,0.378 -0.236,0.735 -0.174,1.293 0.033,0.299 0.154,2.024 0.537,2.024 0,0.194 0.327,-0.141 0.363,-0.208 0.079,-0.146 0.054,-0.364 0.077,-0.544 0.058,-0.448 0.124,-0.93 0.156,-1.425 0.004,-0.071 0.006,-0.254 -0.007,-0.356 m 7.055,-2.028 c -0.081,0.164 -0.21,0.314 -0.285,0.389 -0.283,0.284 -0.627,0.452 -1.063,0.492 -0.406,0.037 -0.882,0.055 -1.308,0.026 -0.288,-0.019 -0.47,0 -0.656,0 0.016,0 0.219,1.895 0.231,2.038 0.025,0.279 0.006,0.546 0.041,0.831 0.088,0.705 0.15,1.414 0.198,2.123 0.015,0.222 -0.033,0.428 -0.017,0.646 0.015,0.197 0.042,0.392 0.031,0.59 -0.022,0.406 -0.228,0.713 -0.541,0.963 -0.411,0.328 -1.024,0.059 -1.554,-0.143 -0.658,-0.25 -1.364,-0.853 -1.763,-1.451 -0.188,-0.283 -0.457,-0.639 -0.72,-0.85 -0.395,-0.316 -0.482,0.223 -0.459,0.487 0.035,0.391 0.006,0.847 0.065,1.296 0.017,0.127 0.057,0.559 0.156,0.7 0.163,0.232 0.803,0.464 1.024,0.54 0.226,0.079 0.407,0.244 0.608,0.315 0.244,0.086 0.701,0.095 0.881,0.259 0.395,0.359 -1.321,0.659 -1.321,0.311 -0.125,-0.035 -0.348,-0.229 -0.441,-0.285 -0.155,-0.095 -0.348,-0.199 -0.518,-0.285 -0.079,0.244 0.078,0.551 0.052,0.803 -0.016,0.151 -0.018,0.278 -0.13,0.453 -0.327,0.514 -0.798,0.221 -1.062,0.221 0,-0.127 0.288,-0.113 0,-0.104 0.422,-0.211 0.104,-1.156 0.065,-1.516 -0.037,-0.336 -0.056,-0.497 -0.052,-0.816 0.003,-0.258 -0.089,-0.623 -0.117,-0.907 -0.028,-0.286 -0.011,-0.844 -0.013,-1.244 -0.001,-0.221 -0.035,-0.563 0.065,-0.725 0.181,-0.294 0.464,-0.436 0.363,-0.855 -0.273,-1.126 -0.73,-2.3 -0.49,-3.469 0.036,-0.178 0.06,-0.38 0.155,-0.538 0.06,-0.1 0.325,-0.242 0.259,-0.372 C -1.927,9.839 -2.124,9.888 -2.214,9.875 -2.489,9.833 -2.701,9.727 -2.991,9.654 c 0.064,0.016 0.113,1.13 0.12,1.223 0.016,0.195 0.227,1.505 -0.14,1.367 -0.014,-0.155 -0.026,-0.694 -0.264,-0.698 -0.067,-10e-4 -0.565,1.332 -0.608,1.482 -0.154,0.541 -0.202,1.105 0.089,1.614 0.155,0.273 0.404,0.587 0.321,0.92 -0.033,0.133 -0.293,0.567 -0.47,0.553 -0.275,-0.022 -0.351,-0.682 -0.396,-0.889 -0.217,-1.002 -0.282,-2.038 -0.19,-3.059 0.045,-0.499 0.128,-0.996 0.251,-1.482 0.023,-0.088 0.376,-1.344 0.354,-1.342 -0.03,0.003 -0.039,0.021 -0.026,0.052 -0.254,0 -0.72,-0.257 -0.959,-0.337 0,0.157 0.133,0.303 0.156,0.48 0.026,0.196 -0.078,0.572 -0.091,0.764 -0.043,0.652 -0.113,1.569 -0.142,2.423 -0.024,0.703 -0.492,1.061 -1.089,1.36 -0.12,0.06 -0.414,0.269 -0.544,0.182 -0.11,-0.075 -0.014,-0.415 -0.104,-0.415 0.203,-0.339 0.378,-0.488 0.441,-0.829 0.035,-0.191 0.125,-0.584 0.155,-0.829 0.087,-0.707 0.131,-1.545 0.221,-2.203 0.064,-0.474 0.152,-0.797 0.246,-1.269 -0.145,0 -0.311,-0.337 -0.544,-0.26 0,-0.056 -0.026,0.005 -0.026,-0.051 0.691,-0.126 1.259,-0.042 1.891,0.077 0.264,0.05 0.581,0.258 0.8,0.103 0.062,-0.044 0.236,-0.448 0.315,-0.465 0.283,-0.064 0.147,0.616 0.233,0.751 0.132,0.207 0.591,0.25 0.804,0.293 0.188,0.038 0.377,0.069 0.566,0.098 0.248,0.039 0.288,-0.014 0.504,-0.128 0.027,-0.015 0.057,-0.029 0.088,-0.025 0.044,0.006 0.074,0.047 0.098,0.086 0.12,0.194 0.138,0.219 0.358,0.272 0.247,0.058 0.497,0.108 0.749,0.144 C 0.307,9.635 0.444,9.636 0.573,9.661 0.656,9.677 0.736,9.726 0.825,9.705 1.104,9.638 0.963,9.163 1.025,8.955 1.103,8.693 1.339,8.407 1.6,8.313 1.893,8.208 2.185,8.447 2.33,8.687 2.482,8.937 2.569,9.218 2.641,9.5 2.691,9.699 2.83,9.916 2.84,10.116 3.264,10.055 3.706,10.192 4.135,10.173 4.217,10.169 4.436,10.206 4.574,10.171 4.976,10.07 4.772,10.104 4.653,9.914 4.489,9.65 4.277,9.509 4.056,9.262 3.69,8.856 3.332,8.454 2.902,8.112 2.692,7.945 2.473,7.789 2.263,7.622 2.151,7.533 2.039,7.443 1.934,7.346 1.869,7.286 1.768,7.089 1.716,7.056 1.576,6.967 1.336,7.125 1.114,7.111 0.849,7.094 0.6,6.964 0.351,6.882 -0.352,6.648 -0.989,6.311 -1.592,5.975 -1.936,5.783 -2.523,5.25 -2.253,4.77 -1.946,4.227 -1.62,4.761 -1.333,4.938 -1.14,5.057 -0.948,5.124 -0.685,5.223 -0.468,5.306 0.02,5.638 0.274,5.638 0.128,4.761 -0.576,4.216 -0.892,3.462 -1.026,3.143 -0.975,2.744 -0.783,2.46 -0.599,2.188 -0.23,1.867 -0.424,1.502 -0.62,1.131 -1.106,1.163 -1.462,1.103 -1.878,1.037 -2.576,0.927 -2.913,0.715 c -1.504,-0.946 -0.649,-3.455 0.958,-3.757 0.76,-0.144 1.581,0.13 2.158,0.632 0.427,0.372 0.774,0.856 0.977,1.385 0.139,0.361 0.217,0.781 0.258,1.164 0.015,0.137 -0.022,0.265 0.071,0.37 0.145,0.164 0.466,0.16 0.663,0.152 C 2.655,0.643 3.115,0.647 3.592,0.543 4.162,0.418 4.675,0.104 5.248,-0.015 5.275,-0.02 5.304,-0.025 5.327,-0.012 5.377,0.016 5.359,0.092 5.334,0.144 5.242,0.336 5.165,0.524 5.067,0.715 4.926,0.995 4.847,1.29 4.588,1.466 4.243,1.7 3.742,1.653 3.348,1.633 2.866,1.61 2.376,1.704 1.894,1.642 1.609,1.605 1.461,1.66 1.423,1.993 1.393,2.251 1.478,2.588 1.318,2.809 1.131,3.067 0.778,3.051 0.559,3.073 0.218,3.106 -0.171,3.125 -0.426,3.125 -0.404,3.553 -0.175,3.819 0.092,4.135 0.236,4.305 0.966,4.988 0.922,5.12 1.064,5.072 1.679,5.923 1.699,5.949 1.781,6.054 2.08,6.3 2.095,6.398 2.115,6.522 1.993,6.882 1.777,6.882 1.857,7.171 2.399,7.331 2.606,7.4 c 0,-0.104 0.122,0.015 0.155,0 0.448,0 1.153,0.39 1.516,0.583 0.458,0.244 0.782,0.54 1.205,0.79 0.241,0.143 0.462,0.299 0.673,0.431 0.413,0.261 0.496,0.387 0.286,0.813" /></g><g
           transform="translate(69.7437,142.3445)"
           id="g264"><path
             id="path266"
             style="fill:#231815;fill-opacity:1;fill-rule:evenodd;stroke:none"
             d="M 0,0 C 0.125,0.093 0.462,0.089 0.472,0.288 0.485,0.576 -0.607,0.943 -0.904,0.917 -1.198,0.892 -1.665,0.542 -1.951,0.714 c -0.264,0.159 -0.175,0.861 -0.144,1.118 0.027,0.229 0.149,0.323 0.361,0.34 0.279,0.023 0.551,0.081 0.827,0.11 0.202,0.021 0.435,0.018 0.54,0.233 0.056,0.115 -0.112,0.538 -0.183,0.629 -0.226,0.291 -0.367,0.078 -0.668,0 C -1.469,3.079 -1.855,2.936 -1.953,3.212 -2.062,3.521 -2.007,4.008 -2.005,4.334 -2.003,4.71 -1.631,4.655 -1.311,4.72 -0.339,4.919 0.634,5.118 1.615,5.274 1.849,5.311 2.088,5.336 2.321,5.382 2.492,5.417 2.577,5.461 2.524,5.253 2.443,4.936 2.233,4.656 2.096,4.362 1.909,3.962 1.659,3.685 1.376,3.275 1.059,2.819 0.689,2.308 0.262,1.86 0.166,1.76 -0.019,1.512 -0.183,1.467 -0.358,1.42 -0.571,1.49 -0.741,1.406 -1.013,1.272 -0.647,1.143 -0.521,1.099 -0.174,0.977 0.23,0.8 0.609,0.942 c 0.39,0.147 0.78,0.48 1.101,0.744 0.63,0.518 1.212,1.095 1.735,1.72 0.257,0.308 0.5,0.626 0.728,0.956 0.106,0.152 0.18,0.231 0.315,0.341 C 4.591,4.787 4.653,4.834 4.686,4.974 4.759,5.285 4.529,5.449 4.365,5.661 4.174,5.909 4.188,6.32 3.878,6.505 3.675,6.625 3.381,6.609 3.162,6.569 2.888,6.519 -0.831,5.73 -1.336,5.607 -1.664,5.527 -1.856,5.448 -1.92,5.876 c -0.055,0.368 -0.084,0.693 0.014,1.054 0.082,0.305 0.158,0.255 0.441,0.261 0.188,0.004 0.379,0.004 0.566,0.026 0.368,0.043 -0.603,1.107 -0.669,1.234 -0.156,0.301 -0.003,0.712 -0.047,1.033 -0.061,0.457 0.004,0.986 0.103,1.439 0.059,0.273 0.071,0.557 0.035,0.835 -0.018,0.143 -0.05,0.287 -0.122,0.413 -0.149,0.263 -0.454,0.408 -0.755,0.441 -0.072,0.008 -0.144,0.01 -0.215,0.008 -0.29,-0.009 -0.573,-0.087 -0.858,-0.132 -0.262,-0.042 -0.609,-0.042 -0.804,-0.253 -0.209,-0.225 0.168,-0.488 0.327,-0.601 0.107,-0.075 0.245,-0.133 0.312,-0.245 0.069,-0.116 0.087,-0.309 0.114,-0.442 0.158,-0.772 0.103,-1.563 0.09,-2.346 C -3.395,8.182 -3.484,8.177 -3.851,8.07 -4.704,7.821 -5.616,7.643 -6.508,7.652 -6.567,7.653 -7.001,7.613 -6.995,7.598 -6.91,7.368 -6.411,7.078 -6.229,6.951 -6.013,6.8 -5.733,6.672 -5.423,6.576 c 0.481,-0.149 0.51,-0.11 1.041,0.059 0.425,0.134 0.68,0.177 1.002,0.177 0.037,0 -0.007,-1.071 -0.011,-1.155 C -3.413,5.111 -3.58,5.135 -4.095,5.019 -4.572,4.912 -5.052,4.822 -5.528,4.716 -5.813,4.653 -6.048,4.552 -6.367,4.454 -6.659,4.364 -7.224,4.102 -7.703,4.113 c 0,-0.031 0.719,-0.351 0.812,-0.393 0.258,-0.115 0.528,-0.177 0.734,-0.157 0.414,0.042 0.883,0.226 1.299,0.314 0.288,0.061 1,0.407 1.265,0.336 C -3.279,4.129 -3.414,3.541 -3.441,3.287 -3.458,3.117 -3.454,2.803 -3.548,2.657 -3.704,2.415 -4.182,2.41 -4.428,2.332 -4.873,2.19 -6.733,1.765 -6.733,1.362 c 0,-0.031 0.613,-0.108 0.662,-0.115 0.14,-0.022 0.271,-0.063 0.406,-0.092 0.191,-0.04 0.379,0.027 0.562,0.088 0.323,0.108 0.662,0.165 0.998,0.217 0.247,0.038 0.561,0.191 0.638,-0.122 C -3.426,1.176 -3.456,1.037 -3.453,0.874 -3.448,0.587 -3.484,0.344 -3.541,0.072 -3.548,0.034 -3.589,0.01 -3.628,0.009 -3.782,0.005 -3.926,0.024 -4.084,-0.008 -4.234,-0.038 -4.455,-0.045 -4.585,-0.131 -4.881,-0.25 -5.15,-0.424 -5.431,-0.572 -5.616,-0.67 -6.025,-0.953 -6.198,-0.691 c -0.06,0.09 -0.066,0.204 -0.078,0.311 -0.068,0.65 -0.373,1.248 -0.672,1.829 -0.069,0.134 -0.138,0.249 -0.227,0.368 -0.083,0.112 -0.119,0.243 -0.228,0.339 -0.115,0.101 -0.255,0.174 -0.4,0.223 -0.337,0.113 -0.709,0.143 -1.061,0.168 -0.147,0.01 -0.667,0.057 -0.657,-0.191 0.006,-0.16 0.21,-0.318 0.302,-0.435 0.147,-0.188 0.305,-0.372 0.416,-0.585 0.159,-0.305 0.367,-0.699 0.548,-1.004 0.173,-0.29 0.421,-0.723 0.719,-0.893 0.078,-0.045 0.18,-0.058 0.265,-0.09 0.074,-0.028 0.148,-0.066 0.208,-0.118 0.038,-0.033 0.062,-0.078 0.093,-0.117 0.025,-0.03 0.086,-0.062 0.091,-0.103 0.007,-0.074 -0.13,-0.095 -0.179,-0.108 -0.128,-0.034 -0.082,-0.163 0.011,-0.207 0.286,-0.133 0.717,-0.031 1.009,0.03 0.237,0.05 0.474,0.1 0.711,0.15 0.211,0.044 0.421,0.088 0.627,0.149 0.177,0.053 0.35,0.117 0.524,0.178 0.156,0.056 0.314,0.11 0.475,0.152 0.068,0.018 0.133,0.045 0.193,0.078 0.139,-0.254 0.056,-0.678 0.062,-0.96 0.008,-0.398 -0.499,-0.806 -0.735,-1.08 -0.303,-0.353 -0.616,-0.698 -0.936,-1.037 -0.632,-0.668 -1.292,-1.311 -1.963,-1.94 -0.279,-0.261 -0.566,-0.514 -0.86,-0.758 -0.147,-0.121 -0.295,-0.241 -0.446,-0.359 -0.027,-0.02 -0.329,-0.263 -0.313,-0.268 -0.119,0.039 -0.142,-0.076 -0.039,-0.118 0.051,-0.021 0.162,0.035 0.249,0.039 0.284,0.012 0.579,0.17 0.829,0.293 0.294,0.145 0.588,0.29 0.882,0.435 0.574,0.282 1.109,0.668 1.6,1.075 0.471,0.391 0.94,0.757 1.36,1.207 0.063,0.068 0.151,0.247 0.229,0.119 0.045,-0.074 0.004,-0.213 0.005,-0.295 0.005,-0.247 0.012,-0.493 0.019,-0.74 0.014,-0.479 0.031,-0.959 0.028,-1.439 -10e-4,-0.103 0.044,-0.578 -10e-4,-0.759 -0.124,-0.496 -0.898,-0.325 -1.257,-0.289 -0.333,0.034 -0.633,0.177 -0.977,0.14 -0.306,-0.032 0.099,-0.378 0.165,-0.454 0.402,-0.464 1.072,-0.843 1.625,-1.074 0.341,-0.143 0.854,-0.512 1.243,-0.375 0.156,0.055 0.249,0.204 0.283,0.358 0.039,0.176 0.088,0.348 0.109,0.53 0.025,0.23 0.061,0.452 0.07,0.684 0.029,0.781 0.058,1.563 0.065,2.345 0.007,0.762 -0.046,1.522 -0.044,2.283 10e-4,0.354 -0.009,0.629 0.236,0.908 0.192,0.219 0.441,0.381 0.631,0.603 0.258,0.3 0.529,0.614 0.8,0.885 C -0.392,-0.41 -0.193,-0.143 0,0" /></g><g
           transform="translate(75.0074,136.5037)"
           id="g268"><path
             id="path270"
             style="fill:#231815;fill-opacity:1;fill-rule:evenodd;stroke:none"
             d="m 0,0 c -0.081,0.262 -0.195,0.521 -0.408,0.702 -0.486,0.413 -1.151,0.572 -1.751,0.756 -0.691,0.213 -1.394,0.389 -2.103,0.532 -0.149,0.03 -0.3,0.051 -0.451,0.072 -0.121,0.017 -1.19,0.096 -1.206,0.189 0.078,-0.464 0.884,-0.97 1.284,-1.126 0.559,-0.218 1.01,-0.495 1.52,-0.695 0.166,-0.064 0.913,-0.26 0.995,-0.406 0.338,-0.597 -1.22,-1.126 -1.411,-1.598 0.114,-0.043 0.238,-0.013 0.354,0.015 0.374,0.087 0.735,0.113 1.099,0.243 0.632,0.226 1.284,0.455 1.899,0.725 C 0.137,-0.453 0.095,-0.307 0,0" /></g><g
           transform="translate(85.0791,140.7115)"
           id="g272"><path
             id="path274"
             style="fill:#231815;fill-opacity:1;fill-rule:evenodd;stroke:none"
             d="M 0,0 C 0.028,-0.006 0.058,-0.011 0.085,-0.002 0.154,0.019 0.251,0.155 0.309,0.207 0.436,0.321 0.562,0.435 0.68,0.559 1.009,0.908 1.312,1.304 1.602,1.687 1.71,1.83 2.311,2.551 1.802,2.489 1.323,2.43 0.886,2.157 0.528,1.852 0.243,1.609 -0.125,1.316 -0.521,1.345 -0.629,1.353 -1.003,1.31 -0.887,1.5 c 0.192,0.314 0.469,0.591 0.676,0.9 0.239,0.357 0.458,0.728 0.639,1.118 0.255,0.548 0.487,1.104 0.662,1.684 0.175,0.58 0.312,1.17 0.47,1.755 0.082,0.304 0.112,0.622 0.208,0.919 0.044,0.138 0.038,0.4 0.162,0.495 C 2.083,8.489 2.34,8.45 2.519,8.483 2.768,8.53 3.021,8.579 3.274,8.621 3.831,8.712 4.385,8.826 4.923,8.998 5.242,9.099 5.542,9.215 5.865,9.289 6.136,9.352 6.438,9.587 6.367,9.903 6.312,10.145 6.028,10.248 5.862,10.405 5.594,10.66 5.627,10.672 5.391,10.482 5.323,10.427 5.33,10.34 5.252,10.26 5.172,10.178 5.207,10.279 5.058,10.204 4.516,9.932 3.939,9.775 3.344,9.642 3.072,9.582 2.665,9.378 2.388,9.496 2.052,9.64 2.129,10.353 2.185,10.648 2.238,10.931 2.568,11.291 2.318,11.565 2.285,11.601 2.232,11.611 2.184,11.617 1.946,11.65 1.705,11.666 1.464,11.665 1.39,11.665 1.07,11.713 1.01,11.673 0.884,11.591 0.97,11.034 0.975,10.913 0.988,10.601 1.009,10.288 1.036,9.977 1.051,9.814 1.143,9.512 1.019,9.372 0.874,9.207 0.402,9.209 0.198,9.175 -0.452,9.066 -1.113,8.995 -1.772,9.044 -2.389,9.09 -2.015,8.424 -1.721,8.228 -1.463,8.057 -1.138,8.03 -0.838,8.037 -0.527,8.044 -0.23,8.101 0.074,8.136 0.384,8.172 0.862,8.346 0.883,7.929 0.904,7.519 0.726,7.159 0.65,6.767 0.521,6.102 0.379,5.485 0.151,4.964 -0.192,4.181 -0.547,3.42 -1.014,2.719 -1.089,2.606 -1.28,2.451 -1.374,2.358 -1.528,2.206 -1.495,2.12 -1.701,2.018 -1.836,1.952 -2.027,2.049 -2.193,1.959 -2.268,1.918 -2.308,1.848 -2.375,1.797 -2.354,1.73 -2.272,1.71 -2.204,1.689 -1.963,1.616 -1.78,1.422 -1.61,1.236 -1.15,0.734 -0.707,0.144 0,0" /></g><g
           transform="translate(96.6794,145.9987)"
           id="g276"><path
             id="path278"
             style="fill:#231815;fill-opacity:1;fill-rule:evenodd;stroke:none"
             d="M 0,0 C -0.011,0.039 -0.036,0.073 -0.06,0.105 -0.282,0.393 -0.58,0.724 -0.879,0.934 -1.157,1.128 -1.449,0.98 -1.731,0.879 -2.341,0.661 -2.949,0.568 -3.572,0.399 -4.276,0.207 -4.98,0.016 -5.684,-0.176 -6.237,-0.327 -6.803,-0.424 -7.36,-0.557 -7.623,-0.62 -8.078,-0.704 -8.278,-0.889 c -0.415,-0.384 0.211,-0.428 0.589,-0.506 0.728,-0.152 1.385,-0.066 2.122,0.074 0.485,0.092 3.653,1.086 3.758,0.505 0.02,-0.11 -0.038,-0.266 -0.043,-0.379 -0.01,-0.211 0.002,-0.424 -0.004,-0.636 -0.01,-0.409 -0.037,-0.818 -0.076,-1.225 -0.079,-0.817 -0.21,-1.628 -0.367,-2.433 -0.07,-0.354 -0.145,-0.708 -0.223,-1.06 -0.155,-0.692 -0.324,-1.387 -0.627,-2.028 -0.109,-0.231 -0.24,-0.452 -0.433,-0.623 -0.221,-0.198 -0.492,-0.183 -0.777,-0.199 -0.275,-0.016 -0.551,-0.026 -0.827,-0.022 -0.172,0.002 -0.345,0.01 -0.517,0.027 -0.155,0.016 -0.282,0.05 -0.434,0.019 -0.054,-0.011 -0.194,-0.005 -0.217,-0.064 -0.025,-0.064 0.073,-0.133 0.111,-0.167 0.261,-0.229 0.58,-0.38 0.838,-0.614 0.484,-0.442 0.939,-0.932 1.386,-1.359 0.135,-0.129 0.235,-0.365 0.408,-0.448 0.543,-0.26 1.338,1.26 1.534,1.614 1.165,2.112 1.445,4.769 1.738,7.103 0.131,1.039 0.108,2.117 0.329,3.139 C 0.003,-0.115 0.016,-0.056 0,0" /></g><g
           transform="translate(88.416,140.9579)"
           id="g280"><path
             id="path282"
             style="fill:#231815;fill-opacity:1;fill-rule:evenodd;stroke:none"
             d="M 0,0 C 0.545,0.335 1.171,0.505 1.776,0.694 1.874,0.724 2.107,0.79 2.057,0.94 2.017,1.058 1.747,1.07 1.644,1.086 1.328,1.136 1.038,1.152 0.72,1.074 0.531,1.027 0.369,0.89 0.182,0.828 -0.063,0.745 -0.461,0.498 -0.716,0.603 c -0.203,0.084 -0.034,0.188 0.053,0.271 0.148,0.141 0.319,0.274 0.43,0.448 0.234,0.367 0.573,0.757 0.748,1.109 0.3,0.603 -0.662,0.762 -1.15,0.762 -0.065,0.04 0.001,-0.184 0,-0.333 C -0.638,2.607 -0.818,2.412 -0.913,2.167 -1.1,1.684 -1.303,1.37 -1.55,0.948 -1.663,0.756 -1.828,0.51 -1.966,0.282 c -0.325,-0.535 -1.122,-0.769 -1.696,-0.891 -0.247,-0.053 -0.549,-0.038 -0.766,-0.18 -0.331,-0.216 0.064,-0.489 0.278,-0.603 0.259,-0.137 0.554,-0.207 0.846,-0.197 0.412,0.014 0.751,0.232 1.04,0.501 0.235,0.219 0.602,0.264 0.728,-0.099 0.129,-0.374 0.041,-0.775 0.041,-1.109 -0.196,0.065 -0.564,-0.213 -0.745,-0.29 -0.289,-0.123 -0.573,-0.259 -0.869,-0.365 -0.349,-0.124 -0.664,-0.304 -1.005,-0.446 -0.262,-0.109 -0.068,-0.253 0.106,-0.342 0.381,-0.193 0.926,-0.096 1.321,0.015 0.331,0.093 0.636,0.266 0.969,0.347 0.047,0.012 0.096,0.022 0.144,0.012 0.198,-0.04 0.072,-0.354 0.065,-0.484 -0.01,-0.22 -0.023,-0.547 -0.027,-0.721 -0.021,-0.783 -0.138,-1.532 -0.27,-2.294 -0.055,-0.316 -0.129,-0.611 -0.207,-0.921 -0.085,-0.336 0.271,-0.335 0.484,-0.21 0.289,0.168 0.386,0.659 0.498,0.955 0.159,0.418 0.302,0.843 0.42,1.275 0.226,0.819 0.38,1.676 0.335,2.528 -0.019,0.343 -0.129,0.655 0.291,0.771 0.282,0.078 0.554,0.192 0.833,0.286 0.067,0.022 0.134,0.044 0.203,0.06 0.078,0.017 0.16,0.026 0.229,0.065 0.436,0.242 -0.312,0.694 -0.529,0.729 C 0.417,-1.272 0.239,-1.475 -0.019,-1.632 -0.337,-1.826 -0.321,-1.814 -0.37,-1.493 -0.45,-0.964 -0.523,-0.321 0,0" /></g><g
           transform="translate(81.6467,138.9557)"
           id="g284"><path
             id="path286"
             style="fill:#231815;fill-opacity:1;fill-rule:evenodd;stroke:none"
             d="m 0,0 c -0.069,0.439 -0.085,0.885 -0.087,1.329 -0.001,0.32 0.008,0.642 0.012,0.962 0.003,0.232 0.062,0.503 -0.038,0.722 C -0.158,3.112 -0.265,3.195 -0.346,3.262 -0.461,3.358 -0.538,3.49 -0.636,3.601 -0.724,3.7 -0.827,3.789 -0.909,3.893 -0.946,3.939 -1.003,3.992 -1.066,3.999 -1.094,4.001 -1.123,3.995 -1.152,3.974 -1.207,3.934 -1.198,3.85 -1.182,3.783 -1.149,3.639 -1.176,3.481 -1.178,3.335 -1.182,3.038 -1.193,2.723 -1.243,2.43 -1.326,1.961 -1.442,1.499 -1.557,1.038 -1.585,0.926 -1.613,0.815 -1.64,0.703 c -0.169,-0.7 -0.128,-1.426 0.242,-2.056 0.233,-0.397 0.685,-1.11 1.182,-1.193 0.87,-0.145 0.577,1.224 0.427,1.673 C 0.116,-0.588 0.046,-0.296 0,0" /></g><g
           transform="translate(113.3406,143.7862)"
           id="g288"><path
             id="path290"
             style="fill:#231815;fill-opacity:1;fill-rule:evenodd;stroke:none"
             d="M 0,0 C 0.564,0.24 1.13,0.509 1.714,0.703 1.953,0.782 2.198,0.848 2.449,0.872 2.633,0.889 2.93,0.806 3.065,0.929 3.5,1.329 2.737,2.437 2.477,2.748 2.125,3.169 1.889,3.032 1.48,2.774 1.147,2.564 0.834,2.325 0.481,2.149 -0.038,1.89 -0.575,1.683 -1.115,1.467 -1.494,1.316 -1.811,1.227 -2.206,1.126 -2.529,1.044 -2.856,0.977 -3.182,0.912 -3.756,0.796 -3.981,0.667 -4.049,1.33 -4.135,2.175 -4.145,3.023 -4.151,3.871 -4.153,4.207 -4.155,4.543 -4.16,4.879 c -0.014,0.83 -0.084,1.663 -0.08,2.493 0,0.149 0.048,0.409 0.08,0.554 0.103,0.463 0.288,0.506 -0.193,0.754 C -4.723,8.87 -4.944,8.752 -5.3,8.611 -5.358,8.585 -5.326,7.311 -5.331,7.178 -5.361,6.328 -5.225,5.483 -5.304,4.645 -5.395,3.679 -5.331,2.692 -5.374,1.722 -5.389,1.396 -5.269,0.853 -5.496,0.576 -5.692,0.337 -6.147,0.444 -6.413,0.416 -6.863,0.368 -7.316,0.351 -7.768,0.365 -8.222,0.379 -8.671,0.276 -9.13,0.274 -9.197,0.273 -9.263,0.276 -9.328,0.281 l 0.053,-0.19 c 0.473,-0.321 1.011,-0.602 1.55,-0.791 0.559,-0.196 1.149,-0.35 1.741,-0.439 0.161,-0.024 0.415,-0.004 0.497,-0.178 0.096,-0.203 -0.055,-0.426 -0.096,-0.623 -0.121,-0.577 -0.237,-1.156 -0.408,-1.722 -0.147,-0.489 -0.312,-0.973 -0.497,-1.45 -0.174,-0.448 -0.514,-0.843 -0.784,-1.242 -0.631,-0.933 -1.484,-1.624 -2.593,-1.881 -0.105,-0.024 -0.219,-0.054 -0.283,-0.14 -0.067,-0.089 -0.059,-0.219 -0.003,-0.315 0.055,-0.096 0.151,-0.163 0.251,-0.212 0.19,-0.093 0.403,-0.127 0.612,-0.161 1.102,-0.175 2.454,-0.46 3.382,0.342 0.19,0.164 0.598,0.571 0.659,0.812 0.404,1.61 0.683,3.25 0.833,4.902 0.037,0.413 0.063,0.827 0.088,1.241 0.008,0.133 -0.028,0.372 0.092,0.466 0.146,0.114 0.455,0.041 0.618,0.042 0.627,0.002 1.254,0.15 1.817,0.425 0.263,0.129 0.475,0.287 0.749,0.385 0.356,0.128 0.702,0.3 1.05,0.448" /></g><g
           transform="translate(115.9603,136.8355)"
           id="g292"><path
             id="path294"
             style="fill:#231815;fill-opacity:1;fill-rule:evenodd;stroke:none"
             d="m 0,0 c -0.15,0.224 -0.304,0.43 -0.442,0.61 -0.684,0.892 -1.634,1.602 -2.72,1.918 -0.109,0.032 -0.839,0.12 -0.871,0.183 0,0 0.303,-0.172 0.108,-0.168 0.152,-0.277 0.374,-0.519 0.545,-0.785 0.199,-0.309 0.395,-0.62 0.58,-0.937 0.239,-0.413 0.472,-0.87 0.619,-1.326 0.133,-0.412 0.187,-0.841 0.402,-1.232 0.24,-0.435 0.747,-0.741 1.228,-0.799 0.348,-0.042 1.148,-0.338 1.293,0.196 C 0.82,-2.051 0.69,-1.521 0.613,-1.238 0.492,-0.792 0.255,-0.381 0,0" /></g><g
           transform="translate(103.6597,143.7166)"
           id="g296"><path
             id="path298"
             style="fill:#231815;fill-opacity:1;fill-rule:evenodd;stroke:none"
             d="M 0,0 C 0.185,0.164 0.074,0.427 -0.098,0.539 -0.288,0.663 -0.512,0.709 -0.731,0.746 -0.885,0.772 -1.04,0.72 -1.141,0.593 -1.195,0.525 -1.207,0.454 -1.28,0.409 -1.346,0.368 -1.47,0.378 -1.496,0.288 -1.513,0.229 -1.462,0.173 -1.411,0.138 -1.236,0.019 -1.061,0.031 -0.862,0 -0.711,-0.024 -0.556,-0.036 -0.404,-0.029 -0.289,-0.023 -0.09,-0.08 0,0" /></g><g
           transform="translate(100,3.7535)"
           id="g300"><path
             id="path302"
             style="fill:#231815;fill-opacity:1;fill-rule:nonzero;stroke:none"
             d="m 0,0 c -53.155,0 -96.247,43.091 -96.247,96.246 0,53.156 43.092,96.247 96.247,96.247 53.155,0 96.247,-43.091 96.247,-96.247 C 96.247,43.091 53.155,0 0,0 m 0,196.247 c -55.228,0 -100,-44.772 -100,-100.001 0,-55.228 44.772,-100 100,-100 55.228,0 100,44.772 100,100 0,55.229 -44.772,100.001 -100,100.001" /></g></g></g></g></svg>