<?xml version="1.0" encoding="UTF-8" standalone="no"?>
<!-- Generator: Adobe Illustrator 15.0.0, SVG Export Plug-In . SVG Version: 6.00 Build 0)  -->

<svg
   version="1.1"
   id="图层_1"
   x="0px"
   y="0px"
   width="283.46799"
   height="283.46399"
   viewBox="0 0 283.46798 283.464"
   xml:space="preserve"
   xmlns="http://www.w3.org/2000/svg"
   xmlns:svg="http://www.w3.org/2000/svg"><defs
   id="defs98">
	
	
	
	
	
	
	
	
	
	
	
	
	
	
	
	
	
	
	
	
	
	
	
	
	
	
	
	
	
	
	
	
	
	
	
	
	
	
	
	
	
	
	
	
	
	
	
	
	
		
	
	
	
	
	
	
	
		
	
	
	
	
	
	
	
	
	
	
	
	
	
	
	
	
	
	
	
	
	
	
	
	
	
	
	
	
	
	
	
	
	
	
	
	
	
	
	
	
	
	
	
	
	
	
	
	
	
		
	
	
	
	
	
	
	
	
	
	
	
	
	
	
	
	
	
	
	
	
	
	
</defs>
<path
   style="fill:#9d0a12"
   d="M 141.733,0 C 63.58,0 0,63.583 0,141.731 c 0,78.151 63.58,141.733 141.733,141.733 78.155,0 141.735,-63.582 141.735,-141.733 C 283.468,63.583 219.888,0 141.733,0 m 0,278.91 C 66.09,278.91 4.559,217.373 4.559,141.731 4.559,66.094 66.09,4.559 141.733,4.559 c 75.642,0 137.183,61.535 137.183,137.172 0,75.642 -61.541,137.179 -137.183,137.179"
   id="path32" /><polygon
   style="fill:#9d0a12"
   points="248.954,157.513 258.881,152.25 265.76,152.781 266.01,149.492 259.151,148.97 250.123,142.23 249.833,146.029 256.011,150.296 249.254,153.644 "
   id="polygon32" /><polygon
   style="fill:#9d0a12"
   points="249.688,167.06 262.985,169.984 263.691,166.755 250.394,163.83 251.435,159.093 248.729,158.494 245.93,171.212 248.637,171.812 "
   id="polygon33" /><polygon
   style="fill:#9d0a12"
   points="244.009,176.736 259.584,181.832 260.614,178.691 245.04,173.583 "
   id="polygon34" /><path
   style="fill:#9d0a12"
   d="m 253.652,184.654 c -0.941,-0.422 -1.828,-0.58 -2.647,-0.473 -0.822,0.109 -1.576,0.434 -2.262,0.973 -0.691,0.531 -1.531,1.455 -2.54,2.77 -1.006,1.314 -1.754,2.086 -2.248,2.33 -0.386,0.184 -0.756,0.195 -1.112,0.035 -0.386,-0.176 -0.62,-0.469 -0.709,-0.896 -0.137,-0.658 -0.01,-1.424 0.389,-2.303 0.377,-0.848 0.834,-1.41 1.358,-1.686 0.529,-0.273 1.208,-0.303 2.034,-0.084 l 1.223,-3.08 c -1.395,-0.568 -2.709,-0.563 -3.962,0.012 -1.249,0.582 -2.291,1.811 -3.137,3.684 -0.517,1.154 -0.786,2.211 -0.804,3.178 -0.024,0.969 0.204,1.816 0.676,2.553 0.47,0.725 1.081,1.264 1.841,1.604 1.184,0.527 2.389,0.527 3.626,-0.025 0.882,-0.391 1.882,-1.305 3.016,-2.742 0.875,-1.115 1.454,-1.824 1.735,-2.123 0.419,-0.432 0.796,-0.699 1.137,-0.797 0.339,-0.094 0.686,-0.064 1.042,0.098 0.549,0.248 0.92,0.711 1.113,1.391 0.187,0.68 0.062,1.504 -0.374,2.477 -0.416,0.918 -0.974,1.537 -1.68,1.871 -0.701,0.334 -1.588,0.371 -2.656,0.1 l -1.033,3.063 c 1.757,0.559 3.307,0.523 4.636,-0.094 1.326,-0.623 2.416,-1.883 3.271,-3.77 0.582,-1.295 0.888,-2.457 0.917,-3.492 0.026,-1.037 -0.229,-1.963 -0.76,-2.77 -0.535,-0.82 -1.232,-1.416 -2.09,-1.804"
   id="path34" /><path
   style="fill:#9d0a12"
   d="m 243.701,202.388 c -0.677,0.121 -1.38,0.367 -2.122,0.738 0.608,-1.32 0.771,-2.498 0.496,-3.543 -0.282,-1.041 -0.936,-1.898 -1.974,-2.564 -0.808,-0.527 -1.662,-0.799 -2.556,-0.805 -0.89,-0.008 -1.67,0.238 -2.35,0.746 -0.68,0.504 -1.493,1.496 -2.452,2.965 l -3.783,5.85 13.755,8.904 1.799,-2.777 -5.741,-3.715 0.365,-0.566 c 0.413,-0.639 0.766,-1.068 1.06,-1.297 0.294,-0.232 0.662,-0.377 1.116,-0.467 0.445,-0.082 1.434,-0.137 2.965,-0.15 l 4.294,-0.072 2.151,-3.32 -3.771,-0.061 c -1.492,-0.026 -2.584,0.013 -3.252,0.134 m -4.345,-0.287 c -0.101,0.406 -0.582,1.271 -1.448,2.605 l -1.329,2.053 -3.493,-2.256 1.406,-2.172 c 0.73,-1.119 1.182,-1.789 1.359,-1.998 0.368,-0.396 0.771,-0.631 1.214,-0.693 0.451,-0.063 0.902,0.053 1.365,0.355 0.409,0.268 0.697,0.586 0.852,0.947 0.151,0.368 0.175,0.751 0.074,1.159"
   id="path35" /><polygon
   style="fill:#9d0a12"
   points="225.601,219.572 222.885,217.158 228.758,210.548 226.687,208.707 218.615,217.787 230.863,228.675 239.148,219.361 237.083,217.527 231,224.371 227.664,221.402 233.129,215.253 231.064,213.421 "
   id="polygon35" /><polygon
   style="fill:#9d0a12"
   points="220.5,237.986 223.203,235.712 217.137,219.396 214.452,221.658 219.197,233.519 208.208,226.91 205.468,229.218 "
   id="polygon36" /><rect
   x="-321.18085"
   y="36.365807"
   transform="rotate(-124.07147)"
   style="fill:#9d0a12;stroke-width:0.999952"
   width="16.39122"
   height="3.3108428"
   id="rect36" /><polygon
   style="fill:#9d0a12"
   points="193.702,254.914 196.424,253.486 191.454,244.019 202.275,250.408 205.209,248.865 197.592,234.355 194.872,235.787 199.961,245.476 188.934,238.906 186.081,240.404 "
   id="polygon37" /><path
   style="fill:#9d0a12"
   d="m 182.366,241.986 -3.132,1.059 2.895,8.59 c 0.417,1.234 0.667,2.125 0.754,2.686 0.085,0.559 -0.035,1.098 -0.365,1.611 -0.33,0.516 -0.938,0.928 -1.826,1.223 -0.874,0.299 -1.631,0.336 -2.266,0.125 -0.636,-0.215 -1.128,-0.611 -1.476,-1.205 -0.215,-0.371 -0.54,-1.223 -0.989,-2.559 l -2.842,-8.41 -3.137,1.059 2.8,8.283 c 0.583,1.74 1.134,3.021 1.634,3.84 0.345,0.549 0.83,1.027 1.459,1.426 0.629,0.395 1.386,0.635 2.271,0.717 0.881,0.086 2.066,-0.121 3.543,-0.623 1.231,-0.412 2.174,-0.908 2.83,-1.48 0.655,-0.57 1.121,-1.199 1.4,-1.879 0.276,-0.686 0.371,-1.439 0.283,-2.268 -0.095,-0.828 -0.457,-2.172 -1.086,-4.039 z"
   id="path37" /><polygon
   style="fill:#9d0a12"
   points="146.279,249.806 147.955,266.111 151.243,265.775 150.509,258.64 156.961,257.978 157.693,265.107 160.989,264.771 159.313,248.466 156.016,248.806 156.678,255.222 150.227,255.886 149.567,249.47 "
   id="polygon38" /><path
   style="fill:#9d0a12"
   d="m 132.955,253.253 c 0.806,-0.828 1.812,-1.213 3.023,-1.148 0.879,0.049 1.61,0.332 2.199,0.855 0.588,0.527 0.954,1.219 1.101,2.078 l 3.315,-0.605 c -0.305,-1.33 -0.809,-2.363 -1.514,-3.107 -1.188,-1.246 -2.78,-1.924 -4.779,-2.033 -2.294,-0.125 -4.182,0.531 -5.675,1.965 -1.484,1.43 -2.3,3.508 -2.445,6.227 -0.141,2.582 0.447,4.645 1.768,6.205 1.319,1.561 3.067,2.396 5.236,2.516 1.757,0.092 3.23,-0.26 4.419,-1.064 1.191,-0.809 2.079,-2.09 2.665,-3.855 l -3.148,-1.188 c -0.337,1.184 -0.842,2.039 -1.503,2.568 -0.667,0.521 -1.436,0.76 -2.313,0.709 -1.188,-0.063 -2.131,-0.549 -2.827,-1.469 -0.701,-0.918 -0.992,-2.414 -0.881,-4.482 0.106,-1.955 0.555,-3.34 1.359,-4.172"
   id="path38" /><polygon
   style="fill:#9d0a12"
   points="115.059,255.869 123.114,257.542 123.678,254.835 115.622,253.166 116.36,249.603 125.018,251.402 125.583,248.687 113.689,246.214 110.349,262.261 122.554,264.798 123.114,262.095 114.151,260.232 "
   id="polygon39" /><polygon
   style="fill:#9d0a12"
   points="100.951,259.287 105.57,246.482 110.134,248.128 111.075,245.515 98.823,241.095 97.88,243.707 102.457,245.357 97.834,258.166 "
   id="polygon40" /><rect
   x="-190.61217"
   y="-191.10417"
   transform="rotate(-154.43172)"
   style="fill:#9d0a12;stroke-width:1.00003"
   width="3.3081043"
   height="16.392517"
   id="rect40" /><path
   style="fill:#9d0a12"
   d="m 68.774,242.884 2.98,1.861 3.114,-2.441 5.556,3.465 -0.754,3.918 3.054,1.904 3.116,-17.375 -2.977,-1.855 z m 12.216,-0.019 -3.796,-2.369 5.101,-3.982 z"
   id="path40" /><polygon
   style="fill:#9d0a12"
   points="65.827,218.951 55.086,231.332 57.588,233.498 62.283,228.082 67.181,232.33 62.484,237.746 64.985,239.912 75.721,227.537 73.226,225.363 68.993,230.24 64.101,225.988 68.332,221.117 "
   id="polygon41" /><path
   style="fill:#9d0a12"
   d="m 52.844,215.798 -2.122,1.77 2.427,2.914 -1.6,1.332 c -0.619,-0.139 -1.254,-0.383 -1.911,-0.748 -0.653,-0.361 -1.201,-0.813 -1.647,-1.344 -0.899,-1.074 -1.245,-2.256 -1.051,-3.547 0.194,-1.285 1.039,-2.549 2.537,-3.793 1.39,-1.154 2.704,-1.697 3.954,-1.629 1.253,0.072 2.34,0.666 3.268,1.771 0.607,0.734 0.939,1.494 0.984,2.285 0.052,0.787 -0.161,1.529 -0.633,2.221 l 2.572,2.133 c 0.95,-1.213 1.389,-2.533 1.31,-3.959 -0.072,-1.426 -0.763,-2.92 -2.063,-4.482 -1,-1.205 -2.045,-2.037 -3.138,-2.496 -1.424,-0.605 -2.875,-0.764 -4.351,-0.467 -1.48,0.303 -2.875,0.998 -4.184,2.086 -1.214,1.004 -2.128,2.182 -2.745,3.529 -0.624,1.35 -0.793,2.742 -0.534,4.182 0.261,1.441 0.941,2.818 2.035,4.139 0.864,1.037 1.911,1.896 3.149,2.58 1.229,0.688 2.323,1.08 3.288,1.188 l 5.02,-4.18 z"
   id="path41" /><polygon
   style="fill:#9d0a12"
   points="30.805,198.773 32.361,201.423 41.581,196.019 35.704,207.125 37.381,209.986 51.521,201.703 49.965,199.046 40.523,204.583 46.571,193.263 44.945,190.484 "
   id="polygon42" /><path
   style="fill:#9d0a12"
   d="m 40.155,179.072 -17.592,0.018 1.275,3.264 3.964,-0.09 2.378,6.105 -2.94,2.686 1.305,3.354 12.881,-12.072 z m -7.785,7.299 -1.627,-4.166 6.475,-0.15 z"
   id="path42" /><polygon
   style="fill:#9d0a12"
   points="34.522,158.093 18.508,161.568 19.21,164.796 26.212,163.277 27.589,169.609 20.581,171.132 21.285,174.371 37.298,170.892 36.599,167.658 30.295,169.029 28.926,162.695 35.225,161.324 "
   id="polygon43" /><path
   style="fill:#9d0a12"
   d="m 19.805,154.914 c 0.848,0.469 1.74,0.678 2.683,0.617 1.034,-0.064 1.888,-0.336 2.565,-0.813 0.671,-0.48 1.191,-1.115 1.55,-1.912 0.355,-0.797 0.678,-2.012 0.957,-3.645 0.28,-1.623 0.58,-2.658 0.906,-3.094 0.252,-0.348 0.574,-0.525 0.96,-0.555 0.426,-0.031 0.771,0.129 1.048,0.469 0.426,0.51 0.669,1.252 0.729,2.211 0.062,0.928 -0.081,1.637 -0.423,2.127 -0.34,0.48 -0.923,0.822 -1.754,1.018 l 0.348,3.301 c 1.502,-0.152 2.665,-0.77 3.503,-1.863 0.837,-1.09 1.191,-2.668 1.062,-4.717 -0.076,-1.258 -0.331,-2.326 -0.766,-3.188 -0.432,-0.863 -1.03,-1.507 -1.781,-1.94 -0.76,-0.424 -1.55,-0.617 -2.383,-0.561 -1.294,0.08 -2.363,0.649 -3.199,1.712 -0.597,0.754 -1.058,2.029 -1.383,3.816 -0.261,1.4 -0.443,2.303 -0.554,2.697 -0.17,0.58 -0.377,0.988 -0.635,1.232 -0.258,0.244 -0.583,0.373 -0.966,0.4 -0.605,0.039 -1.146,-0.199 -1.633,-0.713 -0.483,-0.51 -0.76,-1.297 -0.82,-2.359 -0.063,-1.008 0.14,-1.822 0.608,-2.441 0.468,-0.621 1.236,-1.061 2.306,-1.324 l -0.513,-3.195 c -1.818,0.329 -3.17,1.08 -4.058,2.249 -0.884,1.163 -1.264,2.784 -1.136,4.849 0.084,1.422 0.358,2.594 0.814,3.52 0.46,0.934 1.116,1.631 1.965,2.102"
   id="path43" /><rect
   x="101.384"
   y="157.94501"
   style="fill:#9d0a12"
   width="2.2820001"
   height="15.061"
   id="rect43" /><rect
   x="106.285"
   y="153.679"
   style="fill:#9d0a12"
   width="2.2869999"
   height="16.806999"
   id="rect44" /><rect
   x="116.083"
   y="147.98801"
   style="fill:#9d0a12"
   width="2.2850001"
   height="18.096001"
   id="rect45" /><rect
   x="111.188"
   y="150.70799"
   style="fill:#9d0a12"
   width="2.2850001"
   height="17.48"
   id="rect46" /><rect
   x="120.992"
   y="145.98199"
   style="fill:#9d0a12"
   width="2.2820001"
   height="18.719"
   id="rect47" /><rect
   x="125.88"
   y="144.42599"
   style="fill:#9d0a12"
   width="2.2820001"
   height="18.964001"
   id="rect48" /><rect
   x="96.476997"
   y="162.62601"
   style="fill:#9d0a12"
   width="2.2850001"
   height="13.529"
   id="rect49" /><rect
   x="91.585999"
   y="169.16701"
   style="fill:#9d0a12"
   width="2.2820001"
   height="10.449"
   id="rect50" /><rect
   x="86.676003"
   y="176.039"
   style="fill:#9d0a12"
   width="2.2850001"
   height="7.5370002"
   id="rect51" /><rect
   x="81.779999"
   y="181.541"
   style="fill:#9d0a12"
   width="2.286"
   height="5.2459998"
   id="rect52" /><rect
   x="76.880997"
   y="185.605"
   style="fill:#9d0a12"
   width="2.2820001"
   height="3.8280001"
   id="rect53" /><rect
   x="71.983002"
   y="189.054"
   style="fill:#9d0a12"
   width="2.2820001"
   height="2.8180001"
   id="rect54" /><rect
   x="179.806"
   y="157.94501"
   style="fill:#9d0a12"
   width="2.2820001"
   height="15.061"
   id="rect55" /><rect
   x="174.895"
   y="153.673"
   style="fill:#9d0a12"
   width="2.2850001"
   height="16.813"
   id="rect56" /><rect
   x="165.105"
   y="147.98801"
   style="fill:#9d0a12"
   width="2.2820001"
   height="18.096001"
   id="rect57" /><rect
   x="169.99699"
   y="150.70799"
   style="fill:#9d0a12"
   width="2.2850001"
   height="17.48"
   id="rect58" /><rect
   x="160.19299"
   y="145.98199"
   style="fill:#9d0a12"
   width="2.2820001"
   height="18.719"
   id="rect59" /><rect
   x="155.28799"
   y="144.42599"
   style="fill:#9d0a12"
   width="2.286"
   height="18.964001"
   id="rect60" /><rect
   x="184.69901"
   y="162.63"
   style="fill:#9d0a12"
   width="2.2850001"
   height="13.529"
   id="rect61" /><rect
   x="189.60001"
   y="169.16701"
   style="fill:#9d0a12"
   width="2.2820001"
   height="10.449"
   id="rect62" /><rect
   x="194.505"
   y="176.039"
   style="fill:#9d0a12"
   width="2.2820001"
   height="7.5370002"
   id="rect63" /><rect
   x="199.41299"
   y="181.541"
   style="fill:#9d0a12"
   width="2.283"
   height="5.2459998"
   id="rect64" /><rect
   x="204.30099"
   y="185.605"
   style="fill:#9d0a12"
   width="2.2820001"
   height="3.8280001"
   id="rect65" /><rect
   x="209.202"
   y="189.054"
   style="fill:#9d0a12"
   width="2.2820001"
   height="2.8180001"
   id="rect66" /><path
   style="fill:#9d0a12"
   d="m 126.532,218.57 c 0.794,-0.717 1.331,-1.271 1.639,-1.652 0.455,-0.59 0.789,-1.139 1,-1.674 0.209,-0.533 0.316,-1.088 0.316,-1.674 0,-1.039 -0.371,-1.902 -1.104,-2.588 -0.74,-0.699 -1.746,-1.041 -3.036,-1.041 -1.169,0 -2.154,0.293 -2.932,0.893 -0.783,0.605 -1.256,1.588 -1.398,2.963 l 2.489,0.242 c 0.046,-0.721 0.226,-1.242 0.535,-1.555 0.311,-0.32 0.726,-0.469 1.245,-0.469 0.523,0 0.942,0.145 1.24,0.451 0.302,0.299 0.45,0.715 0.45,1.279 0,0.504 -0.171,1.012 -0.517,1.533 -0.252,0.369 -0.945,1.084 -2.07,2.135 -1.4,1.287 -2.34,2.336 -2.813,3.125 -0.475,0.787 -0.757,1.617 -0.852,2.492 h 8.763 v -2.32 h -4.964 c 0.128,-0.225 0.298,-0.453 0.511,-0.691 0.21,-0.238 0.709,-0.713 1.498,-1.449"
   id="path66" /><path
   style="fill:#9d0a12"
   d="m 137.269,209.941 c -1.268,0 -2.248,0.436 -2.956,1.33 -0.852,1.086 -1.278,2.854 -1.278,5.303 0,2.502 0.389,4.244 1.166,5.221 0.771,0.979 1.798,1.459 3.068,1.459 1.265,0 2.25,-0.445 2.954,-1.33 0.852,-1.08 1.276,-2.859 1.276,-5.328 0,-2.461 -0.418,-4.238 -1.268,-5.311 -0.709,-0.905 -1.697,-1.344 -2.962,-1.344 m 1.359,9.914 c -0.128,0.508 -0.316,0.84 -0.551,1.039 -0.24,0.199 -0.511,0.285 -0.809,0.285 -0.303,0 -0.571,-0.086 -0.811,-0.281 -0.234,-0.188 -0.426,-0.574 -0.581,-1.148 -0.151,-0.574 -0.228,-1.621 -0.228,-3.154 0,-1.523 0.082,-2.613 0.256,-3.262 0.133,-0.496 0.313,-0.84 0.553,-1.027 0.233,-0.199 0.508,-0.291 0.811,-0.291 0.298,0 0.568,0.092 0.803,0.291 0.237,0.188 0.429,0.572 0.586,1.143 0.156,0.57 0.231,1.623 0.231,3.146 0.001,1.532 -0.086,2.618 -0.26,3.259"
   id="path67" /><path
   style="fill:#9d0a12"
   d="m 146.748,212.021 c -0.769,0.596 -1.473,1 -2.134,1.213 v 2.273 c 1.244,-0.414 2.322,-1.035 3.23,-1.893 v 9.416 h 2.505 v -13.09 h -2.026 c -0.287,0.8 -0.81,1.487 -1.575,2.081"
   id="path68" /><path
   style="fill:#9d0a12"
   d="m 160.278,216.027 c 1.255,-0.686 1.875,-1.6 1.875,-2.744 0,-0.807 -0.298,-1.535 -0.912,-2.172 -0.745,-0.781 -1.726,-1.174 -2.953,-1.174 -0.715,0 -1.365,0.137 -1.948,0.408 -0.571,0.27 -1.023,0.641 -1.346,1.104 -0.329,0.477 -0.565,1.107 -0.728,1.891 l 2.304,0.395 c 0.068,-0.561 0.243,-0.998 0.55,-1.301 0.305,-0.291 0.67,-0.439 1.102,-0.439 0.434,0 0.777,0.129 1.035,0.387 0.262,0.264 0.389,0.607 0.389,1.053 0,0.514 -0.176,0.92 -0.53,1.238 -0.356,0.314 -0.87,0.463 -1.551,0.441 l -0.271,2.037 c 0.44,-0.123 0.823,-0.188 1.148,-0.188 0.484,0 0.896,0.182 1.234,0.555 0.337,0.369 0.505,0.863 0.505,1.496 0,0.668 -0.174,1.193 -0.526,1.584 -0.352,0.387 -0.787,0.582 -1.307,0.582 -0.478,0 -0.887,-0.16 -1.229,-0.484 -0.334,-0.326 -0.543,-0.801 -0.623,-1.42 l -2.415,0.305 c 0.121,1.084 0.571,1.98 1.346,2.66 0.781,0.67 1.757,1.014 2.942,1.014 1.238,0 2.282,-0.406 3.12,-1.207 0.839,-0.809 1.256,-1.783 1.256,-2.932 0,-0.785 -0.223,-1.451 -0.665,-2.02 -0.454,-0.555 -1.051,-0.921 -1.802,-1.069"
   id="path69" /><path
   style="fill:#9d0a12"
   d="m 162.661,201.785 h -3.064 v -1.217 h -3.068 v -1.229 h -6.498 l 2.511,-13.543 c 0.049,-0.096 0.079,-0.197 0.079,-0.309 0,-0.125 -0.033,-0.244 -0.097,-0.346 l -3.039,-13.598 c 0,-0.006 0.003,-0.006 0.003,-0.012 0,-0.045 -0.018,-0.074 -0.025,-0.119 l 1.539,-9.057 h 1.683 V 143.264 H 150.4 v 7.323 l -1.449,-6.929 c 0.006,-0.039 0.022,-0.068 0.022,-0.102 0,-0.038 -0.031,-0.059 -0.037,-0.092 l 2.115,-13.726 c 0.012,-0.057 0.03,-0.106 0.03,-0.163 0,-0.057 -0.027,-0.104 -0.04,-0.157 -0.006,-0.018 -0.009,-0.035 -0.016,-0.054 -0.012,-0.035 -0.009,-0.083 -0.029,-0.118 l -2.58,-13.777 c 0,-0.006 -0.009,-0.006 -0.009,-0.012 l 1.835,-13.551 c 0.039,-0.089 0.064,-0.184 0.064,-0.284 0,-0.113 -0.028,-0.226 -0.081,-0.321 l -2.366,-13.592 c 0.003,-0.026 0.018,-0.047 0.018,-0.074 0,-0.021 -0.018,-0.032 -0.018,-0.044 l 1.688,-13.851 0.038,-0.766 h -6.582 l -0.616,-13.64 h -1.304 l -0.621,13.64 h -6.617 l 1.771,14.592 -2.413,13.937 c -0.006,0.023 0.003,0.048 0.003,0.071 -0.003,0.048 -0.019,0.089 -0.013,0.14 l 1.849,13.772 -2.596,13.89 c -0.006,0.012 -0.006,0.029 -0.009,0.041 l -0.007,0.029 c -0.003,0.013 0.003,0.024 0.003,0.042 -0.009,0.063 -0.024,0.125 -0.012,0.19 l 2.121,13.858 -1.461,7.013 v -7.288 h -2.282 v 19.091 h 1.649 l 1.544,9.117 c -0.003,0.014 -0.006,0.035 -0.006,0.053 l -3.085,13.818 c -0.01,0.037 0,0.082 0,0.123 0,0.049 -0.013,0.096 -0.006,0.143 l 2.543,13.729 h -6.51 v 1.229 h -3.063 v 1.217 H 120.8 v 1.369 h 41.86 v -1.365 z m -20.951,-42.68 5.941,11.742 H 135.79 Z m 0.009,-27.873 5.437,11.642 h -10.849 z m 4.437,-44.279 h -8.836 l 4.414,-11.401 z m -4.44,16.442 4.941,11.521 h -9.88 z m 0.012,83.538 6.719,12.406 h -13.443 z m 1.116,-2.123 1.972,-3.918 3.714,-7.348 2.522,11.266 z m -0.037,-27.949 5.182,-11.129 2.325,11.129 z m -0.055,-27.968 1.098,-2.563 3.631,-8.406 2.062,10.969 z m -0.03,-27.953 4.179,-10.764 1.879,10.764 z m -6.173,-10.763 2.787,7.17 1.392,3.594 h -6.044 z m -0.574,27.753 1.429,3.33 3.279,7.633 h -6.762 z m -0.491,27.79 5.178,11.141 h -7.5 z m -0.554,27.854 5.664,11.236 h -8.171 z"
   id="path70" /><path
   style="fill:#9d0a12"
   d="m 175.838,233.009 c 1.293,0 2.421,-0.205 3.447,-0.633 3.114,-1.291 5.057,-4.457 6.844,-7.701 1.224,0.104 2.462,0.193 3.65,0.193 2.801,0 4.854,-0.496 6.457,-1.57 2.79,-1.867 4.078,-5.334 5.193,-8.854 3.664,-0.408 7.314,-0.996 9.677,-3.354 2.362,-2.367 2.94,-6.027 3.356,-9.701 3.505,-1.117 6.965,-2.4 8.816,-5.172 1.85,-2.76 1.713,-6.439 1.404,-10.102 3.252,-1.787 6.419,-3.729 7.713,-6.844 1.271,-3.068 0.392,-6.672 -0.632,-10.221 2.819,-2.375 5.531,-4.889 6.188,-8.18 0.646,-3.24 -0.896,-6.582 -2.585,-9.846 2.312,-2.896 4.473,-5.906 4.473,-9.308 0,-3.374 -2.131,-6.368 -4.419,-9.241 1.673,-3.252 3.166,-6.585 2.51,-9.882 -0.664,-3.318 -3.35,-5.841 -6.163,-8.218 1.021,-3.544 1.896,-7.144 0.626,-10.206 -1.291,-3.116 -4.467,-5.057 -7.713,-6.844 0.309,-3.662 0.463,-7.354 -1.38,-10.102 -1.867,-2.79 -5.33,-4.078 -8.844,-5.193 -0.413,-3.662 -0.997,-7.313 -3.354,-9.672 -2.371,-2.362 -6.036,-2.944 -9.711,-3.356 -1.118,-3.508 -2.403,-6.971 -5.172,-8.823 -1.625,-1.083 -3.701,-1.591 -6.531,-1.591 -1.163,0 -2.369,0.086 -3.566,0.19 -1.787,-3.241 -3.729,-6.41 -6.841,-7.701 -1.03,-0.425 -2.157,-0.635 -3.447,-0.635 -2.169,0 -4.487,0.608 -6.771,1.267 -2.379,-2.825 -4.901,-5.537 -8.198,-6.196 -0.502,-0.098 -1.023,-0.151 -1.56,-0.151 -2.743,0 -5.545,1.32 -8.284,2.736 -2.886,-2.303 -5.896,-4.461 -9.289,-4.461 -3.377,0 -6.367,2.125 -9.241,4.416 -2.714,-1.4 -5.498,-2.674 -8.264,-2.674 -0.563,0 -1.108,0.054 -1.635,0.16 -3.321,0.659 -5.844,3.348 -8.223,6.164 -2.272,-0.659 -4.58,-1.261 -6.737,-1.261 -1.294,0 -2.419,0.21 -3.449,0.635 -3.116,1.291 -5.057,4.466 -6.848,7.713 -1.225,-0.106 -2.46,-0.199 -3.651,-0.199 -2.81,0 -4.857,0.502 -6.461,1.573 -2.787,1.863 -4.076,5.327 -5.19,8.844 -3.656,0.409 -7.307,0.994 -9.664,3.351 -2.367,2.368 -2.944,6.03 -3.358,9.704 -3.509,1.119 -6.977,2.404 -8.827,5.173 -1.845,2.766 -1.714,6.439 -1.408,10.102 -3.245,1.781 -6.41,3.719 -7.694,6.832 -1.273,3.068 -0.398,6.678 0.632,10.224 -2.83,2.38 -5.544,4.896 -6.203,8.19 -0.644,3.239 0.896,6.583 2.584,9.845 -2.308,2.89 -4.465,5.894 -4.465,9.288 0,3.378 2.134,6.368 4.425,9.245 -1.68,3.256 -3.179,6.594 -2.52,9.895 0.66,3.32 3.349,5.842 6.167,8.227 -1.024,3.537 -1.894,7.131 -0.623,10.188 1.287,3.115 4.458,5.057 7.708,6.844 -0.316,3.668 -0.47,7.354 1.375,10.113 1.867,2.787 5.332,4.078 8.85,5.193 0.411,3.66 0.997,7.311 3.35,9.668 2.366,2.359 6.028,2.945 9.702,3.357 1.122,3.51 2.404,6.977 5.176,8.828 1.626,1.084 3.702,1.592 6.533,1.592 1.165,0 2.374,-0.09 3.569,-0.189 1.786,3.242 3.727,6.406 6.837,7.693 1.033,0.432 2.161,0.637 3.452,0.637 2.163,0 4.482,-0.605 6.762,-1.266 2.383,2.828 4.9,5.547 8.198,6.203 0.501,0.102 1.028,0.15 1.56,0.15 2.746,0 5.555,-1.32 8.293,-2.738 2.891,2.309 5.896,4.463 9.29,4.463 3.37,0 6.356,-2.127 9.232,-4.416 2.713,1.404 5.496,2.68 8.266,2.678 0.562,0 1.109,-0.051 1.632,-0.158 3.324,-0.66 5.85,-3.354 8.229,-6.172 2.277,0.658 4.585,1.257 6.745,1.257 m -14.96,-5.299 c -0.698,0 -1.371,0.066 -1.992,0.186 -2.909,0.578 -5.593,2.705 -8.186,4.799 -2.956,-1.547 -6.008,-3.117 -8.976,-3.117 -3.016,0.006 -6.06,1.531 -9.015,3.072 -2.58,-2.08 -5.242,-4.186 -8.125,-4.754 -0.623,-0.119 -1.299,-0.186 -2,-0.186 -2.379,0 -4.919,0.707 -7.397,1.432 -2.12,-2.547 -4.333,-5.123 -7.067,-6.26 -1.397,-0.582 -3.033,-0.852 -5.152,-0.852 -1.412,0 -2.889,0.125 -4.335,0.252 -1.587,-2.908 -3.246,-5.857 -5.707,-7.504 -2.474,-1.656 -5.838,-2.082 -9.135,-2.438 -0.997,-3.172 -2.067,-6.4 -4.176,-8.508 -2.101,-2.092 -5.334,-3.152 -8.501,-4.141 -0.36,-3.309 -0.774,-6.684 -2.437,-9.166 -1.641,-2.455 -4.586,-4.113 -7.49,-5.699 0.291,-3.314 0.534,-6.701 -0.614,-9.479 -1.125,-2.725 -3.717,-4.932 -6.264,-7.063 0.934,-3.188 1.836,-6.465 1.247,-9.414 -0.571,-2.908 -2.703,-5.588 -4.791,-8.178 1.549,-2.957 3.121,-6.008 3.118,-8.976 -0.003,-3.015 -1.535,-6.063 -3.075,-9.021 2.074,-2.576 4.182,-5.241 4.75,-8.12 0.583,-2.938 -0.308,-6.209 -1.241,-9.391 2.55,-2.124 5.124,-4.332 6.261,-7.068 1.148,-2.767 0.894,-6.17 0.598,-9.497 2.909,-1.578 5.86,-3.243 7.507,-5.697 1.653,-2.476 2.073,-5.835 2.434,-9.129 3.17,-1.003 6.404,-2.065 8.507,-4.179 2.1,-2.101 3.155,-5.33 4.142,-8.502 3.306,-0.356 6.684,-0.778 9.166,-2.437 2.459,-1.645 4.114,-4.592 5.697,-7.491 1.425,0.125 2.875,0.247 4.272,0.247 2.137,0 3.787,-0.273 5.204,-0.858 2.729,-1.124 4.935,-3.718 7.059,-6.268 2.482,0.73 5.033,1.437 7.421,1.437 0.704,0 1.377,-0.06 2,-0.181 2.902,-0.576 5.582,-2.707 8.171,-4.793 2.958,1.543 6.009,3.116 8.98,3.116 3.017,-0.003 6.063,-1.534 9.021,-3.078 2.578,2.081 5.24,4.182 8.125,4.755 0.621,0.121 1.297,0.181 1.995,0.181 2.383,0 4.918,-0.7 7.392,-1.428 2.123,2.547 4.329,5.123 7.068,6.259 1.396,0.582 3.035,0.853 5.15,0.853 1.419,0 2.899,-0.125 4.342,-0.253 1.591,2.908 3.253,5.858 5.709,7.503 2.477,1.652 5.834,2.077 9.128,2.437 0.997,3.172 2.065,6.401 4.177,8.514 2.104,2.093 5.34,3.146 8.509,4.137 0.359,3.307 0.777,6.678 2.439,9.159 1.645,2.451 4.582,4.109 7.487,5.691 -0.294,3.318 -0.537,6.713 0.611,9.491 1.125,2.727 3.719,4.932 6.268,7.06 -0.935,3.19 -1.824,6.461 -1.246,9.404 0.576,2.904 2.704,5.586 4.793,8.177 -1.552,2.958 -3.125,6.016 -3.122,8.989 0.003,3.016 1.531,6.063 3.074,9.018 -2.074,2.574 -4.175,5.232 -4.745,8.117 -0.578,2.938 0.312,6.209 1.243,9.391 -2.552,2.125 -5.128,4.338 -6.268,7.074 -1.151,2.766 -0.894,6.17 -0.605,9.49 -2.905,1.586 -5.846,3.248 -7.487,5.705 -1.659,2.475 -2.08,5.834 -2.437,9.135 -3.175,0.994 -6.41,2.064 -8.523,4.178 -2.092,2.098 -3.146,5.33 -4.138,8.496 -3.301,0.355 -6.673,0.777 -9.155,2.438 -2.459,1.646 -4.118,4.594 -5.704,7.498 -1.423,-0.125 -2.882,-0.246 -4.282,-0.246 -2.131,0 -3.787,0.27 -5.2,0.855 -2.723,1.127 -4.932,3.715 -7.057,6.262 -2.481,-0.723 -5.027,-1.436 -7.42,-1.436 m 17.536,2.559 c -0.748,0.309 -1.593,0.461 -2.575,0.461 -1.586,0 -3.314,-0.389 -5.139,-0.891 1.804,-2.129 3.553,-4.027 5.526,-4.84 1.129,-0.469 2.506,-0.686 4.33,-0.686 0.988,0 2.029,0.068 3.072,0.154 -1.489,2.624 -3.035,4.898 -5.214,5.802 m 16.553,-8.867 c -1.211,0.811 -2.858,1.188 -5.188,1.188 -0.788,0 -1.615,-0.047 -2.453,-0.109 1.313,-2.354 2.708,-4.615 4.485,-5.805 1.802,-1.205 4.437,-1.637 7.126,-1.951 -0.944,2.851 -2.02,5.368 -3.97,6.677 m 14.523,-11.928 c -1.647,1.648 -4.324,2.205 -7.306,2.58 0.827,-2.576 1.753,-5.074 3.27,-6.598 1.531,-1.535 4.036,-2.473 6.617,-3.307 -0.373,2.993 -0.932,5.679 -2.581,7.325 m 11.893,-14.525 c -1.29,1.934 -3.798,3.006 -6.645,3.949 0.318,-2.68 0.748,-5.309 1.953,-7.096 1.188,-1.781 3.439,-3.17 5.799,-4.48 0.212,2.978 0.178,5.703 -1.107,7.627 m 8.901,-16.549 c -0.905,2.182 -3.185,3.73 -5.813,5.221 -0.217,-2.715 -0.309,-5.398 0.522,-7.404 0.828,-1.988 2.783,-3.799 4.855,-5.551 0.801,2.902 1.323,5.597 0.436,7.734 m 5.424,-17.973 c -0.454,2.301 -2.371,4.256 -4.645,6.221 -0.732,-2.602 -1.329,-5.193 -0.911,-7.332 0.413,-2.088 1.921,-4.168 3.647,-6.334 1.343,2.668 2.361,5.193 1.909,7.445 m -1.495,-11.629 c -1.244,-2.426 -2.345,-4.865 -2.348,-7.064 -0.003,-2.157 1.098,-4.528 2.395,-7.03 1.784,2.31 3.298,4.672 3.298,7.016 0,2.373 -1.544,4.748 -3.345,7.078 m 1.478,-25.758 c 0.454,2.291 -0.555,4.885 -1.843,7.486 -1.745,-2.193 -3.276,-4.292 -3.695,-6.396 -0.421,-2.146 0.179,-4.739 0.914,-7.343 2.211,1.924 4.164,3.942 4.624,6.253 m -5.41,-17.996 c 0.885,2.134 0.368,4.826 -0.431,7.723 -2.13,-1.802 -4.029,-3.556 -4.852,-5.532 -0.834,-2.029 -0.748,-4.7 -0.531,-7.41 2.629,1.492 4.908,3.041 5.814,5.219 m -8.879,-16.548 c 1.282,1.911 1.3,4.639 1.083,7.63 -2.356,-1.309 -4.609,-2.697 -5.793,-4.472 -1.208,-1.799 -1.642,-4.434 -1.956,-7.129 2.852,0.945 5.366,2.019 6.666,3.971 m -9.337,-7.217 c -2.578,-0.822 -5.083,-1.751 -6.605,-3.271 -1.534,-1.531 -2.47,-4.033 -3.307,-6.612 2.995,0.374 5.684,0.929 7.334,2.582 1.646,1.645 2.204,4.325 2.578,7.301 M 194.954,62.078 c 1.934,1.291 3.003,3.805 3.948,6.65 -2.678,-0.314 -5.3,-0.747 -7.093,-1.949 -1.777,-1.188 -3.172,-3.448 -4.482,-5.808 0.809,-0.054 1.604,-0.096 2.363,-0.096 2.358,10e-4 4.03,0.384 5.264,1.203 M 178.407,53.19 c 2.179,0.901 3.729,3.175 5.215,5.795 -1.065,0.087 -2.127,0.161 -3.133,0.161 -1.806,0 -3.166,-0.214 -4.276,-0.674 -1.98,-0.828 -3.796,-2.778 -5.542,-4.847 1.833,-0.507 3.57,-0.896 5.165,-0.896 0.982,0 1.827,0.153 2.571,0.461 m -17.984,-5.437 c 2.303,0.463 4.26,2.377 6.226,4.65 -2.64,0.742 -5.314,1.321 -7.322,0.917 -2.091,-0.409 -4.17,-1.923 -6.339,-3.65 2.697,-1.332 5.265,-2.338 7.435,-1.917 m -11.625,1.502 c -2.425,1.243 -4.868,2.345 -7.067,2.351 -2.154,0 -4.52,-1.099 -7.014,-2.387 2.312,-1.786 4.668,-3.297 7.017,-3.297 2.367,0 4.738,1.534 7.064,3.333 m -25.76,-1.478 c 2.216,-0.437 4.859,0.569 7.489,1.857 -2.186,1.745 -4.279,3.273 -6.386,3.686 -2.015,0.404 -4.7,-0.181 -7.354,-0.923 1.921,-2.205 3.939,-4.16 6.251,-4.62 m -17.982,5.413 c 0.748,-0.309 1.594,-0.461 2.578,-0.461 1.583,0 3.312,0.387 5.129,0.891 -1.798,2.131 -3.552,4.03 -5.53,4.85 -1.128,0.463 -2.505,0.683 -4.331,0.683 -0.98,0 -2.021,-0.071 -3.063,-0.154 1.49,-2.631 3.039,-4.907 5.217,-5.809 m -16.56,8.873 c 1.206,-0.808 2.856,-1.185 5.19,-1.185 0.786,0 1.612,0.042 2.452,0.102 -1.31,2.356 -2.702,4.611 -4.477,5.799 -1.806,1.208 -4.442,1.638 -7.136,1.952 0.946,-2.848 2.018,-5.365 3.971,-6.668 M 73.988,73.979 c 1.644,-1.647 4.317,-2.202 7.296,-2.579 -0.826,2.579 -1.754,5.084 -3.273,6.604 -1.531,1.534 -4.028,2.472 -6.605,3.303 0.372,-2.99 0.931,-5.678 2.582,-7.328 m -11.904,14.53 c 1.291,-1.936 3.805,-3.004 6.648,-3.947 -0.313,2.677 -0.747,5.3 -1.948,7.093 -1.191,1.774 -3.452,3.169 -5.811,4.479 -0.211,-2.978 -0.179,-5.699 1.111,-7.625 m -8.895,16.541 c 0.906,-2.181 3.178,-3.729 5.805,-5.217 0.218,2.713 0.315,5.401 -0.522,7.413 -0.82,1.982 -2.774,3.793 -4.842,5.544 -0.803,-2.908 -1.326,-5.605 -0.441,-7.74 m -5.435,17.984 c 0.46,-2.306 2.381,-4.268 4.656,-6.229 0.735,2.597 1.332,5.188 0.909,7.327 -0.416,2.089 -1.923,4.169 -3.652,6.342 -1.345,-2.667 -2.362,-5.19 -1.913,-7.44 m 1.499,11.623 c 1.237,2.425 2.346,4.866 2.349,7.065 0,2.155 -1.097,4.514 -2.389,7.02 -1.783,-2.313 -3.297,-4.666 -3.297,-7.022 0,-2.369 1.538,-4.737 3.337,-7.063 m -1.477,25.753 c -0.46,-2.291 0.558,-4.885 1.851,-7.49 1.743,2.189 3.276,4.285 3.692,6.393 0.423,2.146 -0.18,4.754 -0.92,7.359 -2.207,-1.926 -4.164,-3.944 -4.623,-6.262 m 5.413,17.99 c -0.885,-2.137 -0.366,-4.813 0.432,-7.709 2.131,1.797 4.03,3.555 4.843,5.531 0.837,2.023 0.751,4.695 0.536,7.398 -2.63,-1.492 -4.91,-3.042 -5.811,-5.22 m 8.87,16.56 c -1.279,-1.914 -1.297,-4.648 -1.079,-7.639 2.355,1.305 4.61,2.699 5.802,4.475 1.204,1.805 1.639,4.445 1.951,7.137 -2.847,-0.945 -5.366,-2.023 -6.674,-3.973 m 9.342,7.217 c 2.578,0.828 5.078,1.758 6.604,3.27 1.528,1.533 2.468,4.031 3.3,6.607 -2.986,-0.371 -5.673,-0.93 -7.325,-2.58 -1.643,-1.642 -2.208,-4.32 -2.579,-7.297 m 17.109,19.201 c -1.937,-1.291 -3.005,-3.805 -3.953,-6.654 2.683,0.314 5.305,0.746 7.099,1.951 1.78,1.189 3.176,3.453 4.488,5.813 -0.809,0.055 -1.608,0.098 -2.371,0.098 -2.357,-0.001 -4.033,-0.379 -5.263,-1.208 m 16.543,8.885 c -2.172,-0.898 -3.722,-3.17 -5.208,-5.789 1.063,-0.084 2.125,-0.16 3.123,-0.16 1.807,0 3.168,0.217 4.276,0.674 1.981,0.826 3.796,2.783 5.54,4.846 -1.825,0.502 -3.564,0.893 -5.153,0.893 -0.987,-0.001 -1.83,-0.149 -2.578,-0.464 m 17.982,5.444 c -2.303,-0.463 -4.26,-2.377 -6.229,-4.654 2.65,-0.732 5.33,-1.314 7.336,-0.916 2.088,0.412 4.17,1.92 6.337,3.65 -2.7,1.341 -5.276,2.338 -7.444,1.92 m 11.633,-1.502 c 2.421,-1.24 4.868,-2.342 7.063,-2.344 2.157,0 4.516,1.098 7.01,2.389 -2.309,1.779 -4.661,3.291 -7.007,3.291 -2.368,0 -4.737,-1.538 -7.066,-3.336 m 25.752,1.484 c -2.204,0.436 -4.851,-0.568 -7.491,-1.857 2.19,-1.746 4.287,-3.277 6.397,-3.695 2.011,-0.398 4.7,0.188 7.354,0.928 -1.924,2.208 -3.943,4.163 -6.26,4.624"
   id="path71" /><polygon
   style="fill:#9d0a12"
   points="82.591,97.887 84.284,100.626 77.169,100.626 77.169,102.332 92.801,102.332 92.801,100.626 84.839,100.626 85.885,99.99 84.041,96.996 "
   id="polygon71" /><polygon
   style="fill:#9d0a12"
   points="85.817,112.618 83.263,112.618 83.234,112.481 83.965,112.149 80.847,104.513 78.933,104.513 82.324,112.618 75.973,112.618 75.973,114.31 93.881,114.31 93.881,112.618 87.673,112.618 90.707,104.507 88.903,104.463 "
   id="polygon72" /><polygon
   style="fill:#9d0a12"
   points="75.363,134.76 76.828,135.606 79.387,131.223 77.918,130.377 "
   id="polygon73" /><polygon
   style="fill:#9d0a12"
   points="86.014,133.289 87.47,132.424 85.145,128.531 83.689,129.404 "
   id="polygon74" /><polygon
   style="fill:#9d0a12"
   points="89.465,130.739 93.102,135.256 94.427,134.194 90.793,129.67 "
   id="polygon75" /><polygon
   style="fill:#9d0a12"
   points="93.555,122.025 85.799,122.025 85.799,119.034 84.1,119.034 84.1,122.025 75.974,122.025 75.974,123.735 84.1,123.735 84.1,126.424 77.847,126.424 77.847,128.127 92.053,128.127 92.053,126.424 85.799,126.424 85.799,123.735 93.555,123.735 "
   id="polygon76" /><path
   style="fill:#9d0a12"
   d="m 87.797,135.315 h -4.88 c -0.325,-0.071 -0.489,-0.258 -0.528,-0.603 v -4.151 h -1.702 v 5.155 c 0,0.293 0.088,1.261 1.188,1.297 h 7.089 v -0.019 h 0.063 c 0.988,-0.095 1.965,-1.982 2.146,-2.362 l -1.88,-0.834 c -0.292,0.63 -0.779,1.381 -1.496,1.517"
   id="path76" /><path
   style="fill:#9d0a12"
   d="m 117.008,135.054 0.016,-0.051 v -9.945 h 5.413 v -1.603 h -5.413 v -4.476 h -1.696 v 4.476 h -9.444 v 1.603 h 8.825 l -0.075,0.112 c -2.107,3.147 -5.144,5.862 -8.75,7.785 v 2.081 c 1.118,-0.505 5.625,-2.745 9.311,-7.553 l 0.134,-0.164 -0.003,6.488 c -0.128,0.655 -0.911,0.991 -1.488,1.234 l -0.168,0.083 0.979,2.077 c 0.376,-0.185 2.269,-1.15 2.359,-2.147"
   id="path77" /><path
   style="fill:#9d0a12"
   d="m 176.877,137.986 h 1.604 v -17.895 h -16.362 v 17.895 h 1.605 v -1.133 h 13.153 z m -13.153,-16.298 h 13.153 v 13.566 h -13.153 z"
   id="path78" /><polygon
   style="fill:#9d0a12"
   points="174.958,128.816 174.958,127.213 171.139,127.213 171.139,124.934 175.364,124.934 175.364,123.337 165.327,123.337 165.327,124.934 169.536,124.934 169.536,127.213 165.728,127.213 165.728,128.816 169.536,128.816 169.536,131.932 164.965,131.932 164.965,133.535 175.717,133.535 175.717,131.929 173.613,129.398 172.374,130.424 173.632,131.932 171.139,131.932 171.139,128.816 "
   id="polygon78" /><polygon
   style="fill:#9d0a12"
   points="207.053,100.406 204.45,97.565 203.269,98.652 205.869,101.501 "
   id="polygon79" /><rect
   x="218.58826"
   y="-40.842319"
   transform="rotate(36.620085)"
   style="fill:#9d0a12;stroke-width:0.99999"
   width="1.6009831"
   height="3.8549595"
   id="rect79" /><polygon
   style="fill:#9d0a12"
   points="195.614,100.607 193.572,97.337 192.213,98.195 194.256,101.459 "
   id="polygon80" /><path
   style="fill:#9d0a12"
   d="m 189.447,108.268 1.016,1.495 c 0.301,-0.217 1.121,-0.837 2.105,-1.854 l 0.124,-0.131 v 7.684 h 1.611 v -7.179 l 1.698,2.063 1.286,-0.962 -1.826,-2.214 1.652,-1.584 -1.115,-1.143 -1.501,1.424 -0.086,0.033 -0.081,-0.107 0.034,-0.044 c 0.589,-0.853 1.105,-1.73 1.514,-2.621 h -0.005 l 0.031,-0.068 c 0.279,-0.626 0.474,-1.309 0.537,-1.552 h -6.545 v 1.597 h 3.978 l -0.061,0.106 c -1.616,2.985 -3.956,4.754 -4.366,5.057"
   id="path80" /><path
   style="fill:#9d0a12"
   d="m 196.55,107.73 1.137,1.415 c 0.121,-0.077 0.446,-0.303 0.906,-0.712 l 0.122,-0.101 v 7.128 h 1.604 v -0.962 h 3.73 v 0.962 h 1.605 v -7.521 l 0.119,0.093 c 0.409,0.317 0.84,0.611 1.243,0.846 l 1.083,-1.454 c -1.074,-0.636 -3.582,-2.381 -5.157,-5.799 0,0 0.146,-0.422 0.195,-0.559 l -1.902,-0.047 c -1.588,4.364 -4.17,6.34 -4.685,6.711 m 7.499,5.161 h -3.73 v -3.923 h 3.73 z m -4.299,-5.645 c 0.827,-0.967 1.574,-2.089 2.21,-3.341 l 0.052,-0.11 0.072,0.11 c 0.77,1.275 1.687,2.392 2.728,3.335 l 0.146,0.128 h -5.311 z"
   id="path81" /><path
   style="fill:#9d0a12"
   d="m 164.661,106.849 -3.203,1.154 v 1.763 l 3.252,-1.226 v 3.573 l -0.006,0.143 h -0.006 c -0.08,0.555 -0.59,1.054 -1.52,1.483 l 0.836,1.834 c 0.377,-0.184 2.254,-1.148 2.291,-2.112 l 0.006,-0.071 0.049,-5.479 2.143,-0.754 v -1.769 l -2.191,0.831 v -2.93 h 2.191 v -1.605 h -2.191 V 97.23 h -1.602 v 4.454 h -3.313 v 1.605 h 3.313 z"
   id="path82" /><path
   style="fill:#9d0a12"
   d="m 170.987,106.071 0.031,-0.077 h 0.127 l 0.015,0.06 c 0.07,0.237 0.725,2.421 2.378,4.769 l 0.035,0.051 -0.035,0.041 c -0.728,0.813 -1.441,1.467 -1.958,1.936 l -0.104,0.06 v 2.368 c 1.168,-0.754 2.305,-1.725 3.291,-2.813 l 0.052,-0.06 0.053,0.06 c 1.232,1.317 2.615,2.309 4.12,2.962 l 0.043,-2.075 c -1.104,-0.549 -2.128,-1.326 -3.039,-2.317 l -0.046,-0.048 0.039,-0.05 c 1.034,-1.476 1.763,-3.096 2.171,-4.805 l 0.038,-0.157 h 0.003 c 0.077,-0.294 0.24,-0.974 0.319,-1.582 h -1.108 v 0.006 h -6.425 v -4.535 h 5.1 v 0.748 l -0.006,0.137 h -0.009 c -0.073,0.555 -0.58,1.057 -1.517,1.496 l 0.835,1.813 c 0.374,-0.175 2.195,-1.118 2.279,-2.068 l 0.024,-0.053 V 98.26 h -8.312 v 17.13 h 1.604 v -9.319 z m 5.348,-0.077 -0.031,0.098 c -0.306,1.107 -0.826,2.19 -1.525,3.232 l -0.061,0.089 -0.066,-0.089 c -0.885,-1.365 -1.38,-2.606 -1.593,-3.232 l -0.029,-0.098 z"
   id="path83" /><path
   style="fill:#9d0a12"
   d="m 204.462,135.345 c -0.279,0 -0.627,-0.256 -1.039,-0.546 l -0.112,-0.087 c -1.179,-0.935 -2.078,-2.46 -2.676,-4.552 l -0.028,-0.092 h 4.977 v -1.609 h -5.354 l -0.009,-0.059 c -0.169,-0.979 -0.249,-1.799 -0.279,-2.327 v -0.071 h 5.642 v -5.591 l -13.935,-0.006 v 14.94 h 0.012 l 0.006,0.071 c 0.056,0.964 1.894,1.899 2.271,2.083 l 0.812,-1.771 c -0.59,-0.271 -1.498,-0.834 -1.498,-1.653 v -4.006 h 5.474 l 0.009,0.053 c 0.737,2.914 1.987,5.019 3.717,6.241 l 0.039,0.045 c 0.866,0.569 1.614,0.869 2.246,0.869 1.811,0 2.096,-2.478 2.137,-2.953 h -1.929 c -0.011,0.463 -0.079,1.021 -0.483,1.021 m -11.212,-6.886 v -2.457 h 4.877 l 0.003,0.065 c 0.025,0.511 0.085,1.323 0.249,2.303 l 0.01,0.089 z m 0,-6.445 h 10.736 v 2.38 H 193.25 Z"
   id="path84" /><path
   style="fill:#9d0a12"
   d="m 108.224,106.279 v -0.071 h 3.106 v 4.564 h 0.043 l -0.034,0.095 c -0.134,0.451 -0.54,0.789 -2.103,1.038 l 0.212,1.525 c 1.577,-0.231 3.194,-0.735 3.443,-2.594 l 0.048,-0.053 0.006,-0.392 h -0.006 v -5.784 h -4.716 v -2.467 h 6.44 l 0.003,0.065 c 0.249,2.79 0.757,5.224 1.491,7.307 -0.92,1.151 -1.923,2.143 -2.938,2.908 v 2.279 c 1.303,-0.849 2.559,-1.965 3.732,-3.294 l 0.069,-0.077 0.049,0.089 c 0.784,1.431 2.251,3.514 4.133,3.514 0.328,0 0.662,-0.035 1.012,-0.112 v -1.959 c -0.698,0.208 -2.252,0.439 -3.932,-3.128 1.114,-1.543 2.094,-3.276 2.917,-5.164 l -1.969,-0.041 c -0.493,1.057 -1.041,2.041 -1.656,3.006 l -0.089,0.14 -0.043,-0.16 c -0.453,-1.562 -0.781,-3.348 -0.973,-5.298 l -0.006,-0.074 h 5.218 v -1.62 l -1.911,-3.294 h -2.013 l 1.948,3.306 h -3.357 l -0.003,-0.062 c -0.064,-1.176 -0.073,-2.315 -0.03,-3.283 h -1.8 c -0.023,0.505 -0.044,1.684 0.025,3.276 l 0.006,0.068 h -8.202 v 1.514 l -0.006,0.06 v 4.339 c 0,1.751 -0.225,5.977 -2.251,7.739 l 1.883,1.057 c 0.297,-0.368 2.254,-3.045 2.254,-8.962"
   id="path85" /><polygon
   style="fill:#9d0a12"
   points="54.999,78.24 52.238,80.3 52.598,82.769 49.039,89.481 38.264,83.778 43.199,74.459 42.146,73.896 42.138,73.896 39.36,75.967 39.734,78.445 37.203,83.214 28.011,78.353 26.415,81.365 47.444,92.5 42.192,102.403 43.249,102.97 56.075,78.792 55.004,78.234 55.008,78.229 55.004,78.234 54.999,78.229 "
   id="polygon85" /><polygon
   style="fill:#9d0a12"
   points="130.313,39.465 128.63,31.214 132.75,30.377 132.51,29.185 128.387,30.027 125.035,13.619 121.689,14.311 125.043,30.713 115.87,32.588 116.11,33.767 125.288,31.896 126.97,40.156 "
   id="polygon86" /><path
   style="fill:#9d0a12"
   d="m 122.033,21.673 c 1.18,-2.748 -5.788,-3.205 -5.788,-3.205 l -0.323,0.68 c 3.169,1.79 3.215,2.591 4.285,3.074 0.783,0.35 1.568,0.071 1.826,-0.549"
   id="path86" /><path
   style="fill:#9d0a12"
   d="m 123.223,28.52 c 1.455,-2.594 -5.428,-3.78 -5.428,-3.78 l -0.389,0.646 c 2.966,2.11 2.914,2.899 3.932,3.505 0.748,0.433 1.557,0.222 1.885,-0.371"
   id="path87" /><path
   style="fill:#9d0a12"
   d="m 108.189,21.661 0.754,3.692 -4.762,0.97 0.246,1.188 4.025,-0.825 c -0.069,1.023 -0.56,7.573 -2.346,11.767 l 0.866,0.442 c 0,0 2.121,-3.188 3.307,-6.998 l 2.288,11.191 3.343,-0.68 -2.771,-13.583 c 1.937,1.546 2.026,2.214 2.902,2.73 0.745,0.424 1.557,0.229 1.884,-0.371 1.248,-2.231 -3.655,-3.407 -5.06,-3.697 l -0.334,-1.639 4.051,-0.828 -0.231,-1.178 -4.057,0.828 -0.896,-4.39 c 1.422,-0.691 2.729,-1.46 3.564,-2.249 l -3.322,-1.674 c 0,0 -3.129,3.403 -8.29,5.876 l 0.201,1.009 c 0,10e-4 2.144,-0.616 4.638,-1.581"
   id="path88" /><path
   style="fill:#9d0a12"
   d="m 242.989,74.566 c 0.329,-0.179 0.837,-0.546 1.264,-0.879 l 9.972,17.89 -3.982,1.157 0.649,1.154 5.227,1.083 0.006,0.012 0.012,-0.002 0.033,0.002 1,-0.546 -0.229,-3.472 -2.271,-1.048 v 0.006 l -1.585,-2.834 c 1.125,0.348 3.393,0.968 6.44,1.317 l -0.855,-4.148 c 0,0 -4.365,1.193 -6.588,1.026 l -4.065,-7.3 c 0.148,0.112 0.317,0.195 0.501,0.237 3.176,0.703 2.185,-7.401 2.185,-7.401 l -0.799,-0.193 c -1.151,3.831 -2.146,4.419 -2.415,5.707 -0.042,0.237 -0.042,0.466 -0.009,0.68 l -2.297,-4.119 c 0.418,-0.437 0.89,-0.991 0.89,-0.991 l -0.439,-0.771 -0.175,0.068 c -2.66,0.896 -3.903,-0.086 -5.47,0.786 -0.747,0.425 -1.338,1.434 -0.81,2.371 0.735,1.33 2.18,1.12 3.81,0.208"
   id="path89" /><path
   style="fill:#9d0a12"
   d="m 251.981,82.645 c 3.032,0.617 2.237,-7.007 2.237,-7.007 l -0.754,-0.182 c -1.157,3.609 -2.166,4.235 -2.428,5.426 -0.2,0.872 0.254,1.62 0.945,1.763"
   id="path90" /><path
   style="fill:#9d0a12"
   d="m 231.16,89.889 c 3.095,4.193 6.19,2.514 6.19,2.514 l 4.585,-2.547 5.016,9.004 1.035,-0.59 0.006,0.015 V 98.27 98.263 l -0.234,-3.427 -2.249,-1.033 -2.529,-4.531 1.591,-0.885 4.76,2.107 1.048,-0.585 -7.079,-12.699 -1.045,0.585 5.221,9.372 -4.547,-1.736 -0.012,-0.026 -1.594,0.891 -6.09,-10.915 -1.045,0.578 6.09,10.924 -4.582,2.547 c -0.478,0.267 -0.697,-0.054 -1.08,-0.736 -0.348,-0.623 -1.777,-3.645 -2.086,-4.279 l -0.864,0.486 c 1.865,4.414 -0.506,4.988 -0.506,4.988"
   id="path91" /><path
   style="fill:#9d0a12"
   d="m 172.086,26.929 -4.458,-1.101 -0.292,1.163 0.517,0.128 c -0.013,3.395 0.76,6.247 1.855,8.609 -4.614,2.804 -8.79,3.54 -8.79,3.54 l -0.252,1.057 c 3.941,0.46 7.508,-0.475 10.541,-1.911 2.731,4.113 6.145,6.077 6.145,6.077 1.024,-1.875 2.55,-1.985 2.911,-1.985 l 0.204,-0.833 c -2.904,-1.288 -5.032,-2.962 -6.624,-4.707 4.442,-2.793 7.186,-6.262 7.396,-6.529 l 0.023,0.006 0.282,-1.175 -6.147,-1.52 0.931,-3.79 7.748,1.923 0.29,-1.169 0.015,-0.003 -2.698,-2.181 -2.301,0.952 -2.762,-0.686 1.325,-5.371 -3.313,-0.819 -1.325,5.371 -4.466,-1.104 -0.287,1.166 4.468,1.104 z m -0.255,7.378 c -1.978,-3.214 -2.403,-6.131 -2.474,-6.813 l 7.481,1.852 c -1.519,2.022 -3.251,3.658 -5.007,4.961"
   id="path92" /><path
   style="fill:#9d0a12"
   d="m 155.996,39.18 0.893,0.22 -0.003,0.006 3.313,0.816 3.006,-12.186 c 1.517,-0.401 2.671,-0.763 3.334,-0.982 l 0.3,-1.25 c -1.072,0.164 -2.143,0.282 -3.178,0.377 l 1.246,-5.042 2.908,0.719 0.282,-1.154 -2.908,-0.719 1.328,-5.383 -3.31,-0.813 -1.328,5.377 -3.822,-0.946 -0.286,1.16 3.827,0.941 -1.499,6.077 c -2.873,0.104 -4.902,0.009 -4.902,0.009 l 0.231,3.214 c 1.461,-0.213 2.811,-0.46 4.051,-0.712 l -1.55,6.286 0.045,-0.25 c -0.24,0.965 -0.395,1.291 -2.254,0.843 -0.837,-0.21 -1.605,-0.472 -1.605,-0.472 l -0.175,0.733 c 2.322,1.062 2.056,3.131 2.056,3.131"
   id="path93" /><path
   style="fill:#9d0a12"
   d="m 62.317,45.521 c 0.134,-2.965 -6.559,-0.94 -6.559,-0.94 l -0.05,0.766 c 3.588,0.543 3.913,1.272 5.083,1.35 0.857,0.035 1.495,-0.49 1.526,-1.176"
   id="path94" /><path
   style="fill:#9d0a12"
   d="m 57.643,50.6 -0.061,0.76 c 3.598,0.549 3.917,1.27 5.083,1.361 0.864,0.036 1.499,-0.507 1.52,-1.189 C 64.322,48.561 57.643,50.6 57.643,50.6"
   id="path95" /><path
   style="fill:#9d0a12"
   d="m 88.242,46.159 -0.743,-0.929 -1.896,1.496 -3.204,-4.066 1.894,-1.492 -0.745,-0.946 -1.894,1.489 -3.959,-5.027 -2.012,1.597 -8.07,6.356 c -0.017,-0.852 -0.059,-1.769 -0.162,-2.729 l 10.752,-8.467 -0.748,-0.956 -3.385,0.769 -0.663,2.413 0.034,-0.015 -6.173,4.872 c -0.167,-1.077 -0.4,-2.178 -0.734,-3.272 l -3.484,1.561 c 0,0 2.946,5.208 3.286,10.867 l 0.944,0.01 c 0,0 0.125,-0.719 0.223,-1.885 l 2.468,3.125 -2.14,1.686 0.745,0.952 2.143,-1.691 3.196,4.063 -0.006,0.003 0.742,0.935 0.003,-0.003 0.395,0.501 2.671,-2.109 -0.392,-0.502 6.336,-4.991 c 0.695,0.92 0.96,1.626 -0.137,2.483 -1.456,1.151 -3.99,3.143 -3.99,3.143 l 0.474,0.591 c 0,0 3.531,-2.345 4.802,-0.735 0,0 4.564,-3.675 1.52,-7.589 z m -18.824,-1.418 6.337,-5.001 3.221,4.087 -1.392,1.095 c 0.006,-0.035 0.023,-0.065 0.028,-0.098 0.131,-2.982 -6.553,-0.929 -6.553,-0.929 l -0.058,0.741 c 3.598,0.55 3.914,1.288 5.083,1.354 0.064,0.003 0.107,-0.015 0.168,-0.015 l -3.613,2.849 z m 12.151,5.163 c 0.003,-0.015 0.012,-0.032 0.012,-0.05 0.125,-2.959 -6.551,-0.923 -6.551,-0.923 l -0.059,0.735 c 3.599,0.553 3.915,1.285 5.093,1.356 0.037,0.003 0.061,-0.012 0.101,-0.012 l -3.577,2.819 -3.199,-4.06 6.339,-5.001 3.17,4.019 -0.012,0.003 c 0.012,0.015 0.021,0.032 0.035,0.047 z"
   id="path96" /><path
   style="fill:#9d0a12"
   d="m 63.611,58.401 0.673,0.854 c 0,0 2.591,-1.223 6.125,3.268 1.146,1.445 2.003,2.505 2.003,2.505 l 1.769,-1.393 c 0,0 -4.172,-5.425 -5.506,-7.291 -1.241,-1.739 -4.437,-11.509 -4.938,-13.066 l -0.939,0.75 c 0.774,2.517 3.094,10.209 2.963,11.948 -0.123,1.632 -2.15,2.425 -2.15,2.425"
   id="path97" /><path
   style="fill:#9d0a12"
   d="m 226.067,53.789 -1.531,-3.109 -2.49,-0.099 0.018,0.03 -5.354,-4.273 c 2.953,-2.71 4.867,-5.369 5.404,-6.152 l -3.172,-2.525 c -1.692,2.576 -3.432,4.653 -5.164,6.339 l -8.484,-6.77 -0.742,0.932 8.336,6.657 c -7.496,6.739 -14.758,6.288 -18.133,5.573 l -0.868,1.095 c 8.902,4.036 16.595,0.143 21.72,-4.179 -6.787,9.58 -2.965,19.139 -2.965,19.139 2.419,-1.584 4.276,0.481 4.276,0.481 l 0.611,-0.778 C 212.674,58.434 216.3,48.896 216.716,47.879 l 8.601,6.864 0.745,-0.938 -0.048,-0.036 z"
   id="path98" />
</svg>
