<?xml version="1.0" encoding="UTF-8" standalone="no"?>
<!-- Created with Inkscape (http://www.inkscape.org/) -->

<svg
   width="83.608337mm"
   height="83.60833mm"
   viewBox="0 0 83.608337 83.60833"
   version="1.1"
   id="svg1"
   xmlns="http://www.w3.org/2000/svg"
   xmlns:svg="http://www.w3.org/2000/svg">
  <defs
     id="defs1" />
  <g
     id="layer1"
     transform="translate(-73.820158,-88.636824)">
    <path
       d="m 101.80262,141.9552 c 0,-1.49422 0,-2.97986 0,-4.46552 0,-1.16121 0,-2.32244 0,-3.48364 0.009,-0.64036 0.0283,-1.2722 0.0472,-1.90403 0,-0.46961 0,-0.93922 0,-1.40029 0,-0.82822 0,-1.65641 0,-2.48464 -0.0189,-1.29782 -0.0377,-2.59563 -0.0472,-3.89346 0,-0.24762 0,-0.49521 0,-0.74283 0,-0.86238 0,-1.7162 0,-2.57003 0,-0.0171 0,-0.0342 0,-0.0427 -0.0283,-0.98191 0.11317,-2.17726 -0.34894,-3.08232 0.0471,-0.0939 0.10373,-0.1793 0.16031,-0.26469 -0.11317,-1.23805 -0.14146,-2.65541 0.12262,-3.85931 0.96197,-0.38422 2.17857,-0.25613 3.21597,-0.28174 0.6979,0 1.39577,0 2.10309,0 0.24523,0 0.49041,0 0.73562,0 0,0.008 0,0.0256 0,0.0427 0,0.0257 0,0.0512 0,0.0854 0.9431,0 1.88622,0 2.82931,0 0,-0.0342 0,-0.0597 0,-0.0854 0,-0.0171 0,-0.0342 0,-0.0427 0.99968,0 2.0088,0 3.01791,0 0.94309,0 1.88621,0 2.83872,0 2.97077,0.0768 5.93209,0.0427 8.91229,-0.0427 0.6979,0.11099 1.17888,0.0768 1.68815,0.53791 0,1.1868 0,2.37364 0,3.56044 -0.29235,0.49525 -0.41497,1.43444 0.0472,1.90404 0,0.66599 0.0943,0.74284 0.14147,2.64687 -0.0378,0.87946 -0.066,1.76744 -0.0943,2.65542 -0.0377,0.87946 -0.066,1.7589 -0.0943,2.64687 0,0.008 0,0.0257 0,0.0427 -0.0188,2.8518 -0.0283,5.7036 -0.0377,8.56391 0,0.40985 0,0.81967 0,1.23805 -0.0189,0.58914 -0.0378,1.18684 -0.0472,1.78453 0.0377,0 0.0849,0 0.13204,0 0.0283,0.92212 0.0566,1.84425 0.0943,2.77492 -0.0565,0.008 -0.10374,0.0171 -0.15089,0.0342 -0.009,0.0939 -0.0188,0.18786 -0.0283,0.29031 -0.58473,0.27323 -0.93367,0.35007 -1.60328,0.21344 -0.85821,-0.0171 -1.71642,-0.0342 -2.56522,-0.0427 -1.01854,-0.11954 -1.98993,-0.11102 -3.01793,-0.0854 -0.69787,0 -1.39578,0 -2.09369,0 -1.0091,-0.0427 -1.0091,-0.0427 -3.0179,0.0854 -2.26345,0.008 -4.51744,0.0256 -6.77146,0.0427 -2.04652,0.12809 -4.12134,-0.0939 -6.16786,-0.21344 0,-0.0598 0,-0.11099 0,-0.16223 z m 21.13137,-0.92878 c -0.86127,-0.0172 -1.71306,-0.0343 -2.56494,-0.0428 -0.93698,0 -1.87399,0 -2.80152,0 -0.0284,0.0257 -0.0568,0.0513 -0.0852,0.0856 -0.91808,-0.0856 -0.91808,-0.0856 -3.07608,-0.0428 -0.0378,0 -0.0662,0 -0.0946,0 -3.02875,0 -6.05746,0 -9.08615,0 -0.0284,0 -0.0568,0 -0.0852,0 -0.5963,-0.20564 -1.24933,-0.1971 -1.88347,-0.24851 0,-0.50556 0,-1.00253 0,-1.49958 -0.19875,-0.17992 -0.1893,-1.50811 0.0947,-1.73943 -0.0189,-0.32563 -0.0378,-0.64268 -0.0473,-0.95973 0,-0.89114 0,-1.77372 0,-2.65632 0,-0.0172 0,-0.0343 0,-0.0428 0.0852,0 0.0852,-2.57922 0,-2.57922 -0.0189,-0.44559 -0.0379,-0.89118 -0.0473,-1.32817 0.0284,-0.0257 0.0568,-0.0514 0.0947,-0.0772 0,-0.59124 -0.0568,-1.07109 -0.14203,-1.61958 -0.0379,-1.20814 -0.0662,-2.41631 -0.0946,-3.61593 0,-0.0172 0,-0.0343 0,-0.0428 0,-0.89115 0,-1.77378 0,-2.65635 0,-0.0172 0,-0.0343 0,-0.0428 0.0284,-1.09678 0.0568,-2.19359 0.0946,-3.28182 0.009,-0.42847 0.0284,-0.85689 0.0473,-1.28535 -0.27447,-0.24847 -0.1325,-1.8766 -0.14194,-2.28789 0.63413,-0.7369 2.22417,-0.35989 3.12332,-0.33417 1.06951,0 2.13904,0 3.20857,0 1.38184,-0.0772 1.38184,-0.0772 4.17396,-0.0772 0.59622,0.53983 -0.52062,1.63663 -1.0033,2.07368 -0.32181,0.0685 -0.64361,0.13708 -0.96541,0.2056 -0.79506,0 -1.59007,0 -2.38511,0 -0.44479,0.06 -0.44479,0.06 -3.94679,0.0429 -0.22717,0.16278 -0.22717,0.16278 -0.56787,0.23993 -0.92753,1.64521 0.48268,3.09336 0.84237,4.70425 0.11354,0.13714 0.22716,0.28282 0.3407,0.42848 0.5679,0.0172 0.76666,-0.0857 1.26829,-0.17995 0,-0.33423 0.0947,-0.41133 0.0947,-0.5827 -0.22717,-0.32562 -0.36909,-0.59123 -0.36909,-0.99398 -0.36914,-0.66834 -0.58683,-1.38815 -0.61523,-2.12504 0.51109,0 0.81396,-0.0857 1.29664,-0.24853 0.73828,0 0.91808,-0.0771 1.74155,-0.0428 0.73819,0.66839 -0.88025,1.15681 -1.20206,1.28535 -0.009,0.17995 -0.0189,0.35989 -0.0284,0.54843 0.77606,0.29134 0.77606,0.29134 1.21151,0.55693 0,0.47988 -0.41647,0.9769 -0.93701,1.1054 0,0.0771 0,0.16277 0,0.24847 0.37859,0.20566 0.75715,0.41133 1.14525,0.62556 0.19875,0.22281 0.33122,0.49702 0.64361,0.57407 0.50163,-0.35983 1.42916,-0.90823 1.64685,-1.371 -0.29343,-0.33422 -0.33128,-0.35988 -0.77613,-0.45413 -0.16088,-0.27421 -0.17036,-0.35131 -0.1514,-0.66837 0.50161,-0.13708 0.97484,-0.5484 0.97484,-1.02828 -0.76663,-0.43698 -1.4765,-0.59981 -1.42917,-1.47381 0.0284,-0.0257 0.0662,-0.0514 0.10412,-0.0686 0.67196,0 1.34395,0 2.01596,0 0.59631,0.2913 0.88023,1.81658 1.01275,2.40785 0.0284,0.65122 0.0568,1.30244 0.0852,1.95372 0.0946,0.32559 0.2934,0.49697 0.52054,0.76258 0.19876,-0.009 0.39751,-0.009 0.60576,-0.009 0.11356,-0.19703 0.22716,-0.39418 0.34073,-0.58263 0.0284,-0.84832 0.0568,-1.69669 0.0946,-2.53642 0.53004,-1.47384 1.06002,-2.13363 2.88674,-1.79086 -0.0473,0.71119 -0.64361,0.75403 -1.34398,1.03682 0.009,0.18852 0.0189,0.37703 0.0378,0.56552 0.54898,0.0771 0.73826,0.12854 1.18311,0.42847 -0.0189,0.61693 -0.80451,0.84831 -1.34395,1.0454 0,0.33417 0.0946,0.41984 0.0946,0.58264 0.92753,0.26567 1.16412,0.8826 1.88347,1.28536 0.10415,-0.0428 0.20826,-0.0857 0.32181,-0.11997 0.25554,-0.7112 0.73824,-0.85694 1.46705,-1.16539 0,-0.24847 0.0946,-0.33417 0.0946,-0.58264 -0.39751,-0.21424 -0.78558,-0.4199 -1.17358,-0.62555 -0.0379,-0.28277 0.16086,-0.4027 0.18925,-0.66837 0.29342,-0.0686 0.58682,-0.13708 0.8897,-0.19707 0,-0.2228 0,-0.44558 0,-0.66839 -0.61521,-0.20564 -1.13577,-0.23136 -1.07895,-0.88257 0.80445,0 2.4324,-0.14569 3.24637,0.1714 0,0.0771 0,0.1628 0,0.24844 -0.0568,0.0172 -0.10413,0.0343 -0.15146,0.0514 0,0.82259 -0.0946,1.58523 -0.50158,2.32216 -0.0473,0.99401 -0.142,1.07968 -0.142,1.32821 0.36917,0.0685 1.28722,0.28273 1.52381,0.0342 0.0379,-0.94253 0.23664,-2.03937 0.7761,-2.85341 0,-0.71972 0.47326,-1.66234 0.0947,-2.30503 -0.41644,-0.13709 -0.83289,-0.27417 -1.24936,-0.4027 -1.95921,-0.0857 -3.95628,-0.0686 -5.91543,-0.0772 -1.27777,-0.2057 -1.38186,-1.53383 -2.45136,-1.91946 0,-0.11136 0,-0.22275 0,-0.33417 0.2082,-0.0771 0.2082,-0.0771 0.937,-0.0343 0.64359,0.009 1.28719,0.0257 1.93078,0.0428 0.0284,0.009 0.0568,0.0257 0.0852,0.0428 0.7004,0.009 1.40076,0.0257 2.11066,0.0428 0.20821,0 0.42593,0 0.64358,0 1.61847,0 3.23693,0 4.86491,0 1.1168,0.60839 0.64355,1.37103 0.64355,2.45072 0.0284,0.77115 0.0568,1.54237 0.0946,2.32212 0.0662,0.59127 0.10412,1.11396 0.0852,1.74809 -0.0284,1.08817 -0.0568,2.18502 -0.0852,3.28185 -0.0379,0.45416 -0.0662,0.90826 -0.0946,1.37099 -0.0379,1.76518 -0.0663,3.53892 -0.0946,5.31267 -0.0852,0 -0.0852,2.57925 0,2.57925 0,0.78831 0,1.57666 0,2.36499 0,0.009 0,0.0257 0,0.0428 -0.0284,1.40531 -0.0568,2.81915 -0.0852,4.23301 -0.3881,1.02825 -1.70367,1.00256 -2.66908,0.66839 z m -14.40303,-11.65031 c -0.002,-0.87423 -0.005,-1.7484 0.002,-2.62243 -0.0686,-0.87524 -0.12761,-1.75032 -0.18688,-2.61679 0.54891,0.009 1.09774,0.0171 1.65608,0.0257 0.0346,0.66902 0.0415,1.30335 0.30406,1.93307 0.76117,0.29467 1.57623,0.23876 2.40873,0.26886 0.0757,0.4983 -0.0112,0.58261 -0.0158,0.83109 -0.79933,0.21893 -1.46357,0.30287 -2.29775,0.36699 -0.0879,0.13572 -0.16631,0.28023 -0.24477,0.42468 -0.0541,0.8562 -0.0988,1.71252 -0.1435,2.56883 0.0284,2.9e-4 0.0568,8e-4 0.0946,0.002 0.25107,0.23531 1.52021,0.20363 1.92661,0.23559 0.21571,0.1063 0.43124,0.22106 0.64678,0.33585 0.009,1.04565 0.009,1.04565 -0.0791,1.17285 -0.69134,0.0149 -1.38269,0.0299 -2.06469,0.0536 -0.35321,0.15728 -0.69694,0.31476 -1.04073,0.47227 -0.21868,0.54506 -0.42403,0.89321 -0.51052,1.45751 -0.41099,0.70493 -0.65813,1.75519 -1.15302,2.39023 -0.003,0.16277 -0.14028,0.40914 -0.19868,0.99105 0.55805,0.0258 0.86916,0.0907 1.36666,0.31272 1.20362,-0.0755 2.39682,-0.0998 3.58609,0.0816 0.0671,0.45526 0.0703,0.78094 0.0629,1.1751 -2.23529,0.0679 -4.47078,0.14458 -6.70409,0.10974 -0.12161,-0.079 -0.24332,-0.14947 -0.35559,-0.2198 0.0303,-0.59939 0.10864,-1.72948 0.58994,-2.15044 0.0191,-1.00246 1.32188,-1.81345 1.34225,-2.88437 0.89078,-1.5459 0.97447,-2.95861 1.00786,-4.71498 z m 10.48869,0.98618 c 0.0221,-0.66819 0.0441,-1.32768 0.0756,-1.98711 -0.0508,-0.3179 -0.10149,-0.63571 -0.14299,-0.94492 -0.86065,-0.0391 -1.71297,-0.0181 -2.59193,-0.0918 -0.14268,-0.465 -0.0739,-0.59249 -0.0646,-1.08937 0.70114,-0.0319 2.15689,0.0764 2.7248,-0.42038 0.0192,-0.51391 0.0383,-1.01923 0.0668,-1.52446 0.51465,-0.18051 0.9023,-0.15734 1.39018,0.0731 0.002,0.37712 0.005,0.76278 0.006,1.1485 -0.0379,-5.6e-4 -0.0662,-8e-4 -0.0946,-0.002 -0.0321,1.68785 -0.0642,3.37562 -0.0965,5.07204 0.0284,5.6e-4 0.0568,8e-4 0.0946,0.002 0.36442,1.7454 1.09574,3.60796 1.96431,5.22409 -0.0262,1.37937 2.09303,2.44084 0.62385,3.53205 -1.37594,0.17567 -2.53975,0.14896 -3.90129,0.0678 0.008,-0.41127 -0.0853,-0.49841 -0.0711,-1.24377 2.29423,-0.17856 2.29423,-0.17856 2.44726,-0.26184 0.0107,-0.0684 0.0216,-0.13675 0.0416,-0.19647 -0.71675,-1.13385 -1.6958,-2.41747 -1.67006,-3.77118 -0.12027,-0.14753 -0.17671,-0.66262 -0.26027,-0.74963 0.0327,-1.72211 -2.07885,-0.69233 -3.02768,-1.07562 -0.13655,-0.78199 -0.13655,-0.78199 -0.14569,-1.29633 0.82545,-0.0986 1.65082,-0.19711 2.48557,-0.28695 0.0484,-0.0593 0.0969,-0.11843 0.14541,-0.17767 z m -5.23823,7.64863 c 0.006,-1.3197 0.0122,-2.63089 0.0277,-3.94187 -0.0104,-0.44579 -0.0209,-0.8916 -0.022,-1.33727 0.0379,5.7e-4 0.0853,0.002 0.13253,0.002 0.0127,-0.66828 0.0253,-1.32796 0.0379,-1.98767 -0.0473,-8e-4 -0.0946,-0.002 -0.13252,-0.002 -0.0124,-1.3371 -0.0156,-2.66552 -0.0187,-3.99396 0.0473,8e-4 0.0946,0.002 0.14195,0.002 0.0166,-0.87392 0.0333,-1.74783 0.0496,-2.61312 0.40626,0.0406 0.822,0.0813 1.23756,0.13071 0.034,0.20626 0.0772,0.42114 0.12045,0.63606 -0.003,0.65988 0.003,1.32845 0.009,1.99698 -0.0245,0.29102 -0.049,0.58199 -0.064,0.87315 -0.0379,-5.7e-4 -0.0662,-8e-4 -0.0946,-0.002 0.003,1.33695 0.006,2.68254 0.0181,4.02819 0.0262,1.10597 0.0526,2.21192 0.0787,3.32644 -0.0361,0.89935 -0.0721,1.79861 -0.0986,2.69808 0.0379,5.6e-4 0.0851,0.002 0.13245,0.002 0.0555,0.0695 0.12043,0.139 0.1854,0.20854 0.88042,-0.003 1.58913,0.0591 2.46681,0.20131 -0.008,0.41984 0.0851,0.50698 0.0371,1.03756 -0.0955,0.0413 -0.19092,0.0827 -0.28638,0.12401 -1.23021,-0.0191 -2.451,-0.0381 -3.67173,-0.0572 -0.28508,-0.44148 -0.2588,-0.82679 -0.28706,-1.33277 z"
       style="fill:#bc141d;fill-rule:evenodd;stroke-width:0.28293"
       id="path3" />
    <path
       d="m 106.43532,149.06829 h -4.3522 v -0.28821 c 0.10457,-0.005 0.27212,-0.0168 0.50265,-0.0374 0.23054,-0.0206 0.38909,-0.0401 0.47187,-0.0608 0.1063,-0.0246 0.18923,-0.0685 0.24864,-0.12794 0.0594,-0.0607 0.09,-0.14477 0.09,-0.2507 v -2.39979 h -1.33472 v -0.36057 h 0.28995 c 0.30632,0 0.57103,-0.0233 0.79444,-0.0711 0.2234,-0.0479 0.40892,-0.10593 0.55666,-0.17446 0.15131,-0.0711 0.27555,-0.14341 0.37101,-0.21969 0.0973,-0.0749 0.17482,-0.1422 0.23065,-0.2004 h 0.92953 c -0.0108,0.16424 -0.0216,0.35539 -0.0325,0.57511 -0.0108,0.2197 -0.0163,0.41617 -0.0163,0.59059 v 2.21897 c 0,0.0904 0.027,0.16928 0.0829,0.23645 0.054,0.0673 0.13151,0.11761 0.23409,0.15377 0.0919,0.0298 0.24508,0.0582 0.45948,0.0828 0.2143,0.0258 0.37288,0.04 0.47374,0.0452 z m 7.30928,-1.92299 c 0,0.91893 -0.4324,1.66971 -1.29893,2.2538 -0.86458,0.58543 -2.04626,0.94733 -3.54681,1.08942 l -0.12067,-0.37471 0.5602,-0.0685 c 0.43229,-0.0879 0.79076,-0.20164 1.07542,-0.34127 0.28638,-0.13827 0.51875,-0.29979 0.70254,-0.48455 0.1892,-0.18872 0.33497,-0.39033 0.43229,-0.60216 0.099,-0.21197 0.17295,-0.43045 0.22154,-0.65397 -0.30975,0.19387 -0.60881,0.32181 -0.89888,0.38383 -0.28994,0.062 -0.6178,0.0931 -0.97995,0.0931 -0.30263,0 -0.58544,-0.044 -0.84845,-0.1293 -0.26471,-0.0853 -0.49355,-0.20283 -0.68631,-0.35157 -0.19816,-0.15242 -0.3512,-0.33462 -0.4629,-0.54792 -0.10986,-0.21319 -0.16572,-0.44446 -0.16572,-0.69395 0,-0.53242 0.28455,-0.9744 0.85559,-1.32326 0.56931,-0.35024 1.28258,-0.5248 2.13644,-0.5248 0.92594,0 1.66082,0.20557 2.20665,0.6178 0.54583,0.41098 0.81795,0.96405 0.81795,1.658 z m -1.92571,0.20804 c 0,-0.0362 0.002,-0.0788 0.006,-0.12918 0.002,-0.0505 0.004,-0.0995 0.004,-0.14738 0,-0.60598 -0.10087,-1.06999 -0.3026,-1.3918 -0.20175,-0.32169 -0.46477,-0.482 -0.78903,-0.482 -0.31347,0 -0.56748,0.1228 -0.76197,0.36697 -0.19634,0.24431 -0.29364,0.59836 -0.29364,1.0598 0,0.40447 0.0992,0.72617 0.29905,0.96529 0.19817,0.24038 0.45933,0.36057 0.7836,0.36057 0.20349,0 0.39084,-0.0298 0.5638,-0.0878 0.17295,-0.0582 0.33326,-0.1667 0.48098,-0.32577 0,-0.0115 0.002,-0.0348 0.006,-0.0658 0.003,-0.0311 0.006,-0.0725 0.006,-0.12288 z m 8.10546,-0.0801 c 0.26473,0.1267 0.48626,0.29598 0.66465,0.50916 0.18009,0.21333 0.27026,0.47818 0.27026,0.79359 0,0.55565 -0.3009,1.00921 -0.90071,1.36067 -0.59984,0.35282 -1.36551,0.5286 -2.29859,0.5286 -0.72062,0 -1.32218,-0.11108 -1.80501,-0.33335 -0.48086,-0.2223 -0.72234,-0.48469 -0.72234,-0.78709 0,-0.1796 0.0793,-0.33077 0.23961,-0.45489 0.16031,-0.12279 0.37471,-0.18478 0.64129,-0.18478 0.27925,0 0.50622,0.053 0.6846,0.16028 0.17641,0.10728 0.26658,0.25073 0.26658,0.43033 0,0.12534 -0.0306,0.26362 -0.0902,0.41224 -0.0594,0.14859 -0.10985,0.26238 -0.14763,0.34124 0.0846,0.0219 0.18195,0.04 0.29535,0.0503 0.1117,0.0117 0.218,0.018 0.31702,0.018 0.20003,0 0.39637,-0.0322 0.59099,-0.0969 0.19262,-0.0646 0.35833,-0.15895 0.49524,-0.28172 0.15859,-0.14209 0.27741,-0.30888 0.35847,-0.50263 0.0811,-0.19265 0.12254,-0.41101 0.12254,-0.65654 0,-0.35541 -0.13334,-0.64746 -0.39808,-0.87614 -0.26657,-0.22882 -0.61065,-0.34247 -1.03224,-0.34247 -0.32783,0 -0.60166,0.0465 -0.82322,0.14209 -0.22156,0.0944 -0.42145,0.21834 -0.59628,0.37226 l -0.41245,-0.0983 0.51162,-2.78621 h 4.46021 v 1.04415 h -4.0802 l -0.21617,1.24973 c 0.19107,-0.0852 0.43413,-0.16803 0.73319,-0.24552 0.29906,-0.0788 0.65213,-0.11761 1.05562,-0.11761 0.31343,0 0.62332,0.0245 0.92778,0.0737 0.30435,0.0491 0.59984,0.14209 0.88807,0.27779 z m 6.92902,1.79505 h -4.35206 v -0.28822 c 0.10454,-0.005 0.27197,-0.0168 0.50261,-0.0374 0.23054,-0.0206 0.38912,-0.0401 0.47191,-0.0608 0.1063,-0.0246 0.18919,-0.0685 0.24861,-0.12794 0.0594,-0.0607 0.0901,-0.14478 0.0901,-0.25071 v -2.39978 h -1.33487 v -0.36057 h 0.29009 c 0.30619,0 0.57104,-0.0233 0.79444,-0.0711 0.22326,-0.0479 0.40889,-0.10593 0.55663,-0.17446 0.15121,-0.0711 0.27558,-0.14342 0.37105,-0.2197 0.0973,-0.0749 0.17467,-0.14219 0.23053,-0.20039 h 0.92951 c -0.0108,0.16424 -0.0216,0.35538 -0.0324,0.57511 -0.0108,0.21969 -0.0163,0.41616 -0.0163,0.59059 v 2.21897 c 0,0.0904 0.0271,0.16928 0.0828,0.23644 0.0541,0.0673 0.1315,0.11762 0.23424,0.15377 0.0919,0.0298 0.24505,0.0582 0.45934,0.0828 0.21443,0.0258 0.37287,0.04 0.47373,0.0452 z"
       style="fill:#bc121d;fill-rule:evenodd;stroke-width:0.28293"
       id="path4" />
    <path
       d="m 111.33947,102.22016 c -0.1407,-0.002 -0.2814,-0.003 -0.4113,-0.006 -0.74252,-0.61535 -0.9194,-1.01068 -1.15161,-1.93066 -0.56243,0.16566 -1.02137,1.60399 -1.68199,0.75039 -0.007,-0.11122 -0.0136,-0.21234 -0.009,-0.31414 0.23755,-0.846529 1.5179,-1.450981 1.45741,-2.391328 -0.47428,-0.479143 -0.36682,-0.658069 -0.146,-1.260003 -0.0215,-0.333716 -0.0215,-0.333716 -0.0597,-0.422727 -0.43481,-0.03485 -0.78779,0.361755 -1.07446,0.61246 -0.54583,0.255996 -1.05745,0.540369 -1.55436,0.884724 -0.39664,0.389142 -0.70905,0.407872 -1.21075,0.174002 -0.40464,-0.574575 -0.28686,-0.591862 0.2212,-1.099298 0.61544,-0.351512 1.24156,-0.703676 1.86845,-1.045739 0.30621,-0.282167 0.61251,-0.564446 0.92953,-0.847377 0.40774,-0.217234 0.56612,-0.277441 0.62358,-0.727499 -0.32217,-0.133005 -0.64434,-0.265898 -0.95509,-0.389425 -0.05,-0.778597 1.86358,-1.289031 2.50991,-1.327736 0.82913,0.112804 0.86342,0.476144 0.84426,1.187855 -0.11789,0.352135 -0.71951,0.580941 -0.69742,0.924815 0.88501,-0.195081 2.05639,-0.813397 2.95266,-0.329105 0.003,0.223148 0.007,0.446181 0.0107,0.669328 -0.3204,0.902209 -1.36254,1.512688 -2.33896,1.632085 -0.33231,0.212735 -0.47337,0.708458 -0.63569,1.042966 0.17131,0.141946 0.99368,-0.01893 1.20904,-0.0318 0.13256,0.04278 0.26508,0.08559 0.39764,0.128366 0.19225,0.130601 0.30845,0.255684 0.45302,0.318042 0.30978,1.453215 -0.60069,1.923924 -1.8024,2.574354 0.006,0.091 0.0123,0.19214 0.0189,0.29326 0.49481,0.29515 0.88848,0.028 1.39775,-0.12429 0.17236,-0.0104 0.3454,-0.0106 0.52922,-0.0114 0.002,0.36532 0.002,0.36532 -0.0328,0.49934 -0.46559,0.49476 -1.01632,0.50738 -1.66134,0.56631 z m 0.16337,-6.027178 c -0.24462,-0.07896 -0.48922,-0.158016 -0.72321,-0.228268 0.005,-0.08454 0.009,-0.169165 0.0142,-0.244339 0.68382,-0.228325 1.32089,-0.406939 2.02069,-0.542462 0.0365,0.569142 -0.83187,0.873972 -1.31169,1.015069 z m -0.30271,3.841908 c -0.27496,-0.395617 -0.0832,-0.828586 0.05,-1.239259 0.24553,-0.06154 0.37995,-0.144521 0.63264,-0.09402 0.0653,0.239558 0.0909,0.481576 0.10708,0.73344 -0.42635,0.353353 -0.42635,0.353353 -0.78966,0.599839 z"
       style="fill:#bc141d;fill-rule:evenodd;stroke-width:0.28293"
       id="path5" />
    <path
       d="m 114.38901,89.096719 c 22.83005,-0.682117 41.89744,17.278931 42.57959,40.108951 0.68211,22.82994 -17.27891,41.89747 -40.10896,42.57959 C 94.029703,172.46741 74.962172,154.50624 74.280054,131.67631 73.59791,108.84629 91.559069,89.778864 114.38901,89.096719 Z"
       style="fill:none;stroke:#bc141d;stroke-width:0.882202;stroke-linecap:butt;stroke-linejoin:miter;stroke-dasharray:none"
       id="path6" />
    <path
       d="m 114.40426,105.46461 c 14.1202,-0.42188 25.91329,10.68691 26.33519,24.80712 0.42188,14.1202 -10.6869,25.91331 -24.80711,26.33519 -14.1201,0.42191 -25.913318,-10.6869 -26.335196,-24.80712 -0.421905,-14.12021 10.687016,-25.91328 24.807116,-26.33519 z"
       style="fill:none;stroke:#bc121d;stroke-width:0.882202;stroke-linecap:butt;stroke-linejoin:miter;stroke-dasharray:none"
       id="path7" />
    <path
       d="m 121.24218,102.20885 c -0.0972,-0.009 -0.19429,-0.0183 -0.27676,-0.01 -0.21622,-0.0204 -0.11552,-0.11631 -0.31462,-0.12771 -0.0617,-0.0385 -0.10876,-0.0593 -0.15582,-0.0801 -0.47453,-0.40368 -0.37655,-0.43469 -0.47333,-1.04112 -0.0101,-0.0663 -0.0201,-0.13258 -0.0302,-0.19888 0.005,-0.0486 0.009,-0.0971 0.0123,-0.12952 0.008,-0.081 0.0153,-0.16192 0.0214,-0.22669 0.003,-0.0324 0.006,-0.0648 0.008,-0.0809 0.0238,-0.0794 0.0476,-0.15884 0.0715,-0.23826 0.008,-0.08094 0.0138,-0.145706 0.0199,-0.210469 -0.084,0.02473 -0.15185,0.05098 -0.22119,0.09345 -0.13564,0.05252 -0.13564,0.05252 -0.47691,0.379639 -0.13337,0.0707 -0.13598,0.056 -0.14327,0.13349 -0.1048,0.0717 -0.1048,0.0717 -0.3312,0.39338 -0.0339,0.0131 -0.0532,0.044 -0.0724,0.0748 -0.0501,0.0116 -0.0501,0.0116 -0.15094,0.21443 -0.0825,0.009 -0.15033,0.0348 -0.21815,0.0611 -0.0662,0.0101 -0.13258,0.0201 -0.19886,0.0302 -0.14724,0.003 -0.27829,0.006 -0.40935,0.0103 -0.14418,-0.03 -0.14418,-0.03 -0.23367,-0.12008 -0.009,-0.0825 -0.0171,-0.16498 -0.0256,-0.24745 -0.0324,-0.003 -0.0486,-0.005 -0.0647,-0.006 0.0608,-0.12495 0.0608,-0.12495 0.18026,-0.17899 0.14633,-0.16585 0.29269,-0.3317 0.45371,-0.47985 0.13563,-0.0525 0.13563,-0.0525 0.21109,-0.15974 0.0886,-0.07331 0.1772,-0.146587 0.26581,-0.219895 0.13717,-0.06872 0.13717,-0.06872 0.26884,-0.252288 0.114,-0.16891 0.24414,-0.336319 0.37277,-0.487489 0.0355,-0.02934 0.0709,-0.05865 0.12251,-0.08644 0.10937,-0.120358 0.23494,-0.239161 0.36051,-0.357992 0.0385,-0.06168 0.077,-0.123386 0.11399,-0.168909 0.077,-0.123386 0.16865,-0.229089 0.2603,-0.334764 0.0192,-0.03084 0.0385,-0.06171 0.0562,-0.07636 0.0962,-0.154253 0.20869,-0.306979 0.32112,-0.459706 0.0486,0.0046 0.0685,-0.205888 0.0199,-0.210472 -0.16738,-0.130147 -0.35159,-0.08222 -0.56359,-0.08593 -0.0324,-0.003 -0.0486,-0.0046 -0.0648,-0.0061 -0.0971,-0.0092 -0.17808,-0.01683 -0.25902,-0.02447 -0.0324,-0.003 -0.0486,-0.0046 -0.0647,-0.0061 -0.0972,-0.0092 -0.17811,-0.01683 -0.25905,-0.02447 -0.37239,-0.0352 -0.72858,-0.06884 -1.08476,-0.102507 -0.10873,-0.05928 -0.21749,-0.118547 -0.31156,-0.16011 -0.009,-0.08247 -0.0171,-0.164977 -0.009,-0.245923 0.0547,-0.06015 0.10782,-0.104146 0.16099,-0.148114 0.38611,-0.149529 0.32557,-0.08179 0.68432,-0.327379 0.0517,-0.02781 0.11945,-0.05406 0.18727,-0.08032 0.8224,-0.232654 1.64937,-0.513886 2.49191,-0.613959 0.11943,-0.05406 0.23888,-0.108108 0.35833,-0.162175 0.13106,-0.0039 0.13106,-0.0039 0.40847,-0.173748 0.0238,-0.07942 0.0477,-0.158837 0.0715,-0.238256 0.002,-0.01621 0.003,-0.03239 0.005,-0.04858 0.009,-0.09716 0.0346,-0.192761 0.0584,-0.272179 0.0254,-0.0956 0.067,-0.189705 0.10695,-0.267596 0.0192,-0.03084 0.0547,-0.06015 0.0901,-0.08949 0.10633,-0.08796 0.22884,-0.174398 0.34982,-0.244621 0.16189,0.01528 0.32381,0.03059 0.50189,0.04742 0.0841,0.01095 0.1914,0.05234 0.35312,0.06604 0,0 0.0162,0.0014 0.0324,0.003 0.2199,0.265785 0.55073,0.395056 0.68204,0.734148 -0.0107,0.113342 -0.0214,0.226684 -0.0337,0.356209 -0.037,0.0455 -0.074,0.09102 -0.0963,0.154254 -0.0324,-0.003 -0.0663,0.01007 -0.084,0.02473 -0.0238,0.07941 -0.0315,0.160365 -0.0407,0.257494 0.19273,0.03455 0.38396,0.0853 0.5752,0.136034 0.0162,0.0014 0.0309,0.01924 0.0617,0.0385 0.12033,0.109381 0.12033,0.109381 0.37044,0.574037 0.22601,0.737119 0.047,0.991615 -0.0781,1.691443 -0.18735,0.488282 -0.17824,0.637442 -0.74501,1.661085 -0.0724,0.07483 -0.13015,0.167381 -0.1879,0.259928 -0.0647,-0.006 -0.077,0.12341 -0.17171,0.26148 -0.10788,0.20994 -0.19502,0.32628 -0.30953,0.50979 -0.10173,0.0394 -0.10173,0.0394 -0.16559,0.19672 -0.27345,0.30087 -0.53073,0.60323 -0.78796,0.90563 -0.2212,0.0934 -0.2212,0.0934 -0.71912,0.17709 -0.0825,0.009 -0.16498,0.017 -0.24899,0.0418 -0.27682,0.0106 -0.32053,0.11023 -0.60668,0.0243 z m -0.22476,-1.36339 c -0.006,-0.11484 -0.011,-0.22971 -0.018,-0.3284 -0.0171,-0.16494 -0.0342,-0.32992 -0.0366,-0.47716 0.002,-0.0162 0.002,-0.0162 0.002,-0.0162 -0.009,-0.08248 -0.0171,-0.16495 -0.009,-0.245925 -0.0262,-0.124858 0.0275,-0.152302 0.01,-0.276763 0.32851,-0.883705 1.00837,-2.028243 2.01036,-2.260246 0.14971,-0.06041 0.2691,-0.05472 0.40782,0.0059 0.47501,0.159205 0.32039,0.585638 0.1688,0.979703 -0.057,0.137816 -0.0865,0.09781 -0.1039,0.2352 -0.0697,0.251921 -0.99376,1.882621 -1.17269,1.865701 -0.2273,0.15822 -0.96453,0.87262 -1.25774,0.51822 z"
       style="fill:#bc141d;fill-rule:evenodd;stroke-width:0.28293"
       id="path8" />
    <path
       d="m 136.88102,112.90359 c -0.29691,-1.01425 0.1444,-2.14815 1.21951,-2.37786 0.0161,0.0251 0.0322,0.0502 0.0564,0.0878 0.0376,-0.0241 0.0627,-0.0403 0.0878,-0.0564 0.0161,0.0251 0.0322,0.0502 0.0484,0.0753 0.0376,-0.0242 0.0627,-0.0403 0.0878,-0.0564 0.30627,0.2286 0.61885,0.3291 0.86597,0.6311 0.24456,-0.033 0.33781,-0.16376 0.45257,-0.34376 -0.0277,-0.0708 -0.068,-0.13352 -0.10024,-0.18371 -0.51321,-0.21972 -1.28923,-0.92716 -0.66101,-1.38373 0.0161,0.0251 0.0274,-0.0168 0.0435,0.008 0.0959,-0.0439 0.19984,-0.0751 0.30375,-0.10646 0.23377,0.11569 0.60092,0.41149 0.83295,0.38651 0.40835,0.3048 0.76745,0.58806 1.26547,0.72897 -0.0321,-0.29836 -1.44442,-1.14561 -1.66921,-1.3025 -0.67711,-0.30942 -1.91496,-0.71941 -2.08296,-1.53292 0.66953,-0.69575 1.57751,0.13875 2.25012,0.46873 0.10564,0.10936 0.21132,0.21871 0.32503,0.34059 0.34862,-0.31246 1.84103,-1.96187 2.47968,-1.82269 0.0403,0.0627 0.0806,0.12545 0.12891,0.20074 -0.0532,0.68975 -0.88306,1.32898 -1.37869,1.77128 0.0161,0.0251 0.0277,0.0708 0.0394,0.11649 0.0457,-0.0116 0.0788,-0.0152 0.12005,-0.006 0.68382,-0.56314 1.44728,-0.94708 1.69764,-1.7989 0.21684,-0.10381 0.35748,-0.10553 0.58951,-0.13049 0.74513,0.4429 0.0237,1.0302 -0.3429,1.4251 0.0367,0.0296 0.0734,0.0592 0.1182,0.10128 0.19081,-0.0339 0.36911,-0.0598 0.55545,-0.0731 0.0161,0.0251 0.0322,0.0502 0.0564,0.0878 0.15412,-0.0635 0.15412,-0.0635 0.29029,-0.0447 0.491,-0.17356 0.9606,-0.546 1.48199,-0.56187 0.21935,0.23123 0.21935,0.23123 0.31063,0.45613 -0.0376,0.0242 0.0309,0.0273 -0.0193,0.0596 0.0161,0.0251 -0.0739,0.0712 -0.0578,0.0963 -0.34055,0.32503 -0.55847,0.73073 -0.93576,1.0262 0.0609,0.0672 0.12984,0.14697 0.19876,0.22673 0.55192,-0.10632 0.66192,0.23056 0.81937,0.69647 -0.21158,0.2776 -0.57713,0.3706 -0.90147,0.47257 -0.73121,0.43411 -1.40235,0.74106 -1.66582,0.91022 0.0868,0.24552 0.0868,0.24552 0.54863,1.04752 0.0249,0.23203 0.05,0.46406 0.0704,0.71672 -0.0843,0.0896 -0.0843,0.0896 -0.52959,0.25147 -0.77653,-0.29872 -1.81803,-1.06518 -2.43677,-1.64241 -1.11435,-0.13493 -1.2551,0.11495 -0.90088,1.16327 -0.17128,0.3403 -0.35694,0.79621 -0.8164,0.5774 -0.0251,0.0161 -0.0502,0.0322 -0.0753,0.0483 -0.48361,-0.25645 -0.63762,-0.44105 -0.78539,-0.50562 -0.0502,0.0322 -0.10038,0.0644 -0.15057,0.0967 -0.27982,0.64041 -0.76171,0.52461 -1.31971,0.26273 -0.0188,-0.11199 -0.1231,-0.36023 -0.21092,-0.30381 -0.0806,-0.12548 -0.22332,-0.17927 -0.30386,-0.30472 z m 7.50812,-3.85708 c 0.10715,-0.0971 0.22728,-0.17426 0.3273,-0.23848 0.13139,0.0286 0.26295,0.0573 0.39437,0.0859 -0.28585,0.12703 -0.28585,0.12703 -0.72167,0.15255 z m -0.32863,0.95071 c 0.0115,-0.11103 0.009,-0.21266 0.0148,-0.2996 0.33745,-0.2167 0.69363,-0.11382 1.02039,0.008 -0.26412,0.16959 -0.52815,0.33915 -0.78284,0.52342 -0.0806,-0.0932 -0.16647,-0.16243 -0.25238,-0.23166 z m -1.35594,-1.28997 c 0.043,-0.11747 0.043,-0.11747 0.40086,-0.31233 0.0836,0.11717 0.15476,0.24992 0.22589,0.38241 -0.037,0.0464 -0.0739,0.0927 -0.12325,0.15454 -0.19782,-0.13253 -0.19782,-0.13253 -0.5035,-0.22462 z m 0.0733,1.69317 c 0.12893,-0.11677 0.25786,-0.23353 0.37814,-0.31077 0.11676,0.12893 0.23356,0.25784 0.32625,0.40216 -0.009,0.0396 -0.0172,0.0791 -0.0344,0.15806 -0.22849,-0.0912 -0.45693,-0.18234 -0.66995,-0.24945 z m -0.68356,1.18525 c 0.0218,-0.13026 0.0977,-0.20716 0.1547,-0.26487 0.14614,0.0682 0.34642,0.18986 0.52773,0.33088 0.15668,0.38227 0.15668,0.38227 -0.0302,0.46352 -0.2354,-0.19429 -0.4708,-0.38857 -0.65216,-0.52953 z m -4.35441,0.59755 c 0.0469,-0.0948 -0.02,-0.09 -0.0582,-0.21633 0.0459,-0.0295 0.005,-0.11116 0.0351,-0.13074 -0.0196,-0.0306 0.0995,-0.004 0.08,-0.0341 0.0819,-0.0743 0.17344,-0.13306 0.26497,-0.19182 0.30508,0.10582 0.33884,0.19197 0.48474,0.4863 -0.32483,0.1654 -0.47213,0.23848 -0.80655,0.0867 z"
       style="fill:#bc141d;fill-rule:evenodd;stroke-width:0.28293"
       id="path9" />
    <path
       d="m 89.926957,116.09465 c -0.490347,-0.0465 -0.09025,0.0222 -0.565493,0.20606 -0.07543,-0.0471 -0.150859,-0.0942 -0.226289,-0.14127 -0.111615,-0.15705 -0.304914,-0.29521 -0.245329,-0.50262 0.04997,-0.15118 0.02311,-0.17143 0.01717,-0.25136 0.01723,-0.11156 0.03446,-0.22312 0.05953,-0.34724 0.148849,-0.16869 0.10409,-0.25068 0.119255,-0.27498 0.01355,-0.095 0.03409,-0.0971 0.03135,-0.19013 0.0094,-0.099 0.03919,-0.20267 0.06898,-0.30639 0.02668,-0.0707 0.05333,-0.1414 0.08788,-0.22467 0.0079,-0.0126 0.01567,-0.0252 0.03137,-0.0503 0.05118,-0.0926 0.02894,-0.0387 0.06422,-0.23597 2.55e-4,-0.002 -8.82e-4,-0.003 -0.0014,-0.004 0.02668,-0.0707 0.05336,-0.14143 0.08004,-0.21214 0.05696,-0.0912 0.02263,-0.079 0.06745,-0.21998 0.218026,-0.68506 0.75316,-1.90601 0.481038,-2.61756 0.0031,-0.033 0.0063,-0.066 0.02982,-0.10369 -0.04558,-0.011 -0.07857,-0.0141 -0.103723,-0.0298 -0.07543,-0.0471 -0.13043,-0.0989 -0.185432,-0.15072 -0.103722,-0.0298 -0.199579,-0.0722 -0.282846,-0.10669 -0.05815,-0.0188 -0.09586,-0.0423 -0.133571,-0.0659 -0.01256,-0.008 -0.02515,-0.0157 -0.02515,-0.0157 -0.144776,-0.16498 -0.241113,-0.22332 -0.315892,-0.24966 -0.02515,-0.0156 -0.05028,-0.0314 -0.06287,-0.0392 -0.193299,-0.13815 -0.378759,-0.28887 -0.564192,-0.43961 -0.113144,-0.0707 -0.226316,-0.14127 -0.33946,-0.21192 -0.07071,-0.0267 -0.141409,-0.0533 -0.204276,-0.0926 -0.01256,-0.008 -0.02513,-0.0157 -0.03771,-0.0236 -0.150859,-0.0942 -0.29388,-0.20097 -0.424311,-0.29988 -0.06287,-0.0392 -0.113144,-0.0706 -0.163449,-0.10203 -0.07543,-0.0471 -0.150858,-0.0942 -0.213726,-0.13343 -0.08015,-0.0675 -0.152443,-0.1476 -0.212197,-0.21986 -0.180708,-0.13029 -0.341016,-0.26533 -0.501325,-0.40038 -0.100581,-0.0628 -0.180736,-0.13028 -0.26089,-0.19782 -0.179208,-0.2167 -0.226373,-0.28109 -0.221789,-0.54031 0.03924,-0.0629 0.07852,-0.12573 0.117755,-0.18857 0.0079,-0.0126 0.0157,-0.0252 0.02354,-0.0377 0.0079,-0.0126 0.0157,-0.0252 0.03141,-0.0503 0.147464,-0.0545 2.9e-5,2e-5 0.243434,-0.11009 0.202635,-0.10064 0.361274,-0.15884 0.58278,-0.17779 0.102647,0.0332 0.23817,-0.0261 0.292211,0.008 0.09113,0.022 0.194825,0.0518 0.306385,0.069 0.0503,0.0314 0.100581,0.0628 0.163448,0.10203 0.05028,0.0314 0.100583,0.0628 0.163421,0.10205 0.62075,0.40501 0.62075,0.40501 0.644318,0.3673 0.0079,-0.0126 0.01567,-0.0252 0.02354,-0.0377 0.02043,-0.005 0.04083,-0.009 0.07382,-0.006 0.03613,-0.0299 0.07226,-0.0598 0.108362,-0.0896 0.02668,-0.0707 0.05336,-0.14143 0.08004,-0.21214 0.0079,-0.0126 0.02354,-0.0377 0.0518,-0.055 0.02515,0.0157 0.05814,0.0189 0.09113,0.022 0.04397,-0.0424 0.0958,-0.0975 0.147605,-0.15247 0.08952,-0.14339 0.163647,-0.19788 0.233955,-0.29074 0.628247,-0.30667 0.764959,-0.27373 1.415444,-0.11224 0.03771,0.0236 0.07543,0.0471 0.125706,0.0785 0.04717,0.0644 0.09433,0.12876 0.161922,0.18843 0.0017,0.0534 0.01103,0.0943 0.03304,0.14297 0.165033,0.15543 0.174539,0.33609 0.206086,0.56546 -0.04711,0.0754 -0.09419,0.15086 -0.128733,0.23415 -0.04708,0.0754 -0.09419,0.15086 -0.133431,0.21372 -0.03772,-0.0236 -0.139738,0.13989 -0.102024,0.16343 -0.03141,0.0503 -0.06281,0.10058 -0.09419,0.15086 -0.08794,0.0849 -0.175897,0.16975 -0.243405,0.24991 -0.04083,0.009 -0.08168,0.0189 -0.102109,0.0236 -0.03772,-0.0236 -0.03772,-0.0236 -0.171145,0.19016 -0.04252,0.0434 -0.168598,0.0918 0.04722,0.20422 0.238878,0.14913 0.477756,0.29827 0.729196,0.45526 0.0079,-0.0126 0.01567,-0.0252 0.03138,-0.0503 0.03771,0.0236 0.07543,0.0471 0.113144,0.0707 0.04717,0.0644 0.102195,0.11623 0.169758,0.17587 0.06601,0.006 0.14455,0.0204 0.223119,0.0345 0.03611,-0.0298 0.08007,-0.0723 0.124037,-0.11472 0.0079,-0.0126 0.02357,-0.0377 0.03927,-0.0629 0.0079,-0.0126 0.0361,-0.0299 0.06437,-0.0472 0.0079,-0.0126 0.0157,-0.0252 0.03613,-0.0299 0.09891,-0.13044 0.197825,-0.26087 0.317165,-0.39605 0.01882,-0.0581 0.03763,-0.11625 0.0769,-0.17912 0.01567,-0.0252 0.03137,-0.0503 0.05495,-0.088 0.145992,-0.20586 0.292013,-0.41175 0.438005,-0.61761 0.03924,-0.0629 0.09108,-0.11787 0.14288,-0.1729 0.104599,-0.15782 0.217545,-0.0826 0.186847,-0.21531 0.183735,-0.18232 0.380032,-0.3568 0.576329,-0.53129 0.106496,-0.0784 0.123698,-0.0302 0.193157,-0.14146 0.127206,-0.14775 0.25591,-0.3819 0.463299,-0.32229 0.03771,0.0236 0.08329,0.0345 0.141436,0.0533 0.138297,0.0863 0.289156,0.18053 0.440014,0.27472 0.163449,0.10205 0.20753,0.33923 0.184046,0.51677 -0.168004,0.1572 -0.168004,0.1572 -0.276309,0.38663 -0.193101,0.28129 -0.378363,0.55004 -0.563598,0.81877 -0.109975,0.0362 -0.109975,0.0362 -0.592088,0.41659 -0.265474,0.0614 -0.53853,0.69467 -0.687663,0.93353 -0.214377,0.24286 -0.341469,0.29504 -0.529165,0.59568 -0.03924,0.0629 -0.07849,0.12571 -0.10989,0.17601 -0.277837,0.473 -0.543113,0.95387 -0.800551,1.42214 -0.02354,0.0377 -0.03452,0.0833 -0.03763,0.11629 -0.15547,0.16504 -0.15547,0.16504 -0.117755,0.18857 -0.05806,0.12101 -0.103553,0.24986 -0.149048,0.3787 -0.0079,0.0126 -0.0079,0.0126 -0.0079,0.0126 -0.149133,0.23887 -0.149133,0.23887 -0.111417,0.26241 -0.0157,0.0252 -0.01882,0.0581 -0.01409,0.0786 -0.03772,-0.0236 -0.15547,0.16504 -0.117755,0.18858 -0.01882,0.0581 -0.02979,0.10369 -0.04077,0.14927 -0.05647,0.1744 -0.112946,0.3488 -0.148991,0.5185 -0.286778,0.37842 -0.35123,0.85377 -0.494224,1.35133 -0.0157,0.0251 -0.01884,0.0581 -0.02196,0.0911 -0.10989,0.17599 -0.10989,0.17599 -0.07217,0.19955 0.0017,0.0534 0.0032,0.10684 0.02521,0.1555 -0.03924,0.0629 -0.07849,0.12573 -0.117728,0.1886 z"
       style="fill:#bc141d;fill-rule:evenodd;stroke-width:0.28293"
       id="path10" />
    <path
       d="m 100.21066,104.02591 c -0.01,-0.003 -0.0197,-0.006 -0.0296,-0.009 -0.0102,-0.10842 -0.0263,-0.13654 -0.187642,-0.4208 -0.03392,0.0198 -0.06174,0.0361 -0.08791,0.0514 -0.002,-0.003 -0.0043,-0.007 -0.0065,-0.0106 0.03621,-0.0212 0.07243,-0.0423 0.120692,-0.0706 0.17907,0.31541 0.17907,0.31541 0.1909,0.45973 z"
       style="fill:#bc141d;fill-rule:evenodd;stroke-width:0.28293"
       id="path11" />
    <path
       d="m 99.003591,102.21114 c -1.13e-4,-5.7e-4 -2.83e-4,-8.8e-4 -2.83e-4,-0.001 0.0038,-0.004 0.0077,-0.009 0.01174,-0.0127 -0.0038,0.005 -0.0077,0.009 -0.01132,0.014 z m -0.02634,-0.19921 c -5.6e-5,-0.001 -1.13e-4,-0.003 -1.41e-4,-0.004 0.02954,-0.0341 0.06573,-0.0553 0.10194,-0.0765 0.03211,0.0316 0.06422,0.0633 0.103014,0.1078 -0.01004,0.008 -0.02006,0.0171 -0.03008,0.0255 -0.03712,-0.0423 -0.06819,-0.073 -0.09925,-0.10358 -0.02595,0.0152 -0.05198,0.0305 -0.07549,0.0504 z"
       style="fill:#bc141d;fill-rule:evenodd;stroke-width:0.28293"
       id="path12" />
    <path
       d="m 98.39331,100.75198 c -0.224165,-0.4691 -0.444173,-0.929284 -0.664094,-1.389555 -0.300727,-0.769429 -0.535078,-1.353228 -0.283185,-2.157628 0.777691,-0.68537 2.002921,-0.714597 2.959819,-0.768184 0.53338,-0.145369 1.56506,-0.462704 1.37852,0.408382 -1.00615,1.141794 -2.32577,2.421913 -2.621658,3.975205 0.113539,0.26094 0.201587,0.63195 0.406118,0.84964 0.07271,-0.0346 0.14551,-0.0693 0.218196,-0.10392 0.02396,-0.20697 0.05435,-0.3301 0.140701,-0.52328 0.386233,-0.17302 0.386233,-0.17302 0.582723,-0.2992 0.24887,-0.39011 0.63297,-1.268323 1.24911,-1.170543 0.13134,0.111305 0.26692,0.231437 0.41155,0.347269 0.21217,0.420524 0.42853,0.849784 0.64486,1.279184 0.72351,-0.0511 1.29525,0.65445 1.6065,1.21236 -0.15352,1.12699 -0.99167,1.73252 -1.82827,2.43498 -0.15878,0.0648 -0.34489,0.14251 -0.5194,0.1278 -0.0247,-0.0751 -0.0452,-0.14135 -0.0658,-0.20761 0.40445,-0.6489 0.95475,-1.22594 1.36822,-1.8792 -0.0168,-0.0354 -0.0205,-0.0663 -0.0241,-0.0971 0.20201,-0.16138 -0.0394,-0.50279 -0.13298,-0.67549 -0.89428,-0.56289 -1.19034,0.6863 -1.49534,1.30957 -0.42075,0.59138 -1.08317,1.63477 -1.933802,1.58339 -1.019285,-0.42728 -1.194363,-1.35433 -0.612064,-2.26175 -0.07254,-0.12836 -0.135948,-0.26111 -0.195165,-0.38509 -0.124829,-0.0274 -0.248328,-0.099 -0.375675,-0.0384 -0.321042,0.87001 -0.180397,1.7482 0.208717,2.56242 0.306669,0.4081 0.654419,0.94878 0.229004,1.39027 -0.147803,-0.006 -0.295634,-0.0113 -0.443436,-0.0169 -0.970225,-0.41815 -1.679985,-1.62286 -2.22539,-2.46054 -0.250818,-0.47812 -0.497476,-0.94733 -0.73494,-1.42096 -0.214914,-0.63653 -0.335838,-1.26337 -0.44222,-1.92984 0.07172,-0.620804 0.143389,-1.241581 0.228494,-1.857917 0.478351,-0.260381 0.892533,-0.468448 1.201493,0.01457 0.06369,0.436902 0.06369,0.436902 0.03808,0.546848 -0.206822,0.174597 -0.413673,0.34908 -0.607226,0.528175 -0.0083,0.286354 -0.01655,0.572824 -0.02057,0.868034 0.189931,1.19162 0.922098,2.86379 1.708673,3.7387 0.02724,-0.013 0.06369,-0.0303 0.100016,-0.0476 0.05121,-1.15427 0.275631,-2.24978 0.563682,-3.37567 -0.0079,-0.0397 -0.01559,-0.0795 -0.01918,-0.11029 z m 1.256183,2.94381 c 0.0017,0.002 0.0036,0.004 0.0055,0.006 -0.002,-0.002 -0.0037,-0.004 -0.0055,-0.006 z m 0.504837,0.53527 c -0.001,-0.003 -0.002,-0.005 -0.004,-0.008 0.001,0.003 0.002,0.005 0.004,0.008 z m -0.005,-0.01 c -0.001,-0.003 -0.002,-0.005 -0.004,-0.008 0.001,0.003 0.002,0.005 0.004,0.008 z m -0.0264,-0.0552 c -10e-4,-0.003 -0.002,-0.005 -0.003,-0.008 0.001,0.002 0.002,0.005 0.003,0.008 z m -0.004,-0.009 c -0.001,-0.002 -0.002,-0.005 -0.003,-0.007 10e-4,0.002 0.002,0.005 0.003,0.007 z m -0.004,-0.009 c -0.001,-0.002 -0.002,-0.005 -0.003,-0.007 0.001,0.002 0.002,0.005 0.003,0.007 z m -0.004,-0.009 c -10e-4,-0.003 -0.002,-0.005 -0.003,-0.007 0.001,0.002 0.002,0.005 0.003,0.007 z m -0.004,-0.008 c -0.001,-0.002 -0.002,-0.005 -0.003,-0.007 10e-4,0.002 0.002,0.005 0.003,0.007 z m -0.008,-0.0172 c -8.8e-4,-0.002 -0.002,-0.004 -0.003,-0.007 0.001,0.002 0.002,0.004 0.003,0.007 z m -0.270791,0.29662 c 0.02922,-0.0794 0.115322,-0.1124 0.203061,-0.13877 -0.08859,0.0267 -0.176268,0.0597 -0.205749,0.13996 -0.09962,0.004 -0.171626,-0.006 -0.232569,-0.0863 0.0011,-2.9e-4 0.002,-8.9e-4 0.0033,-0.001 -0.113456,-0.0753 -0.165967,-0.11572 -0.211152,-0.25653 0.0098,-0.0265 0.03282,-0.0483 0.05588,-0.0701 0.0085,-0.004 0.0172,-0.008 0.03296,-0.0155 -5.66e-4,-0.001 -0.0014,-0.003 -0.002,-0.004 -0.01848,0.009 -0.02756,0.0132 -0.03672,0.0175 -0.014,-0.45312 -0.014,-0.45312 0.01839,-0.47943 0.01055,0.0117 0.02015,0.0222 0.02943,0.0317 -0.0075,-0.008 -0.01537,-0.0167 -0.02385,-0.0261 0.05455,-0.0259 0.113313,-0.0431 0.172106,-0.0602 0.05059,0.0828 0.10095,0.16583 0.164269,0.25308 1.98e-4,-8e-5 2.27e-4,-2.2e-4 2.83e-4,-2.5e-4 5.66e-4,10e-4 0.0014,0.002 0.002,0.003 2.83e-4,2.8e-4 5.66e-4,5.6e-4 8.82e-4,8.8e-4 0,0 -8.5e-5,3e-5 -8.5e-5,3e-5 0.222695,0.32636 0.222895,0.32661 0.289185,0.3714 0.003,0.005 0.005,0.0106 0.007,0.0157 -0.002,-0.005 -0.004,-0.01 -0.006,-0.0145 0.11688,-0.0123 0.11688,-0.0123 0.29498,0.0333 -5.6e-4,0.022 -0.001,0.0441 0.002,0.075 -0.19098,0.091 -0.35457,0.16883 -0.557684,0.21118 z m -0.172418,-0.70922 c 0.002,0.002 0.0042,0.004 0.0062,0.007 -0.002,-0.002 -0.0041,-0.005 -0.0062,-0.007 z m 0.01027,0.0112 c 0.0022,0.003 0.0047,0.005 0.0071,0.008 -0.0026,-0.003 -0.0048,-0.005 -0.0071,-0.008 z m 0.008,0.009 c 0.0095,0.011 0.01961,0.0229 0.03019,0.0363 8.4e-5,-3e-5 1.69e-4,-8e-5 2.82e-4,-1.7e-4 -0.01081,-0.0134 -0.02108,-0.0252 -0.03056,-0.0362 z m 0.406519,0.53565 c 0.0267,-0.008 0.0524,-0.0157 0.0757,-0.0247 -3e-5,-8e-5 -1.1e-4,-2e-5 -1.7e-4,-1.4e-4 -0.0232,0.009 -0.0491,0.0172 -0.0755,0.0248 z m 0.0651,-0.0463 c -0.001,-0.003 -0.002,-0.005 -0.003,-0.007 10e-4,0.003 0.002,0.005 0.003,0.007 z m -0.005,-0.009 c -10e-4,-0.003 -0.002,-0.005 -0.004,-0.008 10e-4,0.003 0.002,0.005 0.004,0.008 z m -0.004,-0.009 c -0.001,-0.003 -0.002,-0.005 -0.003,-0.008 10e-4,0.003 0.003,0.005 0.003,0.008 z m -0.004,-0.009 c -0.001,-0.003 -0.002,-0.005 -0.004,-0.008 0.001,0.003 0.003,0.005 0.004,0.008 z m -0.004,-0.009 c -10e-4,-0.003 -0.002,-0.005 -0.003,-0.007 0.001,0.002 0.002,0.005 0.003,0.007 z m -0.0248,-0.0523 c -10e-4,-0.002 -0.002,-0.004 -0.003,-0.006 0.001,0.002 0.002,0.004 0.003,0.006 z m -1.170995,-4.463706 c -0.04963,0.01279 -0.09934,0.02561 -0.135693,0.04292 -0.08652,-0.110994 -0.173012,-0.221902 -0.246206,-0.328284 -0.273028,-0.641375 -0.29122,-1.099864 -0.230956,-1.791289 0.392566,-0.393302 1.73524,-0.760998 2.07671,-0.163081 -0.431045,0.639762 -0.810907,1.526834 -1.329067,2.077784 0.0036,0.03084 0.0072,0.0618 0.01081,0.09263 -0.05461,0.02603 -0.1001,0.04765 -0.145596,0.06932 z m 2.787745,1.630186 c -0.18003,0.0205 -0.35578,0.0499 -0.53148,0.0793 -0.21149,-0.4425 -0.24027,-1.15671 0.43231,-1.15102 0.25275,0.41195 0.46865,0.70031 0.0992,1.07177 z m -0.76003,2.03869 c -0.21447,-0.0283 -0.47018,-0.49321 -0.48684,-0.69171 0.15074,-0.40864 0.72775,-0.50948 1.09516,-0.65179 0.003,0.52008 -0.20433,1.02076 -0.60832,1.3435 z"
       style="fill:#bc141d;fill-rule:evenodd;stroke-width:0.28293"
       id="path13" />
    <path
       d="m 82.250969,118.85619 -0.12183,0.5282 c -0.213782,-0.043 -0.400827,-0.0412 -0.561956,0.005 -0.161271,0.0462 -0.312412,0.14962 -0.454556,0.30996 -0.142144,0.16045 -0.250959,0.35813 -0.326926,0.59189 -0.06756,0.20798 -0.09631,0.40097 -0.08669,0.57992 0.01064,0.17938 0.05628,0.32554 0.138409,0.438 0.08307,0.11287 0.187187,0.19013 0.314619,0.2315 0.129384,0.042 0.253619,0.0411 0.374968,-0.003 0.121094,-0.0433 0.241735,-0.14072 0.362603,-0.2911 0.07928,-0.0972 0.225439,-0.31878 0.439419,-0.66769 0.213783,-0.34789 0.385182,-0.58561 0.514905,-0.71084 0.166392,-0.16313 0.342432,-0.26804 0.526195,-0.31529 0.183452,-0.0464 0.36962,-0.0388 0.559353,0.0228 0.207048,0.0673 0.382465,0.18894 0.524327,0.36529 0.142823,0.17677 0.223826,0.39375 0.244197,0.65036 0.01924,0.2573 -0.01545,0.5236 -0.105392,0.80053 -0.09936,0.30568 -0.235369,0.55808 -0.409994,0.75984 -0.173408,0.20108 -0.376354,0.33326 -0.607848,0.39684 -0.231097,0.0626 -0.469749,0.0602 -0.714399,-0.009 l 0.130431,-0.53497 c 0.268981,0.0556 0.497278,0.0249 0.68206,-0.0941 0.185857,-0.11869 0.329473,-0.33581 0.432176,-0.65199 0.107118,-0.32958 0.124575,-0.58875 0.05305,-0.77941 -0.07184,-0.18965 -0.192845,-0.3127 -0.362518,-0.36776 -0.148511,-0.0484 -0.287628,-0.0342 -0.417097,0.0414 -0.130035,0.0743 -0.316486,0.31564 -0.559947,0.72589 -0.244452,0.40999 -0.430366,0.68551 -0.558675,0.82599 -0.188997,0.20342 -0.386454,0.33527 -0.592174,0.39448 -0.206623,0.0589 -0.420547,0.0519 -0.640865,-0.0196 -0.219469,-0.0713 -0.405241,-0.20056 -0.558024,-0.38894 -0.152754,-0.18846 -0.244649,-0.41749 -0.276678,-0.68741 -0.03101,-0.26964 0.0011,-0.55152 0.09651,-0.84483 0.121093,-0.37271 0.276281,-0.66761 0.467061,-0.88319 0.190186,-0.21679 0.417209,-0.36128 0.682371,-0.434 0.263918,-0.0721 0.535701,-0.0675 0.812916,0.0152 z m -2.505604,3.59316 4.232781,0.89969 -0.11917,0.56069 -1.738467,-0.36949 -0.467514,2.19965 1.738467,0.36947 -0.119227,0.56083 -4.232753,-0.89969 0.119227,-0.56082 1.99466,0.42394 0.467542,-2.19956 -1.994687,-0.42403 z m -0.732167,3.80985 4.234365,1.88664 -0.0322,0.61574 -4.414138,1.54235 0.03415,-0.65193 1.335431,-0.43557 0.0947,-1.80706 -1.284109,-0.54243 z m 1.70955,1.33966 -0.07687,1.46591 1.219968,-0.389 c 0.370412,-0.11786 0.674619,-0.20475 0.912535,-0.25888 -0.274811,-0.0699 -0.545405,-0.16172 -0.813765,-0.27674 z m -1.945853,3.17954 4.321394,-0.22648 0.03073,0.58654 -3.27376,2.44771 3.392703,-0.17782 0.02874,0.54832 -4.321366,0.22649 -0.03076,-0.58658 3.276787,-2.44788 -3.395731,0.17796 z m 2.319209,6.12372 0.501805,-0.0706 0.258032,1.81443 -1.589305,0.22335 c -0.261625,-0.24714 -0.468673,-0.51104 -0.623041,-0.79145 -0.153376,-0.28069 -0.252062,-0.57706 -0.295775,-0.88843 -0.05922,-0.42099 -0.02326,-0.81676 0.109126,-1.18539 0.131252,-0.36942 0.35621,-0.66554 0.671706,-0.88894 0.316542,-0.2236 0.685314,-0.36495 1.106314,-0.42417 0.417096,-0.0586 0.818517,-0.0254 1.204265,0.0984 0.386511,0.12277 0.690322,0.33644 0.911857,0.63904 0.2206,0.30264 0.361415,0.66745 0.421424,1.09457 0.04343,0.30921 0.03302,0.59664 -0.03256,0.8612 -0.06462,0.26443 -0.176606,0.48062 -0.33632,0.64758 -0.159545,0.16786 -0.377854,0.3084 -0.65572,0.4238 l -0.212594,-0.49204 c 0.209369,-0.0956 0.369762,-0.1995 0.481152,-0.31187 0.111276,-0.1133 0.191799,-0.26398 0.241736,-0.4521 0.05,-0.18713 0.06015,-0.39002 0.02979,-0.60547 -0.03641,-0.25942 -0.107852,-0.4783 -0.213187,-0.65586 -0.105448,-0.17842 -0.230532,-0.3155 -0.375704,-0.41418 -0.14486,-0.0976 -0.29818,-0.16761 -0.461969,-0.21073 -0.279676,-0.0716 -0.574716,-0.0861 -0.885006,-0.0425 -0.382126,0.0537 -0.692218,0.16441 -0.931039,0.33228 -0.238907,0.16786 -0.402582,0.38625 -0.491932,0.65518 -0.0894,0.26892 -0.114756,0.54419 -0.07512,0.82653 0.03463,0.24645 0.116143,0.47922 0.243716,0.69928 0.126782,0.22129 0.252346,0.38374 0.377118,0.48933 l 0.798204,-0.11221 z m -1.113813,2.88617 4.138197,-1.26521 0.167608,0.54821 -1.699591,0.51966 0.657474,2.15044 1.699619,-0.51957 0.167608,0.54826 -4.138253,1.26518 -0.167608,-0.54827 1.950182,-0.59624 -0.65753,-2.15053 -1.950098,0.59624 z m 1.198097,3.70024 4.632845,-0.16056 0.240916,0.56762 -3.291218,3.32123 -0.25509,-0.601 1.009327,-0.97681 -0.707043,-1.66561 -1.391962,0.0753 z m 2.123789,0.45465 0.573529,1.35128 0.925946,-0.88447 c 0.281233,-0.26825 0.516603,-0.47977 0.706647,-0.63267 -0.277667,0.0576 -0.561079,0.0937 -0.852724,0.108 z m -0.180849,3.67903 3.820778,-2.03159 0.268642,0.50529 -3.820749,2.0315 z m 7.04129,2.86238 0.345034,0.45789 -1.997178,1.50497 c -0.346816,0.26131 -0.652494,0.42985 -0.91627,0.50503 -0.263776,0.0751 -0.536295,0.0584 -0.818829,-0.0504 -0.283355,-0.10813 -0.549479,-0.32899 -0.800467,-0.66206 -0.243801,-0.32353 -0.38835,-0.63087 -0.43113,-0.92037 -0.04417,-0.28963 0.0067,-0.55873 0.152104,-0.80596 0.144945,-0.24799 0.400319,-0.50848 0.766402,-0.78434 l 1.997149,-1.50496 0.344355,0.45696 -1.994687,1.50316 c -0.30019,0.22614 -0.500193,0.42108 -0.599983,0.58328 -0.100554,0.16292 -0.13725,0.3419 -0.112606,0.53528 0.02513,0.19421 0.112068,0.38982 0.260041,0.58624 0.253478,0.33634 0.510633,0.51852 0.771381,0.5465 0.259448,0.0279 0.606208,-0.12129 1.039996,-0.44813 z m -2.464296,3.75211 3.215844,-2.89551 0.393019,0.43651 -1.003837,3.96243 2.524757,-2.27328 0.367414,0.40804 -3.215815,2.89554 -0.393019,-0.43646 1.006016,-3.9645 -2.526965,2.2753 z m 3.146865,3.17881 2.895596,-3.21576 0.425216,0.38286 -2.89551,3.21584 z m 2.196899,1.79581 1.265321,-4.46492 0.495667,0.37349 -0.993794,3.18718 c -0.07913,0.25569 -0.161242,0.49032 -0.245187,0.7021 0.195731,-0.14769 0.399639,-0.2893 0.61294,-0.42502 l 2.825146,-1.80711 0.46675,0.35166 -3.957688,2.43614 z m 2.236141,1.63975 2.228727,-3.70922 2.681526,1.61124 -0.263092,0.43783 -2.190958,-1.31642 -0.682314,1.1356 2.051896,1.23298 -0.26157,0.43524 -2.051896,-1.2329 -0.758621,1.26257 2.277279,1.36837 -0.263097,0.43786 z m 3.515552,2.05518 1.690821,-3.98329 1.7658,0.74953 c 0.35524,0.15078 0.6098,0.30153 0.76405,0.45131 0.15422,0.14975 0.24813,0.33842 0.28262,0.56648 0.0333,0.2287 0.003,0.45224 -0.09,0.67109 -0.12008,0.2829 -0.31168,0.48171 -0.57766,0.59757 -0.26497,0.11629 -0.60018,0.11957 -1.00469,0.0103 0.11167,0.12619 0.18945,0.23689 0.23384,0.33346 0.0941,0.20631 0.16453,0.44522 0.21297,0.71542 l 0.23256,1.37818 -0.66313,-0.28149 -0.17482,-1.05267 c -0.0528,-0.30372 -0.10191,-0.5413 -0.14848,-0.7099 -0.0454,-0.16922 -0.0966,-0.29606 -0.15411,-0.37958 -0.0572,-0.0845 -0.12198,-0.15351 -0.19494,-0.20866 -0.0552,-0.0376 -0.14984,-0.0855 -0.2861,-0.14333 l -0.61122,-0.25942 -0.750725,1.7686 z m 1.471241,-2.00131 1.13333,0.48109 c 0.24018,0.10198 0.43999,0.15726 0.59665,0.16467 0.15756,0.008 0.29441,-0.0283 0.41138,-0.10779 0.11687,-0.0796 0.20249,-0.18331 0.25721,-0.31222 0.0799,-0.18825 0.078,-0.37191 -0.008,-0.55168 -0.0847,-0.17935 -0.27518,-0.3314 -0.57104,-0.45697 l -1.26037,-0.53496 z m 2.78231,2.20941 0.5282,0.12183 c -0.043,0.21378 -0.0412,0.40082 0.005,0.56195 0.0462,0.16125 0.14962,0.31242 0.30992,0.45456 0.16049,0.14215 0.35814,0.25093 0.59193,0.32693 0.20795,0.0675 0.40096,0.0963 0.57992,0.0867 0.17938,-0.0107 0.32551,-0.0563 0.438,-0.13841 0.11286,-0.0831 0.1901,-0.18719 0.23149,-0.31462 0.042,-0.12938 0.0411,-0.25362 -0.003,-0.375 -0.0433,-0.12109 -0.14077,-0.24171 -0.29112,-0.3626 -0.0972,-0.0792 -0.31877,-0.22542 -0.66768,-0.43939 -0.34792,-0.21379 -0.58561,-0.38518 -0.71087,-0.51491 -0.1631,-0.16639 -0.26804,-0.34243 -0.31527,-0.5262 -0.0464,-0.18345 -0.0388,-0.36964 0.0228,-0.55935 0.0673,-0.20705 0.18891,-0.38246 0.36529,-0.52435 0.17675,-0.1428 0.39376,-0.2238 0.65037,-0.24417 0.25727,-0.0192 0.5236,0.0154 0.80053,0.10539 0.30568,0.0994 0.55808,0.23537 0.75984,0.40997 0.20108,0.17343 0.33326,0.37638 0.39681,0.60787 0.0626,0.2311 0.0603,0.46976 -0.009,0.7144 l -0.53497,-0.13045 c 0.0556,-0.26899 0.0249,-0.49726 -0.0941,-0.68204 -0.11869,-0.18586 -0.33581,-0.32947 -0.65196,-0.43217 -0.32961,-0.10715 -0.58878,-0.12458 -0.77941,-0.0531 -0.18968,0.0719 -0.3127,0.19287 -0.36776,0.36254 -0.0483,0.14849 -0.0342,0.28764 0.0414,0.41707 0.0743,0.13007 0.3156,0.31652 0.72588,0.55995 0.40997,0.24448 0.68552,0.4304 0.82599,0.5587 0.20343,0.18897 0.33527,0.38646 0.39449,0.59215 0.0589,0.20665 0.0519,0.42055 -0.0196,0.64089 -0.0713,0.21947 -0.20054,0.40524 -0.38894,0.55803 -0.18843,0.15275 -0.41746,0.24465 -0.68738,0.27665 -0.26967,0.031 -0.55155,-8e-4 -0.84483,-0.0965 -0.37271,-0.1211 -0.66763,-0.27629 -0.8832,-0.46706 -0.21681,-0.19022 -0.36127,-0.41721 -0.43398,-0.68241 -0.0721,-0.26388 -0.0675,-0.53569 0.0152,-0.81288 z m 3.71431,2.56459 0.89963,-4.23275 0.55975,0.119 -0.89971,4.23278 z m 2.67151,0.51765 0.66266,-3.75856 -1.40394,-0.24751 0.0887,-0.50307 3.37748,0.59556 -0.0887,0.503 -1.41001,-0.24859 -0.66268,3.75854 z m 3.94773,0.51236 0.25829,-1.766 -1.48106,-2.65994 0.62613,0.0952 1.14009,2.11903 1.3061,-1.84298 0.63076,0.11748 -1.73606,2.23039 -0.20976,1.78612 z m 4.24713,-2.24715 c -0.11235,-0.70945 -0.0103,-1.29486 0.3074,-1.75623 0.31756,-0.4614 0.77735,-0.74035 1.38033,-0.83584 0.3941,-0.0624 0.76538,-0.0242 1.11155,0.11369 0.34645,0.139 0.62986,0.3634 0.84953,0.67442 0.21938,0.30995 0.36266,0.68005 0.43031,1.10688 0.0687,0.4339 0.0435,0.83575 -0.0775,1.20483 -0.12096,0.37004 -0.32778,0.66803 -0.62029,0.89482 -0.29352,0.22708 -0.62497,0.36946 -0.99615,0.42819 -0.40303,0.0638 -0.7776,0.0242 -1.1249,-0.12075 -0.34812,-0.14376 -0.63006,-0.37143 -0.84653,-0.68201 -0.21638,-0.30947 -0.35437,-0.65283 -0.41378,-1.028 z m 0.58462,-0.0834 c 0.0816,0.51544 0.28406,0.89859 0.60773,1.15128 0.32458,0.2526 0.69533,0.34582 1.11327,0.27958 0.4259,-0.0675 0.75257,-0.27212 0.97976,-0.61514 0.22722,-0.34302 0.29827,-0.78991 0.21113,-1.34019 -0.055,-0.34729 -0.16286,-0.64135 -0.32138,-0.88251 -0.15858,-0.24112 -0.36255,-0.41481 -0.61113,-0.52232 -0.24949,-0.10641 -0.51452,-0.13781 -0.7962,-0.0932 -0.40097,0.0635 -0.72356,0.25535 -0.96847,0.57673 -0.24507,0.32031 -0.31657,0.80298 -0.21471,1.4458 z m 4.57696,1.29667 -1.11995,-4.1799 2.82028,-0.75568 0.13224,0.49346 -2.26661,0.60734 0.34684,1.29432 1.96094,-0.52546 0.13224,0.49346 -1.96099,0.52541 0.50876,1.89871 z m 5.52495,-1.69848 -1.76011,-3.95317 2.85788,-1.27248 0.20778,0.46676 -2.33505,1.03957 0.53893,1.21032 2.18688,-0.97362 0.20654,0.46392 -2.18689,0.97361 0.59906,1.34565 2.42714,-1.08059 0.20776,0.46663 z m 3.66771,-1.67198 -2.29312,-3.66972 0.48616,-0.30381 2.02241,3.23655 1.80711,-1.1292 0.27074,0.43325 z m 2.88049,-1.75284 -2.66416,-3.40997 2.46515,-1.92599 0.3145,0.40253 -2.01412,1.57366 0.81563,1.04404 1.88635,-1.47381 0.3127,0.40014 -1.88636,1.47385 0.90679,1.16066 2.09366,-1.63568 0.31448,0.4025 z m 4.43318,-5.65666 0.51824,-0.28488 c 0.23257,0.42516 0.31873,0.83521 0.2601,1.22877 -0.0601,0.39355 -0.2548,0.7432 -0.58487,1.05105 -0.34116,0.3181 -0.68285,0.50718 -1.02574,0.56793 -0.34351,0.06 -0.69394,0.0107 -1.05055,-0.14857 -0.35725,-0.16005 -0.67708,-0.39081 -0.95885,-0.69287 -0.30712,-0.32941 -0.5125,-0.67518 -0.61534,-1.03804 -0.10279,-0.36288 -0.0975,-0.71626 0.0164,-1.0609 0.11326,-0.3439 0.30995,-0.64568 0.58915,-0.90611 0.31682,-0.29547 0.65773,-0.46319 1.02415,-0.50317 0.36634,-0.04 0.72761,0.0461 1.08515,0.25956 l -0.32124,0.48138 c -0.2887,-0.16192 -0.55081,-0.23022 -0.78912,-0.20504 -0.23749,0.0245 -0.46157,0.13572 -0.67382,0.3336 -0.24319,0.22683 -0.39155,0.47396 -0.44655,0.74286 -0.0543,0.26973 -0.0236,0.53311 0.0942,0.79099 0.11648,0.2579 0.27232,0.49146 0.46678,0.69995 0.25149,0.26966 0.50905,0.46759 0.77469,0.59591 0.26575,0.12691 0.52752,0.16393 0.7861,0.10872 0.25853,-0.0551 0.48355,-0.17276 0.67662,-0.3527 0.23438,-0.21859 0.36937,-0.47114 0.40646,-0.75791 0.0364,-0.28743 -0.0414,-0.5909 -0.23198,-0.91053 z m 2.62101,-0.61206 -2.88029,-2.50385 -0.93534,1.07599 -0.38552,-0.33514 2.25003,-2.58839 0.38552,0.33513 -0.93927,1.08055 2.88029,2.50384 z m 1.71414,-1.99644 -3.62924,-2.35682 1.04478,-1.60883 c 0.21019,-0.32364 0.40287,-0.54811 0.57706,-0.67402 0.17429,-0.1259 0.37644,-0.18566 0.60709,-0.17997 0.23095,0.007 0.44578,0.0756 0.64522,0.20515 0.25775,0.16736 0.42026,0.39056 0.48817,0.67264 0.0685,0.28115 0.0135,0.61181 -0.16433,0.99119 0.14361,-0.088 0.26624,-0.14542 0.36903,-0.17235 0.21952,-0.0569 0.46706,-0.0847 0.74145,-0.0855 l 1.3977,0.0103 -0.39234,0.6042 -1.0671,-0.0107 c -0.30828,-8e-4 -0.55073,0.006 -0.7249,0.023 -0.17453,0.0152 -0.30827,0.0436 -0.40057,0.0858 -0.0931,0.0417 -0.17233,0.0935 -0.2393,0.15578 -0.0467,0.0478 -0.1102,0.13266 -0.19086,0.2569 l -0.36162,0.55686 1.61138,1.04639 z m -1.7155,-1.79633 0.67063,-1.03264 c 0.14209,-0.21879 0.23125,-0.40597 0.2657,-0.55901 0.035,-0.15377 0.0233,-0.29485 -0.0347,-0.42383 -0.058,-0.12891 -0.14528,-0.2313 -0.2627,-0.30755 -0.17159,-0.11139 -0.35278,-0.14141 -0.54472,-0.0881 -0.19132,0.0523 -0.37409,0.21353 -0.54911,0.48302 l -0.74575,1.14838 z m 4.09211,-1.99056 -3.82083,-2.03149 0.26864,-0.50529 3.82083,2.03158 z m 0.75534,-4.81448 0.37378,-0.45823 c 0.37483,0.30706 0.60833,0.65498 0.70141,1.04183 0.0917,0.38742 0.0422,0.78456 -0.14854,1.19363 -0.19714,0.42275 -0.44315,0.72608 -0.73825,0.91081 -0.29606,0.18436 -0.63948,0.26991 -1.02975,0.25579 -0.39121,-0.0146 -0.77421,-0.10864 -1.14858,-0.28321 -0.40818,-0.19038 -0.7281,-0.43399 -0.95939,-0.73197 -0.23121,-0.2979 -0.35873,-0.62751 -0.38219,-0.98978 -0.0238,-0.36127 0.0454,-0.71473 0.20677,-1.06085 0.18311,-0.39259 0.43631,-0.6758 0.76102,-0.85009 0.32473,-0.17437 0.69194,-0.22991 1.10341,-0.16587 l -0.11747,0.56661 c -0.3284,-0.0419 -0.59699,-0.007 -0.80851,0.10554 -0.21104,0.11167 -0.37717,0.29872 -0.49979,0.5617 -0.14053,0.30138 -0.18544,0.58615 -0.13573,0.85607 0.0507,0.27045 0.17782,0.50313 0.38372,0.69807 0.20458,0.19548 0.43653,0.35366 0.69496,0.47416 0.3342,0.15584 0.64714,0.24284 0.94153,0.26228 0.29391,0.0181 0.55047,-0.0456 0.76952,-0.19367 0.21907,-0.14794 0.38373,-0.34127 0.49527,-0.58052 0.13541,-0.29045 0.16593,-0.57519 0.093,-0.85492 -0.0739,-0.28016 -0.2597,-0.53237 -0.55616,-0.75738 z m 2.53828,-2.515 -4.19883,-1.04687 0.39489,-1.58367 c 0.0695,-0.27869 0.13626,-0.48835 0.19921,-0.62839 0.0857,-0.19775 0.19429,-0.35446 0.32599,-0.47009 0.13041,-0.11493 0.29431,-0.19353 0.48851,-0.23543 0.19528,-0.0416 0.39636,-0.0362 0.6046,0.0157 0.35679,0.089 0.63152,0.27795 0.82239,0.56642 0.18953,0.28925 0.21132,0.73079 0.0634,1.32415 l -0.26867,1.07734 1.70686,0.42556 z m -2.06411,-1.10447 0.27084,-1.08609 c 0.0894,-0.35881 0.0865,-0.63045 -0.01,-0.81444 -0.0963,-0.18391 -0.26531,-0.30599 -0.50774,-0.36648 -0.1759,-0.0439 -0.33743,-0.0374 -0.48478,0.0204 -0.1473,0.0577 -0.25843,0.15366 -0.33482,0.28933 -0.0479,0.0877 -0.10344,0.25661 -0.16634,0.50882 l -0.26784,1.0744 z m 0.8642,-2.99055 c -0.70945,-0.11241 -1.23465,-0.39042 -1.57526,-0.8351 -0.34071,-0.44459 -0.46393,-0.96807 -0.36836,-1.57105 0.0624,-0.39409 0.21336,-0.73537 0.45157,-1.022 0.23924,-0.2865 0.54022,-0.4867 0.9039,-0.59951 0.3626,-0.11289 0.75882,-0.13481 1.18573,-0.0673 0.4339,0.0688 0.80828,0.21681 1.12191,0.44601 0.31456,0.22937 0.53403,0.51813 0.65939,0.86645 0.12523,0.3493 0.15811,0.70857 0.0994,1.07966 -0.0639,0.40303 -0.21732,0.74699 -0.46251,1.03255 -0.24433,0.28669 -0.54801,0.48444 -0.91022,0.59438 -0.36118,0.11012 -0.73035,0.13527 -1.10552,0.0759 z m 0.10138,-0.58174 c 0.5155,0.0817 0.94241,0.007 1.28269,-0.22221 0.34056,-0.2307 0.54379,-0.55454 0.61,-0.97248 0.0674,-0.42581 -0.0263,-0.79979 -0.28233,-1.12185 -0.25603,-0.32209 -0.65906,-0.52772 -1.20934,-0.61487 -0.34729,-0.055 -0.66033,-0.0434 -0.93859,0.033 -0.27835,0.0763 -0.50662,0.21658 -0.68565,0.41976 -0.1783,0.20436 -0.29009,0.44674 -0.33468,0.72843 -0.0635,0.40096 0.0192,0.76705 0.24915,1.0993 0.22895,0.33207 0.66593,0.54913 1.30875,0.65099 z m 2.64707,-4.67683 -4.32734,1.14858 v -0.58737 l 2.83618,-0.65891 c 0.29728,-0.0705 0.59246,-0.13099 0.88563,-0.18238 -0.46245,-0.1108 -0.72843,-0.1753 -0.79993,-0.19547 l -2.92188,-0.82314 v -0.69111 l 2.19037,-0.61964 c 0.54305,-0.15516 1.05389,-0.26703 1.53144,-0.33655 -0.27306,-0.0544 -0.58737,-0.12689 -0.94103,-0.21559 l -2.78078,-0.6781 v -0.57625 l 4.32734,1.18687 v 0.55214 l -3.29665,0.91179 c -0.27605,0.0765 -0.44533,0.12189 -0.50775,0.13599 0.19848,0.0453 0.36776,0.0877 0.50775,0.12698 l 3.29665,0.91782 z m -0.17262,-4.93298 -4.27406,0.67697 -0.48938,-3.08986 0.50455,-0.08 0.39983,2.52456 1.30856,-0.20725 -0.37451,-2.36436 0.50163,-0.0795 0.37449,2.36437 1.45477,-0.23042 -0.4156,-2.62407 0.50455,-0.08 z m -0.67097,-3.97647 -4.17981,1.12004 -0.49655,-1.85295 c -0.0998,-0.37276 -0.13778,-0.66613 -0.11473,-0.87985 0.0231,-0.21379 0.11394,-0.40392 0.27238,-0.57158 0.15971,-0.16693 0.3546,-0.28067 0.58428,-0.34223 0.29679,-0.0796 0.57144,-0.0509 0.82647,0.0873 0.25481,0.13719 0.46372,0.39929 0.62672,0.78536 0.0306,-0.16566 0.07,-0.29519 0.11875,-0.3896 0.10471,-0.20122 0.2496,-0.40377 0.43263,-0.60821 l 0.94289,-1.03183 0.18645,0.6959 -0.72187,0.78581 c -0.20691,0.22864 -0.36382,0.41353 -0.46799,0.55409 -0.10548,0.13994 -0.17384,0.25835 -0.20425,0.35511 -0.0314,0.0971 -0.0459,0.19067 -0.0443,0.28208 0.004,0.0666 0.0248,0.17069 0.0631,0.31372 l 0.17188,0.6414 1.85588,-0.49734 z m -2.48279,0.0728 -0.31864,-1.18927 c -0.0675,-0.25201 -0.14702,-0.44356 -0.23764,-0.57152 -0.0909,-0.12899 -0.20356,-0.21461 -0.33821,-0.25783 -0.13459,-0.0431 -0.26912,-0.0468 -0.40431,-0.0105 -0.1976,0.0529 -0.34116,0.16749 -0.43005,0.34577 -0.0891,0.17717 -0.0916,0.42089 -0.008,0.73132 l 0.35437,1.32258 z"
       style="fill:#bc121d;fill-rule:evenodd;stroke-width:0.28293"
       id="path14" />
    <path
       d="m 131.85076,107.3053 c 0.006,-0.007 0.0115,-0.014 0.0174,-0.0211 0.005,-0.006 0.009,-0.0112 0.0128,-0.0155 0.005,-0.006 0.008,-0.01 0.0115,-0.014 0.008,-0.01 0.0162,-0.0196 0.0243,-0.0295 0.005,-0.006 0.009,-0.0112 0.0127,-0.0155 0.44129,-0.40137 0.56222,-0.84928 0.79331,-1.40238 0.0253,-0.16557 0.0253,-0.16557 0.0224,-0.3426 0.0164,0.009 0.0342,0.0187 0.0508,0.03 8e-4,0.008 2.9e-4,0.0168 0.002,0.0271 0.004,0.003 0.01,0.008 0.0155,0.0127 0.004,0.003 0.008,0.007 0.014,0.0116 0.009,-0.002 0.0191,-0.003 0.0282,-0.003 0.004,0.003 0.008,0.007 0.014,0.0116 0.009,-0.002 0.018,-0.002 0.0271,-0.001 0.005,-0.006 0.009,-0.0113 0.0128,-0.0155 0.005,-0.006 0.008,-0.01 0.0115,-0.0141 0.009,-0.002 0.0177,-0.004 0.0268,-0.004 0.005,-0.006 0.008,-0.01 0.0116,-0.0141 0.01,0.008 0.0197,0.0162 0.0295,0.0243 8.1e-4,0.008 0.003,0.0165 0.004,0.0268 0.004,0.003 0.008,0.007 0.0141,0.0116 0.004,0.003 0.01,0.008 0.0155,0.0127 0.004,0.003 0.008,0.007 0.0141,0.0116 0.009,-0.002 0.018,-0.002 0.027,-10e-4 0.009,-0.002 0.0176,-0.004 0.0268,-0.004 0.009,-0.002 0.018,-0.002 0.027,-0.001 0.009,-0.002 0.0177,-0.004 0.0268,-0.004 0.005,-0.006 0.008,-0.01 0.0115,-0.0141 0.005,-0.006 0.009,-0.0113 0.0128,-0.0155 0.24471,8.9e-4 0.45334,0.2835 0.59526,0.45224 0.25246,0.50749 0.25815,0.793 0.12092,1.32663 -0.0683,0.083 -0.13778,0.16738 -0.20725,0.25181 -0.009,-5.7e-4 -0.0168,2.8e-4 -0.0257,0.002 -0.003,0.004 -0.008,0.01 -0.0128,0.0155 -0.0162,0.0197 -0.0324,0.0394 -0.0486,0.0591 -0.009,-2.9e-4 -0.0182,-8e-4 -0.027,0.002 -0.003,0.004 -0.008,0.01 -0.0128,0.0155 -0.009,-2.9e-4 -0.0168,2.8e-4 -0.0257,0.002 -0.003,0.004 -0.008,0.01 -0.0128,0.0155 -0.003,0.004 -0.007,0.008 -0.0115,0.014 -0.003,0.004 -0.008,0.01 -0.0127,0.0155 -0.009,-2.8e-4 -0.0182,-8e-4 -0.027,0.002 -0.003,0.004 -0.008,0.01 -0.0128,0.0155 -0.0162,0.0197 -0.0324,0.0394 -0.0486,0.0591 -0.0681,0.0455 -0.15545,0.1057 -0.23586,0.0772 -0.006,-0.005 -0.0112,-0.009 -0.0155,-0.0127 -0.006,-0.005 -0.01,-0.008 -0.014,-0.0115 -0.009,-5.7e-4 -0.0193,5.7e-4 -0.0282,0.003 -0.009,-5.7e-4 -0.0168,2.8e-4 -0.0257,0.002 -0.006,-0.005 -0.0112,-0.009 -0.0155,-0.0127 -0.006,-0.005 -0.01,-0.008 -0.014,-0.0115 -0.009,-2.8e-4 -0.0193,5.7e-4 -0.0282,0.003 -0.009,-5.6e-4 -0.0168,2.8e-4 -0.0257,0.002 -0.009,-5.6e-4 -0.0194,5.7e-4 -0.0282,0.003 -0.003,0.004 -0.007,0.008 -0.0116,0.014 -0.003,0.004 -0.008,0.01 -0.0128,0.0155 -0.28906,-0.0846 -0.49792,-0.2494 -0.72283,-0.44632 -8e-4,-0.0103 -5.6e-4,-0.0194 -0.002,-0.0271 -0.006,-0.005 -0.0112,-0.009 -0.0155,-0.0127 -0.006,-0.005 -0.01,-0.008 -0.014,-0.0115 -0.006,-0.005 -0.0112,-0.009 -0.0155,-0.0127 -0.009,-5.7e-4 -0.018,0.002 -0.0268,0.004 -0.009,-2.8e-4 -0.0182,-8e-4 -0.027,0.002 -0.009,-2.9e-4 -0.018,0.002 -0.0268,0.004 -0.009,-2.8e-4 -0.0182,-8e-4 -0.027,0.002 -0.003,0.004 -0.008,0.01 -0.0128,0.0155 -0.0278,-0.006 -0.0556,-0.0127 -0.0834,-0.0191 -0.006,0.007 -0.0115,0.014 -0.0173,0.0211 -0.0352,-0.029 -0.069,-0.0567 -0.10271,-0.0845 z"
       style="fill:#bc141d;fill-rule:evenodd;stroke-width:0.28293"
       id="path15" />
    <path
       d="m 128.13974,103.59458 c -8e-4,-0.0103 -0.002,-0.018 -0.002,-0.0257 -0.006,-0.005 -0.0112,-0.009 -0.0155,-0.0127 -0.01,-0.008 -0.0197,-0.0162 -0.0295,-0.0243 -0.006,-0.005 -0.01,-0.008 -0.014,-0.0116 -0.009,-2.9e-4 -0.0182,-8.9e-4 -0.027,0.001 -0.009,-2.8e-4 -0.018,0.002 -0.0269,0.004 -0.009,-5.7e-4 -0.0182,-8.8e-4 -0.027,0.001 -0.009,-5.6e-4 -0.018,0.002 -0.0268,0.004 -0.0172,0.009 -0.0344,0.0189 -0.0514,0.0309 -0.0451,-0.0513 -0.046,-0.0874 -0.0553,-0.15643 0.0972,-0.11815 0.19452,-0.23633 0.29179,-0.35448 0.1364,-0.0482 0.1364,-0.0482 0.41642,-0.19056 0.009,-0.002 0.0165,-0.003 0.0257,-0.003 0.004,0.003 0.01,0.008 0.0155,0.0128 0.009,-0.002 0.0177,-0.004 0.0268,-0.004 0.009,-0.002 0.018,-0.002 0.0271,-0.001 0.005,-0.006 0.009,-0.0113 0.0128,-0.0155 0.009,-0.002 0.0165,-0.003 0.0257,-0.003 0.005,-0.006 0.009,-0.0113 0.0128,-0.0155 0.0123,-0.006 0.0261,-0.0116 0.0398,-0.0168 0.005,-0.006 0.008,-0.01 0.0115,-0.0141 0.009,-0.002 0.0177,-0.004 0.0268,-0.004 0.009,-0.002 0.018,-0.002 0.027,-10e-4 0.009,-0.002 0.0177,-0.004 0.0268,-0.004 0.005,-0.006 0.008,-0.01 0.0115,-0.0141 0.009,-0.002 0.0191,-0.003 0.0282,-0.003 0.009,-0.002 0.0165,-0.003 0.0257,-0.003 0.009,-0.002 0.0191,-0.003 0.0282,-0.003 0.009,-0.002 0.0165,-0.003 0.0257,-0.003 0.009,-0.002 0.0191,-0.003 0.0282,-0.003 0.009,-0.002 0.0165,-0.003 0.0257,-0.003 0.009,-0.002 0.0191,-0.003 0.0282,-0.003 0.005,-0.006 0.008,-0.01 0.0115,-0.0141 0.005,-0.006 0.009,-0.0113 0.0128,-0.0155 0.005,-0.006 0.008,-0.01 0.0115,-0.0141 0.005,-0.006 0.009,-0.0113 0.0127,-0.0155 0.0492,2.9e-4 0.0999,0.002 0.14932,0.005 0.37944,-0.25167 0.8825,-0.34965 1.20708,-0.64647 0.21797,-0.36804 -0.40267,-0.77509 -0.1213,-1.11693 0.0116,1.7e-4 0.0221,0.002 0.0341,0.004 0.004,0.003 0.01,0.008 0.0155,0.0127 0.004,0.003 0.008,0.007 0.0141,0.0116 0.009,-0.002 0.0191,-0.003 0.0282,-0.003 0.009,-0.002 0.0165,-0.003 0.0257,-0.003 0.009,-0.002 0.0191,-0.003 0.0282,-0.003 0.009,-0.002 0.0165,-0.003 0.0257,-0.003 0.009,-0.002 0.0191,-0.003 0.0282,-0.003 0.009,-0.002 0.0165,-0.003 0.0257,-0.003 0.009,-0.002 0.0191,-0.003 0.0282,-0.003 0.005,-0.006 0.008,-0.01 0.0115,-0.0141 0.009,-0.002 0.0177,-0.004 0.0268,-0.004 0.005,-0.006 0.008,-0.01 0.0115,-0.0141 0.009,-0.002 0.0191,-0.003 0.0282,-0.003 0.009,-0.002 0.0165,-0.003 0.0257,-0.003 0.005,-0.006 0.009,-0.0113 0.0127,-0.0155 0.005,-0.006 0.008,-0.01 0.0115,-0.0141 0.005,-0.006 0.009,-0.0113 0.0128,-0.0155 0.005,-0.006 0.008,-0.01 0.0115,-0.014 0.0314,-0.0238 0.0314,-0.0238 0.13204,-0.04 0.004,0.003 0.01,0.008 0.0155,0.0128 0.004,0.003 0.008,0.007 0.014,0.0116 0.009,-0.002 0.0191,-0.003 0.0282,-0.003 0.009,-0.002 0.0165,-0.003 0.0257,-0.003 0.009,-0.002 0.0192,-0.003 0.0282,-0.003 0.004,0.003 0.008,0.007 0.0141,0.0116 0.009,-0.002 0.018,-0.002 0.027,-10e-4 0.009,-0.002 0.0177,-0.004 0.0268,-0.004 0.005,-0.006 0.008,-0.01 0.0115,-0.0141 0.009,-0.002 0.0192,-0.003 0.0282,-0.003 0.005,-0.006 0.008,-0.01 0.0116,-0.0141 0.005,-0.006 0.009,-0.0113 0.0127,-0.0155 0.005,-0.006 0.008,-0.01 0.0115,-0.0141 0.005,-0.006 0.009,-0.0113 0.0128,-0.0155 0.30245,-0.0177 0.57964,0.1444 0.8792,0.11014 0.16999,-0.0889 0.31457,-0.21302 0.48763,-0.2971 0.009,-0.002 0.0191,-0.003 0.0282,-0.003 0.009,-0.002 0.0165,-0.003 0.0257,-0.003 0.009,-0.002 0.0191,-0.003 0.0282,-0.003 0.005,-0.006 0.008,-0.01 0.0116,-0.014 0.005,-0.006 0.009,-0.0113 0.0128,-0.0155 0.005,-0.006 0.008,-0.01 0.0115,-0.0141 0.008,-0.01 0.0162,-0.0197 0.0243,-0.0295 0.005,-0.006 0.009,-0.0113 0.0128,-0.0155 0.005,-0.006 0.008,-0.01 0.0115,-0.0141 0.005,-0.006 0.009,-0.0112 0.0127,-0.0155 -8e-4,-0.0103 -0.003,-0.0191 -0.004,-0.0268 0.0781,-0.049 0.0781,-0.049 0.0768,-0.0618 0.005,-0.006 0.008,-0.01 0.0116,-0.0141 0.005,-0.006 0.009,-0.0113 0.0128,-0.0155 0.005,-0.006 0.008,-0.01 0.0115,-0.0141 0.005,-0.006 0.009,-0.0113 0.0128,-0.0155 -8.1e-4,-0.0102 -0.003,-0.0191 -0.004,-0.0268 -8.1e-4,-0.0103 -5.6e-4,-0.0194 -0.002,-0.0271 0.005,-0.006 0.008,-0.01 0.0116,-0.0141 0.005,-0.006 0.009,-0.0112 0.0128,-0.0154 0.005,-0.006 0.008,-0.01 0.0115,-0.0141 -8e-4,-0.0102 -0.002,-0.0205 -0.003,-0.0282 0.0547,-0.0635 0.10961,-0.12452 0.16453,-0.185522 0.0566,-0.163392 0.10565,-0.311817 0.1948,-0.460271 -0.01,-0.0081 -0.0197,-0.01621 -0.0295,-0.0243 0.13307,-0.176011 0.43973,-0.617354 0.68399,-0.501268 0.13464,-0.146359 0.33801,-0.03797 0.47424,-0.154706 0.31318,0.172814 0.59384,0.370809 0.886,0.58063 0.0141,0.01157 0.0282,0.02315 0.0436,0.03591 0.0405,0.07113 0.0825,0.143416 0.1233,0.21712 0.0172,0.176973 0.0343,0.353917 0.0517,0.533437 -0.0434,0.54005 -0.22552,1.01076 -0.56826,1.42712 -0.003,0.0301 -0.007,0.0602 -0.0107,0.0903 0.19015,0.19902 0.34299,0.36023 0.47162,0.60533 0.0144,0.14874 0.0409,0.28854 0.01,0.43524 0.007,0.0109 0.0153,0.0244 0.0231,0.0379 -0.0307,0.0431 -0.0601,0.0874 -0.0895,0.13165 -0.009,-2.8e-4 -0.0168,2.8e-4 -0.0257,0.003 -0.003,0.004 -0.008,0.01 -0.0128,0.0155 -0.009,-5.6e-4 -0.0182,-8.8e-4 -0.027,0.001 -0.009,-2.8e-4 -0.018,0.002 -0.0268,0.004 -0.003,0.004 -0.007,0.008 -0.0115,0.0141 -0.009,-5.7e-4 -0.0193,5.6e-4 -0.0282,0.003 -0.003,0.004 -0.007,0.008 -0.0115,0.0141 -0.009,-2.9e-4 -0.018,0.002 -0.0269,0.004 -0.003,0.004 -0.007,0.008 -0.0115,0.0141 -0.003,0.004 -0.008,0.01 -0.0127,0.0155 -0.008,0.01 -0.0162,0.0197 -0.0243,0.0295 -0.003,0.004 -0.007,0.008 -0.0115,0.0141 -0.003,0.004 -0.008,0.01 -0.0128,0.0155 -0.12251,0.0714 -0.12251,0.0714 -0.92482,0.40685 -0.19739,-0.007 -0.19739,-0.007 -0.34435,-0.0404 -0.008,0.01 -0.0162,0.0197 -0.0243,0.0296 -0.21421,-0.12678 -0.51477,-0.10282 -0.74583,-0.0429 -0.81473,0.32755 -1.61002,0.5885 -2.43527,0.87437 -0.12095,-0.0194 -0.22484,0.0438 -0.33844,0.0872 -0.40287,0.0766 -0.80669,0.0368 -1.19765,0.1162 -0.28134,-0.23158 -0.53369,-0.41809 -0.69759,-0.74648 -0.0577,-0.0617 -0.11668,-0.122 -0.17417,-0.18114 z"
       style="fill:#bc141d;fill-rule:evenodd;stroke-width:0.28293"
       id="path16" />
    <path
       d="m 135.22715,102.99576 c 0.005,-0.006 0.009,-0.0111 0.0125,-0.0152 0.004,0.003 0.008,0.007 0.0139,0.0114 -0.003,0.004 -0.008,0.01 -0.0125,0.0152 -0.006,-0.005 -0.01,-0.008 -0.0138,-0.0114 z"
       style="fill:#bc141d;fill-rule:evenodd;stroke-width:0.28293"
       id="path17" />
    <path
       d="m 135.23968,102.98054 c 0.009,-0.002 0.0163,-0.003 0.0253,-0.003 -0.003,0.004 -0.007,0.008 -0.0114,0.0139 -0.006,-0.005 -0.01,-0.008 -0.0139,-0.0114 z"
       style="fill:#bc141d;fill-rule:evenodd;stroke-width:0.28293"
       id="path18" />
  </g>
</svg>
