<svg height="316.227766" viewBox="0 0 252 252" width="316.227766" xmlns="http://www.w3.org/2000/svg"><g fill="#0061a6"><path d="m125.933594.546875c-69.3125.007813-125.683594 56.378906-125.691406 125.695313.007812 69.304687 56.378906 125.683593 125.691406 125.683593s125.691406-56.378906 125.691406-125.683593c0-69.316407-56.378906-125.6875-125.691406-125.695313zm80.425781 205.988281c-20.609375 20.574219-49.046875 33.316406-80.425781 33.316406s-59.816406-12.734374-80.433594-33.316406c-20.609375-20.578125-33.367188-48.972656-33.367188-80.292968 0-31.332032 12.757813-59.71875 33.367188-80.296876 20.609375-20.582031 49.054688-33.316406 80.433594-33.316406s59.816406 12.742188 80.425781 33.316406c20.609375 20.578126 33.367187 48.972657 33.367187 80.296876.007813 31.320312-12.75 59.707031-33.367187 80.292968zm0 0"/><path d="m117.066406 84.976562c-.15625-.167968-.339844-.285156-.519531-.367187-.265625-.125-.539063-.1875-.828125-.230469-.285156-.035156-.589844-.050781-.921875-.050781-1.160156 0-2.59375.183594-4.019531.367187-1.417969.1875-2.816406.355469-3.777344.355469-.746094 0-1.285156-.050781-1.632812-.132812-.257813-.058594-.40625-.132813-.480469-.175781l-.097657-.089844c-.027343-.042969-.066406-.132813-.085937-.308594-.023437-.179688-.023437-.429688-.023437-.742188 0-1.4375 0-6.5 0-8.347656l.03125-.023437c.09375-.058594.277343-.140625.539062-.214844.441406-.125 1.078125-.230469 1.789062-.332031 1.0625-.148438 2.296876-.296875 3.457032-.5625.574218-.132813 1.136718-.300782 1.664062-.539063.515625-.230469.996094-.523437 1.394532-.929687.769531-.792969 1.125-1.746094 1.125-2.632813 0-1.035156-.4375-1.941406-1.019532-2.621093-.296875-.339844-.644531-.621094-1.019531-.828126-.378906-.207031-.792969-.339843-1.242187-.339843-.28125 0-.570313.035156-.894532.09375-1.125.199219-2.667968.671875-3.96875 1.101562-.355468.117188-.6875.230469-.992187.332031.214843-1.328124.496093-3.40625.496093-5.355468-.007812-1.25-.101562-2.441406-.472656-3.429688l-.015625-.039062-.015625-.027344c-.597656-1.242188-1.667968-2.054688-2.804687-2.535156-1.148438-.488282-2.386719-.679688-3.496094-.679688-.835937 0-1.597656.101563-2.21875.316406-.308594.113282-.589844.246094-.847656.460938-.128907.109375-.253907.234375-.347657.40625-.097656.167969-.164062.382812-.164062.605469 0 .449219.097656.921875.222656 1.433593.316406 1.277344.628906 2.703126.796875 3.125.496094 3.199219.390625 18.0625.390625 19.785157 0 .953125-.183594 2.148437-.515625 3.019531-.164062.4375-.363281.785156-.53125.984375-.089843.097656-.164062.15625-.214843.175781l-.109376.03125c-.421874 0-1.058593.050782-1.878906.132813-2.445312.230469-6.445312.679687-8.957031.679687-.789063 0-1.394531 0-1.882813.015625-.363281.015625-.660156.035157-.941406.09375-.207031.046875-.40625.105469-.613281.230469-.144531.089844-.292969.222656-.40625.371094-.160156.226562-.21875.472656-.25.671875s-.03125.382812-.03125.566406v.335937c0 .449219.066406.980469.203125 1.558594.191406.855469.523438 1.800782 1.039062 2.601563.257813.398437.578126.765625.976563 1.046875.390625.28125.894531.480468 1.433594.472656.570312 0 1.332031-.09375 2.246093-.234375 1.367188-.207031 3.03125-.519531 4.53125-.769531.746094-.125 1.457032-.242188 2.054688-.324219s1.09375-.125 1.375-.125c.523438 0 1.253906-.054687 2.207031-.132813 2.839844-.230468 7.605469-.6875 13.324219-.6875 1.507812 0 2.714844-.15625 3.695312-.4375 1.464844-.414062 2.445313-1.160156 2.988282-2.046874.546875-.886719.65625-1.832032.65625-2.609376 0-.671874-.082032-1.261718-.074219-1.566406.023437-.324218-.109375-.671875-.324219-.902344zm0 0"/><path d="m148.917969 72.679688c-.554688-.441407-1.273438-.765626-2.101563-.765626-.988281 0-2.015625 0-2.808594-.007812-.53125 0-.953124 0-1.160156-.007812.046875-.082032.097656-.171876.164063-.28125.214843-.316407.554687-.738282 1.050781-1.25.347656-.367188.53125-.789063.707031-1.242188.261719-.671875.460938-1.425781.695313-2.105469.230468-.671875.511718-1.253906.777344-1.515625.597656-.613281 1.152343-1.308594 1.574218-2.046875.414063-.730469.714844-1.507812.722656-2.328125 0-.316406-.101562-.613281-.234374-.847656-.253907-.414062-.585938-.6875-.941407-.933594-.53125-.359375-1.136719-.640625-1.640625-.890625-.25-.128906-.480468-.238281-.648437-.328125-.082031-.042968-.15625-.085937-.199219-.117187l-.050781-.035157-.015625-.007812c-.296875-.296875-.644532-.480469-1.042969-.636719-.398437-.148437-.835937-.25-1.300781-.25-.414063 0-.871094.078125-1.285156.390625-.199219.15625-.378907.375-.488282.628906-.109375.25-.164062.523438-.164062.804688 0 1.515625-.167969 4.242188-1.617188 7.144531-.78125 1.566407-1.609375 3.578125-2.363281 5.460938-.753906 1.886719-1.425781 3.652343-1.871094 4.6875l-.007812.015625.007812-.015625c-.265625.636719-.582031 1.019531-.835937 1.285156-.125.132813-.234375.230469-.339844.316406-.050781.046875-.101562.089844-.167969.164063-.039062.035156-.074219.082031-.132812.171875-.046875.078125-.128907.210937-.132813.457031 0 .101562.019532.222656.066406.332031.085938.207031.242188.332031.347657.398438.191406.109375.285156.109375.367187.132812.117188.015625.207032.023438.316406.023438h.371094c.488282 0 .929688-.105469 1.316406-.230469 1.167969-.40625 1.90625-.960938 3.878907-.976562.449219 0 .804687.03125 1.078125.089843.199218.046875.347656.097657.453125.15625.152343.089844.214843.15625.28125.289063.066406.132812.117187.351562.117187.6875 0 .566406-.15625 1.433594-.464844 2.5625-.402343 1.441406-.710937 2.839844-1.035156 3.804687-.164062.480469-.339844.851563-.472656 1.035157-.054688.066406-.082031.105468-.105469.121093-.019531-.007812-.058593-.023437-.117187-.0625-.097656-.058593-.230469-.167969-.390625-.339843-.859375-.886719-1.457031-1.707032-1.929688-2.339844-.238281-.320313-.4375-.585938-.652343-.820313-.109376-.121093-.21875-.230469-.382813-.332031-.15625-.097656-.371094-.207031-.648437-.207031-.164063 0-.335938.035156-.46875.109375-.140626.066406-.25.15625-.332032.242187-.175781.1875-.234375.371094-.273437.511719-.027344.148438-.035157.273438-.035157.390625 0 .265625.035157.53125.09375.828125.195313 1.035156.652344 2.496094 1.050782 3.886719.199218.695312.390625 1.367187.523437 1.9375.132813.5625.214844 1.042969.207031 1.253906 0 .429687.125.835937.339844 1.167969.328125.496094.808594.792968 1.289063.976562.484375.183594 1.003906.257813 1.5.257813.398437 0 .773437-.050781 1.136719-.152344.355468-.113281.703124-.261719.996093-.5625.238281-.246094.605469-.679687 1.082031-1.285156.707032-.902344 1.632813-2.160157 2.488282-3.496094.859375-1.347656 1.640625-2.765625 2.085937-4.050781.546875-1.605469 1.136719-3.605469 1.675781-5.292969.273438-.839844.523438-1.601563.746094-2.179687.109375-.285157.214844-.523438.296875-.699219.042969-.089844.082031-.15625.101563-.199219l.03125-.046875.007812-.007813c.152344-.160156.257813-.355468.316406-.539062.058594-.191406.082032-.375.089844-.5625 0-.40625-.113281-.796875-.28125-1.179688-.25-.539062-.65625-1.101562-1.210937-1.546874zm1.085937 3.859374"/><path d="m170.953125 74.203125c-.835937-1.117187-1.929687-2.011719-3.066406-2.578125-.785157-.390625-1.617188-.53125-2.425781-.53125-1.335938 0-2.605469.375-3.554688.738281-.945312.359375-1.578125.722657-1.601562.738281l-.472657.273438c0-2.566406 0-4.679688 0-6.519531 0-.914063.25-1.683594.539063-2.511719.28125-.820312.628906-1.707031.628906-2.777344 0-.363281-.097656-.710937-.238281-1.011718-.25-.542969-.648438-1-1.121094-1.421876-.710937-.621093-1.582031-1.152343-2.484375-1.542968-.902344-.382813-1.804688-.644532-2.628906-.644532-.886719 0-1.648438.3125-2.175782.808594-.523437.492188-.820312 1.160156-.820312 1.839844 0 .539062.199219 1.105469.613281 1.527344l-.007812-.007813.007812.007813c.3125.3125.703125 1.035156.960938 1.773437.132812.371094.246093.753907.320312 1.09375.074219.339844.109375.644531.109375.835938v9.082031c0 .597656-.050781 1.625-.125 2.867188-.230468 3.738281-.695312 9.503906-.695312 13.007812 0 .902344.03125 1.648438.109375 2.222656l.816406-.117187-.816406.117187c.148437 1.042969.414062 1.773438.894531 2.300782.238281.257812.535156.449218.828125.554687.296875.109375.585937.136719.84375.136719.332031 0 .628906-.050782.878906-.085938.25-.039062.464844-.066406.597657-.066406.332031 0 .652343-.125.886718-.296875.414063-.308594.652344-.714844.851563-1.160156.289062-.671875.472656-1.484375.605469-2.363281.125-.875.183593-1.796876.183593-2.65625 0-1.210938.113281-3.863282.222657-6.582032.109374-2.726562.222656-5.527344.222656-7.140625 0-.117187 0-.21875 0-.339843l.539062.253906c1.085938.492187 2.289063 1.683594 3.242188 2.984375.960937 1.300781 1.695312 2.726562 1.96875 3.570312.210937.648438.484375 1.335938.90625 1.921875.207031.292969.460937.566406.769531.78125.3125.214844.710937.371094 1.144531.363282.539063 0 1.066406-.222657 1.539063-.597657.472656-.378906.929687-.902343 1.410156-1.628906.710937-1.0625 1.027344-2.1875 1.019531-3.265625-.015625-1.476562-.589844-2.835938-1.425781-3.953125zm0 0"/><path d="m96.5 181.859375h.582031v-24.488281h-3.375l-.066406.472656c-.199219 1.425781-.746094 2.410156-1.605469 3.066406-.855468.65625-2.097656 1.019532-3.796875 1.019532l-.570312-.015626-.613281-.019531v3.464844h5.769531v16.5zm0 0"/><path d="m112.925781 178.949219-.21875-.007813h-.039062c-1.160157 0-1.941407-.28125-2.511719-.789062-.5625-.511719-.9375-1.308594-1.058594-2.492188l-.058594-.496094h-4.109374l.046874.585938c.132813 2.003906.847657 3.621094 2.164063 4.722656 1.324219 1.109375 3.183594 1.675782 5.503906 1.765625h.039063c2.933594-.082031 5.289062-1.332031 6.851562-3.628906 1.558594-2.296875 2.394532-5.59375 2.578125-9.894531v-.03125c-.097656-3.613282-.851562-6.390625-2.367187-8.335938-1.511719-1.941406-3.8125-2.949218-6.671875-2.984375h-.027344c-2.566406.125-4.628906.917969-6.039063 2.386719-1.417968 1.472656-2.15625 3.554688-2.296874 6.191406v.046875c.085937 2.503907.789062 4.492188 2.171874 5.882813 1.382813 1.386718 3.398438 2.097656 5.910157 2.1875h.046875c1.964844-.054688 3.566406-.59375 4.734375-1.566406-.390625 1.972656-.921875 3.5-1.585938 4.542968-.882812 1.351563-1.835937 1.90625-3.0625 1.914063zm3.320313-9.777344c-.652344.746094-1.558594 1.144531-2.921875 1.199219h-.234375c-1.476563 0-2.460938-.363282-3.113282-1.027344-.648437-.660156-1.023437-1.714844-1.023437-3.230469v-.257812c.042969-1.574219.433594-2.691407 1.105469-3.421875.667968-.730469 1.621094-1.144532 3.023437-1.234375 1.40625.050781 2.371094.433593 3.050781 1.121093.679688.695313 1.101563 1.761719 1.191407 3.28125-.050781 1.648438-.4375 2.832032-1.078125 3.570313zm0 0"/><path d="m134.609375 181.859375h4.125v-5.585937h3.621094v-3.480469h-3.621094v-14.851563h-3.453125l-11.285156 14.84375v3.488282h10.613281zm-6.105469-9.074219 6.105469-8.304687v8.304687zm0 0"/><path d="m152.464844 157.371094h-.054688c-2.5625.125-4.625.914062-6.035156 2.386718-1.417969 1.46875-2.160156 3.554688-2.304688 6.191407v.046875c.085938 2.503906.789063 4.492187 2.171876 5.882812 1.382812 1.386719 3.398437 2.097656 5.910156 2.1875h.046875c1.964843-.054687 3.566406-.59375 4.734375-1.566406-.390625 1.972656-.921875 3.5-1.585938 4.542969-.867187 1.34375-1.828125 1.898437-3.054687 1.914062l-.222657-.007812h-.035156c-1.152344 0-1.949218-.28125-2.511718-.789063-.5625-.511718-.941407-1.308594-1.066407-2.492187l-.058593-.496094h-4.101563l.039063.585937c.140624 2 .847656 3.621094 2.171874 4.722657 1.324219 1.105469 3.183594 1.675781 5.503907 1.765625h.046875c2.925781-.082032 5.289062-1.332032 6.84375-3.628906 1.558594-2.296876 2.390625-5.59375 2.578125-9.894532v-.03125c-.097657-3.613281-.851563-6.390625-2.367188-8.335937-1.492187-1.941407-3.796875-2.949219-6.648437-2.984375zm3.15625 11.800781c-.652344.746094-1.5625 1.144531-2.921875 1.199219h-.226563c-1.480468 0-2.46875-.363282-3.113281-1.027344-.648437-.660156-1.027344-1.714844-1.027344-3.230469v-.257812c.039063-1.574219.429688-2.691407 1.109375-3.421875.65625-.730469 1.625-1.144532 3.023438-1.234375 1.394531.050781 2.371094.433593 3.050781 1.121093.679687.695313 1.09375 1.761719 1.183594 3.28125-.054688 1.648438-.4375 2.832032-1.078125 3.570313zm0 0"/><path d="m66.339844 136.722656c-5.910156-2.925781-9.878906-2.34375-9.878906-2.34375-8.25 1.769532-3.769532 7.316406-3.769532 7.316406 4.441406 3.742188 12.496094.046876 12.496094.046876 6.738281 4.070312 12.296875-.289063 12.296875-.289063 12.660156-2.433594 6.902344-13.164063 6.902344-13.164063-1.523438-3.390624-9.519531-9.191406-14.996094-11.140624-4.035156-1.433594-2.578125-6.289063 0-6.542969 2.582031-.242188 2.0625.992187 5.433594 1.8125 3.371093.820312 6.503906-2.46875 6.347656-3.785157-.125-1.019531-1.589844-.554687-2.238281-.296874.289062-.125.507812-.21875-.703125.296874-1.824219.785157-4.359375-.703124-4.359375-.703124-4.125-2.585938-5.03125-1.683594-5.03125-1.683594-14.414063 4.648437-16.710938 13.820312-16.710938 13.820312-.117187 8.46875 6.867188 8.882813 6.867188 8.882813 13.011718 1.980469 13.484375 5.144531 13.484375 5.144531 3.496093 5.296875-6.140625 2.628906-6.140625 2.628906zm-3.730469 3.820313c-2.535156 2.34375-5.789063.992187-5.789063.992187-5.875-2.714844-.796874-3.992187-.796874-3.992187 3.097656-.289063 6.585937 2.710937 6.585937 2.710937zm6.4375-15.777344s-4.007813-.960937-5.722656-1.609375c-1.757813-.675781-8.054688-3.875-1.773438-8.929688l.539063-.183593s-1.535156 5.429687 5.648437 7.351562c7.183594 1.914063 20.460938 11.136719 11.742188 17.140625 0-.007812 1.714843-9.46875-10.433594-13.769531zm0 0"/><path d="m141.828125 136.722656c-5.910156-2.925781-9.878906-2.34375-9.878906-2.34375-8.246094 1.769532-3.769531 7.316406-3.769531 7.316406 4.441406 3.742188 12.496093.046876 12.496093.046876 6.742188 4.070312 12.296875-.289063 12.296875-.289063 12.660156-2.433594 6.902344-13.164063 6.902344-13.164063-1.519531-3.390624-9.515625-9.191406-14.992188-11.140624-4.035156-1.433594-2.582031-6.289063 0-6.542969 2.578126-.242188 2.058594.992187 5.429688 1.8125 3.371094.820312 6.511719-2.46875 6.347656-3.785157-.125-1.019531-1.585937-.554687-2.230468-.296874.289062-.125.507812-.21875-.710938.296874-1.816406.785157-4.359375-.703124-4.359375-.703124-4.125-2.585938-5.03125-1.683594-5.03125-1.683594-14.410156 4.648437-16.710937 13.820312-16.710937 13.820312-.117188 8.46875 6.867187 8.882813 6.867187 8.882813 13.011719 1.980469 13.484375 5.144531 13.484375 5.144531 3.503906 5.296875-6.140625 2.628906-6.140625 2.628906zm-3.730469 3.820313c-2.535156 2.34375-5.785156.992187-5.785156.992187-5.875-2.714844-.800781-3.992187-.800781-3.992187 3.097656-.289063 6.585937 2.710937 6.585937 2.710937zm6.445313-15.777344s-4.007813-.960937-5.722657-1.609375c-1.757812-.675781-8.054687-3.875-1.78125-8.929688l.542969-.183593s-1.539062 5.429687 5.644531 7.351562c7.183594 1.914063 20.460938 11.136719 11.742188 17.140625 0-.007812 1.714844-9.46875-10.425781-13.769531zm0 0"/><path d="m113.652344 123.089844c1.078125 3.367187 1.335937 11.511718.382812 13.292968s-3.058594.636719-3.058594.636719c1.980469-5.21875 0-15.011719 0-15.011719.574219-12.65625 3.695313-14.054687 3.695313-14.054687 1.980469-2.542969-.445313-1.714844-.445313-1.714844-7.070312 3.121094-11.015624 1.464844-11.015624 1.464844-13.6875-4.074219-14.207032 7.757813-14.207032 7.757813l.039063.304687c.703125.835937 1.167969-.246094 1.167969-.246094 5.410156-6.167969 13.5-2.355469 13.5-2.355469-2.039063 1.914063-1.847657 6.621094-1.847657 6.621094-2.992187-.511718-7.128906.183594-10.566406 2.667969-3.445313 2.484375-1.65625 4.832031-1.65625 4.832031 2.484375-1.78125 9.304687-2.347656 9.304687-2.347656 7.832032-.253906 4.070313 9.980469 4.070313 9.980469-6.679687-.738281-12.324219.902343-14.195313 5.21875-1.734374 4.003906.378907 3.179687.378907 3.179687 2.230469-3.121094 7.964843-4.324218 12.289062-3.628906 4.328125.699219 3.753907 2.667969 13.625 3.753906.066407.007813.132813.015625.199219.019532 9.601562.777343 4.015625-20.75 4.015625-20.75-1.40625-12.71875 4.011719-15.074219 4.011719-15.074219 1.914062-1.589844-.894532-1.464844-.894532-1.464844-12.105468-.007813-8.792968 16.917969-8.792968 16.917969zm0 0"/><path d="m188.691406 108.132812s-.054687-.269531-.6875-.371093c0 0-8.996094.636719-11.191406-2.003907 0 0-5.28125 4.167969-10.300781 3.746094l-.015625-.003906-.351563-.054688s-1.050781.945313-.0625 1.738282c0 0 3.71875 3.324218 10.628907.6875v6.589844s-14.226563 7.074218-10.886719 17.25c0 0 7.125 15.613281 26.789062 3.796874 0 0 2.253907 3.953126 3.457031 4.324219 1.207032.371094 6.285157.105469 4.605469-4.003906 0 0-3.082031-2.433594-3.035156-5.328125v-23.207031s4.335937-2.84375 2.613281-5.007813c0 0-4.757812 2.371094-6.695312.632813 0 0-1.203125-.265625-1.726563.785156 0 0-.835937 2.15625-1.621093 2.851563l-3.894532 2.402343v-1.878906c1.160156-.492187 2.203125-1.375 2.375-2.945313zm-14.367187 15.398438s1.203125-1.253906 2.386719-1.234375l-.015626.984375v5.347656s-.101562 5.664063-4.292968 6.152344c0 0-3.9375-4.324219 1.921875-11.25zm-.488281 12.902344s7.523437-1.085938 8.683593-8.792969v-8.71875l1.078125-.695313v20.847657c-2.816406.28125-6.171875-.253907-9.761718-2.640625zm17.394531-23.101563.527343.246094v22.042969s-2.09375 1.90625-5.449218 2.914062v-22.046875zm-7.632813 1.300781-.921875.570313v-3.480469s.367188.015625.921875-.023437zm0 0"/><path d="m236.3125 140.351562-13.570312 8.933594c1-4.253906 1.671874-8.335937 2.128906-12.105468 14.152344-11.84375 12.289062-20.949219 12.289062-20.949219-1.730468-1.300781-8.386718 5.941406-11.484375 9.503906.148438-6.992187-.414062-11.375-.414062-11.375-.175781-1.136719-.382813-2.261719-.589844-3.367187 9.429687-14.640626 4.390625-22.148438 4.390625-22.148438-1.90625.632812-6 10.234375-6.828125 12.222656-1.546875-5.128906-3.445313-9.917968-5.59375-14.382812 5.121094-11.054688.382813-22.457032.382813-22.457032-3.230469 2.4375-4.417969 11.792969-4.699219 14.449219-2.515625-4.214843-5.234375-8.085937-8.035157-11.617187 1.863282-12.371094-6.117187-22.394532-6.117187-22.394532-1-1.632812-1.351563 0-1.351563 0-.429687 9.320313 1.78125 15.511719 1.78125 15.511719l.144532.40625c-3.21875-3.488281-6.449219-6.554687-9.539063-9.222656.050781-2.710937-.925781-9.332031-9.738281-18.148437 0 0-1.472656-1.351563-1.375 1.136718 0 0-.164062 4.761719 1.375 9.421875-6.046875-4.21875-10.179688-6.242187-10.179688-6.242187-11.335937-9.015625-24.328124-5.875-24.328124-5.875-3.066407.222656-1.527344 1.1875-1.527344 1.1875 7.441406 8.847656 22.753906 10.058594 22.753906 10.058594 4.257812 2.046874 8.1875 4.234374 11.816406 6.535156-3.886718-.261719-10.566406-.3125-13.546875 1.984375 0 0-1.277343.859375 1.140625 1.847656 0 0 10.574219 4.265625 20.527344 1.894531 3.386719 2.644532 6.445312 5.394532 9.214844 8.222656-3.382813-.566406-11.972656-1.535156-16.863282 2.121094 0 0-.855468.355469 0 1 0 0 4.765626 4.683594 22.769532 3.539063 2.984375 3.738281 5.519531 7.566406 7.683594 11.402343-2.511719-.78125-11.941407-3.445312-18.851563-1.425781 0 0-.78125.996094 1.210937 2.0625 0 0 11.300782 8.039063 21.316407 6.648438 2.464843 5.53125 4.21875 11.003906 5.460937 16.222656-8.117187-5.632813-16.03125-5.867187-16.03125-5.867187-2.414062-.496094-1.78125.996093-1.78125.996093 8.722656 9.71875 16.332032 12.015625 19.3125 12.5625.898438 5.855469 1.195313 11.191407 1.1875 15.667969-7.285156-8.144531-16.292968-12.371094-16.292968-12.371094-1.640626-.78125-1.351563.710938-1.351563.710938 5.082031 10.042968 14.578125 17.609375 17.3125 19.648437-.316406 3.695313-.738281 5.839844-.738281 5.839844-.613282 2.675781-1.292969 5.246094-2.03125 7.722656-1.441406-2.054687-6.675782-8.949219-13.191406-10.945312 0 0 .582031 10.804687 10.550781 18.742187-1.648438 4.328125-3.472657 8.304688-5.410157 11.941406l-.019531-.015624s-2.351562-14.652344-7.257812-17.285157c0 0-3.445313 10.25 2.777343 24.914063-2.296874 3.5-4.660156 6.613281-7.003906 9.347656-2.335937-20.507812-4.738281-18.113281-4.738281-18.113281-4.457031 3.953125-1.046875 19.746093-.183594 23.417969-7.035156 6.96875-13.132812 10.558593-15.347656 11.75l-6.785156-11.980469h-40.601563l-4.476562 4.007812-4.488282-4.007812h-40.601562l-.492188.875-6.304687 11.128906c-2.179687-1.167969-8.3125-4.761719-15.386719-11.765625.863282-3.664062 4.273438-19.464844-.183594-23.417969 0 0-2.402343-2.394531-4.738281 18.113281-2.34375-2.742187-4.707031-5.847656-7.003906-9.351562 6.191406-14.660156 2.746094-24.910156 2.746094-24.910156-4.90625 2.628906-7.253907 17.285156-7.253907 17.285156l-.023437.015625c-1.9375-3.636719-3.761719-7.613281-5.410156-11.941406 9.976562-7.929688 10.554687-18.734375 10.554687-18.734375-6.519531 1.988281-11.75 8.890625-13.191406 10.945312-.738281-2.476562-1.425781-5.042968-2.035156-7.722656 0 0-.417969-2.144531-.738282-5.839844 2.734376-2.046875 12.230469-9.613281 17.316407-19.648437 0 0 .289062-1.496094-1.351563-.710938 0 0-9.011718 4.21875-16.296875 12.371094-.007812-4.480469.289063-9.8125 1.191407-15.667969 2.96875-.546875 10.582031-2.851562 19.308593-12.5625 0 0 .644531-1.492187-1.78125-.996094 0 0-7.914062.234376-16.027343 5.867188 1.234374-5.21875 2.992187-10.695312 5.460937-16.222656 10.003906 1.398437 21.3125-6.648438 21.3125-6.648438 1.996094-1.066406 1.210937-2.0625 1.210937-2.0625-6.917968-2.019531-16.347656.640625-18.851562 1.425782 2.164062-3.84375 4.699219-7.664063 7.6875-11.402344 18 1.144531 22.765625-3.539063 22.765625-3.539063.859375-.644531 0-1 0-1-4.890625-3.65625-13.476563-2.691406-16.871094-2.121093 2.773438-2.828126 5.832031-5.578126 9.214844-8.222657 9.957031 2.371094 20.53125-1.894531 20.53125-1.894531 2.417969-.996094 1.136719-1.847656 1.136719-1.847656-2.984375-2.296875-9.664063-2.246094-13.542969-1.988282 3.625-2.304687 7.558594-4.492187 11.816406-6.53125 0 0 15.316407-1.210937 22.753907-10.058593 0 0 1.527343-.96875-1.53125-1.1875 0 0-12.992188-3.140625-24.328126 5.875 0 0-4.128906 2.015625-10.175781 6.242187 1.542969-4.664062 1.375-9.421875 1.375-9.421875.09375-2.488281-1.375-1.136719-1.375-1.136719-8.832031 8.792969-9.808593 15.414063-9.753906 18.125-3.082031 2.667969-6.320313 5.742188-9.542969 9.222657l.148438-.40625s2.203125-6.191407 1.78125-15.511719c0 0-.355469-1.632812-1.351563 0 0 0-7.980469 10.023438-6.121093 22.394531-2.800782 3.53125-5.519532 7.402344-8.03125 11.617188-.28125-2.648438-1.46875-12.011719-4.699219-14.449219 0 0-4.738281 11.402344.382812 22.457031-2.148437 4.464844-4.050781 9.261719-5.59375 14.382813-.835937-1.996094-4.929687-11.585938-6.828125-12.222656 0 0-5.039062 7.515624 4.390625 22.15625-.214843 1.105468-.414062 2.230468-.59375 3.367187 0 0-.550781 4.382813-.414062 11.375-3.09375-3.554687-9.753907-10.796875-11.480469-9.503906 0 0-1.863281 9.105469 12.296875 20.949219.449219 3.769531 1.128906 7.84375 2.125 12.105468l-13.566406-8.933594c2.351562 12.808594 16.820312 20.0625 16.820312 20.0625 1.1875 3.339844 2.59375 6.71875 4.257813 10.089844-2.816406-1.359375-12.667969-5.921875-15.460938-4.464844 0 0 4.375 10.464844 19.828125 12.296876 2.238281 3.570312 4.800781 7.085937 7.75 10.480468l-.191406-.082031s-10.101563-2.917969-16.363281-1.136719c0 0 2.773437 6.828125 23.835937 8.675782l.027344-.039063c4.566406 4.085937 9.820313 7.886719 15.851563 11.253906l-5.394532 9.535157h52.351563l.125.109374-10.832031 10.835938 3.441406 3.449219 11.027344-11.03125 3.347656 2.992187 3.347656-2.992187 11.027344 11.03125 3.441406-3.449219-10.832031-10.835938.117187-.109374h52.359375l-5.410156-9.546876c6.015625-3.363281 11.253906-7.15625 15.8125-11.234374l.03125.03125c21.0625-1.847657 23.832031-8.675782 23.832031-8.675782-6.257812-1.78125-16.359375 1.136719-16.359375 1.136719l-.191406.082031c2.945313-3.394531 5.511719-6.902344 7.75-10.480468 15.453125-1.832032 19.828125-12.296876 19.828125-12.296876-2.792969-1.457031-12.644531 3.105469-15.460938 4.464844 1.664063-3.371094 3.066407-6.75 4.257813-10.089844.007813 0 14.484375-7.253906 16.828125-20.0625zm-153.460938 54.722657h37.289063l.9375.835937 4.855469 4.640625 4.921875-4.699219.871093-.777343h37.296876l8.375 14.78125h-47.023438l-4.433594 3.96875-4.441406-3.96875h-47.023438zm48.933594 18.519531-5.851562 5.59375-5.851563-5.59375h-47.726562l1.226562-2.164062h47.320313l5.039062 4.507812 5.039063-4.507812h47.320312l1.226563 2.164062zm0 0"/></g></svg>