<?xml version="1.0" encoding="UTF-8" standalone="no"?>
<!-- Generator: Adobe Illustrator 16.0.0, SVG Export Plug-In . SVG Version: 6.00 Build 0)  -->

<svg
   version="1.1"
   id="图层_1"
   x="0px"
   y="0px"
   width="200"
   height="200"
   viewBox="0 0 199.99999 200"
   enable-background="new 0 0 595.28 841.89"
   xml:space="preserve"
   sodipodi:docname="海事大学标志.svg"
   inkscape:version="1.2 (dc2aedaf03, 2022-05-15)"
   xmlns:inkscape="http://www.inkscape.org/namespaces/inkscape"
   xmlns:sodipodi="http://sodipodi.sourceforge.net/DTD/sodipodi-0.dtd"
   xmlns="http://www.w3.org/2000/svg"
   xmlns:svg="http://www.w3.org/2000/svg"><defs
   id="defs165" /><sodipodi:namedview
   id="namedview163"
   pagecolor="#ffffff"
   bordercolor="#000000"
   borderopacity="0.25"
   inkscape:showpageshadow="2"
   inkscape:pageopacity="0.0"
   inkscape:pagecheckerboard="0"
   inkscape:deskcolor="#d1d1d1"
   showgrid="false"
   inkscape:zoom="3.1714775"
   inkscape:cx="155.2904"
   inkscape:cy="103.42183"
   inkscape:window-width="1680"
   inkscape:window-height="979"
   inkscape:window-x="-8"
   inkscape:window-y="-8"
   inkscape:window-maximized="1"
   inkscape:current-layer="g160" />
<g
   id="g160"
   transform="translate(-246.617,-409.308)">
	<path
   fill="#002c76"
   d="m 346.613,409.308 c -55.13686,0 -99.996,44.84936 -99.996,99.99201 0,55.14265 44.85914,100.00799 99.996,100.00799 55.14486,0 100.004,-44.85735 100.004,-100.00799 0,-55.14265 -44.85914,-99.99201 -100.004,-99.99201 z m 0,195.64453 c -52.74725,0 -95.64835,-42.90738 -95.64835,-95.66051 0,-52.72917 42.90909,-95.65252 95.64835,-95.65252 52.74726,0 95.65635,42.92335 95.65635,95.65252 0,52.75313 -42.90909,95.66051 -95.65635,95.66051 z"
   id="path2"
   style="stroke-width:7.99184" />
	<path
   fill="#002c76"
   d="m 417.68593,509.65963 c 0,-39.67873 -32.15984,-71.83728 -71.83217,-71.83728 -39.68831,0 -71.84815,32.15855 -71.84815,71.83728 0,4.98682 0.51149,9.86175 1.47852,14.56885 -4.02797,0.72725 -11.00499,2.05387 -15.43256,3.30057 l 20.92307,38.0724 c 0,0 6.72128,-2.4934 16.28771,-3.02885 12.79521,11.7398 29.85015,18.92432 48.59141,18.92432 18.7013,0 35.74026,-7.15256 48.51149,-18.85239 0.49551,-0.032 7.48851,-0.16783 17.03896,2.9809 l 20.57143,-38.05642 c 0,0 -5.41059,-1.8301 -15.79221,-3.18869 0.99101,-4.75505 1.5025,-9.67793 1.5025,-14.72069 z m -53.78621,-37.90457 h 22.70529 v 12.37912 c -2.4935,-2.13378 -6.61738,-3.50835 -11.28471,-3.50835 -4.75525,0 -8.95904,1.43051 -11.42857,3.63622 v -12.50699 z m 0,19.18005 h 22.70529 v 12.37912 c -2.4935,-2.14177 -6.61738,-3.51634 -11.28471,-3.51634 -4.75525,0 -8.95904,1.4465 -11.42857,3.62823 v -12.49101 z m 11.5005,18.73252 c 0,0 -0.73527,7.96771 -10.62138,8.27139 h -37.69031 c 0,0 -8.03197,1.03093 -11.27672,-8.27139 z m -41.15884,-56.04572 h 22.72927 v 12.37114 c -2.5015,-2.1178 -6.62538,-3.51635 -11.29271,-3.51635 -4.75525,0 -8.95105,1.4465 -11.43656,3.64421 z m 0,18.13315 h 22.72927 v 12.37912 c -2.5015,-2.13378 -6.62538,-3.50835 -11.29271,-3.50835 -4.75525,0 -8.95105,1.43051 -11.43656,3.63622 z m 0,19.18005 h 22.72927 v 12.37912 c -2.5015,-2.14177 -6.62538,-3.51634 -11.29271,-3.51634 -4.75525,0 -8.95105,1.4465 -11.43656,3.62823 z m -29.64236,-19.18005 h 22.72128 v 12.37912 c -2.5015,-2.13378 -6.62538,-3.50835 -11.29271,-3.50835 -4.75525,0 -8.95105,1.43051 -11.42857,3.63622 z m 0,19.18005 h 22.72128 v 12.37912 c -2.5015,-2.14177 -6.62538,-3.51634 -11.29271,-3.51634 -4.75525,0 -8.95105,1.4465 -11.42857,3.62823 z m 123.82018,38.7437 -18.18182,32.72597 c -33.69431,-9.09454 -58.30969,3.78007 -58.30969,3.78007 h -12.05195 c -28.6993,-13.1703 -57.59041,-3.97986 -57.59041,-3.97986 l -17.38262,-32.74195 c 60.48352,-12.75474 80.1039,4.01183 80.1039,4.01183 h 1.92607 c 28.56344,-17.4059 81.48652,-3.79606 81.48652,-3.79606 z"
   id="path4"
   style="stroke-width:7.99184" />
	<path
   fill="#002c76"
   d="m 311.84777,581.91249 c -1.46254,0.12787 -2.77323,0.10389 -3.92408,-0.048 l -0.66333,2.05387 c 2.1978,0.29569 4.1958,0.30368 5.98601,0.032 l -2.71728,8.4632 4.21179,1.35859 3.78821,-11.81172 -3.42058,-1.09486 c -0.71129,0.56741 -1.7982,0.91904 -3.26074,1.04691 z"
   id="path6"
   style="stroke-width:7.99184" />
	<path
   fill="#002c76"
   d="m 334.1135,585.72453 c -2.12587,-0.27971 -3.93206,-0.13586 -5.41858,0.44753 -1.47852,0.5754 -2.2937,1.49445 -2.46154,2.70918 -0.15984,1.19876 0.37563,2.23768 1.58242,3.16471 1.20679,0.91106 2.70929,1.47047 4.4995,1.71022 1.65435,0.21578 3.08492,0.0719 4.27573,-0.49548 -0.35964,1.40654 -0.88712,2.28562 -1.57443,2.66123 -0.68731,0.35164 -1.47852,0.50348 -2.37363,0.3836 -0.70329,-0.11188 -1.26273,-0.2877 -1.67033,-0.56741 -0.40759,-0.27171 -0.62337,-0.66331 -0.66333,-1.13482 l -4.29171,-0.29569 c 0.18382,1.03892 0.79121,1.88604 1.82218,2.54136 1.02297,0.64732 2.43756,1.09486 4.22777,1.33461 2.47752,0.32766 4.55544,0.0879 6.22577,-0.69528 1.67833,-0.79117 2.66134,-2.3016 2.94905,-4.53128 0.3037,-2.18973 -0.24775,-3.88397 -1.60639,-5.03477 -1.36663,-1.15879 -3.21279,-1.89403 -5.52248,-2.19771 z m 1.39061,6.1536 c -0.63137,0.2877 -1.35864,0.36761 -2.1978,0.24774 -0.87113,-0.10389 -1.58242,-0.39159 -2.10989,-0.83114 -0.52747,-0.43954 -0.75125,-1.06289 -0.64735,-1.84608 0.10389,-0.77519 0.43956,-1.30264 1.02297,-1.57436 0.58342,-0.26372 1.27873,-0.34364 2.08592,-0.23975 0.84715,0.11988 1.58242,0.42356 2.17383,0.91904 0.5914,0.49549 0.83116,1.11884 0.74325,1.87805 -0.0879,0.68729 -0.44755,1.17478 -1.07093,1.4465 z"
   id="path8"
   style="stroke-width:7.99184" />
	<path
   fill="#002c76"
   d="m 360.31131,586.64357 c -1.35065,-0.71126 -3.12488,-0.92703 -5.34666,-0.6713 -2.22178,0.25573 -3.89211,0.8631 -5.03496,1.84608 -1.38262,1.18277 -1.94206,2.93295 -1.67832,5.23456 0.27172,2.34955 1.14285,3.93191 2.61338,4.69112 1.46254,0.75921 3.31669,1.00695 5.53846,0.75122 2.22178,-0.24775 3.9001,-0.8711 5.04296,-1.85408 1.37463,-1.18277 1.94206,-2.93295 1.67033,-5.25054 -0.27173,-2.32558 -1.20679,-3.91592 -2.80519,-4.74706 z m -1.91009,8.39927 c -0.16784,0.50347 -0.45555,0.8631 -0.83917,1.08687 -0.3916,0.23175 -0.84715,0.3756 -1.37462,0.43954 -0.51948,0.0559 -0.999,0.04 -1.42258,-0.11189 -0.43956,-0.13585 -0.81518,-0.44753 -1.14285,-0.959 -0.33567,-0.50347 -0.58342,-1.49444 -0.75125,-2.92496 -0.16784,-1.45448 -0.13587,-2.4934 0.0959,-3.14073 0.17582,-0.50348 0.44755,-0.84712 0.84715,-1.09486 0.39161,-0.23176 0.83916,-0.3836 1.35864,-0.43954 0.53547,-0.056 1.007,-0.016 1.43857,0.11987 0.43156,0.13586 0.81518,0.46352 1.14285,0.959 0.32768,0.51946 0.57543,1.50244 0.73527,2.93295 0.17582,1.4465 0.14385,2.49341 -0.0879,3.13275 z"
   id="path10"
   style="stroke-width:7.99184" />
	<path
   fill="#002c76"
   d="m 379.50811,580.6498 c -1.75025,-0.36761 -3.71628,-0.11987 -5.8981,0.71126 -1.99801,0.7752 -3.52448,1.77416 -4.54746,2.9809 -1.01498,1.21474 -1.30269,2.4055 -0.84715,3.55631 0.43157,1.11084 1.38262,1.79813 2.88512,2.00591 1.4945,0.21578 3.0929,0.008 4.78721,-0.63934 1.55045,-0.59937 2.72527,-1.43051 3.5005,-2.47742 0.35964,1.39855 0.31968,2.42947 -0.1039,3.09278 -0.43157,0.63934 -1.06293,1.13482 -1.9021,1.46248 -0.66333,0.26373 -1.24675,0.36762 -1.73426,0.30369 -0.48751,-0.048 -0.86314,-0.25574 -1.13487,-0.66331 l -3.91608,1.78214 c 0.66334,0.83114 1.60639,1.28667 2.82118,1.37457 1.22278,0.0799 2.66134,-0.19979 4.33966,-0.84711 2.33367,-0.90306 4.04396,-2.09383 5.14685,-3.58028 1.08692,-1.50244 1.23077,-3.29258 0.42358,-5.40238 -0.7992,-2.08583 -2.07792,-3.29258 -3.82018,-3.6602 z m -1.72627,5.46632 c -0.41559,0.52745 -1.02298,0.96699 -1.82218,1.26269 -0.82318,0.31966 -1.57443,0.42356 -2.25375,0.2877 -0.67932,-0.14385 -1.16683,-0.5834 -1.44655,-1.32662 -0.28771,-0.72725 -0.23177,-1.3506 0.14385,-1.85407 0.38362,-0.51946 0.95904,-0.91905 1.71829,-1.23072 0.7992,-0.2957 1.58241,-0.3916 2.34965,-0.21578 0.75924,0.15184 1.27872,0.59138 1.55045,1.29465 0.24775,0.63135 0.15984,1.22273 -0.23976,1.78215 z"
   id="path12"
   style="stroke-width:7.99184" />
	<path
   fill="#002c76"
   d="m 263.63998,504.82466 c 0.37562,-0.87109 0.62337,-1.4385 0.76723,-1.67825 0.1998,-0.34364 0.43157,-0.59139 0.67932,-0.72725 0.25574,-0.11987 0.55145,-0.15983 0.88711,-0.14385 0.52748,0.048 0.98302,0.25574 1.34266,0.64733 0.37563,0.35963 0.53547,0.90306 0.47952,1.58236 -0.048,0.65531 -0.31968,1.15879 -0.79121,1.50243 -0.47952,0.35164 -1.1988,0.55942 -2.14985,0.59139 l 0.0959,2.12579 c 1.63037,-0.016 2.87712,-0.35164 3.78022,-1.00696 0.90309,-0.64732 1.40659,-1.63829 1.51049,-2.9729 0.0639,-0.93503 -0.04,-1.71822 -0.35165,-2.34956 -0.29571,-0.65532 -0.7992,-1.16679 -1.5025,-1.55838 -0.68731,-0.40758 -1.44655,-0.63134 -2.27772,-0.70327 -0.91109,-0.0719 -1.68632,0.008 -2.33367,0.24774 -0.63936,0.22377 -1.15884,0.57541 -1.56643,1.05491 -0.39161,0.47151 -0.79121,1.19875 -1.21479,2.2057 -0.41558,1.03093 -0.79121,1.64629 -1.11888,1.90202 -0.25574,0.19181 -0.55145,0.26373 -0.9031,0.24775 -0.36763,-0.04 -0.66333,-0.17582 -0.85514,-0.42356 -0.31968,-0.37561 -0.46354,-0.8711 -0.40759,-1.48646 0.04,-0.61536 0.23976,-1.03892 0.59141,-1.32662 0.34365,-0.26372 0.88711,-0.41556 1.63836,-0.44753 l 0.0559,-2.16575 c -1.32667,-0.0719 -2.40559,0.20778 -3.25275,0.81515 -0.85514,0.60737 -1.33466,1.58236 -1.43057,2.90099 -0.0559,0.82314 0.048,1.52641 0.33567,2.13378 0.28771,0.59138 0.74326,1.07088 1.35864,1.43051 0.60739,0.35963 1.28671,0.55942 2.02198,0.61536 1.14286,0.10389 2.13386,-0.15184 2.98102,-0.73524 0.60739,-0.40757 1.15085,-1.18277 1.63037,-2.27763 z"
   id="path14"
   style="stroke-width:7.99184" />
	<polygon
   fill="#002c76"
   points="249.662,420.282 248.889,420.119 248.998,419.605 249.77,419.767 249.825,419.505 248.059,419.133 248.003,419.396 248.7,419.542 248.591,420.058 247.896,419.911 247.84,420.173 249.606,420.545 "
   id="polygon16"
   transform="matrix(7.992008,0,0,7.9916886,-1724.348,-2861.7541)" />
	<path
   fill="#002c76"
   d="m 273.15047,487.95421 -2.79721,-1.93399 1.43857,-4.02781 3.38861,0.23176 0.77522,-2.18173 -15.02497,-0.79118 -0.77523,2.15775 12.21978,8.71095 z m -4.87513,-3.3645 -4.56343,-3.13274 5.54645,0.39159 z"
   id="path18"
   style="stroke-width:7.99184" />
	<polygon
   fill="#002c76"
   points="250.692,417.387 250.815,417.148 249.211,416.318 249.096,416.54 250.171,417.095 248.846,417.027 248.727,417.258 250.33,418.088 250.443,417.867 249.392,417.322 "
   id="polygon20"
   transform="matrix(7.992008,0,0,7.9916886,-1724.348,-2861.7541)" />
	<path
   fill="#002c76"
   d="m 274.92469,466.5205 c 1.12688,0.79917 2.30969,1.37457 3.50849,1.7262 1.19881,0.33565 2.3017,0.35963 3.3007,0.04 0.99101,-0.31967 1.8062,-0.91105 2.46154,-1.8221 0.5035,-0.73524 0.82318,-1.5424 0.95105,-2.50939 0.12787,-0.95901 0.0799,-1.79813 -0.15185,-2.50939 l -4.6993,-3.32455 -2.67732,3.77208 1.99001,1.41453 1.43057,-2.0219 1.5025,1.05491 c 0.0959,0.47151 0.10389,0.959 0.04,1.48645 -0.0639,0.49548 -0.23177,0.93503 -0.49551,1.31064 -0.52747,0.74322 -1.3027,1.09486 -2.33366,1.06289 -1.01499,-0.04 -2.23777,-0.53544 -3.63637,-1.54239 -1.3027,-0.91106 -2.11788,-1.83809 -2.46154,-2.76513 -0.34365,-0.91105 -0.23177,-1.75817 0.31169,-2.53336 0.35165,-0.49549 0.82318,-0.80716 1.3986,-0.91106 0.57543,-0.0959 1.1988,0 1.87013,0.2877 l 0.79121,-2.04587 c -1.20679,-0.59138 -2.34166,-0.81515 -3.38062,-0.63134 -1.05494,0.16782 -1.96603,0.79118 -2.72527,1.85407 -0.58342,0.83913 -0.87912,1.67825 -0.88712,2.5014 0,1.09486 0.33567,2.17374 1.02298,3.22864 0.67932,1.03892 1.63836,1.99792 2.86913,2.87701 z"
   id="path22"
   style="stroke-width:7.99184" />
	<polygon
   fill="#002c76"
   points="251.927,415.638 251.354,415.099 251.713,414.714 252.289,415.255 252.471,415.06 251.157,413.823 250.973,414.019 251.492,414.506 251.131,414.889 250.612,414.402 250.428,414.597 251.744,415.835 "
   id="polygon24"
   transform="matrix(7.992008,0,0,7.9916886,-1724.348,-2861.7541)" />
	<path
   fill="#002c76"
   d="m 295.63998,453.30225 -1.38262,-3.10078 3.31668,-2.70119 2.78122,1.95796 1.7982,-1.45448 -12.44355,-8.48718 -1.77423,1.4465 5.92208,13.77767 z m -4.68332,-10.44514 4.53147,3.20467 -2.26174,1.83808 z"
   id="path26"
   style="stroke-width:7.99184" />
	
		<rect
   x="526.216"
   y="-4.0903773"
   transform="matrix(0.5570901,0.83045205,-0.83047265,0.5570594,0,0)"
   fill="#002c76"
   width="14.417839"
   height="2.1499209"
   id="rect28"
   style="stroke-width:7.99221" />
	<polygon
   fill="#002c76"
   points="254.491,413.574 254.718,413.47 254.122,412.179 254.958,413.359 255.192,413.251 254.834,411.851 255.432,413.14 255.658,413.034 254.9,411.396 254.533,411.565 254.835,412.782 254.101,411.767 253.733,411.937 "
   id="polygon30"
   transform="matrix(7.992008,0,0,7.9916886,-1724.348,-2861.7541)" />
	<path
   fill="#002c76"
   d="m 321.57404,438.23791 -0.0959,-3.39646 4.0999,-1.21474 1.82218,2.885 2.22178,-0.65532 -8.23177,-12.61888 -2.18981,0.65532 0.16783,14.99241 z m 2.63737,-6.74498 -2.8052,0.83113 -0.15185,-5.53025 z"
   id="path32"
   style="stroke-width:7.99184" />
	<path
   fill="#002c76"
   d="m 332.38723,435.44082 -0.91908,-5.94581 0.43157,-0.0639 c 0.48751,-0.0799 0.84715,-0.0799 1.0949,-0.016 0.23976,0.0879 0.47952,0.23975 0.72728,0.50348 0.24775,0.25573 0.71928,0.88707 1.43856,1.918 l 2.00599,2.86102 2.53347,-0.39159 -1.7023,-2.58931 c -0.67133,-1.02293 -1.1988,-1.73419 -1.56643,-2.12578 -0.36764,-0.38361 -0.8072,-0.72725 -1.31869,-1.02294 0.88712,-0.32766 1.51049,-0.8631 1.86214,-1.6383 0.35165,-0.78318 0.44755,-1.68624 0.27972,-2.75713 -0.12787,-0.84712 -0.3996,-1.57436 -0.7992,-2.16575 -0.41558,-0.62335 -0.88711,-1.01494 -1.43856,-1.18277 -0.54346,-0.17581 -1.38262,-0.17581 -2.5015,-0.008 l -4.45155,0.69528 2.2058,14.24918 z m -0.18382,-12.10741 c 0.84716,-0.12786 1.37463,-0.1918 1.54246,-0.1918 0.35964,0.032 0.65535,0.17582 0.88711,0.44754 0.23177,0.27172 0.39161,0.64732 0.45555,1.13482 0.0719,0.41557 0.0559,0.79117 -0.04,1.09486 -0.1039,0.31967 -0.26374,0.53544 -0.5035,0.71126 -0.23177,0.14385 -0.85514,0.29569 -1.87013,0.46352 l -1.55844,0.23176 -0.55944,-3.61225 z"
   id="path34"
   style="stroke-width:7.99184" />
	
		<rect
   x="439.89038"
   y="-315.37784"
   transform="matrix(0.06130363,0.99811916,-0.99811946,0.06129877,0,0)"
   fill="#002c76"
   width="14.440704"
   height="2.1498082"
   id="rect36"
   style="stroke-width:7.9917" />
	<polygon
   fill="#002c76"
   points="259.858,410.632 258.803,410.61 258.798,410.916 259.19,410.923 259.159,412.423 259.428,412.43 259.458,410.928 259.852,410.936 "
   id="polygon38"
   transform="matrix(7.992008,0,0,7.9916886,-1724.348,-2861.7541)" />
	
		<rect
   x="398.90585"
   y="378.77301"
   transform="matrix(0.99399831,0.10939546,-0.10940408,0.99399736,0,0)"
   fill="#002c76"
   width="2.1418617"
   height="14.425035"
   id="rect40"
   style="stroke-width:7.99186" />
	<polygon
   fill="#002c76"
   points="260.737,412.558 261.038,411.169 260.995,412.613 261.248,412.667 261.803,411.333 261.505,412.722 261.749,412.774 262.129,411.011 261.734,410.925 261.244,412.079 261.268,410.825 260.873,410.739 260.493,412.504 "
   id="polygon42"
   transform="matrix(7.992008,0,0,7.9916886,-1724.348,-2861.7541)" />
	<polygon
   fill="#002c76"
   points="262.895,413.191 263,412.905 262.301,412.649 262.469,412.19 263.099,412.421 263.203,412.136 262.575,411.903 262.713,411.526 263.389,411.775 263.494,411.488 262.567,411.147 261.943,412.842 "
   id="polygon44"
   transform="matrix(7.992008,0,0,7.9916886,-1724.348,-2861.7541)" />
	<path
   fill="#002c76"
   d="m 385.13448,445.0788 c 0.71928,0.41557 1.39061,0.64733 1.99001,0.65532 0.6074,0.016 1.15884,-0.11189 1.67033,-0.3836 0.51948,-0.25574 1.01499,-0.66331 1.47852,-1.22273 0.46354,-0.55942 1.13487,-1.59035 2.01399,-3.0768 l 3.86014,-6.5372 -1.84615,-1.08687 -4.05994,6.87285 c -0.58342,0.98298 -1.03097,1.67026 -1.33467,2.06185 -0.3037,0.39959 -0.67932,0.65532 -1.11089,0.79118 -0.44755,0.14385 -0.91908,0.04 -1.43856,-0.25573 -0.51948,-0.31168 -0.83117,-0.70327 -0.95904,-1.18277 -0.11189,-0.49549 -0.0559,-0.99896 0.16783,-1.56637 0.14386,-0.33565 0.51948,-1.03892 1.15884,-2.1178 l 3.98002,-6.729 -1.85414,-1.09486 -3.91609,6.64109 c -0.82317,1.39055 -1.38262,2.47742 -1.67832,3.24462 -0.20779,0.53545 -0.3037,1.10286 -0.3037,1.69424 0,0.5834 0.15185,1.16679 0.44756,1.71022 0.28771,0.53545 0.87113,1.07089 1.73426,1.58236 z"
   id="path46"
   style="stroke-width:7.99184" />
	<polygon
   fill="#002c76"
   points="265.215,414.63 265.425,414.798 266.543,413.379 266.347,413.224 265.599,414.175 265.917,412.886 265.712,412.724 264.595,414.144 264.791,414.296 265.523,413.367 "
   id="polygon48"
   transform="matrix(7.992008,0,0,7.9916886,-1724.348,-2861.7541)" />
	
		<rect
   x="41.114452"
   y="-603.75562"
   transform="matrix(-0.68848269,0.72525278,-0.72528024,-0.68845375,0,0)"
   fill="#002c76"
   width="14.417946"
   height="2.1419165"
   id="rect50"
   style="stroke-width:7.99222" />
	<polygon
   fill="#002c76"
   points="267.842,414.711 266.624,415.353 267.405,414.218 267.212,413.999 266.171,415.548 266.364,415.765 268.03,414.924 "
   id="polygon52"
   transform="matrix(7.992008,0,0,7.9916886,-1724.348,-2861.7541)" />
	<polygon
   fill="#002c76"
   points="267.298,417.03 267.55,416.857 267.128,416.243 267.533,415.966 267.911,416.518 268.163,416.348 267.785,415.794 268.115,415.567 268.522,416.16 268.773,415.988 268.215,415.173 266.726,416.194 "
   id="polygon54"
   transform="matrix(7.992008,0,0,7.9916886,-1724.348,-2861.7541)" />
	<path
   fill="#002c76"
   d="m 413.58603,474.09662 5.36264,-2.74115 0.19181,0.39159 c 0.21578,0.43955 0.33566,0.7752 0.34365,1.02294 0,0.26373 -0.0719,0.53544 -0.23976,0.85511 -0.16783,0.30368 -0.63137,0.96699 -1.38261,1.96596 l -2.09391,2.80508 1.16683,2.28562 1.91808,-2.42947 c 0.76724,-0.97499 1.27073,-1.69424 1.52648,-2.15776 0.25574,-0.47151 0.43956,-0.99896 0.55944,-1.56637 0.58341,0.74323 1.2947,1.16679 2.14186,1.2467 0.83916,0.1039 1.74225,-0.0959 2.7013,-0.59138 0.76723,-0.3836 1.36663,-0.8631 1.82217,-1.4465 0.45555,-0.56741 0.67133,-1.16678 0.67133,-1.7262 0,-0.5754 -0.26373,-1.37457 -0.77522,-2.38152 l -2.05395,-4.01183 -12.84316,6.55318 z m 10.66933,-5.45832 0.75924,1.48645 c 0.3996,0.77519 0.62338,1.2547 0.66334,1.41453 0.0879,0.35163 0.04,0.6713 -0.14386,0.97499 -0.17582,0.30368 -0.48751,0.5754 -0.91908,0.79117 -0.38361,0.1918 -0.74325,0.2957 -1.07093,0.31168 -0.31169,0 -0.59141,-0.0799 -0.81518,-0.26373 -0.23177,-0.16782 -0.55944,-0.71925 -1.03097,-1.62231 l -0.71129,-1.41453 z"
   id="path56"
   style="stroke-width:7.99184" />
	<path
   fill="#002c76"
   d="m 424.73488,479.57093 c -0.37562,0.63134 -0.55944,1.55038 -0.54345,2.77311 0.016,0.92704 0.008,1.5424 -0.016,1.81412 -0.0479,0.42356 -0.15984,0.71925 -0.33566,0.95101 -0.17583,0.20778 -0.42358,0.3836 -0.75125,0.49548 -0.5035,0.17582 -0.999,0.17582 -1.49451,-0.024 -0.48751,-0.1998 -0.84715,-0.62336 -1.08691,-1.2547 -0.22378,-0.62335 -0.18382,-1.19076 0.11189,-1.69424 0.28771,-0.51146 0.86313,-0.98297 1.71828,-1.4385 l -0.96703,-1.87805 c -1.47053,0.66331 -2.48552,1.49445 -3.04496,2.44546 -0.54345,0.97499 -0.5994,2.08583 -0.14385,3.35651 0.30369,0.8631 0.74325,1.55039 1.27872,1.99792 0.53546,0.4795 1.1988,0.74323 1.998,0.82314 0.7992,0.0719 1.58242,-0.024 2.36563,-0.30368 0.85515,-0.29569 1.53447,-0.70327 2.02198,-1.16679 0.49551,-0.48749 0.82318,-1.00695 0.99101,-1.59833 0.16783,-0.5834 0.23976,-1.43851 0.20779,-2.52538 -0.04,-1.10285 0.04,-1.83009 0.24775,-2.17374 0.15185,-0.2877 0.39161,-0.49548 0.71129,-0.59138 0.35964,-0.12787 0.67133,-0.12787 0.96704,0.008 0.44755,0.21578 0.77522,0.62335 0.97502,1.20674 0.21579,0.55942 0.20779,1.03892 0,1.43052 -0.1998,0.39159 -0.63137,0.75921 -1.3027,1.10285 l 0.82318,1.97395 c 1.24675,-0.4795 2.11788,-1.16679 2.64536,-2.06985 0.52747,-0.90306 0.55944,-1.98194 0.11988,-3.23663 -0.27972,-0.7752 -0.66334,-1.36658 -1.18282,-1.80613 -0.51149,-0.42356 -1.11888,-0.67929 -1.83017,-0.74322 -0.7033,-0.0799 -1.40659,0 -2.09391,0.25573 -1.06293,0.35164 -1.86214,0.97499 -2.38961,1.87006 z"
   id="path58"
   style="stroke-width:7.99184" />
	
		<rect
   x="-297.9964"
   y="-582.30804"
   transform="matrix(-0.96799034,0.25098747,-0.25100626,-0.96798546,0,0)"
   fill="#002c76"
   width="14.425717"
   height="2.1418047"
   id="rect60"
   style="stroke-width:7.99195" />
	<polygon
   fill="#002c76"
   points="270.101,420.623 270.401,420.572 270.222,419.533 269.922,419.584 269.988,419.971 268.509,420.227 268.556,420.491 270.034,420.237 "
   id="polygon62"
   transform="matrix(7.992008,0,0,7.9916886,-1724.348,-2861.7541)" />
	<polygon
   fill="#002c76"
   points="270.496,422.01 270.479,421.7 269.747,421.433 270.446,421.083 270.429,420.765 269.411,421.31 268.652,421.349 268.667,421.618 269.422,421.577 "
   id="polygon64"
   transform="matrix(7.992008,0,0,7.9916886,-1724.348,-2861.7541)" />
	
	
	
	
	
	
	
	
	
	
	
	
	
	
	
	
	
	
	
	
	
	
	
	
	
	
	
	
	
	
	
	
	
	
	
	
	
	<path
   fill="#002c76"
   d="m 299.53208,548.37937 c -0.2957,-0.032 -0.5994,0.15983 -0.94305,0.20778 -1.13487,0.17582 -2.26174,0.27971 -3.53247,0.55143 -0.55944,0.11188 -1.18282,0.35962 -1.83017,0.25573 -0.40759,-0.69528 -0.8951,-2.39751 -0.62338,-3.51634 0.14386,-0.59139 0.46354,-1.17478 0.56744,-1.86207 0.22377,-1.31862 -0.2078,-2.6932 0.22377,-3.844 0.15185,-0.37561 0.5035,-0.62335 0.71928,-0.92703 0.14386,-0.22377 0.76724,-2.20571 0.66334,-2.49341 -0.1039,-0.19979 -0.20779,-0.37561 -0.31968,-0.55942 -0.3037,-0.18381 -0.60739,-0.25573 -1.14286,-0.22377 -1.80619,0.91905 -2.13386,3.00488 -2.43756,5.36243 0.0559,0.64732 0.11189,1.29465 0.16783,1.94997 -0.0719,1.03892 -0.14385,2.08583 -0.1998,3.14073 0.19181,0.8631 0.36763,1.94198 0.41559,3.14873 -0.31968,0.23975 -0.67932,0.20778 -1.17483,0.22376 -0.46353,0.048 -0.93506,0.0799 -1.3986,0.11189 -1.27073,-0.1918 -1.73427,-0.8711 -2.67732,0.45552 -0.25575,0.36762 -0.81519,0.72725 -0.47952,1.55039 0.23976,0.5754 1.81418,1.11884 2.62138,1.17478 3.66034,0.32766 6.88111,-0.69528 9.84615,-1.51043 0.48751,-0.11987 0.98302,-0.22377 1.47053,-0.32766 0.35165,-0.17582 0.76723,-0.59138 1.12687,-0.79118 0.3037,-0.16782 0.75125,-0.032 0.9031,-0.35962 0.43956,-1.1588 -1.17483,-1.61432 -1.96604,-1.71821 z"
   id="path140"
   style="stroke-width:7.99184" />
	<path
   fill="#002c76"
   d="m 347.73189,545.43842 c -0.25575,-0.73523 -0.52748,-1.48645 -0.79921,-2.21369 -0.1998,-0.86311 0.0639,-1.82211 -0.32767,-2.4055 -0.48751,-0.0959 -0.83117,0 -1.25474,0.11987 -0.33567,-0.048 -0.68732,-0.0799 -1.03097,-0.11987 -0.84716,0.71126 -2.81319,0.7672 -4.4036,0.78318 -0.032,-0.0639 -0.048,-0.12786 -0.0879,-0.17581 0.5035,-1.07888 2.61339,-2.82906 3.70829,-3.38848 0.43157,-0.21577 1.01499,-0.04 1.47053,-0.18381 0.40759,-0.15184 1.11888,-0.83113 0.84715,-1.39854 -0.1998,-0.36762 -0.87113,-0.50348 -1.41458,-0.33565 -0.24775,0.15983 -0.48751,0.30368 -0.72727,0.43954 -1.05495,0.048 -2.1099,0.0879 -3.16484,0.13586 -0.47153,0.008 -1.12687,0.27171 -1.48651,0.0799 -0.22378,-0.17581 -0.26374,-0.53544 -0.49551,-0.72724 -0.27173,-0.032 -0.54345,-0.048 -0.81518,-0.048 -0.47952,0.23176 -0.79121,0.27971 -1.09491,0.69528 -0.0639,0.59138 -0.12787,1.19875 -0.1998,1.8221 1.39061,0.83114 2.9011,0.12787 4.53946,-0.0799 0.28771,-0.008 0.56743,-0.032 0.84716,-0.048 0.024,0 0.0479,0 0.0639,0 -0.0719,0.5834 -2.18182,2.01391 -2.69331,2.42948 -1.1988,0.97498 -2.34165,2.28562 -3.22077,3.56429 -0.32768,0.59938 -0.65535,1.19875 -0.98302,1.79813 -0.29571,0.11189 -0.59141,0.19979 -0.87912,0.32766 -1.03896,0.43954 -2.6054,0.98298 -3.18881,1.88604 -0.0639,0.008 -0.11988,0.008 -0.18382,0.008 -0.60739,-1.10285 -0.47153,-4.33149 0.11189,-5.16263 0.26373,-0.37561 0.999,-0.26373 1.16683,-0.72724 0.22378,-0.62336 -0.15984,-1.47047 -0.23177,-1.926 0.048,-0.0639 0.11988,-0.13586 0.16784,-0.17582 1.64635,0.19979 1.83816,-0.16782 2.0939,-1.61432 0.04,-0.24774 0.16783,-0.52745 0.016,-0.82314 -0.15185,-0.26373 -1.77423,-0.99097 -2.2058,-0.84712 -0.3037,0.16782 -1.1029,1.56637 -0.96703,2.17374 0.0799,0.35962 0.37562,0.61536 0.20779,1.0549 -0.24775,0.65532 -1.02298,0.87909 -1.16683,1.62231 -0.0719,0.36762 0.15984,0.51946 0.24775,0.73524 0.14386,0.39958 0.0719,0.91904 -0.008,1.31863 -0.45555,2.17374 -1.25475,4.29953 -0.72728,6.89682 0.12788,0.62336 -0.23176,1.31064 0.008,1.79813 0.0719,0.15185 0.15185,0.1998 0.30369,0.24775 0.23976,0.10389 0.51948,-0.032 0.69531,-0.0879 1.51049,-0.50348 0.4955,-1.88604 1.20679,-2.91697 0.16783,-0.27971 1.49451,-1.03892 2.03796,-0.91105 0.12788,0.89507 -0.41558,2.30161 0.27173,3.06082 0.39161,0.43954 1.15884,0.39159 1.79021,0.55142 1.47852,0.36762 3.44456,0.3916 4.94705,-0.10389 0.66334,-0.24774 1.33467,-0.48749 2.01399,-0.71925 0.71928,-0.0559 1.44655,-0.12787 2.16583,-0.17582 0.57543,-0.35962 0.92708,-1.56637 0.27173,-2.03788 -0.008,-0.0719 -0.008,-0.15184 -0.008,-0.20778 0.35165,-0.23975 0.7033,-0.4795 1.04695,-0.71126 0.27173,-0.25574 0.34366,-0.63934 0.71129,-0.83114 0.95105,-0.30368 1.63037,0.967 2.57343,-0.39958 0.9031,-1.27867 -0.89511,-1.90203 -1.76623,-2.04588 z m -3.85215,3.58028 c -0.6074,-0.0799 -0.75924,-0.61536 -1.35065,-0.71126 -0.04,0.04 -0.0879,0.0719 -0.13587,0.0879 -0.12787,0.71126 0.0719,0.90306 0.22378,1.4385 -0.016,0.032 -0.024,0.0559 -0.032,0.0639 -1.03097,0.55142 -5.98601,0.26372 -6.87312,-0.13586 -0.0719,-0.31168 0.032,-0.75122 0.23176,-0.91905 0.2078,-0.16782 2.24576,-0.83113 2.52548,-0.74322 0.04,0.016 0.0719,0.016 0.11189,0.032 0.11188,0.71126 -0.04,0.99097 0.30369,1.57437 2.83717,0.6713 1.75025,-1.27867 2.82917,-1.98993 0.78322,0.024 2.25375,-0.21578 2.99701,0.0719 0.42357,0.30368 -0.61539,1.07888 -0.83117,1.23072 z m 1.63037,-3.78007 c -0.46354,0.27971 -3.26873,0.1918 -3.9081,0 -0.0719,-0.24774 -0.14385,-0.50347 -0.20779,-0.7672 -0.32767,-0.0799 -0.79121,-0.19979 -1.14285,-0.0799 -0.4076,0.1998 -0.51149,0.7752 -0.75125,1.12683 -0.61539,0.15184 -1.45455,0.25574 -2.06194,0.13586 -0.032,-0.04 -0.0639,-0.0959 -0.0799,-0.14385 -0.17583,-0.4795 0.53546,-1.45449 0.75924,-1.79813 0.31169,0 0.61538,0.008 0.92707,0.008 0.42358,-0.11987 1.03097,-0.31167 1.62238,-0.42356 1.00699,-0.15983 2.81319,0.15984 4.04396,-0.35962 0.0959,0.008 0.1918,0.008 0.2957,0.016 0.46354,0.27971 0.5994,1.56637 0.5035,2.28562 z"
   id="path142"
   style="stroke-width:7.99184" />
	<path
   fill="#002c76"
   d="m 324.61101,545.16671 c -1.08692,-0.70327 -0.15984,-2.76513 -1.56644,-3.42844 -1.22277,-0.56741 -4.68331,0.78319 -6.14585,0.4795 -0.15984,0.048 -0.22378,0.016 -0.26374,-0.17581 0.41559,-0.68729 1.98202,-2.42948 2.72528,-2.70119 0.47952,-0.17582 1.05494,0 1.55045,-0.18381 0.30369,-0.12787 0.35964,-0.55143 0.60739,-0.72725 0.42358,-0.2877 0.93506,-0.27171 1.16683,-0.73523 0.024,-0.12787 0.04,-0.23176 0.0639,-0.36762 -0.19181,-0.29569 -0.35964,-0.46352 -0.64735,-0.63933 -1.06294,-0.15984 -4.14786,1.19076 -5.04296,0.43954 0.0879,-0.36762 0.17582,-0.75122 0.26373,-1.12683 0.28772,-0.39958 1.007,-0.54343 0.77523,-1.3506 -0.1039,-0.12786 -0.1998,-0.25573 -0.31169,-0.39159 -0.2957,-0.024 -0.58342,-0.032 -0.87912,-0.0559 -0.3037,0.22377 -0.66334,0.34364 -0.87113,0.66331 -0.11988,0.16783 -0.23976,0.35963 -0.35165,0.54344 -1.43057,1.16678 -3.03696,1.98993 -4.30769,3.30855 -1.998,2.06186 -3.38062,4.77104 -4.54745,7.64805 -0.24775,0.64733 -0.49551,1.29465 -0.75125,1.94198 -0.032,0.8631 -0.0719,1.75018 -0.11189,2.62127 -0.0639,0.25574 -0.28771,0.51147 -0.19181,0.91905 0.0719,0.32766 0.19181,0.90306 0.35964,1.13482 0.77523,0.16782 1.72628,-0.0799 1.9021,-0.71126 0.22378,-0.83114 -0.63137,-1.41453 -0.72727,-2.18173 -0.11189,-0.85511 0.42358,-3.41245 0.6953,-4.20363 0.73527,-2.06186 2.50949,-5.28251 4.02798,-6.56917 0.86313,-0.65532 1.72627,-1.31863 2.5974,-1.98194 0.0559,-0.008 0.10389,-0.008 0.15185,-0.008 0.20779,0.43155 -0.016,1.19875 0.27172,1.62231 0.49551,0.73524 2.26174,0.40758 3.26074,0.47151 0.016,0.048 0.032,0.10389 0.04,0.16783 -0.55944,0.55142 -1.13486,1.11883 -1.68631,1.67026 -0.25574,0.32766 -0.5035,0.62335 -0.74326,0.94302 -0.23976,0.10389 -0.47153,0.17582 -0.70329,0.27971 -0.36764,0.3836 -0.73527,0.75921 -1.11089,1.14281 -0.18382,0.27971 -0.19181,0.59139 -0.34366,0.92704 -0.0719,0.16782 -1.07892,1.86206 -1.16683,1.91001 -0.58342,0.37561 -1.55045,0.29569 -2.2058,0.2877 -0.16783,0.17582 -0.33566,0.34364 -0.4955,0.51946 -0.9031,0.60737 -1.91808,0.53544 -1.86214,2.04587 1.24675,1.34261 2.25375,0.24775 3.81219,0.12787 0.0959,0.1918 0.008,0.36762 0.0479,0.61536 0.14386,0.88708 0.14386,1.62231 0.57543,2.16575 1.01498,1.27068 3.43656,0.79118 5.10689,0.44753 0.35964,0 0.71129,0.008 1.07093,0.008 0.97502,-0.24774 1.81418,-0.68728 3.04495,-0.71126 0.27173,-0.41556 1.06294,-1.60633 0.39161,-2.07784 0.04,-0.1918 2.01399,-2.18173 2.18182,-2.23767 0.53546,-0.15983 0.86314,0.17582 1.35864,-0.20778 0.46354,-0.39959 0.5994,-1.40654 0.0959,-1.90202 -0.29571,-0.27971 -0.74326,-0.16783 -1.11089,-0.37561 z m -4.72328,4.82698 c -1.11888,0.42356 -5.36264,1.03892 -5.94605,-0.0639 -0.18382,-0.37561 -0.0799,-0.89507 0.0799,-1.15879 0.43156,-0.0959 1.93406,-0.47151 2.42157,-0.32766 0.5035,0.16782 0.95105,0.65532 1.79021,0.43954 0.5994,-0.14385 0.67932,-0.63933 1.11888,-0.87908 0.42358,-0.0959 0.83117,-0.1918 1.25475,-0.2877 0.34366,-0.008 0.75125,-0.04 0.999,0.0399 0,0.04 0.024,0.0799 0.032,0.12787 -0.55944,0.75921 -1.35065,1.16679 -1.75025,2.10981 z m 2.3976,-4.86694 c -0.21578,0.36762 -0.83117,0.048 -1.35065,0.14385 -0.66333,0.0719 -1.33466,0.15184 -1.99001,0.19979 -0.40759,-0.11188 -0.76723,-0.69528 -1.31069,-0.62335 -0.6953,0.10389 -0.58341,0.79118 -1.08691,0.98298 -0.39161,0.16782 -1.24675,0.27171 -1.68631,0.16782 -0.0639,-0.40757 0.14385,-1.2467 0.47952,-1.42252 0.36763,0.032 0.73526,0.0719 1.10289,0.0879 1.19881,-0.11987 4.11589,-0.27172 5.003,-0.72724 0.15185,-0.008 0.29571,-0.008 0.44755,-0.024 0.17583,0.21578 0.55944,0.79118 0.39161,1.21474 z"
   id="path144"
   style="stroke-width:7.99184" />
	<path
   fill="#002c76"
   d="m 306.23738,542.50547 c 0.0559,0.20779 0.11189,0.41557 0.16783,0.63135 0.15185,0.008 1.24676,-0.31967 1.5025,-0.42356 0.43956,-0.8711 -0.15185,-1.78215 -0.22378,-2.71718 0.008,-0.032 0.016,-0.0559 0.032,-0.0719 0.5994,-0.35164 1.43856,0.7672 2.35764,-0.0799 1.07892,-0.98298 0.88712,-3.35651 -0.98301,-3.33253 -0.59141,0.45552 -1.27872,0.98298 -1.53447,1.75018 -0.18382,0.53544 -0.1039,1.23871 -0.3996,1.67026 -0.36763,0.52745 -1.26274,0.959 -1.42258,1.63031 -0.15185,0.60736 0.31968,0.69527 0.5035,0.94301 z"
   id="path146"
   style="stroke-width:7.99184" />
	<path
   fill="#002c76"
   d="m 393.47015,545.85399 c 1.25474,0.5834 0.95105,-2.66922 1.1988,-3.23663 0.28771,-0.63934 2.38162,-0.89507 3.25275,-1.13482 2.84515,-0.72725 5.80219,-1.80612 9.14285,-1.83809 0.032,0.04 0.0719,0.0799 0.11189,0.12787 -0.0719,0.51147 -0.20779,0.91105 0.43157,0.89507 0.24775,0.36761 0.38362,0.87109 0.80719,1.0549 1.37463,0.55143 2.2058,-1.39055 1.8062,-2.71717 -0.34366,-1.14282 -2.06993,-1.19876 -3.39661,-1.30265 -0.016,-0.0719 -0.024,-0.15184 -0.04,-0.22377 0.82318,-1.11084 1.5025,-2.85303 0.89511,-4.77903 -0.21579,-0.42356 -1.14286,-0.64732 -1.75025,-0.39159 -1.07892,0.45553 -2.02198,1.70223 -3.33267,1.89403 -0.016,-0.008 -0.024,-0.016 -0.04,-0.04 -0.0799,-0.59937 0.44755,-1.26269 0.23976,-1.95796 -0.0639,-0.15984 -0.11988,-0.22377 -0.26374,-0.2877 -0.16783,0 -0.32767,-0.008 -0.47952,-0.032 -0.96703,0.51946 -1.32667,1.19875 -1.91009,2.04587 -0.0479,0.016 -0.0959,0.016 -0.15184,0.016 -0.12788,-0.3836 -0.21579,-0.53545 -0.42358,-0.80716 -1.44655,-0.2957 -1.98202,3.14872 -2.91708,3.844 -0.008,-0.016 -0.032,-0.024 -0.04,-0.032 0.008,-0.35962 0.032,-0.72724 0.0479,-1.07888 0.16783,-0.0879 0.27972,-0.048 0.47153,-0.11987 0.47952,-0.35164 -0.008,-1.91801 -0.42358,-2.10182 -0.51948,0.032 -0.98302,0.30369 -1.09491,0.69528 0.024,0.23176 0.032,0.47151 0.0559,0.70327 -0.16783,0.8631 -0.39161,1.69424 -0.21579,2.80508 0.0639,0.42356 0.22378,1.08687 0.0799,1.51842 -0.016,0.032 -0.024,0.0719 -0.032,0.11189 -0.32768,0.024 -0.49551,-0.15984 -0.78322,-0.23975 -0.48751,-0.13586 -1.18282,0.31167 -1.38262,0.59138 -0.71129,1.00695 -0.47952,3.62024 -0.16783,4.73108 0.0959,0.32766 0.048,1.1588 0.3037,1.28666 z m 9.95804,-9.54207 c 0.0959,-0.38361 -0.0479,-0.967 0.15185,-1.2547 0.3996,-0.60737 1.66233,-0.62335 2.34166,-0.99097 0.51148,0.032 0.47152,0.8711 0.3996,1.27867 -0.14386,0.70327 -0.76724,2.25366 -1.49451,2.14977 -0.008,-0.032 -0.032,-0.0799 -0.04,-0.1039 0.27972,-0.36761 1.3986,-0.91904 1.13487,-1.59034 -0.19181,-0.39959 -0.71929,-0.33565 -1.18282,-0.22377 -1.36664,0.32766 -1.01499,1.33461 -1.42258,2.36554 -0.19181,0.04 -0.38362,0.0639 -0.57542,0.0959 -0.016,-0.0559 -0.04,-0.11188 -0.048,-0.17582 0.29571,-0.43954 0.59141,-0.99097 0.73527,-1.55038 z m -3.16484,-1.12683 c 0.19181,0.11987 0.56744,0.58339 0.5035,0.90306 -0.15984,0.2877 -0.32767,0.58339 -0.48751,0.87109 -0.16783,0.52745 -0.33567,1.0629 -0.51149,1.59035 -0.17583,0.0719 -0.34366,0.12787 -0.62338,0.12787 -0.008,-0.008 -0.032,-0.016 -0.04,-0.024 0.0639,-1.75018 0.16783,-2.43746 1.15884,-3.46839 z m -2.65334,1.7262 c 0.0719,0.0559 0.0639,0.04 0.11988,0.11189 0.21578,0.52745 -0.048,1.91001 -0.35165,2.14976 -0.11988,0.024 -0.23976,0.032 -0.35964,0.0639 -0.024,-0.0639 -0.0559,-0.11188 -0.0719,-0.16782 -0.27173,-0.60737 0.37562,-1.82211 0.66334,-2.15776 z"
   id="path148"
   style="stroke-width:7.99184" />
	<path
   fill="#002c76"
   d="m 298.10152,541.92208 c 0.26373,-0.20778 0.55144,-0.45552 0.68731,-0.79917 0.44755,-1.18277 -0.19181,-2.15775 -1.11089,-2.45345 -0.37563,0.024 -0.76723,0.04 -1.14286,0.04 -0.2957,-0.0799 -0.34365,-0.29569 -0.82317,-0.26372 -0.59141,0.49548 -1.05495,1.83809 -1.02298,2.86901 1.18282,0.69528 2.06993,1.67826 3.41259,0.60737 z"
   id="path150"
   style="stroke-width:7.99184" />
	<path
   fill="#002c76"
   d="m 403.19642,545.13474 c -0.024,-0.008 -0.048,-0.04 -0.0799,-0.0639 -0.008,-0.04 -0.024,-0.0799 -0.032,-0.1039 0.38362,-0.51946 0.7033,-0.32765 1.19081,-0.6713 0.66334,-0.44753 0.68731,-1.50243 0.23976,-2.06984 -0.28771,-0.032 -0.56743,-0.0639 -0.85514,-0.1039 -0.5035,0.0719 -0.999,0.13586 -1.5025,0.1918 -1.75025,0.43156 -6.14585,0.75921 -5.45854,2.93295 0.94306,0.47151 2.15784,-0.27971 2.98102,-0.52745 0.37562,-0.11987 0.95904,-0.31967 1.15085,-0.11987 -0.0959,0.2877 -0.18382,0.5754 -0.27173,0.85511 -0.95105,0.58339 -1.99001,0.78318 -3.10889,1.27068 -0.55145,0.24774 -0.91908,0.78318 -1.37463,1.1508 -0.38361,0.31168 -1.15884,1.23072 -0.67133,1.97395 0.24776,0.39159 1.19081,0.50347 1.84616,0.32766 0.68731,-0.1998 1.17482,-0.91905 1.73426,-1.31064 0.15984,-0.11188 2.06993,-0.69528 2.26973,-0.73524 0.71129,1.1588 -0.16783,2.86103 -0.98301,3.43643 -0.3996,0.27971 -0.79121,0.41557 -1.04696,0.83114 -0.13586,0.19979 0.0799,0.26372 0.016,0.54343 -0.23177,0.95101 -0.58342,2.42148 1.00699,1.79813 0.74326,-0.29569 0.6953,-1.10285 1.13486,-1.67825 0.16784,-0.11988 0.33567,-0.24775 0.5035,-0.37561 1.24675,-1.33462 1.75025,-2.94095 1.62238,-5.43435 0.83117,-0.5754 2.80519,-0.0559 3.89211,-0.43955 0.61538,-0.30368 0.36763,-1.71022 -0.15984,-1.91001 -0.63137,-0.23975 -3.13287,0.1918 -4.04396,0.23176 z"
   id="path152"
   style="stroke-width:7.99184" />
	<path
   fill="#002c76"
   d="m 371.34028,537.07113 c -0.0959,-2.05387 -5.24276,-0.3916 -6.92108,-0.69528 -0.46354,-0.83114 0.34365,-2.17374 -1.05495,-2.22169 -1.33466,0.77519 -0.88711,0.84712 -0.75125,2.26964 -0.67132,0.71925 -5.22677,0.62335 -6.55344,0.99896 -0.64736,0.17582 -1.68632,0.3836 -1.42258,1.35859 0.17582,0.71126 1.1029,0.91904 2.00599,0.70327 1.81419,-0.46352 3.61239,-1.10286 5.61839,-1.23872 0.008,0.048 0.016,0.1039 0.04,0.15185 -0.37563,0.50347 -3.84416,1.918 -4.65934,2.2057 -0.84716,0.27172 -1.17483,0.45553 -1.36664,1.36658 0,0.25574 -0.016,0.52745 -0.016,0.79917 0.31968,0.73524 1.25474,0.63934 1.92607,0.32766 0.75125,-0.35163 0.58342,-0.82314 1.00699,-1.17478 0.47153,-0.42356 2.12588,-1.16679 2.91709,-1.23072 0.024,0.048 0.048,0.0799 0.0719,0.11988 0.30369,0.79117 -0.98302,0.65532 -1.48652,0.81515 -1.01498,0.32766 -1.22278,0.75122 -1.02297,1.7342 -0.016,0.016 -0.032,0.016 -0.04,0.0399 -0.23977,0.35164 -2.37363,1.1588 -2.91709,1.28667 -1.15085,0.32765 -3.1009,0.11188 -2.60539,1.70223 0.1998,0.40757 1.50249,0.83113 2.22977,0.59937 0.33566,-0.15184 0.67133,-0.31167 1.01498,-0.47151 1.32668,-0.45552 3.21279,-0.64732 4.81119,-0.72724 0.032,0.032 0.0559,0.048 0.0799,0.0799 0,0.032 0,0.0639 0,0.11188 v 0.032 c -0.72727,0.47151 -2.03796,0.27171 -3.00499,0.49548 -0.94306,0.20778 -1.87813,0.41557 -2.83717,0.63934 -0.2957,0.0879 -0.60739,0.1838 -0.90309,0.27171 -0.84716,0.048 -2.18182,0.20779 -3.01299,0.46352 -0.1039,0.18381 -0.21578,0.42356 -0.11988,0.71126 0.33566,0.71925 1.95005,0.37561 2.80519,0.17582 1.34266,-0.31967 2.97303,-0.34364 4.56344,-0.64733 0.48751,-0.0559 0.98302,-0.11188 1.47053,-0.15983 0.5035,0.0559 1.03097,-0.22377 1.51049,-0.04 0.1039,0.0559 0.0879,0.0559 0.15185,0.14385 -0.87113,1.50244 -3.68432,0.46352 -5.25075,0.84712 -0.65535,0.15983 -1.95005,0.71925 -1.43057,1.62231 0.53546,1.03093 5.15484,0.008 6.34565,-0.032 0.048,0.0799 0.1039,0.15185 0.15984,0.22377 -0.33566,0.88708 -0.77522,2.5014 -1.6943,2.80508 -0.51948,0.032 -1.03097,0.0639 -1.55045,0.0879 0,0.1039 -0.016,0.1918 -0.024,0.31168 0.43157,0.41557 0.36764,0.90306 0.66334,1.2467 0.0879,0.13586 0.15185,0.15184 0.33566,0.18381 1.49451,-0.83113 2.71729,-1.75817 3.56444,-3.19667 0.26374,-0.47151 0.55145,-1.59834 0.83117,-1.94998 0.36763,-0.46351 1.5984,-0.39958 2.11788,-0.71126 0.75125,-0.47151 1.1029,-1.52641 1.71029,-2.22169 0.79121,-0.91904 2.70929,-0.3756 2.66933,-2.11779 -0.55145,-0.55143 -1.23077,-0.35164 -1.64635,-0.68729 -0.29571,-0.24774 -0.36764,-0.71925 -0.69531,-0.95101 -0.74325,-0.51147 -2.45354,-0.62335 -3.46853,-0.2877 -0.0879,-0.0799 -0.0639,-0.04 -0.11988,-0.15184 0.14386,-0.12787 0.28771,-0.26373 0.43157,-0.3836 0.23177,-0.34365 0.14386,-1.08687 0.47952,-1.30265 0.67133,-0.4795 2.97303,-0.78318 2.52547,-2.07784 -0.23976,-0.6713 -1.60639,-1.09486 -2.50149,-1.03093 -0.47153,0 -0.93507,0.032 -1.39861,0.04 -0.04,-0.04 -0.0799,-0.048 -0.11188,-0.0799 v -0.04 c 1.24675,-0.7752 6.04995,-0.15184 6.52947,-1.14281 z m -11.79621,7.37632 c -0.008,-0.032 -0.016,-0.048 -0.032,-0.0639 0.47153,-0.21577 0.94306,-0.43155 1.42258,-0.63933 0.3037,-0.0639 0.61539,-0.11988 0.91109,-0.17582 0.0879,0 0.16783,0 0.25575,0 0.048,0.10389 0.0799,0.17582 0.11988,0.29569 -0.55145,0.39159 -1.74226,0.58339 -2.67733,0.58339 z m 5.52248,3.46041 c -0.11189,-0.056 -0.11189,-0.0799 -0.17582,-0.18381 0.17582,-0.63135 0.54345,-0.44754 1.11888,-0.69528 0.23177,0 0.47153,0.016 0.70329,0.032 0.0719,0.0879 0.0879,0.0799 0.11988,0.24774 -0.13586,0.22377 -1.44655,0.67929 -1.76623,0.59938 z m 0.73527,-3.01287 c 0.3996,-0.008 0.8951,-0.032 1.18281,0.04 0.024,0.0559 0.0559,0.11987 0.0799,0.18381 -0.23976,0.31167 -1.0949,0.39159 -1.61438,0.41556 -0.0639,-0.0559 -0.11988,-0.10389 -0.18382,-0.15184 0.016,-0.40757 0.24775,-0.33565 0.53547,-0.48749 z m -0.95105,-4.76305 c 0.14385,-0.32766 0.47952,-0.31167 0.7992,-0.45552 0.28771,-0.032 0.56743,-0.04 0.84715,-0.04 0.04,0.04 0.0799,0.0799 0.11189,0.10389 -0.0719,0.47151 -1.11089,1.27068 -1.7023,1.07888 -0.032,0 -0.0799,-0.016 -0.11189,-0.024 -0.0559,-0.23975 -0.04,-0.48749 0.0559,-0.66331 z"
   id="path154"
   style="stroke-width:7.99184" />
	<path
   fill="#002c76"
   d="m 384.12749,546.86894 c -0.04,-0.18381 -0.0879,-0.37561 -0.12787,-0.55942 -0.18382,-0.45553 -0.7033,-0.58339 -1.38262,-0.54344 -0.23976,0.0959 -0.48751,0.1918 -0.72727,0.27971 -1.35065,0.99097 0.23976,2.38952 0.79121,3.14873 0.6953,0.97498 1.60639,1.918 2.65334,2.50939 0.48752,0.16782 0.96704,0.33565 1.44656,0.51147 0.70329,0.37561 1.59041,0.93502 2.50149,1.03092 0.23976,-0.16782 0.29571,-0.4795 0.5035,-0.63134 0.51149,-0.15983 1.03097,-0.31168 1.54246,-0.46352 0.48751,-0.87908 -0.63936,-1.67825 -1.09491,-1.99792 -0.50349,-0.35163 -1.04695,-0.48749 -1.64635,-0.75122 -1.27073,-0.60737 -2.67732,-1.23871 -3.78022,-2.04587 -0.15984,-0.12787 -0.55944,-0.34364 -0.67932,-0.48749 z"
   id="path156"
   style="stroke-width:7.99184" />
	<path
   fill="#002c76"
   d="m 383.09652,539.20491 c -0.6953,-1.13482 2.18981,-5.84193 -0.78322,-5.73004 -0.51148,0.27971 -1.30269,0.79117 -1.11089,1.65428 0.0959,0.35962 0.1998,0.71126 0.28772,1.06289 -0.11988,1.22273 -0.45555,2.46943 -0.86314,3.45241 -1.47852,0.56741 -5.89011,1.2467 -5.25075,3.40446 0.63936,1.25469 1.35065,1.59834 3.06893,1.50244 0.032,0.032 0.0559,0.0719 0.0799,0.11987 -0.74325,1.96596 -2.18182,4.05179 -3.42058,5.62615 -0.91109,1.16679 -2.16583,2.19772 -3.12487,3.42044 0.016,0.0799 0.032,0.16783 0.0479,0.23975 0.1039,0.032 0.1998,0.056 0.2957,0.0719 2.08592,-1.39855 4.55545,-3.50036 6.00999,-5.4823 0.55944,-0.7672 1.16684,-1.57436 1.67033,-2.38152 0.49551,-0.7672 0.72728,-1.71022 1.41459,-2.28562 1.05494,-0.88708 4.66733,-1.05491 5.17882,-2.32559 0.1039,-0.2877 0.13586,-0.84712 0.032,-1.21473 -0.38362,-1.43052 -1.92608,-1.21474 -3.53247,-1.13482 z"
   id="path158"
   style="stroke-width:7.99184" />
</g>
</svg>
