<?xml version="1.0" encoding="UTF-8" standalone="no"?>
<!-- Created with Inkscape (http://www.inkscape.org/) -->

<svg
   width="83.581871mm"
   height="83.581856mm"
   viewBox="0 0 83.581871 83.581855"
   version="1.1"
   id="svg1"
   xmlns="http://www.w3.org/2000/svg"
   xmlns:svg="http://www.w3.org/2000/svg">
  <defs
     id="defs1" />
  <g
     id="layer1"
     transform="translate(-1146.1882,-1765.0487)">
    <g
       id="组_406"
       data-name="组 406"
       style="fill:#026f68;fill-opacity:1"
       transform="matrix(0.83581874,0,0,0.83581874,1146.0988,1765.0487)">
      <g
         id="组_401"
         data-name="组 401"
         style="fill:#026f68;fill-opacity:1">
        <g
           id="组_400"
           data-name="组 400"
           style="fill:#026f68;fill-opacity:1">
          <path
             id="路径_4060"
             data-name="路径 4060"
             d="m 154.344,264.3 c 0,0 0.631,-0.109 0.837,0.231 0,0 -0.007,0.769 0.267,0.151 a 2.562,2.562 0 0 1 0.21,-0.367 0.228,0.228 0 0 1 0.332,-0.076 c 0.14,0.069 0.665,-0.294 0.033,-0.8 a 1.456,1.456 0 0 0 -1.3,0.09 1.535,1.535 0 0 0 -0.466,0.409 c -0.191,0.2 -0.166,0.317 0.087,0.362 z m -2.908,0.665 3.026,2.563 c 0.577,0.483 0.5,0.227 1.077,0.5 a 0.5,0.5 0 0 1 0.287,0.216 l -1.678,2.23 a 4.61,4.61 0 0 1 -0.68,0.753 1.926,1.926 0 0 0 -0.238,0.25 c -0.176,0.3 0.3,0.347 0.505,0.423 a 6.337,6.337 0 0 0 1.219,0.241 c 0,0 0.339,-0.022 0.284,-0.541 a 0.912,0.912 0 0 1 0,-0.731 4.926,4.926 0 0 1 0.614,-1 l 1.541,-2.39 c 0.114,-0.165 0.2,-0.3 0.295,-0.438 a 6.011,6.011 0 0 1 0.771,-0.888 1.1,1.1 0 0 0 0.351,-0.887 0.89,0.89 0 0 0 -0.174,-0.288 l -0.057,-0.049 c -0.186,-0.13 -0.466,-0.178 -0.893,0.244 a 2.658,2.658 0 0 0 -0.436,0.579 4.389,4.389 0 0 0 -0.268,0.7 1.876,1.876 0 0 1 -0.245,0.524 l -0.467,0.674 -3.747,-3.283 c 0,0 0.032,-0.331 -0.391,-0.352 a 1.222,1.222 0 0 0 -1.3,0.493 c -0.254,0.404 0.42,0.331 0.604,0.46 z m 10.965,-6.641 0.025,0.044 a 0.379,0.379 0 0 0 0.154,0.1 c 0.178,0.053 0.9,0.5 1.355,-0.068 0.455,-0.568 -0.287,-0.239 -0.287,-0.239 -0.459,-0.119 -0.048,-0.434 -0.048,-0.434 l 0.631,-0.326 c 0.006,0.267 0.6,0.968 0.6,0.968 a 0.5,0.5 0 0 0 0.842,-0.35 l 0.014,-2.094 0.681,-0.47 a 1.637,1.637 0 0 0 -0.023,0.574 c -0.044,0.179 0.5,0.966 0.5,0.966 a 2.156,2.156 0 0 0 1.148,-0.527 7.7,7.7 0 0 0 0.6,-0.5 c 0.048,0.148 0.082,1.171 0.082,1.171 a 1.211,1.211 0 0 1 -0.233,0.115 2.336,2.336 0 0 1 -1.538,0.269 c -0.7,-0.057 -0.033,0.329 -0.033,0.329 a 4.357,4.357 0 0 0 1.653,-0.1 c -0.284,2.345 -0.87,2.586 -0.87,2.586 -0.457,0.5 0.175,0.307 0.175,0.307 a 4.534,4.534 0 0 0 1.1,-2.546 c 0.037,-0.195 0.055,-0.321 0.055,-0.321 a 4.754,4.754 0 0 0 0.741,-0.427 c 0.192,-0.151 0.33,-0.268 0.33,-0.268 a 0.729,0.729 0 0 0 0.15,-0.125 1.2,1.2 0 0 0 0.352,-0.55 2.516,2.516 0 0 0 -0.23,-1.817 l -0.815,-1.635 0.807,-0.5 c 0.444,-0.1 0.027,-0.5 0.027,-0.5 -0.466,-0.291 -1.228,0.419 -1.228,0.419 l -0.4,-0.525 a 0.567,0.567 0 0 0 -0.8,-0.194 l -0.083,0.048 -0.484,0.319 -0.245,0.159 c 0,-0.133 -0.025,-0.371 -0.032,-0.637 C 167.031,250.99 167,250.352 167,250.352 a 0.614,0.614 0 0 0 -0.072,-0.212 1.006,1.006 0 0 0 -0.276,-0.479 0.474,0.474 0 0 0 -0.622,-0.083 l -0.07,0.04 -0.531,0.306 -0.39,0.225 0.057,-0.8 0.061,-1.117 0.041,-0.7 a 0.809,0.809 0 0 0 -0.636,-0.329 1.6,1.6 0 0 0 -0.432,0.057 0.892,0.892 0 0 0 -0.174,0.119 0.472,0.472 0 0 0 -0.015,0.685 c 0.048,0.145 0.226,1.26 0.356,2.035 0.053,0.413 0.107,0.73 0.107,0.73 a 13.07,13.07 0 0 1 0.52,5.087 c -0.112,0.547 -0.967,-1.546 -0.967,-1.546 -1.022,-1.961 -0.229,-2.746 -0.212,-2.911 0.023,-0.185 -0.424,-0.6 -1,-0.6 -0.576,0 -0.318,0.414 -0.31,0.428 l 0.205,0.288 0.381,0.726 c -0.291,0.265 -0.03,0.463 -0.03,0.463 a 2.543,2.543 0 0 1 0.444,1.54 7.06,7.06 0 0 0 0.525,2.322 7,7 0 0 0 -1.215,0.932 c -0.383,0.349 -0.422,0.601 -0.345,0.769 z m 6.39,-3.819 a 0.221,0.221 0 0 1 -0.064,-0.08 0.129,0.129 0 0 1 -0.029,-0.082 0.183,0.183 0 0 1 0.085,-0.241 c 0.126,-0.073 0.247,0.012 0.314,0.128 a 0.184,0.184 0 0 1 -0.071,0.293 0.173,0.173 0 0 1 -0.235,-0.015 z m 1.175,0.324 a 1.411,1.411 0 0 1 0.079,0.689 1.523,1.523 0 0 1 -0.242,0.738 1.873,1.873 0 0 1 -0.382,0.434 l -0.056,0.031 c -0.4,0.343 -0.3,-0.254 -0.318,-0.55 -0.017,-0.031 -0.012,-0.051 -0.02,-0.066 l 0.023,-0.38 a 1.243,1.243 0 0 1 0.117,-0.57 1.567,1.567 0 0 1 0.293,-0.458 0.41,0.41 0 0 1 0.04,-0.121 c 0.228,-0.376 0.466,0.256 0.466,0.256 z m -0.626,-1.53 0.178,0.245 c 0.159,0.178 -0.222,0.321 -0.222,0.321 a 0.566,0.566 0 0 0 -0.322,-0.2 0.221,0.221 0 0 0 -0.089,-0.027 c -0.072,-0.093 -0.21,-0.167 -0.088,-0.277 l 0.085,-0.049 c 0.158,-0.145 0.459,-0.012 0.459,-0.012 z m -1.237,-1.141 c 0.243,-0.061 0.39,0.124 0.64,0.4 0.141,0.113 -0.006,0.274 -0.18,0.395 -0.154,0.089 -0.314,0.161 -0.314,0.161 l -0.444,-0.767 a 0.9,0.9 0 0 1 0.295,-0.186 z m -0.873,0.87 a 0.258,0.258 0 0 1 0.173,-0.023 0.85,0.85 0 0 1 0.352,0.511 0.38,0.38 0 0 0 -0.141,0.178 c -0.038,0.061 -0.082,0.145 -0.128,0.228 l -0.282,0.124 a 0.578,0.578 0 0 1 -0.106,-0.44 c 0,0 -0.091,-0.445 0.133,-0.574 z m -0.127,1.908 a 0.814,0.814 0 0 1 0.148,-0.162 8.208,8.208 0 0 1 0.683,-0.529 c 0.146,-0.066 0.293,-0.073 0.4,0.175 a 1.417,1.417 0 0 1 0.111,0.708 0.7,0.7 0 0 1 -0.149,0.356 l -0.648,0.393 -0.311,0.2 c 0,0 -0.507,0.35 -0.411,-0.324 a 1,1 0 0 1 0.174,-0.814 z m -2.258,-3.813 0.04,-0.023 0.9,-0.576 0.181,-0.1 c 0.388,-0.261 0.406,0.54 0.406,0.54 0.016,0.124 0.018,0.356 0.032,0.636 0,0.581 -0.011,1.4 -0.026,2.081 -0.024,0.729 -0.039,1.316 -0.039,1.316 l -0.73,0.382 -0.074,-0.324 -0.054,-0.509 c -0.101,-0.852 -0.635,-3.42 -0.635,-3.42 z m 13.23,-2.019 c 0.3,0.532 0.713,0.616 0.912,-0.012 0.121,-0.355 0.16,-0.794 0.215,-0.97 0.133,-0.565 0.318,-1.325 0.392,-1.767 0.1,-0.58 0.256,-0.126 0.362,0.277 a 2.735,2.735 0 0 0 0.595,1.2 c 0.323,0.265 0.446,0.06 0.483,-0.228 0,-0.114 0.009,-0.245 0.01,-0.4 0,-0.473 0.2,-0.346 0.429,0.082 a 3.118,3.118 0 0 0 0.512,0.961 c 0.472,0.437 0.436,-0.165 0.48,-0.416 a 2.645,2.645 0 0 1 0.187,-0.74 1.477,1.477 0 0 1 0.054,-0.158 c 0.207,-0.4 0.309,-0.339 0.348,0.167 0.042,0.355 0.085,0.878 0.088,1.22 0.064,0.068 0.013,1.038 0.308,2.458 0,0 0.389,1.279 0.76,1.2 0.233,-0.045 0.154,-0.244 0.134,-0.411 l -0.151,-1.44 -0.193,-1.943 c -0.028,-0.243 -0.123,-0.27 0.112,-0.3 l 0.629,-0.074 c 0.07,-0.008 0.124,-0.032 0.175,-0.038 0.654,-0.192 0.935,-0.754 1.119,-1.512 a 2.537,2.537 0 0 0 -0.424,-2.22 c -0.31,-0.3 -0.631,-0.247 -1.157,-0.2 l -0.087,0.01 -0.722,0.066 a 0.96,0.96 0 0 0 -0.231,-0.408 c -0.195,-0.242 -0.154,-0.077 -0.083,-0.406 l 0.293,-0.6 c 0,0 0.263,-0.239 0.472,0.114 0,0 0.089,0.009 0.216,0.013 0.182,-0.022 0.416,-0.049 0.522,-0.212 a 0.382,0.382 0 0 0 -0.021,-0.357 1.582,1.582 0 0 0 -0.609,-0.345 7.644,7.644 0 0 0 -2.105,-0.415 l -0.057,-0.012 c -0.352,-0.034 -0.457,0 -0.566,0.463 a 0.526,0.526 0 0 0 0.172,0.53 6.466,6.466 0 0 1 0.175,1.473 4.562,4.562 0 0 1 -0.76,2.076 c 0,0 -0.651,0.662 -0.55,-0.182 l 0.113,-1.508 a 1.187,1.187 0 0 0 0.072,-0.5 c -0.028,-0.375 -0.078,-0.671 -0.4,-0.747 a 0.665,0.665 0 0 0 -0.9,0.522 3.244,3.244 0 0 0 0.036,0.468 3.27,3.27 0 0 1 -0.177,1.287 c 0,0 -0.411,0.22 -0.4,-0.577 -0.015,-0.282 -0.03,-0.564 -0.044,-0.825 -0.067,-0.278 -0.145,-0.173 -0.239,0.122 a 20.646,20.646 0 0 1 -0.689,3.429 c -0.109,0.314 -0.179,0.361 -0.162,0.509 a 3.59,3.59 0 0 0 0.353,1.279 z m 6.028,-4.094 a 2.437,2.437 0 0 1 0.3,-0.412 1.075,1.075 0 0 1 0.134,-0.091 0.461,0.461 0 0 1 0.213,-0.062 c 0.528,-0.007 0.584,0.328 0.62,0.777 a 3.014,3.014 0 0 1 -0.052,0.8 1.74,1.74 0 0 1 -0.51,0.8 0.848,0.848 0 0 1 -0.428,0.221 c -0.337,0.077 -0.311,0 -0.292,-0.308 a 4.448,4.448 0 0 0 -0.008,-1.3 0.546,0.546 0 0 1 0.02,-0.422 z m -1.631,0.079 0.013,-0.039 0.35,-0.912 c 0.245,-0.237 0.386,-0.121 0.383,0.333 a 2.148,2.148 0 0 1 -0.464,0.849 1.389,1.389 0 0 1 -0.214,0.2 c -0.35,0.268 -0.068,-0.428 -0.068,-0.428 z m -0.4,-2.752 0.093,0.008 0.184,0.016 a 1.148,1.148 0 0 1 0,0.964 0.357,0.357 0 0 1 -0.056,0.139 c -0.074,0.141 -0.193,-0.09 -0.193,-0.09 -0.017,-0.15 -0.177,-1.038 -0.177,-1.038 z m 16.9,3.837 c -0.667,-0.29 -0.541,0.552 -0.575,0.546 -0.034,-0.006 0.192,0.169 0.192,0.169 l 0.316,0.284 c 0.086,0.129 0.617,0.147 0.651,-0.249 0.016,-0.3 -0.321,-0.571 -0.487,-0.676 z m -1.956,4.729 1.422,-1.085 0.276,-0.218 a 3.757,3.757 0 0 0 -0.137,0.891 1.835,1.835 0 0 0 0.4,1.062 1.634,1.634 0 0 0 0.76,0.383 c 0,0 0.192,0.052 0.461,0.1 a 2.825,2.825 0 0 0 1.443,-0.052 2.62,2.62 0 0 1 1.721,0.039 c 0,0 1.257,0.373 0.986,-0.379 a 0.754,0.754 0 0 0 -0.418,-0.455 3.3,3.3 0 0 1 0.109,-1.241 c 0.033,-0.185 0.265,-0.983 -0.04,-1.017 -0.252,-0.025 -0.3,0.348 -0.331,0.514 a 4.066,4.066 0 0 1 -0.344,1.121 c 0,0 -0.205,0.745 -1.979,0.8 a 4.568,4.568 0 0 1 -1.039,0.065 c -0.53,-0.018 -1.05,-0.2 -0.992,-0.748 0,0 -0.018,-1.128 0.4,-1.208 0,0 0.271,-0.9 0.735,-1.128 a 2.157,2.157 0 0 0 0.188,1.215 0.366,0.366 0 0 0 0.091,0.092 c 0,0 1.018,0.484 0.7,-0.315 0,0 -0.583,-0.962 0.151,-1.27 0,0 0.5,-0.656 0.778,-0.759 0,0 0.478,-0.736 -0.166,-0.736 l -1.076,0.268 -0.578,0.147 c 0,0 -0.437,-0.115 -0.82,0.789 l -0.472,0.7 c 0,0 -0.269,0.275 -0.68,0.624 a 7.905,7.905 0 0 1 -0.994,0.74 c 0,0 -0.921,0.525 -0.557,-0.384 0,0 0.173,-0.981 0.848,-1.052 0,0 0.866,0.075 0.887,-0.549 l -0.848,-1.141 c 0,0 -0.22,-0.421 -0.552,-0.1 -0.112,0.114 -0.069,0.388 -0.006,0.553 a 0.7,0.7 0 0 1 0.032,0.864 c 0,0 -0.545,0.9 -0.862,1.031 a 0.661,0.661 0 0 0 -0.413,0.557 2.629,2.629 0 0 0 0.28,1.117 0.534,0.534 0 0 0 0.643,0.168 z m 3.715,-3.351 c 0.082,-0.044 0.1,-0.135 0.137,-0.148 a 0.6,0.6 0 0 1 0.154,-0.031 0.592,0.592 0 0 0 0.182,0.013 c -0.033,-0.025 0.245,0.062 -0.036,0.3 l -0.164,0.2 -0.07,-0.013 c -0.09,-0.015 -0.265,-0.065 -0.276,-0.106 z m -3.7,-1.853 a 0.6,0.6 0 0 1 0.757,-0.019 c 0,0 0.217,1.048 0.531,0.417 l 0.128,-0.722 0.8,-0.163 0.709,-0.161 c 0,0 0.428,-0.039 0.27,0.239 0,0 -0.77,0.932 -0.042,0.66 a 3.423,3.423 0 0 1 1.291,-1.166 1.394,1.394 0 0 1 0.481,-0.125 c 0,0 1.887,0.446 1.824,-0.536 l -0.762,-1.222 c 0,0 0.017,1.165 -0.181,1.246 l -0.859,0.173 a 2.732,2.732 0 0 1 0.622,-1.226 2.024,2.024 0 0 0 0.223,-1.258 c 0,0 0,-0.857 -0.382,-0.562 0,0 -0.183,0.215 -0.453,0.606 a 14.658,14.658 0 0 0 -1.489,2.713 l -1.163,0.119 -0.71,0.065 a 12.729,12.729 0 0 1 0.678,-2.379 c 0,0 0.586,-0.717 -0.095,-0.722 -0.322,-0.039 -0.494,0.085 -0.495,0.408 0,0 -0.4,2.676 -0.682,2.819 0,0 -0.8,0.05 -0.818,-0.258 0,0 -0.385,-0.736 -0.665,0.434 0.011,0.003 -0.267,1.157 0.49,0.621 z m 13.83,10.456 a 1.6,1.6 0 0 0 1.262,0.395 7.478,7.478 0 0 0 3.113,-0.8 c 0.451,-0.157 0.326,0.433 0.326,0.433 a 23.342,23.342 0 0 0 -0.009,3.087 c 0.193,0.927 1.4,1.371 1.4,1.371 0.948,0.292 0.439,-0.626 0.439,-0.626 a 9.666,9.666 0 0 1 -0.838,-4.2 c 0,-0.2 -0.017,-0.724 0.314,-0.493 l 0.183,0.05 1.535,0.56 c 0.429,0.1 0.977,-0.121 0.6,-0.664 a 1.021,1.021 0 0 0 -0.351,-0.315 6.053,6.053 0 0 0 -1.1,-0.384 c -0.381,-0.133 -0.542,-0.1 -0.265,-0.457 l 0.534,-0.668 a 5.522,5.522 0 0 1 0.826,-0.671 1.389,1.389 0 0 0 0.672,-1.5 1.211,1.211 0 0 0 -0.365,-0.646 c -0.273,-0.164 -0.488,0.059 -0.638,0.312 a 5.617,5.617 0 0 1 -0.477,0.848 c -0.13,0.2 -0.275,0.386 -0.3,0.416 l -1.2,1.53 a 0.694,0.694 0 0 1 -0.886,0.008 12.086,12.086 0 0 1 -1.146,-0.813 c -0.467,-0.311 -0.828,-0.587 -1.078,0.112 a 1.074,1.074 0 0 0 0.325,1.214 1.345,1.345 0 0 0 0.914,0.22 c 0.213,-0.02 0.3,-0.111 0.455,0.1 a 0.17,0.17 0 0 1 0.033,0.185 2.173,2.173 0 0 1 -0.681,0.484 c -1.4,0.671 -3.881,0.162 -3.881,0.162 -0.689,0.046 -0.215,0.432 0.292,0.752 z m 10.549,14.345 0.031,0.036 a 2.767,2.767 0 0 0 2.45,0.818 0.6,0.6 0 0 0 0.491,-0.393 c 0.027,-0.052 0.057,-0.11 0.1,-0.173 0.076,-0.129 0.2,-0.3 0.348,-0.32 a 0.252,0.252 0 0 1 0.213,0.089 4.079,4.079 0 0 0 0.747,0.574 0.8,0.8 0 0 0 0.737,-0.056 0.377,0.377 0 0 0 0.1,-0.561 l -0.012,-0.007 a 0.051,0.051 0 0 1 -0.018,-0.017 c -0.034,-0.028 -0.112,-0.106 -0.314,-0.316 a 4.519,4.519 0 0 0 -0.466,-0.33 3.416,3.416 0 0 1 -0.66,-0.5 0.564,0.564 0 0 1 -0.053,-0.074 0.309,0.309 0 0 1 0.056,-0.382 l 0.22,-0.209 a 0.527,0.527 0 0 1 0.447,-0.2 c 0.045,0 0.1,0 0.167,-0.01 a 6.037,6.037 0 0 1 1.116,0 c 0.182,0.017 0.189,0.011 0.206,-0.007 a 0.518,0.518 0 0 1 0.182,-0.107 0.391,0.391 0 0 1 0.4,0.094 7.643,7.643 0 0 1 1.568,1.042 v 0 a 0.886,0.886 0 0 1 0.066,0.069 0.981,0.981 0 0 1 0.108,0.164 0.62,0.62 0 0 0 0.053,0.082 c 0.016,0.018 0.027,0.035 0.081,0.013 a 1.806,1.806 0 0 0 0.465,-0.321 c 0.29,-0.263 0.269,-0.338 0.178,-0.658 l -0.05,-0.18 a 4.127,4.127 0 0 0 -0.718,-1.712 1.235,1.235 0 0 0 -0.729,-0.454 l -0.612,-0.2 c -0.053,-0.02 -0.107,-0.034 -0.154,-0.048 a 0.443,0.443 0 0 1 -0.243,-0.111 c -0.083,-0.1 -0.019,-0.237 0.036,-0.326 a 0.649,0.649 0 0 1 0.451,-0.284 l 1.061,0.174 0.989,0.16 a 1.426,1.426 0 0 1 0.905,0.414 l 0.078,0.063 c 0.122,0.1 0.252,0.2 0.4,0.3 0.039,0.032 0.073,0.063 0.1,0.089 0.14,0.124 0.157,0.139 0.337,-0.012 a 0.449,0.449 0 0 0 0.171,-0.278 c 0.066,-0.144 0.132,-0.292 0.2,-0.444 l 0.166,-0.375 a 0.553,0.553 0 0 0 -0.012,-0.631 0.363,0.363 0 0 0 -0.031,-0.041 0.493,0.493 0 0 0 -0.355,-0.153 10.77,10.77 0 0 0 -2.237,-0.04 l -0.043,0.012 -0.028,-0.034 -0.617,-0.735 -0.036,-0.043 0.035,-0.044 c 0,0 0.292,-0.364 0.092,-0.6 a 0.393,0.393 0 0 0 -0.456,0 l -0.053,0.044 -0.044,-0.052 -0.222,-0.266 -0.048,-0.056 0.061,-0.044 a 5.1,5.1 0 0 0 0.515,-0.457 l 0.179,-0.17 c 0.022,-0.019 0.049,-0.039 0.078,-0.061 0.1,-0.078 0.243,-0.183 0.217,-0.283 a 0.378,0.378 0 0 0 -0.082,-0.155 0.479,0.479 0 0 0 -0.049,-0.05 1.648,1.648 0 0 0 -0.951,-0.066 2.822,2.822 0 0 0 -0.763,0.2 1.894,1.894 0 0 0 -1.111,1.114 1.763,1.763 0 0 0 -0.141,0.948 1.057,1.057 0 0 0 0.171,0.31 0.348,0.348 0 0 0 0.478,0.1 l 0.765,-0.757 0.038,-0.037 0.046,0.028 a 1.359,1.359 0 0 1 0.309,0.269 0.762,0.762 0 0 1 0.206,0.523 1.114,1.114 0 0 0 0.216,0.419 l 0.08,0.1 -0.125,0.017 -1.118,0.14 a 3.785,3.785 0 0 1 -2.209,0.051 3.421,3.421 0 0 1 -0.773,-0.324 2.219,2.219 0 0 0 -0.694,-0.341 1.373,1.373 0 0 0 -1.043,-0.054 c -0.22,0.12 -0.182,0.3 -0.14,0.513 a 1.648,1.648 0 0 1 0.031,0.178 1.19,1.19 0 0 1 -0.014,0.325 0.392,0.392 0 0 0 0.113,0.392 0.405,0.405 0 0 0 0.552,0.138 7.1,7.1 0 0 1 1.232,-0.195 5.306,5.306 0 0 1 1.89,0.333 c 0.183,0.056 0.366,0.112 0.557,0.165 a 4.573,4.573 0 0 1 1.291,0.527 3.51,3.51 0 0 1 0.512,0.475 c 0.177,0.212 0.248,0.389 0.211,0.53 -0.027,0.1 -0.108,0.182 -0.273,0.237 l -1.287,-0.128 a 0.822,0.822 0 0 1 -0.572,-0.218 l -0.15,-0.117 a 3.113,3.113 0 0 0 -1.763,-0.657 c -0.322,-0.072 -0.887,-0.128 -1.033,0.032 -0.017,0.017 -0.061,0.066 -0.024,0.185 a 1.442,1.442 0 0 0 0.175,0.267 c 0.138,0.165 0.267,0.222 0.39,0.17 a 2.951,2.951 0 0 1 0.733,-0.084 1.809,1.809 0 0 1 0.842,0.238 v 0 a 0.22,0.22 0 0 1 -0.025,0.245 0.363,0.363 0 0 1 -0.328,0.191 l -0.1,0.01 h -0.243 c -0.186,0 -0.4,0.007 -0.575,0 -0.061,-0.006 -0.109,-0.015 -0.15,-0.022 -0.121,-0.023 -0.15,-0.028 -0.326,0.184 l -0.268,0.295 -0.048,0.055 -0.051,-0.052 c -0.369,-0.375 -1.431,-1.318 -1.924,-1.193 a 0.818,0.818 0 0 0 -0.349,0.288 c -0.024,0.061 -0.015,0.224 0.343,0.648 0.1,0.124 0.212,0.242 0.3,0.339 0.065,0.07 0.12,0.128 0.157,0.173 a 3.08,3.08 0 0 0 0.9,0.79 0.811,0.811 0 0 0 0.1,0.044 0.469,0.469 0 0 1 0.179,0.107 c 0.117,0.139 -0.079,0.305 -0.164,0.375 a 1.072,1.072 0 0 1 -1.117,0.216 1.953,1.953 0 0 1 -0.949,-0.636 1.39,1.39 0 0 1 -0.375,-1.04 1.009,1.009 0 0 1 0.091,-0.321 c 0.053,-0.117 0.069,-0.154 -0.114,-0.374 a 0.321,0.321 0 0 0 -0.2,-0.128 0.284,0.284 0 0 0 -0.187,0.087 c 0,0 -0.262,0.132 -0.067,1.114 a 2.581,2.581 0 0 0 0.577,1.402 z M 190.6,256.479 A 29.232,29.232 0 1 0 219.861,285.71 29.246,29.246 0 0 0 190.6,256.479 Z m -7.555,20.859 a 7.443,7.443 0 0 1 7.441,-7.433 7.172,7.172 0 0 1 1.8,0.225 6.584,6.584 0 0 0 -4.01,6.056 v 20.736 a 0.255,0.255 0 0 1 -0.253,0.239 0.3,0.3 0 0 1 -0.137,-0.036 l -4.839,-3.821 z m 3.027,29.674 a 11.876,11.876 0 0 1 -11.906,-11.9 v -28.7 a 0.254,0.254 0 0 1 0.254,-0.244 0.333,0.333 0 0 1 0.136,0.039 l 4.84,3.822 v 23.936 a 10.479,10.479 0 0 0 0.1,1.518 6.444,6.444 0 0 0 0.648,2.51 11.112,11.112 0 0 0 10.3,7.016 11.7,11.7 0 0 0 2.714,-0.325 11.9,11.9 0 0 1 -7.089,2.328 z m 11.806,-13.05 a 7.419,7.419 0 0 1 -9.234,7.208 6.572,6.572 0 0 0 4.006,-6.058 v -20.733 a 0.268,0.268 0 0 1 0.262,-0.239 0.176,0.176 0 0 1 0.122,0.042 l 4.84,3.818 z m 8.878,10.929 a 0.246,0.246 0 0 1 -0.247,0.241 0.269,0.269 0 0 1 -0.132,-0.039 l -4.84,-3.823 v -23.932 a 11.267,11.267 0 0 0 -0.111,-1.516 6.483,6.483 0 0 0 -0.649,-2.509 11.07,11.07 0 0 0 -10.3,-7.02 11.358,11.358 0 0 0 -2.71,0.33 11.9,11.9 0 0 1 18.979,9.563 z M 190.6,235.711 a 50,50 0 1 0 50.052,50 50.025,50.025 0 0 0 -50.052,-50 z m 33.941,83.906 a 47.916,47.916 0 1 1 14.059,-33.9 47.87,47.87 0 0 1 -14.063,33.9 z m -1.619,-33.907 v 0 A 32.321,32.321 0 1 0 190.6,318 32.3,32.3 0 0 0 222.918,285.71 Z M 190.6,316.974 a 31.281,31.281 0 1 1 22.129,-9.157 31.21,31.21 0 0 1 -22.129,9.157 z"
             transform="translate(-140.545,-235.711)"
             fill="#fff"
             style="fill:#026f68;fill-opacity:1" />
        </g>
      </g>
      <g
         id="组_402"
         data-name="组 402"
         transform="translate(6.53,41.136)"
         style="fill:#026f68;fill-opacity:1">
        <path
           id="路径_4061"
           data-name="路径 4061"
           d="m 154.077,291.4 a 3.269,3.269 0 0 0 0.857,-0.74 2.052,2.052 0 0 0 0.419,-0.887 1.472,1.472 0 0 0 -0.076,-0.932 0.8,0.8 0 0 0 -0.593,-0.465 0.944,0.944 0 0 0 -0.777,0.15 2.019,2.019 0 0 0 -0.575,0.855 3.1,3.1 0 0 1 -0.984,1.4 1.753,1.753 0 0 1 -1.382,0.225 1.987,1.987 0 0 1 -1.374,-0.9 2.277,2.277 0 0 1 -0.255,-1.707 2.538,2.538 0 0 1 0.373,-0.921 2.833,2.833 0 0 1 0.727,-0.738 l 1.134,0.223 a 2.536,2.536 0 0 0 -0.892,0.671 2.058,2.058 0 0 0 -0.454,0.937 1.331,1.331 0 0 0 0.133,0.969 1.071,1.071 0 0 0 0.751,0.5 0.849,0.849 0 0 0 0.734,-0.167 2.2,2.2 0 0 0 0.575,-0.877 2.952,2.952 0 0 1 1.011,-1.4 1.9,1.9 0 0 1 1.452,-0.209 1.75,1.75 0 0 1 1.253,0.872 2.4,2.4 0 0 1 0.209,1.7 2.539,2.539 0 0 1 -0.371,0.917 2.887,2.887 0 0 1 -0.728,0.741 z"
           transform="translate(-148.751,-286.738)"
           fill="#fff"
           style="fill:#026f68;fill-opacity:1" />
        <path
           id="路径_4062"
           data-name="路径 4062"
           d="m 155.738,294.043 -0.021,0.5 -0.023,0.5 -2.91,-0.127 -0.137,3.153 2.91,0.127 -0.023,0.5 -0.022,0.5 -6.888,-0.3 0.022,-0.5 0.022,-0.5 2.973,0.129 0.137,-3.153 -2.973,-0.129 0.021,-0.5 0.022,-0.5 z"
           transform="translate(-148.625,-288.08)"
           fill="#fff"
           style="fill:#026f68;fill-opacity:1" />
        <path
           id="路径_4063"
           data-name="路径 4063"
           d="m 156.433,303.619 0.105,0.829 0.106,0.834 -6.567,3.037 -0.062,-0.5 -0.064,-0.5 1.851,-0.811 -0.367,-2.9 -1.993,-0.32 -0.062,-0.487 -0.061,-0.491 z m -3.962,0.168 0.291,2.3 3.06,-1.564 v 0 z"
           transform="translate(-148.758,-289.723)"
           fill="#fff"
           style="fill:#026f68;fill-opacity:1" />
        <path
           id="路径_4064"
           data-name="路径 4064"
           d="m 151.03,312.289 -0.148,-0.482 -0.146,-0.482 6.593,-2.016 0.233,0.761 0.234,0.765 -4.853,4.346 5.653,-1.728 0.148,0.482 0.146,0.481 -6.594,2.016 -0.229,-0.748 -0.229,-0.748 4.827,-4.371 z"
           transform="translate(-149.03,-291.065)"
           fill="#fff"
           style="fill:#026f68;fill-opacity:1" />
        <path
           id="路径_4065"
           data-name="路径 4065"
           d="m 163.183,323.026 0.292,0.4 0.291,0.406 -2.366,1.7 1.839,2.564 2.366,-1.7 0.291,0.406 0.291,0.4 -5.6,4.022 -0.291,-0.406 -0.291,-0.4 2.417,-1.736 -1.84,-2.563 -2.417,1.735 -0.292,-0.4 -0.29,-0.406 z"
           transform="translate(-150.343,-293.696)"
           fill="#fff"
           style="fill:#026f68;fill-opacity:1" />
        <path
           id="路径_4066"
           data-name="路径 4066"
           d="m 168.946,330.566 0.592,0.59 0.595,0.594 -3.319,6.428 -0.354,-0.353 -0.357,-0.356 0.963,-1.776 -2.066,-2.065 -1.771,0.971 -0.347,-0.347 -0.351,-0.349 z m -3.023,2.564 1.641,1.637 1.456,-3.113 v 0 z"
           transform="translate(-151.291,-295.142)"
           fill="#fff"
           style="fill:#026f68;fill-opacity:1" />
        <path
           id="路径_4067"
           data-name="路径 4067"
           d="m 173.475,334.284 0.39,0.31 0.39,0.311 -4.3,5.39 -0.39,-0.312 -0.39,-0.31 z"
           transform="translate(-152.566,-295.855)"
           fill="#fff"
           style="fill:#026f68;fill-opacity:1" />
        <path
           id="路径_4068"
           data-name="路径 4068"
           d="m 176.232,344.437 -0.446,-0.234 -0.447,-0.233 3.2,-6.111 0.706,0.369 0.71,0.371 -0.314,6.506 2.74,-5.238 0.445,0.234 0.446,0.233 -3.195,6.11 -0.693,-0.362 -0.693,-0.363 0.276,-6.5 z"
           transform="translate(-153.749,-296.541)"
           fill="#fff"
           style="fill:#026f68;fill-opacity:1" />
        <path
           id="路径_4069"
           data-name="路径 4069"
           d="m 184.552,347.445 a 4.419,4.419 0 0 1 0.123,-2.856 3.869,3.869 0 0 1 1.49,-2.2 2.625,2.625 0 0 1 2.3,-0.207 2.684,2.684 0 0 1 1.821,1.465 3.97,3.97 0 0 1 -0.112,2.675 l -0.007,0.021 a 4.44,4.44 0 0 1 -1.55,2.4 2.837,2.837 0 0 1 -4.067,-1.3 z m 3.555,0.463 a 3.535,3.535 0 0 0 1.081,-1.78 3.272,3.272 0 0 0 0.171,-1.982 1.689,1.689 0 0 0 -1.2,-1.007 1.634,1.634 0 0 0 -1.527,0.2 3.093,3.093 0 0 0 -1.037,1.64 3.553,3.553 0 0 0 -0.149,2.078 1.722,1.722 0 0 0 2.659,0.848 z"
           transform="translate(-155.48,-297.337)"
           fill="#fff"
           style="fill:#026f68;fill-opacity:1" />
        <path
           id="路径_4070"
           data-name="路径 4070"
           d="m 193.5,343.618 0.493,0.074 2.089,0.313 a 2.115,2.115 0 0 1 1.389,0.685 1.733,1.733 0 0 1 0.312,1.406 2.153,2.153 0 0 1 -0.775,1.5 2.227,2.227 0 0 1 -1.649,0.289 l 1.671,3.232 -0.571,-0.086 -0.571,-0.085 -1.909,-3.8 -0.514,3.432 -0.494,-0.074 -0.493,-0.074 z m 0.508,3.344 1.156,0.172 a 1.673,1.673 0 0 0 1.133,-0.125 1.206,1.206 0 0 0 0.474,-0.892 0.923,0.923 0 0 0 -0.175,-0.761 1.18,1.18 0 0 0 -0.765,-0.371 l -1.494,-0.224 z"
           transform="translate(-157.035,-297.646)"
           fill="#fff"
           style="fill:#026f68;fill-opacity:1" />
        <path
           id="路径_4071"
           data-name="路径 4071"
           d="m 201.53,351.443 -0.5,0.014 -0.5,0.014 -0.188,-6.893 0.917,-0.025 0.917,-0.024 1.716,5.493 v 0 l 1.294,-5.575 0.916,-0.025 0.917,-0.025 0.188,6.892 -0.5,0.015 -0.5,0.013 -0.169,-6.2 h -0.047 l -1.573,6.243 -0.548,0.015 -0.548,0.015 -1.915,-6.148 h -0.048 z"
           transform="translate(-158.544,-297.794)"
           fill="#fff"
           style="fill:#026f68;fill-opacity:1" />
        <path
           id="路径_4072"
           data-name="路径 4072"
           d="m 211.692,343.628 0.816,-0.179 0.822,-0.179 3.608,6.27 -0.488,0.107 -0.494,0.108 -0.971,-1.771 -2.857,0.623 -0.142,2.014 -0.479,0.105 -0.483,0.105 z m 0.519,3.93 2.265,-0.494 -1.83,-2.909 v 0 z"
           transform="translate(-160.592,-297.579)"
           fill="#fff"
           style="fill:#026f68;fill-opacity:1" />
        <path
           id="路径_4073"
           data-name="路径 4073"
           d="m 219.879,348.642 -2.429,-6.453 0.466,-0.175 0.467,-0.176 2.075,5.51 2.431,-0.915 0.178,0.47 0.176,0.471 z"
           transform="translate(-161.825,-297.304)"
           fill="#fff"
           style="fill:#026f68;fill-opacity:1" />
        <path
           id="路径_4074"
           data-name="路径 4074"
           d="m 231.956,339.291 a 2.522,2.522 0 1 1 -4.217,2.75 l -2.467,-3.784 0.421,-0.275 0.422,-0.276 2.5,3.833 a 1.613,1.613 0 0 0 0.954,0.771 1.844,1.844 0 0 0 1.9,-1.237 1.617,1.617 0 0 0 -0.321,-1.183 l -2.5,-3.833 0.422,-0.275 0.42,-0.275 z"
           transform="translate(-163.325,-296.09)"
           fill="#fff"
           style="fill:#026f68;fill-opacity:1" />
        <path
           id="路径_4075"
           data-name="路径 4075"
           d="m 237.043,338.153 -0.369,0.343 -0.369,0.343 -4.7,-5.049 0.584,-0.543 0.586,-0.544 6.03,2.464 -4.026,-4.329 0.369,-0.343 0.369,-0.343 4.7,5.05 -0.574,0.533 -0.572,0.533 -6.041,-2.43 z"
           transform="translate(-164.541,-295.063)"
           fill="#fff"
           style="fill:#026f68;fill-opacity:1" />
        <path
           id="路径_4076"
           data-name="路径 4076"
           d="m 237.41,328.731 0.322,-0.381 0.322,-0.381 5.265,4.453 -0.319,0.378 -0.322,0.381 z"
           transform="translate(-165.653,-294.644)"
           fill="#fff"
           style="fill:#026f68;fill-opacity:1" />
        <path
           id="路径_4077"
           data-name="路径 4077"
           d="m 238.77,326.364 0.321,-0.474 0.319,-0.474 6.027,2.011 v 0 l -4.12,-4.83 0.321,-0.473 0.32,-0.474 4.518,5.628 -0.4,0.588 -0.4,0.592 z"
           transform="translate(-165.914,-293.432)"
           fill="#fff"
           style="fill:#026f68;fill-opacity:1" />
        <path
           id="路径_4078"
           data-name="路径 4078"
           d="m 249.22,323.084 -6.22,-2.972 1.808,-3.785 0.453,0.217 0.454,0.217 -1.378,2.884 1.721,0.822 1.376,-2.884 0.453,0.217 0.455,0.217 -1.377,2.884 1.776,0.849 1.377,-2.884 0.455,0.217 0.453,0.217 z"
           transform="translate(-166.725,-292.411)"
           fill="#fff"
           style="fill:#026f68;fill-opacity:1" />
        <path
           id="路径_4079"
           data-name="路径 4079"
           d="m 245.731,314.11 0.146,-0.477 0.615,-2.021 a 2.113,2.113 0 0 1 0.882,-1.272 1.728,1.728 0 0 1 1.436,-0.1 2.151,2.151 0 0 1 1.372,0.986 2.233,2.233 0 0 1 0.045,1.673 l 3.441,-1.178 -0.168,0.551 -0.168,0.551 -4.034,1.334 3.319,1.011 -0.145,0.478 -0.145,0.477 z m 3.383,-0.012 0.341,-1.118 a 1.683,1.683 0 0 0 0.042,-1.139 1.2,1.2 0 0 0 -0.814,-0.6 0.919,0.919 0 0 0 -0.778,0.061 1.181,1.181 0 0 0 -0.481,0.7 l -0.44,1.445 z"
           transform="translate(-167.249,-291.223)"
           fill="#fff"
           style="fill:#026f68;fill-opacity:1" />
        <path
           id="路径_4080"
           data-name="路径 4080"
           d="m 249.979,304.267 a 3.219,3.219 0 0 0 -0.83,0.771 2.048,2.048 0 0 0 -0.386,0.9 1.475,1.475 0 0 0 0.109,0.929 0.8,0.8 0 0 0 0.609,0.443 0.944,0.944 0 0 0 0.771,-0.178 2.028,2.028 0 0 0 0.544,-0.876 3.089,3.089 0 0 1 0.933,-1.433 1.751,1.751 0 0 1 1.372,-0.275 1.989,1.989 0 0 1 1.407,0.847 2.284,2.284 0 0 1 0.315,1.7 2.567,2.567 0 0 1 -0.339,0.933 2.846,2.846 0 0 1 -0.7,0.762 l -1.141,-0.18 a 2.541,2.541 0 0 0 0.867,-0.7 2.039,2.039 0 0 0 0.419,-0.952 1.322,1.322 0 0 0 -0.168,-0.963 1.068,1.068 0 0 0 -0.769,-0.478 0.854,0.854 0 0 0 -0.727,0.194 2.221,2.221 0 0 0 -0.543,0.9 2.948,2.948 0 0 1 -0.96,1.432 1.908,1.908 0 0 1 -1.443,0.261 1.752,1.752 0 0 1 -1.283,-0.828 2.4,2.4 0 0 1 -0.27,-1.69 2.526,2.526 0 0 1 0.339,-0.929 2.861,2.861 0 0 1 0.7,-0.768 z"
           transform="translate(-167.632,-290.063)"
           fill="#fff"
           style="fill:#026f68;fill-opacity:1" />
        <path
           id="路径_4081"
           data-name="路径 4081"
           d="m 248.359,302.418 0.031,-0.5 0.031,-0.5 6.883,0.426 -0.031,0.5 -0.031,0.5 z"
           transform="translate(-167.753,-289.553)"
           fill="#fff"
           style="fill:#026f68;fill-opacity:1" />
        <path
           id="路径_4082"
           data-name="路径 4082"
           d="m 249.453,297.322 0.076,1.945 -0.5,0.019 -0.5,0.019 -0.19,-4.886 0.5,-0.02 0.5,-0.019 0.076,1.945 5.885,-0.229 0.019,0.5 0.019,0.5 z"
           transform="translate(-167.748,-288.202)"
           fill="#fff"
           style="fill:#026f68;fill-opacity:1" />
        <path
           id="路径_4083"
           data-name="路径 4083"
           d="m 251.5,289.3 -3.468,3.176 -0.113,-0.559 -0.112,-0.563 2.685,-2.392 v 0 l -3.4,-1.165 -0.107,-0.529 -0.107,-0.529 4.436,1.581 2.8,-0.565 0.1,0.489 0.1,0.489 z"
           transform="translate(-167.469,-286.736)"
           fill="#fff"
           style="fill:#026f68;fill-opacity:1" />
      </g>
      <g
         id="组_405"
         data-name="组 405"
         transform="translate(11.291,66.087)"
         style="fill:#026f68;fill-opacity:1">
        <g
           id="组_404"
           data-name="组 404"
           style="fill:#026f68;fill-opacity:1">
          <g
             id="组_403"
             data-name="组 403"
             style="fill:#026f68;fill-opacity:1">
            <path
               id="路径_4084"
               data-name="路径 4084"
               d="m 154.938,322.609 a 2.624,2.624 0 0 1 -0.238,-2.377 4.333,4.333 0 0 1 2.016,-2.032 3.724,3.724 0 0 1 2.61,-0.573 2.852,2.852 0 0 1 1.894,1.515 3.161,3.161 0 0 1 0.411,1.14 2.062,2.062 0 0 1 -0.125,1.035 l -1.125,0.64 a 2.483,2.483 0 0 0 0.289,-1.162 2.27,2.27 0 0 0 -0.3,-1.121 1.9,1.9 0 0 0 -1.335,-1.018 2.849,2.849 0 0 0 -1.894,0.451 3.342,3.342 0 0 0 -1.5,1.46 1.762,1.762 0 0 0 0.125,1.655 1.6,1.6 0 0 0 1.051,0.8 l 1.937,-1.1 0.493,0.866 -2.136,1.212 -0.238,-0.026 a 2.582,2.582 0 0 1 -1.935,-1.365 z"
               transform="translate(-154.516,-317.571)"
               fill="#fff"
               style="fill:#026f68;fill-opacity:1" />
          </g>
        </g>
        <path
           id="路径_4085"
           data-name="路径 4085"
           d="m 159.025,323.99 0.434,-0.247 0.434,-0.247 -1.263,-2.22 -0.868,0.494 z"
           transform="translate(-155.138,-318.281)"
           fill="#fff"
           style="fill:#026f68;fill-opacity:1" />
      </g>
    </g>
  </g>
</svg>
