<svg height="316.227766" viewBox="0 0 252 252" width="316.227766" xmlns="http://www.w3.org/2000/svg" xmlns:xlink="http://www.w3.org/1999/xlink"><linearGradient id="a" gradientUnits="userSpaceOnUse" x1="124.6432814688" x2="124.6432814688" y1="56.345848112" y2="134.4454514016"><stop offset=".04" stop-color="#e60012"/><stop offset=".96" stop-color="#fff100"/></linearGradient><g fill-rule="evenodd"><path d="m234.746094 132.421875c-14.121094-21.320313-50.210938-24.160156-70.855469-12.34375-.523437.300781-.816406.476563-.695313.679687.117188.207032.480469.371094 1.003907.070313.183593-.105469 3.828125-1.453125 5.007812-.933594-2.03125.636719-3.28125 1.40625-4.160156 2.054688-.621094.457031 2.53125.203125.492187 1.355469-.378906.214843-1.542968.742187-1.863281 1.289062-.34375.675781 1.613281-.195312 3.488281-.921875 2.121094-.816406 2.746094-.449219 2.265626.050781-1.136719 1.175782-7.015626 3.191406-8.230469 5.269532l-.351563 1.378906c1.191406-.441406.597656-.410156 5.65625-2.460938 35.199219-14.289062 39.78125 41.054688-14.382812 40.605469-30.046875-.25-58.917969-21.84375-87.664063-25.785156 33.457031.332031 65.089844 21.636719 90.046875 18.058593 7.683594-1.101562 14.109375-3.890624 18.453125-7.105468 3.632813-2.683594 5.816407-5.660156 6.070313-8.195313.304687-3.054687-2.640625-7.230469-8.347656-5.90625-1.285157 2.59375-3.15625 4.53125-5.449219 5.9375-5.867188 3.597657-14.515625 3.726563-23.257813 2.445313-25.070312-3.679688-46.621094-16.835938-71.851562-21.101563-16.605469-2.804687-35.300782-2.925781-50.84375 4.808594-2.015625 1.007813-5.097656 2.773437-2.023438 5.382813l15.109375 12.304687c15.566407-1.894531 27.683594-2.851563 57.511719 8.980469 24.648438 9.777344 47.605469 25.003906 74.980469 15.183594 0 0-14.824219 12.789062-46.183594 3.515624-29.929687-8.847656-43.710937-16.808593-65.394531-13.703124-.539063.097656-.824219.4375-.210938 1.03125 14.625 10.683593 29.257813 21.398437 43.429688 30.804687 23.734375 14.140625 35.875 14.695313 58.796875.488281l78.941406-59.722656c.789063-.582031 1.578125-1.90625.511719-3.515625zm0 0" fill="#004098"/><path d="m125.90625 56.34375c28.738281 0 53.125 19.222656 60.976562 45.464844-18.617187-3.3125-37.65625 1.195312-47.253906 9.65625l1.6875.480468s.238282 0-2.171875 1.6875l6.214844.199219-5.277344 2.5625-.367187 1.515625c21.308594-1.386718 9.105468 18.0625-7.699219 16.4375-25.554687-2.472656-45.832031-19.914062-69.609375-17.605468 2.074219-33.195313 29.796875-60.398438 63.5-60.398438zm0 0" fill="url(#a)"/><path d="m125.863281.175781c69.265625 0 125.761719 56.492188 125.761719 125.761719 0 69.265625-56.496094 125.761719-125.761719 125.761719-69.269531 0-125.7656248-56.496094-125.7656248-125.761719 0-69.269531 56.4960938-125.761719 125.7656248-125.761719m0 3.839844c67.152344 0 121.921875 54.769531 121.921875 121.917969 0 67.152344-54.769531 121.925781-121.921875 121.925781-67.15625 0-121.921875-54.773437-121.921875-121.925781 0-67.148438 54.765625-121.917969 121.921875-121.917969" fill="#004098"/><path d="m115.589844 197.175781h-6.277344v-1.667969h2.09375v-6.433593l-2.152344.488281v-1.722656l4.253906-.894532v8.5625h2.082032zm3.046875-1.953125c.535156.34375 1.167969.519532 1.894531.519532 1.625 0 2.453125-1.054688 2.484375-3.167969l-.035156-.015625c-.441407.679687-1.125 1.023437-2.046875 1.023437-.835938 0-1.519532-.292969-2.0625-.882812-.535156-.585938-.804688-1.324219-.804688-2.21875 0-1.042969.324219-1.894531.972656-2.546875.648438-.65625 1.496094-.980469 2.539063-.980469 1.085937 0 1.9375.414063 2.558594 1.238281.621093.828125.929687 1.980469.929687 3.460938 0 1.757812-.375 3.144531-1.121094 4.167968-.746093 1.019532-1.824218 1.53125-3.226562 1.53125-.789062 0-1.484375-.132812-2.082031-.382812zm1.484375-4.925781c0 .527344.128906.945313.386718 1.25.257813.304687.609376.453125 1.054688.453125.398438 0 .726562-.144531.984375-.4375.257813-.289062.386719-.648438.386719-1.078125 0-.511719-.128906-.960937-.386719-1.347656s-.601563-.578125-1.035156-.578125c-.421875 0-.757813.167968-1.007813.5-.253906.335937-.382812.746094-.382812 1.238281m14.246094 6.878906h-6.28125v-1.667969h2.097656v-6.433593l-2.152344.488281v-1.722656l4.25-.894532v8.5625h2.085938zm9.230468 0h-6.558594v-1.652343l2.886719-2.769532c.609375-.582031 1.03125-1.070312 1.277344-1.460937.238281-.394531.363281-.804688.363281-1.226563 0-.957031-.515625-1.433594-1.542968-1.433594-.855469 0-1.691407.347657-2.496094 1.039063v-1.863281c.859375-.570313 1.839844-.855469 2.9375-.855469.988281 0 1.773437.25 2.351562.753906.582032.503907.875 1.203125.875 2.09375 0 1.179688-.714844 2.410157-2.144531 3.703125l-2.097656 1.886719v.039063h4.148437z" fill="#fff"/><g fill="#004098"><path d="m42.460938 104.476562s-.003907-3.03125.296874-3.617187c.300782-.585937.367188-1.289063.84375-2.082031.480469-.789063.910157-1.460938.96875-2.105469.054688-.644531.058594-1.492187.054688-1.898437-.011719-.398438-.164062-.933594.035156-1.382813.199219-.449219.082032-.695313.238282-1.007813.164062-.3125.09375-.65625.253906-.96875.164062-.316406.191406-.730468.488281-1.25.296875-.519531.507813-1.238281.609375-1.429687.097656-.191406.246094-.421875.507812-.929687.257813-.507813.664063-1.0625.851563-1.425782.1875-.363281.480469-.824218.390625-1.175781-.09375-.355469-.117188-.488281-.042969-.695313.074219-.203124-.289062-.390624-.261719-.558593.023438-.171875.011719-.269531-.082031-.441407-.09375-.171874-.519531-.292968-.519531-.292968s-.136719-.097656-.253906-.160156c-.121094-.0625-.210938-.015626-.304688-.125-.097656-.109376-.398437-.296876-.398437-.296876s-.363281-.367187-.617188-.285156c-.257812.082032-.265625-.015625-.511719.164063-.246093.179687-.304687.121093-.40625.253906-.097656.132813-.320312.261719-.488281.359375-.171875.09375-.136719.082031-.296875.214844-.160156.132812-.644531.492187-.722656.636718-.074219.148438-.195312.328126-.296875.523438-.097656.191406-.460937 1.320312-.488281 1.609375-.027344.292969-.066406.425781-.117188.644531-.050781.21875-.074218.269532-.148437.472656-.074219.207032-.066407.546876-.214844.839844-.148437.289063-.199219.628906-.226563.859375-.027343.230469-.101562.375-.175781.582031-.074219.207032-.289062.738282-.363281.945313s-.046875.160156-.050781.460937c-.003907.304688.035156.230469-.09375.59375-.125.367188-.171875.402344-.398438.898438-.222656.496094-.148437.351562-.5.382812-.355469.035157-.742187-.164062-.898437-.335937s-.507813-.320313-.726563-.371094c-.214843-.050781-.773437-.335937-.941406-.421875-.167969-.085937-.164063-.390625-.421875-.429687-.253906-.039063-.691406-.203125-.859375-.289063-.167969-.085937-.363281-.003906-.753906-.203125-.386719-.195312-.796875-.46875-.929688-.628906-.132812-.15625-.375-.21875-.308593-.523437.0625-.304688.257812-.570313.382812-.871094.125-.304688.1875-.484375.105469-.863282-.082031-.378906-.03125-.414062.070312-.730468.097657-.3125.015625-.386719-.03125-.777344-.042969-.390625.019531-.691406-.023437-1.203125-.042969-.511719-.289063-.578125-.089844-.964844s.1875-.667969.132812-.972656c-.058593-.304687-.234374-1.15625-.339843-1.242187-.109375-.085938-.28125.070312-.449219-.257813-.164062-.332031-.203125-.378906-.496094-.347656-.289062.035156-.109375.035156-.460937-.171875-.347657-.210938-.875-.023438-1.226563.074218-.355468.09375-.414062.152344-.746094.261719-.328124.105469-.523437.308594-.695312.46875-.171875.15625-.261719.386719-.277344.714844-.011718.328125-.066406.726563-.117187.945313s-.101563.253906-.105469.679687-.125.484375-.117188.945313c.007813.464843-.078124.574218-.058593.949218.019531.378906-.167969.800782-.167969.800782s-.375-.039063-.496094-.160157c-.121094-.125-.703125-.300781-.929687-.570312-.230469-.269531-.457031-.539063-.457031-.539063s-.191407-.097656-.363282-.1875c-.171875-.085937-.460937-.292968-.460937-.292968s-.289063-.269532-.503907-.382813c-.21875-.113281-.269531.105469-.507812-.320313-.242188-.429687-.304688-.308593-.410156-.515624-.109375-.207032-.375-.28125-.480469-.613282-.105469-.328125-.359375-.609375-.613281-.832031s-.214844-.355469-.648438-.578125c-.4375-.222656-.898437-.335938-1.175781-.449219-.28125-.113281-1.363281-.085937-1.53125.011719-.171875.09375-.378906.203125-.550781.238281-.171875.035157-.183594.121094-.464844.25-.28125.132813-.316406-.039062-.511719.226563-.195312.265625-.359375.640625-.496093 1.027344-.136719.390624-.273438.59375-.421876.945312-.148437.351562-.285156.375-.25.664062.035157.292969.09375.660157.1875.953126.09375.289062.027344.65625.320313.804687.289063.144531.617187.40625.921875.410156.300781.003907.59375.027344.8125.019531.21875-.011718.351562.207032.679688.34375.324218.136719.386718.140626 1.148437.621094.761719.480469 1.171875.875 1.65625 1.121094s1.410156 1.058594 1.800781 1.257812c.386719.199219 1.0625.726563 1.378906.828126.3125.097656.484376.246093.84375.371093.367188.125 3.015626 1.328125 3.355469 1.503907.339844.175781.484375.308593.933594.507812.445313.199219 1.863281.773438 2.179687.929688.3125.160156.890626.640624 1.183594.730468.289063.085938.878906.484375 1.027344.558594.144531.074219.421875.246094.6875.503906.265625.257813.519531.480469.78125.675782.265625.199218.703125.300781.773438.578124.070312.28125-.066407.730469.027343 1.207032.089844.476562.152344.292968-.019531.753906-.175781.460938-.125.304688-.167969.738281-.039062.441407-.03125.71875-.03125.71875s.007813.585938-.152343.898438c-.160157.3125-.152344.59375-.25.847656-.101563.253906-.261719.449219-.328126.992187-.066406.546876-.238281.644532-.277343 1.203126-.042969.558593-.21875 1.019531-.171875 1.289062.046875.265625.160156.875.429687.953125.265625.074219.4375.160156.726563.1875.292968.027344.425781.128906.695312.082031.265625-.046875.753906-.101562 1.035156-.234375.28125-.128906.621094-.261719.976563-.539062.355469-.273438.550781-.355469.738281-.722657.183594-.359374.320313-.507812.324219-.871093.003906-.371094.039063-.691407.039063-.691407zm0 0"/><path d="m180.066406 52.257812s.40625.632813.90625 1.109376c.496094.476562.414063.472656.925782.707031.515624.234375.832031.335937 1.378906.691406.542968.359375.542968.359375 1.195312.320313.652344-.042969 1.445313-.4375 1.929688-.410157.484375.03125 1.246094-.492187 2.34375-.460937 1.089844.027344 1.566406.21875 2.136718.171875.570313-.046875.347657-.382813.871094-.3125.523438.074219 1.136719-.007813 1.136719-.007813s-.03125 1.171875-.226563 1.730469c-.199218.554687-.378906 2.164063-.742187 3.480469s-.664063 2.878906-.550781 3.695312c.109375.820313-.042969 2.027344.375 3.105469.417968 1.078125.769531 1.992187 1.449218 2.765625.683594.769531 1.492188.820312 1.683594 1.035156.1875.214844.457032.433594.457032.433594l.027343-.40625.367188-.015625s-.21875-.421875-.4375-.839844c-.214844-.417969-.1875-.214843-.261719-.988281-.074219-.777344-.320312-.710938-.390625-1.566406-.066406-.855469-.183594-2.28125-.261719-2.972656-.078125-.695313-.359375-2.738282-.320312-3.386719.042968-.644531.246094-.671875.347656-1.679688.101562-1.007812.75-2.953125.835938-3.722656.089843-.765625.105468-1.003906.484374-1.265625.378907-.261719.628907-.328125 1.121094-.457031.496094-.132813.621094-.167969.949219-.226563s1.289063.769532 1.96875.933594c.675781.160156 1.410156.8125 1.75 1.203125.339844.382813.558594.113281.953125.300781.394531.183594.339844.464844.773438.613282.4375.148437 1.046874.144531 1.046874.144531s.125-.03125.304688-.34375.511719-.457031.695312-.769531c.183594-.3125.183594-.3125-.015624-1.054688-.195313-.742188-.390626-.875-1.003907-1.480469s-1.765625-.960937-2.273437-1.277343c-.507813-.3125-1.347656-.492188-1.347656-.492188l-.265626-.296875s1.191407-.898437 1.5625-.996094c.371094-.097656.488282-.050781.742188-.195312.25-.148438.800781-.480469 1.222656-.777344.425782-.296875.976563-.710937 1.59375-.875.621094-.164063 1.179688-.738281 1.394532-.929687.214843-.1875.4375-.539063.472656-1.105469.039062-.5625-.160156-1.304688-.257813-1.675781-.101562-.371094-.160156-.699219-.464843-1.042969-.304688-.34375-.449219-.597657-.867188-.378907s-.734375.035157-1 .425782c-.265625.386718-.199219.636718-.5.902344-.300781.261718-1.207031 1.828124-1.589844 2.089843-.378906.261719-.675781.445313-.675781.445313s-.417969.21875-.71875.484375-.558594.492187-.859375.757812c-.296875.261719-.519531-.074219-.90625.265625-.386719.34375-.355469.464844-.6875.609375-.332031.140625-.332031.140625-.589844.367188-.257812.226562-.707031.324219-.707031.324219s-.757813-.25-1.34375-.570313c-.589844-.320313-1.023437-.550781-1.496094-.742187-.476562-.191407-.4375-.148438-.664062-.40625-.226563-.257813-.378907-.429688-.570313-.640626-.1875-.214843-.039062-.652343-.488281-.640624-.445313.011718-.6875 0-.988281.261718-.300782.265625-.664063.285156-.886719.554688-.21875.273437-.136719.882812-.242187 1.285156-.101563.394531.042968.648438.042968.648438s.863282.460937 1.371094.773437c.507812.316406 1.484375.90625 1.484375.90625s.714844.203125.34375.304687c-.371094.097657-.78125.234376-1.160156.414063-.375.179687-.617188.164063-1.070313.257813s-.152344-.171876-.644531-.039063c-.496094.132813-.285156.023437-.859375.148437-.578125.125-.414062.136719-.910156.269532-.496094.128906.171875-.152344-.851563-.011719-1.019531.136719-1.582031.023437-1.910156.082031-.328125.0625-.136719.277344-.835937.4375-.699219.160156-.6875-.082031-1.292969-.082031-.609375.003906-.335938-.464844-1.050781-.0625-.714844.402344-.394532.5-1.003907.503906-.609375.003907-.441406-.066406-1.242187-.277343-.796875-.210938-1.210938-.078126-1.210938-.078126zm0 0"/><path d="m217.179688 82.859375s-.191407.136719-.371094.144531c-.175782.011719-.167969-.117187-.367188-.058594-.203125.058594-.140625.160157-.722656.183594-.582031.023438-1.011719.171875-1.390625.199219-.378906.023437-.445313.007813-.832031.160156-.390625.15625-.492188.152344-1.085938.40625-.59375.253907-.757812.296875-1.003906.394531-.246094.097657-.347656.054688-.507812.21875-.160157.164063-.113282.125-.375.289063-.261719.164063-.453126.199219-.453126.199219s-.039062-.148438-.160156-.304688-.332031-.171875-.480468-.339844c-.144532-.167968-.414063-.324218-.523438-.445312-.105469-.121094-.242188-.148438-.167969-.585938s-.152343-.550781.085938-.828124c.238281-.277344.710937-.988282 1.214843-1.105469.503907-.117188 1.5-.488281 1.710938-.46875s.398438.027343.730469.039062c.328125.011719.824219-.082031 1.277343.085938.453126.171875 1.144532.164062 1.589844.519531.441406.351562.597656.128906 1.011719.558594.414063.429687.820313.738281.820313.738281zm0 0"/><path d="m230.476562 79.773438s-.992187-.363282-1.246093-.429688c-.253907-.0625-1.382813-.179688-1.664063-.230469s-1.105468-.222656-1.628906-.148437c-.527344.078125-.945312.011718-1.210938.085937-.265624.070313-.214843-.046875-.585937.097657-.367187.144531-.503906.132812-.957031.308593-.453125.179688-.8125.1875-1.269532.433594-.460937.246094-.691406.335937-1.09375.558594-.402343.222656-.339843.132812-.863281.472656-.523437.335937-.761719.382813-1.054687.726563-.289063.34375-.296875.171874-.453125.527343s-.183594.496094-.097657.726563c.089844.226562.109376.390625.1875.589844.078126.199218.148438.285156.214844.453124.066406.171876.773438.222657.773438.222657s.136718-.15625.226562.074219c.085938.226562-.09375.429687.070313.429687.164062 0 .527343-.238281.699219-.308594.171874-.066406.851562-.660156 1.140624-.839843.292969-.179688.941407-.53125 1.21875-.738282.277344-.210937.914063-.589844 1.378907-.738281.464843-.152344 1.191406-.46875 1.578125-.324219.382812.144532 1.113281-.078125 1.417968-.132812.308594-.054688 1.035157.21875 1.257813.195312.222656-.019531.664063-.0625.964844-.214844.300781-.148437.464843-.3125.699219-.632812.234374-.324219.496093-.492188.519531-.761719.027343-.273437-.222657-.402343-.222657-.402343zm0 0"/><path d="m232.253906 81.792969s-.394531-.335938-.613281-.3125c-.222656.019531-.414063.027343-.601563-.027344-.1875-.058594-.460937.082031-.601562.136719-.140625.058594-.667969.132812-.953125.246094-.285156.109374-.300781.148437-.539063.210937-.238281.058594-.226562-.074219-.429687.070313-.207031.144531-.472656.21875-.785156.339843-.3125.121094-.589844.167969-.832031.292969-.246094.128906-.109376.140625-.417969.195312-.304688.058594-.355469.011719-.683594.171876-.332031.160156-.238281.0625-.675781.199218-.4375.140625-.71875.25-1.144532.417969-.425781.167969-.601562.140625-.859374.238281-.253907.097656-.871094.113282-1.125.214844-.257813.097656-.738282.289062-.882813.34375-.140625.054688-.246094.03125-.210937.214844.039062.179687.234374.429687.082031.621094-.15625.191406-.109375.0625.019531.308593.128906.246094.257812.402344.15625.640625-.105469.238282-.34375.296875-.152344.285156.195313-.007812.730469.109376.730469.109376s.339844.355468.492187.332031c.152344-.027344 1.148438-.417969 1.476563-.414063.328125 0 1.320313-.410156 1.492187-.476562.171876-.066406 1.269532-.578125 1.660157-.664063.394531-.089843 1.273437-.269531 1.730469-.351562.460937-.082031 1.261718-.039063 1.546874-.152344.285157-.109375.765626-.300781.765626-.300781s-.136719.152344-.144532.386718c-.003906.230469.023438.222657-.097656.496094-.121094.277344-.3125.121094-.304688.3125.011719.195313.378907.378906.378907.378906s-.054688.28125-.472657.21875c-.417968-.066406-.929687.136719-1.191406.140626-.257812 0-.648437-.074219-.914062-.167969-.265625-.089844-.5625-.105469-.808594-.140625-.242188-.035156-.457031-.082032-.769531.039062-.3125.125-.429688.074219-.699219.308594-.265625.234375-.304688.21875-.371094.472656-.0625.253906-.054687.613282-.054687.613282s.015625.121093-.210938.210937c-.226562.089844-.773437.371094-.773437.371094s-.007813.230469-.140625.480469c-.132813.246093-.0625.253906-.175781.460937-.113282.210937.023437.320313-.03125.503906-.058594.1875-.105469.566407-.105469.566407l-.304688.148437s-.472656-.207031-.886719-.339844c-.414062-.132812-.734374-.367187-.914062-.492187s-.859375-.351563-.859375-.351563l-.507813-.554687s-.609374-.511719-.71875-.640625c-.109374-.128907-.730468-.609375-.925781-.820313-.199219-.210937-.496093-.527344-.621093-.625-.125-.09375-.496094-.378906-.65625-.492187-.160157-.109375-.363282-.261719-.578126-.4375-.210937-.175781-.445312-.402344-.574218-.582031-.128906-.183594-.226563-.285157-.488282-.503907-.257812-.214843-.402343-.21875-.527343-.3125-.121094-.09375-.40625-.300781-.40625-.300781s-.3125.671875-.28125.832031c.035156.160157.214843.695313.3125.945313.097656.25.960937.894531 1.082031.992187.125.09375 1.175781.78125 1.4375 1.078125.265625.304688 1.179688 1.242188 1.472656 1.617188.292969.378906.800782.785156.972656 1.003906.175782.222656.1875.476562.421876.703125.234374.226563.382812.3125.710937.703125.324219.390625 1.039063 1.035156 1.25 1.414062.207031.382813.972656 1.148438 1.042969 1.699219.070312.546875.335937 1.078125.320312 1.261719-.015625.179688.058594.292969-.117187.21875-.175781-.078125-1.449219-.527344-1.449219-.527344s-.484375-.273437-.71875-.355468c-.234375-.082032-.695312-.445313-.839844-.449219-.144531 0-.703125-.097657-.867187-.292969-.164063-.195312-.347657-.296875-.652344-.410156-.304687-.109375-.539063-.855469-.53125-.394532.007813.457032.121094.382813-.164063.175782-.28125-.203125-.59375-.484375-.59375-.484375l.4375.230469-.265624-.386719s.292968-.429688.417968-.625c.128906-.195313.265625-.507813.191406-.769531-.074218-.261719-.253906-.796876-.378906-1.035157-.125-.242187-.382812-.6875-.605468-.804687-.21875-.113282-.457032-.136719-.691407-.363282-.234375-.226562-.210937-.320312-.386719-.539062-.171874-.222656.011719-.410156-.304687-.488281-.320313-.074219-.304687-.257813-.566406-.039063s-.523438.4375-.648438.488282c-.125.046874-.257812.15625-.304687.320312-.054688.167969-.007813.0625.042968.417969.054688.351562.113282.648437.171876.796875.058593.152344.441406.316406.1875.332031-.257813.011719-.589844-.03125-.84375-.160156-.253907-.132813-.605469-.285157-.605469-.285157s.117187-.21875-.242188-.253906c-.359375-.03125-.625-.039062-.832031.097656-.203125.136719-.445312.589844-.445312.589844s-.1875.167969-.207032.429688c-.023437.261718-.015625.445312-.015625.445312s-.035156.394532-.265625.609375c-.230468.214844-.375.335938-.539062.398438-.164063.066406-.265625.042969-.265625.042969s-.183594-.464844-.335938-.691407c-.148437-.222656-.441406-.800781-.558593-.945312-.121094-.140625-.605469-.898438-.816407-1.191407-.210937-.296874-.519531-.839843-.8125-1.101562s-.933593-1.019531-1.078125-1.308594c-.144531-.289062-.519531-.679687-.699218-.894531-.175782-.210937-.636719-.820313-.636719-.820313s.085937-.097656.003906-.320312c-.089844-.214844-.09375-.152344-.257813-.246094-.164062-.089844-.6875-.140625-.730468.070313-.042969.207031-.230469.214843-.304688.433593-.070312.21875-.148437.34375-.019531.511719.128906.171875.257813.246094.257813.246094s-.195313-.175781-.257813.070313c-.0625.246093-.070313.058593-.1875.167968-.113281.109375-.105469.136719-.1875.328125-.082031.1875-.257813.226563-.148437.339844.109374.117187.503906.085937.746093.214844.238281.125.421875.433593.636719.664062.21875.230469.671875.746094.839844.929688.167968.1875.398437.378906.527344.617187.121093.234375.125.484375.347656.648438.222656.167968.289062.328125.429687.527344.136719.195312.371094.230468.527344.546874.15625.316407.1875.148438.472656.792969.28125.644531.613281.609375.625.953125.007813.34375.144531.292969-.019531.355469s-1.460938.292969-2.003906.28125c-.539063-.007813-.789063.152344-1.097656.085937-.3125-.066406-.632813-.160156-.894532-.1875-.261718-.023437-.453125.054688-.722656-.15625-.273438-.210937-.652344-.375-.761719-.488281-.105469-.117187-.1875-.242187-.261719-.433593-.078124-.191407-.023437-.054688-.125-.394532-.101562-.335937-.113281-.207031-.050781-.453125.0625-.242187.027344-.324219.160157-.628906.132812-.304687.128906-.238281.234374-.53125.105469-.292969.1875-.484375.1875-.484375s-.007812-.34375-.238281.03125c-.230469.371094-.488281.285156-.660156.570312-.167969.289063-.257813.226563-.464844.5-.210937.273438-.4375.582032-.601562.800782-.164063.226562-.324219.382812-.472657.722656-.148437.34375-.375.496094-.261718.703125.113281.207031.171875-.128906.199218.269531.03125.398438.042969.425782.207032.675782.160156.25.191406.332031.480468.503906.285157.171875.265626.117187.535157.324218.273437.210938.839843.367188 1.199219.476563.359374.113281 1.09375.140625 1.300781.183594.207031.046875.757812.082031.953125.097656.195312.019531 1.128906-.09375 1.128906-.09375s.394531.035156.632812.003906c.238282-.03125.480469-.0625.84375-.015625.367188.046875.546876-.058594.757813-.078125.214844-.019531.421875-.132812.578125-.128906.160156 0 .261719.019531.464844.289063.199218.269531.472656.886718.667968 1.0625.195313.175781.472657.886718.578126 1.160156.109374.273437.152343.382812.324218.820312s.191406.332032.265625.683594c.074219.347656.085938.691406.085938.691406l.058593.640625.328126.027344s.175781-.195313.320312-.0625c.144531.128906.390625.035156.390625.035156s.140625.195313.230469-.058593c.089844-.257813.152344-.816407.152344-.816407s.015624.121094.195312.015625c.179688-.101562.277344-.421875.238281-.597656-.035156-.171875-.042969-.832031-.191406-1.214844-.148437-.382812-.660156-1.035156-.828125-1.472656-.171875-.4375-.632812-1.203125-.777344-1.492188-.144531-.292968-.222656-.480468-.296875-.671874-.074219-.191407.25-.414063.425781-.765626.175782-.351562.242188-.503906.359376-.613281.117187-.109375.316406-.316406.316406-.316406l1.007812.34375s.363282-.183594.960938-.0625 1.480468.164063 1.480468.164063.207032-.273438.273438-.105469.066406.367187.410156.742187c.347656.375.484375.320313.777344.675782.296875.355468.441406.613281.648438.652343.210937.035157.03125-.523437.347656.175781.3125.703126.75.808594.75.808594s.304687.078125.527344.34375c.222656.265625.25.332032.25.332032l-.597657-.316407s-.160156.300781.371094.640625c.527344.34375.578125.480469 1.035156.734375.453125.253907.628907.695313 1.050781.769531.417969.070313 1.039063.140626 1.390626.238282.355468.09375 1.261718-.101563 1.476562-.660156.214844-.554688.410156-1.457032.199219-2.003907-.214844-.542969-.34375-1.871093-.578125-2.171875-.234375-.300781-1.230469-1.835937-1.339844-2.105468-.105469-.273438-1.511719-1.648438-1.511719-1.648438s1.726563 1.089844 2.167969 1.3125c.441406.21875 1.195312.433594 1.519531-.242188.324219-.679687.453125-1.359374.453125-1.359374s-.023437-.660157.207032-.671876c.234374-.011718.507812-.511718 1.136718-.011718s1.476563 1.347656 1.8125 1.605468c.339844.261719.433594.304688.570313.445313.132812.144531.199219.316406.40625.234375.203125-.082031.257812-.140625.257812-.140625s-.074219.304687.226563.070313c.300781-.238282.273437-.304688.476562-.386719.207032-.078125.191406.082031.261719-.339844.070313-.417969-.148437-.882813-.273437-1.191406-.117188-.304688-.171876-.441407-.15625-.800781.015624-.359376-.152344-.613282.175781-.53125.324219.082031.90625.0625 1.148437.199218.246094.136719.554688.222656.722656.28125.171876.0625.515626.074219.847657.28125.332031.203125.445312.390625.589843.375.140626-.011718.410157-.078125.589844 0 .175782.078125.332032.207032.5.097656.167969-.109374.171875-.152343.320313-.144531.152343.003907.269531.085938.351562-.074219.085938-.160156.363281-.3125.410157-.457031.050781-.144531.09375-.140625.042968-.476562-.046875-.339844-.039062-.425781-.15625-.613281-.113281-.183594-.050781-.292969-.277344-.4375-.222656-.144532-.40625-.34375-.40625-.34375s.757813-.210938.851563-.421876c.09375-.214843.617187-.597656.753906-.792968.136719-.195313.300781-.402344.257813-.597656-.039063-.195313-.191406-.3125-.253906-.464844-.058594-.15625-.089844-.144532-.371094-.316406-.28125-.171876-.640625-.277344-.976563-.144532-.339843.128906-.398437-.023437-.796875.132813-.402344.15625-.585937.230469-.871094.308593-.289062.078126-.398437-.023437-.65625.042969-.257812.066407-.472656-.027343-.710937-.003906s-.277344.003906-.621094-.324219c-.339843-.328125-.109375-.453125-.542969-.390625-.4375.0625-.574218-.019531-.785156-.1875-.207031-.167969.25-.453125.25-.453125s.097656-.109375.265625-.316406c.164063-.207031.269531-.390625.460938-.710938.191406-.324218.378906-.398437.3125-.65625-.066407-.253906.023437-.113281-.132813-.335937-.148437-.21875-.375-.410156-.375-.410156zm0 0"/><path d="m49.453125 49.445312.121094-.109374-.117188-.464844s.097657-.15625.183594-.207032c.078125-.054687.242187-.046874.402344-.015624.160156.03125.1875.113281.429687.089843.242188-.023437.507813.003907.734375-.183593.226563-.183594.023438-.238282.054688-.421876.03125-.179687.230469-.25.320312-.417968.085938-.171875.195313-.820313.148438-1.015625-.046875-.195313-.355469-.511719-.449219-.664063-.097656-.15625-.222656-.148437-.421875-.320312s-.34375-.28125-.535156-.347656c-.191407-.066407-.785157-.117188-1.027344-.097657-.242187.023438-.804687.03125-1 .101563-.199219.074218-.386719.15625-.527344.238281-.144531.085937-.339843.132813-.484375.261719-.144531.132812-.488281.378906-.632812.507812-.140625.132813-.148438.292969-.191406.441406-.042969.144532-.097657.085938-.011719.273438.082031.1875.15625.097656.269531.390625.109375.292969.105469.453125.292969.566406.191406.113281.296875.324219.535156.347657.238281.023437.40625.113281.648437.089843.242188-.023437.269532-.113281.367188-.007812.097656.109375.191406.355469.34375.523437.152344.167969.164062.179688.273438.300782.101562.121093.273437.140624.273437.140624zm0 0"/><path d="m52.574219 51.800781s.566406.117188.710937.25c.144532.132813.171875.160157.289063.34375.117187.183594.25.621094.308593.925781.0625.308594.292969 1.039063.445313 1.3125.152344.273438.476563.824219.558594 1.042969.078125.21875.261719.875.371093.992188.109376.121093.335938.640625.535157.964843.199219.328126.386719.664063.589843.890626.207032.226562.742188 1.21875.953126 1.425781.207031.207031.539062.699219.734374.964843.195313.261719.738282.914063.996094 1.195313.253906.28125.664063.628906.855469.761719.1875.128906.664063.628906.929687.667968.269532.039063.445313.15625.761719.195313.3125.042969.714844.046875.820313-.042969.101562-.09375.152344-.113281.222656-.394531.074219-.277344.1875-1.050781.1875-1.050781s.117188.078125.066406-.179688c-.046875-.257812-.058594-.578125-.058594-.808594 0-.230468-.109374-.457031-.136718-.738281-.023438-.28125-.070313-.515625-.140625-.644531-.066407-.125-.171875-.238281-.148438-.445312.023438-.207032.007813-.378907.15625-.164063.144531.214844.5625.957031.613281 1.191406.050782.234375.019532.84375.128907 1.117188.109375.273437.089843.96875.140625 1.179687.050781.207032.007812.574219.007812.574219s-.226562 1.1875-.257812 1.355469c-.03125.167968-.085938.519531-.160156.796875-.074219.277343-.113282.59375-.222657.855469-.109375.261718.027344.160156-.25.390624-.28125.230469-.703125.355469-.996093.414063-.296876.058594-.890626-.003906-1.207032-.09375-.3125-.089844-1.074218-.46875-1.332031-.726563-.253906-.253906-1.015625-.683593-1.234375-.925781-.222656-.242187-1.335938-1.238281-1.511719-1.589843-.179687-.351563-.875-1.117188-1.03125-1.417969s-.738281-.988281-.871093-1.210938c-.136719-.230469-.757813-1.222656-.984376-1.671875-.222656-.453125-.816406-1.3125-1.058593-1.835937-.242188-.523438-.804688-1.34375-.792969-1.613281.015625-.265626.054688-.789063-.078125-1.113282-.132813-.324218-.148437-.726562-.167969-1.082031-.019531-.355469-.050781-.746094-.175781-.9375s-.195313-.242187-.175781-.449219c.023437-.203125.007812-.351562.210937-.539062.203125-.183594.390625-.234375.679688-.171875.289062.0625.71875.039062.71875.039062zm0 0"/><path d="m61.949219 58.023438s.375.511718.496093.644531c.121094.136719.183594.507812.429688.644531.25.140625.449219.292969.539062.394531.089844.097657.382813.355469.476563.453125.089844.101563.820313.230469.820313.230469l.792968.105469.683594-.015625s.492188.074219.980469-.097657c.488281-.164062.875-.304687 1.054687-.441406.183594-.132812.679688-.460937.960938-.71875.285156-.257812.769531-.757812.941406-.941406.167969-.183594.640625-.765625.894531-1.027344.25-.257812.335938-.363281.566407-.578125.234374-.210937.425781-.234375.621093-.222656.1875.007813.570313-.277344.570313-.277344l.148437-.105469s.179688-.132812.292969-.507812c.113281-.378906.222656-.933594.253906-1.296875.035156-.363281-.0625-.703125-.09375-1.042969-.03125-.335937-.09375-.675781-.285156-1.019531s-.753906-1.328125-.933594-1.496094c-.1875-.171875-.71875-.992187-.871094-1.160156-.152343-.167969-.367187-.335937-.566406-.824219-.203125-.492187-.4375-.613281-.472656-.824218-.039062-.207032-.042969-.144532-.0625-.335938-.023438-.195312-.195312.019531-.167969-.1875.027344-.203125-.167969-.488281-.175781-.664062-.007812-.175782-.273438-.332032-.164062-.613282.109374-.28125.3125-.527344.417968-.710937.105469-.1875.472656-.523438.640625-.671875.164063-.152344.519531-.535156.636719-.640625.113281-.105469.582031-.527344.765625-.695313.183594-.164062.789063-.839844 1.007813-1.035156.214843-.199219.332031-.273438.339843-.460938.007813-.191406-.03125-.371093-.03125-.371093l-.390625-.195313s-.222656-.3125-.324218-.496094c-.105469-.175781-.214844-.230468-.339844-.300781-.121094-.070312-.261719-.160156-.472656-.121093-.210938.039062-.390626.207031-.570313.246093-.175781.039063-.289063.015625-.421875.136719s-.519531.503906-.640625.734375c-.121094.234375-.492187.597656-.605469.703125-.117187.109375-.652344.625-.652344.625s-.011718.222656-.292968.480469c-.285156.257812-.308594.464843-.402344.363281-.089844-.101562-.253906-.316406-.34375-.449219-.089844-.132812-.101562-.242187-.238281-.394531s-.117188-.597656-.207031-.695312c-.089844-.101563-.273438-.300782-.261719-.460938.003906-.160156-.089844-.5-.210938-.632812-.121093-.136719-.421875-.5625-.679687-.816407-.257813-.25-.429688-.402343-.628906-.492187-.207032-.089844-.738282-.277344-.847657-.328125s-.648437-.144531-.839843-.121094c-.191407.023437-.652344-.046875-.917969.195313-.265625.242187-.433594.359374-.652344.558593-.214844.195313-.390625.234375-.53125.484375-.136719.246094-.457031.601563-.53125.753906-.070313.15625-.167969.519532-.269531.675782-.105469.152344-.289063.382812-.316406.558594-.023438.171874-.160157.355468-.199219.546874-.039063.191407-.222657.996094-.222657.996094l-.15625.53125-.269531-.027344s-.179687-.566406-.148437-.871093c.027344-.300781-.210938-.628907-.183594-.839844.027344-.203125.089844-.535156.066406-.699219-.027344-.15625-.226562-.28125-.21875-.46875.007813-.191406-.121094-.804687-.046875-1.089844.078125-.28125.097657-.695312.054688-1.144531-.039063-.449219.070312-.730469.066406-1.003906s-.085937-.53125-.058594-.800781c.027344-.269532.089844-.503906.121094-.871094s.078125-.652344.054687-.8125c-.027343-.15625.242188-.402344.242188-.402344s-.183594-.472656-.226562-.648437c-.039063-.175781-.300782-.363281-.425782-.433594-.121094-.070313-.175781.007813-.28125-.109375-.105468-.117188-.308594-.210938-.308594-.210938s-.238281-.058593-.410156-.082031c-.175781-.023437-.703125-.003906-.878906.039063-.179688.039062-.242188 0-.324219.078125s-.347656.316406-.347656.316406-.246094.070313-.394531.207031c-.148438.136719-.175782.339844-.175782.339844s-.234374.210938-.5.457031c-.265624.238281-.429687.296875-.472656.519531-.042968.21875.089844.433594.078125.753907-.015625.320312-.132812.421875.003907.574219.136718.152343.167968.152343.121093.46875-.042969.316406-.15625.933593-.15625.933593s-.175781.40625-.175781.710938c.003906.304687-.164062.488281-.304688.703125-.140624.214844-.292968.414062-.292968.414062s-.203125-.089844-.222656-.3125c-.023438-.222656-.128907-.675781-.117188-.898437.007812-.222657.019531-.078125-.070312-.546875-.09375-.464844-.109376-.453125-.273438-.667969s-.253906-.316406-.335938-.605469c-.082031-.292968-.15625-.40625-.261718-.554687-.105469-.152344-.15625-.375-.292969-.527344-.136719-.148437-.214844-.230469-.214844-.230469s-.285156-.351562-.460937-.375c-.171875-.027344-.398438-.003906-.523438-.074218-.121094-.070313-.371094-.207032-.675781-.207032-.300781 0-.515625.101563-.582031.195313-.070313.089843-.414063.3125-.359375.539062.054687.226563-.046875.347657.019531.589844.070312.246094.175781.359375.25.445313.078125.082031.183594.472656.183594.472656s-.011719.253906-.007813.554687c0 .304688.191407.617188.234375.761719.039063.148438-.03125.367188.046875.691406.082031.320313.074219.480469.203125.726563.136719.246093.15625.40625.175782.695312.019531.289063.203124.425781.304687.667969.101563.246094.257813.621094.40625.851562.144531.230469.21875.441407.355469.589844.136718.152344.175781.328125.292968.492188.121094.167968.113282.359375.359376.496094.25.140624.519531.472656.519531.472656s.226562.011718.496093.039062c.269532.03125.351563.292969.628907.160156.277343-.128906.636719-.304687.734375-.394531.101562-.089843.359375-.171875.421875-.410156.058593-.238281.316406-.285156.394531-.570313.074219-.28125.234375-.644531.34375-.894531.105469-.25.242188-.769531.34375-.890625.101562-.125.222656-.261718.222656-.261718s.648438 1.757812.632813 2.105468c-.015625.351563.175781 1.0625.214843 1.238282.039063.179687.25 1.449218.25 1.449218s.171876.089844.230469.523438c.058594.433594.054688.558594.148438.867187.097656.308594.207031.664063.257812.957031.050781.289063.210938.628907.3125 1.179688.101563.546875.042969.785156.175781 1.027344.128907.246094.539063 1.398437.59375 1.625.050782.226562-.007812.464844.105469.757812.113281.292969.488281.804688.542969 1.03125.050781.226563.089844.769532.140625 1.027344s.121094.53125.125.804688c0 .269531.007813.109374-.140625.550781-.148438.4375-.410156.953125-.5625 1.152343-.15625.199219-.144531.3125-.355469.347657-.207031.039062-.367187.03125-.484375.136719-.117187.109374-.167968.214843-.183594.503906-.011718.289062.019532.558594.128907.675781.105469.117187.136719.179687.414062.292969.285157.109375.390625.222656.707031.273437.316407.046875.417969.226563.667969.03125.25-.195312.320313-.351562.449219-.410156.132812-.054687.328125-.109375.351562-.285156.023438-.171875-.136718-.214844-.121093-.46875.007812-.253907-.101563-.246094.070312-.554688.171875-.308593.242188-.433593.242188-.433593m4.511719-7.722657s-.136719.183594-.144532.4375c-.015625.257813-.078125.316407.023438.496094.101562.179687.03125.367187.21875.441406s.277344.207031.542968.296875c.269532.09375.449219.292969.6875.355469.238282.058594.320313.015625.484376.199219.167968.183594.316406.445312.375.546875.058593.097656.089843.066406.039062.511719-.054688.441406-.128906.695312-.09375.90625.039062.207031-.015625.378906-.015625.378906s.371094.242187.597656.191406c.222657-.054688.367188 0 .632813-.273438.269531-.273437.304687-.734374.558594-.996093.25-.257813.324218-.445313.238281-.640625-.089844-.195313.097656-.394532.105469-.554688.007812-.160156-.207032-.695312-.242188-.96875-.035156-.273437-.398438-.976562-.527344-1.285156s-.503906-.789062-.574218-1.035156c-.070313-.242188-.230469-.457032-.300782-.730469-.066406-.277344-.269531-.394531-.335937-.671875-.066407-.273438-.136719-.484375-.210938-.570312-.078125-.082032-.144531.042968-.328125.207031-.183594.167969-.472656.855469-.628906 1.117187-.152344.265625-.347656.257813-.554688.628906-.210937.371094-.179687.371094-.25.59375-.078124.222657-.296874.417969-.296874.417969m-1.546876 2.378907s.171876.089843.242188.269531c.074219.179687.039062.273437.269531.425781.230469.15625.382813.324219.566407.429688.1875.105468.40625.179687.707031.242187.300781.058594.519531.136719.824219.167969.300781.027344.390624.128906.511718.261718.121094.132813.199219.1875.257813.347657.054687.160156.058593.402343.085937.5625.019532.160156.09375.039062.167969-.214844.074219-.25.070313-.1875.261719-.113281.1875.074218.339844.207031.414062.289062.078125.085938.117188.230469 0 .367188-.121094.136718-.460937.632812-.628906.785156-.164062.148438-.335938.429688-.78125.710938-.441406.28125-.652344.289062-.878906.40625-.230469.113281-.203125.242187-.597656.144531-.394532-.101563-.519532-.171875-.777344-.453125-.257813-.285156-.488282-.472656-.699219-.707032-.214844-.234374-.429687-.402343-.640625-.671874-.210938-.261719-.285156-.746094-.351562-.988282-.070313-.242187-.089844-.5-.015626-.6875.074219-.1875.246094-.496094.433594-.726562.1875-.230469.292969-.480469.398438-.636719.101562-.152344.230468-.210937.230468-.210937m-1.757812-.628907c.039062-.125.210938-.402343.269531-.574219.054688-.175781.15625-.296874.265625-.609374.109375-.316407.035156-.398438-.003906-.574219-.039062-.179688-.253906-.378907-.375-.515625-.121094-.132813-.5-.214844-.652344-.351563-.15625-.132812-.414062-.082031-.5625-.25-.152344-.167969-.492187-.40625-.546875-.601562-.054687-.195313.117188-.441407.117188-.441407s.347656-.320312.480469-.4375c.132812-.121093.21875-.199218.445312-.21875.222656-.023437.523438.007813.796875-.027343.273437-.03125.542969.027343.828125.074219.285156.046874.351562-.015626.515625.167968.167969.183594.246094.265625.382813.417969.136718.152344.066406.273437.230468.1875.160156-.089844.394532-.636719.585938-.894531.1875-.261719.355468-.480469.589844-.722656.238281-.242188.375-.492188.5-.757813s.226562-.417969.21875-.59375c-.007813-.175781-.054688-.195313-.144532-.359375-.085937-.164062-.324218-.527344-.460937-.675781-.136719-.148438-.40625-.515625-.542969-.664063-.136719-.152344-.453125-.566406-.621094-.652344-.171875-.089843-.34375-.144531-.496094-.28125-.15625-.136718-.890624-.410156-.890624-.410156s-.332032-.066406-.433594.027344c-.097656.089844-.128906.085938-.167969.214844-.039063.125-.128906-.039063-.261719.417968-.132812.457032-.210937.800782-.367187 1.035157-.15625.230469-.246094.464843-.304688.703125-.058593.234375-.070312.121094-.097656.390625-.03125.273437-.082031.351562-.191406.597656-.105469.25-.199219.214844-.25.59375-.050781.382813.03125.371094-.15625.566406-.183594.199219-.199219.183594-.402344.429688-.203125.242187-.394531.296875-.46875.488281-.074219.1875.171875.453125.140625.757812-.03125.300782.128906.308594.1875.710938.0625.402344.285156.746094.394531 1.136719.109375.386719.144531.691406.226563.980469.078125.292968-.007813.160156.175781.601562.1875.441406.261719.617188.347656.75.089844.132812-.246093.5.089844.195312.332031-.304687.371094-.398437.4375-.488281.066406-.09375.171875-.34375.171875-.34375"/><path d="m94.320312 16.757812s-.09375.09375-.070312.246094c.023438.148438-.070312.246094-.09375.398438-.019531.148437-.050781.132812.039062.386718.089844.253907 0 .421876.199219.601563.203125.175781.214844.078125.261719.257813.042969.183593.074219.488281.25.625.179688.136718.144531.289062.238281.421874.09375.132813.183594.148438.324219.316407.136719.167969.183594.496093.558594.542969.375.050781.335937.144531.550781-.003907.214844-.152343.09375-.15625.347656-.4375.253907-.28125.253907-.414062.382813-.625.125-.214843.035156-.722656.046875-.867187.007812-.148438.140625-.335938.109375-.511719-.03125-.171875-.273438-.460937-.335938-.613281s-.292968-.359375-.472656-.445313c-.175781-.089843-.433594-.195312-.589844-.285156-.15625-.09375-.386718-.203125-.605468-.207031-.21875-.007813-.554688-.210938-.628907-.214844-.078125-.007812-.28125.03125-.398437.144531-.117188.113281-.113282.269531-.113282.269531zm0 0"/><path d="m96.144531 22.421875-.46875.117187s-.105469.070313-.007812.292969c.097656.222657-.074219.476563-.074219.476563s-.269531.558594-.257812.761718c.011718.203126-.175782.925782-.195313 1.09375-.019531.167969-.191406.539063-.179687.820313.007812.289063-.03125.460937-.113282.789063-.078125.328124-.273437 1.421874-.226562 1.695312.050781.273438-.125.953125-.09375 1.171875.035156.214844-.035156 1.644531.011718 2.066406.042969.417969.125.828125.160157.960938.035156.136719.25 2.132812.304687 2.34375.050782.210937.128906.761719.414063 1.328125.285156.5625.371093 1.464844.640625 1.804687.269531.34375.910156 1.328125 1.15625 1.65625s.859375.890625 1.027344 1.074219c.171874.179688.460937.4375.667968.527344.207032.089844.691406.234375 1.058594.058594.363281-.171876.726562-.695313.726562-.855469-.003906-.164063.128907-.382813.222657-.570313.097656-.1875.261719-.746094.273437-.953125.007813-.207031-.015625-.628906.078125-.835937.089844-.207032.074219-.511719.113281-.6875.035157-.171875.03125-.355469.03125-.519532 0-.164062-.140624-.230468.019532-.496093.15625-.265625.070312-.449219.035156-.582031-.035156-.136719-.003906-.59375-.003906-.59375s.566406-.265626.777344-.484376c.210937-.21875.480468-.367187.480468-.367187s.128906.03125.160156.144531c.027344.117188.304688 1.132813.472657 1.3125.171875.183594.964843 1.214844 1.089843 1.386719.125.175781.125.417969.554688.660156.429688.238281.875.457031 1.164062.546875.289063.089844.730469.226563 1.15625.28125.425782.058594 1.085938-.171875 1.085938-.171875s.109375-.128906.308594-.074219c.195312.050782.136718.066407.539062-.054687.398438-.125.167969-.144531.53125-.238281.367188-.09375.40625-.105469.597656-.152344.191407-.046875.546876-.113281.757813-.25s.359375-.277344.691406-.257812c.332031.019531.476563-.058594.601563-.050782.128906.011719.167968.101563.457031.03125.292969-.074218.421875-.128906.609375-.195312.1875-.070313.328125 0 .503906-.1875.179688-.191406.394532-.550782.578125-.71875.183594-.171875.171875-.289063.398438-.367188.226562-.078125.179687-.109375.324219-.265625.144531-.160156.234374-.449219.246093-.574219.007813-.125 0-.390624.015625-.496093s-.019531-.078125-.085937-.183594c-.066407-.105469-.222657-.066406-.261719-.222656-.039062-.152344-.195312-.214844-.035156-.378907.164062-.164062.292968-.871093.316406-1.023437.023438-.148437.214844-.6875.261719-.820313.046875-.136718.007812-.945312.128906-1.199218.121094-.257813-.011719-1.351563-.027344-1.492188s-.058593-.722656-.050781-1.011718c.007812-.289063-.066406-.902344-.066406-.902344s-.058594-.3125-.078125-.472656c-.019531-.160157-.054688-.621094-.054688-.621094s.160157-.265625.265625-.332032c.105469-.066406.371094-.15625.621094-.21875s.480469-.121093.578125-.144531c.09375-.027343.398437-.121093.667969-.191406.273437-.066406.453125-.238281.453125-.238281s.375.171875.457031.089844c.082031-.078126-.019531-.15625-.007812-.261719.015624-.109375-.039063-.320313-.007813-.449219.027344-.128906-.136719-.128906.011719-.269531.148437-.140625.207031-.234375.160156-.34375-.050781-.113281-.1875-.160157-.242188-.308594-.058593-.152344-.113281-.199219-.261718-.304687-.152344-.105469-.09375-.121094-.304688-.066407-.210937.050781-.414062-.019531-.5625.039063-.148437.058594-.21875.117187-.332031.226562-.117187.113282-.246094.164063-.371094.238282-.125.074218-.234375.039062-.527343.113281-.289063.070312-.402344.183593-.632813.242187s-.328125.164063-.292969-.027344c.03125-.191406-.082031-.410156-.054687-.539062.027343-.132812-.082031-1.046875-.148438-1.152344-.066406-.109375-.183593-.324218-.226562-.578125-.042969-.257812-.078125-.472656-.15625-.617187-.078125-.144532-.15625-.226563-.167969-.347656-.011719-.121094.027344-.621094-.003906-.820313-.027344-.195313-.335938-.691406-.480469-.941406s-.367187-.5625-.546875-.703125-.417969-.449219-.734375-.550782c-.3125-.105468-.539063-.191406-.8125-.226562-.277344-.03125-.710937.117188-.980469.265625-.269531.152344-.355468.128906-.46875.242187-.117187.109376-.132812.132813-.375.21875-.246094.082032-.378906.21875-.5625.367188-.191406.148438-.257812.125-.460937.21875-.199219.089844-.296875-.050781-.375.136719-.074219.183593-.152344.285156-.292969.542969-.140625.261718-.5.375-.601562.539062-.101563.171875-.25.308594-.40625.496094-.160157.183594-.40625.425781-.507813.515625-.097656.085937-.195313.191406-.195313.191406s.085938-.472656.195313-.683594c.109375-.214843.222656-.570312.300781-.835937.078125-.261719.152344-.527344.324219-.839844.167969-.308594.140625-.566406.332031-.941406.195313-.378906-.046875-.4375.25-.800782.296875-.363281.335938-.617187.558594-.878906.222656-.257812.058594-.257812.375-.542968.316406-.285157.605469-1.09375.605469-1.09375s.179687-.332032.21875-.507813c.039062-.171875.3125-.46875.425781-.660156.117188-.191407.410156-.574219.542969-.769531.136719-.199219.351562-.316407.457031-.464844.105469-.148438.019531-.414063.019531-.414063s.4375-.128906.390625-.40625c-.050781-.273437-.007812-.429687-.054687-.621093-.046875-.191407-.238281-.125-.285157-.316407-.046874-.191406-.035156-.21875-.179687-.304687-.144531-.085938-.203125-.152344-.421875-.285156-.214844-.128907-.238281-.304688-.589844-.21875-.34375.085937-.539062.054687-.6875.113281-.148437.058593-.421875.023437-.5.125-.074218.101562-.273437.375-.386718.507812-.109376.128907-.367188.152344-.53125.320313-.164063.160156-.4375.210937-.570313.429687-.128906.214844-.171875.125-.335937.371094-.164063.246094-.277344.683594-.46875.894531-.195313.214844-.511719.582032-.636719.734375-.125.15625-.265625.496094-.523438.765625-.257812.273438-.445312.359375-.636719.652344-.191406.296875-.53125.648438-.761718.871094-.230469.222656-.582032.371094-.773438.664062-.195312.296875-.246094.492188-.507812.679688-.257813.191406-.390625.40625-.660156.539062-.277344.128906-.484376.203125-.628907.277344-.144531.078125-.03125-.277344-.03125-.277344s.082031-.902344.289063-1.300781c.207031-.398437.03125-.765625.148437-1.042969.113281-.273437.164063-.488281.324219-.816406.164062-.332031.464844-1.082031.625-1.347656s.109375-.867188.066406-1.121094c-.042968-.257812-.242187-.554688-.484375-.617188-.242187-.0625-.445312-.214843-.554687-.332031-.109375-.117187-.164063-.246093-.367188-.234375-.203125.007813-.300781-.070312-.5.042969-.199218.113281-.28125.355469-.222656.671875.058594.3125-.003906.46875-.070312.691406-.066407.222656-.136719 1-.417969 1.355469-.277344.355469-.058594.8125-.203125 1.136719-.144532.324218-.285156.746094-.332032 1.046875-.046874.296875-.109374.785156-.1875 1.132812-.074218.34375 0 .796875-.058593 1.140625-.054688.339844-.058594.8125-.003907 1.042969.058594.230469.007813.59375.136719.867187.128907.273438.226563.328126.296875.4375.066406.113282.378906.210938.707032.128907.324218-.082031.425781-.085938.582031-.207031.152343-.121094.234375-.367188.535156-.484376.296875-.113281.371094-.238281.523437-.4375.152344-.203124.714844-.410156.960938-.574218.246094-.164063.324219-.328125.75-.597656.425781-.269532.460938-.28125.8125-.59375s.457031-.546876.589844-.496094c.136718.046875.386718.066406.261718.382812-.125.320313-.246093.636719-.363281.910156-.117187.277344-.550781 1.554688-.585937 1.746094-.03125.191406-.199219.257813-.210938.464844-.007812.207031-.042968.152344-.039062.582031.007812.425781-.019532.558594-.070313 1.023438-.046875.460937-.234375.691406-.21875 1.160156.015625.464844-.046875 1.117187-.101562 1.378906-.058594.257813-.160157.34375-.222657.914063-.0625.570312-.214843.527344-.21875 1-.003906.46875-.097656 1.273437-.144531 1.5625-.046875.285156-.105469.757812-.121093.9375-.011719.179687-.042969.683594-.085938.914062-.039062.226563-.15625.472656-.125.664063.027344.191406.101562.253906-.144531.453125-.246094.199218-.394531.15625-.398438.535156-.003906.375.046875.582031-.144531.828125-.195312.246094-.824219.5625-.824219.5625l-.09375-.371094-.253906.636719s-.355469.328125-.539063.375c-.1875.046875-.347656-.050781-.429687.183594-.078125.238281-.023437.207031-.242187.28125-.21875.074218-.117188.167968-.359376.148437-.238281-.019531-.257812-.015625-.257812-.015625s.011719-.101562-.148438.039063c-.160156.140625-.226562-.042969-.417968.066406-.191406.105469-.054688.410156.046875.582031.101562.171875.835937.421875 1.003906.457032.167969.035156.226563.121093.570313.074218s.417968-.382812.335937-.003906c-.082031.375-.234375 1.105469-.292969 1.175781-.0625.070313-.078125.128907-.15625.347657s-.164062.363281-.285156.582031-.128906.355469-.265625.429687c-.132813.078125-.347656.234375-.453125.128906-.105469-.109374-.371094-.371093-.496094-.597656-.121094-.222656-.472656-.609375-.578125-.859375s-.460937-.945312-.507812-1.230469c-.050781-.285156-.269531-1.105468-.308594-1.261718s-.292969-1.523438-.25-1.839844c.046875-.3125-.21875-1.515625-.160156-1.855469.058593-.335937-.140625-1.824219-.066407-2.164062.074219-.339844-.015624-1.265625.109376-1.621094.125-.351563-.109376-.722656-.035157-1.089844.074219-.371093.074219-.792969.128907-1.113281.058593-.316406-.019532-.507812-.039063-.882812s.035156-.402344-.15625-.554688c-.1875-.148438-.40625-.230469-.601563-.347656-.1875-.113282-.394531-.417969-.394531-.417969m11.425781 7.988281s-.5625.285156-.730468.449219c-.164063.164063-.472656.304687-.644532.613281-.167968.308594-.269531.3125-.429687.722656-.164063.410157-.078125.738282-.0625 1.042969.011719.300781-.078125.429688.175781.957031.257813.527344.25.410157.449219.871094.195313.464844.441406.628906.621094.765625.175781.140625.195312.378907.640625.433594.445312.050781.558594.023437.921875-.007813.359375-.03125.1875.097657.785156-.054687s.84375-.234375 1.296875-.390625c.453125-.152344.472656-.386719.863281-.625.390625-.242188.402344-.367188.5625-.53125.164063-.164062.175781.121094.433594-.230469.261719-.355469.277344-.929687.441406-1.179687.164063-.242188.308594-.566406.40625-.816406.101563-.253907-.078125-.308594-.085937-.429688-.011719-.121094.140625-.425781.128906-.628906s-.226562-.167969-.152344-.511719c.078125-.351563.203125-.421875.171875-.699219-.027343-.28125-.101562-.816406-.050781-1.09375.054688-.28125.0625-.730468.007812-.945312-.050781-.214844.003907-.308594-.171874-.527344-.179688-.222656-.203126-.320312-.429688-.160156s-.71875.324218-1.011719.460937-.453125.238281-.832031.597657c-.378906.363281-.410156.328124-.589844.660156-.183594.332031-.453125.484375-.363281.851562.09375.363282.097656.300782.160156.632813s-.175781.4375-.007812.699219c.171875.261718.121093.316406.386719.640624.265624.320313.328124.410157.542968.683594.210938.273438.160156.324219.222656.558594.058594.230469.125.417969-.171874.617188-.300782.195312-.25.226562-.59375.332031s-.730469.347656-.609376.175781c.121094-.175781.203126-.398438.003907-.390625-.203125.011719-.445313.03125-.441407.210937.007813.183594-.019531.230469.011719-.207031s-.050781-.4375-.195312-.605469c-.144531-.167968-.320313-.226562-.523438-.460937-.203125-.238281-.386719-.230469-.535156-.746094-.152344-.515625-.175781-.527343-.292969-.910156-.117187-.382813-.308594-.824219-.308594-.824219m3.40625-3.53125s.238282-.285156.367188-.320312c.128906-.03125.300781-.054688.4375-.195313.140625-.140625.210938-.328125.304688-.441406.09375-.109375.152343.328125.363281.0625.210937-.257813.585937-.769531.65625-.960937.074219-.191407-.082031-.671876-.101563-.894532-.023437-.21875.023438-.371094-.070312-.816406-.09375-.441406-.28125-.707031-.328125-.886719-.042969-.179687-.210938-.433593-.210938-.433593l.128907.785156s-.277344-.46875-.304688-.863282c-.03125-.390624-.296875-.617187-.441406-.859374-.148438-.242188-.359375-.464844-.449219-.546876-.089844-.082031-.222656-.117187-.355469-.03125-.132812.085938-.347656.207032-.542968.324219-.195313.121094-.871094.601563-1.023438.746094-.15625.144531-.398438.273437-.699219.523437-.300781.246094-.417969.414063-.59375.601563-.179687.183594-.523437.40625-.691406.554687-.171875.148438-.507813.457032-.652344.648438-.140625.191406-.355469.109375-.417969.402344-.0625.292968-.191406.621094-.199218.867187-.003906.242188-.066406.550781-.117188.757813-.054687.203125-.050781.359375-.144531.746094-.089844.386718-.050781.757812-.136719 1.042968-.085937.28125-.179687.722656-.207031.953125-.03125.234375-.03125.371094.015625.480469s.230469.304688.253906.457031c.019532.152344.027344.113281.273438.121094.242187.011719.546875-.222656.632812-.367187.085938-.144532.222656-.367188.460938-.445313.238281-.078125.46875-.207031.492187-.382813.023438-.179687.167969-.21875-.027343-.515624-.195313-.296876-.382813-.769532-.492188-.863282s-.34375-.191406-.558594-.347656c-.210937-.15625-.332031-.089844-.269531-.382812.066406-.296876-.039063-.234376.296875-.335938.339844-.101562.644531-.128906.886719-.191406.246093-.0625.257812-.082032.371093-.179688.113282-.09375.144532-.121094.640626.117188.492187.242187.820312.382812.980468.605468.160156.21875.175782.492188.390625.648438.210938.152344.324219.054688.539063.019531.222656-.03125.542968-.203125.542968-.203125"/><path d="m155.074219 14.136719s-.117188.078125-.199219.242187c-.082031.160156-.238281.261719-.289062.453125-.046876.191407-.089844.335938-.144532.507813-.054687.175781-.101562.121094-.144531.382812-.039063.257813-.054687.285156.085937.425782.136719.136718.230469.109374.210938.234374s-.082031.277344-.035156.589844c.050781.3125.074218.40625.121094.734375.042968.328125.0625.628907.183593.613281.121094-.015624.164063-.078124.324219.035157.164062.117187.3125.035156.457031-.039063.144531-.070312.097657-.15625.296875-.121094.199219.035157.410156-.089843.539063-.199218.125-.109375.242187-.160156.351562-.261719s.257813-.300781.304688-.496094c.046875-.191406-.054688-.300781-.023438-.53125s-.039062-.375-.070312-.617187c-.027344-.242188-.085938-.425782-.160157-.636719-.074218-.210937-.160156-.359375-.332031-.53125-.175781-.167969-.21875-.253906-.339843-.398437-.117188-.148438-.640626-.300782-.765626-.351563-.125-.046875-.371093-.035156-.371093-.035156zm0 0"/><path d="m152.898438 27.449219s-.535157.34375-.628907.503906c-.089843.160156-.605469.511719-.738281.652344-.132812.144531-.71875.421875-.816406.601562-.101563.179688-.285156.328125-.285156.328125s-.132813-.03125-.273438.179688c-.136719.214844-.15625.207031-.304688.320312-.144531.109375-.207031.085938-.359374.269532-.148438.183593-.328126.136718-.296876.296874.03125.160157.078126.230469-.125.242188-.203124.015625-.105468-.164062-.363281.097656-.257812.265625-.234375.273438-.457031.328125-.222656.058594-.242188.050781-.402344.253907-.15625.207031-.261718.164062-.476562.324218-.214844.15625-.25.242188-.347656.421875-.101563.179688-.140626.214844-.339844.15625-.195313-.058593-.335938-.015625-.335938-.015625s-.144531-.132812-.015625-.328125c.132813-.195312.417969-1.0625.507813-1.273437.085937-.210938.398437-.84375.5625-1.171875.15625-.332031.304687-.738281.449218-.972657.148438-.238281.644532-1.019531.746094-1.199218.097656-.179688.277344-.726563.507813-.925782.230469-.199218.425781-.789062.597656-.910156.175781-.125.4375-.511718.515625-.652344.082031-.136718.246094-.375.433594-.6875.1875-.308593.449218-.664062.90625-.878906.453125-.21875.832031-.660156.988281-.847656.152344-.1875.453125-.679688.519531-.925781.0625-.242188.085938-.582031.046875-.808594-.042969-.230469-.117187-.746094-.230469-.886719-.113281-.144531-.203124-.203125-.285156.035156-.078125.238282-.125.257813-.351562.433594-.226563.175782-.828125.738282-1.09375.957032-.261719.21875-.410156.386718-.625.667968-.210938.277344-.304688.316406-.644532.679688-.34375.359375-.507812.660156-.65625.886718-.15625.226563-.472656.382813-.65625.695313-.1875.308594-.480468.550781-.480468.550781s-.765625 1.285156-.90625 1.523438c-.144532.242187-.621094.726562-.8125 1.179687-.1875.453125-.511719 1.089844-.644532 1.460938-.132812.371093-.574218 1.277343-.644531 1.5-.074219.226562-.347656.988281-.4375 1.3125-.09375.324219-.261719.832031-.171875 1.125.09375.296875.042969.871093.242188 1.058593.199218.191407.347656.445313.605468.550782.253907.105468 1.179688-.023438 1.511719-.3125.332031-.289063.824219-.660156 1.089844-.828125.257813-.167969.527344-.503907.644531-.628907.113282-.121093.128906-.261718.242188-.429687.109375-.167969.09375-.023437.234375-.308594.140625-.28125.035156-.347656.230469-.457031.195312-.113281.160156-.125.234374-.308594.074219-.179687-.050781-.234375.144532-.300781.199218-.066406.210937.0625.222656-.125.011719-.183594.242188-.324219.324219-.460937.078125-.140626.179687-.179688.230469-.355469.046874-.171875.023437-.265625.167968-.25.140625.019531.1875.058593.269532-.140625.085937-.199219.117187-.378906.367187-.574219s.652344-.648437.765625-.769531c.113281-.125.371094-.339844.453125-.429688.082031-.09375.445313-.429687.445313-.429687zm0 0"/><path d="m162.21875 15.25s-.289062-.203125-.355469.058594c-.066406.265625.125.300781-.167969.511718-.296874.210938-.582031.507813-.890624.839844-.300782.332032-.625.40625-.820313.78125-.195313.371094-.414063.699219-.578125 1.085938-.160156.390625-.378906.71875-.410156.992187-.03125.277344.105468.542969.308594.753907.207031.210937.546874.683593.769531.652343.222656-.03125.257812-.019531.621093-.199219.367188-.179687.523438-.160156.6875-.546874.160157-.390626.378907-.421876.578126-.796876.199218-.375.429687-.738281.769531-1.054687.339843-.316406.832031-.609375 1.480469-.964844.644531-.355469 1.488281-.585937 1.898437-.582031.414063.003906.597656-.042969.753906.1875.152344.230469.464844.277344.019531.546875-.445312.273437-.558593.351563-.769531.761719-.214843.410156-.320312.367187-.609375.660156-.289062.296875-.019531.449219-.375.507812-.355468.0625-.230468-.136718-.71875.035157-.488281.171875-.890625.542969-1.171875.71875s-.429687.238281-.808593.457031c-.382813.214844-.25.101562-.667969.304688-.414063.203124-.375.007812-.957031.308593-.582032.300781-.410157.289063-.78125.382813-.371094.09375-.292969.207031-.902344.371094-.609375.164062-.824219.488281-1.019532.453124-.191406-.039062-.375.007813-.796874.125-.421876.117188-.683594.046876-.691407.460938-.003906.414062.390625.660156.570313 1.027344.179687.363281.101562-.042969.394531.453125.289063.496093.371094.695312.582031.492187.210938-.203125.558594-.144531 1.03125-.28125.46875-.136718.539063-.398437.886719-.339844.347656.0625.132813.179688-.179687.425782-.308594.25-1.679688.855468-1.953126 1.070312-.273437.210938-.417968.433594-.832031.539063-.417969.105469-.742187.34375-.914062.644531s-.554688.328125-.148438.917969c.40625.585937.527344.40625.566407.652343.035156.25-.320313.101563-.769532.285157-.453125.1875-.601562.546875-1.222656.707031-.625.15625-.949219.488281-1.585938.785156-.632812.296875-1.167968.460938-1.382812.980469-.214844.515625-.140625.992187.308594 1.367187.453125.375.242187.332032.71875.53125.476562.199219.675781.078126 1.246094.035157.578124-.039063.492187.035156 1.171874-.148438.679688-.183593.953126-.164062.953126-.164062l-.691407 1.667969s-.234375.789062-.433593 1.265624c-.199219.476563-.332032 1.027344-.464844 1.34375-.132813.316407-.558594 1.054688-.660156 1.304688-.101563.246094-.132813.234375-.179688.433594-.046875.199218-.140625.160156-.210938.421875-.070312.257812-.105468.425781-.105468.425781s-.121094.164062-.257813.398438c-.132812.234374-.269531.253906-.328125.664062-.0625.410156-.339844.605469-.234375.792969.101563.1875-.050781.324219-.171875.710937-.125.382813-.492187 1.355469-.554687 1.511719-.066407.152344-.242188.664063-.230469.992187.007812.332032-.054688.304688.003906.511719.0625.207031-.070312.261719.125.304688.199219.046875.429688.105469.605469-.144531.179687-.253907.261719-.109376.480469-.457032.214844-.34375.304687-.378906.503906-.515625.199219-.132812.398438-.089843.484375-.378906.082031-.292969.1875-.542969.277344-.757813.089843-.214843.769531-1.859374.949219-2.292968.179687-.433594.625-1.589844.882812-2.210938s.6875-2.003906.890625-2.496094c.207031-.496093.574219-1.46875.75-1.722656.179687-.253906.570313-1.023437.570313-1.023437s.277343-.667969.441406-.8125c.167968-.144531.210937-.335938.804687-.304688.589844.027344.664063.027344 1.394531.148438.730469.128906.824219-.011719 1.296876.21875.472656.230469.402343.488281.734374.628906.335938.136719.78125.179687.976563.046875.199219-.132812.171875-.5.484375-.65625.316406-.152344.796875-.203125.660156-.472656-.136718-.269532-.078125-.066406-.265625-.46875-.191406-.398438-.292969-.582032-.6875-.746094s-.273437-.113281-.757812-.316406c-.488281-.199219-.671875-.351563-1.191407-.207032-.523437.140626-.765624.039063-.734374.226563.027343.191406.09375.113281-.226563.195313-.316406.082031-.582031.289062-.996094.261718-.414062-.027344-.761719-.136718-.761719-.136718s.460938-.59375.578126-.792969c.121093-.203125.203124-.488281.597656-.753907.394531-.261718.503906-.359374.984375-.40625.484375-.046874.78125.003907 1.105469-.257812.320312-.257812.175781-.171875.40625-.46875.230468-.296875.164062-.394531.125-.734375-.039063-.335937-.109376-.503906-.257813-.746094-.148437-.242187-.261719-.144531-.28125-.4375s-.003906-.929687.007813-1.210937c.007812-.28125-.214844-.941406-.214844-.941406l-.253906-.5s1.25-.085938 1.859374-.144532c.605469-.058594 1.035157-.1875 1.035157-.1875l-.242188.175782s.5.035156.90625-.035157c.40625-.070312.980469-.210937 1.296875-.148437s.800782.296875.800782.296875-.070313-.234375.328124-.375c.40625-.144531.449219-.089844.558594-.351563.109375-.265625.152344-.453125.238282-.65625.085937-.207031.308593-.25.039062-.429687-.265625-.179688-.066406-.167969-.328125-.445313-.261719-.28125-.59375-.144531-.71875-.335937-.128906-.1875-.222656-.125-.507813-.105469-.28125.019531-.117187.121094-.363281.054688-.246093-.070313-.328125-.035157-.621093.085937-.289063.121094-.421876.269531-.796876.355469-.378906.082031-.191406-.117188-.699218-.054688-.507813.066406-.503906.136719-.894532.25-.390624.109375-.546874.078125-.546874.078125s1.058593-.3125 1.394531-.550781c.339843-.238281.21875-.527344.625-.597656.40625-.074219.695312-.261719 1.027343-.402344.328126-.136719.886719-.484375 1.117188-.628906.230469-.144532.992188-.652344 1.296875-.972656.304687-.320313.246094-.34375.492187-.691407.242188-.34375.316407-.519531.464844-.871093.144532-.351563.035156-.5.054688-.796876.023437-.300781.015625-.199218-.097656-.589843-.109376-.390625-.097657-.589844-.507813-.757813-.410156-.171875-.492187-.378906-.839844-.210937-.339843.164062-.503906-.109375-.863281.019531-.359375.121094-.203125.15625-.554688.351562-.359374.195313-.792968.492188-1.441406.738282-.648437.246094-1.328125.71875-1.675781.8125-.347656.097656-.929687.265625-.929687.265625s.046874-.53125.015624-.785157c-.03125-.253906-.007812-.3125-.140624-.570312-.132813-.261719-.230469-.4375-.230469-.4375zm-8.175781 16.433594s.589843-.289063.785156-.347656c.199219-.058594.324219-.289063.511719-.320313.183594-.03125.257812-.019531.367187-.097656.113281-.078125.402344-.289063.550781-.351563.15625-.058594.367188-.160156.578126-.289062.210937-.132813.199218-.371094.46875-.417969.269531-.042969.429687-.273437.445312-.125.015625.144531-.039062.355469-.199219.589844-.15625.230469-.28125.523437-.375.640625-.097656.117187-.113281.078125-.28125.417968-.171875.332032-.210937.429688-.351562.429688-.144531.003906-.195313-.097656-.253907-.183594-.058593-.085937-.007812-.128906-.128906-.023437-.125.109375-.070312.019531-.304687.09375-.238281.074219-.285157.117187-.503907.226562-.21875.113281-.28125.039063-.484374.082031-.203126.039063-.03125.191407-.324219.023438-.289063-.167969-.5-.347656-.5-.347656m4.757812-4.527344-.367187-.117188s.398437-.21875.398437-.417968c-.003906-.199219.417969-.59375.332031-.660156-.089843-.070313-.355468.097656-.117187-.105469s.316406-.304688.503906-.457031c.183594-.15625.433594-.519532.492188-.488282l.117187.066406s-.367187.773438-.496094 1.085938c-.128906.308594-.25.515625-.523437.914062z"/><path d="m18.660156 166.898438 5.0625-2.273438.238282.527344c.207031.460937.007812.859375-.589844 1.203125-.238282.140625-.417969.25-.539063.324219-.730469.472656-1.210937.988281-1.441406 1.5625-.230469.574218-.203125 1.171874.078125 1.800781.277344.625.730469 1.019531 1.347656 1.195312.617188.179688 1.296875.101563 2.03125-.226562.585938-.265625 1.097656-.667969 1.523438-1.210938.425781-.539062.933594-1.519531 1.523437-2.941406.085938-.183594.203125-.460937.351563-.828125 1.199218-2.890625 2.457031-4.632812 3.773437-5.226562 1.210938-.542969 2.355469-.644532 3.421875-.308594 1.074219.339844 1.847656 1.042968 2.328125 2.113281.195313.4375.332031.90625.398438 1.394531.0625.496094.105469.757813.125.796875.042969.097657.136719.210938.265625.332031.136718.121094.214844.207032.238281.265626l.304687.671874-4.496093 2.023438-.3125-.699219c-.136719-.300781.011719-.589843.433593-.867187.265626-.171875.476563-.316406.628907-.433594.613281-.480469 1-.933594 1.171875-1.351562.167968-.421876.144531-.871094-.070313-1.351563-.203125-.457031-.523437-.75-.953125-.878906-.429687-.136719-.910156-.082031-1.429687.148437-.765625.34375-1.46875 1.320313-2.117188 2.921875-.105469.261719-.1875.460938-.246093.601563-.5 1.230468-.882813 2.132812-1.15625 2.714844-.265626.585937-.53125 1.109374-.796876 1.574218-.328124.535156-.722656 1.003906-1.195312 1.410156-.46875.40625-1.011719.75-1.628906 1.027344-1.417969.640625-2.757813.746094-4.015625.324219-1.257813-.421875-2.175781-1.273437-2.757813-2.570313-.195312-.433593-.332031-.910156-.40625-1.429687-.078125-.519531-.121094-.800781-.140625-.839844-.035156-.078125-.132812-.191406-.296875-.34375-.160156-.15625-.269531-.292969-.320312-.410156zm15.796875 7.972656 1.511719 2.402344 5.136719-3.234376c.175781-.109374.292969-.222656.359375-.335937.070312-.109375.121094-.253906.144531-.417969.003906-.023437.007813-.066406.011719-.125-.003906-.207031.09375-.367187.273437-.492187l.625-.394531 2.371094 3.761718-.625.394532c-.191406.113281-.378906.125-.5625.035156-.054687-.019532-.097656-.035156-.121094-.042969-.160156-.046875-.308593-.066406-.4375-.050781-.132812.011718-.285156.074218-.457031.179687l-.3125.195313-11.984375 7.546875c-.164063.105469-.28125.214843-.347656.335937-.074219.121094-.117188.277344-.128907.480469-.007812.019531-.007812.066406-.007812.136719.007812.246094-.082031.429687-.269531.546875l-.617188.386719-2.433593-3.871094.613281-.386719c.199219-.113281.398437-.132813.597656-.050781.042969.015625.082031.03125.125.046875.144531.046875.289063.066406.425781.046875.136719-.015625.289063-.074219.460938-.183594l.3125-.199219 5.421875-3.414062-1.511719-2.398438-5.734375 3.609375c-.171875.109375-.296875.21875-.371094.328125-.074219.117188-.125.261719-.144531.429688 0 .011719-.003906.046875-.011719.105469-.011719.246093-.109375.425781-.289062.539062l-.613281.386719-2.441407-3.878907.613281-.386718c.1875-.117188.382813-.128906.585938-.023438.074219.035156.132812.058594.171875.070313.195313.074219.363281.09375.511719.078125.148437-.019532.347656-.105469.589844-.257813l.140624-.089843 11.980469-7.546876c.175781-.105468.296875-.214843.363281-.324218.070313-.109375.121094-.25.144532-.414063.003906-.042969.003906-.09375.003906-.140625.011719-.207031.105469-.367187.285156-.480468l.625-.394532 2.359375 3.753906-.625.390626c-.179687.113281-.371093.121093-.566406.027343-.0625-.027343-.105469-.050781-.128906-.054687-.160157-.050782-.304688-.066406-.433594-.050782-.132813.015626-.28125.078126-.453125.191407l-.3125.195312zm2.789063 11.738281 1.660156 2.113281 4.671875-5.410156zm-1.511719.820313-1.75.925781c-.039063.019531-.089844.042969-.148437.082031-.289063.164062-.484376.28125-.574219.355469-.261719.203125-.40625.476562-.425781.816406-.03125.335937-.113282.5625-.261719.679687l-.570313.449219-2.097656-2.660156.574219-.449219c.179687-.144531.363281-.1875.550781-.144531.070312.019531.109375.03125.125.03125.238281.027344.519531-.007813.839844-.109375.324218-.105469.738281-.292969 1.25-.5625l12.289062-6.351562.4375-.554688c.007813-.019531.023438-.035156.039063-.054688.019531-.019531.042969-.046874.085937-.078124.160156-.125.460938-.03125.898438.28125l.039062.023437c.332032.234375.691406.441406 1.074219.636719.382813.191406.582031.296875.605469.324218.046875.058594.070312.125.070312.203126 0 .074218-.027344.144531-.085937.210937l-10.722657 12.746094c-.28125.332031-.476562.679687-.59375 1.042969-.113281.367187-.230468.601562-.34375.6875l-.570312.449218-2.757812-3.5.570312-.449218c.160156-.125.410156-.160157.746094-.109376.332031.058594.621094-.007812.851562-.191406.097656-.078125.207032-.171875.316406-.28125.105469-.105468.214844-.222656.320313-.351562l1.273437-1.488282zm13.734375 3.183593-8.128906 7.90625c-.148438.140625-.246094.273438-.292969.398438-.050781.128906-.066406.277343-.050781.453125 0 .011718.003906.046875.019531.109375.03125.238281-.03125.433593-.183594.582031l-.519531.503906-2.453125-2.519531.519531-.507813c.160156-.152343.347656-.203124.570313-.144531.078125.019531.140625.03125.179687.035157.207032.03125.375.019531.519532-.035157.144531-.046875.316406-.171875.523437-.375l.117187-.113281 10.152344-9.871094c.144532-.140625.242188-.273437.289063-.398437.042969-.121094.0625-.269531.054687-.433594-.003906-.042969-.011718-.089844-.019531-.136719-.039063-.203125.019531-.378906.175781-.527344l.527344-.515624 2.257812 2.320312-5.132812 10.953125 6.578125-6.398437c.144531-.140626.242187-.277344.285156-.402344.042969-.121094.0625-.277344.050781-.457032 0-.011718-.003906-.050781-.011718-.109374-.046875-.199219.011718-.375.164062-.539063l.53125-.515625 2.441406 2.511719-.527343.515625c-.15625.148437-.339844.1875-.558594.117187-.066406-.019531-.121094-.03125-.160156-.039062-.207031-.039063-.371094-.039063-.503907 0-.136718.042969-.292968.152343-.476562.332031l-.191406.183594-11.703125 11.378906-1.160157-1.195312zm6.691406 16.84375c.210938-.253906.339844-.472656.382813-.667969.046875-.195312.027343-.402343-.058594-.617187-.035156-.0625-.082031-.144531-.140625-.246094-.15625-.277343-.164062-.496093-.023438-.671875l.449219-.535156 3.050781 2.542969-3.453124 4.148437c-.222657.261719-.339844.527344-.363282.800782-.023437.273437-.054687.433593-.09375.476562l-.300781.363281c-.222656.269531-.785156.246094-1.6875-.066406-.902344-.308594-1.75-.792969-2.542969-1.457031-1.476562-1.226563-2.0625-2.777344-1.761718-4.660156.304687-1.882813 1.480468-4.054688 3.535156-6.519532 1.910156-2.296875 3.792968-3.808594 5.652344-4.539062 1.859374-.730469 3.40625-.574219 4.644531.453125.292969.246093.566406.585937.828125 1.015625.257812.429687.429687.679687.515625.753906.105469.085938.261719.160156.480469.21875.210937.066406.34375.117188.394531.164062l.496093.414063-3.273437 3.925781-.480469-.398437c-.273437-.226563-.273437-.621094.003906-1.191407.113282-.230468.199219-.414062.265626-.558593.339843-.75.507812-1.359375.496093-1.820313-.007812-.460937-.199219-.84375-.574219-1.15625-.625-.519531-1.398437-.472656-2.316406.132813-.917968.613281-2.414062 2.160156-4.480468 4.644531-1.875 2.246094-3.074219 3.960938-3.59375 5.128906-.519532 1.167969-.472657 2.011719.148437 2.527344.359375.300781.722656.371094 1.089844.214844.371093-.160156.921875-.675782 1.65625-1.558594zm9.671875 1.59375 2.359375 1.578125 3.375-5.046875c.113282-.171875.179688-.320312.195313-.449219.015625-.128906.003906-.28125-.042969-.441406-.003906-.023437-.019531-.0625-.039062-.121094-.082032-.1875-.0625-.371093.054687-.558593l.410156-.617188 3.691407 2.476563-.410157.613281c-.128906.179687-.292969.265625-.5.261719-.058593 0-.101562.003906-.125.007812-.164062.019532-.308593.066406-.421875.132813-.113281.058593-.230468.175781-.34375.347656l-.207031.308594-7.875 11.765625c-.109375.164062-.171875.308594-.183594.449218-.015625.140626.007813.300782.078125.488282 0 .023437.019532.066406.050782.128906.105468.222656.09375.425781-.027344.609375l-.40625.605469-3.796875-2.542969.402343-.605469c.136719-.183594.3125-.28125.53125-.289062.042969-.003906.085938-.003906.128907-.003906.152343-.019532.292969-.0625.40625-.136719.121093-.066407.234375-.183594.347656-.351563l.207031-.308594 3.5625-5.324218-2.359375-1.578125-3.765625 5.628906c-.113281.171875-.183594.320313-.203125.453125-.023437.136719-.007812.285156.042969.453125 0 .011719.011719.042969.027344.097656.089844.230469.074218.433594-.042969.613281l-.402344.601563-3.8125-2.550781.40625-.605469c.121094-.183594.296875-.269531.523438-.257813.082031.003907.144531.003907.1875-.003906.207031-.011718.371093-.066406.5-.140625.128906-.078125.273437-.238281.429687-.472656l.09375-.136719 7.878906-11.769531c.113282-.171875.179688-.320313.199219-.445313.019531-.132812.007813-.277343-.035156-.441406-.015625-.039062-.035156-.082031-.054687-.125-.074219-.191406-.054688-.378906.0625-.554687l.414062-.613281 3.679688 2.464843-.410157.613281c-.117187.175782-.289062.261719-.507812.253907-.066407-.003907-.113281-.003907-.136719.003906-.167969.019531-.308594.066406-.421875.132813-.109375.066406-.222656.183593-.335937.355468l-.207032.304688zm7.207031 9.15625 2.417969 1.171875 1.828125-6.910156zm-1.003906 1.398438-1.167968 1.597656c-.023438.035156-.054688.078125-.09375.136719-.191407.277344-.3125.46875-.363282.574218-.144531.296876-.152344.605469-.023437.921876.121093.316406.144531.558593.066406.726562l-.316406.652344-3.050781-1.472656.316406-.652344c.101562-.207032.246094-.328125.433594-.371094.074218-.015625.117187-.023438.125-.027344.226562-.078125.460937-.234375.710937-.46875.242187-.234375.535156-.585937.875-1.054687l8.261719-11.09375.148437-.691407c0-.019531.007813-.039062.015625-.066406.003906-.027344.019532-.058594.039063-.105468.089843-.183594.402343-.230469.933593-.144532l.039063.003906c.40625.066407.820313.097657 1.246094.101563.429687.003906.65625.011719.6875.027344.066406.03125.121093.082031.15625.152343.027343.066407.035156.144532.011719.226563l-4.046876 16.15625c-.105468.425781-.128906.820313-.074218 1.199219.054687.378906.050781.640625-.011719.769531l-.316406.652344-4.007813-1.9375.3125-.65625c.089844-.183594.296875-.324219.625-.421875.324219-.09375.550782-.28125.679688-.546875.054687-.113281.113281-.246094.160156-.390625.050781-.144532.097656-.296875.132812-.457032l.492188-1.894531zm11.085938 7.894531-.144532.339844c-.078124.191406-.117187.347656-.113281.484375.003907.136719.046875.28125.128907.433593.003906.011719.015624.035157.039062.074219.125.207031.140625.414063.054688.617188l-.277344.667969-4.207032-1.765626.285157-.667968c.082031-.207032.238281-.324219.464843-.355469.078126-.015625.136719-.023437.167969-.03125.207031-.058594.363281-.136719.476563-.238281.113281-.101563.226562-.285156.335937-.550782l.0625-.152343 5.488281-13.054688c.078126-.183593.117188-.34375.109376-.472656-.007813-.132813-.042969-.273437-.117188-.425781-.011719-.019532-.035156-.058594-.0625-.109375-.121094-.175781-.140625-.363281-.058594-.558594l.285156-.683594 4.0625 1.707031-.285156.683594c-.082031.195313-.226562.3125-.425781.355469-.046875.007813-.09375.019531-.136719.027344-.15625.054687-.289062.125-.386718.210937-.097657.085938-.183594.230469-.261719.410156l-.144531.34375zm10.867187 6.546875c-1.515625-.398437-2.492187-1.554687-2.925781-3.453125-.433594-1.902344-.261719-4.316406.507812-7.246094.777344-2.9375 1.824219-5.125 3.136719-6.558594 1.316407-1.4375 2.734375-1.953124 4.25-1.550781 1.5.394531 2.464844 1.539063 2.894531 3.4375.429688 1.894531.257813 4.3125-.519531 7.25-.773437 2.9375-1.820312 5.125-3.128906 6.558594-1.308594 1.4375-2.714844 1.957031-4.214844 1.5625m3.675781-7.289063.898438-3.40625c.660156-2.503906.980469-4.183593.949219-5.046874-.023438-.855469-.347657-1.367188-.960938-1.527344-.628906-.167969-1.175781.125-1.632812.871094-.453125.75-1.007813 2.359374-1.660157 4.832031l-.902343 3.40625c-.652344 2.480469-.96875 4.164062-.945313 5.042969.027344.886718.355469 1.414062.988282 1.578124.613281.164063 1.148437-.125 1.59375-.867187.449218-.742187 1.007812-2.367187 1.671874-4.882813m13.277344 5.324219-.054687.351563c-.253907 1.628906-.773438 2.820312-1.550781 3.574218-.78125.753907-1.789063 1.039063-3.011719.847657-1.558594-.242188-2.652344-1.28125-3.277344-3.113281-.625-1.839844-.710937-4.261719-.242187-7.273438.457031-2.960938 1.261718-5.238281 2.414062-6.824219 1.148438-1.585937 2.464844-2.265625 3.941406-2.035156.34375.054687.730469.195313 1.15625.429687.429688.234376.707032.359376.828125.378907.140625.023437.3125.003906.527344-.054688.210937-.054687.355469-.074219.421875-.066406l.617188.097656-.78125 5.054688-.617188-.09375c-.371094-.066407-.578125-.433594-.628906-1.101563-.015625-.226562-.035156-.40625-.046875-.539062-.09375-.929688-.246094-1.5625-.445313-1.890625-.207031-.328125-.523437-.527344-.960937-.59375-.671875-.101563-1.234375.375-1.6875 1.429687-.457031 1.054688-.894531 2.945313-1.320313 5.671875-.488281 3.167969-.671875 5.378907-.535156 6.628907.132812 1.25.585938 1.929687 1.355469 2.050781.632812.097656 1.144531-.105469 1.535156-.617188.394531-.511719.6875-1.359375.890625-2.535156zm1.644532 5.609375.050781-.722656c.011719-.222656.121093-.386719.324219-.492188.070312-.035156.125-.070312.15625-.089843.171874-.117188.289062-.238281.363281-.375.074219-.128907.121093-.335938.136719-.625l.011718-.164063.9375-14.132812c.015625-.203125-.003906-.367188-.050781-.484375-.050781-.121094-.132813-.246094-.25-.359375-.035156-.03125-.074219-.058594-.109375-.089844-.160156-.125-.234375-.296875-.222656-.511719l.046875-.738281 5.933593.394531c.59375.039063 1.074219.058594 1.445313.054688.371094-.007813.699219-.027344.980469-.070313l-.300782 4.574219-.574218-.039063c-.527344-.035156-.816406-.328124-.875-.875-.023438-.261718-.054688-.46875-.097656-.617187-.136719-.511719-.378907-.890625-.738282-1.136719s-.894531-.390625-1.605468-.4375l-.597657-.039062-.445312 6.675781.4375.027344c.320312.019531.570312-.023438.757812-.128907.183594-.105468.34375-.292968.472657-.558593.039062-.089844.085937-.210938.136718-.375.148438-.410157.359375-.613281.628906-.59375l.777344.050781-.339844 5.132812-.777343-.054687c-.269531-.015625-.449219-.242187-.542969-.671875-.027344-.164062-.058594-.292969-.085938-.386719-.082031-.273437-.21875-.472656-.398437-.613281-.175781-.132812-.421875-.210938-.730469-.230469l-.433594-.027343-.492187 7.421874.625.039063c.675781.042969 1.242187-.023437 1.703125-.203125.457031-.183594.804688-.480469 1.035156-.890625.15625-.308594.273438-.707031.34375-1.207031.101563-.570313.339844-.84375.722656-.820313l.835938.054688-.324219 4.917969zm13.765624-6.105468 2.6875-.058594-1.507812-6.984375zm-.253906 1.699218-.3125 1.953125c-.007812.046875-.019531.097657-.023437.167969-.046875.332031-.070313.558594-.066407.675781.007813.328125.140626.609375.398438.828125.253906.226563.382812.429688.386719.621094l.015625.722656-3.386719.074219-.015625-.726563c-.003906-.230468.070312-.40625.21875-.527343.058594-.042969.089844-.070313.097656-.078125.164063-.171875.304688-.417969.421875-.738282.109375-.320312.207031-.765624.300781-1.339843l2.324219-13.636719-.179687-.683594c-.007813-.015625-.015625-.039062-.019532-.0625-.003906-.027344-.007812-.0625-.011718-.113281-.003906-.203125.253906-.386719.765625-.550781l.039062-.015625c.390625-.125.773438-.285157 1.15625-.476563.382813-.191406.589844-.285156.625-.285156.074219-.003906.144531.019531.207031.0625.054688.046875.097657.113281.117188.199219l3.726562 16.234375c.09375.421875.253907.789062.476563 1.101562s.335937.542969.339844.6875l.011719.726563-4.453126.09375-.015624-.726563c-.003907-.203125.117187-.425781.359374-.660156.246094-.230469.367188-.5.359376-.796875 0-.125-.011719-.269531-.035157-.417969-.019531-.152344-.046875-.308594-.085937-.46875l-.421875-1.914062zm10.933594-9.015625 1.421875 11.257813c.027344.199218.074219.355468.144531.472656.070313.117188.179688.222656.328125.3125.007813.007812.042969.023438.097657.054688.210937.117187.328124.28125.355468.492187l.09375.722656-3.492187.4375-.089844-.71875c-.027344-.21875.046875-.402343.226563-.542969.0625-.050781.109374-.089843.136718-.121093.148438-.144531.242188-.289063.289063-.433594s.050781-.359375.015625-.644531l-.023438-.164063-1.773437-14.046875c-.023438-.199218-.074219-.359375-.140625-.46875-.074219-.109375-.175782-.214844-.316406-.304687-.035157-.023438-.078126-.042969-.121094-.066407-.183594-.09375-.292969-.246093-.316406-.457031l-.09375-.734375 3.214843-.40625 5.65625 10.691406-1.148437-9.105468c-.027344-.199219-.078125-.359375-.152344-.46875s-.1875-.214844-.335938-.316406c-.011718-.007813-.042968-.027344-.09375-.054688-.1875-.085938-.292968-.238281-.328124-.457031l-.09375-.734375 3.472656-.4375.09375.730468c.027344.210938-.054688.382813-.242188.519532-.054687.039062-.097656.078125-.125.105468-.15625.140626-.253906.273438-.304687.402344-.046875.132813-.054688.324219-.023438.578125l.035157.261719 2.042968 16.199219-1.652344.207031zm18.933594-6.824219-.097656-.355468c-.054688-.195313-.121094-.347656-.207032-.445313-.085937-.097656-.203125-.183593-.355468-.257812-.019532-.011719-.058594-.027344-.117188-.050781-.203125-.066407-.332031-.199219-.386719-.40625l-.195312-.710938 3.222656-.875.191406.710938c.058594.207031.011719.390624-.136719.550781-.035156.039062-.066406.074219-.09375.105469-.085937.128906-.140624.257812-.160156.375-.019531.121093-.007812.277343.046875.464843l.109375.402344 2.699219 9.9375c.394531 1.453125.613281 2.476563.664063 3.070313.046874.59375-.003907 1.117187-.15625 1.574218-.21875.652344-.585938 1.203125-1.101563 1.640625-.523437.441407-1.191406.773438-2.019531.996094-1.476563.402344-2.640625.277344-3.492188-.371094-.859375-.65625-1.554687-1.972656-2.09375-3.949219l-2.980468-10.976562c-.054688-.195312-.121094-.347656-.207032-.445312-.085937-.097657-.203125-.1875-.355468-.257813-.027344-.011719-.074219-.023437-.128907-.046875-.191406-.058594-.320312-.195312-.375-.410156l-.195312-.710938 4.277343-1.164062.195313.710937c.054687.207031.011719.390625-.140625.550781-.046875.050782-.078125.082032-.082031.09375-.09375.136719-.152344.269532-.175781.390626-.027344.121093-.011719.273437.039062.464843l.109375.402344 3.058594 11.246094c.316406 1.171875.664062 1.921875 1.039062 2.257812.378907.332031.894531.410157 1.558594.230469.695313-.191406 1.121094-.570312 1.273437-1.144531.152344-.574219.054688-1.488281-.285156-2.742188zm6.71875.828126 4.648437 10.34375c.085938.1875.175781.324218.277344.410156.101563.09375.238281.160156.40625.207031.011719.003906.046875.011719.109375.023437.234375.050782.398438.171876.484375.367188l.296875.660156-3.207031 1.441406-.296875-.660156c-.089844-.203125-.074219-.398437.058594-.585937.042968-.070313.078124-.121094.09375-.15625.101562-.183594.144531-.347657.148437-.5.003906-.148438-.054687-.355469-.171875-.617188l-.070312-.152343-5.804688-12.914063c-.082031-.183594-.175781-.324219-.273438-.40625-.097656-.085937-.230468-.15625-.390624-.203125-.042969-.007812-.089844-.015625-.136719-.023438-.203125-.039062-.347657-.152343-.4375-.347656l-.300781-.671875 2.953124-1.328125 8.535157 8.570313-3.761719-8.371094c-.082031-.183594-.179688-.320313-.28125-.402344-.101562-.085937-.242188-.15625-.410156-.207031-.015625-.003906-.050782-.011719-.109375-.023438-.203125-.027343-.351563-.140624-.449219-.339843l-.304688-.675781 3.195313-1.4375.304687.675781c.085938.195312.0625.382812-.082031.5625-.039062.058593-.070312.105469-.089843.140625-.109376.179687-.164063.335937-.171876.476562-.007812.140625.039063.324219.144532.554688l.109375.242187 6.691406 14.890625-1.523437.683594zm17.464844 3.746093.179687.324219c.101563.175781.203125.304688.308594.386719.109375.082031.253906.136719.421875.164062.011718.003907.039062.007813.082031.011719.242187.03125.414063.144531.523437.339844l.355469.632812-3.980469 2.222656-.355468-.632812c-.105469-.191406-.105469-.386719.007812-.585938.039063-.070312.066406-.121093.082032-.148437.078124-.199219.113281-.375.101562-.527344-.007812-.152343-.085938-.347656-.226562-.601562l-.078126-.140625-6.910156-12.363282c-.097656-.171874-.203125-.304687-.304687-.378906-.109375-.074218-.246094-.132812-.40625-.164062-.023438-.007813-.070313-.011719-.128907-.019532-.210937-.015624-.371093-.117187-.476562-.300781l-.359375-.644531 3.84375-2.152344.363281.644532c.101563.1875.105469.375.015625.558593-.019531.042969-.042969.085938-.058593.125-.058594.15625-.082032.300781-.074219.429688.007812.132812.066406.289062.164062.464843l.179688.320313zm8.953124-2.023437-11.863281-12.195313c-.042969-.039062-.097656-.097656-.152343-.171875-.242188-.300781-.570313-.472656-.992188-.519531-.03125 0-.0625-.003906-.09375-.003906-.234375-.003907-.40625-.097657-.523438-.285157l-.394531-.625 3.941407-2.484374.394531.625c.070312.113281.050781.328124-.066407.644531-.117187.3125-.125.550781-.027343.707031.105469.167969.230469.34375.382812.527344.152344.183594.335938.390625.542969.609375l6.324219 6.863281-3.535157-8.605469c-.054687-.125-.125-.296875-.210937-.515625-.152344-.386718-.257813-.628906-.324219-.730468-.144531-.226563-.390625-.363282-.730468-.398438-.34375-.035156-.546876-.101562-.609376-.203125l-.394531-.621094 3.179688-2.003906.394531.625c.105469.167969.113281.34375.035156.539063-.027344.0625-.046875.117187-.0625.15625-.082031.222656-.117187.417968-.113281.601562.007813.175781.070313.425781.199219.757812l5.984375 15.898438zm6.164063-4.8125-.441406-.578125c-.132813-.175781-.15625-.367188-.074219-.582031.027344-.074219.050781-.132813.058594-.171876.054687-.203124.0625-.371093.03125-.519531-.03125-.148437-.132813-.332031-.308594-.5625l-.097656-.132812-8.5625-11.28125c-.125-.160157-.242188-.273438-.359375-.332031-.117188-.058594-.261719-.097657-.425781-.109376-.042969.003907-.089844.003907-.136719.007813-.207031.007813-.378907-.070313-.503907-.242187l-.445312-.585938 4.734375-3.597656c.472656-.359375.847656-.660156 1.125-.910156.277344-.246094.507813-.476563.695313-.695313l2.769531 3.652344-.457031.347656c-.417969.320313-.828126.285156-1.234376-.089844-.1875-.183593-.351562-.316406-.476562-.398437-.441406-.300782-.875-.425782-1.304688-.375-.433593.050781-.929687.292968-1.5.722656l-.476562.363281 4.042969 5.324219.347656-.261719c.253906-.191406.414063-.390625.488281-.589843.070313-.203126.070313-.449219-.007812-.730469-.03125-.09375-.074219-.21875-.144532-.375-.15625-.410157-.128906-.699219.085938-.859375l.617188-.46875 3.109374 4.09375-.621093.472656c-.214844.160156-.5.109375-.851563-.152344-.128906-.109375-.238281-.183594-.320312-.234375-.242188-.152343-.472656-.214843-.699219-.203125-.222656.015625-.457031.117188-.707031.304688l-.34375.265625 4.496094 5.921875.5-.378906c.539062-.410157.921874-.832032 1.152343-1.269532.222657-.441406.292969-.890625.195313-1.351562-.085938-.335938-.257813-.710938-.527344-1.136719-.304688-.5-.300781-.859375.003906-1.09375l.667969-.507813 2.980469 3.925782zm-1.808594-23.152344c.921875-.863281 1.632813-1.472656 2.132813-1.828125.5-.351563.992187-.621094 1.472656-.800781.855469-.320313 1.6875-.375 2.488281-.183594.800781.199219 1.527344.644531 2.183594 1.34375.902344.960938 1.359375 1.941406 1.378906 2.949219.011719 1.015625-.40625 2.089843-1.265625 3.234375.765625-.425782 1.496094-.597656 2.179688-.527344s1.542968.433594 2.585937 1.101562l2.847657 1.863282c.328124.207031.589843.355468.792968.449218.203125.089844.375.128907.515625.121094.035157.003906.097657-.007812.183594-.03125.265625-.0625.457031-.03125.582031.097656l.53125.570313-2.355468 2.210937-5.644532-3.609374c-.085937-.050782-.191406-.117188-.320312-.203126-1.140625-.734374-2.054688-.824218-2.738282-.277343l4.621094 4.917969c.140625.148437.273438.242187.402344.285156.132812.035156.308594.046875.53125.023437.03125-.003906.085938-.015625.167969-.03125.246093-.046875.4375.007813.578125.15625l.496094.527344-3.472657 3.261719-.496093-.53125c-.152344-.160156-.199219-.347656-.136719-.566406.019531-.082032.035156-.140626.039062-.179688.035157-.207031.019531-.378906-.023437-.523438-.046875-.140624-.167969-.320312-.363282-.527343l-.117187-.121094-9.691406-10.320313c-.140625-.148437-.269531-.25-.390625-.296874-.121094-.046876-.269532-.070313-.433594-.0625-.042969.007812-.089844.011718-.136719.023437-.203125.027344-.378906-.03125-.527343-.1875l-.507813-.539063zm1.851563.410156 4.644531 4.945313.203125-.195313c.644531-.601562.933594-1.261718.863281-1.972656-.066406-.710938-.492187-1.476562-1.269531-2.308594-.859375-.914062-1.605469-1.417968-2.242188-1.507812-.632812-.089844-1.304687.195312-2.015624.863281zm18.269531 6.011719-4.386719-3.402344.355469-.457031c.3125-.398438.757813-.414062 1.339844-.046875.234375.144531.414062.25.542969.324219.753906.421875 1.4375.605468 2.050781.539062.617187-.066406 1.136719-.371094 1.554687-.914062.417969-.539063.558594-1.125.421875-1.75-.128906-.628906-.519531-1.195313-1.152343-1.6875-.507813-.394532-1.105469-.652344-1.785157-.777344-.675781-.125-1.78125-.113281-3.308593.035156-.207032.011719-.503907.039063-.898438.078125-3.117188.300781-5.246094.007813-6.382812-.875-1.050782-.816406-1.683594-1.777343-1.882813-2.878906-.207031-1.105469.054687-2.121094.769531-3.042969.296875-.382812.648438-.71875 1.046875-1.011718.40625-.289063.621094-.449219.644531-.484376.066407-.085937.121094-.21875.167969-.390624.042969-.175782.085938-.285157.125-.335938l.453125-.585938 3.890625 3.023438-.46875.605469c-.199219.257812-.527343.269531-.96875.023437-.277343-.15625-.503906-.273437-.679687-.351562-.710938-.316406-1.292969-.445313-1.742188-.398438-.449218.046875-.835937.277344-1.160156.695313-.308594.394531-.417969.8125-.328125 1.253906.082031.445313.351563.84375.800781 1.191406.664063.515625 1.855469.679688 3.574219.5.28125-.03125.496094-.050781.648437-.0625 1.316407-.140625 2.296876-.226562 2.9375-.257812.640626-.039063 1.226563-.050781 1.761719-.03125.628907.035156 1.230469.164062 1.808594.386719.578125.226562 1.136719.542968 1.675781.957031 1.226563.957031 1.949219 2.085937 2.167969 3.394531.222656 1.308594-.101563 2.523438-.972656 3.644531-.292969.375-.652344.71875-1.074219 1.027344-.421875.3125-.644531.480469-.671875.515625-.054687.070312-.109375.210938-.167969.425781-.058594.214844-.128906.378907-.207031.476563zm7.082031-13.613281.304688.207031c.167968.117187.3125.1875.449218.210937.132813.027344.285157.011719.449219-.035156.015625 0 .039063-.007812.082031-.023437.226563-.078125.433594-.050781.613282.074219l.597656.414062-2.601562 3.742188-.597657-.410157c-.179687-.128906-.265625-.304687-.25-.53125.003907-.082031.007813-.140625.007813-.171875-.015625-.214844-.0625-.382812-.136719-.519531-.074219-.128906-.230469-.273437-.46875-.4375l-.136719-.09375-11.625-8.082031c-.164062-.113282-.316406-.1875-.445312-.207032-.128906-.019531-.277344-.011718-.4375.027344-.023438.007813-.066406.019532-.121094.039063-.195312.078125-.386719.058593-.5625-.0625l-.605469-.421875 2.515625-3.617188.605469.421875c.175781.121094.261719.285157.261719.492188 0 .046875-.003906.09375 0 .136719.015625.167968.0625.308593.125.421874.066406.113282.183594.230469.351562.34375l.300782.210938z"/><path d="m212.148438 166.835938c.132812-.234376.265624-.503907.394531-.808594.128906-.304688.253906-.636719.371093-.996094l3.957032 2.261719-.371094.65625c-.152344.261719-.476562.308593-.964844.136719-.21875-.078126-.394531-.132813-.519531-.167969-.574219-.160157-1.019531-.199219-1.351563-.109375-.324218.082031-.585937.296875-.785156.644531l-.273437.476563 13.195312 7.554687c.191407.109375.351563.160156.488281.164063.132813-.007813.296876-.050782.496094-.148438.027344-.007812.070313-.035156.132813-.070312.234375-.140626.441406-.15625.628906-.050782l.628906.363282-2.4375 4.257812-.632812-.359375c-.183594-.109375-.273438-.296875-.273438-.570313.003907-.078124.003907-.140624-.003906-.179687-.015625-.203125-.058594-.367187-.125-.484375-.066406-.113281-.191406-.226562-.382813-.335938l-.300781-.171874-12.894531-7.382813-.273438.472656c-.199218.355469-.257812.695313-.164062 1.015625.09375.328125.351562.699219.78125 1.109375.09375.082031.222656.199219.390625.339844.40625.351563.539063.660156.390625.914063l-.375.652343-3.957031-2.265625c.253906-.285156.476562-.558594.671875-.820312.191406-.257813.355468-.511719.496094-.753906zm13.382812-2.667969 4.941406 2.179687c.234375.105469.417969.152344.558594.144532.136719-.011719.296875-.066407.480469-.171876.027343-.015624.074219-.046874.144531-.09375.183594-.128906.378906-.148437.582031-.058593l.664063.292969-1.898438 4.308593-.664062-.292969c-.203125-.089843-.320313-.242187-.347656-.46875-.011719-.082031-.023438-.144531-.035157-.183593-.046875-.203125-.125-.355469-.226562-.46875-.097657-.113281-.277344-.226563-.542969-.34375l-.148438-.066407-5.128906-2.261718-8.523437-.960938c-.058594-.007812-.144531-.023437-.246094-.039062-.453125-.070313-.816406-.035156-1.089844.105468-.035156.011719-.082031.035157-.136719.0625-.175781.097657-.355468.109376-.53125.03125l-.675781-.300781 1.878907-4.265625.675781.296875c.125.054688.226562.246094.3125.578125.082031.328125.210937.53125.390625.609375.144531.066407.3125.121094.496094.160157.179687.042968.445312.089843.796874.132812l5.347657.675781-4.023438-3.683593c-.175781-.167969-.347656-.3125-.519531-.445313-.171875-.125-.332031-.21875-.472656-.28125-.230469-.101563-.496094-.074219-.804688.082031-.308594.164063-.523437.21875-.640625.167969l-.675781-.296875 1.464844-3.320312.675781.296874c.136719.0625.285156.289063.4375.675782.15625.390625.402344.738281.738281 1.039062z"/><path d="m125.855469 45.292969c35.777343 0 65.90625 24.925781 73.941406 58.296875-.820313-.109375-1.636719-.179688-2.4375-.214844-8.0625-31.972656-37.089844-55.757812-71.503906-55.757812-38.964844 0-71.027344 30.484374-73.574219 68.824218-.804688.109375-1.589844.238282-2.351562.371094 2.363281-39.792969 35.554687-71.519531 75.925781-71.519531zm0 0"/></g></g></svg>