<svg height="317.63636" viewBox="0 0 252 254" width="314.825419" xmlns="http://www.w3.org/2000/svg"><g fill-rule="evenodd"><path d="m224.914062 58.863281c13.714844 19.535157 21.761719 43.308594 21.761719 68.914063 0 66.339844-54.152343 120.460937-120.527343 120.460937s-120.527344-54.121093-120.527344-120.460937c0-25.582032 8.070312-49.355469 21.765625-68.914063-9.242188 16.386719-14.546875 35.285157-14.546875 55.378907 0 62.359374 50.894531 113.226562 113.289062 113.226562 62.390625 0 113.285156-50.867188 113.285156-113.226562.042969-20.09375-5.238281-38.972657-14.5-55.378907" fill="#2e634f"/><path d="m126.789062 5.972656c59.75 0 108.472657 48.695313 108.472657 108.417969 0 25.199219-8.6875 48.441406-23.210938 66.890625 10.050781-15.769531 15.886719-34.457031 15.886719-54.484375 0-56.039063-45.71875-101.734375-101.765625-101.734375-56.070313 0-101.789063 45.695312-101.789063 101.734375 0 16.410156 3.917969 31.925781 10.882813 45.675781-10.734375-16.816406-16.972656-36.757812-16.972656-58.082031.019531-59.699219 48.742187-108.417969 108.496093-108.417969" fill="#2e634f"/><path d="m219.675781 199.289062-3.515625-2.765624-7.28125-.578126 1.042969-1.339843 3.789063.339843c.703124.066407 1.386718.148438 2.066406.277344-.234375-.59375-.488282-1.277344-.746094-2.0625l-1.167969-3.535156 1-1.277344 2.148438 7.066406 3.515625 2.769532m-7.324219 8.832031-6.773437-6.386719-2.386719 2.53125-.914063-.847656 5.726563-6.089844.894531.851563-2.382812 2.535156 6.769531 6.363281zm-4.664063 4.660156-7.285156-7.621093 1.003906-.957032 7.28125 7.621094zm-9.988281 4.554688.894531-.957031c.402344.359374.789063.574218 1.191407.679687.40625.105469.832031.0625 1.34375-.085937.507812-.148438.957031-.445313 1.425781-.851563.402344-.359375.703125-.722656.894531-1.105469.191407-.382812.277344-.746094.253907-1.085937-.042969-.339844-.167969-.636719-.382813-.871094-.210937-.257813-.488281-.40625-.789063-.449219-.296874-.0625-.679687 0-1.125.171875-.277343.105469-.875.382813-1.75.871094-.871093.46875-1.53125.765625-1.957031.851563-.554687.148437-1.042969.148437-1.492187.023437-.445313-.128906-.828125-.382813-1.148438-.746094-.339844-.40625-.574218-.871093-.660156-1.40625-.085938-.550781.019531-1.105469.277344-1.660156.277344-.574219.679687-1.085937 1.214844-1.550781.574218-.511719 1.167968-.894532 1.789062-1.085938.617188-.214844 1.191406-.234375 1.765625-.085937.554687.148437 1.066406.445312 1.492187.894531l-.9375.957031c-.492187-.445312-1.023437-.660156-1.554687-.636719-.535156.019532-1.109375.296876-1.703125.828126-.640625.554687-.980469 1.085937-1.066406 1.574218-.085938.492188.023437.894532.320312 1.214844.253906.277344.554688.425781.9375.425781.359375 0 1.042969-.277343 2.0625-.832031 1.023438-.550781 1.75-.914062 2.195313-1.042969.640625-.191406 1.234375-.234375 1.726562-.105469.507813.128907.933594.40625 1.320313.832032.382812.421875.59375.914062.699218 1.507812.085938.574219 0 1.171875-.253906 1.789063-.277344.597656-.679687 1.148437-1.234375 1.660156-.726562.636719-1.40625 1.0625-2.066406 1.277344-.660156.210937-1.320313.253906-1.980469.085937-.660156-.234375-1.234375-.574218-1.703125-1.085937m-8.367187 3 2.40625-1.789063c.507812-.382812.871094-.722656 1.085937-1.042968.210938-.316407.296875-.65625.273438-1-.019531-.339844-.125-.660157-.339844-.914063-.296875-.402344-.679687-.617187-1.171875-.660156-.488281-.042969-1.042969.171875-1.660156.640625l-2.683594 2zm2.40625 5.554687-6.304688-8.449218 3.746094-2.789063c.746094-.550781 1.386719-.914063 1.898438-1.042969.507812-.125 1.019531-.105468 1.53125.109375.511718.210938.957031.550781 1.300781 1.019531.445312.597657.636719 1.257813.550781 1.957032-.082031.703125-.488281 1.40625-1.210938 2.128906.402344-.085938.722657-.105469.976563-.085938.554687.066407 1.152344.191407 1.769531.425782l3.195313 1.214844-1.40625 1.042968-2.429688-.914062c-.703125-.257813-1.253906-.449219-1.679687-.554688-.40625-.105468-.746094-.171875-.980469-.148437-.257813.019531-.46875.0625-.683594.148437-.148437.0625-.359375.210938-.660156.425782l-1.296875.957031 2.808594 3.746093zm-8.371094 5.066406-5.386719-9.066406 6.558594-3.894531.640625 1.0625-5.367188 3.171875 1.640626 2.765625 5.023437-2.976563.640625 1.0625-5.027344 2.980469 1.832032 3.085938 5.558593-3.300781.636719 1.066406zm-6.003906 3.171876-8.261719-7.726563 1.363281-.660156 5.789063 5.703125c.46875.449218.875.894531 1.257812 1.320312-.105469-.597656-.171875-1.191406-.234375-1.808594l-.746094-8.128906 1.277344-.617187.851563 11.277343zm-6.261719 2.765624-4.238281-9.664062 1.277344-.550781 4.238281 9.660156zm-10.347656 3.726563-3.214844-10.046875 1.359375-.425781 7.796875 6.191406-2.515625-7.875 1.28125-.402344 3.214844 10.046875-1.363282.425782-7.792968-6.214844 2.511718 7.894531zm-5.835938-9.089844 1.363281-.296875 1.339844 5.9375c.234375 1.019532.300782 1.871094.214844 2.53125-.105469.660156-.40625 1.257813-.9375 1.765625-.53125.511719-1.277344.894531-2.277344 1.109375-.960937.210938-1.789062.234375-2.472656.042969-.679688-.191406-1.234375-.574219-1.636719-1.152344-.40625-.574219-.726562-1.402343-.980469-2.488281l-1.34375-5.9375 1.363282-.296875 1.34375 5.9375c.191406.894531.425781 1.53125.703125 1.914063.253906.382812.617187.660156 1.085937.789062.445313.148438.976563.148438 1.554688.019531 1-.234375 1.660156-.617187 1.980468-1.171875.316407-.550781.339844-1.46875.042969-2.765625zm-16.054687 13.535157-1.234375-10.46875 1.382812-.171876 1.085938 9.238282 5.152343-.597656.148438 1.234374zm-7.988282-3.722657 3.578126-.105469-1.191407-2.894531c-.363281-.875-.640625-1.597656-.808593-2.171875-.105469.679688-.277344 1.359375-.511719 2.019532zm-2.914062 4.40625 3.746094-10.664062 1.511718-.042969 4.621094 10.40625-1.597656.042969-1.320312-3.148438-4.40625.128907-1.066407 3.210937zm-11.179688-.257812.425782-10.535157 2.105468.085938 2.195313 7.554688c.210937.703124.339844 1.234374.445313 1.574218.128906-.382812.34375-.933594.640624-1.660156l2.808594-7.214844 1.875.085938-.425781 10.535156-1.339844-.0625.359375-8.8125-3.40625 8.683594-1.257812-.042969-2.679688-9.085937-.363281 8.960937zm-8.222656-6.832031 2.960938.425781c.640625.085937 1.128906.105469 1.511718.023437.382813-.085937.683594-.257812.894532-.511718.234375-.253907.363281-.554688.40625-.894532.0625-.488281-.042969-.914062-.363282-1.296875-.320312-.363281-.851562-.617187-1.640624-.726562l-3.300782-.488281zm-2.214844 5.621093 1.535157-10.429687 4.621093.679687c.9375.128907 1.617188.339844 2.085938.597657.449219.253906.789062.636718 1.023438 1.167968.210937.511719.277343 1.066406.191406 1.640625-.105469.746094-.449219 1.320313-.980469 1.765625-.554687.449219-1.339844.660156-2.363281.640625.339844.234375.597656.445313.765625.636719.339843.425781.660156.957031.9375 1.554688l1.40625 3.105468-1.746094-.253906-1.066406-2.382812c-.316407-.683594-.574219-1.214844-.785157-1.574219-.214843-.363281-.40625-.640625-.597656-.808594-.191406-.171875-.382812-.277344-.597656-.363281-.148438-.0625-.402344-.105469-.765625-.171875l-1.597656-.234375-.679688 4.640625zm-9.070312-7.171875c-.296875 1.234375-.191406 2.296875.296875 3.148438.511719.871094 1.257813 1.425781 2.257813 1.660156 1.023437.234375 1.960937.085938 2.769531-.488281.832031-.554688 1.40625-1.511719 1.726562-2.832031.191407-.832032.230469-1.597657.082031-2.277344-.125-.703125-.425781-1.277344-.894531-1.746094s-1.042969-.785156-1.703125-.9375c-.957031-.234375-1.871094-.082031-2.726562.40625-.851563.511719-1.445313 1.53125-1.808594 3.066406m-1.40625-.34375c.40625-1.703125 1.171875-2.9375 2.324219-3.679687 1.148437-.746094 2.425781-.957031 3.894531-.597657.9375.214844 1.746094.660157 2.40625 1.277344.660156.640625 1.085938 1.40625 1.300781 2.300782.210938.890624.191407 1.871093-.042969 2.894531-.257812 1.042969-.683593 1.914062-1.300781 2.636719-.617187.722656-1.363281 1.214843-2.234375 1.449218-.875.234375-1.746094.253906-2.640625.042969-.957031-.234375-1.769531-.660156-2.429687-1.320313-.660156-.640624-1.085938-1.425781-1.277344-2.320312-.210938-.875-.210938-1.789062 0-2.683594m-10.902344 1.917969 3.324219-10.003906 1.359375.445312 2.664062 9.601563 2.597657-7.855469 1.277343.425781-3.300781 10.003906-1.363281-.449218-2.660156-9.597656-2.597656 7.855468zm-13.648437-5.640625 4.171875-9.683594 1.320312.574219 1.8125 9.789063 3.277344-7.597657 1.234375.53125-4.171875 9.683594-1.320312-.574219-1.808594-9.789062-3.28125 7.597656zm-4.726563-7.875 3.148438 1.703125.40625-3.085937c.128906-.9375.253906-1.703126.382812-2.277344-.445312.53125-.914062 1.042968-1.449218 1.511718zm-4.75 2.382812 8.558594-7.363281 1.320312.722657-1.191406 11.324218-1.40625-.746094.425782-3.40625-3.875-2.085937-2.535157 2.257813zm3.746094-10.472656 1.171875.769532-3.34375 5.085937c-.574219.894531-1.148437 1.511719-1.679687 1.914063-.554688.382812-1.195313.574218-1.917969.554687-.746094-.023437-1.53125-.296875-2.382813-.851563-.832031-.53125-1.40625-1.128906-1.75-1.765624-.339844-.617188-.445312-1.277344-.316406-1.980469.125-.679688.511719-1.488281 1.105469-2.425781l3.34375-5.085938 1.171875.765625-3.34375 5.085937c-.511719.765626-.808594 1.382813-.894532 1.832032-.085937.445312-.042968.890625.191407 1.316406.214843.425781.574219.808594 1.085937 1.128906.851563.554688 1.597656.765625 2.214844.617188.617188-.148438 1.300781-.765625 2.023438-1.871094zm-19.675781-1.828125 6.6875-8.152343 1.085937.894531-2.746094 3.339843 4.238282 3.46875 2.746094-3.339843 1.085937.894531-6.6875 8.152344-1.085937-.894532 3.152343-3.851562-4.238281-3.46875-3.152344 3.828125zm.382812-4.917969.746094 1.234376c-1 .617187-2 .875-2.960937.765624-.957032-.105468-1.828126-.53125-2.617188-1.296874-.808594-.789063-1.320312-1.597657-1.492188-2.425782-.191406-.832031-.105468-1.679687.234376-2.574218.34375-.894532.875-1.683594 1.578124-2.40625.765626-.789063 1.574219-1.320313 2.449219-1.617188.871094-.296875 1.722657-.320312 2.574219-.085938.851562.234376 1.621094.679688 2.28125 1.339844.742188.746094 1.210938 1.554688 1.339844 2.429688.148437.890625-.019532 1.765625-.511719 2.660156l-1.214844-.726562c.363281-.722657.492188-1.359376.40625-1.933594-.085937-.578125-.382812-1.109375-.894531-1.597656-.574219-.554688-1.191406-.894532-1.851562-1-.660157-.105469-1.300782 0-1.917969.320312-.617188.316406-1.171875.722656-1.640625 1.210938-.636719.640624-1.085938 1.296874-1.359375 1.957031-.277344.660156-.34375 1.300781-.171875 1.917969.171875.617187.46875 1.148437.9375 1.59375.550781.554687 1.191406.851562 1.894531.894531.703125.066406 1.425781-.148438 2.191406-.660157m-10.410156-5.574218 8.003906-6.875.917969 1.0625-8.007812 6.875zm-3.898437-10.300782.894531.976563c-.382813.363281-.640625.746094-.765625 1.128906-.128906.382813-.128906.832031 0 1.339844.125.511719.382812 1 .746094 1.46875.316406.425781.679687.746094 1.042968.980469.382813.210937.722656.339844 1.0625.320312.339844-.023437.640625-.109375.894532-.320312.257812-.214844.425781-.445313.511718-.765625.085938-.296875.042969-.683594-.085937-1.128907-.085938-.296874-.339844-.894531-.746094-1.808593-.402344-.914063-.636719-1.574219-.722656-2.023438-.105469-.550781-.0625-1.0625.085937-1.488281.148438-.425781.425782-.808594.808594-1.085938.425781-.320312.894531-.511718 1.449219-.554687.554687-.042969 1.105469.085937 1.640625.40625.550781.320313 1.042968.746094 1.46875 1.320313.46875.617187.808594 1.234374.957031 1.871093.171875.617188.148437 1.214844-.042969 1.765625-.191406.554688-.53125 1.023438-1 1.425782l-.894531-1c.488281-.46875.746094-.957032.746094-1.507813.019531-.535156-.214844-1.128906-.726563-1.769531-.507812-.660156-1.019531-1.0625-1.488281-1.167969-.492187-.109375-.894531-.042969-1.234375.234375-.300781.230469-.46875.53125-.492188.890625-.019531.363281.191407 1.066406.703126 2.128906.488281 1.066407.789062 1.808594.894531 2.257813.148437.660156.148437 1.234375-.019531 1.722656-.171876.488281-.46875.914062-.917969 1.257812-.445313.339844-.957031.53125-1.554688.59375-.59375.042969-1.171875-.085937-1.765625-.382812-.574218-.320312-1.109375-.765625-1.578125-1.363281-.574219-.742188-.957031-1.46875-1.128906-2.148438-.167969-.679687-.148437-1.339843.066406-1.957031.277344-.640625.660157-1.191406 1.191407-1.617188" fill="#fff"/><path d="m147.484375 196.371094c4.429687 1.875 7.007813 4.109375 7.007813 6.492187 0 2.382813-2.578126 4.621094-7.007813 6.492188" fill="#2e634f"/><path d="m76.128906 191.988281c-1.8125.789063-3.429687 1.640625-4.8125 2.53125v-58.804687h4.8125m36.753906 50.292968c-.597656 0-1.191406-.019531-1.789062-.019531-13.332031 0-25.382812 2.105469-33.75 5.488281v-55.761718h35.558594v50.292968zm36.777344 7.789063c-7.648437-4.382813-20.65625-7.386719-35.5625-7.746094v-50.335937h35.5625zm4.8125 3.660156c-.960937-1.019531-2.175781-2.019531-3.621094-2.957031v-58.785156h3.621094zm2.40625-129.378906c1.0625.085937 2.128906.148437 3.214844.148437 7.238281 0 14.011719-2.148437 19.675781-5.851562v37.203125h-22.890625zm-80.75 31.5h-4.8125v-49.589844c1.40625-.894531 3.023438-1.746093 4.8125-2.535156zm74.722656-49.613281c1.445313.9375 2.660157 1.917968 3.621094 2.9375v46.675781h-3.621094zm-36.753906-8.46875c14.90625.359375 27.914063 3.363281 35.5625 7.746094v50.335937h-35.5625zm65.691406 165.433594c-5.664062 3.703124-12.433593 5.851562-19.675781 5.851562-3.34375 0-6.558593-.445312-9.625-1.296875 4.066407-2.511719 6.429688-5.46875 6.429688-8.597656l-.019531-.320313v-62.019531h22.890624zm-68.695312-165.476563c.597656 0 1.191406 0 1.789062.019531v58.105469h-35.5625v-52.636719c8.390626-3.382812 20.441407-5.488281 33.773438-5.488281" fill="#2e634f"/><path d="m86.308594 52.347656s-1.109375.152344-1.023438.832032c.085938.679687.191406.660156 1.234375.703124 1.042969.042969 4.34375 0 4.34375 0s.957031-.085937.851563.617188c-.105469.871094-1.105469.636719-1.617188.636719-.511718 0-1.574218.363281-1.554687 1.449219.042969 1.085937-.042969 1.339843-.042969 1.339843s-1.808594.46875-1.832031-.894531c-.042969-1.363281.109375-1.871094-.210938-1.914062-.320312-.042969-1.34375-.171876-1.34375.765624s-.359375 3.277344 2.554688 3.574219l.894531-.0625v1.363281s-1.402344 0-2.234375.316407c-.832031.320312-1.300781 1.511719-1 2.554687.296875 1.042969.871094 2.492188.402344 4.832032-.46875 2.339843-.933594 3.0625-.210938 3.277343.722657.210938 1.191407-.148437 1.46875-.980469.296875-.828124.832031-3.320312.320313-5.554687-.511719-2.234375-.617188-2.746094-.066406-2.914063.683593-.234374 1.300781-.066406 1.300781-.066406v8.726563s-.214844.875.894531.875c0 0 .574219.042969.554688-1.042969-.042969-1.085938 0-8.578125 0-8.578125h1.253906s-1.105469 6.34375.683594 8.875c0 0 .402343.980469 1.085937.640625 0 0 .574219-.171875.210937-1.003906-.359374-.828125-1.191406-4.042969-.574218-7.703125 0 0 .875-3.234375.257812-4.257813-.511718-.828125-1.257812-1.148437-1.726562-1.105468-.46875.042968-1.300782 0-1.300782 0s-.039062-.980469.789063-.980469c.832031 0 2.386719-.210938 2.429687-1.574219.039063-1.359375-.40625-2.382812-1.511718-2.59375-1.128906-.277344-5.28125-.152344-5.28125-.152344m3.617187 6.941406v1.46875s1.578125.253907 1.703125-.152343c.109375-.402344.320313-1.191407-.0625-1.339844-.425781-.128906-1.296875-.042969-1.640625.023437m4.644531-4.214843s-1.023437-.066407-1.023437.679687c0 .765625.789063.832032 1.449219.789063.636718-.042969 7.964844 0 7.964844 0s.617187.46875-.171876.53125c-.789062.0625-8.410156 0-8.410156 0s-.894531.105469-.660156.871093c0 0 .148438.574219.9375.535157h6.640625s.578125.316406-.148437.402343c-.722657.0625-6.707032 0-6.707032 0s-.894531-.042968-.789062.789063c0 0 0 .636719.980468.636719h4.875s2.707032.214844 3.132813-.722656c0 0 .53125-.511719.511719.320312-.042969.828125 0 10.808594 0 10.808594s-.171875 1.152344.894531 1.152344c0 0 .894531.148437.871094-1.085938-.042969-1.234375 0-13.664062 0-13.664062s.191406-1.980469-1.765625-2.085938c-1.9375-.105469-5.046875 0-5.046875 0v-.53125h5.980469s.726562.042969.726562-.617188c0-.640624-.46875-.832031-.832031-.875-.359375-.042968-5.832031 0-5.832031 0s-.042969-.722656-.640626-.765624c-.597656-.042969-.789062.425781-.789062 1.042968v1.703125zm6.878907 5.746093s.851562-.148437.957031.636719c0 0 .191406.894531-.957031.851563-1.128907-.019532-5.816407 0-5.816407 0s-.550781.023437-.550781.40625c0 0 0 .359375.617188.359375.617187 0 2.789062-.253907 2.957031 1.195312.152344 1.445313.066406 1.785157.066406 1.785157h1.660156s-.0625-2.851563 1.257813-3c0 0 1.191406-.128907.765625.957031-.425781 1.085937-.703125 2.980469-.46875 4.789062.253906 1.808594.832031 2.492188.148438 2.980469 0 0-1.023438.574219-1.511719-1.128906-.488281-1.722656-.296875-2.214844-.296875-2.214844s-.066406-.914062-.574219-.890625c-.535156.019531-.894531 0-.894531 0v2.828125s.210937 1.40625-.746094 1.40625c-.960938 0-.832031-1.40625-.832031-1.40625v-2.339844s.023437-.46875-.210938-.46875h-.894531s.277344 2.894532-1.128906 3.9375c0 0-.46875.40625-.980469.085938 0 0-.46875-.554688-.019531-1.300782.425781-.742187.890625-2.296874.230468-3.679687 0 0-.890624-1.128906-.191406-1.574219 0 0 .917969-.554687 1.300782.488282l.234374.574218h1.640626s.125-1.597656-.085938-1.597656h-1.789062s-1.640626-.019531-1.597657-2.082031c0 0 .191407-1.660157 1.875-1.640625h5.835938zm-6.878907 16.152344s-.363281-.042968-.363281.449219v1h-6.558593s-2 .125-2.40625 2.191406c0 0-.042969.808594.363281 2 .402343 1.191407 1.277343 5.152344.59375 8.34375-.679688 3.191407-.828125 4.109375-.828125 4.109375s-.640625 1.039063.511718 1.464844c0 0 .765626.320312 1.105469-.828125.363281-1.148437 1.597657-6.386719.488281-11.941406h1.746094s.277344 1.832031 2.640625 1.917969c2.363281.085937 6.007813 0 6.007813 0s2.40625-.085938 2.832031-1.832032h1.765625s-1.320312 6.386719.726562 12.066406c0 0 .125.960938 1.191407.597657 0 0 .59375-.148438.320312-1-.277343-.832031-2.046875-5.660157-.449219-12.8125 0 0 .765626-2.148438-.191406-3.277344-.957031-1.105469-1.128906-1-2-1h-6.285156v-.875c.023438-.019531-.019531-1.019531-1.210938-.574219m-6.878906 2.894532s-1.320312.234374-1.085937 1.234374.445312 1.085938.445312 1.085938h2.132813s.765625-1.765625 2.488281-1.765625h6.878906s1.917969.171875 2.363281 1.808594h1.855469l.273438-1.085938s.320312-1.128906-.636719-1.167969c-.980469-.023437-14.714844-.109374-14.714844-.109374m3.171875 3.8125s.234375.722656 1 .722656h2.324219v-.722656zm4.855469 0 3.34375.019531s-.148438.722656-.832031.722656c-.679688 0-2.488281.023437-2.488281.023437zm-1.492188-1.277344v-.683594h-2.554687s-.871094.042969-.914063.660156zm1.300782-.683594h3.085937s.535157.109375.621094.617188h-3.6875v-.617188zm-4.367188 4.40625s-2.085937.042969-2.085937 2.191406v2.746094s-.105469 2.363281 2.664062 2.535156v2.191406s0 .765626.894531.722657c0 0 .617188-.085938.636719-.808594.023438-.746094 0-2.085937 0-2.085937h3.472657v2.042968s-.105469.914063.894531.9375c0 0 .785156.105469.785156-.875v-2.148437s2.429687-.0625 2.535156-2.746094v-2.277344s-.210937-2.382812-2.277343-2.425781c-2.066407-.042969-7.519532 0-7.519532 0m-.507812 5.320312s.082031.53125.785156.574219c.683594.042969 6.984375 0 6.984375 0s.425781-.0625.683594-.550781zm-.171875-1.871093v.53125h8.6875l.023437-.53125zm.746093-1.980469s-.53125.023438-.511718.511719h8.519531s.0625-.511719-.554687-.511719c-.660157-.019531-7.453126 0-7.453126 0m48.804688-35.117188s1.664062.746094-.148438 1.488282h-5.640624v1.851562h6.492187s1.238281.195313 1.257813-1.445312v-1.296875s.640624-1.789063 1.363281.191406c0 0 .511719 4-2.042969 4.085937h-7.09375v.808594h6.261719s2.554687-.191406 2.703125 2.363282v2.703124s.042968 1.957032-2.148438 2.105469h-6.859375v1.703125h8.15625s1.703125.636719-.042969 1.488282h-8.132812v1.894531h8.132812s1.960938.703125 0 1.597656h-17.589843s-2.296875-.894531-.039063-1.554687h8.046875v-2h-8.304687s-1.640625-.914063 0-1.492188h8.304687v-1.59375h-6.621093s-2.320313.277344-2.320313-2.214844v-2.425781s-.066406-2.488281 2.640625-2.53125h6.300781v-.851563h-5.875s-1.066406-.957031.167969-1.535156h5.664062v-1.890625h-6.601562s-.828125-.042969-.851562.808594c-.042969.851563 0 1.742187 0 1.742187s-.042969.789063-.722657.808594c0 0-.703125.386719-.746093-.914062v-1.746094s-.042969-2.210938 2.277343-2.234375c2.386719-.019531 14.011719.085937 14.011719.085937m-5.789062 7.109376v1.445312h7.75s.339843-1.402344-1.492188-1.425781c-1.828125-.019531-6.257812-.019531-6.257812-.019531m0 2.914062v1.425781h6.386718s1.277344.066407 1.214844-1.425781zm-1.554688 1.492188.019531-1.511719h-7.539062s-.273438 1.46875 1.128906 1.511719c1.40625.0625 6.390625 0 6.390625 0m0-2.980469.019531-1.339844h-6.515625s-1.148437.0625-1.066406 1.339844zm-7.730469 16.003906s-1.023437.148437-1.085937.808594c0 0 .148437.875 1.320312.808593 0 0 3.128906-.660156 3.277344 1.171876 0 0 .300781 1.53125-1.957031 1.597656h-1.832031s-1.023438.0625-.957032.65625c0 0-.085937.8125 1.085938.8125h2.703125s2.195312-.300782 2.34375-2.769532c0 0 .359375-2.851562-2.40625-3.0625h-2.492188zm1.085938 6.40625s-2.769531.511719-2.195313 2.917969c0 0 1.449219 2.042968.578125 3.9375 0 0-1.171875 1.828125-.066406 2.339844 0 0 1.386719 0 1.683594-1.746094 0 0 .660156-1.746094-.296875-3.722656 0 0-1.085938-1.894532.425781-2.042969 0 0 2.191406-.660157 2.339844 1.316406.148437 1.960937 0 7.28125 0 7.28125s0 1.320313-.957031 1.320313h-3.066407s-.808593.296874-.722656.808593c0 0 0 .808594 1.234375.808594 0 0 4.8125.507813 4.8125-2.257813v-8.300781s0-2.253906-1.832031-2.554687c.019531-.019532-1.128907-.253906-1.9375-.105469m5.898437-5.234375s-1.171875-.148438-1.171875.808594c0 0-.210937.808594 1.085938.871094h4.21875v.660156h-2.769531s-2.703126.363281-2.554688 2.554687c0 0 0 2.105469 2.554688 2.339844h7.816406s1.957031-.210937 1.957031-2.703125c0 0-.0625-2.042969-2.46875-2.191406h-2.769531v-.746094h4.367187s1.167969-.148438 1.085938-.808594c0 0-.066407-.808594-1.171875-.808594h-4.300782s.082032-1.296874-.917968-1.296874c0 0-.9375-.0625-.871094 1.277343zm2.234375 3.851562v1.980469s-1.828125.296875-1.914062-1.109375c0 0-.085938-1 1.914062-.871094m1.511719-.019531h2.597656v2.085938h-2.597656zm4.113281 2.085938s1.957031.105469 1.9375-1.195313c0 0-.066406-.914062-1.9375-.890625zm-8.113281 1.871093s-1.066406.085938-1.003906.808594c0 0-.042969.765625 1.066406.851563h2.34375s-.40625.554687-1.664062.660156c0 0-2.105469.554687-1.789063 2.980469 0 0 .066406 2.574218 3.515625 2.574218 0 0-.660156 2.574219 2.320312 2.640626h5.984376s.765624-.085938.746093-.875c0 0 .0625-.660157-.917969-.617188h-2.382812v-1.105469s3.257812.148438 3.300781-2.789062c0 0 .296875-1.53125-1.257812-2.425781 0 0-1.363281-.445313-2.023438-1.105469h2.535157s.808593-.042969.871093-.832031c0 0 .128907-.746094-1.105469-.746094zm3.894531 1.640626h2.703125s.34375 1.464843 2.34375 2.042968c0 0 2.152344.699219.53125 2.511719 0 0-.699218.359375-1.210937.296875l.019531-1.957031s.023438-.660157-.894531-.683594c0 0-.765625.023437-.789063.765625v4.449219h-1.46875s-1.128906.171875-1.148437-1.085938c-.023438-1.253906 0-3.445312 0-3.445312s.019531-.617188-.683594-.617188c-.699219 0-.851563.425781-.851563.785157-.019531.363281 0 1.832031 0 1.832031s-1.9375.042969-2.042968-1.683594c0 0-.019532-1.128906 1.277344-1.253906 0 0 1.894531-.066407 2.214843-1.957031" fill="#f5f2ed"/><path d="m86.09375 138.84375s-.914062-.042969-.871094.789062c0 0 .210938.785157.914063.699219h3.875s1.066406-.167969 1.066406.960938c0 0 .125 1.148437-1.152344 1.316406h-3.617187s-1.023438.171875-.960938.832031c0 0 .085938.53125.917969.617188h4.109375s2.066406-.277344 2.171875-2.554688c0 0-.085937-2.636718-2.429687-2.636718h-4.023438m8.988281-.152344s-.960937-.167969-.875 1.234375c.085938 1.40625 0 5.386719 0 5.386719h-6.472656s-2.554687-.085938-2.554687 2.554687c0 0 .296874 1.191406.785156 1.9375.492187.742187 1.066406 3.703125-.042969 6.128906 0 0-1.191406 1.636719-.488281 2.191407 0 0 .660156.746093 1.597656-.832032 0 0 1.574219-2.679687.746094-6.488281 0 0-1.578125-3.492187-.660156-3.917969 0 0 .445312-.171875 1.363281-.128906.914062.042969 13.882812 0 13.882812 0s1.40625.320312.746094 1.554688c-.660156 1.234374-1.9375 4.851562-.492187 8.152343 0 0 .660156 2.253907 1.726562 1.851563 0 0 .789062-.445313.253906-1.277344 0 0-1.636718-2.339844-1.105468-5.851562 0 0 .53125-1.683594 1.023437-2.34375 0 0 .890625-1.933594-.660156-3 0 0-.703125-.488282-2.023438-.488282h-5.878906v-5.511718c-.019531 0 .0625-1.023438-.871094-1.152344m-3.792969 10.109375s0-.976563-.660156-.933594c-.746094.042969-.828125.53125-.871094.976563-.042968.449218 0 7.238281 0 7.238281s.042969 2.296875 2.339844 2.296875h5.816406s2.296876-.167969 2.253907-2.382813c-.039063-2.214843 0-7.320312 0-7.320312s-.082031-.832031-.828125-.832031-.832032.9375-.832032.9375v1.277343h-7.28125zm0 2.640625h7.285157v4.492187s.210937.914063-.980469.957031c-1.191406.042969-5.515625 0-5.515625 0s-.746094.128907-.789063-1.277343c-.042968-1.40625 0-4.171875 0-4.171875m8.304688-12.664063s-2.023438.128907-2.105469 2.300781c0 0-.214843 2.808594 2.105469 2.957032h4.621094s.660156.042968.617187-.789063c0 0-.085937-.660156-.746093-.617187-.65625.042968-4.234376 0-4.234376 0s-.894531-.167969-.789062-1.488282c0 0 .042969-.914062.980469-.914062h4.066406s.703125 0 .660156-.832031c0 0 0-.617188-.875-.660157-.828125 0-4.300781.042969-4.300781.042969m26.746094-.105469s-.828125-.128906-.828125.957032v3.703125h-1.023438s-.894531.128906-.832031.789062c0 0 .171875.828125.894531.785157h.960938v12.195312s-.066407 1.085938.894531 1.085938c0 0 .785156.066406.828125-1.019532v-12.324218h1.191406s.789063.0625.726563-.894532c0 0 .0625-.59375-.597656-.59375h-1.320313v-3.597656s.171875-1.148438-.894531-1.085938m4.066406.128907s-.957031 0-.894531 1.125c.066406 1.152343.492187 2.109375 1.980469 2.214843h4.195312v2.808594h-4.34375s.128906-2.148437-.722656-2.425781c-.851563-.277344-1.191406.277344-1.023438 1.066406.171875.785157.617188 2.316407-.042968 3.574219 0 0-.617188 1.253906.277343 1.574219 0 0 .894531.042969 1.152344-.617188h4.597656s.511719 1.40625 1.511719 0h4.578125s.234375.957031 1.085937.746094c0 0 .917969-.382813.492188-1.234375 0 0-.492188-1.066406-.300781-3.726562 0 0 .617187-1.167969-.042969-1.511719 0 0-.808594-.507813-1.191406.449219h-4.640625v-.789063h4.238281s1.765625.171875 1.980469-1.9375c0 0 .0625-1.253906-.746094-1.464844 0 0-.894531-.128906-1.023437.808594 0 0-.0625.210937.0625.445313 0 0 .40625.679687-.273438.722656h-4.261719s-.0625-1.914063-2.042969-1.976563h-2.554687s-.746094.230469-.617187.847657c0 0 .0625.617187.742187.660156h2.109375s.917969.085937.789062.683594h-3.726562s-.917969-.066407-.640625-.851563c-.019531.019531.363281-1.171875-.703125-1.191406m6.644531 6.234375h4.238281v-.554688h-4.238281zm-.019531 1.257812h4.257812v.617188h-4.257812zm-1.34375 0h-4.300781v.59375h4.300781zm-5.128906 2.871094s-.9375.023438-.960938.765625c0 0-.085937.746094 1.023438.765625h10.222656s.765625-.082031.828125.660156c0 0-.445313-.234375-1.253906-.234375h-9.882813s-.914062-.019531-.957031.640625c0 0-.128906.722656 1.023437.828125h9.539063s.085937.492188-1.128906.492188h-8.410157s-1.023437-.085938-1.023437.636719c0 0-.105469.765624 1.0625.808593h8.539063s1.472656.085938 2.472656-1.320312v4.363281s-.148438.832031.851562.917969c0 0 .703125.039062.722656-.960938.023438-1.019531 0-3.914062 0-3.914062s-.019531-.914063-.339843-1.363281c0 0 1.085937-1.851563-.597657-2.722657 0 0-.742187-.382812-2.085937-.382812h-9.644531zm-.171875 5.960938s-.789063.042968-.789063.699218c0 0-.085937.769532.808594.746094h9.371094s.832031.023438.808594-.765625c0 0-.125-.660156-.660157-.679687-.554687-.023438-9.539062 0-9.539062 0m-35.304688 20.386718h.488281s-.128906 3.003906 0 5.214844c.128907 2.234375 2.128907 2.171875 2.128907 2.171875h3.492187c.722656 0 .851563-.722656.851563-.722656.085937-.726563-.59375-.765625-.59375-.765625s-1.960938.125-3.324219 0c-1.363281-.128906-1.085938-1.40625-1.085938-1.40625s.042969-3.535156 0-4.085938c-.042968-.554687.683594-.40625.957032-.40625.277344 0 2.597656-.082031 3.644531-.082031 1.042969 0 1.359375.359375 1.359375.359375.726562 1.085938-.808594 2.683594-.808594 2.683594-.914062 1.957031.597656 3.402344.597656 3.402344 1.085938 1.40625 1.765626.808593 1.765626.808593.683593-.722656-.636719-1.636719-.636719-1.636719-1.277344-1.363281 0-2.597656 0-2.597656 1.171875-1.363281.679687-2.402344.679687-2.402344-.636718-2.40625-2.722656-2.320312-5.171875-2.046874-2.449219.277343-3.601562-.082032-3.601562-.082032v-.851562h7.902343c1.234376 0 1.085938-.917969 1.085938-.917969 0-.722656-.957031-.871094-.957031-.871094h-8.09375v-1.042969h8.050781c.957031-.042968.957031-.765624.957031-.765624 0-.871094-.808593-.765626-.808593-.765626h-8.347657v-1.234374h8.367188c.917969 0 .808593-.722657.808593-.722657.085938-.683593-.722656-.726562-.722656-.726562h-7.089844c.191407-1.125 1.765626-1.125 1.765626-1.125h5.046874c.554688 0 .917969-.085938.957032-.8125.042968-.722657-.808594-.679688-.808594-.679688h-5.898438s-2.449218-.085937-2.554687 2.492188h-1.023437c-.082032-2.597657-2.554688-2.492188-2.554688-2.492188h-5.898438s-.871093-.042969-.808593.679688c.042969.726562.40625.8125.957031.8125h5.046875s1.597656 0 1.769531 1.125h-7.089844s-.8125.042969-.726562.726562c0 0-.085938.722657.808594.722657h8.371094v1.234374h-8.371094s-.808594-.085937-.808594.765626c0 0 0 .722656.960938.765624h8.046874v1.042969h-8.089843s-.960938.128907-.960938.871094c0 0-.125.917969 1.085938.917969h7.902343v.851562s-1.128906.359375-3.578124.082032c-2.449219-.273438-4.535157-.359376-5.175782 2.046874 0 0-.511718 1.039063.683594 2.402344 0 0 1.277344 1.234375 0 2.597656 0 0-1.320312.914063-.640625 1.636719 0 0 .683594.597657 1.769531-.808593 0 0 1.488282-1.445313.59375-3.402344 0 0-1.554687-1.597656-.808594-2.683594 0 0 .320313-.359375 1.363282-.359375 1.042968 0 3.363281.082031 3.640625.082031.277343 0 1-.125.960937.40625-.042968.550782 0 4.085938 0 4.085938s.273438 1.277344-1.089844 1.40625c-1.359374.125-3.320312 0-3.320312 0s-.679688.039062-.597656.765625c0 0 .128906.722656.851562.722656h3.496094s2 .042969 2.128906-2.171875c.125-2.234375 0-5.214844 0-5.214844zm32.324219-4.851562s-2.621094-.320313-3.324219 1.425781c0 0-.488281 1.105469 0 2.574219.492188 1.46875 1.023438 3.46875.40625 5.195312-.617187 1.722656-.980469 2.488282-.320312 2.957032 0 0 .746093.40625 1.34375-.894532.617187-1.316406 1.105469-4.210937.445312-6.703125 0 0-1.105469-1.914062-.363281-2.746093 0 0 .40625-.488282 1.640625-.402344 1.234375.082031 13.183594 0 13.183594 0s1.914062-.042969 1.105469 1.550781c0 0-1.554688 4.300781-.171876 7.492187 0 0 .320313 2.171876 1.472657 1.894532 0 0 .894531-.085938.296875-1.59375-.617188-1.511719-1.148438-3.683594-.363282-6.386719 0 0 .894532-2.171875.171876-3.234375 0 0-.40625-1.148438-1.851563-1.105469-1.449219.039063-13.671875-.023437-13.671875-.023437m.53125 2.171875s-.9375-.257813-.894531 1.019531 0 3.683594 0 3.683594-.167969 1.914062 2.300781 1.957031h3.449219v1.023437s0 1.019532-.617188 1.0625c-.171875 0-.320312.128907-.703125-.210937-.363281-.320313-.746094-.363281-1.320312-.40625-.574219-.042969-1.875-.210937-2.617188.789063 0 0-.621094.53125-.085937.976562 0 0 .445312.492188 1.191406.042969 0 0 1.066406-.660157 1.917969-.210938 0 0 1.320312 1.019531 2.789062 0 0 0 .851563-.53125.980469-1.808593v-1.277344h3.023437s2.339844.085937 2.40625-2.386719c.082032-2.445313 0-3.722656 0-3.722656s0-.765625-.789062-.703125c0 0-.789062.085937-.746094 1.191406v3.234375s.085938.980469-1.023437.980469h-2.914063v-.894532s3.023438.40625 3.109375-2.296874c0 0 .167969-2.257813-1.898437-2.339844h-4.003906s-2.171876.210937-2.042969 2.425781c0 0-.042969 2.296875 3.363281 2.210937v.851563h-3.066406s-1.105469.257813-1.191406-1.320313v-2.976562c.023437.042969.148437-.9375-.617188-.894531m4.003906 1.277343s-.832031.042969-.832031.574219c0 0-.234375.894531.9375.9375h3.109375s.894531.039063.808594-.9375c0 0-.085938-.574219-.703125-.617187-.574219-.042969-3.320313.042968-3.320313.042968m-.617187-10.769531s-1.109375-.085937-1.066407.53125c0 0-.296874.851563 1.152344 1.105469 0 0-1.238281.640625-1.152344 2 0 0 .042969.875 1.320313 1.492188l-.894531.359374s-.742188.492188-.277344 1.066407c0 0 .363281.617187 1.34375.234375l1.746094-.765625 1.832031.679687s.828125.40625 1.363281-.363281c0 0 .273438-.617187-.449218-.890625l-.53125-.171875s1.148437-.363281 1.0625-1.957031c0 0 0-1.109375-.976563-1.554688 0 0 1.277344-.445312.894531-1.277344 0 0-.320312-.660156-1.109375-.402343l-1.957031.808593c-.042969-.023437-1.472656-.683593-2.300781-.894531m2.128906 2.402344-1.339844.703125s-.578125.363281.039063.746094l1.28125.746094 1.425781-.808594s.660156-.300782.085937-.617188c-.40625-.234375-1.492187-.769531-1.492187-.769531m-4.492187-2.488281h-3.152344s-2.300782.574218-2.234375 2.296875c.039062 1.726562 0 2.386719 0 2.386719s-.152344 2.253906 2.574219 2.296874h2.769531s.914062.042969.914062-.914062c0 0 .109375-.53125-1.042969-.53125h-2.808593s-.769531-.109375-.660157-1.195312h3.765626s.855468 0 .769531-.957032c0 0 0-.722656-.726563-.660156h-3.917968s-.148438-1 1.109374-1.148438h2.726563s.765625.085938.765625-.808593c-.042969 0 .105469-.765625-.851562-.765625m9.050781 0h3.148437s2.300782.574218 2.238282 2.296875c-.042969 1.726562 0 2.386719 0 2.386719s.148437 2.253906-2.578126 2.296874h-2.769531s-.914062.042969-.914062-.914062c0 0-.105469-.53125 1.042969-.53125h2.8125s.660156-.109375.574218-1.195312h-3.683594s-.851562 0-.765624-.957032c0 0 0-.722656.722656-.660156h3.917968s.148438-1-1.105468-1.148438h-2.726563s-.765625.085938-.765625-.808593c.039063 0-.085937-.765625.851563-.765625" fill="#f5f2ed"/><g fill="#1f1a17"><path d="m128.214844 202.3125c-1.726563.125-2.640625 1.105469-2.726563 2.914062.085938 1.9375 1 2.9375 2.726563 2.980469 1.683594-.042969 2.597656-1.066406 2.726562-3.066406-.042968-1.828125-.960937-2.789063-2.726562-2.828125m3.664062-2.449219h-1.128906c-.320312-1.320312-1.066406-2.023437-2.257812-2.066406-2.214844-.039063-3.34375 1.769531-3.386719 5.449219.789062-1.234375 1.832031-1.851563 3.109375-1.851563 2.492187.085938 3.769531 1.382813 3.855468 3.851563-.085937 2.429687-1.386718 3.703125-3.855468 3.789062-2.832032-.042968-4.257813-1.914062-4.257813-5.640625.082031-4.210937 1.554688-6.339843 4.386719-6.445312 2 .0625 3.171875 1.039062 3.535156 2.914062m-11.90625-1.214843-4.449218 6.363281h4.449218zm0 10.238281v-2.980469h-5.515625v-.933594l5.582031-7.960937h1v8.023437h1.660157v.851563h-1.660157v2.980469h-1.066406zm-10.945312-11.089844c-1.851563.128906-2.789063 1.171875-2.789063 3.128906.042969 1.894531.980469 2.851563 2.789063 2.851563 1.640625-.082032 2.535156-1.0625 2.664062-2.914063-.109375-1.871093-.980468-2.894531-2.664062-3.066406m-3.660156 8.429687h1.0625c.214843 1.320313 1 2 2.320312 2 2.128906.042969 3.238281-1.722656 3.324219-5.320312v-.0625c-.746094 1.234375-1.832031 1.851562-3.257813 1.851562-2.386718-.128906-3.621094-1.425781-3.726562-3.851562.042968-2.535156 1.339844-3.832031 3.917968-3.917969 2.746094.042969 4.128907 2.066407 4.195313 6.042969-.128906 3.9375-1.597656 5.960938-4.386719 6.046875-2.171875-.085937-3.324218-1.023437-3.449218-2.789063m-5.238282 2.660157v-8.894531h-3.046875v-.726563c2 .042969 3.109375-.722656 3.320313-2.316406h.875v11.960937h-1.148438zm0 0"/><path d="m138.179688 114.601562.234374-.46875v-.296874c-.210937-.382813-.382812-.636719-.382812-1.234376v-.296874l-.554688-.554688h-.382812l-.554688.554688v.46875c0 .785156-.148437.742187-.507812 1.105468-.449219.445313-.425781.277344-.726562.914063.128906.257812.066406.339843.300781.574219.210937.234374.253906.171874.339843.511718l-.105468.46875c-.683594.488282-1.257813 1.128906-2.066406 1.554688h-.148438l-.851562-.085938c-.300782-.042968-.640626.980469-.769532 1.234375v.445313c.191406.382812.277344.769531.851563.769531.449219 0 .875-.597656 1.152343-.875.253907-.253906.828126-.679687.9375-.976563.359376.019532.253907.0625.382813.316407-.171875.300781-.148437.363281-.554687.46875v.296875l-.234376.300781.019532.167969v.085937l.234375.46875v.382813c-.234375.445312-.957031.957031-1.296875 1.339844-.257813.300781-.40625.363281-.660156.640624l-.339844.277344-.234375.382813c-.597657.765625-2.257813 1.699219-2.257813 2.851562 0 .785157.402344.808594.617188 1.234375h.597656c.46875-.257812 1.128906-.640625 1.59375-.957031.535156-.363281.769531-.832031 1.664062-.832031l.0625.320312c-.105468.550782-.148437.511719-.382812.914063v.148437c0 .765625-.617188.789063-.617188 1.554688v.382812l.53125 1c0 .425782.683594 1.066406 1 1.234375h.148438c.34375 0 .597656-.445312.726562-.746093.191407-.488282.105469-.679688.511719-.957032l.082031-.679687-.019531-.703125c0-.511719.320313-.914063.320313-1.554688 0-.234375.296875-1.488281.382812-1.703125.148438-.464843.53125-.847656.789063-1.234375h.148437c.59375 0 1.46875-.914062 1.46875-1.617187v-.699219l-.617187-1.171875c0-.191406.253906-.46875.359375-.640625.171875-.273438.152344-.425781.257812-.65625-.234375-.449219-.617187-.34375-.617187-.535156 0-.402344 1.46875-1.679688 1.46875-2.234375v-.53125c-.296875-.574219-.191407-.46875-.765625-.765625h-1.300782l-.234374-.234375m0 1.808593c0-.253906-.019532-.382812.234374-.382812h.234376l.085937.296875-.320313.148437zm-1.085938 4.875.382812-.617187.148438.617187-.148438.46875-.382812-.171874zm-4.726562 3.085938c.210937-.914062.46875-.511719 1.023437-.980469.191406-.148437.042969-.105469.253906-.277343l.277344-.191407c.171875-.125.296875-.402343.53125-.402343.171875 0 .105469.019531.300781.085937v.316406c0 .660157-.660156.617188-1.066406.875-.296875.191407-.789062.660157-1.191406.660157zm13.925781-12.027344c-.46875.042969-.746094.34375-1.0625.492188-.386719.167968-.851563.277344-.851563.785156v.320312h.464844l.46875-.234374h.300781l.234375.0625v.300781c-.277344.148437-.46875.253906-.597656.574219-.171875.402343-.296875.339843-.46875.703124-.277344.574219-.554688 1.019532-1.042969 1.359376l-.617187-.082032h-.234375c-.191407 0-.296875.191406-.46875.316406 0 .300782-.148438.726563-.253907.980469-.191406.445313-.191406.277344-.386718.9375-.210938.742188-.445313 1.085938-.59375 1.957031l-.148438 1.085938-.066406.53125c0 .425781-.148438.425781-.148438.851562v.382813c0 .53125.085938 1.042969.171876 1.53125.105468.597656.128906.808594.511718 1.191406.253906.277344.53125.660157.914063.769531.253906.082032 1.257812.273438 1.511719.273438h1.9375c.191406 0 .191406.023438.296874.085938l.320313-.085938h.382813c.46875 0 .617187-.234375 1.085937-.234375h.085937c.425782 0 .425782-.148437.851563-.148437h1.320313c.363281 0 .640624-.167969 1.085937-.234376l.703125-.082031h.148438c.746093-.382812.535156-.257812.9375-1v-.683593c0-.53125-.425782-1.339844-.617188-1.703126l.023438-.148437-.109376-.617187c-.125-.851563-.191406-1.128907-.53125-1.789063v-.148437c0-.574219-.46875-.914063-.660156-1.511719-.234375-.828125-.253906-.847657-.980468-1.191407-.125.109376-.320313.171876-.320313.382813v.320313c0 .703124.535156.875.597656 1.9375l.171875 2.171874c.042969.382813-.085937.425782-.085937.703126 0 .296874-.023438.019531.019531.230468l-.019531.320313c-.339844.128906-.40625.554687-1.171875.554687h-.617188c-.660156 0-.957031.234375-1.554687.234375-.425781 0-.425781.148438-.851563.148438-.53125 0-1.214844.382812-2.023437.382812h-.085938c-.296875 0-.019531-.019531-.234375.019531l-.296875-.082031-.339843-.109375c-.085938-.316406-.148438-.125-.148438-.382812v-.148438c0-.636718.148438-1.105468.234375-1.703125.019531-.191406.125-.507812.167969-.828125.066406-.339844-.019532-.492187-.019532-.875v-.316406c0-.492188-.148437-.597656-.148437-1.085938v-.53125h.382813c.105468.316407.511718.488282.703124.765626l.851563.167968c.167969-.042968.167969-.082031.382813-.082031l.191406.039063.425781-.507813v-.535156c-.296875-.550781-1.382813-.957031-1.382813-1.234375 0-.507813 1.105469-1.53125 1.445313-1.871094.300781-.296875 1.34375-1.597656 1.640625-1.679688.042969-.554687.617188-.617187.617188-1.003906v-.296875c-.277344-.53125-.871094-.722656-1.382813-1h-.449219zm-13.457031-4.679687v.296875c-.257813.191406-.617188 1.171875-.617188 1.617187v.53125c0 .46875.234375.660157.234375 1.234375 0 .257813.59375.851563.851563.851563h.617187c.234375-.125.851563-.402344.851563-.703125v-.230469c0-.683594.148437-.960937.382812-1.386719v-.382812l-.53125-1.085938c.042969-.191406.085938-.234375.085938-.464844v-1.234374c0-.300782-.023438-.023438.082031-.234376-.191407-.300781-.191407-.703124-.699219-.703124-.597656.042968-.917969 1.636718-1.257812 1.894531m12.074218-2.617188-1 .382813h-.382812c-.300782.167968-1.515625.742187-1.855469.765625-.085937.253906-.636719.359375-.851563.445312-.253906.105469-.660156.339844-.914062.46875h-.535156c-.464844 0-.59375-.148437-1-.148437-.425782 0-.425782.148437-.851563.148437h-.148437c-.363282 0-.679688.574219-.851563.765625.191407.40625-.042969.234375.382813.46875h.234375c.363281 0 1.085937.746094 1.257812 1.085938.191407.382812.679688 1.171875 1.234375 1.171875.363282 0 .597656-.34375.851563-.46875.363281-.191407.511719-.320313.703125-.703125v-.53125l-.382813-.703125c0-.296875.296875-.597657.488281-.765625.191407-.171875.574219-.296875.765626-.46875.511718-.382813.191406-.191406.832031-.40625l.851562-.445313h.234375v.46875c0 .574219-1.9375 1.789063-1.9375 2.171875v.234375l.234375.230469h.234375l.488282-.210938.363281-.339843c.277343-.214844.53125-.339844.832031-.574219.339844-.277344 1.296875-.957031 1.828125-.957031h.148437c.234376-.363281.832032-.449219 1.238282-.703125.445312-.257813.9375-.40625.9375-1.085938v-.148437c-.257813-.492188-.832032-.832031-1.320313-1.085938h-.769531c-.359375.191407-.339844.148438-.636719.445313-.363281.277344-.597656.191406-.703125.492187"/><path d="m120.101562 114.070312c.277344-.425781.980469-.789062 1.382813-1.085937l.34375-.277344c.191406-.105469.210937-.042969.425781-.191406.253906-.191406.316406-.296875.660156-.488281.507813-.320313 2.597657-1.703125 2.597657-2.277344 0-.382812-.363281-.636719-.617188-.765625h-.152343l-.550782-.066406-.535156.085937c-.550781.066406-.871094.234375-1.320312.449219l-1.320313.46875v.148437c-.59375.042969-1.191406.53125-1.722656.742188-.574219.214844-1.042969.808594-1.449219.960938-.019531.234374-.085938.273437-.085938.550781 0 .171875.023438.105469.085938.300781l.382812.148438h.300782c.464844 0 .679687.167968.851562.46875v.148437c0 .316406-.234375.339844-.40625.507813l-.277344.578124v.148438c0 .339844.148438.617188.234376.933594.128906.511718 0 .449218 0 1.003906v.230469c0 .300781-.445313.660156-.636719.832031-.363281.320312-.386719.363281-.597657.789062v.230469c0 .257813.210938.300781.382813.386719h.296875l.234375.230469v.386719l-.167969.296874v.148438l-.148437 1.617188.019531 1.617187-.210938 2.703125-.300781 1.703125-.105469 1.40625c-.042968.507813.722657 2.085937 1.320313 2.085937.320313 0 .425781-.257812.53125-.46875v-.148437c0-.617187.617187-.960937.617187-2.238281v-1.699219l-.042968-1.554687.152344-2.789063c0-.210937-.023438-.171875.0625-.320313-.0625-.125-.085938-.105468-.085938-.316406v-.617187l.148438-.300781h.683593c.53125-.277344.914063-.699219 1.339844-1.125.449219-.492188.574219-.894532 1.085937-1.386719.214844-.210938.382813-.425781.574219-.660157l.535157-.699218c.191406-.300782.191406-.492188.425781-.808594.339843-.449219.167969-.46875.359375-.875-.296875-1.296875-.660156-1-1.9375-1h-.085938c-.359375 0-.53125.214844-1 .234375l-.679687.46875-.171875-.019531h-.234375c-.617188 0-.980469-.40625-1.191407-.832032m.53125 3.617188c0-.550781.660157-1.253906.980469-1.574219.40625-.402343.875-.914062 1.640625-.914062l.320313.320312v.230469c0 .234375-.492188.535156-.640625.832031-.148438.277344-.128906.210938-.339844.425781-.257812.253907-.105469.171876-.257812.445313-.125.234375-1.148438 1.257813-1.402344 1.46875-.511719-.253906-.214844.042969-.46875-.46875.082031-.148437.148437-.445313.148437-.699219v-.066406zm-10.21875 5.109375v-.53125l-.449218-1.152344-.171875-.191406-.019531-.296875c-.191407-.128906-.234376-.296875-.234376-.617188v-.46875c-.148437-.296874-.171874-.382812-.46875-.53125h-.296874l-.234376.085938-.148437.382812v.53125c0 .277344-.023437.191407.082031.382813l-.148437.851563c0 .277343-.703125.808593-.703125 1.789062 0 .746094.152344 1.148438.449218 1.636719.296876.554687.488282.703125 1.023438.980469h.296875c.253906-.128907.765625-.40625.765625-.765626 0-.382812.234375-.554687.234375-1v-.703124c0-.277344-.019531-.085938.085937-.148438-.085937-.214844-.0625.0625-.0625-.234375m1.554688-3.257813h-.234375c-.171875.085938-.46875.214844-.46875.46875v.46875l.296875.296876h.703125l.148437.320312c0 .339844-.339843.46875-.488281.679688-.109375.171874-.257812.640624-.363281.875v.148437l.019531.148437.214844.703126c.253906.085937.554687.53125.851563.53125l1-.46875c.46875-.253907.382812-.402344.617187-.851563v-.148437c0-.511719.554687-.957032.554687-1.789063 0-.507813.277344-.808594.46875-1.167969v-.382812c-.214843-.382813-.597656-.703125-1.148437-.703125h-.300781zm4.023438.171876-.085938.617187c-.042969.234375.253906.296875.382812.382813l.234376-.085938h.234374c.171876-.234375.703126-.53125.703126-1 0-.210938-.253907-.53125-.46875-.53125h-.148438c-.425781.210938-.53125.382812-.851562.617188m-6.816407-3.34375v.152343c0 .316407.386719.359375.617188.464844l.320312-.082031c.339844 0 1-.617188 1.554688-.617188v.234375c0 .273438-.148438.125-.148438.382813v.082031c0 .234375.449219.789063.597657.960937.253906.253907.636718.445313 1.105468.445313.234375 0 .277344.042969.46875.085937.191406-.105468.382813-.257812.46875-.449218l.425782-.105469.277343-.359375-.382812-.769531-.46875-.082031c-.085938-.257813.105469-.066407-.234375-.234376v-.300781c.277344-.507812.53125-.53125.914062-1.019531.320313-.425781.535156-.640625.789063-1.148438v-.726562c0-.382812-.660157-.765625-1.085938-.765625h-.148437c-.492188.257813-.917969.46875-1.40625.746094-.277344.148437-.210938.234375-.617188.445312-.234375.128907-.46875.34375-.660156.492188-.40625.296875-.808594.703125-1.214844 1.019531-.296875.191406-1.171875.875-1.171875 1.148438m2.941407-11.894532v.382813c0 .445312.851562.765625.851562 1.085937v.46875c0 .019532-.382812.722656-.46875 1-.105469.296875-.300781.765625-.53125.933594v.300781c-.171875.105469-.683594.957031-.703125 1.316407-.171875.109374-.535156.597656-.617187.789062-.214844.511719-.34375.425781-.578126.894531-.191406.363281-.339843.363281-.574218.828125-.167969.363282-.382813.578125-.554688.917969-.296875.59375-2.339844 3.148437-2.339844 3.382813v.234374c.0625.148438.167969.382813.382813.382813 1.171875 0 1.917969-2.597656 2.640625-2.789063.019531-.339843.339844-.742187.617188-.851562v-.316406c.382812-.257813.511718-.683594.871093-1.066406.257813-.277344.46875-1.042969.832031-1.171876.023438-.253906 1.34375-2.0625 1.554688-2.316406l1-.9375c.363281-.214844.191406 0 .574219-.363281.320312-.316406.214843-.105469.449219-.550781v-.917969c-.257813-.488281-.574219-.914063-1.066407-1.167969-.316406-.191406-1.210937-.597656-1.636719-.597656h-.300781c-.234375-.019531-.105469.042969-.402343.128906"/><path d="m195.867188 117.390625c.46875-.042969 1.257812-.789063 1.726562-1.0625.296875-.171875.53125-.382813.808594-.597656.359375-.296875.445312-.234375.554687-.746094-.152343-.296875-.128906-.550781-.621093-.550781l-1 .699218c-.253907.214844-.210938.171876-.53125.320313-.214844.105469-.253907.257813-.46875.382813-.363282.214843-1.832032 1.128906-2.023438 1.382812-.46875.023438-.402344.128906-.679688.320312-.214843.171876-.425781.191407-.683593.320313-.425781.234375-.703125.59375-1.425781.59375h-.148438c-.726562.382813-.832031.257813-1.234375 1.003906v.382813l.382813.53125h.148437c.210937 0 .210937.042968.382813.085937l.703124-.152343c.210938.042968.574219.109374.554688.386718l-.085938.765625c-.0625.53125 0 1-.597656 1l-1.171875.46875c-.296875 0-.550781.234375-.933593.234375-.300782 0 0 .105469-.46875.148438-.109376.277344-.597657.316406-.851563.46875h-.234375l-.703125.382812c-.363281 0-.703125.167969-.851563.382813h-.300781c-.105469.296875-.445312.277343-.742187.488281-.34375.253906-.320313.277344-.746094.488281-.382812.171875-1.234375.9375-1.511719.960938-.085937.253906-.363281.210937-.660156.574219-.234375.273437-.40625.339843-.574219.660156v.382812c.191406.359375.742188.914063 1.316406.933594.320313.492188 1.898438 1.535156 2.558594 1.789062.742188.277344 2.105469 1.234376 3.023438 1.234376.617187 0 1.296875.597656 2.171875.617187.128906.339844.9375.617187 1.382812.617187h.449219c.808594-.425781.851562-.789062 1.085938-1.765624-.109376-.191407-.363282-1.191407-.382813-1.46875l-.109375-1.382813.023438-.085937c0-.40625-.128907-.617188-.148438-.9375-.023438-.234376.082031-.617188.082031-1v-1.46875c0-.382813.726563-.703126 1.171875-.703126h.300782l2.636718-.082031.152344.019531c.765625-.40625.703125-.339843.9375-1.320312-.109375-.445312-.449219-.914062-.832031-1.105469-.257813-.128906-.46875-.148437-.683594-.320312-.253906-.210938-.296875-.210938-.574219-.339844h-.148437c-.46875 0-.597657.253906-.894531.402344-.296876.171875-.59375.214843-.871094.363281h-.535156l-.46875-.46875v-.296875c.109374-.214844.726562-1.253906.851562-1.382813-.105469-.214843-.507812-1.066406-.53125-1.234374.46875-.296876 1.832031-.808594 2.023438-1.320313m-7.429688 8.894531c.359375 0 2.660156-.765625 2.9375-.933594.425781.105469.363281.042969.53125.382813v.148437c0 .210938-.019531.148438-.148438.234376l-.085937.703124-.167969 1.085938.019532.316406c0 .894532.320312 1.320313.320312 2.171875 0 .296875-.597656.511719-.9375.46875l-.851562-.0625c-.46875-.066406-.660157-.171875-1.085938-.171875h-1.085938c-.574218-.320312-1.214843-.382812-1.8125-.679687-.273437-.152344-.53125-.300781-.851562-.382813-.617188-.171875-.425781-.085937-.660156-.578125l.085937-.296875c.640625-.148437 1.875-.785156 2.066407-1.320312.425781-.042969.574218-.339844.851562-.53125.339844-.253906.640625-.191406.875-.554688m3.320312-24.21875-.148437.320313c.085937.191406.148437.339843.148437.617187v.53125c-.234374.445313-.617187 1.214844-.808593 1.679688-.128907.363281-.320313.492187-.449219.789062-.082031.253906-.210938.789063-.53125.789063h-.234375c-.253906-.46875-.746094-1.191407-1.382813-1.234375-.148437-.425782-1.109374-.554688-1.511718-.808594-.191406-.128906-1.363282-.875-1.511719-.875l-.382813.46875v.234375c0 .019531 1.167969 1.722656 1.316407 2.023437v.148438c0 .660156.386719 1.636719.621093 2.085938l-.023437.148437.0625.765625.171875.851562c.128906.085938.148438.019532.148438.234376v.148437c0 .253906-.46875.511719-.46875 1.171875v.082031c0 .40625-.550782.769531-.851563.9375-.167969-.234375-.125-.085937-.234375-.234375l-.125-.425781c-.085938-.167969-.300781-.359375-.40625-.59375-.128906-.257813-.722656-1.066406-1.023438-1.066406h-.445312l-.234375.066406c-.042969.210937-.085937.148437-.085937.296875 0 .53125.339843.828125.554687 1.234375v2.320313c0 .511718.636719 1.320312.851563 1.320312.382812 0 .402343-.128906.765624-.148438.085938-.34375 2.128907-3.003906 2.40625-3.171874.023438-.511719.234376-.574219.511719-.875.171875-.167969.46875-.679688.722657-.679688l.382812.148438v.53125c-.148438.300781-.382812.53125-.382812.9375-.316407.234374-.703126.9375-.9375 1.320312-.125.210938-.253907.574219-.425782.746094-.167968.167968-.425781.316406-.636718.507812-.363282.339844-.832032.683594-1.234376 1-.535156.425782-.746093.660156-1.195312 1.128906-.382812.40625-.699219.746094-1.105469 1.148438-.214843.214844-.382812.34375-.597656.554688-.210937.214843-.445313.277343-.660156.511718-.191407.191406-.277344.359375-.507813.574219-.429687.402344-.214844.277344-.46875.679687-.171875.257813-.363281.363282-.554687.617188-.191407.257812-.296875.46875-.425781.726562v.445313c0 .660156.574218 1.40625 1 1.617187h.765624c1.386719-.746093 1.34375-1.171874 2.257813-2.214843.171875-.191407.363281-.359375.554687-.550781.210938-.214844.363282-.492188.53125-.640626.363282-.316406.703126-.828124 1.109376-1.148437.167968-.128906.425781-.234375.660156-.425781l.59375-.574219c.257812-.253906.339844-.253906.660156-.425781.425781-.214844.339844-.253906.683594-.488282.511718-.320312.851562-.597656 1.363281-.875.273437-.148437 1.234375-.742187 1.382813-.933593.53125-.023438.382812-.152344.746093-.34375.234375-.125.488281-.253907.703125-.382813.316406-.191406 1.277344-.507812 1.722656-.507812.40625 0 .957032-.703125 1.214844-.960938l1.492188-.742187.316406.019531 1.152344-.105469c.296875-.023437.488281.445313.550781.703125h.386719l.53125-.554687c0-.832031-.554688-.957031-1.085938-1.234375h-.148437l-.152344-.019532-.851563.105469c-.253906.019531-.445312.382813-.699218.382813h-.320313l-.234375-.148438c0-.449218 1.042969-3.085937 1.234375-3.46875v-.152344c0-.722656.617188-1.679687.617188-2.234374 0-.296876.148437-.488282.148437-.851563.214844-.148437.46875-.957031.46875-1.316406v-.085938l.234375-.46875v-.765625l-.46875-.46875h-.660156l-.148437.382813c.042968.171875.085937.234375.085937.46875 0 1.042969-.851563 2.019531-.851563 2.554687l-.46875 1.085938v.296875c-.128906.234375-.234374.359375-.234374.703125-.363282.253906-.789063 1.722656-.957032 2.296875-.195312.679687-.214844.640625-.46875 1.148437-.277344.617188-.085937.683594-.660156.957032l-.152344-.296876.195313-.660156c.125-.234375.316406-.339844.339843-.574218l.167969-1.382813v-1c-.191406-.363281-.082031-.363281-.402343-.679687-.148438-.128907-.46875-.492188-.683594-.492188h-.148438c-.277344 0-.617187-.042969-.617187-.296875v-.148437c.296875-.148438.875-.554688 1.085937-.765626.363282-.382812.617188-.511718.980469-.875.296875-.359374 2.085937-1.253906 2.085937-1.722656 0-.296875-.191406-.363281-.382812-.46875-.277344.128906-.382812.085938-.640625.296875l-.550781.386719c-.425782.210938-.808594.488281-1.171875.742188-.257813.191406-.191407.234374-.511719.40625-.363281.191406-.253906.316406-.511719.488281-.425781.296875-.746093.46875-1.234375.703125.019532-.296875.597656-1.066406.765625-1.171875.382813-.210938.851563-.488281.851563-1.085938 0-.914062-1.425782-1.511719-2.085938-1.851562h-.234375c-.296875.023437-.320312.066406-.574219.085937m-3.640624 7.511719c0-.425781.554687-.617187 1-.617187l.320312.152343v.230469c0 .277344-.789062 1.003906-1.085938 1.003906-.171874 0-.234374-.40625-.234374-.617187zm2.40625.152344c-.023438.316406-.300782.847656-.617188.847656l-.148438-.082031.316407-.683594zm2.023437.082031.316406.234375v.148437l.386719 1.46875-.109375.46875h-.296875v-.382812c0-.277344-.296875-.359375-.46875-.46875-.234375-.125-.253906-.316406-.382812-.550781v-.152344c0-.210937.277343-.765625.554687-.765625m-2.726563 3.554688c.234376-.148438.660157-.765626.9375-.765626h.148438l1.320312.171876c-.257812.359374-1.960937 1.148437-2.554687 1.296874 0-.402343-.066406-.234374.148437-.382812zm-.382812 2.171874c.234375 0 3.300781-1.703124 3.320312-1.703124h.296876l.234374.085937c0 .59375-.488281.765625-.914062.980469-.46875.230468-.789062.445312-1.234375.699218-.511719.277344-1.960937 1.214844-2.238281 1.617188-.488282.023438-1.148438.683594-1.511719.960938-.210937.167968-.507813.359374-.699219.53125-.214844.167968-.085937.105468-.363281.253906-.339844.191406-.085937.105468-.296875.320312-.34375.339844-1.003906.722656-1.34375 1.128906-.148438.191407-1.214844 1.0625-1.425781 1.0625h-.382813c.0625-.660156.359375-.554687.636719-.894531.257813-.296875.46875-.53125.726563-.828125.488281-.554687.871093-1.085937 1.382812-1.617187.574219-.597657.957031-.957031 1.574219-1.511719.300781-.257812.578125-.382812.9375-.617188.191406-.128906.171875-.214843.46875-.320312s.257812-.042969.511719-.167969h.320312zm0 0"/><path d="m169.269531 121.5625-.679687-.722656c-.191406-.214844-.511719-.425782-.875-.449219l-.082032.234375v.382812c0 .214844.660157 1.171876.765626 1.382813.234374.425781.320312 1.195313.703124 1.46875.019532.808594.851563 1.808594.851563 2.789063v.148437c.234375.449219.574219 1.066406.851563 1.46875.382812.554687.722656.703125 1.320312 1h1l.46875-.234375c.511719 0 1.425781-.933594 1.808594-1.210938.382812-.277343 1.597656-.9375 1.597656-1.425781v-.085937c0-.214844-.363281-.488282-.554688-.46875l-1.148437.171875c-.488281.0625-1.363281-.554688-1.851563-.554688l-.746093-.636719c-.339844-.234374-.425781-.46875-.683594-.640624-.550781-.382813-.914063-.851563-1.382813-1.320313-.425781-.402344-1.023437-.808594-1.363281-1.296875m.46875-15.386719-.402343-.917969c-.171876-.273437-.386719-.445312-.617188-.679687-.300781-.296875-1.046875-1.105469-1.535156-1.105469l-.382813.148438c-.042969.210937-.148437.320312-.148437.46875l.320312.699218v.152344l.105469 1.085938-.128906 2.316406.023437 4.34375c0 .488281-.320312 1.0625-.320312 1.703125 0 .722656.105468.402344-.085938 1.167969-.085937.363281-.234375.617187-.234375 1.085937v.535157c-.363281.679687-.277343.359374-.832031.785156-.234375.171875-.742188.511718-1.105469.511718-.105469 0-1.109375.59375-1.703125.617188-.105468.148438-.746094.46875-1 .46875-.171875 0-.960937.488281-1.214844.574219-.320312.105469-1.171874.425781-1.34375.425781l-.550781-.234375h-.300781c-.210938.128906-.617188.277344-.617188.617187v.554688l.554688.828125c.253906.253906.511719.40625.980469.40625.296875 0 .359375-.128906.703125-.152344.167968-.488281 1.980468-.976562 2.40625-1.550781.871094-.023438 1.828125-.851562 2.703125-.851562l.296875-.085938c.128906.085938.234375.105469.234375.320312v.148438c-.191407.359375-.550781.871094-.785157 1.210938-.234374.34375-.363281 1.023437-.683593 1.257812 0 .425781-.402344 1.171875-.597657 1.488281-.273437.46875-.574218.683594-1 1-.296874.214844-.765624.808594-1.0625.960938-.234374.125-1.277343.722656-1.277343.722656l-1.238281.167969c-.167969.023437-.722657-.253906-1.085938-.253906l-.382812.148437v.53125c0 .554687 1.195312 1.085937 1.855468 1.085937h.382813c.359375 0 .550781-.125.785156-.210937.386719-.171875.234375-.128906.746094-.277344.277343-.085937 1.300781-.449219 1.425781-.597656h.320312c.363282-.550781.382813-.316406.765626-.617187l.640624-.765626c.191407-.234374.40625-.636718.574219-.808593.363281-.382813.339844-.210938.597657-.722657.191406-.382812.320312-.46875.445312-.9375.128906-.46875.300781-.46875.382812-.9375.042969-.234374.171876-.871093.257813-1.148437.0625-.191406.402344-.660156.445313-.871094l.171874-1v-.148437c.234376-.449219.574219-.917969 1-1.171875.277344-.171875 1.085938-.617188 1.234376-.851563h.320312l.640625-.363281h.148437c.425782 0 .9375-.234375 1.320313-.234375.167969 0 .617187-.382812.9375-.464844.402344-.109375.507813-.300781.785156-.511718.34375-.296876.363281-.363282.660157-.660157.492187-.488281.234374-.296875.492187-.832031-.171875-.359375-.085937-.59375-.574219-.742188-.320312-.109374-.726562-.109374-1.046875-.214843l-.785156-.53125c-.257813-.296875-.382813-.339844-.726563-.53125h-.234374c-.273438 0-.253907.277343-.316407.53125.253907.53125.507813.871093.765625 1.382812v.148438c0 .597656-1.535156.980469-1.789062 1.320312h-.320313c-.167969.234375-.914062.617188-1.320312.617188-.210938.320312-.148438.148437-.46875.320312l-.296875-.171875v-.148437c0-.363281.085937-.703125.320312-.851563.019532-.511718.234375-.765625.234375-1.320312v-.082032c0-.234374.59375-2.621093.703125-2.9375.148438-.449218.253906-.851562.402344-1.382812.128906-.46875.554688-.726562.511719-1.277344l-.105469-1.9375.019531-.148437zm0 0"/><path d="m67.183594 123.96875c.53125.0625 1 .148438 1.34375.464844 1.679687 1.726562-5.15625 3.683594-6.367188 3.789062-.363281.023438-1.789062-.507812-1.34375-.507812.851563-.320313 1.726563-.640625 2.578125-.960938 1.363281-.742187 2.554688-1.871094 3.789063-2.785156m-4.855469-6.855469c.34375.214844.851563.363281 1.066406.683594 1.0625 1.550781.660157 6.425781-2.066406 6.210937-.488281-.039062-.722656-.316406-.980469-.65625-.9375-1.277343.148438-2.578124.574219-3.746093.195313-.703125.363281-1.40625.554687-2.109375l.191407-.042969c.234375-.042969.449219-.105469.683593-.148437v-.191407zm-10.5625-.167969c3.878906.828126 9.796875 9.703126 4.324219 11.597657-2.554688.871093-3.621094-1.957031-3.621094-3.957031.128906-.875.234375-1.769532.363281-2.640626-.023437-1.425781-.488281-2.554687-.957031-3.726562-.066406-.167969-.554688-.957031-.277344-.957031zm17.269531-2.640624c.34375.234374.683594.445312 1.046875.660156.359375.46875-.875 2.511718-.769531 3.382812.128906.980469 1.492188.765625 1.683594 1.46875.320312 1.277344-1.640625 2.320313-2.789063 2.214844-3.109375-.277344-.449219-4.042969.019531-5.277344.300782-.832031.363282-1.746094.808594-2.449218m10.90625-5.9375c1.042969.0625 2 .277343 2.191406 1.277343.339844 1.59375-3.9375 8.214844-4.917968 9.789063-.339844.445312-.683594.894531-1 1.339844-.660156 1.300781-1.152344 2.703124-1.664063 4.046874-.359375.914063-.234375 1.851563-1.019531 2.574219-.746094.679688-2.429688.894531-3.324219.296875-.210937-.277344-.402343-.554687-.617187-.828125-.105469-.171875-.382813-.425781-.382813-.683593.765625-.210938 1.851563-.636719 2.429688-1.167969.445312-.683594.894531-1.363281 1.339843-2.066407 1.53125-2.363281 2.554688-4.957031 3.898438-7.40625.894531-1.640624 2.277344-3.109374 2.914062-4.875.066407-.167968.066407-.445312-.125-.59375-1.277343-.851562-5.582031.933594-6.707031 1.511719-.9375.574219-1.875 1.125-2.8125 1.679688-1.320312.554687-2.640625 1.085937-3.960937 1.640625-.980469.316406-2.320313.019531-3.34375.019531v-.148437h.171875v-.148438c1.425781-.894531 2.851562-1.789062 4.257812-2.703125 1.023438-.382813 2.042969-.765625 3.066407-1.148437 2.128906-.8125 4.367187-1.769532 6.921874-1.769532.402344-.042968.785157-.105468 1.171876-.148437.507812-.191407 1-.339844 1.511718-.488281"/><path d="m85.859375 117.710938c.554687.59375.40625 1.703124.597656 2.46875.148438.574218.679688.722656.976563 1.128906.46875.617187.320312 2.660156.128906 3.382812-.128906.53125-1.042969 1.574219-1.042969 1.59375-.191406 0-.339843.085938-.339843-.148437-1.042969-.488281-2.171876-2.0625-2.003907-3.253907.300781-.726562.578125-1.46875.875-2.191406.277344-.9375.53125-2.109375.808594-2.980468m5.707031-2.980469c.488282.019531 1.042969.042969 1.363282.296875 1.597656 1.300781 3.238281 8.429687-.0625 8.898437-1.683594.234375-2.535157-1.191406-2.214844-2.617187.277344-.597656.53125-1.195313.808594-1.769532.191406-.894531.382812-1.765624.574218-2.636718-.171875-.726563-.320312-1.449219-.46875-2.171875m8.050782-10.597657c1.148437.0625 2.722656.402344 3.128906 1.488282.296875.789062-.789063 5.085937-.980469 6.042968 0 .449219-.019531.917969-.019531 1.363282-.234375 1.277344-.40625 2.851562-.660156 4.214844-.191407.636718-.363282 1.253906-.554688 1.894531 0 .679687 0 1.339843-.019531 2.019531-.109375.683594-.214844 1.363281-.320313 2.042969-.105468.894531-.023437 2.277343.171875 3.109375.148438.679687.488281 1.554687.425781 2.320312-.085937.851563-1.664062 2.277344-1.664062 2.382813-.59375-.171875-1.191406-.320313-1.382812-.980469-.277344-.957031.363281-3.914062.46875-5.128906.191406-2.253906.210937-4.597656.445312-6.851563.320312-3.214843 1.046875-6.578125 1.277344-9.832031.042968-.726562.023437-1.683594-.253906-2.300781-.191407-.425781-.871094-.914063-.871094-1.445313.234375-.148437.53125-.234375.808594-.339844"/></g></g></svg>