<?xml version="1.0" encoding="UTF-8" standalone="no"?>
<!-- Created with Inkscape (http://www.inkscape.org/) -->

<svg
   width="83.668388mm"
   height="83.655312mm"
   viewBox="0 0 83.668389 83.655311"
   version="1.1"
   id="svg1"
   xmlns="http://www.w3.org/2000/svg"
   xmlns:svg="http://www.w3.org/2000/svg">
  <defs
     id="defs1">
    <clipPath
       clipPathUnits="userSpaceOnUse"
       id="clipPath8">
      <path
         d="m 106.154,37.706 h 134.794 v 95.318 H 106.154 Z"
         transform="matrix(1.3333333,0,0,-1.3333333,0,226.77333)"
         id="path8" />
    </clipPath>
    <clipPath
       clipPathUnits="userSpaceOnUse"
       id="clipPath6">
      <path
         d="m 114.597,126.59 h 1.627 v -6.216 h -1.627 z"
         transform="translate(-114.6475,-126.5385)"
         id="path6" />
    </clipPath>
    <clipPath
       clipPathUnits="userSpaceOnUse"
       id="clipPath49">
      <path
         d="m 106.154,37.706 h 134.794 v 95.318 H 106.154 Z"
         transform="matrix(1.3333333,0,0,-1.3333333,0,226.77333)"
         id="path49" />
    </clipPath>
    <clipPath
       clipPathUnits="userSpaceOnUse"
       id="clipPath47">
      <path
         d="m 109.257,128.118 h 1.627 v -6.215 h -1.627 z"
         transform="translate(-109.30761,-128.0673)"
         id="path47" />
    </clipPath>
    <clipPath
       clipPathUnits="userSpaceOnUse"
       id="clipPath193">
      <path
         d="m 106.154,37.706 h 134.794 v 95.318 H 106.154 Z"
         transform="matrix(1.3333333,0,0,-1.3333333,0,226.77333)"
         id="path193" />
    </clipPath>
    <clipPath
       clipPathUnits="userSpaceOnUse"
       id="clipPath191">
      <path
         d="m 116.122,128.118 h 1.627 v -6.215 h -1.627 z"
         transform="translate(-116.1729,-128.0673)"
         id="path191" />
    </clipPath>
    <clipPath
       clipPathUnits="userSpaceOnUse"
       id="clipPath584">
      <path
         d="m 106.154,37.706 h 134.794 v 95.318 H 106.154 Z"
         transform="matrix(1.3333333,0,0,-1.3333333,0,226.77333)"
         id="path584" />
    </clipPath>
    <clipPath
       clipPathUnits="userSpaceOnUse"
       id="clipPath582">
      <path
         d="m 107.731,126.59 h 1.627 v -6.216 h -1.627 z"
         transform="translate(-107.7817,-126.5385)"
         id="path582" />
    </clipPath>
    <clipPath
       clipPathUnits="userSpaceOnUse"
       id="clipPath6842">
      <path
         d="M 0,170.08 H 255.12 V 0 H 0 Z"
         transform="translate(-114.1777,-124.724)"
         id="path6842" />
    </clipPath>
    <clipPath
       clipPathUnits="userSpaceOnUse"
       id="clipPath6844">
      <path
         d="M 0,170.08 H 255.12 V 0 H 0 Z"
         transform="translate(-114.77781,-125.2011)"
         id="path6844" />
    </clipPath>
    <clipPath
       clipPathUnits="userSpaceOnUse"
       id="clipPath6846">
      <path
         d="M 0,170.08 H 255.12 V 0 H 0 Z"
         transform="translate(-115.15281,-125.3241)"
         id="path6846" />
    </clipPath>
    <clipPath
       clipPathUnits="userSpaceOnUse"
       id="clipPath6848">
      <path
         d="M 0,170.08 H 255.12 V 0 H 0 Z"
         transform="translate(-114.56841,-125.4072)"
         id="path6848" />
    </clipPath>
    <clipPath
       clipPathUnits="userSpaceOnUse"
       id="clipPath6850">
      <path
         d="M 0,170.08 H 255.12 V 0 H 0 Z"
         transform="translate(-115.7275,-125.9574)"
         id="path6850" />
    </clipPath>
    <clipPath
       clipPathUnits="userSpaceOnUse"
       id="clipPath6852">
      <path
         d="M 0,170.08 H 255.12 V 0 H 0 Z"
         transform="translate(-116.6802,-126.2416)"
         id="path6852" />
    </clipPath>
    <clipPath
       clipPathUnits="userSpaceOnUse"
       id="clipPath6854">
      <path
         d="M 0,170.08 H 255.12 V 0 H 0 Z"
         transform="translate(-117.5767,-126.2343)"
         id="path6854" />
    </clipPath>
    <clipPath
       clipPathUnits="userSpaceOnUse"
       id="clipPath6856">
      <path
         d="M 0,170.08 H 255.12 V 0 H 0 Z"
         transform="translate(-118.21581,-125.7802)"
         id="path6856" />
    </clipPath>
    <clipPath
       clipPathUnits="userSpaceOnUse"
       id="clipPath6858">
      <path
         d="M 0,170.08 H 255.12 V 0 H 0 Z"
         transform="translate(-118.6831,-126.0942)"
         id="path6858" />
    </clipPath>
    <clipPath
       clipPathUnits="userSpaceOnUse"
       id="clipPath6860">
      <path
         d="M 0,170.08 H 255.12 V 0 H 0 Z"
         transform="translate(-118.981,-125.5527)"
         id="path6860" />
    </clipPath>
    <clipPath
       clipPathUnits="userSpaceOnUse"
       id="clipPath6862">
      <path
         d="M 0,170.08 H 255.12 V 0 H 0 Z"
         transform="translate(-119.74851,-124.5175)"
         id="path6862" />
    </clipPath>
    <clipPath
       clipPathUnits="userSpaceOnUse"
       id="clipPath6864">
      <path
         d="M 0,170.08 H 255.12 V 0 H 0 Z"
         transform="translate(-116.9199,-120.6723)"
         id="path6864" />
    </clipPath>
    <clipPath
       clipPathUnits="userSpaceOnUse"
       id="clipPath6866">
      <path
         d="M 0,170.08 H 255.12 V 0 H 0 Z"
         transform="translate(-117.1416,-125.936)"
         id="path6866" />
    </clipPath>
    <clipPath
       clipPathUnits="userSpaceOnUse"
       id="clipPath6868">
      <path
         d="M 0,170.08 H 255.12 V 0 H 0 Z"
         transform="translate(-114.3867,-122.83)"
         id="path6868" />
    </clipPath>
    <clipPath
       clipPathUnits="userSpaceOnUse"
       id="clipPath6870">
      <path
         d="M 0,170.08 H 255.12 V 0 H 0 Z"
         transform="translate(-114.4248,-122.5761)"
         id="path6870" />
    </clipPath>
    <clipPath
       clipPathUnits="userSpaceOnUse"
       id="clipPath6872">
      <path
         d="M 0,170.08 H 255.12 V 0 H 0 Z"
         transform="translate(-114.67821,-122.5238)"
         id="path6872" />
    </clipPath>
    <clipPath
       clipPathUnits="userSpaceOnUse"
       id="clipPath6874">
      <path
         d="M 0,170.08 H 255.12 V 0 H 0 Z"
         transform="translate(-114.8926,-122.2494)"
         id="path6874" />
    </clipPath>
    <clipPath
       clipPathUnits="userSpaceOnUse"
       id="clipPath6876">
      <path
         d="M 0,170.08 H 255.12 V 0 H 0 Z"
         transform="translate(-114.90141,-121.9506)"
         id="path6876" />
    </clipPath>
    <clipPath
       clipPathUnits="userSpaceOnUse"
       id="clipPath6878">
      <path
         d="M 0,170.08 H 255.12 V 0 H 0 Z"
         transform="translate(-115.041,-121.7055)"
         id="path6878" />
    </clipPath>
    <clipPath
       clipPathUnits="userSpaceOnUse"
       id="clipPath6880">
      <path
         d="M 0,170.08 H 255.12 V 0 H 0 Z"
         transform="translate(-115.21191,-121.6967)"
         id="path6880" />
    </clipPath>
    <clipPath
       clipPathUnits="userSpaceOnUse"
       id="clipPath6882">
      <path
         d="M 0,170.08 H 255.12 V 0 H 0 Z"
         transform="translate(-115.35891,-121.4946)"
         id="path6882" />
    </clipPath>
    <clipPath
       clipPathUnits="userSpaceOnUse"
       id="clipPath6884">
      <path
         d="M 0,170.08 H 255.12 V 0 H 0 Z"
         transform="translate(-115.5435,-121.3715)"
         id="path6884" />
    </clipPath>
    <clipPath
       clipPathUnits="userSpaceOnUse"
       id="clipPath6886">
      <path
         d="M 0,170.08 H 255.12 V 0 H 0 Z"
         transform="translate(-115.8784,-121.4179)"
         id="path6886" />
    </clipPath>
    <clipPath
       clipPathUnits="userSpaceOnUse"
       id="clipPath6888">
      <path
         d="M 0,170.08 H 255.12 V 0 H 0 Z"
         transform="translate(-116.062,-121.3681)"
         id="path6888" />
    </clipPath>
    <clipPath
       clipPathUnits="userSpaceOnUse"
       id="clipPath6890">
      <path
         d="M 0,170.08 H 255.12 V 0 H 0 Z"
         transform="translate(-116.17971,-121.3017)"
         id="path6890" />
    </clipPath>
    <clipPath
       clipPathUnits="userSpaceOnUse"
       id="clipPath6892">
      <path
         d="M 0,170.08 H 255.12 V 0 H 0 Z"
         transform="translate(-116.36181,-121.2802)"
         id="path6892" />
    </clipPath>
    <clipPath
       clipPathUnits="userSpaceOnUse"
       id="clipPath6894">
      <path
         d="M 0,170.08 H 255.12 V 0 H 0 Z"
         transform="translate(-117.02391,-121.2172)"
         id="path6894" />
    </clipPath>
    <clipPath
       clipPathUnits="userSpaceOnUse"
       id="clipPath6896">
      <path
         d="M 0,170.08 H 255.12 V 0 H 0 Z"
         transform="translate(-117.21681,-121.0126)"
         id="path6896" />
    </clipPath>
    <clipPath
       clipPathUnits="userSpaceOnUse"
       id="clipPath6898">
      <path
         d="M 0,170.08 H 255.12 V 0 H 0 Z"
         transform="translate(-117.55221,-121.0409)"
         id="path6898" />
    </clipPath>
    <clipPath
       clipPathUnits="userSpaceOnUse"
       id="clipPath6900">
      <path
         d="M 0,170.08 H 255.12 V 0 H 0 Z"
         transform="translate(-117.7407,-121.185)"
         id="path6900" />
    </clipPath>
    <clipPath
       clipPathUnits="userSpaceOnUse"
       id="clipPath6902">
      <path
         d="M 0,170.08 H 255.12 V 0 H 0 Z"
         transform="translate(-118.0425,-121.1889)"
         id="path6902" />
    </clipPath>
    <clipPath
       clipPathUnits="userSpaceOnUse"
       id="clipPath6904">
      <path
         d="M 0,170.08 H 255.12 V 0 H 0 Z"
         transform="translate(-118.2573,-121.3608)"
         id="path6904" />
    </clipPath>
    <clipPath
       clipPathUnits="userSpaceOnUse"
       id="clipPath6906">
      <path
         d="M 0,170.08 H 255.12 V 0 H 0 Z"
         transform="translate(-118.48191,-121.4574)"
         id="path6906" />
    </clipPath>
    <clipPath
       clipPathUnits="userSpaceOnUse"
       id="clipPath6908">
      <path
         d="M 0,170.08 H 255.12 V 0 H 0 Z"
         transform="translate(-118.70121,-121.6132)"
         id="path6908" />
    </clipPath>
    <clipPath
       clipPathUnits="userSpaceOnUse"
       id="clipPath6910">
      <path
         d="M 0,170.08 H 255.12 V 0 H 0 Z"
         transform="translate(-118.731,-121.9828)"
         id="path6910" />
    </clipPath>
    <clipPath
       clipPathUnits="userSpaceOnUse"
       id="clipPath6912">
      <path
         d="M 0,170.08 H 255.12 V 0 H 0 Z"
         transform="translate(-118.8921,-122.1381)"
         id="path6912" />
    </clipPath>
    <clipPath
       clipPathUnits="userSpaceOnUse"
       id="clipPath6914">
      <path
         d="M 0,170.08 H 255.12 V 0 H 0 Z"
         transform="translate(-119.17971,-122.2655)"
         id="path6914" />
    </clipPath>
    <clipPath
       clipPathUnits="userSpaceOnUse"
       id="clipPath6916">
      <path
         d="M 0,170.08 H 255.12 V 0 H 0 Z"
         transform="translate(-119.3125,-122.3622)"
         id="path6916" />
    </clipPath>
    <clipPath
       clipPathUnits="userSpaceOnUse"
       id="clipPath6918">
      <path
         d="M 0,170.08 H 255.12 V 0 H 0 Z"
         transform="translate(-119.4199,-122.7157)"
         id="path6918" />
    </clipPath>
    <clipPath
       clipPathUnits="userSpaceOnUse"
       id="clipPath6920">
      <path
         d="M 0,170.08 H 255.12 V 0 H 0 Z"
         transform="translate(-119.53911,-122.8783)"
         id="path6920" />
    </clipPath>
  </defs>
  <g
     id="layer1"
     transform="translate(-15.647027,-64.218473)">
    <path
       id="path6841"
       d="M 0,0 C 0,0 -0.011,-0.017 -0.003,-0.029 0.004,-0.041 0.029,-0.047 0.047,-0.056 0.064,-0.065 0.24,-0.15 0.256,-0.158 0.271,-0.165 0.335,-0.191 0.341,-0.208 0.347,-0.225 0.345,-0.226 0.345,-0.238 0.346,-0.251 0.347,-0.263 0.334,-0.284 0.322,-0.305 0.311,-0.353 0.307,-0.367 0.303,-0.38 0.295,-0.408 0.292,-0.415 0.289,-0.422 0.274,-0.448 0.285,-0.459 c 0.01,-0.011 0.021,-0.013 0.034,-0.004 0.014,0.007 0.038,0.041 0.048,0.056 0.009,0.015 0.018,0.038 0.015,0.058 -0.004,0.02 -0.006,0.053 -0.003,0.08 0.003,0.028 0.016,0.051 0.022,0.063 0.006,0.012 0.029,0.049 0.029,0.065 0.001,0.016 0.006,0.036 0.01,0.044 0,0 0.03,0.055 0.051,0.08 0.021,0.026 0.034,0.032 0.042,0.039 0.008,0.006 0.033,0.022 0.02,0.045 C 0.539,0.09 0.518,0.105 0.502,0.099 0.487,0.093 0.469,0.078 0.45,0.045 0.432,0.012 0.417,-0.033 0.407,-0.061 0.397,-0.088 0.389,-0.109 0.363,-0.118 0.337,-0.125 0.312,-0.106 0.298,-0.1 0.284,-0.094 0.258,-0.086 0.237,-0.074 0.215,-0.062 0.193,-0.033 0.192,-0.004 0.192,0.025 0.199,0.037 0.19,0.057 0.182,0.078 0.161,0.082 0.152,0.068 0.143,0.055 0.137,0.035 0.109,0.036 0.081,0.037 0.049,0.046 0.025,0.028 0.008,0.014 0,0 0,0"
       style="fill:#006554;fill-opacity:1;fill-rule:nonzero;stroke:none"
       transform="matrix(13.081362,0,0,-13.081362,21.609481,93.498474)"
       clip-path="url(#clipPath6842)" />
    <path
       id="path6843"
       d="m 0,0 c 0.004,-0.003 0.009,0 0.008,0.005 -0.004,0.019 -0.012,0.056 -0.012,0.059 0,0.007 0.002,0.015 -0.006,0.027 C -0.019,0.103 -0.026,0.102 -0.04,0.1 -0.053,0.098 -0.066,0.093 -0.077,0.088 -0.087,0.082 -0.095,0.074 -0.092,0.065 -0.089,0.057 -0.079,0.056 -0.073,0.052 -0.068,0.049 -0.021,0.015 0,0"
       style="fill:#006554;fill-opacity:1;fill-rule:nonzero;stroke:none"
       transform="matrix(13.081362,0,0,-13.081362,29.459683,87.257366)"
       clip-path="url(#clipPath6844)" />
    <path
       id="path6845"
       d="m 0,0 c -0.006,-0.016 -0.021,-0.029 -0.041,-0.04 -0.02,-0.012 -0.026,-0.007 -0.037,-0.002 -0.009,0.004 -0.01,0.018 -0.003,0.027 0,0 0.017,0.024 0.038,0.037 0.02,0.013 0.024,0.012 0.033,0.007 C 0,0.025 0.006,0.017 0,0 M -0.108,0.099 C -0.135,0.094 -0.144,0.098 -0.154,0.11 c -0.01,0.012 -0.013,0.038 0.001,0.052 0.014,0.014 0.028,0.017 0.05,0.008 C -0.08,0.161 -0.075,0.147 -0.077,0.123 -0.079,0.098 -0.108,0.099 -0.108,0.099 m -0.036,-0.114 c -0.005,-0.025 -0.023,-0.025 -0.041,-0.023 -0.019,0.002 -0.022,0.016 -0.023,0.031 -0.002,0.014 0.004,0.028 0.004,0.028 0.013,0.023 0.041,0.018 0.056,0.009 0.013,-0.009 0.01,-0.019 0.004,-0.045 m -0.118,0.193 c -0.012,0.008 -0.004,0.018 0.001,0.027 0,0 0.011,0.011 0.015,0.032 0.005,0.021 0.018,0.031 0.04,0.028 C -0.184,0.262 -0.172,0.235 -0.17,0.221 -0.169,0.208 -0.171,0.182 -0.208,0.175 -0.244,0.167 -0.249,0.17 -0.262,0.178 M 0.073,0.013 C 0.067,0.032 0.048,0.041 0.036,0.07 0.022,0.1 0.032,0.117 0.039,0.128 0.045,0.139 0.057,0.148 0.055,0.157 0.052,0.167 0.044,0.177 0.032,0.18 0.02,0.182 0.016,0.176 -0.006,0.176 c -0.021,-0.001 -0.043,0 -0.058,0.037 -0.016,0.037 0,0.061 0.005,0.067 0.004,0.006 0.017,0.017 0.019,0.021 0.002,0.003 0.005,0.011 -0.002,0.022 -0.007,0.012 -0.02,0.022 -0.037,0.01 C -0.095,0.32 -0.107,0.303 -0.121,0.3 -0.136,0.297 -0.15,0.299 -0.167,0.314 -0.183,0.328 -0.199,0.34 -0.212,0.345 -0.226,0.35 -0.238,0.341 -0.246,0.333 -0.254,0.324 -0.272,0.302 -0.282,0.297 -0.292,0.292 -0.313,0.29 -0.321,0.318 c -0.009,0.028 0,0.041 0.002,0.048 0.001,0.006 0.011,0.015 -0.005,0.031 C -0.341,0.414 -0.361,0.413 -0.364,0.41 -0.368,0.407 -0.376,0.402 -0.382,0.384 -0.388,0.367 -0.408,0.366 -0.42,0.367 -0.432,0.368 -0.449,0.385 -0.48,0.381 -0.512,0.377 -0.512,0.355 -0.508,0.351 -0.505,0.346 -0.48,0.331 -0.467,0.307 -0.453,0.282 -0.452,0.271 -0.448,0.254 -0.444,0.237 -0.438,0.216 -0.42,0.208 -0.402,0.199 -0.386,0.203 -0.371,0.206 -0.356,0.208 -0.342,0.208 -0.332,0.189 -0.321,0.17 -0.324,0.154 -0.307,0.122 -0.29,0.09 -0.265,0.047 -0.26,0.04 c 0.004,-0.008 0.009,-0.027 0.002,-0.047 -0.007,-0.019 -0.019,-0.025 -0.029,-0.023 -0.005,10e-4 -0.014,0.003 -0.022,0.005 -0.005,0.001 -0.009,-0.004 -0.007,-0.008 0.003,-0.006 0.005,-0.013 0.006,-0.021 0.002,-0.019 0.007,-0.04 0.018,-0.052 0.012,-0.012 0.027,-0.022 0.025,-0.039 -0.001,-0.016 -0.005,-0.024 -0.012,-0.035 -0.007,-0.011 -0.012,-0.016 -0.004,-0.021 0.007,-0.005 0.04,-0.027 0.05,-0.034 0.01,-0.007 0.043,-0.017 0.067,-0.001 0.024,0.016 0.031,0.043 0.019,0.055 -0.012,0.012 -0.032,0.021 -0.047,0.035 -0.014,0.013 -0.014,0.013 -0.03,0.021 -0.016,0.007 -0.019,0.008 -0.024,0.028 -0.004,0.02 -0.003,0.029 -0.002,0.033 0.003,0.003 0.018,0.011 0.034,0.006 0.015,-0.004 0.025,-0.014 0.035,-0.028 0.01,-0.015 0.018,-0.027 0.027,-0.023 0.009,0.004 0.027,0.025 0.033,0.034 0.006,0.009 0.022,0.024 0.033,0.021 0.012,-0.003 0.018,-0.019 0.043,-0.019 0.024,-0.001 0.031,0 0.038,0 C 0,-0.074 0.02,-0.08 0.039,-0.064 c 0.019,0.015 0.026,0.034 0.03,0.04 0.004,0.005 0.011,0.018 0.004,0.037"
       style="fill:#006554;fill-opacity:1;fill-rule:nonzero;stroke:none"
       transform="matrix(13.081362,0,0,-13.081362,34.365169,85.64842)"
       clip-path="url(#clipPath6846)" />
    <path
       id="path6847"
       d="M 0,0 C 0,0 -0.002,0.004 0,0.01 0.002,0.016 0.022,0.033 0.038,0.041 0.052,0.047 0.067,0.062 0.088,0.046 0.109,0.031 0.119,0.01 0.118,-0.007 0.117,-0.023 0.111,-0.042 0.091,-0.04 0.071,-0.039 0.054,-0.035 0.037,-0.028 0.02,-0.021 0.006,-0.012 0,0"
       style="fill:#006554;fill-opacity:1;fill-rule:nonzero;stroke:none"
       transform="matrix(13.081362,0,0,-13.081362,26.720433,84.561575)"
       clip-path="url(#clipPath6848)" />
    <path
       id="path6849"
       d="m 0,0 c -0.021,-0.002 -0.045,0.008 -0.062,0.024 -0.018,0.016 -0.016,0.032 0.014,0.04 0,0 0.025,0.004 0.037,0.004 C 0,0.068 0.018,0.064 0.023,0.042 0.029,0.019 0.02,0.002 0,0 m -0.085,-0.144 c -0.018,-0.009 -0.037,-0.001 -0.04,0.023 -0.002,0.024 0,0.044 0.007,0.055 0.008,0.009 0.03,0.012 0.044,0.005 0,0 0.02,-0.01 0.021,-0.03 0,-0.021 -0.014,-0.043 -0.032,-0.053 M 0.25,0.041 C 0.244,0.06 0.234,0.063 0.203,0.053 0.173,0.043 0.151,0.027 0.143,0.022 0.134,0.018 0.12,0.008 0.103,0.016 0.084,0.023 0.09,0.04 0.092,0.046 0.093,0.052 0.111,0.12 0.114,0.133 0.116,0.147 0.124,0.182 0.103,0.214 0.082,0.247 0.056,0.252 0.035,0.251 0.016,0.25 -0.006,0.244 -0.013,0.2 -0.014,0.197 -0.011,0.194 -0.008,0.195 0.001,0.199 0.02,0.203 0.037,0.194 0.062,0.181 0.049,0.143 0.046,0.134 0.042,0.126 0.027,0.102 -0.002,0.111 c -0.02,0.007 -0.025,0.027 -0.026,0.038 0,0.003 -0.004,0.005 -0.007,0.003 C -0.049,0.141 -0.084,0.111 -0.091,0.098 -0.1,0.08 -0.106,0.069 -0.106,0.055 -0.107,0.04 -0.121,0.031 -0.139,0.032 c -0.019,0.001 -0.034,0.01 -0.042,0.033 -0.008,0.024 -0.013,0.051 -0.006,0.077 0.007,0.026 0.021,0.052 0.044,0.073 0.023,0.022 0.047,0.057 0.065,0.072 0.019,0.015 0.033,0.027 0.038,0.032 0.005,0.004 0.012,0.011 0,0.028 -0.013,0.018 -0.036,0.02 -0.045,0.016 C -0.094,0.36 -0.097,0.354 -0.111,0.338 -0.126,0.321 -0.136,0.308 -0.159,0.312 -0.182,0.317 -0.193,0.329 -0.204,0.335 -0.214,0.342 -0.218,0.348 -0.242,0.349 -0.266,0.35 -0.284,0.348 -0.289,0.335 -0.293,0.321 -0.287,0.308 -0.273,0.3 -0.26,0.293 -0.25,0.281 -0.25,0.26 -0.25,0.24 -0.257,0.224 -0.262,0.208 -0.267,0.191 -0.282,0.162 -0.287,0.147 -0.292,0.133 -0.297,0.109 -0.279,0.098 -0.26,0.086 -0.251,0.084 -0.223,0.079 c 0.027,-0.005 0.025,-0.031 0.026,-0.037 0,-0.007 0.002,-0.089 0.002,-0.104 0,-0.015 -0.003,-0.06 -0.011,-0.089 -0.007,-0.03 -0.022,-0.062 -0.041,-0.094 -0.008,-0.014 -0.017,-0.029 -0.024,-0.042 -0.005,-0.01 0.003,-0.022 0.015,-0.02 0.027,0.005 0.066,0.014 0.082,0.026 0.026,0.02 0.032,0.031 0.04,0.052 0.009,0.022 0.03,0.032 0.045,0.032 0.014,0.001 0.035,-0.005 0.052,0.015 0.016,0.021 0.04,0.053 0.079,0.08 0.038,0.027 0.108,0.059 0.147,0.067 0.04,0.01 0.056,0.024 0.06,0.037 0.002,0.01 0.004,0.029 0.001,0.039"
       style="fill:#006554;fill-opacity:1;fill-rule:nonzero;stroke:none"
       transform="matrix(13.081362,0,0,-13.081362,41.882977,77.364137)"
       clip-path="url(#clipPath6850)" />
    <path
       id="path6851"
       d="m 0,0 c -0.004,-0.012 -0.014,-0.029 -0.041,-0.02 -0.027,0.01 -0.065,0.03 -0.073,0.047 -0.009,0.017 -0.003,0.032 0.012,0.045 0.016,0.014 0.045,0.035 0.053,0.039 0.007,0.003 0.021,0.005 0.027,-0.006 0,0 0.01,-0.017 0.018,-0.049 C 0.003,0.024 0.004,0.012 0,0 m -0.13,0.152 c -0.006,0.008 -0.014,0.015 0.002,0.033 0.016,0.018 0.016,0.033 0.006,0.05 -0.009,0.017 -0.04,0.042 -0.056,0.057 -0.017,0.016 -0.03,0.032 -0.017,0.049 0.012,0.017 0.052,0.037 0.052,0.037 0,0 0.012,0.009 0.03,0.003 C -0.094,0.375 -0.092,0.363 -0.088,0.35 -0.084,0.336 -0.08,0.312 -0.07,0.279 -0.06,0.245 -0.041,0.196 -0.037,0.178 -0.033,0.16 -0.03,0.147 -0.043,0.141 -0.056,0.135 -0.065,0.142 -0.068,0.142 -0.071,0.143 -0.083,0.145 -0.096,0.14 -0.109,0.135 -0.124,0.144 -0.13,0.152 M 0.063,0.048 C 0.052,0.078 0.026,0.173 0.019,0.205 0.011,0.236 0.004,0.255 -0.007,0.274 c -0.011,0.018 -0.02,0.048 -0.018,0.063 0.003,0.014 0.004,0.028 0.004,0.05 0,0.023 0,0.04 -0.011,0.049 C -0.043,0.445 -0.064,0.458 -0.105,0.455 -0.146,0.452 -0.16,0.439 -0.194,0.42 -0.229,0.401 -0.274,0.372 -0.294,0.349 -0.315,0.325 -0.322,0.317 -0.321,0.302 -0.321,0.287 -0.295,0.284 -0.278,0.279 -0.262,0.274 -0.245,0.271 -0.234,0.247 -0.222,0.222 -0.238,0.208 -0.247,0.197 -0.257,0.187 -0.273,0.18 -0.277,0.171 -0.28,0.163 -0.27,0.156 -0.261,0.149 -0.252,0.142 -0.217,0.123 -0.205,0.1 -0.193,0.077 -0.219,0.053 -0.238,0.039 -0.258,0.024 -0.277,0.021 -0.293,0.031 -0.31,0.042 -0.31,0.071 -0.31,0.105 c 0,0.035 -0.004,0.05 -0.009,0.07 -0.005,0.02 -0.029,0.05 -0.039,0.057 C -0.369,0.239 -0.381,0.253 -0.381,0.253 -0.4,0.267 -0.412,0.25 -0.419,0.241 -0.427,0.231 -0.432,0.2 -0.426,0.187 -0.42,0.173 -0.409,0.121 -0.403,0.091 c 0.005,-0.03 0.017,-0.14 0.02,-0.168 0.004,-0.027 -0.004,-0.029 0.005,-0.051 0.01,-0.023 0.022,-0.022 0.049,0.004 0.027,0.027 0.03,0.056 0.029,0.069 0,0.013 0.001,0.029 0.012,0.039 0.011,0.01 0.044,0.016 0.073,0.015 0.028,-0.001 0.042,-0.018 0.051,-0.036 0.01,-0.017 0.013,-0.048 0.014,-0.069 0.001,-0.022 0.003,-0.026 0.008,-0.029 0.006,-0.003 0.013,-0.006 0.022,0.008 0.011,0.014 0.012,0.032 0.024,0.049 0.012,0.017 0.032,0.022 0.049,0.012 0.017,-0.011 0.053,-0.024 0.076,-0.032 0.023,-0.008 0.032,-0.003 0.044,0.017 0.012,0.02 0.012,0.048 0.012,0.055 0,0.007 -0.011,0.045 -0.022,0.074"
       style="fill:#006554;fill-opacity:1;fill-rule:nonzero;stroke:none"
       transform="matrix(13.081362,0,0,-13.081362,54.345614,73.646393)"
       clip-path="url(#clipPath6852)" />
    <path
       id="path6853"
       d="m 0,0 c -0.008,-0.004 -0.013,-0.004 -0.019,-0.003 -0.006,0.002 -0.018,0.005 -0.015,0.019 0.003,0.013 0.009,0.014 0.02,0.015 0,0 0.014,0.002 0.021,-0.006 C 0.013,0.017 0.009,0.004 0,0 m -0.287,-0.062 c -0.019,-0.002 -0.037,0.007 -0.04,0.029 -0.003,0.022 0.007,0.034 0.017,0.04 0.011,0.006 0.018,0.004 0.024,0.003 0,0 0.019,-0.004 0.022,-0.024 0.003,-0.021 -0.005,-0.045 -0.023,-0.048 m 0.506,-0.172 c -0.011,0.007 -0.125,0.096 -0.14,0.11 -0.015,0.013 -0.051,0.038 -0.053,0.066 -0.002,0.028 0.021,0.042 0.031,0.05 C 0.065,0 0.095,0.036 0.11,0.057 0.126,0.078 0.141,0.09 0.145,0.097 0.149,0.103 0.16,0.109 0.152,0.124 0.144,0.139 0.129,0.143 0.121,0.161 0.111,0.179 0.116,0.199 0.13,0.208 0.144,0.218 0.188,0.234 0.201,0.238 0.213,0.243 0.218,0.256 0.211,0.267 0.204,0.278 0.174,0.302 0.167,0.317 0.159,0.333 0.158,0.345 0.156,0.374 0.153,0.403 0.134,0.401 0.125,0.4 0.116,0.4 0.101,0.391 0.106,0.371 0.112,0.351 0.119,0.323 0.107,0.3 0.095,0.277 0.065,0.258 0.049,0.25 0.033,0.243 0.02,0.242 0,0.261 -0.019,0.28 -0.046,0.292 -0.057,0.321 -0.068,0.349 -0.062,0.363 -0.076,0.383 -0.09,0.403 -0.103,0.404 -0.113,0.404 -0.124,0.403 -0.13,0.396 -0.128,0.384 -0.126,0.371 -0.126,0.341 -0.133,0.324 -0.139,0.306 -0.158,0.292 -0.185,0.292 -0.213,0.292 -0.243,0.299 -0.251,0.285 -0.26,0.272 -0.26,0.254 -0.25,0.228 -0.239,0.202 -0.216,0.188 -0.209,0.167 -0.203,0.145 -0.205,0.122 -0.227,0.107 -0.249,0.092 -0.313,0.066 -0.339,0.061 c 0,0 -0.011,-0.001 -0.024,-0.004 -0.014,-0.002 -0.02,-0.009 -0.013,-0.026 0.007,-0.017 0.028,-0.047 0.039,-0.077 0.01,-0.03 0.038,-0.078 0.042,-0.084 0.003,-0.007 0.004,-0.01 0.006,-0.014 0.002,-0.003 0.007,-0.016 0.021,-0.014 0.014,0.003 0.015,0.013 0.018,0.019 0.003,0.007 0.011,0.019 0.012,0.036 0.001,0.018 0.004,0.033 0.016,0.062 0.013,0.03 0.025,0.068 0.031,0.079 0.005,0.011 0.012,0.024 0.028,0.036 0.016,0.012 0.017,0.012 0.026,0.014 0.009,0.003 0.023,0.008 0.019,0.022 -0.005,0.015 -0.027,0.031 -0.021,0.058 0.006,0.029 0.035,0.037 0.056,0.044 0.02,0.008 0.033,0.013 0.044,0.016 0.01,0.003 0.025,0.003 0.034,0 C 0.004,0.224 0.029,0.204 0.041,0.183 0.052,0.162 0.047,0.143 0.028,0.129 0.009,0.116 -0.023,0.1 -0.033,0.096 -0.043,0.091 -0.09,0.084 -0.092,0.069 -0.093,0.054 -0.089,0.044 -0.086,0.028 c 0.003,-0.016 0.006,-0.023 0.01,-0.03 0.004,-0.008 0.02,-0.019 0.017,-0.046 -0.003,-0.027 -0.031,-0.039 -0.045,-0.041 -0.013,-0.002 -0.031,0.002 -0.042,0.009 -0.012,0.007 -0.022,0.004 -0.027,-0.004 -0.004,-0.007 -0.012,-0.016 -0.006,-0.028 0.007,-0.013 0.012,-0.024 0.026,-0.027 0.014,-0.002 0.039,0.001 0.064,0.012 0.026,0.01 0.045,0.027 0.065,0.021 0.019,-0.005 0.025,-0.022 0.034,-0.037 0.009,-0.016 0.032,-0.064 0.049,-0.08 0.017,-0.016 0.036,-0.032 0.076,-0.032 0.04,0 0.043,-0.003 0.054,-0.006 0.011,-0.004 0.024,-0.011 0.034,-0.002 0.009,0.01 0.006,0.021 -0.004,0.029"
       style="fill:#006554;fill-opacity:1;fill-rule:nonzero;stroke:none"
       transform="matrix(13.081362,0,0,-13.081362,66.073046,73.741691)"
       clip-path="url(#clipPath6854)" />
    <path
       id="path6855"
       d="M 0,0 C 0,0 0.018,0.019 0.019,0.023 0.021,0.027 0.023,0.038 0.015,0.046 0.005,0.055 -0.008,0.055 -0.02,0.055 -0.031,0.054 -0.062,0.059 -0.081,0.077 -0.1,0.094 -0.109,0.115 -0.109,0.125 c 0,0.009 0.009,0.012 0.021,0.01 C -0.077,0.134 -0.056,0.128 0.004,0.14 0.064,0.151 0.111,0.162 0.119,0.164 0.126,0.166 0.147,0.178 0.142,0.201 0.135,0.225 0.121,0.239 0.119,0.252 0.117,0.264 0.117,0.283 0.124,0.292 0.13,0.301 0.143,0.301 0.152,0.297 0.161,0.293 0.186,0.273 0.201,0.268 0.216,0.263 0.234,0.264 0.25,0.282 0.266,0.3 0.291,0.325 0.298,0.333 0.306,0.342 0.324,0.361 0.329,0.376 0.334,0.391 0.334,0.396 0.343,0.396 0.352,0.396 0.366,0.374 0.372,0.361 0.379,0.349 0.38,0.324 0.363,0.302 0.346,0.281 0.333,0.275 0.333,0.262 0.332,0.249 0.34,0.24 0.355,0.237 0.371,0.235 0.396,0.234 0.404,0.209 0.412,0.184 0.407,0.17 0.399,0.161 0.392,0.152 0.379,0.152 0.363,0.152 c -0.016,0 -0.044,0 -0.072,0.005 C 0.263,0.162 0.237,0.164 0.228,0.149 0.218,0.135 0.221,0.124 0.216,0.114 0.211,0.105 0.206,0.103 0.193,0.1 0.18,0.097 0.166,0.085 0.167,0.068 0.168,0.051 0.187,0.005 0.203,-0.026 0.219,-0.059 0.24,-0.076 0.261,-0.092 0.271,-0.1 0.28,-0.111 0.287,-0.121 0.291,-0.127 0.285,-0.135 0.278,-0.133 0.259,-0.127 0.231,-0.119 0.219,-0.114 0.199,-0.106 0.176,-0.099 0.164,-0.068 0.152,-0.036 0.149,-0.003 0.143,0.013 0.137,0.03 0.123,0.034 0.114,0.035 0.106,0.037 0.093,0.034 0.081,0.021 0.069,0.008 0.042,-0.027 0.032,-0.036 0.023,-0.045 0.009,-0.07 -0.004,-0.065 -0.018,-0.061 -0.025,-0.05 -0.02,-0.031 -0.016,-0.013 -0.007,-0.008 0,0"
       style="fill:#006554;fill-opacity:1;fill-rule:nonzero;stroke:none"
       transform="matrix(13.081362,0,0,-13.081362,74.433408,79.682072)"
       clip-path="url(#clipPath6856)" />
    <path
       id="path6857"
       d="m 0,0 c -0.005,0.005 -0.013,0.002 -0.015,-0.005 -0.002,-0.012 -0.004,-0.031 -0.003,-0.054 10e-4,-0.04 0.014,-0.053 0.017,-0.06 0.002,-0.007 0.013,-0.023 0.038,-0.008 0.025,0.015 0.015,0.049 0.009,0.063 C 0.041,-0.051 0.025,-0.023 0,0"
       style="fill:#006554;fill-opacity:1;fill-rule:nonzero;stroke:none"
       transform="matrix(13.081362,0,0,-13.081362,80.546253,75.574606)"
       clip-path="url(#clipPath6858)" />
    <path
       id="path6859"
       d="M 0,0 C 0,0 0.017,-0.057 0.084,-0.08 0.151,-0.104 0.186,-0.09 0.208,-0.061 0.231,-0.032 0.244,-0.003 0.25,0 0.257,0.004 0.271,-0.002 0.282,-0.015 0.292,-0.027 0.307,-0.048 0.303,-0.067 0.298,-0.086 0.288,-0.096 0.259,-0.106 0.23,-0.116 0.196,-0.125 0.197,-0.138 0.198,-0.15 0.219,-0.166 0.237,-0.185 0.256,-0.203 0.273,-0.227 0.274,-0.249 0.275,-0.271 0.263,-0.28 0.245,-0.285 0.226,-0.291 0.218,-0.283 0.2,-0.259 0.182,-0.235 0.147,-0.212 0.138,-0.204 0.128,-0.196 0.109,-0.18 0.098,-0.201 0.086,-0.222 0.066,-0.286 0.06,-0.317 0.053,-0.348 0.046,-0.415 0.054,-0.453 0.061,-0.492 0.063,-0.523 0.06,-0.532 0.057,-0.541 0.054,-0.542 0.054,-0.542 c 0,0 -0.062,0.053 -0.08,0.087 -0.019,0.035 -0.02,0.067 -0.002,0.103 0.018,0.037 0.06,0.119 0.065,0.133 0.004,0.013 0.008,0.022 -0.015,0.023 -0.024,0.001 -0.054,-0.011 -0.073,-0.017 -0.018,-0.007 -0.066,-0.021 -0.127,0.019 -0.049,0.032 -0.065,0.065 -0.073,0.091 -0.002,0.007 0.005,0.013 0.011,0.009 0.021,-0.014 0.06,-0.036 0.108,-0.045 0.073,-0.015 0.12,-0.009 0.128,-0.007 0.007,0.001 0.014,0.004 0.018,0.008 0.004,0.005 0.01,0.01 0.01,0.01 0,0 -0.058,0.036 -0.062,0.082 C -0.043,0.011 -0.003,0.021 0,0"
       style="fill:#006554;fill-opacity:1;fill-rule:nonzero;stroke:none"
       transform="matrix(13.081362,0,0,-13.081362,84.443172,82.658195)"
       clip-path="url(#clipPath6860)" />
    <path
       id="path6861"
       d="m 0,0 c -0.001,-0.008 -0.011,-0.021 -0.034,-0.016 -0.022,0.005 -0.042,0.011 -0.049,0.034 -0.006,0.022 0.02,0.024 0.024,0.024 0.005,0 0.015,-0.005 0.015,-0.005 0,0 0.027,-0.009 0.033,-0.016 C -0.005,0.015 0.001,0.008 0,0 m -0.54,-0.107 c -0.03,0 -0.032,0.005 -0.032,0.026 -0.001,0.022 0,0.021 -0.001,0.029 -0.001,0.009 0.009,0.026 0.035,0.019 0,0 0.019,-0.007 0.029,-0.026 0.01,-0.02 -0.001,-0.048 -0.031,-0.048 M 0.057,0 C 0.042,0.023 0.014,0.054 -0.015,0.068 -0.043,0.083 -0.078,0.108 -0.088,0.124 -0.099,0.139 -0.104,0.142 -0.112,0.137 -0.121,0.131 -0.117,0.111 -0.124,0.1 -0.13,0.088 -0.138,0.072 -0.146,0.054 -0.153,0.037 -0.174,0.031 -0.199,0.038 c -0.025,0.006 -0.04,0.021 -0.046,0.042 -0.005,0.022 0.004,0.016 0.027,0.029 0.022,0.013 0.033,0.031 0.05,0.042 0.015,0.012 0.022,0.017 0.023,0.023 0.002,0.005 -0.001,0.01 -0.001,0.021 C -0.148,0.206 -0.147,0.226 -0.165,0.23 -0.181,0.234 -0.204,0.221 -0.227,0.202 -0.25,0.183 -0.258,0.153 -0.261,0.139 -0.263,0.125 -0.27,0.109 -0.29,0.112 -0.311,0.114 -0.342,0.144 -0.357,0.163 -0.373,0.182 -0.366,0.203 -0.376,0.215 -0.386,0.228 -0.399,0.219 -0.405,0.216 -0.412,0.212 -0.425,0.207 -0.447,0.195 -0.469,0.184 -0.479,0.167 -0.473,0.146 -0.467,0.125 -0.452,0.12 -0.435,0.124 c 0.017,0.004 0.023,0.016 0.038,0.018 0.014,0.001 0.036,-0.01 0.063,-0.029 0.026,-0.02 0.104,-0.11 0.124,-0.13 0.02,-0.019 0.032,-0.041 0.035,-0.056 0.004,-0.015 0.017,-0.059 -0.022,-0.059 -0.039,0 -0.058,0.025 -0.065,0.042 -0.007,0.016 0.001,0.031 -0.007,0.058 -0.008,0.026 -0.03,0.048 -0.05,0.061 -0.019,0.013 -0.028,0.02 -0.042,0.013 C -0.375,0.037 -0.384,0.002 -0.392,-0.013 -0.4,-0.029 -0.413,-0.035 -0.432,-0.025 -0.451,-0.017 -0.453,0 -0.477,0.033 -0.501,0.067 -0.517,0.064 -0.517,0.064 -0.545,0.062 -0.578,-0.003 -0.583,-0.021 -0.587,-0.039 -0.601,-0.094 -0.605,-0.112 -0.611,-0.129 -0.62,-0.131 -0.61,-0.143 c 0.009,-0.012 0.018,-0.004 0.024,-0.003 0.006,0.002 0.016,0.006 0.029,0.006 0.014,0.001 0.04,0.002 0.05,0.013 0.009,0.01 0.009,0.015 0.033,0.012 0.024,-0.004 0.042,-0.015 0.056,-0.035 0.015,-0.02 0.019,-0.042 0.028,-0.052 0.01,-0.01 0.029,-0.013 0.037,0.004 0.008,0.018 0.002,0.038 -0.003,0.042 -0.005,0.005 -0.014,0.014 -0.024,0.034 -0.01,0.019 -0.013,0.031 -0.001,0.048 0.011,0.017 0.028,0.012 0.046,0.005 0.017,-0.007 0.036,-0.017 0.05,-0.049 0.014,-0.032 0.04,-0.071 0.063,-0.104 0.023,-0.032 0.041,-0.046 0.067,-0.033 0.026,0.012 0.036,0.036 0.036,0.061 -0.001,0.025 -0.016,0.096 -0.031,0.12 -0.016,0.023 -0.024,0.042 -0.016,0.053 0.008,0.011 0.037,0.006 0.08,-0.01 0.043,-0.015 0.062,-0.043 0.068,-0.054 0.006,-0.011 0.009,-0.025 0.03,-0.026 0.021,-0.001 0.035,0.015 0.048,0.042 C 0.073,-0.042 0.072,-0.021 0.057,0"
       style="fill:#006554;fill-opacity:1;fill-rule:nonzero;stroke:none"
       transform="matrix(13.081362,0,0,-13.081362,94.483195,96.199823)"
       clip-path="url(#clipPath6862)" />
    <path
       id="path6863"
       d="M 0,0 C -1.708,0 -3.092,1.384 -3.092,3.092 -3.092,4.8 -1.708,6.184 0,6.184 1.708,6.184 3.092,4.8 3.092,3.092 3.092,1.384 1.708,0 0,0 m 0,6.29 c -1.766,0 -3.198,-1.432 -3.198,-3.198 0,-1.766 1.432,-3.197 3.198,-3.197 1.766,0 3.198,1.431 3.198,3.197 C 3.198,4.858 1.766,6.29 0,6.29"
       style="fill:#006554;fill-opacity:1;fill-rule:nonzero;stroke:none"
       transform="matrix(13.081362,0,0,-13.081362,57.481223,146.50024)"
       clip-path="url(#clipPath6864)" />
    <path
       id="path6865"
       d="m 0,0 v 0.052 c 0,0.056 -0.046,0.102 -0.102,0.102 h -0.239 c -0.057,0 -0.103,-0.046 -0.103,-0.102 V 0 c -1.14,-0.112 -2.031,-1.073 -2.031,-2.243 0,-1.244 1.009,-2.253 2.253,-2.253 1.244,0 2.253,1.009 2.253,2.253 C 2.031,-1.073 1.14,-0.112 0,0 m 0.011,-4.369 c -0.026,-0.002 -0.049,0.018 -0.049,0.044 v 0.152 c 0,0.023 0.017,0.041 0.039,0.044 0.434,0.05 0.822,0.246 1.116,0.538 -0.2,0.386 -0.309,0.808 -0.325,1.233 h -0.896 v -0.31 h 0.695 c 0.024,0 0.044,-0.02 0.044,-0.044 V -2.86 c 0,-0.025 -0.02,-0.044 -0.044,-0.044 H -0.104 V -3.22 h 0.695 c 0.024,0 0.044,-0.019 0.044,-0.044 v -0.149 c 0,-0.024 -0.02,-0.044 -0.044,-0.044 h -0.695 v -0.88 c 0,-0.025 -0.02,-0.045 -0.044,-0.045 h -0.147 c -0.024,0 -0.044,0.02 -0.044,0.045 v 0.88 h -0.695 c -0.025,0 -0.045,0.02 -0.045,0.044 v 0.149 c 0,0.025 0.02,0.044 0.045,0.044 h 0.695 v 0.316 h -0.695 c -0.025,0 -0.045,0.019 -0.045,0.044 v 0.148 c 0,0.024 0.02,0.044 0.045,0.044 h 0.695 v 0.31 h -0.896 c -0.016,-0.425 -0.125,-0.847 -0.326,-1.233 0.294,-0.292 0.683,-0.488 1.116,-0.538 0.022,-0.003 0.039,-0.021 0.039,-0.044 v -0.152 c 0,-0.026 -0.022,-0.046 -0.048,-0.044 -1.072,0.117 -1.907,1.024 -1.907,2.126 0,0.478 0.157,0.92 0.422,1.276 0.019,0.026 0.058,0.023 0.074,-0.005 0.024,-0.044 0.047,-0.088 0.069,-0.132 0.012,-0.027 0.009,-0.058 -0.007,-0.083 -0.448,-0.67 -0.425,-1.564 0.073,-2.211 0.378,0.797 0.342,1.741 -0.108,2.509 -0.01,0.017 -0.009,0.037 0.004,0.052 0.035,0.041 0.073,0.08 0.111,0.118 0.02,0.02 0.054,0.015 0.068,-0.009 0.26,-0.428 0.4,-0.909 0.42,-1.394 h 2.027 c 0.02,0.485 0.159,0.966 0.419,1.394 0.015,0.024 0.048,0.029 0.068,0.009 0.037,-0.036 0.072,-0.073 0.106,-0.112 0.013,-0.014 0.014,-0.035 0.005,-0.051 -0.454,-0.77 -0.492,-1.717 -0.112,-2.516 0.497,0.647 0.521,1.541 0.073,2.211 -0.017,0.025 -0.02,0.056 -0.007,0.083 0.023,0.047 0.047,0.094 0.073,0.14 0.016,0.027 0.055,0.029 0.074,0.004 0.267,-0.358 0.426,-0.801 0.426,-1.283 0,-1.102 -0.834,-2.009 -1.906,-2.126 m -1.096,3.434 c -0.005,0.028 0.014,0.056 0.042,0.06 l 0.207,0.039 c 0.028,0.004 0.055,-0.014 0.061,-0.042 l 0.023,-0.127 c 0.005,-0.029 -0.014,-0.056 -0.042,-0.061 l -0.02,-0.004 0.125,-0.677 c 0.005,-0.031 -0.019,-0.061 -0.052,-0.061 h -0.214 c -0.025,0 -0.046,0.018 -0.051,0.043 l -0.024,0.132 c -0.006,0.028 0.013,0.055 0.042,0.06 l 0.019,0.004 z m 0.981,0.141 v -0.97 c 0,-0.024 -0.02,-0.044 -0.044,-0.044 h -0.147 c -0.024,0 -0.044,0.02 -0.044,0.044 v 0.97 c 0,0.024 0.02,0.044 0.044,0.044 h 0.147 c 0.024,0 0.044,-0.02 0.044,-0.044 m 0.448,-0.285 c -0.028,0.005 -0.047,0.033 -0.041,0.06 l 0.026,0.141 c 0.004,0.028 0.032,0.047 0.06,0.042 L 0.671,-0.888 C 0.7,-0.893 0.718,-0.92 0.713,-0.949 L 0.687,-1.089 C 0.682,-1.117 0.655,-1.136 0.627,-1.131 L 0.604,-1.126 0.486,-1.765 C 0.482,-1.79 0.46,-1.808 0.435,-1.808 h -0.14 c -0.032,0 -0.057,0.03 -0.051,0.061 l 0.122,0.664 z m -1.941,0.475 c 0.344,0.289 0.78,0.472 1.258,0.498 v 0.1 c 0,0.03 0.025,0.055 0.056,0.055 h 0.123 c 0.031,0 0.056,-0.025 0.056,-0.055 v -0.1 C 0.374,-0.132 0.81,-0.315 1.154,-0.604 1.175,-0.622 1.179,-0.652 1.165,-0.676 1.143,-0.711 1.122,-0.747 1.102,-0.783 1.084,-0.814 1.043,-0.822 1.016,-0.799 0.683,-0.513 0.251,-0.34 -0.222,-0.34 c -0.473,0 -0.905,-0.173 -1.237,-0.459 -0.028,-0.023 -0.069,-0.015 -0.087,0.016 -0.02,0.036 -0.041,0.072 -0.062,0.107 -0.015,0.024 -0.01,0.054 0.011,0.072"
       style="fill:#006554;fill-opacity:1;fill-rule:nonzero;stroke:none"
       transform="matrix(13.081362,0,0,-13.081362,60.381367,77.644099)"
       clip-path="url(#clipPath6866)" />
    <path
       id="path6867"
       d="M 0,0 C 0.012,0.003 0.021,0.009 0.029,0.015 0.037,0.021 0.043,0.028 0.047,0.036 0.052,0.044 0.055,0.052 0.057,0.061 0.06,0.069 0.062,0.078 0.063,0.086 0.065,0.094 0.066,0.101 0.068,0.108 0.07,0.116 0.073,0.122 0.076,0.128 0.079,0.134 0.083,0.14 0.088,0.144 0.093,0.148 0.1,0.152 0.107,0.154 0.122,0.159 0.133,0.159 0.143,0.153 0.153,0.148 0.16,0.14 0.164,0.127 0.166,0.119 0.167,0.109 0.167,0.099 L 0.119,0.072 0.126,0.059 0.195,0.07 0.198,0.075 V 0.076 C 0.197,0.096 0.194,0.115 0.189,0.132 0.181,0.156 0.168,0.175 0.149,0.187 0.13,0.2 0.107,0.202 0.083,0.194 0.07,0.19 0.06,0.185 0.051,0.179 0.043,0.172 0.037,0.165 0.032,0.157 0.028,0.149 0.024,0.14 0.021,0.132 0.019,0.123 0.017,0.114 0.016,0.106 0.014,0.098 0.012,0.091 0.01,0.083 0.009,0.077 0.006,0.07 0.003,0.064 0,0.059 -0.003,0.054 -0.008,0.049 -0.013,0.045 -0.02,0.042 -0.028,0.039 -0.042,0.034 -0.055,0.035 -0.065,0.04 -0.076,0.045 -0.083,0.055 -0.087,0.07 -0.091,0.08 -0.092,0.091 -0.09,0.103 L -0.036,0.132 -0.043,0.146 -0.116,0.132 -0.118,0.131 -0.121,0.127 V 0.126 c -0.001,-0.023 0.002,-0.043 0.007,-0.061 0.009,-0.026 0.023,-0.046 0.043,-0.059 0.012,-0.007 0.025,-0.011 0.04,-0.011 0.01,0 0.02,0.002 0.031,0.005"
       style="fill:#006554;fill-opacity:1;fill-rule:nonzero;stroke:none"
       transform="matrix(13.081362,0,0,-13.081362,24.343502,118.2749)"
       clip-path="url(#clipPath6868)" />
    <path
       id="path6869"
       d="m 0,0 c 0,0.001 0,0.001 0.001,0.002 0.011,0.005 0.023,0.01 0.038,0.016 l 0.155,0.064 c 0.013,0.005 0.023,0.009 0.032,0.013 0.002,0 0.003,0 0.003,0 L 0.247,0.076 0.262,0.083 0.26,0.087 C 0.254,0.1 0.249,0.112 0.244,0.125 0.239,0.136 0.234,0.148 0.229,0.161 L 0.228,0.166 0.212,0.159 0.213,0.136 c 0,-0.001 0,-0.001 -0.002,-0.002 C 0.202,0.13 0.191,0.125 0.179,0.121 L 0.119,0.096 0.077,0.198 0.137,0.223 c 0.012,0.006 0.023,0.009 0.032,0.013 0.002,0.001 0.002,0 0.003,0 L 0.188,0.219 0.203,0.227 0.201,0.23 C 0.196,0.242 0.19,0.254 0.186,0.266 0.181,0.278 0.176,0.291 0.171,0.304 L 0.169,0.309 0.154,0.302 V 0.277 c 0,0 0,-0.001 -0.002,-0.002 C 0.144,0.271 0.133,0.267 0.121,0.262 L -0.035,0.198 C -0.049,0.191 -0.062,0.187 -0.073,0.183 -0.074,0.182 -0.074,0.182 -0.075,0.183 L -0.092,0.202 -0.107,0.194 -0.105,0.19 C -0.1,0.177 -0.094,0.165 -0.089,0.152 -0.084,0.141 -0.08,0.128 -0.075,0.116 l 0.002,-0.005 0.015,0.008 -10e-4,0.023 c 0,0 0,0.001 0.003,0.002 0.01,0.004 0.022,0.009 0.037,0.015 L 0.05,0.188 0.093,0.085 0.023,0.057 C 0.008,0.05 -0.004,0.045 -0.014,0.042 -0.017,0.041 -0.017,0.041 -0.018,0.042 L -0.034,0.059 -0.049,0.051 -0.047,0.047 C -0.042,0.036 -0.037,0.024 -0.032,0.012 -0.026,0 -0.021,-0.013 -0.017,-0.027 L -0.015,-0.031 0,-0.024 Z"
       style="fill:#006554;fill-opacity:1;fill-rule:nonzero;stroke:none"
       transform="matrix(13.081362,0,0,-13.081362,24.841909,121.59625)"
       clip-path="url(#clipPath6870)" />
    <path
       id="path6871"
       d="m 0,0 -0.07,-0.067 -0.026,0.049 z m -0.13,-0.192 c -0.001,0.003 0,0.006 0.001,0.009 0.002,0.002 0.004,0.006 0.013,0.015 L 0.073,0.014 0.076,0.017 0.061,0.036 -0.204,-0.007 c -0.007,-0.001 -0.013,-0.002 -0.016,-0.002 -0.003,0 -0.006,0.002 -0.009,0.004 L -0.245,0.009 -0.258,0 -0.256,-0.004 c 0.006,-0.011 0.011,-0.02 0.016,-0.029 0.004,-0.009 0.01,-0.02 0.017,-0.034 l 0.002,-0.005 0.015,0.009 -0.002,0.019 c -0.001,0.002 0,0.003 0,0.003 0,0 0,0.001 0.001,0.002 0.002,0.001 0.004,0.002 0.01,0.003 l 0.072,0.014 0.034,-0.065 -0.039,-0.037 c -0.006,-0.005 -0.011,-0.01 -0.014,-0.013 -0.003,-0.003 -0.006,-0.005 -0.008,-0.006 -0.001,-0.001 -0.002,-0.001 -0.002,-0.001 0,0 -0.001,0.001 -0.003,0.002 l -0.015,0.014 -0.014,-0.009 0.002,-0.004 c 0.008,-0.015 0.016,-0.028 0.021,-0.039 0.006,-0.011 0.012,-0.023 0.018,-0.036 l 0.002,-0.004 0.015,0.008 z"
       style="fill:#006554;fill-opacity:1;fill-rule:nonzero;stroke:none"
       transform="matrix(13.081362,0,0,-13.081362,28.156767,122.28039)"
       clip-path="url(#clipPath6872)" />
    <path
       id="path6873"
       d="m 0,0 c 0.002,0.001 0.003,0 0.003,0 l 0.021,-0.015 0.013,0.011 -0.002,0.003 C 0.027,0.01 0.02,0.02 0.016,0.027 0.011,0.034 0.005,0.044 -0.002,0.056 L -0.005,0.06 -0.019,0.05 -0.014,0.027 c 0,-0.001 0,-0.002 -10e-4,-0.002 -0.008,-0.006 -0.017,-0.012 -0.028,-0.02 l -0.121,-0.078 0.1,0.22 0.001,0.003 -0.002,0.002 c -0.003,0.004 -0.006,0.008 -0.009,0.012 -0.004,0.007 -0.01,0.017 -0.017,0.028 l -0.003,0.005 -0.014,-0.01 0.005,-0.024 c 0,0 0,-0.001 -0.001,-0.003 C -0.112,0.155 -0.122,0.149 -0.133,0.141 L -0.273,0.05 C -0.287,0.041 -0.298,0.034 -0.308,0.028 -0.309,0.027 -0.31,0.027 -0.311,0.028 L -0.331,0.042 -0.344,0.033 -0.342,0.029 C -0.333,0.017 -0.327,0.008 -0.322,0 c 0.004,-0.007 0.01,-0.016 0.017,-0.028 l 0.003,-0.004 0.014,0.01 -0.005,0.023 c 0,0.001 0.001,0.002 0.001,0.003 0.009,0.006 0.021,0.013 0.034,0.022 l 0.127,0.083 -0.107,-0.237 -0.001,-0.003 0.013,-0.016 0.197,0.128 C -0.017,-0.011 -0.008,-0.005 0,0"
       style="fill:#006554;fill-opacity:1;fill-rule:nonzero;stroke:none"
       transform="matrix(13.081362,0,0,-13.081362,30.961354,125.86983)"
       clip-path="url(#clipPath6874)" />
    <path
       id="path6875"
       d="M 0,0 0.013,0.01 C 0.015,0.011 0.015,0.011 0.016,0.011 L 0.035,-0.001 0.047,0.011 0.044,0.014 C 0.037,0.023 0.028,0.033 0.02,0.043 0.012,0.054 0.004,0.064 -0.005,0.076 L -0.008,0.08 -0.021,0.069 -0.013,0.045 c 0,-0.001 0,-0.001 -0.002,-0.003 C -0.018,0.04 -0.021,0.037 -0.025,0.033 H -0.026 C -0.031,0.029 -0.036,0.025 -0.041,0.021 l -0.041,-0.033 c -0.006,0.005 -0.012,0.011 -0.017,0.017 -0.017,0.021 -0.021,0.045 -0.013,0.072 0.009,0.027 0.029,0.053 0.061,0.079 0.031,0.025 0.06,0.038 0.087,0.041 C 0.062,0.199 0.083,0.19 0.1,0.169 0.106,0.162 0.112,0.151 0.116,0.14 L 0.08,0.096 0.091,0.086 0.154,0.122 0.155,0.127 V 0.129 C 0.147,0.148 0.137,0.165 0.126,0.179 0.1,0.212 0.067,0.229 0.03,0.231 -0.008,0.233 -0.046,0.218 -0.085,0.187 -0.122,0.158 -0.144,0.125 -0.149,0.09 c -0.006,-0.035 0.003,-0.069 0.028,-0.1 0.012,-0.014 0.028,-0.029 0.047,-0.043 l 0.002,-0.001 0.005,0.001 0.052,0.042 C -0.009,-0.007 -0.004,-0.003 0,0"
       style="fill:#006554;fill-opacity:1;fill-rule:nonzero;stroke:none"
       transform="matrix(13.081362,0,0,-13.081362,31.076527,129.77855)"
       clip-path="url(#clipPath6876)" />
    <path
       id="path6877"
       d="m 0,0 c 0.008,0.008 0.018,0.018 0.029,0.029 l 0.12,0.117 C 0.159,0.155 0.167,0.163 0.174,0.169 0.176,0.17 0.177,0.17 0.177,0.17 L 0.2,0.16 0.211,0.172 0.208,0.175 C 0.198,0.185 0.188,0.194 0.18,0.203 0.171,0.213 0.162,0.222 0.153,0.232 L 0.149,0.236 0.138,0.224 0.147,0.203 C 0.147,0.202 0.147,0.202 0.146,0.2 0.139,0.193 0.131,0.185 0.121,0.176 L 0.074,0.13 -0.003,0.21 0.044,0.256 c 0.009,0.009 0.018,0.017 0.025,0.024 0.001,0.001 0.002,0.001 0.003,0 L 0.093,0.271 0.104,0.283 0.101,0.286 C 0.092,0.294 0.083,0.303 0.073,0.313 0.064,0.323 0.055,0.333 0.045,0.343 L 0.042,0.347 0.03,0.335 0.04,0.312 c 0,0 0.001,-0.001 -0.001,-0.003 C 0.032,0.303 0.024,0.294 0.014,0.285 L -0.106,0.168 C -0.118,0.157 -0.127,0.148 -0.136,0.14 -0.137,0.139 -0.137,0.139 -0.138,0.14 L -0.161,0.15 -0.172,0.138 -0.169,0.135 c 0.01,-0.01 0.02,-0.02 0.029,-0.029 0.009,-0.009 0.018,-0.019 0.027,-0.028 l 0.003,-0.004 0.011,0.012 -0.008,0.021 c 0,0 -0.001,0.001 0.001,0.003 0.008,0.008 0.017,0.017 0.029,0.029 L -0.023,0.191 0.054,0.111 0,0.059 C -0.011,0.047 -0.021,0.038 -0.029,0.031 -0.031,0.029 -0.032,0.029 -0.032,0.03 L -0.054,0.04 -0.065,0.027 -0.062,0.024 c 0.009,-0.009 0.019,-0.018 0.027,-0.027 0.01,-0.01 0.019,-0.02 0.029,-0.03 L -0.003,-0.037 0.009,-0.025 0,-0.002 C -0.001,-0.001 -0.001,-0.001 0,0"
       style="fill:#006554;fill-opacity:1;fill-rule:nonzero;stroke:none"
       transform="matrix(13.081362,0,0,-13.081362,32.902657,132.98457)"
       clip-path="url(#clipPath6878)" />
    <path
       id="path6879"
       d="M 0,0 0.083,0.052 0.042,-0.036 Z m 0.031,-0.166 c 0.001,0.003 0.002,0.008 0.007,0.019 L 0.147,0.096 0.126,0.108 -0.104,-0.03 c -0.006,-0.004 -0.011,-0.007 -0.014,-0.008 -0.003,-0.001 -0.006,-0.001 -0.009,0 l -0.02,0.007 -0.01,-0.013 0.004,-0.003 c 0.009,-0.008 0.018,-0.015 0.025,-0.021 0.007,-0.006 0.017,-0.015 0.029,-0.025 l 0.003,-0.003 0.011,0.013 -0.009,0.017 c -0.001,0.002 -0.002,0.003 -0.002,0.004 0,0 0.001,0 0.002,0.001 0.001,0.001 0.003,0.003 0.007,0.006 0.004,0.003 0.009,0.006 0.016,0.011 l 0.046,0.029 0.056,-0.047 -0.023,-0.05 C 0.005,-0.119 0.002,-0.124 0,-0.128 c -0.002,-0.005 -0.004,-0.007 -0.005,-0.009 -0.001,-0.001 -0.002,-0.001 -0.002,-0.002 0,0 -0.001,0 -0.003,0.001 l -0.019,0.007 -0.01,-0.014 0.003,-0.002 c 0.014,-0.011 0.025,-0.02 0.035,-0.029 0.009,-0.008 0.019,-0.016 0.03,-0.026 l 0.003,-0.003 0.011,0.013 -0.01,0.017 c -0.001,0.003 -0.002,0.006 -0.002,0.009"
       style="fill:#006554;fill-opacity:1;fill-rule:nonzero;stroke:none"
       transform="matrix(13.081362,0,0,-13.081362,35.138272,133.09989)"
       clip-path="url(#clipPath6880)" />
    <path
       id="path6881"
       d="M 0,0 0.1,0.135 C 0.104,0.141 0.108,0.146 0.111,0.15 0.115,0.155 0.118,0.159 0.121,0.163 0.122,0.164 0.123,0.164 0.123,0.164 L 0.147,0.157 0.156,0.171 0.153,0.173 C 0.141,0.182 0.13,0.189 0.119,0.197 0.109,0.205 0.098,0.213 0.087,0.222 L 0.083,0.225 0.074,0.211 0.087,0.19 c 0,0 0,-0.001 -0.001,-0.003 C 0.083,0.184 0.081,0.179 0.077,0.175 0.074,0.17 0.07,0.165 0.066,0.159 l -0.1,-0.134 C -0.039,0.018 -0.043,0.012 -0.047,0.007 -0.051,0.001 -0.055,-0.004 -0.058,-0.008 -0.06,-0.009 -0.06,-0.009 -0.061,-0.009 l -0.024,0.007 -0.009,-0.014 0.004,-0.003 c 0.011,-0.008 0.022,-0.016 0.033,-0.023 0.011,-0.008 0.021,-0.017 0.033,-0.025 l 0.003,-0.003 0.01,0.013 -0.012,0.02 c -0.002,0.002 -0.001,0.003 -0.001,0.004 0.003,0.005 0.006,0.01 0.01,0.015 C -0.009,-0.013 -0.005,-0.007 0,0"
       style="fill:#006554;fill-opacity:1;fill-rule:nonzero;stroke:none"
       transform="matrix(13.081362,0,0,-13.081362,37.061257,135.74377)"
       clip-path="url(#clipPath6882)" />
    <path
       id="path6883"
       d="m 0,0 0.089,0.143 0.01,0.016 C 0.102,0.164 0.104,0.168 0.107,0.172 0.108,0.173 0.109,0.173 0.109,0.173 L 0.134,0.168 0.142,0.183 0.138,0.186 C 0.125,0.192 0.114,0.2 0.103,0.206 0.091,0.213 0.08,0.221 0.069,0.228 L 0.064,0.231 0.056,0.216 0.071,0.196 c 0,0 0.001,-0.001 0,-0.003 C 0.068,0.189 0.066,0.185 0.063,0.18 L 0.062,0.178 C 0.059,0.174 0.056,0.169 0.053,0.164 L -0.035,0.021 -0.049,-0.001 C -0.052,-0.005 -0.055,-0.009 -0.057,-0.013 -0.058,-0.014 -0.059,-0.014 -0.06,-0.014 l -0.024,0.005 -0.008,-0.015 0.004,-0.002 c 0.012,-0.007 0.024,-0.014 0.035,-0.021 0.011,-0.007 0.023,-0.015 0.034,-0.022 l 0.004,-0.003 0.009,0.015 -0.015,0.018 c -10e-4,0.002 0,0.003 0,0.004 0.003,0.005 0.006,0.01 0.009,0.015 C -0.008,-0.014 -0.004,-0.007 0,0"
       style="fill:#006554;fill-opacity:1;fill-rule:nonzero;stroke:none"
       transform="matrix(13.081362,0,0,-13.081362,39.476048,137.35383)"
       clip-path="url(#clipPath6884)" />
    <path
       id="path6885"
       d="M 0,0 C 0.001,0.002 0.002,0.002 0.002,0.002 L 0.028,-0.001 0.034,0.015 0.03,0.017 C 0.018,0.022 0.008,0.027 0,0.031 -0.008,0.035 -0.018,0.041 -0.03,0.047 L -0.034,0.05 -0.042,0.034 -0.025,0.017 c 0,-0.001 0,-0.001 0,-0.003 -0.004,-0.009 -0.01,-0.018 -0.016,-0.031 L -0.107,-0.144 -0.129,0.097 V 0.1 L -0.132,0.101 C -0.137,0.103 -0.141,0.104 -0.145,0.107 -0.152,0.11 -0.162,0.116 -0.174,0.123 L -0.179,0.125 -0.186,0.11 -0.169,0.091 c 0,0 0,-0.001 -0.001,-0.003 C -0.174,0.08 -0.179,0.07 -0.186,0.058 L -0.263,-0.091 C -0.27,-0.105 -0.277,-0.117 -0.282,-0.127 -0.283,-0.128 -0.283,-0.128 -0.284,-0.128 l -0.025,0.003 -0.007,-0.016 0.004,-0.002 c 0.013,-0.005 0.023,-0.011 0.031,-0.015 0.008,-0.004 0.017,-0.009 0.029,-0.016 l 0.004,-0.002 0.008,0.015 -0.016,0.018 c -0.001,0.001 0,0.002 0,0.003 0.005,0.01 0.011,0.022 0.018,0.036 l 0.07,0.134 0.023,-0.259 0.001,-0.002 0.019,-0.008 0.109,0.209 C -0.01,-0.018 -0.004,-0.008 0,0"
       style="fill:#006554;fill-opacity:1;fill-rule:nonzero;stroke:none"
       transform="matrix(13.081362,0,0,-13.081362,43.856949,136.74681)"
       clip-path="url(#clipPath6886)" />
    <path
       id="path6887"
       d="M 0,0 -0.001,0.001 C -0.017,0.013 -0.033,0.022 -0.05,0.029 -0.073,0.039 -0.096,0.041 -0.118,0.035 -0.14,0.028 -0.156,0.012 -0.166,-0.012 c -0.005,-0.012 -0.008,-0.023 -0.008,-0.034 0,-0.01 0.001,-0.02 0.005,-0.029 0.002,-0.008 0.006,-0.016 0.012,-0.024 0.005,-0.007 0.01,-0.014 0.015,-0.021 0.005,-0.006 0.01,-0.012 0.014,-0.018 0.004,-0.006 0.008,-0.012 0.01,-0.018 0.003,-0.006 0.004,-0.012 0.004,-0.019 0.001,-0.006 -0.001,-0.013 -0.004,-0.021 -0.006,-0.014 -0.014,-0.024 -0.025,-0.028 -0.011,-0.005 -0.023,-0.004 -0.037,0.002 -0.01,0.004 -0.019,0.011 -0.027,0.019 l 0.012,0.06 -0.015,0.004 -0.037,-0.066 0.001,-0.005 0.001,-0.001 c 0.017,-0.016 0.035,-0.027 0.051,-0.034 0.016,-0.006 0.031,-0.01 0.046,-0.01 0.009,0 0.018,0.002 0.027,0.005 0.023,0.007 0.039,0.024 0.051,0.05 0.004,0.012 0.007,0.022 0.007,0.032 0,0.01 -0.001,0.019 -0.005,0.027 -0.003,0.009 -0.007,0.016 -0.012,0.024 -0.005,0.007 -0.01,0.014 -0.016,0.021 -0.005,0.006 -0.009,0.012 -0.013,0.018 -0.005,0.006 -0.008,0.013 -0.011,0.018 -0.003,0.007 -0.004,0.013 -0.004,0.02 -0.001,0.007 0.001,0.014 0.004,0.021 0.006,0.014 0.014,0.023 0.024,0.027 0.01,0.005 0.022,0.004 0.034,-0.001 0.007,-0.003 0.015,-0.008 0.023,-0.016 l -0.01,-0.054 0.014,-0.002 0.036,0.06 z"
       style="fill:#006554;fill-opacity:1;fill-rule:nonzero;stroke:none"
       transform="matrix(13.081362,0,0,-13.081362,46.258687,137.39833)"
       clip-path="url(#clipPath6888)" />
    <path
       id="path6889"
       d="M 0,0 0.047,-0.016 0.04,-0.073 0.055,-0.075 0.089,-0.005 0.088,0.001 0.085,0.002 C 0.058,0.01 0.034,0.018 0.011,0.025 L -0.031,0.039 C -0.055,0.047 -0.08,0.055 -0.105,0.064 l -0.002,0.001 -0.005,-0.003 -0.021,-0.079 0.015,-0.002 0.031,0.047 0.047,-0.015 -0.062,-0.192 c -0.005,-0.015 -0.009,-0.028 -0.013,-0.037 -0.001,-0.002 -0.001,-0.002 -0.002,-0.002 l -0.029,-0.001 -0.004,-0.017 0.004,-0.001 c 0.016,-0.005 0.03,-0.009 0.042,-0.013 0.013,-0.004 0.027,-0.009 0.043,-0.015 l 0.005,-0.002 0.005,0.017 -0.023,0.018 c -0.001,0 -0.001,0.001 -0.001,0.003 0.003,0.009 0.007,0.022 0.013,0.038 z"
       style="fill:#006554;fill-opacity:1;fill-rule:nonzero;stroke:none"
       transform="matrix(13.081362,0,0,-13.081362,47.798439,138.26714)"
       clip-path="url(#clipPath6890)" />
    <path
       id="path6891"
       d="m 0,0 c -0.013,0.003 -0.027,0.006 -0.04,0.009 -0.013,0.004 -0.026,0.007 -0.039,0.012 h -0.005 l -0.003,-0.016 0.02,-0.014 c 0,-0.001 0.001,-0.001 0,-0.003 -0.001,-0.004 -0.002,-0.009 -0.003,-0.013 v -0.002 c -0.002,-0.006 -0.003,-0.012 -0.005,-0.018 l -0.041,-0.163 c -0.002,-0.008 -0.004,-0.015 -0.006,-0.022 -0.002,-0.006 -0.003,-0.012 -0.005,-0.018 0,-0.001 -0.001,-0.002 -0.002,-0.002 l -0.025,-0.002 -0.003,-0.017 0.005,-0.001 c 0.013,-0.002 0.027,-0.006 0.039,-0.009 0.013,-0.003 0.026,-0.007 0.04,-0.011 l 0.005,-0.001 0.003,0.016 -0.019,0.014 c -0.002,0.001 -0.002,0.002 -0.002,0.003 0.002,0.006 0.003,0.011 0.004,0.018 0.001,0.005 0.003,0.01 0.004,0.015 l 0.043,0.17 c 0.002,0.006 0.004,0.013 0.005,0.018 0.002,0.005 0.003,0.011 0.004,0.015 10e-4,0.002 0.002,0.002 0.002,0.002 l 0.025,0.002 0.003,0.017 z"
       style="fill:#006554;fill-opacity:1;fill-rule:nonzero;stroke:none"
       transform="matrix(13.081362,0,0,-13.081362,50.180562,138.54821)"
       clip-path="url(#clipPath6892)" />
    <path
       id="path6893"
       d="m 0,0 c -0.027,-0.001 -0.054,-0.002 -0.078,-0.002 l -0.045,-0.001 c -0.023,0 -0.049,0 -0.077,0 h -0.002 l 0.001,0.001 H -0.206 C -0.22,-0.001 -0.231,-0.001 -0.241,0 -0.25,0.001 -0.262,0.002 -0.276,0.004 l -0.005,0.001 -10e-4,-0.018 0.021,-0.01 c 0.001,0 0.001,0 0.001,-0.002 0,-0.005 0,-0.01 -0.001,-0.016 l -0.011,-0.133 c -0.003,-0.036 -0.011,-0.061 -0.021,-0.075 -0.011,-0.014 -0.026,-0.019 -0.048,-0.018 -0.02,0.002 -0.034,0.011 -0.042,0.025 -0.008,0.015 -0.011,0.042 -0.007,0.08 l 0.01,0.113 c 0,0.007 0.001,0.013 0.002,0.019 0,0.006 0.001,0.01 0.001,0.015 0.001,0.002 0.001,0.002 0.002,0.002 l 0.024,0.007 V 0.011 H -0.355 C -0.369,0.012 -0.383,0.013 -0.396,0.014 -0.409,0.015 -0.423,0.017 -0.437,0.019 H -0.441 V 0.016 L -0.443,0.02 -0.446,0.021 c -0.027,0.004 -0.052,0.008 -0.076,0.013 l -0.044,0.008 c -0.024,0.004 -0.05,0.009 -0.076,0.015 h -0.003 l -0.004,-0.004 -0.01,-0.08 h 0.015 l 0.024,0.05 0.049,-0.008 -0.036,-0.199 C -0.61,-0.2 -0.613,-0.213 -0.615,-0.223 c 0,-0.002 -0.001,-0.002 -0.002,-0.002 L -0.646,-0.23 -0.647,-0.247 h 0.004 c 0.016,-0.003 0.031,-0.005 0.044,-0.008 0.013,-0.002 0.028,-0.005 0.044,-0.009 l 0.005,-0.001 0.003,0.017 -0.025,0.015 c -0.001,0.001 -0.002,0.001 -0.001,0.003 0.001,0.01 0.004,0.023 0.007,0.039 l 0.036,0.198 0.05,-0.009 v -0.059 l 0.014,0.001 0.024,0.071 V 0.002 l 0.022,-0.011 c 0.001,0 0.001,-0.001 0.001,-0.003 0,-0.005 -0.001,-0.009 -0.001,-0.015 0,-0.006 -0.001,-0.012 -0.002,-0.019 l -0.01,-0.118 c -0.004,-0.042 0.001,-0.074 0.015,-0.095 0.013,-0.022 0.036,-0.035 0.068,-0.038 0.004,0 0.008,0 0.012,0 0.027,0 0.049,0.009 0.065,0.028 0.017,0.021 0.027,0.055 0.031,0.101 l 0.01,0.105 c 0.001,0.007 0.001,0.013 0.002,0.019 0,0.005 0.001,0.01 0.001,0.015 0,0.002 0.001,0.003 0.001,0.003 l 0.022,0.006 0.005,-0.069 0.014,0.004 0.014,0.054 0.05,0.001 0.004,-0.202 c 0,-0.016 0,-0.03 0,-0.04 0,-0.001 0,-0.002 -0.001,-0.002 l -0.027,-0.011 0.001,-0.016 h 0.004 c 0.016,0 0.032,0.001 0.045,0.001 h 0.045 0.005 l -0.001,0.017 -0.027,0.01 c -0.001,0 -0.002,0 -0.002,0.002 0,0.01 0,0.023 -0.001,0.04 l -0.003,0.201 0.05,10e-4 0.011,-0.057 0.015,0.003 0.01,0.078 L 0.002,0 Z"
       style="fill:#006554;fill-opacity:1;fill-rule:nonzero;stroke:none"
       transform="matrix(13.081362,0,0,-13.081362,58.841726,139.37252)"
       clip-path="url(#clipPath6894)" />
    <path
       id="path6895"
       d="M 0,0 -0.016,-0.053 -0.087,-0.06 c -0.001,0.014 -0.002,0.027 -0.004,0.041 l -0.006,0.07 0.011,0.001 c 0.011,0.001 0.024,0.002 0.038,0.003 0,0 0.001,0 0.001,-0.002 l 0.009,-0.032 0.017,0.003 v 0.005 c -10e-4,0.019 -0.003,0.033 -0.004,0.042 0,0.009 -0.002,0.023 -0.003,0.042 V 0.118 L -0.045,0.116 -0.049,0.084 C -0.05,0.083 -0.05,0.082 -0.05,0.082 -0.064,0.081 -0.077,0.08 -0.088,0.079 L -0.099,0.078 -0.108,0.182 -0.04,0.187 -0.025,0.14 -0.012,0.144 -0.007,0.212 V 0.213 L -0.011,0.218 H -0.013 C -0.042,0.215 -0.067,0.213 -0.091,0.211 L -0.131,0.208 -0.172,0.205 h -0.005 l 0.002,-0.017 0.024,-0.007 c 0.001,0 0.001,-0.001 0.002,-0.003 0,-0.005 0.001,-0.01 0.001,-0.015 0.001,-0.006 0.001,-0.012 0.002,-0.019 l 0.014,-0.167 c 0.001,-0.008 0.001,-0.016 0.002,-0.022 0,-0.007 0.001,-0.014 0.001,-0.019 0,-0.001 0,-0.002 -0.001,-0.002 l -0.023,-0.011 0.003,-0.017 0.004,0.001 c 0.014,0.002 0.027,0.003 0.041,0.004 l 0.039,0.003 c 0.024,0.003 0.05,0.004 0.079,0.006 h 0.002 l 0.003,0.005 -0.003,0.08 z"
       style="fill:#006554;fill-opacity:1;fill-rule:nonzero;stroke:none"
       transform="matrix(13.081362,0,0,-13.081362,61.365127,142.04866)"
       clip-path="url(#clipPath6896)" />
    <path
       id="path6897"
       d="m 0,0 c -0.008,-0.022 -0.024,-0.036 -0.049,-0.042 -0.026,-0.006 -0.048,0.001 -0.066,0.02 -0.019,0.02 -0.033,0.051 -0.043,0.094 -0.009,0.042 -0.009,0.075 -0.002,0.098 0.007,0.022 0.024,0.036 0.05,0.042 0.027,0.006 0.048,-0.001 0.067,-0.019 0.017,-0.019 0.031,-0.05 0.04,-0.091 C 0.007,0.057 0.008,0.023 0,0 M -0.014,0.218 C -0.041,0.24 -0.073,0.247 -0.11,0.238 -0.149,0.23 -0.177,0.209 -0.192,0.176 -0.208,0.144 -0.211,0.103 -0.2,0.056 c 0.01,-0.046 0.028,-0.08 0.054,-0.103 0.02,-0.016 0.042,-0.025 0.068,-0.025 0.009,0 0.018,0.001 0.028,0.004 0.04,0.008 0.067,0.03 0.083,0.064 C 0.048,0.03 0.05,0.071 0.04,0.118 0.03,0.163 0.012,0.196 -0.014,0.218"
       style="fill:#006554;fill-opacity:1;fill-rule:nonzero;stroke:none"
       transform="matrix(13.081362,0,0,-13.081362,65.752591,141.67859)"
       clip-path="url(#clipPath6898)" />
    <path
       id="path6899"
       d="M 0,0 C 0,0 0.001,0 0.002,-0.001 L 0.019,-0.03 0.034,-0.023 0.033,-0.02 C 0.026,-0.001 0.022,0.012 0.019,0.021 0.017,0.029 0.012,0.043 0.007,0.062 L 0.005,0.066 -0.01,0.061 -0.008,0.028 c 0.001,-0.002 0,-0.002 0,-0.002 C -0.021,0.021 -0.034,0.018 -0.044,0.014 L -0.055,0.011 -0.088,0.114 -0.024,0.135 0.001,0.092 0.014,0.099 0.002,0.167 -0.002,0.172 -0.005,0.171 C -0.03,0.162 -0.055,0.154 -0.079,0.146 L -0.117,0.134 C -0.13,0.13 -0.144,0.126 -0.156,0.123 L -0.161,0.121 -0.155,0.105 -0.13,0.104 c 0,0 0.001,0 0.002,-0.003 0.001,-0.004 0.003,-0.009 0.004,-0.014 l 0.058,-0.178 c 0.004,-0.015 0.008,-0.028 0.012,-0.039 0,-0.001 0,-0.002 -0.001,-0.002 l -0.02,-0.016 0.007,-0.016 0.004,0.002 c 0.013,0.005 0.026,0.009 0.039,0.013 0.012,0.004 0.025,0.008 0.041,0.013 l 0.005,0.001 -0.006,0.016 -0.028,0.001 c 0,0 -0.001,0 -0.002,0.002 -0.003,0.01 -0.007,0.022 -0.012,0.038 l -0.02,0.063 0.01,0.004 C -0.026,-0.008 -0.013,-0.004 0,0"
       style="fill:#006554;fill-opacity:1;fill-rule:nonzero;stroke:none"
       transform="matrix(13.081362,0,0,-13.081362,68.218406,139.79376)"
       clip-path="url(#clipPath6900)" />
    <path
       id="path6901"
       d="m 0,0 c 0,0 -0.001,0 -0.002,0.002 -0.004,0.009 -0.01,0.021 -0.017,0.036 l -0.083,0.184 0.046,0.02 0.034,-0.048 0.011,0.009 L -0.032,0.278 -0.038,0.282 -0.04,0.281 C -0.063,0.27 -0.087,0.258 -0.111,0.248 L -0.151,0.229 C -0.173,0.22 -0.197,0.209 -0.222,0.199 L -0.225,0.198 -0.226,0.191 -0.188,0.12 l 0.012,0.008 -0.009,0.056 0.046,0.021 0.082,-0.184 c 0.007,-0.015 0.013,-0.027 0.016,-0.037 0.001,-0.001 0.001,-0.002 0,-0.002 l -0.021,-0.021 0.008,-0.015 0.004,0.002 c 0.015,0.008 0.029,0.014 0.041,0.019 0.012,0.006 0.026,0.012 0.041,0.018 l 0.005,0.002 -0.008,0.015 z"
       style="fill:#006554;fill-opacity:1;fill-rule:nonzero;stroke:none"
       transform="matrix(13.081362,0,0,-13.081362,72.166349,139.74259)"
       clip-path="url(#clipPath6902)" />
    <path
       id="path6903"
       d="M 0,0 0.008,-0.055 -0.055,-0.09 c -0.007,0.012 -0.013,0.024 -0.02,0.036 L -0.109,0.007 -0.1,0.012 c 0.01,0.006 0.021,0.012 0.034,0.019 0,0 0.001,0 0.002,-0.002 l 0.022,-0.025 0.014,0.01 -0.002,0.004 c -0.01,0.017 -0.017,0.029 -0.021,0.037 -0.005,0.007 -0.011,0.02 -0.02,0.037 l -0.003,0.005 -0.015,-0.01 0.01,-0.03 c 0,-0.002 0,-0.002 -0.001,-0.002 C -0.092,0.048 -0.103,0.042 -0.113,0.036 L -0.122,0.031 -0.172,0.122 -0.113,0.155 -0.08,0.118 -0.069,0.127 -0.093,0.192 -0.099,0.195 -0.101,0.194 C -0.125,0.18 -0.148,0.167 -0.169,0.155 L -0.204,0.136 C -0.215,0.13 -0.228,0.124 -0.24,0.117 l -0.005,-0.002 0.009,-0.014 0.025,0.003 c 0,0 0.001,0 0.002,-0.002 0.002,-0.004 0.005,-0.009 0.008,-0.014 l 0.09,-0.163 c 0.004,-0.007 0.007,-0.014 0.011,-0.02 0.003,-0.006 0.006,-0.011 0.009,-0.015 0,-0.002 0,-0.003 -0.001,-0.003 l -0.016,-0.019 0.009,-0.014 0.004,0.001 c 0.012,0.008 0.024,0.015 0.035,0.021 l 0.035,0.019 c 0.021,0.012 0.044,0.024 0.069,0.038 l 0.002,0.001 0.001,0.005 -0.035,0.072 z"
       style="fill:#006554;fill-opacity:1;fill-rule:nonzero;stroke:none"
       transform="matrix(13.081362,0,0,-13.081362,74.976238,137.494)"
       clip-path="url(#clipPath6904)" />
    <path
       id="path6905"
       d="m 0,0 c -0.011,-0.017 -0.024,-0.03 -0.038,-0.04 -0.024,-0.016 -0.05,-0.02 -0.076,-0.01 -0.028,0.01 -0.052,0.031 -0.073,0.064 -0.021,0.03 -0.031,0.059 -0.031,0.087 0,0.026 0.01,0.046 0.031,0.06 0.008,0.006 0.019,0.01 0.031,0.014 l 0.041,-0.04 0.011,0.011 -0.031,0.065 -0.005,0.002 H -0.142 C -0.161,0.207 -0.179,0.198 -0.195,0.187 -0.229,0.166 -0.248,0.135 -0.253,0.098 -0.258,0.061 -0.247,0.021 -0.22,-0.019 c 0.025,-0.038 0.054,-0.062 0.089,-0.073 0.012,-0.004 0.024,-0.005 0.035,-0.005 0.022,0 0.043,0.006 0.063,0.02 0.024,0.015 0.04,0.038 0.048,0.066 l 0.001,0.003 -0.013,0.013 z"
       style="fill:#006554;fill-opacity:1;fill-rule:nonzero;stroke:none"
       transform="matrix(13.081362,0,0,-13.081362,77.914353,136.23027)"
       clip-path="url(#clipPath6906)" />
    <path
       id="path6907"
       d="M 0,0 C -0.001,0 -0.001,0 -0.002,0 -0.01,0.009 -0.018,0.02 -0.028,0.032 l -0.106,0.13 C -0.143,0.173 -0.15,0.182 -0.155,0.189 -0.157,0.191 -0.157,0.192 -0.157,0.192 L -0.144,0.214 -0.155,0.227 -0.159,0.224 C -0.169,0.214 -0.179,0.206 -0.189,0.197 -0.199,0.189 -0.21,0.181 -0.221,0.173 L -0.225,0.17 -0.213,0.157 -0.191,0.165 c 0,0 0.001,0 0.002,-0.001 0.006,-0.008 0.014,-0.017 0.022,-0.027 l 0.042,-0.051 -0.087,-0.07 -0.041,0.05 c -0.009,0.011 -0.016,0.02 -0.022,0.028 -0.001,0.001 -0.001,0.002 0,0.002 L -0.264,0.117 -0.275,0.129 -0.278,0.126 C -0.288,0.118 -0.298,0.109 -0.308,0.101 -0.319,0.092 -0.33,0.083 -0.34,0.076 L -0.344,0.073 -0.333,0.06 -0.31,0.067 c 0.001,0 0.002,0.001 0.003,-0.001 0.006,-0.007 0.014,-0.016 0.022,-0.026 l 0.106,-0.13 c 0.01,-0.013 0.018,-0.023 0.025,-0.032 0.001,-0.002 0.001,-0.002 0.001,-0.003 l -0.013,-0.021 0.012,-0.013 0.003,0.003 c 0.01,0.01 0.021,0.018 0.031,0.026 0.01,0.008 0.02,0.017 0.031,0.025 l 0.004,0.002 -0.012,0.013 -0.021,-0.007 c -0.001,0 -0.001,0 -0.003,0.001 -0.007,0.009 -0.016,0.019 -0.026,0.032 l -0.047,0.058 0.086,0.07 0.047,-0.058 c 0.01,-0.012 0.019,-0.023 0.026,-0.032 0.001,-0.002 0.001,-0.002 0,-0.003 l -0.011,-0.02 0.011,-0.013 0.004,0.003 c 0.009,0.009 0.019,0.017 0.029,0.025 0.01,0.009 0.021,0.017 0.033,0.026 l 0.004,0.003 -0.012,0.013 z"
       style="fill:#006554;fill-opacity:1;fill-rule:nonzero;stroke:none"
       transform="matrix(13.081362,0,0,-13.081362,80.78309,134.1923)"
       clip-path="url(#clipPath6908)" />
    <path
       id="path6909"
       d="M 0,0 C -0.001,0.002 -0.001,0.002 -0.001,0.003 L 0.009,0.026 -0.003,0.037 -0.006,0.034 C -0.016,0.024 -0.023,0.016 -0.03,0.01 -0.036,0.003 -0.044,-0.004 -0.054,-0.014 l -0.004,-0.003 0.013,-0.012 0.021,0.01 c 0.001,0 0.002,0 0.003,-0.001 0.007,-0.006 0.015,-0.015 0.024,-0.024 l 0.102,-0.102 -0.236,0.052 -0.003,0.001 -0.002,-0.002 C -0.139,-0.099 -0.142,-0.103 -0.146,-0.106 -0.151,-0.112 -0.159,-0.12 -0.17,-0.129 l -0.003,-0.004 0.012,-0.011 0.023,0.01 c 0,0 0.001,0 0.003,-0.001 0.006,-0.007 0.014,-0.014 0.024,-0.024 L 0.007,-0.278 C 0.019,-0.289 0.028,-0.299 0.036,-0.307 0.037,-0.308 0.037,-0.309 0.037,-0.31 l -0.011,-0.023 0.013,-0.01 0.003,0.003 c 0.01,0.01 0.018,0.018 0.023,0.024 0.007,0.006 0.015,0.014 0.025,0.024 l 0.004,0.003 -0.013,0.012 -0.022,-0.01 c -10e-4,-0.001 -0.002,0 -0.003,0.001 -0.008,0.007 -0.017,0.017 -0.029,0.028 L -0.08,-0.151 0.177,-0.207 0.19,-0.191 0.024,-0.024 C 0.014,-0.015 0.006,-0.007 0,0"
       style="fill:#006554;fill-opacity:1;fill-rule:nonzero;stroke:none"
       transform="matrix(13.081362,0,0,-13.081362,81.172885,129.35731)"
       clip-path="url(#clipPath6910)" />
    <path
       id="path6911"
       d="M 0,0 C 0.026,-0.004 0.056,-0.02 0.089,-0.046 0.124,-0.075 0.146,-0.101 0.154,-0.124 0.162,-0.146 0.158,-0.167 0.141,-0.187 0.125,-0.208 0.104,-0.217 0.077,-0.213 c -0.026,0.004 -0.057,0.02 -0.091,0.047 -0.033,0.028 -0.055,0.053 -0.063,0.076 -0.008,0.022 -0.004,0.043 0.013,0.064 C -0.046,-0.005 -0.025,0.003 0,0 M 0.112,-0.007 C 0.077,0.022 0.042,0.037 0.008,0.038 H 0.005 c -0.033,0 -0.062,-0.015 -0.085,-0.043 -0.025,-0.032 -0.034,-0.065 -0.026,-0.101 0.008,-0.035 0.031,-0.068 0.068,-0.099 0.037,-0.029 0.072,-0.045 0.106,-0.046 h 0.005 c 0.033,0 0.061,0.014 0.085,0.042 0.025,0.031 0.033,0.065 0.024,0.102 -0.009,0.036 -0.033,0.07 -0.07,0.1"
       style="fill:#006554;fill-opacity:1;fill-rule:nonzero;stroke:none"
       transform="matrix(13.081362,0,0,-13.081362,83.280274,127.32564)"
       clip-path="url(#clipPath6912)" />
    <path
       id="path6913"
       d="m 0,0 -0.006,-0.015 0.033,-0.047 -0.041,-0.061 c -0.011,0.008 -0.023,0.015 -0.034,0.023 l -0.139,0.094 -0.011,0.007 c -0.008,0.006 -0.013,0.01 -0.017,0.012 -0.002,0.002 -0.002,0.002 -0.001,0.003 L -0.21,0.041 -0.225,0.049 -0.227,0.045 C -0.235,0.032 -0.242,0.021 -0.25,0.011 -0.257,0 -0.265,-0.012 -0.273,-0.022 l -0.003,-0.004 0.014,-0.01 0.021,0.015 c 0,0 0.001,0 0.003,-10e-4 0.004,-0.002 0.008,-0.005 0.012,-0.008 0.004,-0.003 0.008,-0.005 0.012,-0.008 l 0.143,-0.097 c 0.007,-0.005 0.013,-0.009 0.019,-0.012 0.005,-0.004 0.01,-0.008 0.014,-0.011 0.002,-0.001 0.002,-0.002 0.002,-0.003 l -0.006,-0.024 0.015,-0.008 0.002,0.003 c 0.007,0.012 0.015,0.023 0.022,0.034 l 0.024,0.035 c 0.013,0.02 0.028,0.041 0.044,0.065 l 0.002,0.002 -0.003,0.005 z"
       style="fill:#006554;fill-opacity:1;fill-rule:nonzero;stroke:none"
       transform="matrix(13.081362,0,0,-13.081362,87.042515,125.65921)"
       clip-path="url(#clipPath6914)" />
    <path
       id="path6915"
       d="m 0,0 c -0.013,-0.023 -0.032,-0.035 -0.059,-0.036 -0.026,-0.001 -0.06,0.01 -0.098,0.031 -0.037,0.021 -0.063,0.042 -0.075,0.063 -0.012,0.021 -0.011,0.042 0.002,0.065 0.013,0.024 0.033,0.037 0.058,0.037 h 0.003 c 0.026,0 0.057,-0.01 0.093,-0.03 C -0.037,0.108 -0.01,0.086 0.001,0.065 0.013,0.044 0.013,0.023 0,0 M -0.061,0.173 C -0.1,0.196 -0.137,0.204 -0.171,0.199 -0.205,0.194 -0.231,0.174 -0.25,0.141 -0.269,0.106 -0.272,0.071 -0.258,0.038 c 0.014,-0.034 0.043,-0.062 0.085,-0.086 0.034,-0.019 0.066,-0.028 0.095,-0.028 0.006,0 0.012,0 0.017,0.001 0.035,0.005 0.062,0.024 0.081,0.057 0.02,0.036 0.022,0.071 0.006,0.105 -0.015,0.034 -0.044,0.063 -0.087,0.086"
       style="fill:#006554;fill-opacity:1;fill-rule:nonzero;stroke:none"
       transform="matrix(13.081362,0,0,-13.081362,88.77965,124.39438)"
       clip-path="url(#clipPath6916)" />
    <path
       id="path6917"
       d="m 0,0 c -0.006,0.003 -0.012,0.005 -0.017,0.008 -0.005,0.002 -0.01,0.004 -0.015,0.007 -0.002,0 -0.002,0.001 -0.002,0.002 L -0.032,0.039 -0.048,0.044 -0.05,0.041 C -0.054,0.029 -0.06,0.017 -0.064,0.005 -0.07,-0.007 -0.076,-0.019 -0.082,-0.032 l -0.001,-0.005 0.015,-0.005 0.018,0.017 c 0,0.001 0.001,0.001 0.003,0 0.004,-0.002 0.008,-0.004 0.014,-0.006 L 0.032,-0.059 C 0.03,-0.067 0.028,-0.075 0.025,-0.082 c -0.011,-0.025 -0.029,-0.04 -0.057,-0.045 -0.028,-0.005 -0.061,0 -0.098,0.016 -0.037,0.016 -0.063,0.036 -0.078,0.059 -0.014,0.022 -0.016,0.044 -0.005,0.068 0.004,0.01 0.01,0.02 0.018,0.029 L -0.139,0.034 -0.135,0.048 -0.195,0.085 -0.197,0.086 -0.202,0.085 -0.203,0.084 C -0.216,0.068 -0.227,0.052 -0.234,0.035 c -0.017,-0.038 -0.017,-0.076 -10e-4,-0.109 0.016,-0.034 0.048,-0.061 0.093,-0.081 0.027,-0.012 0.053,-0.018 0.076,-0.018 0.014,0 0.027,0.002 0.04,0.006 0.033,0.012 0.058,0.036 0.074,0.072 0.008,0.018 0.014,0.039 0.016,0.062 v 0.002 l -0.002,0.004 z"
       style="fill:#006554;fill-opacity:1;fill-rule:nonzero;stroke:none"
       transform="matrix(13.081362,0,0,-13.081362,90.184613,119.77001)"
       clip-path="url(#clipPath6918)" />
    <path
       id="path6919"
       d="m 0,0 -0.016,-0.02 c -0.002,-0.001 -0.003,-0.001 -0.004,-0.001 -0.004,0.001 -0.01,0.003 -0.016,0.005 l -0.001,0.001 c -0.006,0.002 -0.013,0.004 -0.021,0.007 l -0.059,0.02 -0.101,0.094 C -0.222,0.11 -0.225,0.113 -0.227,0.116 -0.229,0.118 -0.23,0.121 -0.23,0.124 L -0.231,0.146 -0.248,0.15 -0.249,0.146 C -0.251,0.135 -0.255,0.124 -0.259,0.112 -0.263,0.1 -0.268,0.089 -0.271,0.078 l -0.002,-0.005 0.017,-0.005 0.011,0.015 c 0.002,0.003 0.004,0.003 0.006,0.003 0.002,-10e-4 0.005,-0.003 0.008,-0.006 0.004,-0.003 0.008,-0.007 0.014,-0.012 L -0.152,0.01 -0.245,0 c -0.006,0 -0.011,-0.001 -0.016,-0.001 -0.004,0 -0.007,0 -0.009,0.001 -0.001,0 -0.001,0 -0.002,0.001 0,0 0,0.001 0,0.003 v 0.02 L -0.289,0.028 -0.29,0.024 C -0.294,0.009 -0.299,-0.006 -0.304,-0.02 -0.31,-0.036 -0.314,-0.048 -0.318,-0.058 l -0.001,-0.004 0.016,-0.005 0.012,0.014 c 0.002,0.003 0.005,0.005 0.008,0.006 0.005,0.001 0.011,0.003 0.02,0.004 l 0.137,0.014 0.055,-0.018 c 0.008,-0.003 0.014,-0.006 0.021,-0.008 0.006,-0.002 0.012,-0.004 0.017,-0.006 0.002,-0.001 0.002,-0.001 0.002,-0.002 l 0.001,-0.027 0.016,-0.004 0.001,0.004 c 0.005,0.014 0.009,0.028 0.013,0.041 0.004,0.012 0.009,0.025 0.015,0.04 l 0.001,0.004 z"
       style="fill:#006554;fill-opacity:1;fill-rule:nonzero;stroke:none"
       transform="matrix(13.081362,0,0,-13.081362,91.743945,117.64304)"
       clip-path="url(#clipPath6920)" />
  </g>
</svg>
