<?xml version="1.0" encoding="UTF-8" standalone="no"?>
<!-- Created with Inkscape (http://www.inkscape.org/) -->

<svg
   width="84.704758mm"
   height="84.704758mm"
   viewBox="0 0 84.704758 84.704758"
   version="1.1"
   id="svg1"
   inkscape:version="1.4 (e7c3feb1, 2024-10-09)"
   sodipodi:docname="Shanghai Publishing and Printing College Emblem.svg"
   xmlns:inkscape="http://www.inkscape.org/namespaces/inkscape"
   xmlns:sodipodi="http://sodipodi.sourceforge.net/DTD/sodipodi-0.dtd"
   xmlns="http://www.w3.org/2000/svg"
   xmlns:svg="http://www.w3.org/2000/svg">
  <sodipodi:namedview
     id="namedview1"
     pagecolor="#ffffff"
     bordercolor="#000000"
     borderopacity="0.25"
     inkscape:showpageshadow="2"
     inkscape:pageopacity="0.0"
     inkscape:pagecheckerboard="0"
     inkscape:deskcolor="#d1d1d1"
     inkscape:document-units="mm"
     inkscape:zoom="1"
     inkscape:cx="215.5"
     inkscape:cy="227.5"
     inkscape:current-layer="layer1" />
  <defs
     id="defs1">
    <clipPath
       clipPathUnits="userSpaceOnUse"
       id="clipPath114">
      <path
         d="M 0,807.87 H 595.28 V 0 H 0 Z"
         transform="translate(-175.85451,-422.63721)"
         id="path114" />
    </clipPath>
    <clipPath
       clipPathUnits="userSpaceOnUse"
       id="clipPath116">
      <path
         d="M 0,807.87 H 595.28 V 0 H 0 Z"
         transform="translate(-155.3931,-397.67381)"
         id="path116" />
    </clipPath>
    <clipPath
       clipPathUnits="userSpaceOnUse"
       id="clipPath118">
      <path
         d="M 0,807.87 H 595.28 V 0 H 0 Z"
         transform="translate(-153.3975,-407.81641)"
         id="path118" />
    </clipPath>
    <clipPath
       clipPathUnits="userSpaceOnUse"
       id="clipPath120">
      <path
         d="M 0,807.87 H 595.28 V 0 H 0 Z"
         transform="translate(-154.7529,-414.43261)"
         id="path120" />
    </clipPath>
    <clipPath
       clipPathUnits="userSpaceOnUse"
       id="clipPath122">
      <path
         d="M 0,807.87 H 595.28 V 0 H 0 Z"
         transform="translate(-161.9233,-421.28081)"
         id="path122" />
    </clipPath>
    <clipPath
       clipPathUnits="userSpaceOnUse"
       id="clipPath124">
      <path
         d="M 0,807.87 H 595.28 V 0 H 0 Z"
         transform="translate(-162.1831,-427.91211)"
         id="path124" />
    </clipPath>
    <clipPath
       clipPathUnits="userSpaceOnUse"
       id="clipPath126">
      <path
         d="M 0,807.87 H 595.28 V 0 H 0 Z"
         transform="translate(-169.7158,-427.58891)"
         id="path126" />
    </clipPath>
    <clipPath
       clipPathUnits="userSpaceOnUse"
       id="clipPath128">
      <path
         d="M 0,807.87 H 595.28 V 0 H 0 Z"
         transform="translate(-181.92531,-426.69291)"
         id="path128" />
    </clipPath>
    <clipPath
       clipPathUnits="userSpaceOnUse"
       id="clipPath130">
      <path
         d="M 0,807.87 H 595.28 V 0 H 0 Z"
         transform="translate(-189.17091,-424.38921)"
         id="path130" />
    </clipPath>
    <clipPath
       clipPathUnits="userSpaceOnUse"
       id="clipPath132">
      <path
         d="M 0,807.87 H 595.28 V 0 H 0 Z"
         transform="translate(-192.3369,-421.03761)"
         id="path132" />
    </clipPath>
    <clipPath
       clipPathUnits="userSpaceOnUse"
       id="clipPath134">
      <path
         d="M 0,807.87 H 595.28 V 0 H 0 Z"
         transform="translate(-198.6816,-413.25591)"
         id="path134" />
    </clipPath>
    <clipPath
       clipPathUnits="userSpaceOnUse"
       id="clipPath136">
      <path
         d="M 0,807.87 H 595.28 V 0 H 0 Z"
         transform="translate(-198.21681,-406.22711)"
         id="path136" />
    </clipPath>
    <clipPath
       clipPathUnits="userSpaceOnUse"
       id="clipPath138">
      <path
         d="M 0,807.87 H 595.28 V 0 H 0 Z"
         transform="translate(-201.87061,-396.91891)"
         id="path138" />
    </clipPath>
    <clipPath
       clipPathUnits="userSpaceOnUse"
       id="clipPath140">
      <path
         d="M 0,807.87 H 595.28 V 0 H 0 Z"
         transform="translate(-184.188,-402.68161)"
         id="path140" />
    </clipPath>
    <clipPath
       clipPathUnits="userSpaceOnUse"
       id="clipPath142">
      <path
         d="M 0,807.87 H 595.28 V 0 H 0 Z"
         transform="translate(-173.7949,-380.56741)"
         id="path142" />
    </clipPath>
    <clipPath
       clipPathUnits="userSpaceOnUse"
       id="clipPath144">
      <path
         d="M 0,807.87 H 595.28 V 0 H 0 Z"
         transform="translate(-177.6099,-383.54491)"
         id="path144" />
    </clipPath>
    <clipPath
       clipPathUnits="userSpaceOnUse"
       id="clipPath146">
      <path
         d="M 0,807.87 H 595.28 V 0 H 0 Z"
         transform="translate(-169.1611,-379.26951)"
         id="path146" />
    </clipPath>
    <clipPath
       clipPathUnits="userSpaceOnUse"
       id="clipPath148">
      <path
         d="M 0,807.87 H 595.28 V 0 H 0 Z"
         transform="translate(-183.1914,-381.82231)"
         id="path148" />
    </clipPath>
    <clipPath
       clipPathUnits="userSpaceOnUse"
       id="clipPath150">
      <path
         d="M 0,807.87 H 595.28 V 0 H 0 Z"
         transform="translate(-175.85451,-433.21971)"
         id="path150" />
    </clipPath>
  </defs>
  <g
     inkscape:label="图层 1"
     inkscape:groupmode="layer"
     id="layer1"
     transform="translate(-46.552382,-137.83362)">
    <path
       id="path113"
       d="m 0,0 c -10.104,0 -18.326,-8.221 -18.326,-18.325 0,-10.104 8.222,-18.326 18.326,-18.326 10.104,0 18.325,8.222 18.325,18.326 C 18.325,-8.221 10.104,0 0,0 m 0,-37.203 c -10.409,0 -18.878,8.469 -18.878,18.878 0,10.409 8.469,18.878 18.878,18.878 10.41,0 18.878,-8.469 18.878,-18.878 0,-10.409 -8.468,-18.878 -18.878,-18.878"
       style="fill:#e60013;fill-opacity:1;fill-rule:nonzero;stroke:none"
       transform="matrix(1.411111,0,0,-1.411111,88.904056,154.32743)"
       clip-path="url(#clipPath114)" />
    <path
       id="path115"
       d="m 0,0 -1.598,-0.347 c -0.304,0.076 -0.357,0.472 -0.457,0.874 -0.04,0.16 -0.133,0.339 -0.232,0.397 -0.069,0.067 -0.186,0.053 -0.249,0.12 -0.097,-0.049 -0.195,-0.095 -0.289,-0.143 -0.077,-0.414 -0.08,-0.815 0.068,-1.42 -0.527,-0.14 -1.054,-0.282 -1.584,-0.421 -0.408,-0.281 -0.522,-0.55 -0.376,-1.198 0.093,-0.061 0.112,-0.097 0.266,-0.124 0.245,0.099 0.069,0.148 0.145,0.173 1.071,0.351 3.31,0.846 4.747,1.15 0.306,-0.484 0.39,-0.475 0.811,-1.898 0.327,-0.035 0.756,0.018 0.915,0.197 0.091,0.11 0.307,0.323 0.262,0.537 -0.038,0.182 -0.355,0.221 -0.461,0.384 -0.507,0.79 -1.06,2.12 -1.332,2.814 -0.101,0.588 -0.2,1.177 -0.3,1.766 C 0.004,3.02 -0.291,2.847 -0.594,2.739 -0.673,1.849 -0.279,1.042 0,0"
       style="fill:#e60013;fill-opacity:1;fill-rule:nonzero;stroke:none"
       transform="matrix(1.411111,0,0,-1.411111,60.030744,189.55355)"
       clip-path="url(#clipPath116)" />
    <path
       id="path117"
       d="m 0,0 c 0,0 -0.836,0.177 -0.927,0.129 -0.28,-0.171 -0.386,-0.434 -0.511,-0.777 0.381,-0.715 0.355,-0.343 0.629,-0.169 0.128,0.081 0.266,0.07 0.641,-0.026 C 0.069,-1.03 0,-1.039 -0.01,-1.449 c -0.445,-0.022 -0.887,-0.043 -1.332,-0.065 -0.35,0.201 -0.734,0.609 -0.977,0.945 -0.094,0.783 -0.478,0.742 -0.697,0.586 -0.353,-0.248 0.153,-1.079 0.07,-1.354 -0.005,-0.052 -0.214,-0.19 -0.216,-0.239 -0.539,0.215 -0.844,0.421 -1.664,0.459 -0.409,-0.743 0.768,-1.113 1.862,-1.546 0.464,-0.474 0.856,-0.31 1.205,-0.487 0.297,-0.157 0.557,-0.366 0.744,-0.417 0.045,-0.081 0.095,-0.162 0.138,-0.245 -0.188,-0.113 -0.379,-0.233 -0.569,-0.35 -0.082,-0.046 -0.163,-0.092 -0.244,-0.137 -0.314,0.331 -0.632,0.666 -0.947,1 -0.26,-0.033 -0.525,-0.066 -0.785,-0.101 -0.225,-0.108 -0.193,-0.1 -0.333,-0.288 0.071,-0.087 0.145,-0.168 0.215,-0.25 -0.104,-0.019 -0.209,-0.036 -0.315,-0.056 l -0.018,-0.234 c 0.52,-0.3 0.863,-0.076 1.303,0.163 0.166,-0.227 0.447,-0.226 0.844,-0.847 0.133,-0.001 0.402,-0.093 0.419,0.123 0.007,0.081 0.521,-0.032 0.614,-0.043 1.134,-0.122 0.857,-0.201 1.249,-0.469 0.331,-0.228 0.725,-0.143 0.953,-0.157 0.163,0.12 0.328,0.237 0.493,0.354 l 0.021,0.313 c -0.022,0.055 -0.045,0.106 -0.068,0.16 -0.382,0.106 -0.765,0.21 -1.148,0.314 -0.01,0.209 -0.001,0.533 -0.012,0.741 0.438,0.025 0.56,0.055 0.854,0.138 0.3,0.503 0.384,1.378 0.325,2.057 0.604,0.046 0.814,-0.038 0.847,0.701 C 2.59,-0.567 2.287,-0.594 2,-0.572 1.914,-0.183 1.857,-0.011 1.507,0.162 1.359,0.002 1.333,-0.069 1.295,-0.402 1.19,-0.42 1.103,-0.41 0.997,-0.425 0.154,-0.338 0.855,0.272 0.681,1.062 0.684,1.112 0.642,1.185 0.645,1.235 -0.225,1.079 0.16,0.367 0,0 M 0.325,-4.518 C 0.293,-4.593 0.261,-4.67 0.231,-4.746 c -0.818,0.111 -0.679,0.192 -0.949,0.396 0.148,0.575 0.949,0.222 1.043,-0.168 m -0.982,2.743 c 0.158,0.042 0.457,-0.043 0.616,-0.001 0.06,-0.036 0.327,-0.266 0.07,-0.564 -0.278,-0.025 -0.51,0.11 -0.71,0.228 0.004,0.053 0.014,0.419 0.024,0.337 M 0.217,-3.81 c -1.008,0.039 -1.25,0.658 -2.015,0.922 -0.094,0.228 -0.176,0.375 -0.051,0.644 0.166,0.223 0.121,0.142 0.429,0.223 0.555,-0.463 1.02,-1.034 1.648,-1.211 C 0.24,-3.443 0.205,-3.598 0.217,-3.81 m 1.277,2.646 C 1.439,-1.576 1.383,-1.989 1.33,-2.399 1.221,-2.473 1.174,-2.596 1.065,-2.667 0.983,-2.711 0.84,-2.706 0.757,-2.753 0.709,-2.722 0.658,-2.694 0.609,-2.663 0.586,-2.61 0.571,-2.442 0.55,-2.388 c -0.009,0.358 0.165,0.232 0.419,0.492 -0.048,0.055 -0.11,0.143 -0.159,0.2 -0.156,0.011 -0.209,0.048 -0.364,0.059 l 0.021,0.311 c 0.031,0.101 0.066,0.203 0.1,0.305 0.306,-0.047 0.617,-0.095 0.927,-0.143"
       style="fill:#e60013;fill-opacity:1;fill-rule:nonzero;stroke:none"
       transform="matrix(1.411111,0,0,-1.411111,57.214728,175.24123)"
       clip-path="url(#clipPath118)" />
    <path
       id="path119"
       d="M 0,0 C -0.013,-0.023 0.095,-0.01 0.012,-0.143 0.353,-0.428 0.557,-0.202 1.062,-0.53 1.161,-1.036 1.011,-1.549 0.953,-2 0.901,-2.042 0.849,-2.079 0.801,-2.12 c -0.943,0.46 -1.611,0.89 -1.81,1.111 0.058,0.718 0.042,0.847 0.459,1.661 C -1.136,0.966 -1.655,1.251 -2.236,1.565 -2.289,1.526 -2.405,1.521 -2.458,1.481 -2.47,1.455 -2.488,1.206 -2.499,1.182 c 0.183,-0.394 0.827,-0.486 1.127,-0.86 0.032,-0.402 -0.074,-0.694 -0.22,-1.024 -1.037,0.45 -1.336,0.958 -2.012,1.008 l -0.153,0.075 -0.227,-0.468 c 0.79,-0.415 1.64,-0.88 2.433,-1.297 -0.128,-0.81 -0.209,-0.69 -0.41,-1.076 -0.749,0.129 -0.983,0.755 -1.618,0.832 l -0.156,0.077 c -0.103,-0.34 -0.119,-0.231 -0.036,-0.467 0.201,-0.473 1.058,-0.927 1.719,-1.221 0.063,0.002 0.129,0.005 0.193,0.005 0.417,0.393 0.585,0.709 0.877,1.409 0.414,-0.201 0.822,-0.422 1.236,-0.622 0.015,-0.036 0.013,-0.192 0.026,-0.23 -0.051,-0.105 -0.175,-0.274 -0.225,-0.379 -0.61,0.183 -0.753,-0.05 -0.9,-0.285 0.354,-0.401 0.713,-0.741 1.44,-0.985 0.165,0.013 0.334,0.03 0.501,0.042 0.132,0.859 0.393,0.941 0.481,1.473 0.127,0.753 0.108,1.511 0.374,1.802 0.195,0.015 0.322,-0.111 0.655,-0.16 0.152,0.248 0.166,0.462 0.317,0.706 C 2.125,-0.023 0.908,0.473 0.292,0.391 0.116,0.368 0.113,0.157 0,0"
       style="fill:#e60013;fill-opacity:1;fill-rule:nonzero;stroke:none"
       transform="matrix(1.411111,0,0,-1.411111,59.127348,165.90503)"
       clip-path="url(#clipPath120)" />
    <path
       id="path121"
       d="M 0,0 C -0.443,-0.151 -1.01,-0.24 -1.139,-0.329 -1.248,-0.107 -1.433,-0.065 -1.577,0.184 -1.78,0.533 -1.518,0.4 -2.084,1.38 -2.175,1.363 -2.433,1.295 -2.525,1.279 -2.955,0.563 -2.931,0.397 -3.119,-0.059 -3.265,-0.03 -3.405,-0.14 -3.433,-0.131 -3.727,0.11 -4.218,0.594 -4.589,1.009 -4.252,1.555 -4.13,1.63 -3.521,2.592 L -3.792,2.871 C -4.206,2.254 -4.484,1.588 -5.03,1.016 c 1.131,-1.133 2.158,-2.359 2.758,-3.619 0.056,-0.271 0.081,-0.103 -0.06,-0.386 l -0.057,-0.053 c -0.751,0.461 -1.124,1.41 -1.569,2.06 l -0.054,0.056 c -0.743,-0.382 -0.436,-1.171 -0.955,-1.474 -0.146,0.039 -0.292,0.078 -0.44,0.117 0.003,0.257 -0.037,0.559 -0.032,0.815 0.187,0.168 0.246,0.159 0.48,0.203 0.056,0.249 0.275,0.682 0.462,1.061 -0.311,0.159 -0.416,0.119 -0.714,0.065 -0.252,0.431 -0.186,0.603 -0.593,1.055 -0.163,0.021 -0.328,0.041 -0.492,0.064 L -6.577,0.707 c 0.144,-0.392 0.434,-0.749 0.896,-1.302 0.065,-0.304 0.088,-0.461 0.134,-0.608 -0.056,-0.09 -0.233,-0.21 -0.29,-0.304 -0.381,0.32 -0.764,0.637 -1.143,0.954 -0.037,-0.001 -0.074,0.002 -0.111,0.002 l -0.223,-0.218 c 0.653,-0.708 1.301,-1.415 1.953,-2.121 0.828,-0.969 0.825,-1.444 1.238,-2.165 0.128,0.092 0.304,0.312 0.434,0.403 -0.442,0.684 -0.687,1.124 -1.011,1.754 0.171,0.346 0.341,0.693 0.51,1.038 0.018,0.017 0.017,0.146 0.035,0.166 0.517,-0.705 0.641,-1.089 1.252,-1.734 0.095,-0.022 0.272,0 0.364,-0.018 0.296,0.299 0.669,0.511 0.631,0.96 0.198,0.315 0.534,0.413 0.618,0.727 0.022,0.35 0.055,0.621 0.079,0.969 0.019,0.019 0.102,0.078 0.121,0.099 0.533,0.047 1.067,0.095 1.601,0.14 0.241,0.236 0.494,0.506 0.738,0.74 C 0.871,0.388 0.465,0.162 0,0 m -1.753,-0.902 c -0.003,-0.257 -0.007,-0.515 -0.01,-0.774 -0.148,-0.107 -0.298,-0.213 -0.446,-0.321 -0.214,0.368 -0.429,0.738 -0.645,1.11 0.092,0.054 0.187,0.197 0.278,0.25 0.204,0.015 0.405,-0.057 0.607,-0.043 l 0.216,-0.222 m -0.98,0.785 c -0.097,0.158 -0.05,0.24 0.006,0.44 l 0.279,0.272 c 0.126,-0.131 0.344,-0.262 0.47,-0.393 0.155,-0.481 -0.439,-0.755 -0.755,-0.319"
       style="fill:#e60013;fill-opacity:1;fill-rule:nonzero;stroke:none"
       transform="matrix(1.411111,0,0,-1.411111,69.245576,156.24147)"
       clip-path="url(#clipPath122)" />
    <path
       id="path123"
       d="m 0,0 c -0.25,-0.081 -0.419,-0.128 -0.667,-0.208 -0.293,-0.816 -0.563,-0.902 -1.09,-1.357 0.185,-0.359 0.319,-0.61 0.561,-0.881 0.416,-0.727 0.789,-1.738 1.185,-2.508 0.063,-0.066 0.124,-0.134 0.188,-0.201 l 0.707,0.325 c 0.388,0.388 0.552,0.899 0.589,1.414 L 1.329,-3.103 C 1.088,-3.338 0.849,-3.578 0.607,-3.813 L 0.529,-3.849 c -0.159,0.276 -0.368,0.662 -0.527,0.937 0.211,0.163 0.368,0.24 0.58,0.401 0.239,0.11 0.027,0.299 0.044,0.398 -0.42,0.007 -0.554,-0.082 -0.976,-0.234 l -0.288,0.627 c 0.164,0.677 0.321,0.859 0.889,1.17 C 0.193,-0.355 0.057,-0.193 0,0 M 2.926,0.68 C 2.706,0.192 2.245,-0.272 1.605,-0.594 L 3.99,-5.782 c 0.102,-0.019 0.202,-0.033 0.306,-0.051 0.08,0.1 0.162,0.201 0.244,0.302 -0.686,1.493 -1.432,3.074 -2.12,4.573 0.15,0.225 0.358,0.364 0.509,0.59 0.689,0.063 0.868,-0.94 0.803,-1.589 -0.021,-0.231 0.316,-0.342 0.452,-0.52 0.143,0.034 0.316,0.005 0.459,0.039 C 4.875,-1.536 4.152,-0.256 3.604,0.858 3.345,0.801 3.185,0.734 2.926,0.68"
       style="fill:#e60013;fill-opacity:1;fill-rule:nonzero;stroke:none"
       transform="matrix(1.411111,0,0,-1.411111,69.612184,146.88395)"
       clip-path="url(#clipPath124)" />
    <path
       id="path125"
       d="M 0,0 C 0.221,0.368 0.283,0.738 1.259,0.944 1.66,1.241 2.093,1.746 2.54,2.327 2.496,2.508 2.521,2.63 2.479,2.809 L 2.466,2.965 1.535,2.879 C 0.916,2.441 0.163,2.443 -0.677,2.285 -0.734,1.867 -0.819,1.737 -0.403,1.446 c 0.057,-0.149 0.136,-0.494 0.12,-0.925 -0.044,-1.189 -0.54,-2.231 -0.878,-3.206 0.033,-0.077 0.065,-0.151 0.098,-0.226 0.104,-0.018 0.21,-0.033 0.318,-0.05 0.309,0.336 0.458,0.87 0.408,1.508 0.151,0.064 0.316,-0.009 0.463,0.057 0.104,-0.284 0.218,-0.787 0.341,-1.003 0.069,-0.121 0.116,0.023 0.228,-0.071 0.182,0.285 0.025,0.866 -0.044,1.358 0.069,0.084 0.139,0.168 0.208,0.252 l 0.31,0.029 c 0.114,-0.44 0.221,-1.326 0.264,-2.008 0.052,-0.023 0.109,-0.043 0.162,-0.065 0.276,0.568 -0.085,1.528 -0.081,2.338 0.051,0.028 0.193,0.151 0.241,0.179 0.079,0.009 0.272,-0.07 0.351,-0.063 0.077,-0.566 0.038,-1.048 0.114,-1.614 0.025,0.003 0.218,0.209 0.248,0.21 0.028,0.456 -0.063,1.229 -0.199,1.827 C 2.043,0.021 1.724,-0.012 1.523,-0.01 1.41,-0.01 1.542,0.205 1.436,0.249 1.331,0.295 1.199,0.379 1.058,0.408 l 0.06,-0.669 C 0.625,-0.455 0.552,-0.74 0.09,-1.006 l -0.075,-0.01 c -10e-4,0.078 -0.223,0.204 -0.18,0.27 C -0.049,-0.588 0.003,-0.261 0,0 M 1.475,2.185 C 1.462,2.026 1.514,1.859 1.502,1.702 1.333,1.32 0.916,1.184 0.62,0.916 L 0.312,0.888 C 0.27,1.041 0.229,1.195 0.191,1.346 0.613,1.669 0.81,2.053 1.475,2.185 M 3.608,3.302 C 3.751,1.437 3.978,-0.309 4.123,-2.174 3.926,-2.294 3.645,-2.534 3.447,-2.654 L 3.489,-3.12 C 4.2,-2.922 4.208,-3.173 4.901,-3.148 4.615,-0.931 4.258,1.174 4.072,3.345 L 3.608,3.302 M 2.972,0.867 C 2.799,1.086 2.879,0.862 2.573,0.937 2.652,0.659 2.705,0.441 2.784,0.163 2.886,0.171 2.958,0.191 3.062,0.2 2.99,0.404 3.04,0.663 2.972,0.867"
       style="fill:#e60013;fill-opacity:1;fill-rule:nonzero;stroke:none"
       transform="matrix(1.411111,0,0,-1.411111,80.24166,147.34003)"
       clip-path="url(#clipPath126)" />
    <path
       id="path127"
       d="m 0,0 c -0.24,-0.022 -0.469,0.018 -0.708,-0.004 l -0.619,0.078 c 0.012,0.656 0.014,1.488 0.272,2.008 -0.016,0.08 0.029,0.153 0.013,0.233 -0.696,0.072 -0.584,0.016 -0.65,-0.295 -0.094,0.064 -0.69,0.036 -0.787,0.101 0.043,0.124 0.088,0.408 0.13,0.533 0.768,0.379 1.606,0.23 2.691,0.035 -0.107,1.199 -1.263,0.99 -1.654,1.073 -0.139,0.225 -0.347,0.432 -0.468,0.657 -0.09,0.168 -0.081,0.353 -0.184,0.526 L -2.583,5.023 C -2.702,4.604 -2.639,4.206 -2.167,3.951 -2.187,3.794 -2.234,3.55 -2.253,3.396 -2.709,3.243 -2.743,3.441 -3.163,3.526 -3.502,3.334 -3.84,3.14 -4.179,2.949 -4.248,2.827 -4.313,2.704 -4.383,2.581 c 0.017,-0.08 0.032,-0.163 0.046,-0.24 0.176,-0.074 0.35,-0.152 0.523,-0.224 0.445,0.069 0.436,0.342 0.759,0.547 0.049,-0.057 0.193,-0.066 0.237,-0.124 l -0.381,-3.014 c -0.279,-0.113 -0.378,-0.204 -0.531,-0.482 -0.057,-0.018 -0.11,-0.037 -0.166,-0.058 -0.244,0.311 -0.161,0.418 0.019,0.784 -0.046,0.03 -0.095,0.063 -0.144,0.098 l -0.382,0.048 c -0.321,-0.743 -0.087,-1.411 0.061,-1.971 0.122,-0.069 0.244,-0.135 0.367,-0.203 0.078,0.269 0.097,0.581 0.205,0.878 0.083,0.229 0.258,0.446 0.318,0.657 0.188,0.028 0.328,-0.049 0.516,-0.02 -0.1,-0.929 -0.038,-1.184 0.197,-1.673 l 0.154,-0.019 c 0.507,0.285 0.763,0.584 1.084,1.118 -0.015,0.081 -0.033,0.161 -0.047,0.243 -0.149,0.071 -0.297,0.14 -0.446,0.213 -0.173,-0.134 -0.347,-0.271 -0.52,-0.408 -0.123,0.017 -0.218,0.029 -0.195,0.326 0.143,0.243 0.318,0.327 0.47,0.49 0.27,0.025 0.474,-0.037 0.793,-0.079 0.233,0.236 0.407,0.131 0.613,0.152 0.119,-0.138 0.145,-0.094 0.232,-0.266 -0.071,-1.022 -0.474,-1.49 -1.182,-1.653 0.116,-0.384 0.357,-0.393 0.625,-0.632 0.078,-0.032 0.152,-0.069 0.225,-0.106 0.466,0.583 1.089,1.79 0.912,2.867 L 0,0 m -2.391,-1.516 0.309,-0.04 -0.028,-0.233 c -0.274,-0.011 -0.341,0.025 -0.281,0.273 m 0.182,3.274 0.384,-0.05 c 0.042,-0.215 -0.183,-0.413 -0.31,-0.604 -0.104,0.012 -0.284,0.051 -0.385,0.064 0.037,0.409 0.206,0.393 0.311,0.59 m 0.101,-1.664 -0.385,0.05 C -2.628,0.57 -2.454,0.454 -2.435,0.606 -1.972,0.527 -1.88,0.508 -1.856,0.222 -1.94,0.177 -2.023,0.138 -2.108,0.094"
       style="fill:#e60013;fill-opacity:1;fill-rule:nonzero;stroke:none"
       transform="matrix(1.411111,0,0,-1.411111,97.470628,148.60435)"
       clip-path="url(#clipPath128)" />
    <path
       id="path129"
       d="m 0,0 c -0.482,0.264 -0.77,0.232 -1.208,0.278 -0.293,0.244 -0.342,0.254 -0.373,0.51 0.028,0.508 0.387,0.397 0.804,0.469 -0.045,0.182 -0.086,0.358 -0.129,0.539 0.251,0.32 0.607,0.124 0.921,0.189 0.474,0.102 0.92,0.648 1.124,1.183 0.03,0.29 -0.217,0.366 -0.347,0.63 C 0.041,3.585 -0.534,3.202 -1.199,3.116 l -0.343,0.265 c 0.428,0.405 0.81,0.747 1.129,1.315 C -0.607,4.829 -0.675,5.088 -0.855,4.982 -1.585,4.56 -2.158,4.056 -2.543,3.5 -2.527,3.379 -2.512,3.257 -2.497,3.137 -2.071,3.089 -1.885,3.199 -1.425,2.963 -1.392,2.866 -1.36,2.766 -1.325,2.668 -2.039,2.079 -2.247,2.391 -2.957,1.412 -3.417,1.477 -3.876,1.542 -4.338,1.609 -4.64,1.502 -4.829,1.492 -4.951,1.099 -4.979,0.79 -5.028,0.975 -4.837,0.68 c 0.504,0.293 1.379,0.398 1.959,0.127 0.028,0.267 0.051,0.111 -0.046,0.363 l 0.159,0.205 C -2.527,1.262 -2.284,1.148 -2.045,1.035 -2.576,0.58 -2.75,0.479 -3.373,0.311 L -3.584,0.04 c 0.454,-0.316 0.901,-0.627 1.353,-0.941 l -0.847,-1.095 c -0.106,0.01 -0.208,0.015 -0.311,0.023 -0.2,0.119 -0.4,0.238 -0.601,0.357 -0.212,-0.446 -0.012,-0.897 0.099,-1.283 0.066,-0.013 0.128,-0.025 0.192,-0.038 0.585,0.343 0.802,0.351 2.031,2.003 0.35,0.469 0.524,0.384 0.763,0.756 0.286,-0.148 0.573,-0.295 0.859,-0.444 C 0.081,-0.276 0.026,-0.296 0,0 m -2.771,-0.042 c 0.168,0.124 0.424,0.072 0.593,0.197 0.111,-0.048 0.219,-0.096 0.328,-0.143 0.015,-0.121 0.028,-0.244 0.044,-0.366 -0.39,-0.151 -0.49,-0.204 -0.965,0.312 M -4.417,-0.19 c -0.111,-0.24 -0.227,-0.48 -0.339,-0.723 0.025,-0.057 0.053,-0.115 0.083,-0.174 0.419,-0.07 0.824,-0.131 1.212,0.153 z"
       style="fill:#e60013;fill-opacity:1;fill-rule:nonzero;stroke:none"
       transform="matrix(1.411111,0,0,-1.411111,107.69498,151.85515)"
       clip-path="url(#clipPath130)" />
    <path
       id="path131"
       d="m 0,0 c 0.055,-0.2 -0.346,-0.275 -0.53,-0.441 0.543,-0.337 0.727,-0.05 1.287,-0.626 0.124,0.213 0.247,0.427 0.37,0.638 l 0.412,-0.464 c 0.641,0.219 1.279,0.44 1.915,0.66 l 0.059,0.052 C 3.379,0.381 2.854,0.616 2.544,1.146 2.585,1.215 2.626,1.289 2.667,1.355 2.917,1.27 3.126,1.349 3.379,1.262 3.583,1.27 3.619,1.101 3.877,1.287 3.619,1.698 3.631,1.851 3.765,2.229 L 3.454,2.579 2.932,2.114 C 2.627,2.2 2.514,2.229 2.189,2.6 L 1.898,2.341 2.468,1.7 C 2.445,1.646 2.424,1.593 2.402,1.539 1.888,1.174 1.639,1.418 1.081,1.616 1.192,1.922 1.142,1.98 1.063,2.225 -0.077,1.634 -0.156,0.561 0,0 M 2.244,0.776 C 2.436,0.598 2.627,0.42 2.822,0.246 2.458,-0.01 2.092,-0.262 1.728,-0.516 l -0.414,0.465 c 0.325,0.294 0.534,0.365 0.93,0.827 M 1.562,1.035 1.244,0.863 0.926,1.024 1.267,1.143 1.562,1.035 M 0.706,0.867 0.965,0.575 C 0.905,0.484 0.844,0.398 0.784,0.309 L 0.726,0.257 C 0.583,0.34 0.443,0.423 0.298,0.504 0.302,0.542 0.304,0.578 0.304,0.616 0.439,0.697 0.574,0.783 0.706,0.867 M 0.331,-1.446 c -0.266,-0.002 -0.329,0.283 -0.677,0.436 -0.592,0.257 -1.158,0.73 -1.535,1.034 -0.054,0.024 -0.106,0.044 -0.16,0.068 L -2.45,-0.271 c 0.05,-0.096 0.1,-0.192 0.149,-0.286 0.295,0.043 0.634,-0.149 0.741,-0.482 -0.147,-0.343 -0.398,-0.566 -0.546,-0.907 0.09,-0.025 0.179,-0.048 0.272,-0.072 0.217,0.3 0.438,0.601 0.659,0.899 0.074,0.033 0.151,0.064 0.224,0.097 0.298,-0.255 0.598,-0.513 0.892,-0.771 -0.266,-0.439 -0.917,-1.022 -1.302,-1.311 -0.039,-0.03 -0.225,0.148 -0.363,0.142 -0.071,-0.246 -0.095,-0.402 -0.041,-0.657 0.051,-0.096 0.099,-0.193 0.147,-0.287 l 2.04,1.812 C 0.633,-2.255 0.9,-2.401 1.111,-2.558 1.142,-2.02 1.021,-1.624 0.694,-1.228 0.6,-1.277 0.427,-1.397 0.331,-1.446"
       style="fill:#e60013;fill-opacity:1;fill-rule:nonzero;stroke:none"
       transform="matrix(1.411111,0,0,-1.411111,112.16254,156.58463)"
       clip-path="url(#clipPath132)" />
    <path
       id="path133"
       d="M 0,0 C 0.284,0.47 1.509,1.099 2.243,1.415 2.236,1.589 2.011,1.673 1.959,1.881 1.126,1.38 -0.014,0.728 -0.678,0.369 c -0.229,0.199 -0.457,0.4 -0.687,0.599 -0.01,0.065 0.054,0.184 0.262,0.24 C -0.85,1.276 -0.615,0.99 0.127,1.796 0.395,1.858 0.53,1.614 0.599,1.603 l 0.068,0.039 c 0.032,0.049 0.063,0.097 0.1,0.145 -0.3,0.349 -0.516,0.434 -0.893,0.485 -0.628,-1.009 -1.199,-0.8 -2.093,-0.885 -0.003,-0.333 0.19,-0.385 0.452,-0.556 0.255,-0.163 0.58,-0.448 0.705,-0.735 -0.492,-0.557 -2.101,-1.335 -2.942,-1.919 l 0.113,-0.205 c 1.124,0.591 2.252,1.182 3.378,1.775 0.263,-0.254 0.367,-0.335 0.71,-0.319 C 0.111,-0.281 0.204,-0.36 0,0 M 1.054,4.167 C -0.207,3.882 -1.5,4.45 -2.629,4.715 L -3.244,4.378 c 0.395,-0.502 0.628,-0.393 1.017,-1.04 0.175,0.008 0.349,0.013 0.522,0.02 L -1.891,3.7 c 1.192,0.437 1.845,-0.698 2.927,0.013 -0.02,0.173 0.135,0.05 0.018,0.454 M -0.623,3.333 C -1.604,2.93 -1.876,2.699 -2.389,2.599 -2.828,2.513 -3.575,2.669 -4.363,2.695 L -4.77,2.469 c 0.014,-0.081 0.029,-0.16 0.045,-0.242 0.517,-0.205 1.202,0.186 1.741,0.069 L -2.872,2.093 C -3.478,1.79 -4.079,1.484 -4.683,1.183 c 0.002,-0.058 0.139,-0.307 0.141,-0.367 0.959,0.529 3.376,1.653 4.077,2.069 -0.052,0.149 -0.103,0.3 -0.158,0.448"
       style="fill:#e60013;fill-opacity:1;fill-rule:nonzero;stroke:none"
       transform="matrix(1.411111,0,0,-1.411111,121.11562,167.56547)"
       clip-path="url(#clipPath134)" />
    <path
       id="path135"
       d="m 0,0 c 0.401,-0.042 0.528,-0.337 0.79,-0.507 l 0.077,0.013 c 0.044,0.06 0.086,0.119 0.13,0.179 C 0.806,0.232 0.439,0.726 0.422,1.329 0.368,1.348 0.309,1.364 0.256,1.381 L 0.024,1.344 0.146,0.575 -0.701,0.442 c -0.136,0.371 -0.274,0.744 -0.41,1.116 -0.132,0.138 -0.107,0.11 -0.27,0.194 -0.111,-0.123 -0.225,-0.246 -0.337,-0.37 0.504,-0.68 0.489,-0.921 0.514,-1.258 L -1.895,0.013 C -2.279,0.124 -2.231,0.281 -2.322,0.736 -2.429,0.747 -2.536,0.754 -2.641,0.763 -2.739,0.697 -2.832,0.63 -2.925,0.562 -2.986,0.447 -3.047,0.332 -3.107,0.216 c 0.238,-0.859 1.12,-0.837 2.145,-0.607 0.11,-0.405 0.117,-0.551 0.492,-0.628 0.042,0.51 0.116,0.735 0.47,1.019 m 4.504,-0.551 c 0.006,0.135 0.01,0.267 0.014,0.4 -0.547,-0.007 -1.099,-0.017 -1.65,-0.026 0.134,0.152 0.266,0.306 0.4,0.455 C 2.424,0.299 2.388,-0.258 2.046,-0.306 1.573,-0.057 2.039,0.31 2.082,0.803 2.684,0.754 3.01,0.329 3.759,0.828 4.02,0.824 4.233,0.69 4.539,0.719 4.556,0.774 4.575,0.831 4.591,0.883 4.334,1.049 3.717,0.92 3.674,1.215 3.579,1.887 3.016,1.849 2.46,1.23 2.327,1.419 2.29,1.649 2.152,1.839 L 2.095,2.223 2.171,2.234 C 2.318,2.127 2.466,2.021 2.617,1.912 3.114,2.186 3.243,2.158 3.833,2.184 L 3.91,2.196 C 3.949,2.28 3.99,2.364 4.028,2.448 3.949,2.772 3.987,2.756 3.801,2.89 3.211,3.161 2.211,2.879 1.493,2.523 L 0.878,2.427 C 0.809,2.762 0.705,3.233 0.491,3.389 0.101,3.589 -0.639,3.533 -1.088,3.377 -1.133,3.343 -1.179,3.308 -1.228,3.275 L -1.179,2.966 C -0.756,2.955 -0.334,2.944 0.088,2.932 0.844,1.886 1.542,0.16 1.72,-1.385 1.698,-1.412 1.675,-1.445 1.655,-1.474 1.413,-1.343 1.419,-1.282 1.069,-1.252 L 1.091,-1.405 C 1.052,-1.489 1.01,-1.575 0.974,-1.66 l 0.097,-0.614 0.846,0.131 c 0.199,0.406 0.215,0.736 0.266,1.306 0.76,0.291 1.465,0.131 2.321,0.286 M 1.257,1.539 C 1.293,1.624 1.334,1.708 1.372,1.795 L 1.681,1.842 C 1.758,1.671 1.841,1.502 1.918,1.328 1.905,1.247 1.893,1.167 1.878,1.085 1.832,1.051 1.786,1.018 1.737,0.983 1.474,0.995 1.416,1.355 1.257,1.539"
       style="fill:#e60013;fill-opacity:1;fill-rule:nonzero;stroke:none"
       transform="matrix(1.411111,0,0,-1.411111,120.45974,177.48391)"
       clip-path="url(#clipPath136)" />
    <path
       id="path137"
       d="m 0,0 c 0.059,0.045 0.115,0.089 0.176,0.134 l 0.03,0.231 C 0.001,0.418 -0.201,0.47 -0.402,0.523 -0.557,0.015 -0.514,-0.006 0,0 m -2.202,-0.03 c -0.262,-0.208 -0.365,-0.395 -0.43,-0.885 0.024,-0.029 0.046,-0.058 0.069,-0.09 l 0.152,-0.018 c 0.059,0.045 0.117,0.09 0.177,0.136 0.048,0.175 0.099,0.352 0.148,0.53 -0.04,0.11 -0.079,0.22 -0.116,0.327 m 2.843,2.539 c -0.383,0.37 -0.995,0.649 -1.708,0.769 -0.329,0.651 -0.337,1.066 -0.155,1.827 l 0.02,0.156 C -1.44,5.236 -1.677,5.217 -1.917,5.194 -2.086,4.641 -1.998,4.122 -1.973,3.557 -3.056,3.447 -3.798,4.22 -4.217,5.024 -4.426,5.023 -4.636,5.025 -4.845,5.025 -4.875,5.003 -4.903,4.982 -4.931,4.958 L -4.962,4.728 C -4.489,4.367 -4.02,4.102 -3.78,3.551 -3.834,3.533 -3.889,3.514 -3.943,3.494 -4.376,3.329 -4.837,3.742 -5.421,3.608 -5.505,3.568 -5.587,3.527 -5.673,3.484 L -5.714,3.176 c 0.496,-0.153 1.044,-0.05 1.53,-0.123 0.303,-0.043 0.568,-0.297 0.835,-0.289 0.31,0.007 0.011,0.204 0.071,0.23 0.21,0.102 1.236,-0.02 1.517,-0.044 0.109,-0.145 0.098,-0.248 0.208,-0.392 0.375,0.055 0.746,0.112 1.125,0.168 0.366,-0.122 0.241,-0.439 0.865,-0.583 0.066,0.121 0.137,0.243 0.204,0.366 m -6.335,-3.292 c 0.319,0.497 0.882,0.99 1.514,1.248 0.332,-0.188 0.835,-0.469 1.207,-0.394 l 0.154,-0.019 c 0.031,0.048 0.064,0.095 0.097,0.143 -0.27,0.142 -0.539,0.281 -0.812,0.42 -0.061,0.113 -0.129,0.228 -0.19,0.341 0.124,0.14 0.245,0.282 0.368,0.42 0.53,0.071 0.807,-0.324 1.314,-0.171 0.497,-0.514 0.66,-1.031 0.541,-1.875 0.072,-0.06 0.142,-0.122 0.212,-0.184 0.171,0.216 0.245,0.544 0.287,0.984 -0.044,0.477 -0.202,0.863 -0.13,1.431 -0.093,0.09 -0.186,0.181 -0.278,0.27 -0.458,0.02 -0.474,0 -0.671,-0.307 C -2.605,1.695 -2.636,1.885 -3.276,1.996 -3.494,1.709 -3.64,1.432 -3.993,1.305 -4.024,1.282 -4.05,1.257 -4.081,1.235 -4.826,1.415 -4.866,1.787 -5.205,2.246 l -0.233,0.03 c -0.083,-0.862 0.227,-0.988 0.34,-1.614 -0.445,-0.515 -0.87,-0.565 -1.134,-1.028 -0.164,-0.301 -0.229,-0.85 -0.297,-1.535 l 0.076,-0.01 c 0.452,0.278 0.487,0.703 0.759,1.128"
       style="fill:#e60013;fill-opacity:1;fill-rule:nonzero;stroke:none"
       transform="matrix(1.411111,0,0,-1.411111,125.61566,190.61879)"
       clip-path="url(#clipPath138)" />
    <path
       id="path139"
       d="m 0,0 c 0.137,-0.296 0.222,-0.621 0.222,-0.964 0,-1.242 -0.996,-2.251 -2.226,-2.277 L -6.307,-3.27 v 4.196 h 4.795 v 0.006 c 3.822,0.035 6.911,3.145 6.911,6.975 0,3.834 -3.099,6.951 -6.928,6.98 v -0.014 h -16.982 v -26.339 h 4.643 v 21.68 L -1.529,10.185 C -0.293,10.153 0.693,9.148 0.693,7.907 0.693,6.666 -0.293,5.663 -1.529,5.632 L -10.951,5.57 v -17.103 h 4.644 v 3.589 h 4.321 v 0.002 C 1.831,-7.909 4.926,-4.8 4.926,-0.964 4.926,0.155 4.648,1.209 4.179,2.15 3.102,1.001 1.642,0.213 0,0"
       style="fill:#e60013;fill-opacity:1;fill-rule:nonzero;stroke:none"
       transform="matrix(1.411111,0,0,-1.411111,100.66355,182.48699)"
       clip-path="url(#clipPath140)" />
    <path
       id="path141"
       d="M 0,0 C 0.215,-0.002 0.464,0.09 0.753,0.28 0.801,0.661 0.829,0.981 0.831,1.245 0.836,2.34 0.578,2.891 0.055,2.893 -0.423,2.921 -0.65,2.444 -0.634,1.469 -0.688,0.467 -0.477,-0.022 0,0 m -1.337,-2.422 c 1.074,0.326 1.745,1.097 2.016,2.308 -0.311,-0.211 -0.621,-0.317 -0.931,-0.315 -0.977,0.078 -1.499,0.655 -1.563,1.725 0.105,1.19 0.726,1.831 1.873,1.919 1.261,-0.08 1.91,-0.894 1.949,-2.444 -0.132,-1.856 -1.175,-3.005 -3.13,-3.445 z"
       style="fill:#e60013;fill-opacity:1;fill-rule:nonzero;stroke:none"
       transform="matrix(1.411111,0,0,-1.411111,85.997724,213.69259)"
       clip-path="url(#clipPath142)" />
    <path
       id="path143"
       d="M 0,0 2.034,0.113 C 2.224,0.125 2.327,0.19 2.345,0.311 L 2.63,0.327 2.548,-0.751 0.371,-0.874 0.397,-1.982 c 0.234,0.084 0.48,0.133 0.743,0.148 1.265,0 1.966,-0.595 2.105,-1.778 -0.026,-1.242 -0.74,-1.939 -2.138,-2.088 -0.787,-0.021 -1.216,0.182 -1.289,0.609 0.007,0.31 0.154,0.471 0.44,0.488 0.213,0.01 0.413,-0.121 0.594,-0.396 0.181,-0.253 0.367,-0.372 0.557,-0.362 0.521,0.077 0.784,0.497 0.788,1.26 -0.073,0.856 -0.466,1.287 -1.18,1.295 C 0.778,-2.82 0.545,-2.893 0.313,-3.025 l -0.259,0.128 z"
       style="fill:#e60013;fill-opacity:1;fill-rule:nonzero;stroke:none"
       transform="matrix(1.411111,0,0,-1.411111,91.381116,209.49099)"
       clip-path="url(#clipPath144)" />
    <path
       id="path145"
       d="M 0,0 C -0.048,-0.261 0.033,-0.407 0.244,-0.446 L 0.84,-0.56 0.783,-0.875 l -2.882,0.54 0.057,0.314 0.564,-0.102 c 0.214,-0.018 0.343,0.079 0.384,0.291 l 0.737,3.933 C -0.771,3.961 -1.152,3.874 -1.498,3.842 L -1.59,4.113 c 0.767,0.222 1.446,0.554 2.041,1 L 0.943,5.021 Z"
       style="fill:#e60013;fill-opacity:1;fill-rule:nonzero;stroke:none"
       transform="matrix(1.411111,0,0,-1.411111,79.458916,215.52407)"
       clip-path="url(#clipPath146)" />
    <path
       id="path147"
       d="M 0,0 C 0.533,0.637 0.75,1.149 0.652,1.543 0.548,1.96 0.294,2.143 -0.107,2.092 -0.459,2.024 -0.699,1.76 -0.83,1.297 L -1.129,1.351 C -0.978,2.202 -0.519,2.714 0.25,2.886 0.985,2.977 1.446,2.724 1.63,2.13 1.72,1.661 1.486,1.18 0.923,0.686 L 0.958,0.692 C 1.813,0.805 2.362,0.39 2.617,-0.557 2.767,-1.862 2.146,-2.685 0.754,-3.021 c -0.805,-0.103 -1.281,0.047 -1.431,0.457 -0.029,0.285 0.104,0.468 0.404,0.549 0.19,0.036 0.398,-0.058 0.637,-0.28 0.239,-0.245 0.477,-0.346 0.712,-0.302 0.482,0.141 0.662,0.6 0.537,1.376 C 1.435,-0.405 1.048,-0.03 0.453,-0.095 0.407,-0.105 0.362,-0.124 0.32,-0.157 0.276,-0.19 0.232,-0.21 0.187,-0.219 Z"
       style="fill:#e60013;fill-opacity:1;fill-rule:nonzero;stroke:none"
       transform="matrix(1.411111,0,0,-1.411111,99.257232,211.92179)"
       clip-path="url(#clipPath148)" />
    <path
       id="path149"
       d="m 0,0 c -15.939,0 -28.907,-12.968 -28.907,-28.907 0,-15.941 12.968,-28.908 28.907,-28.908 15.941,0 28.908,12.967 28.908,28.908 C 28.908,-12.968 15.941,0 0,0 m 0,-58.921 c -16.549,0 -30.013,13.465 -30.013,30.014 0,16.549 13.464,30.013 30.013,30.013 16.549,0 30.014,-13.464 30.014,-30.013 0,-16.549 -13.465,-30.014 -30.014,-30.014"
       style="fill:#e60013;fill-opacity:1;fill-rule:nonzero;stroke:none"
       transform="matrix(1.411111,0,0,-1.411111,88.904056,139.39431)"
       clip-path="url(#clipPath150)" />
  </g>
</svg>
