<svg height="316.227766" viewBox="0 0 87.901855 87.901772" width="316.227766" xmlns="http://www.w3.org/2000/svg" xmlns:xlink="http://www.w3.org/1999/xlink"><linearGradient id="a" gradientUnits="userSpaceOnUse" x1="63.42692880085" x2="122.5460030779" y1="140.15634708974" y2="140.15634708974"><stop offset="0" stop-color="#0054a1"/><stop offset=".38" stop-color="#007dc0"/><stop offset=".54" stop-color="#00a0d7"/><stop offset=".71" stop-color="#9fd4f0"/><stop offset=".92" stop-color="#e5f4fc"/><stop offset="1" stop-color="#e9f6fc"/></linearGradient><g stroke-width=".661457" transform="translate(-49.035695 -125.76489)"><g fill-rule="evenodd"><path d="m92.986623 126.05539c24.047447 0 43.660347 19.6129 43.660347 43.66035 0 24.0472-19.6129 43.66042-43.660347 43.66042-24.047185 0-43.660415-19.61322-43.660415-43.66042 0-24.04745 19.61323-43.66035 43.660415-43.66035z" fill="#fff"/><path d="m92.986558 126.39314c23.861442 0 43.322692 19.46122 43.322692 43.3226 0 23.86112-19.46125 43.32267-43.322692 43.32267-23.861053 0-43.322545-19.46155-43.322545-43.32267 0-23.86138 19.461492-43.3226 43.322545-43.3226zm0-.62825c24.207512 0 43.950992 19.7434 43.950992 43.95085 0 24.2072-19.74348 43.95092-43.950992 43.95092-24.207128 0-43.950863-19.74372-43.950863-43.95092 0-24.20745 19.743735-43.95085 43.950863-43.95085z" fill="#0054a1"/><path d="m125.80442 156.67806c.005.0175.0125.033.0175.0488.2245.063.4185.0648.67395.0813.039.02.0778.039.11575.0592.0675.01.25228.015.30955.002.007-.0125.015-.025.0225-.036-.005-.015-.01-.0273-.015-.041-.0422-.0378-.0927-.0955-.1505-.102-.062.00068-.14125.0422-.19175.0352-.0503-.1065-.237-.0862-.3236-.139-.0525-.136-.0487-.22825-.0768-.3253-.0597-.02-.11225-.10525-.17275-.11225-.0832-.01-.16-.01-.24325-.002-.0403.015-.0815.0312-.12225.0468-.0787 0-.144-.0743-.21375-.0965-.0225.007-.044.015-.0658.025-.0585-.1345-.15525-.1065-.2225-.196-.13525-.17675.002-.4883.075-.5881-.008-.02-.0125-.0385-.02-.0578-.11175-.032-.213-.1445-.32397-.167-.1425-.0278-.3337-.0515-.44523-.14-.1475-.11575-.34575-.30778-.5451-.30698-.51282.001-1.53552.76003-1.83952.32008.1245-.19975.2195-.50893.36612-.68818.055-.0682.11775-.1005.178-.1705.0602-.0692.072-.168.162-.238.1245-.0972.34395-.14675.48325-.154.1945.02.38775.0395.58195.0595.0395-.0125.0787-.0225.1175-.0348.0225.01.0452.02.068.0295.0515-.0175.1035-.038.1545-.0577.0995-.00057.20775.0478.29575.0658.0517-.005.1035-.007.1555-.0125.0965.005.1815.0917.25883.144.0343.0992-.0125.12725.005.2135-.10175.0393-.52798.214-.56938.27053.00053.002.001.005.003.007.005.0125.01.027.015.0408.12525.037.26083.13975.37505.20375.27993.1575.61033.20075.87735.397.25573-.0772.78258-.32458.8269-.55543.11275-.0438.2671-.122.3607-.10825.0682.01.114.0935.19475.095.12975.001.244-.0393.3517-.031.0457.094.092.056.14275.10525.0947.0927.139.25208.14675.36485-.0448.0255-.0495.048-.0598.088.005.01.008.0225.0125.0325.232.0573.4492-.0985.61563-.2235.0387-.0288.5303-.22125.58842-.2215.047-.001.12475.044.206-.0225.0575-.046.108-.163.15475-.2085.0745-.071.139-.075.21025-.13425.14275-.1205.2145-.39785.51568-.39137.1385.005.20075.0867.29712.19625.0355.0273.071.054.10575.0813.14425.18675-.104.56627-.194.67077-.028.01-.0548.02-.082.031-.007.0278-.0175.056-.025.0838-.0877.087-.26532.1105-.3429.2045.001.002.002.005.002.008.005.0175.0125.0327.02.0487.19675.0563.56038.188.75353.192.038-.015.0768-.0298.114-.0433.096-.002.4617.0907.53942.1415.1395.35653.3874.67595.0772.89543-.14.0993-.32642-.039-.44695.103.0317.0925.11175.15175.118.26312.005.0857-.0445.2195.0445.29158.52363-.19.36283-.2235.52343-.54268.397-.3954.63355.11.85797.3949.0382.0477.17275.18125.176.26895.0125.26333-.26247.41103-.25565.65695-.098.042-.13425.10375-.2045.15175-.194.1325-.57785-.002-.66947-.0927-.043-.0427-.0428-.0825-.0788-.11-.10425.015-.199-.002-.29813.0004-.1145.0368-.22775.0738-.34112.11025-.31643-.01-.80943.155-1.08895.3548-.18575.1325-.52135.091-.64678.26313.00048.002.001.005.002.007.0468.11675.1065.185.1605.2753.0538.17.10825.338.1635.50732.0805.10225.18.30138.102.41938-.0537.0482-.107.0962-.1605.14475-.03.0597-.06.122-.0892.18275-.2145.26767-.3364.35677-.7473.39415-.0425-.0573-.10175-.059-.13975-.0965-.0598-.0613-.10775-.1505-.15475-.2125-.0315-.0418-.005-.0712-.005-.0908 0 0-.1595-.3708-.1755-.39165-.0512-.0655-.1435-.0897-.18275-.1635.0175-.10475-.1285-.22825-.18575-.29448-.0465-.0538.01-.1315-.0498-.20525-.061-.0747-.201-.3081-.27662-.36195-.1135.0443-.30725.0765-.3689.036-.0453-.0288-.0423-.078-.0973-.0845-.181-.0175-.33483.025-.53743.0352-.0525-.0592-.0798-.0302-.1355-.0607-.10325-.0577-.0965-.20575-.25935-.14475-.0255.0475-.0525.094-.0775.14125.053.1255.10725.25163.16125.37743.04.0532.14225.0985.15475.21275.033.2929-.0175.67852-.1695.88502-.0263.036-.0812.176-.17875.16975-.01-.00032-.1175-.0617-.1575-.071-.0263-.0743-.044-.08-.0868-.107-.025.005-.0463.01-.0692.0175-.0365-.073-.0738-.1465-.1105-.2195-.0332-.0348-.10825-.0175-.143-.0582-.0905-.104-.07-.18425-.1175-.31035-.0378-.01-.0763-.02-.114-.0312-.042-.0428-.02-.12375-.0773-.1295-.0845.0315-.169.0635-.25287.0952-.2375.02-.48525-.049-.70505-.0605-.0988-.005-.15625.049-.2599.052-.1565.002-.37405-.001-.50805-.0602-.1615-.0715-.1785-.21975-.31585-.3667-.09-.0955-.2485-.2115-.3406-.3099-.11625-.12375-.2585-.41435-.25353-.5946.005-.19575.21225-.2445.23675-.3888.0382-.226.083-.47597.231-.64702.0968-.0423.19275-.085.28813-.1275.26407-.187.5338-.4453.8916-.38298.0787.1825.5314.51078.6854.62765.041.0317.135.0425.17675.0735.0895.0662.13775.1945.22375.27008.0285.0125.0572.0225.0865.0323.034.0652.0683.13025.1015.19575.029.01.058.0225.087.0317.0477.0515.048.12925.089.16225.002-.00065.005-.001.007-.002.11075-.0488.068-.11225.12-.176.0515-.0623.127-.0615.1695-.1195-.002-.002-.002-.005-.002-.007-.1115-.2015-.17225-.4314-.19175-.6557.10725-.0533.1725-.2215.3101-.21925.0898.00052.127.0525.25432.008zm4.81933-.33582c-.20725-.0687-.3302-.34813-.55863-.36738-.0623.005-.0703.0332-.0933.0722.025.16775-.0125.3075-.058.4421.015.02.033.0372.0497.056.27728-.12025.3929-.19675.61985-.11325.0175-.015.037-.0325.056-.0493-.005-.0125-.01-.0267-.015-.0405zm-.72418.82425c-.11375-.0535-.34277-.28865-.51977-.065.0397.10875.0848.3009.16675.3658.12125-.0175.32022-.11225.38152-.19925-.01-.0338-.0175-.0678-.0285-.10125zm-1.27012.0975c-.015-.005-.0282-.01-.0427-.0125-.28323.113-.3188.204-.58083.1165-.01.005-.0225.008-.0325.0125-.008.015-.015.0305-.02.0452.04.0868.1165.1145.16725.17.128.14075.40218.57817.63375.246-.00065-.002-.002-.005-.002-.007-.039-.0965-.13825-.177-.14175-.30135-.002-.0877.041-.1805.02-.26783zm-.56318-1.3937c-.0662-.015-.2355.005-.30022.02-.0458.0525-.0743.09-.091.15525.002.01.008.0225.0125.0328.13625.0435.29407.0442.39172-.101-.005-.0443.005-.052-.0125-.10775zm-.337.71522c-.108-.027-.36917-.134-.45212-.0348.001.002.002.005.002.007.0572.16.1705.29653.27185.37373.015-.008.0325-.0125.0487-.0175.0295-.1075.116-.18175.1435-.28785-.005-.0125-.01-.0277-.015-.041zm.8757 2.32048c-.13-.0888-.1975-.32868-.3513-.36248-.116-.0252-.2235.032-.3523.0308-.097-.00067-.203-.0775-.29157.0445.001.002.002.005.002.007.0842.1395.83332.75763.9627.79428.0453-.0225.0405-.031.0613-.0607.0125-.154.0478-.24475-.0322-.45423zm-.6243-.98738c-.14875-.0753-.248-.26265-.38205-.36922-.02.008-.0385.015-.0572.0225-.02.0418-.037.0832-.0558.12425.0125.0225.025.0472.0358.0702.0447.043.0777.0175.144.01.01.0265.02.055.0307.0817-.0487.0258-.0635.054-.0875.0898.0225.0507.0315.0472.0632.0693.1205-.03.2455.0487.32683-.0495-.005-.015-.0125-.0325-.0175-.0493zm-3.19755.3582c-.085-.0483-.121-.2015-.1955-.2712-.17375-.1645-.45057-.20225-.63222-.34025-.27245-.20775-.57143-.3545-.87048-.50245-.38252.15225-.4236 1.02988-.0687 1.42598.21125.23625.47465.29672.81225.27237.0833-.007.42315-.015.53918-.129.0175-.0532.0348-.10625.0517-.1595.0225-.01.0415-.0225.062-.033.038.0175.0747.0342.1125.0505.0925-.0387.20125-.10325.24525-.1665-.02-.0493-.0373-.098-.056-.147zm-57.765615-13.56082c-.0768-.0743-.14295-.068-.210475-.10525-.06767-.068-.1362-.136-.204125-.2035-.04935-.0315-.08765-.0255-.149425-.0895.01175-.087-.035-.18775-.05735-.2759.08957-.1475.163325-.36528.358313-.42368.15345.1005.31836-.1445.327092.22375.05933.0615.093.054.1516.064.03432-.0335.03162-.0403.04082-.071-.13455-.2985-.05768-.6102-.07608-.9017-.0092-.14575-.04172-.28627-.04775-.4355-.007-.17325-.03465-.44985-.27874-.5117-.1317.13375-.197125.31035-.268287.44775-.03975.0512-.08043.1025-.12025.1535-.09167.174-.162575.36493-.287008.5584-.06025.041-.120775.0835-.18045.12525-.07467.11975-.28436.23875-.411692.15475-.06892-.0452-.103125-.179-.13375-.24325.07428-.12925-.01525-.198.0287-.28212.07825-.1465.210075-.1485.167025-.29938.1225-.1025.208625-.048.328745-.117.219925-.126.468972-.6166.484715-.76887-.12945-.1455-.291835-.22725-.432923-.3165-.10715-.0998-.21425-.19825-.3218-.29768-.11145-.0335-.2231-.0668-.334037-.10025-.06158-.0465-.0938-.147-.112775-.19225-.05728-.0695-.114825-.139-.17285-.20875-.08917-.15525-.1233-.28542-.1598-.42987.08697-.12125.108025-.27425.2091-.39603.06542-.0777.464805-.22275.552715-.24475.228325.1965.2083.40185.286212.5981.0348.0885.09783.11175.124025.19325.0369.11175.04015.29263.09963.40138.0797.0895.15895.179.237925.26842.085.0955.154.18075.253603.207.002-.001.004-.005.0067-.008.208825-.212.0596-.58315.05483-.8189.18515-.1925.50152-.4699.704057-.39105.09168.0673.08903.22675.123625.31038.05012.0572.10075.113.15095.17025-.1053.3458-.488687.70082-.558272 1.05475.13005.125.358445.27807.44622.50385.03427.087-.03142.16525-.0215.25207.0085.007.01625.0175.0235.0257.01225.00065.02508.002.03705.002.2462-.234.347992-.69737.434377-.9576.03142-.0937.166025-.224.217425-.32087.07507-.1415.15425-.34443.239975-.49333.215425-.37522.763455-.64677.840845-1.02585-.221775-.25505.223575-.9404.544183-1.04397.280855.179.268552.2952.40263.51917.47572.1605.695522.2798 1.046557.79858.03785-.001.07428-.005.1114-.005.14335.0828.257308.20175.403028.29615.05265.0593.10445.118.156775.1765.0762.0482.613965.40197.65253.56487-.0032.0267-.0072.053-.0105.0797.04285.0397.08565.0795.1284.1195.01875.0465.000197.17.0185.2175.0252.02.0512.0397.0768.0597.0297.0598.114775.20825.131625.28033-.03148.0462-.0416.0817-.05125.12675.02375.026.04662.0525.06965.079-.07218.11725.008.1635.002.27835-.012.23025-.0095.46757-.03572.69682-.03223.28233-.130825.55638-.19255.83563-.04605.21.0013.47857-.07162.68237-.101275.28335-.173575.56653-.18685.85505-.03963.0315-.24745.2045-.28436.20575-.03637-.0455-.0733-.0917-.1096-.137-.1614-.10275-.31181-.0875-.461698-.244.002-.002.0048-.005.007-.005.002-.001.004-.002.006-.005.03982.0377.07773.0585.12005.0567.0088-.007.018-.015.02645-.0225.000662-.0175.0013-.0332.0033-.0495-.07395-.0995-.13685-.1555-.24255-.181-.03135.025-.03982.0265-.0641.033-.104175-.0753-.250957-.20175-.35163-.2255-.1102.0662-.205-.0952-.295343-.12225-.01975.0225-.04022.0427-.05985.0642-.07885-.0225-.1581-.0465-.237475-.0693-.0105-.1145-.11205-.102-.198701-.0922-.0082.007-.01725.015-.02568.0225.02665.2395.01975.163.1952.3513-.06667.21325.1387.1655.2341.32948.08863.15225.195125.34317.280393.4869.04212.048.08447.096.1278.144.017.0435-.0065.071.0291.12525.03875.005.0776.007.11695.0125.0145.0365.09618.12125.09553.1605-.004.03-.0075.0615-.01125.0915.009.01.0185.0225.0283.033.023-.005.04617-.01.06912-.015.02902.22175.5039.42087.659142.5586-.000462.005-.000595.008-.000395.0125-.077.0685-.120975.1965-.147375.28217.05667.0783.01375.11425.0332.18125.04048.0725.08175.1455.1223.21775-.017.015-.0346.0312-.0518.046-.07568-.04-.14685-.02-.2073-.0488-.220275-.10775-.334697-.23725-.535915-.44727-.05125-.0478-.1016-.0965-.1528-.14475-.150425-.31955-.402762-.6295-.605632-.9458-.09115-.143-.215625-.31203-.337675-.34173-.0028.002-.0048.005-.0065.007-.06165.062-.06132.123-.10405.18475-.07672.08-.15425.1595-.23105.23975-.076.14875-.21405.40278-.38821.49655-.07528-.0542-.15035-.108-.22535-.162-.0668-.0967-.1327-.1935-.2001-.29005-.05478-.0592-.111725-.11825-.1682-.17775-.019-.045-.05755-.136-.06825-.1955.0072-.0488.0135-.0985.02125-.14725-.0254-.15075-.09485-.2825-.1354-.42862-.02745-.0992.0324-.2778-.11655-.32835-.002.002-.0048.002-.006.005-.0135.015-.02685.0312-.0406.0473-.0256.0755.03452.16325-.008.2405-.05747.10525-.572425.43537-.653653.48682-.0083-.005-.01625-.01-.024-.015-.1727-.0922-.193925-.3296-.25863-.43595-.06655-.11-.217875-.106-.294215-.14775-.04497-.0373-.09002-.0755-.1354-.11325-.05892-.0292-.252147-.03-.315912.0125zm2.077508-3.0916c-.20565.15775-.27768.44212-.360825.65795.0053.0383.01175.0757.01775.113-.0027.007-.1069.0817-.1274.1595.0065.0335.01275.0665.0185.0995-.03445.0397-.07013.0785-.10525.118-.04545.0787-.122175.29237-.02765.36302-.10135.097-.04228.0933-.152725.1705.01.0798.015.1535.017.22975.0078.01.016.0175.0235.026.012.001.0245.002.03677.002.19805-.1725.350572-.36525.41791-.58135.0032-.076.0053-.152.0083-.228.04452-.18125.130825-.29282.29812-.44007.07892.025.183825-.01.25691.052.04855.1165.0975.233.146175.34925.02692.0255.05425.0528.0815.0793-.0027.0453-.0053.0902-.0083.13525.0305.084.1448.0907.152925.2385.006.10475-.131225.475-.04465.52877.059.0273.1243.0175.18825-.0387.022-.11175.21405-.23025.343362-.2571.04557.0412.06522.025.09618.043.0817.047.07085.146.111725.2045.253338-.015.53955-.0125.78859-.046.05707-.008.147825-.0475.206375-.0433.18375.015.570708.13575.73971.0443.247725-.13425.2114-.84402.247375-1.03657.01325-.0693.04207-.1015.06647-.17575-.02528-.10175-.04975-.2045-.07475-.307.0068-.072.01275-.14375.01925-.215-.0264-.16475-.07877-.34773-.13645-.50985-.05835-.1635-.241225-.25288-.326562-.43318-.02858-.0617-.13805-.26645-.19275-.29635-.16225-.0883-.4064-.18775-.56548-.2686-.10505-.0625-.210875-.1245-.316573-.18625-.06607-.0263-.1331-.053-.199175-.08-.214175-.141-.89932-.6072-1.109135-.5922-.179575.17025.06925.33848-.0115.51283-.07303.157-.248125.19975-.33516.32067-.11965.16575-.325637.36838-.467652.485.01175.14425-.08863.26465.131775.28018.06555.105.1043.18325.1553.29382-.04393.0635-.04808.1285-.03605.1955.0097.01.0185.0225.0285.0335zm-1.546688.7296c.0013.015.0027.0295.0032.043.0075.01.01525.0175.023.0265.015-.00065.02938-.002.044-.002.0085-.007.0175-.015.02585-.025.000663-.0125.0013-.025.002-.0373-.02225-.0125-.04418-.0225-.06607-.0348-.01075.01-.022.02-.03255.0292zm-.13625.21475c.00066.015.002.029.0032.0438.008.007.0155.0175.0235.0255.01375-.001.02838-.002.04293-.002.0087-.007.01775-.015.0262-.0225.00053-.0125.0013-.025.0028-.0365-.02225-.0125-.04412-.025-.06583-.0355-.01125.01-.02175.02-.0326.0293zm.667743-.10275c-.04518.20175-.260815.3712-.361685.56612-.146525.28258-.327358.65573-.310623.95205.123425.12675.32815.141.461435.0345-.002-.1505.05105-.29072.100875-.43955.02978-.0885-.0032-.23225.01325-.32722.04618-.26478.1448-.526.2141-.78468-.03485-.0352-.04023-.032-.0721-.0415-.015.0125-.03035.0275-.0453.0402zm-1.260873 2.97417c.26445-.22275.332515-.08.52791-.12925.08975-.0225.180775-.0615.268685-.052.143075.15675.227475.34813.1932.49418-.018.077-.07833.17325-.058.2501.0375.14375.09743.218.09023.35182.03725.0283.0744.058.112175.0875.03765.0695.05775.217.145125.2681.01575.005.0326.01.04863.015.13255-.14975-.135925-.32345-.0772-.46865.0252.029.05.0567.07535.085.15955.38735.569845.92855.928025 1.12593.06893.0375.330795.2485.322528.29747-.0135.0283-.02818.056-.04188.0845.08837.1545.03578.2155-.02805.36308-.0467.10725.0471.21425-.118075.31432-.1835-.005-.373923-.21275-.546828-.36712-.044-.0577-.08785-.1165-.131625-.174-.1534-.1135-.207175-.26948-.297392-.41445-.06767-.0755-.1348-.152-.203-.22775-.2075-.37518-.4996-.72708-.68977-1.08015-.209025-.3906-.510448-.30335-.574278-.74005.03757-.034.04855-.051.05425-.0835zm1.863858-.96467c.0013.0175.002.0367.0032.056.03512.0385.04492.0378.07792.0475.03453-.0345.03183-.04.04108-.0712-.002-.008-.004-.0125-.0053-.02-.03963-.0393-.04722-.0337-.0842-.043-.011.01-.0215.02-.03288.0298zm.74361-.53095c.0013.015.0028.0295.004.0438.009.01.019.0225.02865.0325.168675-.01.439142.0607.494242-.20525-.0557-.059-.08195-.0425-.1387-.0517-.134075.0737-.22345.0342-.388077.18075zm-.193025.84825c.0145.131.05755.54637.217875.58845.167625-.11525.274967-.25758.26035-.41753-.1303-.15575-.304205-.20825-.446353-.2-.0105.01-.0215.02-.03187.029zm1.305917-.949c.006.0415.01175.0835.01775.125.08227.0732.295473.0707.330333-.0483-.0092-.01-.019-.0225-.02925-.0332-.08758-.0258-.22695-.1115-.318823-.0435zm.824045 2.0473c.0013.015.0028.0293.004.0438.02225.0125.04345.0225.06575.0348.002-.002.004-.002.0065-.005.0083-.007.01725-.015.026-.0225.00066-.0125.00066-.025.0028-.038-.0348-.0337-.04115-.0317-.07157-.041-.0115.01-.0225.02-.03315.029zm49.5781-2.79923c-.18625.19725-.19725.32703-.16975.5119.005.0533.0125.10625.0175.16-.025.0722-.0632.1435-.0872.19425-.0463.0447-.0915.089-.13775.134-.007.0455-.015.0908-.02.13625-.0923.0853-.184.17075-.27603.25553-.0558.0277-.1205.0175-.18425.055-.0805-.077-.0708-.16-.154-.20525-.133-.0715-.29282-.055-.41135-.11075-.0853-.0412-.11425-.1105-.18925-.143-.0862-.037-.22975-.0753-.32505-.126-.158-.085-.29182-.31315-.46725-.3322-.13575-.015-.5879.176-.74725.233-.48677.174-1.01097.36802-1.5107.47127-.31352.0528-.627.1055-.94007.15825-.3933.015-.7862.0278-1.17938.042-.44442.061-.98445.0538-1.43357-.0307-.12025-.0225-.242.0435-.3636.0292-.0352-.14075-.0705-.28202-.10575-.42247.14-.17825.2345-.27475.44617-.16875-.001.0225-.002.046-.005.0683.0318.026.0628.0517.095.0775.143.051.78853-.0517.9668-.085.4146-.0752.85585-.0947 1.2733-.1805.4535-.11675.90753-.23325 1.36108-.35045.0635-.015.16975-.0175.221-.0433.0692-.0333.0847-.1125.15575-.14025.12825-.051.30135-.0867.43425-.1555.1005-.052.22175-.0557.242-.168-.01-.01-.0225-.02-.0315-.0302-.2415-.074-.592-.18125-.80255 0-.0643-.0633-.067-.10225-.1285-.1445-.015-.001-.0292-.005-.0433-.005-.0225.02-.0445.0387-.0662.0577-.0785-.076-.2702-.28953-.25845-.3754.01-.067.0592-.0837.0445-.149-.01-.0495-.041-.061-.059-.116-.0345-.1035.116-.3562.171-.4746.056-.0595.1115-.11875.16775-.178.1515-.1615.2587-.35493.46625-.30428.24175.059.49365.1565.73157.28068.2626.13775.23225.4476.45005.59167.1525.10025.30745.10225.45443.116.11325.17025.113.0538.219.086.0537.0175.063.0452.10675.0522.19-.20725.31312-.18325.51052-.27515.10525-.0493.17275-.1775.27715-.23075.19275-.0985.389-.24275.57665-.33217.0913-.043.12375-.143.1985-.185.32023-.1785.34675-.46845.57138-.70915.134.01.24325-.1225.33602-.1275.1445-.002.21725.2125.3667.28575.22825.1115.15975.31095.23025.4556.0258.025.0512.0482.0763.0728.0915.165.007.48975-.2455.64365-.0583-.0618-.0697-.0995-.134-.11425-.0257.0225-.052.0473-.078.0705-.207-.16025-.54525.155-.75982.1965-.007.01-.0125.02-.0175.0312-.0175.0512-.0004.0733.0282.1225-.15325.15475-.3822.305-.5502.39415-.108.0562-.14475.16075-.24075.204-.0863.0393-.16825.0335-.2626.113.007.032.002.074.059.1035.0763.0412.7661.23625.81605.21625.158-.0632.11-.2556.2827-.237.01.01.02.02.032.0298zm-3.05318 1.75338c.24525.22525.3453.2939.47918.56027.0325.051.065.10075.0975.152.005.047-.036.0755-.0457.12475-.025.12125-.0478.4173-.0277.53803.0442.26565.215.52492.08.79467-.107.21475-.3083.40805-.4195.62363-.0558.10825-.16825.15675-.19025.253-.0267.015-.0793.085-.1205.1025-.0727.0312-.179.005-.26433.0515-.0355.0377-.0718.0762-.1075.11425-.11475.054-.26212.0702-.372.153-.29435-.2095.02-.80118.13975-1.10338.0448-.11275.02-.2375.0385-.34715.0305-.0955.0605-.19075.0903-.2868.025-.20575-.015-.42617.0367-.63725.0587-.2465.21975-.44285.37373-.70332.0757-.1285.0973-.27008.21175-.38988zm-15.00577-9.0555c-.0105.054.003.058.0165.0962.111.0778.17398.35037.1809.45652.003.0585-.10372.16725-.1102.2405-.005.0573.009.179-.0398.2524-.0833.12475-.26578.29945-.21213.45563.005.005.01.01.0145.0125.2204.0517.47347-.099.58718-.2503.0691-.092.047-.17475.1182-.2385.0578-.0225.11642-.0428.1743-.0652.0242-.122-.16788-.17625-.23833-.26385-.0751-.093-.10497-.23025-.16345-.333-.017-.005-.0335-.01-.0505-.015.0195-.1125-.0295-.37643.003-.42803.0369-.0595.10815-.0857.1563-.15375.0358.0438.0798.0555.13375.0405-.01.227.82854.26.93126.119.0431-.0598.1651-.36155.16695-.4603.002-.10875-.11377-.14525-.18097-.0637-.14243.1855-.21015.2295-.44186.3126-.12647-.099-.47155-.015-.58466-.0595-.12607-.1555-.35547-.22425-.36499-.44807-.0132-.28663.3634-.59433.16285-.8085.127-.131.11795-.2475.0945-.40013.0459-.041.0914-.0815.13772-.1225.18918-.0708.71312.34708.83483.43663.17238.12675.59644.0855.72522.047.0429-.141.0827-.202.12745-.27148.0431-.0658-.04-.076-.003-.138.0795-.1325.14943-.3617.24898-.49047.0448-.0567-.008-.0992.0157-.141.062-.10775.35209-.6651.34482-.74355-.017-.20175-.10735-.2345-.16735-.38008-.0735-.1775-.0539-.38695-.0543-.60065.0436-.0265.0884-.052.13307-.078.007-.0225.0138-.0443.0205-.0668.10505.025.23363-.0175.34191-.015.1692.005.79613.4435.90077.54748.0318.0317.0434.20975.0822.2714-.0256.0837-.0506.1665-.0761.25095-.026.0358-.0994.0962-.12092.1275-.0688.1855-.13773.37187-.20598.558-.007.0685-.0693.60855-.11462.67687-.0903.1355-.59214.31075-.4279.53593.1704.0373.72694-.0175.81201-.118.004-.0225.008-.0457.0115-.0697.0862-.13125.33046-.23825.47935-.25508.0366.01.0729.02.1088.0325.0346-.015.0689-.028.10378-.0412.0358.00008.26967.13425.29693.1635.0432.0457.0125.12825.0461.17825.0502.0543.1004.1095.15087.16425.0524.084.0531.20925.08.30733.0203.0725.0821.0675.12522.12875.0464.0667.1129.53252.0938.62195-.14195.11725-.15372.30295-.27609.42757-.0282.0125-.0562.0255-.0845.038-.0757.0852-.0874.19525-.13177.2522-.1258.1615-.30573.28273-.41222.48565-.067-.0225-.085-.015-.12653-.002-.001.002-.002.005-.003.01-.024.0862.005.0895-.003.16275-.0921.0888-.11675.24425-.20512.37517-.16405.24125-.34442.52255-.53512.7407l-.23628.17475c-.0842.02-.1993-.015-.25883.0403-.058.0547-.0887.12425-.13857.18625-.0638-.0175-.63983.16525-.67151.197-.083.0837-.11205.17375-.2126.21825-.0272-.002-.0532-.002-.0802-.005-.0175.02-.0357.0377-.0532.0567-.0364-.01-.0728-.0225-.10935-.0327-.0731.007-.30797.1125-.39978-.002-.0243-.03-.0554-.278-.0727-.33217-.1196-.0373-.26677-.0175-.33007.0637-.25433-.0765-.46871.0175-.72337-.083-.10313-.041-.24025-.1535-.27398-.2385-.0178-.0447.0157-.10225-.0225-.1345-.0433-.0362-.24367-.0405-.28317-.0312-.0686.2548-.27027.5743-.43616.62455-.0887.0268-.26168-.0175-.29197-.0888-.2333-.2095-.23753-.50688-.23788-.8386-.00066-.13825.0866-.19825.0987-.32615.023-.233-.0102-.5098.007-.7462.0198-.0333.0393-.067.0587-.10075-.0004-.0387-.0208-.1405-.0213-.1705.0175-.0277.0355-.0563.053-.0842.005-.21225.1258-.26663.16172-.44375.15723-.00055.20308-.20925.39291-.20925.0952.00015.0985.089.13885.11525.0647.044.14123-.0125.21598.066.0452.0457.01.0837.10047.12175zm-.95574-5.29205c.15895.06.20413.1415.26009.253.0749.025.13162.0295.18607.02.11213.17525.0948.3966.12145.62057.0386.32538.072.72238.0895 1.0586.004.082-.06.109-.0368.18025-.0497.0577-.14235.1115-.15968.1345-.0455.0617-.017.12275-.0723.1785-.0117.0125-.30261.16825-.32768.1745-.0549-.0175-.1102-.0338-.1665-.051-.33788-.11625-.1219-.37245-.16928-.64465-.0424-.2465-.18607-.37167-.31068-.56912-.0271-.0442-.002-.113-.0123-.1685-.0207-.025-.0403-.0482-.0598-.0725-.0296-.0885-.0492-.59015.0285-.6944.0349-.0472.0697-.0807.0999-.1795.0858.01.15597-.0803.18257-.18175.1059.015.24533-.0315.34687-.059zm3.92404 4.20502c-.0487.0175-.0887-.0125-.15293-.01-.071.0275-.14347.0542-.2153.081-.1157.30975-.48895.81598-.39383 1.08405.16542.0475.38034.16.45144.25645.0312.042.0117.13225.0886.21875-.0187.061-.0372.12225-.0553.18375-.005.005-.2122.16975-.2169.172-.0316.005-.0645.01-.0962.015-.0215.03-.0426.0602-.0641.0905-.048.0175-.0911-.015-.1319.015-.0486.0348-.0967.105-.083.18475-.0296.015-.0587.0312-.0874.046-.0293.0335.0102.3556.084.38188.0628-.0125.19545-.0735.2376-.12.028-.0308.0142-.0635.0503-.0755.0935-.0298.2755-.0345.34257-.10575.41433-.43788 1.28997-1.45798 1.04504-2.14643-.31797-.0968-.54571-.1925-.80255-.2712zm-5.93375-1.34765c.12978.0225.1688-.0973.27934-.107.2237-.0175.37914.0742.59584.081-.007.088.13447.172.20777.2185-.0282.17575.12.2981.16888.43418.0245.069-.0267.122-.0165.20525.016.0265.0323.0522.049.0787.0284.16175-.13765.31102-.213.40117-.0469.0545-.0295.126-.0786.16725-.0385.015-.077.0318-.11475.0475-.012.039-.024.078-.0357.1165-.0242-.01-.0487-.02-.0723-.031-.0731.007-.14095.0733-.22462.0777-.2333.0125-.635665-.533-.670722-.70582-.0287-.0362-.05755-.072-.08565-.1085.0092-.02.01875-.0425.02825-.064-.01275-.0765-.02593-.1535-.03923-.231-.0032-.1025.04868-.24425.05747-.3382.05808-.01.137375-.17375.164625-.242zm4.67096 1.32893c-.0545.0373-.16708.1215-.12978.216.005.092.0883.15375.17185.12475.0481-.1275.12635-.18575.0913-.30045-.0446-.0125-.089-.0265-.13342-.0402zm-2.24824.0375c-.003.0225-.0325.07-.055.0923-.0305.0002-.0607 0-.091 0 .009-.01.0175-.02.0267-.0282.0479-.008.0844-.036.11933-.064zm-.1979.11275c-.0337.1105-.22125.126-.29871.20175-.0588.0573-.0714.14125-.1303.1885-.1061.068-.2112.136-.31803.20425-.0443.0563-.0889.11275-.13335.1695-.0322.005-.0642.01-.0965.015-.0212.042-.0433.0842-.0657.12625-.0822.0738-.23297.13275-.3093.20725-.0741.0725-.10602.13575-.17952.201-.0396.02-.0786.037-.117.0555-.0322.0453-.0644.0902-.0957.1355-.35427.29527-.757367.55225-1.018775.97697-.18045-.0285-.07355.25155-.146375.3935-.116625.2245-.1327.53505-.239325.78543-.07223-.005-.2163.0865-.258632.13125-.0072.0225-.0135.0443-.02025.0665-.03015 0-.06112 0-.09187-.00045-.06065.0303-.1217.0605-.182425.0905-.08022-.015-.160725-.0308-.241825-.0463-.03328.002-.0565.0503-.120975.01-.208025-.13275-.39231-.28458-.39767-.5227.0185-.0615.03697-.1225.05603-.18375-.018-.0415-.03513-.0835-.05353-.1255-.0307-.2583.279597-.63283.388142-.79515.02425-.0595.04795-.1185.0725-.17825.02805-.0125.05647-.0255.08472-.0385.117025-.133.03335-.38245.1008-.45278.0027.00048.006.002.0087.002.104375.047.208625.094.312805.14075.185675-.002.690298-.28745.85705-.38735.662185-.3958 1.382255-.68802 2.039475-1.09555.1985-.0918.39721-.18325.59558-.27557zm-16.74105-3.3103c-.01625.005-.03392.01-.05033.015-.05727.16375-.294612.3507-.449195.4642-.0807.0225-.1614.046-.243275.069-.0155.0293-.03175.0573-.04762.0865-.03645.01-.0729.02-.109.0308-.13605.0393-.17.0457-.2345.13025-.134075-.0275-.300235.1015-.37121.19625.02957.125-.50337.8097-.609865.9191-.15735.16275-.2278.5143-.276027.7511-.0245.04-.04975.0805-.07495.1215-.0729.4873-.398065.86405-.451908 1.37237-.03533-.0125-.04233-.02-.09332-.01-.03148.07-.07303.14375-.04968.24175.02705.01.05503.02.0815.0315.01025.01-.09573.608-.106825.67523-.03352-.0125-.06647-.0312-.10815.002-.011.0125-.02275.025-.03465.0363.0065.02.01125.0397.017.0597.02917.007.06185.015.08387.0393-.05378.21025-.07852.40157-.11305.62242-.03512-.015-.0672-.0388-.1102-.005-.025.0225-.02475.0225-.02998.0542.0065.0225.01275.0447.01925.0673.0256.0288.02513.0302.07037.025-.0175.19775-.121975.38603-.16265.57368.0068.0255.01425.0505.02075.0755-.0205.064-.0418.127-.0629.19075.007.025.014.0505.02075.076-.03585.0733-.0729.14725-.10875.222-.06587.26995-.08777.53697-.1731.79342-.08573-.001-.10875.05-.13415.10175.02705.0702.05088.051.08348.104-.04472.0378-.11265.0265-.16385.092.00053.002.0013.005.002.007.0065.0225.01325.0445.0195.067.02225.005.04598.01.06808.0175-.06555.234-.18925.44443-.272322.6684-.02792-.008-.02665-.0125-.06583-.008.02475-.068.0235-.10675-.03432-.15325-.004.00068-.006.001-.0083.002-.06845.02-.06905.0362-.09783.0735.0013.002.002.005.0028.007.022.0693.04207.066.08195.0948.0135-.005.02825-.007.04188-.0125-.0013.008-.0027.0125-.004.0175-.04393.0225-.03725.029-.05523.061.0185.0493.03017.051.05835.0745-.02573.0922-.05093.184-.07613.2764.0145.0503.0283.1005.0428.151-.0105.0882-.08798.21125-.112575.30508-.006-.001-.01275-.002-.01925-.005-.0295-.08-.07693-.077-.13045-.10775-.0085-.0825-.017-.165-.0254-.24725-.07633-.12525-.31836-.3314-.265113-.5145.0268-.0355.05292-.0705.07977-.1045.0391.015.0469.0255.10405.015.261938-.2275.33807-.54518.461035-.86698-.0326-.1035-.06342-.0943-.04585-.15925.0961-.0257.117675-.0563.1381-.12175-.07447-.221-.0801-.14225.0623-.28997-.0053-.0517-.06025-.1985-.05933-.20975.01775-.0535.0354-.10725.05345-.161.02025-.12625-.03597-.20275-.07157-.31525.08387.001.09645-.0453.127925-.0915.0032-.01.0067-.02.0097-.0295-.02738-.0965-.05763-.085-.0895-.1565.0666-.0595.0307-.10325.0678-.17425.138775.00025.0393-.2644.09293-.34378.014-.02.08685-.0567.1114-.086-.09533-.29607.06435-.3945.151475-.6151-.0165-.038-.03445-.0757-.05092-.1135.04577-.063.0155-.1055.03935-.18325.0285-.0952.1127-.17175.138975-.2755.004-.005.0095-.01.014-.0125-.0115-.051-.02275-.10225-.03408-.15325.0085-.0673.114775-.28305.1223-.33502.0135-.102-.02-.14675.0048-.2375.02918-.1095.100675-.24375.115425-.35925-.0083-.0495-.016-.0987-.0245-.1485.03858-.16225.09665-.13775.07098-.3558.01975-.0175.03875-.0352.05702-.0525-.018-.064-.03652-.12875-.05497-.193.08328-.025.0977-.0697.0762-.14875-.0225-.025-.0436-.0482-.06567-.0725.006-.008.0135-.015.01975-.025.0621.0125.07282-.015.102725-.0563-.06025-.2045.02075-.2315.03572-.38253.02475-.24675.02685-.50395-.01575-.7225-.06767-.0673-.171775-.12475-.273315-.1305-.01775-.126-.06845-.154-.108875-.28627.08255-.1195.0924-.2944.1733-.41263.02475-.0375.06893-.015.08235-.0605.01925-.0622-.01875-.183-.02475-.2475.0766-.037.1366-.12425.1893-.16275.14485-.10425.420093-.0352.594055-.17825.128575-.10675.333308-.24925.463948-.37782.0629-.062.29997-.11575.346935-.15325.01-.0275.02075-.0545.03128-.0813.0268-.002.05325-.002.0801-.005.03677-.02.03533-.0613.0594-.0807.0651-.025.1305-.0493.19625-.0745.07515-.0535.06113-.177.115425-.232.022-.007.04472-.0125.06655-.02.0195-.0383.0393-.0777.0576-.11625.0557-.0412.169475-.0502.21405-.0785.01675.02.03505.0383.05245.0573.113175-.0327.262862-.0745.360097-.0763.01725.02.035.039.05317.0585.03308-.01.0664-.02.100475-.0295.03943.096.0809.167.1422.214.02325-.005.0469-.008.06977-.01.019.0373.320808.21625.361488.215.004.0468.0078.0943.013.141-.06435.025-.1237.10025-.16735.1475.03465.10875.02375.163.01425.241-.08942.002-.06435.0827-.09685.13725-.0483.0385-.07012.0515-.100875.092.004.015.008.028.01175.0423zm1.59729 3.55825c-.01775.005-.03387.01-.0506.015-.02.0527-.02712.0853-.0293.1535-.06245.0175-.07223.0323-.09923.0648.0065.0528.0115.106.018.1585-.05012.015-.05425.025-.07672.0493.0225.0697.01725.092.002.135-.04642.02-.04377.0275-.06555.0553.04907.18875-.01175.26557.113175.36705.13725-.0393.2444-.007.371343-.005.0225.0845.05397.17325.10855.2225.015-.00065.0299-.002.04453-.002-.0283.10875.013.13025.0065.24325-.002.0225-.144525.4689-.153975.48007-.05205.0585-.1028.0487-.156175.0895-.06092.047-.0989.16825-.166425.211-.1774.1145-.432528.18275-.668205.29983-.0639.032-.07403-.0225-.1153-.0225-.03725.0175-.07303.039-.110075.0585-.02475.00067-.263858.00067-.32319.0468-.02425.0175-.09565.0908-.13155.11075 0 0-.1614.0175-.192225.0268-.13435.0417-.247726.11275-.33278.168-.08975-.0945-.432793-.002-.501848.0888.08215.27305.268618.41882.40759.6645-.0453.0615-.0836.132-.153325.16175-.07925-.143-.313795-.0602-.467055-.0755-.0889-.007-.1954-.10425-.283965-.13675.01175-.0595-.01175-.0832-.05092-.113-.155175.0445-.188725-.1-.31717-.1275-.0032-.1975-.341642-.40548-.453365-.56938-.01425-.051-.0287-.101-.0424-.15125-.08785-.12225-.186925-.3281-.278607-.4656.125275-.1245-.0961-.56562-.100025-.69845-.00066-.0577.04642-.0673.0313-.145-.0332-.01-.04445-.008-.0674-.0445.03347-.13575.015-.27622.0598-.39767-.03235-.0895-.09075-.0773-.14295-.15025.08335.0332.14525.005.1985-.0658.0013-.0538.0097-.0925.0254-.13425-.0185-.0563-.03392-.0585-.06238-.0913.09557-.0373.125275-.10775.18395-.15225.109275-.083.337937-.065.414337-.0453.06065.015.101475.1005.162525.1265.06567-.0175.0729-.0315.09975-.0652-.01575-.0668.0087-.0817.0105-.12125.002-.0517-.03838-.061-.04935-.0772-.0477-.0753-.02225-.2185-.007-.2794.01725-.0225.03545-.046.05298-.069.01475-.114-.07435-.167-.0165-.25003.03203-.1215.217675-.152.350705-.1365.314063.0357.549938.0527.793553-.2445-.01225-.039-.01775-.0567-.0048-.0805.09207-.17275.468047-.40965.478962-.58182.08492.001.111125-.0617.13005-.118.12945.025.395618-.0225.535385-.0625.0334-.1.1002-.0998.187575-.1715.03208.015.0629.0302.09465.0455.08745-.0422.169675-.13425.307513-.133.01875.0343.333837.21725.391385.2603.01775.0735.03638.14675.05398.2205-.212125.10725.07567.41375.004.553-.01625.032-.0455.045-.05848.0807.03718.1235.07905.21.05365.28417.04148.0918.0727.1835.07665.26848-.0502.015-.0543.025-.0764.0488.0115.0755.0245.15075.0371.22625zm-2.52849 2.11897c.02785-.007.0563-.015.08392-.025.01725-.035.03493-.07.05165-.1055.302685.0673.77027-.1395.866843-.40137-.04492-.13175-.206175-.247-.308638-.2849-.03387.01-.06752.02-.10095.0295-.02672-.0645-.03968-.0585-.004-.108.000133-.115.07423-.15375.01875-.2872.05675-.0175.05715-.0285.08288-.0595-.04598-.1425-.02475-.17325-.0559-.32068-.03288-.02-.06607-.042-.09968-.062-.14485.05-.213375.134-.405142.17-.02125.0635-.04127.0888-.1409.11225-.04637-.015-.126875-.00052-.177925-.0225-.1778-.069-.448733-.31842-.676605-.26927-.03838.098-.135125.18475-.165175.28257-.04208.14475.02665.28363.01175.45125-.0245.0635-.04807.1285-.07162.193-.07157.44415.21895.94913.530157 1.0648.0774-.02.08315-.0375.113775-.078-.004-.045.004-.0755.02507-.10675.006.001.01275.002.0185.005.01075.12.01725.13025.09975.1895.0028-.00067.006-.002.0085-.002.0981-.0318.165375-.0655.209675-.12375-.0205-.132.117675-.0953.08505-.2425zm-2.88806.7612c-.0097.02-.01825.0418-.0285.0625.017.0457.023.046.0475.068.03565-.001.07183-.002.10775-.002.01075-.015.02175-.0302.03235-.0455-.000462-.002-.0013-.005-.002-.01-.01725-.0645-.03095-.0725-.06475-.0993-.03095.007-.06113.0175-.09208.0265zm-19.891772 14.71363c-.0065.0175-.01325.0317-.01975.0485.0245.038.154199.25155.242749.218.04062.0558.02717.1315.05655.1915.03095.0652.0813.10375.120326.16975.0052.0422.0097.0853.01525.1275.03042.0348.06727.0352.08798.0627-.0264.0385.10485.79032.144799.84627.01325.005.02712.01.04088.015-.04458.177.08922.166.13045.23925.04002.0712.0465.22025.09677.30123.04915.0775.16345.10075.231375.1755.02845.0553.05675.1105.0846.165.08208.0812.393898.247.433123.331.0032.0385.007.0775.0105.116.1102.0437.1139.0877.211925.13075-.0067.0175-.013.0328-.01975.0493.0264.0353.05305.071.0795.10675-.0752.20325.05258.26287.09155.4117-.0342.0348-.04537.0838-.0563.11825-.03678.02-.0725.0402-.1084.0605-.07442.015-.158675-.02-.22365-.005-.0013.002-.002.005-.0033.01-.0252.0545-.06237.13525-.05092.1765.0065.0683.0916.095.09638.16-.0087.0373-.01675.0745-.02548.1115.01175.0175.0235.035.03632.0528.0093.10375-.10225.16025-.03963.26552-.05872.039-.077.0545-.059.127.01725.01.03552.02.05333.0305-.0295.0855-.02325.18225-.02858.26103-.0065.12-.124625.1865-.124625.26935-.00066.0895-.03148.48847.000462.54457-.02025.015-.1094.16625-.1241.19575.02075.0263.04128.0538.0621.08-.0852.14425-.06602.3648-.07712.50515-.13845-.015-.252742.10825-.393567.1175-.159275.01-.31181-.1375-.481873-.13425-.04292.0004-.121125.0745-.178525.025-.10245-.0913-.02962-.34342-.05272-.4627-.05695-.0312-.0987-.061-.1538-.0602.0013-.0628.05755-.15425.05715-.24075-.000395-.0383-.04312-.106-.0473-.1405.01125-.0267.02125-.0547.03167-.0812-.0048-.082-.35249-.53195-.454817-.5832-.03202.01-.06377.0175-.09565.0277-.004.0175-.0078.0337-.01075.052.02425.26643.454817.5674.360295.8464-.04868.0125-.1979.0535-.230775.0867-.01725.04-.0328.0815-.04955.122-.0674.069-.213525.0585-.295473.1075-.0311.0712-.033.10375-.022.15125.11555.0847.461037.20025.487495.28643.0027.001.006.002.0085.002.05185.01.103649.0225.15545.0335.01525.01.0135.048.06377.053.0027.001.0053.002.0087.002.04108-.0002.03315-.0335.09968-.0175.06245.0895.20075.15075.293885.22875-.0235.07-.0027.0785.03818.119.338865.06.368763.2536.586053.4652.0924.0905.202475.1105.290975.18975.128775.116.213.26722.319485.37922-.0475.152-.02475.31618-.11145.42598-.509983.64717-.75942.44887-1.581745.24875-.14725-.0613-.29554-.12325-.44278-.1845-.07813-.005-.264518-.096-.396543-.0907-.0502.002-.119325.028-.178525.025-.0283-.015-.05735-.0292-.08625-.0437-.03545.02-.07158.04-.10815.061-.02375.001-.463417-.1085-.463417-.1085-.162325-.10275-.278275-.27293-.475058-.366.006-.0175.01175-.033.0185-.0488-.0085-.02-.0165-.0373-.025-.0565-.1536-.0585-.25347-.30553-.303145-.4201-.01925-.007-.0373-.015-.05642-.0225.02587-.0987-.159225-.53935-.209625-.63593.07323-.0447.06435-.0837.04248-.15325-.085-.046-.06323-.11475-.118125-.1775.0072-.0175.013-.033.01925-.0493.04525.038.07515.028.11515.0175.07137-.16225.251818-.5947.13805-.7057-.05405-.0522-.1514-.025-.194725-.0295-.04087-.0175-.08155-.0325-.122775-.0475-.234425-.0125-.43418-.02-.582017-.2125.015-.154-.12065-.3884.05298-.56122.12555-.113.323455-.0517.474465-.0845.0068-.02.015-.0378.0225-.0568-.05872-.2794-.256845-.49975-.391453-.746-.20115-.37035-.399717-.74778-.554432-1.1387-.0512-.1305-.15975-.57613-.34118-.53875-.000662.002-.002.005-.004.007-.07435.21075.05927.41155.0307.6121-.0047.005-.0097.01-.0145.0125-.05815.0523-.0379.0863-.04888.1495-.007.007-.01275.0125-.0185.0225-.0048.01-.0085.0225-.01275.0323-.0013.002-.002.005-.0032.007-.0125.081-.0033.19875-.000462.26257-.07012.2265-.140225.45173-.210875.67728-.08063.034-.1936.0505-.284825.01-.0326-.0548-.07685-.17475-.164625-.17775-.09035.007-.22675.0472-.33106.0295-.049-.0267-.09843-.0512-.1475-.0775-.03645.00027-.10795.042-.14955.0447-.11925.007-.1973-.0775-.249575-.1275-.0418-.0125-.08367-.026-.125675-.0395-.11165-.1065-.122575-.30163-.20935-.42103-.02275-.032-.0774-.0623-.08275-.0983-.008-.0525.02025-.0875.01225-.12675-.02712-.0258-.05457-.0525-.08155-.0793.04478-.133.04823-.26622.0854-.407.1305-.0482.24375-.192.35646-.28242.0027-.002.3302-.115.357517-.12125.143325-.34998.21135-.53288.2147-.80678.0185-.0463.0367-.0923.05445-.13775-.0013-.0602-.06165-.15275-.0629-.2225.000595-.0933.0889-.12775.08712-.2195-.014-.027-.02817-.0542-.04272-.0822.01325-.0355.02745-.0705.04248-.106.002-.0378-.016-.12525-.014-.155.006-.11175.151075-.17925.165175-.30135.01775-.14525.0576-.35825.10385-.47532.01-.002.02-.005.0309-.008.09802.072.122425.17925.251618.146.0078-.034.01525-.0685.022-.10375.02175-.015.195525.1105.2374.11275.20645.0125.506942.0558.555955.3036.03348.1715-.09035.34462-.104375.55027-.0048.0643.0125.17475.009.238-.0175.069-.03505.13625-.05298.20525-.004.3112.09718.56593.130775.85823.03142.0473.06323.0937.09477.1415.02075.068-.04497.168-.02705.2335.01825.0635.112525.0795.133875.13725-.006.0225-.0115.0453-.01675.0685.0235.025.04802.0493.07258.0757.0649.1725.0477.319.181825.46592-.07925.2135.15525.178.17005.32933.0085.0795-.0291.088-.0087.1655.07535.025.0774.007.0961.0665-.02943.0412-.02025.06-.011.099.04192.0175.1053.056.1141.0917.01175.0435.0065.1295.01975.18675.05245.02.06145.0125.09947.01-.0245.1065.0048.31247.09942.36737-.04372.0623.04903.2495.08493.30625.23085.0965.52619.12625.717485.133.1004.005.2204.0945.316175.0785.0013-.003.002-.005.0033-.008.02962-.0677.02712-.09.01525-.135-.173775-.11475-.43835-.90777-.43921-1.12137.000067-.14425.09273-.30518.0225-.41288-.1102-.17075-.301758-.27775-.525663-.3116-.05132-.02-.102125-.0405-.153725-.0607-.09532-.002-.129775.04-.224425-.0503.186125-.142.0367-.2285.06377-.39805.051-.32742.0344-.6669.252083-.92367.08552.0305.1428 0 .1856-.0677.08122.0255.1106.007.20815.0447.01425.0408.0295.0952.0502.133.06475.015.06245-.01.1168-.01.019.048.03778.095.05622.14375.07978.025.117875.007.175225-.015.153975-.3759.13585-.84455.08677-1.14835-.0075-.0472-.226275-.31135-.289388-.35885.0235-.10325-.084-.24275-.11285-.33508.04438-.11375.08022-.0875.129125-.13675.101-.1.123025-.25617.240625-.3462.08335-.003.1438-.039.21815-.0545.0854.0793.132625.047.22265.0318.156225.103.378088-.0345.508925-.053.0408.015.0813.0322.1217.0482.06085.005.13045.01.205575.025.0676.0293.13375.0593.200475.0888.07852.001.239375.046.29243.11525-.0105.0513.002.0567.01975.0925.01275.005.02712.01.04062.015zm-1.536765 1.20562c.05675.11375-.103576.71438-.05755.90653.06563.027.08275.0225.126726.0125.000597-.002.002-.005.0033-.007.05763-.1485.09452-.83125.0631-.97035-.0027-.00068-.0052-.002-.0077-.002-.04903-.0175-.05807-.015-.09055-.007-.01225.0225-.02513.046-.03717.0702zm.230375-.36935c.01825.0493-.02275.11225-.02025.16975.01.2405.01325.51983-.0033.76888-.0125.18625-.08315.35295-.04167.50957.11595.0615.122974.15125.2067.213.05385.0395.186874.0975.238799.085.06257.0402.125025.0802.1874.1205.016.002.02745-.03.05868-.005.0052.0175.01.0367.01575.0537.07488.075.33139.16575.401703.24275.101325.11125.34429.44085.508265.4732.21935-.0715-.02672-.59412-.07628-.68712-.201275-.3775-.435903-.73628-.641815-1.10755-.176875-.3188-.180175-.70973-.376633-1.02128-.164625-.0687-.391915.0225-.457465.185zm-.680443 6.66895c.0087.0175.01875.032.02805.0482.113975.0358.345745-.02.432197-.0733.00013-.0252.00066-.05.00066-.0745-.03148-.0125-.0647-.0252-.0971-.0387-.09465.0608-.224226.0418-.334896.0655-.0098.025-.01925.0487-.0291.0727zm2.157283-2.39665c.02425.064.02375.1145.107225.15525-.0674.0595-.0682.163-.05047.224.0027.001.0047.002.008.002.0842.0373.144075.0457.20255.0327.024-.0595.016-.0695.0067-.11-.0938-.052-.04015-.10375-.154975-.15525.06833-.0437.0795-.1435.05848-.22075-.0629-.0225-.0854-.015-.128975-.005-.01625.025-.0328.0498-.04855.075z" fill="#1b1918"/></g><path d="m92.986623 140.15624c16.280937 0 29.559527 13.27857 29.559527 29.5595 0 16.28075-13.27859 29.55952-29.559527 29.55952-16.280738 0-29.55958-13.27877-29.55958-29.55952 0-16.28093 13.278842-29.5595 29.55958-29.5595z" fill="url(#a)"/><path d="m55.906923 171.75931.08693.46798c-.18725.0402-.33721.107-.45085.20075-.113575.0935-.199225.22975-.257438.4087-.05835.179-.07667.37617-.05595.59102.0185.191.0627.35653.133225.49728.0713.14075.159275.2425.264783.30422.106425.0617.2173.0875.334367.0762.118925-.0125.218675-.0557.30083-.13375.08235-.0772.145375-.198.190025-.36135.02982-.106.06985-.3355.120125-.69142.05015-.355.10505-.60643.165625-.75268.0768-.1895.181775-.33562.313265-.43802.131575-.1015.284033-.16075.458393-.1775.190175-.0175.373987.0175.550002.1105.17695.0923.318095.23875.42439.43815.1055.2005.1708.42705.195325.6815.02712.28092.006.53175-.06403.7554-.06925.2225-.186325.40005-.35044.53227-.16425.13125-.357187.213-.578312.24325l-.08227-.47637c.23615-.0495.40911-.154.516267-.3146.10815-.1605.147775-.38568.119725-.67633-.0291-.3029-.105825-.5176-.2302-.64605-.124225-.1275-.26478-.18425-.420687-.16925-.13645.0125-.243475.0733-.32127.17925-.07878.1055-.1444.365-.196725.78065-.05333.41573-.106625.70248-.160725.86063-.08083.23-.19375.40522-.338603.52492-.145775.11975-.32041.189-.522882.2085-.201675.02-.396545-.02-.585523-.11775-.1889-.0983-.343097-.25045-.463417-.45662-.119325-.20625-.1921-.4445-.218025-.71398-.033-.3425-.0115-.63427.0668-.8747.0772-.241.209425-.4369.39747-.5883.18725-.1505.407657-.242.659805-.2724zm1.081617 3.76185c.620183-.115 1.136253-.0388 1.54854.2295.41222.26815.667675.6653.765373 1.19235.06383.3444.0389.6711-.07428.97815-.113975.30718-.304338.56118-.572295.76108-.267098.19975-.588565.33397-.96176.40322-.379148.0702-.732433.0575-1.059128-.0403-.32762-.0975-.59379-.27225-.799702-.52375-.20605-.2524-.338535-.54007-.398663-.86452-.06535-.35223-.03915-.6819.08005-.99005.1182-.30893.311613-.5616.579108-.7587.266632-.197.564817-.32603.89277-.38683zm.08665.51118c-.450585.0835-.782175.27-.996552.55985-.214175.29077-.287535.61835-.2198.98367.069.3722.256182.65418.562505.84573.30632.1915.700087.2435 1.1811.1545.303607-.0563.559195-.1575.767225-.3023.207975-.14475.355797-.32775.444367-.54843.08765-.22125.10915-.45475.06358-.70092-.06502-.35058-.240775-.62925-.528505-.83675-.286742-.20775-.711992-.25943-1.273902-.15525zm3.473253 5.49295.168.4744-2.069638.73302c-.359435.12725-.65987.18775-.90064.181-.240775-.008-.464477-.0927-.672372-.25837-.20875-.16525-.373263-.42055-.4955-.7657-.118675-.33523-.15855-.63075-.118075-.88443.0395-.25427.153075-.46627.340187-.6348.18685-.16925.469438-.32015.84885-.4545l2.069638-.7329.16775.4736-2.067123.73213c-.311085.11-.530092.2205-.656432.33005-.1272.10975-.205175.25-.235675.41837-.03015.16925-.009.35608.06305.55953.1235.3486.290712.569.501717.6614.20975.0917.53955.0585.989078-.10075zm-2.54496 3.8282 3.04919-1.38968-.51918-1.13895.40812-.186 1.248835 2.74003-.40812.186-.521295-1.1438-3.049125 1.38967zm1.214965 2.4786 3.273625-1.92848.255455.43373-1.34448.7921 1.002107 1.70112 1.34448-.79202.255523.43372-3.273623 1.9284-.255457-.43372 1.542587-.90878-1.002042-1.70107-1.54272.90865zm2.567055 4.23195 2.345597-3.1545.32107.40362-1.58869 2.00298c-.165625.21075-.335425.41387-.508792.60932.378287-.1765.596302-.27775.656497-.30295l2.457515-1.0314.377825.47493-1.166415 1.62295c-.28833.40342-.578182.75947-.868297 1.06825.21735-.11175.472942-.23375.764447-.36618l2.28137-1.05405.31492.39603-3.62208 1.54972-.301757-.3794 1.766755-2.42835c.147775-.2035.239375-.32722.274572-.37107-.1612.0772-.300567.14075-.418305.19025l-2.766815 1.1712zm3.078162 3.6674 2.7559-2.61543 1.890713 1.99238-.325373.30872-1.54477-1.62785-.843822.80068 1.446807 1.5246-.323385.30692-1.446875-1.5246-.938015.89025 1.605758 1.69208-.325305.3087zm3.535495 1.7598.387613.2763c-.10675.159-.1682.31127-.1848.45745-.01675.14625.01625.30375.0987.47287.08228.16925.206175.32385.370217.46403.14605.12475.292893.21275.44139.26517.14895.0517.282973.0637.401705.035.11945-.0295.2171-.088.293488-.1775.0776-.0907.1186-.192.1235-.3052.0053-.11275-.033-.2435-.1143-.39205-.05225-.097-.1829-.28977-.39403-.58067-.2104-.29025-.345613-.5092-.403623-.65658-.07653-.18975-.1024-.3677-.07897-.53272.024-.16425.09273-.31283.20645-.44598.12415-.14525.281783-.247.47248-.30275.19135-.0565.39456-.0493.6096.02.2151.071.419563.1885.6139.35448.21465.18325.373658.37835.47863.58782.10485.20825.143925.41725.11775.62628-.02692.20875-.109.40142-.24705.57672l-.39018-.28507c.135525-.1995.18725-.39495.15285-.58488-.03387-.1905-.161725-.38007-.38371-.56965-.231375-.1975-.435702-.29882-.614362-.30485-.178075-.005-.318493.0515-.42016.1705-.08903.10425-.12435.22175-.10655.35215.0165.1305.149625.36283.40071.69825.25043.336.411362.5793.48227.73063.101525.2215.14215.42612.12105.61292-.02175.1875-.09915.3585-.23125.51315-.131575.154-.298848.26135-.50304.32208-.204125.0605-.420753.058-.650478-.007-.2292-.0655-.447015-.1865-.65286-.36215-.261672-.2235-.448732-.4484-.559463-.6756-.112049-.22725-.152925-.45985-.1229-.6993.03023-.23825.1252-.45728.285421-.65433zm3.25563 4.06955 1.945748-2.72813-1.018978-.7268.260415-.36512 2.451498 1.7485-.260415.36512-1.02341-.72992-1.94581 2.72805zm4.536548 2.68227 1.51487-3.4843 1.314252.57145c.231175.1005.403093.18875.515275.26358.158825.10275.27874.21975.3599.35037.08057.1295.124875.28293.133025.45715.0078.17525-.02605.34845-.101275.52135-.128725.296-.332117.50663-.6096.63005-.277945.12225-.663442.077-1.155832-.137l-.894028-.38875-.615817 1.41645zm1.255512-1.6273.90117.39183c.29779.1295.533533.1665.70677.1095.173225-.0567.30341-.1855.390855-.38663.0635-.146.0813-.2868.05265-.42272-.0287-.136-.09557-.246-.20195-.33188-.06905-.0543-.207375-.12675-.416587-.21775l-.89158-.38762zm2.429405 3.15013 1.205508-3.6031 2.60469.87152-.142275.42533-2.128243-.71213-.369092 1.10318 1.993172.6669-.1415.42285-1.99317-.66688-.41037 1.2264 2.212183.74013-.142275.4253zm4.761045 1.36272.725155-3.27142-1.222042-.27095.09703-.43795 2.939852.65175-.09703.43787-1.227335-.27205-.725157 3.2715zm2.692995.54003.364065-3.7819 1.6766.16125c.337278.0325.590153.0915.758825.17625.16875.0847.297193.218.38629.39972.08825.18275.12185.37788.1018.58573-.0258.26847-.133825.48562-.3259.65292-.19115.16725-.471025.25855-.838597.27378.126875.0762.22125.1485.283965.2175.13315.14775.255322.32935.367175.54275l.5586 1.09265-.62951-.0605-.424391-.8354c-.124424-.24025-.228199-.42625-.311812-.55525-.08262-.12975-.15895-.22225-.22925-.27708-.07018-.0557-.14275-.0965-.21835-.12325-.0561-.0175-.147975-.032-.27735-.0445l-.580233-.056-.161724 1.67918zm.703528-2.06428 1.075992.1035c.228075.0225.409908.015.543125-.02.134-.035.239125-.1015.315978-.199.07685-.0975.12125-.207.133025-.3294.01725-.17875-.03295-.332-.1522-.45985-.1182-.12775-.317898-.20475-.598818-.23175l-1.196645-.11525zm3.383755.62553c-.0053-.6307.15915-1.1258.494837-1.48523.335623-.35937.771063-.54195 1.307108-.54662.350242-.002.667742.0782.95045.24275.282772.1655.499732.39727.65008.69585.15035.29765.22675.63757.23005 1.01707.0033.38568-.07057.7313-.223575 1.0361-.153.30565-.371275.53758-.654778.69658-.284295.15925-.59055.23975-.92055.2425-.35818.002-.678327-.0798-.961165-.25083-.283635-.17-.498872-.40422-.646577-.70195-.1477-.29685-.222975-.6129-.2259-.94635zm.518452.002c.004.45825.1301.81715.378288 1.07862.249175.26148.558997.39053.93054.3873.378552-.002.688775-.13875.930605-.40707.241775-.26848.361487-.6473.357187-1.13645-.0028-.30863-.05815-.57798-.164575-.80798-.106375-.23-.260947-.40725-.46289-.53287-.20275-.12475-.42889-.1865-.679252-.18425-.356525.002-.661523.12775-.915855.37517-.25433.24625-.379015.6561-.374053 1.22755zm4.206145 1.71217-.430212-3.77495.50013-.057.379345 3.3293 1.858897-.21175.0508.44563zm3.40671-.45137-.757635-3.7231 2.69154-.54768.0895.43953-2.199215.4475.2319 1.13987 2.059645-.4191.0889.43698-2.05958.41902.257838 1.26723 2.285872-.465.0894.43945zm5.134705-5.23478.48002-.1515.66027 2.09398c.11462.36367.16457.66602.14942.90635-.015.2405-.10875.46102-.28158.66297-.17258.20275-.43332.3583-.78257.46845-.3392.107-.63593.1365-.88808.087-.25268-.0482-.46051-.16925-.62243-.36202-.16278-.19275-.30368-.48035-.42466-.86425l-.66026-2.0939.47922-.151.65948 2.09147c.0993.3146.20187.53738.30691.66748.1053.131.24275.21375.41004.25002.16808.036.35553.0225.56131-.0435.35269-.11125.57885-.2706.6784-.47822.0991-.2065.0773-.5373-.066-.99208zm2.79995 2.98893-1.63572-3.4292.68342-.32603 1.96943 2.04098c.18275.19025.31862.33325.40587.42982-.0203-.14325-.0472-.35587-.0796-.63737l-.31723-2.7772.61079-.29138 1.63578 3.42925-.43755.20875-1.36915-2.87035.37266 3.3456-.40951.1955-2.38403-2.446 1.39244 2.919zm6.42681-8.06425.4046-.29943 1.306 1.76495c.22675.30648.37245.57615.43642.80825.064.23225.0472.47128-.0505.71855-.097.248-.29295.47988-.5873.69775-.28587.2115-.55695.3361-.81135.37148-.25465.0365-.4906-.01-.70642-.13975-.21675-.12925-.44345-.35533-.68283-.67885l-1.30605-1.76495.40395-.29885 1.30445 1.76277c.19625.26525.36585.44238.50748.53123.14225.0895.29912.123.4691.103.17075-.02.3431-.0955.51655-.22375.29732-.22.45925-.4443.48582-.6731.0265-.2275-.10175-.53308-.38542-.91645zm3.6513 1.96045-2.56693-2.80115.38023-.3484 3.48655.8509-2.01528-2.19908.3554-.32577 2.567 2.80107-.38027.34845-3.48835-.8528 2.01705 2.20113zm3.1887-2.99628-2.80128-2.56672.33945-.3705 2.80128 2.5668zm1.94522-2.2194-3.86807-1.28077.3466-.4205 2.75762.99372c.22125.0793.42393.16025.60648.242-.122-.1775-.2385-.3617-.34938-.55397l-1.47697-2.54735.3263-.39588 1.98537 3.5648zm1.82853-2.29392-3.23955-1.98513 1.4351-2.34195.38245.23425-1.17258 1.91355.9918.60773 1.09823-1.79208.38012.233-1.09815 1.79215 1.10265.67568 1.2188-1.989.3824.23425zm2.07412-3.38053-3.42925-1.63565.72508-1.52022c.14575-.30588.28782-.5233.42507-.6528.13725-.12975.30638-.20475.50773-.22625.20175-.02.3968.015.5852.10475.2435.11625.41062.29192.50217.52965.0918.23675.0817.531-.0298.88165.115-.0933.21525-.15725.30155-.1925.1845-.0745.39695-.12725.63565-.15925l1.21783-.15125-.27225.57092-.9301.113c-.2684.0348-.47875.0685-.62838.103-.15025.0333-.26332.0733-.33887.12075-.0763.047-.13925.101-.1905.163-.0353.047-.0807.128-.13675.2455l-.25095.5262 1.5226.72615zm-1.69907-1.36717.4654-.97565c.0985-.20675.15475-.37995.16725-.51705.0125-.138-.0125-.25938-.079-.36508-.0652-.1055-.153-.1845-.26393-.2375-.162-.0773-.32317-.0825-.48417-.015-.1605.0675-.30118.22875-.42275.48353l-.51745 1.085zm2.34737-2.7809.127-.45873c.18575.046.35005.0515.49318.0175.14325-.0342.27972-.11925.41057-.25447.13075-.13525.23375-.3046.30935-.50673.0673-.17975.1-.348.0982-.5053-.002-.15775-.037-.28772-.10475-.3896-.0685-.10225-.15675-.17375-.26715-.215-.11175-.0418-.221-.0457-.329-.0125-.108.0333-.2175.11425-.32927.2415-.0733.0823-.20975.271-.41098.56878-.20075.29707-.3603.499-.47882.60392-.15225.13675-.31055.222-.4736.25645-.16275.0335-.3257.02-.48975-.0415-.179-.0668-.32835-.18025-.44595-.34045-.1185-.1605-.18125-.35395-.18925-.5799-.007-.2265.0338-.45867.12325-.69812.0988-.26425.22775-.48055.38867-.6508.15975-.16975.34283-.27788.54828-.3247.20525-.0462.4144-.035.62635.0348l-.135.4642c-.234-.059-.43525-.041-.60188.0565-.1675.097-.30187.282-.40407.55537-.1065.28503-.13175.5117-.0763.68163.0558.169.15725.28172.30387.33647.1285.048.251.041.36743-.02.117-.0602.28972-.26477.51897-.61535.23025-.35025.40378-.58472.5217-.70312.1735-.17125.35183-.2792.53453-.32325.18349-.0438.37082-.0295.56137.0417.18975.071.3478.1915.47452.36255.12675.17125.19875.3755.2165.6135.0175.23775-.0225.4838-.117.73725-.1205.32235-.26782.57507-.4435.75685-.175.183-.37982.30097-.61515.35467-.23425.0532-.47249.0387-.71247-.0445zm2.54318-3.5574-3.67843-.95118.12575-.48642 3.67845.95117zm.67892-2.72685-3.2836-.66795-.2495 1.22655-.43942-.0895.60022-2.95078.43945.0895-.25055 1.23185 3.28363.66793zm.64035-3.71648-1.60165-.15425-2.32052 1.24738.0587-.6084 1.21205-.636c.22625-.117.45172-.224.67715-.32233-.18725-.1325-.39675-.2915-.6286-.47732l-1.04165-.8397.0563-.58283 2.0349 1.719 1.60167.15425z" fill="#1b1918" fill-rule="evenodd"/><path d="m102.62447 158.32814c2.10549.102 4.24074.11775 6.27949.73317 4.70384 1.41995 7.77736 5.92625 7.13514 10.77475-.87668 6.6171-7.43994 14.65733-16.996495 19.33808-12.545285 6.70817-25.867452 6.46997-29.708937-.7388-2.852673-5.3801-.482468-13.52318 7.245217-18.99398-2.91604 2.5795-6.90364 9.17853-4.722747 13.78638 3.519025 6.94725 13.982305 5.99552 24.127025.10575 6.572577-3.73593 11.286137-8.82875 13.293657-13.13043 3.25313-6.9707-1.15623-10.54032-6.65235-11.87482zm-8.074687 5.43527c3.43138-1.69227 8.458137-2.6193 10.158937.86698 1.6852 3.98277-.52705 8.61687-3.63868 11.66607-3.971527 3.89183-8.613047 5.33565-12.152377 5.58873 4.655607-1.43735 12.491377-8.16188 11.201197-14.1394-.742285-3.43965-3.903922-2.82218-6.351385-2.05185l-8.21776 20.45607c-2.452025 1.02605-6.220882.86015-8.759097-.0323l7.693555-16.6599c-1.293218.2195-3.42457.49883-5.07848-.32497-2.769195-1.37933-2.251735-4.7705-.629245-7.05173 3.546145-4.98575 8.572565-8.62152 14.171677-11.00165 2.269068-.96472 4.57425-1.7041 6.931753-2.37735.336622-.0777 1.100602-.202 1.497012-.172-.50773.16725-.99271.25513-1.25789.329-2.287062.6282-6.104537 2.06158-7.696205 3.03498-.194.118-.315382.28992-.585852.48617.324642-.0515 7.295952-3.36887 11.672627-3.75842-3.828857 1.06867-9.797592 3.1778-9.426182 3.59497.002.007 1.592725-.57765 3.04833-1.14565 3.313242-1.29287 6.734312-2.34347 10.551712-2.48032-3.32277.50832-6.6159 1.41625-9.74255 2.64417-.865055.33965-1.813122.7385-2.05105.93723.1268.002.265378.0277.397535-.0125 1.72105-.52958 4.948175-1.69493 7.342125-2.1584 1.52519-.30288 4.16044-.93618 6.49115-.79713 0-.052-3.43078.45813-4.16983.6055-2.11376.4216-7.152085 1.68843-8.457142 2.56918 1.312532-.3302 2.596882-.73773 3.922652-1.052 1.78997-.42433 3.97668-.8864 5.25786-.9712.0274-.0225-7.287683 1.65137-8.243225 2.4591 3.500175-.9949 6.612135-1.90495 9.705645-2.0975-.0187.1235-6.92984 1.2513-8.1032 2.2487-.539152-.0613 6.72499-1.46295 9.69513-1.5869 1.80221-.172 6.07504-.17975 6.28127.0125 0 .005-.48518.005-.48518.01-.007-.00005-.0175-.0002-.0258-.00025-1.1735.008-2.30577.078-3.51352.1525-2.75724.1885-9.17801 1.01407-10.64162 1.66137.67383-.214 7.98314-1.1354 10.60179-.91785-2.92768.1555-8.44564.71975-11.30578 1.65305-.0968.0315-1.263255.45668-1.26835.55378.75241-.0348 1.73157-.32655 2.45778-.448 1.20948-.20225 2.81953-.45013 4.44401-.64128 4.01479-.47267 8.87029-.3863 10.66939-.22825-.0004.0385.6946.0607.69433.16375-5.78538-.25855-12.41438.40563-17.63468 1.6475-4.566637 1.08665-9.243545 2.87398-13.26078 5.27473-1.084725.64825-6.415682 4.2645-5.777575 6.55825.333045 1.19717 2.613423 1.75445 4.015383 1.35577.0766-.163.1866-.47147.267427-.81722.27219-1.16575-.810617-2.1424-1.25161-2.2813.0033-.0563 11.969948-6.7152 12.911468-7.21625z" fill="#fff" fill-rule="evenodd"/><path d="m79.41846 192.50979.0721-2.07168-.621042-.01.01425-.25645.886022-.43305.476318.015-.09963 2.78103zm9.172375-3.76383-2.129035.48915.1934.83133 1.278863-.28853c.2003-.0452.381662-.1005.531482-.0613.213125.0438.392378.208.443243.43305l.1075.47665c.04365.19375-.018.38775-.1469.5215-.05952.0992-.156775.14175-.283235.17025l-2.218598.50178-.05165-.207c.60788-.13675 1.216025-.27173 1.823508-.40878.16305-.0367.275565-.18125.238775-.34435l-.13375-.5932c-.03678-.163-.2003-.26637-.363473-.2295-.09895.0225-.1985.0425-.297722.065l-1.50356.33913-.291173-1.2778 2.760463-.62275zm-6.308195.8667c.492058-.0475 1.108803-.10975 1.601853-.14725.17125-.0125.235075-.0175.337875.00033.276885.0452.36294.221.413012.4584.02508.119.0371.24325.0477.34422l.09525 1.11198c.03328.3865-.04887.5588-.409575.70047-.160675.063-.362347.097-.531615.11925-.5713.0747-1.161255.103-1.716815.14925l-.01725-.20975c.515805-.0527 1.088828-.0727 1.71245-.16325.25367-.0457.404483-.0728.384308-.36677l-.07125-.67068c-.0498.0995-.0592.173-.268818.19525-.521823.0788-.932125.0815-1.421207.1275-.22575.0225-.428163-.155-.449463-.38052l-.07753-.81963c-.02125-.22525.145125-.42717.371013-.44847zm1.702925.27425c-.03207-.0772-.06965-.1355-.177-.15275-.06687-.01-.147975-.0125-.242825-.005l-.76491.0708c-.173225.0125-.234875.0412-.295475.108-.06072.067-.0537.1775-.04075.34513l.03102.37295c.011.14175.05.21875.1067.27965.06033.054.1422.0837.2288.0755l.982135-.0955c.21795-.02.2751-.1695.262002-.34865l-.04987-.52838c-.01175-.045-.0252-.0863-.03982-.1215zm6.941078.73845 1.813852-.56487c.2235-.0697.349448-.30958.279798-.53295l-.182625-.58658c-.06958-.2235-.309495-.34945-.53287-.27987.223575-.0695.349117-.30948.279597-.53285l-.10835-.348c-.06965-.2235-.30923-.34958-.53287-.28l-1.81385.56487c-.2237.0697-.34925.30965-.279665.53303l.1084.34797c.06952.2235.309298.34965.532805.28-.22345.0695-.349382.30943-.279862.53295l.18275.58645c.06958.2235.309365.34945.53287.27985zm-.289785-2.47617.93623-.29158c.11535-.036.23905.029.275032.1445l.1346.43213c.03597.1155-.02905.23925-.1444.2751l-.93623.29157c-.1153.036-.239125-.029-.275032-.1445l-.134601-.43225c-.03598-.1155.02905-.23925.144401-.27505zm.65835 2.1137.936162-.29158c.1153-.036.1803-.15975.1444-.27502l-.1958-.62865c-.03585-.11525-.1598-.18025-.275035-.1445l-.936228.29157c-.1153.036-.18025.15975-.14445.27503l.195801.62865c.03597.1155.159799.1805.275165.1445z" fill="#1b1918" fill-rule="evenodd"/></g></svg>