<svg height="316.227766" viewBox="0 0 1276.31 1276.31" width="316.227766" xmlns="http://www.w3.org/2000/svg"><path d="m638.15 0c351.48 0 638.15 286.67 638.15 638.15s-286.67 638.15-638.15 638.15-638.15-286.66-638.15-638.15 286.67-638.15 638.15-638.15zm0 22.44c-339.12 0-615.71 276.59-615.71 615.71s276.59 615.72 615.72 615.72 615.72-276.59 615.72-615.72-276.6-615.71-615.73-615.71z" fill="#003d83" fill-rule="evenodd"/><text fill="#003d83" font-family="BookAntiqua, 'Book Antiqua'" font-size="56.84" transform="matrix(.99993565 .0113444 -.0113444 .99993565 590.57 1092.08)"><tspan x="0" y="0">9</tspan></text><text fill="#003d83" font-family="BookAntiqua, 'Book Antiqua'" font-size="56.84" transform="matrix(.99600997 -.08924198 .08924198 .99600997 663.68 1094.26)"><tspan x="0" y="0">0</tspan></text><text fill="#003d83" font-family="BookAntiqua, 'Book Antiqua'" font-size="56.84" transform="matrix(.92377488 -.26122781 .2721123 .9622655 728.31 1086.57)"><tspan x="0" y="0">6</tspan></text><text fill="#003d83" font-family="BookAntiqua, 'Book Antiqua'" font-size="56.84" transform="matrix(.94163564 .23285686 -.24005862 .97075839 523.65 1079.97)"><tspan x="0" y="0">1</tspan></text><g fill-rule="evenodd"><path d="m638.15 226.84c226.54 0 411.31 184.77 411.31 411.31 0 175.98-111.5 326.73-267.47 385.26l8.92 17.94c162.5-61.9 278.49-219.42 278.49-403.2 0-237.53-193.73-431.25-431.25-431.25s-431.25 193.73-431.25 431.25c0 183.29 115.38 340.47 277.2 402.71l8.92-17.93c-155.29-58.88-266.18-209.28-266.18-384.77 0-226.54 184.77-411.31 411.31-411.31zm125.21 803.06 14.16 29.25v2.84c.4-.13.79-.27 1.18-.4l5.2 10.75c-45.81 15.46-94.83 23.86-145.74 23.86s-100.86-8.55-147.04-24.3l5.19-10.72c.06.02.11.04.17.06v-.41l15.17-31.35c39.89 12.95 82.4 19.99 126.51 19.99s85.7-6.88 125.2-19.56zm-297.3 47.76-.22-.07 11.58-23.28c-166.73-64.74-285.47-227.01-285.47-416.16 0-245.76 200.45-446.21 446.21-446.21s446.21 200.45 446.21 446.21c0 189.63-119.35 352.23-286.76 416.63l11.89 23.9-4.05 1.29.04.1c-52.06 19.82-108.45 30.7-167.32 30.7s-118.89-11.58-172.33-32.63l.23-.47z" fill="#003d83"/><path d="m627.7 240.71s-1.78-12.48 12.48-10.7 19.61 3.57 18.72 15.16 1.78 64.19 1.78 64.19 32.99-4.46 52.6-27.64 24.96-29.42 24.96-29.42 21.4 7.13 16.05 18.72-38.33 49.92-56.16 52.6c-17.83 2.67-34.77 3.57-34.77 3.57s23.18 12.48 37.44 17.83 56.16 30.31 59.73 57.95 5.35 26.74 5.35 26.74 74.89 31.2 81.13 128.38c6.24 97.17 3.79 135.94 5.14 197.77 1.34 61.83 16.13 150.55 25.54 169.37s24.2 33.61 24.2 33.61l-30.92 24.2s-29.57-36.29-36.29-88.72c-6.72-52.42-16.13-219.1-16.13-240.61s1.34-22.85 1.34-22.85-24.2-24.2-45.7-33.6c-21.51-9.41-18.82-9.41-18.82-9.41s-18.82 30.92-36.29 44.36-44.36 22.85-44.36 22.85 43.41 16.46 55.5 51.41c12.1 34.95 9.51 111.24 8.16 170.38-1.34 59.14.88 72.54-4.39 79.33-5.28 6.79-20.36 6.03-21.87-6.03s-.75-134.21-1.51-173.42c-.75-39.21-23.37-90.48-48.26-98.78-24.88-8.29-21.11-6.03-21.11-6.03s-33.18 12.82-50.52 39.96-18.1 56.55-18.1 131.95 3.77 107.82-5.28 113.86c-9.05 6.03-15.08 8.29-17.34-1.51s-9.8-177.95-6.79-206.6c3.02-28.65 13.57-60.32 36.95-76.16s24.13-16.59 24.13-16.59-40.72-18.1-56.55-39.96c-15.83-21.87-18.85-27.9-18.85-27.9s-22.62 8.29-39.21 22.62-23.37 22.62-23.37 22.62-.37 110.52-8.13 174.92c-7.76 64.39-22.5 135-35.69 153.62s-39.57 3.88-39.57 3.88 10.09-20.17 14.74-34.91 34.14-81.46 34.91-143.53c.78-62.07 3.88-151.29 3.1-192.41s11.64-94.65 37.24-121.81c25.6-27.15 45.77-40.34 45.77-40.34s1.55-42.67 12.41-52.76 55.86-41.12 76.81-43.45 18.62-3.1 18.62-3.1-23.28-4.66-41.9-11.64-40.34-29.48-47.33-41.12c-6.98-11.64-10.09-24.05-4.65-25.6 5.43-1.55 13.97-7.76 25.6 12.41 11.64 20.17 36.46 39.57 49.65 40.34 13.19.78 17.84-2.33 17.84-2.33l1.94-65.66zm10.48 109.1s-48.1 31.81-61.29 34.14-22.5 24.83-24.05 31.81l-1.55 6.98s45-17.84 61.29-20.17 48.88-1.55 75.26 8.53c26.38 10.09 35.69 7.76 41.12 11.64s10.09-21.72-11.64-35.69c-21.72-13.97-49.65-24.05-60.52-28.71-10.86-4.65-18.62-8.53-18.62-8.53zm-122.96 120.25s-22.15 11.73-39.74 47.55c-17.59 35.83-9.12 80.12-9.12 80.12l9.12-12.38c9.12-12.38 42.34-24.75 42.34-24.75l-2.61-90.54zm255.35 1.31-4.56 89.89s31.27 16.94 41.69 24.1c10.42 7.17 12.38 9.12 12.38 9.12s3.26-59.93-22.15-95.1c-25.4-35.18-27.36-28.01-27.36-28.01zm-36.48-18.24s-12.38-1.3-22.15-5.86-54.07-10.42-85.33-9.77c-31.27.65-77.52 18.89-77.52 18.89l-.65 94.45s.65 0 9.77-3.26 37.13-12.38 80.77-12.38 92.5 12.38 92.5 12.38zm-173.92 130.93s33.87 36.48 59.28 48.85c25.4 12.38 36.48 5.21 57.32-7.82s52.11-44.95 48.2-49.51-66.44-13.03-99.01-12.38-65.79 20.84-65.79 20.84zm45.51 120.17c-2.68 3.36-12.75 20.8-4.7 28.18s34.22 2.68 34.22 2.68 8.05 14.76-6.71 18.12c-14.76 3.35-36.9 14.76-28.85 26.17s18.79 14.09 14.76 20.13-15.43 36.23 0 46.97 20.13 18.12 20.13 18.12l.67 51.66s-18.12-19.46-17.45-29.52-1.34-32.21-8.72-32.88-14.09 7.38-12.75 22.81 3.36 41.6 17.44 50.99c14.09 9.39 20.8 10.74 20.8 10.74l-1.34 76.49s19.46 16.1 21.47 3.35 4.03-77.83 4.03-77.83 25.5-11.41 30.86-28.18c5.37-16.77 6.04-58.37 6.04-58.37s-18.79-4.7-18.79 1.34 2.01 44.95-8.05 55.02l-10.06 10.06v-57.03s27.51-6.71 28.85-34.22-8.72-44.95-14.09-30.86-4.03 28.18-9.39 35.56l-5.37 7.38s2.68-40.26-1.34-48.31c-4.03-8.05-23.48-10.74-30.86-12.75s-18.12-5.37 1.34-8.72c19.46-3.36 54.35.67 61.73-8.72s13.42-30.19.67-36.9-30.19-7.38-50.32-7.38-21.47-3.36-18.79-10.06c2.68-6.71-12.75-7.38-15.43-4.03zm50.32 29.52s-14.76 17.45-1.34 18.12 23.48.67 23.48-4.03-3.35-10.74-11.41-11.41c-8.05-.67-10.73-2.68-10.73-2.68zm-18.11 63.08s-6.71-2.01-12.75 0-3.35 6.04-2.68 24.15c.67 18.12 16.1 19.46 16.1 19.46z" fill="#fff"/><path d="m1094.47 399.04c3.51 1.95 11.84 4.75 16.72 9.6 4.88 4.86 8.82 9.95 8.33 13.96s-3.01 5.52-6.16 4.16-10.53-4.07-11.77-4.63c-1.23-.56-1.69-.12-1.92 1.31s-.15 3.97-.15 3.97 1.22 4.45 5.5 7.4 8.4 7.44 6.6 12.57c-1.81 5.12-6.77 8.57-9.64 5.27s-7.35-10.5-9.55-11.78-4.2-.4-9.29 1.33c-5.08 1.74-20.61 2.59-25.13.43-4.53-2.15-8.26-7.21-10.11-14.84s-2.92-13.95-2.09-15.58 2.86-3.65 3.53-1.62 2.81 8.03 4.73 13.36 3.99 9.11 11.69 8.72c7.69-.38 11.25-1.37 12.72-1.92s2.31-1.86.77-3.53-10.99-8.17-12.78-11.47-4.04-10.7.49-15.18 5.98-3.57 7.03.01 3.72 8.95 7.69 12.89 5.49 4.98 6.95 6.21 1.93 1.12 2.09-.12c.17-1.23.95-6.55 3.12-6.23s6.92.73 10.43 3c3.52 2.27 4.68.6 4.68.6s-1.91-2.9-5.7-5.33-8.91-6.17-10.95-6.58c-2.04-.4-3.54-3.22-2.91-4.57s1.59-3.37 5.09-1.42zm93.81 7.28c1.28.14.82 1.55-.51 2.12s-2.34-.81-2.34-.81 1.57-1.45 2.85-1.31zm-4.34-17.44c-.03-1.1-1.01-2.21-2.37-.83-1.37 1.38-1.47 1.72.07 2.21s2.34-.27 2.31-1.38zm-40.62 20.72c.54 2.48 1.2 4.62-.08 5.11-1.28.48-3.97.68-6.76-2.43s-1.67-4.9 1.02-5.1 5.28-.06 5.82 2.42zm6-.91c.55-1.17 1.86-.55 2.02.76s-1.58 2.07-1.58 2.07-.99-1.66-.44-2.83zm.13-9.77c1.08.76-5.53 3.3-6.61 2.54s-.93-3.66.82-3.86 4.71.56 5.79 1.32zm11.27 4.23c1.06.21 3.19.63 4.99 2.08s.21 2.97-2.49 3.17c-2.69.2-3.88-.21-3.84-2.77.04-2.55.27-2.69 1.33-2.48zm-44.73-32.02c-4.77 1.44-7.06 7.02-5.53 11.17 1.53 4.14 10.13 1.26 13.28.78s-.5 2.83-3.04 4.34-3.73 4.75-.79 4.97c2.94.21 8.42-1.09 15.35-4.66s9.87-3.36 16.94-2.52 11.86 4.16 12.83 5.27-7.59 5.09-9.24 4.95-8.62-1.88-7.96-3.39c.66-1.52-.01-4.21-1.29-3.73s-5.67 2.54-9.87 3.36-10.51 1.78-11.04 3.5.54 2.48 4.76 2.22c4.22-.27 3.33 1.39 2.42 2.49s-3.16 4.13-5.06 3.58c-1.89-.56-8.86-5.95-15.21-10.31s-33.67-19.24-35.92-19.86-3.1-1.52-1.52-3.59 2.1-4.34 3.75-7.86c1.65-3.51.91-4.76-.97-4.76s-3.47 1.51-5.97.47-11.7-2.85-16.5 1.7c-4.79 4.54-8.48 14.61-7.05 19.1s10.07 3.26 13.92 2.37 13.94-.73 22.37 2.38c8.43 3.12 21.98 12.73 29.02 16.68 7.04 3.94 17.12 15.07 17.08 17.62s-.17 6 3 6.08c3.17.07 4.48.7 7.29 4.36s5.98 11.6 6.79 15.05-.17 6-2.53 5.72-5.82-6.08-9.9-12.92-7.65-8.64-7.65-8.64-.8.76 4.12 15.8c4.91 15.05 17.23 22.59 22.32 20.11 5.09-2.47 2.39-18 .31-24.63s-8.62-13.4-8.46-15.74c.16-2.35 10.79-8.12 12.88-8.81s5.02-1.03 10.95-2.6c5.94-1.58 13.24 3.33 18.04 3 4.8-.34 12.33-7.64 12.63-9.22.3-1.59-2.67-2.9-7.15-3.6s-9.92 1.71-14.94 2.73c-5.02 1.03-8.85-1.74-11.47-2.99s-.67-2.69 1.85-4.76 6.46-3.85 8.81-3.57c2.36.28 12.7.85 14.76-.94s1.34-6.14-1.86-7.32-12.22-.57-14.21-.23c-1.98.34-4.98 2.13-7.96.81-2.97-1.32-10.76-2.85-13.63-4.51s-2.05-1.87-.67-2.69c1.38-.83 5.92-2.13 9.38-4.19s2.55-8.83 1.81-10.07-3.38-3.04-6.96-1.19c-3.58 1.86-12.74 9.57-16.64 12.46s-8.97 2.26-11.92 1.5c-2.96-.76-.45-3.38.4-6.14.86-2.76-2.3-2.28-5.06-.63-2.77 1.65-4.34.06-9.11 1.5z" fill="#003d83"/><path d="m862.44 165.15c-3.44 3.37-14.63 12.33-22.53 19.86s-15.06 15.87-18.63 16.64-15.92 3.39-22.55 1.14-5.7-8.74-5.24-10.85 3.53-5.89 5.84-5.96 5.97 3.44 14.92-1.18 18.14-11.43 20.63-14.27 3.9-5.48 1.18-4.99c-2.72.5-15.23 1.35-18.89.12-3.66-1.24-9.99-5.09-9.83-13.82s.9-10.18 3.42-11.6c2.52-1.41 4.46.38 4.91 2.8s8.99 7.3 14.22 7.65 14.17.27 16.2-.46 4.75-5.76 6.22-10.08 5.63-15.1 5.01-19.28-2.16-8.67 2.31-10.56c4.46-1.89 11.45 7.57 14.23 13.61 2.79 6.05 3.53 6.87 1.23 12.89s-3.53 8.16-3.62 10.68.16 4.02 5.11 3.72 12.51 1.41 14.73 6.13 2.13 9.51-3.33 9.08-13.34-1.97-17.31-3.03c-4.23-.3-4.8-1.63-8.23 1.74zm-4.94 28.09c-1.91-.37-1.69-.29-4.17.29-2.43 1.16-3.41 4.8-1.82 12.14s6.12 12 7.69 13.38 5.97 1.17 10.18-2.22 2.12-5.52.16-11-10.12-12.22-12.04-12.58z" fill="#003d83"/><path d="m409.19 196.62c-.49 2.61.31 11.81-1.08 13.5s-12.8 3.91-19.95-2.43-15.01-24.32-11.94-33.94 6.94-13.22 10.11-11.99c3.18 1.23 4.97 2.54 6.06 3.91s3.97-1.26 6.75-4.63c2.78-3.38 8.53-8.62 9.12-11.02.59-2.39-1.69-7.47-2.79-9.9-1.09-2.43-.8-3.89-4.47-3.03s-15.49.07-19.96-9.34c-4.48-9.41 2.18-5.23 4.96-4.89s6.55.24 9.53-2.17c2.98-2.4 4.27-1.66 3.57-7.45s-1.3-10.84-.11-14.03 1.39-3.81 1.48-5.72c.1-1.9 5.65-7.59 7.24-3s4.38 10.25 4.88 12.95 1.59 3 3.48.83c1.88-2.18 5.95-6.4 5.15-9.76s-4.08-7.99-2.89-9.59 4.66-2.37 8.93.76c4.27 3.12 11.33 11.37 6.67 19.58s-11 15.32-12.49 19.97c-1.48 4.65-.99 6.82 0 9.03s2.78 2.47 5.16 1.39c2.38-1.07 9.92-7.66 17.06-11.4 7.14-3.75 16.87-4.41 22.04-2.49 5.16 1.92 12.11 3.58 13.31 9.94 1.2 6.37 2.02 42.12.84 47.97-1.19 5.85-2.37 16.47-7.63 19.64s-10.82 3.01-14.19 2.41c-3.38-.6-7.84-2.05-6.95 1 .9 3.05 5.87 10.91 2.89 15.96-2.97 5.06-5.55 8.34-9.32 7.39-3.77-.96-5.47-7.37-5.47-10.55 0-3.19 0-6.37-3.08-4.72s-11.71 4.21-13.4-2.2-2-11.32-2-11.32-11.02-3.27-11.52-.66zm34.43-13.11c.7.48.8 1.77 1.59.88s.5-1.02-.8-1.77c-1.29-.75-1.49.41-.79.89zm-22.05-19.29c1.59-1.78 5.75-8.96 7.53-11.89s4.56-6.84 10.02-5.84c5.46.99 10.33 3.32 6.16 8.38-4.16 5.06-7.14 8-3.96 9.22s8.54 3.06 6.26 7.54-3.17 5.15-.59 5.58 7.94 2.27 7.55 6.69c-.39 4.43-1.78 7.18 2.59 7.33 4.37.16 12.01-.36 13.79-5.42 1.78-5.05 4.95-14.98 3.35-28.6s-1.11-24.73-5.98-28.65-14.2-5.03-20.55-1.1c-6.35 3.92-21.43 13.37-23.71 16.79s-8.73 8.71-8.82 12.21 1.1 4.02 2.29 6.14 2.49 3.4 4.07 1.62zm-5.14 23.03c1.39-.63 8.14-3.13 11.61-8.68s4.85-10.42 5.05-13.17c.2-2.74.59-4.52-2.28-1.36-2.88 3.15-7.04 8.22-8.03 12.38s-3.17 7.27-6.25 7.33-6.95-3.24-7.35-5.72.1-3.5-.7-6.33-2.48-2.87-4.37 1.44c-1.88 4.3-2.38 5.32-.49 10.05s1.89 7.38 4.08 6.93c2.18-.45 7.34-2.25 8.73-2.87zm9.24 7.27c-.3 1.99 1.89 5.79 4.47 5.69s3.17-5.15 2.77-8.16-2.88-3.22-4.57-2.19c-1.69 1.02-2.38 2.67-2.68 4.66z" fill="#003d83"/><path d="m172.19 408.51c2.37 4.5 4.3 7.58 7.32 12.03s.99 9.18-1.16 10.02c-2.14.84-6.18 2.98-9.99 1.21-3.82-1.78-1.33 6.62 3.2 7.84s11.59 2.71 17.74-7.09c6.15-9.81 7.16-16.4 11.94-35.67s6.2-29.64 6.08-32.72c-.11-3.08-4.04-7.93-9.49-7.12s-11.43 3.94-14.25 8.9-7.65 10.59-3.6 16.9 9.91 13.43 12.4 21.01 2.78 12.43-.53 13.21-7.06-1.49-11.63-7.1-6.89-8.17-6.89-8.17-3.51 2.26-1.14 6.76zm-24.99-18.75s4.44-5.92 5.55-6.99 3.82.15 8.73 4.1 4.75 8.19 3.83 10.23c-.92 2.03-4.54.4-8.81-1.17s-9.3-6.17-9.3-6.17zm-22.29 21.63c-1.24 1.25-4.44 5.92-6.29.72s-2.3-5.81.97-11.79 8.24-12.59 13.48-21.99 4.24-16.14 8.37-23.65c4.13-7.52 6.55-11.96 10.45-13.11 3.9-1.16 11.75-1.53 13.65 5.62 1.91 7.15.37 15.24-1.01 18.29s-1.58 3.71-1.58 3.71 6.92 2.48 7.89 4.02 3.71-2.93 5.49-7.31 7.06-10.21 13.81-11.95c6.75-1.73 15.71-3.99 20.54 2.08s4.75 9.01-.1 29.59-4.98 21.57-4.98 21.57 2.2 1.11 3.24-.29c1.04-1.39 3.59-4.38 6.78-5.8s5.45 0 5.76 2.42c.31 2.41-2.58 8.68-5.51 11.38s-7.88 6.87-11.68 13.55c-3.8 6.67-10.12 24.79-12.35 27.74-2.22 2.96-11.94 13.89-31.46 13.67s-20.17.65-26.58-.9-11.25-5.99-10.99-17.23 2.99-12.45 5.77-11.72 4.01 1.92 4.45 4.16 4.84 4.45 9.25 3.41 6.44-3.33 7.11-8.27c.68-4.94 1.78-6.01 2.9-7.89 1.11-1.89 3.87-7.17-.07-11.21-3.93-4.04-14.51-13.34-16.39-14.48-1.87-1.13-3.81-3.4-6.42.08s-3.27 4.35-4.51 5.6z" fill="#003d83"/></g><path d="m1191.11 403.44.65.36.07.58-.43.57-.86.58-.87.07-.79-.29-.65-.5.94-.72 1.01-.51z" fill="none" stroke="#231815" stroke-miterlimit="22.93" stroke-width="1.01"/><path d="m1186.72 386.02-.14-.8-.51-.5-.79-.14-.93.64-.8.87-.21.57.21.29.87.36 1.08.15.65-.22.5-.43z" fill="none" stroke="#231815" stroke-miterlimit="22.93" stroke-width="1.01"/><path d="m1066.29 1014 2.88-2.88.36.36.36.36.29.36.36.29.29.36.36.36.29.36.29.36.29.36.22.36.29.36.22.36.14.36.22.36.22.36.22.36.22.29.14.36.14.36.22.36.14.36.07.36.14.36.14.36.07.36.07.36.07.36.07.36.07.29v.36l.07.36v1.73l-.07.36v.36l-.07.36-.07.36-.07.29-.07.29-.14.36-.07.36-.14.36-.14.36-.14.29-.14.36-.14.36-.22.36-.14.36-.22.36-.22.29-.22.36-.14.29-.29.36-.22.29-.29.36-.29.36-.29.36-.29.36-.29.29-.36.36-.29.36-.36.36-.36.29-.29.36-.36.29-.36.29-.29.29-.29.29-.36.29-.36.22-.36.29-.36.22-.29.22-.36.22-.36.22-.36.14-.36.22-.36.14-.36.14-.29.14-.36.14-.36.14-.36.07-.29.07-.36.14-.36.07h-.36l-.43.07-.36.07h-1.73l-.36-.07h-.36l-.36-.07-.36-.07-.43-.07-.36-.14-.36-.07-.36-.14-.36-.07-.43-.14-.29-.14-.36-.22-.36-.14-.43-.22-.36-.14-.36-.22-.43-.22-.36-.29-.36-.22-.43-.29-.36-.22-.36-.29-.36-.29-.36-.29-.43-.29-.36-.36-.43-.29-.36-.36-.43-.36-.36-.36-.43-.43-.36-.43-.36-.43-.43-.36-.29-.43-.36-.36-.36-.29-.43-.36-.36-.36-.36-.36-.36-.29-.36-.36-.43-.29-.36-.29-.36-.29-.36-.22-.29-.29-.36-.22-.36-.22-.36-.22-.36-.22-.36-.22-.36-.07-.36-.22-.36-.14-.36-.14-.29-.07-.36-.14-.36-.14-.29-.07-.36-.07-.29-.07-.36-.07-.36-.07h-.65l-.36-.07h-.29l-.36.07h-.36l-.29.07h-.36l-.29.07-.29.07-.29.07-.36.14-.29.07-.36.14-.29.14-.29.14-.36.14-.29.14-.29.14-.36.14-.29.22-.29.22-.29.22-.29.29-.29.22-.29.29-.29.29-.29.29-.29.29-.29.29-.29.36 15.41 15.19.14.22.14.22.22.22.14.22.22.22.14.22.22.14.22.22.14.14.22.14.22.14.14.14.22.14.22.14.22.14.14.07.22.14.22.07.22.07.14.14.22.07h.22l.22.07.22.07h.07l.22.07h.43l.22.07h.43l.22-.07h.43l.22-.07.22-.07h.14l.22-.07.22-.07.22-.07.29-.14.22-.07.22-.07.22-.14.22-.14.14-.07.22-.14.22-.14.22-.14.22-.22.22-.14.29-.14.22-.22.22-.22.22-.14.22-.22.22-.22.29-.22.22-.29.22-.22.22-.14.29-.29.22-.29.22-.22 2.88 2.81-26.14 26.42-2.95-2.81.5-.5.5-.5.43-.43.43-.43.36-.5.22-.22.14-.22.14-.22.22-.14.14-.22.14-.22.14-.22.14-.22.07-.22.14-.22.14-.22.07-.22.14-.22v-.22l.07-.14.07-.22.07-.22.07-.22.07-.22.07-.14v-.22l.07-.22v-.14l.07-.22v-1.22l-.07-.14v-.22l-.07-.14-.07-.22v-.14l-.07-.22-.07-.14-.07-.14-.14-.22v-.14l-.07-.14-.14-.14-.07-.22-.14-.14-.14-.14-.07-.14-.14-.14-.14-.22-.22-.14-.14-.14-.14-.14-.22-.14-.14-.07-35.42-35.14-.14-.14-.14-.14-.14-.22-.14-.14-.22-.14-.14-.07-.14-.14-.14-.14-.14-.14-.22-.07-.14-.14-.14-.07-.14-.07-.22-.14-.14-.07-.14-.07-.22-.07-.14-.07-.22-.07h-.14l-.07-.07h-.22l-.14-.07h-1.3l-.22.07h-.22l-.14.07h-.22l-.22.07-.22.07-.14.07-.22.07-.22.07-.22.07-.22.14-.14.07-.22.14-.22.07-.14.14-.22.14-.22.14-.22.07-.22.14-.22.14-.22.14-.22.22-.22.14-.22.22-.43.36-.5.43-.43.43-.5.5-.43.5-2.88-2.95 25.85-26.06.58-.58.58-.58.58-.5.58-.5.65-.5.58-.5.5-.5.58-.43.58-.43.5-.43.58-.43.58-.36.58-.36.58-.36.43-.36.58-.36.58-.36.5-.29.58-.29.58-.29.5-.22.58-.29.5-.22.5-.22.5-.22.5-.22.58-.14.5-.14.5-.14.5-.07.58-.07.43-.14.5-.07h.5l.5-.07.5-.07h1.51l.5.07.43.07h.43l.5.07.5.14.43.07.5.07.5.14.43.14.5.14.43.22.43.22.43.22.5.22.43.22.43.29.5.29.43.29.43.29.43.36.5.36.36.36.43.36.43.36.43.36.36.36.36.36.29.43.36.36.29.43.29.36.29.43.29.43.22.36.22.43.14.36.22.43.22.36.14.43.14.43.22.43.07.43.14.43.07.43.14.43.07.5.07.36v.43l.07.43v1.87l-.07.43-.07.5-.07.43-.07.43-.07.5-.14.43-.07.5-.14.5-.22.5-.14.5-.14.43-.22.5-.14.43-.22.5-.22.5-.29.58-.29.5-.29.5-.29.5-.29.5-.36.58-.29.43-.36.5-.36.58-.43.5-.36.58-.43.5-.36.58-.43.58-.43.43-.5.58-.43.58-.5.5-.5.58-.58.58-.5.58.29.29.36-.29.36-.29.36-.29.36-.29.36-.22.36-.29.36-.29.36-.22.36-.22.36-.22.36-.22.29-.22.36-.22.36-.22.36-.14.36-.14.36-.14.43-.14.36-.14.36-.14.36-.14.36-.07.36-.14.36-.14.36-.07.36-.07.36-.07.36-.07.43-.07.36-.07.36-.07h.43l.36-.07h2.23l.36.07h.43l.36.07.36.07.43.07.36.07.43.07.36.07.29.07.43.14.36.07.43.14.36.14.43.14.36.14.43.14.36.14.43.14.36.14.36.22.43.22.36.22.43.22.36.22.43.22.79.43.72.36.72.43.58.36.72.36.65.29.58.29.58.29.58.22.58.29.5.22.43.22.5.14.43.14.43.22.43.07.36.14.36.07.36.07.29.07h.86l.07-.07h.22l.07-.07h.07l.07-.07.07-.07h.07l.07-.07.07-.07v-.07l.07-.07v-.07l.07-.07v-.22l.07-.07.14-.14.14-.14.07-.07v-.07l.07-.07.07-.07.07-.07v-.07l.07-.07v-.07l.07-.07v-.22l.07-.07v-.86l-.07-.22v-.22l-.07-.22-.07-.29-.14-.29-.07-.22-.14-.29-.14-.29-.22-.29-.14-.29-.22-.36-.22-.22-.22-.29-.22-.36-.22-.36-.29-.36-.29-.36-.29-.36-.36-.36-.36-.36zm-59.54-3.74 16.06 15.77.43-.29.29-.43.43-.43.43-.43.36-.43.36-.36.36-.43.36-.43.29-.43.36-.36.29-.43.29-.36.29-.36.29-.43.22-.36.22-.43.22-.36.22-.43.22-.36.22-.36.22-.43.14-.36.14-.43.14-.29.14-.36.14-.36.07-.43.14-.36.07-.36.07-.36.07-.36.07-.36v-.43l.07-.36v-1.01l-.07-.36v-.36l-.07-.29-.07-.36-.07-.36-.07-.36-.07-.36-.14-.36-.14-.29-.07-.36-.14-.36-.22-.29-.14-.29-.22-.36-.14-.29-.22-.36-.22-.36-.29-.29-.22-.36-.22-.29-.22-.36-.29-.29-.29-.36-.36-.29-.29-.29-.36-.29-.29-.29-.36-.29-.29-.29-.29-.29-.36-.22-.29-.29-.29-.22-.36-.29-.22-.22-.29-.22-.29-.22-.36-.22-.29-.14-.29-.22-.29-.22-.36-.14-.29-.14-.29-.14-.29-.22-.29-.07-.29-.14-.29-.07-.36-.14-.22-.07-.29-.14-.29-.07-.29-.07-.29-.07-.29-.07-.29-.07h-.29l-.29-.07-.29-.07h-1.94l-.29.07h-.29l-.29.07-.29.07-.29.07-.29.07-.22.07-.29.07-.29.07-.29.14-.29.07-.29.14-.22.07-.29.14-.29.14-.22.14-.29.14-.22.14-.29.22-.29.14-.29.22-.22.22-.29.22-.29.22-.22.22-.36.29-.22.36-.29.29-.29.29-.22.29-.22.36-.14.29-.22.22-.14.29-.07.36-.07.29-.14.29v.14l-.07.14v.14l-.07.14v.29l-.07.14v.79l.07.14v.43l.07.14v.14l.07.14v.14l.07.14.07.07.07.07.07.14.07.29.14.29.14.29.22.29.22.29.22.29.22.29.29.22zm-29.86 14.19-51.41 39.02 2.45 3.24.5-.43.58-.43.5-.36.5-.36.5-.22.22-.14.29-.14.22-.14.22-.14.22-.14.29-.14.14-.07.22-.14.22-.07.22-.07.29-.14.22-.07.22-.07.22-.07h.22l.22-.07.14-.07h.22l.22-.07h.43l.14-.07h.79l.22.07h.14l.14.07h.14l.22.07h.14l.14.07.22.07.14.07.14.07.22.07.14.14.14.07.14.14.14.07.14.14.14.14.14.07.14.14.14.14.14.14.14.22.14.07.14.14.14.22.07.14.14.22.14.22 30.17 39.67.14.14.14.14.14.22.14.14.14.14.07.22.14.14.14.22.07.14.07.22.07.14.14.14.07.22.07.14v.22l.07.14.07.22v.14l.07.22v.36l.07.14v.36l-.07.22v.29l-.07.14v.22l-.07.22v.14l-.07.22-.07.14-.07.22-.07.14-.07.22-.14.22-.07.14-.14.22-.07.22-.14.14-.14.22-.14.14-.14.22-.14.22-.14.14-.14.22-.14.22-.22.22-.22.07-.14.22-.22.22-.22.14-.22.22-.43.43-.43.36-.5.43-.5.36-.58.43 2.45 3.24 52.7-40.1-15.91-22.25-3.6 2.66.29.65.29.72.22.65.22.65.29.65.22.65.14.58.22.65.07.58.22.65.14.65.14.58.07.65.14.5.07.65.14.58.07.58v.65l.07.58.07.58v2.81l-.07.58v.58l-.07.5-.07.58-.07.43-.07.58-.14.5-.14.58-.14.5-.14.5-.14.58-.07.5-.22.5-.14.43-.22.5-.22.5-.22.5-.29.5-.22.5-.29.43-.29.5-.29.5-.29.36-.36.5-.29.43-.36.43-.36.5-.36.43-.29.43-.43.43-.36.43-.43.43-.43.36-.43.43-.43.43-.5.43-.5.43-.43.36-.43.43-.43.36-.43.29-.43.36-.43.29-.43.22-.36.29-.43.14-.22.07-.14.07-.22.14-.22.07-.14.07-.22.07-.22.07-.14.07h-.14l-.14.07-.22.07h-.14l-.22.07h-.5l-.22.07h-.29l-.22-.07h-.5l-.14-.07h-.14l-.14-.07-.22-.07h-.14l-.14-.07-.14-.07-.14-.07-.14-.07-.14-.07-.22-.14-.14-.07-.07-.07-.14-.14h-.14l-.07-.14-.14-.14-.14-.07-.14-.14-.14-.14-.14-.14-.14-.14-.14-.22-.07-.14-.14-.14-.14-.22-.14-.14-14.62-19.22.36-.29.29-.29.36-.22.29-.29.36-.22.29-.22.29-.22.36-.22.29-.22.29-.22.29-.22.36-.14.29-.22.29-.14.36-.14.29-.14.36-.14.29-.14.36-.14.29-.07.36-.14.29-.07.36-.07.22-.14.36-.07h.29l.36-.07.29-.07h.36l.29-.07h1.3l.36.07h.29l.36.07h.22l.36.07.29.07.36.07.29.07.36.07.29.14.36.07.29.14.36.14.29.14.36.14.36.14.29.14.29.22.29.14.36.22.29.14.36.22.36.22.29.29.36.14.29.22.36.29.36.22.29.29.36.29 3.24-2.45-17.57-23.11-3.24 2.45.07.43.22.36.14.43.14.36.14.36.14.43.14.36.14.36.07.36.14.36.07.36.07.36.14.36.07.36v.36l.07.36.07.36v.29l.07.36v1.66l-.07.29v.36l-.07.36v.29l-.07.29-.07.36-.07.29-.07.36-.14.29-.07.29-.14.29-.07.36-.14.29-.14.22-.14.29-.14.29-.14.29-.22.29-.07.29-.22.29-.14.29-.22.29-.22.29-.22.22-.22.29-.29.29-.22.22-.29.29-.22.29-.29.14-.29.29-.29.22-.29.29-.36.22-.29.22-.36.29-.22.22-.36.22-.36.22-.36.29-12.31-16.27-.22-.14-.14-.14-.14-.22-.14-.14-.14-.22-.07-.14-.14-.14-.14-.22-.07-.14-.07-.14-.14-.22-.07-.14-.07-.14-.07-.22-.07-.14-.07-.14-.07-.22v-.14l-.07-.14v-.22l-.07-.14v-.5l-.07-.14.07-.07v-.5l.07-.22v-.14l.07-.14v-.22l.07-.14.07-.14.07-.14.07-.22.07-.14.07-.14.14-.14.07-.22.14-.14.07-.14.14-.22.14-.14.07-.14.14-.14.14-.22.14-.14.22-.14.07-.14.14-.22.22-.07.14-.14.43-.36.43-.29.43-.36.43-.29.5-.29.5-.36.43-.36.5-.36.43-.29.43-.29.5-.36.5-.22.43-.29.5-.29.5-.14.5-.22.43-.29.5-.14.43-.22.5-.22.5-.14.43-.14.5-.14.5-.14.5-.14.5-.14.5-.07.43-.07.5-.07.5-.07.5-.07h.5l.5-.07h1.94l.5.07.5.07h.5l.5.07.58.07.5.14.5.07.5.14.43.14.5.14.58.14.5.14.5.22.58.14.5.22.5.22.5.22.5.29.5.14.58.29.5.29.5.29.58.29.5.29.58.36.43.29.58.36.5.36.58.36.5.43.58.36.5.43 3.6-2.74-16.2-19.94zm-112.58 78.88-2.02-3.53 30.24-17.14 1.94 3.53-.58.29-.43.29-.5.36-.5.29-.5.29-.43.22-.43.29-.36.29-.43.29-.29.29-.36.29-.29.22-.29.22-.22.29-.22.29-.22.22-.07.14-.07.14-.07.14-.07.07-.07.14-.07.14-.07.14-.07.07-.07.14v.14l-.07.14v.22l-.07.14v.58l.07.14v.07l.07.14v.14l.07.07v.14l.07.07.07.14.07.14h.07l.07.14.07.07.07.14h-.07v.07l.07.07.07.07.07.07.22.29.29.29.29.36.43.43.5.5.58.58 1.37 1.37 1.58 1.51 2.02 1.87 2.23 2.02 2.45 2.38 2.81 2.59 3.17 2.88 3.38 3.1 3.6 3.38 3.96 3.6 4.25 3.89.36-.14-.22-1.37-.36-1.73-.36-1.94-.36-2.23-.72-5.04-.72-4.68-.72-4.32-.65-3.96-.58-3.6-.58-3.17-.5-2.88-.22-1.22-.14-1.22-.22-1.08-.14-1.01-.22-.94-.14-.79-.22-.72-.14-.65-.07-.58-.14-.43-.14-.36v-.14l-.07-.14-.07-.14v-.07h-.07v-.07h-.07v.07l-.07.07v.5l-.14-.22-.07-.14-.07-.14-.14-.14-.07-.14-.07-.07-.14-.14-.07-.14-.14-.07-.07-.07-.14-.14-.14-.07-.07-.14-.14-.07-.14-.07-.07-.07-.14-.14-.14-.07-.14-.07-.14-.07h-.14l-.07-.07-.14-.07-.14-.07h-.14l-.14-.07h-.14l-.14-.07h-.14l-.14-.07h-1.37l-.36.07h-.36l-.36.14-.43.07-.36.07-.36.14-.36.14-.43.22-.43.14-.43.22-.5.22-.43.22-.5.22-1.94-3.53 20.59-11.66 2.02 3.53-.36.29-.43.29-.36.29-.29.29-.36.36-.29.29-.36.29-.29.29-.22.29-.29.29-.22.36-.22.29-.14.36-.22.29-.14.36-.14.36-.14.36-.14.29-.14.36-.07.36-.07.36-.07.29-.07.36v1.8l.07.43.07.36.07.36.07.43 10.51 63.94-7.42 4.25-46.94-42.84-.36-.36-.36-.36-.36-.36-.36-.29-.36-.29-.36-.29-.36-.29-.36-.14-.22-.14-.14-.07-.22-.07-.14-.14-.22-.07-.22-.07-.14-.07-.22-.07-.14-.07-.22-.07-.07-.07-.22-.07h-.14l-.22-.07-.14-.07h-.36l-.22-.07h-1.66l-.14.07h-.22l-.14.07h-.22l-.14.07-.22.07-.14.07h-.22l-.07.07-.22.07-.14.14-.22.07-.14.07-.22.07-.14.14-.22.07-.14.14-.36.14-.36.22zm-186.92 45.96 36.36-5.33.58 4.03-.72.07-.58.07-.65.14-.65.14-.65.07-.29.07-.29.07-.22.07-.29.14-.29.07-.29.07-.22.07-.22.07-.22.14-.22.07-.22.07-.22.14-.22.07-.22.14-.22.07-.22.14-.14.14-.22.07-.14.14-.14.14-.22.07-.14.14-.14.14-.14.14-.14.14-.07.14-.14.14-.14.14-.07.14-.14.14-.07.14-.07.14-.07.14-.07.14-.07.22-.07.14-.07.22-.07.14v.22l-.07.14v.36l-.07.22v.79l.07.22v.43l.07.22v.22l.07.22.07.22 6.19 42.41.07.43.14.43.07.36.07.36.14.43.14.36.07.29.14.36.14.36.14.29.14.36.14.36.14.29.14.29.22.36.14.29.14.29.22.29.14.29.14.29.22.29.22.14.22.29.22.22.22.29.22.22.22.22.29.22.22.22.29.22.22.22.29.14.22.22.29.14.29.22.29.14.29.14.22.22.29.14.29.14.36.07.29.14.36.14.29.07.36.14.36.07.29.14h.36l.36.07.36.07.36.07.29.07h.43l.36.07.36.07h.79l.43.07h2.02l.5-.07.5-.07.58-.07.5-.14.58-.07.5-.07.5-.14.5-.07.43-.14.43-.14.5-.14.43-.22.5-.14.43-.14.43-.22.36-.22.43-.14.43-.22.29-.22.36-.22.36-.29.36-.22.36-.22.36-.29.29-.22.36-.29.29-.29.29-.29.29-.22.29-.29.29-.29.22-.29.29-.36.14-.29.22-.36.22-.36.22-.36.22-.36.14-.36.22-.36.14-.36.14-.36.14-.36.14-.43.14-.36.07-.43.14-.43.07-.43.07-.43.07-.43.07-.5.07-.43.07-.43v-.94l.07-.5v-1.01l-.07-.5v-.5l-.07-.58v-.43l-.07-.58-.07-.58-.07-.5-5.47-37.66v-.65l-.07-.22v-.36l-.07-.14v-.22l-.07-.22-.07-.14-.07-.22-.07-.14-.07-.22-.07-.14-.07-.22-.07-.14-.14-.14-.07-.14-.14-.14-.07-.22-.14-.14-.07-.14-.14-.07-.14-.14-.14-.14-.14-.14-.14-.14-.22-.07-.14-.14-.22-.07-.14-.14-.22-.07-.22-.14-.22-.07-.22-.07-.22-.07-.22-.07-.22-.07-.22-.07-.29-.07-.22-.07-.29-.07-.29-.07-.22-.07h-.22l-.29-.07-.29-.07h-.29l-.36-.07h-.29l-.29-.07h-.36l-.65-.07h-3.67l-.58-4.03 26.28-3.89.58 4.1-.65.22-.58.07-.58.22-.58.22-.5.22-.5.22-.5.22-.29.14-.22.07-.22.14-.22.14-.22.07-.22.14-.22.14-.22.14-.14.07-.22.14-.14.14-.14.14-.14.14-.22.14-.14.14-.14.14-.14.14-.14.14-.14.14-.07.14-.14.22-.14.14-.07.14-.14.14-.07.07-.07.22-.07.14-.07.14-.07.22-.07.14-.07.22-.07.14-.07.22v.14l-.07.22v.36l-.07.22v.94l.07.22v.43l.07.22.07.14v.14l.07.22 5.4 36.79.07.72.07.72.07.72.07.65v1.3l.07.65-.07.65v1.3l-.07.58-.07.65-.07.5-.14.65-.07.58-.14.58-.14.58-.14.5-.22.58-.07.29-.07.22-.14.22-.07.29-.14.22-.07.29-.14.22-.07.29-.14.22-.14.29-.14.22-.14.29-.07.22-.14.22-.14.29-.22.22-.14.22-.14.22-.07.29-.14.22-.22.22-.14.14-.22.22-.14.22-.22.22-.14.22-.22.22-.14.22-.43.36-.43.43-.43.36-.43.43-.43.36-.5.36-.43.36-.5.36-.5.22-.58.36-.5.29-.58.29-.58.29-.58.29-.58.29-.65.29-.58.29-.72.22-.65.22-.65.29-.72.22-.65.22-.72.22-.79.14-.72.22-.79.14-.79.14-.72.14-.86.14-.79.14-.86.14-.86.07-.79.07-.72.07-.79.07-.79.07-.79.07h-.79l-.65.07h-2.16l-.72-.07h-.72l-.65-.07h-.65l-.65-.07-.65-.07-.58-.14-.65-.07-.65-.14-.58-.07-.5-.14-.58-.14-.58-.14-.58-.14-.5-.14-.58-.22-.5-.22-.5-.22-.5-.22-.43-.22-.43-.22-.5-.29-.43-.29-.43-.29-.43-.29-.43-.29-.43-.29-.36-.36-.36-.36-.36-.29-.36-.29-.29-.43-.36-.36-.36-.36-.29-.43-.29-.43-.29-.43-.29-.43-.29-.43-.22-.43-.29-.5-.22-.43-.22-.5-.22-.5-.22-.5-.22-.5-.07-.58-.14-.5-.14-.58-.14-.5-.14-.58-.14-.65-.07-.58-5.98-40.82v-.29l-.07-.22v-.43l-.07-.22v-.22l-.07-.22v-.14l-.07-.22-.07-.22-.07-.14-.07-.14-.07-.14-.07-.22-.07-.14-.07-.14-.07-.14-.14-.22-.07-.14-.14-.14-.07-.14-.14-.14-.07-.07-.14-.14-.14-.14-.14-.07-.14-.14-.07-.07-.14-.14-.14-.07-.22-.14-.14-.07-.14-.07-.22-.07-.14-.07-.22-.07-.22-.07-.14-.07-.22-.07h-.22l-.22-.07-.22-.07h-.22l-.22-.07h-.5l-.22-.07h-1.8l-.58.07-.58.07-.65.07-.58.07-.65.14-.58-4.03zm76.39-7.68-1.15-3.96 24.26-7.2 47.66 36.94.36-.07-10.44-35.28v-.22l-.07-.22-.07-.14-.07-.22v-.22l-.07-.22-.07-.14-.07-.22-.14-.14-.07-.22-.07-.14-.07-.22-.14-.14-.07-.14-.14-.14-.14-.14-.07-.14-.14-.14-.14-.14-.14-.07-.14-.14-.14-.07-.14-.14-.14-.07-.22-.14-.14-.07-.22-.14-.14-.07-.22-.07-.14-.14-.22-.07-.22-.07-.22-.07-.14-.07-.22-.07h-.22l-.22-.07-.22-.07h-.29l-.22-.07h-.22l-.29-.07h-.29l-.22-.07h-2.23l-.65.07-.65.07-.65.07-.72.07-.72.14-.72.07-1.08-3.89 24.98-7.49 1.22 3.89-.65.29-.5.22-.58.29-.5.29-.5.29-.36.29-.43.29-.22.14-.22.14-.22.14-.22.14-.14.14-.22.14-.14.14-.22.22-.14.14-.14.14-.14.14-.14.14-.14.22-.14.14-.14.14-.07.07-.14.22-.14.14-.07.14-.07.22-.14.14-.07.14-.07.22-.07.14-.07.22-.07.14v.14l-.07.22-.07.14v.22l-.07.14v1.73l.07.14v.14l.07.22.07.22v.14l.07.22.07.22.07.22.07.22.07.14 17.14 57.17-9.43 2.88-54.22-41.83-.43.07 12.74 42.7v.29l.07.14.07.22v.22l.07.22.07.22.07.14.07.22.07.22.07.14.07.14.14.22.07.14.14.14.07.14.14.14.14.14.14.14.07.14.22.14.14.07.14.14.07.07.14.14.22.07.14.07.22.07.14.07.22.07.22.07.22.07.22.07h.22l.22.07h.22l.29.07h.5l.22.07h1.08l.22-.07h.58l.36-.07h.29l.29-.07.36-.07.29-.07h.36l.36-.07.29-.07.72-.22.65-.14.79-.22.79-.22.79-.29 1.15 3.89-27 8.06-1.15-3.89.65-.22.65-.14.58-.22.5-.22.58-.22.29-.07.22-.14.29-.14.22-.07.29-.14.22-.07.22-.14.22-.14.22-.07.22-.07.22-.14.22-.14.14-.14.22-.14.14-.14.14-.14.14-.07.14-.14.14-.14.14-.22.14-.14.07-.14.14-.14.14-.14.07-.14.14-.14.07-.22.07-.14.07-.14.07-.14.07-.22.07-.14.07-.22v-.14l.07-.14v-.22l.07-.14v-1.3l-.07-.22v-.14l-.07-.22v-.22l-.07-.22-.07-.22-.07-.22-.07-.22-.07-.22-.07-.22-14.26-47.74-.07-.22-.07-.22v-.22l-.07-.22-.07-.22-.07-.14-.07-.22-.07-.22-.07-.14-.07-.22-.07-.14-.07-.22-.07-.14-.14-.14-.07-.14-.14-.14-.14-.14-.07-.07-.14-.14-.14-.14-.14-.07-.14-.14-.14-.07-.14-.14-.14-.07-.22-.14-.14-.07-.14-.07-.22-.07-.14-.07-.22-.07-.22-.07h-.14l-.22-.07-.22-.07h-.22l-.22-.07h-.36l-.22-.07h-1.22l-.29.07h-.5l-.29.07h-.22l-.29.07h-.29l-.29.07-.29.07-.65.14-.58.14-.58.22-.72.14-.65.22zm135.61 25.29-1.51-3.74-.65.29-.65.29-.58.22-.58.14-.58.22-.29.07-.22.07-.29.07-.29.07-.14.07-.29.07-.22.07h-.29l-.22.07h-.29l-.22.07h-.22l-.22.07h-1.08l-.22-.07h-.43l-.22-.07h-.14l-.22-.07-.14-.07h-.14l-.14-.07-.22-.07-.14-.07-.14-.07-.14-.14-.22-.07-.14-.07-.14-.07-.14-.07-.14-.14-.14-.14-.14-.07-.07-.14-.14-.14-.14-.14-.07-.14-.14-.14-.07-.22-.14-.14-.07-.22-.14-.14-.07-.22-.07-.14-.07-.22-.14-.22-.07-.22-.07-.22-.07-.22-19.73-45.72-.14-.22-.07-.22-.14-.14-.07-.14-.07-.22-.07-.22-.07-.22-.07-.14-.07-.22-.07-.22v-.14l-.07-.22v-.22l-.07-.14v-.94l.07-.22v-.36l.07-.14.07-.14v-.22l.07-.14.07-.14.07-.14.07-.14.07-.22.14-.14.07-.14.14-.22.07-.14.14-.14.14-.14.14-.22.14-.14.14-.14.14-.14.07-.14.14-.22.22-.14.22-.14.14-.14.22-.14.22-.14.22-.14.22-.14.22-.14.22-.14.29-.14.22-.14.22-.14.58-.29.58-.22.5-.22.58-.29.65-.22-1.58-3.74-34.92 15.05 1.66 3.74.65-.29.58-.29.58-.14.5-.29.58-.14.29-.07.29-.14.29-.07.22-.07.29-.07h.22l.29-.07.22-.07h.29l.22-.07h.22l.29-.07h1.66l.14.07h.22l.22.07h.14l.22.07.14.07.22.07.14.07.22.07.14.07.14.07.14.07.14.14.14.07.14.14.14.07.14.07.14.14.14.14.14.14.07.14.14.14.07.14.07.14.07.22.14.14.07.14.14.22.07.22.07.14.07.22.07.22.07.22.07.22 19.87 45.79.07.22.14.14.07.22.14.14.07.22.07.14.07.22.07.22.07.22v.14l.07.22v.14l.07.22v1.44l-.07.22v.14l-.07.22-.07.14-.07.22v.14l-.14.14-.07.14-.07.14-.07.22-.14.14-.07.14-.14.14-.07.22-.14.14-.14.14-.14.14-.14.22-.14.14-.22.14-.14.14-.14.14-.22.14-.22.14-.14.14-.22.14-.22.22-.22.14-.22.14-.22.14-.22.14-.22.07-.29.14-.5.29-.58.29-.58.22-.65.22-.58.29 1.58 3.82 34.85-15.12zm200.61-152.62 2.19-3.42-.12-.57-.25-.41-.18-.42-.25-.41-.1-.43-.09-.21-.08-.14-.09-.21-.02-.22-.09-.21v-.14s-.03-.21-.03-.21l-.08-.14v-.14s-.03-.21-.03-.21v-.14s-.02-.14-.02-.14v-.14s.05-.15.05-.15v-.14s-.02-.14-.02-.14l.06-.15v-.14s.05-.15.05-.15l.06-.15.07-.08v-.07s.06-.08.06-.08l.06-.15.13-.16.07-.08.13-.15.13-.15.2-.16.13-.16.2-.16.2-.23.2-.16.2-.16.27-.24.28-.17.27-.24.28-.16.55-.4.48-.4.48-.33.4-.39.48-.33.4-.39.49-.25.4-.39.48-.4.41-.32.33-.39.4-.39.4-.39.4-.39.4-.39.4-.39.4-.39.33-.39.4-.46.34-.31.4-.39.25-.45.4-.39.33-.46.33-.39.33-.46.33-.46.33-.39.33-.46.33-.46.33-.39.25-.45.33-.46.31-.67.31-.67.31-.67.32-.6.31-.67.24-.6.31-.67.24-.6.24-.67.24-.67.17-.59.24-.67.18-.52.17-.59.17-.66.17-.59.1-.58.1-.59.02-.65.1-.58.11-.51.03-.58.03-.58.03-.58.03-.51.03-.58-.04-.57.03-.58-.03-.43-.12-.57-.04-.57-.04-.5-.12-.57-.11-.5-.11-.5-.19-.56-.11-.5-.18-.42-.18-.49-.11-.5-.19-.56-.25-.49-.25-.49-.25-.49-.25-.41-.25-.49-.32-.41-.25-.49-.33-.48-.32-.41-.4-.48-.32-.41-.4-.47-.39-.4-.4-.48-.39-.4-.39-.4-.46-.4-.39-.4-.54-.39-.46-.4-.47-.47-.54-.39-.54-.39-.38-.26-.45-.18-.31-.27-.44-.11-.38-.26-.45-.18-.45-.18-.38-.19-.44-.11-.45-.18-.44-.11-.44-.11-.44-.11-.37-.12-.44-.11-.51-.03-.44-.04-.44-.11-.51-.03-.43.03-.51-.03-.44-.04-.5.04-.43.03-.5.04-.43.03-.5.04-.5.11-.5.04-.5.11-.57.12-.5.11-.43.1-.49.18-.56.19-.5.11-.56.19-.49.18-.56.26-.49.18-.56.26-.49.18-.56.26-.56.26-.55.33-.56.19-.56.26-.55.33-.48.33-.62.34-.55.33-.55.4-.62.34-.55.4-.62.41-.55.4-.55.4-.62.41-.61.48-.62.41-.62.41-.61.48-.61.55-.54.47-.81.71-.89.65-.82.64-.75.63-.76.49-.76.49-.75.56-.41.25-.34.24-.41.25-.35.17-.34.24-.35.17-.41.25-.28.17-.35.17-.35.17-.35.17-.28.17-.35.17-.35.17-.35.17-.28.09-.35.1-.28.17-.35.1-.28.09-.28.09-.21.09-.35.1-.28.09-.29.02-.28.09-.29.02-.29.02-.29.02-.22.02-.29.02-.29.02-.22.02-.29.02-.22.02-.29-.05-.22.02-.22-.05-.22-.06-.22-.06-.22-.06-.22-.05-.22-.06-.22-.05-.23-.13-.22-.05-.23-.13-.23-.13-.15-.06-.23-.13-.23-.2-.23-.2-.23-.2-.23-.2-.23-.13-.23-.2-.23-.2-.16-.2-.23-.2-.16-.2-.16-.2-.16-.21-.16-.2-.16-.2-.16-.2-.15-.13-.09-.28-.16-.21-.09-.21-.16-.2-.09-.21-.09-.28-.09-.21-.09-.21-.09-.28-.09-.21-.09-.21-.02-.29-.09-.21-.02-.29-.09-.21-.02-.29-.02-.22-.02-.29v-.14s-.03-.29-.03-.29l.06-.22-.02-.29-.02-.29.05-.29.06-.22-.02-.29.05-.29.05-.29.06-.22.12-.3.05-.29.05-.29.12-.3.05-.29.13-.23.12-.3.05-.29.12-.3.19-.3.12-.3.12-.3.05-.29.19-.3.12-.3.19-.38.19-.3.19-.3.19-.3.26-.38.26-.38.26-.31.27-.31.33-.39.27-.31.34-.32.27-.31.34-.31.34-.31.26-.31.34-.24.34-.31.34-.24.34-.24.34-.24.34-.24.41-.25.35-.17.42-.18.35-.17.42-.18.35-.17.42-.18.35-.17.42-.18.43-.1.5-.11.42-.18.43-.11.43-.1.5-.11.36-.03.5-.11.43-.03.5-.11.5-.04.5-.04.5-.04.51.03.5-.04.44.04.5-.04.58.03.51.03.51.03.58.03.58.03.51.11.58.03.51.1.59.1.59.1.59.1.59.1.59.1.59.1.66.17.52.18.66.17.59.17.66.17.66.17.67.24 2.12-3.41-20.89-13.5-2.27 3.42v.14s.09.14.09.14l.08.14v.14s.1.21.1.21l.09.21.15.13.09.21.17.35.17.35.17.35.1.35.1.35.09.28.09.28.02.29v.14s.02.14.02.14v.14s.02.14.02.14v.07s.02.14.02.14l-.06.15v.07s-.06.15-.06.15v.07s-.06.08-.06.08v.14s-.06.08-.06.08l-.07.08-.07.08-.06.15-.07.08-.07.08-.14.08-.13.15-.14.08-.13.15-.2.16-.34.24-.48.33-.49.25-.48.4-.49.18-.41.25-.49.25-.41.25-.41.25-.42.18-.41.32-.41.25-.41.32-.34.24-.41.32-.41.25-.34.31-.41.32-.34.31-.41.32-.34.32-.34.31-.33.39-.34.31-.26.38-.34.31-.34.32-.34.31-.33.39-.26.38-.33.39-.26.38-.33.39-.25.45-.26.38-.33.39-.31.67-.39.54-.24.67-.32.6-.31.67-.24.6-.32.6-.24.6-.24.67-.25.52-.17.59-.24.6-.17.59-.17.59-.17.59-.1.59-.1.58-.11.51-.1.58-.1.58-.1.59.04.57-.03.58-.03.51.04.57-.03.51.04.5.04.57.04.57.04.5.12.57.11.5.11.5.04.5.11.5.19.56.18.49.18.49.18.49.26.56.18.49.25.49.25.41.33.48.25.49.33.48.33.48.33.48.33.48.4.48.4.47.39.4.4.48.32.41.47.47.47.47.46.4.47.47.47.47.54.39.54.39.54.39.54.46.46.4.38.19.38.26.38.19.3.19.38.19.37.12.38.19.37.12.44.11.37.12.37.12.37.12.37.12.44.04.36.05.44.11.44.04.44.04.36-.03.44.04.43-.03.51.03.36-.03.43-.03.43-.03.5-.11.43-.03.5-.11.43-.11.5-.04.5-.11.42-.18.42-.1.49-.18.5-.11.49-.18.49-.18.56-.19.49-.18.49-.25.49-.18.49-.25.56-.26.49-.25.56-.26.56-.26.56-.26.55-.33.55-.33.48-.33.55-.33.56-.26.55-.33.62-.34.55-.4.62-.41.48-.4.62-.41.55-.4.62-.41.61-.48.61-.48.62-.41.61-.48.82-.64.88-.72.82-.64.82-.57.82-.57.75-.56.82-.57.76-.49.76-.42.35-.17.34-.24.42-.18.28-.17.34-.24.35-.17.35-.17.35-.17.35-.17.35-.17.28-.09.35-.17.35-.1.28-.16.35-.1.28-.09.28-.09.28-.09.28-.09.28-.09.28-.09.29-.02.28-.09.29-.02.29-.02.28-.09.22-.02.29-.02.29-.02.22.05.29-.02.22-.02.22.06.22-.02.22.06.22.05.22.06.22.06.22.05.22.06.15.06.23.13.22.05.15.13.23.13.15.06.31.26.3.19.3.19.23.2.31.27.23.2.23.13.24.27.16.2.24.27.23.2.16.2.24.27.16.2.16.28.24.27.16.2.17.28.09.21.17.28.17.28.09.21.17.28.09.21.09.28.09.21.09.28.09.28.02.29.09.28.02.29.09.28.02.29.02.29.02.29.02.29.02.29-.05.29.02.29-.05.29.02.22-.05.29-.05.29-.05.37-.05.29-.05.29-.12.3-.04.36-.12.3-.04.36-.12.3-.12.3-.12.37-.12.3-.19.3-.12.3-.12.37-.19.3-.19.38-.19.3-.12.37-.19.38-.19.3-.19.37-.33.46-.26.38-.33.39-.33.39-.34.32-.33.39-.33.39-.34.31-.33.39-.34.31-.34.32-.34.31-.41.32-.34.24-.41.32-.41.25-.41.25-.41.25-.41.25-.41.25-.5.11-.34.24-.42.18-.49.18-.49.18-.42.18-.5.11-.49.18-.5.11-.5.11-.43.1-.5.11-.57.12-.5.11-.57.04-.5.04-.57.12-.57.04-.51-.03-.5.04-.57.04-.65-.02-.58-.03-.58-.03-.58-.03-.65-.02-.51-.03-.66-.09-.66-.09-.65-.02-.59-.1-.66-.09-.73-.16-.66-.09-.59-.1-.66-.09-.73-.16-.66-.17-.73-.16-.67-.24-.66-.17-.74-.23-.74-.23-.74-.23-2.38 3.79 23.31 14.97zm53.24-82.06-19.58 32.62-3.46-2.09.36-.65.36-.5.29-.58.29-.58.29-.43.14-.29.07-.22.14-.29.07-.22.14-.29.07-.22.07-.29.07-.22.07-.22.07-.29.07-.22v-.22l.07-.22v-.22l.07-.22v-.43l.07-.14v-1.01l-.07-.22v-.14l-.07-.22v-.14l-.07-.22v-.36l-.07-.14-.07-.14-.07-.22-.07-.14-.14-.14-.07-.14-.07-.14-.14-.14-.14-.14-.07-.14-.14-.14-.14-.14-.14-.14-.14-.14-.14-.07-.14-.07-.22-.14-.14-.14-.14-.07-.22-.14-.22-.07-.14-.14-.22-.07-.22-.14-42.77-25.63-.14-.14-.22-.14-.14-.07-.22-.07-.14-.14-.22-.07-.22-.14-.14-.07-.22-.07-.14-.07-.22-.07-.14-.07-.22-.07h-.14l-.22-.07h-.22l-.14-.07h-1.01l-.22.07h-.14l-.22.07h-.14l-.22.07-.14.07-.22.07-.14.07-.22.07-.14.07-.22.07-.14.07-.14.14-.22.14-.14.07-.22.07-.14.14-.22.14-.14.14-.22.14-.14.14-.07.22-.22.14-.14.22-.22.14-.14.22-.14.22-.22.22-.14.22-.22.22-.14.22-.36.5-.36.5-.29.58-.36.5-.36.58-3.46-2.02 19.58-32.62 3.46 2.09-.36.5-.36.58-.29.58-.29.58-.29.5-.14.29-.14.22-.07.29-.14.22-.07.29-.07.22-.07.22-.14.22-.07.22-.07.22v.29l-.07.22-.07.22v.65l-.07.22v1.37l.07.22v.58l.07.14.07.07.07.22.07.14.07.14.07.22.07.14.14.14.07.14.14.14.07.14.14.14.14.14.14.14.14.14.14.14.14.07.14.14.14.14.22.07.14.14.22.14.14.07.22.07.22.14.22.07 42.7 25.63.22.14.14.14.22.07.22.14.14.14.22.07.14.07.22.14.14.07.22.07.22.07.14.07h.22l.14.07.22.07h.36l.14.07h.86l.14-.07h.22l.14-.07h.22l.14-.07.22-.07.14-.07.22-.07.14-.07.22-.07.14-.07.22-.14.14-.07.22-.14.14-.07.22-.14.14-.14.14-.14.22-.14.14-.14.14-.22.14-.14.22-.14.14-.22.14-.22.22-.14.14-.22.22-.22.14-.14.14-.22.22-.29.36-.43.29-.58.36-.5.36-.58.29-.58 3.53 2.09zm-57.77-41.54 22.9 10.94 2.02-4.46-.5-.43-.5-.36-.43-.43-.5-.43-.5-.43-.43-.36-.5-.43-.43-.43-.43-.43-.36-.36-.36-.36-.43-.43-.36-.43-.36-.43-.36-.43-.36-.36-.36-.43-.29-.43-.29-.43-.36-.43-.29-.43-.29-.29-.22-.43-.29-.43-.14-.43-.29-.43-.22-.43-.22-.43-.14-.43-.22-.43-.22-.43-.14-.43-.14-.36-.14-.43-.14-.43-.14-.43-.07-.43-.07-.43-.14-.43-.07-.43-.07-.43v-.43l-.07-.36v-.86l-.07-.43v-.43l.07-.43v-.43l.07-.43v-.5l.07-.43.07-.43.07-.36.14-.43.07-.43.14-.43.14-.5.14-.43.14-.43.14-.43.14-.43.22-.5.22-.36 50.9 23.11.22.07.22.07.22.07.22.07.14.14.22.07.22.07.14.07.22.14.14.07.14.14.14.14.14.07.14.14.14.14.14.14.14.14.07.14.14.14.07.14.14.14.07.22.07.14.07.14.07.22.07.14.07.22v.22l.07.22v.5l.07.22v1.22l-.07.22v.79l-.07.29v.22l-.07.29-.07.29-.07.29-.07.29-.07.22-.07.29-.14.36-.07.29-.14.29-.07.36-.29.65-.29.65-.29.72-.36.72-.29.65 3.67 1.73 16.92-37.22-3.74-1.58-.29.58-.29.72-.29.65-.22.58-.36.58-.14.29-.14.29-.14.29-.22.22-.14.29-.14.22-.14.22-.22.22-.14.22-.14.22-.22.14-.14.22-.14.22-.22.14-.14.22-.14.14-.22.14-.14.22-.22.14-.14.14-.14.07-.22.14-.14.14-.14.07-.14.14-.22.07-.14.07-.22.07-.14.07-.22.07-.14.07h-.22l-.14.07h-.22l-.14.07h-1.15l-.22-.07h-.14l-.22-.07h-.22l-.22-.07-.14-.07-.22-.07-.14-.07-.22-.07-.14-.14-.22-.07-.22-.14-.22-.07-50.9-23.26.14-.43.22-.43.29-.43.22-.36.22-.36.22-.43.29-.36.22-.36.29-.43.29-.36.22-.29.29-.36.29-.36.29-.29.29-.36.36-.29.29-.29.36-.22.29-.29.36-.29.36-.29.36-.22.36-.29.36-.22.29-.22.36-.22.43-.22.36-.22.43-.22.43-.14.43-.22.36-.14.43-.14.5-.14.43-.14.36-.14.43-.14.5-.07.5-.07.43-.14.5-.07.5-.07.5-.07h.94l.58-.07h.5l.5-.07h2.23l.58.07h.5l.65.07h1.15l.65.07.58.07.65.14.58.07.58.07.65.14.65.14 2.09-4.46-23.26-10.08-27.94 61.27zm35.85-63.9-3.89-1.15 10.15-33.19 3.89 1.22-.14.43-.14.5-.14.36-.07.5-.14.43-.07.43-.07.36-.07.43-.07.36v.36l-.07.36v.36l-.07.29v.36l.07.22v.5l.07.29v.22l.07.29.07.22.07.14.14.22.07.22.14.14.14.14.07.07.07.07.07.07h.07l.07.07.07.07.14.07.22.07.14.07.22.07h.14l.14.07h1.58l.29-.07h.36l.43-.07h.36l.43-.07.43-.07.43-.07.14-.07h1.08l23.18-4.46-15.91-15.12-.36-.29-.36-.36-.36-.29-.36-.22-.36-.22-.36-.29-.29-.22-.36-.22-.29-.22-.29-.14-.29-.14-.22-.14-.29-.14-.29-.14-.22-.07-.29-.07-.14-.07h-.14l-.14-.07h-.22l-.14-.07h-.65l-.14.07h-.22l-.14.07h-.14l-.07.07h-.14l-.14.07-.14.07h-.07l-.14.07-.07.07-.14.07-.14.07-.07.14-.14.07v.07l-.29.22-.22.22-.22.22-.22.29-.22.29-.22.22-.14.29-.22.36-.22.36-.22.36-.14.43-.22.43-.14.43-.22.43-.14.5-.22.5-.14.43-.22.5-3.89-1.15 7.78-25.42 3.96 1.22-.14.58-.07.58-.07.58-.07.43-.07.58-.07.5v2.02l.07.5v.43l.07.43.07.36.14.43v.22l.07.22.07.22.07.22.07.22.07.14.07.22v.22l.07.22.07.14.07.22.14.14.07.22.14.14.07.22.14.14.07.14.14.22.07.14.14.14.14.07.14.22.14.14.14.14.14.14.14.14.14.14.14.14.14.14.14.14.22.07.14.14.14.14.22.14 24.84 23.4 18 5.54.22.07.22.07.22.07.14.07.22.07h.22l.22.07.22.07h.36l.22.07h.58l.22-.07h.29l.22-.07h.14l.22-.07.14-.07.22-.07.14-.07.14-.07.22-.07.14-.07.22-.14.14-.07.14-.14.14-.07.22-.14.14-.14.14-.14.14-.14.14-.22.14-.14.22-.14.14-.22.14-.14.14-.22.14-.22.14-.22.14-.22.07-.22.14-.22.07-.29.14-.22.14-.22.14-.22.07-.29.14-.29.14-.29.14-.29.07-.29.29-.65.22-.65.22-.65.22-.72.22-.65 3.89 1.15-11.66 38.3-3.96-1.22.29-.79.22-.72.14-.65.22-.72.14-.72.07-.29.07-.36.07-.29.07-.36v-.29l.07-.29v-.29l.07-.29v-.22l.07-.29v-1.58l-.07-.29v-.43l-.07-.22v-.22l-.07-.22-.07-.22-.07-.22v-.22l-.07-.22-.14-.14-.07-.14-.07-.14-.07-.14-.14-.22-.07-.14-.07-.14-.07-.14-.14-.14-.14-.14-.14-.14-.07-.07-.22-.14-.14-.14-.14-.07-.14-.14-.14-.07-.22-.07-.14-.07-.22-.07-.22-.07-.14-.07-.22-.07-.22-.07-.22-.07h-.22l-.22-.07h-.22l-18.43-5.69-28.87 5.26-.86.14-.79.07-.79.14-.65.14-.72.14-.72.14-.72.14-.65.14-.65.22-.58.22-.5.14-.29.14-.29.07-.29.14-.29.07-.29.14-.22.07-.29.14-.22.14-.22.14-.22.07-.29.14-.22.14-.22.07-.14.14-.22.07-.22.14-.22.14-.14.14-.14.14-.14.22-.14.14-.22.14-.14.14-.14.14-.14.22-.14.14-.07.14-.14.22-.14.14-.07.14-.14.22-.07.14-.07.22-.14.14-.07.22-.07.22-.07.14-.07.22v.22l-.07.14-.07.14v.22zm-1050.67-47.86 26.57-8.14 1.37 4.32-.65.43-.65.43-.58.36-.65.43-.58.43-.58.43-.58.43-.58.36-.58.43-.5.43-.5.43-.5.43-.5.43-.5.43-.43.43-.5.43-.43.43-.43.43-.43.36-.43.5-.29.43-.43.43-.36.43-.36.43-.36.5-.36.43-.29.43-.36.43-.29.43-.29.43-.29.43-.29.5-.22.43-.22.5-.22.43-.22.5-.14.43-.22.43-.22.43-.14.43-.14.5-.14.5-.14.43-.07.5-.14.43-.07.5-.07.5-.07.43-.07.43v.5l-.07.43v1.94l.07.5v.5l.07.43.07.5.07.43.14.5.07.5.14.5.14.5.14.36.07.43.14.36.14.29.22.36.14.36.14.36.14.29.14.36.14.29.14.36.14.29.22.29.14.29.22.29.14.29.22.29.22.22.14.22.22.22.22.22.22.29.22.22.22.22.22.22.22.14.22.22.22.22.22.14.29.14.22.22.14.14.29.14.22.14.29.07.22.14.29.14.22.07.29.14.29.07.22.07.29.07.29.07.29.07.29.07h.29l.29.07h.29l.22.07h1.87l.36-.07h.29l.36-.07.29-.07.36-.07h.36l.29-.07.29-.14.36-.07.22-.07.22-.07.22-.07.22-.07.14-.14.22-.07.22-.14.14-.14.22-.07.14-.14.22-.14.14-.22.22-.14.14-.14.14-.22.22-.14.14-.22.14-.22.14-.22.14-.22.14-.22.14-.22.14-.29.07-.14.14-.29.14-.29.14-.22.07-.29.14-.29.14-.36.07-.29.14-.29.14-.36.07-.29.14-.36.07-.36.07-.36.14-.29.07-.36.07-.36.07-.43.14-.36.07-.43.07-.36.07-.43.07-.43.14-.86.07-.86.14-.94.07-.94.07-1.01.07-1.08.07-1.01.07-1.08v-1.15l.07-.72v-.72l.07-.79.07-.72.07-.72v-.72l.07-.72.07-.72.14-.65.07-.65.07-.72.07-.65.14-.65.07-.65.14-.65.14-.5.07-.65.07-.58.14-.58.14-.58.14-.58.14-.58.14-.5.22-.5.14-.58.22-.5.14-.5.22-.5.22-.5.14-.43.22-.5.22-.43.22-.36.22-.43.22-.43.29-.43.22-.43.22-.36.29-.43.22-.36.22-.36.29-.36.29-.36.29-.22.22-.36.36-.29.29-.29.29-.29.29-.29.36-.29.29-.29.29-.22.36-.22.36-.29.36-.22.22-.22.36-.14.36-.22.36-.14.43-.22.36-.14.36-.14.36-.14.43-.07.72-.14.65-.14.58-.14.72-.14.65-.07.65-.07.65-.14.65-.07h.65l.58-.07h.58l.65-.07h.58l.58.07h1.22l.5.07.58.07.58.07.58.07.5.14.58.14.5.07.58.14.43.22.5.07.5.22.5.22.5.22.5.22.5.22.43.29.5.22.43.29.43.29.43.36.43.29.43.36.43.36.43.36.43.36.36.29.43.43.36.43.43.43.29.43.36.43.36.5.36.5.36.5.36.5.36.43.29.58.36.5.29.58.36.58.29.58.29.65.22.65.29.5.29.65.29.72.22.65.29.65.14.5.14.5.07.43.14.43.07.43.14.5.07.5.07.43.07.5.07.5.07.43.07.5v.43l.07.43v3.38l-.07.5v.43l-.07.5-.07.5-.07.5-.07.43-.07.5-.07.5-.14.5-.07.5-.14.43-.07.65-.07.58-.07.58-.07.43v.94l.07.14v.22l.07.07v.14l.07.07.07.07v.14l.07.07.07.07.07.07h.07l.07.14.07.07.14.07.07.07.14.07.07.07.14.07.22.14.29.14.29.14.29.07.36.14.29.14.36.07.36.07.22.07h.22l.22.07.22.07.14.07h.14l.14.07.14.07 1.22 3.89-23.83 7.34-1.22-3.96.58-.29.58-.36.5-.36.58-.36.5-.43.58-.36.43-.36.43-.36.5-.43.5-.36.43-.36.5-.36.43-.36.43-.36.43-.36.36-.43.43-.36.29-.43.36-.36.36-.43.36-.36.36-.36.36-.43.29-.43.29-.29.36-.43.29-.36.22-.43.29-.36.29-.43.22-.43.14-.36.22-.43.22-.43.22-.36.22-.36.14-.43.22-.43.14-.43.14-.36.14-.43.07-.43.14-.43.07-.43.14-.43.07-.43.07-.36v-.36l.07-.43.07-.43v-2.23l-.07-.43v-.43l-.07-.36-.07-.43-.07-.43-.07-.5-.07-.43-.14-.43-.14-.43-.07-.36-.14-.36-.14-.36-.14-.29-.14-.29-.07-.29-.14-.36-.14-.29-.14-.29-.22-.29-.14-.29-.14-.29-.07-.29-.14-.22-.14-.29-.22-.22-.14-.29-.14-.22-.22-.22-.14-.22-.22-.22-.14-.14-.22-.22-.22-.22-.14-.14-.22-.22-.22-.14-.14-.22-.22-.14-.22-.14-.22-.14-.22-.14-.22-.14-.22-.14-.22-.14-.22-.07-.14-.14-.22-.07-.22-.07-.29-.14-.22-.07-.22-.07-.29-.07h-.22l-.22-.07-.29-.07h-.22l-.29-.07h-.29l-.22-.07h-1.3l-.29.07h-.29l-.29.07h-.29l-.29.07-.29.07h-.29l-.29.07-.29.07-.22.07-.22.14-.22.07-.22.07-.22.14-.22.07-.22.14-.14.07-.14.14-.22.14-.14.14-.22.22-.14.14-.22.14-.14.22-.22.14-.14.22-.14.22-.14.22-.22.14-.14.22-.14.22-.14.22-.14.29-.14.22-.14.29-.14.29-.07.29-.14.29-.14.29-.07.29-.14.29-.14.36-.07.29-.14.36-.07.22-.07.36-.14.36-.07.36-.07.36-.07.43-.14.36v.36l-.07.43-.07.43-.07.43-.07.36v.36l-.07.43-.07.5-.07.86-.14 1.01-.07.94v.94l-.07 1.08-.07 1.01v1.15 1.51l-.07.79v.72l-.07.79-.07.72v.72l-.07.65-.07.72-.07.72-.14.72-.07.65-.07.72-.14.58-.07.65-.14.65-.14.65-.14.58-.07.65-.22.58-.14.58-.14.58-.14.5-.22.58-.14.58-.22.5-.22.58-.14.5-.22.5-.22.43-.22.5-.22.43-.22.5-.29.43-.22.43-.29.43-.22.43-.29.43-.29.43-.29.36-.29.36-.29.36-.36.36-.29.36-.36.29-.29.36-.29.29-.36.36-.29.29-.36.29-.36.29-.43.29-.36.22-.36.29-.43.14-.36.22-.43.22-.43.22-.29.22-.43.14-.43.22-.5.14-.43.14-.43.14-.65.14-.65.14-.65.14-.5.14-.65.07-.58.07-.65.07-.58.07h-.58l-.65.07h-1.66l-.58-.07h-.58l-.5-.07-.58-.07-.58-.07-.5-.07-.43-.14-.58-.14-.5-.14-.5-.14-.5-.14-.5-.14-.5-.22-.5-.22-.5-.22-.43-.22-.43-.22-.5-.29-.5-.22-.43-.29-.43-.29-.5-.29-.43-.36-.43-.29-.43-.36-.36-.36-.43-.43-.43-.36-.36-.43-.43-.43-.36-.43-.43-.36-.36-.43-.43-.5-.36-.5-.36-.5-.29-.5-.36-.5-.36-.58-.36-.58-.36-.43-.29-.65-.36-.58-.36-.58-.29-.65-.36-.65-.29-.65-.29-.58-.29-.72-.29-.65-.29-.72-.14-.5-.14-.58-.14-.5-.14-.5-.07-.5-.14-.5-.14-.5-.07-.58-.14-.5-.07-.58-.07-.5-.14-.58-.07-.43-.07-.58-.07-.58-.07-.5-.07-.58v-.58l-.07-.5v-.58l-.07-.5v-1.08l-.07-.58v-2.3l.07-.58v-1.08l.07-.58.07-.79v-.36l.07-.29v-2.09l-.07-.22v-.22l-.07-.14v-.14l-.07-.14-.07-.14v-.07l-.07-.14-.07-.14-.07-.07-.07-.14-.14-.07-.07-.14-.07-.07-.14-.07-.14-.14-.07-.07-.14-.07-.14-.14-.14-.07-.14-.07-.22-.07-.14-.14-.14-.07-.22-.07-.14-.07-.14-.07-.22-.07-.43-.14-.43-.14-.5-.14-.5-.07-.5-.22-1.22-3.96zm58.68 65.88-.86.43-.86.43-.94.43-.86.43-.86.5-.72.43-.79.43-.79.43-.79.43-.79.36-.72.43-.65.43-.72.5-.65.43-.65.43-.65.43-.65.43-.65.5-.5.43-.58.36-.58.43-.5.5-.5.43-.5.43-.5.5-.5.43-.43.43-.36.5-.43.43-.36.43-.36.43-.36.43-.36.5-.29.43-.36.5-.29.43-.22.5-.29.43-.22.5-.22.36-.22.5-.07.22-.07.22-.07.29-.07.22v.22l-.07.29-.07.22-.07.22-.07.22-.07.29v.22l-.07.22v.29l-.07.22v.43l-.07.22v1.66l.07.29v.5l.07.22v.22l.07.29v.22l.07.22.07.29.07.22.07.43.07.5.22.5.14.43.22.5.22.5.22.5.22.43.29.5.22.36.14.22.14.14.14.22.14.22.14.22.14.22.14.14.14.22.14.14.14.22.14.14.22.22.14.14.14.14.22.22.14.14.14.14.14.14.14.14.22.14.22.14.14.14.22.14.22.14.14.14.22.07.22.14.22.07.22.07.22.14.22.07.22.07.22.14.22.07.22.07.22.07.29.14.22.07.43.14.43.14.5.07.58.14.5.07.5.07.58.07.58.07h2.88l.65-.07.65-.07.65-.07.58-.07.65-.07.72-.14.65-.07.72-.14.72-.14.72-.22.72-.14.72-.22.79-.22.72-.14.79-.29.79-.22.79-.29.79-.29.86-.29.79-.36.86-.29.79-.36.86-.36.94-.36.86-.36.94-.43.86-.43.94-.36.94-.43.86-.43.94-.43.79-.43.86-.43.86-.43.79-.5.79-.43.79-.43.72-.36.72-.43.72-.43.72-.5.72-.43.65-.43.58-.43.65-.43.65-.5.58-.43.58-.43.58-.36.5-.5.58-.43.43-.43.5-.5.43-.43.5-.43.43-.43.36-.5.43-.43.36-.36.36-.5.36-.43.29-.5.29-.43.29-.43.22-.5.29-.43.22-.43.22-.5.22-.36.07-.29.07-.22.07-.22.14-.22.07-.22v-.29l.07-.22.07-.22.07-.22.07-.29v-.22l.07-.22v-.22l.07-.29v-.43l.07-.22v-1.58l-.07-.22v-.5l-.07-.22v-.22l-.07-.29-.07-.22v-.22l-.07-.29-.07-.22-.07-.22-.07-.22-.07-.29-.07-.14-.14-.5-.22-.43-.22-.5-.22-.43-.22-.5-.29-.5-.22-.43-.22-.43-.29-.43-.29-.36-.14-.22-.14-.14-.14-.22-.14-.22-.22-.14-.14-.22-.14-.14-.22-.22-.14-.14-.14-.22-.22-.14-.14-.14-.22-.14-.14-.22-.22-.14-.22-.14-.14-.14-.22-.14-.22-.14-.22-.07-.14-.14-.14-.14-.22-.14-.22-.07-.22-.14-.22-.07-.22-.14-.22-.07-.22-.07-.29-.07-.22-.07-.22-.14-.22-.07-.29-.07-.43-.14-.5-.14-.5-.14-.5-.07-.5-.14-.5-.07-.58-.07h-.58l-.58-.07h-2.95l-.65.07-.65.07-.65.07-.72.07-.58.14-.72.14-.65.07-.72.22-.72.14-.79.14-.72.14-.72.22-.72.22-.79.22-.79.29-.79.22-.79.29-.79.29-.86.36-.86.29-.79.36-.94.36-.79.36-.86.36-.94.43-.86.29-.94.43zm-8.28-17.78-.94.58-.79.58-.86.58-.86.5-.43.29-.36.29-.43.29-.43.36-.36.29-.36.22-.36.29-.36.29-.43.29-.36.29-.36.36-.36.29-.36.29-.36.29-.36.36-.29.29-.36.36-.29.29-.29.29-.36.36-.29.22-.29.36-.36.29-.29.36-.29.36-.29.29-.29.36-.29.29-.29.36-.22.36-.29.36-.29.29-.22.36-.22.29-.22.36-.29.36-.22.29-.22.36-.22.36-.22.36-.22.36-.22.36-.22.36-.22.36-.22.36-.14.36-.22.36-.14.36-.22.36-.14.36-.22.36-.14.43-.14.36-.14.36-.14.43-.14.36-.14.36-.07.43-.07.29-.14.43-.14.36-.07.43-.14.36-.07.43-.14.36-.07.43-.07.36-.07.43-.07.43-.07.36-.07.36-.07.43-.07.43v.43l-.07.36-.07.43v.86l-.07.43v1.22l-.07.43v.43l.07.43v1.3l.07.5v.86l.07.36.07.5v.43l.07.43.07.5.07.43.07.43.07.5.07.43.07.5.07.36.14.5.07.43.14.5.07.43.14.5.07.5.14.43.07.5.14.43.14.5.29.94.29 1.01.36 1.01.36.94.5.86.58.86.5.86.58.86.29.43.29.36.22.36.29.43.29.36.29.43.29.36.29.36.29.36.29.43.29.36.29.36.29.36.36.29.29.36.29.29.29.36.29.29.29.36.29.29.36.36.29.29.36.29.29.29.36.29.29.29.36.29.29.29.36.29.36.29.29.22.36.22.29.29.29.22.36.29.36.22.36.22.36.29.29.22.36.22.36.22.36.22.36.22.36.14.36.22.29.22.36.14.36.22.43.14.36.22.36.14.36.07.36.22.43.14.36.14.36.14.43.14.29.14.36.07.43.14.36.14.43.07.36.14.43.07.36.07.43.14.36.07.43.07.36.07.36.07.43.07.43.07.36.07.43.07h.43l.43.07h.43l.43.07h.43l.36.07h3.46l.43-.07h.86l.43-.07.43-.07h.43l.5-.07.43-.07h.5l.43-.07.43-.07.5-.07.36-.14.5-.07.43-.07.5-.07.5-.14.43-.07.5-.14.43-.07.5-.14.43-.14.94-.22 1.01-.29 1.01-.36 1.01-.22.94-.36.86-.58.86-.58.94-.5.79-.65.79-.58.79-.58.79-.58.36-.22.43-.36.36-.29.36-.29.36-.29.36-.36.36-.29.29-.29.36-.36.36-.29.29-.36.36-.29.36-.36.29-.29.29-.29.36-.29.29-.36.29-.29.29-.36.36-.36.29-.29.22-.36.22-.36.29-.29.29-.36.29-.36.22-.36.29-.36.22-.22.29-.36.22-.36.22-.36.29-.36.22-.36.22-.36.22-.36.22-.36.22-.36.14-.36.22-.36.22-.36.07-.36.22-.36.14-.36.22-.36.14-.43.14-.36.22-.36.14-.43.14-.36.14-.36.14-.43.07-.29.14-.43.14-.36.14-.43.07-.36.14-.43.07-.36.14-.43.07-.36.07-.43.07-.43.07-.36.07-.36.07-.43.07-.43.07-.36.07-.43.07-.43v-.43l.07-.43v-.43l.07-.36v-.79l.07-.43v-2.66l-.07-.43v-.79l-.07-.5v-.43l-.07-.43v-.43l-.07-.5-.07-.43-.07-.43-.07-.5-.07-.43-.07-.43-.07-.43-.07-.5-.07-.43-.14-.5-.07-.43-.14-.5-.07-.43-.14-.5-.22-.86-.29-1.01-.29-.94-.29-1.01-.29-1.01-.58-.79-.43-.86-.58-.86-.29-.43-.29-.43-.29-.43-.29-.36-.29-.43-.29-.29-.29-.43-.29-.36-.29-.43-.29-.36-.36-.36-.29-.36-.22-.36-.29-.36-.36-.36-.29-.36-.29-.36-.36-.29-.29-.29-.29-.36-.36-.29-.29-.36-.36-.29-.29-.29-.36-.29-.29-.36-.36-.29-.29-.29-.29-.29-.36-.29-.36-.22-.29-.29-.36-.29-.36-.14-.36-.29-.29-.22-.36-.29-.36-.22-.36-.22-.36-.29-.29-.22-.36-.22-.36-.22-.36-.22-.36-.22-.36-.14-.36-.22-.36-.22-.43-.14-.36-.22-.36-.14-.36-.22-.36-.14-.36-.14-.36-.22-.43-.07-.36-.14-.36-.14-.43-.14-.36-.07-.43-.14-.36-.14-.43-.14-.36-.07-.36-.14-.43-.07-.36-.07-.43-.14-.43-.07-.36-.07-.43-.07-.43-.07-.43-.07-.43-.07-.43-.07-.29-.07h-.43l-.43-.07-.43-.07h-.86l-.43-.07h-3.96l-.43.07h-.94l-.43.07-.5.07h-.36l-.5.07-.43.07-.5.07-.43.07-.5.07-.43.07-.5.07-.5.07-.36.07-.5.14-.5.07-.5.14-.43.07-1.01.29-1.01.22-.94.29-1.01.22-1.01.36-1.01.29zm62.3 47.58 18.25 31.96-3.51 1.94-.32-.6-.39-.6-.33-.53-.33-.53-.26-.52-.2-.23-.2-.23-.13-.22-.2-.23-.13-.23-.2-.23-.21-.16-.13-.22-.21-.16-.13-.22-.21-.16-.13-.15-.21-.16-.21-.16-.13-.15-.21-.16-.14-.15-.21-.09-.21-.16h-.14s-.21-.09-.21-.09l-.14-.08-.14-.08-.14-.08-.21-.09-.14-.08-.21-.08h-.22s-.14-.09-.14-.09h-.22s-.14-.02-.14-.02l-.21-.09h-.14s-.22-.02-.22-.02l-.15.06h-.22s-.22-.03-.22-.03l-.15.06h-.22s-.15.05-.15.05l-.22.06h-.14s-.22.05-.22.05l-.15.06-.22.06-.15.13h-.22s-.15.05-.15.05l-.15.13-.15.13-.22.06-.15.13-.23.13-.15.13-37.28 21.3-.31.27-.37.19-.31.27-.3.2-.31.27-.31.27-.3.2-.31.27-.31.27-.23.2-.3.2-.23.27-.23.27-.16.28-.23.27-.23.27-.16.28-.23.27-.16.28-.23.27-.16.28-.16.28-.16.28-.16.28-.09.35-.16.21-.16.28-.09.28-.09.35-.09.28-.09.35-.09.28-.09.28-.09.35-.02.29-.09.35-.02.36-.02.29-.02.36-.02.29-.02.29-.02.36.05.36-.02.36.05.29-.02.36.05.36.05.36.05.36.12.37.05.36.05.36.12.3.12.37.05.36.12.37.12.44.12.37.19.37.12.37.19.44.12.37.19.37.19.45.19.37.33.53.26.45.33.45.26.45.34.38.26.45.34.38.34.38.26.38.34.38.34.38.35.24.26.38.27.31.34.31.35.24.34.31.35.24.34.31.35.24.35.24.42.24.35.17.35.24.35.17.35.17.35.17.35.09.42.17.35.09.42.17.35.09.43.1.36.02.43.1.36.02.43.03.36.02.43.03.36.02.44-.04.43.03.44-.04.44-.04.44-.04.44-.12.44-.04.44-.12.37-.12.44-.12.44-.12.52-.18.44-.12.44-.19.45-.19.52-.18.44-.19.52-.18.38-.26.52-.26.45-.26.52-.25.45-.26 33.01-18.83.22-.06.15-.13.22-.06.22-.13.15-.06.23-.13.15-.06.15-.13.15-.13.15-.06.15-.13.15-.13.08-.14.15-.13.08-.14.15-.06.09-.21.08-.14.15-.13.08-.21.08-.14.08-.14.09-.21.09-.21.08-.14v-.21s.1-.21.1-.21v-.22s.09-.14.09-.14v-.21s.03-.22.03-.22l.02-.29.09-.21v-.22s-.04-.22-.04-.22v-.22s.03-.29.03-.29v-.22s-.04-.22-.04-.22v-.21s-.04-.29-.04-.29l-.06-.22.02-.29-.05-.29-.05-.29-.05-.29-.05-.29-.13-.3-.05-.29-.05-.29-.13-.3-.05-.29-.18-.66-.18-.59-.25-.67-.32-.67-.31-.74-.32-.67 3.52-2.01 13.26 23.06-3.51 1.94-.4-.53-.4-.46-.4-.46-.4-.46-.41-.39-.4-.46-.41-.39-.21-.16-.21-.16-.13-.15-.21-.16-.21-.16-.13-.15-.21-.16-.13-.15-.21-.16-.21-.08-.21-.16-.21-.09-.14-.08-.21-.08-.21-.16-.21-.09-.14-.08h-.22s-.21-.1-.21-.1l-.14-.08h-.21s-.21-.1-.21-.1h-.14s-.21-.09-.21-.09h-.22s-.14-.02-.14-.02h-.22s-.14-.02-.14-.02h-.14s-.22-.02-.22-.02h-.14s-.22.05-.22.05h-.14s-.22.05-.22.05h-.14s-.22.05-.22.05l-.15.06-.22.06-.15.06-.22.06-.15.06-.22.06-.15.13-.15.06-.22.13-.15.06-.22.13-.15.13-.15.06-.22.13-32.27 18.52-.6.32-.67.32-.53.33-.59.25-.67.32-.59.25-.59.25-.59.25-.66.18-.52.18-.59.18-.59.18-.59.18-.58.11-.58.11-.58.11-.58.04-.51.04-.58.11-.29-.02-.29-.02-.29.05-.29-.02-.29-.02h-.21s-.29-.03-.29-.03l-.29-.02-.29-.02-.29-.02-.29-.02-.29-.02-.28-.09h-.14s-.28-.1-.28-.1l-.29-.02-.28-.09-.29-.02-.28-.09-.21-.09-.29-.02-.28-.09-.28-.09-.28-.09-.21-.08-.28-.09-.28-.09-.28-.16-.49-.18-.49-.25-.49-.25-.48-.32-.56-.25-.48-.32-.56-.32-.48-.39-.48-.32-.41-.39-.55-.4-.48-.32-.48-.46-.48-.46-.48-.46-.48-.46-.47-.54-.48-.46-.4-.53-.47-.61-.47-.53-.47-.54-.47-.61-.47-.61-.46-.68-.39-.6-.46-.68-.46-.75-.39-.6-.39-.75-.46-.75-.39-.75-.39-.67-.39-.75-.31-.74-.39-.6-.31-.74-.32-.67-.25-.66-.25-.66-.24-.74-.32-.67-.18-.59-.25-.66-.25-.59-.17-.66-.17-.66-.18-.59-.1-.66-.18-.52-.1-.66-.11-.58-.11-.58-.04-.58-.11-.58-.04-.58-.04-.58-.04-.51.04-.57.03-.5-.04-.58.11-.57.03-.5.03-.5.11-.57.1-.43.1-.5.18-.49.1-.5.18-.49.18-.49.17-.42.25-.49.18-.49.24-.42.24-.42.24-.42.31-.41.24-.42.31-.41.32-.48.38-.34.31-.41.31-.41.39-.41.38-.34.38-.34.46-.4.38-.34.45-.33.53-.4.45-.33.53-.33.45-.33.45-.33 35.92-20.45.15-.13.22-.06.22-.13.22-.13.15-.06.08-.14.22-.06.15-.06.15-.13.15-.13.15-.13.15-.13.15-.13.15-.13.08-.14.15-.13.08-.14.15-.13.08-.14.08-.14.09-.21.08-.14.08-.14.08-.14.09-.21v-.14s.09-.21.09-.21v-.14s.09-.21.09-.21v-.14s.02-.21.02-.21l.08-.14v-.22s.03-.21.03-.21l-.06-.15v-.14s.02-.22.02-.22l-.06-.22v-.21s-.04-.22-.04-.22v-.21s-.04-.22-.04-.22l-.06-.22-.06-.22-.06-.22-.06-.22-.06-.22-.06-.22-.13-.3-.06-.22-.13-.22-.05-.29-.13-.22-.13-.3-.26-.38-.25-.59-.33-.53-.18-.52-.4-.6 3.52-2.01zm40.66 66.82-19.37 16.42 3.24 3.67.58-.29.58-.29.58-.29.58-.29.58-.22.58-.22.5-.29.58-.22.5-.22.58-.22.58-.22.5-.14.58-.22.5-.14.5-.14.5-.14.5-.14.5-.14.5-.07.5-.14.5-.07.5-.07.5-.07.43-.07.5-.07h.5l.43-.07h2.38l.43.07h.36l.5.07.43.07.43.07.43.07.43.14.43.07.43.14.43.14.36.14.36.14.43.14.36.14.43.22.36.22.43.22.36.22.36.22.43.22.36.22.36.29.36.22.29.29.36.29.36.29.36.29.29.36.36.29.36.36.29.36.36.36-42.05 37.01-.14.14-.14.22-.14.07-.22.14-.14.14-.14.14-.14.14-.14.14-.14.07-.14.14-.14.07-.22.07-.14.14-.22.07-.14.07-.14.07h-.22l-.22.07h-.14l-.22.07h-1.3l-.22-.07h-.22l-.22-.07-.14-.07-.22-.07-.14-.07-.22-.07-.22-.07-.22-.07-.22-.14-.22-.07-.22-.14-.22-.14-.22-.14-.22-.14-.22-.14-.29-.07-.22-.14-.22-.22-.22-.14-.29-.22-.22-.22-.22-.14-.22-.22-.29-.29-.14-.22-.29-.22-.5-.5-.43-.5-.58-.58-.5-.58-.5-.58-3.02 2.66 26.93 30.67 3.1-2.66-.58-.58-.43-.58-.5-.5-.36-.58-.36-.5-.22-.29-.22-.22-.14-.22-.14-.22-.22-.29-.14-.22-.14-.22-.14-.29-.14-.22-.07-.22-.14-.29-.14-.22-.07-.22-.14-.22-.07-.29-.07-.22-.07-.22-.07-.22-.07-.22-.07-.22v-.22l-.07-.22v-.14l-.07-.14v-1.22l.07-.22v-.14l.07-.22v-.14l.07-.22.07-.14.07-.22.07-.14.07-.14.07-.22.07-.14.14-.14.07-.22.14-.14.14-.14.07-.14.14-.14.14-.14.22-.07.14-.14.14-.14.22-.14.14-.14.22-.14 41.98-37.01.29.36.29.43.36.36.29.36.22.29.29.43.29.36.22.43.22.36.22.43.22.36.22.43.14.36.22.43.14.43.07.36.14.36.14.43.14.43.07.43.14.43.07.36.07.43.07.5.07.43v.43l.07.36v2.23l-.07.5-.07.43v.43l-.07.5-.07.36-.14.5-.07.5-.14.43-.07.5-.14.5-.14.43-.07.5-.22.5-.14.5-.22.43-.22.5-.22.5-.22.5-.22.5-.22.5-.29.5-.29.5-.29.5-.29.5-.29.5-.29.5-.36.58-.29.5-.36.5-.29.58-.36.5-.36.5 3.17 3.74 18.79-17.06-44.5-50.62zm45.43 95.98 17.78 15.05 13.46-15.84.14-.22.14-.14.14-.14.14-.22.14-.14.07-.14.14-.22.07-.14.14-.22.07-.14.14-.14.07-.22.07-.14.07-.14.07-.14.07-.14.07-.22.07-.14v-.22l.07-.14v-.14l.07-.22v-1.37l-.07-.22v-.14l-.07-.22v-.14l-.07-.22-.07-.14-.07-.14-.07-.22-.07-.14-.07-.14-.07-.14-.14-.22-.07-.14-.14-.22-.07-.14-.14-.22-.07-.14-.14-.22-.07-.14-.22-.22-.14-.14-.14-.22-.14-.14-.14-.22-.36-.36-.43-.36-.36-.36-.5-.36-.43-.36 2.66-3.1 28.01 23.83-2.66 3.1-.5-.43-.5-.43-.5-.43-.5-.29-.36-.36-.29-.14-.22-.14-.22-.22-.22-.14-.29-.14-.22-.07-.22-.14-.22-.14-.22-.07-.22-.14-.22-.07-.22-.07-.22-.14-.22-.07-.22-.07-.22-.07h-.22l-.14-.07-.22-.07h-.22l-.14-.07h-.36l-.22-.07h-.36l-.22.07h-.36l-.14.07h-.22l-.14.07h-.22l-.14.07-.14.07-.22.07-.14.07-.14.07-.22.07-.14.14-.14.07-.14.14-.14.07-.14.14-.22.14-.14.14-.14.14-.07.14-.14.14-.14.14-.07.22-.14.14-.14.22-.14.07-32.33 38.02-.14.14-.22.14-.14.22-.14.14-.14.14-.14.22-.07.14-.14.14-.14.22-.07.14-.07.14-.14.22-.07.14-.07.14-.07.14-.07.14v.22l-.07.14-.07.22v.14l-.07.22v1.22l.07.22v.14l.07.22v.22l.07.14.07.22.07.22.07.14.07.22.14.22.07.14.07.14.14.22.07.22.14.14.14.22.14.22.14.22.14.14.14.22.22.22.14.22.22.22.14.22.22.22.22.14.43.43.36.43.5.43.5.36.5.43-2.59 3.17-28.01-23.83 2.59-3.1.43.36.43.36.43.29.43.29.43.36.14.14.22.07.22.14.22.14.22.07.22.14.14.07.22.14.22.07.07.07.22.07.22.07.22.07.14.07.22.07h.14l.22.07.22.07h.36l.14.07h.72l.22-.07h.29l.22-.07h.14l.22-.07h.14l.14-.07.22-.07.07-.07.14-.07.14-.07.22-.07.14-.14.14-.07.14-.07.14-.14.22-.07.14-.14.14-.14.14-.14.14-.14.14-.14.14-.14.14-.14.14-.14.14-.22.14-.07.14-.22 15.84-18.65-17.71-15.12-15.84 18.65-.14.22-.14.14-.14.14-.14.22-.14.14-.14.14-.14.22-.07.14-.14.14-.07.22-.07.14-.14.14-.07.14-.07.14-.07.22-.07.14-.07.22v.14l-.07.14-.07.22v.36l-.07.14v1.08l.07.14v.36l.07.14.07.22v.14l.07.22.07.14.07.14.07.14.07.22.14.14.07.22.07.14.14.22.07.14.14.22.14.14.14.22.14.14.14.22.14.14.14.22.14.14.22.22.36.36.36.36.36.36.43.36.43.29-2.59 3.17-27.72-23.62 2.59-3.1.5.5.5.36.5.36.43.36.5.36.22.14.22.14.22.14.22.14.22.14.22.07.22.14.22.14.14.07.22.07.22.14.22.07.22.07.22.07.22.07.14.07.22.07h.22l.22.07h.14l.22.07h1.3l.22-.07h.14l.14-.07h.14l.14-.07.22-.07.14-.07.14-.07.14-.07.22-.07.14-.07.14-.14.14-.07.14-.14.22-.07.14-.14.14-.14.14-.14.14-.14.14-.14.14-.14.14-.14.14-.22.14-.14.07-.22.14-.22 32.33-37.87.22-.14.14-.22.07-.14.14-.14.14-.14.14-.22.14-.14.07-.14.14-.22.07-.14.14-.14.07-.22.07-.14.07-.14.07-.22.07-.14.07-.14.07-.14v-.14l.07-.22v-.14l.07-.22v-1.08l-.07-.14v-.22l-.07-.14v-.22l-.07-.14-.07-.22-.07-.22-.07-.14-.07-.22-.07-.22-.07-.14-.07-.22-.14-.14-.07-.14-.14-.22-.14-.14-.14-.22-.14-.22-.14-.22-.07-.14-.14-.22-.14-.22-.22-.22-.14-.14-.22-.22-.22-.22-.36-.43-.43-.36-.5-.43-.43-.43-.58-.36 2.74-3.1 27.65 23.54-2.66 3.1-.43-.36-.43-.36-.43-.36-.43-.29-.29-.29-.22-.14-.22-.14-.22-.07-.22-.14-.22-.14-.14-.07-.22-.14-.22-.07-.22-.07-.14-.07-.22-.07-.22-.07-.14-.07-.22-.07-.22-.07-.14-.07h-.22l-.14-.07h-.43l-.14-.07h-.79l-.22.07h-.36l-.14.07-.14.07h-.22l-.14.07-.14.07-.22.07-.14.07-.14.07-.14.07-.22.07-.14.14-.14.07-.14.14-.14.07-.22.14-.14.14-.14.14-.14.14-.14.14-.14.14-.14.14-.07.07-.14.22-.14.14-.14.22-13.54 15.91zm93.17 29.74-2.16 3.53.22.14.14.07h.14l.14.14.22.07.14.14.14.07.14.14.14.07.14.14.07.14.14.07.14.14.14.14.07.14.14.14.07.14.14.14.07.14.07.14.14.14.07.14.07.14.07.14.07.22v.14l.07.14.07.22.07.14.07.22v.14l.07.22.07.14v.22l.07.14v.14l.07.22v.22l.07.43v1.8l-.07.43-.07.5-.07.5-.07.43-.14.58-.07.5-.14.58-.07.58-1.58 5.76-24.12 20.3 9.29-35.42.14-.22.07-.22.14-.22.14-.29.07-.29.14-.36.07-.36.14-.29.14-.43.14-.36.07-.36.14-.29.07-.29.14-.22.14-.22.07-.22.14-.29.14-.22.14-.22.07-.07.07-.14.07-.07.07-.07.07-.07.14-.07.07-.14.07-.07.14-.07.07-.07.14-.07.07-.07h.07l.14-.07.14-.07h.22l.07-.07h.29l.07-.07h.79l.29.07.29.07.29.07.36.07.29.07.29.14.36.14.29.14.36.14.36.22.36.14.36.22.43.29.36.22.43.29 2.02-3.53-27.58-16.63-2.16 3.6.14.07.22.14.14.07.14.14.22.14.14.07.14.07.14.14.14.14.14.14.14.14.07.14.14.14.14.14.07.14.14.14.07.14.07.14.07.22.14.14.07.14.07.22.07.14.07.22.07.14.07.22.07.22.07.14.07.22.07.22v.14l.07.22.07.22v.36l.07.22v.43l.07.29v1.15l-.07.5v.5l-.07.5-.07.58-.07.43-.14.58-.14.58-.14.58-.14.58-.14.65-16.13 57.89 7.34 4.46 35.86-30.46-12.02 44.71 7.06 4.18 48.74-40.75.36-.36.43-.36.29-.29.43-.36.36-.22.43-.29.36-.22.43-.22.22-.14.14-.07.22-.07.22-.14.22-.07.14-.07h.22l.22-.07.22-.07h.14l.22-.07.14-.07h.22l.14-.07h.22l.22-.07h.58l.22-.07h.58l.22.07h.58l.22.07h.14l.22.07.22.07h.14l.22.07.22.07.14.07h.14l.22.07.22.07.14.07.22.07.22.14.14.07.22.07.22.14.36.22.43.29 2.02-3.53-21.67-12.96-2.09 3.46.5.29.5.36.36.29.43.29.43.29.36.29.36.36.36.29.36.29.29.22.29.29.29.36.22.29.22.29.14.14.07.14.07.14.14.14.07.14.07.14.07.14.07.14.07.14v.36l.07.14v.14l.07.14v.29l.07.14v.79l-.07.14v.29l-.07.14-.07.14v.29l-.07.14-.07.14-.07.14-.07.14-.07.14-.07.14-.07.29-.14.29-.14.29-.14.29-.22.29-.14.22-.22.29-.22.22-.22.22-.22.22-.22.22-.22.22-.29.22-.22.14-.29.22-.29.22-27.29 23.18 8.5-31.61.14-.43.14-.36.07-.29.07-.22v-.14h-.07v.07l-.07.14.36-1.37.36-1.22.14-.58.22-.58.14-.5.14-.43.14-.43.14-.36.14-.36.14-.36.07-.29.14-.22.14-.29.07-.14.07-.14.07-.07.07-.14.07-.07.07-.07.07-.14.14-.07.07-.07.07-.07.07-.07.14-.07.07-.07.14-.07h.07l.07-.07.14-.07h.14l.07-.07.14-.07h.14l.14-.07h.29l.22-.07h.29l.29.07h.36l.29.07h.36l.29.07.36.14.36.07.36.14.43.14.29.14.43.14.43.22.43.22.43.22.43.22.43.29.5.22.5.29 2.02-3.53-29.02-17.42zm120.31 59.47-8.78 24.26-4.18-1.73.07-.65.07-.72.07-.65v-.58l.07-.65v-3.67l-.07-.58-.07-.65v-.58l-.07-.58-.07-.58-.14-.5-.07-.58-.07-.5-.14-.5-.14-.58-.14-.5-.14-.5-.14-.5-.14-.5-.14-.5-.14-.5-.22-.43-.22-.43-.22-.5-.22-.43-.22-.5-.22-.43-.29-.43-.29-.43-.22-.43-.29-.43-.29-.29-.36-.43-.29-.43-.29-.36-.36-.36-.36-.43-.29-.36-.36-.36-.36-.36-.36-.29-.43-.36-.36-.36-.43-.29-.43-.29-.43-.29-.43-.29-.43-.29-.36-.29-.5-.29-.5-.29-.43-.29-.5-.29-.5-.22-.58-.22-.5-.29-.58-.22-.43-.22-.58-.29-.5-.22-.5-.22-.43-.14-.5-.14-.22-.07-.29-.07-.22-.07-.22-.07h-.22l-.22-.07-.22-.07h-.22l-.14-.07h-1.73l-.14.07h-.22l-.14.07h-.14l-.22.07-.14.07h-.14l-.14.07-.14.07-.14.07-.14.14-.14.07h-.14l-.14.07-.14.14-.14.07-.07.14-.14.14-.07.14-.07.07-.14.14-.07.14-.14.14-.07.22-.14.14-.07.14-.07.22-.07.14-.14.22-.07.14-.07.22-.07.22-.07.22-.07.22-.07.22-.07.22-7.56 18.86.36.22.36.22.36.14.36.14.43.14.36.14.36.14.36.14.36.14.36.07.36.14.36.07.29.07.36.07.36.07.36.07.29.07h.36l.36.07h.65l.36.07h.36l.29-.07h.65l.29-.07h.29l.36-.07.29-.07.36-.07.29-.07.29-.07.36-.14.29-.07.29-.14.29-.07.36-.14.29-.14.29-.14.22-.22.29-.14.29-.14.29-.22.29-.22.29-.07.29-.22.29-.22.29-.29.22-.22.29-.22.29-.29.29-.29.22-.22.29-.29.29-.29.22-.29.22-.36.22-.29.29-.36.22-.29.29-.36.22-.29.29-.36 3.74 1.51-10.66 26.93-3.82-1.51.07-.43v-.36l.07-.43v-.43l.07-.43v-.36l.07-.43v-1.87l-.07-.36v-.72l-.07-.36-.07-.36v-.65l-.07-.36-.14-.36-.07-.29-.07-.29-.14-.29-.07-.29-.14-.36-.14-.29-.07-.29-.14-.29-.22-.29-.14-.29-.14-.29-.14-.29-.22-.29-.22-.22-.14-.29-.22-.22-.22-.29-.22-.14-.22-.29-.22-.22-.29-.22-.22-.22-.29-.22-.22-.22-.22-.22-.29-.22-.29-.22-.29-.22-.29-.14-.36-.22-.29-.14-.36-.22-.29-.14-.36-.22-.36-.14-.36-.14-.36-.14-.36-.14-.29-.14-.36-.14-.43-.14-.36-.07-.43-.14-8.93 22.39-.07.22-.14.14-.07.14-.07.22-.07.22-.07.22v.14l-.07.22-.07.14v.22l-.07.14v.36l-.07.22v.86l.07.14v.36l.07.14v.14l.07.14.07.22v.14l.07.07.07.14.07.14.07.14.14.14.07.14.07.14.14.14.07.14.14.14.07.14.14.14.14.14.14.14.14.14.14.07.14.14.14.14.14.14.14.07.14.14.22.14.14.07.43.29.43.22.43.22.43.22.5.14.5.22.5.22.65.14.5.22.58.22.65.14.58.14.58.22.58.14.58.14.5.07.58.14.65.07.5.07.58.07.58.07.58.07h3.31l.5-.07.58-.07.5-.07.58-.07.43-.07.58-.14.5-.07.5-.14.58-.14.5-.22.5-.14.5-.14.43-.22.5-.22.58-.14.5-.22.5-.29.43-.29.5-.22.5-.29.5-.29.43-.36.5-.29.43-.36.5-.36.5-.36.43-.36.5-.36.43-.43.5-.36.43-.36.43-.5.43-.43.43-.43.43-.5.5-.5.43-.5.43-.5.43-.43.43-.58.43-.5.36-.58.43-.58 4.18 1.66-10.87 25.13-61.42-24.55 1.44-3.82.65.29.65.29.58.22.58.22.58.14.22.07.29.07.22.07.29.07.29.07.22.07h.29l.22.07h.29l.22.07h.5l.22.07h.65l.22-.07h.43l.22-.07h.07l.22-.07h.22l.14-.07.22-.07.14-.07h.22l.14-.14.14-.07.22-.07.14-.07.14-.07.14-.14.14-.07.14-.14.14-.14.14-.07.07-.14.14-.14.14-.14.07-.14.14-.14.14-.22.07-.14.07-.07.14-.22.07-.14.07-.22.07-.22.14-.14.07-.22.07-.22.07-.22v-.22l18.43-46.37.14-.14.07-.22.07-.22.07-.22.14-.22.07-.14v-.14l.07-.22.07-.22.07-.14v-.22l.07-.22v-1.44l-.07-.22v-.14l-.07-.22-.07-.14v-.14l-.07-.22-.07-.14-.07-.22-.14-.14-.07-.14-.07-.14-.14-.14-.07-.14-.14-.14-.07-.14-.14-.22-.14-.14-.14-.14-.14-.14-.14-.14-.14-.14-.22-.14-.14-.14-.22-.14-.22-.14-.14-.14-.22-.14-.22-.14-.22-.14-.29-.14-.22-.14-.22-.14-.29-.14-.22-.14-.58-.22-.5-.29-.58-.22-.58-.29-.65-.22 1.51-3.82 59.9 23.98zm-12.74 72.5 3.96.94.5-.29.36-.36.29-.36.36-.29.36-.29.14-.14.14-.14.22-.07.14-.14.14-.14.14-.07.14-.07.22-.07.14-.07.14-.07.14-.07.14-.07.14-.07h.14l.14-.07h.14l.14-.07h.65l.14.07h.14l.07.07h.14l.22.07.14.14.22.07.22.07.22.14.22.14.22.14.29.14.22.14.29.22.29.22.29.22.58.43.5.29.43.29.43.29.5.36.5.29.5.29.43.29.5.29.5.29.5.29.5.29.43.22.5.29.5.22.5.29.43.22.5.22.58.22.5.14.5.22.43.22.5.22.5.14.5.22.5.14.5.22.58.14.5.14.5.22.43.14.58.14.5.07.79.14.72.14.72.07.72.07.65.07.72.07h.72l.65.07h3.31l.65-.07h.58l.65-.07.65-.07.5-.07.58-.14.58-.07.58-.14.58-.14.58-.14.58-.14.5-.14.58-.14.43-.22.5-.22.5-.22.5-.22.5-.22.5-.29.43-.14.5-.29.43-.29.36-.29.5-.29.43-.36.36-.29.43-.36.43-.36.36-.36.43-.36.36-.43.36-.36.36-.43.29-.36.36-.43.29-.43.36-.5.29-.43.29-.5.36-.5.29-.5.29-.5.22-.5.29-.5.29-.58.22-.58.22-.58.29-.58.22-.58.22-.65.07-.58.14-.43.07-.5.07-.43.07-.5.07-.43.07-.43v-.5l.07-.43v-1.3l-.07-.5v-.43l-.07-.43-.07-.5-.07-.43-.07-.43-.14-.5-.07-.43-.07-.36-.14-.5-.14-.43-.14-.43-.22-.43-.14-.5-.22-.43-.22-.43-.22-.43-.29-.5-.22-.36-.29-.43-.29-.43-.29-.43-.29-.43-.29-.5-.36-.43-.29-.43-.36-.43-.29-.43-.43-.36-.36-.43-.36-.5-.43-.43-.43-.43-.43-.43-.5-.43-.43-.43-.5-.43-.43-.43-.43-.43-.5-.36-.58-.43-.5-.43-.58-.43-.58-.43-.58-.43-.58-.43-.5-.43-.65-.43-.58-.43-.65-.36-.65-.43-.72-.43-.65-.43-.86-.58-.86-.58-.94-.58-.79-.58-.79-.58-.72-.43-.72-.58-.36-.29-.36-.29-.29-.29-.36-.29-.36-.22-.29-.29-.29-.29-.29-.29-.29-.22-.29-.29-.29-.29-.22-.29-.22-.22-.22-.29-.29-.22-.22-.22-.22-.29-.22-.22-.22-.29-.22-.29-.14-.22-.22-.29-.14-.22-.14-.29-.22-.22-.14-.29-.07-.22-.14-.29-.14-.22-.14-.29-.07-.22-.07-.22-.14-.22-.07-.22-.07-.29-.07-.22v-.22l-.07-.29-.07-.22v-.72l-.07-.22.07-.22v-.72l.07-.22v-.22l.07-.22.07-.36.14-.22.07-.29.14-.22.07-.29.14-.29.07-.29.14-.22.14-.22.07-.29.14-.22.14-.22.14-.22.14-.29.14-.14.22-.22.14-.22.14-.22.14-.22.22-.14.14-.14.22-.14.14-.14.22-.14.22-.22.22-.14.07-.14.22-.14.22-.07.22-.14.22-.14.29-.07.22-.14.22-.07.22-.14.29-.07.22-.07.29-.07.22-.07.29-.07.22-.07h.29l.29-.07.29-.07h.29l.22-.07h.86l.29-.07h.36l.29.07h.94l.36.07h.36l.29.07h.36l.29.07.36.07.36.07.36.07.36.07.43.14.43.14.43.14.43.14.43.14.43.14.36.22.36.22.36.14.43.22.36.22.36.22.36.22.36.22.36.29.36.22.36.29.29.29.36.29.22.29.29.29.36.36.29.29.29.36.29.36.29.29.22.36.29.29.22.43.29.36.22.36.29.43.22.43.22.43.22.43.22.43.22.43.14.43.14.43.14.43.22.5.14.5.14.43.22.5.14.58.14.5.07.5.14.5.14.5.07.58.14.58.07.58.14.58.07.65.07.58.07.5.07.65.07.65v.65l.07.65.07.65v1.22l.07.72 3.96 1.01 6.05-24.19-3.96-.94-.14.07-.07.07-.14.14-.14.07-.14.14-.14.14-.14.07-.14.22-.29.29-.29.22-.29.29-.29.22-.22.22-.29.14-.22.14-.29.14-.14.07-.07.07-.14.07h-.14l-.07.07h-.14l-.07.07h-.94l-.07-.07-.14-.07h-.14l-.07-.07-.22-.07-.14-.14-.14-.07-.14-.14-.43-.29-.43-.29-.43-.43-.5-.43-.36-.22-.36-.36-.36-.36-.36-.36-.36-.29-.43-.36-.36-.29-.36-.29-.43-.29-.36-.29-.43-.29-.43-.29-.36-.29-.43-.22-.36-.29-.43-.22-.36-.14-.43-.22-.43-.29-.43-.14-.43-.22-.5-.22-.43-.22-.43-.14-.36-.22-.5-.14-.43-.14-.43-.14-.5-.14-.43-.14-.5-.14-.5-.14-.72-.14-.65-.14-.65-.07-.72-.07-.72-.14-.65-.07h-.65l-.72-.07h-.58l-.65-.07h-1.3l-.58.07h-.65l-.58.07h-.58l-.58.07-.58.14-.58.07-.58.07-.58.14-.58.14-.5.14-.5.14-.5.22-.5.14-.5.22-.5.22-.5.22-.5.22-.5.29-.43.29-.43.22-.43.29-.43.29-.43.29-.43.36-.43.29-.43.36-.43.36-.36.43-.43.36-.36.43-.29.36-.36.43-.36.5-.36.36-.36.5-.36.43-.29.5-.36.5-.29.5-.29.58-.29.5-.29.58-.29.5-.29.58-.22.65-.22.58-.29.65-.22.65-.22.65-.22.58-.22.65-.14.43-.07.36-.07.43-.07.43v.36l-.07.43v1.94l.07.43v.36l.07.43.07.43.07.43.07.36.14.43.14.43.07.36.14.36.14.43.22.43.14.36.22.43.22.43.07.43.29.36.22.43.22.43.29.43.29.29.29.43.29.43.29.43.29.43.36.36.36.43.36.43.36.43.36.43.29.43.43.36.43.36.36.43.43.43.5.43.43.43.5.43.43.43.5.43.43.43.5.36.58.36.5.43.58.43.58.43.58.43.58.43.58.43.58.43.65.43.58.43.65.36 1.01.65.86.58.86.58.79.65.86.58.79.58.72.58.65.5.72.58.29.29.36.29.29.22.29.29.29.29.29.29.29.29.29.29.22.22.29.29.22.29.29.22.22.29.14.22.22.22.22.29.14.22.22.29.14.29.22.22.14.29.14.22.14.22.14.29.14.22.07.29.14.22.07.22.14.29.07.22.07.22.07.29.07.14v.22l.07.22v.29l.07.22v1.3l-.07.22-.07.22v.22l-.14.36-.07.36-.14.29-.07.36-.14.22-.14.36-.14.29-.14.29-.07.29-.22.29-.14.29-.14.29-.14.22-.14.29-.22.22-.14.29-.22.22-.14.22-.14.22-.14.22-.22.22-.22.22-.22.14-.22.14-.22.22-.22.14-.22.22-.22.14-.29.14-.22.14-.22.14-.29.14-.22.14-.29.07-.29.14-.29.07-.22.14-.22.07-.29.07-.29.07-.29.07-.29.07-.36.07-.29.07h-.29l-.36.07h-.29l-.36.07h-1.94l-.36-.07h-.36l-.43-.07h-.36l-.36-.07-.36-.07-.43-.07-.36-.07-.43-.07-.36-.07-.43-.14-.5-.14-.5-.14-.43-.22-.5-.14-.43-.22-.43-.22-.5-.22-.43-.22-.43-.22-.36-.22-.36-.22-.43-.29-.36-.22-.43-.29-.36-.36-.36-.29-.43-.29-.36-.36-.29-.29-.36-.36-.36-.36-.29-.36-.29-.36-.29-.43-.36-.29-.29-.43-.29-.36-.29-.43-.29-.43-.29-.5-.22-.43-.29-.43-.22-.5-.22-.5-.29-.36-.22-.5-.22-.58-.22-.5-.14-.5-.14-.58-.22-.58-.14-.5-.22-.58-.14-.58-.14-.58-.14-.58-.14-.65-.14-.58-.14-.65-.14-.65-.07-.58-.14-.72-.07-.65-.07-.65-.07-.72-.07-.72-.07-.72-.07-.65-.07-.72-.07-.72v-.79l-.07-.79v-.72l-4.32-1.08-6.77 27zm76.89-57.89 67.03 7.7-2.52 25.27-4.9-.58-.07-.65-.14-.65-.07-.65-.07-.65-.14-.65-.07-.5-.14-.65-.14-.58-.14-.58-.14-.58-.07-.58-.14-.5-.14-.58-.14-.43-.22-.58-.14-.5-.22-.5-.22-.5-.14-.43-.22-.5-.22-.5-.22-.43-.22-.43-.22-.36-.29-.43-.22-.43-.29-.43-.22-.36-.29-.43-.29-.36-.22-.36-.22-.36-.29-.36-.29-.36-.36-.36-.29-.22-.29-.36-.36-.29-.29-.29-.36-.29-.36-.29-.29-.29-.36-.22-.36-.29-.36-.22-.29-.22-.43-.22-.36-.22-.36-.22-.43-.22-.43-.14-.36-.22-.43-.14-.43-.14-.43-.07-.43-.14-.36-.14-.43-.14-.5-.07-.43-.14-.43-.07-.5-.07-.5-.07-.43-.07-6.41 55.58-.07.22v.22l-.07.22v.22l-.07.22v1.01l.07.22v.22l.07.22v.14l.07.22v.14l.07.22.07.14.07.14.07.14.14.14.07.14.07.22.07.14.14.14.07.14.14.14.14.14.14.14.14.14.14.14.22.14.14.07.14.14.22.14.22.14.14.07.22.14.22.07.22.14.22.07.29.14.22.07.22.07.29.14.29.07.22.07.22.07.29.07.29.07.29.07.29.07.36.07.29.07.65.14.65.07.72.14.65.07.79.07-.5 4.03-40.54-4.68.43-4.03.86.07.72.07.79.07.72.07h3.46l.29-.07h.29l.29-.07h.22l.29-.07.22-.07h.22l.22-.07.22-.07.22-.07.22-.07.22-.07.22-.14.22-.07.14-.07.22-.14.14-.07.22-.07.14-.14.14-.14.14-.07.14-.14.14-.14.14-.14.14-.14.07-.14.14-.14.07-.14.14-.14.07-.22.07-.14.07-.14.07-.22.07-.14.07-.22v-.22l.07-.14.07-.22v-.36l.07-.22v-.94l6.34-55.58-.5-.07-.43-.07h-2.74l-.5.07h-.43l-.43.07-.43.07-.43.07-.36.07-.43.14-.43.07-.43.14-.43.14-.43.14-.36.14-.43.14-.43.14-.36.22-.43.22-.29.14-.36.22-.43.29-.36.22-.36.22-.36.22-.36.29-.36.29-.36.29-.36.29-.36.29-.36.36-.36.29-.22.36-.36.36-.36.36-.29.36-.29.36-.36.43-.29.36-.36.36-.29.43-.29.5-.29.43-.29.43-.29.5-.29.43-.29.5-.22.5-.29.43-.22.58-.29.5-.29.58-.22.5-.29.58-.22.58-.22.65-.29.5-.22.58-.22.65-4.9-.58 3.31-25.06z" fill="#003d83" fill-rule="evenodd"/></svg>