<?xml version="1.0" encoding="UTF-8" standalone="no"?>
<!-- Generator: Adobe Illustrator 16.0.0, SVG Export Plug-In . SVG Version: 6.00 Build 0)  -->

<svg
   version="1.1"
   id="图层_1"
   x="0px"
   y="0px"
   width="140.317"
   height="140.311"
   viewBox="0 0 140.317 140.311"
   enable-background="new 0 0 1024 768"
   xml:space="preserve"
   sodipodi:docname="SWUFE_logo.svg"
   inkscape:version="1.1.1 (3bf5ae0d25, 2021-09-20)"
   xmlns:inkscape="http://www.inkscape.org/namespaces/inkscape"
   xmlns:sodipodi="http://sodipodi.sourceforge.net/DTD/sodipodi-0.dtd"
   xmlns:xlink="http://www.w3.org/1999/xlink"
   xmlns="http://www.w3.org/2000/svg"
   xmlns:svg="http://www.w3.org/2000/svg"><defs
   id="defs457" /><sodipodi:namedview
   id="namedview455"
   pagecolor="#ffffff"
   bordercolor="#000000"
   borderopacity="0.25"
   inkscape:showpageshadow="2"
   inkscape:pageopacity="0.0"
   inkscape:pagecheckerboard="0"
   inkscape:deskcolor="#d1d1d1"
   showgrid="false"
   inkscape:zoom="1.2291667"
   inkscape:cx="169.22033"
   inkscape:cy="-4.8813558"
   inkscape:window-width="3440"
   inkscape:window-height="1411"
   inkscape:window-x="1431"
   inkscape:window-y="-9"
   inkscape:window-maximized="1"
   inkscape:current-layer="图层_1"
   inkscape:pageshadow="0"
   fit-margin-top="0"
   fit-margin-left="0"
   fit-margin-right="0"
   fit-margin-bottom="0" />









































































<g
   id="g849"
   style="display:inline;fill:#0075ba;fill-opacity:1"
   transform="translate(-441.752,-42.006)"><g
     id="g308"
     style="fill:#0075ba;fill-opacity:1">
	<defs
   id="defs271">
		<rect
   id="SVGID_25_"
   width="1024"
   height="768"
   x="0"
   y="0" />
	</defs>
	<clipPath
   id="SVGID_26_">
		<use
   xlink:href="#SVGID_25_"
   overflow="visible"
   id="use273"
   x="0"
   y="0"
   width="100%"
   height="100%" />
	</clipPath>
	
	
	<path
   clip-path="url(#SVGID_26_)"
   fill="#ffffff"
   d="m 566.469,82.761 c -0.526,-0.005 -1.07,-0.002 -1.605,0.016 -0.08,-0.089 -0.156,-0.18 -0.243,-0.248 -0.771,-1.445 1.484,-0.089 1.793,-0.253 0.175,-0.623 0.703,-0.46 0.806,-0.325 0.1,0.134 0.081,0.417 -10e-4,0.819 -0.239,0.112 -0.487,0.049 -0.75,-0.009 M 562.5,82.583 c 0.267,-0.184 0.743,-0.264 1.043,-0.316 0.235,0.611 0.115,0.527 -0.113,1.364 -0.119,-0.142 -0.792,-0.913 -0.93,-1.048 m 0.114,-1.203 c -0.023,-0.062 -0.15,-0.59 -0.117,-0.687 0.03,-0.096 0.584,-0.279 0.844,-0.136 0.01,0.172 0.382,0.625 0.195,0.672 -0.286,0.074 -0.879,0.261 -0.922,0.151 m -0.955,0.268 c -0.318,-0.36 -0.995,-0.652 -0.309,-0.799 0.85,-0.119 0.288,-0.253 0.425,0.397 -0.094,0.398 -0.06,0.39 -0.116,0.402 m -1.134,-1.553 c -0.303,0.051 -0.029,-0.765 -0.121,-0.958 0.313,-0.637 0.264,-0.648 0.906,-0.515 0.425,-0.022 0.691,0.135 0.563,0.419 0.07,0.112 0.146,0.634 0.208,0.767 -0.417,0.026 -1.376,0.33 -1.556,0.287 m -1.136,-1.334 c 0.32,-0.198 0.492,0.032 0.538,0.085 0.174,0.185 0.143,0.581 -0.254,0.583 0.063,0.133 -0.05,0.096 -0.028,0.139 -0.082,0.058 -1.085,-0.69 -0.256,-0.807 m 5.761,8.159 c 0.138,-0.763 -1.019,-2.346 -1.061,-2.472 1.131,-0.58 3.035,-0.776 4.063,-0.009 1.649,-0.919 1.828,-3.026 0.925,-2.912 -0.844,-0.016 -1.793,-2.068 -2.504,-2.075 -0.069,0.197 -0.81,1.059 -0.515,1.354 -0.278,0.222 -1.22,0.135 -1.811,0.244 -0.351,-0.666 -0.055,-0.763 0.391,-0.973 0.686,0.147 0.815,0.24 1.171,-0.199 -0.112,-0.311 -0.281,-0.565 -0.495,-0.827 -0.876,-0.28 0.218,-0.168 0.619,-0.189 1.519,-0.301 1.956,-1.391 1.689,-2.257 -1.062,0.661 -3.43,0.843 -3.891,1.161 -0.355,0.243 -0.503,0.542 -0.575,0.849 0.452,0.558 1.076,0.374 0.995,0.78 -0.634,0.173 -0.726,0.173 -1.411,0.305 -0.061,-0.242 0.283,-1.033 0.213,-1.432 -0.071,-0.4 -0.533,-0.642 -0.517,-0.777 0.4,-0.063 1.044,-0.094 1.23,-0.569 0.101,-1.003 -0.068,-1.575 -1.266,-1.49 0.11,0.518 0.067,0.778 -0.199,1.163 -1.51,0.503 -2.77,1.252 -4.06,1.787 -0.269,-0.201 -0.56,-0.435 -0.851,-0.675 0.245,0.159 0.575,0.098 0.775,0.069 0.516,-0.074 1.925,-0.931 2.016,-0.995 0.799,-0.568 1.11,-1.135 1.221,-1.436 0.022,-0.055 -0.024,-0.083 -0.05,-0.108 -1.424,0.77 -1.935,-0.089 -3.803,1.455 -0.224,0.186 -0.339,0.519 -0.339,0.634 0.002,0.125 0.059,0.278 0.125,0.337 -0.689,-0.571 -1.359,-1.152 -1.669,-1.34 0.778,-0.477 1.137,-1.316 0.946,-1.682 -0.929,0.194 -1.386,-0.158 -2.109,0.158 -0.438,0.243 -1.526,0.875 -2.261,1.651 -0.44,0.467 -1.07,1.096 -0.657,1.506 0.401,0.008 1.119,-0.002 1.357,-0.114 0.976,-0.242 1.36,-0.632 1.711,-0.909 0.619,0.377 0.295,1.386 1.331,1.511 0.235,0.183 0.706,0.51 1.304,1.008 0.891,0.741 4.023,3.398 4.407,3.913 0.136,0.183 0.504,0.695 0.786,1.291 -0.764,-0.273 -2.33,-1.619 -3.131,-2.274 -0.614,-0.436 -2.506,-2.114 -2.861,-2.923 -0.448,0.159 -0.714,1.322 -0.273,2.167 0.424,0.417 1.077,0.946 1.609,1.317 0.391,0.274 0.657,0.417 0.932,0.659 -0.201,0.1 -0.565,0.055 -0.966,-0.049 -0.664,-0.174 -1.642,-0.351 -1.83,-0.746 -0.136,-0.136 -0.28,-0.249 -0.423,-0.363 -0.052,0.043 -0.061,0.347 -0.122,0.412 -0.141,0.543 -0.49,0.749 -1.066,1.021 -0.899,-0.242 -2.981,-2.892 -3.354,-3.46 -0.67,0.316 -0.547,2.61 -0.298,3.218 0.448,-0.011 1.778,1.075 2.051,1.506 -0.355,0.277 -0.731,0.464 -1.325,0.585 -0.688,-0.153 0.119,-1.564 0.113,-1.579 -0.416,0.501 -1.027,1.022 -1.631,1.304 -0.602,0.279 -1.194,0.316 -1.009,1.021 0.481,0.826 2.099,0.857 3.159,0.583 0.776,-0.2 1.254,-0.384 1.979,-0.806 0.789,0.655 1.011,0.906 1.374,1.677 -0.1,0.284 0.124,0.438 0.404,0.581 0.828,0.297 2.027,-0.952 2.006,-1.23 -0.289,-0.579 -1.766,-1.76 -2.038,-2.07 0.26,-0.171 0.469,-0.347 0.779,-0.592 0.644,0.058 1.655,0.42 1.982,0.388 0.272,-0.025 0.547,0.053 0.78,-0.004 0.513,-0.126 0.886,-0.479 0.967,-0.995 1.669,1.401 2.191,2.729 3.111,3.871 0.808,0.019 1.5,-0.59 1.85,-0.955"
   id="path280"
   style="fill:#0075ba;fill-opacity:1" />
	<path
   clip-path="url(#SVGID_26_)"
   fill="#ffffff"
   d="m 499.405,62.528 c -0.052,-0.096 -0.03,-0.564 -0.131,-0.749 0.419,-0.399 0.438,-0.283 0.938,-0.547 0.165,0.214 0.309,0.899 0.462,1.021 -0.628,0.068 -0.786,0.125 -1.269,0.275 m -1.284,-1.536 c -0.711,0.499 -0.711,0.499 -0.953,0.606 -0.403,-0.058 -0.392,-0.061 -0.493,-0.139 -0.162,-0.583 -0.556,-2.19 -0.561,-2.426 0.048,-0.012 0.34,0.719 0.8,0.947 0.571,0.282 1.599,-0.207 1.207,1.012 m -2.448,-4.263 c 0.314,-0.023 0.628,-0.045 0.941,-0.068 0.376,0.604 -0.248,1.036 -0.697,1.272 -0.092,-0.399 -0.171,-0.802 -0.244,-1.204 m 11.965,-3.572 c -0.312,-0.294 -1.353,0.78 -1.912,1.204 -0.233,-0.677 -0.685,-2.807 -0.745,-3.871 0.153,-0.658 -0.36,-0.946 -0.765,-0.918 -2.324,0.169 -1.68,-0.064 -0.884,1.349 0.347,1.434 0.714,2.865 1.075,4.293 -0.297,0.39 -2.224,1.924 -2.744,2.031 0.008,0.072 0.069,0.381 0.167,0.66 0.212,0.61 0.614,1.352 1.091,1.07 0.373,-0.357 0.393,-0.791 1.972,-1.954 0.157,0.612 0.446,1.727 0.539,2.126 -0.512,1.085 -2.448,2.848 -3.465,3.194 -0.263,-0.04 -0.63,-0.098 -0.876,-0.14 0.249,-0.338 0.181,-1.123 0.216,-1.327 0.33,-0.066 0.772,-0.041 0.718,-0.515 -0.177,-1.574 -0.492,-1.283 -0.807,-1.206 -0.312,-1.644 -0.637,-3.828 -0.917,-5.261 0.076,-0.32 0.173,-0.628 0.269,-0.938 -0.092,-0.918 -1.33,-1.172 -1.898,-1.159 -0.781,0.769 -2.711,1.451 -2.189,2.474 0.049,-0.011 0.096,-0.022 0.165,-0.021 2.363,-2.295 2.485,0.57 3.02,2.583 0.211,1.281 0.191,1.421 0.343,2.074 0.035,0.18 0.076,0.36 0.024,0.645 -0.148,0.833 -1.146,0.609 -1.281,0.033 0.599,-0.759 0.385,-1.21 -0.243,-1.537 -0.524,0.224 -0.961,-0.035 -1.499,-0.248 -0.126,-1.349 1.082,-0.569 1.479,-1.469 -0.133,-0.356 -0.339,-0.745 -0.498,-0.911 -0.182,-0.059 -0.575,-0.134 -1.107,-0.132 -0.524,0.003 -1.183,0.345 -1.531,0.288 -0.853,-0.14 -1.116,-0.029 -1.633,0.578 0.07,0.522 0.272,1.183 0.981,4.467 0.071,0.674 0.056,1.266 1.098,1.178 0.11,0.041 0.197,-0.013 0.332,0.275 -0.225,0.624 -2.869,1.607 -3.495,1.887 0.115,0.082 0.286,0.209 0.457,0.331 1.336,0.949 1.801,0.755 3.027,-0.42 0.336,-0.323 1.247,-1.325 1.712,-1.282 -0.217,3.584 -2.577,3.993 -2.713,4.21 0.356,0.591 1.845,-0.068 2.309,-0.482 1.223,-1.082 1.676,-2.233 1.838,-3.269 0.498,-0.248 1.84,1.259 2.187,1.818 1.14,0.712 1.09,-1.48 1.02,-2.071 1.122,0.198 2.499,-1.268 3.161,-2.126 0.07,-0.049 0.049,-0.063 0.143,-0.1 0.245,0.7 0.418,1.519 0.613,2.366 -0.088,0.712 -1.132,0.927 -1.918,0.246 0.235,1.271 2.678,2.613 3.069,2.55 0.421,-0.433 0.738,-0.813 0.833,-1.489 -0.452,-1.745 -1.212,-3.572 -1.32,-5.211 0.328,-0.464 0.82,-1.033 1.23,-1.447 0.141,-0.839 -0.74,-0.652 -1.155,-0.777 -0.04,0.111 -0.039,0.23 -0.075,0.355 0.01,0.394 -0.087,0.505 -0.387,0.776 -0.15,-0.651 -0.382,-1.511 -0.475,-1.814 0.561,-0.411 1.652,-1.236 1.893,-1.629 0.12,-0.197 -0.137,-1.073 -0.449,-1.337"
   id="path282"
   style="fill:#0075ba;fill-opacity:1" />
	<path
   clip-path="url(#SVGID_26_)"
   fill="#ffffff"
   d="m 480.751,68.244 c -0.356,0.346 -1.412,1.381 -1.753,1.717 0.329,-0.911 0.025,-1.25 -0.253,-1.595 1.203,-1.241 1.1,-1.096 1.816,-1.751 0.164,0.575 0.043,1.044 0.19,1.629 m 0.987,2.643 c -0.14,0.167 -0.747,0.849 -0.866,1.019 -0.139,-0.079 -0.155,-1.12 -0.324,-1.38 0.127,-0.186 0.185,-0.357 0.252,-0.533 0.076,0.268 0.037,0.486 0.428,0.686 0.067,-0.049 0.188,-0.137 0.267,-0.196 0.103,0.154 0.172,0.249 0.243,0.404 m -6.187,-4.066 c 0.232,-0.564 0.74,-1.275 1.033,-1.923 0.142,0.072 0.752,2.704 0.801,2.866 -0.683,-0.588 -1.754,-0.311 -1.834,-0.943 m 11.895,-4.603 c -0.321,-0.475 -0.605,-0.43 -1.033,-0.65 -2.122,-0.875 -2.577,0.161 -3.91,1.498 -0.141,0.226 -0.315,0.392 -0.496,0.426 -0.664,-1.059 -1.372,-1.288 -2.347,-0.87 -0.003,0.188 -0.107,0.496 0.177,0.763 0.489,0.458 0.422,1.086 0.477,1.678 -0.387,0.412 -1.159,1.349 -1.646,1.693 -0.063,-0.196 -0.488,-3.075 -0.568,-3.813 0.5,-1.085 1.431,-2.509 1.871,-3.145 0.129,-0.187 -0.082,-0.329 -0.235,-0.346 -0.544,-0.059 -0.845,-0.156 -1.14,-0.267 -0.362,0.241 -0.997,1.132 -1.494,1.924 -0.421,-0.386 -1.198,-0.825 -1.626,-1.019 -1.127,-0.508 -1.744,-0.088 -2.554,0.309 -0.225,0.575 0.83,0.572 1.483,0.959 0.577,0.344 1.147,1.125 1.484,1.936 -0.168,0.447 -1.793,2.885 -2.024,3.238 -0.454,0.696 -1.533,1.235 -1.704,1.826 -0.126,0.423 1.219,0.482 1.776,0.508 0.827,0.04 1.042,-0.924 1.385,-1.576 0.191,0.063 0.489,0.295 0.742,0.637 0.077,0.681 0.179,0.717 0.404,0.986 -0.303,0.338 -0.786,0.989 -1.235,1.393 -0.291,0.263 -0.792,0.428 -0.922,0.742 -0.338,0.811 0.262,0.746 0.852,0.918 0.298,1.089 0.443,1.884 1.371,2.803 0.553,0.55 1.175,0.938 2.028,1.822 1.018,-0.084 0.787,-1.415 0.768,-1.409 -0.985,-1.271 -2.174,-2.784 -2.665,-3.164 -0.289,-0.292 -1.015,-0.103 -1.374,-0.269 0.505,-0.477 1.364,-1.315 1.92,-1.914 0.159,0.305 1.001,0.699 1.524,0.501 -0.243,0.287 -0.421,0.476 -0.497,0.571 -0.076,0.446 -0.017,0.607 0.229,1.078 0.236,0.07 0.647,0.293 0.937,0.098 0.207,-0.214 0.204,-0.347 0.337,-0.609 0.411,-0.439 0.515,-0.576 0.616,-0.767 0.044,0.166 0.168,1.297 0.024,1.404 0.144,0.195 -0.572,0.319 -0.147,0.998 0.269,0.085 1.945,1.04 2.333,0.627 -0.04,-0.052 -0.404,-0.756 0.245,-1.109 0.438,0.287 1.469,1.268 2.288,1.27 0.283,-0.416 0.163,-0.682 0.191,-1.276 -0.45,-0.645 -0.688,-1.539 -1.058,-2.089 0.498,-0.602 0.194,-1.659 0.095,-1.838 -0.08,-0.145 -0.271,-0.206 -0.392,-0.259 -0.342,0.665 -1.601,1.003 -1.574,0.104 0.368,-0.437 1.096,-1.093 0.147,-1.326 -0.089,0.046 -0.251,-0.102 -0.336,-0.055 -0.126,-0.404 0.055,-1.806 0.113,-2.277 0.899,-0.8 2.158,-2.28 2.944,-2.293 0.585,0.28 0.917,1.029 1.134,1.853 0.183,0.7 0.926,4.272 0.467,4.639 -0.296,0.239 -1.511,-0.063 -1.727,-0.024 0.496,0.447 1.517,0.735 2.163,1.555 0.778,-0.027 1.75,-0.299 1.824,-0.984 0.275,-2.59 -1.162,-7.011 -1.645,-7.409"
   id="path284"
   style="fill:#0075ba;fill-opacity:1" />
	<path
   clip-path="url(#SVGID_26_)"
   fill="#ffffff"
   d="m 469.375,82.41 c 0.022,0.068 0.532,1.235 0.489,1.369 -0.11,0.346 -0.426,0.364 -0.545,0.498 -0.463,0.522 -0.445,0.672 -0.838,1.438 -0.063,0.019 -0.182,0.212 -0.295,0.19 0.047,-0.087 0.067,-0.48 0.027,-0.588 -0.256,-0.737 -1.076,-1.983 -1.941,-2.689 0.257,-1.291 0.291,-3.963 1.012,-3.897 0.099,0.165 0.385,0.651 2.091,3.679 m -1.573,5.189 c -0.776,-0.167 -1.991,-0.62 -2.468,-0.776 0.091,-0.383 0.341,-1.733 0.498,-2.344 0.657,0.653 1.633,1.667 2.12,2.433 -0.026,0.296 -0.087,0.483 -0.15,0.687 m -0.298,2.333 c -0.929,0.085 -2.173,0.305 -2.88,0.153 -0.094,-0.314 0.107,-1.006 0.184,-1.434 0.339,0.042 2.637,0.267 2.776,0.154 0.024,0.343 -0.074,0.822 -0.08,1.127 m -4.252,0.339 c -0.315,0.004 -0.96,-0.019 -1.257,-0.076 0.285,-0.497 0.379,-1.285 0.297,-1.753 -0.006,0.046 1.226,0.111 1.363,0.115 -0.117,0.538 -0.293,1.19 -0.403,1.714 m 2.528,-13.887 c -0.128,0.129 -0.202,0.311 -0.245,0.489 -0.318,1.335 -0.6,2.925 -0.73,4.188 -0.249,-0.133 -1.04,-0.897 -0.908,-1.144 -1.244,-0.566 -1.686,0.185 -2.064,0.911 -0.463,0.888 -0.238,0.6 0.91,1.328 0.292,0.186 0.61,0.496 1.697,1.359 -0.179,0.862 -0.192,2.014 -0.326,2.863 -0.229,-0.073 -0.916,-0.424 -1.226,-0.624 -0.541,-0.348 -0.954,0.678 -1.186,1.045 -0.147,-0.703 -0.326,-1.535 -0.482,-1.996 -0.356,-0.735 -0.817,-1.437 -1.08,-2.139 0.124,-1.324 1.183,-2.086 1.657,-3.467 0.107,-0.311 0.214,-0.958 -0.028,-1.238 -0.587,-0.237 -1.583,-0.338 -1.94,-0.096 -1.089,2.252 -1.843,4.44 -2.979,6.571 -0.617,0.911 -0.935,1.004 0.489,1.332 0.474,0.11 1.018,0.133 1.277,-0.35 0.148,-0.315 0.298,-0.629 0.448,-0.944 0.258,0.108 0.452,0.271 0.631,0.469 0.539,0.594 0.859,1.901 1.171,2.686 0.322,0.553 -0.289,0.609 0.338,0.853 0.188,0.399 0.195,1.969 -0.098,2.259 -1.64,1.618 0.018,2.215 0.746,2.613 0.105,-0.093 0.224,-0.181 0.354,-0.28 1.26,-0.041 6.373,-1.01 6.755,-1.725 -0.023,-0.518 -0.518,-1.15 -0.136,-1.292 0.744,-0.28 1.145,-0.687 1.246,-1.212 -0.366,-0.439 0.564,-2.503 0.976,-3.063 0.136,-0.18 0.786,-0.855 1.11,-0.984 0.397,-0.159 0.401,-0.613 0.289,-1.141 -0.015,-0.008 -2.206,-5.361 -2.609,-6.439 -0.106,-0.47 -0.116,-1.433 -0.308,-1.778 -1.059,-0.229 -3.11,0.299 -3.749,0.946"
   id="path286"
   style="fill:#0075ba;fill-opacity:1" />
	<path
   clip-path="url(#SVGID_26_)"
   fill="#ffffff"
   d="m 511.912,182.317 c -38.684,0 -70.16,-31.467 -70.16,-70.152 0,-38.687 31.476,-70.159 70.16,-70.159 38.684,0 70.157,31.472 70.157,70.159 -10e-4,38.686 -31.473,70.152 -70.157,70.152 m 0,-137.956 c -37.385,0 -67.805,30.42 -67.805,67.804 0,37.381 30.42,67.799 67.805,67.799 37.385,0 67.797,-30.418 67.797,-67.799 0,-37.384 -30.412,-67.804 -67.797,-67.804"
   id="path288"
   style="fill:#0075ba;fill-opacity:1" />
	<path
   clip-path="url(#SVGID_26_)"
   fill="#ffffff"
   d="m 509.84,146.855 c -0.063,-0.072 -0.16,-0.113 -0.268,-0.124 -0.146,-0.01 -0.265,0.041 -0.351,0.159 -0.125,0.162 -0.214,0.48 -0.248,0.957 -0.07,0.793 -0.018,1.357 0.141,1.673 0.113,0.209 0.274,0.316 0.478,0.332 0.115,0.011 0.265,-0.023 0.457,-0.103 0.055,-0.315 0.092,-0.597 0.11,-0.847 0.046,-0.521 0.022,-1.012 -0.058,-1.472 -0.048,-0.255 -0.131,-0.45 -0.261,-0.575"
   id="path290"
   style="fill:#0075ba;fill-opacity:1" />
	<path
   clip-path="url(#SVGID_26_)"
   fill="#ffffff"
   d="m 496.941,116.283 v -8.248 h -16.947 c 2.03,-15.823 15.536,-28.057 31.914,-28.057 14.189,0 26.227,9.185 30.51,21.931 h 10.604 C 548.44,83.46 531.772,69.793 511.907,69.793 c -23.402,0 -42.371,18.969 -42.371,42.37 0,1.392 0.077,2.764 0.202,4.12 h 4.002 z"
   id="path292"
   style="fill:#0075ba;fill-opacity:1" />
	<path
   clip-path="url(#SVGID_26_)"
   fill="#ffffff"
   d="m 511.902,99.049 c 1.182,0 2.264,0.414 3.114,1.102 V 86.863 h -6.232 v 13.288 c 0.851,-0.688 1.936,-1.102 3.118,-1.102"
   id="path294"
   style="fill:#0075ba;fill-opacity:1" />
	<path
   clip-path="url(#SVGID_26_)"
   fill="#ffffff"
   d="M 524.114,119.264 V 93.157 h -6.944 v 40.896 h 12.506 c -3.46,-3.952 -5.562,-9.12 -5.562,-14.789"
   id="path296"
   style="fill:#0075ba;fill-opacity:1" />
	<path
   clip-path="url(#SVGID_26_)"
   fill="#ffffff"
   d="M 499.711,119.264 V 93.157 h 6.946 v 40.896 h -12.502 c 3.457,-3.952 5.556,-9.12 5.556,-14.789"
   id="path298"
   style="fill:#0075ba;fill-opacity:1" />
	<path
   clip-path="url(#SVGID_26_)"
   fill="#ffffff"
   d="m 554.075,108.035 h -27.199 v 8.248 h 16.949 c -2.027,15.83 -15.543,28.066 -31.917,28.066 -14.188,0 -26.229,-9.191 -30.509,-21.936 h -10.601 c 4.58,18.442 21.248,32.12 41.11,32.12 23.4,0 42.373,-18.968 42.373,-42.37 0,-1.394 -0.071,-2.769 -0.206,-4.128 m -49.071,43.521 c 0.081,0.081 0.231,0.151 0.454,0.202 l 0.129,0.035 -0.043,0.153 -3.002,-0.716 0.035,-0.161 0.151,0.038 c 0.246,0.059 0.424,0.071 0.544,0.039 0.117,-0.028 0.208,-0.089 0.269,-0.17 0.055,-0.102 0.132,-0.322 0.22,-0.683 l 0.71,-2.958 c 0.061,-0.263 0.09,-0.434 0.076,-0.503 -0.004,-0.072 -0.04,-0.143 -0.095,-0.204 -0.059,-0.061 -0.134,-0.102 -0.224,-0.129 -0.139,-0.034 -0.33,-0.03 -0.555,0.013 l -0.037,-0.17 2.327,-0.453 0.14,0.029 -1.117,4.668 c -0.086,0.351 -0.124,0.58 -0.115,0.684 0.006,0.101 0.048,0.198 0.133,0.286 m 5.885,-0.801 c -0.347,0.536 -0.822,0.952 -1.431,1.247 -0.613,0.293 -1.32,0.421 -2.12,0.384 l 0.013,-0.119 c 0.483,-0.072 0.901,-0.198 1.253,-0.384 0.352,-0.183 0.63,-0.428 0.854,-0.727 0.218,-0.294 0.386,-0.644 0.5,-1.044 -0.192,0.073 -0.347,0.129 -0.472,0.151 -0.13,0.03 -0.265,0.036 -0.401,0.022 -0.444,-0.033 -0.798,-0.227 -1.071,-0.567 -0.263,-0.347 -0.373,-0.794 -0.333,-1.351 0.035,-0.387 0.143,-0.728 0.331,-1.046 0.182,-0.3 0.435,-0.532 0.745,-0.685 0.306,-0.154 0.623,-0.213 0.941,-0.188 0.346,0.031 0.661,0.154 0.951,0.372 0.287,0.226 0.508,0.527 0.657,0.917 0.15,0.382 0.202,0.811 0.167,1.286 -0.047,0.617 -0.249,1.196 -0.584,1.732 m 5.13,1.612 -3.446,0.233 -0.009,-0.097 c 0.975,-1.331 1.554,-2.218 1.757,-2.666 0.191,-0.449 0.275,-0.878 0.244,-1.296 -0.015,-0.307 -0.128,-0.55 -0.323,-0.734 -0.212,-0.19 -0.443,-0.277 -0.716,-0.255 -0.439,0.029 -0.771,0.271 -0.983,0.734 l -0.159,-0.046 c 0.113,-0.559 0.324,-0.985 0.62,-1.277 0.3,-0.283 0.651,-0.439 1.07,-0.471 0.295,-0.023 0.569,0.034 0.829,0.146 0.252,0.131 0.459,0.304 0.61,0.538 0.156,0.23 0.238,0.451 0.254,0.657 0.027,0.387 -0.058,0.777 -0.243,1.196 -0.249,0.546 -0.843,1.334 -1.752,2.353 l 1.268,-0.083 c 0.314,-0.029 0.511,-0.049 0.602,-0.083 0.094,-0.031 0.168,-0.081 0.22,-0.147 0.065,-0.065 0.131,-0.205 0.208,-0.407 l 0.164,-0.008 z m 5.145,-1.949 c -0.125,0.378 -0.345,0.702 -0.668,0.963 -0.323,0.266 -0.7,0.449 -1.138,0.546 -0.466,0.102 -0.844,0.102 -1.13,-0.019 -0.203,-0.087 -0.324,-0.204 -0.361,-0.362 -0.019,-0.122 -0.007,-0.244 0.063,-0.357 0.074,-0.112 0.168,-0.179 0.298,-0.204 0.107,-0.021 0.22,-0.033 0.341,-0.01 0.125,0.018 0.342,0.093 0.654,0.22 0.208,0.081 0.369,0.129 0.505,0.145 0.096,0.018 0.195,0.011 0.308,-0.016 0.228,-0.055 0.407,-0.179 0.523,-0.381 0.129,-0.209 0.168,-0.432 0.11,-0.663 -0.113,-0.501 -0.449,-0.846 -1.02,-1.045 -0.56,-0.196 -1.219,-0.207 -1.975,-0.04 -0.075,0.017 -0.188,0.04 -0.344,0.082 l 0.379,-3.12 2.681,-0.604 -0.182,1.185 -2.254,0.513 -0.089,0.616 c 0.98,-0.184 1.783,-0.111 2.405,0.219 0.514,0.269 0.831,0.685 0.957,1.23 0.087,0.352 0.062,0.723 -0.063,1.102"
   id="path300"
   style="fill:#0075ba;fill-opacity:1" />
	<path
   clip-path="url(#SVGID_26_)"
   fill="#ffffff"
   d="m 454.37,105.133 c 0.072,-0.563 0.31,-0.963 0.714,-1.204 0.373,-0.23 0.88,-0.305 1.51,-0.22 l 0.449,0.057 -0.116,0.905 -0.449,-0.065 c -0.417,-0.051 -0.725,-0.017 -0.92,0.107 -0.052,0.028 -0.104,0.077 -0.162,0.152 -0.063,0.078 -0.104,0.207 -0.126,0.386 -0.021,0.175 -0.004,0.315 0.058,0.426 0.061,0.113 0.14,0.206 0.237,0.269 0.1,0.069 0.208,0.121 0.33,0.149 0.126,0.038 0.23,0.058 0.326,0.071 0.167,0.023 0.312,0.014 0.434,-0.024 0.122,-0.034 0.229,-0.088 0.32,-0.162 0.09,-0.074 0.168,-0.153 0.236,-0.247 0.066,-0.098 0.132,-0.196 0.19,-0.292 l 0.099,-0.161 c 0.059,-0.094 0.136,-0.217 0.237,-0.364 0.103,-0.148 0.239,-0.288 0.401,-0.42 0.422,-0.334 0.92,-0.467 1.495,-0.389 0.301,0.037 0.571,0.114 0.81,0.229 0.238,0.111 0.437,0.253 0.59,0.426 0.157,0.173 0.272,0.371 0.344,0.592 0.072,0.221 0.088,0.458 0.056,0.706 -0.045,0.344 -0.143,0.609 -0.287,0.796 -0.15,0.186 -0.295,0.318 -0.434,0.403 -0.387,0.234 -0.896,0.302 -1.523,0.225 l -0.452,-0.061 0.122,-0.912 0.45,0.06 c 0.275,0.033 0.493,0.033 0.651,0 0.162,-0.034 0.281,-0.085 0.361,-0.16 0.075,-0.073 0.128,-0.156 0.155,-0.244 0.025,-0.089 0.043,-0.167 0.045,-0.228 0.026,-0.185 0,-0.334 -0.075,-0.45 -0.076,-0.116 -0.171,-0.206 -0.287,-0.275 -0.118,-0.07 -0.242,-0.122 -0.363,-0.145 -0.123,-0.034 -0.215,-0.054 -0.279,-0.06 -0.169,-0.022 -0.315,-0.016 -0.438,0.018 -0.126,0.042 -0.238,0.092 -0.333,0.163 -0.099,0.073 -0.183,0.156 -0.26,0.253 -0.073,0.097 -0.142,0.201 -0.201,0.311 l -0.083,0.146 c -0.052,0.08 -0.127,0.195 -0.219,0.345 -0.096,0.15 -0.224,0.285 -0.392,0.42 -0.419,0.35 -0.913,0.489 -1.486,0.412 -0.544,-0.073 -0.98,-0.265 -1.301,-0.583 -0.363,-0.361 -0.51,-0.819 -0.434,-1.361"
   id="path302"
   style="fill:#0075ba;fill-opacity:1" />
	<path
   clip-path="url(#SVGID_26_)"
   fill="#ffffff"
   d="m 453.946,109.501 c 0.02,-0.341 0.094,-0.614 0.227,-0.813 0.133,-0.198 0.268,-0.348 0.401,-0.445 0.365,-0.251 0.86,-0.359 1.49,-0.324 l 3.063,0.167 c 0.63,0.034 1.11,0.195 1.443,0.481 0.065,0.056 0.126,0.121 0.184,0.201 0.062,0.077 0.114,0.171 0.165,0.279 0.046,0.109 0.089,0.232 0.116,0.37 0.025,0.136 0.035,0.291 0.027,0.463 -0.018,0.349 -0.094,0.624 -0.229,0.817 -0.134,0.199 -0.263,0.342 -0.4,0.441 -0.362,0.25 -0.859,0.357 -1.486,0.326 l -3.063,-0.167 c -0.63,-0.034 -1.116,-0.195 -1.449,-0.483 -0.121,-0.111 -0.239,-0.273 -0.349,-0.477 -0.112,-0.213 -0.159,-0.489 -0.14,-0.836 m 6.201,0.335 c 0.002,-0.075 0,-0.153 -0.011,-0.24 -0.006,-0.089 -0.039,-0.176 -0.104,-0.263 -0.062,-0.088 -0.169,-0.164 -0.316,-0.225 -0.148,-0.062 -0.364,-0.101 -0.639,-0.117 l -3.057,-0.165 c -0.289,-0.013 -0.508,0.003 -0.664,0.048 -0.154,0.043 -0.262,0.108 -0.337,0.192 -0.074,0.079 -0.116,0.158 -0.135,0.251 -0.015,0.083 -0.026,0.163 -0.03,0.234 -0.007,0.064 0,0.14 0.009,0.233 0.006,0.085 0.043,0.176 0.105,0.263 0.063,0.089 0.168,0.164 0.317,0.225 0.149,0.067 0.366,0.105 0.648,0.119 l 3.062,0.163 c 0.278,0.016 0.49,0 0.643,-0.044 0.157,-0.047 0.269,-0.111 0.339,-0.187 0.074,-0.084 0.12,-0.17 0.135,-0.262 0.018,-0.083 0.031,-0.164 0.035,-0.225"
   id="path304"
   style="fill:#0075ba;fill-opacity:1" />
	<path
   clip-path="url(#SVGID_26_)"
   fill="#ffffff"
   d="m 453.854,113.858 c -0.008,-0.323 0.043,-0.583 0.151,-0.776 0.109,-0.198 0.228,-0.345 0.356,-0.448 0.309,-0.264 0.76,-0.399 1.353,-0.414 l 5.229,-0.114 0.022,0.91 -5.234,0.115 c -0.245,0.002 -0.434,0.034 -0.567,0.084 -0.133,0.051 -0.231,0.109 -0.289,0.185 -0.061,0.074 -0.095,0.148 -0.102,0.223 -0.008,0.077 -0.013,0.149 -0.011,0.214 0.003,0.063 0.006,0.13 0.018,0.213 0.013,0.076 0.049,0.15 0.11,0.219 0.068,0.07 0.165,0.131 0.3,0.174 0.138,0.046 0.33,0.064 0.572,0.056 l 5.233,-0.114 0.019,0.911 -5.228,0.112 c -0.598,0.014 -1.053,-0.104 -1.373,-0.353 -0.131,-0.096 -0.258,-0.236 -0.373,-0.43 -0.116,-0.189 -0.177,-0.442 -0.186,-0.767"
   id="path306"
   style="fill:#0075ba;fill-opacity:1" />
</g><polygon
     fill="#ffffff"
     points="461.434,120.005 460.521,120.103 460.359,118.554 454.185,119.193 454.089,118.282 460.266,117.64 460.104,116.091 461.014,115.994 "
     id="polygon310"
     style="fill:#0075ba;fill-opacity:1" /><polygon
     fill="#ffffff"
     points="457.945,123.406 457.693,122.055 454.643,122.633 454.469,121.737 461.473,120.414 461.646,121.31 458.595,121.885 458.85,123.235 461.898,122.656 462.069,123.562 455.067,124.885 454.898,123.98 "
     id="polygon312"
     style="fill:#0075ba;fill-opacity:1" /><polygon
     fill="#ffffff"
     points="456.535,130.42 460.609,128.15 455.954,128.504 455.74,127.8 462.111,124.232 462.38,125.129 458.321,127.407 462.964,127.055 463.177,127.758 459.112,130.023 463.756,129.675 464.025,130.571 456.748,131.127 "
     id="polygon314"
     style="fill:#0075ba;fill-opacity:1" /><polygon
     fill="#ffffff"
     points="461.616,135.065 460.829,133.182 458.795,134.036 459.583,135.916 458.746,136.268 457.605,133.549 464.178,130.794 465.317,133.512 464.482,133.866 463.689,131.983 461.668,132.833 462.457,134.712 "
     id="polygon316"
     style="fill:#0075ba;fill-opacity:1" /><g
     id="g326"
     style="fill:#0075ba;fill-opacity:1">
	<defs
   id="defs319">
		<rect
   id="SVGID_27_"
   width="1024"
   height="768"
   x="0"
   y="0" />
	</defs>
	<clipPath
   id="SVGID_28_">
		<use
   xlink:href="#SVGID_27_"
   overflow="visible"
   id="use321"
   x="0"
   y="0"
   width="100%"
   height="100%" />
	</clipPath>
	<path
   clip-path="url(#SVGID_28_)"
   fill="#ffffff"
   d="m 459.996,138.861 c -0.255,-0.507 -0.287,-0.972 -0.089,-1.394 0.175,-0.404 0.551,-0.751 1.119,-1.038 l 0.407,-0.209 0.411,0.812 -0.402,0.205 c -0.379,0.192 -0.608,0.392 -0.703,0.607 -0.028,0.045 -0.04,0.121 -0.049,0.218 -0.003,0.095 0.034,0.226 0.119,0.385 0.08,0.154 0.174,0.263 0.285,0.321 0.114,0.058 0.232,0.085 0.35,0.088 0.12,0 0.239,-0.021 0.359,-0.061 0.117,-0.043 0.223,-0.088 0.31,-0.13 0.148,-0.076 0.26,-0.166 0.342,-0.267 0.08,-0.094 0.136,-0.2 0.167,-0.312 0.037,-0.112 0.055,-0.226 0.058,-0.345 0,-0.114 0,-0.226 -0.006,-0.341 l -0.012,-0.192 c -0.006,-0.11 -0.009,-0.255 -0.009,-0.434 0,-0.179 0.032,-0.371 0.091,-0.571 0.162,-0.518 0.496,-0.903 1.015,-1.168 0.266,-0.134 0.532,-0.225 0.794,-0.271 0.261,-0.042 0.506,-0.039 0.732,0.02 0.226,0.056 0.431,0.153 0.614,0.294 0.187,0.143 0.335,0.322 0.45,0.548 0.156,0.311 0.227,0.583 0.211,0.821 -0.016,0.236 -0.06,0.431 -0.129,0.581 -0.188,0.405 -0.565,0.755 -1.129,1.041 l -0.402,0.206 -0.419,-0.818 0.403,-0.203 c 0.249,-0.128 0.428,-0.253 0.541,-0.373 0.113,-0.114 0.181,-0.229 0.201,-0.337 0.024,-0.105 0.02,-0.204 -0.011,-0.283 -0.028,-0.089 -0.058,-0.161 -0.086,-0.219 -0.085,-0.166 -0.191,-0.276 -0.318,-0.324 -0.128,-0.052 -0.259,-0.075 -0.397,-0.066 -0.133,0.007 -0.263,0.033 -0.382,0.081 -0.119,0.049 -0.203,0.084 -0.262,0.115 -0.148,0.071 -0.264,0.161 -0.35,0.265 -0.079,0.096 -0.14,0.204 -0.18,0.316 -0.04,0.115 -0.064,0.237 -0.073,0.356 -0.007,0.125 0,0.247 0.013,0.366 l 0.008,0.173 c 0.006,0.099 0.012,0.235 0.018,0.406 0.007,0.179 -0.023,0.371 -0.082,0.574 -0.15,0.522 -0.48,0.914 -0.997,1.18 -0.487,0.247 -0.954,0.333 -1.4,0.251 -0.501,-0.093 -0.877,-0.388 -1.131,-0.874"
   id="path324"
   style="fill:#0075ba;fill-opacity:1" />
</g><polygon
     fill="#ffffff"
     points="469.421,140.962 468.643,141.448 467.825,140.125 462.543,143.38 462.06,142.602 467.339,139.338 466.523,138.015 467.306,137.535 "
     id="polygon328"
     style="fill:#0075ba;fill-opacity:1" /><polygon
     fill="#ffffff"
     points="468.152,146.063 466.946,144.417 465.167,145.724 466.376,147.371 465.639,147.905 463.895,145.528 469.646,141.313 471.39,143.692 470.653,144.229 469.45,142.583 467.678,143.878 468.883,145.528 "
     id="polygon330"
     style="fill:#0075ba;fill-opacity:1" /><g
     id="g340"
     style="fill:#0075ba;fill-opacity:1">
	<defs
   id="defs333">
		<rect
   id="SVGID_29_"
   width="1024"
   height="768"
   x="0"
   y="0" />
	</defs>
	<clipPath
   id="SVGID_30_">
		<use
   xlink:href="#SVGID_29_"
   overflow="visible"
   id="use335"
   x="0"
   y="0"
   width="100%"
   height="100%" />
	</clipPath>
	<path
   clip-path="url(#SVGID_30_)"
   fill="#ffffff"
   d="m 470.822,148.677 c -0.019,0.236 -0.084,0.473 -0.202,0.694 -0.113,0.22 -0.286,0.428 -0.511,0.622 l -1.6,1.37 -0.598,-0.703 1.602,-1.37 c 0.48,-0.401 0.517,-0.838 0.124,-1.297 l -0.295,-0.345 -0.076,-0.085 -2.315,1.976 -0.593,-0.688 5.417,-4.636 0.966,1.125 c 0.398,0.466 0.557,0.937 0.482,1.403 -0.066,0.433 -0.347,0.86 -0.855,1.29 -0.499,0.429 -0.972,0.647 -1.412,0.649 h -0.067 c -0.029,0 -0.053,-10e-4 -0.067,-0.005 m -0.489,-1.286 c 0.157,0.187 0.292,0.3 0.396,0.332 0.104,0.039 0.177,0.049 0.22,0.049 0.229,-0.009 0.504,-0.155 0.828,-0.43 0.182,-0.155 0.314,-0.293 0.399,-0.413 0.083,-0.127 0.133,-0.247 0.149,-0.353 0.012,-0.11 -0.009,-0.216 -0.058,-0.313 -0.059,-0.11 -0.132,-0.214 -0.23,-0.329 l -0.37,-0.432 -1.705,1.458 0.076,0.089 z"
   id="path338"
   style="fill:#0075ba;fill-opacity:1" />
</g><polygon
     fill="#ffffff"
     points="476.162,149.042 476.813,149.691 471.781,154.735 471.234,154.197 473.047,149.911 470.002,152.964 469.36,152.322 474.386,147.271 474.93,147.816 473.12,152.097 "
     id="polygon342"
     style="fill:#0075ba;fill-opacity:1" /><g
     id="g352"
     style="fill:#0075ba;fill-opacity:1">
	<defs
   id="defs345">
		<rect
   id="SVGID_31_"
   width="1024"
   height="768"
   x="0"
   y="0" />
	</defs>
	<clipPath
   id="SVGID_32_">
		<use
   xlink:href="#SVGID_31_"
   overflow="visible"
   id="use347"
   x="0"
   y="0"
   width="100%"
   height="100%" />
	</clipPath>
	<path
   clip-path="url(#SVGID_32_)"
   fill="#ffffff"
   d="m 475.865,158.252 c -0.257,-0.2 -0.422,-0.405 -0.511,-0.61 -0.078,-0.211 -0.122,-0.392 -0.119,-0.555 -0.009,-0.406 0.168,-0.846 0.531,-1.314 l 3.213,-4.13 0.713,0.556 -3.203,4.133 c -0.155,0.193 -0.257,0.361 -0.295,0.494 -0.048,0.136 -0.063,0.251 -0.04,0.343 0.018,0.092 0.053,0.167 0.108,0.22 0.052,0.059 0.106,0.101 0.159,0.144 0.049,0.037 0.112,0.078 0.175,0.118 0.067,0.038 0.148,0.056 0.244,0.052 0.092,-0.004 0.196,-0.049 0.318,-0.124 0.122,-0.08 0.26,-0.213 0.413,-0.405 l 3.207,-4.13 0.717,0.562 -3.209,4.125 c -0.364,0.471 -0.747,0.747 -1.142,0.844 -0.155,0.042 -0.347,0.046 -0.567,0.015 -0.223,-0.029 -0.458,-0.144 -0.712,-0.338"
   id="path350"
   style="fill:#0075ba;fill-opacity:1" />
</g><polygon
     fill="#ffffff"
     points="484.159,155.426 484.923,155.931 481.01,161.889 480.365,161.458 481.279,156.903 478.907,160.506 478.147,160.007 482.068,154.054 482.704,154.472 481.79,159.032 "
     id="polygon354"
     style="fill:#0075ba;fill-opacity:1" /><polygon
     fill="#ffffff"
     points="483.052,163.095 482.265,162.647 485.812,156.46 486.602,156.915 "
     id="polygon356"
     style="fill:#0075ba;fill-opacity:1" /><polygon
     fill="#ffffff"
     points="486.348,164.823 485.706,164.506 487.259,157.328 488.103,157.742 487.061,162.563 490.257,158.802 491.099,159.212 "
     id="polygon358"
     style="fill:#0075ba;fill-opacity:1" /><polygon
     fill="#ffffff"
     points="492.517,164.1 490.624,163.352 489.811,165.398 491.707,166.146 491.374,166.995 488.632,165.907 491.258,159.284 493.997,160.366 493.664,161.216 491.764,160.462 490.955,162.503 492.854,163.253 "
     id="polygon360"
     style="fill:#0075ba;fill-opacity:1" /><g
     id="g372"
     style="fill:#0075ba;fill-opacity:1">
	<defs
   id="defs363">
		<rect
   id="SVGID_33_"
   width="1024"
   height="768"
   x="0"
   y="0" />
	</defs>
	<clipPath
   id="SVGID_34_">
		<use
   xlink:href="#SVGID_33_"
   overflow="visible"
   id="use365"
   x="0"
   y="0"
   width="100%"
   height="100%" />
	</clipPath>
	<path
   clip-path="url(#SVGID_34_)"
   fill="#ffffff"
   d="m 496.161,164.887 c 0.116,0.213 0.186,0.438 0.205,0.685 0.018,0.258 -0.012,0.52 -0.101,0.801 l -0.624,2.014 -0.879,-0.269 0.625,-2.011 c 0.184,-0.6 -0.012,-0.991 -0.588,-1.169 l -0.436,-0.133 -0.107,-0.039 -0.908,2.915 -0.865,-0.271 2.11,-6.808 1.412,0.439 c 0.588,0.18 0.972,0.49 1.159,0.93 0.175,0.393 0.165,0.911 -0.034,1.546 -0.192,0.627 -0.477,1.063 -0.848,1.306 -0.017,0.009 -0.035,0.017 -0.055,0.028 -0.022,0.017 -0.042,0.03 -0.066,0.036 m -1.093,-0.821 c 0.234,0.064 0.407,0.093 0.512,0.06 0.109,-0.027 0.177,-0.052 0.208,-0.071 0.196,-0.131 0.35,-0.402 0.474,-0.811 0.075,-0.225 0.11,-0.418 0.117,-0.567 0.005,-0.145 -0.015,-0.272 -0.062,-0.373 -0.046,-0.099 -0.116,-0.176 -0.22,-0.232 -0.104,-0.058 -0.22,-0.112 -0.363,-0.155 l -0.548,-0.169 -0.661,2.146 0.111,0.03 z"
   id="path368"
   style="fill:#0075ba;fill-opacity:1" />
	<path
   clip-path="url(#SVGID_34_)"
   fill="#ffffff"
   d="m 498.538,169.117 c -0.552,-0.125 -0.928,-0.397 -1.133,-0.819 -0.192,-0.393 -0.223,-0.9 -0.078,-1.524 l 0.098,-0.443 0.885,0.198 -0.101,0.445 c -0.09,0.41 -0.082,0.714 0.023,0.926 0.022,0.051 0.066,0.11 0.135,0.176 0.075,0.067 0.197,0.119 0.374,0.161 0.17,0.037 0.312,0.031 0.428,-0.017 0.12,-0.057 0.214,-0.122 0.294,-0.213 0.075,-0.095 0.136,-0.199 0.176,-0.319 0.046,-0.119 0.081,-0.221 0.099,-0.322 0.037,-0.159 0.043,-0.303 0.018,-0.429 -0.021,-0.128 -0.067,-0.232 -0.131,-0.33 -0.066,-0.101 -0.141,-0.187 -0.229,-0.263 -0.088,-0.075 -0.182,-0.149 -0.269,-0.217 l -0.153,-0.111 c -0.089,-0.067 -0.204,-0.155 -0.341,-0.275 -0.136,-0.111 -0.266,-0.255 -0.382,-0.434 -0.294,-0.449 -0.379,-0.958 -0.253,-1.526 0.069,-0.292 0.167,-0.554 0.303,-0.783 0.136,-0.224 0.297,-0.411 0.482,-0.552 0.188,-0.137 0.393,-0.233 0.619,-0.283 0.229,-0.053 0.464,-0.049 0.709,0.004 0.341,0.076 0.596,0.197 0.766,0.365 0.169,0.164 0.292,0.316 0.365,0.466 0.193,0.408 0.217,0.919 0.079,1.535 l -0.1,0.444 -0.895,-0.203 0.097,-0.441 c 0.064,-0.267 0.084,-0.489 0.064,-0.654 -0.018,-0.162 -0.064,-0.283 -0.131,-0.37 -0.065,-0.084 -0.138,-0.14 -0.227,-0.175 -0.085,-0.035 -0.159,-0.052 -0.22,-0.07 -0.182,-0.038 -0.336,-0.031 -0.455,0.035 -0.12,0.066 -0.224,0.157 -0.303,0.269 -0.083,0.107 -0.141,0.224 -0.18,0.341 -0.043,0.119 -0.072,0.215 -0.083,0.278 -0.04,0.161 -0.043,0.307 -0.021,0.435 0.026,0.131 0.064,0.245 0.131,0.342 0.063,0.104 0.141,0.202 0.231,0.286 0.087,0.084 0.185,0.156 0.286,0.226 l 0.137,0.105 c 0.083,0.055 0.187,0.136 0.327,0.239 0.138,0.114 0.263,0.255 0.384,0.432 0.307,0.442 0.396,0.951 0.268,1.52 -0.117,0.536 -0.352,0.946 -0.691,1.239 -0.402,0.329 -0.869,0.428 -1.402,0.306"
   id="path370"
   style="fill:#0075ba;fill-opacity:1" />
</g><rect
     x="498.84799"
     y="165.814"
     transform="matrix(-0.1628,0.9867,-0.9867,-0.1628,748.262,-302.368)"
     fill="#ffffff"
     width="7.125"
     height="0.90499997"
     id="rect374"
     style="fill:#0075ba;fill-opacity:1" /><polygon
     fill="#ffffff"
     points="508.213,163.386 508.121,164.299 506.571,164.145 505.953,170.321 505.039,170.233 505.66,164.055 504.112,163.901 504.199,162.987 "
     id="polygon376"
     style="fill:#0075ba;fill-opacity:1" /><polygon
     fill="#ffffff"
     points="509.38,163.438 510.778,166.074 512.269,163.486 513.314,163.502 511.215,167.143 511.16,170.6 510.25,170.583 510.305,167.128 508.335,163.424 "
     id="polygon378"
     style="fill:#0075ba;fill-opacity:1" /><polygon
     fill="#ffffff"
     points="521.868,169.676 520.979,169.85 519.597,162.863 522.491,162.288 522.666,163.179 520.669,163.576 521.089,165.727 523.095,165.333 523.266,166.224 521.267,166.622 "
     id="polygon380"
     style="fill:#0075ba;fill-opacity:1" /><polygon
     fill="#ffffff"
     points="528.369,168.102 527.502,168.383 525.318,161.597 528.126,160.692 528.407,161.556 526.463,162.184 527.136,164.277 529.08,163.647 529.357,164.515 527.414,165.134 "
     id="polygon382"
     style="fill:#0075ba;fill-opacity:1" /><rect
     x="527.21301"
     y="163.052"
     transform="matrix(0.3598,0.933,-0.933,0.3598,492.3419,-390.551)"
     fill="#ffffff"
     width="7.1240001"
     height="0.91000003"
     id="rect384"
     style="fill:#0075ba;fill-opacity:1" /><polygon
     fill="#ffffff"
     points="532.929,158.714 533.764,158.334 536.731,164.813 536.031,165.134 532.65,161.937 534.447,165.861 533.62,166.238 530.652,159.76 531.349,159.44 534.727,162.636 "
     id="polygon386"
     style="fill:#0075ba;fill-opacity:1" /><path
     fill="#ffffff"
     d="m 538.71,163.811 -0.814,0.457 -2.062,-7.017 0.629,-0.355 4.943,5.399 -0.829,0.463 -1.369,-1.514 -1.076,0.606 z m -1.344,-4.58 0.503,1.726 0.709,-0.4 z"
     id="path388"
     style="fill:#0075ba;fill-opacity:1" /><polygon
     fill="#ffffff"
     points="540.128,154.59 540.886,154.075 544.874,159.986 544.234,160.414 540.379,157.813 542.791,161.388 542.036,161.893 538.052,155.992 538.682,155.563 542.54,158.166 "
     id="polygon390"
     style="fill:#0075ba;fill-opacity:1" /><polygon
     fill="#ffffff"
     points="549.293,152.307 547.789,153.689 549.28,155.311 550.782,153.93 551.398,154.602 549.229,156.596 544.405,151.353 546.573,149.36 547.192,150.024 545.687,151.407 547.169,153.021 548.674,151.64 "
     id="polygon392"
     style="fill:#0075ba;fill-opacity:1" /><path
     fill="#ffffff"
     d="m 554.646,151.228 -0.608,0.715 -4.351,-5.876 0.474,-0.55 6.497,3.355 -0.615,0.724 -1.813,-0.947 -0.798,0.944 z m -2.839,-3.837 1.066,1.449 0.529,-0.616 z"
     id="path394"
     style="fill:#0075ba;fill-opacity:1" /><polygon
     fill="#ffffff"
     points="552.814,142.069 553.349,141.322 559.131,145.493 558.679,146.119 554.159,145.008 557.664,147.53 557.132,148.265 551.347,144.099 551.796,143.483 556.31,144.591 "
     id="polygon396"
     style="fill:#0075ba;fill-opacity:1" /><polygon
     fill="#ffffff"
     points="561.654,134.514 560.804,136.367 562.814,137.287 563.659,135.431 564.483,135.806 563.263,138.492 556.782,135.529 558.003,132.85 558.829,133.225 557.981,135.081 559.98,135.993 560.83,134.134 "
     id="polygon398"
     style="fill:#0075ba;fill-opacity:1" /><polygon
     fill="#ffffff"
     points="561.148,122.538 561.332,121.638 568.314,123.044 568.163,123.802 563.592,124.656 567.819,125.51 567.64,126.402 560.653,124.993 560.804,124.247 565.377,123.39 "
     id="polygon400"
     style="fill:#0075ba;fill-opacity:1" /><g
     id="g410"
     style="fill:#0075ba;fill-opacity:1">
	<defs
   id="defs403">
		<rect
   id="SVGID_35_"
   width="1024"
   height="768"
   x="0"
   y="0" />
	</defs>
	<clipPath
   id="SVGID_36_">
		<use
   xlink:href="#SVGID_35_"
   overflow="visible"
   id="use405"
   x="0"
   y="0"
   width="100%"
   height="100%" />
	</clipPath>
	<path
   clip-path="url(#SVGID_36_)"
   fill="#ffffff"
   d="m 568.735,120.143 c -0.038,0.341 -0.134,0.606 -0.273,0.794 -0.149,0.19 -0.294,0.329 -0.435,0.418 -0.376,0.224 -0.881,0.303 -1.508,0.224 l -3.045,-0.363 c -0.629,-0.08 -1.097,-0.268 -1.409,-0.578 -0.061,-0.064 -0.115,-0.128 -0.173,-0.214 -0.056,-0.077 -0.102,-0.175 -0.142,-0.288 -0.041,-0.114 -0.075,-0.239 -0.095,-0.378 -0.016,-0.135 -0.016,-0.293 0.003,-0.464 0.042,-0.347 0.139,-0.612 0.283,-0.798 0.149,-0.189 0.291,-0.328 0.433,-0.412 0.374,-0.229 0.877,-0.306 1.504,-0.229 l 3.045,0.367 c 0.626,0.079 1.101,0.266 1.409,0.577 0.116,0.119 0.223,0.286 0.321,0.501 0.099,0.218 0.128,0.497 0.082,0.843 m -6.163,-0.742 c -0.01,0.072 -0.01,0.148 -0.01,0.239 0.005,0.087 0.035,0.176 0.091,0.265 0.057,0.094 0.162,0.176 0.303,0.249 0.143,0.071 0.353,0.124 0.628,0.159 l 3.043,0.362 c 0.28,0.035 0.502,0.035 0.657,0 0.159,-0.038 0.272,-0.092 0.351,-0.166 0.074,-0.075 0.13,-0.159 0.146,-0.241 0.028,-0.084 0.043,-0.165 0.051,-0.234 0.01,-0.064 0.015,-0.141 0.01,-0.234 0,-0.089 -0.032,-0.178 -0.087,-0.27 -0.058,-0.094 -0.159,-0.176 -0.303,-0.247 -0.144,-0.075 -0.356,-0.124 -0.642,-0.159 l -3.039,-0.37 c -0.274,-0.032 -0.488,-0.029 -0.647,0.006 -0.159,0.038 -0.275,0.096 -0.35,0.169 -0.081,0.073 -0.128,0.158 -0.155,0.243 -0.018,0.088 -0.039,0.165 -0.047,0.229"
   id="path408"
   style="fill:#0075ba;fill-opacity:1" />
</g><polygon
     fill="#ffffff"
     points="561.951,117.111 561.978,116.307 567.039,115.022 562.067,113.44 562.092,112.633 569.217,112.854 569.188,113.766 565.777,113.661 569.155,114.753 569.136,115.437 565.694,116.313 569.106,116.421 569.078,117.331 "
     id="polygon412"
     style="fill:#0075ba;fill-opacity:1" /><path
     clip-path="url(#SVGID_38_)"
     fill="#ffffff"
     d="m 528.625,58.147 c 0.654,0.037 1.556,0.168 2.205,0.218 -0.417,0.48 -0.417,0.48 -0.75,0.758 -0.355,0.009 -1.362,-0.069 -1.727,0.025 0.006,-0.124 0.087,-0.208 0.272,-1.001 m -1.049,4.387 c 0.309,0.2 -0.504,0.496 -0.346,-0.081 0.105,-0.053 0.236,0.007 0.346,0.081 m -4.405,1.079 c 0.195,-0.394 1.333,-0.543 1.669,-0.715 0.186,0.016 0.336,0.064 0.452,0.084 -0.085,0.256 -0.047,0.55 -0.211,1.06 -0.408,-0.097 -1.499,-0.35 -1.91,-0.429 m 2.954,-3.373 c -0.45,-0.237 -1.202,-0.305 -1.617,-0.941 0.115,-0.789 0.253,-1.1 0.352,-1.585 0.316,-0.11 1.633,0.144 2.071,0.142 -0.093,0.285 -0.507,1.628 -0.806,2.384 m -1.083,-3.905 c 0.284,-0.481 1.105,-1.338 1.183,-1.708 1.207,0.045 1.411,0.09 1.483,0.369 0.151,0.292 -0.12,0.863 -0.288,1.501 -0.515,-0.039 -1.868,0.003 -2.378,-0.162 m 4.457,3.987 c 1.063,0.29 2.43,-0.871 2.614,-1.245 0.364,-0.757 0.74,-1.939 0.391,-2.592 -0.192,-0.359 -2.99,0.237 -3.468,0.112 0.001,-0.113 0.347,-0.545 0.373,-0.798 0.025,-0.253 -0.266,-0.331 -0.318,-0.639 0.698,-0.967 1.805,0.336 2.742,0.199 0.549,-0.56 -10e-4,-1.841 -0.374,-2.049 -1.963,0.104 -4.406,-0.418 -6.203,-0.929 -0.447,0.328 -0.382,1.642 0.137,2.119 0.12,0.11 0.48,0.163 0.627,0.154 -0.215,0.403 -1.308,1.121 -1.516,1.547 -0.537,-0.072 -0.613,0.077 -1.19,0.047 -0.116,0.334 -0.438,0.264 -0.143,1.094 -0.064,0.018 -0.502,0.268 -0.608,0.558 -0.032,-0.01 0.06,0.35 0.095,0.491 0.021,0.082 -0.116,0.134 -0.208,0.184 -0.97,0.597 -1.112,0.283 -1.501,-0.112 -0.773,-0.786 0.987,-1.357 1.612,-1.936 0.292,-0.27 -0.637,-2.23 -1.023,-2.011 -0.575,0.325 -1.217,0.941 -2.091,1.473 -0.292,-0.144 -0.324,-0.14 -0.492,-0.306 0.292,-0.906 3.936,-2.494 4.929,-2.901 0.006,-0.801 -0.691,-2.22 -1.244,-2.399 -1.92,1.452 -3.402,2.422 -5.509,3.502 -0.31,1.109 0.385,2.072 0.398,2.196 0.946,-0.317 1.267,0.276 1.311,0.36 -0.367,0.373 -1.186,0.664 -1.688,1.132 -0.061,0.682 -0.395,1.993 0.701,2.346 0.403,-0.167 2.613,-2.377 2.835,-1.308 0.019,0.088 0.054,0.383 0.053,0.486 -1.339,1.751 -3.557,3.541 -2.193,0.986 -0.083,0.2 -1.868,2.175 -1.937,2.383 0.013,0.018 0.017,1.101 1.581,1.702 0.819,0.318 1.269,-0.547 1.565,-1.129 0.446,-1.028 1.082,-2.425 1.428,-3.541 0.284,0.265 1.333,-0.252 1.629,-0.5 0.15,0.326 0.096,0.735 0.672,0.953 0.242,0.092 0.771,-0.632 0.872,-0.519 0.037,0.421 -0.104,1.149 0.142,1.544 0.447,0.46 0.503,0.258 1.118,0.74 -0.033,0.023 0.033,0.303 -0.152,0.463 -0.67,0.56 -2.562,1.002 -3.346,1.2 -0.396,-0.076 -0.815,-0.297 -1.029,-0.069 0.04,0.311 0.015,0.545 0.015,0.879 0,1.148 1.118,1.205 2.056,1.295 1.337,-0.08 3.441,-0.149 4.569,0.837 0.073,0.069 -0.504,0.04 -0.674,0.018 0.501,0.241 1.655,0.644 2.139,0.569 0.482,-0.072 0.645,-0.57 0.728,-1.211 0.04,-0.323 -0.248,-0.423 -3.389,-1.283 0.271,-0.505 0.286,-1.022 0.508,-1.217 0.133,-0.118 0.27,-0.049 0.576,0.066 0.669,0.253 0.995,0.014 1.252,-0.165 1.093,-0.56 -0.979,-2.128 -1.134,-2.197 0.164,-0.431 0.271,-0.727 0.426,-1.202 0.385,0.106 0.857,0.311 1.336,0.623"
     id="path438"
     style="fill:#0075ba;fill-opacity:1" /><rect
     x="562.03601"
     y="110.558"
     transform="matrix(0.9993,-0.0386,0.0386,0.9993,-3.8627,21.9097)"
     fill="#ffffff"
     width="7.1230001"
     height="0.90700001"
     id="rect414"
     style="fill:#0075ba;fill-opacity:1" /><g
     id="g452"
     style="fill:#0075ba;fill-opacity:1">
	<defs
   id="defs417">
		<rect
   id="SVGID_37_"
   width="1024"
   height="768"
   x="0"
   y="0" />
	</defs>
	<clipPath
   id="SVGID_38_">
		<use
   xlink:href="#SVGID_37_"
   overflow="visible"
   id="use419"
   x="0"
   y="0"
   width="100%"
   height="100%" />
	</clipPath>
	<path
   clip-path="url(#SVGID_38_)"
   fill="#ffffff"
   d="m 568.947,107.519 c 0.015,0.178 0.015,0.331 -0.009,0.469 -0.023,0.137 -0.058,0.263 -0.101,0.375 -0.045,0.109 -0.096,0.209 -0.156,0.284 -0.064,0.081 -0.116,0.151 -0.177,0.21 -0.321,0.3 -0.799,0.482 -1.429,0.544 l -3.04,0.292 c -0.628,0.062 -1.133,-0.028 -1.504,-0.262 -0.141,-0.092 -0.273,-0.233 -0.418,-0.423 -0.14,-0.192 -0.227,-0.458 -0.264,-0.806 -0.032,-0.346 0.005,-0.626 0.106,-0.836 0.105,-0.209 0.213,-0.372 0.33,-0.487 0.327,-0.309 0.807,-0.495 1.426,-0.554 l 0.453,-0.042 0.082,0.914 -0.45,0.042 c -0.273,0.027 -0.484,0.074 -0.638,0.142 -0.145,0.072 -0.248,0.149 -0.314,0.233 -0.059,0.089 -0.089,0.176 -0.092,0.267 -0.005,0.092 -0.005,0.171 0.003,0.237 0.011,0.068 0.021,0.144 0.043,0.229 0.024,0.091 0.065,0.175 0.142,0.244 0.078,0.078 0.192,0.137 0.354,0.179 0.16,0.037 0.378,0.046 0.654,0.016 l 3.04,-0.29 c 0.417,-0.039 0.711,-0.141 0.885,-0.31 0.044,-0.035 0.085,-0.095 0.125,-0.186 0.046,-0.086 0.058,-0.22 0.044,-0.392 -0.019,-0.173 -0.059,-0.297 -0.113,-0.375 -0.059,-0.074 -0.115,-0.126 -0.165,-0.16 -0.202,-0.123 -0.511,-0.167 -0.92,-0.128 l -0.453,0.045 -0.091,-0.917 0.452,-0.041 c 0.624,-0.058 1.121,0.032 1.501,0.274 0.144,0.089 0.277,0.23 0.425,0.412 0.144,0.19 0.237,0.455 0.269,0.801"
   id="path422"
   style="fill:#0075ba;fill-opacity:1" />
	<path
   clip-path="url(#SVGID_38_)"
   fill="#ffffff"
   d="m 568.382,103.278 c 0.1,0.558 -0.009,1.014 -0.326,1.36 -0.284,0.331 -0.747,0.551 -1.377,0.66 l -0.445,0.074 -0.156,-0.893 0.444,-0.073 c 0.416,-0.07 0.7,-0.196 0.851,-0.375 0.044,-0.037 0.078,-0.103 0.113,-0.197 0.028,-0.091 0.034,-0.223 0,-0.401 -0.023,-0.171 -0.087,-0.299 -0.177,-0.392 -0.092,-0.087 -0.195,-0.151 -0.309,-0.187 -0.116,-0.038 -0.238,-0.049 -0.361,-0.047 -0.128,0.007 -0.237,0.018 -0.336,0.035 -0.159,0.028 -0.296,0.079 -0.402,0.149 -0.104,0.07 -0.193,0.152 -0.26,0.247 -0.062,0.097 -0.113,0.202 -0.15,0.31 -0.034,0.115 -0.069,0.223 -0.097,0.334 l -0.041,0.182 c -0.027,0.111 -0.068,0.251 -0.122,0.421 -0.053,0.169 -0.141,0.34 -0.258,0.521 -0.302,0.443 -0.741,0.715 -1.313,0.813 -0.298,0.052 -0.576,0.061 -0.839,0.024 -0.261,-0.038 -0.496,-0.116 -0.696,-0.237 -0.195,-0.118 -0.364,-0.271 -0.497,-0.463 -0.136,-0.191 -0.224,-0.407 -0.267,-0.653 -0.059,-0.347 -0.043,-0.629 0.04,-0.848 0.085,-0.22 0.185,-0.395 0.293,-0.518 0.306,-0.335 0.764,-0.555 1.39,-0.659 l 0.444,-0.076 0.155,0.905 -0.443,0.077 c -0.274,0.044 -0.482,0.107 -0.629,0.19 -0.138,0.081 -0.235,0.167 -0.287,0.259 -0.055,0.095 -0.081,0.19 -0.081,0.281 10e-4,0.091 0.011,0.165 0.02,0.235 0.037,0.18 0.105,0.318 0.211,0.404 0.107,0.084 0.225,0.141 0.362,0.175 0.13,0.036 0.261,0.044 0.387,0.037 0.125,-0.01 0.218,-0.018 0.281,-0.029 0.167,-0.031 0.303,-0.078 0.41,-0.152 0.113,-0.071 0.203,-0.153 0.271,-0.247 0.073,-0.1 0.132,-0.209 0.175,-0.322 0.041,-0.117 0.074,-0.235 0.101,-0.355 l 0.037,-0.166 c 0.024,-0.093 0.058,-0.223 0.108,-0.394 0.044,-0.168 0.128,-0.342 0.245,-0.518 0.294,-0.456 0.729,-0.737 1.3,-0.833 0.537,-0.092 1.015,-0.038 1.416,0.166 0.453,0.247 0.72,0.635 0.815,1.176"
   id="path424"
   style="fill:#0075ba;fill-opacity:1" />
	<path
   clip-path="url(#SVGID_38_)"
   fill="#ffffff"
   d="m 518.234,170.197 c -0.34,0.044 -0.619,0.009 -0.839,-0.081 -0.217,-0.098 -0.388,-0.204 -0.506,-0.319 -0.31,-0.316 -0.506,-0.783 -0.579,-1.409 l -0.367,-3.046 c -0.076,-0.625 0,-1.127 0.227,-1.504 0.043,-0.073 0.098,-0.145 0.165,-0.22 0.065,-0.076 0.149,-0.143 0.248,-0.208 0.101,-0.066 0.211,-0.126 0.343,-0.179 0.128,-0.053 0.281,-0.086 0.453,-0.112 0.347,-0.036 0.63,-0.009 0.843,0.085 0.217,0.105 0.382,0.206 0.503,0.323 0.31,0.315 0.506,0.782 0.576,1.411 l 0.37,3.042 c 0.078,0.627 0,1.131 -0.227,1.51 -0.088,0.14 -0.227,0.28 -0.41,0.43 -0.189,0.146 -0.452,0.238 -0.8,0.277 m -0.744,-6.165 c -0.069,0.014 -0.149,0.034 -0.231,0.053 -0.089,0.023 -0.168,0.074 -0.239,0.147 -0.076,0.08 -0.131,0.197 -0.168,0.355 -0.037,0.156 -0.04,0.37 -0.006,0.649 l 0.367,3.042 c 0.037,0.281 0.085,0.494 0.158,0.635 0.076,0.147 0.157,0.247 0.248,0.305 0.094,0.058 0.182,0.084 0.269,0.088 0.086,0 0.169,0 0.239,-0.011 0.061,-0.007 0.139,-0.019 0.226,-0.046 0.092,-0.026 0.168,-0.076 0.245,-0.152 0.075,-0.08 0.128,-0.19 0.171,-0.351 0.031,-0.158 0.037,-0.372 0,-0.65 l -0.372,-3.051 c -0.027,-0.274 -0.08,-0.482 -0.154,-0.628 -0.072,-0.14 -0.155,-0.241 -0.244,-0.299 -0.092,-0.052 -0.181,-0.086 -0.272,-0.09 -0.095,-0.003 -0.175,0 -0.237,0.004"
   id="path426"
   style="fill:#0075ba;fill-opacity:1" />
	<path
   clip-path="url(#SVGID_38_)"
   fill="#ffffff"
   d="m 547.22,158.22 c -0.137,0.106 -0.269,0.19 -0.397,0.246 -0.126,0.057 -0.25,0.098 -0.369,0.122 -0.115,0.022 -0.226,0.029 -0.327,0.029 -0.095,-0.013 -0.188,-0.027 -0.269,-0.042 -0.428,-0.106 -0.835,-0.405 -1.232,-0.903 l -1.904,-2.39 c -0.389,-0.494 -0.586,-0.962 -0.595,-1.402 0,-0.169 0.046,-0.359 0.125,-0.577 0.087,-0.229 0.263,-0.447 0.537,-0.663 0.27,-0.219 0.522,-0.338 0.755,-0.368 0.235,-0.031 0.432,-0.023 0.594,0.016 0.437,0.101 0.85,0.402 1.235,0.891 l 0.286,0.354 -0.72,0.574 -0.282,-0.362 c -0.173,-0.212 -0.329,-0.365 -0.468,-0.453 -0.138,-0.087 -0.26,-0.131 -0.365,-0.136 -0.107,-0.003 -0.198,0.019 -0.28,0.066 -0.073,0.047 -0.139,0.092 -0.19,0.132 -0.056,0.04 -0.115,0.094 -0.173,0.158 -0.062,0.063 -0.104,0.152 -0.125,0.254 -0.025,0.105 -0.014,0.238 0.046,0.395 0.052,0.153 0.165,0.337 0.337,0.557 l 1.9,2.394 c 0.259,0.326 0.506,0.517 0.738,0.57 0.053,0.016 0.128,0.016 0.228,0.001 0.098,-0.008 0.213,-0.07 0.352,-0.175 0.136,-0.107 0.22,-0.205 0.247,-0.3 0.031,-0.09 0.049,-0.164 0.051,-0.225 -0.008,-0.238 -0.139,-0.517 -0.396,-0.845 l -0.28,-0.35 0.717,-0.573 0.28,0.355 c 0.393,0.49 0.588,0.954 0.588,1.408 0,0.166 -0.039,0.362 -0.116,0.582 -0.081,0.223 -0.257,0.448 -0.528,0.66"
   id="path428"
   style="fill:#0075ba;fill-opacity:1" />
	<path
   clip-path="url(#SVGID_38_)"
   fill="#ffffff"
   d="m 560.578,143.267 -0.743,1.216 -6.084,-3.708 0.736,-1.213 c 0.318,-0.522 0.722,-0.816 1.207,-0.884 0.442,-0.069 0.938,0.072 1.492,0.411 l 2.56,1.555 c 0.556,0.344 0.907,0.724 1.058,1.141 0.168,0.466 0.091,0.959 -0.226,1.482 m -1.047,-0.038 0.267,-0.436 c 0.06,-0.098 0.112,-0.196 0.147,-0.304 0.035,-0.099 0.041,-0.205 0.016,-0.309 -0.025,-0.116 -0.09,-0.23 -0.191,-0.355 -0.109,-0.126 -0.278,-0.255 -0.499,-0.394 l -2.559,-1.558 c -0.229,-0.14 -0.422,-0.225 -0.58,-0.261 -0.158,-0.033 -0.296,-0.038 -0.4,-0.015 -0.106,0.036 -0.199,0.09 -0.269,0.168 -0.076,0.08 -0.139,0.168 -0.202,0.271 l -0.267,0.439 z"
   id="path430"
   style="fill:#0075ba;fill-opacity:1" />
	<path
   clip-path="url(#SVGID_38_)"
   fill="#ffffff"
   d="m 565.542,133.151 c -0.056,0.16 -0.124,0.299 -0.208,0.414 -0.079,0.115 -0.162,0.211 -0.254,0.295 -0.087,0.077 -0.174,0.146 -0.27,0.191 -0.082,0.042 -0.171,0.081 -0.246,0.105 -0.417,0.133 -0.923,0.088 -1.518,-0.132 l -2.864,-1.06 c -0.595,-0.22 -1.006,-0.515 -1.234,-0.894 -0.093,-0.143 -0.15,-0.328 -0.196,-0.561 -0.044,-0.236 -0.007,-0.509 0.113,-0.838 0.121,-0.326 0.271,-0.564 0.462,-0.709 0.18,-0.144 0.352,-0.242 0.508,-0.291 0.429,-0.14 0.938,-0.098 1.524,0.119 l 0.424,0.156 -0.319,0.862 -0.428,-0.158 c -0.257,-0.095 -0.472,-0.146 -0.634,-0.147 -0.164,-0.002 -0.289,0.022 -0.387,0.076 -0.087,0.047 -0.159,0.118 -0.2,0.198 -0.043,0.078 -0.079,0.149 -0.098,0.206 -0.024,0.071 -0.046,0.146 -0.063,0.233 -0.019,0.087 -0.01,0.178 0.024,0.28 0.03,0.103 0.116,0.206 0.238,0.311 0.127,0.108 0.321,0.21 0.579,0.307 l 2.865,1.058 c 0.393,0.148 0.703,0.186 0.934,0.108 0.052,-0.012 0.116,-0.051 0.194,-0.114 0.075,-0.06 0.145,-0.169 0.209,-0.333 0.055,-0.161 0.081,-0.295 0.055,-0.384 -0.019,-0.092 -0.036,-0.17 -0.072,-0.217 -0.134,-0.203 -0.389,-0.376 -0.776,-0.518 l -0.426,-0.159 0.319,-0.86 0.422,0.159 c 0.588,0.217 1.003,0.515 1.237,0.901 0.085,0.141 0.151,0.328 0.198,0.558 0.05,0.23 0.015,0.509 -0.112,0.838"
   id="path432"
   style="fill:#0075ba;fill-opacity:1" />
	<path
   clip-path="url(#SVGID_38_)"
   fill="#ffffff"
   d="m 566.892,129.065 c -0.093,0.328 -0.229,0.578 -0.399,0.741 -0.176,0.164 -0.342,0.28 -0.491,0.344 -0.407,0.165 -0.917,0.159 -1.521,-0.015 l -2.952,-0.842 c -0.607,-0.177 -1.04,-0.44 -1.299,-0.795 -0.049,-0.067 -0.092,-0.145 -0.134,-0.234 -0.043,-0.091 -0.078,-0.194 -0.098,-0.31 -0.026,-0.118 -0.032,-0.247 -0.032,-0.386 0.004,-0.143 0.032,-0.295 0.075,-0.461 0.099,-0.336 0.229,-0.584 0.408,-0.743 0.172,-0.167 0.332,-0.273 0.483,-0.34 0.413,-0.161 0.919,-0.158 1.526,0.014 l 2.95,0.844 c 0.606,0.173 1.038,0.44 1.299,0.796 0.092,0.136 0.176,0.314 0.237,0.545 0.063,0.229 0.045,0.509 -0.052,0.842 m -5.966,-1.703 c -0.018,0.063 -0.035,0.142 -0.047,0.231 -0.009,0.089 0.004,0.18 0.047,0.279 0.04,0.101 0.125,0.197 0.258,0.291 0.127,0.095 0.329,0.179 0.6,0.257 l 2.942,0.844 c 0.272,0.076 0.491,0.108 0.651,0.098 0.162,-0.01 0.281,-0.048 0.372,-0.108 0.088,-0.064 0.15,-0.133 0.188,-0.212 0.036,-0.08 0.064,-0.159 0.082,-0.222 0.022,-0.065 0.038,-0.139 0.043,-0.231 0.015,-0.091 0,-0.184 -0.043,-0.287 -0.04,-0.093 -0.128,-0.191 -0.257,-0.286 -0.131,-0.094 -0.333,-0.18 -0.605,-0.259 l -2.946,-0.845 c -0.269,-0.075 -0.48,-0.105 -0.641,-0.097 -0.161,0.011 -0.286,0.048 -0.372,0.109 -0.091,0.063 -0.149,0.136 -0.188,0.219 -0.038,0.084 -0.067,0.155 -0.084,0.219"
   id="path434"
   style="fill:#0075ba;fill-opacity:1" />
	<path
   clip-path="url(#SVGID_38_)"
   fill="#ffffff"
   d="m 544.656,76.301 c -1.614,-1.129 -2.511,-2.845 -2.685,-3.167 0.431,0.371 1.354,0.931 1.377,0.235 0.061,-1.8 -1.129,-3.821 -1.267,-4.193 -0.381,0.104 -1.244,0.497 -1.768,0.647 -0.958,0.275 -2.504,0.422 -3.48,0.102 -1.548,-0.507 -1.939,-1.401 -2.294,-2.752 0.512,0.34 1.328,0.718 2.001,0.907 0.961,0.274 4.494,0.56 6.001,-1.426 -0.692,-0.16 -3.606,-1.12 -3.896,-1.161 -0.679,-0.577 -0.779,-2.012 -0.349,-2.533 0.35,-0.275 1.214,0.52 1.761,0.769 2.397,1.084 3.646,1.323 3.896,1.361 0.814,-0.958 2.013,-2.229 2.063,-3.432 0.018,-0.369 0.012,-0.501 0.206,-0.489 0.152,0.01 0.783,0.326 0.97,0.996 0.129,0.459 0.869,2.161 -0.108,2.015 -0.311,0.247 -1.203,1.138 -1.365,1.542 1.074,0.296 3.072,1.195 4.136,1.151 0.266,0.164 0.398,0.679 0.159,1.275 -0.063,0.158 -0.501,0.95 -0.896,0.854 -0.795,-0.195 -0.836,-0.315 -1.508,-0.567 -0.318,-0.119 -3.188,-1.122 -3.216,-1.081 -0.254,0.264 -0.724,0.601 -1.006,1.004 0.205,0.261 2.406,5.227 2.52,6.856 0.022,0.338 -0.12,0.714 -0.614,1.196 -0.21,0.205 -0.429,0.02 -0.638,-0.109"
   id="path436"
   style="fill:#0075ba;fill-opacity:1" />
	
	
	
	
	
	
	
</g></g>
</svg>
