<?xml version="1.0" encoding="UTF-8"?>
<svg xmlns="http://www.w3.org/2000/svg" xmlns:xlink="http://www.w3.org/1999/xlink" width="252pt" height="252pt" viewBox="0 0 252 252" version="1.1">
<g id="surface1">
<path style=" stroke:none;fill-rule:nonzero;fill:rgb(100%,100%,100%);fill-opacity:1;" d="M 251.460938 125.945312 C 251.460938 56.632812 195.253906 0.425781 125.945312 0.425781 C 56.632812 0.425781 0.425781 56.632812 0.425781 125.945312 C 0.425781 195.253906 56.632812 251.460938 125.945312 251.460938 C 195.253906 251.460938 251.460938 195.253906 251.460938 125.945312 Z M 251.460938 125.945312 "/>
<path style=" stroke:none;fill-rule:nonzero;fill:rgb(85.882353%,14.901961%,12.156863%);fill-opacity:1;" d="M 120.8125 65.402344 L 131.074219 65.402344 L 131.074219 85.257812 L 120.8125 85.257812 Z M 120.8125 65.402344 "/>
<path style=" stroke:none;fill-rule:nonzero;fill:rgb(0%,57.647059%,86.666667%);fill-opacity:1;" d="M 120.8125 85.257812 L 131.074219 85.257812 L 131.074219 105.117188 L 120.8125 105.117188 Z M 120.8125 85.257812 "/>
<path style=" stroke:none;fill-rule:nonzero;fill:rgb(99.215686%,96.862745%,0.392157%);fill-opacity:1;" d="M 120.8125 105.117188 L 131.074219 105.117188 L 131.074219 124.972656 L 120.8125 124.972656 Z M 120.8125 105.117188 "/>
<path style=" stroke:none;fill-rule:nonzero;fill:rgb(12.156863%,9.803922%,9.803922%);fill-opacity:1;" d="M 120.8125 124.972656 L 131.074219 124.972656 L 131.074219 144.828125 L 120.8125 144.828125 Z M 120.8125 124.972656 "/>
<path style=" stroke:none;fill-rule:nonzero;fill:rgb(0%,57.254902%,25.490196%);fill-opacity:1;" d="M 120.8125 144.828125 L 131.074219 144.828125 L 131.074219 167.199219 L 120.8125 167.199219 Z M 120.8125 144.828125 "/>
<path style=" stroke:none;fill-rule:nonzero;fill:rgb(85.882353%,14.901961%,12.156863%);fill-opacity:1;" d="M 125.945312 204.300781 C 90.519531 204.300781 60.585938 180.785156 50.890625 148.515625 L 32.480469 148.515625 C 42.636719 190.714844 80.632812 222.082031 125.945312 222.082031 C 179.03125 222.082031 222.082031 179.03125 222.082031 125.945312 L 222.078125 125.847656 L 204.300781 125.847656 L 204.304688 125.945312 C 204.304688 169.210938 169.210938 204.300781 125.945312 204.300781 Z M 120.175781 57.113281 L 120.175781 176.753906 L 110.289062 176.753906 L 115.5625 57.113281 Z M 121.175781 105.117188 L 121.175781 56.113281 L 114.605469 56.113281 L 111.230469 132.679688 C 100.980469 134.703125 91.058594 138.933594 82.828125 145.417969 C 75.292969 151.355469 69.253906 159.152344 66.273438 168.335938 C 65.960938 169.289062 65.6875 170.257812 65.445312 171.230469 L 65.292969 171.851562 L 84.804688 171.851562 L 84.914062 171.5 C 88.632812 159.441406 98.878906 150.683594 110.609375 146.75 L 109.246094 177.753906 L 121.175781 177.753906 Z M 83.445312 146.203125 C 91.488281 139.867188 101.175781 135.71875 111.183594 133.710938 L 110.65625 145.679688 C 98.578125 149.621094 88.011719 158.539062 84.070312 170.851562 L 66.574219 170.851562 C 66.769531 170.109375 66.984375 169.375 67.222656 168.644531 C 70.144531 159.652344 76.066406 152.015625 83.445312 146.203125 Z M 136.328125 57.117188 L 141.597656 176.753906 L 131.710938 176.753906 L 131.710938 57.117188 Z M 130.710938 85.257812 L 130.710938 177.753906 L 142.644531 177.753906 L 141.277344 146.75 C 153.011719 150.683594 163.253906 159.441406 166.972656 171.5 L 167.082031 171.851562 L 186.59375 171.851562 L 186.441406 171.230469 C 186.203125 170.257812 185.925781 169.292969 185.617188 168.335938 C 182.632812 159.152344 176.597656 151.355469 169.058594 145.417969 C 160.832031 138.933594 150.90625 134.703125 140.65625 132.679688 L 137.285156 56.117188 L 130.710938 56.117188 Z M 140.703125 133.710938 C 150.714844 135.71875 160.398438 139.867188 168.441406 146.203125 C 175.820312 152.015625 181.742188 159.652344 184.664062 168.644531 C 184.902344 169.375 185.117188 170.109375 185.3125 170.851562 L 167.820312 170.851562 C 163.875 158.539062 153.308594 149.621094 141.230469 145.679688 Z M 139.160156 185.804688 L 136.480469 186.398438 L 136.601562 186.511719 C 136.957031 186.4375 137.238281 186.398438 137.4375 186.398438 C 137.578125 186.398438 137.699219 186.417969 137.800781 186.453125 C 137.898438 186.492188 137.96875 186.550781 138.007812 186.628906 C 138.058594 186.730469 138.085938 186.964844 138.085938 187.328125 L 138.085938 190.03125 C 138.085938 190.332031 138.058594 190.511719 138 190.574219 C 137.9375 190.632812 137.832031 190.683594 137.683594 190.71875 C 137.53125 190.753906 137.195312 190.773438 136.671875 190.777344 L 136.671875 190.914062 L 140.820312 190.914062 L 140.820312 190.777344 C 140.320312 190.773438 139.988281 190.753906 139.828125 190.714844 C 139.664062 190.679688 139.558594 190.625 139.503906 190.558594 C 139.453125 190.488281 139.429688 190.3125 139.429688 190.03125 L 139.429688 185.804688 Z M 132.421875 189.117188 C 132.421875 188.664062 132.0625 188.269531 131.339844 187.933594 C 130.503906 187.546875 129.367188 187.304688 127.929688 187.207031 L 128.652344 186.535156 L 131.96875 186.535156 L 132.601562 185.90625 L 128.652344 185.90625 L 126.539062 187.855469 C 127.558594 187.871094 128.363281 187.933594 128.953125 188.046875 C 129.707031 188.1875 130.296875 188.390625 130.726562 188.652344 C 131.152344 188.917969 131.367188 189.199219 131.367188 189.5 C 131.367188 189.8125 131.128906 190.078125 130.648438 190.296875 C 130.167969 190.515625 129.609375 190.625 128.976562 190.625 C 128.558594 190.625 128.148438 190.558594 127.746094 190.429688 C 127.488281 190.351562 127.308594 190.300781 127.203125 190.28125 C 127.097656 190.261719 126.972656 190.25 126.832031 190.25 C 126.644531 190.25 126.484375 190.277344 126.359375 190.332031 C 126.238281 190.382812 126.175781 190.445312 126.175781 190.511719 C 126.175781 190.636719 126.324219 190.75 126.625 190.851562 C 126.925781 190.953125 127.40625 191.003906 128.070312 191.003906 C 128.722656 191.003906 129.363281 190.9375 129.984375 190.800781 C 130.421875 190.703125 130.824219 190.578125 131.179688 190.421875 C 131.539062 190.261719 131.835938 190.070312 132.070312 189.847656 C 132.304688 189.625 132.421875 189.378906 132.421875 189.117188 Z M 123.832031 187.871094 C 123.832031 187.253906 123.4375 186.734375 122.644531 186.3125 C 122 185.972656 121.226562 185.804688 120.324219 185.804688 C 119.25 185.804688 118.378906 186.011719 117.714844 186.429688 C 117.164062 186.769531 116.886719 187.160156 116.886719 187.597656 C 116.886719 188.050781 117.164062 188.410156 117.714844 188.683594 C 118.265625 188.957031 118.929688 189.089844 119.707031 189.089844 C 120.394531 189.089844 121.160156 188.964844 122.011719 188.71875 C 121.789062 189.148438 121.398438 189.542969 120.832031 189.902344 C 120.265625 190.261719 119.675781 190.515625 119.070312 190.65625 C 118.464844 190.804688 117.808594 190.878906 117.105469 190.882812 L 117.105469 191.019531 L 117.566406 191.019531 C 118.597656 191.019531 119.546875 190.890625 120.421875 190.625 C 121.492188 190.308594 122.328125 189.910156 122.929688 189.429688 C 123.53125 188.949219 123.832031 188.429688 123.832031 187.871094 Z M 122.289062 187.675781 C 122.289062 187.867188 122.238281 188.125 122.144531 188.445312 C 121.882812 188.542969 121.582031 188.621094 121.242188 188.675781 C 120.902344 188.726562 120.605469 188.753906 120.355469 188.753906 C 119.839844 188.753906 119.40625 188.648438 119.054688 188.4375 C 118.574219 188.144531 118.332031 187.738281 118.332031 187.21875 C 118.332031 186.828125 118.511719 186.535156 118.875 186.339844 C 119.238281 186.144531 119.660156 186.042969 120.144531 186.042969 C 120.5625 186.042969 120.933594 186.117188 121.261719 186.265625 C 121.589844 186.414062 121.839844 186.625 122.019531 186.902344 C 122.199219 187.179688 122.289062 187.4375 122.289062 187.675781 Z M 111.976562 190.03125 L 111.976562 185.804688 L 111.707031 185.804688 L 109.027344 186.398438 L 109.148438 186.511719 C 109.507812 186.4375 109.785156 186.398438 109.984375 186.398438 C 110.128906 186.398438 110.246094 186.417969 110.347656 186.453125 C 110.445312 186.492188 110.515625 186.550781 110.554688 186.628906 C 110.605469 186.730469 110.636719 186.964844 110.636719 187.328125 L 110.636719 190.03125 C 110.636719 190.332031 110.605469 190.511719 110.546875 190.574219 C 110.484375 190.632812 110.378906 190.683594 110.230469 190.71875 C 110.078125 190.753906 109.742188 190.773438 109.21875 190.777344 L 109.21875 190.914062 L 113.367188 190.914062 L 113.367188 190.777344 C 112.867188 190.773438 112.535156 190.753906 112.375 190.714844 C 112.210938 190.679688 112.105469 190.625 112.050781 190.558594 C 112.003906 190.488281 111.976562 190.3125 111.976562 190.03125 Z M 153.84375 227.054688 C 153.171875 227.722656 152.148438 228.988281 151.605469 228.640625 C 151.515625 228.03125 152.804688 225.75 153.082031 224.980469 C 153.265625 224.46875 153.933594 223.160156 153.84375 222.714844 C 153.757812 222.472656 153.6875 222.324219 153.511719 222.140625 C 152.527344 222.222656 151.074219 226.660156 150.453125 227.628906 C 149.609375 228.945312 148.984375 230.117188 149.53125 231.71875 C 150.148438 233.523438 151.535156 230.355469 151.847656 231.40625 C 152.019531 231.972656 148.648438 236.539062 151.183594 236.066406 C 152.492188 235.820312 154.550781 232.445312 154.015625 234.839844 C 153.675781 236.355469 154.140625 236.523438 152.589844 237.382812 C 152.109375 237.648438 150.300781 237.671875 150.929688 238.589844 C 151.691406 239.699219 153.597656 238.707031 153.140625 240.082031 C 153.003906 240.492188 152.191406 242.523438 153.371094 242.066406 C 153.710938 241.9375 154.210938 240.558594 154.4375 240.195312 C 155.398438 238.667969 155.273438 237.320312 156.585938 235.578125 C 157.117188 234.871094 159.683594 232.054688 157.910156 231.292969 C 155.605469 230.300781 156.789062 228.53125 154.3125 231.394531 C 153.953125 231.804688 153.679688 232.113281 153.125 231.867188 C 152.980469 231.25 153.339844 230.644531 153.515625 230.042969 C 153.890625 228.765625 155.199219 228.386719 155.609375 226.785156 C 155.886719 225.707031 154.414062 226.492188 153.84375 227.054688 Z M 156.707031 232.765625 C 156.253906 235.824219 154.425781 234.375 155.800781 232.214844 C 156.257812 231.777344 156.800781 232.140625 156.707031 232.765625 Z M 189.066406 212.882812 C 189.761719 213.96875 190.640625 215.085938 190.539062 216.34375 C 190.398438 218.074219 190.152344 217.957031 189.800781 218.953125 C 189.296875 220.386719 188.132812 222.03125 186.921875 222.933594 C 185.644531 223.886719 186.273438 224.269531 187.527344 223.777344 C 188.140625 223.535156 189.183594 223.460938 189.5 223.304688 C 190.902344 222.601562 190.597656 218.898438 191.78125 219.738281 C 193.105469 220.679688 191.804688 224.980469 191.421875 226.199219 C 191.191406 226.945312 191.917969 227.496094 192.40625 226.195312 C 193.183594 224.128906 193.570312 225.113281 193.710938 222.402344 C 193.78125 221.046875 193.941406 218.925781 193.273438 217.746094 C 191.394531 214.433594 194.320312 212.425781 194.882812 209.925781 C 194.738281 209.71875 194.601562 209.660156 194.359375 209.78125 C 193.1875 210.367188 192.640625 213.214844 191.90625 213.046875 C 191.628906 212.984375 188.875 209.140625 188.3125 208.410156 C 187.820312 208.125 187 208.167969 186.429688 207.941406 C 185.316406 207.503906 184.820312 208.285156 186.039062 208.917969 C 187.214844 209.527344 188.355469 211.78125 189.066406 212.882812 Z M 201.542969 216.085938 C 198.195312 217.273438 198.851562 216.710938 196.160156 216.054688 C 194.945312 216.296875 196.675781 217.261719 197.386719 217.476562 C 199.207031 218.03125 199.953125 219.730469 201.824219 218.324219 C 202.445312 217.859375 203.648438 215.964844 203.667969 215.789062 C 203.808594 214.429688 201.9375 215.945312 201.542969 216.085938 Z M 159.089844 239.292969 C 158.125 238.433594 156.945312 238.492188 155.78125 238.808594 L 155.734375 238.910156 C 155.78125 239.039062 155.835938 239.125 155.9375 239.21875 C 156.695312 239.917969 156.554688 239.636719 156.964844 240.597656 C 157.660156 242.222656 161.070312 241.042969 159.089844 239.292969 Z M 146.722656 233.371094 C 145.148438 232.382812 148.054688 231.644531 147.648438 230.347656 C 147.054688 228.453125 144.855469 232.53125 143.535156 233.753906 C 142.105469 235.085938 141.738281 235.585938 140.277344 235.085938 C 138.972656 235.226562 140.101562 236.921875 140.8125 237.203125 C 143.027344 238.082031 145.3125 233.753906 145.546875 233.621094 C 146.773438 234.191406 144.4375 238.332031 144.15625 239.183594 C 143.800781 240.265625 141.210938 244.710938 141.265625 245.160156 C 141.523438 247.222656 145.480469 239.929688 145.636719 239.730469 C 146.820312 238.226562 147.84375 239.375 147.351562 241.007812 C 147.070312 241.929688 146.992188 243.824219 146.761719 244.511719 C 145.953125 246.921875 146.128906 246.152344 145.089844 246.867188 C 145.066406 247.042969 145.152344 247.183594 145.207031 247.355469 C 146.058594 250.074219 148.164062 245.511719 148.539062 243.546875 C 148.785156 242.253906 149.1875 241.347656 149.550781 240.089844 C 150.132812 238.058594 149.210938 236.601562 147.046875 237.542969 C 146.984375 237.511719 146.9375 237.488281 146.902344 237.429688 C 146.304688 236.496094 149.1875 234.921875 146.722656 233.371094 Z M 143.84375 226.089844 C 143.554688 227.164062 147.109375 226.289062 147.082031 224.957031 C 147.042969 223.464844 146.386719 223.242188 145.449219 222.386719 C 145.109375 222.078125 144.503906 222.285156 144.222656 222.589844 C 144.003906 224.167969 144.390625 224.042969 143.84375 226.089844 Z M 250.886719 125.941406 C 250.886719 194.9375 194.9375 250.886719 125.945312 250.886719 C 56.949219 250.886719 1 194.9375 1 125.941406 C 1 56.949219 56.949219 1 125.945312 1 C 194.9375 1 250.886719 56.949219 250.886719 125.941406 Z M 251.886719 125.941406 C 251.886719 56.398438 195.488281 0 125.945312 0 C 56.398438 0 0 56.398438 0 125.941406 C 0 195.488281 56.398438 251.886719 125.945312 251.886719 C 195.488281 251.886719 251.886719 195.488281 251.886719 125.941406 Z M 105.722656 230.652344 C 106.246094 229.816406 105.046875 229.640625 104.539062 229.542969 C 104.363281 229.589844 104.269531 229.707031 104.144531 229.824219 C 103.292969 230.605469 102.628906 230.210938 102.042969 230.261719 C 101.027344 230.347656 101.445312 234.414062 101.582031 235.128906 C 102.109375 237.898438 100.53125 237.039062 99.949219 238.980469 L 100.035156 239 C 100.226562 238.871094 100.378906 238.835938 100.609375 238.855469 C 102.765625 239.042969 101.988281 238.632812 103.253906 241.425781 C 103.621094 242.226562 105.242188 245.324219 106.242188 245.199219 C 108.164062 244.949219 108.394531 241.957031 108.375 240.523438 C 108.347656 238.597656 108.75 236.007812 107.148438 239.742188 C 107.097656 239.851562 106.300781 243.136719 105.007812 241.160156 C 102.703125 237.640625 104.195312 238.785156 104.800781 235.765625 C 105.128906 234.132812 105.0625 233.875 104.015625 232.621094 C 101.890625 230.078125 104.742188 232.230469 105.722656 230.652344 Z M 102.773438 235.6875 C 102.578125 235.058594 102.289062 233.253906 102.464844 232.648438 C 102.585938 232.601562 102.652344 232.597656 102.785156 232.613281 C 104.015625 234.230469 104.078125 236.328125 102.773438 235.6875 Z M 105.074219 227.890625 C 105.726562 227.441406 107.214844 226.617188 106.199219 225.707031 C 105.027344 224.660156 102.152344 226.324219 102.195312 226.484375 C 102.207031 226.523438 102.253906 226.570312 102.277344 226.605469 C 103.324219 227.511719 104.535156 227.339844 103.328125 228.414062 C 103 228.707031 102.277344 229.308594 102.265625 229.773438 L 102.363281 229.867188 C 103.4375 229.699219 104.199219 228.496094 105.074219 227.890625 Z M 99.015625 235.050781 C 99.605469 232.828125 100.332031 232.355469 100.574219 229.953125 C 100.371094 229.390625 100.015625 229.820312 99.886719 230.179688 C 99.28125 231.902344 98.609375 232.230469 97.902344 234.421875 C 97.855469 234.570312 95.851562 238.972656 95.71875 239.226562 C 95.488281 239.660156 94.640625 240.742188 94.289062 241.128906 C 92.089844 243.539062 93.855469 244.90625 94.308594 244.859375 C 94.570312 244.832031 98.355469 241.988281 99.121094 241.566406 C 99.535156 241.339844 101.652344 239.984375 100.304688 239.550781 C 99.601562 239.328125 96.671875 242.253906 96.105469 241.539062 C 95.488281 240.757812 98.203125 238.109375 99.015625 235.050781 Z M 64.417969 214.863281 C 64.921875 214.210938 65.6875 213.679688 66.496094 213.472656 C 67.070312 213.324219 70.398438 214.839844 71.15625 215.136719 C 72.808594 215.785156 73.128906 216.402344 74.628906 216.472656 C 74.832031 215.945312 73.105469 214.304688 72.761719 214.25 C 71.671875 214.082031 73.488281 215.511719 67.6875 212.890625 C 68.4375 211.707031 70.796875 211.125 71.734375 209.824219 C 72.660156 208.535156 71.285156 205.675781 70.097656 207.140625 C 69.355469 208.058594 68.570312 208.917969 67.726562 209.753906 C 65.960938 211.503906 65.632812 212.03125 63.882812 211.230469 C 61.835938 210.292969 61.207031 210.226562 59.574219 208.699219 C 58.222656 207.664062 57.402344 208.824219 58.429688 209.941406 C 58.878906 210.429688 60.851562 210.796875 62.292969 211.40625 C 62.691406 211.574219 63.871094 211.773438 63.875 212.296875 C 63.878906 212.636719 61.296875 213.539062 60.84375 213.535156 C 60.402344 213.527344 58.222656 212.585938 57.839844 213.332031 C 58.109375 214.070312 58.171875 217.089844 59.566406 216.367188 C 60.894531 215.679688 59.792969 216.109375 61.460938 215.925781 C 61.707031 215.902344 62.613281 216.03125 62.679688 216.003906 C 62.722656 215.847656 62.335938 215.65625 62.265625 215.488281 C 62.417969 215.148438 63.863281 215.386719 64.214844 215.445312 C 64.503906 215.492188 68.375 216.675781 68.628906 216.804688 C 69.109375 217.054688 69.792969 217.785156 69.589844 218.359375 C 69.433594 218.792969 66.273438 221.199219 65.605469 221.570312 C 64.027344 222.445312 60.382812 226.6875 59.054688 226.828125 C 58.542969 226.371094 58.90625 222.863281 58.996094 222.035156 C 59.242188 219.8125 60.417969 222.230469 59.925781 219.570312 C 60.261719 219.132812 61.21875 219.5 60.714844 218.707031 C 59.730469 217.171875 62.128906 217.945312 64.160156 217.769531 C 66.886719 217.527344 64.238281 215.675781 64.066406 216.070312 C 65.183594 217.191406 62.289062 216.886719 60.625 217.183594 C 59.625 217.359375 59.039062 217.320312 58.066406 217.402344 L 57.96875 217.53125 C 58.015625 217.601562 58.03125 217.648438 58.046875 217.730469 C 57.882812 217.933594 57.847656 218.164062 57.710938 218.375 C 57.167969 219.222656 55.957031 218.46875 56.007812 219.765625 C 56.074219 221.355469 55.714844 220.945312 54.8125 222.042969 C 54.320312 222.644531 54.578125 223.449219 55.226562 223.804688 C 56.203125 223.480469 56.789062 222.0625 57.832031 221.730469 C 57.933594 221.789062 57.996094 221.839844 58.03125 221.960938 C 58.148438 222.371094 57.007812 228.175781 57.765625 228.703125 C 58.640625 229.3125 60.449219 227.523438 61.109375 226.992188 C 62.703125 225.707031 64.023438 224 65.773438 222.933594 C 67.402344 221.941406 67.789062 221.445312 69.203125 220.082031 C 69.792969 219.515625 71.285156 218.539062 70.488281 217.613281 C 68.851562 215.714844 66.765625 215.40625 64.417969 214.863281 Z M 52.40625 217.042969 C 53.1875 215.734375 52.4375 216.582031 53.773438 214.800781 C 53.792969 214.675781 53.828125 214.519531 53.734375 214.410156 C 53.300781 213.898438 49.992188 215.535156 49.800781 216.644531 C 49.46875 218.550781 51.175781 219.105469 52.40625 217.042969 Z M 30.429688 186.257812 C 30.917969 185.695312 31.742188 186.113281 32.679688 186.253906 C 33.828125 186.425781 35.433594 186.160156 36.453125 186.730469 C 37.105469 187.246094 38.894531 188.0625 39.171875 188.5625 C 38.679688 189.023438 37.589844 188.472656 35.472656 188.425781 C 33.894531 188.390625 33.632812 188.195312 31.804688 188.285156 L 30.96875 188.308594 C 30.730469 187.640625 30.53125 186.960938 30.429688 186.257812 Z M 34.941406 190.378906 C 37.128906 190.261719 39.652344 191.253906 41.8125 191.410156 C 42.648438 191.472656 42.910156 190.777344 42.898438 190.210938 C 42.867188 188.945312 39.746094 187.828125 38.882812 187.003906 L 38.878906 186.757812 C 39.171875 186.464844 39.601562 186.417969 39.898438 186.15625 C 40.121094 185.957031 40.0625 185.632812 40.214844 185.421875 C 40.511719 185.015625 42.34375 186.007812 42.714844 184.574219 C 43.175781 182.789062 41.25 182.160156 40.140625 181.195312 C 39.28125 180.445312 38.246094 179.335938 37.285156 178.476562 C 36.015625 177.792969 35.910156 178.636719 36.027344 179.765625 C 36.273438 182.238281 38.820312 182.644531 38.007812 183.28125 C 37.875 183.382812 35.800781 183.570312 35.546875 183.546875 C 31.320312 183.121094 34.875 179.605469 32.890625 179.652344 C 31.519531 179.683594 31.640625 179.941406 30.503906 180.4375 C 29.902344 180.703125 27.949219 179.945312 27.730469 180.410156 C 27.292969 181.335938 28.199219 182.484375 27.917969 182.808594 C 27.710938 183.046875 25.429688 183.050781 25.347656 184.40625 C 25.164062 187.574219 28.0625 187.0625 28.035156 188.292969 C 27.972656 191.089844 33.277344 190.46875 34.941406 190.378906 Z M 23.605469 183.933594 C 24.226562 183.882812 25.964844 182.042969 26.148438 181.738281 C 27.371094 179.71875 25.375 177.789062 24.972656 177.617188 C 24.867188 177.613281 24.695312 177.570312 24.621094 177.679688 C 24.1875 178.335938 25.417969 178.175781 23.578125 179.417969 C 20.980469 181.171875 21.625 184.097656 23.605469 183.933594 Z M 18.128906 139.3125 C 18.363281 139.28125 18.582031 139.386719 18.792969 139.621094 C 19.003906 139.863281 19.136719 140.21875 19.195312 140.699219 C 19.273438 141.339844 19.164062 141.859375 18.855469 142.246094 C 18.667969 142.484375 18.371094 142.664062 17.972656 142.78125 L 18.519531 145.957031 C 19.378906 145.757812 20.042969 145.269531 20.515625 144.484375 C 20.996094 143.707031 21.117188 142.390625 20.890625 140.542969 C 20.761719 139.492188 20.535156 138.632812 20.210938 137.972656 C 19.882812 137.308594 19.464844 136.8125 18.953125 136.484375 C 18.441406 136.160156 17.910156 136.027344 17.359375 136.09375 C 16.886719 136.152344 16.480469 136.351562 16.140625 136.683594 C 15.792969 137.019531 15.535156 137.523438 15.355469 138.1875 C 15.179688 138.855469 15.054688 139.9375 14.984375 141.433594 C 14.957031 142.039062 14.902344 142.425781 14.804688 142.601562 C 14.714844 142.777344 14.605469 142.871094 14.46875 142.890625 C 14.28125 142.914062 14.109375 142.832031 13.953125 142.652344 C 13.796875 142.46875 13.695312 142.183594 13.648438 141.792969 C 13.589844 141.320312 13.632812 140.9375 13.773438 140.648438 C 13.917969 140.355469 14.175781 140.144531 14.554688 140.011719 L 14.019531 136.867188 C 13.144531 137.113281 12.546875 137.625 12.230469 138.40625 C 11.910156 139.183594 11.835938 140.269531 12.007812 141.65625 C 12.144531 142.789062 12.367188 143.664062 12.671875 144.289062 C 12.976562 144.910156 13.34375 145.359375 13.777344 145.632812 C 14.210938 145.910156 14.648438 146.019531 15.089844 145.964844 C 15.761719 145.882812 16.273438 145.5 16.632812 144.8125 C 16.988281 144.132812 17.207031 143.039062 17.289062 141.535156 C 17.332031 140.617188 17.429688 140.023438 17.574219 139.753906 C 17.71875 139.484375 17.90625 139.339844 18.128906 139.3125 Z M 15.597656 135.355469 C 16.609375 135.339844 17.445312 135.074219 18.109375 134.558594 C 18.777344 134.042969 19.253906 133.378906 19.554688 132.566406 C 19.851562 131.75 19.988281 130.726562 19.964844 129.492188 C 19.945312 128.277344 19.746094 127.265625 19.371094 126.457031 C 18.996094 125.652344 18.484375 125.039062 17.828125 124.617188 C 17.175781 124.199219 16.339844 123.996094 15.328125 124.015625 C 13.933594 124.039062 12.859375 124.550781 12.105469 125.550781 C 11.347656 126.550781 10.984375 127.960938 11.015625 129.78125 C 11.046875 131.558594 11.464844 132.9375 12.269531 133.921875 C 13.074219 134.902344 14.183594 135.382812 15.597656 135.355469 Z M 17.421875 131.324219 C 17.046875 131.742188 16.425781 131.957031 15.550781 131.972656 C 14.667969 131.988281 14.03125 131.792969 13.644531 131.386719 C 13.253906 130.980469 13.054688 130.4375 13.042969 129.753906 C 13.03125 129.042969 13.207031 128.476562 13.574219 128.054688 C 13.945312 127.632812 14.535156 127.410156 15.351562 127.398438 C 16.320312 127.378906 16.996094 127.570312 17.375 127.960938 C 17.757812 128.351562 17.953125 128.914062 17.964844 129.640625 C 17.980469 130.34375 17.796875 130.910156 17.421875 131.324219 Z M 10.992188 122.125 L 16.132812 122.574219 C 16.558594 122.609375 17.054688 122.546875 17.621094 122.386719 C 17.972656 122.289062 18.324219 122.078125 18.675781 121.757812 C 19.027344 121.433594 19.3125 121.070312 19.523438 120.664062 C 19.734375 120.257812 19.898438 119.746094 20.011719 119.121094 C 20.125 118.5 20.203125 117.925781 20.25 117.394531 C 20.332031 116.472656 20.304688 115.679688 20.167969 115.007812 C 20.074219 114.523438 19.875 114.054688 19.574219 113.597656 C 19.269531 113.136719 18.902344 112.789062 18.46875 112.546875 C 18.03125 112.308594 17.558594 112.164062 17.050781 112.117188 L 11.90625 111.667969 L 11.613281 115.035156 L 16.878906 115.496094 C 17.355469 115.535156 17.710938 115.734375 17.941406 116.082031 C 18.175781 116.4375 18.265625 116.90625 18.214844 117.484375 C 18.164062 118.070312 17.992188 118.515625 17.695312 118.824219 C 17.40625 119.128906 17.023438 119.261719 16.550781 119.21875 L 11.285156 118.757812 Z M 14.808594 107.050781 L 21.207031 108.292969 L 21.851562 104.972656 L 15.453125 103.730469 L 16.109375 100.34375 L 14.011719 99.933594 L 12.050781 110.027344 L 14.148438 110.4375 Z M 14.402344 98.25 L 22.679688 100.78125 L 23.671875 97.546875 L 20.320312 96.523438 L 21.402344 92.984375 L 24.75 94.007812 L 25.746094 90.757812 L 17.464844 88.226562 L 16.472656 91.476562 L 19.367188 92.363281 L 18.289062 95.898438 L 15.390625 95.015625 Z M 20.46875 81.234375 L 24.140625 84.804688 L 19.265625 83.8125 L 17.910156 86.722656 L 26.785156 88.175781 L 28.1875 85.167969 L 24.054688 81.132812 L 29.804688 81.695312 L 31.207031 78.691406 L 24.378906 72.847656 L 23.027344 75.742188 L 26.921875 78.835938 L 21.824219 78.328125 Z M 35.523438 67.3125 L 32.515625 72.320312 L 31.054688 71.441406 L 33.765625 66.929688 L 32.25 66.019531 L 29.539062 70.53125 L 28.359375 69.820312 L 31.28125 64.957031 L 29.695312 64.007812 L 25.027344 71.773438 L 32.449219 76.234375 L 37.203125 68.324219 Z M 39.777344 61.921875 C 39.765625 62.238281 39.621094 62.589844 39.335938 62.980469 C 38.957031 63.503906 38.523438 63.808594 38.035156 63.882812 C 37.734375 63.925781 37.394531 63.855469 37.019531 63.667969 L 35.257812 66.367188 C 36.019531 66.804688 36.839844 66.902344 37.71875 66.652344 C 38.601562 66.40625 39.585938 65.53125 40.683594 64.023438 C 41.304688 63.167969 41.722656 62.382812 41.9375 61.679688 C 42.152344 60.972656 42.183594 60.324219 42.03125 59.734375 C 41.882812 59.144531 41.582031 58.6875 41.132812 58.359375 C 40.75 58.082031 40.316406 57.949219 39.839844 57.960938 C 39.359375 57.972656 38.828125 58.160156 38.242188 58.527344 C 37.65625 58.894531 36.828125 59.597656 35.753906 60.644531 C 35.324219 61.074219 35.015625 61.316406 34.828125 61.378906 C 34.644531 61.445312 34.496094 61.4375 34.386719 61.359375 C 34.230469 61.246094 34.160156 61.070312 34.171875 60.835938 C 34.179688 60.59375 34.300781 60.316406 34.535156 60 C 34.8125 59.613281 35.105469 59.363281 35.40625 59.246094 C 35.710938 59.128906 36.046875 59.152344 36.410156 59.3125 L 38.164062 56.648438 C 37.355469 56.234375 36.570312 56.199219 35.804688 56.554688 C 35.042969 56.90625 34.246094 57.648438 33.425781 58.78125 C 32.753906 59.703125 32.320312 60.496094 32.117188 61.15625 C 31.917969 61.820312 31.878906 62.398438 32.007812 62.894531 C 32.136719 63.390625 32.378906 63.769531 32.742188 64.035156 C 33.289062 64.429688 33.925781 64.5 34.65625 64.242188 C 35.378906 63.988281 36.285156 63.335938 37.371094 62.292969 C 38.03125 61.652344 38.503906 61.28125 38.792969 61.183594 C 39.085938 61.085938 39.320312 61.105469 39.5 61.238281 C 39.691406 61.378906 39.785156 61.605469 39.777344 61.921875 Z M 41.109375 53.070312 L 45.957031 57.429688 L 48.21875 54.917969 L 43.375 50.554688 L 45.683594 47.992188 L 44.09375 46.558594 L 37.210938 54.199219 L 38.800781 55.632812 Z M 55.628906 36.648438 L 58.808594 40.867188 C 59.097656 41.25 59.191406 41.648438 59.082031 42.054688 C 58.976562 42.464844 58.6875 42.84375 58.226562 43.195312 C 57.753906 43.546875 57.308594 43.71875 56.882812 43.703125 C 56.460938 43.691406 56.105469 43.496094 55.824219 43.117188 L 52.640625 38.898438 L 49.945312 40.929688 L 53.050781 45.054688 C 53.308594 45.390625 53.683594 45.71875 54.183594 46.03125 C 54.492188 46.226562 54.882812 46.351562 55.359375 46.394531 C 55.832031 46.441406 56.292969 46.410156 56.738281 46.292969 C 57.179688 46.179688 57.671875 45.957031 58.207031 45.625 C 58.746094 45.292969 59.230469 44.964844 59.652344 44.644531 C 60.390625 44.089844 60.960938 43.539062 61.371094 42.992188 C 61.667969 42.59375 61.882812 42.132812 62.023438 41.601562 C 62.160156 41.070312 62.175781 40.5625 62.0625 40.078125 C 61.949219 39.59375 61.738281 39.144531 61.433594 38.738281 L 58.324219 34.613281 Z M 60.164062 33.316406 L 64.75 40.660156 L 67.449219 38.972656 L 64.929688 34.941406 L 70.925781 36.800781 L 73.628906 35.109375 L 69.042969 27.769531 L 66.339844 29.457031 L 68.875 33.519531 L 62.84375 31.640625 Z M 71.253906 26.644531 L 75.050781 34.425781 L 78.097656 32.941406 L 74.300781 25.15625 Z M 82.90625 21.15625 L 83.109375 27.839844 L 78.40625 23.066406 L 75.148438 24.449219 L 82.339844 30.804688 L 85.714844 29.371094 L 86.070312 19.8125 Z M 87.246094 19.621094 L 89.921875 27.855469 L 98.699219 25.003906 L 98.09375 23.140625 L 92.539062 24.945312 L 92.011719 23.320312 L 97.019531 21.695312 L 96.472656 20.015625 L 91.46875 21.640625 L 91.042969 20.332031 L 96.4375 18.578125 L 95.867188 16.820312 Z M 104.652344 18.09375 C 104.542969 18.261719 104.382812 18.390625 104.167969 18.472656 C 103.75 18.640625 103.46875 18.742188 103.316406 18.773438 L 101.921875 19.070312 L 101.554688 17.347656 L 103.007812 17.039062 C 103.613281 16.910156 104.039062 16.898438 104.289062 16.996094 C 104.542969 17.097656 104.695312 17.28125 104.753906 17.558594 C 104.792969 17.742188 104.757812 17.921875 104.652344 18.09375 Z M 97.871094 16.34375 L 99.667969 24.816406 L 102.992188 24.109375 L 102.261719 20.671875 L 102.554688 20.609375 C 102.855469 20.546875 103.140625 20.550781 103.40625 20.632812 C 103.605469 20.695312 103.851562 20.871094 104.144531 21.15625 L 106.464844 23.371094 L 110.203125 22.574219 L 108.082031 20.460938 C 107.976562 20.351562 107.785156 20.210938 107.503906 20.03125 C 107.226562 19.855469 107.015625 19.746094 106.882812 19.703125 C 106.679688 19.636719 106.371094 19.59375 105.953125 19.570312 C 106.425781 19.378906 106.789062 19.1875 107.042969 18.992188 C 107.441406 18.683594 107.730469 18.332031 107.914062 17.9375 C 108.089844 17.542969 108.132812 17.113281 108.03125 16.640625 C 107.917969 16.101562 107.65625 15.679688 107.246094 15.375 C 106.832031 15.070312 106.34375 14.90625 105.773438 14.882812 C 105.203125 14.859375 104.40625 14.957031 103.382812 15.171875 Z M 109.675781 16.539062 C 109.761719 17.210938 110.144531 17.726562 110.828125 18.082031 C 111.511719 18.4375 112.601562 18.65625 114.109375 18.738281 C 115.027344 18.785156 115.621094 18.878906 115.890625 19.023438 C 116.160156 19.171875 116.304688 19.355469 116.332031 19.578125 C 116.359375 19.8125 116.257812 20.035156 116.019531 20.242188 C 115.78125 20.453125 115.421875 20.585938 114.945312 20.644531 C 114.300781 20.726562 113.785156 20.613281 113.398438 20.308594 C 113.160156 20.117188 112.980469 19.824219 112.859375 19.421875 L 109.683594 19.972656 C 109.886719 20.828125 110.375 21.492188 111.15625 21.96875 C 111.9375 22.445312 113.253906 22.566406 115.097656 22.339844 C 116.152344 22.210938 117.011719 21.984375 117.671875 21.660156 C 118.335938 21.335938 118.832031 20.917969 119.15625 20.402344 C 119.484375 19.890625 119.617188 19.359375 119.550781 18.808594 C 119.492188 18.339844 119.292969 17.933594 118.957031 17.589844 C 118.625 17.246094 118.121094 16.984375 117.457031 16.808594 C 116.789062 16.628906 115.707031 16.503906 114.210938 16.433594 C 113.601562 16.410156 113.214844 16.351562 113.042969 16.257812 C 112.867188 16.167969 112.769531 16.054688 112.753906 15.917969 C 112.730469 15.730469 112.808594 15.558594 112.992188 15.402344 C 113.171875 15.246094 113.457031 15.148438 113.851562 15.097656 C 114.324219 15.042969 114.707031 15.082031 114.996094 15.226562 C 115.289062 15.367188 115.5 15.628906 115.632812 16.003906 L 118.777344 15.46875 C 118.53125 14.597656 118.015625 14 117.238281 13.679688 C 116.460938 13.363281 115.375 13.289062 113.984375 13.457031 C 112.855469 13.597656 111.976562 13.816406 111.355469 14.121094 C 110.734375 14.429688 110.285156 14.796875 110.007812 15.226562 C 109.734375 15.660156 109.621094 16.097656 109.675781 16.539062 Z M 120.890625 13.113281 L 121.042969 21.769531 L 124.429688 21.710938 L 124.28125 13.050781 Z M 125.4375 15.15625 L 128.886719 15.21875 L 128.773438 21.734375 L 132.15625 21.796875 L 132.269531 15.277344 L 135.71875 15.335938 L 135.757812 13.199219 L 125.476562 13.019531 L 125.441406 15.15625 Z M 136.324219 13.441406 L 139.941406 18.953125 L 139.5 22.554688 L 142.867188 22.96875 L 143.308594 19.367188 L 148.144531 14.890625 L 144.441406 14.4375 L 141.890625 17.070312 L 140.054688 13.898438 Z M 155.023438 16.746094 L 152.785156 25.109375 L 156.066406 25.988281 L 156.980469 22.570312 L 161.078125 23.667969 L 161.53125 21.980469 L 157.433594 20.882812 L 157.824219 19.421875 L 162.625 20.707031 L 163.105469 18.910156 Z M 165.59375 21.019531 C 164.382812 21.398438 163.523438 22.246094 163.015625 23.566406 C 162.652344 24.511719 162.585938 25.386719 162.8125 26.195312 C 163.042969 27.007812 163.480469 27.699219 164.121094 28.28125 C 164.765625 28.863281 165.664062 29.375 166.816406 29.816406 C 167.953125 30.25 168.960938 30.445312 169.851562 30.402344 C 170.742188 30.355469 171.5 30.109375 172.136719 29.660156 C 172.769531 29.207031 173.269531 28.511719 173.632812 27.566406 C 174.132812 26.265625 174.058594 25.074219 173.417969 24.003906 C 172.773438 22.925781 171.601562 22.0625 169.898438 21.410156 C 168.242188 20.773438 166.804688 20.640625 165.59375 21.019531 Z M 166.171875 24.789062 C 166.488281 23.96875 166.90625 23.453125 167.429688 23.242188 C 167.949219 23.035156 168.53125 23.054688 169.167969 23.296875 C 169.832031 23.554688 170.292969 23.929688 170.542969 24.429688 C 170.796875 24.929688 170.78125 25.558594 170.488281 26.320312 C 170.140625 27.226562 169.710938 27.78125 169.207031 27.988281 C 168.699219 28.195312 168.109375 28.167969 167.429688 27.90625 C 166.769531 27.652344 166.316406 27.273438 166.070312 26.769531 C 165.824219 26.265625 165.859375 25.609375 166.171875 24.789062 Z M 177.089844 24.703125 L 172.894531 32.273438 L 175.867188 33.921875 L 177.570312 30.847656 L 177.832031 30.992188 C 178.101562 31.140625 178.308594 31.335938 178.457031 31.570312 C 178.566406 31.746094 178.636719 32.042969 178.671875 32.449219 L 178.96875 35.640625 L 182.3125 37.496094 L 182.097656 34.507812 C 182.089844 34.355469 182.039062 34.125 181.945312 33.804688 C 181.851562 33.488281 181.765625 33.269531 181.691406 33.148438 C 181.582031 32.964844 181.375 32.726562 181.074219 32.4375 C 181.558594 32.605469 181.960938 32.695312 182.28125 32.71875 C 182.78125 32.746094 183.230469 32.671875 183.625 32.492188 C 184.019531 32.3125 184.335938 32.015625 184.566406 31.59375 C 184.835938 31.109375 184.914062 30.621094 184.804688 30.121094 C 184.695312 29.621094 184.429688 29.175781 184.015625 28.78125 C 183.601562 28.390625 182.9375 27.941406 182.023438 27.433594 Z M 178.363281 29.417969 L 179.214844 27.878906 L 180.515625 28.597656 C 181.054688 28.898438 181.386719 29.164062 181.511719 29.40625 C 181.632812 29.644531 181.628906 29.886719 181.492188 30.132812 C 181.402344 30.296875 181.257812 30.410156 181.0625 30.46875 C 180.867188 30.527344 180.664062 30.515625 180.449219 30.441406 C 180.023438 30.292969 179.746094 30.183594 179.609375 30.109375 Z M 192.597656 33.949219 L 187.386719 40.863281 L 189.925781 42.777344 L 192.789062 38.980469 L 193.203125 45.246094 L 195.75 47.164062 L 200.960938 40.25 L 198.414062 38.332031 L 195.53125 42.15625 L 195.121094 35.851562 Z M 204.777344 43.796875 L 195.863281 47.324219 L 198.390625 49.679688 L 199.753906 48.996094 L 202.574219 51.625 L 201.992188 53.039062 L 204.582031 55.453125 L 207.476562 46.3125 Z M 204.570312 46.671875 L 203.332031 49.773438 L 201.566406 48.125 Z M 209.847656 48.796875 L 208.257812 50.226562 L 210.566406 52.789062 L 205.71875 57.152344 L 207.984375 59.667969 L 212.828125 55.304688 L 215.136719 57.867188 L 216.726562 56.4375 Z M 217.679688 57.875 L 210.675781 62.964844 L 212.667969 65.707031 L 219.671875 60.617188 Z M 220.527344 63.730469 C 219.320312 63.347656 218.128906 63.546875 216.957031 64.339844 C 216.117188 64.90625 215.5625 65.585938 215.285156 66.378906 C 215.007812 67.171875 214.964844 67.992188 215.160156 68.835938 C 215.355469 69.679688 215.796875 70.617188 216.488281 71.636719 C 217.167969 72.644531 217.882812 73.386719 218.636719 73.859375 C 219.390625 74.332031 220.15625 74.566406 220.933594 74.5625 C 221.710938 74.554688 222.519531 74.269531 223.359375 73.707031 C 224.515625 72.925781 225.136719 71.910156 225.226562 70.664062 C 225.316406 69.410156 224.851562 68.03125 223.835938 66.519531 C 222.839844 65.046875 221.738281 64.117188 220.527344 63.730469 Z M 217.621094 68.714844 C 217.707031 68.160156 218.113281 67.640625 218.839844 67.152344 C 219.570312 66.660156 220.210938 66.476562 220.757812 66.605469 C 221.304688 66.734375 221.769531 67.082031 222.148438 67.648438 C 222.550781 68.238281 222.707031 68.808594 222.628906 69.363281 C 222.550781 69.917969 222.171875 70.425781 221.496094 70.882812 C 220.695312 71.421875 220.027344 71.632812 219.492188 71.511719 C 218.960938 71.390625 218.492188 71.027344 218.085938 70.425781 C 217.6875 69.839844 217.535156 69.269531 217.621094 68.714844 Z M 227.9375 73.597656 L 220.089844 77.257812 L 221.433594 80.140625 L 225.742188 78.128906 L 223.167969 83.855469 L 224.515625 86.746094 L 232.363281 83.085938 L 231.015625 80.199219 L 226.671875 82.222656 L 229.273438 76.460938 Z M 234.097656 87.90625 L 224.554688 87 L 225.734375 90.25 L 227.261719 90.257812 L 228.578125 93.878906 L 227.417969 94.875 L 228.628906 98.203125 L 235.359375 91.371094 Z M 229.269531 90.304688 L 232.605469 90.371094 L 230.097656 92.574219 Z M 236.855469 96.5 L 228.457031 98.597656 L 230.550781 107.003906 L 232.621094 106.488281 L 231.34375 101.363281 L 237.675781 99.785156 Z M 239.019531 106.28125 L 230.519531 107.933594 L 231.164062 111.261719 L 239.664062 109.609375 Z M 238.164062 115 L 231.667969 115.570312 L 231.964844 118.9375 L 238.457031 118.371094 L 238.757812 121.808594 L 240.890625 121.621094 L 239.992188 111.378906 L 237.863281 111.566406 Z M 240.679688 122.894531 L 232.023438 123.195312 L 232.144531 126.585938 L 240.796875 126.28125 Z M 240.832031 128.859375 L 232.195312 128.257812 L 231.550781 137.464844 L 233.507812 137.601562 L 233.917969 131.773438 L 235.617188 131.894531 L 235.25 137.144531 L 237.011719 137.269531 L 237.378906 132.015625 L 238.753906 132.113281 L 238.355469 137.773438 L 240.203125 137.902344 Z M 237.707031 139.441406 C 237.042969 139.324219 236.4375 139.542969 235.894531 140.09375 C 235.355469 140.640625 234.828125 141.621094 234.3125 143.035156 C 234 143.902344 233.734375 144.441406 233.515625 144.65625 C 233.296875 144.871094 233.078125 144.957031 232.855469 144.917969 C 232.625 144.875 232.441406 144.710938 232.3125 144.425781 C 232.179688 144.136719 232.15625 143.753906 232.242188 143.277344 C 232.355469 142.640625 232.609375 142.179688 233.015625 141.898438 C 233.269531 141.726562 233.601562 141.640625 234.023438 141.644531 L 234.425781 138.445312 C 233.546875 138.386719 232.765625 138.660156 232.085938 139.269531 C 231.398438 139.878906 230.898438 141.097656 230.574219 142.929688 C 230.390625 143.976562 230.359375 144.863281 230.476562 145.589844 C 230.589844 146.320312 230.847656 146.914062 231.242188 147.378906 C 231.636719 147.839844 232.105469 148.125 232.652344 148.21875 C 233.117188 148.300781 233.566406 148.230469 233.992188 148.011719 C 234.417969 147.792969 234.8125 147.386719 235.179688 146.800781 C 235.542969 146.214844 235.980469 145.21875 236.484375 143.808594 C 236.683594 143.234375 236.855469 142.882812 236.996094 142.742188 C 237.132812 142.601562 237.269531 142.542969 237.402344 142.566406 C 237.589844 142.597656 237.730469 142.726562 237.824219 142.945312 C 237.921875 143.164062 237.933594 143.464844 237.867188 143.855469 C 237.78125 144.324219 237.628906 144.675781 237.410156 144.914062 C 237.1875 145.148438 236.878906 145.277344 236.480469 145.292969 L 236.070312 148.457031 C 236.980469 148.476562 237.699219 148.160156 238.234375 147.507812 C 238.765625 146.855469 239.152344 145.839844 239.394531 144.464844 C 239.59375 143.339844 239.636719 142.4375 239.53125 141.753906 C 239.417969 141.070312 239.199219 140.53125 238.867188 140.144531 C 238.535156 139.753906 238.148438 139.519531 237.707031 139.441406 Z M 220.09375 180.414062 C 219.96875 179.15625 220.195312 174.859375 218.910156 174.203125 C 217.558594 173.507812 218.003906 176.175781 217.710938 177.050781 L 217.515625 177.125 C 216.679688 176.683594 216.070312 175.683594 215.390625 175.039062 C 214.46875 174.175781 213.789062 173.199219 212.972656 172.246094 C 211.488281 170.503906 211.394531 175.019531 212.042969 175.351562 C 212.683594 174.585938 213.089844 175.164062 213.605469 175.746094 C 214.257812 176.480469 215.609375 177.355469 215.871094 178.289062 C 215.523438 178.664062 214.925781 178.585938 214.640625 178.171875 C 214.140625 177.449219 213.230469 177.53125 213.003906 178.449219 C 213.261719 178.59375 213.523438 178.757812 213.796875 178.875 C 215.269531 179.511719 214.84375 180.207031 216.941406 179.136719 C 217.296875 179.492188 217.539062 179.9375 217.65625 180.433594 C 218.007812 181.945312 217.417969 181.503906 216.40625 181.664062 C 214.953125 181.898438 215.132812 180.496094 214.203125 181.066406 C 213.339844 181.597656 213.601562 181.675781 214.347656 182.578125 C 215.191406 183.609375 214.226562 183.699219 214.027344 184.628906 C 214.371094 184.910156 214.867188 184.585938 215.199219 184.410156 C 216.019531 183.988281 216.199219 185.726562 216.761719 186.457031 L 216.851562 186.457031 C 217.085938 185.882812 216.828125 185.128906 216.617188 184.566406 C 216.34375 183.835938 217.265625 183.648438 217.550781 184.066406 C 217.730469 184.324219 218.285156 190.074219 218.335938 190.828125 L 218.457031 190.910156 C 220.371094 190.332031 218.941406 185.804688 218.714844 184.527344 C 218.515625 183.402344 218.347656 177.582031 218.511719 177.160156 C 218.632812 177.132812 218.710938 177.136719 218.835938 177.15625 C 219.414062 178.113281 219.367188 181.289062 220.074219 181.726562 C 220.355469 181.386719 220.132812 180.820312 220.09375 180.414062 Z M 212.140625 181.441406 C 211.496094 180.03125 211.671875 180.160156 211.242188 178.941406 C 210.457031 176.730469 208.925781 178.242188 208.800781 179.128906 C 209.683594 179.917969 209.429688 178.703125 211.074219 181.582031 C 211.582031 182.113281 211.414062 182.433594 211.402344 182.730469 C 211.398438 182.972656 212.203125 183.3125 212.4375 183.171875 C 212.519531 182.785156 212.265625 182.445312 212.304688 182.066406 C 212.417969 181.019531 213.570312 180.8125 213.402344 179.992188 C 212.648438 179.492188 212.382812 180.910156 212.140625 181.441406 Z M 211.828125 187.058594 C 211.8125 185.707031 211.550781 184.085938 209.796875 184.945312 C 209.605469 185.035156 209.4375 185.121094 209.5 185.34375 C 211.019531 186.460938 211.25 187.601562 211.828125 187.058594 Z M 215.128906 185.960938 C 214.484375 185.929688 214.261719 186.8125 213.648438 186.835938 C 213.449219 186.449219 213.636719 186.019531 213.292969 185.703125 C 213.207031 185.636719 213.15625 185.613281 213.054688 185.597656 C 212.070312 186.574219 213.425781 186.769531 213.625 186.976562 C 214.359375 187.726562 215.742188 186.753906 215.128906 185.960938 Z M 217.378906 188.96875 C 217.628906 187.195312 214.984375 188.160156 214.324219 188.09375 C 213.734375 188.25 214.277344 188.683594 214.582031 188.789062 C 215.464844 189.097656 216.546875 189.527344 217.378906 188.96875 Z M 221.6875 192.644531 C 221.242188 192.011719 219.585938 192.410156 219.078125 192.773438 C 219.085938 192.917969 219.105469 193.042969 219.136719 193.179688 C 219.613281 194.570312 222.429688 193.699219 221.6875 192.644531 Z M 222.414062 183.761719 C 224.84375 187.210938 223.1875 185.15625 223.648438 188.351562 C 223.867188 189.839844 223.558594 192.105469 224.640625 191.496094 C 227.273438 190.023438 224.96875 187.078125 225.730469 186.09375 C 225.960938 185.796875 227.808594 186.40625 228.117188 186.550781 C 229.265625 187.089844 227.625 189.5 227.71875 189.929688 C 227.929688 189.894531 228.195312 189.816406 228.367188 189.679688 C 228.628906 189.476562 230.058594 187.277344 230.238281 186.890625 C 230.699219 185.902344 230.722656 185.472656 229.652344 185.066406 C 227.886719 184.402344 227.863281 184.640625 226.3125 184.613281 C 225.015625 184.585938 225.582031 182.472656 225.6875 181.761719 C 225.953125 179.988281 224.335938 180.015625 224.007812 181.277344 C 223.789062 182.136719 224.269531 186.28125 222.714844 182.0625 C 222.457031 181.363281 221.367188 180.421875 220.9375 181.445312 C 220.570312 182.324219 221.144531 182.101562 220.59375 184.148438 C 220.53125 184.429688 220.507812 184.636719 220.585938 184.917969 C 221.441406 185.261719 221.375 183.671875 221.789062 183.25 C 222.046875 183.253906 222.273438 183.558594 222.414062 183.761719 Z M 47.585938 125.941406 C 47.585938 82.675781 82.675781 47.585938 125.945312 47.585938 C 161.457031 47.585938 191.457031 71.226562 201.070312 103.625 L 219.46875 103.625 C 209.402344 61.296875 171.34375 29.804688 125.941406 29.804688 C 72.855469 29.804688 29.804688 72.855469 29.804688 125.941406 C 29.804688 126.058594 29.808594 126.175781 29.808594 126.289062 L 47.589844 126.289062 C 47.589844 126.175781 47.585938 126.058594 47.585938 125.941406 Z M 47.585938 125.941406 "/>
</g>
</svg>
