<?xml version="1.0" encoding="UTF-8" standalone="no"?>
<svg
   xmlns:dc="http://purl.org/dc/elements/1.1/"
   xmlns:cc="http://creativecommons.org/ns#"
   xmlns:rdf="http://www.w3.org/1999/02/22-rdf-syntax-ns#"
   xmlns:svg="http://www.w3.org/2000/svg"
   xmlns="http://www.w3.org/2000/svg"
   viewBox="0 0 261.33334 266.66666"
   height="266.66666"
   width="261.33334"
   xml:space="preserve"
   id="svg2"
   version="1.1"><metadata
     id="metadata8"><rdf:RDF><cc:Work
         rdf:about=""><dc:format>image/svg+xml</dc:format><dc:type
           rdf:resource="http://purl.org/dc/dcmitype/StillImage" /></cc:Work></rdf:RDF></metadata><defs
     id="defs6"><clipPath
       id="clipPath18"
       clipPathUnits="userSpaceOnUse"><path
         id="path16"
         d="M 0,200 H 196 V 0 H 0 Z" /></clipPath></defs><g
     transform="matrix(1.3333333,0,0,-1.3333333,0,266.66667)"
     id="g10"><g
       id="g12"><g
         clip-path="url(#clipPath18)"
         id="g14"><g
           transform="translate(113.5813,6.4249)"
           id="g20"><path
             id="path22"
             style="fill:#75207d;fill-opacity:1;fill-rule:evenodd;stroke:none"
             d="m 0,0 c -4.821,-1.449 -9.156,-3.533 -12.048,-6.425 h -6.906 c -2.892,2.892 -7.392,4.976 -12.048,6.425 -7.393,2.25 -15.266,2.892 -19.761,2.892 h -55.745 c -2.084,0 -3.854,0.641 -5.142,2.09 -1.283,1.283 -1.924,2.891 -1.924,4.976 v 176.711 c 0,1.925 0.641,3.694 1.924,4.977 1.288,1.288 3.058,1.929 5.142,1.929 h 55.745 c 5.142,0 14.138,-0.802 22.487,-3.373 4.661,-1.448 8.996,-3.373 12.695,-5.944 3.693,2.571 8.194,4.496 12.689,5.944 8.515,2.571 17.511,3.373 22.653,3.373 H 75.5 c 1.93,0 3.699,-0.641 4.982,-1.929 1.283,-1.283 1.93,-3.052 1.93,-4.977 V 9.958 c 0,-2.085 -0.647,-3.693 -1.93,-4.976 C 79.199,3.533 77.59,2.892 75.5,2.892 H 19.761 C 15.26,2.892 7.227,2.25 0,0" /></g><g
           transform="translate(98.1595,138.9561)"
           id="g24"><path
             id="path26"
             style="fill:#ffffff;fill-opacity:1;fill-rule:evenodd;stroke:none"
             d="m 0,0 c 0.16,-1.123 1.122,-1.769 2.571,-1.283 l 23.615,10.92 h 4.656 l 23.614,-10.92 c 1.77,-0.486 2.732,0.16 2.732,1.443 v 14.138 5.142 c 0,1.283 -1.123,2.406 -2.571,2.406 H 2.571 C 1.122,21.846 0,20.723 0,19.44 V 19.275 14.298 Z M 22.973,-19.601 H 34.059 V -33.579 H 22.973 Z M 0.32,-105.38 h -11.246 v 40.965 H 0.32 Z m 68.114,40.96 v -38.756 c 0,-1.221 -0.988,-2.204 -2.204,-2.204 h -8.882 v 40.96 z M -66.551,32.771 h 44.705 V 21.846 h -33.418 c -1.443,0 -2.565,-1.123 -2.565,-2.406 V 9.317 c 0,-1.418 1.148,-2.571 2.565,-2.571 h 33.418 V -30.2 h -46.909 v 10.925 h 33.413 c 1.422,0 2.571,1.149 2.571,2.566 v 10.124 c 0,1.283 -1.123,2.41 -2.571,2.41 h -33.413 v 34.742 c 0,1.216 0.988,2.204 2.204,2.204 M 34.22,-54.457 v -0.16 -0.16 -50.603 H 23.134 v 50.603 c -0.161,1.283 -1.288,2.405 -2.571,2.405 h -31.489 v 10.765 h 79.36 V -52.372 H 36.625 c -1.123,0 -2.245,-0.802 -2.405,-2.085 M 55.103,-13.331 28.596,-1.123 2.09,-13.331 c -0.161,0 -0.968,-0.486 -1.288,-0.807 C 0.32,-14.619 0.16,-15.1 0,-15.742 V -30.2 h -10.926 v 62.971 h 76.83 c 1.221,0 2.209,-0.988 2.209,-2.204 V -30.2 H 57.188 v 14.138 c 0,0.481 -0.16,1.122 -0.481,1.603 -0.161,0.321 -0.481,0.642 -1.123,0.802 0,0.16 -0.321,0.326 -0.481,0.326" /></g><g
           transform="translate(76.3123,33.5741)"
           id="g28"><path
             id="path30"
             style="fill:#ffffff;fill-opacity:1;fill-rule:evenodd;stroke:none"
             d="m 0,0 v 63.773 h -10.765 v -50.349 -0.321 -0.16 c -0.161,-1.123 -1.123,-1.925 -2.245,-2.09 h -0.161 -20.563 -0.16 c -1.288,0.165 -2.25,1.128 -2.25,2.411 v 0.16 50.349 H -46.909 V 2.286 c 0,-1.215 0.988,-2.203 2.203,-2.203 z" /></g></g></g></g></svg>