<svg height="338.597752" viewBox="0 0 139.65 160.15" width="295.335688" xmlns="http://www.w3.org/2000/svg"><path d="m.11 0h139.54l-.11 110.96-69.66 49.19-69.88-49.19z" fill="#083683"/><text fill="#fff" font-family="SourceHanSansCN-Heavy, SourceHanSansCN Heavy-GBpc-EUC-H" font-size="19.78" font-weight="800" transform="matrix(1.06 0 0 1 7.24 27.92)">深圳技术大学</text><text fill="#fff" font-family="SourceHanSansCN-Heavy, SourceHanSansCN Heavy-GBpc-EUC-H" font-size="6.19" font-weight="800" transform="matrix(1.06 0 0 1 7.24 36.33)">SHENZHEN TECHNOLOGY UNIVERSITY</text><path d="m5.76 39.99h128.24" fill="#fff" stroke="#fff" stroke-miterlimit="10" stroke-width=".4"/><path d="m23.74 122.87-7.79-5.65.11-16.92h7.79z" fill="#fff"/><path d="m43.77 137.18-7.86-5.57.11-31.31h7.87z" fill="#fff"/><path d="m55.95 146 .11-45.7h7.79l-.12 51.27z" fill="#fff"/><path d="m83.77 146-7.79 5.57.12-51.27h7.78z" fill="#fff"/><path d="m103.84 100.3-.11 31.31-7.79 5.57.12-36.88z" fill="#fff"/><path d="m115.98 122.87.11-22.57h7.79l-.11 16.92z" fill="#fff"/><path d="m67.86 80.34v15.72h-17.87v-15.72z" fill="#fff"/><path d="m27.97 80.34h17.8v15.72h-17.8z" fill="#fff"/><path d="m5.88 80.34h17.88v15.72h-17.88z" fill="#fff"/><path d="m72.08 80.34v15.72h17.88v-15.72z" fill="#fff"/><path d="m94.09 80.34v15.72h17.88v-15.72z" fill="#fff"/><path d="m134.06 80.34h-17.87v15.72h17.87z" fill="#fff"/><path d="m5.76 5.3h128.24l-.11 103.51-64.12 46.91-64.12-46.91z" fill="none" stroke="#fff" stroke-linecap="round" stroke-linejoin="round" stroke-width=".4"/><text style="fill:#fff;font-family:SourceHanSansCN-Heavy, SourceHanSansCN Heavy-GBpc-EUC-H;font-weight:800;stroke:#fff;stroke-miterlimit:10;font-size:34.68;stroke-width:.41;letter-spacing:.01em" transform="matrix(1.37 0 0 1 6.36 71.93)">SZTU<tspan letter-spacing=".07em" x="70.74" y="0"/></text><path d="m5.76 75.35h128.24" fill="#fff" stroke="#fff" stroke-miterlimit="10" stroke-width=".4"/><path d="m.11 0h139.54l-.11 110.96-69.66 49.19-69.88-49.19z" fill="#023591"/><path d="m5.69 5.3h128.37l-.1 103.19-64.08 45.25-64.29-45.25z" fill="none" stroke="#fff" stroke-miterlimit="10" stroke-width=".79"/><g fill="#fff"><path d="m241.51 40.52a26.07 26.07 0 0 0 -3.64-2.31l1.36-2.16a28.12 28.12 0 0 1 3.77 2.06zm2 2.38c-.94 2.08-2 4.21-3.1 6.19l-2.26-2a63 63 0 0 0 3.39-6.17zm-1.4-8.06a30.85 30.85 0 0 0 -3.48-2l1.51-2.22a32.29 32.29 0 0 1 3.53 1.74zm11.62 7.82a13.38 13.38 0 0 0 4.17 3.48 12.18 12.18 0 0 0 -2.12 2.24 14.52 14.52 0 0 1 -3.59-3.58v4.2h-3.1v-4.32a13.23 13.23 0 0 1 -4.37 3.84 11.9 11.9 0 0 0 -2-2.16 12.08 12.08 0 0 0 4.77-3.7h-3.39v-2.55h5v-1.86h3.1v1.86h4.95v2.55zm-3.59-7.5a16.82 16.82 0 0 1 -4.37 4.59 23.1 23.1 0 0 0 -2.07-2 11.18 11.18 0 0 0 2.69-2.13h-2.3v-4.32h13.07v4.22h-2.61a19.6 19.6 0 0 1 2.45 2.75l-2.32 1.5a24.43 24.43 0 0 0 -3.81-4.29l2.13-1.33c.44.38.92.79 1.38 1.23v-1.66h-7.67v1.54a9.47 9.47 0 0 0 .69-.95z" transform="translate(-230.17 -19.5)"/><path d="m267.22 31.12h3v6.93c0 3.8-.21 8-2.26 11.16a15.36 15.36 0 0 0 -3-1.56 10.66 10.66 0 0 0 1.5-3.07c-2.26.91-4.72 1.82-6.73 2.57l-1-3c.75-.2 1.65-.48 2.65-.8v-5.35h-2.26v-2.84h2.26v-4.37h3.06v4.37h2.13v2.84h-2.13v4.4l1.69-.57.48 2.16a24.42 24.42 0 0 0 .57-6zm3.89 1.07h2.89v14.35h-2.86zm7-1.22v18.08h-3.11v-18.05z" transform="translate(-230.17 -19.5)"/><path d="m287.31 41.45-2.09.52v4.23c0 1.31-.23 2-1 2.44a7.34 7.34 0 0 1 -3.39.51 10.17 10.17 0 0 0 -.84-2.61h1.86s.4-.1.4-.38v-3.5l-1.78.4-.75-2.75c.73-.12 1.59-.28 2.53-.48v-3h-2.25v-2.7h2.26v-3.64h3v3.64h1.93v2.65h-1.93v2.42l1.74-.38zm11.9-3a14.23 14.23 0 0 1 -3.72 6.64 15.44 15.44 0 0 0 4.51 1.75 11.39 11.39 0 0 0 -1.92 2.47 15.91 15.91 0 0 1 -5-2.3 19.62 19.62 0 0 1 -5.25 2.22 10.39 10.39 0 0 0 -1.64-2.59 16.13 16.13 0 0 0 4.62-1.64 16.2 16.2 0 0 1 -2.7-4.3l1-.25h-1.34v-2.6h3.93v-2h-4.3v-2.69h4.26v-2.67h3v2.67h4.51v2.63h-4.51v2h2.07l.5-.1zm-8.15 2a11.56 11.56 0 0 0 2.09 2.9 10.42 10.42 0 0 0 2.22-2.9z" transform="translate(-230.17 -19.5)"/><path d="m313.69 38.11a24.6 24.6 0 0 0 7.13 6.61 14.35 14.35 0 0 0 -2.45 2.59 27.18 27.18 0 0 1 -6-6.33v8.33h-3.37v-7.31a20.08 20.08 0 0 1 -6.23 5.48 16.92 16.92 0 0 0 -2.32-2.55 18.84 18.84 0 0 0 7.72-6.81h-6.8v-2.84h7.63v-4.77h3.37v4.77h3.7a30.56 30.56 0 0 0 -3.26-3l2.26-1.74a38.18 38.18 0 0 1 3.43 2.77l-2.34 1.92h3.68v2.83z" transform="translate(-230.17 -19.5)"/><path d="m333.81 38.6a12.73 12.73 0 0 0 7.63 7.88 12.54 12.54 0 0 0 -2.26 2.73 14.44 14.44 0 0 1 -7.59-7.74 14 14 0 0 1 -7.53 7.74 9.12 9.12 0 0 0 -2.3-2.45c4.58-2 6.51-4.93 7.34-8.16h-6.92v-3h7.43c.14-1.74.12-3.49.14-5.13h3.35c0 1.64 0 3.39-.21 5.13h8v3z" transform="translate(-230.17 -19.5)"/><path d="m361.9 44.34h-7.9v1.84c0 1.41-.35 2.14-1.46 2.54a12.74 12.74 0 0 1 -4.23.45 11 11 0 0 0 -1.21-2.77c1.17.06 2.82.06 3.24 0s.54-.08.54-.34v-1.72h-7.78v-2.63h7.78v-1.15a12.55 12.55 0 0 0 1.66-.79h-5.57v-2.47h9l.62-.14 1.93 1.44a21.78 21.78 0 0 1 -4.54 3v.12h7.95zm-15.83-6.19h-2.85v-4.59h3.08a16.29 16.29 0 0 0 -1.28-1.8l2.59-1.09a10.76 10.76 0 0 1 1.86 2.53l-.81.36h2.95a14.09 14.09 0 0 0 -1.24-2.32l2.7-.95a11.12 11.12 0 0 1 1.61 2.77l-1.36.5h2.37a18.76 18.76 0 0 0 1.63-2.93l3.18.87c-.53.71-1.07 1.43-1.59 2.06h2.82v4.59h-3v-2.08h-12.66z" transform="translate(-230.17 -19.5)"/><path d="m237.67 55.25.66-.77a2 2 0 0 0 1.18.47c.44 0 .64-.15.64-.4s-.27-.35-.69-.52l-.62-.25a1.36 1.36 0 0 1 -1-1.26c0-.77.73-1.39 1.77-1.39a2.33 2.33 0 0 1 1.58.6l-.58.7a1.63 1.63 0 0 0 -1-.36c-.36 0-.59.14-.59.39s.31.35.74.51l.61.23a1.28 1.28 0 0 1 1 1.26c0 .77-.68 1.45-1.86 1.45a2.79 2.79 0 0 1 -1.84-.66z" transform="translate(-230.17 -19.5)"/><path d="m242.16 51.21h1.17v1.79h1.6v-1.79h1.16v4.61h-1.16v-1.89h-1.6v1.89h-1.17z" transform="translate(-230.17 -19.5)"/><path d="m247.23 51.21h3.09v.92h-1.92v.87h1.6v.93h-1.6v1h2v.93h-3.16z" transform="translate(-230.17 -19.5)"/><path d="m251.35 51.21h1.19l1.21 2.21.48 1a14.93 14.93 0 0 1 -.15-1.7v-1.51h1.11v4.61h-1.19l-1.21-2.22-.47-1a15.14 15.14 0 0 1 .15 1.7v1.53h-1.11z" transform="translate(-230.17 -19.5)"/><path d="m256.05 55.15 2.1-3h-1.9v-.92h3.34v.67l-2.1 3h2.12v.93h-3.56z" transform="translate(-230.17 -19.5)"/><path d="m260.41 51.21h1.17v1.79h1.6v-1.79h1.16v4.61h-1.16v-1.89h-1.6v1.89h-1.17z" transform="translate(-230.17 -19.5)"/><path d="m265.47 51.21h3.09v.92h-1.91v.87h1.63v.93h-1.63v1h2v.93h-3.17z" transform="translate(-230.17 -19.5)"/><path d="m269.6 51.21h1.19l1.21 2.21.48 1a14.93 14.93 0 0 1 -.15-1.7v-1.51h1.11v4.61h-1.19l-1.21-2.22-.48-1c.05.51.15 1.14.15 1.7v1.53h-1.11z" transform="translate(-230.17 -19.5)"/><path d="m277 52.13h-1.31v-.92h3.81v.92h-1.32v3.69h-1.18z" transform="translate(-230.17 -19.5)"/><path d="m280.29 51.21h3.09v.92h-1.92v.87h1.63v.93h-1.63v1h2v.93h-3.16z" transform="translate(-230.17 -19.5)"/><path d="m284.19 53.54a2.28 2.28 0 0 1 2.33-2.41 2.12 2.12 0 0 1 1.48.6l-.62.7a1.22 1.22 0 0 0 -.84-.36c-.63 0-1.15.54-1.15 1.44s.45 1.44 1.14 1.44a1.29 1.29 0 0 0 .93-.42l.61.7a2.07 2.07 0 0 1 -1.59.68 2.2 2.2 0 0 1 -2.29-2.37z" transform="translate(-230.17 -19.5)"/><path d="m288.78 51.21h1.22v1.79h1.6v-1.79h1.16v4.61h-1.16v-1.89h-1.6v1.89h-1.18z" transform="translate(-230.17 -19.5)"/><path d="m293.85 51.21h1.15l1.21 2.21.48 1a12.91 12.91 0 0 1 -.16-1.7v-1.51h1.11v4.61h-1.19l-1.2-2.22-.48-1a15.09 15.09 0 0 1 .16 1.7v1.53h-1.12z" transform="translate(-230.17 -19.5)"/><path d="m298.63 53.49a2.24 2.24 0 1 1 4.47 0 2.24 2.24 0 1 1 -4.47 0zm3.28 0c0-.89-.4-1.42-1.05-1.42s-1 .53-1 1.42.39 1.46 1 1.46 1.05-.56 1.05-1.46z" transform="translate(-230.17 -19.5)"/><path d="m304 51.21h1.17v3.68h1.9v.93h-3.07z" transform="translate(-230.17 -19.5)"/><path d="m307.41 53.49a2.23 2.23 0 1 1 4.46 0 2.24 2.24 0 1 1 -4.46 0zm3.27 0c0-.89-.4-1.42-1-1.42s-1 .53-1 1.42.4 1.46 1 1.46 1-.56 1-1.46z" transform="translate(-230.17 -19.5)"/><path d="m312.55 53.54a2.3 2.3 0 0 1 2.4-2.41 2.22 2.22 0 0 1 1.56.6l-.62.7a1.32 1.32 0 0 0 -.9-.36 1.27 1.27 0 0 0 -1.24 1.44c0 .91.43 1.44 1.34 1.44a.89.89 0 0 0 .46-.11v-.75h-.77v-.9h1.81v2.15a2.48 2.48 0 0 1 -1.62.57 2.24 2.24 0 0 1 -2.42-2.37z" transform="translate(-230.17 -19.5)"/><path d="m318.42 54.19-1.47-3h1.25l.4 1 .4 1c.14-.36.27-.68.41-1l.4-1h1.23l-1.48 3v1.63h-1.16z" transform="translate(-230.17 -19.5)"/><path d="m323 53.65v-2.44h1.16v2.56c0 .88.28 1.18.82 1.18s.82-.3.82-1.18v-2.56h1.2v2.44c0 1.56-.66 2.26-1.95 2.26s-2.05-.7-2.05-2.26z" transform="translate(-230.17 -19.5)"/><path d="m328.05 51.21h1.19l1.21 2.21.48 1a14.93 14.93 0 0 1 -.15-1.7v-1.51h1.11v4.61h-1.19l-1.21-2.22-.47-1a15.14 15.14 0 0 1 .15 1.7v1.53h-1.11z" transform="translate(-230.17 -19.5)"/><path d="m333.05 51.21h1.17v4.61h-1.17z" transform="translate(-230.17 -19.5)"/><path d="m334.72 51.21h1.28l.56 2.1c.14.5.23 1 .38 1.48.14-.5.24-1 .38-1.48l.55-2.1h1.19l-1.47 4.61h-1.4z" transform="translate(-230.17 -19.5)"/><path d="m339.55 51.21h3.09v.92h-1.91v.87h1.63v.93h-1.63v1h2v.93h-3.17z" transform="translate(-230.17 -19.5)"/><path d="m346.31 55.82-.9-1.62h-.56v1.62h-1.17v-4.61h1.79c1 0 1.9.34 1.9 1.45a1.34 1.34 0 0 1 -.84 1.33l1.09 1.83zm-1.46-2.49h.53c.55 0 .85-.23.85-.67s-.3-.57-.85-.57h-.53z" transform="translate(-230.17 -19.5)"/><path d="m347.9 55.25.66-.77a2 2 0 0 0 1.19.47c.43 0 .63-.15.63-.4s-.26-.35-.68-.52l-.63-.25a1.35 1.35 0 0 1 -1-1.26c0-.77.73-1.39 1.76-1.39a2.35 2.35 0 0 1 1.59.6l-.58.7a1.68 1.68 0 0 0 -1-.36c-.36 0-.58.14-.58.39s.31.35.74.51l.61.23a1.28 1.28 0 0 1 1 1.26c0 .77-.68 1.45-1.86 1.45a2.83 2.83 0 0 1 -1.85-.66z" transform="translate(-230.17 -19.5)"/><path d="m352.39 51.21h1.18v4.61h-1.18z" transform="translate(-230.17 -19.5)"/><path d="m355.63 52.13h-1.32v-.92h3.81v.92h-1.32v3.69h-1.17z" transform="translate(-230.17 -19.5)"/><path d="m359.58 54.19-1.47-3h1.25l.4 1c.13.34.26.66.39 1 .14-.36.27-.68.41-1l.4-1h1.23l-1.48 3v1.63h-1.16z" transform="translate(-230.17 -19.5)"/><path d="m5.76 39.99h128.24" stroke="#fff" stroke-miterlimit="10" stroke-width=".4"/><path d="m67.86 79.9v15.73h-17.87v-15.73z"/><path d="m27.97 79.9h17.8v15.73h-17.8z"/><path d="m5.88 79.9h17.88v15.73h-17.88z"/><path d="m72.08 79.9v15.73h17.88v-15.73z"/><path d="m94.09 79.9v15.73h17.88v-15.73z"/><path d="m134.06 79.9h-17.87v15.73h17.87z"/><path d="m16.06 100.3-.11 15.54 7.79 5.52.11-21.06z"/><path d="m36.02 100.3-.11 29.69 7.86 5.57.12-35.26z"/><path d="m56.06 100.3-.11 43.89 7.78 5.52.12-49.41z"/><path d="m76.1 100.3-.12 49.28 7.79-5.52.11-43.76z"/><path d="m96.06 100.3-.12 35.13 7.79-5.52.11-29.61z"/><path d="m116.09 100.3-.11 20.93 7.79-5.51.11-15.42z"/><path d="m237.9 87.44 4.8-4.27a17.51 17.51 0 0 0 8.62 2.64c3.14 0 4.61-.87 4.61-2.26s-2-2-5-2.91l-4.52-1.39c-3.72-1.07-7.19-3.33-7.19-7.07 0-4.34 5.33-7.8 12.85-7.8a20.11 20.11 0 0 1 11.51 3.39l-4.23 3.89a14.33 14.33 0 0 0 -7.28-2c-2.62 0-4.24.76-4.24 2.15s2.24 2 5.38 2.88l4.43 1.31c4.38 1.29 7 3.44 7 7.08 0 4.3-4.95 8.08-13.51 8.08a24.44 24.44 0 0 1 -13.23-3.72z" transform="translate(-230.17 -19.5)"/><path d="m268.78 86.92 15.27-16.92h-13.8v-5.14h24.27v3.71l-15.28 16.89h15.42v5.2h-25.88z" transform="translate(-230.17 -19.5)"/><path d="m307.79 70h-9.56v-5.14h27.69v5.14h-9.61v20.66h-8.52z" transform="translate(-230.17 -19.5)"/><path d="m331.68 78.52v-13.66h8.47v14.32c0 4.89 2 6.63 5.9 6.63s6-1.74 6-6.63v-14.32h8.18v13.66c0 8.71-4.75 12.63-14.17 12.63s-14.38-3.92-14.38-12.63z" transform="translate(-230.17 -19.5)"/><path d="m5.76 75.35h128.24" stroke="#fff" stroke-miterlimit="10" stroke-width=".4"/></g></svg>