<?xml version="1.0" encoding="UTF-8" standalone="no"?>
<svg
   xmlns:dc="http://purl.org/dc/elements/1.1/"
   xmlns:cc="http://creativecommons.org/ns#"
   xmlns:rdf="http://www.w3.org/1999/02/22-rdf-syntax-ns#"
   xmlns:svg="http://www.w3.org/2000/svg"
   xmlns="http://www.w3.org/2000/svg"
   viewBox="0 0 266.66666 266.66666"
   height="266.66666"
   width="266.66666"
   xml:space="preserve"
   id="svg2"
   version="1.1"><metadata
     id="metadata8"><rdf:RDF><cc:Work
         rdf:about=""><dc:format>image/svg+xml</dc:format><dc:type
           rdf:resource="http://purl.org/dc/dcmitype/StillImage" /></cc:Work></rdf:RDF></metadata><defs
     id="defs6"><clipPath
       id="clipPath18"
       clipPathUnits="userSpaceOnUse"><path
         id="path16"
         d="M 0,200 H 200 V 0 H 0 Z" /></clipPath></defs><g
     transform="matrix(1.3333333,0,0,-1.3333333,0,266.66667)"
     id="g10"><g
       id="g12"><g
         clip-path="url(#clipPath18)"
         id="g14"><g
           transform="translate(99.9893,200)"
           id="g20"><path
             id="path22"
             style="fill:#ab1f24;fill-opacity:1;fill-rule:nonzero;stroke:none"
             d="m 0,0 c -55.229,0 -99.989,-44.772 -99.989,-100 0,-55.228 44.76,-100 99.989,-100 55.243,0 100.011,44.772 100.011,100 C 100.011,-44.772 55.243,0 0,0 M 67.917,-167.912 C 49.785,-186.043 25.661,-196.038 0,-196.038 c -25.64,0 -49.756,9.995 -67.903,28.126 -18.139,18.145 -28.123,42.261 -28.123,67.912 0,25.651 9.984,49.767 28.123,67.904 18.147,18.139 42.263,28.127 67.903,28.127 25.661,0 49.785,-9.988 67.917,-28.127 18.139,-18.137 28.13,-42.253 28.13,-67.904 0,-25.651 -9.991,-49.767 -28.13,-67.912" /></g><g
           transform="translate(99.9893,194.814)"
           id="g24"><path
             id="path26"
             style="fill:#ab1f24;fill-opacity:1;fill-rule:nonzero;stroke:none"
             d="m 0,0 c -52.361,0 -94.802,-42.445 -94.802,-94.815 0,-52.363 42.441,-94.807 94.802,-94.807 52.375,0 94.823,42.444 94.823,94.807 C 94.823,-42.445 52.375,0 0,0 M 66.138,-160.944 C 48.475,-178.608 24.985,-188.335 0,-188.335 c -24.971,0 -48.461,9.727 -66.123,27.391 -17.663,17.671 -27.391,41.151 -27.391,66.129 0,24.979 9.728,48.472 27.391,66.129 17.662,17.664 41.152,27.398 66.123,27.398 24.985,0 48.475,-9.734 66.138,-27.398 17.662,-17.657 27.397,-41.15 27.397,-66.129 0,-24.978 -9.735,-48.458 -27.397,-66.129" /></g><g
           transform="translate(36.2171,99.9998)"
           id="g28"><path
             id="path30"
             style="fill:#ab1f24;fill-opacity:1;fill-rule:nonzero;stroke:none"
             d="m 0,0 c 0,-35.166 28.614,-63.781 63.775,-63.781 35.168,0 63.782,28.615 63.782,63.781 0,35.172 -28.614,63.773 -63.782,63.773 C 28.614,63.773 0,35.172 0,0 m 63.775,61.651 c 34.051,0 61.655,-27.596 61.655,-61.651 0,-34.055 -27.604,-61.658 -61.655,-61.658 -34.044,0 -61.647,27.603 -61.647,61.658 0,34.055 27.603,61.651 61.647,61.651" /></g><g
           transform="translate(179.467,107.7186)"
           id="g32"><path
             id="path34"
             style="fill:#ab1f24;fill-opacity:1;fill-rule:nonzero;stroke:none"
             d="M 0,0 C 1.48,0 2.676,1.195 2.676,2.681 2.676,4.152 1.48,5.348 0,5.348 -1.473,5.348 -2.683,4.152 -2.683,2.681 -2.683,1.195 -1.473,0 0,0" /></g><g
           transform="translate(20.5309,107.7186)"
           id="g36"><path
             id="path38"
             style="fill:#ab1f24;fill-opacity:1;fill-rule:nonzero;stroke:none"
             d="M 0,0 C 1.48,0 2.676,1.195 2.676,2.681 2.676,4.152 1.48,5.348 0,5.348 -1.48,5.348 -2.683,4.152 -2.683,2.681 -2.683,1.195 -1.48,0 0,0" /></g><g
           transform="translate(16.3814,92.0047)"
           id="g40"><path
             id="path42"
             style="fill:#ab1f24;fill-opacity:1;fill-rule:nonzero;stroke:none"
             d="m 0,0 c 0.221,0.078 0.868,0.184 1.957,0.304 1.074,0.134 2.206,0.226 3.366,0.318 1.146,0.085 2.099,0.106 2.868,0.085 0.064,-0.919 0.064,-1.57 0,-1.981 C 8.127,-1.677 7.956,-2.038 7.693,-2.363 7.422,-2.674 7.095,-2.957 6.703,-3.177 6.476,-3.304 6.362,-3.438 6.376,-3.566 6.39,-3.728 6.483,-3.806 6.682,-3.792 l 1.167,0.198 c 0.633,0.106 1.053,0.177 1.253,0.227 C 9.094,-3.134 9.08,-2.964 9.08,-2.851 9.052,-2.589 9.016,-2.264 8.966,-1.847 8.831,-0.708 8.732,0.339 8.66,1.294 8.568,2.553 8.461,4.499 8.347,7.131 7.942,7.18 7.436,7.223 6.824,7.236 6.205,7.251 5.878,7.265 5.835,7.258 5.686,7.251 5.608,7.159 5.629,6.982 5.636,6.876 5.736,6.784 5.928,6.713 6.426,6.529 6.839,6.268 7.159,5.956 7.479,5.631 7.7,5.284 7.792,4.923 7.878,4.556 7.956,3.954 8.02,3.12 6.696,2.893 4.981,2.702 2.882,2.553 1.544,2.455 0.669,2.426 0.27,2.447 -0.142,2.469 -0.434,2.589 -0.64,2.801 -0.847,3.013 -0.961,3.353 -0.989,3.799 -1.003,3.99 -1.082,4.082 -1.224,4.067 c -0.107,0 -0.164,-0.063 -0.178,-0.184 0.007,-0.24 0.014,-0.403 0.021,-0.466 l 0.1,-0.962 C -1.252,2.193 -1.188,1.45 -1.096,0.226 l 0.071,-1.57 0.007,-0.213 c 0.015,-0.169 0.086,-0.254 0.228,-0.247 0.121,0.007 0.185,0.113 0.185,0.318 0,0.58 0.043,0.948 0.135,1.118 C -0.377,-0.206 -0.221,-0.085 0,0" /></g><g
           transform="translate(17.1429,81.6163)"
           id="g44"><path
             id="path46"
             style="fill:#ab1f24;fill-opacity:1;fill-rule:nonzero;stroke:none"
             d="m 0,0 c -0.064,0.354 -0.014,0.63 0.157,0.813 0.163,0.191 0.668,0.389 1.508,0.601 0.84,0.213 2.021,0.46 3.565,0.75 1.345,0.262 2.214,0.383 2.612,0.383 0.399,0 0.662,-0.05 0.783,-0.17 C 8.76,2.263 8.881,2.016 8.995,1.634 9.045,1.464 9.13,1.386 9.251,1.414 9.379,1.436 9.429,1.542 9.393,1.733 L 8.902,4.018 C 8.853,4.259 8.81,4.598 8.746,5.008 8.667,5.56 8.625,5.914 8.596,6.091 8.547,6.274 8.468,6.36 8.347,6.338 8.205,6.303 8.148,6.204 8.169,6.006 8.205,5.645 8.184,5.383 8.084,5.242 7.991,5.086 7.693,4.93 7.194,4.789 6.689,4.633 5.693,4.421 4.17,4.131 2.747,3.862 1.679,3.671 0.996,3.572 0.306,3.473 -0.142,3.487 -0.334,3.601 -0.555,3.707 -0.726,3.975 -0.854,4.379 -0.904,4.534 -0.982,4.605 -1.089,4.584 -1.238,4.548 -1.288,4.442 -1.26,4.259 -1.245,4.18 -1.203,4.053 -1.153,3.87 -1.039,3.515 -0.911,2.964 -0.769,2.221 -0.705,1.874 -0.612,1.217 -0.505,0.275 -0.484,0.127 -0.463,0.021 -0.441,-0.057 -0.399,-0.311 -0.292,-0.439 -0.128,-0.396 0.007,-0.375 0.05,-0.248 0,0" /></g><g
           transform="translate(22.7127,73.069)"
           id="g48"><path
             id="path50"
             style="fill:#ab1f24;fill-opacity:1;fill-rule:nonzero;stroke:none"
             d="M 0,0 C 2.562,2.066 4.433,3.622 5.6,4.683 L 5.444,5.178 C 2.249,5.496 -0.278,5.695 -2.128,5.793 -2.946,5.829 -3.558,5.892 -3.957,5.977 -4.348,6.069 -4.633,6.176 -4.803,6.31 -4.974,6.43 -5.138,6.628 -5.309,6.897 -5.373,7.003 -5.465,7.046 -5.572,7.003 -5.707,6.961 -5.75,6.855 -5.7,6.678 c 0.021,-0.064 0.05,-0.135 0.085,-0.22 0.15,-0.325 0.292,-0.679 0.406,-1.061 0.064,-0.205 0.135,-0.509 0.235,-0.955 0.078,-0.332 0.128,-0.538 0.149,-0.615 0.057,-0.198 0.157,-0.276 0.285,-0.241 0.128,0.043 0.171,0.156 0.135,0.34 -0.043,0.254 -0.028,0.509 0.05,0.764 0.071,0.24 0.249,0.41 0.512,0.488 0.356,0.113 1.174,0.141 2.42,0.064 C -1.252,4.704 -1.018,3.947 -0.726,2.964 -0.669,2.787 -0.598,2.539 -0.505,2.221 -0.861,1.903 -1.267,1.57 -1.722,1.245 -2.185,0.912 -2.498,0.714 -2.697,0.651 -3.11,0.53 -3.423,0.757 -3.665,1.344 -3.722,1.493 -3.807,1.549 -3.914,1.521 -4.049,1.478 -4.078,1.344 -4.021,1.125 c 0.043,-0.128 0.136,-0.39 0.292,-0.786 0.199,-0.523 0.356,-0.955 0.448,-1.287 0.1,-0.347 0.214,-0.778 0.328,-1.295 0.099,-0.431 0.156,-0.707 0.192,-0.799 0.064,-0.191 0.156,-0.262 0.306,-0.22 0.107,0.029 0.142,0.121 0.121,0.276 -0.078,0.46 0,0.828 0.235,1.132 C -1.886,-1.571 -1.181,-0.948 0,0 M -0.776,5.199 2.804,4.93 C 2.469,4.662 1.993,4.265 1.388,3.742 0.833,3.261 0.377,2.9 0.043,2.645 Z" /></g><g
           transform="translate(31.6506,63.1883)"
           id="g52"><path
             id="path54"
             style="fill:#ab1f24;fill-opacity:1;fill-rule:nonzero;stroke:none"
             d="m 0,0 c 0.619,0.297 1.096,0.367 1.423,0.219 0.335,-0.141 0.584,-0.361 0.74,-0.637 0.136,-0.219 0.271,-0.297 0.392,-0.247 0.128,0.07 0.156,0.184 0.071,0.361 C 2.576,-0.212 2.519,-0.092 2.441,0.035 2.249,0.354 2.007,0.82 1.715,1.457 1.466,1.952 1.295,2.348 1.203,2.624 1.16,2.766 1.117,2.886 1.067,2.971 0.996,3.12 0.897,3.169 0.761,3.105 0.648,3.056 0.619,2.928 0.676,2.752 0.797,2.426 0.833,2.108 0.79,1.79 0.747,1.478 0.605,1.224 0.377,1.019 0.135,0.82 -0.299,0.566 -0.932,0.262 l -2.669,-1.267 c -0.092,-0.042 -0.284,-0.134 -0.598,-0.276 0.79,2.172 1.886,4.938 3.302,8.298 C -1.124,7.534 -1.388,8.093 -1.665,8.68 -1.8,8.963 -1.879,9.154 -1.928,9.26 -1.957,9.352 -1.985,9.423 -2,9.465 -2.092,9.649 -2.22,9.713 -2.363,9.642 -2.469,9.585 -2.491,9.465 -2.448,9.274 -2.327,8.807 -2.398,8.312 -2.669,7.817 -2.939,7.307 -3.337,6.918 -3.85,6.649 -4.348,6.373 -5.757,5.695 -8.077,4.577 -8.618,4.315 -9.059,4.18 -9.436,4.173 c -0.377,-0.021 -0.697,0.22 -0.989,0.715 -0.157,0.276 -0.292,0.389 -0.399,0.333 -0.149,-0.064 -0.185,-0.191 -0.092,-0.375 0.035,-0.078 0.114,-0.206 0.228,-0.39 0.185,-0.283 0.441,-0.778 0.761,-1.45 0.206,-0.431 0.356,-0.785 0.441,-1.082 0.064,-0.17 0.121,-0.311 0.164,-0.41 0.078,-0.163 0.185,-0.213 0.32,-0.149 0.121,0.057 0.142,0.163 0.064,0.312 -0.107,0.247 -0.156,0.558 -0.128,0.94 0.021,0.382 0.213,0.686 0.562,0.927 0.349,0.24 0.854,0.516 1.516,0.828 2.135,1.025 3.266,1.556 3.387,1.612 C -3.921,5.263 -4.44,4.032 -5.152,2.306 -5.871,0.573 -6.39,-0.715 -6.711,-1.571 c -0.327,-0.863 -0.483,-1.323 -0.491,-1.393 0,-0.071 0.015,-0.121 0.029,-0.163 0.078,-0.163 0.242,-0.177 0.484,-0.056 l 2.889,1.322 z" /></g><g
           transform="translate(33.3009,55.5987)"
           id="g56"><path
             id="path58"
             style="fill:#ab1f24;fill-opacity:1;fill-rule:nonzero;stroke:none"
             d="M 0,0 C 0.648,0.417 1.352,0.849 2.092,1.294 2.846,1.747 3.345,1.952 3.572,1.924 3.821,1.889 4.035,1.733 4.234,1.464 4.362,1.273 4.49,1.209 4.604,1.287 4.725,1.365 4.718,1.506 4.59,1.712 L 3.352,3.544 C 3.131,3.883 2.875,4.343 2.533,4.916 2.377,5.185 2.291,5.348 2.27,5.383 2.149,5.574 2.028,5.631 1.907,5.546 1.786,5.475 1.779,5.355 1.886,5.171 2.242,4.598 2.284,4.173 2.014,3.898 1.743,3.629 0.306,2.653 -2.306,0.983 -3.558,0.177 -4.405,-0.262 -4.811,-0.319 c -0.412,-0.063 -0.725,0.078 -0.939,0.418 -0.085,0.134 -0.128,0.247 -0.114,0.353 0,0.099 0.064,0.184 0.171,0.241 0.078,0.057 0.221,0.085 0.448,0.099 0.306,0.021 0.52,0.064 0.634,0.141 0.206,0.135 0.327,0.326 0.391,0.588 0.05,0.254 -0.021,0.53 -0.192,0.813 C -4.611,2.645 -4.867,2.829 -5.181,2.893 -5.501,2.95 -5.785,2.9 -6.042,2.731 -6.433,2.476 -6.661,2.087 -6.718,1.556 c -0.049,-0.545 0.107,-1.104 0.484,-1.698 0.342,-0.537 0.79,-0.948 1.324,-1.231 0.534,-0.275 1.06,-0.396 1.58,-0.346 0.519,0.042 1.195,0.339 2.035,0.877 z" /></g><g
           transform="translate(39.5759,52.7978)"
           id="g60"><path
             id="path62"
             style="fill:#ab1f24;fill-opacity:1;fill-rule:nonzero;stroke:none"
             d="M 0,0 C 0.356,0.184 0.612,0.247 0.776,0.205 0.939,0.17 1.16,0 1.437,-0.29 1.558,-0.425 1.665,-0.453 1.765,-0.375 1.872,-0.29 1.864,-0.177 1.743,-0.022 L 0.285,1.797 C 0.142,1.995 -0.064,2.263 -0.299,2.617 -0.612,3.07 -0.818,3.36 -0.925,3.509 -1.046,3.657 -1.153,3.693 -1.252,3.615 -1.366,3.523 -1.366,3.395 -1.26,3.233 -1.067,2.928 -0.968,2.688 -0.989,2.518 -1.01,2.341 -1.203,2.073 -1.58,1.712 -1.964,1.351 -2.761,0.693 -3.985,-0.241 c -1.16,-0.884 -2.021,-1.535 -2.597,-1.931 -0.57,-0.396 -0.968,-0.601 -1.196,-0.587 -0.242,0.014 -0.505,0.163 -0.811,0.481 -0.107,0.106 -0.207,0.127 -0.306,0.057 -0.107,-0.086 -0.107,-0.206 -0.007,-0.347 0.057,-0.071 0.149,-0.177 0.277,-0.311 0.263,-0.269 0.619,-0.693 1.089,-1.309 0.206,-0.269 0.569,-0.814 1.103,-1.613 0.085,-0.113 0.142,-0.205 0.192,-0.269 0.164,-0.205 0.32,-0.261 0.456,-0.163 0.099,0.085 0.078,0.227 -0.072,0.425 -0.22,0.283 -0.291,0.552 -0.234,0.799 0.071,0.241 0.427,0.644 1.081,1.21 0.655,0.559 1.608,1.323 2.847,2.278 C -1.075,-0.687 -0.356,-0.177 0,0" /></g><g
           transform="translate(48.8212,44.035)"
           id="g64"><path
             id="path66"
             style="fill:#ab1f24;fill-opacity:1;fill-rule:nonzero;stroke:none"
             d="m 0,0 c 0.192,-0.17 0.349,-0.206 0.448,-0.106 0.1,0.099 0.086,0.212 -0.042,0.36 C 0.334,0.332 0.235,0.417 0.114,0.516 -0.164,0.75 -0.541,1.132 -1.018,1.627 -1.402,2.023 -1.687,2.341 -1.864,2.568 -1.957,2.695 -2.035,2.794 -2.106,2.858 -2.22,2.985 -2.341,2.999 -2.441,2.893 -2.533,2.801 -2.526,2.681 -2.412,2.532 -2.185,2.263 -2.049,1.974 -1.993,1.655 -1.943,1.344 -1.993,1.061 -2.156,0.792 -2.306,0.523 -2.647,0.141 -3.145,-0.34 L -5.28,-2.398 C -5.344,-2.462 -5.508,-2.61 -5.764,-2.844 -5.7,-0.538 -5.529,2.433 -5.252,6.076 -5.629,6.487 -6.056,6.939 -6.504,7.413 -6.711,7.633 -6.86,7.788 -6.924,7.88 -6.988,7.958 -7.038,8.015 -7.073,8.05 -7.216,8.192 -7.344,8.213 -7.465,8.107 -7.557,8.022 -7.543,7.894 -7.422,7.725 -7.159,7.322 -7.081,6.841 -7.18,6.268 -7.28,5.702 -7.522,5.206 -7.92,4.796 -8.319,4.372 -9.436,3.268 -11.286,1.478 c -0.427,-0.41 -0.812,-0.686 -1.167,-0.82 -0.342,-0.135 -0.733,-0.015 -1.16,0.367 -0.235,0.22 -0.406,0.284 -0.477,0.199 -0.128,-0.113 -0.121,-0.248 0.014,-0.389 0.064,-0.071 0.185,-0.17 0.349,-0.297 0.263,-0.213 0.662,-0.595 1.188,-1.139 0.321,-0.333 0.57,-0.63 0.755,-0.87 0.106,-0.149 0.213,-0.263 0.284,-0.347 0.121,-0.134 0.242,-0.149 0.356,-0.036 0.085,0.085 0.071,0.199 -0.05,0.319 -0.185,0.191 -0.32,0.474 -0.412,0.842 -0.1,0.374 -0.015,0.721 0.234,1.054 0.257,0.339 0.648,0.756 1.175,1.266 1.7,1.655 2.611,2.525 2.718,2.61 -0.086,-0.785 -0.192,-2.108 -0.32,-3.983 -0.143,-1.867 -0.214,-3.261 -0.257,-4.173 -0.035,-0.913 -0.035,-1.408 -0.021,-1.479 0.014,-0.063 0.043,-0.113 0.078,-0.141 0.121,-0.128 0.278,-0.092 0.477,0.099 l 2.327,2.171 3.01,2.971 c 0.498,0.475 0.918,0.694 1.281,0.665 C -0.541,0.332 -0.235,0.205 0,0" /></g><g
           transform="translate(57.8203,26.8937)"
           id="g68"><path
             id="path70"
             style="fill:#ab1f24;fill-opacity:1;fill-rule:nonzero;stroke:none"
             d="M 0,0 C 0,0.361 0.199,0.849 0.612,1.471 L 2.647,4.534 C 3.466,5.787 4.07,6.522 4.426,6.741 4.789,6.968 5.209,6.918 5.686,6.6 5.828,6.515 5.928,6.529 5.999,6.642 6.091,6.784 6.049,6.904 5.878,7.024 5.842,7.046 5.778,7.081 5.693,7.131 4.811,7.64 3.864,8.241 2.854,8.913 1.366,7.852 -0.669,6.501 -3.266,4.86 c 0.014,0.113 0.042,0.523 0.092,1.216 0.064,0.878 0.135,1.705 0.228,2.469 0.1,0.771 0.171,1.536 0.242,2.285 0.085,0.764 0.149,1.302 0.206,1.627 -1.338,0.906 -2.213,1.507 -2.611,1.832 -0.057,0.036 -0.107,0.078 -0.136,0.1 -0.156,0.099 -0.27,0.092 -0.348,-0.022 -0.064,-0.113 -0.043,-0.226 0.071,-0.346 0.32,-0.319 0.519,-0.602 0.598,-0.863 0.064,-0.248 0.042,-0.51 -0.093,-0.807 -0.135,-0.29 -0.47,-0.842 -1.003,-1.655 L -8.404,7.145 C -8.732,6.657 -9.016,6.352 -9.279,6.225 -9.55,6.098 -9.913,6.126 -10.361,6.324 c -0.178,0.071 -0.292,0.106 -0.349,0.106 -0.05,0 -0.092,-0.028 -0.128,-0.085 -0.078,-0.12 -0.05,-0.233 0.1,-0.332 0.028,-0.021 0.071,-0.042 0.142,-0.071 0.334,-0.163 0.797,-0.453 1.395,-0.849 0.227,-0.134 0.569,-0.396 1.053,-0.771 0.05,-0.042 0.1,-0.078 0.149,-0.106 0.129,-0.092 0.228,-0.078 0.299,0.028 0.064,0.099 0.029,0.212 -0.121,0.34 -0.462,0.361 -0.661,0.693 -0.605,1.011 0.057,0.312 0.385,0.934 1.004,1.861 1.16,1.761 2.085,3.141 2.789,4.159 C -5.117,6.777 -5.415,3.919 -5.536,3.077 -5.565,2.787 -5.551,2.617 -5.472,2.561 -5.401,2.518 -5.28,2.553 -5.088,2.688 l 1.751,1.274 C -2.576,4.506 -0.769,5.716 2.121,7.597 1.971,7.385 1.43,6.557 0.477,5.129 L -1.388,2.348 C -1.63,1.981 -1.836,1.712 -2.028,1.549 -2.199,1.386 -2.363,1.316 -2.498,1.301 c -0.156,0 -0.348,0.05 -0.598,0.163 -0.234,0.106 -0.384,0.121 -0.448,0.029 -0.043,-0.064 -0.043,-0.149 0,-0.269 0.968,-0.581 1.729,-1.047 2.27,-1.408 l 1.758,-1.189 c 0.099,-0.007 0.178,0.015 0.228,0.078 0.071,0.121 0.021,0.234 -0.157,0.368 C 0.185,-0.665 0,-0.361 0,0" /></g><g
           transform="translate(69.0888,23.0885)"
           id="g72"><path
             id="path74"
             style="fill:#ab1f24;fill-opacity:1;fill-rule:nonzero;stroke:none"
             d="m 0,0 c -1.046,-0.842 -2.448,-0.863 -4.206,-0.071 -0.476,0.226 -0.79,0.446 -0.932,0.658 -0.156,0.212 -0.206,0.424 -0.142,0.63 0.057,0.212 0.32,0.834 0.79,1.874 0.114,0.241 0.341,0.736 0.718,1.486 0.698,-0.326 1.167,-0.679 1.388,-1.047 0.235,-0.368 0.292,-0.793 0.192,-1.252 -0.05,-0.276 -0.028,-0.432 0.071,-0.475 0.15,-0.07 0.242,-0.034 0.306,0.092 0.015,0.029 0.029,0.079 0.036,0.121 0.043,0.177 0.1,0.361 0.192,0.552 0.641,1.415 1.046,2.242 1.231,2.504 0.029,0.028 0.057,0.071 0.064,0.099 0.05,0.106 0.014,0.191 -0.121,0.255 -0.099,0.042 -0.206,0 -0.313,-0.12 C -0.783,5.235 -0.954,5.086 -1.26,4.874 -1.551,4.662 -1.843,4.563 -2.121,4.577 -2.398,4.605 -2.69,4.69 -3.024,4.846 l -0.52,0.24 c 0.171,0.389 0.292,0.665 0.363,0.828 0.441,0.962 0.875,1.818 1.331,2.589 C -1.437,8.39 -1.025,8.241 -0.612,8.05 0.135,7.711 0.64,7.343 0.939,6.947 1.231,6.55 1.466,5.907 1.622,5.008 1.665,4.846 1.722,4.74 1.793,4.704 1.914,4.64 2.021,4.683 2.078,4.81 2.256,5.581 2.441,6.36 2.604,7.138 l -5.536,2.567 -1.644,0.807 C -4.739,10.59 -4.86,10.554 -4.917,10.42 -4.974,10.321 -4.932,10.222 -4.789,10.137 -4.448,9.918 -4.255,9.734 -4.163,9.585 -4.085,9.423 -4.085,9.196 -4.184,8.906 -4.284,8.623 -4.597,7.88 -5.138,6.678 L -6.789,3.19 C -7.123,2.455 -7.415,2.002 -7.671,1.832 -7.935,1.662 -8.29,1.69 -8.732,1.889 -8.917,1.974 -9.023,1.945 -9.087,1.818 -9.151,1.677 -9.073,1.556 -8.86,1.457 -8.81,1.443 -8.746,1.408 -8.646,1.372 -7.842,1.054 -7.258,0.82 -6.86,0.643 c 0.334,-0.162 0.811,-0.389 1.402,-0.7 0.598,-0.304 1.252,-0.622 1.943,-0.941 l 2.49,-1.153 1.345,1.748 c 0.078,0.106 0.128,0.197 0.164,0.261 0.05,0.113 0,0.199 -0.128,0.255 C 0.27,0.162 0.149,0.12 0,0" /></g><g
           transform="translate(80.6561,26.8401)"
           id="g76"><path
             id="path78"
             style="fill:#ab1f24;fill-opacity:1;fill-rule:nonzero;stroke:none"
             d="m 0,0 c -0.74,0.594 -1.58,1.033 -2.498,1.301 l -2.761,0.765 c -0.242,0.07 -0.647,0.212 -1.217,0.445 -0.519,0.205 -0.825,0.318 -0.918,0.347 -0.156,0.049 -0.249,0 -0.291,-0.121 -0.036,-0.127 0.028,-0.226 0.199,-0.297 0.484,-0.162 0.747,-0.417 0.783,-0.735 0.035,-0.333 -0.121,-1.139 -0.499,-2.406 -0.27,-0.891 -0.576,-1.874 -0.932,-2.942 -0.363,-1.062 -0.612,-1.776 -0.768,-2.109 -0.15,-0.346 -0.342,-0.565 -0.563,-0.636 -0.227,-0.085 -0.54,-0.064 -0.932,0.049 -0.206,0.064 -0.327,0.022 -0.377,-0.113 -0.028,-0.092 -0.014,-0.163 0.029,-0.198 0.049,-0.049 0.185,-0.099 0.412,-0.17 l 0.925,-0.283 1.616,-0.474 c 1.515,-0.481 2.391,-0.757 2.604,-0.813 0.74,-0.219 1.395,-0.34 1.993,-0.361 0.59,-0.028 1.217,0.092 1.907,0.368 0.683,0.269 1.267,0.686 1.751,1.238 0.476,0.552 0.825,1.196 1.038,1.945 0.292,0.991 0.314,1.953 0.036,2.901 C 1.267,-1.366 0.754,-0.601 0,0 m -1.046,-4.613 c -0.384,-1.308 -0.961,-2.228 -1.765,-2.759 -0.797,-0.53 -1.701,-0.643 -2.718,-0.346 -0.449,0.127 -0.748,0.29 -0.911,0.488 -0.157,0.191 -0.228,0.431 -0.214,0.693 0.015,0.269 0.121,0.743 0.313,1.401 0.264,0.891 0.499,1.641 0.684,2.228 l 0.804,2.413 c 0.334,1.018 0.526,1.549 0.555,1.591 0.035,0.043 0.092,0.078 0.185,0.092 0.099,0.029 0.349,-0.021 0.754,-0.134 1.167,-0.347 1.95,-1.047 2.327,-2.094 0.392,-1.054 0.392,-2.243 -0.014,-3.573" /></g><g
           transform="translate(89.1457,25.6977)"
           id="g80"><path
             id="path82"
             style="fill:#ab1f24;fill-opacity:1;fill-rule:nonzero;stroke:none"
             d="M 0,0 -2.306,0.346 C -2.54,0.382 -2.875,0.452 -3.281,0.544 -3.814,0.658 -4.177,0.743 -4.341,0.764 -4.526,0.806 -4.64,0.75 -4.654,0.622 -4.682,0.488 -4.597,0.389 -4.405,0.346 -4.049,0.254 -3.821,0.134 -3.715,0 c 0.1,-0.135 0.136,-0.474 0.107,-0.998 -0.043,-0.523 -0.185,-1.542 -0.441,-3.07 -0.249,-1.443 -0.448,-2.504 -0.605,-3.183 -0.135,-0.672 -0.306,-1.09 -0.484,-1.252 -0.171,-0.156 -0.477,-0.22 -0.911,-0.198 -0.163,0 -0.249,-0.05 -0.263,-0.163 -0.029,-0.141 0.05,-0.226 0.235,-0.262 0.078,-0.014 0.213,-0.028 0.413,-0.035 0.37,-0.021 0.925,-0.092 1.672,-0.22 0.334,-0.063 0.975,-0.205 1.9,-0.431 0.142,-0.028 0.249,-0.05 0.327,-0.064 0.256,-0.049 0.413,0.014 0.441,0.184 0.015,0.142 -0.092,0.219 -0.334,0.262 -0.356,0.064 -0.584,0.205 -0.712,0.431 -0.114,0.22 -0.121,0.765 -0.028,1.627 0.092,0.857 0.277,2.059 0.548,3.616 0.235,1.344 0.42,2.214 0.555,2.588 0.142,0.368 0.277,0.595 0.434,0.673 0.149,0.092 0.42,0.113 0.818,0.092 0.178,-0.022 0.278,0.035 0.299,0.162 C 0.278,-0.114 0.199,-0.035 0,0" /></g><g
           transform="translate(98.7661,24.9075)"
           id="g84"><path
             id="path86"
             style="fill:#ab1f24;fill-opacity:1;fill-rule:nonzero;stroke:none"
             d="m 0,0 c -0.093,0 -0.221,-0.085 -0.363,-0.269 -0.128,-0.156 -0.242,-0.29 -0.363,-0.418 -0.989,0.623 -1.978,0.977 -2.974,1.048 -1.409,0.098 -2.605,-0.347 -3.608,-1.316 -0.997,-0.962 -1.537,-2.158 -1.644,-3.558 -0.093,-1.415 0.277,-2.639 1.138,-3.665 0.847,-1.033 2.057,-1.606 3.637,-1.712 1.195,-0.078 2.213,0.205 3.053,0.877 0.846,0.658 1.281,1.153 1.302,1.486 0.014,0.163 -0.057,0.247 -0.228,0.255 -0.092,0.007 -0.199,-0.064 -0.306,-0.205 -0.953,-1.175 -1.943,-1.734 -2.974,-1.656 -0.954,0.064 -1.723,0.538 -2.299,1.436 -0.576,0.891 -0.818,2.066 -0.726,3.509 0.064,0.842 0.221,1.556 0.491,2.144 0.278,0.586 0.634,1.039 1.061,1.351 0.434,0.325 0.953,0.466 1.565,0.417 0.811,-0.057 1.466,-0.425 1.964,-1.104 0.491,-0.693 0.819,-1.294 0.996,-1.846 0.05,-0.17 0.129,-0.254 0.228,-0.254 0.171,-0.022 0.256,0.07 0.271,0.268 l 0.007,0.311 v 2.342 c 0,0.262 -0.015,0.41 -0.036,0.467 C 0.171,-0.035 0.092,-0.007 0,0" /></g><g
           transform="translate(109.3727,16.3378)"
           id="g88"><path
             id="path90"
             style="fill:#ab1f24;fill-opacity:1;fill-rule:nonzero;stroke:none"
             d="M 0,0 C -0.228,0.283 -0.669,1.111 -1.309,2.483 -2.704,5.468 -3.779,7.668 -4.526,9.04 L -5.053,9.012 C -6.113,5.963 -6.896,3.544 -7.415,1.761 -7.643,0.962 -7.842,0.389 -8.034,0.021 -8.198,-0.347 -8.369,-0.595 -8.539,-0.722 -8.703,-0.863 -8.938,-0.984 -9.23,-1.082 -9.351,-1.118 -9.4,-1.203 -9.4,-1.316 c 0.014,-0.142 0.106,-0.212 0.298,-0.205 0.057,0.007 0.136,0.021 0.228,0.042 0.349,0.064 0.733,0.121 1.132,0.142 0.192,0.007 0.519,0.014 0.96,0.007 0.349,-0.007 0.562,-0.007 0.641,0 0.206,0.014 0.306,0.092 0.299,0.226 -0.008,0.135 -0.107,0.205 -0.299,0.212 -0.256,0.008 -0.491,0.085 -0.726,0.213 -0.228,0.148 -0.342,0.346 -0.37,0.622 -0.007,0.382 0.156,1.174 0.519,2.377 0.562,0.05 1.36,0.099 2.37,0.156 0.185,0.014 0.434,0.021 0.769,0.042 0.227,-0.424 0.448,-0.905 0.661,-1.422 0.214,-0.523 0.335,-0.891 0.342,-1.089 0.021,-0.425 -0.27,-0.686 -0.882,-0.785 -0.157,-0.022 -0.235,-0.085 -0.228,-0.198 0.007,-0.135 0.121,-0.206 0.356,-0.192 0.135,0.008 0.405,0.036 0.825,0.092 0.548,0.078 1.003,0.121 1.345,0.149 0.363,0.021 0.811,0.021 1.338,0.014 0.448,-0.014 0.726,-0.014 0.825,-0.014 0.185,0.021 0.292,0.106 0.278,0.255 -0.007,0.12 -0.093,0.169 -0.242,0.177 C 0.576,-0.453 0.235,-0.283 0,0 m -6.533,2.943 1.11,3.423 C -5.245,5.984 -4.974,5.433 -4.611,4.718 -4.277,4.046 -4.028,3.53 -3.864,3.141 Z" /></g><g
           transform="translate(120.0463,20.6645)"
           id="g92"><path
             id="path94"
             style="fill:#ab1f24;fill-opacity:1;fill-rule:nonzero;stroke:none"
             d="m 0,0 c -0.085,-0.014 -0.149,-0.106 -0.214,-0.283 -0.263,-0.856 -0.533,-1.486 -0.832,-1.882 -0.299,-0.403 -0.633,-0.7 -1.011,-0.898 -0.37,-0.199 -0.967,-0.383 -1.779,-0.545 -0.327,-0.056 -0.569,-0.028 -0.704,0.071 -0.15,0.106 -0.292,0.502 -0.427,1.195 l -0.854,4.478 c -0.206,1.054 -0.313,1.747 -0.32,2.059 -0.007,0.318 0.035,0.545 0.149,0.693 0.114,0.156 0.335,0.276 0.655,0.389 0.263,0.085 0.42,0.163 0.484,0.205 0.057,0.043 0.085,0.106 0.071,0.177 -0.036,0.149 -0.15,0.198 -0.356,0.156 C -5.23,5.8 -5.401,5.765 -5.643,5.708 -6.319,5.532 -6.853,5.404 -7.223,5.341 L -9.714,4.93 c -0.242,-0.042 -0.355,-0.134 -0.32,-0.282 0.029,-0.149 0.15,-0.206 0.37,-0.177 0.306,0.049 0.548,0.014 0.733,-0.078 0.192,-0.085 0.356,-0.262 0.498,-0.517 0.15,-0.254 0.271,-0.686 0.392,-1.287 0.284,-1.521 0.533,-2.83 0.733,-3.926 0.206,-1.104 0.299,-1.797 0.284,-2.073 -0.021,-0.283 -0.092,-0.502 -0.234,-0.672 -0.136,-0.17 -0.356,-0.297 -0.655,-0.41 -0.185,-0.057 -0.313,-0.121 -0.356,-0.149 -0.036,-0.042 -0.05,-0.092 -0.05,-0.162 0.036,-0.142 0.143,-0.199 0.335,-0.163 0.071,0.021 0.163,0.042 0.299,0.077 0.555,0.156 1.295,0.333 2.213,0.51 2.611,0.495 4.547,0.835 5.792,1.012 0.014,1.81 -0.007,2.872 -0.071,3.19 C 0.213,-0.035 0.142,0.021 0,0" /></g><g
           transform="translate(144.8291,31.6907)"
           id="g96"><path
             id="path98"
             style="fill:#ab1f24;fill-opacity:1;fill-rule:nonzero;stroke:none"
             d="m 0,0 -2.163,3.643 c -0.342,0.601 -0.463,1.068 -0.335,1.408 0.121,0.339 0.306,0.601 0.57,0.785 0.213,0.156 0.277,0.297 0.213,0.417 -0.078,0.12 -0.199,0.135 -0.363,0.036 C -2.17,6.232 -2.277,6.168 -2.398,6.084 -2.697,5.857 -3.145,5.581 -3.743,5.235 -4.227,4.952 -4.597,4.746 -4.86,4.64 -5.003,4.57 -5.117,4.52 -5.202,4.471 -5.344,4.379 -5.38,4.28 -5.309,4.152 c 0.064,-0.12 0.185,-0.141 0.356,-0.056 0.32,0.155 0.626,0.205 0.947,0.191 0.313,-0.015 0.583,-0.135 0.797,-0.354 0.227,-0.219 0.512,-0.637 0.861,-1.231 l 1.48,-2.575 C -0.811,0.035 -0.705,-0.149 -0.541,-0.446 -2.761,0.162 -5.6,1.033 -9.052,2.171 -9.55,1.895 -10.084,1.592 -10.646,1.259 -10.909,1.103 -11.094,1.011 -11.201,0.962 -11.293,0.919 -11.357,0.891 -11.4,0.856 -11.507,0.792 -11.55,0.721 -11.564,0.643 -11.635,0.7 -11.742,0.714 -11.92,0.651 -12.019,0.615 -12.183,0.538 -12.425,0.424 -12.731,0.262 -13.03,0.127 -13.286,0.028 c -0.285,-0.113 -0.569,-0.212 -0.832,-0.297 -0.264,-0.078 -0.449,-0.127 -0.556,-0.177 -0.227,-0.092 -0.32,-0.198 -0.263,-0.339 0.057,-0.135 0.228,-0.163 0.52,-0.078 0.398,0.12 0.747,0.007 1.06,-0.311 0.313,-0.319 0.669,-0.984 1.067,-1.996 0.676,-1.711 1.075,-2.907 1.196,-3.6 0.107,-0.679 0.05,-1.238 -0.192,-1.677 -0.235,-0.438 -0.719,-0.799 -1.402,-1.075 -0.69,-0.276 -1.302,-0.361 -1.829,-0.255 -0.519,0.099 -0.932,0.354 -1.238,0.75 -0.313,0.411 -0.726,1.274 -1.246,2.589 -0.327,0.821 -0.597,1.585 -0.832,2.292 -0.214,0.7 -0.292,1.196 -0.214,1.493 0.079,0.269 0.292,0.495 0.612,0.651 0.185,0.085 0.264,0.191 0.207,0.311 -0.05,0.134 -0.192,0.149 -0.434,0.057 -0.257,-0.106 -0.598,-0.255 -1.025,-0.46 -0.263,-0.134 -0.512,-0.248 -0.726,-0.333 l -2.284,-0.835 c -0.207,-0.077 -0.278,-0.184 -0.228,-0.332 0.029,-0.07 0.078,-0.106 0.121,-0.12 0.057,-0.014 0.171,0 0.335,0.042 0.27,0.078 0.491,0.092 0.661,0.036 0.171,-0.064 0.349,-0.248 0.534,-0.566 0.192,-0.311 0.391,-0.722 0.598,-1.238 l 1.444,-3.728 c 0.249,-0.644 0.52,-1.118 0.783,-1.387 0.263,-0.29 0.598,-0.495 0.996,-0.63 0.413,-0.134 0.897,-0.162 1.459,-0.077 0.562,0.077 1.203,0.254 1.893,0.545 0.904,0.353 1.608,0.806 2.099,1.344 0.484,0.544 0.74,1.131 0.769,1.768 0.036,0.644 -0.185,1.564 -0.669,2.78 -0.726,1.832 -1.146,2.971 -1.267,3.445 -0.121,0.46 -0.128,0.828 -0.014,1.104 0.114,0.269 0.285,0.46 0.505,0.573 0.1,0.049 0.15,0.106 0.171,0.17 0.071,-0.071 0.178,-0.092 0.342,-0.029 0.455,0.156 0.939,0.128 1.459,-0.099 0.533,-0.24 0.946,-0.601 1.252,-1.082 0.313,-0.488 1.124,-1.832 2.412,-4.06 0.299,-0.517 0.477,-0.962 0.52,-1.338 0.05,-0.367 -0.164,-0.714 -0.626,-1.039 -0.264,-0.192 -0.37,-0.326 -0.313,-0.432 0.085,-0.134 0.213,-0.163 0.384,-0.064 0.078,0.05 0.206,0.135 0.37,0.255 0.277,0.212 0.74,0.509 1.38,0.891 0.406,0.241 0.755,0.411 1.032,0.538 0.164,0.064 0.292,0.127 0.399,0.191 0.149,0.092 0.199,0.198 0.121,0.333 -0.071,0.113 -0.171,0.12 -0.321,0.035 -0.234,-0.135 -0.54,-0.205 -0.925,-0.205 -0.37,-0.007 -0.697,0.155 -0.953,0.481 -0.271,0.332 -0.577,0.813 -0.954,1.443 -1.188,2.066 -1.814,3.155 -1.878,3.275 0.74,-0.269 1.999,-0.686 3.771,-1.266 1.779,-0.573 3.117,-0.983 3.992,-1.231 0.876,-0.262 1.352,-0.389 1.416,-0.382 0.072,0.007 0.114,0.028 0.164,0.05 0.15,0.085 0.157,0.24 0.014,0.48 z" /></g><g
           transform="translate(152.6896,33.5624)"
           id="g100"><path
             id="path102"
             style="fill:#ab1f24;fill-opacity:1;fill-rule:nonzero;stroke:none"
             d="M 0,0 C -0.285,-0.212 -0.555,-0.283 -0.797,-0.212 -1.046,-0.149 -1.437,0.212 -2,0.87 c -0.548,0.672 -1.288,1.627 -2.227,2.9 -0.818,1.104 -1.317,1.833 -1.48,2.186 -0.178,0.361 -0.249,0.616 -0.199,0.778 0.042,0.17 0.213,0.397 0.505,0.665 0.135,0.121 0.163,0.226 0.092,0.318 -0.078,0.114 -0.199,0.114 -0.355,-0.006 L -7.5,6.268 C -7.693,6.119 -7.963,5.928 -8.319,5.702 -8.781,5.39 -9.073,5.185 -9.215,5.079 -9.365,4.959 -9.408,4.867 -9.329,4.754 -9.244,4.64 -9.116,4.633 -8.959,4.74 c 0.313,0.19 0.548,0.282 0.733,0.261 0.171,-0.014 0.434,-0.226 0.79,-0.601 0.362,-0.396 0.989,-1.21 1.907,-2.448 0.882,-1.167 1.508,-2.044 1.886,-2.624 0.398,-0.573 0.583,-0.976 0.569,-1.217 -0.014,-0.234 -0.171,-0.502 -0.484,-0.807 -0.114,-0.106 -0.128,-0.205 -0.064,-0.297 0.085,-0.113 0.206,-0.113 0.349,-0.007 0.071,0.05 0.17,0.135 0.32,0.269 0.263,0.255 0.697,0.608 1.309,1.061 0.278,0.212 0.819,0.573 1.623,1.083 0.121,0.084 0.206,0.155 0.263,0.205 0.213,0.163 0.277,0.304 0.171,0.452 C 0.334,0.17 0.192,0.141 0,0" /></g><g
           transform="translate(155.8484,44.481)"
           id="g104"><path
             id="path106"
             style="fill:#ab1f24;fill-opacity:1;fill-rule:nonzero;stroke:none"
             d="m 0,0 c -0.434,1.103 -0.69,1.832 -0.761,2.186 -0.086,0.353 -0.1,0.65 -0.057,0.891 0.042,0.241 0.149,0.46 0.32,0.665 0.114,0.141 0.135,0.262 0.035,0.354 C -0.569,4.209 -0.683,4.209 -0.811,4.088 -0.911,3.996 -1.025,3.862 -1.167,3.707 -1.352,3.502 -1.566,3.268 -1.829,3.02 -2.085,2.787 -2.377,2.539 -2.718,2.271 -2.882,2.143 -3.024,2.023 -3.124,1.924 -3.252,1.804 -3.266,1.683 -3.16,1.563 c 0.072,-0.099 0.214,-0.07 0.385,0.085 0.156,0.134 0.356,0.198 0.583,0.191 0.228,-0.007 0.427,-0.099 0.591,-0.276 0.149,-0.162 0.285,-0.368 0.391,-0.608 l 0.847,-2.023 c 0.47,-1.097 0.904,-2.207 1.331,-3.318 -3.252,1.57 -5.138,2.631 -5.665,3.197 -0.299,0.333 -0.263,0.715 0.114,1.16 0.143,0.17 0.178,0.291 0.107,0.368 -0.121,0.12 -0.263,0.099 -0.441,-0.064 -0.029,-0.028 -0.114,-0.113 -0.249,-0.247 -0.47,-0.509 -0.968,-1.012 -1.495,-1.493 l -1.558,-1.337 c -0.135,-0.134 -0.164,-0.254 -0.057,-0.36 0.085,-0.1 0.185,-0.092 0.313,0.014 0.199,0.162 0.37,0.254 0.505,0.29 0.135,0.035 0.335,0.028 0.584,-0.028 0.263,-0.05 1.032,-0.376 2.298,-0.977 1.295,-0.594 2.363,-1.11 3.231,-1.535 l 3.458,-1.698 0.442,0.404 C 2.405,-6.197 2,-5.115 1.338,-3.446 Z" /></g><g
           transform="translate(167.0863,51.148)"
           id="g108"><path
             id="path110"
             style="fill:#ab1f24;fill-opacity:1;fill-rule:nonzero;stroke:none"
             d="m 0,0 c -0.1,0.078 -0.185,0.063 -0.278,-0.057 -0.064,-0.07 -0.056,-0.198 0.022,-0.375 0.541,-1.245 0.199,-2.596 -1.025,-4.089 -0.341,-0.417 -0.626,-0.658 -0.875,-0.742 -0.242,-0.085 -0.463,-0.078 -0.641,0.028 -0.192,0.113 -0.718,0.53 -1.594,1.259 -0.206,0.17 -0.626,0.524 -1.252,1.082 0.498,0.602 0.961,0.955 1.373,1.076 0.413,0.12 0.84,0.078 1.26,-0.149 0.242,-0.12 0.391,-0.134 0.47,-0.049 0.099,0.12 0.099,0.233 -0.015,0.318 -0.028,0.021 -0.064,0.05 -0.106,0.071 -0.157,0.085 -0.321,0.191 -0.491,0.332 -1.175,0.984 -1.872,1.599 -2.071,1.839 C -5.252,0.587 -5.287,0.615 -5.309,0.636 -5.394,0.707 -5.487,0.7 -5.579,0.587 -5.65,0.502 -5.636,0.389 -5.544,0.254 c 0.05,-0.084 0.136,-0.289 0.271,-0.636 0.128,-0.34 0.142,-0.651 0.05,-0.906 -0.093,-0.262 -0.242,-0.53 -0.47,-0.813 L -6.07,-2.54 c -0.335,0.269 -0.562,0.453 -0.705,0.566 -0.811,0.672 -1.522,1.323 -2.142,1.96 0.214,0.375 0.463,0.735 0.748,1.089 0.526,0.63 1.017,1.026 1.473,1.21 0.462,0.184 1.138,0.24 2.042,0.162 0.171,-0.007 0.285,0.015 0.334,0.078 0.1,0.114 0.079,0.212 -0.028,0.304 -0.697,0.383 -1.395,0.757 -2.099,1.133 l -3.907,-4.712 -1.203,-1.373 c -0.128,-0.148 -0.128,-0.268 -0.007,-0.367 0.093,-0.078 0.192,-0.057 0.313,0.056 0.292,0.262 0.52,0.418 0.691,0.453 0.17,0.05 0.391,-0.021 0.64,-0.184 0.256,-0.17 0.882,-0.672 1.9,-1.514 l 2.939,-2.49 c 0.612,-0.523 0.968,-0.927 1.067,-1.231 0.093,-0.297 -0.014,-0.637 -0.334,-1.011 -0.121,-0.142 -0.121,-0.269 -0.014,-0.354 0.114,-0.099 0.249,-0.064 0.398,0.127 0.036,0.036 0.079,0.106 0.143,0.191 0.505,0.694 0.882,1.203 1.16,1.528 0.242,0.29 0.583,0.686 1.031,1.189 0.456,0.495 0.925,1.04 1.424,1.634 l 1.75,2.115 -1.331,1.747 C 0.135,-0.12 0.057,-0.057 0,0" /></g><g
           transform="translate(174.7554,59.6111)"
           id="g112"><path
             id="path114"
             style="fill:#ab1f24;fill-opacity:1;fill-rule:nonzero;stroke:none"
             d="m 0,0 c -0.242,-0.354 -0.555,-0.552 -0.925,-0.616 -0.349,-0.049 -0.954,0.064 -1.808,0.34 -0.903,0.311 -1.608,0.361 -2.099,0.149 -0.512,-0.213 -0.968,-0.588 -1.409,-1.118 0.285,0.566 0.47,1.082 0.548,1.584 0.093,0.488 0.043,0.97 -0.121,1.443 -0.171,0.468 -0.462,0.828 -0.875,1.09 -0.619,0.382 -1.295,0.417 -2.014,0.106 -0.726,-0.325 -1.395,-0.969 -2,-1.938 -0.185,-0.305 -0.384,-0.651 -0.59,-1.04 -0.47,-0.87 -1.082,-1.917 -1.836,-3.127 -0.143,-0.24 -0.157,-0.403 -0.036,-0.481 0.114,-0.071 0.228,-0.021 0.356,0.156 0.292,0.453 0.591,0.65 0.918,0.594 0.327,-0.05 1.082,-0.446 2.249,-1.174 l 2.277,-1.436 1.181,-0.729 c 0.89,-0.552 1.331,-0.969 1.324,-1.252 -0.015,-0.269 -0.1,-0.531 -0.242,-0.764 -0.1,-0.17 -0.086,-0.283 0.035,-0.354 0.128,-0.071 0.235,-0.028 0.349,0.149 0.064,0.106 0.206,0.353 0.42,0.749 0.235,0.425 0.441,0.778 0.598,1.047 l 1.281,1.946 c 0.099,0.17 0.099,0.29 -0.015,0.354 -0.114,0.077 -0.242,0.014 -0.377,-0.17 -0.228,-0.34 -0.477,-0.545 -0.704,-0.573 -0.228,-0.035 -0.513,0.049 -0.861,0.254 -0.356,0.206 -1.274,0.779 -2.769,1.705 0.1,0.177 0.178,0.312 0.235,0.41 0.207,0.34 0.47,0.595 0.783,0.757 0.306,0.163 0.669,0.205 1.096,0.121 0.42,-0.085 1.082,-0.326 1.992,-0.722 0.712,-0.318 1.274,-0.424 1.687,-0.325 l 1.615,2.44 c 0.2,0.333 0.235,0.531 0.114,0.609 C 0.263,0.254 0.135,0.191 0,0 M -6.938,-1.309 C -7.038,-1.783 -7.202,-2.2 -7.436,-2.582 -7.472,-2.632 -7.522,-2.717 -7.6,-2.823 l -3.387,2.115 c 0.085,0.319 0.199,0.581 0.32,0.793 0.313,0.502 0.726,0.82 1.21,0.955 0.491,0.127 1.01,0.035 1.537,-0.297 0.341,-0.22 0.612,-0.496 0.818,-0.842 0.214,-0.347 0.256,-0.75 0.164,-1.21" /></g><g
           transform="translate(176.1516,69.1265)"
           id="g116"><path
             id="path118"
             style="fill:#ab1f24;fill-opacity:1;fill-rule:nonzero;stroke:none"
             d="m 0,0 c -0.612,0.283 -1.281,0.332 -1.978,0.127 -0.719,-0.205 -1.523,-0.842 -2.434,-1.91 -0.576,-0.686 -1.046,-1.111 -1.423,-1.273 -0.377,-0.156 -0.712,-0.177 -1.018,-0.035 -0.377,0.183 -0.626,0.473 -0.747,0.884 -0.114,0.417 -0.064,0.849 0.142,1.287 0.207,0.467 0.584,0.842 1.11,1.153 0.534,0.305 1.046,0.467 1.545,0.481 0.284,0 0.462,0.014 0.519,0.036 0.064,0.021 0.114,0.077 0.157,0.169 0.057,0.128 0.028,0.213 -0.093,0.269 L -4.462,1.266 -6.426,1.889 C -6.647,1.945 -6.775,1.917 -6.824,1.797 -6.874,1.705 -6.839,1.592 -6.718,1.457 -6.625,1.351 -6.568,1.252 -6.54,1.16 -7.244,0.438 -7.714,-0.184 -7.949,-0.708 -8.397,-1.67 -8.482,-2.54 -8.248,-3.332 c 0.235,-0.792 0.712,-1.351 1.424,-1.677 0.405,-0.198 0.861,-0.262 1.366,-0.219 0.498,0.049 0.946,0.212 1.345,0.481 0.398,0.283 0.904,0.75 1.508,1.408 0.627,0.686 1.146,1.111 1.559,1.287 0.413,0.184 0.832,0.184 1.231,-0.007 0.398,-0.184 0.69,-0.516 0.847,-0.997 0.164,-0.474 0.121,-0.991 -0.128,-1.535 -0.292,-0.637 -0.776,-1.09 -1.445,-1.358 -0.676,-0.276 -1.416,-0.397 -2.22,-0.361 -0.278,0.021 -0.434,-0.036 -0.477,-0.128 -0.064,-0.141 -0.035,-0.24 0.107,-0.297 0.021,-0.021 0.092,-0.049 0.199,-0.085 l 2.562,-0.941 c 0.256,-0.084 0.406,-0.077 0.462,0.036 0.043,0.113 0,0.24 -0.156,0.403 -0.135,0.142 -0.235,0.283 -0.299,0.431 0.427,0.34 0.79,0.701 1.096,1.062 0.299,0.374 0.548,0.75 0.726,1.139 0.32,0.693 0.448,1.315 0.413,1.867 C 1.822,-2.271 1.658,-1.726 1.381,-1.21 1.089,-0.701 0.633,-0.29 0,0" /></g><g
           transform="translate(180.7615,73.8595)"
           id="g120"><path
             id="path122"
             style="fill:#ab1f24;fill-opacity:1;fill-rule:nonzero;stroke:none"
             d="m 0,0 c -0.121,-0.34 -0.299,-0.545 -0.541,-0.63 -0.242,-0.078 -0.768,0 -1.601,0.248 -0.825,0.233 -1.978,0.615 -3.466,1.139 -1.288,0.452 -2.106,0.778 -2.455,0.976 -0.341,0.198 -0.54,0.382 -0.59,0.545 -0.05,0.162 -0.043,0.438 0.05,0.834 0.049,0.17 0,0.269 -0.1,0.312 C -8.831,3.466 -8.931,3.402 -9.002,3.218 L -9.706,0.99 c -0.093,-0.233 -0.207,-0.538 -0.363,-0.927 -0.207,-0.516 -0.342,-0.856 -0.406,-1.025 -0.057,-0.177 -0.028,-0.283 0.092,-0.326 0.129,-0.049 0.228,0.014 0.314,0.198 0.149,0.333 0.298,0.538 0.455,0.623 0.149,0.078 0.491,0.064 0.996,-0.064 0.506,-0.12 1.488,-0.438 2.946,-0.94 1.381,-0.496 2.377,-0.864 3.025,-1.125 0.647,-0.262 1.032,-0.482 1.153,-0.687 0.121,-0.198 0.135,-0.516 0.049,-0.933 -0.035,-0.17 0,-0.255 0.107,-0.297 0.135,-0.043 0.242,0.014 0.306,0.197 0.021,0.071 0.057,0.206 0.107,0.397 0.071,0.36 0.235,0.898 0.491,1.62 0.114,0.325 0.356,0.933 0.733,1.811 0.057,0.134 0.092,0.233 0.121,0.311 C 0.505,0.078 0.47,0.233 0.299,0.29 0.178,0.332 0.085,0.233 0,0" /></g><g
           transform="translate(183.4485,83.8192)"
           id="g124"><path
             id="path126"
             style="fill:#ab1f24;fill-opacity:1;fill-rule:nonzero;stroke:none"
             d="m 0,0 c -0.114,0.028 -0.206,-0.05 -0.27,-0.241 -0.164,-0.559 -0.321,-0.905 -0.456,-1.033 -0.135,-0.134 -0.32,-0.197 -0.555,-0.219 -0.228,-0.014 -0.882,0.078 -1.95,0.276 -1.074,0.198 -2.177,0.424 -3.323,0.679 -1.11,0.255 -2.035,0.516 -2.761,0.757 0.199,0.892 0.391,1.521 0.576,1.889 0.164,0.368 0.434,0.672 0.783,0.898 0.349,0.234 0.747,0.396 1.181,0.496 0.264,0.056 0.399,0.148 0.427,0.276 0.036,0.162 -0.042,0.261 -0.227,0.304 L -7.757,4.23 C -8.39,4.322 -8.81,4.364 -9.016,4.379 -9.08,4.152 -9.109,3.983 -9.137,3.883 -9.194,3.629 -9.265,3.296 -9.322,2.893 -9.521,1.754 -9.735,0.721 -9.941,-0.206 c -0.278,-1.237 -0.74,-3.126 -1.388,-5.68 0.377,-0.163 0.861,-0.347 1.437,-0.545 0.584,-0.191 0.89,-0.297 0.94,-0.311 0.142,-0.035 0.235,0.035 0.27,0.205 0.022,0.106 -0.042,0.22 -0.213,0.354 -0.413,0.311 -0.733,0.672 -0.947,1.083 -0.22,0.395 -0.327,0.784 -0.313,1.167 0.022,0.374 0.128,0.976 0.313,1.782 1.317,-0.156 3.01,-0.474 5.081,-0.948 1.303,-0.29 2.142,-0.516 2.527,-0.657 0.384,-0.135 0.633,-0.34 0.768,-0.602 0.121,-0.269 0.135,-0.615 0.043,-1.054 -0.043,-0.191 0,-0.297 0.142,-0.325 0.1,-0.028 0.178,0.014 0.228,0.12 0.064,0.226 0.092,0.389 0.107,0.46 l 0.185,0.941 c 0.049,0.261 0.199,0.99 0.476,2.193 L 0.1,-0.503 0.142,-0.29 C 0.192,-0.127 0.135,-0.022 0,0" /></g><g
           transform="translate(184.807,95.512)"
           id="g128"><path
             id="path130"
             style="fill:#ab1f24;fill-opacity:1;fill-rule:nonzero;stroke:none"
             d="m 0,0 c -0.142,0.007 -0.221,-0.078 -0.228,-0.255 -0.042,-0.509 -0.206,-0.821 -0.498,-0.927 -0.292,-0.113 -1.131,-0.113 -2.526,-0.007 -0.932,0.071 -1.466,0.128 -1.623,0.191 -0.149,0.064 -0.569,0.368 -1.245,0.92 -0.676,0.552 -1.26,1.054 -1.758,1.5 -0.505,0.438 -0.825,0.813 -0.996,1.11 -0.164,0.297 -0.242,0.623 -0.256,0.955 0,0.156 -0.071,0.234 -0.192,0.241 C -9.457,3.735 -9.529,3.671 -9.55,3.53 V 3.282 C -9.529,2.773 -9.536,2.334 -9.564,1.966 -9.593,1.627 -9.657,1.132 -9.763,0.502 -9.778,0.403 -9.785,0.339 -9.792,0.29 -9.799,0.106 -9.728,0.014 -9.578,0 c 0.099,-0.007 0.178,0.07 0.227,0.212 0.128,0.368 0.264,0.587 0.385,0.651 0.128,0.07 0.249,0.106 0.355,0.106 0.406,-0.042 1.459,-0.835 3.16,-2.37 -2.092,-1.358 -3.316,-2.023 -3.636,-1.988 -0.321,0.022 -0.477,0.29 -0.491,0.821 -0.007,0.184 -0.079,0.283 -0.2,0.29 -0.121,0.007 -0.199,-0.071 -0.213,-0.241 0,-0.106 -0.007,-0.226 -0.007,-0.375 0.007,-0.721 -0.022,-1.365 -0.064,-1.938 -0.022,-0.368 -0.1,-0.941 -0.207,-1.719 -0.028,-0.17 -0.042,-0.304 -0.042,-0.375 -0.022,-0.177 0.049,-0.283 0.206,-0.29 0.114,-0.007 0.171,0.057 0.221,0.205 0.064,0.269 0.199,0.524 0.412,0.764 0.207,0.234 0.662,0.545 1.367,0.948 0.704,0.41 1.444,0.814 2.213,1.224 0.768,0.403 1.288,0.644 1.565,0.721 0.278,0.079 0.826,0.086 1.637,0.022 0.911,-0.057 1.48,-0.17 1.736,-0.319 0.264,-0.148 0.399,-0.481 0.42,-0.969 0.014,-0.155 0.071,-0.233 0.2,-0.24 0.142,-0.014 0.227,0.085 0.234,0.269 0.007,0.078 0.007,0.177 0.007,0.318 -0.014,0.701 0,1.33 0.043,1.882 0.014,0.163 0.05,0.431 0.093,0.828 0.092,0.671 0.156,1.089 0.163,1.237 C 0.221,-0.114 0.149,-0.014 0,0" /></g><g
           transform="translate(21.6602,133.8454)"
           id="g132"><path
             id="path134"
             style="fill:#ab1f24;fill-opacity:1;fill-rule:nonzero;stroke:none"
             d="M 0,0 C 0.37,0 0.676,0.361 0.946,0.672 1.01,0.75 1.089,0.835 1.146,0.898 1.544,0.573 2.882,-0.538 3.629,-1.174 l 0.655,-0.552 c 0.028,-0.163 0.057,-0.326 0.078,-0.489 0.278,-1.832 0.335,-3.218 0.157,-3.926 -0.214,-0.813 -0.505,-3.445 0.05,-3.982 0.498,-0.46 1.053,-0.694 1.686,-0.694 0.996,0 1.857,0.609 1.993,0.878 0.185,0.332 -0.299,3.048 -0.726,5.256 1.238,-1.245 2.32,-2.518 3.366,-3.962 0.277,-0.368 0.541,-0.552 0.797,-0.552 0.156,0 0.284,0.057 0.384,0.163 0.157,0.17 0.221,0.446 0.185,0.757 -0.356,3.028 -2.192,5.659 -5.465,7.824 -0.086,0.064 -0.135,0.092 -0.185,0.127 -0.221,0.984 -0.456,2.151 -0.427,2.936 0,0.029 0,2.702 -0.719,2.957 C 4.932,5.758 4.348,5.779 3.964,5.624 3.437,5.397 2.946,5.093 3.124,4.364 3.167,4.18 3.394,3.155 3.658,1.811 2.875,2.348 2.185,2.78 1.985,2.78 1.914,2.766 1.822,2.744 1.715,2.716 1.558,2.674 1.381,2.624 1.217,2.617 1.188,2.9 1.174,3.374 1.174,3.883 1.146,6.168 1.053,7.937 0.299,8.277 0.164,8.34 -0.342,8.545 -0.818,8.545 -1.281,8.545 -1.53,8.361 -1.644,8.199 -1.85,7.937 -2.078,3.049 -1.188,1.025 -0.897,0.389 -0.512,0.049 0,0" /></g><g
           transform="translate(29.1108,133.3558)"
           id="g136"><path
             id="path138"
             style="fill:#ab1f24;fill-opacity:1;fill-rule:nonzero;stroke:none"
             d="m 0,0 c 0.199,0 0.555,0.085 0.989,0.198 0.192,0.042 0.363,0.099 0.413,0.099 0.107,0 9.635,0.106 10.169,2.08 0.512,1.874 -2.839,6.925 -3.914,7.824 -0.32,0.269 -0.69,0.424 -1.01,0.424 C 6.205,10.625 5.743,10.328 5.743,9.5 5.743,9.352 5.807,9.132 5.956,8.673 6.284,7.675 6.888,5.829 6.561,4.301 6.447,3.778 3.893,2.744 2.363,2.129 1.188,1.662 0.171,1.245 -0.221,0.955 -0.413,0.82 -0.519,0.587 -0.484,0.382 -0.448,0.205 -0.327,0.078 -0.135,0.014 -0.107,0 -0.064,0 0,0" /></g><g
           transform="translate(45.821,170.8585)"
           id="g140"><path
             id="path142"
             style="fill:#ab1f24;fill-opacity:1;fill-rule:nonzero;stroke:none"
             d="M 0,0 C 0.249,-0.255 0.541,-0.545 0.569,-0.637 0.626,-0.87 0.463,-1.642 0.342,-2.207 0.263,-2.632 0.185,-3 0.171,-3.205 0.157,-3.446 0.384,-3.615 0.555,-3.643 h 0.057 c 0.313,0 0.633,0.289 1.096,0.735 0.149,0.135 0.356,0.34 0.441,0.411 C 2.384,-2.681 2.605,-2.908 2.818,-3.148 2.754,-4.103 1.95,-5.73 1.167,-7.293 0.825,-7.994 0.463,-8.708 0.171,-9.359 0.107,-9.508 0.142,-9.685 0.249,-9.869 c 0.164,-0.247 0.548,-0.516 0.911,-0.467 0.84,0.106 1.494,0.574 1.943,1.359 0.64,0.884 0.875,2.079 1.039,2.957 0.028,0.127 0.049,0.247 0.071,0.36 C 4.369,-5.801 4.505,-5.985 4.618,-6.133 4.654,-6.176 4.697,-6.225 4.725,-6.261 4.775,-6.48 4.561,-6.904 4.391,-7.237 4.12,-7.746 3.85,-8.277 4.206,-8.609 c 0.277,-0.255 0.569,-0.375 0.896,-0.375 0.249,0 0.477,0.071 0.676,0.141 0.228,0.064 0.392,0.17 0.534,0 0.107,-0.141 0.057,-0.615 0.028,-0.962 -0.064,-0.495 -0.106,-0.927 0.107,-1.167 0.214,-0.241 0.441,-0.283 0.648,-0.318 0.192,-0.043 0.334,-0.064 0.448,-0.248 0.057,-0.149 0.007,-0.255 -0.142,-0.538 -0.143,-0.261 -0.328,-0.622 -0.441,-1.181 -0.128,-0.587 0.049,-1.811 0.405,-2.257 0.143,-0.17 0.292,-0.205 0.392,-0.205 l 0.085,0.007 c 0.327,0.057 0.584,0.29 0.783,0.686 0.263,0.326 0.384,0.8 0.505,1.267 0.064,0.24 0.128,0.467 0.199,0.65 0.043,0.05 0.064,0.114 0.086,0.156 0.007,0.021 0.028,0.064 0.028,0.064 0,0 0.029,0 0.093,-0.021 0.32,-0.085 1.608,-1.642 2.547,-2.781 1.943,-2.355 2.925,-3.459 3.452,-3.459 0.092,0 0.163,0.021 0.234,0.078 0.826,0.644 -0.775,3.58 -1.124,4.131 -0.897,1.422 -2.533,3.658 -3.658,4.995 -0.213,0.205 -0.213,0.205 0.513,1.315 0.341,0.489 0.697,1.012 0.975,1.472 0.263,0.41 0.548,0.884 0.633,1.287 0.043,0.22 -0.029,0.467 -0.228,0.708 -0.235,0.29 -0.69,0.573 -1.017,0.453 -0.2,-0.078 -0.385,-0.291 -0.676,-0.793 -0.242,-0.368 -0.57,-0.919 -0.876,-1.471 -0.32,-0.602 -0.427,-0.715 -0.569,-0.715 -0.043,0 -0.1,0.021 -0.164,0.029 -0.249,0.063 -0.213,0.629 -0.185,1.117 0.05,0.552 0.079,1.076 -0.227,1.33 -0.1,0.071 -0.185,0.106 -0.285,0.106 -0.27,0 -0.434,-0.255 -0.584,-0.509 C 8.169,-5.808 8.027,-6.041 7.87,-6.07 7.707,-6.105 7.522,-6.028 7.401,-5.893 c -0.064,0.071 -0.022,0.403 0,0.573 0.043,0.396 0.092,0.792 -0.114,1.061 -0.078,0.106 -0.242,0.234 -0.527,0.234 -0.192,0 -0.405,-0.057 -0.59,-0.099 C 6.077,-4.16 5.97,-4.188 5.899,-4.195 5.785,-4.075 5.515,-3.735 5.387,-3.544 5.508,-3.191 5.793,-2.618 6.12,-1.96 7.365,0.523 8.255,2.476 7.472,3.183 7.401,3.254 7.308,3.289 7.202,3.289 6.739,3.289 6.234,2.532 5.437,1.273 5.216,0.912 4.939,0.467 4.818,0.318 4.725,0.367 4.583,0.467 4.54,0.559 4.469,0.714 4.604,1.28 4.697,1.648 4.825,2.186 4.939,2.653 4.825,2.921 4.626,3.41 4.376,3.891 3.964,3.891 3.893,3.891 3.821,3.883 3.764,3.855 3.565,3.77 3.273,3.53 2.804,3.141 2.355,2.744 1.743,2.242 1.395,2.101 1.01,2.433 0.598,2.858 0.249,3.247 -0.37,3.898 -0.626,4.159 -0.882,4.173 -1.025,4.173 -1.153,4.103 -1.238,3.983 -1.658,3.41 -1.032,1.337 -1.025,1.316 -0.89,0.905 -0.42,0.424 0,0" /></g><g
           transform="translate(48.4704,151.2617)"
           id="g144"><path
             id="path146"
             style="fill:#ab1f24;fill-opacity:1;fill-rule:nonzero;stroke:none"
             d="m 0,0 c 0.05,-0.63 1.48,-1.458 2.27,-1.458 0.399,0 0.584,0.184 0.669,0.34 0.648,1.146 -1.046,6.303 -1.231,6.89 L 1.373,6.763 1.238,5.723 C 1.238,5.702 0.982,3.728 0.882,2.702 0.633,2.709 0.27,2.872 -0.05,3.31 c -0.37,0.566 -0.363,1.182 -0.356,1.819 0.015,0.898 0.022,1.818 -1.06,2.539 -0.491,0.318 -1.985,0.531 -2.483,0.531 H -4.056 C -4.362,8.17 -4.825,7.838 -5.038,7.491 -5.216,7.215 -5.195,6.989 -5.138,6.862 c 0.171,-0.453 2,-1.84 2.348,-2.016 0.883,-0.46 2.285,-2.837 2.882,-3.849 L 0.199,0.842 C 0.199,0.799 0.164,0.686 0.128,0.615 0.071,0.438 -0.021,0.226 0,0" /></g><g
           transform="translate(41.3564,162.1497)"
           id="g148"><path
             id="path150"
             style="fill:#ab1f24;fill-opacity:1;fill-rule:nonzero;stroke:none"
             d="M 0,0 C 0.142,-0.064 0.263,-0.106 0.356,-0.156 0.74,-0.361 0.847,-0.545 0.89,-0.679 0.968,-0.877 1.046,-1.005 1.046,-1.005 l 0.157,-0.254 0.206,0.212 c 0,0 0.171,0.155 0.334,0.368 0.136,0.191 0.342,0.445 0.563,0.672 C 2.412,0.099 2.605,0.205 2.79,0.325 3.138,0.53 3.473,0.728 3.515,1.04 3.572,1.514 3.345,2.143 3.017,2.412 2.683,2.681 1.537,2.943 0.982,2.943 H 0.975 C 0.569,2.921 -1.103,1.803 -1.181,0.997 -1.238,0.495 -0.548,0.219 0,0" /></g><g
           transform="translate(76.6675,183.8177)"
           id="g152"><path
             id="path154"
             style="fill:#ab1f24;fill-opacity:1;fill-rule:nonzero;stroke:none"
             d="M 0,0 C 0.199,0 0.384,0.028 0.527,0.092 0.619,0.12 0.797,0.247 1.025,0.424 0.811,-0.127 0.64,-0.899 0.463,-1.818 0.413,-2.044 0.377,-2.257 0.334,-2.448 c -0.085,0.609 -0.106,1.182 -0.028,1.599 0.028,0.156 0.007,0.41 -0.128,0.58 -0.185,0.226 -0.498,0.247 -0.854,0.028 -0.306,-0.162 -0.477,-0.58 -0.541,-1.245 -0.228,-2.582 1.345,-9.139 1.865,-9.585 0.128,-0.114 0.291,-0.177 0.505,-0.177 0.64,0 1.516,0.623 1.637,1.047 v 0.007 c 0.327,-0.248 0.789,-0.326 1.188,-0.142 2.355,1.154 3.665,3.417 4.191,5.525 0,-0.014 0.007,-0.028 0.007,-0.049 0.193,-1.04 0.926,-2.052 1.95,-2.264 -1.594,-0.941 -3.394,-2.044 -4.54,-2.766 -0.74,-0.467 -2.583,-1.471 -3.515,-1.903 -0.014,0.057 -0.043,0.114 -0.093,0.17 -0.057,0.078 -0.185,0.17 -0.398,0.17 -0.811,0 -2.961,-1.465 -3.238,-2.094 -0.271,-0.587 -0.107,-1.528 0.199,-2.016 0.199,-0.311 0.42,-0.382 0.584,-0.382 0.811,0 3.045,1.379 6.369,3.473 0.548,0.354 1.088,0.693 1.594,1.012 -0.107,-0.311 -0.015,-0.729 0.042,-1.012 0.029,-0.12 0.064,-0.283 0.064,-0.318 -0.064,-0.233 -0.199,-0.404 -0.341,-0.524 -0.107,0.149 -0.207,0.319 -0.242,0.354 -0.057,0.057 -0.135,0.078 -0.235,0.078 -0.484,0 -2.313,-0.934 -2.54,-1.458 -0.235,-0.523 0.54,-4.477 1.366,-5.815 0.242,-0.417 0.505,-0.622 0.797,-0.636 h 0.149 c 1.032,0 1.125,0.262 1.153,0.361 0.207,0.566 -0.341,1.711 -0.968,2.942 -0.085,0.177 -0.163,0.34 -0.22,0.446 -0.292,0.616 0.135,1.118 0.149,1.118 0.143,0.156 1.331,0.7 1.608,0.785 0.072,0.021 0.136,0.049 0.221,0.071 0.043,-0.142 -0.021,-0.495 -0.74,-1.323 l -0.064,-0.071 c -0.242,-0.29 -0.078,-0.7 0.221,-0.997 0.071,-0.071 0.206,-0.156 0.434,-0.156 0.178,0 0.363,0.05 0.555,0.127 -0.086,-0.092 -0.157,-0.184 -0.207,-0.247 -0.199,-0.234 -0.32,-0.382 -0.355,-0.516 -0.157,-0.538 0.519,-1.238 0.839,-1.415 0.271,-0.135 0.683,0.077 1.537,0.566 0.513,0.297 1.21,0.7 1.488,0.7 l 0.91,-0.177 c 0.079,-0.014 0.164,-0.028 0.242,-0.028 1.53,0 2.029,3.919 2.149,7.201 l 0.008,0.071 c 0.014,0.276 -0.128,0.608 -0.392,0.884 -0.341,0.347 -0.747,0.517 -1.167,0.439 -0.441,-0.085 -1.309,-0.41 -2.014,-0.672 -0.178,-0.071 -0.348,-0.127 -0.484,-0.184 -0.163,0.375 -0.363,1.04 -0.313,1.386 0.513,0.467 2.306,1.083 3.765,1.592 1.978,0.679 3.117,1.089 3.337,1.514 0.114,0.212 0.1,0.474 -0.035,0.714 -0.278,0.46 -0.961,0.736 -1.822,0.736 h -0.007 c -0.74,0.071 -1.694,-0.092 -2.733,-0.502 -0.164,-0.057 -0.42,-0.191 -0.726,-0.347 0.05,0.071 0.1,0.149 0.143,0.22 0.099,0.169 0.192,0.311 0.263,0.41 0.228,0.29 0.69,0.311 1.096,0.325 0.42,0.007 0.868,0.029 1.01,0.389 0.071,0.156 0.064,0.326 -0.007,0.489 -0.156,0.368 -0.654,0.707 -1.459,1.004 -0.042,0.064 -0.092,0.368 -0.121,0.587 -0.121,0.863 -0.327,2.292 -1.807,2.292 -0.235,0 -0.477,-0.028 -0.747,-0.099 0.085,0.453 0.363,1.309 0.469,1.627 0.057,0.219 0.121,0.375 0.136,0.446 0.042,0.184 -0.029,0.382 -0.2,0.608 C 10.909,3.013 10.005,3.537 9.087,3.537 8.902,3.537 8.703,3.515 8.532,3.466 8.625,3.784 8.767,4.173 8.909,4.563 9.486,6.176 9.635,6.713 9.529,6.982 9.372,7.35 8.454,7.824 7.643,7.824 7.045,7.824 6.547,7.591 6.191,7.145 L 6.141,7.053 C 6.091,6.833 6.212,6.685 6.305,6.55 6.397,6.43 6.483,6.31 6.476,6.105 6.469,5.956 6.397,4.923 6.234,3.983 6.184,3.749 6.141,3.515 6.091,3.282 5.778,1.712 5.444,0.085 6.526,-0.304 6.867,-0.425 7.344,-0.135 7.87,0.354 7.856,0.325 7.842,0.29 7.828,0.269 7.443,-0.347 7.031,-1.033 6.91,-1.648 6.853,-1.974 6.874,-2.356 6.903,-2.759 6.967,-3.707 6.967,-4.301 6.454,-4.436 c -0.355,0.05 -1.024,0.319 -1.281,0.467 0.05,0.099 0.164,0.234 0.264,0.34 0.27,0.304 0.619,0.693 0.583,1.195 0.007,0.587 -0.498,0.743 -0.825,0.849 -0.135,0.043 -0.285,0.099 -0.356,0.163 0.007,0.141 0.192,0.495 0.299,0.707 0.142,0.276 0.27,0.531 0.306,0.722 C 5.479,0.099 5.472,0.24 5.245,0.516 5.131,0.658 4.718,1.139 4.22,1.139 4.078,1.139 3.964,1.096 3.843,1.025 3.729,0.955 3.53,0.771 3.188,0.452 3.003,0.275 2.79,0.085 2.604,-0.085 c 0,0.092 0,0.17 0.022,0.226 C 2.661,0.382 2.576,0.799 2.355,1.061 2.263,1.174 2.135,1.195 2.014,1.231 2.263,1.45 2.54,1.683 2.868,1.966 3.608,2.603 4.448,3.325 4.64,3.431 4.896,3.579 5.109,3.87 5.173,4.152 5.216,4.364 5.152,4.506 5.095,4.577 4.91,4.81 3.985,5.15 3.394,5.15 3.188,5.15 3.017,5.107 2.889,5.022 2.683,4.902 2.619,4.725 2.562,4.591 2.519,4.456 2.476,4.329 2.291,4.159 1.758,3.664 -0.74,1.542 -1.651,1.025 L -1.722,0.99 -1.815,0.771 -1.736,0.643 C -1.594,0.396 -0.719,0 0,0 m 1.765,-6.791 c 0.32,0 0.64,0.226 0.889,0.41 0.029,-0.106 0.064,-0.212 0.093,-0.318 0.114,-0.46 0.256,-1.033 0.768,-1.182 0.221,-0.07 0.534,0.007 0.869,0.156 C 4.035,-8.079 3.643,-8.44 3.394,-8.616 3.217,-8.73 3.046,-8.737 2.889,-8.744 c -0.142,0 -0.292,-0.014 -0.42,-0.092 -0.064,0.17 -0.128,0.347 -0.199,0.552 -0.171,0.46 -0.37,1.004 -0.519,1.493 z m 10.389,-7.06 c -0.106,0.021 -0.263,0.042 -0.291,0.063 -0.143,0.156 -0.292,1.09 -0.257,1.38 0.257,0.12 1.189,0.431 1.602,0.509 0,-0.403 -0.164,-1.365 -0.328,-2.2 -0.206,0.156 -0.484,0.205 -0.726,0.248 m -2.177,0.573 c 0.007,0 0.014,0.007 0.014,0.014 0.029,-0.439 0.029,-1.203 -0.028,-1.337 -0.107,0.347 -0.022,1.21 0.014,1.323 m -1.082,1.464 c -0.042,0.035 -0.085,0.085 -0.135,0.135 -0.228,0.261 -0.555,0.622 -1.011,0.622 0.705,0.432 1.296,0.778 1.673,0.941 0.178,-0.347 0.334,-0.955 0.363,-1.203 -0.164,-0.191 -0.541,-0.382 -0.89,-0.495 m -0.484,8.376 c 0.043,0.375 0.135,0.396 0.477,0.481 0.335,0.078 0.776,0.184 1.231,0.707 0.306,0.354 0.911,0.785 1.139,0.835 0.021,-0.035 0.035,-0.092 0.042,-0.17 0.022,-0.424 -0.277,-1.089 -0.533,-1.323 -0.135,-0.113 -0.484,-0.283 -0.84,-0.452 -0.704,-0.333 -1.43,-0.665 -1.672,-1.083 0.078,0.34 0.121,0.672 0.156,1.005" /></g><g
           transform="translate(110.5633,176.9814)"
           id="g156"><path
             id="path158"
             style="fill:#ab1f24;fill-opacity:1;fill-rule:nonzero;stroke:none"
             d="M 0,0 C 0.612,-0.411 1.58,-0.559 2.355,-0.326 3.686,0.078 5.102,0.665 5.956,1.103 5.942,1.061 5.921,1.004 5.906,0.955 5.664,0.021 5.294,-1.373 4.853,-2.342 4.697,-2.653 4.54,-2.978 4.284,-3.148 c 0.014,0.127 0.064,0.304 0.092,0.417 0.093,0.354 0.2,0.757 -0.135,0.884 -0.078,0.029 -0.156,0.036 -0.242,0.036 -0.697,0 -2.135,-0.955 -2.547,-1.698 -0.1,-0.17 -1.189,-2.837 -0.527,-3.282 0.441,-0.297 1.331,0.176 2.484,0.898 0.156,0.092 0.291,0.177 0.412,0.255 C 3.8,-5.844 3.764,-6.105 3.729,-6.296 3.658,-6.749 3.615,-7.046 3.693,-7.237 c 0.164,-0.424 0.605,-0.658 1.203,-0.658 0.455,0 1.195,0.17 1.338,0.538 0.085,0.276 0.192,0.629 0.327,1.032 0.256,0.835 0.577,1.882 1.039,2.943 0.377,0.34 1.032,0.856 1.722,1.401 1.822,1.443 2.32,1.875 2.427,2.108 -0.157,-1.464 -0.406,-3.551 -0.641,-4.082 -0.106,-0.226 -0.299,-0.516 -0.505,-0.82 -0.505,-0.736 -1.025,-1.5 -0.548,-1.967 0.584,-0.587 1.843,0.078 3.053,0.708 0.398,0.212 0.825,0.438 1.11,0.544 -0.071,-0.7 -0.683,-2.639 -1.188,-4.223 -1.388,-4.393 -1.979,-6.515 -1.388,-7.01 0.1,-0.078 0.214,-0.128 0.342,-0.128 0.021,0 0.049,0 0.078,0.007 0.398,0.057 0.925,0.545 1.558,1.479 0.385,0.559 1.096,1.592 1.317,2.391 0.092,0.311 0.256,0.941 0.462,1.733 0.598,2.271 1.594,6.041 2.021,7.102 0.691,0.559 1.765,1.125 2.562,1.529 0.662,0.353 0.947,0.509 1.06,0.636 0.527,0.616 0.57,3.353 0.285,3.679 -0.114,0.127 -0.242,0.127 -0.306,0.12 C 20.85,1.797 20.779,1.641 20.708,1.471 20.644,1.301 20.53,1.033 20.274,0.799 c -0.555,-0.53 -1.459,-1.146 -1.936,-1.422 0.043,0.439 0.321,1.726 1.893,5.419 0.335,0.778 0.534,2.384 0.064,3.113 C 20.068,8.262 18.929,9.628 17.919,9.253 17.193,8.977 16.759,6.784 16.132,3.24 15.698,0.799 15.165,-2.243 14.595,-2.724 14.417,-2.851 13.784,-3.17 13.506,-3.226 c 0.029,0.135 0.171,0.361 0.257,0.516 0.213,0.347 0.441,0.736 0.448,1.147 0.007,0.339 -0.114,0.579 -0.249,0.841 -0.135,0.276 -0.285,0.587 -0.384,1.139 -0.057,0.418 0.284,1.019 0.647,1.662 0.498,0.878 1.061,1.868 0.94,2.915 C 15.022,6.204 13.798,7.145 12.966,7.42 12.51,7.583 12.169,7.541 11.969,7.343 11.357,6.699 11.713,5.779 12.048,4.888 12.311,4.202 12.574,3.494 12.446,2.886 12.418,2.702 12.325,2.469 12.218,2.221 12.048,1.811 11.863,1.344 11.82,0.827 11.806,0.665 11.784,0.481 11.763,0.283 c 0,0.014 0,0.028 -0.007,0.049 -0.021,0.057 -0.107,0.255 -0.399,0.255 -0.412,0 -1.238,-0.432 -2.362,-1.047 -0.263,-0.149 -0.562,-0.304 -0.769,-0.417 0.171,0.622 1.046,2.03 1.509,2.766 0.334,0.53 0.626,0.99 0.776,1.301 0.327,0.644 0.213,1.599 -0.271,2.321 C 9.977,5.885 9.564,6.105 9.102,6.105 8.426,6.105 7.799,5.659 7.572,5.015 7.024,4.259 5.707,3.558 3.224,2.667 2.491,2.419 1.687,2.207 0.825,2.079 0.548,2.044 0.142,1.995 -0.107,1.966 L -0.327,1.938 C -0.512,1.91 -0.648,1.754 -0.705,1.514 -0.804,1.075 -0.626,0.417 0,0 m 18.16,-0.998 0.008,0.008 0.007,-0.015 z" /></g><g
           transform="translate(114.7675,183.926)"
           id="g160"><path
             id="path162"
             style="fill:#ab1f24;fill-opacity:1;fill-rule:nonzero;stroke:none"
             d="M 0,0 C 0.818,0 2.391,0.304 3.772,0.58 4.803,0.792 5.778,0.983 6.191,0.983 H 6.205 C 7.479,0.849 8.603,1.132 8.888,1.401 9.287,1.782 9.272,3.487 8.959,4.308 8.824,4.718 8.603,4.93 8.319,4.952 H 8.241 C 7.885,4.952 7.749,4.796 7.629,4.676 7.543,4.577 7.465,4.499 7.244,4.442 4.497,3.735 0.064,1.025 -0.52,0.474 L -0.861,0.155 -0.399,0.042 C -0.299,0.007 -0.171,0 0,0" /></g><g
           transform="translate(145.7848,154.2699)"
           id="g164"><path
             id="path166"
             style="fill:#ab1f24;fill-opacity:1;fill-rule:nonzero;stroke:none"
             d="M 0,0 H 0.071 C 1.366,0 3.266,0.997 5.686,2.886 5.102,1.917 4.27,-0.488 4.327,-2.2 c 0.064,-1.641 1.174,-2.505 1.8,-2.505 h 0.007 c 0.491,0.036 0.904,0.057 1.288,0.057 0.434,0 0.74,-0.021 1.032,-0.042 l 0.093,-0.015 c 0.199,-0.006 0.412,-0.035 0.619,-0.063 0.291,-0.035 0.569,-0.064 0.775,-0.064 0.121,0 0.434,0 0.527,0.248 0.206,0.573 -0.598,1.209 -1.615,2.009 C 8.12,-2.002 7.294,-1.351 6.967,-0.785 6.796,-0.481 6.689,-0.12 6.639,0.318 6.625,0.63 6.654,1.061 6.675,1.471 6.746,2.518 6.782,3.268 6.291,3.346 c 0.007,0 0.007,0.007 0.014,0.007 L 6.476,3.494 C 6.597,3.586 6.753,3.721 6.896,3.827 7.194,3.799 7.493,3.77 7.785,3.742 8.29,3.699 8.788,3.65 9.287,3.594 9.948,3.515 10.582,3.388 11.108,3.289 11.642,3.183 12.069,3.098 12.347,3.098 l 0.042,0.007 c 0.634,0.021 1.203,0.092 1.53,0.743 0.413,0.814 -0.697,2.978 -1.416,3.353 -0.156,0.085 -0.285,0.127 -0.406,0.127 -0.37,0 -0.483,-0.339 -0.583,-0.608 C 11.443,6.508 11.357,6.26 11.172,6.055 11.094,5.984 10.731,5.85 10.034,5.9 9.927,5.914 9.763,5.928 9.578,5.949 c 0.321,0.227 0.776,0.552 1.267,0.898 1.153,0.793 2.455,1.691 2.875,2.073 0.363,0.326 0.327,1.167 0.114,2.731 -0.164,1.62 -0.491,2.377 -1.039,2.377 -0.107,0 -0.214,-0.036 -0.327,-0.092 C 11.599,13.413 10.603,12.096 9.543,10.717 9.03,10.052 8.504,9.366 7.97,8.729 7.358,8.001 6.504,7.067 5.871,6.465 5.195,6.557 3.935,6.734 3.217,6.961 2.633,7.131 2.007,7.364 1.409,7.597 0.534,7.93 -0.292,8.241 -0.882,8.326 L -0.925,8.333 -0.961,8.326 C -1.089,8.312 -1.281,8.241 -1.43,8.015 -1.843,7.463 -1.836,6.26 -1.736,5.652 -1.708,5.256 -1.644,4.98 -1.551,4.824 -1.281,4.386 -0.171,4.287 1.473,4.195 1.679,4.18 1.879,4.173 2.057,4.159 2.199,4.145 2.484,4.131 2.818,4.11 2.733,4.06 2.654,4.004 2.59,3.968 2.099,3.622 0.975,3.042 -0.1,2.992 h -0.128 c -1.11,0 -2.69,0.488 -3.842,0.842 -0.783,0.248 -1.353,0.425 -1.637,0.425 -0.263,0 -0.349,-0.128 -0.392,-0.206 -0.071,-0.205 0,-0.459 0.235,-0.813 C -5.209,2.221 -2.918,0.099 0,0 m 12.347,3.367 v 0 -0.007 z" /></g><g
           transform="translate(186.3078,128.8891)"
           id="g168"><path
             id="path170"
             style="fill:#ab1f24;fill-opacity:1;fill-rule:nonzero;stroke:none"
             d="m 0,0 c 0.569,0.382 1.032,2.016 1.103,2.794 0.05,0.418 0.014,0.672 -0.121,0.821 -0.1,0.092 -0.235,0.12 -0.548,0.12 -0.277,0 -0.683,-0.021 -1.16,-0.057 -0.626,-0.042 -1.409,-0.084 -2.128,-0.084 -1.544,0 -2.063,0.233 -2.227,0.438 -0.085,0.106 -0.171,0.34 -0.128,0.906 0.085,0.672 0.363,1.648 0.605,2.511 0.448,1.535 0.569,2.051 0.405,2.292 l -0.135,0.134 h -0.128 c -0.37,0 -1.032,-0.636 -2.362,-2.072 C -7.116,7.484 -7.365,7.23 -7.5,7.109 -7.778,6.841 -9.279,6.289 -9.927,6.274 v 0.015 c 0.078,0.283 0.263,0.615 0.413,0.884 0.121,0.212 0.22,0.382 0.256,0.516 0.156,0.566 0.085,1.161 -0.207,1.557 -0.156,0.219 -0.37,0.36 -0.597,0.375 -0.328,0 -0.634,-0.404 -1.331,-1.408 -0.313,-0.446 -0.676,-0.955 -0.868,-1.097 -0.292,-0.205 -0.747,-0.403 -1.082,-0.551 -0.277,-0.121 -0.434,-0.192 -0.526,-0.262 -0.499,-0.389 -0.506,-1.153 -0.491,-1.387 0.014,-0.41 0.249,-0.657 0.633,-0.657 0.285,0 0.626,0.141 0.925,0.275 0.142,0.064 0.356,0.156 0.42,0.163 0.249,-0.043 0.662,-0.389 0.719,-0.644 0,-0.035 -0.029,-0.134 -0.043,-0.198 -0.093,-0.283 -0.249,-0.757 0.185,-1.089 0.107,-0.085 0.27,-0.127 0.484,-0.127 0.413,0 0.975,0.162 1.21,0.226 l 0.206,-0.099 c 0.32,-0.17 0.961,-0.51 1.167,-0.715 -0.078,-0.035 -0.185,-0.07 -0.278,-0.113 -0.434,-0.177 -1.074,-0.424 -1.501,-1.04 -0.356,0.17 -1.26,0.658 -2.768,1.846 -0.847,0.673 -1.772,1.423 -2.669,2.144 -2.974,2.405 -3.814,3.063 -4.156,3.077 -0.555,0 -0.996,-0.742 -1.167,-1.068 -0.37,-0.743 -0.612,-1.79 -0.227,-2.313 0.142,-0.198 0.555,-0.432 1.394,-0.906 0.89,-0.495 2.114,-1.174 3.103,-1.952 2.79,-2.214 3.757,-3.247 4.035,-3.721 -0.05,-0.014 -0.107,-0.021 -0.171,-0.021 -0.783,0 -2.334,0.891 -3.53,1.775 -0.234,0.177 -0.676,0.014 -1.046,-0.17 -0.064,-0.042 -0.17,-0.098 -0.227,-0.127 -0.847,0.644 -2.007,1.981 -2.954,3.063 -1.074,1.231 -1.601,1.826 -1.921,1.917 -0.043,0.014 -0.085,0.022 -0.135,0.022 -0.847,0 -1.281,-2.222 -1.295,-2.802 -0.036,-1.089 0.875,-1.57 1.672,-1.995 0.292,-0.155 0.569,-0.297 0.804,-0.474 0.278,-0.198 0.975,-0.778 1.267,-1.16 -0.505,-0.297 -1.744,-0.7 -1.971,-0.7 -0.285,0 -0.804,0.198 -1.011,0.552 -0.27,0.509 -0.583,1.344 -0.797,1.903 -0.242,0.658 -0.256,0.721 -0.455,0.721 h -0.171 l -0.057,-0.163 c -0.142,-0.339 -0.263,-0.806 -0.413,-1.45 -0.348,-1.528 -0.605,-3.445 0.214,-3.898 0.085,-0.063 0.277,-0.134 0.811,-0.134 0.861,0 2.142,0.191 2.519,0.29 0.52,0.135 1.16,0.566 1.729,0.941 0.328,0.212 0.769,0.516 0.833,0.538 0.37,-0.113 0.797,-0.941 1.117,-1.543 0.349,-0.665 0.548,-1.047 0.819,-1.174 0.128,-0.064 0.334,-0.078 0.469,-0.078 0.399,0 0.918,0.106 1.203,0.389 0.135,0.149 0.206,0.326 0.206,0.517 0,0.169 -0.163,0.545 -0.733,1.733 -0.27,0.566 -0.541,1.153 -0.697,1.535 0.071,0.042 0.128,0.064 0.156,0.078 0.257,-0.17 0.641,-0.446 1.089,-0.757 1.957,-1.394 3.644,-2.554 4.334,-2.611 0.47,-0.042 0.889,0.22 1.167,0.687 0.292,0.509 0.327,1.132 0.071,1.592 -0.135,0.268 -0.918,1.004 -2.277,2.291 -1.075,1.005 -2.412,2.264 -3.231,3.155 0.491,-0.353 1.139,-0.834 1.722,-1.287 1.046,-0.793 2.206,-1.691 3.437,-2.483 0.036,-0.035 0.079,-0.205 0.121,-0.332 0.107,-0.376 0.271,-0.963 0.812,-1.295 1.088,-0.665 7.137,-1.436 8.511,-1.146 0.334,0.056 0.612,0.488 0.789,0.834 0.093,0.163 0.499,0.97 0.328,1.394 -0.128,0.311 -0.783,0.786 -2.171,1.712 -0.17,0.106 -0.334,0.226 -0.505,0.333 0.555,-0.184 1.117,-0.347 1.587,-0.347 0.278,0 0.491,0.056 0.669,0.17 m -4.974,-2.108 c -0.719,0.134 -1.395,0.261 -1.729,0.304 -0.299,0.035 -0.449,0.085 -0.52,0.113 0.114,0.156 0.306,0.325 0.456,0.417 0.22,0.121 0.306,0.382 0.419,0.687 0.15,0.438 0.342,0.983 0.918,1.252 0.007,0 0.029,0.007 0.057,0.007 0.434,0 1.466,-0.707 2.398,-1.656 0.705,-0.714 0.954,-1.167 0.982,-1.301 -0.106,-0.184 -0.462,-0.219 -0.676,-0.219 -0.249,0 -1.387,0.219 -2.305,0.396" /></g><g
           transform="translate(87.0543,134.9732)"
           id="g172"><path
             id="path174"
             style="fill:#ab1f24;fill-opacity:1;fill-rule:nonzero;stroke:none"
             d="M 0,0 C 0.157,0.162 0.206,0.643 -0.057,0.856 -0.505,1.188 -1.751,0.339 -1.409,-0.078 -1.245,-0.283 -0.142,-0.135 0,0" /></g><g
           transform="translate(62.9924,64.0462)"
           id="g176"><path
             id="path178"
             style="fill:#ab1f24;fill-opacity:1;fill-rule:nonzero;stroke:none"
             d="m 0,0 c 5.8,-5.957 25.597,-25.361 36.94,-25.389 17.093,0 61.398,47.496 61.398,61.262 0.007,8.156 -13.093,24.505 -24.33,36.035 -5.792,5.942 -25.59,25.368 -36.926,25.389 l -0.007,-3.346 v 3.346 C 19.982,97.297 -24.323,49.809 -24.323,36.036 -24.337,27.879 -11.229,11.524 0,0 m 22.437,-10.491 c -0.626,0 -1.145,0.516 -1.145,1.146 0,0.629 0.519,1.146 1.145,1.146 0.634,0 1.132,-0.517 1.132,-1.146 0,-0.63 -0.498,-1.146 -1.132,-1.146 m 8.163,-1.408 h -0.769 v 4.832 C 29.646,-7.244 29.404,-7.421 29.098,-7.591 28.799,-7.768 28.529,-7.895 28.294,-7.98 v 0.729 c 0.427,0.198 0.804,0.439 1.124,0.728 0.32,0.283 0.548,0.552 0.683,0.821 H 30.6 Z m 10.937,65.613 c 0,0 6.583,-1.259 6.704,-5.263 0.12,-4.011 -5.58,-5.78 -8.469,-5.886 v 4.046 c 0,0 2.398,0.446 2.398,1.712 0,1.259 -3.266,1.896 -4.76,2.037 -2.05,0.199 -9.628,-0.176 -11.963,4.132 -2.334,4.301 0.185,8.489 8.49,10.222 v -5.751 c 0,0 -2.548,-0.609 -2.619,-1.826 0,0 -0.007,-2.412 10.219,-3.423 m -7.344,16.857 c 2.085,0.135 4.626,-0.141 5.515,-0.247 L 39.552,54.372 c -3.103,0.438 -4.54,0.82 -5.195,1.054 z m 14.503,-27.03 10.19,-9.982 c -3.821,0.291 -7.365,0.651 -9.82,-0.799 -3.608,-2.122 -5.024,-4.612 -7.251,-7.392 v 3.671 c 1.935,5.801 9.244,8.284 10.923,8.1 -2.142,3.374 -4.042,6.402 -4.042,6.402 M 35.453,41.143 c 0.292,-0.127 1.338,-0.375 2.177,-0.516 2.626,-0.439 6.277,-0.857 6.519,-2.908 0.014,-0.155 -0.029,-0.304 -0.157,-0.439 -0.626,-0.714 -3.43,-0.82 -5.045,-0.82 -1.231,0 -2.512,0.063 -3.131,0.162 -2.704,0.418 -5.843,1.769 -5.8,4.245 0.036,2.243 1.352,3.735 4.135,4.669 L 34.2,45.621 34.129,42.14 c 0.185,-0.042 0.214,-0.53 1.324,-0.997 m -0.961,9.027 c 2.284,-0.05 4.127,-0.354 5.017,-0.566 l -0.085,-8.907 c -0.748,0.163 -1.808,0.276 -3.089,0.517 -0.968,0.176 -1.516,0.601 -1.836,0.983 z m -9.4,-6.587 c 0,0 -1.886,-3.034 -4.021,-6.416 1.672,0.184 8.981,-2.278 10.923,-8.071 0,0 0.015,-3.014 0.015,-3.686 -2.235,2.787 -3.658,5.263 -7.252,7.386 -2.476,1.449 -6.02,1.075 -9.842,0.771 z M 12.261,31.084 c 0.811,0.092 4.761,1.676 9.045,0.106 4.661,-1.705 9.393,-7.343 10.703,-9.72 0,0 0.014,-2.66 0.021,-3.318 -2.242,2.787 -7.55,6.148 -11.692,7.81 C 15.734,27.815 7.607,25.658 3.779,25.36 l 14.09,14.686 c 0,0 -3.466,-5.581 -5.608,-8.962 m 24.152,-41.653 c -0.17,-0.467 -0.427,-0.828 -0.775,-1.068 -0.342,-0.248 -0.74,-0.368 -1.203,-0.368 -0.491,0 -0.889,0.134 -1.195,0.403 -0.313,0.269 -0.499,0.644 -0.563,1.132 l 0.741,0.064 c 0.064,-0.34 0.177,-0.587 0.355,-0.743 0.178,-0.156 0.406,-0.233 0.676,-0.233 0.242,0 0.449,0.056 0.627,0.162 0.178,0.106 0.32,0.248 0.434,0.425 0.114,0.176 0.206,0.417 0.284,0.721 0.079,0.304 0.114,0.616 0.114,0.927 v 0.155 c -0.156,-0.24 -0.363,-0.438 -0.633,-0.586 -0.263,-0.149 -0.555,-0.227 -0.861,-0.227 -0.52,0 -0.954,0.184 -1.317,0.559 -0.356,0.368 -0.533,0.856 -0.533,1.464 0,0.623 0.185,1.125 0.562,1.507 0.37,0.382 0.839,0.573 1.402,0.573 0.405,0 0.782,-0.106 1.117,-0.326 0.334,-0.212 0.591,-0.523 0.768,-0.919 0.171,-0.403 0.264,-0.983 0.264,-1.74 0,-0.786 -0.086,-1.415 -0.264,-1.882 M 34.962,0 34.563,36.559 c 1.502,-0.41 3.786,-0.41 4.818,-0.382 L 39.025,0.085 c 0,0 -0.242,-2.221 -2.085,-2.221 C 35.189,-2.136 34.962,0 34.962,0 m 6.113,-11.255 c -0.399,-0.495 -0.947,-0.75 -1.644,-0.75 -0.57,0 -1.032,0.155 -1.395,0.474 -0.356,0.311 -0.562,0.729 -0.612,1.252 l 0.804,0.064 c 0.057,-0.389 0.199,-0.679 0.413,-0.87 0.22,-0.198 0.484,-0.297 0.79,-0.297 0.37,0 0.683,0.141 0.939,0.417 0.256,0.276 0.384,0.637 0.384,1.089 0,0.439 -0.121,0.779 -0.37,1.026 -0.242,0.248 -0.569,0.375 -0.968,0.375 -0.242,0 -0.469,-0.057 -0.668,-0.163 -0.2,-0.113 -0.356,-0.262 -0.47,-0.431 l -0.719,0.092 0.605,3.169 h 3.11 v -0.729 h -2.498 l -0.334,-1.655 c 0.377,0.255 0.768,0.389 1.181,0.389 0.548,0 1.01,-0.191 1.38,-0.566 0.378,-0.368 0.563,-0.849 0.563,-1.436 0,-0.559 -0.164,-1.04 -0.491,-1.45 m 4.098,-0.644 h -0.768 v 4.832 C 44.22,-7.244 43.978,-7.421 43.679,-7.591 43.38,-7.768 43.11,-7.895 42.868,-7.98 v 0.729 c 0.434,0.198 0.811,0.439 1.131,0.728 0.32,0.283 0.548,0.552 0.683,0.821 h 0.491 z m 6.384,1.408 c -0.634,0 -1.146,0.516 -1.146,1.146 0,0.629 0.512,1.146 1.146,1.146 0.626,0 1.138,-0.517 1.138,-1.146 0,-0.63 -0.512,-1.146 -1.138,-1.146 M 84.448,16.1 c 0.59,-0.615 -0.107,-1.584 -0.876,-1.414 -2.732,0.601 -9.607,4.796 -21.754,4.859 -7.735,0.029 -16.773,-2.666 -20.003,-3.749 v 1.415 c 1.779,1.691 9.407,6.077 17.071,6.459 7.757,0.382 14.745,-2.073 15.585,-2.158 -3.281,4.81 -10.803,15.316 -10.803,15.316 0,0 17.513,-17.304 20.78,-20.728 m -14.404,9.268 c -3.828,0.29 -11.955,2.426 -16.559,0.573 -4.141,-1.67 -9.443,-5.058 -11.67,-7.839 v 3.311 c 1.316,2.384 6.034,8.036 10.702,9.755 4.277,1.571 8.22,-0.007 9.038,-0.092 -2.149,3.375 -5.615,8.942 -5.615,8.942 z M 36.947,93.965 c 1.637,0 2.968,-1.386 2.968,-3.091 l -0.143,-14.46 c -1.338,-0.07 -4.205,-0.282 -5.636,-0.389 l -0.163,14.849 c 0,1.705 1.337,3.091 2.974,3.091 M 18.787,68.569 c 0.32,0.517 3.252,5.836 5.707,6.197 2.448,0.361 3.707,0.241 4.547,0.361 0.833,0.113 10.881,1.252 14.588,0.891 3.708,-0.353 10.525,-1.91 11.308,-6.458 0.775,-4.542 -4.91,-7.654 -5.921,-8.135 0,0 -3.174,-1.67 -9.094,-1.79 v 5.977 c 0,0 6.219,0.602 6.518,2.809 0.299,2.214 -11.066,3.113 -16.566,1.917 0,0 -1.374,-0.538 -2.27,-1.316 -0.897,-0.778 -6.426,-3.028 -7.181,-2.271 -0.355,0.361 0.484,1.019 0.484,1.019 0,0 -2.448,0.29 -2.12,0.799 m 0.398,-1.627 c 0.029,-0.665 -1.964,-3.056 -2.277,-2.582 -0.27,0.425 0.455,1.076 0.455,1.076 0,0 -1.43,-0.284 -1.579,0.24 -0.114,0.417 3.401,1.443 3.401,1.266 M 10.126,36.835 c 0,0 -7.486,-10.526 -10.766,-15.337 0.846,0.085 7.827,2.554 15.577,2.186 7.671,-0.368 15.314,-4.733 17.093,-6.43 v -1.401 c -3.238,1.075 -12.268,3.749 -20.004,3.692 -12.161,-0.077 -19.021,-4.294 -21.754,-4.902 -0.768,-0.162 -1.459,0.8 -0.875,1.422 3.252,3.424 20.729,20.77 20.729,20.77" /></g><g
           transform="translate(97.6161,57.7187)"
           id="g180"><path
             id="path182"
             style="fill:#ab1f24;fill-opacity:1;fill-rule:nonzero;stroke:none"
             d="m 0,0 c -0.342,0 -0.64,-0.135 -0.89,-0.411 -0.256,-0.276 -0.384,-0.636 -0.384,-1.068 0,-0.396 0.121,-0.714 0.363,-0.962 0.242,-0.247 0.534,-0.368 0.89,-0.368 0.355,0 0.647,0.121 0.875,0.368 0.228,0.248 0.342,0.587 0.342,1.019 0,0.438 -0.114,0.785 -0.349,1.04 C 0.612,-0.127 0.327,0 0,0" /></g></g></g></g></svg>