<svg height="316.227766" viewBox="0 0 252 252" width="316.227766" xmlns="http://www.w3.org/2000/svg"><path d="m170.734375 195.035156c.148437-.046875.261719-.078125.367187-.078125.261719 0 .476563.019531.714844.042969 0 .21875-.054687.570312-.15625.796875l.167969.070313-.179687-.046876c-.011719.058594-.035157.113282-.046876.160157-.296874-.238281-.648437-.546875-.808593-.820313-.023438-.046875-.046875-.078125-.058594-.125m3.875-2.90625.183594.011719c.070312-1.105469 1.835937-2.976563 2.703125-3.933594.101562-.089843.136718-.160156.226562-.214843.066406-.035157.148438-.058594.296875-.023438.191407.078125.308594.195312.386719.332031.125.203125.136719.5.113281.832031-.023437.578126-.089843 1.183594-.136719 1.71875l-.011718.011719.011718.023438c.113282.980469.523438 2.972656-.421874 3.464843-.054688.035157-.101563.054688-.171876.078126-.292968-.238282-.558593-.476563-.808593-.726563l-.042969-.035156-.046875-.011719c-.226563-.035156-.433594-.011719-.59375-.046875-.160156-.054687-.464844-.191406-.761719-.386719-.320312-.183594-.546875-.398437-.664062-.582031-.007813-.023437-.019532-.042969-.019532-.066406l-.011718-.023438-.011719-.011719v-.011718c-.058594-.078125-.058594-.214844-.035156-.386719zm1.324219 3.167969.148437-.089844.351563-.125c.070312.042969.136718.089844.238281.148438.011719.144531.070313.25.070313.304687-.046876.136719-.136719.242188-.25.308594-.125.082031-.296876.101562-.515626.035156-.101562-.21875-.089843-.34375-.042968-.582031m-10.839844-1.960937-.183594.113281.261719.160156c.402344.242187.8125.515625 1.222656.753906.96875.738281 2.199219 1.664063 2.847657 2.769531 0-.011718 0 0 .011718.011719.101563.191407.238282.375.339844.558594.195312.339844.308594.648437.160156.933594l-.011718.011719-.007813.011718c-1.003906-.070312-1.90625-.820312-3.25-.046875-.160156.089844-.308594.195313-.480469.332031l-.042968.035157-.023438.054687c-.011719.023438-.046875.136719.011719.21875 0 .007813.011719.019532.035156.042969l.019531.035156.046875.011719c.878907.308594 2.496094 1.171875 3.089844 2.050781.113281.195313.191406.433594.328125.660157.117188.195312.273438.398437.527344.535156l.019531.011718.035156.011719c.375.058594.765625.125 1.140625.183594l.089844.023437.070312-.070312c.183594-.191406.171876-.433594.136719-.671875-.113281-.71875-.503906-1.699219.054688-2.359375.378906-.171875.707031-.046875 1.175781-.089844l.035156-.011718.03125-.011719c.117188-.078125.136719-.136719.183594-.148438l.101562-.058593-.011718-.113282c-.019532-.285156-.054688-.589844-.078125-.855468v-.03125l-.011719-.023438c-.089844-.195312-.160156-.445312-.273438-.695312l.171876-.375.785156-1.710938c.035156-.011719.082031-.023438.113281-.046875.125.070313.355469.21875.433594.367187.035156.066407.046875.113282.046875.167969v.023438c-.023438.058593-.125.183593-.195313.25l-.101562.117187.101562.148438.046875.066406.078125.011719c.171875.023437.332031-.035157.457031-.070313.195313.242188.355469.457032.605469.6875l.011719.007813.011719.011719c.273437.148437.761719.273437.75.34375l-.011719.023437v.023437c-.042969.558594-.785156 1.71875-1.355469 2.503907-.089843.160156-.160156.285156-.226562.367187l-.035157.035156c-1.21875 1.980469-2.449218 3.917969-3.691406 5.914063-.445312.84375-2.042968 2.039063-1.371094 3.304687.023438.035157.046876.078126.082032.113282l.035156.046875.054688.011719c.628906.160156 1.277343.273437 1.925781.320312.433593-.023438.832031-.230469.992187-.136719l.136719.042969.09375-.113281c.910156-1.140625.613281-1.777344.773437-2.1875.695313-1.847657 1.730469-3.625 2.972657-5.367188.308593-.367187.582031-.765625.890625-1.128906.511718-.671875 1.039062-1.539063 1.824218-2.007813.058594-.035156.113282-.054687.171876-.089843h.011718c.066406.148437.101563.308593.101563.433593.011719.433594-.273438.875-.398438 1.355469-.136719.773438-.410156 1.59375-.683593 2.3125-.136719.296875-.527344.730469-.535157 1.164063.019531.148437.066407.261718.125.351562.066407.113282.136719.21875.191407.308594.046874.078125.058593.125.070312.171875v.042969c0 .011718 0 .011718-.011719.023437-.160156.332031-.925781 1.105469-1.164062 1.449219-.328125.582031-.695313 1.160156-1.09375 1.664062-.898438 1.082032-2.347657 1.949219-2.699219 3.269532l-.023438.105468.066407.066407c.25.238281.867187.386719 1.550781.480469.683594.078124 1.425781.078124 1.902344-.195313.058594-.023437.105468-.058594.136718-.101563.59375-.546874.832032-1.335937 1.050782-1.882812.296875-.71875 1.09375-2.015625 1.855468-2.734375.046876-.058594.117188-.101563.195313-.171875.195313.160156.398437.433594.648437.671875.21875.21875.390626.433594.515626.640625.273437.476562.285156.898438.125 1.320312-.183594.582032-.777344 1.164063-1.515626 1.734376-.082031.066406-.183593.125-.285156.179687-.355468.207031-.777344.390625-1.175781.605469-.148437.089844-.296875.195312-.433594.308594-.066406.046874-.113281.160156-.101562.183593v.03125l-.058594.242188.253906-.011719c.671875-.046875 1.378907-.355469 1.957031-.34375 1.085938 0 1.984376-.035156 3.046876-.035156h.042968c.046875-.019532.113282-.019532.195313-.066406.042969-.023438.089843-.070313.113281-.136719.375-.84375.375-2.953125-.320312-4.183594-.078126-.148437-.167969-.273437-.273438-.386719-.523438-.570312-1.171875-1.105468-1.527344-1.722656-.054687-.089844-.101562-.191406-.136718-.285156.011718-.066406.21875-.363282.457031-.582032.238281-.25.523437-.488281.59375-.523437l1.355469-.785156.023437-.023438c.464844-.558593.296875-1.242187.351563-1.699219v-.019531c0-.09375-.023438-.183593-.066407-.242187-.148437-.25-.421875-.214844-.445312-.226563h-.046875c-.386719.011719-.75.148438-1.082032.332031-.226562.125-.433593.28125-.625.429688-.207031.171875-.390624.320312-.546874.457031l-1.6875.980469s0 0-.011719 0c-.046875-.011719-.183594-.125-.242188-.226562-.019531-.035157-.03125-.070313-.03125-.082032 0-.011718-.011719-.011718-.011719-.011718.226563-.683594 1.035157-1.34375 1.445313-2.128907.070313-.113281.183594-.273437.261719-.433593.378906-.902344.640625-1.765626.960937-2.609376.136719-.398437.589844-1.347656.226563-2.03125-.089844-.148437-.21875-.273437-.386719-.363281-.457031-.296875-1.003906-.171875-1.460937.089844-.601563.367187-1.140626.980469-1.402344 1.390625-.054688.125-.15625.21875-.214844.378906-.808594 1.160156-1.8125 2.3125-2.792969 3.484375-.339843.480469-.75.949219-1.035156 1.460938-.21875.296875-.878906 1.402343-1.1875 1.570312-.011719 0-.011719 0-.011719 0-.171875-.476562.386719-1.230469.683594-1.800781l1.175781-2.039062 1.878907-3.339844c.125-.148438.378906-.304688.660156-.453125.160156-.082031.355468-.160157.539062-.273438.261719-.160156.511719-.34375.671875-.605469 1.070313-1.675781.636719-3.820312.785157-5.5625.046874-.695312.332031-2.964843-.351563-4.160156-.207031-.351562-.515625-.625-.949219-.683594-.429687-.070312-.945312.066407-1.558594.433594l-.035156.023438-.023437.023437c-.558594.703125-1.425781 3.335938-2.484375 4.433594-.066406-.515625.160156-1.164063.398437-1.847656.25-.777344.503907-1.617188.082031-2.371094-.023437-.023437-.023437-.046875-.035156-.058594l-.011718-.011719c-.136719-.191406-.34375-.226562-.59375-.273437-.785157-.125-2.164063-.03125-2.996094.332031l-.136719.058594.011719.136719c.054687.398437.421875.851562.546875 1.207031l.011719.160156.125 1.6875c.042968.558594.226562 1.21875.238281 1.832032.011719.617187-.125 1.105468-.683594 1.4375-.226563.125-.535156.238281-.933594.296874-.125.023438-.171875.046876-.242187.046876-.851563.066406-1.558594-.308594-2.484375-.332032-.421875-.058594-.796875.066406-1.160157.066406-.367187 0-.84375-.144531-1.355468.09375l-.183594.089844zm-20.847656 21.234374c-.101563.273438-.089844.570313-.011719.855469.410156 1.480469 2.589844 3.007813 3.351563 3.65625.21875.160157.367187.367188.628906.558594.191406.148437.453125.308594.796875.332031.238281.011719.46875-.011718.683593-.066406h.011719c1.277344-.34375 1.996094-1.664062 2.519531-2.222656.113282-.160156.433594-.410156.730469-.683594.28125-.277344.566407-.558594.601563-.925781l.011718-.214844h-.203124c-.402344 0-.71875.042969-1.085938.042969v.207031l-.011719-.207031c-.28125.023437-.546875.070312-.808593.136718-.558594.148438-1.070313.367188-1.582032.503907-.34375.089843-.683594.148437-1.050781.136719-.339844 0-.726563-.113282-1.148437-.285157-1.074219-.410156-2.144532-1.253906-2.839844-1.949219l-.078125-.078124-.34375.089843-.101563.023438zm-3.644532 1.402344c.339844 2.132813-.273437 3.453125-1.390624 4.546875-1.175782 1.140625-2.917969 1.996094-4.628907 3.089844l-.066406.042969-.011719.09375c-.011718.054687-.070312.160156-.023437.339844l.035156.117187.113281.03125c.707032.195313 1.59375-.066406 2.277344-.148437.253906-.03125.480469-.089844.71875-.148438 3.417969-.898438 5.3125-4.042969 5.609375-6.734375.054687-1.378906.125-2.757813.191406-4.082031.355469-.363282.71875-.726563 1.074219-1.046875l.007812-.011719.011719-.011719c.34375-.398437.96875-.898437 1.585938-1.445312l-.136719-.148438.136719.148438c.921875-.878907 2.085937-2.054688 2.335937-2.976563l.011719-.035156v-.03125c0-.035156-.011719-.070312-.011719-.09375-.148437-.433594-.625-.570312-1.152344-.71875-.535156-.125-1.148437-.191406-1.628906-.25-.046875 0-1.058594 0-1.425781 0h-.042969c-.058594.011719-.136718.082031-.160156.148438-.023438.070312-.011719.113281 0 .148437.058594.183594.214844.355469.375.605469.160156.226562.320312.476562.355469.601562.011719.035156.011719.058594.011719.058594-.035157.386719-.914063 1.355469-1.414063 1.824219-.308594-2.292969.523437-4.378907.203125-6.703125l-.011719-.078125-.054687-.046875c-.71875-.605469-2.976563-1.425782-4.148438-1.195313l-.09375.023438-.042968.078125c-.046876.089844-.046876.148437-.046876.195312v.019532l-.023437.023437v.058594c-.011719.296875.035156.601562.113281.898437.171875.628906.46875 1.265625.628906 1.894532.054688.226562.101563.453124.113282.671874.183594 2.3125.5 4.582032.535156 6.816407-1.09375 1.171875-2.324219 2.324219-3.738281 3.304687-.535157.410156-1.355469.535156-2.085938 1.015625-.054687.019531-.078125.054688-.101562.066407l-.207031.058593.09375.214844c.464843 1.003906 1.242187 2.460937 2.449218 2.199219.078125-.023438.148438-.046875.226563-.078125.695312-.332031 1.277343-.855469 1.8125-1.539063.492187-.640625 1.015625-1.230468 1.621093-1.8125m-38.332031-1.039062c.046875-.203125.398438-.636719.96875-1.527344.570313-.886719 1.503907-1.46875 1.503907-1.46875-.078126.296875-.179688.296875-.261719.523438-.078125.230468-1.777344 2.40625-2.003907 2.542968-.230468.148438-.261718.148438-.207031-.070312m13.359375-9.730469c.320313-.421875 1.289063-.515625 1.289063-.515625.042969.492188-.71875.832031-.8125.902344-.101563.066406-.136719.203125-.203125.328125-.070313.128906-.410156.195312-.410156.195312s-.195313-.5.136718-.910156m-16.789062 13.539063c-.089844.605468-.398438 1.183593-.433594 1.5625-.011719.101562.207031.546874.636719.613281 1.039062.171875 1.050781-.148438 1.78125-1.105469.570312-.75 1.125-1.117188 1.664062-1.960938.523438-.84375.707031-.785156.84375-1.058593.136719-.273438.179688-.683594.511719-1.457031.328125-.777344.855469-2.03125 1.023438-2.476563.183593-.453125.402343-.785156.695312-1.320313.308594-.546874.878906-.695312 1.3125-.71875.433594-.023437 1.902344.582032 1.9375.796876.011719.046874.011719.183593 0 .34375-.011719.148437-.023438.226562-.023438.339843-.011718.527344-.078124.675781-.078124.675781s-.9375.15625-.992188.441407c-.058594.285156-.160156.527343.191406.671875.355469.148437.558594.34375.558594.34375s.046875.332031-.054688.867187c-.058593.273438-.125.261719-.136718.328125-.011719.09375-.671875.136719-.785156.195313-.378907.214843-.402344.761719.042968 1.289062.160156.191407.421875.023438.492188.226563.089844.296875-.273438.695312-.34375.773437-.238282.308594-.671875.777344-1.242188.890625-.570312.113282-1.164062.332032-2.722656-.011718-.230469-.046876-.445312.171874-.582031.410156.011719.171875.011719.367187-.101563.582031.011719.023437.023438.046875.042969.058594.230469.214843.546875.488281.730469.796875.171875.308594 0 .457031.628906.625.898438.230468 1.117188-.433594 1.855469-.226563.742187.214844.035156.730469-.046875 1.035157-.078125.308593-1.09375.980468-.96875 1.519531.117187.535156.105468 1.195312.171875 1.492187.070312.296875.46875.707032.523437 1.082032.058594.375.800782.890624 1.117188.75.320312-.136719 1.496094-1.261719 1.871094-1.683594.375-.433594.558593-.71875.660156-1.09375.089844-.378906.34375-3.601563.640625-3.773438.28125-.160156 1.878906-.171875 2.289062-.308594.410157-.136718 1.460938-.226562 2.199219-.351562.730469-.136719 1.117188-.273438 1.378906-.308594.25-.035156.695313-.296875 1.039063-.386718.351562-.09375.980469-.230469 1.195312-.46875.21875-.25.410157-.410157.433594-.671876.023437-.261718-.136719-.558593-.308594-.742187-.273437-.308594-.558593-.046875-1.183593-.488281-.628907-.445313-1.367188-.332032-1.632813-.730469-.261719-.398437-1.660156-1.140625-1.753906-1.289063-.101563.046876 0 0-.046875.183594 0 .101563.128906.375.378906 1.09375.308594.890625.695312 1.6875.421875 1.765625-.503906.160157-1.378906.160157-1.621094.230469-.226562.054688-.429687.125-.683593.203125-.261719.082031-.441407.125-.683594.207031-.238282.078125-.339844.136719-.601563.054688-.273437-.066406-.558593-.316406-.664062-.671875-.101563-.351563-.089844-.5.265625-.59375.351562-.089844 1.207031-.429688 1.261718-.851563.070313-.421875-.089843-.421875-.261718-.707031-.167969-.285156-.933594.589844-.523438-.925781.023438-.066406.035156-.238282.078125-.261719.046875-.078125.824219-.054687.914063-.078125.078125-.023438.171875-.046875.332031-.082031.386719-.089844 1.261719-.285157 1.617187-.546875.101563-.078125.285157-.601563.320313-.683594.03125-.113281.179687-.339844-.253906-.558594-.441407-.214844-.328125.046875-.863281.148438-.546876.101562-1.789063.148437-1.789063.148437s.066406-.398437.101563-.773437c.011718-.09375.011718-.207032.042968-.296875.011719-.023438.011719-.035157.011719-.035157s.148437-.386718.9375-.96875c.796875-.59375 3.667969-1.152343 4.625-1.289062.96875-.136719 2.597656-.339844 2.917969-.375.332031-.023438.367187-.445312.171875-.910156-.207031-.480469-.648438-.285156-.765625-.207032-.113282.082032-.589844-.035156-1.035156-.046874-.457032 0-1.105469.128906-1.699219.230468-.601563.101563-1.800781.386719-2.175781.410156-.386719.035157-.945313.25-1.21875.308594-.273438.054688-.25-.046875.042968-.457031.296875-.410156 1.050782-.421875 1.347656-.421875.296876 0 .785157-.214844 1.320313-.457031.535156-.238281 1.058594-.613281 1.414063-.921875.351562-.308594 1.195312-.933594 1.300781-1.039063.101562-.101562.558593-.273437 1.035156-.921875.480469-.648437.261719-.753906.046875-1.195312-.207031-.445313-.832031-.390625-1.128906-.398438-.296875-.023437-1.027344-.058594-1.105469-.023437-.089844.03125-.296875.285156-.570313.375-.261718.089843-.648437.214843-.785156.125-.136718-.078125.078125-.886719.15625-1.367188.082032-.480469-.398437-.902343-.863281-1.4375-.46875-.535156-1.050781-1.515625-1.847656-1.707031-.808594-.195312-1.390625 1.332031-1.585938 1.878906-.179687.535156-.351562.902344-.429687 1.3125-.082032.410156-.261719.5-.34375.660156-.078125.160157-.261719.980469-.421875 1.414063-.160157.421875-.457031.636719-.636719.660156-.183594.023438-.25.296875-.433594.476563-.183594.183594-.796875.433594-.71875.730468.089844.308594.765625-.078124.878906-.066406.113282.011719.214844.351563.238282.433594.011718.078125-.171875.546875-.285156 1.09375-.113282.535156-.296876 1.617188-.410157 1.960938-.125.339843-.488281.214843-.71875.273437-.226562.042969-.957031.203125-1.035156.167969-.070313-.03125-.136719-.191406-.035156-.695313.101562-.511719-.285157-.863281-.546875-.988281-.273438-.128906-.671875-.539062-.785156-.6875-.128907-.144531-.605469-.5-.800782-.796875-.191406-.296875.21875-.886719.261719-1.105469.058594-.214844 1.105469-1.105468 1.242187-1.195312.136719-.09375.433594.011718.558594-.113282.136719-.125.273438-.125.582032-.125.308593-.011718 1.21875.328126 1.402343.144532.296875-.316406.285157-.238282.523438-.375.25-.136719.136719-.398438.273437-.945313.136719-.558593-.773437-1.480469-1.171875-1.8125-.410156-.332031-.546875-.605469-.777343-.773437-.214844-.171875-.921876-.695313-1.207032-.957032-.285156-.265624-.820312-.742187-1.195312-.605468-.386719.136718-.136719.558594.273437 1.390625.410157.84375.160157 1.128906.023438 1.6875-.070313.296875-.136719.101562.15625.511719.296875.410156.34375.84375.117187 1.367187-.242187.523437-1.09375 1.550781-1.289062 1.722656-.195313.160157-.660156.273438-.660156.273438-.171876.558593-.777344.683593-.855469.832031-.089844.148438-.082031.808594.046875 1.582031.125.765625-.105469 2.074219-.265625 2.644531-.15625.570313-.957031 1.8125-1.207031 2.167969-.261719.351563-.808594 1.082031-1.59375 2.359375-.789063 1.273438-1.003907 1.503906-1.140626 1.457032-.148437-.035157-.617187.492187-.785156.683593-.21875.21875-.09375.398438-.195312 1.003907m30.375-66.027344c.011718.515625.25.980468.738281 1.390625.492187.398437 1.222656.671875 2.066406.671875.832031 0 1.558594-.273438 2.0625-.671875.488281-.410157.738281-.875.738281-1.390625 0-.5-.25-.980469-.738281-1.390625-.503906-.386719-1.230469-.671875-2.0625-.671875h-.011719c-.84375 0-1.5625.273437-2.0625.671875-.480468.410156-.730468.890625-.730468 1.390625m-8.265625-.066406c0-.480469-.238281-.945313-.773438-1.367188-.535156-.410156-1.332031-.695312-2.257812-.695312-.910157 0-1.71875.285156-2.246094.695312-.535156.410156-.773437.875-.773437 1.367188 0 .476562.238281.945312.773437 1.367187.527344.398437 1.335937.695313 2.246094.695313.925781 0 1.722656-.285157 2.257812-.695313.535157-.421875.773438-.890625.773438-1.367187m-6.265625 7.007812c0 .480469.25.96875.820312 1.402344.570313.421875 1.433594.730468 2.425782.730468.992187 0 1.859374-.308593 2.429687-.730468.570313-.433594.820313-.921875.820313-1.402344 0-.488281-.25-.96875-.820313-1.402344-.570313-.421875-1.4375-.726562-2.429687-.726562h-.011719c-.980469 0-1.84375.304687-2.402344.726562-.582031.433594-.832031.914063-.832031 1.402344m-22.351563-45.121094c0-.035156.160157-2.1875.582031-5.242187.433594-3.066407 1.128907-7.023438 2.246094-10.691407.75-2.453124 1.683594-4.765624 2.925782-6.65625.503906-.742187 1.050781-1.425781 1.675781-2.007812-.875-4.617188-1.878907-6.996094-1.925781-7.089844-.363282-.820312.011718-1.777344.832031-2.140625.820312-.367187 1.777343.011719 2.144531.832031.078125.179688 3.738281 8.617188 3.453125 24.902344-.148437 8.136719-1.265625 18.246094-4.320313 30.25-.195312.742188-.867187 1.242188-1.597656 1.230469-.125 0-.25-.023437-.375-.046875-.867187-.214844-1.402344-1.105469-1.171875-1.96875 2.984375-11.777344 4.078125-21.621094 4.214844-29.511719.082031-4.695312-.171875-8.695312-.570313-11.988281-.363281.613281-.714843 1.308594-1.046874 2.085938-.902344 2.085937-1.617188 4.636718-2.175782 7.144531-1.117187 5.027343-1.550781 9.90625-1.632812 10.941406-.011719.136719-.011719.207031-.011719.207031-.066406.898438-.773437 1.59375-1.617187 1.59375-.046876 0-.078126 0-.125 0-.898438-.066406-1.574219-.898437-1.503907-1.84375m12.9375 34.921875c0-.753906.660157-1.367187 1.46875-1.367187.808594 0 1.46875.613281 1.46875 1.367187v13.699219c0 .761719-.660156 1.378906-1.46875 1.378906-.808593 0-1.46875-.617187-1.46875-1.378906zm6.472657 10.199219c0-1.445312.808593-2.722656 1.9375-3.554688l.066406-.035156c-1.046875-.820312-1.777344-2.039062-1.777344-3.417968 0-1.414063.765625-2.65625 1.847656-3.488282 1.105469-.84375 2.542969-1.3125 4.113282-1.3125 1.5625 0 3.011718.480469 4.105468 1.3125 1.09375.832032 1.855469 2.074219 1.855469 3.488282 0 1.378906-.730469 2.585937-1.777344 3.417968l.058594.046875c1.125.832031 1.9375 2.109375 1.9375 3.554688 0 1.449219-.8125 2.722656-1.9375 3.554687-1.140625.84375-2.621094 1.324219-4.253906 1.324219-1.617188-.011719-3.109375-.480469-4.25-1.324219-1.128907-.839844-1.925781-2.117187-1.925781-3.566406m13.847656-44.941406c0-2.984375.148437-5.515625.363281-7.667969.09375-.890625.890625-1.539063 1.78125-1.449219.886719.09375 1.535156.890625 1.445313 1.777344-.203126 2.042969-.339844 4.46875-.339844 7.339844 0 4.253906.292968 9.472656 1.125 15.832031.117187.890625-.511719 1.710937-1.402344 1.824219-.066406.011718-.136719.011718-.203125.011718-.808594 0-1.503906-.59375-1.605469-1.414062-.855468-6.496094-1.164062-11.851562-1.164062-16.253906m.695312 38c.035156-2.8125 2.722656-4.796875 5.734375-4.796875 2.335938 0 4.476563 1.207031 5.332031 3.066406.058594.078125.101563.160156.148438.238281.058594.113282.535156 1.207032.535156 2.882813.046875 2.714843-1.445312 6.90625-7.554687 10.234375-.230469.125-.492188.195312-.742188.195312-.5 0-.992187-.238281-1.265625-.671875-.410156-.660156-.183594-1.492187.511719-1.882812 3.023437-1.695313 4.570313-3.382813 5.347656-4.875-.71875.273437-1.503906.421875-2.324219.421875-3-.011719-5.6875-1.984375-5.722656-4.8125m12.664063-20.34375c-.8125 0-1.507813-.59375-1.609375-1.414063-.84375-6.484375-1.152344-11.839843-1.152344-16.242187 0-2.984375.148438-5.515625.367188-7.667969.089843-.890625.886718-1.539063 1.777343-1.449219.890625.09375 1.539063.890625 1.449219 1.777344-.207031 2.042969-.34375 4.46875-.34375 7.339844 0 4.253906.296875 9.472656 1.128906 15.832031.113282.890625-.511718 1.710937-1.402344 1.824219-.078124 0-.148437 0-.214843 0m.796875 30.03125c.238281-.726563 1.070312-1.125 1.835937-.898438.523438.160156 1.230469.226563 2.074219.273438.136719.011718.273438.011718.421875.011718 1.035156.011719 2.117187-.238281 2.859375-.652343.753906-.429688 1.140625-.910157 1.253906-1.628907.011719-.136718.023438-.273437.023438-.386718-.035156-.980469-.421875-1.34375-1.242188-1.800782-.820312-.410156-2.050781-.582031-2.941406-.582031-.398438 0-.730469.035157-.855469.070313-.457031.160156-.957031.101562-1.355469-.148438-.398437-.261718-.648437-.683594-.640624-1.152344l.070312-5.800781c.023438-.753906.671875-1.367187 1.46875-1.367187h5.792969c.808593 0 1.46875.613281 1.46875 1.378906 0 .761719-.660157 1.367188-1.46875 1.367188h-4.34375l-.035157 2.90625c1.207032.023437 2.746094.207031 4.183594.890624 1.46875.660157 2.859375 2.164063 2.828125 4.238282 0 .226562-.011719.480468-.046875.730468-.214844 1.675782-1.34375 2.941407-2.679687 3.65625-1.320313.730469-2.871094 1.027344-4.351563 1.039063-.207031 0-.398437-.011719-.617187-.011719-.878907-.058594-1.800781-.125-2.746094-.398437-.773437-.25-1.195313-1.015625-.957031-1.734375m11.625-24.320313c-.902344 0-1.628906-.730469-1.628906-1.617187v-20.003906h-5.117188c-.925781 0-1.664062-.730469-1.664062-1.628907 0-.902343.738281-1.632812 1.664062-1.632812h5.117188v-6.3125h-5.117188c-.925781 0-1.664062-.730469-1.664062-1.628907 0-.902343.738281-1.632812 1.664062-1.632812h5.117188v-6.347656h-5.117188c-.925781 0-1.664062-.730469-1.664062-1.628906 0-.902344.738281-1.617188 1.664062-1.617188h2.015625c.035156-.527344.058594-1.0625.058594-1.597656 0-2.542969-.445313-5.4375-1.835938-9.597656-.285156-.851563.171875-1.789063 1.027344-2.074219.851563-.285157 1.765625.171875 2.0625 1.027343 1.46875 4.386719 2.003906 7.691407 2.003906 10.644532 0 .546875-.023437 1.070312-.054687 1.597656h2.847656c-.035156-.527344-.058594-1.050781-.058594-1.597656 0-2.953125.539063-6.257813 2.007813-10.644532.285156-.855468 1.207031-1.324218 2.0625-1.027343.855469.285156 1.3125 1.222656 1.027343 2.074219-1.390624 4.160156-1.835937 7.054687-1.835937 9.597656 0 .546875.023437 1.070312.058594 1.597656h2.015625c.921875 0 1.664062.726562 1.664062 1.617188 0 .898437-.742187 1.628906-1.664062 1.628906h-5.015625v6.347656h5.015625c.921875 0 1.664062.730469 1.664062 1.632812 0 .898438-.742187 1.628907-1.664062 1.628907h-5.015625v6.3125h5.015625c.921875 0 1.664062.730469 1.664062 1.632812 0 .898438-.742187 1.628907-1.664062 1.628907h-5.015625v20.003906c-.023438.898437-.75 1.617187-1.640625 1.617187m-9.515625-45.398437c0 2.054687-.242188 3.921875-.546875 5.734375-.136719.785156-.824219 1.34375-1.597656 1.34375-.089844 0-.183594-.011719-.285157-.023438-.886719-.15625-1.46875-.988281-1.320312-1.878906.296875-1.710937.5-3.375.5-5.175781 0-2.699219-.457031-5.777344-1.835938-9.890625-.285156-.855469.171875-1.769531 1.027344-2.0625.855469-.285157 1.765625.167969 2.0625 1.023437 1.46875 4.367188 2.007813 7.855469 1.996094 10.929688m-5.289063-.226563c0 1.800781-.195312 3.464844-.457031 5.117188-.273437 1.664062-.613281 3.316406-.933594 5.152343-.535156 3.089844-1.039062 6.78125-1.039062 12.035157 0 5.265625.503906 12.09375 1.984375 21.359375.136718.890625-.46875 1.722656-1.34375 1.859375-.09375.007812-.171875.019531-.261719.019531-.789063 0-1.472656-.566406-1.609375-1.367188-1.503906-9.402343-2.015625-16.398437-2.015625-21.871093 0-5.449219.523437-9.390625 1.082031-12.59375.332032-1.890625.671875-3.542969.921875-5.105469s.421875-3.03125.421875-4.605469c0-2.609375-.445312-5.539062-1.835937-9.664062-.28125-.855469.171875-1.769531 1.027343-2.0625.855469-.285157 1.765626.167969 2.0625 1.023437 1.460938 4.355469 1.996094 7.707032 1.996094 10.703125m-5.300781.226563c0 2.054687-.238281 3.921875-.546875 5.734375-.136719.785156-.820312 1.34375-1.597656 1.34375-.089844 0-.179688-.011719-.28125-.023438-.890625-.15625-1.484375-.988281-1.324219-1.878906.296875-1.710937.5-3.375.5-5.175781 0-2.699219-.453125-5.777344-1.832031-9.890625-.285156-.855469.167968-1.769531 1.023437-2.0625.855469-.285157 1.769531.167969 2.0625 1.023437 1.460938 4.367188 1.996094 7.855469 1.996094 10.929688m-11.363281 21.851562c.066406.945313-.605469 1.777344-1.503906 1.84375-.046876 0-.082032 0-.125 0-.84375 0-1.550782-.683594-1.621094-1.59375 0 0 0-.023437-.007813-.082031 0-.054687-.011719-.144531-.023437-.273437-.023438-.238282-.046875-.589844-.09375-1.023438-.089844-.890625-.226563-2.144531-.433594-3.613281-.410156-2.941407-1.09375-6.746094-2.117188-10.121094-.617187-2.007813-1.355468-3.863281-2.199218-5.253906-.402344 3.304687-.652344 7.292969-.570313 11.988281.136719 7.886719 1.230469 17.734375 4.214844 29.507812.21875.867188-.304687 1.757813-1.171875 1.972657-.125.035156-.25.046875-.378906.046875-.738282.011718-1.410156-.480469-1.59375-1.230469-3.042969-12.015625-4.171875-22.113281-4.320313-30.25-.285156-16.285156 3.375-24.722656 3.453125-24.902344.367188-.820312 1.324219-1.199219 2.144532-.832031.820312.363281 1.195312 1.320312.832031 2.140625v.011719c0 .011718-.011719.023437-.023438.058594-.023437.054687-.058593.136718-.101562.25-.09375.226562-.21875.59375-.378907 1.070312-.316406.96875-.738281 2.441406-1.160156 4.398438-.09375.410156-.171875.84375-.261718 1.300781.625.582031 1.171874 1.253906 1.664062 2.007812.714844 1.070313 1.320312 2.289063 1.855469 3.601563 1.0625 2.609375 1.835937 5.558594 2.40625 8.351562 1.164062 5.597656 1.515625 10.578125 1.515625 10.625zm-41.417969 3.496094c.285156 10.214844 2.449219 20.929688 8.011719 30.890625 12.992187 23.273437 34.511718 34.339844 39.503906 36.640625 0 0 23.363281-7.761719 39.492188-36.640625 5.574218-9.960937 7.726562-20.6875 8.023437-30.890625-6.835937-2.527344-11.429687-7.65625-11.15625-13.367188.226563-4.652343 3.632813-8.617187 8.683594-10.953124-2.917969-13.1875-7.304688-22.316407-7.304688-22.316407-19.660156 6.953125-37.726562-9.210937-37.726562-9.210937s-18.089844 16.164062-37.738281 9.210937c0 0-4.398438 9.128907-7.304688 22.316407 5.046875 2.335937 8.457031 6.300781 8.683594 10.953124.25 5.710938-4.351563 10.851563-11.167969 13.367188m5.550781 32.496094c-5.871094-10.507813-8.128906-21.792969-8.421875-32.390625l-.058593-2.28125 2.003906-.738281c2.953125-1.097657 5.347656-2.726563 6.910156-4.515626 1.570312-1.800781 2.300781-3.648437 2.3125-5.460937 0-.101563 0-.214844-.011719-.304687-.078125-1.550782-.660156-3.023438-1.824219-4.46875-1.160156-1.4375-2.917968-2.78125-5.117187-3.796876l-2.210937-1.023437.558593-2.542969c2.996094-13.550781 7.476563-22.875 7.546875-23.023437l1.125-2.347657 2.328125.820313c3.613281 1.289063 7.167969 1.789063 10.585938 1.789063h.082031c12.707031 0 23.339844-9.6875 24.414062-10.507813.066407-.046875.078126-.058594.078126-.058594l1.675781-1.273437 1.675781 1.273437s.011719.011719.089844.058594c1.070312.832031 11.75 10.554687 24.492187 10.507813 3.410157 0 6.964844-.511719 10.578125-1.789063l2.324219-.820313 1.128906 2.347657c.070313.136719 4.125 8.582031 7.101563 21.0625.070312.273437.125.546875.195312.820312.019532.113281.042969.21875.078125.332031.035157.160157.070313.328126.113281.488282.023438.105468.046876.21875.070313.320312l.261719 1.183594.296875 1.359375-2.222657 1.023437c-2.199218 1.015626-3.957031 2.359376-5.117187 3.796876-1.164063 1.445312-1.746094 2.917968-1.824219 4.46875-.011718.089843-.011718.191406-.011718.304687 0 1.8125.730468 3.660156 2.3125 5.460937 1.5625 1.789063 3.96875 3.417969 6.917968 4.515626l2.007813.738281-.046875 1.871093-.011719.410157c-.296875 10.597656-2.550781 21.882812-8.421875 32.390625-13.550781 24.195312-35.550781 35.433594-40.835938 37.898437l-1.128906.363281-1.128906-.363281c-5.324219-2.464843-27.320312-13.703125-40.871094-37.898437m-3.089844 1.996094c14.246094 25.347656 36.859376 36.8125 42.511719 39.457031l2.542969 1.003906 2.542969-1.003906c5.652343-2.65625 28.265625-14.109375 42.523437-39.457031 6.246094-11.195313 8.617188-23.171876 8.921875-34.273438l.011719-.226562.136719-4.902344s-6.246094-1.914063-8.101563-3.15625c-2.851562-1.90625-3.636718-4.136719-2.257812-7.042969 1.324218-2.773437 8.832031-5.109375 8.832031-5.109375l-1.253906-5.699219c-.078125-.375-.15625-.738281-.25-1.105469-3.085938-13.402343-7.453125-22.484374-7.601563-22.804687l-2.53125-5.265625-5.242187 1.847656c-3.214844 1.136719-6.382813 1.59375-9.449219 1.59375-11.65625.101563-22.03125-9.4375-22.496094-9.859375l-3.761718-2.894531-3.761719 2.894531h.011719c-.46875.421875-10.839844 9.960938-22.5 9.859375-3.066407 0-6.234376-.46875-9.449219-1.59375l-5.242188-1.847656-2.53125 5.265625c-.15625.332031-4.75 9.90625-7.851562 23.910156l-1.253907 5.699219s7.511719 2.328125 8.832032 5.109375c1.378906 2.90625.59375 5.136719-2.253906 7.042969-1.859376 1.242187-8.105469 3.15625-8.105469 3.15625l.136719 5.140625c.261718 11.089843 2.632812 23.066406 8.890624 34.261719m-.820312 42.898437c.203125-.398437.546875-.320313.546875-.320313s.101563-.238281.332031-.179687c.546875.125.476563.636719.386719.558594-.09375-.070313-1.265625-.058594-1.265625-.058594m-17.347656 4.558594c-.613282.46875.902344 2.53125 2.3125 3.25 1.414062.71875 5.425781-.332031 6.394531-.777344.96875-.441406 3.589844-2.746094 4.570313-3.644531.980468-.902344 2.304687-2.007813 2.304687-2.007813s-1.996094 4.183594-2.757813 6.191407c-.765624 2.003906-.96875 4.945312-.320312 5.8125.648438.851562 2.460938.761718 2.804688.875.339843.113281 2.128906.664062 3.054687.957031.921875.296875 1.171875-.398438.761719-.683594-.410156-.273437-.523438-.375-1.332032-.886719-.796874-.515625-1.882812-1.367187-1.949218-1.527344-.070313-.171874-.070313-1.105468-.046875-1.777343.023437-.675781.023437-4.140625.171875-5.222657.160156-1.09375.878906-3.75.878906-3.75s1.183594-.078124 2.960938.195313c1.777343.261719 2.15625-.023437 2.382812-.226563.238281-.207031.488281-.480468-.226562-.652343-.71875-.171875-1.90625-1.140625-1.996094-1.21875-.101563-.078125-.273438-.296875-.625-.296875-.34375 0-.59375-.339844-.59375-.339844s-.089844-.230469.101562-.46875c.195313-.238281.089844-1.058594.089844-1.058594.355469.578125 2.292969.785156 3.113281.683594.808594-.09375 2.394531-.183594 3.03125-.296875.648438-.125.890625.339844 1.789063-.160156.582031-.320313.171875-.035157.742187-.410157.558594-.375.433594-.558593.25-.890624-.183593-.328126-.773437-.488282-1.265625-.773438-.488281-.273438-1.140625-.59375-1.433594-.753906-.296874-.148438-.148437-.042969-1.003906-.148438-.855468-.101562-1.914062-.523437-2.976562-.796875-1.058594-.273437-1.503906-.511719-1.742188-.695312-.230468-.179688-.367187-.398438-.945312-.179688-.582032.214844-.261719.988281-.195313 1.390625.070313.386719-.226562.523438-.046875.863282.195313.332031.125.652343.125.652343s-.214844-.207031-.578125-.457031c-.367187-.25-.652343.308594-.878906.59375-.214844.273438-.867187 1.148438-1.152344 1.378906-.285156.214844-.570312.636719-.863281 1-.285156.378906-1.277344 1.234375-1.277344 1.234375-.628906.089844-5.128906-.445312-5.90625-.550781-.773437-.101562-1.390625-1.546875-1.390625-1.546875-.785156.316406-.84375 1.46875-.84375 1.46875-.839843 1.324219-.214843 1.8125-.214843 1.8125s-.101563.421875.296874 1.164063c.398438.726562 1.664063 1.148437 2.941407.910156 1.273437-.238282 3.210937-.980469 3.210937-.980469-.785156 1.207031-1.46875 1.882813-4.363281 3.535156-2.894531 1.652344-4.195313.636719-5.0625.261719-.839844-.332031-1.925781-1.335938-2.300781-1.050781m-25.484375-29.953125-3.203125 1.800781c1.585937 3.160156 3.316406 6.222656 5.199218 9.1875l3.191407-1.800781-1.6875-2.996094 11.191406-6.316406c-.617187-1.035156-1.207031-2.085938-1.789063-3.144532l-11.179687 6.3125zm9.515625-10.277344-15.15625 6.847656c.476562 1.105469.980468 2.210938 1.492187 3.292969l15.160157-6.847656c-.527344-1.082031-1.027344-2.1875-1.496094-3.292969m-8.796875-3.339844-3.03125.386719c-.96875.101563-2.359375.351563-3.375.476563l-.011719-.03125c.890625-.503907 2.109375-1.175782 2.953125-1.664063l2.675781-1.539063zm4.457031-9.632812-14.75 9.085937c.46875 1.546875.96875 3.074219 1.515625 4.582031l17.210937-1.574218c-.480468-1.164063-.933593-2.335938-1.367187-3.535156l-3.726563.46875-1.085937-3.304688 3.238281-1.914062c-.375-1.253907-.71875-2.519532-1.035156-3.808594m-2.144531-12.558594-16.433594 2.710938c.113281 1.09375.25 2.1875.398437 3.28125l3.910157-.648438c2.484375-.410156 4.796875-.878906 6.949219-1.433594l.011718.054688c-1.84375.914062-3.941406 2.050781-5.46875 3.054687l-4.753906 2.953125.070312.433594c.226563 1.265625.476563 2.507812.761719 3.75l16.4375-2.726562c-.253906-1.070313-.480469-2.140626-.695312-3.222657l-3.898438.648438c-2.691406.445312-5.199219.898437-7.433593 1.34375l-.011719-.054688c1.917969-.96875 3.992187-2.203125 5.644531-3.25l4.957031-3.042969c-.171875-1.277343-.320312-2.566406-.445312-3.851562m-6.894531-7.875-10.121094.398438c.011718 1.207031.035156 2.414062.089844 3.625l10.167968-.402344c2.277344-.089844 2.941406.652344 2.984375 1.800781.023438.582031-.078125 1.140625-.203125 1.585937l3.566406.261719c.238282-.695312.332032-1.675781.308594-2.414062-.136718-3.238281-1.996094-5.039063-6.792968-4.855469m6.667968-5.65625-16.617187-.683594c-.070313 1.199219-.117188 2.40625-.148438 3.613282l16.617188.683593c.023437-1.207031.078125-2.414062.148437-3.613281m1.867188-13.355469-16.46875-2.53125c-.226563 1.070313-.433594 2.152344-.625 3.238281l3.917968.601563c2.496094.386719 4.832032.660156 7.054688.796875l-.011719.058594c-2.039062.296875-4.386719.71875-6.152343 1.195312l-5.4375 1.335938c-.191407 1.402344-.351563 2.8125-.488282 4.238281l16.46875 2.53125c.089844-1.105469.203125-2.199219.328125-3.28125l-3.917969-.605469c-2.691406-.410156-5.222656-.761718-7.476562-1.027344l.011719-.054687c2.117187-.320313 4.476562-.84375 6.371093-1.335937l5.652344-1.34375c.25-1.289063.5-2.5625.773438-3.816407m-2.597656-17.507812-8.355469-2.894531c-.453125 1.105468-.886719 2.222656-1.296875 3.339843l-.011719.035157 9.015625 3.132812c2.527344.878906 3.542969 1.972656 3.074219 3.339844-.464844 1.34375-2.0625 1.527344-4.464844.683594l-9.015625-3.132813c-.378906 1.148437-.71875 2.300781-1.050781 3.464844l8.21875 2.835937c5.117187 1.777344 8.148437.773438 9.359375-2.710937 1.242187-3.558594-.558594-6.382813-5.472656-8.09375m13.164062-8.707031-14.769531-7.707032c-.558594.949219-1.105469 1.90625-1.644531 2.863282l3.535156 1.84375c2.234375 1.164062 4.355468 2.191406 6.417968 3.035156l-.023437.054687c-2.03125-.386719-4.390625-.730469-6.210937-.855469l-5.609376-.5c-.636718 1.265626-1.253906 2.554688-1.835937 3.839844l14.773437 7.71875c.445313-1.003906.898438-2.007812 1.378907-3l-3.488281-1.824218c-2.417969-1.265626-4.695313-2.402344-6.746094-3.382813l.042968-.058594c2.109376.386719 4.515626.640625 6.464844.796875l5.765625.546875c.628907-1.125 1.277344-2.253906 1.949219-3.371093m2.816406-4.296876-13.847656-9.222656c-.683594.992188-1.359375 1.996094-2.007812 3.011719l13.847656 9.21875c.648437-1.015625 1.3125-2.015625 2.007812-3.007813m5.320313-6.886718-10.027344-13.730469c-.867187.933594-1.710937 1.878906-2.53125 2.824219l4.261719 5.359375c1.140625 1.445312 2.417968 2.972656 3.808594 4.546875l-.023438.03125c-1.890625-1.125-3.546875-2.015625-5.277344-2.859375l-6.03125-3.078125-.179687.230468c-.742188.957032-1.472657 1.9375-2.167969 2.917969l15.410156 7.15625c.890625-1.152343 1.800782-2.28125 2.757813-3.398437m-3.382813-15.238282 3.714844-3.542968-2.460938-2.585938c-.808593.707032-1.621093 1.421875-2.40625 2.152344l-2.175781 2.074219c-.605469.59375-1.199219 1.195312-1.789062 1.800781l11.488281 12.046875c2.0625-2.164063 4.25-4.226563 6.574219-6.199219l-2.496094-2.621094-3.917969 3.738282-2.144531-2.246094 3.5-3.339844-2.519531-2.644531-3.5 3.339844zm12.101563-5.480468-.761719.558594-2.359375-3.226563c.113281-.148437.375-.398437.921875-.796875.980469-.683594 1.925781-.511719 2.679688.511719.742187 1.003906.617187 2.144531-.480469 2.953125m3.71875-.707032c.578125-1.003906.707031-2.964843-.539063-4.660156-.96875-1.335937-2.074218-2.019531-3.246094-2.179687-.902343-.113281-1.664062-.226563-2.792968.605469-.96875.71875-1.058594.753906-1.585938 1.152343-.933594.695313-1.855468 1.402344-2.769531 2.117188-.226563.21875-.429687.433593-.613281.628906l9.765625 13.359375c.925781-.753906 1.859375-1.496094 2.816406-2.214844l-3.613281-4.945312.46875-.339844c.898437-.664062 1.5625-.617188 3.042968.808594 1.378907 1.289062 2.359376 2.097656 2.871094 2.460937 1.039063-.71875 2.085938-1.414062 3.136719-2.085937-.617187-.398438-2.394531-2.085938-3.730469-3.226563-1.125-.96875-2.152344-1.546875-3.15625-1.402343zm4.863281-8.113281c-.351562-.652343-.054688-1.371093.914062-1.894531 1.195313-.660156 2.289063-.726562 2.953126-.726562l-1.0625-3.101563c-1.023438 0-2.199219.226563-3.613282 1.015625-2.972656 1.640625-3.601562 4.214844-2.222656 6.769531 1.164062 2.140625 3.214844 2.78125 5.675781 2.539063 1.632813-.167969 2.382813-.054688 2.761719.652344.398438.726562.113281 1.46875-.96875 2.0625-1.175781.648437-2.589844.84375-3.558594.785156l1.140625 3.523437c.898438.066407 2.542969-.230469 3.953125-1.003906 3.453125-1.890625 3.875-4.925781 2.53125-7.410156-1.09375-2.015625-2.816406-2.882813-5.449218-2.664063-1.867188.136719-2.664063.179688-3.054688-.546875m15.628906 5.84375-6.554687-15.257812-3.328125 1.421875 6.566406 15.273437c1.09375-.5 2.199219-.980469 3.316406-1.4375m7.679688-2.699219-3.929688-12.21875 3.328125-1.070312-1.128906-3.511719c-.695313.183594-1.390625.375-2.085937.582031l-5.824219 1.878907c-.71875.253906-1.425781.515625-2.144531.789062l1.128906 3.496094 3.273437-1.046875 3.929688 12.21875c1.152343-.398438 2.292969-.777344 3.453125-1.117188m9.847656-9.164062 2.53125-10.335938c-1.171875.136719-2.347656.304688-3.523438.488282l-.429687.078125-.421875 3.945312c-.117188 1.183594-.21875 2.152344-.285156 3.203125l-.035156.011719c-.492188-1.003906-.878907-1.800781-1.460938-2.882813l-1.800781-3.535156-.820313.148438c-1.058594.214844-2.117187.457031-3.167968.71875l5.917968 9.003906 1.171875 6.460938c1.175781-.238282 2.359375-.453126 3.546875-.636719zm13.746094 5.539062c-1.058594-1.902343-2.015625-4.785156-2.175782-8.523437-.148437-3.410156.421876-6.109375 1.183594-8.058594-.832031.023438-1.675781.042969-2.507812.078125-.808594 1.722656-1.570313 4.421875-1.433594 8.09375.171875 4.101563 1.421875 6.917969 2.472656 8.511719.308594-.011719.613282-.023437.910156-.03125zm8.402344-10.988281c-.082032 1.449219-1.015626 2.304688-2.429688 2.222657-.375-.023438-.617188-.054688-.820312-.089844l.238281-4.296875c.183593-.035157.546875-.070313 1.082031-.035157 1.371094.058594 1.996094.945313 1.929688 2.199219m2.039062 4.160157c.886719-.898438 1.433594-2.371094 1.527344-4.066407.089844-1.722656-.445313-3.261719-1.3125-4.148437-.886719-.949219-2.109375-1.324219-4.046875-1.425782-2.050781-.113281-3.609375-.171874-4.601563-.035156l-.914062 16.515625h.046875c1.183593 0 2.359375.023438 3.53125.066407l.308593-5.515626c.21875.035157.535157.082032.878907.105469 1.800781.113281 3.40625-.332031 4.582031-1.496093m12.171875-3.851563.625-3.542969c-.785156-.171875-1.582031-.34375-2.378906-.492187l-3.570313-.625c-.886718-.136719-1.777344-.273438-2.675781-.386719l-2.882813 16.398438c3.019532.375 5.980469.902343 8.898438 1.574218l.628906-3.535156-5.335937-.945312.535156-3.054688 4.765625.84375.636719-3.589844-4.761719-.84375.464844-2.679687zm2.882813 14.203125 4.390624-16.050781c-1.152343-.328125-2.328124-.648438-3.5-.945313l-4.390624 16.046875c1.1875.285157 2.351562.605469 3.5.949219m9.824218-3.726562 7.570313-7.570313c-1.21875-.546875-2.453125-1.058594-3.695313-1.5625l-2.414062 3.179687c-.707032.960938-1.300782 1.722657-1.902344 2.589844l-.035156-.011718c.101562-1.105469.179687-1.996094.238281-3.226563l.285156-3.953125-.445312-.171875c-1.128907-.398437-2.265625-.765625-3.417969-1.128906l.386719 10.726562-2.347657 6.140625c1.140626.398438 2.257813.820313 3.375 1.265625zm11.546875-2.15625c-.285156.980468-.683593 2.324218-.945312 3.261718l-.84375 2.960938-2.222657-1.152344 1.890626-2.390625c.617187-.753906 1.4375-1.90625 2.074218-2.691406zm-.46875 15.078124 4.160157-16.671874c-1.410157-.777344-2.859376-1.527344-4.316407-2.246094l-11.148437 13.039062c1.164062.5 2.3125 1.023438 3.441406 1.570313l2.335938-2.9375 3.089843 1.605469-.980469 3.660156c1.164063.625 2.300782 1.285156 3.417969 1.980468m9.941407 7.339844 9.800781-13.46875c-.855469-.695312-1.710938-1.382812-2.585938-2.054687l-2.316406 3.191406c-1.480469 2.042969-2.800781 3.992187-3.941406 5.90625l-.046875-.035156c.671875-1.949219 1.367187-4.230469 1.753906-6.019531l1.3125-5.433594c-1.164062-.820313-2.335938-1.621094-3.535156-2.394532l-9.800782 13.472657c.933594.578125 1.859376 1.195312 2.757813 1.8125l2.335937-3.203125c1.609376-2.199219 3.066407-4.285156 4.34375-6.179688l.046876.035156c-.683594 2.027344-1.300782 4.375-1.746094 6.269532l-1.402344 5.664062c1.027344.796875 2.03125 1.605469 3.023438 2.4375m17.472656-.546875 2.90625-1.902343c-.195313-.796876-.890625-2.050782-2.191406-3.328126-3.109376-3.089843-7.53125-3.566406-11.667969.570313-1.710938 1.71875-2.601563 3.453125-2.757813 5.402344-.160156 1.890625.535156 3.738281 2.425782 5.617187 1.253906 1.242188 2.976562 2.179688 3.976562 2.578125l6.304688-6.246093-3.75-3.714844-2.460938 2.484375 1.273438 1.265625-2.039063 2.0625c-.171875-.058594-.558594-.34375-.898437-.683594-1.574219-1.5625-1.4375-4 .773437-6.234375 2.417969-2.429687 4.742187-2.167969 6.316406-.605469 1.105469 1.070313 1.535157 1.914063 1.789063 2.734375m8.433594 19.308594 7.351562-4.921875c-.605469-1.027344-1.230469-2.042969-1.882812-3.054688l-.023438-.035156-7.941406 5.300782c-2.222656 1.480468-3.714844 1.640624-4.515625.441406-.785157-1.183594.035156-2.5625 2.15625-3.976563l7.933593-5.300781c-.695312-.992188-1.402343-1.96875-2.132812-2.929688l-7.226562 4.84375c-4.511719 3.011719-5.539063 6.019532-3.488282 9.109376 2.109375 3.132812 5.449219 3.40625 9.769532.523437m-1.003907 15.75 15.066407-7.121094c-.410157-1.015625-.84375-2.03125-1.285157-3.03125l-3.601562 1.695313c-2.28125 1.085937-4.378907 2.15625-6.304688 3.296875l-.023437-.058594c1.527344-1.390625 3.226562-3.054687 4.421875-4.445313l3.785156-4.160156c-.625-1.277344-1.277344-2.53125-1.960937-3.785156l-15.066407 7.125c.535157.957031 1.058594 1.925781 1.5625 2.917969l3.554688-1.675781c2.460937-1.164063 4.753906-2.289063 6.769531-3.339844l.023438.058594c-1.585938 1.457031-3.238282 3.214843-4.535157 4.671874l-3.910156 4.261719c.523437 1.1875 1.023437 2.382813 1.503906 3.589844m1.742188 4.84375 15.707031-5.480469c-.375-1.152344-.773438-2.292968-1.195312-3.417968l-15.707032 5.480468c.421875 1.128906.820313 2.269532 1.195313 3.417969m2.269531 8.390625 17.003906.285156c-.214844-1.253906-.464844-2.496094-.726562-3.726562l-6.851563.167968c-1.847656.035157-3.828125.140626-5.925781.296876l-.011719-.03125c2.039063-.832032 3.75-1.621094 5.46875-2.484376l6.097657-2.953124-.066407-.273438c-.320312-1.175781-.660156-2.335938-1.015625-3.488281l-15 7.964843c.367188 1.390626.707032 2.816407 1.027344 4.242188m14.773438 11.601562 3.554687-.410156c-.070313-1.070312-.160156-2.140625-.273437-3.214844l-.34375-2.972656c-.113282-.84375-.226563-1.675781-.351563-2.507812l-16.539063 1.878906c.480469 2.953125.808594 5.949219.980469 8.984375l3.589844-.414063-.613281-5.378906 3.074218-.351562.546876 4.808594 3.625-.410157-.546876-4.808593 2.714844-.308594zm.589843 8.207032c-.042969 1.195312-.75 1.847656-2.027343 1.824218-1.253907-.023437-2.085938-.808593-2.0625-2.175781l.011718-.9375 4 .070313c.046875.179687.089844.535156.078125 1.21875m1.949219 4.148437c.628906-.648437 1.1875-1.183593 1.207031-2.585937.011719-1.199219.035157-1.300782.046875-1.949219.011719-1.164063 0-2.335937-.023437-3.488281-.03125-.320313-.078125-.605469-.125-.867188l-16.546875-.273437c.042968 1.1875.066406 2.382812.066406 3.578125l6.121094.105468-.011719.578126c-.023437 1.117187-.457031 1.609374-2.484375 1.9375-1.859375.332031-3.101562.617187-3.691406.8125-.046875 1.261718-.125 2.507812-.230469 3.757812.683594-.25 3.113281-.648438 4.820313-1.023438 1.460937-.320312 2.542968-.777343 3.035156-1.664062h.101562c.457032 1.070312 1.9375 2.347656 4.035156 2.394531 1.640626 0 2.847657-.46875 3.679688-1.3125m-1.308594 13.347657c.613282-.820313 1.136719-1.894532 1.367188-3.488282.488281-3.363281-1.1875-5.414062-4.058594-5.859375-2.417969-.363281-4.148438.890625-5.449219 3-.84375 1.410157-1.390625 1.925781-2.1875 1.808594-.820312-.125-1.242187-.796875-1.058593-2.015625.191406-1.320312.886718-2.574219 1.515624-3.304688l-3.5-1.21875c-.59375.683594-1.34375 2.164063-1.582031 3.761719-.570312 3.894531 1.582031 6.0625 4.386719 6.496094 2.269531.339844 4-.503906 5.402344-2.738281 1.015625-1.558594 1.457031-2.222656 2.277344-2.09375.730468.113281 1.117187.773437.960937 1.867187-.195313 1.34375-.800781 2.269531-1.199219 2.792969zm-16.972656 3.257812 16.128906 3.980469.863282-3.511719-16.136719-3.988281c-.261719 1.183593-.546875 2.359375-.855469 3.519531m8.480469 15.285156 3.476562 1.21875c.273438-.660156.535157-1.332031.796875-2.015625l2.019532-5.78125c.226562-.726562.441406-1.445312.660156-2.175781l-3.476563-1.21875-1.140625 3.246094-12.117187-4.226563c-.375 1.152344-.773438 2.289063-1.195313 3.417969l12.117188 4.230469zm-9.597657 5.847656 6.714844 8.261719c.589844-1.023437 1.171875-2.0625 1.742188-3.097656l.195312-.390625-2.882812-2.710938c-.890625-.808593-1.585938-1.46875-2.382813-2.164062l.023438-.035156c1.09375.214844 1.957031.386718 3.179687.570312l3.90625.695313.378906-.742188c.453126-.980469.910157-1.960937 1.34375-2.964843l-10.746093-.714844-5.859375-2.953125c-.523438 1.082031-1.0625 2.152343-1.628906 3.214843zm-3.121093 8.945313c3.121093 1.972656 5.855469 2.609375 7.75 2.746094.445312-.695313.875-1.398438 1.308593-2.105469-2.074218-.308594-4.707031-1.1875-7.578124-2.988281-3.167969-2.003907-5.230469-4.273438-6.347657-6.132813l-.046875.082032c-.398437.671874-.820312 1.34375-1.230468 2.015624.867187 1.710938 2.667968 4.183594 6.144531 6.382813m31.332031-52.394531c0 60.898437-49.296875 110.273437-110.101562 110.273437-60.804688 0-110.101563-49.375-110.101563-110.273437 0-60.894532 49.296875-110.269532 110.101563-110.269532 60.804687 0 110.101562 49.375 110.101562 110.269532m7.613281-15.488282-6.085937-6.714843 3.042968-8.535157-6.898437-5.871093 1.894531-8.855469-7.601562-4.921875.738281-9.027344-8.195313-3.886719-.453124-9.050781-8.617188-2.792969-1.617188-8.898437-8.914062-1.644531-2.78125-8.613282-9.050781-.457031-3.875-8.183593-9.027344.730468-4.910156-7.605468-8.855469 1.90625-5.871094-6.894532-8.527344 3.042969-6.722656-6.089844-8.058594 4.128907-7.453124-5.152344-6.726563 4.648437-.714844.492188-8.058593-4.125-6.726563 6.085937-8.523437-3.042968-5.871094 6.894531-8.855469-1.902344-4.914063 7.613281-9.027343-.730468-3.875 8.183593-9.058594.457031-2.78125 8.613282-8.914063 1.632812-1.640624 8.898438-8.617188 2.792968-.445312 9.039063-8.183594 3.886719.695312 9.050781-7.601562 4.921875 1.90625 8.855469-6.898438 5.871093 3.042969 8.535157-6.085937 6.714843 4.136718 8.070313-5.148437 7.453125 5.148437 7.453125-4.136718 8.058594 6.085937 6.726562-3.042969 8.523438 6.898438 5.871093-1.90625 8.855469 7.601562 4.921875-.738281 9.039063 8.183594 3.886719.453125 9.050781 8.617187 2.78125 1.640625 8.902343 8.914063 1.640626 2.78125 8.617187 9.050781.441406 3.886719 8.183594 9.027343-.738281 4.921876 7.613281 8.855468-1.894531 5.871094 6.898437 8.523438-3.035156 6.714843 6.078125 8.070313-4.140625 7.453125 5.152344 7.453125-5.152344 8.070312 4.140625 6.710938-6.066406 8.527344 3.03125 5.871093-6.894532 8.855469 1.894532 4.910156-7.613282 9.027344.738282 3.875-8.171875 9.0625-.457031 2.78125-8.613282 8.914062-1.644531 1.628907-8.898437 8.617187-2.78125.453125-9.050782 8.195313-3.886718-.738282-9.027344 7.613282-4.910156-1.90625-8.859376 6.898437-5.867187-3.042969-8.539063 6.074219-6.710937-4.128906-8.058594 5.152344-7.453125-5.152344-7.453125zm-2.769531-7.386718 6.257812 6.917968-4.253906 8.308594 5.300782 7.683594-5.300782 7.683594 4.242188 8.285156-6.257813 6.929688 3.132813 8.773437-7.101563 6.042969 1.960938 9.128906-7.839844 5.0625.761719 9.296875-8.445313 4.003906-.464843 9.308594-8.878907 2.863281-1.675781 9.175782-9.175781 1.683593-2.871094 8.867188-9.3125.46875-4 8.433593-9.300781-.761718-5.0625 7.828125-9.128906-1.949219-6.050782 7.101562-8.789062-3.121093-6.917969 6.246093-8.296875-4.253906-7.683594 5.300782-7.667968-5.300782-8.308594 4.253906-6.917969-6.246093-8.789063 3.121093-6.03125-7.101562-9.128906 1.960938-5.058594-7.839844-9.300781.761718-4-8.433593-9.324219-.46875-2.859374-8.878907-9.175782-1.683593-1.6875-9.164063-8.867187-2.863281-.46875-9.308594-8.433594-4.003906.753906-9.289063-7.832031-5.070312 1.949219-9.117188-7.101563-6.042968 3.136719-8.785156-6.257813-6.917969 4.261719-8.289063-5.296875-7.679687 5.296875-7.683594-4.25-8.308594 6.257813-6.90625-3.136719-8.785156 7.101563-6.042969-1.949219-9.117187 7.832031-5.0625-.753906-9.289063 8.421875-4.011718.480469-9.308594 8.855468-2.875 1.6875-9.175782 9.175782-1.671874 2.859374-8.878907 9.324219-.46875 3.988281-8.433593 9.300782.75 5.058594-7.839844 9.121093 1.960937 6.050781-7.101562 8.777344 3.132812 6.917969-6.253906 8.308594 4.25 7.667969-5.300781 7.683593 5.300781 8.296875-4.25 6.917969 6.253906 8.789063-3.132812 6.050781 7.101562 9.117187-1.960937 5.0625 7.839844 9.289063-.75 4 8.433593 9.324219.46875 2.871093 8.878907 9.175781 1.671874 1.675782 9.175782 8.878906 2.875.464844 9.308594 8.445312 4.011718-.761718 9.289063 7.839843 5.0625-1.949219 9.117187 7.101563 6.042969zm10.90625 22.910156c0-69.59375-56.417969-126-126-126s-126 56.40625-126 126 56.417969 126 126 126 126-56.417969 126-126" fill="#00518e"/></svg>