<?xml version="1.0" encoding="UTF-8" standalone="no"?>
<svg
   xmlns:dc="http://purl.org/dc/elements/1.1/"
   xmlns:cc="http://creativecommons.org/ns#"
   xmlns:rdf="http://www.w3.org/1999/02/22-rdf-syntax-ns#"
   xmlns:svg="http://www.w3.org/2000/svg"
   xmlns="http://www.w3.org/2000/svg"
   viewBox="0 0 266.66666 266.66666"
   height="266.66666"
   width="266.66666"
   xml:space="preserve"
   id="svg2"
   version="1.1"><metadata
     id="metadata8"><rdf:RDF><cc:Work
         rdf:about=""><dc:format>image/svg+xml</dc:format><dc:type
           rdf:resource="http://purl.org/dc/dcmitype/StillImage" /></cc:Work></rdf:RDF></metadata><defs
     id="defs6"><clipPath
       id="clipPath18"
       clipPathUnits="userSpaceOnUse"><path
         id="path16"
         d="M 0,200 H 200 V 0 H 0 Z" /></clipPath></defs><g
     transform="matrix(1.3333333,0,0,-1.3333333,0,266.66667)"
     id="g10"><g
       id="g12"><g
         clip-path="url(#clipPath18)"
         id="g14"><g
           transform="translate(100.0009)"
           id="g20"><path
             id="path22"
             style="fill:#063191;fill-opacity:1;fill-rule:evenodd;stroke:none"
             d="M 0,0 C -55.141,0 -100.001,44.86 -100.001,99.999 -100.001,155.142 -55.141,200 0,200 55.139,200.002 99.999,155.142 99.999,99.999 99.999,44.86 55.139,0 0,0 m 0,195.523 c -52.672,0 -95.522,-42.852 -95.522,-95.524 0,-52.668 42.85,-95.52 95.522,-95.52 52.67,0 95.52,42.852 95.52,95.52 0,52.672 -42.85,95.524 -95.52,95.524" /></g><g
           transform="translate(17.2476,121.6199)"
           id="g24"><path
             id="path26"
             style="fill:#063191;fill-opacity:1;fill-rule:evenodd;stroke:none"
             d="m 0,0 0.407,1.475 10.485,-2.891 0.776,2.809 1.349,-0.373 -1.957,-7.093 -1.35,0.372 0.776,2.809 z" /></g><g
           transform="translate(18.9674,115.5904)"
           id="g28"><path
             id="path30"
             style="fill:#063191;fill-opacity:1;fill-rule:evenodd;stroke:none"
             d="m 0,0 -2.818,1.868 0.262,1.627 11.708,-7.816 -13.564,-3.761 0.26,1.625 3.261,0.895 z m 5.841,-3.789 -4.56,2.94 -0.69,-4.308 z" /></g><g
           transform="translate(14.5032,103.8561)"
           id="g32"><path
             id="path34"
             style="fill:#063191;fill-opacity:1;fill-rule:evenodd;stroke:none"
             d="M 0,0 0.086,1.528 12.344,0.842 12.259,-0.688 Z" /></g><g
           transform="translate(26.5699,102.0493)"
           id="g36"><path
             id="path38"
             style="fill:#063191;fill-opacity:1;fill-rule:evenodd;stroke:none"
             d="m 0,0 0.061,-1.76 -5.137,-3.187 5.344,-2.831 0.059,-1.756 -7.069,3.763 -5.336,-0.183 -0.053,1.53 5.337,0.182 z" /></g><g
           transform="translate(27.1915,90.7093)"
           id="g40"><path
             id="path42"
             style="fill:#063191;fill-opacity:1;fill-rule:evenodd;stroke:none"
             d="m 0,0 -7.149,-1.178 c -0.494,-0.08 -0.963,-0.202 -1.408,-0.363 -0.447,-0.164 -0.83,-0.382 -1.146,-0.66 -0.317,-0.277 -0.549,-0.625 -0.695,-1.039 -0.147,-0.414 -0.171,-0.912 -0.078,-1.488 0.097,-0.578 0.281,-1.041 0.553,-1.387 0.27,-0.346 0.6,-0.601 0.99,-0.76 0.391,-0.162 0.821,-0.247 1.296,-0.259 0.475,-0.007 0.959,0.029 1.45,0.11 l 7.15,1.177 0.249,-1.511 -7.663,-1.262 c -0.664,-0.11 -1.298,-0.11 -1.905,-0.002 -0.608,0.111 -1.153,0.321 -1.64,0.631 -0.484,0.31 -0.893,0.719 -1.223,1.226 -0.331,0.507 -0.555,1.106 -0.669,1.803 -0.114,0.696 -0.095,1.338 0.055,1.923 0.15,0.588 0.407,1.104 0.766,1.555 0.361,0.45 0.811,0.823 1.349,1.121 0.542,0.298 1.142,0.5 1.805,0.614 l 7.664,1.262 z" /></g><g
           transform="translate(20.4663,77.6152)"
           id="g44"><path
             id="path46"
             style="fill:#063191;fill-opacity:1;fill-rule:evenodd;stroke:none"
             d="m 0,0 -3.356,0.405 -0.496,1.569 13.969,-1.729 -10.434,-9.448 -0.494,1.568 2.51,2.263 z m 6.919,-0.768 -5.391,0.584 1.315,-4.16 z" /></g><g
           transform="translate(32.3886,72.4589)"
           id="g48"><path
             id="path50"
             style="fill:#063191;fill-opacity:1;fill-rule:evenodd;stroke:none"
             d="m 0,0 -4.549,-12.548 8.122,4.033 0.682,-1.372 -11.45,-5.684 4.55,12.548 -8.196,-4.067 -0.68,1.368 z" /></g><g
           transform="translate(41.0573,56.2033)"
           id="g52"><path
             id="path54"
             style="fill:#063191;fill-opacity:1;fill-rule:evenodd;stroke:none"
             d="M 0,0 -5.627,-4.565 C -6.014,-4.88 -6.364,-5.218 -6.67,-5.577 -6.978,-5.94 -7.2,-6.322 -7.339,-6.719 c -0.139,-0.4 -0.167,-0.816 -0.087,-1.247 0.076,-0.433 0.3,-0.874 0.67,-1.332 0.369,-0.454 0.759,-0.764 1.165,-0.931 0.407,-0.164 0.819,-0.223 1.237,-0.168 0.42,0.052 0.837,0.192 1.253,0.418 0.418,0.227 0.821,0.495 1.208,0.81 l 5.625,4.566 0.965,-1.187 -6.031,-4.895 c -0.523,-0.422 -1.074,-0.736 -1.653,-0.945 -0.584,-0.205 -1.161,-0.293 -1.735,-0.264 -0.576,0.03 -1.133,0.181 -1.672,0.458 -0.538,0.274 -1.03,0.688 -1.475,1.237 -0.445,0.545 -0.745,1.114 -0.905,1.697 -0.159,0.583 -0.195,1.159 -0.104,1.729 0.091,0.57 0.296,1.116 0.617,1.642 0.322,0.527 0.743,1.002 1.266,1.425 l 6.032,4.894 z" /></g><g
           transform="translate(46.8629,49.9982)"
           id="g56"><path
             id="path58"
             style="fill:#063191;fill-opacity:1;fill-rule:evenodd;stroke:none"
             d="m 0,0 0.298,-13.344 6.114,6.699 1.128,-1.034 -8.616,-9.441 -0.296,13.346 -6.168,-6.758 -1.131,1.031 z" /></g><g
           transform="translate(50.0434,30.4862)"
           id="g60"><path
             id="path62"
             style="fill:#063191;fill-opacity:1;fill-rule:evenodd;stroke:none"
             d="M 0,0 -1.237,0.901 5.999,10.822 7.236,9.918 Z" /></g><g
           transform="translate(57.9861,29.125)"
           id="g64"><path
             id="path66"
             style="fill:#063191;fill-opacity:1;fill-rule:evenodd;stroke:none"
             d="M 0,0 7.759,5.971 9.205,5.117 -1.954,-3.307 0.019,10.541 1.463,9.688 Z" /></g><g
           transform="translate(67.7794,34.0967)"
           id="g68"><path
             id="path70"
             style="fill:#063191;fill-opacity:1;fill-rule:evenodd;stroke:none"
             d="M 0,0 6.049,-2.626 5.49,-3.911 0.846,-1.895 -0.523,-5.045 3.989,-7.006 3.43,-8.289 l -4.509,1.957 -1.849,-4.255 4.644,-2.016 -0.559,-1.284 -6.048,2.626 z" /></g><g
           transform="translate(79.0442,16.9824)"
           id="g72"><path
             id="path74"
             style="fill:#063191;fill-opacity:1;fill-rule:evenodd;stroke:none"
             d="m 0,0 -1.777,0.54 -1.951,6.016 -0.607,0.184 -1.508,-4.969 -1.464,0.445 3.563,11.747 1.775,-0.539 c 0.521,-0.158 1.042,-0.342 1.568,-0.559 C 0.123,12.646 0.578,12.34 0.967,11.938 1.378,11.497 1.638,10.982 1.75,10.391 1.86,9.804 1.83,9.226 1.659,8.665 1.53,8.242 1.34,7.86 1.093,7.529 0.844,7.194 0.553,6.921 0.22,6.704 -0.11,6.486 -0.479,6.334 -0.886,6.25 -1.292,6.161 -1.716,6.157 -2.159,6.235 Z m -3.966,7.956 0.468,-0.14 c 0.372,-0.116 0.75,-0.205 1.134,-0.27 0.382,-0.065 0.745,-0.065 1.089,0 0.344,0.067 0.652,0.211 0.923,0.439 0.272,0.222 0.479,0.568 0.62,1.034 0.141,0.458 0.152,0.853 0.038,1.189 -0.112,0.335 -0.3,0.626 -0.561,0.869 -0.26,0.243 -0.574,0.444 -0.938,0.608 -0.365,0.161 -0.73,0.296 -1.093,0.408 l -0.39,0.116 z" /></g><g
           transform="translate(88.4291,25.3396)"
           id="g76"><path
             id="path78"
             style="fill:#063191;fill-opacity:1;fill-rule:evenodd;stroke:none"
             d="M 0,0 C -0.158,0.416 -0.371,0.747 -0.642,0.992 -0.912,1.239 -1.277,1.406 -1.735,1.486 -1.982,1.53 -2.231,1.532 -2.486,1.496 -2.74,1.459 -2.978,1.382 -3.198,1.269 -3.415,1.153 -3.603,1.003 -3.759,0.813 -3.913,0.629 -4.013,0.401 -4.063,0.133 c -0.04,-0.236 -0.025,-0.452 0.05,-0.656 0.074,-0.199 0.178,-0.384 0.313,-0.551 0.135,-0.167 0.293,-0.319 0.473,-0.458 0.179,-0.137 0.358,-0.254 0.536,-0.366 l 0.806,-0.493 c 0.397,-0.249 0.762,-0.507 1.093,-0.781 0.332,-0.275 0.604,-0.583 0.819,-0.916 0.216,-0.338 0.364,-0.71 0.446,-1.115 C 0.555,-5.61 0.549,-6.064 0.46,-6.568 0.363,-7.111 0.173,-7.597 -0.106,-8.029 -0.39,-8.456 -0.734,-8.808 -1.138,-9.072 -1.545,-9.344 -2.003,-9.53 -2.505,-9.633 c -0.503,-0.102 -1.028,-0.104 -1.571,-0.005 -0.494,0.085 -0.937,0.254 -1.334,0.501 -0.395,0.247 -0.732,0.551 -1.003,0.909 -0.272,0.357 -0.477,0.766 -0.616,1.218 -0.141,0.454 -0.198,0.927 -0.177,1.423 l 1.581,0.046 c -0.061,-0.331 -0.055,-0.65 0.012,-0.954 0.066,-0.302 0.188,-0.576 0.364,-0.817 0.179,-0.244 0.401,-0.445 0.669,-0.607 0.268,-0.165 0.563,-0.275 0.884,-0.334 0.321,-0.057 0.629,-0.046 0.923,0.032 0.297,0.082 0.561,0.209 0.799,0.388 0.235,0.179 0.435,0.399 0.598,0.661 0.162,0.264 0.272,0.555 0.329,0.874 0.059,0.323 0.049,0.614 -0.025,0.876 -0.074,0.261 -0.194,0.498 -0.361,0.707 -0.165,0.213 -0.363,0.411 -0.589,0.587 -0.228,0.177 -0.46,0.344 -0.697,0.497 l -0.77,0.505 c -0.315,0.209 -0.616,0.431 -0.904,0.663 -0.291,0.236 -0.534,0.494 -0.73,0.777 -0.2,0.284 -0.34,0.597 -0.428,0.947 -0.087,0.344 -0.093,0.726 -0.017,1.142 0.088,0.492 0.264,0.914 0.53,1.262 0.268,0.347 0.589,0.627 0.971,0.834 0.379,0.211 0.793,0.346 1.247,0.416 0.454,0.067 0.91,0.059 1.368,-0.025 0.675,-0.119 1.249,-0.387 1.728,-0.796 0.478,-0.41 0.83,-0.942 1.056,-1.587 z" /></g><g
           transform="translate(92.6561,14.8819)"
           id="g80"><path
             id="path82"
             style="fill:#063191;fill-opacity:1;fill-rule:evenodd;stroke:none"
             d="m 0,0 -1.526,0.137 1.089,12.226 1.524,-0.135 z" /></g><g
           transform="translate(99.4987,14.6117)"
           id="g84"><path
             id="path86"
             style="fill:#063191;fill-opacity:1;fill-rule:evenodd;stroke:none"
             d="m 0,0 -1.532,0.011 0.095,10.874 -2.915,0.026 0.014,1.401 7.358,-0.059 -0.012,-1.404 -2.915,0.026 z" /></g><g
           transform="translate(102.246,26.7919)"
           id="g88"><path
             id="path90"
             style="fill:#063191;fill-opacity:1;fill-rule:evenodd;stroke:none"
             d="M 0,0 1.748,0.177 5.273,-4.734 7.744,0.785 9.492,0.962 6.206,-6.341 6.744,-11.656 5.222,-11.812 4.684,-6.497 Z" /></g><g
           transform="translate(122.2538,30.7642)"
           id="g92"><path
             id="path94"
             style="fill:#063191;fill-opacity:1;fill-rule:evenodd;stroke:none"
             d="M 0,0 C 0.836,0.277 1.676,0.372 2.524,0.298 3.371,0.22 4.162,-0.004 4.895,-0.371 5.627,-0.743 6.277,-1.247 6.843,-1.878 7.409,-2.507 7.831,-3.24 8.105,-4.074 8.388,-4.939 8.492,-5.798 8.416,-6.645 8.34,-7.493 8.114,-8.28 7.74,-9 7.366,-9.724 6.858,-10.36 6.22,-10.915 5.577,-11.466 4.832,-11.883 3.987,-12.16 c -0.846,-0.276 -1.69,-0.384 -2.533,-0.315 -0.844,0.064 -1.633,0.277 -2.362,0.636 -0.73,0.363 -1.376,0.861 -1.939,1.499 -0.562,0.639 -0.986,1.388 -1.271,2.256 -0.274,0.834 -0.369,1.676 -0.285,2.52 0.084,0.844 0.308,1.63 0.68,2.368 0.371,0.729 0.874,1.379 1.511,1.94 C -1.572,-0.692 -0.836,-0.274 0,0 m 3.54,-10.799 c 0.631,0.205 1.186,0.526 1.669,0.954 0.482,0.423 0.868,0.917 1.157,1.48 0.291,0.564 0.466,1.17 0.524,1.828 0.061,0.652 -0.02,1.315 -0.241,1.984 -0.209,0.64 -0.521,1.208 -0.937,1.708 -0.414,0.496 -0.899,0.891 -1.45,1.186 C 3.709,-1.366 3.105,-1.19 2.449,-1.123 1.794,-1.06 1.127,-1.138 0.445,-1.363 -0.234,-1.585 -0.821,-1.916 -1.309,-2.356 -1.8,-2.797 -2.18,-3.299 -2.451,-3.861 c -0.274,-0.565 -0.43,-1.171 -0.468,-1.817 -0.04,-0.646 0.046,-1.29 0.257,-1.931 0.218,-0.669 0.547,-1.25 0.98,-1.739 0.435,-0.492 0.937,-0.878 1.503,-1.161 0.567,-0.285 1.173,-0.454 1.813,-0.511 0.643,-0.061 1.277,0.015 1.906,0.221" /></g><g
           transform="translate(131.0715,32.469)"
           id="g96"><path
             id="path98"
             style="fill:#063191;fill-opacity:1;fill-rule:evenodd;stroke:none"
             d="M 0,0 1.515,-3.099 5.347,-1.23 5.963,-2.488 2.128,-4.359 4.772,-9.773 3.398,-10.442 -1.99,0.589 3.35,3.196 3.964,1.938 Z" /></g><g
           transform="translate(150.1371,31.2456)"
           id="g100"><path
             id="path102"
             style="fill:#063191;fill-opacity:1;fill-rule:evenodd;stroke:none"
             d="m 0,0 -1.237,-0.901 -6.393,8.802 -2.354,-1.712 -0.825,1.133 5.956,4.325 0.822,-1.133 -2.358,-1.712 z" /></g><g
           transform="translate(146.0728,43.5761)"
           id="g104"><path
             id="path106"
             style="fill:#063191;fill-opacity:1;fill-rule:evenodd;stroke:none"
             d="M 0,0 4.893,4.418 5.832,3.379 2.075,-0.015 4.376,-2.564 8.025,0.732 8.964,-0.31 5.313,-3.603 8.422,-7.048 12.183,-3.654 13.12,-4.696 8.226,-9.114 Z" /></g><g
           transform="translate(159.6047,54.2174)"
           id="g108"><path
             id="path110"
             style="fill:#063191;fill-opacity:1;fill-rule:evenodd;stroke:none"
             d="m 0,0 c -0.587,-0.082 -1.142,-0.268 -1.668,-0.561 -0.525,-0.292 -0.977,-0.665 -1.361,-1.106 -0.447,-0.517 -0.762,-1.088 -0.948,-1.71 -0.185,-0.621 -0.245,-1.245 -0.185,-1.872 0.061,-0.625 0.24,-1.233 0.538,-1.816 0.297,-0.588 0.705,-1.104 1.222,-1.551 0.509,-0.439 1.072,-0.764 1.687,-0.973 0.616,-0.207 1.238,-0.298 1.867,-0.268 0.629,0.034 1.237,0.183 1.82,0.452 0.583,0.272 1.1,0.667 1.545,1.184 0.397,0.458 0.697,0.975 0.899,1.536 0.199,0.566 0.292,1.155 0.279,1.771 l 1.368,-1.18 C 6.966,-6.642 6.788,-7.174 6.529,-7.698 6.271,-8.223 5.965,-8.686 5.612,-9.099 5.036,-9.762 4.373,-10.284 3.618,-10.661 c -0.752,-0.372 -1.535,-0.594 -2.345,-0.663 -0.811,-0.068 -1.619,0.025 -2.423,0.272 -0.802,0.249 -1.539,0.663 -2.215,1.246 -0.69,0.595 -1.22,1.279 -1.595,2.053 -0.37,0.771 -0.585,1.573 -0.636,2.4 -0.054,0.828 0.053,1.649 0.319,2.463 0.268,0.819 0.695,1.567 1.284,2.248 0.354,0.412 0.755,0.773 1.201,1.085 0.447,0.308 0.93,0.547 1.447,0.716 z" /></g><g
           transform="translate(166.5685,60.0653)"
           id="g112"><path
             id="path114"
             style="fill:#063191;fill-opacity:1;fill-rule:evenodd;stroke:none"
             d="m 0,0 -4.158,2.683 0.831,1.285 10.312,-6.657 -0.83,-1.286 -4.95,3.196 -3.172,-4.911 4.95,-3.196 -0.83,-1.286 -10.313,6.66 0.831,1.285 4.159,-2.683 z" /></g><g
           transform="translate(163.3219,65.2596)"
           id="g116"><path
             id="path118"
             style="fill:#063191;fill-opacity:1;fill-rule:evenodd;stroke:none"
             d="M 0,0 12.588,4.441 4.316,8.166 4.945,9.557 16.599,4.312 4.013,-0.125 12.356,-3.882 11.729,-5.279 Z" /></g><g
           transform="translate(169.7973,81.2471)"
           id="g120"><path
             id="path122"
             style="fill:#063191;fill-opacity:1;fill-rule:evenodd;stroke:none"
             d="M 0,0 C 0.222,0.853 0.597,1.61 1.121,2.28 1.648,2.953 2.263,3.493 2.972,3.907 3.681,4.321 4.456,4.595 5.292,4.728 6.13,4.861 6.974,4.815 7.823,4.591 8.705,4.359 9.482,3.981 10.153,3.457 10.822,2.932 11.358,2.316 11.763,1.61 12.164,0.904 12.426,0.131 12.542,-0.709 12.658,-1.547 12.601,-2.396 12.375,-3.257 12.149,-4.12 11.778,-4.884 11.265,-5.556 10.75,-6.229 10.146,-6.777 9.446,-7.191 8.747,-7.609 7.976,-7.881 7.134,-8.006 6.292,-8.133 5.433,-8.08 4.549,-7.846 3.7,-7.622 2.942,-7.25 2.278,-6.721 1.617,-6.191 1.077,-5.574 0.665,-4.863 0.251,-4.152 -0.021,-3.379 -0.146,-2.537 -0.274,-1.693 -0.226,-0.849 0,0 m 10.989,-2.892 c 0.168,0.64 0.206,1.277 0.109,1.915 C 11.003,-0.34 10.796,0.253 10.48,0.804 10.165,1.351 9.748,1.83 9.234,2.233 8.717,2.637 8.118,2.932 7.434,3.109 6.784,3.284 6.136,3.329 5.494,3.251 4.85,3.175 4.255,2.981 3.709,2.678 3.162,2.372 2.685,1.963 2.275,1.448 1.864,0.933 1.568,0.329 1.387,-0.363 1.203,-1.057 1.163,-1.727 1.267,-2.379 1.37,-3.029 1.585,-3.624 1.91,-4.154 2.237,-4.692 2.658,-5.15 3.181,-5.534 3.702,-5.92 4.287,-6.195 4.939,-6.368 c 0.684,-0.18 1.347,-0.22 1.997,-0.122 0.65,0.099 1.247,0.31 1.79,0.633 0.547,0.321 1.017,0.736 1.414,1.243 0.397,0.505 0.68,1.081 0.849,1.722" /></g><g
           transform="translate(182.5684,88.5289)"
           id="g124"><path
             id="path126"
             style="fill:#063191;fill-opacity:1;fill-rule:evenodd;stroke:none"
             d="m 0,0 0.475,3.698 1.389,-0.179 -0.673,-5.216 -12.173,1.566 0.194,1.518 z" /></g><g
           transform="translate(172.1712,99.655)"
           id="g128"><path
             id="path130"
             style="fill:#063191;fill-opacity:1;fill-rule:evenodd;stroke:none"
             d="m 0,0 c 0,0.88 0.171,1.708 0.505,2.491 0.339,0.779 0.797,1.462 1.378,2.041 0.582,0.582 1.262,1.042 2.035,1.382 0.776,0.342 1.604,0.515 2.484,0.513 0.912,0 1.758,-0.168 2.541,-0.506 0.781,-0.336 1.455,-0.796 2.025,-1.374 0.569,-0.583 1.017,-1.265 1.342,-2.046 0.327,-0.781 0.488,-1.616 0.488,-2.507 0,-0.891 -0.165,-1.725 -0.49,-2.504 -0.325,-0.783 -0.773,-1.465 -1.343,-2.047 -0.57,-0.58 -1.247,-1.036 -2.028,-1.374 -0.781,-0.336 -1.628,-0.503 -2.539,-0.503 -0.88,0 -1.708,0.171 -2.483,0.513 C 3.139,-5.577 2.461,-5.118 1.879,-4.534 1.298,-3.955 0.84,-3.272 0.505,-2.491 0.169,-1.712 0,-0.88 0,0 m 11.366,-0.006 c 0,0.663 -0.128,1.289 -0.382,1.883 C 10.729,2.467 10.379,2.987 9.933,3.44 9.488,3.89 8.966,4.247 8.361,4.507 7.761,4.766 7.107,4.897 6.402,4.899 5.727,4.897 5.091,4.777 4.487,4.54 3.884,4.302 3.358,3.964 2.907,3.531 2.459,3.097 2.1,2.579 1.832,1.976 1.568,1.374 1.433,0.714 1.433,-0.002 c 0,-0.716 0.133,-1.376 0.399,-1.978 0.266,-0.603 0.623,-1.121 1.074,-1.555 0.45,-0.437 0.974,-0.771 1.579,-1.011 0.602,-0.237 1.239,-0.359 1.913,-0.361 0.705,0.002 1.359,0.133 1.961,0.394 0.605,0.26 1.127,0.615 1.572,1.064 0.445,0.452 0.796,0.973 1.051,1.564 0.256,0.591 0.384,1.22 0.384,1.879" /></g><g
           transform="translate(176.5251,118.453)"
           id="g132"><path
             id="path134"
             style="fill:#063191;fill-opacity:1;fill-rule:evenodd;stroke:none"
             d="m 0,0 0.483,0.078 c 0.836,0.135 1.632,0.121 2.388,-0.04 0.76,-0.162 1.445,-0.454 2.058,-0.88 0.612,-0.424 1.127,-0.96 1.54,-1.613 C 6.883,-3.109 7.16,-3.858 7.295,-4.703 7.436,-5.551 7.394,-6.374 7.177,-7.174 6.961,-7.972 6.609,-8.696 6.121,-9.34 c -0.49,-0.646 -1.089,-1.192 -1.798,-1.636 -0.707,-0.447 -1.48,-0.737 -2.316,-0.874 -0.867,-0.139 -1.712,-0.109 -2.539,0.091 -0.823,0.203 -1.572,0.542 -2.242,1.013 -0.671,0.475 -1.234,1.068 -1.692,1.78 -0.456,0.713 -0.754,1.504 -0.897,2.37 -0.15,0.943 -0.095,1.883 0.17,2.822 0.266,0.942 0.725,1.771 1.377,2.493 l 1.184,-0.897 c -0.517,-0.534 -0.903,-1.172 -1.157,-1.91 -0.253,-0.741 -0.319,-1.48 -0.198,-2.219 0.109,-0.675 0.338,-1.285 0.69,-1.834 0.353,-0.545 0.789,-1.001 1.304,-1.364 0.513,-0.361 1.092,-0.62 1.733,-0.774 0.642,-0.156 1.299,-0.176 1.974,-0.068 0.633,0.104 1.226,0.329 1.779,0.671 0.555,0.342 1.028,0.764 1.423,1.261 0.39,0.498 0.678,1.057 0.865,1.675 0.184,0.619 0.224,1.252 0.117,1.907 -0.076,0.47 -0.247,0.924 -0.509,1.361 -0.262,0.435 -0.589,0.815 -0.977,1.137 -0.387,0.321 -0.819,0.564 -1.297,0.727 -0.477,0.166 -0.964,0.219 -1.462,0.162 l 0.51,-3.136 -1.38,-0.224 z" /></g><g
           transform="translate(170.5466,116.9632)"
           id="g136"><path
             id="path138"
             style="fill:#063191;fill-opacity:1;fill-rule:evenodd;stroke:none"
             d="M 0,0 -0.524,1.678 3.58,6.117 -2.32,7.428 -2.845,9.106 4.971,7.35 10.066,8.943 10.524,7.483 5.427,5.893 Z" /></g><g
           transform="translate(76.4267,123.4366)"
           id="g140"><path
             id="path142"
             style="fill:#063191;fill-opacity:1;fill-rule:evenodd;stroke:none"
             d="m 0,0 v -11.495 c 0,-0.684 -0.333,-1.024 -0.99,-1.024 l -1.764,0.002 v -0.926 H 6.28 v 0.926 H 4.405 c -0.732,-0.072 -1.061,0.304 -0.99,1.128 V 3.286 H 1.876 C 0.331,1.642 -1.539,0.34 -3.744,-0.614 l 0.441,-0.718 C -2.277,-1.125 -1.173,-0.682 0,0" /></g><g
           transform="translate(91.2805,116.2789)"
           id="g144"><path
             id="path146"
             style="fill:#063191;fill-opacity:1;fill-rule:evenodd;stroke:none"
             d="M 0,0 C 0.984,-0.067 1.971,0.236 2.959,0.922 2.048,-2.564 -0.076,-4.791 -3.419,-5.75 l 0.684,-0.717 c 6.226,1.232 9.53,4.551 9.907,9.958 C 6.944,7.869 4.859,10.193 0.906,10.467 -2.807,10.193 -4.787,8.346 -5.017,4.926 -4.859,1.779 -3.193,0.135 0,0 M -1.252,5.439 C -1.332,8.175 -0.608,9.541 0.906,9.541 2.501,9.477 3.339,7.899 3.417,4.823 3.417,4.004 3.339,3.078 3.189,2.048 2.275,1.437 1.478,1.161 0.796,1.231 -0.726,1.096 -1.402,2.497 -1.252,5.439" /></g><g
           transform="translate(107.0546,109.8118)"
           id="g148"><path
             id="path150"
             style="fill:#063191;fill-opacity:1;fill-rule:evenodd;stroke:none"
             d="M 0,0 C 3.897,0.275 5.921,3.076 6.071,8.416 5.841,13.68 3.818,16.525 0,16.933 -3.896,16.525 -5.918,13.68 -6.07,8.416 -5.918,3.014 -3.896,0.207 0,0 m -2.292,5.131 v 6.875 c -0.072,2.736 0.688,4.072 2.292,4.002 1.532,0 2.294,-1.535 2.294,-4.616 V 5.543 C 2.368,2.191 1.604,0.618 0,0.821 -1.68,0.684 -2.444,2.124 -2.292,5.131" /></g><g
           transform="translate(127.3171,114.7495)"
           id="g152"><path
             id="path154"
             style="fill:#063191;fill-opacity:1;fill-rule:evenodd;stroke:none"
             d="M 0,0 H -0.908 C -1.06,-1.444 -1.784,-2.1 -3.075,-1.961 h -5.467 c 0.834,0.895 2.085,2.033 3.757,3.409 2.736,2.277 4.103,4.27 4.103,5.995 -0.226,2.894 -1.94,4.445 -5.127,4.65 -3.271,-0.205 -5.203,-1.926 -5.809,-5.168 h 1.134 c 0.456,1.862 1.56,2.863 3.307,3 1.824,-0.137 2.812,-1.275 2.962,-3.413 0.534,-1.585 -1.632,-4.578 -6.497,-8.99 -0.376,-0.483 -0.794,-0.929 -1.245,-1.345 v -0.932 h 11.389 z" /></g><g
           transform="translate(100.0002,160.2742)"
           id="g156"><path
             id="path158"
             style="fill:#063191;fill-opacity:1;fill-rule:evenodd;stroke:none"
             d="m 0,0 c -33.236,0 -60.272,-27.039 -60.272,-60.275 0,-33.235 27.036,-60.272 60.272,-60.272 33.234,0 60.272,27.037 60.272,60.272 C 60.272,-27.039 33.234,0 0,0 m 3.196,-4.578 c 13.34,-0.756 25.438,-6.223 34.658,-14.758 -11.248,-0.024 -27.853,-0.077 -34.698,-0.098 -0.009,1.736 -0.013,2.816 -0.013,2.816 0,0 0.025,5.442 0.053,12.04 m -6.389,-14.856 c -6.865,0.022 -23.43,0.076 -34.661,0.098 9.232,8.546 21.346,14.013 34.703,14.762 -0.03,-6.59 -0.053,-12.029 -0.053,-12.033 0,-0.002 0.002,-1.087 0.011,-2.827 m 3.172,-6.361 c 0.036,0 26.393,0.09 40.465,0.12 -0.409,-9.518 -1.866,-21.146 -5.498,-33.168 h -69.892 c -3.632,12.02 -5.089,23.65 -5.498,33.168 14.07,-0.03 40.421,-0.12 40.423,-0.12 m -55.773,-34.48 c 0,11.32 3.397,21.855 9.212,30.659 2.174,-32.687 15.009,-65.748 44.76,-86.406 -29.922,0.967 -53.972,25.593 -53.972,55.747 M 1.82,-116.022 c 29.751,20.658 42.588,53.719 44.762,86.406 5.815,-8.804 9.211,-19.339 9.211,-30.659 10e-4,-30.154 -24.049,-54.782 -53.973,-55.747" /></g><g
           transform="translate(114.6746,174.5016)"
           id="g160"><path
             id="path162"
             style="fill:#063191;fill-opacity:1;fill-rule:evenodd;stroke:none"
             d="M 0,0 7.62,6.968 C 7.662,7.006 7.711,7.05 7.725,7.071 7.875,7.632 7.489,8.521 6.946,8.808 6.182,9.215 5.374,9.296 4.542,9.051 4.146,8.937 3.766,8.785 3.365,8.625 3.12,8.528 2.877,8.432 2.628,8.342 2.406,8.262 2.153,8.202 1.877,8.166 1.368,8.095 0.855,8.027 0.344,7.958 -0.523,7.846 -1.389,7.732 -2.252,7.605 -2.4,7.582 -2.573,7.495 -2.74,7.407 -2.678,7.343 -2.621,7.284 -2.562,7.223 -2.377,7.033 -2.201,6.852 -2.009,6.706 -1.313,6.187 -0.606,5.969 0.156,6.041 0.57,6.083 0.986,6.104 1.421,6.127 L 2.484,6.187 2.356,5.556 C 2.335,5.444 2.316,5.353 2.292,5.26 2.014,4.283 1.393,3.502 0.846,2.81 L 0.68,2.603 C 0.416,2.275 0.163,1.961 -0.019,1.623 c -0.407,-0.755 -0.925,-1.625 -1.68,-2.355 -1.17,-1.136 -2.482,-1.786 -4.009,-1.995 -0.989,-0.135 -2.057,-0.323 -3.36,-0.591 -0.39,-0.08 -0.777,-0.253 -1.118,-0.418 0.196,-0.264 0.989,-0.773 1.682,-1.07 3.06,-1.298 5.391,-0.361 7.647,0.546 0.511,0.203 1.011,0.404 1.511,0.575 1.636,0.584 4.158,1.279 6.322,1.471 0.074,0.027 0.08,0.059 0.074,0.164 -0.008,0.199 0.008,0.286 0.023,0.391 0.009,0.055 0.019,0.116 0.023,0.217 0.028,0.526 -0.145,0.95 -0.515,1.258 C 6.083,0.228 5.393,0.314 4.929,0.215 3.977,0.011 3.014,-0.232 2.081,-0.466 1.608,-0.587 1.136,-0.707 0.663,-0.821 0.538,-0.851 0.407,-0.868 0.277,-0.882 l -0.754,-0.104 0.196,0.568 C -0.211,-0.213 -0.103,-0.097 0,0" /></g><g
           transform="translate(55.9794,173.0376)"
           id="g164"><path
             id="path166"
             style="fill:#063191;fill-opacity:1;fill-rule:evenodd;stroke:none"
             d="M 0,0 C 1.182,0.418 2.176,1.146 3.052,2.024 4.614,3.59 5.319,5.545 5.541,7.702 5.555,7.82 5.482,7.947 5.433,8.128 4.517,7.232 3.628,6.429 2.934,5.439 2.843,5.309 2.797,5.148 2.727,5.007 2.662,4.88 2.617,4.734 2.522,4.637 1.72,3.814 0.897,3.01 0.108,2.176 -0.12,1.934 -0.241,1.596 -0.445,1.326 -0.513,1.231 -0.678,1.195 -0.808,1.157 -0.952,1.119 -1.112,1.132 -1.254,1.085 -1.699,0.935 -1.596,0.498 -1.743,0.167 -1.144,-0.126 -0.574,-0.203 0,0" /></g><g
           transform="translate(68.5357,174.9353)"
           id="g168"><path
             id="path170"
             style="fill:#063191;fill-opacity:1;fill-rule:evenodd;stroke:none"
             d="m 0,0 c -0.086,0.386 -0.429,0.454 -0.72,0.192 -0.192,-0.173 -0.392,-0.338 -0.582,-0.511 -1.856,-1.709 -3.496,-3.579 -4.5,-5.935 -0.057,-0.135 -0.199,-0.232 -0.302,-0.348 l -0.102,0.046 c -0.014,0.131 -0.052,0.262 -0.036,0.389 0.509,4.576 1.391,9.08 2.559,13.531 0.029,0.104 0.067,0.22 0.042,0.319 -0.158,0.629 -0.64,1.02 -1.323,1.083 -0.034,-0.099 -0.081,-0.2 -0.104,-0.302 -0.26,-1.156 -0.557,-2.303 -0.77,-3.466 -0.522,-2.866 -1.02,-5.737 -1.503,-8.609 -0.247,-1.47 -0.483,-2.945 -0.648,-4.424 -0.213,-1.917 -0.327,-3.842 -0.526,-5.759 -0.223,-2.157 -0.494,-4.312 -1.089,-6.402 -0.186,-0.652 -0.452,-1.3 -0.794,-1.884 -0.192,-0.323 -0.213,-0.505 0.062,-0.777 0.236,0.143 0.454,0.3 0.694,0.413 0.847,0.402 1.328,1.102 1.649,1.947 0.513,1.363 0.747,2.782 0.914,4.217 0.236,2.012 0.295,4.042 0.626,6.047 0.148,0.902 0.125,1.837 0.174,2.755 0.012,0.213 0.166,0.264 0.303,0.213 0.281,-0.104 0.461,0.044 0.632,0.209 0.221,0.213 0.453,0.426 0.626,0.675 0.963,1.383 1.906,2.782 2.865,4.167 0.137,0.196 0.342,0.344 0.561,0.559 0.026,-0.129 0.038,-0.16 0.036,-0.186 -0.114,-1.496 -0.228,-2.993 -0.352,-4.487 -0.007,-0.08 -0.1,-0.186 -0.18,-0.219 -0.359,-0.146 -0.728,-0.266 -1.089,-0.404 -0.344,-0.133 -0.627,-0.31 -0.673,-0.74 -0.032,-0.294 -0.123,-0.583 -0.211,-0.868 -0.116,-0.376 0.135,-0.6 0.34,-0.828 0.181,-0.196 0.426,-0.12 0.643,-0.042 0.167,0.062 0.325,0.142 0.566,0.252 0.245,-0.583 0.475,-1.147 0.726,-1.702 0.085,-0.187 0.226,-0.346 0.338,-0.511 0.014,-0.09 0.006,-0.209 0.048,-0.305 0.258,-0.566 0.541,-1.123 0.785,-1.695 0.087,-0.201 0.089,-0.433 -0.154,-0.575 -0.335,-0.198 -0.665,-0.403 -0.998,-0.601 -0.042,-0.026 -0.091,-0.055 -0.135,-0.053 -0.158,0.008 -0.671,0.576 -0.684,0.751 -0.07,0.891 -0.137,1.78 -0.215,2.67 -0.011,0.142 -0.076,0.279 -0.118,0.435 -0.062,-0.038 -0.076,-0.042 -0.079,-0.05 -0.859,-1.877 -1.72,-3.757 -2.573,-5.64 -0.031,-0.068 -0.004,-0.192 0.039,-0.26 0.244,-0.352 0.593,-0.563 1.006,-0.635 0.515,-0.089 1.049,-0.216 1.531,0.097 0.646,0.418 1.004,1.007 0.913,1.822 0.131,-0.005 0.237,-0.009 0.345,-0.017 0.764,-0.057 1.534,-0.117 2.281,0.093 1.026,0.289 1.161,0.686 0.954,1.54 -0.251,1.033 -0.781,1.921 -1.443,2.742 -0.551,0.688 -1.054,1.381 -1.254,2.292 -0.144,0.648 -0.148,1.191 0.12,1.812 0.714,1.658 1.17,3.387 1.068,5.213 C 0.255,-1.165 0.131,-0.578 0,0" /></g><g
           transform="translate(74.8344,168.0164)"
           id="g172"><path
             id="path174"
             style="fill:#063191;fill-opacity:1;fill-rule:evenodd;stroke:none"
             d="m 0,0 c -0.314,0.388 -0.722,0.638 -1.172,0.821 -0.816,0.33 -1.675,0.437 -2.545,0.475 -0.211,0.011 -0.424,0.015 -0.705,0.023 0.253,-0.251 0.437,-0.447 0.635,-0.629 0.243,-0.224 0.442,-0.458 0.188,-0.893 0.855,-0.367 1.644,-0.747 2.465,-1.04 0.579,-0.207 0.781,-0.068 1.043,0.485 0.047,0.1 0.081,0.209 0.144,0.298 C 0.171,-0.285 0.12,-0.148 0,0" /></g><g
           transform="translate(64.7205,165.1543)"
           id="g176"><path
             id="path178"
             style="fill:#063191;fill-opacity:1;fill-rule:evenodd;stroke:none"
             d="M 0,0 C -0.454,0.625 -0.929,1.235 -1.401,1.857 -1.935,1.625 -1.935,1.625 -1.845,1.138 -1.743,0.585 -1.642,0.03 -1.537,-0.521 -1.391,-1.311 -0.954,-1.505 -0.274,-1.087 0.011,-0.912 0.192,-0.266 0,0" /></g><g
           transform="translate(152.0391,148.33)"
           id="g180"><path
             id="path182"
             style="fill:#063191;fill-opacity:1;fill-rule:evenodd;stroke:none"
             d="M 0,0 C -0.677,0.872 -0.279,1.184 0.162,2.185 0.726,2.772 1.769,4.103 2.609,3.21 2.36,2.639 2.155,2.476 2.565,2.081 3.715,2.151 5.45,2.658 6.421,1.94 5.488,1.159 4.141,1.594 3.333,0.751 3.111,0.602 2.839,0.549 2.622,0.604 1.629,0.671 1.144,0.386 0.384,-0.234 0.211,-0.201 0.211,-0.201 0,0 m 0.475,-9.754 c 0.26,-0.204 0.519,-0.403 0.779,-0.614 0.812,0.513 1.42,1.085 2.104,1.767 1.058,1.557 1.058,1.557 1.457,1.971 0.367,0.123 0.738,0.237 1.104,0.349 1.566,-0.596 1.566,-0.596 2.155,-0.929 0.648,0.012 1.245,-1.062 1.885,-1.358 1.445,1.334 0.28,2.248 -1.001,3.323 0.595,0.69 0.819,1.777 1.467,2.301 1.779,-0.446 3.557,-0.891 5.338,-1.347 1.896,0.253 2.081,1.577 1.408,3.044 -0.475,0.388 -0.475,0.388 -0.524,0.531 0.096,0.1 0.096,0.1 4.549,1.252 L 21.73,1.093 C 21.969,2.145 21.048,3.443 19.993,2.558 20.4,1.735 18.687,1.68 18.239,1.562 l -0.143,0.135 c 0.236,0.545 0.474,1.022 0.553,1.609 -0.401,0.445 -0.997,0.565 -1.254,1.051 0.033,0.095 0.071,0.183 0.103,0.268 0.538,0.15 0.538,0.148 4.12,0.527 0.927,0.969 0.912,1.725 1.037,3.099 -0.11,0.125 -0.216,0.247 -0.327,0.363 C 21.361,7.759 21.747,6.202 20.453,5.866 19.759,5.866 18.465,5.632 17.184,5.543 16.793,5.919 16.736,6.282 16.289,6.691 16.13,6.564 15.976,6.432 15.816,6.296 15.966,5.961 15.966,5.961 16.008,5.583 15.949,5.543 15.896,5.497 15.837,5.446 15.769,5.486 15.7,5.513 15.63,5.541 15.457,5.401 15.282,5.258 15.107,5.108 15.335,4.581 15.48,4.561 15.997,4.477 16.417,3.89 16.417,3.89 16.867,3.457 16.375,2.763 14.537,2.985 13.806,2.947 13.348,3.367 12.971,3.804 12.426,3.259 12.793,2.657 11.966,2.295 11.533,1.976 11.987,1.636 12.549,1.83 12.956,1.44 12.715,1.178 12.715,1.178 12.508,1.146 11.286,1.568 10.119,1.858 8.869,2.193 8.139,2.835 7.903,3.004 7.314,2.288 7.554,1.606 7.66,0.942 8.188,0.437 c 2.459,-0.559 4.797,-1.406 7.183,-2.233 0.071,-0.057 0.141,-0.114 0.211,-0.171 -0.355,-0.22 -0.634,-0.26 -1.05,-0.332 -1.83,0.233 -3.622,0.412 -5.458,0.488 -1.1,0.239 -3.844,1.589 -4.318,-0.171 0.561,-1.534 0.717,-1.384 2.359,-1.881 0.017,-0.044 0.032,-0.086 0.047,-0.141 -0.289,-0.12 -0.576,-0.247 -0.863,-0.376 -2.4,1.436 -4.861,2.274 -7.367,3.418 -0.101,-0.066 -0.203,-0.131 -0.304,-0.197 0.561,-1.29 0.895,-1.988 1.971,-2.925 C 1.032,-4.276 1.697,-4.435 2.457,-4.73 2.974,-5.034 3.487,-5.342 4.006,-5.657 3.584,-6.929 2.636,-7.765 1.438,-8.27 1.051,-7.66 0.705,-6.816 0.369,-6.311 -0.355,-7.348 0,-8.682 0.475,-9.754 m 14.169,10.22 -0.006,0.247 c 0.156,0.051 0.317,0.098 0.479,0.146 C 15.172,0.827 15.225,0.792 15.28,0.76 14.877,0.511 14.877,0.511 14.644,0.466 m -0.303,1.292 c -0.017,0.045 -0.038,0.083 -0.057,0.121 0.257,0.12 0.515,0.238 0.77,0.352 0.424,-0.169 0.66,0.061 1.047,0.216 0.086,-0.06 0.169,-0.123 0.251,-0.189 -0.625,-0.531 -1.363,-0.97 -2.24,-0.81 0.076,0.11 0.152,0.211 0.229,0.31 m -3.796,2.219 c -0.422,0.895 1.17,1.64 1.482,2.518 -0.125,0.16 -0.259,0.314 -0.39,0.47 C 10.921,5.927 10.022,5.23 9.095,4.384 9.089,4.198 9.083,4.002 9.076,3.804 9.756,3.318 9.996,3.375 10.545,3.977 m 0.769,-0.874 c 1.042,0.492 1.646,1.946 2.227,2.881 -0.07,0.087 -0.14,0.175 -0.212,0.251 C 12.842,6.011 12.521,5.857 12.15,5.471 12.367,4.772 11.197,4.053 10.896,3.398 11.035,3.303 11.174,3.208 11.314,3.103 m 3.183,2.784 c 1.211,0.359 1.885,2.296 2.184,3.396 -0.348,0.353 -0.348,0.353 -0.506,0.42 C 15.326,8.677 15.276,7.259 14.286,6.301 14.275,6.225 14.265,6.147 14.252,6.062 14.332,6.007 14.412,5.95 14.497,5.887" /></g><g
           transform="translate(143.7981,167.8663)"
           id="g184"><path
             id="path186"
             style="fill:#063191;fill-opacity:1;fill-rule:evenodd;stroke:none"
             d="m 0,0 c -0.882,0.006 -1.76,0.03 -2.641,0.034 -0.19,0.002 -0.398,-0.032 -0.572,-0.11 -2.798,-1.193 -5.646,-2.242 -8.565,-3.117 -2.191,-0.653 -4.321,-0.591 -6.476,0.075 -0.268,0.083 -0.297,0.254 -0.28,0.44 0.014,0.179 0.154,0.263 0.36,0.27 1.989,0.065 3.971,0.221 5.932,0.589 1.815,0.339 3.59,0.81 5.217,1.711 0.553,0.307 1.064,0.686 1.579,1.056 0.176,0.129 0.224,0.209 0.203,0.319 -1.161,0.071 -2.324,0.109 -3.483,0.229 -1.942,0.199 -2.349,0.659 -2.531,2.907 C -9.23,3.776 -7.253,3.242 -5.342,2.546 -4.348,2.183 -3.65,2.191 -2.906,3.033 -1.361,4.775 0.27,6.444 1.978,8.261 2.267,7.825 2.605,7.297 2.955,6.778 3.633,5.769 3.476,5.015 2.415,4.319 1.157,3.495 -0.006,2.523 -1.21,1.617 -1.18,1.465 -1.153,1.311 -1.125,1.157 1.33,0.695 3.785,0.232 6.239,-0.228 6.21,-0.403 6.18,-0.578 6.149,-0.753 5.292,-0.669 4.392,-0.73 3.586,-0.481 Z m -3.181,-1.978 c -0.184,-0.05 -0.371,-0.101 -0.555,-0.15 -0.435,-2.397 -0.956,-4.78 -1.256,-7.191 -0.084,-0.675 0.313,-1.902 0.777,-2.068 1.872,-0.665 3.854,-1.014 5.796,-1.482 0.131,0.129 0.266,0.259 0.399,0.388 -4.477,2.136 -5.724,5.872 -5.161,10.503" /></g><g
           transform="translate(39.3514,153.4094)"
           id="g188"><path
             id="path190"
             style="fill:#063191;fill-opacity:1;fill-rule:evenodd;stroke:none"
             d="M 0,0 C 0.758,1.828 1.809,4.458 2.562,6.396 2.837,7.101 3.021,7.858 3.187,8.614 3.236,8.842 3.137,9.222 2.985,9.359 2.482,9.809 1.674,9.486 1.397,8.779 0.688,6.97 -0.276,4.422 -0.95,2.691 -0.994,2.579 -1.047,2.472 -1.102,2.347 -1.442,2.875 -2.778,5.921 -3.823,7.601 -3.888,7.706 -4.061,7.799 -4.175,7.785 -4.832,7.708 -5.482,7.595 -6.132,7.495 -6.632,7.419 -7.075,6.906 -7.138,6.336 c -0.049,-0.43 0.103,-0.612 0.445,-0.774 0.53,-0.249 1.07,-0.509 1.541,-0.87 1.199,-0.918 2.138,-3.14 2.672,-4.582 0.044,-0.112 0.046,-0.27 0.013,-0.388 -0.342,-1.178 -0.765,-2.118 -1.187,-3.23 -0.768,-2.028 -1.245,-3.421 -2.035,-5.351 -0.116,-0.285 -0.071,-0.454 0.174,-0.521 0.458,-0.127 0.892,-0.179 1.226,0.304 0.283,0.407 0.663,0.756 0.893,1.199 0.686,1.321 0.958,2.129 1.631,3.501 0.079,0.161 0.18,0.311 0.271,0.467 0.052,-0.002 0.105,-0.004 0.156,-0.006 0.209,-0.638 0.462,-1.265 0.604,-1.908 1.2,-5.393 -1.062,-10.559 -2.812,-13.081 1.155,-0.432 2.594,0.38 3.101,1.398 0.983,1.983 1.568,4.932 1.598,7.149 0.04,3.022 -0.205,6.572 -1.197,9.553 C -0.141,-0.513 -0.118,-0.283 0,0" /></g><g
           transform="translate(50.4136,151.2608)"
           id="g192"><path
             id="path194"
             style="fill:#063191;fill-opacity:1;fill-rule:evenodd;stroke:none"
             d="m 0,0 c -0.372,0.359 -0.834,0.637 -1.302,0.855 -0.279,0.129 -0.644,0.07 -0.967,0.101 -0.988,0.091 -1.971,0.22 -2.961,0.26 -0.739,0.03 -1.436,-0.237 -2.177,-0.828 0.33,-0.147 0.555,-0.265 0.788,-0.344 0.529,-0.181 1.074,-0.316 1.593,-0.523 0.321,-0.125 0.623,-0.323 0.906,-0.528 0.443,-0.323 0.874,-0.665 1.289,-1.023 0.323,-0.283 0.366,-0.686 0.277,-1.125 -0.049,-0.239 -0.076,-0.48 -0.114,-0.72 0.036,-0.021 0.072,-0.042 0.108,-0.062 0.084,0.06 0.177,0.11 0.249,0.184 0.435,0.45 0.861,0.914 1.304,1.364 0.256,0.263 0.555,0.483 0.792,0.764 C 0.219,-1.11 0.353,-0.342 0,0" /></g><g
           transform="translate(42.1783,145.5778)"
           id="g196"><path
             id="path198"
             style="fill:#063191;fill-opacity:1;fill-rule:evenodd;stroke:none"
             d="m 0,0 c -0.295,-0.046 -0.462,-0.524 -0.255,-0.73 0.504,-0.501 0.996,-1.028 1.56,-1.433 0.662,-0.471 1.43,-0.516 2.216,-0.138 0.272,0.133 0.49,0.294 0.513,0.651 0.016,0.225 0.105,0.447 0.13,0.675 0.02,0.181 -0.01,0.361 -0.018,0.574 -0.195,0.125 -0.345,0.274 -0.53,0.333 C 2.436,0.321 1.214,0.192 0,0" /></g><g
           transform="translate(81.8649,179.6377)"
           id="g200"><path
             id="path202"
             style="fill:#063191;fill-opacity:1;fill-rule:evenodd;stroke:none"
             d="M 0,0 C 0.578,0.836 1.21,1.632 1.752,2.495 2.47,3.637 3.092,4.798 3.44,6.109 3.626,6.824 3.726,7.538 3.578,8.302 3.455,8.27 3.362,8.259 3.288,8.219 2.729,7.922 2.353,7.516 1.8,7.21 1.725,7.168 1.667,7.092 1.617,7.02 0.004,4.705 -1.777,2.514 -3.367,0.239 c -0.128,-0.184 0.087,-0.45 0.176,-0.604 0.185,-0.325 0.479,-0.409 0.829,-0.357 0.79,0.112 1.397,0.361 2.178,0.553 C -0.114,-0.154 -0.048,-0.068 0,0" /></g><g
           transform="translate(96.2211,190.0793)"
           id="g204"><path
             id="path206"
             style="fill:#063191;fill-opacity:1;fill-rule:evenodd;stroke:none"
             d="m 0,0 c -0.388,0.061 -0.789,0.068 -1.186,0.076 -0.11,0 -0.241,-0.067 -0.338,-0.137 -0.637,-0.454 -1.022,-0.688 -1.65,-1.155 -0.416,-0.31 -0.944,-0.736 -1.288,-1.112 -2.151,-2.362 -3.398,-4.418 -4.274,-7.377 -0.53,-1.794 -1.375,-7.153 -1.413,-7.381 -0.232,-1.383 -0.736,-2.696 -1.219,-4.003 -0.034,-0.088 -0.174,-0.147 -0.317,-0.257 -0.027,0.181 -0.066,0.285 -0.053,0.386 0.165,1.155 0.338,2.32 0.754,3.451 0.092,0.245 0.162,1.949 0.179,2.223 0.051,0.811 0.139,1.625 0.18,2.44 0.012,0.198 -0.053,0.426 -0.161,0.585 -0.165,0.243 -0.424,0.396 -0.694,0.428 -0.026,1.258 -0.059,1.991 -0.059,1.991 -0.077,0.346 -0.646,0.183 -0.813,0.069 0,0 -0.483,-0.595 -0.494,-0.852 -0.017,-0.475 0.112,-1.041 0.236,-1.909 -0.304,-0.318 -0.603,-0.639 -0.871,-0.981 -0.684,-0.88 -1.127,-1.839 -1.083,-2.955 0.042,-1.077 0.884,-1.484 1.653,-1.433 0.132,0.01 0.263,0.036 0.428,0.061 -0.053,-0.521 -0.097,-1.02 -0.156,-1.52 -0.156,-1.338 -0.298,-2.672 -0.703,-3.964 -0.239,-0.762 -0.127,-1.085 0.568,-1.471 0.211,-0.118 0.432,-0.226 0.631,-0.357 0.184,-0.12 0.378,-0.116 0.525,0.023 0.268,0.252 0.554,0.507 0.745,0.809 0.568,0.908 0.845,1.916 1.096,2.928 0.583,2.366 0.956,4.783 1.191,7.237 0.166,1.718 0.495,3.397 1.211,5.037 1.349,3.09 3.274,5.595 5.857,7.858 0.1,0.09 0.245,0.126 0.399,0.202 0.015,-0.16 0.042,-0.255 0.032,-0.346 -0.038,-0.359 -0.065,-0.72 -0.139,-1.074 -0.448,-2.113 -1.024,-4.063 -1.765,-6.064 -0.04,-0.112 -0.188,-0.188 -0.272,-0.27 -0.31,0.54 -0.557,1.021 -0.863,1.464 -0.098,0.148 -0.336,0.228 -0.53,0.269 -0.157,0.035 -0.904,-0.674 -0.94,-0.845 -0.01,-0.038 -0.004,-0.084 0.009,-0.122 0.16,-0.454 0.207,-0.714 0.405,-1.149 0.085,-0.187 0.376,-0.561 0.547,-0.647 0.28,-0.136 0.264,-0.216 0.266,-0.484 0.006,-0.627 -0.04,-0.897 -0.196,-2.138 -0.163,-1.302 -0.161,-1.163 -0.203,-2.1 -0.04,-0.883 0.036,-1.898 0.036,-1.898 -0.171,-0.555 -0.5,-1.036 -0.747,-1.817 -0.172,-0.551 0.01,-0.922 0.339,-1.298 0.304,0.344 0.513,0.929 0.855,1.319 0.068,-0.428 0.197,-0.939 0.249,-1.193 0.062,-0.308 -0.027,-0.937 -0.014,-1.526 0.018,-0.633 0.094,-1.188 0.591,-1.631 0.107,-0.095 0.208,-0.197 0.329,-0.273 0.399,-0.242 0.853,-0.382 1.317,-0.295 0.648,0.124 1.688,0.496 2.189,0.958 0.109,0.099 0.188,0.3 0.177,0.441 -0.053,0.758 -0.678,1.258 -1.48,1.203 -0.245,-0.018 -0.436,-0.054 -0.77,-0.183 -0.038,0.312 -0.025,0.487 -0.006,0.677 0.179,1.755 0.397,3.285 0.58,5.068 0.057,0.555 -0.34,1.092 -0.806,1.02 -0.682,-0.104 -1.18,-0.017 -1.642,-0.692 -0.053,-0.075 -0.309,-0.44 -0.399,-0.524 l 0.359,4.876 c 0.238,0.061 0.445,0.099 0.641,0.171 0.108,0.038 0.234,0.114 0.292,0.205 1.215,1.939 2.458,4.069 3.313,6.224 0.347,0.878 0.385,1.549 0.382,2.497 C 1.015,-0.38 0.827,-0.127 0,0 m -13.002,-16.787 c -0.182,0.439 -0.253,0.874 0,1.324 0.192,0.346 0.384,0.692 0.576,1.038 0.036,-0.641 0.046,-1.395 0.017,-2.271 -0.232,-0.057 -0.45,-0.089 -0.593,-0.091 m 10.433,1.44 c 0.013,-0.009 0.028,-0.019 0.044,-0.026 -0.109,-1.247 -0.248,-2.248 -0.363,-3.482 -0.01,-0.095 -0.314,-0.401 -0.375,-0.496 -0.038,0.008 -0.074,0.017 -0.112,0.023 -0.213,0.572 -0.16,1.351 -0.277,1.997 -0.01,0.055 0.011,0.137 0.043,0.194 0.386,0.696 0.648,1.091 1.04,1.79" /></g></g></g></g></svg>