<?xml version="1.0" encoding="UTF-8" standalone="no"?>
<svg
   xmlns:dc="http://purl.org/dc/elements/1.1/"
   xmlns:cc="http://creativecommons.org/ns#"
   xmlns:rdf="http://www.w3.org/1999/02/22-rdf-syntax-ns#"
   xmlns:svg="http://www.w3.org/2000/svg"
   xmlns="http://www.w3.org/2000/svg"
   viewBox="0 0 266.66666 266.66666"
   height="266.66666"
   width="266.66666"
   xml:space="preserve"
   id="svg2"
   version="1.1"><metadata
     id="metadata8"><rdf:RDF><cc:Work
         rdf:about=""><dc:format>image/svg+xml</dc:format><dc:type
           rdf:resource="http://purl.org/dc/dcmitype/StillImage" /></cc:Work></rdf:RDF></metadata><defs
     id="defs6"><clipPath
       id="clipPath18"
       clipPathUnits="userSpaceOnUse"><path
         id="path16"
         d="M 0,200 H 200 V 0 H 0 Z" /></clipPath></defs><g
     transform="matrix(1.3333333,0,0,-1.3333333,0,266.66667)"
     id="g10"><g
       id="g12"><g
         clip-path="url(#clipPath18)"
         id="g14"><g
           transform="translate(143.7345,143.7335)"
           id="g20"><path
             id="path22"
             style="fill:#004097;fill-opacity:1;fill-rule:evenodd;stroke:none"
             d="m 0,0 c -24.09,24.088 -63.381,24.088 -87.469,0 -24.087,-24.087 -24.087,-63.38 10e-4,-87.468 24.087,-24.088 63.378,-24.088 87.467,0 C 24.087,-63.38 24.087,-24.087 0,0 m -43.735,56.266 c 55.078,0 100.001,-44.922 100.001,-100 0,-55.077 -44.923,-100 -100.001,-100 -55.077,0 -99.999,44.923 -99.999,100 0,55.078 44.922,100 99.999,100" /></g><g
           transform="translate(116.3082,18.1773)"
           id="g24"><path
             id="path26"
             style="fill:#ffffff;fill-opacity:1;fill-rule:evenodd;stroke:none"
             d="m 0,0 c 0,0 -0.586,-0.391 -0.391,-1.368 0,-1.171 0.391,-1.562 1.367,-1.953 1.759,-0.585 4.298,1.563 2.93,3.516 -0.586,0.781 -1.171,0.195 -1.171,-0.39 0,-0.586 -0.391,-1.173 -0.391,-1.173 0,0 -1.173,0.196 -1.368,0.977 C 0.976,0.39 0,0 0,0 M 3.32,6.445 C 5.079,8.007 9.57,7.812 9.766,5.273 9.766,4.101 9.766,3.125 8.008,2.93 6.25,2.734 6.64,4.296 6.64,4.296 h 0.782 c 0,0 0.391,0.587 0.195,1.172 -0.195,0.391 -0.977,0.391 -2.734,0 -1.758,-0.585 -3.32,-2.929 -3.32,-2.929 0,0 0.977,0.391 2.734,-0.195 2.93,-1.368 2.539,-6.641 -1.953,-7.422 -4.883,-0.977 -5.859,2.343 -4.883,5.859 1.172,3.515 5.859,5.664 5.859,5.664 m -14.453,0.586 -4.102,-5.664 c 0,0 3.321,0.586 4.297,-0.391 0.977,-0.976 0.977,-1.953 0.587,-3.124 -0.391,-0.977 -1.563,-1.563 -2.54,-1.368 -0.976,0.195 -1.953,0.781 -1.758,1.758 0.196,0.781 0.587,-0.586 0.587,-0.586 0,0 0.585,0 0.781,0.586 0.196,0.781 0.586,1.758 -0.196,2.148 -0.781,0.196 -2.344,0.586 -2.929,-0.585 -0.782,-1.173 -0.977,-3.907 0.781,-4.883 1.758,-1.172 5.274,-0.782 6.641,0.586 1.367,1.367 1.758,2.734 1.758,4.101 0,1.367 -0.586,2.735 -1.758,3.125 -1.172,0.391 -2.735,0.391 -2.735,0.391 l 1.563,1.953 3.32,-0.195 0.781,-1.953 c 0,0 0.782,1.757 1.563,2.538 0.977,0.587 2.344,1.173 2.344,1.173 z M -25.391,2.344 c 0,0 1.368,0.976 1.954,0.976 0.586,0 0.976,-0.39 0.976,-0.976 0,-0.391 0.39,-0.391 0.586,-0.196 0.586,0.391 0.976,2.148 -0.196,2.93 -1.366,1.172 -3.71,0.781 -4.1,-1.172 -0.196,-1.367 0.976,-1.562 0.78,-1.562 m 0.977,-2.539 c 0,0 -2.929,0.781 -3.32,2.343 -0.587,1.563 0,4.687 2.734,5.274 2.734,0.585 5.665,-0.977 5.86,-4.102 0.195,-3.32 -3.516,-6.836 -7.031,-7.812 -3.321,-1.172 -4.688,-0.782 -5.665,0.39 -0.391,0.586 -0.196,1.367 0.195,1.954 0.391,0.39 0.782,0.39 1.172,0.195 0.977,0 0.196,-0.586 0.391,-1.368 0.196,-0.976 2.735,-0.195 3.907,0.782 1.171,0.976 1.757,2.344 1.757,2.344 m -6.055,7.812 -6.25,-0.782 1.367,-1.757 -7.031,-10.352 h 3.516 z" /></g><g
           transform="translate(20.0196,99.6091)"
           id="g28"><path
             id="path30"
             style="fill:#ffffff;fill-opacity:1;fill-rule:evenodd;stroke:none"
             d="m 0,0 v 0.391 h 0.391 c 0.195,0 0.195,0 0.39,-0.195 C 0.781,0 0.586,-0.195 0.586,-0.195 0,-0.39 0.195,0.196 0,0 m -1.758,0 c 0.195,0 0,0.196 -0.195,0.196 0,0.195 -0.196,0.195 -0.196,0.39 0,0.195 -0.195,0.195 0.196,0.391 0.195,0.195 0,0 0.39,0.195 0.391,0.195 0.196,0 0.391,-0.195 C -1.172,0.781 -1.758,0 -1.758,0 m -7.227,4.297 c 0,0 -0.195,0.782 0.391,0.977 0.782,0.391 0.586,0.585 1.368,0.781 0.976,0.196 1.171,0.196 2.148,-0.585 0.976,-0.587 2.148,-1.759 1.953,-2.735 -0.39,-0.977 -0.586,-0.781 -1.758,-0.586 -0.976,0.391 -2.929,0.977 -3.32,1.367 -0.391,0.39 -0.782,0.781 -0.782,0.781 m -0.39,-5.664 c 0,0 1.367,-1.563 2.149,-1.367 0.781,0.195 1.367,0.781 2.343,0.39 0.781,-0.586 1.953,-1.171 1.758,-1.757 -0.195,-0.782 -0.195,-1.172 -0.977,-1.172 -0.585,-0.196 -1.757,0 -2.343,0 -0.586,0 -0.586,-0.391 -0.586,-0.391 0,0 3.906,-1.953 5.468,-2.148 1.563,-0.195 1.368,0.585 2.149,1.368 0.977,0.78 0.586,1.757 1.953,1.561 1.367,-0.195 4.297,-0.195 5.078,0.782 C 8.594,-3.124 9.766,0.196 9.57,1.954 9.375,3.906 8.984,4.688 7.812,4.493 6.641,4.297 6.445,1.367 6.445,0.196 c 0,-1.172 -0.586,-2.735 -1.562,-2.735 -0.391,0 -0.782,0 -0.977,0.195 -0.586,0.391 -0.391,1.173 -0.586,2.149 0,1.172 0.195,2.344 -0.585,2.539 -0.587,0.196 -2.54,0.782 -3.711,1.758 -0.977,0.977 -1.368,1.172 -1.759,2.538 -0.585,1.173 -0.78,1.954 -1.367,1.954 -0.39,0 -2.148,-0.391 -3.515,-1.563 -1.368,-0.976 -2.734,-1.366 -2.734,-1.366 0,0 -1.173,0.39 -2.345,0.586 -1.171,0 -1.953,0.389 -3.32,-0.392 -1.172,-0.78 -1.562,-1.366 -1.562,-1.366 0,0 1.757,0.195 2.343,0 0.586,-0.196 2.149,-1.367 2.93,-2.149 0.781,-0.781 1.758,-1.758 2.148,-2.539 0.587,-0.976 0.782,-1.172 0.782,-1.172" /></g><g
           transform="translate(34.473,141.797)"
           id="g32"><path
             id="path34"
             style="fill:#ffffff;fill-opacity:1;fill-rule:evenodd;stroke:none"
             d="M 0,0 C 0,0 0.195,1.171 0.39,1.953 0.781,2.539 0.976,3.125 1.367,3.32 1.562,3.515 1.758,4.102 1.953,3.906 2.344,3.71 2.735,3.71 3.124,3.515 3.515,3.125 3.906,2.93 4.101,2.539 4.492,2.344 4.883,1.758 5.078,0.976 5.078,0.195 4.492,-0.195 3.906,-0.586 3.124,-0.781 2.344,-0.977 1.758,-0.977 1.171,-0.977 0.781,-0.781 0.585,-0.586 0.195,-0.586 0,0 0,0 m -11.914,8.594 c 0,0 0.586,-1.563 0.586,-1.953 0.195,-0.391 0.195,-0.586 0.195,-0.586 0,0 0.976,0.39 1.562,0.78 0.586,0.587 0.586,0.587 0.781,0.391 C -8.399,7.031 -6.836,6.055 -5.86,5.274 -4.688,4.687 -4.297,3.906 -3.321,3.32 -2.54,2.735 -1.367,2.539 -1.367,2.539 L -2.93,-0.977 c 0,0 -0.195,-1.367 0.195,-1.562 0.195,-0.39 1.172,-0.39 1.954,0 0.585,0.195 1.757,0.195 2.148,0.195 0.391,-0.195 3.32,-1.562 3.32,-1.562 0,0 0,0.585 0.586,0.977 0.586,0.39 1.758,2.343 2.344,3.905 C 8.203,2.344 7.812,3.906 7.226,4.687 6.64,5.274 5.078,6.25 4.297,6.641 3.515,6.835 3.124,7.422 3.32,8.008 c 0,0.586 0.391,1.562 0.586,1.953 0.195,0.39 -0.391,0.976 -0.391,0.976 0,0 -0.195,-0.195 -0.976,-0.39 C 1.953,10.156 1.171,9.57 0.781,9.179 0.39,8.789 0,7.812 -0.391,7.226 -0.781,6.641 -1.172,5.664 -1.563,5.664 -1.954,5.469 -2.93,5.859 -3.515,6.445 c -0.587,0.586 -1.954,2.344 -2.54,2.93 -0.586,0.586 -1.562,1.172 -2.344,1.562 -0.976,0.196 -1.758,-0.39 -2.343,-0.781 -0.586,-0.195 -1.172,-1.562 -1.172,-1.562" /></g><g
           transform="translate(72.5585,179.2966)"
           id="g36"><path
             id="path38"
             style="fill:#ffffff;fill-opacity:1;fill-rule:evenodd;stroke:none"
             d="m 0,0 c 0,0 -0.195,-0.781 0.195,-1.171 0.391,-0.587 0.977,0 1.173,0.195 0.195,0.195 0.39,0.586 0.195,0.976 0,0.391 0,0.391 -0.391,0.586 C 0.391,0.977 0.195,0.586 0,0 m -1.171,3.516 c 0,0 -0.196,-0.391 0.195,-0.781 0.39,-0.196 0.585,-0.391 0.781,-0.196 1.172,0.391 0.586,1.758 -0.196,1.368 -0.585,0 -0.78,-0.391 -0.78,-0.391 m -0.977,8.203 c 0,0 0.195,0.586 0.781,0.391 0.586,-0.196 1.758,-0.586 1.758,-0.586 0,0 0.195,-0.391 0.195,-0.781 C 0.781,10.352 1.563,8.789 1.953,8.203 2.149,7.617 2.735,7.227 3.125,6.641 3.711,6.055 4.688,5.469 5.078,4.883 5.664,4.102 5.664,4.102 5.859,3.516 6.055,3.125 6.055,2.735 5.859,2.149 5.664,1.563 5.469,0.586 5.469,0 c 0,-0.586 0.586,-1.367 0.586,-1.562 0,-0.196 0.781,-1.953 0.781,-1.953 V -3.906 C 6.641,-4.296 6.445,-4.687 6.445,-5.273 6.25,-5.859 6.641,-6.835 6.836,-7.422 c 0,-0.586 0.781,-2.929 0.781,-3.124 0.196,-0.196 0.391,-0.977 0.196,-0.977 -0.196,0 -0.196,0.195 -0.586,0.39 -0.586,0.391 -1.172,1.368 -1.758,2.344 C 4.883,-8.008 4.102,-6.25 3.711,-5.469 3.516,-4.883 2.735,-3.906 2.344,-3.515 2.149,-2.929 0.391,-4.101 0,-4.101 c -0.391,-0.195 -0.976,-0.782 -1.757,0.195 -0.782,1.172 0,1.563 0,2.148 0,0.391 0.586,1.758 0.39,2.149 -0.195,0.586 -0.976,0 -1.367,0.586 -0.391,0.586 -0.391,1.758 -0.391,2.148 0,0.391 -0.39,1.172 -0.39,1.563 0,0.586 0.195,0.781 0.781,0.977 0.391,0.39 1.953,0.976 1.953,0.976 l 0.39,0.782 z M -10.351,6.25 c -0.195,-1.172 -0.195,-2.343 0,-3.125 0.39,-0.781 0.585,-1.562 0.781,-2.148 0.195,-0.586 0,-0.977 0,-0.977 0,0 -0.781,-0.781 -1.172,-1.367 -0.586,-0.391 -1.563,-1.757 -1.953,-2.734 -0.196,-1.172 0,-2.149 0.586,-1.954 0.781,0.196 0.977,0.586 1.172,1.172 0.391,0.587 1.171,0.977 1.367,0.587 0.195,-0.391 -0.196,-2.344 -0.196,-2.93 0,-0.586 -0.195,-2.149 0,-2.735 0.196,-0.39 0.782,-1.172 0.782,-1.367 0.195,-0.195 0.39,-0.585 0.586,-0.391 0.195,0 0.586,0.196 0.586,0.196 0,0 0.39,0.781 0.586,1.367 0.195,0.586 0.585,0.977 0.585,1.367 0.196,0.391 0.586,0.586 0.782,0.781 0.39,0 0.781,-0.586 0.976,-0.977 0,-0.194 0.587,-1.366 0.587,-1.561 0,-0.196 -0.196,-0.196 -0.391,-0.391 -0.196,-0.196 -0.196,-0.391 -0.196,-0.586 h -0.39 c 0,0 0.39,-0.196 0.781,-0.586 0.391,-0.196 0.977,-0.586 1.367,-0.196 0.586,0.196 0.391,0.392 0.391,0.586 0.195,0.196 0.391,0.586 0.195,0.782 0,0.195 -0.781,1.952 -1.172,2.539 -0.195,0.586 -0.39,1.172 -0.781,1.758 -0.391,0.781 -0.586,1.367 -0.586,1.367 0,0 0.586,1.953 0.782,2.93 0.195,0.976 0.195,1.367 0.195,1.953 0,0.39 0.195,0.976 0,1.367 -0.195,0.391 -0.195,0.781 -0.195,0.781 0,0 -0.391,-0.195 -0.391,-0.781 -0.196,-0.586 -0.391,-1.758 -0.586,-2.344 0,-0.391 -0.196,-1.172 -0.391,-1.367 -0.195,-0.195 -0.586,-0.39 -0.977,-0.195 -0.39,0 -0.585,0.195 -0.585,0.195 0,0 -0.196,0.391 0,0.781 0,0.391 0,0.586 -0.196,0.782 0,0.39 -0.39,1.171 -0.781,1.367 -0.195,0 -0.391,0.585 -0.391,0.781 0,0.195 -0.781,1.758 -0.586,2.148 0,0.391 0.586,2.149 0.977,2.734 0.391,0.587 0.391,1.368 0.196,1.954 -0.196,1.758 -1.173,1.367 -1.759,0.39 -0.39,-0.586 -0.585,-1.562 -0.585,-1.953" /></g><g
           transform="translate(129.3952,173.4377)"
           id="g40"><path
             id="path42"
             style="fill:#ffffff;fill-opacity:1;fill-rule:evenodd;stroke:none"
             d="M 0,0 C 0,0 0.39,0.195 0.781,0.39 1.366,0.39 1.562,0.586 1.562,0.195 1.366,-0.196 1.366,-0.587 1.171,-0.976 0.976,-1.172 0.585,-1.758 0.195,-1.758 c -0.39,0.195 -0.586,0.39 -0.586,0.586 -0.196,0.196 0,0.585 0.196,0.781 C -0.195,-0.196 0,0 0,0 m -2.735,4.883 c 0,0 0.196,0 0.391,-0.196 0.195,-0.39 0.195,0 0.39,-0.39 0,-0.196 0.391,-0.196 0.391,-0.391 0.195,0 0.195,-0.195 0.195,-0.391 0,-0.195 -0.39,-0.78 -0.586,-0.976 -0.195,-0.195 -0.781,0 -0.781,0.196 -0.195,0.195 -0.781,0.195 -0.977,0.195 -0.195,0.194 0,0.585 0.196,0.781 0.195,0.39 0,0.39 0.391,0.586 0.195,0.195 0.39,0.586 0.39,0.586 m -0.977,6.835 c 0,0 -0.976,-0.39 -1.366,-1.171 -0.587,-0.781 -1.173,-2.344 -1.563,-2.735 -0.195,-0.195 -0.586,-0.195 -0.977,0 -0.586,0.196 -1.563,0.391 -1.563,0 0,-0.39 0.391,-0.39 0.587,-0.976 0.195,-0.585 0.586,-2.149 -0.391,-3.516 -1.172,-1.367 -1.367,-1.953 -2.148,-2.344 -0.782,-0.39 -1.563,-0.195 -1.954,-0.39 -0.39,0 -0.585,0.195 -0.781,-0.196 -0.195,-0.39 -0.39,-1.953 0.391,-2.539 0.586,-0.586 0.976,-0.195 1.367,-0.195 0.586,0 1.172,0.195 1.172,0.195 0,0 0.391,-0.586 0.781,-0.781 0.391,-0.391 0.586,-0.391 0.976,-0.195 0.391,0.195 0.782,1.367 0.977,1.953 0.196,0.391 0.391,1.367 0.391,1.367 0,0 0.586,0.586 1.172,0.977 0.39,0.391 0.195,0.195 0.976,0.586 0.782,0.39 1.172,0.781 1.172,0.781 l -0.39,-1.563 c 0,0 -0.586,-0.586 0,-1.172 0.586,-0.391 1.171,-1.172 1.562,-1.562 0.391,-0.391 0.586,-0.781 0.196,-1.172 -0.391,-0.195 -1.563,0 -1.758,0.195 -0.195,0.391 -0.586,0.782 -0.782,1.367 C -5.86,-0.781 -5.86,0 -5.86,0.39 c 0.195,0.391 0,0.586 0,0.586 0,0 -0.781,-0.39 -0.781,-0.586 -0.195,-0.39 -0.781,-1.171 -0.977,-1.953 -0.39,-0.781 -0.781,-1.758 -0.586,-2.149 0.391,-0.39 1.953,-1.171 2.735,-1.366 0.781,-0.196 2.148,-0.586 2.734,-0.391 0.781,0 1.172,0 1.367,-0.195 0.391,-0.196 0.587,-0.196 0.587,-0.391 0,-0.391 0.194,-0.781 0.39,-1.562 0.196,-0.781 0.781,-0.977 1.367,-1.368 0.39,-0.195 2.734,-0.781 3.516,-0.977 0.976,-0.194 1.758,-0.389 2.149,-0.194 0.585,0 1.366,0.194 0.78,0.586 -0.586,0.195 -1.171,0.781 -1.757,1.172 -0.782,0.585 -1.954,2.343 -2.539,3.124 -0.586,0.782 -1.172,1.758 -1.172,1.758 0,0 0.195,0.391 0.39,0.586 0.391,0 0.977,1.367 1.172,2.343 0.391,0.782 0.586,1.759 0.781,2.15 0,0.39 0,0.781 -0.195,0.976 C 4.101,2.93 3.906,2.735 3.515,2.93 3.32,2.93 2.539,2.735 2.148,2.735 1.953,2.735 1.757,2.93 1.757,3.124 v 0.587 c 0.196,0.195 0.782,0.39 1.563,0.586 0.976,0.195 1.953,0 2.539,0.586 0.586,0.585 0.976,1.368 1.367,1.953 0.195,0.391 0.195,0.781 0.195,0.976 0,0.196 -0.195,0.391 -0.195,0.391 0,0 -0.391,0 -0.585,-0.195 C 6.445,7.617 5.273,7.227 5.078,7.031 4.687,6.64 4.296,6.445 3.906,6.64 3.515,6.836 3.32,6.836 3.125,7.031 c 0,0.196 0.39,1.367 0.585,1.954 0.196,0.585 0.391,0.976 0.391,1.562 0,0.781 -0.195,0.976 -0.391,1.171 -0.195,0.195 -0.585,0 -0.585,0 0,0 -0.391,-0.585 -0.586,-0.976 C 2.343,10.351 1.953,9.374 1.757,8.789 1.562,8.398 1.171,7.031 0.976,6.64 0.976,6.445 0.39,6.445 0,6.445 c -0.391,-0.194 -0.977,0 -1.758,0 -0.977,-0.194 -1.758,-0.39 -2.149,-0.781 -0.39,-0.586 -1.562,-1.172 -1.562,-1.172 0,0 -0.587,0 -0.587,0.391 0,0.391 0.587,0.976 1.173,1.368 0.586,0.389 1.367,0.976 1.758,1.757 0.39,0.586 0.586,1.171 0.781,1.758 0,0.39 0,0.585 -0.586,1.367 -0.586,0.78 -0.782,0.585 -0.782,0.585" /></g><g
           transform="translate(165.3325,139.8438)"
           id="g44"><path
             id="path46"
             style="fill:#ffffff;fill-opacity:1;fill-rule:evenodd;stroke:none"
             d="m 0,0 c 0,0 -0.586,-0.195 -0.781,-0.391 -0.196,0 -0.196,-0.39 -0.196,-0.976 -0.195,-0.391 0.196,-1.172 0.196,-1.172 0,0 0.195,-0.391 0,-1.172 V -6.055 C -0.977,-6.641 0,-7.227 0.391,-7.617 c 0.39,-0.586 0.585,-0.977 0.976,-0.586 0.39,0.195 1.367,1.758 1.563,2.539 0.195,0.977 -0.391,2.343 -0.782,3.125 C 1.757,-1.562 0,0 0,0 m -0.781,11.133 c 0,0 1.952,-2.344 2.148,-2.735 0.39,-0.39 1.563,-0.586 2.344,-0.195 0.781,0.586 3.711,2.93 4.296,3.32 0.586,0.391 0.977,0.977 2.149,0.977 1.172,0 1.953,-0.195 1.953,-0.977 0,-0.585 -0.195,-2.344 -0.39,-2.539 -0.196,-0.39 0,-0.586 -0.196,-0.781 C 11.523,8.008 9.961,7.031 9.18,6.641 8.398,6.25 7.226,5.274 6.836,4.883 6.446,4.492 6.836,4.102 7.422,4.102 8.007,3.906 8.789,4.102 9.766,3.516 10.741,2.735 11.328,1.563 11.523,0.781 11.914,0 11.719,-0.586 10.741,-0.586 9.766,-0.586 8.984,0 8.398,0.586 8.007,1.172 6.836,1.953 6.25,2.344 5.664,2.539 4.687,2.93 4.296,2.93 4.102,2.93 3.906,2.93 3.32,2.344 2.539,1.953 1.171,0.976 -0.586,0.781 c -1.563,0 -3.711,0.782 -4.883,1.367 -1.172,0.782 -2.148,1.758 -2.148,2.149 0,0.39 0.781,1.172 0.976,1.367 0.39,0.195 0.976,0.195 1.758,0.195 0.976,-0.195 1.367,-0.39 1.758,-0.195 0.39,0 0.586,-0.195 0.586,0.195 0,0.586 -0.196,1.367 -0.586,1.953 -0.391,0.586 -0.782,1.563 -0.977,2.344 0,0.782 0.586,1.172 1.563,1.367 0.781,0.196 1.758,-0.39 1.758,-0.39" /></g><g
           transform="translate(174.5121,102.9295)"
           id="g48"><path
             id="path50"
             style="fill:#ffffff;fill-opacity:1;fill-rule:evenodd;stroke:none"
             d="m 0,0 c 0,0 -0.391,0 -0.781,-0.39 -0.391,-0.196 -0.391,-0.781 -0.391,-1.172 0.195,-0.586 0,-0.782 0.391,-1.368 0.39,-0.585 0.586,-0.39 0.781,-0.39 0.391,0 0.781,-0.195 0.976,0.39 0.391,0.586 0.391,1.172 -0.195,1.563 C 0.391,-0.976 0,0 0,0 m 8.203,3.711 c 0,0 -0.781,0.391 -1.368,0.586 -0.585,0.195 -0.78,0.977 -0.78,1.562 -0.196,0.391 0.586,1.172 1.562,1.172 0.976,0 1.953,-0.195 2.734,-0.391 0.781,0 1.368,-0.781 1.758,-1.562 0.391,-0.976 1.367,-3.515 1.758,-4.492 0.391,-0.976 0.781,-2.539 0.781,-3.906 0.196,-1.367 0,-1.758 -0.39,-2.344 -0.196,-0.586 -0.782,-1.171 -1.173,-1.562 -0.39,-0.196 -1.562,0.195 -1.757,0.781 -0.391,0.586 -1.367,0.586 -1.953,0.781 -0.586,0 -1.368,-0.391 -1.758,0 -0.586,0.195 -0.976,0.586 -1.758,0.781 -0.781,0.196 -1.758,0 -1.953,-0.195 -0.195,-0.195 0,-0.781 0.39,-1.172 0.587,-0.39 0.782,-0.781 0.782,-1.367 0.195,-0.586 0.195,-0.586 -0.195,-0.977 -0.391,-0.585 -0.782,-1.171 -1.368,-1.757 -0.39,-0.586 -0.586,-0.391 -0.781,0 -0.39,0.195 -0.586,1.172 -0.781,1.757 0,0.586 0,1.172 -0.391,1.759 -0.391,0.78 -1.171,0.78 -1.757,0.78 -0.782,0 -1.563,0 -2.539,0.391 -0.782,0.391 -0.587,0.977 -0.977,2.344 -0.196,1.367 -0.391,2.539 -0.196,2.93 0.196,0.585 1.368,0.976 2.149,1.366 0.781,0.391 0.977,1.173 1.367,1.368 C 0,2.539 0.781,4.102 1.562,4.297 2.148,4.492 2.734,3.906 2.734,3.906 c 0,0 -0.39,-1.367 -0.195,-2.148 0,-0.977 0,-1.953 0.39,-2.539 0.392,-0.39 1.563,-1.563 2.149,-1.954 0.586,-0.39 1.563,-0.78 2.539,-0.585 0.781,0.195 0.586,0.976 0.195,1.172 -0.39,0.39 -0.781,0.781 -1.171,1.172 -0.391,0.195 -1.172,0.586 -1.563,0.781 -0.391,0 -0.391,0.586 -0.195,0.781 0.195,0.39 0.976,0.586 1.758,0.586 0.976,-0.196 1.562,-0.586 2.148,-1.367 0.781,-0.586 1.758,-2.735 2.148,-3.125 0.195,-0.195 0.586,-0.195 0.782,0.195 0,0.586 0,0.977 -0.587,1.954 C 10.547,-0.39 10.547,-0.39 10.156,0.391 9.765,1.172 9.375,0.976 8.789,1.953 8.398,2.93 8.203,3.711 8.203,3.711 M 23.046,-6.445 c 0,0 -1.366,0.39 -1.757,0.586 -0.586,0 -1.953,0.976 -2.735,1.172 -0.586,0.391 -1.562,0.586 -1.562,0.586 0,0 0,-0.782 0.391,-1.368 0.195,-0.39 0.585,-0.586 0.585,-0.586 0,0 0.391,-1.953 0.586,-2.343 0,-0.196 0.586,-1.562 1.172,-1.758 0.781,0 1.563,0.196 2.149,0.977 0.586,0.781 0.781,0.781 0.976,1.367 0.195,0.586 0.195,1.367 0.195,1.367 m -2.929,6.64 c 0,0 -1.171,0.196 -1.563,0.196 -0.39,0.195 -1.367,-0.196 -1.367,-0.781 0,-0.391 0,-1.172 0.196,-1.368 0.195,-0.39 0.585,-0.39 0.781,-0.586 0.195,-0.195 0.586,0 0.586,0 0,0 0.39,0.196 0.586,0.586 0.39,0.587 0.39,0.977 0.586,1.368 0.195,0.39 0.195,0.585 0.195,0.585 m -4.688,1.172 c 0,0 2.344,0.782 3.125,0.782 0.586,0.195 1.758,0.976 1.758,1.757 0,0.782 -0.781,1.368 -1.366,1.563 C 18.164,5.664 17.187,5.274 16.406,4.688 15.625,4.102 15.82,3.515 15.234,3.125 c -0.39,-0.39 -0.39,-0.39 -0.39,-0.781 0,-0.391 0.585,-0.977 0.585,-0.977" /></g><g
           transform="translate(143.7345,143.7335)"
           id="g52"><path
             id="path54"
             style="fill:#ffffff;fill-opacity:1;fill-rule:evenodd;stroke:none"
             d="m 0,0 c 24.087,-24.087 24.087,-63.38 -0.001,-87.468 -24.089,-24.088 -63.38,-24.088 -87.467,0 C -111.556,-63.38 -111.556,-24.087 -87.469,0 -63.381,24.088 -24.09,24.088 0,0" /></g><g
           transform="translate(126.4337,88.0003)"
           id="g56"><path
             id="path58"
             style="fill:#004097;fill-opacity:1;fill-rule:evenodd;stroke:none"
             d="m 0,0 c -1.619,-1.837 -3.322,-3.658 -5.114,-5.45 -21.085,-21.085 -46.12,-30.442 -55.731,-20.83 -5.809,5.808 -4.687,17.252 1.764,30.052 0.813,-1.348 1.819,-2.568 2.978,-3.621 -6.148,-11.19 -7.812,-20.708 -3.415,-25.105 7.578,-7.578 30.358,2.843 50.712,23.196 0.584,0.584 1.157,1.171 1.725,1.758 z m -40.014,29.45 c 21.083,21.084 46.119,30.441 55.73,20.83 5.231,-5.232 4.841,-15.033 0,-26.281 h -4.66 c 6.08,11.126 7.71,20.577 3.333,24.954 -7.578,7.577 -30.358,-2.841 -50.712,-23.195 -0.114,-0.115 -0.228,-0.23 -0.342,-0.345 -1.555,1.014 -3.295,1.765 -5.156,2.189 0.592,0.619 1.194,1.235 1.807,1.848" /></g><g
           transform="translate(108.8337,128.2741)"
           id="g60"><path
             id="path62"
             style="fill:#ef8200;fill-opacity:1;fill-rule:evenodd;stroke:none"
             d="m 0,0 c 4.217,-3.139 8.425,-6.764 12.486,-10.824 1.792,-1.793 3.497,-3.614 5.115,-5.45 H 10.52 c -0.568,0.587 -1.142,1.174 -1.726,1.757 -4.28,4.28 -8.668,8.119 -12.999,11.445 C -2.792,-1.993 -1.389,-0.968 0,0 m 0.077,-57.652 c 14.034,-9.412 26.644,-12.842 31.911,-7.575 4.378,4.377 2.749,13.828 -3.331,24.953 h 4.66 c 4.84,-11.247 5.23,-21.049 -0.002,-26.28 -6.912,-6.913 -21.804,-4.013 -37.465,6.005 1.406,0.909 2.817,1.876 4.227,2.897 m -27.846,43.378 c 7.71,0 14,-6.289 14,-14 0,-5.05 -2.698,-9.49 -6.726,-11.952 0.583,-0.604 1.173,-1.206 1.773,-1.807 4.276,-4.276 8.66,-8.112 12.987,-11.436 -1.412,-1.08 -2.816,-2.105 -4.204,-3.073 -4.213,3.138 -8.417,6.759 -12.475,10.817 -1.184,1.183 -2.328,2.38 -3.436,3.584 -0.628,-0.087 -1.268,-0.133 -1.919,-0.133 -7.711,0 -14,6.289 -14,14 0,2.183 0.505,4.254 1.403,6.099 -7.421,13.65 -9.008,26.051 -2.879,32.181 6.911,6.912 21.799,4.013 37.459,-6.001 -1.408,-0.909 -2.819,-1.875 -4.23,-2.896 -14.031,9.408 -26.636,12.835 -31.902,7.571 -4.63,-4.63 -2.54,-14.935 4.428,-26.895 2.522,2.437 5.951,3.941 9.721,3.941" /></g><g
           transform="translate(58.7139,109.0003)"
           id="g64"><path
             id="path66"
             style="fill:#004097;fill-opacity:1;fill-rule:evenodd;stroke:none"
             d="m 0,0 h 5.457 v -10.546 c 0,-1.047 -0.165,-2.031 -0.491,-2.962 C 4.641,-14.435 4.13,-15.249 3.435,-15.946 2.738,-16.641 2.009,-17.127 1.244,-17.411 0.181,-17.802 -1.092,-18 -2.582,-18 c -0.861,0 -1.799,0.058 -2.817,0.181 -1.017,0.12 -1.865,0.358 -2.549,0.716 -0.684,0.358 -1.31,0.869 -1.878,1.528 -0.568,0.659 -0.955,1.339 -1.165,2.039 -0.338,1.124 -0.506,2.12 -0.506,2.99 V 0 h 5.455 v -10.798 c 0,-0.968 0.268,-1.721 0.8,-2.261 0.535,-0.543 1.276,-0.815 2.227,-0.815 0.939,0 1.681,0.268 2.216,0.803 0.531,0.531 0.799,1.293 0.799,2.273 z" /></g><g
           transform="translate(76.1165,101.6544)"
           id="g68"><path
             id="path70"
             style="fill:#ffffff;fill-opacity:1;fill-rule:evenodd;stroke:none"
             d="M 0,0 H 9.614 C 9.487,1.445 9.116,2.536 8.513,3.255 7.583,4.378 6.376,4.943 4.898,4.943 3.558,4.943 2.43,4.494 1.517,3.599 0.603,2.702 0.1,1.5 0,0 m 9.581,-4.721 3.017,-0.371 c -0.476,-1.766 -1.356,-3.133 -2.641,-4.107 -1.289,-0.968 -2.933,-1.455 -4.931,-1.455 -2.519,0 -4.517,0.774 -5.989,2.324 -1.478,1.55 -2.214,3.725 -2.214,6.526 0,2.9 0.747,5.147 2.236,6.747 1.494,1.599 3.426,2.402 5.806,2.402 2.303,0 4.185,-0.786 5.64,-2.351 1.461,-1.567 2.191,-3.776 2.191,-6.616 0,-0.177 -0.004,-0.437 -0.015,-0.779 H -0.161 c 0.106,-1.894 0.643,-3.344 1.606,-4.346 0.963,-1.008 2.158,-1.512 3.597,-1.512 1.068,0 1.982,0.284 2.74,0.848 0.758,0.559 1.357,1.456 1.799,2.69" /></g><g
           transform="translate(97.9557,97.0552)"
           id="g72"><path
             id="path74"
             style="fill:#004097;fill-opacity:1;fill-rule:evenodd;stroke:none"
             d="m 0,0 5.119,0.321 c 0.11,-0.831 0.336,-1.464 0.677,-1.902 0.551,-0.705 1.345,-1.053 2.375,-1.053 0.766,0 1.358,0.178 1.775,0.539 0.413,0.361 0.621,0.777 0.621,1.252 0,0.45 -0.195,0.855 -0.592,1.211 C 9.577,0.726 8.662,1.062 7.218,1.378 4.859,1.909 3.177,2.61 2.172,3.49 1.159,4.369 0.653,5.487 0.653,6.85 c 0,0.895 0.258,1.743 0.777,2.537 0.52,0.794 1.298,1.419 2.34,1.877 1.041,0.454 2.468,0.681 4.279,0.681 2.225,0 3.923,-0.414 5.091,-1.241 1.167,-0.826 1.861,-2.144 2.084,-3.948 L 10.153,6.461 C 10.019,7.244 9.736,7.814 9.302,8.171 8.872,8.524 8.276,8.702 7.519,8.702 6.89,8.702 6.42,8.572 6.104,8.306 5.788,8.042 5.63,7.718 5.63,7.336 5.63,7.06 5.76,6.813 6.019,6.59 6.274,6.359 6.874,6.149 7.826,5.95 10.178,5.443 11.86,4.929 12.877,4.41 c 1.017,-0.519 1.759,-1.159 2.22,-1.929 0.462,-0.766 0.698,-1.626 0.698,-2.578 0,-1.115 -0.312,-2.144 -0.928,-3.084 -0.616,-0.945 -1.48,-1.658 -2.59,-2.145 -1.107,-0.486 -2.505,-0.73 -4.191,-0.73 -2.959,0 -5.01,0.568 -6.149,1.711 C 0.794,-3.206 0.149,-1.759 0,0" /></g><g
           transform="translate(115.9076,109.0003)"
           id="g76"><path
             id="path78"
             style="fill:#004097;fill-opacity:1;fill-rule:evenodd;stroke:none"
             d="M 0,0 H 16.906 V -4.447 H 11.232 V -18 H 5.671 v 13.553 l -5.671,0 z" /></g><g
           transform="translate(143.9714,108.9998)"
           id="g80"><path
             id="path82"
             style="fill:#004097;fill-opacity:1;fill-rule:evenodd;stroke:none"
             d="M 0,0 C 4.109,0 7.589,-2.777 8.66,-6.549 H 4.069 C 3.235,-5.171 1.722,-4.247 0,-4.247 c -2.618,0 -4.753,-2.135 -4.753,-4.753 0,-2.617 2.135,-4.752 4.753,-4.752 1.722,0 3.234,0.924 4.068,2.301 H 8.659 C 7.587,-15.223 4.108,-18 0,-18 c -4.957,0 -9,4.043 -9,9 0,4.957 4.043,9 9,9" /></g></g></g></g></svg>