<?xml version="1.0" encoding="UTF-8" standalone="no"?>
<svg
   xmlns:dc="http://purl.org/dc/elements/1.1/"
   xmlns:cc="http://creativecommons.org/ns#"
   xmlns:rdf="http://www.w3.org/1999/02/22-rdf-syntax-ns#"
   xmlns:svg="http://www.w3.org/2000/svg"
   xmlns="http://www.w3.org/2000/svg"
   viewBox="0 0 266.66666 241.33333"
   height="241.33333"
   width="266.66666"
   xml:space="preserve"
   id="svg2"
   version="1.1"><metadata
     id="metadata8"><rdf:RDF><cc:Work
         rdf:about=""><dc:format>image/svg+xml</dc:format><dc:type
           rdf:resource="http://purl.org/dc/dcmitype/StillImage" /></cc:Work></rdf:RDF></metadata><defs
     id="defs6"><clipPath
       id="clipPath18"
       clipPathUnits="userSpaceOnUse"><path
         id="path16"
         d="M 0,181 H 200 V 0 H 0 Z" /></clipPath></defs><g
     transform="matrix(1.3333333,0,0,-1.3333333,0,241.33333)"
     id="g10"><g
       id="g12"><g
         clip-path="url(#clipPath18)"
         id="g14"><g
           transform="translate(11.4576,74.9806)"
           id="g20"><path
             id="path22"
             style="fill:#004f97;fill-opacity:1;fill-rule:evenodd;stroke:none"
             d="m 0,0 8.991,7.322 v -31.127 c 0,-3.136 0.776,-5.759 2.373,-8.109 5.012,-7.067 18.223,-9.16 30.639,-5.76 -8.465,-7.057 -24.306,-7.843 -34.073,-1.571 -4.496,2.888 -8.189,7.066 -7.93,14.123 z m 30.38,0 9.241,7.322 v -29.299 c 0,-4.708 -3.434,-8.109 -7.394,-9.16 -3.443,-1.042 -7.395,0 -9.776,2.88 1.061,-0.257 3.175,-0.786 5.28,0.521 0.536,0.53 1.053,1.051 1.597,1.581 0.785,1.033 1.052,2.35 1.052,4.708 z m 20.605,0 8.982,7.322 v -45.517 h 9.508 l -6.341,-5.229 H 50.985 Z m 19.543,0 9.25,7.322 v -45.517 h 27.999 c 3.692,0 8.188,1.308 10.828,2.88 -2.899,-4.187 -6.859,-7.066 -13.995,-8.109 H 70.528 Z m 19.017,0 h 14.798 c 4.495,0 7.126,-3.922 5.28,-7.853 -1.052,-2.093 -3.434,-3.136 -7.394,-3.136 1.855,1.564 1.587,3.666 0,4.973 -0.794,0.786 -1.847,1.043 -3.434,1.043 h -9.25 z m 0,-18.841 h 15.591 c 2.641,0 3.961,-0.521 5.022,-1.563 1.588,-1.573 2.64,-4.974 0,-7.853 -1.587,-1.829 -3.701,-2.094 -6.609,-2.094 1.855,1.308 1.855,3.666 1.061,4.973 -0.794,1.043 -2.114,1.573 -2.908,1.573 H 89.545 Z M 122.039,0 l 8.982,7.322 v -45.517 h 38.034 l -6.074,-5.229 h -40.942 z m 18.758,-0.786 h 26.938 l -4.754,-4.974 h -22.184 z m 0,-17.79 h 25.359 l -4.754,-5.229 h -20.605 z" /></g><g
           transform="translate(44.7387,160.7841)"
           id="g24"><path
             id="path26"
             style="fill:#004f97;fill-opacity:1;fill-rule:evenodd;stroke:none"
             d="M 0,0 C 0,1.563 0.803,2.614 1.579,4.187 V 2.614 C 2.123,2.093 2.123,3.4 2.899,1.307 2.899,0 2.64,-1.563 2.899,-2.88 3.175,-4.708 3.96,-0.521 5.28,-6.281 l 0.277,2.359 c 0.259,-2.359 0.259,-5.238 1.052,-7.332 -1.329,-0.521 -0.793,-0.521 -1.329,1.043 -0.526,5.503 -1.837,7.852 -2.105,5.759 0,-0.521 -1.052,0 -1.052,0.786 C 2.382,0.256 2.64,1.837 1.855,1.837 1.32,1.563 1.32,0.786 1.32,-0.265 1.579,-1.308 0,-0.521 0,0" /></g><g
           transform="translate(49.7641,166.0142)"
           id="g28"><path
             id="path30"
             style="fill:#004f97;fill-opacity:1;fill-rule:evenodd;stroke:none"
             d="m 0,0 c 1.579,1.563 2.373,4.452 4.228,6.801 0.526,0.521 1.052,0.521 1.052,0 0,-0.53 -0.793,-1.828 -0.793,-2.093 0,0.521 0.267,1.307 -0.259,1.307 C 3.951,5.494 3.175,4.708 2.899,3.666 2.631,2.614 3.951,4.196 3.951,3.4 3.175,2.614 3.434,2.093 3.951,0.521 5.013,0.786 5.548,1.837 7.127,2.614 7.93,2.871 8.706,3.144 9.241,2.614 9.767,2.093 8.447,1.307 6.868,1.307 8.188,1.837 7.93,2.614 7.127,2.358 6.333,2.093 5.28,1.307 4.228,0 l 1.32,-2.615 c 0.785,-0.265 1.061,0.521 2.899,0 0.794,-0.265 1.061,-0.265 1.061,-0.786 0.259,-1.307 -0.267,-2.35 -0.526,-3.4 -0.535,-1.052 -0.794,-2.094 -1.052,-3.401 0,-0.521 1.311,0.786 2.631,1.828 1.061,0.521 1.579,1.307 1.846,1.051 0.277,-0.265 0.277,-0.786 -0.267,-1.572 l -1.838,-3.401 c 0,1.042 1.579,3.401 0.259,2.88 -1.32,-1.043 -2.114,-2.094 -2.908,-3.145 -0.526,-0.521 -1.044,-0.256 -0.785,0.786 0.517,1.573 1.062,3.401 1.32,5.229 0.259,1.316 0.518,2.889 0,3.401 -1.061,0.53 -1.579,0 -1.855,-1.819 l 0.535,-1.052 c 0.517,-0.785 0.517,-1.572 0,-1.307 l -1.855,0.777 c -0.259,0.274 -0.526,0.53 -0.526,0.795 L 5.28,-3.657 3.951,-0.521 C 3.693,-0.786 3.434,-0.786 3.175,-1.042 2.899,-2.094 2.373,-3.657 2.373,-4.187 c 0,-0.256 0.526,-0.521 0.526,-0.777 0,-0.53 -1.044,-0.53 -1.32,0.256 0,0.265 -0.268,1.051 0,1.307 C 2.631,-2.359 3.175,-1.042 3.693,0 2.899,2.093 3.175,2.871 2.631,2.871 2.114,2.614 1.579,1.307 0.794,-0.521 0.794,-0.786 -0.526,-0.521 0,0" /></g><g
           transform="translate(144.3299,158.1661)"
           id="g32"><path
             id="path34"
             style="fill:#004f97;fill-opacity:1;fill-rule:nonzero;stroke:none"
             d="M 0,0 C -0.259,-0.521 -3.175,-1.563 -4.496,-2.358 -5.28,-2.094 -5.28,-1.837 -4.754,-1.042 -2.114,-0.786 -1.32,0.265 0,0" /></g><g
           transform="translate(144.3299,158.1661)"
           id="g36"><path
             id="path38"
             style="fill:none;stroke:#003e84;stroke-width:0.75;stroke-linecap:square;stroke-linejoin:miter;stroke-miterlimit:10;stroke-dasharray:none;stroke-opacity:1"
             d="M 0,0 C -0.259,-0.521 -3.175,-1.563 -4.496,-2.358 -5.28,-2.094 -5.28,-1.837 -4.754,-1.042 -2.114,-0.786 -1.32,0.265 0,0 Z" /></g><g
           transform="translate(144.8551,157.1201)"
           id="g40"><path
             id="path42"
             style="fill:#004f97;fill-opacity:1;fill-rule:nonzero;stroke:none"
             d="M 0,0 C 1.061,0 1.061,-0.521 0.803,-1.307 0,-2.358 -3.434,-2.094 -5.548,-3.144 c 1.855,1.307 3.693,1.307 5.289,2.093 C 0.268,-0.265 0,0 0,0" /></g><g
           transform="translate(144.8551,157.1201)"
           id="g44"><path
             id="path46"
             style="fill:none;stroke:#003e84;stroke-width:0.75;stroke-linecap:square;stroke-linejoin:miter;stroke-miterlimit:10;stroke-dasharray:none;stroke-opacity:1"
             d="M 0,0 C 1.061,0 1.061,-0.521 0.803,-1.307 0,-2.358 -3.434,-2.094 -5.548,-3.144 c 1.855,1.307 3.693,1.307 5.289,2.093 C 0.268,-0.265 0,0 0,0 Z" /></g><g
           transform="translate(42.103,32.0764)"
           id="g48"><path
             id="path50"
             style="fill:#009fe8;fill-opacity:1;fill-rule:evenodd;stroke:none"
             d="m 0,0 c 11.087,-16.483 28.784,-28.248 49.13,-31.649 -22.719,2.093 -42.521,13.859 -55.463,30.863 0.517,0 2.631,0.265 5.272,0.53 C -0.803,0 -0.268,0 0,0" /></g><g
           transform="translate(130.5917,70.7933)"
           id="g52"><path
             id="path54"
             style="fill:#1d2b57;fill-opacity:1;fill-rule:evenodd;stroke:none"
             d="m 0,0 2.64,-0.256 v -5.76 H -0.526 C 0,-4.187 0,-2.094 0,0" /></g><g
           transform="translate(121.879,144.0409)"
           id="g56"><path
             id="path58"
             style="fill:#009fe8;fill-opacity:1;fill-rule:evenodd;stroke:none"
             d="m 0,0 c -2.382,-10.202 -5.013,-19.618 -7.395,-28.257 9.509,-3.657 19.017,-6.281 29.052,-8.1 0.268,9.416 -0.268,18.832 -1.846,28.248 C 13.745,-4.452 7.127,-1.563 0,0 m -26.411,1.837 c -4.237,-4.196 -8.189,-8.638 -11.89,-13.612 8.456,-5.75 17.161,-10.458 26.152,-14.38 3.434,8.886 7.395,18.046 11.623,26.411 -5.548,1.307 -11.623,2.102 -17.697,2.102 -2.658,0 -5.289,-0.265 -8.188,-0.521 m -22.192,-6.033 c 2.114,-1.82 4.219,-3.392 6.332,-4.964 4.496,4.452 10.303,8.374 14.798,10.997 -7.127,-1.051 -14.798,-3.145 -21.13,-6.033 m -15.583,-36.613 c 5.539,10.723 11.881,20.669 19.017,28.513 -2.123,2.35 -3.97,4.708 -5.557,7.066 -11.088,-5.238 -20.596,-13.346 -27.732,-23.027 4.763,-4.443 9.518,-8.63 14.272,-12.552 m 27.463,-24.847 c -8.714,4.443 -16.902,9.415 -24.029,14.91 -1.597,-3.666 -3.176,-7.332 -4.496,-10.733 h -6.074 l -2.114,-1.572 c 2.114,5.76 4.219,11.519 6.868,17.278 -5.289,4.708 -9.776,9.937 -13.21,15.431 -6.074,-9.16 -10.302,-19.627 -11.89,-31.137 h -9.508 c 2.908,39.767 36.446,71.151 77.396,71.151 32.227,0 59.967,-19.618 71.59,-47.346 -6.084,11.775 -15.851,22.242 -27.214,29.3 3.175,-8.63 5.815,-18.567 6.35,-28.778 5.548,-0.777 10.829,-1.307 16.377,-1.307 -4.754,-1.564 -10.302,-2.35 -16.118,-2.606 0,-6.811 -0.526,-13.868 -1.579,-20.414 h -5.548 l -2.123,-1.828 c 1.856,7.587 2.917,14.91 3.434,22.498 -10.025,0.521 -20.595,2.88 -30.639,6.545 -2.899,-9.946 -5.815,-18.841 -8.714,-27.215 h -6.868 c 3.175,8.895 6.609,19.098 10.302,29.035 -10.302,4.452 -19.811,9.946 -26.947,16.483 -6.342,-8.887 -11.881,-18.833 -16.644,-29.035 9.25,-6.536 19.026,-12.04 29.328,-16.483 h -2.64 z" /></g><g
           transform="translate(120.5571,16.902)"
           id="g60"><path
             id="path62"
             style="fill:#004f97;fill-opacity:1;fill-rule:evenodd;stroke:none"
             d="m 0,0 c 1.579,0 2.899,-1.042 2.899,-2.615 0,-1.572 -1.32,-2.879 -2.899,-2.879 -1.579,0 -2.64,1.307 -2.64,2.879 C -2.64,-1.042 -1.579,0 0,0 M 6.868,-1.308 C 6.333,0.265 5.816,1.572 4.496,2.358 3.434,3.4 1.579,4.187 -0.259,4.187 c -1.32,0 -2.64,-0.521 -3.701,-1.316 -1.856,-1.299 -2.373,-2.606 -2.917,-3.913 -0.259,-1.838 0,-3.666 0.803,-4.709 1.578,-2.879 3.96,-3.665 5.548,-3.922 l -3.711,-5.238 h 5.298 l 3.952,6.546 c 0.267,0.512 2.381,4.178 1.855,7.057 m 31.433,4.452 h -6.074 l -2.114,-4.186 h 4.228 v -13.869 h 3.96 z m -14.789,0 h -9.508 l -1.32,-9.69 c 1.578,0.795 2.899,1.316 3.96,1.316 2.373,0 3.434,-2.093 3.175,-3.921 0,-1.829 -2.381,-3.666 -4.754,-2.359 -0.803,0.256 -1.864,1.051 -2.649,1.837 l -0.794,-3.93 c 2.123,-1.829 5.816,-2.358 8.456,-1.308 2.114,0.787 3.434,2.35 3.952,4.452 0.267,0.786 0.544,3.658 -1.32,5.751 -1.053,1.051 -2.891,2.349 -6.334,2.093 l 0.268,1.829 h 6.868 z m -38.836,0 h -6.333 l -2.114,-4.186 h 4.219 v -13.869 h 4.228 z" /></g><g
           transform="translate(21.4913,146.9189)"
           id="g64"><path
             id="path66"
             style="fill:#004f97;fill-opacity:1;fill-rule:evenodd;stroke:none"
             d="m 0,0 c -0.259,-0.521 -0.794,1.307 -1.053,2.093 0,0.778 0.527,1.564 0.527,2.35 0,0.786 -0.268,1.051 -0.268,1.307 0,0.265 0.535,-0.256 0.794,0 L 0,4.964 C 0.526,4.187 1.061,3.144 1.579,2.358 1.855,1.837 2.123,1.042 2.382,0.512 l 3.175,-2.871 c 0.776,2.094 1.579,3.145 3.157,2.615 0.536,-0.521 0.277,-1.307 -1.052,-2.35 0,1.573 -1.329,0.786 -1.846,-0.521 2.122,-2.093 4.754,-3.931 7.653,-6.015 0,-0.274 0.276,0 0.535,-0.274 l 0.526,-1.307 h -1.061 c -1.579,1.581 -3.434,2.102 -4.755,2.888 1.321,-0.265 2.382,-0.786 2.659,-0.786 l -5.816,4.964 c -0.277,-0.256 0,-0.777 0,-1.051 C 5.28,-3.922 5.022,-3.401 5.28,-2.88 3.702,-1.308 2.123,0.256 1.061,2.093 L 0.526,3.657 -0.259,4.187 C -0.526,3.657 0,2.614 0,2.093 V 0.256 Z m 3.443,-9.937 c 0.259,0.512 1.053,0.256 1.311,-0.274 0.268,-0.512 0.803,-2.871 0.268,-3.127 -0.785,0 -2.382,2.084 -1.579,3.401 m -2.64,3.921 c 0.517,0.522 0.517,0.786 0.517,1.308 0,0.256 1.062,0.256 1.062,0 0.793,-1.308 1.578,-2.615 1.855,-3.401 0.517,-0.795 1.043,-0.795 1.579,-1.316 0.258,-0.256 -0.536,-0.786 -0.259,-1.043 0.776,-0.786 1.052,-1.828 0.517,-3.144 0,-0.521 -0.258,-1.042 -0.794,-1.563 -0.526,-0.522 -2.381,1.563 -2.898,3.4 0,0.786 -0.259,1.564 0,2.35 0.517,0.795 1.32,0.265 1.578,1.051 -0.517,1.051 -1.32,3.144 -2.105,2.88 L 1.32,-6.281 c 0,-0.265 -0.259,-0.786 -0.259,-1.042 0,-0.53 0.518,-0.53 0.259,-1.581 C 1.061,-9.425 1.061,-9.937 0.803,-9.681 0.268,-9.16 0.268,-8.904 0,-7.853 c 0,0.265 0.268,0.786 0.268,1.307 0,0.265 -0.268,0.53 -0.268,0.786 -0.259,1.052 -0.526,2.094 -0.526,2.615 0,0.53 0.794,0 0.526,-0.256 0.268,-0.795 0.268,-2.093 0.803,-2.615" /></g><g
           transform="translate(4.8543,113.9575)"
           id="g68"><path
             id="path70"
             style="fill:#004f97;fill-opacity:1;fill-rule:evenodd;stroke:none"
             d="M 0,0 -0.259,2.093 0.794,1.563 1.32,-0.521 Z M 0,3.666 C 0,3.4 0,3.144 -0.259,3.144 v 0.522 c -0.267,0.255 0,0.255 0.259,0 M 2.373,9.416 4.754,9.937 5.013,8.109 C 3.951,8.373 3.175,8.895 2.373,9.416 m -6.075,-9.16 c -1.052,0.265 -0.535,1.581 0.527,1.307 L -2.64,1.042 C -2.382,0.786 -1.579,0.786 -0.803,0.256 L -1.061,2.614 -4.237,3.921 C -5.816,4.452 -3.96,5.75 -3.175,5.494 -2.64,4.708 -1.855,4.452 -1.061,4.187 -0.803,4.964 -0.526,5.494 0,5.229 L 0.794,2.358 3.175,1.563 2.631,4.452 c 0,0.777 0.544,1.298 0.803,1.042 0,-0.786 0.259,-1.042 0.259,-1.573 0.258,-2.358 1.32,-4.442 2.381,-6.801 0.535,1.572 -0.526,2.624 0,3.666 0.259,0.777 0.535,0 0.535,0 L 6.868,-0.521 C 7.127,-0.786 7.662,-0.256 7.394,0.256 7.127,0.521 6.868,1.042 7.662,1.042 8.447,0.786 7.127,-1.308 7.93,-1.838 l 2.105,-0.777 C 9.508,-1.563 9.25,-0.521 9.25,0.521 8.447,0.786 7.93,1.042 7.93,1.563 6.609,2.614 5.816,4.708 5.28,7.066 l -7.403,2.871 c -1.311,0.53 -0.776,1.572 0.544,1.316 l 1.32,-0.53 2.114,-1.042 c 1.044,0 2.096,0 2.641,0.521 l 0.258,0.521 c 0.259,0.256 0.526,0 0.259,-0.521 L 6.074,7.578 19.275,2.871 C 19.811,2.358 20.596,2.093 21.131,1.307 20.872,1.042 20.596,0.786 20.078,0.786 c -0.267,0 -0.535,0.256 -1.061,0 l -2.899,-0.53 2.64,1.051 c 0.517,0.256 0.517,0.53 0,0.786 L 11.622,4.964 6.333,6.545 c 0,-0.53 0.276,-1.837 0.794,-2.624 1.32,-1.307 0.803,-1.828 1.32,-2.358 0.544,-0.256 0.544,1.308 1.32,0.53 0,-0.786 0.268,-1.051 0,-2.093 0.268,-0.786 0.803,-1.563 1.061,-2.359 0.536,-1.563 1.321,-1.563 1.588,-2.349 l 0.526,-0.522 c 0,-0.264 0,-0.786 0.259,-1.316 0,-0.521 0.259,-1.042 0.803,-1.563 l 0.517,-1.307 c 0.268,-0.265 -0.776,-0.786 -1.32,-0.265 l -2.899,6.536 -2.114,0.53 c 0,-1.572 1.847,-3.931 1.32,-4.186 C 8.706,-7.067 8.706,-5.494 8.188,-5.23 7.93,-5.494 7.93,-6.016 7.662,-6.016 6.868,-5.751 6.609,-4.964 6.609,-3.922 5.548,-2.359 5.013,-0.521 4.228,-0.256 5.013,-7.067 6.609,-12.296 8.991,-17.004 9.25,-17.525 8.188,-18.055 8.188,-17.79 6.074,-12.296 4.496,-7.588 3.951,-2.359 3.693,-1.308 3.434,-0.256 3.175,0.521 2.899,0.786 2.899,0.256 2.631,0.256 c -0.258,0 0,0.53 0,0.786 L 1.052,1.563 1.579,-0.521 c 1.32,-0.521 1.855,-1.042 1.855,-1.573 -0.259,-0.265 -0.803,-0.265 -1.32,0.256 0.517,-1.307 1.32,-3.656 2.114,-6.015 -1.053,2.102 -1.855,4.187 -2.649,6.015 l -1.32,0.53 c 0.535,-1.837 0.793,-3.144 1.596,-4.708 0,-0.256 0.518,-0.53 0.259,-0.785 -0.535,-0.522 -1.062,-0.266 -1.062,0.785 l -1.578,5.23 -2.649,1.042 z" /></g><g
           transform="translate(15.6855,114.4813)"
           id="g72"><path
             id="path74"
             style="fill:#004f97;fill-opacity:1;fill-rule:evenodd;stroke:none"
             d="M 0,0 C -0.259,0.256 -0.526,1.042 -0.259,1.837 0,2.358 1.32,2.093 1.052,1.307 0.794,0.512 0.526,1.042 0,0" /></g><g
           transform="translate(79.0804,176.4791)"
           id="g76"><path
             id="path78"
             style="fill:#004f97;fill-opacity:1;fill-rule:nonzero;stroke:none"
             d="m 0,0 c 0,0.521 0.803,0.256 0.526,-0.256 0,-0.265 0,-0.265 -0.267,-0.795 -0.259,-2.615 0,-7.058 0.267,-9.417 0,-0.786 0.535,-1.563 0.794,-2.093 0,-0.256 0.259,-0.256 0,0.786 0.259,-0.521 0.535,-1.042 0.535,-1.307 0,-0.53 0,-1.042 0.527,-1.829 0.258,-0.264 -0.527,-0.786 -0.803,-0.521 -1.053,1.564 -1.838,5.751 -1.579,9.938 z" /></g><g
           transform="translate(83.5716,175.4315)"
           id="g80"><path
             id="path82"
             style="fill:#004f97;fill-opacity:1;fill-rule:evenodd;stroke:none"
             d="M 0,0 C 0.803,1.307 1.32,2.358 1.855,3.4 L 1.32,3.666 c 0.535,0.255 0.535,0.521 0.803,0.786 0.517,0.777 2.114,1.051 1.579,0 C 3.702,3.666 3.175,3.666 2.382,3.666 1.855,2.614 0.259,0.265 1.061,1.051 L 3.434,3.4 c 0,0.266 0.526,0.521 0.803,0.521 C 3.96,3.921 3.702,3.666 3.434,3.4 L 0.259,-0.521 c 0,-0.265 -0.518,-0.265 -0.518,-0.265 -0.267,0.265 0,0.53 0.259,0.786" /></g><g
           transform="translate(87.8003,173.8606)"
           id="g84"><path
             id="path86"
             style="fill:#004f97;fill-opacity:1;fill-rule:evenodd;stroke:none"
             d="m 0,0 c 0,-0.256 -0.259,-0.786 -1.061,-1.563 -0.794,-0.531 -2.373,-2.094 -2.632,-1.838 0,0.256 0.259,0.786 0.518,1.307 0.276,0.531 0.535,0.531 1.061,0.786 C -1.579,-0.521 -1.32,-0.256 0,0 M 1.855,6.015 C 2.114,6.28 2.373,6.28 2.64,6.28 3.434,6.015 3.175,4.973 2.64,3.144 3.434,3.4 4.496,3.666 5.816,3.921 6.609,2.871 7.93,3.666 7.662,2.871 6.868,2.614 6.609,1.563 5.28,1.563 5.816,2.358 5.013,2.093 3.693,1.837 3.175,1.563 2.373,1.307 1.855,0.786 1.061,0.521 1.061,-0.256 0.526,-0.786 0.259,-1.308 -0.259,-1.838 -0.803,-2.359 c -1.052,-1.298 -2.631,-2.084 -3.951,-2.605 -0.527,0 -0.259,0.521 -0.527,0.777 -0.276,0.265 -0.276,0.265 -0.276,0.53 -0.259,0.777 0.544,1.298 0.803,2.349 2.114,2.871 4.754,3.145 6.609,4.179 0.518,1.316 1.044,2.888 0,3.144" /></g><g
           transform="translate(86.4785,170.2014)"
           id="g88"><path
             id="path90"
             style="fill:#004f97;fill-opacity:1;fill-rule:evenodd;stroke:none"
             d="m 0,0 c -0.259,0.512 1.32,0.256 1.32,-0.265 0,-1.043 -0.259,-1.573 0.259,-2.88 0.276,0.265 0.535,0.786 0.803,1.051 0,-0.521 -0.803,-1.572 -0.803,-1.828 0,-0.786 -0.518,-1.572 -0.776,-1.051 z" /></g><g
           transform="translate(91.2336,170.4625)"
           id="g92"><path
             id="path94"
             style="fill:#004f97;fill-opacity:1;fill-rule:evenodd;stroke:none"
             d="M 0,0 C -0.259,1.042 1.061,2.871 1.061,2.093 1.855,-4.964 1.061,-8.895 0,-10.98 0.526,-9.16 0.803,-4.187 0,0" /></g><g
           transform="translate(115.8028,169.9371)"
           id="g96"><path
             id="path98"
             style="fill:#004f97;fill-opacity:1;fill-rule:evenodd;stroke:none"
             d="M 0,0 C 0.259,0.265 0.794,0 1.061,0 1.061,-0.256 1.32,-0.786 0.794,-0.786 0,-0.786 -0.259,-0.256 0,0" /></g><g
           transform="translate(115.0055,168.1078)"
           id="g100"><path
             id="path102"
             style="fill:#004f97;fill-opacity:1;fill-rule:evenodd;stroke:none"
             d="M 0,0 C 0.526,0.786 2.123,-0.521 1.32,-0.786 0.526,-1.042 0,-1.042 -0.526,-1.563 c 0.267,0.521 0.526,0.777 0.794,1.307 0,0 -0.527,0 -0.268,0.256" /></g><g
           transform="translate(116.3274,179.6182)"
           id="g104"><path
             id="path106"
             style="fill:#004f97;fill-opacity:1;fill-rule:evenodd;stroke:none"
             d="m 0,0 c 0.259,0 0.259,-0.786 0,-1.042 -0.259,0 -0.794,0 -1.579,-0.266 -0.535,-0.255 -1.596,-0.53 -2.658,-0.786 0.544,-1.307 -0.259,-2.879 0.285,-3.136 0.518,0 1.053,1.034 1.838,1.829 0.259,0.256 0.794,0.786 1.061,0.521 0.794,0 0.259,-1.572 1.053,-1.572 2.123,2.093 5.557,3.666 7.662,3.666 1.588,0 2.105,-1.052 1.846,-2.359 -0.258,-0.777 -0.794,-1.051 -1.846,-1.051 -0.526,0 -0.785,-0.512 -2.908,0 0,-0.256 -0.258,-0.256 -0.517,-0.512 -0.277,0.256 -1.062,0 -2.114,-0.522 0.517,0.522 1.311,1.034 1.579,1.564 0.258,0.521 0,1.051 0.535,1.051 0.517,0.256 0.776,-0.265 0.517,-1.307 h 1.32 c 1.062,-0.274 2.114,0 2.64,0.777 0.536,0.53 0.277,1.582 -0.784,1.837 C 6.074,-0.786 3.96,-2.094 1.32,-3.922 0.803,-4.196 0.259,-4.708 -0.526,-5.23 c -0.527,-0.264 -1.053,0.257 -1.053,1.034 v 0.274 c -0.535,0.256 -1.061,-0.786 -1.596,-1.572 -0.777,-0.778 -1.321,-1.573 -1.838,-1.573 -0.535,0.266 0,1.837 0,3.145 0.259,0.777 0.517,1.307 0,1.307 -0.268,0.256 -0.268,0.777 0,0.777 1.061,0 1.579,0 3.434,1.052 C -1.32,-0.521 -0.526,-0.521 0,0" /></g><g
           transform="translate(113.9547,171.7707)"
           id="g108"><path
             id="path110"
             style="fill:#004f97;fill-opacity:1;fill-rule:evenodd;stroke:none"
             d="M 0,0 C 0.526,0.512 1.32,0.256 0.526,-0.265 0,-0.521 0.259,-1.051 0,-1.838 c 0,0 0.259,0 0.526,0.275 C 2.114,0 3.951,1.042 5.548,1.307 6.868,1.307 7.93,0.256 7.385,-1.308 6.868,-2.094 6.609,-3.666 6.333,-4.452 5.807,-6.016 5.807,-6.546 5.548,-7.588 5.28,-7.853 3.693,-9.416 3.434,-8.63 c 0,0.256 -0.259,0.777 -0.259,1.042 -0.276,0 -0.276,1.042 -0.276,1.572 0.535,-1.837 1.052,-2.358 1.597,-1.572 0.258,1.316 0.784,2.358 1.311,3.666 0.267,1.042 0.802,2.084 1.061,3.136 0,1.042 -0.794,1.572 -1.588,1.572 -1.846,0 -3.96,-1.837 -5.548,-3.931 l -0.793,-3.656 c 0,-0.266 -0.518,-0.266 -0.794,-0.266 0,0 -0.527,0.795 -0.268,1.051 C -1.061,-4.708 -1.32,-2.359 0,0" /></g><g
           transform="translate(113.6836,165.7531)"
           id="g112"><path
             id="path114"
             style="fill:#004f97;fill-opacity:1;fill-rule:evenodd;stroke:none"
             d="m 0,0 c 1.061,0.521 1.855,0.521 2.64,0.256 0.544,0 1.062,-0.777 0.259,-1.298 -0.259,0 -0.517,-0.266 -0.776,-0.521 -0.268,-0.275 -0.535,-0.275 -1.062,-1.052 2.123,-0.265 3.176,-0.786 3.435,-1.307 0.267,-0.53 0.267,-0.786 0,-1.042 0,0 -0.259,-0.53 -0.794,-0.266 -1.062,0 0.258,1.829 -2.641,2.615 C 0.526,-2.88 0,-3.666 -0.526,-4.187 h -1.053 c -0.535,0.265 -1.052,0.521 -0.276,0.521 1.061,0.521 1.855,1.051 2.381,1.572 0.535,0.531 1.597,1.052 1.329,1.573 C 1.32,0 0.803,-0.786 0.268,-0.786 0,-0.521 -0.526,-0.256 0,0" /></g><g
           transform="translate(144.3299,158.1661)"
           id="g116"><path
             id="path118"
             style="fill:#004f97;fill-opacity:1;fill-rule:evenodd;stroke:none"
             d="m 0,0 c -0.259,-0.521 -3.175,-1.563 -4.496,-2.359 -0.785,0.265 -0.785,0.521 -0.258,1.317 C -2.114,-0.786 -1.32,0.265 0,0" /></g><g
           transform="translate(144.8551,157.1201)"
           id="g120"><path
             id="path122"
             style="fill:#004f97;fill-opacity:1;fill-rule:evenodd;stroke:none"
             d="M 0,0 C 1.061,0 1.061,-0.521 0.803,-1.308 0,-2.359 -3.434,-2.094 -5.548,-3.145 c 1.855,1.307 3.693,1.307 5.289,2.094 C 0.268,-0.265 0,0 0,0" /></g><g
           transform="translate(148.2965,167.0628)"
           id="g124"><path
             id="path126"
             style="fill:#004f97;fill-opacity:1;fill-rule:evenodd;stroke:none"
             d="m 0,0 c 0.794,0 1.311,0.512 1.855,0.512 1.32,0.53 2.373,0.53 2.641,0.274 0,-0.274 -1.865,-1.837 -2.641,-2.349 H 1.579 c 0,0.255 0.276,0.255 0.276,0.512 -0.544,0.53 -0.803,0.786 -1.061,0.53 -0.794,-0.53 0.517,-0.787 -1.32,-1.573 0.526,0 0.785,0 1.32,0.256 0,0 0.258,-0.256 0,-0.256 C 0.526,-2.615 0,-2.88 -0.268,-3.401 c -0.535,0 -1.052,0 -1.311,0.256 C -1.32,-2.094 -0.803,-1.051 0,0 M 0.794,2.093 C 1.855,2.358 1.311,1.307 1.311,1.042 1.855,0.786 3.951,2.093 5.807,2.093 6.333,1.837 6.074,1.042 5.807,0.512 4.496,0 3.434,-1.563 2.373,-2.094 1.311,-2.615 0.794,-2.88 0.526,-3.401 1.052,-4.196 1.855,-3.666 2.373,-4.452 0.526,-6.546 -3.96,-6.016 -4.496,-7.067 c 0.259,-0.256 0.794,-0.256 1.053,-0.256 3.175,0.256 5.298,-1.307 5.557,-2.102 0.259,-1.298 -2.382,-3.392 -5.289,-4.443 -0.527,0 -1.062,0 -1.847,-0.265 -1.596,-0.521 -2.908,-0.787 -4.228,-1.042 -0.526,0 -0.794,0.255 -0.794,1.563 0.268,0.795 0,1.051 0,1.316 l 0.536,1.307 c -0.268,-1.307 0,-1.828 0.793,-1.828 -0.276,-0.521 -0.276,-0.795 0.518,-1.051 3.701,0 7.929,1.572 9.249,3.922 0.803,1.572 -4.754,2.879 -8.188,2.358 -0.794,0 -1.061,0.265 -0.259,1.042 0.518,0 1.062,0 1.579,0.274 2.114,0.778 5.013,1.042 5.013,1.82 -0.517,0.256 -3.157,0 -6.333,-0.521 -1.061,-0.257 -0.259,1.051 0.518,1.051 1.337,0 2.381,0.256 3.71,0.521 0.785,2.615 3.167,5.494 3.702,5.494" /></g><g
           transform="translate(190.8237,118.6654)"
           id="g128"><path
             id="path130"
             style="fill:#004f97;fill-opacity:1;fill-rule:evenodd;stroke:none"
             d="m 0,0 c 1.579,0.521 1.061,-0.786 0.526,-1.042 l -3.425,-1.317 c -0.535,-0.256 -0.535,0.796 -0.276,1.051 z" /></g><g
           transform="translate(191.6122,115.0014)"
           id="g132"><path
             id="path134"
             style="fill:#004f97;fill-opacity:1;fill-rule:evenodd;stroke:none"
             d="M 0,0 C 0.803,-0.786 1.32,-0.256 2.382,-0.786 1.855,-1.042 1.579,-0.521 1.32,-0.786 0.803,-1.042 1.579,-1.308 0.526,-1.563 0,-1.042 -1.053,-1.308 -1.579,-0.521 Z m 7.136,-0.786 c 0.526,0.265 0.258,-0.777 0,-0.777 -0.259,0 -0.527,0.255 -0.803,0.521 z M 3.443,2.358 C 4.237,2.614 3.702,1.563 2.899,1.307 c 0,0 -2.096,-0.786 -1.838,-1.042 0.259,-0.521 0.518,0 1.321,-0.265 0.793,-0.256 1.855,-0.786 2.64,-0.786 0.794,0 1.855,0.53 2.64,0.786 C 8.714,0 8.456,-1.042 7.93,-1.563 7.136,-3.145 6.333,-1.042 5.28,-1.308 4.496,-1.563 3.702,-1.563 2.899,-1.563 c -1.044,0 0.276,-2.094 -1.579,-1.317 -1.32,0.521 -2.373,1.838 -3.434,1.838 -0.259,0.256 -0.785,-0.266 -1.061,0 -0.259,0.256 -0.518,0.786 -0.259,0.786 0.803,0.521 3.175,1.307 5.013,2.093 1.061,0.256 1.864,0.521 1.864,0.521" /></g><g
           transform="translate(177.0857,112.1271)"
           id="g136"><path
             id="path138"
             style="fill:#004f97;fill-opacity:1;fill-rule:evenodd;stroke:none"
             d="m 0,0 c 1.855,-0.786 4.237,-2.615 4.237,-3.145 0,-0.256 -3.711,-1.307 -4.496,-0.256 C -0.794,-2.359 -0.526,0.512 0,0 M 1.32,7.852 C 2.899,7.066 5.28,6.271 6.333,5.494 H 5.816 c 1.32,-1.051 2.631,-1.837 3.692,-2.88 5.557,-4.177 7.395,-7.844 6.877,-8.374 -0.544,-0.786 -3.175,1.838 -5.815,4.452 -1.32,-0.255 -2.382,0 -3.434,0.522 C 6.868,-1.838 6.333,-2.359 5.816,-2.88 6.868,-4.196 7.136,-4.973 6.333,-5.23 6.074,-5.494 5.816,-4.196 5.013,-3.401 2.899,-4.452 1.061,-4.452 -0.794,-3.922 -1.32,-3.145 -1.061,1.307 -0.526,1.563 -0.259,1.837 0.803,1.307 2.382,0 3.175,-0.786 5.013,-2.615 5.28,-2.359 6.609,-1.051 5.816,-0.521 6.333,-0.265 7.394,0.256 8.188,-1.051 9.25,-0.521 9.508,-0.265 8.991,0.256 7.93,0.786 6.868,1.307 7.136,1.837 7.394,1.837 8.714,1.307 10.035,0.512 10.57,-1.308 13.745,-4.196 16.385,-5.494 15.324,-3.922 11.89,0.786 6.074,4.708 1.579,6.801 0.803,7.066 0.526,6.271 0.259,7.322 0,7.852 0.526,8.364 1.32,7.852" /></g><g
           transform="translate(175.2384,143.7814)"
           id="g140"><path
             id="path142"
             style="fill:#004f97;fill-opacity:1;fill-rule:evenodd;stroke:none"
             d="m 0,0 c 0.526,0.256 0.794,0 1.579,-0.265 0,-0.521 0,-0.786 -0.259,-1.043 -0.794,0.257 -1.846,0 -2.899,-0.53 0.518,-0.521 1.32,-0.777 2.105,-0.777 C 1.32,-3.666 1.061,-3.922 0,-3.922 c -0.526,0.777 -1.32,1.563 -2.382,1.828 -1.855,-0.521 -3.434,-0.786 -5.28,-0.786 -0.526,0 -0.794,-0.265 -0.526,-0.521 0.258,-0.265 1.052,-0.521 1.311,-0.795 0.803,-1.034 1.596,-2.085 2.123,-3.657 0.794,-1.307 0.258,-2.615 -0.803,-2.358 -0.776,0.274 -0.259,1.051 -2.105,2.102 0.526,0.521 2.105,-1.316 1.588,1.828 -0.536,1.051 -1.062,2.085 -1.856,2.615 -0.258,0 -0.785,0.521 -0.785,0.521 -0.276,0.265 -0.535,0.265 -0.793,0.265 h -0.803 c -0.518,-0.265 -1.579,0.265 -2.373,0 -1.32,0 -2.899,0.265 -3.702,0.521 -1.052,0.265 -1.578,1.308 -0.784,1.308 4.754,-0.787 8.982,-0.787 13.21,-0.257 -0.794,0.522 -1.597,0.787 -2.65,0.787 -0.526,0.256 0,1.563 0.277,1.033 0.776,-0.777 1.052,-0.512 1.579,-0.777 0.517,-0.521 0.794,-0.786 1.32,-1.043 C -2.114,-1.051 -1.061,-0.521 0,0" /></g></g></g></g></svg>