<svg height="316.227766" viewBox="0 0 252 252" width="316.227766" xmlns="http://www.w3.org/2000/svg" xmlns:xlink="http://www.w3.org/1999/xlink"><clipPath id="a"><path d="m30 63h14v13h-14zm0 0"/></clipPath><clipPath id="b"><path d="m-1986.191406-1536.707031v2740.421875h4871.839844"/></clipPath><clipPath id="c"><path d="m23 72h15v13h-15zm0 0"/></clipPath><clipPath id="d"><path d="m-1986.191406-1536.707031v2740.421875h4871.839844"/></clipPath><clipPath id="e"><path d="m21 82h12v7h-12zm0 0"/></clipPath><clipPath id="f"><path d="m291.375 2657.914062 1946.917969-1928.152343-3427.789063-3461.1875"/></clipPath><clipPath id="g"><path d="m19 89h13v11h-13zm0 0"/></clipPath><clipPath id="h"><path d="m-1986.191406-1536.707031v2740.421875h4871.839844"/></clipPath><clipPath id="i"><path d="m15 97h14v11h-14zm0 0"/></clipPath><clipPath id="j"><path d="m-1986.191406-1536.707031v2740.421875h4871.839844"/></clipPath><clipPath id="k"><path d="m13 107h13v11h-13zm0 0"/></clipPath><clipPath id="l"><path d="m-1986.191406-1536.707031v2740.421875h4871.839844"/></clipPath><clipPath id="m"><path d="m13 118h12v10h-12zm0 0"/></clipPath><clipPath id="n"><path d="m-1986.191406-1536.707031v2740.421875h4871.839844"/></clipPath><clipPath id="o"><path d="m13 129h12v4h-12zm0 0"/></clipPath><clipPath id="p"><path d="m-2096.976562-1393.566406 190.042968 2733.8125 4860.148438-337.925782"/></clipPath><clipPath id="q"><path d="m14 132h12v10h-12zm0 0"/></clipPath><clipPath id="r"><path d="m-1986.191406-1536.707031v2740.421875h4871.839844"/></clipPath><clipPath id="s"><path d="m15 141h13v11h-13zm0 0"/></clipPath><clipPath id="t"><path d="m-1986.191406-1536.707031v2740.421875h4871.839844"/></clipPath><clipPath id="u"><path d="m21 161h12v11h-12zm0 0"/></clipPath><clipPath id="v"><path d="m-1986.191406-1536.707031v2740.421875h4871.839844"/></clipPath><clipPath id="w"><path d="m24 170h14v10h-14zm0 0"/></clipPath><clipPath id="x"><path d="m-1986.191406-1536.707031v2740.421875h4871.839844"/></clipPath><clipPath id="y"><path d="m35 186h12v12h-12zm0 0"/></clipPath><clipPath id="z"><path d="m-1986.191406-1536.707031v2740.421875h4871.839844"/></clipPath><clipPath id="A"><path d="m42 194h12v12h-12zm0 0"/></clipPath><clipPath id="B"><path d="m-1986.191406-1536.707031v2740.421875h4871.839844"/></clipPath><clipPath id="C"><path d="m49 200h10v11h-10zm0 0"/></clipPath><clipPath id="D"><path d="m-1986.191406-1536.707031v2740.421875h4871.839844"/></clipPath><clipPath id="E"><path d="m52 203h14v15h-14zm0 0"/></clipPath><clipPath id="F"><path d="m-1986.191406-1536.707031v2740.421875h4871.839844"/></clipPath><clipPath id="G"><path d="m61 209h14v15h-14zm0 0"/></clipPath><clipPath id="H"><path d="m-1986.191406-1536.707031v2740.421875h4871.839844"/></clipPath><clipPath id="I"><path d="m72 216h11v12h-11zm0 0"/></clipPath><clipPath id="J"><path d="m-1986.191406-1536.707031v2740.421875h4871.839844"/></clipPath><clipPath id="K"><path d="m81 219h12v14h-12zm0 0"/></clipPath><clipPath id="L"><path d="m-1986.191406-1536.707031v2740.421875h4871.839844"/></clipPath><clipPath id="M"><path d="m106 224h7v15h-7zm0 0"/></clipPath><clipPath id="N"><path d="m-1986.191406-1536.707031v2740.421875h4871.839844"/></clipPath><clipPath id="O"><path d="m115 225h10v15h-10zm0 0"/></clipPath><clipPath id="P"><path d="m-1986.191406-1536.707031v2740.421875h4871.839844"/></clipPath><clipPath id="Q"><path d="m125 226h10v14h-10zm0 0"/></clipPath><clipPath id="R"><path d="m-1986.191406-1536.707031v2740.421875h4871.839844"/></clipPath><clipPath id="S"><path d="m135 225h11v15h-11zm0 0"/></clipPath><clipPath id="T"><path d="m-1986.191406-1536.707031v2740.421875h4871.839844"/></clipPath><clipPath id="U"><path d="m156 222h11v14h-11zm0 0"/></clipPath><clipPath id="V"><path d="m-1986.191406-1536.707031v2740.421875h4871.839844"/></clipPath><clipPath id="W"><path d="m163 217h13v15h-13zm0 0"/></clipPath><clipPath id="X"><path d="m-1986.191406-1536.707031v2740.421875h4871.839844"/></clipPath><clipPath id="Y"><path d="m173 213h12v14h-12zm0 0"/></clipPath><clipPath id="Z"><path d="m-1986.191406-1536.707031v2740.421875h4871.839844"/></clipPath><clipPath id="aa"><path d="m185 204h12v13h-12zm0 0"/></clipPath><clipPath id="ab"><path d="m-1986.191406-1536.707031v2740.421875h4871.839844"/></clipPath><clipPath id="ac"><path d="m192 198h14v14h-14zm0 0"/></clipPath><clipPath id="ad"><path d="m-1986.191406-1536.707031v2740.421875h4871.839844"/></clipPath><clipPath id="ae"><path d="m201 191h11v12h-11zm0 0"/></clipPath><clipPath id="af"><path d="m-1986.191406-1536.707031v2740.421875h4871.839844"/></clipPath><clipPath id="ag"><path d="m206 182h14v14h-14zm0 0"/></clipPath><clipPath id="ah"><path d="m-1986.191406-1536.707031v2740.421875h4871.839844"/></clipPath><clipPath id="ai"><path d="m212 173h14v14h-14zm0 0"/></clipPath><clipPath id="aj"><path d="m-1986.191406-1536.707031v2740.421875h4871.839844"/></clipPath><clipPath id="ak"><path d="m218 164h12v12h-12zm0 0"/></clipPath><clipPath id="al"><path d="m-1986.191406-1536.707031v2740.421875h4871.839844"/></clipPath><clipPath id="am"><path d="m221 157h14v9h-14zm0 0"/></clipPath><clipPath id="an"><path d="m-1986.191406-1536.707031v2740.421875h4871.839844"/></clipPath><clipPath id="ao"><path d="m224 145h13v11h-13zm0 0"/></clipPath><clipPath id="ap"><path d="m-1986.191406-1536.707031v2740.421875h4871.839844"/></clipPath><clipPath id="aq"><path d="m226 133h13v12h-13zm0 0"/></clipPath><clipPath id="ar"><path d="m-1986.191406-1536.707031v2740.421875h4871.839844"/></clipPath><clipPath id="as"><path d="m227 123h12v11h-12zm0 0"/></clipPath><clipPath id="at"><path d="m-1986.191406-1536.707031v2740.421875h4871.839844"/></clipPath><clipPath id="au"><path d="m226 108h13v11h-13zm0 0"/></clipPath><clipPath id="av"><path d="m-1986.191406-1536.707031v2740.421875h4871.839844"/></clipPath><clipPath id="aw"><path d="m224 98h13v11h-13zm0 0"/></clipPath><clipPath id="ax"><path d="m-1986.191406-1536.707031v2740.421875h4871.839844"/></clipPath><clipPath id="ay"><path d="m223 94h12v6h-12zm0 0"/></clipPath><clipPath id="az"><path d="m-1986.191406-1536.707031v2740.421875h4871.839844"/></clipPath><clipPath id="aA"><path d="m220 87h13v8h-13zm0 0"/></clipPath><clipPath id="aB"><path d="m-1986.191406-1536.707031v2740.421875h4871.839844"/></clipPath><clipPath id="aC"><path d="m219 82h12v8h-12zm0 0"/></clipPath><clipPath id="aD"><path d="m-2486.246094 500.371094 1936.554688 1938.976562 3447.046875-3442.796875"/></clipPath><clipPath id="aE"><path d="m215 73h14v13h-14zm0 0"/></clipPath><clipPath id="aF"><path d="m-1986.191406-1536.707031v2740.421875h4871.839844"/></clipPath><clipPath id="aG"><path d="m210 63h13v13h-13zm0 0"/></clipPath><clipPath id="aH"><path d="m-1986.191406-1536.707031v2740.421875h4871.839844"/></clipPath><clipPath id="aI"><path d="m96 228h5v4h-5zm0 0"/></clipPath><clipPath id="aJ"><path d="m-1986.191406-1536.707031v2740.421875h4871.839844"/></clipPath><clipPath id="aK"><path d="m149 228h4v4h-4zm0 0"/></clipPath><clipPath id="aL"><path d="m-1986.191406-1536.707031v2740.421875h4871.839844"/></clipPath><clipPath id="aM"><path d="m47 35h22v22h-22zm0 0"/></clipPath><clipPath id="aN"><path d="m-1986.191406-1536.707031v2740.421875h4871.839844"/></clipPath><clipPath id="aO"><path d="m72 18h18v22h-18zm0 0"/></clipPath><clipPath id="aP"><path d="m-1986.191406-1536.707031v2740.421875h4871.839844"/></clipPath><clipPath id="aQ"><path d="m109 9h9v24h-9zm0 0"/></clipPath><clipPath id="aR"><path d="m-1986.191406-1536.707031v2740.421875h4871.839844"/></clipPath><clipPath id="aS"><path d="m99 12h11v17h-11zm0 0"/></clipPath><clipPath id="aT"><path d="m-1986.191406-1536.707031v2740.421875h4871.839844"/></clipPath><clipPath id="aU"><path d="m132 11h12v19h-12zm0 0"/></clipPath><clipPath id="aV"><path d="m-1986.191406-1536.707031v2740.421875h4871.839844"/></clipPath><clipPath id="aW"><path d="m138 11h14v23h-14zm0 0"/></clipPath><clipPath id="aX"><path d="m-1986.191406-1536.707031v2740.421875h4871.839844"/></clipPath><clipPath id="aY"><path d="m165 21h14v20h-14zm0 0"/></clipPath><clipPath id="aZ"><path d="m-1986.191406-1536.707031v2740.421875h4871.839844"/></clipPath><clipPath id="a0"><path d="m187 37h22v19h-22zm0 0"/></clipPath><clipPath id="a1"><path d="m-1986.191406-1536.707031v2740.421875h4871.839844"/></clipPath><clipPath id="a2"><path d="m78 115h22v36h-22zm0 0"/></clipPath><clipPath id="a3"><path d="m-1986.191406-1536.707031v2740.421875h4871.839844"/></clipPath><clipPath id="a4"><path d="m104 130h15v21h-15zm0 0"/></clipPath><clipPath id="a5"><path d="m-1986.191406-1536.707031v2740.421875h4871.839844"/></clipPath><clipPath id="a6"><path d="m99 114h25v37h-25zm0 0"/></clipPath><clipPath id="a7"><path d="m-1986.191406-1536.707031v2740.421875h4871.839844"/></clipPath><clipPath id="a8"><path d="m147 120h15v31h-15zm0 0"/></clipPath><clipPath id="a9"><path d="m-1986.191406-1536.707031v2740.421875h4871.839844"/></clipPath><clipPath id="ba"><path d="m165 127h7v23h-7zm0 0"/></clipPath><clipPath id="bb"><path d="m-1986.191406-1536.707031v2740.421875h4871.839844"/></clipPath><clipPath id="bc"><path d="m148 116h12v3h-12zm0 0"/></clipPath><clipPath id="bd"><path d="m-1986.191406-1536.707031v2740.421875h4871.839844"/></clipPath><clipPath id="be"><path d="m161 115h11v36h-11zm0 0"/></clipPath><clipPath id="bf"><path d="m-1986.191406-1536.707031v2740.421875h4871.839844"/></clipPath><clipPath id="bg"><path d="m128 115h14v17h-14zm0 0"/></clipPath><clipPath id="bh"><path d="m-1986.191406-1536.707031v2740.421875h4871.839844"/></clipPath><clipPath id="bi"><path d="m136 115h11v36h-11zm0 0"/></clipPath><clipPath id="bj"><path d="m-1986.191406-1536.707031v2740.421875h4871.839844"/></clipPath><clipPath id="bk"><path d="m124 115h11v36h-11zm0 0"/></clipPath><clipPath id="bl"><path d="m-1986.191406-1536.707031v2740.421875h4871.839844"/></clipPath><clipPath id="bm"><path d="m83 98h85v6h-85zm0 0"/></clipPath><clipPath id="bn"><path d="m-1986.191406-1536.707031v2740.421875h4871.839844"/></clipPath><clipPath id="bo"><path d="m60 66h131v135h-131zm0 0"/></clipPath><clipPath id="bp"><path d="m-1986.191406-1536.707031v2740.421875h4871.839844"/></clipPath><clipPath id="bq"><path d="m33 33h186v186h-186zm0 0"/></clipPath><clipPath id="br"><path d="m-1986.191406-1536.707031v2740.421875h4871.839844"/></clipPath><clipPath id="bs"><path d="m-1986.191406-1536.707031v2740.421875h4871.839844"/></clipPath><g clip-path="url(#a)"><g clip-path="url(#b)"><path d="m43.019531 68.476562-1.179687 1.828126-4.941406-3.167969c-.804688-.539063-1.289063-.808594-1.613282-.914063-.429687-.160156-.804687-.160156-1.234375 0-.429687.160156-.804687.484375-1.128906.964844-.320313.539062-.480469.96875-.429687 1.398438.054687.375.214843.699218.484374.964843.269532.269531.753907.59375 1.503907 1.074219l5.050781 3.277344-1.183594 1.828125-4.78125-3.0625c-1.074218-.699219-1.878906-1.234375-2.253906-1.613281-.375-.375-.644531-.859376-.804688-1.289063-.164062-.480469-.164062-.964844-.054687-1.554687.105469-.539063.375-1.238282.859375-1.933594.589844-.859375 1.074219-1.453125 1.558594-1.828125.480468-.320313.964844-.484375 1.503906-.535157.480469-.054687.910156 0 1.339844.160157.59375.214843 1.398437.644531 2.417968 1.289062zm0 0" fill="#004f8d"/></g></g><g clip-path="url(#c)"><g clip-path="url(#d)"><path d="m27.765625 72.398438 9.667969 4.886718-.964844 1.933594-8.433594.644531 6.445313 3.277344-.964844 1.824219-9.617187-4.886719.96875-1.984375 8.269531-.699219-6.28125-3.167969zm0 0" fill="#004f8d"/></g></g><g clip-path="url(#e)"><g clip-path="url(#f)"><path d="m21.9375 84.726562.847656-2.03125 10.011719 4.175782-.847656 2.03125zm0 0" fill="#004f8d"/></g></g><g clip-path="url(#g)"><g clip-path="url(#h)"><path d="m19.980469 89.800781 11.546875-.214843-.753906 2.308593h-8.484376l6.714844 5.101563-.753906 2.148437-9.023438-7.140625zm0 0" fill="#004f8d"/></g></g><g clip-path="url(#i)"><g clip-path="url(#j)"><path d="m17.617188 97.375 10.527343 2.46875-1.828125 7.839844-1.824218-.429688 1.394531-5.691406-2.363281-.535156-1.234376 5.261718-1.773437-.429687 1.234375-5.261719-2.898438-.644531-1.394531 5.851563-1.773437-.429688zm0 0" fill="#004f8d"/></g></g><g clip-path="url(#k)"><g clip-path="url(#l)"><path d="m15.253906 107.847656 10.742188 1.394532-.59375 4.566406c-.160156 1.128906-.375 1.988281-.644532 2.46875-.265624.484375-.644531.859375-1.179687 1.128906-.539063.269531-1.128906.324219-1.773437.269531-.804688-.109375-1.449219-.429687-1.933594-.96875-.480469-.535156-.695313-1.289062-.695313-2.253906-.324219.429687-.699219.75-1.074219 1.019531-.378906.269532-.96875.589844-1.882812 1.019532l-2.253906 1.023437.320312-2.578125 2.578125-1.289062c.914063-.429688 1.503907-.753907 1.71875-.914063.214844-.160156.429688-.375.539063-.589844.105468-.214843.214844-.59375.269531-1.074219l.050781-.429687-4.457031-.59375zm5.90625 2.953125-.214844 1.609375c-.105468 1.023438-.160156 1.71875-.105468 1.988282.054687.269531.160156.484374.375.644531.214844.160156.429687.269531.75.324219.378906.050781.699218 0 .914062-.164063.269532-.160156.429688-.429687.539063-.75.050781-.160156.105469-.699219.265625-1.613281l.214844-1.664063zm0 0" fill="#004f8d"/></g></g><g clip-path="url(#m)"><g clip-path="url(#n)"><path d="m17.457031 118.855469.160157 2.148437c-.699219.109375-1.234376.378906-1.613282.699219-.375.375-.535156.914063-.535156 1.558594-.054688.699219.105469 1.234375.375 1.609375.269531.378906.589844.59375 1.019531.59375.269531 0 .484375-.054688.644531-.214844.164063-.164062.378907-.378906.484376-.753906.109374-.269532.269531-.804688.539062-1.71875.320312-1.179688.695312-1.988282 1.125-2.417969.644531-.644531 1.34375-.964844 2.203125-.910156.535156 0 1.074219.214843 1.503906.535156.484375.324219.804688.804687 1.074219 1.398437.214844.589844.320312 1.289063.320312 2.148438-.050781 1.339844-.375 2.363281-.964843 3.058594-.589844.699218-1.449219.96875-2.417969 1.019531l-.054688-2.199219c.59375-.109375.96875-.269531 1.238282-.539062.265625-.320313.375-.804688.429687-1.394532 0-.644531-.109375-1.128906-.324219-1.503906-.160156-.214844-.375-.375-.644531-.375s-.484375.105469-.644531.320313c-.269531.269531-.535156.914062-.804688 1.988281-.269531 1.019531-.589843 1.824219-.859374 2.308594-.320313.535156-.644532.859375-1.128907 1.179687-.480469.269531-1.074219.429688-1.71875.378907-.644531 0-1.179687-.214844-1.71875-.59375-.535156-.375-.910156-.859376-1.179687-1.5-.214844-.644532-.324219-1.453126-.324219-2.363282.054687-1.398437.429687-2.417968 1.074219-3.117187.59375-.859375 1.503906-1.234375 2.742187-1.34375" fill="#004f8d"/></g></g><g clip-path="url(#o)"><g clip-path="url(#p)"><path d="m13.765625 129.894531 10.84375-.375.078125 2.199219-10.84375.378906zm0 0" fill="#004f8d"/></g></g><g clip-path="url(#q)"><g clip-path="url(#r)"><path d="m14.179688 137.226562 8.96875-.914062-.324219-3.222656 1.828125-.160156.859375 8.539062-1.828125.214844-.320313-3.167969-8.96875.859375zm0 0" fill="#004f8d"/></g></g><g clip-path="url(#s)"><g clip-path="url(#t)"><path d="m15.574219 147.375 4.511719-.859375 5.371093-5.101563.484375 2.523438-3.707031 3.332031 4.726563 1.609375.429687 2.472656-6.925781-2.742187-4.511719.914063zm0 0" fill="#004f8d"/></g></g><g clip-path="url(#u)"><g clip-path="url(#v)"><path d="m24.707031 161.609375c1.019531-.375 1.933594-.589844 2.792969-.539063.589844 0 1.179688.109376 1.71875.378907.589844.214843 1.074219.535156 1.449219.910156.535156.539063.914062 1.183594 1.289062 1.988281.589844 1.503906.589844 2.847656.054688 4.082032-.59375 1.289062-1.667969 2.203124-3.332031 2.847656-1.609376.644531-3.0625.695312-4.351563.214844-1.289063-.539063-2.199219-1.503907-2.792969-3.007813-.589844-1.503906-.589844-2.847656-.050781-4.082031.535156-1.183594 1.609375-2.148438 3.222656-2.792969m.910157 2.09375c-1.125.484375-1.878907 1.074219-2.253907 1.828125-.375.75-.429687 1.554688-.054687 2.363281.324218.804688.859375 1.339844 1.664062 1.664063.808594.265625 1.773438.214844 2.957032-.269532 1.125-.484374 1.933593-1.074218 2.308593-1.824218.375-.753906.375-1.503906.054688-2.363282-.324219-.859374-.914063-1.398437-1.667969-1.667968-.859375-.320313-1.878906-.214844-3.007812.269531" fill="#004f8d"/></g></g><g clip-path="url(#w)"><g clip-path="url(#x)"><path d="m24.707031 175.410156 9.613281-4.992187 3.4375 6.605469-1.613281.859374-2.46875-4.671874-2.257812 1.179687 2.097656 4.027344-1.613281.859375-2.09375-4.027344-4.082032 2.148438zm0 0" fill="#004f8d"/></g></g><g clip-path="url(#y)"><g clip-path="url(#z)"><path d="m37.058594 189.589844 1.449218 1.558594c-.480468.535156-.75 1.074218-.75 1.558593 0 .535157.160157 1.019531.589844 1.554688.429688.539062.859375.859375 1.34375 1.023437.429688.050782.859375 0 1.128906-.214844.214844-.164062.320313-.378906.375-.59375.054688-.214843 0-.535156-.109374-.910156-.105469-.269531-.320313-.808594-.695313-1.71875-.484375-1.074218-.699219-1.933594-.644531-2.578125.050781-.859375.429687-1.613281 1.125-2.09375.429687-.324219.914062-.539062 1.503906-.59375.589844-.050781 1.128906.054688 1.71875.378907.589844.320312 1.074219.804687 1.613281 1.449218.859375 1.074219 1.234375 2.039063 1.179688 3.007813-.054688.910156-.484375 1.664062-1.234375 2.308593l-1.398438-1.664062c.378906-.429688.59375-.808594.59375-1.238281 0-.375-.214844-.859375-.59375-1.289063-.375-.480468-.804687-.804687-1.234375-.964844-.269531-.054687-.535156-.054687-.75.109376-.214843.160156-.324219.375-.324219.640624 0 .378907.214844 1.023438.644532 2.042969.429687 1.019531.753906 1.773438.804687 2.363281.109375.589844.054688 1.128907-.105469 1.609376-.214843.539062-.589843 1.023437-1.074218 1.398437-.535156.375-1.074219.589844-1.71875.644531-.644532.054688-1.234375-.054687-1.878906-.429687-.589844-.324219-1.183594-.859375-1.773438-1.613281-.804688-1.074219-1.234375-2.09375-1.179688-3.058594.050782-.914063.535157-1.828125 1.394532-2.6875" fill="#004f8d"/></g></g><g clip-path="url(#A)"><g clip-path="url(#B)"><path d="m48.929688 202.910156.964843 1.988282c-1.074219.535156-2.09375.75-3.0625.644531-.910156-.160157-1.769531-.699219-2.578125-1.503907-.964844-1.019531-1.449218-2.257812-1.394531-3.597656.054687-1.34375.75-2.578125 1.988281-3.761718 1.289063-1.234376 2.628906-1.878907 4.027344-1.878907 1.34375 0 2.578125.535157 3.597656 1.664063.914063.96875 1.34375 2.042968 1.34375 3.167968 0 .699219-.214844 1.398438-.699218 2.203126l-1.878907-1.234376c.320313-.484374.484375-.96875.429688-1.449218-.054688-.539063-.269531-.96875-.699219-1.453125-.535156-.589844-1.179688-.859375-1.933594-.804688-.75.054688-1.609375.484375-2.578125 1.398438-1.019531.910156-1.558593 1.769531-1.609375 2.523437-.109375.75.160156 1.394532.695313 1.988282.378906.429687.859375.695312 1.398437.75.644532-.054688 1.289063-.269532 1.988282-.644532" fill="#004f8d"/></g></g><g clip-path="url(#C)"><g clip-path="url(#D)"><path d="m49.25 208.765625 7.359375-7.949219 1.609375 1.449219-7.355469 8.003906zm0 0" fill="#004f8d"/></g></g><g clip-path="url(#E)"><g clip-path="url(#F)"><path d="m52.902344 212.09375 6.769531-8.484375 6.28125 4.996094-1.128906 1.449219-4.617188-3.652344-1.503906 1.878906 4.242187 3.4375-1.125 1.394531-4.246093-3.382812-1.878907 2.257812 4.78125 3.8125-1.128906 1.449219zm0 0" fill="#004f8d"/></g></g><g clip-path="url(#G)"><g clip-path="url(#H)"><path d="m61.335938 218.699219 5.90625-9.128907 1.773437 1.179688-.214844 8.488281 3.972657-6.070312 1.71875 1.128906-5.90625 9.078125-1.878907-1.238281.214844-8.269531-3.867187 5.90625zm0 0" fill="#004f8d"/></g></g><g clip-path="url(#I)"><g clip-path="url(#J)"><path d="m79.113281 224.449219 1.609375 1.554687c-.859375.859375-1.71875 1.453125-2.683594 1.613282-.96875.160156-1.933593 0-2.953124-.589844-1.289063-.644532-2.097657-1.613282-2.472657-2.902344s-.160156-2.683594.589844-4.1875c.808594-1.613281 1.882813-2.632812 3.171875-3.117188 1.289062-.484374 2.628906-.320312 3.972656.375 1.183594.59375 1.988282 1.453126 2.363282 2.527344.214843.644532.269531 1.394532.054687 2.253906l-2.148437-.535156c.160156-.59375.105468-1.128906-.109376-1.558594-.214843-.484374-.589843-.804687-1.125-1.128906-.699218-.320312-1.453124-.375-2.148437-.105468-.699219.265624-1.34375.964843-1.933594 2.148437-.644531 1.234375-.859375 2.199219-.699219 2.953125.160157.75.589844 1.289062 1.289063 1.609375.535156.269531 1.074219.378906 1.609375.214844.539062-.160157 1.074219-.535157 1.613281-1.125" fill="#004f8d"/></g></g><g clip-path="url(#K)"><g clip-path="url(#L)"><path d="m81.476562 229.925781 3.972657-10.042969 7.464843 2.898438-.644531 1.71875-5.476562-2.148438-.859375 2.257813 5.046875 1.933594-.644531 1.71875-5.101563-1.988281-1.074219 2.738281 5.695313 2.257812-.699219 1.664063zm0 0" fill="#004f8d"/></g></g><g clip-path="url(#M)"><g clip-path="url(#N)"><path d="m110.691406 238.195312-2.46875-.375 1.503906-9.289062c-1.019531.695312-2.203124 1.125-3.492187 1.339844l.375-2.253906c.699219-.109376 1.453125-.375 2.257813-.859376.859374-.429687 1.503906-1.074218 1.878906-1.828124l1.988281.324218zm0 0" fill="#004f8d"/></g></g><g clip-path="url(#O)"><g clip-path="url(#P)"><path d="m115.367188 235.78125 2.46875-.109375c0 .539063.160156.859375.375 1.128906.269531.214844.539062.375.96875.429688.535156.054687.964843-.160157 1.34375-.644531.375-.429688.695312-1.398438.859374-2.902344-.644531.699218-1.503906.96875-2.417968.914062-1.019532-.054687-1.878906-.535156-2.523438-1.34375-.699218-.804687-1.023437-1.878906-.914062-3.167968.105468-1.339844.535156-2.363282 1.394531-3.113282.808594-.753906 1.882813-1.128906 3.0625-1.019531 1.289063.105469 2.363281.644531 3.117187 1.71875.75 1.074219 1.125 2.792969.964844 5.101563-.160156 2.363281-.699218 4.082031-1.664062 5.046874-.96875 1.019532-2.148438 1.449219-3.546875 1.34375-1.019531-.054687-1.824219-.375-2.414063-.96875-.644531-.480468-.96875-1.339843-1.074218-2.414062m5.960937-5.050781c.054687-.804688-.109375-1.394531-.429687-1.878907-.375-.484374-.753907-.699218-1.234376-.75-.484374-.054687-.859374.105469-1.183593.480469-.320313.324219-.535157.914063-.589844 1.71875-.054687.859375.054687 1.503907.375 1.933594.324219.375.699219.644531 1.183594.644531.480469 0 .910156-.160156 1.234375-.484375.429687-.375.589844-.910156.644531-1.664062" fill="#004f8d"/></g></g><g clip-path="url(#Q)"><g clip-path="url(#R)"><path d="m125.894531 236.046875 2.46875-.320313c.105469.535157.320313 1.019532.699219 1.34375.320312.320313.75.480469 1.234375.429688.535156 0 .964844-.214844 1.289063-.699219.375-.429687.535156-1.074219.484374-1.933593-.054687-.804688-.214843-1.398438-.59375-1.773438-.375-.375-.859374-.535156-1.449218-.535156-.699219 0-1.34375.375-1.878906.964844l-2.042969-.214844 1.074219-6.820313 6.609374-.214843.050782 2.363281-4.726563.160156-.320312 2.203125c.535156-.320312 1.128906-.484375 1.71875-.484375 1.074219-.050781 2.039062.378906 2.847656 1.128906.804687.804688 1.234375 1.824219 1.234375 3.113281 0 1.074219-.269531 2.042969-.859375 2.902344-.804687 1.179688-1.988281 1.773438-3.492187 1.824219-1.179688.054687-2.203126-.265625-2.953126-.910156-.753906-.59375-1.234374-1.453125-1.394531-2.527344" fill="#004f8d"/></g></g><g clip-path="url(#S)"><g clip-path="url(#T)"><path d="m144.851562 235.617188.269532 2.257812-8.703125 1.128906c0-.914062.164062-1.71875.539062-2.578125s1.179688-1.988281 2.417969-3.4375c.964844-1.183593 1.554688-1.988281 1.769531-2.363281.269531-.539062.378907-1.074219.324219-1.558594-.054688-.535156-.269531-.964844-.589844-1.179687-.324218-.269531-.753906-.378907-1.289062-.324219-.484375.054688-.914063.269531-1.183594.644531s-.375.859375-.320312 1.613281l-2.527344.050782c0-1.394532.324218-2.414063 1.023437-3.113282.695313-.644531 1.609375-1.074218 2.792969-1.234374 1.289062-.109376 2.308594.105468 3.167969.644531.804687.589843 1.289062 1.394531 1.394531 2.414062.054688.59375.054688 1.128907-.105469 1.667969-.109375.535156-.375 1.125-.753906 1.769531-.265625.429688-.695313 1.019531-1.394531 1.828125-.699219.804688-1.128906 1.339844-1.289063 1.609375-.214843.269531-.324219.484375-.429687.753907zm0 0" fill="#004f8d"/></g></g><g clip-path="url(#U)"><g clip-path="url(#V)"><path d="m166.390625 231.75-2.257813.753906-1.664062-2.039062-4.136719 1.339844-.054687 2.632812-2.199219.699219.589844-11.601563 2.203125-.699218zm-5.15625-2.789062-2.6875-3.386719-.105469 4.246093zm0 0" fill="#004f8d"/></g></g><g clip-path="url(#W)"><g clip-path="url(#X)"><path d="m168.105469 231.054688-4.507813-9.882813 1.984375-.914063 7.035157 4.78125-3.007813-6.605468 1.882813-.808594 4.457031 9.882812-1.988281.914063-6.925782-4.671875 2.898438 6.445312zm0 0" fill="#004f8d"/></g></g><g clip-path="url(#Y)"><g clip-path="url(#Z)"><path d="m173.101562 216.765625 3.4375-1.984375c.804688-.429688 1.449219-.753906 1.878907-.859375.644531-.164063 1.289062-.109375 1.933593.050781.644532.214844 1.183594.539063 1.773438 1.023438.539062.480468 1.074219 1.179687 1.613281 2.039062.429688.804688.75 1.449219.859375 2.148438.160156.804687.105469 1.558594-.054687 2.257812-.160157.480469-.429688 1.019532-.914063 1.503906-.320312.375-.859375.75-1.558594 1.179688l-3.597656 2.042969zm2.847657.539063 3.597656 6.230468 1.398437-.804687c.535157-.324219.910157-.59375 1.074219-.753907.265625-.269531.429688-.535156.535157-.859374.109374-.320313.109374-.699219-.054688-1.179688-.105469-.539062-.375-1.128906-.804688-1.828125-.429687-.699219-.804687-1.234375-1.179687-1.558594-.378906-.320312-.699219-.535156-1.074219-.589843-.378906-.105469-.753906-.054688-1.128906.054687-.324219.054687-.859375.375-1.613281.804687zm0 0" fill="#004f8d"/></g></g><g clip-path="url(#aa)"><g clip-path="url(#ab)"><path d="m194.316406 216.015625-5.53125-7.089844-2.523437 1.988281-1.128907-1.449218 6.765626-5.320313 1.128906 1.453125-2.523438 1.933594 5.585938 7.140625zm0 0" fill="#004f8d"/></g></g><g clip-path="url(#ac)"><g clip-path="url(#ad)"><path d="m199.957031 211.503906-7.414062-7.894531 5.855469-5.480469 1.289062 1.289063-4.296875 4.03125 1.613281 1.71875 4.027344-3.707031 1.234375 1.34375-3.972656 3.703124 1.984375 2.203126 4.460937-4.1875 1.234375 1.339843zm0 0" fill="#004f8d"/></g></g><g clip-path="url(#ae)"><g clip-path="url(#af)"><path d="m209.140625 196.410156 1.878906-1.125c.644531 1.019532.96875 1.984375.914063 2.953125-.054688.964844-.484375 1.878907-1.234375 2.738281-.96875 1.074219-2.09375 1.664063-3.4375 1.71875-1.34375 0-2.6875-.535156-3.976563-1.664062-1.339844-1.183594-2.09375-2.472656-2.199218-3.8125-.109376-1.398438.320312-2.632812 1.289062-3.761719.859375-.964843 1.878906-1.558593 3.058594-1.664062.644531-.054688 1.398437.105469 2.257812.484375l-1.074218 1.984375c-.539063-.265625-1.019532-.375-1.558594-.265625-.535156.105468-.964844.375-1.34375.75-.535156.644531-.75 1.289062-.644532 2.042968.109376.75.644532 1.554688 1.613282 2.414063 1.019531.914063 1.933594 1.34375 2.683594 1.34375.753906 0 1.398437-.269531 1.933593-.859375.378907-.429688.59375-.914062.539063-1.503906 0-.484375-.214844-1.074219-.699219-1.773438" fill="#004f8d"/></g></g><g clip-path="url(#ag)"><g clip-path="url(#ah)"><path d="m214.941406 195.660156-8.808594-6.285156 1.234376-1.769531 3.492187 2.46875 2.523437-3.492188-3.488281-2.46875 1.285157-1.773437 8.808593 6.339844-1.289062 1.769531-3.8125-2.792969-2.523438 3.492188 3.867188 2.738281zm0 0" fill="#004f8d"/></g></g><g clip-path="url(#ai)"><g clip-path="url(#aj)"><path d="m221.441406 186.421875-9.402344-5.371094 1.023438-1.878906 8.539062-.214844-6.285156-3.597656.96875-1.773437 9.453125 5.371093-1.128906 1.933594-8.324219.269531 6.175782 3.488282zm0 0" fill="#004f8d"/></g></g><g clip-path="url(#ak)"><g clip-path="url(#al)"><path d="m221.871094 174.820312c-1.023438-.484374-1.773438-1.019531-2.363282-1.558593-.429687-.429688-.699218-.964844-.96875-1.554688-.214843-.539062-.320312-1.128906-.320312-1.667969 0-.695312.214844-1.503906.535156-2.308593.644532-1.449219 1.613282-2.414063 2.902344-2.898438s2.738281-.375 4.347656.375c1.613282.699219 2.6875 1.664063 3.171875 2.953125.535157 1.289063.429688 2.632813-.214843 4.082032-.644532 1.449218-1.613282 2.417968-2.902344 2.902343-1.179688.480469-2.578125.375-4.1875-.324219m.859375-2.09375c1.125.484376 2.09375.644532 2.898437.320313.804688-.265625 1.398438-.75 1.773438-1.554687.375-.808594.375-1.558594 0-2.363282-.375-.753906-1.074219-1.398437-2.257813-1.878906-1.125-.484375-2.09375-.59375-2.898437-.378906-.804688.269531-1.34375.753906-1.71875 1.613281-.375.804687-.375 1.609375-.054688 2.414063.375.699218 1.128906 1.289062 2.257813 1.828124" fill="#004f8d"/></g></g><g clip-path="url(#am)"><g clip-path="url(#an)"><path d="m231.75 165.316406-10.257812-3.332031.699218-2.09375 8.488282 2.792969 1.714843-5.15625 1.71875.535156zm0 0" fill="#004f8d"/></g></g><g clip-path="url(#ao)"><g clip-path="url(#ap)"><path d="m229.335938 155.484375c-1.074219-.214844-1.933594-.589844-2.632813-1.074219-.484375-.375-.914063-.804687-1.234375-1.289062-.324219-.480469-.589844-1.019532-.644531-1.554688-.160157-.699218-.109375-1.503906.105469-2.363281.324218-1.558594 1.128906-2.6875 2.3125-3.4375 1.179687-.699219 2.628906-.859375 4.347656-.484375s2.953125 1.128906 3.707031 2.308594c.75 1.128906.964844 2.472656.589844 4.027344-.375 1.613281-1.128907 2.742187-2.253907 3.4375-1.183593.644531-2.578124.808593-4.296874.429687m.429687-2.253906c1.179687.269531 2.199219.214843 2.898437-.214844.753907-.429687 1.234376-1.019531 1.398438-1.878906.214844-.859375.050781-1.613281-.429688-2.3125-.539062-.695313-1.34375-1.125-2.578124-1.449219-1.234376-.269531-2.203126-.214844-2.902344.214844-.695313.375-1.179688 1.019531-1.339844 1.933594-.214844.859374-.054688 1.664062.429688 2.308593.480468.644531 1.289062 1.128907 2.523437 1.398438" fill="#004f8d"/></g></g><g clip-path="url(#aq)"><g clip-path="url(#ar)"><path d="m233.792969 138.890625-1.828125-.214844.539062-4.671875 4.296875.480469c.375.484375.699219 1.238281.964844 2.097656.214844.910157.324219 1.824219.214844 2.683594-.105469 1.128906-.480469 2.09375-1.019531 2.847656-.589844.804688-1.34375 1.34375-2.253907 1.664063-.914062.324218-1.933593.429687-2.957031.324218-1.125-.164062-2.09375-.484374-2.898438-1.074218-.804687-.539063-1.394531-1.34375-1.773437-2.3125-.265625-.695313-.375-1.609375-.265625-2.628906.160156-1.34375.589844-2.3125 1.179688-3.007813.644531-.699219 1.449218-1.074219 2.472656-1.183594l.160156 2.203125c-.539062.054688-1.019531.320313-1.34375.699219-.375.375-.535156.910156-.644531 1.503906-.105469.964844.109375 1.71875.644531 2.363281.539062.644532 1.398438 1.019532 2.578125 1.179688 1.289063.109375 2.253906-.054688 2.953125-.535156.699219-.539063 1.128906-1.238282 1.234375-2.148438.054687-.429687 0-.914062-.105469-1.398437-.109375-.484375-.269531-.914063-.539062-1.234375l-1.339844-.160156zm0 0" fill="#004f8d"/></g></g><g clip-path="url(#as)"><g clip-path="url(#at)"><path d="m238.410156 129.382812h-4.5625l-6.285156 4.027344v-2.578125l4.296875-2.578125-4.296875-2.46875v-2.523437l6.285156 3.972656h4.5625zm0 0" fill="#004f8d"/></g></g><g clip-path="url(#au)"><g clip-path="url(#av)"><path d="m227.347656 118.75-.535156-4.296875c-.109375-.859375-.164062-1.503906-.109375-1.933594 0-.429687.109375-.804687.324219-1.183593.160156-.375.429687-.644532.804687-.910157.375-.269531.75-.429687 1.234375-.484375.484375-.054687.96875 0 1.449219.214844.429687.214844.804687.535156 1.074219.964844.109375-.695313.375-1.234375.804687-1.664063.429688-.429687.96875-.644531 1.558594-.699219.484375-.050781.96875 0 1.449219.164063.484375.160156.914062.429687 1.238281.804687.375.375.589844.859376.695313 1.394532.054687.378906.214843 1.183594.378906 2.632812l.429687 3.652344zm1.503906-2.363281 2.46875-.324219-.160156-1.449219c-.105468-.804687-.214844-1.34375-.214844-1.558593-.105468-.375-.265624-.644532-.480468-.804688-.269532-.214844-.539063-.269531-.914063-.214844-.324219.054688-.589843.160156-.753906.375-.160156.214844-.265625.539063-.265625.859375 0 .214844.050781.808594.214844 1.828125zm4.296876-.539063 2.898437-.375-.265625-2.039062c-.109375-.753906-.164062-1.289063-.269531-1.503906-.109375-.324219-.269531-.539063-.539063-.753907-.214844-.214843-.535156-.214843-.964844-.214843-.324218.054687-.589843.160156-.804687.375-.214844.164062-.378906.429687-.429687.753906-.109376.320312-.054688.964844.105468 1.933594zm0 0" fill="#004f8d"/></g></g><g clip-path="url(#aw)"><g clip-path="url(#ax)"><path d="m236.691406 106.609375-10.632812 2.363281-1.71875-7.894531 1.828125-.375 1.234375 5.691406 2.363281-.535156-1.183594-5.261719 1.773438-.429687 1.179687 5.367187 2.847656-.640625-1.289062-5.910156 1.828125-.429687zm0 0" fill="#004f8d"/></g></g><g clip-path="url(#ay)"><g clip-path="url(#az)"><path d="m234.328125 96.835938-10.417969 3.007812-.589844-2.09375 10.417969-3.007812zm0 0" fill="#004f8d"/></g></g><g clip-path="url(#aA)"><g clip-path="url(#aB)"><path d="m221.65625 92.648438-.753906-2.097657 6.445312-2.253906c.859375-.269531 1.558594-.429687 2.042969-.429687.644531 0 1.289063.160156 1.824219.589843.535156.429688.964844 1.019531 1.289062 1.878907.375 1.023437.320313 1.882812-.054687 2.632812-.375.753906-1.074219 1.289062-2.199219 1.664062l-.914062-1.878906c.589843-.214844.964843-.429687 1.128906-.699218.265625-.375.375-.75.214844-1.234376-.164063-.484374-.429688-.75-.753907-.859374-.320312-.105469-.914062 0-1.71875.269531zm0 0" fill="#004f8d"/></g></g><g clip-path="url(#aC)"><g clip-path="url(#aD)"><path d="m219.492188 87.0625 10.023437-4.148438.84375 2.035157-10.023437 4.148437zm0 0" fill="#004f8d"/></g></g><g clip-path="url(#aE)"><g clip-path="url(#aF)"><path d="m228.636719 80.9375-9.667969 4.835938-.964844-1.933594 4.511719-7.199219-6.5 3.222656-.914063-1.769531 9.722657-4.835938.964843 1.933594-4.347656 7.089844 6.335938-3.167969zm0 0" fill="#004f8d"/></g></g><g clip-path="url(#aG)"><g clip-path="url(#aH)"><path d="m217.625 69.070312-1.554688.964844-2.527343-3.972656 3.652343-2.3125c.644532.164062 1.289063.539062 2.097657 1.074219.75.59375 1.339843 1.238281 1.824219 1.988281.589843.96875.914062 1.933594.96875 2.902344.050781.964844-.164063 1.878906-.699219 2.683594-.539063.859374-1.234375 1.503906-2.148438 2.09375-.96875.59375-1.933593.914062-2.902343 1.023437-1.019532.050781-1.933594-.164063-2.84375-.699219-.699219-.429687-1.289063-1.019531-1.828126-1.933594-.75-1.128906-1.019531-2.148437-.964843-3.117187.050781-.910156.480469-1.769531 1.179687-2.46875l1.503906 1.609375c-.375.378906-.589843.859375-.589843 1.398438 0 .535156.105469 1.074218.484375 1.558593.480468.804688 1.179687 1.289063 1.984375 1.449219.808593.160156 1.71875-.054688 2.742187-.753906 1.074219-.695313 1.769532-1.449219 1.984375-2.253906.269531-.804688.109375-1.613282-.375-2.417969-.269531-.375-.589843-.75-.964843-1.019531-.429688-.269532-.808594-.484376-1.183594-.644532l-1.179688.75zm0 0" fill="#004f8d"/></g></g><g clip-path="url(#aI)"><g clip-path="url(#aJ)"><path d="m100.058594 229.65625c0 .859375-.75 1.558594-1.609375 1.558594s-1.558594-.75-1.558594-1.609375.699219-1.558594 1.609375-1.558594c.914062 0 1.613281.75 1.558594 1.609375" fill="#004f8d"/></g></g><g clip-path="url(#aK)"><g clip-path="url(#aL)"><path d="m152.261719 230.195312c0 .859376-.75 1.554688-1.609375 1.554688s-1.558594-.75-1.558594-1.609375.753906-1.609375 1.613281-1.558594c.910157 0 1.609375.699219 1.554688 1.613281" fill="#004f8d"/></g></g><g clip-path="url(#aM)"><g clip-path="url(#aN)"><path d="m64.503906 44.417969c-.699218-.324219-1.234375-1.183594-1.988281-2.097657-.480469-1.285156.589844-2.789062 0-4.402343-1.179687-.644531-1.933594.214843-2.523437-.054688-.429688-.214843-.914063-1.179687-1.71875-2.199219-1.128907-.59375-2.792969-.484374-3.492188-.109374-1.019531 1.074218 4.726562 4.242187 3.816406 5.746093-1.882812 3.0625-1.71875 6.390625-2.042968 7.199219-.105469.214844-.160157.480469-.269532.695312-.265625-.910156-.480468-1.878906-.75-2.792968-1.34375-.480469-1.664062-.695313-2.738281-2.683594-1.238281-1.234375-2.417969-1.128906-5.480469 0 0 .214844.054688.535156.375 1.019531.378906.484375.808594-.914062 4.082032 3.0625.054687.75-1.125 1.234375-1.554688 1.878907-.164062.644531-.054688.644531.535156 1.34375 1.128906.105468 2.042969.160156 3.222656-.375 1.558594 2.09375.859376 3.757812 2.6875 5.90625.429688 0 .859376-.054688 1.289063-.054688.265625-.160156.480469-.265625.695313-.429688.109374-2.578124-1.074219-9.238281-.160157-11.222656.429688-.644531 1.613281-.699218 2.523438-.96875 1.074219 1.503906 1.988281 2.632813 3.546875 3.277344-1.238282 2.308594-.859375 2.847656-1.289063 4.296875.050781.269531.105469 1.128906.589844 1.34375.429687.265625.429687-3.386719 3.8125-6.929687.109375-.804688-.269531.054687 1.234375-2.042969-.050781-.160157-.105469-.964844-.214844-1.019531-1.074218-.160157-2.628906-.644532-4.1875 1.613281" fill="#004f8d"/></g></g><g clip-path="url(#aO)"><g clip-path="url(#aP)"><path d="m86.203125 23.09375c.535156.109375.429687-1.074219.429687-1.34375-.59375-.429688-1.289062-.75-1.988281-.855469-.964843.320313-1.933593 1.285157-2.683593 1.070313-.378907-1.339844-1.183594-.910156-3.332032-3.058594-.320312 0-.804687.269531-1.074218.535156.054687 1.023438 2.578124 3.8125 1.183593 4.996094-2.792969 1.234375-3.546875 4.296875-4.890625 4.617188-1.234375 0-1.664062.808593-1.664062 1.398437.484375 1.019531.96875 1.503906 1.664062 1.933594 1.773438.375 3.492188-4.726563 5.75-6.660157l.964844-.269531.054688.160157c-.699219 1.773437-1.71875 3.007812-1.398438 5.425781.859375.804687 1.71875 1.558593 2.578125 2.363281-.75.484375-1.984375 3.007812-1.179687 4.941406.75.324219 1.449218.589844 2.203124.96875.589844-.164062.480469-.429687.695313-.644531-.160156-1.558594-.644531-1.828125-.535156-2.792969.105469-.164062.105469-.214844.160156-.324218 1.019531-.644532-.054687 1.664062 2.898437 3.222656 1.023438-1.609375-1.609374-2.683594-1.289062-5.476563.324219-.164062.429688-.484375.914062-.429687.109376.050781.269532.105468.375.160156.539063 1.074219.269532 1.558594 1.503907 3.007812 1.183593.484376 1.503906.320313 2.257812-.699218-.484375-2.09375-3.007812-3.4375-4.566406-2.953125-.105469-.109375-.105469-.269531-.160156-.375.269531-.269531.429687-.324219.699219-.59375-.054688-.644531-.214844-.964844-.429688-1.074219-.378906-.160156-.539062.164062-.914062 0 0-1.179688.75-1.878906 1.71875-2.46875.054687-.375.535156-.375.214843-1.183594-.644531-.644531-1.019531-1.125-2.417969-1.019531-2.253906.699219-2.363281 1.878906-3.917968 2.792969l-.054688-.160156c1.664063-3.4375 4.941406-5.425782 6.230469-5.210938m-5.210937 6.875c.539062-.699219 1.128906-1.394531 1.664062-2.09375l.484375-.160156.054687.160156c-.589843.859375-.96875 2.308594-1.71875 2.632812-.109374 0-.269531-.054687-.375-.054687zm0 0" fill="#004f8d"/></g></g><g clip-path="url(#aQ)"><g clip-path="url(#aR)"><path d="m115.472656 17.242188c-.804687-2.6875.054688-6.285157-.699218-6.769532-.804688-.484375-1.449219-1.179687-1.769532-1.289062-.269531-.105469-1.238281 0-1.398437.269531-.269531.589844.375.75.914062 2.46875.644531 1.882813 1.234375 4.890625 1.289063 6.5-.054688.160156-.804688.160156-2.902344 2.417969.054688-1.128906 1.128906-2.738282 1.933594-3.382813.054687-.164062.109375-.324219.214844-.539062-.589844-.589844-1.179688-.964844-2.253907-.804688-.054687-.160156-.054687-.324219-.109375-.484375.378906-.859375.859375-1.394531 1.828125-1.878906 0-.109375.054688-.214844.054688-.375-.054688-.164062-.164063-.269531-.269531-.429688-1.183594-.484374-2.148438-.429687-3.277344.375l.214844.644532c.160156 0 .375.054687.589843.054687.429688 1.019531-.214843 1.933594.109375 2.738281.375.375.75.699219 1.179688 1.074219-.589844 1.34375-2.898438 4.132813-1.71875 5.960938.378906.429687.269531.375.859375.484375 1.074219-1.398438 1.828125-3.382813 3.816406-4.136719.695313 3.867187.804687 9.558594 2.414063 12.675781.109374 0 .214843-.054687.324218-.054687.054688 0 .105469 0 .160156-.054688.324219-3.222656-1.609374-13.425781-1.503906-13.53125.375-.109375.804688-.164062 1.183594-.269531.160156-.054688 1.449219 0 1.074219-.753906-.324219-.859375-1.074219-1.234375-2.257813-.910156" fill="#004f8d"/></g></g><g clip-path="url(#aS)"><g clip-path="url(#aT)"><path d="m109.996094 19.390625c-1.128906.429687-.96875 1.179687-1.933594 1.714844.105469-.535157-.054688-1.070313.160156-1.714844 1.558594-1.34375.054688-1.503906.160156-3.652344.375-.214843.484376.050781.753907-.429687.265625-.484375-.109375-.539063-.109375-.539063-.214844-.269531-.964844-2.46875-1.933594-2.417969-.859375.054688-.535156.914063-1.128906 1.453126-2.414063 1.554687-4.1875 2.523437-6.066406 7.089843 2.253906-1.558593 3.222656-3.976562 6.605468-4.835937-.054687 2.847656-3.167968 4.296875-5.15625 6.015625-1.019531.859375-1.449218-.054688-2.148437 1.394531-.214844.429688.429687 1.238281.753906 1.34375.320313.109375 4.347656-.75 4.726563-1.34375.105468-.105469.589843-.964844.75-1.125.054687.050781.105468.105469.160156.160156-.375 1.71875-.75 3.4375-1.125 5.15625.535156.429688.75.75 1.554687.914063.644531-.753907.699219-1.71875 1.34375-2.742188.105469.644531.269531 1.558594.375 2.203125.804688.484375.753907.699219 1.558594.375-.324219-1.289062-.699219-2.578125-1.019531-3.867187.535156-1.769531 1.125-3.4375 1.71875-5.152344" fill="#004f8d"/></g></g><g clip-path="url(#aU)"><g clip-path="url(#aV)"><path d="m143.5625 19.765625c.054688 0 .109375-.160156 0-.269531-.054688-.105469-.160156-.160156-.269531-.160156-.480469.054687-1.179688.160156-2.738281.75.109374-.214844.214843-.429688.375-.644532.484374-.480468.539062-.160156 1.289062-.265625.59375-1.023437-.105469-1.183593-.050781-1.933593.050781-1.828126 1.339843-1.988282 1.609375-3.816407-.269532-1.234375-.804688-1.71875-1.988282-2.414062-.050781 0-.695312.265625-.480468.644531.644531 1.234375-.699219 3.542969-1.289063 5.421875-2.097656.644531-4.03125.753906-7.414062 1.183594 0 .214843-.535157.269531-.214844 1.074219 5.640625 2.578124 4.351563.859374 6.339844.699218-1.183594 4.617188-4.40625 3.382813-5.964844 6.605469.214844.429687.054687 1.019531.699219 1.449219 2.578125-.804688 2.042968.535156 3.867187 1.664062.429688.109375.699219 0 .753907-.484375.160156-1.878906.265624-3.167969.964843-4.941406 1.773438-2.308594 2.632813-3.113281 4.511719-4.5625m-7.625 7.734375c-.324219-.109375-.699219-.269531-1.023438-.378906-.105468 0 .054688 0-.050781-.050782l.214844-.859374c.429687-.214844.535156-.484376.964844-.699219.644531.054687-.105469 1.289062-.105469 1.988281" fill="#004f8d"/></g></g><g clip-path="url(#aW)"><g clip-path="url(#aX)"><path d="m142.917969 19.121094c.214843.320312.324219.429687.484375.375.699218-.160156 1.234375.214844 2.039062.484375-.265625 1.289062-1.71875 2.09375-1.554687 3.703125 0 .214844.214843.429687.589843.539062.699219-.214844.964844-.429687 1.71875-.699218.054688 0 .320313.160156.375.160156-.320312.808594-.535156 1.453125-1.074218 2.527344l-.105469.375c-2.042969-.96875-1.828125-3.761719-5.75-3.8125-.535156.695312 2.042969 1.234374 2.902344 2.09375.484375.75 1.128906 1.289062 1.824219 2.363281l-.160157.535156c-1.609375 1.128906-3.382812.808594-4.242187.539063-.914063.054687-1.613282.320312-1.71875.859374.644531.484376 1.394531.914063 2.039062 1.074219.644532.160157 3.277344-.699219 4.78125-1.613281 1.019532 1.558594 1.183594 2.792969 2.203125 3.546875.695313.484375 4.402344 1.664063 4.617188.804687.109375-.484374-.699219-1.34375-2.09375-2.683593-2.523438-.808594-3.328125-1.613281-3.757813-2.847657.75-.859374 1.5-2.308593 2.039063-3.761718-.324219-.429688-.644531-.804688-.914063-1.234375-.375-.160157-.75-.375-1.179687-.535157 1.074219-2.308593 3.058593-1.773437 3.972656-3.921874-.375-.859376-.320313-.859376-.484375-1.664063 2.203125-5.53125-.859375-5.265625-.964844-5.210937-.160156.109374-.375.539062-.324218.753906.054687.214844.324218 2.308594-.050782 3.167968-1.183594 2.898438-2.792968 2.308594-5.101562 2.308594-.109375.699219-.164063.859375-.324219 1.234375 0 .164063.109375.378907.214844.539063" fill="#004f8d"/></g></g><g clip-path="url(#aY)"><g clip-path="url(#aZ)"><path d="m172.1875 30.613281c.054688-.054687.269531-.320312.324219-.375 1.34375-.804687 4.1875.375 5.425781-.96875 1.289062-3.382812-.96875-2.414062-.164062-3.867187 1.074218-1.878906-.265626-4.402344-.480469-4.402344-.859375.105469-2.578125 3.382812-5.210938 4.511719-2.148437-.214844-4.402343-1.183594-4.941406-.644531-.429687.644531 1.234375 2.148437 1.824219 3.222656-.964844 1.773437-1.609375 1.019531-3.488282 3.8125.269532.914062.105469 1.34375 1.289063 2.523437 1.878906.59375 2.792969-2.199219 3.917969-3.222656.214844-.105469.59375-.75 1.238281-.320313 3.542969 3.382813-1.933594 5.425782-.484375 9.078126.269531.105468.699219.105468.964844.214843 5.800781-1.503906 2.097656-8.328125-.214844-9.5625" fill="#004f8d"/></g></g><g clip-path="url(#a0)"><g clip-path="url(#a1)"><path d="m205.382812 50.59375c.050782-.109375.105469-.214844.160157-.324219.105469-2.039062-2.417969-3.917969-2.148438-4.1875l.105469-.109375c1.503906-.050781 2.527344.96875 4.40625-.589844.214844-1.128906.320312-1.824218-.484375-3.0625-1.609375-.964843-2.578125-.855468-2.953125-1.125-.269531-.539062-.539062-1.074218-.859375-1.558593-.753906-.375-2.363281.699219-2.472656.160156-.050781-.535156 1.183593-.375 1.613281-1.769531 0-.109375-.269531-.59375-.269531-.699219-2.039063-.214844-5.960938 2.953125-3.8125 5.046875 0 .539062 1.394531-.269531 1.609375-.910156.539062-1.128906.96875-.164063 2.097656-1.128906.105469-.054688.480469-.160157.589844.054687-2.042969 1.929687-1.019532 1.984375-1.289063 3.703125-.753906.484375-2.203125-1.128906-4.566406-1.558594-2.792969-.910156-4.1875-.320312-4.402344-.640625-.109375-.164062 1.289063-.484375 1.503907-1.183593.214843-.75-3.707032.804687-5.480469 1.503906-.320313.644531-.589844 1.234375-.910157 1.878906 0 .539062.105469.804688.320313 1.183594l.484375.320312c1.074219-.644531 1.769531-1.558594 2.792969-2.039062 1.554687-.808594 4.777343-.054688 5.800781.910156-.914062.699219-1.828125-.375-3.546875 1.128906-.054687.429688-.269531.96875-.214844 1.449219.859375 1.667969.753907-1.609375 5.640625.644531.160156.484375-1.128906.109375-1.34375-.265625-.160156-.324219-.214844.160157-.484375.375-.214843.160157-.375-.324219-.695312.054688-.214844.265625.105469.589843.535156 1.179687-.160156.160156-.269531.375-.429687.539063-2.632813-1.183594-4.671876-2.148438-5.476563-3.171875-.429687-.480469-.96875-.050782-1.128906 0-.109375 5.425781 3.597656 2.417968 5.425781 4.890625-.429688.429687-1.828125 1.769531-2.742188 2.253906-1.234374.375-2.09375-.699219-3.488281-1.609375-.753906-.429688-1.289062-.429688-1.503906-.054688.429687 1.449219 1.449219 2.308594 2.09375 3.8125 1.878906 1.019532 4.402344-1.773437 6.605469-3.707031 0 0 1.289062 1.074219 1.558594 1.71875.429687.269531.320312 0 .429687.054688.75-.804688.859375-1.019531.914063-1.773438-.109376-1.394531-1.933594-1.664062-1.289063-2.308593.644531-.644532 1.878906.054687 2.953125-.589844.804688.269531 1.558594 1.449218 2.253906 2.363281.214844.535156 1.398438-.269531 2.097656-.859375m-.753906-8.699219c.859375-.164062 1.128906.320313 1.933594.535157.269531.214843.484375.375.644531.644531.054688.589843.214844.269531-.269531.804687-1.339844.324219-2.792969.539063-4.027344.269532 0-.109376-.054687-.214844-.054687-.375.539062-.699219.859375-1.558594 1.773437-1.878907m-3.222656 5.636719c-2.363281-1.558594-3.167969-1.878906-4.1875-1.933594 1.503906-1.34375 4.1875-.054687 4.511719.324219l1.984375 2.363281c-.105469.535156-.695313-.269531-2.308594-.753906" fill="#004f8d"/></g></g><g clip-path="url(#a2)"><g clip-path="url(#a3)"><path d="m79.648438 126.914062c1.933593.695313 4.941406.859376 9.023437.480469v1.667969c-1.503906 0-2.953125.75-4.136719 1.769531-1.824218 1.453125-3.648437 3.0625-4.777344 5.371094-.109374.484375 0 .914063.214844 1.128906.214844.109375.804688-.054687 1.179688-.484375.324218-.320312.59375-.910156 1.398437-1.824218 3.382813-4.027344 4.992188-3.921876 5.90625-4.027344v3.703125c-1.234375.214843-2.953125 1.71875-4.1875 3.222656-1.398437 2.042969-1.773437 2.792969-2.363281 4.03125-.214844.589844-1.019531 3.703125-1.019531 3.8125-.109375.320313-.054688 1.179687.160156 1.289063.320313.105468.699219.050781 1.019531-.160157.804688-1.023437 1.019532-2.792969 1.449219-3.921875.589844-1.503906.96875-2.578125 2.6875-4.351562.695313-.699219 1.449219-1.179688 2.363281-1.34375v4.246094c0 5.101562.050782 7.945312.160156 8.539062.214844.429688.535157.589844.859376.480469.320312-.105469.75-.214844.914062-.644531.214844-1.933594.105469-4.886719.105469-8.644532v-4.082031c.699219.214844 2.578125 1.34375 4.511719 4.886719.484374.914062 1.183593 3.921875 1.289062 4.191406.324219.429688.644531.589844.859375.480469.375-.105469.539063-.375.539063-.75.105468-1.34375-.429688-3.546875-1.558594-5.371094-.699219-1.503906-1.828125-3.8125-5.585938-5.746094v-3.921875c1.128906.105469 2.953125 1.234375 4.1875 2.253906 1.613282 1.398438 2.632813 2.527344 3.222656 3.332032.324219.320312.859376.644531 1.238282.429687.429687-.214843.589844-.859375.320312-1.183593-1.019531-1.125-3.0625-3.597657-4.832031-4.832032-1.453125-1.128906-3.0625-1.828125-4.082031-1.878906v-1.988281c.320312 0 .589844-.109375.859375-.160157 4.242187-.699218 5.207031-2.042968 6.121093-3.976562.324219-1.71875-.644531-3.488281-2.898437-5.316406-1.933594-1.34375-4.40625-2.09375-7.519531-2.308594-.808594 0-1.183594.269531-1.183594.75.109375.914062.753906 1.503906 1.878906 1.667969 2.472656 0 4.460938.589843 5.964844 1.824219 1.824219 1.398437 2.09375 2.792968.859375 4.136718-.808594.699219-2.097656 1.234375-3.921875 1.503906v-.753906c.375-1.824218-.214844-3.972656-1.71875-4.5625-1.71875-.808594-6.550781-1.074218-9.507812-.96875-.535157 0-.910157.375-1.019532 1.074219 0 .589844.269532.914063.859375.914063 1.828125-.109376 6.121094.054687 7.949219.644531.914062.214843 1.289062 2.09375 1.179688 3.8125h-.160157c-3.757812.214843-6.496093.109375-8.164062-.320313-.695313-.109375-1.125.050782-1.339844.480469-.109375.589844.105469 1.074219.695313 1.398437" fill="#004f8d"/></g></g><g clip-path="url(#a4)"><g clip-path="url(#a5)"><path d="m116.332031 130.941406c-3.007812-.539062-6.121093-.539062-9.292969 0-1.554687.214844-2.253906.535156-2.46875 2.148438-.214843 2.523437-.160156 4.457031.269532 7.25.054687.589844 1.074218.96875 2.628906 1.128906v.320312c-.265625 1.613282-.480469 2.792969-.75 3.492188-.109375.589844-.539062 1.558594-1.289062 2.898438-.375.699218-.804688 1.238281-.804688 1.453124-.109375.480469.160156.644532.375.859376.214844.105468.804688.105468 1.289062-.269532 1.824219-2.148437 2.847657-5.046875 3.0625-8.699218h4.242188c.699219 3.542968 1.449219 6.121093 2.847656 8.539062.320313.589844.964844.589844 1.234375.589844.105469 0 .429688-.054688.699219-.214844.320312-.214844-.214844-1.234375-.59375-1.773438-1.234375-2.628906-2.039062-4.832031-2.308594-7.304687 2.042969-.214844 2.472656-.480469 2.632813-1.824219.429687-3.652344.269531-5.53125 0-6.875-.054688-1.019531-.644531-1.558594-1.773438-1.71875m-8.753906 1.34375c.804687-.164062 5.855469-.539062 8.109375.050782 1.019531.269531.753906.859374 1.019531 1.558593-2.308593-.214843-4.402343-.375-5.960937-.269531-1.449219 0-2.898438.109375-4.351563.269531.109375-.859375.378907-1.449219 1.183594-1.609375m7.949219 7.355469c-2.847656.269531-7.304688.109375-8.378906-.050781-.699219 0-.429688-1.183594-.644532-1.074219.429688-.269531.699219-.164063 2.039063-.269531.59375-.109375 1.988281-.109375 2.363281-.109375.808594 0 1.453125-.105469 2.957031 0l2.628907.109375c.054687.214844.109374 1.179687-.644532 1.394531zm1.128906-2.683594c-3.867188-.214843-7.519531-.324219-10.421875 0 0 0-.320313-1.503906.054687-1.558593.375-.054688 1.988282-.269532 3.972657-.375 1.828125-.054688 5.535156 0 6.394531.429687.050781-.054687 0 1.289063 0 1.503906" fill="#004f8d"/></g></g><g clip-path="url(#a6)"><g clip-path="url(#a7)"><path d="m99.789062 150.007812c.484376 0 .914063-.375 1.289063-1.234374.378906-1.128907.644531-2.738282.96875-4.457032.429687-2.472656.429687-2.957031.804687-6.984375.324219-4.082031.214844-7.519531.054688-11.171875h.054688c.375-.105468 1.179687-.160156 1.394531-.160156.269531.914062.160156 1.878906.804687 2.578125.589844.914063 1.019532.699219 3.222656.914063l5.695313-.109376c1.878906-.105468 2.898437-.375 3.382813-1.179687.484374-.808594.644531-1.453125.75-2.363281h.753906c.375.105468.589844.160156.75.160156-.375 8.054688.484375 15.523438 2.578125 22.449219.214843.589843.59375.859375 1.074219.753906.484374-.214844.644531-.644531.539062-1.34375-1.34375-6.335937-2.148438-11.0625-2.363281-14.179687-.375-5.101563-.109375-9.074219.75-11.921876 0 0 .859375-1.828124 0-2.472656-.320313-.265625-.964844-.429687-2.199219-.859375-2.3125-.589843-4.621094-1.019531-6.929688-1.234375-.375 0-.589843-.105468-.753906-.320312 0-.699219-.265625-1.289063-.910156-1.667969-.378906-.320313-.699219-.375-1.074219-.320313-.378906.105469-.484375.375-.378906.75 0 .914063-.535156 1.453126-1.609375 1.667969-2.632812.105469-5.101562.535157-7.25 1.394531-1.449219.375-1.828125 1.34375-1.074219 2.738282.375.808594.699219 1.828125.914063 3.0625.480468 3.0625.535156 6.550781.160156 10.527344-.214844 3.542968-.804688 8.054687-1.613281 13.425781-.265625.914062-.105469 1.449219.214843 1.558593m10.367188-21.753906h-.914062c-1.179688 0-2.039063 0-2.363282-.589844-.269531-.320312-.484375-1.34375-.484375-1.769531h3.816407c0 .589844.050781 1.609375-.054688 2.359375m-4.136719-4.078125v-.914062c0-.589844-.054687-1.074219.804688-1.34375.378906 0 1.34375-.054688 1.933593-.160157h1.289063c.109375.589844.214844 1.609376.214844 2.417969zm9.777344 3.003907c0 .324218-.269531.753906-1.453125.914062h-2.199219v-2.363281h3.8125c-.054687.484375.105469.484375-.160156 1.449219m.535156-3.003907h-4.136719v-2.363281h1.453126c.589843.105469 1.609374.050781 1.878906.050781.75.109375.859375.214844.859375 1.128907zm-5.425781-5.535156c2.632812-.105469 5.320312.324219 7.519531.914063 1.667969.375 1.882813 1.449218 1.613281 2.6875-.109374.214843-.375 1.933593-.375 2.148437-.484374 0-.96875-.054687-1.453124-.164063 0-.589843.164062-2.148437.164062-2.308593 0-.804688-1.238281-1.128907-2.6875-1.34375-3.867188-.320313-7.035156-.265625-9.453125.164062-1.234375.214844-2.199219.265625-2.363281 1.179688-.105469.589843.164062 1.773437.164062 2.472656h-1.289062s-.484375-2.792969-.484375-3.222656c-.109375-.59375.269531-.753907.644531-1.023438 0-.050781 3.328125-1.339843 8-1.503906" fill="#004f8d"/></g></g><g clip-path="url(#a8)"><g clip-path="url(#a9)"><path d="m149.253906 122.457031h.96875c0 1.609375.699219 3.382813 1.394532 4.292969.699218 1.023438 1.398437 1.183594 2.097656 1.503906v2.6875c-.378906 0-.539063.105469-1.503906-.269531-1.773438-.699219-2.472657-2.523437-3.546876-5.476563-.105468-.324218-.269531-.484374-.535156-.484374-.378906 0-.164062 0-.484375.214843-.589843.375 0 2.308594.105469 2.523438 1.074219 2.363281 1.828125 3.761719 3.976562 4.566406.375.214844 1.609376.484375 1.988282.484375v1.339844h-2.6875c-.964844 0-1.824219.054687-2.148438.054687-.699218 0-1.394531.109375-1.394531.375-.214844.59375 0 1.023438.265625 1.183594.539062.320313.808594.054687 2.3125.105469.105469 0 1.019531-.050782 3.652344-.050782v1.394532c-.96875.109375-2.3125.96875-3.0625 1.773437-.859375.804688-2.09375 2.363281-2.578125 4.402344-.484375 2.042969-.484375 2.257813-.589844 4.082031-.109375.484375.105469 1.183594.589844 1.183594.699219 0 .859375-.699219.964843-1.238281.269532-2.144531.109376-2.523438.859376-4.347657.753906-1.828124 1.882812-3.007812 2.472656-3.4375.375-.324218.964844-.644531 1.289062-.699218v3.652344c.105469 1.503906-.054687 3.492187.160156 7.035156.054688.804687.375 1.234375.699219 1.234375.375 0 .589844-.429688.75-1.234375.109375-.804688.164063-2.203125.164063-4.132813.105468-1.34375.105468-4.996093 0-6.445312.480468.105469 1.984375 0 3.597656 4.242187.589844 1.609375 1.074219 4.242188.804688 3.0625-.105469-.914062.324218 1.609375.324218 1.714844.105469.324219.375.484375.75.484375s.375-.105469.484375-.375c.214844-.804687.320313-1.019531.054688-2.253906-.378907-2.257813-1.183594-5.210938-2.257813-6.445313-.859375-1.128906-2.738281-2.097656-3.707031-2.203125v-1.398437c.859375-.105469 2.632813-.160156 4.191406-.160156.964844-.105469 1.503907-.105469 1.609375-.644532 0-.484375-.050781-1.179687-2.308594-1.019531l-3.542968.105469v-1.339844s1.824218-.429688 2.308594-.859375c2.417968-1.613281 3.007812-3.976563 2.953124-6.175781 0-.378906-.320312-.59375-.699218-.59375-.480469 0-.589844.214844-.695313.59375-.214843 2.738281-1.398437 4.507812-2.847656 5.101562-.375.214844-.96875.320313-1.234375.320313 0-.914063 0-2.09375 0-2.683594 0-.109375.859375-.054687 1.769531-1.71875.378907-.699219.914063-2.148437 1.128907-4.082031h.214843c.214844-.109375 1.128907-.054688 1.289063-.054688.375 0 1.019531.054688 1.234375-.054687.269531-.160157.269531-.535157.324219-.804688 0-.375-.109376-.804687-.375-.914062-.164063-.105469-.59375 0-.859376 0l-9.617187.054687c-.859375 0-1.664063-.105468-2.09375-.054687-.644531 0-1.074219-.160157-1.074219.164062l-.160156.75c0 .324219.160156.539063.269531.753907.480469.480468.75.265624 1.984375.214843m7.199219 0c0 1.609375-.375 2.953125-1.074219 3.972657-.269531.429687-.484375.589843-.753906.589843-.214844 0-.964844-.054687-1.339844-.429687-1.074218-1.125-1.289062-2.628906-1.398437-4.132813zm0 0" fill="#004f8d"/></g></g><g clip-path="url(#ba)"><g clip-path="url(#bb)"><path d="m171.382812 132.070312c.324219.375-.054687 1.125-.375 1.339844-.429687.109375-.699218-.105468-.96875-.429687-.480468-.535157-.644531-.75-1.664062-2.039063-.269531-.324218-.644531-.753906-.75-.753906l-.160156.429688c-.109375 1.183593.050781 3.652343.480468 8.648437.214844 1.289063.429688 2.792969 1.289063 5.800781.214844.699219.539063 1.878906.644531 1.988282.109375.429687.214844.265624.429688 1.019531.109375.269531.429687 1.019531.429687 1.128906.109375.375-.054687.644531-.484375.75-.429687 0-1.074218-.964844-1.289062-1.503906-1.285156-2.898438-1.878906-4.671875-2.253906-7.035157-.320313-2.148437-.75-4.996093-.914063-10.152343v-3.597657c0-.269531.109375-.484374.324219-.589843.214844-.109375.429687-.054688.644531.160156.859375.699219 2.738281 2.6875 4.617187 4.835937" fill="#004f8d"/></g></g><g clip-path="url(#bc)"><g clip-path="url(#bd)"><path d="m148.558594 118.105469c.050781.320312 2.628906.269531 3.113281.269531 1.933594-.054688 4.835937-.054688 6.445313-.054688.859374 0 1.34375-.324218 1.449218-.914062 0-.535156-.429687-.804688-1.234375-.914062h-8.648437c-.695313-.105469-1.179688.699218-1.179688.699218-.214844.429688.054688.914063.054688.914063" fill="#004f8d"/></g></g><g clip-path="url(#be)"><g clip-path="url(#bf)"><path d="m161.714844 119.125c-.050782 1.398438 1.933594 1.183594 2.632812 1.128906.804688-.054687 1.558594 0 4.027344 0 1.019531 0 .96875-.429687 1.128906 1.449219.160156 1.234375-.269531 2.632813-1.449218 2.6875-3.4375.160156-4.566407-.269531-5.265626.160156-.910156.589844-.375 3.222657-.265624 4.132813.214843 1.398437.480468 17.886718.480468 17.996094 0 .160156.214844 3.21875.429688 3.382812.699218.535156.914062-.378906.914062-.699219.429688-2.46875-.160156-12.191406-.214844-21.644531 0-.699219.109376-1.558594.539063-1.664062.644531-.214844 1.554687-.269532 2.683594-.160157h.324219c1.179687-.109375 2.574218.050781 2.898437-.539062.804687-.914063.484375-3.707031.429687-4.941407-.109374-1.449218-.859374-1.773437-2.042968-1.773437-3.488282 0-2.414063.109375-4.402344 0-.484375 0-.914062-.050781-1.234375-.320313-.214844-.324218-.054687-1.128906 0-2.308593 0-.429688-1.289063-.484375-1.558594.050781-.269531.808594 0 2.148438-.054687 3.0625" fill="#004f8d"/></g></g><g clip-path="url(#bg)"><g clip-path="url(#bh)"><path d="m133.089844 131.371094h4.457031c1.71875-.109375 3.332031-.484375 3.8125-2.363282.808594-2.578124.429687-7.25.269531-9.9375-.105468-2.039062-1.34375-2.738281-2.308594-2.738281-2.417968-.75-4.835937-.804687-7.464843-.269531-1.71875.109375-2.847657.808594-3.117188 2.792969-.589843 2.847656-.269531 8.21875.269531 10.472656.375 1.34375 2.148438 1.828125 4.082032 2.042969m.105468-1.558594c-2.953124-.269531-2.199218-3.222656-2.199218-3.4375 2.09375-.105469 5.101562-.054688 8.808594-.054688 0 0 .265624 3.007813-1.613282 3.332032 0 0-2.203125.375-4.996094.160156m-2.683593-9.34375c.320312-1.933594.644531-2.148438 2.253906-2.6875 1.71875-.320312 3.332031-.375 5.050781 0 1.019532.324219 1.664063.324219 1.878906 1.882812v.964844c-4.027343 0-7.035156.054688-9.128906.160156zm0 2.039062c2.847656-.214843 6.121093-.265624 9.292969-.160156v2.042969l-9.292969.050781zm0 0" fill="#004f8d"/></g></g><g clip-path="url(#bi)"><g clip-path="url(#bj)"><path d="m139.160156 133.304688-2.847656-.109376c0 1.289063.105469 2.847657.105469 4.621094.109375 6.445313 0 10.792969.324219 12.082032.105468.914062.375.753906.859374.699218.484376-.105468.699219-.589844.699219-1.503906-.109375-3.652344.050781-7.355469-.214843-10.632812 1.933593-.109376 3.757812.964843 4.132812 2.683593.808594 2.578125.699219 4.890625.859375 7.519531.054687.914063.59375 1.234376 1.023437 1.019532.320313.109375.695313-.214844.695313-1.289063 0-3.058593-.160156-5.636719-.859375-7.679687-.695312-2.683594-3.167969-4.082032-5.90625-4.082032l-.054688-1.71875 2.632813-.214843c2.253906 0 4.351563-.695313 4.886719-3.488281.214844-1.882813.484375-9.398438.484375-11.28125 0-1.179688.105469-3.113282-.109375-3.542969-.105469-.324219-.75-.484375-.964844-.484375-.214844.109375-.589844.324218-.699219.539062-.105469.214844-.105469.859375-.105469 1.824219 0 3.492187-.269531 12.40625-.59375 13.320313-.589843 1.609374-3.058593 1.449218-4.347656 1.71875" fill="#004f8d"/></g></g><g clip-path="url(#bk)"><g clip-path="url(#bl)"><path d="m131.316406 133.304688 2.847656-.109376c0 1.34375-.109374 2.847657-.109374 4.621094-.105469 6.445313.164062 10.417969-.160157 11.707032-.105469.914062-.535156 1.128906-1.019531 1.074218-.429688-.105468-.699219-.589844-.699219-1.503906.109375-3.652344-.054687-7.355469.214844-10.632812-1.933594-.109376-3.757813.964843-4.136719 2.683593-.804687 2.578125-.695312 4.890625-.859375 7.519531-.050781.914063-.589843 1.234376-1.019531 1.019532-.320312.109375-.695312-.214844-.695312-1.289063 0-3.058593.160156-5.636719.855468-7.679687.699219-2.683594 3.171875-4.082032 5.910156-4.082032l.054688-1.71875h-1.882812c-2.308594 0-5.046876-.910156-5.636719-3.703124-.214844-1.882813-.484375-9.347657-.484375-11.28125 0-1.179688-.105469-3.113282.109375-3.488282.105469-.324218.75-.539062.964843-.539062.214844.109375.644532.054687.75.214844.109376.214843.109376.804687.109376 1.828124 0 3.4375.269531 12.40625.589843 13.316407.589844 1.71875 3.167969 2.257812 4.296875 2.042969" fill="#004f8d"/></g></g><g clip-path="url(#bm)"><g clip-path="url(#bn)"><path d="m83.570312 103.011719 84-.214844.429688-3.917969h-84.75zm0 0" fill="#004f8d"/></g></g><g clip-path="url(#bo)"><g clip-path="url(#bp)"><path d="m186.316406 103.011719 4.457032-30.933594s-3.761719-5.585937-11.871094-5.585937c-6.550782 0-9.023438 2.039062-12.03125 6.230468l-2.792969 17.5625s6.820313 2.84375 8.753906-5.265625c.59375-2.414062 2.417969-11.277343 2.417969-11.277343s.644531-1.128907 2.6875-.96875c2.414062.164062 3.328125 1.128906 3.328125 1.128906l-2.039063 14.554687h-106.882812l-1.984375-14.554687s.910156-.914063 3.328125-1.074219c2.042969-.160156 2.632812.96875 2.632812.96875s1.503907 6.980469 2.417969 11.707031c1.609375 8.21875 8.753907 5.261719 8.753907 5.261719l-2.792969-17.9375c-2.953125-4.136719-5.425781-6.230469-11.976563-6.230469-8.113281 0-11.871094 5.585938-11.871094 5.585938l4.402344 30.9375 9.9375.054687.375 4.671875-9.773437-.054687s2.632812 41.460937 3.597656 49.625c.644531 5.585937 5.425781 6.609375 7.304687 6.824219h2.792969v2.792968h-7.359375s.109375 6.710938.054688 10.042969c0 5.636719 5.15625 6.066406 7.199218 6.066406-.054687 7.304688-.054687 10.3125-.054687 12.191407 0 5.320312 4.457031 5.480468 4.457031 5.480468l22.609375.054688s.054688-31.261719.054688-32.765625c0-1.5 1.773437-5.261719 7.789062-5.261719h23.09375c6.015625 0 7.789063 3.761719 7.789063 5.261719 0 1.503906.054687 32.765625.054687 32.765625l22.609375-.054688s4.457032-.160156 4.457032-5.480468c0-1.878907-.054688-4.886719-.054688-12.191407 2.042969 0 7.199219-.429687 7.253906-6.066406-.054687-3.277344.050782-10.042969.050782-10.042969h-7.410157c0-2.257812-.054687-2.792968-.054687-2.792968h2.257812c1.878906-.214844 7.25-1.238282 7.894532-6.824219.964843-8.164063 3.597656-49.625 3.597656-49.625l-9.773438.054687.320313-4.671875zm-87.007812 90.820312-8.488282.054688s-1.878906.054687-1.878906-1.664063 0-30.773437 0-30.773437h10.367188zm63.375-1.664062c0 1.71875-1.878906 1.664062-1.878906 1.664062l-8.433594-.050781v-32.386719h10.3125zm14.070312-80.292969s-1.773437 35.019531-2.363281 39.3125c-.535156 4.296875-6.765625 4.566406-8.59375 4.566406h-80.023437c-1.878907 0-8.058594-.269531-8.59375-4.566406-.539063-4.292969-2.363282-39.3125-2.363282-39.3125zm-6.015625-12.996094-.535156 8.804688h-88.78125l-.535156-8.804688h-6.929688l-.589843-3.867187h104.945312l-.324219 3.867187zm0 0" fill="#004f8d"/></g></g><g clip-path="url(#bq)"><g clip-path="url(#br)"><path d="m126 218.914062c-51.238281 0-92.863281-41.675781-92.863281-92.914062s41.679687-92.914062 92.863281-92.914062c51.238281 0 92.914062 41.675781 92.914062 92.914062-.050781 51.238281-41.675781 92.914062-92.914062 92.914062m0-183.628906c-50.003906 0-90.660156 40.710938-90.660156 90.714844s40.65625 90.660156 90.660156 90.660156 90.660156-40.65625 90.660156-90.660156-40.65625-90.714844-90.660156-90.714844" fill="#004f8d"/></g></g><g clip-path="url(#bs)"><path d="m128.308594 0c-69.550782-1.289062-126.964844 54.03125-128.2539065 123.636719-1.2890625 69.550781 54.0312505 127.019531 123.5820315 128.308593 69.550781 1.289063 126.96875-54.082031 128.257812-123.636718 1.339844-69.550782-53.980469-127.019532-123.585937-128.308594m-4.671875 246.683594c-66.597657-1.234375-119.5-56.234375-118.320313-122.777344 1.234375-66.597656 56.179688-119.554688 122.722656-118.320312 66.546876 1.234374 119.503907 56.234374 118.269532 122.777343-1.183594 66.597657-56.128906 119.554688-122.671875 118.320313" fill="#004f8d"/></g></svg>