<?xml version="1.0" encoding="UTF-8" standalone="no"?>
<!-- Generator: Adobe Illustrator 24.0.1, SVG Export Plug-In . SVG Version: 6.00 Build 0)  -->

<svg
   version="1.1"
   id="图层_1"
   x="0px"
   y="0px"
   viewBox="0 0 170.87283 170.87283"
   xml:space="preserve"
   sodipodi:docname="zhuhong.svg"
   width="170.87283"
   height="170.87283"
   inkscape:version="1.2 (dc2aedaf03, 2022-05-15)"
   xmlns:inkscape="http://www.inkscape.org/namespaces/inkscape"
   xmlns:sodipodi="http://sodipodi.sourceforge.net/DTD/sodipodi-0.dtd"
   xmlns="http://www.w3.org/2000/svg"
   xmlns:svg="http://www.w3.org/2000/svg"><defs
   id="defs11" /><sodipodi:namedview
   id="namedview9"
   pagecolor="#ffffff"
   bordercolor="#000000"
   borderopacity="0.25"
   inkscape:showpageshadow="2"
   inkscape:pageopacity="0.0"
   inkscape:pagecheckerboard="0"
   inkscape:deskcolor="#d1d1d1"
   showgrid="false"
   inkscape:zoom="1.0841462"
   inkscape:cx="-196.92917"
   inkscape:cy="193.70082"
   inkscape:window-width="1440"
   inkscape:window-height="829"
   inkscape:window-x="-8"
   inkscape:window-y="-8"
   inkscape:window-maximized="1"
   inkscape:current-layer="图层_1" />
<style
   type="text/css"
   id="style2">
	.st0{fill-rule:evenodd;clip-rule:evenodd;fill:#91292B;}
	.st1{fill:#DEDEDE;}
</style>
<path
   class="st0"
   d="m 85.436418,0 c 47.058862,0 85.436422,38.377559 85.436422,85.436418 0,47.058862 -38.37756,85.436422 -85.436422,85.436422 C 38.377559,170.87284 0,132.49528 0,85.436418 0,38.38311 38.38311,0 85.436418,0"
   id="path4"
   style="stroke-width:0.55507" />
<path
   class="st1"
   d="M 143.82426,27.054126 C 128.88177,12.111634 108.23871,2.8697134 85.436418,2.8697134 c -22.802287,0 -43.4398,9.2419206 -58.382292,24.1844126 C 12.111634,41.996618 2.8697134,62.639682 2.8697134,85.436418 c 0,22.802292 9.2419206,43.439802 24.1844126,58.382292 14.942492,14.94249 35.585556,24.18441 58.382292,24.18441 22.802292,0 43.439802,-9.24192 58.382292,-24.18441 14.94249,-14.94249 24.18441,-35.58556 24.18441,-58.382292 0,-22.796736 -9.24192,-43.4398 -24.17886,-58.382292 m 12.13939,78.015124 0.28863,0.0833 c 1.06574,0.27199 1.78178,0.67164 2.13703,1.21006 0.35524,0.53287 0.39965,1.27111 0.13321,2.19808 -0.26088,0.91586 -0.67718,1.53199 -1.2378,1.84838 -0.56063,0.31639 -1.29332,0.34414 -2.20363,0.0833 l -4.3351,-1.24336 c -1.04909,-0.29973 -1.74847,-0.73269 -2.09262,-1.29886 -0.34414,-0.56617 -0.37744,-1.33217 -0.0999,-2.30354 0.26643,-0.92142 0.66608,-1.5209 1.2045,-1.79288 0.47181,-0.24978 1.08239,-0.26088 1.84284,-0.0388 l 0.32194,0.0999 0.28863,0.0833 -0.383,1.33217 -0.28863,-0.0833 c -0.58283,-0.18873 -1.01023,-0.23313 -1.28221,-0.12767 -0.27199,0.0999 -0.47181,0.37745 -0.59948,0.83261 -0.14432,0.50511 -0.12212,0.90476 0.0722,1.2045 0.19427,0.29974 0.58282,0.52732 1.16565,0.69939 l 4.3351,1.24335 c 0.68273,0.19428 1.1823,0.23868 1.49313,0.12212 0.31084,-0.11656 0.53842,-0.42185 0.68274,-0.92697 0.13322,-0.45516 0.0777,-0.82705 -0.16652,-1.10459 -0.23868,-0.28308 -0.69939,-0.51621 -1.37657,-0.69939 l -0.28864,-0.0833 z m 0.18872,9.93021 -9.39734,-3.79668 0.25533,-0.63833 0.26089,-0.64388 9.39734,3.79668 -0.25533,0.63833 z m -8.07072,0.24423 -0.27198,-0.12766 c -0.52732,-0.24423 -0.94362,-0.3386 -1.24891,-0.27199 -0.30529,0.0666 -0.54952,0.30529 -0.73825,0.71049 -0.21092,0.44961 -0.26088,0.82706 -0.14986,1.12124 0.11101,0.29974 0.3941,0.54952 0.84925,0.766 0.36635,0.17207 0.69384,0.21648 0.97693,0.13322 0.28308,-0.0833 0.73269,-0.3608 1.34327,-0.82151 0.94917,-0.72159 1.67631,-1.14899 2.18142,-1.28221 0.50512,-0.12766 1.07684,-0.0444 1.71517,0.24978 0.87701,0.41075 1.43208,0.94362 1.65966,1.59305 0.22758,0.64944 0.13877,1.42654 -0.27753,2.3202 -0.44406,0.96027 -0.98803,1.53199 -1.62081,1.72072 -0.58282,0.17207 -1.33217,0.0444 -2.25359,-0.38855 l -0.24423,-0.12212 -0.27198,-0.12766 0.59392,-1.27667 0.27199,0.12767 c 0.71049,0.34414 1.24891,0.48291 1.5986,0.42185 0.35525,-0.0611 0.64943,-0.33859 0.88811,-0.8437 0.23868,-0.50512 0.29419,-0.92697 0.16652,-1.26556 -0.12766,-0.33305 -0.45515,-0.62168 -0.97692,-0.86591 -0.39965,-0.18873 -0.76045,-0.22758 -1.08239,-0.12767 -0.31639,0.0999 -0.8215,0.4163 -1.51534,0.94362 -0.81595,0.61613 -1.49314,0.99358 -2.03156,1.13789 -0.52731,0.13877 -1.06573,0.0833 -1.61525,-0.17207 -0.81595,-0.37745 -1.32662,-0.88256 -1.53199,-1.49869 -0.20538,-0.62168 -0.10547,-1.35992 0.29418,-2.22583 0.42186,-0.90476 0.89922,-1.44318 1.44319,-1.62636 0.49956,-0.16652 1.15454,-0.0666 1.96495,0.30529 l 0.20537,0.10547 0.27199,0.12766 z m 1.33217,7.4657 c 0.75489,0.48846 1.1934,1.05463 1.30996,1.69851 0.12212,0.63833 -0.0777,1.35437 -0.59392,2.14812 -0.51622,0.79376 -1.08794,1.27112 -1.72072,1.42098 -0.63278,0.14987 -1.32662,-0.0166 -2.08151,-0.50511 l -6.34446,-4.11862 0.37745,-0.57727 0.37745,-0.58283 6.02806,3.91325 c 0.56618,0.36634 1.04354,0.53842 1.43209,0.51621 0.38854,-0.0277 0.71604,-0.24978 0.99357,-0.67163 0.27754,-0.43296 0.35525,-0.82151 0.22203,-1.17675 -0.13322,-0.35525 -0.48846,-0.72159 -1.06574,-1.09349 l -6.02806,-3.91324 0.37745,-0.57728 0.37745,-0.58282 z m -6.62199,13.62142 v 0 l -0.4052,0.49957 -0.4052,0.49956 -7.87645,-6.38331 0.71049,-0.87701 0.71049,-0.87701 7.50455,3.71342 v 0 l -5.22876,-6.52208 0.71049,-0.87701 0.71049,-0.87701 7.87645,6.37776 -0.40521,0.49956 -0.4052,0.49956 -6.83846,-5.5396 v 0 l 5.53405,7.14931 -0.43851,0.54397 -0.4385,0.53842 -8.17619,-3.93545 v 0 z m -7.73213,7.43239 -6.78296,-7.5323 3.29157,-2.96408 0.383,0.42186 0.383,0.4274 -2.25914,2.03711 2.14812,2.3868 2.15923,-1.94274 0.38299,0.42185 0.383,0.4274 -2.15922,1.94275 3.10839,3.45254 -0.51066,0.46071 z m -4.83466,2.42011 c 0.4274,-0.31084 0.64388,-0.66053 0.64943,-1.05463 0.006,-0.3941 -0.19982,-0.87146 -0.61058,-1.44319 l -2.49781,-3.44143 c -0.41075,-0.56617 -0.78265,-0.89367 -1.11014,-0.98248 -0.32749,-0.0888 -0.72159,0.0333 -1.18785,0.36635 -0.42741,0.31084 -0.63833,0.66608 -0.63278,1.07129 0.006,0.4052 0.22758,0.91031 0.66053,1.50979 l 2.19808,3.02513 c 0.50511,0.69384 0.93807,1.11014 1.29886,1.24336 0.3608,0.13876 0.77155,0.0444 1.23226,-0.29419 z m 0.67163,0.92697 c -0.88811,0.64388 -1.643,0.88811 -2.26468,0.73269 -0.62168,-0.15542 -1.31552,-0.7549 -2.07597,-1.80953 l -2.19252,-3.01958 c -0.67164,-0.92142 -0.97138,-1.72072 -0.90477,-2.39235 0.0666,-0.67164 0.51622,-1.30997 1.33772,-1.90945 0.83816,-0.61057 1.5875,-0.8437 2.23694,-0.69383 0.65498,0.14987 1.32661,0.69938 2.0149,1.64855 l 2.50337,3.44144 c 0.58837,0.81595 0.8326,1.53199 0.73824,2.15922 -0.10546,0.62723 -0.56617,1.24336 -1.39323,1.84284 z m -11.43444,2.09261 v 0 l -4.81246,-4.09642 0.69384,-0.36634 0.68828,-0.36635 3.45254,3.24716 v 0.006 l -0.77155,-4.67924 0.62723,-0.33304 0.63278,-0.33859 0.70494,6.26674 2.00935,3.77448 -0.61057,0.32194 -0.61613,0.32749 z m -7.65997,1.9594 v 0 l 1.02133,-0.41075 c 0.64388,-0.26088 1.03243,-0.56062 1.16564,-0.90477 0.13322,-0.33859 0.0611,-0.8548 -0.21092,-1.53754 l 0.0388,0.0944 c -0.21092,-0.51621 -0.47181,-0.8215 -0.7882,-0.92142 -0.31639,-0.0999 -0.7882,-0.0166 -1.42653,0.23868 l -1.02133,0.41076 z m 0.8548,5.83379 -3.79668,-9.39734 0.64389,-0.26088 2.33129,-0.94362 c 0.7771,-0.31639 1.43208,-0.35525 1.9594,-0.12212 0.52732,0.23313 0.95472,0.74935 1.27666,1.5431 l -0.0388,-0.0944 c 0.34414,0.85481 0.38299,1.5653 0.12211,2.11482 -0.17762,0.3719 -0.51066,0.70494 -1.01023,1.00468 0.58283,-0.18872 1.03243,-0.21648 1.34882,-0.0777 0.3719,0.16652 0.7216,0.63278 1.04909,1.40433 0.23868,0.56062 0.45515,1.02133 0.65498,1.38767 l 0.11101,0.20538 c 0.13322,0.23313 0.24423,0.4274 0.3497,0.58837 0.10546,0.16097 0.21648,0.31639 0.34414,0.47736 l -0.67718,0.27199 -0.67164,0.27198 c -0.17762,-0.26088 -0.31639,-0.47181 -0.41075,-0.61612 -0.0944,-0.14987 -0.16652,-0.27199 -0.21648,-0.3719 l -0.0999,-0.19428 c -0.19428,-0.37189 -0.3941,-0.7993 -0.59393,-1.27111 -0.25533,-0.60502 -0.54397,-0.99357 -0.86591,-1.16009 -0.32194,-0.16653 -0.73824,-0.14987 -1.2378,0.0499 l -0.99913,0.4052 1.72072,4.25739 -0.64388,0.26089 z m -5.47299,0.766 c 0.50512,-0.15542 0.82151,-0.41631 0.95472,-0.78265 0.13322,-0.36635 0.0999,-0.88812 -0.11101,-1.5653 l -1.24336,-4.06867 c -0.20537,-0.66608 -0.44961,-1.09904 -0.73269,-1.28776 -0.28309,-0.19427 -0.69384,-0.20538 -1.23781,-0.0389 -0.50511,0.15542 -0.8215,0.42185 -0.94917,0.8104 -0.12766,0.383 -0.0833,0.93252 0.13322,1.64301 l 1.09349,3.57465 c 0.24978,0.8215 0.52731,1.35437 0.82705,1.5986 0.29974,0.24423 0.72159,0.28309 1.26556,0.11657 z m 0.33304,1.09348 c -1.04908,0.32195 -1.84283,0.30529 -2.38125,-0.0444 -0.53842,-0.3497 -0.99357,-1.14345 -1.37657,-2.3868 l -1.09349,-3.57466 c -0.33304,-1.08793 -0.3608,-1.94274 -0.0777,-2.55887 0.28309,-0.61613 0.91587,-1.07129 1.88724,-1.37102 0.99357,-0.30529 1.77622,-0.27754 2.3424,0.0722 0.57172,0.34969 1.02688,1.09348 1.37102,2.21473 l 1.24336,4.06866 c 0.29418,0.96027 0.28863,1.72072 -0.006,2.28134 -0.29419,0.57172 -0.93252,0.99913 -1.90945,1.29886 z m -8.464818,1.88169 -1.870587,-8.79786 -2.281339,0.48291 -0.116564,-0.55507 -0.116565,-0.56062 5.922603,-1.26001 0.11656,0.55507 0.12212,0.56062 -2.281342,0.48291 1.870592,8.79787 -0.67164,0.14431 z m -8.220591,-7.89865 -0.55507,5.53405 2.242484,-0.23313 -1.698515,-5.30092 z m -2.253585,9.16976 1.248908,-10.3243 0.915866,-0.0944 0.921417,-0.0944 3.363726,9.8414 -0.727142,0.0777 -0.738244,0.0777 -0.704939,-2.23693 -2.697642,0.28308 -0.23868,2.33685 -0.671635,0.0722 z m -7.793187,-10.08007 v 0 l 0.732693,-0.0111 0.738243,-0.0111 1.759573,8.60914 1.398777,-8.66464 0.671635,-0.0111 0.677186,-0.0111 -1.959398,10.17444 -0.843707,0.0167 -0.854808,0.0166 z m -5.101096,3.65791 v 0 l 1.093489,0.11657 c 0.693838,0.0722 1.176749,-0.0111 1.454284,-0.24979 0.277535,-0.23868 0.455157,-0.72159 0.532867,-1.45428 l -0.0111,0.0999 c 0.05551,-0.55507 -0.02775,-0.94917 -0.260883,-1.1823 -0.23313,-0.23313 -0.688287,-0.383 -1.371024,-0.45516 l -1.093488,-0.11656 z m -1.981601,5.55625 1.060185,-10.08007 0.693837,0.0722 2.497817,0.26088 c 0.832605,0.0888 1.432081,0.35524 1.787326,0.8104 0.355245,0.44961 0.488462,1.10459 0.399651,1.96495 l 0.0111,-0.0999 c -0.09436,0.92142 -0.3941,1.55975 -0.888112,1.92609 -0.327492,0.24423 -0.78265,0.383 -1.359923,0.41075 0.605027,0.10547 1.015779,0.29419 1.226706,0.56063 0.249781,0.32194 0.338593,0.89921 0.266433,1.73181 -0.05551,0.60503 -0.07771,1.1157 -0.07216,1.532 v 0.23868 c 0.0056,0.26643 0.01665,0.49401 0.0333,0.68274 0.01665,0.18872 0.0444,0.38299 0.07771,0.58282 l -0.721591,-0.0777 -0.721591,-0.0777 c -0.0333,-0.31639 -0.06106,-0.56617 -0.07216,-0.73824 -0.0111,-0.17208 -0.01665,-0.31639 -0.01665,-0.42741 v -0.21648 c 0,-0.42185 0.02775,-0.88811 0.07216,-1.39877 0.06106,-0.64943 -0.01665,-1.13235 -0.222029,-1.43208 -0.205376,-0.29974 -0.577273,-0.47736 -1.115691,-0.53842 l -1.071286,-0.11102 -0.47736,4.56823 -0.693838,-0.0722 z m -6.771857,-1.37657 v 0 l 2.109267,-9.91911 4.440562,0.94362 -0.116565,0.55507 -0.116564,0.56062 -3.086191,-0.65498 -0.666084,3.1417 2.903017,0.61613 -0.116565,0.55507 -0.116564,0.56062 -2.903018,-0.61613 -0.727142,3.42478 3.180553,0.67719 -0.116565,0.55507 -0.116565,0.56062 z m -1.49869,-7.83759 0.08881,-0.28864 c 0.172072,-0.56062 0.205376,-0.98247 0.09436,-1.27111 -0.111014,-0.29419 -0.377448,-0.50511 -0.804852,-0.63278 -0.47736,-0.14432 -0.854808,-0.14432 -1.132343,0.006 -0.277535,0.14987 -0.488462,0.46626 -0.638331,0.94362 -0.116565,0.38855 -0.116565,0.71604 0.0056,0.98803 0.122115,0.26643 0.460708,0.67163 1.004677,1.2156 0.843707,0.83816 1.371024,1.50424 1.570849,1.9816 0.199825,0.48291 0.194275,1.06018 -0.0111,1.73182 -0.283086,0.92697 -0.732693,1.54865 -1.343271,1.86504 -0.610577,0.31639 -1.393226,0.33304 -2.336845,0.0444 -1.010228,-0.31084 -1.65411,-0.766 -1.926094,-1.36547 -0.249782,-0.54952 -0.227579,-1.31552 0.06661,-2.28689 l 0.08881,-0.26088 0.08881,-0.28864 1.34882,0.41075 -0.08881,0.28864 c -0.23868,0.74934 -0.305288,1.29886 -0.199825,1.64301 0.105463,0.34414 0.427404,0.59947 0.960271,0.76044 0.532868,0.16097 0.960272,0.16097 1.271111,-0.0111 0.31084,-0.17207 0.555071,-0.53842 0.721592,-1.08794 0.127666,-0.42185 0.122115,-0.78265 -0.0222,-1.08794 -0.144318,-0.29973 -0.527317,-0.75489 -1.148996,-1.37102 -0.727142,-0.72159 -1.193401,-1.33772 -1.409878,-1.84838 -0.210927,-0.50512 -0.227579,-1.04909 -0.04996,-1.62636 0.260883,-0.86036 0.688287,-1.43763 1.271111,-1.72627 0.588374,-0.28863 1.332168,-0.29418 2.248034,-0.0166 0.954721,0.28864 1.554197,0.68829 1.81508,1.19895 0.23313,0.47181 0.222028,1.1379 -0.0333,1.98715 l -0.07771,0.21648 -0.08881,0.28864 z m -12.616747,2.73649 v 0 l -0.593926,-0.28863 -0.593925,-0.28864 4.446113,-9.11425 0.982475,0.47736 0.988025,0.48291 -1.487589,9.01434 3.835536,-7.86535 0.577273,0.28309 0.577273,0.28309 -4.446113,9.11425 -0.971373,-0.47736 -0.982474,-0.47736 1.482037,-8.95884 z m -5.262067,-3.84663 c 0.449607,0.27198 0.860359,0.33304 1.221155,0.18317 0.366346,-0.14987 0.727142,-0.52177 1.087938,-1.12679 l 2.192527,-3.64681 c 0.360796,-0.59948 0.516216,-1.07129 0.47181,-1.40433 -0.04441,-0.3386 -0.310839,-0.65499 -0.799301,-0.94917 -0.449607,-0.27199 -0.860359,-0.32749 -1.232256,-0.16652 -0.371897,0.16097 -0.749345,0.56062 -1.132344,1.19895 l -1.926094,3.20275 c -0.444056,0.73825 -0.654982,1.29887 -0.63833,1.68187 0.01665,0.3941 0.266433,0.73269 0.754895,1.02688 z m -0.588374,0.97692 c -0.938069,-0.56617 -1.459835,-1.16565 -1.559748,-1.79843 -0.09991,-0.63278 0.183173,-1.50424 0.854808,-2.61993 l 1.926094,-3.20275 c 0.588375,-0.97693 1.204503,-1.5653 1.848384,-1.77068 0.649433,-0.19982 1.409879,-0.0388 2.281339,0.48846 0.893663,0.53287 1.393227,1.13235 1.515342,1.79288 0.122116,0.66053 -0.122115,1.49314 -0.732693,2.50337 l -2.192527,3.64681 c -0.516216,0.86036 -1.082387,1.36547 -1.698515,1.52089 -0.621679,0.15542 -1.365473,-0.0333 -2.242484,-0.56062 z m -2.597729,-5.5396 -0.183173,0.23868 c -0.632781,0.89921 -1.265561,1.42098 -1.89279,1.55975 -0.627229,0.13876 -1.326618,-0.0833 -2.098166,-0.66609 -0.760446,-0.57172 -1.18785,-1.17675 -1.282212,-1.81508 -0.09436,-0.63833 0.144318,-1.33217 0.71049,-2.08706 l 2.714294,-3.60241 c 0.660533,-0.87146 1.309965,-1.37102 1.964948,-1.48759 0.649433,-0.11656 1.376575,0.12767 2.186977,0.7327 0.765997,0.57727 1.176749,1.16564 1.243358,1.76512 0.06661,0.52732 -0.144319,1.10459 -0.621679,1.73182 l -0.210927,0.26643 -0.183173,0.23868 -1.10459,-0.8326 0.183173,-0.23868 c 0.382999,-0.47736 0.577274,-0.86036 0.582824,-1.149 0.0056,-0.28863 -0.183173,-0.57727 -0.566171,-0.86036 -0.421854,-0.31639 -0.804852,-0.4385 -1.148996,-0.36634 -0.349694,0.0722 -0.704939,0.35524 -1.071286,0.83815 l -2.714293,3.60241 c -0.427404,0.56617 -0.643882,1.01578 -0.649433,1.34882 -0.0055,0.33304 0.199826,0.65498 0.621679,0.97137 0.382999,0.28864 0.743794,0.36635 1.093489,0.24423 0.349694,-0.12211 0.732692,-0.47181 1.143444,-1.03243 l 0.183174,-0.23868 z M 30.32349,138.66766 v 0 l -0.460709,-0.47181 -0.460708,-0.47736 7.293623,-7.04384 0.760447,0.78265 0.765997,0.79375 -4.479417,7.9597 6.294497,-6.07802 0.444056,0.46071 0.449607,0.46626 -7.293624,7.03829 -0.754895,-0.7771 -0.760447,-0.78264 4.457215,-7.91531 z m 2.619931,-10.42977 -4.990081,2.46451 1.387675,1.77622 3.596856,-4.24628 z m -8.975486,2.94742 9.419543,-4.41281 0.566171,0.72714 0.571723,0.7327 -6.560931,8.06517 -0.449607,-0.57727 -0.455158,-0.58283 1.526444,-1.78177 -1.670762,-2.13702 -2.109267,1.03798 -0.416303,-0.53287 z m -4.401707,-6.57203 8.503676,-5.52295 0.377448,0.57727 0.377448,0.58283 -3.652363,2.37015 1.598603,2.45896 3.652362,-2.37015 0.377448,0.57727 0.377448,0.58282 -8.503677,5.52295 -0.377448,-0.57727 -0.377447,-0.58282 3.891042,-2.53112 -1.598602,-2.45896 -3.891043,2.52556 -0.377448,-0.57727 z m 0.965822,-3.39148 c -0.799301,0.41075 -1.509791,0.50511 -2.125919,0.28864 -0.616128,-0.21648 -1.132344,-0.7438 -1.565299,-1.58751 -0.427404,-0.8437 -0.55507,-1.57639 -0.366346,-2.20362 0.183173,-0.62723 0.677186,-1.14345 1.482038,-1.54865 l 6.738553,-3.43589 0.310839,0.61613 0.31639,0.62168 -6.39996,3.26381 c -0.599476,0.30529 -0.988025,0.63278 -1.160097,0.98248 -0.172072,0.34969 -0.144318,0.74934 0.08326,1.1934 0.233129,0.46071 0.538418,0.71604 0.910315,0.78265 0.371897,0.0611 0.86591,-0.0611 1.482038,-0.37745 l 6.405511,-3.26381 0.310839,0.61613 0.31639,0.62167 z m -8.070722,-12.66115 9.030993,-4.91793 0.222029,0.63833 0.222028,0.63834 -7.282522,3.76337 8.05962,-1.50424 0.271984,0.7882 0.271985,0.7882 -7.199262,3.72452 v 0 l 7.97636,-1.45983 0.216478,0.63278 0.216477,0.63278 -10.152235,1.66521 -0.260883,-0.7549 -0.260883,-0.75489 7.498999,-3.90215 v 0 l -8.314953,1.53755 -0.260883,-0.7549 z m 5.695021,-60.830156 c 0.610577,0.277535 0.877011,0.444056 1.609704,0.432955 0.560621,-0.0111 1.271111,-0.31084 1.482037,-0.871461 0.149869,-0.39965 0.116565,-0.621679 0.09436,-0.954721 -0.416302,-0.183173 -1.565298,-0.377447 -2.064861,-0.294187 -0.738244,0.122116 -1.254459,0.477361 -1.593052,1.210053 -0.05551,0.122116 0.06661,0.172072 0.177623,0.255333 0.07216,0.06106 0.233129,0.194274 0.294187,0.222028 z M 44.505535,21.40351 c -0.09991,-0.127666 -0.205376,-0.249781 -0.299738,-0.377448 -0.227578,-0.299738 -0.438505,-0.727142 -0.849257,-0.815953 -0.699389,1.071286 -0.988025,2.44786 -1.687414,3.524696 -1.02688,1.570849 -3.430334,2.164774 -2.669888,4.002057 0.105464,0.260883 0.31639,0.277535 0.516216,0.299738 0.915865,0.09991 1.476486,-1.276662 2.064861,-1.865036 0.704939,-0.71049 0.838156,0.466259 -0.09436,1.73737 -0.233129,0.31639 -0.932518,1.309966 -0.777098,1.776225 0.06106,0.183173 0.233129,0.444056 0.31639,0.649432 0.32194,0.760446 0.299738,1.65966 0.299738,2.486715 l 0.0333,1.076836 c 0,0.138768 0.0333,0.0333 -0.02775,0.166521 -2.275788,-0.976923 -3.097292,-4.157476 -4.390606,-6.150178 -0.105463,-0.160971 -0.249781,-0.360796 -0.349694,-0.527317 -0.227579,-0.3941 -0.577273,-0.643882 -0.827055,-0.960272 -0.271984,0.210927 -0.266433,0.138768 -0.505114,0.205376 -0.116564,0.31084 -0.0111,1.043532 0.127667,1.426531 0.194274,0.543969 0.444056,1.004677 0.94917,1.443183 0.877011,0.760446 0.538418,-0.03885 0.7882,1.160096 0.344143,1.676313 1.432081,3.108394 2.569975,4.551577 0.194275,0.244231 0.416303,0.560621 0.621679,0.782649 l 1.248908,1.42098 c 0.210927,0.266434 0.382998,0.432955 0.599476,0.71049 0.155419,0.06661 0.7882,-0.01665 0.971373,-0.04996 0.505114,-0.08326 0.560621,-0.188723 0.660533,-0.649432 0.238681,-1.137894 -0.799301,-2.836409 -0.982474,-3.940999 -0.0333,-0.177622 -0.04441,-0.327491 -0.05551,-0.494012 -0.0111,-0.15542 0.01665,-0.344144 -0.02775,-0.47181 -0.06661,-0.188724 -0.810402,-0.699389 -0.577273,-0.94917 0.127667,-0.133217 -0.116564,0.07216 0.03885,-0.03885 0.23313,-0.166521 1.204503,-0.188724 1.759573,-1.493139 0.105463,-0.255333 0.122116,-0.455158 0.166521,-0.682737 0.183173,0.194275 0.249782,0.227579 0.360796,0.47181 0.222028,0.494013 -0.177623,1.010228 -0.194275,1.448734 -0.01665,0.549519 0.166521,0.499563 0.621679,0.47736 0.371897,-0.01665 0.682736,0.0333 0.882562,0.521766 -0.0111,0.0333 0,0.0222 -0.04996,0.09991 -0.02775,0.04441 -0.0333,0.04996 -0.07216,0.08881 l -0.405201,0.466259 c -0.460708,0.577273 -0.938069,1.34327 -0.366346,2.064861 0.471809,-0.03885 0.79375,-0.299738 1.237806,-0.538418 0.06106,-0.0333 0.144319,-0.07216 0.205376,-0.08881 0.0056,0 0.08881,-0.0222 0.09991,-0.0222 0.06661,-0.0111 0.0111,-0.0111 0.07216,-0.0056 -0.266434,0.666085 0.227579,2.092615 1.215604,2.031558 0.355245,-0.0222 0.538418,-0.166521 0.899214,-0.455158 -0.416303,-0.649432 -0.505114,-1.032431 -0.63278,-1.65966 -0.166521,-0.810403 -0.194275,-0.94917 -0.649432,-1.665211 0.138767,-0.111014 0.216477,-0.127666 0.371897,-0.249782 0.127666,-0.09991 0.249781,-0.199825 0.377447,-0.299737 0.47181,-0.371898 0.899214,-0.78265 1.304416,-1.221155 0.549519,-0.588375 1.037981,-1.243358 1.476487,-1.89279 0.155419,-0.233129 0.277535,-0.444056 0.405201,-0.638331 0.127666,-0.194274 0.255332,-0.39965 0.366346,-0.621678 -0.0111,-0.0056 -0.01665,-0.0111 -0.02775,-0.01665 -0.205376,-0.149869 0.08326,0.09436 -0.07216,-0.05551 -0.338593,-0.327492 -0.571723,-1.060185 -1.082387,-1.110141 -0.188724,0.188724 -0.271985,0.382998 -0.399651,0.582824 -0.849258,1.365473 -1.321067,3.091741 -2.908568,3.940999 -0.127667,-0.166521 -0.149869,-0.283086 -0.177623,-0.449607 -0.02775,-0.194275 -0.0333,-0.244231 0.0333,-0.438506 0.09991,-0.283086 0.288637,-0.516215 0.499564,-0.799301 0.366346,-0.488462 0.799301,-1.082387 0.416302,-1.676312 -0.199825,-0.08881 -0.194274,-0.0056 -0.432954,-0.188724 -0.133217,-0.09991 -0.255333,-0.205376 -0.377448,-0.299738 -0.521766,0.31639 -0.432955,1.043532 -0.54952,1.465386 -0.05551,0.210926 -0.438505,0.688287 -0.588374,0.327491 -0.183174,-0.432955 -0.160971,-1.110141 -0.0222,-1.548646 0.15542,-0.499563 0.227579,-0.227579 0.577273,-0.405201 0.227579,-0.116565 0.31639,-0.521766 0.360796,-0.71049 0.188724,-0.754896 0.260883,-1.476487 0.283085,-2.270238 0.01665,-0.63278 -0.155419,-1.115691 -0.810402,-1.298864 -0.532868,-0.149869 -1.143445,0.122115 -1.58195,0.593925 -0.599476,0.638331 -0.821504,1.332169 -0.932519,1.415429 -0.32194,-0.127666 -0.55507,-0.499563 -0.799301,-0.821504 0.08881,-0.421853 0.910316,-1.42653 1.1823,-1.887239 0.07771,-0.122115 0.310839,-0.482911 0.271984,-0.616128 z m -0.305288,4.779155 c 0.05551,-0.07771 0.07771,-0.155419 0.133217,-0.227579 0.133216,-0.188723 0.516215,-0.455157 0.71049,-0.605026 0.39965,0.521766 0.499563,1.271111 0.0222,1.698515 -0.344143,-0.111014 -0.571722,-0.494013 -0.865909,-0.86591 z m -6.760756,-0.299738 0.08326,0.105464 c 0.205376,0.260883 0.954721,0.116564 1.26001,-0.122116 0.344143,-0.271984 0.521766,-0.499563 0.588374,-0.960271 0.03885,-0.277535 0.0333,-0.538419 0.01665,-0.854809 -0.0222,-0.394099 -0.122115,-1.398777 0.23313,-1.681863 0.172072,-0.133216 0.283086,-0.255332 0.516215,-0.23868 0.07771,0.527317 0.05551,0.3941 -0.0055,0.926968 -0.09991,0.832605 -0.07771,0.838156 0.32194,1.143444 0.754896,-0.643881 1.287763,-2.930771 1.948297,-3.990955 0.15542,-0.249782 0.199825,-0.138768 -0.105463,-0.532867 -0.355245,-0.449607 -1.071286,-0.743795 -1.665211,-0.693838 -0.277535,0.0222 -0.488462,0.04996 -0.543969,0.216477 -0.360796,1.137894 -0.266434,0.993576 -0.87146,2.225832 -0.199826,0.405201 -0.410752,0.727142 -0.621679,1.076836 -0.455158,0.754896 -0.938069,1.232256 -1.176749,2.198079 -0.06106,0.255332 -0.188724,0.910315 0.0222,1.182299 z m 12.666704,8.326055 c 0.116564,0.144318 0.593925,0.0111 0.79375,-0.07771 0.127666,-0.05551 0.277535,-0.127666 0.416303,-0.205376 0.432955,-0.244231 1.065735,-0.743794 1.409878,-1.10459 0.122116,-0.127666 0.266434,-0.260883 0.382999,-0.371897 0.571722,-0.543969 0.654983,-0.516216 0.421853,-0.815954 -0.371897,-0.471809 -0.821504,-0.582823 -1.287763,-0.549519 -1.1823,0.08881 -2.464512,1.332169 -2.436758,2.320194 0.0111,0.444056 0.07216,0.510664 0.299738,0.804852 z m -6.105774,-5.034488 c -0.449607,0.210927 -0.882561,-0.505114 -1.043532,-0.838156 -0.0444,-0.08881 -0.177622,-0.31639 -0.116564,-0.3941 l 0.460708,-0.360796 c 0.116565,-0.0333 0.305289,0.127667 0.39965,0.244231 0.299738,0.366347 0.199826,0.94362 0.299738,1.348821 z M 74.806822,18.089741 c -0.122115,-0.188724 -0.127666,-0.172072 -0.371897,-0.172072 -0.699388,0.0111 -1.953847,0.04996 -2.397904,0.494012 -0.138767,0.133217 -0.355245,0.543969 -0.105463,0.7882 0.149869,0.144318 0.510665,0.210927 0.771548,0.266434 0.288636,0.06661 0.55507,0.188724 0.649432,0.460708 0.05551,0.15542 -0.01665,0.294187 -0.02775,0.460709 -0.06661,1.004677 0.371897,1.204502 0.249781,2.492265 -0.271984,0.04996 -0.616128,0.133217 -0.777098,0.0056 -0.133217,-0.105464 -0.205376,-0.566172 -0.15542,-0.727142 0.116565,-0.388549 0.749345,-0.499564 0.416303,-1.187851 -0.07216,-0.05551 -0.355245,-0.138767 -0.449607,-0.183173 -0.582824,-0.249781 -1.021329,-0.621679 -1.598603,-0.926967 -0.588374,-0.31084 -1.543095,-0.355245 -1.526443,-0.04996 0.0056,0.06661 0,0.0222 0.0222,0.07216 l 0.216477,0.427404 c 0.427405,0.938068 0.971373,3.602406 1.620806,4.163027 1.171198,-0.216478 2.980727,0.16097 3.541348,0 0.06106,-0.255333 0.09436,-0.582824 0.149869,-0.888113 0.266434,-1.387675 0.532867,-3.308219 0.149869,-4.668141 -0.08326,-0.288636 -0.23313,-0.599476 -0.377448,-0.827054 z M 68.057168,7.7931868 c 0.105463,0.5772731 0.105463,0.7215914 0.843706,1.2211546 0.111014,0.07771 0.305289,0.2386802 0.399651,0.3496943 0.233129,0.2719844 0.255332,0.410752 0.321941,0.4940125 0.23868,-0.016652 0.432955,-0.083261 0.638331,-0.2386802 0.588374,-0.4329548 0.649432,-1.2600095 0.765997,-1.8872389 0.0444,-0.2553324 -0.244231,-0.5106647 -0.444057,-0.6771858 -0.660533,-0.5384182 -1.74292,-0.8881124 -2.325744,-0.1165647 -0.105464,0.1498689 -0.249782,0.5994759 -0.199825,0.8548082 z m -0.571723,3.3526242 c 0.04996,1.643008 1.643008,1.02688 2.225832,1.10459 0.0056,0.06106 -0.04996,0.599476 -0.04996,0.882562 0.0111,0.860359 0.333042,1.326618 0.47736,2.014905 0.08326,0.382999 0.111014,0.721591 0.16097,1.060184 -0.23868,-0.02775 -1.204502,0.355245 -1.470936,0.466259 -1.215604,0.494013 -2.647685,1.742921 -4.274041,1.437632 -0.266434,-0.04996 -0.388549,-0.133216 -0.671635,0.02775 -0.915866,0.521766 -1.082387,1.670761 -0.666084,2.514468 0.299738,0.616128 0.505114,0.638331 1.276661,0.377448 0.893663,-0.299738 1.537545,-0.960272 2.592179,-1.315517 0.127666,-0.04441 0.771547,-0.172071 0.827054,-0.216477 0.166521,-0.127666 0.0333,-0.488462 0.160971,-0.649432 0.07216,-0.08881 0.654983,-0.166521 0.843706,-0.216478 2.436759,-0.660533 5.040039,-2.76425 6.849568,-3.102842 -0.04441,-1.015779 -0.577273,-1.509792 -0.610578,-1.604154 -0.438505,0.183174 -1.309965,0.38855 -2.075962,0.727143 -0.15542,0.06661 -0.510665,0.255332 -0.643882,0.277535 0.03885,-0.560621 0.188724,-0.7882 0.166521,-1.076837 -0.06661,-0.893663 -0.638331,-0.838156 -0.893663,-1.260009 -0.138768,-0.23313 -0.02775,-0.277535 0.01665,-0.505114 0.07771,-0.427404 0.116565,-0.7882 -0.111014,-1.176749 -0.538418,-0.899214 -2.220281,-0.738244 -3.169451,-0.344144 -0.355245,0.144318 -0.732693,0.360796 -0.960272,0.577273 z m 35.308025,-4.1519254 -0.43851,-0.1609704 -0.0722,0.011101 c -0.006,0 -0.0611,0.00555 -0.0722,0.00555 -0.14432,0.016652 -0.383,0.1332169 -0.4163,0.1831732 -0.0333,0.055507 0.0666,0.4773604 0.0111,0.8492575 -0.0389,0.3052887 -0.21093,0.6660844 -0.3941,0.915866 -0.34969,0.4773604 -0.7882,0.7382435 -1.23226,1.0768364 -0.316385,0.2386807 -0.654978,0.4551577 -0.949165,0.7271417 -0.327492,0.305289 0.31639,0.371898 -0.144319,2.142572 -0.310839,1.18785 -0.87146,2.758699 -0.471809,3.669014 0.08881,0.205376 0.06661,0.160971 0.344143,0.255333 0.54952,0.194274 0.904765,0.23868 1.44873,0.288636 0.28309,0.02775 0.58283,0.02775 0.89367,0.06106 1.54309,0.15542 0.50511,0.266434 1.47648,-0.188724 1.07684,-0.505114 2.38126,-0.194275 3.24161,-0.760446 0.39965,-0.266434 0.65499,-0.555071 0.88257,-1.187851 -0.0222,-0.04996 0.006,0.0056 -0.0333,-0.06106 -0.27753,-0.482912 -0.33304,-0.555071 -0.53842,-1.137894 -0.13876,-0.399651 -0.51066,-0.843707 -0.97692,-1.015779 -0.74379,0.63278 -0.84371,1.776225 -1.61525,2.403454 -0.18318,0.149869 -0.46626,0.31639 -0.78265,0.31639 0.0944,-0.133217 0.21092,-0.222028 0.27753,-0.416302 0.0444,-0.127667 0.0833,-0.377448 0.10546,-0.516216 0.0222,-0.177622 0.0666,-0.327491 -0.0222,-0.455157 -0.0833,-0.127667 -0.21092,-0.227579 -0.33859,-0.31084 -0.49956,-0.333042 -1.45984,-0.593925 -2.13702,-0.838156 0.0833,-0.654983 0,-0.727142 -0.12767,-1.298864 -0.0333,-0.144319 -0.0555,-0.277536 -0.0888,-0.421854 0.16652,-0.144318 0.3719,-0.205376 0.56617,-0.305288 l 0.57173,-0.316391 c 0.92696,-0.466259 1.55974,-1.2267049 1.48203,-2.2979906 -0.0222,-0.2830858 -0.0777,-0.71049 -0.19427,-0.9769237 -0.0555,-0.1276662 -0.0999,-0.1165648 -0.21093,-0.1998253 -0.006,-0.00555 -0.0166,-0.011101 -0.0222,-0.016652 -0.006,-0.00555 -0.0166,-0.011101 -0.0222,-0.016652 0.0166,0.011101 0.006,0 0,-0.00555 z m -1.55975,13.4715554 c 0.36079,0.08881 1.04908,0.105464 1.33772,0.03331 0.65498,-0.166521 0.97692,-0.62723 1.11569,-1.293314 -0.49956,-0.177623 -0.81595,-0.355245 -1.2156,-0.593925 -0.11657,-0.06661 -1.01578,-0.577273 -1.14345,-0.621679 -1.08794,-0.3941 -0.73269,-0.382999 -1.27666,0 -0.960273,0.671635 -2.325746,0.765997 -3.513596,0.804852 -1.531994,0.05551 -2.786453,0.08326 -4.007608,0.993576 -0.0055,0.449607 0.31639,0.810402 0.654983,1.037981 0.460709,0.310839 0.510665,0.249782 0.693838,0.177623 0.543969,-0.222029 1.071286,-0.355245 1.670762,-0.466259 0.371897,-0.06661 0.682736,-0.08326 1.03243,-0.127667 0.188724,-0.0222 0.344144,-0.0222 0.527317,-0.03885 0.160971,-0.01665 0.355245,-0.0333 0.505114,-0.0222 -0.06661,0.149869 -0.344143,0.371897 -0.47181,0.510664 -0.605026,0.660534 -0.938068,0.965823 -0.893663,1.953848 0.532868,0.288636 0.849258,0.377447 1.476487,-0.133217 0.255333,-0.210927 0.654983,-0.543969 1.02688,-0.438506 0.260883,0.149869 -0.416302,1.65411 -0.482911,1.998253 -0.01665,0.08326 -0.04996,0.244231 -0.04996,0.321941 0.0056,0.194275 0.03886,0.111014 0.188724,0.216477 0.16097,0.116565 0.255332,0.294188 0.510664,0.349695 0.477361,0.111014 1.099039,-0.838156 1.237809,-1.215604 0.24978,-0.682737 0.48846,-1.415429 0.64943,-2.13147 0.0833,-0.405201 0.27199,-0.888113 0.42741,-1.315517 z m -3.025135,-0.277535 c 0.216478,-0.183173 0.432955,-0.06661 0.716041,-0.05551 0.399651,0.0111 0.421853,-0.210927 0.582824,-0.283086 0.460708,0.23313 -0.07216,1.093489 -0.299738,1.382125 -0.08881,0.111014 -0.04441,0.105464 -0.149869,0.111014 -0.111014,0.02775 -0.360796,-0.08881 -0.438506,-0.16097 -0.09436,-0.08881 -0.149869,-0.194275 -0.177622,-0.310839 -0.16097,-0.671635 -0.09991,-0.344144 -0.23313,-0.682737 z m -4.174128,-6.771857 c -0.09436,0.266434 -0.138768,0.371897 -0.188724,0.682736 -0.0222,0.138768 -0.0333,0.271985 -0.04441,0.3941 -0.03885,0.410752 0.04441,1.049083 0.188724,1.426531 0.07216,0.177622 0.08881,0.138767 0.299738,0.233129 0.266434,0.116565 0.749345,0.47181 1.049083,0.216478 0.133217,-0.111014 0.271984,-0.238681 0.421853,-0.382999 0.144319,-0.138767 0.283086,-0.271984 0.399651,-0.410752 0.111014,-0.133217 0.266434,-0.294187 0.377448,-0.466259 0.09991,0.133217 0.47181,0.199825 0.638331,0.205376 0.621678,0.0111 0.616128,-0.482911 0.410752,-0.782649 -0.333043,-0.494013 -0.843707,-0.521766 -1.354372,-0.605027 -0.410752,-0.06661 -0.371897,0.0111 -0.505114,-0.210926 -0.310839,-0.527317 -0.449607,-0.71049 -0.943619,-0.888113 -0.271985,-0.105463 -0.649433,0.305289 -0.749345,0.588375 z m 3.907695,-0.444056 0.04996,0.0056 c 0.122115,-0.299738 0.438505,-0.610577 0.571722,-1.254459 0.08881,-0.427404 0.138768,-0.838156 0.07771,-1.237806 -0.08326,-0.5328678 -0.510664,-1.3821253 -0.804852,-1.3266183 -0.03885,0.00555 -0.3941,0.2497816 -0.455157,0.2886365 -0.466259,0.3052887 -0.904765,0.7881998 -1.115692,1.3654728 -0.06106,0.172072 -0.07216,0.172072 -0.0111,0.299738 0.04996,0.09991 0.08881,0.133217 0.138768,0.23313 0.310839,0.63278 0.605026,1.282212 1.548646,1.626356 z m 5.617308,9.824744 c 0.0666,-0.194275 0.0888,-0.416303 -0.0499,-0.555071 -1.25446,-1.243357 -2.59218,-0.177622 -2.86972,1.148996 -0.0833,0.39965 -0.0444,0.732693 0.0999,1.037981 0.0999,0.205376 0.11656,0.271985 0.37189,0.194275 0.16652,-0.04996 0.29974,-0.122116 0.43851,-0.227579 0.12766,-0.08881 0.28308,-0.227579 0.3941,-0.327491 0.24978,-0.238681 0.49956,-0.455158 0.8326,-0.543969 0.64389,-0.166521 0.3719,0.416302 0.78265,-0.727142 z m -3.5802,-8.009665 c 0.18872,-0.527316 1.03243,-0.31639 1.49869,-0.0333 -0.13322,0.366347 -0.32749,0.516216 -0.61058,0.538418 -0.17762,0.01665 -0.68273,-0.0333 -0.899212,-0.105463 0.0111,-0.149869 -0.04996,-0.23313 0.0111,-0.399651 z m 34.77515,9.291877 c -0.57727,-0.571722 -0.49956,-1.049083 -0.95472,-1.493139 -0.0722,-0.07216 -0.38855,-0.299738 -0.47736,-0.327492 -0.16652,-0.0444 -0.33304,0.07216 -0.48291,0.183174 -0.30529,0.233129 -0.67163,0.593925 -0.93807,0.249781 -0.3719,-0.47181 0.82706,-1.243357 0.18317,-1.931644 -0.56062,0.07771 -0.83815,0.127666 -1.38212,0.371897 -1.07684,0.488462 -2.65879,1.609704 -1.95385,2.975176 0.14987,0.288637 0.28864,0.432955 0.55507,0.699389 0.13877,-0.07771 0.27754,-0.09991 0.44961,-0.188724 0.62168,-0.327491 1.22115,-0.765997 1.83173,-0.654983 0.27199,0.04996 0.26644,0.08326 0.37745,0.333042 0.33859,0.777099 0.97692,1.137894 1.67631,1.426531 1.06019,0.438505 2.3868,0.244231 2.79756,0.31639 -0.70494,0.849258 -3.09175,1.160097 -3.941,1.443183 0.49401,1.121242 2.22583,1.432081 3.24716,1.415429 0.90476,-0.01665 2.06486,-0.266434 2.73094,-1.049083 0.41076,-0.482911 0.63278,-1.337719 0.12212,-1.842833 -1.07129,-1.060184 -3.21941,-1.315517 -3.84109,-1.926094 z m -14.36522,9.702628 0.21648,0.210927 c 0.0777,0.01665 0.15542,0.08326 0.23868,0.122116 0.22203,0.09991 0.41075,0.149869 0.64943,0.227578 0.69939,0.222029 0.49957,0.449607 0.84371,0.560621 0.32194,-0.188723 0.19983,-0.444056 0.39965,-0.532867 0.21093,-0.08326 0.34414,0.260883 1.05463,0.427404 0.85481,0.199825 1.82064,-0.06661 2.60884,-0.31639 0.18317,-0.06106 0.34414,-0.07771 0.49956,-0.149869 0.4385,0.427404 0.94917,0.63278 1.39322,0.721591 0.42186,-0.421853 0.69384,-1.065735 0.71049,-1.487588 0.0167,-0.449607 -0.16097,-0.988025 -0.58282,-1.454284 0.14432,-0.227579 0.3497,-0.294187 0.51067,-0.743794 0.0833,-0.23313 0.0999,-0.466259 0.12211,-0.721592 0.22203,-2.275788 1.21005,-1.021329 1.99825,-1.704065 2.56443,-2.236934 -4.10197,-3.169452 -5.18435,-5.162154 -0.0389,0.0222 -0.14987,0.105463 -0.18318,0.122115 -0.0888,0.04441 -0.006,0.0111 -0.10546,0.02775 -0.0722,0.0111 -0.0277,-0.01665 -0.10546,0.01665 -0.35525,0.366346 -0.41075,0.832605 -0.31639,1.165648 0.12766,0.466259 0.36079,0.677185 0.80485,1.115691 0.74379,0.738243 1.5764,1.054633 2.29799,1.537545 -0.64388,0.510664 -0.7549,1.454284 -0.99358,2.042658 -0.25533,0.610578 -1.03243,1.26001 -1.30996,1.093489 -0.58282,-0.355245 -1.61526,-1.670762 -2.52002,-0.427404 -0.15542,0.210926 -0.13877,0.288636 -0.05,0.516215 0.18873,0.494013 0.7327,0.704939 1.1268,1.160097 0.0833,0.09436 0.0888,0.138767 0.14431,0.23868 -0.50511,0.510665 -0.59947,0.532868 -1.12679,0.538418 -0.34969,0 -0.766,-0.116565 -1.12679,-0.188724 -0.67719,-0.133217 -1.51534,-0.333042 -2.23693,0.399651 0.0999,0.521766 0.16652,0.432955 0.22202,0.643881 z m 32.91567,17.873264 -0.28863,-0.577273 c -0.14432,-0.288637 -0.15542,-0.693838 -0.22203,-0.938069 -1.1823,-0.599476 -0.61613,-0.716041 -1.46539,-0.321941 -0.13877,0.06661 -0.15542,0.03886 -0.27198,0.09991 -0.35525,0.177622 -1.13235,0.510664 -1.02688,1.015778 0.0444,0.216478 0.64388,0.532868 0.78265,0.599476 0.41075,0.205376 1.40432,0.638331 1.64855,1.126793 0.11102,0.216477 0.31084,0.621679 0.26089,0.882562 -0.48846,0.23868 -0.58838,-0.07216 -1.40433,0.349694 -0.0444,0.682736 0.0166,0.971373 0.74935,1.332169 0.7993,0.394099 1.09348,0.449606 1.49313,1.254458 0.0555,0.105464 0.0611,0.216478 0.11657,0.344144 0.22203,-0.02775 0.23313,0.04996 0.79375,-0.04996 0.36635,-0.06661 0.75489,-0.238681 1.09904,-0.499564 0.10546,-0.08326 0.383,-0.338592 0.42185,-0.444056 0.0999,-0.260883 -0.32194,-1.087938 -0.45516,-1.348821 -0.0944,-0.188724 -0.42185,-0.605026 -0.54396,-0.743794 -0.3497,-0.39965 -1.47094,-1.648559 -1.68742,-2.081513 z m -11.21242,-2.908569 c -0.61613,0.305289 -1.37657,0.510665 -1.57085,0.610578 -0.47736,0.23868 -0.71604,0.310839 -1.03798,0.777098 -0.17207,0.249782 -0.19982,0.388549 -0.0999,0.682737 0.14432,0.394099 0.383,0.671635 0.72159,0.904764 0.33859,0.23868 0.18872,0.216477 0.88256,-0.127666 0.0888,-0.04441 0.0555,-0.06106 0.16097,-0.116565 l 1.75958,-0.882562 c 0.0833,-0.0444 0.061,0.0056 0.18872,-0.06106 l 2.19808,-1.099039 c 0.0722,-0.0333 0.25533,-0.543969 0.28863,-0.649433 0.0833,-0.255332 0.14432,-0.410752 0.17763,-0.71049 0.0277,-0.283086 0,-0.543969 -0.0777,-0.788199 -0.0833,-0.255333 -0.05,-0.271985 -0.25534,-0.338593 -0.72159,-0.222028 -1.39877,0.222028 -1.95939,0.688287 -0.23868,0.194274 -0.44961,0.382998 -0.66054,0.560621 -0.11101,0.09436 -0.22758,0.188724 -0.34414,0.277535 -0.0777,0.06106 -0.32194,0.244231 -0.3719,0.271984 z m 9.60272,-2.642134 c -0.26089,-0.0111 -0.74935,0.133217 -0.99358,0.266434 -0.35524,0.188723 -0.32749,0.288636 -0.24978,0.827054 0.0833,0.566172 -0.4274,0.477361 -1.14344,0.993576 -0.56063,0.405201 -0.32195,0.499563 -1.23226,-0.0222 -0.14987,-0.08326 -0.24423,-0.138767 -0.41075,-0.149869 -0.34415,-0.01665 -0.69384,0.09436 -0.83816,0.421854 -0.13322,0.305288 -0.0999,1.11014 -0.006,1.404328 0.0722,0.216477 0.38855,0.233129 0.57727,0.271984 0.0944,0.0222 0.12212,0.0333 0.22203,0.04441 0.27754,0.0333 0.57728,0.04441 0.92142,-0.0056 1.53199,-0.216478 3.60796,-1.309966 3.49694,-2.986278 -0.0222,-0.410752 -0.12766,-0.621679 -0.34414,-1.065735 z m -4.51272,5.889296 c -0.53842,0.266433 -0.31639,0.233129 -0.62168,0.521766 0.0722,0.122115 0.58282,0.621678 0.7771,0.849257 0.23868,0.277535 0.53286,0.610577 0.74379,0.87146 0.3941,0.494013 0.71049,0.815954 1.12124,1.248909 0.0888,0.09436 0.0944,0.127666 0.22758,0.09991 0.61058,-0.127666 0.766,-0.438505 1.02688,-0.910315 -0.72714,-0.344144 -2.21473,-3.208306 -3.27491,-2.680989 z m 10.06342,-1.459835 c -0.32749,0.166521 -0.28309,0.127666 -0.56617,0.455157 -0.14432,0.166521 -0.14432,0.288637 -0.3497,0.3941 -0.33859,0.166521 -1.07128,-0.244231 -1.06573,0.460709 0.0111,0.999126 1.14344,1.654109 2.04266,1.210053 0.59947,-0.299738 0.94362,-1.448734 0.57172,-2.198079 -0.11101,-0.233129 -0.41075,-0.432954 -0.63278,-0.32194 z m -11.90626,11.501056 0.90477,-0.455158 c 0.0499,-0.08881 0.50511,-0.288636 0.7882,-0.810402 0.16652,-0.305289 0.23313,-0.660534 0.0722,-1.071286 -0.0611,-0.16097 -0.11102,-0.16097 -0.22758,-0.194275 -0.61613,-0.166521 -1.27111,0.288637 -1.90944,0.160971 -0.29974,-0.06106 -0.67719,-0.3941 -0.79375,-0.7882 -0.19428,-0.643881 -0.0333,-1.054634 0.32194,-1.531994 0.061,-0.08326 0.29973,-0.366346 0.35524,-0.382998 0.23868,-0.07216 1.30442,0.566171 1.9594,0.510664 0.41075,-0.03886 0.80485,-0.288636 0.98802,-0.610577 0.35525,-0.610577 0.19428,-1.432081 -0.35524,-2.186977 -0.19983,-0.277535 -0.52177,-0.616128 -0.8104,-0.810403 -0.52177,-0.355245 -1.50979,-0.760446 -1.9816,-0.172071 -0.26089,0.327491 -0.0833,0.560621 -0.65499,0.849257 -0.23313,-0.15542 -0.57172,-0.333042 -0.86036,-0.366346 -0.38855,-0.03886 -0.68273,0.04996 -0.97137,0.338593 -0.26643,0.266433 -0.4163,0.788199 -0.3941,1.171198 0.0389,0.593925 0.3941,1.215604 0.88811,1.526443 0.0944,0.06106 0.16097,0.08881 0.24423,0.177623 -0.51066,0.566171 -0.67718,0.549519 -1.22115,1.376574 -0.12767,0.188724 -0.11656,0.194275 -0.0666,0.432955 0.22758,1.049083 0.83261,1.887239 1.62081,2.569975 0.64943,0.560621 0.62168,0.621679 1.14899,0.527317 0.16097,-0.02775 0.29974,-0.06661 0.47181,-0.116565 l 0.4052,-0.133217 z m -126.539369,-2.386802 0.06106,0.02775 c 0.266434,-0.07771 0.499564,-0.08881 0.799301,-0.327491 0.877012,-0.699389 1.143445,-1.426531 1.937196,-2.192528 0.94917,1.243358 3.746724,0.194275 3.785579,2.253586 -0.588374,-0.260884 -1.054633,-0.505114 -1.609704,-0.621679 -0.777098,-0.15542 -1.409878,0.03885 -1.792877,0.677186 -0.105463,0.177622 -0.08326,0.222028 -0.01665,0.344143 0.277535,0.527317 0.494013,0.899214 1.032431,1.365473 0.960271,0.838156 2.947423,1.865036 4.035361,0.732693 0.382998,-0.399651 0.532867,-1.065735 0.588374,-1.526443 0.160971,-1.315517 -0.210926,-3.352625 -0.510664,-4.623736 -0.05551,-0.227579 -0.116565,-0.421853 -0.166521,-0.63278 -0.05551,-0.23313 -0.216478,-0.371897 0.0222,-0.621679 0.199826,-0.210927 0.366347,-0.438505 0.08326,-0.599476 -0.432955,-0.244231 -1.010228,-0.743794 -1.459835,-0.682736 -0.122115,0.01665 -0.15542,0.09991 -0.23868,0.222028 -0.760446,1.093488 0.421853,1.482038 0.04996,2.414556 -0.288636,-0.133217 -0.47181,-0.222028 -0.55507,-0.499564 -0.138768,-0.482911 0.0056,-1.043532 -0.283086,-1.34327 -0.15542,-0.16097 -0.54952,-0.205376 -0.738243,-0.155419 -0.488462,0.127666 -0.299738,1.015778 -0.754896,1.254459 -0.133217,0.06661 -0.527317,0.04996 -0.71049,0.0222 -0.349694,-0.04996 -0.482911,-0.172071 -0.7882,-0.310839 0.532868,-0.605027 -0.09436,-1.432081 0.199826,-2.409005 0.271984,-0.0333 0.388549,-0.266434 0.643881,-0.327492 0.210927,-0.04996 0.610577,0.133217 0.882562,0.210927 2.325744,0.671635 4.945676,1.148996 7.376884,0.704939 0.244231,-0.0444 0.832605,-0.199825 1.065735,-0.288636 0.138767,-0.04996 0.210927,-0.09991 0.344143,-0.15542 0.621679,-0.23868 1.626356,-1.043532 1.792877,-1.615254 -0.471809,-0.47181 -1.520892,-0.915866 -2.231382,-1.243358 -0.488462,-0.222028 -1.221155,-0.621678 -1.587501,-0.971373 -0.111014,-0.105463 -0.266434,-0.310839 -0.382999,-0.388549 -0.255332,0.116565 -0.510664,0.15542 -0.754895,0.360796 -0.111014,0.09436 -0.23313,0.260883 -0.288637,0.3941 -0.08881,0.222028 0.0222,0.266433 0.166521,0.382998 0.466259,0.366347 1.587501,0.666084 1.41543,1.254459 -0.427405,0.271984 -1.121242,0.333042 -1.73737,0.333042 -1.093489,0.0056 -2.869714,-0.460708 -4.013159,-0.699388 -0.743794,-0.15542 -1.276661,-0.210927 -1.97605,-0.227579 -0.704939,-0.01665 -0.654983,-0.527317 -0.843707,-0.94917 -0.05551,-0.122116 -0.149869,-0.260883 -0.294187,-0.355245 -0.743794,-0.494013 -1.143445,0.349694 -1.698515,0.460708 -1.376574,0.266434 -3.113944,-1.154546 -4.612634,-1.043532 -0.255332,0.01665 -0.271984,-0.04441 -0.399651,0.233129 -0.388549,0.843707 -0.210926,1.554197 0.338593,2.231383 0.371897,0.460708 1.881689,-0.144318 2.092615,1.065735 0.210927,1.210053 -1.071285,2.858612 -0.593925,3.990955 0.177623,0.421854 1.137894,0.222028 1.609704,-0.299738 0.649432,-0.732693 0.677186,-1.981601 0.527317,-2.869713 -0.02775,-0.160971 -0.05551,-0.288637 -0.111014,-0.432955 -0.05551,-0.149869 -0.127667,-0.277535 -0.138768,-0.432955 0.63278,0.04996 1.143445,0.277535 1.681863,0.699389 0.233129,0.183173 0.255332,0.183173 0.23868,0.460708 -0.127666,1.870587 -1.654109,3.258263 -2.003804,4.795807 -0.177622,0.777099 -0.07771,1.276662 0.438506,1.837283 z M 73.136061,27.858978 C 60.424951,32.754697 51.088669,40.99194 46.698063,52.320925 40.941984,67.191258 44.14474,84.642668 55.062972,96.326897 v 0.0056 C 39.287875,89.371866 34.142373,71.23772 34.7474,55.384913 43.012396,41.502605 56.822545,31.305964 73.136061,27.858978 Z m 24.478599,0 c 12.71111,4.895719 22.04739,13.132962 26.43245,24.461947 5.75608,14.870333 2.55332,32.321743 -8.36491,44.005972 v 0.0056 C 131.45174,89.371866 136.6028,71.23772 135.99777,55.384913 127.73832,41.502605 113.92263,31.305964 97.61466,27.858978 Z M 57.227746,119.6232 v 0 c 0,0 -9.208616,1.83173 -19.34975,0.61057 1.692965,2.3091 3.55245,4.49052 5.556254,6.52763 3.857738,-0.0722 8.919979,-0.69384 13.321687,-1.78177 l -0.271985,3.08619 c 20.354427,-5.90595 38.904876,-5.66172 57.799468,0.33859 l -0.29974,-3.42478 c 4.40171,1.08793 9.46395,1.70961 13.32169,1.78177 2.0038,-2.03711 3.86329,-4.21853 5.55625,-6.52763 -10.14668,1.22671 -19.34975,-0.61057 -19.34975,-0.61057 v 0 c -9.34183,-2.07042 -18.58375,-3.69677 -28.103205,-3.69122 -9.380688,0.006 -18.683666,1.2045 -28.180919,3.69122 z M 84.970159,95.538697 h 0.821504 V 48.668563 c 0,-2.636584 0.277535,-5.817137 1.631907,-7.826491 -2.508918,2.120368 -2.453411,4.806908 -2.453411,7.732129 z m -2.075963,0 H 83.7157 V 50.911046 c 0,-5.084443 0.01665,-9.741483 4.884619,-11.106956 -1.543096,2.397904 -1.559748,6.694148 -1.559748,11.057 v 44.677607 h 0.821504 V 50.133948 c 0,-6.955031 0.643882,-10.141134 3.502494,-11.462201 -6.044716,0.144318 -8.470373,2.952974 -8.470373,9.430644 z M 81.639737,53.958382 v -5.017835 c 0.01665,-7.937505 2.7587,-11.473303 10.518582,-11.473303 4.435012,0 8.215041,1.198952 11.906261,3.635711 -5.994762,-0.882562 -14.948046,-0.371898 -14.948046,10.618494 v 2.236933 h 18.689216 l 0.88256,10.141134 h 3.20276 l 0.53842,6.189034 h -3.20276 l 0.65498,7.499 h 3.20276 l 0.53842,6.189033 h -3.20276 l 0.64943,7.499 h 3.20276 l 0.53842,6.189033 h -3.20276 l 0.25533,2.964074 c 16.41343,-3.746723 25.87738,-21.225886 26.84875,-40.120478 2.66989,5.700571 4.45167,11.900707 5.17326,18.422782 -4.75695,12.261503 -14.24866,24.783886 -31.5724,26.837646 l 0.12212,1.38768 v 0 c 10.09117,-1.15455 23.26854,-5.63397 31.79442,-23.251896 0.0111,0.510665 0.0222,1.02688 0.0222,1.543096 0,6.216787 -0.96583,12.205995 -2.75315,17.83441 -7.88755,7.61556 -18.42834,9.57496 -28.63608,8.75901 l 0.11657,1.36547 c 7.80428,0.66053 19.4219,-0.0666 27.11518,-6.20014 -1.50979,3.79113 -3.40258,7.38799 -5.62841,10.74617 -5.28982,1.17119 -14.21535,1.72071 -21.05937,0.36634 -9.38624,-2.04266 -18.506044,-3.63016 -27.992195,-3.62461 -9.358485,0.006 -18.106392,1.25446 -28.069904,3.62461 v 0 0 c -6.844017,1.35437 -15.769547,0.80485 -21.059367,-0.36634 -2.225831,-3.35818 -4.118621,-6.95504 -5.628412,-10.74617 7.693274,6.13353 19.310895,6.86622 27.115183,6.20014 l 0.0056,0.0111 0.122115,-1.38212 -0.0055,0.006 c -10.202192,0.81595 -20.748528,-1.14345 -28.636076,-8.75901 -1.787327,-5.628415 -2.753149,-11.617623 -2.753149,-17.83441 0,-0.516216 0.0056,-1.032431 0.0222,-1.543096 8.525879,17.623486 21.697697,22.097346 31.794426,23.251896 l 0.0055,0.0167 0.122116,-1.39878 v 0 C 41.125157,103.72043 31.622354,91.198048 26.865402,78.936545 27.586993,72.414469 29.368769,66.214334 32.038657,60.513762 33.01003,79.408355 42.49063,96.887518 58.904059,100.63424 v 0 l 0.260883,-2.969624 h -3.202756 l 0.538418,-6.189033 h 3.202756 l 0.654983,-7.499 h -3.202756 l 0.538418,-6.189033 h 3.202756 l 0.654983,-7.499 h -3.202756 l 0.538418,-6.189034 h 3.202756 l 0.882562,-10.141134 z m -0.71049,41.580315 h 0.71049 V 54.069396 c -4.002056,0.765997 -7.060494,2.597729 -8.165083,6.966132 -0.976924,3.857739 0.671635,6.055817 0.865909,9.430645 0.04441,0.71604 -0.122115,1.531994 -0.660533,2.631033 0.577273,0.210926 1.115691,0.388549 1.598602,0.566171 1.5764,0.582824 2.164774,1.826182 2.303542,3.813333 0.116564,1.65411 -0.07771,3.558001 -0.538419,5.1344 -0.549519,1.881689 -2.020455,4.312896 -5.262066,3.241611 0.305289,1.049083 0.754896,2.414556 0.266434,3.86884 -0.538418,1.81508 -2.20918,5.051139 -2.20918,8.653545 0,7.587814 7.854245,10.984844 15.541968,10.984844 7.687724,0 15.541969,-3.39148 15.541969,-10.984844 0,-3.596855 -1.676313,-6.838465 -2.209181,-8.653545 -0.488462,-1.454284 -0.0333,-2.819757 0.266434,-3.86884 -3.24161,1.071285 -4.712547,-1.359922 -5.262066,-3.241611 -0.460709,-1.58195 -0.654983,-3.48029 -0.538418,-5.1344 0.138767,-1.987151 0.727142,-3.230509 2.303541,-3.813333 0.482911,-0.177622 1.02133,-0.355245 1.598603,-0.566171 -0.543969,-1.099039 -0.70494,-1.914993 -0.660534,-2.631033 0.194275,-3.374828 1.842833,-5.572906 0.86591,-9.430645 -1.010228,-3.968752 -4.34065,-6.183483 -8.170635,-6.966132 v 41.469301 h 0.71049 v 1.565299 H 89.16094 c -2.120369,1.654109 -2.347948,5.162154 -2.847511,10.252144 h -0.7882 -0.283085 -0.7882 C 83.94883,102.26615 83.726802,98.763656 81.606433,97.103996 h -0.666084 v -1.565299 z m 10.152236,23.113123 c 0,-0.24978 -0.04996,-0.43295 -0.149869,-0.53841 -0.09991,-0.10547 -0.266434,-0.16097 -0.499563,-0.16097 -0.210927,0 -0.371897,0.0666 -0.482911,0.19427 -0.111015,0.12767 -0.160971,0.31639 -0.15542,0.55507 v 0.14987 h -0.660534 v -0.14987 c -0.02775,-0.4163 0.07216,-0.73824 0.299738,-0.96582 0.222028,-0.22758 0.55507,-0.33859 0.999127,-0.33859 0.427404,0 0.749345,0.0999 0.971373,0.28863 0.222028,0.19428 0.333042,0.47736 0.333042,0.84926 v 0.14987 c 0,0.43295 -0.09436,0.73824 -0.294187,0.91586 -0.111014,0.10547 -0.266434,0.17763 -0.477361,0.21648 0.222028,0.0389 0.388549,0.11102 0.494013,0.21093 0.183173,0.17207 0.271984,0.50511 0.271984,0.99357 v 0.28309 c 0,0.43295 -0.116565,0.76045 -0.349694,0.98247 -0.23313,0.21648 -0.582824,0.3275 -1.049083,0.3275 -0.427404,0 -0.749345,-0.11657 -0.971373,-0.35525 -0.222028,-0.23868 -0.327491,-0.57172 -0.310839,-1.00468 v -0.14987 h 0.654983 v 0.14987 c -0.0056,0.27199 0.0444,0.47181 0.144318,0.60503 0.09991,0.13322 0.260883,0.19427 0.47181,0.19427 0.255332,0 0.449607,-0.0722 0.571722,-0.21092 0.122115,-0.13877 0.183173,-0.3497 0.183173,-0.63833 v -0.28309 c 0,-0.25533 -0.06106,-0.45516 -0.183173,-0.59947 -0.122115,-0.14432 -0.294187,-0.21648 -0.510665,-0.21648 H 90.18782 v -0.58283 h 0.06661 c 0.283086,0 0.488462,-0.061 0.621679,-0.17762 0.127666,-0.11656 0.194275,-0.30529 0.194275,-0.55507 v -0.13877 z m -2.941873,2.39791 c 0,0.57172 -0.09436,0.97692 -0.288636,1.2156 -0.194275,0.23313 -0.527317,0.3497 -0.999127,0.3497 -0.466259,0 -0.79375,-0.0833 -0.976923,-0.25534 -0.183174,-0.17207 -0.288637,-0.48291 -0.31084,-0.93251 v -0.14987 h 0.654983 v 0.14987 c 0.01665,0.21647 0.06661,0.37189 0.15542,0.47181 0.08881,0.0999 0.227579,0.14986 0.410752,0.14986 0.277535,0 0.466259,-0.0722 0.560621,-0.22202 0.09436,-0.14987 0.144318,-0.43296 0.144318,-0.86591 v -0.3386 c 0,-0.31639 -0.0444,-0.54397 -0.133217,-0.66608 -0.08881,-0.12767 -0.244231,-0.18872 -0.466259,-0.18872 -0.216477,0 -0.371897,0.0555 -0.47736,0.17207 -0.105464,0.11656 -0.15542,0.28308 -0.149869,0.51621 h -0.677186 l 0.04441,-2.99738 h 2.381251 v 0.57173 h -1.781775 l -0.0222,1.6208 c 0.111014,-0.11101 0.205376,-0.19427 0.283086,-0.24978 0.166521,-0.12212 0.371897,-0.18317 0.616128,-0.18317 0.382998,0 0.654983,0.11101 0.804852,0.32749 0.149869,0.22203 0.227578,0.61057 0.227578,1.17675 v 0.32749 z m -4.390606,-2.08707 c 0,-0.383 -0.04996,-0.64388 -0.144318,-0.78265 -0.09436,-0.13876 -0.277535,-0.20537 -0.543969,-0.20537 -0.249781,0 -0.427404,0.0777 -0.532867,0.22758 -0.105464,0.14987 -0.160971,0.4052 -0.160971,0.76044 v 0.19428 c 0,0.33304 0.05551,0.57727 0.160971,0.72714 0.111014,0.14987 0.283086,0.22203 0.527317,0.22203 0.227578,0 0.3941,-0.0833 0.510664,-0.24423 0.116565,-0.16097 0.177623,-0.39965 0.177623,-0.71049 v -0.18873 z m -0.738243,3.65237 c -0.460708,0 -0.793751,-0.10547 -0.999127,-0.32194 -0.205376,-0.21648 -0.294187,-0.55508 -0.271984,-1.02689 v -0.10546 h 0.654983 v 0.10546 c 0,0.26089 0.04996,0.45516 0.15542,0.59393 0.105463,0.13322 0.260883,0.19983 0.460708,0.19983 0.338593,0 0.54952,-0.11657 0.638331,-0.34415 0.07771,-0.20537 0.116565,-0.67163 0.127666,-1.39322 -0.294187,0.24423 -0.599476,0.36079 -0.921417,0.36079 -0.410752,0 -0.699388,-0.11656 -0.877011,-0.34969 -0.172072,-0.23313 -0.260883,-0.61613 -0.260883,-1.16565 v -0.19428 c 0,-0.52731 0.111014,-0.92141 0.327492,-1.1823 0.222028,-0.26088 0.549519,-0.39409 0.993576,-0.39409 0.538418,0 0.904764,0.14431 1.093488,0.43295 0.188724,0.28864 0.283086,0.84371 0.277535,1.67631 v 0.61058 c 0,0.98247 -0.09991,1.64301 -0.294187,1.9816 -0.188724,0.34414 -0.55507,0.51622 -1.10459,0.51622 z m -3.24161,-0.0777 v -4.29625 l -0.127667,0.0944 c -0.166521,0.12212 -0.377447,0.24979 -0.63278,0.37745 v -0.61058 c 0.194275,-0.0999 0.349695,-0.19982 0.477361,-0.28863 0.127666,-0.0944 0.266433,-0.21648 0.421853,-0.3719 h 0.527317 v 5.09 h -0.327492 -0.338592 z m 21.453469,11.14026 c -5.456344,-0.766 -9.241923,-4.08532 -10.141137,-8.46483 1.171198,0.0722 2.342397,0.16098 3.519146,0.27754 l 0.0055,0.0555 c 0.266434,2.7698 2.05376,6.44436 6.616441,8.13178 z m -31.694516,0 c 5.45079,-0.766 9.230819,-4.07422 10.135583,-8.44262 -1.176749,0.0777 -2.347947,0.17207 -3.519145,0.29418 -0.260883,2.77536 -2.04821,6.45547 -6.616438,8.14844 z m 15.847256,10.64069 c 15.49201,0 29.5797,-5.98365 40.09273,-15.76399 -2.7254,-0.21648 -5.45079,-0.61058 -8.61469,-1.23226 -4.95678,10.80167 -24.711733,9.75814 -27.209549,-2.18142 -2.864163,-0.12767 -5.706123,-0.12212 -8.536981,0.0111 -2.514468,11.92846 -22.258318,12.97199 -27.209545,2.17032 -3.15835,0.62168 -5.889296,1.01023 -8.614691,1.23226 10.50748,9.78034 24.600715,15.76399 40.092726,15.76399 z M 73.474654,29.14119 c 2.05931,1.865036 4.568228,2.803105 7.043841,3.330422 6.671945,1.42653 12.47243,-0.893664 17.756699,5.13995 -8.376011,-2.264686 -11.756389,0.810403 -18.106393,-1.315516 -2.891916,-0.965822 -5.37308,-3.014032 -6.694147,-7.154856 z M 85.436418,0 c 23.590492,0 44.955142,9.563861 60.413852,25.022568 15.45871,15.464259 25.02257,36.823363 25.02257,60.41385 0,23.590492 -9.56386,44.955142 -25.02257,60.413852 -15.45871,15.45871 -36.82336,25.02257 -60.413852,25.02257 -23.590487,0 -44.955142,-9.56386 -60.41385,-25.02257 C 9.563861,130.39156 0,109.03246 0,85.436418 0,61.84038 9.563861,40.486827 25.022568,25.022568 40.486827,9.563861 61.845931,0 85.436418,0 Z"
   id="path6"
   style="stroke-width:0.55507" />
</svg>
