<?xml version="1.0" encoding="UTF-8"?>
<svg xmlns="http://www.w3.org/2000/svg" xmlns:xlink="http://www.w3.org/1999/xlink" width="252px" height="252px" viewBox="0 0 252 252" version="1.1">
<g id="surface1">
<path style=" stroke:none;fill-rule:nonzero;fill:rgb(6.666667%,34.117648%,25.098041%);fill-opacity:1;" d="M 126.035156 0 C 56.429688 0 0 56.429688 0 126.035156 C 0 195.640625 56.429688 252.074219 126.035156 252.074219 C 195.648438 252.074219 252.074219 195.640625 252.074219 126.035156 C 252.074219 56.429688 195.648438 0 126.035156 0 "/>
<path style=" stroke:none;fill-rule:nonzero;fill:rgb(100%,100%,100%);fill-opacity:1;" d="M 126.035156 209.714844 C 79.820312 209.714844 42.359375 172.253906 42.359375 126.042969 C 42.359375 79.828125 79.820312 42.367188 126.035156 42.367188 C 172.246094 42.367188 209.707031 79.828125 209.707031 126.042969 C 209.707031 172.253906 172.246094 209.714844 126.035156 209.714844 "/>
<path style=" stroke:none;fill-rule:nonzero;fill:rgb(6.666667%,34.117648%,25.098041%);fill-opacity:1;" d="M 104.109375 197.316406 L 104.109375 192.757812 L 104.152344 190.503906 L 103.953125 190.34375 L 100.582031 190.953125 L 100.582031 191.714844 L 100.765625 191.695312 C 101.09375 191.667969 101.992188 191.609375 102.242188 191.773438 C 102.523438 191.957031 102.574219 192.511719 102.582031 192.589844 L 102.582031 197.316406 C 102.582031 198.160156 102.566406 198.890625 102.550781 199.75 L 100.359375 199.753906 L 100.351562 200.628906 L 106.265625 200.628906 L 106.273438 199.746094 L 104.136719 199.75 C 104.125 198.875 104.109375 198.160156 104.109375 197.316406 "/>
<path style=" stroke:none;fill-rule:nonzero;fill:rgb(6.666667%,34.117648%,25.098041%);fill-opacity:1;" d="M 118.199219 200.183594 C 117.011719 200.183594 116.253906 199.378906 116.253906 198.082031 C 116.253906 197.054688 116.699219 196.453125 117.617188 195.824219 C 119.472656 196.699219 120.03125 197.367188 120.03125 198.308594 C 120.03125 199.425781 119.339844 200.183594 118.199219 200.183594 M 116.519531 192.359375 C 116.519531 191.355469 117.304688 190.726562 118.199219 190.726562 C 119.203125 190.726562 119.761719 191.53125 119.761719 192.582031 C 119.761719 193.457031 119.472656 194.105469 118.644531 194.796875 C 116.945312 193.992188 116.519531 193.210938 116.519531 192.359375 M 119.605469 195.265625 C 119.539062 195.199219 119.425781 195.109375 119.40625 195.019531 C 119.382812 194.863281 119.605469 194.683594 119.628906 194.664062 C 120.679688 193.992188 121.058594 193.230469 121.058594 192.515625 C 121.058594 191.175781 120.03125 190.148438 118.21875 190.148438 C 116.519531 190.148438 115.179688 191.175781 115.179688 192.808594 C 115.179688 193.835938 115.671875 194.707031 116.789062 195.402344 C 116.855469 195.445312 116.945312 195.535156 116.921875 195.625 C 116.902344 195.714844 116.765625 195.824219 116.746094 195.847656 C 115.515625 196.453125 114.867188 197.210938 114.867188 198.285156 C 114.867188 199.828125 116.097656 200.722656 118.109375 200.722656 C 120.144531 200.722656 121.507812 199.625 121.507812 198.015625 C 121.507812 196.808594 120.902344 196.003906 119.605469 195.265625 "/>
<path style=" stroke:none;fill-rule:nonzero;fill:rgb(6.666667%,34.117648%,25.098041%);fill-opacity:1;" d="M 135.078125 194.839844 C 135.078125 194.839844 135.078125 194.953125 135.011719 195.085938 C 134.964844 195.222656 134.832031 195.332031 134.765625 195.402344 C 134.382812 195.625 133.980469 195.734375 133.488281 195.734375 C 132.28125 195.734375 131.410156 194.910156 131.410156 193.210938 C 131.410156 191.554688 132.261719 190.726562 133.242188 190.726562 C 134.339844 190.726562 135.101562 191.777344 135.101562 194.371094 C 135.101562 194.527344 135.078125 194.683594 135.078125 194.839844 M 133.265625 190.144531 C 131.34375 190.144531 129.867188 191.398438 129.847656 193.410156 C 129.847656 195.355469 131.1875 196.496094 132.929688 196.496094 C 133.445312 196.496094 133.894531 196.40625 134.292969 196.226562 C 134.363281 196.207031 134.539062 196.160156 134.652344 196.226562 C 134.785156 196.316406 134.765625 196.585938 134.742188 196.742188 L 134.71875 196.832031 C 134.160156 198.464844 132.910156 199.605469 130.671875 200.363281 L 130.761719 200.8125 C 134.742188 199.917969 136.6875 197.390625 136.6875 194.328125 C 136.6875 191.757812 135.414062 190.144531 133.265625 190.144531 "/>
<path style=" stroke:none;fill-rule:nonzero;fill:rgb(6.666667%,34.117648%,25.098041%);fill-opacity:1;" d="M 149.097656 195.175781 C 150.652344 194.761719 151.410156 193.816406 151.410156 192.632812 C 151.410156 191.175781 150.296875 190.144531 148.367188 190.144531 C 146.867188 190.144531 145.058594 191.1875 145.355469 192.261719 C 145.496094 192.632812 145.785156 192.761719 146.097656 192.761719 C 146.582031 192.761719 146.855469 192.503906 146.996094 191.847656 L 147.101562 191.453125 C 147.101562 191.453125 147.269531 191.152344 147.492188 190.984375 C 147.78125 190.761719 148.242188 190.753906 148.351562 190.757812 C 149.324219 190.886719 149.882812 191.566406 149.882812 192.675781 C 149.882812 194.117188 148.996094 194.890625 147.625 194.890625 L 147.039062 194.890625 L 147.039062 195.515625 L 147.742188 195.515625 C 149.324219 195.515625 150.140625 196.34375 150.140625 197.832031 C 150.140625 199.226562 149.421875 200.054688 148.054688 200.152344 L 148.078125 200.148438 C 148.078125 200.148438 147.660156 200.15625 147.320312 200.023438 C 147.046875 199.914062 146.839844 199.511719 146.804688 199.445312 L 146.699219 199.003906 C 146.511719 198.230469 146.300781 197.816406 145.785156 197.796875 C 145.425781 197.78125 145.039062 197.941406 145.039062 198.460938 C 145.160156 200.109375 146.425781 200.730469 148.140625 200.730469 C 150.3125 200.730469 151.726562 199.488281 151.726562 197.773438 C 151.726562 196.445312 150.941406 195.476562 149.097656 195.175781 "/>
<path style=" stroke:none;fill-rule:nonzero;fill:rgb(100%,100%,100%);fill-opacity:1;" d="M 174.644531 209.003906 C 174.601562 209.167969 174.515625 209.363281 174.269531 209.457031 C 174.023438 209.546875 173.871094 209.46875 173.828125 209.441406 C 173.785156 209.414062 173.695312 209.332031 173.835938 209.140625 C 173.980469 208.945312 174.234375 208.765625 174.363281 208.742188 C 174.488281 208.71875 174.6875 208.84375 174.644531 209.003906 M 173.761719 211.648438 C 173.671875 211.914062 173.527344 212.316406 173.203125 212.402344 C 172.875 212.488281 172.691406 212.390625 172.648438 212.21875 C 172.605469 212.03125 172.695312 211.433594 173.164062 211.148438 C 173.519531 210.925781 173.855469 211.382812 173.761719 211.648438 M 175.859375 206.304688 C 175.277344 205.988281 174.589844 205.726562 174.371094 205.890625 C 174.148438 206.050781 174.046875 206.042969 173.816406 206.417969 C 173.582031 206.789062 173.234375 207.644531 172.851562 207.148438 C 172.46875 206.65625 172.152344 205.851562 171.832031 205.648438 C 171.515625 205.445312 171.074219 205.417969 170.722656 205.460938 C 170.371094 205.503906 170.046875 205.4375 170.03125 205.683594 C 170.015625 205.925781 170.1875 206.882812 170.378906 207.421875 C 170.570312 207.960938 170.835938 208.566406 170.605469 208.875 C 170.371094 209.1875 169.183594 209.28125 169.035156 209.476562 C 168.886719 209.675781 168.5625 210.0625 168.890625 210.289062 C 169.21875 210.519531 169.804688 210.808594 169.816406 211.09375 C 169.824219 211.378906 169.601562 212.089844 169.8125 212.40625 C 170.023438 212.71875 170.621094 212.996094 170.917969 212.453125 C 171.21875 211.90625 171.726562 211.964844 171.667969 212.421875 C 171.609375 212.875 171.644531 213.265625 171.066406 213.773438 C 170.484375 214.28125 169.542969 214.503906 170.167969 214.890625 C 170.796875 215.277344 171.28125 215.445312 171.335938 215.910156 C 171.394531 216.375 171.332031 216.59375 171.210938 216.757812 C 171.085938 216.925781 171.0625 217.105469 171.414062 217.203125 C 171.773438 217.304688 171.980469 217.203125 172.210938 217.09375 C 172.441406 216.980469 172.769531 216.832031 172.871094 217.15625 C 172.976562 217.476562 173.039062 217.695312 172.980469 217.820312 C 172.953125 217.871094 172.445312 218.214844 172.152344 218.867188 C 171.742188 219.777344 171.160156 221.070312 170.339844 221.925781 C 168.96875 223.351562 168.894531 223.585938 168.460938 223.730469 C 168.109375 223.84375 168.039062 223.789062 167.941406 223.871094 C 167.839844 223.953125 167.785156 224.222656 167.863281 224.34375 C 167.945312 224.464844 168.304688 225.394531 169.128906 225.355469 C 169.953125 225.3125 170.847656 225.042969 171.351562 224.332031 C 171.851562 223.617188 174.425781 216.710938 174.796875 216.253906 C 175.167969 215.800781 175.824219 215.75 175.878906 215.976562 C 175.933594 216.203125 176.011719 216.757812 175.621094 217.425781 C 175.230469 218.097656 174.816406 218.5 174.804688 218.652344 C 174.800781 218.804688 175.09375 219.269531 175.257812 219.730469 C 175.410156 220.152344 175.34375 220.359375 175.585938 220.648438 C 175.828125 220.9375 176.101562 221.1875 176.113281 221.25 C 176.125 221.316406 175.820312 222.136719 175.246094 223.234375 C 174.667969 224.335938 174.519531 224.53125 174.242188 224.785156 C 173.964844 225.042969 173.628906 225.207031 173.648438 225.378906 C 173.667969 225.550781 173.921875 225.902344 174.339844 225.929688 C 174.757812 225.953125 175.09375 225.902344 175.289062 225.675781 C 175.488281 225.449219 175.71875 224.691406 176.152344 223.929688 C 176.582031 223.171875 176.679688 222.839844 176.820312 222.730469 C 176.960938 222.625 177.539062 222.703125 177.773438 223.15625 C 178.007812 223.609375 178.101562 224.085938 177.757812 224.636719 C 177.410156 225.1875 176.773438 225.523438 176.746094 225.652344 C 176.714844 225.78125 176.863281 226.316406 177.71875 226.3125 C 178.570312 226.308594 178.867188 226.050781 179.226562 225.863281 C 179.582031 225.679688 180.019531 225.753906 180.277344 225.496094 C 180.53125 225.242188 180.777344 224.335938 180.367188 223.496094 C 179.957031 222.65625 179.730469 222.28125 179.410156 221.890625 C 179.09375 221.5 178.34375 220.640625 178.804688 220.140625 C 179.261719 219.640625 179.445312 219.507812 179.65625 219.425781 C 179.871094 219.339844 180.363281 218.804688 180.210938 218.425781 C 180.0625 218.046875 179.585938 217.703125 179.347656 217.863281 C 179.105469 218.027344 178.859375 218.773438 178.53125 219.113281 C 178.199219 219.453125 177.71875 219.917969 177.257812 219.570312 C 176.800781 219.222656 176.417969 218.789062 176.367188 218.601562 C 176.3125 218.417969 176.761719 217.863281 177.082031 217.0625 C 177.40625 216.257812 177.980469 214.460938 177.664062 213.570312 C 177.351562 212.683594 176.917969 212.59375 176.707031 212.679688 C 176.496094 212.761719 175.585938 213.398438 175.273438 213 C 174.960938 212.601562 174.984375 212.144531 175.363281 211.285156 C 175.738281 210.421875 175.851562 209.785156 175.855469 209.511719 C 175.855469 209.238281 175.828125 208.96875 176.125 208.699219 C 176.421875 208.429688 177.085938 208.121094 176.859375 207.5625 C 176.628906 207 176.441406 206.625 175.859375 206.304688 "/>
<path style=" stroke:none;fill-rule:nonzero;fill:rgb(100%,100%,100%);fill-opacity:1;" d="M 167.257812 220.058594 C 167.230469 220.019531 167.257812 219.859375 167.40625 219.746094 C 167.550781 219.636719 167.824219 218.882812 167.265625 218.230469 C 166.707031 217.578125 165.941406 216.925781 165.882812 216.753906 C 165.824219 216.585938 165.796875 216.355469 166.222656 216.125 C 166.648438 215.894531 166.902344 215.699219 166.832031 215.390625 C 166.765625 215.085938 166.632812 215.015625 166.742188 214.832031 C 166.847656 214.648438 167.070312 214.410156 167.875 214.675781 C 168.683594 214.941406 169.195312 215.527344 169.328125 215.710938 C 169.460938 215.890625 169.621094 216.144531 169.429688 216.742188 C 169.242188 217.339844 168.792969 217.96875 168.855469 218.28125 C 168.917969 218.59375 169.167969 218.78125 169.1875 218.953125 C 169.207031 219.125 169.234375 220.128906 168.964844 220.460938 C 168.695312 220.789062 168.171875 220.738281 167.828125 220.511719 C 167.480469 220.289062 167.359375 220.191406 167.257812 220.058594 "/>
<path style=" stroke:none;fill-rule:nonzero;fill:rgb(100%,100%,100%);fill-opacity:1;" d="M 82.734375 217.851562 C 82.445312 218.550781 82.179688 219.015625 82.023438 219.140625 C 81.863281 219.257812 81.664062 218.851562 81.613281 218.53125 C 81.5625 218.238281 81.460938 217.984375 81.625 217.414062 C 81.796875 216.847656 82.054688 216.503906 82.273438 216.394531 C 82.496094 216.28125 82.84375 216.382812 82.925781 216.539062 C 83.007812 216.695312 83.019531 217.15625 82.734375 217.851562 M 80.789062 216.867188 C 80.742188 217.25 80.195312 218.019531 79.941406 218.113281 C 79.757812 218.1875 79.574219 218.195312 78.949219 217.710938 C 78.335938 217.222656 78.171875 216.464844 78.308594 216.347656 C 78.445312 216.230469 78.648438 216.121094 79.148438 216.144531 C 79.675781 216.164062 80.140625 216.246094 80.46875 216.382812 C 80.789062 216.511719 80.824219 216.566406 80.789062 216.867188 M 89.160156 209.199219 C 89.554688 208.507812 89.671875 208.398438 89.515625 208.015625 C 89.355469 207.609375 88.863281 207.078125 88.53125 206.742188 C 88.195312 206.40625 87.878906 206.316406 87.542969 206.230469 C 87.207031 206.160156 87.121094 206.40625 87.097656 206.496094 C 87.078125 206.605469 86.988281 207.363281 86.566406 208.664062 C 86.160156 209.957031 84.613281 213.359375 84.328125 213.890625 C 84.0625 214.433594 83.945312 214.453125 83.699219 214.609375 C 83.480469 214.746094 78.914062 214.5 76.589844 214.382812 C 74.261719 214.296875 73.660156 214.164062 72.8125 213.941406 C 71.945312 213.691406 71.917969 213.605469 71.695312 213.535156 C 71.492188 213.496094 71.3125 213.917969 71.3125 213.917969 C 71.3125 213.917969 71.363281 214.078125 71.492188 214.410156 C 71.648438 214.71875 72.25 215.261719 72.410156 215.566406 C 72.585938 215.882812 72.832031 216.335938 72.949219 216.394531 C 73.058594 216.464844 73.460938 216.21875 74.359375 216.109375 C 75.246094 216 76.460938 216.039062 76.902344 216.175781 C 77.347656 216.308594 77.375 216.445312 77.347656 216.582031 C 77.308594 216.710938 77.171875 216.757812 76.546875 217.605469 C 75.917969 218.457031 75.789062 219.507812 75.808594 219.726562 C 75.828125 219.953125 76.1875 220.042969 76.253906 220.0625 C 76.300781 220.089844 76.570312 220.0625 77.101562 219.933594 C 77.621094 219.777344 78.382812 219.125 78.628906 219.015625 C 78.847656 218.878906 79.386719 218.988281 79.546875 219.015625 C 79.695312 219.035156 79.902344 219.125 79.878906 219.261719 C 79.878906 219.414062 79.496094 220.308594 79.074219 220.800781 C 78.628906 221.296875 77.101562 221.472656 73.730469 221.828125 C 70.375 222.191406 68.277344 221.207031 68.050781 221.117188 C 67.804688 221.027344 67.785156 220.851562 67.761719 220.824219 C 67.714844 220.800781 67.578125 220.871094 67.46875 220.960938 C 67.378906 221.027344 67.152344 221.382812 67.359375 222.101562 C 67.578125 222.792969 68.050781 223.285156 68.433594 223.464844 C 68.808594 223.640625 71.855469 223.886719 73.886719 223.75 C 75.898438 223.601562 80.277344 222.210938 80.550781 222.164062 C 80.816406 222.101562 81.085938 222.101562 81.152344 222.144531 C 81.195312 222.191406 81.46875 223.375 81.53125 224.46875 C 81.597656 225.585938 81.507812 228.179688 81.53125 228.316406 C 81.558594 228.453125 81.933594 228.582031 82.023438 228.628906 C 82.140625 228.671875 82.316406 228.699219 82.582031 228.582031 C 82.828125 228.492188 83.410156 228.046875 83.566406 227.910156 C 83.726562 227.78125 83.902344 227.597656 83.972656 227.445312 C 84.0625 227.289062 84.398438 226.414062 85.085938 224.941406 C 85.800781 223.445312 86.675781 222.101562 86.714844 221.945312 C 86.785156 221.789062 86.675781 221.699219 86.566406 221.335938 C 86.449219 220.980469 86.449219 220.78125 86.378906 220.605469 C 86.320312 220.398438 86.183594 220.625 86.160156 220.644531 C 86.160156 220.691406 86.160156 220.664062 85.847656 221.363281 C 85.53125 222.054688 84.683594 223.417969 84.457031 223.664062 C 84.257812 223.910156 83.855469 224.066406 83.746094 223.820312 C 83.636719 223.601562 83.566406 222.480469 83.679688 221.246094 C 83.789062 220.023438 84.546875 217.695312 84.792969 217.113281 C 85.039062 216.511719 85.441406 216.710938 85.667969 216.730469 C 85.914062 216.730469 86.785156 216.800781 87.078125 216.667969 C 87.347656 216.53125 87.503906 216.421875 87.542969 215.902344 C 87.613281 215.390625 87.050781 215.390625 86.851562 215.390625 C 86.65625 215.417969 86.046875 215.261719 85.957031 214.992188 C 85.847656 214.746094 85.894531 214.65625 86.742188 213.003906 C 87.589844 211.347656 88.734375 209.894531 89.160156 209.199219 "/>
<path style=" stroke:none;fill-rule:nonzero;fill:rgb(100%,100%,100%);fill-opacity:1;" d="M 71.382812 219.125 C 71.472656 218.902344 71.894531 218.949219 72.097656 218.925781 C 72.296875 218.925781 72.8125 218.789062 73.28125 218.5 C 73.773438 218.230469 73.953125 217.761719 74.109375 217.851562 C 74.242188 217.941406 74.289062 218.789062 74.265625 219.617188 C 74.265625 220.421875 73.460938 220.332031 73.261719 220.355469 C 73.035156 220.355469 71.402344 220.378906 71.203125 220.222656 C 71.003906 220.042969 71.316406 219.351562 71.382812 219.125 "/>
<path style=" stroke:none;fill-rule:nonzero;fill:rgb(100%,100%,100%);fill-opacity:1;" d="M 78.804688 210.921875 C 78.828125 210.808594 78.917969 210.785156 78.984375 210.765625 C 79.050781 210.742188 79.273438 210.941406 79.945312 211.101562 C 80.59375 211.257812 81.800781 211.277344 82.269531 211.210938 C 82.738281 211.121094 83.363281 211.078125 83.859375 211.367188 C 84.347656 211.679688 84.101562 212.800781 83.945312 213.113281 C 83.789062 213.425781 83.34375 213.359375 82.671875 213.378906 C 82.023438 213.402344 81.039062 213.535156 80.726562 213.535156 C 80.414062 213.515625 79.832031 213.203125 79.296875 212.488281 C 78.761719 211.769531 78.761719 211.011719 78.804688 210.921875 "/>
<path style=" stroke:none;fill-rule:nonzero;fill:rgb(100%,100%,100%);fill-opacity:1;" d="M 91.929688 215.304688 C 91.4375 216.6875 89.894531 216.511719 89.535156 216.488281 C 89.15625 216.464844 89.042969 216.308594 89.042969 216.265625 C 89.042969 216.21875 89.714844 215.148438 90.003906 214.429688 C 90.296875 213.695312 90.164062 212.398438 90.164062 212.398438 C 90.164062 212.398438 90.699219 212.597656 91.078125 212.84375 C 91.4375 213.113281 92.421875 213.917969 91.929688 215.304688 "/>
<path style=" stroke:none;fill-rule:nonzero;fill:rgb(100%,100%,100%);fill-opacity:1;" d="M 109.144531 227.21875 C 108.671875 227.710938 108.429688 228.761719 107.824219 230.617188 C 107.199219 232.496094 106.796875 234.910156 106.570312 235.847656 C 106.347656 236.789062 106.082031 237.480469 105.320312 237.371094 C 104.582031 237.257812 103.910156 235.984375 103.820312 235.558594 C 103.734375 235.132812 103.976562 234.796875 104.246094 234.441406 C 104.492188 234.082031 104.960938 232.785156 105.320312 231.691406 C 105.65625 230.617188 105.65625 228.785156 105.96875 228.046875 C 106.101562 227.734375 106.617188 226.726562 106.75 225.8125 C 106.886719 224.871094 107.019531 223.820312 107.175781 223.640625 C 107.289062 223.53125 107.421875 223.464844 107.554688 223.464844 C 107.710938 223.464844 107.9375 223.574219 108.226562 223.957031 C 108.539062 224.335938 108.671875 224.714844 108.828125 225.074219 C 108.988281 225.453125 109.097656 225.699219 109.367188 225.722656 C 109.636719 225.765625 109.8125 225.519531 109.835938 225.519531 C 109.878906 225.519531 110.039062 225.632812 110.039062 225.96875 C 110.039062 226.324219 109.636719 226.707031 109.144531 227.21875 "/>
<path style=" stroke:none;fill-rule:nonzero;fill:rgb(100%,100%,100%);fill-opacity:1;" d="M 107.800781 216.601562 C 107.890625 216.421875 108.136719 216.039062 108.359375 216.085938 C 108.605469 216.152344 108.941406 216.980469 109.210938 217.738281 C 109.523438 218.589844 109.613281 219.484375 109.34375 220.042969 C 109.097656 220.601562 108.496094 221.027344 108.179688 221.519531 C 107.867188 222.03125 107.847656 222.277344 107.601562 222.414062 C 107.375 222.570312 107.21875 222.636719 107.152344 222.523438 C 107.085938 222.433594 107.175781 220.667969 107.289062 220.042969 C 107.445312 219.304688 107.757812 218.925781 107.757812 218.140625 C 107.757812 217.359375 107.734375 216.777344 107.800781 216.601562 "/>
<path style=" stroke:none;fill-rule:nonzero;fill:rgb(100%,100%,100%);fill-opacity:1;" d="M 118.667969 236.652344 C 118.355469 236.699219 117.394531 236.140625 117.101562 236.050781 C 116.8125 235.984375 116.632812 235.917969 116.675781 235.804688 C 116.699219 235.714844 116.832031 235.535156 117.101562 235.335938 C 117.371094 235.132812 117.660156 234.796875 117.707031 234.53125 C 117.773438 234.285156 117.304688 233.523438 117.257812 233.257812 C 117.238281 232.988281 117.347656 232.5625 117.371094 232.519531 C 117.394531 232.453125 117.4375 232.40625 117.660156 232.429688 C 117.882812 232.429688 118.109375 232.609375 118.511719 232.964844 C 118.933594 233.34375 119.113281 234.148438 119.425781 234.6875 C 119.738281 235.222656 119.851562 235.15625 119.828125 235.558594 C 119.785156 235.9375 118.980469 236.609375 118.667969 236.652344 "/>
<path style=" stroke:none;fill-rule:nonzero;fill:rgb(100%,100%,100%);fill-opacity:1;" d="M 115.9375 226.398438 C 115.726562 226.535156 115.253906 226.644531 115.015625 226.472656 C 114.777344 226.308594 114.835938 226.113281 114.835938 226.113281 C 114.898438 225.785156 115.5 225.484375 115.835938 225.707031 C 116.171875 225.933594 116.144531 226.253906 115.9375 226.398438 M 114.453125 228.191406 C 113.859375 228.183594 113.84375 227.992188 113.8125 227.882812 C 113.777344 227.78125 113.914062 227.445312 114.25 227.335938 C 114.585938 227.226562 114.863281 227.300781 114.996094 227.378906 C 115.125 227.445312 115.472656 227.761719 115.472656 227.761719 C 115.472656 227.761719 115.050781 228.199219 114.453125 228.191406 M 114.140625 223.109375 C 114.285156 222.921875 114.53125 222.8125 114.941406 222.808594 C 115.351562 222.792969 115.636719 222.855469 115.753906 223.191406 C 115.878906 223.527344 115.714844 223.710938 115.085938 223.75 C 114.453125 223.792969 113.996094 223.292969 114.140625 223.109375 M 120.789062 218.523438 C 121.351562 217.851562 121.460938 217.3125 121.394531 216.9375 C 121.332031 216.554688 121.058594 216.21875 120.660156 215.972656 C 120.230469 215.726562 119.714844 216.128906 119.695312 216.265625 C 119.628906 216.464844 119.695312 216.601562 119.558594 217.292969 C 119.429688 218.011719 119.160156 218.320312 118.53125 218.542969 C 117.882812 218.789062 117.484375 217.605469 117.300781 217.429688 C 117.152344 217.25 117.054688 217.648438 117.035156 217.964844 C 116.992188 218.296875 117.101562 219.660156 116.855469 219.726562 C 116.628906 219.796875 116.136719 218.8125 115.851562 218.59375 C 115.742188 218.523438 115.5625 218.613281 115.378906 218.8125 C 115.199219 219.015625 115.199219 219.371094 115.132812 219.933594 C 115.089844 220.488281 115.042969 220.644531 114.421875 221.246094 C 113.816406 221.855469 111.335938 222.457031 111.226562 222.5 C 111.175781 222.527344 111.136719 222.566406 111.136719 222.617188 C 111.136719 222.683594 111.175781 222.863281 111.472656 223.195312 C 111.757812 223.53125 112.25 223.777344 112.605469 223.839844 C 112.992188 223.910156 113.238281 223.957031 113.394531 224.332031 C 113.542969 224.738281 113.414062 225.789062 113.367188 226.28125 C 113.324219 226.796875 112.875 227.242188 112.25 227.683594 C 111.621094 228.136719 111.375 228.71875 111.375 229.144531 C 111.355469 229.585938 112.386719 230.058594 112.902344 229.972656 C 113.394531 229.882812 113.929688 229.429688 114.0625 229.320312 C 114.195312 229.183594 114.398438 229.144531 114.488281 229.210938 C 114.578125 229.273438 114.824219 229.585938 114.863281 230.082031 C 114.886719 230.574219 114.105469 231.085938 113.769531 231.242188 C 113.433594 231.402344 113.078125 231.3125 112.875 231.265625 C 112.675781 231.242188 112.628906 231.332031 112.585938 231.421875 C 112.566406 231.511719 112.675781 231.777344 112.875 231.933594 C 113.058594 232.113281 113.839844 232.003906 113.949219 232.09375 C 114.035156 232.160156 114.242188 232.425781 114.195312 232.96875 C 114.175781 233.5 113.121094 234.28125 112.765625 234.753906 C 112.386719 235.199219 113.03125 235.226562 113.394531 235.089844 C 113.769531 234.933594 114.617188 234.417969 115.226562 233.769531 C 115.851562 233.144531 116.253906 231.777344 116.253906 231.777344 C 116.253906 231.777344 116.835938 231.867188 117.484375 231.824219 C 118.109375 231.757812 118.710938 231.441406 119.40625 230.957031 C 120.121094 230.4375 120.632812 229.902344 120.703125 229.703125 C 120.769531 229.519531 120.59375 229.253906 120.050781 229.035156 C 119.539062 228.808594 118.886719 228.738281 118.511719 228.738281 C 118.109375 228.71875 118.175781 229.253906 118.109375 229.566406 C 118.0625 229.855469 117.773438 230.191406 117.152344 230.394531 C 116.519531 230.59375 116.71875 229.902344 116.902344 229.675781 C 117.121094 229.390625 117.507812 229.007812 118.21875 228.136719 C 118.914062 227.242188 118.867188 226.75 118.691406 226.390625 C 118.511719 226.035156 118.335938 225.316406 118.464844 225.140625 C 118.601562 224.941406 118.710938 224.984375 119.378906 224.558594 C 120.050781 224.132812 120.050781 223.839844 119.804688 223.21875 C 119.585938 222.589844 118.304688 222.457031 118.0625 222.191406 C 117.839844 221.917969 117.972656 221.335938 118.246094 220.78125 C 118.511719 220.199219 120.207031 219.171875 120.789062 218.523438 "/>
<path style=" stroke:none;fill-rule:nonzero;fill:rgb(100%,100%,100%);fill-opacity:1;" d="M 150.101562 229.863281 C 149.191406 230.058594 148.628906 229.640625 148.578125 229.398438 C 148.53125 229.128906 148.433594 228.832031 148.1875 228.660156 C 147.917969 228.464844 147.109375 228.417969 146.765625 228.390625 C 146.421875 228.367188 146.371094 228.734375 146.273438 229.027344 C 146.199219 229.324219 144.949219 231.433594 144.507812 231.949219 C 144.066406 232.488281 143.28125 232.464844 142.914062 232.046875 C 142.546875 231.652344 142.792969 231.113281 143.648438 230.15625 C 144.53125 229.199219 145.171875 227.828125 145.171875 227.535156 C 145.171875 227.238281 145.046875 226.820312 144.972656 226.796875 C 144.902344 226.75 144.777344 226.796875 144.558594 226.921875 C 144.3125 227.019531 143.699219 227.535156 143.453125 227.828125 C 143.183594 228.121094 142.863281 228.367188 142.621094 228.464844 C 142.351562 228.5625 142.082031 228.539062 141.90625 228.390625 C 141.738281 228.269531 141.464844 228 141.320312 227.777344 C 141.171875 227.535156 141.222656 227.261719 141.464844 226.871094 C 141.6875 226.503906 142.25 226.527344 142.351562 226.527344 C 142.472656 226.550781 142.765625 226.503906 143.476562 226.207031 C 144.164062 225.9375 144.386719 225.792969 144.53125 225.644531 C 144.65625 225.523438 144.875 225.203125 145.046875 224.613281 C 145.21875 224.050781 144.949219 222.921875 144.753906 222.382812 C 144.582031 221.867188 144.140625 221.523438 144.042969 221.402344 C 143.945312 221.304688 143.992188 221.179688 143.992188 220.835938 C 143.992188 220.519531 143.917969 220.25 143.894531 220.050781 C 143.871094 219.855469 144.1875 219.683594 144.359375 219.660156 C 144.53125 219.636719 145 219.90625 145.144531 220.027344 C 145.292969 220.125 145.488281 220.050781 145.683594 220.003906 C 145.882812 219.980469 146.054688 220.078125 146.421875 220.296875 C 146.789062 220.519531 146.839844 220.714844 146.839844 220.9375 C 146.8125 221.15625 146.371094 222.039062 146.398438 222.261719 C 146.445312 222.503906 146.742188 223.363281 146.863281 223.386719 C 147.011719 223.414062 147.035156 223.117188 147.207031 222.945312 C 147.351562 222.75 147.867188 222.601562 148.40625 222.726562 C 148.949219 222.875 149.144531 223.214844 149.144531 223.4375 C 149.167969 223.65625 148.996094 223.976562 148.1875 224.664062 C 147.378906 225.375 147.011719 225.667969 146.839844 226.136719 C 146.667969 226.601562 146.839844 226.871094 147.183594 227.117188 C 147.550781 227.335938 148.652344 227.089844 149.09375 226.992188 C 149.5625 226.871094 150.199219 227.117188 150.761719 227.558594 C 151.328125 228 151.425781 228.808594 151.402344 229.054688 C 151.402344 229.273438 151.007812 229.640625 150.101562 229.863281 "/>
<path style=" stroke:none;fill-rule:nonzero;fill:rgb(100%,100%,100%);fill-opacity:1;" d="M 214.367188 173 L 214.367188 137.828125 C 223.515625 133.382812 224.40625 115.761719 225.015625 113.792969 C 224.207031 114.285156 217.660156 121.375 209.496094 121.460938 L 42.574219 121.460938 C 34.410156 121.375 27.863281 114.285156 27.054688 113.792969 C 27.664062 115.761719 28.550781 133.382812 37.699219 137.828125 L 37.699219 173 L 25.070312 173 L 41.003906 188.980469 L 211.0625 188.980469 L 227 173 Z M 214.367188 173 "/>
<path style=" stroke:none;fill-rule:nonzero;fill:rgb(100%,100%,100%);fill-opacity:1;" d="M 126.039062 8.765625 C 61.375 8.765625 8.765625 61.375 8.765625 126.039062 C 8.765625 190.703125 61.375 243.308594 126.039062 243.308594 C 190.703125 243.308594 243.3125 190.703125 243.3125 126.039062 C 243.3125 61.375 190.703125 8.765625 126.039062 8.765625 M 126.039062 246.730469 C 59.488281 246.730469 5.34375 192.589844 5.34375 126.039062 C 5.34375 59.488281 59.488281 5.34375 126.039062 5.34375 C 192.589844 5.34375 246.730469 59.488281 246.730469 126.039062 C 246.730469 192.589844 192.589844 246.730469 126.039062 246.730469 "/>
<path style=" stroke:none;fill-rule:nonzero;fill:rgb(0%,14.509805%,32.941177%);fill-opacity:1;" d="M 181.769531 118 C 182.621094 117.003906 183.472656 115.929688 184.257812 114.867188 L 67.816406 114.867188 C 68.605469 115.929688 69.457031 117.003906 70.324219 118 Z M 181.769531 118 "/>
<path style=" stroke:none;fill-rule:nonzero;fill:rgb(0%,14.509805%,32.941177%);fill-opacity:1;" d="M 123.335938 68.59375 L 124.167969 68.59375 C 123.4375 69.816406 122.53125 74.277344 124.234375 78.023438 L 124.238281 78.023438 C 124.035156 78.023438 123.867188 78.191406 123.867188 78.394531 C 123.867188 78.597656 124.035156 78.765625 124.238281 78.765625 L 127.839844 78.765625 C 128.042969 78.765625 128.210938 78.597656 128.210938 78.394531 C 128.210938 78.191406 128.042969 78.023438 127.839844 78.023438 L 127.84375 78.023438 C 129.542969 74.277344 128.640625 69.816406 127.90625 68.59375 L 128.742188 68.59375 C 129.003906 68.59375 129.21875 68.378906 129.21875 68.117188 C 129.21875 67.855469 129.003906 67.640625 128.742188 67.640625 L 128.6875 67.640625 L 128.6875 67.535156 C 128.6875 66.839844 128.203125 66.253906 127.554688 66.09375 C 127.761719 65.902344 127.894531 65.632812 127.894531 65.328125 L 127.894531 64.988281 C 128.074219 64.960938 128.210938 64.804688 128.210938 64.621094 C 128.210938 64.414062 128.042969 64.25 127.839844 64.25 L 127.46875 64.25 L 127.46875 64.183594 C 127.46875 63.757812 127.136719 63.410156 126.71875 63.382812 L 125.359375 63.382812 C 124.941406 63.410156 124.609375 63.757812 124.609375 64.183594 L 124.609375 64.25 L 124.238281 64.25 C 124.035156 64.25 123.867188 64.414062 123.867188 64.621094 C 123.867188 64.804688 124.003906 64.957031 124.179688 64.984375 L 124.183594 65.171875 L 124.183594 65.328125 C 124.183594 65.632812 124.316406 65.902344 124.523438 66.09375 C 123.875 66.253906 123.390625 66.839844 123.390625 67.535156 L 123.390625 67.640625 L 123.335938 67.640625 C 123.074219 67.640625 122.859375 67.855469 122.859375 68.117188 C 122.859375 68.378906 123.074219 68.59375 123.335938 68.59375 "/>
<path style=" stroke:none;fill-rule:nonzero;fill:rgb(0%,14.509805%,32.941177%);fill-opacity:1;" d="M 129.988281 105.835938 L 122.121094 105.835938 L 122.121094 108.636719 L 129.988281 108.636719 Z M 129.988281 105.835938 "/>
<path style=" stroke:none;fill-rule:nonzero;fill:rgb(0%,14.509805%,32.941177%);fill-opacity:1;" d="M 99.507812 106.597656 L 99.507812 109.683594 L 93.625 112.546875 L 93.625 109.4375 Z M 99.507812 106.597656 "/>
<path style=" stroke:none;fill-rule:nonzero;fill:rgb(0%,14.509805%,32.941177%);fill-opacity:1;" d="M 152.570312 106.597656 L 152.570312 109.683594 L 158.449219 112.546875 L 158.449219 109.4375 Z M 152.570312 106.597656 "/>
<path style=" stroke:none;fill-rule:nonzero;fill:rgb(0%,14.509805%,32.941177%);fill-opacity:1;" d="M 140.058594 105.835938 L 132.1875 105.835938 L 132.1875 108.636719 L 140.058594 108.636719 Z M 140.058594 105.835938 "/>
<path style=" stroke:none;fill-rule:nonzero;fill:rgb(0%,14.509805%,32.941177%);fill-opacity:1;" d="M 150.140625 105.835938 L 142.273438 105.835938 L 142.273438 108.636719 L 150.140625 108.636719 Z M 150.140625 105.835938 "/>
<path style=" stroke:none;fill-rule:nonzero;fill:rgb(0%,14.509805%,32.941177%);fill-opacity:1;" d="M 109.804688 105.835938 L 101.9375 105.835938 L 101.9375 108.636719 L 109.804688 108.636719 Z M 109.804688 105.835938 "/>
<path style=" stroke:none;fill-rule:nonzero;fill:rgb(0%,14.509805%,32.941177%);fill-opacity:1;" d="M 119.890625 105.835938 L 112.019531 105.835938 L 112.019531 108.636719 L 119.890625 108.636719 Z M 119.890625 105.835938 "/>
<path style=" stroke:none;fill-rule:nonzero;fill:rgb(0%,14.509805%,32.941177%);fill-opacity:1;" d="M 42.445312 185.792969 L 209.632812 185.792969 L 213.636719 181.78125 L 38.441406 181.78125 Z M 42.445312 185.792969 "/>
<path style=" stroke:none;fill-rule:nonzero;fill:rgb(0%,14.509805%,32.941177%);fill-opacity:1;" d="M 37.339844 180.703125 L 214.738281 180.703125 L 218.726562 176.707031 L 33.351562 176.707031 Z M 37.339844 180.703125 "/>
<path style=" stroke:none;fill-rule:nonzero;fill:rgb(0%,14.509805%,32.941177%);fill-opacity:1;" d="M 86.042969 170.605469 L 166.035156 170.605469 L 165.40625 168.726562 L 86.671875 168.726562 Z M 86.042969 170.605469 "/>
<path style=" stroke:none;fill-rule:nonzero;fill:rgb(0%,14.509805%,32.941177%);fill-opacity:1;" d="M 84.871094 174.128906 L 167.203125 174.128906 L 166.578125 172.253906 L 85.5 172.253906 Z M 84.871094 174.128906 "/>
<path style=" stroke:none;fill-rule:nonzero;fill:rgb(0%,14.509805%,32.941177%);fill-opacity:1;" d="M 87.859375 165.199219 L 87.214844 167.078125 L 164.863281 167.078125 L 164.214844 165.199219 Z M 87.859375 165.199219 "/>
<path style=" stroke:none;fill-rule:nonzero;fill:rgb(0%,14.509805%,32.941177%);fill-opacity:1;" d="M 85.871094 122.175781 L 85.871094 120.375 L 81.597656 120.375 L 81.597656 123.378906 C 83.1875 123.167969 84.617188 122.734375 85.871094 122.175781 "/>
<path style=" stroke:none;fill-rule:nonzero;fill:rgb(0%,14.509805%,32.941177%);fill-opacity:1;" d="M 75.351562 122.542969 C 76.332031 123.167969 77.488281 123.441406 78.789062 123.507812 L 78.789062 120.375 L 74.535156 120.375 L 74.535156 121.980469 C 74.804688 122.191406 75.078125 122.367188 75.351562 122.542969 "/>
<path style=" stroke:none;fill-rule:nonzero;fill:rgb(0%,14.509805%,32.941177%);fill-opacity:1;" d="M 176.820312 122.542969 C 177.0625 122.398438 177.304688 122.222656 177.542969 122.046875 L 177.542969 120.375 L 173.289062 120.375 L 173.289062 123.507812 C 174.621094 123.457031 175.808594 123.183594 176.820312 122.542969 "/>
<path style=" stroke:none;fill-rule:nonzero;fill:rgb(0%,14.509805%,32.941177%);fill-opacity:1;" d="M 170.480469 123.363281 L 170.480469 120.375 L 166.222656 120.375 L 166.222656 122.140625 C 167.460938 122.703125 168.890625 123.152344 170.480469 123.363281 "/>
<path style=" stroke:none;fill-rule:nonzero;fill:rgb(0%,14.509805%,32.941177%);fill-opacity:1;" d="M 41.632812 134.023438 L 210.445312 134.023438 C 215.601562 134.023438 218.738281 124.074219 218.738281 124.074219 C 218.738281 124.074219 210.605469 128.96875 204.375 125.039062 C 198.144531 121.105469 191.351562 109.050781 191.351562 109.050781 C 191.351562 109.050781 184.5625 121.105469 178.332031 125.039062 C 172.101562 128.972656 163.96875 124.074219 163.96875 124.074219 C 163.96875 124.074219 165.078125 127.976562 167.265625 130.894531 L 163.648438 130.894531 C 163.167969 129.929688 162.550781 128.339844 162.167969 127.296875 C 161.265625 124.871094 160.625 122.382812 160.175781 120.375 L 159.195312 120.375 L 159.195312 130.894531 L 156.464844 130.894531 L 156.464844 120.367188 L 152.242188 120.367188 L 152.242188 130.894531 L 149.382812 130.894531 L 149.382812 120.367188 L 145.160156 120.367188 L 145.160156 130.894531 L 142.300781 130.894531 L 142.300781 120.367188 L 138.078125 120.367188 L 138.078125 130.894531 L 135.21875 130.894531 L 135.21875 120.367188 L 130.996094 120.367188 L 130.996094 130.894531 L 128.15625 130.894531 L 128.15625 120.367188 L 123.890625 120.367188 L 123.890625 130.894531 L 121.054688 130.894531 L 121.054688 120.367188 L 116.832031 120.367188 L 116.832031 130.894531 L 113.972656 130.894531 L 113.972656 120.367188 L 109.75 120.367188 L 109.75 130.894531 L 106.890625 130.894531 L 106.890625 120.367188 L 102.667969 120.367188 L 102.667969 130.894531 L 99.808594 130.894531 L 99.808594 120.367188 L 95.585938 120.367188 L 95.585938 130.894531 L 92.867188 130.894531 L 92.867188 120.375 L 91.886719 120.375 C 91.4375 122.382812 90.796875 124.871094 89.898438 127.296875 C 89.511719 128.339844 89.019531 129.929688 88.535156 130.894531 L 84.933594 130.894531 C 87.117188 127.976562 88.109375 124.074219 88.109375 124.074219 C 88.109375 124.074219 79.976562 128.972656 73.746094 125.039062 C 67.515625 121.105469 60.726562 109.050781 60.726562 109.050781 C 60.726562 109.050781 53.933594 121.105469 47.703125 125.039062 C 41.472656 128.96875 33.339844 124.074219 33.339844 124.074219 C 33.339844 124.074219 36.476562 134.023438 41.632812 134.023438 "/>
<path style=" stroke:none;fill-rule:nonzero;fill:rgb(0%,14.509805%,32.941177%);fill-opacity:1;" d="M 88.953125 107.804688 L 99.890625 102.496094 L 152.1875 102.496094 L 163.125 107.804688 C 171.523438 106.492188 174.546875 96.828125 174.546875 96.828125 C 168.75 102.933594 155.753906 100.914062 157.949219 94.851562 C 159.859375 89.886719 158.925781 86.648438 158.925781 86.648438 C 156.382812 91.277344 151.988281 92.730469 149.117188 92.8125 C 145.753906 92.910156 143.171875 90.859375 143.171875 90.859375 L 143.171875 85.097656 L 144.675781 84.035156 L 144.675781 78.714844 L 139.988281 78.714844 L 139.988281 81.214844 L 128.921875 81.214844 L 128.921875 79.972656 L 123.050781 79.972656 L 123.050781 81.214844 L 112.011719 81.214844 L 112.011719 78.714844 L 107.402344 78.714844 L 107.402344 84.035156 L 108.90625 85.097656 L 108.90625 90.859375 C 108.90625 90.859375 106.324219 92.910156 102.960938 92.8125 C 100.089844 92.730469 95.695312 91.277344 93.152344 86.648438 C 93.152344 86.648438 92.214844 89.886719 94.128906 94.851562 C 96.324219 100.914062 83.328125 102.933594 77.53125 96.828125 C 77.53125 96.828125 80.550781 106.492188 88.953125 107.804688 "/>
<path style=" stroke:none;fill-rule:nonzero;fill:rgb(0%,14.509805%,32.941177%);fill-opacity:1;" d="M 72.515625 150.730469 L 66.570312 150.730469 L 66.570312 144.785156 L 72.515625 144.785156 Z M 63.753906 150.730469 L 57.804688 150.730469 L 57.804688 144.785156 L 63.753906 144.785156 Z M 55.011719 150.730469 L 49.0625 150.730469 L 49.0625 144.785156 L 55.011719 144.785156 Z M 41.796875 174.140625 L 79.757812 174.140625 L 79.757812 137.363281 L 41.796875 137.363281 Z M 41.796875 174.140625 "/>
<path style=" stroke:none;fill-rule:nonzero;fill:rgb(0%,14.509805%,32.941177%);fill-opacity:1;" d="M 203.035156 150.730469 L 197.089844 150.730469 L 197.089844 144.785156 L 203.035156 144.785156 Z M 194.273438 150.730469 L 188.324219 150.730469 L 188.324219 144.785156 L 194.273438 144.785156 Z M 185.507812 150.730469 L 179.5625 150.730469 L 179.5625 144.785156 L 185.507812 144.785156 Z M 172.316406 174.140625 L 210.28125 174.140625 L 210.28125 137.363281 L 172.316406 137.363281 Z M 172.316406 174.140625 "/>
<path style=" stroke:none;fill-rule:nonzero;fill:rgb(0%,14.509805%,32.941177%);fill-opacity:1;" d="M 164.28125 160.722656 L 162.023438 160.722656 L 162.023438 144.695312 L 164.28125 144.695312 Z M 160.054688 142.636719 L 145.5 142.636719 L 145.5 140.378906 L 160.054688 140.378906 Z M 160.054688 160.679688 L 145.5 160.679688 L 145.5 146.527344 L 148.363281 144.695312 L 157.058594 144.695312 L 160.054688 146.617188 Z M 143.535156 142.59375 L 141.253906 142.59375 L 141.253906 140.3125 L 143.535156 140.3125 Z M 143.535156 160.679688 L 141.253906 160.679688 L 141.253906 144.695312 L 143.535156 144.695312 Z M 139.285156 142.636719 L 128.820312 142.617188 L 128.820312 140.355469 L 139.285156 140.378906 Z M 139.285156 160.722656 L 133.359375 160.722656 L 133.359375 148.875 L 118.828125 148.875 L 118.828125 160.722656 L 112.949219 160.722656 L 112.949219 146.640625 L 115.921875 144.695312 L 136.019531 144.695312 L 139.285156 146.640625 Z M 132.355469 160.722656 L 131.371094 160.722656 L 131.371094 150.753906 L 120.929688 150.753906 L 120.929688 160.722656 L 119.945312 160.722656 L 119.945312 150.015625 L 132.355469 150.015625 Z M 110.890625 142.636719 L 108.679688 142.636719 L 108.679688 140.378906 L 110.890625 140.378906 Z M 110.890625 160.722656 L 108.679688 160.722656 L 108.679688 144.695312 L 110.890625 144.695312 Z M 106.6875 142.636719 L 92.132812 142.636719 L 92.132812 140.378906 L 106.6875 140.378906 Z M 106.6875 160.679688 L 92.132812 160.679688 L 92.132812 146.664062 L 95.128906 144.695312 L 103.894531 144.695312 L 106.6875 146.664062 Z M 90.078125 160.722656 L 87.863281 160.722656 L 87.863281 144.671875 L 90.078125 144.671875 Z M 113.105469 140.378906 L 123.234375 140.378906 L 123.234375 142.636719 L 113.105469 142.636719 Z M 128.820312 137.25 L 128.820312 135.328125 L 123.234375 135.347656 L 123.234375 137.25 L 84.777344 137.25 L 84.734375 163.207031 L 167.296875 163.207031 L 167.34375 137.25 Z M 128.820312 137.25 "/>
<path style=" stroke:none;fill-rule:nonzero;fill:rgb(100%,100%,100%);fill-opacity:1;" d="M 28.738281 80.695312 L 27.375 80.234375 L 25.554688 85.601562 L 26.914062 86.066406 L 27.855469 84.242188 L 36.347656 89.882812 L 26.027344 89.582031 L 26.472656 87.382812 L 25.105469 86.917969 L 22.957031 93.25 L 24.328125 93.714844 L 24.6875 92.964844 C 25 92.320312 25.820312 92.117188 26.398438 92.539062 L 33.554688 97.800781 L 23.472656 97.039062 L 23.878906 95.035156 L 22.507812 94.570312 L 20.355469 100.914062 L 21.726562 101.378906 L 22.015625 100.769531 C 22.351562 100.070312 23.078125 99.644531 23.851562 99.6875 L 37.980469 100.5 L 38.414062 99.226562 L 28.460938 92.125 L 40.753906 92.332031 L 41.191406 91.039062 L 28.394531 82.640625 Z M 28.738281 80.695312 "/>
<path style=" stroke:none;fill-rule:nonzero;fill:rgb(100%,100%,100%);fill-opacity:1;" d="M 45.238281 69.101562 L 38.476562 64.957031 L 39.269531 63.128906 L 38.039062 62.378906 L 34.925781 67.460938 L 36.15625 68.210938 L 36.804688 67.425781 C 37.289062 66.835938 38.132812 66.695312 38.785156 67.09375 L 43.875 70.214844 C 45.597656 71.269531 46.640625 72.265625 47.058594 73.257812 C 47.449219 74.175781 47.320312 75.109375 46.65625 76.191406 C 45.804688 77.585938 44.332031 78.882812 40.484375 76.523438 L 38.886719 75.546875 C 37.5 74.699219 35.691406 73.585938 33.894531 72.4375 L 34.871094 70.320312 L 33.636719 69.5625 L 30.015625 75.472656 L 31.246094 76.230469 L 31.589844 75.796875 C 32.0625 75.195312 32.914062 75.039062 33.574219 75.433594 C 35.015625 76.292969 36.390625 77.128906 37.5 77.808594 L 39.6875 79.148438 C 41.160156 80.050781 42.542969 80.5 43.796875 80.5 C 45.625 80.5 47.179688 79.542969 48.335938 77.652344 C 49.242188 76.175781 49.484375 74.722656 49.0625 73.328125 C 48.59375 71.789062 47.304688 70.367188 45.238281 69.101562 "/>
<path style=" stroke:none;fill-rule:nonzero;fill:rgb(100%,100%,100%);fill-opacity:1;" d="M 61.902344 57.398438 C 60.304688 55.96875 58.734375 54.519531 57.53125 53.40625 L 56.675781 52.609375 C 55.46875 51.488281 53.898438 50.023438 52.367188 48.550781 L 53.605469 46.847656 L 52.542969 45.867188 L 47.839844 50.9375 L 48.898438 51.921875 L 49.480469 51.425781 C 50.066406 50.929688 50.929688 50.945312 51.5 51.460938 C 52.621094 52.476562 53.6875 53.457031 54.566406 54.273438 L 49.910156 59.292969 C 48.296875 57.789062 47.046875 56.613281 45.90625 55.515625 L 47.140625 53.816406 L 46.082031 52.832031 L 41.375 57.902344 L 42.4375 58.886719 L 43.023438 58.390625 C 43.609375 57.894531 44.46875 57.90625 45.039062 58.421875 C 46.28125 59.546875 47.460938 60.636719 48.410156 61.519531 L 49.269531 62.3125 C 50.277344 63.25 51.425781 64.320312 52.605469 65.441406 C 53.160156 65.972656 53.242188 66.832031 52.789062 67.453125 L 52.339844 68.074219 L 53.398438 69.058594 L 58.105469 63.988281 L 57.042969 63.003906 L 55.4375 64.367188 C 54.058594 63.132812 52.648438 61.828125 51.09375 60.390625 L 55.75 55.371094 C 56.9375 56.472656 58.035156 57.492188 59.070312 58.476562 C 59.628906 59.003906 59.707031 59.863281 59.253906 60.484375 L 58.800781 61.109375 L 59.863281 62.089844 L 64.566406 57.019531 L 63.507812 56.035156 Z M 61.902344 57.398438 "/>
<path style=" stroke:none;fill-rule:nonzero;fill:rgb(100%,100%,100%);fill-opacity:1;" d="M 69.554688 44.832031 L 66.425781 47.101562 L 64.484375 41.113281 Z M 75.117188 45.683594 L 63.457031 37.226562 L 62.011719 38.277344 L 66.402344 51.976562 C 66.617188 52.65625 66.4375 53.398438 65.929688 53.902344 L 65.34375 54.488281 L 66.1875 55.652344 L 70.8125 52.292969 L 69.96875 51.128906 L 68.058594 52.132812 L 66.953125 48.71875 L 70.921875 45.835938 L 73.84375 47.980469 L 72.261719 49.460938 L 73.109375 50.628906 L 78.523438 46.695312 L 77.675781 45.53125 L 77.160156 45.8125 C 76.511719 46.171875 75.714844 46.121094 75.117188 45.683594 "/>
<path style=" stroke:none;fill-rule:nonzero;fill:rgb(100%,100%,100%);fill-opacity:1;" d="M 87.757812 25.589844 L 87.144531 24.289062 L 81.722656 26.84375 L 82.335938 28.152344 L 83.519531 27.769531 C 84.160156 27.5625 84.855469 27.863281 85.144531 28.472656 L 88.683594 35.984375 L 76.816406 29.15625 L 73.292969 30.820312 L 73.910156 32.125 L 74.1875 32.054688 C 75.074219 31.835938 75.996094 32.269531 76.382812 33.09375 L 80.707031 42.273438 C 80.988281 42.867188 80.792969 43.578125 80.246094 43.941406 L 79.570312 44.394531 L 80.183594 45.695312 L 85.605469 43.140625 L 84.992188 41.835938 L 82.683594 42.5625 L 78.222656 33.101562 L 91.386719 40.589844 L 92.453125 40.085938 L 86.136719 26.6875 Z M 87.757812 25.589844 "/>
<path style=" stroke:none;fill-rule:nonzero;fill:rgb(100%,100%,100%);fill-opacity:1;" d="M 131.203125 18.855469 L 132.265625 19.027344 C 133.023438 19.148438 133.574219 19.816406 133.550781 20.585938 L 133.304688 28.71875 L 125.824219 17.25 L 121.933594 17.132812 L 121.886719 18.574219 L 122.167969 18.640625 C 123.058594 18.84375 123.679688 19.648438 123.652344 20.5625 L 123.34375 30.703125 C 123.324219 31.363281 122.828125 31.90625 122.175781 31.980469 L 121.367188 32.078125 L 121.324219 33.515625 L 127.316406 33.699219 L 127.359375 32.253906 L 124.972656 31.859375 L 125.289062 21.402344 L 133.625 34.046875 L 134.804688 34.082031 L 135.253906 19.277344 L 137.195312 19.03125 L 137.238281 17.597656 L 131.246094 17.414062 Z M 131.203125 18.855469 "/>
<path style=" stroke:none;fill-rule:nonzero;fill:rgb(100%,100%,100%);fill-opacity:1;" d="M 142.226562 19.902344 L 143.441406 20.277344 C 143.898438 20.421875 144.179688 20.878906 144.101562 21.351562 C 143.796875 23.136719 143.484375 24.859375 143.210938 26.355469 L 142.996094 27.503906 C 142.730469 28.957031 142.417969 30.625 142.078125 32.332031 C 141.96875 32.894531 141.453125 33.289062 140.882812 33.25 L 139.777344 33.179688 L 139.515625 34.601562 L 146.328125 35.859375 L 146.589844 34.4375 L 145.535156 34.109375 C 144.984375 33.9375 144.648438 33.386719 144.746094 32.820312 C 145.046875 31.046875 145.355469 29.339844 145.605469 27.984375 L 145.820312 26.835938 C 146.09375 25.335938 146.417969 23.609375 146.769531 21.84375 C 146.863281 21.375 147.289062 21.046875 147.769531 21.078125 L 149.039062 21.160156 L 149.300781 19.738281 L 142.488281 18.476562 Z M 142.226562 19.902344 "/>
<path style=" stroke:none;fill-rule:nonzero;fill:rgb(100%,100%,100%);fill-opacity:1;" d="M 168.164062 27.027344 L 168.632812 25.664062 L 163.203125 23.800781 L 162.695312 25.273438 L 164.445312 26.09375 L 157.90625 34.800781 L 157.980469 23.855469 L 160.015625 24.355469 L 160.523438 22.878906 L 154.171875 20.695312 L 153.703125 22.0625 L 154.265625 22.335938 C 154.917969 22.652344 155.339844 23.3125 155.347656 24.039062 L 155.5 38.660156 L 156.773438 39.097656 L 165.433594 27.589844 C 165.871094 27.007812 166.597656 26.726562 167.308594 26.863281 Z M 168.164062 27.027344 "/>
<path style=" stroke:none;fill-rule:nonzero;fill:rgb(100%,100%,100%);fill-opacity:1;" d="M 173.898438 45.054688 L 170.371094 43.09375 C 171.25 41.445312 172.171875 39.78125 173.1875 37.953125 L 174.992188 38.957031 C 175.414062 39.191406 175.59375 39.699219 175.417969 40.144531 L 174.898438 41.457031 L 176.222656 42.195312 L 179.1875 36.859375 L 177.863281 36.121094 L 177 37.277344 C 176.714844 37.660156 176.1875 37.773438 175.769531 37.539062 L 173.972656 36.539062 C 174.734375 35.171875 175.703125 33.445312 176.691406 31.738281 L 179.816406 33.472656 C 180.46875 33.839844 180.765625 34.621094 180.511719 35.324219 L 179.917969 36.992188 L 181.480469 37.859375 L 183.621094 33.640625 L 173.296875 27.902344 L 172.59375 29.167969 L 173.214844 29.617188 C 173.835938 30.066406 174.03125 30.910156 173.664062 31.582031 C 172.871094 33.054688 172.09375 34.464844 171.460938 35.597656 L 170.894531 36.617188 C 170.261719 37.753906 169.476562 39.160156 168.648438 40.605469 C 168.269531 41.273438 167.453125 41.554688 166.742188 41.261719 L 166.027344 40.972656 L 165.328125 42.234375 L 176.046875 48.195312 L 178.5 44.152344 L 176.941406 43.285156 L 175.835938 44.667969 C 175.371094 45.253906 174.550781 45.417969 173.898438 45.054688 "/>
<path style=" stroke:none;fill-rule:nonzero;fill:rgb(100%,100%,100%);fill-opacity:1;" d="M 189.105469 46.863281 L 187.929688 45.914062 C 189.234375 44.300781 190.425781 42.832031 191.632812 41.394531 L 192.964844 42.46875 C 193.804688 43.148438 194.273438 43.839844 194.363281 44.527344 C 194.453125 45.191406 194.207031 45.875 193.609375 46.613281 C 192.402344 48.109375 190.757812 48.203125 189.105469 46.863281 M 195.757812 48.332031 C 196.617188 47.265625 196.910156 46.046875 196.601562 44.808594 C 196.296875 43.597656 195.410156 42.371094 194.039062 41.261719 L 188.894531 37.105469 L 187.984375 38.230469 L 188.523438 38.78125 C 189.058594 39.332031 189.101562 40.195312 188.625 40.800781 C 187.613281 42.082031 186.632812 43.304688 185.769531 44.371094 L 185.035156 45.28125 C 184.21875 46.289062 183.207031 47.535156 182.148438 48.816406 C 181.652344 49.410156 180.792969 49.550781 180.136719 49.140625 L 179.496094 48.734375 L 178.585938 49.859375 L 183.972656 54.214844 L 184.882812 53.089844 L 183.40625 51.570312 C 184.542969 50.113281 185.722656 48.648438 186.929688 47.152344 L 187.601562 47.695312 C 188.980469 48.808594 189.328125 49.492188 188.542969 51.109375 L 186.851562 54.640625 C 186.304688 55.789062 186.566406 56.621094 187.792969 57.613281 C 188.316406 58.03125 188.816406 58.332031 189.328125 58.523438 L 189.5 58.585938 L 190.363281 57.515625 L 189.8125 56.949219 C 189.382812 56.503906 189.261719 55.84375 189.507812 55.273438 L 190.484375 53.03125 C 191.113281 51.570312 191.199219 50.457031 190.730469 49.460938 C 192.683594 50.21875 194.554688 49.816406 195.757812 48.332031 "/>
<path style=" stroke:none;fill-rule:nonzero;fill:rgb(100%,100%,100%);fill-opacity:1;" d="M 202.132812 58.554688 L 201.804688 57.640625 C 201.1875 55.933594 201.328125 54.84375 202.269531 54 C 202.832031 53.496094 203.476562 53.28125 204.136719 53.382812 C 204.773438 53.484375 205.398438 53.863281 205.953125 54.480469 C 205.960938 54.488281 205.964844 54.492188 205.96875 54.5 C 206.566406 55.171875 206.554688 56.191406 206 56.898438 L 205.007812 58.15625 L 206.25 59.542969 L 208.941406 57.339844 L 208.929688 57.210938 C 208.828125 55.792969 208.28125 54.523438 207.308594 53.4375 C 206.304688 52.316406 205.074219 51.597656 203.84375 51.414062 C 202.535156 51.21875 201.292969 51.605469 200.253906 52.539062 C 198.5625 54.050781 198.242188 56.082031 199.242188 58.925781 L 199.550781 59.816406 C 200.289062 61.890625 200.21875 62.785156 199.257812 63.644531 C 198.652344 64.1875 197.976562 64.394531 197.253906 64.273438 C 196.53125 64.148438 195.796875 63.6875 195.132812 62.945312 C 194.953125 62.742188 194.800781 62.550781 194.667969 62.359375 C 194.203125 61.675781 194.269531 60.761719 194.789062 60.117188 L 195.914062 58.730469 L 194.667969 57.339844 L 191.796875 59.710938 L 191.816406 59.851562 C 192.03125 61.292969 192.832031 62.933594 193.902344 64.128906 C 194.992188 65.34375 196.25 66.09375 197.546875 66.292969 C 197.78125 66.332031 198.011719 66.347656 198.238281 66.347656 C 199.324219 66.347656 200.351562 65.941406 201.234375 65.148438 C 202.984375 63.582031 203.246094 61.667969 202.132812 58.554688 "/>
<path style=" stroke:none;fill-rule:nonzero;fill:rgb(100%,100%,100%);fill-opacity:1;" d="M 208.664062 70.082031 L 209.625 69.417969 C 210.878906 68.554688 212.324219 67.558594 213.824219 66.554688 C 214.222656 66.289062 214.757812 66.355469 215.074219 66.714844 L 215.917969 67.671875 L 217.105469 66.847656 L 213.167969 61.148438 L 211.976562 61.96875 L 212.570312 63.097656 C 212.796875 63.519531 212.667969 64.042969 212.28125 64.324219 C 210.757812 65.40625 209.28125 66.429688 208.117188 67.234375 L 207.15625 67.898438 C 206.011719 68.6875 204.578125 69.671875 203.097656 70.667969 C 202.617188 70.988281 201.976562 70.90625 201.597656 70.476562 L 200.863281 69.648438 L 199.671875 70.46875 L 203.613281 76.167969 L 204.804688 75.347656 L 204.285156 74.367188 C 204.019531 73.859375 204.167969 73.230469 204.636719 72.898438 C 206.105469 71.851562 207.53125 70.863281 208.664062 70.082031 "/>
<path style=" stroke:none;fill-rule:nonzero;fill:rgb(100%,100%,100%);fill-opacity:1;" d="M 215.550781 82.070312 L 216.59375 81.542969 C 218.167969 80.753906 220.019531 79.832031 221.898438 78.929688 L 222.664062 80.457031 C 223 81.125 222.804688 81.9375 222.203125 82.378906 L 220.757812 83.441406 L 221.558594 85.035156 L 225.710938 82.730469 L 219.898438 71.152344 L 215.570312 73.105469 L 216.371094 74.703125 L 218.085938 74.175781 C 218.800781 73.960938 219.566406 74.289062 219.902344 74.953125 L 220.667969 76.480469 C 218.800781 77.460938 216.964844 78.390625 215.40625 79.171875 L 214.359375 79.699219 C 213.125 80.316406 211.574219 81.09375 209.972656 81.871094 C 209.453125 82.121094 208.824219 81.945312 208.511719 81.460938 L 207.789062 80.351562 L 206.496094 81 L 209.808594 87.601562 L 211.101562 86.949219 L 210.289062 84.761719 C 212.15625 83.78125 213.992188 82.851562 215.550781 82.070312 "/>
<path style=" stroke:none;fill-rule:nonzero;fill:rgb(100%,100%,100%);fill-opacity:1;" d="M 230.066406 95.484375 L 228.6875 95.902344 L 228.980469 97.824219 L 222.089844 96.910156 L 227.359375 92.382812 L 228.1875 94.269531 L 229.570312 93.851562 L 227.5625 87.222656 L 226.179688 87.640625 L 226.324219 88.457031 C 226.4375 89.105469 226.210938 89.769531 225.722656 90.210938 L 220.59375 94.839844 C 219.960938 95.410156 219.203125 95.832031 218.386719 96.078125 C 217.511719 96.339844 216.730469 96.570312 215.992188 96.785156 C 215.527344 96.917969 215.035156 96.6875 214.847656 96.242188 L 214.253906 94.859375 L 212.867188 95.277344 L 215.007812 102.34375 L 216.394531 101.925781 L 215.964844 99.617188 C 217.414062 99.148438 218.996094 98.667969 220.503906 98.210938 L 228.421875 99.328125 C 229.050781 99.414062 229.59375 99.8125 229.867188 100.382812 L 230.34375 101.363281 L 231.71875 100.945312 Z M 230.066406 95.484375 "/>
<path style=" stroke:none;fill-rule:nonzero;fill:rgb(100%,100%,100%);fill-opacity:1;" d="M 115.84375 27.324219 L 114.550781 19.5 L 116.449219 18.90625 L 116.214844 17.484375 L 110.332031 18.457031 L 110.570312 19.878906 L 111.585938 19.851562 C 112.347656 19.832031 113.007812 20.378906 113.132812 21.132812 L 114.109375 27.023438 C 114.4375 29.015625 114.367188 30.457031 113.890625 31.425781 C 113.453125 32.320312 112.664062 32.832031 111.410156 33.039062 C 109.800781 33.304688 107.851562 33.042969 107.117188 28.589844 L 106.8125 26.742188 C 106.542969 25.136719 106.203125 23.042969 105.894531 20.9375 L 108.132812 20.285156 L 107.898438 18.859375 L 101.058594 19.988281 L 101.296875 21.414062 L 101.84375 21.390625 C 102.609375 21.355469 103.285156 21.894531 103.417969 22.648438 C 103.714844 24.304688 103.980469 25.894531 104.191406 27.175781 L 104.613281 29.707031 C 104.894531 31.410156 105.457031 32.75 106.277344 33.695312 C 107.476562 35.078125 109.214844 35.628906 111.402344 35.265625 C 113.113281 34.984375 114.371094 34.214844 115.148438 32.984375 C 116.003906 31.621094 116.238281 29.71875 115.84375 27.324219 "/>
</g>
</svg>
