<svg height="316.227766" viewBox="0 0 91.915543 91.915894" width="316.227766" xmlns="http://www.w3.org/2000/svg" xmlns:xlink="http://www.w3.org/1999/xlink"><clipPath id="a"><path d="m0 595.276h1048.819v-595.276h-1048.819z" transform="translate(-781.53579 -436.38141)"/></clipPath><clipPath id="b"><path d="m0 595.276h1048.819v-595.276h-1048.819z" transform="translate(-781.53579 -429.21071)"/></clipPath><clipPath id="c"><path d="m0 595.276h1048.819v-595.276h-1048.819z" transform="translate(-807.95905 -261.63071)"/></clipPath><clipPath id="d"><path d="m0 595.276h1048.819v-595.276h-1048.819z" transform="translate(-747.79432 -393.60191)"/></clipPath><clipPath id="e"><path d="m0 595.276h1048.819v-595.276h-1048.819z" transform="translate(-715.00352 -393.23571)"/></clipPath><clipPath id="f"><path d="m0 595.276h1048.819v-595.276h-1048.819z" transform="translate(-824.6368 -405.30451)"/></clipPath><clipPath id="g"><path d="m0 595.276h1048.819v-595.276h-1048.819z" transform="translate(-859.9228 -389.22921)"/></clipPath><clipPath id="h"><path d="m0 595.276h1048.819v-595.276h-1048.819z" transform="translate(-840.84332 -377.95871)"/></clipPath><clipPath id="i"><path d="m0 595.276h1048.819v-595.276h-1048.819z" transform="translate(-845.98675 -390.38201)"/></clipPath><clipPath id="j"><path d="m0 595.276h1048.819v-595.276h-1048.819z" transform="translate(-849.04375 -395.40861)"/></clipPath><clipPath id="k"><path d="m0 595.276h1048.819v-595.276h-1048.819z" transform="translate(-760.92579 -412.64481)"/></clipPath><clipPath id="l"><path d="m0 595.276h1048.819v-595.276h-1048.819z" transform="translate(-768.14589 -414.88291)"/></clipPath><clipPath id="m"><path d="m0 595.276h1048.819v-595.276h-1048.819z" transform="translate(-771.46082 -410.73581)"/></clipPath><clipPath id="n"><path d="m0 595.276h1048.819v-595.276h-1048.819z" transform="translate(-795.10779 -418.67161)"/></clipPath><clipPath id="o"><path d="m0 595.276h1048.819v-595.276h-1048.819z" transform="translate(-791.97384 -412.35011)"/></clipPath><clipPath id="p"><path d="m0 595.276h1048.819v-595.276h-1048.819z" transform="translate(-804.59222 -413.61961)"/></clipPath><clipPath id="q"><path d="m0 595.276h1048.819v-595.276h-1048.819z" transform="translate(-798.77484 -414.65561)"/></clipPath><clipPath id="r"><path d="m0 595.276h1048.819v-595.276h-1048.819z" transform="translate(-799.30464 -412.36591)"/></clipPath><clipPath id="s"><path d="m0 595.276h1048.819v-595.276h-1048.819z" transform="translate(-800.03192 -407.63811)"/></clipPath><clipPath id="t"><path d="m0 595.276h1048.819v-595.276h-1048.819z" transform="translate(-880.34935 -335.04401)"/></clipPath><g fill="#003478" fill-rule="evenodd"><path clip-path="url(#a)" d="m0 0v-.006h-.002-.005v.006c-35.092-.001-66.873-14.236-89.882-37.245-23.01-23.01-37.245-54.791-37.246-89.886h.006v-.002-.005h-.006c.002-35.092 14.236-66.873 37.245-89.882 23.01-23.01 54.792-37.245 89.886-37.246v.007h.002.005v-.007c35.092.002 66.873 14.236 89.882 37.245 23.01 23.009 37.245 54.792 37.246 89.886h-.006v.002.005h.006c-.001 35.092-14.236 66.873-37.245 89.882-23.009 23.01-54.792 37.245-89.886 37.246m-.002 3.142h.002v-.007c35.972 0 68.541-14.583 92.112-38.155 23.572-23.571 38.153-56.139 38.154-92.108h.006v-.005-.002h-.006c0-35.971-14.582-68.54-38.155-92.112-23.571-23.571-56.138-38.153-92.108-38.154v-.006h-.005-.002v.006c-35.971.001-68.54 14.583-92.112 38.155-23.572 23.571-38.153 56.138-38.154 92.108h-.006v.005.002h.006c.001 35.972 14.582 68.54 38.155 92.112 23.572 23.572 56.139 38.153 92.108 38.154v.007z" transform="matrix(.35277776 0 0 -.35277776 45.95848 1.10843)"/><path clip-path="url(#b)" d="m0 0v-.002h-.002-.005v.002c-33.116-.001-63.105-13.431-84.815-35.141-21.711-21.71-35.142-51.701-35.142-84.819h.002v-.002-.005h-.002c0-33.116 13.431-63.105 35.141-84.815 21.71-21.711 51.7-35.142 84.819-35.142v.002h.002.005v-.002c33.116 0 63.105 13.431 84.815 35.141 21.711 21.71 35.141 51.7 35.142 84.819h-.002v.002.005h.002c-.001 33.116-13.431 63.105-35.141 84.814-21.71 21.712-51.7 35.142-84.819 35.143m-.002 1.048h.002v-.003c33.411-.001 63.663-13.547 85.561-35.445 21.897-21.898 35.443-52.149 35.444-85.557h.003v-.005-.002h-.003c-.001-33.411-13.547-63.663-35.445-85.561-21.898-21.897-52.148-35.444-85.557-35.444v-.003h-.005-.002v.003c-33.411 0-63.663 13.547-85.561 35.445-21.897 21.897-35.443 52.148-35.444 85.557h-.003v.005.002h.003c.001 33.411 13.547 63.663 35.445 85.561 21.898 21.897 52.149 35.443 85.557 35.444v.003z" transform="matrix(.35277776 0 0 -.35277776 45.95848 3.63809)"/><path clip-path="url(#c)" d="m0 0c-5.589 4.541-15.354 7.559-26.425 7.559-11.075 0-20.838-3.017-26.427-7.558l26.427-15.258zm-29.574 49.561c8.726 3.854 15.514 9.257 21.655 14.496 3.87 3.2 5.792 6.257 5.792 9.226-.117 2.503-2.037 4.89-5.792 7.159-1.136.67-2.561 1.019-4.279 1.019-6.129-3.323.07-6.554.26-8.446.202-2.03-1.502-4.537-4.011-6.385-5.356-3.948-9.727-5.575-11.413-5.63-1.836-.06-4.598.961-8.352 3.23-3.872 1.834-5.938 3.639-6.143 5.473-.429 2.489 8.717 9.704 10.566 11.06 3.172 1.833 6.025 4.453 8.528 7.859 2.154 3.172 3.288 5.791 3.405 7.829 0 3.111-1.893 6.443-5.442 6.315-4.3-.155-5.999-9.463-8.354-12.522-2.479-3.218-6.276-7.381-11.787-11.518-3.805-2.857-9.023-6.363-9.023-11.759 0-1.368.903-2.737 2.707-4.103 2.182-1.486 5.472-3.057 9.896-4.775 3.085-1.134 5.252-2.433 4.598-3.055-3.45-1.35-12.596-6.52-14.989-9.722-1.784-2.387-3.21-6.369.495-10.594 9.21-6.682 20.757-10.675 27.301-11.234 9.72.408 18.644 7.403 22.498 13.126 1.834 2.823 2.677 5.181 2.561 6.986-.213 3.973-3.741 7.919-7.335 9.371-2.945 1.746-7.509.274-7.509-3.58 0-3.298 4.841-3.045 5.298-5.791 1.271-5.359-6.054-10.21-15.018-10.741-5.325-.287-18.376 4.193-17.726 8.179.475 2.907 7.139 6.552 11.613 8.527m3.149 60.932-27.226-15.719-27.225-15.719v-31.437-31.438l15.935-9.2c8.99 5.952 22.921 9.782 38.516 9.782 15.591 0 29.523-3.83 38.515-9.782l15.936 9.2v31.438 31.437l-27.226 15.719zm0 19.262c44.792 0 81.401-36.173 82.12-80.8h-27.668v-2.674h27.668c-.719-44.627-37.328-80.8-82.12-80.8-44.793 0-81.401 36.173-82.12 80.8h27.669v2.674h-27.669c.719 44.627 37.327 80.8 82.12 80.8" transform="matrix(.35277776 0 0 -.35277776 55.28002 62.75659)"/><path clip-path="url(#d)" d="m0 0c.059.149.102.295.094.444-.005.345-.659.899-.935 1.049-.395.139-.805.086-.825.47.109.066.222.128.354.177.235.107.473.177.689.18.913-.066 1.062-.013 1.886-.403.176-.095.479-.2.529-.425.057-.266-.158-1.183-.302-1.423-.135-.205-.682-.558-1.126-.663-.227-.052-.443-.033-.543.131.057.149.124.306.179.463m-2.674 4.363c-.162-.264-.377-.49-.56-.527-.304-.071-.749.724-.795.979-.031.121-.004.272.026.396.069.239.245.45.412.648.1.118.203.238.292.356.14.068.277.124.426.091.397-.103.64-.797.569-1.191-.034-.172-.18-.479-.37-.752m-4.004 6.416c-.098-.106-.223.112-.307.267-.022.051-.102.125-.084.289.023.159-.092.452-.175.697-.166.49.472.992.78 1.459.259.392.272.293.492.567.044.04.092.096.128.15.063.111.029.146.014.196-.056.189-.245.362-.397.436-.199.068-1.065.125-.838-.312.061-.12.084-.15.073-.256-.026-.247-.041-.208-.197-.436-.191-.279-.399-.591-.602-.815-.169.152-.195.872-.541 1.381-.105.156-.262.36-.435.436-.312.081-.693.202-1.075-.002-.153-.082-.366-.184-.458-.307-.137-.268.337-.564.787-.96.534-.471 1.132-.962.861-1.435-.115-.141-.167-.277-.419-.354-.167-.051-.42.224-.576.336-.102.1-.203.189-.297.292-.18.117-.79.461-.96.036.013-.079.054-.128.11-.18.102-.078.242-.134.323-.265.089-.125.085-.278.094-.415.004-.045.015-.082.029-.121.072-.241.342-.644.326-.861-.008-.185-.111-.369-.169-.537-.119-.196-2.565-3.048-2.531-3.103.226-.37 1.247-.208 1.526-.046.493.292.807 1.13 1.1 1.546.293.388.29.763.569 1.068-.126.206.303-.025.583-.11.214-.105.353-.312.546-.448.114-.082.147-.092.24-.208.175-.234.015-.401-.19-.647-.173-.106-.256-.36-.472-.396-.166-.029-.696.488-.822-.026-.142-.531.533-1.277.682-1.802.125-.414.075-.831.122-1.255.075-.741.168-1.156-.091-1.861-.094-.257-.114-.61-.016-.852.077-.254.7-.687.933-.75.145-.044.279 0 .417.075.142.087.275.186.33.306.124.295-.009.581.006.873.02.304.088.574.038.873-.06.342-.321 1.051-.119 1.355.063.106.468.484.786.689.143.097.269.155.333.139.286-.061.466-.849.471-1.083.002-.112-.027-.187-.073-.25-.098-.137-.286-.205-.409-.337-.172-.105-.46-.412-.447-.643.033-.631.958.161 1.176.143.392-.042.714-.99.691-1.295-.006-.127-.065-.239-.165-.319-.183-.15-.515-.238-.73-.325-.352-.149-1.198-.618-1.216-1.009-.029-.573.917-.42 1.236-.274.285.13.603.316.911.484.079-.129.181-.191.202-.349.035-.357-.165-1.101-.183-1.532-.066-.312-.443-1.089.066-1.251.308-.096.586.416.739.573.106.124.248.212.323.353.126.408.18.609.366.969.057.138.097.279.131.42.199.923.024 2.056.274 2.58.12.26.391.437.585.669.082.108.164.205.244.302.279.322.551.612.801.98.257.318.709 1.012.798 1.405.072.311.021.658-.043.958-.04.165-.181.313-.344.349-.694.157-1.516-.433-2.231.085-.293.21-.135.675-.477.899-.239.165-.57-.162-.784.029-.143.132-.083.365-.24.517-.186.179-.216.13-.378.344-.131.166-.043.579.065.74.094.143.013.11.128.239.245.282.657 1.025.59 1.363-.06.323-.425.675-.754.68-.196.003-.441-.09-.634-.16-.272-.104-.428-.234-.641-.413-.12-.073-.314-.469-.505-.547m-.354-4.655c.231.242.436.52.441.598.043.566-.499.556-.904.315l-.448-.341c-.226-.212-.062-.529.089-.748.073-.096.17-.256.292-.255.085-.003.314.2.53.431m-11.38 3.572c.439.269.536.288 1.024.164.603-.163 1.004-.284 1.338-.798.304-.475.439-.836.679-1.351.062-.282-.118-.619-.125-.908-.023-.543.121-1.408-.316-1.875-.028-.026-.133-.139-.168-.082-.404.262-1.01 2.213-1.352 2.684-.189.576-.548.826-.854 1.302-.096.139-.247.301-.311.459-.031.191.041.302.085.405m2.067-6.344c.493.25 1.047.031 1.506-.173.661-.264.942-.42 1.299-.753.154-.143.276-.317.436-.398.161-.08.364-.074.655.104.303.299.256 1.393.767 1.143.472-.243.039-.819.062-1.155.09-.436.112-.923.244-1.335.217-.689.325-1.709.493-2.476.498-.953.506-1.618.772-2.617.245-.575.412-1.196.678-1.79.153-.356.421-.739.495-1.111.101-.439.069-1.326-.278-1.674-.199-.186-.6-.29-.841-.334-.909-.188-1.692.86-1.925 1.693-.233.877-.518 1.659-.632 2.57-.281 1.246-.787 2.449-1.162 3.655-.217.688-.475 1.181-.82 1.812-.196.515-.508.917-.807 1.376-.343.517-.975.794-.942 1.463" transform="matrix(.35277776 0 0 -.35277776 34.05524 16.20008)"/><path clip-path="url(#e)" d="m0 0c.65.441 1.612.672 2.301.524.259-.06.699-.389.98-.528.203-.147.431-.527.65-.734.332-.367.361-.787.26-1.238-.05-.198-.056-.393-.158-.583-.24-.422-.565-.606-.903-.623-.478-.022-.987.292-1.369.707-.329.353-.534.866-.934 1.273-.455.432-1.234.165-1.068 1.028.076.065.156.131.241.174m9.625-9.783-.237.226c-.214.206-.486.303-.711.52-.212.215-.429.367-.642.584-.15.158-.596.65-.906.835-.097.058-.241.093-.349.073-.075-.215-.033-.287.003-.484.187-.509.613-.763.928-1.159.269-.348 1.24-1.336 1.268-1.796.049-.982-1.756-.051-1.931.069-.611.362-1.238.621-1.822 1.012-.228.127-.493.242-.734.381-.716.497-1.587.931-2.246 1.423-.248.179-.656.595-.717.862-.027.086.384.904.447 1.102.222.355.616.551.498.961l-.26.485c-.244.41-.444.637-.936.163-.108-.106-.176-.155-.238-.279-.372-.366-.325-1.079-.898-1.18-.082-.006-.181-.018-.263.019-.271.129-.451.429-.666.647-.335.272-.496.478-.775.788-.301.306-.537.649-.838.955-.351.485-.838.853-1.236 1.302-.454.67-.868 1.584-2.046 1.875-.475-.153-1.156-.184-1.551-.596-.298-.31-.913-.886-.381-1.152.012-.109.304-.233.615-.247.701-.032 1.167-.629 1.352-.744l.212-.127c.306-.213.926-.768 1.189-1.022.902-.893 1.963-1.703 2.944-2.516.256-.213.758-.346.873-.695.076-.238-.052-.501-.195-.745-.089-.146-.172-.295-.218-.425-.058-.282-1.276-2.872-1.552-3.343-.351-.849-.893-1.768-1.312-2.622l-.373-.681c-.759-1.38-1.701-2.936-2.63-4.112-.177-.226-.844-1.034-.675-1.28.182-.272 1.215-.083 1.605-.088.521.139.888.161 1.307.547.334.329.351.585.517.924.258.467.691 1.694 1.096 2.768.352.923.672 1.729.886 1.862.221.066.478-.094.637-.226.279-.342.606-.646.854-.999.206-.238.464-.458.61-.719.094-.17.359-.947.465-1.028.174-.119.65-.079.843-.001.334.127.76.437.956.79.047.084.077.179.101.263.042.291-.083.907-.256 1.126-.2.252-.582.404-.64.726-.042.233.203.435.252.646.072.258.101 1.015.472.955.157-.022.296-.137.425-.197.174-.091.391-.105.562-.223 1.131-.739.454-2.26.257-3.267-.059-.322-.129-.656-.22-.997-.196-.818-.456-1.673-.732-2.399-.158-.42-.33-.913-.481-1.384l-.157-.495c-.329-.96-.542-1.774-1.022-2.682-.545-.537-.798-1.239-1.344-1.813-.096-.12-.45-.769-.342-.964.268-.187 1.174-.294 1.359-.276.509.035 1.007.4 1.461.622.257.13.576.182.811.383.15.123.311.295.382.44.412.93.718 1.609.912 2.691.301 1.381.598 2.75.881 4.121.278 1.387.533 2.784.74 4.2.015.19.041.367.075.537.099.537.246 1.057.219 1.607-.031.333-.231.66-.181.997.087.625.796-.155.949-.281.268-.211.596-.403.905-.599.409-.212.719-.385 1.106-.629 1.028-.418 1.854-.955 2.918-1.193.236-.054.452-.203.71-.199.411.005.712.54.753.878-.02.293-.02.532.016.942-.006.647-.446 1.266-1.008 1.679-.42.263-.733.657-1.145.89-.616.331-1.016.565-1.505.988m-7.05-1.713c-.547.062-1.193.166-1.464.224-.362.074-.643.185-.951.372-.144.043-.427.04-.525.207-.018.019.456 1.202.552 1.434l.058.132c.142.274.405.65.695.569.239-.066.613-.374.83-.522.642-.346 1.088-.874 1.714-1.209.189-.191.366-.355.583-.516.426-.434-.336-.718-.681-.745-.149-.008-.457.014-.811.054m-3.46-2.049c.442-.193 1.103-.369 1.275-.264.23.128.312.421.418.637.557 1.149-.485.899-1.073 1.564-.034.053-.225.291-.278.238-.247-.177-.779-1.181-.823-1.687-.002-.101.005-.182.043-.233.055-.071.225-.167.438-.255m-4.321 4.392c.361.968.698 1.977 1.112 2.473.8.797 1.893-.005 1.772-.928-.227-.685-.492-1.622-.835-2.234-.106-.196-.347-.341-.515-.505-.049-.066-.102-.13-.168-.194-.292-.3-.596-.574-.893-.867-.289-.186-.666-.166-.981-.298-.36-.142-.619-1.014-1.084-.844-.066.023-.152.079-.231.16.111.586.712.965.949 1.422.334.428.607 1.114.874 1.815m4.296-9.382c.206.094.426.147.581.148.433.027.735-.251 1.123-.324.368-.04 1.145.026 1.048-.572-.088-.188-.169-.381-.253-.574-.068-.232-.031-.518-.139-.741l-.132-.202c-.19-.289-.495-.676-.72-.822-.149-.096-.364-.08-.521-.023-.843.273-.465.808-.763 1.329-.163.19-.81.807-.843.986-.075.365.262.632.619.795" transform="matrix(.35277776 0 0 -.35277776 22.48737 16.32927)"/><path clip-path="url(#f)" d="m0 0c.679-.322.666-.614.805-1.105.065-.227.279-.456.241-.747-.017-.135.045-.211.057-.329.036-.363-.582-1.063-.953-1.819-.223-.458-.421-.59-.627-.716-.354-.217-.474-.584-.604-.733-.234-.451-.517-.865-.751-1.316-.098-.099-.183-.103-.309-.296.017-.008-.067-.207.121-.125.043-.148.496-.234.864-.258.223-.015.387.122.628.058.472-.125 1.028-.1 1.316.004.288.328.376.787.615 1.083.072-.035.144-.07.217-.105.471-1.174.849-1.133.881-1.484.031-.33-.073-.986-.618-1.471-.216.024-.459.029-.662.066-.783.142-1.34.219-2.047.332-.393-.026-.946-.084-1.28-.056-.528.044-.832.429-1.236.218-.149-.069-.316-.269-.349-.46.181-.27.67-.642.941-1.015.122-.168.273-.68.389-1.141.221-.874.628-1.47 1.211-2.159.453-.534 1.748-.503 2.021-1.07-.001-.175-.142-.385-.264-.452-.93-.154-1.447-.668-2.645-.834-.366-.051-.685.086-.952.219-.073.578-.345.566-.479.878-.144.65-.382 1.412-.365 1.983.034.728-.076 1.789-.025 2.465.026.352-.033.437-.131.509-.873-.966-2.642-2.468-5.192-2.475-1.3-.005-2.206.977-2.369 1.868.094.163.182.288.276.45.493-.178.693-.338 1.185-.512.697-.247.928-.286 2.03-.074.395.076.831.147 1.274.39.675.369 1.236.984 1.334 1.638-.067.018-.191.023-.257.04-.018-.013-.032-.031-.053-.038-.783-.25-1.064-.07-1.684-.143-.237-.028-.544-.189-.892-.22-.193-.016-.286-.123-.468-.149-.252-.036-.639.093-.893.284-.264.199-.329.591-.602.857.459.932.637.594 1.278 1.396.177-.027.36-.038.48-.039.3-.146.56-.174.86-.32.292-.037 1.493-.051 2.406-.087.476-.019.926-.122 1.02-.071.234.155.476.797.705 1.067.213.249.23.449.343.646.578 1.007 1.216 2.267 1.461 2.978.169.492.255.59.459.921.241.388.291.93.595 1.316.221.056.473.097.694.153" transform="matrix(.35277776 0 0 -.35277776 61.16356 12.07166)"/><path clip-path="url(#g)" d="m0 0c.174-.23.438-.357.611-.587.395-.838.259-1.489-.312-2.394-.529.118-.93-.283-1.952.046-.188.061-.368-.075-.566-.077.01-.16.019-.319.028-.479 1.375-.363 3.176-.741 3.843-2.049-.189-.377-.342-.968-.531-1.345-.204-.407-.444-.6-.648-1.006-1.221-.503-2.42-1.058-4.657-.25-.434.156-.852-.227-1.305-.132-.764.161-.901.468-2.132.851-1.15.357-1.87.8-2.683 1.166.037.042.075.084.112.127.638.038 1.078.16 1.913.114 1.297.639 2.568 1.645 3.685 1.397.328-.141.473-.3.521-1.505.399.024.657-.009 1.196.071.453.444.215.413.323.62-.212.168-.722.686-1.019.892-.187.128-.177-.048-.31.057-.496.396-.696.665-1.191 1.06-.169-.08-.389-.114-.558-.194-.22-.104-.389-.253-.609-.356-.138.171-.328.202-.415.503-.076.261-.1 1.011-.319 1.213-1.459 1.343-2.007 1.758-2.007 1.758s-.208.399-.063.378c.267-.038.449-.105.285-.051.825-.271.623-.235 1.669-.663.144-.06.373.076.537.083.313.045.317.485.323.68.026.728.1 1.139.504 1.529.08.005.16.01.239.015.169-.15.338-.3.507-.45.123-.712.246-1.425.369-2.138 1.473-.513 3.036.108 4.612 1.116" transform="matrix(.35277776 0 0 -.35277776 73.61167 17.74267)"/><path clip-path="url(#h)" d="m0 0c-.291.251-.907.63-1.41.833-.803.323-1.794.601-2.359.838-.626.264-1.058.783-1.071 1.367-.156.566-.06 1.587.445 2.163.295-.204.791-.417 1.102-.681 1.539-1.297 3.062-2.732 4.472-3.303.317.233.683.537.835.841.27.54.264.958.803 1.58.2-.029.043-.029.24.004.673-.487 1.822-.862 2.903-1.018.939-.134 1.82-.124 2.378.383-1.347.889-2.716 1.028-4.047 1.493-1.643.574-3.12 1.302-4.783 1.636-1.01.204-2.709.185-3.419.538-2.072 1.031-2.149 4.166-1.061 4.747.08-.001.154.014.239.003 2.181-2.303 4.184-2.624 6.188-3.636 2.346-1.184 3.762-2.22 5.53-2.526.078.081.156.162.235.243-.067.241-.064.236-.007.479-.567.525-.924.728-1.455.582-.279-.076-.439.326-.842.699.267.279.339.367.593.369.473-.004 2.017-.762 2.031.391.112.557-.347 1.538.213 1.681.039.04.078.081.117.121 1.53-1.614.942-1.778 1.35-2.015.816.006 1.114.782 1.728.591.188-.058.392-.284.667-.552-.039-.041-.079-.081-.118-.122.251-1.056-.828-1.475-1.809-1.683-.311-.065-.533-.285-.732-.454-.082-.357-.088-.51-.405-.905.248-.196.489-.416.745-.505 1.12-.393 2.22-.317 3.182-1.648-.814-2.662-1.847-3.017-3.624-2.07-.938.501-1.973.917-2.88 1.163-.352.095-.879.278-1.111.204-.158-.051-.237-.246-.452-.443.038-.169.136-.458.107-.605-.075-.394-.51-.701-.487-1.045.01-.159.158-.286.414-.506 1.035-.582 1.482-.51 1.456-1.175.158-.466.055-.896-.287-1.374-.182-.061-.488-.072-.744-.019-.272.057-.486.179-.422.15-.718.33-1.144 1.462-1.791 1.79-1.054-1.175-1.96-2.105-2.859-2.653-.399-.243-.657-.424-1.109-.55-.323-.089-.577-.247-.944-.185-.476.082-.457-.02-.893.257-.317.202-.696.452-.951.834-.286.426-.101.586-.285 1.546-.043.571-.199 1.163-.292 2.432.407-.113.292-.223.759-.647-.025-.395.933-1.421 1.498-1.405.289.036.349.027.505.095.633.28 1.314 1.006 1.914 1.672" transform="matrix(.35277776 0 0 -.35277776 66.88086 21.71866)"/><path clip-path="url(#i)" d="m0 0c-.981-.358-1.459-.415-2.152-.933-.897-.67-.375-1.46-1.887-1.874-.503.252-.76.193-1.352.745.018.369-.076.761-.069.913.019.415-.017.528.003.943.105.481.265.626.463.857.369.43.626.983.937 1.459.517.833 1.053 1.897 1.63 3.002.159.003.279-.164.307-.483-.023-.346.043-.856-.058-1.448-.294-1.723-.354-1.536-.611-2.081-.109-.233-.12-.36.029-.713-.043-.257.455-.246.605-.253.931-.04.668-.089 1.529-.098.197 0 .525.062.626-.036" transform="matrix(.35277776 0 0 -.35277776 68.69534 17.33599)"/><path clip-path="url(#j)" d="m0 0c.142-.137.302-.304.444-.442.032-.873.179-1.903.274-2.859-.177-1.386-1.75-3.187-3.291-4.263-.277-.193-.499-.522-.766-.652-.35-.17-.562-.086-.875-.135-.413.462-.409.816-.193 1.213.175.322.468.649.734 1.023.232.373.413.223.72.618.486.624 1.042 1.68.96 1.503.199.432.257.756.488 1.153.762 1.311 1.258 2.324 1.505 2.841" transform="matrix(.35277776 0 0 -.35277776 69.77378 15.56272)"/><path clip-path="url(#k)" d="m0 0c.881.3.784-.021 1.399-.309 1.047-.49 1.372-.963 1.467-1.437.149-.74-.354-1.367-.247-1.186-1.878-3.175-1.97-3.229-1.912-3.528.045-.039.28-.104.337-.118 1.049.254 1.286.006 1.468-.095.441-.243 1.11-.814.912-1.497-.038-.314-.44-1.246-.623-1.65-.311-.686-.245-.727-.338-.93-.549-1.199.131-1.49.305-1.816.065-.019.128-.037.192-.057.533.34.39 1.734.708 2.277.145.026.172-.194.236-.335-.123-.397-.066-.767-.092-1.215-.111-2.039-.269-2.367-.221-3.068.031-.457-.086-.968-.17-1.099-.063-.314-.233-1.013-.358-1.269-.599-.213-1.169.135-1.503.518-.241.278-.191.638-.201.81.156.911-.174 1.901-.228 2.045-.317.488-.714.559-1.154.74-.584 1.536-.01 1.321.27 2.381.062.233.308 1.156.164 1.295-.509-.039-.827-.303-1.399-.752-.286-.225-.618-.308-.835-.087-.143-.019-.494.057-.637.04-.438.083-.529 1.122-.757 1.747.191.136.1.335.139.544.077.079.373.584.45.662.498.879.512 1.094.764 1.648.292.642.832 1.714 1.664 4.373.138.438-.105.599.12 1.295.027.024.053.049.08.073" transform="matrix(.35277776 0 0 -.35277776 38.68773 9.48217)"/><path clip-path="url(#l)" d="m0 0c1.076.505 1.873.526 2.903.398.204-.026.468.014.639-.07.497-.241.86-.869 1.435-.992.035-.094.141-.208.176-.302-.058-.051.012-.227.019-.321.015-.188.027-.332-.004-.482-.02-.093-.38-.295-.448-.369-.426-.472-.811-.549-1.484-.391-.396 1.241-4.04-.005-3.441 1.91.073.234.1.402.205.619" transform="matrix(.35277776 0 0 -.35277776 41.23482 8.69262)"/><path clip-path="url(#m)" d="m0 0c.329.11.659.219.989.328.024-.026.048-.053.072-.079-.004-.235-.056-.568-.053-.769.022-.098.045-.197.068-.295-.072-.523-.43-1.608.23-2.096.321-.238.808-.175 1.207-.253.343-.067.84-.34 1.107-.612.102-.105.389-.342.403-.618.015-.311-.45-1.194-.624-1.475-.184-.299-.432-1.317-.52-1.692-.316-1.359-.814-1.787-1.809-2.818-.363-.376-1.247-.424-1.533-.19-.116.132-.227.42-.227.42s.055.264.112.38c.296.605.805 1.247.996 1.584.146.257.259 1.156.259 1.156s-.012.427-.38.474c-.762.045-1.284-1.744-1.444-2.132-.119-.284-.228-.703-.39-.959-.062-.08-.125-.161-.187-.241-.239-.765-.597-2.158-1.237-2.689-.385-.319-1.028-.851-1.606-.795-.029.112-.009.117.012.197.316.314.28.603.393 1.003.201.712.383 1.46.591 2.19.471 1.653 1.451 3.1 2.121 4.667-.057.114-.114.228-.172.342-.343.04-.431-.334-.935-.415-.229-.037-.372.078-.556.112-.115-.014-.231-.029-.347-.044-.385.039-1.012.459-1.109 1.017l.598.46c.123.053.245.106.368.159.308.252.47.732.729 1.022.257.289.674.47.884.781.21.312.116.755.424 1.036.402.368 1.166.482 1.566.844" transform="matrix(.35277776 0 0 -.35277776 42.40425 10.15562)"/><path clip-path="url(#n)" d="m0 0c.043-.008.087-.016.129-.023.069-.14.146-.237.243-.33.105-.101.206-.118.19-.269-.067-.66-.245-1.307-.446-1.575-.005-.023-.011-.047-.016-.07-.101-.433-.265-.399-.504-.725-.209-.284-.259-.528-.543-.735-.573-.419-.981-.906-1.398-1.104-.566-.27-1.386-.95-1.945-.762-.23.077-.413.116-.618.279-.024.355.167.329.272.551.027.15.128.288.155.438.083.15.255.37.354.514.035.113.064.233.127.333.219.352.352.333.524.505.376.463.502.635.999.931.195.223.619.568.834.871.396.285.767.595 1.172.901.157.118.326.132.471.27" transform="matrix(.35277776 0 0 -.35277776 50.74638 7.35605)"/><path clip-path="url(#o)" d="m0 0c.322-.064.458-.259.583-.459-.322-1.914-1.161-2.781-2.152-3.7-.003-.014-.006-.029-.007-.043.016-.026.034-.051.052-.076.531-.085.869-.284 1.046-.61-.002-.133.039-.274.037-.407.049-.159.112-.261.136-.452.011-.088.007-.157-.038-.228-.185-.297-.077-.815-.346-1.206-.1-.371-.519-.969-.517-1.263.083-.028.05-.039.115.024.18.287.393.591.636.819.05.029.108.048.151.085.554.475.896 1.137 1.931 2.501.258.339.522.551.571.662.222.507.33.823.814 1.28.005.004.042.037.048.037.049.003.047.012.056-.002.008-.011-.002-.026-.006-.041-.058-.225-.234-.4-.315-.643-.321-.968-.344-1.021-.518-1.489-.259-.699-.582-1.308-.764-1.795-.256-.685-.516-1.108-.426-.989-.177-.232-.339-.418-.459-.623-.333-.57-1.528-2.199-1.789-2.514-.206-.249-.603-.562-1.177-1.431-.337-.507-1.154-1.148-1.029-1.068-.261-.166-.513-.327-.591-.468-.311-.568-.79-.498-.974-.493-.271.53-.642 1.155-.667 1.719-.031.646.101 1.359.339 1.945.519 1.28 1.638 2.708 2.042 3.156.183.369.318.699.728 1.211.035.061.137.282.257.485.184.315.324.685.283.786-.216.535-.272.331-.458.607-.097.145-.228.251-.282.309-.037.039-.021.13-.02.151.004.092.049.173-.032.34-.04.083-.078.145-.031.195.062.067.206.164.308.261.091.085.124.183.175.297.451 1.011 1.205 2.652 1.442 2.861.222.196.549.183.848.269" transform="matrix(.35277776 0 0 -.35277776 49.64079 9.58613)"/><path clip-path="url(#p)" d="m0 0c.201-.051.393-.044.537-.113.174-.038.842-.241.951-.375.279-.343.341-.463.685-.74.174-.139-.036-.704-.165-.86-.21-.255-.546-.353-.859-.471-.191-.073-.211-.13-.393-.049-.185.084-.451.175-.607.28-.338.228-.583 1.077-.789 1.506-.016.035-.026.039-.013.072.011.03.005.06.003.089-.003.044.028.064 0 .093-.024.024-.041.046-.055.068-.03.045-.046.091-.075.161.004.02.009.047.042.07.121.009.158.005.237.035.199.075.294.135.501.234" transform="matrix(.35277776 0 0 -.35277776 54.09227 9.13828)"/><path clip-path="url(#q)" d="m0 0c.379-.109.653-.192.887-.37.054-.041.044-.043.049-.108.016-.223.15-.433 0-.664-.16-.235-.45-.303-.599-.492-.326-.409-.441-.535-.964-.67-.251-.065-.379-.364-.691-.387-.34.692.618.903.665 1.58.003.03 0 .034-.018.058-.094.128-.189.257-.285.385.031.127.062.255.092.383.196.277.429.233.77.285.038.006.057.011.094 0" transform="matrix(.35277776 0 0 -.35277776 52.04003 8.7728)"/><path clip-path="url(#r)" d="m0 0c.149-.045.292-.106.4-.183.065-.048.068-.054.069-.132 0-.142.001-.284.001-.426.001-.058.018-.088-.032-.12-.341-.218-.681-.437-1.021-.656-.051-.079-.103-.158-.154-.238-.474-.254-.907-.403-1.473-.535-.245-.057-.659-.318-.954-.118.16.709.775.955 1.28 1.192.326.153.572.478.875.664.086-.042.142-.039.219-.017.14.338.488.457.79.569" transform="matrix(.35277776 0 0 -.35277776 52.22694 9.58056)"/><path clip-path="url(#s)" d="m0 0c-.129-.058-.297-.037-.44-.099-.065-.077-.131-.154-.197-.231-.194-.191-.617-.349-.86-.467-.089.002-.178.002-.266.004-.274-.102-.976-.445-1.201-.628-.191-.156-.717-.417-.636-.819.009-.031.018-.063.027-.094.059-.003.118-.006.177-.009.543.198.976.628 1.53.857.164.221.169.238.424.257.157.091.261.19.471.271.319-.042.633-.166.71-.372-.025-.181-.051-.361-.076-.541-.001-.007-.002-.015-.003-.022-.001-.001-.003-.002-.004-.002-.186-.091-.857-1.044-.793-1.343.01-.031.019-.062.028-.094.533-.055 1.248.534 1.534.88.011.162-.026.318-.064.458-.072.273-.03.494-.002.775-.036.311-.237.597-.225.913.003.096.019.176-.009.261-.041.015-.083.03-.125.045m-3.767-4.897c-.116-.069-.231-.136-.347-.204-.051-.151-.181-.54.065-.5.192.074.464.195.527.46-.003.022-.006.046-.009.068-.051.095-.106.133-.236.176m1.522 2.414c-.273-.292-.868-.395-.984-.779.126-.111.27-.08.48-.175.088-.082.178-.165.266-.247.037 0 .075.001.112.002.011.02.022.04.033.06.164.261.237.881.176 1.102-.028.012-.055.024-.083.037m-.89 3.566c-.546.079-.238-.443-.197-.595.013-.01.026-.02.039-.03.051-.001.103-.003.154-.005.074.118.795.586.58.777-.028.012-.549-.159-.576-.147m4.438 9.009c.998-.289.514-1.395.41-2.437-.036-.364-.009-.734-.002-1.1-.067-.114-.22-.095-.22-.361-.004-.911-.107-2.082-.016-2.928.038-.353-.053-.572.051-.831.024-.076-.039-.142.29-.118.47.252 1.021.248 1.363-.201-.076-.414-.246-.342-.432-.544-.559-.61-1.405-1.772-1.034-2.79.008-.005.015-.011.022-.017.006-.004.012-.008.018-.013.034-.006.067-.023.102-.029.067-.012.088-.008.134.035.446.411.936.583 1.417 1.111.037.043.05.083.108.081.14-.005.289.053.352-.037.081-.114.195-.145.304-.246.311-.287.117-.654.032-1-.044-.053-1.044-.818-1.106-.844-.123-.052-.224-.086-.319-.17-.22-.267-.865-.515-.941-.781-.002-.014-.004-.029-.007-.043.075-.166.107-.26.09-.414-.037-.34-.012-.215.065-.415.115-.296-.062-.596.03-.91.021-.072-.007-.09.014-.162-.06-.165-.055-.278-.095-.361-.002-.222-.005-.443-.008-.665-.057-.283-.109-1.877-.123-2.442-.001-.075-.065-.353-.047-.61.022-.307.125-.593.125-.593.103-.064.164-.008.264.041.129.212.11.469.215.706.251.641.401 1.029.57 1.319.052.21.205.422.279.579.103.183.069.344.18.493.919-.007-.133-2.893-.711-4.221-.087-.201-.239-.653-.257-.738-.024-.113-.048-.226-.073-.339-.089-.162-.349-.331-.444-.498-.018-.097-.035-.193-.052-.29-.012-.065-.036-.111-.072-.167-.118-.188-.313-.387-.467-.48-.833.169-.59.539-.686 1.122-.038.118-.076.237-.114.354.025.181.05.361.075.542-.085.658.033 1.351.023 2.106-.029 2 .357 4.122-.242 5.706-.301.039-1.3-.333-1.439-.474-.217-.249-.18-.76-.251-1.154-.045-.248-.131-.332-.193-.455-.192-.378-.094-1.198-.34-1.648-.401-.729-1.592-.358-2.544-.187-.362.072-.726.144-1.089.217-.039.008-.043.033-.063.067-.027.046-.055.092-.082.137-.249.217-.422.291-.59.55.138.783.398 1.136.675 1.656.033.142.066.284.099.426.127.211.414.562.346.937-.011.024-.021.049-.031.073-.03-.003-.06-.004-.09-.007-.491-.202-.904-.896-1.496-.908-2.335-.079-.383.61.026.804.219.146.523.356.741.502.701.551 1.367 1.048 2.013 1.681.105.103.27.08.368.201.042.1.032.154 0 .244-.353 0-1.057-.438-1.315-.274.17.404.765.397 1 1.048-.003.023-.151.176-.154.198-.075.155-.28.28-.318.457.017.175.033.35.051.525-.053.169-.255.232-.275.449.126.051.221.131.378.131.152-.094.535-.437.728-.372.823.273 1.659 1.389 2.405 1.119.092-.149.184-.298.276-.447.014-.024.016-.027.011-.053-.178-.818-1.224-1.486-1.755-1.856-.233-.164-.777-.51-.797-.856.023-.034.047-.068.071-.102.014-.002.028-.005.042-.007 1.017.93 2.265 1.131 3.118 2.393.053.257.107.514.16.77.165.921.426 1.8.342 2.649-.02.366.281.643.25 1.018-.098 1.167.15 2.551.403 3.972.099.042.188.083.254.176" transform="matrix(.35277776 0 0 -.35277776 52.4835 11.24842)"/><path clip-path="url(#t)" d="m0 0c.517.138.831.339.939.596.112.259.082.757-.088 1.493l-.051.216.415.11 1.563-6.716-.414-.11-.05.215c-.171.731-.362 1.181-.575 1.36-.21.177-.575.195-1.092.057l-4.382-1.17-4.687-5.904c-.31-.384-.498-.728-.561-1.032s-.04-.69.067-1.153c.012-.045.031-.115.06-.21.028-.095.048-.171.062-.23l-.414-.11-1.699 7.295.415.11c.123-.527.26-.914.41-1.161.15-.246.314-.347.491-.299.111.03.221.093.331.194.112.098.277.296.496.587l3.246 4.16-4.631 2.184c-.259.125-.472.208-.643.254-.167.045-.305.053-.41.024-.172-.045-.283-.201-.335-.468-.053-.267-.044-.633.025-1.094l-.415-.11-1.051 4.512.415.112c.324-1.076 1.181-1.937 2.574-2.586l.082-.04 5.077-2.376zm-9.159-15.592-.012.135c-.017.211-.049.375-.099.486-.05.112-.126.215-.229.302l-.061.736 3.847 1.179.155-.328c-1.06-.761-1.84-1.56-2.337-2.392-.495-.832-.707-1.697-.634-2.595.036-.439.121-.721.253-.848.132-.128.482-.165 1.056-.111l10.059.943c.537.05.883.195 1.038.433.151.237.198.727.137 1.47l-.018.222.425.039.562-6.875-.426-.04-.017.221c-.062.75-.188 1.227-.376 1.439-.191.209-.555.288-1.091.237l-10.059-.942c-.562-.052-.898-.155-1.014-.304-.115-.151-.156-.448-.119-.894.073-.898.419-1.707 1.04-2.428.622-.723 1.519-1.361 2.693-1.924l-.097-.368-3.982.466-.058.716c.087.111.146.227.176.35.031.118.035.289.018.507l-.012.145zm.592-13.375.426-.032-.015-.222c-.049-.75.003-1.242.155-1.484.149-.236.494-.375 1.031-.415l10.021-.751c.531-.039.887.047 1.065.26.182.215.297.695.346 1.446l.014.221.427-.032-.451-6.904-.426.031.014.222c.05.754-.002 1.25-.154 1.487-.149.233-.491.372-1.022.412l-10.02.75c-.544.041-.903-.042-1.081-.251-.178-.206-.291-.699-.342-1.473l-.426.032zm6.038-21.42.071.391c1.626.307 2.844.779 3.655 1.411.812.631 1.318 1.505 1.519 2.615.16.879.077 1.621-.251 2.23s-.846.986-1.56 1.136c-.644.134-1.239-.016-1.774-.448-.539-.432-1.204-1.347-1.999-2.742-.852-1.498-1.65-2.507-2.395-3.03-.744-.521-1.59-.682-2.541-.485-1.109.231-1.919.812-2.429 1.739-.509.926-.641 2.065-.396 3.412.181.996.532 1.976 1.051 2.936.121.231.188.376.198.434.023.127.003.293-.057.501-.06.206-.166.457-.315.752l.063.344 4.467-.929-.071-.391c-1.416-.228-2.536-.664-3.36-1.309-.827-.646-1.33-1.476-1.516-2.495-.124-.687-.05-1.29.22-1.815.274-.526.676-.843 1.208-.954.553-.115 1.059.009 1.515.374.457.36 1.059 1.191 1.804 2.484.532.933.945 1.607 1.235 2.026.293.415.567.74.823.97.568.507 1.135.851 1.7 1.027.562.178 1.171.196 1.824.06 1.243-.259 2.128-.94 2.66-2.043.535-1.104.647-2.501.34-4.191-.176-.966-.531-1.936-1.066-2.915-.13-.25-.203-.407-.214-.469-.024-.134-.004-.303.056-.508.061-.202.17-.454.324-.749l-.064-.352zm-10.838-9.531c-.522.237-.825.472-.91.706-.088.23-.007.654.237 1.267.419 1.06.983 1.787 1.694 2.18.709.39 1.473.399 2.294.027.9-.41 1.465-1.03 1.692-1.857s.103-1.837-.37-3.029l-.471-1.188zm9.008-9.389 2.518 6.354-.394.179-.081-.205c-.274-.692-.529-1.106-.766-1.247-.233-.138-.596-.096-1.086.127l-4.497 2.044.29.733c.236.595.566 1.02.991 1.27.426.25 1.313.426 2.667.527l4.35.292 1.698 4.284-.427.194c-.012-.03-.024-.071-.041-.129-.016-.057-.028-.095-.037-.12-.332-.836-1.349-1.339-3.052-1.515-.075-.009-.134-.015-.176-.017l-2.134-.244c-.027-.002-.073-.006-.144-.017-1.062-.123-1.879-.403-2.46-.834.253 1.149.255 2.096.006 2.831-.25.737-.753 1.275-1.502 1.616-1.043.474-2.071.333-3.09-.422-1.018-.754-1.88-2.022-2.587-3.804l-2.409-6.078.393-.179c.285.72.546 1.149.782 1.286.232.136.598.093 1.094-.133l9.246-4.203c.49-.223.772-.473.842-.746.071-.277-.031-.764-.307-1.46l-.081-.204zm-8.262-14.603-.362.243c.387.663.568 1.136.54 1.42-.028.281-.269.576-.726.881l-8.519 5.701c-.457.305-.813.41-1.061.315-.253-.097-.573-.477-.961-1.14l-.362.242 5.853 10.031 3.842-.691-.216-.371c-.712-.118-1.324-.241-1.837-.37-.512-.126-.921-.259-1.232-.395-.311-.135-.581-.272-.809-.412-.228-.141-.433-.293-.612-.455-.149-.13-.31-.319-.488-.568s-.372-.556-.588-.925l-.854-1.464c-.158-.27-.236-.46-.239-.572.002-.11.092-.225.27-.345l.331-.22 4.237-2.836.668 1.144c.598 1.026.879 1.938.839 2.726-.043.791-.403 1.525-1.085 2.203l.207.354 5.259-3.518-.206-.354c-.92.525-1.758.648-2.511.37-.755-.28-1.451-.965-2.088-2.058l-.668-1.145 4.197-2.809c.571-.38.937-.547 1.097-.498s.398.344.711.88l.74 1.268c.641 1.1.951 2.175.927 3.222-.02 1.049-.382 2.273-1.087 3.667l.248.35 2.764-3.214zm-12.05 2.754 3.369-8.62-8.504 2.816c-.345.114-.622.221-.833.321-.214.099-.367.193-.457.28-.119.115-.133.303-.039.564.095.256.316.632.664 1.135l-.317.307-4.34-5.162.318-.306.151.18c.564.67 1.745.713 3.551.131.004-.005.006-.007.006-.007l11.399-3.683.328.389-4.749 12.014-.007.006c-.571 1.466-.58 2.679-.029 3.637l-.317.307-2.871-3.415.324-.299c.322.354.632.578.933.674.302.097.552.053.751-.138.133-.128.249-.277.347-.433.098-.162.206-.394.322-.698m-10.408-8.093.269-.356-.162-.14c-.545-.473-.847-.85-.908-1.132-.06-.279.08-.644.419-1.092l6.322-8.36c.335-.443.637-.662.903-.657.272.004.679.241 1.224.715l.162.14.268-.356-5.023-4.356-.269.356.162.14c.548.475.852.854.91 1.135.058.276-.081.638-.416 1.082l-6.321 8.359c-.343.453-.645.678-.909.675-.262-.001-.676-.249-1.239-.737l-.269.355zm-16.902-14.738 15.991-5.009.662.442-5.652 9.685c-.48.823-.708 1.488-.683 1.997.025.51.299 1.002.828 1.477l-.226.388-3.825-2.56.226-.387c.634.384 1.177.486 1.637.305.459-.182.948-.718 1.466-1.606l3.465-5.938-12.393 3.88-4.345-2.907.236-.405.176.117c.59.396 1.011.575 1.264.542.249-.033.545-.339.881-.916l4.516-7.739c.481-.824.709-1.489.684-1.997-.024-.509-.299-1.002-.828-1.477l.226-.388 3.833 2.564-.226.388c-.634-.392-1.181-.496-1.637-.31-.459.186-.948.723-1.466 1.611zm-16.238-8.151c-.211.531-.446.834-.706.907-.26.076-.723-.037-1.392-.341l-.167.421 5.775 2.625.167-.42-.19-.087c-.641-.291-1.026-.56-1.152-.809-.128-.248-.086-.641.127-1.177l2.48-6.259c.667-1.684 1.479-2.773 2.438-3.267.957-.495 2.13-.426 3.515.203.641.292 1.205.642 1.695 1.052.494.408.867.841 1.126 1.297.375.635.562 1.257.566 1.867.003.611-.208 1.458-.638 2.541l-2.034 5.133c-.385.97-.787 1.586-1.209 1.845s-.971.246-1.648-.033l-.167.421 4.143 1.883.167-.421c-.593-.38-.935-.821-1.034-1.319-.098-.499.029-1.194.383-2.088l2.042-5.15c.752-1.896.823-3.476.218-4.741-.604-1.266-1.962-2.38-4.077-3.341-1.068-.486-2.03-.767-2.883-.846-.853-.078-1.631.044-2.335.361-.595.28-1.1.678-1.515 1.202-.413.522-.853 1.37-1.318 2.541zm-21.77-17.257-.052.454c.724.095 1.182.242 1.371.444.185.202.248.587.182 1.159l-1.224 10.678c-.066.572-.213.933-.439 1.081-.23.15-.707.177-1.432.082l-.052.453 10.963 1.442 1.917-3.632-.406-.053c-.533.517-1.007.949-1.424 1.295-.414.347-.768.604-1.062.775-.295.176-.564.314-.809.416-.245.1-.485.176-.715.223-.189.042-.427.057-.719.049-.293-.008-.638-.041-1.041-.093l-1.601-.211c-.294-.039-.482-.094-.564-.161-.079-.071-.107-.218-.081-.442l.048-.414.608-5.31 1.251.164c1.122.147 1.96.488 2.506 1.017.548.533.854 1.295.917 2.289l.387.05.756-6.59-.387-.051c-.198 1.096-.636 1.87-1.311 2.322-.679.452-1.613.6-2.808.443l-1.251-.164.604-5.261c.082-.714.191-1.124.327-1.227.137-.102.5-.114 1.087-.037l1.385.182c1.202.158 2.177.577 2.923 1.256.748.676 1.409 1.748 1.977 3.213l.409.013-.592-4.323zm-8.728.271c1.216-.046 2.241.204 3.079.75.836.546 1.641 1.495 2.41 2.846l.406-.055-1.207-4.174-11.917.445.015.458c.73-.028 1.203.041 1.419.208.213.169.331.539.349 1.115l.351 10.751c.019.576-.074.958-.276 1.141-.204.187-.672.294-1.402.321l.015.457 6.111-.229-.015-.456c-.734.027-1.207-.045-1.423-.215-.219-.168-.337-.542-.356-1.118l-.349-10.701c-.024-.719.025-1.143.145-1.266.12-.125.477-.197 1.071-.219zm-9.046 14.428-.053-.454-.206.027c-.697.093-1.159.062-1.391-.088-.229-.146-.376-.507-.442-1.08l-1.224-10.676c-.065-.567-.003-.952.186-1.154.191-.206.633-.354 1.33-.446l.206-.027-.052-.454-6.415.844.051.454.206-.027c.701-.092 1.166-.063 1.395.087.227.147.373.506.438 1.072l1.224 10.676c.067.579.008.968-.178 1.169-.182.201-.637.348-1.356.442l.053.454zm-9.839 1.442-9.075 2.605-.132.037c-.197.057-.345.12-.439.191-.098.073-.179.172-.247.298l-.648.186-1.771-3.848.29-.223c.895.989 1.762 1.673 2.609 2.052.845.378 1.674.449 2.487.216.404-.116.65-.259.743-.426s.067-.54-.079-1.124l-2.614-10.444c-.139-.558-.333-.896-.581-1.018-.25-.117-.713-.08-1.391.115l-.201.058-.11-.443 6.225-1.786.111.442-.2.058c-.674.192-1.087.408-1.244.641-.155.237-.165.634-.025 1.191l2.613 10.445c.149.596.302.936.459 1.025.156.089.433.078.83-.036.813-.233 1.5-.742 2.061-1.524.559-.786.994-1.843 1.299-3.171l.341.044.282 4.274-.667.191c-.111-.074-.228-.116-.343-.128-.116-.011-.269.013-.461.067zm-31.996-3.501.167.421c.732-.222 1.421-.301 2.059-.234.64.062 1.44.332 2.403.802l4.308 2.121-1.548 7.183c-.145.661-.349 1.163-.614 1.507-.265.34-.666.634-1.207.88l-.234.106.166.421 6.529-2.967-.167-.421c-.415.174-.753.266-1.005.273-.254.004-.414-.078-.483-.252-.043-.107-.056-.252-.044-.434.013-.179.064-.475.152-.879l.911-4.22 4.04 1.991c.257.121.467.245.624.368.157.126.258.243.3.35.059.15.035.316-.078.5-.109.182-.295.364-.55.545l.167.421 3.915-1.78-.167-.42c-.684.184-1.312.247-1.883.186-.572-.06-1.221-.271-1.948-.628l-4.302-2.106 1.384-6.377c.15-.665.274-1.176.374-1.527.102-.352.191-.595.269-.727.157-.299.367-.567.631-.809.261-.242.591-.47.992-.689l-.167-.422-6.562 2.984.166.421c.421-.17.762-.249 1.025-.239s.431.11.507.302c.073.184.061.495-.034.934-.009.051-.019.095-.026.128l-1.012 4.828-4.153-2.027c-.446-.226-.747-.399-.906-.51-.156-.116-.257-.233-.301-.346-.063-.158-.033-.345.099-.556.129-.21.34-.415.626-.616l-.166-.422zm-12.876 9.324 9.613-7.209 3.142 2.788-.314.284c-1.336-.681-2.497-1.005-3.476-.971-.979.029-1.964.417-2.956 1.161l-1.144.857c-.484.363-.746.632-.784.807-.038.173.137.556.523 1.145l2.839 4.342 1.032-.774c.986-.739 1.588-1.518 1.81-2.34.219-.82.061-1.71-.477-2.666l.32-.239 3.556 5.439-.32.239c-.668-.692-1.371-1.039-2.11-1.043-.738-.002-1.573.345-2.499 1.039l-1.032.774 2.867 4.383.223.342c.121.185.233.275.336.27.103-.008.276-.102.52-.285l1.321-.99c.332-.249.609-.473.831-.676.223-.203.391-.386.505-.552.141-.2.273-.427.392-.679.118-.251.232-.546.341-.886.111-.339.214-.784.305-1.338.094-.556.176-1.217.249-1.983l.334-.252.846 4.073-9.048 6.784-.246-.375c.599-.448.937-.811 1.014-1.087.075-.271-.041-.645-.35-1.117l-5.762-8.812c-.309-.472-.595-.715-.86-.731-.266-.015-.698.203-1.296.652zm4.92 13.762.094-.092c.148-.141.275-.238.382-.284.108-.045.229-.064.36-.052l.513-.495-2.063-3.671-.322.127c.291 1.33.352 2.485.187 3.456-.169.969-.564 1.757-1.19 2.36-.306.295-.548.439-.725.436-.178-.003-.457-.232-.843-.69l-6.757-8.036c-.36-.429-.52-.787-.481-1.074.039-.284.317-.677.834-1.176l.155-.149-.286-.34-4.79 4.619.286.34.155-.149c.522-.503.917-.761 1.19-.778.273-.013.59.194.95.624l6.757 8.035c.377.448.558.768.547.963-.012.194-.172.441-.482.74-.626.604-1.394.943-2.307 1.016-.915.076-1.978-.113-3.195-.559l-.163.34 3.208 2.567.499-.481c.007-.144.037-.272.094-.384.053-.109.158-.238.309-.384l.101-.098zm-22.674 26.239-4.678-17.125.413-.708 9.044 6.052c.77.514 1.39.758 1.866.732.474-.026.934-.32 1.378-.887l.363.242-2.391 4.096-.362-.243c.36-.677.455-1.259.285-1.752-.169-.492-.67-1.015-1.5-1.57l-5.544-3.71 3.623 13.271-2.715 4.653-.378-.253.11-.189c.369-.632.537-1.082.505-1.354-.03-.266-.316-.583-.854-.943l-7.228-4.836c-.769-.515-1.39-.759-1.865-.732-.475.026-.935.32-1.379.887l-.362-.242 2.395-4.105.362.242c-.366.678-.464 1.265-.289 1.753.173.492.674 1.014 1.504 1.57zm-18.41 12.702.396.172c.319-.538.68-.925 1.077-1.157.398-.232 1.075-.372 2.034-.408l8.525-.347c.027-.003.068-.004.116 0 .32-.016.538 0 .65.049.1.043.183.115.256.214.069.102.125.225.165.376.414-.247.813-.457 1.206-.63s.771-.31 1.142-.407l.125-.332-7.996-9.273c-.016-.021-.039-.049-.067-.083-1.259-1.446-1.725-2.601-1.397-3.472l.069-.181-.397-.171-2.425 6.43.396.171c.271-.562.492-.942.664-1.142.175-.2.342-.268.505-.197.118.051.261.157.434.32.17.159.383.391.641.689l1.178 1.338-2.229 5.908-1.6.073c-.256.015-.484.008-.687-.022-.206-.028-.384-.077-.542-.145-.247-.107-.393-.32-.442-.642-.05-.322.012-.705.183-1.157l.03-.081-.396-.171zm5.803-2.161 2.004-5.311 4.403 5.054zm-9.647 20.959.419.088c.14-.769.309-1.247.51-1.435.2-.184.564-.223 1.093-.113l9.861 2.052c.528.11.854.293.976.544.124.256.116.768-.023 1.536l.419.087 1.167-6.426-.419-.088c-.14.771-.313 1.248-.516 1.436-.202.191-.569.23-1.098.12l-4.245-.885 1.38-7.601 4.245.883c.529.111.856.294.975.551.124.256.117.768-.023 1.539l.419.087 1.166-6.426-.419-.088c-.138.762-.306 1.237-.506 1.418-.201.184-.567.22-1.101.108l-9.861-2.052c-.528-.11-.853-.289-.974-.54-.122-.249-.112-.757.026-1.518l-.419-.088-1.167 6.427.419.088c.14-.772.309-1.25.511-1.438.202-.19.564-.23 1.094-.12l5.038 1.049-1.38 7.602-5.038-1.049c-.529-.11-.852-.292-.973-.55-.12-.255-.11-.766.03-1.537l-.419-.088zm11.89 18.284-6.082.228c-1.188.044-2.091-.024-2.707-.205-.619-.182-1.169-.503-1.658-.962-.566-.55-.998-1.253-1.292-2.114-.295-.862-.463-1.914-.503-3.157-.081-2.457.289-4.246 1.104-5.367.815-1.122 2.184-1.721 4.104-1.793l5.223-.195c.906-.034 1.548-.204 1.928-.51.381-.306.609-.825.681-1.561l.427-.016.157 4.817-.427.016c-.05-.774-.272-1.314-.669-1.614-.398-.3-1.089-.43-2.073-.393l-5.203.194c-1.099.042-1.905.195-2.421.456-.514.261-.961.706-1.341 1.337-.276.445-.484.99-.621 1.642-.14.649-.198 1.344-.173 2.09.052 1.61.49 2.777 1.313 3.496.822.722 2.087 1.05 3.795.986l6.345-.237c.545-.02.894-.146 1.05-.374.157-.229.222-.715.197-1.461l-.007-.222.427-.015.219 6.715-.427.016c-.025-.779-.126-1.276-.3-1.495-.171-.223-.528-.322-1.066-.302m-10.546 10.805.125.5 8.61.906-7.068 5.258.127.505 11.923 1.274c.03.006.083.011.155.017 1.318.144 2.134.665 2.445 1.56l.412-.118-1.481-5.92-.413.118c.076.507.095.889.056 1.144-.039.259-.136.406-.294.452-.183.052-.579.046-1.188-.019-.085-.01-.145-.017-.184-.02l-7.953-.804 4.444-3.316 2.464.24c.866.091 1.446.233 1.735.425.288.192.516.514.685.96l.413-.118-1.431-5.723-.413.119c.081.478.103.849.062 1.108-.044.259-.147.412-.308.459-.105.03-.248.047-.431.044-.181-.003-.493-.023-.936-.064l-7.821-.762 6.28-4.616c.183-.138.377-.262.577-.368.202-.103.397-.183.586-.237.245-.07.471.002.682.216s.378.551.503 1.002l.415-.109-1.067-4.268-.413.119c.075.62-.012 1.169-.258 1.642-.251.473-.703.946-1.361 1.416z" transform="matrix(.35277776 0 0 -.35277776 80.8177 36.85801)"/></g></svg>