<svg height="314.896275" viewBox="0 0 126.00446 124.80501" width="317.564887" xmlns="http://www.w3.org/2000/svg" xmlns:xlink="http://www.w3.org/1999/xlink"><clipPath id="a"><path d="m0 595.276h841.89v-595.276h-841.89z" transform="translate(-449.11141 -175.6399)"/></clipPath><clipPath id="b"><path d="m0 595.276h841.89v-595.276h-841.89z" transform="translate(-385.44251 -175.6399)"/></clipPath><clipPath id="c"><path d="m0 595.276h841.89v-595.276h-841.89z" transform="translate(-433.67341 -179.2414)"/></clipPath><clipPath id="d"><path d="m0 595.276h841.89v-595.276h-841.89z" transform="translate(-422.48841 -177.3782)"/></clipPath><clipPath id="e"><path d="m0 595.276h841.89v-595.276h-841.89z" transform="translate(-410.64801 -179.23171)"/></clipPath><clipPath id="f"><path d="m0 595.276h841.89v-595.276h-841.89z" transform="translate(-393.00351 -170.32741)"/></clipPath><clipPath id="g"><path d="m0 595.276h841.89v-595.276h-841.89z" transform="translate(-553.44691 -353.36251)"/></clipPath><clipPath id="h"><path d="m0 595.276h841.89v-595.276h-841.89z" transform="translate(-554.69741 -339.01681)"/></clipPath><clipPath id="i"><path d="m0 595.276h841.89v-595.276h-841.89z" transform="translate(-555.09481 -335.18581)"/></clipPath><clipPath id="j"><path d="m0 595.276h841.89v-595.276h-841.89z" transform="translate(-550.10951 -318.49731)"/></clipPath><clipPath id="k"><path d="m0 595.276h841.89v-595.276h-841.89z" transform="translate(-556.28632 -314.32741)"/></clipPath><clipPath id="l"><path d="m0 595.276h841.89v-595.276h-841.89z" transform="translate(-548.60461 -295.08811)"/></clipPath><clipPath id="m"><path d="m0 595.276h841.89v-595.276h-841.89z" transform="translate(-546.33121 -283.5608)"/></clipPath><clipPath id="n"><path d="m0 595.276h841.89v-595.276h-841.89z" transform="translate(-549.46642 -271.5608)"/></clipPath><clipPath id="o"><path d="m0 595.276h841.89v-595.276h-841.89z" transform="translate(-540.44251 -265.14581)"/></clipPath><clipPath id="p"><path d="m0 595.276h841.89v-595.276h-841.89z" transform="translate(-539.49382 -257.8235)"/></clipPath><clipPath id="q"><path d="m0 595.276h841.89v-595.276h-841.89z" transform="translate(-540.58121 -241.70341)"/></clipPath><clipPath id="r"><path d="m0 595.276h841.89v-595.276h-841.89z" transform="translate(-523.36001 -234.46411)"/></clipPath><clipPath id="s"><path d="m0 595.276h841.89v-595.276h-841.89z" transform="translate(-526.28231 -226.34201)"/></clipPath><clipPath id="t"><path d="m0 595.276h841.89v-595.276h-841.89z" transform="translate(-508.72132 -217.77851)"/></clipPath><clipPath id="u"><path d="m0 595.276h841.89v-595.276h-841.89z" transform="translate(-505.02841 -205.9172)"/></clipPath><clipPath id="v"><path d="m0 595.276h841.89v-595.276h-841.89z" transform="translate(-492.11831 -203.92501)"/></clipPath><clipPath id="w"><path d="m0 595.276h841.89v-595.276h-841.89z" transform="translate(-484.30971 -198.7981)"/></clipPath><clipPath id="x"><path d="m0 595.276h841.89v-595.276h-841.89z" transform="translate(-480.26381 -196.49731)"/></clipPath><clipPath id="y"><path d="m0 595.276h841.89v-595.276h-841.89z" transform="translate(-473.54111 -185.9153)"/></clipPath><clipPath id="z"><path d="m0 595.276h841.89v-595.276h-841.89z" transform="translate(-466.00601 -177.7493)"/></clipPath><clipPath id="A"><path d="m0 595.276h841.89v-595.276h-841.89z" transform="translate(-359.10561 -190.03831)"/></clipPath><clipPath id="B"><path d="m0 595.276h841.89v-595.276h-841.89z" transform="translate(-352.04651 -186.8674)"/></clipPath><clipPath id="C"><path d="m0 595.276h841.89v-595.276h-841.89z" transform="translate(-329.98351 -200.74631)"/></clipPath><clipPath id="D"><path d="m0 595.276h841.89v-595.276h-841.89z" transform="translate(-325.14121 -212.10571)"/></clipPath><clipPath id="E"><path d="m0 595.276h841.89v-595.276h-841.89z" transform="translate(-320.17831 -219.46801)"/></clipPath><clipPath id="F"><path d="m0 595.276h841.89v-595.276h-841.89z" transform="translate(-303.83461 -220.68091)"/></clipPath><clipPath id="G"><path d="m0 595.276h841.89v-595.276h-841.89z" transform="translate(-302.28821 -231.092)"/></clipPath><clipPath id="H"><path d="m0 595.276h841.89v-595.276h-841.89z" transform="translate(-299.62021 -245.7317)"/></clipPath><clipPath id="I"><path d="m0 595.276h841.89v-595.276h-841.89z" transform="translate(-293.7628 -256.82641)"/></clipPath><clipPath id="J"><path d="m0 595.276h841.89v-595.276h-841.89z" transform="translate(-292.08111 -260.8577)"/></clipPath><clipPath id="K"><path d="m0 595.276h841.89v-595.276h-841.89z" transform="translate(-287.4991 -273.179)"/></clipPath><clipPath id="L"><path d="m0 595.276h841.89v-595.276h-841.89z" transform="translate(-277.3966 -284.23171)"/></clipPath><clipPath id="M"><path d="m0 595.276h841.89v-595.276h-841.89z" transform="translate(-281.6476 -303.10961)"/></clipPath><clipPath id="N"><path d="m0 595.276h841.89v-595.276h-841.89z" transform="translate(-273.88141 -308.68581)"/></clipPath><clipPath id="O"><path d="m0 595.276h841.89v-595.276h-841.89z" transform="translate(-281.63581 -327.56671)"/></clipPath><clipPath id="P"><path d="m0 595.276h841.89v-595.276h-841.89z" transform="translate(-276.50791 -341.62131)"/></clipPath><clipPath id="Q"><path d="m0 595.276h841.89v-595.276h-841.89z" transform="translate(-287.4757 -357.11161)"/></clipPath><clipPath id="R"><path d="m0 595.276h841.89v-595.276h-841.89z" transform="translate(-295.52161 -386.28931)"/></clipPath><clipPath id="S"><path d="m0 595.276h841.89v-595.276h-841.89z" transform="translate(-524.41561 -398.85381)"/></clipPath><clipPath id="T"><path d="m0 595.276h841.89v-595.276h-841.89z" transform="translate(-380.25201 -464.42701)"/></clipPath><clipPath id="U"><path d="m0 595.276h841.89v-595.276h-841.89z" transform="translate(-440.36241 -457.86061)"/></clipPath><clipPath id="V"><path d="m0 595.276h841.89v-595.276h-841.89z" transform="translate(-327.10601 -425.45921)"/></clipPath><clipPath id="W"><path d="m0 595.276h841.89v-595.276h-841.89z" transform="translate(-493.79841 -414.69261)"/></clipPath><clipPath id="X"><path d="m0 595.276h841.89v-595.276h-841.89z" transform="translate(-385.33211 -410.00711)"/></clipPath><clipPath id="Y"><path d="m0 595.276h841.89v-595.276h-841.89z" transform="translate(-517.22572 -331.32741)"/></clipPath><clipPath id="Z"><path d="m0 595.276h841.89v-595.276h-841.89z" transform="translate(-415.51911 -425.15551)"/></clipPath><clipPath id="aa"><path d="m0 595.276h841.89v-595.276h-841.89z" transform="translate(-415.51721 -423.72491)"/></clipPath><clipPath id="ab"><path d="m0 595.276h841.89v-595.276h-841.89z" transform="translate(-415.51911 -427.95341)"/></clipPath><clipPath id="ac"><path d="m0 595.276h841.89v-595.276h-841.89z" transform="translate(-415.33941 -484.69171)"/></clipPath><clipPath id="ad"><path d="m0 595.276h841.89v-595.276h-841.89z" transform="translate(-415.34091 -483.26101)"/></clipPath><clipPath id="ae"><path d="m0 595.276h841.89v-595.276h-841.89z" transform="translate(-415.34091 -490.79131)"/></clipPath><clipPath id="af"><path d="m0 595.276h841.89v-595.276h-841.89z" transform="translate(-415.34091 -489.73361)"/></clipPath><path clip-path="url(#af)" d="m0 0h.004v-.004c49.008 0 93.389-19.684 125.515-51.501 32.123-31.819 51.999-75.774 51.999-124.321h.004v-.007h-.004c0-48.547-19.876-92.505-52.003-124.325-32.122-31.817-76.503-51.497-125.511-51.497v-.008h-.004v.008c-49.012 0-93.389 19.68-125.515 51.501-32.127 31.816-51.999 75.77-52.003 124.317h-.003v.007h.003c.004 48.551 19.876 92.509 52.003 124.325 32.126 31.817 76.503 51.497 125.512 51.501v.004z" fill="#202a6b" transform="matrix(.35277776 0 0 -.35277776 63.002227 .37314)"/><path clip-path="url(#ae)" d="m0 0h.004v-.004c49.303 0 93.951-19.803 126.27-51.81 32.316-32.012 52.312-76.231 52.312-125.07h.003v-.007h-.003c0-48.838-19.996-93.061-52.315-125.073-32.316-32.007-76.964-51.807-126.267-51.807v-.007h-.004v.007c-49.307 0-93.95 19.8-126.27 51.811-32.32 32.008-52.312 76.227-52.315 125.065h-.004v.008h.004c.003 48.842 19.995 93.065 52.315 125.073 32.32 32.007 76.963 51.807 126.267 51.81v.004zm.004-2.954v-.007h-.007v.007c-48.491-.004-92.398-19.477-124.184-50.954-31.783-31.478-51.444-74.96-51.444-122.979h.003v-.008h-.003c0-48.011 19.661-91.494 51.444-122.971 31.783-31.482 75.693-50.954 124.187-50.954v.007h.004v-.007c48.49 0 92.397 19.472 124.184 50.954 31.782 31.477 51.448 74.96 51.448 122.975h-.008v.007h.008c0 48.016-19.666 91.498-51.448 122.976-31.783 31.477-75.694 50.954-124.184 50.954" fill="#fff" transform="matrix(.35277776 0 0 -.35277776 63.002227 0)"/><path clip-path="url(#ad)" d="m0 0c94.425 0 171.002-75.839 171.002-169.358 0-93.521-76.577-169.359-171.002-169.359s-171.002 75.838-171.002 169.359c0 93.519 76.577 169.358 171.002 169.358" fill="#005f3e" fill-rule="evenodd" transform="matrix(.35277776 0 0 -.35277776 63.002227 2.65653)"/><path clip-path="url(#ac)" d="m0 0h.003v-.007c47.606 0 90.709-19.117 121.915-50.024 31.204-30.905 50.508-73.6 50.508-120.755h.007v-.007h-.007c0-47.155-19.304-89.854-50.511-120.758-31.203-30.904-74.306-50.021-121.912-50.024v-.004h-.003v.004c-47.605.003-90.712 19.12-121.916 50.024-31.206 30.907-50.51 73.603-50.51 120.758h-.004v.004h.004c0 47.158 19.304 89.853 50.51 120.758 31.204 30.907 74.311 50.024 121.912 50.024v.007zm.003-2.855v-.007h-.007v.007c-46.819 0-89.212-18.803-119.9-49.195-30.688-30.396-49.674-72.378-49.674-118.739h.007v-.004h-.007c.003-46.361 18.986-88.344 49.674-118.736s73.084-49.195 119.904-49.195v.003h.003v-.003c46.82 0 89.213 18.803 119.901 49.195 30.691 30.392 49.674 72.378 49.674 118.736h-.007v.007h.007c0 46.358-18.983 88.34-49.671 118.732-30.688 30.396-73.084 49.199-119.904 49.199" fill="#fff" transform="matrix(.35277776 0 0 -.35277776 63.001697 2.15181)"/><path clip-path="url(#ab)" d="m0 0h.003v-.004c31.672 0 60.349-12.746 81.109-33.351 20.761-20.606 33.604-49.074 33.604-80.514h.008v-.008h-.008c0-31.441-12.843-59.912-33.604-80.518-20.76-20.601-49.437-33.347-81.109-33.351v-.004h-.007v.004c-31.668.004-60.348 12.75-81.108 33.355-20.761 20.606-33.604 49.073-33.604 80.514h-.008v.004h.008c0 31.444 12.843 59.912 33.604 80.518 20.76 20.605 49.436 33.351 81.108 33.351v.004zm.003-2.852v-.007h-.007v.007c-30.886-.003-58.849-12.432-79.093-32.526-20.245-20.094-32.772-47.847-32.772-78.495h.008v-.004h-.008c0-30.648 12.527-58.401 32.768-78.491 20.245-20.097 48.215-32.527 79.097-32.527v.004h.007v-.004c30.887 0 58.853 12.43 79.098 32.523 20.244 20.094 32.768 47.847 32.768 78.495h-.008v.008h.008c0 30.644-12.524 58.397-32.768 78.491-20.245 20.094-48.211 32.523-79.098 32.526" fill="#fff" transform="matrix(.35277776 0 0 -.35277776 63.065097 22.16782)"/><path clip-path="url(#aa)" d="m0 0c60.846 0 110.474-49.257 110.474-109.645 0-60.391-49.628-109.648-110.474-109.648s-110.47 49.257-110.47 109.648c0 60.388 49.624 109.645 110.47 109.645" fill="#a3cbde" fill-rule="evenodd" transform="matrix(.35277776 0 0 -.35277776 63.064427 23.65954)"/><path clip-path="url(#Z)" d="m0 0h.003v-.007c30.814 0 58.788-12.472 79.058-32.588 20.27-20.118 32.836-47.886 32.836-78.476h.004v-.008h-.004c0-30.591-12.566-58.359-32.836-78.481-20.27-20.115-48.244-32.587-79.054-32.587v-.007h-.007v.007c-30.814 0-58.791 12.472-79.058 32.591-20.269 20.118-32.836 47.886-32.836 78.473h-.007v.008h.007c0 30.594 12.567 58.362 32.836 78.48 20.27 20.116 48.244 32.588 79.055 32.588v.007zm.003-2.854v-.008h-.006v.008c-30.029 0-57.289-12.157-77.043-31.763-19.754-19.607-32-46.66-32-76.458h.007v-.008h-.007c0-29.793 12.246-56.848 32-76.45 19.754-19.608 47.018-31.766 77.046-31.766v.007h.007v-.007c30.025.003 57.288 12.158 77.039 31.762 19.754 19.606 32.003 46.661 32.003 76.458h-.006v.008h.006c-.003 29.797-12.249 56.847-32 76.454-19.754 19.606-47.017 31.763-77.046 31.763" fill="#202a6b" transform="matrix(.35277776 0 0 -.35277776 63.065097 23.15485)"/><g fill="#fff"><path clip-path="url(#Y)" d="m0 0c-9.892-40.677-25.166-76.548-57.295-91.71-54.621-25.774-96.069-7.379-131.897 18.511 49.569-14.106 105.419-12.394 118.923 58.25 14.17-23.594 56.657-5.908 70.269 14.949" fill-rule="evenodd" transform="matrix(.35277776 0 0 -.35277776 98.944927 56.25532)"/><path clip-path="url(#X)" d="m0 0c-23.402-39.776-27.952-70.442-20.425-95.997 13.187-32.689 32.324-44.548 53.247-48.788-18.125 17.711-24.03 40.771-4.593 71.606 12.397 20.271 36.24 39.272 66.311 58.446-41.456-9.027-74.068-6.871-94.54 14.733" fill-rule="evenodd" transform="matrix(.35277776 0 0 -.35277776 52.415787 28.49887)"/><path clip-path="url(#W)" d="m0 0s.054-1.027-.209-1.626c-.263-.598-.289-.883-.397-.99-.111-.113-.472-.451-.429-.671.047-.224.119-.859.57-.898.45-.044.934.043 1.157.159.227.112.775.454 1.114.696.339.245.804.627 1.298.714.494.086.861.158 1.341.23.479.073.764.043.944.158.184.116.494.512.494.71 0 .199-.198.639-.342.808-.141.17-.707.812-.833.938-.126.129-.163.273-.368.716-.202.445-.321.844-.501 1.187s-.357.624-.667.916c-.314.295-.429.439-.512.54-.079.098-.638.473-.785.569-.148.098-.664.458-.844.56-.18.094-.642.299-.988.295-.332 0-.905-.331-.905-.663.004-.426-.003-.653.112-.995s.072-.613.137-.89c.065-.278.076-.524.144-.837.065-.31.263-.833.314-1.16.051-.325.155-.466.155-.466m2.913 19.254s-.48-.872-.728-1.053c-.249-.18-.657-.919-.902-1.042-.252-.126-.699-.309-1.16-.364-.462-.054-1.103.068-1.407.141-.302.068-.713.014-1.07.281-.354.266-1.092.761-1.341.85-.249.091-.783.177-1.085.123-.303-.053-.764-.306-.819-.519-.05-.213.12-1.121.245-1.424.127-.303.606-1.063.823-1.348.212-.285.587-.667.555-.969-.036-.303-.145-1.226-.447-1.367-.303-.144-.444-.465-.642-.537-.195-.072-1.226-.656-1.59-.756-.364-.102-.984-.733-1.254-1.086-.271-.353-.462-.926-1.359-1.226-.894-.299-1.777-.634-2.037-.67-.263-.036-.995-.476-1.157-.678s-.13-.624-.065-.797c.065-.172.288-.562.797-.573.512-.011 1.424.156 1.968.411.544.26 1.792.898 2.058 1.075.267.172.901.775 1.511 1.078.609.299 1.492.706 2.116.889.62.181 1.907 1.021 2.163 1.227.259.201 1.139.493 2.393.054 1.255-.44 2.729-1.042 3.371-1.158.642-.115 1.355-.219 1.853-.17.501.051 1.002-.06 1.305-.143s1.207-.39 1.424-.44c.219-.054.695-.216 1.023-.372.325-.154 1.215-.825 1.933-.789.717.036 1.207.26 1.748.48.541.216.497.522.591.857.213.786-.512 1.407-1.146 1.937-.282.237-.736.544-.952.825-.796 1.031-1.413 1.258-2.469 1.78-.703.35-1.601.379-2.297.761-.306.17-.648.206-.771.426-.119.223-.31 1.161-.155 1.402.151.237.339.397.573.652.235.252.27.425.332.591.057.166.375.793.696 1.161.277.314.634.48.908.74.296.277.508.655.782 1.002.177.219.815 1.449.923 1.611.105.158.645.832.804 1.027.162.199.854.797.519 1.464-.526 1.045-1.089 2.675-2.393 3.212-.329.133-1.374.36-1.63.248-.26-.111-.815-.313-.674-.738.151-.451.519-1.234.443-1.871-.108-.902.022-1.244-.731-2.027-.48-.501-.941-1.441-1.587-1.765-.13-.07-1.251-1.349-1.373-1.483-.123-.132-.616-.94-.616-.94" fill-rule="evenodd" transform="matrix(.35277776 0 0 -.35277776 90.680297 26.84593)"/><path clip-path="url(#V)" d="m0 0s-1.117.422-1.694.901c-.573.479-.761.822-.847 1.644-.083.818-.332 1.763-.443 2.281-.109.524-.17 1.392-.03 2.236.138.843.112 1.453-.021 1.762-.133.311-1.092.682-1.55.577-.458-.104-1.373-.411-1.499-1.056-.124-.646-.019-1.334.302-1.908.317-.572.458-1.366.728-1.888.267-.523.328-1.196.804-1.917.476-.718 1.009-1.486 1.118-1.854.104-.367.414-.846.638-1.189.23-.339.577-.876.713-1.258.134-.379.959-1.229 1.133-1.399.172-.169.699-.905 1.337-1.546.638-.642 1.489-2.084 1.64-2.474.151-.389.332-1.427.501-1.74.17-.315.768-.848 1.125-1.215.357-.368 1.236-1.85 1.615-2.567.378-.713 1.755-2.123 2.707-2.275.952-.151 1.316-.126 1.806.469.49.592.061 3.616.025 4.171-.036.558-.368 2.685-.677 4.182-.31 1.492-.596 2.285-.819 2.587-.223.307-.505.437-.825.358-.321-.076-.595-.415-.563-.696.033-.278.57-1.331.609-1.947.037-.616.282-1.788.206-2.642-.08-.851.072-1.247-.541-1.341-.613-.098-.814.252-1.521 1.294-.703 1.042-.984 1.525-1.601 2.74-.612 1.211-1.088 2.852-2.573 4.34-1.489 1.492-1.9 1.406-1.9 1.406zm10.31 6.341s-1.103.955-1.478 1.034c-.371.076-.937.181-1.124-.281-.188-.458-.062-1.031.107-1.532.17-.501.552-1.193.811-1.666.26-.472.876-.965 1.244-1.027.364-.057.717.094.851.433.13.339.288.88.22 1.398-.068.524-.26 1.204-.443 1.421zm3.501 10.309s-1.392-.991-1.782-1.466c-.392-.477-.94-1.082-1.452-1.699-.516-.613-.826-1.24-.577-1.571.249-.332.541-.473.829-.411.289.061.328.407.808.371.475-.04 1.012-.234 1.002-.642-.008-.407-.353-1.474-.858-2.133-.505-.661-.512-.855-.35-1.129s.487-.57.746-.493c.256.075.61.537.851.511.242-.025.768-.223.815-.458.047-.23-.13-1.225-.314-1.524-.184-.296-.292-.722.058-.995.35-.275.991-.599 1.236-.718s.472-.281.469-.951c-.004-.667-.188-1.781-.393-2.027-.206-.241-.545-.876-.753-1.347-.206-.473-.285-1.187-.246-1.313.037-.13.379-.411.693-.393.309.018.386.259.832.31.447.047.837.144 1.147-.079.31-.227.27-.707.274-.937.003-.227.223-1.179.31-1.716.086-.537.112-1.277.327-1.658.217-.386.336-.62.826-.595.494.025.62.483.631.775.011.288-.054.63-.242.898-.183.262-.486 1.095-.511 1.539-.026.443-.108 1.978-.152 2.304-.043.32-.231 2.089.148 2.833.379.742 1.251 1.553 1.752 1.946.501.396.025-.109 1.719 1.342 1.698 1.452 1.922 1.643 2.091 1.816.17.177 1.236 1.496 1.381 2.076.144.577.346 1.72.191 2.019-.151.3-1.121.884-1.68.325-.562-.563-.768-1.904-1.972-2.802-1.207-.897-1.662-1.251-2.051-1.571-.389-.317-1.056-1.366-1.276-1.543s-.674-.433-.912-.281c-.238.159-.714.216-.468.944.245.729.587 1.046.929 1.432.343.382.963 1.304.8 1.917-.165.613-.637.757-1.312.969-.677.213-.839.859-.677 1.183.166.328.396 1.398.631 1.954.227.555.609 1.499.984 2.051.378.548.562 1.507.497 1.864-.065.36-.414.627-.735.71-.325.083-1.067.213-1.557-.018-.491-.227-1.334-.97-1.68-1.135-.343-.162-.588-.314-.736-.368-.147-.05-.291-.116-.291-.116m-7.499 6.712s-1.189-.983-1.69-1.618-1.241-1.204-1.713-1.208c-.475-.007-.865-.047-1.088.206-.224.252-.703.775-1.024.653-.321-.124-.436-.246-.487-.429-.047-.192.083-.869.256-1.287.177-.415.501-.989.314-1.89-.191-.897-.898-2.588-1.064-2.959s-.523-1.215-.234-1.521c.289-.31.685-.414.941-.318.256.102 1.398 1.32 1.788 1.447.393.128 1.006.147 1.37.151.367.003 1.107.529 1.402.911.295.386.552.592.836.487.285-.104.325-.389.458-.847.137-.457.325-.796 1.067-.836.739-.043 1.662.104 2.361.648.7.541.948.805 1.615 1.41.663.61 1.33 1.388 1.45 1.936.122.544.187 1.089-.393 1.247-.584.159-1.111.187-1.594-.436-.483-.624-1.236-1.647-1.323-1.777-.09-.127-.324-.256-.634-.26-.307-.004-.891.062-.93.282-.037.215-.061.76.097 1.214.158.458.505 1.024.93 2.492.425 1.466 1.009 1.961 1.399 2.202.389.245 1.431 1.078 2.062 2.159s.894 1.781.562 2.549c-.332.763-2.015.836-2.692.843-.682.011-1.937.105-2.542-.169-.606-.278-.808-1.028-.544-1.493.263-.468.886-1.125.807-1.549-.075-.426-.245-1.002-.93-1.59-.681-.588-.833-.65-.833-.65m21.554-20.154s-.555.119-1.154-.173c-.595-.292-1.002-.53-1.222-.566-.22-.032-.472-.195-1.017-.753-.548-.559-1.171-1.164-1.276-1.622-.104-.458-.209-.934.094-1.089.299-.155.93-.228 1.597-.375.663-.151.836-.007 1.139-.335s.771-.898 1.056-1.053.898-.281 1.197-.151.559.854.472 1.485c-.086.627-.31.915-.314 1.369-.006.458.112 1.121.221 1.551.104.425.144.934.079 1.092-.065.155-.48.545-.591.573-.108.032-.281.047-.281.047" fill-rule="evenodd" transform="matrix(.35277776 0 0 -.35277776 31.874917 23.04772)"/><path clip-path="url(#U)" d="m0 0s1.291.49 1.68 1.345c.385.85.411.84-.022 1.51-.432.674-.634.483-1.023.483-.393-.003-.797-.018-.945.091-.148.107-.526.36-.595.55-.065.188-.104.959.198 1.342.303.382.501.876.584 1.028.08.147.321.59.473.85.148.263.454.891.429 1.085-.029.192-.242.638-.411.779-.17.14-.606.129-.84.05-.231-.076-.937-.648-1.226-1.128-.284-.476-.652-1.619-.717-1.723-.065-.101-.018-.58-.054-.84-.036-.263-.184-.519-.379-.93-.191-.411-.068-.411-.591-.75-.522-.339-.645-.53-1.337-.588-.689-.057-.931-.061-1.118-.072-.191-.011-1.204-.299-1.38-.342-.181-.044-.653-.119-.819-.217-.169-.096-.411-.377-.443-.558-.036-.184.011-.653.169-.732.162-.08.642-.57 1.121-.829.48-.263 1.439-.703 1.724-.771.288-.072.623-.213.937-.718.31-.501.396-.797.385-1.049-.014-.252-.219-.641-.342-.728-.123-.086-.634-.58-1.489-.702-.854-.127-1.882-.412-2.563-.588-.681-.177-2.466-.501-3.039-.733-.569-.233-1.813-.846-1.993-1.062-.177-.213.043-1.122.187-1.349.145-.224.804-.386 1.197-.386.393.004 1.093-.075 2.058.588.967.663 1.352.948 1.796 1.111.443.158.692.162.976.27.286.111.552.22.779.22.227.003.541-.087.988-.52.447-.432.378-.681.378-.76 0-.08-.212-.883-.767-1.684-.552-.8-.606-.868-.606-1.081s-.007-.533-.13-.801c-.105-.23-.184-.493-.234-.691-.054-.202-.321-.746-.414-.873-.091-.122-.192-.681-.3-.894-.108-.217-.757-.959-.991-1.106-.231-.145-.541-.379-.7-.488-.158-.111-.457-.435-.436-.648.022-.213.173-.556.3-.663.129-.105.216-.192.63-.209.415-.022 1.107.461 1.233.591.13.13.267.418.436.548.17.129.639.602.765.743.219.241.706.68.847.966.133.27.404.763.605.955.137.126.404.673.537.861.138.184.249.746.433 1.089.036.068.548.872.57.89.14.098.364.985.382 1.154.022.17.09.822.158 1.302.073.475.202 1.17.314 1.264.112.091.238.285.31.397.072.115.332.306.681.501.35.195.599.299.883.325.282.024.199.086.707.137.505.05.71-.058.945-.109.237-.051.735-.017 1.027-.017s1.453-.008 1.745.118c.292.127.663.357.922.429.26.073.919.368 1.367.495.45.122 1.734.511 2.062.58.328.072 1.006.284 1.611.006.609-.273.75-.778.822-.951.069-.173.054-.923.039-1.287-.017-.368.411-1.658.902-2.159.49-.498 1.153-1.406 1.351-1.781.195-.375.285-1.424-.371-1.889-.652-.461-1.002-.757-1.337-.984-.332-.224-1.006-.786-1.784-.725-.783.058-1.377.202-1.644.285-.271.086-.613.094-1.006.152-.389.057-.649.017-.93-.066-.281-.079-.624-.324-.735-.504-.109-.184-.109-.526.14-.858.249-.331.458-.764.584-.97.13-.205.152-.558-.087-.746-.237-.184-.295-.436-.616-.436-.317 0-.901.101-1.197.108-.299.011-.959-.072-1.243-.209-.285-.141-.754-.591-.84-.808-.09-.219-.145-.414.104-.868.249-.455.411-.797.718-.858.306-.058.641-.119.789-.145.144-.024.418-.036.746.055.335.086.616.224.923.273.307.051.944.04 1.168.066.22.028.476.187.772.299.295.112.735.332.872.364.137.029.425.23.659.209.235-.026.213-.032.386-.062.177-.028.343-.006.505-.079.159-.072.537-.299.919-.609.382-.307 1.355-1.103 1.565-1.309.205-.201.396-.597.483-.749.086-.155.803-1.146 1.085-1.342.281-.198.771-.688 1.261-.59.491.093.804.259 1.071.411.271.154.444.515.559.691.115.177.231.339.256.491.021.155.054.411.054.562 0 .152.043 1.168-.065 1.46-.105.289-.707 1.233-.869 1.348-.166.116-.771.335-.948.462-.176.126-.634.432-.746.523-.108.09-.512.356-.566.422-.054.064-.652.688-.649 1.221.007.538.317.714.422.804.108.09.512.437.731.649.221.212.271.389.487.634.22.245.415.524.541.743.123.224.407.501.494.649.31.544.548.782.681 1.251.033.104.173.71.08.937-.098.227-.422.783-.671 1.111-.252.324-.508.62-.677.688-.17.069-.17-.01-.329.097-.158.108-.616.433-.735.592-.119.158-.49.443-.804 1.034s-.649 1.136-.681 1.611c-.033.477.237.873.44 1.053.201.181.832.905 1.423 1.161.588.256 1.049.649 1.302.804.252.158.775.324 1.077.454.3.126 1.806 1.085 2.337 1.406.526.32.897.548 1.085.642.183.094 1.11.761 1.236 1.52.126.761-.177 1.59-.372 1.893-.194.303-.655.876-1.2.771-.544-.107-.652-.028-.959-.659-.31-.627-.144-1.016-.548-1.402-.407-.386-.995-.927-1.211-1.013-.216-.091-.778-.466-.962-.556-.188-.085-.321-.147-.509-.002-.183.147-.475.291-.421.825.058.537.324 1.452.461 1.756.134.298.231.475.364.749.137.274.224.428.397.652.176.224.375.588.529.912.156.321.296.592.322.692.021.101-.036.246-.228.379-.191.133-.591.353-.879.184-.288-.17-.919-1.396-1.139-1.644-.224-.245-.556-.926-.71-1.15-.156-.224-.339-.951-.808-1.395-.472-.44-1.1-1.201-1.222-1.453-.126-.252-.494-1.312-.551-1.607-.058-.296-.274-.671-.433-.812-.155-.136-.804-.652-1.219-.735-.414-.079-1.874-.158-3.565-.757-1.69-.598-2.743-.973-3.36-1.168-.612-.195-1.845-.703-2.451-.927-.602-.223-1.117-.713-1.813-.273-.696.439-.995.865-.746 1.427s.292.743.66.963c.371.223.868.551 1.002.627.133.072.407.151.407.151" fill-rule="evenodd" transform="matrix(.35277776 0 0 -.35277776 71.829257 11.61722)"/><path clip-path="url(#T)" d="m0 0c.418 1.316-1.608 1.976-2.484 1.954-1.078-.029-1.611.065-1.957-.999-.098-.303.216-.987.497-1.68.336-.81.649-1.51 1.251-1.618.761-.137.822-.144 1.547.682.364.414.948 1.092 1.146 1.661m10.825-9.545s.069 2.249-.832 3.37c-.902 1.121-1.403.977-2.037 2.383-.638 1.409-.999 1.29-1.291 1.392-.291.104-.548-.055-.735-.433-.188-.379-.306-.844-.152-1.067.156-.224 1.064-1.529 1.36-1.904.292-.378 1.091-1.153 1.398-1.935s.57-2.199.465-3.046c-.108-.851-.84-4.258-.753-5.149.086-.889.234-1.751 1.042-2.119.811-.368 1.863-.029 3.637 1.503 1.77 1.536 2.685 1.94 3.24 2.21.56.275 1.187.62 1.774-.036.588-.659.793-1.874.847-2.775.054-.898.108-2.355.249-3.097s.141-2.004.162-2.513c.026-.511.296-2.325.3-2.498 0-.173.27-.418.511-.486.238-.068.678.843.728.998.051.158.141 1.223.174 1.496.036.274.252 1.183.191 1.705-.061.523-.011 1.651-.011 1.817s-.014 1.377.011 2.217-.047 3.234-.116 3.94c-.068.71-.335.995-.299 1.553.032.556 0 1.002.461 1.944.462.94.401 1.132.815 1.647.415.516.631 1.233.689 1.507.057.274.025.526-.238.768-.26.245-.527.227-.761.183-.234-.05-.533-.32-.706-.457-.177-.14-.516-.302-.84-.187-.328.119-.801-.03-.865 1.203-.065 1.229-.202 1.644-.347 1.907-.144.267-.454 1.5-.475 1.655-.022.155-.358.667-.718 1.154-.364.486-.544.893-.67 1.366-.13.472-.202.695-.343.919-.14.227-.209.439-.324.707-.119.266-.343.691-.667.691s-.555 0-.721-.259c-.166-.256-.173-.656-.155-.956.018-.302-.032-.533-.105-.742-.075-.209-.09-1.11.083-1.662.17-.551.127-1.218.141-1.405.015-.188.231-1.074.461-1.5.231-.422.466-1.36.519-1.748.058-.394.372-1.151.372-1.688 0-.533.176-1.106.35-1.434.14-.271.994-1.857-.43-3.681-.227-.292-.681-.599-1.041-.822-2.102-1.283-2.159-1.373-3.237-1.013-1.079.364-.952 1.23-1.006 1.713-.051.482-.061 1.885-.061 2.134s-.044.53-.044.53m-9.344-1.414s1.698 1.73 1.72 2.235.018.906-.487 1.115c-.504.213-.673-.044-.987-.087-.318-.043-1.323-1.348-1.536-1.499-.209-.145-.504-.336-1.031-.126-.526.209-1.431.839-1.853.205-.418-.631-.458-1.918-.771-2.275-.318-.361-1.456-1.391-2.304-1.54-.847-.143-1.265-.789-1.723-1.038-.461-.248-.869-.515-1.46-.691-.591-.177-1.557-.509-1.835-.779-.277-.274-.547-.574-.67-.898-.119-.324-.029-.904.418-1.315s1.139-.978 2.199-.744c1.056.239 1.579.887 2.026 1.511.443.627 1.175 1.409 1.546 1.68.365.267 1.078 1.179 1.68 1.089.606-.09 1.622-.555 1.687-1.363.065-.811.303-3.006-.126-3.583-.429-.574-1.726-3.673-2.365-4.579-.638-.901-.584-1.2-1.47-2.159-.888-.962-1.107-1.405-1.107-1.848.003-.444.331-.83.901-.887.573-.058 1.565.612 2.123 1.921.559 1.312.332 1.063.948 1.986.617.923.768 1.06 1.103 1.475.336.411.621.893 1.049.897.433 0 1.259-.368 1.41-.85.148-.488-.036-1.789.883-2.496.919-.702 1.132-.623 1.384-.475.252.147.905.641.674 1.564-.227.919-.72 1.72-.803 1.918-.08.202-.862 1.687-.332 2.545s.778 1.038 1.056 1.068c.281.032.559.049.843.461.282.415.592.926.336 1.376-.256.455-.782.793-.966.906-.184.115-.667.14-.937.183-.271.039-1.504.35-1.987.789-.483.437-1.286 1.241-1.218 1.569.072.332 0 .782.559 1.434.558.653 1.092 1.006 1.2 1.096.112.091.223.209.223.209" fill-rule="evenodd" transform="matrix(.35277776 0 0 -.35277776 50.623647 9.30074)"/><path clip-path="url(#S)" d="m0 0s1.348.786 1.882 1.024c.533.239 1.25.913 1.489 1.035.237.126.728.101.994-.039.267-.145.844-.747.53-2.067-.306-1.318-.814-2.313-1.009-2.775-.198-.465-1.114-2.174-2.419-2.189-1.305-.013-2.019.509-2.383.916s-.602 1.756-.32 2.47c.28.714.843 1.262 1.038 1.445zm16.478-.652s-.621-.713-.858-1.333c-.242-.62-.505-1.194-.527-1.551-.025-.36-.288-1.1-.573-1.147-.288-.046-.551-.068-.934.196-.378.259-1.034.865-1.059 1.055-.022.192-.202.804.061 1.068.263.26 1.1.88 1.193 1.095.097.213.598.953.815 1.454.213.501.692 1.669.692 2.05 0 .382-.119.812-.476.955-.357.145-1.121 0-1.601-.688-.475-.691-1.74-1.86-2.169-2.145-.433-.288-.963-.789-1.237-.861s-1.33-1.038-1.514-1.312c-.184-.271-.66-1.475.126-1.731.782-.259 1.752-.479 2.224-.879.473-.4 1.348-1.06 1.842-1.46.491-.404 1.922-1.846 2.261-2.203.335-.356.616-.627.818-.793s1.792-1.543 2.621-2.152c.825-.612 2.447-1.405 3.11-2.516.664-1.11.404-1.637.282-1.856-.123-.224-.847-.484-1.756-.361-.908.119-1.896.483-2.299.667-.404.18-.866.202-1.107-.119-.246-.325-.047-.541.14-.75.191-.209 2.174-1.788 3.652-2.156 1.474-.367 2.577-.31 3.154-.31.58 0 2.156.239 2.206 1.403.047 1.16-.022 1.993-.342 2.527-.321.533-1.932 2.083-2.412 2.563-.476.479-1.474 1.304-1.708 1.496-.235.191-.603.648-.235.988.368.339 1.139.154 1.889.154.746 0 1.932.04 2.545.444.609.404 1.197 1.229 1.583 1.809.389.581.382.995.641 1.435.26.44.71.88 1.28 1.06.566.18 1.345.804 1.575 1.399.235.594.371 1.503.087 1.726-.285.22-1.24.325-1.543.358-.303.032-1.863.021-2.278-.213-.415-.238-.714-.501-.988-.793s-1.759-.739-2.405-.739c-.648 0-3.604-.105-4.019.424-.414.527-.562.765-.768 1.569-.205.804-.317.804-.681.876-.364.076-.793-.109-.926-.288-.133-.184-.382-.415-.382-.415m1.186-4.272s2.072.019 2.948.036c.873.015 2.008.083 2.405.101.396.018 1.005.127 1.204-.071.195-.2.378-.873.047-1.187-.329-.313-1.158-1.053-1.568-1.102-.411-.047-1.846-.264-3.447-.047-1.597.215-2.505.316-2.851.778-.346.461-.177.775.036 1.056.216.281.31.385.573.385.267.026.653.051.653.051m-8.768-5.299s.213-.803.339-1.265c.123-.465.245-1.669-.529-2.192-.772-.522-1.731-1.42-2.748-1.294-1.02.122-1.975.743-2.562 1.053-.588.31-1.648 1.132-1.9 1.283-.256.155-.988.018-.974-.425.019-.44.239-.851.595-1.428.357-.58.563-1.038.765-1.294.205-.256.562-.782.883-1.175.324-.39 1.157-1.074 1.175-1.551.015-.475.09-1.236-1.107-1.769-1.2-.537-1.503-.923-2.148-.949-.649-.028-1.482-.061-2.051.242-.57.303-1.316.815-1.619.999-.303.183-1.132.057-.764-.804.368-.858 1.106-1.453 1.427-1.716.321-.266 1.565-.71 2.942-.901 1.373-.192 2.548.436 3.078.458.531.021 1.449.584 1.532 1.077.083.498.134.909.379.959.249.047.872.195 1.532-.516.66-.706 1.078-1.503 1.489-1.935.411-.433 1.575-1.64 2.797-1.867 1.219-.224 2.123.057 2.322.522.198.465.267 1.323-.444 2.451-.71 1.129-.818 1.576-1.849 2.614-1.031 1.039-1.226 1.226-1.773 1.59-.552.361-.826.71-.563 1.301.259.595.375.567.638.667.26.101 1.024.537 1.338.768.317.231 1.434.93 1.095 2.325-.335 1.395-.443 1.345-.872 2.058-.425.718-.952 1.367-1.236 1.507-.289.141-.66.184-.801.043-.14-.14-.342-.349-.371-.479-.033-.126-.015-.357-.015-.357" fill-rule="evenodd" transform="matrix(.35277776 0 0 -.35277776 101.481357 32.43351)"/><path clip-path="url(#R)" d="m0 0s-1.939.407-2.574-.652c-.631-1.06-.789-1.752-1.734-2.946-.948-1.189-1.712-2.462-2.79-2.696-1.074-.237-1.244-.054-1.597.267-.349.321-1.157.995-.422 2.376.736 1.383 1.259 2.847 1.345 3.323.09.476.977 2.048 1.106 2.566.134.52.231.491.855 1.634.627 1.146 1.146 1.543 1.759 2.516.75 1.197 1.013 2.956 1.085 3.313.072.353.281 1.146.847 1.925.285.396.512.728.682 1.066h.003-.003c.166.329.111.793-.007 1.334-.242 1.1-1.36 1.912-2.095 2.2-.735.285-1.626.648-2.466 1.434-.84.789-1.085.941-.905 1.464.177.522.779.894 1.525.836.746-.061 1.532-.482 2.275-.995.746-.512 1.489-.937 1.95-1.081.462-.141 2.012-.224 3.342-1.147s2.376-1.882 3.742-2.357c1.362-.476 3.399-.808 3.969-1.06.566-.253 1.42-.717 2.011-.847.591-.126 1.367-.368 2.267-.339.905.029 1.468.123 2.214-.292.746-.41 1.575-.62 2.199-.62.624-.003 1.362-.339 1.82-.465s1.244-.028 1.659.17c.414.201.904.339 1.982-.232 1.071-.569 2.65-1.985 2.833-2.299.188-.314.375-1.698-.169-1.709-.548-.01-1.838.209-2.548.18-.711-.028-2.513-.13-3.562.437-1.049.569-1.803.948-2.574.951-.772.004-2.191.26-3.028.765-.832.501-2.747.573-3.428.76-.678.191-3.879.955-5.105 1.575-1.229.621-1.838 1.1-2.357 1.251-.519.152-2.138.508-2.588-.8-.451-1.309-.945-3.273-1.352-3.803-.408-.53-.891-2.779-.891-2.779s-.284-1.554 1.006-1.868c1.283-.317 2.069-.681 2.498-.746.429-.061.934.173 1.215 1.168.277.992.53 2.61 1.359 2.884.829.277 1.529.09 2.109-.97.58-1.059-.068-2.797-.375-3.295-.31-.494-1.442-1.596-1.615-1.979-.173-.378-.119-1.402.454-1.87.577-.473 1.442-.826 1.99-1.677.544-.85.945-1.467 1.583-1.089.638.379.814 1.609 1.135 2.25.321.642.321 1.55.902 2.192.58.641.295 2.026.241 2.552-.058.527-.281 1.868-.454 2.192-.173.32-.433 1.053-.112 1.315.317.264.894.055 1.294-.854.404-.908.689-1.961.93-3.097.238-1.139.934-2.703.195-4.332-.743-1.63-1.143-3.84-1.208-4.298-.065-.457-.732-1.452-1.153-1.795-.422-.343-1.421-1.906-1.666-2.238-.245-.335-1.366-1.453-2.53-1.857-1.165-.407-2.077-.709-2.761-.479-.682.234-1.515.469-2.12.804-.606.335-1.413 1.132-1.893 1.492-.479.36-1.139.49-1.16 1.161-.022.663.256.894 1.142 1.045.887.151 1.468.047 1.997-.007.534-.054 1.695-.213 2.127-.162.429.05 1.139.227 1.695.635.558.407.965.893.915 1.203-.047.307-.869 1.46-2.184 2.278-1.313.819-3.039 2.203-3.433 2.834-.396.634-.793.97-1.095 1.175zm3.944 27.36s-1.767.358-2.755-.126c-.991-.482-2.007-.821-2.065-1.221-.058-.401-.483-1.399.418-1.889s2.271-.112 2.92-.631c.645-.515 1.139-1.449 1.269-1.896.13-.448 1.615-.491 1.871.122.252.609.685 1.093.461 2.599-.22 1.503-.194 1.59-.483 2.217-.288.627-.602.895-.93.895-.328.003-.706-.07-.706-.07m-15.097-17.76c.656 2.109.436 1.38.818 2.145.382.764 1.283 2.04 1.69 2.451.898.902 1.486.819 2.29.732 1.211-.137 1.766-1.219 1.751-3.89-.007-1.254-1.971-1.767-3.283-2.577-1.842-1.132-3.919-.97-3.266 1.139" fill-rule="evenodd" transform="matrix(.35277776 0 0 -.35277776 20.732644 36.86599)"/><path clip-path="url(#Q)" d="m0 0-.655-2.507-6.252.592c-1.34.155-2.702.303-4.064.462l-.017-.065c1.247-.594 2.504-1.21 3.714-1.81l5.616-2.995-.548-2.093-6.365.142c-1.333.067-2.726.168-4.121.247l-.024-.082c1.282-.531 2.545-1.057 3.776-1.576l5.74-2.53-.614-2.346-11.688 5.498.801 3.054 6.435-.215c1.015-.052 2.008-.12 2.978-.214l.019.068c-.887.408-1.788.823-2.7 1.273l-5.723 2.938.79 3.004z" transform="matrix(.35277776 0 0 -.35277776 17.894228 47.15923)"/><path clip-path="url(#P)" d="m0 0 6.907-1.021-.371-2.51-7.129 1.048c-2.612.385-3.628-.383-3.846-1.861-.219-1.491.524-2.571 3.135-2.957l7.129-1.056-.354-2.408-6.911 1.019c-4.175.618-5.625 2.651-5.172 5.724.451 3.054 2.435 4.634 6.612 4.022" transform="matrix(.35277776 0 0 -.35277776 14.025033 52.62387)"/><path clip-path="url(#O)" d="m0 0-.131-2.533-4.982.262-.25-4.797 4.98-.259-.131-2.513-12.668.659.131 2.519 5.478-.288.25 4.79-5.478.289.133 2.536z" transform="matrix(.35277776 0 0 -.35277776 15.834042 57.58201)"/><path clip-path="url(#N)" d="m0 0 1.375.427c1.311.438 2.755.836 4.112 1.26l-.003.07c-1.398.28-2.852.603-4.183.933l-1.402.332zm-1.952-.611-.143 4.113-3.288.777-.09 2.575 12.831-3.625.103-2.984-12.547-4.523-.096 2.657z" transform="matrix(.35277776 0 0 -.35277776 13.098462 64.24278)"/><path clip-path="url(#M)" d="m0 0 .311-2.575-6.273-4.476-2.571-1.592.01-.083c1.297.295 2.94.684 4.374.857l5.026.606.29-2.383-12.61-1.528-.309 2.558 6.305 4.461 2.556 1.61-.009.082c-1.352-.282-2.913-.662-4.363-.842l-5.06-.612-.285 2.387z" transform="matrix(.35277776 0 0 -.35277776 15.838204 66.20994)"/><path clip-path="url(#L)" d="m0 0 6.777 1.687.616-2.469-7-1.734c-2.563-.641-3.213-1.736-2.851-3.184.364-1.468 1.463-2.186 4.03-1.548l6.993 1.736.59-2.365-6.78-1.684c-4.101-1.018-6.217.312-6.964 3.332-.746 2.999.49 5.214 4.589 6.229" transform="matrix(.35277776 0 0 -.35277776 14.338546 72.86964)"/><path clip-path="url(#K)" d="m0 0 .868-2.442-5.154-5.733-2.17-2.113.032-.082c1.201.571 2.725 1.307 4.085 1.786l4.774 1.687.802-2.266-11.983-4.23-.856 2.428 5.186 5.733 2.147 2.122-.028.079c-1.255-.571-2.698-1.28-4.074-1.763l-4.81-1.697-.799 2.265z" transform="matrix(.35277776 0 0 -.35277776 17.902483 76.76879)"/><path clip-path="url(#J)" d="m0 0 1.009-2.33-11.646-5.047-1.006 2.327z" transform="matrix(.35277776 0 0 -.35277776 19.518913 81.11547)"/><path clip-path="url(#I)" d="m0 0 1.215-2.366-4.726-4.321c-1.07-.994-2.083-1.8-3.16-2.821l.038-.077c1.446.301 2.709.624 4.142.915l6.249 1.357 1.177-2.29-13.076-2.335-1.381 2.683z" transform="matrix(.35277776 0 0 -.35277776 20.112178 82.53762)"/><path clip-path="url(#H)" d="m0 0 4.126-6.606-1.792-1.122-2.778 4.457-2.49-1.554 2.366-3.785-1.807-1.127-2.363 3.784-2.882-1.798 2.884-4.614-1.806-1.127-4.229 6.765z" transform="matrix(.35277776 0 0 -.35277776 22.178539 86.45158)"/><path clip-path="url(#G)" d="m0 0 .996-1.312c.983-1.298 2.068-1.592 3.147-.775 1.093.827.924 1.816-.063 3.117l-.993 1.31zm-2.778-7.604 2.248 4.982-1.071 1.406-3.821-2.904-1.536 2.021 10.106 7.672 2.674-3.522c1.61-2.115 2.147-4.359-.176-6.115-1.516-1.157-3.038-1.107-4.371-.286l-2.343-5.503z" transform="matrix(.35277776 0 0 -.35277776 23.119749 91.61615)"/><path clip-path="url(#F)" d="m0 0 2.279.097c-.01-1.237.38-2.507 1.132-3.334.891-.977 1.783-1.118 2.445-.515.699.632.393 1.4-.013 2.565l-.614 1.743c-.471 1.309-.577 2.961.793 4.208 1.536 1.398 3.948 1.127 5.681-.777.996-1.094 1.558-2.578 1.476-4.049l-2.05-.121c-.047 1.048-.334 1.928-1.04 2.702-.749.824-1.607 1.024-2.226.453-.674-.613-.305-1.504.109-2.593l.598-1.706c.572-1.572.53-2.979-.828-4.215-1.539-1.403-4.015-1.309-5.994.862-1.142 1.257-1.795 2.967-1.748 4.68" transform="matrix(.35277776 0 0 -.35277776 23.665286 95.28895)"/><path clip-path="url(#E)" d="m0 0 1.831-1.754-8.779-9.154-1.83 1.76z" transform="matrix(.35277776 0 0 -.35277776 29.43098 95.71683)"/><path clip-path="url(#D)" d="m0 0-2.741 2.28 1.354 1.624 7.453-6.22-1.346-1.616-2.769 2.304-6.776-8.131-1.95 1.625z" transform="matrix(.35277776 0 0 -.35277776 31.181781 98.31409)"/><path clip-path="url(#C)" d="m0 0 1.546 8.755 2.196-1.557-.751-3.246c-.253-.976-.49-1.904-.729-2.928l.052-.038c.885.568 1.71 1.077 2.55 1.639l2.817 1.78 2.151-1.527-7.765-4.341-2.682-3.787-2.072 1.463z" transform="matrix(.35277776 0 0 -.35277776 32.890036 102.32143)"/><path clip-path="url(#B)" d="m0 0c1.23 2.439.89 4.44-.799 5.291-1.685.848-3.497-.07-4.726-2.51-1.22-2.422-.924-4.514.762-5.365 1.688-.851 3.543.159 4.763 2.584m-7.839 3.946c1.861 3.7 5.014 4.809 8.022 3.293 3.008-1.515 3.99-4.72 2.136-8.407-1.857-3.682-5.06-4.897-8.069-3.382-3.006 1.516-3.943 4.818-2.089 8.496" transform="matrix(.35277776 0 0 -.35277776 40.673371 107.2176)"/><path clip-path="url(#A)" d="m0 0 7.248-2.949-.792-1.957-4.896 1.996-1.25-3.069 4.18-1.705-.802-1.968-4.178 1.701-1.944-4.768-2.353.956z" transform="matrix(.35277776 0 0 -.35277776 43.163667 106.09898)"/><path clip-path="url(#z)" d="m0 0 .665 2.139c1.14-.421 2.444-.483 3.461-.062 1.199.5 1.623 1.277 1.287 2.09-.357.855-1.166.832-2.376.838l-1.817.015c-1.37-.003-2.925.447-3.626 2.127-.784 1.887.267 4.023 2.603 4.995 1.341.555 2.9.582 4.23.02l-.569-1.931c-.98.3-1.886.331-2.837-.07-1.014-.418-1.48-1.141-1.165-1.907.344-.824 1.295-.776 2.439-.759l1.776-.012c1.641.006 2.93-.501 3.623-2.166.781-1.889-.124-4.143-2.785-5.25-1.545-.644-3.342-.676-4.909-.067" transform="matrix(.35277776 0 0 -.35277776 80.875747 110.43426)"/><path clip-path="url(#y)" d="m0 0c-1.851 3.678-.573 7.027 2.248 8.445 1.417.715 2.888.604 3.993.212l-.46-2.007c-.833.265-1.677.327-2.522-.097-1.689-.85-2.228-2.937-1.02-5.335 1.223-2.425 3.106-3.311 4.869-2.425.951.477 1.475 1.31 1.754 2.264l1.874-.792c-.379-1.536-1.283-2.707-2.734-3.438-2.817-1.418-6.126-.556-8.002 3.173" transform="matrix(.35277776 0 0 -.35277776 83.533967 107.55348)"/><path clip-path="url(#x)" d="m0 0 2.164 1.244 6.229-10.82-2.162-1.244z" transform="matrix(.35277776 0 0 -.35277776 85.905587 103.82038)"/><path clip-path="url(#w)" d="m0 0 6.423 4.161 1.127-1.739-4.327-2.808 1.565-2.418 3.677 2.386 1.138-1.754-3.679-2.386 1.813-2.798 4.486 2.901 1.133-1.751-6.577-4.264z" transform="matrix(.35277776 0 0 -.35277776 87.332887 103.00871)"/><path clip-path="url(#v)" d="m0 0 2.032 1.542 6.916-3.103 2.631-1.394.067.05c-.895.957-2.045 2.163-2.904 3.29l-3.011 3.964 1.877 1.433 7.565-9.949-2.016-1.533-6.924 3.137-2.635 1.371-.067-.05c.911-1.007 2.009-2.143 2.88-3.287l3.037-3.991-1.885-1.433z" transform="matrix(.35277776 0 0 -.35277776 90.087587 101.20006)"/><path clip-path="url(#u)" d="m0 0c-2.735 3.069-2.36 6.636-.006 8.73 1.183 1.051 2.635 1.325 3.799 1.237l.071-2.06c-.87.041-1.706-.118-2.409-.745-1.407-1.257-1.392-3.404.39-5.405 1.807-2.028 3.85-2.399 5.325-1.089.791.706 1.086 1.645 1.109 2.637l2.012-.286c.029-1.578-.542-2.943-1.75-4.017-2.353-2.098-5.77-2.113-8.541.998" transform="matrix(.35277776 0 0 -.35277776 94.641987 100.49726)"/><path clip-path="url(#t)" d="m0 0 5.346 5.497 1.487-1.447-3.6-3.708 2.068-2.01 3.061 3.146 1.501-1.459-3.061-3.147 2.397-2.333 3.733 3.837 1.501-1.46-5.475-5.629z" transform="matrix(.35277776 0 0 -.35277776 95.944757 96.31285)"/><path clip-path="url(#s)" d="m0 0-1.292.571c-1.258.512-2.581 1.151-3.864 1.713l-.044-.053c.862-1.11 1.732-2.287 2.506-3.393l.828-1.145zm1.845-.8-2.541-3.143 1.941-2.696-1.592-1.968-7.188 10.947 1.844 2.283 12.224-4.723-1.645-2.03z" transform="matrix(.35277776 0 0 -.35277776 102.139887 93.29184)"/><path clip-path="url(#r)" d="m0 0 1.445 2.099 7.535-.781 2.928-.503.049.071c-1.148.627-2.612 1.41-3.777 2.216l-4.104 2.822 1.341 1.945 10.284-7.08-1.436-2.087-7.551.819-2.929.476-.046-.067c1.18-.671 2.576-1.407 3.759-2.222l4.127-2.84-1.341-1.948z" transform="matrix(.35277776 0 0 -.35277776 101.108967 90.42654)"/><path clip-path="url(#q)" d="m0 0c1.153 2.019.796 3.896-1.838 5.409-2.644 1.519-4.36.83-5.52-1.189l-.385-.674 7.356-4.217zm-10.71 2.375 1.705 2.969c1.894 3.302 4.779 4.37 8.437 2.272 3.639-2.09 4.277-5.179 2.448-8.366l-1.768-3.081z" transform="matrix(.35277776 0 0 -.35277776 107.184227 87.87268)"/><path clip-path="url(#p)" d="m0 0-1.435-3.204-1.895.848 3.905 8.715 1.892-.85-1.446-3.231 9.502-4.256-1.021-2.277z" transform="matrix(.35277776 0 0 -.35277776 106.800617 82.18587)"/><path clip-path="url(#o)" d="m0 0 2.656 7.186 1.945-.721-1.789-4.841 2.706-1.001 1.521 4.111 1.963-.723-1.524-4.115 3.134-1.156 1.854 5.015 1.962-.728-2.723-7.353z" transform="matrix(.35277776 0 0 -.35277776 107.135297 79.60272)"/><path clip-path="url(#n)" d="m0 0c-3.955 1.145-5.535 4.361-4.657 7.392.445 1.524 1.525 2.531 2.562 3.072l1.158-1.706c-.756-.43-1.382-1.007-1.646-1.913-.526-1.816.637-3.629 3.211-4.373 2.612-.759 4.541.014 5.091 1.91.298 1.023.045 1.974-.463 2.825l1.86.832c.861-1.324 1.105-2.783.653-4.337-.88-3.034-3.765-4.867-7.769-3.702" transform="matrix(.35277776 0 0 -.35277776 110.318727 77.33965)"/><path clip-path="url(#m)" d="m0 0 .499 2.448 4.813-.979.941 4.635-4.814.973.494 2.435 12.244-2.491-.496-2.427-5.294 1.074-.939-4.629 5.294-1.077-.499-2.451z" transform="matrix(.35277776 0 0 -.35277776 109.212697 73.10632)"/><path clip-path="url(#l)" d="m0 0 .294 2.53 7.016 2.834 2.826.924.009.083c-1.308.018-2.968.024-4.377.188l-4.94.577.274 2.343 12.393-1.446-.292-2.51-7.049-2.81-2.808-.944-.012-.089c1.353-.035 2.932-.033 4.356-.201l4.977-.576-.274-2.348z" transform="matrix(.35277776 0 0 -.35277776 110.014697 69.03974)"/><path clip-path="url(#k)" d="m0 0c-2.681.082-4.318-1.051-4.378-2.904-.057-1.852 1.507-3.084 4.191-3.166 2.664-.083 4.403 1.044 4.458 2.898.058 1.857-1.607 3.093-4.271 3.172m-.266-8.616c-4.063.13-6.354 2.477-6.252 5.776.101 3.308 2.548 5.512 6.595 5.386 4.048-.127 6.456-2.479 6.353-5.783-.103-3.302-2.65-5.506-6.696-5.379" transform="matrix(.35277776 0 0 -.35277776 112.724637 62.25254)"/><path clip-path="url(#j)" d="m0 0-.102 2.489 10.375.43-.21 5.053 2.091.089.31-7.546z" transform="matrix(.35277776 0 0 -.35277776 110.545597 60.7815)"/><path clip-path="url(#i)" d="m0 0c-2.662-.282-4.13-1.628-3.932-3.47.195-1.842 1.91-2.842 4.578-2.56 2.645.283 4.212 1.634 4.015 3.478-.194 1.843-2.013 2.834-4.661 2.552m.912-8.558c-4.037-.435-6.621 1.578-6.976 4.865-.349 3.281 1.773 5.794 5.793 6.223 4.023.427 6.727-1.571 7.076-4.852.352-3.284-1.87-5.809-5.893-6.236" transform="matrix(.35277776 0 0 -.35277776 112.304297 54.89416)"/><path clip-path="url(#h)" d="m0 0c-4.055-.75-6.916 1.437-7.52 4.709-.328 1.774.207 3.145.873 4.093l1.803-1.021c-.468-.707-.788-1.486-.582-2.601.376-2.042 2.236-3.176 4.876-2.687 2.677.494 4.061 2.022 3.616 4.429-.111.599-.387 1.168-.75 1.459l-2.428-.45.404-2.175-2.009-.37-.811 4.37 5.549 1.023c.969-.679 1.899-2.001 2.215-3.714.62-3.354-1.134-6.308-5.236-7.065" transform="matrix(.35277776 0 0 -.35277776 112.164107 53.54267)"/><path clip-path="url(#g)" d="m0 0-6.769-5.556-.644 2.573 2.641 1.948c.818.57 1.585 1.109 2.425 1.719l-.015.067c-1.028.141-1.97.291-2.957.409l-3.249.471-.63 2.524 8.59-1.73 4.439 1.106.606-2.419z" transform="matrix(.35277776 0 0 -.35277776 111.722957 48.48183)"/><path clip-path="url(#f)" d="m0 0 3.205-.015.041 10.194-2.628.011.006 1.454c1.376.253 2.353.588 3.191 1.1l1.732-.009-.053-12.759 2.868-.012-.009-1.892-8.362.035z" transform="matrix(.35277776 0 0 -.35277776 55.122097 113.05254)"/><path clip-path="url(#e)" d="m0 0c.006 1.354-.805 2.372-2.239 2.378-1.194.006-2.094-.807-2.098-2.122-.008-1.592 1.383-2.333 3.011-2.978.882.815 1.322 1.748 1.326 2.722m.27-7.228c.007 1.792-1.603 2.475-3.591 3.299-1.018-.691-1.718-1.783-1.724-3.057-.006-1.453 1.203-2.475 2.776-2.481 1.494-.006 2.533.865 2.539 2.239m-7.347.03c.007 1.93 1.287 3.219 2.645 3.931v.101c-1.093.779-1.964 1.877-1.957 3.431.009 2.29 1.787 3.778 4.197 3.766 2.548-.009 4.134-1.612 4.124-3.901-.006-1.492-1.025-2.761-1.945-3.435l-.002-.099c1.313-.763 2.462-1.902 2.453-3.891-.009-2.172-1.926-3.838-4.752-3.825-2.748.012-4.773 1.653-4.763 3.922" transform="matrix(.35277776 0 0 -.35277776 61.346677 109.9113)"/><path clip-path="url(#d)" d="m0 0c-.208 2.887-1.298 4.205-2.89 4.211-1.255.006-2.254-1.127-2.261-3.037-.008-1.871.823-2.948 2.357-2.954.896-.003 1.913.509 2.794 1.78m-5.84-6.229c.575-.66 1.468-1.101 2.404-1.104 1.773-.009 3.312 1.418 3.468 5.6-.861-1.054-2.117-1.705-3.232-1.702-2.449.012-4.095 1.551-4.082 4.618.012 2.908 2.01 4.808 4.379 4.799 2.807-.011 5.069-2.289 5.048-7.127-.023-5.773-2.66-8.072-5.488-8.06-1.692.006-2.884.688-3.738 1.568z" transform="matrix(.35277776 0 0 -.35277776 65.523707 110.56518)"/><path clip-path="url(#c)" d="m0 0c.006 1.354-.805 2.371-2.239 2.377-1.194.006-2.094-.806-2.098-2.121-.008-1.593 1.382-2.334 3.011-2.979.882.816 1.322 1.748 1.326 2.723m.27-7.228c.007 1.792-1.603 2.475-3.591 3.299-1.018-.691-1.719-1.783-1.724-3.057-.006-1.454 1.203-2.472 2.776-2.481 1.494-.007 2.533.864 2.539 2.239m-7.347.03c.007 1.93 1.287 3.219 2.645 3.931v.1c-1.093.78-1.964 1.878-1.957 3.432.009 2.289 1.786 3.778 4.197 3.766 2.548-.009 4.134-1.613 4.124-3.902-.006-1.492-1.026-2.76-1.945-3.435l-.002-.099c1.313-.762 2.462-1.902 2.453-3.891-.009-2.171-1.926-3.837-4.752-3.825-2.748.012-4.773 1.654-4.763 3.923" transform="matrix(.35277776 0 0 -.35277776 69.469527 109.90788)"/><path clip-path="url(#b)" d="m0 0c0-1.504-1.219-2.724-2.724-2.724-1.504 0-2.723 1.22-2.723 2.724 0 1.505 1.219 2.724 2.723 2.724 1.505 0 2.724-1.219 2.724-2.724" transform="matrix(.35277776 0 0 -.35277776 52.454737 111.17841)"/><path clip-path="url(#a)" d="m0 0c0-1.504-1.22-2.724-2.724-2.724s-2.724 1.22-2.724 2.724c0 1.505 1.22 2.724 2.724 2.724s2.724-1.219 2.724-2.724" transform="matrix(.35277776 0 0 -.35277776 74.915707 111.17841)"/></g></svg>