<?xml version="1.0" encoding="utf-8"?>
<!-- Generator: Adobe Illustrator 24.0.1, SVG Export Plug-In . SVG Version: 6.00 Build 0)  -->
<svg version="1.1"
	 id="svg6" sodipodi:docname="瑗垮崕澶у.cdr" xmlns:cc="http://creativecommons.org/ns#" xmlns:dc="http://purl.org/dc/elements/1.1/" xmlns:inkscape="http://www.inkscape.org/namespaces/inkscape" xmlns:rdf="http://www.w3.org/1999/02/22-rdf-syntax-ns#" xmlns:sodipodi="http://sodipodi.sourceforge.net/DTD/sodipodi-0.dtd" xmlns:svg="http://www.w3.org/2000/svg"
	 xmlns="http://www.w3.org/2000/svg" xmlns:xlink="http://www.w3.org/1999/xlink" x="0px" y="0px" viewBox="0 0 3693.7 1186.8"
	 style="enable-background:new 0 0 3693.7 1186.8;" xml:space="preserve">
<style type="text/css">
	.st0{fill-rule:evenodd;clip-rule:evenodd;fill:#E30016;}
</style>
<sodipodi:namedview  bordercolor="#666666" borderopacity="1" gridtolerance="10" guidetolerance="10" id="namedview8" inkscape:pageopacity="0" inkscape:pageshadow="2" inkscape:window-height="480" inkscape:window-width="640" objecttolerance="10" pagecolor="#ffffff">
	</sodipodi:namedview>
<path id="path4" class="st0" d="M346.2,866.4C294.1,856.3,327,823,327,823c14.9-38.1-26.3-49.5-26.3-49.5
	c-49.5,5.7-52.5-32.4-52.5-32.4c-40.7,26.3-122.5,41.1-122.5,41.1c-28.9,35,3,55.1,3,55.1c55.6,111.2,0,113.8,0,113.8
	c-81.8-5.7-70-116.4-70-116.4c-0.4-6.6-0.4-12.7-0.9-18v-4.4c0.9-79.7,32.8-77,32.8-77c61.3,55.6,134.4-23.2,134.4-23.2
	c35-32.4-3.1-108.1-3.1-108.1c-20.1-61.3,0-70,0-70c29.3-49.9,70,93.2,70,93.2c21.5,11,39.4,13.1,54.3,9.2
	c51.7-14,65.7-96.7,65.7-96.7c52.5-122.5-51.7-171.1-51.7-171.1c-4.8,3.1-9.6,6.1-14,8.8c-53.4,31.1-86.2,30.2-86.2,30.2
	c-166.3-23.2-49.5-69.2-49.5-69.2c41.1-17.1,94.5-25.8,135.7-30.2c36.3-4,62.6-4.8,62.6-4.8c38.5-5.7,72.7-10.9,102.9-16.2
	c219.7-37.2,235.9-59.5,235.9-59.5c119.5-17.5,23.2,61.3,23.2,61.3c-145.7,84.5-166.3,20.1-166.3,20.1c-33.3-4.4-65.7-1.8-92.8,3.5
	c-39.8,7.4-67.8,20.1-67.8,20.1c-90.6,26.3,3.1,61.3,3.1,61.3c40.3-10.9,57.8,12.3,64.8,40.7c8.3,32.8,2.2,73.1,2.2,73.1
	c26.3,38.1,76.1-23.6,76.1-23.6c98.9-102,119.5-28.9,119.5-28.9c35,64.4-14.4,108.1-14.4,108.1c-90.6,125.2-169.4,215.8-169.4,215.8
	c-4.8,3.5-9.6,5.7-14,7.4c-40.7,14.5-73.5-28-73.5-28c-81.9-23.2-52.5,55.6-52.5,55.6c37.6,23.2,81.4,5.7,81.4,5.7
	c32,6.1,42.9,17.1,44.6,28c0.4,2.6,0.4,4.8,0,7c-2.2,14-15.3,26.3-15.3,26.3c-49.5,43.8-67-14.5-67-14.5
	C389.5,870.3,363.3,869.4,346.2,866.4L346.2,866.4z M346.2,665c-3.1,0-6.5,0-10.5,0.4c0,0-20.1,3-17.5,29.3c0,0-3.5,28.9,28,24.1
	c7-1.3,16.2-4.4,27.6-9.6C373.8,709.2,378.6,667.7,346.2,665z M511.7,570.1c-15.8,19.2-49.5,67-73.5,139.2c0,0,23.2,37.2,73.5-19.7
	c18.4-21.4,40.7-55.1,66.5-108.5c0,0,38.1-73.1-58.6-20.6C519.5,560.4,516.5,563.5,511.7,570.1z M1391.9,608.9
	c-6.1,7-10.5,14.4-12.2,22.3c0,0-6.6,13.6,12.2,37.2c0.9,1.3,1.8,2.2,2.6,3.1c0,0,65.6-29.3,94.5-62.2c0,0,3.9-76.6-32.8-43.8
	C1456.3,565.6,1414.2,583.5,1391.9,608.9z M1391.9,705.2c-34.1,21.9-77.5,51.2-124.3,88c0,0-119.9,105-198.7,116.9
	c0,0-90.6,17.5-20.6-58.2c0,0,88-41.1,233.7-122.6c0,0,43.8,0,23.2-76.1c0,0-78.8,23.6-28.9-31.9c0,0,30.2-22.3,43.8-38.1
	c0,0-23.6-154.5,35-26.3c0,0,40.7,17.5,35-55.6c0,0,0.4,0.4,1.7,0.4c12.3,1.3,73.6,7,97.2-9.2c0,0,17.5-96.3,0-122.6
	c0,0-32-11.4-11.4-40.7c0,0,36.8-42.9,88-102.9c0.9-0.9,1.3-1.3,2.2-2.2c0,0,11.4-17.9,24.1-46c14-31.1,29.8-74.4,31.1-117.8
	c0,0,10.1-9.6,24.5-6.6c13.1,2.6,29.3,15.3,45.5,54.3l58.6-4.8c0,0,48.6,82.7-97.6,58.7c0,0-2.2,3.1-6.6,8.7
	c-10.1,13.1-30.6,39.4-55.6,68.3c-8.3,9.6-17.1,19.3-26.3,29.3c-8.8,10.1-18.4,20.1-27.6,29.8c0,0-10.9,34.1,27.6,41.6
	c4.8,0.9,10.5,1.3,16.6,1.3c0,0,3.5-1.8,9.6-3.5c12.7-3.5,35.9-8.3,55.6,0.9c1.8,0.9,3.1,1.7,4.8,2.6c0,0,23.2,11.4,49.5-6.1
	c0,0,87.5-5.7,14.9,49.9c0,0-23.6,11.4-35,55.2c0,0-26.3,111.2,75.7-5.7c0,0,87.5-11.8,26.3,64.3c0,0-84.5,43.7-122.6,99.3
	c0,0-40.7,46.4,23.2,37.6c0,0,84.9,73.1-31.9,84.9c0,0-1.8,1.3-4.8,3.9c-9.2,7.9-31.1,24.9-55.6,39.8c-8.3,4.8-17.5,9.6-26.3,13.6
	c-7.4,3.5-15.3,6.6-23.2,8.3c0,0,19.3,284.5-27.1,337c0,0-31.9-49.5-28.9-242.5c0,0,5.7-52.5-11.8-67c0,0-49.5,35-64.3,23.2
	c0,0-35-28.9,76.1-107.7c0,0,23.2-76.1-20.6-67.4C1465.9,661.9,1437,676.8,1391.9,705.2L1391.9,705.2z M1391.9,417.7
	c-9.2,1.3-21.4-0.4-36.7-9.6c0,0,11.4-52.5-49.9-49.4c0,0-84.5,23.2,0-38.1c0,0,64.3,0,55.6-99.4c0,0-14.4-49.5-14.4-84.5
	c0,0,27.6,14,45.5,63c4,10.5,7.5,22.3,9.6,36.3c0,0-8.8,72.7,52.5,14.5c0,0,137-49.5,6.1,43.8c0,0-49.9,23.2-38.1,90.6
	C1422.1,384.8,1416,413.3,1391.9,417.7L1391.9,417.7z M1565.7,464.1c-9.6,11.4-17.9,32.4-17.9,32.4c-29.3,87.5,17.5,65.6,17.5,65.6
	c0.4-0.4,0.4-0.4,0.4-0.9c28.9-46.8,25.4-90.6,25.4-90.6C1583.2,453.6,1574,455.7,1565.7,464.1L1565.7,464.1z M1565.7,618.1
	c-12.3,12.3-28.4,31.1-21.9,42.5c0,0,11.4-4.8,21.9-12.3c17.9-11.8,36.8-29.3,14.4-42.4C1580.1,605.9,1573.6,610.7,1565.7,618.1
	L1565.7,618.1z M1565.7,665.4c-5.7,6.6-13.1,14.4-21.9,24.5c0,0-15.3,59.5,21.9,49.9c7-1.8,15.8-5.7,26.3-12.7
	c6.1-3.9,13.1-9.2,21-15.3c0,0,69.2-32.8,0-65.6c0,0-4.4-10.1-21-1.3C1585.4,648.3,1576.6,654.4,1565.7,665.4L1565.7,665.4z
	 M1647.5,535.8c-10.9,7.4-24.5,17.9-42,33.3c0,0,4.4,46,42,12.7c10.9-9.6,24.5-26.3,42-52.5C1689.5,529.3,1685.2,511.8,1647.5,535.8
	z M2609.2,789.2c-8.8-3.1-17.5-4-26.3-2.6c0,0,2.2,2.2,25.4,102.4c0,0,0,3.1,0.9,7.9c3.1,23.2,20.1,83.6,101.1,17.5
	C2710.3,914.3,2668.3,808,2609.2,789.2z M2609.2,521.7c-29.3,24.5-115.1,97.2-154.1,130c0,0,17.9,80.1-47.7,171.6
	c0,0-47.3,87.5-175.1,120.4c0,0-72.7,7-32.8-21.9c0,0,109.4-43.8,138.7-131.3c0,0,51.2-76.6,25.4-91.5c0,0-50.7-11-178.6,87.5
	c0,0-36.3,36.8-120.4,40.3c0,0-87.5-36.3-18.4-95c0,0,43.8,10.9,105.9-3.5c0,0,204.4-76.6,251.6-134.8c0,0,7.4-138.8-7.4-237.2
	c0,0-14.4-62.2-36.3-109.4c0,0,25.4-58.7,123.9,58.2c0,0,14.9,127.8-3.5,178.6c0,0-21.9,87.5,10.9,87.5c0,0,32.8-7,84.1-102
	c0,0,17.5-4.4,33.7-4.4c21.9-0.4,41.6,8.3,10,48.2C2619.3,513,2615.3,516,2609.2,521.7L2609.2,521.7z M3318.6,1094.4
	c-56-46.8-189.5-98.5-189.5-98.5l189.5,7l14.5,0.4l7.4-189.5c-7.9,4-14.9,7-21.9,9.6c-83.2,31.5-120.4-24.5-120.4-24.5
	c1.7-14.5,57.8-45.5,120.4-75.7c80.1-39.4,171.6-77.5,171.6-77.5c182.5-73.1,120.4,32.8,120.4,32.8
	c-69.1,58.7-189.9,116.9-189.9,116.9c124.3-123.9-3.5-32.8-3.5-32.8c-29.3,18.4-32.8,29.3-32.8,29.3c-7.5,43.8,7.4,251.7,7.4,251.7
	c25.4,95-51.2,76.6-51.2,76.6C3337,1111.9,3329.1,1103.2,3318.6,1094.4L3318.6,1094.4z M3318.6,606.4
	c-57.8,36.8-109.4,68.7-109.4,68.7c-51.2,51.2-112.9,102-112.9,102c-155.8,95-171.6-17.9-171.6-17.9
	c142.2-32.8,273.6-109.9,273.6-109.9c37.2-17.5,80.5-43.8,120.4-69.6c65.2-42.5,120.4-83.6,120.4-83.6
	c149.7-25.4,54.7,73.1,54.7,73.1c-73.1,54.7-120.4,65.6-120.4,65.6c0-10.9,40.3-51.2,40.3-51.2c98.5-98.5-3.9-36.3-3.9-36.3
	C3382.9,565.2,3349.6,586.7,3318.6,606.4L3318.6,606.4z M3318.6,358.2c-39.4,47.7-54.7,14-54.7,14c-40.3-69.2-69.2-80.1-69.2-80.1
	c-7.4,47.3,10.9,80.1,10.9,80.1c-32.8,29.3,25.4,40.3,25.4,40.3c-58.2,87.6-76.6,36.3-76.6,36.3c-10.9-32.8-40.3-43.8-40.3-43.8
	c3.9,58.2,21.9,131.3,21.9,131.3c36.7,21.9,58.6-32.8,58.6-32.8c131.3-149.7,109.4-69.2,109.4-69.2c-18.4,25.4-58.7,72.7-58.7,72.7
	c7.4,32.8,47.7-25.4,47.7-25.4c9.2-10.9,17.5-17.5,25.4-21.5c28-14.4,43.8,10.5,43.8,10.5c91,47.3,32.8-36.3,32.8-36.3
	c-55.2-30.2-21.9-58.6-21.9-58.6c47.3-98.5,153.2-131.3,153.2-131.3c138.7-80.1-7,95-7,95c-51.2-14.5-29.3,43.8-29.3,43.8
	c-40.2,0-40.2,43.8-40.2,43.8c-43.8,40.3,7.4,29.3,7.4,29.3c87.5-21.9,145.7-146.2,145.7-146.2c24.1-39.4,35-66.1,38.1-84v-18.4
	c-6.6-27.1-45.1-14-45.1-14c-95,21.9-153.6,69.1-153.6,69.1c-3.5-25.4-32.8-25.4-32.8-25.4c10.9-29.3-3.5-32.8-3.5-32.8l29.3-14.9
	c105.9-109.4,39.8-134.8,39.8-134.8c-28.9,28.9-116.4,171.6-116.4,171.6c-15.3,7.4-28.9,12.7-40.3,16.6c-22.3,7-36.3,8.8-36.3,8.8
	c-40.3,21.9,25.4,32.8,25.4,32.8c-43.8,47.3-14.4,58.2-14.4,58.2c10.1-10.1,18.4-18.8,25.4-25.8c14.9-16.6,21.9-25,21.9-25
	c95-54.7-10.9,50.8-10.9,50.8C3325.6,348.6,3322.1,353.8,3318.6,358.2L3318.6,358.2z"/>
</svg>
