<?xml version="1.0" encoding="UTF-8"?>
<svg xmlns="http://www.w3.org/2000/svg" xmlns:xlink="http://www.w3.org/1999/xlink" width="444pt" height="143pt" viewBox="0 0 444 143" version="1.1">
<g id="surface1">
<path style=" stroke:none;fill-rule:evenodd;fill:rgb(78.823529%,16.862745%,18.431373%);fill-opacity:1;" d="M 173.796875 13.496094 C 173.796875 13.496094 186.472656 14.652344 185.996094 19.910156 C 185.996094 19.910156 185.332031 21.566406 186.160156 22.457031 C 186.488281 22.789062 188.902344 22.292969 191.101562 21.632812 C 192.589844 21.136719 193.910156 20.144531 194.175781 20.144531 C 194.175781 20.144531 207.679688 17.25 201.019531 23.914062 C 201.019531 23.914062 195.285156 24.574219 189.035156 27.851562 C 187.382812 28.675781 183.648438 30.777344 182.984375 30.265625 C 182.65625 29.933594 182.851562 29.105469 185.285156 26.757812 C 185.285156 26.757812 181.332031 28.246094 176.738281 29.554688 C 175.25 29.882812 173.21875 30.875 171.796875 30.875 C 170.144531 31 167.003906 31.703125 166.324219 30.96875 C 165.664062 30.140625 168.722656 29.8125 171.597656 28.257812 C 174.027344 26.933594 175.449219 25.195312 176.375 22.816406 C 176.871094 21.328125 177.035156 20.269531 176.441406 18.433594 C 175.945312 16.945312 175.78125 15.191406 173.78125 13.554688 Z M 173.796875 13.496094 "/>
<path style=" stroke:none;fill-rule:evenodd;fill:rgb(78.823529%,16.862745%,18.431373%);fill-opacity:1;" d="M 171.394531 39.167969 C 171.890625 39.292969 171.890625 39.828125 171.890625 40.917969 C 171.84375 41.414062 172.003906 41.910156 171.726562 42.574219 C 171.726562 42.574219 173.527344 42.40625 176.632812 40.308594 C 180.714844 37.59375 183.707031 36.191406 186.003906 36.058594 C 187.164062 35.988281 188.238281 36.554688 189.113281 36.882812 C 190.4375 37.214844 191.609375 37.378906 192.4375 37.875 C 193.425781 38.539062 192.929688 39.628906 192.765625 40.457031 C 192.726562 41.449219 192.898438 42.292969 191.773438 42.804688 C 190.78125 43.136719 189.34375 42.832031 188.222656 42.96875 C 186.734375 43.136719 185.394531 43.960938 184.484375 43.136719 C 183.824219 42.640625 184.816406 41.648438 185.144531 40.488281 C 185.640625 39.167969 185.476562 39.167969 185.078125 38.835938 C 184.582031 38.671875 183.757812 38.339844 183.078125 38.734375 C 181.757812 39.726562 180.597656 41.644531 180.382812 41.910156 C 178.417969 44.257812 175.886719 45.332031 173.34375 46.542969 C 171.691406 47.367188 169.738281 47.367188 168.152344 48.03125 C 165.839844 49.023438 163.953125 50.640625 161.90625 51.304688 C 159.390625 52.132812 159.457031 49.980469 161.769531 47.167969 C 162.757812 45.847656 164.496094 45.117188 166.179688 43.730469 C 166.84375 43.234375 168.015625 42.027344 169.15625 40.835938 C 169.984375 40.007812 170.644531 38.867188 171.46875 39.082031 Z M 171.394531 39.167969 "/>
<path style=" stroke:none;fill-rule:evenodd;fill:rgb(78.823529%,16.862745%,18.431373%);fill-opacity:1;" d="M 149.101562 90.667969 C 149.101562 90.667969 151.761719 89.839844 154.917969 87.425781 C 156.242188 86.433594 157.414062 84.566406 158.902344 83.210938 C 161.910156 80.480469 164.984375 76.992188 167.449219 73.800781 C 169.367188 71.320312 170.621094 68.6875 171.5 67.035156 C 172.984375 64.390625 171.460938 62.304688 169.8125 60.007812 C 168.65625 58.304688 166.984375 56.730469 166.523438 55.953125 C 162.902344 49.820312 168.488281 55.128906 171.414062 57.277344 C 173.78125 59.03125 174.425781 60.636719 174.753906 60.667969 C 175.085938 60.707031 175.085938 59.179688 176.472656 56.832031 C 177.796875 54.714844 178.125 52.910156 178.6875 52.28125 C 179.019531 51.953125 178.359375 52.433594 181.398438 54.21875 C 185.070312 56.417969 187.117188 61.179688 184.144531 64.140625 C 184.144531 64.199219 179.597656 65.878906 182.820312 69.515625 C 183.480469 70.34375 186.042969 73.003906 188.769531 76.414062 C 190.621094 78.746094 192.175781 81.621094 194.753906 83.507812 C 197.546875 85.558594 200.6875 88.453125 203.382812 89.3125 C 206.65625 90.304688 209.117188 90.800781 208.175781 91.414062 C 207.679688 91.742188 206.6875 91.910156 201.664062 92.734375 C 198.921875 93.066406 195.863281 94.058594 192.886719 93.230469 C 189.910156 92.40625 187.050781 89.941406 185.101562 86.914062 C 184.441406 85.757812 182.339844 81.886719 180.65625 78.148438 C 179.167969 74.859375 177.996094 71.601562 176.835938 71.402344 C 175.351562 71.070312 174.621094 73.699219 173.21875 75.785156 C 171.53125 78.296875 169.132812 79.984375 166.640625 82.414062 C 164.273438 84.699219 154.789062 91.347656 151.746094 91.726562 C 145.648438 92.554688 150.917969 89.742188 149.167969 90.734375 Z M 149.101562 90.667969 "/>
<path style=" stroke:none;fill-rule:evenodd;fill:rgb(78.823529%,16.862745%,18.431373%);fill-opacity:1;" d="M 236.476562 33.914062 C 236.476562 33.914062 239.484375 32.046875 243.5 29.382812 C 245.5 28.0625 247.234375 26.042969 249.550781 24.257812 C 253.417969 21.296875 258.046875 18.386719 261.582031 15.957031 C 265.617188 13.175781 269.203125 12.382812 269.8125 10.777344 C 269.8125 10.777344 272.707031 9.953125 274.574219 10.613281 C 275.730469 10.945312 276.0625 12.847656 276.308594 14.035156 C 276.308594 14.035156 272.839844 18.386719 269.878906 22.058594 C 267.730469 24.738281 265.597656 26.835938 266.507812 27.828125 C 266.507812 27.828125 270.824219 31.21875 268.261719 32.921875 C 268.261719 32.921875 259.167969 39.421875 257.039062 36.859375 C 257.039062 36.859375 261.78125 34.164062 262.640625 30.9375 C 262.640625 30.9375 259.863281 29.019531 262.476562 25.382812 C 262.476562 25.382812 267.167969 19.710938 268.242188 16.929688 C 268.242188 16.929688 264.226562 19.726562 260.441406 22.753906 C 255.878906 26.390625 250.394531 31.847656 248.394531 32.792969 C 247.234375 34.511719 233.730469 33.949219 236.507812 33.949219 Z M 236.476562 33.914062 "/>
<path style=" stroke:none;fill-rule:evenodd;fill:rgb(78.823529%,16.862745%,18.431373%);fill-opacity:1;" d="M 228.878906 54.070312 C 230.363281 54.898438 232.050781 55.230469 233.109375 56.105469 C 237.074219 59.179688 237.554688 62.851562 236.726562 64.390625 C 236.066406 65.546875 235.40625 64.886719 234.578125 64.886719 C 233.421875 64.84375 232 65.042969 231.339844 64.390625 C 231.007812 64.058594 231.351562 62.738281 231.007812 61.414062 C 230.347656 58.355469 228.382812 54.730469 228.859375 54.121094 Z M 228.878906 54.070312 "/>
<path style=" stroke:none;fill-rule:evenodd;fill:rgb(78.823529%,16.862745%,18.431373%);fill-opacity:1;" d="M 234.285156 78.257812 C 234.285156 78.257812 234.152344 76.605469 234.304688 74.886719 C 234.425781 73.5625 235.132812 71.941406 233.808594 71.199219 C 238.667969 72.917969 238.949219 77.367188 237.394531 78.9375 C 236.734375 79.597656 235.148438 77.78125 234.253906 78.277344 Z M 234.285156 78.257812 "/>
<path style=" stroke:none;fill-rule:evenodd;fill:rgb(78.823529%,16.862745%,18.431373%);fill-opacity:1;" d="M 222.363281 77.859375 C 222.332031 76.867188 224.710938 77.960938 228.167969 79.015625 C 230.53125 79.679688 233.390625 80.007812 236.296875 81.117188 C 239.886719 82.441406 243.621094 83.746094 247.457031 84.988281 C 257.636719 88.292969 268.449219 90.742188 278.332031 88.128906 C 278.332031 88.128906 279.15625 91.585938 271.785156 93.324219 C 271.785156 93.324219 270.792969 93.171875 269.390625 94.148438 C 267.636719 95.308594 265.242188 97.855469 262.960938 98.699219 C 260.464844 99.691406 253.523438 93.191406 244.308594 88.277344 C 240.308594 86.144531 235.414062 84.953125 231.910156 83.449219 C 228.191406 81.796875 225.941406 79.960938 224.554688 79.183594 C 223.5625 78.6875 222.371094 78.519531 222.355469 77.859375 Z M 222.363281 77.859375 "/>
<path style=" stroke:none;fill-rule:evenodd;fill:rgb(78.823529%,16.862745%,18.431373%);fill-opacity:1;" d="M 316.269531 41.757812 C 316.296875 41.425781 327.160156 43.972656 331.589844 42.089844 C 331.589844 42.089844 344.863281 17.738281 344.234375 13.941406 C 344.234375 13.941406 353.078125 15.84375 349.921875 22.476562 C 349.921875 22.476562 342.335938 34.648438 342.664062 39.390625 C 342.664062 39.390625 348.019531 39.453125 348.203125 37.589844 C 348.203125 37.589844 356.816406 36.429688 357.179688 38.582031 C 357.179688 38.582031 356.515625 42.171875 349.972656 44.039062 C 349.972656 44.039062 338.019531 46.769531 337.277344 49.578125 C 337.277344 49.578125 330.417969 57.300781 330.054688 61.601562 C 330.054688 61.601562 340.351562 67.96875 341.839844 71.707031 C 341.839844 71.707031 344.863281 74.503906 350.730469 75.90625 C 353.855469 76.734375 359.855469 76.570312 363.046875 76.238281 C 363.046875 76.238281 360.683594 78.6875 358.484375 79.726562 C 356.765625 80.554688 354.929688 80.71875 354.929688 81.710938 C 354.929688 81.710938 348.648438 87.75 343.226562 83.449219 C 343.226562 83.449219 339.03125 81.332031 336.601562 74.222656 C 336.601562 74.222656 331.328125 63.585938 327.953125 64.148438 C 326.269531 64.480469 324.402344 67.886719 322.003906 71.226562 C 315.0625 80.886719 304.734375 86.625 294.136719 91.757812 C 290.566406 93.496094 287.574219 94.898438 286.761719 93.625 C 286.761719 93.625 289.507812 92.800781 293.472656 89.855469 C 300.53125 84.582031 310.796875 75.5 314.152344 68.417969 C 318.480469 62.878906 320.78125 59.125 322.730469 56.414062 C 324.566406 53.867188 326.21875 52.246094 325.09375 50.375 C 324.265625 49.054688 321.9375 48.6875 319.773438 46.621094 C 317.738281 44.652344 316.25 42.058594 316.265625 41.910156 Z M 316.269531 41.757812 "/>
<path style=" stroke:none;fill-rule:evenodd;fill:rgb(78.823529%,16.862745%,18.431373%);fill-opacity:1;" d="M 384.171875 32.640625 C 385.492188 33.300781 386.730469 34.855469 388.203125 36.578125 C 390.105469 38.777344 392.039062 41.207031 391.824219 43.359375 C 391.492188 47.179688 388.367188 47.9375 386.929688 46.183594 C 385.609375 44.695312 385.773438 41.851562 385.226562 39.140625 C 384.730469 36.742188 384.070312 34.128906 384.234375 32.640625 Z M 384.171875 32.640625 "/>
<path style=" stroke:none;fill-rule:evenodd;fill:rgb(78.823529%,16.862745%,18.431373%);fill-opacity:1;" d="M 413.671875 64.089844 C 413.671875 64.089844 417.902344 62.601562 418.8125 64.917969 C 418.316406 65.746094 417.011719 67.8125 415.339844 69.863281 C 414.515625 70.855469 413.488281 72.261719 412.597656 72.261719 C 411.933594 72.257812 409.007812 72.921875 408.628906 71.765625 C 408.464844 71.105469 409.953125 70.9375 410.730469 70.109375 C 411.226562 69.613281 410.675781 68.789062 411.554688 68.242188 C 406.597656 71.019531 403.71875 70.789062 402.167969 70.109375 C 401.671875 69.945312 399.738281 68.359375 399.902344 67.746094 C 400.046875 67.25 402.234375 67.910156 404.628906 67.605469 C 408.117188 67.109375 412.347656 65.605469 413.71875 64.015625 Z M 413.671875 64.089844 "/>
<path style=" stroke:none;fill-rule:evenodd;fill:rgb(78.823529%,16.862745%,18.431373%);fill-opacity:1;" d="M 388.125 81.519531 C 388.125 81.519531 389.613281 83.007812 392.207031 83.007812 C 393.03125 83.019531 394.621094 82.183594 396.15625 81.6875 C 398.40625 81.023438 399.050781 80.03125 403.429688 77.964844 C 403.429688 77.964844 408.257812 75.417969 413.332031 73.730469 C 414.816406 73.234375 417.761719 72.90625 419.792969 72.0625 C 421.828125 71.234375 422.320312 70.09375 423.59375 70.175781 C 429.214844 70.507812 431.265625 76.660156 430.636719 76.660156 C 430.304688 76.660156 427.460938 76.328125 424.917969 77.320312 C 421.183594 78.808594 417.015625 79.867188 414.851562 78.3125 C 414.851562 78.3125 415.84375 77.980469 418.667969 76.328125 C 418.625 76.375 411.742188 76.492188 412.867188 78.113281 C 412.867188 78.113281 414.023438 82.695312 414.585938 88.433594 C 414.917969 91.839844 415.246094 99.414062 414.917969 105.269531 C 414.757812 107.929688 414.890625 110.261719 413.925781 111.71875 C 413.429688 112.542969 411.761719 112.710938 409.445312 111.761719 C 408.125 111.265625 407.148438 109.992188 405.644531 109.199219 C 401.378906 106.949219 396.023438 104.417969 391.828125 101.871094 C 388.453125 99.820312 385.875 97.539062 384.882812 97.023438 C 384.882812 97.023438 389.296875 99.554688 394.386719 100.695312 C 397.296875 101.359375 400.171875 101.359375 402.238281 101.6875 C 405.265625 102.183594 406.984375 102.847656 408.140625 102.183594 C 409.792969 101.191406 409.132812 98.976562 409.132812 96.363281 C 409.007812 93.519531 410.453125 78.957031 410.785156 78.832031 C 410.785156 78.832031 406.984375 79.824219 404.554688 81.824219 C 401.613281 84.320312 397.363281 86.785156 396.273438 86.585938 C 394.273438 86.253906 390.207031 87.910156 389.296875 84.917969 C 390.125 87.828125 388.304688 81.441406 388.304688 81.441406 Z M 388.125 81.519531 "/>
<path style=" stroke:none;fill-rule:evenodd;fill:rgb(78.823529%,16.862745%,18.431373%);fill-opacity:1;" d="M 242.183594 59.652344 C 242.679688 58.164062 242.84375 55.4375 243.835938 53.765625 C 244.664062 52.445312 245.324219 51.765625 246.035156 50.179688 C 246.035156 50.179688 246.027344 52.675781 246.53125 55.550781 C 246.53125 55.550781 249.140625 49.914062 253.585938 44.96875 C 258.761719 39.214844 265.175781 36.566406 268.464844 37.0625 C 271.867188 37.558594 270.859375 42.207031 269.785156 46.359375 C 267.917969 53.253906 266.597656 60.710938 265.4375 68.007812 C 264.777344 72.09375 263.953125 75.960938 263.785156 79.949219 C 263.785156 79.949219 260.828125 82.097656 259.488281 79.453125 C 259.488281 79.453125 258.664062 75.699219 256.035156 76.707031 C 256.035156 76.707031 253.40625 80.3125 252.5625 77.203125 C 252.5625 77.203125 252.894531 68.867188 252.894531 66.15625 C 252.894531 66.15625 249.4375 67.476562 248.925781 64.996094 C 248.925781 64.996094 250.628906 61.109375 252.316406 57.390625 C 253.96875 55.570312 252.8125 54.511719 252.8125 53.835938 C 252.804688 53.503906 253.308594 53.339844 254.644531 52.84375 C 254.644531 52.84375 255.472656 49.253906 254.148438 48.574219 C 254.148438 48.574219 251.570312 52.3125 249.273438 55.800781 C 248.449219 57.125 247.40625 59.359375 246.878906 61.078125 C 245.71875 64.996094 247.703125 70.585938 246.214844 73.035156 C 245.554688 74.027344 243.4375 73.53125 242 72.042969 C 240.132812 70.109375 240.035156 66.851562 242.164062 59.605469 Z M 255.4375 47.085938 C 255.4375 47.085938 264.214844 39.246094 266.464844 40.105469 C 266.464844 40.105469 265.636719 50.609375 264.019531 56.496094 L 262.050781 66.136719 L 261.222656 76.027344 C 261.222656 76.027344 256.878906 76.050781 257.042969 73.8125 C 257.042969 73.8125 257.027344 72.324219 257.089844 69.992188 C 257.136719 68.203125 257.253906 66.070312 257.914062 64.582031 C 258.410156 63.589844 259.617188 63.09375 260.296875 62.714844 C 262.179688 59.621094 262.660156 58.316406 261.453125 56.941406 C 260.957031 56.28125 258.277344 55.949219 257.519531 54.90625 C 256.855469 54.082031 257.847656 51.105469 257.1875 49.054688 C 256.855469 48.0625 255.867188 47.398438 255.386719 47.070312 Z M 255.4375 47.085938 "/>
<path style=" stroke:none;fill-rule:evenodd;fill:rgb(78.823529%,16.862745%,18.431373%);fill-opacity:1;" d="M 394.546875 39.085938 C 394.546875 39.085938 394.878906 37.066406 393.71875 31.210938 C 393.058594 28.152344 392.234375 23.570312 390 18.691406 C 390 18.691406 395.273438 24.234375 398.597656 29.625 C 400.085938 32.039062 399.589844 35.296875 400.761719 36.023438 C 402.414062 37.015625 403.007812 34.371094 404.085938 32.882812 C 405.40625 30.898438 405.753906 29.046875 406.050781 27.96875 C 406.710938 25.605469 405.390625 25.621094 402.945312 21.371094 C 402.945312 21.371094 405.007812 20.378906 407.058594 21.039062 C 407.058594 21.039062 417.71875 7.363281 417.488281 4.851562 C 417.488281 4.851562 417.324219 0.5 416.167969 0.0390625 C 415.011719 -0.457031 425.804688 4.039062 423.96875 9.546875 C 423.96875 9.546875 417.289062 14.757812 412.695312 18.34375 C 410.613281 20 409.257812 21.4375 408.613281 21.652344 C 408.613281 21.652344 410.398438 21.765625 411.539062 22.148438 C 412.035156 22.3125 420.167969 17.734375 427.917969 14.625 C 436.976562 10.984375 445.859375 9.496094 443.523438 14.953125 C 441.871094 17.15625 430.613281 31.097656 425.171875 40.621094 C 423.355469 43.796875 422.097656 45.78125 422.59375 46.890625 C 422.925781 47.550781 424.246094 46.761719 425.519531 46.394531 C 431.222656 44.90625 443.203125 41.648438 443.203125 44.90625 C 443.203125 44.90625 443.109375 47.949219 440.941406 50.347656 C 439.785156 51.667969 437.867188 52.398438 435.601562 53.785156 C 431.816406 56.117188 423.980469 56.285156 419.304688 57.855469 C 415.484375 59.179688 411.617188 60.699219 407.816406 60.269531 C 407.71875 60.136719 409.550781 59.773438 412.261719 58.582031 C 417.4375 56.414062 426.046875 52.628906 432.105469 50.066406 C 436.355469 48.261719 437.710938 46.527344 437.445312 46.011719 C 437.117188 45.351562 433.859375 46.179688 430.222656 47.003906 C 425.546875 48 420.207031 49.4375 419.546875 50.609375 C 419.546875 50.609375 418.71875 51.4375 417.363281 52.265625 C 415.480469 53.421875 412.902344 54.035156 411.675781 52.59375 C 411.675781 52.59375 405.265625 54.878906 399.875 57.507812 C 397.910156 58.5 394.636719 60.367188 391.777344 63.246094 C 388.882812 66.140625 386.257812 70.835938 383.792969 73.617188 C 380.816406 76.988281 378.191406 78.148438 377.214844 77.484375 C 377.214844 77.484375 374.902344 76.492188 378.535156 69.761719 C 380.023438 66.949219 382.488281 62.933594 386.636719 57.625 C 386.636719 57.625 378.636719 69.449219 379.3125 73.121094 C 379.3125 73.121094 383.132812 69.710938 386.585938 66.089844 C 393.066406 59.328125 395.925781 57.324219 405.117188 52.894531 C 407.25 51.902344 409.167969 50.761719 410.804688 50.527344 C 410.144531 49.371094 410.679688 46.660156 409.648438 45.765625 C 408.492188 44.773438 407.152344 45.105469 406.40625 44.609375 C 404.921875 43.617188 404.574219 42.128906 403.78125 42.34375 C 402.292969 42.839844 401.25 44.722656 399.632812 46.707031 C 398.472656 48.03125 397.234375 49.933594 394.671875 50.296875 C 395.996094 48.527344 401.019531 42.359375 400.292969 39.746094 C 400.128906 39.085938 398.96875 38.917969 397.515625 38.917969 C 396.6875 38.875 395.730469 38.421875 394.605469 39.011719 Z M 412.351562 30.417969 C 413.011719 29.589844 414.632812 29.589844 414.996094 28.699219 C 415.988281 26.316406 413.507812 23.125 412.398438 23.902344 C 412.398438 23.902344 416.003906 21.933594 416.679688 23.074219 C 416.679688 23.074219 418.714844 25.671875 419.589844 28.398438 C 420.417969 30.816406 420.085938 33.34375 418.929688 34.304688 C 418.929688 34.304688 414.382812 38.242188 411.375 38.867188 C 410.878906 38.976562 410.546875 37.710938 410.21875 36.621094 C 410.089844 36.125 410.09375 35.460938 409.886719 35.296875 C 409.390625 35.175781 410.21875 38.820312 409.390625 39.199219 C 407.902344 39.859375 406.847656 39.363281 407.160156 37.710938 C 407.492188 36.386719 410.566406 32.75 412.300781 30.269531 Z M 437.320312 14.261719 C 438.3125 15.253906 437.488281 16.742188 435.835938 19.007812 C 434.183594 21.140625 432.429688 24.449219 430.363281 27.457031 C 422.726562 38.503906 416.460938 47.039062 413.644531 48.34375 C 412.652344 48.839844 412.652344 46.855469 411.992188 44.871094 C 411.660156 43.714844 411.164062 42.210938 411.496094 41.285156 C 411.828125 40.621094 413.148438 40.621094 414.71875 39.960938 C 415.875 39.464844 422.71875 36.539062 423.097656 35.941406 C 424.816406 33.3125 422.976562 29.34375 421.777344 26.8125 C 420.074219 23.007812 417.347656 22.464844 418.289062 21.472656 C 420.105469 19.550781 436.292969 13.269531 437.269531 14.328125 Z M 437.320312 14.261719 "/>
<path style=" stroke:none;fill-rule:evenodd;fill:rgb(78.823529%,16.862745%,18.431373%);fill-opacity:1;" d="M 94.960938 45.136719 C 94.960938 45.136719 90.8125 44.308594 93.09375 37.660156 C 93.09375 37.660156 94.417969 35.988281 95.242188 32.054688 C 95.738281 29.6875 96.234375 26.511719 95.90625 22.394531 C 95.90625 22.394531 97.0625 23.058594 98.019531 25.109375 C 98.679688 26.429688 98.679688 28.910156 99.175781 30.699219 C 99.507812 31.691406 99.671875 32.550781 100.5 32.75 C 100.996094 32.875 109.691406 27.785156 110.367188 27.191406 C 111.027344 26.53125 111.027344 25.867188 111.359375 25.074219 C 111.855469 23.75 112.515625 22.363281 112.847656 20.957031 C 113.507812 19.003906 114.167969 17.019531 114.5 14.605469 C 114.636719 13.28125 114.832031 11.878906 114.484375 10.40625 C 114.449219 10.269531 114.15625 10.238281 113.988281 10.074219 C 113.988281 10.074219 112.5 8.585938 112.996094 7.710938 C 113.328125 7.214844 113.824219 7.214844 114.699219 7.046875 C 118.453125 6.550781 122.105469 10.238281 123.246094 11.480469 C 124.238281 12.636719 123.574219 14.160156 123.140625 15.398438 C 122.480469 17.765625 120.347656 20.046875 120.347656 22.148438 C 120.347656 22.148438 121.171875 22.644531 122.347656 22.222656 C 124.429688 21.5625 126.726562 18.914062 128.496094 18.882812 C 129.652344 18.867188 130.5625 20.039062 131.355469 21.199219 C 132.179688 22.355469 133.800781 23.296875 134.082031 24.488281 C 134.742188 27.285156 126.394531 34.179688 123.785156 36.480469 C 122.132812 37.800781 120.660156 39.636719 119.1875 39.769531 C 118.527344 39.839844 118.527344 39.273438 118.199219 38.28125 C 117.703125 37.453125 116.710938 36.164062 116.710938 34.644531 C 116.710938 34.644531 117.535156 35.46875 118.777344 34.972656 C 120.265625 34.3125 123.503906 28.757812 124.445312 26.96875 C 124.941406 26.144531 125.4375 25.199219 125.4375 24.160156 C 125.476562 23.332031 124.609375 23.664062 123.785156 23.828125 C 122.460938 24.160156 120.445312 25.152344 118.460938 27.679688 C 117.46875 28.839844 116.480469 30.476562 115.75 32.164062 C 115.421875 32.988281 113.636719 38.894531 112.097656 43.0625 C 111.105469 45.558594 110.066406 47.144531 110.179688 47.378906 C 110.179688 47.378906 110.347656 48.039062 110.84375 48.039062 C 111.832031 47.90625 113.832031 47.046875 116.957031 46.121094 C 119.851562 45.128906 123.832031 43.988281 127.554688 42.484375 C 129.652344 41.65625 131.488281 40.300781 133.402344 39.753906 C 135.304688 39.257812 137.304688 39.421875 138.890625 39.917969 C 147.253906 42.996094 136.824219 47.808594 132.808594 47.988281 C 132.480469 48.007812 130.414062 48.484375 128.628906 48.816406 C 125.75 49.476562 125.402344 49.972656 127.304688 47.988281 C 127.636719 47.660156 127.636719 47.164062 128.132812 46.667969 C 128.132812 46.667969 121.949219 48.320312 117.074219 49.84375 C 113.949219 50.835938 110.660156 51.828125 110.59375 52.851562 C 110.59375 52.851562 112.082031 54.339844 113.4375 55.746094 C 116.394531 58.886719 116.675781 57.78125 115.125 61.320312 C 114.628906 62.644531 112.199219 67.886719 112.480469 69.207031 C 112.808594 70.367188 113.800781 70.035156 116.015625 71.855469 C 117.832031 73.507812 117.503906 74.582031 117.171875 75.59375 C 116.511719 77.246094 114.414062 78.765625 110.609375 77.082031 C 109.949219 76.75 109.453125 76.921875 109.125 76.992188 C 107.636719 77.324219 99.769531 87.261719 98.460938 88.667969 C 95.105469 92.273438 91.1875 95.515625 86.875 97.582031 C 77.933594 101.867188 71.023438 99.238281 70.941406 98.742188 C 70.925781 98.65625 70.28125 96.589844 70.78125 94.855469 C 70.949219 94.191406 71.113281 93.367188 71.445312 93.367188 C 72.105469 93.035156 73.757812 93.695312 75.574219 94.191406 C 78.402344 94.855469 81.757812 95.515625 83.3125 94.6875 C 88.46875 91.910156 93.164062 87.214844 96.832031 83.308594 C 100.171875 79.753906 102.714844 76.925781 103.144531 75.371094 C 103.296875 74.875 102.816406 74.546875 101.988281 74.378906 C 98.765625 73.554688 96.75 72.296875 96.371094 70.359375 C 95.875 67.597656 97.359375 64.226562 98.832031 61.378906 C 100.484375 58.15625 101.726562 55.476562 99.824219 55.941406 C 98.105469 56.269531 96.003906 57.644531 93.660156 58.652344 C 89.195312 60.585938 84.15625 62.71875 81.230469 64.292969 C 77.492188 66.308594 74.832031 68.308594 74.285156 68.789062 C 71.3125 71.371094 70.070312 72.394531 66.734375 65.597656 C 65.574219 63.183594 65.742188 62.472656 67.558594 61.859375 C 69.328125 61.199219 71.558594 61.933594 73.328125 61.199219 C 75.660156 60.371094 82.683594 56.933594 89.492188 54.46875 C 95.90625 52.152344 102.1875 50.730469 103.296875 49.574219 C 104.121094 48.582031 104.78125 47.472656 105.394531 46.148438 C 106.714844 43.222656 107.542969 39.484375 108.269531 35.382812 C 108.601562 33.894531 109.59375 32.222656 108.765625 32.058594 C 108.269531 31.957031 107.609375 32.886719 106.683594 33.382812 C 104.039062 34.871094 99.476562 39.417969 97.839844 41.867188 C 96.351562 44.046875 97.800781 43.519531 94.867188 44.992188 Z M 104.152344 61.992188 C 104.152344 61.992188 104.980469 57.578125 106.269531 55.742188 C 107.261719 54.253906 108.449219 55.246094 108.664062 56.566406 C 108.789062 57.394531 108.335938 57.890625 107.839844 59.113281 C 107.691406 59.445312 106.515625 61.53125 106.019531 63.644531 C 105.691406 64.96875 106.054688 67.136719 104.699219 67.996094 C 103.707031 68.65625 102.648438 67.980469 102.484375 66.671875 C 102.359375 65.679688 102.980469 64.125 104.203125 62.09375 Z M 104.152344 61.992188 "/>
<path style=" stroke:none;fill-rule:evenodd;fill:rgb(78.823529%,16.862745%,18.431373%);fill-opacity:1;" d="M 22.480469 39.007812 C 22.402344 39.007812 18.710938 40.863281 15.769531 40.730469 C 13.753906 40.636719 12.597656 39.40625 11.589844 35.601562 C 11.589844 35.601562 13.574219 35.527344 16.449219 34.445312 C 25.886719 31.105469 46.4375 22.933594 50.917969 18.652344 C 50.917969 18.652344 61.398438 19.644531 56.222656 24.503906 C 56.222656 24.503906 33.355469 35.949219 33.355469 37.851562 C 33.355469 37.851562 35.40625 34.3125 36.347656 31.714844 C 36.347656 31.714844 25.652344 35.882812 26.894531 37.238281 C 26.894531 37.238281 27.554688 37.734375 28.546875 38.230469 C 31.371094 39.390625 33.15625 40.449219 33.820312 41.96875 C 34.480469 43.292969 34.148438 45.046875 33.488281 47.640625 C 32.496094 52.089844 34.808594 50.949219 37.207031 48.800781 C 39.339844 46.882812 41.570312 44.316406 44.414062 45.144531 C 45.40625 45.476562 45.902344 46.46875 47.175781 47.824219 C 48 48.816406 49.191406 49.476562 49.191406 50.835938 C 49.191406 51.660156 48.363281 52.71875 47.503906 53.992188 C 46.183594 56.191406 43.125 62.34375 40.199219 67.753906 C 39.207031 69.523438 38.132812 71.160156 37.238281 72.597656 C 35.472656 75.492188 33.753906 78.089844 30.25 74.699219 C 29.089844 73.542969 28.035156 71.789062 27.125 70.664062 C 25.390625 68.546875 25.023438 68.992188 24.035156 71.160156 C 23.703125 71.820312 23.703125 73.027344 23.371094 73.574219 C 22.710938 74.566406 22.050781 74.898438 21.539062 75.691406 C 21.207031 76.1875 21.621094 76.847656 22.363281 77.179688 C 23.519531 77.675781 25.605469 77.511719 27.40625 77.511719 C 29.058594 77.492188 30.464844 77.589844 30.746094 77.675781 C 32.496094 78.335938 32.644531 80.074219 31.074219 81.28125 C 30.414062 81.777344 29.585938 82.4375 28.414062 83.332031 C 28.082031 83.664062 26.925781 84.65625 25.851562 85.050781 C 24.695312 85.382812 24.035156 85.382812 23.882812 85.382812 C 23.882812 85.382812 25.769531 83.644531 25.882812 83.429688 C 27.042969 81.3125 25.058594 81.3125 23.539062 81.679688 C 21.421875 82.175781 19.191406 83.167969 18 82.175781 C 16.679688 81.015625 17.007812 78.75 17.667969 76.601562 C 17.835938 75.9375 20.148438 71.472656 19.15625 71.191406 C 18.496094 71.039062 17.15625 70.863281 16.183594 70.199219 C 15.6875 69.871094 15.519531 68.347656 14.695312 67.15625 C 14.035156 66.332031 13.207031 67.191406 9.6875 69.6875 C 7.636719 71.175781 5.667969 72.484375 5.042969 72.433594 C 5.042969 72.433594 5.539062 74.484375 6.199219 76.78125 C 6.859375 78.800781 7.851562 81.097656 7.6875 83.117188 C 7.605469 84.273438 7.023438 85.117188 6.363281 85.863281 C 5.703125 86.6875 4.875 87.183594 3.785156 87.019531 C -2.050781 86.027344 0.230469 73.308594 1.667969 68.335938 C 2 67.011719 2 65.757812 2.496094 65.957031 C 2.828125 66.085938 2.992188 66.949219 3.324219 68.007812 C 3.652344 69.328125 3.652344 70.734375 4.480469 70.769531 C 5.140625 70.792969 8.496094 68.335938 11.140625 66.335938 C 12.792969 65.179688 14 64.21875 14.296875 63.773438 C 14.792969 63.109375 14.464844 62.285156 14.453125 60.050781 C 14.421875 59.058594 14.285156 51.78125 14.949219 51.1875 C 15.277344 50.855469 16.269531 52.011719 17.292969 53.898438 C 17.957031 55.054688 18.617188 56.695312 19.394531 57.570312 C 20.054688 58.230469 20.882812 58.398438 21.660156 58.230469 C 20.996094 58.375 24.304688 58.285156 26.21875 55.421875 C 27.378906 53.699219 27.210938 50.425781 27.542969 47.199219 C 28.203125 42.4375 22.46875 38.882812 22.402344 38.882812 Z M 30.796875 62.523438 C 30.796875 62.523438 35.421875 57.511719 35.125 55.328125 C 38.496094 51.886719 40.117188 51.109375 40.464844 51.839844 C 40.796875 52.335938 40.132812 53.839844 39.472656 55.542969 C 38.8125 57.460938 37.984375 59.695312 37.339844 61.316406 C 36.515625 63.5625 36.019531 66.359375 34.019531 67.8125 C 30.449219 70.476562 27.574219 66.65625 30.828125 62.523438 Z M 30.796875 62.523438 "/>
<path style=" stroke:none;fill-rule:evenodd;fill:rgb(78.823529%,16.862745%,18.431373%);fill-opacity:1;" d="M 1.292969 124.652344 C 2.410156 124.742188 3.199219 124.785156 3.679688 124.785156 C 4.121094 124.785156 4.902344 124.742188 6.007812 124.652344 C 6.453125 125.410156 6.929688 126.191406 7.457031 127 C 7.980469 127.804688 8.605469 128.769531 9.335938 129.890625 C 9.859375 129.21875 10.480469 128.394531 11.207031 127.425781 C 11.929688 126.453125 12.621094 125.527344 13.261719 124.652344 C 13.902344 124.742188 14.339844 124.785156 14.574219 124.785156 C 15.085938 124.785156 15.523438 124.742188 15.882812 124.652344 L 15.882812 124.792969 L 13.390625 127.613281 C 13.046875 128.007812 12.707031 128.398438 12.367188 128.792969 C 12.023438 129.1875 11.683594 129.582031 11.335938 129.972656 C 10.996094 130.371094 10.652344 130.765625 10.3125 131.160156 L 10.679688 131.660156 C 11.117188 132.296875 11.5625 132.953125 12.015625 133.613281 C 12.476562 134.277344 12.914062 134.914062 13.332031 135.523438 C 13.746094 136.132812 14.171875 136.769531 14.605469 137.441406 C 15.042969 138.109375 15.460938 138.777344 15.839844 139.421875 C 15.582031 139.410156 15.203125 139.394531 14.703125 139.367188 C 14.207031 139.339844 13.820312 139.324219 13.554688 139.324219 C 13.296875 139.324219 12.90625 139.339844 12.394531 139.367188 C 11.882812 139.394531 11.5 139.410156 11.261719 139.421875 C 10.898438 138.8125 10.40625 138.039062 9.796875 137.097656 C 9.183594 136.160156 8.507812 135.121094 7.769531 133.980469 L 5.316406 137.066406 L 4.210938 138.691406 C 4.128906 138.824219 4.035156 138.953125 3.925781 139.085938 C 3.816406 139.21875 3.734375 139.328125 3.679688 139.421875 C 2.941406 139.355469 2.542969 139.324219 2.492188 139.324219 C 2 139.324219 1.554688 139.355469 1.136719 139.421875 C 1.625 138.832031 2.457031 137.828125 3.632812 136.417969 C 4.8125 135.011719 5.851562 133.746094 6.753906 132.617188 Z M 25.785156 127.546875 C 25.769531 128.011719 25.734375 128.679688 25.695312 129.566406 C 25.640625 130.445312 25.613281 131.175781 25.613281 131.753906 C 25.613281 132.378906 25.640625 133.15625 25.695312 134.085938 C 25.734375 135.019531 25.769531 135.738281 25.785156 136.234375 C 25.796875 136.601562 25.832031 137.132812 25.882812 137.839844 C 25.933594 138.550781 25.96875 139.082031 25.984375 139.421875 C 25.757812 139.410156 25.410156 139.394531 24.929688 139.367188 C 24.460938 139.339844 24.109375 139.324219 23.894531 139.324219 C 23.09375 139.324219 22.300781 139.355469 21.523438 139.421875 C 21.769531 137.109375 21.890625 134.464844 21.890625 131.492188 L 21.890625 130.335938 C 21.890625 129.871094 21.882812 129.367188 21.871094 128.824219 C 21.851562 128.289062 21.84375 127.867188 21.84375 127.578125 C 21.789062 126.3125 21.722656 125.339844 21.648438 124.652344 C 22.691406 124.742188 23.414062 124.785156 23.808594 124.785156 C 24.214844 124.785156 24.9375 124.742188 25.984375 124.652344 C 25.875 125.9375 25.8125 126.90625 25.785156 127.546875 Z M 35.578125 126.246094 C 35.363281 126.292969 35.1875 126.3125 35.050781 126.3125 C 34.585938 126.3125 34.132812 126.167969 33.699219 125.882812 C 33.308594 125.601562 33.117188 125.214844 33.117188 124.714844 C 33.117188 123.960938 33.472656 123.464844 34.191406 123.226562 C 34.523438 123.117188 34.902344 123.058594 35.296875 123.058594 C 36.136719 123.058594 36.75 123.324219 37.140625 123.855469 C 37.359375 124.222656 37.46875 124.621094 37.46875 125.046875 C 37.46875 126.167969 37.03125 127.144531 36.15625 127.972656 C 35.453125 128.609375 34.585938 129.007812 33.570312 129.164062 L 33.570312 128.269531 C 34.066406 128.183594 34.558594 127.894531 35.050781 127.402344 C 35.398438 127.070312 35.578125 126.683594 35.578125 126.246094 Z M 34.824219 139.261719 L 36.785156 135.574219 C 39.058594 131.355469 40.902344 127.683594 42.316406 124.554688 C 42.410156 124.558594 42.519531 124.570312 42.644531 124.585938 C 42.765625 124.605469 42.890625 124.621094 43.019531 124.632812 C 43.148438 124.648438 43.257812 124.652344 43.347656 124.652344 C 43.488281 124.652344 43.65625 124.640625 43.824219 124.613281 C 44.003906 124.59375 44.164062 124.570312 44.324219 124.554688 L 44.535156 124.917969 C 46.726562 129.605469 49.050781 134.292969 51.503906 138.992188 L 51.660156 139.21875 L 51.660156 139.421875 C 51.398438 139.410156 51.015625 139.394531 50.519531 139.367188 C 50.019531 139.339844 49.636719 139.324219 49.371094 139.324219 C 48.625 139.324219 47.886719 139.355469 47.15625 139.421875 C 46.394531 137.449219 45.769531 135.972656 45.308594 135.007812 C 44.980469 135.007812 44.488281 134.996094 43.839844 134.976562 C 43.183594 134.953125 42.691406 134.941406 42.355469 134.941406 C 41.667969 134.941406 40.59375 134.964844 39.125 135.007812 L 39.003906 135.308594 C 38.703125 135.984375 38.394531 136.679688 38.078125 137.402344 C 37.757812 138.121094 37.515625 138.796875 37.324219 139.421875 C 36.921875 139.355469 36.496094 139.324219 36.054688 139.324219 C 35.648438 139.324219 35.238281 139.355469 34.824219 139.421875 Z M 39.816406 133.707031 L 44.699219 133.707031 C 44.121094 132.390625 43.320312 130.710938 42.316406 128.667969 C 41.367188 130.429688 40.566406 132.042969 39.90625 133.515625 Z M 59.527344 139.390625 C 59.15625 139.34375 58.800781 139.324219 58.476562 139.324219 C 58.0625 139.324219 57.652344 139.355469 57.242188 139.421875 C 57.429688 137.878906 57.558594 136.269531 57.632812 134.605469 C 57.703125 132.933594 57.734375 131.121094 57.734375 129.167969 C 57.734375 128.78125 57.730469 128.203125 57.714844 127.429688 C 57.703125 126.660156 57.695312 126.074219 57.695312 125.683594 C 57.695312 125.238281 57.679688 124.898438 57.652344 124.652344 C 58.234375 124.742188 58.628906 124.785156 58.84375 124.785156 C 59.082031 124.785156 59.492188 124.742188 60.066406 124.652344 C 61.121094 125.59375 62.113281 126.460938 63.027344 127.265625 C 63.949219 128.0625 64.980469 128.953125 66.109375 129.9375 C 67.242188 130.921875 68.210938 131.761719 69.011719 132.46875 C 69.8125 133.171875 70.6875 133.964844 71.636719 134.84375 L 71.636719 127.675781 C 71.636719 127.320312 71.605469 126.867188 71.558594 126.324219 C 71.511719 125.777344 71.476562 125.367188 71.464844 125.089844 L 71.421875 124.652344 C 72.003906 124.742188 72.398438 124.785156 72.613281 124.785156 C 72.789062 124.785156 73.003906 124.769531 73.246094 124.742188 C 73.492188 124.714844 73.691406 124.691406 73.839844 124.679688 C 73.785156 125.222656 73.757812 125.621094 73.757812 125.882812 C 73.65625 126.925781 73.582031 127.835938 73.546875 128.601562 C 73.53125 129.054688 73.527344 129.425781 73.511719 129.703125 C 73.492188 129.992188 73.472656 130.335938 73.449219 130.726562 C 73.429688 131.125 73.417969 131.496094 73.410156 131.839844 C 73.398438 132.175781 73.390625 132.457031 73.390625 132.691406 L 73.390625 139.421875 C 73.335938 139.402344 73.238281 139.390625 73.101562 139.390625 C 72.933594 139.367188 72.6875 139.355469 72.367188 139.355469 C 71.875 139.355469 71.5 139.378906 71.226562 139.421875 C 67.972656 136.328125 65.058594 133.6875 62.484375 131.492188 L 59.605469 129.035156 C 59.550781 130.363281 59.527344 131.324219 59.527344 131.914062 L 59.527344 133.914062 C 59.527344 136.371094 59.585938 138.207031 59.695312 139.421875 Z M 86.359375 141.84375 C 87.636719 141.636719 88.320312 140.972656 88.414062 139.855469 C 88.515625 138.792969 88.570312 137.59375 88.570312 136.234375 C 88.570312 135.800781 88.578125 135.152344 88.589844 134.292969 C 88.605469 133.4375 88.609375 132.800781 88.609375 132.390625 C 88.609375 132.070312 88.617188 131.589844 88.632812 130.945312 C 88.644531 130.289062 88.652344 129.804688 88.652344 129.464844 C 88.652344 129.222656 88.644531 128.867188 88.632812 128.398438 C 88.617188 127.929688 88.609375 127.574219 88.609375 127.339844 C 88.585938 127.042969 88.558594 126.589844 88.53125 125.992188 C 88.503906 125.390625 88.472656 124.945312 88.445312 124.652344 C 89.554688 124.742188 90.292969 124.785156 90.660156 124.785156 C 91.140625 124.785156 91.875 124.742188 92.867188 124.652344 C 92.765625 125.898438 92.695312 126.828125 92.667969 127.441406 C 92.640625 128.015625 92.628906 128.894531 92.628906 130.0625 C 92.59375 130.246094 92.582031 130.503906 92.582031 130.859375 C 92.582031 131.417969 92.59375 132.203125 92.628906 133.214844 C 92.652344 134.234375 92.667969 135.109375 92.667969 135.84375 L 92.667969 137.160156 C 92.667969 138.585938 92.394531 139.664062 91.851562 140.386719 C 90.804688 141.808594 89.113281 142.625 86.765625 142.839844 Z M 103.996094 127.546875 C 103.984375 128.011719 103.949219 128.679688 103.90625 129.566406 C 103.855469 130.445312 103.824219 131.175781 103.824219 131.753906 C 103.824219 132.378906 103.855469 133.15625 103.90625 134.085938 C 103.949219 135.019531 103.984375 135.738281 103.996094 136.234375 C 104.011719 136.601562 104.046875 137.132812 104.09375 137.839844 C 104.144531 138.550781 104.179688 139.082031 104.195312 139.421875 C 103.96875 139.410156 103.621094 139.394531 103.144531 139.367188 C 102.671875 139.339844 102.324219 139.324219 102.105469 139.324219 C 101.304688 139.324219 100.515625 139.355469 99.734375 139.421875 C 99.980469 137.109375 100.101562 134.464844 100.101562 131.492188 L 100.101562 130.335938 C 100.101562 129.871094 100.097656 129.367188 100.082031 128.824219 C 100.0625 128.289062 100.058594 127.867188 100.058594 127.578125 C 100 126.3125 99.933594 125.339844 99.859375 124.652344 C 100.90625 124.742188 101.628906 124.785156 102.023438 124.785156 C 102.425781 124.785156 103.152344 124.742188 104.195312 124.652344 C 104.085938 125.9375 104.023438 126.90625 103.996094 127.546875 Z M 109.789062 139.261719 L 111.746094 135.574219 C 114.023438 131.355469 115.867188 127.683594 117.277344 124.554688 C 117.375 124.558594 117.484375 124.570312 117.605469 124.585938 C 117.730469 124.605469 117.855469 124.621094 117.980469 124.632812 C 118.113281 124.648438 118.222656 124.652344 118.308594 124.652344 C 118.453125 124.652344 118.617188 124.640625 118.789062 124.613281 C 118.964844 124.59375 119.128906 124.570312 119.285156 124.554688 L 119.5 124.917969 C 121.691406 129.605469 124.015625 134.292969 126.46875 138.992188 L 126.621094 139.21875 L 126.621094 139.421875 C 126.363281 139.410156 125.980469 139.394531 125.480469 139.367188 C 124.984375 139.339844 124.601562 139.324219 124.335938 139.324219 C 123.589844 139.324219 122.851562 139.355469 122.121094 139.421875 C 121.359375 137.449219 120.734375 135.972656 120.269531 135.007812 C 119.941406 135.007812 119.453125 134.996094 118.800781 134.976562 C 118.148438 134.953125 117.65625 134.941406 117.320312 134.941406 C 116.628906 134.941406 115.558594 134.964844 114.089844 135.007812 L 113.96875 135.308594 C 113.667969 135.984375 113.359375 136.679688 113.042969 137.402344 C 112.722656 138.121094 112.476562 138.796875 112.285156 139.421875 C 111.882812 139.355469 111.460938 139.324219 111.015625 139.324219 C 110.613281 139.324219 110.203125 139.355469 109.789062 139.421875 Z M 114.777344 133.707031 L 119.660156 133.707031 C 119.082031 132.390625 118.285156 130.710938 117.277344 128.667969 C 116.328125 130.429688 115.53125 132.042969 114.867188 133.515625 Z M 148.320312 137.796875 C 146.359375 139.144531 143.90625 139.820312 140.976562 139.820312 C 137.917969 139.820312 135.5 139.101562 133.722656 137.664062 C 131.976562 136.296875 131.101562 134.449219 131.101562 132.121094 C 131.101562 129.734375 132.152344 127.8125 134.261719 126.339844 C 136.253906 125.011719 138.695312 124.351562 141.59375 124.351562 C 144.042969 124.351562 146.101562 124.835938 147.777344 125.816406 C 149.175781 126.628906 150.128906 127.558594 150.648438 128.601562 C 151.195312 129.652344 151.46875 130.792969 151.46875 132.027344 C 151.46875 133.128906 151.195312 134.183594 150.652344 135.191406 C 150.109375 136.203125 149.332031 137.074219 148.320312 137.796875 Z M 145.894531 136.066406 C 146.667969 134.902344 147.046875 133.421875 147.046875 131.617188 C 147.046875 130.640625 146.851562 129.679688 146.453125 128.757812 C 146.058594 127.835938 145.4375 127.082031 144.585938 126.496094 C 143.734375 125.910156 142.683594 125.617188 141.421875 125.617188 C 140.253906 125.617188 139.253906 125.859375 138.429688 126.347656 C 137.605469 126.820312 136.972656 127.417969 136.554688 128.132812 C 135.867188 129.265625 135.527344 130.804688 135.527344 132.75 C 135.527344 133.746094 135.71875 134.683594 136.105469 135.554688 C 136.496094 136.429688 137.113281 137.144531 137.949219 137.695312 C 138.792969 138.246094 139.84375 138.519531 141.101562 138.519531 C 143.128906 138.519531 144.726562 137.703125 145.894531 136.066406 Z M 164.554688 127.835938 C 164.554688 128.441406 164.539062 129.339844 164.511719 130.535156 C 164.484375 131.730469 164.46875 132.625 164.46875 133.214844 C 164.46875 133.515625 164.476562 133.96875 164.488281 134.578125 C 164.503906 135.183594 164.511719 135.648438 164.511719 135.972656 C 164.511719 136.339844 164.53125 136.917969 164.574219 137.695312 C 164.613281 138.476562 164.632812 139.050781 164.632812 139.421875 C 164.425781 139.410156 164.082031 139.394531 163.589844 139.367188 C 163.089844 139.339844 162.714844 139.324219 162.460938 139.324219 C 162.230469 139.324219 161.875 139.339844 161.394531 139.367188 C 160.910156 139.394531 160.550781 139.410156 160.296875 139.421875 C 160.3125 139.074219 160.339844 138.566406 160.382812 137.882812 C 160.433594 137.203125 160.453125 136.695312 160.453125 136.371094 C 160.570312 133.277344 160.625 130.832031 160.625 129.035156 C 160.625 128.398438 160.597656 127.480469 160.542969 126.28125 C 160.023438 126.28125 159.246094 126.300781 158.199219 126.347656 C 157.203125 126.417969 156.339844 126.5 155.617188 126.578125 C 155.699219 126.378906 155.742188 126.082031 155.742188 125.683594 C 155.742188 125.328125 155.726562 125.078125 155.699219 124.917969 C 155.6875 124.898438 155.671875 124.851562 155.660156 124.785156 C 155.644531 124.71875 155.628906 124.675781 155.617188 124.652344 C 156.5 124.695312 157.167969 124.714844 157.625 124.714844 C 159.550781 124.765625 161.164062 124.785156 162.460938 124.785156 L 165.214844 124.785156 C 165.671875 124.785156 166.339844 124.765625 167.210938 124.71875 C 168.074219 124.675781 168.785156 124.652344 169.347656 124.652344 C 169.261719 124.953125 169.230469 125.238281 169.230469 125.523438 C 169.230469 125.859375 169.261719 126.214844 169.347656 126.578125 C 167.769531 126.378906 166.191406 126.28125 164.632812 126.28125 Z M 191.050781 137.796875 C 189.089844 139.144531 186.636719 139.820312 183.707031 139.820312 C 180.648438 139.820312 178.230469 139.101562 176.453125 137.664062 C 174.703125 136.296875 173.832031 134.449219 173.832031 132.121094 C 173.832031 129.734375 174.882812 127.8125 176.992188 126.339844 C 178.980469 125.011719 181.425781 124.351562 184.320312 124.351562 C 186.773438 124.351562 188.832031 124.835938 190.507812 125.816406 C 191.902344 126.628906 192.859375 127.558594 193.378906 128.601562 C 193.925781 129.652344 194.199219 130.792969 194.199219 132.027344 C 194.199219 133.128906 193.925781 134.183594 193.382812 135.191406 C 192.839844 136.203125 192.058594 137.074219 191.050781 137.796875 Z M 188.625 136.066406 C 189.394531 134.902344 189.777344 133.421875 189.777344 131.617188 C 189.777344 130.640625 189.578125 129.679688 189.183594 128.757812 C 188.789062 127.835938 188.167969 127.082031 187.3125 126.496094 C 186.464844 125.910156 185.414062 125.617188 184.148438 125.617188 C 182.984375 125.617188 181.984375 125.859375 181.15625 126.347656 C 180.332031 126.820312 179.703125 127.417969 179.28125 128.132812 C 178.597656 129.265625 178.257812 130.804688 178.257812 132.75 C 178.257812 133.746094 178.449219 134.683594 178.835938 135.554688 C 179.226562 136.429688 179.84375 137.144531 180.679688 137.695312 C 181.523438 138.246094 182.574219 138.519531 183.828125 138.519531 C 185.859375 138.519531 187.457031 137.703125 188.625 136.066406 Z M 202.269531 139.390625 C 201.898438 139.34375 201.542969 139.324219 201.21875 139.324219 C 200.808594 139.324219 200.394531 139.355469 199.984375 139.421875 C 200.171875 137.878906 200.300781 136.269531 200.375 134.605469 C 200.445312 132.933594 200.480469 131.121094 200.480469 129.167969 C 200.480469 128.78125 200.472656 128.203125 200.457031 127.429688 C 200.445312 126.660156 200.4375 126.074219 200.4375 125.683594 C 200.4375 125.238281 200.425781 124.898438 200.394531 124.652344 C 200.976562 124.742188 201.371094 124.785156 201.585938 124.785156 C 201.824219 124.785156 202.234375 124.742188 202.808594 124.652344 C 203.867188 125.59375 204.855469 126.460938 205.769531 127.265625 C 206.695312 128.0625 207.726562 128.953125 208.851562 129.9375 C 209.984375 130.921875 210.957031 131.761719 211.753906 132.46875 C 212.554688 133.171875 213.429688 133.964844 214.378906 134.84375 L 214.378906 127.675781 C 214.378906 127.320312 214.351562 126.867188 214.304688 126.324219 C 214.253906 125.777344 214.222656 125.367188 214.207031 125.089844 L 214.167969 124.652344 C 214.746094 124.742188 215.144531 124.785156 215.355469 124.785156 C 215.53125 124.785156 215.746094 124.769531 215.988281 124.742188 C 216.234375 124.714844 216.433594 124.691406 216.585938 124.679688 C 216.527344 125.222656 216.5 125.621094 216.5 125.882812 C 216.402344 126.925781 216.324219 127.835938 216.289062 128.601562 C 216.273438 129.054688 216.269531 129.425781 216.253906 129.703125 C 216.234375 129.992188 216.214844 130.335938 216.195312 130.726562 C 216.171875 131.125 216.160156 131.496094 216.152344 131.839844 C 216.140625 132.175781 216.132812 132.457031 216.132812 132.691406 L 216.132812 139.421875 C 216.082031 139.402344 215.984375 139.390625 215.847656 139.390625 C 215.675781 139.367188 215.429688 139.355469 215.109375 139.355469 C 214.617188 139.355469 214.242188 139.378906 213.96875 139.421875 C 210.714844 136.328125 207.800781 133.6875 205.226562 131.492188 L 202.351562 129.035156 C 202.296875 130.363281 202.269531 131.324219 202.269531 131.914062 L 202.269531 133.914062 C 202.269531 136.371094 202.328125 138.207031 202.4375 139.421875 Z M 238.9375 127.90625 C 237.714844 126.488281 235.964844 125.78125 233.691406 125.78125 C 231.503906 125.78125 229.757812 126.546875 228.4375 128.066406 C 227.460938 129.25 226.96875 130.734375 226.96875 132.519531 C 226.96875 133.425781 227.175781 134.316406 227.578125 135.203125 C 227.980469 136.082031 228.570312 136.777344 229.339844 137.300781 C 229.824219 137.613281 230.234375 137.828125 230.5625 137.945312 C 230.890625 138.066406 231.390625 138.195312 232.050781 138.328125 C 232.652344 138.414062 233.117188 138.460938 233.445312 138.460938 C 233.921875 138.460938 234.523438 138.40625 235.25 138.292969 C 235.355469 138.292969 235.554688 138.265625 235.828125 138.207031 C 236.109375 138.152344 236.265625 138.101562 236.316406 138.0625 C 236.328125 138.050781 236.339844 138.011719 236.355469 137.949219 C 236.367188 137.890625 236.382812 137.855469 236.394531 137.855469 L 236.394531 136.203125 C 236.394531 135.390625 236.339844 134.273438 236.222656 132.851562 C 236.886719 132.917969 237.554688 132.953125 238.234375 132.953125 C 238.964844 132.953125 239.671875 132.917969 240.363281 132.851562 C 240.234375 133.847656 240.167969 135.019531 240.167969 136.371094 C 240.167969 136.921875 240.191406 137.730469 240.246094 138.792969 C 237.46875 139.410156 235.144531 139.722656 233.289062 139.722656 C 231.859375 139.722656 230.5 139.570312 229.214844 139.277344 C 227.933594 138.984375 226.796875 138.539062 225.800781 137.929688 C 224.8125 137.324219 224.035156 136.5625 223.472656 135.648438 C 222.910156 134.730469 222.632812 133.671875 222.632812 132.453125 C 222.632812 131.164062 222.910156 130.015625 223.464844 129.007812 C 224.027344 127.996094 224.804688 127.15625 225.816406 126.476562 C 226.820312 125.796875 227.996094 125.289062 229.328125 124.957031 C 230.664062 124.621094 232.105469 124.453125 233.644531 124.453125 C 236.019531 124.453125 238.148438 124.886719 240.035156 125.742188 C 239.660156 126.679688 239.421875 127.398438 239.304688 127.90625 Z M 270.710938 127.804688 C 270.710938 128.03125 270.707031 128.386719 270.691406 128.867188 C 270.679688 129.34375 270.671875 129.703125 270.671875 129.9375 C 270.671875 130.199219 270.660156 130.59375 270.632812 131.125 C 270.605469 131.65625 270.589844 132.054688 270.589844 132.316406 C 270.535156 133.980469 270.359375 135.261719 270.058594 136.167969 C 269.757812 137.074219 268.992188 137.867188 267.757812 138.558594 C 266.457031 139.3125 264.777344 139.6875 262.714844 139.6875 C 261.5625 139.6875 260.46875 139.578125 259.429688 139.351562 C 258.394531 139.128906 257.484375 138.746094 256.699219 138.210938 C 255.914062 137.675781 255.367188 136.957031 255.050781 136.066406 C 254.949219 135.820312 254.867188 135.441406 254.8125 134.910156 C 254.757812 134.597656 254.730469 134.105469 254.730469 133.421875 C 254.730469 132.976562 254.726562 132.503906 254.710938 131.980469 C 254.691406 131.472656 254.683594 131.0625 254.683594 130.761719 L 254.683594 128.039062 C 254.683594 127.773438 254.675781 127.363281 254.664062 126.8125 C 254.648438 126.25 254.640625 125.84375 254.640625 125.582031 C 254.640625 125.488281 254.636719 125.332031 254.621094 125.128906 C 254.609375 124.925781 254.601562 124.765625 254.601562 124.652344 C 255.652344 124.742188 256.382812 124.785156 256.8125 124.785156 C 257.25 124.785156 257.960938 124.742188 258.945312 124.652344 C 258.945312 124.765625 258.925781 124.933594 258.898438 125.171875 C 258.863281 125.410156 258.835938 125.589844 258.820312 125.714844 C 258.695312 127.597656 258.625 129.277344 258.625 130.761719 C 258.625 132.726562 258.679688 134.085938 258.78125 134.84375 C 258.945312 135.476562 259.113281 135.964844 259.285156 136.304688 C 259.464844 136.640625 259.78125 136.972656 260.214844 137.300781 C 261.019531 137.917969 262.039062 138.230469 263.261719 138.230469 C 264.492188 138.230469 265.46875 138.023438 266.207031 137.621094 C 266.941406 137.214844 267.550781 136.550781 268.015625 135.632812 C 268.316406 134.992188 268.464844 133.5 268.464844 131.160156 C 268.464844 128.265625 268.398438 126.097656 268.253906 124.652344 C 268.898438 124.742188 269.339844 124.785156 269.597656 124.785156 C 269.867188 124.785156 270.324219 124.742188 270.960938 124.652344 C 270.933594 124.808594 270.90625 125.023438 270.878906 125.296875 C 270.855469 125.570312 270.828125 125.859375 270.808594 126.164062 C 270.789062 126.46875 270.777344 126.726562 270.769531 126.941406 C 270.753906 127.160156 270.734375 127.449219 270.710938 127.804688 Z M 280.347656 139.390625 C 279.980469 139.34375 279.625 139.324219 279.296875 139.324219 C 278.886719 139.324219 278.476562 139.355469 278.066406 139.421875 C 278.253906 137.878906 278.378906 136.269531 278.457031 134.605469 C 278.523438 132.933594 278.558594 131.121094 278.558594 129.167969 C 278.558594 128.78125 278.550781 128.203125 278.539062 127.429688 C 278.523438 126.660156 278.515625 126.074219 278.515625 125.683594 C 278.515625 125.238281 278.503906 124.898438 278.476562 124.652344 C 279.054688 124.742188 279.453125 124.785156 279.664062 124.785156 C 279.902344 124.785156 280.3125 124.742188 280.890625 124.652344 C 281.945312 125.59375 282.9375 126.460938 283.851562 127.265625 C 284.773438 128.0625 285.804688 128.953125 286.933594 129.9375 C 288.066406 130.921875 289.035156 131.761719 289.835938 132.46875 C 290.632812 133.171875 291.507812 133.964844 292.460938 134.84375 L 292.460938 127.675781 C 292.460938 127.320312 292.429688 126.867188 292.382812 126.324219 C 292.332031 125.777344 292.300781 125.367188 292.289062 125.089844 L 292.246094 124.652344 C 292.824219 124.742188 293.222656 124.785156 293.433594 124.785156 C 293.613281 124.785156 293.824219 124.769531 294.070312 124.742188 C 294.316406 124.714844 294.511719 124.691406 294.664062 124.679688 C 294.609375 125.222656 294.582031 125.621094 294.582031 125.882812 C 294.480469 126.925781 294.40625 127.835938 294.371094 128.601562 C 294.355469 129.054688 294.351562 129.425781 294.335938 129.703125 C 294.316406 129.992188 294.292969 130.335938 294.273438 130.726562 C 294.253906 131.125 294.242188 131.496094 294.234375 131.839844 C 294.222656 132.175781 294.210938 132.457031 294.210938 132.691406 L 294.210938 139.421875 C 294.160156 139.402344 294.0625 139.390625 293.925781 139.390625 C 293.753906 139.367188 293.511719 139.355469 293.191406 139.355469 C 292.695312 139.355469 292.320312 139.378906 292.046875 139.421875 C 288.796875 136.328125 285.878906 133.6875 283.304688 131.492188 L 280.429688 129.035156 C 280.375 130.363281 280.347656 131.324219 280.347656 131.914062 L 280.347656 133.914062 C 280.347656 136.371094 280.410156 138.207031 280.519531 139.421875 Z M 305.878906 127.546875 C 305.863281 128.011719 305.828125 128.679688 305.785156 129.566406 C 305.734375 130.445312 305.707031 131.175781 305.707031 131.753906 C 305.707031 132.378906 305.734375 133.15625 305.785156 134.085938 C 305.828125 135.019531 305.863281 135.738281 305.878906 136.234375 C 305.890625 136.601562 305.921875 137.132812 305.972656 137.839844 C 306.027344 138.550781 306.0625 139.082031 306.074219 139.421875 C 305.847656 139.410156 305.5 139.394531 305.023438 139.367188 C 304.550781 139.339844 304.203125 139.324219 303.984375 139.324219 C 303.183594 139.324219 302.394531 139.355469 301.613281 139.421875 C 301.859375 137.109375 301.984375 134.464844 301.984375 131.492188 L 301.984375 130.335938 C 301.984375 129.871094 301.976562 129.367188 301.960938 128.824219 C 301.941406 128.289062 301.933594 127.867188 301.933594 127.578125 C 301.878906 126.3125 301.8125 125.339844 301.738281 124.652344 C 302.78125 124.742188 303.503906 124.785156 303.902344 124.785156 C 304.304688 124.785156 305.03125 124.742188 306.074219 124.652344 C 305.964844 125.9375 305.902344 126.90625 305.878906 127.546875 Z M 321.460938 139.421875 C 321.335938 139.410156 321.144531 139.394531 320.878906 139.367188 C 320.613281 139.339844 320.40625 139.324219 320.265625 139.324219 C 319.847656 139.324219 319.453125 139.355469 319.074219 139.421875 C 318.050781 137.132812 316.921875 134.722656 315.695312 132.1875 C 314.472656 129.652344 313.214844 127.144531 311.945312 124.652344 C 313.050781 124.742188 313.832031 124.785156 314.289062 124.785156 C 314.746094 124.785156 315.523438 124.742188 316.617188 124.652344 C 317.027344 125.765625 317.476562 126.871094 317.964844 127.964844 C 318.449219 129.0625 319.019531 130.316406 319.6875 131.738281 C 320.351562 133.15625 320.921875 134.378906 321.378906 135.402344 C 323.445312 131.355469 325.105469 127.773438 326.371094 124.652344 C 326.445312 124.671875 326.507812 124.679688 326.546875 124.6875 C 326.589844 124.695312 326.625 124.703125 326.65625 124.714844 C 327.613281 124.714844 328.324219 124.691406 328.789062 124.652344 C 328.082031 125.996094 327.238281 127.636719 326.238281 129.566406 C 325.242188 131.492188 324.347656 133.273438 323.550781 134.902344 C 322.757812 136.539062 322.054688 138.046875 321.460938 139.421875 Z M 333.972656 124.652344 C 334.449219 124.664062 335.125 124.6875 336 124.726562 C 336.871094 124.765625 337.605469 124.785156 338.179688 124.785156 C 339.078125 124.785156 340.152344 124.769531 341.382812 124.738281 C 342.617188 124.707031 343.558594 124.691406 344.214844 124.679688 C 344.1875 125.042969 344.175781 125.570312 344.175781 126.28125 C 344.203125 126.347656 344.214844 126.433594 344.214844 126.546875 C 341.613281 126.367188 339.585938 126.28125 338.136719 126.28125 C 338.109375 126.789062 338.09375 127.542969 338.09375 128.542969 C 338.09375 128.808594 338.085938 129.199219 338.074219 129.730469 C 338.0625 130.261719 338.054688 130.660156 338.054688 130.921875 L 344.125 130.761719 C 344.019531 131.203125 343.964844 131.535156 343.964844 131.753906 C 343.964844 131.949219 344.019531 132.226562 344.125 132.585938 C 342.359375 132.476562 340.765625 132.421875 339.367188 132.421875 C 339.234375 132.421875 339.019531 132.414062 338.722656 132.402344 C 338.429688 132.390625 338.203125 132.390625 338.054688 132.390625 L 338.054688 137.855469 C 339.691406 137.855469 341.75 137.765625 344.214844 137.570312 C 344.1875 137.917969 344.175781 138.449219 344.175781 139.15625 C 344.203125 139.222656 344.214844 139.3125 344.214844 139.421875 C 343.683594 139.410156 342.882812 139.390625 341.8125 139.351562 C 340.746094 139.3125 339.945312 139.296875 339.414062 139.296875 C 339.058594 139.296875 338.527344 139.308594 337.824219 139.324219 C 337.113281 139.34375 336.59375 139.355469 336.257812 139.355469 C 335.765625 139.355469 334.972656 139.378906 333.878906 139.421875 C 333.894531 139.289062 333.914062 139.082031 333.929688 138.796875 C 333.941406 138.519531 333.957031 138.320312 333.972656 138.1875 C 333.984375 137.78125 334.003906 137.121094 334.039062 136.210938 C 334.074219 135.296875 334.085938 134.609375 334.085938 134.152344 C 334.085938 133.796875 334.09375 133.253906 334.109375 132.53125 C 334.121094 131.800781 334.128906 131.253906 334.128906 130.894531 L 334.128906 128.371094 C 334.128906 128 334.109375 127.429688 334.058594 126.660156 C 334.011719 125.898438 333.984375 125.328125 333.972656 124.953125 Z M 355.285156 133.847656 C 354.875 133.25 354.609375 132.886719 354.503906 132.75 C 354.4375 132.664062 354.371094 132.617188 354.292969 132.617188 C 354.210938 132.617188 354.171875 132.664062 354.171875 132.75 C 354.171875 133.171875 354.183594 133.804688 354.210938 134.660156 C 354.238281 135.511719 354.253906 136.148438 354.253906 136.566406 L 354.253906 137.160156 C 354.277344 137.742188 354.347656 138.492188 354.460938 139.421875 C 354.21875 139.410156 353.855469 139.394531 353.371094 139.367188 C 352.890625 139.339844 352.53125 139.324219 352.292969 139.324219 C 352.058594 139.324219 351.699219 139.339844 351.207031 139.367188 C 350.714844 139.394531 350.351562 139.410156 350.128906 139.421875 L 350.167969 139.023438 C 350.175781 138.859375 350.179688 138.683594 350.195312 138.492188 C 350.210938 138.3125 350.222656 138.160156 350.230469 138.0625 C 350.242188 137.957031 350.257812 137.808594 350.28125 137.597656 C 350.367188 136.675781 350.40625 135.25 350.40625 133.351562 C 350.40625 132.917969 350.398438 132.269531 350.386719 131.398438 C 350.375 130.515625 350.367188 129.863281 350.367188 129.433594 C 350.367188 128.417969 350.3125 126.828125 350.210938 124.652344 L 352.046875 124.714844 C 352.460938 124.714844 353.097656 124.703125 353.945312 124.679688 C 354.792969 124.664062 355.433594 124.652344 355.859375 124.652344 C 357.988281 124.652344 359.421875 124.796875 360.160156 125.089844 C 361.726562 125.820312 362.503906 126.871094 362.503906 128.242188 C 362.503906 129.265625 362.132812 130.113281 361.394531 130.78125 C 360.652344 131.453125 359.640625 131.894531 358.363281 132.121094 C 359.046875 133.117188 360.609375 135.140625 363.074219 138.1875 L 364.011719 139.421875 C 363.75 139.410156 363.351562 139.394531 362.804688 139.367188 C 362.257812 139.339844 361.851562 139.324219 361.59375 139.324219 C 360.808594 139.324219 360.003906 139.355469 359.183594 139.421875 L 356.109375 135.007812 Z M 354.253906 128.4375 L 354.253906 130.128906 C 354.253906 130.816406 354.238281 131.335938 354.210938 131.695312 C 355.664062 131.695312 356.71875 131.441406 357.375 130.933594 C 358.035156 130.421875 358.363281 129.648438 358.363281 128.601562 C 358.363281 128.183594 358.320312 127.816406 358.242188 127.511719 C 358.128906 127.09375 357.945312 126.765625 357.695312 126.535156 C 357.449219 126.308594 357.148438 126.148438 356.808594 126.058594 C 356.457031 125.976562 356.054688 125.925781 355.597656 125.914062 C 355.132812 125.90625 354.6875 125.894531 354.253906 125.882812 Z M 377.710938 127.574219 C 377.136719 126.351562 376.113281 125.742188 374.636719 125.742188 C 373.757812 125.742188 373.046875 125.929688 372.507812 126.3125 C 371.988281 126.699219 371.726562 127.199219 371.726562 127.800781 C 371.726562 128.3125 372 128.746094 372.539062 129.113281 C 373.085938 129.484375 373.941406 129.90625 375.113281 130.402344 C 376.28125 130.894531 377.210938 131.332031 377.894531 131.71875 C 378.578125 132.097656 379.0625 132.5625 379.351562 133.117188 C 379.648438 133.625 379.800781 134.269531 379.800781 135.035156 C 379.800781 135.695312 379.59375 136.371094 379.191406 137.0625 C 378.660156 137.949219 377.710938 138.648438 376.359375 139.152344 C 375.375 139.535156 374.171875 139.722656 372.757812 139.722656 C 371.097656 139.722656 369.664062 139.421875 368.457031 138.824219 C 368.847656 137.746094 369.097656 136.839844 369.226562 136.097656 L 369.726562 136.097656 C 369.933594 136.824219 370.367188 137.386719 371.023438 137.789062 C 371.6875 138.195312 372.476562 138.394531 373.40625 138.394531 C 374.28125 138.394531 375.019531 138.207031 375.621094 137.828125 C 376.226562 137.453125 376.527344 136.921875 376.527344 136.234375 C 376.527344 135.628906 376.203125 135.074219 375.539062 134.578125 C 374.691406 134.09375 373.695312 133.640625 372.546875 133.214844 C 372.21875 133.078125 371.824219 132.886719 371.351562 132.636719 C 370.878906 132.386719 370.574219 132.226562 370.417969 132.152344 C 369.828125 131.84375 369.386719 131.390625 369.078125 130.789062 C 368.769531 130.183594 368.613281 129.558594 368.613281 128.902344 C 368.613281 127.5 369.289062 126.375 370.628906 125.515625 C 371.242188 125.113281 371.859375 124.832031 372.484375 124.679688 C 373.113281 124.53125 373.871094 124.453125 374.757812 124.453125 C 376.296875 124.453125 377.628906 124.742188 378.742188 125.3125 C 378.761719 125.351562 378.824219 125.394531 378.9375 125.449219 C 378.660156 126.125 378.386719 126.832031 378.121094 127.574219 Z M 377.710938 127.574219 "/>
<path style=" stroke:none;fill-rule:evenodd;fill:rgb(78.823529%,16.862745%,18.431373%);fill-opacity:1;" d="M 389.816406 127.546875 C 389.804688 128.011719 389.769531 128.679688 389.726562 129.566406 C 389.675781 130.445312 389.644531 131.175781 389.644531 131.753906 C 389.644531 132.378906 389.675781 133.15625 389.726562 134.085938 C 389.769531 135.019531 389.804688 135.738281 389.816406 136.234375 C 389.828125 136.601562 389.863281 137.132812 389.914062 137.839844 C 389.964844 138.550781 390 139.082031 390.015625 139.421875 C 389.789062 139.410156 389.441406 139.394531 388.964844 139.367188 C 388.492188 139.339844 388.140625 139.324219 387.921875 139.324219 C 387.125 139.324219 386.332031 139.355469 385.554688 139.421875 C 385.800781 137.109375 385.921875 134.464844 385.921875 131.492188 L 385.921875 130.335938 C 385.921875 129.871094 385.917969 129.367188 385.902344 128.824219 C 385.882812 128.289062 385.875 127.867188 385.875 127.578125 C 385.820312 126.3125 385.753906 125.339844 385.675781 124.652344 C 386.722656 124.742188 387.445312 124.785156 387.84375 124.785156 C 388.246094 124.785156 388.96875 124.742188 390.015625 124.652344 C 389.90625 125.9375 389.84375 126.90625 389.816406 127.546875 Z M 404.65625 127.835938 C 404.65625 128.441406 404.644531 129.339844 404.617188 130.535156 C 404.585938 131.730469 404.574219 132.625 404.574219 133.214844 C 404.574219 133.515625 404.582031 133.96875 404.59375 134.578125 C 404.609375 135.183594 404.617188 135.648438 404.617188 135.972656 C 404.617188 136.339844 404.636719 136.917969 404.675781 137.695312 C 404.71875 138.476562 404.738281 139.050781 404.738281 139.421875 C 404.53125 139.410156 404.183594 139.394531 403.691406 139.367188 C 403.195312 139.339844 402.816406 139.324219 402.566406 139.324219 C 402.332031 139.324219 401.976562 139.339844 401.5 139.367188 C 401.015625 139.394531 400.65625 139.410156 400.402344 139.421875 C 400.414062 139.074219 400.441406 138.566406 400.488281 137.882812 C 400.535156 137.203125 400.558594 136.695312 400.558594 136.371094 C 400.675781 133.277344 400.726562 130.832031 400.726562 129.035156 C 400.726562 128.398438 400.699219 127.480469 400.644531 126.28125 C 400.128906 126.28125 399.347656 126.300781 398.304688 126.347656 C 397.308594 126.417969 396.445312 126.5 395.722656 126.578125 C 395.804688 126.378906 395.84375 126.082031 395.84375 125.683594 C 395.84375 125.328125 395.832031 125.078125 395.804688 124.917969 C 395.789062 124.898438 395.777344 124.851562 395.761719 124.785156 C 395.75 124.71875 395.734375 124.675781 395.722656 124.652344 C 396.601562 124.695312 397.273438 124.714844 397.730469 124.714844 C 399.65625 124.765625 401.269531 124.785156 402.566406 124.785156 L 405.320312 124.785156 C 405.773438 124.785156 406.445312 124.765625 407.3125 124.71875 C 408.179688 124.675781 408.890625 124.652344 409.449219 124.652344 C 409.367188 124.953125 409.335938 125.238281 409.335938 125.523438 C 409.335938 125.859375 409.367188 126.214844 409.449219 126.578125 C 407.871094 126.378906 406.292969 126.28125 404.738281 126.28125 Z M 415.910156 124.785156 C 416.394531 124.785156 417.1875 124.742188 418.277344 124.652344 C 418.460938 124.96875 418.644531 125.277344 418.839844 125.601562 C 419.023438 125.914062 419.207031 126.230469 419.386719 126.550781 C 419.65625 127.015625 420.066406 127.691406 420.613281 128.574219 C 420.867188 128.992188 421.234375 129.621094 421.730469 130.460938 C 422 130.867188 422.179688 131.097656 422.261719 131.160156 C 422.253906 131.160156 422.246094 131.152344 422.246094 131.148438 C 422.246094 131.121094 422.40625 130.976562 422.710938 130.726562 C 422.859375 130.539062 423.011719 130.316406 423.15625 130.0625 C 423.476562 129.605469 423.996094 128.753906 424.71875 127.511719 C 424.984375 127.097656 425.3125 126.507812 425.695312 125.75 C 425.796875 125.558594 425.910156 125.355469 426.035156 125.128906 C 426.160156 124.902344 426.25 124.75 426.3125 124.652344 C 426.339844 124.664062 426.386719 124.675781 426.449219 124.6875 C 426.515625 124.695312 426.5625 124.707031 426.597656 124.71875 C 426.796875 124.75 427.082031 124.757812 427.457031 124.757812 C 427.875 124.757812 428.324219 124.726562 428.808594 124.652344 C 428.332031 125.382812 427.453125 126.660156 426.167969 128.492188 C 424.882812 130.324219 423.921875 131.777344 423.277344 132.851562 C 423.222656 133.953125 423.195312 134.78125 423.195312 135.339844 C 423.195312 136.039062 423.292969 137.398438 423.492188 139.421875 C 423.242188 139.410156 422.859375 139.394531 422.347656 139.367188 C 421.835938 139.339844 421.449219 139.324219 421.1875 139.324219 C 420.429688 139.324219 419.675781 139.355469 418.933594 139.421875 C 419.132812 137.851562 419.226562 136.214844 419.226562 134.511719 C 419.253906 134.226562 419.269531 133.816406 419.269531 133.28125 C 418.761719 132.597656 418.285156 131.914062 417.835938 131.242188 C 417.375 130.574219 416.90625 129.863281 416.425781 129.117188 C 415.945312 128.371094 415.445312 127.589844 414.917969 126.765625 C 414.386719 125.949219 413.925781 125.238281 413.527344 124.652344 C 414.632812 124.742188 415.425781 124.785156 415.910156 124.785156 Z M 415.910156 124.785156 "/>
</g>
</svg>
