<?xml version="1.0" encoding="UTF-8" standalone="no"?>
<svg
   xmlns:dc="http://purl.org/dc/elements/1.1/"
   xmlns:cc="http://creativecommons.org/ns#"
   xmlns:rdf="http://www.w3.org/1999/02/22-rdf-syntax-ns#"
   xmlns:svg="http://www.w3.org/2000/svg"
   xmlns="http://www.w3.org/2000/svg"
   viewBox="0 0 266.66666 266.66666"
   height="266.66666"
   width="266.66666"
   xml:space="preserve"
   id="svg2"
   version="1.1"><metadata
     id="metadata8"><rdf:RDF><cc:Work
         rdf:about=""><dc:format>image/svg+xml</dc:format><dc:type
           rdf:resource="http://purl.org/dc/dcmitype/StillImage" /></cc:Work></rdf:RDF></metadata><defs
     id="defs6"><clipPath
       id="clipPath22"
       clipPathUnits="userSpaceOnUse"><path
         id="path20"
         d="M 0,200 H 200 V 0 H 0 Z" /></clipPath></defs><g
     transform="matrix(1.3333333,0,0,-1.3333333,0,266.66667)"
     id="g10"><g
       transform="translate(25.5988,121.7578)"
       id="g12"><path
         id="path14"
         style="fill:#122e66;fill-opacity:1;fill-rule:evenodd;stroke:none"
         d="m 0,0 2.184,-5.555 5.47,2.384 -2.384,-5.47 5.554,-2.182 -5.554,-2.184 2.384,-5.47 -5.47,2.383 -2.184,-5.552 -2.183,5.553 -5.469,-2.384 2.382,5.471 -5.553,2.183 5.554,2.182 -2.383,5.47 5.47,-2.383 z m 149.093,0 2.183,-5.555 5.47,2.384 -2.383,-5.47 5.553,-2.182 -5.554,-2.184 2.384,-5.47 -5.47,2.383 -2.183,-5.552 -2.183,5.553 -5.471,-2.384 2.384,5.471 -5.553,2.183 5.554,2.182 -2.385,5.47 5.471,-2.383" /></g><g
       id="g16"><g
         clip-path="url(#clipPath22)"
         id="g18"><g
           transform="translate(116.0908,184.1425)"
           id="g24"><path
             id="path26"
             style="fill:#122e66;fill-opacity:1;fill-rule:evenodd;stroke:none"
             d="m 0,0 c -0.085,-0.009 -0.181,-0.055 -0.271,-0.127 -0.098,-0.085 -0.1,-0.254 -0.015,-0.491 0.091,-0.68 0.09,-1.337 0,-1.969 -0.02,-0.533 -0.137,-1.234 -0.365,-2.095 -0.785,-2.988 -1.525,-5.284 -2.206,-6.905 -0.579,-1.591 -1.336,-3.102 -2.302,-4.508 -0.322,-0.446 -0.5,-0.883 -0.524,-1.301 -0.01,-0.709 0.053,-1.227 0.191,-1.54 0.155,-0.332 0.363,-0.387 0.619,-0.174 0.348,0.192 0.661,0.567 0.936,1.127 0.625,1.151 1.142,2.39 1.556,3.682 0.487,1.617 0.981,3.214 1.476,4.81 0.131,0.447 0.257,0.891 0.381,1.317 0.073,-0.021 0.145,-0.042 0.238,-0.047 0.653,-0.016 1.675,-0.158 3.063,-0.445 -0.002,-0.073 0.045,-0.216 0.127,-0.413 0.234,-0.666 0.6,-0.81 1.096,-0.428 0.381,0.255 0.635,0.567 0.762,0.936 0.323,0.913 0.672,1.866 1.047,2.841 0.326,0.853 0.743,1.514 1.27,2 0.326,0.259 0.41,0.564 0.237,0.905 -0.26,0.363 -0.626,0.77 -1.079,1.207 -0.256,0.192 -0.535,0.256 -0.841,0.206 -1.248,-0.1 -2.541,-0.089 -3.873,0.048 -0.014,0.019 -0.04,0.059 -0.079,0.11 -0.34,0.505 -0.749,0.906 -1.207,1.19 C 0.157,-0.01 0.085,0.01 0,0 m 10.396,-1.603 c -0.05,0.01 -0.103,0.005 -0.159,-0.015 C 10.094,-1.655 10.055,-1.811 10.11,-2.079 10.223,-2.77 10.2,-3.51 10.047,-4.317 9.785,-5.48 9.458,-6.646 9.063,-7.809 8.89,-8.358 8.833,-8.939 8.889,-9.555 c 0.046,-0.44 0.137,-0.733 0.285,-0.888 0.253,-0.207 0.48,-0.069 0.698,0.427 0.016,0.055 0.037,0.091 0.048,0.127 0.122,-0.053 0.288,-0.097 0.508,-0.142 0.864,-0.075 2.206,-0.347 4,-0.825 -1.155,-4.272 -2.24,-7.84 -3.254,-10.683 -0.157,-0.48 -0.334,-0.807 -0.524,-0.984 -0.135,-0.075 -0.369,-0.009 -0.682,0.175 -0.453,0.248 -0.887,0.494 -1.334,0.761 -0.339,0.232 -0.538,0.264 -0.571,0.08 0.751,-1.223 1.322,-2.253 1.698,-3.096 0.12,-0.439 0.323,-0.743 0.603,-0.904 0.158,-0.121 0.33,-0.122 0.524,0.016 0.311,0.202 0.716,0.538 1.207,1.016 0.372,0.432 0.628,0.954 0.761,1.555 0.886,3.945 2.221,9.053 4,15.349 0.296,1.094 0.64,1.854 1.032,2.286 0.331,0.271 0.409,0.56 0.238,0.841 -0.296,0.453 -0.749,0.923 -1.381,1.413 -0.301,0.226 -0.617,0.315 -0.936,0.269 -0.822,-0.168 -1.469,-0.25 -1.937,-0.254 -0.533,0.021 -1.297,0.095 -2.285,0.223 -0.294,0.456 -0.647,0.822 -1.048,1.111 -0.047,0.043 -0.093,0.07 -0.143,0.079 M 1.873,-2.158 C 2.582,-2.19 3.188,-2.23 3.682,-2.254 4.392,-2.285 4.841,-2.406 5.047,-2.618 5.175,-2.774 5.156,-3.105 4.983,-3.635 4.472,-5.132 3.983,-6.51 3.508,-7.745 3.442,-7.919 3.361,-8.055 3.254,-8.158 c -0.089,0.159 -0.247,0.351 -0.477,0.571 -0.229,0.2 -0.614,0.298 -1.158,0.302 -0.655,-0.004 -1.287,-0.013 -1.873,-0.016 0.205,0.713 0.42,1.353 0.635,1.889 0.926,-0.073 1.739,-0.17 2.429,-0.27 0.422,-0.007 0.565,0.117 0.444,0.366 -0.111,0.284 -0.377,0.513 -0.81,0.698 -0.388,0.132 -0.95,0.179 -1.698,0.143 -0.019,-0.014 -0.04,-0.019 -0.063,-0.033 0.397,1.123 0.699,1.897 0.919,2.334 0.08,-0.004 0.173,0.004 0.271,0.016 m -49.665,-1.206 c -0.339,-0.032 -0.626,-0.148 -0.857,-0.334 -0.37,-0.304 -0.314,-0.563 0.159,-0.793 0.804,-0.389 1.32,-0.905 1.539,-1.54 0.764,-2.179 1.356,-4.118 1.762,-5.81 -1.732,-0.974 -3.573,-1.994 -5.524,-3.079 -0.4,-0.213 -0.38,-0.43 0.064,-0.635 0.358,-0.129 0.738,-0.187 1.126,-0.175 0.445,0.074 0.798,0.205 1.064,0.397 1.048,0.795 2.236,1.56 3.54,2.286 0.036,-0.164 0.071,-0.336 0.095,-0.523 0.396,-1.897 0.452,-3.621 0.175,-5.175 -0.142,-1.128 -0.501,-2.266 -1.095,-3.413 -0.515,-1.126 -1.486,-2.551 -2.921,-4.285 -0.218,-0.217 -0.347,-0.385 -0.365,-0.493 -0.067,-0.158 0.08,-0.197 0.444,-0.111 0.279,0.096 0.907,0.572 1.857,1.413 0.681,0.587 1.443,1.521 2.286,2.793 0.628,0.988 1.064,2.016 1.317,3.111 0.299,1.244 0.383,2.701 0.238,4.366 -0.044,0.301 -0.078,0.61 -0.111,0.936 0.608,-0.562 1.892,-1.605 3.873,-3.127 2.177,-1.636 4.022,-2.851 5.508,-3.682 0.696,-0.426 1.286,-0.567 1.778,-0.397 1.404,0.606 2.737,1.156 3.984,1.666 0.54,0.206 0.794,0.385 0.746,0.525 -0.038,0.169 -0.4,0.282 -1.079,0.364 -0.873,0.074 -1.793,0.147 -2.762,0.207 -1.154,0.036 -2.102,0.185 -2.842,0.444 -0.994,0.308 -2.443,1 -4.349,2.08 -2.138,1.173 -3.821,2.2 -5.047,3.078 -0.047,0.358 -0.108,0.71 -0.174,1.081 1.606,0.871 3.785,1.869 6.523,2.968 0.42,0.144 0.824,0.292 1.206,0.444 0.382,0.152 0.578,0.318 0.604,0.524 -0.007,0.255 -0.211,0.468 -0.619,0.618 -0.716,0.189 -1.316,0.268 -1.794,0.239 -0.408,-0.019 -0.777,-0.156 -1.127,-0.397 -1.224,-0.794 -2.913,-1.842 -5.047,-3.127 -0.194,0.721 -0.386,1.44 -0.588,2.143 -0.189,0.606 -0.34,1.158 -0.46,1.667 -0.262,0.816 -0.405,1.764 -0.413,2.825 0.024,0.265 -0.079,0.446 -0.333,0.555 -0.498,0.203 -1.168,0.32 -2.016,0.366 -0.125,0.006 -0.252,0.009 -0.365,0 m 59.474,-0.381 c 0.132,-0.019 0.299,-0.031 0.492,-0.032 0.98,-0.09 1.955,-0.144 2.936,-0.175 0.414,-0.04 0.631,-0.173 0.666,-0.396 0.036,-0.476 0.007,-1.052 -0.11,-1.731 -0.338,-1.374 -0.693,-2.705 -1.048,-4 -0.084,0.104 -0.185,0.233 -0.302,0.381 -0.231,0.261 -0.632,0.408 -1.221,0.445 -1.051,0.05 -2.016,0.136 -2.889,0.27 0.05,0.238 0.103,0.502 0.143,0.777 0.124,0.43 0.253,0.899 0.396,1.397 0.019,-0.005 0.066,-0.022 0.159,-0.047 1.105,-0.185 2.059,-0.344 2.857,-0.46 0.414,-0.041 0.592,0.075 0.508,0.333 -0.111,0.285 -0.37,0.516 -0.778,0.713 -0.379,0.165 -0.947,0.25 -1.698,0.254 -0.301,-0.03 -0.576,-0.068 -0.842,-0.11 0.254,0.877 0.491,1.677 0.731,2.381 m 35.459,-23.54 c -0.156,0.012 -0.287,-0.077 -0.397,-0.27 -0.228,-0.634 -0.78,-1.238 -1.667,-1.809 -3.53,-2.167 -6.342,-3.572 -8.428,-4.206 l -0.222,-0.064 c -1.992,-0.564 -4.419,-0.92 -7.27,-1.063 -0.156,0.01 -0.297,-0.004 -0.413,-0.048 -0.193,-0.08 -0.209,-0.2 -0.047,-0.333 0.446,-0.432 1.993,-0.561 4.651,-0.413 0.605,0.067 1.253,0.15 1.936,0.254 2.984,0.622 6.043,1.864 9.174,3.714 0.921,0.554 1.93,1.048 3.016,1.492 0.176,-0.524 0.837,-1.375 1.984,-2.555 1.347,-1.308 2.718,-2.665 4.111,-4.063 0.81,-0.753 1.314,-1.152 1.524,-1.207 0.186,-0.052 0.311,-0.008 0.381,0.126 0.103,0.204 0.071,0.511 -0.095,0.937 -0.188,0.453 -0.964,1.209 -2.35,2.254 -2.198,1.944 -3.894,3.626 -5.063,5.064 -0.04,0.054 -0.091,0.108 -0.158,0.143 0.047,1.049 -0.111,1.712 -0.493,2 -0.056,0.027 -0.123,0.043 -0.174,0.047 m -129.027,-0.238 c -0.302,0.048 -0.915,-0.204 -1.857,-0.746 -0.258,-0.175 -0.433,-0.368 -0.508,-0.603 -0.309,-0.867 -0.696,-1.817 -1.158,-2.825 -0.189,-0.308 -0.145,-0.456 0.11,-0.461 0.262,0.06 0.526,0.19 0.794,0.381 0.295,0.236 0.477,0.511 0.54,0.826 0.149,0.391 0.294,0.807 0.444,1.237 0.042,0.109 0.091,0.162 0.143,0.175 0.182,0.086 0.445,0.004 0.794,-0.254 0.298,-0.267 0.608,-0.57 0.92,-0.889 -0.174,-0.028 -0.346,-0.138 -0.524,-0.317 -0.245,-0.265 -0.494,-0.702 -0.73,-1.349 -0.091,-0.361 -0.176,-0.724 -0.285,-1.08 -0.109,-0.213 0.023,-0.286 0.412,-0.19 0.105,0.025 0.195,0.125 0.302,0.302 0.489,0.841 0.918,1.574 1.27,2.19 0.33,-0.353 0.718,-0.742 1.143,-1.159 -0.133,-0.07 -0.255,-0.175 -0.381,-0.318 -0.236,-0.276 -0.452,-0.732 -0.651,-1.38 -0.094,-0.404 -0.178,-0.787 -0.239,-1.143 -0.077,-0.238 0.051,-0.279 0.398,-0.143 0.101,0.028 0.217,0.147 0.317,0.349 0.407,0.808 0.747,1.509 1.048,2.111 0.446,-0.491 0.95,-1.006 1.491,-1.555 -0.197,-0.363 -0.369,-0.753 -0.523,-1.143 -0.863,-1.776 -1.919,-4.083 -3.175,-6.936 -0.038,-0.063 -0.062,-0.123 -0.064,-0.191 -0.829,0.288 -1.576,0.548 -2.253,0.81 0.008,0.012 0.016,0.031 0.016,0.031 0.338,0.805 0.631,1.525 0.889,2.159 0.118,0.343 0.049,0.5 -0.206,0.476 -0.258,-0.062 -0.525,-0.242 -0.794,-0.539 -0.201,-0.292 -0.369,-0.768 -0.508,-1.429 -0.027,-0.181 -0.026,-0.341 -0.016,-0.46 -0.339,0.122 -0.643,0.251 -0.905,0.365 -0.239,0.078 -0.435,0.158 -0.619,0.254 0.298,0.957 0.564,1.773 0.81,2.46 0.109,0.327 0.049,0.478 -0.191,0.444 -0.251,-0.043 -0.487,-0.224 -0.714,-0.523 -0.204,-0.297 -0.344,-0.739 -0.428,-1.35 -0.031,-0.261 -0.061,-0.525 -0.08,-0.777 -0.313,0.168 -0.526,0.281 -0.651,0.333 -0.187,0.116 -0.366,0.162 -0.508,0.143 -0.009,0.42 -0.012,0.787 -0.031,1.079 -0.017,0.296 -0.025,0.593 -0.032,0.905 -0.083,0.332 -0.108,0.681 -0.064,1.048 0.047,0.324 -0.078,0.497 -0.381,0.508 -0.301,-0.035 -0.635,-0.174 -1,-0.413 -0.346,-0.209 -0.546,-0.395 -0.586,-0.572 -0.082,-0.17 -0.024,-0.264 0.173,-0.301 0.24,-0.078 0.442,-0.29 0.588,-0.62 0.191,-0.267 0.342,-0.548 0.476,-0.872 0.106,-0.284 0.222,-0.577 0.349,-0.873 -0.422,-0.225 -0.764,-0.518 -1.047,-0.873 -0.177,-0.178 -0.238,-0.36 -0.191,-0.54 0.043,-0.178 0.195,-0.264 0.477,-0.238 0.709,0.051 1.423,0.028 2.142,-0.079 0.659,-0.143 2.275,-0.645 4.841,-1.508 -0.356,-0.727 -0.707,-1.426 -1.047,-2.096 -0.04,-0.065 -0.046,-0.121 -0.032,-0.174 -0.026,-0.006 -0.062,0.002 -0.111,0.032 -0.449,0.055 -0.799,0.033 -1.047,-0.079 -0.36,-0.129 -0.352,-0.326 0.015,-0.588 0.105,-0.041 0.222,-0.113 0.349,-0.191 0.294,-0.2 0.502,-0.43 0.619,-0.698 0.229,-0.492 0.431,-1.071 0.619,-1.73 0.074,-0.242 0.294,-0.44 0.652,-0.572 0.469,-0.196 0.858,-0.285 1.19,-0.285 0.526,-0.04 0.678,0.221 0.444,0.778 -0.205,0.457 -0.531,0.927 -0.984,1.444 -0.544,0.618 -0.961,1.147 -1.238,1.556 0.624,0.231 1.041,0.64 1.238,1.222 0.423,1.448 0.928,2.88 1.508,4.301 0.679,1.585 1.618,3.594 2.794,6.032 0.715,1.495 1.211,2.398 1.508,2.698 0.298,0.167 0.503,0.211 0.602,0.127 0.076,-0.023 0.169,-0.149 0.302,-0.365 0.283,-0.436 0.583,-0.87 0.873,-1.333 0.142,-0.237 0.262,-0.327 0.381,-0.27 0.133,0.071 0.199,0.28 0.206,0.651 0.03,1.166 0.191,2.146 0.477,2.937 0.206,0.661 0.251,1.031 0.111,1.094 -0.17,0.083 -1.046,-0.171 -2.619,-0.746 -0.443,-0.145 -0.774,-0.42 -0.985,-0.841 -0.348,-0.709 -0.686,-1.466 -1.015,-2.254 -2.13,2.113 -3.468,3.76 -4.016,4.953 -0.047,0.246 -0.178,0.397 -0.381,0.46 m 128.169,-4.27 c -0.061,-0.03 -0.103,-0.131 -0.127,-0.285 -0.027,-0.591 0.229,-1.085 0.762,-1.492 0.376,-0.251 0.773,-0.584 1.175,-0.985 -0.297,-0.283 -0.972,-0.561 -2,-0.857 -0.296,0.373 -0.585,0.707 -0.889,1.032 0.006,0.278 -0.052,0.551 -0.158,0.81 -0.058,0.105 -0.148,0.164 -0.271,0.158 -0.064,-0.027 -0.137,-0.118 -0.206,-0.254 -0.816,-1.237 -2.043,-2.182 -3.698,-2.857 -0.32,-0.11 -0.563,-0.264 -0.714,-0.46 -0.258,-0.338 -0.397,-0.627 -0.429,-0.841 -0.066,-0.197 0.005,-0.294 0.222,-0.302 0.096,-0.015 0.22,0.01 0.35,0.063 0.076,-0.217 0.201,-0.447 0.396,-0.682 -1.079,-0.798 -3.037,-0.892 -5.873,-0.286 -0.044,0.031 -0.096,0.051 -0.158,0.048 -0.824,0.171 -2.114,0.589 -3.873,1.253 -0.125,0.056 -0.167,0.013 -0.127,-0.126 0.646,-0.874 2.285,-1.636 4.921,-2.285 0.064,0.026 0.143,0.015 0.222,-0.033 0.722,-0.12 1.669,-0.254 2.84,-0.381 -0.035,-0.237 -0.141,-1.33 -0.3,-3.285 -2.068,0.31 -3.954,1.108 -5.667,2.397 -0.105,0.112 -0.186,0.145 -0.254,0.095 -0.055,-0.041 -0.059,-0.123 -0.016,-0.238 1.067,-1.872 3.025,-3.025 5.873,-3.477 -0.195,-3.249 -0.163,-5.149 0.095,-5.698 0.48,-0.849 1.445,-1.835 2.905,-2.952 0.236,-0.206 0.379,-0.297 0.444,-0.27 0.106,0.057 0.113,0.215 0.016,0.46 -0.367,0.954 -0.754,1.964 -1.175,3.048 -0.48,1.25 -0.801,2.411 -0.967,3.492 -0.095,0.585 -0.184,1.18 -0.254,1.762 0.662,-0.039 1.425,-0.076 2.285,-0.095 0.51,-0.004 0.985,-0.102 1.428,-0.302 0.207,-0.164 0.377,-0.198 0.524,-0.112 0.174,0.108 0.261,0.415 0.254,0.937 0.039,0.662 -0.009,1.083 -0.127,1.27 -0.101,0.137 -0.234,0.265 -0.412,0.365 -0.176,0.124 -1.023,0.863 -2.556,2.222 -0.06,0.082 -0.118,0.152 -0.159,0.206 0.277,-0.174 0.498,0.005 0.651,0.541 0.105,0.458 0.089,0.772 -0.032,0.936 1.259,-1.245 2.347,-2.395 3.27,-3.444 -0.003,-0.024 -0.011,-0.069 -0.032,-0.127 -0.226,-0.379 -0.291,-0.614 -0.206,-0.699 0.121,-0.164 0.424,-0.198 0.92,-0.126 0.391,0.013 0.701,0.105 0.937,0.301 1.599,1.436 2.781,2.146 3.555,2.127 0.279,-0.006 0.458,0.089 0.524,0.285 0.048,0.564 -0.01,1.235 -0.174,2 -0.05,0.239 -0.232,0.467 -0.54,0.683 -0.724,0.437 -1.478,1.026 -2.254,1.762 -0.175,0.208 -0.361,0.383 -0.571,0.523 0.064,0.028 0.14,0.025 0.221,0 0.228,-0.021 0.495,-0.032 0.81,-0.031 0.123,0.006 0.284,-0.009 0.461,-0.048 0.244,-0.073 0.374,-0.017 0.412,0.16 0.076,0.182 0.133,0.441 0.159,0.777 0.592,-0.344 1.802,-1.659 3.635,-3.937 0.454,-0.614 0.763,-0.911 0.937,-0.889 0.176,0.047 0.274,0.216 0.269,0.508 -0.034,0.989 -0.49,1.776 -1.349,2.365 -0.587,0.538 -1.338,1.204 -2.253,1.985 -1.047,0.958 -2.176,2.008 -3.398,3.174 -0.101,0.094 -0.191,0.142 -0.254,0.111 m -132.471,-0.285 c -0.135,0.001 -0.311,-0.007 -0.523,-0.032 -0.354,-0.115 -0.607,-0.255 -0.762,-0.397 -0.133,-0.182 -0.08,-0.309 0.174,-0.397 0.22,-0.073 0.383,-0.196 0.477,-0.365 0.292,-0.525 0.534,-1.071 0.73,-1.651 -0.043,-0.035 -0.102,-0.081 -0.175,-0.127 -0.628,-0.56 -1.096,-0.994 -1.413,-1.301 -0.076,-0.089 -0.071,-0.166 0.032,-0.207 0.122,-0.05 0.251,-0.041 0.381,0.032 0.443,0.259 0.924,0.519 1.429,0.778 0.137,-0.432 0.25,-0.908 0.349,-1.429 -10e-4,-0.15 0.016,-0.249 0.063,-0.317 0.071,-0.132 0.152,-0.127 0.238,0.016 0.068,0.111 0.113,0.352 0.112,0.745 0.009,0.348 -0.015,0.783 -0.064,1.318 0.376,0.185 0.808,0.389 1.285,0.603 0.212,0.09 0.373,0.195 0.493,0.318 0.04,0.064 0.025,0.174 -0.047,0.302 -0.072,0.132 -0.351,0.221 -0.826,0.269 -0.25,0.024 -0.483,-0.029 -0.683,-0.143 -0.124,-0.058 -0.235,-0.125 -0.333,-0.222 -0.075,0.31 -0.15,0.632 -0.222,0.984 -0.112,0.349 -0.157,0.632 -0.143,0.842 -0.023,0.172 -0.123,0.295 -0.285,0.349 -0.061,0.025 -0.15,0.031 -0.287,0.032 m 17.714,-1.143 c -0.087,-0.012 -0.182,-0.028 -0.286,-0.064 -0.643,-0.264 -1.158,-0.542 -1.539,-0.81 -0.315,-0.267 -0.549,-0.592 -0.698,-0.983 -0.574,-1.514 -1.382,-3.485 -2.413,-5.905 -0.075,0.023 -0.159,0.044 -0.254,0.063 -0.312,0.033 -0.61,0.006 -0.904,-0.079 -0.05,0.71 -0.1,1.459 -0.144,2.254 -0.07,0.851 -0.018,1.525 0.144,2 0.086,0.363 -0.016,0.572 -0.302,0.635 -0.289,0.108 -1.027,-0.148 -2.223,-0.777 -0.334,-0.189 -0.555,-0.487 -0.65,-0.889 -0.289,-1.166 -0.696,-2.597 -1.223,-4.318 -0.127,-0.467 -0.504,-1.137 -1.142,-2 -0.231,-0.344 -0.153,-0.543 0.222,-0.619 0.272,-0.014 0.577,0.056 0.92,0.222 0.584,0.302 0.885,0.803 0.905,1.492 0.104,0.42 0.423,1.737 0.968,3.968 0.068,0.247 0.212,0.433 0.429,0.54 0.227,0.125 0.423,0.067 0.571,-0.158 0.316,-0.781 0.667,-1.632 1.08,-2.54 -0.208,-0.093 -0.42,-0.216 -0.619,-0.397 -0.317,-0.273 -0.458,-0.519 -0.444,-0.746 -0.014,-0.28 0.146,-0.368 0.491,-0.271 0.469,0.198 0.985,0.268 1.54,0.239 -1.237,-2.603 -2.568,-5.41 -4,-8.445 -0.198,-0.361 -0.061,-0.513 0.397,-0.444 0.388,0.095 0.721,0.262 1,0.508 0.325,0.284 0.531,0.599 0.619,0.921 0.599,1.959 1.409,3.951 2.428,5.984 0.166,0.381 0.353,0.788 0.572,1.222 0.755,-0.308 1.46,-0.685 2.111,-1.127 0.705,-0.491 1.216,-0.989 1.508,-1.476 0.274,-0.454 0.194,-0.935 -0.223,-1.445 -0.369,-0.458 -0.73,-0.883 -1.11,-1.285 -0.167,-0.163 -0.142,-0.262 0.095,-0.27 0.148,-0.006 0.414,0.096 0.793,0.285 0.938,0.35 1.668,0.513 2.207,0.493 0.383,-0.015 0.64,0.114 0.746,0.396 0.11,0.22 0.073,0.68 -0.112,1.381 -0.156,0.645 -0.519,1.245 -1.079,1.81 -0.657,0.681 -1.548,1.326 -2.682,1.905 -0.573,0.286 -1.091,0.505 -1.556,0.682 0.861,1.664 1.988,3.585 3.381,5.762 0.309,0.469 0.59,0.919 0.842,1.333 0.22,0.326 0.283,0.578 0.19,0.746 -0.105,0.179 -0.296,0.242 -0.556,0.207 m -14.206,-1.651 c -0.129,-0.004 -0.296,-0.015 -0.492,-0.048 -0.32,-0.091 -0.542,-0.229 -0.666,-0.396 -0.114,-0.151 -0.056,-0.271 0.175,-0.366 0.232,-0.051 0.397,-0.164 0.491,-0.332 0.161,-0.317 0.328,-0.655 0.524,-1.017 -0.603,-0.418 -1.045,-0.772 -1.349,-1.047 -0.05,-0.054 -0.041,-0.114 0.048,-0.191 0.11,-0.067 0.235,-0.063 0.381,0 0.377,0.185 0.787,0.362 1.222,0.539 0.006,-0.026 0.025,-0.058 0.047,-0.094 0.216,-0.615 0.401,-1.304 0.571,-2.063 -0.001,-0.152 0.025,-0.262 0.08,-0.318 0.067,-0.104 0.142,-0.084 0.222,0.047 0.068,0.111 0.096,0.338 0.064,0.683 0.017,0.387 -0.032,0.85 -0.127,1.412 -0.047,0.18 -0.081,0.398 -0.112,0.635 0.427,0.155 0.889,0.335 1.398,0.524 0.24,0.073 0.419,0.184 0.523,0.318 0.037,0.061 0.024,0.147 -0.031,0.27 -0.058,0.163 -0.318,0.269 -0.794,0.317 -0.229,0.056 -0.464,0.036 -0.698,-0.064 -0.183,-0.04 -0.387,-0.168 -0.635,-0.365 -0.061,0.121 -0.102,0.253 -0.127,0.397 -0.12,0.338 -0.174,0.622 -0.175,0.842 -0.035,0.156 -0.126,0.247 -0.254,0.285 -0.06,0.025 -0.157,0.036 -0.286,0.032 m 127.535,-0.286 c 0.061,-0.081 0.138,-0.168 0.222,-0.254 1.368,-1.164 2.511,-2.216 3.429,-3.143 0.354,-0.307 0.472,-0.58 0.348,-0.841 -0.138,-0.441 -1.286,-1.335 -3.427,-2.667 -0.113,-0.019 -0.233,-0.065 -0.366,-0.142 0,0.085 -0.016,0.178 -0.063,0.269 -0.08,0.195 -1.463,1.557 -4.143,4.096 0.47,0.221 0.883,0.467 1.238,0.73 0.009,-0.184 0.269,-0.569 0.778,-1.143 0.915,-0.865 1.724,-1.656 2.429,-2.381 0.232,-0.229 0.385,-0.257 0.475,-0.063 0.074,0.244 0.031,0.53 -0.127,0.857 -0.14,0.276 -1.227,1.252 -3.285,2.92 0.368,0.272 0.744,0.559 1.127,0.842 -0.021,-0.143 0.154,-0.487 0.524,-1.017 0.972,-0.885 1.825,-1.669 2.571,-2.364 0.233,-0.23 0.396,-0.238 0.476,-0.032 0.073,0.244 0.012,0.524 -0.159,0.842 -0.151,0.204 -1.219,1.094 -3.206,2.666 -0.01,0.013 -0.023,0.012 -0.048,0.015 0.575,0.425 0.972,0.699 1.207,0.81 m -5.667,-5.445 c 0.207,0.007 0.446,-0.004 0.731,-0.046 -0.023,-0.228 0.071,-0.54 0.269,-0.921 0.27,-0.393 0.796,-0.858 1.587,-1.413 0.247,-0.219 0.359,-0.421 0.334,-0.587 -0.014,-0.095 -0.403,-0.206 -1.174,-0.333 -0.521,-0.068 -1.083,-0.074 -1.683,-0.033 -0.015,0.391 -0.033,0.785 -0.048,1.175 0.027,0.991 0.025,1.704 -0.016,2.158" /></g><g
           transform="translate(167.3985,49.662)"
           id="g28"><path
             id="path30"
             style="fill:#122e66;fill-opacity:1;fill-rule:evenodd;stroke:none"
             d="m 0,0 -11.316,8.236 2.087,2.877 5.548,-2.013 c 0.618,-0.215 1.245,-0.452 1.879,-0.707 0.638,-0.256 1.306,-0.538 2.006,-0.841 -0.62,0.334 -1.229,0.689 -1.823,1.067 -0.594,0.378 -1.262,0.84 -2.009,1.383 l -4.193,3.053 1.804,2.489 11.316,-8.236 -2.01,-2.773 -5.934,2.07 c -0.621,0.215 -1.252,0.454 -1.893,0.717 -0.637,0.263 -1.295,0.558 -1.973,0.882 0.9,-0.54 1.739,-1.066 2.519,-1.573 0.777,-0.505 1.488,-0.994 2.131,-1.462 L 1.811,2.497 Z m 9.929,31.672 0.544,3.088 1.117,-0.197 c 0.465,-0.083 0.823,-0.061 1.079,0.067 0.256,0.124 0.415,0.359 0.475,0.7 0.055,0.316 -0.003,0.585 -0.176,0.811 -0.177,0.223 -0.427,0.365 -0.76,0.423 C 11.919,36.616 11.613,36.578 11.3,36.453 10.982,36.325 10.648,36.109 10.302,35.8 10.144,35.665 9.915,35.462 9.622,35.191 8.665,34.318 7.952,33.724 7.48,33.409 7.053,33.113 6.58,32.918 6.061,32.82 5.541,32.727 4.995,32.728 4.416,32.83 3.264,33.034 2.43,33.548 1.909,34.372 c -0.52,0.823 -0.666,1.873 -0.441,3.151 0.224,1.276 0.684,2.18 1.384,2.723 0.698,0.543 1.631,0.71 2.804,0.503 l 1.132,-0.2 -0.519,-2.952 -0.95,0.167 C 4.878,37.842 4.542,37.822 4.304,37.701 4.069,37.579 3.923,37.351 3.864,37.015 3.815,36.741 3.868,36.501 4.024,36.301 4.179,36.1 4.41,35.973 4.718,35.919 c 0.514,-0.091 1.453,0.448 2.814,1.62 l 0.09,0.07 0.233,0.202 c 1.215,1.029 2.063,1.622 2.54,1.78 0.32,0.107 0.66,0.168 1.026,0.19 0.364,0.019 0.743,-0.008 1.142,-0.078 1.187,-0.21 2.045,-0.739 2.58,-1.596 0.533,-0.855 0.683,-1.948 0.449,-3.277 -0.232,-1.318 -0.744,-2.262 -1.533,-2.827 -0.788,-0.568 -1.823,-0.738 -3.098,-0.513 z m 2.602,-8.363 -13.301,4.33 0.977,3.013 13.302,-4.33 z m -9.268,-9.678 1.273,2.864 1.036,-0.463 c 0.432,-0.192 0.785,-0.257 1.065,-0.196 0.276,0.059 0.488,0.248 0.629,0.564 0.13,0.295 0.137,0.569 0.024,0.83 -0.117,0.259 -0.325,0.457 -0.633,0.595 -0.269,0.12 -0.574,0.157 -0.91,0.112 C 5.408,17.891 5.031,17.762 4.62,17.545 4.436,17.453 4.166,17.311 3.815,17.119 2.676,16.504 1.841,16.101 1.305,15.909 0.819,15.726 0.315,15.652 -0.213,15.683 c -0.526,0.034 -1.057,0.168 -1.595,0.407 -1.068,0.478 -1.753,1.178 -2.059,2.103 -0.306,0.926 -0.194,1.981 0.333,3.166 0.525,1.183 1.191,1.949 2,2.306 0.808,0.358 1.755,0.293 2.843,-0.191 L 2.358,23.005 1.141,20.266 0.262,20.658 c -0.409,0.183 -0.741,0.246 -1.001,0.185 -0.257,-0.062 -0.456,-0.247 -0.593,-0.56 -0.113,-0.252 -0.119,-0.499 -0.016,-0.73 0.1,-0.233 0.294,-0.412 0.58,-0.538 0.478,-0.214 1.518,0.082 3.122,0.889 l 0.104,0.046 0.275,0.139 c 1.427,0.704 2.393,1.074 2.894,1.113 0.337,0.026 0.682,10e-4 1.042,-0.065 0.357,-0.071 0.72,-0.188 1.089,-0.353 1.1,-0.491 1.806,-1.214 2.118,-2.173 0.311,-0.959 0.192,-2.055 -0.355,-3.289 C 8.978,14.099 8.252,13.308 7.35,12.95 6.448,12.59 5.404,12.677 4.221,13.203 Z M -7.665,-8.94 l -10.062,9.733 4.918,5.102 1.946,-1.881 -2.721,-2.823 2.001,-1.933 2.399,2.489 1.92,-1.857 -2.4,-2.49 2.251,-2.178 2.802,2.907 1.946,-1.882 z m -5.937,-5.369 -9.358,10.413 2.351,2.122 9.359,-10.414 z m -14.233,2.513 3.793,-5.632 c 0.254,-0.377 0.501,-0.608 0.745,-0.693 0.242,-0.083 0.5,-0.03 0.783,0.16 0.28,0.189 0.424,0.409 0.438,0.665 0.012,0.258 -0.11,0.573 -0.363,0.952 l -3.792,5.632 c -0.255,0.377 -0.505,0.61 -0.749,0.694 -0.246,0.084 -0.509,0.033 -0.791,-0.158 -0.274,-0.185 -0.415,-0.407 -0.428,-0.665 -0.012,-0.257 0.11,-0.576 0.364,-0.955 m -2.365,-2.216 c -0.8,1.19 -1.113,2.28 -0.938,3.271 0.178,0.992 0.838,1.875 1.982,2.647 1.155,0.782 2.22,1.068 3.192,0.86 0.972,-0.208 1.863,-0.912 2.671,-2.11 l 3.215,-4.776 c 0.803,-1.194 1.123,-2.287 0.953,-3.278 -0.171,-0.991 -0.831,-1.873 -1.984,-2.652 -1.138,-0.769 -2.202,-1.05 -3.191,-0.839 -0.988,0.212 -1.885,0.912 -2.686,2.102 z m -10.063,-15.36 -5.354,12.944 4.49,1.865 2.29,-3.859 c 0.285,-0.485 0.571,-1 0.86,-1.547 0.286,-0.547 0.587,-1.144 0.9,-1.792 -0.264,0.781 -0.487,1.475 -0.677,2.077 -0.187,0.608 -0.325,1.075 -0.406,1.407 l -1.085,4.496 4.468,1.855 5.354,-12.943 -2.804,-1.166 -1.959,4.736 c -0.41,0.99 -0.827,2.012 -1.249,3.07 -0.421,1.057 -0.846,2.146 -1.279,3.261 0.292,-1.192 0.531,-2.193 0.724,-3.001 0.193,-0.807 0.317,-1.327 0.368,-1.558 l 1.684,-7.218 -1.833,-0.762 -3.778,6.008 c -0.533,0.853 -1.004,1.628 -1.416,2.317 -0.408,0.685 -0.796,1.344 -1.155,1.978 0.444,-0.968 0.881,-1.953 1.316,-2.959 0.434,-1.005 0.893,-2.09 1.375,-3.256 l 1.98,-4.785 z m -13.765,-2.959 0.408,14.244 4.197,0.655 4.665,-13.455 -3.328,-0.518 -0.7,2.441 -2.156,-0.337 0.074,-2.538 z m 3.058,5.594 1.503,0.234 -1.135,4.155 c -0.08,0.278 -0.158,0.575 -0.239,0.893 -0.082,0.318 -0.201,0.801 -0.357,1.446 0.023,-0.377 0.042,-0.769 0.061,-1.177 0.017,-0.408 0.031,-0.824 0.047,-1.255 z m -19.218,-1.887 3.125,-0.164 -0.059,-1.135 c -0.025,-0.473 0.041,-0.827 0.197,-1.065 0.155,-0.24 0.407,-0.369 0.752,-0.387 0.321,-0.018 0.578,0.074 0.781,0.275 0.202,0.203 0.311,0.468 0.329,0.805 0.015,0.294 -0.06,0.593 -0.222,0.891 -0.165,0.3 -0.419,0.607 -0.769,0.914 -0.152,0.14 -0.381,0.342 -0.685,0.599 -0.982,0.846 -1.657,1.483 -2.028,1.914 -0.344,0.389 -0.593,0.834 -0.755,1.34 -0.156,0.504 -0.222,1.048 -0.191,1.636 0.062,1.171 0.469,2.064 1.223,2.682 0.751,0.617 1.774,0.891 3.067,0.822 1.291,-0.067 2.244,-0.415 2.867,-1.044 0.622,-0.629 0.903,-1.537 0.839,-2.728 l -0.059,-1.15 -2.989,0.157 0.05,0.963 c 0.024,0.449 -0.037,0.783 -0.186,1.003 -0.149,0.218 -0.394,0.336 -0.734,0.355 -0.276,0.014 -0.508,-0.068 -0.686,-0.248 -0.182,-0.177 -0.279,-0.423 -0.296,-0.735 -0.026,-0.524 0.622,-1.39 1.949,-2.602 l 0.08,-0.08 0.229,-0.208 c 1.167,-1.083 1.858,-1.853 2.073,-2.308 0.144,-0.305 0.246,-0.638 0.312,-0.997 0.064,-0.36 0.084,-0.74 0.064,-1.145 -0.064,-1.205 -0.485,-2.125 -1.267,-2.76 -0.783,-0.635 -1.846,-0.917 -3.193,-0.847 -1.334,0.07 -2.331,0.464 -2.986,1.18 -0.66,0.714 -0.955,1.723 -0.887,3.018 z m -12.724,-3.814 3.742,13.747 4.232,-0.358 1.375,-14.176 -3.357,0.282 -0.106,2.538 -2.175,0.184 -0.524,-2.485 z m 4.287,4.713 1.514,-0.127 -0.127,4.306 c -0.012,0.288 -0.019,0.596 -0.024,0.924 -0.004,0.328 -0.006,0.826 -0.006,1.49 -0.066,-0.371 -0.139,-0.757 -0.215,-1.158 -0.081,-0.4 -0.165,-0.808 -0.25,-1.231 z m -12.468,-2.658 2.336,11.059 -2.019,0.429 0.558,2.649 7.127,-1.514 -0.56,-2.649 -2.02,0.429 -2.336,-11.058 z m -9.54,3.432 5.334,12.953 2.925,-1.21 -5.334,-12.953 z m -8.922,10.236 2.655,-1.66 -0.602,-0.965 c -0.25,-0.401 -0.363,-0.742 -0.342,-1.027 0.019,-0.284 0.177,-0.52 0.471,-0.703 0.271,-0.171 0.542,-0.216 0.815,-0.14 0.273,0.08 0.498,0.259 0.677,0.546 0.156,0.249 0.236,0.548 0.238,0.886 0.001,0.344 -0.075,0.735 -0.231,1.173 -0.065,0.196 -0.168,0.484 -0.31,0.858 -0.449,1.216 -0.731,2.101 -0.846,2.658 -0.113,0.507 -0.116,1.019 -0.012,1.538 0.106,0.518 0.313,1.025 0.625,1.525 0.619,0.994 1.408,1.576 2.365,1.751 0.956,0.175 1.985,-0.083 3.082,-0.771 1.096,-0.685 1.761,-1.453 2.002,-2.306 0.241,-0.851 0.045,-1.782 -0.586,-2.793 l -0.609,-0.977 -2.537,1.589 0.51,0.818 c 0.237,0.381 0.345,0.703 0.322,0.968 -0.025,0.264 -0.181,0.485 -0.47,0.666 -0.235,0.147 -0.477,0.188 -0.722,0.117 -0.243,-0.066 -0.446,-0.234 -0.613,-0.5 -0.276,-0.444 -0.129,-1.516 0.446,-3.222 l 0.031,-0.109 0.098,-0.292 c 0.498,-1.515 0.73,-2.523 0.699,-3.026 -0.022,-0.337 -0.094,-0.677 -0.21,-1.024 -0.12,-0.345 -0.286,-0.689 -0.499,-1.032 -0.639,-1.024 -1.453,-1.623 -2.444,-1.799 -0.991,-0.175 -2.059,0.095 -3.202,0.81 -1.133,0.71 -1.813,1.539 -2.041,2.482 -0.232,0.946 -0.001,1.971 0.686,3.071 z m -5.293,7.879 c 0.56,-0.425 0.992,-0.646 1.297,-0.666 0.305,-0.022 0.599,0.142 0.882,0.493 l 0.497,0.616 c 0.294,0.364 0.404,0.69 0.335,0.979 -0.071,0.287 -0.358,0.637 -0.862,1.045 l -0.093,0.076 z m -7.687,-4.529 8.803,10.89 3.519,-2.856 c 0.909,-0.738 1.44,-1.487 1.583,-2.245 0.144,-0.759 -0.097,-1.524 -0.724,-2.299 l -0.086,-0.106 -0.503,-0.624 c -0.458,-0.566 -0.923,-0.929 -1.398,-1.084 -0.472,-0.153 -1.02,-0.13 -1.638,0.072 0.356,-0.529 0.506,-1.04 0.459,-1.531 -0.05,-0.493 -0.314,-1.034 -0.789,-1.62 l -2.035,-2.518 c -0.236,-0.292 -0.407,-0.54 -0.508,-0.746 -0.104,-0.206 -0.17,-0.404 -0.194,-0.599 l -2.485,2.017 c 0.033,0.165 0.108,0.352 0.231,0.555 0.122,0.205 0.324,0.485 0.607,0.834 l 1.695,2.098 c 0.48,0.594 0.697,1.053 0.652,1.377 -0.042,0.327 -0.344,0.723 -0.897,1.187 l -3.861,-4.776 z m -8.439,8.472 10.142,9.645 4.876,-5.145 -1.962,-1.864 -2.695,2.845 -2.017,-1.917 2.379,-2.511 -1.935,-1.84 -2.379,2.51 -2.27,-2.158 2.778,-2.932 -1.961,-1.865 z m -6.628,9.065 10.35,9.682 1.866,-2.767 -4.457,-3.665 c -0.221,-0.178 -0.675,-0.534 -1.363,-1.068 -0.687,-0.534 -1.484,-1.144 -2.391,-1.834 1.024,0.576 2.245,1.244 3.661,2.005 0.243,0.129 0.418,0.223 0.528,0.284 l 5.077,2.711 1.827,-2.711 -12.86,-5.957 z m -5.135,8.91 12.572,6.144 1.386,-2.85 -12.571,-6.142 z m -5.061,12.716 13.22,4.577 1.159,-3.361 -4.826,-3.405 c -0.528,-0.382 -1.082,-0.762 -1.654,-1.137 -0.576,-0.378 -1.188,-0.766 -1.838,-1.166 0.63,0.319 1.27,0.615 1.919,0.887 0.648,0.27 1.41,0.555 2.281,0.857 l 4.9,1.696 1.003,-2.909 -13.22,-4.576 -1.117,3.239 5.091,3.689 c 0.531,0.386 1.09,0.767 1.672,1.142 0.579,0.373 1.198,0.745 1.852,1.116 -0.957,-0.43 -1.87,-0.816 -2.73,-1.168 -0.859,-0.348 -1.666,-0.652 -2.416,-0.913 l -4.29,-1.485 z m 11.503,11.871 -10.323,-1.162 c -0.457,-0.052 -0.779,-0.162 -0.962,-0.331 -0.184,-0.17 -0.258,-0.42 -0.221,-0.747 0.036,-0.333 0.168,-0.566 0.391,-0.695 0.223,-0.131 0.558,-0.17 1.003,-0.12 l 10.324,1.163 0.353,-3.151 -9.806,-1.105 c -1.43,-0.16 -2.544,0.061 -3.341,0.665 -0.797,0.605 -1.27,1.589 -1.424,2.96 -0.151,1.355 0.096,2.413 0.743,3.181 0.647,0.766 1.681,1.228 3.105,1.389 l 9.806,1.102" /></g><g
           transform="translate(100,200)"
           id="g32"><path
             id="path34"
             style="fill:#122e66;fill-opacity:1;fill-rule:evenodd;stroke:none"
             d="m 0,0 c 55.078,0 100,-44.922 100,-100 0,-55.078 -44.922,-100 -100,-100 -55.078,0 -100,44.922 -100,100 0,55.078 44.922,100 100,100 m 0,-8.619 c 50.331,0 91.381,-41.051 91.381,-91.381 0,-50.33 -41.05,-91.381 -91.381,-91.381 -50.33,0 -91.381,41.051 -91.381,91.381 0,50.33 41.051,91.381 91.381,91.381 m 0,-2.029 c 49.214,0 89.354,-40.139 89.354,-89.352 0,-49.214 -40.14,-89.352 -89.354,-89.352 -49.214,0 -89.352,40.138 -89.352,89.352 0,49.213 40.138,89.352 89.352,89.352 m 0,-27.379 c 34.133,0 61.973,-27.839 61.973,-61.973 0,-34.134 -27.84,-61.974 -61.973,-61.974 -34.133,0 -61.973,27.84 -61.973,61.974 0,34.134 27.84,61.973 61.973,61.973 m 0,-1.752 c 33.168,0 60.221,-27.053 60.221,-60.221 0,-33.169 -27.053,-60.221 -60.221,-60.221 -33.168,0 -60.221,27.052 -60.221,60.221 0,33.168 27.053,60.221 60.221,60.221 m 0,35.215 c 52.566,0 95.436,-42.872 95.436,-95.436 0,-52.564 -42.87,-95.436 -95.436,-95.436 -52.565,0 -95.436,42.872 -95.436,95.436 0,52.564 42.871,95.436 95.436,95.436" /></g><g
           transform="translate(114.044,122.2793)"
           id="g36"><path
             id="path38"
             style="fill:#122e66;fill-opacity:1;fill-rule:evenodd;stroke:none"
             d="M 0,0 V 2.887 H 1.553 V 0 h 3.098 v 2.887 h 1.638 v -4.39 H -5.968 v 2.415 h 1.156 v 1.975 h 1.713 V 0 Z m -13.752,-7.053 c 0.563,-0.037 1.104,-0.148 1.616,-0.327 l 0.637,1.75 c -0.668,0.228 -1.372,0.371 -2.103,0.419 h -0.15 z m 2.328,-0.626 c 0.465,-0.229 0.895,-0.518 1.285,-0.851 l 1.356,1.355 c -0.599,0.511 -1.271,0.939 -1.997,1.264 z m 1.841,-1.388 c 0.234,-0.259 0.448,-0.537 0.637,-0.832 l 1.986,0.531 c -0.35,0.607 -0.774,1.167 -1.259,1.665 z m 1.022,-1.529 c 0.188,-0.396 0.334,-0.817 0.434,-1.254 h 1.895 v 0.555 c 0,0.391 -0.243,0.953 -0.366,1.225 z m -0.148,-2.6 c 0,3.358 -2.788,5.45 -5.45,5.45 -2.661,0 -5.45,-2.112 -5.45,-5.45 v -7.609 H -8.71 Z m -11.48,1.346 c 0.099,0.43 0.242,0.844 0.425,1.236 l -1.963,0.525 c -0.12,-0.265 -0.36,-0.807 -0.36,-1.206 v -0.555 z m 0.809,1.932 c 0.182,0.287 0.386,0.558 0.61,0.809 l -1.367,1.366 c -0.474,-0.492 -0.888,-1.045 -1.229,-1.643 z m 1.16,1.352 c 0.382,0.333 0.806,0.622 1.261,0.855 l -0.644,1.769 c -0.718,-0.33 -1.381,-0.759 -1.972,-1.27 z m 1.97,1.162 c 0.545,0.197 1.123,0.319 1.725,0.354 v 1.839 h -0.189 c -0.756,-0.051 -1.484,-0.202 -2.172,-0.443 z m 5.713,2.193 c 1.355,-0.596 2.539,-1.516 3.452,-2.66 v 2.66 z m 4.176,-3.717 c 0.297,-0.502 0.547,-1.036 0.741,-1.594 h 1.737 v 1.594 z m -16.335,-1.594 c 0.195,0.558 0.443,1.092 0.739,1.594 h -2.46 v -1.594 z m 1.417,2.59 c 0.918,1.174 2.121,2.115 3.5,2.721 h -3.5 z m 15.047,-4.691 h -1.706 v -1.466 h 1.706 z m 0,-2.238 h -1.706 v -1.467 h 1.706 z m 0,-2.239 h -1.706 v -1.466 h 1.706 z m 0,-2.239 h -1.706 v -1.466 h 1.706 z m -14.15,6.716 h -1.705 v -0.85 h 0.006 v -0.616 h 1.699 z m 0,-2.238 h -1.705 v -1.467 h 1.705 z m 0,-2.239 h -1.699 v -0.625 h -0.006 v -0.841 h 1.705 z m 0,-2.239 h -1.705 v -1.466 h 1.705 z m -4.6,2.386 h 2.122 v 2.707 h -2.122 z m -0.772,2.707 h -2.84 v -2.707 h 2.84 z m -0.674,-6.559 h 3.568 v 3.079 h -3.568 z m -0.772,3.08 h -1.393 v -3.079 h 1.393 z m 0.772,4.252 h 3.568 v 2.179 h -3.568 z m -0.772,2.178 h -1.393 v -2.179 h 1.393 z m 2.011,2.367 h -3.404 v -1.595 h 3.404 z m 3.138,3.717 h -4.377 v -2.944 h 4.377 z m -5.149,0 h -4.045 v -2.944 h 4.045 z m -4.818,0 h -2.377 v -2.944 h 2.377 z m 38.307,0 H 3.654 v -2.944 h 2.635 z m -3.408,0 h -4.045 v -2.944 h 4.045 z m -4.818,0 h -4.376 v -2.944 h 4.376 z m -32.458,0.773 h 1.637 v 2.162 h -1.637 z m 2.411,0 h 2.948 v 2.162 h -2.948 z m 3.72,0 h 2.484 v 2.162 h -2.484 z m 3.256,0 h 5.273 v 2.162 h -5.273 z m 6.047,0 h 4.437 v 2.162 h -4.437 z m 5.209,0 h 4.437 v 2.162 h -4.437 z m 5.21,0 h 5.248 v 2.162 h -5.248 z m 6.021,0 h 2.483 v 2.162 h -2.483 z m 3.255,0 h 2.948 v 2.162 H 0.734 Z m 3.722,0 h 1.833 v 2.162 H 4.456 Z m -3.331,-4.49 v -12.65 h -30.491 v 12.65 h -5.801 V 3.66 h 3.183 V 0.773 h 1.552 V 3.66 h 3.099 V 0.773 h 1.554 V 3.66 h 0.772 V 3.659 h 1.543 l 10e-4,6.509 h 3.326 v -2.99 h 1.782 v 2.99 h 3.326 v -2.99 h 1.781 v 2.99 h 3.327 v -2.99 h 1.781 v 2.99 l 3.328,-10e-4 V 3.659 h 1.713 V 3.66 h 0.773 V 0.773 h 1.553 V 3.66 H 2.326 V 0.773 H 3.879 V 3.66 H 7.061 V -8.927 H 1.125 Z m -0.773,0 h -3.463 v -1.595 H 0.352 Z M -23.464,2.887 h -1.543 V 0 h -0.772 v 0.001 h -1.554 V 0 h -0.774 v 2.887 h -1.552 V 0 h -3.099 v 2.887 h -1.637 v -4.39 h 12.086 v 2.415 h -1.155 z m 1.929,-1.976 h 4.417 v -2.415 h -4.417 z m 5.189,0 h 4.416 v -2.415 h -4.416 z m 5.19,0 h 4.416 v -2.415 h -4.416 z m 5.697,-21.716 h 3.586 v 3.079 h -3.586 z m 4.359,0 h 1.452 v 3.079 H -1.1 Z m -4.485,30.2 V 5.454 h -17.106 v 3.941 h 1.781 V 6.404 h 3.327 l -0.001,2.991 h 1.783 V 6.404 h 3.326 v 2.991 h 1.782 V 6.404 h 3.328 V 9.395 Z M -22.691,4.682 h 3.416 V 1.685 h -3.416 z m 4.188,0 h 4.123 V 1.685 h -4.123 z m 4.896,0 h 4.122 V 1.685 h -4.122 z m 4.895,0 h 3.127 V 1.685 h -3.127 z m 9.064,-18.928 h -2.898 v -2.707 h 2.898 z m 0,2.951 H -1.1 v -2.179 h 1.452 z m -3.67,-5.658 h -2.141 v 2.707 h 2.141 z m 1.445,5.658 v -2.178 h -3.586 v 2.178" /></g><path
           id="path40"
           style="fill:#122e66;fill-opacity:1;fill-rule:evenodd;stroke:none"
           d="m 69.087,129.001 h 21.545 v 1.19 H 69.087 Z m 40.094,0 h 21.65 v 1.19 h -21.65 z M 69.944,116.255 h 9.191 v 1.19 h -9.191 z m 50.999,0 h 9.031 v 1.19 h -9.031 z m -50.364,-9.937 h 14.154 v 1.191 H 70.579 Z m 23.805,0 h 10.996 v 1.191 H 94.384 Z m 20.73,0 h 14.208 v 1.191 H 115.114 Z M 92.753,100.906 87.245,95.414 H 73.071 v -1.19 h 53.776 v 1.19 h -14.826 l -5.491,5.492 h -1.682 l 5.492,-5.492 H 88.928 l 5.491,5.492 z" /><g
           transform="translate(121.3262,142.9258)"
           id="g42"><path
             id="path44"
             style="fill:#122e66;fill-opacity:1;fill-rule:evenodd;stroke:none"
             d="m 0,0 1.716,-3.553 3.909,-0.533 -2.85,-2.73 0.702,-3.883 -3.477,1.865 -3.477,-1.865 0.7,3.883 -2.849,2.73 3.909,0.533 z m -21.498,-49.232 1.716,-3.553 3.91,-0.534 -2.85,-2.731 0.701,-3.882 -3.477,1.865 -3.478,-1.865 0.702,3.882 -2.85,2.731 3.91,0.534 z m 0,-2.465 0.986,-2.042 2.246,-0.306 -1.637,-1.569 0.403,-2.234 -1.998,1.073 -1.998,-1.073 0.402,2.234 -1.637,1.569 2.247,0.306 z M -42.723,0 l 1.716,-3.553 3.909,-0.533 -2.848,-2.73 0.7,-3.883 -3.477,1.865 -3.476,-1.865 0.7,3.883 -2.85,2.73 3.911,0.533 z m 0,-2.464 0.987,-2.042 2.246,-0.306 -1.637,-1.57 0.402,-2.232 -1.998,1.072 -1.998,-1.072 0.403,2.232 -1.637,1.57 2.245,0.306 z M 0,-2.464 0.985,-4.506 3.231,-4.812 1.595,-6.382 1.997,-8.614 0,-7.542 l -1.999,-1.072 0.402,2.232 -1.636,1.57 2.246,0.306" /></g><g
           transform="translate(81.5508,69.4355)"
           id="g46"><path
             id="path48"
             style="fill:#122e66;fill-opacity:1;fill-rule:evenodd;stroke:none"
             d="m 0,0 c -0.173,-0.014 -0.238,-0.108 -0.193,-0.278 0.014,-0.174 -0.004,-0.306 -0.054,-0.398 -0.025,-0.032 -0.078,-0.109 -0.156,-0.232 -0.266,-0.286 -0.452,-0.491 -0.559,-0.616 -0.132,-0.158 -0.183,-0.235 -0.153,-0.232 0.03,-0.027 0.155,0.027 0.377,0.162 0.082,0.066 0.319,0.203 0.71,0.41 0.251,0.139 0.416,0.242 0.498,0.306 0.055,0.035 0.167,0.087 0.337,0.16 0.224,0.107 0.304,0.202 0.237,0.282 C 0.698,-0.145 0.351,0.001 0,0 M 13.803,0.697 C 13.771,0.695 13.729,0.678 13.67,0.644 12.864,0.328 11.462,0.072 9.465,-0.124 8.922,-0.184 8.879,-0.278 9.344,-0.405 c 0.49,-0.066 0.976,-0.054 1.458,0.032 0.165,-0.235 0.12,-0.588 -0.127,-1.057 C 10.199,-2.245 9.68,-2.759 9.112,-2.972 9.023,-3.008 8.964,-3.04 8.935,-3.072 8.852,-3.229 8.833,-3.443 8.877,-3.714 c 0.04,-0.181 0.12,-0.269 0.243,-0.261 0,0 0.135,0.037 0.405,0.113 0.389,0.111 1.783,0.504 4.18,1.176 0.033,-0.028 0.064,-0.056 0.097,-0.086 0.387,-0.405 0.653,-0.574 0.803,-0.505 0.316,0.319 0.281,0.729 -0.111,1.226 -0.258,0.261 -0.695,0.482 -1.311,0.662 -0.587,0.152 -0.769,0.112 -0.541,-0.121 0.224,-0.231 0.499,-0.536 0.822,-0.915 -1.536,-0.292 -2.742,-0.509 -3.616,-0.644 0.434,0.387 1.013,0.979 1.732,1.778 0.057,0.064 0.13,0.128 0.218,0.193 0.441,0.267 0.367,0.537 -0.225,0.81 1.298,0.19 2.217,0.346 2.76,0.463 0.299,0.079 0.384,0.204 0.252,0.38 -0.127,0.114 -0.388,0.163 -0.782,0.142 m 13.22,0.139 C 26.87,0.816 26.85,0.726 26.965,0.568 27.109,0.405 27.09,0.058 26.91,-0.48 c -0.497,-1.922 -1.13,-3.271 -1.9,-4.053 -0.26,-0.291 -0.217,-0.338 0.128,-0.144 0.916,0.653 1.644,1.755 2.181,3.308 0.199,-0.282 0.532,-0.879 1.002,-1.785 0.223,-0.377 0.377,-0.645 0.461,-0.801 0.096,-0.46 0.605,-0.639 1.522,-0.535 0.091,-0.005 0.166,-0.009 0.228,-0.013 0.304,0.014 0.503,0.05 0.598,0.107 0.095,0.054 0.053,0.119 -0.127,0.188 -1.446,0.866 -2.39,1.678 -2.838,2.431 -0.314,0.38 -0.545,0.636 -0.689,0.766 0.111,0.418 0.253,0.778 0.42,1.073 0.037,0.088 0.053,0.164 0.055,0.224 -0.109,0.189 -0.419,0.372 -0.928,0.55 m 11.714,-5.857 c 0.27,-0.062 0.726,-0.085 1.37,-0.068 0.426,-0.017 0.701,-0.036 0.82,-0.05 0.363,-0.043 0.555,0.028 0.575,0.209 -0.002,0.246 -0.168,0.402 -0.497,0.471 -0.21,0.025 -0.594,0.008 -1.153,-0.05 -0.465,-0.068 -0.822,-0.102 -1.067,-0.106 0.119,1.026 0.253,1.775 0.4,2.248 0.051,0.178 0.1,0.341 0.146,0.488 0.045,0.116 0.071,0.205 0.078,0.265 -0.115,0.321 -0.548,0.553 -1.295,0.702 -0.187,-0.041 -0.207,-0.208 -0.057,-0.498 0.095,-0.227 0.149,-0.415 0.163,-0.57 0.073,-0.958 -0.152,-3.149 -0.67,-6.575 l -1.736,0.064 c 0.002,0.274 0.013,0.641 0.034,1.098 0.047,1.188 0.101,1.916 0.162,2.182 0.013,0.121 0.047,0.271 0.099,0.448 0.044,0.117 0.054,0.208 0.031,0.271 -0.214,0.269 -0.587,0.481 -1.119,0.635 -0.212,0.025 -0.23,-0.126 -0.052,-0.452 0.126,-0.23 0.197,-0.407 0.213,-0.53 0.08,-0.622 0.063,-1.828 -0.052,-3.619 -0.709,-0.039 -1.409,-0.019 -2.103,0.062 -0.367,0.01 -0.508,-0.033 -0.427,-0.134 0.168,-0.113 0.475,-0.225 0.923,-0.337 1.442,0.047 2.954,0.024 4.533,-0.067 0.727,-0.053 1.452,-0.137 2.173,-0.252 0.692,-0.08 1.353,-0.188 1.981,-0.322 0.51,-0.088 0.722,0.025 0.635,0.34 -0.202,0.359 -0.542,0.583 -1.022,0.668 -0.152,0.018 -0.596,0.009 -1.335,-0.027 -0.978,-0.01 -1.729,-0.015 -2.25,-0.015 z M 23.115,0.267 c 0.484,-0.663 0.904,-1.037 1.266,-1.117 0.462,0.129 0.523,0.414 0.181,0.859 -1.039,0.509 -1.52,0.596 -1.447,0.258 m 1.677,-1.959 c -0.06,0.004 -0.274,-0.033 -0.644,-0.105 -1.353,-0.293 -2.608,-0.425 -3.763,-0.394 -0.212,-0.02 -0.233,-0.095 -0.056,-0.225 0.232,-0.227 0.483,-0.376 0.751,-0.45 0.092,-0.005 0.63,0.118 1.616,0.371 0.088,-1.253 -0.792,-2.667 -2.64,-4.243 -0.252,-0.169 -0.256,-0.23 -0.01,-0.182 0.217,0.05 0.467,0.174 0.749,0.372 1.073,0.704 1.818,1.579 2.236,2.62 0.031,-0.002 0.092,-0.019 0.181,-0.055 0.386,-0.171 0.594,-0.29 0.62,-0.351 0.051,-0.216 -0.05,-0.651 -0.297,-1.309 -0.245,-0.625 -0.446,-0.979 -0.602,-1.062 -0.031,0.002 -0.165,0.038 -0.405,0.112 -0.446,0.176 -0.613,0.2 -0.499,0.072 0.258,-0.318 0.422,-0.645 0.496,-0.985 -0.004,-0.06 0.01,-0.092 0.041,-0.092 0.239,-0.105 0.516,-0.012 0.836,0.275 0.259,0.289 0.478,0.719 0.66,1.288 0.22,0.719 0.431,1.24 0.631,1.564 0.034,0.09 0.053,0.149 0.054,0.18 -0.107,0.249 -0.296,0.443 -0.563,0.577 -0.061,0.003 -0.135,0.023 -0.225,0.058 -0.242,0.013 -0.469,0.039 -0.679,0.081 0.034,0.09 0.1,0.193 0.198,0.309 0.098,0.146 0.135,0.252 0.107,0.314 0.034,0.057 -0.171,0.221 -0.612,0.487 0.828,0.14 1.531,0.21 2.109,0.21 0.303,-0.015 0.43,0.067 0.38,0.254 -0.113,0.188 -0.336,0.291 -0.67,0.309 m 1.672,-2.963 c 0.027,-0.031 0.07,-0.095 0.126,-0.19 0.513,-0.634 0.847,-0.94 1,-0.919 0.437,0.192 0.513,0.492 0.23,0.902 -0.982,0.415 -1.434,0.485 -1.356,0.207 m -0.377,-1.943 c 0.651,-0.916 1.199,-1.477 1.645,-1.683 0.466,0.188 0.517,0.552 0.15,1.089 -0.265,0.195 -0.708,0.417 -1.336,0.662 -0.419,0.113 -0.571,0.092 -0.459,-0.068 m -13.559,1.159 c 0.454,0.053 0.935,0.139 1.448,0.257 0.452,0.055 0.674,0.159 0.666,0.31 -0.041,0.182 -0.272,0.259 -0.696,0.236 -0.091,-0.005 -0.228,-0.026 -0.408,-0.066 -0.181,-0.009 -0.513,-0.071 -0.994,-0.187 -0.013,0.241 0.019,0.487 0.098,0.734 0.026,0.093 0.022,0.169 -0.012,0.226 -0.53,0.278 -0.933,0.408 -1.207,0.393 -0.122,-0.006 -0.115,-0.126 0.02,-0.362 0.203,-0.386 0.315,-0.775 0.335,-1.171 C 11.506,-5.112 11.144,-5.178 10.693,-5.262 10.18,-5.35 9.908,-5.395 9.878,-5.395 9.429,-5.511 9.509,-5.612 10.122,-5.703 c 0.489,-0.034 1.049,0.012 1.683,0.136 l 0.126,-1.546 C 10.693,-7.3 9.514,-7.454 8.396,-7.572 8.214,-7.613 8.079,-7.634 7.988,-7.639 7.564,-7.691 7.4,-7.761 7.497,-7.848 c 0.155,-0.051 0.477,-0.111 0.967,-0.176 0.031,10e-4 0.138,0.022 0.316,0.061 2.529,0.527 5.134,0.74 7.817,0.638 0.515,-0.003 0.691,0.143 0.524,0.437 -0.23,0.294 -0.634,0.454 -1.214,0.487 -0.089,-0.006 -0.255,-0.029 -0.496,-0.074 -0.784,-0.162 -1.718,-0.334 -2.802,-0.51 z m -15.864,4.587 c -0.147,0.014 -0.184,-0.061 -0.111,-0.23 0.104,-0.195 0.283,-0.397 0.534,-0.609 0.159,-0.163 0.308,-0.207 0.447,-0.137 0.141,0.069 0.2,0.207 0.184,0.409 -0.119,0.368 -0.47,0.557 -1.054,0.567 m 2.381,-2.771 c 0.749,0.093 1.249,0.195 1.503,0.306 0.245,0.193 0.078,0.282 -0.504,0.262 -0.086,-0.008 -0.26,-0.038 -0.517,-0.09 -0.198,-0.074 -0.355,-0.118 -0.47,-0.128 -0.004,0.059 0.017,0.148 0.065,0.269 0.02,0.09 0.03,0.162 0.024,0.221 -0.007,0.086 -0.088,0.183 -0.242,0.285 1.032,0.205 1.705,0.351 2.018,0.435 0.168,0.073 0.203,0.178 0.103,0.316 -0.123,0.076 -0.314,0.102 -0.575,0.08 -0.028,-0.002 -0.13,-0.026 -0.3,-0.068 -1.082,-0.326 -2.311,-0.578 -3.695,-0.755 -0.259,-0.05 -0.282,-0.125 -0.068,-0.224 0.179,-0.072 0.444,-0.093 0.793,-0.063 0.231,0.02 0.473,0.056 0.732,0.106 0.158,-0.133 0.281,-0.383 0.372,-0.756 -0.402,-0.091 -0.831,-0.171 -1.291,-0.241 -0.167,-0.102 -0.072,-0.18 0.282,-0.237 0.263,-0.007 0.625,0.039 1.082,0.135 l 0.064,-0.737 c -0.978,-0.171 -1.696,-0.277 -2.159,-0.316 -0.227,-0.077 -0.219,-0.164 0.021,-0.26 0.178,-0.045 0.484,-0.046 0.919,-0.009 0.346,0.03 0.649,0.072 0.907,0.12 0.142,0.043 0.258,0.068 0.346,0.075 l 0.092,-1.611 c -0.087,-0.008 -0.216,-0.032 -0.388,-0.077 -2.187,-0.304 -3.5,-0.46 -3.937,-0.467 -0.202,-0.017 -0.24,-0.081 -0.115,-0.184 0.219,-0.186 0.462,-0.313 0.731,-0.376 0.03,0.003 0.144,0.025 0.345,0.073 0.787,0.331 2.666,0.681 5.636,1.053 0.752,0.063 1.668,0.082 2.749,0.059 0.087,0.008 0.131,0.012 0.131,0.012 0.316,0.057 0.33,0.216 0.046,0.485 -0.28,0.208 -0.609,0.296 -0.984,0.264 C 2.616,-5.678 2.229,-5.754 1.6,-5.896 1.086,-6.028 0.741,-6.1 0.568,-6.115 0.974,-5.73 1.255,-5.445 1.414,-5.257 1.519,-5.13 1.482,-5.031 1.3,-4.959 1.027,-4.837 0.763,-4.802 0.505,-4.854 0.39,-4.864 0.366,-4.938 0.436,-5.078 0.508,-5.247 0.533,-5.376 0.514,-5.464 0.394,-5.766 0.257,-6.025 0.099,-6.243 l -0.949,-0.168 -0.045,1.57 c 0.229,0.047 0.574,0.108 1.034,0.174 0.66,0.117 1.091,0.196 1.291,0.243 0.227,0.077 0.276,0.17 0.15,0.275 -0.151,0.074 -0.4,0.098 -0.748,0.068 C 0.775,-4.087 0.587,-4.117 0.271,-4.175 -0.16,-4.239 -0.563,-4.303 -0.936,-4.365 Z m -1.44,-2.091 c -0.16,0.161 -0.443,0.253 -0.854,0.278 -0.146,-0.013 -0.133,-0.158 0.036,-0.436 0.234,-0.358 0.427,-0.546 0.574,-0.562 0.307,0.144 0.39,0.383 0.244,0.72 M 0.662,-7.2 c -0.087,-0.007 -0.401,-0.079 -0.944,-0.214 -0.884,-0.221 -1.641,-0.402 -2.27,-0.542 -0.218,0.156 -0.427,0.211 -0.627,0.164 -0.141,-0.042 -0.132,-0.142 0.026,-0.305 0.101,-0.135 0.212,-0.432 0.339,-0.887 0.085,-0.314 0.167,-0.585 0.244,-0.812 0.109,-0.251 0.236,-0.386 0.386,-0.403 0.112,0.04 0.144,0.187 0.091,0.444 0.087,0.008 0.433,0.053 1.037,0.134 1.296,0.199 2.146,0.314 2.551,0.348 0.114,0.041 0.124,0.099 0.03,0.179 -0.097,0.108 -0.237,0.184 -0.414,0.228 0.195,0.453 0.444,0.766 0.75,0.936 0.137,0.1 0.067,0.239 -0.211,0.421 -0.366,0.202 -0.696,0.304 -0.988,0.309 m -3.104,-1.011 c 0.057,0.006 0.245,0.037 0.559,0.093 0.83,0.188 1.605,0.311 2.329,0.374 0.116,0.01 0.172,-0.131 0.167,-0.423 -0.028,-0.351 -0.107,-0.62 -0.237,-0.808 l -2.535,-0.522" /></g><g
           transform="translate(128.1317,71)"
           id="g50"><path
             id="path52"
             style="fill:#122e66;fill-opacity:1;fill-rule:evenodd;stroke:none"
             d="m 0,0 c 1.321,1.448 1.719,2.709 1.727,3.873 0.01,1.382 -0.702,2.126 -1.383,2.936 -0.725,0.86 -1.434,1.772 -1.847,2.833 -0.315,0.804 -0.183,2.117 0.226,3.435 0.813,2.623 3.394,4.392 5.841,4.392 h 6.084 l 0.033,3.167 c 0.045,1.904 -0.975,3.551 -1.705,5.303 -0.531,1.279 -0.841,2.643 -0.817,4.064 l 0.126,7.585 h 0.052 c 0.693,-1.11 1.381,-2.211 2.076,-3.298 0.867,1.422 3.066,2.436 5.63,2.436 3.32,0 6.027,-1.701 6.027,-3.785 0,-1.146 -0.822,-2.173 -2.11,-2.869 v -7.91 l 10e-4,-0.012 c 0.532,-0.647 1.027,-1.313 1.456,-2.007 0.919,-1.491 1.408,-3.233 1.08,-5.016 C 21.666,10.617 14.058,6.179 13.97,1.499 13.952,0.56 14.007,-1.613 13.912,-3.266 13.869,-4.016 13.878,-4.658 13.689,-5.028 13.329,-5.733 12.63,-5.875 11.914,-5.725 10.409,-5.412 8.403,-3.287 7.017,-3.651 5.805,-3.973 5.437,-5.16 5.235,-6.334 4.931,-8.106 4.443,-9.861 3.631,-11.523 2.859,-13.109 1.97,-14.309 1.237,-15.141 c -0.523,-0.597 -0.988,-0.911 -1.542,-1.084 -0.552,-0.173 -1.195,-0.207 -2.015,0.028 -16.325,4.662 -35.303,4.66 -51.622,0 -0.82,-0.235 -1.463,-0.201 -2.016,-0.028 -0.554,0.173 -1.018,0.487 -1.542,1.084 -0.733,0.832 -1.621,2.032 -2.393,3.618 -0.812,1.662 -1.301,3.417 -1.605,5.189 -0.201,1.174 -0.569,2.361 -1.782,2.683 -1.386,0.364 -3.393,-1.761 -4.898,-2.074 -0.714,-0.15 -1.414,-0.008 -1.774,0.697 -0.189,0.37 -0.181,1.012 -0.223,1.762 -0.095,1.653 -0.04,3.826 -0.058,4.765 -0.087,4.68 -7.696,9.118 -8.528,13.628 -0.328,1.783 0.163,3.525 1.082,5.016 0.427,0.694 0.923,1.36 1.456,2.007 l 0.001,0.012 v 7.91 c -1.289,0.696 -2.11,1.723 -2.11,2.869 0,2.084 2.706,3.785 6.027,3.785 2.563,0 4.762,-1.014 5.629,-2.436 0.694,1.087 1.382,2.188 2.076,3.298 h 0.051 l 0.126,-7.585 c 0.024,-1.421 -0.285,-2.785 -0.815,-4.064 -0.731,-1.752 -1.751,-3.399 -1.705,-5.303 l 0.031,-3.167 h 6.085 c 2.446,0 5.028,-1.769 5.842,-4.392 0.408,-1.318 0.539,-2.631 0.225,-3.435 -0.414,-1.061 -1.122,-1.973 -1.846,-2.833 -0.682,-0.81 -1.395,-1.554 -1.384,-2.936 0.008,-1.164 0.425,-2.455 1.745,-3.903 20.163,4.367 35.863,4.385 56.244,0.03 z m -2.476,-14.876 c 0.563,-0.185 1.165,-0.214 1.418,0.688 1.163,3.245 -0.219,7.311 -0.097,10.561 0.033,0.868 0.175,1.679 0.501,2.398 -18.838,4.259 -36.056,4.256 -54.954,0 0.325,-0.719 0.468,-1.53 0.5,-2.398 0.123,-3.25 -1.26,-7.316 -0.096,-10.561 0.253,-0.902 0.855,-0.873 1.418,-0.688 16.339,4.467 34.977,4.465 51.31,0 m -53.736,0.151 c -0.776,1.549 -0.739,3.75 -0.542,5.954 0.203,2.272 0.575,4.55 0.272,6.116 -0.212,1.094 -0.733,1.501 -1.327,2.35 -1.44,2.061 -2.284,4.789 -0.639,6.886 1.07,1.367 2.564,2.551 2.574,3.94 0.012,1.575 -0.409,4.82 -3.971,5.562 l -7.577,0.037 c -0.309,-1.367 -0.626,-4.78 0.091,-6.005 1.145,-1.956 2.6,-4.387 2.761,-7.295 l 0.139,-5.437 c 0.074,0.025 0.148,0.049 0.221,0.07 0,0 2.139,0.814 3.211,-1.402 0.716,-1.481 0.743,-3.399 1.268,-5.013 0.458,-1.413 1.211,-2.948 2.115,-4.133 0.295,-0.386 1.095,-1.499 1.404,-1.63 m -11.993,31.113 c 0.007,0.581 0.043,3.565 0.114,5.114 0.073,1.539 1.024,2.984 1.673,4.487 0.473,1.097 0.681,2.231 0.795,3.45 0.134,1.454 0.092,3.017 0.092,4.715 0,0 -2.249,-3.745 -5.504,-7.854 -1.67,-2.109 -4.242,-4.349 -5.605,-6.546 -0.803,-1.297 -1.726,-3.69 -0.609,-5.733 0.324,-0.589 0.716,-1.158 1.152,-1.717 l -0.029,0.056 c 0,0 4.78,-0.044 7.921,4.028 m -6.94,-5.231 c 2.52,-2.876 5.746,-5.655 6.07,-9.687 0.008,-0.695 -0.187,-5.385 0.23,-5.811 0.191,-0.193 0.557,-0.397 1.142,-0.084 0,0 1.057,0.762 2.209,1.346 -0.029,0.966 -0.1,3.188 -0.213,5.592 -0.09,1.904 -0.83,4.199 -2.006,5.914 -1.059,1.545 -1.363,3.662 -1.172,5.46 0,0 -3.111,-2.193 -6.26,-2.73 m 0.18,12.435 c 1.253,1.372 2.581,2.698 3.688,4.102 0.533,0.678 1.049,1.365 1.55,2.059 h -5.238 z m 6.157,7.465 c 0.465,0.68 0.923,1.364 1.373,2.055 -0.165,1.428 -2.381,2.569 -4.87,2.569 -2.588,0 -4.883,-1.233 -4.883,-2.74 0,-0.714 0.516,-1.365 1.334,-1.855 0.298,-0.124 0.593,-0.197 0.889,-0.223 h 5.716 c 0.181,0 0.279,0.103 0.441,0.194 m 68.756,-45.782 c 0.778,1.549 0.741,3.75 0.543,5.954 -0.203,2.272 -0.576,4.55 -0.271,6.116 0.211,1.094 0.732,1.501 1.327,2.35 1.44,2.061 2.282,4.789 0.639,6.886 -1.072,1.367 -2.566,2.551 -2.574,3.94 -0.012,1.575 0.408,4.82 3.971,5.562 l 7.576,0.037 c 0.309,-1.367 0.625,-4.78 -0.09,-6.005 C 9.924,8.159 8.468,5.728 8.308,2.82 l -0.14,-5.437 c -0.073,0.025 -0.148,0.049 -0.221,0.07 0,0 -2.138,0.814 -3.211,-1.402 -0.715,-1.481 -0.743,-3.399 -1.268,-5.013 -0.457,-1.413 -1.21,-2.948 -2.114,-4.133 -0.295,-0.386 -1.095,-1.499 -1.406,-1.63 m 11.995,31.113 c -0.007,0.581 -0.043,3.565 -0.116,5.114 -0.071,1.539 -1.022,2.984 -1.672,4.487 -0.473,1.097 -0.681,2.231 -0.795,3.45 -0.134,1.454 -0.091,3.017 -0.091,4.715 0,0 2.249,-3.745 5.504,-7.854 1.67,-2.109 4.242,-4.349 5.604,-6.546 0.804,-1.297 1.726,-3.69 0.609,-5.733 -0.325,-0.589 -0.715,-1.158 -1.151,-1.717 l 0.028,0.056 c 0,0 -4.78,-0.044 -7.92,4.028 m 6.94,-5.231 C 16.363,8.281 13.136,5.502 12.813,1.47 12.804,0.775 13,-3.915 12.582,-4.341 c -0.191,-0.193 -0.556,-0.397 -1.141,-0.084 0,0 -1.058,0.762 -2.209,1.346 0.028,0.966 0.098,3.188 0.212,5.592 0.09,1.904 0.831,4.199 2.005,5.914 1.061,1.545 1.365,3.662 1.173,5.46 0,0 3.112,-2.193 6.261,-2.73 m -0.182,12.435 c -1.252,1.372 -2.58,2.698 -3.686,4.102 -0.535,0.678 -1.05,1.365 -1.55,2.059 h 5.236 z m -6.155,7.465 c -0.467,0.68 -0.924,1.364 -1.374,2.055 0.165,1.428 2.382,2.569 4.871,2.569 2.588,0 4.882,-1.233 4.882,-2.74 0,-0.714 -0.516,-1.365 -1.334,-1.855 -0.297,-0.124 -0.594,-0.197 -0.89,-0.223 h -5.714 c -0.181,0 -0.281,0.103 -0.441,0.194" /></g><g
           transform="translate(77.9443,148.4933)"
           id="g54"><path
             id="path56"
             style="fill:#122e66;fill-opacity:1;fill-rule:evenodd;stroke:none"
             d="m 0,0 -15.984,-13.905 c 4.437,-0.513 7.401,-5.345 7.413,-9.524 l 0.031,-9.65 c 0.021,-8.622 0.33,-23.894 9.73,-27.683 1.691,-0.681 10.401,-2.726 14.603,-4.793 4.988,-2.636 5.53,-4.768 6.253,-5.175 0.724,0.407 1.25,2.539 6.238,5.175 4.202,2.067 12.911,4.112 14.603,4.793 9.4,3.789 9.709,19.061 9.729,27.683 l 0.032,9.65 c 0.011,4.179 2.975,9.011 7.413,9.524 L 44.077,0 C 36.485,-4.717 31.365,-6.89 22.046,-6.89 12.727,-6.89 7.592,-4.717 0,0 m 0.237,-2.096 c 7.112,-4.416 13.084,-6.285 21.809,-6.285 8.725,0 14.682,1.869 21.793,6.285 l 13.127,-11.158 c -0.3,0.05 -3.645,-1.698 -5.223,-6.556 -0.634,-1.955 -0.682,-4.381 -0.65,-6.825 0.029,-2.297 -0.053,-4.612 -0.032,-6.571 -0.124,-8.024 -0.17,-22.282 -8.793,-26.096 -1.594,-0.641 -9.898,-2.529 -13.857,-4.475 -4.779,-2.35 -5.486,-3.722 -6.365,-4.287 -0.878,0.565 -1.602,1.937 -6.38,4.287 -3.96,1.946 -12.263,3.834 -13.857,4.475 -8.623,3.814 -8.669,18.072 -8.793,26.096 0.02,1.959 -0.062,4.274 -0.032,6.571 0.032,2.444 -0.016,4.87 -0.651,6.825 -1.577,4.858 -4.923,6.606 -5.222,6.556 z" /></g></g></g></g></svg>