<?xml version="1.0" encoding="UTF-8" standalone="no"?>
<!-- Generator: Adobe Illustrator 24.0.1, SVG Export Plug-In . SVG Version: 6.00 Build 0)  -->

<svg
   version="1.1"
   id="图层_1"
   x="0px"
   y="0px"
   viewBox="0 0 200 200"
   xml:space="preserve"
   sodipodi:docname="未标题-1.svg"
   width="200"
   height="200"
   inkscape:version="1.2 (dc2aedaf03, 2022-05-15)"
   xmlns:inkscape="http://www.inkscape.org/namespaces/inkscape"
   xmlns:sodipodi="http://sodipodi.sourceforge.net/DTD/sodipodi-0.dtd"
   xmlns="http://www.w3.org/2000/svg"
   xmlns:svg="http://www.w3.org/2000/svg"><defs
   id="defs346" /><sodipodi:namedview
   id="namedview344"
   pagecolor="#ffffff"
   bordercolor="#000000"
   borderopacity="0.25"
   inkscape:showpageshadow="2"
   inkscape:pageopacity="0.0"
   inkscape:pagecheckerboard="0"
   inkscape:deskcolor="#d1d1d1"
   showgrid="false"
   inkscape:zoom="2.1921471"
   inkscape:cx="166.27534"
   inkscape:cy="95.340316"
   inkscape:window-width="1440"
   inkscape:window-height="829"
   inkscape:window-x="-8"
   inkscape:window-y="-8"
   inkscape:window-maximized="1"
   inkscape:current-layer="图层_1" />
<style
   type="text/css"
   id="style175">
	.st0{fill-rule:evenodd;clip-rule:evenodd;fill:#004F8D;}
	.st1{fill:#006C46;}
	.st2{fill-rule:evenodd;clip-rule:evenodd;fill:#006C46;}
	.st3{fill:#004F8D;}
</style>
<g
   id="g341"
   transform="matrix(2.1043771,0,0,2.1043771,-894.97054,-2458.7542)">
	<path
   class="st0"
   d="m 470.48,1243.93 v -0.45 c 0.19,-0.05 0.34,-0.18 0.45,-0.39 0.11,-0.27 0.19,-0.66 0.21,-1.19 -0.08,0.16 -0.18,0.32 -0.32,0.39 -0.11,0.08 -0.21,0.11 -0.34,0.13 V 1242 c 0.19,0 0.34,-0.08 0.45,-0.21 0.11,-0.13 0.16,-0.32 0.16,-0.53 0,-0.37 -0.05,-0.63 -0.16,-0.79 -0.11,-0.16 -0.26,-0.24 -0.45,-0.26 v -0.42 c 0.37,0 0.66,0.16 0.87,0.48 0.24,0.31 0.34,0.81 0.34,1.53 0,0.66 -0.11,1.16 -0.34,1.56 -0.21,0.33 -0.5,0.54 -0.87,0.57 m 4.09,-0.06 h -2.38 v -0.37 c 0.08,-0.26 0.21,-0.48 0.4,-0.71 0.16,-0.21 0.4,-0.45 0.71,-0.71 0.21,-0.21 0.37,-0.39 0.47,-0.58 0.11,-0.16 0.16,-0.34 0.16,-0.55 0,-0.21 -0.05,-0.37 -0.13,-0.5 -0.08,-0.16 -0.21,-0.21 -0.42,-0.21 -0.13,0 -0.26,0.08 -0.37,0.21 -0.13,0.13 -0.18,0.4 -0.18,0.76 h -0.55 c 0.03,-0.47 0.13,-0.82 0.32,-1.05 0.21,-0.26 0.5,-0.37 0.82,-0.37 0.37,0 0.63,0.11 0.81,0.32 0.19,0.21 0.29,0.5 0.29,0.87 0,0.29 -0.11,0.55 -0.26,0.77 -0.18,0.24 -0.4,0.45 -0.63,0.69 -0.26,0.24 -0.48,0.42 -0.58,0.55 -0.1,0.13 -0.21,0.29 -0.32,0.45 h 1.85 v 0.43 z m 2.88,-1.13 c 0,0.37 -0.11,0.66 -0.34,0.87 -0.21,0.21 -0.5,0.32 -0.87,0.32 -0.34,0 -0.63,-0.11 -0.84,-0.32 -0.24,-0.21 -0.34,-0.55 -0.34,-0.98 h 0.53 c 0,0.29 0.08,0.5 0.18,0.63 0.13,0.16 0.29,0.21 0.47,0.21 0.21,0 0.37,-0.05 0.48,-0.18 0.13,-0.13 0.19,-0.32 0.19,-0.61 0,-0.21 -0.08,-0.4 -0.19,-0.5 -0.13,-0.13 -0.32,-0.21 -0.64,-0.21 v -0.39 c 0.27,0 0.45,-0.05 0.55,-0.19 0.13,-0.13 0.19,-0.32 0.19,-0.58 0,-0.19 -0.05,-0.35 -0.13,-0.45 -0.08,-0.1 -0.21,-0.16 -0.42,-0.16 -0.19,0 -0.32,0.08 -0.42,0.21 -0.1,0.13 -0.16,0.32 -0.18,0.58 h -0.53 c 0.03,-0.37 0.16,-0.66 0.34,-0.9 0.21,-0.21 0.48,-0.32 0.79,-0.32 0.37,0 0.63,0.11 0.82,0.29 0.18,0.21 0.29,0.45 0.29,0.71 0,0.29 -0.05,0.5 -0.16,0.63 -0.08,0.16 -0.24,0.26 -0.47,0.34 0.24,0.05 0.4,0.16 0.53,0.34 0.11,0.21 0.17,0.42 0.17,0.66 m -9.47,1.13 h -0.55 v -3.14 h -0.71 v -0.29 c 0.29,0 0.5,-0.05 0.66,-0.16 0.16,-0.13 0.26,-0.29 0.32,-0.5 h 0.29 v 4.09 z m 2.5,-4.09 v 0.42 h -0.05 c -0.13,0 -0.27,0.08 -0.37,0.21 -0.11,0.13 -0.16,0.37 -0.16,0.74 0,0.26 0.03,0.47 0.11,0.64 0.11,0.13 0.24,0.21 0.42,0.21 h 0.05 v 0.42 h -0.13 c -0.32,0 -0.55,-0.11 -0.74,-0.32 -0.19,-0.21 -0.29,-0.53 -0.29,-0.95 0,-0.42 0.11,-0.74 0.29,-1 0.19,-0.24 0.47,-0.37 0.84,-0.37 z m 0,3.7 v 0.45 h -0.13 c -0.29,0 -0.53,-0.11 -0.71,-0.32 -0.19,-0.24 -0.26,-0.47 -0.26,-0.74 h 0.53 c 0,0.16 0.05,0.29 0.13,0.42 0.11,0.13 0.21,0.18 0.35,0.18 h 0.09 z"
   id="path177" />
	<polygon
   class="st1"
   points="464.01,1204.79 463.82,1209.79 463.44,1209.77 463.63,1204.77 "
   id="polygon179" />
	<path
   class="st1"
   d="m 463.63,1209.59 c 0.02,0 7.22,-0.09 9.22,-0.03 1.97,0.03 8.85,0.09 8.87,0.09 v 0.38 c -0.02,0 -6.91,-0.06 -8.87,-0.09 v 0 c -1.99,-0.06 -9.18,0.03 -9.21,0.03 z"
   id="path181" />
	
		<rect
   x="481.47"
   y="1204.87"
   transform="matrix(0.9998,-0.0188,0.0188,0.9998,-22.6465,9.2827)"
   class="st1"
   width="0.38"
   height="4.9699998"
   id="rect183" />
	<polygon
   class="st2"
   points="468.19,1209.71 468.31,1204.78 468.13,1203.97 465.94,1204 465.72,1204.75 465.6,1209.71 "
   id="polygon185" />
	<polygon
   class="st2"
   points="474.91,1209.68 474.91,1204.69 474.56,1203.91 470.57,1203.88 470.25,1204.72 470.16,1209.71 "
   id="polygon187" />
	<polygon
   class="st2"
   points="479.62,1209.71 479.56,1204.78 479.25,1204 477.12,1203.97 476.9,1204.75 476.9,1209.71 "
   id="polygon189" />
	<path
   class="st2"
   d="m 459.85,1205.28 c 0.16,-0.78 2.28,-1.15 2.53,-0.03 -0.03,0.97 -0.09,1.94 -0.09,1.94 l -2.5,0.09 c 0.03,-0.66 0.06,-1.34 0.06,-2"
   id="path191" />
	<path
   class="st2"
   d="m 485.4,1205.31 c -0.15,-0.75 -2.28,-1.12 -2.53,-0.03 0.03,1 0.09,1.94 0.09,1.94 l 2.5,0.09 c -0.03,-0.66 -0.06,-1.34 -0.06,-2"
   id="path193" />
	<path
   class="st2"
   d="m 456.23,1205.47 c 0.15,-0.75 2.18,-1.09 2.43,-0.03 -0.03,0.97 -0.06,1.91 -0.06,1.91 l -2.44,0.06 c 0.04,-0.63 0.04,-1.28 0.07,-1.94"
   id="path195" />
	<path
   class="st2"
   d="m 489.02,1205.53 c -0.16,-0.75 -2.18,-1.12 -2.43,-0.03 0.03,0.94 0.06,1.88 0.06,1.88 l 2.44,0.09 c -0.04,-0.66 -0.04,-1.32 -0.07,-1.94"
   id="path197" />
	<path
   class="st2"
   d="m 451.95,1205.69 c 0.25,-0.81 2.06,-1.09 2.31,-0.03 -0.03,0.94 -0.06,1.87 -0.06,1.87 l -2.34,0.12 c 0,-0.65 0.09,-1.31 0.09,-1.96"
   id="path199" />
	<path
   class="st2"
   d="m 493.3,1205.72 c -0.25,-0.78 -2.06,-1.09 -2.31,-0.03 0.03,0.97 0.06,1.91 0.06,1.91 l 2.34,0.09 c 0,-0.66 -0.09,-1.32 -0.09,-1.97"
   id="path201" />
	<path
   class="st2"
   d="m 448.61,1205.97 c 0.25,-0.78 2.06,-1.09 2.22,-0.03 -0.03,0.91 -0.06,1.81 -0.06,1.81 l -2.28,0.09 c 0.03,-0.62 0.09,-1.25 0.12,-1.87"
   id="path203" />
	<path
   class="st2"
   d="m 496.64,1206 c -0.25,-0.78 -2.06,-1.09 -2.22,-0.03 0.03,0.94 0.06,1.81 0.06,1.81 l 2.28,0.12 c -0.02,-0.62 -0.09,-1.28 -0.12,-1.9"
   id="path205" />
	<path
   class="st2"
   d="m 445.61,1205.59 c 0.59,-0.41 1.22,0.19 1.34,0.59 -0.03,0.9 -0.06,1.81 -0.06,1.81 l -1.5,0.09 c 0.03,-0.61 0.19,-1.86 0.22,-2.49"
   id="path207" />
	<path
   class="st2"
   d="m 499.64,1205.63 c -0.59,-0.41 -1.22,0.19 -1.34,0.59 0.03,0.91 0.06,1.81 0.06,1.81 l 1.5,0.12 c -0.03,-0.62 -0.19,-1.9 -0.22,-2.52"
   id="path209" />
	<path
   class="st2"
   d="m 459.91,1208.4 h 2.19 c 0.09,0 0.16,0.06 0.16,0.12 v 2.25 c 0,0.06 -0.07,0.13 -0.16,0.13 h -2.19 c -0.09,0 -0.15,-0.06 -0.15,-0.13 v -2.25 c 0,-0.05 0.06,-0.12 0.15,-0.12"
   id="path211" />
	<path
   class="st2"
   d="m 485.34,1208.44 h -2.19 c -0.09,0 -0.15,0.06 -0.15,0.16 v 2.22 c 0,0.06 0.06,0.13 0.15,0.13 h 2.19 c 0.09,0 0.16,-0.06 0.16,-0.13 v -2.22 c -0.01,-0.1 -0.07,-0.16 -0.16,-0.16"
   id="path213" />
	<path
   class="st2"
   d="m 456.17,1208.56 2.22,-0.03 c 0.06,0 0.13,0.06 0.13,0.15 v 2.22 c 0,0.06 -0.06,0.12 -0.13,0.12 h -2.22 c -0.06,0 -0.13,-0.06 -0.13,-0.12 v -2.22 c 0,-0.09 0.07,-0.12 0.13,-0.12"
   id="path215" />
	<path
   class="st2"
   d="m 489.08,1208.59 h -2.22 c -0.06,0 -0.12,0.06 -0.12,0.12 v 2.22 c 0,0.09 0.06,0.16 0.12,0.16 h 2.22 c 0.06,0 0.13,-0.06 0.13,-0.13 v -2.25 c 0,-0.06 -0.06,-0.12 -0.13,-0.12"
   id="path217" />
	<path
   class="st2"
   d="m 451.92,1208.78 2.06,-0.06 c 0.09,0 0.16,0.06 0.16,0.13 l -0.06,2.18 c 0,0.09 -0.06,0.13 -0.13,0.16 l -2.03,0.09 c -0.09,0 -0.12,-0.06 -0.12,-0.16 v -2.22 c 0,-0.06 0.03,-0.12 0.12,-0.12"
   id="path219" />
	<path
   class="st2"
   d="m 493.33,1208.81 -2.06,-0.06 c -0.09,0 -0.16,0.06 -0.16,0.13 l 0.06,2.22 c 0,0.06 0.06,0.12 0.12,0.12 l 2.03,0.09 c 0.09,0 0.13,-0.06 0.13,-0.13 v -2.25 c 0.01,-0.06 -0.03,-0.12 -0.12,-0.12"
   id="path221" />
	<path
   class="st2"
   d="m 448.49,1209.03 2.03,-0.16 c 0.06,0 0.13,0.06 0.13,0.12 l -0.06,2.16 c 0,0.09 -0.06,0.12 -0.16,0.15 l -2,0.09 c -0.15,0.03 -0.13,-0.03 -0.13,-0.12 l 0.03,-2.12 c 0,-0.06 0.06,-0.12 0.16,-0.12"
   id="path223" />
	<path
   class="st2"
   d="m 496.77,1209.06 -2.03,-0.13 c -0.06,0 -0.13,0.06 -0.13,0.13 l 0.06,2.15 c 0,0.06 0.06,0.13 0.15,0.13 l 2,0.12 c 0.15,0 0.12,-0.06 0.12,-0.12 l -0.03,-2.12 c 0.01,-0.1 -0.05,-0.13 -0.14,-0.16"
   id="path225" />
	<path
   class="st2"
   d="m 445.3,1209.18 1.41,-0.09 c 0.06,0 0.13,0.06 0.13,0.13 l -0.06,2.12 c -0.03,0.09 -0.06,0.13 -0.16,0.13 l -1.41,0.09 c -0.18,0 -0.15,-0.06 -0.15,-0.15 l 0.12,-2.09 c -0.01,-0.07 0.06,-0.14 0.12,-0.14"
   id="path227" />
	<path
   class="st2"
   d="m 499.95,1209.25 -1.41,-0.13 c -0.06,0 -0.12,0.06 -0.12,0.13 l 0.06,2.15 c 0.03,0.06 0.06,0.13 0.16,0.13 l 1.4,0.06 c 0.19,0 0.16,-0.06 0.16,-0.13 l -0.12,-2.09 c 0,-0.06 -0.07,-0.12 -0.13,-0.12"
   id="path229" />
	<polygon
   class="st2"
   points="452.23,1215.31 453.58,1212.9 460.98,1212.65 461.63,1211.59 444.89,1212.18 444.83,1215.4 "
   id="polygon231" />
	<polygon
   class="st2"
   points="492.83,1215.37 491.49,1212.96 484.09,1212.74 483.43,1211.65 500.17,1212.28 500.23,1215.46 "
   id="polygon233" />
	<polygon
   class="st2"
   points="454.17,1213.5 452.26,1216.68 466.5,1216.52 467.19,1213.24 "
   id="polygon235" />
	<polygon
   class="st2"
   points="490.93,1213.59 492.83,1216.77 478.59,1216.65 477.75,1213.28 "
   id="polygon237" />
	<path
   class="st2"
   d="m 462.6,1203.16 c 0,0 -8.03,0.44 -9.59,0.59 -1.59,0.16 -7.31,0.97 -7.31,0.97 l -0.03,0.5 c 0,0 6.28,-0.81 7.87,-0.93 1.62,-0.13 8.8,-0.63 8.99,-0.63 0.04,-0.38 0.07,-0.5 0.07,-0.5"
   id="path239" />
	<path
   class="st2"
   d="m 482.71,1203.25 c 0,0 8.15,0.47 9.74,0.63 1.56,0.15 7.28,1 7.28,1 l 0.03,0.5 c 0,0 -6.25,-0.84 -7.87,-0.97 -1.62,-0.12 -8.93,-0.63 -9.12,-0.63 -0.18,0 -0.06,-0.53 -0.06,-0.53"
   id="path241" />
	<path
   class="st2"
   d="m 463.35,1202.41 -0.09,0.44 c 0,0 8.4,-0.12 9.24,-0.09 1,0.03 9.06,0.22 9.06,0.22 l -0.06,-0.5 c 0,0 -8.68,-0.16 -9.34,-0.16 -0.66,-0.04 -8.81,0.09 -8.81,0.09"
   id="path243" />
	<rect
   x="467.19"
   y="1213.21"
   class="st2"
   width="10.65"
   height="0.34"
   id="rect245" />
	<rect
   x="467.07001"
   y="1214.4"
   class="st2"
   width="10.9"
   height="0.34"
   id="rect247" />
	<path
   class="st2"
   d="m 466.94,1215.77 h 11.3 c 0.06,0 0.09,0.03 0.09,0.09 v 0.16 c 0,0.03 -0.03,0.09 -0.09,0.09 h -11.3 c -0.06,0 -0.09,-0.06 -0.09,-0.09 v -0.16 c 0,-0.05 0.03,-0.09 0.09,-0.09"
   id="path249" />
	<rect
   x="466.63"
   y="1217.24"
   class="st2"
   width="11.77"
   height="0.31"
   id="rect251" />
	<rect
   x="465.88"
   y="1219.12"
   class="st2"
   width="13.27"
   height="0.34"
   id="rect253" />
	<rect
   x="464.48001"
   y="1220.62"
   class="st2"
   width="15.93"
   height="0.40000001"
   id="rect255" />
	<rect
   x="464.16"
   y="1222.33"
   class="st2"
   width="16.52"
   height="0.41"
   id="rect257" />
	<rect
   x="463.45001"
   y="1224.3"
   class="st2"
   width="17.959999"
   height="0.41"
   id="rect259" />
	<rect
   x="462.54001"
   y="1226.45"
   class="st2"
   width="19.639999"
   height="0.5"
   id="rect261" />
	<rect
   x="461.35001"
   y="1228.73"
   class="st2"
   width="22.02"
   height="0.66000003"
   id="rect263" />
	<polygon
   class="st2"
   points="486.21,1233.11 486.24,1233.73 472.03,1233.92 458.54,1233.76 458.54,1233.08 471.82,1233.23 "
   id="polygon265" />
	<polygon
   class="st2"
   points="487.83,1235.35 487.87,1236.01 471.85,1236.29 456.82,1235.98 456.82,1235.26 471.63,1235.57 "
   id="polygon267" />
	<polygon
   class="st2"
   points="489.71,1237.67 489.77,1238.35 471.78,1238.82 454.95,1238.42 455.01,1237.63 471.53,1238.04 "
   id="polygon269" />
	<polygon
   class="st2"
   points="484.77,1230.92 484.84,1231.55 472.06,1231.73 459.92,1231.58 459.95,1230.89 471.88,1231.04 "
   id="polygon271" />
	<path
   class="st2"
   d="m 463.48,1202.84 -0.69,0.41 -0.03,0.47 0.06,0.06 c 0.91,0 8.84,-0.16 9.56,-0.16 0.69,0 8.84,0.19 10.05,0.22 l 0.06,-0.25 -0.09,-0.22 -0.94,-0.44 v -0.47 l 1.15,0.56 0.1,0.03 0.03,0.09 0.13,0.38 v 0.13 l -0.13,0.44 -0.03,0.16 h -0.16 c -0.03,0 -9.46,-0.22 -10.18,-0.22 -0.78,0 -9.62,0.16 -9.65,0.16 h -0.09 l -0.06,-0.09 -0.19,-0.19 -0.03,-0.06 v -0.09 l 0.06,-0.66 v -0.1 l 0.09,-0.06 0.88,-0.5 z"
   id="path273" />
	<polygon
   class="st1"
   points="481.64,1205.07 481.52,1205.07 472.75,1204.82 463.82,1204.97 463.7,1204.98 463.65,1204.86 463.3,1204.11 463.65,1203.95 463.94,1204.59 472.75,1204.43 481.41,1204.68 481.73,1204.01 482.07,1204.18 481.7,1204.96 "
   id="polygon275" />
	<polygon
   class="st2"
   points="483.71,1213.46 483.24,1213.43 481.47,1210.81 472.5,1210.62 463.76,1210.75 462.07,1213.4 461.6,1213.4 463.48,1210.43 463.54,1210.34 463.66,1210.34 472.5,1210.25 481.59,1210.43 481.68,1210.43 481.74,1210.53 "
   id="polygon277" />
	<path
   class="st2"
   d="m 454.98,1238.32 -0.37,-0.03 -0.03,-2.75 c 0,-0.06 4.28,-4.62 5.31,-6.12 0.6,-0.87 4.47,-7.56 4.5,-9.15 0,-0.44 -0.25,-0.34 -0.34,-0.44 -0.07,-0.12 -0.03,-0.31 -0.03,-0.34 0,-0.06 1.37,-0.28 1.75,-0.84 0.4,-0.56 0.97,-3.12 0.97,-3.12 0.03,0.84 -0.25,2.37 -0.81,3.43 l -1.25,1.47 c -0.03,0 -2.06,6.03 -2.5,6.62 -0.28,0.6 -4.9,8.03 -6.99,10.3 -0.43,0.44 -0.21,0.97 -0.21,0.97"
   id="path279" />
	<path
   class="st2"
   d="m 489.74,1238.32 0.38,-0.03 v -2.75 c 0,-0.06 -4.28,-4.62 -5.28,-6.12 -0.63,-0.87 -4.46,-7.56 -4.5,-9.15 -0.03,-0.44 0.18,-0.16 0.28,-0.25 0.1,-0.12 0.1,-0.5 0.1,-0.53 0,-0.06 -1.15,-0.31 -1.56,-0.87 -0.38,-0.59 -0.81,-3.21 -0.81,-3.21 -0.03,0.81 -0.06,2.47 0.5,3.53 l 1.19,1.5 c 0.03,0 2.06,6.03 2.5,6.62 0.28,0.6 5.11,8.34 7.2,10.62 0.39,0.43 0,0.64 0,0.64"
   id="path281" />
	<polygon
   class="st2"
   points="467.25,1211.22 466.94,1213.21 467.22,1213.21 467.47,1211.18 "
   id="polygon283" />
	<polygon
   class="st2"
   points="477.62,1211.25 477.9,1213.21 477.62,1213.24 477.4,1211.22 "
   id="polygon285" />
	<path
   class="st2"
   d="m 454.45,1238.45 -1.16,-0.53 -0.15,-0.09 -0.03,-0.15 -0.13,-2.16 v -0.12 l 0.09,-0.09 c 0.03,0 5.31,-5 6.34,-6.34 0.44,-0.56 1.06,-1.47 1.65,-2.44 0.75,-1.25 1.5,-2.53 1.75,-3.06 0.28,-0.56 0.53,-1.12 0.75,-1.72 0.22,-0.56 0.4,-1.19 0.47,-1.91 l 0.56,0.06 c -0.06,0.78 -0.25,1.44 -0.47,2.06 -0.25,0.62 -0.5,1.19 -0.78,1.75 -0.25,0.53 -1,1.84 -1.81,3.12 -0.56,0.97 -1.18,1.91 -1.65,2.5 -0.97,1.25 -5.56,5.62 -6.31,6.31 l 0.12,1.81 1,0.5 z"
   id="path287" />
	<path
   class="st2"
   d="m 489.68,1237.67 1.37,-0.02 0.09,-2.01 c -0.72,-0.69 -5.31,-5.06 -6.31,-6.31 -0.44,-0.59 -1.06,-1.53 -1.65,-2.5 -0.78,-1.28 -1.53,-2.59 -1.78,-3.12 -0.09,-0.22 -0.22,-0.43 -0.34,-0.68 -0.47,-0.87 -0.94,-1.75 -1.03,-2.97 l 0.56,-0.06 c 0.12,1.12 0.53,1.94 0.97,2.78 0.12,0.22 0.25,0.44 0.37,0.69 0.25,0.53 0.97,1.81 1.75,3.06 0.59,0.94 1.19,1.87 1.63,2.44 1.03,1.34 6.34,6.34 6.34,6.34 l 0.09,0.09 v 0.12 l -0.13,2.16 v 0.15 l -0.15,0.49 -1.7,0.04 z"
   id="path289" />
	<polygon
   class="st2"
   points="454.3,1207.06 450.73,1207.31 448.55,1207.47 446.86,1207.62 445.42,1207.69 445.39,1208.09 448.48,1207.87 451.86,1207.65 456.23,1207.41 462.35,1207.25 463.73,1207.25 463.79,1206.72 458.7,1206.84 "
   id="polygon291" />
	<polygon
   class="st2"
   points="491.08,1207.15 494.61,1207.44 496.77,1207.59 498.42,1207.75 499.86,1207.81 499.86,1208.22 496.83,1207.97 493.49,1207.78 489.15,1207.53 483.09,1207.34 481.74,1207.34 481.71,1206.84 486.74,1206.97 "
   id="polygon293" />
	<path
   class="st3"
   d="m 472.81,1186.46 c 16.23,0 29.46,13.24 29.46,29.46 0,16.22 -13.24,29.46 -29.46,29.46 -16.23,0 -29.46,-13.24 -29.46,-29.46 0,-16.22 13.23,-29.46 29.46,-29.46 m 0,0.69 c -15.85,0 -28.77,12.92 -28.77,28.77 0,15.85 12.92,28.77 28.77,28.77 15.85,0 28.77,-12.92 28.77,-28.77 0,-15.85 -12.92,-28.77 -28.77,-28.77"
   id="path295" />
	<path
   class="st3"
   d="m 472.81,1169.94 c -25.33,0 -45.98,20.66 -45.98,45.99 0,12.66 5.16,24.16 13.5,32.49 8.33,8.33 19.83,13.5 32.49,13.5 25.33,0 45.99,-20.66 45.99,-45.98 0,-12.66 -5.17,-24.16 -13.5,-32.49 -8.34,-8.35 -19.84,-13.51 -32.5,-13.51 m 0,-1.54 c 13.09,0 24.97,5.34 33.58,13.94 8.61,8.61 13.94,20.49 13.94,33.58 0,26.17 -21.35,47.52 -47.52,47.52 -13.09,0 -24.97,-5.34 -33.58,-13.94 -8.61,-8.61 -13.94,-20.49 -13.94,-33.57 0,-26.18 21.35,-47.53 47.52,-47.53"
   id="path297" />
	<polygon
   class="st3"
   points="513.34,1217.39 513.14,1219.07 510.28,1218.71 506.08,1221.17 506.34,1219.04 508.94,1217.66 506.75,1215.71 507.01,1213.58 510.49,1217.04 "
   id="polygon299" />
	<polygon
   class="st3"
   points="506.92,1223.94 512.21,1224.97 511.89,1226.62 506.6,1225.59 506.16,1227.86 504.82,1227.6 506.03,1221.41 507.37,1221.68 "
   id="polygon301" />
	
		<rect
   x="506.62"
   y="1226.92"
   transform="matrix(0.3584,-0.9336,0.9336,0.3584,-822.9721,1263.0967)"
   class="st3"
   width="1.6900001"
   height="6.75"
   id="rect303" />
	<path
   class="st3"
   d="m 504.32,1238.59 0.81,-1.53 0.06,0.03 c 0.34,0.18 0.67,0.17 1,-0.04 0.33,-0.2 0.65,-0.59 0.95,-1.15 0.23,-0.44 0.34,-0.8 0.34,-1.11 0,-0.31 -0.12,-0.52 -0.35,-0.64 -0.2,-0.11 -0.38,-0.11 -0.56,0 -0.18,0.11 -0.41,0.38 -0.71,0.83 l -0.67,1 c -0.49,0.73 -0.97,1.21 -1.44,1.43 -0.46,0.22 -0.94,0.2 -1.44,-0.06 -0.58,-0.31 -0.92,-0.83 -1.01,-1.55 -0.09,-0.72 0.1,-1.51 0.56,-2.38 0.5,-0.93 1.05,-1.56 1.68,-1.91 0.62,-0.34 1.24,-0.35 1.84,-0.03 l 0.05,0.03 -0.79,1.48 c -0.32,-0.12 -0.61,-0.1 -0.89,0.06 -0.28,0.17 -0.54,0.47 -0.78,0.93 -0.22,0.42 -0.34,0.78 -0.34,1.07 0,0.29 0.1,0.5 0.32,0.61 0.17,0.09 0.34,0.09 0.49,0 0.15,-0.09 0.4,-0.39 0.74,-0.89 l 0.71,-1.05 c 0.49,-0.72 0.97,-1.18 1.44,-1.39 0.47,-0.21 0.97,-0.17 1.49,0.1 0.66,0.35 1.03,0.89 1.08,1.61 0.06,0.72 -0.19,1.6 -0.74,2.64 -0.53,0.99 -1.11,1.65 -1.76,1.99 -0.64,0.34 -1.3,0.33 -1.97,-0.03 z"
   id="path305" />
	<path
   class="st3"
   d="m 501.24,1245.97 -5.17,-4.34 2.67,-3.18 c 0.58,-0.69 1.12,-1.1 1.62,-1.24 0.5,-0.14 0.98,-0.01 1.46,0.39 0.31,0.25 0.51,0.55 0.61,0.9 0.11,0.35 0.09,0.7 -0.03,1.06 0.29,-0.15 0.54,-0.21 0.76,-0.18 0.22,0.03 0.51,0.18 0.88,0.46 0.04,0.03 0.09,0.07 0.15,0.11 0.66,0.51 1.15,0.76 1.45,0.76 l -1.22,1.46 c -0.08,-0.01 -0.17,-0.04 -0.25,-0.08 -0.08,-0.04 -0.16,-0.09 -0.24,-0.16 l -0.35,-0.29 c -0.48,-0.4 -0.84,-0.6 -1.09,-0.6 -0.25,0 -0.52,0.18 -0.82,0.53 l -0.03,0.03 -1.23,1.46 1.91,1.6 z m -1.87,-3.78 1.23,-1.47 c 0.32,-0.39 0.5,-0.7 0.54,-0.94 0.04,-0.24 -0.05,-0.44 -0.27,-0.63 -0.21,-0.18 -0.42,-0.23 -0.62,-0.15 -0.21,0.08 -0.5,0.34 -0.87,0.78 l -1.18,1.41 z"
   id="path307" />
	<polygon
   class="st3"
   points="494.48,1247.76 495.31,1248.95 498.83,1246.48 499.65,1247.64 494.74,1251.08 490.87,1245.55 495.77,1242.11 496.56,1243.23 493.04,1245.7 493.69,1246.63 496.83,1244.43 497.61,1245.56 "
   id="polygon309" />
	<polygon
   class="st3"
   points="483.59,1248.71 485.31,1247.98 488.99,1251.68 488.91,1246.45 490.61,1245.73 490.52,1253.11 488.93,1253.78 "
   id="polygon311" />
	
		<rect
   x="482.5"
   y="1248.99"
   transform="matrix(0.9703,-0.2418,0.2418,0.9703,-288.5083,154.057)"
   class="st3"
   width="1.6900001"
   height="6.75"
   id="rect313" />
	<polygon
   class="st3"
   points="475.51,1252.25 476.1,1257.02 474.5,1257.21 473.67,1250.51 475.74,1250.26 479.66,1254.57 479.08,1249.85 480.7,1249.65 481.52,1256.35 479.48,1256.6 "
   id="polygon315" />
	<path
   class="st3"
   d="m 467.58,1250.09 -0.25,3.62 c -0.05,0.66 0.06,1.15 0.32,1.47 0.26,0.32 0.69,0.5 1.31,0.54 0.33,0.02 0.62,0 0.87,-0.08 0.25,-0.08 0.45,-0.2 0.62,-0.37 0.13,-0.13 0.22,-0.29 0.29,-0.47 0.06,-0.18 0.11,-0.46 0.13,-0.85 l 0.25,-3.62 1.67,0.12 -0.26,3.8 c -0.07,1.02 -0.42,1.77 -1.04,2.26 -0.62,0.49 -1.5,0.69 -2.63,0.61 -1.13,-0.08 -1.97,-0.4 -2.51,-0.97 -0.54,-0.57 -0.78,-1.36 -0.71,-2.38 l 0.26,-3.8 z"
   id="path317" />
	<polygon
   class="st3"
   points="456.78,1248.87 454.98,1253.33 453.49,1252.73 456.01,1246.47 457.94,1247.25 459.28,1252.93 461.07,1248.51 462.58,1249.12 460.05,1255.38 458.14,1254.61 "
   id="polygon319" />
	<path
   class="st3"
   d="m 445.84,1247.87 6.36,-3.92 1.36,0.88 -1.1,7.34 -1.58,-1.03 0.26,-1.53 -2.49,-1.62 -1.29,0.87 z m 4.05,-0.7 1.5,0.97 0.38,-2.24 z"
   id="path321" />
	<polygon
   class="st3"
   points="444.77,1239.69 441.37,1243.09 440.23,1241.95 445.01,1237.17 446.47,1238.64 445.49,1244.39 448.86,1241.03 450.01,1242.18 445.23,1246.95 443.78,1245.5 "
   id="polygon323" />
	<polygon
   class="st3"
   points="440.78,1233.02 436.5,1235.21 435.77,1233.77 441.78,1230.7 442.72,1232.55 440.01,1237.72 444.25,1235.56 444.99,1237 438.97,1240.07 438.05,1238.24 "
   id="polygon325" />
	<path
   class="st3"
   d="m 439.89,1224.85 -3.47,1.06 c -0.63,0.19 -1.06,0.47 -1.26,0.83 -0.21,0.36 -0.22,0.83 -0.04,1.42 0.1,0.32 0.23,0.58 0.38,0.78 0.16,0.21 0.35,0.35 0.57,0.44 0.17,0.07 0.35,0.11 0.54,0.1 0.19,-0.01 0.47,-0.07 0.84,-0.18 l 3.47,-1.06 0.49,1.6 -3.64,1.11 c -0.98,0.3 -1.81,0.25 -2.48,-0.16 -0.68,-0.4 -1.18,-1.15 -1.52,-2.23 -0.33,-1.08 -0.33,-1.98 0.01,-2.69 0.33,-0.72 0.99,-1.22 1.97,-1.52 l 3.64,-1.11 z"
   id="path327" />
	<polygon
   class="st3"
   points="432.41,1220.7 432.26,1219.01 435.13,1218.76 438.73,1215.49 438.92,1217.63 436.66,1219.52 439.21,1220.97 439.4,1223.1 435.28,1220.44 "
   id="polygon329" />
	<path
   class="st0"
   d="m 443.76,1185.09 c -0.26,-0.08 -0.37,0.07 -0.61,0.15 -0.32,0.5 -0.11,0.83 -0.18,1.29 -0.14,0.96 -0.73,1.87 -0.8,2.81 -0.04,0.03 -0.08,0.05 -0.12,0.08 -0.15,-0.06 -0.29,-0.13 -0.44,-0.19 -0.43,-0.43 0,-0.78 0.09,-1.25 0.09,-0.49 -0.07,-2.4 -0.74,-2.55 -0.05,-0.02 -0.09,-0.04 -0.13,-0.05 -0.11,0.11 -0.22,0.21 -0.33,0.32 -0.12,0.28 -0.23,0.57 -0.35,0.85 -0.36,1.19 -0.95,2.38 -1.51,3.66 0.72,0.58 1.51,0.33 2.17,0.14 0.18,0.11 0.37,0.23 0.55,0.34 0.52,0.46 -0.02,0.97 -0.17,1.49 -0.01,0.25 -0.02,0.5 -0.03,0.75 0,0.02 0,0.04 0.01,0.07 -0.63,-0.11 -1.04,0 -1.63,0.01 -0.13,0.15 -0.26,0.31 -0.38,0.46 -0.12,0.2 -0.08,0.19 -0.07,0.37 0.26,0.15 0.58,0.1 0.82,0.39 0.15,0.3 0.29,0.61 0.44,0.91 0.27,0.39 1.08,0.67 1.41,0.76 0.1,-0.05 0.15,-0.08 0.25,-0.09 0.61,-0.71 0.08,-1.32 -0.11,-1.95 -0.01,-0.01 -0.02,-0.02 -0.04,-0.03 0.16,-0.01 0.36,0.31 0.58,0.31 0.11,0.25 -0.04,0.13 -0.1,0.4 0.05,0.16 0.09,0.32 0.14,0.48 0.48,0.43 0.61,0.24 1.02,0.14 0.32,-0.36 0.28,-1.07 -0.33,-1.18 -0.07,-0.2 -0.01,-0.57 0,-0.78 -0.25,-0.21 -0.45,-0.3 -0.68,-0.27 -0.12,-0.25 0,-0.52 0,-0.78 0.03,-0.04 0.06,-0.07 0.09,-0.11 0.45,0.24 1.7,1.42 1.89,1.47 0.04,0.05 0.07,0.1 0.11,0.15 -0.02,0.1 -0.05,0.2 -0.07,0.3 -0.4,0.45 -0.48,0.64 -0.5,1.02 0.4,0.3 0.74,0.08 1.12,0.1 0.31,-0.47 0.02,-0.96 0.11,-1.42 0.1,-0.5 0.47,-1.05 0.39,-1.54 0.02,-0.02 0.04,-0.05 0.06,-0.07 0.2,0.22 0.31,0.46 0.39,0.68 -0.38,1.12 -0.89,2.2 -0.89,3.28 -0.24,0.25 -0.33,0.17 -0.56,0.31 0.01,0.17 0.03,0.35 0.05,0.52 0.2,0.19 0.45,0.46 0.52,0.67 0.37,0.35 0.61,0.27 0.91,-0.08 -0.08,-0.82 0.18,-1.67 0.11,-2.49 0.03,-0.04 0.06,-0.07 0.09,-0.11 0.52,0.63 0.13,1.64 0.2,2.34 0.13,0.23 0.26,0.46 0.39,0.68 0.39,0.24 0.62,0 0.98,-0.02 0.27,-0.43 0.54,-2.21 0.52,-2.69 0.18,-0.04 0.36,0.12 0.53,0.15 0.26,0.07 0.97,-0.27 1.05,-0.68 0.25,-0.82 -1.21,-1.38 -1.76,-1.42 -0.21,0.04 -0.43,0.08 -0.64,0.12 -0.26,0.29 -0.28,0.4 -0.3,0.65 0.08,0.07 0.17,0.14 0.25,0.21 0.43,0.44 -0.1,1.16 -0.18,1.65 -0.04,0.05 -0.08,0.09 -0.12,0.14 -0.23,-0.38 -0.41,-2.08 -0.35,-2.52 0.06,-0.45 0.33,-1 0.24,-1.43 -0.09,-0.41 -0.38,-0.53 -0.73,-0.56 -0.06,0.13 -0.06,0.09 -0.05,0.2 -0.04,0.05 -0.08,0.09 -0.12,0.14 -0.18,-0.27 -0.05,-0.97 -0.01,-1.27 -0.34,-0.28 -0.41,-0.18 -0.7,-0.17 -0.45,0.63 -0.53,1.67 -0.65,2.34 -0.04,0 -0.09,0.01 -0.13,0.01 -0.52,-0.6 -0.85,-1.24 -1.44,-1.87 0.23,-0.28 0.46,-0.23 0.61,-0.15 0.03,0.15 -0.1,0.35 -0.06,0.49 0.11,0.32 0.89,0.31 1.1,0.2 0.16,-0.12 0.19,-0.46 0.2,-0.67 -0.31,-0.28 -0.5,-0.36 -0.78,-0.29 -0.13,-0.19 -0.08,-0.33 -0.05,-0.52 -0.17,-0.16 -0.18,-0.21 -0.38,-0.2 -0.18,-0.33 0.17,-0.78 0.29,-1.14 0.23,-0.71 0.81,-3.29 -0.46,-3.46 m -0.36,4.8 c -0.08,0.07 -0.16,0.14 -0.24,0.22 -0.03,0.15 -0.06,0.31 -0.09,0.46 -0.02,0 -0.04,0 -0.06,0.01 -0.48,-0.9 0.42,-2.05 0.36,-3 0.03,-0.04 0.06,-0.07 0.09,-0.11 0.12,0.19 0.03,2.18 -0.06,2.42"
   id="path331" />
	<path
   class="st0"
   d="m 465.82,1174.35 c -0.04,-0.14 -0.07,-0.29 -0.1,-0.43 -0.16,-0.2 -1.43,-0.1 -1.79,0.08 -0.54,0.27 -1.19,1.07 -1.39,1.58 -0.05,0.01 -0.11,0.02 -0.16,0.04 -0.14,-0.64 0.13,-1.23 0.41,-1.63 -0.19,-0.49 -1.61,-0.94 -2.09,-0.93 -0.26,0.34 -0.52,0.69 -0.78,1.03 0.27,0.61 1.38,1.81 1.06,2.81 0.14,0.72 -0.74,1.18 -1.3,1.44 -0.57,0.26 -0.76,-0.09 -1.13,0.27 -0.09,0.13 -0.12,0.24 -0.13,0.43 0.52,0.37 0.89,0.91 1.47,1.18 0.11,-0.02 0.21,-0.05 0.32,-0.08 0.24,-0.39 0.6,-0.8 0.79,-1.21 0.04,-0.01 0.07,-0.02 0.11,-0.02 0.02,0.01 0.04,0.03 0.07,0.04 0.04,1.52 -0.97,1.98 -1.74,2.96 0.2,0.55 0.99,0.41 1.44,0.57 0.35,-0.13 0.49,-0.35 0.72,-0.57 0.13,0.08 0.27,0.17 0.4,0.25 -0.07,0.21 -0.36,0.36 -0.57,0.47 0.14,0.43 0.59,0.36 0.94,0.4 0.02,0.34 -0.23,0.54 -0.38,0.77 0.03,0.05 0.06,0.1 0.09,0.15 0.2,0.28 0.53,0.34 0.88,0.36 0.02,0.28 -0.03,0.52 0.18,0.75 0.11,0.26 0.16,0.24 0.32,0.38 0.5,-0.13 0.93,-0.36 1.21,-0.63 -0.11,-0.53 -0.26,-1.15 -0.56,-1.4 0,-0.09 -0.01,-0.19 -0.01,-0.28 0.84,0.03 0.88,0.9 1.32,1.5 0.04,0.01 0.08,0.02 0.12,0.03 2.11,-0.74 -0.49,-6.47 0.58,-8.13 -0.11,-0.38 -0.18,-0.32 -0.39,-0.47 -1.35,0.27 -2.92,1.6 -3.56,2.48 -0.06,-0.01 -0.12,-0.01 -0.17,-0.02 -0.02,0 -0.04,0.01 -0.05,0.01 0.21,-1.95 2.51,-2.9 3.87,-4.18 m -3.38,5.84 c 0.18,0.08 0.2,0.33 0.18,0.52 0.02,0.01 0.04,0.03 0.07,0.04 0.38,-0.1 0.71,-0.3 0.92,-0.44 0.3,-0.1 0.28,-0.16 0.43,-0.33 0.01,-0.2 0.05,-0.35 -0.06,-0.5 -0.15,-0.25 -0.46,-0.27 -0.79,-0.21 -0.01,-0.05 -0.03,-0.11 -0.04,-0.16 0.33,-0.28 0.86,-0.62 1.07,-0.99 0.24,-0.02 0.18,-0.05 0.31,0.1 0.06,0.33 0.12,0.65 0.17,0.98 -0.02,0.38 -0.05,0.77 -0.07,1.15 0.02,0.8 0.46,1.57 0.31,2.25 -0.04,0.17 0.01,0.09 -0.12,0.2 -0.06,0.04 -0.11,0.03 -0.23,0 -0.06,0 -0.12,-0.01 -0.17,-0.01 -0.08,-0.39 -0.17,-1.1 -0.41,-1.26 0,-0.02 -0.01,-0.04 -0.01,-0.05 -0.17,0.12 -0.28,0.25 -0.35,0.42 -0.04,0.01 -0.07,0.02 -0.11,0.03 0.02,-0.45 0.24,-0.62 -0.12,-0.99 -0.31,0.08 -0.39,0.14 -0.49,0.34 -0.06,-0.01 -0.12,-0.01 -0.17,-0.02 -0.16,-0.18 -0.22,-0.41 -0.41,-0.53 -0.08,-0.35 -0.03,-0.34 0.09,-0.54"
   id="path333" />
	<path
   class="st0"
   d="m 459.15,1182.61 c 0.05,-0.01 0.11,-0.02 0.16,-0.04 0.86,0.64 2.06,1.47 2.43,2.83 -0.14,0.3 -0.13,0.67 -0.35,0.93 -0.62,0.7 -1.63,0.11 -2.09,-0.19 -0.41,-1.29 -0.47,-2.55 -0.15,-3.53"
   id="path335" />
	<path
   class="st0"
   d="m 489.32,1175.07 c 0.28,0.23 0.35,0.48 0.52,0.71 0.2,0.28 0.67,0.54 0.71,0.87 0.12,1.03 -1,1.06 -1.36,1.47 -0.34,0.76 -0.68,1.53 -1.03,2.29 0.71,0.17 1.27,0.33 1.65,-0.54 -0.05,-0.14 -0.04,-0.08 0,-0.27 l 0.27,0.13 c 0.39,0.72 1.23,0.93 0.71,1.99 -0.57,0.14 -1.14,0.48 -1.78,0.41 -0.56,-0.07 -1.05,-0.58 -1.45,-0.16 0.26,0.93 0.36,3.71 1.31,4.2 0.27,-0.04 1.16,0.22 1.29,0.35 0.14,0.15 0.12,0.12 0.11,0.32 -1.29,0.17 -1.8,1.74 -3.46,1 -0.51,-1.14 -0.46,-2.33 -0.36,-3.68 0.04,-0.49 0.59,-1.49 0.26,-1.93 -1.89,2.79 -4.15,4.92 -7.05,1.87 -0.01,-0.07 -0.02,-0.14 -0.03,-0.21 l 0.11,-0.08 c 0.39,-0.19 1.28,0.22 1.71,0.15 0.88,-0.13 3.15,-0.99 3.71,-1.81 -0.05,-0.02 -0.11,-0.05 -0.16,-0.08 -0.55,0.21 -1.16,0.25 -1.93,-0.12 -0.17,-0.37 -0.83,-1.57 -0.73,-1.94 0.33,-0.04 0.72,-0.18 1.07,-0.15 0.94,0.06 2.53,0.94 3.19,0.39 0.18,-0.38 0.36,-0.76 0.54,-1.13 -0.01,-0.44 0.33,-0.83 0.54,-1.13 0.35,-0.92 0.7,-1.83 1.04,-2.75 0.2,-0.05 0.39,-0.12 0.6,-0.17"
   id="path337" />
	<path
   class="st0"
   d="m 506.91,1196.59 c 0.09,-0.06 0.18,-0.12 0.26,-0.17 0.05,-0.39 0.11,-0.79 0.16,-1.18 -0.16,-0.26 -0.33,-0.53 -0.52,-0.6 -0.04,-0.1 -0.09,-0.2 -0.13,-0.29 -0.01,-0.01 -0.02,-0.03 -0.03,-0.04 0.44,-0.08 2.09,0.41 2.58,0.56 0.46,-0.37 0.31,-0.9 0.5,-1.34 -0.25,-0.3 -0.77,-0.57 -1.11,-0.72 -0.18,-0.28 -0.18,-0.36 -0.19,-0.57 0.03,-0.02 0.06,-0.04 0.09,-0.06 0.02,0.01 0.05,0.01 0.07,0.01 0.43,0.69 0.6,0.74 1.12,0.83 0.67,-0.47 0.61,-1.11 0.84,-1.69 -0.06,-0.06 -0.13,-0.13 -0.19,-0.19 -0.5,-0.32 -0.9,0.12 -1.47,0.16 -0.58,-0.18 -1.16,-0.36 -1.75,-0.54 -0.06,-0.09 -0.12,-0.18 -0.17,-0.26 -0.18,-0.24 -0.36,-0.48 -0.54,-0.72 -0.35,0.28 -0.3,0.74 -0.29,1.08 -0.22,0.05 -0.43,-0.01 -0.63,-0.09 -0.03,0.02 -0.06,0.04 -0.09,0.06 0.24,0.25 0.5,0.4 0.77,0.5 0.12,0.24 0.11,0.27 -0.02,0.45 -0.01,0.09 -0.08,0.03 -0.2,0.07 -0.2,-0.31 -0.41,-0.61 -0.61,-0.92 -0.02,0 -0.05,-0.01 -0.07,-0.01 -0.45,0.61 -0.73,0.73 -1.49,0.42 -0.02,-0.01 -0.05,-0.01 -0.07,-0.02 0.02,-0.06 0.05,-0.12 0.07,-0.17 0.36,-0.24 0.45,-0.11 0.71,0.03 0.08,-0.01 0.15,-0.02 0.23,-0.03 1.13,-0.71 0.99,-0.98 1.03,-1.88 -0.22,-0.31 -0.32,-0.29 -0.57,-0.38 -0.15,0.31 -0.3,0.62 -0.45,0.93 -0.09,0.06 -0.18,0.12 -0.26,0.17 l -0.03,-0.61 c -0.08,-0.09 -0.16,-0.18 -0.25,-0.28 -0.32,0.23 -0.32,0.48 -0.55,0.68 -0.64,0.57 -1.07,0.37 -1.18,1.35 -0.04,0.01 -0.08,0.01 -0.12,0.01 -0.14,-0.31 -0.08,-0.89 -0.32,-1.05 -0.06,-0.06 -0.13,-0.13 -0.19,-0.19 l -0.39,0.45 c -0.8,0.4 -1.22,0.03 -1.49,0.99 0.15,0.23 0.31,0.47 0.46,0.7 0.2,0.21 0.27,0.17 0.48,0.25 0.3,-0.19 0.63,-0.39 0.73,-0.61 0.1,-0.07 0.2,-0.14 0.31,-0.2 -0.01,0.24 -0.02,0.48 -0.03,0.71 0.23,0.2 0.61,0.16 0.87,0.18 0.05,0.07 0.1,0.15 0.15,0.22 -0.31,0.19 -0.5,0.19 -0.74,0.11 -0.5,0.34 -0.32,0.81 -0.44,1.24 -0.18,0.08 -0.36,0.15 -0.54,0.23 -0.54,0.06 -1.02,-0.72 -1.51,-0.95 -0.54,-0.84 -0.28,-0.97 -1.01,-1.34 -0.04,0 -0.08,0.01 -0.12,0.01 -0.47,0.38 -0.38,0.89 -0.5,1.34 0.41,0.8 1.6,1.13 2.38,1.51 -0.01,0.05 -0.02,0.1 -0.03,0.15 -0.48,0.3 -0.95,0.59 -1.43,0.88 -0.04,-0.03 -0.09,-0.07 -0.13,-0.1 0.02,-0.37 0.05,-0.75 0.08,-1.12 -0.13,-0.17 -0.16,-0.18 -0.29,-0.25 -0.01,0.01 -0.97,2.56 -1.01,2.75 -0.05,0.22 -0.07,0.55 0.16,0.71 0.84,0.5 2.24,-2.03 3.43,-2.15 0.72,-0.48 0.84,0.19 1.37,0.54 0.05,0.24 -0.02,0.14 -0.13,0.28 0.32,0.41 0.65,0.45 1.02,0.59 0.26,-0.13 0.49,-0.22 0.58,-0.45 0.02,-0.03 0.04,-0.07 0.06,-0.1 -0.36,-0.64 -0.73,-1.01 -1.26,-1.24 -0.03,-0.04 -0.06,-0.09 -0.09,-0.13 0.22,-0.12 0.3,-0.14 0.48,-0.13 0.26,-0.22 0.22,-0.34 0.31,-0.58 0.05,0.01 0.1,0.02 0.15,0.03 0.96,1.31 1.99,1.92 3.18,2.17 m 1.02,-4.64 c 0.08,0.23 -0.07,0.81 0.01,1.25 -0.18,0.07 -0.23,0.05 -0.39,0.07 -0.03,-0.02 -0.07,-0.04 -0.1,-0.06 -0.08,-0.24 0.01,-0.53 0.07,-0.74 -0.14,-0.19 -0.19,-0.22 -0.32,-0.29 -0.35,0.22 -0.76,0.47 -0.91,0.73 0.23,0.28 0.28,0.18 0.51,0.29 0.03,0.02 0.07,0.04 0.1,0.06 -0.01,0.02 -0.01,0.05 -0.02,0.07 -0.22,0.09 -0.32,0.08 -0.51,0.09 -0.23,-0.2 -0.37,-0.4 -0.54,-0.72 0.17,-0.09 0.19,-0.09 0.32,-0.09 0.29,-0.18 0.38,-0.29 0.34,-0.54 0.17,0 0.33,-0.01 0.5,-0.01 0.06,-0.19 0.13,-0.38 0.19,-0.57 0.25,0.15 0.5,0.3 0.75,0.46 m -4.71,-0.16 c -0.03,-0.04 -0.06,-0.09 -0.09,-0.13 0.05,-0.01 0.11,-0.03 0.16,-0.04 0.53,-0.09 1.08,0.54 1.63,0.56 0.22,0.39 0.35,0.73 0.71,0.79 0.01,0.13 -0.01,0.15 -0.01,0.26 -1.01,0.68 -1.62,-0.98 -2.4,-1.44 m -0.03,2.04 c -0.34,-0.3 -0.22,-0.64 -0.2,-0.87 0.44,-0.13 0.76,0.54 1.12,0.83 0.46,0.38 1.23,0.84 1.77,0.97 0.01,0.05 0.03,0.11 0.04,0.16 0.01,0.05 0.03,0.11 0.04,0.16 -0.03,0.02 -0.06,0.04 -0.09,0.06 -0.55,-0.16 -2.24,-0.93 -2.68,-1.31"
   id="path339" />
</g>
</svg>
